<svg version="1.1" xmlns="http://www.w3.org/2000/svg" xmlns:xlink="http://www.w3.org/1999/xlink" width="2878.25006" height="1619.57958" viewBox="0,0,2878.25006,1619.57958"><g transform="translate(1119.12503,629.78979)"><g stroke-miterlimit="10"><g stroke-width="0"><path d="M561.3477,232.20645l-20.4987,-36.87351l93.59733,-3.68829l34.28391,35.94698z" fill="#cedce9" stroke="#000000" stroke-linecap="round"/><path d="M670.04635,226.31353c2.46161,-0.27654 4.97679,-0.62366 7.50116,-1.14598c3.22136,-0.66654 10.9272,-1.822 7.53792,-2.52738c1.84891,0.19326 4.33544,0.41935 5.64564,0.45263c6.2074,0.15756 14.30346,-0.61049 20.69949,-0.88536c17.54724,-0.75412 34.68944,-1.69245 51.69757,-1.35563c7.68643,0.15222 9.78139,-1.4216 12.18246,0.56028c4.93592,3.28635 14.18869,6.03568 20.13943,9.30191c8.06507,4.42672 11.26201,8.92953 16.24542,13.50162c5.60824,3.70058 1.24352,11.48508 1.33596,15.86825c0.02474,1.17331 -1.49061,3.33475 0.00792,4.13479c-1.47057,0.10687 -2.89295,0.2089 -3.79825,0.2478c-6.01639,0.25856 -12.04315,0.52287 -18.05956,0.78142c-23.9324,1.02851 -51.85441,2.08682 -75.12326,1.18926c-27.62294,-0.83718 -57.72706,3.34309 -85.56749,2.72264c-15.24428,-0.25616 -31.87653,0.98109 -47.37817,1.65371c-7.86391,0.3412 -14.62502,-0.34783 -18.03749,1.61409c-0.89694,0.51567 -0.02762,-1.12474 -0.03945,-1.68591c-0.02958,-1.40291 -0.06812,-2.81232 -0.09771,-4.21527c-0.16569,-7.8565 -0.34312,-15.75929 -0.50881,-23.6158c-0.03918,-1.85733 1.32733,-8.58306 -1.77305,-9.16952c0.57857,-0.03619 1.23371,-0.08312 1.59366,-0.10719c3.18885,-0.21307 4.97668,-0.23527 7.45436,-0.9223c4.30149,-1.19268 18.91436,-1.06408 24.77533,-1.31595c22.77635,-0.97884 45.67326,-1.99634 68.44947,-2.97517c0,0 5.18213,-0.22559 5.14663,-1.90911c-0.00146,-0.06912 -0.01089,-0.13507 -0.02893,-0.19788z" fill="#484848" stroke="none" stroke-linecap="butt"/><path d="M742.47014,229.37869c-0.00411,-0.19523 -0.08246,-0.51909 -0.15751,-0.83732c-0.26288,0.14173 -0.65676,0.26992 -1.16427,0.38629c-1.51721,0.57299 -3.8352,0.67262 -3.8352,0.67262c-19.64263,0.84415 -30.89361,5.80099 -37.7384,10.80077c-0.80566,0.56851 -0.71993,1.20805 -0.70736,1.8044c0.00358,0.16967 -0.04042,0.44143 -0.08883,0.7227c0.05005,-0.09206 0.17813,-0.1714 0.44106,-0.23009c1.162,-0.25939 11.32896,0.58557 12.55769,-0.20488c0.36925,-0.23755 -1.83967,-0.18438 -1.72315,-0.43937c1.43304,-3.1349 17.21947,-8.46202 25.00099,-10.0722c2.01819,-0.41763 4.29448,-0.68194 6.55929,-0.85548c-0.89558,-0.41244 0.86764,-1.17842 0.85564,-1.74739zM698.75425,243.06864c-0.10433,0.60354 -0.19606,1.18011 0.14862,0.82031c0.23561,-0.24588 -0.11866,-0.56163 -0.14862,-0.82031zM690.31823,239.29165c7.27461,-4.85271 16.98967,-9.40987 32.23092,-11.69423c1.41946,-0.7937 4.37938,-0.92094 4.37938,-0.92094l2.57844,-0.11082c5.8384,-0.25092 8.91322,-1.04768 15.18445,-1.31719c8.70919,-0.37427 10.84725,5.19257 6.32796,7.04398c-2.85185,1.16827 -7.45442,1.7092 -11.28824,2.50252c-11.34833,2.34819 -15.46094,7.87126 -27.8827,11.06527c-13.16553,3.3852 -27.85416,-2.10627 -21.53017,-6.56855z" fill="#000000" stroke="none" stroke-linecap="butt"/><path d="M742.50306,228.47673c0.0752,0.31822 0.16554,0.64624 0.16965,0.84147c0.01199,0.56895 -1.72987,1.34439 -0.83428,1.75685c-2.26483,0.17356 -4.55433,0.43157 -6.5726,0.8492c-7.78162,1.61016 -23.64519,6.91701 -25.07817,10.05192c-0.11663,0.25504 1.85051,0.36022 1.48121,0.59779c-1.22873,0.79044 -11.48404,-0.07291 -12.64602,0.18648c-0.26307,0.05875 -0.38993,0.13845 -0.43987,0.23054c0.04841,-0.28127 0.08284,-0.55651 0.07925,-0.72618c-0.01257,-0.59632 -0.12104,-1.24664 0.68461,-1.81512c6.84474,-4.99978 18.50319,-10.07304 38.14579,-10.91719c0,0 2.3286,-0.09644 3.84577,-0.66946c0.50757,-0.1164 0.90163,-0.24452 1.16437,-0.38626z" fill="#ffffff" stroke="none" stroke-linecap="butt"/></g><g stroke-width="0"><path d="M204.68885,253.30535l43.92991,-30.8818l89.20261,28.65898l-30.90762,35.52802z" fill="#cedce9" stroke="#000000" stroke-linecap="round"/><path d="M196.84564,248.38027c-2.90719,-1.58504 -9.96542,-4.87889 -6.4822,-4.77195c-1.84242,-0.27089 -4.29047,-0.66634 -5.56488,-0.97335c-6.03731,-1.45448 -13.54794,-4.41397 -19.63685,-6.39774c-16.70454,-5.44241 -32.84961,-10.97456 -49.3631,-15.0651c-7.46289,-1.84862 -8.99213,-4.14664 -11.90713,-2.57811c-5.75458,2.35044 -15.4678,2.9563 -22.1955,5.01802c-9.11818,2.79425 -13.54154,6.91866 -19.72992,10.68303c-6.52823,2.6335 -4.67948,12.37579 -6.09142,17.21432c-0.37794,1.29518 0.42475,4.08138 -1.26265,4.57561c1.38682,0.50457 2.72704,0.98936 3.58878,1.27011c5.72743,1.86602 11.45478,3.73199 17.18224,5.59802c22.78274,7.42269 49.30838,15.85832 72.03225,20.97007c26.90706,6.32158 54.42884,18.79419 81.48035,25.41329c14.78714,3.71712 30.41197,9.46198 45.16711,14.27701c7.48527,2.44266 14.21027,3.45494 16.91104,6.52725c0.70985,0.80754 0.36154,-1.23896 0.54232,-1.85842c0.4519,-1.54866 0.90386,-3.09745 1.3558,-4.64611c2.53082,-8.67272 5.06162,-17.34544 7.59243,-26.01815c0.59832,-2.0503 1.31911,-9.84801 4.48775,-9.68488c-0.54727,-0.19196 -1.1649,-0.41532 -1.505,-0.53655c-3.01285,-1.07346 -4.72833,-1.56297 -6.91186,-2.97551c-3.79073,-2.45227 -17.91996,-6.13235 -23.49947,-7.95016c-21.6823,-7.06415 -43.36455,-14.12831 -65.04687,-21.19249c0,0 -4.90919,-1.59942 -4.36688,-3.45784c0.02226,-0.07631 0.05183,-0.14674 0.08819,-0.2117c-2.29191,-0.95294 -4.58628,-1.98643 -6.86444,-3.22846zM274.12037,272.75401c13.08855,4.26429 30.07426,8.83212 37.91304,15.51233c4.49194,3.828 -0.90467,9.65093 -1.7508,12.55052c-2.53082,8.67272 -5.06162,17.34543 -7.59243,26.01815c-0.289,0.99035 -0.03171,6.45396 -1.89811,6.50455c-18.85169,0.51063 -49.66026,-14.71456 -71.03448,-19.73099c-26.45199,-6.4724 -55.16659,-19.91662 -81.01325,-25.3036c-23.42065,-5.26845 -50.94664,-13.97874 -74.44598,-21.63488c-3.37071,-1.0982 -23.86713,-6.71775 -25.77323,-8.39702c-5.46601,-4.81558 -3.42591,-6.68244 -2.46874,-9.96243c1.73123,-5.93275 1.01682,-13.90974 6.93829,-18.22555c6.34271,-3.85822 11.26706,-8.19606 20.4048,-10.99628c3.68604,-1.12954 7.82738,-2.89762 12.34924,-3.52921c2.95886,-0.41329 8.21252,0.17933 9.30878,-1.25392c5.45588,-2.93575 12.63423,0.94732 21.8261,3.14988c16.36268,3.92082 32.80152,9.66925 49.36313,15.06508c6.10782,1.98992 18.35223,4.81394 22.56439,6.54886c7.33237,3.02012 10.97407,6.85828 18.03389,9.94576c5.18039,2.26554 10.89294,3.7847 16.7755,6.99185c0.44656,0.24352 0.89306,0.48693 1.33968,0.73044c16.38676,5.33887 32.7736,10.67776 49.16038,16.01663z" fill="#000000" stroke="none" stroke-linecap="butt"/><path d="M203.80437,251.5418c-0.03637,0.06493 -0.06537,0.13563 -0.08763,0.21194c-0.5423,1.85844 4.39005,3.46889 4.39005,3.46889c21.68227,7.06416 43.4693,14.20291 65.15168,21.2671c5.57946,1.8178 19.7188,5.51066 23.50955,7.9629c2.18348,1.41255 3.90192,1.90643 6.91467,2.97982c0.34007,0.12116 0.95807,0.34521 1.50543,0.53722c-3.16866,-0.16313 -3.87975,7.65723 -4.47805,9.70752c-2.53082,8.67272 -5.08692,17.39371 -7.61774,26.06642c-0.45192,1.5487 -0.91444,3.10223 -1.36635,4.6509c-0.18078,0.61948 0.16303,2.66756 -0.54684,1.86004c-2.70075,-3.07228 -9.43276,-4.0825 -16.91796,-6.52513c-14.75516,-4.81503 -30.43086,-10.55323 -45.21796,-14.27031c-27.05155,-6.61911 -54.83864,-19.15842 -81.74572,-25.48001c-22.72387,-5.11175 -49.34752,-13.61474 -72.13043,-21.03747c-5.72744,-1.86601 -11.46311,-3.74112 -17.19054,-5.60714c-0.86181,-0.28078 -2.20354,-0.76732 -3.59029,-1.27187c1.68742,-0.49425 0.87748,-3.28995 1.25543,-4.58514c1.41193,-4.83854 -0.45054,-14.62051 6.07783,-17.25401c6.18844,-3.76437 10.63215,-7.92078 19.75032,-10.71501c6.72777,-2.06171 16.48583,-2.68326 22.24045,-5.03366c2.91498,-1.56851 4.46154,0.72739 11.92442,2.57603c16.51344,4.09055 32.77145,9.63098 49.47587,15.07335c6.08882,1.98376 13.66925,4.96086 19.70654,6.41538c1.27429,0.30699 3.74189,0.70881 5.58429,0.97969c-3.4833,-0.10704 3.60365,3.19747 6.51091,4.78247c2.27824,1.24207 4.60048,2.28735 6.89232,3.24026z" fill="#484848" stroke="none" stroke-linecap="butt"/><path d="M132.99512,235.93305c-0.18328,0.62807 1.28697,1.94068 0.29831,2.16318c2.13302,0.787 4.24973,1.67769 6.07114,2.67074c7.02278,3.82885 20.64809,13.88247 21.08483,17.73655c0.03548,0.31347 -2.07994,-0.32532 -1.79532,0.03517c0.94711,1.19947 11.0126,2.93062 12.05557,3.52342c0.23601,0.13412 0.33565,0.25577 0.35616,0.37104c0.03816,-0.32476 0.07773,-0.63779 0.13238,-0.8251c0.19211,-0.65832 0.46782,-1.34533 -0.13803,-2.18752c-5.09597,-7.34348 -14.4566,-15.79583 -33.15579,-21.88809c0,0 -2.20665,-0.71896 -3.49774,-1.75289c-0.45459,-0.26231 -0.79599,-0.50794 -1.00688,-0.73416c-0.16846,0.33335 -0.34178,0.67212 -0.40466,0.88762zM170.65594,263.46643c0.22401,0.48965 0.3095,-0.17411 0.39096,-0.87106c-0.10698,0.27913 -0.5441,0.53644 -0.39096,0.87106zM180.32687,260.61936c4.75563,6.61048 -11.07518,8.84742 -22.75753,1.63615c-11.02235,-6.80395 -13.32402,-14.01082 -23.56582,-19.59464c-3.45999,-1.88643 -7.73796,-3.69461 -10.13725,-5.73925c-3.80211,-3.24022 -0.05907,-8.85503 8.23182,-6.15385c5.97003,1.94505 8.69658,3.63608 14.25456,5.44689l2.4546,0.79971c0,0 2.81774,0.91808 3.94789,2.17121c14.01749,6.53481 22.01668,14.14059 27.57178,21.43373z" fill="#000000" stroke="none" stroke-linecap="butt"/><path d="M133.23579,234.92379c0.21074,0.22621 0.55235,0.47176 1.00699,0.73416c1.29106,1.03394 3.50891,1.75214 3.50891,1.75214c18.69915,6.09224 28.41784,14.78072 33.51376,22.12418c0.60583,0.84215 0.30493,1.53516 0.11285,2.19342c-0.05465,0.1873 -0.10452,0.50168 -0.14268,0.82646c-0.0204,-0.11528 -0.11875,-0.23699 -0.35487,-0.37122c-1.04297,-0.59277 -11.19924,-2.32674 -12.14635,-3.52616c-0.28466,-0.36049 1.64524,0.03913 1.60969,-0.27443c-0.43668,-3.85407 -14.14256,-13.90544 -21.16543,-17.73428c-1.82148,-0.99308 -3.95283,-1.88026 -6.08588,-2.66729c0.98867,-0.22251 -0.45812,-1.54002 -0.27485,-2.16808c0.06288,-0.21551 0.24904,-0.55571 0.41764,-0.88902z" fill="#ffffff" stroke="none" stroke-linecap="butt"/></g><path d="M-1119.12503,989.78979v-1619.57958h2878.25006v1619.57958z" fill="none" stroke="#000000" stroke-width="0" stroke-linecap="butt"/><g><path d="M821.91955,190.47247l-96.35555,15.10027l1.38794,8.37881l-135.78395,23.06631l-19.26275,-5.41789l-85.25446,14.12226l1.06238,8.14578l-253.22885,39.65128l-24.11105,-126.49999l14.38449,-3.24364l-13.15886,-82.90316l-0.7882,-3.02597l72.42795,-9.70191l118.43882,-178.88064l81.08719,58.16395l8.06179,-10.2311l99.36815,68.04883l24.15808,-3.14087l7.2239,-10.09232l167.90531,-30.96978z" fill="#676358" stroke="#000000" stroke-width="1" stroke-linecap="round"/><path d="M803.74559,67.93929l18.9368,122.981l-97.42389,12.98157l3.15451,10.38184l-136.85401,22.66964l-18.3786,-5.27738l-86.67535,15.50546l-21.89854,-116.60801l99.38151,-15.88847l-3.85019,-12.84923l14.33993,-5.24496l58.24961,-85.33401l69.78816,47.55296l5.80318,26.37141l98.08183,-19.40363z" fill="#3b393c" stroke="#000000" stroke-width="1" stroke-linecap="round"/><path d="M705.75762,98.30349l55.95302,-10.41636l11.48006,74.50079l-53.99796,10.0925z" fill="#0a0f0b" stroke="#000000" stroke-width="1" stroke-linecap="round"/><path d="M635.26767,230.57393l-14.34335,-96.9831l-0.72659,-18.24493l10.43836,-13.2074l12.01306,-5.43344l14.14804,0.52598l10.32706,5.17633l7.43475,11.9685l16.47493,106.38657z" fill="#161719" stroke="#000000" stroke-width="1" stroke-linecap="round"/><path d="M474.50014,138.76309l55.76455,-8.08947l11.13649,68.96204l-55.39272,8.6018z" fill="#0a0f0b" stroke="#000000" stroke-width="1" stroke-linecap="round"/><path d="M486.61435,254.33724l-252.6903,40.99686l-7.58094,-40.56829l254.62095,-40.16884z" fill="#3b393c" stroke="#000000" stroke-width="1" stroke-linecap="round"/><path d="M261.85344,290.70765l-16.60216,-107.15463l193.34121,-32.02666l18.46298,107.99421z" fill="#242a28" stroke="#000000" stroke-width="1" stroke-linecap="round"/><path d="M268.18466,289.08498l-13.72693,-96.72651l179.11907,-28.23598l16.37937,97.14801z" fill="#716c66" stroke="#000000" stroke-width="1" stroke-linecap="round"/><path d="M427.61996,163.67442l2.31494,12.24268l-170.78908,29.15181l-1.29029,-12.9863z" fill="#101413" stroke="#000000" stroke-width="1" stroke-linecap="round"/><path d="M488.51874,117.28651l-289.35191,51.37416l-7.58037,-5.91827l303.52863,-56.30513z" fill="#292621" stroke="#000000" stroke-width="1" stroke-linecap="round"/><path d="M220.64497,145.8767l53.18037,-77.3921l-73.73359,12.21385l-8.97513,-7.40896l87.27848,-13.59667l123.28435,-181.24364l79.06489,55.91632l8.43532,-11.44082l107.23938,73.99066l10.84621,-2.08361l10.71252,-8.08758l195.1224,-40.06956l-7.96926,10.78969l-184.43162,35.14213l-14.99702,10.806l14.09326,8.85682l12.58358,-17.58016l92.69505,62.41072l-8.34109,10.27738l-84.2785,-54.90923l-57.70217,84.74114l-23.23108,7.00473l-4.832,-8.38223l22.1156,-8.54168l47.55082,-67.63562l-127.16225,-82.52746l-66.60524,98.55511l-8.04814,-3.54512l60.61715,-90.96316l-73.6696,-52.36221l-169.87273,255.12257z" fill="#292621" stroke="#000000" stroke-width="1" stroke-linecap="round"/><path d="M296.30492,64.7091l86.23544,-14.81372l8.64979,58.60436l-84.97625,13.89986z" fill="#292621" stroke="#000000" stroke-width="1" stroke-linecap="round"/><path d="M367.41009,52.22536l10.37908,59.464l-56.7456,8.69452l-8.31973,-59.80513z" fill="#0a0f0b" stroke="#000000" stroke-width="1" stroke-linecap="round"/><path d="M656.13245,11.76036l-2.32789,-17.24646l105.19906,-18.48398l9.94743,62.18031l-57.74788,10.0948z" fill="#292621" stroke="#000000" stroke-width="1" stroke-linecap="round"/><path d="M675.79417,25.07757l-5.42855,-33.83595l73.65198,-14.13985l10.06009,63.92486l-42.21649,6.99309z" fill="#0a0f0b" stroke="#000000" stroke-width="1" stroke-linecap="round"/><path d="M504.72598,-12.46947c-0.30954,-0.40632 0.01833,-0.86438 0.01833,-0.86438c0.24724,-0.33522 0.42095,-0.73994 0.74172,-1.00565c1.0763,-0.89156 1.78721,-0.94487 3.06831,-1.2832c0.96685,-0.25534 1.93471,-0.50682 2.90208,-0.76023c1.24049,-0.32496 2.49098,-0.62518 3.72457,-0.9756c0.08121,-0.02307 2.85975,-0.85053 2.90759,-0.86167c1.76412,-0.41097 3.62759,-0.62892 5.42266,-0.83778c1.77396,-0.2064 3.53158,-0.42666 5.31482,-0.52259c1.30781,-0.06688 2.59794,0.11562 3.90318,0.21188c1.50536,0.11102 3.03333,0.19958 4.52926,0.40621c0.01958,0.00271 2.94403,0.52728 2.98265,0.53421c1.17098,0.21024 2.40156,0.43249 3.52332,0.83716c0.48866,0.17628 0.95479,0.40976 1.43013,0.61933c0.38163,0.16826 0.80895,0.26137 1.14071,0.51414c0.4394,0.33478 0.75394,0.8076 1.12782,1.21425c0.26111,0.28402 0.5464,0.54852 0.77713,0.85773c0.31169,0.41767 0.56349,0.87685 0.8447,1.31563c0.71077,1.10904 1.53176,2.19042 2.17488,3.3393c0.736,1.31482 0.74091,1.5097 1.25192,2.92379c0.31525,1.53167 0.75182,3.11158 0.56205,4.69343c-0.15456,1.28834 -0.71485,2.54296 -0.96082,3.81823c-0.28462,1.47568 -0.466,2.96071 -0.77686,4.43318c-0.11133,0.52733 -0.14775,1.07695 -0.33842,1.58105c-0.19067,0.5041 -0.52726,0.94015 -0.79268,1.40922c-0.80868,1.42914 -1.80308,2.78168 -2.94344,3.96813c-0.94418,0.98235 -1.25471,1.20164 -2.28858,2.07294c-0.29129,0.24548 -0.56437,0.51453 -0.87468,0.73548c-0.75424,0.53707 -1.60995,0.91901 -2.37512,1.44038c-0.29192,0.19891 -0.54895,0.44471 -0.82344,0.66707c-0.39085,0.18978 -0.81976,0.31572 -1.17254,0.56933c-1.00243,0.72063 -0.91285,1.22236 -2.00364,1.79831c-0.34855,0.18404 -0.78186,0.15387 -1.13689,0.32506c-0.32618,0.15726 -0.55978,0.46532 -0.87435,0.64466c-0.72792,0.41502 -1.493,0.77017 -2.27872,1.06129c-0.88115,0.32648 -1.77292,0.63619 -2.68817,0.84907c-0.49141,0.11429 -1.00037,0.13972 -1.49308,0.24818c-0.88963,0.19583 -2.01074,0.61225 -2.89685,0.80079c-0.50376,0.10719 -1.01841,0.15453 -1.52765,0.23145c-0.87059,0.13152 -1.73494,0.31625 -2.61213,0.39229c-2.88709,0.25027 -5.81163,0.15483 -8.7048,0.13158c-0.47227,-0.00471 -0.94573,-0.04815 -1.41679,-0.01417c-0.44442,0.03207 -0.87461,0.19468 -1.31987,0.21163c-0.28747,0.01095 -0.56623,-0.11095 -0.85335,-0.12887c-0.31333,-0.01955 -0.63128,0.06401 -0.94165,0.01685c-0.52838,-0.0803 -1.03598,-0.26311 -1.55362,-0.39606c-0.79762,-0.20487 -1.59938,-0.39729 -2.40891,-0.54833c-0.64017,-0.11944 -2.26058,-0.31993 -2.88014,-0.62312c-1.21512,-0.59465 -1.48988,-1.09814 -2.27137,-2.09309c-0.32342,-0.41176 -0.67573,-0.80377 -0.95842,-1.24448c-0.28181,-0.43933 -0.48631,-0.92369 -0.72883,-1.38588c-0.61351,-1.16917 -1.19478,-2.30459 -1.73041,-3.51187c-0.21546,-0.48563 -0.48963,-0.94963 -0.64355,-1.45812c-0.15392,-0.50849 -0.18288,-1.04668 -0.27313,-1.57023c-0.23267,-1.34976 -0.45244,-2.70174 -0.67627,-4.05299c-0.17375,-1.04892 -0.44251,-2.09661 -0.37615,-3.16705c0.08455,-1.3638 0.57377,-2.66563 0.93478,-3.97356c0.35883,-1.29999 0.64903,-2.64987 1.20536,-3.88482c0.37556,-0.83368 1.07976,-1.90205 1.56513,-2.67674c0.7781,-1.24193 1.60715,-2.37267 2.55303,-3.49311c0.19124,-0.22653 0.35668,-0.47817 0.57584,-0.67782c0.38292,-0.34882 0.82444,-0.62789 1.22201,-0.95993c0.70476,-0.58859 1.41552,-1.17149 2.08811,-1.79657c0.03603,-0.03349 0.07021,-0.06884 0.10324,-0.10536zM509.75854,-14.38658c0.21542,0.58474 -0.36725,0.89246 -0.36725,0.89246l-0.44318,0.22751c-0.38876,0.14616 -0.77752,0.2923 -1.1663,0.43846c-0.15794,0.09151 -1.41018,0.80288 -1.60569,0.9662c-0.19807,0.16546 -0.32482,0.40346 -0.51384,0.57919c-0.69829,0.64917 -1.43431,1.25685 -2.16686,1.8671c-0.37035,0.30852 -0.78343,0.56504 -1.14151,0.88772c-0.18175,0.16378 -0.31231,0.37669 -0.46957,0.56411c-0.89831,1.07059 -1.68778,2.13964 -2.42948,3.32353c-0.42423,0.67715 -1.13576,1.75835 -1.46875,2.49672c-0.52431,1.16259 -0.78905,2.44342 -1.12694,3.66756c-0.33074,1.19822 -0.80369,2.41163 -0.8832,3.66076c-0.06048,0.9501 0.20425,1.90459 0.35847,2.83561c0.22348,1.34913 0.44899,2.69787 0.67519,4.04653c0.07754,0.46228 0.09425,0.93863 0.23005,1.38726c0.1358,0.44864 0.38626,0.8542 0.57793,1.28196c0.52773,1.17776 1.09176,2.28286 1.68925,3.42687c0.22131,0.42374 0.40464,0.86944 0.66264,1.27191c0.25711,0.40108 0.58338,0.75334 0.87641,1.12897c0.58628,0.75156 0.82872,1.23239 1.72642,1.65967c0.41656,0.19827 2.22204,0.45159 2.51976,0.50724c1.28398,0.23998 1.38621,0.27562 2.51057,0.57099c0.4503,0.11829 0.8897,0.28859 1.35008,0.35797c0.28673,0.0432 0.5802,-0.04173 0.8696,-0.02349c0.25199,0.01589 0.49474,0.13598 0.74701,0.12544c0.40812,-0.01704 0.80038,-0.17786 1.20782,-0.20708c0.51397,-0.03686 1.03056,0.00643 1.54582,0.00964c2.84171,0.02283 5.71511,0.11938 8.55098,-0.12491c0.84992,-0.07321 1.68688,-0.2556 2.53049,-0.38227c0.4796,-0.07201 0.96453,-0.11441 1.43888,-0.21535c0.97632,-0.20773 1.91139,-0.58328 2.88609,-0.79846c0.48383,-0.10681 0.9838,-0.13064 1.46658,-0.24209c0.84966,-0.19613 1.67628,-0.48663 2.49436,-0.78851c0.71073,-0.26226 1.40391,-0.58054 2.06177,-0.95622c0.34891,-0.19925 0.61872,-0.5262 0.98031,-0.70137c0.34129,-0.16534 0.75697,-0.13494 1.09616,-0.30455c0.74408,-0.37207 1.15846,-1.20682 1.83285,-1.69395c0.3706,-0.26769 0.81968,-0.40512 1.22952,-0.60768c0.25949,-0.21237 0.50123,-0.4485 0.77847,-0.63711c0.75548,-0.51398 1.60079,-0.88941 2.34528,-1.41919c0.2815,-0.20031 0.52704,-0.44687 0.79098,-0.66981c0.97963,-0.82747 1.27416,-1.02869 2.15872,-1.94935c1.06249,-1.10585 1.97551,-2.36223 2.73739,-3.68802c0.22973,-0.39976 0.52976,-0.76589 0.69288,-1.19713c0.16312,-0.43124 0.18034,-0.90433 0.27288,-1.356c0.30156,-1.47191 0.49084,-2.95595 0.7761,-4.42952c0.15275,-0.78907 0.39198,-1.55892 0.5907,-2.33768c0.1159,-0.4542 0.29167,-0.8968 0.35065,-1.36183c0.17313,-1.36523 -0.24857,-2.78156 -0.51713,-4.10358c-0.44563,-1.2294 -0.4632,-1.43502 -1.10793,-2.58178c-0.63426,-1.12814 -1.44187,-2.18806 -2.13865,-3.27964c-0.25765,-0.40363 -0.48591,-0.82748 -0.77179,-1.21162c-0.20508,-0.27556 -0.46594,-0.50487 -0.69567,-0.76025c-0.29938,-0.33281 -0.53786,-0.72997 -0.89163,-1.00426c-0.24683,-0.19137 -0.57859,-0.23547 -0.86575,-0.35828c-0.4418,-0.18893 -0.86929,-0.41321 -1.32106,-0.5769c-1.0487,-0.37995 -2.20356,-0.58257 -3.29901,-0.77874c-0.97446,-0.17451 -1.94251,-0.38932 -2.92316,-0.52478c-1.46443,-0.20229 -2.96072,-0.28749 -4.43435,-0.39617c-1.2381,-0.09131 -2.47258,-0.27979 -3.71262,-0.20995c-1.75195,0.09338 -3.47891,0.31215 -5.22179,0.51468c-1.73913,0.20209 -3.54636,0.41053 -5.25559,0.8087c-0.96334,0.22442 -1.89289,0.5753 -2.84441,0.84549c-1.24141,0.3525 -2.49964,0.65491 -3.74795,0.98192c-0.69274,0.18148 -1.38521,0.364 -2.07799,0.54531z" fill="#000000" stroke="none" stroke-width="0.5" stroke-linecap="butt"/><path d="M511.80808,-14.97301c1.24831,-0.32701 2.51432,-0.63382 3.75572,-0.98633c0.95153,-0.27019 1.88789,-0.6236 2.85123,-0.84801c1.70923,-0.39818 3.52942,-0.60856 5.26855,-0.81065c1.74288,-0.20254 3.48211,-0.42 5.23406,-0.51339c1.24004,-0.06984 2.48237,0.12118 3.72047,0.21248c1.47362,0.10868 2.97777,0.198 4.4422,0.40029c0.98065,0.13546 1.9531,0.35344 2.92756,0.52795c1.09547,0.19617 2.25452,0.40262 3.30322,0.78256c0.45177,0.16368 0.88091,0.38974 1.32272,0.57867c0.28717,0.1228 0.61992,0.16805 0.86674,0.35942c0.35377,0.27428 0.59374,0.67332 0.89313,1.00613c0.22973,0.25538 0.49168,0.48615 0.69675,0.76173c0.28588,0.38415 0.51557,0.81011 0.77322,1.21374c0.69678,1.09159 1.50765,2.15758 2.14191,3.28573c0.64473,1.14676 0.6641,1.35696 1.10974,2.58637c0.26857,1.32201 0.69208,2.74538 0.51895,4.1106c-0.05898,0.46503 -0.23438,0.90994 -0.35028,1.36413c-0.19872,0.77877 -0.43757,1.55279 -0.59033,2.34187c-0.28524,1.47356 -0.47483,2.96606 -0.7764,4.43797c-0.09254,0.45168 -0.11015,0.92739 -0.27327,1.35863c-0.16312,0.43124 -0.46365,0.79988 -0.69337,1.19964c-0.76188,1.32579 -1.67759,2.59053 -2.74009,3.69638c-0.88456,0.92066 -1.18163,1.12705 -2.16127,1.95451c-0.26394,0.22294 -0.51058,0.47135 -0.79208,0.67165c-0.74449,0.52977 -1.59309,0.90986 -2.34858,1.42384c-0.27723,0.18861 -0.52045,0.42652 -0.77995,0.63889c-0.40984,0.20256 -0.861,0.34221 -1.2316,0.6099c-0.67439,0.48713 -1.09322,1.32587 -1.8373,1.69795c-0.33918,0.16961 -0.75691,0.14076 -1.0982,0.30609c-0.36159,0.17518 -0.63384,0.50377 -0.98275,0.70301c-0.65786,0.37568 -1.3559,0.69665 -2.06663,0.95891c-0.81808,0.30188 -1.65067,0.59481 -2.50034,0.79094c-0.48279,0.11145 -0.98629,0.1363 -1.47012,0.24312c-0.9747,0.21518 -1.9171,0.59201 -2.89341,0.79975c-0.47435,0.10093 -0.96285,0.14356 -1.44244,0.21556c-0.84361,0.12666 -1.68668,0.30884 -2.53659,0.38206c-2.83587,0.2443 -5.72706,0.1426 -8.56878,0.11977c-0.51527,-0.00321 -1.03439,-0.04786 -1.54835,-0.011c-0.40743,0.02922 -0.80131,0.18905 -1.20944,0.20609c-0.25227,0.01054 -0.49619,-0.11031 -0.74817,-0.1262c-0.2894,-0.01825 -0.584,0.0659 -0.87074,0.0227c-0.46038,-0.06938 -0.90178,-0.24117 -1.35207,-0.35947c-1.12438,-0.29537 -1.22981,-0.33378 -2.51379,-0.57376c-0.29772,-0.05564 -2.10586,-0.31167 -2.52242,-0.50993c-0.89771,-0.42728 -1.14279,-0.91124 -1.72907,-1.66281c-0.29303,-0.37563 -0.62076,-0.72988 -0.87786,-1.13095c-0.25799,-0.40246 -0.44267,-0.85022 -0.66399,-1.27396c-0.5975,-1.14402 -1.16467,-2.25492 -1.69239,-3.43267c-0.19167,-0.42776 -0.44308,-0.83555 -0.57889,-1.28419c-0.1358,-0.44864 -0.15335,-0.92723 -0.23088,-1.38951c-0.2262,-1.34866 -0.45356,-2.70435 -0.67704,-4.05347c-0.15422,-0.93102 -0.41965,-1.89054 -0.35917,-2.84063c0.07951,-1.24913 0.55232,-2.4691 0.88306,-3.66732c0.33789,-1.22415 0.60344,-2.51195 1.12774,-3.67454c0.33299,-0.73837 1.04577,-1.82473 1.47,-2.50188c0.7417,-1.18389 1.53402,-2.26031 2.43233,-3.33089c0.15726,-0.18743 0.28847,-0.40163 0.47023,-0.56542c0.35808,-0.32268 0.7725,-0.5816 1.14285,-0.89012c0.73255,-0.61025 1.47185,-1.2228 2.17013,-1.87197c0.18902,-0.17573 0.3168,-0.41503 0.51488,-0.5805c0.19551,-0.16333 1.45035,-0.87763 1.60828,-0.96914c0.38876,-0.14616 0.77934,-0.29411 1.16811,-0.44026l0.44399,-0.22826c0,0 0.58414,-0.30902 0.36872,-0.89375c0.69278,-0.18131 1.38885,-0.36658 2.0816,-0.54806z" fill="#ffffff" stroke="none" stroke-width="0.5" stroke-linecap="butt"/><path d="M462.29514,-3.93761c-0.32121,0.03069 -0.64132,0.07743 -0.95899,0.13085c-1.32073,0.21878 -2.67179,0.37722 -3.98019,0.66219c-0.17881,0.03894 -0.35595,0.08501 -0.53272,0.13273c-0.21647,0.07022 -0.43352,0.13822 -0.655,0.18952c-0.12356,0.02862 -0.24895,0.04848 -0.37501,0.06497c-0.13415,0.02208 -0.2702,0.03524 -0.40624,0.04808c-0.18686,0.02291 -0.37251,0.05112 -0.55327,0.10214c-0.26024,0.07345 -0.47892,0.2578 -0.72845,0.35973c-0.04862,0.03868 -0.09753,0.07664 -0.14771,0.11174c-0.32457,0.22704 -0.62239,0.49401 -0.96314,0.69597c-0.73499,0.43563 -1.54315,0.73748 -2.28487,1.16151c-0.31698,0.18122 -0.58748,0.45288 -0.93056,0.5778c-1.15135,0.4192 -2.50847,0.24346 -3.6664,0.65019c-0.44178,0.15517 -0.82072,0.45138 -1.23829,0.66324c-0.24797,0.12581 -0.53154,0.1873 -0.75753,0.34932c-0.31697,0.22725 -0.57501,0.52745 -0.8505,0.80353c-0.69996,0.70146 -1.34422,1.45637 -2.01816,2.18287c-0.4875,0.52551 -1.04009,0.97954 -1.4547,1.57545c-0.16093,0.2313 -0.22718,0.51575 -0.34076,0.77363c-0.11459,0.18775 -0.30812,0.34621 -0.34375,0.56326c-0.07057,0.42991 0.06981,0.87207 0.03681,1.3065c-0.03794,0.49946 -0.20737,0.98279 -0.24863,1.482c-0.01734,0.20983 0.02506,2.66452 0.04246,2.86773c0.03689,0.43081 0.06114,0.87193 0.19866,1.28187c0.0893,0.26624 0.31878,0.46266 0.46659,0.70143c0.15264,0.24657 0.28957,0.50252 0.43429,0.75382c0.49907,0.86656 0.99801,1.7332 1.49699,2.59981c0.29677,0.51541 1.15809,2.03292 1.49615,2.5357c0.69232,1.02963 1.51212,1.98538 2.24164,2.99054c1.01902,1.40403 1.99807,2.90821 3.17551,4.19011c0.59828,0.65136 1.30266,1.19661 1.95328,1.7957c0.85414,0.81691 1.65985,1.71561 2.64915,2.37233c0.3362,0.22318 0.64951,0.49512 1.02365,0.64631c0.58079,0.23468 1.4136,0.24193 2.03565,0.38779c0.27362,0.06417 0.52994,0.19332 0.8052,0.25002c0.29483,0.06074 0.60123,0.04699 0.89741,0.10071c0.45724,0.08292 0.89719,0.26151 1.35949,0.30861c0.49482,0.05042 0.99654,-0.06121 1.49205,-0.01805c1.33462,0.11628 2.60571,0.64902 3.94392,0.78635c1.43995,0.14778 2.8772,0.08553 4.3099,-0.10075c0.6004,-0.07807 1.21422,-0.11377 1.79261,-0.29278c0.37609,-0.1164 0.71736,-0.3319 1.09559,-0.44118c0.3282,-0.09483 0.68273,-0.0732 1.01107,-0.16748c0.35348,-0.10151 0.68117,-0.27752 1.02176,-0.41627c0.88725,-0.34532 1.7464,-0.76159 2.59547,-1.19231c1.08489,-0.55034 2.24627,-0.99903 3.26467,-1.6734c0.32383,-0.21443 0.56662,-0.54307 0.90468,-0.73429c0.75835,-0.42893 1.64403,-0.58441 2.4357,-0.94818c0.87517,-0.40216 1.72366,-0.8666 2.53888,-1.37952c0.40139,-0.25255 0.755,-0.57534 1.15111,-0.83612c0.31086,-0.20466 0.64815,-0.36626 0.96693,-0.55835c0.25403,-0.15308 0.50834,-0.30662 0.75113,-0.47695c0.16317,-0.11449 0.38387,-0.19404 0.46486,-0.37619c0.10705,-0.24074 -0.01458,-0.534 0.05309,-0.78864c0.08047,-0.3028 0.29071,-0.55875 0.38443,-0.8577c0.07097,-0.22638 0.06759,-0.46966 0.10514,-0.70392c0.06237,-0.38907 0.1862,-0.77204 0.19462,-1.16598c0.01035,-0.4838 -0.12365,-0.96142 -0.13881,-1.44509c-0.01562,-0.49848 0.06396,-0.99702 0.04666,-1.49544c-0.0165,-0.47533 -0.09854,-0.94612 -0.14781,-1.41917c-0.22034,-1.32823 -0.44211,-2.65623 -0.66043,-3.98479c-0.05868,-0.35708 -0.07954,-0.72229 -0.17442,-1.07151c-0.12518,-0.46073 -0.35048,-0.88971 -0.48305,-1.34836c-0.0698,-0.2415 -0.0485,-0.5038 -0.12182,-0.74426c-0.10763,-0.35304 -0.28282,-0.68187 -0.41771,-1.02542c-0.07119,-0.18133 -0.90294,-2.39461 -0.90503,-2.39911c-0.41359,-0.88488 -0.94858,-1.70791 -1.43977,-2.55218c-0.21924,-0.37685 -0.41923,-0.76732 -0.67572,-1.11988c-0.28686,-0.39431 -0.64365,-0.73309 -0.94891,-1.11333c-0.29608,-0.3688 -0.50376,-0.82943 -0.93503,-1.07896c-0.93919,-0.54342 -2.09295,-0.87022 -3.12715,-1.1753c-1.21649,-0.35885 -2.44718,-0.67594 -3.66966,-1.01372c-1.44565,-0.45237 -2.90238,-0.90461 -4.3212,-1.43691c-0.45586,-0.17102 -0.88731,-0.40714 -1.35154,-0.55395c-0.4655,-0.14722 -0.95936,-0.18866 -1.42812,-0.32512c-0.51839,-0.1509 -1.03663,-0.31321 -1.52862,-0.5356c-0.34808,-0.15734 -0.62921,-0.44147 -0.97791,-0.59744c-0.24004,-0.10737 -0.50617,-0.15243 -0.76733,-0.18318c-0.86702,-0.10208 -1.75844,-0.11159 -2.63016,-0.00024l-0.0061,0.02503l0.23553,0.52794c-0.1221,-0.00055 -0.2442,0.00229 -0.36622,0.00802l-0.01601,0.06564c0,0 -0.19373,0.03209 -0.39934,-0.0357zM456.45784,-4.46547c0.26571,-0.08631 0.53039,-0.17654 0.80147,-0.24293c0.7968,-0.19516 1.62952,-0.23563 2.41591,-0.46919c0.47659,-0.14155 0.92319,-0.37429 1.4011,-0.51131c1.47499,-0.42293 3.09036,-0.53215 4.61465,-0.32411c0.3839,0.0524 0.77022,0.13247 1.12767,0.28203c0.37399,0.15649 0.67425,0.45697 1.04269,0.62608c0.41815,0.19193 0.86188,0.3254 1.30443,0.45124c0.48216,0.1371 0.98782,0.18506 1.46569,0.33645c0.48916,0.15496 0.94553,0.39966 1.42604,0.57967c1.38531,0.51897 2.80714,0.96085 4.2184,1.40255c1.5967,0.44094 3.22194,0.82941 4.7923,1.36062c0.63097,0.21344 1.89866,0.70474 2.40011,1.01086c0.70771,0.43202 0.80601,0.7996 1.29493,1.4084c0.31832,0.39637 0.68825,0.7514 0.98641,1.16314c0.28379,0.39189 0.50976,0.82267 0.75406,1.24032c0.02804,0.04794 1.49213,2.64935 1.50353,2.67377c0.03939,0.08427 0.82623,2.18743 0.94345,2.48879c0.15165,0.38986 0.34207,0.7658 0.46467,1.16576c0.07651,0.24958 0.05698,0.52157 0.12941,0.77236c0.13247,0.45868 0.3592,0.88728 0.48305,1.34836c0.10553,0.39285 0.13546,0.80219 0.20241,1.20341c0.22416,1.34312 0.44503,2.68681 0.66725,4.03026c0.0534,0.52166 0.14076,1.04095 0.16019,1.56498c0.01858,0.50093 -0.06158,1.00206 -0.0464,1.50311c0.01563,0.51585 0.15184,1.02613 0.13865,1.54205c-0.01166,0.45627 -0.14017,0.90202 -0.21267,1.35265c-0.04812,0.29907 -0.06093,0.60665 -0.14917,0.89644c-0.08814,0.28943 -0.29309,0.53525 -0.37543,0.82639c-0.09764,0.34524 0.00991,0.74814 -0.15935,1.06449c-0.52285,0.97725 -1.84359,1.42701 -2.70651,1.99548c-0.40135,0.2644 -0.76018,0.59089 -1.16723,0.84643c-0.03944,0.02476 -2.6992,1.46732 -2.73407,1.48334c-1.01725,0.46733 -1.21209,0.25694 -2.27121,0.86321c-0.31204,0.17861 -0.53098,0.48959 -0.83119,0.68743c-1.0779,0.71031 -2.28954,1.19291 -3.43601,1.7739c-0.88793,0.44998 -1.78717,0.88284 -2.71421,1.24545c-0.3898,0.15537 -0.76646,0.34902 -1.16941,0.4661c-0.32805,0.09532 -0.68288,0.07265 -1.01107,0.16748c-0.37823,0.10928 -0.71874,0.32727 -1.09559,0.44118c-0.64672,0.1955 -1.32888,0.24874 -1.99892,0.33528c-1.5525,0.20053 -3.10824,0.2659 -4.66841,0.10547c-1.18015,-0.12136 -1.59097,-0.28515 -2.7797,-0.54893c-0.38047,-0.08443 -0.75681,-0.20345 -1.14522,-0.23551c-0.50091,-0.04136 -1.00778,0.06797 -1.50775,0.01648c-0.49338,-0.0508 -0.96468,-0.23359 -1.45284,-0.32138c-0.31568,-0.05676 -0.64155,-0.04711 -0.95571,-0.11174c-0.28588,-0.05881 -0.5529,-0.19025 -0.83702,-0.25706c-0.92802,-0.21821 -1.19284,-0.02688 -2.25987,-0.45889c-0.46749,-0.18928 -0.869,-0.51282 -1.2916,-0.7881c-1.06675,-0.69489 -1.92872,-1.65156 -2.84363,-2.52666c-0.67472,-0.62124 -1.40183,-1.19025 -2.02272,-1.86529c-1.22067,-1.32713 -2.23782,-2.87853 -3.29356,-4.33326c-0.73864,-1.01777 -1.56751,-1.98614 -2.26851,-3.02879c-0.37608,-0.55937 -1.21507,-2.0393 -1.55523,-2.63002c-0.63747,-1.10705 -1.25541,-2.22858 -1.91348,-3.32355c-0.19043,-0.31686 -0.46754,-0.59175 -0.58481,-0.94234c-0.33575,-1.00374 -0.31787,-2.19724 -0.33256,-3.23737c-0.0074,-0.52386 -0.04523,-1.0495 -0.00327,-1.57174c0.03998,-0.49749 0.2067,-0.97921 0.2482,-1.47658c0.04326,-0.5185 -0.09225,-1.0498 0.00521,-1.56089c0.06129,-0.32137 0.30531,-0.57871 0.45797,-0.86807c0.13969,-0.30349 0.22824,-0.63624 0.41908,-0.91047c0.59297,-0.85208 1.00271,-1.12203 1.62347,-1.7912c0.98663,-1.06355 1.92893,-2.34652 3.11868,-3.19949c0.27935,-0.20027 0.62152,-0.29394 0.92812,-0.44931c0.47434,-0.24038 0.91233,-0.56272 1.41446,-0.7378c0.23918,-0.0834 2.1646,-0.41117 2.63168,-0.4858c0.33032,-0.05278 0.67819,-0.03419 0.99242,-0.14886c0.26809,-0.09784 0.46651,-0.33013 0.7132,-0.4736c0.55217,-0.32114 1.14571,-0.5665 1.71673,-0.85293c-0.01423,-0.0438 -0.02589,-0.09153 -0.0345,-0.14351c-0.12257,-0.73992 0.61735,-0.86248 0.61735,-0.86248c0.39265,-0.0628 0.79456,-0.0837 1.18033,-0.1776c0.23376,-0.16396 0.46016,-0.3025 0.65368,-0.37038c0.3209,-0.11257 0.66212,-0.14526 1.00176,-0.18613c0.05432,-0.00694 0.10867,-0.0137 0.163,-0.02063c0.11457,-0.01549 0.22854,-0.03353 0.34109,-0.05754c0.29061,-0.06199 0.57688,-0.14255 0.8639,-0.21996z" fill="#000000" stroke="none" stroke-width="0.5" stroke-linecap="butt"/><path d="M462.69074,-3.95178l0.01606,-0.06565c0.12202,-0.00573 0.24505,-0.00863 0.36716,-0.00808l-0.22953,-0.42812l-0.0004,-0.12482c0.87172,-0.11136 1.76966,-0.10185 2.63667,0.00023c0.26116,0.03074 0.52921,0.07598 0.76927,0.18335c0.3487,0.15597 0.63245,0.44045 0.98053,0.59779c0.49198,0.22239 1.01427,0.38551 1.53266,0.53641c0.46876,0.13646 0.96625,0.17893 1.43175,0.32615c0.46422,0.14681 0.8992,0.38423 1.35506,0.55525c1.41881,0.5323 2.88546,0.98999 4.3311,1.44237c1.22248,0.33778 2.45947,0.66016 3.67596,1.01901c1.0342,0.30508 2.19228,0.63678 3.13147,1.1802c0.43127,0.24954 0.64073,0.71261 0.93681,1.08141c0.30526,0.38024 0.6637,0.7216 0.95055,1.11591c0.25648,0.35255 0.45782,0.74544 0.67706,1.12229c0.49119,0.84427 1.02867,1.67288 1.44226,2.55776c0.0021,0.00449 0.83544,2.22284 0.90663,2.40418c0.13489,0.34355 0.3106,0.67458 0.41823,1.02762c0.07331,0.24046 0.0523,0.50427 0.12212,0.74577c0.13258,0.45865 0.3583,0.89048 0.48348,1.35119c0.09488,0.34921 0.11596,0.71661 0.17463,1.0737c0.21833,1.32855 0.44005,2.66453 0.66039,3.99275c0.04927,0.47306 0.13101,0.94656 0.14751,1.42189c0.0173,0.49842 -0.06276,0.9998 -0.04714,1.49828c0.01516,0.48368 0.14855,0.96387 0.13822,1.44767c-0.00842,0.39395 -0.13284,0.77906 -0.19522,1.16813c-0.03755,0.23425 -0.03457,0.4788 -0.10554,0.70518c-0.09372,0.29896 -0.30455,0.55658 -0.38502,0.85937c-0.06767,0.25463 0.05345,0.54921 -0.0536,0.78996c-0.08099,0.18214 -0.30206,0.26261 -0.46524,0.3771c-0.2428,0.17035 -0.49768,0.32517 -0.75171,0.47824c-0.31878,0.1921 -0.65686,0.35531 -0.96772,0.55997c-0.3961,0.26079 -0.75092,0.58582 -1.15232,0.83838c-0.81522,0.51292 -1.66657,0.98181 -2.54174,1.38396c-0.79167,0.36379 -1.68048,0.52316 -2.43883,0.95209c-0.33806,0.19121 -0.58265,0.52177 -0.90648,0.73621c-1.01841,0.67438 -2.18611,1.12849 -3.271,1.67883c-0.84907,0.43073 -1.71401,0.8506 -2.60125,1.19592c-0.34058,0.13875 -0.67067,0.31596 -1.02415,0.41747c-0.32835,0.09429 -0.68512,0.07363 -1.0133,0.16846c-0.37823,0.10928 -0.72222,0.32581 -1.09831,0.4422c-0.57838,0.17901 -1.19649,0.21596 -1.7969,0.29402c-1.4327,0.18629 -2.88065,0.24994 -4.3206,0.10216c-1.3382,-0.13734 -2.61957,-0.6709 -3.95419,-0.78717c-0.49551,-0.04317 -1.00089,0.06764 -1.49572,0.01721c-0.4623,-0.0471 -0.90567,-0.22671 -1.3629,-0.30965c-0.29618,-0.05372 -0.60468,-0.04074 -0.89951,-0.10148c-0.27527,-0.0567 -0.53354,-0.18668 -0.80715,-0.25084c-0.62206,-0.14587 -1.45928,-0.15534 -2.04007,-0.39002c-0.37415,-0.15118 -0.68997,-0.42466 -1.02619,-0.64785c-0.9893,-0.65673 -1.8019,-1.5608 -2.65605,-2.37771c-0.65061,-0.59909 -1.35947,-1.14909 -1.95775,-1.80045c-1.17744,-1.2819 -2.16327,-2.79685 -3.18228,-4.20087c-0.72953,-1.00516 -1.55222,-1.96877 -2.24454,-2.9984c-0.33806,-0.50277 -1.20066,-2.02638 -1.49743,-2.5418c-0.49898,-0.86662 -0.99841,-1.73902 -1.49748,-2.60558c-0.14472,-0.2513 -0.28167,-0.50881 -0.4343,-0.75538c-0.14781,-0.23877 -0.37727,-0.43659 -0.46657,-0.70282c-0.1375,-0.40994 -0.16161,-0.85357 -0.1985,-1.28439c-0.01741,-0.20323 -0.05903,-2.66342 -0.04169,-2.87324c0.04127,-0.49919 0.21133,-0.98537 0.24928,-1.48483c0.033,-0.43442 -0.10674,-0.87888 -0.03616,-1.30881c0.03563,-0.21705 0.22955,-0.37668 0.34413,-0.56443c0.11358,-0.25788 0.18037,-0.54385 0.34131,-0.77515c0.41461,-0.59591 0.96872,-1.05356 1.45622,-1.57908c0.67395,-0.72649 1.32093,-1.4865 2.0209,-2.18796c0.27549,-0.27607 0.53479,-0.57824 0.85177,-0.80549c0.22598,-0.16202 0.51041,-0.22474 0.75839,-0.35055c0.41757,-0.21185 0.79817,-0.51022 1.23995,-0.6654c1.15794,-0.40673 2.51964,-0.23591 3.67099,-0.65512c0.34309,-0.12492 0.61551,-0.39831 0.93249,-0.57952c0.74173,-0.42405 1.55481,-0.72957 2.28979,-1.16518c0.34074,-0.20196 0.64105,-0.47046 0.96562,-0.6975c0.05019,-0.0351 0.09948,-0.07329 0.1481,-0.11197c0.24953,-0.10193 0.46996,-0.28722 0.73019,-0.36067c0.18074,-0.05101 0.3676,-0.07982 0.55446,-0.10273c0.13604,-0.01284 0.27296,-0.0264 0.40711,-0.04848c0.12606,-0.01649 0.25229,-0.03672 0.37585,-0.06534c0.22149,-0.05129 0.4401,-0.11994 0.65656,-0.19016c0.17676,-0.04772 0.35519,-0.09427 0.534,-0.13322c1.3084,-0.28497 2.66933,-0.44589 3.99006,-0.66467c0.31767,-0.05342 0.64023,-0.10046 0.96144,-0.13114c0.20562,0.06779 0.40035,0.03561 0.40035,0.03561z" fill="#ffffff" stroke="none" stroke-width="0.5" stroke-linecap="butt"/><path d="M482.85902,14.4759c-0.27076,-1.63458 0.83483,-3.17917 2.4694,-3.44993c1.63458,-0.27076 3.17917,0.83483 3.44993,2.4694c0.27076,1.63458 -0.83483,3.17917 -2.4694,3.44993c-1.63458,0.27076 -3.17917,-0.83483 -3.44993,-2.4694z" fill="#000000" stroke="none" stroke-width="0.5" stroke-linecap="butt"/><path d="M544.62335,-2.8864c-0.27076,-1.63458 0.83483,-3.17917 2.4694,-3.44993c1.63458,-0.27076 3.17917,0.83483 3.44993,2.4694c0.27076,1.63458 -0.83483,3.17917 -2.4694,3.44993c-1.63458,0.27076 -3.17917,-0.83483 -3.44993,-2.4694z" fill="#000000" stroke="none" stroke-width="0.5" stroke-linecap="butt"/><path d="M405.13461,-29.00579c0.21466,-0.97669 1.19135,-0.76203 1.19135,-0.76203l0.72417,0.16054c0.60024,0.16519 1.20049,0.33037 1.80072,0.49556c1.63437,0.56848 3.26855,1.13533 4.90894,1.6863c1.24587,0.41845 2.46932,0.91042 3.73709,1.25693c1.26777,0.34651 2.57136,0.54524 3.85687,0.81866c1.9594,0.41676 3.92536,0.81161 5.87986,1.25068c7.16973,1.61063 14.31176,3.37417 21.44757,5.12794c6.28249,1.98056 12.56396,3.96438 18.84586,5.94682c2.54449,0.80299 5.09273,1.5951 7.63373,2.40906c0.3233,0.10356 3.48103,1.13652 3.53904,1.16097c0.39687,0.16731 0.74338,0.43518 1.11413,0.65435c0.57389,0.33926 1.14652,0.68063 1.71978,1.02095c0,0 0.85989,0.51048 0.34943,1.37037c-0.51048,0.85989 -1.37037,0.34943 -1.37037,0.34943c-0.57326,-0.34031 -1.1472,-0.6795 -1.71978,-1.02095c-0.30695,-0.18304 -0.58897,-0.41499 -0.91882,-0.55251c-1.07529,-0.4483 -2.21504,-0.72286 -3.3245,-1.07825c-2.53793,-0.81297 -5.0831,-1.60411 -7.62451,-2.40613c-6.26125,-1.97592 -12.52297,-3.95041 -18.7836,-5.92827c-7.10303,-1.74174 -14.21041,-3.49937 -21.34628,-5.10238c-1.94709,-0.43739 -3.90562,-0.83063 -5.85758,-1.24581c-0.07277,-0.01548 -3.93153,-0.83567 -3.96809,-0.84567c-0.66147,-0.18079 -1.30052,-0.43538 -1.95066,-0.65345c-2.25864,-0.75761 -4.51303,-1.52462 -6.76239,-2.30936c-0.57883,-0.15891 -1.15766,-0.31783 -1.73649,-0.47674l-0.62342,-0.13564c0,0 -0.97669,-0.21466 -0.76203,-1.19135z" fill="#000000" stroke="none" stroke-width="0.5" stroke-linecap="butt"/><path d="M558.0432,-92.08676c0.24237,0.97018 -0.72782,1.21255 -0.72782,1.21255l-0.83017,0.20739c-9.76203,2.39534 -14.87574,12.29542 -20.63658,19.77077c-0.39715,0.51467 -0.82073,1.01001 -1.19146,1.54403c-1.12471,1.62008 -2.10214,3.37697 -3.14505,5.05118c-1.40995,2.26344 -2.8199,4.52688 -4.22985,6.79032c-2.46919,3.96388 -4.87297,7.97837 -7.4117,11.89795c-2.17651,3.36034 -4.47457,6.64841 -6.71011,9.96988c-4.4664,6.636 -8.91661,13.28261 -13.36438,19.9311c-1.13366,1.69458 -2.36782,3.26805 -3.62814,4.86966c-0.39704,0.50457 -0.83351,0.98033 -1.19222,1.51283c-0.56399,0.83723 -0.96901,1.71347 -1.40794,2.60918c0,0 -0.44045,0.89778 -1.33822,0.45734c-0.89778,-0.44045 -0.45734,-1.33822 -0.45734,-1.33822c0.49284,-1.0035 0.89897,-1.88415 1.54394,-2.84448c0.38542,-0.57387 0.85244,-1.08851 1.27919,-1.63235c1.2268,-1.56341 2.43341,-3.09298 3.53821,-4.74573c4.44643,-6.65178 8.90019,-13.29842 13.3677,-19.93606c2.22896,-3.3117 4.52055,-6.58996 6.69065,-9.94042c2.53233,-3.9097 4.9298,-7.91426 7.39278,-11.86815c1.40995,-2.26344 2.8199,-4.52688 4.22985,-6.79032c1.06045,-1.70238 2.05611,-3.48698 3.19972,-5.13429c0.38964,-0.56125 0.83346,-1.08286 1.2502,-1.62431c2.8486,-3.69638 5.6972,-7.39277 8.5458,-11.08916c1.15563,-1.49955 2.36985,-3.68154 3.80662,-4.90377c2.34268,-1.99286 6.45564,-3.75444 9.38359,-4.49739l0.83017,-0.20739c0,0 0.97018,-0.24237 1.21255,0.72782z" fill="#000000" stroke="none" stroke-width="0.5" stroke-linecap="butt"/><path d="M468.68816,95.79231c-0.49328,0.08171 -0.57499,-0.41157 -0.57499,-0.41157c-0.25909,-1.5641 -0.55704,-3.36282 -0.81613,-4.92691c-1.03073,-6.22238 -2.06146,-12.44477 -3.09218,-18.66715c-1.09233,-6.59425 -2.18465,-13.18849 -3.27698,-19.78274c-0.24768,-1.49521 -0.49754,-2.9901 -0.74304,-4.48567c-0.05761,-0.35097 -0.26659,-1.62715 -0.24073,-1.72725c0.24052,-0.93075 0.85092,-1.14451 1.55243,-1.54743c0.57809,-0.33205 1.16016,-0.65712 1.74025,-0.98566c1.16245,-0.65837 2.35227,-1.26323 3.5221,-1.90782c1.65952,-0.91442 3.28904,-1.88644 4.92881,-2.83556c1.41426,-0.81825 2.89644,-1.44608 4.35092,-2.1787c0.49507,-0.24937 0.94238,-0.58599 1.43392,-0.84225c1.3592,-0.70859 2.88235,-1.1926 4.31355,-1.73384c1.50334,-0.56852 3.03333,-1.04942 4.54217,-1.59742c1.11279,-0.40416 2.19923,-0.86874 3.31693,-1.26312c1.22706,-0.31874 2.31265,-0.88831 3.5085,-1.29309c0.30885,-0.10455 0.63946,-0.139 0.94483,-0.25331c0.24558,-0.09193 0.45667,-0.26049 0.69852,-0.36185c0.63801,-0.26739 1.28951,-0.50948 1.95748,-0.68939c0.26912,-0.07248 0.55393,-0.07151 0.82485,-0.13697c0.87804,-0.21217 1.69183,-0.60523 2.58514,-0.7911c0.01291,-0.00269 1.96707,-0.32626 1.99295,-0.33055c2.21869,-0.36752 4.45366,-0.68197 6.70747,-0.58587c0.93642,0.04094 1.84452,-0.01685 2.78006,-0.01399c1.26455,0.00387 2.51767,0.18794 3.77702,0.26563c1.87254,0.11552 3.7538,0.09613 5.62599,0.23429c1.17669,0.08683 2.33996,0.3647 3.52144,0.4374c0.88642,0.05454 1.79364,-0.00923 2.67731,0.10528c0.34318,0.04447 0.67777,0.1401 1.01666,0.21015c1.3064,0.2722 2.62806,0.41146 3.93509,0.67619c0.36133,0.07319 0.73723,0.09678 1.08288,0.22502c0.20971,0.07779 0.36931,0.25247 0.55203,0.3815c0.27246,0.1924 0.54257,0.3881 0.81343,0.58273c0.82437,0.59238 1.55407,1.26762 2.35227,1.89026c0.99835,0.77875 2.09237,1.43593 3.03993,2.28261c1.70713,1.52536 3.1072,3.35264 4.44588,5.19575c0.93461,0.8348 1.8709,1.65859 2.68316,2.61799c0.60151,0.71047 1.12723,1.48172 1.7309,2.19223c0.86736,1.02088 1.83939,2.03898 2.55739,3.17455c0.46445,0.73456 0.77608,1.63254 1.12819,2.4255c0.95734,2.15594 1.70405,4.32902 2.30874,6.60977c0.34062,1.28505 0.66398,2.57627 1.02213,3.85653c0.31536,1.1273 0.77298,2.22787 1.04177,3.36686c0.30622,1.29761 0.44278,2.66811 0.64971,3.9853c0.24801,1.5787 0.56364,3.18689 0.26324,4.78693c-0.065,0.34623 -0.2058,0.67383 -0.3087,1.01074c0,0 -0.14752,0.47774 -0.62526,0.33023c-0.47774,-0.14752 -0.33023,-0.62526 -0.33023,-0.62526c0.09379,-0.30008 0.22335,-0.59124 0.28137,-0.90023c0.27833,-1.48245 -0.03874,-2.98596 -0.26829,-4.4472c-0.20299,-1.29213 -0.3347,-2.63794 -0.63509,-3.91081c-0.26504,-1.12309 -0.71841,-2.20874 -1.02963,-3.32042c-0.36024,-1.28681 -0.68524,-2.58472 -1.02762,-3.87642c-0.59092,-2.2298 -1.3203,-4.35257 -2.25607,-6.46018c-0.33424,-0.7528 -0.62543,-1.61381 -1.06765,-2.31009c-0.69222,-1.0899 -1.63268,-2.06706 -2.46611,-3.04835c-0.60388,-0.71101 -1.13021,-1.48272 -1.73197,-2.19349c-0.80475,-0.95054 -1.74036,-1.76154 -2.6618,-2.59358c-1.32881,-1.80885 -2.68945,-3.61939 -4.37265,-5.12271c-0.92978,-0.83042 -2.00678,-1.47361 -2.98635,-2.23771c-0.7881,-0.61474 -1.50668,-1.28219 -2.32061,-1.86655c-0.27061,-0.19428 -0.54313,-0.38591 -0.81241,-0.58201c-0.12373,-0.0901 -0.22216,-0.22576 -0.36654,-0.27656c-0.28115,-0.09891 -0.58662,-0.10585 -0.87937,-0.16176c-1.313,-0.25076 -2.63579,-0.40589 -3.9455,-0.6783c-1.51255,-0.31726 -3.0369,-0.24055 -4.56885,-0.40562c-0.84142,-0.09066 -1.68863,-0.26915 -2.5311,-0.33012c-1.8634,-0.13487 -3.73552,-0.11743 -5.59919,-0.23227c-1.2415,-0.0765 -2.47727,-0.26027 -3.72385,-0.26377c-0.9466,-0.00266 -1.86713,0.05386 -2.81501,0.01309c-2.18306,-0.09635 -4.35189,0.21742 -6.50072,0.57337c-0.65107,0.10785 -1.307,0.18954 -1.95327,0.32314c-0.8795,0.18182 -1.67944,0.57035 -2.54426,0.78173c-0.26828,0.06557 -0.55067,0.06367 -0.81747,0.13508c-0.61972,0.16589 -1.22338,0.39221 -1.81487,0.64062c-0.2525,0.10604 -0.47451,0.279 -0.73096,0.37509c-0.31895,0.11951 -0.66329,0.1592 -0.98597,0.26823c-0.87001,0.29401 -1.68292,0.76311 -2.55667,1.04617c-0.32097,0.10398 -0.65289,0.17052 -0.97934,0.25578c-1.1011,0.38964 -2.17174,0.84859 -3.26843,1.24689c-1.50477,0.54653 -3.03056,1.02585 -4.52982,1.59284c-0.93106,0.35211 -1.85819,0.70251 -2.77607,1.08788c-0.48096,0.20193 -0.98113,0.36291 -1.44333,0.6047c-0.48715,0.25485 -0.93092,0.58838 -1.42175,0.83605c-1.44012,0.72669 -2.90953,1.34532 -4.31001,2.15629c-1.64585,0.95264 -3.28147,1.92811 -4.94716,2.84593c-1.1664,0.6427 -2.35286,1.24562 -3.51188,1.90211c-0.58007,0.32856 -1.15796,0.66105 -1.74025,0.98566c-0.34441,0.192 -0.97625,0.41688 -1.07172,0.90585c-0.05177,0.26516 0.11581,0.52783 0.16624,0.79325c0.03428,0.18047 0.05809,0.36278 0.08784,0.54406c0.2454,1.4949 0.49514,2.98912 0.74271,4.48366c1.09233,6.59425 2.18465,13.18849 3.27698,19.78274c1.03073,6.22238 2.06146,12.44477 3.09218,18.66715c0.25909,1.5641 0.51818,3.1282 0.77727,4.6923l0.03886,0.23461c0,0 0.08171,0.49328 -0.41157,0.57499z" fill="#000000" stroke="none" stroke-width="0.5" stroke-linecap="butt"/><path d="M226.04438,10.215c-0.04513,-0.27243 0.13914,-0.52986 0.41157,-0.57499c0.27243,-0.04513 0.52986,0.13914 0.57499,0.41157c0.04513,0.27243 -0.13914,0.52986 -0.41157,0.57499c-0.27243,0.04513 -0.52986,-0.13914 -0.57499,-0.41157z" fill="#000000" stroke="none" stroke-width="0.5" stroke-linecap="butt"/></g><path d="M872.04686,66.73687l-13.55814,-47.47282l28.3735,-27.0187l31.88288,21.03367l8.5364,61.88416l200.87012,-32.81778l64.39639,71.83048l-57.14845,40.15635l-201.07494,-44.10364l24.5734,58.11482l-23.57567,24.9684l-38.26392,-17.18543l-9.85082,-55.40003l-100.56681,28.18737l-58.33918,-56.30126l43.3596,-47.86088z" fill="#00ffcb" stroke="#000000" stroke-width="1" stroke-linecap="round"/></g></g></svg>