<svg version="1.1" xmlns="http://www.w3.org/2000/svg" xmlns:xlink="http://www.w3.org/1999/xlink" width="2878.25006" height="1619.57958" viewBox="0,0,2878.25006,1619.57958"><g transform="translate(1119.12503,629.78979)"><g stroke-miterlimit="10"><g stroke-width="0"><path d="M361.49411,301.02051l-20.4987,-36.87351l93.59733,-3.68829l34.28391,35.94698z" fill="#cedce9" stroke="#000000" stroke-linecap="round"/><path d="M470.19276,295.12759c2.46161,-0.27654 4.97679,-0.62366 7.50116,-1.14598c3.22136,-0.66654 10.9272,-1.822 7.53792,-2.52738c1.84891,0.19326 4.33544,0.41935 5.64564,0.45263c6.2074,0.15756 14.30346,-0.61049 20.69949,-0.88536c17.54724,-0.75412 34.68944,-1.69245 51.69757,-1.35563c7.68643,0.15222 9.78139,-1.4216 12.18246,0.56028c4.93592,3.28635 14.18869,6.03568 20.13943,9.30191c8.06507,4.42672 11.26201,8.92953 16.24542,13.50162c5.60824,3.70058 1.24352,11.48508 1.33596,15.86825c0.02474,1.17331 -1.49061,3.33475 0.00792,4.13479c-1.47057,0.10687 -2.89295,0.2089 -3.79825,0.2478c-6.01639,0.25856 -12.04315,0.52287 -18.05956,0.78142c-23.9324,1.02851 -51.85441,2.08682 -75.12326,1.18926c-27.62294,-0.83718 -57.72706,3.34309 -85.56749,2.72264c-15.24428,-0.25616 -31.87653,0.98109 -47.37817,1.65371c-7.86391,0.3412 -14.62502,-0.34783 -18.03749,1.61409c-0.89694,0.51567 -0.02762,-1.12474 -0.03945,-1.68591c-0.02958,-1.40291 -0.06812,-2.81232 -0.09771,-4.21527c-0.16569,-7.8565 -0.34312,-15.75929 -0.50881,-23.6158c-0.03918,-1.85733 1.32733,-8.58306 -1.77305,-9.16952c0.57857,-0.03619 1.23371,-0.08312 1.59366,-0.10719c3.18885,-0.21307 4.97668,-0.23527 7.45436,-0.9223c4.30149,-1.19268 18.91436,-1.06408 24.77533,-1.31595c22.77635,-0.97884 45.67326,-1.99634 68.44947,-2.97517c0,0 5.18213,-0.22559 5.14663,-1.90911c-0.00146,-0.06912 -0.01089,-0.13507 -0.02893,-0.19788z" fill="#484848" stroke="none" stroke-linecap="butt"/><path d="M542.61655,298.19275c-0.00411,-0.19523 -0.08246,-0.51909 -0.15751,-0.83732c-0.26288,0.14173 -0.65676,0.26992 -1.16427,0.38629c-1.51721,0.57299 -3.8352,0.67262 -3.8352,0.67262c-19.64263,0.84415 -30.89361,5.80099 -37.7384,10.80077c-0.80566,0.56851 -0.71993,1.20805 -0.70736,1.8044c0.00358,0.16967 -0.04042,0.44143 -0.08883,0.7227c0.05005,-0.09206 0.17813,-0.1714 0.44106,-0.23009c1.162,-0.25939 11.32896,0.58557 12.55769,-0.20488c0.36925,-0.23755 -1.83967,-0.18438 -1.72315,-0.43937c1.43304,-3.1349 17.21947,-8.46202 25.00099,-10.0722c2.01819,-0.41763 4.29448,-0.68194 6.55929,-0.85548c-0.89558,-0.41244 0.86764,-1.17842 0.85564,-1.74739zM498.90066,311.8827c-0.10433,0.60354 -0.19606,1.18011 0.14862,0.82031c0.23561,-0.24588 -0.11866,-0.56163 -0.14862,-0.82031zM490.46464,308.10571c7.27461,-4.85271 16.98967,-9.40987 32.23092,-11.69423c1.41946,-0.7937 4.37938,-0.92094 4.37938,-0.92094l2.57844,-0.11082c5.8384,-0.25092 8.91322,-1.04768 15.18445,-1.31719c8.70919,-0.37427 10.84725,5.19257 6.32796,7.04398c-2.85185,1.16827 -7.45442,1.7092 -11.28824,2.50252c-11.34833,2.34819 -15.46094,7.87126 -27.8827,11.06527c-13.16553,3.3852 -27.85416,-2.10627 -21.53017,-6.56855z" fill="#000000" stroke="none" stroke-linecap="butt"/><path d="M542.64947,297.29079c0.0752,0.31822 0.16554,0.64624 0.16965,0.84147c0.01199,0.56895 -1.72987,1.34439 -0.83428,1.75685c-2.26483,0.17356 -4.55433,0.43157 -6.5726,0.8492c-7.78162,1.61016 -23.64519,6.91701 -25.07817,10.05192c-0.11663,0.25504 1.85051,0.36022 1.48121,0.59779c-1.22873,0.79044 -11.48404,-0.07291 -12.64602,0.18648c-0.26307,0.05875 -0.38993,0.13845 -0.43987,0.23054c0.04841,-0.28127 0.08284,-0.55651 0.07925,-0.72618c-0.01257,-0.59632 -0.12104,-1.24664 0.68461,-1.81512c6.84474,-4.99978 18.50319,-10.07304 38.14579,-10.91719c0,0 2.3286,-0.09644 3.84577,-0.66946c0.50757,-0.1164 0.90163,-0.24452 1.16437,-0.38626z" fill="#ffffff" stroke="none" stroke-linecap="butt"/></g><g stroke-width="0"><path d="M107.16519,300.11229l28.13052,-45.74053l93.26343,-8.96519l-14.33249,44.85645z" fill="#cedce9" stroke="#000000" stroke-linecap="round"/><path d="M98.01348,298.69154c-3.29706,-0.30574 -11.08255,-0.53884 -7.84114,-1.8185c-1.79929,0.48002 -4.20409,1.08523 -5.496,1.30739c-6.12022,1.05238 -14.18893,1.30533 -20.56593,1.892c-17.49489,1.60946 -34.51144,2.91516 -51.2961,5.69065c-7.58543,1.25432 -9.89898,-0.25133 -11.95574,2.34237c-4.35541,4.43511 -13.03669,8.83388 -18.40005,13.38875c-7.26909,6.17327 -9.70013,11.71105 -13.89464,17.61635c-4.95399,5.00111 0.5978,13.21742 1.21504,18.21982c0.16523,1.33904 2.0046,3.58045 0.65035,4.70187c1.4733,-0.08518 2.89597,-0.1701 3.79848,-0.25313c5.99841,-0.55183 11.99674,-1.10367 17.99518,-1.6555c23.86066,-2.19509 51.55962,-4.94048 74.45206,-9.23473c27.21299,-4.83788 57.42378,-4.26962 84.88714,-8.89138c15.0514,-2.43553 31.67429,-3.3401 47.13061,-4.75461c7.84098,-0.71759 14.41787,-2.44813 18.11369,-0.69479c0.9714,0.46087 -0.15805,-1.28092 -0.23707,-1.92136c-0.19757,-1.6011 -0.39514,-3.20235 -0.59269,-4.80346c-1.10635,-8.96645 -2.2127,-17.93288 -3.31906,-26.89931c-0.26154,-2.11974 -2.68414,-9.56654 0.29058,-10.67016c-0.57856,0.04019 -1.23417,0.07936 -1.59449,0.10256c-3.19174,0.20591 -4.96093,0.43494 -7.52512,0.00137c-4.4516,-0.75272 -18.8841,1.45658 -24.72758,1.99417c-22.70815,2.08908 -45.41626,4.17814 -68.12443,6.2672c0,0 -5.14146,0.473 -5.37853,-1.44836c-0.00974,-0.07889 -0.01045,-0.15527 -0.00275,-0.22932c-2.48192,0.03142 -4.99798,-0.01017 -7.58163,-0.24971zM178.62682,290.50904c13.70781,-1.26107 31.11497,-3.78499 40.9569,-0.75051c5.63981,1.73885 2.98681,9.22159 3.35671,12.21939c1.10635,8.96645 2.2127,17.93287 3.31906,26.89931c0.12633,1.02389 2.52392,5.94007 0.82977,6.72484c-17.11201,7.92628 -51.43036,6.13014 -73.04552,9.97805c-26.85471,4.51934 -58.54537,3.53058 -84.41475,8.80735c-23.59437,4.42596 -52.32073,7.31481 -76.93189,9.57896c-3.53019,0.32475 -24.57774,3.2715 -26.99265,2.48321c-6.9251,-2.26056 -5.78989,-4.78216 -6.20828,-8.17324c-0.75684,-6.13367 -4.5685,-13.17739 -0.83726,-19.48357c4.29913,-6.05255 7.10586,-11.98452 14.39055,-18.17101c2.93856,-2.49552 6.04269,-5.7576 9.94587,-8.12642c2.55403,-1.55004 7.61359,-3.08398 8.05346,-4.83398c3.84954,-4.85451 11.97842,-4.12776 21.29182,-5.74095c16.57901,-2.87169 33.95093,-4.09498 51.29612,-5.69067c6.39679,-0.5885 18.75957,-2.83844 23.31446,-2.91128c7.92898,-0.12675 12.79192,1.95777 20.49723,2.00071c5.65403,0.0315 11.50157,-0.83301 18.17298,-0.21446c0.50647,0.04701 1.01283,0.09394 1.51935,0.14091c17.16207,-1.57884 34.32422,-3.15769 51.48631,-4.73654z" fill="#000000" stroke="none" stroke-linecap="butt"/><path d="M105.65524,298.84247c-0.00772,0.07403 -0.00638,0.15043 0.00336,0.22932c0.23709,1.92137 5.40418,1.44934 5.40418,1.44934c22.70812,-2.08906 45.54197,-4.15105 68.25021,-6.24012c5.84344,-0.53758 20.29028,-2.73914 24.74188,-1.98646c2.56415,0.4336 4.3378,0.20742 7.52941,0.00147c0.36026,-0.02324 1.01648,-0.06194 1.59515,-0.10212c-2.97474,1.10362 -0.53426,8.56739 -0.27272,10.68712c1.10635,8.96645 2.20856,17.98722 3.31491,26.95366c0.19757,1.60115 0.38732,3.21092 0.58489,4.81203c0.07902,0.64046 1.20496,2.38548 0.23355,1.92464c-3.69579,-1.75333 -10.2783,-0.01812 -18.11921,0.69947c-15.45633,1.41453 -32.12332,2.34533 -47.17467,4.78088c-27.4634,4.62177 -57.94424,4.0972 -85.15725,8.93508c-22.89244,4.29426 -50.70806,7.01654 -74.56889,9.21167c-5.99842,0.55184 -12.008,1.09858 -18.00641,1.65041c-0.90259,0.08304 -2.32734,0.16694 -3.80056,0.25211c1.35427,-1.12144 -0.49552,-3.36871 -0.66075,-4.70777c-0.61725,-5.0024 -6.19733,-13.24973 -1.24322,-18.25089c4.19457,-5.90533 6.63163,-11.48054 13.90072,-17.6538c5.36344,-4.55489 14.07969,-8.98582 18.43515,-13.42089c2.05675,-2.59368 4.38537,-1.09683 11.97079,-2.35112c16.78461,-2.77545 33.90817,-4.11823 51.40293,-5.72768c6.37691,-0.58665 14.51669,-0.85102 20.63691,-1.90337c1.29179,-0.22213 3.71706,-0.82922 5.51634,-1.30924c-3.24152,1.27961 4.57456,1.51114 7.87167,1.81681c2.58374,0.23954 5.13005,0.28093 7.61191,0.24952z" fill="#484848" stroke="none" stroke-linecap="butt"/><path d="M34.44725,312.51742c0.08012,0.64935 1.94968,1.27329 1.12969,1.86873c2.27035,-0.12097 4.56675,-0.14025 6.63242,0.05129c7.96455,0.73849 24.45547,4.5822 26.38117,7.94914c0.15659,0.27386 -2.03897,0.524 -1.63497,0.74249c1.34434,0.72698 11.27362,-1.66475 12.46601,-1.53289c0.26981,0.02982 0.40944,0.10213 0.47388,0.19988c-0.09342,-0.31337 -0.18091,-0.61652 -0.20481,-0.81017c-0.08398,-0.68061 -0.10252,-1.42066 -0.9921,-1.95449c-7.58522,-4.72864 -19.52589,-8.7887 -39.10979,-6.98706c0,0 -2.31106,0.21259 -3.90584,-0.22628c-0.52128,-0.06109 -0.93199,-0.15163 -1.21517,-0.27598c-0.02285,0.3728 -0.04803,0.75249 -0.02054,0.97529zM79.92775,322.90722c0.39944,0.3611 0.21538,-0.28234 0.0145,-0.95467c0.01217,0.29868 -0.28752,0.70792 -0.0145,0.95467zM87.68362,316.46677c6.98269,4.19006 -6.67197,12.50685 -20.25404,10.50506c-12.81477,-1.88877 -17.77958,-7.59732 -29.39482,-8.67425c-3.924,-0.36386 -8.56829,-0.33229 -11.5807,-1.26105c-4.77374,-1.47189 -3.5571,-8.10938 5.12605,-8.90822c6.25249,-0.57521 9.42558,-0.10067 15.24652,-0.63618l2.57073,-0.23651c0,0 2.95108,-0.27144 4.48476,0.43241c15.45915,0.45678 25.81454,4.27788 33.80152,8.77866z" fill="#000000" stroke="none" stroke-linecap="butt"/><path d="M34.26904,311.49528c0.28304,0.12439 0.69391,0.21479 1.21527,0.27593c1.59475,0.43889 3.9158,0.22118 3.9158,0.22118c19.58386,-1.80165 31.94679,2.33364 39.53196,7.06229c0.88955,0.5338 0.88733,1.28932 0.97131,1.96987c0.0239,0.19364 0.10246,0.50211 0.19589,0.81548c-0.06434,-0.09781 -0.20281,-0.17069 -0.47277,-0.20056c-1.19238,-0.13185 -11.20615,2.29322 -12.55048,1.56628c-0.40404,-0.21848 1.52653,-0.61488 1.36983,-0.8888c-1.92565,-3.36697 -18.48967,-7.17673 -26.45431,-7.91518c-2.06574,-0.19154 -4.3742,-0.16324 -6.64459,-0.04229c0.82001,-0.59546 -1.02995,-1.23318 -1.11007,-1.88251c-0.0275,-0.22281 0.0089,-0.6089 0.0319,-0.98171z" fill="#ffffff" stroke="none" stroke-linecap="butt"/></g><path d="M-1119.12503,989.78979v-1619.57958h2878.25006v1619.57958z" fill="none" stroke="#000000" stroke-width="0" stroke-linecap="butt"/><g><path d="M609.89121,280.37157l-97.52789,-0.8493v8.49299l-137.72805,0.5662l-18.11839,-8.493h-86.41621l-0.2831,8.20989l-256.3044,-2.2648l-3.1141,-128.73963l14.72119,-0.8493l0.5662,-83.93908l-0.2831,-3.1141l73.03975,2.2648l146.0795,-157.12039l70.49185,70.6334l9.62539,-8.77609l86.91164,83.37289l24.34659,0.8493l8.77609,-8.7761l170.70918,-3.1141z" fill="#676358" stroke="#000000" stroke-width="1" stroke-linecap="round"/><path d="M611.98613,156.51567l-1.41551,124.42237l-98.23562,-3.1141l1.41549,10.75779h-138.7189l-17.26909,-8.20989l-88.04404,1.1324l-2.54789,-118.61906l100.64198,0.5662l-1.69859,-13.30569l15.00429,-2.831l71.41193,-74.66757l61.07878,58.31856l1.41551,26.96525l99.93422,-3.1141z" fill="#3b393c" stroke="#000000" stroke-width="1" stroke-linecap="round"/><path d="M510.35331,170.45833l56.90306,-1.1324l-0.8493,75.37532l-54.92136,1.1324z" fill="#0a0f0b" stroke="#000000" stroke-width="1" stroke-linecap="round"/><path d="M419.19518,289.431l1.6986,-98.0233l2.26479,-18.11839l12.4564,-11.32399l12.7395,-3.3972l13.87188,2.831l9.3423,6.7944l5.37889,13.0226l-1.1324,107.6487z" fill="#161719" stroke="#000000" stroke-width="1" stroke-linecap="round"/><path d="M275.59281,172.58157l56.33686,1.1324l-0.2831,69.85488l-56.05376,-0.5662z" fill="#0a0f0b" stroke="#000000" stroke-width="1" stroke-linecap="round"/><path d="M268.65686,288.58171l-255.99299,-0.8493l-0.8493,-41.26179l257.76236,1.9817z" fill="#3b393c" stroke="#000000" stroke-width="1" stroke-linecap="round"/><path d="M40.97386,287.73241l1.1324,-108.42723h195.97584l0.5662,109.55962z" fill="#242a28" stroke="#000000" stroke-width="1" stroke-linecap="round"/><path d="M47.48514,287.16621l2.2648,-97.66943l181.32542,1.41551l0.2831,98.51873z" fill="#716c66" stroke="#000000" stroke-width="1" stroke-linecap="round"/><path d="M225.27182,189.49678l0.2831,12.4564l-173.25708,0.8493l0.8493,-13.02258z" fill="#101413" stroke="#000000" stroke-width="1" stroke-linecap="round"/><path d="M292.93268,153.68466l-293.8576,3.3972l-6.51129,-7.0775l308.64956,-5.9451z" fill="#292621" stroke="#000000" stroke-width="1" stroke-linecap="round"/><path d="M23.98786,138.11417l65.11296,-67.66085h-74.73835l-7.64369,-8.77609l88.32713,0.8493l151.24606,-158.65976l68.86404,68.0855l10.19159,-9.9085l93.70603,90.52117l11.0409,-0.2831l11.89019,-6.2282l199.04747,-7.64369l-9.62539,9.34229l-187.69516,4.52961l-16.56134,8.20989l12.4564,11.04089l15.28739,-15.28739l81.24964,76.72005l-9.9085,8.7761l-74.17214,-67.94396l-70.77496,74.17214l-24.06349,3.1141l-3.3972,-9.05919l23.21418,-4.81269l57.96468,-58.95553l-111.96597,-102.19903l-81.81584,86.34544l-7.36059,-4.8127l74.66757,-79.83414l-64.1221,-63.69746l-209.28152,223.93194z" fill="#292621" stroke="#000000" stroke-width="1" stroke-linecap="round"/><path d="M111.89519,70.40222l87.497,-0.52185l-1.0437,59.23007l-86.10539,-0.17395z" fill="#292621" stroke="#000000" stroke-width="1" stroke-linecap="round"/><path d="M184.08456,69.70642l0.52185,60.36075l-57.4036,-0.69581l1.56556,-60.36075z" fill="#0a0f0b" stroke="#000000" stroke-width="1" stroke-linecap="round"/><path d="M475.53829,76.96884l0.52185,-17.39503l106.80548,-1.0437l-0.3479,62.97l-58.62124,0.52185z" fill="#292621" stroke="#000000" stroke-width="1" stroke-linecap="round"/><path d="M492.75936,93.32016l0.17395,-34.26821l74.97258,-1.91345l-0.52185,64.70951h-42.79177z" fill="#0a0f0b" stroke="#000000" stroke-width="1" stroke-linecap="round"/><path d="M330.12695,28.32168c-0.23898,-0.45144 0.15934,-0.84976 0.15934,-0.84976c0.2987,-0.29031 0.53621,-0.6612 0.89609,-0.87092c1.20753,-0.70368 1.9176,-0.6401 3.23676,-0.76452c0.99558,-0.0939 1.99153,-0.18383 2.9873,-0.27575c1.27692,-0.11787 2.55966,-0.2097 3.83393,-0.35381c0.08389,-0.00949 2.9603,-0.37175 3.00932,-0.37492c1.80757,-0.11715 3.6816,-0.02764 5.48667,0.05966c1.78384,0.08628 3.55383,0.15621 5.32877,0.35299c1.30116,0.14774 2.54412,0.53862 3.81608,0.84689c1.46698,0.35554 2.95994,0.69261 4.40199,1.14093c0.01887,0.00587 2.81828,1.00131 2.85525,1.01446c1.12088,0.39878 2.2986,0.81914 3.33914,1.40169c0.45328,0.25377 0.87499,0.56028 1.30969,0.84472c0.349,0.22836 0.75536,0.39006 1.04135,0.69364c0.37878,0.40209 0.61183,0.91995 0.91422,1.38224c0.21119,0.32287 0.44941,0.63044 0.62651,0.9732c0.23924,0.46299 0.41262,0.95715 0.61834,1.43598c0.51997,1.21028 1.15321,2.4113 1.59993,3.64983c0.51124,1.41742 0.48423,1.61048 0.75728,3.08907c0.0607,1.5626 0.23321,3.19261 -0.21251,4.72218c-0.36302,1.24576 -1.12081,2.39195 -1.57188,3.60988c-0.52195,1.40933 -0.94358,2.84475 -1.49089,4.24663c-0.19601,0.50205 -0.32176,1.03833 -0.59225,1.50449c-0.27049,0.46616 -0.67381,0.84135 -1.01232,1.26073c-1.03136,1.27777 -2.23343,2.44962 -3.55235,3.43376c-1.09202,0.81484 -1.43422,0.98044 -2.59658,1.67107c-0.32749,0.19458 -0.64087,0.41538 -0.98311,0.58265c-0.83187,0.40659 -1.73849,0.64356 -2.57858,1.03287c-0.3205,0.14853 -0.61425,0.34902 -0.92138,0.52353c-0.41661,0.12336 -0.86033,0.17751 -1.24982,0.37006c-1.10672,0.54712 -1.10034,1.05675 -2.27059,1.4467c-0.37394,0.12461 -0.79649,0.02403 -1.17473,0.1349c-0.34749,0.10184 -0.6283,0.36758 -0.96795,0.49311c-0.78596,0.29048 -1.59879,0.51583 -2.42152,0.67463c-0.92266,0.17809 -1.85305,0.3379 -2.79079,0.39835c-0.50348,0.03245 -1.00975,-0.02564 -1.51357,0.00084c-0.90967,0.04781 -2.08376,0.27542 -2.98877,0.31662c-0.5145,0.02342 -1.02997,-0.01398 -1.54494,-0.02131c-0.88038,-0.01252 -1.7633,0.02847 -2.64112,-0.03986c-2.88918,-0.22491 -5.7588,-0.797 -8.60928,-1.29274c-0.46515,-0.08183 -0.92515,-0.20206 -1.39543,-0.24551c-0.44369,-0.04099 -0.89467,0.04913 -1.33671,-0.00691c-0.28539,-0.03618 -0.54049,-0.20199 -0.82082,-0.26659c-0.30592,-0.07049 -0.63325,-0.04001 -0.93174,-0.13726c-0.50815,-0.16557 -0.97906,-0.42887 -1.46801,-0.64463c-0.75342,-0.33246 -1.51295,-0.65332 -2.28692,-0.93463c-0.61204,-0.22245 -2.17791,-0.68506 -2.73959,-1.08542c-1.10161,-0.78523 -1.29039,-1.32686 -1.89878,-2.43614c-0.25178,-0.45908 -0.53529,-0.90339 -0.74216,-1.38438c-0.20623,-0.47948 -0.32882,-0.99075 -0.49255,-1.48636c-0.4142,-1.25371 -0.8021,-2.46886 -1.13323,-3.74744c-0.1332,-0.51431 -0.32786,-1.01688 -0.39661,-1.54369c-0.06875,-0.52681 -0.00937,-1.0625 -0.01285,-1.59376c-0.00896,-1.36964 -0.00483,-2.73936 -0.00483,-4.10902c0,-1.06321 -0.09393,-2.14074 0.14647,-3.18594c0.30629,-1.33165 1.00168,-2.53603 1.57158,-3.76738c0.56645,-1.22387 1.07335,-2.50818 1.82402,-3.63561c0.50675,-0.7611 1.37608,-1.70002 1.98153,-2.38498c0.9706,-1.09808 1.97329,-2.07813 3.08956,-3.02893c0.22569,-0.19223 0.43003,-0.41345 0.67887,-0.5746c0.43478,-0.28155 0.91597,-0.48472 1.36245,-0.74732c0.79147,-0.4655 1.58794,-0.92441 2.35364,-1.43117c0.04102,-0.02715 0.08052,-0.05644 0.11907,-0.08707zM335.40515,27.25277c0.11697,0.61208 -0.50816,0.82045 -0.50816,0.82045l-0.4744,0.15203c-0.40742,0.08066 -0.81484,0.16131 -1.22227,0.24197c-0.17077,0.06447 -1.52243,0.56163 -1.742,0.69081c-0.22245,0.13087 -0.38639,0.34495 -0.60158,0.48743c-0.79499,0.52633 -1.62042,1.00556 -2.44285,1.48789c-0.41579,0.24385 -0.86524,0.42941 -1.27124,0.68924c-0.20607,0.13188 -0.36967,0.32059 -0.55545,0.47979c-1.06119,0.90939 -2.01475,1.83506 -2.93995,2.88182c-0.52919,0.59872 -1.40784,1.5491 -1.85702,2.22313c-0.70725,1.06128 -1.17775,2.28162 -1.71115,3.43409c-0.52211,1.12806 -1.187,2.24787 -1.46957,3.46721c-0.21493,0.92744 -0.10975,1.91236 -0.10975,2.85607c0,1.36751 0.00206,2.73497 0.00482,4.10247c0.00095,0.46874 -0.06041,0.94141 0.00025,1.40621c0.06066,0.4648 0.24147,0.90584 0.36066,1.35917c0.32816,1.24817 0.70401,2.43059 1.10652,3.65686c0.14909,0.45421 0.25711,0.92388 0.44587,1.3631c0.18811,0.43771 0.45243,0.83855 0.68013,1.25702c0.45558,0.83727 0.61618,1.35125 1.43199,1.91949c0.37856,0.26368 2.11837,0.80865 2.40299,0.9122c1.2275,0.44658 1.32253,0.49845 2.38351,0.9736c0.42491,0.19029 0.83058,0.43011 1.27343,0.57379c0.27582,0.08948 0.57922,0.05365 0.86175,0.11894c0.246,0.05686 0.46587,0.215 0.71647,0.24583c0.40542,0.04989 0.81869,-0.04467 1.22542,-0.00691c0.51308,0.04763 1.01565,0.17476 1.52346,0.26213c2.79978,0.48692 5.61877,1.05175 8.45644,1.27418c0.85046,0.06667 1.70597,0.02351 2.55894,0.03641c0.48492,0.00733 0.97026,0.04475 1.45473,0.02269c0.99714,-0.04539 1.98102,-0.26308 2.97778,-0.31608c0.49478,-0.02631 0.99192,0.03189 1.48643,0.00084c0.87029,-0.05464 1.73327,-0.20615 2.58969,-0.37028c0.74403,-0.14259 1.47991,-0.34331 2.19032,-0.60643c0.37678,-0.13955 0.69639,-0.41801 1.08175,-0.53174c0.36372,-0.10734 0.76885,-0.00942 1.13119,-0.12132c0.79488,-0.24547 1.34011,-1.00128 2.08504,-1.37165c0.40936,-0.20353 0.87487,-0.26572 1.3123,-0.39858c0.29071,-0.16711 0.56779,-0.36056 0.87212,-0.50133c0.82932,-0.38361 1.72462,-0.61585 2.54568,-1.01684c0.31045,-0.15161 0.59298,-0.35473 0.88981,-0.53154c1.10169,-0.65625 1.42514,-0.80664 2.44826,-1.57036c1.22893,-0.91735 2.33499,-2.00763 3.30329,-3.19109c0.29197,-0.35684 0.6478,-0.66902 0.8792,-1.06781c0.2314,-0.39879 0.3257,-0.8627 0.49081,-1.29318c0.53805,-1.40284 0.96731,-2.836 1.48954,-4.24314c0.27965,-0.7535 0.64147,-1.4739 0.96479,-2.20972c0.18857,-0.42915 0.43431,-0.83708 0.56849,-1.28622c0.39391,-1.31858 0.20934,-2.78479 0.16043,-4.13292c-0.23873,-1.2857 -0.22246,-1.49142 -0.67112,-2.72813c-0.44137,-1.21663 -1.06491,-2.39428 -1.57394,-3.58505c-0.18822,-0.44031 -0.34415,-0.89576 -0.56341,-1.32146c-0.15729,-0.30537 -0.37717,-0.57423 -0.56208,-0.86372c-0.24097,-0.37726 -0.41134,-0.80805 -0.71553,-1.13647c-0.21224,-0.22913 -0.53233,-0.32686 -0.79556,-0.49495c-0.40499,-0.25859 -0.79008,-0.54972 -1.20902,-0.78503c-0.97251,-0.54622 -2.07873,-0.93485 -3.1274,-1.3074c-0.93284,-0.33141 -1.85277,-0.70153 -2.7981,-0.99543c-1.41168,-0.43889 -2.87394,-0.76747 -4.30999,-1.11551c-1.20653,-0.29241 -2.39362,-0.6801 -3.6284,-0.81385c-1.74366,-0.19418 -3.48315,-0.26057 -5.2357,-0.34559c-1.74878,-0.08484 -3.56577,-0.17454 -5.31709,-0.06105c-0.98706,0.06397 -1.96146,0.25823 -2.94434,0.36929c-1.28233,0.14489 -2.57306,0.23761 -3.85803,0.35622c-0.71308,0.06583 -1.42607,0.13273 -2.13917,0.19839z" fill="#000000" stroke="none" stroke-width="0.5" stroke-linecap="butt"/><path d="M337.52297,27.00917c1.28497,-0.11861 2.5841,-0.21441 3.86642,-0.3593c0.98289,-0.11106 1.96442,-0.30669 2.95148,-0.37066c1.75132,-0.1135 3.58142,-0.0236 5.3302,0.06124c1.75255,0.08501 3.50393,0.1547 5.24759,0.34887c1.23478,0.13375 2.42919,0.52522 3.63573,0.81763c1.43605,0.34804 2.90538,0.68197 4.31706,1.12086c0.94533,0.2939 1.86908,0.66787 2.80192,0.99928c1.04868,0.37256 2.15841,0.76564 3.13092,1.31186c0.41895,0.23531 0.80538,0.52846 1.21037,0.78705c0.26324,0.16808 0.58412,0.2671 0.79635,0.49623c0.30419,0.32841 0.47572,0.7613 0.7167,1.13856c0.18491,0.28949 0.40562,0.55997 0.5629,0.86535c0.21926,0.4257 0.37625,0.88347 0.56447,1.32378c0.50902,1.19078 1.13479,2.37496 1.57616,3.59159c0.44866,1.23671 0.43342,1.44725 0.67215,2.73295c0.04891,1.34813 0.23412,2.82157 -0.15979,4.14015c-0.13418,0.44914 -0.37993,0.8594 -0.5685,1.28855c-0.32332,0.73582 -0.68545,1.46041 -0.9651,2.21391c-0.52222,1.40714 -0.95316,2.84859 -1.49122,4.25143c-0.16511,0.43048 -0.26022,0.89692 -0.49163,1.29571c-0.2314,0.39879 -0.58814,0.71336 -0.8801,1.0702c-0.9683,1.18346 -2.07839,2.28155 -3.30732,3.1989c-1.02312,0.76373 -1.34993,0.91879 -2.45162,1.57504c-0.29683,0.17681 -0.58074,0.38157 -0.89119,0.53318c-0.82106,0.40098 -1.72036,0.63728 -2.54969,1.02089c-0.30433,0.14077 -0.58316,0.33573 -0.87387,0.50284c-0.43743,0.13286 -0.90535,0.1969 -1.31471,0.40043c-0.74493,0.37037 -1.2952,1.12939 -2.09008,1.37487c-0.36234,0.1119 -0.76974,0.01517 -1.13346,0.12251c-0.38536,0.11373 -0.70765,0.39341 -1.08443,0.53296c-0.71041,0.26312 -1.45152,0.4657 -2.19555,0.60829c-0.85642,0.16413 -1.72568,0.31706 -2.59598,0.3717c-0.49451,0.03105 -0.99531,-0.02671 -1.49009,-0.0004c-0.99676,0.053 -1.98807,0.27076 -2.98521,0.31615c-0.48447,0.02205 -0.97337,-0.01572 -1.45828,-0.02306c-0.85297,-0.01291 -1.71448,0.02905 -2.56493,-0.03761c-2.83767,-0.22243 -5.67337,-0.79524 -8.47316,-1.28216c-0.50782,-0.08737 -1.01266,-0.21626 -1.52574,-0.26389c-0.40673,-0.03776 -0.82143,0.05556 -1.22686,0.00567c-0.2506,-0.03083 -0.47149,-0.18991 -0.71749,-0.24677c-0.28253,-0.0653 -0.58692,-0.03042 -0.86274,-0.1199c-0.44285,-0.14368 -0.85024,-0.3853 -1.27515,-0.57559c-1.06099,-0.47515 -1.15873,-0.53027 -2.38623,-0.97685c-0.28462,-0.10355 -2.02662,-0.65162 -2.40518,-0.91529c-0.81581,-0.56824 -0.97851,-1.08575 -1.43409,-1.92302c-0.2277,-0.41847 -0.49314,-0.82151 -0.68124,-1.25921c-0.18875,-0.43921 -0.29778,-0.91113 -0.44687,-1.36534c-0.40251,-1.22628 -0.78051,-2.41494 -1.10867,-3.6631c-0.11919,-0.45333 -0.30058,-0.89673 -0.36124,-1.36153c-0.06066,-0.4648 0.00024,-0.93983 -0.0007,-1.40856c-0.00276,-1.3675 -0.00551,-2.74211 -0.00551,-4.10962c0,-0.94371 -0.10505,-1.9337 0.10988,-2.86114c0.28258,-1.21934 0.9484,-2.34565 1.47051,-3.47371c0.5334,-1.15247 1.00583,-2.37957 1.71308,-3.44084c0.44918,-0.67403 1.32991,-1.6293 1.8591,-2.22802c0.9252,-1.04676 1.88278,-1.97923 2.94397,-2.88862c0.18578,-0.15921 0.35023,-0.34909 0.55631,-0.48097c0.406,-0.25982 0.85716,-0.44754 1.27295,-0.69139c0.82243,-0.48233 1.65189,-0.96583 2.44688,-1.49216c0.2152,-0.14248 0.38037,-0.35768 0.60282,-0.48855c0.21957,-0.12918 1.57427,-0.62881 1.74504,-0.69328c0.40742,-0.08066 0.81693,-0.16279 1.22435,-0.24345l0.47532,-0.15263c0,0 0.62679,-0.2094 0.50982,-0.82148c0.7131,-0.06566 1.43009,-0.13468 2.14318,-0.20051z" fill="#ffffff" stroke="none" stroke-width="0.5" stroke-linecap="butt"/><path d="M286.87224,29.80473c-0.32191,-0.02222 -0.64535,-0.02842 -0.96748,-0.02763c-1.33873,0 -2.69752,-0.06448 -4.0349,0.00284c-0.18277,0.0092 -0.36506,0.0257 -0.54725,0.04389c-0.22504,0.0339 -0.45028,0.06552 -0.67717,0.07993c-0.12658,0.00804 -0.25353,0.00714 -0.38059,0.00281c-0.13595,-0.00014 -0.27233,-0.00939 -0.40864,-0.01896c-0.18809,-0.00793 -0.37586,-0.01044 -0.56252,0.01035c-0.26874,0.02993 -0.51461,0.17607 -0.77744,0.23585c-0.05429,0.03021 -0.10874,0.05967 -0.16399,0.0861c-0.35731,0.17095 -0.69476,0.38566 -1.06393,0.52922c-0.7963,0.30966 -1.64292,0.47538 -2.44397,0.7725c-0.34233,0.12698 -0.65359,0.35079 -1.01248,0.41796c-1.20438,0.22541 -2.51453,-0.16975 -3.72337,0.04228c-0.4612,0.08089 -0.88345,0.31119 -1.33003,0.45196c-0.2652,0.08359 -0.555,0.09792 -0.80443,0.22083c-0.34985,0.17239 -0.65348,0.42639 -0.97038,0.65374c-0.80518,0.57764 -1.56415,1.21712 -2.34776,1.82371c-0.56683,0.43878 -1.18619,0.7964 -1.69261,1.31654c-0.19657,0.20189 -0.30841,0.47169 -0.46261,0.70754c-0.14373,0.1665 -0.36056,0.2912 -0.43118,0.49951c-0.13988,0.4126 -0.07364,0.87176 -0.17719,1.29495c-0.11905,0.48655 -0.36519,0.93569 -0.48748,1.42144c-0.0514,0.20417 -0.41072,2.63279 -0.42676,2.83612c-0.03401,0.43105 -0.08217,0.8702 -0.0135,1.2971c0.04459,0.27725 0.23889,0.50854 0.34569,0.76825c0.11029,0.2682 0.20355,0.54309 0.30526,0.81466c0.35075,0.93647 0.70135,1.873 1.052,2.8095c0.20855,0.55698 0.8103,2.19485 1.06165,2.74611c0.51475,1.12893 1.16734,2.2058 1.72279,3.31667c0.77587,1.55168 1.49594,3.19564 2.44806,4.65273c0.48379,0.74037 1.0896,1.39341 1.63356,2.09077c0.70916,0.94551 1.35717,1.9638 2.22585,2.77337c0.29521,0.27512 0.55986,0.59461 0.90427,0.80491c0.53463,0.32644 1.35506,0.46969 1.94491,0.71525c0.25946,0.10802 0.49122,0.27732 0.75352,0.37825c0.28094,0.1081 0.58547,0.14461 0.86889,0.24601c0.43754,0.15653 0.84239,0.40461 1.29078,0.52663c0.47993,0.13061 0.99315,0.10247 1.47494,0.22603c1.29768,0.33282 2.46462,1.06612 3.76239,1.4203c1.39644,0.38111 2.82454,0.55458 4.26842,0.60493c0.60509,0.0211 1.21649,0.08619 1.81636,0.00411c0.39006,-0.05337 0.76196,-0.21021 1.15296,-0.25621c0.33928,-0.03992 0.68551,0.03936 1.02485,0c0.36532,-0.04238 0.71737,-0.16247 1.07605,-0.2437c0.93175,-0.19568 1.84738,-0.46595 2.75543,-0.75213c1.16024,-0.36565 2.37933,-0.61851 3.49425,-1.11739c0.35452,-0.15863 0.64775,-0.44317 1.01252,-0.57657c0.81825,-0.29923 1.71743,-0.30788 2.55791,-0.53739c0.92913,-0.25373 1.84211,-0.57327 2.73019,-0.94607c0.43727,-0.18356 0.83887,-0.44422 1.27227,-0.63676c0.34013,-0.15111 0.69929,-0.25541 1.04518,-0.39283c0.27563,-0.10951 0.55161,-0.21942 0.81898,-0.34779c0.17969,-0.08628 0.41042,-0.1287 0.52009,-0.29516c0.14495,-0.22001 0.07288,-0.5292 0.18126,-0.76936c0.12887,-0.28558 0.37811,-0.50373 0.51943,-0.78335c0.10701,-0.21174 0.14343,-0.4523 0.21876,-0.67727c0.12511,-0.37365 0.30986,-0.73123 0.38255,-1.1185c0.08927,-0.47561 0.03513,-0.9687 0.09922,-1.44835c0.06605,-0.49433 0.22603,-0.97316 0.29042,-1.46771c0.0614,-0.47164 0.0574,-0.9495 0.0861,-1.42425c-0.00032,-1.34638 -0.00208,-2.69277 -0.00035,-4.03915c0.00046,-0.36187 0.03957,-0.72558 0.00303,-1.08561c-0.0482,-0.47499 -0.20037,-0.93502 -0.25621,-1.40917c-0.0294,-0.24966 0.03448,-0.50495 0.00145,-0.75416c-0.04849,-0.36588 -0.16759,-0.71892 -0.24452,-1.0799c-0.0406,-0.19053 -0.49947,-2.50998 -0.5008,-2.51476c-0.26342,-0.94057 -0.65672,-1.83997 -1.00333,-2.75316c-0.15471,-0.40761 -0.2882,-0.82552 -0.48362,-1.21525c-0.21856,-0.43589 -0.51519,-0.82842 -0.75421,-1.25343c-0.23183,-0.41223 -0.36144,-0.9006 -0.74613,-1.21726c-0.83776,-0.6896 -1.9226,-1.20055 -2.89304,-1.67054c-1.14149,-0.55283 -2.30382,-1.06677 -3.45466,-1.59979c-1.35229,-0.68254 -2.71553,-1.36676 -4.02829,-2.12377c-0.42178,-0.24322 -0.80885,-0.54667 -1.24284,-0.76737c-0.43518,-0.22131 -0.91563,-0.3429 -1.35579,-0.55413c-0.48676,-0.23359 -0.97151,-0.47841 -1.42054,-0.77821c-0.31769,-0.21211 -0.54861,-0.53836 -0.86713,-0.74922c-0.21927,-0.14515 -0.47445,-0.2331 -0.72708,-0.30612c-0.83868,-0.2424 -1.71656,-0.39746 -2.59476,-0.43006l-0.01011,0.0237l0.14609,0.55933c-0.12037,-0.0205 -0.24129,-0.03765 -0.36261,-0.05194l-0.02652,0.06214c0,0 -0.19637,0 -0.38814,-0.10048zM281.19968,28.33003c0.27624,-0.04173 0.55211,-0.08749 0.8304,-0.10869c0.81798,-0.06232 1.64612,0.03384 2.46011,-0.06807c0.49331,-0.06176 0.97195,-0.21839 1.46582,-0.27547c1.52428,-0.1762 3.13578,-0.01996 4.60558,0.43438c0.37018,0.11443 0.73822,0.25656 1.06642,0.46252c0.34339,0.2155 0.59051,0.56101 0.92636,0.78806c0.38116,0.25768 0.79712,0.46188 1.21315,0.65835c0.45327,0.21405 0.9443,0.344 1.391,0.57145c0.45726,0.23282 0.86751,0.54881 1.31214,0.80492c1.28188,0.73838 2.61238,1.40668 3.93248,2.07307c1.50317,0.69595 3.04308,1.34479 4.50552,2.12549c0.58761,0.31369 1.75797,1.00555 2.20265,1.3895c0.62759,0.54187 0.6645,0.92057 1.04736,1.60109c0.24927,0.44306 0.5562,0.85377 0.78307,1.3087c0.21593,0.433 0.36846,0.89492 0.54123,1.34688c0.01983,0.05188 1.03911,2.85758 1.04637,2.88353c0.02509,0.08957 0.45765,2.29305 0.52405,2.60951c0.0859,0.4094 0.21232,0.81141 0.26791,1.22602c0.03469,0.25873 -0.02902,0.52387 0.00145,0.78312c0.05573,0.47416 0.20937,0.93405 0.25621,1.40917c0.03991,0.40481 0.00254,0.81354 0.00303,1.22031c0.00165,1.3617 -0.00004,2.72342 -0.00035,4.08512c-0.03257,0.52337 -0.03125,1.04996 -0.09771,1.57012c-0.06353,0.49723 -0.22451,0.97853 -0.29142,1.47532c-0.06888,0.51147 -0.01789,1.03715 -0.11522,1.54398c-0.08607,0.44823 -0.2857,0.86699 -0.43086,1.29971c-0.09635,0.28719 -0.15925,0.58854 -0.29366,0.86001c-0.13425,0.27114 -0.37662,0.48016 -0.50543,0.75393c-0.15275,0.32464 -0.11249,0.7397 -0.33117,1.02414c-0.67553,0.87867 -2.05201,1.10654 -2.99623,1.52635c-0.43916,0.19526 -0.84653,0.45872 -1.28986,0.6443c-0.04296,0.01798 -2.9027,1.00649 -2.93972,1.01659c-1.07995,0.29481 -1.23778,0.0554 -2.38174,0.48044c-0.33703,0.12522 -0.60385,0.39623 -0.93236,0.54235c-1.17949,0.52461 -2.45371,0.80271 -3.67971,1.18853c-0.94953,0.29882 -1.90742,0.57891 -2.88126,0.78515c-0.40995,0.08958 -0.81319,0.21907 -1.22986,0.26873c-0.33922,0.04043 -0.68557,-0.03992 -1.02485,0c-0.391,0.046 -0.76256,0.20541 -1.15296,0.25621c-0.66997,0.08718 -1.35166,0.02823 -2.02684,0.00411c-1.5644,-0.05588 -3.10991,-0.24563 -4.62288,-0.65887c-1.14445,-0.31259 -1.52298,-0.54131 -2.65262,-0.99581c-0.36156,-0.14547 -0.71339,-0.32439 -1.09134,-0.4195c-0.48742,-0.12266 -1.00534,-0.09764 -1.49017,-0.23014c-0.47844,-0.13075 -0.91354,-0.3881 -1.38079,-0.55448c-0.30216,-0.10759 -0.62523,-0.15132 -0.9246,-0.26642c-0.27243,-0.10474 -0.51438,-0.27805 -0.78376,-0.39039c-0.87988,-0.36693 -1.17241,-0.22145 -2.1545,-0.82203c-0.43027,-0.26313 -0.77351,-0.64794 -1.14544,-0.98858c-0.93885,-0.85988 -1.63289,-1.94455 -2.39249,-2.9574c-0.56413,-0.72315 -1.18847,-1.40334 -1.6907,-2.17077c-0.98738,-1.50877 -1.73732,-3.20554 -2.54114,-4.81324c-0.56238,-1.1248 -1.22186,-2.2156 -1.74304,-3.35879c-0.27961,-0.61331 -0.86547,-2.21045 -1.10452,-2.84882c-0.44798,-1.19634 -0.87434,-2.40378 -1.34462,-3.59157c-0.13609,-0.34372 -0.36455,-0.6602 -0.42295,-1.02524c-0.1672,-1.04511 0.04548,-2.21965 0.20097,-3.24819c0.07831,-0.51803 0.12689,-1.04278 0.25363,-1.55114c0.12074,-0.48427 0.36395,-0.93227 0.48617,-1.41617c0.12741,-0.50446 0.08055,-1.05076 0.26022,-1.53905c0.11298,-0.30703 0.39578,-0.52104 0.59367,-0.78156c0.18741,-0.27658 0.32915,-0.59039 0.56224,-0.82974c0.72425,-0.74372 1.17259,-0.94308 1.89437,-1.50181c1.14717,-0.88802 2.28647,-1.99975 3.59962,-2.64682c0.30832,-0.15193 0.6612,-0.18842 0.98907,-0.29159c0.50725,-0.15963 0.99203,-0.40606 1.51602,-0.49673c0.24959,-0.04319 2.20269,-0.0519 2.67569,-0.0492c0.3345,0.00191 0.67466,0.0771 1.00341,0.01532c0.28047,-0.05271 0.51419,-0.24945 0.78101,-0.35068c0.59723,-0.22659 1.22289,-0.37165 1.83304,-0.56091c-0.00688,-0.04554 -0.01058,-0.09453 -0.01058,-0.14722c0,-0.75 0.75,-0.75 0.75,-0.75c0.39763,0.00221 0.79756,0.04727 1.19349,0.01768c0.25741,-0.12355 0.50341,-0.22323 0.70542,-0.25858c0.33498,-0.05862 0.67696,-0.0351 1.01871,-0.01992c0.05472,0.00203 0.10945,0.00424 0.16418,0.00628c0.11556,0.00344 0.23095,0.00427 0.34591,-0.00102c0.29683,-0.01367 0.59242,-0.04636 0.88823,-0.07582z" fill="#000000" stroke="none" stroke-width="0.5" stroke-linecap="butt"/><path d="M287.26484,29.8554l0.02657,-0.06214c0.12132,0.01429 0.24317,0.03153 0.36354,0.05203l-0.15648,-0.45987l0.02,-0.12321c0.8782,0.03259 1.76251,0.18872 2.60119,0.43112c0.25262,0.07301 0.50968,0.16144 0.72896,0.3066c0.31852,0.21086 0.55197,0.53788 0.86966,0.74999c0.44902,0.2998 0.93763,0.54608 1.42439,0.77967c0.44016,0.21123 0.92402,0.33443 1.3592,0.55574c0.43399,0.2207 0.82432,0.52601 1.2461,0.76923c1.31275,0.75701 2.68488,1.44823 4.03716,2.13077c1.15084,0.53302 2.31852,1.05321 3.46001,1.60604c0.97044,0.46999 2.05874,0.98648 2.8965,1.67608c0.38469,0.31666 0.51566,0.80774 0.74749,1.21997c0.23902,0.42501 0.53685,0.82036 0.75541,1.25625c0.19542,0.38973 0.32984,0.81024 0.48455,1.21785c0.34661,0.91319 0.74146,1.8185 1.00488,2.75907c0.00134,0.00477 0.46095,2.32949 0.50155,2.52002c0.07693,0.36097 0.19618,0.71627 0.24467,1.08215c0.03303,0.24921 -0.03081,0.50604 -0.0014,0.7557c0.05584,0.47415 0.20796,0.93706 0.25617,1.41204c0.03654,0.36002 -0.00271,0.72593 -0.00318,1.0878c-0.00172,1.34637 -0.00131,2.70062 -0.00099,4.04699c-0.0287,0.47475 -0.02544,0.95524 -0.08684,1.42688c-0.06439,0.49455 -0.2253,0.9761 -0.29136,1.47043c-0.06409,0.47965 -0.01096,0.97519 -0.10022,1.4508c-0.07269,0.38728 -0.25837,0.74688 -0.38349,1.12052c-0.07533,0.22496 -0.11235,0.46671 -0.21936,0.67845c-0.14132,0.27962 -0.39141,0.49933 -0.52028,0.7849c-0.10837,0.24015 -0.03702,0.55056 -0.18198,0.77058c-0.10967,0.16646 -0.34092,0.20972 -0.52061,0.296c-0.26737,0.12838 -0.54413,0.23947 -0.81976,0.34897c-0.34589,0.13742 -0.70609,0.24319 -1.04622,0.3943c-0.43339,0.19255 -0.83656,0.45523 -1.27384,0.63879c-0.88808,0.3728 -1.80461,0.69626 -2.73374,0.94998c-0.84048,0.22952 -1.74338,0.2415 -2.56163,0.54073c-0.36476,0.13339 -0.66009,0.41954 -1.01461,0.57817c-1.11493,0.49888 -2.34114,0.75606 -3.50138,1.12171c-0.90805,0.28618 -1.82997,0.55906 -2.76172,0.75474c-0.35868,0.08123 -0.71329,0.20211 -1.07861,0.24449c-0.33934,0.03936 -0.68794,-0.03932 -1.02721,0.0006c-0.391,0.046 -0.76575,0.2034 -1.15581,0.25677c-0.59986,0.08208 -1.2157,0.01752 -1.82079,-0.00358c-1.44388,-0.05035 -2.88277,-0.22418 -4.27921,-0.60529c-1.29777,-0.35418 -2.47471,-1.08997 -3.77239,-1.42279c-0.48179,-0.12357 -0.99849,-0.09684 -1.47843,-0.22745c-0.44839,-0.12202 -0.85644,-0.37167 -1.29397,-0.52821c-0.28342,-0.1014 -0.58989,-0.13901 -0.87083,-0.24711c-0.2623,-0.10092 -0.49586,-0.27136 -0.75531,-0.37937c-0.58986,-0.24557 -1.41428,-0.39173 -1.94891,-0.71817c-0.34441,-0.21029 -0.6113,-0.53171 -0.90652,-0.80684c-0.86868,-0.80957 -1.52261,-1.83429 -2.23177,-2.7798c-0.54396,-0.69736 -1.15341,-1.35581 -1.6372,-2.09618c-0.95212,-1.45709 -1.67712,-3.11277 -2.45299,-4.66445c-0.55546,-1.11087 -1.20961,-2.19597 -1.72436,-3.3249c-0.25135,-0.55126 -0.85336,-2.19535 -1.06191,-2.75234c-0.35065,-0.93651 -0.7008,-1.8788 -1.05154,-2.81527c-0.10171,-0.27157 -0.19473,-0.548 -0.30502,-0.8162c-0.1068,-0.25971 -0.30085,-0.49237 -0.34544,-0.76962c-0.06866,-0.4269 -0.01995,-0.86851 0.01406,-1.29956c0.01604,-0.20334 0.37702,-2.63726 0.42842,-2.84143c0.12229,-0.48574 0.36952,-0.93759 0.48858,-1.42413c0.10355,-0.42319 0.03832,-0.88451 0.17821,-1.29712c0.07062,-0.20831 0.28802,-0.3341 0.43174,-0.5006c0.1542,-0.23585 0.26682,-0.50706 0.4634,-0.70895c0.50642,-0.52014 1.12787,-0.88109 1.6947,-1.31987c0.78361,-0.60659 1.5461,-1.25065 2.35129,-1.82829c0.3169,-0.22734 0.6221,-0.48307 0.97195,-0.65546c0.24942,-0.12291 0.54028,-0.13831 0.80548,-0.2219c0.44658,-0.14076 0.87082,-0.37292 1.33202,-0.45382c1.20884,-0.21203 2.52432,0.17902 3.7287,-0.04639c0.35889,-0.06717 0.67233,-0.29237 1.01466,-0.41934c0.80106,-0.29713 1.65313,-0.46567 2.44942,-0.77532c0.36916,-0.14356 0.70931,-0.35937 1.06662,-0.53032c0.05525,-0.02643 0.11012,-0.05605 0.16441,-0.08626c0.26283,-0.05978 0.51058,-0.20656 0.77931,-0.23649c0.18665,-0.02079 0.3757,-0.01867 0.56379,-0.01074c0.13631,0.00956 0.27361,0.01856 0.40956,0.0187c0.12706,0.00433 0.2549,0.005 0.38148,-0.00304c0.22689,-0.0144 0.45378,-0.04641 0.67881,-0.08031c0.18218,-0.01819 0.36582,-0.03496 0.54859,-0.04416c1.33738,-0.06732 2.70631,-0.00367 4.04504,-0.00367c0.32213,-0.00079 0.64804,0.00552 0.96995,0.02774c0.19178,0.10048 0.38915,0.10056 0.38915,0.10056z" fill="#ffffff" stroke="none" stroke-width="0.5" stroke-linecap="butt"/><path d="M304.15051,51.33128c0,-1.65685 1.34315,-3 3,-3c1.65685,0 3,1.34315 3,3c0,1.65685 -1.34315,3 -3,3c-1.65685,0 -3,-1.34315 -3,-3z" fill="#000000" stroke="none" stroke-width="0.5" stroke-linecap="butt"/><path d="M367.92187,44.29601c0,-1.65685 1.34315,-3 3,-3c1.65685,0 3,1.34315 3,3c0,1.65685 -1.34315,3 -3,3c-1.65685,0 -3,-1.34315 -3,-3z" fill="#000000" stroke="none" stroke-width="0.5" stroke-linecap="butt"/><path d="M234.57684,-4.26769c0.37139,-0.92848 1.29987,-0.55709 1.29987,-0.55709l0.6882,0.27673c0.56518,0.26106 1.13036,0.52211 1.69553,0.78317c1.5195,0.82793 3.03907,1.65422 4.56737,2.46586c1.16074,0.61643 2.28734,1.30172 3.48144,1.85075c1.1941,0.54903 2.44769,0.95813 3.67123,1.43795c1.86495,0.73136 3.73995,1.44219 5.59643,2.19476c6.81013,2.76066 13.56795,5.66766 20.32122,8.56399c5.87436,2.98063 11.74719,5.9643 17.62066,8.94669c2.37906,1.20802 4.76359,2.40592 7.13741,3.62419c0.30203,0.155 3.2485,1.69012 3.30173,1.72372c0.36419,0.22992 0.66227,0.55081 0.99222,0.82763c0.51073,0.42848 1.01988,0.85885 1.52982,1.28827c0,0 0.76491,0.64414 0.12078,1.40905c-0.64414,0.76491 -1.40905,0.12078 -1.40905,0.12078c-0.50994,-0.42942 -1.02073,-0.85784 -1.52982,-1.28827c-0.27291,-0.23074 -0.51323,-0.50566 -0.81618,-0.69524c-0.98757,-0.618 -2.06713,-1.07513 -3.1036,-1.60705c-2.37095,-1.21679 -4.75262,-2.41323 -7.1288,-3.61979c-5.85417,-2.97258 -11.70903,-5.94382 -17.56227,-8.91822c-6.7229,-2.87911 -13.4475,-5.77461 -20.22547,-8.52223c-1.84943,-0.74971 -3.71737,-1.45773 -5.57524,-2.18632c-0.06926,-0.02716 -3.74211,-1.46693 -3.77654,-1.48277c-0.62303,-0.28646 -1.21189,-0.64206 -1.81765,-0.96345c-2.10447,-1.11654 -4.2032,-2.24165 -6.29408,-3.38343c-0.54508,-0.25137 -1.09016,-0.50274 -1.63524,-0.75411l-0.59287,-0.2357c0,0 -0.92848,-0.37139 -0.55709,-1.29987z" fill="#000000" stroke="none" stroke-width="0.5" stroke-linecap="butt"/><path d="M395.73856,-41.51208c0.08056,0.99675 -0.91619,1.07731 -0.91619,1.07731l-0.8529,0.06893c-10.02224,0.76781 -16.68509,9.69911 -23.59012,16.13252c-0.47592,0.44285 -0.97475,0.86231 -1.42777,1.32856c-1.37435,1.4145 -2.62575,2.98804 -3.92824,4.46931c-1.76089,2.00259 -3.52178,4.00519 -5.28267,6.00778c-3.08378,3.50707 -6.1113,7.07476 -9.25644,10.52677c-2.6964,2.95948 -5.50091,5.82779 -8.24919,8.73927c-5.49082,5.81688 -10.9674,11.64688 -16.44188,17.47913c-1.39535,1.48653 -2.87006,2.83716 -4.37517,4.21128c-0.47416,0.4329 -0.98251,0.83094 -1.42342,1.29766c-0.69323,0.73381 -1.236,1.53208 -1.81541,2.34402c0,0 -0.58124,0.81373 -1.39497,0.2325c-0.81373,-0.58124 -0.2325,-1.39497 -0.2325,-1.39497c0.65021,-0.90947 1.1948,-1.71191 1.98803,-2.55393c0.47402,-0.50317 1.01887,-0.93457 1.52875,-1.40136c1.4658,-1.34191 2.90616,-2.65373 4.2662,-4.10371c5.4737,-5.83571 10.95379,-11.66516 16.44597,-17.48348c2.7402,-2.90292 5.53672,-5.76261 8.22518,-8.71339c3.13721,-3.4433 6.15689,-7.00223 9.2329,-10.50046c1.76089,-2.00259 3.52178,-4.00519 5.28267,-6.00778c1.3244,-1.50619 2.59832,-3.10409 3.99576,-4.54236c0.47612,-0.49003 0.99922,-0.9321 1.49884,-1.39816c3.41437,-3.18117 6.82875,-6.36234 10.24312,-9.54351c1.38515,-1.29054 2.93963,-3.24476 4.55683,-4.21576c2.63686,-1.58322 6.98241,-2.64898 9.99241,-2.90345l0.8529,-0.06893c0,0 0.99675,-0.08056 1.07731,0.91619z" fill="#000000" stroke="none" stroke-width="0.5" stroke-linecap="butt"/><path d="M276.88131,129.23868c-0.5,0 -0.5,-0.5 -0.5,-0.5c0,-1.58541 0,-3.40864 0,-4.99405c0,-6.30717 0,-12.61435 0,-18.92152c0,-6.68411 0,-13.36821 0,-20.05232c0,-1.51559 -0.0022,-3.03121 0,-4.5468c0.00052,-0.35567 0.0029,-1.64884 0.04478,-1.74337c0.38939,-0.87893 1.02652,-0.99006 1.78444,-1.27293c0.62458,-0.23311 1.25195,-0.45869 1.87793,-0.68802c1.25441,-0.45955 2.52709,-0.86184 3.78653,-1.30659c1.78665,-0.63093 3.55311,-1.32358 5.32594,-1.99197c1.52897,-0.57613 3.09382,-0.9533 4.64847,-1.43838c0.52917,-0.16511 1.02547,-0.42411 1.55228,-0.59659c1.45673,-0.47694 3.0385,-0.70553 4.53891,-1.0056c1.57604,-0.3152 3.16405,-0.5396 4.74216,-0.83366c1.16388,-0.21687 2.31164,-0.49766 3.47876,-0.70408c1.26265,-0.11393 2.42673,-0.49843 3.67265,-0.70234c0.32178,-0.05267 0.65358,-0.03263 0.97352,-0.0955c0.2573,-0.05056 0.4931,-0.18236 0.74826,-0.24283c0.67313,-0.15953 1.35543,-0.2919 2.04383,-0.36023c0.27735,-0.02753 0.55817,0.01998 0.83614,-0.00033c0.90091,-0.06583 1.76799,-0.32061 2.67967,-0.358c0.01318,-0.00054 1.99394,-0.00041 2.02018,-0.00041c2.24892,0 4.50524,0.05502 6.71304,0.51815c0.91714,0.19342 1.82248,0.28481 2.74497,0.44052c1.24692,0.21047 2.45311,0.59685 3.68283,0.8793c1.82849,0.41998 3.68763,0.70829 5.51207,1.15055c1.14668,0.27796 2.2489,0.7422 3.40262,1.007c0.86559,0.19867 1.77104,0.28401 2.62411,0.54139c0.3313,0.09996 0.64576,0.24898 0.96865,0.37347c1.24435,0.48203 2.52549,0.83541 3.77168,1.31018c0.34451,0.13125 0.7115,0.21596 1.03155,0.39896c0.19418,0.11102 0.32309,0.30943 0.48226,0.46658c0.23735,0.23434 0.47185,0.47155 0.70726,0.70783c0.71648,0.71914 1.32602,1.50455 2.01174,2.24926c0.85766,0.93143 1.82958,1.75856 2.62604,2.74871c1.4349,1.78383 2.51753,3.81535 3.53701,5.85245c0.78562,0.97631 1.5747,1.94204 2.21925,3.02128c0.47732,0.79922 0.86993,1.64601 1.34937,2.44562c0.68887,1.1489 1.48145,2.31216 2.00422,3.5498c0.33816,0.80059 0.49885,1.73742 0.71664,2.57726c0.59214,2.28341 0.97369,4.5493 1.19752,6.89821c0.12604,1.32344 0.23404,2.65014 0.37815,3.97172c0.1269,1.16368 0.39851,2.32424 0.47755,3.49184c0.09005,1.33021 0.0008,2.7046 -0.01031,4.0379c-0.01332,1.59801 0.03526,3.23616 -0.52259,4.76559c-0.12071,0.33095 -0.31315,0.63114 -0.46973,0.9467c0,0 -0.22361,0.44721 -0.67082,0.22361c-0.44721,-0.22361 -0.22361,-0.67082 -0.22361,-0.67082c0.14157,-0.28072 0.31697,-0.54679 0.4247,-0.84215c0.51685,-1.41704 0.44975,-2.95215 0.46208,-4.43126c0.0109,-1.30793 0.10089,-2.65717 0.01256,-3.96202c-0.07794,-1.1513 -0.3478,-2.29645 -0.47316,-3.44405c-0.14511,-1.32838 -0.25363,-2.66196 -0.38032,-3.99224c-0.21858,-2.29639 -0.59125,-4.50982 -1.17001,-6.74202c-0.20672,-0.7973 -0.35329,-1.69432 -0.67578,-2.45351c-0.5048,-1.18837 -1.27293,-2.30609 -1.93479,-3.41038c-0.47957,-0.80014 -0.87271,-1.64749 -1.35022,-2.44704c-0.63859,-1.06927 -1.42909,-2.02227 -2.20217,-2.99371c-1.01534,-2.00169 -2.06181,-4.01025 -3.4767,-5.76843c-0.78157,-0.9712 -1.73898,-1.78175 -2.58051,-2.69566c-0.67704,-0.73527 -1.27689,-1.51118 -1.98438,-2.22069c-0.23522,-0.23589 -0.47276,-0.46948 -0.70638,-0.70695c-0.10734,-0.10911 -0.18228,-0.25903 -0.31642,-0.33274c-0.26121,-0.14353 -0.56144,-0.20029 -0.84111,-0.30329c-1.25437,-0.46196 -2.53402,-0.83118 -3.78161,-1.31396c-1.44037,-0.56018 -2.95676,-0.73361 -4.44114,-1.14681c-0.81529,-0.22695 -1.62194,-0.54149 -2.44312,-0.73932c-1.81631,-0.43758 -3.66611,-0.72632 -5.48596,-1.14418c-1.21231,-0.27836 -2.40143,-0.66161 -3.63068,-0.86878c-0.93344,-0.15732 -1.85083,-0.25199 -2.77931,-0.44712c-2.13797,-0.45181 -4.32892,-0.4967 -6.50703,-0.4967c-0.65994,0 -1.3204,-0.0266 -1.97982,-0.00041c-0.89739,0.03565 -1.75007,0.28823 -2.63781,0.35543c-0.27539,0.02085 -0.55367,-0.02718 -0.82855,-0.00033c-0.6385,0.06238 -1.27103,0.18701 -1.89516,0.33542c-0.26643,0.06335 -0.51372,0.1977 -0.78243,0.25059c-0.33419,0.06578 -0.68039,0.04866 -1.01655,0.1035c-0.90636,0.14788 -1.785,0.47783 -2.69327,0.61429c-0.33365,0.05013 -0.67198,0.06153 -1.00797,0.0923c-1.14997,0.20446 -2.28122,0.48227 -3.42826,0.696c-1.57386,0.29327 -3.15746,0.5168 -4.72923,0.83116c-0.97609,0.19522 -1.94801,0.3894 -2.91653,0.61959c-0.50749,0.12062 -1.02725,0.19769 -1.52275,0.3607c-0.52225,0.17181 -1.01456,0.42834 -1.53927,0.59247c-1.53952,0.48157 -3.09027,0.85175 -4.60445,1.42295c-1.77941,0.67087 -3.55245,1.36593 -5.34574,1.9992c-1.25575,0.44345 -2.52479,0.84437 -3.77551,1.30262c-0.62597,0.22935 -1.25042,0.46293 -1.87793,0.68802c-0.37116,0.13313 -1.03125,0.25174 -1.20535,0.71853c-0.09441,0.25313 0.02799,0.53966 0.03437,0.80975c0.00433,0.18365 -0.00198,0.3674 -0.00225,0.5511c-0.0022,1.51491 0,3.02985 0,4.54476c0,6.68411 0,13.36821 0,20.05232c0,6.30717 0,12.61435 0,18.92152c0,1.58541 0,3.17083 0,4.75624v0.23781c0,0 0,0.5 -0.5,0.5z" fill="#000000" stroke="none" stroke-width="0.5" stroke-linecap="butt"/><path d="M51.48472,5.15864c0,-0.27614 0.22386,-0.5 0.5,-0.5c0.27614,0 0.5,0.22386 0.5,0.5c0,0.27614 -0.22386,0.5 -0.5,0.5c-0.27614,0 -0.5,-0.22386 -0.5,-0.5z" fill="#000000" stroke="none" stroke-width="0.5" stroke-linecap="butt"/></g><path d="M257.11275,230.7193l-13.55814,-47.47282l28.3735,-27.0187l31.88288,21.03367l8.5364,61.88416l200.87012,-32.81778l64.39639,71.83048l-57.14845,40.15635l-201.07494,-44.10364l24.5734,58.11482l-23.57567,24.9684l-38.26392,-17.18543l-9.85082,-55.40003l-100.56681,28.18737l-58.33918,-56.30126l43.3596,-47.86088z" fill="#00ffcb" stroke="#000000" stroke-width="1" stroke-linecap="round"/></g></g></svg>