<svg version="1.1" xmlns="http://www.w3.org/2000/svg" xmlns:xlink="http://www.w3.org/1999/xlink" width="489.33902" height="393.3902" viewBox="0,0,489.33902,393.3902"><g transform="translate(-83.64604,12.27008)"><g data-paper-data="{&quot;isPaintingLayer&quot;:true}" fill-rule="nonzero" stroke-linecap="butt" stroke-linejoin="miter" stroke-miterlimit="10" stroke-dasharray="" stroke-dashoffset="0" style="mix-blend-mode: normal"><path d="M312.77938,13.71233c-2.7223,0.73837 -5.83614,1.62577 -7.52008,3.8719c-0.61932,0.82609 -0.67868,1.95233 -1.09104,2.89887c-0.62339,1.43092 -2.35005,4.58574 -2.97547,5.97857c-1.84496,4.10875 -2.68266,10.25925 0.01022,14.10646c3.77418,4.52222 7.90001,8.39304 14.20738,5.91846c2.09663,-0.82257 2.89639,-1.09997 3.89276,-3.01954c3.27519,-6.30988 1.63773,-12.42799 2.50911,-19.08859c0.59053,-4.51384 3.39412,-8.07977 5.80012,-11.68124c0.5293,-0.51422 1.00324,-1.09399 1.56066,-1.5749c-0.22863,0.04679 -0.45431,0.0754 -0.67758,0.08952c-0.62708,1.36075 -2.11795,0.86379 -2.11795,0.86379c-2.07106,-0.71836 -4.24272,-0.66314 -6.39125,-0.28253c-1.56434,0.7964 -3.13186,1.78767 -4.71052,2.3173l-1.23165,0.08981c0,0 -0.74682,0 -1.26472,-0.48787zM318.95923,8.47298c0.961,-0.48591 1.92142,-0.90835 2.88114,-1.13015c1.0625,-0.24555 5.6452,0.51005 6.57112,0.64874c1.5633,0.23416 3.65103,-0.4717 4.68687,0.72235c1.9363,2.23203 -1.75912,5.15661 -2.7793,6.20227c-2.05608,3.09041 -4.57135,6.1316 -5.052,10.02289c-1.0738,8.69328 1.88665,20.6561 -8.57156,24.80302c-1.93138,0.76584 -4.11687,1.08762 -6.17803,0.82613c-2.18084,-0.27668 -4.42595,-0.86109 -6.26135,-2.07103c-2.57458,-1.69722 -3.86543,-3.44113 -5.85761,-5.83509c-4.22146,-6.54409 -2.04671,-14.30866 1.19197,-20.81763c1.04134,-2.09285 1.46843,-4.53423 2.89081,-6.38929c2.65985,-3.46896 7.26088,-4.45233 11.13021,-5.60899c1.76396,-0.5273 3.55022,-1.03617 5.34772,-1.37324z" fill="#000000" stroke="none" stroke-width="0.5"/><path d="M312.77439,13.66259c0.5179,0.48787 1.26875,0.48763 1.26875,0.48763l1.23573,-0.08972c1.57866,-0.52963 3.15851,-1.51855 4.72285,-2.31495c2.14853,-0.38061 4.33351,-0.42917 6.40457,0.28919c0,0 1.49303,0.49857 2.12011,-0.86218c0.22327,-0.01412 0.44974,-0.04209 0.67837,-0.08888c-0.55742,0.48091 -1.03174,1.06037 -1.56104,1.57459c-2.406,3.60147 -5.1989,7.1793 -5.78943,11.69314c-0.87138,6.6606 0.74048,12.85297 -2.53471,19.16285c-0.99637,1.91957 -1.80946,2.19966 -3.90609,3.02223c-6.30737,2.47458 -10.4741,-1.41339 -14.24828,-5.93561c-2.69288,-3.84721 -1.86635,-10.04063 -0.02139,-14.14938c0.62542,-1.39283 2.36307,-4.57002 2.98646,-6.00094c0.41236,-0.94654 0.4789,-2.07964 1.09822,-2.90573c1.68394,-2.24613 4.82359,-3.14388 7.54589,-3.88225z" data-paper-data="{&quot;noHover&quot;:false,&quot;origItem&quot;:[&quot;Path&quot;,{&quot;applyMatrix&quot;:true,&quot;segments&quot;:[[[312.77938,13.71233],[0,0],[-2.7223,0.73837]],[[305.2593,17.58423],[1.68394,-2.24613],[-0.61932,0.82609]],[[304.16826,20.4831],[0.41236,-0.94654],[-0.62339,1.43092]],[[301.19279,26.46167],[0.62542,-1.39283],[-1.84496,4.10875]],[[301.20301,40.56813],[-2.69288,-3.84721],[3.77418,4.52222]],[[315.41039,46.48659],[-6.30737,2.47458],[2.09663,-0.82257]],[[319.30315,43.46705],[-0.99637,1.91957],[3.27519,-6.30988]],[[321.81226,24.37846],[-0.87138,6.6606],[0.59053,-4.51384]],[[327.61238,12.69722],[-2.406,3.60147],[0.5293,-0.51422]],[[329.17304,11.12232],[-0.55742,0.48091],[-0.22863,0.04679]],[[328.49546,11.21184],[0.22327,-0.01412],[-0.62708,1.36075]],[[326.37751,12.07563],[0,0],[-2.07106,-0.71836]],[[319.98626,11.7931],[2.14853,-0.38061],[-1.56434,0.7964]],[[315.27574,14.1104],[1.57866,-0.52963],[0,0]],[314.04409,14.20021],[[312.77937,13.71234],[0.5179,0.48787],[0,0]]],&quot;closed&quot;:true,&quot;fillColor&quot;:[0,0,0],&quot;strokeWidth&quot;:0.5}]}" fill="#a8dbff" stroke="none" stroke-width="0.25"/><path d="M285.71289,35.55575c-0.53429,-3.20578 2.67149,-3.74007 2.67149,-3.74007l2.41235,-0.39196c8.74082,-2.91774 18.08187,-3.05254 26.78384,-6.12893c6.54153,-2.31262 12.53332,-5.9153 18.46004,-9.47271c0,0 2.78686,-1.67209 4.45896,1.11477c1.67209,2.78686 -1.11477,4.45896 -1.11477,4.45896c-6.32025,3.79063 -12.70969,7.58555 -19.68809,10.04488c-8.89747,3.13564 -18.41172,3.32174 -27.33314,6.29137l-2.9106,0.49519c0,0 -3.20578,0.53429 -3.74007,-2.67149z" fill="#00ff1c" stroke="none" stroke-width="0.5"/><path d="M83.64604,381.12012v-393.39019h489.33902v393.3902z" fill="none" stroke="#000000" stroke-width="0"/></g></g></svg>