<svg version="1.1" xmlns="http://www.w3.org/2000/svg" xmlns:xlink="http://www.w3.org/1999/xlink" width="489.33902" height="393.3902" viewBox="0,0,489.33902,393.3902"><g transform="translate(-83.64604,12.27008)"><g data-paper-data="{&quot;isPaintingLayer&quot;:true}" fill-rule="nonzero" stroke-linecap="butt" stroke-linejoin="miter" stroke-miterlimit="10" stroke-dasharray="" stroke-dashoffset="0" style="mix-blend-mode: normal"><path d="M300.47905,377.74408c-1.75,0 -1.75,-1.75 -1.75,-1.75l0.01311,-3.17743c-0.39157,-1.54197 -0.65518,-3.06122 -0.84617,-4.58374c-2.71189,0.01961 -5.42613,0.01625 -8.14496,0.0112c-10.03514,1.43864 -20.49938,0.68269 -30.61958,0.68269c-13.16836,0 -26.19131,0.67828 -39.36457,0.67828c-3.09539,0 -6.29867,-0.2292 -9.38683,-0.00338c-4.76544,0.34847 -9.46315,1.77071 -14.21863,2.03302c-6.691,0.36907 -13.30404,-0.31306 -19.89611,-0.67564c-7.65538,-0.42106 -14.97371,2.15976 -22.63223,0.64675c-5.36905,-1.07382 -10.38768,-2.75547 -15.6841,-4.08857c-4.01701,-1.01107 -8.44751,-1.44837 -12.34903,-2.75472c-6.19316,-2.07366 -13.72653,-6.39951 -18.83435,-10.45956c-3.95021,-3.13991 -7.35816,-7.38904 -10.54892,-11.2637c-3.59739,-7.13027 -8.05351,-14.26349 -9.08014,-22.38163c-0.78586,-6.21424 1.99507,-13.54645 4.60537,-19.10771c0.95875,-2.04262 2.64908,-3.6735 3.68734,-5.67688c1.89887,-3.66399 3.73222,-7.06105 6.24943,-10.41916c3.90773,-5.86075 8.34317,-11.04427 14.94179,-14.14473c1.63026,-0.766 3.51179,-0.96352 5.07261,-1.86261c4.47462,-2.57755 8.9149,-6.35989 14.36493,-7.09117c1.82937,-0.24546 3.70692,0.22342 5.53727,-0.01463c4.17354,-0.5428 8.48325,-1.15893 12.61007,-1.98466c7.36915,-2.45633 15.12063,-2.15651 22.70749,-2.7672c0.33611,-0.02705 0.66923,-0.06242 0.99985,-0.10462l-0.00002,0.00001c4.23703,-1.70911 8.53975,-3.44624 12.88716,-4.58038c6.75345,-1.76182 13.94228,-2.53212 20.82251,-3.70023c2.88037,-0.48743 5.74646,-1.49675 8.65033,-1.78447c4.08188,-0.40444 8.32971,0.12181 12.43458,-0.00765c15.02844,-0.47394 30.68694,-1.50923 45.53875,-3.89905c3.47892,-0.57585 7.02849,-1.34 10.56263,-1.97321c0.80352,-1.90832 1.60041,-3.80929 2.31358,-5.78793c2.28442,-6.33792 4.68042,-12.84794 6.6289,-19.30295c0.5518,-1.82801 0.61886,-3.76992 1.01695,-5.63745c0.49627,-2.32813 1.30418,-3.02761 2.1036,-5.42507c0.57528,-1.72528 0.5455,-3.68615 1.51001,-5.30129c1.31573,-2.20327 4.0439,-3.69489 6.12772,-4.89607c1.32662,0.59707 2.80939,0.92725 3.97985,1.79121c1.70445,1.25811 2.42426,3.4749 3.63914,5.21043c1.83499,2.62141 4.10222,5.31687 5.56685,8.16992c1.51777,2.95657 3.32968,5.90601 4.78563,8.89326c0.26025,0.53397 0.10855,1.25492 0.48433,1.71497c0.46845,0.57349 1.36554,0.65001 1.8814,1.18126c0.4576,0.47125 0.46324,1.28266 0.94488,1.72932c0.55353,0.51332 4.14754,-1.94136 4.89456,-2.56085c4.62913,-3.83881 8.38783,-9.09255 12.65678,-13.35446c6.20315,-7.45166 13.11776,-14.34246 20.53037,-20.52086c1.31222,-1.09374 2.57476,-2.25062 3.94157,-3.27533c0.94784,-0.7106 1.97827,-2.28616 3.06106,-1.8056c1.45404,0.64534 2.42029,6.15476 2.62124,7.53962c1.15085,7.93109 1.48808,15.9329 2.05179,23.92814c0.00249,7.85229 0.00135,15.70459 0.00113,23.55688c6.41137,0.14724 12.82033,0.24741 19.18863,-0.14739c5.79614,-0.35933 11.43876,-0.68045 17.26098,-0.68045c5.83929,0 11.60249,-0.34992 17.38337,-0.57046c0.45262,-0.01727 6.18109,0.54258 6.89029,0.57203c15.28831,0.63478 30.40925,0.52109 45.628,2.05247c10.41889,2.08327 22.12417,5.13162 31.49842,10.25655c2.04909,1.12024 3.80762,2.72226 5.849,3.85649c4.87773,2.71016 10.95622,4.91031 15.1239,8.71056c0.8536,0.77834 1.27262,1.9479 2.08913,2.76508c2.5785,2.58061 5.16213,4.45847 7.45263,7.42679c6.75524,8.13057 9.7106,17.80234 12.00843,28.01767c1.26973,5.64475 2.2375,11.78673 1.37652,17.62059c-0.71053,4.81444 -4.3183,9.61469 -6.64511,13.80291c-2.67988,4.71209 -7.24026,8.9729 -11.79683,11.82252c-2.91973,1.82597 -5.32156,4.43843 -8.20536,6.31132c-5.17342,3.35989 -11.82286,6.23389 -17.70001,8.00559c-7.66057,2.30933 -15.80958,2.14768 -23.64008,3.4552c-15.28668,2.22616 -30.57837,0.9704 -45.93066,0.21865c-7.2239,-0.35373 -14.3424,0.13575 -21.53401,-0.77647c-5.63621,0.00391 -11.26052,-0.88176 -16.89322,-0.67596c-4.94531,0.18068 -9.84534,1.12913 -14.76719,1.3542c-9.10094,0.41619 -18.78423,-0.14603 -27.78932,1.30487c-3.00934,0.48487 -5.7194,1.44382 -8.77387,1.85635c-0.10425,0.79745 -0.27984,1.60465 -0.54587,2.42815c0,0 -0.55345,1.66018 -2.21363,1.10673c-1.66018,-0.55345 -1.10673,-2.21363 -1.10673,-2.21363c0.11175,-0.32215 0.20392,-0.64372 0.27863,-0.96486c-4.71698,0.32625 -9.36074,0.16645 -14.10952,0.55192c-8.11828,0.65898 -16.18726,2.04242 -24.31518,2.70375c-4.76669,0.38784 -9.52558,0.56157 -14.28882,0.63667c0.2608,1.42674 0.55699,2.82908 0.89345,4.19468l0.01311,3.60508c0,0 0,1.75 -1.75,1.75zM297.37612,361.86293c-0.26429,-4.35889 -1.22693,-8.54603 -1.35835,-12.92118c-0.14305,-4.762 -1.3446,-9.47152 -1.35826,-14.21238c0,-2.62282 -1.33743,-8.66312 2.89528,-9.3067c1.17242,-0.17827 2.1392,1.02474 3.21925,1.51448c1.85884,0.84287 3.7454,1.80334 5.19627,3.23886c4.19965,4.1552 8.66531,10.26007 14.24656,12.35481c2.0306,0.76212 2.51538,1.51415 4.39897,1.21445c1.35137,-0.21502 2.21301,-1.61015 3.32665,-2.40529c1.55353,-1.10922 3.23688,-2.1644 4.37098,-3.69986c1.99833,-2.70555 3.88426,-5.10522 5.40639,-8.11225c3.05228,-3.1072 7.57345,-8.85822 12.8309,-5.64024c0.86195,0.52758 0.26206,2.00738 0.48997,2.99194c0.64376,2.78106 1.65484,5.19539 2.13636,8.07047c1.05702,6.31123 2.19394,12.62217 3.38591,18.90944c0.43032,2.26983 0.93052,4.40642 1.11271,6.54264c2.82307,-0.43707 5.3345,-1.31232 8.16497,-1.76836c9.11609,-1.46878 18.91588,-0.93962 28.12858,-1.34267c4.94993,-0.21656 9.88408,-1.18138 14.85848,-1.35869c5.74915,-0.20493 11.48542,0.67657 17.23689,0.68045c7.17701,0.88525 14.27842,0.42088 21.48771,0.7739c15.10986,0.73988 30.17462,2.00921 45.21961,-0.18095c7.66323,-1.27484 15.67716,-1.08945 23.16976,-3.34813c5.56465,-1.67749 11.9026,-4.40669 16.80387,-7.58983c2.90572,-1.88712 5.32524,-4.51303 8.27165,-6.35332c4.00766,-2.50314 8.30726,-6.33746 10.57733,-10.545c2.08437,-3.75177 5.66024,-8.35071 6.24984,-12.66377c0.74252,-5.43175 -0.1546,-11.04146 -1.33645,-16.29211c-2.18389,-9.70244 -4.91661,-18.88123 -11.32676,-26.59912c-2.2323,-2.90438 -4.66686,-4.61286 -7.19442,-7.1383c-0.78213,-0.78148 -1.16983,-1.90885 -1.98033,-2.66087c-3.89513,-3.61407 -9.86356,-5.67103 -14.45944,-8.23114c-2.03359,-1.1328 -3.78895,-2.72487 -5.82922,-3.84557c-8.98199,-4.93371 -20.34416,-7.86601 -30.33454,-9.86452c-13.8773,-1.37873 -27.81182,-2.01236 -41.79272,-2.0155c-3.32208,-0.00075 -6.77816,-0.71011 -10.06841,-0.57323c-5.82843,0.24247 -11.63605,0.57323 -17.52257,0.57323c-5.76636,0 -11.34657,0.32442 -17.08663,0.67611c-6.1287,0.3755 -12.29349,0.29891 -18.46172,0.16342c-0.51852,0.51696 -1.29474,0.51696 -1.29474,0.51696l-1.01112,-0.56959c-5.75563,-0.13442 -11.51071,-0.27747 -17.2387,-0.10976c-4.33087,0.12681 -8.60563,0.67796 -12.94763,0.67934c-8.71051,0.0227 -17.57376,0.00826 -26.23918,0.77437c-4.19623,0.37099 -8.32869,1.62061 -12.53688,1.9339c-4.59563,0.34213 -9.33972,-0.51026 -13.91612,-0.00828c-1.23421,0.13538 -2.47675,0.31001 -3.72369,0.5096c-0.57249,1.24665 -1.20289,2.46181 -1.91052,3.63355l0.29809,0.09937l-0.66552,1.99645c-0.21993,0.71508 -0.88574,1.23486 -1.67295,1.23486c-0.9665,0 -1.75,-0.7835 -1.75,-1.75v-1.82285c-0.23944,-0.73235 -0.41237,-1.49024 -0.52378,-2.2572c-2.1831,0.42423 -4.35982,0.85225 -6.50936,1.20807c-10.428,1.66958 -21.40721,2.60264 -31.95817,3.2671c-8.66696,0.54582 -17.6181,-0.1733 -26.23343,0.66816c-2.81447,0.27489 -5.61595,1.2764 -8.40935,1.75212c-6.66816,1.13211 -13.63203,1.87818 -20.19057,3.54914c0.19733,0.25397 0.33433,0.60661 0.33433,1.09625c0,1.75 -1.75,1.75 -1.75,1.75h-1.35649c-3.59129,-0.01884 -6.87074,1.24563 -10.3715,1.81659c-1.39827,0.5657 -2.78894,1.12656 -4.171,1.6582c-0.36483,0.14034 -6.63831,2.56281 -6.84215,2.6001c-3.59588,0.65787 -7.50257,-0.6488 -11.17152,-0.6488c0,0 -1.00966,0 -1.49517,-0.76691c-0.03013,0.00995 -0.06026,0.01993 -0.09038,0.02997c-4.30296,0.86043 -8.80863,1.53914 -13.16356,2.08488c-1.75785,0.22029 -3.55656,-0.23199 -5.31478,-0.01463c-4.95854,0.613 -8.99239,4.28533 -13.04842,6.58721c-1.70507,0.96766 -3.71459,1.27567 -5.49628,2.09371c-6.08584,2.79425 -9.9826,7.6412 -13.54481,12.98538c-4.23427,5.64249 -8.19257,12.20054 -10.61741,18.76246c-1.6795,4.54493 -3.94122,8.87682 -3.32713,13.85913c0.94132,7.63723 5.22819,14.30494 8.55449,21.02655c3.00706,3.55525 6.13472,7.52836 9.79868,10.44039c4.78548,3.80338 11.98982,7.95303 17.79132,9.88804c3.80865,1.27032 8.14546,1.68398 12.06811,2.6713c5.24358,1.31979 10.20431,2.98825 15.51555,4.05051c7.4124,1.50245 14.68486,-1.08451 22.13252,-0.70974c6.44486,0.32431 12.89815,1.02736 19.44253,0.68085c4.76701,-0.25241 9.48827,-1.69057 14.26805,-2.03644c3.16176,-0.22879 6.43542,-0.00338 9.60429,-0.00338c13.1729,0 26.19574,-0.67828 39.36457,-0.67828c10.04132,0 20.41329,0.74395 30.37146,-0.67388c2.69011,-0.00452 5.37534,-0.00458 8.05813,-0.02373c-0.0688,-0.94475 -0.12619,-1.89818 -0.18489,-2.86625zM353.12426,354.51142c-1.19665,-6.31188 -2.34857,-12.64829 -3.39954,-18.98598c-0.32375,-1.95232 -0.76503,-3.89437 -1.39143,-5.7716c-0.25653,-0.76879 -0.68603,-1.50553 -0.74737,-2.31367c-0.02987,-0.39348 0.84933,-0.91466 0.48997,-1.07767c-0.5778,-0.26211 -1.25718,0.22706 -1.8464,0.46236c-2.4026,0.95946 -3.87557,2.99538 -5.6703,4.74952c-1.48711,3.01413 -3.4136,5.49272 -5.44573,8.16574c-0.76531,1.00667 -1.35766,2.17863 -2.31345,3.00661c-0.7949,0.6886 -1.95536,0.82118 -2.81105,1.4326c-1.54102,1.10113 -2.9455,2.7021 -4.8125,3.02074c-2.74812,0.46901 -3.48129,-0.37766 -6.16987,-1.38517c-5.22198,-1.95688 -9.13413,-6.78926 -13.03574,-10.68892c-1.26098,-1.26035 -2.23237,-2.88457 -3.75986,-3.80399c-1.39339,-0.8387 -2.93412,-1.44717 -4.23372,-2.42492c-0.62314,-0.46882 0.16349,1.55272 0.18223,2.33229c0.02803,1.16633 0,2.33333 0,3.5c-0.01565,4.676 1.21281,9.35452 1.35479,14.05673c0.15392,5.09734 0.48978,10.59927 1.24294,15.90975c4.85676,-0.06889 9.70866,-0.23113 14.57018,-0.62669c8.14933,-0.66307 16.24076,-2.05962 24.38153,-2.70852c4.90197,-0.39073 9.67879,-0.1967 14.54866,-0.58001c-0.16168,-2.07385 -0.73174,-4.15083 -1.13335,-6.2692zM376.05103,213.95339c-0.48178,-6.75912 -1.10081,-13.43059 -1.71177,-20.15669c-0.07584,-0.83488 -0.91872,-3.92321 -0.97502,-6.04927c-0.39404,0.36779 -0.82723,0.70287 -1.23734,1.04553c-2.17048,1.81352 -4.38617,3.64098 -6.64542,5.37671c-5.73619,4.40698 -10.89261,10.56601 -15.55419,16.15412c-4.73945,4.74676 -9.17906,11.59758 -15.01974,14.88098c-2.0486,1.15165 -4.13586,3.04983 -6.76757,1.76c-0.87796,-0.4303 -1.06948,-1.65642 -1.76825,-2.3403c-0.63626,-0.6227 -1.6372,-0.8322 -2.18798,-1.53163c-0.51783,-0.6576 -0.4984,-1.60579 -0.87231,-2.35465c-2.88052,-5.76899 -6.34546,-11.24806 -10.05037,-16.54091c-1.4648,-2.09262 -2.40463,-4.15796 -4.53422,-5.51551c-1.00369,0.93497 -2.66472,2.0797 -3.36792,3.24293c-0.80846,1.33735 -0.66453,3.06019 -1.15857,4.54276c-0.29256,0.87794 -1.7371,3.7368 -2.01033,5.07848c-0.39962,1.96229 -0.51373,3.98974 -1.08664,5.90861c-1.006,3.3694 -2.58743,6.55442 -3.71191,9.8771c-1.49614,4.42087 -2.6734,9.08798 -4.30502,13.52433c0.5858,-0.07932 1.1702,-0.15138 1.75279,-0.21469c4.64142,-0.50443 9.42857,0.33829 14.08388,-0.00828c4.19035,-0.31195 8.30851,-1.56168 12.48904,-1.93c8.76692,-0.77241 17.73113,-0.76496 26.54231,-0.78791c4.30097,0.00142 8.5355,-0.55022 12.826,-0.67707c5.07408,-0.15002 10.1703,-0.05287 15.26942,0.06606c-0.00024,-7.78357 -0.00143,-15.56714 0.00113,-23.35071zM167.40616,261.64537c-0.8624,0.05657 -1.72382,0.12217 -2.58342,0.20259c0.82459,0.02662 1.62921,-0.01361 2.39912,-0.16455c0.06161,-0.01208 0.12304,-0.02477 0.1843,-0.03804z" fill="#000000" stroke="none" stroke-width="0.5"/><path d="M353.1717,354.5272c0.40161,2.11837 0.9682,4.20337 1.12988,6.27722c-4.86987,0.38331 -9.65798,0.20332 -14.55995,0.59405c-8.14077,0.6489 -16.28979,2.05097 -24.43912,2.71404c-4.86152,0.39556 -9.72831,0.54472 -14.58507,0.61361c-0.75316,-5.31048 -1.09885,-10.83651 -1.25277,-15.93385c-0.14198,-4.70221 -1.36746,-9.40493 -1.35181,-14.08093c0,-1.16667 0.03017,-2.33844 0.00214,-3.50477c-0.01874,-0.77957 -0.80389,-2.80379 -0.18075,-2.33497c1.2996,0.97775 2.92631,1.63729 4.3197,2.47599c1.52749,0.91942 2.50033,2.54103 3.76131,3.80138c3.90161,3.89966 7.8193,8.70675 13.04128,10.66363c2.68858,1.00751 3.39346,1.81142 6.14158,1.34241c1.867,-0.31864 3.20232,-1.85893 4.74334,-2.96006c0.85569,-0.61142 2.01728,-0.74091 2.81218,-1.42951c0.95579,-0.82798 1.55222,-1.99197 2.31753,-2.99864c2.03213,-2.67302 3.96476,-5.14374 5.45187,-8.15787c1.79473,-1.75414 3.34059,-3.85851 5.74319,-4.81797c0.58922,-0.2353 1.26964,-0.72331 1.84744,-0.4612c0.35936,0.16301 -0.51927,0.68486 -0.4894,1.07834c0.06134,0.80814 0.49336,1.54815 0.74989,2.31694c0.6264,1.87723 1.07291,3.82872 1.39666,5.78104c1.05097,6.33769 2.20424,12.70924 3.40089,19.02112z" data-paper-data="{&quot;noHover&quot;:false,&quot;origItem&quot;:[&quot;Path&quot;,{&quot;applyMatrix&quot;:true,&quot;segments&quot;:[[[353.12426,354.51142],[0,0],[-1.19665,-6.31188]],[[349.72472,335.52544],[1.05097,6.33769],[-0.32375,-1.95232]],[[348.33329,329.75384],[0.6264,1.87723],[-0.25653,-0.76879]],[[347.58592,327.44017],[0.06134,0.80814],[-0.02987,-0.39348]],[[348.07589,326.3625],[0.35936,0.16301],[-0.5778,-0.26211]],[[346.22949,326.82486],[0.58922,-0.2353],[-2.4026,0.95946]],[[340.55919,331.57438],[1.79473,-1.75414],[-1.48711,3.01413]],[[335.11346,339.74012],[2.03213,-2.67302],[-0.76531,1.00667]],[[332.80001,342.74673],[0.95579,-0.82798],[-0.7949,0.6886]],[[329.98896,344.17933],[0.85569,-0.61142],[-1.54102,1.10113]],[[325.17646,347.20007],[1.867,-0.31864],[-2.74812,0.46901]],[[319.00659,345.8149],[2.68858,1.00751],[-5.22198,-1.95688]],[[305.97085,335.12598],[3.90161,3.89966],[-1.26098,-1.26035]],[[302.21099,331.32199],[1.52749,0.91942],[-1.39339,-0.8387]],[[297.97727,328.89707],[1.2996,0.97775],[-0.62314,-0.46882]],[[298.1595,331.22936],[-0.01874,-0.77957],[0.02803,1.16633]],[[298.1595,334.72936],[0,-1.16667],[-0.01565,4.676]],[[299.51429,348.78609],[-0.14198,-4.70221],[0.15392,5.09734]],[[300.75723,364.69584],[-0.75316,-5.31048],[4.85676,-0.06889]],[[315.32741,364.06915],[-4.86152,0.39556],[8.14933,-0.66307]],[[339.70894,361.36063],[-8.14077,0.6489],[4.90197,-0.39073]],[[354.2576,360.78062],[-4.86987,0.38331],[-0.16168,-2.07385]],[[353.12425,354.51142],[0.40161,2.11837],[0,0]]],&quot;closed&quot;:true,&quot;fillColor&quot;:[0,0,0,1]}]}" fill="#5cff95" stroke="none" stroke-width="0.5"/><path d="M376.10103,213.95296c-0.00256,7.78357 -0.00764,15.59181 -0.0074,23.37538c-5.09912,-0.11893 -10.20144,-0.2074 -15.27552,-0.05738c-4.2905,0.12685 -8.538,0.68906 -12.83897,0.68764c-8.81118,0.02295 -17.82378,0.01601 -26.5907,0.78842c-4.18053,0.36832 -8.30985,1.60986 -12.5002,1.92181c-4.65531,0.34657 -9.44925,-0.50434 -14.09067,0.00009c-0.58259,0.06331 -1.16743,0.1347 -1.75323,0.21402c1.63162,-4.43635 2.80381,-9.11388 4.29995,-13.53475c1.12448,-3.32268 2.70332,-6.51955 3.70932,-9.88895c0.57291,-1.91887 0.68698,-3.95525 1.0866,-5.91754c0.27323,-1.34168 1.71917,-4.20879 2.01173,-5.08673c0.49404,-1.48257 0.35249,-3.21243 1.16095,-4.54978c0.7032,-1.16323 2.36748,-2.31432 3.37117,-3.24929c2.12959,1.35755 3.15739,3.47018 4.62219,5.5628c3.70491,5.29285 7.16808,10.72568 10.0486,16.49467c0.37391,0.74886 0.34924,1.68956 0.86707,2.34716c0.55078,0.69943 1.54465,0.90208 2.18091,1.52478c0.69877,0.68388 0.88183,1.90457 1.75979,2.33487c2.63171,1.28983 4.69478,-0.61374 6.74338,-1.76539c5.84068,-3.2834 10.23344,-10.07171 14.97289,-14.81847c4.66158,-5.58811 9.8245,-11.73239 15.56069,-16.13937c2.25925,-1.73573 4.47548,-3.56238 6.64596,-5.3759c0.41011,-0.34266 0.92592,-0.73407 1.31996,-1.10186c0.0563,2.12606 0.90236,5.21972 0.9782,6.0546c0.61096,6.7261 1.23555,13.42006 1.71733,20.17918z" data-paper-data="{&quot;noHover&quot;:false,&quot;origItem&quot;:[&quot;Path&quot;,{&quot;applyMatrix&quot;:true,&quot;segments&quot;:[[[376.05103,213.95339],[0,0],[-0.48178,-6.75912]],[[374.33926,193.7967],[0.61096,6.7261],[-0.07584,-0.83488]],[[373.36424,187.74743],[0.0563,2.12606],[-0.39404,0.36779]],[[372.1269,188.79296],[0.41011,-0.34266],[-2.17048,1.81352]],[[365.48148,194.16967],[2.25925,-1.73573],[-5.73619,4.40698]],[[349.92729,210.32379],[4.66158,-5.58811],[-4.73945,4.74676]],[[334.90755,225.20477],[5.84068,-3.2834],[-2.0486,1.15165]],[[328.13998,226.96477],[2.63171,1.28983],[-0.87796,-0.4303]],[[326.37173,224.62447],[0.69877,0.68388],[-0.63626,-0.6227]],[[324.18375,223.09284],[0.55078,0.69943],[-0.51783,-0.6576]],[[323.31144,220.73819],[0.37391,0.74886],[-2.88052,-5.76899]],[[313.26107,204.19728],[3.70491,5.29285],[-1.4648,-2.09262]],[[308.72685,198.68177],[2.12959,1.35755],[-1.00369,0.93497]],[[305.35893,201.9247],[0.7032,-1.16323],[-0.80846,1.33735]],[[304.20036,206.46746],[0.49404,-1.48257],[-0.29256,0.87794]],[[302.19003,211.54594],[0.27323,-1.34168],[-0.39962,1.96229]],[[301.10339,217.45455],[0.57291,-1.91887],[-1.006,3.3694]],[[297.39148,227.33165],[1.12448,-3.32268],[-1.49614,4.42087]],[[293.08646,240.85598],[1.63162,-4.43635],[0.5858,-0.07932]],[[294.83925,240.64129],[-0.58259,0.06331],[4.64142,-0.50443]],[[308.92313,240.63301],[-4.65531,0.34657],[4.19035,-0.31195]],[[321.41217,238.70301],[-4.18053,0.36832],[8.76692,-0.77241]],[[347.95448,237.9151],[-8.81118,0.02295],[4.30097,0.00142]],[[360.78048,237.23803],[-4.2905,0.12685],[5.07408,-0.15002]],[[376.0499,237.30409],[-5.09912,-0.11893],[-0.00024,-7.78357]],[[376.05103,213.95338],[-0.00256,7.78357],[0,0]]],&quot;closed&quot;:true,&quot;fillColor&quot;:[0,0,0,1]}]}" fill="#5cff95" stroke="none" stroke-width="0.5"/><path d="M297.39722,361.81762c0.0587,0.96807 0.07481,2.01258 0.14361,2.95733c-2.68279,0.01915 -5.37272,0.01683 -8.06283,0.02135c-9.95817,1.41783 -20.34167,0.66478 -30.38299,0.66478c-13.16883,0 -26.19827,0.66952 -39.37117,0.66952c-3.16887,0 -6.44346,-0.22705 -9.60522,0.00174c-4.77978,0.34587 -9.50185,1.78248 -14.26886,2.03489c-6.54438,0.34651 -12.99888,-0.35916 -19.44374,-0.68347c-7.44766,-0.37477 -14.72095,2.21013 -22.13335,0.70768c-5.31124,-1.06226 -10.27276,-2.73296 -15.51634,-4.05275c-3.92265,-0.98732 -8.25991,-1.40243 -12.06856,-2.67275c-5.8015,-1.93501 -13.00665,-6.08784 -17.79213,-9.89122c-3.66396,-2.91203 -6.79213,-6.88779 -9.79919,-10.44304c-3.3263,-6.72161 -7.61372,-13.39402 -8.55504,-21.03125c-0.61409,-4.98231 1.64751,-9.31715 3.32701,-13.86208c2.42484,-6.56192 6.38328,-13.12421 10.61755,-18.7667c3.56221,-5.34418 7.45933,-10.19446 13.54517,-12.98871c1.78169,-0.81804 3.79131,-1.12674 5.49638,-2.0944c4.05603,-2.30188 8.09028,-5.9764 13.04882,-6.5894c1.75822,-0.21736 3.55699,0.23464 5.31484,0.01435c4.35493,-0.54574 8.8609,-1.22578 13.16386,-2.08621c0.03012,-0.01004 0.15752,0.00317 0.18765,-0.00678c0.48551,0.76691 1.39787,0.74381 1.39787,0.74381c3.66895,0 7.57578,1.30609 11.17166,0.64822c0.20384,-0.03729 6.47766,-2.46106 6.84249,-2.6014c1.38206,-0.53164 2.77298,-1.09336 4.17125,-1.65906c3.50076,-0.57096 6.78071,-1.837 10.372,-1.81816l1.35654,-0.00014c0,0 1.75026,-0.00075 1.75026,-1.75075c0,-0.48964 -0.13689,-0.84259 -0.33422,-1.09656c6.55854,-1.67096 13.52398,-2.42086 20.19214,-3.55297c2.7934,-0.47572 5.59584,-1.4792 8.41031,-1.75409c8.61533,-0.84146 17.5699,-0.12806 26.23686,-0.67388c10.55096,-0.66446 21.54007,-1.60809 31.96807,-3.27767c2.14954,-0.35582 4.32963,-0.7863 6.51273,-1.21053c0.11141,0.76696 0.34042,1.60764 0.57986,2.33999l0.00064,1.82241c0,0.9665 0.72591,1.66825 1.69241,1.66825c0.78721,0 1.45436,-0.52069 1.67429,-1.23577l0.66658,-1.99712l-0.29822,-0.09929c0.70763,-1.17174 1.34028,-2.38822 1.91277,-3.63487c1.24694,-0.19959 2.49182,-0.37543 3.72603,-0.51081c4.5764,-0.50198 9.33006,0.34693 13.92569,0.0048c4.20819,-0.31329 8.35079,-1.56439 12.54702,-1.93538c8.66542,-0.76611 17.54842,-0.74849 26.25893,-0.77119c4.342,-0.00138 8.62412,-0.54904 12.95499,-0.67585c5.72799,-0.16771 11.49047,-0.01944 17.2461,0.11498l1.01164,0.57004c0,0 0.7765,0.00025 1.29502,-0.51671c6.16823,0.13549 12.33792,0.21709 18.46662,-0.15841c5.74006,-0.35169 11.32315,-0.67237 17.08951,-0.67237c5.88652,0 11.69618,-0.32759 17.52461,-0.57006c3.29025,-0.13688 6.74735,0.57429 10.06943,0.57504c13.9809,0.00314 27.91802,0.64245 41.79532,2.02118c9.99038,1.99851 21.35413,4.93563 30.33612,9.86934c2.04027,1.1207 3.79595,2.71402 5.82954,3.84682c4.59588,2.56011 10.56487,4.61966 14.46,8.23373c0.8105,0.75202 1.19832,1.88007 1.98045,2.66155c2.52756,2.52544 4.96241,4.23575 7.19471,7.14013c6.41015,7.71789 9.14333,16.90268 11.32722,26.60512c1.18185,5.25065 2.0789,10.86385 1.33638,16.2956c-0.5896,4.31306 -4.1657,8.91483 -6.25007,12.6666c-2.27007,4.20754 -6.57003,8.04449 -10.57769,10.54763c-2.94641,1.84029 -5.36625,4.46796 -8.27197,6.35508c-4.90127,3.18314 -11.23983,5.91499 -16.80448,7.59248c-7.4926,2.25868 -15.50724,2.07576 -23.17047,3.3506c-15.04499,2.19016 -30.11154,0.92564 -45.2214,0.18576c-7.20929,-0.35302 -14.31216,0.11444 -21.48917,-0.77081c-5.75147,-0.00388 -11.48955,-0.88217 -17.2387,-0.67724c-4.9744,0.17731 -9.91144,1.14633 -14.86137,1.36289c-9.2127,0.40305 -19.02194,-0.11668 -28.13803,1.3521c-2.83047,0.45604 -5.3467,1.33452 -8.16977,1.77159c-0.18219,-2.13622 -0.73506,-4.35779 -1.16538,-6.62762c-1.19197,-6.28727 -2.33585,-12.59277 -3.39287,-18.904c-0.48152,-2.87508 -1.49649,-5.28534 -2.14025,-8.0664c-0.22791,-0.98456 0.44991,-2.40176 -0.41204,-2.92934c-5.25745,-3.21798 -9.79521,2.54714 -12.84749,5.65434c-1.52213,3.00703 -3.41976,5.4111 -5.41809,8.11665c-1.1341,1.53546 -2.82419,2.59177 -4.37772,3.70099c-1.11364,0.79514 -1.97974,2.19051 -3.33111,2.40553c-1.88359,0.2997 -2.37404,-0.45261 -4.40464,-1.21473c-5.58125,-2.09474 -10.07036,-8.2084 -14.27001,-12.3636c-1.45087,-1.43552 -3.34455,-2.40206 -5.20339,-3.24493c-1.08005,-0.48974 -1.97192,-1.75881 -3.14434,-1.58054c-4.23271,0.64358 -2.8996,6.67913 -2.8996,9.30195c0.01366,4.74086 1.20712,9.44403 1.35017,14.20603c0.13142,4.37515 1.08852,8.55927 1.35281,12.91816z" data-paper-data="{&quot;noHover&quot;:false,&quot;origItem&quot;:[&quot;Path&quot;,{&quot;applyMatrix&quot;:true,&quot;segments&quot;:[[[297.37612,361.86293],[0,0],[-0.26429,-4.35889]],[[296.01777,348.94175],[0.13142,4.37515],[-0.14305,-4.762]],[[294.65951,334.72937],[0.01366,4.74086],[0,-2.62282]],[[297.55479,325.42267],[-4.23271,0.64358],[1.17242,-0.17827]],[[300.77404,326.93715],[-1.08005,-0.48974],[1.85884,0.84287]],[[305.97031,330.17601],[-1.45087,-1.43552],[4.19965,4.1552]],[[320.21687,342.53082],[-5.58125,-2.09474],[2.0306,0.76212]],[[324.61584,343.74527],[-1.88359,0.2997],[1.35137,-0.21502]],[[327.94249,341.33998],[-1.11364,0.79514],[1.55353,-1.10922]],[[332.31347,337.64012],[-1.1341,1.53546],[1.99833,-2.70555]],[[337.71986,329.52787],[-1.52213,3.00703],[3.05228,-3.1072]],[[350.55076,323.88763],[-5.25745,-3.21798],[0.86195,0.52758]],[[351.04073,326.87957],[-0.22791,-0.98456],[0.64376,2.78106]],[[353.17709,334.95004],[-0.48152,-2.87508],[1.05702,6.31123]],[[356.563,353.85948],[-1.19197,-6.28727],[0.43032,2.26983]],[[357.67571,360.40212],[-0.18219,-2.13622],[2.82307,-0.43707]],[[365.84068,358.63376],[-2.83047,0.45604],[9.11609,-1.46878]],[[393.96926,357.29109],[-9.2127,0.40305],[4.94993,-0.21656]],[[408.82774,355.9324],[-4.9744,0.17731],[5.74915,-0.20493]],[[426.06463,356.61285],[-5.75147,-0.00388],[7.17701,0.88525]],[[447.55234,357.38675],[-7.20929,-0.35302],[15.10986,0.73988]],[[492.77195,357.2058],[-15.04499,2.19016],[7.66323,-1.27484]],[[515.94171,353.85767],[-7.4926,2.25868],[5.56465,-1.67749]],[[532.74558,346.26784],[-4.90127,3.18314],[2.90572,-1.88712]],[[541.01723,339.91452],[-2.94641,1.84029],[4.00766,-2.50314]],[[551.59456,329.36952],[-2.27007,4.20754],[2.08437,-3.75177]],[[557.8444,316.70575],[-0.5896,4.31306],[0.74252,-5.43175]],[[556.50795,300.41364],[1.18185,5.25065],[-2.18389,-9.70244]],[[545.18119,273.81452],[6.41015,7.71789],[-2.2323,-2.90438]],[[537.98677,266.67622],[2.52756,2.52544],[-0.78213,-0.78148]],[[536.00644,264.01535],[0.8105,0.75202],[-3.89513,-3.61407]],[[521.547,255.78421],[4.59588,2.56011],[-2.03359,-1.1328]],[[515.71778,251.93864],[2.04027,1.1207],[-8.98199,-4.93371]],[[485.38324,242.07412],[9.99038,1.99851],[-13.8773,-1.37873]],[[443.59052,240.05862],[13.9809,0.00314],[-3.32208,-0.00075]],[[433.52211,239.48539],[3.29025,-0.13688],[-5.82843,0.24247]],[[415.99954,240.05862],[5.88652,0],[-5.76636,0]],[[398.91291,240.73473],[5.74006,-0.35169],[-6.1287,0.3755]],[[380.45119,240.89815],[6.16823,0.13549],[-0.51852,0.51696]],[379.15645,241.41511],[[378.14533,240.84552],[0,0],[-5.75563,-0.13442]],[[360.90663,240.73576],[5.72799,-0.16771],[-4.33087,0.12681]],[[347.959,241.4151],[4.342,-0.00138],[-8.71051,0.0227]],[[321.71982,242.18947],[8.66542,-0.76611],[-4.19623,0.37099]],[[309.18294,244.12337],[4.20819,-0.31329],[-4.59563,0.34213]],[[295.26682,244.11509],[4.5764,-0.50198],[-1.23421,0.13538]],[[291.54313,244.62469],[1.24694,-0.19959],[-0.57249,1.24665]],[[289.63261,248.25824],[0.70763,-1.17174],[0,0]],[289.9307,248.35761],[[289.26518,250.35406],[0,0],[-0.21993,0.71508]],[[287.59223,251.58892],[0.78721,0],[-0.9665,0]],[[285.84223,249.83892],[0,0.9665],[0,0]],[[285.84223,248.01607],[0,0],[-0.23944,-0.73235]],[[285.31845,245.75887],[0.11141,0.76696],[-2.1831,0.42423]],[[278.80909,246.96694],[2.14954,-0.35582],[-10.428,1.66958]],[[246.85092,250.23404],[10.55096,-0.66446],[-8.66696,0.54582]],[[220.61749,250.9022],[8.61533,-0.84146],[-2.81447,0.27489]],[[212.20814,252.65432],[2.7934,-0.47572],[-6.66816,1.13211]],[[192.01757,256.20346],[6.55854,-1.67096],[0.19733,0.25397]],[[192.3519,257.29971],[0,-0.48964],[0,1.75]],[190.6019,259.04971],[[189.24541,259.04971],[0,0],[-3.59129,-0.01884]],[[178.87391,260.8663],[3.50076,-0.57096],[-1.39827,0.5657]],[[174.70291,262.5245],[1.38206,-0.53164],[-0.36483,0.14034]],[[167.86076,265.1246],[0.20384,-0.03729],[-3.59588,0.65787]],[[156.68924,264.4758],[3.66895,0],[0,0]],[[155.19407,263.70889],[0.48551,0.76691],[-0.03013,0.00995]],[[155.10369,263.73886],[0.03012,-0.01004],[-4.30296,0.86043]],[[141.94013,265.82374],[4.35493,-0.54574],[-1.75785,0.22029]],[[136.62535,265.80911],[1.75822,-0.21736],[-4.95854,0.613]],[[123.57693,272.39632],[4.05603,-2.30188],[-1.70507,0.96766]],[[118.08065,274.49003],[1.78169,-0.81804],[-6.08584,2.79425]],[[104.53584,287.47541],[3.56221,-5.34418],[-4.23427,5.64249]],[[93.91843,306.23787],[2.42484,-6.56192],[-1.6795,4.54493]],[[90.5913,320.097],[-0.61409,-4.98231],[0.94132,7.63723]],[[99.14579,341.12355],[-3.3263,-6.72161],[3.00706,3.55525]],[[108.94447,351.56394],[-3.66396,-2.91203],[4.78548,3.80338]],[[126.73579,361.45198],[-5.8015,-1.93501],[3.80865,1.27032]],[[138.8039,364.12328],[-3.92265,-0.98732],[5.24358,1.31979]],[[154.31945,368.17379],[-5.31124,-1.06226],[7.4124,1.50245]],[[176.45197,367.46405],[-7.44766,-0.37477],[6.44486,0.32431]],[[195.8945,368.1449],[-6.54438,0.34651],[4.76701,-0.25241]],[[210.16255,366.10846],[-4.77978,0.34587],[3.16176,-0.22879]],[[219.76684,366.10508],[-3.16887,0],[13.1729,0]],[[259.13141,365.4268],[-13.16883,0],[10.04132,0]],[[289.50287,364.75292],[-9.95817,1.41783],[2.69011,-0.00452]],[[297.561,364.72919],[-2.68279,0.01915],[-0.0688,-0.94475]],[[297.37611,361.86294],[0.0587,0.96807],[0,0]]],&quot;closed&quot;:true,&quot;fillColor&quot;:[0,0,0],&quot;strokeWidth&quot;:0.5}]}" fill="#a8dbff" stroke="none" stroke-width="0.25"/><path d="M211.5465,311.89566c-0.00564,-0.06596 -0.00858,-0.13473 -0.00858,-0.20645c0,-1.75 1.75,-1.75 1.75,-1.75c4.5956,0.02369 9.01515,-1.85433 13.60669,-2.21196c6.14556,-0.47867 12.70095,-0.09212 18.78323,-0.87834c2.50268,-0.32351 4.82612,-1.51957 7.36001,-1.78058c4.17365,-0.42992 8.30045,-1.19577 12.49298,-1.67977c8.67293,-1.55185 17.45831,-3.17498 26.34381,-2.76306c4.60761,0.2136 9.12934,0.94555 13.72327,1.27595c5.45844,0.39257 11.17975,-0.81727 16.51383,0.05941c6.9544,0.01771 14.06365,-1.18248 21.00137,-1.77446c7.06627,-0.60295 14.27176,0.45784 21.34907,-0.00379c4.92796,-0.32144 9.73874,-1.17626 14.69832,-1.33274c5.07098,-0.0003 11.21873,0.84491 16.22576,0.0129c5.71111,-0.94901 10.51032,-2.00698 16.40541,-1.41521l0.1058,0.05442l0.00746,-0.03161l2.24931,0.53077c0.79016,0.16876 1.38272,0.87088 1.38272,1.7114c0,0.57983 -0.28199,1.09379 -0.71631,1.41223l-1.75801,1.31848l-0.03155,-0.04207c-0.08623,0.07671 -0.17489,0.15089 -0.26634,0.2222c-0.71462,0.55723 -5.64301,1.01666 -5.78236,1.03409c-3.25606,0.4071 -6.21505,0.30309 -9.47303,0.4644c-5.46058,0.27036 -10.94909,0.73512 -16.33362,1.31976c-6.32387,0.68664 -12.7574,0.13274 -19.10276,0.83941c-3.28716,0.0592 -6.27689,-0.71017 -9.55477,-0.82714c-6.08854,-0.21727 -12.41215,-0.31684 -18.49669,-0.00095c-7.23232,0.37548 -14.45637,1.21546 -21.64235,1.76761c-4.74933,0.36492 -9.48816,-0.05053 -14.19464,0.8872c-11.60712,0.02692 -22.96888,0.13118 -34.47202,1.67181c-4.87593,0.65304 -10.09446,1.55863 -14.87685,2.66059c-2.00061,0.46098 -3.89367,1.39547 -5.92817,1.67074c-2.77094,0.37491 -5.63052,0.26893 -8.41709,0.57882c-1.82239,0.39269 -3.70817,0.39838 -5.56839,0.52046c-5.65849,0.37135 -11.30747,1.76586 -16.94571,0.39471l-1.32557,-2.14133c0,0 0,-1.11979 0.89575,-1.56788zM218.97104,312.72666c3.25595,-0.15742 6.53624,-0.79759 9.73351,-1.00975c1.74278,-0.11565 3.51279,-0.10158 5.21775,-0.4808c2.66144,-0.29554 5.38025,-0.236 8.03556,-0.53535c-4.89646,0.29279 -9.96442,0.15619 -14.77455,0.51455c-2.79011,0.20787 -5.49094,0.9426 -8.21226,1.51135zM276.49897,305.07822c7.02901,-0.40611 14.06221,-0.47087 21.18261,-0.45384c-1.97679,-0.21325 -3.95655,-0.40564 -5.95239,-0.50192c-5.11252,-0.24662 -10.1898,0.22042 -15.23022,0.95575z" fill="#000000" stroke="none" stroke-width="0.5"/><path d="M83.64604,381.12012v-393.39019h489.33902v393.3902z" fill="none" stroke="#000000" stroke-width="0"/></g></g></svg>