<svg version="1.1" xmlns="http://www.w3.org/2000/svg" xmlns:xlink="http://www.w3.org/1999/xlink" width="489.33902" height="393.3902" viewBox="0,0,489.33902,393.3902"><g transform="translate(-83.64604,12.27008)"><g data-paper-data="{&quot;isPaintingLayer&quot;:true}" fill-rule="nonzero" stroke-linecap="butt" stroke-linejoin="miter" stroke-miterlimit="10" stroke-dasharray="" stroke-dashoffset="0" style="mix-blend-mode: normal"><path d="M231.29716,377.06583c-1.75,0 -1.75,-1.75 -1.75,-1.75v-1.35653c0,-1.48469 -0.04288,-2.97018 -0.11997,-4.45642c-3.21398,0.06148 -6.43263,0.1022 -9.6603,0.1022c-3.09539,0 -6.29867,-0.2292 -9.38683,-0.00338c-4.76544,0.34847 -9.46315,1.77071 -14.21863,2.03302c-6.691,0.36907 -13.30404,-0.31306 -19.89611,-0.67564c-7.65538,-0.42106 -14.97371,2.15976 -22.63223,0.64675c-5.36905,-1.07382 -10.38768,-2.75547 -15.6841,-4.08857c-4.01701,-1.01107 -8.44751,-1.44837 -12.34903,-2.75472c-6.19316,-2.07366 -13.72653,-6.39951 -18.83435,-10.45956c-3.95021,-3.13991 -7.35816,-7.38904 -10.54892,-11.2637c-3.59739,-7.13027 -8.05351,-14.26349 -9.08014,-22.38163c-0.78586,-6.21424 1.99507,-13.54645 4.60537,-19.10771c0.95875,-2.04262 2.64908,-3.6735 3.68734,-5.67688c1.89887,-3.66399 3.73222,-7.06105 6.24943,-10.41916c3.90773,-5.86075 8.34317,-11.04427 14.94179,-14.14473c1.63026,-0.766 3.51179,-0.96352 5.07261,-1.86261c4.47462,-2.57755 8.9149,-6.35989 14.36493,-7.09117c1.82937,-0.24546 3.70692,0.22342 5.53727,-0.01463c4.17354,-0.5428 8.48325,-1.15893 12.61007,-1.98466c7.36915,-2.45633 15.12063,-2.15651 22.70749,-2.7672c0.33611,-0.02705 0.66923,-0.06242 0.99985,-0.10462l-0.00002,0.00001c4.23703,-1.70911 8.53975,-3.44624 12.88716,-4.58038c6.75345,-1.76182 13.94228,-2.53212 20.82251,-3.70023c2.88037,-0.48743 5.74646,-1.49675 8.65033,-1.78447c4.08188,-0.40444 8.32971,0.12181 12.43458,-0.00765c15.02844,-0.47394 30.68694,-1.50923 45.53875,-3.89905c5.46795,-0.90508 11.11042,-2.27534 16.59324,-2.87122c4.64142,-0.50443 9.42857,0.33829 14.08388,-0.00828c4.19035,-0.31195 8.30851,-1.56168 12.48904,-1.93c8.76692,-0.77241 17.73113,-0.76496 26.54231,-0.78791c4.30097,0.00142 8.5355,-0.55022 12.826,-0.67707c7.14597,-0.21127 14.33587,0.06767 21.5159,0.20731c0.78007,-3.52932 1.49926,-7.07688 2.65837,-10.53509c1.68027,-5.01306 3.43296,-9.69024 4.71891,-14.82443c0.70303,-2.80689 2.12373,-5.58653 2.35448,-8.5057c0.19563,-2.47493 -0.37565,-5.1403 -0.35642,-7.65174l-0.59747,-1.79234c-0.0665,-0.18495 -0.10273,-0.38433 -0.10273,-0.59217c0,-0.9665 0.7835,-1.75 1.75,-1.75c0.48325,0 0.92075,0.19588 1.23744,0.51256l2.03477,2.03477l-0.2992,0.2992c8.98454,7.09346 14.3227,19.53664 19.82286,29.16439c1.62047,2.83656 3.51195,5.5843 5.09247,8.427c0.72468,1.3034 0.59911,3.18138 1.61166,4.21507c0.19276,-0.00627 0.38548,-0.01274 0.57815,-0.01939c0.06784,-0.1051 0.13449,-0.21793 0.20152,-0.28574c0.72604,-0.73448 1.43195,-1.48867 2.15747,-2.22367c1.57403,-1.5946 3.05773,-3.28898 4.38836,-5.0917c1.32095,-1.76338 3.10328,-3.1289 4.68653,-4.66114c3.18343,-3.08086 5.1393,-7.39625 8.02877,-10.73491c4.38941,-5.07177 9.53496,-9.54805 13.55855,-14.91913c1.59828,-2.13354 5.13773,-9.43694 9.09841,-6.41643c1.22006,0.93045 1.43329,2.72165 1.98196,4.15456c1.61242,4.21102 1.44447,9.42295 1.48954,13.85964c0.01677,9.32472 0.87336,18.61077 3.71972,27.49936c4.59286,0.22843 9.18733,0.54112 13.79075,1.00434c10.41889,2.08327 22.12417,5.13162 31.49842,10.25655c2.04909,1.12024 3.80762,2.72226 5.849,3.85649c4.87773,2.71016 10.95622,4.91031 15.1239,8.71056c0.8536,0.77834 1.27262,1.9479 2.08913,2.76508c2.5785,2.58061 5.16213,4.45847 7.45263,7.42679c6.75524,8.13057 9.7106,17.80234 12.00843,28.01767c1.26973,5.64475 2.2375,11.78673 1.37652,17.62059c-0.71053,4.81444 -4.3183,9.61469 -6.64511,13.80291c-2.67988,4.71209 -7.24026,8.9729 -11.79683,11.82252c-2.91973,1.82597 -5.32156,4.43843 -8.20536,6.31132c-5.17342,3.35989 -11.82286,6.23389 -17.70001,8.00559c-7.66057,2.30933 -15.80958,2.14768 -23.64008,3.4552c-15.28668,2.22616 -30.57837,0.9704 -45.93066,0.21865c-7.2239,-0.35373 -14.3424,0.13575 -21.53401,-0.77647c-5.63621,0.00391 -11.26052,-0.88176 -16.89322,-0.67596c-4.94531,0.18068 -9.84534,1.12913 -14.76719,1.3542c-9.10094,0.41619 -18.78423,-0.14603 -27.78932,1.30487c-3.01526,0.48582 -5.73006,1.44759 -8.7919,1.85878c-5.96134,0.79483 -11.73803,0.42364 -17.67909,0.90589c-8.11828,0.65898 -16.18726,2.04242 -24.31518,2.70375c-6.70977,0.54594 -13.40409,0.66762 -20.11686,0.68718c0.2006,1.29002 0.28264,2.56041 -0.04795,3.67976v2.03473c0,0.9665 -0.7835,1.75 -1.75,1.75c-0.9665,0 -1.75,-0.7835 -1.75,-1.75v-2.03473c-0.39924,-0.50786 0.0482,-1.2936 0.00268,-1.93799c-0.04142,-0.58639 -0.08955,-1.16522 -0.14071,-1.73931c-0.68554,-0.00072 -1.37134,-0.00188 -2.05744,-0.00316c-10.03514,1.43864 -20.49938,0.68269 -30.61958,0.68269c-8.76734,0 -17.47022,0.30066 -26.19591,0.50163c0.07187,1.51547 0.11162,3.02632 0.11162,4.53086v1.35653c0,0 0,1.75 -1.75,1.75zM225.48002,334.24991c-0.12537,-2.43355 -1.02853,-9.95775 1.79482,-11.43534c1.09195,-0.57147 2.26221,0.98208 3.41841,1.40883c1.01938,0.37625 2.18075,0.42396 3.10317,0.99827c1.52151,0.94731 2.69125,2.54824 4.39918,3.09173c4.83766,3.40099 10.0354,6.61112 14.58032,10.39797c2.96151,2.46755 7.59218,6.26499 11.7141,6.36833c2.65194,0.06649 5.34801,-4.00186 6.94319,-5.59219c4.04849,-4.03618 8.70262,-7.13961 12.53725,-11.52427c1.16964,-1.33599 4.41025,-6.0427 6.34334,-6.48971c1.2861,-0.29741 3.0646,-0.60698 3.9419,0.37935c1.03169,1.15991 0.4122,3.07964 0.51256,4.62873c0.21968,3.39067 -0.31841,6.42384 -0.69128,9.70845c-1.00263,8.83204 0.26898,18.6408 0.68861,27.49869c0.01611,0.34013 0.05337,0.69266 0.10403,1.05413c6.827,-0.02293 13.63294,-0.1184 20.45781,-0.67371c8.14933,-0.66307 16.24076,-2.05962 24.38153,-2.70852c5.86592,-0.46757 11.55262,-0.09778 17.43401,-0.88195c3.04336,-0.40266 5.69047,-1.36039 8.69772,-1.84492c9.11609,-1.46878 18.91588,-0.93962 28.12858,-1.34267c4.94993,-0.21656 9.88408,-1.18138 14.85848,-1.35869c5.74915,-0.20493 11.48542,0.67657 17.23689,0.68045c7.17701,0.88525 14.27842,0.42088 21.48771,0.7739c15.10986,0.73988 30.17462,2.00921 45.21961,-0.18095c7.66323,-1.27484 15.67716,-1.08945 23.16976,-3.34813c5.56465,-1.67749 11.9026,-4.40669 16.80387,-7.58983c2.90572,-1.88712 5.32524,-4.51303 8.27165,-6.35332c4.00766,-2.50314 8.30726,-6.33746 10.57733,-10.545c2.08437,-3.75177 5.66024,-8.35071 6.24984,-12.66377c0.74252,-5.43175 -0.1546,-11.04146 -1.33645,-16.29211c-2.18389,-9.70244 -4.91661,-18.88123 -11.32676,-26.59912c-2.2323,-2.90438 -4.66686,-4.61286 -7.19442,-7.1383c-0.78213,-0.78148 -1.16983,-1.90885 -1.98033,-2.66087c-3.89513,-3.61407 -9.86356,-5.67103 -14.45944,-8.23114c-2.03359,-1.1328 -3.78895,-2.72487 -5.82922,-3.84557c-8.98199,-4.93371 -20.34416,-7.86601 -30.33454,-9.86452c-4.34019,-0.4312 -8.68597,-0.78953 -13.03702,-1.07847c-0.17593,0.49743 -0.60058,1.09774 -1.62555,1.09774c-1.17271,0 -1.55956,-0.78585 -1.68718,-1.30433c-8.46223,-0.49364 -16.94403,-0.72853 -25.44297,-0.73044c-3.32208,-0.00075 -6.77816,-0.71011 -10.06841,-0.57323c-3.48583,0.14502 -6.96422,0.32161 -10.4565,0.44014c-0.57544,0.16981 -1.15974,0.22572 -1.70343,0.05279c-1.7821,0.04958 -3.56871,0.0803 -5.36264,0.0803c-5.76636,0 -11.34657,0.32442 -17.08663,0.67611c-4.60042,0.28187 -9.22118,0.309 -13.84846,0.2477c-0.25647,1.08228 -0.52962,2.16091 -0.83408,3.23299c0,0 -0.48077,1.68266 -2.16344,1.20189c-1.68266,-0.48077 -1.20189,-2.16344 -1.20189,-2.16344c0.22272,-0.7744 0.4287,-1.55265 0.62347,-2.33356c-6.86914,-0.14217 -13.74481,-0.38474 -20.58188,-0.18455c-4.33087,0.12681 -8.60563,0.67796 -12.94763,0.67934c-8.71051,0.0227 -17.57376,0.00826 -26.23918,0.77437c-4.19623,0.37099 -8.32869,1.62061 -12.53688,1.9339c-4.59563,0.34213 -9.33972,-0.51026 -13.91612,-0.00828c-5.43599,0.59627 -11.03343,1.95394 -16.45773,2.85184c-10.428,1.66958 -21.40721,2.60264 -31.95817,3.2671c-8.66696,0.54582 -17.6181,-0.1733 -26.23343,0.66816c-2.81447,0.27489 -5.61595,1.2764 -8.40935,1.75212c-6.66816,1.13211 -13.63203,1.87818 -20.19057,3.54914c0.19733,0.25397 0.33433,0.60661 0.33433,1.09625c0,1.75 -1.75,1.75 -1.75,1.75h-1.35649c-3.59129,-0.01884 -6.87074,1.24563 -10.3715,1.81659c-1.39827,0.5657 -2.78894,1.12656 -4.171,1.6582c-0.36483,0.14034 -6.63831,2.56281 -6.84215,2.6001c-3.59588,0.65787 -7.50257,-0.6488 -11.17152,-0.6488c0,0 -1.00966,0 -1.49517,-0.76691c-0.03013,0.00995 -0.06026,0.01993 -0.09038,0.02997c-4.30296,0.86043 -8.80863,1.53914 -13.16356,2.08488c-1.75785,0.22029 -3.55656,-0.23199 -5.31478,-0.01463c-4.95854,0.613 -8.99239,4.28533 -13.04842,6.58721c-1.70507,0.96766 -3.71459,1.27567 -5.49628,2.09371c-6.08584,2.79425 -9.9826,7.6412 -13.54481,12.98538c-4.23427,5.64249 -8.19257,12.20054 -10.61741,18.76246c-1.6795,4.54493 -3.94122,8.87682 -3.32713,13.85913c0.94132,7.63723 5.22819,14.30494 8.55449,21.02655c3.00706,3.55525 6.13472,7.52836 9.79868,10.44039c4.78548,3.80338 11.98982,7.95303 17.79132,9.88804c3.80865,1.27032 8.14546,1.68398 12.06811,2.6713c5.24358,1.31979 10.20431,2.98825 15.51555,4.05051c7.4124,1.50245 14.68486,-1.08451 22.13252,-0.70974c6.44486,0.32431 12.89815,1.02736 19.44253,0.68085c4.76701,-0.25241 9.48827,-1.69057 14.26805,-2.03644c3.16176,-0.22879 6.43542,-0.00338 9.60429,-0.00338c3.14731,0 6.28605,-0.03872 9.42027,-0.09766c-0.88995,-10.55854 -3.16075,-21.15212 -3.70709,-31.75751zM291.26826,360.28551c-0.00173,-9.18925 -0.99855,-18.11119 0.01311,-27.23524c0.33187,-2.99313 -0.14657,-5.74442 0.49945,-8.72254c0.11568,-0.53328 -0.5433,0.95833 -0.91641,1.35652c-1.42622,1.52208 -2.88682,3.01358 -4.25993,4.58374c-4.64007,5.3003 -10.23648,9.23448 -15.17128,14.16924c-2.13812,2.1381 -3.42838,4.08894 -6.8599,4.14147c-3.63635,0.05567 -6.02043,-2.0107 -9.00649,-3.59786c-6.59346,-3.50459 -12.84201,-9.09172 -18.9594,-13.54854c-1.77264,-0.61452 -3.03104,-2.21724 -4.62018,-3.21451c-0.82469,-0.51753 -1.97159,-0.3216 -2.79912,-0.83457c-0.41298,-0.25599 -0.16568,-1.28341 -0.65112,-1.30415c-0.45405,-0.01939 0.38409,0.84222 0.42762,1.2946c0.10491,1.09037 0.01134,2.19079 0.01311,3.2862c0.00538,3.33533 0.28655,6.55331 0.66692,9.8666c0.96178,8.3779 2.42338,16.94383 3.07227,25.40696c8.79876,-0.20094 17.57375,-0.50664 26.41453,-0.50664c10.04132,0 20.41329,0.74395 30.37146,-0.67388c0.66172,-0.00111 1.32314,-0.00195 1.9843,-0.00288c-0.12443,-1.46523 -0.21863,-2.93722 -0.21892,-4.46453zM464.89083,210.12957c-0.0446,-4.77112 0.11551,-10.68264 -1.93377,-15.13658c-0.20434,-0.44412 -0.77605,0.61671 -1.05682,1.01691c-1.08172,1.54183 -2.1485,3.09515 -3.27938,4.6013c-2.06224,2.74657 -4.32163,4.91397 -6.64802,7.42031c-2.34263,2.52384 -4.80249,5.08319 -7.05401,7.67761c-2.97511,3.42822 -4.98789,7.7791 -8.24938,10.96934c-1.439,1.40757 -3.12254,2.60463 -4.30943,4.23044c-1.13189,1.52468 -2.56088,3.55815 -4.13008,5.29763c1.71775,-0.07583 3.4346,-0.15282 5.15301,-0.21838c0.45262,-0.01727 6.18109,0.54258 6.89029,0.57203c9.41867,0.39107 18.77382,0.49806 28.12745,0.88065c-2.6344,-8.86326 -3.48921,-18.04766 -3.50985,-27.31126zM415.65004,231.0896c-5.43121,-8.71414 -9.8199,-17.93832 -15.78518,-26.31849c-1.32496,-1.86133 -2.49453,-3.84302 -3.96992,-5.58752c-0.17005,-0.20107 -0.36223,-0.38426 -0.56363,-0.55966c0.15565,1.77296 0.32161,3.5633 0.18559,5.23621c-0.25625,3.15161 -1.70539,6.09784 -2.46051,9.12402c-1.29723,5.19871 -3.07381,9.94568 -4.77658,15.01873c-1.04762,3.12116 -1.73524,6.31147 -2.43163,9.49736c4.30743,0.04596 8.60811,0.00429 12.8904,-0.26118c5.79614,-0.35933 11.43876,-0.68045 17.26098,-0.68045c0.80732,0 1.61318,-0.00669 2.41784,-0.0188c-1.12982,-2.04217 -2.12209,-4.4149 -2.76737,-5.45022zM167.40616,261.64537c-0.8624,0.05657 -1.72382,0.12217 -2.58342,0.20259c0.82459,0.02662 1.62921,-0.01361 2.39912,-0.16455c0.06161,-0.01208 0.12304,-0.02477 0.1843,-0.03804z" fill="#000000" stroke="none" stroke-width="0.5"/><path d="M291.31321,360.30742c0.00029,1.52731 0.09192,3.00393 0.21635,4.46916c-0.66116,0.00093 -1.32339,0.00302 -1.98511,0.00413c-9.95817,1.41783 -20.37407,0.69601 -30.41539,0.69601c-8.84078,0 -17.65317,0.28606 -26.45193,0.487c-0.64889,-8.46313 -2.12017,-17.06674 -3.08195,-25.44464c-0.38037,-3.31329 -0.65746,-6.5449 -0.66284,-9.88023c-0.00177,-1.09541 0.0937,-2.19953 -0.01121,-3.2899c-0.04353,-0.45238 -0.88104,-1.31506 -0.42699,-1.29567c0.48544,0.02074 0.32438,1.09878 0.73736,1.35477c0.82753,0.51297 1.88815,0.26649 2.71284,0.78402c1.58914,0.99727 2.93366,2.65081 4.7063,3.26533c6.11739,4.45682 12.37269,10.01987 18.96615,13.52446c2.98606,1.58716 5.28079,3.62167 8.91714,3.566c3.43152,-0.05253 4.71122,-1.96974 6.84934,-4.10784c4.9348,-4.93476 10.53748,-8.84736 15.17755,-14.14766c1.37311,-1.57016 2.83506,-3.05938 4.26128,-4.58146c0.37311,-0.39819 1.11622,-1.94385 1.00054,-1.41057c-0.64602,2.97812 -0.16276,5.73881 -0.49463,8.73194c-1.01166,9.12405 -0.01656,18.08591 -0.01483,27.27516z" data-paper-data="{&quot;noHover&quot;:false,&quot;origItem&quot;:[&quot;Path&quot;,{&quot;applyMatrix&quot;:true,&quot;segments&quot;:[[[291.26826,360.28551],[0,0],[-0.00173,-9.18925]],[[291.28137,333.05027],[-1.01166,9.12405],[0.33187,-2.99313]],[[291.78082,324.32773],[-0.64602,2.97812],[0.11568,-0.53328]],[[290.86441,325.68424],[0.37311,-0.39819],[-1.42622,1.52208]],[[286.60448,330.26799],[1.37311,-1.57016],[-4.64007,5.3003]],[[271.4332,344.43723],[4.9348,-4.93476],[-2.13812,2.1381]],[[264.5733,348.5787],[3.43152,-0.05253],[-3.63635,0.05567]],[[255.56681,344.98084],[2.98606,1.58716],[-6.59346,-3.50459]],[[236.60741,331.4323],[6.11739,4.45682],[-1.77264,-0.61452]],[[231.98723,328.21779],[1.58914,0.99727],[-0.82469,-0.51753]],[[229.18811,327.38322],[0.82753,0.51297],[-0.41298,-0.25599]],[[228.53699,326.07907],[0.48544,0.02074],[-0.45405,-0.01939]],[[228.96461,327.37367],[-0.04353,-0.45238],[0.10491,1.09037]],[[228.97772,330.65987],[-0.00177,-1.09541],[0.00538,3.33533]],[[229.64464,340.52647],[-0.38037,-3.31329],[0.96178,8.3779]],[[232.71691,365.93343],[-0.64889,-8.46313],[8.79876,-0.20094]],[[259.13144,365.42679],[-8.84078,0],[10.04132,0]],[[289.5029,364.75291],[-9.95817,1.41783],[0.66172,-0.00111]],[[291.4872,364.75003],[-0.66116,0.00093],[-0.12443,-1.46523]],[[291.26828,360.2855],[0.00029,1.52731],[0,0]]],&quot;closed&quot;:true,&quot;fillColor&quot;:[0,0,0,1]}]}" fill="#5cff95" stroke="none" stroke-width="0.5"/><path d="M464.93783,210.11247c0.02064,9.2636 0.86279,18.50146 3.49719,27.36472c-9.35363,-0.38259 -18.76144,-0.47942 -28.18011,-0.8705c-0.7092,-0.02945 -6.44941,-0.59587 -6.90203,-0.5786c-1.71841,0.06556 -3.44057,0.13793 -5.15832,0.21376c1.5692,-1.73948 2.99686,-3.77433 4.12875,-5.29901c1.18689,-1.62581 2.87004,-2.8233 4.30904,-4.23087c3.26149,-3.19024 5.26183,-7.58126 8.23694,-11.00948c2.25152,-2.59442 4.78145,-5.19274 7.12408,-7.71658c2.32639,-2.50634 4.59289,-4.66982 6.65513,-7.41639c1.13088,-1.50615 2.19799,-3.05925 3.27971,-4.60108c0.28077,-0.4002 0.85298,-1.46069 1.05732,-1.01657c2.04928,4.45394 1.90771,10.38948 1.95231,15.1606z" data-paper-data="{&quot;noHover&quot;:false,&quot;origItem&quot;:[&quot;Path&quot;,{&quot;applyMatrix&quot;:true,&quot;segments&quot;:[[[929.78166,420.25913],[0,0],[-0.0892,-9.54224]],[[925.91412,389.98597],[4.09856,8.90788],[-0.40868,-0.88824]],[[923.80048,392.01979],[0.56154,-0.8004],[-2.16344,3.08366]],[[917.24172,401.22239],[2.26176,-3.0123],[-4.12448,5.49314]],[[903.94568,416.06301],[4.65278,-5.01268],[-4.68526,5.04768]],[[889.83766,431.41823],[4.50304,-5.18884],[-5.95022,6.85644]],[[873.3389,453.35691],[6.52298,-6.38048],[-2.878,2.81514]],[[864.72004,461.81779],[2.37378,-3.25162],[-2.26378,3.04936]],[[856.45988,472.41305],[3.1384,-3.47896],[3.4355,-0.15166]],[[866.7659,471.97629],[-3.43682,0.13112],[0.90524,-0.03454]],[[880.54648,473.12035],[-1.4184,-0.0589],[18.83734,0.78214]],[[936.80138,474.88165],[-18.70726,-0.76518],[-5.2688,-17.72652]],[[929.78168,420.25913],[0.04128,18.5272],[0,0]]],&quot;closed&quot;:true,&quot;fillColor&quot;:[0,0,0,1]}]}" fill="#5cff95" stroke="none" stroke-width="0.5"/><path d="M415.68605,231.12429c0.64528,1.03532 1.63461,3.41087 2.76443,5.45304c-0.80466,0.01211 -1.61359,0.0213 -2.42091,0.0213c-5.82222,0 -11.50356,0.33035 -17.2997,0.68968c-4.28229,0.26547 -8.60637,0.29623 -12.9138,0.25027c0.69639,-3.18589 1.3755,-6.38539 2.42311,-9.50655c1.70277,-5.07305 3.47636,-9.87359 4.7736,-15.0723c0.75512,-3.02618 2.22677,-5.99329 2.48302,-9.1449c0.13602,-1.67291 -0.02535,-3.46512 -0.18099,-5.23808c0.2014,0.1754 0.39441,0.35831 0.56446,0.55938c1.47539,1.7445 2.65224,3.72438 3.97719,5.58571c5.96528,8.38017 10.39839,17.68832 15.8296,26.40246z" data-paper-data="{&quot;noHover&quot;:false,&quot;origItem&quot;:[&quot;Path&quot;,{&quot;applyMatrix&quot;:true,&quot;segments&quot;:[[[831.30008,462.17919],[0,0],[-10.86242,-17.42828]],[[799.72972,409.54221],[11.93056,16.76034],[-2.64992,-3.72266]],[[791.78988,398.36717],[2.95078,3.489],[-0.3401,-0.40214]],[[790.66262,397.24785],[0.4028,0.3508],[0.3113,3.54592]],[[791.0338,407.72027],[0.27204,-3.34582],[-0.5125,6.30322]],[[786.11278,425.96831],[1.51024,-6.05236],[-2.59446,10.39742]],[[776.55962,456.00577],[3.40554,-10.1461],[-2.09524,6.24232]],[[771.69636,475.00049],[1.39278,-6.37178],[8.61486,0.09192]],[[797.47716,474.47813],[-8.56458,0.53094],[11.59228,-0.71866]],[[831.99912,473.11723],[-11.64444,0],[1.61464,0]],[[836.8348,473.07963],[-1.60932,0.02422],[-2.25964,-4.08434]],[[831.30006,462.17919],[1.29056,2.07064],[0,0]]],&quot;closed&quot;:true,&quot;fillColor&quot;:[0,0,0,1]}]}" fill="#5cff95" stroke="none" stroke-width="0.5"/><path d="M225.52785,334.23531c0.54634,10.60539 2.81122,21.18629 3.70117,31.74483c-3.13422,0.05894 -6.35785,0.15047 -9.50516,0.15047c-3.16887,0 -6.44346,-0.22705 -9.60522,0.00174c-4.77978,0.34587 -9.50185,1.78248 -14.26886,2.03489c-6.54438,0.34651 -12.99888,-0.35916 -19.44374,-0.68347c-7.44766,-0.37477 -14.72095,2.21013 -22.13335,0.70768c-5.31124,-1.06226 -10.27276,-2.73296 -15.51634,-4.05275c-3.92265,-0.98732 -8.25991,-1.40243 -12.06856,-2.67275c-5.8015,-1.93501 -13.00665,-6.08784 -17.79213,-9.89122c-3.66396,-2.91203 -6.79213,-6.88779 -9.79919,-10.44304c-3.3263,-6.72161 -7.61372,-13.39402 -8.55504,-21.03125c-0.61409,-4.98231 1.64751,-9.31715 3.32701,-13.86208c2.42484,-6.56192 6.38328,-13.12421 10.61755,-18.7667c3.56221,-5.34418 7.45933,-10.19446 13.54517,-12.98871c1.78169,-0.81804 3.79131,-1.12674 5.49638,-2.0944c4.05603,-2.30188 8.09028,-5.9764 13.04882,-6.5894c1.75822,-0.21736 3.55699,0.23464 5.31484,0.01435c4.35493,-0.54574 8.8609,-1.22578 13.16386,-2.08621c0.03012,-0.01004 0.15752,0.00317 0.18765,-0.00678c0.48551,0.76691 1.39787,0.74381 1.39787,0.74381c3.66895,0 7.57578,1.30609 11.17166,0.64822c0.20384,-0.03729 6.47766,-2.46106 6.84249,-2.6014c1.38206,-0.53164 2.77298,-1.09336 4.17125,-1.65906c3.50076,-0.57096 6.78071,-1.837 10.372,-1.81816l1.35654,-0.00014c0,0 1.75026,-0.00075 1.75026,-1.75075c0,-0.48964 -0.13689,-0.84259 -0.33422,-1.09656c6.55854,-1.67096 13.52398,-2.42086 20.19214,-3.55297c2.7934,-0.47572 5.59584,-1.4792 8.41031,-1.75409c8.61533,-0.84146 17.5699,-0.12806 26.23686,-0.67388c10.55096,-0.66446 21.54007,-1.60809 31.96807,-3.27767c5.4243,-0.8979 11.0311,-2.26147 16.46709,-2.85774c4.5764,-0.50198 9.33006,0.34693 13.92569,0.0048c4.20819,-0.31329 8.35079,-1.56439 12.54702,-1.93538c8.66542,-0.76611 17.54842,-0.74849 26.25893,-0.77119c4.342,-0.00138 8.62412,-0.54904 12.95499,-0.67585c6.83707,-0.20019 13.72128,0.04861 20.59042,0.19078c-0.19477,0.78091 -0.40026,1.55961 -0.62298,2.33401c0,0 -0.47974,1.68366 1.20292,2.16443c1.68267,0.48077 2.09297,-1.13094 2.09297,-1.13094c0.30446,-1.07208 0.64768,-2.22205 0.90415,-3.30433c4.62728,0.0613 9.25147,0.03783 13.85189,-0.24404c5.74006,-0.35169 11.32315,-0.67237 17.08951,-0.67237c1.79393,0 3.58127,-0.02965 5.36337,-0.07923c0.54369,0.17293 1.1282,0.11734 1.70364,-0.05247c3.49228,-0.11853 6.97178,-0.29334 10.45761,-0.43836c3.29025,-0.13688 6.74735,0.57429 10.06943,0.57504c8.49894,0.00191 16.98249,0.24041 25.44472,0.73405c0.12762,0.51848 0.5147,1.30487 1.68741,1.30487c1.02497,0 1.44957,-0.60042 1.6255,-1.09785c4.35105,0.28894 8.69749,0.64891 13.03768,1.08011c9.99038,1.99851 21.35413,4.93563 30.33612,9.86934c2.04027,1.1207 3.79595,2.71402 5.82954,3.84682c4.59588,2.56011 10.56487,4.61966 14.46,8.23373c0.8105,0.75202 1.19832,1.88007 1.98045,2.66155c2.52756,2.52544 4.96241,4.23575 7.19471,7.14013c6.41015,7.71789 9.14333,16.90268 11.32722,26.60512c1.18185,5.25065 2.0789,10.86385 1.33638,16.2956c-0.5896,4.31306 -4.1657,8.91483 -6.25007,12.6666c-2.27007,4.20754 -6.57003,8.04449 -10.57769,10.54763c-2.94641,1.84029 -5.36625,4.46796 -8.27197,6.35508c-4.90127,3.18314 -11.23983,5.91499 -16.80448,7.59248c-7.4926,2.25868 -15.50724,2.07576 -23.17047,3.3506c-15.04499,2.19016 -30.11154,0.92564 -45.2214,0.18576c-7.20929,-0.35302 -14.31216,0.11444 -21.48917,-0.77081c-5.75147,-0.00388 -11.48955,-0.88217 -17.2387,-0.67724c-4.9744,0.17731 -9.91144,1.14633 -14.86137,1.36289c-9.2127,0.40305 -19.02194,-0.11668 -28.13803,1.3521c-3.00725,0.48453 -5.65949,1.44569 -8.70285,1.84835c-5.88139,0.78417 -11.58026,0.41945 -17.44618,0.88702c-8.14077,0.6489 -16.25258,2.04662 -24.40191,2.70969c-6.82487,0.55531 -13.64523,0.64632 -20.47223,0.66925c-0.05066,-0.36147 -0.08829,-0.71418 -0.1044,-1.05431c-0.41963,-8.85789 -1.70331,-18.67504 -0.70068,-27.50708c0.37287,-3.28461 0.9054,-6.32396 0.68572,-9.71463c-0.10036,-1.54909 0.51593,-3.47358 -0.51576,-4.63349c-0.8773,-0.98633 -2.56828,-0.72504 -3.85438,-0.42763c-1.93309,0.44701 -5.17519,5.15103 -6.34483,6.48702c-3.83463,4.38466 -8.49024,7.48575 -12.53873,11.52193c-1.59518,1.59033 -4.37402,5.7148 -7.02596,5.64831c-4.12192,-0.10334 -8.75635,-3.90726 -11.71786,-6.37481c-4.54492,-3.78685 -9.74579,-7.00522 -14.58345,-10.40621c-1.70793,-0.54349 -2.87823,-2.14659 -4.39974,-3.0939c-0.92242,-0.57431 -2.08398,-0.62288 -3.10336,-0.99913c-1.1562,-0.42675 -2.22849,-2.00032 -3.32044,-1.42885c-2.82335,1.47759 -1.92146,8.99667 -1.79609,11.43022z" data-paper-data="{&quot;noHover&quot;:false,&quot;origItem&quot;:[&quot;Path&quot;,{&quot;applyMatrix&quot;:true,&quot;segments&quot;:[[[225.48002,334.24991],[0,0],[-0.12537,-2.43355]],[[227.27484,322.81457],[-2.82335,1.47759],[1.09195,-0.57147]],[[230.69325,324.2234],[-1.1562,-0.42675],[1.01938,0.37625]],[[233.79642,325.22167],[-0.92242,-0.57431],[1.52151,0.94731]],[[238.1956,328.3134],[-1.70793,-0.54349],[4.83766,3.40099]],[[252.77592,338.71137],[-4.54492,-3.78685],[2.96151,2.46755]],[[264.49002,345.0797],[-4.12192,-0.10334],[2.65194,0.06649]],[[271.43321,339.48751],[-1.59518,1.59033],[4.04849,-4.03618]],[[283.97046,327.96324],[-3.83463,4.38466],[1.16964,-1.33599]],[[290.3138,321.47353],[-1.93309,0.44701],[1.2861,-0.29741]],[[294.2557,321.85288],[-0.8773,-0.98633],[1.03169,1.15991]],[[294.76826,326.48161],[-0.10036,-1.54909],[0.21968,3.39067]],[[294.07698,336.19006],[0.37287,-3.28461],[-1.00263,8.83204]],[[294.76559,363.68875],[-0.41963,-8.85789],[0.01611,0.34013]],[[294.86962,364.74288],[-0.05066,-0.36147],[6.827,-0.02293]],[[315.32743,364.06917],[-6.82487,0.55531],[8.14933,-0.66307]],[[339.70896,361.36065],[-8.14077,0.6489],[5.86592,-0.46757]],[[357.14297,360.4787],[-5.88139,0.78417],[3.04336,-0.40266]],[[365.84069,358.63378],[-3.00725,0.48453],[9.11609,-1.46878]],[[393.96927,357.29111],[-9.2127,0.40305],[4.94993,-0.21656]],[[408.82775,355.93242],[-4.9744,0.17731],[5.74915,-0.20493]],[[426.06464,356.61287],[-5.75147,-0.00388],[7.17701,0.88525]],[[447.55235,357.38677],[-7.20929,-0.35302],[15.10986,0.73988]],[[492.77196,357.20582],[-15.04499,2.19016],[7.66323,-1.27484]],[[515.94172,353.85769],[-7.4926,2.25868],[5.56465,-1.67749]],[[532.74559,346.26786],[-4.90127,3.18314],[2.90572,-1.88712]],[[541.01724,339.91454],[-2.94641,1.84029],[4.00766,-2.50314]],[[551.59457,329.36954],[-2.27007,4.20754],[2.08437,-3.75177]],[[557.84441,316.70577],[-0.5896,4.31306],[0.74252,-5.43175]],[[556.50796,300.41366],[1.18185,5.25065],[-2.18389,-9.70244]],[[545.1812,273.81454],[6.41015,7.71789],[-2.2323,-2.90438]],[[537.98678,266.67624],[2.52756,2.52544],[-0.78213,-0.78148]],[[536.00645,264.01537],[0.8105,0.75202],[-3.89513,-3.61407]],[[521.54701,255.78423],[4.59588,2.56011],[-2.03359,-1.1328]],[[515.71779,251.93866],[2.04027,1.1207],[-8.98199,-4.93371]],[[485.38325,242.07414],[9.99038,1.99851],[-4.34019,-0.4312]],[[472.34623,240.99567],[4.35105,0.28894],[-0.17593,0.49743]],[[470.72068,242.09341],[1.02497,0],[-1.17271,0]],[[469.0335,240.78908],[0.12762,0.51848],[-8.46223,-0.49364]],[[443.59053,240.05864],[8.49894,0.00191],[-3.32208,-0.00075]],[[433.52212,239.48541],[3.29025,-0.13688],[-3.48583,0.14502]],[[423.06562,239.92555],[3.49228,-0.11853],[-0.57544,0.16981]],[[421.36219,239.97834],[0.54369,0.17293],[-1.7821,0.04958]],[[415.99955,240.05864],[1.79393,0],[-5.76636,0]],[[398.91292,240.73475],[5.74006,-0.35169],[-4.60042,0.28187]],[[385.06446,240.98245],[4.62728,0.0613],[-0.25647,1.08228]],[[384.23038,244.21544],[0.30446,-1.07208],[0,0]],[[382.06694,245.41733],[1.68267,0.48077],[-1.68266,-0.48077]],[[380.86505,243.25389],[0,0],[0.22272,-0.7744]],[[381.48852,240.92033],[-0.19477,0.78091],[-6.86914,-0.14217]],[[360.90664,240.73578],[6.83707,-0.20019],[-4.33087,0.12681]],[[347.95901,241.41512],[4.342,-0.00138],[-8.71051,0.0227]],[[321.71983,242.18949],[8.66542,-0.76611],[-4.19623,0.37099]],[[309.18295,244.12339],[4.20819,-0.31329],[-4.59563,0.34213]],[[295.26683,244.11511],[4.5764,-0.50198],[-5.43599,0.59627]],[[278.8091,246.96695],[5.4243,-0.8979],[-10.428,1.66958]],[[246.85093,250.23405],[10.55096,-0.66446],[-8.66696,0.54582]],[[220.6175,250.90221],[8.61533,-0.84146],[-2.81447,0.27489]],[[212.20815,252.65433],[2.7934,-0.47572],[-6.66816,1.13211]],[[192.01758,256.20347],[6.55854,-1.67096],[0.19733,0.25397]],[[192.35191,257.29972],[0,-0.48964],[0,1.75]],[190.60191,259.04972],[[189.24542,259.04972],[0,0],[-3.59129,-0.01884]],[[178.87392,260.86631],[3.50076,-0.57096],[-1.39827,0.5657]],[[174.70292,262.52451],[1.38206,-0.53164],[-0.36483,0.14034]],[[167.86077,265.12461],[0.20384,-0.03729],[-3.59588,0.65787]],[[156.68925,264.47581],[3.66895,0],[0,0]],[[155.19408,263.7089],[0.48551,0.76691],[-0.03013,0.00995]],[[155.1037,263.73887],[0.03012,-0.01004],[-4.30296,0.86043]],[[141.94014,265.82375],[4.35493,-0.54574],[-1.75785,0.22029]],[[136.62536,265.80912],[1.75822,-0.21736],[-4.95854,0.613]],[[123.57694,272.39633],[4.05603,-2.30188],[-1.70507,0.96766]],[[118.08066,274.49004],[1.78169,-0.81804],[-6.08584,2.79425]],[[104.53585,287.47542],[3.56221,-5.34418],[-4.23427,5.64249]],[[93.91844,306.23788],[2.42484,-6.56192],[-1.6795,4.54493]],[[90.59131,320.09701],[-0.61409,-4.98231],[0.94132,7.63723]],[[99.1458,341.12356],[-3.3263,-6.72161],[3.00706,3.55525]],[[108.94448,351.56395],[-3.66396,-2.91203],[4.78548,3.80338]],[[126.7358,361.45199],[-5.8015,-1.93501],[3.80865,1.27032]],[[138.80391,364.12329],[-3.92265,-0.98732],[5.24358,1.31979]],[[154.31946,368.1738],[-5.31124,-1.06226],[7.4124,1.50245]],[[176.45198,367.46406],[-7.44766,-0.37477],[6.44486,0.32431]],[[195.89451,368.14491],[-6.54438,0.34651],[4.76701,-0.25241]],[[210.16256,366.10847],[-4.77978,0.34587],[3.16176,-0.22879]],[[219.76685,366.10509],[-3.16887,0],[3.14731,0]],[[229.18712,366.00743],[-3.13422,0.05894],[-0.88995,-10.55854]],[[225.48003,334.24992],[0.54634,10.60539],[0,0]]],&quot;closed&quot;:true,&quot;fillColor&quot;:[0,0,0],&quot;strokeWidth&quot;:0.5}]}" fill="#a8dbff" stroke="none" stroke-width="0.25"/><path d="M83.64604,381.12012v-393.39019h489.33902v393.3902z" fill="none" stroke="#000000" stroke-width="0"/></g></g></svg>