<svg version="1.1" xmlns="http://www.w3.org/2000/svg" xmlns:xlink="http://www.w3.org/1999/xlink" width="489.33902" height="393.3902" viewBox="0,0,489.33902,393.3902"><g transform="translate(-83.64604,12.27008)"><g data-paper-data="{&quot;isPaintingLayer&quot;:true}" fill-rule="nonzero" stroke-linecap="butt" stroke-linejoin="miter" stroke-miterlimit="10" stroke-dasharray="" stroke-dashoffset="0" style="mix-blend-mode: normal"><path d="M166.47728,380.16319c-1.4561,0.97071 -2.42681,-0.48538 -2.42681,-0.48538l-1.47244,-2.23662c-0.60846,-1.78649 -1.17403,-3.59036 -1.69655,-5.40688c-2.39616,0.12027 -4.80496,0.05426 -7.24839,-0.42846c-5.36905,-1.07382 -10.38768,-2.75547 -15.6841,-4.08857c-4.01701,-1.01107 -8.44751,-1.44837 -12.34903,-2.75472c-6.19316,-2.07366 -13.72653,-6.39951 -18.83435,-10.45956c-3.95021,-3.13991 -7.35816,-7.38904 -10.54892,-11.2637c-3.59739,-7.13027 -8.05351,-14.26349 -9.08014,-22.38163c-0.78586,-6.21424 1.99507,-13.54645 4.60537,-19.10771c0.95875,-2.04262 2.64908,-3.6735 3.68734,-5.67688c1.89887,-3.66399 3.73222,-7.06105 6.24943,-10.41916c3.90773,-5.86075 8.34317,-11.04427 14.94179,-14.14473c1.63026,-0.766 3.51179,-0.96352 5.07261,-1.86261c4.47462,-2.57755 8.9149,-6.35989 14.36493,-7.09117c1.82937,-0.24546 3.70692,0.22342 5.53727,-0.01463c4.17354,-0.5428 8.48325,-1.15893 12.61007,-1.98466c7.36915,-2.45633 15.12063,-2.15651 22.70749,-2.7672c0.33611,-0.02705 0.66923,-0.06242 0.99985,-0.10462l-0.00002,0.00001c4.23703,-1.70911 8.53975,-3.44624 12.88716,-4.58038c6.75345,-1.76182 13.94228,-2.53212 20.82251,-3.70023c2.88037,-0.48743 5.74646,-1.49675 8.65033,-1.78447c4.08188,-0.40444 8.32971,0.12181 12.43458,-0.00765c15.02844,-0.47394 30.68694,-1.50923 45.53875,-3.89905c5.46795,-0.90508 11.11042,-2.27534 16.59324,-2.87122c4.64142,-0.50443 9.42857,0.33829 14.08388,-0.00828c4.19035,-0.31195 8.30851,-1.56168 12.48904,-1.93c8.76692,-0.77241 17.73113,-0.76496 26.54231,-0.78791c4.30097,0.00142 8.5355,-0.55022 12.826,-0.67707c12.61446,-0.37295 25.3658,0.78168 37.95812,0.00103c5.79614,-0.35933 11.43876,-0.68045 17.26098,-0.68045c5.83929,0 11.60249,-0.34992 17.38337,-0.57046c0.45262,-0.01727 6.18109,0.54258 6.89029,0.57203c11.1235,0.46185 22.1584,0.52749 33.20683,1.1188c1.55259,-3.15054 3.07831,-6.32305 4.72004,-9.42395c0.98026,-1.85151 2.3889,-3.49924 3.08749,-5.47432c2.46909,-6.98064 3.19722,-14.55926 5.39639,-21.61686c0.84233,-2.70322 2.77734,-5.28846 3.36968,-8.06354c0.37647,-1.76377 0.43364,-3.58088 0.66445,-5.36955l0.09543,-0.14995l-0.04899,-0.01633l0.66548,-1.99652c0.21992,-0.7151 0.88574,-1.2349 1.67296,-1.2349c0.61707,0 1.15954,0.31938 1.47114,0.80185l1.92641,2.88958l-0.39543,0.26362c1.97436,2.85514 3.40274,5.85004 5.27194,9.18198c3.14186,5.6005 6.58667,11.01368 9.90807,16.48903c1.4894,2.45529 3.11551,5.35991 4.3925,7.93493c0.64742,1.30551 0.64771,3.88705 2.1039,3.83213c4.43435,-0.16727 8.59434,-6.20899 11.38803,-9.00263c3.61286,-3.61045 6.52496,-7.77029 10.05789,-11.40237c0.85554,-0.87955 1.31147,-2.61534 2.5374,-2.66678c1.32349,-0.05553 2.47815,1.28419 3.14572,2.42832c0.53272,0.91302 -0.02208,2.12146 0.12009,3.16891c0.28169,2.0754 0.60016,4.1528 0.68984,6.24531c0.51964,12.12499 0.84063,23.97576 0.00046,36.08086c-0.0121,4.919 0.86744,9.81063 1.3491,14.68849c0.17722,1.79472 0.18918,3.64777 0.15233,5.50662c0.23334,0.27544 0.46408,0.55991 0.69191,0.85517c6.75524,8.13057 9.7106,17.80234 12.00843,28.01767c1.26973,5.64475 2.2375,11.78673 1.37652,17.62059c-0.71053,4.81444 -4.3183,9.61469 -6.64511,13.80291c-2.67988,4.71209 -7.24026,8.9729 -11.79683,11.82252c-2.91973,1.82597 -5.32156,4.43843 -8.20536,6.31132c-5.17342,3.35989 -11.82286,6.23389 -17.70001,8.00559c-7.66057,2.30933 -15.80958,2.14768 -23.64008,3.4552c-15.28668,2.22616 -30.57837,0.9704 -45.93066,0.21865c-7.2239,-0.35373 -14.3424,0.13575 -21.53401,-0.77647c-5.63621,0.00391 -11.26052,-0.88176 -16.89322,-0.67596c-4.94531,0.18068 -9.84534,1.12913 -14.76719,1.3542c-9.10094,0.41619 -18.78423,-0.14603 -27.78932,1.30487c-3.01526,0.48582 -5.73006,1.44759 -8.7919,1.85878c-5.96134,0.79483 -11.73803,0.42364 -17.67909,0.90589c-8.11828,0.65898 -16.18726,2.04242 -24.31518,2.70375c-8.62163,0.7015 -17.21775,0.70252 -25.86027,0.68648c-10.03514,1.43864 -20.49938,0.68269 -30.61958,0.68269c-9.76415,0 -19.44836,0.37292 -29.17318,0.56573c0.28357,0.3747 0.83244,1.34384 -0.13671,2.31297c-1.23745,1.23742 -2.47487,-0.00004 -2.47487,-0.00004c-0.71921,-0.72114 -1.41434,-1.4679 -2.08836,-2.23613c-1.8281,0.02261 -3.65832,0.03575 -5.49145,0.03575c-3.09539,0 -6.29867,-0.2292 -9.38683,-0.00338c-4.76544,0.34847 -9.46315,1.77071 -14.21863,2.03302c-6.691,0.36907 -13.30404,-0.31306 -19.89611,-0.67564c-3.97987,-0.2189 -7.86865,0.37353 -11.76149,0.78027c0.36901,1.39167 0.76921,2.77958 1.2183,4.16409l1.24053,1.83292c0,0 0.97071,1.4561 -0.48538,2.42681zM159.04755,364.82993c-0.58087,-2.61367 -0.10387,-3.14624 -1.23363,-5.73591c-2.45676,-5.63147 -4.81452,-11.7712 -6.31906,-17.84458c-0.78136,-3.15412 -3.62684,-12.25122 1.45998,-13.77087c1.11345,-0.33263 2.07665,1.04747 3.14679,1.5005c2.85376,1.2081 4.61765,2.96345 7.07537,4.92863c1.75284,1.2821 3.18911,2.95036 4.84109,4.36004c3.48543,2.97421 7.88047,4.98921 11.48481,7.88638c1.22037,0.98094 5.10749,5.3572 7.03811,4.48429c1.6108,-0.7283 1.98061,-4.34509 2.39007,-5.68605c1.45893,-4.77793 4.34413,-9.11338 5.37328,-14.02577c0.55444,-2.64648 -1.34536,-4.82008 2.72828,-6.83756c1.03644,-0.5133 1.96388,1.22226 2.94581,1.83339c1.74588,1.75442 4.14056,2.91217 5.59238,4.94026c2.00449,2.80012 2.85962,6.06033 4.24889,9.11656c1.50813,3.31773 4.13,6.22382 6.01917,9.33657c3.39389,5.59203 6.76023,11.60563 11.00282,16.73162c10.77399,-0.16385 21.48269,-0.62065 32.2897,-0.62065c10.04132,0 20.41329,0.74395 30.37146,-0.67388c8.63161,-0.01451 17.213,0.01693 25.82455,-0.68376c8.14933,-0.66307 16.24076,-2.05962 24.38153,-2.70852c5.86592,-0.46757 11.55262,-0.09778 17.43401,-0.88195c3.04336,-0.40266 5.69047,-1.36039 8.69772,-1.84492c9.11609,-1.46878 18.91588,-0.93962 28.12858,-1.34267c4.94993,-0.21656 9.88408,-1.18138 14.85848,-1.35869c5.74915,-0.20493 11.48542,0.67657 17.23689,0.68045c7.17701,0.88525 14.27842,0.42088 21.48771,0.7739c15.10986,0.73988 30.17462,2.00921 45.21961,-0.18095c7.66323,-1.27484 15.67716,-1.08945 23.16976,-3.34813c5.56465,-1.67749 11.9026,-4.40669 16.80387,-7.58983c2.90572,-1.88712 5.32524,-4.51303 8.27165,-6.35332c4.00766,-2.50314 8.30726,-6.33746 10.57733,-10.545c2.08437,-3.75177 5.66024,-8.35071 6.24984,-12.66377c0.74252,-5.43175 -0.1546,-11.04146 -1.33645,-16.29211c-1.95461,-8.68381 -4.34886,-16.94816 -9.4258,-24.12107c-0.0023,0.22625 -0.00357,0.45178 -0.00357,0.67649v1.35653c0,0 0,1.75 -1.75,1.75c-1.75,0 -1.75,-1.75 -1.75,-1.75v-1.35653c0,-1.59955 0.071,-3.24602 0.12185,-4.897c-1.81257,-1.94191 -3.73461,-3.41845 -5.71366,-5.39584c-0.78213,-0.78148 -1.16983,-1.90885 -1.98033,-2.66087c-3.89513,-3.61407 -9.86356,-5.67103 -14.45944,-8.23114c-2.03359,-1.1328 -3.78895,-2.72487 -5.82922,-3.84557c-8.98199,-4.93371 -20.34416,-7.86601 -30.33454,-9.86452c-3.25146,-0.32304 -6.50606,-0.60517 -9.76367,-0.84788c-0.20683,0.33265 -0.97023,1.34238 -2.29022,0.6824c-0.49657,-0.24828 -0.75684,-0.57533 -0.88076,-0.90618c-9.59492,-0.63959 -19.21547,-0.94167 -28.85807,-0.94384c-3.32208,-0.00075 -6.77816,-0.71011 -10.06841,-0.57323c-5.82843,0.24247 -11.63605,0.57323 -17.52257,0.57323c-5.76636,0 -11.34657,0.32442 -17.08663,0.67611c-12.61078,0.77266 -25.37439,-0.36884 -38.00628,0.00103c-4.33087,0.12681 -8.60563,0.67796 -12.94763,0.67934c-8.71051,0.0227 -17.57376,0.00826 -26.23918,0.77437c-4.19623,0.37099 -8.32869,1.62061 -12.53688,1.9339c-4.59563,0.34213 -9.33972,-0.51026 -13.91612,-0.00828c-5.43599,0.59627 -11.03343,1.95394 -16.45773,2.85184c-10.428,1.66958 -21.40721,2.60264 -31.95817,3.2671c-8.66696,0.54582 -17.6181,-0.1733 -26.23343,0.66816c-2.81447,0.27489 -5.61595,1.2764 -8.40935,1.75212c-6.66816,1.13211 -13.63203,1.87818 -20.19057,3.54914c0.19733,0.25397 0.33433,0.60661 0.33433,1.09625c0,1.75 -1.75,1.75 -1.75,1.75h-1.35649c-3.59129,-0.01884 -6.87074,1.24563 -10.3715,1.81659c-1.39827,0.5657 -2.78894,1.12656 -4.171,1.6582c-0.36483,0.14034 -6.63831,2.56281 -6.84215,2.6001c-3.59588,0.65787 -7.50257,-0.6488 -11.17152,-0.6488c0,0 -1.00966,0 -1.49517,-0.76691c-0.03013,0.00995 -0.06026,0.01993 -0.09038,0.02997c-4.30296,0.86043 -8.80863,1.53914 -13.16356,2.08488c-1.75785,0.22029 -3.55656,-0.23199 -5.31478,-0.01463c-4.95854,0.613 -8.99239,4.28533 -13.04842,6.58721c-1.70507,0.96766 -3.71459,1.27567 -5.49628,2.09371c-6.08584,2.79425 -9.9826,7.6412 -13.54481,12.98538c-4.23427,5.64249 -8.19257,12.20054 -10.61741,18.76246c-1.6795,4.54493 -3.94122,8.87682 -3.32713,13.85913c0.94132,7.63723 5.22819,14.30494 8.55449,21.02655c3.00706,3.55525 6.13472,7.52836 9.79868,10.44039c4.78548,3.80338 11.98982,7.95303 17.79132,9.88804c3.80865,1.27032 8.14546,1.68398 12.06811,2.6713c5.24358,1.31979 10.20431,2.98825 15.51555,4.05051c1.88731,0.38255 3.76555,0.49998 5.63992,0.46869c-0.32463,-1.26672 -0.62858,-2.53809 -0.91182,-3.81254zM212.8428,351.12508c-1.95756,-3.22429 -4.60996,-6.22094 -6.18944,-9.65448c-1.30984,-2.84738 -2.06707,-5.87728 -3.89011,-8.51807c-1.20637,-1.74751 -3.3753,-2.82088 -4.96858,-4.27783c0.01431,1.14083 -0.01267,2.71507 -0.04308,2.85743c-0.26173,1.22497 -0.77664,2.38183 -1.17019,3.57102c-1.50455,4.54637 -3.29442,9.22341 -5.01638,13.68967c-0.56743,1.47175 -1.90161,4.39291 -3.68463,5.07919c-4.0932,1.57546 -7.85893,-2.81091 -10.59645,-5.01119c-3.629,-2.91681 -7.99469,-4.94284 -11.52961,-7.92374c-1.61435,-1.36133 -2.98975,-3.00932 -4.7007,-4.24706c-1.57526,-1.26081 -2.87338,-2.8817 -4.58085,-3.95669c-0.5653,-0.35591 -1.34719,-0.24859 -1.90888,-0.61016c-0.42706,-0.27491 -0.45243,-1.02064 -0.92267,-1.21255c-0.255,-0.10407 -0.02894,0.55049 -0.0248,0.82587c0.01027,0.68322 -0.01747,1.37083 0.06802,2.04876c0.58317,4.62433 1.9978,8.72402 3.45304,13.10695c0.91434,2.75384 1.24279,6.07872 2.49546,8.69535c0.90198,1.88409 1.97674,3.73479 2.44217,5.77114c0.54077,2.36598 1.04648,4.71877 1.60029,7.06014c4.24089,-0.40135 8.47957,-1.17103 12.77658,-0.9548c6.44486,0.32431 12.89815,1.02736 19.44253,0.68085c4.76701,-0.25241 9.48827,-1.69057 14.26805,-2.03644c3.16176,-0.22879 6.43542,-0.00338 9.60429,-0.00338c0.89305,0 1.78541,-0.00312 2.67717,-0.00893c-3.57029,-4.74133 -6.58125,-9.99687 -9.60122,-14.97106zM543.5871,265.61121c-0.51063,-5.03985 -1.35311,-10.06969 -1.36403,-15.15467c0.6642,-9.55921 1.07224,-19.2109 0.58258,-28.82207c-0.16997,-3.33613 -0.20148,-6.9411 -0.57052,-10.24218c-0.10356,-0.92639 -0.57422,-1.78664 -0.67824,-2.71297c-0.02223,-0.19798 -0.03551,-0.39759 -0.04005,-0.59775c-0.48658,0.50405 -1.14608,0.9291 -1.62324,1.50038c-2.72144,3.25825 -5.22287,6.58816 -8.24916,9.61651c-3.45247,3.45241 -8.68035,10.67842 -14.38568,9.98849c-3.45151,-0.41738 -3.51056,-3.3684 -4.67869,-5.66343c-0.8288,-1.62835 -1.91332,-3.11749 -2.74784,-4.74292c-3.4694,-6.75751 -7.79189,-12.97459 -11.50763,-19.59805c-1.54155,-2.74788 -3.4741,-5.61293 -4.43433,-8.67276c-0.18236,1.5042 -0.39674,3.23281 -0.45089,3.47763c-0.63118,2.85382 -2.54896,5.43587 -3.41291,8.21461c-2.21164,7.11335 -2.92501,14.7654 -5.45566,21.79133c-0.06469,0.17961 -3.2391,5.82686 -3.27749,5.89937c-1.39639,2.63751 -2.7079,5.32741 -4.02418,8.01101c2.87506,0.1882 5.75182,0.4191 8.63208,0.70893c10.41889,2.08327 22.12417,5.13162 31.49842,10.25655c2.04909,1.12024 3.80762,2.72226 5.849,3.85649c4.87773,2.71016 10.95622,4.91031 15.1239,8.71056c0.8536,0.77834 1.27262,1.9479 2.08913,2.76508c1.08772,1.08861 2.17635,2.05216 3.24351,3.02527c-0.02585,-0.54319 -0.06406,-1.08219 -0.11809,-1.6154zM167.40616,261.64537c-0.8624,0.05657 -1.72382,0.12217 -2.58342,0.20259c0.82459,0.02662 1.62921,-0.01361 2.39912,-0.16455c0.06161,-0.01208 0.12304,-0.02477 0.1843,-0.03804z" fill="#000000" stroke="none" stroke-width="0.5"/><path d="M212.89255,351.13022c3.01997,4.97419 6.02575,10.24726 9.59604,14.98859c-0.89176,0.00581 -1.78491,0.01042 -2.67796,0.01042c-3.16887,0 -6.4471,-0.21855 -9.60886,0.01024c-4.77978,0.34587 -9.52152,1.79936 -14.28853,2.05177c-6.54438,0.34651 -13.04241,-0.36021 -19.48727,-0.68452c-4.29701,-0.21623 -8.54838,0.5424 -12.78927,0.94375c-0.55381,-2.34137 -1.06563,-4.70364 -1.6064,-7.06962c-0.46543,-2.03635 -1.5439,-3.89716 -2.44588,-5.78125c-1.25267,-2.61663 -1.58252,-5.95624 -2.49686,-8.71008c-1.45524,-4.38293 -2.86587,-8.49971 -3.44904,-13.12404c-0.08549,-0.67793 -0.05674,-1.36774 -0.06701,-2.05096c-0.00414,-0.27538 -0.22976,-0.93081 0.02524,-0.82674c0.47024,0.19191 0.58496,0.98254 1.01202,1.25745c0.56169,0.36157 1.34339,0.25462 1.90869,0.61053c1.70747,1.07499 3.00666,2.6936 4.58192,3.95441c1.71095,1.23774 3.08789,2.88178 4.70224,4.24311c3.53492,2.9809 7.90328,4.98927 11.53228,7.90608c2.73752,2.20028 6.45423,6.53813 10.54743,4.96267c1.78302,-0.68628 3.06636,-3.56087 3.63379,-5.03262c1.72196,-4.46626 3.53477,-9.09775 5.03932,-13.64412c0.39355,-1.18919 0.91051,-2.34481 1.17224,-3.56978c0.03041,-0.14236 0.10442,-1.80479 0.09011,-2.94562c1.59328,1.45695 3.77447,2.53886 4.98084,4.28637c1.82304,2.64079 2.59263,5.68926 3.90247,8.53664c1.57948,3.43354 4.23486,6.45307 6.19242,9.67736z" data-paper-data="{&quot;noHover&quot;:false,&quot;origItem&quot;:[&quot;Path&quot;,{&quot;applyMatrix&quot;:true,&quot;segments&quot;:[[[212.8428,351.12508],[0,0],[-1.95756,-3.22429]],[[206.65336,341.4706],[1.57948,3.43354],[-1.30984,-2.84738]],[[202.76325,332.95253],[1.82304,2.64079],[-1.20637,-1.74751]],[[197.79467,328.6747],[1.59328,1.45695],[0.01431,1.14083]],[[197.75159,331.53213],[0.03041,-0.14236],[-0.26173,1.22497]],[[196.5814,335.10315],[0.39355,-1.18919],[-1.50455,4.54637]],[[191.56502,348.79282],[1.72196,-4.46626],[-0.56743,1.47175]],[[187.88039,353.87201],[1.78302,-0.68628],[-4.0932,1.57546]],[[177.28394,348.86082],[2.73752,2.20028],[-3.629,-2.91681]],[[165.75433,340.93708],[3.53492,2.9809],[-1.61435,-1.36133]],[[161.05363,336.69002],[1.71095,1.23774],[-1.57526,-1.26081]],[[156.47278,332.73333],[1.70747,1.07499],[-0.5653,-0.35591]],[[154.5639,332.12317],[0.56169,0.36157],[-0.42706,-0.27491]],[[153.64123,330.91062],[0.47024,0.19191],[-0.255,-0.10407]],[[153.61643,331.73649],[-0.00414,-0.27538],[0.01027,0.68322]],[[153.68445,333.78525],[-0.08549,-0.67793],[0.58317,4.62433]],[[157.13749,346.8922],[-1.45524,-4.38293],[0.91434,2.75384]],[[159.63295,355.58755],[-1.25267,-2.61663],[0.90198,1.88409]],[[162.07512,361.35869],[-0.46543,-2.03635],[0.54077,2.36598]],[[163.67541,368.41883],[-0.55381,-2.34137],[4.24089,-0.40135]],[[176.45199,367.46403],[-4.29701,-0.21623],[6.44486,0.32431]],[[195.89452,368.14488],[-6.54438,0.34651],[4.76701,-0.25241]],[[210.16257,366.10844],[-4.77978,0.34587],[3.16176,-0.22879]],[[219.76686,366.10506],[-3.16887,0],[0.89305,0]],[[222.44403,366.09613],[-0.89176,0.00581],[-3.57029,-4.74133]],[[212.84281,351.12507],[3.01997,4.97419],[0,0]]],&quot;closed&quot;:true,&quot;fillColor&quot;:[0,0,0,1]}]}" fill="#5cff95" stroke="none" stroke-width="0.5"/><path d="M543.62056,265.64836c0.05403,0.53321 0.09151,1.07286 0.11736,1.61605c-1.06716,-0.97311 -2.15618,-1.93633 -3.2439,-3.02494c-0.81651,-0.81718 -1.23536,-1.98689 -2.08896,-2.76523c-4.16768,-3.80025 -10.25511,-5.99429 -15.13284,-8.70445c-2.04138,-1.13423 -3.80716,-2.73308 -5.85625,-3.85332c-9.37425,-5.12493 -21.14234,-8.20211 -31.56123,-10.28538c-2.88026,-0.28983 -5.75878,-0.52603 -8.63384,-0.71423c1.31628,-2.6836 2.62607,-5.38487 4.02246,-8.02238c0.03839,-0.07251 3.21363,-5.73076 3.27832,-5.91037c2.53065,-7.02593 3.26272,-14.70841 5.47436,-21.82176c0.86395,-2.77874 2.79021,-5.36604 3.42139,-8.21986c0.05415,-0.24482 0.27063,-1.9744 0.45299,-3.4786c0.96023,3.05983 2.89368,5.9245 4.43523,8.67238c3.71574,6.62346 8.05395,12.83691 11.52335,19.59442c0.83452,1.62543 1.94051,3.11791 2.76931,4.74626c1.16813,2.29503 1.159,5.29026 4.61051,5.70764c5.70533,0.68993 10.93768,-6.51294 14.39015,-9.96535c3.02629,-3.02835 5.53139,-6.35162 8.25283,-9.60987c0.47716,-0.57128 1.22001,-1.05158 1.70659,-1.55563c0.00454,0.20016 0.01821,0.40035 0.04044,0.59833c0.10402,0.92633 0.57656,1.78971 0.68012,2.7161c0.36904,3.30108 0.40554,6.91924 0.57551,10.25537c0.48966,9.61117 0.07417,19.3019 -0.59003,28.86111c0.01092,5.08498 0.84552,10.12385 1.35615,15.1637z" data-paper-data="{&quot;noHover&quot;:false,&quot;origItem&quot;:[&quot;Path&quot;,{&quot;applyMatrix&quot;:true,&quot;segments&quot;:[[[543.5871,265.61121],[0,0],[-0.51063,-5.03985]],[[542.22307,250.45654],[0.01092,5.08498],[0.6642,-9.55921]],[[542.80565,221.63447],[0.48966,9.61117],[-0.16997,-3.33613]],[[542.23513,211.39229],[0.36904,3.30108],[-0.10356,-0.92639]],[[541.55689,208.67932],[0.10402,0.92633],[-0.02223,-0.19798]],[[541.51684,208.08157],[0.00454,0.20016],[-0.48658,0.50405]],[[539.8936,209.58195],[0.47716,-0.57128],[-2.72144,3.25825]],[[531.64444,219.19846],[3.02629,-3.02835],[-3.45247,3.45241]],[[517.25876,229.18695],[5.70533,0.68993],[-3.45151,-0.41738]],[[512.58007,223.52352],[1.16813,2.29503],[-0.8288,-1.62835]],[[509.83223,218.7806],[0.83452,1.62543],[-3.4694,-6.75751]],[[498.3246,199.18255],[3.71574,6.62346],[-1.54155,-2.74788]],[[493.89027,190.50979],[0.96023,3.05983],[-0.18236,1.5042]],[[493.43938,193.98742],[0.05415,-0.24482],[-0.63118,2.85382]],[[490.02647,202.20203],[0.86395,-2.77874],[-2.21164,7.11335]],[[484.57081,223.99336],[2.53065,-7.02593],[-0.06469,0.17961]],[[481.29332,229.89273],[0.03839,-0.07251],[-1.39639,2.63751]],[[477.26914,237.90374],[1.31628,-2.6836],[2.87506,0.1882]],[[485.90122,238.61267],[-2.88026,-0.28983],[10.41889,2.08327]],[[517.39964,248.86922],[-9.37425,-5.12493],[2.04909,1.12024]],[[523.24864,252.72571],[-2.04138,-1.13423],[4.87773,2.71016]],[[538.37254,261.43627],[-4.16768,-3.80025],[0.8536,0.77834]],[[540.46167,264.20135],[-0.81651,-0.81718],[1.08772,1.08861]],[[543.70518,267.22662],[-1.06716,-0.97311],[-0.02585,-0.54319]],[[543.58709,265.61122],[0.05403,0.53321],[0,0]]],&quot;closed&quot;:true,&quot;fillColor&quot;:[0,0,0,1]}]}" fill="#5cff95" stroke="none" stroke-width="0.5"/><path d="M159.09448,364.81266c0.28324,1.27445 0.5868,2.54479 0.91143,3.81151c-1.87437,0.03129 -3.84593,-0.05021 -5.73324,-0.43276c-5.31124,-1.06226 -10.27276,-2.73296 -15.51634,-4.05275c-3.92265,-0.98732 -8.25991,-1.40243 -12.06856,-2.67275c-5.8015,-1.93501 -13.00665,-6.08784 -17.79213,-9.89122c-3.66396,-2.91203 -6.79213,-6.88779 -9.79919,-10.44304c-3.3263,-6.72161 -7.61372,-13.39402 -8.55504,-21.03125c-0.61409,-4.98231 1.64751,-9.31715 3.32701,-13.86208c2.42484,-6.56192 6.38328,-13.12421 10.61755,-18.7667c3.56221,-5.34418 7.45933,-10.19446 13.54517,-12.98871c1.78169,-0.81804 3.79131,-1.12674 5.49638,-2.0944c4.05603,-2.30188 8.09028,-5.9764 13.04882,-6.5894c1.75822,-0.21736 3.55699,0.23464 5.31484,0.01435c4.35493,-0.54574 8.8609,-1.22578 13.16386,-2.08621c0.03012,-0.01004 0.15752,0.00317 0.18765,-0.00678c0.48551,0.76691 1.39787,0.74381 1.39787,0.74381c3.66895,0 7.57578,1.30609 11.17166,0.64822c0.20384,-0.03729 6.47766,-2.46106 6.84249,-2.6014c1.38206,-0.53164 2.77298,-1.09336 4.17125,-1.65906c3.50076,-0.57096 6.78071,-1.837 10.372,-1.81816l1.35654,-0.00014c0,0 1.75026,-0.00075 1.75026,-1.75075c0,-0.48964 -0.13689,-0.84259 -0.33422,-1.09656c6.55854,-1.67096 13.52398,-2.42086 20.19214,-3.55297c2.7934,-0.47572 5.59584,-1.4792 8.41031,-1.75409c8.61533,-0.84146 17.5699,-0.12806 26.23686,-0.67388c10.55096,-0.66446 21.54007,-1.60809 31.96807,-3.27767c5.4243,-0.8979 11.0311,-2.26147 16.46709,-2.85774c4.5764,-0.50198 9.33006,0.34693 13.92569,0.0048c4.20819,-0.31329 8.35079,-1.56439 12.54702,-1.93538c8.66542,-0.76611 17.54842,-0.74849 26.25893,-0.77119c4.342,-0.00138 8.62412,-0.54904 12.95499,-0.67585c12.63189,-0.36987 25.4086,0.78256 38.01938,0.0099c5.74006,-0.35169 11.32315,-0.67237 17.08951,-0.67237c5.88652,0 11.69618,-0.32759 17.52461,-0.57006c3.29025,-0.13688 6.74735,0.57429 10.06943,0.57504c9.6426,0.00217 19.2651,0.30831 28.86002,0.9479c0.12392,0.33085 0.38433,0.65824 0.8809,0.90652c1.31999,0.65998 2.08342,-0.34968 2.29025,-0.68233c3.25761,0.24271 6.5127,0.52606 9.76416,0.8491c9.99038,1.99851 21.35413,4.93563 30.33612,9.86934c2.04027,1.1207 3.79595,2.71402 5.82954,3.84682c4.59588,2.56011 10.56487,4.61966 14.46,8.23373c0.8105,0.75202 1.19832,1.88007 1.98045,2.66155c1.97905,1.97739 3.90131,3.45533 5.71388,5.39724c-0.05085,1.65098 -0.1217,3.29853 -0.1217,4.89808l0.00004,1.35683c0,0 0.00005,1.75043 1.75005,1.75043c1.75,0 1.65062,-1.73887 1.65062,-1.73887l0.00004,-1.35623c0,-0.22471 0.10052,-0.46246 0.10282,-0.68871c5.07694,7.17291 7.47157,15.44266 9.42618,24.12647c1.18185,5.25065 2.0789,10.86385 1.33638,16.2956c-0.5896,4.31306 -4.1657,8.91483 -6.25007,12.6666c-2.27007,4.20754 -6.57003,8.04449 -10.57769,10.54763c-2.94641,1.84029 -5.36625,4.46796 -8.27197,6.35508c-4.90127,3.18314 -11.23983,5.91499 -16.80448,7.59248c-7.4926,2.25868 -15.50724,2.07576 -23.17047,3.3506c-15.04499,2.19016 -30.11154,0.92564 -45.2214,0.18576c-7.20929,-0.35302 -14.31216,0.11444 -21.48917,-0.77081c-5.75147,-0.00388 -11.48955,-0.88217 -17.2387,-0.67724c-4.9744,0.17731 -9.91144,1.14633 -14.86137,1.36289c-9.2127,0.40305 -19.02194,-0.11668 -28.13803,1.3521c-3.00725,0.48453 -5.65949,1.44569 -8.70285,1.84835c-5.88139,0.78417 -11.58026,0.41945 -17.44618,0.88702c-8.14077,0.6489 -16.25258,2.04662 -24.40191,2.70969c-8.61155,0.70069 -17.21041,0.66318 -25.84202,0.67769c-9.95817,1.41783 -20.34167,0.66478 -30.38299,0.66478c-10.80701,0 -21.5215,0.44936 -32.29549,0.61321c-4.24259,-5.12599 -7.61288,-11.14717 -11.00677,-16.7392c-1.88917,-3.11275 -4.5126,-6.02313 -6.02073,-9.34086c-1.38927,-3.05623 -2.24547,-6.3204 -4.24996,-9.12052c-1.45182,-2.02809 -3.84697,-3.18819 -5.59285,-4.94261c-0.98193,-0.61113 -1.81073,-2.36312 -2.84717,-1.84982c-4.07364,2.01748 -2.17427,4.18873 -2.72871,6.83521c-1.02915,4.91239 -3.91545,9.2435 -5.37438,14.02143c-0.40946,1.34096 -0.8745,4.98823 -2.4853,5.71653c-1.93062,0.87291 -5.81839,-3.50541 -7.03876,-4.48635c-3.60434,-2.89717 -8.00021,-4.91544 -11.48564,-7.88965c-1.65198,-1.40968 -3.08857,-3.07952 -4.84141,-4.36162c-2.45772,-1.96518 -4.22191,-3.72231 -7.07567,-4.93041c-1.07014,-0.45303 -1.93434,-1.84723 -3.04779,-1.5146c-5.08682,1.51965 -2.242,10.613 -1.46064,13.76712c1.50454,6.07338 3.86089,12.20794 6.31765,17.83941c1.12976,2.58967 0.65221,3.12068 1.23308,5.73435z" data-paper-data="{&quot;noHover&quot;:false,&quot;origItem&quot;:[&quot;Path&quot;,{&quot;applyMatrix&quot;:true,&quot;segments&quot;:[[[159.04755,364.82993],[0,0],[-0.58087,-2.61367]],[[157.81392,359.09402],[1.12976,2.58967],[-2.45676,-5.63147]],[[151.49486,341.24944],[1.50454,6.07338],[-0.78136,-3.15412]],[[152.95484,327.47857],[-5.08682,1.51965],[1.11345,-0.33263]],[[156.10163,328.97907],[-1.07014,-0.45303],[2.85376,1.2081]],[[163.177,333.9077],[-2.45772,-1.96518],[1.75284,1.2821]],[[168.01809,338.26774],[-1.65198,-1.40968],[3.48543,2.97421]],[[179.5029,346.15412],[-3.60434,-2.89717],[1.22037,0.98094]],[[186.54101,350.63841],[-1.93062,0.87291],[1.6108,-0.7283]],[[188.93108,344.95236],[-0.40946,1.34096],[1.45893,-4.77793]],[[194.30436,330.92659],[-1.02915,4.91239],[0.55444,-2.64648]],[[197.03264,324.08903],[-4.07364,2.01748],[1.03644,-0.5133]],[[199.97845,325.92242],[-0.98193,-0.61113],[1.74588,1.75442]],[[205.57083,330.86268],[-1.45182,-2.02809],[2.00449,2.80012]],[[209.81972,339.97924],[-1.38927,-3.05623],[1.50813,3.31773]],[[215.83889,349.31581],[-1.88917,-3.11275],[3.39389,5.59203]],[[226.84171,366.04743],[-4.24259,-5.12599],[10.77399,-0.16385]],[[259.13141,365.42678],[-10.80701,0],[10.04132,0]],[[289.50287,364.7529],[-9.95817,1.41783],[8.63161,-0.01451]],[[315.32742,364.06914],[-8.61155,0.70069],[8.14933,-0.66307]],[[339.70895,361.36062],[-8.14077,0.6489],[5.86592,-0.46757]],[[357.14296,360.47867],[-5.88139,0.78417],[3.04336,-0.40266]],[[365.84068,358.63375],[-3.00725,0.48453],[9.11609,-1.46878]],[[393.96926,357.29108],[-9.2127,0.40305],[4.94993,-0.21656]],[[408.82774,355.93239],[-4.9744,0.17731],[5.74915,-0.20493]],[[426.06463,356.61284],[-5.75147,-0.00388],[7.17701,0.88525]],[[447.55234,357.38674],[-7.20929,-0.35302],[15.10986,0.73988]],[[492.77195,357.20579],[-15.04499,2.19016],[7.66323,-1.27484]],[[515.94171,353.85766],[-7.4926,2.25868],[5.56465,-1.67749]],[[532.74558,346.26783],[-4.90127,3.18314],[2.90572,-1.88712]],[[541.01723,339.91451],[-2.94641,1.84029],[4.00766,-2.50314]],[[551.59456,329.36951],[-2.27007,4.20754],[2.08437,-3.75177]],[[557.8444,316.70574],[-0.5896,4.31306],[0.74252,-5.43175]],[[556.50795,300.41363],[1.18185,5.25065],[-1.95461,-8.68381]],[[547.08215,276.29256],[5.07694,7.17291],[-0.0023,0.22625]],[[547.07858,276.96905],[0,-0.22471],[0,0]],[547.07858,278.32558],[[545.32858,280.07558],[1.75,0],[-1.75,0]],[543.57858,278.32558],[[543.57858,276.96905],[0,0],[0,-1.59955]],[[543.70043,272.07205],[-0.05085,1.65098],[-1.81257,-1.94191]],[[537.98677,266.67621],[1.97905,1.97739],[-0.78213,-0.78148]],[[536.00644,264.01534],[0.8105,0.75202],[-3.89513,-3.61407]],[[521.547,255.7842],[4.59588,2.56011],[-2.03359,-1.1328]],[[515.71778,251.93863],[2.04027,1.1207],[-8.98199,-4.93371]],[[485.38324,242.07411],[9.99038,1.99851],[-3.25146,-0.32304]],[[475.61957,241.22623],[3.25761,0.24271],[-0.20683,0.33265]],[[473.32935,241.90863],[1.31999,0.65998],[-0.49657,-0.24828]],[[472.44859,241.00245],[0.12392,0.33085],[-9.59492,-0.63959]],[[443.59052,240.05861],[9.6426,0.00217],[-3.32208,-0.00075]],[[433.52211,239.48538],[3.29025,-0.13688],[-5.82843,0.24247]],[[415.99954,240.05861],[5.88652,0],[-5.76636,0]],[[398.91291,240.73472],[5.74006,-0.35169],[-12.61078,0.77266]],[[360.90663,240.73575],[12.63189,-0.36987],[-4.33087,0.12681]],[[347.959,241.41509],[4.342,-0.00138],[-8.71051,0.0227]],[[321.71982,242.18946],[8.66542,-0.76611],[-4.19623,0.37099]],[[309.18294,244.12336],[4.20819,-0.31329],[-4.59563,0.34213]],[[295.26682,244.11508],[4.5764,-0.50198],[-5.43599,0.59627]],[[278.80909,246.96692],[5.4243,-0.8979],[-10.428,1.66958]],[[246.85092,250.23402],[10.55096,-0.66446],[-8.66696,0.54582]],[[220.61749,250.90218],[8.61533,-0.84146],[-2.81447,0.27489]],[[212.20814,252.6543],[2.7934,-0.47572],[-6.66816,1.13211]],[[192.01757,256.20344],[6.55854,-1.67096],[0.19733,0.25397]],[[192.3519,257.29969],[0,-0.48964],[0,1.75]],[190.6019,259.04969],[[189.24541,259.04969],[0,0],[-3.59129,-0.01884]],[[178.87391,260.86628],[3.50076,-0.57096],[-1.39827,0.5657]],[[174.70291,262.52448],[1.38206,-0.53164],[-0.36483,0.14034]],[[167.86076,265.12458],[0.20384,-0.03729],[-3.59588,0.65787]],[[156.68924,264.47578],[3.66895,0],[0,0]],[[155.19407,263.70887],[0.48551,0.76691],[-0.03013,0.00995]],[[155.10369,263.73884],[0.03012,-0.01004],[-4.30296,0.86043]],[[141.94013,265.82372],[4.35493,-0.54574],[-1.75785,0.22029]],[[136.62535,265.80909],[1.75822,-0.21736],[-4.95854,0.613]],[[123.57693,272.3963],[4.05603,-2.30188],[-1.70507,0.96766]],[[118.08065,274.49001],[1.78169,-0.81804],[-6.08584,2.79425]],[[104.53584,287.47539],[3.56221,-5.34418],[-4.23427,5.64249]],[[93.91843,306.23785],[2.42484,-6.56192],[-1.6795,4.54493]],[[90.5913,320.09698],[-0.61409,-4.98231],[0.94132,7.63723]],[[99.14579,341.12353],[-3.3263,-6.72161],[3.00706,3.55525]],[[108.94447,351.56392],[-3.66396,-2.91203],[4.78548,3.80338]],[[126.73579,361.45196],[-5.8015,-1.93501],[3.80865,1.27032]],[[138.8039,364.12326],[-3.92265,-0.98732],[5.24358,1.31979]],[[154.31945,368.17377],[-5.31124,-1.06226],[1.88731,0.38255]],[[159.95937,368.64246],[-1.87437,0.03129],[-0.32463,-1.26672]],[[159.04755,364.82992],[0.28324,1.27445],[0,0]]],&quot;closed&quot;:true,&quot;fillColor&quot;:[0,0,0],&quot;strokeWidth&quot;:0.5}]}" fill="#a8dbff" stroke="none" stroke-width="0.25"/><path d="M83.64604,381.12012v-393.39019h489.33902v393.3902z" fill="none" stroke="#000000" stroke-width="0"/></g></g></svg>