<svg version="1.1" xmlns="http://www.w3.org/2000/svg" xmlns:xlink="http://www.w3.org/1999/xlink" width="499.40807" height="393.3902" viewBox="0,0,499.40807,393.3902"><g transform="translate(-73.57699,12.27008)"><g data-paper-data="{&quot;isPaintingLayer&quot;:true}" fill-rule="nonzero" stroke-linecap="butt" stroke-linejoin="miter" stroke-miterlimit="10" stroke-dasharray="" stroke-dashoffset="0" style="mix-blend-mode: normal"><path d="M485.29138,350.5148c1.39576,-6.97732 3.61482,-13.87371 4.72206,-20.88468c0.92188,-5.83724 2.07516,-11.50916 3.79897,-17.25534c1.13608,-3.78704 1.95118,-12.10111 6.65468,-13.41418c1.05136,-0.29351 1.84153,1.18058 2.69071,1.86643c2.43869,1.96965 4.4286,4.52553 6.29539,7.0092c2.52997,3.82265 5.20379,7.84536 8.07556,11.44606c0.61311,0.76873 1.32831,1.37187 1.79945,2.1145c0.16796,-0.60049 0.52742,-1.15999 0.75049,-1.74803c1.15364,-3.04113 1.4506,-5.60295 2.58077,-8.69069c2.28001,-6.22921 2.32476,-12.75172 3.59834,-19.06742h-0.31382v-2.71301c0,-0.9665 0.7835,-1.75 1.75,-1.75c0.78722,0 1.45304,0.5198 1.67296,1.23489l0.66548,1.99649l-0.02263,0.00754l0.04093,0.0507c1.09574,4.27188 2.69459,8.05179 4.64517,11.94276c1.40583,2.80433 2.1317,5.99149 3.41234,8.86247c1.85291,4.1539 3.9517,7.99952 6.26872,11.86729c1.12969,1.88579 1.94116,3.86106 2.88362,5.74627c0.64254,0.48317 1.28508,0.96635 1.92763,1.44952l1.00591,1.00159c0.52296,-0.7236 0.99422,-1.46464 1.40048,-2.21764c2.08437,-3.75177 5.66024,-8.35071 6.24984,-12.66377c0.74252,-5.43175 -0.1546,-11.04146 -1.33645,-16.29211c-2.18389,-9.70244 -4.91661,-18.88123 -11.32676,-26.59912c-2.2323,-2.90438 -4.66686,-4.61286 -7.19442,-7.1383c-0.78213,-0.78148 -1.16983,-1.90885 -1.98033,-2.66087c-3.89513,-3.61407 -9.86356,-5.67103 -14.45944,-8.23114c-2.03359,-1.1328 -3.78895,-2.72487 -5.82922,-3.84557c-8.98199,-4.93371 -20.34416,-7.86601 -30.33454,-9.86452c-13.8773,-1.37873 -27.81182,-2.01236 -41.79272,-2.0155c-3.32208,-0.00075 -6.77816,-0.71011 -10.06841,-0.57323c-5.82843,0.24247 -11.63605,0.57323 -17.52257,0.57323c-5.76636,0 -11.34657,0.32442 -17.08663,0.67611c-12.61078,0.77266 -25.37439,-0.36884 -38.00628,0.00103c-4.33087,0.12681 -8.60563,0.67796 -12.94763,0.67934c-8.71051,0.0227 -17.57376,0.00826 -26.23918,0.77437c-4.19623,0.37099 -8.32869,1.62061 -12.53688,1.9339c-4.59563,0.34213 -9.33972,-0.51026 -13.91612,-0.00828c-5.43599,0.59627 -11.03343,1.95394 -16.45773,2.85184c-10.428,1.66958 -21.40721,2.60264 -31.95817,3.2671c-8.66696,0.54582 -17.6181,-0.1733 -26.23343,0.66816c-2.81447,0.27489 -5.61595,1.2764 -8.40935,1.75212c-6.66816,1.13211 -13.63203,1.87818 -20.19057,3.54914c0.19733,0.25397 0.33433,0.60661 0.33433,1.09625c0,1.75 -1.75,1.75 -1.75,1.75h-1.35649c-3.59129,-0.01884 -6.87074,1.24563 -10.3715,1.81659c-1.39827,0.5657 -2.78894,1.12656 -4.171,1.6582c-0.36483,0.14034 -6.63831,2.56281 -6.84215,2.6001c-3.59588,0.65787 -7.50257,-0.6488 -11.17152,-0.6488c0,0 -1.00966,0 -1.49517,-0.76691c-0.03013,0.00995 -0.06026,0.01993 -0.09038,0.02997c-4.30296,0.86043 -8.80863,1.53914 -13.16356,2.08488c-1.75785,0.22029 -3.55656,-0.23199 -5.31478,-0.01463c-4.95854,0.613 -8.99239,4.28533 -13.04842,6.58721c-1.31547,0.74655 -2.81215,1.10047 -4.24561,1.59888c0.11895,0.35538 0.23776,0.70905 0.35663,1.06074l0.67933,2.03797c0,0 0.5534,1.6602 -1.1068,2.21359c-1.6602,0.5534 -2.21359,-1.1068 -2.21359,-1.1068l-0.67716,-2.03149c-0.07647,-0.22667 -0.15314,-0.45305 -0.23003,-0.67914c-5.00253,2.87212 -8.43552,7.23204 -11.60386,11.98532c-4.23427,5.64249 -8.19257,12.20054 -10.61741,18.76246c-1.40284,3.79624 -3.21187,7.44385 -3.41195,11.44601c1.657,3.80942 3.2931,7.64511 4.74844,11.58705c1.06541,2.88575 1.61863,5.27292 1.94959,8.07578c0.66192,1.26154 1.31844,2.51824 1.94128,3.77684c3.00706,3.55525 6.13472,7.52836 9.79868,10.44039c4.78548,3.80338 11.98982,7.95303 17.79132,9.88804c3.80865,1.27032 8.14546,1.68398 12.06811,2.6713c5.24358,1.31979 10.20431,2.98825 15.51555,4.05051c7.4124,1.50245 14.68486,-1.08451 22.13252,-0.70974c6.44486,0.32431 12.89815,1.02736 19.44253,0.68085c4.76701,-0.25241 9.48827,-1.69057 14.26805,-2.03644c3.16176,-0.22879 6.43542,-0.00338 9.60429,-0.00338c13.1729,0 26.19574,-0.67828 39.36457,-0.67828c10.04132,0 20.41329,0.74395 30.37146,-0.67388c8.63161,-0.01451 17.213,0.01693 25.82455,-0.68376c8.14933,-0.66307 16.24076,-2.05962 24.38153,-2.70852c5.86592,-0.46757 11.55262,-0.09778 17.43401,-0.88195c3.04336,-0.40266 5.69047,-1.36039 8.69772,-1.84492c9.11609,-1.46878 18.91588,-0.93962 28.12858,-1.34267c4.94993,-0.21656 9.88408,-1.18138 14.85848,-1.35869c5.74915,-0.20493 11.48542,0.67657 17.23689,0.68045c7.17701,0.88525 14.27842,0.42088 21.48771,0.7739c12.36502,0.60547 24.69984,1.56551 37.01834,0.69406c0.00381,-2.67085 0.07166,-4.92217 0.72069,-7.566zM550.63547,336.53632c-0.10237,0.10237 -0.20474,0.1878 -0.30641,0.2584c-2.25656,2.37445 -4.86477,4.46675 -7.47173,6.09711c-2.91973,1.82597 -5.32156,4.43843 -8.20536,6.31132c-5.17342,3.35989 -11.82286,6.23389 -17.70001,8.00559c-7.66057,2.30933 -15.80958,2.14768 -23.64008,3.4552c-15.28668,2.22616 -30.57837,0.9704 -45.93066,0.21865c-7.2239,-0.35373 -14.3424,0.13575 -21.53401,-0.77647c-5.63621,0.00391 -11.26052,-0.88176 -16.89322,-0.67596c-4.94531,0.18068 -9.84534,1.12913 -14.76719,1.3542c-9.10094,0.41619 -18.78423,-0.14603 -27.78932,1.30487c-3.01526,0.48582 -5.73006,1.44759 -8.7919,1.85878c-5.96134,0.79483 -11.73803,0.42364 -17.67909,0.90589c-8.11828,0.65898 -16.18726,2.04242 -24.31518,2.70375c-8.62163,0.7015 -17.21775,0.70252 -25.86027,0.68648c-10.03514,1.43864 -20.49938,0.68269 -30.61958,0.68269c-13.16836,0 -26.19131,0.67828 -39.36457,0.67828c-3.09539,0 -6.29867,-0.2292 -9.38683,-0.00338c-4.76544,0.34847 -9.46315,1.77071 -14.21863,2.03302c-6.691,0.36907 -13.30404,-0.31306 -19.89611,-0.67564c-7.65538,-0.42106 -14.97371,2.15976 -22.63223,0.64675c-5.36905,-1.07382 -10.38768,-2.75547 -15.6841,-4.08857c-4.01701,-1.01107 -8.44751,-1.44837 -12.34903,-2.75472c-6.19316,-2.07366 -13.72653,-6.39951 -18.83435,-10.45956c-3.50753,-2.78804 -6.58753,-6.45061 -9.46756,-9.94904c-0.36023,0.33511 -0.78313,0.63995 -1.09237,0.99968c0,0 -1.23741,1.23746 -2.47487,0.00005c-1.23746,-1.23741 -0.00005,-2.47487 -0.00005,-2.47487c0.92073,-0.6274 0.30905,-2.23198 0.17424,-3.33797c-0.05216,-0.42797 -0.10287,-0.84084 -0.15412,-1.24226c-2.93447,-5.59213 -5.81469,-11.31776 -6.61433,-17.64093c-0.06857,-0.54221 -0.10998,-1.09292 -0.12673,-1.65023c-2.62515,-5.58604 -5.3252,-11.14907 -7.21418,-16.93822c-1.24937,-3.82895 -2.04087,-7.96965 -2.82968,-11.91082c-0.40305,-2.0168 -0.89496,-4.01482 -1.33969,-6.02284c-0.50172,-2.2653 -1.79156,-4.35948 -1.98474,-6.67162c-0.41775,-5.00007 1.1682,-5.18817 5.47054,-2.53397c1.07823,0.66518 1.56856,1.99148 2.40474,2.94324c1.99064,2.26582 4.76333,4.04439 6.68379,6.27473c0.83776,0.97295 0.73735,3.21889 2.01984,3.27971c1.34653,0.06386 2.35777,-6.14076 2.4927,-6.67766c1.60033,-6.36749 3.90443,-12.60544 5.33346,-18.96951c0.91369,-4.03363 1.16105,-8.5675 2.70024,-12.42408c0.4438,-1.11198 0.5298,-2.87628 1.69074,-3.16899c3.12182,-0.78712 5.69272,2.78851 7.02124,4.72973c3.97482,5.80795 6.49722,12.96653 8.77749,19.79208c1.18052,-0.36303 2.39312,-0.64992 3.45678,-1.26263c4.47462,-2.57755 8.9149,-6.35989 14.36493,-7.09117c1.82937,-0.24546 3.70692,0.22342 5.53727,-0.01463c4.17354,-0.5428 8.48325,-1.15893 12.61007,-1.98466c7.36915,-2.45633 15.12063,-2.15651 22.70749,-2.7672c0.33611,-0.02705 0.66923,-0.06242 0.99985,-0.10462l-0.00002,0.00001c4.23703,-1.70911 8.53975,-3.44624 12.88716,-4.58038c6.75345,-1.76182 13.94228,-2.53212 20.82251,-3.70023c2.88037,-0.48743 5.74646,-1.49675 8.65033,-1.78447c4.08188,-0.40444 8.32971,0.12181 12.43458,-0.00765c15.02844,-0.47394 30.68694,-1.50923 45.53875,-3.89905c5.46795,-0.90508 11.11042,-2.27534 16.59324,-2.87122c4.64142,-0.50443 9.42857,0.33829 14.08388,-0.00828c4.19035,-0.31195 8.30851,-1.56168 12.48904,-1.93c8.76692,-0.77241 17.73113,-0.76496 26.54231,-0.78791c4.30097,0.00142 8.5355,-0.55022 12.826,-0.67707c12.61446,-0.37295 25.3658,0.78168 37.95812,0.00103c5.79614,-0.35933 11.43876,-0.68045 17.26098,-0.68045c5.83929,0 11.60249,-0.34992 17.38337,-0.57046c0.45262,-0.01727 6.18109,0.54258 6.89029,0.57203c15.28831,0.63478 30.40925,0.52109 45.628,2.05247c10.41889,2.08327 22.12417,5.13162 31.49842,10.25655c2.04909,1.12024 3.80762,2.72226 5.849,3.85649c4.87773,2.71016 10.95622,4.91031 15.1239,8.71056c0.8536,0.77834 1.27262,1.9479 2.08913,2.76508c2.5785,2.58061 5.16213,4.45847 7.45263,7.42679c6.75524,8.13057 9.7106,17.80234 12.00843,28.01767c1.26973,5.64475 2.2375,11.78673 1.37652,17.62059c-0.71053,4.81444 -4.3183,9.61469 -6.64511,13.80291c-0.99581,1.75096 -2.25129,3.43961 -3.66973,5.0167c-0.08402,0.14861 -0.1981,0.29947 -0.34895,0.45032zM541.3757,325.19052c-2.3929,-3.98169 -4.55567,-7.95918 -6.46135,-12.23651c-1.26342,-2.83576 -1.97574,-6.00777 -3.37024,-8.77201c-0.97695,-1.93654 -1.86541,-3.8554 -2.65218,-5.81623c-0.06254,0.24699 -0.1228,0.49055 -0.17781,0.72926c-0.50152,2.17615 -0.25054,4.47112 -0.65377,6.66762c-0.60111,3.27443 -2.55196,6.21492 -3.34356,9.40029c-0.17352,0.69823 0.11378,1.45785 -0.05289,2.15774c-0.20788,0.87288 -3.14605,9.40765 -4.02861,9.50757c-1.70336,0.19284 -2.74549,-2.06266 -4.00855,-3.22168c-3.96457,-3.63799 -7.04003,-9.29255 -10.03072,-13.74881c-1.31344,-1.75552 -2.76697,-3.41208 -4.3185,-4.96118c-0.53198,-0.53114 -1.17955,-0.96797 -1.59465,-1.59472c-0.15588,-0.23536 0.15187,-1.06882 -0.02227,-0.84662c-2.06814,2.63901 -2.55487,7.78878 -3.4958,10.92524c-1.67282,5.57608 -2.78861,11.07595 -3.68519,16.73508c-1.12637,7.10953 -3.35917,14.09383 -4.7735,21.16709c-0.58507,2.29337 -0.6316,4.2172 -0.63529,6.49935c1.56728,-0.15755 3.13431,-0.34812 4.70113,-0.57621c7.66323,-1.27484 15.67716,-1.08945 23.16976,-3.34813c5.56465,-1.67749 11.9026,-4.40669 16.80387,-7.58983c2.90572,-1.88712 5.32524,-4.51303 8.27165,-6.35332c2.02146,-1.26258 4.1172,-2.86384 5.9893,-4.68084c-0.92912,-1.16545 -1.66577,-2.39786 -2.33635,-3.66795c-0.13054,-0.09763 -0.26107,-0.19526 -0.39161,-0.29289c0,0 -1.00169,-0.75128 -0.67498,-1.83016c-0.68588,-1.40451 -1.3757,-2.83413 -2.2279,-4.25215zM108.14585,255.72717c-0.65746,-1.33164 -2.71317,-5.76191 -4.3689,-6.30619c-0.30415,-0.09998 0.36039,0.58138 0.33421,0.90047c-0.07202,0.87797 -0.4121,1.71296 -0.61882,2.56927c-0.77508,3.21067 -1.30432,6.44212 -2.03202,9.6621c-0.95465,4.1902 -2.54085,8.12573 -3.64905,12.28711c-0.89919,3.37654 -1.46535,6.96513 -2.59157,10.27145c-0.75557,2.21817 -1.71383,5.78364 -4.99927,5.81626c-3.66783,0.03641 -3.13668,-2.69678 -4.72255,-4.55591c-1.88314,-2.20763 -4.66336,-3.9416 -6.61804,-6.19714c-0.19174,-0.22125 -0.41633,-0.44023 -0.65237,-0.66025c0.03579,0.11576 0.07083,0.23159 0.10535,0.34732c0.34076,1.14254 0.44875,2.34232 0.70818,3.50603c0.45355,2.03449 0.94791,4.06039 1.35699,6.10429c1.56718,7.84177 4.43708,15.08819 7.52934,22.27985c0.91899,-3.61486 2.39212,-7.17132 3.81458,-10.20188c0.95875,-2.04262 2.64908,-3.6735 3.68734,-5.67688c1.89887,-3.66399 3.73222,-7.06105 6.24943,-10.41916c3.57432,-5.36071 7.59015,-10.15483 13.29904,-13.30652c-1.99635,-5.61084 -4.1839,-11.05694 -6.83187,-16.42022zM167.40616,261.64537c-0.8624,0.05657 -1.72382,0.12217 -2.58342,0.20259c0.82459,0.02662 1.62921,-0.01361 2.39912,-0.16455c0.06161,-0.01208 0.12304,-0.02477 0.1843,-0.03804z" fill="#000000" stroke="none" stroke-width="0.5"/><path d="M541.42533,325.18451c0.8522,1.41802 1.54231,2.85627 2.22819,4.26078c-0.32671,1.07888 0.67469,1.83348 0.67469,1.83348c0.13054,0.09763 0.26101,0.1957 0.39155,0.29333c0.67058,1.27009 1.40623,2.50792 2.33535,3.67337c-1.8721,1.817 -3.97178,3.42897 -5.99324,4.69155c-2.94641,1.84029 -5.37851,4.48205 -8.28423,6.36917c-4.90127,3.18314 -11.27438,5.92388 -16.83903,7.60137c-7.4926,2.25868 -15.53582,2.06148 -23.19905,3.33632c-1.56682,0.22809 -3.13668,0.41606 -4.70396,0.57361c0.00369,-2.28215 0.04648,-4.21013 0.63155,-6.5035c1.41433,-7.07326 3.63626,-14.08468 4.76263,-21.19421c0.89658,-5.65913 2.02164,-11.19247 3.69446,-16.76855c0.94093,-3.13646 1.44071,-8.29874 3.50885,-10.93775c0.17414,-0.2222 -0.07797,0.69435 0.07791,0.92971c0.4151,0.62675 1.00705,0.98048 1.53903,1.51162c1.55153,1.5491 3.00681,3.20456 4.32025,4.96008c2.99069,4.45626 6.0819,10.10469 10.04647,13.74268c1.26306,1.15902 2.2688,3.48217 3.97216,3.28933c0.88256,-0.09992 3.8395,-8.61167 4.04738,-9.48455c0.16667,-0.69989 -0.11731,-1.45749 0.05621,-2.15572c0.7916,-3.18537 2.74542,-6.12434 3.34653,-9.39877c0.40323,-2.1965 0.15559,-4.49004 0.65711,-6.66619c0.05501,-0.23871 0.15111,-0.57563 0.21365,-0.82262c0.78677,1.96083 1.68267,3.88326 2.65962,5.8198c1.3945,2.76424 2.11925,5.94656 3.38267,8.78232c1.90568,4.27733 4.08037,8.28164 6.47327,12.26333z" data-paper-data="{&quot;noHover&quot;:false,&quot;origItem&quot;:[&quot;Path&quot;,{&quot;applyMatrix&quot;:true,&quot;segments&quot;:[[[541.3757,325.19052],[0,0],[-2.3929,-3.98169]],[[534.91435,312.95401],[1.90568,4.27733],[-1.26342,-2.83576]],[[531.54411,304.182],[1.3945,2.76424],[-0.97695,-1.93654]],[[528.89193,298.36577],[0.78677,1.96083],[-0.06254,0.24699]],[[528.71412,299.09503],[0.05501,-0.23871],[-0.50152,2.17615]],[[528.06035,305.76265],[0.40323,-2.1965],[-0.60111,3.27443]],[[524.71679,315.16294],[0.7916,-3.18537],[-0.17352,0.69823]],[[524.6639,317.32068],[0.16667,-0.69989],[-0.20788,0.87288]],[[520.63529,326.82825],[0.88256,-0.09992],[-1.70336,0.19284]],[[516.62674,323.60657],[1.26306,1.15902],[-3.96457,-3.63799]],[[506.59602,309.85776],[2.99069,4.45626],[-1.31344,-1.75552]],[[502.27752,304.89658],[1.55153,1.5491],[-0.53198,-0.53114]],[[500.68287,303.30186],[0.4151,0.62675],[-0.15588,-0.23536]],[[500.6606,302.45524],[0.17414,-0.2222],[-2.06814,2.63901]],[[497.1648,313.38048],[0.94093,-3.13646],[-1.67282,5.57608]],[[493.47961,330.11556],[0.89658,-5.65913],[-1.12637,7.10953]],[[488.70611,351.28265],[1.41433,-7.07326],[-0.58507,2.29337]],[[488.07082,357.782],[0.00369,-2.28215],[1.56728,-0.15755]],[[492.77195,357.20579],[-1.56682,0.22809],[7.66323,-1.27484]],[[515.94171,353.85766],[-7.4926,2.25868],[5.56465,-1.67749]],[[532.74558,346.26783],[-4.90127,3.18314],[2.90572,-1.88712]],[[541.01723,339.91451],[-2.94641,1.84029],[2.02146,-1.26258]],[[547.00653,335.23367],[-1.8721,1.817],[-0.92912,-1.16545]],[[544.67018,331.56572],[0.67058,1.27009],[-0.13054,-0.09763]],[[544.27857,331.27283],[0.13054,0.09763],[0,0]],[[543.60359,329.44267],[-0.32671,1.07888],[-0.68588,-1.40451]],[[541.37569,325.19052],[0.8522,1.41802],[0,0]]],&quot;closed&quot;:true,&quot;fillColor&quot;:[0,0,0,1]}]}" fill="#5cff95" stroke="none" stroke-width="0.5"/><path d="M115.02316,272.12653c-5.70889,3.15169 -9.73409,8.00129 -13.30841,13.362c-2.51721,3.35811 -4.39046,6.7704 -6.28933,10.43439c-1.03826,2.00338 -2.73606,3.63311 -3.69481,5.67573c-1.42246,3.03056 -2.89771,6.58648 -3.8167,10.20134c-3.09226,-7.19166 -5.99259,-14.4622 -7.55977,-22.30397c-0.40908,-2.0439 -0.90899,-4.08602 -1.36254,-6.12051c-0.25943,-1.16371 -0.368,-2.37329 -0.70876,-3.51583c-0.03452,-0.11573 0.03032,-0.22669 -0.00547,-0.34245c0.23604,0.22002 0.4607,0.43725 0.65244,0.6585c1.95468,2.25554 4.72925,3.96525 6.61239,6.17288c1.58587,1.85913 1.03664,4.57288 4.70447,4.53647c3.28544,-0.03262 4.23205,-3.60336 4.98762,-5.82153c1.12622,-3.30632 1.68808,-6.89602 2.58727,-10.27256c1.1082,-4.16138 2.67109,-7.9997 3.62574,-12.1899c0.7277,-3.21998 1.25788,-6.45119 2.03296,-9.66186c0.20672,-0.85631 0.54683,-1.69129 0.61885,-2.56926c0.02618,-0.31909 -0.6151,-1.0977 -0.31095,-0.99772c1.65573,0.54428 3.72128,4.97793 4.37874,6.30957c2.64797,5.36328 4.8599,10.83387 6.85625,16.44471z" data-paper-data="{&quot;noHover&quot;:false,&quot;origItem&quot;:[&quot;Path&quot;,{&quot;applyMatrix&quot;:true,&quot;segments&quot;:[[[108.14585,255.72717],[2.64797,5.36328],[-0.65746,-1.33164]],[[103.77695,249.42098],[1.65573,0.54428],[-0.30415,-0.09998]],[[104.11116,250.32145],[0.02618,-0.31909],[-0.07202,0.87797]],[[103.49234,252.89072],[0.20672,-0.85631],[-0.77508,3.21067]],[[101.46032,262.55282],[0.7277,-3.21998],[-0.95465,4.1902]],[[97.81127,274.83993],[1.1082,-4.16138],[-0.89919,3.37654]],[[95.2197,285.11138],[1.12622,-3.30632],[-0.75557,2.21817]],[[90.22043,290.92764],[3.28544,-0.03262],[-3.66783,0.03641]],[[85.49788,286.37173],[1.58587,1.85913],[-1.88314,-2.20763]],[[78.87984,280.17459],[1.95468,2.25554],[-0.19174,-0.22125]],[[78.22747,279.51434],[0.23604,0.22002],[0.03579,0.11576]],[[78.33282,279.86166],[-0.03452,-0.11573],[0.34076,1.14254]],[[79.041,283.36769],[-0.25943,-1.16371],[0.45355,2.03449]],[[80.39799,289.47198],[-0.40908,-2.0439],[1.56718,7.84177]],[[87.92733,311.75183],[-3.09226,-7.19166],[0.91899,-3.61486]],[[91.74191,301.54995],[-1.42246,3.03056],[0.95875,-2.04262]],[[95.42925,295.87307],[-1.03826,2.00338],[1.89887,-3.66399]],[[101.67868,285.45391],[-2.51721,3.35811],[3.57432,-5.36071]],[[114.97772,272.14739],[-5.70889,3.15169],[-1.99635,-5.61084]]],&quot;closed&quot;:true,&quot;fillColor&quot;:[0,0,0,1]}]}" fill="#5cff95" stroke="none" stroke-width="0.5"/><path d="M485.33944,350.52865c-0.64903,2.64383 -0.71754,4.89726 -0.72135,7.56811c-12.3185,0.87145 -24.65481,-0.08471 -37.01983,-0.69018c-7.20929,-0.35302 -14.31216,0.11444 -21.48917,-0.77081c-5.75147,-0.00388 -11.48955,-0.88217 -17.2387,-0.67724c-4.9744,0.17731 -9.91144,1.14633 -14.86137,1.36289c-9.2127,0.40305 -19.02194,-0.11668 -28.13803,1.3521c-3.00725,0.48453 -5.65949,1.44569 -8.70285,1.84835c-5.88139,0.78417 -11.58026,0.41945 -17.44618,0.88702c-8.14077,0.6489 -16.25258,2.04661 -24.40191,2.70968c-8.61155,0.70069 -17.21041,0.66317 -25.84202,0.67768c-9.95817,1.41783 -20.34167,0.66478 -30.38299,0.66478c-13.16883,0 -26.19826,0.66952 -39.37116,0.66952c-3.16887,0 -6.44346,-0.22705 -9.60522,0.00174c-4.77978,0.34587 -9.50185,1.78248 -14.26886,2.03489c-6.54438,0.34651 -12.99888,-0.35916 -19.44374,-0.68347c-7.44766,-0.37477 -14.72095,2.21013 -22.13335,0.70768c-5.31124,-1.06226 -10.27276,-2.73296 -15.51634,-4.05275c-3.92265,-0.98732 -8.25991,-1.40243 -12.06856,-2.67275c-5.8015,-1.93501 -13.00665,-6.08784 -17.79213,-9.89122c-3.66396,-2.91203 -6.79213,-6.88779 -9.79919,-10.44304c-0.62284,-1.2586 -1.2795,-2.51617 -1.94142,-3.77771c-0.33096,-2.80286 -0.88441,-5.19181 -1.94982,-8.07756c-1.45534,-3.94194 -3.09166,-7.78019 -4.74866,-11.58961c0.20008,-4.00216 2.00903,-7.65221 3.41187,-11.44845c2.42484,-6.56192 6.38328,-13.1242 10.61755,-18.76669c3.16834,-4.75328 6.60165,-9.11624 11.60418,-11.98836c0.07689,0.22609 0.25265,0.46591 0.32912,0.69258l0.67722,2.03103c0,0 0.45413,1.64802 2.11433,1.09462c1.6602,-0.55339 1.10687,-2.21415 1.10687,-2.21415l-0.67927,-2.03843c-0.11887,-0.35169 -0.23765,-0.7056 -0.3566,-1.06098c1.43346,-0.49841 2.93022,-0.85286 4.24569,-1.59941c4.05603,-2.30188 8.09028,-5.9764 13.04882,-6.5894c1.75822,-0.21736 3.55699,0.23464 5.31484,0.01435c4.35493,-0.54574 8.8609,-1.22578 13.16386,-2.08621c0.03012,-0.01004 0.15752,0.00317 0.18765,-0.00678c0.48551,0.76691 1.39787,0.74382 1.39787,0.74382c3.66895,0 7.57578,1.30609 11.17166,0.64822c0.20384,-0.03729 6.47766,-2.46106 6.84249,-2.6014c1.38206,-0.53164 2.77298,-1.09336 4.17125,-1.65906c3.50076,-0.57096 6.78071,-1.837 10.372,-1.81816l1.35654,-0.00014c0,0 1.75026,-0.00075 1.75026,-1.75075c0,-0.48964 -0.13689,-0.84259 -0.33422,-1.09656c6.55854,-1.67096 13.52398,-2.42086 20.19214,-3.55297c2.7934,-0.47572 5.59584,-1.4792 8.41031,-1.75409c8.61533,-0.84146 17.5699,-0.12806 26.23686,-0.67388c10.55096,-0.66446 21.54007,-1.60809 31.96807,-3.27767c5.4243,-0.8979 11.0311,-2.26147 16.46709,-2.85774c4.5764,-0.50198 9.33006,0.34693 13.92569,0.0048c4.20819,-0.31329 8.35079,-1.56439 12.54702,-1.93538c8.66542,-0.76611 17.54842,-0.74849 26.25893,-0.77119c4.342,-0.00138 8.62412,-0.54904 12.95499,-0.67585c12.63189,-0.36987 25.4086,0.78256 38.01938,0.0099c5.74006,-0.35169 11.32315,-0.67237 17.08951,-0.67237c5.88652,0 11.69618,-0.32759 17.52461,-0.57006c3.29025,-0.13688 6.74735,0.57429 10.06943,0.57504c13.9809,0.00314 27.91803,0.64245 41.79533,2.02118c9.99038,1.99851 21.35413,4.93563 30.33612,9.86934c2.04027,1.1207 3.79595,2.71402 5.82954,3.84682c4.59588,2.56011 10.56487,4.61966 14.46,8.23373c0.8105,0.75202 1.19832,1.88007 1.98045,2.66155c2.52756,2.52544 4.96241,4.23575 7.19471,7.14013c6.41015,7.71789 9.14333,16.90268 11.32722,26.60512c1.18185,5.25065 2.0789,10.86385 1.33638,16.2956c-0.5896,4.31306 -4.1657,8.91483 -6.25007,12.6666c-0.40626,0.753 -0.87758,1.49455 -1.40054,2.21815l-1.1052,-1.0135c-0.64255,-0.48317 -1.28512,-0.96608 -1.92766,-1.44925c-0.94246,-1.88521 -1.75405,-3.85927 -2.88374,-5.74506c-2.31702,-3.86777 -4.41597,-7.71076 -6.26888,-11.86466c-1.28064,-2.87098 -2.00654,-6.05606 -3.41237,-8.86039c-1.95058,-3.89097 -3.54933,-7.66798 -4.64507,-11.93986l-0.04093,-0.05069l0.02263,-0.00754l-0.66545,-1.996c-0.21992,-0.71509 -0.78605,-1.24271 -1.57327,-1.24271c-0.9665,0 -1.74997,0.78389 -1.74997,1.75039l0.00004,2.71368h0.31382c-1.27358,6.3157 -1.31827,12.84296 -3.59828,19.07217c-1.13017,3.08774 -1.42726,5.65179 -2.5809,8.69292c-0.22307,0.58804 -0.68218,1.13914 -0.85014,1.73963c-0.47114,-0.74263 -1.18638,-1.34527 -1.79949,-2.114c-2.87177,-3.6007 -5.54573,-7.6205 -8.0757,-11.44315c-1.86679,-2.48367 -3.8567,-5.03763 -6.29539,-7.00728c-0.84918,-0.68585 -1.53938,-2.16229 -2.59074,-1.86878c-4.7035,1.31307 -5.51864,9.63104 -6.65472,13.41808c-1.72381,5.74618 -2.87761,11.42328 -3.79949,17.26052c-1.10724,7.01097 -3.32768,13.9136 -4.72344,20.89092z" data-paper-data="{&quot;noHover&quot;:false,&quot;origItem&quot;:[&quot;Path&quot;,{&quot;applyMatrix&quot;:true,&quot;segments&quot;:[[[485.29138,350.5148],[0,0],[1.39576,-6.97732]],[[490.01344,329.63012],[-1.10724,7.01097],[0.92188,-5.83724]],[[493.81241,312.37478],[-1.72381,5.74618],[1.13608,-3.78704]],[[500.46709,298.9606],[-4.7035,1.31307],[1.05136,-0.29351]],[[503.1578,300.82703],[-0.84918,-0.68585],[2.43869,1.96965]],[[509.45319,307.83623],[-1.86679,-2.48367],[2.52997,3.82265]],[[517.52875,319.28229],[-2.87177,-3.6007],[0.61311,0.76873]],[[519.3282,321.39679],[-0.47114,-0.74263],[0.16796,-0.60049]],[[520.07869,319.64876],[-0.22307,0.58804],[1.15364,-3.04113]],[[522.65946,310.95807],[-1.13017,3.08774],[2.28001,-6.22921]],[[526.2578,291.89065],[-1.27358,6.3157],[0,0]],[525.94398,291.89065],[[525.94398,289.17764],[0,0],[0,-0.9665]],[[527.69398,287.42764],[-0.9665,0],[0.78722,0]],[[529.36694,288.66253],[-0.21992,-0.71509],[0,0]],[530.03242,290.65902],[530.00979,290.66656],[[530.05072,290.71726],[0,0],[1.09574,4.27188]],[[534.69589,302.66002],[-1.95058,-3.89097],[1.40583,2.80433]],[[538.10823,311.52249],[-1.28064,-2.87098],[1.85291,4.1539]],[[544.37695,323.38978],[-2.31702,-3.86777],[1.12969,1.88579]],[[547.26057,329.13605],[-0.94246,-1.88521],[0.64254,0.48317]],[[549.1882,330.58557],[-0.64255,-0.48317],[0,0]],[[550.19411,331.58716],[0,0],[0.52296,-0.7236]],[[551.59459,329.36952],[-0.40626,0.753],[2.08437,-3.75177]],[[557.84443,316.70575],[-0.5896,4.31306],[0.74252,-5.43175]],[[556.50798,300.41364],[1.18185,5.25065],[-2.18389,-9.70244]],[[545.18122,273.81452],[6.41015,7.71789],[-2.2323,-2.90438]],[[537.9868,266.67622],[2.52756,2.52544],[-0.78213,-0.78148]],[[536.00647,264.01535],[0.8105,0.75202],[-3.89513,-3.61407]],[[521.54703,255.78421],[4.59588,2.56011],[-2.03359,-1.1328]],[[515.71781,251.93864],[2.04027,1.1207],[-8.98199,-4.93371]],[[485.38327,242.07412],[9.99038,1.99851],[-13.8773,-1.37873]],[[443.59055,240.05862],[13.9809,0.00314],[-3.32208,-0.00075]],[[433.52214,239.48539],[3.29025,-0.13688],[-5.82843,0.24247]],[[415.99957,240.05862],[5.88652,0],[-5.76636,0]],[[398.91294,240.73473],[5.74006,-0.35169],[-12.61078,0.77266]],[[360.90666,240.73576],[12.63189,-0.36987],[-4.33087,0.12681]],[[347.95903,241.4151],[4.342,-0.00138],[-8.71051,0.0227]],[[321.71985,242.18947],[8.66542,-0.76611],[-4.19623,0.37099]],[[309.18297,244.12337],[4.20819,-0.31329],[-4.59563,0.34213]],[[295.26685,244.11509],[4.5764,-0.50198],[-5.43599,0.59627]],[[278.80912,246.96693],[5.4243,-0.8979],[-10.428,1.66958]],[[246.85095,250.23403],[10.55096,-0.66446],[-8.66696,0.54582]],[[220.61752,250.90219],[8.61533,-0.84146],[-2.81447,0.27489]],[[212.20817,252.65431],[2.7934,-0.47572],[-6.66816,1.13211]],[[192.0176,256.20345],[6.55854,-1.67096],[0.19733,0.25397]],[[192.35193,257.2997],[0,-0.48964],[0,1.75]],[190.60193,259.0497],[[189.24544,259.0497],[0,0],[-3.59129,-0.01884]],[[178.87394,260.86629],[3.50076,-0.57096],[-1.39827,0.5657]],[[174.70294,262.52449],[1.38206,-0.53164],[-0.36483,0.14034]],[[167.86079,265.12459],[0.20384,-0.03729],[-3.59588,0.65787]],[[156.68927,264.47579],[3.66895,0],[0,0]],[[155.1941,263.70888],[0.48551,0.76691],[-0.03013,0.00995]],[[155.10372,263.73885],[0.03012,-0.01004],[-4.30296,0.86043]],[[141.94016,265.82373],[4.35493,-0.54574],[-1.75785,0.22029]],[[136.62538,265.8091],[1.75822,-0.21736],[-4.95854,0.613]],[[123.57696,272.39631],[4.05603,-2.30188],[-1.31547,0.74655]],[[119.33135,273.99519],[1.43346,-0.49841],[0.11895,0.35538]],[[119.68798,275.05593],[-0.11887,-0.35169],[0,0]],[120.36731,277.0939],[[119.26051,279.30749],[1.6602,-0.55339],[-1.6602,0.5534]],[117.04692,278.20069],[[116.36976,276.1692],[0,0],[-0.07647,-0.22667]],[[116.13973,275.49006],[0.07689,0.22609],[-5.00253,2.87212]],[[104.53587,287.47538],[3.16834,-4.75328],[-4.23427,5.64249]],[[93.91846,306.23784],[2.42484,-6.56192],[-1.40284,3.79624]],[[90.50651,317.68385],[0.20008,-4.00216],[1.657,3.80942]],[[95.25495,329.2709],[-1.45534,-3.94194],[1.06541,2.88575]],[[97.20454,337.34668],[-0.33096,-2.80286],[0.66192,1.26154]],[[99.14582,341.12352],[-0.62284,-1.2586],[3.00706,3.55525]],[[108.9445,351.56391],[-3.66396,-2.91203],[4.78548,3.80338]],[[126.73582,361.45195],[-5.8015,-1.93501],[3.80865,1.27032]],[[138.80393,364.12325],[-3.92265,-0.98732],[5.24358,1.31979]],[[154.31948,368.17376],[-5.31124,-1.06226],[7.4124,1.50245]],[[176.452,367.46402],[-7.44766,-0.37477],[6.44486,0.32431]],[[195.89453,368.14487],[-6.54438,0.34651],[4.76701,-0.25241]],[[210.16258,366.10843],[-4.77978,0.34587],[3.16176,-0.22879]],[[219.76687,366.10505],[-3.16887,0],[13.1729,0]],[[259.13144,365.42677],[-13.16883,0],[10.04132,0]],[[289.5029,364.75289],[-9.95817,1.41783],[8.63161,-0.01451]],[[315.32745,364.06913],[-8.61155,0.70069],[8.14933,-0.66307]],[[339.70898,361.36061],[-8.14077,0.6489],[5.86592,-0.46757]],[[357.14299,360.47866],[-5.88139,0.78417],[3.04336,-0.40266]],[[365.84071,358.63374],[-3.00725,0.48453],[9.11609,-1.46878]],[[393.96929,357.29107],[-9.2127,0.40305],[4.94993,-0.21656]],[[408.82777,355.93238],[-4.9744,0.17731],[5.74915,-0.20493]],[[426.06466,356.61283],[-5.75147,-0.00388],[7.17701,0.88525]],[[447.55237,357.38673],[-7.20929,-0.35302],[12.36502,0.60547]],[[484.57071,358.08079],[-12.3185,0.87145],[0.00381,-2.67085]],[[485.2914,350.51479],[-0.64903,2.64383],[0,0]]],&quot;closed&quot;:true,&quot;fillColor&quot;:[0,0,0],&quot;strokeWidth&quot;:0.5}]}" fill="#a8dbff" stroke="none" stroke-width="0.25"/><path d="M552.39583,340.04665c0,-0.9665 0.7835,-1.75 1.75,-1.75c0.9665,0 1.75,0.7835 1.75,1.75c0,0.9665 -0.7835,1.75 -1.75,1.75c-0.9665,0 -1.75,-0.7835 -1.75,-1.75z" fill="#000000" stroke="none" stroke-width="0.5"/><path d="M83.64604,381.12012v-393.39019h489.33902v393.3902z" fill="none" stroke="#000000" stroke-width="0"/></g></g></svg>