<svg version="1.1" xmlns="http://www.w3.org/2000/svg" xmlns:xlink="http://www.w3.org/1999/xlink" width="489.33902" height="393.3902" viewBox="0,0,489.33902,393.3902"><g transform="translate(-83.64604,12.27008)"><g data-paper-data="{&quot;isPaintingLayer&quot;:true}" fill-rule="nonzero" stroke-linecap="butt" stroke-linejoin="miter" stroke-miterlimit="10" stroke-dasharray="" stroke-dashoffset="0" style="mix-blend-mode: normal"><path d="M317.72032,29.37514c0.0208,-1.71861 1.74981,-1.71861 1.74981,-1.71861c0.39782,0.03882 0.79563,0.07764 1.19345,0.11646l0.96042,-0.9604c0.31669,-0.31668 0.75418,-0.51255 1.23742,-0.51255c0.9665,0 1.75,0.7835 1.75,1.75c0,0.1601 -0.0215,0.31518 -0.06177,0.46251l-0.28704,1.14817c0.22284,0.01564 0.46881,0.08079 0.73792,0.21535c1.56525,0.78262 0.78262,2.34787 0.78262,2.34787l-1.85617,1.48264c-0.01284,0.05726 -0.02637,0.11444 -0.04062,0.17153c-0.26185,1.04935 -1.03751,1.90588 -1.41842,2.91811c-0.70476,1.87282 -0.73562,4.13711 -1.20882,6.02667c-0.81339,3.24794 -2.3677,6.5889 -2.7746,9.92456c-0.71135,5.83153 -1.39888,12.63699 -0.66416,18.53835c0.58628,4.7091 2.42747,9.38396 3.36204,14.05435c1.8995,8.54648 3.36148,16.6122 -0.81842,24.86917c-2.12135,4.1905 -8.01834,7.65813 -12.82621,6.36033c-7.08947,-1.91368 -13.63431,-8.24765 -16.79421,-14.55134c-2.81643,-7.08448 -2.86659,-13.67856 -2.86659,-21.17325c0,-8.43101 0.16895,-16.71255 0.68166,-25.09538c0.2744,-4.48646 -0.00248,-8.90549 1.41177,-13.22724c0.4962,-2.46675 1.22428,-7.62126 3.08454,-9.51731c2.41565,-2.46213 6.62459,-2.44104 9.68796,-3.25519c5.38324,-1.43069 10.0687,-1.39156 14.97743,-0.3748zM320.28311,33.61355c-5.64715,-1.6268 -10.61139,-2.08593 -16.64189,-0.48086c-1.88131,0.50073 -6.39863,0.56906 -7.94668,2.17079c-0.39002,0.40355 -0.22669,1.1028 -0.41265,1.63231c-0.74728,2.12783 -1.48906,4.27301 -1.92876,6.48497c-1.38519,4.07116 -1.0415,8.30676 -1.30128,12.54639c-0.50917,8.30957 -0.6749,16.51949 -0.6749,24.87789c0,6.97496 -0.09207,13.15719 2.55943,19.73945c0.93945,1.88434 1.33413,2.98907 2.69481,4.57732c2.66866,3.11496 7.79365,6.78588 11.7107,8.00145c3.14331,0.97546 7.52382,-1.73825 8.87796,-4.49168c3.74397,-7.61277 2.28409,-14.7502 0.53799,-22.60859c-0.96009,-4.80368 -2.81264,-9.586 -3.42047,-14.43233c-1.27654,-10.17816 1.13235,-20.05744 3.54946,-29.74468c0.74186,-2.97319 0.24543,-3.48635 1.29851,-6.30411c0.26181,-0.70052 0.78097,-1.29541 1.09776,-1.96834z" fill="#000000" stroke="none" stroke-width="0.5"/><path d="M320.26578,33.66043c-0.31679,0.67293 -0.80172,1.17386 -1.06353,1.87438c-1.05308,2.81776 -0.55536,3.3314 -1.29722,6.30459c-2.41711,9.68724 -4.79462,19.60656 -3.51808,29.78472c0.60783,4.84633 2.44417,9.67242 3.40426,14.4761c1.7461,7.85839 3.18773,15.00624 -0.55624,22.61901c-1.35414,2.75343 -5.74666,5.46938 -8.88997,4.49392c-3.91705,-1.21557 -9.05879,-4.88829 -11.72745,-8.00325c-1.36068,-1.58825 -1.76136,-2.6951 -2.70081,-4.57944c-2.6515,-6.58226 -2.58341,-12.78604 -2.58341,-19.761c0,-8.3584 0.17763,-16.6314 0.6868,-24.94097c0.25978,-4.23963 -0.07176,-8.48259 1.31343,-12.55375c0.4397,-2.21196 1.18693,-4.35909 1.93421,-6.48692c0.18596,-0.52951 0.02369,-1.22906 0.41371,-1.63261c1.54805,-1.60173 6.07567,-1.67172 7.95698,-2.17245c6.0305,-1.60507 11.01482,-1.14292 16.66197,0.48388z" data-paper-data="{&quot;noHover&quot;:false,&quot;origItem&quot;:[&quot;Path&quot;,{&quot;applyMatrix&quot;:true,&quot;segments&quot;:[[[320.28311,33.61355],[0,0],[-5.64715,-1.6268]],[[303.64122,33.13269],[6.0305,-1.60507],[-1.88131,0.50073]],[[295.69454,35.30348],[1.54805,-1.60173],[-0.39002,0.40355]],[[295.28189,36.93579],[0.18596,-0.52951],[-0.74728,2.12783]],[[293.35313,43.42076],[0.4397,-2.21196],[-1.38519,4.07116]],[[292.05185,55.96715],[0.25978,-4.23963],[-0.50917,8.30957]],[[291.37695,80.84504],[0,-8.3584],[0,6.97496]],[[293.93638,100.58449],[-2.6515,-6.58226],[0.93945,1.88434]],[[296.63119,105.16181],[-1.36068,-1.58825],[2.66866,3.11496]],[[308.34189,113.16326],[-3.91705,-1.21557],[3.14331,0.97546]],[[317.21985,108.67158],[-1.35414,2.75343],[3.74397,-7.61277]],[[317.75784,86.06299],[1.7461,7.85839],[-0.96009,-4.80368]],[[314.33737,71.63066],[0.60783,4.84633],[-1.27654,-10.17816]],[[317.88683,41.88598],[-2.41711,9.68724],[0.74186,-2.97319]],[[319.18534,35.58187],[-1.05308,2.81776],[0.26181,-0.70052]],[[320.2831,33.61353],[-0.31679,0.67293],[0,0]]],&quot;closed&quot;:true,&quot;fillColor&quot;:[0,0,0],&quot;strokeWidth&quot;:0.5}]}" fill="#a8dbff" stroke="none" stroke-width="0.25"/><path d="M282.56356,46.99819c0,-3.25 3.25,-3.25 3.25,-3.25l-0.09072,0.04422c3.94949,-0.63239 7.24218,-2.26325 11.33198,-2.69259c7.51946,-0.78938 14.66724,-2.13474 21.97279,-4.30951c5.63357,-1.67704 11.27239,-3.76756 15.49978,-8.05918c0,0 2.2981,-2.2981 4.59619,0c2.2981,2.2981 0,4.59619 0,4.59619c-10.38193,10.25899 -27.62032,12.93783 -41.48503,14.24623c-3.82853,0.3613 -7.09997,1.9864 -10.84708,2.63041l-0.97792,0.04422c0,0 -3.25,0 -3.25,-3.25z" fill="#00ff1c" stroke="none" stroke-width="0.5"/><path d="M285.3221,65.97326c-0.78823,-3.15297 2.36474,-3.9412 2.36474,-3.9412l3.14393,-0.48819c13.70154,2.53099 29.47825,0.54646 41.81878,-6.33172c2.41028,-1.34341 4.51316,-3.17723 6.80901,-4.70801c0,0 2.70417,-1.80277 4.50694,0.9014c1.80277,2.70417 -0.9014,4.50694 -0.9014,4.50694c-2.48172,1.65423 -4.77675,3.60547 -7.38565,5.05082c-13.66861,7.57253 -30.84053,9.69468 -46.01042,6.97573l-0.40473,0.39896c0,0 -3.15297,0.78823 -3.9412,-2.36474z" fill="#00ff1c" stroke="none" stroke-width="0.5"/><path d="M282.11999,93.57429c0,-3.25 3.25,-3.25 3.25,-3.25h0.88718c2.22102,0.01567 4.40996,-0.53638 6.60874,-0.85024c5.64289,-0.80548 11.58748,-0.60947 17.17738,-1.75831c5.54487,-1.13958 10.63893,-3.80794 15.92892,-5.62968c7.54421,-2.59805 14.23899,-4.19069 21.21756,-8.18968c0,0 2.82179,-1.61245 4.43424,1.20934c1.61245,2.82179 -1.20934,4.43424 -1.20934,4.43424c-7.32738,4.17609 -14.35588,5.94525 -22.25351,8.66643c-5.58283,1.9236 -10.95463,4.66794 -16.80656,5.8757c-5.70892,1.17825 -11.75031,0.99437 -17.51152,1.81809c-2.52169,0.36054 -5.03862,0.90982 -7.58592,0.92411h-0.88718c0,0 -3.25,0 -3.25,-3.25z" fill="#00ff1c" stroke="none" stroke-width="0.5"/><path d="M83.64604,381.12012v-393.39019h489.33902v393.3902z" fill="none" stroke="#000000" stroke-width="0"/></g></g></svg>