<svg version="1.1" xmlns="http://www.w3.org/2000/svg" xmlns:xlink="http://www.w3.org/1999/xlink" width="489.33902" height="393.3902" viewBox="0,0,489.33902,393.3902"><g transform="translate(-83.64604,12.27008)"><g data-paper-data="{&quot;isPaintingLayer&quot;:true}" fill-rule="nonzero" stroke-linecap="butt" stroke-linejoin="miter" stroke-miterlimit="10" stroke-dasharray="" stroke-dashoffset="0" style="mix-blend-mode: normal"><path d="M317.04192,64.96047c0,-0.09492 0,-0.18983 0,-0.28475c0,0 0,-1.75 1.75,-1.75c1.75,0 1.75,1.75 1.75,1.75c0,8.8173 0,17.63459 0,26.45189c0,3.62526 -0.53707,7.67771 -0.02259,11.25002c0.56305,3.90959 2.53933,8.10389 3.51111,11.98651c0.86365,3.45978 2.58089,5.77622 4.03172,9.02993c1.60536,3.60026 2.61805,7.54543 4.49672,11.02386c0.84405,1.56279 2.05761,3.1836 2.7654,4.85994c0.54416,1.2888 0.68702,2.73595 1.31774,3.98468c1.18778,2.35163 2.93129,4.46947 4.07767,6.79929c0.14001,0.28455 1.3117,5.18169 1.45651,5.68879c0.99776,3.494 2.43216,6.80623 4.03183,10.05921c0.34706,1.39391 1.48866,4.64555 0.57867,6.17745c-1.77849,2.99395 -7.90844,3.62506 -11.03841,3.63722c-8.19356,0.03184 -15.75298,-2.35227 -23.84764,-2.71635c-4.47022,-0.20106 -9.22072,-0.85366 -13.66138,-0.66726c-3.33453,0.13997 -6.52769,0.66835 -9.88156,0.66847c-4.46158,0.44902 -8.12391,0.66191 -12.5096,-0.01094c-2.27736,-0.34939 -3.5987,0.69886 -4.79423,-2.42373c-1.4305,-3.73632 0.54285,-9.66936 1.346,-13.28325c2.36228,-10.62945 4.09179,-23.0578 10.22903,-32.2418c0.15264,-0.46524 1.89817,-5.85118 2.11818,-6.25541c0.289,-0.53098 1.06187,-0.70756 1.30224,-1.26225c2.96252,-6.83654 1.23119,-14.65396 1.83395,-21.81355c0.23811,-2.82826 0.67222,-5.04563 0.67199,-7.8821c-0.00021,-2.71302 0,-5.42604 0,-8.13905c0,-0.19281 -0.0267,-4.96586 0.07509,-5.25489c0.93708,-2.66069 2.17133,-3.01999 4.2973,-4.4562c3.1297,-1.06592 6.00731,-1.36609 9.16172,-2.16047c4.88613,-1.23048 8.90786,-2.73398 13.98952,-2.76526zM317.04192,68.46047h-0.96305c-4.74906,-0.0345 -8.57084,1.52579 -13.14067,2.66076c-2.94465,0.73134 -5.57851,0.97028 -8.47284,1.90907c-4.28703,2.79721 -2.40976,10.05884 -2.41012,14.70604c-0.00023,2.90244 -0.43737,5.29975 -0.68457,8.17855c-0.39087,4.55203 0.55249,9.27073 -0.01631,13.80589c-0.76506,6.1 -3.65748,11.07385 -5.58137,16.7666c-4.96578,7.4664 -6.90727,17.34257 -8.67599,26.03938c-1.10194,5.41824 -3.30481,10.99414 -2.80956,16.60857c0.05885,0.66715 1.32413,0.20295 1.98828,0.28932c4.2097,0.54745 7.59598,0.41758 11.90762,-0.01094c3.36751,0.00012 6.56608,-0.54169 9.91584,-0.67001c4.56526,-0.17489 9.42835,0.45855 14.01893,0.67122c6.80989,0.31548 13.3073,2.71867 20.13016,2.70959c2.88644,-0.00384 4.47413,0.03494 7.1203,-0.61962c1.45198,-0.35916 3.54413,0.10216 4.33225,-1.1691c0.5986,-0.96555 -0.5009,-2.21641 -0.77782,-3.31819c-1.65253,-3.31452 -3.08717,-6.72001 -4.10724,-10.2884c-0.48684,-1.70306 -0.45267,-3.58473 -1.25638,-5.16318c-1.1844,-2.3261 -2.88655,-4.39422 -4.06148,-6.76573c-0.34474,-0.69583 -1.05539,-3.34289 -1.39524,-4.15447c-0.49397,-1.17962 -2.30269,-3.9688 -2.66063,-4.63561c-1.90253,-3.54426 -2.95739,-7.53479 -4.58139,-11.20179c-1.50791,-3.40486 -3.30806,-5.9376 -4.2255,-9.59454c-1.00033,-3.99728 -2.97381,-8.24057 -3.57063,-12.27564c-0.55658,-3.76298 -0.02259,-7.99585 -0.02259,-11.81063c0,-7.55571 0,-15.11143 0,-22.66714z" fill="#000000" stroke="none" stroke-width="0.5"/><path d="M317.05514,91.07939c0,3.81478 -0.52624,8.05048 0.03034,11.81346c0.59682,4.03507 2.59512,8.30368 3.59545,12.30096c0.91744,3.65694 2.71987,6.22348 4.22778,9.62834c1.624,3.667 2.67039,7.67432 4.57292,11.21858c0.35794,0.66681 2.16454,3.45856 2.65851,4.63818c0.33985,0.81158 1.04833,3.46095 1.39307,4.15678c1.17493,2.37151 2.87545,4.44118 4.05985,6.76728c0.80371,1.57845 0.76749,3.46189 1.25433,5.16495c1.02007,3.56839 2.45242,6.97564 4.10495,10.29016c0.27692,1.10178 1.37554,2.35327 0.77694,3.31882c-0.78812,1.27126 -2.88326,0.81186 -4.33524,1.17102c-2.64617,0.65456 -4.23891,0.61839 -7.12535,0.62223c-6.82286,0.00908 -13.33758,-2.38984 -20.14747,-2.70532c-4.59058,-0.21267 -9.46781,-0.84724 -14.03307,-0.67235c-3.34976,0.12832 -6.55686,0.66738 -9.92437,0.66726c-4.31164,0.42852 -7.70612,0.55397 -11.91582,0.00652c-0.66415,-0.08637 -1.93068,0.37697 -1.98953,-0.29018c-0.49525,-5.61443 1.70141,-11.19556 2.80335,-16.6138c1.76872,-8.69681 3.69709,-18.59563 8.66287,-26.06203c1.92389,-5.69275 4.82171,-10.70511 5.58677,-16.80511c0.5688,-4.53516 -0.36099,-9.26869 0.02988,-13.82072c0.2472,-2.8788 0.69056,-5.27996 0.69079,-8.1824c0.00036,-4.6472 -1.86852,-11.91228 2.41851,-14.70949c2.89433,-0.93879 5.53677,-1.17957 8.48142,-1.91091c4.56983,-1.13497 8.4045,-2.69519 13.15356,-2.66069l0.96395,0.00013c0,7.55571 0.0056,15.11262 0.0056,22.66833z" data-paper-data="{&quot;noHover&quot;:false,&quot;origItem&quot;:[&quot;Path&quot;,{&quot;applyMatrix&quot;:true,&quot;segments&quot;:[[[317.04192,68.46047],[0,7.55571],[0,0]],[[316.07887,68.46047],[0,0],[-4.74906,-0.0345]],[[302.9382,71.12123],[4.56983,-1.13497],[-2.94465,0.73134]],[[294.46536,73.0303],[2.89433,-0.93879],[-4.28703,2.79721]],[[292.05524,87.73634],[0.00036,-4.6472],[-0.00023,2.90244]],[[291.37067,95.91489],[0.2472,-2.8788],[-0.39087,4.55203]],[[291.35436,109.72078],[0.5688,-4.53516],[-0.76506,6.1]],[[285.77299,126.48738],[1.92389,-5.69275],[-4.96578,7.4664]],[[277.097,152.52676],[1.76872,-8.69681],[-1.10194,5.41824]],[[274.28744,169.13533],[-0.49525,-5.61443],[0.05885,0.66715]],[[276.27572,169.42465],[-0.66415,-0.08637],[4.2097,0.54745]],[[288.18334,169.41371],[-4.31164,0.42852],[3.36751,0.00012]],[[298.09918,168.7437],[-3.34976,0.12832],[4.56526,-0.17489]],[[312.11811,169.41492],[-4.59058,-0.21267],[6.80989,0.31548]],[[332.24827,172.12451],[-6.82286,0.00908],[2.88644,-0.00384]],[[339.36857,171.50489],[-2.64617,0.65456],[1.45198,-0.35916]],[[343.70082,170.33579],[-0.78812,1.27126],[0.5986,-0.96555]],[[342.923,167.0176],[0.27692,1.10178],[-1.65253,-3.31452]],[[338.81576,156.7292],[1.02007,3.56839],[-0.48684,-1.70306]],[[337.55938,151.56602],[0.80371,1.57845],[-1.1844,-2.3261]],[[333.4979,144.80029],[1.17493,2.37151],[-0.34474,-0.69583]],[[332.10266,140.64582],[0.33985,0.81158],[-0.49397,-1.17962]],[[329.44203,136.01021],[0.35794,0.66681],[-1.90253,-3.54426]],[[324.86064,124.80842],[1.624,3.667],[-1.50791,-3.40486]],[[320.63514,115.21388],[0.91744,3.65694],[-1.00033,-3.99728]],[[317.06451,102.93824],[0.59682,4.03507],[-0.55658,-3.76298]],[[317.04192,91.12761],[0,3.81478],[0,-7.55571]]],&quot;closed&quot;:true,&quot;fillColor&quot;:[0,0,0],&quot;strokeWidth&quot;:0.5}]}" fill="#a8dbff" stroke="none" stroke-width="0.25"/><path d="M277.68416,94.46144c0,-3.25 3.25,-3.25 3.25,-3.25l0.12022,0.01613c4.0563,-0.40193 8.01117,-1.48477 12.06418,-1.78188c6.54778,-0.47999 12.97556,-1.11956 19.50571,-1.77344c3.99477,-0.4 8.54742,0.04163 12.40139,-1.30051c5.12871,-1.78607 7.80612,-4.53367 12.24872,-7.50054c4.69519,-3.13556 8.08159,-5.58384 10.95894,-10.4789c0,0 1.67213,-2.78684 4.45897,-1.11471c2.78684,1.67213 1.11471,4.45897 1.11471,4.45897c-3.50205,5.74034 -7.43476,8.88753 -12.99458,12.58737c-5.0347,3.35039 -7.93919,6.17404 -13.89478,8.26636c-4.31281,1.51518 -9.32824,1.11669 -13.79774,1.56303c-10.50437,1.049 -20.93495,2.48472 -31.41875,3.54198l-0.76698,0.01613c0,0 -3.25,0 -3.25,-3.25z" fill="#00ff1c" stroke="none" stroke-width="0.5"/><path d="M269.25611,124.18142c0,-3.25 3.25,-3.25 3.25,-3.25l1.06931,0.07739c6.35263,-1.40721 12.50772,-1.66871 19.02693,-1.40528c1.20938,0.04887 10.05992,0.896 10.35383,0.88812c7.53193,-0.202 15.34312,-4.73364 21.57307,-8.42526c8.15049,-4.82966 16.17257,-8.99369 22.17874,-16.53014c0,0 2.03027,-2.53781 4.56809,-0.50754c2.53781,2.03027 0.50754,4.56809 0.50754,4.56809c-6.56889,8.18336 -15.07238,12.81897 -23.95379,18.06926c-7.22411,4.27057 -15.89852,9.02571 -24.55946,9.318c-2.05897,0.06949 -8.22185,-0.77658 -10.93813,-0.88613c-5.95267,-0.24007 -11.55113,-0.03613 -17.34679,1.25612l-2.47934,0.07739c0,0 -3.25,0 -3.25,-3.25z" fill="#00ff1c" stroke="none" stroke-width="0.5"/><path d="M265.26388,150.35276c0,-3.25 3.25,-3.25 3.25,-3.25l0.14934,0.01335c10.10271,-0.89431 20.08347,1.20717 30.18588,-0.60703c19.30635,-3.46706 33.91691,-16.33557 50.59272,-25.61224c0,0 2.84101,-1.57834 4.41935,1.26268c1.57834,2.84101 -1.26268,4.41935 -1.26268,4.41935c-17.40721,9.657 -32.4368,22.70958 -52.60093,26.32795c-10.33961,1.8554 -20.44988,-0.28096 -30.74587,0.6826l-0.73781,0.01335c0,0 -3.25,0 -3.25,-3.25z" fill="#00ff1c" stroke="none" stroke-width="0.5"/><path d="M269.35315,176.86882c-0.78827,-3.15296 2.36468,-3.94123 2.36468,-3.94123l2.96573,-0.51555c7.32088,0.91711 14.24418,0.83182 21.57405,0.42478c9.86933,-0.54805 18.55135,-1.10671 27.83298,-4.85924c10.70884,-4.32955 19.10209,-12.36282 29.60182,-17.04605c0,0 2.96989,-1.31994 4.28983,1.64995c1.31994,2.96989 -1.64995,4.28983 -1.64995,4.28983c-10.57287,4.68062 -19.00292,12.74253 -29.79979,17.13014c-9.92495,4.03329 -19.31336,4.73609 -29.87103,5.32281c-7.73433,0.42982 -15.06068,0.50108 -22.78418,-0.46242l-0.58292,0.37165c0,0 -3.15296,0.78827 -3.94123,-2.36468z" fill="#00ff1c" stroke="none" stroke-width="0.5"/><path d="M83.64604,381.12012v-393.39019h489.33902v393.3902z" fill="none" stroke="#000000" stroke-width="0"/></g></g></svg>