<svg version="1.1" xmlns="http://www.w3.org/2000/svg" xmlns:xlink="http://www.w3.org/1999/xlink" width="489.33902" height="393.3902" viewBox="0,0,489.33902,393.3902"><g transform="translate(-83.64604,12.27008)"><g data-paper-data="{&quot;isPaintingLayer&quot;:true}" fill-rule="nonzero" stroke-linecap="butt" stroke-linejoin="miter" stroke-miterlimit="10" stroke-dasharray="" stroke-dashoffset="0" style="mix-blend-mode: normal"><path d="M335.27871,139.38799c-0.40813,0.81626 -1.02909,0.99401 -1.52992,0.97723c1.84304,4.41555 5.33318,8.07729 7.01455,12.50924c3.75125,9.88797 7.70575,20.29099 8.25158,30.95615c0.79263,3.95536 1.96527,8.01457 3.87644,11.60124c1.44171,2.70564 3.92099,4.76794 5.4083,7.42847c7.13445,12.76225 15.47249,26.23274 25.92559,36.68573c4.67528,4.67534 9.16314,8.38549 14.56876,12.17803c1.59301,1.11764 3.03226,2.52154 4.81578,3.29989c3.40175,1.48457 7.8044,2.29393 10.61746,5.03334c4.00845,3.9035 8.26843,10.85305 9.31869,16.4277c0.64189,3.40707 -0.71246,6.74392 -1.30193,10.04544c-1.45001,2.02189 -2.45306,3.71175 -4.58013,5.22517c-3.90496,2.77839 -10.65941,3.74452 -15.22547,4.32535c-5.37126,0.68326 -10.7125,0.19445 -16.04574,-0.31033c-3.46075,-0.32755 -6.97742,0.118 -10.44228,-0.09349c-6.53759,-0.39906 -13.22354,-1.62537 -19.70015,-2.49484c-5.69472,-0.80989 -11.32993,1.43925 -16.88417,2.36648c-15.92904,2.65921 -31.7571,6.20494 -47.11354,11.32821c-21.3155,6.16668 -42.75824,14.6325 -65.23866,14.55895c-3.02517,-0.7536 -6.39508,-1.81725 -8.9485,-3.70847c-14.34477,-10.62463 -7.17919,-33.61038 -1.25502,-46.89334c1.25666,-2.81763 2.77144,-5.5501 4.15592,-8.30849c5.87991,-8.8378 12.91138,-16.67063 19.86008,-24.68438c3.43146,-3.95741 7.18532,-7.60546 10.03319,-12.0225c3.51581,-5.45302 5.47743,-11.24533 7.98371,-17.10864c1.5722,-4.95215 1.52053,-10.16885 3.36877,-15.09515c3.49356,-9.31175 7.84423,-18.97462 9.7007,-28.85753c0.41575,-2.21326 0.80445,-4.43512 1.05313,-6.67332c0.33963,-3.05688 -0.82244,-6.63256 0.89494,-9.48891c0.72098,-1.19913 1.95586,-2.00138 2.93379,-3.00207c2.62369,-1.51793 6.01299,-3.74573 8.88521,-4.57763c2.04574,-0.59252 4.24524,-0.39241 6.34642,-0.74053c3.59961,-0.59637 7.31344,-1.1995 10.931,-1.85245c2.94213,-0.53104 5.91894,-1.39885 8.92138,-1.56226c5.2674,-0.28668 11.52639,0.94906 16.93171,0.12798c-0.2195,-0.56728 -0.45807,-1.12619 -0.73165,-1.66979c0,0 -0.78262,-1.56525 0.78262,-2.34787c1.56525,-0.78262 2.34787,0.78262 2.34787,0.78262c0.42818,0.86142 0.78067,1.75592 1.1084,2.66131l2.17852,0.6256c0,0 1.56525,0.78262 0.78262,2.34787zM329.97127,140.28466c-5.74294,0.9317 -12.11976,-0.23279 -17.83113,0.06582c-2.88073,0.15061 -5.74326,1.01596 -8.5662,1.51729c-3.62938,0.64454 -7.30972,1.24559 -10.92022,1.85051c-1.93779,0.32467 -3.97088,0.08335 -5.86211,0.61596c-2.51027,0.70694 -5.54205,2.7143 -7.8691,4.03776c-0.672,0.64921 -1.52469,1.15286 -2.01599,1.94764c-1.2639,2.04465 -0.22765,5.992 -0.46147,8.14564c-0.2529,2.32937 -0.65406,4.64212 -1.09347,6.94361c-1.92359,10.07524 -6.29685,19.92207 -9.85695,29.4204c-1.8434,4.91819 -1.8173,10.11911 -3.36931,15.09661c-2.62132,6.09969 -4.68286,12.1342 -8.3388,17.81195c-2.93299,4.555 -6.77881,8.31723 -10.31441,12.39472c-6.80257,7.84516 -13.70689,15.51088 -19.47864,24.14983c-1.3196,2.65042 -2.77736,5.26689 -3.98315,7.96958c-0.89133,1.99785 -1.58091,4.07974 -2.37473,6.1183c-4.09237,10.50935 -8.55505,28.49194 2.47628,36.51785c2.08213,1.51487 4.8655,2.45511 7.32964,3.07404c21.95697,-0.08458 42.94,-8.40514 63.77126,-14.42716c15.50827,-5.16472 31.49125,-8.76229 47.57794,-11.4386c5.97062,-0.99332 11.79014,-3.17609 17.92786,-2.38262c6.3877,0.86769 12.99463,2.07613 19.44508,2.46987c3.50504,0.21395 7.05288,-0.22355 10.55597,0.10229c5.07989,0.47252 10.15831,0.97318 15.27746,0.32297c6.43087,-0.81683 12.94813,-2.18612 17.0245,-7.44439c0.37387,-2.44757 1.62824,-5.48905 1.09207,-7.99454c-1.05246,-4.91806 -4.69191,-10.97369 -8.20268,-14.48879c-2.50711,-2.5102 -6.68265,-3.0985 -9.73014,-4.46222c-1.97887,-0.88552 -3.62208,-2.38462 -5.39689,-3.62966c-5.55652,-3.89794 -10.22714,-7.76192 -15.03354,-12.56838c-10.65572,-10.6556 -19.27993,-24.39939 -26.5019,-37.44588c-1.48432,-2.68143 -3.9817,-4.76408 -5.44374,-7.49311c-2.12503,-3.96657 -3.38888,-8.43946 -4.26263,-12.8159c-0.55282,-10.42535 -4.4559,-20.39482 -8.02641,-30.08666c-1.6767,-4.55126 -5.38145,-8.34806 -7.18289,-12.92619c-0.12609,-0.32045 -0.24565,-0.6437 -0.36155,-0.96852z" fill="#000000" stroke="none" stroke-width="0.5"/><path d="M329.97866,140.23523c0.1159,0.32482 0.23574,0.64811 0.36183,0.96856c1.80144,4.57813 5.5119,8.37616 7.1886,12.92742c3.57051,9.69184 7.48725,19.66743 8.04007,30.09278c0.87375,4.37644 2.14649,8.85661 4.27152,12.82318c1.46204,2.72903 3.96567,4.8196 5.44999,7.50103c7.22197,13.04649 15.85305,26.82687 26.50877,37.48247c4.8064,4.80646 9.47562,8.67587 15.03214,12.57381c1.77481,1.24504 3.4177,2.7451 5.39657,3.63062c3.04749,1.36372 7.22285,1.95253 9.72996,4.46273c3.51077,3.5151 7.14841,9.57518 8.20087,14.49324c0.53617,2.50549 -0.71969,5.54992 -1.09356,7.99749c-4.07637,5.25827 -10.59737,6.6334 -17.02824,7.45023c-5.11915,0.65021 -10.20055,0.15319 -15.28044,-0.31933c-3.50309,-0.32584 -7.05375,0.11455 -10.55879,-0.0994c-6.45045,-0.39374 -13.06413,-1.59684 -19.45183,-2.46453c-6.13772,-0.79347 -11.96825,1.39476 -17.93887,2.38808c-16.08669,2.67631 -32.10242,6.274 -47.61069,11.43872c-20.83126,6.02202 -41.83352,14.33055 -63.79049,14.41513c-2.46414,-0.61893 -5.24946,-1.56124 -7.33159,-3.07611c-11.03133,-8.02591 -6.57603,-26.01944 -2.48366,-36.52879c0.79382,-2.03856 1.48251,-4.12234 2.37384,-6.12019c1.20579,-2.70269 2.66246,-5.3218 3.98206,-7.97222c5.77175,-8.63895 12.67338,-16.31497 19.47595,-24.16013c3.5356,-4.07749 7.38088,-7.84825 10.31387,-12.40325c3.65594,-5.67775 5.7203,-11.72775 8.34162,-17.82744c1.55201,-4.9775 1.53153,-10.18965 3.37493,-15.10784c3.5601,-9.49833 7.94768,-19.35928 9.87127,-29.43452c0.43941,-2.30149 0.84304,-4.61574 1.09594,-6.94511c0.23382,-2.15364 -0.80022,-6.10218 0.46368,-8.14683c0.4913,-0.79478 1.34534,-1.29909 2.01734,-1.9483c2.32705,-1.32346 5.36338,-3.33268 7.87365,-4.03962c1.89123,-0.53261 3.9274,-0.29227 5.86519,-0.61694c3.6105,-0.60492 7.29695,-1.20729 10.92633,-1.85183c2.82294,-0.50133 5.69034,-1.36717 8.57107,-1.51778c5.71137,-0.29861 12.09814,0.86636 17.84108,-0.06534z" data-paper-data="{&quot;noHover&quot;:false,&quot;origItem&quot;:[&quot;Path&quot;,{&quot;applyMatrix&quot;:true,&quot;segments&quot;:[[[329.97127,140.28466],[0,0],[-5.74294,0.9317]],[[312.14014,140.35048],[5.71137,-0.29861],[-2.88073,0.15061]],[[303.57394,141.86777],[2.82294,-0.50133],[-3.62938,0.64454]],[[292.65372,143.71828],[3.6105,-0.60492],[-1.93779,0.32467]],[[286.79161,144.33424],[1.89123,-0.53261],[-2.51027,0.70694]],[[278.92251,148.372],[2.32705,-1.32346],[-0.672,0.64921]],[[276.90652,150.31964],[0.4913,-0.79478],[-1.2639,2.04465]],[[276.44505,158.46528],[0.23382,-2.15364],[-0.2529,2.32937]],[[275.35158,165.40889],[0.43941,-2.30149],[-1.92359,10.07524]],[[265.49463,194.82929],[3.5601,-9.49833],[-1.8434,4.91819]],[[262.12532,209.9259],[1.55201,-4.9775],[-2.62132,6.09969]],[[253.78652,227.73785],[3.65594,-5.67775],[-2.93299,4.555]],[[243.47211,240.13257],[3.5356,-4.07749],[-6.80257,7.84516]],[[223.99347,264.2824],[5.77175,-8.63895],[-1.3196,2.65042]],[[220.01032,272.25198],[1.20579,-2.70269],[-0.89133,1.99785]],[[217.63559,278.37028],[0.79382,-2.03856],[-4.09237,10.50935]],[[220.11187,314.88813],[-11.03133,-8.02591],[2.08213,1.51487]],[[227.44151,317.96217],[-2.46414,-0.61893],[21.95697,-0.08458]],[[291.21277,303.53501],[-20.83126,6.02202],[15.50827,-5.16472]],[[338.79071,292.09641],[-16.08669,2.67631],[5.97062,-0.99332]],[[356.71857,289.71379],[-6.13772,-0.79347],[6.3877,0.86769]],[[376.16365,292.18366],[-6.45045,-0.39374],[3.50504,0.21395]],[[386.71962,292.28595],[-3.50309,-0.32584],[5.07989,0.47252]],[[401.99708,292.60892],[-5.11915,0.65021],[6.43087,-0.81683]],[[419.02158,285.16453],[-4.07637,5.25827],[0.37387,-2.44757]],[[420.11365,277.16999],[0.53617,2.50549],[-1.05246,-4.91806]],[[411.91097,262.6812],[3.51077,3.5151],[-2.50711,-2.5102]],[[402.18083,258.21898],[3.04749,1.36372],[-1.97887,-0.88552]],[[396.78394,254.58932],[1.77481,1.24504],[-5.55652,-3.89794]],[[381.7504,242.02094],[4.8064,4.80646],[-10.65572,-10.6556]],[[355.2485,204.57506],[7.22197,13.04649],[-1.48432,-2.68143]],[[349.80476,197.08195],[1.46204,2.72903],[-2.12503,-3.96657]],[[345.54213,184.26605],[0.87375,4.37644],[-0.55282,-10.42535]],[[337.51572,154.17939],[3.57051,9.69184],[-1.6767,-4.55126]],[[330.33283,141.2532],[1.80144,4.57813],[-0.12609,-0.32045]],[[329.97128,140.28468],[0.1159,0.32482],[0,0]]],&quot;closed&quot;:true,&quot;fillColor&quot;:[0,0,0],&quot;strokeWidth&quot;:0.5}]}" fill="#a8dbff" stroke="none" stroke-width="0.25"/><path d="M259.4973,156.11936c0,-3.25 3.25,-3.25 3.25,-3.25l2.79928,0.05242c2.63877,0.48185 5.2817,0.99229 7.85389,1.7533c3.1066,-0.03001 6.23378,0.35181 9.32023,-0.00266c4.6055,-0.52892 10.20469,-2.97864 14.55493,-4.32011c5.39848,-1.66471 11.63871,-2.92226 16.23303,-6.45173c5.38208,-4.13464 9.78878,-9.31148 15.16913,-13.45681c3.95263,-3.04533 8.58073,-6.1982 13.39386,-7.59175c2.05054,-0.59369 4.25471,-1.34358 6.34158,-0.89396c1.52694,0.32898 2.38281,2.02023 3.57422,3.03034c0,0 2.29811,2.29808 0.00003,4.59619c-2.29808,2.29811 -4.59619,0.00003 -4.59619,0.00003c-0.28721,-0.46849 -0.31859,-1.32138 -0.86164,-1.40546c-0.88242,-0.13662 -1.70116,0.5482 -2.53003,0.88034c-1.77167,0.70995 -3.59985,1.31636 -5.26767,2.24437c-6.11309,3.40147 -10.96147,8.84278 -16.12741,13.46427c-7.18045,6.42369 -14.25048,8.96873 -23.41245,11.7952c-4.74765,1.46465 -10.62392,3.95969 -15.60864,4.55155c-0.7712,0.09157 -9.14169,0.01204 -11.08458,-0.00266c-2.66967,-0.74029 -5.38888,-1.30198 -8.11502,-1.7953l-1.63657,0.05242c0,0 -3.25,0 -3.25,-3.25z" fill="#00ff1c" stroke="none" stroke-width="0.5"/><path d="M260.82805,177.41127c0,-3.25 3.25,-3.25 3.25,-3.25h1.77433c2.21568,0.00001 4.43137,0.00858 6.647,0.02299c9.7636,0.63666 18.80694,-0.31777 28.49842,-1.33576c8.2238,-0.86382 16.61519,-2.12361 24.24409,-5.47644c2.32866,-1.02342 4.29553,-2.80768 6.42517,-4.12365c3.0988,-1.91484 6.48729,-3.32096 9.65062,-5.12722c5.37477,-3.069 10.24217,-6.76052 15.68705,-9.73442c0,0 2.85316,-1.55627 4.40943,1.29688c1.55627,2.85316 -1.29688,4.40943 -1.29688,4.40943c-5.43622,2.96107 -10.2872,6.64737 -15.65303,9.71574c-3.05511,1.74701 -6.3409,3.08377 -9.3317,4.93872c-2.90436,1.80133 -4.03184,3.13678 -7.12817,4.50828c-8.29296,3.67332 -17.37225,5.11251 -26.32429,6.05677c-9.9843,1.05314 -19.35029,2.0227 -29.41199,1.36755c-2.13855,-0.01216 -4.27714,-0.01888 -6.41573,-0.01887h-1.77433c0,0 -3.25,0 -3.25,-3.25z" fill="#00ff1c" stroke="none" stroke-width="0.5"/><path d="M256.04569,211.91174c-0.78825,-3.15296 2.36471,-3.94121 2.36471,-3.94121l3.74014,-0.92896c4.06313,-0.5075 7.91303,-0.4973 12.00617,-0.4674c10.53371,0.0784 21.42853,1.21358 31.90048,-0.53028c0.7196,-0.11983 9.52094,-2.60178 10.76887,-2.95117c3.7626,-1.05344 7.67182,-1.63165 11.33098,-3.00185c4.43193,-1.65957 10.01366,-4.80654 14.03114,-7.24112c8.62718,-5.22803 15.33928,-14.17254 21.92827,-21.58993c0,0 2.15919,-2.42908 4.58826,-0.26989c2.42908,2.15919 0.26989,4.58826 0.26989,4.58826c-7.02182,7.89422 -14.16516,17.1522 -23.31716,22.7683c-4.32144,2.65184 -10.47334,6.0489 -15.24528,7.84064c-3.82257,1.43527 -7.90162,2.06383 -11.83351,3.16485c-1.81338,0.50779 -10.31752,2.91404 -11.45271,3.10344c-10.85532,1.81113 -22.09709,0.69693 -33.01675,0.61857c-3.65955,-0.02677 -7.1366,-0.09694 -10.76512,0.35705l-3.35717,0.84539c0,0 -3.15296,0.78825 -3.94121,-2.36471z" fill="#00ff1c" stroke="none" stroke-width="0.5"/><path d="M234.21314,251.04587c0,-3.25 3.25,-3.25 3.25,-3.25l1.41543,0.01988c3.75153,-0.41676 7.27703,-1.17707 10.97475,-1.75947c4.91395,-0.77395 9.90099,-0.28706 14.81559,-0.03137c7.1551,0.37226 14.43372,-0.00275 21.60044,-0.00581c10.72073,-0.43139 20.80873,-1.66949 31.3729,-3.49885c7.66648,-1.32757 15.7006,-2.33676 23.05732,-4.98915c3.14233,-1.13294 8.22701,-4.12344 11.0871,-5.71325c12.48996,-6.94269 24.46967,-15.83246 34.08953,-26.42919c0,0 2.18619,-2.4048 4.59099,-0.21862c2.4048,2.18619 0.21862,4.59099 0.21862,4.59099c-10.11302,11.10945 -22.62816,20.44673 -35.74072,27.73787c-3.4329,1.90884 -8.34067,4.80507 -12.03492,6.14475c-7.71236,2.7968 -16.1201,3.88928 -24.16229,5.28188c-10.88176,1.8843 -21.30268,3.15 -32.3464,3.59223c-7.30975,0.00471 -14.72834,0.37534 -22.02712,0.00047c-4.49642,-0.23093 -9.07663,-0.76705 -13.57362,-0.03137c-3.76298,0.6156 -7.38338,1.36451 -11.20437,1.78913l-2.13322,0.01988c0,0 -3.25,0 -3.25,-3.25z" fill="#00ff1c" stroke="none" stroke-width="0.5"/><path d="M83.64604,381.12012v-393.39019h489.33902v393.3902z" fill="none" stroke="#000000" stroke-width="0"/></g></g></svg>