<svg version="1.1" xmlns="http://www.w3.org/2000/svg" xmlns:xlink="http://www.w3.org/1999/xlink" width="489.33902" height="393.3902" viewBox="0,0,489.33902,393.3902"><g transform="translate(-83.64604,12.27008)"><g data-paper-data="{&quot;isPaintingLayer&quot;:true}" fill-rule="nonzero" stroke-linecap="butt" stroke-linejoin="miter" stroke-miterlimit="10" stroke-dasharray="" stroke-dashoffset="0" style="mix-blend-mode: normal"><path d="M368.32063,220.90478c8.3265,4.85398 15.71285,11.41271 24.96883,14.39204c7.34873,2.36542 16.36418,1.25263 23.96415,1.27003c4.58526,0.89416 9.02338,0.8961 13.62259,1.35677c7.38871,0.74008 14.5532,2.83526 21.84115,4.08862c4.23778,0.7288 8.60186,0.76355 12.80959,1.34441c6.90015,0.95254 13.48931,4.28701 20.32663,5.68005c8.73435,1.79704 17.07655,5.18815 24.94225,9.29599c12.6714,6.61759 24.41992,15.72898 27.43678,30.52945c0.56265,3.4034 1.26236,7.60237 0.67781,11.05322c-0.41292,2.43764 -1.86957,4.79142 -3.00519,6.92269c-1.94679,3.65364 -4.00749,8.09981 -7.23421,10.82713c-0.19596,0.16563 -5.98635,3.34769 -6.38409,3.57477c-3.81772,2.17966 -7.32933,3.95862 -11.64598,5.0795c-2.04028,0.52979 -4.18996,0.58314 -6.21478,1.16924c-4.13018,1.19551 -8.0593,2.69378 -12.26368,3.74489c-9.00414,2.24437 -17.63419,1.12459 -26.75909,1.7424c-13.87541,0.93944 -27.58208,4.75112 -41.48219,4.75112c-7.39454,0 -14.80885,-0.31713 -22.1544,0.66337c-6.35559,0.84836 -12.70128,2.4179 -19.1223,2.72524c-9.32057,0.44614 -18.56978,-0.65616 -27.85057,-0.66517c-7.51202,-0.01146 -14.87108,1.1063 -22.3787,1.34512c-15.03698,0.47834 -29.86532,1.22318 -44.79091,3.14276c-8.96305,1.14303 -17.95747,2.28888 -26.7783,4.2764c-7.00123,1.57753 -14.07101,4.08462 -21.23733,4.78185c-5.26128,0.51189 -10.50865,0.6359 -15.80028,1.29734c-12.73293,1.59176 -25.45091,2.78068 -38.28042,2.78068c-10.18519,0 -20.83772,-0.37188 -30.03744,-5.24418c-12.29455,-6.55704 -27.61746,-13.0768 -31.03002,-27.99979c-0.44406,-1.94189 -1.45166,-3.81862 -1.39912,-5.80994c0.17574,-6.65974 2.25616,-13.29491 4.85209,-19.3644c2.92204,-6.81526 7.23389,-11.27585 11.8041,-16.99126c3.28995,-4.11435 7.58059,-8.58964 12.25136,-11.20201c4.90341,-2.74248 10.90157,-5.33907 16.28221,-6.96495c3.23114,-0.97636 4.68641,-0.90667 7.48293,-2.72892c10.49172,-1.61031 21.11045,1.4502 31.54392,-0.09265c5.66201,-0.83727 10.13558,-3.4791 15.11126,-5.94895c1.20227,-0.59679 2.81287,-0.35287 3.83751,-1.21989c2.03127,-1.71878 4.13133,-4.40948 5.46699,-6.67977c2.43657,-2.6901 4.51307,-6.40459 7.21305,-8.75112c2.21039,-1.92103 3.53309,-2.07494 5.98073,-3.07012c5.6964,-2.31609 11.29256,-3.75293 17.45912,-4.18745c4.1452,-0.29209 8.71893,0.75549 12.79427,0.00845c4.93428,-0.90448 9.91958,-2.22454 14.82045,-3.37405c7.96227,-1.30561 15.8135,-4.34976 23.77076,-5.43211c3.40278,-0.46284 6.95915,-0.31301 10.37217,-0.69213c3.85385,-0.42809 7.66604,-1.30059 11.61003,-1.37034c6.0102,-0.10629 12.06385,0.39749 18.0235,-0.4497c3.0518,-0.97858 5.99932,-0.95345 9.10582,-0.91186c0.81896,-1.16625 2.17384,-0.48877 2.17384,-0.48877c0.7637,0.38289 1.51714,0.78457 2.26229,1.20135l0.09254,0.02271c0,0 0.55244,0.13813 0.94827,0.57192zM366.00521,223.59597l-1.98417,-0.50681c-3.30965,0.02383 -6.31084,-0.22863 -9.48968,0.82913c-6.21708,0.89176 -12.48032,0.44178 -18.74917,0.54018c-3.81786,0.05993 -7.50498,0.92828 -11.23321,1.34264c-3.35555,0.37293 -6.85278,0.21838 -10.19292,0.66443c-7.93002,1.059 -15.77621,4.07816 -23.70696,5.41994c-4.95222,1.16155 -10.0263,2.54178 -15.02272,3.40845c-4.20132,0.72876 -8.80268,-0.28383 -13.05846,0.01837c-5.80183,0.41198 -11.01655,1.76897 -16.37447,3.94171c-1.71971,0.69737 -3.42422,1.06115 -4.87132,2.35591c-2.53678,2.26971 -4.47738,5.7495 -6.82009,8.30701c-1.5039,2.46294 -3.96749,5.66275 -6.27341,7.46183c-0.8229,0.64203 -3.28018,0.97794 -4.30164,1.493c-5.24017,2.64232 -10.11748,5.395 -16.08839,6.25966c-10.20028,1.47712 -20.62611,-1.4117 -30.85539,-0.09265c-2.63795,1.80413 -4.68964,1.89867 -7.72186,2.81046c-5.16348,1.55266 -10.87559,4.07216 -15.59246,6.67335c-4.28119,2.36092 -8.20433,6.56322 -11.20755,10.31552c-4.3806,5.47324 -8.54951,9.6805 -11.32988,16.19477c-2.44946,5.72593 -4.26366,11.73534 -4.57006,17.98793c-0.08501,1.73474 0.93894,3.34623 1.31385,5.0421c3.02522,13.68428 18.08997,19.72084 29.26234,25.67939c8.62398,4.63531 18.8341,4.83243 28.39039,4.83243c12.68451,0 25.25692,-1.17983 37.84628,-2.75365c5.31742,-0.66467 10.60309,-0.79397 15.88953,-1.30734c7.01683,-0.6814 13.95812,-3.16884 20.81436,-4.71362c8.92852,-2.01169 18.03087,-3.17607 27.10329,-4.33354c15.03733,-1.90319 29.96922,-2.68789 45.1173,-3.16896c7.54877,-0.23973 14.94504,-1.35859 22.50052,-1.34705c9.21625,0.01896 18.39689,1.10897 27.65167,0.67052c6.33002,-0.29989 12.59429,-1.86479 18.85993,-2.70078c7.49966,-1.00063 15.06131,-0.6932 22.61034,-0.6932c13.81844,0 27.46575,-3.815 41.26472,-4.74436c8.89745,-0.59924 17.35829,0.5546 26.12768,-1.64465c4.17721,-1.04431 8.06453,-2.53544 12.17035,-3.72019c7.88934,-2.27649 16.33696,-3.5734 22.92964,-9.12743c2.85487,-2.4051 4.68255,-6.5805 6.40386,-9.80035c0.81255,-1.51995 2.35073,-4.05055 2.64003,-5.84682c0.49438,-3.06964 -0.15957,-6.82894 -0.66754,-9.85019c-2.67549,-13.68023 -14.01087,-21.99905 -25.61425,-28.05797c-7.56988,-3.95276 -15.6083,-7.26308 -24.0228,-8.96929c-6.73858,-1.38065 -13.29379,-4.73 -20.09052,-5.64017c-4.26105,-0.57062 -8.675,-0.63109 -12.96411,-1.36863c-7.19763,-1.23768 -14.27042,-3.32201 -21.56696,-4.05046c-4.59052,-0.45829 -9.04256,-0.44702 -13.61733,-1.35626c-7.92802,0.01932 -17.09627,1.01307 -24.7604,-1.44296c-9.72948,-3.11789 -17.36519,-10.07027 -26.14836,-15.0114z" fill="#000000" stroke="none" stroke-width="0.5"/><path d="M392.19218,238.57561c7.66413,2.45603 16.83723,1.46933 24.76525,1.45001c4.57477,0.90924 9.02847,0.90115 13.61899,1.35944c7.29654,0.72845 14.37127,2.81743 21.5689,4.05511c4.28911,0.73754 8.7037,0.79992 12.96475,1.37054c6.79673,0.91017 13.35289,4.26299 20.09147,5.64364c8.4145,1.70621 16.45368,5.02041 24.02356,8.97317c11.60338,6.05892 22.93934,14.3855 25.61483,28.06573c0.50797,3.02125 1.16185,6.78296 0.66747,9.8526c-0.2893,1.79627 -1.82758,4.32834 -2.64013,5.84829c-1.72131,3.21985 -3.54927,7.39785 -6.40414,9.80295c-6.59268,5.55403 -15.04087,6.85433 -22.93021,9.13082c-4.10582,1.18475 -7.99354,2.67768 -12.17075,3.72199c-8.76939,2.19925 -17.23096,1.04809 -26.12841,1.64733c-13.79897,0.92936 -27.44921,4.75182 -41.26765,4.75182c-7.54903,0 -15.1138,-0.30196 -22.61346,0.69867c-6.26564,0.83599 -12.53546,2.40789 -18.86548,2.70778c-9.25478,0.43845 -18.44957,-0.64115 -27.66582,-0.66011c-7.55548,-0.01154 -14.97263,1.11245 -22.5214,1.35218c-15.14808,0.48107 -30.11322,1.25418 -45.15055,3.15737c-9.07242,1.15747 -18.18174,2.31474 -27.11026,4.32643c-6.85624,1.54478 -13.80003,4.02881 -20.81686,4.71021c-5.28644,0.51337 -10.57377,0.64003 -15.89119,1.3047c-12.58936,1.57382 -25.16418,2.74899 -37.84869,2.74899c-9.55629,0 -19.76803,-0.20118 -28.39201,-4.83649c-11.17237,-5.95855 -26.23919,-12.00309 -29.26441,-25.68737c-0.37491,-1.69587 -1.39906,-3.3086 -1.31405,-5.04334c0.3064,-6.25259 2.12016,-12.26626 4.56962,-17.99219c2.78037,-6.51427 6.9492,-10.72563 11.3298,-16.19887c3.00322,-3.7523 6.92651,-7.95756 11.2077,-10.31848c4.71687,-2.60119 10.42923,-5.1231 15.59271,-6.67576c3.03222,-0.91179 5.08408,-1.00753 7.72203,-2.81166c10.22928,-1.31905 20.65542,1.56796 30.8557,0.09084c5.97091,-0.86466 10.84917,-3.62136 16.08934,-6.26368c1.02146,-0.51506 3.47908,-0.85213 4.30198,-1.49416c2.30592,-1.79908 4.77095,-5.00295 6.27485,-7.46589c2.34271,-2.55751 4.28544,-6.04189 6.82222,-8.3116c1.4471,-1.29476 3.15268,-1.66048 4.87239,-2.35785c5.35792,-2.17274 10.57641,-3.53529 16.37824,-3.94727c4.25578,-0.3022 8.86057,0.70644 13.06189,-0.02232c4.99642,-0.86667 10.07752,-2.25294 15.02974,-3.41449c7.93075,-1.34178 15.79293,-4.36847 23.72295,-5.42747c3.34014,-0.44605 6.84517,-0.29294 10.20072,-0.66587c3.72823,-0.41436 7.42415,-1.28285 11.24201,-1.34278c6.26885,-0.0984 12.54544,0.35442 18.76252,-0.53734c3.17884,-1.05776 6.18544,-0.80298 9.49509,-0.82681l1.98537,0.50743c8.78317,4.94113 16.4339,11.90583 26.16338,15.02372z" data-paper-data="{&quot;noHover&quot;:false,&quot;origItem&quot;:[&quot;Path&quot;,{&quot;applyMatrix&quot;:true,&quot;segments&quot;:[[[366.00521,223.59597],[8.78317,4.94113],[0,0]],[[364.02104,223.08916],[0,0],[-3.30965,0.02383]],[[354.53136,223.91829],[3.17884,-1.05776],[-6.21708,0.89176]],[[335.78219,224.45847],[6.26885,-0.0984],[-3.81786,0.05993]],[[324.54898,225.80111],[3.72823,-0.41436],[-3.35555,0.37293]],[[314.35606,226.46554],[3.34014,-0.44605],[-7.93002,1.059]],[[290.6491,231.88548],[7.93075,-1.34178],[-4.95222,1.16155]],[[275.62638,235.29393],[4.99642,-0.86667],[-4.20132,0.72876]],[[262.56792,235.3123],[4.25578,-0.3022],[-5.80183,0.41198]],[[246.19345,239.25401],[5.35792,-2.17274],[-1.71971,0.69737]],[[241.32213,241.60992],[1.4471,-1.29476],[-2.53678,2.26971]],[[234.50204,249.91693],[2.34271,-2.55751],[-1.5039,2.46294]],[[228.22863,257.37876],[2.30592,-1.79908],[-0.8229,0.64203]],[[223.92699,258.87176],[1.02146,-0.51506],[-5.24017,2.64232]],[[207.8386,265.13142],[5.97091,-0.86466],[-10.20028,1.47712]],[[176.98321,265.03877],[10.22928,-1.31905],[-2.63795,1.80413]],[[169.26135,267.84923],[3.03222,-0.91179],[-5.16348,1.55266]],[[153.66889,274.52258],[4.71687,-2.60119],[-4.28119,2.36092]],[[142.46134,284.8381],[3.00322,-3.7523],[-4.3806,5.47324]],[[131.13146,301.03287],[2.78037,-6.51427],[-2.44946,5.72593]],[[126.5614,319.0208],[0.3064,-6.25259],[-0.08501,1.73474]],[[127.87525,324.0629],[-0.37491,-1.69587],[3.02522,13.68428]],[[157.13759,349.74229],[-11.17237,-5.95855],[8.62398,4.63531]],[[185.52798,354.57472],[-9.55629,0],[12.68451,0]],[[223.37426,351.82107],[-12.58936,1.57382],[5.31742,-0.66467]],[[239.26379,350.51373],[-5.28644,0.51337],[7.01683,-0.6814]],[[260.07815,345.80011],[-6.85624,1.54478],[8.92852,-2.01169]],[[287.18144,341.46657],[-9.07242,1.15747],[15.03733,-1.90319]],[[332.29874,338.29761],[-15.14808,0.48107],[7.54877,-0.23973]],[[354.79926,336.95056],[-7.55548,-0.01154],[9.21625,0.01896]],[[382.45093,337.62108],[-9.25478,0.43845],[6.33002,-0.29989]],[[401.31086,334.9203],[-6.26564,0.83599],[7.49966,-1.00063]],[[423.9212,334.2271],[-7.54903,0],[13.81844,0]],[[465.18592,329.48274],[-13.79897,0.92936],[8.89745,-0.59924]],[[491.3136,327.83809],[-8.76939,2.19925],[4.17721,-1.04431]],[[503.48395,324.1179],[-4.10582,1.18475],[7.88934,-2.27649]],[[526.41359,314.99047],[-6.59268,5.55403],[2.85487,-2.4051]],[[532.81745,305.19012],[-1.72131,3.21985],[0.81255,-1.51995]],[[535.45748,299.3433],[-0.2893,1.79627],[0.49438,-3.06964]],[[534.78994,289.49311],[0.50797,3.02125],[-2.67549,-13.68023]],[[509.17569,261.43514],[11.60338,6.05892],[-7.56988,-3.95276]],[[485.15289,252.46585],[8.4145,1.70621],[-6.73858,-1.38065]],[[465.06237,246.82568],[6.79673,0.91017],[-4.26105,-0.57062]],[[452.09826,245.45705],[4.28911,0.73754],[-7.19763,-1.23768]],[[430.5313,241.40659],[7.29654,0.72845],[-4.59052,-0.45829]],[[416.91397,240.05033],[4.57477,0.90924],[-7.92802,0.01932]],[[392.15357,238.60737],[7.66413,2.45603],[-9.72948,-3.11789]]],&quot;closed&quot;:true,&quot;fillColor&quot;:[0,0,0],&quot;strokeWidth&quot;:0.5}]}" fill="#a8dbff" stroke="none" stroke-width="0.25"/><path d="M253.95253,209.29306c0,-3.25 3.25,-3.25 3.25,-3.25l1.42147,0.04422c10.68204,1.78314 21.49162,1.2321 32.25636,2.26601c12.66273,0.72923 25.72805,-2.09523 37.38233,-6.94227c5.69733,-2.36953 11.9468,-3.45916 17.35988,-6.46448c6.22111,-3.45393 11.88364,-9.60073 17.01572,-14.90771c-0.55481,-0.58299 -0.89534,-1.37179 -0.89534,-2.24012c0,-1.79493 1.45507,-3.25 3.25,-3.25c1.45314,0 2.68353,0.95369 3.09942,2.26931c0.45832,0.14203 0.93746,0.42138 1.4166,0.90052c2.2981,2.2981 0,4.59619 0,4.59619c-6.14848,6.14621 -12.95012,14.00758 -20.63217,18.25852c-5.72961,3.17054 -12.12305,4.33674 -18.12669,6.84298c-12.61967,5.26813 -26.66011,8.15457 -40.36064,7.41848c-10.96163,-1.05152 -21.94993,-0.52462 -32.83405,-2.33588l-0.35288,0.04422c0,0 -3.25,0 -3.25,-3.25z" fill="#00ff1c" stroke="none" stroke-width="0.5"/><path d="M225.25678,246.95079c0.9339,-3.11293 4.04683,-2.17903 4.04683,-2.17903l4.23748,1.27804c2.7418,0.46051 5.35041,1.51451 8.03683,2.23053c4.50772,1.20145 9.38532,1.69592 14.01435,2.27453c5.72376,0.71544 11.9681,1.81024 17.77498,1.1866c10.03041,-1.07722 19.37578,-3.47942 29.10813,-6.10385c5.39165,-1.45391 10.97443,-2.19096 16.40857,-3.4948c7.09778,-2.08621 13.21966,-5.11299 20.04607,-7.91548c4.64143,-1.90547 10.06215,-2.93225 14.46851,-5.25626c2.61573,-1.37959 7.86206,-5.60839 10.16094,-7.24935c3.87988,-2.7695 7.63334,-5.38694 11.40786,-8.33482c6.59898,-5.15378 13.55664,-9.96643 17.84593,-17.29908c0,0 1.67208,-2.78687 4.45895,-1.11479c2.78687,1.67208 1.11479,4.45895 1.11479,4.45895c-4.8777,7.9813 -12.1146,13.37284 -19.41494,19.0747c-7.11193,5.5547 -14.7372,12.10456 -22.70469,16.29704c-4.55594,2.39732 -10.10441,3.48199 -14.89265,5.44635c-7.07373,2.90198 -13.45142,6.00593 -20.8149,8.17297c-5.41683,1.29972 -10.99441,2.02641 -16.365,3.48301c-10.1153,2.74345 -19.89231,5.23836 -30.33191,6.31646c-6.25994,0.64647 -12.91401,-0.4475 -19.08939,-1.21946c-4.88237,-0.61032 -10.01186,-1.16119 -14.77141,-2.41666c-2.65355,-0.69995 -5.22452,-1.7577 -7.93208,-2.20527l-4.63418,-1.38352c0,0 -3.11293,-0.9339 -2.17903,-4.04683z" fill="#00ff1c" stroke="none" stroke-width="0.5"/><path d="M186.62512,271.93704c0.78824,-3.15296 3.9412,-2.36473 3.9412,-2.36473l1.44572,0.37921c5.86799,0.86126 11.21131,3.28721 16.8631,5.02731c9.63034,2.96503 19.26349,5.43062 29.28446,6.34161c6.83791,0.62524 13.26711,0.13351 20.08383,0.13158c8.96204,-0.00254 18.16668,0.26843 27.10052,-0.43414c7.55837,-0.5944 15.21705,-3.07373 22.56922,-4.80236c5.76151,-1.35463 11.74277,-2.45449 17.39048,-4.21834c4.11764,-1.28599 8.00699,-3.22786 12.10052,-4.58864c5.5477,-1.84418 10.96182,-3.37718 16.33975,-5.718c19.77347,-8.59289 36.91061,-20.68853 53.01433,-34.8741c5.01173,-4.41477 10.29567,-8.85634 14.75128,-13.85753c2.52041,-2.82903 4.11998,-6.67038 5.78309,-9.99872c0,0 1.45345,-2.90689 4.36034,-1.45343c2.90689,1.45345 1.45343,4.36034 1.45343,4.36034c-1.92255,3.8427 -3.76168,8.02373 -6.63722,11.29325c-4.62585,5.25964 -10.17162,9.91538 -15.41229,14.53174c-16.6149,14.63557 -34.32772,27.08839 -54.72124,35.95942c-5.55371,2.4121 -11.15575,4.02455 -16.88229,5.92558c-1.25529,0.41672 -11.09817,4.27684 -12.21234,4.62467c-5.79511,1.80916 -11.92624,2.95076 -17.83813,4.34076c-7.69579,1.80943 -15.65601,4.3141 -23.56331,4.95645c-9.09036,0.73846 -18.4764,0.45572 -27.59615,0.45306c-7.00799,-0.00204 -13.63786,0.47765 -20.67231,-0.15827c-10.47831,-0.95256 -20.55444,-3.51098 -30.6218,-6.60675c-5.29157,-1.62719 -10.35513,-4.04074 -15.85657,-4.8008l-2.10291,-0.50794c0,0 -3.15296,-0.78824 -2.36473,-3.9412z" fill="#00ff1c" stroke="none" stroke-width="0.5"/><path d="M124.49137,285.06533c2.29813,-2.29806 4.59619,0.00007 4.59619,0.00007l-0.40107,-0.16521c1.77481,0.89955 3.26193,2.30695 5.04348,3.19308c1.77585,0.8833 3.76996,1.26333 5.56327,2.11062c8.53773,4.03382 16.82263,8.69969 25.3998,12.72696c9.9928,2.48071 19.21006,7.33688 29.33845,9.64924c6.34353,1.44826 12.88924,1.33579 19.30601,2.26049c5.70296,0.82183 11.2794,2.10874 17.04209,2.5501c12.59542,0.96468 25.68765,-0.18389 38.26234,-1.23187c42.38202,-3.53178 84.46877,-12.59674 123.9792,-28.56678c16.60587,-6.97026 34.5068,-14.79339 48.33095,-26.6528c12.75158,-10.93928 24.52543,-24.78414 32.02948,-39.79216c0,0 1.45345,-2.90689 4.36034,-1.45343c2.90689,1.45345 1.45343,4.36034 1.45343,4.36034c-7.8879,15.77571 -20.20583,30.3375 -33.62066,41.82689c-14.3678,12.30558 -32.82197,20.47858 -50.07771,27.72118c-40.12668,16.22015 -82.87002,25.44705 -125.91523,29.03431c-12.90519,1.07538 -26.34717,2.23426 -39.27327,1.23723c-5.90873,-0.45576 -11.62826,-1.75084 -17.4751,-2.5962c-6.59492,-0.95352 -13.2875,-0.87126 -19.8114,-2.35197c-10.39749,-2.35989 -19.85674,-7.28987 -30.10153,-9.86842c-8.81714,-4.09146 -17.30408,-8.85278 -26.0557,-13.0008c-1.92978,-0.91466 -4.06158,-1.36649 -5.96986,-2.32519c-1.66739,-0.83767 -3.04066,-2.19405 -4.71533,-3.01708l-1.28825,-1.05241c0,0 -2.29806,-2.29813 0.00007,-4.59619z" fill="#00ff1c" stroke="none" stroke-width="0.5"/><path d="M83.64604,381.12012v-393.39019h489.33902v393.3902z" fill="none" stroke="#000000" stroke-width="0"/></g></g></svg>