<svg version="1.1" xmlns="http://www.w3.org/2000/svg" xmlns:xlink="http://www.w3.org/1999/xlink" width="489.33902" height="393.3902" viewBox="0,0,489.33902,393.3902"><g transform="translate(-83.64604,12.27008)"><g data-paper-data="{&quot;isPaintingLayer&quot;:true}" fill-rule="nonzero" stroke-linecap="butt" stroke-linejoin="miter" stroke-miterlimit="10" stroke-dasharray="" stroke-dashoffset="0" style="mix-blend-mode: normal"><path d="M476.82494,362.14425c-0.39967,0 -0.70806,-0.09128 -0.94603,-0.23214c-9.48477,0.09634 -18.97959,-0.56346 -28.4977,-1.02953c-7.2239,-0.35373 -14.3424,0.13575 -21.53401,-0.77647c-5.63621,0.00391 -11.26052,-0.88176 -16.89322,-0.67596c-4.94531,0.18068 -9.84534,1.12913 -14.76719,1.3542c-9.10094,0.41619 -18.78423,-0.14603 -27.78932,1.30487c-3.01526,0.48582 -5.73006,1.44759 -8.7919,1.85878c-5.96134,0.79483 -11.73803,0.42364 -17.67909,0.90589c-8.11828,0.65898 -16.18726,2.04242 -24.31518,2.70375c-8.62163,0.7015 -17.21775,0.70252 -25.86027,0.68648c-10.03514,1.43864 -20.49938,0.68269 -30.61958,0.68269c-13.16836,0 -26.19131,0.67828 -39.36457,0.67828c-3.09539,0 -6.29867,-0.2292 -9.38683,-0.00338c-4.76544,0.34847 -9.46315,1.77071 -14.21863,2.03302c-6.691,0.36907 -13.30404,-0.31306 -19.89611,-0.67564c-7.65538,-0.42106 -14.97371,2.15976 -22.63223,0.64675c-5.36905,-1.07382 -10.38768,-2.75547 -15.6841,-4.08857c-4.01701,-1.01107 -8.44751,-1.44837 -12.34903,-2.75472c-6.19316,-2.07366 -13.72653,-6.39951 -18.83435,-10.45956c-3.95021,-3.13991 -7.35816,-7.38904 -10.54892,-11.2637c-3.59739,-7.13027 -8.05351,-14.26349 -9.08014,-22.38163c-0.78586,-6.21424 1.99507,-13.54645 4.60537,-19.10771c0.95875,-2.04262 2.64908,-3.6735 3.68734,-5.67688c1.89887,-3.66399 3.73222,-7.06105 6.24943,-10.41916c3.90773,-5.86075 8.34317,-11.04427 14.94179,-14.14473c1.63026,-0.766 3.51179,-0.96352 5.07261,-1.86261c4.47462,-2.57755 8.9149,-6.35989 14.36493,-7.09117c1.82937,-0.24546 3.70692,0.22342 5.53727,-0.01463c1.97187,-0.25646 3.97413,-0.52928 5.97314,-0.83285c0.09105,-0.26177 0.20399,-0.43117 0.20399,-0.43117c0.09712,-0.14561 0.19344,-0.29169 0.289,-0.43822c-0.35778,-0.32043 -0.58292,-0.78593 -0.58292,-1.30403c0,-0.9665 0.7835,-1.75 1.75,-1.75c0.22091,0 0.43226,0.04093 0.62688,0.11563c3.0584,-5.32134 5.4612,-11.02672 8.73347,-16.23701c2.82167,-4.49282 7.16522,-9.12004 8.73695,-14.09716l0.17522,-0.16235l-0.05926,-0.03951l1.34143,-2.01218c0.31159,-0.48248 0.85407,-0.80187 1.47115,-0.80187c0.83283,0 1.52977,0.58176 1.70663,1.36107l0.84001,3.35998l-0.04297,0.01074c0.57923,1.39754 1.05805,2.82897 1.25851,4.19868c0.22117,1.51118 -0.12785,4.19349 0.65236,5.64318c0.49692,0.92333 1.77964,-1.14052 2.51921,-1.88382c1.23497,-1.24119 2.08742,-2.83474 3.35915,-4.03824c2.98752,-2.82725 6.09612,-5.41788 9.01927,-8.34099c1.35526,-1.35525 2.36904,-3.18943 4.08173,-4.04973c1.41844,-0.7125 3.11339,-2.23989 4.51887,-1.50215c1.46089,0.76683 1.13964,3.10167 1.56527,4.69574c0.83265,3.11843 0.65371,4.03417 0.70879,7.22884c0.09577,6.62742 -1.62723,13.02576 -1.98903,19.60383c-0.01194,0.21713 -0.02393,0.43435 -0.03595,0.65165c4.40031,-0.76936 8.86468,-1.34805 13.20616,-2.08514c2.88037,-0.48743 5.74646,-1.49675 8.65033,-1.78447c4.08188,-0.40444 8.32971,0.12181 12.43458,-0.00765c15.02844,-0.47394 30.68694,-1.50923 45.53875,-3.89905c5.46795,-0.90508 11.11042,-2.27534 16.59324,-2.87122c4.64142,-0.50443 9.42857,0.33829 14.08388,-0.00828c4.19035,-0.31195 8.30851,-1.56168 12.48904,-1.93c8.76692,-0.77241 17.73113,-0.76496 26.54231,-0.78791c4.30097,0.00142 8.5355,-0.55022 12.826,-0.67707c12.61446,-0.37295 25.3658,0.78168 37.95812,0.00103c5.79614,-0.35933 11.43876,-0.68045 17.26098,-0.68045c5.83929,0 11.60249,-0.34992 17.38337,-0.57046c0.45262,-0.01727 6.18109,0.54258 6.89029,0.57203c15.28831,0.63478 30.40925,0.52109 45.628,2.05247c10.41889,2.08327 22.12417,5.13162 31.49842,10.25655c2.04909,1.12024 3.80762,2.72226 5.849,3.85649c4.87773,2.71016 10.95622,4.91031 15.1239,8.71056c0.8536,0.77834 1.27262,1.9479 2.08913,2.76508c2.5785,2.58061 5.16213,4.45847 7.45263,7.42679c6.75524,8.13057 9.7106,17.80234 12.00843,28.01767c1.26973,5.64475 2.2375,11.78673 1.37652,17.62059c-0.65217,4.41902 -3.74521,8.82608 -6.04818,12.75889c-0.02496,0.33909 -0.1731,0.71205 -0.54608,1.08502c-0.0525,0.0525 -0.105,0.10054 -0.1574,0.14441c-0.25518,0.4395 -0.52659,0.87495 -0.81269,1.30556c0.09049,-0.06459 0.19228,-0.12592 0.30659,-0.18308c1.56524,-0.78264 2.34788,0.7826 2.34788,0.7826l0.56911,1.16839c0.45216,0.67827 0.90432,1.35654 1.35649,2.03481c0,0 0.9707,1.45611 -0.48541,2.4268c-1.45611,0.9707 -2.4268,-0.48541 -2.4268,-0.48541c-0.45216,-0.67827 -0.90432,-1.35654 -1.35649,-2.03481l-0.78738,-1.54451c0,0 -0.3044,-0.60877 -0.15386,-1.25684c-2.70777,3.74448 -6.47905,7.06672 -10.24773,9.4236c-2.91973,1.82597 -5.32156,4.43843 -8.20536,6.31132c-5.17342,3.35989 -11.82286,6.23389 -17.70001,8.00559c-7.66057,2.30933 -15.80958,2.14768 -23.64008,3.4552c-5.16255,0.75181 -10.32568,1.1065 -15.49152,1.2176c-0.24423,0.15809 -0.56751,0.26273 -0.99542,0.26273zM475.12176,357.9574c1.6699,-3.45592 4.14985,-6.80779 5.4879,-10.37886c0.94859,-2.53164 0.90927,-5.17314 1.26381,-7.76816c0.25304,-1.85208 1.05272,-3.58902 1.48607,-5.40738c1.50668,-6.32199 2.47454,-12.78097 3.88463,-19.12775c0.50651,-2.27227 1.16415,-7.89572 4.10235,-8.81022c1.98883,-0.61901 4.62163,2.92879 5.579,3.74162c4.31353,3.66228 8.62058,8.07533 13.60383,10.82837c1.64798,0.91044 3.27358,2.87115 5.10219,2.4229c1.23919,-0.30377 1.47857,-4.27373 1.50097,-4.60646c0.46319,-6.8787 -0.00589,-13.95972 -0.00589,-20.85655c0.0128,-1.69572 -0.4512,-5.64054 2.02628,-6.45089c1.11095,-0.36338 2.07064,1.10806 2.99597,1.8222c2.19975,1.6977 3.51641,4.19786 5.46217,6.14042c6.2874,6.27706 12.40412,12.66265 18.45748,19.15699c2.46377,2.64325 4.59464,5.56178 6.99679,8.23786c1.98515,-3.2048 4.31343,-6.78942 4.77908,-10.19574c0.74252,-5.43175 -0.1546,-11.04146 -1.33645,-16.29211c-2.18389,-9.70244 -4.91661,-18.88123 -11.32676,-26.59912c-2.2323,-2.90438 -4.66686,-4.61286 -7.19442,-7.1383c-0.78213,-0.78148 -1.16983,-1.90885 -1.98033,-2.66087c-3.89513,-3.61407 -9.86356,-5.67103 -14.45944,-8.23114c-2.03359,-1.1328 -3.78895,-2.72487 -5.82922,-3.84557c-8.98199,-4.93371 -20.34416,-7.86601 -30.33454,-9.86452c-13.8773,-1.37873 -27.81182,-2.01236 -41.79272,-2.0155c-3.32208,-0.00075 -6.77816,-0.71011 -10.06841,-0.57323c-5.82843,0.24247 -11.63605,0.57323 -17.52257,0.57323c-5.76636,0 -11.34657,0.32442 -17.08663,0.67611c-12.61078,0.77266 -25.37439,-0.36884 -38.00628,0.00103c-4.33087,0.12681 -8.60563,0.67796 -12.94763,0.67934c-8.71051,0.0227 -17.57376,0.00826 -26.23918,0.77437c-4.19623,0.37099 -8.32869,1.62061 -12.53688,1.9339c-4.59563,0.34213 -9.33972,-0.51026 -13.91612,-0.00828c-5.43599,0.59627 -11.03343,1.95394 -16.45773,2.85184c-10.428,1.66958 -21.40721,2.60264 -31.95817,3.2671c-8.66696,0.54582 -17.6181,-0.1733 -26.23343,0.66816c-2.81447,0.27489 -5.61595,1.2764 -8.40935,1.75212c-4.59907,0.78082 -9.33881,1.37801 -13.98922,2.22166c-0.2376,4.42088 -0.44096,8.86141 -0.44096,13.27582v1.35653c0,0 0,1.75 -1.75,1.75c-1.75,0 -1.75,-1.75 -1.75,-1.75v-1.35653c0,-4.17911 0.17406,-8.38404 0.39446,-12.573c-0.8911,0.19373 -1.77661,0.40091 -2.65486,0.62466c0.19733,0.25397 0.33433,0.60661 0.33433,1.09625c0,1.75 -1.75,1.75 -1.75,1.75h-1.35649c-3.59129,-0.01884 -6.87074,1.24563 -10.3715,1.81659c-1.39827,0.5657 -2.78894,1.12656 -4.171,1.6582c-0.36483,0.14034 -6.63831,2.56281 -6.84215,2.6001c-3.59588,0.65787 -7.50257,-0.6488 -11.17152,-0.6488c0,0 -1.00966,0 -1.49517,-0.76691c-0.03013,0.00995 -0.06026,0.01993 -0.09038,0.02997c-4.30296,0.86043 -8.80863,1.53914 -13.16356,2.08488c-1.75785,0.22029 -3.55656,-0.23199 -5.31478,-0.01463c-4.95854,0.613 -8.99239,4.28533 -13.04842,6.58721c-1.70507,0.96766 -3.71459,1.27567 -5.49628,2.09371c-6.08584,2.79425 -9.9826,7.6412 -13.54481,12.98538c-4.23427,5.64249 -8.19257,12.20054 -10.61741,18.76246c-1.6795,4.54493 -3.94122,8.87682 -3.32713,13.85913c0.94132,7.63723 5.22819,14.30494 8.55449,21.02655c3.00706,3.55525 6.13472,7.52836 9.79868,10.44039c4.78548,3.80338 11.98982,7.95303 17.79132,9.88804c3.80865,1.27032 8.14546,1.68398 12.06811,2.6713c5.24358,1.31979 10.20431,2.98825 15.51555,4.05051c7.4124,1.50245 14.68486,-1.08451 22.13252,-0.70974c6.44486,0.32431 12.89815,1.02736 19.44253,0.68085c4.76701,-0.25241 9.48827,-1.69057 14.26805,-2.03644c3.16176,-0.22879 6.43542,-0.00338 9.60429,-0.00338c13.1729,0 26.19574,-0.67828 39.36457,-0.67828c10.04132,0 20.41329,0.74395 30.37146,-0.67388c8.63161,-0.01451 17.213,0.01693 25.82455,-0.68376c8.14933,-0.66307 16.24076,-2.05962 24.38153,-2.70852c5.86592,-0.46757 11.55262,-0.09778 17.43401,-0.88195c3.04336,-0.40266 5.69047,-1.36039 8.69772,-1.84492c9.11609,-1.46878 18.91588,-0.93962 28.12858,-1.34267c4.94993,-0.21656 9.88408,-1.18138 14.85848,-1.35869c5.74915,-0.20493 11.48542,0.67657 17.23689,0.68045c7.17701,0.88525 14.27842,0.42088 21.48771,0.7739c9.20162,0.45057 18.38651,1.0975 27.5604,1.03989zM530.08592,306.93126c-2.99123,-2.99123 -5.72879,-5.9523 -8.46179,-9.14619c-0.23203,-0.27116 -0.60097,-0.63284 -0.95686,-1.00823c-0.01336,0.45079 -0.04363,0.89542 -0.04063,1.21808c0,6.94197 0.64603,14.23619 -0.00589,21.14345c-0.24626,2.60916 -0.71152,6.5626 -3.92497,7.65385c-1.46737,0.4983 -3.07404,-0.49844 -4.54001,-1.00086c-5.11538,-1.75314 -9.59853,-5.92079 -13.45992,-9.55674c-1.25972,-1.18617 -2.671,-2.2005 -3.98926,-3.32125c-0.8742,-0.74322 -1.69038,-1.56099 -2.42936,-2.43878c-0.13229,-0.15714 -0.02085,-0.77575 -0.13071,-0.60219c-0.7844,1.23906 -1.23577,5.03399 -1.48568,6.16215c-1.4147,6.36424 -2.38585,12.84006 -3.89663,19.17983c-0.40678,1.70702 -1.19934,3.32801 -1.42277,5.06854c-0.36542,2.84658 -0.4112,5.74382 -1.44916,8.50991c-1.24809,3.32606 -3.4581,6.42001 -5.15386,9.57229c4.68027,-0.13213 9.35786,-0.47865 14.03355,-1.15931c7.66323,-1.27484 15.67716,-1.08945 23.16976,-3.34813c5.56465,-1.67749 11.9026,-4.40669 16.80387,-7.58983c2.90572,-1.88712 5.32524,-4.51303 8.27165,-6.35332c3.78581,-2.36457 7.83213,-5.91702 10.18207,-9.84984c-7.26189,-7.44667 -13.72354,-15.74356 -21.11338,-23.13342zM194.96037,250.3972c0.36797,-6.47536 2.09127,-12.78853 1.98122,-19.30918c-0.03091,-2.22956 -0.53391,-4.43079 -0.65276,-6.65739c-0.03933,-0.73681 0.69546,-1.5603 0.31306,-2.19134c-0.26139,-0.43134 -0.578,0.82883 -0.90715,1.21098c-0.3675,0.42667 -0.78203,0.81051 -1.17849,1.21042c-1.64273,1.65707 -3.29943,3.30023 -4.94977,4.94972c-2.12411,2.12301 -4.36815,3.82111 -6.54437,5.86611c-2.25326,2.1174 -3.53676,5.50833 -6.78835,6.52707c-5.62087,1.76104 -5.21674,-4.88762 -5.67205,-8.16243c-0.19956,-1.43535 -0.58811,-2.29924 -0.7673,-3.2562c-2.01952,4.45797 -5.62625,8.5831 -8.22217,12.70831c-3.53125,5.61156 -6.05437,11.78944 -9.45847,17.46149c0.70134,-0.12741 1.39904,-0.26008 2.09159,-0.39865c7.36915,-2.45633 15.12063,-2.15651 22.70749,-2.7672c0.33611,-0.02705 0.66923,-0.06242 0.99985,-0.10462l-0.00002,0.00001c4.23703,-1.70911 8.53975,-3.44624 12.88716,-4.58038c1.342,-0.3501 2.7012,-0.66104 4.07175,-0.94374c0.02953,-0.52146 0.05921,-1.04248 0.08879,-1.56298zM167.40616,261.64537c-0.8624,0.05657 -1.72382,0.12217 -2.58342,0.20259c0.82459,0.02662 1.62921,-0.01361 2.39912,-0.16455c0.06161,-0.01208 0.12304,-0.02477 0.1843,-0.03804z" fill="#000000" stroke="none" stroke-width="0.5"/><path d="M530.11549,306.89093c7.38984,7.38986 13.87183,15.73052 21.13372,23.17719c-2.34994,3.93282 -6.40096,7.50325 -10.18677,9.86782c-2.94641,1.84029 -5.37666,4.48102 -8.28238,6.36814c-4.90127,3.18314 -11.27182,5.92607 -16.83647,7.60356c-7.4926,2.25868 -15.53835,2.06334 -23.20158,3.33818c-4.67569,0.68066 -9.3614,1.01954 -14.04167,1.15167c1.69576,-3.15228 3.90258,-6.25041 5.15067,-9.57647c1.03796,-2.76609 1.07908,-5.67181 1.4445,-8.51839c0.22343,-1.74053 1.01368,-3.36816 1.42046,-5.07518c1.51078,-6.33977 2.48502,-12.85011 3.89972,-19.21435c0.24991,-1.12816 0.70694,-4.93229 1.49134,-6.17135c0.10986,-0.17356 0.07787,0.50578 0.21016,0.66292c0.73898,0.87779 1.55574,1.69478 2.42994,2.438c1.31826,1.12075 2.73005,2.13435 3.98977,3.32052c3.86139,3.63595 8.26126,7.74829 13.37664,9.50143c1.46597,0.50242 3.06931,1.54645 4.53668,1.04815c3.21345,-1.09125 3.69645,-5.02371 3.94271,-7.63287c0.65192,-6.90726 0.02433,-14.1939 0.02433,-21.13587c-0.003,-0.32266 0.04576,-0.86556 0.05912,-1.31635c0.35589,0.37539 0.72664,0.73744 0.95867,1.0086c2.733,3.19389 5.4892,6.16342 8.48043,9.15465z" data-paper-data="{&quot;noHover&quot;:false,&quot;origItem&quot;:[&quot;Path&quot;,{&quot;applyMatrix&quot;:true,&quot;segments&quot;:[[[530.08592,306.93126],[0,0],[-2.99123,-2.99123]],[[521.62413,297.78507],[2.733,3.19389],[-0.23203,-0.27116]],[[520.66727,296.77684],[0.35589,0.37539],[-0.01336,0.45079]],[[520.62664,297.99492],[-0.003,-0.32266],[0,6.94197]],[[520.62075,319.13837],[0.65192,-6.90726],[-0.24626,2.60916]],[[516.69578,326.79222],[3.21345,-1.09125],[-1.46737,0.4983]],[[512.15577,325.79136],[1.46597,0.50242],[-5.11538,-1.75314]],[[498.69585,316.23462],[3.86139,3.63595],[-1.25972,-1.18617]],[[494.70659,312.91337],[1.31826,1.12075],[-0.8742,-0.74322]],[[492.27723,310.47459],[0.73898,0.87779],[-0.13229,-0.15714]],[[492.14652,309.8724],[0.10986,-0.17356],[-0.7844,1.23906]],[[490.66084,316.03455],[0.24991,-1.12816],[-1.4147,6.36424]],[[486.76421,335.21438],[1.51078,-6.33977],[-0.40678,1.70702]],[[485.34144,340.28292],[0.22343,-1.74053],[-0.36542,2.84658]],[[483.89228,348.79283],[1.03796,-2.76609],[-1.24809,3.32606]],[[478.73842,358.36512],[1.69576,-3.15228],[4.68027,-0.13213]],[[492.77197,357.20581],[-4.67569,0.68066],[7.66323,-1.27484]],[[515.94173,353.85768],[-7.4926,2.25868],[5.56465,-1.67749]],[[532.7456,346.26785],[-4.90127,3.18314],[2.90572,-1.88712]],[[541.01725,339.91453],[-2.94641,1.84029],[3.78581,-2.36457]],[[551.19932,330.06469],[-2.34994,3.93282],[-7.26189,-7.44667]],[[530.08594,306.93127],[7.38984,7.38986],[0,0]]],&quot;closed&quot;:true,&quot;fillColor&quot;:[0,0,0,1]}]}" fill="#5cff95" stroke="none" stroke-width="0.5"/><path d="M195.00618,250.41725c-0.02958,0.5205 -0.06064,1.04441 -0.09017,1.56587c-1.37055,0.2827 -2.73329,0.59947 -4.07529,0.94957c-4.34741,1.13414 -8.6807,2.89141 -12.91773,4.60052l0.00002,-0.00001c-0.33062,0.0422 -0.66676,0.07811 -1.00287,0.10516c-7.58686,0.61069 -15.38226,0.29546 -22.75141,2.75179c-0.69255,0.13857 -1.39153,0.26981 -2.09287,0.39722c3.4041,-5.67205 5.91561,-11.87552 9.44686,-17.48708c2.59592,-4.12521 6.23218,-8.30321 8.2517,-12.76118c0.17919,0.95696 0.61083,1.91102 0.81039,3.34637c0.45531,3.27481 -0.01951,9.86375 5.60136,8.10271c3.25159,-1.01874 4.54177,-4.36551 6.79503,-6.48291c2.17622,-2.045 4.42187,-3.74094 6.54598,-5.86395c1.65034,-1.64949 3.30804,-3.29142 4.95077,-4.94849c0.39646,-0.39991 0.81119,-0.78352 1.17869,-1.21019c0.32915,-0.38215 0.72156,-1.70754 0.98295,-1.2762c0.3824,0.63104 -0.35072,1.45655 -0.31139,2.19336c0.11885,2.2266 0.62785,4.43765 0.65876,6.66721c0.11005,6.52065 -1.61283,12.87486 -1.9808,19.35022z" data-paper-data="{&quot;noHover&quot;:false,&quot;origItem&quot;:[&quot;Path&quot;,{&quot;applyMatrix&quot;:true,&quot;segments&quot;:[[[194.96037,250.3972],[0,0],[0.36797,-6.47536]],[[196.94159,231.08802],[0.11005,6.52065],[-0.03091,-2.22956]],[[196.28883,224.43063],[0.11885,2.2266],[-0.03933,-0.73681]],[[196.60189,222.23929],[0.3824,0.63104],[-0.26139,-0.43134]],[[195.69474,223.45027],[0.32915,-0.38215],[-0.3675,0.42667]],[[194.51625,224.66069],[0.39646,-0.39991],[-1.64273,1.65707]],[[189.56648,229.61041],[1.65034,-1.64949],[-2.12411,2.12301]],[[183.02211,235.47652],[2.17622,-2.045],[-2.25326,2.1174]],[[176.23376,242.00359],[3.25159,-1.01874],[-5.62087,1.76104]],[[170.56171,233.84116],[0.45531,3.27481],[-0.19956,-1.43535]],[[169.79441,230.58496],[0.17919,0.95696],[-2.01952,4.45797]],[[161.57224,243.29327],[2.59592,-4.12521],[-3.53125,5.61156]],[[152.11377,260.75476],[3.4041,-5.67205],[0.70134,-0.12741]],[[154.20536,260.35611],[-0.69255,0.13857],[7.36915,-2.45633]],[[176.91285,257.58891],[-7.58686,0.61069],[0.33611,-0.02705]],[[177.9127,257.48429],[-0.33062,0.0422],[0,0]],[[177.91268,257.4843],[0,0],[4.23703,-1.70911]],[[190.79984,252.90392],[-4.34741,1.13414],[1.342,-0.3501]],[[194.87159,251.96018],[-1.37055,0.2827],[0.02953,-0.52146]],[[194.96038,250.3972],[-0.02958,0.5205],[0,0]]],&quot;closed&quot;:true,&quot;fillColor&quot;:[0,0,0,1]}]}" fill="#5cff95" stroke="none" stroke-width="0.5"/><path d="M475.15976,358.44359c-9.17389,0.05761 -18.35993,-0.58642 -27.56155,-1.03699c-7.20929,-0.35302 -14.31216,0.11444 -21.48917,-0.77081c-5.75147,-0.00388 -11.48955,-0.88217 -17.2387,-0.67724c-4.9744,0.17731 -9.91144,1.14633 -14.86137,1.36289c-9.2127,0.40305 -19.02194,-0.11668 -28.13803,1.3521c-3.00725,0.48453 -5.65949,1.44569 -8.70285,1.84835c-5.88139,0.78417 -11.58026,0.41945 -17.44618,0.88702c-8.14077,0.6489 -16.25258,2.04662 -24.40191,2.70969c-8.61155,0.70069 -17.21041,0.66318 -25.84202,0.67769c-9.95817,1.41783 -20.34167,0.66478 -30.38299,0.66478c-13.16883,0 -26.19827,0.66952 -39.37117,0.66952c-3.16887,0 -6.44346,-0.22705 -9.60522,0.00174c-4.77978,0.34587 -9.50185,1.78248 -14.26886,2.03489c-6.54438,0.34651 -12.99888,-0.35916 -19.44374,-0.68347c-7.44766,-0.37477 -14.72095,2.21013 -22.13335,0.70768c-5.31124,-1.06226 -10.27276,-2.73296 -15.51634,-4.05275c-3.92265,-0.98732 -8.25991,-1.40243 -12.06856,-2.67275c-5.8015,-1.93501 -13.00665,-6.08784 -17.79213,-9.89122c-3.66396,-2.91203 -6.79213,-6.88779 -9.79919,-10.44304c-3.3263,-6.72161 -7.61372,-13.39402 -8.55504,-21.03125c-0.61409,-4.98231 1.64751,-9.31715 3.32701,-13.86208c2.42484,-6.56192 6.38328,-13.12421 10.61755,-18.7667c3.56221,-5.34418 7.45933,-10.19446 13.54517,-12.98871c1.78169,-0.81804 3.79131,-1.12674 5.49638,-2.0944c4.05603,-2.30188 8.09028,-5.9764 13.04882,-6.5894c1.75822,-0.21736 3.55699,0.23464 5.31484,0.01435c4.35493,-0.54574 8.8609,-1.22578 13.16386,-2.08621c0.03012,-0.01004 0.15752,0.00317 0.18765,-0.00678c0.48551,0.76691 1.39787,0.74381 1.39787,0.74381c3.66895,0 7.57578,1.30609 11.17166,0.64822c0.20384,-0.03729 6.47766,-2.46106 6.84249,-2.6014c1.38206,-0.53164 2.77298,-1.09336 4.17125,-1.65906c3.50076,-0.57096 6.78071,-1.837 10.372,-1.81816l1.35654,-0.00014c0,0 1.75026,-0.00075 1.75026,-1.75075c0,-0.48964 -0.13689,-0.84259 -0.33422,-1.09656c0.87825,-0.22375 1.85761,-0.39641 2.74871,-0.59014c-0.2204,4.18896 -0.3931,8.38968 -0.3931,12.56879l0.00013,1.35606c0,0 -0.09676,1.72477 1.65324,1.72477c1.75,0 1.75021,-1.75078 1.75021,-1.75078l0.00013,-1.35701c0,-4.41441 0.20488,-8.85946 0.44248,-13.28034c4.65041,-0.84365 9.39128,-1.44351 13.99035,-2.22433c2.7934,-0.47572 5.59584,-1.4792 8.41031,-1.75409c8.61533,-0.84146 17.5699,-0.12806 26.23686,-0.67388c10.55096,-0.66446 21.54007,-1.60809 31.96807,-3.27767c5.4243,-0.8979 11.0311,-2.26147 16.46709,-2.85774c4.5764,-0.50198 9.33006,0.34693 13.92569,0.0048c4.20819,-0.31329 8.35079,-1.56439 12.54702,-1.93538c8.66542,-0.76611 17.54842,-0.74849 26.25893,-0.77119c4.342,-0.00138 8.62412,-0.54904 12.95499,-0.67585c12.63189,-0.36987 25.4086,0.78256 38.01938,0.0099c5.74006,-0.35169 11.32315,-0.67237 17.08951,-0.67237c5.88652,0 11.69618,-0.32759 17.52461,-0.57006c3.29025,-0.13688 6.74735,0.57429 10.06943,0.57504c13.9809,0.00314 27.91802,0.64245 41.79532,2.02118c9.99038,1.99851 21.35413,4.93563 30.33612,9.86934c2.04027,1.1207 3.79595,2.71402 5.82954,3.84682c4.59588,2.56011 10.56487,4.61966 14.46,8.23373c0.8105,0.75202 1.19832,1.88007 1.98045,2.66155c2.52756,2.52544 4.96241,4.23575 7.19471,7.14013c6.41015,7.71789 9.14333,16.90268 11.32722,26.60512c1.18185,5.25065 2.0789,10.86385 1.33638,16.2956c-0.46565,3.40632 -2.7941,6.9932 -4.77925,10.198c-2.40215,-2.67608 -4.63266,-5.60286 -7.09643,-8.24611c-6.05336,-6.49434 -12.17018,-12.87553 -18.45758,-19.15259c-1.94576,-1.94256 -3.26236,-4.44114 -5.46211,-6.13884c-0.92533,-0.71414 -1.7852,-2.19148 -2.89615,-1.8281c-2.47748,0.81035 -2.0134,4.7568 -2.0262,6.45252c0,6.89683 0.46896,13.98325 0.00577,20.86195c-0.0224,0.33273 -0.26189,4.30391 -1.50108,4.60768c-1.82861,0.44825 -3.55375,-1.52204 -5.20173,-2.43248c-4.98325,-2.75304 -9.29047,-7.16333 -13.604,-10.82561c-0.95737,-0.81283 -3.49021,-4.35813 -5.47904,-3.73912c-2.9382,0.9145 -3.59595,6.54066 -4.10246,8.81293c-1.41009,6.34678 -2.37872,12.8117 -3.8854,19.13369c-0.43335,1.81836 -1.23338,3.55699 -1.48642,5.40907c-0.35454,2.59502 -0.31581,5.23887 -1.2644,7.77051c-1.33805,3.57107 -3.81908,6.92636 -5.48898,10.38228z" data-paper-data="{&quot;noHover&quot;:false,&quot;origItem&quot;:[&quot;Path&quot;,{&quot;applyMatrix&quot;:true,&quot;segments&quot;:[[[475.12176,357.9574],[0,0],[1.6699,-3.45592]],[[480.60966,347.57854],[-1.33805,3.57107],[0.94859,-2.53164]],[[481.87347,339.81038],[-0.35454,2.59502],[0.25304,-1.85208]],[[483.35954,334.403],[-0.43335,1.81836],[1.50668,-6.32199]],[[487.24417,315.27525],[-1.41009,6.34678],[0.50651,-2.27227]],[[491.34652,306.46503],[-2.9382,0.9145],[1.98883,-0.61901]],[[496.92552,310.20665],[-0.95737,-0.81283],[4.31353,3.66228]],[[510.52935,321.03502],[-4.98325,-2.75304],[1.64798,0.91044]],[[515.63154,323.45792],[-1.82861,0.44825],[1.23919,-0.30377]],[[517.13251,318.85146],[-0.0224,0.33273],[0.46319,-6.8787]],[[517.12662,297.99491],[0,6.89683],[0.0128,-1.69572]],[[519.1529,291.54402],[-2.47748,0.81035],[1.11095,-0.36338]],[[522.14887,293.36622],[-0.92533,-0.71414],[2.19975,1.6977]],[[527.61104,299.50664],[-1.94576,-1.94256],[6.2874,6.27706]],[[546.06852,318.66363],[-6.05336,-6.49434],[2.46377,2.64325]],[[553.06531,326.90149],[-2.40215,-2.67608],[1.98515,-3.2048]],[[557.84439,316.70575],[-0.46565,3.40632],[0.74252,-5.43175]],[[556.50794,300.41364],[1.18185,5.25065],[-2.18389,-9.70244]],[[545.18118,273.81452],[6.41015,7.71789],[-2.2323,-2.90438]],[[537.98676,266.67622],[2.52756,2.52544],[-0.78213,-0.78148]],[[536.00643,264.01535],[0.8105,0.75202],[-3.89513,-3.61407]],[[521.54699,255.78421],[4.59588,2.56011],[-2.03359,-1.1328]],[[515.71777,251.93864],[2.04027,1.1207],[-8.98199,-4.93371]],[[485.38323,242.07412],[9.99038,1.99851],[-13.8773,-1.37873]],[[443.59051,240.05862],[13.9809,0.00314],[-3.32208,-0.00075]],[[433.5221,239.48539],[3.29025,-0.13688],[-5.82843,0.24247]],[[415.99953,240.05862],[5.88652,0],[-5.76636,0]],[[398.9129,240.73473],[5.74006,-0.35169],[-12.61078,0.77266]],[[360.90662,240.73576],[12.63189,-0.36987],[-4.33087,0.12681]],[[347.95899,241.4151],[4.342,-0.00138],[-8.71051,0.0227]],[[321.71981,242.18947],[8.66542,-0.76611],[-4.19623,0.37099]],[[309.18293,244.12337],[4.20819,-0.31329],[-4.59563,0.34213]],[[295.26681,244.11509],[4.5764,-0.50198],[-5.43599,0.59627]],[[278.80908,246.96693],[5.4243,-0.8979],[-10.428,1.66958]],[[246.85091,250.23403],[10.55096,-0.66446],[-8.66696,0.54582]],[[220.61748,250.90219],[8.61533,-0.84146],[-2.81447,0.27489]],[[212.20813,252.65431],[2.7934,-0.47572],[-4.59907,0.78082]],[[198.21891,254.87597],[4.65041,-0.84365],[-0.2376,4.42088]],[[197.77795,268.15179],[0,-4.41441],[0,0]],[197.77795,269.50832],[[196.02795,271.25832],[1.75,0],[-1.75,0]],[194.27795,269.50832],[[194.27795,268.15179],[0,0],[0,-4.17911]],[[194.67241,255.57879],[-0.2204,4.18896],[-0.8911,0.19373]],[[192.01755,256.20345],[0.87825,-0.22375],[0.19733,0.25397]],[[192.35188,257.2997],[0,-0.48964],[0,1.75]],[190.60188,259.0497],[[189.24539,259.0497],[0,0],[-3.59129,-0.01884]],[[178.87389,260.86629],[3.50076,-0.57096],[-1.39827,0.5657]],[[174.70289,262.52449],[1.38206,-0.53164],[-0.36483,0.14034]],[[167.86074,265.12459],[0.20384,-0.03729],[-3.59588,0.65787]],[[156.68922,264.47579],[3.66895,0],[0,0]],[[155.19405,263.70888],[0.48551,0.76691],[-0.03013,0.00995]],[[155.10367,263.73885],[0.03012,-0.01004],[-4.30296,0.86043]],[[141.94011,265.82373],[4.35493,-0.54574],[-1.75785,0.22029]],[[136.62533,265.8091],[1.75822,-0.21736],[-4.95854,0.613]],[[123.57691,272.39631],[4.05603,-2.30188],[-1.70507,0.96766]],[[118.08063,274.49002],[1.78169,-0.81804],[-6.08584,2.79425]],[[104.53582,287.4754],[3.56221,-5.34418],[-4.23427,5.64249]],[[93.91841,306.23786],[2.42484,-6.56192],[-1.6795,4.54493]],[[90.59128,320.09699],[-0.61409,-4.98231],[0.94132,7.63723]],[[99.14577,341.12354],[-3.3263,-6.72161],[3.00706,3.55525]],[[108.94445,351.56393],[-3.66396,-2.91203],[4.78548,3.80338]],[[126.73577,361.45197],[-5.8015,-1.93501],[3.80865,1.27032]],[[138.80388,364.12327],[-3.92265,-0.98732],[5.24358,1.31979]],[[154.31943,368.17378],[-5.31124,-1.06226],[7.4124,1.50245]],[[176.45195,367.46404],[-7.44766,-0.37477],[6.44486,0.32431]],[[195.89448,368.14489],[-6.54438,0.34651],[4.76701,-0.25241]],[[210.16253,366.10845],[-4.77978,0.34587],[3.16176,-0.22879]],[[219.76682,366.10507],[-3.16887,0],[13.1729,0]],[[259.13139,365.42679],[-13.16883,0],[10.04132,0]],[[289.50285,364.75291],[-9.95817,1.41783],[8.63161,-0.01451]],[[315.3274,364.06915],[-8.61155,0.70069],[8.14933,-0.66307]],[[339.70893,361.36063],[-8.14077,0.6489],[5.86592,-0.46757]],[[357.14294,360.47868],[-5.88139,0.78417],[3.04336,-0.40266]],[[365.84066,358.63376],[-3.00725,0.48453],[9.11609,-1.46878]],[[393.96924,357.29109],[-9.2127,0.40305],[4.94993,-0.21656]],[[408.82772,355.9324],[-4.9744,0.17731],[5.74915,-0.20493]],[[426.06461,356.61285],[-5.75147,-0.00388],[7.17701,0.88525]],[[447.55232,357.38675],[-7.20929,-0.35302],[9.20162,0.45057]],[[475.11272,358.42664],[-9.17389,0.05761],[0,0]]],&quot;closed&quot;:true,&quot;fillColor&quot;:[0,0,0],&quot;strokeWidth&quot;:0.5}]}" fill="#a8dbff" stroke="none" stroke-width="0.25"/><path d="M174.97589,291.90574c4.84767,-1.74113 9.79956,-3.23799 14.86155,-4.09204c2.61576,-0.44132 5.32522,-0.67931 7.94311,-1.3318c3.61786,-0.90172 7.04966,-2.82257 10.70553,-3.56251c3.32329,-0.67263 6.95249,-0.89692 10.33495,-0.91021c8.03246,-2.17887 16.14492,-3.71581 24.20603,-5.72997c5.5151,-1.37801 10.92364,-3.39801 16.49487,-4.45429c8.29275,-1.57227 17.52537,-0.92094 25.92389,-0.92094c4.60655,0.00389 9.17408,0.7289 13.79226,0.44676c11.28137,-0.68922 22.41743,-1.20339 33.64454,-2.21255c5.35515,-0.48135 10.82715,-0.03727 16.21313,-0.45064c4.30487,0.70553 7.89118,-0.42243 12.19656,-0.40651c3.74137,0.01383 7.40672,0.57262 11.16881,0.40655c2.63011,-0.1161 5.37157,-0.81338 7.9799,-0.88698c3.83634,-0.10825 7.67559,0.60081 11.5433,0.44318c5.68822,-0.23182 11.20811,-0.88846 16.92322,-0.88846c14.86785,0 29.31697,-1.94212 44.0783,1.20244c2.94441,0.62724 6.0782,0.91854 8.8988,2.02169c3.6952,1.44521 7.10549,3.76023 10.62818,5.56168c4.01619,4.39134 6.90725,7.83847 8.18756,13.87584c0.72714,3.42885 1.00953,8.44675 -0.00367,11.87192c-0.93265,3.1529 -3.10041,5.86486 -4.53864,8.73395c-0.83169,1.65911 -1.31685,3.49915 -2.31592,5.06318c-3.76828,5.89917 -11.30218,10.54635 -18.03032,11.91674c-21.44962,3.88228 -43.26346,1.61435 -64.88501,3.42072c-7.52969,0.62147 -14.99883,1.74237 -22.5335,2.34682c-3.74461,0.3004 -7.56969,-0.11306 -11.32246,0.02896c-9.47435,0.35856 -18.91215,0.44469 -28.40294,0.44469c-7.74881,0 -15.4364,-0.18413 -23.17231,-0.44452c-4.2811,-0.1441 -8.62714,0.29875 -12.89966,-0.00481c-9.6124,-0.68297 -19.07157,-1.325 -28.73969,-1.325c-7.89716,0 -15.48398,0.94055 -23.32364,1.76439c-4.90393,0.51534 -10.12944,-0.09507 -14.95893,0.86963c-7.896,1.57723 -16.34054,3.14029 -24.40682,1.79584c-6.00644,0.00964 -12.86256,0.12255 -18.78637,-0.90716c-4.23383,-0.73595 -8.35768,-2.09308 -12.53235,-3.12837c-5.19328,-1.2879 -11.38893,-2.79471 -15.66999,-6.21817c-3.91709,-3.13241 -5.87371,-8.78076 -6.50291,-13.48056c-0.01873,-2.79557 0.13331,-4.61854 0.94383,-7.33189c0.64096,-2.14574 1.55002,-4.48358 2.92202,-6.30051c5.43707,-7.2003 14.63212,-7.17229 23.43479,-7.2271zM166.03692,295.75411c-2.12808,0.21118 -4.23268,0.56719 -6.29497,1.1768c-3.96165,1.17105 -6.68076,5.89364 -7.76246,9.48099c-0.71022,2.3554 -0.81963,3.70966 -0.81158,6.12693c1.2347,10.88508 10.00554,14.16466 19.50488,16.52368c4.10284,1.01888 8.15033,2.3471 12.30822,3.08173c5.81712,1.02779 12.57508,0.85821 18.47455,0.86719c7.7986,1.29983 15.8652,-0.26243 23.50001,-1.75276c4.93516,-0.96335 10.20258,-0.37949 15.20464,-0.90477c7.96354,-0.83628 15.67335,-1.78426 23.69604,-1.78426c9.76304,0 19.31664,0.63927 29.02329,1.33651c4.21339,0.30265 8.50787,-0.14683 12.73086,-0.00481c7.69776,0.25888 15.34673,0.44263 23.05752,0.44263c9.44931,0 18.84544,-0.08624 28.27818,-0.44246c3.69757,-0.13964 7.47701,0.27973 11.16567,-0.01984c7.53055,-0.61159 14.99827,-1.71244 22.5244,-2.34608c21.48805,-1.78588 43.21386,0.52181 64.51938,-3.37073c5.80707,-1.13615 12.54117,-5.3159 15.75757,-10.39475c0.89174,-1.4081 1.30019,-3.07174 2.04416,-4.5632c1.32966,-2.66561 3.4447,-5.21426 4.33307,-8.12216c0.88488,-2.89647 0.61532,-7.40656 -0.01308,-10.33819c-1.11308,-5.1928 -3.49838,-7.98448 -6.88488,-11.82087c-3.28133,-1.59678 -6.37513,-3.73808 -9.77658,-5.08433c-2.61849,-1.03636 -5.62212,-1.2763 -8.35981,-1.86054c-14.50763,-3.09602 -28.73262,-1.12549 -43.34845,-1.12549c-5.67239,0 -11.14098,0.65624 -16.7889,0.88589c-3.85932,0.15692 -7.6997,-0.55399 -11.52301,-0.44402c-2.6119,0.07513 -5.35534,0.7714 -7.98906,0.88737c-3.81719,0.16808 -7.53709,-0.37874 -11.33194,-0.40357c-4.31489,-0.02824 -7.98075,1.14001 -12.32236,0.40362c-5.23631,0.48012 -10.52016,-0.0424 -15.72479,0.43656c-11.2695,1.03708 -22.4554,1.54014 -33.7799,2.2233c-4.69334,0.28313 -9.32394,-0.44468 -14.00176,-0.44049c-8.15577,0 -17.19151,-0.69177 -25.23968,0.85341c-5.51284,1.05842 -10.86903,3.0513 -16.3302,4.41732c-8.18244,2.0467 -16.41861,3.65772 -24.588,5.80319c-3.29769,0.03262 -6.82554,0.21655 -10.06981,0.86409c-3.60832,0.7202 -7.0146,2.63934 -10.58638,3.53484c-2.70788,0.67891 -5.51386,0.94789 -8.22746,1.38911c0.0625,0.11789 0.11751,0.25161 0.16293,0.40313c0.50253,1.6763 -1.17377,2.17882 -1.17377,2.17882l-1.96748,0.58862c-3.87622,0.85132 -7.88962,0.94163 -11.91757,0.97972c-2.44978,0.89915 -4.87013,1.85858 -7.25945,2.81602c0,0 -1.62483,0.64994 -2.27477,-0.97489c-0.26012,-0.6503 -0.15587,-1.14444 0.06275,-1.50325z" fill="#000000" stroke="none" stroke-width="0.5"/><path d="M103.53209,326.50797c2.29809,-2.29811 4.59619,-0.00002 4.59619,-0.00002l0.4861,0.72195c13.30896,6.65499 25.62592,14.58326 39.61008,19.825c18.17714,6.81653 36.81354,12.8571 55.85039,16.71625c5.82526,1.1809 11.85083,3.30254 17.74583,3.94426c4.24499,0.46211 8.54359,-0.18715 12.81018,-0.01505c5.90809,0.23831 11.75743,0.43869 17.69444,0.44153c14.27238,0.99482 28.84585,0.62526 43.1163,-0.43657c5.64189,-0.4198 11.27065,-1.49325 16.91806,-1.77833c18.00763,-0.909 36.22463,-1.79839 53.90841,-5.64734c8.62491,-1.87432 17.37424,-3.59818 25.83503,-6.15452c4.15727,-1.25608 8.07477,-3.22994 12.23236,-4.48493c22.97156,-6.93409 46.07485,-14.3304 67.99551,-24.28654c5.20493,-1.8735 8.0628,-4.15379 12.93966,-6.91939c14.98215,-8.49618 29.3494,-19.08179 39.69915,-33.08741c3.28333,-4.44311 6.63286,-9.27421 9.23632,-14.1609c0.81175,-1.52366 1.84182,-2.99893 2.20374,-4.68697c0.15016,-0.70036 -0.51241,-1.33778 -0.76862,-2.00666c0,0 -0.89283,-3.12496 2.23213,-4.01779c3.12496,-0.89283 4.01779,2.23213 4.01779,2.23213c0.33523,1.40116 1.24261,2.7824 1.00568,4.20349c-1.27455,7.64471 -8.25376,16.28773 -12.71363,22.31877c-10.89432,14.73227 -25.94288,25.92811 -41.71967,34.86711c-4.96467,2.81294 -8.31522,5.30794 -13.67515,7.27521c-22.10967,10.0579 -45.44389,17.53353 -68.62782,24.50748c-4.14051,1.2455 -8.0384,3.21785 -12.17734,4.46857c-8.62458,2.60622 -17.54284,4.37214 -26.33435,6.28401c-18.01992,3.9128 -36.57835,4.87764 -54.92977,5.78575c-5.60372,0.2773 -11.19552,1.35353 -16.79416,1.77028c-14.50436,1.07966 -29.31968,1.46174 -43.82575,0.45063c-5.97039,0.00303 -11.85042,-0.20325 -17.79213,-0.44567c-0.94728,-0.03865 -12.5221,0.05763 -13.18982,-0.01505c-6.10482,-0.66457 -12.32301,-2.81761 -18.35566,-4.04014c-19.36487,-3.92434 -38.32942,-10.06221 -56.81943,-16.99607c-14.20801,-5.33025 -26.71654,-13.33873 -40.23467,-20.09737l-2.17537,-1.9395c0,0 -2.29811,-2.29809 -0.00002,-4.59619z" fill="#00ff1c" stroke="none" stroke-width="0.5"/><path d="M123.49324,306.99043c2.29805,-2.29815 4.59619,-0.0001 4.59619,-0.0001l0.39189,0.48111c13.77068,9.18631 28.65183,16.44546 42.94562,24.78779c18.94601,12.67336 42.43121,15.03235 64.5265,15.03235c10.58246,0 21.29724,-0.3348 31.78315,-1.74377c8.34216,-1.19154 16.8528,-1.65604 25.14922,-3.08354c11.52164,-1.98244 22.66754,-5.09032 34.30398,-6.67706c14.42162,-1.96652 28.77059,-2.21922 43.05303,-5.46098c7.12438,-1.77642 14.16757,-3.75954 21.28564,-5.54267c6.55846,-1.64294 13.21376,-2.91186 19.47326,-5.59048c1.33794,-0.57254 2.43427,-1.60158 3.71175,-2.29866c2.90028,-1.58259 6.04581,-2.68363 8.95181,-4.25567c12.49548,-6.75959 24.02174,-15.97489 34.98629,-24.95095c5.11068,-4.04559 8.82478,-9.2064 14.31949,-12.9634c8.45764,-5.78289 17.89501,-10.11555 26.23307,-16.00962c5.16155,-3.64863 8.40436,-7.14285 12.86692,-11.60795c2.16674,-2.16797 4.50781,-3.97546 6.41399,-6.38588c0,0 2.03024,-2.53783 4.56808,-0.50759c2.53783,2.03024 0.50759,4.56808 0.50759,4.56808c-2.09089,2.58948 -4.54924,4.57878 -6.89347,6.92158c-4.64449,4.64167 -8.33921,8.53247 -13.748,12.34541c-8.36459,5.89664 -17.79173,10.27192 -26.28025,16.04217c-5.35135,3.63769 -8.94363,8.65159 -13.89909,12.65045c-11.28771,9.23049 -23.13277,18.65298 -35.9868,25.61743c-2.88298,1.56203 -6.00705,2.64991 -8.88589,4.21958c-1.43005,0.77973 -2.68205,1.88994 -4.17831,2.53355c-6.57545,2.82838 -13.55397,4.22249 -20.44911,5.94262c-7.18148,1.79157 -14.30598,3.79393 -21.48977,5.59484c-14.50235,3.28698 -29.05815,3.58435 -43.69749,5.58063c-11.53646,1.57315 -22.58347,4.66075 -34.00766,6.6304c-8.38645,1.44591 -16.98673,1.92169 -25.41911,3.12661c-10.7866,1.42774 -21.78944,1.80488 -32.67233,1.80488c-23.34475,0 -47.94978,-2.71484 -67.96839,-16.01842c-14.35481,-8.36903 -29.27561,-15.67655 -43.10928,-24.89339l-1.38244,-1.29314c0,0 -2.29815,-2.29805 -0.0001,-4.59619z" fill="#00ff1c" stroke="none" stroke-width="0.5"/><path d="M83.64604,381.12012v-393.39019h489.33902v393.3902z" fill="none" stroke="#000000" stroke-width="0"/></g></g></svg>