<svg version="1.1" xmlns="http://www.w3.org/2000/svg" xmlns:xlink="http://www.w3.org/1999/xlink" width="489.33902" height="393.3902" viewBox="0,0,489.33902,393.3902"><g transform="translate(-83.64604,12.27008)"><g data-paper-data="{&quot;isPaintingLayer&quot;:true}" fill-rule="nonzero" stroke-linecap="butt" stroke-linejoin="miter" stroke-miterlimit="10" stroke-dasharray="" stroke-dashoffset="0" style="mix-blend-mode: normal"><path d="M425.27769,364.85726c-1.75,0 -1.75,-1.75 -1.75,-1.75v-1.35649c0,-0.56376 0.00163,-1.1264 0.00489,-1.68801c-4.86198,-0.17483 -9.71716,-0.81024 -14.5786,-0.63262c-4.94531,0.18068 -9.84534,1.12913 -14.76719,1.3542c-9.10094,0.41619 -18.78423,-0.14603 -27.78932,1.30487c-3.01526,0.48582 -5.73006,1.44759 -8.7919,1.85878c-5.96134,0.79483 -11.73803,0.42364 -17.67909,0.90589c-8.11828,0.65898 -16.18726,2.04242 -24.31518,2.70375c-8.62163,0.7015 -17.21775,0.70252 -25.86027,0.68648c-10.03514,1.43864 -20.49938,0.68269 -30.61958,0.68269c-13.16836,0 -26.19131,0.67828 -39.36457,0.67828c-3.09539,0 -6.29867,-0.2292 -9.38683,-0.00338c-4.76544,0.34847 -9.46315,1.77071 -14.21863,2.03302c-6.691,0.36907 -13.30404,-0.31306 -19.89611,-0.67564c-7.65538,-0.42106 -14.97371,2.15976 -22.63223,0.64675c-5.36905,-1.07382 -10.38768,-2.75547 -15.6841,-4.08857c-4.01701,-1.01107 -8.44751,-1.44837 -12.34903,-2.75472c-6.19316,-2.07366 -13.72653,-6.39951 -18.83435,-10.45956c-3.95021,-3.13991 -7.35816,-7.38904 -10.54892,-11.2637c-3.59739,-7.13027 -8.05351,-14.26349 -9.08014,-22.38163c-0.78586,-6.21424 1.99507,-13.54645 4.60537,-19.10771c0.95875,-2.04262 2.64908,-3.6735 3.68734,-5.67688c1.89887,-3.66399 3.73222,-7.06105 6.24943,-10.41916c3.90773,-5.86075 8.34317,-11.04427 14.94179,-14.14473c1.63026,-0.766 3.51179,-0.96352 5.07261,-1.86261c4.47462,-2.57755 8.9149,-6.35989 14.36493,-7.09117c1.82937,-0.24546 3.70692,0.22342 5.53727,-0.01463c4.17354,-0.5428 8.48325,-1.15893 12.61007,-1.98466c7.36915,-2.45633 15.12063,-2.15651 22.70749,-2.7672c0.33611,-0.02705 0.66923,-0.06242 0.99985,-0.10462l-0.00002,0.00001c0.33509,-0.13517 0.67058,-0.27051 1.00648,-0.40571c0.23709,-0.35591 0.53826,-0.55669 0.53826,-0.55669c3.9316,-2.54532 5.71048,-7.35726 8.05342,-11.26279c4.0059,-6.67759 7.60189,-13.52497 11.79105,-20.10257c1.12749,-1.77033 2.15143,-3.60781 3.33882,-5.33854c0.8353,-1.21753 1.13016,-3.47355 2.60251,-3.58439c4.842,-0.36451 4.08677,6.40052 4.73022,8.97442c0.00156,0.70425 -0.19579,5.37888 0.80501,5.32145c4.58897,-0.2633 9.34923,-4.70608 12.85411,-7.20955c5.0269,-3.59063 9.14286,-7.2063 13.09381,-11.89442c0.89019,-1.05628 4.09623,-4.38433 5.76609,-3.99783c1.33518,0.30904 2.08647,1.89286 2.65344,3.14056c0.53814,1.18424 0.35899,2.57668 0.53049,3.8661c0.37484,2.81825 0.92744,5.41652 0.93588,8.27444c0,7.386 -0.5302,15.89996 -2.80281,22.93576l0.0898,0.8031c0,0 0,0.22005 -0.07803,0.50408c11.52232,-0.60126 23.20379,-1.63364 34.42479,-3.43922c5.46795,-0.90508 11.11042,-2.27534 16.59324,-2.87122c4.64142,-0.50443 9.42857,0.33829 14.08388,-0.00828c4.19035,-0.31195 8.30851,-1.56168 12.48904,-1.93c8.76692,-0.77241 17.73113,-0.76496 26.54231,-0.78791c4.30097,0.00142 8.5355,-0.55022 12.826,-0.67707c12.61446,-0.37295 25.3658,0.78168 37.95812,0.00103c5.79614,-0.35933 11.43876,-0.68045 17.26098,-0.68045c5.83929,0 11.60249,-0.34992 17.38337,-0.57046c0.45262,-0.01727 6.18109,0.54258 6.89029,0.57203c15.28831,0.63478 30.40925,0.52109 45.628,2.05247c10.41889,2.08327 22.12417,5.13162 31.49842,10.25655c2.04909,1.12024 3.80762,2.72226 5.849,3.85649c4.87773,2.71016 10.95622,4.91031 15.1239,8.71056c0.8536,0.77834 1.27262,1.9479 2.08913,2.76508c2.5785,2.58061 5.16213,4.45847 7.45263,7.42679c6.75524,8.13057 9.7106,17.80234 12.00843,28.01767c1.26973,5.64475 2.2375,11.78673 1.37652,17.62059c-0.71053,4.81444 -4.3183,9.61469 -6.64511,13.80291c-2.67988,4.71209 -7.24026,8.9729 -11.79683,11.82252c-2.91973,1.82597 -5.32156,4.43843 -8.20536,6.31132c-5.17342,3.35989 -11.82286,6.23389 -17.70001,8.00559c-3.36624,1.01478 -6.82679,1.55242 -10.31319,1.94726c0.30758,0.60341 0.61317,1.20742 0.91636,1.81219c0,0 0.78261,1.56526 -0.78265,2.34786c-1.56526,0.78261 -2.34786,-0.78265 -2.34786,-0.78265c-0.49876,-1.00044 -1.00449,-1.99852 -1.51528,-2.995c-3.21566,0.30861 -6.43257,0.59708 -9.59745,1.12555c-15.28668,2.22616 -30.57837,0.9704 -45.93066,0.21865c-6.82851,-0.33437 -13.56283,0.08469 -20.35376,-0.63891c0.00006,0.50207 0.00023,1.00444 0.00023,1.50711v1.35649c0,0 0,1.75 -1.75,1.75zM425.07596,331.80895c0.31492,-3.08994 1.20943,-8.28951 4.08728,-10.2415c2.69893,-1.83064 6.60712,1.44473 8.63881,2.79561c5.83963,4.17034 11.91624,7.86944 17.99134,11.66635c1.3196,0.82474 4.23741,3.48302 6.08782,2.7893c3.63835,-1.36402 5.15055,-5.50291 6.96644,-8.77093c2.05884,-3.70526 3.62978,-7.60073 5.52504,-11.39211c0.0884,-0.17684 3.01224,-6.06848 3.17511,-6.21901c1.03513,-0.95669 2.52054,-1.26247 3.78082,-1.8937c5.48825,7.08017 8.97833,15.88827 12.72358,23.97988c3.3492,7.23595 7.19965,14.25943 10.88037,21.32517c3.72535,-0.38923 7.42683,-0.91044 11.00914,-1.99034c5.56465,-1.67749 11.9026,-4.40669 16.80387,-7.58983c2.90572,-1.88712 5.32524,-4.51303 8.27165,-6.35332c4.00766,-2.50314 8.30726,-6.33746 10.57733,-10.545c2.08437,-3.75177 5.66024,-8.35071 6.24984,-12.66377c0.74252,-5.43175 -0.1546,-11.04146 -1.33645,-16.29211c-2.18389,-9.70244 -4.91661,-18.88123 -11.32676,-26.59912c-2.2323,-2.90438 -4.66686,-4.61286 -7.19442,-7.1383c-0.78213,-0.78148 -1.16983,-1.90885 -1.98033,-2.66087c-3.89513,-3.61407 -9.86356,-5.67103 -14.45944,-8.23114c-2.03359,-1.1328 -3.78895,-2.72487 -5.82922,-3.84557c-8.98199,-4.93371 -20.34416,-7.86601 -30.33454,-9.86452c-13.8773,-1.37873 -27.81182,-2.01236 -41.79272,-2.0155c-3.32208,-0.00075 -6.77816,-0.71011 -10.06841,-0.57323c-5.82843,0.24247 -11.63605,0.57323 -17.52257,0.57323c-5.76636,0 -11.34657,0.32442 -17.08663,0.67611c-12.61078,0.77266 -25.37439,-0.36884 -38.00628,0.00103c-4.33087,0.12681 -8.60563,0.67796 -12.94763,0.67934c-8.71051,0.0227 -17.57376,0.00826 -26.23918,0.77437c-4.19623,0.37099 -8.32869,1.62061 -12.53688,1.9339c-4.59563,0.34213 -9.33972,-0.51026 -13.91612,-0.00828c-5.43599,0.59627 -11.03343,1.95394 -16.45773,2.85184c-10.428,1.66958 -21.40721,2.60264 -31.95817,3.2671c-8.66696,0.54582 -17.6181,-0.1733 -26.23343,0.66816c-0.36748,0.03589 -0.73475,0.08417 -1.1018,0.14205c0.05713,0.78532 -0.54612,1.3886 -0.54612,1.3886c-0.49482,0.49084 -0.98965,0.98167 -1.48447,1.47251l-2.17356,1.45921c0,0 -1.45611,0.97069 -2.4268,-0.48542c-0.97069,-1.45611 0.48542,-2.4268 0.48542,-2.4268l0.05105,-0.03375c-0.40453,0.08705 -0.80888,0.16689 -1.21306,0.23573c-6.66816,1.13211 -13.63203,1.87818 -20.19057,3.54914c0.19733,0.25397 0.33433,0.60661 0.33433,1.09625c0,1.75 -1.75,1.75 -1.75,1.75h-1.35649c-3.59129,-0.01884 -6.87074,1.24563 -10.3715,1.81659c-1.39827,0.5657 -2.78894,1.12656 -4.171,1.6582c-0.36483,0.14034 -6.63831,2.56281 -6.84215,2.6001c-3.59588,0.65787 -7.50257,-0.6488 -11.17152,-0.6488c0,0 -1.00966,0 -1.49517,-0.76691c-0.03013,0.00995 -0.06026,0.01993 -0.09038,0.02997c-4.30296,0.86043 -8.80863,1.53914 -13.16356,2.08488c-1.75785,0.22029 -3.55656,-0.23199 -5.31478,-0.01463c-4.95854,0.613 -8.99239,4.28533 -13.04842,6.58721c-1.70507,0.96766 -3.71459,1.27567 -5.49628,2.09371c-6.08584,2.79425 -9.9826,7.6412 -13.54481,12.98538c-4.23427,5.64249 -8.19257,12.20054 -10.61741,18.76246c-1.6795,4.54493 -3.94122,8.87682 -3.32713,13.85913c0.94132,7.63723 5.22819,14.30494 8.55449,21.02655c3.00706,3.55525 6.13472,7.52836 9.79868,10.44039c4.78548,3.80338 11.98982,7.95303 17.79132,9.88804c3.80865,1.27032 8.14546,1.68398 12.06811,2.6713c5.24358,1.31979 10.20431,2.98825 15.51555,4.05051c7.4124,1.50245 14.68486,-1.08451 22.13252,-0.70974c6.44486,0.32431 12.89815,1.02736 19.44253,0.68085c4.76701,-0.25241 9.48827,-1.69057 14.26805,-2.03644c3.16176,-0.22879 6.43542,-0.00338 9.60429,-0.00338c13.1729,0 26.19574,-0.67828 39.36457,-0.67828c10.04132,0 20.41329,0.74395 30.37146,-0.67388c8.63161,-0.01451 17.213,0.01693 25.82455,-0.68376c8.14933,-0.66307 16.24076,-2.05962 24.38153,-2.70852c5.86592,-0.46757 11.55262,-0.09778 17.43401,-0.88195c3.04336,-0.40266 5.69047,-1.36039 8.69772,-1.84492c9.11609,-1.46878 18.91588,-0.93962 28.12858,-1.34267c4.94993,-0.21656 9.88408,-1.18138 14.85848,-1.35869c4.91902,-0.17534 9.82862,0.44466 14.74637,0.62979c0.14951,-8.33127 0.65841,-16.47748 1.50185,-24.75324zM490.87594,335.99299c-1.33358,-2.8812 -2.16866,-5.55413 -3.69821,-8.35478c-1.80389,-3.303 -3.51894,-6.58429 -5.16018,-9.92088c-0.602,-1.22385 -1.82289,-2.44601 -1.55723,-3.78379c-2.7563,7.82481 -7.18417,16.00732 -11.65219,22.9794c-1.83894,2.86955 -4.41491,6.43769 -8.55725,5.53678c-3.14481,-0.68397 -5.9487,-3.40788 -8.69911,-4.94626c-5.41782,-3.03034 -10.67188,-6.64055 -15.73788,-10.2599c-0.48931,-0.32717 -4.36102,-3.25695 -4.92621,-2.63041c-2.6092,2.89248 -1.98132,7.56386 -2.53451,11.01359c-1.11481,6.95215 -1.29333,13.99219 -1.32089,21.09754c6.84817,0.73372 13.63491,0.32533 20.52005,0.66248c15.10986,0.73988 30.17462,2.00921 45.21961,-0.18095c2.77219,-0.46118 5.59027,-0.73126 8.41296,-0.99508c-3.50092,-6.69568 -7.13363,-13.35739 -10.30898,-20.21773zM240.39924,246.44766l0.0898,-1.90988c2.27186,-6.55003 2.62321,-14.90399 2.62321,-21.82898c0.00908,-2.70878 -0.5985,-5.16457 -0.90884,-7.84028c-0.11899,-1.02589 -0.23597,-2.0521 -0.33784,-3.07983c-0.03061,-0.30878 0.24919,-0.96019 -0.05953,-0.92897c-0.38197,0.03863 -0.33307,0.70164 -0.58208,0.99386c-1.81293,2.12752 -3.55009,4.23804 -5.53621,6.22649c-4.54215,4.54748 -10.23558,8.76934 -15.67909,12.22167c-3.16255,2.00572 -10.06851,6.28212 -12.63677,1.37183c-1.02391,-1.95763 -0.87697,-3.98302 -0.87223,-6.03791c-0.22608,-0.90435 -0.57421,-1.78669 -0.67824,-2.71305c-0.08408,-0.74873 0.12419,-1.5037 0.1201,-2.25713c-0.00179,-0.3289 -0.04693,-1.2932 -0.13766,-0.97706c-1.56847,5.46526 -5.573,10.07981 -8.46361,15.11477c-2.89358,5.04014 -5.78651,10.11598 -8.5955,15.19965c-0.82791,1.49834 -1.61089,2.93948 -2.4886,4.28518c1.5085,-0.51712 3.02336,-0.98748 4.54368,-1.3841c6.75345,-1.76182 13.94228,-2.53212 20.82251,-3.70023c2.88037,-0.48743 5.74646,-1.49675 8.65033,-1.78447c4.08188,-0.40444 8.32971,0.12181 12.43458,-0.00765c2.59069,-0.0817 5.20011,-0.18008 7.82089,-0.29921c-0.1289,-0.3572 -0.1289,-0.6647 -0.1289,-0.6647zM167.40616,261.64537c-0.8624,0.05657 -1.72382,0.12217 -2.58342,0.20259c0.82459,0.02662 1.62921,-0.01361 2.39912,-0.16455c0.06161,-0.01208 0.12304,-0.02477 0.1843,-0.03804z" fill="#000000" stroke="none" stroke-width="0.5"/><path d="M490.92592,335.99265c3.17535,6.86034 6.80205,13.54617 10.30297,20.24185c-2.82269,0.26382 -5.64444,0.53971 -8.41663,1.00089c-15.04499,2.19016 -30.18084,0.93067 -45.2907,0.19079c-6.88514,-0.33715 -13.68485,0.05606 -20.53302,-0.67766c0.02756,-7.10535 0.19982,-14.1704 1.31463,-21.12255c0.55319,-3.44973 -0.07191,-8.13678 2.53729,-11.02926c0.56519,-0.62654 4.5318,2.33474 5.02111,2.66191c5.066,3.61935 10.32211,7.20927 15.73993,10.23961c2.75041,1.53838 5.53078,4.22494 8.67559,4.90891c4.14234,0.90091 6.6427,-2.63233 8.48164,-5.50188c4.46802,-6.97208 8.91568,-15.10662 11.67198,-22.93143c-0.26566,1.33778 1.01965,2.48376 1.62165,3.70761c1.64124,3.33659 3.36837,6.63641 5.17226,9.93941c1.52955,2.80065 2.36774,5.49059 3.70132,8.37179z" data-paper-data="{&quot;noHover&quot;:false,&quot;origItem&quot;:[&quot;Path&quot;,{&quot;applyMatrix&quot;:true,&quot;segments&quot;:[[[490.87594,335.99299],[0,0],[-1.33358,-2.8812]],[[487.17773,327.63821],[1.52955,2.80065],[-1.80389,-3.303]],[[482.01755,317.71733],[1.64124,3.33659],[-0.602,-1.22385]],[[480.46032,313.93354],[-0.26566,1.33778],[-2.7563,7.82481]],[[468.80813,336.91294],[4.46802,-6.97208],[-1.83894,2.86955]],[[460.25088,342.44972],[4.14234,0.90091],[-3.14481,-0.68397]],[[451.55177,337.50346],[2.75041,1.53838],[-5.41782,-3.03034]],[[435.81389,327.24356],[5.066,3.61935],[-0.48931,-0.32717]],[[430.88768,324.61315],[0.56519,-0.62654],[-2.6092,2.89248]],[[428.35317,335.62674],[0.55319,-3.44973],[-1.11481,6.95215]],[[427.03228,356.72428],[0.02756,-7.10535],[6.84817,0.73372]],[[447.55233,357.38676],[-6.88514,-0.33715],[15.10986,0.73988]],[[492.77194,357.20581],[-15.04499,2.19016],[2.77219,-0.46118]],[[501.1849,356.21073],[-2.82269,0.26382],[-3.50092,-6.69568]],[[490.87592,335.993],[3.17535,6.86034],[0,0]]],&quot;closed&quot;:true,&quot;fillColor&quot;:[0,0,0,1]}]}" fill="#5cff95" stroke="none" stroke-width="0.5"/><path d="M240.57172,247.13688c-2.62078,0.11913 -5.23518,0.22477 -7.82587,0.30647c-4.10487,0.12946 -8.37369,-0.38178 -12.45557,0.02266c-2.90387,0.28772 -5.79663,1.29942 -8.677,1.78685c-6.88023,1.16811 -14.09808,1.92165 -20.85153,3.68347c-1.52032,0.39662 -3.03684,0.86492 -4.54534,1.38204c0.87771,-1.3457 1.65892,-2.7893 2.48683,-4.28764c2.80899,-5.08367 5.69383,-10.18102 8.58741,-15.22116c2.89061,-5.03496 6.91636,-9.69706 8.48483,-15.16232c0.09073,-0.31614 0.19384,0.72963 0.19563,1.05853c0.00409,0.75343 -0.19995,1.50492 -0.11587,2.25365c0.10403,0.92636 0.45648,1.8042 0.68256,2.70855c-0.00474,2.05489 -0.1402,4.05406 0.88371,6.01169c2.56826,4.91029 9.3786,0.6474 12.54115,-1.35832c5.44351,-3.45233 11.14178,-7.66541 15.68393,-12.21289c1.98612,-1.98845 3.72502,-4.0966 5.53795,-6.22412c0.24901,-0.29222 0.27855,-1.01725 0.66052,-1.05588c0.30872,-0.03122 0.02961,0.62107 0.06022,0.92985c0.10187,1.02773 0.22118,2.05726 0.34017,3.08315c0.31034,2.67571 0.92311,5.14216 0.91403,7.85094c0,6.92499 -0.35323,15.31637 -2.62509,21.8664l-0.09116,1.91259c0,0 -0.00043,0.30827 0.12847,0.66547z" data-paper-data="{&quot;noHover&quot;:false,&quot;origItem&quot;:[&quot;Path&quot;,{&quot;applyMatrix&quot;:true,&quot;segments&quot;:[[240.39924,246.44766],[[240.48904,244.53778],[0,0],[2.27186,-6.55003]],[[243.11225,222.7088],[0,6.92499],[0.00908,-2.70878]],[[242.20341,214.86852],[0.31034,2.67571],[-0.11899,-1.02589]],[[241.86557,211.78869],[0.10187,1.02773],[-0.03061,-0.30878]],[[241.80604,210.85972],[0.30872,-0.03122],[-0.38197,0.03863]],[[241.22396,211.85358],[0.24901,-0.29222],[-1.81293,2.12752]],[[235.68775,218.08007],[1.98612,-1.98845],[-4.54215,4.54748]],[[220.00866,230.30174],[5.44351,-3.45233],[-3.16255,2.00572]],[[207.37189,231.67357],[2.56826,4.91029],[-1.02391,-1.95763]],[[206.49966,225.63566],[-0.00474,2.05489],[-0.22608,-0.90435]],[[205.82142,222.92261],[0.10403,0.92636],[-0.08408,-0.74873]],[[205.94152,220.66548],[0.00409,0.75343],[-0.00179,-0.3289]],[[205.80386,219.68842],[0.09073,-0.31614],[-1.56847,5.46526]],[[197.34025,234.80319],[2.89061,-5.03496],[-2.89358,5.04014]],[[188.74475,250.00284],[2.80899,-5.08367],[-0.82791,1.49834]],[[186.25615,254.28802],[0.87771,-1.3457],[1.5085,-0.51712]],[[190.79983,252.90392],[-1.52032,0.39662],[6.75345,-1.76182]],[[211.62234,249.20369],[-6.88023,1.16811],[2.88037,-0.48743]],[[220.27267,247.41922],[-2.90387,0.28772],[4.08188,-0.40444]],[[232.70725,247.41157],[-4.10487,0.12946],[2.59069,-0.0817]],[[240.52814,247.11236],[-2.62078,0.11913],[-0.1289,-0.3572]]],&quot;closed&quot;:true,&quot;fillColor&quot;:[0,0,0,1]}]}" fill="#5cff95" stroke="none" stroke-width="0.5"/><path d="M425.12417,331.82224c-0.84344,8.27576 -1.35635,16.43207 -1.50586,24.76334c-4.91775,-0.18513 -9.82893,-0.80235 -14.74795,-0.62701c-4.9744,0.17731 -9.91144,1.14633 -14.86137,1.36289c-9.2127,0.40305 -19.02194,-0.11668 -28.13803,1.3521c-3.00725,0.48453 -5.65949,1.44569 -8.70285,1.84835c-5.88139,0.78417 -11.58026,0.41945 -17.44618,0.88702c-8.14077,0.6489 -16.25258,2.04662 -24.40191,2.70969c-8.61155,0.70069 -17.21041,0.66318 -25.84202,0.67769c-9.95817,1.41783 -20.34167,0.66478 -30.38299,0.66478c-13.16883,0 -26.19827,0.66952 -39.37117,0.66952c-3.16887,0 -6.44346,-0.22705 -9.60522,0.00174c-4.77978,0.34587 -9.50185,1.78248 -14.26886,2.03489c-6.54438,0.34651 -12.99888,-0.35916 -19.44374,-0.68347c-7.44766,-0.37477 -14.72095,2.21013 -22.13335,0.70768c-5.31124,-1.06226 -10.27276,-2.73296 -15.51634,-4.05275c-3.92265,-0.98732 -8.25991,-1.40243 -12.06856,-2.67275c-5.8015,-1.93501 -13.00665,-6.08784 -17.79213,-9.89122c-3.66396,-2.91203 -6.79213,-6.88779 -9.79919,-10.44304c-3.3263,-6.72161 -7.61372,-13.39402 -8.55504,-21.03125c-0.61409,-4.98231 1.64751,-9.31715 3.32701,-13.86208c2.42484,-6.56192 6.38328,-13.12421 10.61755,-18.7667c3.56221,-5.34418 7.45933,-10.19446 13.54517,-12.98871c1.78169,-0.81804 3.79131,-1.12674 5.49638,-2.0944c4.05603,-2.30188 8.09028,-5.9764 13.04882,-6.5894c1.75822,-0.21736 3.55699,0.23464 5.31484,0.01435c4.35493,-0.54574 8.8609,-1.22578 13.16386,-2.08621c0.03012,-0.01004 0.15752,0.00317 0.18765,-0.00678c0.48551,0.76691 1.39787,0.74381 1.39787,0.74381c3.66895,0 7.57578,1.30609 11.17166,0.64822c0.20384,-0.03729 6.47766,-2.46106 6.84249,-2.6014c1.38206,-0.53164 2.77298,-1.09336 4.17125,-1.65906c3.50076,-0.57096 6.78071,-1.837 10.372,-1.81816l1.35654,-0.00014c0,0 1.75026,-0.00075 1.75026,-1.75075c0,-0.48964 -0.13689,-0.84259 -0.33422,-1.09656c6.55854,-1.67096 13.52398,-2.42086 20.19214,-3.55297c0.40418,-0.06884 0.80865,-0.14895 1.21318,-0.236l0.03961,0.07595c0,0 -1.4557,0.96979 -0.48501,2.4259c0.97069,1.45611 2.33541,0.44483 2.33541,0.44483l2.17395,-1.46006c0.49482,-0.49084 0.99001,-0.98242 1.48483,-1.47326c0,0 0.60353,-0.60385 0.5464,-1.38917c0.36705,-0.05788 0.73444,-0.1064 1.10192,-0.14229c8.61533,-0.84146 17.5699,-0.12806 26.23686,-0.67388c10.55096,-0.66446 21.54007,-1.60809 31.96807,-3.27767c5.4243,-0.8979 11.0311,-2.26147 16.46709,-2.85774c4.5764,-0.50198 9.33006,0.34693 13.92569,0.0048c4.20819,-0.31329 8.35079,-1.56439 12.54702,-1.93538c8.66542,-0.76611 17.54842,-0.74849 26.25893,-0.77119c4.342,-0.00138 8.62412,-0.54904 12.95499,-0.67585c12.63189,-0.36987 25.4086,0.78256 38.01938,0.0099c5.74006,-0.35169 11.32315,-0.67237 17.08951,-0.67237c5.88652,0 11.69618,-0.32759 17.52461,-0.57006c3.29025,-0.13688 6.74735,0.57429 10.06943,0.57504c13.9809,0.00314 27.91802,0.64245 41.79532,2.02118c9.99038,1.99851 21.35413,4.93563 30.33612,9.86934c2.04027,1.1207 3.79595,2.71402 5.82954,3.84682c4.59588,2.56011 10.56487,4.61966 14.46,8.23373c0.8105,0.75202 1.19832,1.88007 1.98045,2.66155c2.52756,2.52544 4.96241,4.23575 7.19471,7.14013c6.41015,7.71789 9.14333,16.90268 11.32722,26.60512c1.18185,5.25065 2.0789,10.86385 1.33638,16.2956c-0.5896,4.31306 -4.1657,8.91483 -6.25007,12.6666c-2.27007,4.20754 -6.57003,8.04449 -10.57769,10.54763c-2.94641,1.84029 -5.36625,4.46796 -8.27197,6.35508c-4.90127,3.18314 -11.23983,5.91499 -16.80448,7.59248c-3.58231,1.0799 -7.38025,1.57475 -11.1056,1.96398c-3.68072,-7.06574 -7.53232,-14.08427 -10.88152,-21.32022c-3.74525,-8.09161 -7.23607,-16.89294 -12.72432,-23.97311c-1.26028,0.63123 -2.64581,0.9418 -3.68094,1.89849c-0.16287,0.15053 -3.08687,6.04428 -3.17527,6.22112c-1.89526,3.79138 -3.46675,7.69086 -5.52559,11.39612c-1.81589,3.26802 -3.32882,7.41031 -6.96717,8.77433c-1.85041,0.69372 -4.86528,-1.98862 -6.18488,-2.81336c-6.0751,-3.79691 -12.15234,-7.493 -17.99197,-11.66334c-2.03169,-1.35088 -5.84134,-4.60921 -8.54027,-2.77857c-2.87785,1.95199 -3.77347,7.1566 -4.08839,10.24654z" data-paper-data="{&quot;noHover&quot;:false,&quot;origItem&quot;:[&quot;Path&quot;,{&quot;applyMatrix&quot;:true,&quot;segments&quot;:[[[425.07596,331.80895],[0,0],[0.31492,-3.08994]],[[429.16324,321.56745],[-2.87785,1.95199],[2.69893,-1.83064]],[[437.80205,324.36306],[-2.03169,-1.35088],[5.83963,4.17034]],[[455.79339,336.02941],[-6.0751,-3.79691],[1.3196,0.82474]],[[461.88121,338.81871],[-1.85041,0.69372],[3.63835,-1.36402]],[[468.84765,330.04778],[-1.81589,3.26802],[2.05884,-3.70526]],[[474.37269,318.65567],[-1.89526,3.79138],[0.0884,-0.17684]],[[477.5478,312.43666],[-0.16287,0.15053],[1.03513,-0.95669]],[[481.32862,310.54296],[-1.26028,0.63123],[5.48825,7.08017]],[[494.0522,334.52284],[-3.74525,-8.09161],[3.3492,7.23595]],[[504.93257,355.84801],[-3.68072,-7.06574],[3.72535,-0.38923]],[[515.94171,353.85767],[-3.58231,1.0799],[5.56465,-1.67749]],[[532.74558,346.26784],[-4.90127,3.18314],[2.90572,-1.88712]],[[541.01723,339.91452],[-2.94641,1.84029],[4.00766,-2.50314]],[[551.59456,329.36952],[-2.27007,4.20754],[2.08437,-3.75177]],[[557.8444,316.70575],[-0.5896,4.31306],[0.74252,-5.43175]],[[556.50795,300.41364],[1.18185,5.25065],[-2.18389,-9.70244]],[[545.18119,273.81452],[6.41015,7.71789],[-2.2323,-2.90438]],[[537.98677,266.67622],[2.52756,2.52544],[-0.78213,-0.78148]],[[536.00644,264.01535],[0.8105,0.75202],[-3.89513,-3.61407]],[[521.547,255.78421],[4.59588,2.56011],[-2.03359,-1.1328]],[[515.71778,251.93864],[2.04027,1.1207],[-8.98199,-4.93371]],[[485.38324,242.07412],[9.99038,1.99851],[-13.8773,-1.37873]],[[443.59052,240.05862],[13.9809,0.00314],[-3.32208,-0.00075]],[[433.52211,239.48539],[3.29025,-0.13688],[-5.82843,0.24247]],[[415.99954,240.05862],[5.88652,0],[-5.76636,0]],[[398.91291,240.73473],[5.74006,-0.35169],[-12.61078,0.77266]],[[360.90663,240.73576],[12.63189,-0.36987],[-4.33087,0.12681]],[[347.959,241.4151],[4.342,-0.00138],[-8.71051,0.0227]],[[321.71982,242.18947],[8.66542,-0.76611],[-4.19623,0.37099]],[[309.18294,244.12337],[4.20819,-0.31329],[-4.59563,0.34213]],[[295.26682,244.11509],[4.5764,-0.50198],[-5.43599,0.59627]],[[278.80909,246.96693],[5.4243,-0.8979],[-10.428,1.66958]],[[246.85092,250.23403],[10.55096,-0.66446],[-8.66696,0.54582]],[[220.61749,250.90219],[8.61533,-0.84146],[-0.36748,0.03589]],[[219.51569,251.04424],[0.36705,-0.05788],[0.05713,0.78532]],[[218.96957,252.43284],[0,0],[-0.49482,0.49084]],[[217.4851,253.90535],[0.49482,-0.49084],[0,0]],[215.31154,255.36456],[[212.88474,254.87914],[0.97069,1.45611],[-0.97069,-1.45611]],[213.37016,252.45234],[[213.42121,252.41859],[0,0],[-0.40453,0.08705]],[[212.20815,252.65432],[0.40418,-0.06884],[-6.66816,1.13211]],[[192.01758,256.20346],[6.55854,-1.67096],[0.19733,0.25397]],[[192.35191,257.29971],[0,-0.48964],[0,1.75]],[190.60191,259.04971],[[189.24542,259.04971],[0,0],[-3.59129,-0.01884]],[[178.87392,260.8663],[3.50076,-0.57096],[-1.39827,0.5657]],[[174.70292,262.5245],[1.38206,-0.53164],[-0.36483,0.14034]],[[167.86077,265.1246],[0.20384,-0.03729],[-3.59588,0.65787]],[[156.68925,264.4758],[3.66895,0],[0,0]],[[155.19408,263.70889],[0.48551,0.76691],[-0.03013,0.00995]],[[155.1037,263.73886],[0.03012,-0.01004],[-4.30296,0.86043]],[[141.94014,265.82374],[4.35493,-0.54574],[-1.75785,0.22029]],[[136.62536,265.80911],[1.75822,-0.21736],[-4.95854,0.613]],[[123.57694,272.39632],[4.05603,-2.30188],[-1.70507,0.96766]],[[118.08066,274.49003],[1.78169,-0.81804],[-6.08584,2.79425]],[[104.53585,287.47541],[3.56221,-5.34418],[-4.23427,5.64249]],[[93.91844,306.23787],[2.42484,-6.56192],[-1.6795,4.54493]],[[90.59131,320.097],[-0.61409,-4.98231],[0.94132,7.63723]],[[99.1458,341.12355],[-3.3263,-6.72161],[3.00706,3.55525]],[[108.94448,351.56394],[-3.66396,-2.91203],[4.78548,3.80338]],[[126.7358,361.45198],[-5.8015,-1.93501],[3.80865,1.27032]],[[138.80391,364.12328],[-3.92265,-0.98732],[5.24358,1.31979]],[[154.31946,368.17379],[-5.31124,-1.06226],[7.4124,1.50245]],[[176.45198,367.46405],[-7.44766,-0.37477],[6.44486,0.32431]],[[195.89451,368.1449],[-6.54438,0.34651],[4.76701,-0.25241]],[[210.16256,366.10846],[-4.77978,0.34587],[3.16176,-0.22879]],[[219.76685,366.10508],[-3.16887,0],[13.1729,0]],[[259.13142,365.4268],[-13.16883,0],[10.04132,0]],[[289.50288,364.75292],[-9.95817,1.41783],[8.63161,-0.01451]],[[315.32743,364.06916],[-8.61155,0.70069],[8.14933,-0.66307]],[[339.70896,361.36064],[-8.14077,0.6489],[5.86592,-0.46757]],[[357.14297,360.47869],[-5.88139,0.78417],[3.04336,-0.40266]],[[365.84069,358.63377],[-3.00725,0.48453],[9.11609,-1.46878]],[[393.96927,357.2911],[-9.2127,0.40305],[4.94993,-0.21656]],[[408.82775,355.93241],[-4.9744,0.17731],[4.91902,-0.17534]],[[423.57412,356.5622],[-4.91775,-0.18513],[0.14951,-8.33127]],[[425.07597,331.80896],[-0.84344,8.27576],[0,0]]],&quot;closed&quot;:true,&quot;fillColor&quot;:[0,0,0],&quot;strokeWidth&quot;:0.5}]}" fill="#a8dbff" stroke="none" stroke-width="0.25"/><path d="M205.86811,297.01943c-3.8381,2.6011 -8.76096,3.45738 -13.12805,4.92934c-1.39457,0.47005 -4.66243,1.94486 -6.36628,1.72569c-0.04831,-0.00621 -0.09642,-0.01324 -0.14435,-0.02103v0.02699h-1.77433c-0.9665,0 -1.75,-0.7835 -1.75,-1.75c0,-0.00463 0.00002,-0.00925 0.00005,-0.01387c-6.90792,1.21811 -13.14097,2.98687 -19.69532,6.0384c-1.80647,0.84104 -4.81376,1.59465 -6.18201,2.98901c-0.58321,0.59434 1.21077,1.1436 1.80619,1.7257c0.71135,0.69543 1.40374,1.40998 2.10561,2.11497c17.31031,12.15392 37.69715,5.35697 56.98412,5.35697c9.72651,0.06364 19.80575,0.22425 29.59593,-0.4392c10.74861,-0.7284 21.32089,-2.10917 32.12433,-1.33404c3.97177,0.0048 7.67503,1.02027 11.6042,1.33473c3.37437,0.27006 6.81201,-0.22418 10.19114,-0.00082c4.25584,0.2813 8.52323,0.71914 12.80406,0.88399c3.69549,0.14231 7.23018,-0.55126 10.88281,-0.8823c5.58374,-0.50606 11.24847,-0.45357 16.85614,-0.4436c9.2061,-1.53434 18.83543,-0.00596 28.09001,-0.00596c4.82913,0 9.6918,-0.09939 14.50475,-0.43848c2.49811,-0.176 3.0283,-0.84672 5.91094,-0.89219c3.41671,-0.05389 7.2486,0.78774 10.62413,1.3307c6.33374,-1.09647 12.97915,-0.43001 19.38417,-0.88122c3.8489,-0.27114 7.57669,-1.82927 11.31246,-2.62896c3.79208,-0.81174 7.73483,-1.01957 11.53822,-1.77542c6.23051,-1.2382 12.43193,-3.71851 18.34532,-5.9824c1.71354,-1.06847 4.32244,-2.52724 5.25442,-4.54533c0.63666,-1.37862 0.0589,-4.03299 -0.12667,-5.22264c-0.94486,-6.05729 -6.61976,-12.68215 -12.24535,-15.07423c-7.50397,-3.19079 -16.48105,0.53192 -24.31955,-0.31482c-6.68721,-0.00624 -13.42478,-1.85933 -20.08805,-1.3366c-12.43602,0.97559 -24.89286,2.15731 -37.36617,3.11225c-9.15377,-0.02588 -17.53934,3.59446 -26.54864,4.43202c-11.08059,1.03012 -22.04276,0.45121 -33.12416,0.44388c-8.07365,-0.06529 -16.09349,-1.18828 -24.14327,-0.43701c-5.26082,0.49098 -10.25088,2.52638 -15.47335,3.09309c-4.56956,0.49586 -9.46663,0.01009 -14.06404,0.01034c-4.44514,0.00024 -8.90984,0.5468 -13.31677,0.2448c-8.54991,-0.61352 -16.96411,1.44182 -25.45116,1.04272c-4.39392,-0.20663 -9.33226,-0.77957 -14.16732,-0.73036c-0.0632,0.09382 -0.13526,0.18118 -0.21497,0.26089v0l-0.15957,0.15958l0.69645,-0.04193c0,0 1.75,0 1.75,1.75c0,1.22224 -0.85364,1.59084 -1.36851,1.702c-0.39091,0.37096 -0.91425,0.46199 -1.14757,0.48433zM190.05179,295.28984c-0.90035,-1.50062 0.60028,-2.40097 0.60028,-2.40097c8.68275,-5.20376 20.32469,-3.41902 29.99441,-2.94998c3.27239,0.15873 6.57723,-0.61234 9.81709,-0.84362c5.21635,-0.37238 10.4954,-0.5655 15.71657,-0.19418c4.30462,0.32166 8.71779,-0.25345 13.0672,-0.25369c4.47209,-0.00025 9.24272,0.49203 13.68676,0.01008c5.23491,-0.56772 10.24412,-2.59865 15.52331,-3.09815c8.17112,-0.77311 16.29405,0.35803 24.48582,0.42168c10.99065,0.00719 21.85342,0.6057 32.84227,-0.43372c9.05099,-0.85612 17.47284,-4.41558 26.68119,-4.43963c12.40009,-0.95852 24.79109,-2.14885 37.15562,-3.0978c6.86428,-0.52682 13.7473,1.33139 20.62417,1.3248c8.36815,0.93402 17.38367,-2.91827 25.45888,0.57238c6.7241,2.90661 13.25729,10.47062 14.36957,17.75079c0.35907,2.35025 0.88478,4.87573 -0.12667,7.19772c-1.25402,2.87887 -4.42585,4.71784 -6.89171,6.26194c-6.17991,2.39811 -12.66733,4.97193 -19.18968,6.27655c-3.79901,0.75989 -7.74057,0.96077 -11.5281,1.77328c-3.89255,0.83504 -7.74436,2.39984 -11.75375,2.694c-6.51205,0.47776 -13.19398,-0.14542 -19.65095,0.89308c-3.37723,-0.4994 -7.25189,-1.37511 -10.66788,-1.3307c-0.16142,0.0021 -5.05484,0.84102 -5.62221,0.88206c-4.89961,0.35445 -9.85546,0.44867 -14.77162,0.44867c-9.15887,0 -18.69193,-1.52418 -27.80133,-0.00596c-5.6069,0.00917 -11.27348,-0.06561 -16.85613,0.4436c-3.79405,0.34606 -7.45718,1.03457 -11.29626,0.892c-4.32013,-0.16043 -8.62892,-0.60143 -12.92366,-0.89031c-3.38677,-0.2278 -6.82932,0.26911 -10.21367,-0.00082c-3.88537,-0.30989 -7.54002,-1.33173 -11.46207,-1.32677c-10.68097,-0.75952 -21.12343,0.61988 -31.75146,1.32746c-9.90229,0.65926 -20.01164,0.39498 -29.84405,0.448c-11.39418,0 -22.86042,2.8553 -34.243,2.21573c-8.7327,-0.49068 -17.82469,-3.3773 -24.99138,-8.39196c-1.7188,-1.71187 -6.05144,-4.5719 -4.95983,-7.69244c0.36516,-1.04388 1.56659,-1.57754 2.47132,-2.21354c2.44936,-1.72183 5.48493,-2.75661 8.15399,-4.08917c6.61374,-3.30201 13.79199,-4.41634 20.9736,-5.4946c1.27309,-0.19114 2.50846,-0.47082 3.7226,-0.7983c0.65124,-0.39315 1.31832,-0.77464 1.99634,-1.14215c-0.28123,-0.12269 -0.55912,-0.3512 -0.7956,-0.74534z" fill="#000000" stroke="none" stroke-width="0.5"/><path d="M97.08222,322.33998c2.03026,-2.53783 4.56808,-0.50757 4.56808,-0.50757l2.04303,1.6438c5.88026,3.51908 11.93829,6.72011 17.83956,10.21525c7.29178,3.64364 14.93773,6.61343 22.1327,10.39874c5.31017,2.79371 10.2658,6.43157 15.8058,8.79506c10.19612,4.34991 21.1363,6.29647 31.65038,9.64935c7.69832,2.45495 15.00906,5.38704 22.82705,7.4726c14.17631,3.18917 29.55908,2.1209 44.02998,2.12496c10.73488,0.00301 21.55294,0.82158 32.27511,0.88889c1.7451,0.01096 3.4198,-0.76509 5.16129,-0.87782c3.09336,-0.20024 6.20212,-0.1585 9.28903,-0.44133c8.53573,-0.7719 16.60188,-2.49108 25.02058,-3.95734c22.43103,-3.90675 44.38605,-9.3363 66.15031,-15.87682c5.90228,-1.81177 11.75218,-3.17568 17.56666,-5.26373c5.72853,-2.05719 11.14266,-4.99231 16.84842,-7.09443c5.28543,-1.94726 10.63099,-3.35775 15.79624,-5.70096c7.75576,-3.51839 14.86943,-8.44186 22.41791,-12.31807c6.11394,-3.13957 13.02214,-4.01002 19.54257,-5.96664c2.37493,-0.89151 4.9132,-1.38194 7.18221,-2.51625c5.55073,-2.77487 10.97361,-7.13005 15.72261,-11.09024c13.07636,-10.90439 24.90077,-23.50094 27.71375,-41.07011c0,0 0.53429,-3.20578 3.74007,-2.6715c3.20578,0.53429 2.6715,3.74007 2.6715,3.74007c-3.29457,19.17002 -15.53616,32.97949 -29.95193,44.98479c-5.17079,4.30618 -11.06347,8.95608 -17.10246,11.97607c-2.49934,1.24988 -5.2827,1.82635 -7.89955,2.80666c-6.13806,1.84098 -12.88264,2.58421 -18.60551,5.56651c-7.63192,3.97715 -14.88112,8.89359 -22.74048,12.47565c-5.29709,2.41425 -10.80402,3.88057 -16.22856,5.87908c-5.71058,2.1039 -11.13156,5.03443 -16.86385,7.10013c-5.92925,2.13668 -11.90672,3.52739 -17.91991,5.38223c-22.02316,6.59621 -44.22904,12.12003 -66.92427,16.0611c-8.58986,1.49164 -16.8394,3.23151 -25.5478,4.02711c-3.10472,0.28019 -6.22964,0.25912 -9.34138,0.44587c-1.98615,0.1192 -3.44382,0.88596 -5.48467,0.89648c-10.78925,0.05563 -21.68826,-0.88852 -32.48787,-0.88541c-15.03759,0.00434 -30.83023,0.93832 -45.57357,-2.3109c-7.98331,-2.12807 -15.44893,-5.10359 -23.30548,-7.60916c-10.71433,-3.41697 -21.8379,-5.41821 -32.22541,-9.86821c-5.65959,-2.42456 -10.70608,-6.09119 -16.13212,-8.9482c-7.2531,-3.81902 -14.96769,-6.81858 -22.31992,-10.49686c-6.10625,-3.61085 -12.36475,-6.93265 -18.43972,-10.58593l-2.3928,-1.90485c0,0 -2.53783,-2.03026 -0.50757,-4.56808z" fill="#00ff1c" stroke="none" stroke-width="0.5"/><path d="M83.64604,381.12012v-393.39019h489.33902v393.3902z" fill="none" stroke="#000000" stroke-width="0"/></g></g></svg>