<svg version="1.1" xmlns="http://www.w3.org/2000/svg" xmlns:xlink="http://www.w3.org/1999/xlink" width="489.33902" height="393.3902" viewBox="0,0,489.33902,393.3902"><g transform="translate(-83.64604,12.27008)"><g data-paper-data="{&quot;isPaintingLayer&quot;:true}" fill-rule="nonzero" stroke-linecap="butt" stroke-linejoin="miter" stroke-miterlimit="10" stroke-dasharray="" stroke-dashoffset="0" style="mix-blend-mode: normal"><path d="M357.73713,359.71601c0,-3.94964 0.30228,-8.04424 -0.09445,-11.97616c-0.44553,-4.41549 -1.34865,-9.62818 -0.56123,-14.07775c0.28112,-1.58853 1.68674,-5.09738 3.41891,-5.50526c1.19268,-0.28085 2.20851,1.06205 3.31276,1.59308c6.58966,3.95365 11.27156,10.70218 17.92053,14.50164c2.60686,1.48965 5.73857,4.61558 9.09731,4.30238c1.1747,-0.10954 2.81517,-4.5928 2.93846,-4.97613c1.81977,-5.65822 3.32796,-11.44044 5.99543,-16.7831c0.73682,-1.27884 1.01217,-2.97486 2.21045,-3.83653c3.61303,-2.59807 8.63936,3.66413 10.41241,5.80518c2.34886,2.83635 3.51984,6.57118 5.53522,9.64407c2.63239,4.01367 5.77662,7.67927 8.72429,11.40184c2.43138,3.07056 2.96317,5.46564 6.19826,7.30666c4.89097,0.17043 9.77367,0.02925 14.70688,0.27082c15.10986,0.73988 30.17462,2.00921 45.21961,-0.18095c7.66323,-1.27484 15.67716,-1.08945 23.16976,-3.34813c5.56465,-1.67749 11.9026,-4.40669 16.80387,-7.58983c2.90572,-1.88712 5.32524,-4.51303 8.27165,-6.35332c4.00766,-2.50314 8.30726,-6.33746 10.57733,-10.545c2.08437,-3.75177 5.66024,-8.35071 6.24984,-12.66377c0.74252,-5.43175 -0.1546,-11.04146 -1.33645,-16.29211c-2.18389,-9.70244 -4.91661,-18.88123 -11.32676,-26.59912c-2.2323,-2.90438 -4.66686,-4.61286 -7.19442,-7.1383c-0.78213,-0.78148 -1.16983,-1.90885 -1.98033,-2.66087c-3.89513,-3.61407 -9.86356,-5.67103 -14.45944,-8.23114c-2.03359,-1.1328 -3.78895,-2.72487 -5.82922,-3.84557c-8.98199,-4.93371 -20.34416,-7.86601 -30.33454,-9.86452c-13.8773,-1.37873 -27.81182,-2.01236 -41.79272,-2.0155c-3.32208,-0.00075 -6.77816,-0.71011 -10.06841,-0.57323c-5.82843,0.24247 -11.63605,0.57323 -17.52257,0.57323c-5.76636,0 -11.34657,0.32442 -17.08663,0.67611c-12.61078,0.77266 -25.37439,-0.36884 -38.00628,0.00103c-4.33087,0.12681 -8.60563,0.67796 -12.94763,0.67934c-8.71051,0.0227 -17.57376,0.00826 -26.23918,0.77437c-4.19623,0.37099 -8.32869,1.62061 -12.53688,1.9339c-4.59563,0.34213 -9.33972,-0.51026 -13.91612,-0.00828c-1.06517,0.11684 -2.13653,0.26291 -3.21158,0.42903v1.22534c0,0 0,1.75 -1.75,1.75c-1.75,0 -1.75,-1.75 -1.75,-1.75v-0.62722c-3.26312,0.60046 -6.53497,1.29315 -9.74615,1.8247c-10.428,1.66958 -21.40721,2.60264 -31.95817,3.2671c-5.11377,0.32205 -10.32647,0.20373 -15.51075,0.22543c-0.1087,0.31723 -0.21793,0.63428 -0.32774,0.95112c0,1.00475 0,2.49787 0,2.49787c0,0.9665 -0.7835,1.75 -1.75,1.75c-0.9665,0 -1.75,-0.7835 -1.75,-1.75v-3.01824c-0.01012,-0.12611 -0.02019,-0.2527 -0.03015,-0.37972c-2.304,0.05674 -4.59603,0.17011 -6.86478,0.3917c-2.81447,0.27489 -5.61595,1.2764 -8.40935,1.75212c-6.66816,1.13211 -13.63203,1.87818 -20.19057,3.54914c0.19733,0.25397 0.33433,0.60661 0.33433,1.09625c0,1.75 -1.75,1.75 -1.75,1.75h-1.35649c-3.59129,-0.01884 -6.87074,1.24563 -10.3715,1.81659c-1.39827,0.5657 -2.78894,1.12656 -4.171,1.6582c-0.36483,0.14034 -6.63831,2.56281 -6.84215,2.6001c-3.59588,0.65787 -7.50257,-0.6488 -11.17152,-0.6488c0,0 -1.00966,0 -1.49517,-0.76691c-0.03013,0.00995 -0.06026,0.01993 -0.09038,0.02997c-4.30296,0.86043 -8.80863,1.53914 -13.16356,2.08488c-1.75785,0.22029 -3.55656,-0.23199 -5.31478,-0.01463c-4.95854,0.613 -8.99239,4.28533 -13.04842,6.58721c-1.70507,0.96766 -3.71459,1.27567 -5.49628,2.09371c-6.08584,2.79425 -9.9826,7.6412 -13.54481,12.98538c-4.23427,5.64249 -8.19257,12.20054 -10.61741,18.76246c-1.6795,4.54493 -3.94122,8.87682 -3.32713,13.85913c0.94132,7.63723 5.22819,14.30494 8.55449,21.02655c3.00706,3.55525 6.13472,7.52836 9.79868,10.44039c4.78548,3.80338 11.98982,7.95303 17.79132,9.88804c3.80865,1.27032 8.14546,1.68398 12.06811,2.6713c5.24358,1.31979 10.20431,2.98825 15.51555,4.05051c7.4124,1.50245 14.68486,-1.08451 22.13252,-0.70974c6.44486,0.32431 12.89815,1.02736 19.44253,0.68085c4.76701,-0.25241 9.48827,-1.69057 14.26805,-2.03644c3.16176,-0.22879 6.43542,-0.00338 9.60429,-0.00338c13.1729,0 26.19574,-0.67828 39.36457,-0.67828c10.04132,0 20.41329,0.74395 30.37146,-0.67388c8.63161,-0.01451 17.213,0.01693 25.82455,-0.68376c8.14933,-0.66307 16.24076,-2.05962 24.38153,-2.70852c5.86592,-0.46757 11.55262,-0.09778 17.43401,-0.88195c0.19969,-0.02642 0.39767,-0.05523 0.59417,-0.08614zM431.95588,360.60299c-0.00544,-0.00276 -0.01087,-0.00553 -0.01629,-0.00829c-2.02764,-0.08452 -4.05708,-0.23042 -6.09239,-0.48858c-5.63621,0.00391 -11.26052,-0.88176 -16.89322,-0.67596c-4.94531,0.18068 -9.84534,1.12913 -14.76719,1.3542c-9.10094,0.41619 -18.78423,-0.14603 -27.78932,1.30487c-3.01526,0.48582 -5.73006,1.44759 -8.7919,1.85878c-5.96134,0.79483 -11.73803,0.42364 -17.67909,0.90589c-8.11828,0.65898 -16.18726,2.04242 -24.31518,2.70375c-8.62163,0.7015 -17.21775,0.70252 -25.86027,0.68648c-10.03514,1.43864 -20.49938,0.68269 -30.61958,0.68269c-13.16836,0 -26.19131,0.67828 -39.36457,0.67828c-3.09539,0 -6.29867,-0.2292 -9.38683,-0.00338c-4.76544,0.34847 -9.46315,1.77071 -14.21863,2.03302c-6.691,0.36907 -13.30404,-0.31306 -19.89611,-0.67564c-7.65538,-0.42106 -14.97371,2.15976 -22.63223,0.64675c-5.36905,-1.07382 -10.38768,-2.75547 -15.6841,-4.08857c-4.01701,-1.01107 -8.44751,-1.44837 -12.34903,-2.75472c-6.19316,-2.07366 -13.72653,-6.39951 -18.83435,-10.45956c-3.95021,-3.13991 -7.35816,-7.38904 -10.54892,-11.2637c-3.59739,-7.13027 -8.05351,-14.26349 -9.08014,-22.38163c-0.78586,-6.21424 1.99507,-13.54645 4.60537,-19.10771c0.95875,-2.04262 2.64908,-3.6735 3.68734,-5.67688c1.89887,-3.66399 3.73222,-7.06105 6.24943,-10.41916c3.90773,-5.86075 8.34317,-11.04427 14.94179,-14.14473c1.63026,-0.766 3.51179,-0.96352 5.07261,-1.86261c4.47462,-2.57755 8.9149,-6.35989 14.36493,-7.09117c1.82937,-0.24546 3.70692,0.22342 5.53727,-0.01463c4.17354,-0.5428 8.48325,-1.15893 12.61007,-1.98466c7.36915,-2.45633 15.12063,-2.15651 22.70749,-2.7672c0.33611,-0.02705 0.66923,-0.06242 0.99985,-0.10462l-0.00002,0.00001c4.23703,-1.70911 8.53975,-3.44624 12.88716,-4.58038c6.75345,-1.76182 13.94228,-2.53212 20.82251,-3.70023c2.88037,-0.48743 5.74646,-1.49675 8.65033,-1.78447c2.30858,-0.22874 4.67024,-0.15978 7.0291,-0.08011c-0.03106,-1.33435 0.01679,-2.64538 0.22757,-3.84719c0.36606,-2.08715 1.51741,-4.83194 2.04835,-6.89725c0.15491,-0.60257 1.27268,-6.55952 1.42106,-6.99405c0.37951,-1.11136 1.17542,-2.04744 1.57297,-3.15248c1.05846,-2.94209 1.31876,-6.21037 2.52592,-9.13521c0.35337,-0.85619 1.05233,-1.56883 1.27887,-2.46695c0.73013,-2.89463 0.52341,-6.22699 1.30971,-9.26127v-1.86703c0,-0.9665 0.7835,-1.75 1.75,-1.75c0.78722,0 1.45304,0.5198 1.67296,1.23489l0.66548,1.99649l-0.34352,0.1145c0.92344,1.59826 1.70556,3.20179 2.85422,4.89689c2.86569,4.22893 7.22099,7.37656 10.13559,11.4751c0.73029,1.02694 1.19737,2.22033 1.71083,3.37111c0.22643,0.50747 0.0529,1.263 0.50254,1.58952c1.34827,0.97908 3.93978,-1.92709 4.75304,-2.57769c5.56005,-4.448 10.90919,-8.97005 16.33082,-13.60667c6.03339,-4.00278 11.19816,-9.42864 16.07114,-14.73722l0.0329,-0.02024l-0.00662,-0.00662l2.03469,-2.03473c0.31669,-0.3167 0.75419,-0.51258 1.23745,-0.51258c0.9665,0 1.75,0.7835 1.75,1.75v3.39125h-0.02507c0.00485,0.07117 0.00886,0.14244 0.01196,0.21382c0.1576,3.62346 -2.09965,8.02961 -2.72955,11.63725c-1.79625,10.28772 -3.63479,20.50702 -3.98159,30.8512c0.91193,-0.13493 1.82101,-0.25434 2.72575,-0.35267c4.64142,-0.50443 9.42857,0.33829 14.08388,-0.00828c4.19035,-0.31195 8.30851,-1.56168 12.48904,-1.93c8.76692,-0.77241 17.73113,-0.76496 26.54231,-0.78791c4.30097,0.00142 8.5355,-0.55022 12.826,-0.67707c12.61446,-0.37295 25.3658,0.78168 37.95812,0.00103c5.79614,-0.35933 11.43876,-0.68045 17.26098,-0.68045c5.83929,0 11.60249,-0.34992 17.38337,-0.57046c0.45262,-0.01727 6.18109,0.54258 6.89029,0.57203c15.28831,0.63478 30.40925,0.52109 45.628,2.05247c10.41889,2.08327 22.12417,5.13162 31.49842,10.25655c2.04909,1.12024 3.80762,2.72226 5.849,3.85649c4.87773,2.71016 10.95622,4.91031 15.1239,8.71056c0.8536,0.77834 1.27262,1.9479 2.08913,2.76508c2.5785,2.58061 5.16213,4.45847 7.45263,7.42679c6.75524,8.13057 9.7106,17.80234 12.00843,28.01767c1.26973,5.64475 2.2375,11.78673 1.37652,17.62059c-0.71053,4.81444 -4.3183,9.61469 -6.64511,13.80291c-2.67988,4.71209 -7.24026,8.9729 -11.79683,11.82252c-2.91973,1.82597 -5.32156,4.43843 -8.20536,6.31132c-5.17342,3.35989 -11.82286,6.23389 -17.70001,8.00559c-7.66057,2.30933 -15.80958,2.14768 -23.64008,3.4552c-15.28668,2.22616 -30.57837,0.9704 -45.93066,0.21865c-4.64843,-0.22762 -9.25322,-0.10609 -13.86193,-0.23356c-0.748,0.36165 -1.5634,-0.04603 -1.5634,-0.04603zM423.90817,351.98819c-4.91396,-6.15723 -9.13929,-12.31791 -13.03088,-19.2022c-1.28909,-2.28042 -3.4871,-4.30692 -5.41651,-6.03335c-0.45637,-0.40835 -1.29005,-1.31592 -1.64542,-0.81718c-0.50161,0.70396 -0.61334,1.61632 -0.92001,2.42448c-2.60089,5.19399 -3.93407,10.82792 -5.7957,16.29469c-0.61853,1.81635 -2.64253,6.73014 -5.20054,7.23233c-3.4795,0.6831 -6.5307,-1.20916 -9.0571,-2.98874c-4.15269,-2.92512 -8.38341,-5.52471 -12.28348,-8.8779c-2.95014,-2.53646 -5.21503,-5.28546 -8.61487,-7.31149c-0.25228,-0.37332 -0.30658,-1.10349 -0.75685,-1.11997c-0.36478,-0.01335 -0.04009,0.73323 -0.12762,1.08761c-0.13047,0.52823 -0.44139,1.00832 -0.52294,1.54628c-0.2625,1.73169 0.0226,3.50289 0.0226,5.25437c0,6.72645 0.67409,13.40889 0.67826,20.17591c1.5085,-0.3705 3.00516,-0.76172 4.60357,-1.01926c9.11609,-1.46878 18.91588,-0.93962 28.12858,-1.34267c4.94993,-0.21656 9.88408,-1.18138 14.85848,-1.35869c5.74915,-0.20493 11.48542,0.67657 17.23689,0.68045c0.41811,0.05157 0.83596,0.09856 1.25359,0.1414c-1.06066,-1.38786 -1.96271,-2.95252 -3.41006,-4.76606zM289.25608,235.99354c0.39945,-2.30855 -0.24122,-5.04581 -0.01408,-7.35289c0.5128,-5.20851 2.11794,-10.42236 2.90761,-15.61665c0.6098,-4.01111 1.03769,-9.04988 2.57434,-13.15311c-4.53653,4.87437 -9.37093,9.68286 -14.89231,13.38078c-5.37652,4.61964 -10.70062,9.1038 -16.22532,13.52352c-2.31953,1.8556 -5.39257,4.73523 -8.81206,2.84826c-0.80964,-0.44678 -2.69151,-5.15674 -3.21265,-5.89142c-2.92674,-4.12589 -7.32792,-7.31875 -10.21202,-11.58555c-0.27276,-0.40353 -0.59222,-0.85239 -0.90944,-1.32562c-0.1517,1.65089 -0.29468,3.2875 -0.67726,4.82925c-0.26398,1.06381 -1.02111,1.94371 -1.4341,2.959c-1.17583,2.89062 -1.44222,6.11305 -2.48266,9.02094c-1.86224,5.20473 -3.86875,10.82065 -4.87062,16.34733c-0.08142,0.44913 -0.14056,0.91714 -0.18241,1.39886c0.11353,0.01819 0.23321,0.04745 0.35926,0.08947c1.25382,0.41795 1.24508,1.46717 1.16568,1.95577c0.12319,-0.00274 0.24627,-0.00603 0.36922,-0.00991c15.02844,-0.47394 30.68694,-1.50923 45.53875,-3.89905c3.4185,-0.56585 6.9052,-1.31351 10.37847,-1.9401c0.09613,-1.86429 0.29704,-3.64531 0.63161,-5.57888zM167.40616,261.64537c-0.8624,0.05657 -1.72382,0.12217 -2.58342,0.20259c0.82459,0.02662 1.62921,-0.01361 2.39912,-0.16455c0.06161,-0.01208 0.12304,-0.02477 0.1843,-0.03804z" fill="#000000" stroke="none" stroke-width="0.5"/><path d="M423.95594,352.00294c1.44735,1.81354 2.34773,3.3828 3.40839,4.77066c-0.41763,-0.04284 -0.83568,-0.08936 -1.25379,-0.14093c-5.75147,-0.00388 -11.49617,-0.87209 -17.24532,-0.66716c-4.9744,0.17731 -9.94569,1.15903 -14.89562,1.37559c-9.2127,0.40305 -19.05631,-0.15143 -28.1724,1.31735c-1.59841,0.25754 -3.09597,0.6471 -4.60447,1.0176c-0.00417,-6.76702 -0.68364,-13.47733 -0.68364,-20.20378c0,-1.75148 -0.28379,-3.53019 -0.02129,-5.26188c0.08155,-0.53796 0.39311,-1.02033 0.52358,-1.54856c0.08753,-0.35438 -0.23668,-1.10244 0.1281,-1.08909c0.45027,0.01648 0.59961,0.77773 0.85189,1.15105c3.39984,2.02603 5.66669,4.76582 8.61683,7.30228c3.90007,3.35319 8.12475,5.92259 12.27744,8.84771c2.5264,1.77958 5.5445,3.64739 9.024,2.96429c2.55801,-0.50219 4.5286,-5.39279 5.14713,-7.20914c1.86163,-5.46677 3.2111,-11.03267 5.81199,-16.22666c0.30667,-0.80816 0.47048,-1.80587 0.97209,-2.50983c0.35537,-0.49874 1.19293,0.41138 1.6493,0.81973c1.92941,1.72643 4.14122,3.76817 5.43031,6.04859c3.89159,6.88429 8.12153,13.08493 13.03549,19.24216z" data-paper-data="{&quot;noHover&quot;:false,&quot;origItem&quot;:[&quot;Path&quot;,{&quot;applyMatrix&quot;:true,&quot;segments&quot;:[[[423.90817,351.98819],[0,0],[-4.91396,-6.15723]],[[410.87729,332.78599],[3.89159,6.88429],[-1.28909,-2.28042]],[[405.46078,326.75264],[1.92941,1.72643],[-0.45637,-0.40835]],[[403.81536,325.93546],[0.35537,-0.49874],[-0.50161,0.70396]],[[402.89535,328.35994],[0.30667,-0.80816],[-2.60089,5.19399]],[[397.09965,344.65463],[1.86163,-5.46677],[-0.61853,1.81635]],[[391.89911,351.88696],[2.55801,-0.50219],[-3.4795,0.6831]],[[382.84201,348.89822],[2.5264,1.77958],[-4.15269,-2.92512]],[[370.55853,340.02032],[3.90007,3.35319],[-2.95014,-2.53646]],[[361.94366,332.70883],[3.39984,2.02603],[-0.25228,-0.37332]],[[361.18681,331.58886],[0.45027,0.01648],[-0.36478,-0.01335]],[[361.05919,332.67647],[0.08753,-0.35438],[-0.13047,0.52823]],[[360.53625,334.22275],[0.08155,-0.53796],[-0.2625,1.73169]],[[360.55885,339.47712],[0,-1.75148],[0,6.72645]],[[361.23711,359.65303],[-0.00417,-6.76702],[1.5085,-0.3705]],[[365.84068,358.63377],[-1.59841,0.25754],[9.11609,-1.46878]],[[393.96926,357.2911],[-9.2127,0.40305],[4.94993,-0.21656]],[[408.82774,355.93241],[-4.9744,0.17731],[5.74915,-0.20493]],[[426.06463,356.61286],[-5.75147,-0.00388],[0.41811,0.05157]],[[427.31822,356.75426],[-0.41763,-0.04284],[-1.06066,-1.38786]],[[423.90816,351.9882],[1.44735,1.81354],[0,0]]],&quot;closed&quot;:true,&quot;fillColor&quot;:[0,0,0,1]}]}" fill="#5cff95" stroke="none" stroke-width="0.5"/><path d="M289.30141,236.01467c-0.33457,1.93357 -0.53971,3.72195 -0.63584,5.58624c-3.47327,0.62659 -6.97033,1.3852 -10.38883,1.95105c-14.85181,2.38982 -30.58026,3.41668 -45.6087,3.89062c-0.12295,0.00388 -0.24621,0.00694 -0.3694,0.00968c0.0794,-0.4886 0.0864,-1.54019 -1.16742,-1.95814c-0.12605,-0.04202 -0.24593,-0.07158 -0.35946,-0.08977c0.04185,-0.48172 0.10022,-0.9509 0.18164,-1.40003c1.00187,-5.52668 3.00104,-11.16222 4.86328,-16.36695c1.04044,-2.90789 1.30732,-6.14775 2.48315,-9.03837c0.41299,-1.01529 1.17186,-1.90152 1.43584,-2.96533c0.38258,-1.54175 0.52944,-3.18685 0.68114,-4.83774c0.31722,0.47323 0.72407,0.97068 0.99683,1.37421c2.8841,4.2668 7.29124,7.43561 10.21798,11.5615c0.52114,0.73468 2.39302,5.41503 3.20266,5.86181c3.41949,1.88697 6.43959,-1.01097 8.75912,-2.86657c5.5247,-4.41972 10.81903,-8.82957 16.19555,-13.44921c5.52138,-3.69792 10.4386,-8.56227 14.97513,-13.43664c-1.53665,4.10323 -1.95763,9.15485 -2.56743,13.16596c-0.78967,5.19429 -2.3927,10.43441 -2.9055,15.64292c-0.22714,2.30708 0.40971,5.0562 0.01026,7.36475z" data-paper-data="{&quot;noHover&quot;:false,&quot;origItem&quot;:[&quot;Path&quot;,{&quot;applyMatrix&quot;:true,&quot;segments&quot;:[[[289.25608,235.99354],[0,0],[0.39945,-2.30855]],[[289.242,228.64065],[-0.22714,2.30708],[0.5128,-5.20851]],[[292.14961,213.024],[-0.78967,5.19429],[0.6098,-4.01111]],[[294.72395,199.87089],[-1.53665,4.10323],[-4.53653,4.87437]],[[279.83164,213.25167],[5.52138,-3.69792],[-5.37652,4.61964]],[[263.60632,226.77519],[5.5247,-4.41972],[-2.31953,1.8556]],[[254.79426,229.62345],[3.41949,1.88697],[-0.80964,-0.44678]],[[251.58161,223.73203],[0.52114,0.73468],[-2.92674,-4.12589]],[[241.36959,212.14648],[2.8841,4.2668],[-0.27276,-0.40353]],[[240.46015,210.82086],[0.31722,0.47323],[-0.1517,1.65089]],[[239.78289,215.65011],[0.38258,-1.54175],[-0.26398,1.06381]],[[238.34879,218.60911],[0.41299,-1.01529],[-1.17583,2.89062]],[[235.86613,227.63005],[1.04044,-2.90789],[-1.86224,5.20473]],[[230.99551,243.97738],[1.00187,-5.52668],[-0.08142,0.44913]],[[230.8131,245.37624],[0.04185,-0.48172],[0.11353,0.01819]],[[231.17236,245.46571],[-0.12605,-0.04202],[1.25382,0.41795]],[[232.33804,247.42148],[0.0794,-0.4886],[0.12319,-0.00274]],[[232.70726,247.41157],[-0.12295,0.00388],[15.02844,-0.47394]],[[278.24601,243.51252],[-14.85181,2.38982],[3.4185,-0.56585]],[[288.62448,241.57242],[-3.47327,0.62659],[0.09613,-1.86429]],[[289.25609,235.99354],[-0.33457,1.93357],[0,0]]],&quot;closed&quot;:true,&quot;fillColor&quot;:[0,0,0,1]}]}" fill="#5cff95" stroke="none" stroke-width="0.5"/><path d="M357.76268,360.43555c-0.1965,0.03091 -0.39485,0.05994 -0.59454,0.08636c-5.88139,0.78417 -11.58026,0.41945 -17.44618,0.88702c-8.14077,0.6489 -16.25258,2.04662 -24.40191,2.70969c-8.61155,0.70069 -17.21041,0.66318 -25.84202,0.67769c-9.95817,1.41783 -20.34167,0.66478 -30.38299,0.66478c-13.16883,0 -26.19827,0.66952 -39.37117,0.66952c-3.16887,0 -6.44346,-0.22705 -9.60522,0.00174c-4.77978,0.34587 -9.50185,1.78248 -14.26886,2.03489c-6.54438,0.34651 -12.99888,-0.35916 -19.44374,-0.68347c-7.44766,-0.37477 -14.72095,2.21013 -22.13335,0.70768c-5.31124,-1.06226 -10.27276,-2.73296 -15.51634,-4.05275c-3.92265,-0.98732 -8.25991,-1.40243 -12.06856,-2.67275c-5.8015,-1.93501 -13.00665,-6.08784 -17.79213,-9.89122c-3.66396,-2.91203 -6.79213,-6.88779 -9.79919,-10.44304c-3.3263,-6.72161 -7.61372,-13.39402 -8.55504,-21.03125c-0.61409,-4.98231 1.64751,-9.31715 3.32701,-13.86208c2.42484,-6.56192 6.38328,-13.12421 10.61755,-18.7667c3.56221,-5.34418 7.45933,-10.19446 13.54517,-12.98871c1.78169,-0.81804 3.79131,-1.12674 5.49638,-2.0944c4.05603,-2.30188 8.09028,-5.9764 13.04882,-6.5894c1.75822,-0.21736 3.55699,0.23464 5.31484,0.01435c4.35493,-0.54574 8.8609,-1.22578 13.16386,-2.08621c0.03012,-0.01004 0.15752,0.00317 0.18765,-0.00678c0.48551,0.76691 1.39787,0.74381 1.39787,0.74381c3.66895,0 7.57578,1.30609 11.17166,0.64822c0.20384,-0.03729 6.47766,-2.46106 6.84249,-2.6014c1.38206,-0.53164 2.77298,-1.09336 4.17125,-1.65906c3.50076,-0.57096 6.78071,-1.837 10.372,-1.81816l1.35654,-0.00014c0,0 1.75026,-0.00075 1.75026,-1.75075c0,-0.48964 -0.13689,-0.84259 -0.33422,-1.09656c6.55854,-1.67096 13.52398,-2.42086 20.19214,-3.55297c2.7934,-0.47572 5.59584,-1.4792 8.41031,-1.75409c2.26875,-0.22159 4.56152,-0.33635 6.86552,-0.39309c0.00996,0.12702 0.10761,0.30188 0.11773,0.42799l0.00057,3.01717c0,0.9665 0.69455,1.70431 1.66105,1.70431c0.9665,0 1.75052,-0.78448 1.75052,-1.75098c0,0 0.0005,-1.49402 0.0005,-2.49877c0.10981,-0.31684 0.21927,-0.63429 0.32797,-0.95152c5.18428,-0.0217 10.39924,0.09306 15.51301,-0.22899c10.55096,-0.66446 21.54007,-1.60809 31.96807,-3.27767c3.21118,-0.53155 6.48825,-1.22788 9.75137,-1.82834l0.05208,0.71259c0,0 -0.05191,1.66453 1.69809,1.66453c1.75,0 1.75156,-1.7509 1.75156,-1.7509l0.00038,-1.22555c1.07505,-0.16612 2.14843,-0.31323 3.2136,-0.43007c4.5764,-0.50198 9.33006,0.34693 13.92569,0.0048c4.20819,-0.31329 8.35079,-1.56439 12.54702,-1.93538c8.66542,-0.76611 17.54842,-0.74849 26.25893,-0.77119c4.342,-0.00138 8.62412,-0.54904 12.95499,-0.67585c12.63189,-0.36987 25.4086,0.78256 38.01938,0.0099c5.74006,-0.35169 11.32315,-0.67237 17.08951,-0.67237c5.88652,0 11.69618,-0.32759 17.52461,-0.57006c3.29025,-0.13688 6.74735,0.57429 10.06943,0.57504c13.9809,0.00314 27.91802,0.64245 41.79532,2.02118c9.99038,1.99851 21.35413,4.93563 30.33612,9.86934c2.04027,1.1207 3.79595,2.71402 5.82954,3.84682c4.59588,2.56011 10.56487,4.61966 14.46,8.23373c0.8105,0.75202 1.19832,1.88007 1.98045,2.66155c2.52756,2.52544 4.96241,4.23575 7.19471,7.14013c6.41015,7.71789 9.14333,16.90268 11.32722,26.60512c1.18185,5.25065 2.0789,10.86385 1.33638,16.2956c-0.5896,4.31306 -4.1657,8.91483 -6.25007,12.6666c-2.27007,4.20754 -6.57003,8.04449 -10.57769,10.54763c-2.94641,1.84029 -5.36625,4.46796 -8.27197,6.35508c-4.90127,3.18314 -11.23983,5.91499 -16.80448,7.59248c-7.4926,2.25868 -15.50724,2.07576 -23.17047,3.3506c-15.04499,2.19016 -30.11154,0.92564 -45.2214,0.18576c-4.93321,-0.24157 -9.81688,-0.09829 -14.70785,-0.26872c-3.23509,-1.84102 -3.85745,-4.27846 -6.28883,-7.34902c-2.94767,-3.72257 -6.09319,-7.38499 -8.72558,-11.39866c-2.01538,-3.07289 -3.18756,-6.804 -5.53642,-9.64035c-1.77305,-2.14105 -6.70266,-8.37793 -10.31569,-5.77986c-1.19828,0.86167 -1.47434,2.56029 -2.21116,3.83913c-2.66747,5.34266 -4.18007,11.13518 -5.99984,16.7934c-0.12329,0.38333 -1.76566,4.86966 -2.94036,4.9792c-3.35874,0.3132 -6.57298,-2.8692 -9.17984,-4.35885c-6.64897,-3.79946 -11.33182,-10.54658 -17.92148,-14.50023c-1.10425,-0.53103 -2.03654,-1.81896 -3.22922,-1.53811c-1.73217,0.40788 -3.1423,3.92253 -3.42342,5.51106c-0.78742,4.44957 0.10893,9.66849 0.55446,14.08398c0.39673,3.93192 0.08986,8.02964 0.08986,11.97928z" data-paper-data="{&quot;noHover&quot;:false,&quot;origItem&quot;:[&quot;Path&quot;,{&quot;applyMatrix&quot;:true,&quot;segments&quot;:[[[357.73713,359.71601],[0,0],[0,-3.94964]],[[357.64268,347.73985],[0.39673,3.93192],[-0.44553,-4.41549]],[[357.08145,333.6621],[-0.78742,4.44957],[0.28112,-1.58853]],[[360.50036,328.15684],[-1.73217,0.40788],[1.19268,-0.28085]],[[363.81312,329.74992],[-1.10425,-0.53103],[6.58966,3.95365]],[[381.73365,344.25156],[-6.64897,-3.79946],[2.60686,1.48965]],[[390.83096,348.55394],[-3.35874,0.3132],[1.1747,-0.10954]],[[393.76942,343.57781],[-0.12329,0.38333],[1.81977,-5.65822]],[[399.76485,326.79471],[-2.66747,5.34266],[0.73682,-1.27884]],[[401.9753,322.95818],[-1.19828,0.86167],[3.61303,-2.59807]],[[412.38771,328.76336],[-1.77305,-2.14105],[2.34886,2.83635]],[[417.92293,338.40743],[-2.01538,-3.07289],[2.63239,4.01367]],[[426.64722,349.80927],[-2.94767,-3.72257],[2.43138,3.07056]],[[432.84548,357.11593],[-3.23509,-1.84102],[4.89097,0.17043]],[[447.55236,357.38675],[-4.93321,-0.24157],[15.10986,0.73988]],[[492.77197,357.2058],[-15.04499,2.19016],[7.66323,-1.27484]],[[515.94173,353.85767],[-7.4926,2.25868],[5.56465,-1.67749]],[[532.7456,346.26784],[-4.90127,3.18314],[2.90572,-1.88712]],[[541.01725,339.91452],[-2.94641,1.84029],[4.00766,-2.50314]],[[551.59458,329.36952],[-2.27007,4.20754],[2.08437,-3.75177]],[[557.84442,316.70575],[-0.5896,4.31306],[0.74252,-5.43175]],[[556.50797,300.41364],[1.18185,5.25065],[-2.18389,-9.70244]],[[545.18121,273.81452],[6.41015,7.71789],[-2.2323,-2.90438]],[[537.98679,266.67622],[2.52756,2.52544],[-0.78213,-0.78148]],[[536.00646,264.01535],[0.8105,0.75202],[-3.89513,-3.61407]],[[521.54702,255.78421],[4.59588,2.56011],[-2.03359,-1.1328]],[[515.7178,251.93864],[2.04027,1.1207],[-8.98199,-4.93371]],[[485.38326,242.07412],[9.99038,1.99851],[-13.8773,-1.37873]],[[443.59054,240.05862],[13.9809,0.00314],[-3.32208,-0.00075]],[[433.52213,239.48539],[3.29025,-0.13688],[-5.82843,0.24247]],[[415.99956,240.05862],[5.88652,0],[-5.76636,0]],[[398.91293,240.73473],[5.74006,-0.35169],[-12.61078,0.77266]],[[360.90665,240.73576],[12.63189,-0.36987],[-4.33087,0.12681]],[[347.95902,241.4151],[4.342,-0.00138],[-8.71051,0.0227]],[[321.71984,242.18947],[8.66542,-0.76611],[-4.19623,0.37099]],[[309.18296,244.12337],[4.20819,-0.31329],[-4.59563,0.34213]],[[295.26684,244.11509],[4.5764,-0.50198],[-1.06517,0.11684]],[[292.05526,244.54412],[1.07505,-0.16612],[0,0]],[292.05526,245.76946],[[290.30526,247.51946],[1.75,0],[-1.75,0]],[288.55526,245.76946],[[288.55526,245.14224],[0,0],[-3.26312,0.60046]],[[278.80911,246.96694],[3.21118,-0.53155],[-10.428,1.66958]],[[246.85094,250.23404],[10.55096,-0.66446],[-5.11377,0.32205]],[[231.34019,250.45947],[5.18428,-0.0217],[-0.1087,0.31723]],[[231.01245,251.41059],[0.10981,-0.31684],[0,1.00475]],[[231.01245,253.90846],[0,0],[0,0.9665]],[[229.26245,255.65846],[0.9665,0],[-0.9665,0]],[[227.51245,253.90846],[0,0.9665],[0,0]],[[227.51245,250.89022],[0,0],[-0.01012,-0.12611]],[[227.4823,250.5105],[0.00996,0.12702],[-2.304,0.05674]],[[220.61752,250.9022],[2.26875,-0.22159],[-2.81447,0.27489]],[[212.20817,252.65432],[2.7934,-0.47572],[-6.66816,1.13211]],[[192.0176,256.20346],[6.55854,-1.67096],[0.19733,0.25397]],[[192.35193,257.29971],[0,-0.48964],[0,1.75]],[190.60193,259.04971],[[189.24544,259.04971],[0,0],[-3.59129,-0.01884]],[[178.87394,260.8663],[3.50076,-0.57096],[-1.39827,0.5657]],[[174.70294,262.5245],[1.38206,-0.53164],[-0.36483,0.14034]],[[167.86079,265.1246],[0.20384,-0.03729],[-3.59588,0.65787]],[[156.68927,264.4758],[3.66895,0],[0,0]],[[155.1941,263.70889],[0.48551,0.76691],[-0.03013,0.00995]],[[155.10372,263.73886],[0.03012,-0.01004],[-4.30296,0.86043]],[[141.94016,265.82374],[4.35493,-0.54574],[-1.75785,0.22029]],[[136.62538,265.80911],[1.75822,-0.21736],[-4.95854,0.613]],[[123.57696,272.39632],[4.05603,-2.30188],[-1.70507,0.96766]],[[118.08068,274.49003],[1.78169,-0.81804],[-6.08584,2.79425]],[[104.53587,287.47541],[3.56221,-5.34418],[-4.23427,5.64249]],[[93.91846,306.23787],[2.42484,-6.56192],[-1.6795,4.54493]],[[90.59133,320.097],[-0.61409,-4.98231],[0.94132,7.63723]],[[99.14582,341.12355],[-3.3263,-6.72161],[3.00706,3.55525]],[[108.9445,351.56394],[-3.66396,-2.91203],[4.78548,3.80338]],[[126.73582,361.45198],[-5.8015,-1.93501],[3.80865,1.27032]],[[138.80393,364.12328],[-3.92265,-0.98732],[5.24358,1.31979]],[[154.31948,368.17379],[-5.31124,-1.06226],[7.4124,1.50245]],[[176.452,367.46405],[-7.44766,-0.37477],[6.44486,0.32431]],[[195.89453,368.1449],[-6.54438,0.34651],[4.76701,-0.25241]],[[210.16258,366.10846],[-4.77978,0.34587],[3.16176,-0.22879]],[[219.76687,366.10508],[-3.16887,0],[13.1729,0]],[[259.13144,365.4268],[-13.16883,0],[10.04132,0]],[[289.5029,364.75292],[-9.95817,1.41783],[8.63161,-0.01451]],[[315.32745,364.06916],[-8.61155,0.70069],[8.14933,-0.66307]],[[339.70898,361.36064],[-8.14077,0.6489],[5.86592,-0.46757]],[[357.14299,360.47869],[-5.88139,0.78417],[0.19969,-0.02642]],[[357.73716,360.39255],[-0.1965,0.03091],[0,0]]],&quot;closed&quot;:true,&quot;fillColor&quot;:[0,0,0],&quot;strokeWidth&quot;:0.5}]}" fill="#a8dbff" stroke="none" stroke-width="0.25"/><path d="M211.30143,300.58486c0.46326,-0.84804 1.54292,-0.84804 1.54292,-0.84804c3.51178,0.03526 6.95857,-1.5044 10.51128,-1.76911c7.6558,-0.57042 15.37113,-0.42498 23.04501,-0.8891c5.84175,-0.35331 11.43103,-2.20118 17.11248,-3.33645c8.73114,-0.54405 17.67139,-2.25541 26.44499,-1.98864c13.02688,0.3961 26.09972,2.22588 39.10472,2.21672c5.05584,0.00215 9.89405,-0.89298 14.91216,-1.20079c16.21627,-0.9947 32.52859,-0.61661 48.68148,-2.23915c4.18518,-0.61921 8.40793,-0.76288 12.62318,-0.99409c8.99183,-0.49321 18.12883,-1.62714 27.03003,0.74412c3.652,0.97289 13.76544,4.76155 8.4425,10.226c-0.99118,1.01753 -2.57577,1.2044 -3.90251,1.71189c-2.721,1.0408 -5.63393,1.73545 -8.48415,2.30669c-2.25506,0.5604 -4.7086,0.44757 -6.87804,1.26617c-4.09655,1.54576 -8.33132,3.76879 -12.70059,4.51302c-1.7825,0.30362 -3.61383,0.21125 -5.40523,0.45698c-3.88012,0.53224 -7.6874,1.98187 -11.53108,2.66121c-5.64688,0.99804 -12.35397,0.02244 -18.08276,0.01424c-4.49394,-0.49735 -8.95955,-1.78298 -13.42451,-2.22836c-5.07882,-0.50662 -10.18052,0.71167 -15.24355,0.89897c-10.72086,0.39659 -21.19094,1.77565 -31.95722,1.77565c-8.61417,-0.04524 -17.44741,1.54858 -26.04758,2.20938c-4.23496,0.3254 -8.60458,-0.4629 -12.82246,-0.0046c-2.65642,0.28864 -5.35828,1.12201 -8.03992,1.33668c-4.74273,0.37967 -9.49103,-0.47587 -14.18418,0.44259c-19.7292,0.0439 -39.34028,0.56131 -59.07051,-0.02696c-3.79705,-1.47654 -11.25231,-4.07842 -8.77219,-9.56427c0.40734,-0.90101 1.02112,-1.74356 1.78959,-2.36581c0.90723,-0.73459 2.04063,-1.14302 3.11311,-1.60397c7.05234,-3.03108 14.6458,-3.26717 22.19303,-3.72098zM225.55715,301.32878c-0.28323,0.55741 -0.84064,0.83612 -0.84064,0.83612l-1.33065,0.59515c-9.02312,1.77809 -18.247,0.91573 -27.22458,2.98029c-2.34662,0.53965 -5.91045,1.39325 -7.92339,2.8566c-0.59363,0.43155 -1.4222,1.16581 -1.18024,1.85869c0.72686,2.08143 4.87399,3.22984 6.61794,3.9545c19.36762,0.19955 38.66732,-0.07443 58.03511,-0.02696c4.71275,-0.9223 9.45025,-0.0611 14.20509,-0.44456c2.64577,-0.21337 5.30514,-1.04684 7.92903,-1.32482c4.25757,-0.45105 8.63865,0.32977 12.90525,-0.0046c8.73159,-0.68427 17.64188,-2.18718 26.39245,-2.22642c10.72115,0 21.1423,-1.37908 31.82121,-1.773c5.26392,-0.19418 10.52148,-1.40512 15.80722,-0.87538c4.39197,0.44016 8.77292,1.71454 13.1904,2.20749c5.46457,-0.00872 12.03533,1.02232 17.40376,0.01424c5.61568,-1.05451 11.15149,-2.1539 16.77591,-3.09191c4.18767,-0.6984 8.19995,-2.92574 12.14003,-4.35864c2.34822,-0.85398 4.90306,-0.78807 7.31657,-1.39539c2.75093,-0.54897 5.41418,-1.32374 8.08282,-2.1909c1.07691,-0.34994 3.41822,-0.56337 2.99033,-1.61175c-0.39668,-0.9719 -1.80173,-1.40761 -2.60017,-1.79636c-2.51475,-1.22441 -5.04528,-2.14953 -7.85267,-2.48906c-11.54983,-1.39687 -23.63575,-0.74571 -35.12918,0.9814c-16.22981,1.61548 -32.60926,1.27067 -48.90059,2.25945c-5.08681,0.30874 -9.99815,1.2052 -15.12535,1.20729c-13.04339,-0.00861 -26.15163,-1.7956 -39.21441,-2.21844c-8.57779,-0.27766 -17.34438,1.4289 -25.88224,1.96091c-5.7676,1.15459 -11.41829,2.98973 -17.35097,3.35931c-7.01057,0.43673 -14.05539,0.34108 -21.05806,0.75674z" fill="#000000" stroke="none" stroke-width="0.5"/><path d="M83.64604,381.12011v-393.39019h489.33902v393.39019z" fill="none" stroke="#000000" stroke-width="0"/><path d="M83.64604,381.12012v-393.39019h489.33902v393.3902z" fill="none" stroke="#000000" stroke-width="0"/></g></g></svg>