<svg version="1.1" xmlns="http://www.w3.org/2000/svg" xmlns:xlink="http://www.w3.org/1999/xlink" width="2878.25006" height="1619.57958" viewBox="0,0,2878.25006,1619.57958"><g transform="translate(1117.37278,629.80931)"><g data-paper-data="{&quot;isPaintingLayer&quot;:true}" fill-rule="nonzero" stroke-linejoin="miter" stroke-miterlimit="10" stroke-dasharray="" stroke-dashoffset="0" style="mix-blend-mode: normal"><path d="M-1117.37278,989.77027v-1619.57958h2878.25006v1619.57958z" fill="none" stroke="#000000" stroke-width="0" stroke-linecap="butt"/><g><path d="M152.38694,105.82318c0.05003,-1.29289 0.21015,-2.59828 0.09077,-3.8688c-0.34241,-3.64434 -1.54874,-7.14867 -1.62956,-10.82213c-0.04047,-1.83965 0.37505,-4.13894 -0.1162,-5.92835c-0.22616,-0.82382 -0.6524,-1.64327 -0.59331,-2.48567c0.02601,-0.37082 0.37088,-2.65078 0.59995,-2.81503c0.6771,-0.4855 4.06228,-0.15284 4.99844,-0.15284c4.5,0 9,0 13.49999,0c10.42717,-0.00014 21.04045,0.44174 31.44342,-0.149c2.19885,-0.12446 3.58993,-0.76723 5.65462,-1.10731c2.79038,-0.45959 6.29553,-0.01225 9.15018,-0.01211c5.49636,0.00027 11.05781,-0.19012 16.54358,0.08369c0.66572,0.08815 1.53519,-0.13191 1.99716,0.26442c0.46199,0.39637 0.16439,1.08044 0.20325,1.62344c0.11446,1.59942 -0.00095,3.23524 -0.00349,4.83762c-0.0098,6.17603 -0.24361,12.06846 -1.61937,18.1458c-0.90418,3.99415 -2.20298,7.8215 -3.19669,11.79286c-1.1059,4.41972 -0.60493,9.0778 -3.40002,13.0646c-0.62919,0.89745 -1.74265,2.02144 -2.02949,3.04026c-0.53033,1.88366 0.05617,4.07011 -0.35759,6.00442c-0.25141,1.17531 -0.99562,2.29827 -1.20394,3.47726c-0.35005,1.98107 0.36851,4.15152 -0.29089,6.11237c-0.22374,0.66535 -1.0552,1.53903 -1.33314,2.20606c-0.56666,1.35991 -0.31242,2.17523 -1.56083,3.30791c0.39396,8.37794 0.83382,16.77392 0.8354,25.15843c0.00078,4.36305 -0.30846,8.90332 0.16244,13.24849c0.43492,4.01317 2.18496,7.96009 2.1994,11.99958c0.01371,8.46151 0.69061,16.82221 0.83979,25.31902c0.07868,4.48102 1.46398,8.62397 2.37302,13.02827c0.81484,3.94786 1.0045,8.02483 2.15746,11.9195c2.42994,8.23087 2.89263,16.75606 4.24833,25.15732c0.45903,1.8205 0.46816,5.35955 1.68805,6.89181c0.28046,0.35226 0.98721,0.41124 1.21251,0.78837c0.76842,1.28633 0.04717,3.61214 0.27851,5.02954c0.2599,1.59237 1.12984,3.12583 1.35633,4.72225c0.3364,2.3711 0.00486,4.93574 0.00486,7.32421c-0.00006,8.46478 -0.00066,16.92956 -0.00197,25.39434c-0.00093,6.04854 0.11481,12.11532 -0.16724,18.15962c-0.1215,2.60372 0.63198,5.56605 -2.43577,7.06734c-1.56014,0.69606 -4.86596,1.26406 -6.58595,0.36318c-0.40684,-0.21309 -0.27791,-0.81999 -0.68182,-1.03668c-0.991,-0.53162 -4.47211,0.14871 -5.79328,-0.12444c-0.98736,-0.20413 -3.77512,-0.40541 -4.56519,-0.76789c-0.42535,-0.19515 -0.37317,-0.7947 -0.79459,-0.99532c-0.75946,-0.36152 -1.76244,0.07227 -2.64442,0.07227c-3,0 -6,0 -8.99999,0.00001c-4.57857,0.00006 -8.84693,0.31154 -13.3652,0.63196c-5.91216,0.41927 -12.07402,-0.02276 -18.014,0.04157c-10.40794,1.04398 -21.02259,0.59523 -31.50621,0.59471c-3.16901,-0.00079 -5.91372,-0.31796 -8.99762,-0.63915c-3.93313,-0.40962 -8.06877,0.41278 -12.00324,-0.01111c-3.42331,-0.36882 -6.60226,-1.89965 -10.0893,-1.88659c-10.5,0 -21,0.00003 -31.5,-0.00001c-7.0016,-0.00003 -14.00428,0.02512 -21.0057,-0.01821c-2.02702,-0.01254 -6.58287,0.47363 -7.91703,-1.21696c-0.1314,-0.16651 -0.11982,-2.39224 -0.12211,-2.7224c-0.06882,-1.31039 0.18996,-3.35728 -0.51921,-4.56767c-0.22121,-0.37756 -0.82438,-0.56669 -0.99814,-0.96004c-0.8824,-1.99754 -0.03331,-5.30839 -0.13303,-7.44317c-0.19039,-4.07609 -1.48669,-7.86524 -1.48669,-11.99591c0.00001,-4.43394 0.0002,-8.86791 0.00106,-13.30185c0.00035,-1.78086 -0.6392,-4.58929 0.14527,-6.26254c0.86606,-1.84728 2.92593,-3.74732 4.85316,-4.91476c2.78183,-1.68212 5.66281,-3.30189 8.33546,-5.09646c1.14151,-0.76648 2.22234,-1.89511 3.57404,-2.42959c1.33134,-0.52643 3.03091,-0.53708 4.42388,-0.94697c3.70374,-1.08979 7.07725,-2.7926 10.25121,-4.63023c2.38584,-1.38069 4.5628,-3.40704 7.11831,-4.55023c2.15259,-0.96295 4.89078,-1.23828 7.16643,-2.00061c1.73767,-0.58212 4.00041,-0.87441 5.59789,-1.51372c0.46697,-0.18688 0.70772,-0.66598 1.19663,-0.8119c2.0656,-0.61649 5.39548,-0.47741 7.6333,-0.73203c3.12045,-0.14418 5.76243,-0.85939 8.78884,-1.20136c7.15609,-0.80859 15.84485,0.00056 22.89001,1.05905c1.50054,1.44197 4.3333,0.8375 6.61719,0.83786c5.58699,0.00088 10.98957,0.19468 16.5183,0.63925c1.22653,0.09861 2.60428,-0.02106 3.73873,0.28117c-0.63216,-5.84406 -1.49221,-11.59919 -1.65537,-17.47033c-0.07927,-2.8565 -0.75058,-5.57809 -0.75059,-8.41995c-0.00001,-5.50484 0.67986,-11.34449 -0.88549,-16.72376c-0.71502,-2.45716 -0.50314,-4.77969 -0.90757,-7.24756c-0.26092,-1.59216 -1.12428,-3.12489 -1.35668,-4.72066c-0.63229,-4.34163 -0.19859,-8.92919 -0.578,-13.31542c-0.41593,-4.80838 0.14436,-9.70022 -0.40454,-14.49055c-0.408,-3.56065 -1.53823,-7.16484 -2.29322,-10.69025c-1.33279,-8.41679 -3.57533,-16.67822 -4.83266,-25.09268c-1.24554,-8.33554 -0.74088,-17.08241 -0.24712,-25.46377c0.49213,-8.35358 -0.47895,-17.1747 1.08837,-25.41936c0.03274,-0.17224 0.06538,-0.34443 0.09791,-0.51661z" fill="#49555e" stroke="none" stroke-width="0.5" stroke-linecap="butt"/><path d="M456.77584,51.5025c0.06634,0.12084 0.09063,0.22346 0.09063,0.22346c2.11575,8.93644 10.08605,15.63433 16.06089,21.85003c7.48094,7.78254 14.88286,15.65009 22.30873,23.49117c4.23977,4.47685 9.1504,8.31072 13.1355,13.0546c2.88913,3.43924 4.99147,8.06032 8.43753,10.89197c4.66131,3.86206 10.52189,6.5882 14.93705,10.62875c1.49797,1.37087 2.30261,3.23201 4.14943,4.26861c2.23193,1.25275 5.72851,1.27717 5.8267,4.37093c5.35715,2.30384 8.77732,8.47084 14.62087,9.37483c1.61686,0.25012 4.60378,-0.33051 4.25809,2.68406c-0.07784,0.67879 -0.92891,0.95292 -1.39543,1.42711c-1.90741,1.93879 -3.66365,3.55531 -5.93384,5.00184c-1.6134,1.02803 -3.5969,1.94072 -5.04697,3.20578c-1.86625,1.62813 -3.24987,4.02371 -4.96362,5.83614c-2.07812,2.19776 -4.73002,3.96961 -6.64246,6.32372c-1.87538,2.30849 -3.30167,5.31567 -4.88602,7.86084c-5.7015,9.15855 -12.27968,18.24019 -19.5324,26.14653c-2.77031,3.00818 -4.35636,7.16988 -6.95357,10.22418c-0.99119,1.16564 -2.67928,1.63328 -3.71155,2.74594c-1.01033,1.08901 -1.52313,2.75166 -2.46704,3.91245c-2.25713,2.77575 -5.26155,5.14861 -7.7576,7.70409c-1.31267,0.84951 -6.57511,3.24045 -6.53016,5.16969c0.03139,1.34704 3.35799,2.43371 4.26712,2.97306c4.91775,2.91747 10.04825,4.24003 15.0715,6.72561c4.71175,2.33459 9.27208,3.82069 13.24045,7.63467c3.97211,3.81757 6.35671,9.71844 9.73822,14.14828c3.42106,4.48165 7.53049,8.71878 10.471,13.57194c1.39537,2.30297 1.77984,4.9682 2.95387,7.33414c0.3051,0.61485 1.56777,2.08227 1.77692,2.66679c0.49269,1.37693 0.28245,3.45067 0.30823,4.90792c1.78932,6.84182 0.85599,15.67401 -2.21554,22.08399c-1.64435,3.43159 -4.6746,5.91108 -7.53113,8.09324c-2.83692,2.16446 -5.15228,5.01935 -7.96033,7.20887c-5.65216,4.40711 -11.7562,8.10654 -17.39174,12.59626c-2.80879,1.01754 -5.869,1.76905 -8.57586,3.05129c-3.18245,1.50753 -6.01455,3.81717 -9.23722,5.28705c-3.70456,1.68968 -7.64553,2.48661 -11.34709,4.06613c-2.69453,1.03918 -6.26145,-0.89435 -9.01979,-1.8457c-7.29212,-2.5151 -14.61344,-3.8651 -21.11625,-8.42996c-2.3925,-1.68181 -4.82361,-3.88886 -7.40296,-5.21657c-1.68124,-0.86539 -4.37965,-0.84445 -5.83825,-2.08332c-1.1096,-0.94245 -1.5066,-3.04303 -2.40555,-4.20258c-2.4061,-3.1036 -5.5576,-6.18773 -8.24147,-9.08148c-3.05865,-3.29977 -6.06331,-7.04288 -9.71917,-9.63013c-4.82543,-3.41496 -10.10652,-7.13959 -13.79262,-11.92852c-2.11542,-0.59764 -5.09583,-1.68049 -6.86655,-3.06746c-1.18609,-0.92903 -1.64947,-2.80787 -2.77572,-3.7914c-2.90745,-2.53901 -7.16517,-3.99701 -10.31415,-6.27527c-2.04486,-1.47945 -3.78914,-3.69838 -5.55159,-5.52559c-3.61263,-3.74541 -6.32992,-8.13603 -9.52812,-12.26909c-1.15185,-1.48853 -2.59153,-2.29417 -2.38341,-4.50841c0.32837,-3.4938 5.69368,-7.53915 7.92572,-9.89333c3.72515,-6.92138 8.99872,-12.85909 15.10997,-17.61862c2.44571,-1.90476 4.97308,-3.25876 7.22745,-5.45448c0.99284,-0.967 2.27764,-2.70629 3.4748,-3.34469c0.89469,-0.4771 2.07809,0.05107 2.98227,-0.40566c1.41078,-0.71261 2.7285,-3.39117 4.00045,-4.48002c2.8204,-2.41436 6.38273,-3.15619 9.328,-5.19647c1.9761,-1.36891 3.72646,-3.5697 5.54921,-5.18595c2.54836,-2.25965 6.12158,-3.8491 8.21364,-6.59919c2.07854,-2.73231 3.52876,-6.45567 5.17893,-9.50192c1.75575,-3.24115 3.79666,-5.98897 4.97516,-9.52968c0.33404,-0.99303 0.32014,-2.09456 0.67173,-3.08081c1.20673,-3.385 4.52034,-5.90933 5.87922,-9.23162c0.22259,-0.54419 0.08226,-1.25032 0.42316,-1.72129c0.66676,-0.92114 2.22847,-1.45976 2.15619,-3.15596c-0.03893,-0.91363 -1.02776,-1.47243 -1.53578,-2.21314c-1.76399,-2.572 -3.78241,-4.7308 -5.88703,-6.996c-2.72072,-2.88197 -5.35485,-6.41555 -8.40271,-8.89737c-1.54435,-1.25754 -3.50509,-2.02528 -5.13644,-3.1589c-3.91732,-2.72216 -7.07632,-5.88424 -10.19839,-9.53778c-2.20774,-2.61036 -5.69923,-4.19584 -8.47967,-6.08937c-6.05786,-4.12551 -11.71313,-8.1074 -16.5819,-13.73651c-2.35875,-2.73034 -5.30315,-4.83938 -7.68376,-7.53528c-4.73482,-5.36188 -8.04838,-12.45745 -11.41042,-18.7999c-2.96417,-5.59186 -6.21011,-10.54239 -10.1396,-15.44334c-2.78601,-3.47478 -6.7416,-7.21327 -8.31342,-11.46992c-0.48634,-1.33954 -0.85349,-3.08476 -1.55311,-4.31186c-1.28189,-2.24842 -5.57441,-5.57824 -4.16534,-8.88285c0.44498,-1.04358 3.35201,-2.32747 4.33019,-2.72843c4.17133,-1.70985 8.88415,-2.44489 13.23464,-3.49788c2.36606,-0.31466 5.07842,-0.29886 7.37288,-0.96823c0.96958,-0.28287 1.78764,-1.02216 2.76334,-1.28046c2.40911,-0.63783 5.14567,-0.24283 7.60064,-0.47356c4.41035,-0.41452 8.78106,-1.59799 12.92627,-3.1541c4.99603,-1.87551 9.69368,-1.5493 14.81516,-2.56388c5.32415,-1.05472 10.55138,-3.38174 15.81393,-4.78891c7.90549,-2.11388 15.60819,-3.4967 23.6095,-4.45648c2.864,-0.34355 4.63677,-2.26982 7.52555,-2.31493c0.46124,1.46546 0.97171,2.36371 0.66392,3.9306c-0.43071,2.19264 -2.25938,3.27623 -2.32403,5.56115c-0.07697,2.72047 0.75179,4.98337 1.44209,7.31653z" fill="#49555e" stroke="none" stroke-width="0.5" stroke-linecap="butt"/><g><path d="M3.23913,140.75383l6.68247,-83.62839l7.81949,1.14762l90.21802,8.41895l22.3337,1.74981l7.07992,-84.59432l217.45031,21.62937l20.04395,-12.50585l66.75596,7.23254l-3.13589,26.11969l74.39756,8.61429l-6.3288,64.27008l5.59949,1.19118l128.97547,10.02973l-7.68197,95.57114l-315.46424,-29.10414l-20.81214,-13.30948l-172.52428,-17.43696l-24.6504,6.97657l-44.71709,-3.39396l-25.04823,-5.82037z" fill="#4e586a" stroke="#000000" stroke-width="1" stroke-linecap="round"/><path d="M38.2055,59.81304l-8.10851,83.66283l-27.23371,-2.93088l7.12076,-82.87867z" data-paper-data="{&quot;origPos&quot;:[&quot;Point&quot;,59.24409,105.08161]}" fill="#515054" stroke="#000000" stroke-width="1" stroke-linecap="round"/><path d="M61.16162,63.17236l-6.43471,63.66351l-9.49949,-1.08122l8.03313,-62.93014z" data-paper-data="{&quot;origPos&quot;:[&quot;Point&quot;,128.51413,117.10689]}" fill="#191e21" stroke="#000000" stroke-width="1" stroke-linecap="round"/><path d="M65.02816,129.35511l5.60571,-62.57244l33.24016,3.88088l-6.07893,59.41245z" data-paper-data="{&quot;origPos&quot;:[&quot;Point&quot;,187.7568,144.37892]}" fill="#191e21" stroke="#000000" stroke-width="1" stroke-linecap="round"/><path d="M110.01315,127.32135l4.53412,-58.58291l11.28092,1.83168l-4.77072,57.00291z" data-paper-data="{&quot;origPos&quot;:[&quot;Point&quot;,255.6755,166.55878]}" fill="#191e21" stroke="#000000" stroke-width="1" stroke-linecap="round"/><path d="M129.74583,68.45278l-132.83723,-12.59083l-3.66411,-9.10519l138.82719,12.56561z" data-paper-data="{&quot;origPos&quot;:[&quot;Point&quot;,174.03905,51.35519]}" fill="#f1f2f4" stroke="#000000" stroke-width="1" stroke-linecap="round"/><path d="M248.28041,-5.87903l-14.19407,162.98675l-109.04805,-10.37088l12.15687,-162.88477z" data-paper-data="{&quot;origPos&quot;:[&quot;Point&quot;,412.01868,159.75407]}" fill="#515054" stroke="#000000" stroke-width="1" stroke-linecap="round"/><path d="M151.33678,149.82388l12.59391,-150.47804l57.5945,5.95881l-12.68391,149.34988z" data-paper-data="{&quot;origPos&quot;:[&quot;Point&quot;,406.99296,172.66258]}" fill="#292e39" stroke="#000000" stroke-width="1" stroke-linecap="round"/><path d="M165.50259,79.72515l41.95407,3.33085l-4.14686,60.56644l-45.50073,-5.02499z" data-paper-data="{&quot;origPos&quot;:[&quot;Point&quot;,378.07326,237.29121]}" fill="#69655b" stroke="#000000" stroke-width="1" stroke-linecap="round"/><path d="M170.50542,141.14541l5.8423,-60.99242l22.19075,1.48657l-6.78963,61.29352z" data-paper-data="{&quot;origPos&quot;:[&quot;Point&quot;,381.50619,236.80049]}" fill="#121214" stroke="#000000" stroke-width="1" stroke-linecap="round"/><path d="M171.30659,23.59759l6.89504,-3.05663l11.85203,-2.78879l7.07206,1.43892l9.50461,3.22385l5.66683,5.0078l-5.30778,47.99482l-40.12412,-3.16009z" data-paper-data="{&quot;origPos&quot;:[&quot;Point&quot;,431.0663,121.64691]}" fill="#69655b" stroke="#000000" stroke-width="1" stroke-linecap="round"/><path d="M246.63815,81.50305l50.72159,4.34373l-4.67282,49.22248l-52.03489,-4.07682z" data-paper-data="{&quot;origPos&quot;:[&quot;Point&quot;,553.13113,288.46675]}" fill="#191e21" stroke="#000000" stroke-width="1" stroke-linecap="round"/><path d="M313.85815,174.62963l8.13472,-109.3173l5.71108,16.59892l28.84322,1.32843l-8.11428,96.95326l-30.92592,-2.88594z" data-paper-data="{&quot;origPos&quot;:[&quot;Point&quot;,672.98512,360.29152]}" fill="#515054" stroke="#000000" stroke-width="1" stroke-linecap="round"/><path d="M641.70472,109.53467l-9.00903,96.62635l-30.02713,-2.60734l9.34075,-96.18266z" data-paper-data="{&quot;origPos&quot;:[&quot;Point&quot;,1231.84396,619.06553]}" fill="#515054" stroke="#000000" stroke-width="1" stroke-linecap="round"/><path d="M602.84749,203.61907l-90.73252,-8.85644l6.18472,-76.10145l10.78728,-9.89876l73.5958,6.47831l6.76393,11.73134z" data-paper-data="{&quot;origPos&quot;:[&quot;Point&quot;,1105.71712,579.86303]}" fill="#c5b6a0" stroke="#000000" stroke-width="1" stroke-linecap="round"/><path d="M514.95415,194.44335l6.95946,-73.78968l8.18196,-7.41554l63.39114,6.1103l6.85586,8.42935l-6.04321,74.4107z" data-paper-data="{&quot;origPos&quot;:[&quot;Point&quot;,1099.26852,580.21194]}" fill="#9da0a7" stroke="#000000" stroke-width="1" stroke-linecap="round"/><path d="M347.3009,179.72329l7.56269,-77.14133l9.01097,-8.50661l139.84228,12.07611l8.69089,10.74274l-6.30194,77.50239z" data-paper-data="{&quot;origPos&quot;:[&quot;Point&quot;,850.73319,468.59816]}" fill="#c5b6a0" stroke="#000000" stroke-width="1" stroke-linecap="round"/><path d="M350.96608,180.55216l6.11194,-75.23194l6.47034,-6.79629l134.2018,11.16026l6.80736,9.00903l-6.669,75.27733z" data-paper-data="{&quot;origPos&quot;:[&quot;Point&quot;,845.68849,469.53755]}" fill="#9da0a7" stroke="#000000" stroke-width="1" stroke-linecap="round"/><path d="M664.88297,111.89236l-337.6612,-29.95195l-19.19036,-61.57579l1.63163,-6.27413l19.70191,59.87086l341.48235,31.67171z" data-paper-data="{&quot;origPos&quot;:[&quot;Point&quot;,1024.60792,349.36551]}" fill="#f1f2f4" stroke="#000000" stroke-width="1" stroke-linecap="round"/><path d="M438.88682,21.37826l96.95429,9.43707l-7.93428,6.65968l-89.2575,-11.05568z" data-paper-data="{&quot;origPos&quot;:[&quot;Point&quot;,1042.63553,282.88868]}" fill="#f1f2f4" stroke="#000000" stroke-width="1" stroke-linecap="round"/><path d="M436.87084,54.83138l2.34493,-28.01839l68.22757,64.00971l-177.8509,-17.37566l-20.19728,-58.35917l49.00996,4.963l11.67579,27.96358l66.545,6.9888l5.05692,-53.8117z" data-paper-data="{&quot;origPos&quot;:[&quot;Point&quot;,868.70236,276.97838]}" fill="#aaaaa8" stroke="#000000" stroke-width="1" stroke-linecap="round"/><path d="M383.26018,0.16999l47.57834,4.43992l-2.76626,39.66343l-47.0617,-4.00222z" data-paper-data="{&quot;origPos&quot;:[&quot;Point&quot;,883.22152,216.64692]}" fill="#191e21" stroke="#000000" stroke-width="1" stroke-linecap="round"/><path d="M361.88651,6.54926l-235.44814,-22.75049l-6.77499,-9.3955l229.87239,21.06174l15.78771,-12.35322l100.65161,11.53472l-4.53827,7.9503l-86.82496,-9.27076z" data-paper-data="{&quot;origPos&quot;:[&quot;Point&quot;,680.26883,74.69009]}" fill="#f1f2f4" stroke="#000000" stroke-width="1" stroke-linecap="round"/><path d="M366.21023,105.80689l131.36252,9.89626l-0.98084,11.71953l-132.63241,-11.73275l0.04882,-10.30329z" data-paper-data="{&quot;origPos&quot;:[&quot;Point&quot;,873.43827,412.47927]}" fill="#252627" stroke="#000000" stroke-width="1" stroke-linecap="round"/><path d="M529.33142,120.17006l63.95097,6.18251l-0.87946,8.07831l-64.13494,-6.41446z" data-paper-data="{&quot;origPos&quot;:[&quot;Point&quot;,1127.26435,521.45235]}" fill="#252627" stroke="#000000" stroke-width="1" stroke-linecap="round"/><path d="M249.66947,16.92513c-0.11174,-0.04269 -0.22842,-0.11184 -0.34837,-0.2155c-0.80161,-0.69243 -0.14582,-1.53881 -0.14582,-1.53881c2.72687,-3.45764 11.94696,-5.84538 16.04219,-3.90638c3.70002,1.75187 6.13486,5.65648 8.2707,9.05442c0.69916,3.07042 1.40427,6.86401 0.3956,9.94839c-3.3047,10.1052 -15.66284,10.34973 -22.55934,4.64616c-3.63091,-5.75353 -5.01338,-12.36416 -1.65492,-17.98826z" data-paper-data="{&quot;index&quot;:null}" fill="#ffffff" stroke="none" stroke-width="0.5" stroke-linecap="butt"/><path d="M282.13717,17.57241c-0.31123,-0.6133 0.17089,-1.19615 0.17089,-1.19615c2.38643,-2.72636 5.26724,-1.9459 8.49708,-2.07472c9.5861,-0.38226 15.27198,4.91595 14.30803,15.35101c-0.63277,3.65233 -1.13835,8.37725 -3.47285,11.34589c-4.86404,6.18534 -16.06204,3.92049 -19.45214,-2.9043c-0.88022,-1.7721 -1.20365,-4.11131 -1.57725,-6.0469c-0.7144,-4.05318 -1.23195,-10.78386 1.52624,-14.47486z" data-paper-data="{&quot;index&quot;:null}" fill="#ffffff" stroke="none" stroke-width="0.5" stroke-linecap="butt"/><path d="M269.02632,24.73252c0.11152,-1.20213 1.12484,-2.08124 2.26334,-1.96347c1.13845,0.11778 1.97099,1.18777 1.85945,2.38995c-0.11152,1.20213 -1.12483,2.08124 -2.26335,1.96347c-1.13845,-0.11778 -1.97099,-1.18777 -1.85946,-2.38995z" data-paper-data="{&quot;index&quot;:null}" fill="#000000" stroke="none" stroke-width="0.5" stroke-linecap="butt"/><path d="M299.83244,28.31243c0.11152,-1.20213 1.12483,-2.08124 2.26334,-1.96347c1.13845,0.11778 1.97098,1.18777 1.85945,2.38996c-0.11152,1.20213 -1.12483,2.08124 -2.26334,1.96347c-1.13845,-0.11778 -1.97099,-1.18778 -1.85945,-2.38996z" data-paper-data="{&quot;index&quot;:null}" fill="#000000" stroke="none" stroke-width="0.5" stroke-linecap="butt"/><path d="M240.1426,-17.47932c0.42173,-0.99879 1.36759,-0.55347 1.36759,-0.55347l0.81308,0.46512c2.06062,2.21159 4.54291,3.65555 6.78878,5.61369c8.53068,7.45907 16.11655,16.15135 24.68329,23.51946c0,0 0.80161,0.69243 0.14581,1.53881c-0.65575,0.84645 -1.45731,0.15396 -1.45731,0.15396c-8.54511,-7.41 -16.15653,-16.06376 -24.69286,-23.52774c-2.29456,-2.01242 -4.8238,-3.49859 -6.94254,-5.76259l-0.18172,-0.00323c0,0 -0.94589,-0.44532 -0.52415,-1.44409z" data-paper-data="{&quot;index&quot;:null}" fill="#ffffff" stroke="none" stroke-width="0.5" stroke-linecap="butt"/><path d="M331.52181,-11.82511c0.37062,1.02111 -0.5964,1.41249 -0.5964,1.41249l-0.57289,0.21751c-5.1685,3.12893 -10.75447,5.4908 -16.45526,7.26765c-10.91263,3.39317 -21.12973,10.61787 -31.60716,15.41916c0,0 -0.95001,0.43536 -1.3623,-0.56783c-0.41229,-1.00317 0.53773,-1.43851 0.53773,-1.43851c10.56261,-4.84026 20.84323,-12.08507 31.8463,-15.51074c5.5415,-1.72137 10.99452,-4.00024 16.00686,-7.06492l0.8655,-0.36461c0,0 0.96702,-0.39134 1.33765,0.62977z" data-paper-data="{&quot;index&quot;:null}" fill="#ffffff" stroke="none" stroke-width="0.5" stroke-linecap="butt"/><path d="M304.9465,46.52201c0.80249,1.962 1.28511,4.04377 2.3077,5.93741c0.97252,1.80092 2.87179,3.60723 3.07878,5.77464c0.38064,3.98562 -3.01049,9.20011 -4.82876,12.43741c-2.07634,2.95031 -3.48912,6.77287 -6.04638,9.31001c-4.78887,4.75119 -10.65813,4.33524 -16.74244,4.65609c-6.3555,0.33447 -12.72887,-0.13454 -18.98717,-1.28482c-3.54689,-0.65193 -7.79388,-1.22442 -10.84205,-3.2794c-8.67366,-4.7256 -11.23347,-16.73423 -11.27919,-26.16035c0.40715,-4.97882 2.13126,-9.67787 4.37745,-14.09776c0.3047,-0.59958 1.40645,-4.31547 2.34086,-4.22264c3.0122,0.29927 3.99984,7.60343 5.28475,9.81203c4.83332,8.17908 16.92498,10.64799 25.33673,10.00878c4.01028,-0.36239 9.59535,-0.15358 13.12928,-2.50235c3.75225,-2.49387 5.73301,-6.46725 9.83276,-8.63121c1.62784,-0.20229 2.25789,-0.54442 3.04785,1.10254l0.08458,0.0467c0,0 0.45543,0.60214 -0.09473,1.09287zM302.93463,45.66627c-0.18264,0.0492 -0.38896,0.11023 -0.59422,0.13055c-3.82376,2.17121 -5.84487,6.09528 -9.45854,8.45022c-3.82548,2.49296 -9.48542,2.34907 -13.81689,2.74538c-8.99831,0.68406 -21.57156,-2.06106 -26.73124,-10.75561c-1.55407,-2.7101 -1.82051,-6.65279 -3.78712,-9.07764c-0.46403,-0.57215 -0.22926,1.50219 -0.50958,2.19489c-0.44152,1.09108 -1.11163,2.17002 -1.58284,3.27625c-1.63534,3.83913 -2.9989,7.12337 -3.34845,11.34684c0.05184,8.87651 2.3605,20.26038 10.53359,24.72644c2.8448,1.98092 7.00291,2.47419 10.34726,3.08893c6.14851,1.13019 12.40969,1.59306 18.65398,1.26311c5.72359,-0.30181 11.25938,0.19698 15.78769,-4.22604c2.47143,-2.41396 3.83191,-6.20594 5.82699,-9.03531c1.61696,-2.89235 4.91572,-7.84091 4.58511,-11.40312c-0.16993,-1.831 -2.06462,-3.62016 -2.88922,-5.14715c-1.25867,-2.33082 -1.6938,-4.95731 -2.92357,-7.27001c0,0 -0.06841,-0.12952 -0.09295,-0.30772z" fill="#ffffff" stroke="none" stroke-width="0.5" stroke-linecap="butt"/><path d="M303.07153,45.94881c1.22977,2.31272 1.66929,4.95085 2.92796,7.28167c0.8246,1.52699 2.72073,3.32462 2.89066,5.15564c0.33061,3.56221 -2.96957,8.52927 -4.58653,11.42162c-1.99508,2.82938 -3.36299,6.63826 -5.83442,9.05222c-4.52831,4.42301 -10.08818,3.9436 -15.81177,4.24543c-6.24429,0.32994 -12.54817,-0.13744 -18.69668,-1.26765c-3.34435,-0.61474 -7.51689,-1.12194 -10.36169,-3.10285c-8.17309,-4.46606 -10.4902,-15.89297 -10.54204,-24.76948c0.34955,-4.22347 1.71947,-7.52396 3.35481,-11.36307c0.47121,-1.10622 1.14419,-2.18952 1.58571,-3.28058c0.28032,-0.69271 0.12282,-2.7001 0.58686,-2.12795c1.96661,2.42485 2.23745,6.36132 3.79151,9.07143c5.15967,8.69456 17.722,11.37007 26.72031,10.68601c4.33147,-0.39631 9.91391,-0.19118 13.73938,-2.68415c3.61367,-2.35493 5.63748,-6.2731 9.46124,-8.44431c0.20527,-0.02033 0.49887,-0.13286 0.68151,-0.18207c0.02454,0.17819 0.09318,0.30816 0.09318,0.30816z" data-paper-data="{&quot;noHover&quot;:false,&quot;origItem&quot;:[&quot;Path&quot;,{&quot;applyMatrix&quot;:true,&quot;segments&quot;:[[[302.93463,162.43402],[0.02454,0.11212],[-0.18264,0.03096]],[[302.34041,162.51615],[0.20527,-0.01279],[-3.82376,1.36606]],[[292.88187,167.83276],[3.61367,-1.48165],[-3.82548,1.56849]],[[279.06498,169.56007],[4.33147,-0.24935],[-8.99831,0.43039]],[[252.33375,162.79298],[5.15967,5.47034],[-1.55407,-1.70511]],[[248.54663,157.08163],[1.96661,1.52564],[-0.46403,-0.35998]],[[248.03705,158.46259],[0.28032,-0.43583],[-0.44152,0.68647]],[[246.4542,160.5239],[0.47121,-0.696],[-1.63534,2.41546]],[[243.10575,167.66297],[0.34955,-2.65727],[0.05184,5.58482]],[[253.63934,183.22006],[-8.17309,-2.8099],[2.8448,1.24633]],[[263.9866,185.16352],[-3.34435,-0.38678],[6.14851,0.71108]],[[282.64058,185.95823],[-6.24429,0.20758],[5.72359,-0.18989]],[[298.42827,183.29934],[-4.52831,2.78282],[2.47143,-1.51879]],[[304.25526,177.61461],[-1.99508,1.78016],[1.61696,-1.81978]],[[308.84038,170.44012],[0.33061,2.24123],[-0.16993,-1.15201]],[[305.95115,167.20169],[0.8246,0.96074],[-1.25867,-1.46648]],[[303.02758,162.62763],[1.22977,1.45508],[0,0]]],&quot;closed&quot;:true}]}" fill="#600000" stroke="none" stroke-width="0.5" stroke-linecap="butt"/></g></g></g></g></svg>