<svg version="1.1" xmlns="http://www.w3.org/2000/svg" xmlns:xlink="http://www.w3.org/1999/xlink" width="2878.25006" height="1619.57958" viewBox="0,0,2878.25006,1619.57958"><g transform="translate(1117.37278,629.80931)"><g data-paper-data="{&quot;isPaintingLayer&quot;:true}" fill-rule="nonzero" stroke-linejoin="miter" stroke-miterlimit="10" stroke-dasharray="" stroke-dashoffset="0" style="mix-blend-mode: normal"><path d="M-1117.37278,989.77027v-1619.57958h2878.25006v1619.57958z" fill="none" stroke="#000000" stroke-width="0" stroke-linecap="butt"/><g><path d="M152.38694,130.21661c0.05003,-1.16908 0.21015,-2.34946 0.09077,-3.49831c-0.34241,-3.29534 -1.54874,-6.46408 -1.62956,-9.78576c-0.04047,-1.66348 0.37505,-3.74258 -0.1162,-5.36063c-0.22616,-0.74493 -0.6524,-1.4859 -0.59331,-2.24763c0.02601,-0.33531 0.37088,-2.39693 0.59995,-2.54545c0.6771,-0.43901 4.06228,-0.1382 4.99844,-0.1382c4.5,0 9,0 13.49999,0c10.42717,-0.00013 21.04045,0.39944 31.44342,-0.13473c2.19885,-0.11254 3.58993,-0.69376 5.65462,-1.00127c2.79038,-0.41558 6.29553,-0.01108 9.15018,-0.01095c5.49636,0.00024 11.05781,-0.17191 16.54358,0.07568c0.66572,0.07971 1.53519,-0.11928 1.99716,0.2391c0.46199,0.35841 0.16439,0.97697 0.20325,1.46797c0.11446,1.44625 -0.00095,2.92542 -0.00349,4.37435c-0.0098,5.58459 -0.24361,10.91273 -1.61937,16.40808c-0.90418,3.61165 -2.20298,7.07248 -3.19669,10.66353c-1.1059,3.99647 -0.60493,8.20847 -3.40002,11.81348c-0.62919,0.81151 -1.74265,1.82786 -2.02949,2.74911c-0.53033,1.70327 0.05617,3.68034 -0.35759,5.42941c-0.25141,1.06276 -0.99562,2.07818 -1.20394,3.14426c-0.35005,1.79135 0.36851,3.75395 -0.29089,5.52702c-0.22374,0.60163 -1.0552,1.39165 -1.33314,1.9948c-0.56666,1.22968 -0.31242,1.96692 -1.56083,2.99113c0.39396,7.57563 0.83382,15.16758 0.8354,22.74915c0.00078,3.94523 -0.30846,8.0507 0.16244,11.97976c0.43492,3.62885 2.18496,7.1978 2.1994,10.85045c0.01371,7.6512 0.69061,15.21124 0.83979,22.89436c0.07868,4.0519 1.46398,7.7981 2.37302,11.78063c0.81484,3.5698 1.0045,7.25634 2.15746,10.77804c2.42994,7.44265 2.89263,15.15143 4.24833,22.74815c0.45903,1.64616 0.46816,4.8463 1.68805,6.23182c0.28046,0.31853 0.98721,0.37186 1.21251,0.71287c0.76842,1.16315 0.04717,3.26623 0.27851,4.54789c0.2599,1.43988 1.12984,2.82649 1.35633,4.27003c0.3364,2.14403 0.00486,4.46307 0.00486,6.62281c-0.00006,7.65416 -0.00066,15.30831 -0.00197,22.96247c-0.00093,5.46931 0.11481,10.95511 -0.16724,16.42058c-0.1215,2.35438 0.63198,5.03302 -2.43577,6.39054c-1.56014,0.6294 -4.86596,1.14301 -6.58595,0.3284c-0.40684,-0.19268 -0.27791,-0.74146 -0.68182,-0.9374c-0.991,-0.48071 -4.47211,0.13447 -5.79328,-0.11252c-0.98736,-0.18458 -3.77512,-0.36659 -4.56519,-0.69435c-0.42535,-0.17646 -0.37317,-0.7186 -0.79459,-0.9c-0.75946,-0.3269 -1.76244,0.06535 -2.64442,0.06535c-3,0 -6,0 -8.99999,0.00001c-4.57857,0.00005 -8.84693,0.28171 -13.3652,0.57144c-5.91216,0.37912 -12.07402,-0.02058 -18.014,0.03759c-10.40794,0.944 -21.02259,0.53823 -31.50621,0.53776c-3.16901,-0.00071 -5.91372,-0.28751 -8.99762,-0.57794c-3.93313,-0.37039 -8.06877,0.37325 -12.00324,-0.01005c-3.42331,-0.3335 -6.60226,-1.71773 -10.0893,-1.70592c-10.5,0 -21,0.00003 -31.5,-0.00001c-7.0016,-0.00003 -14.00428,0.02271 -21.0057,-0.01647c-2.02702,-0.01134 -6.58287,0.42827 -7.91703,-1.10042c-0.1314,-0.15056 -0.11982,-2.16315 -0.12211,-2.46169c-0.06882,-1.1849 0.18996,-3.03577 -0.51921,-4.13025c-0.22121,-0.3414 -0.82438,-0.51242 -0.99814,-0.8681c-0.8824,-1.80625 -0.03331,-4.80004 -0.13303,-6.73038c-0.19039,-3.68575 -1.48669,-7.11203 -1.48669,-10.84713c0.00001,-4.00933 0.0002,-8.01868 0.00106,-12.02801c0.00035,-1.61032 -0.6392,-4.1498 0.14527,-5.66281c0.86606,-1.67038 2.92593,-3.38846 4.85316,-4.4441c2.78183,-1.52103 5.66281,-2.98569 8.33546,-4.6084c1.14151,-0.69308 2.22234,-1.71363 3.57404,-2.19692c1.33134,-0.47602 3.03091,-0.48565 4.42388,-0.85628c3.70374,-0.98543 7.07725,-2.52517 10.25121,-4.18682c2.38584,-1.24847 4.5628,-3.08077 7.11831,-4.11448c2.15259,-0.87073 4.89078,-1.1197 7.16643,-1.80902c1.73767,-0.52637 4.00041,-0.79067 5.59789,-1.36876c0.46697,-0.16898 0.70772,-0.6022 1.19663,-0.73415c2.0656,-0.55745 5.39548,-0.43169 7.6333,-0.66193c3.12045,-0.13037 5.76243,-0.77709 8.78884,-1.08631c7.15609,-0.73116 15.84485,0.00051 22.89001,0.95763c1.50054,1.30388 4.3333,0.7573 6.61719,0.75762c5.58699,0.0008 10.98957,0.17604 16.5183,0.57803c1.22653,0.08917 2.60428,-0.01904 3.73873,0.25424c-0.63216,-5.28441 -1.49221,-10.4884 -1.65537,-15.7973c-0.07927,-2.58295 -0.75058,-5.04391 -0.75059,-7.61362c-0.00001,-4.97767 0.67986,-10.25809 -0.88549,-15.12222c-0.71502,-2.22185 -0.50314,-4.32197 -0.90757,-6.5535c-0.26092,-1.43969 -1.12428,-2.82564 -1.35668,-4.26859c-0.63229,-3.92586 -0.19859,-8.07409 -0.578,-12.04028c-0.41593,-4.34791 0.14436,-8.77129 -0.40454,-13.10287c-0.408,-3.21967 -1.53823,-6.4787 -2.29322,-9.66651c-1.33279,-7.61076 -3.57533,-15.08104 -4.83266,-22.6897c-1.24554,-7.53729 -0.74088,-15.44653 -0.24712,-23.02525c0.49213,-7.55361 -0.47895,-15.52998 1.08837,-22.98509c0.03274,-0.15575 0.06538,-0.31145 0.09791,-0.46714z" fill="#49555e" stroke="none" stroke-width="0.5" stroke-linecap="butt"/><path d="M456.77584,81.09791c0.06634,0.10927 0.09063,0.20206 0.09063,0.20206c2.11575,8.08065 10.08605,14.13712 16.06089,19.75758c7.48094,7.03725 14.88286,14.15137 22.30873,21.24156c4.23977,4.04813 9.1504,7.51485 13.1355,11.80444c2.88913,3.10988 4.99147,7.28843 8.43753,9.84891c4.66131,3.49221 10.52189,5.95729 14.93705,9.6109c1.49797,1.23959 2.30261,2.9225 4.14943,3.85983c2.23193,1.13278 5.72851,1.15486 5.8267,3.95235c5.35715,2.08321 8.77732,7.65964 14.62087,8.47706c1.61686,0.22617 4.60378,-0.29886 4.25809,2.42702c-0.07784,0.61379 -0.92891,0.86166 -1.39543,1.29044c-1.90741,1.75312 -3.66365,3.21484 -5.93384,4.52284c-1.6134,0.92958 -3.5969,1.75487 -5.04697,2.89878c-1.86625,1.47221 -3.24987,3.63838 -4.96362,5.27725c-2.07812,1.98729 -4.73002,3.58946 -6.64246,5.71813c-1.87538,2.08742 -3.30167,4.80662 -4.88602,7.10805c-5.7015,8.28149 -12.27968,16.49343 -19.5324,23.64263c-2.77031,2.7201 -4.35636,6.48326 -6.95357,9.24507c-0.99119,1.05401 -2.67928,1.47687 -3.71155,2.48298c-1.01033,0.98472 -1.52313,2.48815 -2.46704,3.53778c-2.25713,2.50993 -5.26155,4.65556 -7.7576,6.96631c-1.31267,0.76816 -6.57511,2.93013 -6.53016,4.67462c0.03139,1.21804 3.35799,2.20065 4.26712,2.68835c4.91775,2.63808 10.04825,3.83399 15.0715,6.08154c4.71175,2.11102 9.27208,3.4548 13.24045,6.90354c3.97211,3.45198 6.35671,8.78776 9.73822,12.79338c3.42106,4.05247 7.53049,7.88383 10.471,12.27223c1.39537,2.08243 1.77984,4.49242 2.95387,6.63179c0.3051,0.55597 1.56777,1.88286 1.77692,2.41141c0.49269,1.24507 0.28245,3.12022 0.30823,4.43792c1.78932,6.18662 0.85599,14.173 -2.21554,19.96913c-1.64435,3.10297 -4.6746,5.34501 -7.53113,7.3182c-2.83692,1.95718 -5.15228,4.53868 -7.96033,6.51852c-5.65216,3.98507 -11.7562,7.33022 -17.39174,11.38999c-2.80879,0.9201 -5.869,1.59964 -8.57586,2.75909c-3.18245,1.36316 -6.01455,3.45162 -9.23722,4.78074c-3.70456,1.52787 -7.64553,2.24848 -11.34709,3.67674c-2.69453,0.93966 -6.26145,-0.8087 -9.01979,-1.66895c-7.29212,-2.27424 -14.61344,-3.49496 -21.11625,-7.62267c-2.3925,-1.52075 -4.82361,-3.51645 -7.40296,-4.71701c-1.68124,-0.78252 -4.37965,-0.76358 -5.83825,-1.88381c-1.1096,-0.8522 -1.5066,-2.75162 -2.40555,-3.80012c-2.4061,-2.80639 -5.5576,-5.59517 -8.24147,-8.2118c-3.05865,-2.98377 -6.06331,-6.36842 -9.71917,-8.70791c-4.82543,-3.08793 -10.10652,-6.45587 -13.79262,-10.78619c-2.11542,-0.54041 -5.09583,-1.51956 -6.86655,-2.77371c-1.18609,-0.84006 -1.64947,-2.53898 -2.77572,-3.42832c-2.90745,-2.29586 -7.16517,-3.61424 -10.31415,-5.67432c-2.04486,-1.33777 -3.78914,-3.34421 -5.55159,-4.99644c-3.61263,-3.38673 -6.32992,-7.35689 -9.52812,-11.09415c-1.15185,-1.34598 -2.59153,-2.07447 -2.38341,-4.07667c0.32837,-3.15922 5.69368,-6.81717 7.92572,-8.9459c3.72515,-6.25856 8.99872,-11.62765 15.10997,-15.93139c2.44571,-1.72235 4.97308,-2.94669 7.22745,-4.93214c0.99284,-0.8744 2.27764,-2.44712 3.4748,-3.02439c0.89469,-0.43141 2.07809,0.04618 2.98227,-0.36681c1.41078,-0.64437 2.7285,-3.06642 4.00045,-4.05099c2.8204,-2.18315 6.38273,-2.85394 9.328,-4.69883c1.9761,-1.23782 3.72646,-3.22785 5.54921,-4.68932c2.54836,-2.04326 6.12158,-3.48049 8.21364,-5.96722c2.07854,-2.47065 3.52876,-5.83745 5.17893,-8.59198c1.75575,-2.93076 3.79666,-5.41544 4.97516,-8.61708c0.33404,-0.89793 0.32014,-1.89398 0.67173,-2.78578c1.20673,-3.06084 4.52034,-5.34343 5.87922,-8.34756c0.22259,-0.49208 0.08226,-1.13058 0.42316,-1.55645c0.66676,-0.83293 2.22847,-1.31997 2.15619,-2.85373c-0.03893,-0.82614 -1.02776,-1.33142 -1.53578,-2.0012c-1.76399,-2.32569 -3.78241,-4.27776 -5.88703,-6.32603c-2.72072,-2.60598 -5.35485,-5.80117 -8.40271,-8.04532c-1.54435,-1.13711 -3.50509,-1.83133 -5.13644,-2.85639c-3.91732,-2.46147 -7.07632,-5.32074 -10.19839,-8.6244c-2.20774,-2.36038 -5.69923,-3.79403 -8.47967,-5.50623c-6.05786,-3.73043 -11.71313,-7.331 -16.5819,-12.42104c-2.35875,-2.46887 -5.30315,-4.37594 -7.68376,-6.81367c-4.73482,-4.8484 -8.04838,-11.26447 -11.41042,-16.99954c-2.96417,-5.05636 -6.21011,-9.53281 -10.1396,-13.96442c-2.78601,-3.14202 -6.7416,-6.5225 -8.31342,-10.37151c-0.48634,-1.21126 -0.85349,-2.78935 -1.55311,-3.89894c-1.28189,-2.0331 -5.57441,-5.04404 -4.16534,-8.03219c0.44498,-0.94364 3.35201,-2.10458 4.33019,-2.46714c4.17133,-1.54611 8.88415,-2.21076 13.23464,-3.16291c2.36606,-0.28453 5.07842,-0.27024 7.37288,-0.87551c0.96958,-0.25578 1.78764,-0.92427 2.76334,-1.15784c2.40911,-0.57675 5.14567,-0.21958 7.60064,-0.42821c4.41035,-0.37482 8.78106,-1.44496 12.92627,-2.85205c4.99603,-1.6959 9.69368,-1.40093 14.81516,-2.31835c5.32415,-0.95372 10.55138,-3.05789 15.81393,-4.3303c7.90549,-1.91145 15.60819,-3.16184 23.6095,-4.02971c2.864,-0.31065 4.63677,-2.05245 7.52555,-2.09324c0.46124,1.32512 0.97171,2.13735 0.66392,3.55419c-0.43071,1.98266 -2.25938,2.96248 -2.32403,5.02859c-0.07697,2.45995 0.75179,4.50614 1.44209,6.61587z" fill="#49555e" stroke="none" stroke-width="0.5" stroke-linecap="butt"/><g><path d="M3.23913,161.80215l6.68247,-75.61978l7.81949,1.03772l90.21802,7.61272l22.3337,1.58224l7.07992,-76.49321l217.45031,19.55805l20.04395,-11.30824l66.75596,6.53992l-3.13589,23.61836l74.39756,7.78935l-6.3288,58.1153l5.59949,1.07711l128.97547,9.06924l-7.68197,86.41884l-315.46424,-26.317l-20.81214,-12.03491l-172.52428,-15.76712l-24.6504,6.30846l-44.71709,-3.06894l-25.04823,-5.26299z" fill="#4e586a" stroke="#000000" stroke-width="1" stroke-linecap="round"/><path d="M38.2055,88.61259l-8.10851,75.65092l-27.23371,-2.65021l7.12076,-74.94186z" data-paper-data="{&quot;origPos&quot;:[&quot;Point&quot;,59.24409,105.08161]}" fill="#515054" stroke="#000000" stroke-width="1" stroke-linecap="round"/><path d="M61.16162,91.65021l-6.43471,57.56682l-9.49949,-0.97768l8.03313,-56.90368z" data-paper-data="{&quot;origPos&quot;:[&quot;Point&quot;,128.51413,117.10689]}" fill="#191e21" stroke="#000000" stroke-width="1" stroke-linecap="round"/><path d="M65.02816,151.49502l5.60571,-56.58024l33.24016,3.50923l-6.07893,53.72286z" data-paper-data="{&quot;origPos&quot;:[&quot;Point&quot;,187.7568,144.37892]}" fill="#191e21" stroke="#000000" stroke-width="1" stroke-linecap="round"/><path d="M110.01315,149.65602l4.53412,-52.97276l11.28092,1.65627l-4.77072,51.54407z" data-paper-data="{&quot;origPos&quot;:[&quot;Point&quot;,255.6755,166.55878]}" fill="#191e21" stroke="#000000" stroke-width="1" stroke-linecap="round"/><path d="M129.74583,96.42496l-132.83723,-11.38508l-3.66411,-8.23324l138.82719,11.36227z" data-paper-data="{&quot;origPos&quot;:[&quot;Point&quot;,174.03905,51.35519]}" fill="#f1f2f4" stroke="#000000" stroke-width="1" stroke-linecap="round"/><path d="M248.28041,29.21148l-14.19407,147.37845l-109.04805,-9.37772l12.15687,-147.28623z" data-paper-data="{&quot;origPos&quot;:[&quot;Point&quot;,412.01868,159.75407]}" fill="#515054" stroke="#000000" stroke-width="1" stroke-linecap="round"/><path d="M151.33678,170.00361l12.59391,-136.06762l57.5945,5.38817l-12.68391,135.0475z" data-paper-data="{&quot;origPos&quot;:[&quot;Point&quot;,406.99296,172.66258]}" fill="#292e39" stroke="#000000" stroke-width="1" stroke-linecap="round"/><path d="M165.50259,106.61784l41.95407,3.01187l-4.14686,54.76634l-45.50073,-4.54378z" data-paper-data="{&quot;origPos&quot;:[&quot;Point&quot;,378.07326,237.29121]}" fill="#69655b" stroke="#000000" stroke-width="1" stroke-linecap="round"/><path d="M170.50542,162.15623l5.8423,-55.15153l22.19075,1.34421l-6.78963,55.42379z" data-paper-data="{&quot;origPos&quot;:[&quot;Point&quot;,381.50619,236.80049]}" fill="#121214" stroke="#000000" stroke-width="1" stroke-linecap="round"/><path d="M171.30659,55.86529l6.89504,-2.76391l11.85203,-2.52172l7.07206,1.30112l9.50461,2.91512l5.66683,4.52823l-5.30778,43.39863l-40.12412,-2.85747z" data-paper-data="{&quot;origPos&quot;:[&quot;Point&quot;,431.0663,121.64691]}" fill="#69655b" stroke="#000000" stroke-width="1" stroke-linecap="round"/><path d="M246.63815,108.22548l50.72159,3.92776l-4.67282,44.50873l-52.03489,-3.68641z" data-paper-data="{&quot;origPos&quot;:[&quot;Point&quot;,553.13113,288.46675]}" fill="#191e21" stroke="#000000" stroke-width="1" stroke-linecap="round"/><path d="M313.85815,192.43386l8.13472,-98.84861l5.71108,15.00934l28.84322,1.20121l-8.11428,87.6686l-30.92592,-2.60957z" data-paper-data="{&quot;origPos&quot;:[&quot;Point&quot;,672.98512,360.29152]}" fill="#515054" stroke="#000000" stroke-width="1" stroke-linecap="round"/><path d="M641.70472,133.57267l-9.00903,87.373l-30.02713,-2.35765l9.34075,-86.9718z" data-paper-data="{&quot;origPos&quot;:[&quot;Point&quot;,1231.84396,619.06553]}" fill="#515054" stroke="#000000" stroke-width="1" stroke-linecap="round"/><path d="M602.84749,218.64715l-90.73252,-8.00831l6.18472,-68.81365l10.78728,-8.95081l73.5958,5.85792l6.76393,10.6079z" data-paper-data="{&quot;origPos&quot;:[&quot;Point&quot;,1105.71712,579.86303]}" fill="#c5b6a0" stroke="#000000" stroke-width="1" stroke-linecap="round"/><path d="M514.95415,210.35013l6.95946,-66.72327l8.18196,-6.7054l63.39114,5.52515l6.85586,7.62212l-6.04321,67.28482z" data-paper-data="{&quot;origPos&quot;:[&quot;Point&quot;,1099.26852,580.21194]}" fill="#9da0a7" stroke="#000000" stroke-width="1" stroke-linecap="round"/><path d="M347.3009,197.03973l7.56269,-69.75395l9.01097,-7.69198l139.84228,10.91965l8.69089,9.71397l-6.30194,70.08043z" data-paper-data="{&quot;origPos&quot;:[&quot;Point&quot;,850.73319,468.59816]}" fill="#c5b6a0" stroke="#000000" stroke-width="1" stroke-linecap="round"/><path d="M350.96608,197.78922l6.11194,-68.02741l6.47034,-6.14545l134.2018,10.09151l6.80736,8.14629l-6.669,68.06845z" data-paper-data="{&quot;origPos&quot;:[&quot;Point&quot;,845.68849,469.53755]}" fill="#9da0a7" stroke="#000000" stroke-width="1" stroke-linecap="round"/><path d="M664.88297,135.70458l-337.6612,-27.08362l-19.19036,-55.67903l1.63163,-5.67329l19.70191,54.13737l341.48235,28.63869z" data-paper-data="{&quot;origPos&quot;:[&quot;Point&quot;,1024.60792,349.36551]}" fill="#f1f2f4" stroke="#000000" stroke-width="1" stroke-linecap="round"/><path d="M438.88682,53.85849l96.95429,8.53334l-7.93428,6.02192l-89.2575,-9.99694z" data-paper-data="{&quot;origPos&quot;:[&quot;Point&quot;,1042.63553,282.88868]}" fill="#f1f2f4" stroke="#000000" stroke-width="1" stroke-linecap="round"/><path d="M436.87084,84.108l2.34493,-25.33523l68.22757,57.87987l-177.8509,-15.71169l-20.19728,-52.77045l49.00996,4.48772l11.67579,25.28567l66.545,6.31952l5.05692,-48.65846z" data-paper-data="{&quot;origPos&quot;:[&quot;Point&quot;,868.70236,276.97838]}" fill="#aaaaa8" stroke="#000000" stroke-width="1" stroke-linecap="round"/><path d="M383.26018,34.68122l47.57834,4.01473l-2.76626,35.86509l-47.0617,-3.61895z" data-paper-data="{&quot;origPos&quot;:[&quot;Point&quot;,883.22152,216.64692]}" fill="#191e21" stroke="#000000" stroke-width="1" stroke-linecap="round"/><path d="M361.88651,40.44958l-235.44814,-20.57181l-6.77499,-8.49575l229.87239,19.04478l15.78771,-11.17022l100.65161,10.43011l-4.53827,7.18895l-86.82496,-8.38295z" data-paper-data="{&quot;origPos&quot;:[&quot;Point&quot;,680.26883,74.69009]}" fill="#f1f2f4" stroke="#000000" stroke-width="1" stroke-linecap="round"/><path d="M366.21023,130.20188l131.36252,8.94855l-0.98084,10.59722l-132.63241,-10.60917l0.04882,-9.3166z" data-paper-data="{&quot;origPos&quot;:[&quot;Point&quot;,873.43827,412.47927]}" fill="#252627" stroke="#000000" stroke-width="1" stroke-linecap="round"/><path d="M529.33142,143.18957l63.95097,5.59045l-0.87946,7.3047l-64.13494,-5.80018z" data-paper-data="{&quot;origPos&quot;:[&quot;Point&quot;,1127.26435,521.45235]}" fill="#252627" stroke="#000000" stroke-width="1" stroke-linecap="round"/><path d="M249.66947,49.83181c-0.11174,-0.0386 -0.22842,-0.10113 -0.34837,-0.19486c-0.80161,-0.62612 -0.14582,-1.39145 -0.14582,-1.39145c2.72687,-3.12652 11.94696,-5.2856 16.04219,-3.53229c3.70002,1.5841 6.13486,5.11479 8.2707,8.18733c0.69916,2.77638 1.40427,6.20668 0.3956,8.99569c-3.3047,9.13748 -15.66284,9.3586 -22.55934,4.20122c-3.63091,-5.20255 -5.01338,-11.18012 -1.65492,-16.26563z" data-paper-data="{&quot;index&quot;:null}" fill="#ffffff" stroke="none" stroke-width="0.5" stroke-linecap="butt"/><path d="M282.13717,50.41711c-0.31123,-0.55457 0.17089,-1.0816 0.17089,-1.0816c2.38643,-2.46527 5.26724,-1.75955 8.49708,-1.87604c9.5861,-0.34565 15.27198,4.44518 14.30803,13.88093c-0.63277,3.30257 -1.13835,7.57501 -3.47285,10.25936c-4.86404,5.59301 -16.06204,3.54505 -19.45214,-2.62617c-0.88022,-1.6024 -1.20365,-3.71759 -1.57725,-5.46782c-0.7144,-3.66503 -1.23195,-9.75115 1.52624,-13.08869z" data-paper-data="{&quot;index&quot;:null}" fill="#ffffff" stroke="none" stroke-width="0.5" stroke-linecap="butt"/><path d="M269.02632,56.89153c0.11152,-1.08701 1.12484,-1.88193 2.26334,-1.77544c1.13845,0.1065 1.97099,1.07402 1.85945,2.16108c-0.11152,1.08701 -1.12483,1.88193 -2.26335,1.77544c-1.13845,-0.1065 -1.97099,-1.07402 -1.85946,-2.16108z" data-paper-data="{&quot;index&quot;:null}" fill="#000000" stroke="none" stroke-width="0.5" stroke-linecap="butt"/><path d="M299.83244,60.12862c0.11152,-1.08701 1.12483,-1.88193 2.26334,-1.77544c1.13845,0.1065 1.97098,1.07402 1.85945,2.16109c-0.11152,1.08701 -1.12483,1.88193 -2.26334,1.77544c-1.13845,-0.1065 -1.97099,-1.07403 -1.85945,-2.16109z" data-paper-data="{&quot;index&quot;:null}" fill="#000000" stroke="none" stroke-width="0.5" stroke-linecap="butt"/><path d="M240.1426,18.72208c0.42173,-0.90314 1.36759,-0.50047 1.36759,-0.50047l0.81308,0.42058c2.06062,1.9998 4.54291,3.30548 6.78878,5.0761c8.53068,6.74476 16.11655,14.60463 24.68329,21.26714c0,0 0.80161,0.62612 0.14581,1.39145c-0.65575,0.76539 -1.45731,0.13922 -1.45731,0.13922c-8.54511,-6.70039 -16.15653,-14.52543 -24.69286,-21.27462c-2.29456,-1.8197 -4.8238,-3.16355 -6.94254,-5.21074l-0.18172,-0.00292c0,0 -0.94589,-0.40267 -0.52415,-1.3058z" data-paper-data="{&quot;index&quot;:null}" fill="#ffffff" stroke="none" stroke-width="0.5" stroke-linecap="butt"/><path d="M331.52181,23.83482c0.37062,0.92332 -0.5964,1.27722 -0.5964,1.27722l-0.57289,0.19668c-5.1685,2.82929 -10.75447,4.96498 -16.45526,6.57167c-10.91263,3.06823 -21.12973,9.60106 -31.60716,13.94256c0,0 -0.95001,0.39367 -1.3623,-0.51345c-0.41229,-0.9071 0.53773,-1.30075 0.53773,-1.30075c10.56261,-4.37674 20.84323,-10.92775 31.8463,-14.02537c5.5415,-1.55652 10.99452,-3.61716 16.00686,-6.38835l0.8655,-0.32969c0,0 0.96702,-0.35386 1.33765,0.56946z" data-paper-data="{&quot;index&quot;:null}" fill="#ffffff" stroke="none" stroke-width="0.5" stroke-linecap="butt"/><path d="M304.9465,76.59437c0.80249,1.77411 1.28511,3.65652 2.3077,5.36882c0.97252,1.62846 2.87179,3.26179 3.07878,5.22164c0.38064,3.60394 -3.01049,8.31907 -4.82876,11.24635c-2.07634,2.66778 -3.48912,6.12427 -6.04638,8.41844c-4.78887,4.2962 -10.65813,3.92008 -16.74244,4.2102c-6.3555,0.30244 -12.72887,-0.12166 -18.98717,-1.16178c-3.54689,-0.5895 -7.79388,-1.10716 -10.84205,-2.96535c-8.67366,-4.27306 -11.23347,-15.13169 -11.27919,-23.65512c0.40715,-4.50203 2.13126,-8.75108 4.37745,-12.7477c0.3047,-0.54216 1.40645,-3.9022 2.34086,-3.81826c3.0122,0.27061 3.99984,6.87529 5.28475,8.87239c4.83332,7.39582 16.92498,9.62829 25.33673,9.0503c4.01028,-0.32769 9.59535,-0.13887 13.12928,-2.26271c3.75225,-2.25505 5.73301,-5.84792 9.83276,-7.80465c1.62784,-0.18292 2.25789,-0.49228 3.04785,0.99696l0.08458,0.04223c0,0 0.45543,0.54448 -0.09473,0.98821zM302.93463,75.82058c-0.18264,0.04449 -0.38896,0.09967 -0.59422,0.11805c-3.82376,1.96329 -5.84487,5.51157 -9.45854,7.64099c-3.82548,2.25422 -9.48542,2.12411 -13.81689,2.48247c-8.99831,0.61855 -21.57156,-1.86368 -26.73124,-9.72561c-1.55407,-2.45057 -1.82051,-6.01569 -3.78712,-8.20833c-0.46403,-0.51736 -0.22926,1.35833 -0.50958,1.9847c-0.44152,0.98659 -1.11163,1.96221 -1.58284,2.9625c-1.63534,3.47148 -2.9989,6.44121 -3.34845,10.26022c0.05184,8.02646 2.3605,18.32016 10.53359,22.35853c2.8448,1.79122 7.00291,2.23725 10.34726,2.79312c6.14851,1.02196 12.40969,1.4405 18.65398,1.14215c5.72359,-0.27291 11.25938,0.17812 15.78769,-3.82134c2.47143,-2.18279 3.83191,-5.61163 5.82699,-8.17005c1.61696,-2.61537 4.91572,-7.09003 4.58511,-10.31111c-0.16993,-1.65566 -2.06462,-3.27348 -2.88922,-4.65424c-1.25867,-2.10761 -1.6938,-4.48258 -2.92357,-6.5738c0,0 -0.06841,-0.11712 -0.09295,-0.27825z" fill="#ffffff" stroke="none" stroke-width="0.5" stroke-linecap="butt"/><path d="M303.07153,76.07606c1.22977,2.09124 1.66929,4.47674 2.92796,6.58435c0.8246,1.38076 2.72073,3.00624 2.89066,4.66191c0.33061,3.22108 -2.96957,7.71247 -4.58653,10.32784c-1.99508,2.55843 -3.36299,6.00255 -5.83442,8.18534c-4.52831,3.99944 -10.08818,3.56594 -15.81177,3.83887c-6.24429,0.29834 -12.54817,-0.12428 -18.69668,-1.14625c-3.34435,-0.55587 -7.51689,-1.0145 -10.36169,-2.80571c-8.17309,-4.03837 -10.4902,-14.37099 -10.54204,-22.39745c0.34955,-3.81901 1.71947,-6.80343 3.35481,-10.27489c0.47121,-1.00028 1.14419,-1.97984 1.58571,-2.96642c0.28032,-0.62637 0.12282,-2.44153 0.58686,-1.92417c1.96661,2.19264 2.23745,5.75213 3.79151,8.20271c5.15967,7.86193 17.722,10.28122 26.72031,9.66267c4.33147,-0.35836 9.91391,-0.17287 13.73938,-2.4271c3.61367,-2.12941 5.63748,-5.67236 9.46124,-7.63565c0.20527,-0.01838 0.49887,-0.12014 0.68151,-0.16463c0.02454,0.16113 0.09318,0.27865 0.09318,0.27865z" data-paper-data="{&quot;noHover&quot;:false,&quot;origItem&quot;:[&quot;Path&quot;,{&quot;applyMatrix&quot;:true,&quot;segments&quot;:[[[302.93463,162.43402],[0.02454,0.11212],[-0.18264,0.03096]],[[302.34041,162.51615],[0.20527,-0.01279],[-3.82376,1.36606]],[[292.88187,167.83276],[3.61367,-1.48165],[-3.82548,1.56849]],[[279.06498,169.56007],[4.33147,-0.24935],[-8.99831,0.43039]],[[252.33375,162.79298],[5.15967,5.47034],[-1.55407,-1.70511]],[[248.54663,157.08163],[1.96661,1.52564],[-0.46403,-0.35998]],[[248.03705,158.46259],[0.28032,-0.43583],[-0.44152,0.68647]],[[246.4542,160.5239],[0.47121,-0.696],[-1.63534,2.41546]],[[243.10575,167.66297],[0.34955,-2.65727],[0.05184,5.58482]],[[253.63934,183.22006],[-8.17309,-2.8099],[2.8448,1.24633]],[[263.9866,185.16352],[-3.34435,-0.38678],[6.14851,0.71108]],[[282.64058,185.95823],[-6.24429,0.20758],[5.72359,-0.18989]],[[298.42827,183.29934],[-4.52831,2.78282],[2.47143,-1.51879]],[[304.25526,177.61461],[-1.99508,1.78016],[1.61696,-1.81978]],[[308.84038,170.44012],[0.33061,2.24123],[-0.16993,-1.15201]],[[305.95115,167.20169],[0.8246,0.96074],[-1.25867,-1.46648]],[[303.02758,162.62763],[1.22977,1.45508],[0,0]]],&quot;closed&quot;:true}]}" fill="#600000" stroke="none" stroke-width="0.5" stroke-linecap="butt"/></g></g></g></g></svg>