<svg version="1.1" xmlns="http://www.w3.org/2000/svg" xmlns:xlink="http://www.w3.org/1999/xlink" width="2878.25006" height="1619.57958" viewBox="0,0,2878.25006,1619.57958"><g transform="translate(1117.37278,629.80931)"><g data-paper-data="{&quot;isPaintingLayer&quot;:true}" fill-rule="nonzero" stroke-linejoin="miter" stroke-miterlimit="10" stroke-dasharray="" stroke-dashoffset="0" style="mix-blend-mode: normal"><path d="M-1117.37278,989.77027v-1619.57958h2878.25006v1619.57958z" fill="none" stroke="#000000" stroke-width="0" stroke-linecap="butt"/><g><path d="M152.38694,200.28284c0.05003,-0.81345 0.21015,-1.63476 0.09077,-2.43413c-0.34241,-2.2929 -1.54874,-4.49771 -1.62956,-6.80894c-0.04047,-1.15745 0.37505,-2.60409 -0.1162,-3.72993c-0.22616,-0.51832 -0.6524,-1.03389 -0.59331,-1.5639c0.02601,-0.23331 0.37088,-1.66779 0.59995,-1.77113c0.6771,-0.30546 4.06228,-0.09616 4.99844,-0.09616c4.5,0 9,0 13.49999,0c10.42717,-0.00009 21.04045,0.27793 31.44342,-0.09375c2.19885,-0.07831 3.58993,-0.48272 5.65462,-0.69668c2.79038,-0.28916 6.29553,-0.00771 9.15018,-0.00762c5.49636,0.00017 11.05781,-0.11962 16.54358,0.05266c0.66572,0.05546 1.53519,-0.083 1.99716,0.16637c0.46199,0.24938 0.16439,0.67978 0.20325,1.02141c0.11446,1.0063 -0.00095,2.03551 -0.00349,3.04368c-0.0098,3.88576 -0.24361,7.59309 -1.61937,11.41676c-0.90418,2.51299 -2.20298,4.92104 -3.19669,7.4197c-1.1059,2.78075 -0.60493,5.71146 -3.40002,8.21983c-0.62919,0.56465 -1.74265,1.27183 -2.02949,1.91283c-0.53033,1.18514 0.05617,2.56078 -0.35759,3.77779c-0.25141,0.73947 -0.99562,1.446 -1.20394,2.18778c-0.35005,1.24643 0.36851,2.612 -0.29089,3.84571c-0.22374,0.41861 -1.0552,0.96831 -1.33314,1.38798c-0.56666,0.85561 -0.31242,1.36858 -1.56083,2.08123c0.39396,5.27113 0.83382,10.55362 0.8354,15.82888c0.00078,2.7451 -0.30846,5.60168 0.16244,8.33553c0.43492,2.52496 2.18496,5.00824 2.1994,7.54975c0.01371,5.32371 0.69061,10.584 0.83979,15.92992c0.07868,2.81932 1.46398,5.42593 2.37302,8.19698c0.81484,2.48387 1.0045,5.04897 2.15746,7.49937c2.42994,5.1786 2.89263,10.54238 4.24833,15.82819c0.45903,1.1454 0.46816,3.37206 1.68805,4.33611c0.28046,0.22164 0.98721,0.25874 1.21251,0.49602c0.76842,0.80932 0.04717,2.27265 0.27851,3.16443c0.2599,1.00187 1.12984,1.96668 1.35633,2.97109c0.3364,1.49182 0.00486,3.10541 0.00486,4.60816c-0.00006,5.32577 -0.00066,10.65154 -0.00197,15.97731c-0.00093,3.80555 0.11481,7.62258 -0.16724,11.42546c-0.1215,1.63818 0.63198,3.50198 -2.43577,4.44654c-1.56014,0.43794 -4.86596,0.79531 -6.58595,0.2285c-0.40684,-0.13407 -0.27791,-0.51591 -0.68182,-0.65224c-0.991,-0.33448 -4.47211,0.09356 -5.79328,-0.07829c-0.98736,-0.12843 -3.77512,-0.25507 -4.56519,-0.48313c-0.42535,-0.12278 -0.37317,-0.5 -0.79459,-0.62622c-0.75946,-0.22746 -1.76244,0.04547 -2.64442,0.04547c-3,0 -6,0 -8.99999,0.00001c-4.57857,0.00003 -8.84693,0.19601 -13.3652,0.39761c-5.91216,0.26379 -12.07402,-0.01432 -18.014,0.02616c-10.40794,0.65684 -21.02259,0.3745 -31.50621,0.37417c-3.16901,-0.00049 -5.91372,-0.20005 -8.99762,-0.40213c-3.93313,-0.25772 -8.06877,0.25971 -12.00324,-0.00699c-3.42331,-0.23205 -6.60226,-1.1952 -10.0893,-1.18698c-10.5,0 -21,0.00002 -31.5,-0.00001c-7.0016,-0.00002 -14.00428,0.0158 -21.0057,-0.01146c-2.02702,-0.00789 -6.58287,0.29799 -7.91703,-0.76567c-0.1314,-0.10476 -0.11982,-1.50512 -0.12211,-1.71285c-0.06882,-0.82445 0.18996,-2.11229 -0.51921,-2.87383c-0.22121,-0.23755 -0.82438,-0.35654 -0.99814,-0.60403c-0.8824,-1.25679 -0.03331,-3.33987 -0.13303,-4.68301c-0.19039,-2.56455 -1.48669,-4.94856 -1.48669,-7.54744c0.00001,-2.7897 0.0002,-5.5794 0.00106,-8.3691c0.00035,-1.12046 -0.6392,-2.88743 0.14527,-3.94019c0.86606,-1.16225 2.92593,-2.35769 4.85316,-3.09221c2.78183,-1.05834 5.66281,-2.07745 8.33546,-3.20653c1.14151,-0.48224 2.22234,-1.19234 3.57404,-1.52862c1.33134,-0.33121 3.03091,-0.33792 4.42388,-0.5958c3.70374,-0.68566 7.07725,-1.75702 10.25121,-2.91319c2.38584,-0.86869 4.5628,-2.1436 7.11831,-2.86286c2.15259,-0.60586 4.89078,-0.77909 7.16643,-1.25872c1.73767,-0.36625 4.00041,-0.55015 5.59789,-0.95238c0.46697,-0.11758 0.70772,-0.41901 1.19663,-0.51082c2.0656,-0.38788 5.39548,-0.30037 7.6333,-0.46057c3.12045,-0.09071 5.76243,-0.5407 8.78884,-0.75585c7.15609,-0.50874 15.84485,0.00036 22.89001,0.66632c1.50054,0.90724 4.3333,0.52693 6.61719,0.52715c5.58699,0.00056 10.98957,0.12249 16.5183,0.40219c1.22653,0.06205 2.60428,-0.01325 3.73873,0.1769c-0.63216,-3.6769 -1.49221,-7.29784 -1.65537,-10.99178c-0.07927,-1.79722 -0.75058,-3.50956 -0.75059,-5.29757c-0.00001,-3.46347 0.67986,-7.13759 -0.88549,-10.52205c-0.71502,-1.54596 -0.50314,-3.00723 -0.90757,-4.55993c-0.26092,-1.00174 -1.12428,-1.96608 -1.35668,-2.97009c-0.63229,-2.73162 -0.19859,-5.61796 -0.578,-8.37764c-0.41593,-3.02528 0.14436,-6.10307 -0.40454,-9.11699c-0.408,-2.24025 -1.53823,-4.50789 -2.29322,-6.72597c-1.33279,-5.29558 -3.57533,-10.4934 -4.83266,-15.78752c-1.24554,-5.24446 -0.74088,-10.74771 -0.24712,-16.02099c0.49213,-5.25581 -0.47895,-10.80578 1.08837,-15.99305c0.03274,-0.10837 0.06538,-0.21671 0.09791,-0.32503z" fill="#49555e" stroke="none" stroke-width="0.5" stroke-linecap="butt"/><path d="M456.77584,166.10599c0.06634,0.07603 0.09063,0.14059 0.09063,0.14059c2.11575,5.62252 10.08605,9.83662 16.06089,13.74735c7.48094,4.89653 14.88286,9.84654 22.30873,14.7799c4.23977,2.81669 9.1504,5.22884 13.1355,8.21354c2.88913,2.16386 4.99147,5.0713 8.43753,6.85288c4.66131,2.42988 10.52189,4.14509 14.93705,6.68728c1.49797,0.86251 2.30261,2.03348 4.14943,2.68567c2.23193,0.78819 5.72851,0.80355 5.8267,2.75005c5.35715,1.4495 8.77732,5.32959 14.62087,5.89835c1.61686,0.15737 4.60378,-0.20795 4.25809,1.68872c-0.07784,0.42708 -0.92891,0.59954 -1.39543,0.89789c-1.90741,1.21982 -3.66365,2.23689 -5.93384,3.147c-1.6134,0.6468 -3.5969,1.22104 -5.04697,2.01697c-1.86625,1.02437 -3.24987,2.53159 -4.96362,3.67191c-2.07812,1.38276 -4.73002,2.49755 -6.64246,3.97868c-1.87538,1.45243 -3.30167,3.34445 -4.88602,4.94579c-5.7015,5.76227 -12.27968,11.47615 -19.5324,16.45057c-2.77031,1.89265 -4.35636,4.51106 -6.95357,6.43273c-0.99119,0.73338 -2.67928,1.02761 -3.71155,1.72766c-1.01033,0.68517 -1.52313,1.73126 -2.46704,2.46159c-2.25713,1.74641 -5.26155,3.23934 -7.7576,4.84717c-1.31267,0.53449 -6.57511,2.03879 -6.53016,3.25261c0.03139,0.84751 3.35799,1.53122 4.26712,1.87056c4.91775,1.83558 10.04825,2.66769 15.0715,4.23154c4.71175,1.46885 9.27208,2.40385 13.24045,4.80349c3.97211,2.40189 6.35671,6.11454 9.73822,8.90165c3.42106,2.81971 7.53049,5.48558 10.471,8.53903c1.39537,1.44896 1.77984,3.12583 2.95387,4.61441c0.3051,0.38684 1.56777,1.3101 1.77692,1.67786c0.49269,0.86632 0.28245,2.17105 0.30823,3.08791c1.78932,4.30465 0.85599,9.86159 -2.21554,13.89454c-1.64435,2.15905 -4.6746,3.71906 -7.53113,5.09201c-2.83692,1.36181 -5.15228,3.15802 -7.96033,4.53559c-5.65216,2.77282 -11.7562,5.10038 -17.39174,7.92517c-2.80879,0.64021 -5.869,1.11303 -8.57586,1.91978c-3.18245,0.94849 -6.01455,2.40164 -9.23722,3.32645c-3.70456,1.06309 -7.64553,1.56449 -11.34709,2.55828c-2.69453,0.65382 -6.26145,-0.56269 -9.01979,-1.16126c-7.29212,-1.58242 -14.61344,-2.43179 -21.11625,-5.30386c-2.3925,-1.05814 -4.82361,-2.44675 -7.40296,-3.2821c-1.68124,-0.54448 -4.37965,-0.5313 -5.83825,-1.31076c-1.1096,-0.59296 -1.5066,-1.91458 -2.40555,-2.64413c-2.4061,-1.95269 -5.5576,-3.89313 -8.24147,-5.71378c-3.05865,-2.07611 -6.06331,-4.43115 -9.71917,-6.05897c-4.82543,-2.14859 -10.10652,-4.492 -13.79262,-7.50504c-2.11542,-0.37602 -5.09583,-1.05731 -6.86655,-1.92995c-1.18609,-0.58452 -1.64947,-1.76663 -2.77572,-2.38543c-2.90745,-1.59746 -7.16517,-2.51479 -10.31415,-3.9482c-2.04486,-0.93082 -3.78914,-2.32691 -5.55159,-3.47653c-3.61263,-2.35649 -6.32992,-5.11893 -9.52812,-7.71932c-1.15185,-0.93654 -2.59153,-1.44342 -2.38341,-2.83655c0.32837,-2.19819 5.69368,-4.7434 7.92572,-6.22457c3.72515,-4.35472 8.99872,-8.09053 15.10997,-11.08508c2.44571,-1.19841 4.97308,-2.05031 7.22745,-3.43179c0.99284,-0.60841 2.27764,-1.70271 3.4748,-2.10437c0.89469,-0.30017 2.07809,0.03213 2.98227,-0.25522c1.41078,-0.44835 2.7285,-2.13362 4.00045,-2.81868c2.8204,-1.51904 6.38273,-1.98577 9.328,-3.26945c1.9761,-0.86127 3.72646,-2.24594 5.54921,-3.26283c2.54836,-1.4217 6.12158,-2.42173 8.21364,-4.152c2.07854,-1.71908 3.52876,-4.0617 5.17893,-5.97831c1.75575,-2.03923 3.79666,-3.76807 4.97516,-5.99577c0.33404,-0.62478 0.32014,-1.31784 0.67173,-1.93835c1.20673,-2.12973 4.52034,-3.71796 5.87922,-5.80824c0.22259,-0.34239 0.08226,-0.78666 0.42316,-1.08298c0.66676,-0.57956 2.22847,-0.91844 2.15619,-1.98563c-0.03893,-0.57483 -1.02776,-0.9264 -1.53578,-1.39244c-1.76399,-1.61822 -3.78241,-2.97647 -5.88703,-4.40166c-2.72072,-1.81324 -5.35485,-4.03646 -8.40271,-5.59794c-1.54435,-0.7912 -3.50509,-1.27424 -5.13644,-1.98748c-3.91732,-1.7127 -7.07632,-3.70218 -10.19839,-6.00087c-2.20774,-1.64235 -5.69923,-2.63989 -8.47967,-3.83124c-6.05786,-2.59564 -11.71313,-5.10092 -16.5819,-8.64258c-2.35875,-1.71784 -5.30315,-3.04479 -7.68376,-4.74096c-4.73482,-3.37352 -8.04838,-7.83783 -11.41042,-11.8283c-2.96417,-3.51822 -6.21011,-6.63294 -10.1396,-9.71646c-2.78601,-2.18622 -6.7416,-4.53836 -8.31342,-7.21651c-0.48634,-0.8428 -0.85349,-1.94083 -1.55311,-2.71289c-1.28189,-1.41463 -5.57441,-3.50965 -4.16534,-5.58881c0.44498,-0.65659 3.35201,-1.46437 4.33019,-1.71664c4.17133,-1.07578 8.88415,-1.53825 13.23464,-2.20075c2.36606,-0.19798 5.07842,-0.18803 7.37288,-0.60918c0.96958,-0.17797 1.78764,-0.64311 2.76334,-0.80563c2.40911,-0.4013 5.14567,-0.15278 7.60064,-0.29795c4.41035,-0.2608 8.78106,-1.00541 12.92627,-1.98446c4.99603,-1.18001 9.69368,-0.97477 14.81516,-1.61311c5.32415,-0.6636 10.55138,-2.12769 15.81393,-3.01303c7.90549,-1.32999 15.60819,-2.20001 23.6095,-2.80388c2.864,-0.21615 4.63677,-1.4281 7.52555,-1.45648c0.46124,0.92202 0.97171,1.48717 0.66392,2.47301c-0.43071,1.37954 -2.25938,2.0613 -2.32403,3.4989c-0.07697,1.71164 0.75179,3.13538 1.44209,4.60333z" fill="#49555e" stroke="none" stroke-width="0.5" stroke-linecap="butt"/><g><path d="M3.23913,222.26009l6.68247,-52.61633l7.81949,0.72204l90.21802,5.29694l22.3337,1.10092l7.07992,-53.22406l217.45031,13.60851l20.04395,-7.86829l66.75596,4.55048l-3.13589,16.43368l74.39756,5.41984l-6.3288,40.43669l5.59949,0.74945l128.97547,6.31039l-7.68197,60.13032l-315.46424,-18.3114l-20.81214,-8.3739l-172.52428,-10.97078l-24.6504,4.38943l-44.71709,-2.13537l-25.04823,-3.66199z" fill="#4e586a" stroke="#000000" stroke-width="1" stroke-linecap="round"/><path d="M38.2055,171.33471l-8.10851,52.638l-27.23371,-1.84402l7.12076,-52.14463z" data-paper-data="{&quot;origPos&quot;:[&quot;Point&quot;,59.24409,105.08161]}" fill="#515054" stroke="#000000" stroke-width="1" stroke-linecap="round"/><path d="M61.16162,173.4483l-6.43471,40.05506l-9.49949,-0.68027l8.03313,-39.59364z" data-paper-data="{&quot;origPos&quot;:[&quot;Point&quot;,128.51413,117.10689]}" fill="#191e21" stroke="#000000" stroke-width="1" stroke-linecap="round"/><path d="M65.02816,215.08838l5.60571,-39.36859l33.24016,2.44172l-6.07893,37.38043z" data-paper-data="{&quot;origPos&quot;:[&quot;Point&quot;,187.7568,144.37892]}" fill="#191e21" stroke="#000000" stroke-width="1" stroke-linecap="round"/><path d="M110.01315,213.8088l4.53412,-36.85851l11.28092,1.15243l-4.77072,35.86442z" data-paper-data="{&quot;origPos&quot;:[&quot;Point&quot;,255.6755,166.55878]}" fill="#191e21" stroke="#000000" stroke-width="1" stroke-linecap="round"/><path d="M129.74583,176.77057l-132.83723,-7.92175l-3.66411,-5.7287l138.82719,7.90588z" data-paper-data="{&quot;origPos&quot;:[&quot;Point&quot;,174.03905,51.35519]}" fill="#f1f2f4" stroke="#000000" stroke-width="1" stroke-linecap="round"/><path d="M248.28041,130.00335l-14.19407,102.54609l-109.04805,-6.52503l12.15687,-102.48192z" data-paper-data="{&quot;origPos&quot;:[&quot;Point&quot;,412.01868,159.75407]}" fill="#515054" stroke="#000000" stroke-width="1" stroke-linecap="round"/><path d="M151.33678,227.96668l12.59391,-94.676l57.5945,3.7491l-12.68391,93.9662z" data-paper-data="{&quot;origPos&quot;:[&quot;Point&quot;,406.99296,172.66258]}" fill="#292e39" stroke="#000000" stroke-width="1" stroke-linecap="round"/><path d="M165.50259,183.86279l41.95407,2.09566l-4.14686,38.10648l-45.50073,-3.16157z" data-paper-data="{&quot;origPos&quot;:[&quot;Point&quot;,378.07326,237.29121]}" fill="#69655b" stroke="#000000" stroke-width="1" stroke-linecap="round"/><path d="M170.50542,222.50646l5.8423,-38.3745l22.19075,0.9353l-6.78963,38.56393z" data-paper-data="{&quot;origPos&quot;:[&quot;Point&quot;,381.50619,236.80049]}" fill="#121214" stroke="#000000" stroke-width="1" stroke-linecap="round"/><path d="M171.30659,148.54911l6.89504,-1.92313l11.85203,-1.75461l7.07206,0.90532l9.50461,2.02834l5.66683,3.15075l-5.30778,30.19681l-40.12412,-1.98823z" data-paper-data="{&quot;origPos&quot;:[&quot;Point&quot;,431.0663,121.64691]}" fill="#69655b" stroke="#000000" stroke-width="1" stroke-linecap="round"/><path d="M246.63815,184.98139l50.72159,2.73294l-4.67282,30.96922l-52.03489,-2.56501z" data-paper-data="{&quot;origPos&quot;:[&quot;Point&quot;,553.13113,288.46675]}" fill="#191e21" stroke="#000000" stroke-width="1" stroke-linecap="round"/><path d="M313.85815,243.57367l8.13472,-68.77897l5.71108,10.44352l28.84322,0.8358l-8.11428,60.99991l-30.92592,-1.81574z" data-paper-data="{&quot;origPos&quot;:[&quot;Point&quot;,672.98512,360.29152]}" fill="#515054" stroke="#000000" stroke-width="1" stroke-linecap="round"/><path d="M641.70472,202.61799l-9.00903,60.79423l-30.02713,-1.64046l9.34075,-60.51508z" data-paper-data="{&quot;origPos&quot;:[&quot;Point&quot;,1231.84396,619.06553]}" fill="#515054" stroke="#000000" stroke-width="1" stroke-linecap="round"/><path d="M602.84749,261.8129l-90.73252,-5.57219l6.18472,-47.88062l10.78728,-6.22798l73.5958,4.07595l6.76393,7.38099z" data-paper-data="{&quot;origPos&quot;:[&quot;Point&quot;,1105.71712,579.86303]}" fill="#c5b6a0" stroke="#000000" stroke-width="1" stroke-linecap="round"/><path d="M514.95415,256.03983l6.95946,-46.42612l8.18196,-4.66562l63.39114,3.8444l6.85586,5.30348l-6.04321,46.81685z" data-paper-data="{&quot;origPos&quot;:[&quot;Point&quot;,1099.26852,580.21194]}" fill="#9da0a7" stroke="#000000" stroke-width="1" stroke-linecap="round"/><path d="M347.3009,246.77844l7.56269,-48.53487l9.01097,-5.35209l139.84228,7.5979l8.69089,6.75899l-6.30194,48.76204z" data-paper-data="{&quot;origPos&quot;:[&quot;Point&quot;,850.73319,468.59816]}" fill="#c5b6a0" stroke="#000000" stroke-width="1" stroke-linecap="round"/><path d="M350.96608,247.29994l6.11194,-47.33355l6.47034,-4.27601l134.2018,7.02168l6.80736,5.6682l-6.669,47.3621z" data-paper-data="{&quot;origPos&quot;:[&quot;Point&quot;,845.68849,469.53755]}" fill="#9da0a7" stroke="#000000" stroke-width="1" stroke-linecap="round"/><path d="M664.88297,204.10137l-337.6612,-18.84481l-19.19036,-38.74153l1.63163,-3.94748l19.70191,37.66884l341.48235,19.92683z" data-paper-data="{&quot;origPos&quot;:[&quot;Point&quot;,1024.60792,349.36551]}" fill="#f1f2f4" stroke="#000000" stroke-width="1" stroke-linecap="round"/><path d="M438.88682,147.15277l96.95429,5.93751l-7.93428,4.19006l-89.2575,-6.95588z" data-paper-data="{&quot;origPos&quot;:[&quot;Point&quot;,1042.63553,282.88868]}" fill="#f1f2f4" stroke="#000000" stroke-width="1" stroke-linecap="round"/><path d="M436.87084,168.20042l2.34493,-17.62828l68.22757,40.27288l-177.8509,-10.93221l-20.19728,-36.71774l49.00996,3.12256l11.67579,17.5938l66.545,4.39713l5.05692,-33.85661z" data-paper-data="{&quot;origPos&quot;:[&quot;Point&quot;,868.70236,276.97838]}" fill="#aaaaa8" stroke="#000000" stroke-width="1" stroke-linecap="round"/><path d="M383.26018,133.80921l47.57834,2.79346l-2.76626,24.95497l-47.0617,-2.51807z" data-paper-data="{&quot;origPos&quot;:[&quot;Point&quot;,883.22152,216.64692]}" fill="#191e21" stroke="#000000" stroke-width="1" stroke-linecap="round"/><path d="M361.88651,137.82284l-235.44814,-14.31389l-6.77499,-5.91135l229.87239,13.25138l15.78771,-7.77225l100.65161,7.25728l-4.53827,5.00208l-86.82496,-5.83287z" data-paper-data="{&quot;origPos&quot;:[&quot;Point&quot;,680.26883,74.69009]}" fill="#f1f2f4" stroke="#000000" stroke-width="1" stroke-linecap="round"/><path d="M366.21023,200.27259l131.36252,6.22641l-0.98084,7.37356l-132.63241,-7.38187l0.04882,-6.4825z" data-paper-data="{&quot;origPos&quot;:[&quot;Point&quot;,873.43827,412.47927]}" fill="#252627" stroke="#000000" stroke-width="1" stroke-linecap="round"/><path d="M529.33142,209.30944l63.95097,3.88984l-0.87946,5.08262l-64.13494,-4.03577z" data-paper-data="{&quot;origPos&quot;:[&quot;Point&quot;,1127.26435,521.45235]}" fill="#252627" stroke="#000000" stroke-width="1" stroke-linecap="round"/><path d="M249.66947,144.351c-0.11174,-0.02686 -0.22842,-0.07037 -0.34837,-0.13558c-0.80161,-0.43565 -0.14582,-0.96817 -0.14582,-0.96817c2.72687,-2.17544 11.94696,-3.67773 16.04219,-2.45777c3.70002,1.10222 6.13486,3.55887 8.2707,5.69675c0.69916,1.93181 1.40427,4.31861 0.3956,6.25921c-3.3047,6.35787 -15.66284,6.51172 -22.55934,2.92321c-3.63091,-3.61994 -5.01338,-7.77914 -1.65492,-11.31764z" data-paper-data="{&quot;index&quot;:null}" fill="#ffffff" stroke="none" stroke-width="0.5" stroke-linecap="butt"/><path d="M282.13717,144.75826c-0.31123,-0.38587 0.17089,-0.75258 0.17089,-0.75258c2.38643,-1.71534 5.26724,-1.2243 8.49708,-1.30535c9.5861,-0.2405 15.27198,3.09296 14.30803,9.65837c-0.63277,2.29793 -1.13835,5.2707 -3.47285,7.13847c-4.86404,3.89162 -16.06204,2.46665 -19.45214,-1.82729c-0.88022,-1.11495 -1.20365,-2.5867 -1.57725,-3.80452c-0.7144,-2.55013 -1.23195,-6.78486 1.52624,-9.10713z" data-paper-data="{&quot;index&quot;:null}" fill="#ffffff" stroke="none" stroke-width="0.5" stroke-linecap="butt"/><path d="M269.02632,149.26316c0.11152,-0.75634 1.12484,-1.30945 2.26334,-1.23535c1.13845,0.0741 1.97099,0.7473 1.85945,1.50368c-0.11152,0.75634 -1.12483,1.30945 -2.26335,1.23535c-1.13845,-0.0741 -1.97099,-0.7473 -1.85946,-1.50368z" data-paper-data="{&quot;index&quot;:null}" fill="#000000" stroke="none" stroke-width="0.5" stroke-linecap="butt"/><path d="M299.83244,151.51554c0.11152,-0.75634 1.12483,-1.30945 2.26334,-1.23535c1.13845,0.0741 1.97098,0.7473 1.85945,1.50369c-0.11152,0.75634 -1.12483,1.30945 -2.26334,1.23535c-1.13845,-0.0741 -1.97099,-0.74731 -1.85945,-1.50369z" data-paper-data="{&quot;index&quot;:null}" fill="#000000" stroke="none" stroke-width="0.5" stroke-linecap="butt"/><path d="M240.1426,122.70482c0.42173,-0.62841 1.36759,-0.34823 1.36759,-0.34823l0.81308,0.29264c2.06062,1.39146 4.54291,2.29995 6.78878,3.53196c8.53068,4.69301 16.11655,10.16192 24.68329,14.7977c0,0 0.80161,0.43565 0.14581,0.96817c-0.65575,0.53256 -1.45731,0.09687 -1.45731,0.09687c-8.54511,-4.66214 -16.15653,-10.10681 -24.69286,-14.80291c-2.29456,-1.26615 -4.8238,-2.2012 -6.94254,-3.62564l-0.18172,-0.00203c0,0 -0.94589,-0.28018 -0.52415,-0.90858z" data-paper-data="{&quot;index&quot;:null}" fill="#ffffff" stroke="none" stroke-width="0.5" stroke-linecap="butt"/><path d="M331.52181,126.26227c0.37062,0.64245 -0.5964,0.88869 -0.5964,0.88869l-0.57289,0.13685c-5.1685,1.96862 -10.75447,3.45464 -16.45526,4.57258c-10.91263,2.13488 -21.12973,6.68043 -31.60716,9.70125c0,0 -0.95001,0.27391 -1.3623,-0.35726c-0.41229,-0.63116 0.53773,-0.90506 0.53773,-0.90506c10.56261,-3.04534 20.84323,-7.60354 31.8463,-9.75887c5.5415,-1.08303 10.99452,-2.51682 16.00686,-4.44502l0.8655,-0.2294c0,0 0.96702,-0.24622 1.33765,0.39623z" data-paper-data="{&quot;index&quot;:null}" fill="#ffffff" stroke="none" stroke-width="0.5" stroke-linecap="butt"/><path d="M304.9465,162.97243c0.80249,1.23443 1.28511,2.54421 2.3077,3.73563c0.97252,1.13308 2.87179,2.26956 3.07878,3.63322c0.38064,2.50762 -3.01049,5.78842 -4.82876,7.82523c-2.07634,1.85624 -3.48912,4.26127 -6.04638,5.85756c-4.78887,2.9893 -10.65813,2.7276 -16.74244,2.92946c-6.3555,0.21044 -12.72887,-0.08465 -18.98717,-0.80837c-3.54689,-0.41017 -7.79388,-0.77036 -10.84205,-2.06329c-8.67366,-2.9732 -11.23347,-10.52865 -11.27919,-16.45926c0.40715,-3.13252 2.13126,-6.08901 4.37745,-8.86987c0.3047,-0.37724 1.40645,-2.71516 2.34086,-2.65675c3.0122,0.18829 3.99984,4.78383 5.28475,6.17342c4.83332,5.14602 16.92498,6.69937 25.33673,6.29721c4.01028,-0.22801 9.59535,-0.09663 13.12928,-1.5744c3.75225,-1.56906 5.73301,-4.06899 9.83276,-5.43048c1.62784,-0.12728 2.25789,-0.34253 3.04785,0.69369l0.08458,0.02938c0,0 0.45543,0.37885 -0.09473,0.6876zM302.93463,162.43402c-0.18264,0.03096 -0.38896,0.06935 -0.59422,0.08214c-3.82376,1.36606 -5.84487,3.83496 -9.45854,5.31661c-3.82548,1.56849 -9.48542,1.47796 -13.81689,1.72731c-8.99831,0.43039 -21.57156,-1.29675 -26.73124,-6.76709c-1.55407,-1.70511 -1.82051,-4.18572 -3.78712,-5.71136c-0.46403,-0.35998 -0.22926,0.94513 -0.50958,1.38096c-0.44152,0.68647 -1.11163,1.36531 -1.58284,2.06131c-1.63534,2.41546 -2.9989,4.4818 -3.34845,7.13907c0.05184,5.58482 2.3605,12.74719 10.53359,15.55709c2.8448,1.24633 7.00291,1.55668 10.34726,1.94346c6.14851,0.71108 12.40969,1.0023 18.65398,0.79471c5.72359,-0.18989 11.25938,0.12393 15.78769,-2.65889c2.47143,-1.51879 3.83191,-3.90458 5.82699,-5.68473c1.61696,-1.81978 4.91572,-4.93325 4.58511,-7.17448c-0.16993,-1.15201 -2.06462,-2.27769 -2.88922,-3.23843c-1.25867,-1.46648 -1.6938,-3.11898 -2.92357,-4.57406c0,0 -0.06841,-0.08149 -0.09295,-0.19361z" fill="#ffffff" stroke="none" stroke-width="0.5" stroke-linecap="butt"/><path d="M303.07153,162.61178c1.22977,1.45508 1.66929,3.11492 2.92796,4.5814c0.8246,0.96074 2.72073,2.09174 2.89066,3.24376c0.33061,2.24123 -2.96957,5.36634 -4.58653,7.18612c-1.99508,1.78016 -3.36299,4.17658 -5.83442,5.69537c-4.52831,2.78282 -10.08818,2.48119 -15.81177,2.67109c-6.24429,0.20758 -12.54817,-0.08648 -18.69668,-0.79756c-3.34435,-0.38678 -7.51689,-0.70589 -10.36169,-1.95222c-8.17309,-2.8099 -10.4902,-9.99935 -10.54204,-15.58417c0.34955,-2.65727 1.71947,-4.73383 3.35481,-7.14928c0.47121,-0.696 1.14419,-1.37757 1.58571,-2.06404c0.28032,-0.43583 0.12282,-1.69882 0.58686,-1.33884c1.96661,1.52564 2.23745,4.00234 3.79151,5.70745c5.15967,5.47034 17.722,7.15368 26.72031,6.72329c4.33147,-0.24935 9.91391,-0.12029 13.73938,-1.68878c3.61367,-1.48165 5.63748,-3.94684 9.46124,-5.3129c0.20527,-0.01279 0.49887,-0.08359 0.68151,-0.11455c0.02454,0.11212 0.09318,0.19389 0.09318,0.19389z" data-paper-data="{&quot;noHover&quot;:false,&quot;origItem&quot;:[&quot;Path&quot;,{&quot;applyMatrix&quot;:true,&quot;segments&quot;:[[[302.93463,162.43402],[0.02454,0.11212],[-0.18264,0.03096]],[[302.34041,162.51615],[0.20527,-0.01279],[-3.82376,1.36606]],[[292.88187,167.83276],[3.61367,-1.48165],[-3.82548,1.56849]],[[279.06498,169.56007],[4.33147,-0.24935],[-8.99831,0.43039]],[[252.33375,162.79298],[5.15967,5.47034],[-1.55407,-1.70511]],[[248.54663,157.08163],[1.96661,1.52564],[-0.46403,-0.35998]],[[248.03705,158.46259],[0.28032,-0.43583],[-0.44152,0.68647]],[[246.4542,160.5239],[0.47121,-0.696],[-1.63534,2.41546]],[[243.10575,167.66297],[0.34955,-2.65727],[0.05184,5.58482]],[[253.63934,183.22006],[-8.17309,-2.8099],[2.8448,1.24633]],[[263.9866,185.16352],[-3.34435,-0.38678],[6.14851,0.71108]],[[282.64058,185.95823],[-6.24429,0.20758],[5.72359,-0.18989]],[[298.42827,183.29934],[-4.52831,2.78282],[2.47143,-1.51879]],[[304.25526,177.61461],[-1.99508,1.78016],[1.61696,-1.81978]],[[308.84038,170.44012],[0.33061,2.24123],[-0.16993,-1.15201]],[[305.95115,167.20169],[0.8246,0.96074],[-1.25867,-1.46648]],[[303.02758,162.62763],[1.22977,1.45508],[0,0]]],&quot;closed&quot;:true}]}" fill="#600000" stroke="none" stroke-width="0.5" stroke-linecap="butt"/></g></g></g></g></svg>