<svg version="1.1" xmlns="http://www.w3.org/2000/svg" xmlns:xlink="http://www.w3.org/1999/xlink" width="2878.25006" height="1619.57958" viewBox="0,0,2878.25006,1619.57958"><g transform="translate(1117.37278,629.80931)"><g data-paper-data="{&quot;isPaintingLayer&quot;:true}" fill-rule="nonzero" stroke-linejoin="miter" stroke-miterlimit="10" stroke-dasharray="" stroke-dashoffset="0" style="mix-blend-mode: normal"><path d="M-1117.37278,989.77027v-1619.57958h2878.25006v1619.57958z" fill="none" stroke="#000000" stroke-width="0" stroke-linecap="butt"/><g><path d="M152.38694,159.28112c0.05003,-1.02156 0.21015,-2.05299 0.09077,-3.05687c-0.34241,-2.87951 -1.54874,-5.6484 -1.62956,-8.55093c-0.04047,-1.45357 0.37505,-3.27032 -0.1162,-4.68419c-0.22616,-0.65093 -0.6524,-1.2984 -0.59331,-1.96401c0.02601,-0.293 0.37088,-2.09447 0.59995,-2.22425c0.6771,-0.38361 4.06228,-0.12076 4.99844,-0.12076c4.5,0 9,0 13.49999,0c10.42717,-0.00011 21.04045,0.34904 31.44342,-0.11773c2.19885,-0.09834 3.58993,-0.60622 5.65462,-0.87492c2.79038,-0.36314 6.29553,-0.00968 9.15018,-0.00957c5.49636,0.00021 11.05781,-0.15022 16.54358,0.06613c0.66572,0.06965 1.53519,-0.10423 1.99716,0.20893c0.46199,0.31318 0.16439,0.85369 0.20325,1.28273c0.11446,1.26375 -0.00095,2.55627 -0.00349,3.82237c-0.0098,4.87989 -0.24361,9.53569 -1.61937,14.33761c-0.90418,3.15591 -2.20298,6.18003 -3.19669,9.31794c-1.1059,3.49217 -0.60493,7.17267 -3.40002,10.32278c-0.62919,0.70911 -1.74265,1.59721 -2.02949,2.40221c-0.53033,1.48834 0.05617,3.21593 -0.35759,4.74429c-0.25141,0.92865 -0.99562,1.81594 -1.20394,2.7475c-0.35005,1.56531 0.36851,3.28025 -0.29089,4.82959c-0.22374,0.52571 -1.0552,1.21604 -1.33314,1.74308c-0.56666,1.07451 -0.31242,1.71872 -1.56083,2.61369c0.39396,6.61969 0.83382,13.25364 0.8354,19.87852c0.00078,3.4474 -0.30846,7.03481 0.16244,10.46808c0.43492,3.17094 2.18496,6.28954 2.1994,9.48127c0.01371,6.68572 0.69061,13.29179 0.83979,20.00541c0.07868,3.54061 1.46398,6.81409 2.37302,10.29408c0.81484,3.11934 1.0045,6.34069 2.15746,9.418c2.42994,6.50349 2.89263,13.23953 4.24833,19.87765c0.45903,1.43844 0.46816,4.23476 1.68805,5.44545c0.28046,0.27834 0.98721,0.32494 1.21251,0.62292c0.76842,1.01638 0.04717,2.85408 0.27851,3.97401c0.2599,1.25819 1.12984,2.46983 1.35633,3.73121c0.3364,1.87348 0.00486,3.89989 0.00486,5.7871c-0.00006,6.68831 -0.00066,13.37661 -0.00197,20.06492c-0.00093,4.77916 0.11481,9.57273 -0.16724,14.34853c-0.1215,2.05729 0.63198,4.39792 -2.43577,5.58414c-1.56014,0.54998 -4.86596,0.99878 -6.58595,0.28696c-0.40684,-0.16837 -0.27791,-0.6479 -0.68182,-0.81911c-0.991,-0.42005 -4.47211,0.1175 -5.79328,-0.09832c-0.98736,-0.16129 -3.77512,-0.32033 -4.56519,-0.60673c-0.42535,-0.15419 -0.37317,-0.62792 -0.79459,-0.78643c-0.75946,-0.28565 -1.76244,0.0571 -2.64442,0.0571c-3,0 -6,0 -8.99999,0.00001c-4.57857,0.00004 -8.84693,0.24616 -13.3652,0.49933c-5.91216,0.33128 -12.07402,-0.01798 -18.014,0.03285c-10.40794,0.82488 -21.02259,0.47031 -31.50621,0.4699c-3.16901,-0.00062 -5.91372,-0.25123 -8.99762,-0.50501c-3.93313,-0.32365 -8.06877,0.32615 -12.00324,-0.00878c-3.42331,-0.29142 -6.60226,-1.50098 -10.0893,-1.49066c-10.5,0 -21,0.00003 -31.5,-0.00001c-7.0016,-0.00003 -14.00428,0.01984 -21.0057,-0.01439c-2.02702,-0.00991 -6.58287,0.37423 -7.91703,-0.96156c-0.1314,-0.13156 -0.11982,-1.89019 -0.12211,-2.15106c-0.06882,-1.03538 0.18996,-2.6527 -0.51921,-3.60907c-0.22121,-0.29832 -0.82438,-0.44776 -0.99814,-0.75856c-0.8824,-1.57833 -0.03331,-4.19434 -0.13303,-5.8811c-0.19039,-3.22066 -1.48669,-6.21459 -1.48669,-9.47837c0.00001,-3.50341 0.0002,-7.00683 0.00106,-10.51024c0.00035,-1.40712 -0.6392,-3.62615 0.14527,-4.94824c0.86606,-1.4596 2.92593,-2.96088 4.85316,-3.88332c2.78183,-1.3291 5.66281,-2.60894 8.33546,-4.02688c1.14151,-0.60562 2.22234,-1.49739 3.57404,-1.9197c1.33134,-0.41595 3.03091,-0.42437 4.42388,-0.74823c3.70374,-0.86108 7.07725,-2.20653 10.25121,-3.6585c2.38584,-1.09093 4.5628,-2.69202 7.11831,-3.59529c2.15259,-0.76086 4.89078,-0.97841 7.16643,-1.58075c1.73767,-0.45995 4.00041,-0.6909 5.59789,-1.19604c0.46697,-0.14766 0.70772,-0.52621 1.19663,-0.64151c2.0656,-0.48711 5.39548,-0.37722 7.6333,-0.5784c3.12045,-0.11392 5.76243,-0.67903 8.78884,-0.94923c7.15609,-0.6389 15.84485,0.00045 22.89001,0.83679c1.50054,1.13935 4.3333,0.66174 6.61719,0.66202c5.58699,0.0007 10.98957,0.15383 16.5183,0.50509c1.22653,0.07792 2.60428,-0.01664 3.73873,0.22216c-0.63216,-4.61759 -1.49221,-9.16491 -1.65537,-13.8039c-0.07927,-2.25702 -0.75058,-4.40744 -0.75059,-6.65289c-0.00001,-4.34956 0.67986,-8.96366 -0.88549,-13.214c-0.71502,-1.94148 -0.50314,-3.7766 -0.90757,-5.72654c-0.26092,-1.25802 -1.12428,-2.46908 -1.35668,-3.72995c-0.63229,-3.43047 -0.19859,-7.05525 -0.578,-10.52096c-0.41593,-3.79926 0.14436,-7.66447 -0.40454,-11.44947c-0.408,-2.81339 -1.53823,-5.66118 -2.29322,-8.44673c-1.33279,-6.65039 -3.57533,-13.17802 -4.83266,-19.82657c-1.24554,-6.58619 -0.74088,-13.49739 -0.24712,-20.11978c0.49213,-6.60045 -0.47895,-13.57031 1.08837,-20.08469c0.03274,-0.1361 0.06538,-0.27215 0.09791,-0.40819z" fill="#49555e" stroke="none" stroke-width="0.5" stroke-linecap="butt"/><path d="M456.77584,116.36052c0.06634,0.09548 0.09063,0.17656 0.09063,0.17656c2.11575,7.06098 10.08605,12.35321 16.06089,17.26445c7.48094,6.14925 14.88286,12.36566 22.30873,18.56117c4.23977,3.53731 9.1504,6.56658 13.1355,10.31488c2.88913,2.71746 4.99147,6.36873 8.43753,8.60611c4.66131,3.05154 10.52189,5.20556 14.93705,8.39814c1.49797,1.08317 2.30261,2.55372 4.14943,3.37277c2.23193,0.98984 5.72851,1.00913 5.8267,3.45362c5.35715,1.82034 8.77732,6.6931 14.62087,7.40737c1.61686,0.19763 4.60378,-0.26115 4.25809,2.12076c-0.07784,0.53634 -0.92891,0.75293 -1.39543,1.1276c-1.90741,1.5319 -3.66365,2.80917 -5.93384,3.95212c-1.6134,0.81228 -3.5969,1.53343 -5.04697,2.53299c-1.86625,1.28644 -3.24987,3.17927 -4.96362,4.61133c-2.07812,1.73652 -4.73002,3.13652 -6.64246,4.99658c-1.87538,1.82402 -3.30167,4.20009 -4.88602,6.21111c-5.7015,7.23648 -12.27968,14.41219 -19.5324,20.65926c-2.77031,2.37686 -4.35636,5.66516 -6.95357,8.07847c-0.99119,0.92101 -2.67928,1.29051 -3.71155,2.16966c-1.01033,0.86046 -1.52313,2.17418 -2.46704,3.09136c-2.25713,2.19321 -5.26155,4.06809 -7.7576,6.08726c-1.31267,0.67123 -6.57511,2.56039 -6.53016,4.08475c0.03139,1.06434 3.35799,1.92296 4.26712,2.34912c4.91775,2.30519 10.04825,3.35019 15.0715,5.31413c4.71175,1.84464 9.27208,3.01885 13.24045,6.03241c3.97211,3.01639 6.35671,7.67887 9.73822,11.17903c3.42106,3.5411 7.53049,6.889 10.471,10.72364c1.39537,1.81966 1.77984,3.92554 2.95387,5.79495c0.3051,0.48581 1.56777,1.64527 1.77692,2.10712c0.49269,1.08796 0.28245,2.72649 0.30823,3.87792c1.78932,5.40595 0.85599,12.38456 -2.21554,17.4493c-1.64435,2.71142 -4.6746,4.67054 -7.53113,6.39474c-2.83692,1.71021 -5.15228,3.96596 -7.96033,5.69597c-5.65216,3.48221 -11.7562,6.40525 -17.39174,9.95273c-2.80879,0.804 -5.869,1.39779 -8.57586,2.41093c-3.18245,1.19115 -6.01455,3.01607 -9.23722,4.17748c-3.70456,1.33507 -7.64553,1.96475 -11.34709,3.21279c-2.69453,0.82109 -6.26145,-0.70665 -9.01979,-1.45835c-7.29212,-1.98726 -14.61344,-3.05394 -21.11625,-6.66079c-2.3925,-1.32885 -4.82361,-3.07272 -7.40296,-4.12179c-1.68124,-0.68378 -4.37965,-0.66723 -5.83825,-1.6461c-1.1096,-0.74466 -1.5066,-2.4044 -2.40555,-3.3206c-2.4061,-2.45226 -5.5576,-4.88914 -8.24147,-7.17558c-3.05865,-2.60726 -6.06331,-5.56481 -9.71917,-7.60909c-4.82543,-2.69828 -10.10652,-5.64123 -13.79262,-9.42512c-2.11542,-0.47222 -5.09583,-1.32781 -6.86655,-2.42371c-1.18609,-0.73406 -1.64947,-2.2186 -2.77572,-2.99571c-2.90745,-2.00615 -7.16517,-3.15817 -10.31415,-4.9583c-2.04486,-1.16896 -3.78914,-2.92222 -5.55159,-4.36596c-3.61263,-2.95937 -6.32992,-6.42855 -9.52812,-9.69422c-1.15185,-1.17614 -2.59153,-1.8127 -2.38341,-3.56225c0.32837,-2.76057 5.69368,-5.95694 7.92572,-7.81705c3.72515,-5.46882 8.99872,-10.1604 15.10997,-13.92107c2.44571,-1.50501 4.97308,-2.57486 7.22745,-4.30977c0.99284,-0.76406 2.27764,-2.13833 3.4748,-2.64275c0.89469,-0.37697 2.07809,0.04035 2.98227,-0.32052c1.41078,-0.56306 2.7285,-2.67948 4.00045,-3.53981c2.8204,-1.90767 6.38273,-2.49381 9.328,-4.1059c1.9761,-1.08162 3.72646,-2.82054 5.54921,-4.09759c2.54836,-1.78543 6.12158,-3.0413 8.21364,-5.21424c2.07854,-2.15889 3.52876,-5.10084 5.17893,-7.50779c1.75575,-2.56094 3.79666,-4.73209 4.97516,-7.52972c0.33404,-0.78462 0.32014,-1.65499 0.67173,-2.43425c1.20673,-2.6746 4.52034,-4.66916 5.87922,-7.29421c0.22259,-0.42999 0.08226,-0.98792 0.42316,-1.36005c0.66676,-0.72783 2.22847,-1.15341 2.15619,-2.49363c-0.03893,-0.72189 -1.02776,-1.16341 -1.53578,-1.74868c-1.76399,-2.03222 -3.78241,-3.73797 -5.88703,-5.52777c-2.72072,-2.27714 -5.35485,-5.06914 -8.40271,-7.03011c-1.54435,-0.99362 -3.50509,-1.60024 -5.13644,-2.49595c-3.91732,-2.15087 -7.07632,-4.64934 -10.19839,-7.53612c-2.20774,-2.06253 -5.69923,-3.31528 -8.47967,-4.81142c-6.05786,-3.2597 -11.71313,-6.40593 -16.5819,-10.85368c-2.35875,-2.15733 -5.30315,-3.82376 -7.68376,-5.95388c-4.73482,-4.2366 -8.04838,-9.84305 -11.41042,-14.85443c-2.96417,-4.41832 -6.21011,-8.3299 -10.1396,-12.2023c-2.78601,-2.74554 -6.7416,-5.69945 -8.31342,-9.06277c-0.48634,-1.05842 -0.85349,-2.43737 -1.55311,-3.40695c-1.28189,-1.77655 -5.57441,-4.40755 -4.16534,-7.01864c0.44498,-0.82457 3.35201,-1.83901 4.33019,-2.15582c4.17133,-1.35101 8.88415,-1.93179 13.23464,-2.76379c2.36606,-0.24863 5.07842,-0.23614 7.37288,-0.76503c0.96958,-0.2235 1.78764,-0.80764 2.76334,-1.01174c2.40911,-0.50397 5.14567,-0.19187 7.60064,-0.37418c4.41035,-0.32752 8.78106,-1.26263 12.92627,-2.49216c4.99603,-1.4819 9.69368,-1.22415 14.81516,-2.02581c5.32415,-0.83337 10.55138,-2.67203 15.81393,-3.78388c7.90549,-1.67025 15.60819,-2.76286 23.6095,-3.52122c2.864,-0.27145 4.63677,-1.79346 7.52555,-1.8291c0.46124,1.15791 0.97171,1.86765 0.66392,3.1057c-0.43071,1.73248 -2.25938,2.58866 -2.32403,4.39405c-0.07697,2.14954 0.75179,3.93753 1.44209,5.78104z" fill="#49555e" stroke="none" stroke-width="0.5" stroke-linecap="butt"/><g><path d="M3.23913,186.881l6.68247,-66.07761l7.81949,0.90677l90.21802,6.6521l22.3337,1.38258l7.07992,-66.84082l217.45031,17.09009l20.04395,-9.8813l66.75596,5.71467l-3.13589,20.63805l74.39756,6.80644l-6.3288,50.78195l5.59949,0.94119l128.97547,7.92483l-7.68197,75.51397l-315.46424,-22.99616l-20.81214,-10.51627l-172.52428,-13.77753l-24.6504,5.51242l-44.71709,-2.68168l-25.04823,-4.59887z" fill="#4e586a" stroke="#000000" stroke-width="1" stroke-linecap="round"/><path d="M38.2055,122.92695l-8.10851,66.10482l-27.23371,-2.31579l7.12076,-65.48523z" data-paper-data="{&quot;origPos&quot;:[&quot;Point&quot;,59.24409,105.08161]}" fill="#515054" stroke="#000000" stroke-width="1" stroke-linecap="round"/><path d="M61.16162,125.58127l-6.43471,50.30268l-9.49949,-0.85431l8.03313,-49.72322z" data-paper-data="{&quot;origPos&quot;:[&quot;Point&quot;,128.51413,117.10689]}" fill="#191e21" stroke="#000000" stroke-width="1" stroke-linecap="round"/><path d="M65.02816,177.87449l5.60571,-49.44059l33.24016,3.06641l-6.07893,46.94378z" data-paper-data="{&quot;origPos&quot;:[&quot;Point&quot;,187.7568,144.37892]}" fill="#191e21" stroke="#000000" stroke-width="1" stroke-linecap="round"/><path d="M110.01315,176.26754l4.53412,-46.28833l11.28092,1.44727l-4.77072,45.03992z" data-paper-data="{&quot;origPos&quot;:[&quot;Point&quot;,255.6755,166.55878]}" fill="#191e21" stroke="#000000" stroke-width="1" stroke-linecap="round"/><path d="M129.74583,129.75351l-132.83723,-9.94844l-3.66411,-7.19432l138.82719,9.92851z" data-paper-data="{&quot;origPos&quot;:[&quot;Point&quot;,174.03905,51.35519]}" fill="#f1f2f4" stroke="#000000" stroke-width="1" stroke-linecap="round"/><path d="M248.28041,71.02144l-14.19407,128.78132l-109.04805,-8.19438l12.15687,-128.70074z" data-paper-data="{&quot;origPos&quot;:[&quot;Point&quot;,412.01868,159.75407]}" fill="#515054" stroke="#000000" stroke-width="1" stroke-linecap="round"/><path d="M151.33678,194.04755l12.59391,-118.89776l57.5945,4.70826l-12.68391,118.00637z" data-paper-data="{&quot;origPos&quot;:[&quot;Point&quot;,406.99296,172.66258]}" fill="#292e39" stroke="#000000" stroke-width="1" stroke-linecap="round"/><path d="M165.50259,138.66019l41.95407,2.63181l-4.14686,47.85558l-45.50073,-3.97042z" data-paper-data="{&quot;origPos&quot;:[&quot;Point&quot;,378.07326,237.29121]}" fill="#69655b" stroke="#000000" stroke-width="1" stroke-linecap="round"/><path d="M170.50542,187.1904l5.8423,-48.19217l22.19075,1.17459l-6.78963,48.43007z" data-paper-data="{&quot;origPos&quot;:[&quot;Point&quot;,381.50619,236.80049]}" fill="#121214" stroke="#000000" stroke-width="1" stroke-linecap="round"/><path d="M171.30659,94.31191l6.89504,-2.41514l11.85203,-2.20351l7.07206,1.13694l9.50461,2.54727l5.66683,3.95683l-5.30778,37.92232l-40.12412,-2.4969z" data-paper-data="{&quot;origPos&quot;:[&quot;Point&quot;,431.0663,121.64691]}" fill="#69655b" stroke="#000000" stroke-width="1" stroke-linecap="round"/><path d="M246.63815,140.06497l50.72159,3.43213l-4.67282,38.89234l-52.03489,-3.22124z" data-paper-data="{&quot;origPos&quot;:[&quot;Point&quot;,553.13113,288.46675]}" fill="#191e21" stroke="#000000" stroke-width="1" stroke-linecap="round"/><path d="M313.85815,213.64741l8.13472,-86.37528l5.71108,13.11537l28.84322,1.04963l-8.11428,76.60603l-30.92592,-2.28028z" data-paper-data="{&quot;origPos&quot;:[&quot;Point&quot;,672.98512,360.29152]}" fill="#515054" stroke="#000000" stroke-width="1" stroke-linecap="round"/><path d="M641.70472,162.21369l-9.00903,76.34773l-30.02713,-2.06015l9.34075,-75.99716z" data-paper-data="{&quot;origPos&quot;:[&quot;Point&quot;,1231.84396,619.06553]}" fill="#515054" stroke="#000000" stroke-width="1" stroke-linecap="round"/><path d="M602.84749,236.55294l-90.73252,-6.99777l6.18472,-60.13032l10.78728,-7.82134l73.5958,5.11873l6.76393,9.26933z" data-paper-data="{&quot;origPos&quot;:[&quot;Point&quot;,1105.71712,579.86303]}" fill="#c5b6a0" stroke="#000000" stroke-width="1" stroke-linecap="round"/><path d="M514.95415,229.30289l6.95946,-58.30371l8.18196,-5.85927l63.39114,4.82795l6.85586,6.66031l-6.04321,58.7944z" data-paper-data="{&quot;origPos&quot;:[&quot;Point&quot;,1099.26852,580.21194]}" fill="#9da0a7" stroke="#000000" stroke-width="1" stroke-linecap="round"/><path d="M347.3009,217.67208l7.56269,-60.95196l9.01097,-6.72136l139.84228,9.54174l8.69089,8.4882l-6.30194,61.23725z" data-paper-data="{&quot;origPos&quot;:[&quot;Point&quot;,850.73319,468.59816]}" fill="#c5b6a0" stroke="#000000" stroke-width="1" stroke-linecap="round"/><path d="M350.96608,218.327l6.11194,-59.44329l6.47034,-5.36998l134.2018,8.8181l6.80736,7.11834l-6.669,59.47915z" data-paper-data="{&quot;origPos&quot;:[&quot;Point&quot;,845.68849,469.53755]}" fill="#9da0a7" stroke="#000000" stroke-width="1" stroke-linecap="round"/><path d="M664.88297,164.07658l-337.6612,-23.66604l-19.19036,-48.6531l1.63163,-4.9574l19.70191,47.30598l341.48235,25.02488z" data-paper-data="{&quot;origPos&quot;:[&quot;Point&quot;,1024.60792,349.36551]}" fill="#f1f2f4" stroke="#000000" stroke-width="1" stroke-linecap="round"/><path d="M438.88682,92.55834l96.95429,7.45655l-7.93428,5.26204l-89.2575,-8.73546z" data-paper-data="{&quot;origPos&quot;:[&quot;Point&quot;,1042.63553,282.88868]}" fill="#f1f2f4" stroke="#000000" stroke-width="1" stroke-linecap="round"/><path d="M436.87084,118.99078l2.34493,-22.13827l68.22757,50.57623l-177.8509,-13.72909l-20.19728,-46.11155l49.00996,3.92143l11.67579,22.09497l66.545,5.52208l5.05692,-42.51843z" data-paper-data="{&quot;origPos&quot;:[&quot;Point&quot;,868.70236,276.97838]}" fill="#aaaaa8" stroke="#000000" stroke-width="1" stroke-linecap="round"/><path d="M383.26018,75.80098l47.57834,3.50813l-2.76626,31.33941l-47.0617,-3.16229z" data-paper-data="{&quot;origPos&quot;:[&quot;Point&quot;,883.22152,216.64692]}" fill="#191e21" stroke="#000000" stroke-width="1" stroke-linecap="round"/><path d="M361.88651,80.84145l-235.44814,-17.97593l-6.77499,-7.4237l229.87239,16.64159l15.78771,-9.76069l100.65161,9.11397l-4.53827,6.2818l-86.82496,-7.32514z" data-paper-data="{&quot;origPos&quot;:[&quot;Point&quot;,680.26883,74.69009]}" fill="#f1f2f4" stroke="#000000" stroke-width="1" stroke-linecap="round"/><path d="M366.21023,159.26825l131.36252,7.81937l-0.98084,9.26l-132.63241,-9.27044l0.04882,-8.14097z" data-paper-data="{&quot;origPos&quot;:[&quot;Point&quot;,873.43827,412.47927]}" fill="#252627" stroke="#000000" stroke-width="1" stroke-linecap="round"/><path d="M529.33142,170.61707l63.95097,4.88501l-0.87946,6.38295l-64.13494,-5.06828z" data-paper-data="{&quot;origPos&quot;:[&quot;Point&quot;,1127.26435,521.45235]}" fill="#252627" stroke="#000000" stroke-width="1" stroke-linecap="round"/><path d="M249.66947,89.03977c-0.11174,-0.03373 -0.22842,-0.08837 -0.34837,-0.17027c-0.80161,-0.54711 -0.14582,-1.21587 -0.14582,-1.21587c2.72687,-2.732 11.94696,-4.61863 16.04219,-3.08656c3.70002,1.38421 6.13486,4.46937 8.2707,7.1542c0.69916,2.42604 1.40427,5.42348 0.3956,7.86056c-3.3047,7.98446 -15.66284,8.17767 -22.55934,3.67108c-3.63091,-4.54606 -5.01338,-9.76934 -1.65492,-14.21313z" data-paper-data="{&quot;index&quot;:null}" fill="#ffffff" stroke="none" stroke-width="0.5" stroke-linecap="butt"/><path d="M282.13717,89.55122c-0.31123,-0.48459 0.17089,-0.94512 0.17089,-0.94512c2.38643,-2.15419 5.26724,-1.53752 8.49708,-1.63931c9.5861,-0.30203 15.27198,3.88426 14.30803,12.12935c-0.63277,2.88583 -1.13835,6.61915 -3.47285,8.96477c-4.86404,4.88725 -16.06204,3.09771 -19.45214,-2.29478c-0.88022,-1.4002 -1.20365,-3.24848 -1.57725,-4.77786c-0.7144,-3.20255 -1.23195,-8.52069 1.52624,-11.43708z" data-paper-data="{&quot;index&quot;:null}" fill="#ffffff" stroke="none" stroke-width="0.5" stroke-linecap="butt"/><path d="M269.02632,95.20865c0.11152,-0.94984 1.12484,-1.64446 2.26334,-1.5514c1.13845,0.09306 1.97099,0.93849 1.85945,1.88838c-0.11152,0.94984 -1.12483,1.64446 -2.26335,1.5514c-1.13845,-0.09306 -1.97099,-0.93849 -1.85946,-1.88838z" data-paper-data="{&quot;index&quot;:null}" fill="#000000" stroke="none" stroke-width="0.5" stroke-linecap="butt"/><path d="M299.83244,98.03727c0.11152,-0.94984 1.12483,-1.64446 2.26334,-1.5514c1.13845,0.09306 1.97098,0.93849 1.85945,1.88839c-0.11152,0.94984 -1.12483,1.64446 -2.26334,1.5514c-1.13845,-0.09306 -1.97099,-0.9385 -1.85945,-1.88839z" data-paper-data="{&quot;index&quot;:null}" fill="#000000" stroke="none" stroke-width="0.5" stroke-linecap="butt"/><path d="M240.1426,61.85566c0.42173,-0.78918 1.36759,-0.43732 1.36759,-0.43732l0.81308,0.36751c2.06062,1.74745 4.54291,2.88837 6.78878,4.43557c8.53068,5.89366 16.11655,12.76173 24.68329,18.58352c0,0 0.80161,0.54711 0.14581,1.21587c-0.65575,0.66881 -1.45731,0.12165 -1.45731,0.12165c-8.54511,-5.85489 -16.15653,-12.69252 -24.69286,-18.59006c-2.29456,-1.59008 -4.8238,-2.76435 -6.94254,-4.55322l-0.18172,-0.00255c0,0 -0.94589,-0.35186 -0.52415,-1.14103z" data-paper-data="{&quot;index&quot;:null}" fill="#ffffff" stroke="none" stroke-width="0.5" stroke-linecap="butt"/><path d="M331.52181,66.32324c0.37062,0.80681 -0.5964,1.11605 -0.5964,1.11605l-0.57289,0.17186c-5.1685,2.47227 -10.75447,4.33847 -16.45526,5.74242c-10.91263,2.68106 -21.12973,8.38954 -31.60716,12.1832c0,0 -0.95001,0.34399 -1.3623,-0.44866c-0.41229,-0.79264 0.53773,-1.13661 0.53773,-1.13661c10.56261,-3.82446 20.84323,-9.54882 31.8463,-12.25556c5.5415,-1.36011 10.99452,-3.16072 16.00686,-5.58223l0.8655,-0.28809c0,0 0.96702,-0.30921 1.33765,0.4976z" data-paper-data="{&quot;index&quot;:null}" fill="#ffffff" stroke="none" stroke-width="0.5" stroke-linecap="butt"/><path d="M304.9465,112.42527c0.80249,1.55024 1.28511,3.19512 2.3077,4.69135c0.97252,1.42297 2.87179,2.8502 3.07878,4.56274c0.38064,3.14917 -3.01049,7.26932 -4.82876,9.82722c-2.07634,2.33114 -3.48912,5.35147 -6.04638,7.35615c-4.78887,3.75408 -10.65813,3.42542 -16.74244,3.67893c-6.3555,0.26428 -12.72887,-0.10631 -18.98717,-1.01518c-3.54689,-0.51511 -7.79388,-0.96745 -10.84205,-2.59116c-8.67366,-3.73386 -11.23347,-13.22228 -11.27919,-20.67017c0.40715,-3.93394 2.13126,-7.64681 4.37745,-11.13912c0.3047,-0.47375 1.40645,-3.4098 2.34086,-3.33645c3.0122,0.23646 3.99984,6.00772 5.28475,7.75282c4.83332,6.46257 16.92498,8.41333 25.33673,7.90828c4.01028,-0.28634 9.59535,-0.12135 13.12928,-1.97719c3.75225,-1.97049 5.73301,-5.10999 9.83276,-6.81981c1.62784,-0.15984 2.25789,-0.43016 3.04785,0.87116l0.08458,0.0369c0,0 0.45543,0.47577 -0.09473,0.86351zM302.93463,111.74912c-0.18264,0.03888 -0.38896,0.08709 -0.59422,0.10315c-3.82376,1.71555 -5.84487,4.81609 -9.45854,6.6768c-3.82548,1.96977 -9.48542,1.85608 -13.81689,2.16922c-8.99831,0.5405 -21.57156,-1.62851 -26.73124,-8.49837c-1.55407,-2.14134 -1.82051,-5.25659 -3.78712,-7.17255c-0.46403,-0.45208 -0.22926,1.18693 -0.50958,1.73426c-0.44152,0.8621 -1.11163,1.71461 -1.58284,2.58867c-1.63534,3.03343 -2.9989,5.62842 -3.34845,8.96552c0.05184,7.01363 2.3605,16.00841 10.53359,19.53719c2.8448,1.56519 7.00291,1.95494 10.34726,2.44067c6.14851,0.893 12.40969,1.25873 18.65398,0.99803c5.72359,-0.23847 11.25938,0.15564 15.78769,-3.33914c2.47143,-1.90735 3.83191,-4.90352 5.82699,-7.1391c1.61696,-2.28535 4.91572,-6.19537 4.58511,-9.00999c-0.16993,-1.44674 -2.06462,-2.86041 -2.88922,-4.06694c-1.25867,-1.84166 -1.6938,-3.91694 -2.92357,-5.74428c0,0 -0.06841,-0.10234 -0.09295,-0.24314z" fill="#ffffff" stroke="none" stroke-width="0.5" stroke-linecap="butt"/><path d="M303.07153,111.97236c1.22977,1.82735 1.66929,3.91184 2.92796,5.7535c0.8246,1.20653 2.72073,2.62689 2.89066,4.07364c0.33061,2.81462 -2.96957,6.73926 -4.58653,9.02461c-1.99508,2.23559 -3.36299,5.24511 -5.83442,7.15246c-4.52831,3.49477 -10.08818,3.11597 -15.81177,3.35446c-6.24429,0.26069 -12.54817,-0.1086 -18.69668,-1.00161c-3.34435,-0.48573 -7.51689,-0.88648 -10.36169,-2.45167c-8.17309,-3.52878 -10.4902,-12.55757 -10.54204,-19.5712c0.34955,-3.3371 1.71947,-5.94493 3.35481,-8.97834c0.47121,-0.87406 1.14419,-1.73001 1.58571,-2.5921c0.28032,-0.54733 0.12282,-2.13344 0.58686,-1.68137c1.96661,1.91596 2.23745,5.02629 3.79151,7.16764c5.15967,6.86986 17.722,8.98387 26.72031,8.44337c4.33147,-0.31314 9.91391,-0.15106 13.73938,-2.12083c3.61367,-1.86071 5.63748,-4.95659 9.46124,-6.67214c0.20527,-0.01606 0.49887,-0.10498 0.68151,-0.14386c0.02454,0.1408 0.09318,0.24349 0.09318,0.24349z" data-paper-data="{&quot;noHover&quot;:false,&quot;origItem&quot;:[&quot;Path&quot;,{&quot;applyMatrix&quot;:true,&quot;segments&quot;:[[[302.93463,162.43402],[0.02454,0.11212],[-0.18264,0.03096]],[[302.34041,162.51615],[0.20527,-0.01279],[-3.82376,1.36606]],[[292.88187,167.83276],[3.61367,-1.48165],[-3.82548,1.56849]],[[279.06498,169.56007],[4.33147,-0.24935],[-8.99831,0.43039]],[[252.33375,162.79298],[5.15967,5.47034],[-1.55407,-1.70511]],[[248.54663,157.08163],[1.96661,1.52564],[-0.46403,-0.35998]],[[248.03705,158.46259],[0.28032,-0.43583],[-0.44152,0.68647]],[[246.4542,160.5239],[0.47121,-0.696],[-1.63534,2.41546]],[[243.10575,167.66297],[0.34955,-2.65727],[0.05184,5.58482]],[[253.63934,183.22006],[-8.17309,-2.8099],[2.8448,1.24633]],[[263.9866,185.16352],[-3.34435,-0.38678],[6.14851,0.71108]],[[282.64058,185.95823],[-6.24429,0.20758],[5.72359,-0.18989]],[[298.42827,183.29934],[-4.52831,2.78282],[2.47143,-1.51879]],[[304.25526,177.61461],[-1.99508,1.78016],[1.61696,-1.81978]],[[308.84038,170.44012],[0.33061,2.24123],[-0.16993,-1.15201]],[[305.95115,167.20169],[0.8246,0.96074],[-1.25867,-1.46648]],[[303.02758,162.62763],[1.22977,1.45508],[0,0]]],&quot;closed&quot;:true}]}" fill="#600000" stroke="none" stroke-width="0.5" stroke-linecap="butt"/></g></g></g></g></svg>