<svg version="1.1" xmlns="http://www.w3.org/2000/svg" xmlns:xlink="http://www.w3.org/1999/xlink" width="2878.25006" height="1619.57958" viewBox="0,0,2878.25006,1619.57958"><g transform="translate(1117.37278,629.80931)"><g data-paper-data="{&quot;isPaintingLayer&quot;:true}" fill-rule="nonzero" stroke-linejoin="miter" stroke-miterlimit="10" stroke-dasharray="" stroke-dashoffset="0" style="mix-blend-mode: normal"><path d="M464.76567,124.30279c0.03253,0.16147 0.06517,0.32296 0.09791,0.48448c1.56732,7.73188 0.59624,16.00436 1.08837,23.83839c0.49376,7.86007 0.99842,16.06293 -0.24712,23.88003c-1.25733,7.89112 -3.49987,15.63872 -4.83266,23.53203c-0.75499,3.30614 -1.88522,6.68617 -2.29322,10.02537c-0.5489,4.49239 0.01139,9.07998 -0.40454,13.5893c-0.37941,4.11343 0.05429,8.41566 -0.578,12.48726c-0.2324,1.49652 -1.09576,2.93392 -1.35668,4.42705c-0.40443,2.31438 -0.19255,4.49246 -0.90757,6.7968c-1.56535,5.0447 -0.88548,10.52115 -0.88549,15.68361c-0.00001,2.66511 -0.67132,5.21743 -0.75059,7.89627c-0.16316,5.50598 -1.02321,10.90317 -1.65537,16.38376c1.13445,-0.28343 2.5122,-0.17121 3.73873,-0.26369c5.52873,-0.41692 10.93131,-0.59866 16.5183,-0.59949c2.28389,-0.00034 5.11665,0.56653 6.61719,-0.78575c7.04516,-0.99266 15.73392,-1.75148 22.89001,-0.99318c3.02641,0.3207 5.66839,0.99142 8.78884,1.12664c2.23782,0.23879 5.5677,0.10835 7.6333,0.6865c0.48891,0.13684 0.72966,0.58615 1.19663,0.76141c1.59748,0.59955 3.86022,0.87366 5.59789,1.41958c2.27565,0.71492 5.01384,0.97312 7.16643,1.87618c2.55551,1.07209 4.73247,2.97241 7.11831,4.26722c3.17396,1.72334 6.54747,3.32024 10.25121,4.34225c1.39297,0.38439 3.09254,0.39438 4.42388,0.88807c1.3517,0.50124 2.43253,1.55967 3.57404,2.27848c2.67265,1.68295 5.55363,3.20198 8.33546,4.77948c1.92723,1.09483 3.9871,2.8767 4.85316,4.60908c0.78447,1.56918 0.14492,4.20294 0.14527,5.87304c0.00086,4.15817 0.00105,8.31636 0.00106,12.47453c0,3.87376 -1.2963,7.42725 -1.48669,11.24982c-0.09972,2.002 0.74937,5.10694 -0.13303,6.98023c-0.17376,0.36888 -0.77693,0.54625 -0.99814,0.90033c-0.70917,1.13511 -0.45039,3.0547 -0.51921,4.28359c-0.00229,0.30962 0.00929,2.39692 -0.12211,2.55307c-1.33416,1.58544 -5.89001,1.12952 -7.91703,1.14128c-7.00142,0.04064 -14.0041,0.01704 -21.0057,0.01707c-10.5,0.00004 -21,0.00001 -31.5,0.00001c-3.48704,-0.01225 -6.66599,1.42337 -10.0893,1.76925c-3.93447,0.39752 -8.07011,-0.37373 -12.00324,0.01042c-3.0839,0.30122 -5.82861,0.59866 -8.99762,0.5994c-10.48362,0.00049 -21.09827,0.42132 -31.50621,-0.55773c-5.93998,-0.06033 -12.10184,0.35421 -18.014,-0.03898c-4.51827,-0.30049 -8.78663,-0.5926 -13.3652,-0.59265c-2.99999,-0.00001 -5.99999,-0.00001 -8.99999,-0.00001c-0.88198,0 -1.88496,-0.40681 -2.64442,-0.06777c-0.42142,0.18814 -0.36924,0.7504 -0.79459,0.93342c-0.79007,0.33994 -3.57783,0.52869 -4.56519,0.72013c-1.32117,0.25616 -4.80228,-0.38186 -5.79328,0.1167c-0.40391,0.20322 -0.27498,0.77237 -0.68182,0.97221c-1.71999,0.84485 -5.02581,0.31217 -6.58595,-0.3406c-3.06775,-1.40792 -2.31427,-4.186 -2.43577,-6.62778c-0.28205,-5.66837 -0.16631,-11.35782 -0.16724,-17.03017c-0.00131,-7.93831 -0.00191,-15.87662 -0.00197,-23.81493c0,-2.23992 -0.33154,-4.64504 0.00486,-6.86867c0.22649,-1.49713 1.09643,-2.93522 1.35633,-4.42855c0.23134,-1.32925 -0.48991,-3.5104 0.27851,-4.71672c0.2253,-0.35368 0.93205,-0.40899 1.21251,-0.73934c1.21989,-1.43696 1.22902,-4.7559 1.68805,-6.46317c1.3557,-7.87874 1.81839,-15.8737 4.24833,-23.59265c1.15296,-3.65244 1.34262,-7.47584 2.15746,-11.17816c0.90904,-4.13037 2.29434,-8.01565 2.37302,-12.21797c0.14918,-7.96834 0.82608,-15.80905 0.83979,-23.74429c0.01444,-3.78825 1.76448,-7.48969 2.1994,-11.25326c0.4709,-4.07492 0.16166,-8.3328 0.16244,-12.42449c0.00158,-7.86303 0.44144,-15.73682 0.8354,-23.59369c-1.24841,-1.06223 -0.99417,-1.82684 -1.56083,-3.10217c-0.27794,-0.62554 -1.1094,-1.44488 -1.33314,-2.06885c-0.6594,-1.8389 0.05916,-3.87436 -0.29089,-5.73221c-0.20832,-1.10566 -0.95253,-2.15878 -1.20394,-3.26099c-0.41376,-1.81401 0.17274,-3.86446 -0.35759,-5.63097c-0.28684,-0.95546 -1.4003,-2.00953 -2.02949,-2.85117c-2.79509,-3.73884 -2.29412,-8.10721 -3.40002,-12.25204c-0.99371,-3.72436 -2.29251,-7.31366 -3.19669,-11.05939c-1.37576,-5.69935 -1.60957,-11.2253 -1.61937,-17.01721c-0.00254,-1.50272 -0.11795,-3.03679 -0.00349,-4.53674c0.03886,-0.50923 -0.25874,-1.15075 0.20325,-1.52247c0.46197,-0.37168 1.33144,-0.16531 1.99716,-0.24797c5.48577,-0.25678 11.04722,-0.07823 16.54358,-0.07848c2.85465,-0.00013 6.3598,-0.41965 9.15018,0.01135c2.06469,0.31893 3.45577,0.92172 5.65462,1.03844c10.40297,0.554 21.01625,0.13961 31.44342,0.13974c4.49999,0 8.99999,0 13.49999,0c0.93616,0 4.32134,-0.31198 4.99844,0.14333c0.22907,0.15403 0.57394,2.29219 0.59995,2.63995c0.05909,0.79 -0.36715,1.55849 -0.59331,2.33107c-0.49125,1.67812 -0.07573,3.83441 -0.1162,5.55964c-0.08082,3.44499 -1.28715,6.73136 -1.62956,10.14904c-0.11938,1.1915 0.04074,2.4157 0.09077,3.62818z" data-paper-data="{&quot;index&quot;:null}" fill="#4e586a" stroke="none" stroke-width="0.5" stroke-linecap="butt"/><path d="M144.53569,124.30289c0.05003,-1.21248 0.21015,-2.43668 0.09077,-3.62818c-0.34241,-3.41768 -1.54874,-6.70405 -1.62956,-10.14904c-0.04047,-1.72523 0.37505,-3.88152 -0.1162,-5.55963c-0.22616,-0.77258 -0.6524,-1.54107 -0.59331,-2.33107c0.02601,-0.34776 0.37088,-2.48592 0.59995,-2.63995c0.6771,-0.4553 4.06228,-0.14333 4.99844,-0.14333c4.5,0 9,0 13.49999,0c10.42717,-0.00013 21.04045,0.41427 31.44342,-0.13974c2.19885,-0.11672 3.58993,-0.71951 5.65462,-1.03844c2.79038,-0.431 6.29553,-0.01148 9.15018,-0.01135c5.49636,0.00025 11.05781,-0.1783 16.54358,0.07848c0.66572,0.08267 1.53519,-0.12371 1.99716,0.24797c0.46199,0.37172 0.16439,1.01324 0.20325,1.52247c0.11446,1.49994 -0.00095,3.03402 -0.00349,4.53674c-0.0098,5.79191 -0.24361,11.31786 -1.61937,17.01721c-0.90418,3.74573 -2.20298,7.33504 -3.19669,11.05939c-1.1059,4.14484 -0.60493,8.5132 -3.40002,12.25204c-0.62919,0.84163 -1.74265,1.89571 -2.02949,2.85117c-0.53033,1.7665 0.05617,3.81696 -0.35759,5.63097c-0.25141,1.10221 -0.99562,2.15533 -1.20394,3.26099c-0.35005,1.85786 0.36851,3.89332 -0.29089,5.73221c-0.22374,0.62397 -1.0552,1.44331 -1.33314,2.06885c-0.56666,1.27533 -0.31242,2.03994 -1.56083,3.10217c0.39396,7.85687 0.83382,15.73066 0.8354,23.59369c0.00078,4.09169 -0.30846,8.34957 0.16244,12.42449c0.43492,3.76357 2.18496,7.46501 2.1994,11.25326c0.01371,7.93524 0.69061,15.77595 0.83979,23.74429c0.07868,4.20232 1.46398,8.0876 2.37302,12.21797c0.81484,3.70232 1.0045,7.52572 2.15746,11.17816c2.42994,7.71895 2.89263,15.71391 4.24833,23.59265c0.45903,1.70727 0.46816,5.02621 1.68805,6.46317c0.28046,0.33035 0.98721,0.38566 1.21251,0.73934c0.76842,1.20632 0.04717,3.38748 0.27851,4.71672c0.2599,1.49333 1.12984,2.93142 1.35633,4.42855c0.3364,2.22363 0.00486,4.62876 0.00486,6.86867c-0.00006,7.93831 -0.00066,15.87662 -0.00197,23.81493c-0.00093,5.67235 0.11481,11.36181 -0.16724,17.03017c-0.1215,2.44178 0.63198,5.21987 -2.43577,6.62778c-1.56014,0.65277 -4.86596,1.18545 -6.58595,0.3406c-0.40684,-0.19984 -0.27791,-0.76899 -0.68182,-0.97221c-0.991,-0.49856 -4.47211,0.13946 -5.79328,-0.1167c-0.98736,-0.19144 -3.77512,-0.38019 -4.56519,-0.72013c-0.42535,-0.18302 -0.37317,-0.74528 -0.79459,-0.93342c-0.75946,-0.33904 -1.76244,0.06777 -2.64442,0.06777c-3,0 -6,0 -8.99999,0.00001c-4.57857,0.00005 -8.84693,0.29216 -13.3652,0.59265c-5.91216,0.39319 -12.07402,-0.02135 -18.014,0.03898c-10.40794,0.97905 -21.02259,0.55822 -31.50621,0.55773c-3.16901,-0.00074 -5.91372,-0.29818 -8.99762,-0.5994c-3.93313,-0.38414 -8.06877,0.38711 -12.00324,-0.01042c-3.42331,-0.34588 -6.60226,-1.7815 -10.0893,-1.76925c-10.5,0 -21,0.00003 -31.5,-0.00001c-7.0016,-0.00003 -14.00428,0.02356 -21.0057,-0.01707c-2.02702,-0.01176 -6.58287,0.44417 -7.91703,-1.14128c-0.1314,-0.15616 -0.11982,-2.24345 -0.12211,-2.55307c-0.06882,-1.22889 0.18996,-3.14848 -0.51921,-4.28359c-0.22121,-0.35408 -0.82438,-0.53145 -0.99814,-0.90033c-0.8824,-1.8733 -0.03331,-4.97823 -0.13303,-6.98023c-0.19039,-3.82257 -1.48669,-7.37606 -1.48669,-11.24982c0.00001,-4.15817 0.0002,-8.31636 0.00106,-12.47453c0.00035,-1.6701 -0.6392,-4.30386 0.14527,-5.87304c0.86606,-1.73239 2.92593,-3.51425 4.85316,-4.60908c2.78183,-1.5775 5.66281,-3.09653 8.33546,-4.77948c1.14151,-0.71881 2.22234,-1.77724 3.57404,-2.27848c1.33134,-0.49369 3.03091,-0.50368 4.42388,-0.88807c3.70374,-1.02201 7.07725,-2.61891 10.25121,-4.34225c2.38584,-1.29482 4.5628,-3.19513 7.11831,-4.26722c2.15259,-0.90306 4.89078,-1.16126 7.16643,-1.87618c1.73767,-0.54591 4.00041,-0.82002 5.59789,-1.41958c0.46697,-0.17525 0.70772,-0.62456 1.19663,-0.76141c2.0656,-0.57815 5.39548,-0.44771 7.6333,-0.6865c3.12045,-0.13522 5.76243,-0.80594 8.78884,-1.12664c7.15609,-0.7583 15.84485,0.00052 22.89001,0.99318c1.50054,1.35228 4.3333,0.78541 6.61719,0.78575c5.58699,0.00083 10.98957,0.18257 16.5183,0.59949c1.22653,0.09247 2.60428,-0.01975 3.73873,0.26369c-0.63216,-5.48059 -1.49221,-10.87777 -1.65537,-16.38376c-0.07927,-2.67884 -0.75058,-5.23116 -0.75059,-7.89627c-0.00001,-5.16246 0.67986,-10.63891 -0.88549,-15.68361c-0.71502,-2.30434 -0.50314,-4.48242 -0.90757,-6.7968c-0.26092,-1.49313 -1.12428,-2.93053 -1.35668,-4.42705c-0.63229,-4.0716 -0.19859,-8.37383 -0.578,-12.48726c-0.41593,-4.50932 0.14436,-9.09691 -0.40454,-13.5893c-0.408,-3.33919 -1.53823,-6.71922 -2.29322,-10.02537c-1.33279,-7.8933 -3.57533,-15.64091 -4.83266,-23.53203c-1.24554,-7.8171 -0.74088,-16.01996 -0.24712,-23.88003c0.49213,-7.83402 -0.47895,-16.10651 1.08837,-23.83839c0.03274,-0.16152 0.06538,-0.32301 0.09791,-0.48448z" fill="#4e586a" stroke="none" stroke-width="0.5" stroke-linecap="butt"/><path d="M-2.50707,237.12525l0.64809,-79.47688l7.87944,0.48979l90.56298,1.0979l22.39504,-0.04392l0.97493,-80.41918l218.37795,3.90908l19.08656,-13.33148l67.08336,1.7595l-1.24815,24.90271l74.80227,2.48391l-1.68782,61.17019l5.66899,0.69954l129.32435,-0.32468l-0.78572,90.83018l-316.64642,-3.5233l-21.70933,-10.98731l-173.28014,-3.36235l-24.0774,8.46008l-44.83205,0.19138l-25.39452,-3.59371z" fill="#4e586a" stroke="#000000" stroke-width="1" stroke-linecap="round"/><path d="M26.25455,158.50132l-2.06754,79.61772l-27.36586,-0.69921l1.13904,-78.80222z" fill="#515054" stroke="#000000" stroke-width="1" stroke-linecap="round"/><path d="M49.38599,159.93l-1.83705,60.60544l-9.54982,-0.2995l3.48361,-60.03432z" fill="#191e21" stroke="#000000" stroke-width="1" stroke-linecap="round"/><path d="M58.00164,222.13195l1.08892,-59.5122l33.42329,1.14008l-1.78806,56.5642z" fill="#191e21" stroke="#000000" stroke-width="1" stroke-linecap="round"/><path d="M102.71041,216.79489l0.30738,-55.66355l11.38008,0.87284l-0.65694,54.18954z" fill="#191e21" stroke="#000000" stroke-width="1" stroke-linecap="round"/><path d="M118.1519,159.70728l-133.35916,-1.80044l-4.30843,-8.31964l139.33,1.32167z" fill="#f1f2f4" stroke="#000000" stroke-width="1" stroke-linecap="round"/><path d="M230.99771,80.51392l-2.43005,154.9846l-109.47902,-1.51094l0.40607,-154.73355z" fill="#515054" stroke="#000000" stroke-width="1" stroke-linecap="round"/><path d="M145.53321,234.90526l1.73423,-143.05122l57.85674,1.25256l-1.90511,141.99275z" fill="#292e39" stroke="#000000" stroke-width="1" stroke-linecap="round"/><path d="M154.61617,167.63593l42.07246,-0.04112l0.22143,57.50716l-45.73074,-1.28928z" fill="#69655b" stroke="#000000" stroke-width="1" stroke-linecap="round"/><path d="M164.02228,225.25443l1.43848,-58.03818l22.23358,-0.28163l-2.36142,58.39444z" fill="#121214" stroke="#000000" stroke-width="1" stroke-linecap="round"/><path d="M156.36636,114.19451l6.65527,-3.41l11.61722,-3.53357l7.15513,0.82163l9.70903,2.32236l6.01066,4.29842l-1.84036,45.72408l-40.23552,0.06338z" fill="#69655b" stroke="#000000" stroke-width="1" stroke-linecap="round"/><path d="M235.64526,163.15257l50.88751,0.24946l-1.11894,46.83513l-52.17783,0.10233z" fill="#191e21" stroke="#000000" stroke-width="1" stroke-linecap="round"/><path d="M309.36933,245.98561l0.24845,-103.84492l6.88848,15.24043l28.85546,-0.93622l-1.11737,92.16815l-31.04417,-0.37635z" fill="#515054" stroke="#000000" stroke-width="1" stroke-linecap="round"/><path d="M631.58695,159.61733l-2.03305,91.9274l-30.12793,-0.18153l2.39572,-91.53363z" fill="#515054" stroke="#000000" stroke-width="1" stroke-linecap="round"/><path d="M599.60907,251.41134l-91.10746,-1.47193l0.69317,-72.33148l10.04414,-10.16657l73.84919,0.52782l7.58819,10.56406z" fill="#c5b6a0" stroke="#000000" stroke-width="1" stroke-linecap="round"/><path d="M343.08186,248.25552l1.99236,-73.41807l8.37309,-8.71708l140.30695,0.78235l9.43847,9.48417l-0.70929,73.66326z" fill="#c5b6a0" stroke="#000000" stroke-width="1" stroke-linecap="round"/><path d="M654.86783,160.08327l-338.84024,-2.63801l-23.56385,-56.68782l1.17564,-6.04851l23.95129,55.03902l342.77405,3.97175z" fill="#f1f2f4" stroke="#000000" stroke-width="1" stroke-linecap="round"/><path d="M423.01409,91.77617l97.35303,1.54767l-7.43235,6.89126l-89.79489,-3.66068z" fill="#f1f2f4" stroke="#000000" stroke-width="1" stroke-linecap="round"/><path d="M423.41009,123.51869l0.3229,-26.63555l72.63448,55.26179l-178.58697,-2.89991l-24.33649,-53.57394l49.22537,0.96422l13.65338,25.51892l66.85548,1.54537l1.17184,-51.19784z" fill="#aaaaa8" stroke="#000000" stroke-width="1" stroke-linecap="round"/><path d="M366.02269,75.97428l47.76027,0.57901l0.09456,37.66382l-47.21364,-0.20493z" fill="#191e21" stroke="#000000" stroke-width="1" stroke-linecap="round"/><path d="M345.1696,83.62147l-236.40444,-3.60082l-7.4312,-8.35751l230.72333,2.42962l14.85359,-12.86407l101.19054,3.24765l-3.95332,7.85206l-87.24099,-2.15995z" fill="#f1f2f4" stroke="#000000" stroke-width="1" stroke-linecap="round"/><path d="M234.02297,101.94211c-0.11448,-0.03183 -0.2358,-0.08827 -0.36286,-0.17703c-0.84909,-0.59297 -0.25608,-1.44201 -0.25608,-1.44201c2.4703,-3.47212 11.49201,-6.42709 15.71488,-4.90715c3.81534,1.37326 6.52399,4.8754 8.89807,7.92182c0.91799,2.84627 1.89391,6.37494 1.11001,9.36411c-2.56832,9.79322 -14.87319,10.96272 -22.16001,6.10068c-4.03425,-5.15723 -5.88821,-11.29457 -2.94396,-16.86042z" data-paper-data="{&quot;index&quot;:null}" fill="#ffffff" stroke="none" stroke-width="0.5" stroke-linecap="butt"/><path d="M266.44345,100.08745c-0.35444,-0.5555 0.08436,-1.1425 0.08436,-1.1425c2.18344,-2.75572 5.11206,-2.23754 8.32331,-2.60449c9.53091,-1.08902 15.58145,3.48218 15.37084,13.40909c-0.36824,3.49691 -0.53252,7.997 -2.64675,10.97755c-4.4051,6.21017 -15.73366,4.92199 -19.60485,-1.2651c-1.00514,-1.60653 -1.49589,-3.79084 -2.00762,-5.59023c-1.00387,-3.77311 -2.00404,-10.08951 0.48071,-13.78437z" data-paper-data="{&quot;index&quot;:null}" fill="#ffffff" stroke="none" stroke-width="0.5" stroke-linecap="butt"/><path d="M253.69881,108.9653c0.02474,-1.14363 0.9719,-2.05072 2.11558,-2.02598c1.14363,0.02475 2.05072,0.9719 2.02598,2.11558c-0.02474,1.14363 -0.97189,2.05072 -2.11558,2.02598c-1.14363,-0.02475 -2.05073,-0.97189 -2.02599,-2.11558z" data-paper-data="{&quot;index&quot;:null}" fill="#000000" stroke="none" stroke-width="0.5" stroke-linecap="butt"/><path d="M284.41682,109.88551c0.02474,-1.14363 0.97189,-2.05072 2.11558,-2.02598c1.14363,0.02475 2.05072,0.97189 2.02598,2.11558c-0.02474,1.14363 -0.97189,2.05073 -2.11558,2.02599c-1.14363,-0.02475 -2.05072,-0.9719 -2.02598,-2.11558z" data-paper-data="{&quot;index&quot;:null}" fill="#000000" stroke="none" stroke-width="0.5" stroke-linecap="butt"/><path d="M222.04904,70.17796c0.34867,-0.97518 1.32383,-0.62651 1.32383,-0.62651l0.84418,0.37746c2.21373,1.93187 4.79272,3.10686 7.17294,4.78535c9.04255,6.39562 17.2317,14.02749 26.30366,20.33447c0,0 0.84909,0.59297 0.25607,1.44201c-0.59297,0.84909 -1.44202,0.25607 -1.44202,0.25607c-9.0534,-6.34818 -17.26527,-13.94175 -26.3138,-20.34158c-2.43267,-1.72604 -5.0615,-2.93731 -7.33696,-4.91427l-0.18143,0.01075c0,0 -0.97518,-0.34867 -0.62651,-1.32383z" data-paper-data="{&quot;index&quot;:null}" fill="#ffffff" stroke="none" stroke-width="0.5" stroke-linecap="butt"/><path d="M313.571,68.57694c0.443,0.93608 -0.49309,1.37909 -0.49309,1.37909l-0.55559,0.2489c-4.92852,3.34715 -10.32848,6.00171 -15.88499,8.11254c-10.63705,4.03294 -20.30499,11.63114 -30.40682,16.9607c0,0 -0.91596,0.48325 -1.39921,-0.43272c-0.48325,-0.91597 0.43271,-1.39921 0.43271,-1.39921c10.18396,-5.37284 19.9138,-12.99483 30.63869,-17.06534c5.40168,-2.04634 10.67504,-4.6124 15.45247,-7.88703l0.83677,-0.41003c0,0 0.93608,-0.44299 1.37909,0.49309z" data-paper-data="{&quot;index&quot;:null}" fill="#ffffff" stroke="none" stroke-width="0.5" stroke-linecap="butt"/><path d="M233.23139,160.92147c-0.72761,-0.1819 -0.54571,-0.90951 -0.54571,-0.90951l0.20109,-0.7812c-0.00791,-1.82059 0.43305,-3.56318 0.43076,-5.38615c0.5643,-6.81784 0.06515,-14.99107 3.25319,-21.24885c0.90049,-1.76755 2.86072,-2.81298 4.32996,-3.995c4.4304,-1.77226 8.89528,-3.83497 13.68435,-4.44496c4.67014,-0.59484 9.0758,1.43658 13.47031,2.5322c8.2114,2.9803 19.65327,0.63861 24.1201,9.59717c2.45464,5.32251 1.06096,10.485 0.42777,16.18261c-0.29553,2.65925 0.08085,5.579 -1.90578,7.60282c0,0 -0.53033,0.53033 -1.06066,0c-0.53033,-0.53033 0,-1.06066 0,-1.06066c1.66076,-1.62123 1.23302,-4.52394 1.47562,-6.70781c0.59708,-5.37481 2.02063,-10.36696 -0.28924,-15.36789c-4.10935,-8.23926 -15.57285,-6.03019 -23.2066,-8.81185c-4.16538,-1.04414 -8.41052,-3.04783 -12.84124,-2.4787c-4.60126,0.59104 -8.84089,2.60073 -13.11596,4.25107c-1.22928,1.0254 -3.03418,1.90723 -3.77823,3.43097c-2.98959,6.12241 -2.50844,13.95132 -3.06489,20.58122c-0.00225,1.86396 -0.4333,3.6462 -0.4407,5.50709l-0.23464,0.96172c0,0 -0.1819,0.72761 -0.90951,0.54571z" fill="#ffffff" stroke="none" stroke-width="0.5" stroke-linecap="butt"/><g stroke="#000000" stroke-width="1" stroke-linecap="round"><path d="M511.30963,249.42228l1.63195,-70.20733l7.62496,-7.62382l63.64753,0.95533l7.44235,7.43904l-0.67367,70.72417z" fill="#9da0a7"/><path d="M346.79608,248.75985l0.68314,-71.50487l5.96282,-6.90908l134.61689,0.34592l7.43569,7.99012l-1.23533,71.59003z" fill="#9da0a7"/><path d="M356.62005,177.02095l131.6949,-0.63202l-0.13506,11.14112l-133.09321,-1.0057l-0.6924,-9.73299z" fill="#252627"/><path d="M520.30317,178.19491l64.21095,0.98102l-0.29588,7.69506l-64.41106,-1.18607z" fill="#252627"/></g><path d="M-1117.37278,989.77027v-1619.57958h2878.25006v1619.57958z" fill="none" stroke="#000000" stroke-width="0" stroke-linecap="butt"/></g></g></svg>