<svg version="1.1" xmlns="http://www.w3.org/2000/svg" xmlns:xlink="http://www.w3.org/1999/xlink" width="1733.09309" height="836.33634" viewBox="0,0,1733.09309,836.33634"><g transform="translate(546.54655,238.16817)"><g data-paper-data="{&quot;isPaintingLayer&quot;:true}" stroke-linejoin="miter" stroke-miterlimit="10" stroke-dasharray="" stroke-dashoffset="0" style="mix-blend-mode: normal"><path d="M-546.54655,598.16817v-836.33634h1733.09309v836.33634z" fill="none" fill-rule="nonzero" stroke="#f00000" stroke-width="0" stroke-linecap="butt"/><path d="M219.84164,179.35825c2.19657,0.45455 4.39292,0.90906 6.58951,1.36362c-0.17134,1.19552 -0.48234,2.31594 -0.93255,3.36135c0.21945,-1.06045 0.43885,-2.12068 0.6583,-3.18114c-2.17742,-0.37311 -4.28243,-0.88762 -6.31525,-1.54383z" data-paper-data="{&quot;index&quot;:null}" fill="#74140b" fill-rule="evenodd" stroke="none" stroke-width="1" stroke-linecap="butt"/><g fill-rule="nonzero"><g><path d="M308.38266,85.492c-0.37496,-0.07331 -0.31938,-0.5679 -0.31938,-0.5679l0.21959,-1.25798c0.20792,-0.25937 0.41585,-0.51874 0.62377,-0.7781c0.11199,-0.03824 0.21658,-0.0786 0.31432,-0.12109c0.0197,-0.18973 0.0399,-0.37889 0.06072,-0.56743c0.21505,-1.94812 0.36713,-4.45293 1.41342,-5.88204c0,0 0.26251,-0.34628 0.52774,-0.01074c0.01408,-0.10235 0.03991,-0.20026 0.08241,-0.29197c0.13558,-0.29263 0.55121,-0.15543 0.70945,-0.42756c0.15536,-0.26719 -0.04747,-0.74299 0.11936,-0.99785c0.34432,-0.52597 1.0695,-0.32238 1.46547,-0.78077c1.46531,-1.69635 3.21047,-2.35858 4.66674,-4.58292c0.43338,-0.2915 1.00801,-0.28872 1.34269,-0.75444c0.59674,-0.8304 0.19851,-3.1147 0.94205,-3.87471c0.49724,-0.50826 2.43002,-0.34222 3.12493,-0.59827c2.6551,-0.97828 5.16821,-2.6409 7.80717,-3.77587c5.09423,-1.77379 10.14188,-4.0008 14.90111,-7.03653c4.93988,-3.14876 9.58309,-5.75144 15.00404,-7.06717c5.26288,-1.27737 10.02725,-4.54799 15.29721,-5.51826c4.31285,-0.79405 9.52681,-3.12642 13.11602,-6.57348l0.36888,-0.6551c0.06889,-0.12523 0.18074,-0.20667 0.307,-0.20667c0.20934,0 0.37905,0.22386 0.37905,0.5c0,0.01728 -0.00067,0.03436 -0.00196,0.05119l-0.06779,0.98974c-0.04948,0.69773 -0.1596,1.39239 -0.3262,2.05781c-1.68202,6.64261 -3.66468,13.09314 -5.24723,19.79957c-0.83105,3.52176 -0.684,7.32008 -1.49666,10.78979c-0.73716,3.14735 -2.47263,5.87747 -3.26695,9.02654c-0.65795,2.59993 -1.38448,5.00607 -2.34574,7.44053c-0.52278,1.32398 -1.47851,2.86543 -1.76886,4.29914c-0.18977,0.93704 0.14089,2.06637 -0.06472,3.00817c-0.32074,1.46921 -1.36283,3.07796 -1.9548,4.39889c-0.80041,2.31506 -1.94876,4.75012 -2.49288,7.18646c-0.35337,1.5822 -0.16859,3.38417 -0.54783,4.95811c-0.60879,2.52668 -2.25432,4.52933 -2.77708,7.05772c-1.43141,6.77757 -1.70444,13.70952 -2.61455,20.62536c-0.90726,6.89414 -1.84772,13.78189 -2.6778,20.69296c-0.8304,6.91377 -1.6608,13.82753 -2.49121,20.7413c-0.82062,6.83236 -2.82259,13.63149 -4.29717,20.27144c-1.49283,6.72211 -3.2943,13.35181 -5.21153,19.88035c-1.91029,6.50491 -2.08971,13.59143 -2.38843,20.48975c-0.31526,7.2801 -1.54164,13.59794 -3.04614,20.60243c-1.36531,6.35649 -2.86039,13.83642 -2.87074,20.47648c-0.00185,0.66857 0.19227,2.81251 -0.11832,3.32416c-0.74053,1.21994 -2.79108,0.99985 -3.87754,0.99979c-3.29842,-0.00018 -6.59691,0.01721 -9.89489,-0.05986c-2.60222,-0.67147 -5.51064,-1.31988 -8.1684,-0.65659c-1.23136,0.30731 -2.37864,1.28505 -3.61746,1.54306c-1.2144,0.25292 -2.61839,0.00612 -3.84962,0.00612c-5.30667,0 -10.61334,-0.00142 -15.92,0.00029c-5.3338,0.00171 -10.56423,0.78506 -15.87697,0.85299c-2.45788,0.03143 -5.19066,1.19985 -7.58517,0.69903c-2.8695,-0.60017 -5.16158,-1.5523 -8.12362,-1.5523c-5.3067,0 -10.6134,0 -15.9201,0c-5.3067,0 -10.6134,0 -15.9201,0c-5.30669,0 -10.61339,-0.00011 -15.92008,0.00017c-5.27443,0.00027 -10.62336,-0.29477 -15.87829,0.31224c-3.28807,0.37982 -6.56231,0.31682 -9.84486,0.61162c-2.05832,0.18486 -4.01954,0.76346 -6.09279,0.67569c-0.47192,-0.10469 -2.19324,-0.20562 -2.49432,-0.67568c-0.50053,-0.78143 -0.08951,-4.28677 -0.08957,-5.32266c-0.00024,-4.35998 -0.13195,-8.57952 -0.4728,-12.91649c-0.5432,-6.9117 -0.15857,-14.09125 -0.15828,-21.04093c0.0003,-7.12895 -0.38491,-14.00666 1.27024,-20.84535c0.03782,-7.46679 4.38417,-12.44318 8.52282,-16.92974c0.56666,-0.90584 1.2534,-2.51945 1.9994,-3.14697c0.85918,-0.72273 2.14112,-0.52409 3.06189,-0.84673c1.08583,-0.38047 1.3747,-1.89266 2.25739,-2.44854c0.83847,-0.52803 2.21197,0.04586 3.12152,-0.18671c1.14067,-0.29166 2.52191,-0.53406 3.61099,-1.02945c4.99187,-2.22544 10.62919,-1.30703 15.88189,-1.30694c5.32663,0.0025 10.61723,0.06078 15.93326,0.5123c5.2907,0.44937 10.58714,0.3216 15.88804,0.32423c5.31456,0.00263 10.60642,0.82888 15.89045,0.82853c2.02131,-0.00014 4.04265,0.00444 6.06394,-0.00169c0.7596,-0.0023 2.14204,0.33002 2.82968,-0.18668c1.72862,-1.29894 1.9219,-5.59035 2.84193,-7.73851c1.30339,-3.031 1.2266,-6.03344 1.68686,-9.41153c0.49605,-3.64067 1.3797,-7.17706 2.41931,-10.60658c1.96893,-6.49508 3.03482,-13.47004 5.18904,-19.85673c2.13401,-6.31825 3.90225,-13.36757 7.43628,-18.5154c2.64746,-6.2286 3.93289,-12.55514 5.01376,-19.54316c1.0658,-6.89054 2.47399,-13.60899 3.89368,-20.38622c0.67171,-3.19402 0.89754,-6.65387 1.21072,-9.99179c-0.09591,0.12864 -0.19181,0.25728 -0.28772,0.38592l0.00083,0.68893c0,0 -0.05558,0.4946 -0.43052,0.42129zM310.04556,82.21629c0.83488,-0.87626 0.58359,-2.24088 1.19856,-4.11387c0.10854,-0.33059 0.04746,-0.71881 0.00133,-1.09882c-0.00872,0.01362 -0.01428,0.02095 -0.01428,0.02095c-0.89416,1.12627 -1.01287,3.55002 -1.1856,5.19173z" fill="#747474" stroke="none" stroke-width="0.5" stroke-linecap="butt"/><path d="M506.74651,85.07071l0.00083,-0.68893c-0.09591,-0.12864 -0.19181,-0.25728 -0.28772,-0.38592c0.31318,3.33792 0.53901,6.79778 1.21072,9.99179c1.41969,6.77723 2.82789,13.49568 3.89368,20.38622c1.08088,6.98802 2.3663,13.31456 5.01376,19.54316c3.53403,5.14783 5.30228,12.19715 7.43628,18.5154c2.15422,6.38669 3.22011,13.36165 5.18904,19.85673c1.0396,3.42952 1.92326,6.96591 2.41931,10.60658c0.46027,3.37809 0.38348,6.38053 1.68687,9.41153c0.92002,2.14816 1.11331,6.43957 2.84192,7.73851c0.68763,0.51671 2.07007,0.18438 2.82968,0.18668c2.0213,0.00612 4.04264,0.00155 6.06394,0.00169c5.28403,0.00035 10.57589,-0.8259 15.89046,-0.82853c5.30091,-0.00263 10.59735,0.12514 15.88804,-0.32423c5.31603,-0.45153 10.60663,-0.50981 15.93326,-0.5123c5.25271,-0.00009 10.89003,-0.9185 15.88189,1.30694c1.08909,0.49539 2.47032,0.73779 3.61099,1.02945c0.90956,0.23257 2.28306,-0.34132 3.12153,0.18671c0.88269,0.55588 1.17155,2.06807 2.25739,2.44854c0.92077,0.32264 2.20271,0.12401 3.0619,0.84673c0.74601,0.62752 1.43273,2.24113 1.9994,3.14697c4.13863,4.48656 8.48499,9.46295 8.52282,16.92974c1.65516,6.83869 1.26994,13.7164 1.27025,20.84535c0.0003,6.94968 0.38493,14.12923 -0.15828,21.04093c-0.34085,4.33697 -0.47257,8.55651 -0.4728,12.91649c-0.00006,1.03589 0.41096,4.54123 -0.08957,5.32266c-0.30108,0.47006 -2.0224,0.57099 -2.49432,0.67568c-2.07324,0.08777 -4.03446,-0.49083 -6.09279,-0.67569c-3.28255,-0.2948 -6.55679,-0.2318 -9.84486,-0.61162c-5.25494,-0.60701 -10.60386,-0.31196 -15.87829,-0.31224c-5.3067,-0.00027 -10.61338,-0.00017 -15.92008,-0.00017c-5.3067,0 -10.6134,0 -15.9201,0c-5.3067,0 -10.6134,0 -15.9201,0c-2.96204,0 -5.25411,0.95214 -8.12362,1.5523c-2.39451,0.50082 -5.12729,-0.6676 -7.58517,-0.69903c-5.31274,-0.06793 -10.54317,-0.85127 -15.87697,-0.85299c-5.30667,-0.00171 -10.61334,-0.00029 -15.92,-0.00029c-1.23122,0 -2.63521,0.2468 -3.84961,-0.00612c-1.23882,-0.25801 -2.3861,-1.23575 -3.61746,-1.54306c-2.65775,-0.6633 -5.5662,-0.01488 -8.16841,0.65659c-3.29798,0.07707 -6.59646,0.05968 -9.89489,0.05986c-1.08646,0.00006 -3.13701,0.22015 -3.87754,-0.99979c-0.31059,-0.51165 -0.11646,-2.65559 -0.11831,-3.32416c-0.01035,-6.64006 -1.50543,-14.11999 -2.87074,-20.47648c-1.50451,-7.00449 -2.73089,-13.32233 -3.04615,-20.60243c-0.29873,-6.89832 -0.47814,-13.98485 -2.38843,-20.48975c-1.91723,-6.52855 -3.71871,-13.15824 -5.21153,-19.88035c-1.47458,-6.63995 -3.47655,-13.43908 -4.29717,-20.27144c-0.8304,-6.91377 -1.6608,-13.82753 -2.49121,-20.7413c-0.83007,-6.91107 -1.77055,-13.79883 -2.6778,-20.69296c-0.91011,-6.91584 -1.18315,-13.84779 -2.61455,-20.62536c-0.52276,-2.52839 -2.16829,-4.53104 -2.77708,-7.05772c-0.37924,-1.57394 -0.19446,-3.37591 -0.54782,-4.95811c-0.54412,-2.43634 -1.69248,-4.8714 -2.49289,-7.18646c-0.59198,-1.32093 -1.63405,-2.92968 -1.9548,-4.39889c-0.2056,-0.9418 0.12505,-2.07114 -0.06472,-3.00817c-0.29034,-1.43371 -1.24608,-2.97516 -1.76886,-4.29914c-0.96126,-2.43446 -1.6878,-4.8406 -2.34574,-7.44053c-0.79432,-3.14907 -2.52979,-5.87919 -3.26695,-9.02654c-0.81267,-3.46972 -0.66562,-7.26803 -1.49666,-10.78979c-1.58255,-6.70643 -3.56521,-13.15696 -5.24723,-19.79957c-0.1666,-0.66542 -0.27672,-1.36009 -0.3262,-2.05781l-0.06779,-0.98974c-0.0013,-0.01683 -0.00196,-0.03391 -0.00196,-0.05119c0,-0.27614 0.16971,-0.5 0.37905,-0.5c0.12627,0 0.23812,0.08143 0.307,0.20667l0.36888,0.6551c3.58921,3.44706 8.80317,5.77943 13.11602,6.57348c5.26996,0.97027 10.03433,4.2409 15.29721,5.51826c5.42095,1.31573 10.06415,3.9184 15.00404,7.06717c4.75923,3.03573 9.80687,5.26275 14.90111,7.03653c2.63896,1.13496 5.15208,2.79758 7.80717,3.77587c0.69491,0.25605 2.62768,0.09001 3.12493,0.59827c0.74354,0.76002 0.34532,3.04431 0.94206,3.87471c0.33467,0.46572 0.9093,0.46294 1.34269,0.75444c1.45627,2.22434 3.20143,2.88657 4.66674,4.58292c0.39596,0.45839 1.12114,0.2548 1.46546,0.78077c0.16684,0.25486 -0.03599,0.73066 0.11937,0.99785c0.15824,0.27213 0.57387,0.13492 0.70945,0.42756c0.04249,0.0917 0.06833,0.18961 0.08241,0.29197c0.26523,-0.33554 0.52774,0.01074 0.52774,0.01074c1.04629,1.42911 1.19837,3.93393 1.41342,5.88204c0.02081,0.18854 0.04101,0.3777 0.06072,0.56743c0.09773,0.04248 0.20232,0.08285 0.31432,0.12109c0.20792,0.25937 0.41585,0.51874 0.62377,0.7781l0.21959,1.25798c0,0 0.05558,0.4946 -0.31938,0.5679c-0.37496,0.07331 -0.43052,-0.42129 -0.43052,-0.42129zM504.32854,77.02456c0,0 -0.00556,-0.00733 -0.01428,-0.02095c-0.04614,0.38001 -0.1072,0.76823 0.00133,1.09882c0.61496,1.87299 0.36367,3.2376 1.19855,4.11387c-0.17273,-1.64172 -0.29144,-4.06546 -1.1856,-5.19173z" data-paper-data="{&quot;index&quot;:null}" fill="#747474" stroke="none" stroke-width="0.5" stroke-linecap="butt"/><path d="M287.50853,29.96364l-6.15011,-5.70546l48.17491,-16.9577l40.16701,20.79173l-7.02789,4.36976l-33.11983,-15.68193z" data-paper-data="{&quot;index&quot;:null}" fill="#303c43" stroke="#000000" stroke-width="0" stroke-linecap="round"/><path d="M454.42757,172.28154l2.24373,-99.88686l174.36173,28.36829l1.62164,61.84326z" data-paper-data="{&quot;index&quot;:null}" fill="#85c1da" stroke="#000000" stroke-width="0" stroke-linecap="round"/><path d="M625.43065,162.92104l-37.97154,2.77246l0.30125,-61.20178c0,0 14.38199,-3.34002 21.07123,-2.02916c6.14221,1.20365 17.56326,9.60016 17.56326,9.60016l-0.22746,50.5442z" data-paper-data="{&quot;index&quot;:null}" fill="#01005e" stroke="#000000" stroke-width="0" stroke-linecap="round"/><path d="M591.38206,164.93329l0.01393,-55.06855c0,0 11.75177,-2.21632 17.31789,-1.14016c4.66704,0.90231 13.85925,7.16791 13.85925,7.16791l-0.20623,47.47613z" data-paper-data="{&quot;index&quot;:null}" fill="#85c1da" stroke="#000000" stroke-width="0" stroke-linecap="round"/><path d="M581.47023,164.92172l-45.12588,4.00106l-0.29395,-72.78621c0,0 16.4222,-3.87197 24.3983,-2.43582c7.30661,1.31562 21.62619,10.72283 21.62619,10.72283l0.26812,60.11095z" data-paper-data="{&quot;index&quot;:null}" fill="#01005e" stroke="#000000" stroke-width="0" stroke-linecap="round"/><path d="M541.00138,167.94601l-0.57026,-65.48731c0,0 12.48154,-4.22017 18.71807,-3.11356c6.14195,1.08983 18.42174,9.70362 18.42174,9.70362l0.26067,56.46201z" data-paper-data="{&quot;index&quot;:null}" fill="#85c1da" stroke="#000000" stroke-width="0" stroke-linecap="round"/><path d="M531.36795,167.78762l-53.385,4.73336l-0.34776,-86.10783c0,0 20.77821,-3.62096 30.47147,-1.87563c8.20787,1.47788 23.9766,11.67936 23.9766,11.67936l0.31718,71.11269z" data-paper-data="{&quot;index&quot;:null}" fill="#01005e" stroke="#000000" stroke-width="0" stroke-linecap="round"/><path d="M483.49229,171.36544l-0.67463,-77.47303c0,0 17.12931,-5.6333 24.90437,-4.25369c6.71466,1.19144 19.03292,12.04988 19.03292,12.04988l0.30838,66.79592z" data-paper-data="{&quot;index&quot;:null}" fill="#85c1da" stroke="#000000" stroke-width="0" stroke-linecap="round"/><path d="M454.24321,172.82075l-120.24507,-10.23811l1.20134,-71.69394l121.38526,-18.00732z" data-paper-data="{&quot;index&quot;:null}" fill="#85c1da" stroke="#000000" stroke-width="0" stroke-linecap="round"/><path d="M528.62347,84.65321l-1.32292,-61.41538l54.97711,14.86381l1.30833,54.25635z" data-paper-data="{&quot;index&quot;:null}" fill="#85c1da" stroke="#000000" stroke-width="0" stroke-linecap="round"/><path d="M528.47255,84.06127l-42.53392,-6.76138l0.08249,-32.9815l41.13051,-20.68507z" data-paper-data="{&quot;index&quot;:null}" fill="#85c1da" stroke="#000000" stroke-width="0" stroke-linecap="round"/><path d="M527.2274,24.07742l-7.17759,4.37029l-0.66852,-34.16379l31.90517,7.39155l0.35619,27.84513z" data-paper-data="{&quot;index&quot;:null}" fill="#85c1da" stroke="#000000" stroke-width="0" stroke-linecap="round"/><path d="M485.94717,44.76302l-5.1049,-7.09161l46.21729,-22.48054l64.26313,16.55893l-9.56825,6.74867l-53.47861,-14.22727z" data-paper-data="{&quot;index&quot;:null}" fill="#303c43" stroke="#000000" stroke-width="0" stroke-linecap="round"/><path d="M519.73104,18.9692l-6.1336,2.39166l-1.54387,-22.90363l7.32772,-4.17332z" data-paper-data="{&quot;index&quot;:null}" fill="#85c1da" stroke="#000000" stroke-width="0" stroke-linecap="round"/><path d="M508.15125,-6.26871l10.16672,-6.94829l40.29058,7.9543l-7.02224,7.13463l-31.60573,-7.39262l-8.37493,4.57202z" data-paper-data="{&quot;index&quot;:null}" fill="#303c43" stroke="#000000" stroke-width="0" stroke-linecap="round"/><path d="M518.09301,-13.41369l-10.01579,7.54023l4.35107,4.52689l1.24523,23.29967l-33.05542,15.91661l5.40312,6.49808l-0.08329,32.5865l-28.75425,-4.04535l-18.7107,2.04128l1.09388,-50.95687l42.20479,-44.53605l0.068,-40.09115l66.70891,22.87l0.32379,30.31392z" data-paper-data="{&quot;index&quot;:null}" fill="#85c1da" stroke="#000000" stroke-width="0" stroke-linecap="round"/><path d="M439.22124,74.79943l-83.36621,13.33014l2.46188,-40.88962l81.54897,-23.44517z" data-paper-data="{&quot;index&quot;:null}" fill="#85c1da" stroke="#000000" stroke-width="0" stroke-linecap="round"/><path d="M481.99421,-21.53098l-42.72548,46.16723l-81.61874,22.80357l-7.94872,-6.68654l87.6875,-23.41758l44.89266,-48.0017z" data-paper-data="{&quot;index&quot;:null}" fill="#303c43" stroke="#000000" stroke-width="0" stroke-linecap="round"/><path d="M481.68164,-31.10824l-85.40308,42.36873l0.39722,-25.47791l85.54406,-46.66467z" data-paper-data="{&quot;index&quot;:null}" fill="#85c1da" stroke="#000000" stroke-width="0" stroke-linecap="round"/><path d="M481.27254,-29.82309l-43.62056,47.75033l-87.6887,22.8251l47.06308,-29.8895l84.80461,-42.16911z" data-paper-data="{&quot;index&quot;:null}" fill="#d19090" stroke="#000000" stroke-width="0" stroke-linecap="round"/><path d="M481.99706,-59.99259l-85.39544,46.12105l-11.83655,-4.30285l99.03866,-55.25408l71.91805,26.01141l-7.31645,9.70307z" data-paper-data="{&quot;index&quot;:null}" fill="#303c43" stroke="#000000" stroke-width="0" stroke-linecap="round"/><path d="M349.81435,41.14786l8.39748,6.48746l-2.6124,40.49518l-27.99119,3.06164l1.94428,-74.46146l32.96971,15.48496z" data-paper-data="{&quot;index&quot;:null}" fill="#85c1da" stroke="#000000" stroke-width="0" stroke-linecap="round"/><path d="M327.45572,89.81024l-42.36729,1.53271l2.56972,-61.42921l42.04452,-12.9861z" data-paper-data="{&quot;index&quot;:null}" fill="#85c1da" stroke="#000000" stroke-width="0" stroke-linecap="round"/><path d="M291.0755,90.53174l2.28639,-53.5285c0,0 7.4631,-8.43791 11.63278,-9.40342c5.14957,-1.19245 16.95003,2.7848 16.95003,2.7848l-0.77633,59.84291z" data-paper-data="{&quot;index&quot;:null}" fill="#01005e" stroke="#01005e" stroke-width="0" stroke-linecap="round"/><path d="M294.96798,90.42851l1.84528,-49.57709c0,0 5.08239,-7.97273 8.3647,-8.62045c3.78073,-0.74608 13.03648,4.39721 13.03648,4.39721l-1.5374,53.72334z" data-paper-data="{&quot;index&quot;:null}" fill="#2b3b41" stroke="#000000" stroke-width="0" stroke-linecap="round"/><path d="M285.23009,87.3926l-21.55653,1.45891l1.84973,-47.4047l21.69901,-5.01426z" data-paper-data="{&quot;index&quot;:null}" fill="#85c1da" stroke="#000000" stroke-width="0" stroke-linecap="round"/><path d="M265.52286,41.2493l-5.40152,-5.70811l27.68611,-5.82546l-0.13643,6.51772z" data-paper-data="{&quot;index&quot;:null}" fill="#303c43" stroke="#000000" stroke-width="0" stroke-linecap="round"/><path d="M280.31028,24.21253l7.79619,5.30465l-27.68732,5.233l5.70376,7.0895l-2.30139,46.17197l-12.42175,2.41397l-0.45882,-4.73818l2.06704,-87.69387l41.96565,21.77281z" data-paper-data="{&quot;index&quot;:null}" fill="#85c1da" stroke="#000000" stroke-width="0" stroke-linecap="round"/><path d="M250.94874,89.48909l-51.95326,-0.40821l4.78833,-74.76778l49.07481,-16.17091z" data-paper-data="{&quot;index&quot;:null}" fill="#85c1da" stroke="#000000" stroke-width="0" stroke-linecap="round"/><path d="M203.48445,14.36352l-9.14768,-7.27477l59.84724,-19.76397l47.22309,30.24633l-7.03231,2.19736l-41.96523,-21.57533z" data-paper-data="{&quot;index&quot;:null}" fill="#303c43" stroke="#000000" stroke-width="0" stroke-linecap="round"/><path d="M333.88948,161.23023l-28.88063,7.40964l-36.42448,-57.73604l-89.46601,-4.42252l20.62642,-17.05748l51.20307,-0.37909l1.64972,1.37659l10.47702,-1.61709l22.00488,-1.85547l0.00845,4.1473l43.11589,-1.53535l-0.89388,2.17558l7.33214,-2.00092z" data-paper-data="{&quot;index&quot;:null}" fill="#794a45" stroke="#000000" stroke-width="0" stroke-linecap="round"/><path d="M316.51038,89.96785l-15.44381,0.17824l1.59636,-43.40464c0,0 5.17736,-6.65275 7.91166,-7.19374c2.25728,-0.4466 7.33915,4.17641 7.33915,4.17641z" data-paper-data="{&quot;index&quot;:null}" fill="#720b00" stroke="#000000" stroke-width="0" stroke-linecap="round"/><path d="M276.4724,40.75558c2.19329,-0.51431 8.00943,2.11953 8.00943,2.11953l-1.25774,26.04903l-15.15306,1.67478l2.24371,-24.64764c0,0 3.98377,-4.68592 6.15766,-5.1957z" data-paper-data="{&quot;index&quot;:null}" fill="#01005e" stroke="#000000" stroke-width="0" stroke-linecap="round"/><path d="M280.92356,65.69021l-10.15666,1.1167l1.76516,-18.26988c0,0 2.63409,-4.41113 4.09769,-4.77044c1.7577,-0.43151 5.72862,2.35806 5.72862,2.35806z" data-paper-data="{&quot;index&quot;:null}" fill="#baaa1d" stroke="#000000" stroke-width="0" stroke-linecap="round"/><path d="M207.79146,89.77876l3.14814,-63.25842c0,0 7.68664,-10.89251 12.57832,-12.09888c5.75044,-1.41814 19.76655,4.12216 19.76655,4.12216l-1.57629,70.7366z" data-paper-data="{&quot;index&quot;:null}" fill="#01005e" stroke="#000000" stroke-width="0" stroke-linecap="round"/><path d="M238.3503,89.8325l-26.87383,-0.87732l2.42164,-57.93345c0,0 7.24752,-10.95649 11.06372,-11.84168c4.56522,-1.05894 14.48541,5.91537 14.48541,5.91537l-1.67188,64.03667z" data-paper-data="{&quot;index&quot;:null}" fill="#baaa1d" stroke="#000000" stroke-width="0" stroke-linecap="round"/><path d="M470.73943,71.42012l0.5684,-42.68918c0,0 3.2993,-2.15711 4.7718,-1.72692c1.451,0.4239 3.99961,4.28947 3.99961,4.28947l-0.16163,41.28284z" data-paper-data="{&quot;index&quot;:null}" fill="#01005e" stroke="#000000" stroke-width="0" stroke-linecap="round"/><path d="M472.86401,68.71085l0.41711,-36.52871c0,0 1.64307,-1.62488 2.5053,-1.41141c0.85909,0.2127 2.65869,2.68993 2.65869,2.68993l-0.09027,36.09528z" data-paper-data="{&quot;index&quot;:null}" fill="#baaa1d" stroke="#000000" stroke-width="0" stroke-linecap="round"/><path d="M459.59283,69.1902l0.5684,-42.68918c0,0 3.29929,-2.15711 4.7718,-1.72692c1.451,0.4239 3.99961,4.28947 3.99961,4.28947l-0.16163,41.28284z" data-paper-data="{&quot;index&quot;:null}" fill="#01005e" stroke="#000000" stroke-width="0" stroke-linecap="round"/><path d="M461.71741,66.48094l0.41711,-36.52872c0,0 1.64307,-1.62489 2.50531,-1.41142c0.85909,0.2127 2.65869,2.68994 2.65869,2.68994l-0.09029,36.09529z" data-paper-data="{&quot;index&quot;:null}" fill="#baaa1d" stroke="#000000" stroke-width="0" stroke-linecap="round"/><path d="M447.95511,67.17818l0.5684,-42.68918c0,0 3.2993,-2.15711 4.7718,-1.72692c1.451,0.4239 3.99961,4.28947 3.99961,4.28947l-0.16163,41.28285z" data-paper-data="{&quot;index&quot;:null}" fill="#01005e" stroke="#000000" stroke-width="0" stroke-linecap="round"/><path d="M450.07968,64.46891l0.41711,-36.52873c0,0 1.64307,-1.62489 2.50531,-1.41141c0.85909,0.2127 2.65869,2.68993 2.65869,2.68993l-0.09029,36.0953z" data-paper-data="{&quot;index&quot;:null}" fill="#baaa1d" stroke="#baaa1d" stroke-width="0" stroke-linecap="round"/><path d="M492.3409,78.15184l-0.06432,-31.55584c0,0 7.75112,-7.94799 11.86007,-9.88795c4.50345,-2.12622 14.0858,-2.36181 14.0858,-2.36181l0.50875,48.62916z" data-paper-data="{&quot;index&quot;:null}" fill="#01005e" stroke="#000000" stroke-width="0" stroke-linecap="round"/><path d="M496.02901,78.8412l-0.55303,-30.14922c0,0 5.51498,-7.51064 8.69283,-9.06044c3.35967,-1.63849 10.95011,-0.51926 10.95011,-0.51926l0.4169,43.76637z" data-paper-data="{&quot;index&quot;:null}" fill="#baaa1d" stroke="#000000" stroke-width="0" stroke-linecap="round"/><path d="M546.98468,76.4721l-0.2432,-38.93092l19.42778,5.4426l1.04089,38.38774z" data-paper-data="{&quot;index&quot;:null}" fill="#baaa1d" stroke="#000000" stroke-width="0" stroke-linecap="round"/><path d="M566.00491,42.74121l7.0514,2.78477l1.71397,37.00748l-7.78651,-1.70148z" data-paper-data="{&quot;index&quot;:null}" fill="#01005e" stroke="#01005e" stroke-width="0" stroke-linecap="round"/><path d="M547.23058,76.52525l-9.1806,-2.34497l-0.40832,-39.55173l9.01827,3.10201z" data-paper-data="{&quot;index&quot;:null}" fill="#01005e" stroke="#000000" stroke-width="0" stroke-linecap="round"/><path d="M446.26924,-17.29861l0.36734,-20.7505l10.80128,-6.41437l0.2068,21.07268z" data-paper-data="{&quot;index&quot;:null}" fill="#baaa1d" stroke="#000000" stroke-width="0" stroke-linecap="round"/><path d="M440.45821,-14.46822l0.12177,-20.64156l5.89166,-3.4791l0.12465,20.96489z" data-paper-data="{&quot;index&quot;:null}" fill="#01005e" stroke="#000000" stroke-width="0" stroke-linecap="round"/><path d="M457.4808,-23.39023l0.12178,-20.64156l5.89165,-3.47911l0.12465,20.96491z" data-paper-data="{&quot;index&quot;:null}" fill="#01005e" stroke="#000000" stroke-width="0" stroke-linecap="round"/><path d="M411.99811,0.24902l0.36734,-20.75051l10.80128,-6.41436l0.2068,21.07267z" data-paper-data="{&quot;index&quot;:null}" fill="#baaa1d" stroke="#000000" stroke-width="0" stroke-linecap="round"/><path d="M406.18706,3.07941l0.12177,-20.64156l5.89166,-3.4791l0.12465,20.96491z" data-paper-data="{&quot;index&quot;:null}" fill="#01005e" stroke="#000000" stroke-width="0" stroke-linecap="round"/><path d="M423.20968,-5.84259l0.12178,-20.64156l5.89164,-3.47911l0.12466,20.96491z" data-paper-data="{&quot;index&quot;:null}" fill="#01005e" stroke="#000000" stroke-width="0" stroke-linecap="round"/><path d="M506.36255,22.85196l-13.68412,-1.14022l0.52238,-25.0738c0,0 4.14045,-2.9211 6.24598,-2.41904c2.20662,0.52615 6.70476,5.5071 6.70476,5.5071l0.04472,21.9378z" data-paper-data="{&quot;index&quot;:null}" fill="#01005e" stroke="#000000" stroke-width="0" stroke-linecap="round"/><path d="M495.21155,18.46068l0.45455,-18.15717c0,0 2.46198,-3.05744 3.8486,-2.74286c1.42637,0.32361 4.59377,4.65816 4.59377,4.65816l0.03656,17.9393z" data-paper-data="{&quot;index&quot;:null}" fill="#baaa1d" stroke="#000000" stroke-width="0" stroke-linecap="round"/><path d="M528.05761,15.2102l-0.19226,-13.9402c0,0 6.26918,-2.45144 9.61293,-1.66352c2.68565,0.63285 8.91142,6.02863 8.91142,6.02863l0.27552,14.5883z" data-paper-data="{&quot;index&quot;:null}" fill="#01005e" stroke="#000000" stroke-width="0" stroke-linecap="round"/><path d="M530.51649,15.74181l-0.18654,-11.13041c0,0 4.69391,-2.62401 7.0233,-1.9663c2.199,0.6209 6.58439,5.80853 6.58439,5.80853l0.35039,11.12984z" data-paper-data="{&quot;index&quot;:null}" fill="#baaa1d" stroke="#000000" stroke-width="0" stroke-linecap="round"/><path d="M302.47497,46.89088l1.79732,-2.49196l3.04708,-2.30727l3.10813,-2.49662l0.8191,-0.08396l-0.71595,50.68679l-9.33873,0.46541z" data-paper-data="{&quot;index&quot;:null}" fill="#720b00" stroke="#000000" stroke-width="0" stroke-linecap="round"/><path d="M309.1762,68.80509l-5.4873,0.88401l0.77543,-21.50844l5.23359,-4.77358z" data-paper-data="{&quot;index&quot;:null}" fill="#baaa1d" stroke="#000000" stroke-width="0" stroke-linecap="round"/><path d="M313.4674,43.82598l4.10139,2.47104l-0.44508,22.80408l-4.42357,0.23183z" data-paper-data="{&quot;index&quot;:null}" fill="#baaa1d" stroke="#000000" stroke-width="0" stroke-linecap="round"/><path d="M486.00163,112.23912l0.04772,-15.82434l6.3924,-2.76553l6.5545,-1.71116l4.87781,-0.33379l-0.60217,18.46365z" data-paper-data="{&quot;index&quot;:null}" fill="#000000" stroke="#000000" stroke-width="0" stroke-linecap="round"/><path d="M509.15411,92.42953l3.92285,1.99049l5.68616,3.88313l5.36842,4.9392l0.17908,9.38837l-16.15963,-2.26357z" data-paper-data="{&quot;index&quot;:null}" fill="#000000" stroke="#000000" stroke-width="0" stroke-linecap="round"/><path d="M542.62673,119.28786l0.04085,-13.54574l5.47193,-2.36731l5.61069,-1.46475l4.17545,-0.28572l-0.51546,15.80502z" data-paper-data="{&quot;index&quot;:null}" fill="#000000" stroke="#000000" stroke-width="0" stroke-linecap="round"/><path d="M562.4454,102.33074l3.35798,1.70386l4.86739,3.32398l4.5954,4.22799l0.1533,8.0365l-13.83276,-1.93762z" data-paper-data="{&quot;index&quot;:null}" fill="#000000" stroke="#000000" stroke-width="0" stroke-linecap="round"/><path d="M594.34772,124.16026l0.03202,-10.61823l4.28934,-1.85569l4.3981,-1.14821l3.27305,-0.22399l-0.40406,12.38925z" data-paper-data="{&quot;index&quot;:null}" fill="#000000" stroke="#000000" stroke-width="0" stroke-linecap="round"/><path d="M376.8216,48.40897c0.62134,0.38519 0.98087,-0.29131 0.98087,-0.29131c0.3039,-0.9128 2.4518,-0.30545 3.2516,-0.37785c1.49205,-0.13511 4.94706,-0.51588 6.42347,0.54158c1.23181,0.88226 1.90381,4.93966 2.13731,6.49776c-0.09174,5.15415 -0.74365,9.05502 -3.67699,13.18759c-1.10025,1.55004 -1.77495,3.33195 -3.57853,4.07711c-2.22116,0.9177 -5.69758,0.46777 -7.95084,0.02007c-2.39171,-0.47242 -2.92209,-1.55928 -3.80169,-3.89896c-2.07085,-5.50834 1.40166,-11.95488 3.84519,-16.93344c0.6065,-1.24314 1.31855,-2.15385 2.1179,-3.05675c0.05645,0.08391 0.13812,0.16378 0.25172,0.23421z" data-paper-data="{&quot;noHover&quot;:false,&quot;origItem&quot;:[&quot;Path&quot;,{&quot;applyMatrix&quot;:true,&quot;segments&quot;:[[[198.44065,130.34663],[0.07391,0.06781],[-0.65049,1.01764]],[[196.85501,133.66229],[0.38783,-1.29998],[-1.56825,5.20919]],[[196.10629,150.39263],[-3.17154,-4.78632],[1.34712,2.033]],[[200.73291,153.29281],[-2.54745,0.04268],[2.40048,-0.0377]],[[208.86748,151.64902],[-2.10888,1.32263],[1.7124,-1.07397]],[[211.75454,147.07391],[-0.83713,1.69132],[2.23187,-4.50925]],[[213.03393,133.90973],[0.88194,4.89393],[-0.53508,-1.42595]],[[209.62627,128.21675],[1.43304,0.58239],[-1.71761,-0.69805]],[[202.9475,129.02331],[1.5078,-0.43318],[-0.80822,0.23219]],[[199.69167,130.04267],[0.13943,-0.92558],[0,0]],[[198.74299,130.51701],[0.71151,0.23717],[-0.13007,-0.04336]]],&quot;closed&quot;:true}],&quot;index&quot;:null}" fill="#ffffff" stroke="#000000" stroke-width="1.5" stroke-linecap="butt"/><path d="M404.57006,43.03807c0.94881,-0.17178 1.82247,-0.74222 2.76847,-0.93147c5.45109,-1.09045 6.42315,1.83983 9.07335,6.04758c-0.19783,6.94428 -1.93948,18.18135 -10.23951,18.39538c-0.91184,0.02352 -2.20972,-0.49797 -3.12402,-0.6958c-3.78034,-0.818 -7.17287,-5.50355 -7.22411,-9.94091c-0.0421,-3.64785 1.82227,-7.23397 3.74773,-9.91519c0.14173,-0.34704 0.35263,-0.67901 0.60539,-0.95163c0.47151,0.02699 0.64599,-0.40022 0.6947,-0.56659l0.60368,-0.43725c0,0 0.32438,-0.23468 0.33704,-0.61534c0.87385,-0.3094 2.15262,-0.27934 2.75726,-0.38881z" data-paper-data="{&quot;noHover&quot;:false,&quot;origItem&quot;:[&quot;Path&quot;,{&quot;applyMatrix&quot;:true,&quot;segments&quot;:[[[223.48817,120.68639],[0.83946,-0.4715],[0.05909,0.36267]],[223.26049,121.33583],[[222.72568,121.87064],[0,0],[-0.01855,0.16733]],[[222.12213,122.54569],[0.48968,-0.07096],[-0.20813,0.30959]],[[221.68358,123.56571],[0.07992,-0.35726],[-1.47095,2.93017]],[[219.71637,133.66232],[-0.7342,-3.44177],[0.89311,4.18667]],[[228.98016,141.5555],[-4.03999,0],[0.97709,0]],[[232.30889,141.57531],[-0.93264,0.20887],[8.48942,-1.90123]],[[239.31891,122.15939],[1.11198,6.60888],[-3.52059,-3.43757]],[[228.89188,118.3155],[5.39556,-2.14708],[-0.93636,0.37261]],[[226.23619,119.76044],[0.94255,-0.35667],[-0.60067,0.2273]]],&quot;closed&quot;:true}],&quot;index&quot;:null}" fill="#ffffff" stroke="#000000" stroke-width="1.5" stroke-linecap="butt"/><path d="M384.4787,58.05289c0.20696,-1.12298 1.21264,-1.85207 2.24622,-1.62842c1.03358,0.22366 1.70368,1.31531 1.49671,2.43832c-0.20697,1.12298 -1.21264,1.85205 -2.24621,1.62841c-1.03358,-0.22366 -1.70369,-1.31532 -1.49672,-2.43832z" data-paper-data="{&quot;index&quot;:null}" fill="#000000" stroke="none" stroke-width="0.5" stroke-linecap="butt"/><path d="M411.16134,52.57806c0.20697,-1.12298 1.21264,-1.85208 2.24621,-1.62843c1.03358,0.22366 1.70367,1.31532 1.49671,2.43833c-0.20697,1.12298 -1.21264,1.85207 -2.24622,1.62842c-1.03358,-0.22366 -1.70367,-1.31532 -1.49671,-2.43833z" data-paper-data="{&quot;index&quot;:null}" fill="#000000" stroke="none" stroke-width="0.5" stroke-linecap="butt"/><path d="M359.20355,7.06596c0.92072,-0.27357 1.17163,0.72632 1.17163,0.72632l-0.259,-0.03623c3.51432,2.4992 6.8219,7.23216 9.53151,10.74978c4.478,6.64594 10.32273,11.5577 15.41376,17.55217c1.96101,2.30901 5.30161,4.90704 5.42451,8.11764c0,0 -0.0002,1.03665 -0.95453,1.03751c-0.9543,0.00086 -0.95409,-1.0358 -0.95409,-1.0358c0.14811,-2.13287 -3.58357,-5.13794 -4.9197,-6.71306c-5.12238,-6.03865 -11.00699,-10.98409 -15.51375,-17.67996c-2.55328,-3.32478 -5.74472,-7.94996 -9.07073,-10.29071l-0.53948,-1.15416c0,0 -0.25087,-0.99992 0.66986,-1.27349z" data-paper-data="{&quot;index&quot;:null}" fill="#000000" stroke="none" stroke-width="0.5" stroke-linecap="butt"/><path d="M437.64536,7.6101c0.10524,-0.28269 0.39018,-0.77777 1.06922,-0.63083c0.93572,0.20248 0.74835,1.21917 0.74835,1.21917l-0.45341,0.91377c-5.26459,3.81328 -10.47356,7.71029 -15.53567,11.88501c-2.75057,2.80463 -5.40572,6.04318 -8.3931,8.54157c-5.68977,4.75841 -12.59628,7.65094 -18.10376,12.68026c0,0 -0.73085,0.66742 -1.34448,-0.1258c-0.61362,-0.79324 0.11723,-1.46063 0.11723,-1.46063c5.53322,-5.05285 12.45503,-7.95861 18.16766,-12.73616c2.96306,-2.47804 5.59346,-5.704 8.32549,-8.48232c5.0161,-4.14818 10.18487,-8.01381 15.40246,-11.80406z" data-paper-data="{&quot;index&quot;:null}" fill="#000000" stroke="none" stroke-width="0.5" stroke-linecap="butt"/><path d="M360.34504,80.29272c0,-0.31649 0.15187,-0.43265 0.26336,-0.47528c0.20714,-3.61988 0.1858,-7.2264 0.75391,-10.78504c0.47288,-2.96215 1.79457,-5.5087 2.69642,-8.24734c0.21014,-0.63701 1.07988,-4.07483 1.80574,-4.02782c0.7457,0.04829 0.99169,2.9317 1.1928,3.68155c0.95618,3.56506 2.94083,6.46437 3.99159,9.9851c1.92532,6.47525 5.26595,9.24642 10.50397,9.78647c5.03047,0.53857 9.71023,0.47822 14.71055,-0.78667c4.53037,-1.14576 10.01049,-1.6191 13.80787,-5.29146c0.76711,-0.75861 1.57494,-1.49018 2.40476,-2.18581c0.10162,-0.94966 0.18689,-1.87614 0.26093,-2.76223c0,0 0.04186,-0.49694 0.41859,-0.44173c0.37673,0.05522 0.33488,0.55216 0.33488,0.55216c-0.05451,0.64159 -0.11478,1.30076 -0.18253,1.97214c0.78544,-0.62549 1.58461,-1.21716 2.38232,-1.76777c0.00209,-0.03212 0.00639,-0.06616 0.01322,-0.1022c0.09193,-0.48507 0.45967,-0.3638 0.45967,-0.3638l0.36133,1.02379c-1.12321,0.75218 -2.25616,1.59049 -3.35414,2.49415c-0.54426,4.7859 -1.50637,10.00287 -3.46932,13.81604c-3.02993,5.83181 -6.77905,10.68425 -11.9626,12.88511c-5.13108,1.44609 -10.37724,1.09768 -15.59138,1.41758c-5.23654,0.32128 -10.53809,0.65052 -15.44793,-2.27135c-4.83678,-3.90783 -6.62287,-10.42026 -6.14868,-17.65823c-0.09972,-0.05884 -0.20531,-0.18346 -0.20531,-0.44735zM364.52467,80.57061c1.86733,0.98531 3.54887,2.73278 5.39015,3.86193c4.34031,2.69606 9.01053,3.12375 13.64495,4.28373c4.85689,0.14077 9.7553,0.27119 14.55446,-0.36922c1.12148,-0.42727 2.2464,-0.30402 3.36409,-0.64572c2.80671,-0.85807 5.4582,-2.84304 8.30785,-3.42431c1.33446,-3.21854 2.07945,-7.2317 2.53927,-11.01159c-0.6191,0.53817 -1.22282,1.09617 -1.80266,1.67005c-3.90521,3.77679 -9.45848,4.29175 -14.11665,5.47032c-5.07547,1.28387 -9.80784,1.30979 -14.91266,0.8015c-5.51333,-0.57348 -9.12004,-3.58981 -11.15038,-10.41827c-0.87049,-2.93945 -2.49672,-5.39522 -3.55238,-8.20538c-0.30792,-0.81969 -0.49738,-1.88064 -0.72148,-2.74918c-0.08038,-0.31152 -0.23346,-0.86562 -0.32432,-1.32919c-0.28976,0.9375 -0.91324,2.44248 -0.99097,2.67851c-0.8804,2.66866 -2.19148,5.1673 -2.64973,8.05413c-0.56284,3.5457 -0.53613,7.14117 -0.74545,10.74908c0.74964,0.28481 2.36175,0.15929 3.16591,0.58361zM401.65252,88.67457c-1.13213,0.34132 -2.26303,0.23195 -3.39585,0.65467c-4.8768,0.63564 -9.84324,0.545 -14.77693,0.38144c-4.72509,-1.18866 -9.44954,-1.66336 -13.8855,-4.37196c-1.80812,-1.11774 -3.51012,-2.88819 -5.34746,-3.83772c-0.99542,-0.51442 -2.0535,-0.31162 -2.94938,-0.54837c-0.42398,6.76112 1.20577,12.90655 5.75548,16.56129c4.78588,2.83314 9.96152,2.46955 15.05886,2.15681c5.15811,-0.31647 10.35448,0.03678 15.43102,-1.38481c5.00295,-2.1337 8.60831,-6.85531 11.53285,-12.48428c0.06719,-0.12797 0.13316,-0.25778 0.19793,-0.38935c-2.59184,0.70307 -5.04305,2.48506 -7.62103,3.26227z" fill="#000000" stroke="none" stroke-width="0.5" stroke-linecap="butt"/><path d="M409.2361,85.4201c-0.06477,0.13157 -0.0558,0.24632 -0.12299,0.37429c-2.92454,5.62896 -6.5333,10.37968 -11.53625,12.51338c-5.07655,1.42158 -10.3225,1.09214 -15.48061,1.4086c-5.09734,0.31274 -10.29384,0.64487 -15.07972,-2.18827c-4.54971,-3.65474 -6.17943,-9.82869 -5.75544,-16.58981c0.89588,0.23675 2.02636,0.0636 3.02177,0.57803c1.83734,0.94953 3.54007,2.7166 5.34819,3.83434c4.43596,2.7086 9.08731,3.15692 13.8124,4.34558c4.93368,0.16357 9.89858,0.27181 14.77539,-0.36383c1.13281,-0.42272 2.26377,-0.3125 3.3959,-0.65382c2.57798,-0.77721 5.02953,-2.55541 7.62137,-3.25849z" data-paper-data="{&quot;noHover&quot;:false,&quot;origItem&quot;:[&quot;Path&quot;,{&quot;applyMatrix&quot;:true,&quot;segments&quot;:[[[298.99902,87.22739],[3.40058,-0.77721],[-1.49338,0.34132]],[[294.51959,87.88206],[1.49428,-0.42272],[-6.43293,0.63564]],[[275.02753,88.26349],[6.50796,0.16357],[-6.23281,-1.18866]],[[256.71134,83.89154],[5.85142,2.7086],[-2.38507,-1.11774]],[[249.65757,80.05381],[2.42361,0.94953],[-1.31304,-0.51442]],[[245.76708,79.50545],[1.18174,0.23675],[-0.55927,6.76112]],[[253.35906,96.06673],[-6.00147,-3.65474],[6.313,2.83314]],[[273.22302,98.22355],[-6.72384,0.31274],[6.804,-0.31647]],[[293.57789,96.83874],[-6.69641,1.42158],[6.59933,-2.1337]],[[308.79073,84.35447],[-3.85772,5.62896],[0.08863,-0.12797]],[[309.05182,83.96512],[-0.08544,0.13157],[-3.41887,0.70307]]],&quot;closed&quot;:true}]}" fill="#ffffff" stroke="none" stroke-width="0.5" stroke-linecap="butt"/><path d="M361.32152,79.99624c0.20932,-3.60791 0.1823,-7.21934 0.74514,-10.76505c0.45825,-2.88684 1.77205,-5.39844 2.65245,-8.0671c0.07774,-0.23603 0.70277,-1.74524 0.99253,-2.68274c0.09087,0.46357 0.31107,1.06413 0.39144,1.37565c0.2241,0.86854 0.41468,1.92627 0.72261,2.74597c1.05566,2.81016 2.68451,5.25316 3.555,8.19261c2.03034,6.82846 5.62537,9.80172 11.13871,10.3752c5.10482,0.50829 9.77786,0.49533 14.85333,-0.78854c4.65817,-1.17857 10.207,-1.672 14.11222,-5.44879c0.57983,-0.57388 1.25933,-1.13045 1.87843,-1.66863c-0.45981,3.77989 -1.20694,7.8102 -2.5414,11.02873c-2.84966,0.58126 -5.50625,2.5791 -8.31296,3.43716c-1.1177,0.3417 -2.2463,0.22418 -3.36778,0.65145c-4.79917,0.64041 -9.73502,0.52292 -14.59192,0.38215c-4.63442,-1.15998 -9.3283,-1.61401 -13.66862,-4.31007c-1.84129,-1.12914 -3.52559,-2.88692 -5.39291,-3.87223c-0.80415,-0.42432 -2.41662,-0.30097 -3.16626,-0.58578z" data-paper-data="{&quot;noHover&quot;:false,&quot;origItem&quot;:[&quot;Path&quot;,{&quot;applyMatrix&quot;:true,&quot;segments&quot;:[[[250.02414,79.12343],[-1.06075,-0.42432],[2.46317,0.98531]],[[257.13422,82.98535],[-2.42882,-1.12914],[5.72525,2.69606]],[[275.13312,87.26908],[-6.11321,-1.15998],[6.40666,0.14077]],[[294.33173,86.89986],[-6.33052,0.64041],[1.47933,-0.42727]],[[298.76926,86.25414],[-1.47434,0.3417],[3.70229,-0.85807]],[[309.72804,82.82983],[-3.75895,0.58126],[1.76027,-3.21854]],[[313.07756,71.81824],[-0.60653,3.77989],[-0.81665,0.53817]],[[310.6997,73.48829],[0.76485,-0.57388],[-5.15132,3.77679]],[[292.0786,78.95861],[6.14453,-1.17857],[-6.69499,1.28387]],[[272.40749,79.76011],[6.73371,0.50829],[-7.27257,-0.57348]],[[257.69916,69.34184],[2.6782,6.82846],[-1.14825,-2.93945]],[[253.01326,61.13646],[1.39251,2.81016],[-0.40618,-0.81969]],[[252.06157,58.38729],[0.29561,0.86854],[-0.10603,-0.31152]],[[251.63375,57.05809],[0.11986,0.46357],[-0.38222,0.9375]],[[250.32658,59.7366],[0.10254,-0.23603],[-1.16132,2.66866]],[[246.83135,67.79074],[0.60447,-2.88684],[-0.74243,3.5457]],[[245.84804,78.53982],[0.27611,-3.60791],[0.98884,0.28481]]],&quot;closed&quot;:true}]}" fill="#ffffff" stroke="none" stroke-width="0.5" stroke-linecap="butt"/></g><path d="M609.88318,110.86789l2.63227,1.33561l3.81546,2.60561l3.60224,3.31425l0.12017,6.29967l-10.84321,-1.51887z" data-paper-data="{&quot;index&quot;:null}" fill="#000000" stroke="#000000" stroke-width="0" stroke-linecap="round"/></g><g fill-rule="nonzero" stroke="#000000" stroke-width="1"><path d="M595.58027,136.99216l-3.34629,13.09641l-4.99293,19.00939l-21.1279,15.28181l-502.36544,141.97775l-19.28469,-4.49533l-14.05403,-13.9496l-5.30669,-14.08633l12.02766,-7.64348l5.43594,13.08099l13.1597,7.93062l14.6952,1.63121l484.86426,-137.36255l11.75236,-7.14589l9.5397,-9.01996l5.33151,-14.92263z" fill="#00db64" stroke-linecap="round"/><path d="M469.89964,249.91869c-5.61674,-19.52864 5.66106,-39.913 25.18971,-45.52975c19.52865,-5.61674 39.913,5.66108 45.52975,25.18972c5.61675,19.52864 -5.66106,39.913 -25.18971,45.52974c-19.52864,5.61674 -39.913,-5.66106 -45.52975,-25.18971z" fill="#414141" stroke-linecap="butt"/><path d="M485.35741,245.47279c-3.16134,-10.99152 3.18629,-22.46469 14.17783,-25.62603c10.99153,-3.16134 22.46469,3.18629 25.62603,14.17782c3.16134,10.99152 -3.18629,22.4647 -14.17782,25.62604c-10.99152,3.16134 -22.46469,-3.18629 -25.62603,-14.17781z" fill="#cbcbcb" stroke-linecap="butt"/><path d="M109.89685,352.62432c-5.61674,-19.52864 5.66107,-39.913 25.18972,-45.52975c19.52865,-5.61674 39.913,5.66107 45.52974,25.18971c5.61674,19.52864 -5.66106,39.913 -25.18971,45.52975c-19.52865,5.61674 -39.913,-5.66106 -45.52974,-25.18971z" fill="#414141" stroke-linecap="butt"/><path d="M125.35469,348.17842c-3.16134,-10.99152 3.18629,-22.46469 14.17782,-25.62603c10.99153,-3.16134 22.46469,3.18629 25.62603,14.17783c3.16134,10.99152 -3.18629,22.4647 -14.17782,25.62604c-10.99153,3.16134 -22.46469,-3.18629 -25.62603,-14.17782z" fill="#cbcbcb" stroke-linecap="butt"/></g></g></g></svg>