<svg version="1.1" xmlns="http://www.w3.org/2000/svg" xmlns:xlink="http://www.w3.org/1999/xlink" width="1733.09309" height="836.33634" viewBox="0,0,1733.09309,836.33634"><g transform="translate(546.54655,238.16817)"><g data-paper-data="{&quot;isPaintingLayer&quot;:true}" stroke-linejoin="miter" stroke-miterlimit="10" stroke-dasharray="" stroke-dashoffset="0" style="mix-blend-mode: normal"><path d="M-546.54655,598.16817v-836.33634h1733.09309v836.33634z" fill="none" fill-rule="nonzero" stroke="#f00000" stroke-width="0" stroke-linecap="butt"/><path d="M219.84164,179.35825c2.19657,0.45455 4.39292,0.90906 6.58951,1.36362c-0.17134,1.19552 -0.48234,2.31594 -0.93255,3.36135c0.21945,-1.06045 0.43885,-2.12068 0.6583,-3.18114c-2.17742,-0.37311 -4.28243,-0.88762 -6.31525,-1.54383z" data-paper-data="{&quot;index&quot;:null}" fill="#74140b" fill-rule="evenodd" stroke="none" stroke-width="1" stroke-linecap="butt"/><g fill-rule="nonzero"><g><path d="M626.20048,156.40372c-0.01248,-0.07331 -0.01063,-0.5679 -0.01063,-0.5679l0.00731,-1.25798c0.00692,-0.25937 0.01384,-0.51874 0.02077,-0.7781c0.00373,-0.03824 0.00721,-0.0786 0.01046,-0.12109c0.00066,-0.18973 0.00133,-0.37889 0.00202,-0.56743c0.00716,-1.94812 0.01222,-4.45293 0.04706,-5.88204c0,0 0.00874,-0.34628 0.01757,-0.01074c0.00047,-0.10235 0.00133,-0.20026 0.00274,-0.29197c0.00451,-0.29263 0.01835,-0.15543 0.02362,-0.42756c0.00517,-0.26719 -0.00158,-0.74299 0.00397,-0.99785c0.01146,-0.52597 0.0356,-0.32238 0.04879,-0.78077c0.04878,-1.69635 0.10688,-2.35858 0.15537,-4.58292c0.01443,-0.2915 0.03356,-0.28872 0.0447,-0.75444c0.01987,-0.8304 0.00661,-3.1147 0.03136,-3.87471c0.01656,-0.50826 0.0809,-0.34222 0.10404,-0.59827c0.08839,-0.97828 0.17206,-2.6409 0.25992,-3.77587c0.1696,-1.77379 0.33765,-4.0008 0.49609,-7.03653c0.16446,-3.14876 0.31904,-5.75144 0.49952,-7.06717c0.17521,-1.27737 0.33383,-4.54799 0.50928,-5.51826c0.14358,-0.79405 0.31717,-3.12642 0.43666,-6.57348l0.01228,-0.6551c0.00229,-0.12523 0.00602,-0.20667 0.01022,-0.20667c0.00697,0 0.01262,0.22386 0.01262,0.5c0,0.01728 -0.00002,0.03436 -0.00007,0.05119l-0.00226,0.98974c-0.00165,0.69773 -0.00531,1.39239 -0.01086,2.05781c-0.056,6.64261 -0.122,13.09314 -0.17469,19.79957c-0.02767,3.52176 -0.02277,7.32008 -0.04983,10.78979c-0.02454,3.14735 -0.08232,5.87747 -0.10876,9.02654c-0.0219,2.59993 -0.04609,5.00607 -0.0781,7.44053c-0.01741,1.32398 -0.04922,2.86543 -0.05889,4.29914c-0.00632,0.93704 0.00469,2.06637 -0.00215,3.00817c-0.01068,1.46921 -0.04537,3.07796 -0.06508,4.39889c-0.02665,2.31506 -0.06488,4.75012 -0.083,7.18646c-0.01176,1.5822 -0.00561,3.38417 -0.01824,4.95811c-0.02027,2.52668 -0.07505,4.52933 -0.09246,7.05772c-0.04766,6.77757 -0.05675,13.70952 -0.08705,20.62536c-0.0302,6.89414 -0.06152,13.78189 -0.08915,20.69296c-0.02764,6.91377 -0.05529,13.82753 -0.08294,20.7413c-0.02732,6.83236 -0.09397,13.63149 -0.14306,20.27144c-0.0497,6.72211 -0.10967,13.35181 -0.1735,19.88035c-0.0636,6.50491 -0.06957,13.59143 -0.07952,20.48975c-0.0105,7.2801 -0.05132,13.59794 -0.10141,20.60243c-0.04546,6.35649 -0.09523,13.83642 -0.09557,20.47648c-0.00006,0.66857 0.0064,2.81251 -0.00394,3.32416c-0.02465,1.21994 -0.09292,0.99985 -0.12909,0.99979c-0.10981,-0.00018 -0.21963,0.01721 -0.32942,-0.05986c-0.08664,-0.67147 -0.18346,-1.31988 -0.27194,-0.65659c-0.04099,0.30731 -0.07919,1.28505 -0.12043,1.54306c-0.04043,0.25292 -0.08717,0.00612 -0.12816,0.00612c-0.17667,0 -0.35334,-0.00142 -0.53001,0.00029c-0.17757,0.00171 -0.35171,0.78506 -0.52858,0.85299c-0.08183,0.03143 -0.17281,1.19985 -0.25253,0.69903c-0.09553,-0.60017 -0.17184,-1.5523 -0.27045,-1.5523c-0.17667,0 -0.35334,0 -0.53002,0c-0.17667,0 -0.35334,0 -0.53002,0c-0.17667,0 -0.35334,-0.00011 -0.53002,0.00017c-0.1756,0.00027 -0.35367,-0.29477 -0.52862,0.31224c-0.10947,0.37982 -0.21847,0.31682 -0.32776,0.61162c-0.06853,0.18486 -0.13382,0.76346 -0.20284,0.67569c-0.01571,-0.10469 -0.07302,-0.20562 -0.08304,-0.67568c-0.01666,-0.78143 -0.00298,-4.28677 -0.00298,-5.32266c-0.00001,-4.35998 -0.00439,-8.57952 -0.01574,-12.91649c-0.01808,-6.9117 -0.00528,-14.09125 -0.00527,-21.04093c0.00001,-7.12895 -0.01282,-14.00666 0.04229,-20.84535c0.00126,-7.46679 0.14596,-12.44318 0.28374,-16.92974c0.01887,-0.90584 0.04173,-2.51945 0.06656,-3.14697c0.0286,-0.72273 0.07128,-0.52409 0.10194,-0.84673c0.03615,-0.38047 0.04577,-1.89266 0.07515,-2.44854c0.02791,-0.52803 0.07364,0.04586 0.10392,-0.18671c0.03798,-0.29166 0.08396,-0.53406 0.12022,-1.02945c0.16619,-2.22544 0.35387,-1.30703 0.52875,-1.30694c0.17734,0.0025 0.35347,0.06078 0.53046,0.5123c0.17614,0.44937 0.35247,0.3216 0.52895,0.32423c0.17693,0.00263 0.35311,0.82888 0.52903,0.82853c0.06729,-0.00014 0.13459,0.00444 0.20188,-0.00169c0.02529,-0.0023 0.07131,0.33002 0.09421,-0.18668c0.05755,-1.29894 0.06398,-5.59035 0.09461,-7.73851c0.04339,-3.031 0.04084,-6.03344 0.05616,-9.41153c0.01651,-3.64067 0.04593,-7.17706 0.08054,-10.60658c0.06555,-6.49508 0.10104,-13.47004 0.17275,-19.85673c0.07105,-6.31825 0.12991,-13.36757 0.24757,-18.5154c0.08814,-6.2286 0.13094,-12.55514 0.16692,-19.54316c0.03548,-6.89054 0.08237,-13.60899 0.12963,-20.38622c0.02236,-3.19402 0.02988,-6.65387 0.04031,-9.99179c-0.00319,0.12864 -0.00639,0.25728 -0.00958,0.38592l0.00003,0.68893c0,0 -0.00185,0.4946 -0.01433,0.42129zM626.25586,153.12801c0.0278,-0.87626 0.01943,-2.24088 0.0399,-4.11387c0.00361,-0.33059 0.00158,-0.71881 0.00005,-1.09882c-0.00029,0.01362 -0.00048,0.02095 -0.00048,0.02095c-0.02977,1.12627 -0.03372,3.55002 -0.03947,5.19173z" fill="#747474" stroke="none" stroke-width="0.5" stroke-linecap="butt"/><path d="M632.80449,155.98243l0.00003,-0.68893c-0.00319,-0.12864 -0.00639,-0.25728 -0.00958,-0.38592c0.01043,3.33792 0.01795,6.79778 0.04031,9.99179c0.04727,6.77723 0.09415,13.49568 0.12963,20.38622c0.03598,6.98802 0.07878,13.31456 0.16692,19.54316c0.11766,5.14783 0.17653,12.19715 0.24757,18.5154c0.07172,6.38669 0.1072,13.36165 0.17275,19.85673c0.03461,3.42952 0.06403,6.96591 0.08054,10.60658c0.01532,3.37809 0.01277,6.38053 0.05616,9.41153c0.03063,2.14816 0.03707,6.43957 0.09461,7.73851c0.02289,0.51671 0.06892,0.18438 0.09421,0.18668c0.06729,0.00612 0.13459,0.00155 0.20188,0.00169c0.17592,0.00035 0.35209,-0.8259 0.52903,-0.82853c0.17648,-0.00263 0.35281,0.12514 0.52895,-0.32423c0.17698,-0.45153 0.35312,-0.50981 0.53046,-0.5123c0.17487,-0.00009 0.36255,-0.9185 0.52875,1.30694c0.03626,0.49539 0.08224,0.73779 0.12022,1.02945c0.03028,0.23257 0.07601,-0.34132 0.10392,0.18671c0.02939,0.55588 0.039,2.06807 0.07515,2.44854c0.03065,0.32264 0.07333,0.12401 0.10194,0.84673c0.02484,0.62752 0.0477,2.24113 0.06656,3.14697c0.13778,4.48656 0.28249,9.46295 0.28374,16.92974c0.0551,6.83869 0.04228,13.7164 0.04229,20.84535c0.00001,6.94968 0.01282,14.12923 -0.00527,21.04093c-0.01135,4.33697 -0.01573,8.55651 -0.01574,12.91649c0,1.03589 0.01368,4.54123 -0.00298,5.32266c-0.01002,0.47006 -0.06733,0.57099 -0.08304,0.67568c-0.06902,0.08777 -0.13432,-0.49083 -0.20284,-0.67569c-0.10928,-0.2948 -0.21829,-0.2318 -0.32776,-0.61162c-0.17495,-0.60701 -0.35303,-0.31196 -0.52862,-0.31224c-0.17667,-0.00027 -0.35334,-0.00017 -0.53002,-0.00017c-0.17667,0 -0.35334,0 -0.53002,0c-0.17667,0 -0.35334,0 -0.53002,0c-0.09861,0 -0.17492,0.95214 -0.27045,1.5523c-0.07972,0.50082 -0.1707,-0.6676 -0.25253,-0.69903c-0.17687,-0.06793 -0.35101,-0.85127 -0.52858,-0.85299c-0.17667,-0.00171 -0.35334,-0.00029 -0.53001,-0.00029c-0.04099,0 -0.08773,0.2468 -0.12816,-0.00612c-0.04124,-0.25801 -0.07944,-1.23575 -0.12043,-1.54306c-0.08848,-0.6633 -0.18531,-0.01488 -0.27194,0.65659c-0.1098,0.07707 -0.21961,0.05968 -0.32942,0.05986c-0.03617,0.00006 -0.10444,0.22015 -0.12909,-0.99979c-0.01034,-0.51165 -0.00388,-2.65559 -0.00394,-3.32416c-0.00034,-6.64006 -0.05012,-14.11999 -0.09557,-20.47648c-0.05009,-7.00449 -0.09092,-13.32233 -0.10141,-20.60243c-0.00995,-6.89832 -0.01592,-13.98485 -0.07952,-20.48975c-0.06383,-6.52855 -0.1238,-13.15824 -0.1735,-19.88035c-0.04909,-6.63995 -0.11574,-13.43908 -0.14306,-20.27144c-0.02764,-6.91377 -0.05529,-13.82753 -0.08294,-20.7413c-0.02763,-6.91107 -0.05895,-13.79883 -0.08915,-20.69296c-0.0303,-6.91584 -0.03939,-13.84779 -0.08705,-20.62536c-0.0174,-2.52839 -0.07219,-4.53104 -0.09246,-7.05772c-0.01263,-1.57394 -0.00648,-3.37591 -0.01824,-4.95811c-0.01811,-2.43634 -0.05635,-4.8714 -0.083,-7.18646c-0.01971,-1.32093 -0.0544,-2.92968 -0.06508,-4.39889c-0.00685,-0.9418 0.00416,-2.07114 -0.00215,-3.00817c-0.00966,-1.43371 -0.04148,-2.97516 -0.05889,-4.29914c-0.032,-2.43446 -0.05619,-4.8406 -0.0781,-7.44053c-0.02645,-3.14907 -0.08422,-5.87919 -0.10876,-9.02654c-0.02705,-3.46972 -0.02216,-7.26803 -0.04983,-10.78979c-0.05269,-6.70643 -0.11869,-13.15696 -0.17469,-19.79957c-0.00555,-0.66542 -0.00921,-1.36009 -0.01086,-2.05781l-0.00226,-0.98974c-0.00004,-0.01683 -0.00007,-0.03391 -0.00007,-0.05119c0,-0.27614 0.00565,-0.5 0.01262,-0.5c0.0042,0 0.00793,0.08143 0.01022,0.20667l0.01228,0.6551c0.11949,3.44706 0.29308,5.77943 0.43666,6.57348c0.17545,0.97027 0.33407,4.2409 0.50928,5.51826c0.18048,1.31573 0.33506,3.9184 0.49952,7.06717c0.15845,3.03573 0.32649,5.26275 0.49609,7.03653c0.08786,1.13496 0.17153,2.79758 0.25992,3.77587c0.02313,0.25605 0.08748,0.09001 0.10404,0.59827c0.02475,0.76002 0.0115,3.04431 0.03136,3.87471c0.01114,0.46572 0.03027,0.46294 0.0447,0.75444c0.04848,2.22434 0.10658,2.88657 0.15537,4.58292c0.01318,0.45839 0.03733,0.2548 0.04879,0.78077c0.00555,0.25486 -0.0012,0.73066 0.00397,0.99785c0.00527,0.27213 0.0191,0.13492 0.02362,0.42756c0.00141,0.0917 0.00227,0.18961 0.00274,0.29197c0.00883,-0.33554 0.01757,0.01074 0.01757,0.01074c0.03483,1.42911 0.0399,3.93393 0.04706,5.88204c0.00069,0.18854 0.00137,0.3777 0.00202,0.56743c0.00325,0.04248 0.00674,0.08285 0.01046,0.12109c0.00692,0.25937 0.01384,0.51874 0.02077,0.7781l0.00731,1.25798c0,0 0.00185,0.4946 -0.01063,0.5679c-0.01248,0.07331 -0.01433,-0.42129 -0.01433,-0.42129zM632.72399,147.93628c0,0 -0.00019,-0.00733 -0.00048,-0.02095c-0.00154,0.38001 -0.00357,0.76823 0.00005,1.09882c0.02047,1.87299 0.01211,3.2376 0.0399,4.11387c-0.00575,-1.64172 -0.0097,-4.06546 -0.03947,-5.19173z" data-paper-data="{&quot;index&quot;:null}" fill="#747474" stroke="none" stroke-width="0.5" stroke-linecap="butt"/><path d="M625.50553,100.87536l-0.20475,-5.70546l1.60385,-16.9577l1.33725,20.79173l-0.23397,4.36976l-1.10264,-15.68193z" data-paper-data="{&quot;index&quot;:null}" fill="#303c43" stroke="#000000" stroke-width="0" stroke-linecap="round"/><path d="M631.06265,243.19326l0.0747,-99.88686l5.8049,28.36829l0.05399,61.84326z" data-paper-data="{&quot;index&quot;:null}" fill="#85c1da" stroke="#000000" stroke-width="0" stroke-linecap="round"/><path d="M636.75576,233.83276l-1.26416,2.77246l0.01003,-61.20178c0,0 0.47881,-3.34002 0.70151,-2.02916c0.20449,1.20365 0.58472,9.60016 0.58472,9.60016l-0.00757,50.5442z" data-paper-data="{&quot;index&quot;:null}" fill="#01005e" stroke="#000000" stroke-width="0" stroke-linecap="round"/><path d="M635.62218,235.84501l0.00046,-55.06855c0,0 0.39124,-2.21632 0.57655,-1.14016c0.15538,0.90231 0.46141,7.16791 0.46141,7.16791l-0.00687,47.47613z" data-paper-data="{&quot;index&quot;:null}" fill="#85c1da" stroke="#000000" stroke-width="0" stroke-linecap="round"/><path d="M635.2922,235.83344l-1.50235,4.00106l-0.00979,-72.78621c0,0 0.54673,-3.87197 0.81227,-2.43582c0.24325,1.31562 0.71999,10.72283 0.71999,10.72283l0.00893,60.11095z" data-paper-data="{&quot;index&quot;:null}" fill="#01005e" stroke="#000000" stroke-width="0" stroke-linecap="round"/><path d="M633.9449,238.85773l-0.01899,-65.48731c0,0 0.41554,-4.22017 0.62317,-3.11356c0.20448,1.08983 0.6133,9.70362 0.6133,9.70362l0.00868,56.46201z" data-paper-data="{&quot;index&quot;:null}" fill="#85c1da" stroke="#000000" stroke-width="0" stroke-linecap="round"/><path d="M633.62419,238.69934l-1.77731,4.73336l-0.01158,-86.10783c0,0 0.69176,-3.62096 1.01447,-1.87563c0.27326,1.47788 0.79824,11.67936 0.79824,11.67936l0.01056,71.11269z" data-paper-data="{&quot;index&quot;:null}" fill="#01005e" stroke="#000000" stroke-width="0" stroke-linecap="round"/><path d="M632.03028,242.27716l-0.02246,-77.47303c0,0 0.57027,-5.6333 0.82912,-4.25369c0.22355,1.19144 0.63365,12.04988 0.63365,12.04988l0.01027,66.79592z" data-paper-data="{&quot;index&quot;:null}" fill="#85c1da" stroke="#000000" stroke-width="0" stroke-linecap="round"/><path d="M631.05651,243.73247l-4.00324,-10.23811l0.04,-71.69394l4.0412,-18.00732z" data-paper-data="{&quot;index&quot;:null}" fill="#85c1da" stroke="#000000" stroke-width="0" stroke-linecap="round"/><path d="M633.5328,155.56493l-0.04404,-61.41538l1.83032,14.86381l0.04356,54.25635z" data-paper-data="{&quot;index&quot;:null}" fill="#85c1da" stroke="#000000" stroke-width="0" stroke-linecap="round"/><path d="M633.52778,154.97299l-1.41605,-6.76138l0.00275,-32.9815l1.36933,-20.68507z" data-paper-data="{&quot;index&quot;:null}" fill="#85c1da" stroke="#000000" stroke-width="0" stroke-linecap="round"/><path d="M633.48633,94.98914l-0.23896,4.37029l-0.02226,-34.16379l1.0622,7.39155l0.01186,27.84513z" data-paper-data="{&quot;index&quot;:null}" fill="#85c1da" stroke="#000000" stroke-width="0" stroke-linecap="round"/><path d="M632.11203,115.67474l-0.16995,-7.09161l1.53868,-22.48054l2.13947,16.55893l-0.31855,6.74867l-1.78043,-14.22727z" data-paper-data="{&quot;index&quot;:null}" fill="#303c43" stroke="#000000" stroke-width="0" stroke-linecap="round"/><path d="M633.23677,89.88092l-0.2042,2.39166l-0.0514,-22.90363l0.24396,-4.17332z" data-paper-data="{&quot;index&quot;:null}" fill="#85c1da" stroke="#000000" stroke-width="0" stroke-linecap="round"/><path d="M632.85124,64.64301l0.33847,-6.94829l1.34137,7.9543l-0.23379,7.13463l-1.05223,-7.39262l-0.27882,4.57202z" data-paper-data="{&quot;index&quot;:null}" fill="#303c43" stroke="#000000" stroke-width="0" stroke-linecap="round"/><path d="M633.18223,57.49803l-0.33345,7.54023l0.14486,4.52689l0.04146,23.29967l-1.10049,15.91661l0.17988,6.49808l-0.00277,32.5865l-0.9573,-4.04535l-0.62292,2.04128l0.03642,-50.95687l1.4051,-44.53605l0.00226,-40.09115l2.22089,22.87l0.01078,30.31392z" data-paper-data="{&quot;index&quot;:null}" fill="#85c1da" stroke="#000000" stroke-width="0" stroke-linecap="round"/><path d="M630.55639,145.71115l-2.77545,13.33014l0.08196,-40.88962l2.71495,-23.44517z" data-paper-data="{&quot;index&quot;:null}" fill="#85c1da" stroke="#000000" stroke-width="0" stroke-linecap="round"/><path d="M631.98042,49.38074l-1.42243,46.16723l-2.71728,22.80357l-0.26463,-6.68654l2.91932,-23.41758l1.49458,-48.0017z" data-paper-data="{&quot;index&quot;:null}" fill="#303c43" stroke="#000000" stroke-width="0" stroke-linecap="round"/><path d="M631.97002,39.80348l-2.84327,42.36873l0.01323,-25.47791l2.84796,-46.66467z" data-paper-data="{&quot;index&quot;:null}" fill="#85c1da" stroke="#000000" stroke-width="0" stroke-linecap="round"/><path d="M631.9564,41.08863l-1.45223,47.75033l-2.91936,22.8251l1.56684,-29.8895l2.82334,-42.16911z" data-paper-data="{&quot;index&quot;:null}" fill="#d19090" stroke="#000000" stroke-width="0" stroke-linecap="round"/><path d="M631.98051,10.91913l-2.84301,46.12105l-0.39407,-4.30285l3.29723,-55.25408l2.39432,26.01141l-0.24358,9.70307z" data-paper-data="{&quot;index&quot;:null}" fill="#303c43" stroke="#000000" stroke-width="0" stroke-linecap="round"/><path d="M627.57984,112.05958l0.27957,6.48746l-0.08697,40.49518l-0.93189,3.06164l0.06473,-74.46146l1.09764,15.48496z" data-paper-data="{&quot;index&quot;:null}" fill="#85c1da" stroke="#000000" stroke-width="0" stroke-linecap="round"/><path d="M626.83548,160.72196l-1.41051,1.53271l0.08555,-61.42921l1.39976,-12.9861z" data-paper-data="{&quot;index&quot;:null}" fill="#85c1da" stroke="#000000" stroke-width="0" stroke-linecap="round"/><path d="M625.62429,161.44346l0.07612,-53.5285c0,0 0.24846,-8.43791 0.38728,-9.40342c0.17144,-1.19245 0.56431,2.7848 0.56431,2.7848l-0.02585,59.84291z" data-paper-data="{&quot;index&quot;:null}" fill="#01005e" stroke="#01005e" stroke-width="0" stroke-linecap="round"/><path d="M625.75389,161.34023l0.06143,-49.57709c0,0 0.1692,-7.97273 0.27848,-8.62045c0.12587,-0.74608 0.43401,4.39721 0.43401,4.39721l-0.05118,53.72334z" data-paper-data="{&quot;index&quot;:null}" fill="#2b3b41" stroke="#000000" stroke-width="0" stroke-linecap="round"/><path d="M625.42968,158.30432l-0.71767,1.45891l0.06158,-47.4047l0.72241,-5.01426z" data-paper-data="{&quot;index&quot;:null}" fill="#85c1da" stroke="#000000" stroke-width="0" stroke-linecap="round"/><path d="M624.7736,112.16102l-0.17983,-5.70811l0.92173,-5.82546l-0.00454,6.51772z" data-paper-data="{&quot;index&quot;:null}" fill="#303c43" stroke="#000000" stroke-width="0" stroke-linecap="round"/><path d="M625.26588,95.12425l0.25955,5.30465l-0.92177,5.233l0.18989,7.0895l-0.07662,46.17197l-0.41355,2.41397l-0.01527,-4.73818l0.06882,-87.69387l1.39714,21.77281z" data-paper-data="{&quot;index&quot;:null}" fill="#85c1da" stroke="#000000" stroke-width="0" stroke-linecap="round"/><path d="M624.28838,160.40081l-1.72964,-0.40821l0.15941,-74.76778l1.63381,-16.17091z" data-paper-data="{&quot;index&quot;:null}" fill="#85c1da" stroke="#000000" stroke-width="0" stroke-linecap="round"/><path d="M622.70817,85.27524l-0.30455,-7.27477l1.99245,-19.76397l1.57217,30.24633l-0.23412,2.19736l-1.39712,-21.57533z" data-paper-data="{&quot;index&quot;:null}" fill="#303c43" stroke="#000000" stroke-width="0" stroke-linecap="round"/><path d="M627.04967,232.14195l-0.9615,7.40964l-1.21265,-57.73604l-2.97853,-4.42252l0.6867,-17.05748l1.70467,-0.37909l0.05492,1.37659l0.3488,-1.61709l0.73259,-1.85547l0.00028,4.1473l1.43543,-1.53535l-0.02976,2.17558l0.2441,-2.00092z" data-paper-data="{&quot;index&quot;:null}" fill="#794a45" stroke="#000000" stroke-width="0" stroke-linecap="round"/><path d="M626.47109,160.87957l-0.51416,0.17824l0.05315,-43.40464c0,0 0.17237,-6.65275 0.2634,-7.19374c0.07515,-0.4466 0.24434,4.17641 0.24434,4.17641z" data-paper-data="{&quot;index&quot;:null}" fill="#720b00" stroke="#000000" stroke-width="0" stroke-linecap="round"/><path d="M625.13811,111.6673c0.07302,-0.51431 0.26665,2.11953 0.26665,2.11953l-0.04187,26.04903l-0.50448,1.67478l0.0747,-24.64764c0,0 0.13263,-4.68592 0.205,-5.1957z" data-paper-data="{&quot;index&quot;:null}" fill="#01005e" stroke="#000000" stroke-width="0" stroke-linecap="round"/><path d="M625.28631,136.60193l-0.33814,1.1167l0.05877,-18.26988c0,0 0.0877,-4.41113 0.13642,-4.77044c0.05852,-0.43151 0.19072,2.35806 0.19072,2.35806z" data-paper-data="{&quot;index&quot;:null}" fill="#baaa1d" stroke="#000000" stroke-width="0" stroke-linecap="round"/><path d="M622.85158,160.69048l0.10481,-63.25842c0,0 0.25591,-10.89251 0.41876,-12.09888c0.19145,-1.41814 0.65807,4.12216 0.65807,4.12216l-0.05248,70.7366z" data-paper-data="{&quot;index&quot;:null}" fill="#01005e" stroke="#000000" stroke-width="0" stroke-linecap="round"/><path d="M623.86894,160.74422l-0.89469,-0.87732l0.08062,-57.93345c0,0 0.24129,-10.95649 0.36834,-11.84168c0.15199,-1.05894 0.48225,5.91537 0.48225,5.91537l-0.05566,64.03667z" data-paper-data="{&quot;index&quot;:null}" fill="#baaa1d" stroke="#000000" stroke-width="0" stroke-linecap="round"/><path d="M631.60573,142.33184l0.01892,-42.68918c0,0 0.10984,-2.15711 0.15886,-1.72692c0.04831,0.4239 0.13316,4.28947 0.13316,4.28947l-0.00538,41.28284z" data-paper-data="{&quot;index&quot;:null}" fill="#01005e" stroke="#000000" stroke-width="0" stroke-linecap="round"/><path d="M631.67644,139.62257l0.01389,-36.52871c0,0 0.0547,-1.62488 0.08341,-1.41141c0.0286,0.2127 0.08851,2.68993 0.08851,2.68993l-0.003,36.09528z" data-paper-data="{&quot;index&quot;:null}" fill="#baaa1d" stroke="#000000" stroke-width="0" stroke-linecap="round"/><path d="M631.23461,140.10192l0.01892,-42.68918c0,0 0.10984,-2.15711 0.15886,-1.72692c0.04831,0.4239 0.13316,4.28947 0.13316,4.28947l-0.00538,41.28284z" data-paper-data="{&quot;index&quot;:null}" fill="#01005e" stroke="#000000" stroke-width="0" stroke-linecap="round"/><path d="M631.30536,137.39266l0.01389,-36.52872c0,0 0.0547,-1.62489 0.08341,-1.41142c0.0286,0.2127 0.08851,2.68994 0.08851,2.68994l-0.003,36.09529z" data-paper-data="{&quot;index&quot;:null}" fill="#baaa1d" stroke="#000000" stroke-width="0" stroke-linecap="round"/><path d="M630.84719,138.0899l0.01892,-42.68918c0,0 0.10984,-2.15711 0.15886,-1.72692c0.04831,0.4239 0.13316,4.28947 0.13316,4.28947l-0.00538,41.28285z" data-paper-data="{&quot;index&quot;:null}" fill="#01005e" stroke="#000000" stroke-width="0" stroke-linecap="round"/><path d="M630.9179,135.38063l0.01389,-36.52873c0,0 0.0547,-1.62489 0.08341,-1.41141c0.0286,0.2127 0.08851,2.68993 0.08851,2.68993l-0.003,36.0953z" data-paper-data="{&quot;index&quot;:null}" fill="#baaa1d" stroke="#baaa1d" stroke-width="0" stroke-linecap="round"/><path d="M632.32487,149.06356l-0.00214,-31.55584c0,0 0.25805,-7.94799 0.39485,-9.88795c0.14993,-2.12622 0.46895,-2.36181 0.46895,-2.36181l0.01694,48.62916z" data-paper-data="{&quot;index&quot;:null}" fill="#01005e" stroke="#000000" stroke-width="0" stroke-linecap="round"/><path d="M632.44768,149.75292l-0.01841,-30.14922c0,0 0.18361,-7.51064 0.2894,-9.06044c0.11185,-1.63849 0.36455,-0.51926 0.36455,-0.51926l0.01388,43.76637z" data-paper-data="{&quot;index&quot;:null}" fill="#baaa1d" stroke="#000000" stroke-width="0" stroke-linecap="round"/><path d="M634.14411,147.38382l-0.0081,-38.93092l0.64679,5.4426l0.03465,38.38774z" data-paper-data="{&quot;index&quot;:null}" fill="#baaa1d" stroke="#000000" stroke-width="0" stroke-linecap="round"/><path d="M634.77733,113.65293l0.23476,2.78477l0.05706,37.00748l-0.25923,-1.70148z" data-paper-data="{&quot;index&quot;:null}" fill="#01005e" stroke="#01005e" stroke-width="0" stroke-linecap="round"/><path d="M634.15229,147.43697l-0.30564,-2.34497l-0.01359,-39.55173l0.30024,3.10201z" data-paper-data="{&quot;index&quot;:null}" fill="#01005e" stroke="#000000" stroke-width="0" stroke-linecap="round"/><path d="M630.79106,53.61311l0.01223,-20.7505l0.3596,-6.41437l0.00689,21.07268z" data-paper-data="{&quot;index&quot;:null}" fill="#baaa1d" stroke="#000000" stroke-width="0" stroke-linecap="round"/><path d="M630.59757,56.4435l0.00405,-20.64156l0.19615,-3.4791l0.00415,20.96489z" data-paper-data="{&quot;index&quot;:null}" fill="#01005e" stroke="#000000" stroke-width="0" stroke-linecap="round"/><path d="M631.1643,47.52149l0.00406,-20.64156l0.19614,-3.47911l0.00415,20.96491z" data-paper-data="{&quot;index&quot;:null}" fill="#01005e" stroke="#000000" stroke-width="0" stroke-linecap="round"/><path d="M629.65008,71.16074l0.01223,-20.75051l0.3596,-6.41436l0.00689,21.07267z" data-paper-data="{&quot;index&quot;:null}" fill="#baaa1d" stroke="#000000" stroke-width="0" stroke-linecap="round"/><path d="M629.45661,73.99113l0.00405,-20.64156l0.19615,-3.4791l0.00415,20.96491z" data-paper-data="{&quot;index&quot;:null}" fill="#01005e" stroke="#000000" stroke-width="0" stroke-linecap="round"/><path d="M630.02334,65.06913l0.00406,-20.64156l0.19614,-3.47911l0.00415,20.96491z" data-paper-data="{&quot;index&quot;:null}" fill="#01005e" stroke="#000000" stroke-width="0" stroke-linecap="round"/><path d="M632.7917,93.76368l-0.45558,-1.14022l0.01739,-25.0738c0,0 0.13785,-2.9211 0.20794,-2.41904c0.07346,0.52615 0.22322,5.5071 0.22322,5.5071l0.00149,21.9378z" data-paper-data="{&quot;index&quot;:null}" fill="#01005e" stroke="#000000" stroke-width="0" stroke-linecap="round"/><path d="M632.42044,89.3724l0.01513,-18.15717c0,0 0.08197,-3.05744 0.12813,-2.74286c0.04749,0.32361 0.15294,4.65816 0.15294,4.65816l0.00122,17.9393z" data-paper-data="{&quot;index&quot;:null}" fill="#baaa1d" stroke="#000000" stroke-width="0" stroke-linecap="round"/><path d="M633.51397,86.12192l-0.0064,-13.9402c0,0 0.20872,-2.45144 0.32004,-1.66352c0.08941,0.63285 0.29668,6.02863 0.29668,6.02863l0.00917,14.5883z" data-paper-data="{&quot;index&quot;:null}" fill="#01005e" stroke="#000000" stroke-width="0" stroke-linecap="round"/><path d="M633.59584,86.65353l-0.00621,-11.13041c0,0 0.15627,-2.62401 0.23382,-1.9663c0.07321,0.6209 0.21921,5.80853 0.21921,5.80853l0.01167,11.12984z" data-paper-data="{&quot;index&quot;:null}" fill="#baaa1d" stroke="#000000" stroke-width="0" stroke-linecap="round"/><path d="M626.0038,117.8026l0.05984,-2.49196l0.10144,-2.30727l0.10348,-2.49662l0.02727,-0.08396l-0.02384,50.68679l-0.31091,0.46541z" data-paper-data="{&quot;index&quot;:null}" fill="#720b00" stroke="#000000" stroke-width="0" stroke-linecap="round"/><path d="M626.22689,139.71681l-0.18268,0.88401l0.02582,-21.50844l0.17424,-4.77358z" data-paper-data="{&quot;index&quot;:null}" fill="#baaa1d" stroke="#000000" stroke-width="0" stroke-linecap="round"/><path d="M626.36978,114.7377l0.13655,2.47104l-0.01482,22.80408l-0.14727,0.23183z" data-paper-data="{&quot;index&quot;:null}" fill="#baaa1d" stroke="#000000" stroke-width="0" stroke-linecap="round"/><path d="M632.11384,183.15084l0.00159,-15.82434l0.21282,-2.76553l0.21821,-1.71116l0.16239,-0.33379l-0.02005,18.46365z" data-paper-data="{&quot;index&quot;:null}" fill="#000000" stroke="#000000" stroke-width="0" stroke-linecap="round"/><path d="M632.88464,163.34125l0.1306,1.99049l0.1893,3.88313l0.17873,4.9392l0.00596,9.38837l-0.53799,-2.26357z" data-paper-data="{&quot;index&quot;:null}" fill="#000000" stroke="#000000" stroke-width="0" stroke-linecap="round"/><path d="M633.99902,190.19958l0.00136,-13.54574l0.18217,-2.36731l0.18679,-1.46475l0.13901,-0.28572l-0.01716,15.80502z" data-paper-data="{&quot;index&quot;:null}" fill="#000000" stroke="#000000" stroke-width="0" stroke-linecap="round"/><path d="M634.65881,173.24246l0.11179,1.70386l0.16205,3.32398l0.15299,4.22799l0.0051,8.0365l-0.46052,-1.93762z" data-paper-data="{&quot;index&quot;:null}" fill="#000000" stroke="#000000" stroke-width="0" stroke-linecap="round"/><path d="M635.72093,195.07198l0.00107,-10.61823l0.1428,-1.85569l0.14642,-1.14821l0.10897,-0.22399l-0.01345,12.38925z" data-paper-data="{&quot;index&quot;:null}" fill="#000000" stroke="#000000" stroke-width="0" stroke-linecap="round"/><path d="M628.47898,119.32069c0.02069,0.38519 0.03266,-0.29131 0.03266,-0.29131c0.01012,-0.9128 0.08163,-0.30545 0.10825,-0.37785c0.04967,-0.13511 0.1647,-0.51588 0.21385,0.54158c0.04101,0.88226 0.06338,4.93966 0.07116,6.49776c-0.00305,5.15415 -0.02476,9.05502 -0.12241,13.18759c-0.03663,1.55004 -0.05909,3.33195 -0.11914,4.07711c-0.07395,0.9177 -0.18969,0.46777 -0.2647,0.02007c-0.07963,-0.47242 -0.09728,-1.55928 -0.12657,-3.89896c-0.06894,-5.50834 0.04666,-11.95488 0.12801,-16.93344c0.02019,-1.24314 0.0439,-2.15385 0.07051,-3.05675c0.00188,0.08391 0.0046,0.16378 0.00838,0.23421z" data-paper-data="{&quot;noHover&quot;:false,&quot;origItem&quot;:[&quot;Path&quot;,{&quot;applyMatrix&quot;:true,&quot;segments&quot;:[[[198.44065,130.34663],[0.07391,0.06781],[-0.65049,1.01764]],[[196.85501,133.66229],[0.38783,-1.29998],[-1.56825,5.20919]],[[196.10629,150.39263],[-3.17154,-4.78632],[1.34712,2.033]],[[200.73291,153.29281],[-2.54745,0.04268],[2.40048,-0.0377]],[[208.86748,151.64902],[-2.10888,1.32263],[1.7124,-1.07397]],[[211.75454,147.07391],[-0.83713,1.69132],[2.23187,-4.50925]],[[213.03393,133.90973],[0.88194,4.89393],[-0.53508,-1.42595]],[[209.62627,128.21675],[1.43304,0.58239],[-1.71761,-0.69805]],[[202.9475,129.02331],[1.5078,-0.43318],[-0.80822,0.23219]],[[199.69167,130.04267],[0.13943,-0.92558],[0,0]],[[198.74299,130.51701],[0.71151,0.23717],[-0.13007,-0.04336]]],&quot;closed&quot;:true}],&quot;index&quot;:null}" fill="#ffffff" stroke="#000000" stroke-width="1.5" stroke-linecap="butt"/><path d="M629.40278,113.94979c0.03159,-0.17178 0.06067,-0.74222 0.09217,-0.93147c0.18148,-1.09045 0.21384,1.83983 0.30207,6.04758c-0.00659,6.94428 -0.06457,18.18135 -0.3409,18.39538c-0.03036,0.02352 -0.07357,-0.49797 -0.10401,-0.6958c-0.12586,-0.818 -0.2388,-5.50355 -0.24051,-9.94091c-0.0014,-3.64785 0.06067,-7.23397 0.12477,-9.91519c0.00472,-0.34704 0.01174,-0.67901 0.02016,-0.95163c0.0157,0.02699 0.02151,-0.40022 0.02313,-0.56659l0.0201,-0.43725c0,0 0.0108,-0.23468 0.01122,-0.61534c0.02909,-0.3094 0.07167,-0.27934 0.09179,-0.38881z" data-paper-data="{&quot;noHover&quot;:false,&quot;origItem&quot;:[&quot;Path&quot;,{&quot;applyMatrix&quot;:true,&quot;segments&quot;:[[[223.48817,120.68639],[0.83946,-0.4715],[0.05909,0.36267]],[223.26049,121.33583],[[222.72568,121.87064],[0,0],[-0.01855,0.16733]],[[222.12213,122.54569],[0.48968,-0.07096],[-0.20813,0.30959]],[[221.68358,123.56571],[0.07992,-0.35726],[-1.47095,2.93017]],[[219.71637,133.66232],[-0.7342,-3.44177],[0.89311,4.18667]],[[228.98016,141.5555],[-4.03999,0],[0.97709,0]],[[232.30889,141.57531],[-0.93264,0.20887],[8.48942,-1.90123]],[[239.31891,122.15939],[1.11198,6.60888],[-3.52059,-3.43757]],[[228.89188,118.3155],[5.39556,-2.14708],[-0.93636,0.37261]],[[226.23619,119.76044],[0.94255,-0.35667],[-0.60067,0.2273]]],&quot;closed&quot;:true}],&quot;index&quot;:null}" fill="#ffffff" stroke="#000000" stroke-width="1.5" stroke-linecap="butt"/><path d="M628.73389,128.96461c0.00689,-1.12298 0.04037,-1.85207 0.07478,-1.62842c0.03441,0.22366 0.05672,1.31531 0.04983,2.43832c-0.00689,1.12298 -0.04037,1.85205 -0.07478,1.62841c-0.03441,-0.22366 -0.05672,-1.31532 -0.04983,-2.43832z" data-paper-data="{&quot;index&quot;:null}" fill="#000000" stroke="none" stroke-width="0.5" stroke-linecap="butt"/><path d="M629.62222,123.48978c0.00689,-1.12298 0.04037,-1.85208 0.07478,-1.62843c0.03441,0.22366 0.05672,1.31532 0.04983,2.43833c-0.00689,1.12298 -0.04037,1.85207 -0.07478,1.62842c-0.03441,-0.22366 -0.05672,-1.31532 -0.04983,-2.43833z" data-paper-data="{&quot;index&quot;:null}" fill="#000000" stroke="none" stroke-width="0.5" stroke-linecap="butt"/><path d="M627.89243,77.97768c0.03065,-0.27357 0.03901,0.72632 0.03901,0.72632l-0.00862,-0.03623c0.117,2.4992 0.22712,7.23216 0.31733,10.74978c0.14908,6.64594 0.34367,11.5577 0.51316,17.55217c0.06529,2.30901 0.1765,4.90704 0.1806,8.11764c0,0 -0.00001,1.03665 -0.03178,1.03751c-0.03177,0.00086 -0.03176,-1.0358 -0.03176,-1.0358c0.00493,-2.13287 -0.1193,-5.13794 -0.16379,-6.71306c-0.17054,-6.03865 -0.36645,-10.98409 -0.51649,-17.67996c-0.085,-3.32478 -0.19126,-7.94996 -0.30199,-10.29071l-0.01796,-1.15416c0,0 -0.00835,-0.99992 0.0223,-1.27349z" data-paper-data="{&quot;index&quot;:null}" fill="#000000" stroke="none" stroke-width="0.5" stroke-linecap="butt"/><path d="M630.50393,78.52182c0.0035,-0.28269 0.01299,-0.77777 0.0356,-0.63083c0.03115,0.20248 0.02492,1.21917 0.02492,1.21917l-0.01509,0.91377c-0.17527,3.81328 -0.34869,7.71029 -0.51722,11.88501c-0.09157,2.80463 -0.17997,6.04318 -0.27943,8.54157c-0.18943,4.75841 -0.41936,7.65094 -0.60272,12.68026c0,0 -0.02433,0.66742 -0.04476,-0.1258c-0.02043,-0.79324 0.0039,-1.46063 0.0039,-1.46063c0.18421,-5.05285 0.41466,-7.95861 0.60484,-12.73616c0.09865,-2.47804 0.18622,-5.704 0.27718,-8.48232c0.167,-4.14818 0.33908,-8.01381 0.51278,-11.80406z" data-paper-data="{&quot;index&quot;:null}" fill="#000000" stroke="none" stroke-width="0.5" stroke-linecap="butt"/><path d="M627.93043,151.20444c0,-0.31649 0.00506,-0.43265 0.00877,-0.47528c0.0069,-3.61988 0.00619,-7.2264 0.0251,-10.78504c0.01574,-2.96215 0.05974,-5.5087 0.08977,-8.24734c0.007,-0.63701 0.03595,-4.07483 0.06012,-4.02782c0.02483,0.04829 0.03302,2.9317 0.03971,3.68155c0.03183,3.56506 0.09791,6.46437 0.13289,9.9851c0.0641,6.47525 0.17532,9.24642 0.3497,9.78647c0.16748,0.53857 0.32328,0.47822 0.48975,-0.78667c0.15083,-1.14576 0.33327,-1.6191 0.4597,-5.29146c0.02554,-0.75861 0.05243,-1.49018 0.08006,-2.18581c0.00338,-0.94966 0.00622,-1.87614 0.00869,-2.76223c0,0 0.0014,-0.49694 0.01393,-0.44173c0.01254,0.05522 0.01115,0.55216 0.01115,0.55216c-0.00181,0.64159 -0.00382,1.30076 -0.00608,1.97214c0.02615,-0.62549 0.05276,-1.21716 0.07931,-1.76777c0.00007,-0.03212 0.00021,-0.06616 0.00044,-0.1022c0.00306,-0.48507 0.0153,-0.3638 0.0153,-0.3638l0.01203,1.02379c-0.03739,0.75218 -0.07511,1.59049 -0.11167,2.49415c-0.01812,4.7859 -0.05015,10.00287 -0.1155,13.81604c-0.10087,5.83181 -0.22569,10.68425 -0.39826,12.88511c-0.17082,1.44609 -0.34548,1.09768 -0.51907,1.41758c-0.17434,0.32128 -0.35084,0.65052 -0.5143,-2.27135c-0.16103,-3.90783 -0.22049,-10.42026 -0.2047,-17.65823c-0.00332,-0.05884 -0.00684,-0.18346 -0.00684,-0.44735zM628.06958,151.48233c0.06217,0.98531 0.11815,2.73278 0.17945,3.86193c0.1445,2.69606 0.29998,3.12375 0.45427,4.28373c0.1617,0.14077 0.32478,0.27119 0.48455,-0.36922c0.03734,-0.42727 0.07479,-0.30402 0.112,-0.64572c0.09344,-0.85807 0.18171,-2.84304 0.27659,-3.42431c0.04443,-3.21854 0.06923,-7.2317 0.08454,-11.01159c-0.02061,0.53817 -0.04071,1.09617 -0.06001,1.67005c-0.13001,3.77679 -0.31489,4.29175 -0.46997,5.47032c-0.16897,1.28387 -0.32653,1.30979 -0.49648,0.8015c-0.18355,-0.57348 -0.30363,-3.58981 -0.37122,-10.41827c-0.02898,-2.93945 -0.08312,-5.39522 -0.11827,-8.20538c-0.01025,-0.81969 -0.01656,-1.88064 -0.02402,-2.74918c-0.00268,-0.31152 -0.00777,-0.86562 -0.0108,-1.32919c-0.00965,0.9375 -0.0304,2.44248 -0.03299,2.67851c-0.02931,2.66866 -0.07296,5.1673 -0.08822,8.05413c-0.01874,3.5457 -0.01785,7.14117 -0.02482,10.74908c0.02496,0.28481 0.07863,0.15929 0.1054,0.58361zM629.30566,159.58629c-0.03769,0.34132 -0.07534,0.23195 -0.11306,0.65467c-0.16236,0.63564 -0.3277,0.545 -0.49196,0.38144c-0.15731,-1.18866 -0.3146,-1.66336 -0.46228,-4.37196c-0.0602,-1.11774 -0.11686,-2.88819 -0.17803,-3.83772c-0.03314,-0.51442 -0.06837,-0.31162 -0.09819,-0.54837c-0.01411,6.76112 0.04014,12.90655 0.19161,16.56129c0.15933,2.83314 0.33164,2.46955 0.50134,2.15681c0.17173,-0.31647 0.34472,0.03678 0.51373,-1.38481c0.16656,-2.1337 0.28659,-6.85531 0.38396,-12.48428c0.00224,-0.12797 0.00443,-0.25778 0.00659,-0.38935c-0.08629,0.70307 -0.1679,2.48506 -0.25372,3.26227z" fill="#000000" stroke="none" stroke-width="0.5" stroke-linecap="butt"/><path d="M629.55813,156.33182c-0.00215,0.13157 -0.00186,0.24632 -0.0041,0.37429c-0.09736,5.62896 -0.21751,10.37968 -0.38407,12.51338c-0.16901,1.42158 -0.34366,1.09214 -0.51538,1.4086c-0.1697,0.31274 -0.3427,0.64487 -0.50204,-2.18827c-0.15147,-3.65474 -0.20573,-9.82869 -0.19161,-16.58981c0.02983,0.23675 0.06746,0.0636 0.1006,0.57803c0.06117,0.94953 0.11786,2.7166 0.17805,3.83434c0.14768,2.7086 0.30254,3.15692 0.45985,4.34558c0.16425,0.16357 0.32955,0.27181 0.49191,-0.36383c0.03771,-0.42272 0.07537,-0.3125 0.11306,-0.65382c0.08583,-0.77721 0.16745,-2.55541 0.25373,-3.25849z" data-paper-data="{&quot;noHover&quot;:false,&quot;origItem&quot;:[&quot;Path&quot;,{&quot;applyMatrix&quot;:true,&quot;segments&quot;:[[[298.99902,87.22739],[3.40058,-0.77721],[-1.49338,0.34132]],[[294.51959,87.88206],[1.49428,-0.42272],[-6.43293,0.63564]],[[275.02753,88.26349],[6.50796,0.16357],[-6.23281,-1.18866]],[[256.71134,83.89154],[5.85142,2.7086],[-2.38507,-1.11774]],[[249.65757,80.05381],[2.42361,0.94953],[-1.31304,-0.51442]],[[245.76708,79.50545],[1.18174,0.23675],[-0.55927,6.76112]],[[253.35906,96.06673],[-6.00147,-3.65474],[6.313,2.83314]],[[273.22302,98.22355],[-6.72384,0.31274],[6.804,-0.31647]],[[293.57789,96.83874],[-6.69641,1.42158],[6.59933,-2.1337]],[[308.79073,84.35447],[-3.85772,5.62896],[0.08863,-0.12797]],[[309.05182,83.96512],[-0.08544,0.13157],[-3.41887,0.70307]]],&quot;closed&quot;:true}]}" fill="#ffffff" stroke="none" stroke-width="0.5" stroke-linecap="butt"/><path d="M627.96294,150.90796c0.00697,-3.60791 0.00607,-7.21934 0.02481,-10.76505c0.01526,-2.88684 0.059,-5.39844 0.08831,-8.0671c0.00259,-0.23603 0.0234,-1.74524 0.03304,-2.68274c0.00303,0.46357 0.01036,1.06413 0.01303,1.37565c0.00746,0.86854 0.01381,1.92627 0.02406,2.74597c0.03514,2.81016 0.08937,5.25316 0.11835,8.19261c0.06759,6.82846 0.18728,9.80172 0.37083,10.3752c0.16995,0.50829 0.32553,0.49533 0.4945,-0.78854c0.15508,-1.17857 0.33981,-1.672 0.46983,-5.44879c0.0193,-0.57388 0.04193,-1.13045 0.06254,-1.66863c-0.01531,3.77989 -0.04018,7.8102 -0.08461,11.02873c-0.09487,0.58126 -0.18332,2.5791 -0.27676,3.43716c-0.03721,0.3417 -0.07478,0.22418 -0.11212,0.65145c-0.15977,0.64041 -0.3241,0.52292 -0.4858,0.38215c-0.15429,-1.15998 -0.31056,-1.61401 -0.45506,-4.31007c-0.0613,-1.12914 -0.11737,-2.88692 -0.17954,-3.87223c-0.02677,-0.42432 -0.08045,-0.30097 -0.10541,-0.58578z" data-paper-data="{&quot;noHover&quot;:false,&quot;origItem&quot;:[&quot;Path&quot;,{&quot;applyMatrix&quot;:true,&quot;segments&quot;:[[[250.02414,79.12343],[-1.06075,-0.42432],[2.46317,0.98531]],[[257.13422,82.98535],[-2.42882,-1.12914],[5.72525,2.69606]],[[275.13312,87.26908],[-6.11321,-1.15998],[6.40666,0.14077]],[[294.33173,86.89986],[-6.33052,0.64041],[1.47933,-0.42727]],[[298.76926,86.25414],[-1.47434,0.3417],[3.70229,-0.85807]],[[309.72804,82.82983],[-3.75895,0.58126],[1.76027,-3.21854]],[[313.07756,71.81824],[-0.60653,3.77989],[-0.81665,0.53817]],[[310.6997,73.48829],[0.76485,-0.57388],[-5.15132,3.77679]],[[292.0786,78.95861],[6.14453,-1.17857],[-6.69499,1.28387]],[[272.40749,79.76011],[6.73371,0.50829],[-7.27257,-0.57348]],[[257.69916,69.34184],[2.6782,6.82846],[-1.14825,-2.93945]],[[253.01326,61.13646],[1.39251,2.81016],[-0.40618,-0.81969]],[[252.06157,58.38729],[0.29561,0.86854],[-0.10603,-0.31152]],[[251.63375,57.05809],[0.11986,0.46357],[-0.38222,0.9375]],[[250.32658,59.7366],[0.10254,-0.23603],[-1.16132,2.66866]],[[246.83135,67.79074],[0.60447,-2.88684],[-0.74243,3.5457]],[[245.84804,78.53982],[0.27611,-3.60791],[0.98884,0.28481]]],&quot;closed&quot;:true}]}" fill="#ffffff" stroke="none" stroke-width="0.5" stroke-linecap="butt"/></g><path d="M636.23813,181.77961l0.08763,1.33561l0.12703,2.60561l0.11993,3.31425l0.004,6.29967l-0.361,-1.51887z" data-paper-data="{&quot;index&quot;:null}" fill="#000000" stroke="#000000" stroke-width="0" stroke-linecap="round"/></g><g fill-rule="nonzero" stroke="#000000" stroke-width="1"><path d="M-353.84032,5.08723l12.86292,-4.15438l18.74291,-5.91519l24.19538,9.72139l388.03525,349.22394l6.48294,18.7104l-4.30415,19.32826l-9.08521,12.00185l-12.88054,-6.09748l8.16587,-11.57499l-0.31028,-15.36151l-6.45786,-13.30059l-374.79701,-336.88133l-12.3128,-6.12999l-12.71793,-3.25877l-15.46653,3.44911z" fill="#00db64" stroke-linecap="round"/><path d="M-191.28456,51.17024c-13.52347,15.16678 -36.7815,16.49898 -51.9483,2.97551c-15.16679,-13.52347 -16.49896,-36.78151 -2.9755,-51.94831c13.52346,-15.16679 36.7815,-16.49898 51.94829,-2.97552c15.16678,13.52347 16.49898,36.7815 2.97551,51.9483z" fill="#414141" stroke-linecap="butt"/><path d="M-203.28972,40.46584c-7.61156,8.5365 -20.70216,9.28629 -29.23866,1.67472c-8.5365,-7.61157 -9.28629,-20.70216 -1.67474,-29.23867c7.61156,-8.5365 20.70216,-9.28631 29.23867,-1.67474c8.5365,7.61156 9.28629,20.70216 1.67475,29.23865z" fill="#cbcbcb" stroke-linecap="butt"/><path d="M87.60138,300.91629c-13.52347,15.16678 -36.78151,16.49898 -51.94831,2.9755c-15.16679,-13.52347 -16.49898,-36.78151 -2.97552,-51.94829c13.52347,-15.16678 36.7815,-16.49898 51.9483,-2.97551c15.16679,13.52347 16.49898,36.7815 2.97552,51.94829z" fill="#414141" stroke-linecap="butt"/><path d="M75.59618,290.21183c-7.61156,8.5365 -20.70216,9.28629 -29.23867,1.67474c-8.5365,-7.61157 -9.28629,-20.70216 -1.67472,-29.23866c7.61156,-8.5365 20.70216,-9.28631 29.23867,-1.67474c8.5365,7.61157 9.28629,20.70216 1.67474,29.23867z" fill="#cbcbcb" stroke-linecap="butt"/></g></g></g></svg>