<svg version="1.1" xmlns="http://www.w3.org/2000/svg" xmlns:xlink="http://www.w3.org/1999/xlink" width="1733.09309" height="836.33634" viewBox="0,0,1733.09309,836.33634"><g transform="translate(546.54655,238.16817)"><g data-paper-data="{&quot;isPaintingLayer&quot;:true}" stroke-linejoin="miter" stroke-miterlimit="10" stroke-dasharray="" stroke-dashoffset="0" style="mix-blend-mode: normal"><path d="M-546.54655,598.16817v-836.33634h1733.09309v836.33634z" fill="none" fill-rule="nonzero" stroke="#f00000" stroke-width="0" stroke-linecap="butt"/><path d="M219.84164,179.35825c2.19657,0.45455 4.39292,0.90906 6.58951,1.36362c-0.17134,1.19552 -0.48234,2.31594 -0.93255,3.36135c0.21945,-1.06045 0.43885,-2.12068 0.6583,-3.18114c-2.17742,-0.37311 -4.28243,-0.88762 -6.31525,-1.54383z" data-paper-data="{&quot;index&quot;:null}" fill="#74140b" fill-rule="evenodd" stroke="none" stroke-width="1" stroke-linecap="butt"/><g fill-rule="nonzero"><g><path d="M543.03117,94.17507c-0.13208,-0.07331 -0.1125,-0.5679 -0.1125,-0.5679l0.07735,-1.25798c0.07324,-0.25937 0.14648,-0.51874 0.21972,-0.7781c0.03945,-0.03824 0.07629,-0.0786 0.11072,-0.12109c0.00694,-0.18973 0.01406,-0.37889 0.02139,-0.56743c0.07575,-1.94812 0.12932,-4.45293 0.49788,-5.88204c0,0 0.09247,-0.34628 0.18589,-0.01074c0.00496,-0.10235 0.01406,-0.20026 0.02903,-0.29197c0.04776,-0.29263 0.19416,-0.15543 0.24991,-0.42756c0.05473,-0.26719 -0.01672,-0.74299 0.04205,-0.99785c0.12129,-0.52597 0.37673,-0.32238 0.51621,-0.78077c0.51616,-1.69635 1.1309,-2.35858 1.64387,-4.58292c0.15266,-0.2915 0.35507,-0.28872 0.47297,-0.75444c0.2102,-0.8304 0.06993,-3.1147 0.33184,-3.87471c0.17516,-0.50826 0.85598,-0.34222 1.10076,-0.59827c0.93526,-0.97828 1.82051,-2.6409 2.75009,-3.77587c1.79446,-1.77379 3.5725,-4.0008 5.24895,-7.03653c1.74008,-3.14876 3.37567,-5.75144 5.28521,-7.06717c1.85386,-1.27737 3.53212,-4.54799 5.38848,-5.51826c1.51921,-0.79405 3.35584,-3.12642 4.62015,-6.57348l0.12994,-0.6551c0.02426,-0.12523 0.06367,-0.20667 0.10814,-0.20667c0.07374,0 0.13352,0.22386 0.13352,0.5c0,0.01728 -0.00024,0.03436 -0.00069,0.05119l-0.02388,0.98974c-0.01743,0.69773 -0.05622,1.39239 -0.11491,2.05781c-0.59249,6.64261 -1.29089,13.09314 -1.84835,19.79957c-0.29274,3.52176 -0.24094,7.32008 -0.5272,10.78979c-0.25967,3.14735 -0.87099,5.87747 -1.15079,9.02654c-0.23176,2.59993 -0.48769,5.00607 -0.82629,7.44053c-0.18415,1.32398 -0.52081,2.86543 -0.62309,4.29914c-0.06684,0.93704 0.04963,2.06637 -0.0228,3.00817c-0.11298,1.46921 -0.48006,3.07796 -0.68858,4.39889c-0.28195,2.31506 -0.68645,4.75012 -0.87813,7.18646c-0.12447,1.5822 -0.05938,3.38417 -0.19298,4.95811c-0.21445,2.52668 -0.79409,4.52933 -0.97823,7.05772c-0.50422,6.77757 -0.60039,13.70952 -0.92098,20.62536c-0.31958,6.89414 -0.65086,13.78189 -0.94326,20.69296c-0.29251,6.91377 -0.58502,13.82753 -0.87753,20.7413c-0.28907,6.83236 -0.99426,13.63149 -1.51369,20.27144c-0.52585,6.72211 -1.16042,13.35181 -1.83577,19.88035c-0.6729,6.50491 -0.73611,13.59143 -0.84133,20.48975c-0.11105,7.2801 -0.54305,13.59794 -1.07301,20.60243c-0.48093,6.35649 -1.00758,13.83642 -1.01123,20.47648c-0.00065,0.66857 0.06773,2.81251 -0.04168,3.32416c-0.26085,1.21994 -0.98316,0.99985 -1.36587,0.99979c-1.16188,-0.00018 -2.32378,0.01721 -3.4855,-0.05986c-0.91664,-0.67147 -1.94114,-1.31988 -2.87734,-0.65659c-0.43375,0.30731 -0.83788,1.28505 -1.27426,1.54306c-0.42778,0.25292 -0.92233,0.00612 -1.35604,0.00612c-1.86929,0 -3.73857,-0.00142 -5.60786,0.00029c-1.87884,0.00171 -3.72127,0.78506 -5.5927,0.85299c-0.86579,0.03143 -1.82842,1.19985 -2.6719,0.69903c-1.01079,-0.60017 -1.81818,-1.5523 -2.86157,-1.5523c-1.8693,0 -3.7386,0 -5.60789,0c-1.8693,0 -3.7386,0 -5.60789,0c-1.86929,0 -3.73859,-0.00011 -5.60788,0.00017c-1.85793,0.00027 -3.7421,-0.29477 -5.59316,0.31224c-1.15823,0.37982 -2.31159,0.31682 -3.46787,0.61162c-0.72505,0.18486 -1.41589,0.76346 -2.1462,0.67569c-0.16623,-0.10469 -0.77257,-0.20562 -0.87863,-0.67568c-0.17631,-0.78143 -0.03153,-4.28677 -0.03155,-5.32266c-0.00009,-4.35998 -0.04648,-8.57952 -0.16654,-12.91649c-0.19134,-6.9117 -0.05586,-14.09125 -0.05576,-21.04093c0.0001,-7.12895 -0.13559,-14.00666 0.44745,-20.84535c0.01332,-7.46679 1.54434,-12.44318 3.00218,-16.92974c0.19961,-0.90584 0.44151,-2.51945 0.70429,-3.14697c0.30265,-0.72273 0.75422,-0.52409 1.07856,-0.84673c0.38249,-0.38047 0.48424,-1.89266 0.79517,-2.44854c0.29535,-0.52803 0.77917,0.04586 1.09956,-0.18671c0.40181,-0.29166 0.88835,-0.53406 1.27198,-1.02945c1.7584,-2.22544 3.74416,-1.30703 5.59443,-1.30694c1.87632,0.0025 3.73994,0.06078 5.61253,0.5123c1.86366,0.44937 3.72934,0.3216 5.5966,0.32423c1.87206,0.00263 3.73614,0.82888 5.59745,0.82853c0.71201,-0.00014 1.42403,0.00444 2.13604,-0.00169c0.26757,-0.0023 0.75454,0.33002 0.99676,-0.18668c0.60891,-1.29894 0.67699,-5.59035 1.00107,-7.73851c0.45912,-3.031 0.43207,-6.03344 0.5942,-9.41153c0.17473,-3.64067 0.486,-7.17706 0.85221,-10.60658c0.69356,-6.49508 1.06902,-13.47004 1.82785,-19.85673c0.75171,-6.31825 1.37458,-13.36757 2.61944,-18.5154c0.93257,-6.2286 1.38537,-12.55514 1.76611,-19.54316c0.37543,-6.89054 0.87147,-13.60899 1.37155,-20.38622c0.23661,-3.19402 0.31616,-6.65387 0.42648,-9.99179c-0.03379,0.12864 -0.06757,0.25728 -0.10135,0.38592l0.00029,0.68893c0,0 -0.01958,0.4946 -0.15165,0.42129zM543.61693,90.89936c0.29409,-0.87626 0.20557,-2.24088 0.4222,-4.11387c0.03824,-0.33059 0.01672,-0.71881 0.00047,-1.09882c-0.00307,0.01362 -0.00503,0.02095 -0.00503,0.02095c-0.31497,1.12627 -0.35678,3.55002 -0.41763,5.19173z" fill="#747474" stroke="none" stroke-width="0.5" stroke-linecap="butt"/><path d="M612.90527,93.75378l0.00029,-0.68893c-0.03379,-0.12864 -0.06757,-0.25728 -0.10135,-0.38592c0.11032,3.33792 0.18987,6.79778 0.42648,9.99179c0.50009,6.77723 0.99613,13.49568 1.37155,20.38622c0.38074,6.98802 0.83353,13.31456 1.76611,19.54316c1.24487,5.14783 1.86774,12.19715 2.61944,18.5154c0.75883,6.38669 1.13429,13.36165 1.82785,19.85673c0.3662,3.42952 0.67747,6.96591 0.85221,10.60658c0.16213,3.37809 0.13508,6.38053 0.59421,9.41153c0.32408,2.14816 0.39217,6.43957 1.00107,7.73851c0.24222,0.51671 0.72919,0.18438 0.99676,0.18668c0.71201,0.00612 1.42403,0.00155 2.13604,0.00169c1.86131,0.00035 3.72538,-0.8259 5.59745,-0.82853c1.86726,-0.00263 3.73294,0.12514 5.5966,-0.32423c1.87258,-0.45153 3.73621,-0.50981 5.61253,-0.5123c1.85028,-0.00009 3.83604,-0.9185 5.59443,1.30694c0.38363,0.49539 0.87018,0.73779 1.27198,1.02945c0.3204,0.23257 0.80421,-0.34132 1.09956,0.18671c0.31093,0.55588 0.41268,2.06807 0.79517,2.44854c0.32434,0.32264 0.77591,0.12401 1.07856,0.84673c0.26278,0.62752 0.50468,2.24113 0.70429,3.14697c1.45784,4.48656 2.98886,9.46295 3.00218,16.92974c0.58303,6.83869 0.44734,13.7164 0.44745,20.84535c0.0001,6.94968 0.13559,14.12923 -0.05576,21.04093c-0.12007,4.33697 -0.16647,8.55651 -0.16654,12.91649c-0.00002,1.03589 0.14476,4.54123 -0.03155,5.32266c-0.10606,0.47006 -0.71239,0.57099 -0.87863,0.67568c-0.7303,0.08777 -1.42115,-0.49083 -2.1462,-0.67569c-1.15629,-0.2948 -2.30965,-0.2318 -3.46787,-0.61162c-1.85106,-0.60701 -3.73524,-0.31196 -5.59316,-0.31224c-1.8693,-0.00027 -3.73859,-0.00017 -5.60788,-0.00017c-1.8693,0 -3.7386,0 -5.60789,0c-1.8693,0 -3.7386,0 -5.60789,0c-1.04339,0 -1.85077,0.95214 -2.86157,1.5523c-0.84347,0.50082 -1.8061,-0.6676 -2.6719,-0.69903c-1.87143,-0.06793 -3.71385,-0.85127 -5.5927,-0.85299c-1.86929,-0.00171 -3.73857,-0.00029 -5.60786,-0.00029c-0.4337,0 -0.92826,0.2468 -1.35604,-0.00612c-0.43638,-0.25801 -0.84051,-1.23575 -1.27426,-1.54306c-0.9362,-0.6633 -1.96071,-0.01488 -2.87734,0.65659c-1.16172,0.07707 -2.32362,0.05968 -3.4855,0.05986c-0.38271,0.00006 -1.10502,0.22015 -1.36587,-0.99979c-0.10941,-0.51165 -0.04103,-2.65559 -0.04167,-3.32416c-0.00365,-6.64006 -0.53029,-14.11999 -1.01123,-20.47648c-0.52997,-7.00449 -0.96196,-13.32233 -1.07302,-20.60243c-0.10523,-6.89832 -0.16842,-13.98485 -0.84133,-20.48975c-0.67535,-6.52855 -1.30992,-13.15824 -1.83577,-19.88035c-0.51943,-6.63995 -1.22462,-13.43908 -1.51369,-20.27144c-0.29251,-6.91377 -0.58502,-13.82753 -0.87753,-20.7413c-0.29239,-6.91107 -0.62368,-13.79883 -0.94326,-20.69296c-0.32059,-6.91584 -0.41677,-13.84779 -0.92098,-20.62536c-0.18414,-2.52839 -0.76379,-4.53104 -0.97823,-7.05772c-0.13359,-1.57394 -0.0685,-3.37591 -0.19297,-4.95811c-0.19167,-2.43634 -0.59618,-4.8714 -0.87813,-7.18646c-0.20853,-1.32093 -0.5756,-2.92968 -0.68858,-4.39889c-0.07243,-0.9418 0.04405,-2.07114 -0.0228,-3.00817c-0.10227,-1.43371 -0.43893,-2.97516 -0.62309,-4.29914c-0.3386,-2.43446 -0.59453,-4.8406 -0.82629,-7.44053c-0.2798,-3.14907 -0.89112,-5.87919 -1.15079,-9.02654c-0.28626,-3.46972 -0.23447,-7.26803 -0.5272,-10.78979c-0.55746,-6.70643 -1.25585,-13.15696 -1.84835,-19.79957c-0.05869,-0.66542 -0.09747,-1.36009 -0.11491,-2.05781l-0.02388,-0.98974c-0.00046,-0.01683 -0.00069,-0.03391 -0.00069,-0.05119c0,-0.27614 0.05978,-0.5 0.13352,-0.5c0.04448,0 0.08388,0.08143 0.10814,0.20667l0.12994,0.6551c1.26431,3.44706 3.10093,5.77943 4.62015,6.57348c1.85636,0.97027 3.53462,4.2409 5.38848,5.51826c1.90954,1.31573 3.54512,3.9184 5.28521,7.06717c1.67645,3.03573 3.45449,5.26275 5.24895,7.03653c0.92958,1.13496 1.81483,2.79758 2.75009,3.77587c0.24478,0.25605 0.92561,0.09001 1.10076,0.59827c0.26191,0.76002 0.12164,3.04431 0.33184,3.87471c0.11789,0.46572 0.32031,0.46294 0.47297,0.75444c0.51298,2.22434 1.12771,2.88657 1.64387,4.58292c0.13948,0.45839 0.39492,0.2548 0.51621,0.78077c0.05877,0.25486 -0.01268,0.73066 0.04205,0.99785c0.05574,0.27213 0.20215,0.13492 0.24991,0.42756c0.01497,0.0917 0.02407,0.18961 0.02903,0.29197c0.09343,-0.33554 0.18589,0.01074 0.18589,0.01074c0.36856,1.42911 0.42213,3.93393 0.49788,5.88204c0.00733,0.18854 0.01445,0.3777 0.02139,0.56743c0.03442,0.04248 0.07127,0.08285 0.11072,0.12109c0.07324,0.25937 0.14648,0.51874 0.21972,0.7781l0.07735,1.25798c0,0 0.01958,0.4946 -0.1125,0.5679c-0.13208,0.07331 -0.15165,-0.42129 -0.15165,-0.42129zM612.05354,85.70763c0,0 -0.00196,-0.00733 -0.00503,-0.02095c-0.01625,0.38001 -0.03776,0.76823 0.00047,1.09882c0.21662,1.87299 0.1281,3.2376 0.42219,4.11387c-0.06085,-1.64172 -0.10266,-4.06546 -0.41763,-5.19173z" data-paper-data="{&quot;index&quot;:null}" fill="#747474" stroke="none" stroke-width="0.5" stroke-linecap="butt"/><path d="M535.67821,38.64671l-2.16639,-5.70546l16.96972,-16.9577l14.14892,20.79173l-2.47559,4.36976l-11.66653,-15.68193z" data-paper-data="{&quot;index&quot;:null}" fill="#303c43" stroke="#000000" stroke-width="0" stroke-linecap="round"/><path d="M594.47582,180.96461l0.79036,-99.88686l61.41931,28.36829l0.57123,61.84326z" data-paper-data="{&quot;index&quot;:null}" fill="#85c1da" stroke="#000000" stroke-width="0" stroke-linecap="round"/><path d="M654.71203,171.60411l-13.37556,2.77246l0.10611,-61.20178c0,0 5.06609,-3.34002 7.42239,-2.02916c2.16361,1.20365 6.1867,9.60016 6.1867,9.60016l-0.08012,50.5442z" data-paper-data="{&quot;index&quot;:null}" fill="#01005e" stroke="#000000" stroke-width="0" stroke-linecap="round"/><path d="M642.71834,173.61636l0.00491,-55.06855c0,0 4.13959,-2.21632 6.10026,-1.14016c1.64397,0.90231 4.88195,7.16791 4.88195,7.16791l-0.07265,47.47613z" data-paper-data="{&quot;index&quot;:null}" fill="#85c1da" stroke="#000000" stroke-width="0" stroke-linecap="round"/><path d="M639.22688,173.60479l-15.89569,4.00106l-0.10354,-72.78621c0,0 5.78476,-3.87197 8.59435,-2.43582c2.57377,1.31562 7.61788,10.72283 7.61788,10.72283l0.09444,60.11095z" data-paper-data="{&quot;index&quot;:null}" fill="#01005e" stroke="#000000" stroke-width="0" stroke-linecap="round"/><path d="M624.97163,176.62908l-0.20088,-65.48731c0,0 4.39665,-4.22017 6.59348,-3.11356c2.16352,1.08983 6.4891,9.70362 6.4891,9.70362l0.09182,56.46201z" data-paper-data="{&quot;index&quot;:null}" fill="#85c1da" stroke="#000000" stroke-width="0" stroke-linecap="round"/><path d="M621.57824,176.47069l-18.80499,4.73336l-0.1225,-86.10783c0,0 7.31917,-3.62096 10.73364,-1.87563c2.89124,1.47788 8.44581,11.67936 8.44581,11.67936l0.11173,71.11269z" data-paper-data="{&quot;index&quot;:null}" fill="#01005e" stroke="#000000" stroke-width="0" stroke-linecap="round"/><path d="M604.71393,180.04851l-0.23764,-77.47303c0,0 6.03384,-5.6333 8.77262,-4.25369c2.36525,1.19144 6.70439,12.04988 6.70439,12.04988l0.10863,66.79592z" data-paper-data="{&quot;index&quot;:null}" fill="#85c1da" stroke="#000000" stroke-width="0" stroke-linecap="round"/><path d="M594.41088,181.50382l-42.35659,-10.23811l0.42318,-71.69394l42.75823,-18.00732z" data-paper-data="{&quot;index&quot;:null}" fill="#85c1da" stroke="#000000" stroke-width="0" stroke-linecap="round"/><path d="M620.61149,93.33628l-0.466,-61.41538l19.36581,14.86381l0.46086,54.25635z" data-paper-data="{&quot;index&quot;:null}" fill="#85c1da" stroke="#000000" stroke-width="0" stroke-linecap="round"/><path d="M620.55833,92.74434l-14.98267,-6.76138l0.02906,-32.9815l14.48832,-20.68507z" data-paper-data="{&quot;index&quot;:null}" fill="#85c1da" stroke="#000000" stroke-width="0" stroke-linecap="round"/><path d="M620.11972,32.76049l-2.52832,4.37029l-0.23549,-34.16379l11.23867,7.39155l0.12547,27.84513z" data-paper-data="{&quot;index&quot;:null}" fill="#85c1da" stroke="#000000" stroke-width="0" stroke-linecap="round"/><path d="M605.57866,53.44609l-1.79821,-7.09161l16.28015,-22.48054l22.63683,16.55893l-3.37043,6.74867l-18.83796,-14.22727z" data-paper-data="{&quot;index&quot;:null}" fill="#303c43" stroke="#000000" stroke-width="0" stroke-linecap="round"/><path d="M617.47911,27.65227l-2.16057,2.39166l-0.54383,-22.90363l2.5812,-4.17332z" data-paper-data="{&quot;index&quot;:null}" fill="#85c1da" stroke="#000000" stroke-width="0" stroke-linecap="round"/><path d="M613.4001,2.41436l3.58125,-6.94829l14.19244,7.9543l-2.4736,7.13463l-11.13319,-7.39262l-2.95009,4.57202z" data-paper-data="{&quot;index&quot;:null}" fill="#303c43" stroke="#000000" stroke-width="0" stroke-linecap="round"/><path d="M616.90211,-4.73062l-3.52808,7.54023l1.53267,4.52689l0.43863,23.29967l-11.64385,15.91661l1.90326,6.49808l-0.02934,32.5865l-10.12875,-4.04535l-6.59088,2.04128l0.38532,-50.95687l14.86673,-44.53605l0.02395,-40.09115l23.49836,22.87l0.11406,30.31392z" data-paper-data="{&quot;index&quot;:null}" fill="#85c1da" stroke="#000000" stroke-width="0" stroke-linecap="round"/><path d="M589.11935,83.4825l-29.36593,13.33014l0.8672,-40.88962l28.72581,-23.44517z" data-paper-data="{&quot;index&quot;:null}" fill="#85c1da" stroke="#000000" stroke-width="0" stroke-linecap="round"/><path d="M604.18623,-12.84791l-15.05014,46.16723l-28.75038,22.80357l-2.79995,-6.68654l30.88812,-23.41758l15.81354,-48.0017z" data-paper-data="{&quot;index&quot;:null}" fill="#303c43" stroke="#000000" stroke-width="0" stroke-linecap="round"/><path d="M604.07612,-22.42517l-30.08343,42.36873l0.13992,-25.47791l30.13309,-46.66467z" data-paper-data="{&quot;index&quot;:null}" fill="#85c1da" stroke="#000000" stroke-width="0" stroke-linecap="round"/><path d="M603.93201,-21.14002l-15.36544,47.75033l-30.88854,22.8251l16.57808,-29.8895l29.87261,-42.16911z" data-paper-data="{&quot;index&quot;:null}" fill="#d19090" stroke="#000000" stroke-width="0" stroke-linecap="round"/><path d="M604.18723,-51.30952l-30.08073,46.12105l-4.16945,-4.30285l34.88659,-55.25408l25.33329,26.01141l-2.57724,9.70307z" data-paper-data="{&quot;index&quot;:null}" fill="#303c43" stroke="#000000" stroke-width="0" stroke-linecap="round"/><path d="M557.62557,49.83093l2.95803,6.48746l-0.92022,40.49518l-9.85996,3.06164l0.68487,-74.46146l11.61365,15.48496z" data-paper-data="{&quot;index&quot;:null}" fill="#85c1da" stroke="#000000" stroke-width="0" stroke-linecap="round"/><path d="M549.7497,98.49331l-14.92398,1.53271l0.90519,-61.42921l14.81027,-12.9861z" data-paper-data="{&quot;index&quot;:null}" fill="#85c1da" stroke="#000000" stroke-width="0" stroke-linecap="round"/><path d="M536.93468,99.21481l0.80539,-53.5285c0,0 2.62889,-8.43791 4.09768,-9.40342c1.81395,-1.19245 5.97069,2.7848 5.97069,2.7848l-0.27347,59.84291z" data-paper-data="{&quot;index&quot;:null}" fill="#01005e" stroke="#01005e" stroke-width="0" stroke-linecap="round"/><path d="M538.30582,99.11158l0.65001,-49.57709c0,0 1.79028,-7.97273 2.94648,-8.62045c1.33177,-0.74608 4.59213,4.39721 4.59213,4.39721l-0.54155,53.72334z" data-paper-data="{&quot;index&quot;:null}" fill="#2b3b41" stroke="#000000" stroke-width="0" stroke-linecap="round"/><path d="M534.87563,96.07567l-7.59334,1.45891l0.65157,-47.4047l7.64352,-5.01426z" data-paper-data="{&quot;index&quot;:null}" fill="#85c1da" stroke="#000000" stroke-width="0" stroke-linecap="round"/><path d="M527.93371,49.93237l-1.9027,-5.70811l9.75249,-5.82546l-0.04806,6.51772z" data-paper-data="{&quot;index&quot;:null}" fill="#303c43" stroke="#000000" stroke-width="0" stroke-linecap="round"/><path d="M533.14261,32.8956l2.74622,5.30465l-9.75292,5.233l2.00916,7.0895l-0.81067,46.17197l-4.37559,2.41397l-0.16162,-4.73818l0.72812,-87.69387l14.7825,21.77281z" data-paper-data="{&quot;index&quot;:null}" fill="#85c1da" stroke="#000000" stroke-width="0" stroke-linecap="round"/><path d="M522.79994,98.17216l-18.30065,-0.40821l1.6867,-74.76778l17.28671,-16.17091z" data-paper-data="{&quot;index&quot;:null}" fill="#85c1da" stroke="#000000" stroke-width="0" stroke-linecap="round"/><path d="M506.08054,23.04659l-3.22229,-7.27477l21.08132,-19.76397l16.63444,30.24633l-2.47715,2.19736l-14.78234,-21.57533z" data-paper-data="{&quot;index&quot;:null}" fill="#303c43" stroke="#000000" stroke-width="0" stroke-linecap="round"/><path d="M552.016,169.9133l-10.17327,7.40964l-12.8306,-57.73604l-31.5146,-4.42252l7.2657,-17.05748l18.0364,-0.37909l0.58112,1.37659l3.69055,-1.61709l7.75127,-1.85547l0.00297,4.1473l15.18767,-1.53535l-0.31487,2.17558l2.58276,-2.00092z" data-paper-data="{&quot;index&quot;:null}" fill="#794a45" stroke="#000000" stroke-width="0" stroke-linecap="round"/><path d="M545.89417,98.65092l-5.44012,0.17824l0.56232,-43.40464c0,0 1.82374,-6.65275 2.7869,-7.19374c0.79513,-0.4466 2.58523,4.17641 2.58523,4.17641z" data-paper-data="{&quot;index&quot;:null}" fill="#720b00" stroke="#000000" stroke-width="0" stroke-linecap="round"/><path d="M531.79071,49.43865c0.77259,-0.51431 2.82134,2.11953 2.82134,2.11953l-0.44304,26.04903l-5.3377,1.67478l0.79035,-24.64764c0,0 1.40329,-4.68592 2.16905,-5.1957z" data-paper-data="{&quot;index&quot;:null}" fill="#01005e" stroke="#000000" stroke-width="0" stroke-linecap="round"/><path d="M533.35864,74.37328l-3.57771,1.1167l0.62178,-18.26988c0,0 0.92787,-4.41113 1.44342,-4.77044c0.61916,-0.43151 2.01792,2.35806 2.01792,2.35806z" data-paper-data="{&quot;index&quot;:null}" fill="#baaa1d" stroke="#000000" stroke-width="0" stroke-linecap="round"/><path d="M507.59769,98.46183l1.10894,-63.25842c0,0 2.70763,-10.89251 4.43074,-12.09888c2.0256,-1.41814 6.96281,4.12216 6.96281,4.12216l-0.55525,70.7366z" data-paper-data="{&quot;index&quot;:null}" fill="#01005e" stroke="#000000" stroke-width="0" stroke-linecap="round"/><path d="M518.36212,98.51557l-9.46637,-0.87732l0.85303,-57.93345c0,0 2.55295,-10.95649 3.89722,-11.84168c1.60811,-1.05894 5.10252,5.91537 5.10252,5.91537l-0.58893,64.03667z" data-paper-data="{&quot;index&quot;:null}" fill="#baaa1d" stroke="#000000" stroke-width="0" stroke-linecap="round"/><path d="M600.2217,80.10319l0.20022,-42.68918c0,0 1.16218,-2.15711 1.68088,-1.72692c0.51112,0.4239 1.40887,4.28947 1.40887,4.28947l-0.05694,41.28284z" data-paper-data="{&quot;index&quot;:null}" fill="#01005e" stroke="#000000" stroke-width="0" stroke-linecap="round"/><path d="M600.97009,77.39392l0.14693,-36.52871c0,0 0.57877,-1.62488 0.88249,-1.41141c0.30261,0.2127 0.93653,2.68993 0.93653,2.68993l-0.0318,36.09528z" data-paper-data="{&quot;index&quot;:null}" fill="#baaa1d" stroke="#000000" stroke-width="0" stroke-linecap="round"/><path d="M596.29529,77.87327l0.20022,-42.68918c0,0 1.16218,-2.15711 1.68088,-1.72692c0.51112,0.4239 1.40887,4.28947 1.40887,4.28947l-0.05694,41.28284z" data-paper-data="{&quot;index&quot;:null}" fill="#01005e" stroke="#000000" stroke-width="0" stroke-linecap="round"/><path d="M597.04368,75.16401l0.14693,-36.52872c0,0 0.57877,-1.62489 0.8825,-1.41142c0.30261,0.2127 0.93653,2.68994 0.93653,2.68994l-0.0318,36.09529z" data-paper-data="{&quot;index&quot;:null}" fill="#baaa1d" stroke="#000000" stroke-width="0" stroke-linecap="round"/><path d="M592.19588,75.86125l0.20022,-42.68918c0,0 1.16218,-2.15711 1.68088,-1.72692c0.51112,0.4239 1.40887,4.28947 1.40887,4.28947l-0.05694,41.28285z" data-paper-data="{&quot;index&quot;:null}" fill="#01005e" stroke="#000000" stroke-width="0" stroke-linecap="round"/><path d="M592.94426,73.15198l0.14693,-36.52873c0,0 0.57877,-1.62489 0.8825,-1.41141c0.30261,0.2127 0.93653,2.68993 0.93653,2.68993l-0.0318,36.0953z" data-paper-data="{&quot;index&quot;:null}" fill="#baaa1d" stroke="#baaa1d" stroke-width="0" stroke-linecap="round"/><path d="M607.83087,86.83491l-0.02265,-31.55584c0,0 2.73035,-7.94799 4.17774,-9.88795c1.58635,-2.12622 4.96176,-2.36181 4.96176,-2.36181l0.17921,48.62916z" data-paper-data="{&quot;index&quot;:null}" fill="#01005e" stroke="#000000" stroke-width="0" stroke-linecap="round"/><path d="M609.13002,87.52427l-0.19481,-30.14922c0,0 1.94267,-7.51064 3.06207,-9.06044c1.18345,-1.63849 3.8572,-0.51926 3.8572,-0.51926l0.14685,43.76637z" data-paper-data="{&quot;index&quot;:null}" fill="#baaa1d" stroke="#000000" stroke-width="0" stroke-linecap="round"/><path d="M627.07926,85.15517l-0.08567,-38.93092l6.84348,5.4426l0.36666,38.38774z" data-paper-data="{&quot;index&quot;:null}" fill="#baaa1d" stroke="#000000" stroke-width="0" stroke-linecap="round"/><path d="M633.77918,51.42428l2.48387,2.78477l0.60375,37.00748l-2.74282,-1.70148z" data-paper-data="{&quot;index&quot;:null}" fill="#01005e" stroke="#01005e" stroke-width="0" stroke-linecap="round"/><path d="M627.16588,85.20832l-3.23389,-2.34497l-0.14383,-39.55173l3.17671,3.10201z" data-paper-data="{&quot;index&quot;:null}" fill="#01005e" stroke="#000000" stroke-width="0" stroke-linecap="round"/><path d="M591.60202,-8.61554l0.1294,-20.7505l3.80477,-6.41437l0.07285,21.07268z" data-paper-data="{&quot;index&quot;:null}" fill="#baaa1d" stroke="#000000" stroke-width="0" stroke-linecap="round"/><path d="M589.55507,-5.78515l0.04289,-20.64156l2.07535,-3.4791l0.04391,20.96489z" data-paper-data="{&quot;index&quot;:null}" fill="#01005e" stroke="#000000" stroke-width="0" stroke-linecap="round"/><path d="M595.55132,-14.70716l0.0429,-20.64156l2.07534,-3.47911l0.04391,20.96491z" data-paper-data="{&quot;index&quot;:null}" fill="#01005e" stroke="#000000" stroke-width="0" stroke-linecap="round"/><path d="M579.52994,8.93209l0.1294,-20.75051l3.80477,-6.41436l0.07285,21.07267z" data-paper-data="{&quot;index&quot;:null}" fill="#baaa1d" stroke="#000000" stroke-width="0" stroke-linecap="round"/><path d="M577.48298,11.76248l0.04289,-20.64156l2.07535,-3.4791l0.04391,20.96491z" data-paper-data="{&quot;index&quot;:null}" fill="#01005e" stroke="#000000" stroke-width="0" stroke-linecap="round"/><path d="M583.47925,2.84048l0.0429,-20.64156l2.07534,-3.47911l0.04391,20.96491z" data-paper-data="{&quot;index&quot;:null}" fill="#01005e" stroke="#000000" stroke-width="0" stroke-linecap="round"/><path d="M612.77003,31.53503l-4.82026,-1.14022l0.18401,-25.0738c0,0 1.45848,-2.9211 2.20016,-2.41904c0.77729,0.52615 2.36177,5.5071 2.36177,5.5071l0.01575,21.9378z" data-paper-data="{&quot;index&quot;:null}" fill="#01005e" stroke="#000000" stroke-width="0" stroke-linecap="round"/><path d="M608.84206,27.14375l0.16012,-18.15717c0,0 0.86724,-3.05744 1.35568,-2.74286c0.50244,0.32361 1.61817,4.65816 1.61817,4.65816l0.01288,17.9393z" data-paper-data="{&quot;index&quot;:null}" fill="#baaa1d" stroke="#000000" stroke-width="0" stroke-linecap="round"/><path d="M620.41216,23.89327l-0.06773,-13.9402c0,0 2.20833,-2.45144 3.38617,-1.66352c0.94603,0.63285 3.13907,6.02863 3.13907,6.02863l0.09705,14.5883z" data-paper-data="{&quot;index&quot;:null}" fill="#01005e" stroke="#000000" stroke-width="0" stroke-linecap="round"/><path d="M621.27831,24.42488l-0.06571,-11.13041c0,0 1.65344,-2.62401 2.47398,-1.9663c0.7746,0.6209 2.31936,5.80853 2.31936,5.80853l0.12343,11.12984z" data-paper-data="{&quot;index&quot;:null}" fill="#baaa1d" stroke="#000000" stroke-width="0" stroke-linecap="round"/><path d="M540.95017,55.57395l0.63311,-2.49196l1.07334,-2.30727l1.09484,-2.49662l0.28853,-0.08396l-0.25219,50.68679l-3.28959,0.46541z" data-paper-data="{&quot;index&quot;:null}" fill="#720b00" stroke="#000000" stroke-width="0" stroke-linecap="round"/><path d="M543.31069,77.48816l-1.93291,0.88401l0.27315,-21.50844l1.84355,-4.77358z" data-paper-data="{&quot;index&quot;:null}" fill="#baaa1d" stroke="#000000" stroke-width="0" stroke-linecap="round"/><path d="M544.82228,52.50905l1.44473,2.47104l-0.15678,22.80408l-1.55821,0.23183z" data-paper-data="{&quot;index&quot;:null}" fill="#baaa1d" stroke="#000000" stroke-width="0" stroke-linecap="round"/><path d="M605.59785,120.92219l0.01681,-15.82434l2.25174,-2.76553l2.30884,-1.71116l1.71822,-0.33379l-0.21212,18.46365z" data-paper-data="{&quot;index&quot;:null}" fill="#000000" stroke="#000000" stroke-width="0" stroke-linecap="round"/><path d="M613.75336,101.1126l1.38184,1.99049l2.00296,3.88313l1.89104,4.9392l0.06308,9.38837l-5.69226,-2.26357z" data-paper-data="{&quot;index&quot;:null}" fill="#000000" stroke="#000000" stroke-width="0" stroke-linecap="round"/><path d="M625.54416,127.97093l0.01439,-13.54574l1.9275,-2.36731l1.97638,-1.46475l1.47081,-0.28572l-0.18157,15.80502z" data-paper-data="{&quot;index&quot;:null}" fill="#000000" stroke="#000000" stroke-width="0" stroke-linecap="round"/><path d="M632.52534,111.01381l1.18286,1.70386l1.71455,3.32398l1.61874,4.22799l0.054,8.0365l-4.87262,-1.93762z" data-paper-data="{&quot;index&quot;:null}" fill="#000000" stroke="#000000" stroke-width="0" stroke-linecap="round"/><path d="M643.763,132.84333l0.01128,-10.61823l1.51093,-1.85569l1.54924,-1.14821l1.15294,-0.22399l-0.14233,12.38925z" data-paper-data="{&quot;index&quot;:null}" fill="#000000" stroke="#000000" stroke-width="0" stroke-linecap="round"/><path d="M567.13894,57.09204c0.21887,0.38519 0.34551,-0.29131 0.34551,-0.29131c0.10705,-0.9128 0.86365,-0.30545 1.14538,-0.37785c0.52558,-0.13511 1.74261,-0.51588 2.26268,0.54158c0.43391,0.88226 0.67062,4.93966 0.75287,6.49776c-0.03232,5.15415 -0.26196,9.05502 -1.29523,13.18759c-0.38757,1.55004 -0.62523,3.33195 -1.26055,4.07711c-0.78241,0.9177 -2.00698,0.46777 -2.8007,0.02007c-0.84248,-0.47242 -1.02931,-1.55928 -1.33915,-3.89896c-0.72946,-5.50834 0.49374,-11.95488 1.35447,-16.93344c0.21364,-1.24314 0.46447,-2.15385 0.74603,-3.05675c0.01988,0.08391 0.04865,0.16378 0.08867,0.23421z" data-paper-data="{&quot;noHover&quot;:false,&quot;origItem&quot;:[&quot;Path&quot;,{&quot;applyMatrix&quot;:true,&quot;segments&quot;:[[[198.44065,130.34663],[0.07391,0.06781],[-0.65049,1.01764]],[[196.85501,133.66229],[0.38783,-1.29998],[-1.56825,5.20919]],[[196.10629,150.39263],[-3.17154,-4.78632],[1.34712,2.033]],[[200.73291,153.29281],[-2.54745,0.04268],[2.40048,-0.0377]],[[208.86748,151.64902],[-2.10888,1.32263],[1.7124,-1.07397]],[[211.75454,147.07391],[-0.83713,1.69132],[2.23187,-4.50925]],[[213.03393,133.90973],[0.88194,4.89393],[-0.53508,-1.42595]],[[209.62627,128.21675],[1.43304,0.58239],[-1.71761,-0.69805]],[[202.9475,129.02331],[1.5078,-0.43318],[-0.80822,0.23219]],[[199.69167,130.04267],[0.13943,-0.92558],[0,0]],[[198.74299,130.51701],[0.71151,0.23717],[-0.13007,-0.04336]]],&quot;closed&quot;:true}],&quot;index&quot;:null}" fill="#ffffff" stroke="#000000" stroke-width="1.5" stroke-linecap="butt"/><path d="M576.9134,51.72114c0.33422,-0.17178 0.64197,-0.74222 0.9752,-0.93147c1.92016,-1.09045 2.26257,1.83983 3.19611,6.04758c-0.06968,6.94428 -0.68319,18.18135 -3.60689,18.39538c-0.3212,0.02352 -0.77838,-0.49797 -1.10044,-0.6958c-1.33163,-0.818 -2.52666,-5.50355 -2.54471,-9.94091c-0.01483,-3.64785 0.6419,-7.23397 1.32014,-9.91519c0.04992,-0.34704 0.12422,-0.67901 0.21325,-0.95163c0.16609,0.02699 0.22755,-0.40022 0.24471,-0.56659l0.21265,-0.43725c0,0 0.11427,-0.23468 0.11872,-0.61534c0.30782,-0.3094 0.75827,-0.27934 0.97125,-0.38881z" data-paper-data="{&quot;noHover&quot;:false,&quot;origItem&quot;:[&quot;Path&quot;,{&quot;applyMatrix&quot;:true,&quot;segments&quot;:[[[223.48817,120.68639],[0.83946,-0.4715],[0.05909,0.36267]],[223.26049,121.33583],[[222.72568,121.87064],[0,0],[-0.01855,0.16733]],[[222.12213,122.54569],[0.48968,-0.07096],[-0.20813,0.30959]],[[221.68358,123.56571],[0.07992,-0.35726],[-1.47095,2.93017]],[[219.71637,133.66232],[-0.7342,-3.44177],[0.89311,4.18667]],[[228.98016,141.5555],[-4.03999,0],[0.97709,0]],[[232.30889,141.57531],[-0.93264,0.20887],[8.48942,-1.90123]],[[239.31891,122.15939],[1.11198,6.60888],[-3.52059,-3.43757]],[[228.89188,118.3155],[5.39556,-2.14708],[-0.93636,0.37261]],[[226.23619,119.76044],[0.94255,-0.35667],[-0.60067,0.2273]]],&quot;closed&quot;:true}],&quot;index&quot;:null}" fill="#ffffff" stroke="#000000" stroke-width="1.5" stroke-linecap="butt"/><path d="M569.83617,66.73596c0.0729,-1.12298 0.42715,-1.85207 0.79123,-1.62842c0.36408,0.22366 0.60012,1.31531 0.52722,2.43832c-0.0729,1.12298 -0.42715,1.85205 -0.79123,1.62841c-0.36408,-0.22366 -0.60013,-1.31532 -0.52722,-2.43832z" data-paper-data="{&quot;index&quot;:null}" fill="#000000" stroke="none" stroke-width="0.5" stroke-linecap="butt"/><path d="M579.23519,61.26113c0.0729,-1.12298 0.42715,-1.85208 0.79123,-1.62843c0.36408,0.22366 0.60012,1.31532 0.52722,2.43833c-0.0729,1.12298 -0.42715,1.85207 -0.79123,1.62842c-0.36408,-0.22366 -0.60012,-1.31532 -0.52722,-2.43833z" data-paper-data="{&quot;index&quot;:null}" fill="#000000" stroke="none" stroke-width="0.5" stroke-linecap="butt"/><path d="M560.93294,15.74903c0.32433,-0.27357 0.41271,0.72632 0.41271,0.72632l-0.09123,-0.03623c1.23793,2.4992 2.40303,7.23216 3.3575,10.74978c1.57739,6.64594 3.6362,11.5577 5.42953,17.55217c0.69077,2.30901 1.8675,4.90704 1.91079,8.11764c0,0 -0.00007,1.03665 -0.33624,1.03751c-0.33616,0.00086 -0.33608,-1.0358 -0.33608,-1.0358c0.05217,-2.13287 -1.26232,-5.13794 -1.73298,-6.71306c-1.80437,-6.03865 -3.87724,-10.98409 -5.46475,-17.67996c-0.8994,-3.32478 -2.02359,-7.94996 -3.19518,-10.29071l-0.19003,-1.15416c0,0 -0.08837,-0.99992 0.23596,-1.27349z" data-paper-data="{&quot;index&quot;:null}" fill="#000000" stroke="none" stroke-width="0.5" stroke-linecap="butt"/><path d="M588.56424,16.29317c0.03707,-0.28269 0.13744,-0.77777 0.37664,-0.63083c0.32961,0.20248 0.26361,1.21917 0.26361,1.21917l-0.15972,0.91377c-1.85446,3.81328 -3.68933,7.71029 -5.47247,11.88501c-0.9689,2.80463 -1.90418,6.04318 -2.95649,8.54157c-2.00424,4.75841 -4.43707,7.65094 -6.37709,12.68026c0,0 -0.25745,0.66742 -0.4736,-0.1258c-0.21615,-0.79324 0.0413,-1.46063 0.0413,-1.46063c1.94909,-5.05285 4.38731,-7.95861 6.3996,-12.73616c1.04375,-2.47804 1.97031,-5.704 2.93267,-8.48232c1.76694,-4.14818 3.58764,-8.01381 5.42555,-11.80406z" data-paper-data="{&quot;index&quot;:null}" fill="#000000" stroke="none" stroke-width="0.5" stroke-linecap="butt"/><path d="M561.33503,88.97579c0,-0.31649 0.0535,-0.43265 0.09277,-0.47528c0.07296,-3.61988 0.06545,-7.2264 0.26557,-10.78504c0.16658,-2.96215 0.63214,-5.5087 0.94982,-8.24734c0.07402,-0.63701 0.38039,-4.07483 0.63608,-4.02782c0.26268,0.04829 0.34932,2.9317 0.42017,3.68155c0.33682,3.56506 1.03591,6.46437 1.40604,9.9851c0.6782,6.47525 1.85494,9.24642 3.70005,9.78647c1.772,0.53857 3.42045,0.47822 5.18182,-0.78667c1.59583,-1.14576 3.52622,-1.6191 4.86385,-5.29146c0.27022,-0.75861 0.55478,-1.49018 0.84708,-2.18581c0.03579,-0.94966 0.06583,-1.87614 0.09191,-2.76223c0,0 0.01475,-0.49694 0.14745,-0.44173c0.1327,0.05522 0.11796,0.55216 0.11796,0.55216c-0.0192,0.64159 -0.04043,1.30076 -0.0643,1.97214c0.27667,-0.62549 0.55818,-1.21716 0.83918,-1.76777c0.00073,-0.03212 0.00225,-0.06616 0.00466,-0.1022c0.03238,-0.48507 0.16192,-0.3638 0.16192,-0.3638l0.12728,1.02379c-0.39565,0.75218 -0.79474,1.59049 -1.1815,2.49415c-0.19171,4.7859 -0.53062,10.00287 -1.22208,13.81604c-1.0673,5.83181 -2.38793,10.68425 -4.21385,12.88511c-1.80743,1.44609 -3.65541,1.09768 -5.4921,1.41758c-1.84458,0.32128 -3.71207,0.65052 -5.44157,-2.27135c-1.70377,-3.90783 -2.33292,-10.42026 -2.16588,-17.65823c-0.03513,-0.05884 -0.07232,-0.18346 -0.07232,-0.44735zM562.80732,89.25368c0.65777,0.98531 1.2501,2.73278 1.89869,3.86193c1.52888,2.69606 3.17398,3.12375 4.80647,4.28373c1.71085,0.14077 3.43632,0.27119 5.12684,-0.36922c0.39504,-0.42727 0.7913,-0.30402 1.18501,-0.64572c0.98867,-0.85807 1.92266,-2.84304 2.92646,-3.42431c0.47006,-3.21854 0.73249,-7.2317 0.89446,-11.01159c-0.21808,0.53817 -0.43074,1.09617 -0.63499,1.67005c-1.37562,3.77679 -3.33177,4.29175 -4.97262,5.47032c-1.78785,1.28387 -3.45484,1.30979 -5.25302,0.8015c-1.94208,-0.57348 -3.21256,-3.58981 -3.92775,-10.41827c-0.30663,-2.93945 -0.87948,-5.39522 -1.25134,-8.20538c-0.10846,-0.81969 -0.1752,-1.88064 -0.25414,-2.74918c-0.02832,-0.31152 -0.08224,-0.86562 -0.11424,-1.32919c-0.10207,0.9375 -0.32169,2.44248 -0.34907,2.67851c-0.31012,2.66866 -0.77196,5.1673 -0.93337,8.05413c-0.19826,3.5457 -0.18885,7.14117 -0.26259,10.74908c0.26406,0.28481 0.83193,0.15929 1.1152,0.58361zM575.88568,97.35764c-0.3988,0.34132 -0.79716,0.23195 -1.1962,0.65467c-1.71786,0.63564 -3.4673,0.545 -5.20521,0.38144c-1.66443,-1.18866 -3.32862,-1.66336 -4.8912,-4.37196c-0.63692,-1.11774 -1.23645,-2.88819 -1.88365,-3.83772c-0.35064,-0.51442 -0.72335,-0.31162 -1.03892,-0.54837c-0.14935,6.76112 0.42474,12.90655 2.02738,16.56129c1.68584,2.83314 3.50897,2.46955 5.30451,2.15681c1.81696,-0.31647 3.64739,0.03678 5.43561,-1.38481c1.7623,-2.1337 3.0323,-6.85531 4.06247,-12.48428c0.02367,-0.12797 0.04691,-0.25778 0.06972,-0.38935c-0.91298,0.70307 -1.77643,2.48506 -2.68453,3.26227z" fill="#000000" stroke="none" stroke-width="0.5" stroke-linecap="butt"/><path d="M578.55702,94.10317c-0.02281,0.13157 -0.01966,0.24632 -0.04332,0.37429c-1.03017,5.62896 -2.30137,10.37968 -4.06367,12.51338c-1.78823,1.42158 -3.63612,1.09214 -5.45308,1.4086c-1.79555,0.31274 -3.62603,0.64487 -5.31186,-2.18827c-1.60264,-3.65474 -2.17672,-9.82869 -2.02737,-16.58981c0.31558,0.23675 0.71379,0.0636 1.06442,0.57803c0.64721,0.94953 1.247,2.7166 1.88391,3.83434c1.56258,2.7086 3.20103,3.15692 4.86545,4.34558c1.7379,0.16357 3.4868,0.27181 5.20466,-0.36383c0.39903,-0.42272 0.79742,-0.3125 1.19622,-0.65382c0.9081,-0.77721 1.77167,-2.55541 2.68464,-3.25849z" data-paper-data="{&quot;noHover&quot;:false,&quot;origItem&quot;:[&quot;Path&quot;,{&quot;applyMatrix&quot;:true,&quot;segments&quot;:[[[298.99902,87.22739],[3.40058,-0.77721],[-1.49338,0.34132]],[[294.51959,87.88206],[1.49428,-0.42272],[-6.43293,0.63564]],[[275.02753,88.26349],[6.50796,0.16357],[-6.23281,-1.18866]],[[256.71134,83.89154],[5.85142,2.7086],[-2.38507,-1.11774]],[[249.65757,80.05381],[2.42361,0.94953],[-1.31304,-0.51442]],[[245.76708,79.50545],[1.18174,0.23675],[-0.55927,6.76112]],[[253.35906,96.06673],[-6.00147,-3.65474],[6.313,2.83314]],[[273.22302,98.22355],[-6.72384,0.31274],[6.804,-0.31647]],[[293.57789,96.83874],[-6.69641,1.42158],[6.59933,-2.1337]],[[308.79073,84.35447],[-3.85772,5.62896],[0.08863,-0.12797]],[[309.05182,83.96512],[-0.08544,0.13157],[-3.41887,0.70307]]],&quot;closed&quot;:true}]}" fill="#ffffff" stroke="none" stroke-width="0.5" stroke-linecap="butt"/><path d="M561.679,88.67931c0.07374,-3.60791 0.06421,-7.21934 0.26248,-10.76505c0.16142,-2.88684 0.62421,-5.39844 0.93433,-8.0671c0.02739,-0.23603 0.24755,-1.74524 0.34962,-2.68274c0.03201,0.46357 0.10958,1.06413 0.13789,1.37565c0.07894,0.86854 0.14607,1.92627 0.25454,2.74597c0.37186,2.81016 0.94562,5.25316 1.25226,8.19261c0.71519,6.82846 1.98155,9.80172 3.92363,10.3752c1.79818,0.50829 3.44427,0.49533 5.23212,-0.78854c1.64085,-1.17857 3.59544,-1.672 4.97106,-5.44879c0.20425,-0.57388 0.4436,-1.13045 0.66168,-1.66863c-0.16197,3.77989 -0.42515,7.8102 -0.89521,11.02873c-1.0038,0.58126 -1.93959,2.5791 -2.92826,3.43716c-0.39371,0.3417 -0.79126,0.22418 -1.18631,0.65145c-1.69052,0.64041 -3.42918,0.52292 -5.14004,0.38215c-1.63248,-1.15998 -3.28592,-1.61401 -4.8148,-4.31007c-0.6486,-1.12914 -1.2419,-2.88692 -1.89966,-3.87223c-0.28326,-0.42432 -0.85126,-0.30097 -1.11532,-0.58578z" data-paper-data="{&quot;noHover&quot;:false,&quot;origItem&quot;:[&quot;Path&quot;,{&quot;applyMatrix&quot;:true,&quot;segments&quot;:[[[250.02414,79.12343],[-1.06075,-0.42432],[2.46317,0.98531]],[[257.13422,82.98535],[-2.42882,-1.12914],[5.72525,2.69606]],[[275.13312,87.26908],[-6.11321,-1.15998],[6.40666,0.14077]],[[294.33173,86.89986],[-6.33052,0.64041],[1.47933,-0.42727]],[[298.76926,86.25414],[-1.47434,0.3417],[3.70229,-0.85807]],[[309.72804,82.82983],[-3.75895,0.58126],[1.76027,-3.21854]],[[313.07756,71.81824],[-0.60653,3.77989],[-0.81665,0.53817]],[[310.6997,73.48829],[0.76485,-0.57388],[-5.15132,3.77679]],[[292.0786,78.95861],[6.14453,-1.17857],[-6.69499,1.28387]],[[272.40749,79.76011],[6.73371,0.50829],[-7.27257,-0.57348]],[[257.69916,69.34184],[2.6782,6.82846],[-1.14825,-2.93945]],[[253.01326,61.13646],[1.39251,2.81016],[-0.40618,-0.81969]],[[252.06157,58.38729],[0.29561,0.86854],[-0.10603,-0.31152]],[[251.63375,57.05809],[0.11986,0.46357],[-0.38222,0.9375]],[[250.32658,59.7366],[0.10254,-0.23603],[-1.16132,2.66866]],[[246.83135,67.79074],[0.60447,-2.88684],[-0.74243,3.5457]],[[245.84804,78.53982],[0.27611,-3.60791],[0.98884,0.28481]]],&quot;closed&quot;:true}]}" fill="#ffffff" stroke="none" stroke-width="0.5" stroke-linecap="butt"/></g><path d="M649.2354,119.55096l0.92722,1.33561l1.344,2.60561l1.2689,3.31425l0.04233,6.29967l-3.81955,-1.51887z" data-paper-data="{&quot;index&quot;:null}" fill="#000000" stroke="#000000" stroke-width="0" stroke-linecap="round"/></g><g fill-rule="nonzero" stroke="#000000" stroke-width="1"><path d="M110.34842,-205.17969l10.05217,9.037l14.52772,13.2375l3.74407,25.80511l-107.1258,510.93324l-12.92426,15.00236l-18.87575,5.98444l-14.94119,-1.82927l-1.19566,-14.20063l14.11038,1.24863l13.12815,-7.98273l8.25869,-12.26392l103.10057,-493.28703l-0.88244,-13.726l-3.56879,-12.63444l-10.7498,-11.64267z" fill="#00db64" stroke-linecap="round"/><path d="M152.13191,-41.46604c-19.90694,-4.07788 -32.73895,-23.5214 -28.66108,-43.42836c4.07788,-19.90695 23.52142,-32.73894 43.42837,-28.66107c19.90695,4.07787 32.73895,23.5214 28.66107,43.42835c-4.07788,19.90694 -23.5214,32.73895 -43.42836,28.66108z" fill="#414141" stroke-linecap="butt"/><path d="M155.35972,-57.22325c-11.20445,-2.29519 -18.42683,-13.23883 -16.13163,-24.4433c2.2952,-11.20446 13.23883,-18.42683 24.44329,-16.13164c11.20445,2.29519 18.42684,13.23883 16.13164,24.44329c-2.29519,11.20445 -13.23883,18.42683 -24.44327,16.13164z" fill="#cbcbcb" stroke-linecap="butt"/><path d="M76.21644,325.12269c-19.90694,-4.07788 -32.73895,-23.52141 -28.66107,-43.42837c4.07788,-19.90695 23.52141,-32.73895 43.42835,-28.66107c19.90694,4.07788 32.73895,23.5214 28.66108,43.42836c-4.07788,19.90695 -23.5214,32.73895 -43.42835,28.66107z" fill="#414141" stroke-linecap="butt"/><path d="M79.44429,309.36542c-11.20445,-2.29519 -18.42683,-13.23883 -16.13164,-24.44329c2.2952,-11.20446 13.23883,-18.42683 24.4433,-16.13163c11.20445,2.29519 18.42684,13.23883 16.13164,24.44329c-2.2952,11.20446 -13.23883,18.42683 -24.44329,16.13164z" fill="#cbcbcb" stroke-linecap="butt"/></g></g></g></svg>