<svg version="1.1" xmlns="http://www.w3.org/2000/svg" xmlns:xlink="http://www.w3.org/1999/xlink" width="1733.09309" height="836.33634" viewBox="0,0,1733.09309,836.33634"><g transform="translate(546.54655,238.16817)"><g data-paper-data="{&quot;isPaintingLayer&quot;:true}" stroke-linejoin="miter" stroke-miterlimit="10" stroke-dasharray="" stroke-dashoffset="0" style="mix-blend-mode: normal"><path d="M-546.54655,598.16817v-836.33634h1733.09309v836.33634z" fill="none" fill-rule="nonzero" stroke="#f00000" stroke-width="0" stroke-linecap="butt"/><path d="M219.84164,179.35825c2.19657,0.45455 4.39292,0.90906 6.58951,1.36362c-0.17134,1.19552 -0.48234,2.31594 -0.93255,3.36135c0.21945,-1.06045 0.43885,-2.12068 0.6583,-3.18114c-2.17742,-0.37311 -4.28243,-0.88762 -6.31525,-1.54383z" data-paper-data="{&quot;index&quot;:null}" fill="#74140b" fill-rule="evenodd" stroke="none" stroke-width="1" stroke-linecap="butt"/><g fill-rule="nonzero"><g><path d="M445.99932,85.492c-0.21583,-0.07331 -0.18384,-0.5679 -0.18384,-0.5679l0.1264,-1.25798c0.11968,-0.25937 0.23937,-0.51874 0.35905,-0.7781c0.06446,-0.03824 0.12467,-0.0786 0.18093,-0.12109c0.01134,-0.18973 0.02297,-0.37889 0.03495,-0.56743c0.12379,-1.94812 0.21132,-4.45293 0.81358,-5.88204c0,0 0.1511,-0.34628 0.30377,-0.01074c0.0081,-0.10235 0.02297,-0.20026 0.04744,-0.29197c0.07804,-0.29263 0.31728,-0.15543 0.40837,-0.42756c0.08943,-0.26719 -0.02732,-0.74299 0.06871,-0.99785c0.1982,-0.52597 0.61562,-0.32238 0.84354,-0.78077c0.84345,-1.69635 1.84799,-2.35858 2.68624,-4.58292c0.24946,-0.2915 0.58022,-0.28872 0.77287,-0.75444c0.34349,-0.8304 0.11427,-3.1147 0.54226,-3.87471c0.28622,-0.50826 1.39875,-0.34222 1.79875,-0.59827c1.52831,-0.97828 2.97489,-2.6409 4.49391,-3.77587c2.93231,-1.77379 5.8378,-4.0008 8.57728,-7.03653c2.84346,-3.14876 5.51616,-5.75144 8.63653,-7.06717c3.02938,-1.27737 5.77182,-4.54799 8.80528,-5.51826c2.48253,-0.79405 5.48376,-3.12642 7.54976,-6.57348l0.21233,-0.6551c0.03965,-0.12523 0.10404,-0.20667 0.17671,-0.20667c0.1205,0 0.21819,0.22386 0.21819,0.5c0,0.01728 -0.00039,0.03436 -0.00113,0.05119l-0.03902,0.98974c-0.02848,0.69773 -0.09187,1.39239 -0.18777,2.05781c-0.96819,6.64261 -2.10944,13.09314 -3.02038,19.79957c-0.47836,3.52176 -0.39372,7.32008 -0.8615,10.78979c-0.42432,3.14735 -1.42328,5.87747 -1.8805,9.02654c-0.37872,2.59993 -0.79693,5.00607 -1.35024,7.44053c-0.30092,1.32398 -0.85105,2.86543 -1.01818,4.29914c-0.10923,0.93704 0.0811,2.06637 -0.03725,3.00817c-0.18462,1.46921 -0.78446,3.07796 -1.12521,4.39889c-0.46073,2.31506 -1.12173,4.75012 -1.43494,7.18646c-0.2034,1.5822 -0.09704,3.38417 -0.31534,4.95811c-0.35043,2.52668 -1.29762,4.52933 -1.59852,7.05772c-0.82394,6.77757 -0.9811,13.70952 -1.50497,20.62536c-0.52223,6.89414 -1.06357,13.78189 -1.54138,20.69296c-0.47799,6.91377 -0.95598,13.82753 -1.43397,20.7413c-0.47236,6.83236 -1.62472,13.63149 -2.47351,20.27144c-0.85929,6.72211 -1.89624,13.35181 -2.99983,19.88035c-1.09959,6.50491 -1.20287,13.59143 -1.37481,20.48975c-0.18147,7.2801 -0.88739,13.59794 -1.7534,20.60243c-0.78589,6.35649 -1.64648,13.83642 -1.65244,20.47648c-0.00106,0.66857 0.11067,2.81251 -0.06811,3.32416c-0.42626,1.21994 -1.60658,0.99985 -2.23196,0.99979c-1.89862,-0.00018 -3.79727,0.01721 -5.69563,-0.05986c-1.49787,-0.67147 -3.172,-1.31988 -4.70184,-0.65659c-0.70879,0.30731 -1.36918,1.28505 -2.08226,1.54306c-0.69903,0.25292 -1.50718,0.00612 -2.21589,0.00612c-3.05459,0 -6.10918,-0.00142 -9.16377,0.00029c-3.07021,0.00171 -6.08091,0.78506 -9.139,0.85299c-1.41479,0.03143 -2.98781,1.19985 -4.36613,0.69903c-1.65172,-0.60017 -2.97108,-1.5523 -4.67607,-1.5523c-3.05461,0 -6.10922,0 -9.16382,0c-3.05461,0 -6.10922,0 -9.16382,0c-3.0546,0 -6.10921,-0.00011 -9.16381,0.00017c-3.03603,0.00027 -6.11495,-0.29477 -9.13976,0.31224c-1.89266,0.37982 -3.77735,0.31682 -5.66683,0.61162c-1.1848,0.18486 -2.3137,0.76346 -3.50709,0.67569c-0.27164,-0.10469 -1.26246,-0.20562 -1.43576,-0.67568c-0.28811,-0.78143 -0.05152,-4.28677 -0.05156,-5.32266c-0.00014,-4.35998 -0.07595,-8.57952 -0.27215,-12.91649c-0.31267,-6.9117 -0.09128,-14.09125 -0.09111,-21.04093c0.00017,-7.12895 -0.22156,-14.00666 0.73117,-20.84535c0.02177,-7.46679 2.52359,-12.44318 4.90585,-16.92974c0.32618,-0.90584 0.72147,-2.51945 1.15088,-3.14697c0.49456,-0.72273 1.23246,-0.52409 1.76247,-0.84673c0.62502,-0.38047 0.7913,-1.89266 1.29938,-2.44854c0.48263,-0.52803 1.27324,0.04586 1.79679,-0.18671c0.65659,-0.29166 1.45165,-0.53406 2.07853,-1.02945c2.87339,-2.22544 6.11831,-1.30703 9.14183,-1.30694c3.06608,0.0025 6.11142,0.06078 9.1714,0.5123c3.0454,0.44937 6.0941,0.3216 9.14537,0.32423c3.05913,0.00263 6.1052,0.82888 9.14676,0.82853c1.16349,-0.00014 2.327,0.00444 3.49049,-0.00169c0.43724,-0.0023 1.23299,0.33002 1.6288,-0.18668c0.99502,-1.29894 1.10627,-5.59035 1.63585,-7.73851c0.75025,-3.031 0.70605,-6.03344 0.97098,-9.41153c0.28553,-3.64067 0.79417,-7.17706 1.39259,-10.60658c1.13334,-6.49508 1.74688,-13.47004 2.98688,-19.85673c1.22837,-6.31825 2.24619,-13.36757 4.28042,-18.5154c1.52391,-6.2286 2.26382,-12.55514 2.88599,-19.54316c0.61349,-6.89054 1.42406,-13.60899 2.24125,-20.38622c0.38665,-3.19402 0.51664,-6.65387 0.69691,-9.99179c-0.05521,0.12864 -0.11041,0.25728 -0.16562,0.38592l0.00048,0.68893c0,0 -0.03199,0.4946 -0.24781,0.42129zM446.95651,82.21629c0.48057,-0.87626 0.33592,-2.24088 0.68991,-4.11387c0.06248,-0.33059 0.02732,-0.71881 0.00077,-1.09882c-0.00502,0.01362 -0.00822,0.02095 -0.00822,0.02095c-0.51469,1.12627 -0.58302,3.55002 -0.68245,5.19173z" fill="#747474" stroke="none" stroke-width="0.5" stroke-linecap="butt"/><path d="M560.18023,85.07071l0.00048,-0.68893c-0.05521,-0.12864 -0.11041,-0.25728 -0.16562,-0.38592c0.18027,3.33792 0.31026,6.79778 0.69691,9.99179c0.81719,6.77723 1.62777,13.49568 2.24125,20.38622c0.62217,6.98802 1.36207,13.31456 2.88599,19.54316c2.03424,5.14783 3.05206,12.19715 4.28042,18.5154c1.24,6.38669 1.85354,13.36165 2.98688,19.85673c0.59841,3.42952 1.10705,6.96591 1.39259,10.60658c0.26494,3.37809 0.22074,6.38053 0.97099,9.41153c0.52958,2.14816 0.64084,6.43957 1.63585,7.73851c0.39581,0.51671 1.19156,0.18438 1.6288,0.18668c1.16349,0.00612 2.327,0.00155 3.49049,0.00169c3.04156,0.00035 6.08763,-0.8259 9.14676,-0.82853c3.05128,-0.00263 6.09998,0.12514 9.14537,-0.32423c3.05998,-0.45153 6.10532,-0.50981 9.1714,-0.5123c3.02353,-0.00009 6.26845,-0.9185 9.14183,1.30694c0.62689,0.49539 1.42195,0.73779 2.07853,1.02945c0.52356,0.23257 1.31416,-0.34132 1.79679,0.18671c0.50809,0.55588 0.67436,2.06807 1.29938,2.44854c0.53001,0.32264 1.26791,0.12401 1.76247,0.84673c0.42941,0.62752 0.8247,2.24113 1.15088,3.14697c2.38225,4.48656 4.88408,9.46295 4.90585,16.92974c0.95273,6.83869 0.73099,13.7164 0.73117,20.84535c0.00017,6.94968 0.22157,14.12923 -0.09111,21.04093c-0.1962,4.33697 -0.27202,8.55651 -0.27215,12.91649c-0.00003,1.03589 0.23655,4.54123 -0.05156,5.32266c-0.17331,0.47006 -1.16412,0.57099 -1.43576,0.67568c-1.19338,0.08777 -2.32229,-0.49083 -3.50709,-0.67569c-1.88948,-0.2948 -3.77418,-0.2318 -5.66683,-0.61162c-3.02481,-0.60701 -6.10373,-0.31196 -9.13976,-0.31224c-3.05461,-0.00027 -6.10921,-0.00017 -9.16381,-0.00017c-3.05461,0 -6.10922,0 -9.16382,0c-3.05461,0 -6.10922,0 -9.16382,0c-1.70499,0 -3.02434,0.95214 -4.67607,1.5523c-1.37831,0.50082 -2.95134,-0.6676 -4.36613,-0.69903c-3.05809,-0.06793 -6.06879,-0.85127 -9.139,-0.85299c-3.05459,-0.00171 -6.10918,-0.00029 -9.16377,-0.00029c-0.70871,0 -1.51686,0.2468 -2.21589,-0.00612c-0.71308,-0.25801 -1.37347,-1.23575 -2.08226,-1.54306c-1.52984,-0.6633 -3.20398,-0.01488 -4.70185,0.65659c-1.89836,0.07707 -3.79701,0.05968 -5.69563,0.05986c-0.62538,0.00006 -1.80571,0.22015 -2.23196,-0.99979c-0.17878,-0.51165 -0.06704,-2.65559 -0.0681,-3.32416c-0.00596,-6.64006 -0.86655,-14.11999 -1.65244,-20.47648c-0.86602,-7.00449 -1.57194,-13.32233 -1.75341,-20.60243c-0.17195,-6.89832 -0.27522,-13.98485 -1.37481,-20.48975c-1.10358,-6.52855 -2.14054,-13.15824 -2.99983,-19.88035c-0.84879,-6.63995 -2.00115,-13.43908 -2.47351,-20.27144c-0.47799,-6.91377 -0.95598,-13.82753 -1.43397,-20.7413c-0.4778,-6.91107 -1.01915,-13.79883 -1.54138,-20.69296c-0.52387,-6.91584 -0.68104,-13.84779 -1.50497,-20.62536c-0.30091,-2.52839 -1.2481,-4.53104 -1.59852,-7.05772c-0.2183,-1.57394 -0.11193,-3.37591 -0.31533,-4.95811c-0.3132,-2.43634 -0.97421,-4.8714 -1.43494,-7.18646c-0.34075,-1.32093 -0.94058,-2.92968 -1.12521,-4.39889c-0.11835,-0.9418 0.07198,-2.07114 -0.03725,-3.00817c-0.16712,-1.43371 -0.71726,-2.97516 -1.01818,-4.29914c-0.55331,-2.43446 -0.97152,-4.8406 -1.35024,-7.44053c-0.45722,-3.14907 -1.45618,-5.87919 -1.8805,-9.02654c-0.46778,-3.46972 -0.38314,-7.26803 -0.8615,-10.78979c-0.91094,-6.70643 -2.05218,-13.15696 -3.02038,-19.79957c-0.0959,-0.66542 -0.15928,-1.36009 -0.18777,-2.05781l-0.03902,-0.98974c-0.00075,-0.01683 -0.00113,-0.03391 -0.00113,-0.05119c0,-0.27614 0.09769,-0.5 0.21819,-0.5c0.07268,0 0.13707,0.08143 0.17671,0.20667l0.21233,0.6551c2.066,3.44706 5.06722,5.77943 7.54976,6.57348c3.03346,0.97027 5.7759,4.2409 8.80528,5.51826c3.12037,1.31573 5.79306,3.9184 8.63653,7.06717c2.73948,3.03573 5.64497,5.26275 8.57728,7.03653c1.51902,1.13496 2.96561,2.79758 4.49391,3.77587c0.4,0.25605 1.51253,0.09001 1.79875,0.59827c0.42799,0.76002 0.19877,3.04431 0.54226,3.87471c0.19264,0.46572 0.52341,0.46294 0.77287,0.75444c0.83825,2.22434 1.84279,2.88657 2.68624,4.58292c0.22792,0.45839 0.64534,0.2548 0.84354,0.78077c0.09604,0.25486 -0.02072,0.73066 0.06871,0.99785c0.09109,0.27213 0.33033,0.13492 0.40837,0.42756c0.02446,0.0917 0.03933,0.18961 0.04744,0.29197c0.15267,-0.33554 0.30377,0.01074 0.30377,0.01074c0.60226,1.42911 0.6898,3.93393 0.81358,5.88204c0.01198,0.18854 0.02361,0.3777 0.03495,0.56743c0.05625,0.04248 0.11646,0.08285 0.18093,0.12109c0.11968,0.25937 0.23937,0.51874 0.35905,0.7781l0.1264,1.25798c0,0 0.03199,0.4946 -0.18384,0.5679c-0.21583,0.07331 -0.24781,-0.42129 -0.24781,-0.42129zM558.78842,77.02456c0,0 -0.0032,-0.00733 -0.00822,-0.02095c-0.02656,0.38001 -0.06171,0.76823 0.00077,1.09882c0.35398,1.87299 0.20933,3.2376 0.6899,4.11387c-0.09943,-1.64172 -0.16776,-4.06546 -0.68245,-5.19173z" data-paper-data="{&quot;index&quot;:null}" fill="#747474" stroke="none" stroke-width="0.5" stroke-linecap="butt"/><path d="M433.98389,29.96364l-3.54009,-5.70546l27.73013,-16.9577l23.12067,20.79173l-4.04535,4.36976l-19.06422,-15.68193z" data-paper-data="{&quot;index&quot;:null}" fill="#303c43" stroke="#000000" stroke-width="0" stroke-linecap="round"/><path d="M530.06475,172.28154l1.29152,-99.88686l100.36497,28.36829l0.93344,61.84326z" data-paper-data="{&quot;index&quot;:null}" fill="#85c1da" stroke="#000000" stroke-width="0" stroke-linecap="round"/><path d="M628.49643,162.92104l-21.85693,2.77246l0.1734,-61.20178c0,0 8.27847,-3.34002 12.12889,-2.02916c3.53554,1.20365 10.10965,9.60016 10.10965,9.60016l-0.13093,50.5442z" data-paper-data="{&quot;index&quot;:null}" fill="#01005e" stroke="#000000" stroke-width="0" stroke-linecap="round"/><path d="M608.8976,164.93329l0.00802,-55.06855c0,0 6.76448,-2.21632 9.96841,-1.14016c2.68641,0.90231 7.97757,7.16791 7.97757,7.16791l-0.11871,47.47613z" data-paper-data="{&quot;index&quot;:null}" fill="#85c1da" stroke="#000000" stroke-width="0" stroke-linecap="round"/><path d="M603.19222,164.92172l-25.97507,4.00106l-0.1692,-72.78621c0,0 9.45284,-3.87197 14.04399,-2.43582c4.20578,1.31562 12.44833,10.72283 12.44833,10.72283l0.15433,60.11095z" data-paper-data="{&quot;index&quot;:null}" fill="#01005e" stroke="#000000" stroke-width="0" stroke-linecap="round"/><path d="M579.8978,167.94601l-0.32825,-65.48731c0,0 7.18454,-4.22017 10.77437,-3.11356c3.53539,1.08983 10.6038,9.70362 10.6038,9.70362l0.15005,56.46201z" data-paper-data="{&quot;index&quot;:null}" fill="#85c1da" stroke="#000000" stroke-width="0" stroke-linecap="round"/><path d="M574.35267,167.78762l-30.72913,4.73336l-0.20018,-86.10783c0,0 11.96022,-3.62096 17.53979,-1.87563c4.72456,1.47788 13.80126,11.67936 13.80126,11.67936l0.18257,71.11269z" data-paper-data="{&quot;index&quot;:null}" fill="#01005e" stroke="#000000" stroke-width="0" stroke-linecap="round"/><path d="M546.79479,171.36544l-0.38833,-77.47303c0,0 9.85986,-5.6333 14.33529,-4.25369c3.86505,1.19144 10.95561,12.04988 10.95561,12.04988l0.17751,66.79592z" data-paper-data="{&quot;index&quot;:null}" fill="#85c1da" stroke="#000000" stroke-width="0" stroke-linecap="round"/><path d="M529.95863,172.82075l-69.21469,-10.23811l0.69151,-71.69394l69.871,-18.00732z" data-paper-data="{&quot;index&quot;:null}" fill="#85c1da" stroke="#000000" stroke-width="0" stroke-linecap="round"/><path d="M572.77291,84.65321l-0.76149,-61.41538l31.64557,14.86381l0.75309,54.25635z" data-paper-data="{&quot;index&quot;:null}" fill="#85c1da" stroke="#000000" stroke-width="0" stroke-linecap="round"/><path d="M572.68604,84.06127l-24.4831,-6.76138l0.04748,-32.9815l23.67528,-20.68507z" data-paper-data="{&quot;index&quot;:null}" fill="#85c1da" stroke="#000000" stroke-width="0" stroke-linecap="round"/><path d="M571.96931,24.07742l-4.13152,4.37029l-0.38481,-34.16379l18.36505,7.39155l0.20503,27.84513z" data-paper-data="{&quot;index&quot;:null}" fill="#85c1da" stroke="#000000" stroke-width="0" stroke-linecap="round"/><path d="M548.20785,44.76302l-2.93845,-7.09161l26.6033,-22.48054l36.99073,16.55893l-5.50761,6.74867l-30.78301,-14.22727z" data-paper-data="{&quot;index&quot;:null}" fill="#303c43" stroke="#000000" stroke-width="0" stroke-linecap="round"/><path d="M567.65431,18.9692l-3.53058,2.39166l-0.88867,-22.90363l4.21793,-4.17332z" data-paper-data="{&quot;index&quot;:null}" fill="#85c1da" stroke="#000000" stroke-width="0" stroke-linecap="round"/><path d="M560.98882,-6.26871l5.8521,-6.94829l23.1918,7.9543l-4.0421,7.13463l-18.19269,-7.39262l-4.82072,4.57202z" data-paper-data="{&quot;index&quot;:null}" fill="#303c43" stroke="#000000" stroke-width="0" stroke-linecap="round"/><path d="M566.71143,-13.41369l-5.76522,7.54023l2.50453,4.52689l0.71677,23.29967l-19.02715,15.91661l3.11011,6.49808l-0.04794,32.5865l-16.55134,-4.04535l-10.77013,2.04128l0.62965,-50.95687l24.29365,-44.53605l0.03914,-40.09115l38.39855,22.87l0.18638,30.31392z" data-paper-data="{&quot;index&quot;:null}" fill="#85c1da" stroke="#000000" stroke-width="0" stroke-linecap="round"/><path d="M521.31178,74.79943l-47.98672,13.33014l1.41709,-40.88962l46.94069,-23.44517z" data-paper-data="{&quot;index&quot;:null}" fill="#85c1da" stroke="#000000" stroke-width="0" stroke-linecap="round"/><path d="M545.93248,-21.53098l-24.59336,46.16723l-46.98085,22.80357l-4.57539,-6.68654l50.47411,-23.41758l25.84082,-48.0017z" data-paper-data="{&quot;index&quot;:null}" fill="#303c43" stroke="#000000" stroke-width="0" stroke-linecap="round"/><path d="M545.75256,-31.10824l-49.15917,42.36873l0.22865,-25.47791l49.24032,-46.66467z" data-paper-data="{&quot;index&quot;:null}" fill="#85c1da" stroke="#000000" stroke-width="0" stroke-linecap="round"/><path d="M545.51707,-29.82309l-25.10858,47.75033l-50.4748,22.8251l27.09015,-29.8895l48.81468,-42.16911z" data-paper-data="{&quot;index&quot;:null}" fill="#d19090" stroke="#000000" stroke-width="0" stroke-linecap="round"/><path d="M545.93412,-59.99259l-49.15477,46.12105l-6.81328,-4.30285l57.00799,-55.25408l41.397,26.01141l-4.21145,9.70307z" data-paper-data="{&quot;index&quot;:null}" fill="#303c43" stroke="#000000" stroke-width="0" stroke-linecap="round"/><path d="M469.84796,41.14786l4.8337,6.48746l-1.50373,40.49518l-16.11211,3.06164l1.11915,-74.46146l18.97781,15.48496z" data-paper-data="{&quot;index&quot;:null}" fill="#85c1da" stroke="#000000" stroke-width="0" stroke-linecap="round"/><path d="M456.97803,89.81024l-24.38719,1.53271l1.47917,-61.42921l24.20139,-12.9861z" data-paper-data="{&quot;index&quot;:null}" fill="#85c1da" stroke="#000000" stroke-width="0" stroke-linecap="round"/><path d="M436.03708,90.53174l1.31608,-53.5285c0,0 4.29586,-8.43791 6.69599,-9.40342c2.96416,-1.19245 9.75667,2.7848 9.75667,2.7848l-0.44687,59.84291z" data-paper-data="{&quot;index&quot;:null}" fill="#01005e" stroke="#01005e" stroke-width="0" stroke-linecap="round"/><path d="M438.27765,90.42851l1.06217,-49.57709c0,0 2.92549,-7.97273 4.81483,-8.62045c2.17624,-0.74608 7.50397,4.39721 7.50397,4.39721l-0.88495,53.72334z" data-paper-data="{&quot;index&quot;:null}" fill="#2b3b41" stroke="#000000" stroke-width="0" stroke-linecap="round"/><path d="M432.67239,87.3926l-12.40823,1.45891l1.06473,-47.4047l12.49024,-5.01426z" data-paper-data="{&quot;index&quot;:null}" fill="#85c1da" stroke="#000000" stroke-width="0" stroke-linecap="round"/><path d="M421.32864,41.2493l-3.10919,-5.70811l15.9365,-5.82546l-0.07853,6.51772z" data-paper-data="{&quot;index&quot;:null}" fill="#303c43" stroke="#000000" stroke-width="0" stroke-linecap="round"/><path d="M429.84048,24.21253l4.48759,5.30465l-15.9372,5.233l3.28316,7.0895l-1.32471,46.17197l-7.15013,2.41397l-0.2641,-4.73818l1.18982,-87.69387l24.156,21.77281z" data-paper-data="{&quot;index&quot;:null}" fill="#85c1da" stroke="#000000" stroke-width="0" stroke-linecap="round"/><path d="M412.93958,89.48909l-29.905,-0.40821l2.75623,-74.76778l28.24812,-16.17091z" data-paper-data="{&quot;index&quot;:null}" fill="#85c1da" stroke="#000000" stroke-width="0" stroke-linecap="round"/><path d="M385.61849,14.36352l-5.26553,-7.27477l34.44888,-19.76397l27.18225,30.24633l-4.04789,2.19736l-24.15575,-21.57533z" data-paper-data="{&quot;index&quot;:null}" fill="#303c43" stroke="#000000" stroke-width="0" stroke-linecap="round"/><path d="M460.68139,161.23023l-16.62408,7.40964l-20.96642,-57.73604l-51.49785,-4.42252l11.87285,-17.05748l29.47318,-0.37909l0.9496,1.37659l6.03071,-1.61709l12.66631,-1.85547l0.00486,4.1473l24.81809,-1.53535l-0.51453,2.17558l4.22048,-2.00092z" data-paper-data="{&quot;index&quot;:null}" fill="#794a45" stroke="#000000" stroke-width="0" stroke-linecap="round"/><path d="M450.67774,89.96785l-8.88967,0.17824l0.91889,-43.40464c0,0 2.98016,-6.65275 4.55406,-7.19374c1.29932,-0.4466 4.22451,4.17641 4.22451,4.17641z" data-paper-data="{&quot;index&quot;:null}" fill="#720b00" stroke="#000000" stroke-width="0" stroke-linecap="round"/><path d="M427.63134,40.75558c1.26249,-0.51431 4.61034,2.11953 4.61034,2.11953l-0.72397,26.04903l-8.72231,1.67478l1.29151,-24.64764c0,0 2.29311,-4.68592 3.54443,-5.1957z" data-paper-data="{&quot;index&quot;:null}" fill="#01005e" stroke="#000000" stroke-width="0" stroke-linecap="round"/><path d="M430.19349,65.69021l-5.84631,1.1167l1.01605,-18.26988c0,0 1.51622,-4.41113 2.35869,-4.77044c1.01176,-0.43151 3.29747,2.35806 3.29747,2.35806z" data-paper-data="{&quot;index&quot;:null}" fill="#baaa1d" stroke="#000000" stroke-width="0" stroke-linecap="round"/><path d="M388.09766,89.77876l1.81211,-63.25842c0,0 4.42453,-10.89251 7.24025,-12.09888c3.31003,-1.41814 11.37789,4.12216 11.37789,4.12216l-0.90733,70.7366z" data-paper-data="{&quot;index&quot;:null}" fill="#01005e" stroke="#000000" stroke-width="0" stroke-linecap="round"/><path d="M405.68775,89.8325l-15.46894,-0.87732l1.39393,-57.93345c0,0 4.17177,-10.95649 6.36843,-11.84168c2.6278,-1.05894 8.338,5.91537 8.338,5.91537l-0.96236,64.03667z" data-paper-data="{&quot;index&quot;:null}" fill="#baaa1d" stroke="#000000" stroke-width="0" stroke-linecap="round"/><path d="M539.45407,71.42012l0.32718,-42.68918c0,0 1.89912,-2.15711 2.74671,-1.72692c0.83522,0.4239 2.30223,4.28947 2.30223,4.28947l-0.09304,41.28284z" data-paper-data="{&quot;index&quot;:null}" fill="#01005e" stroke="#000000" stroke-width="0" stroke-linecap="round"/><path d="M540.67701,68.71085l0.24009,-36.52871c0,0 0.94577,-1.62488 1.44208,-1.41141c0.4945,0.2127 1.53038,2.68993 1.53038,2.68993l-0.05196,36.09528z" data-paper-data="{&quot;index&quot;:null}" fill="#baaa1d" stroke="#000000" stroke-width="0" stroke-linecap="round"/><path d="M533.03794,69.1902l0.32718,-42.68918c0,0 1.89912,-2.15711 2.74671,-1.72692c0.83522,0.4239 2.30223,4.28947 2.30223,4.28947l-0.09304,41.28284z" data-paper-data="{&quot;index&quot;:null}" fill="#01005e" stroke="#000000" stroke-width="0" stroke-linecap="round"/><path d="M534.26088,66.48094l0.24009,-36.52872c0,0 0.94577,-1.62489 1.44209,-1.41142c0.4945,0.2127 1.53038,2.68994 1.53038,2.68994l-0.05197,36.09529z" data-paper-data="{&quot;index&quot;:null}" fill="#baaa1d" stroke="#000000" stroke-width="0" stroke-linecap="round"/><path d="M526.33911,67.17818l0.32718,-42.68918c0,0 1.89912,-2.15711 2.74671,-1.72692c0.83522,0.4239 2.30223,4.28947 2.30223,4.28947l-0.09304,41.28285z" data-paper-data="{&quot;index&quot;:null}" fill="#01005e" stroke="#000000" stroke-width="0" stroke-linecap="round"/><path d="M527.56204,64.46891l0.24009,-36.52873c0,0 0.94577,-1.62489 1.44209,-1.41141c0.4945,0.2127 1.53038,2.68993 1.53038,2.68993l-0.05197,36.0953z" data-paper-data="{&quot;index&quot;:null}" fill="#baaa1d" stroke="#baaa1d" stroke-width="0" stroke-linecap="round"/><path d="M551.88817,78.15184l-0.03702,-31.55584c0,0 4.46165,-7.94799 6.82682,-9.88795c2.59225,-2.12622 8.10798,-2.36181 8.10798,-2.36181l0.29284,48.62916z" data-paper-data="{&quot;index&quot;:null}" fill="#01005e" stroke="#000000" stroke-width="0" stroke-linecap="round"/><path d="M554.0111,78.8412l-0.31833,-30.14922c0,0 3.1745,-7.51064 5.00371,-9.06044c1.93387,-1.63849 6.30303,-0.51926 6.30303,-0.51926l0.23997,43.76637z" data-paper-data="{&quot;index&quot;:null}" fill="#baaa1d" stroke="#000000" stroke-width="0" stroke-linecap="round"/><path d="M583.34187,76.4721l-0.13999,-38.93092l11.18289,5.4426l0.59915,38.38774z" data-paper-data="{&quot;index&quot;:null}" fill="#baaa1d" stroke="#000000" stroke-width="0" stroke-linecap="round"/><path d="M594.29017,42.74121l4.05888,2.78477l0.98658,37.00748l-4.48202,-1.70148z" data-paper-data="{&quot;index&quot;:null}" fill="#01005e" stroke="#01005e" stroke-width="0" stroke-linecap="round"/><path d="M583.48341,76.52525l-5.28448,-2.34497l-0.23503,-39.55173l5.19104,3.10201z" data-paper-data="{&quot;index&quot;:null}" fill="#01005e" stroke="#000000" stroke-width="0" stroke-linecap="round"/><path d="M525.3687,-17.29861l0.21145,-20.7505l6.21736,-6.41437l0.11904,21.07268z" data-paper-data="{&quot;index&quot;:null}" fill="#baaa1d" stroke="#000000" stroke-width="0" stroke-linecap="round"/><path d="M522.02379,-14.46822l0.07009,-20.64156l3.39132,-3.4791l0.07175,20.96489z" data-paper-data="{&quot;index&quot;:null}" fill="#01005e" stroke="#000000" stroke-width="0" stroke-linecap="round"/><path d="M531.82223,-23.39023l0.0701,-20.64156l3.39131,-3.47911l0.07175,20.96491z" data-paper-data="{&quot;index&quot;:null}" fill="#01005e" stroke="#000000" stroke-width="0" stroke-linecap="round"/><path d="M505.64177,0.24902l0.21145,-20.75051l6.21736,-6.41436l0.11904,21.07267z" data-paper-data="{&quot;index&quot;:null}" fill="#baaa1d" stroke="#000000" stroke-width="0" stroke-linecap="round"/><path d="M502.29685,3.07941l0.07009,-20.64156l3.39132,-3.4791l0.07175,20.96491z" data-paper-data="{&quot;index&quot;:null}" fill="#01005e" stroke="#000000" stroke-width="0" stroke-linecap="round"/><path d="M512.09531,-5.84259l0.0701,-20.64156l3.39131,-3.47911l0.07176,20.96491z" data-paper-data="{&quot;index&quot;:null}" fill="#01005e" stroke="#000000" stroke-width="0" stroke-linecap="round"/><path d="M559.95922,22.85196l-7.87676,-1.14022l0.30069,-25.0738c0,0 2.3833,-2.9211 3.59527,-2.41904c1.27016,0.52615 3.85935,5.5071 3.85935,5.5071l0.02574,21.9378z" data-paper-data="{&quot;index&quot;:null}" fill="#01005e" stroke="#000000" stroke-width="0" stroke-linecap="round"/><path d="M553.54056,18.46068l0.26165,-18.15717c0,0 1.41715,-3.05744 2.21531,-2.74286c0.82104,0.32361 2.64424,4.65816 2.64424,4.65816l0.02104,17.9393z" data-paper-data="{&quot;index&quot;:null}" fill="#baaa1d" stroke="#000000" stroke-width="0" stroke-linecap="round"/><path d="M572.44719,15.2102l-0.11067,-13.9402c0,0 3.60862,-2.45144 5.53333,-1.66352c1.5459,0.63285 5.12953,6.02863 5.12953,6.02863l0.15859,14.5883z" data-paper-data="{&quot;index&quot;:null}" fill="#01005e" stroke="#000000" stroke-width="0" stroke-linecap="round"/><path d="M573.86256,15.74181l-0.10737,-11.13041c0,0 2.70188,-2.62401 4.04271,-1.9663c1.26577,0.6209 3.79006,5.80853 3.79006,5.80853l0.20169,11.12984z" data-paper-data="{&quot;index&quot;:null}" fill="#baaa1d" stroke="#000000" stroke-width="0" stroke-linecap="round"/><path d="M442.59877,46.89088l1.03456,-2.49196l1.75394,-2.30727l1.78908,-2.49662l0.47149,-0.08396l-0.41211,50.68679l-5.3755,0.46541z" data-paper-data="{&quot;index&quot;:null}" fill="#720b00" stroke="#000000" stroke-width="0" stroke-linecap="round"/><path d="M446.45609,68.80509l-3.15856,0.88401l0.44635,-21.50844l3.01253,-4.77358z" data-paper-data="{&quot;index&quot;:null}" fill="#baaa1d" stroke="#000000" stroke-width="0" stroke-linecap="round"/><path d="M448.92616,43.82598l2.36082,2.47104l-0.25619,22.80408l-2.54627,0.23183z" data-paper-data="{&quot;index&quot;:null}" fill="#baaa1d" stroke="#000000" stroke-width="0" stroke-linecap="round"/><path d="M548.2392,112.23912l0.02747,-15.82434l3.67955,-2.76553l3.77286,-1.71116l2.80773,-0.33379l-0.34662,18.46365z" data-paper-data="{&quot;index&quot;:null}" fill="#000000" stroke="#000000" stroke-width="0" stroke-linecap="round"/><path d="M561.56608,92.42953l2.25805,1.99049l3.27303,3.88313l3.09014,4.9392l0.10308,9.38837l-9.3017,-2.26357z" data-paper-data="{&quot;index&quot;:null}" fill="#000000" stroke="#000000" stroke-width="0" stroke-linecap="round"/><path d="M580.83337,119.28786l0.02351,-13.54574l3.14972,-2.36731l3.22959,-1.46475l2.40345,-0.28572l-0.29671,15.80502z" data-paper-data="{&quot;index&quot;:null}" fill="#000000" stroke="#000000" stroke-width="0" stroke-linecap="round"/><path d="M592.24127,102.33074l1.9329,1.70386l2.80174,3.32398l2.64517,4.22799l0.08824,8.0365l-7.96232,-1.93762z" data-paper-data="{&quot;index&quot;:null}" fill="#000000" stroke="#000000" stroke-width="0" stroke-linecap="round"/><path d="M610.60468,124.16026l0.01843,-10.61823l2.469,-1.85569l2.53161,-1.14821l1.88401,-0.22399l-0.23258,12.38925z" data-paper-data="{&quot;index&quot;:null}" fill="#000000" stroke="#000000" stroke-width="0" stroke-linecap="round"/><path d="M485.3937,48.40897c0.35765,0.38519 0.5646,-0.29131 0.5646,-0.29131c0.17493,-0.9128 1.41129,-0.30545 1.87166,-0.37785c0.85884,-0.13511 2.84759,-0.51588 3.69744,0.54158c0.70905,0.88226 1.09586,4.93966 1.23026,6.49776c-0.05281,5.15415 -0.42806,9.05502 -2.11653,13.18759c-0.63332,1.55004 -1.02169,3.33195 -2.05985,4.07711c-1.27853,0.9177 -3.2796,0.46777 -4.57661,0.02007c-1.3767,-0.47242 -1.68199,-1.55928 -2.1883,-3.89896c-1.19201,-5.50834 0.80681,-11.95488 2.21334,-16.93344c0.34911,-1.24314 0.75898,-2.15385 1.21909,-3.05675c0.03249,0.08391 0.0795,0.16378 0.14489,0.23421z" data-paper-data="{&quot;noHover&quot;:false,&quot;origItem&quot;:[&quot;Path&quot;,{&quot;applyMatrix&quot;:true,&quot;segments&quot;:[[[198.44065,130.34663],[0.07391,0.06781],[-0.65049,1.01764]],[[196.85501,133.66229],[0.38783,-1.29998],[-1.56825,5.20919]],[[196.10629,150.39263],[-3.17154,-4.78632],[1.34712,2.033]],[[200.73291,153.29281],[-2.54745,0.04268],[2.40048,-0.0377]],[[208.86748,151.64902],[-2.10888,1.32263],[1.7124,-1.07397]],[[211.75454,147.07391],[-0.83713,1.69132],[2.23187,-4.50925]],[[213.03393,133.90973],[0.88194,4.89393],[-0.53508,-1.42595]],[[209.62627,128.21675],[1.43304,0.58239],[-1.71761,-0.69805]],[[202.9475,129.02331],[1.5078,-0.43318],[-0.80822,0.23219]],[[199.69167,130.04267],[0.13943,-0.92558],[0,0]],[[198.74299,130.51701],[0.71151,0.23717],[-0.13007,-0.04336]]],&quot;closed&quot;:true}],&quot;index&quot;:null}" fill="#ffffff" stroke="#000000" stroke-width="1.5" stroke-linecap="butt"/><path d="M501.36609,43.03807c0.54615,-0.17178 1.04904,-0.74222 1.59357,-0.93147c3.13772,-1.09045 3.69725,1.83983 5.22274,6.04758c-0.11387,6.94428 -1.11639,18.18135 -5.894,18.39538c-0.52487,0.02352 -1.27194,-0.49797 -1.79823,-0.6958c-2.17601,-0.818 -4.1288,-5.50355 -4.1583,-9.94091c-0.02423,-3.64785 1.04892,-7.23397 2.15724,-9.91519c0.08158,-0.34704 0.20298,-0.67901 0.34847,-0.95163c0.27141,0.02699 0.37184,-0.40022 0.39988,-0.56659l0.34749,-0.43725c0,0 0.18672,-0.23468 0.194,-0.61534c0.503,-0.3094 1.23908,-0.27934 1.58712,-0.38881z" data-paper-data="{&quot;noHover&quot;:false,&quot;origItem&quot;:[&quot;Path&quot;,{&quot;applyMatrix&quot;:true,&quot;segments&quot;:[[[223.48817,120.68639],[0.83946,-0.4715],[0.05909,0.36267]],[223.26049,121.33583],[[222.72568,121.87064],[0,0],[-0.01855,0.16733]],[[222.12213,122.54569],[0.48968,-0.07096],[-0.20813,0.30959]],[[221.68358,123.56571],[0.07992,-0.35726],[-1.47095,2.93017]],[[219.71637,133.66232],[-0.7342,-3.44177],[0.89311,4.18667]],[[228.98016,141.5555],[-4.03999,0],[0.97709,0]],[[232.30889,141.57531],[-0.93264,0.20887],[8.48942,-1.90123]],[[239.31891,122.15939],[1.11198,6.60888],[-3.52059,-3.43757]],[[228.89188,118.3155],[5.39556,-2.14708],[-0.93636,0.37261]],[[226.23619,119.76044],[0.94255,-0.35667],[-0.60067,0.2273]]],&quot;closed&quot;:true}],&quot;index&quot;:null}" fill="#ffffff" stroke="#000000" stroke-width="1.5" stroke-linecap="butt"/><path d="M489.80123,58.05289c0.11913,-1.12298 0.69801,-1.85207 1.29295,-1.62842c0.59494,0.22366 0.98066,1.31531 0.86153,2.43832c-0.11913,1.12298 -0.69801,1.85205 -1.29295,1.62841c-0.59494,-0.22366 -0.98067,-1.31532 -0.86153,-2.43832z" data-paper-data="{&quot;index&quot;:null}" fill="#000000" stroke="none" stroke-width="0.5" stroke-linecap="butt"/><path d="M505.16012,52.57806c0.11913,-1.12298 0.69801,-1.85208 1.29295,-1.62843c0.59494,0.22366 0.98066,1.31532 0.86153,2.43833c-0.11913,1.12298 -0.69801,1.85207 -1.29295,1.62842c-0.59494,-0.22366 -0.98066,-1.31532 -0.86153,-2.43833z" data-paper-data="{&quot;index&quot;:null}" fill="#000000" stroke="none" stroke-width="0.5" stroke-linecap="butt"/><path d="M475.25251,7.06596c0.52998,-0.27357 0.67441,0.72632 0.67441,0.72632l-0.14908,-0.03623c2.02289,2.4992 3.92678,7.23216 5.48647,10.74978c2.5776,6.64594 5.9419,11.5577 8.87237,17.55217c1.12878,2.30901 3.05168,4.90704 3.12242,8.11764c0,0 -0.00012,1.03665 -0.54944,1.03751c-0.54931,0.00086 -0.54919,-1.0358 -0.54919,-1.0358c0.08525,-2.13287 -2.06275,-5.13794 -2.83185,-6.71306c-2.94851,-6.03865 -6.33577,-10.98409 -8.92992,-17.67996c-1.4697,-3.32478 -3.30674,-7.94996 -5.22123,-10.29071l-0.31053,-1.15416c0,0 -0.1444,-0.99992 0.38558,-1.27349z" data-paper-data="{&quot;index&quot;:null}" fill="#000000" stroke="none" stroke-width="0.5" stroke-linecap="butt"/><path d="M520.40468,7.6101c0.06058,-0.28269 0.22459,-0.77777 0.61546,-0.63083c0.53861,0.20248 0.43076,1.21917 0.43076,1.21917l-0.26099,0.91377c-3.03037,3.81328 -6.02872,7.71029 -8.94254,11.88501c-1.58327,2.80463 -3.11161,6.04318 -4.83118,8.54157c-3.27511,4.75841 -7.25059,7.65094 -10.42077,12.68026c0,0 -0.42069,0.66742 -0.7739,-0.1258c-0.35321,-0.79324 0.06748,-1.46063 0.06748,-1.46063c3.185,-5.05285 7.16928,-7.95861 10.45755,-12.73616c1.70558,-2.47804 3.21967,-5.704 4.79226,-8.48232c2.88734,-4.14818 5.86255,-8.01381 8.86586,-11.80406z" data-paper-data="{&quot;index&quot;:null}" fill="#000000" stroke="none" stroke-width="0.5" stroke-linecap="butt"/><path d="M475.90957,80.29272c0,-0.31649 0.08742,-0.43265 0.15159,-0.47528c0.11923,-3.61988 0.10695,-7.2264 0.43396,-10.78504c0.2722,-2.96215 1.03298,-5.5087 1.5521,-8.24734c0.12096,-0.63701 0.62159,-4.07483 1.03941,-4.02782c0.42924,0.04829 0.57083,2.9317 0.68659,3.68155c0.55039,3.56506 1.69278,6.46437 2.29761,9.9851c1.10824,6.47525 3.03115,9.24642 6.04623,9.78647c2.89561,0.53857 5.58934,0.47822 8.46759,-0.78667c2.60774,-1.14576 5.76217,-1.6191 7.948,-5.29146c0.44156,-0.75861 0.90656,-1.49018 1.38421,-2.18581c0.05849,-0.94966 0.10758,-1.87614 0.15019,-2.76223c0,0 0.0241,-0.49694 0.24095,-0.44173c0.21685,0.05522 0.19276,0.55216 0.19276,0.55216c-0.03138,0.64159 -0.06607,1.30076 -0.10507,1.97214c0.45211,-0.62549 0.91212,-1.21716 1.3713,-1.76777c0.0012,-0.03212 0.00368,-0.06616 0.00761,-0.1022c0.05292,-0.48507 0.26459,-0.3638 0.26459,-0.3638l0.20799,1.02379c-0.64653,0.75218 -1.29868,1.59049 -1.93069,2.49415c-0.31328,4.7859 -0.86709,10.00287 -1.99699,13.81604c-1.74407,5.83181 -3.90211,10.68425 -6.88583,12.88511c-2.95352,1.44609 -5.97328,1.09768 -8.97461,1.41758c-3.01422,0.32128 -6.06587,0.65052 -8.89204,-2.27135c-2.78412,-3.90783 -3.81221,-10.42026 -3.53926,-17.65823c-0.0574,-0.05884 -0.11818,-0.18346 -0.11818,-0.44735zM478.31542,80.57061c1.07486,0.98531 2.04278,2.73278 3.10264,3.86193c2.49834,2.69606 5.18658,3.12375 7.85422,4.28373c2.79569,0.14077 5.61528,0.27119 8.37774,-0.36922c0.64554,-0.42727 1.29306,-0.30402 1.93642,-0.64572c1.61558,-0.85807 3.14181,-2.84304 4.78211,-3.42431c0.76813,-3.21854 1.19696,-7.2317 1.46164,-11.01159c-0.35636,0.53817 -0.70387,1.09617 -1.03764,1.67005c-2.24789,3.77679 -5.44443,4.29175 -8.12573,5.47032c-2.92151,1.28387 -5.64553,1.30979 -8.58393,0.8015c-3.17355,-0.57348 -5.24962,-3.58981 -6.41831,-10.41827c-0.50107,-2.93945 -1.43715,-5.39522 -2.0448,-8.20538c-0.17724,-0.81969 -0.2863,-1.88064 -0.41529,-2.74918c-0.04627,-0.31152 -0.13438,-0.86562 -0.18668,-1.32919c-0.16679,0.9375 -0.52567,2.44248 -0.57042,2.67851c-0.50677,2.66866 -1.26145,5.1673 -1.52522,8.05413c-0.32398,3.5457 -0.3086,7.14117 -0.42909,10.74908c0.4315,0.28481 1.35946,0.15929 1.82234,0.58361zM499.68671,88.67457c-0.65167,0.34132 -1.30263,0.23195 -1.9547,0.65467c-2.80715,0.63564 -5.6659,0.545 -8.5058,0.38144c-2.71983,-1.18866 -5.43928,-1.66336 -7.99268,-4.37196c-1.04078,-1.11774 -2.02047,-2.88819 -3.07807,-3.83772c-0.57298,-0.51442 -1.18202,-0.31162 -1.6977,-0.54837c-0.24405,6.76112 0.69406,12.90655 3.31293,16.56129c2.75482,2.83314 5.73399,2.46955 8.66808,2.15681c2.96908,-0.31647 5.96018,0.03678 8.8823,-1.38481c2.87977,-2.1337 4.95506,-6.85531 6.63846,-12.48428c0.03868,-0.12797 0.07665,-0.25778 0.11393,-0.38935c-1.4919,0.70307 -2.90285,2.48506 -4.38677,3.26227z" fill="#000000" stroke="none" stroke-width="0.5" stroke-linecap="butt"/><path d="M504.05192,85.4201c-0.03728,0.13157 -0.03212,0.24632 -0.07079,0.37429c-1.6834,5.62896 -3.76066,10.37968 -6.64042,12.51338c-2.92213,1.42158 -5.94177,1.09214 -8.91085,1.4086c-2.9341,0.31274 -5.92527,0.64487 -8.68009,-2.18827c-2.61887,-3.65474 -3.55696,-9.82869 -3.31291,-16.58981c0.51568,0.23675 1.1664,0.0636 1.73937,0.57803c1.0576,0.94953 2.03771,2.7166 3.07849,3.83434c2.5534,2.7086 5.23078,3.15692 7.9506,4.34558c2.83989,0.16357 5.69776,0.27181 8.50491,-0.36383c0.65206,-0.42272 1.30306,-0.3125 1.95473,-0.65382c1.48392,-0.77721 2.89507,-2.55541 4.38696,-3.25849z" data-paper-data="{&quot;noHover&quot;:false,&quot;origItem&quot;:[&quot;Path&quot;,{&quot;applyMatrix&quot;:true,&quot;segments&quot;:[[[298.99902,87.22739],[3.40058,-0.77721],[-1.49338,0.34132]],[[294.51959,87.88206],[1.49428,-0.42272],[-6.43293,0.63564]],[[275.02753,88.26349],[6.50796,0.16357],[-6.23281,-1.18866]],[[256.71134,83.89154],[5.85142,2.7086],[-2.38507,-1.11774]],[[249.65757,80.05381],[2.42361,0.94953],[-1.31304,-0.51442]],[[245.76708,79.50545],[1.18174,0.23675],[-0.55927,6.76112]],[[253.35906,96.06673],[-6.00147,-3.65474],[6.313,2.83314]],[[273.22302,98.22355],[-6.72384,0.31274],[6.804,-0.31647]],[[293.57789,96.83874],[-6.69641,1.42158],[6.59933,-2.1337]],[[308.79073,84.35447],[-3.85772,5.62896],[0.08863,-0.12797]],[[309.05182,83.96512],[-0.08544,0.13157],[-3.41887,0.70307]]],&quot;closed&quot;:true}]}" fill="#ffffff" stroke="none" stroke-width="0.5" stroke-linecap="butt"/><path d="M476.47164,79.99624c0.12049,-3.60791 0.10493,-7.21934 0.42891,-10.76505c0.26377,-2.88684 1.02002,-5.39844 1.52679,-8.0671c0.04475,-0.23603 0.40452,-1.74524 0.57131,-2.68274c0.05231,0.46357 0.17906,1.06413 0.22532,1.37565c0.12899,0.86854 0.2387,1.92627 0.41594,2.74597c0.60765,2.81016 1.54524,5.25316 2.04631,8.19261c1.16869,6.82846 3.23804,9.80172 6.41159,10.3752c2.9384,0.50829 5.62827,0.49533 8.54978,-0.78854c2.68131,-1.17857 5.87529,-1.672 8.12318,-5.44879c0.33376,-0.57388 0.72489,-1.13045 1.08125,-1.66863c-0.26467,3.77989 -0.69473,7.8102 -1.46286,11.02873c-1.6403,0.58126 -3.16947,2.5791 -4.78505,3.43716c-0.64336,0.3417 -1.293,0.22418 -1.93854,0.65145c-2.76247,0.64041 -5.60361,0.52292 -8.39931,0.38215c-2.66763,-1.15998 -5.3695,-1.61401 -7.86784,-4.31007c-1.05987,-1.12914 -2.02938,-2.88692 -3.10423,-3.87223c-0.46288,-0.42432 -1.39104,-0.30097 -1.82254,-0.58578z" data-paper-data="{&quot;noHover&quot;:false,&quot;origItem&quot;:[&quot;Path&quot;,{&quot;applyMatrix&quot;:true,&quot;segments&quot;:[[[250.02414,79.12343],[-1.06075,-0.42432],[2.46317,0.98531]],[[257.13422,82.98535],[-2.42882,-1.12914],[5.72525,2.69606]],[[275.13312,87.26908],[-6.11321,-1.15998],[6.40666,0.14077]],[[294.33173,86.89986],[-6.33052,0.64041],[1.47933,-0.42727]],[[298.76926,86.25414],[-1.47434,0.3417],[3.70229,-0.85807]],[[309.72804,82.82983],[-3.75895,0.58126],[1.76027,-3.21854]],[[313.07756,71.81824],[-0.60653,3.77989],[-0.81665,0.53817]],[[310.6997,73.48829],[0.76485,-0.57388],[-5.15132,3.77679]],[[292.0786,78.95861],[6.14453,-1.17857],[-6.69499,1.28387]],[[272.40749,79.76011],[6.73371,0.50829],[-7.27257,-0.57348]],[[257.69916,69.34184],[2.6782,6.82846],[-1.14825,-2.93945]],[[253.01326,61.13646],[1.39251,2.81016],[-0.40618,-0.81969]],[[252.06157,58.38729],[0.29561,0.86854],[-0.10603,-0.31152]],[[251.63375,57.05809],[0.11986,0.46357],[-0.38222,0.9375]],[[250.32658,59.7366],[0.10254,-0.23603],[-1.16132,2.66866]],[[246.83135,67.79074],[0.60447,-2.88684],[-0.74243,3.5457]],[[245.84804,78.53982],[0.27611,-3.60791],[0.98884,0.28481]]],&quot;closed&quot;:true}]}" fill="#ffffff" stroke="none" stroke-width="0.5" stroke-linecap="butt"/></g><path d="M619.5471,110.86789l1.51517,1.33561l2.19623,2.60561l2.0735,3.31425l0.06917,6.29967l-6.2415,-1.51887z" data-paper-data="{&quot;index&quot;:null}" fill="#000000" stroke="#000000" stroke-width="0" stroke-linecap="round"/></g><g fill-rule="nonzero" stroke="#000000" stroke-width="1"><path d="M444.17637,-56.20123l2.23018,13.33191l3.11287,19.40609l-13.15261,22.51512l-402.17732,332.83948l-19.45688,3.67928l-18.49184,-7.08231l-10.54544,-10.74147l7.9142,-11.85128l10.2575,9.76962l15.24196,1.93777l14.10148,-4.44499l388.03274,-321.54691l7.8634,-11.28489l5.08221,-12.10523l-1.15203,-15.80452z" fill="#00db64" stroke-linecap="round"/><path d="M374.83443,97.87575c-13.02786,-15.59456 -10.94716,-38.79761 4.64741,-51.82549c15.59457,-13.02786 38.79762,-10.94714 51.82549,4.64742c13.02787,15.59456 10.94716,38.79761 -4.64741,51.82548c-15.59456,13.02786 -38.79761,10.94716 -51.82549,-4.64741z" fill="#414141" stroke-linecap="butt"/><path d="M387.1782,87.56362c-7.33262,-8.77726 -6.1615,-21.83691 2.61577,-29.16954c8.77727,-7.33263 21.83691,-6.1615 29.16954,2.61576c7.33262,8.77726 6.16151,21.83692 -2.61576,29.16954c-8.77726,7.33262 -21.83691,6.1615 -29.16953,-2.61575z" fill="#cbcbcb" stroke-linecap="butt"/><path d="M87.01673,337.2738c-13.02786,-15.59456 -10.94715,-38.79762 4.64742,-51.82549c15.59457,-13.02786 38.79762,-10.94715 51.82548,4.64741c13.02786,15.59456 10.94716,38.79761 -4.64741,51.82549c-15.59457,13.02786 -38.79761,10.94716 -51.82548,-4.64741z" fill="#414141" stroke-linecap="butt"/><path d="M99.36057,326.96165c-7.33262,-8.77726 -6.1615,-21.83691 2.61576,-29.16954c8.77727,-7.33263 21.83691,-6.1615 29.16954,2.61577c7.33262,8.77726 6.16151,21.83692 -2.61576,29.16954c-8.77727,7.33263 -21.83691,6.1615 -29.16954,-2.61576z" fill="#cbcbcb" stroke-linecap="butt"/></g></g></g></svg>