<svg version="1.1" xmlns="http://www.w3.org/2000/svg" xmlns:xlink="http://www.w3.org/1999/xlink" width="1733.09309" height="836.33634" viewBox="0,0,1733.09309,836.33634"><g transform="translate(546.54655,238.16817)"><g data-paper-data="{&quot;isPaintingLayer&quot;:true}" stroke-linejoin="miter" stroke-miterlimit="10" stroke-dasharray="" stroke-dashoffset="0" style="mix-blend-mode: normal"><path d="M172.92396,88.75831c-0.4946,-0.07331 -0.42129,-0.5679 -0.42129,-0.5679l0.28966,-1.25798c0.27427,-0.25937 0.54854,-0.51874 0.82281,-0.7781c0.14773,-0.03824 0.28569,-0.0786 0.41461,-0.12109c0.02598,-0.18973 0.05263,-0.37889 0.08009,-0.56743c0.28367,-1.94812 0.48428,-4.45293 1.86443,-5.88204c0,0 0.34628,-0.34628 0.69614,-0.01074c0.01857,-0.10235 0.05265,-0.20026 0.1087,-0.29197c0.17884,-0.29263 0.7271,-0.15543 0.93583,-0.42756c0.20494,-0.26719 -0.06262,-0.74299 0.15745,-0.99785c0.45419,-0.52597 1.41076,-0.32238 1.93308,-0.78077c1.93287,-1.69635 4.23489,-2.35858 6.15584,-4.58292c0.57167,-0.2915 1.32966,-0.28872 1.77112,-0.75444c0.78715,-0.8304 0.26185,-3.1147 1.24265,-3.87471c0.6559,-0.50826 3.20541,-0.34222 4.12205,-0.59827c3.50231,-0.97828 6.81732,-2.6409 10.29834,-3.77587c6.71974,-1.77379 13.37803,-4.0008 19.65587,-7.03653c6.51614,-3.14876 12.64093,-5.75144 19.79164,-7.06717c6.9422,-1.27737 13.22682,-4.54799 20.17836,-5.51826c5.68903,-0.79405 12.5667,-3.12642 17.30118,-6.57348l0.48659,-0.6551c0.09087,-0.12523 0.23841,-0.20667 0.40496,-0.20667c0.27614,0 0.5,0.22386 0.5,0.5c0,0.01728 -0.00088,0.03436 -0.00259,0.05119l-0.08942,0.98974c-0.06527,0.69773 -0.21052,1.39239 -0.43028,2.05781c-2.21873,6.64261 -4.83404,13.09314 -6.92156,19.79957c-1.09623,3.52176 -0.90225,7.32008 -1.97423,10.78979c-0.97238,3.14735 -3.26161,5.87747 -4.30939,9.02654c-0.86789,2.59993 -1.82625,5.00607 -3.09424,7.44053c-0.68959,1.32398 -1.95029,2.86543 -2.33328,4.29914c-0.25032,0.93704 0.18584,2.06637 -0.08537,3.00817c-0.42309,1.46921 -1.79769,3.07796 -2.57855,4.39889c-1.05581,2.31506 -2.57059,4.75012 -3.28833,7.18646c-0.46612,1.5822 -0.22239,3.38417 -0.72263,4.95811c-0.80305,2.52668 -2.97365,4.52933 -3.66321,7.05772c-1.88815,6.77757 -2.24831,13.70952 -3.44882,20.62536c-1.19675,6.89414 -2.4373,13.78189 -3.53225,20.69296c-1.09537,6.91377 -2.19074,13.82753 -3.28612,20.7413c-1.08247,6.83236 -3.72325,13.63149 -5.66835,20.27144c-1.96917,6.72211 -4.34547,13.35181 -6.87446,19.88035c-2.51984,6.50491 -2.75651,13.59143 -3.15055,20.48975c-0.41585,7.2801 -2.03356,13.59794 -4.01813,20.60243c-1.80097,6.35649 -3.77311,13.83642 -3.78676,20.47648c-0.00244,0.66857 0.25362,2.81251 -0.15607,3.32416c-0.97683,1.21994 -3.68168,0.99985 -5.11481,0.99979c-4.35091,-0.00018 -8.7019,0.01721 -13.05222,-0.05986c-3.43255,-0.67147 -7.26902,-1.31988 -10.77484,-0.65659c-1.62427,0.30731 -3.13764,1.28505 -4.77175,1.54306c-1.6019,0.25292 -3.45389,0.00612 -5.07798,0.00612c-6.99996,0 -13.99992,-0.00142 -20.99988,0.00029c-7.03575,0.00171 -13.93515,0.78506 -20.94312,0.85299c-3.24216,0.03143 -6.84694,1.19985 -10.0055,0.69903c-3.78512,-0.60017 -6.80857,-1.5523 -10.71576,-1.5523c-7,0 -14,0 -21,0c-7,0 -14,0 -21,0c-6.99999,0 -13.99999,-0.00011 -20.99998,0.00017c-6.95744,0.00027 -14.01314,-0.29477 -20.94486,0.31224c-4.33725,0.37982 -8.65626,0.31682 -12.98623,0.61162c-2.71511,0.18486 -5.30213,0.76346 -8.03692,0.67569c-0.62251,-0.10469 -2.89307,-0.20562 -3.29023,-0.67568c-0.66024,-0.78143 -0.11807,-4.28677 -0.11815,-5.32266c-0.00032,-4.35998 -0.17406,-8.57952 -0.62367,-12.91649c-0.71653,-6.9117 -0.20917,-14.09125 -0.20878,-21.04093c0.0004,-7.12895 -0.50773,-14.00666 1.67556,-20.84535c0.04989,-7.46679 5.78311,-12.44318 11.24234,-16.92974c0.74748,-0.90584 1.65334,-2.51945 2.63739,-3.14697c1.13334,-0.72273 2.82432,-0.52409 4.0389,-0.84673c1.43231,-0.38047 1.81335,-1.89266 2.9777,-2.44854c1.10601,-0.52803 2.91778,0.04586 4.11756,-0.18671c1.50464,-0.29166 3.32662,-0.53406 4.76321,-1.02945c6.58472,-2.22544 14.02083,-1.30703 20.94961,-1.30694c7.02629,0.0025 14.00505,0.06078 21.01737,0.5123c6.9789,0.44937 13.96536,0.3216 20.95772,0.32423c7.01037,0.00263 13.9908,0.82888 20.9609,0.82853c2.66628,-0.00014 5.33261,0.00444 7.99887,-0.00169c1.00198,-0.0023 2.82554,0.33002 3.73259,-0.18668c2.2802,-1.29894 2.53516,-5.59035 3.74875,-7.73851c1.71929,-3.031 1.61799,-6.03344 2.22512,-9.41153c0.65433,-3.64067 1.81995,-7.17706 3.19128,-10.60658c2.59719,-6.49508 4.00319,-13.47004 6.8448,-19.85673c2.81494,-6.31825 5.14741,-13.36757 9.80911,-18.5154c3.49223,-6.2286 5.18782,-12.55514 6.61359,-19.54316c1.40588,-6.89054 3.26341,-13.60899 5.1361,-20.38622c0.88605,-3.19402 1.18394,-6.65387 1.59705,-9.99179c-0.12651,0.12864 -0.25302,0.25728 -0.37953,0.38592l0.00109,0.68893c0,0 -0.07331,0.4946 -0.5679,0.42129zM175.11747,85.4826c1.10128,-0.87626 0.76981,-2.24088 1.581,-4.11387c0.14318,-0.33059 0.06261,-0.71881 0.00176,-1.09882c-0.0115,0.01362 -0.01884,0.02095 -0.01884,0.02095c-1.17948,1.12627 -1.33607,3.55002 -1.56391,5.19173z" fill="#747474" fill-rule="nonzero" stroke="none" stroke-width="0.5" stroke-linecap="butt"/><path d="M434.58324,88.33702l0.00109,-0.68893c-0.12651,-0.12864 -0.25302,-0.25728 -0.37953,-0.38592c0.41311,3.33792 0.711,6.79778 1.59705,9.99179c1.87269,6.77723 3.73023,13.49568 5.1361,20.38622c1.42577,6.98802 3.12136,13.31456 6.61359,19.54316c4.6617,5.14783 6.99417,12.19715 9.80911,18.5154c2.84161,6.38669 4.24761,13.36165 6.8448,19.85673c1.37133,3.42952 2.53695,6.96591 3.19128,10.60658c0.60714,3.37809 0.50584,6.38053 2.22513,9.41153c1.21359,2.14816 1.46855,6.43957 3.74874,7.73851c0.90704,0.51671 2.73061,0.18438 3.73259,0.18668c2.66627,0.00612 5.3326,0.00155 7.99887,0.00169c6.9701,0.00035 13.95053,-0.8259 20.96091,-0.82853c6.99236,-0.00263 13.97883,0.12514 20.95772,-0.32423c7.01231,-0.45153 13.99108,-0.50981 21.01737,-0.5123c6.92878,-0.00009 14.3649,-0.9185 20.94961,1.30694c1.4366,0.49539 3.25857,0.73779 4.76321,1.02945c1.19979,0.23257 3.01156,-0.34132 4.11757,0.18671c1.16435,0.55588 1.54538,2.06807 2.97769,2.44854c1.21458,0.32264 2.90557,0.12401 4.03891,0.84673c0.98405,0.62752 1.8899,2.24113 2.63739,3.14697c5.45922,4.48656 11.19244,9.46295 11.24234,16.92974c2.1833,6.83869 1.67516,13.7164 1.67557,20.84535c0.00039,6.94968 0.50775,14.12923 -0.20878,21.04093c-0.44961,4.33697 -0.62336,8.55651 -0.62367,12.91649c-0.00008,1.03589 0.54209,4.54123 -0.11815,5.32266c-0.39715,0.47006 -2.66772,0.57099 -3.29023,0.67568c-2.73479,0.08777 -5.32181,-0.49083 -8.03692,-0.67569c-4.32997,-0.2948 -8.64898,-0.2318 -12.98623,-0.61162c-6.93172,-0.60701 -13.98742,-0.31196 -20.94486,-0.31224c-7,-0.00027 -13.99998,-0.00017 -20.99998,-0.00017c-7,0 -14,0 -21,0c-7,0 -14,0 -21,0c-3.90719,0 -6.93063,0.95214 -10.71576,1.5523c-3.15857,0.50082 -6.76334,-0.6676 -10.0055,-0.69903c-7.00797,-0.06793 -13.90737,-0.85127 -20.94312,-0.85299c-6.99996,-0.00171 -13.99992,-0.00029 -20.99988,-0.00029c-1.62409,0 -3.47607,0.2468 -5.07797,-0.00612c-1.63411,-0.25801 -3.14748,-1.23575 -4.77175,-1.54306c-3.50581,-0.6633 -7.3423,-0.01488 -10.77485,0.65659c-4.35032,0.07707 -8.70131,0.05968 -13.05222,0.05986c-1.43313,0.00006 -4.13799,0.22015 -5.11482,-0.99979c-0.40969,-0.51165 -0.15362,-2.65559 -0.15606,-3.32416c-0.01365,-6.64006 -1.98579,-14.11999 -3.78676,-20.47648c-1.98458,-7.00449 -3.60228,-13.32233 -4.01814,-20.60243c-0.39405,-6.89832 -0.63071,-13.98485 -3.15055,-20.48975c-2.52899,-6.52855 -4.9053,-13.15824 -6.87447,-19.88035c-1.9451,-6.63995 -4.58587,-13.43908 -5.66835,-20.27144c-1.09537,-6.91377 -2.19074,-13.82753 -3.28612,-20.7413c-1.09494,-6.91107 -2.33551,-13.79883 -3.53225,-20.69296c-1.20051,-6.91584 -1.56068,-13.84779 -3.44882,-20.62536c-0.68956,-2.52839 -2.86016,-4.53104 -3.66321,-7.05772c-0.50025,-1.57394 -0.25651,-3.37591 -0.72262,-4.95811c-0.71774,-2.43634 -2.23253,-4.8714 -3.28834,-7.18646c-0.78087,-1.32093 -2.15546,-2.92968 -2.57855,-4.39889c-0.27121,-0.9418 0.16495,-2.07114 -0.08537,-3.00817c-0.38299,-1.43371 -1.64369,-2.97516 -2.33328,-4.29914c-1.26799,-2.43446 -2.22635,-4.8406 -3.09423,-7.44053c-1.04778,-3.14907 -3.33701,-5.87919 -4.30939,-9.02654c-1.07198,-3.46972 -0.87801,-7.26803 -1.97423,-10.78979c-2.08752,-6.70643 -4.70282,-13.15696 -6.92155,-19.79957c-0.21976,-0.66542 -0.36502,-1.36009 -0.43029,-2.05781l-0.08942,-0.98974c-0.00171,-0.01683 -0.00259,-0.03391 -0.00259,-0.05119c0,-0.27614 0.22386,-0.5 0.5,-0.5c0.16656,0 0.3141,0.08143 0.40496,0.20667l0.48659,0.6551c4.73448,3.44706 11.61215,5.77943 17.30118,6.57348c6.95154,0.97027 13.23616,4.2409 20.17836,5.51826c7.15071,1.31573 13.2755,3.9184 19.79164,7.06717c6.27784,3.03573 12.93612,5.26275 19.65587,7.03653c3.48102,1.13496 6.79604,2.79758 10.29834,3.77587c0.91665,0.25605 3.46614,0.09001 4.12205,0.59827c0.9808,0.76002 0.45551,3.04431 1.24266,3.87471c0.44146,0.46572 1.19944,0.46294 1.77112,0.75444c1.92095,2.22434 4.22297,2.88657 6.15584,4.58292c0.52231,0.45839 1.47888,0.2548 1.93307,0.78077c0.22008,0.25486 -0.04748,0.73066 0.15746,0.99785c0.20873,0.27213 0.75698,0.13492 0.93583,0.42756c0.05605,0.0917 0.09013,0.18961 0.1087,0.29197c0.34986,-0.33554 0.69614,0.01074 0.69614,0.01074c1.38015,1.42911 1.58076,3.93393 1.86443,5.88204c0.02745,0.18854 0.0541,0.3777 0.08009,0.56743c0.12892,0.04248 0.26688,0.08285 0.41461,0.12109c0.27427,0.25937 0.54854,0.51874 0.82281,0.7781l0.28966,1.25798c0,0 0.07331,0.4946 -0.42129,0.5679c-0.4946,0.07331 -0.5679,-0.42129 -0.5679,-0.42129zM431.39373,80.29087c0,0 -0.00734,-0.00733 -0.01884,-0.02095c-0.06086,0.38001 -0.14141,0.76823 0.00176,1.09882c0.81118,1.87299 0.47971,3.2376 1.58099,4.11387c-0.22784,-1.64172 -0.38443,-4.06546 -1.56391,-5.19173z" data-paper-data="{&quot;index&quot;:null}" fill="#747474" fill-rule="nonzero" stroke="none" stroke-width="0.5" stroke-linecap="butt"/><path d="M-546.54655,598.16817v-836.33634h1733.09309v836.33634z" fill="none" fill-rule="nonzero" stroke="#f00000" stroke-width="0" stroke-linecap="butt"/><g><path d="M145.38915,33.22995l-8.11253,-5.70546l63.54692,-16.9577l52.98381,20.79173l-9.2704,4.36976l-43.68796,-15.68193z" data-paper-data="{&quot;index&quot;:null}" fill="#303c43" fill-rule="nonzero" stroke="#000000" stroke-width="0" stroke-linecap="round"/><path d="M365.56998,175.54785l2.95967,-99.88686l229.99839,28.36829l2.13909,61.84326z" data-paper-data="{&quot;index&quot;:null}" fill="#85c1da" fill-rule="nonzero" stroke="#000000" stroke-width="0" stroke-linecap="round"/><path d="M591.13802,166.18735l-50.08779,2.77246l0.39737,-61.20178c0,0 18.9711,-3.34002 27.7948,-2.02916c8.10211,1.20365 23.16748,9.60016 23.16748,9.60016l-0.30004,50.5442z" data-paper-data="{&quot;index&quot;:null}" fill="#01005e" fill-rule="nonzero" stroke="#000000" stroke-width="0" stroke-linecap="round"/><path d="M546.22495,168.1996l0.01837,-55.06855c0,0 15.50161,-2.21632 22.84382,-1.14016c6.15623,0.90231 18.28156,7.16791 18.28156,7.16791l-0.27203,47.47613z" data-paper-data="{&quot;index&quot;:null}" fill="#85c1da" fill-rule="nonzero" stroke="#000000" stroke-width="0" stroke-linecap="round"/><path d="M533.15038,168.18803l-59.52499,4.00106l-0.38774,-72.78621c0,0 21.66232,-3.87197 32.18349,-2.43582c9.63806,1.31562 28.52684,10.72283 28.52684,10.72283l0.35368,60.11095z" data-paper-data="{&quot;index&quot;:null}" fill="#01005e" fill-rule="nonzero" stroke="#000000" stroke-width="0" stroke-linecap="round"/><path d="M479.76842,171.21232l-0.75222,-65.48731c0,0 16.46424,-4.22017 24.69077,-3.11356c8.10177,1.08983 24.29989,9.70362 24.29989,9.70362l0.34385,56.46201z" data-paper-data="{&quot;index&quot;:null}" fill="#85c1da" fill-rule="nonzero" stroke="#000000" stroke-width="0" stroke-linecap="round"/><path d="M467.06108,171.05393l-70.41949,4.73336l-0.45872,-86.10783c0,0 27.40828,-3.62096 40.19454,-1.87563c10.8269,1.47788 31.62723,11.67936 31.62723,11.67936l0.41839,71.11269z" data-paper-data="{&quot;index&quot;:null}" fill="#01005e" fill-rule="nonzero" stroke="#000000" stroke-width="0" stroke-linecap="round"/><path d="M403.9089,174.63175l-0.88989,-77.47303c0,0 22.59506,-5.6333 32.85105,-4.25369c8.85722,1.19144 25.10609,12.04988 25.10609,12.04988l0.40678,66.79592z" data-paper-data="{&quot;index&quot;:null}" fill="#85c1da" fill-rule="nonzero" stroke="#000000" stroke-width="0" stroke-linecap="round"/><path d="M365.3268,176.08706l-158.61378,-10.23811l1.58467,-71.69394l160.11779,-18.00732z" data-paper-data="{&quot;index&quot;:null}" fill="#85c1da" fill-rule="nonzero" stroke="#000000" stroke-width="0" stroke-linecap="round"/><path d="M463.44087,87.91952l-1.74505,-61.41538l72.51962,14.86381l1.7258,54.25635z" data-paper-data="{&quot;index&quot;:null}" fill="#85c1da" fill-rule="nonzero" stroke="#000000" stroke-width="0" stroke-linecap="round"/><path d="M463.24179,87.32758l-56.10597,-6.76138l0.10881,-32.9815l54.25475,-20.68507z" data-paper-data="{&quot;index&quot;:null}" fill="#85c1da" fill-rule="nonzero" stroke="#000000" stroke-width="0" stroke-linecap="round"/><path d="M461.59933,27.34373l-9.46787,4.37029l-0.88183,-34.16379l42.08572,7.39155l0.46985,27.84513z" data-paper-data="{&quot;index&quot;:null}" fill="#85c1da" fill-rule="nonzero" stroke="#000000" stroke-width="0" stroke-linecap="round"/><path d="M407.1471,48.02933l-6.73381,-7.09161l60.96465,-22.48054l84.7687,16.55893l-12.62136,6.74867l-70.54297,-14.22727z" data-paper-data="{&quot;index&quot;:null}" fill="#303c43" fill-rule="nonzero" stroke="#000000" stroke-width="0" stroke-linecap="round"/><path d="M451.71098,22.23551l-8.09076,2.39166l-2.0365,-22.90363l9.6659,-4.17332z" data-paper-data="{&quot;index&quot;:null}" fill="#85c1da" fill-rule="nonzero" stroke="#000000" stroke-width="0" stroke-linecap="round"/><path d="M436.43622,-3.0024l13.4108,-6.94829l53.1468,7.9543l-9.26295,7.13463l-41.69073,-7.39262l-11.04727,4.57202z" data-paper-data="{&quot;index&quot;:null}" fill="#303c43" fill-rule="nonzero" stroke="#000000" stroke-width="0" stroke-linecap="round"/><path d="M449.55027,-10.14738l-13.2117,7.54023l5.73944,4.52689l1.64257,23.29967l-43.603,15.91661l7.12719,6.49808l-0.10987,32.5865l-37.92938,-4.04535l-24.68105,2.04128l1.44293,-50.95687l55.67181,-44.53605l0.0897,-40.09115l87.9949,22.87l0.42711,30.31392z" data-paper-data="{&quot;index&quot;:null}" fill="#85c1da" fill-rule="nonzero" stroke="#000000" stroke-width="0" stroke-linecap="round"/><path d="M345.5115,78.06574l-109.96733,13.33014l3.24744,-40.88962l107.57024,-23.44517z" data-paper-data="{&quot;index&quot;:null}" fill="#85c1da" fill-rule="nonzero" stroke="#000000" stroke-width="0" stroke-linecap="round"/><path d="M401.93279,-18.26467l-56.35865,46.16723l-107.66227,22.80357l-10.48506,-6.68654l115.66749,-23.41758l59.21735,-48.0017z" data-paper-data="{&quot;index&quot;:null}" fill="#303c43" fill-rule="nonzero" stroke="#000000" stroke-width="0" stroke-linecap="round"/><path d="M401.52049,-27.84193l-112.65414,42.36873l0.52397,-25.47791l112.84011,-46.66467z" data-paper-data="{&quot;index&quot;:null}" fill="#85c1da" fill-rule="nonzero" stroke="#000000" stroke-width="0" stroke-linecap="round"/><path d="M400.98085,-26.55678l-57.53934,47.75033l-115.66908,22.8251l62.08033,-29.8895l111.86471,-42.16911z" data-paper-data="{&quot;index&quot;:null}" fill="#d19090" fill-rule="nonzero" stroke="#000000" stroke-width="0" stroke-linecap="round"/><path d="M401.93656,-56.72628l-112.64407,46.12105l-15.61345,-4.30285l130.64066,-55.25408l94.86621,26.01141l-9.65104,9.70307z" data-paper-data="{&quot;index&quot;:null}" fill="#303c43" fill-rule="nonzero" stroke="#000000" stroke-width="0" stroke-linecap="round"/><path d="M227.57598,44.41417l11.07701,6.48746l-3.44598,40.49518l-36.92283,3.06164l2.56468,-74.46146l43.48993,15.48496z" data-paper-data="{&quot;index&quot;:null}" fill="#85c1da" fill-rule="nonzero" stroke="#000000" stroke-width="0" stroke-linecap="round"/><path d="M198.08299,93.07655l-55.88617,1.53271l3.38969,-61.42921l55.46041,-12.9861z" data-paper-data="{&quot;index&quot;:null}" fill="#85c1da" fill-rule="nonzero" stroke="#000000" stroke-width="0" stroke-linecap="round"/><path d="M150.09429,93.79805l3.01595,-53.5285c0,0 9.84448,-8.43791 15.34466,-9.40342c6.79273,-1.19245 22.35858,2.7848 22.35858,2.7848l-1.02405,59.84291z" data-paper-data="{&quot;index&quot;:null}" fill="#01005e" fill-rule="nonzero" stroke="#01005e" stroke-width="0" stroke-linecap="round"/><path d="M155.22882,93.69482l2.43409,-49.57709c0,0 6.70412,-7.97273 11.03377,-8.62045c4.98711,-0.74608 17.19626,4.39721 17.19626,4.39721l-2.02796,53.72334z" data-paper-data="{&quot;index&quot;:null}" fill="#2b3b41" fill-rule="nonzero" stroke="#000000" stroke-width="0" stroke-linecap="round"/><path d="M142.38369,90.65891l-28.43495,1.45891l2.43995,-47.4047l28.62289,-5.01426z" data-paper-data="{&quot;index&quot;:null}" fill="#85c1da" fill-rule="nonzero" stroke="#000000" stroke-width="0" stroke-linecap="round"/><path d="M116.38812,44.51561l-7.12508,-5.70811l36.5204,-5.82546l-0.17996,6.51772z" data-paper-data="{&quot;index&quot;:null}" fill="#303c43" fill-rule="nonzero" stroke="#000000" stroke-width="0" stroke-linecap="round"/><path d="M135.89403,27.47884l10.28386,5.30465l-36.522,5.233l7.52376,7.0895l-3.03574,46.17197l-16.38537,2.41397l-0.60522,-4.73818l2.72661,-87.69387l55.35637,21.77281z" data-paper-data="{&quot;index&quot;:null}" fill="#85c1da" fill-rule="nonzero" stroke="#000000" stroke-width="0" stroke-linecap="round"/><path d="M97.16359,92.7554l-68.5309,-0.40821l6.31623,-74.76778l64.73397,-16.17091z" data-paper-data="{&quot;index&quot;:null}" fill="#85c1da" fill-rule="nonzero" stroke="#000000" stroke-width="0" stroke-linecap="round"/><path d="M34.55403,17.62983l-12.06659,-7.27477l78.94375,-19.76397l62.29139,30.24633l-9.27623,2.19736l-55.35582,-21.57533z" data-paper-data="{&quot;index&quot;:null}" fill="#303c43" fill-rule="nonzero" stroke="#000000" stroke-width="0" stroke-linecap="round"/><path d="M206.56969,164.49654l-38.09608,7.40964l-48.04708,-57.73604l-118.0135,-4.42252l27.20806,-17.05748l67.54134,-0.37909l2.17612,1.37659l13.82011,-1.61709l29.02637,-1.85547l0.01115,4.1473l56.87364,-1.53535l-1.1791,2.17558l9.67173,-2.00092z" data-paper-data="{&quot;index&quot;:null}" fill="#794a45" fill-rule="nonzero" stroke="#000000" stroke-width="0" stroke-linecap="round"/><path d="M183.64513,93.23416l-20.37174,0.17824l2.10574,-43.40464c0,0 6.82939,-6.65275 10.43617,-7.19374c2.97755,-0.4466 9.68098,4.17641 9.68098,4.17641z" data-paper-data="{&quot;index&quot;:null}" fill="#720b00" fill-rule="nonzero" stroke="#000000" stroke-width="0" stroke-linecap="round"/><path d="M130.83153,44.02189c2.89314,-0.51431 10.56514,2.11953 10.56514,2.11953l-1.65907,26.04903l-19.98821,1.67478l2.95965,-24.64764c0,0 5.25494,-4.68592 8.12249,-5.1957z" data-paper-data="{&quot;index&quot;:null}" fill="#01005e" fill-rule="nonzero" stroke="#000000" stroke-width="0" stroke-linecap="round"/><path d="M136.703,68.95652l-13.39752,1.1167l2.3284,-18.26988c0,0 3.4746,-4.41113 5.40521,-4.77044c2.31856,-0.43151 7.55655,2.35806 7.55655,2.35806z" data-paper-data="{&quot;index&quot;:null}" fill="#baaa1d" fill-rule="nonzero" stroke="#000000" stroke-width="0" stroke-linecap="round"/><path d="M40.23535,93.04507l4.15267,-63.25842c0,0 10.13935,-10.89251 16.59191,-12.09888c7.58533,-1.41814 26.07381,4.12216 26.07381,4.12216l-2.07926,70.7366z" data-paper-data="{&quot;index&quot;:null}" fill="#01005e" fill-rule="nonzero" stroke="#000000" stroke-width="0" stroke-linecap="round"/><path d="M80.54514,93.09881l-35.44893,-0.87732l3.19436,-57.93345c0,0 9.56012,-10.95649 14.59401,-11.84168c6.02193,-1.05894 19.10752,5.91537 19.10752,5.91537l-2.20535,64.03667z" data-paper-data="{&quot;index&quot;:null}" fill="#baaa1d" fill-rule="nonzero" stroke="#000000" stroke-width="0" stroke-linecap="round"/><path d="M387.08676,74.68643l0.74977,-42.68918c0,0 4.35206,-2.15711 6.29442,-1.72692c1.91399,0.4239 5.27584,4.28947 5.27584,4.28947l-0.2132,41.28284z" data-paper-data="{&quot;index&quot;:null}" fill="#01005e" fill-rule="nonzero" stroke="#000000" stroke-width="0" stroke-linecap="round"/><path d="M389.88926,71.97716l0.55021,-36.52871c0,0 2.16735,-1.62488 3.30471,-1.41141c1.13322,0.2127 3.50705,2.68993 3.50705,2.68993l-0.11908,36.09528z" data-paper-data="{&quot;index&quot;:null}" fill="#baaa1d" fill-rule="nonzero" stroke="#000000" stroke-width="0" stroke-linecap="round"/><path d="M372.38341,72.45651l0.74977,-42.68918c0,0 4.35205,-2.15711 6.29442,-1.72692c1.91399,0.4239 5.27584,4.28947 5.27584,4.28947l-0.2132,41.28284z" data-paper-data="{&quot;index&quot;:null}" fill="#01005e" fill-rule="nonzero" stroke="#000000" stroke-width="0" stroke-linecap="round"/><path d="M375.18592,69.74725l0.55021,-36.52872c0,0 2.16735,-1.62489 3.30472,-1.41142c1.13322,0.2127 3.50705,2.68994 3.50705,2.68994l-0.1191,36.09529z" data-paper-data="{&quot;index&quot;:null}" fill="#baaa1d" fill-rule="nonzero" stroke="#000000" stroke-width="0" stroke-linecap="round"/><path d="M357.03224,70.44449l0.74977,-42.68918c0,0 4.35206,-2.15711 6.29442,-1.72692c1.91399,0.4239 5.27583,4.28947 5.27583,4.28947l-0.21321,41.28285z" data-paper-data="{&quot;index&quot;:null}" fill="#01005e" fill-rule="nonzero" stroke="#000000" stroke-width="0" stroke-linecap="round"/><path d="M359.83474,67.73522l0.55021,-36.52873c0,0 2.16735,-1.62489 3.30472,-1.41141c1.13322,0.2127 3.50705,2.68993 3.50705,2.68993l-0.1191,36.0953z" data-paper-data="{&quot;index&quot;:null}" fill="#baaa1d" fill-rule="nonzero" stroke="#baaa1d" stroke-width="0" stroke-linecap="round"/><path d="M415.58098,81.41815l-0.08484,-31.55584c0,0 10.2244,-7.94799 15.64447,-9.88795c5.94045,-2.12622 18.5804,-2.36181 18.5804,-2.36181l0.67109,48.62916z" data-paper-data="{&quot;index&quot;:null}" fill="#01005e" fill-rule="nonzero" stroke="#000000" stroke-width="0" stroke-linecap="round"/><path d="M420.44592,82.10751l-0.72949,-30.14922c0,0 7.27474,-7.51064 11.46661,-9.06044c4.4317,-1.63849 14.44416,-0.51926 14.44416,-0.51926l0.54993,43.76637z" data-paper-data="{&quot;index&quot;:null}" fill="#baaa1d" fill-rule="nonzero" stroke="#000000" stroke-width="0" stroke-linecap="round"/><path d="M487.66092,79.73841l-0.3208,-38.93092l25.62694,5.4426l1.37302,38.38774z" data-paper-data="{&quot;index&quot;:null}" fill="#baaa1d" fill-rule="nonzero" stroke="#000000" stroke-width="0" stroke-linecap="round"/><path d="M512.75026,46.00752l9.30141,2.78477l2.26087,37.00748l-10.27109,-1.70148z" data-paper-data="{&quot;index&quot;:null}" fill="#01005e" fill-rule="nonzero" stroke="#01005e" stroke-width="0" stroke-linecap="round"/><path d="M487.98528,79.79156l-12.11001,-2.34497l-0.53861,-39.55173l11.89589,3.10201z" data-paper-data="{&quot;index&quot;:null}" fill="#01005e" fill-rule="nonzero" stroke="#000000" stroke-width="0" stroke-linecap="round"/><path d="M354.80843,-14.0323l0.48456,-20.7505l14.24783,-6.41437l0.27279,21.07268z" data-paper-data="{&quot;index&quot;:null}" fill="#baaa1d" fill-rule="nonzero" stroke="#000000" stroke-width="0" stroke-linecap="round"/><path d="M347.14317,-11.20191l0.16063,-20.64156l7.77161,-3.4791l0.16442,20.96489z" data-paper-data="{&quot;index&quot;:null}" fill="#01005e" fill-rule="nonzero" stroke="#000000" stroke-width="0" stroke-linecap="round"/><path d="M369.59746,-20.12392l0.16064,-20.64156l7.7716,-3.47911l0.16443,20.96491z" data-paper-data="{&quot;index&quot;:null}" fill="#01005e" fill-rule="nonzero" stroke="#000000" stroke-width="0" stroke-linecap="round"/><path d="M309.60181,3.51533l0.48456,-20.75051l14.24783,-6.41436l0.27279,21.07267z" data-paper-data="{&quot;index&quot;:null}" fill="#baaa1d" fill-rule="nonzero" stroke="#000000" stroke-width="0" stroke-linecap="round"/><path d="M301.93653,6.34572l0.16063,-20.64156l7.77161,-3.4791l0.16443,20.96491z" data-paper-data="{&quot;index&quot;:null}" fill="#01005e" fill-rule="nonzero" stroke="#000000" stroke-width="0" stroke-linecap="round"/><path d="M324.39085,-2.57628l0.16064,-20.64156l7.77159,-3.47911l0.16444,20.96491z" data-paper-data="{&quot;index&quot;:null}" fill="#01005e" fill-rule="nonzero" stroke="#000000" stroke-width="0" stroke-linecap="round"/><path d="M434.07677,26.11827l-18.05055,-1.14022l0.68906,-25.0738c0,0 5.46161,-2.9211 8.239,-2.41904c2.91072,0.52615 8.84416,5.5071 8.84416,5.5071l0.05899,21.9378z" data-paper-data="{&quot;index&quot;:null}" fill="#01005e" fill-rule="nonzero" stroke="#000000" stroke-width="0" stroke-linecap="round"/><path d="M419.36762,21.72699l0.59959,-18.15717c0,0 3.24757,-3.05744 5.07664,-2.74286c1.88151,0.32361 6.05958,4.65816 6.05958,4.65816l0.04823,17.9393z" data-paper-data="{&quot;index&quot;:null}" fill="#baaa1d" fill-rule="nonzero" stroke="#000000" stroke-width="0" stroke-linecap="round"/><path d="M462.69445,18.47651l-0.25361,-13.9402c0,0 8.2696,-2.45144 12.6803,-1.66352c3.54261,0.63285 11.75495,6.02863 11.75495,6.02863l0.36344,14.5883z" data-paper-data="{&quot;index&quot;:null}" fill="#01005e" fill-rule="nonzero" stroke="#000000" stroke-width="0" stroke-linecap="round"/><path d="M465.93793,19.00812l-0.24606,-11.13041c0,0 6.19168,-2.62401 9.26435,-1.9663c2.90068,0.6209 8.68539,5.80853 8.68539,5.80853l0.4622,11.12984z" data-paper-data="{&quot;index&quot;:null}" fill="#baaa1d" fill-rule="nonzero" stroke="#000000" stroke-width="0" stroke-linecap="round"/><path d="M165.1312,50.15719l2.37082,-2.49196l4.01937,-2.30727l4.09989,-2.49662l1.08046,-0.08396l-0.9444,50.68679l-12.3186,0.46541z" data-paper-data="{&quot;index&quot;:null}" fill="#720b00" fill-rule="nonzero" stroke="#000000" stroke-width="0" stroke-linecap="round"/><path d="M173.9707,72.0714l-7.23823,0.88401l1.02286,-21.50844l6.90356,-4.77358z" data-paper-data="{&quot;index&quot;:null}" fill="#baaa1d" fill-rule="nonzero" stroke="#000000" stroke-width="0" stroke-linecap="round"/><path d="M179.63117,47.09229l5.41009,2.47104l-0.5871,22.80408l-5.83508,0.23183z" data-paper-data="{&quot;index&quot;:null}" fill="#baaa1d" fill-rule="nonzero" stroke="#000000" stroke-width="0" stroke-linecap="round"/><path d="M407.21893,115.50543l0.06295,-15.82434l8.43213,-2.76553l8.64596,-1.71116l6.43426,-0.33379l-0.79431,18.46365z" data-paper-data="{&quot;index&quot;:null}" fill="#000000" fill-rule="nonzero" stroke="#000000" stroke-width="0" stroke-linecap="round"/><path d="M437.75908,95.69584l5.17458,1.99049l7.50054,3.88313l7.08141,4.9392l0.23622,9.38837l-21.31597,-2.26357z" data-paper-data="{&quot;index&quot;:null}" fill="#000000" fill-rule="nonzero" stroke="#000000" stroke-width="0" stroke-linecap="round"/><path d="M481.9124,122.55417l0.05388,-13.54574l7.21796,-2.36731l7.40099,-1.46475l5.50778,-0.28572l-0.67994,15.80502z" data-paper-data="{&quot;index&quot;:null}" fill="#000000" fill-rule="nonzero" stroke="#000000" stroke-width="0" stroke-linecap="round"/><path d="M508.05496,105.59705l4.42947,1.70386l6.42052,3.32398l6.06173,4.22799l0.20222,8.0365l-18.24662,-1.93762z" data-paper-data="{&quot;index&quot;:null}" fill="#000000" fill-rule="nonzero" stroke="#000000" stroke-width="0" stroke-linecap="round"/><path d="M550.13691,127.42657l0.04224,-10.61823l5.65802,-1.85569l5.80148,-1.14821l4.31744,-0.22399l-0.53299,12.38925z" data-paper-data="{&quot;index&quot;:null}" fill="#000000" fill-rule="nonzero" stroke="#000000" stroke-width="0" stroke-linecap="round"/><path d="M570.62955,114.1342l3.47219,1.33561l5.03292,2.60561l4.75167,3.31425l0.15852,6.29967l-14.30315,-1.51887z" data-paper-data="{&quot;index&quot;:null}" fill="#000000" fill-rule="nonzero" stroke="#000000" stroke-width="0" stroke-linecap="round"/><path d="M263.20091,51.67528c0.8196,0.38519 1.29386,-0.29131 1.29386,-0.29131c0.40087,-0.9128 3.23414,-0.30545 4.28915,-0.37785c1.96814,-0.13511 6.5256,-0.51588 8.47312,0.54158c1.62486,0.88226 2.51129,4.93966 2.8193,6.49776c-0.12101,5.15415 -0.98094,9.05502 -4.85027,13.18759c-1.45132,1.55004 -2.34131,3.33195 -4.72039,4.07711c-2.92991,0.9177 -7.51561,0.46777 -10.48786,0.02007c-3.15488,-0.47242 -3.85449,-1.55928 -5.01476,-3.89896c-2.73163,-5.50834 1.84891,-11.95488 5.07214,-16.93344c0.80003,-1.24314 1.73928,-2.15385 2.7937,-3.05675c0.07446,0.08391 0.18219,0.16378 0.33204,0.23421z" data-paper-data="{&quot;noHover&quot;:false,&quot;origItem&quot;:[&quot;Path&quot;,{&quot;applyMatrix&quot;:true,&quot;segments&quot;:[[[198.44065,130.34663],[0.07391,0.06781],[-0.65049,1.01764]],[[196.85501,133.66229],[0.38783,-1.29998],[-1.56825,5.20919]],[[196.10629,150.39263],[-3.17154,-4.78632],[1.34712,2.033]],[[200.73291,153.29281],[-2.54745,0.04268],[2.40048,-0.0377]],[[208.86748,151.64902],[-2.10888,1.32263],[1.7124,-1.07397]],[[211.75454,147.07391],[-0.83713,1.69132],[2.23187,-4.50925]],[[213.03393,133.90973],[0.88194,4.89393],[-0.53508,-1.42595]],[[209.62627,128.21675],[1.43304,0.58239],[-1.71761,-0.69805]],[[202.9475,129.02331],[1.5078,-0.43318],[-0.80822,0.23219]],[[199.69167,130.04267],[0.13943,-0.92558],[0,0]],[[198.74299,130.51701],[0.71151,0.23717],[-0.13007,-0.04336]]],&quot;closed&quot;:true}],&quot;index&quot;:null}" fill="#ffffff" fill-rule="nonzero" stroke="#000000" stroke-width="1.5" stroke-linecap="butt"/><path d="M299.80356,46.30438c1.25157,-0.17178 2.404,-0.74222 3.65185,-0.93147c7.19047,-1.09045 8.4727,1.83983 11.96854,6.04758c-0.26096,6.94428 -2.55835,18.18135 -13.50681,18.39538c-1.2028,0.02352 -2.91482,-0.49797 -4.12086,-0.6958c-4.9866,-0.818 -9.46164,-5.50355 -9.52923,-9.94091c-0.05554,-3.64785 2.40373,-7.23397 4.94358,-9.91519c0.18696,-0.34704 0.46515,-0.67901 0.79856,-0.95163c0.62196,0.02699 0.85212,-0.40022 0.91637,-0.56659l0.79631,-0.43725c0,0 0.42789,-0.23468 0.44458,-0.61534c1.15269,-0.3094 2.83949,-0.27934 3.63707,-0.38881z" data-paper-data="{&quot;noHover&quot;:false,&quot;origItem&quot;:[&quot;Path&quot;,{&quot;applyMatrix&quot;:true,&quot;segments&quot;:[[[223.48817,120.68639],[0.83946,-0.4715],[0.05909,0.36267]],[223.26049,121.33583],[[222.72568,121.87064],[0,0],[-0.01855,0.16733]],[[222.12213,122.54569],[0.48968,-0.07096],[-0.20813,0.30959]],[[221.68358,123.56571],[0.07992,-0.35726],[-1.47095,2.93017]],[[219.71637,133.66232],[-0.7342,-3.44177],[0.89311,4.18667]],[[228.98016,141.5555],[-4.03999,0],[0.97709,0]],[[232.30889,141.57531],[-0.93264,0.20887],[8.48942,-1.90123]],[[239.31891,122.15939],[1.11198,6.60888],[-3.52059,-3.43757]],[[228.89188,118.3155],[5.39556,-2.14708],[-0.93636,0.37261]],[[226.23619,119.76044],[0.94255,-0.35667],[-0.60067,0.2273]]],&quot;closed&quot;:true}],&quot;index&quot;:null}" fill="#ffffff" fill-rule="nonzero" stroke="#000000" stroke-width="1.5" stroke-linecap="butt"/><path d="M273.3013,61.3192c0.273,-1.12298 1.59958,-1.85207 2.96296,-1.62842c1.36338,0.22366 2.2473,1.31531 1.97429,2.43832c-0.27301,1.12298 -1.59958,1.85205 -2.96295,1.62841c-1.36338,-0.22366 -2.24732,-1.31532 -1.97431,-2.43832z" data-paper-data="{&quot;index&quot;:null}" fill="#000000" fill-rule="nonzero" stroke="none" stroke-width="0.5" stroke-linecap="butt"/><path d="M308.49804,55.84437c0.27301,-1.12298 1.59958,-1.85208 2.96295,-1.62843c1.36338,0.22366 2.24729,1.31532 1.97429,2.43833c-0.27301,1.12298 -1.59958,1.85207 -2.96296,1.62842c-1.36338,-0.22366 -2.24729,-1.31532 -1.97429,-2.43833z" data-paper-data="{&quot;index&quot;:null}" fill="#000000" fill-rule="nonzero" stroke="none" stroke-width="0.5" stroke-linecap="butt"/><path d="M239.96116,10.33227c1.21451,-0.27357 1.54548,0.72632 1.54548,0.72632l-0.34165,-0.03623c4.6357,2.4992 8.99868,7.23216 12.57289,10.74978c5.90688,6.64594 13.61658,11.5577 20.3321,17.55217c2.58675,2.30901 6.99329,4.90704 7.15541,8.11764c0,0 -0.00027,1.03665 -1.25911,1.03751c-1.2588,0.00086 -1.25853,-1.0358 -1.25853,-1.0358c0.19537,-2.13287 -4.72704,-5.13794 -6.48951,-6.71306c-6.75687,-6.03865 -14.51919,-10.98409 -20.46399,-17.67996c-3.368,-3.32478 -7.57779,-7.94996 -11.96509,-10.29071l-0.71162,-1.15416c0,0 -0.33092,-0.99992 0.8836,-1.27349z" data-paper-data="{&quot;index&quot;:null}" fill="#000000" fill-rule="nonzero" stroke="none" stroke-width="0.5" stroke-linecap="butt"/><path d="M343.43278,10.87641c0.13882,-0.28269 0.51468,-0.77777 1.41039,-0.63083c1.2343,0.20248 0.98714,1.21917 0.98714,1.21917l-0.59809,0.91377c-6.94446,3.81328 -13.81554,7.71029 -20.49291,11.88501c-3.62824,2.80463 -7.13062,6.04318 -11.07124,8.54157c-7.50531,4.75841 -16.6156,7.65094 -23.88044,12.68026c0,0 -0.96406,0.66742 -1.77349,-0.1258c-0.80942,-0.79324 0.15464,-1.46063 0.15464,-1.46063c7.2988,-5.05285 16.42928,-7.95861 23.96474,-12.73616c3.90853,-2.47804 7.37826,-5.704 10.98205,-8.48232c6.61667,-4.14818 13.43474,-8.01381 20.31719,-11.80406z" data-paper-data="{&quot;index&quot;:null}" fill="#000000" fill-rule="nonzero" stroke="none" stroke-width="0.5" stroke-linecap="butt"/><path d="M216.79766,184.07174c2.19657,0.45455 4.39292,0.90906 6.58951,1.36362c-0.17134,1.19552 -0.48234,2.31594 -0.93255,3.36135c0.21945,-1.06045 0.43885,-2.12068 0.6583,-3.18114c-2.17742,-0.37311 -4.28243,-0.88762 -6.31525,-1.54383z" data-paper-data="{&quot;index&quot;:null}" fill="#74140b" fill-rule="evenodd" stroke="none" stroke-width="1" stroke-linecap="butt"/><path d="M263.61311,106.3579c-0.48507,0.12127 -0.60634,-0.3638 -0.60634,-0.3638l-0.1103,-0.442c-1.34661,-6.10358 -3.06186,-13.79096 -2.29108,-20.03608c0.95642,-7.65136 6.19271,-12.0805 13.35217,-13.94106c6.48084,-1.54324 13.06624,-2.72741 19.74009,-2.72741c6.24131,0.0041 13.34393,1.35383 19.01801,4.12009c6.25249,2.49855 9.00968,9.49639 9.00968,15.90947c0,4.89137 1.16942,12.19392 -1.46846,16.51093c0,0 -0.265,0.424 -0.689,0.159c-0.424,-0.265 -0.159,-0.689 -0.159,-0.689c2.56173,-3.98725 1.31646,-11.41128 1.31646,-15.98093c0,-6.03435 -2.52911,-12.6387 -8.4146,-14.99511c-5.55946,-2.70584 -12.49846,-4.03043 -18.61341,-4.03445c-6.59371,0 -13.09492,1.17338 -19.49818,2.69779c-6.76331,1.75799 -11.69623,5.8526 -12.60149,13.09472c-0.77528,6.11648 0.95704,13.72138 2.27533,19.69661l0.10392,0.41491c0,0 0.12127,0.48506 -0.3638,0.60634z" fill="#000000" fill-rule="nonzero" stroke="none" stroke-width="0.5" stroke-linecap="butt"/></g></g></g></svg>