<svg version="1.1" xmlns="http://www.w3.org/2000/svg" xmlns:xlink="http://www.w3.org/1999/xlink" width="1733.09309" height="836.33634" viewBox="0,0,1733.09309,836.33634"><g transform="translate(546.54655,238.16817)"><g data-paper-data="{&quot;isPaintingLayer&quot;:true}" stroke-linejoin="miter" stroke-miterlimit="10" stroke-dasharray="" stroke-dashoffset="0" style="mix-blend-mode: normal"><path d="M-546.54655,598.16817v-836.33634h1733.09309v836.33634z" fill="none" fill-rule="nonzero" stroke="#f00000" stroke-width="0" stroke-linecap="butt"/><path d="M219.84164,179.35825c2.19657,0.45455 4.39292,0.90906 6.58951,1.36362c-0.17134,1.19552 -0.48234,2.31594 -0.93255,3.36135c0.21945,-1.06045 0.43885,-2.12068 0.6583,-3.18114c-2.17742,-0.37311 -4.28243,-0.88762 -6.31525,-1.54383z" data-paper-data="{&quot;index&quot;:null}" fill="#74140b" fill-rule="evenodd" stroke="none" stroke-width="1" stroke-linecap="butt"/><g fill-rule="nonzero"><g><path d="M616.47501,94.17507c-0.04716,-0.07331 -0.04017,-0.5679 -0.04017,-0.5679l0.02762,-1.25798c0.02615,-0.25937 0.0523,-0.51874 0.07845,-0.7781c0.01408,-0.03824 0.02724,-0.0786 0.03953,-0.12109c0.00248,-0.18973 0.00502,-0.37889 0.00764,-0.56743c0.02704,-1.94812 0.04617,-4.45293 0.17776,-5.88204c0,0 0.03301,-0.34628 0.06637,-0.01074c0.00177,-0.10235 0.00502,-0.20026 0.01036,-0.29197c0.01705,-0.29263 0.06932,-0.15543 0.08922,-0.42756c0.01954,-0.26719 -0.00597,-0.74299 0.01501,-0.99785c0.0433,-0.52597 0.1345,-0.32238 0.1843,-0.78077c0.18428,-1.69635 0.40376,-2.35858 0.58691,-4.58292c0.0545,-0.2915 0.12677,-0.28872 0.16886,-0.75444c0.07505,-0.8304 0.02497,-3.1147 0.11848,-3.87471c0.06254,-0.50826 0.30561,-0.34222 0.393,-0.59827c0.33391,-0.97828 0.64997,-2.6409 0.98186,-3.77587c0.64067,-1.77379 1.27548,-4.0008 1.87402,-7.03653c0.62126,-3.14876 1.20521,-5.75144 1.88697,-7.06717c0.66188,-1.27737 1.26107,-4.54799 1.92384,-5.51826c0.5424,-0.79405 1.19813,-3.12642 1.64952,-6.57348l0.04639,-0.6551c0.00866,-0.12523 0.02273,-0.20667 0.03861,-0.20667c0.02633,0 0.04767,0.22386 0.04767,0.5c0,0.01728 -0.00009,0.03436 -0.00025,0.05119l-0.00853,0.98974c-0.00622,0.69773 -0.02007,1.39239 -0.04103,2.05781c-0.21154,6.64261 -0.46088,13.09314 -0.65991,19.79957c-0.10452,3.52176 -0.08602,7.32008 -0.18823,10.78979c-0.09271,3.14735 -0.31097,5.87747 -0.41086,9.02654c-0.08274,2.59993 -0.17412,5.00607 -0.29501,7.44053c-0.06575,1.32398 -0.18594,2.86543 -0.22246,4.29914c-0.02386,0.93704 0.01772,2.06637 -0.00814,3.00817c-0.04034,1.46921 -0.17139,3.07796 -0.24584,4.39889c-0.10066,2.31506 -0.24508,4.75012 -0.31352,7.18646c-0.04444,1.5822 -0.0212,3.38417 -0.0689,4.95811c-0.07656,2.52668 -0.28351,4.52933 -0.34926,7.05772c-0.18002,6.77757 -0.21436,13.70952 -0.32882,20.62536c-0.1141,6.89414 -0.23238,13.78189 -0.33677,20.69296c-0.10443,6.91377 -0.20887,13.82753 -0.3133,20.7413c-0.10321,6.83236 -0.35498,13.63149 -0.54043,20.27144c-0.18774,6.72211 -0.4143,13.35181 -0.65542,19.88035c-0.24024,6.50491 -0.26281,13.59143 -0.30038,20.48975c-0.03965,7.2801 -0.19388,13.59794 -0.38309,20.60243c-0.17171,6.35649 -0.35973,13.83642 -0.36104,20.47648c-0.00023,0.66857 0.02418,2.81251 -0.01488,3.32416c-0.09313,1.21994 -0.35102,0.99985 -0.48765,0.99979c-0.41482,-0.00018 -0.82965,0.01721 -1.24442,-0.05986c-0.32727,-0.67147 -0.69304,-1.31988 -1.02729,-0.65659c-0.15486,0.30731 -0.29915,1.28505 -0.45495,1.54306c-0.15273,0.25292 -0.3293,0.00612 -0.48414,0.00612c-0.66739,0 -1.33477,-0.00142 -2.00216,0.00029c-0.6708,0.00171 -1.3286,0.78506 -1.99675,0.85299c-0.30911,0.03143 -0.6528,1.19985 -0.95394,0.69903c-0.36088,-0.60017 -0.64914,-1.5523 -1.02166,-1.5523c-0.66739,0 -1.33478,0 -2.00217,0c-0.66739,0 -1.33478,0 -2.00217,0c-0.66739,0 -1.33478,-0.00011 -2.00217,0.00017c-0.66333,0.00027 -1.33603,-0.29477 -1.99691,0.31224c-0.41352,0.37982 -0.8253,0.31682 -1.23813,0.61162c-0.25886,0.18486 -0.50551,0.76346 -0.76625,0.67569c-0.05935,-0.10469 -0.27583,-0.20562 -0.3137,-0.67568c-0.06295,-0.78143 -0.01126,-4.28677 -0.01126,-5.32266c-0.00003,-4.35998 -0.01659,-8.57952 -0.05946,-12.91649c-0.06831,-6.9117 -0.01994,-14.09125 -0.01991,-21.04093c0.00004,-7.12895 -0.04841,-14.00666 0.15975,-20.84535c0.00476,-7.46679 0.55137,-12.44318 1.07186,-16.92974c0.07127,-0.90584 0.15763,-2.51945 0.25145,-3.14697c0.10805,-0.72273 0.26928,-0.52409 0.38508,-0.84673c0.13656,-0.38047 0.17289,-1.89266 0.2839,-2.44854c0.10545,-0.52803 0.27819,0.04586 0.39257,-0.18671c0.14346,-0.29166 0.31717,-0.53406 0.45413,-1.02945c0.6278,-2.22544 1.33677,-1.30703 1.99737,-1.30694c0.6699,0.0025 1.33526,0.06078 2.00383,0.5123c0.66538,0.44937 1.33148,0.3216 1.99814,0.32423c0.66838,0.00263 1.33391,0.82888 1.99845,0.82853c0.25421,-0.00014 0.50842,0.00444 0.76263,-0.00169c0.09553,-0.0023 0.26939,0.33002 0.35587,-0.18668c0.2174,-1.29894 0.2417,-5.59035 0.35741,-7.73851c0.16392,-3.031 0.15426,-6.03344 0.21215,-9.41153c0.06238,-3.64067 0.17352,-7.17706 0.30426,-10.60658c0.24762,-6.49508 0.38167,-13.47004 0.65259,-19.85673c0.26838,-6.31825 0.49076,-13.36757 0.93521,-18.5154c0.33295,-6.2286 0.49462,-12.55514 0.63055,-19.54316c0.13404,-6.89054 0.31114,-13.60899 0.48968,-20.38622c0.08448,-3.19402 0.11288,-6.65387 0.15227,-9.99179c-0.01206,0.12864 -0.02412,0.25728 -0.03618,0.38592l0.0001,0.68893c0,0 -0.00699,0.4946 -0.05414,0.42129zM616.68414,90.89936c0.105,-0.87626 0.07339,-2.24088 0.15074,-4.11387c0.01365,-0.33059 0.00597,-0.71881 0.00017,-1.09882c-0.0011,0.01362 -0.0018,0.02095 -0.0018,0.02095c-0.11245,1.12627 -0.12738,3.55002 -0.14911,5.19173z" fill="#747474" stroke="none" stroke-width="0.5" stroke-linecap="butt"/><path d="M641.42202,93.75378l0.0001,-0.68893c-0.01206,-0.12864 -0.02412,-0.25728 -0.03618,-0.38592c0.03939,3.33792 0.06779,6.79778 0.15227,9.99179c0.17855,6.77723 0.35565,13.49568 0.48968,20.38622c0.13593,6.98802 0.29759,13.31456 0.63055,19.54316c0.44445,5.14783 0.66684,12.19715 0.93521,18.5154c0.27092,6.38669 0.40497,13.36165 0.65259,19.85673c0.13074,3.42952 0.24188,6.96591 0.30426,10.60658c0.05788,3.37809 0.04823,6.38053 0.21215,9.41153c0.11571,2.14816 0.14002,6.43957 0.35741,7.73851c0.08648,0.51671 0.26034,0.18438 0.35587,0.18668c0.25421,0.00612 0.50842,0.00155 0.76263,0.00169c0.66454,0.00035 1.33006,-0.8259 1.99845,-0.82853c0.66666,-0.00263 1.33276,0.12514 1.99814,-0.32423c0.66856,-0.45153 1.33393,-0.50981 2.00383,-0.5123c0.6606,-0.00009 1.36957,-0.9185 1.99737,1.30694c0.13697,0.49539 0.31068,0.73779 0.45413,1.02945c0.11439,0.23257 0.28713,-0.34132 0.39257,0.18671c0.11101,0.55588 0.14734,2.06807 0.2839,2.44854c0.1158,0.32264 0.27702,0.12401 0.38508,0.84673c0.09382,0.62752 0.18018,2.24113 0.25145,3.14697c0.52049,4.48656 1.06711,9.46295 1.07186,16.92974c0.20816,6.83869 0.15971,13.7164 0.15975,20.84535c0.00004,6.94968 0.04841,14.12923 -0.01991,21.04093c-0.04287,4.33697 -0.05943,8.55651 -0.05946,12.91649c-0.00001,1.03589 0.05168,4.54123 -0.01126,5.32266c-0.03787,0.47006 -0.25434,0.57099 -0.3137,0.67568c-0.26074,0.08777 -0.50739,-0.49083 -0.76625,-0.67569c-0.41283,-0.2948 -0.82461,-0.2318 -1.23813,-0.61162c-0.66088,-0.60701 -1.33359,-0.31196 -1.99691,-0.31224c-0.66739,-0.00027 -1.33478,-0.00017 -2.00217,-0.00017c-0.66739,0 -1.33478,0 -2.00217,0c-0.66739,0 -1.33478,0 -2.00217,0c-0.37252,0 -0.66078,0.95214 -1.02166,1.5523c-0.30114,0.50082 -0.64483,-0.6676 -0.95394,-0.69903c-0.66815,-0.06793 -1.32595,-0.85127 -1.99675,-0.85299c-0.66739,-0.00171 -1.33477,-0.00029 -2.00216,-0.00029c-0.15484,0 -0.33141,0.2468 -0.48414,-0.00612c-0.1558,-0.25801 -0.30009,-1.23575 -0.45495,-1.54306c-0.33425,-0.6633 -0.70003,-0.01488 -1.02729,0.65659c-0.41477,0.07707 -0.8296,0.05968 -1.24442,0.05986c-0.13664,0.00006 -0.39452,0.22015 -0.48765,-0.99979c-0.03906,-0.51165 -0.01465,-2.65559 -0.01488,-3.32416c-0.0013,-6.64006 -0.18933,-14.11999 -0.36104,-20.47648c-0.18921,-7.00449 -0.34345,-13.32233 -0.3831,-20.60243c-0.03757,-6.89832 -0.06013,-13.98485 -0.30038,-20.48975c-0.24112,-6.52855 -0.46768,-13.15824 -0.65542,-19.88035c-0.18545,-6.63995 -0.43722,-13.43908 -0.54043,-20.27144c-0.10443,-6.91377 -0.20887,-13.82753 -0.3133,-20.7413c-0.10439,-6.91107 -0.22267,-13.79883 -0.33677,-20.69296c-0.11446,-6.91584 -0.1488,-13.84779 -0.32882,-20.62536c-0.06574,-2.52839 -0.27269,-4.53104 -0.34926,-7.05772c-0.0477,-1.57394 -0.02446,-3.37591 -0.0689,-4.95811c-0.06843,-2.43634 -0.21285,-4.8714 -0.31352,-7.18646c-0.07445,-1.32093 -0.20551,-2.92968 -0.24584,-4.39889c-0.02586,-0.9418 0.01573,-2.07114 -0.00814,-3.00817c-0.03651,-1.43371 -0.15671,-2.97516 -0.22246,-4.29914c-0.12089,-2.43446 -0.21226,-4.8406 -0.29501,-7.44053c-0.0999,-3.14907 -0.31815,-5.87919 -0.41086,-9.02654c-0.1022,-3.46972 -0.08371,-7.26803 -0.18823,-10.78979c-0.19903,-6.70643 -0.44837,-13.15696 -0.65991,-19.79957c-0.02095,-0.66542 -0.0348,-1.36009 -0.04103,-2.05781l-0.00853,-0.98974c-0.00016,-0.01683 -0.00025,-0.03391 -0.00025,-0.05119c0,-0.27614 0.02134,-0.5 0.04767,-0.5c0.01588,0 0.02995,0.08143 0.03861,0.20667l0.04639,0.6551c0.45139,3.44706 1.10712,5.77943 1.64952,6.57348c0.66277,0.97027 1.26196,4.2409 1.92384,5.51826c0.68176,1.31573 1.26571,3.9184 1.88697,7.06717c0.59854,3.03573 1.23335,5.26275 1.87402,7.03653c0.33189,1.13496 0.64795,2.79758 0.98186,3.77587c0.08739,0.25605 0.33047,0.09001 0.393,0.59827c0.09351,0.76002 0.04343,3.04431 0.11848,3.87471c0.04209,0.46572 0.11436,0.46294 0.16886,0.75444c0.18315,2.22434 0.40262,2.88657 0.58691,4.58292c0.0498,0.45839 0.141,0.2548 0.1843,0.78077c0.02098,0.25486 -0.00453,0.73066 0.01501,0.99785c0.0199,0.27213 0.07217,0.13492 0.08922,0.42756c0.00534,0.0917 0.00859,0.18961 0.01036,0.29197c0.03336,-0.33554 0.06637,0.01074 0.06637,0.01074c0.13159,1.42911 0.15071,3.93393 0.17776,5.88204c0.00262,0.18854 0.00516,0.3777 0.00764,0.56743c0.01229,0.04248 0.02545,0.08285 0.03953,0.12109c0.02615,0.25937 0.0523,0.51874 0.07845,0.7781l0.02762,1.25798c0,0 0.00699,0.4946 -0.04017,0.5679c-0.04716,0.07331 -0.05414,-0.42129 -0.05414,-0.42129zM641.11793,85.70763c0,0 -0.0007,-0.00733 -0.0018,-0.02095c-0.0058,0.38001 -0.01348,0.76823 0.00017,1.09882c0.07734,1.87299 0.04574,3.2376 0.15073,4.11387c-0.02173,-1.64172 -0.03665,-4.06546 -0.14911,-5.19173z" data-paper-data="{&quot;index&quot;:null}" fill="#747474" stroke="none" stroke-width="0.5" stroke-linecap="butt"/><path d="M613.8498,38.64671l-0.77346,-5.70546l6.05866,-16.9577l5.05156,20.79173l-0.88385,4.36976l-4.16528,-15.68193z" data-paper-data="{&quot;index&quot;:null}" fill="#303c43" stroke="#000000" stroke-width="0" stroke-linecap="round"/><path d="M634.84219,180.96461l0.28218,-99.88686l21.92841,28.36829l0.20395,61.84326z" data-paper-data="{&quot;index&quot;:null}" fill="#85c1da" stroke="#000000" stroke-width="0" stroke-linecap="round"/><path d="M656.3482,171.60411l-4.77545,2.77246l0.03788,-61.20178c0,0 1.80874,-3.34002 2.65,-2.02916c0.77247,1.20365 2.20882,9.60016 2.20882,9.60016l-0.02861,50.5442z" data-paper-data="{&quot;index&quot;:null}" fill="#01005e" stroke="#000000" stroke-width="0" stroke-linecap="round"/><path d="M652.06612,173.61636l0.00175,-55.06855c0,0 1.47795,-2.21632 2.17796,-1.14016c0.58694,0.90231 1.74299,7.16791 1.74299,7.16791l-0.02594,47.47613z" data-paper-data="{&quot;index&quot;:null}" fill="#85c1da" stroke="#000000" stroke-width="0" stroke-linecap="round"/><path d="M650.81957,173.60479l-5.67521,4.00106l-0.03697,-72.78621c0,0 2.06532,-3.87197 3.06842,-2.43582c0.91891,1.31562 2.7198,10.72283 2.7198,10.72283l0.03372,60.11095z" data-paper-data="{&quot;index&quot;:null}" fill="#01005e" stroke="#000000" stroke-width="0" stroke-linecap="round"/><path d="M645.73005,176.62908l-0.07172,-65.48731c0,0 1.56973,-4.22017 2.35406,-3.11356c0.77244,1.08983 2.31679,9.70362 2.31679,9.70362l0.03278,56.46201z" data-paper-data="{&quot;index&quot;:null}" fill="#85c1da" stroke="#000000" stroke-width="0" stroke-linecap="round"/><path d="M644.51851,176.47069l-6.71391,4.73336l-0.04374,-86.10783c0,0 2.61315,-3.62096 3.83221,-1.87563c1.03225,1.47788 3.01539,11.67936 3.01539,11.67936l0.03989,71.11269z" data-paper-data="{&quot;index&quot;:null}" fill="#01005e" stroke="#000000" stroke-width="0" stroke-linecap="round"/><path d="M638.49748,180.04851l-0.08484,-77.47303c0,0 2.15425,-5.6333 3.13207,-4.25369c0.84446,1.19144 2.39365,12.04988 2.39365,12.04988l0.03878,66.79592z" data-paper-data="{&quot;index&quot;:null}" fill="#85c1da" stroke="#000000" stroke-width="0" stroke-linecap="round"/><path d="M634.819,181.50382l-15.12249,-10.23811l0.15109,-71.69394l15.26588,-18.00732z" data-paper-data="{&quot;index&quot;:null}" fill="#85c1da" stroke="#000000" stroke-width="0" stroke-linecap="round"/><path d="M644.17335,93.33628l-0.16638,-61.41538l6.91414,14.86381l0.16454,54.25635z" data-paper-data="{&quot;index&quot;:null}" fill="#85c1da" stroke="#000000" stroke-width="0" stroke-linecap="round"/><path d="M644.15437,92.74434l-5.34923,-6.76138l0.01038,-32.9815l5.17274,-20.68507z" data-paper-data="{&quot;index&quot;:null}" fill="#85c1da" stroke="#000000" stroke-width="0" stroke-linecap="round"/><path d="M643.99778,32.76049l-0.90268,4.37029l-0.08408,-34.16379l4.01252,7.39155l0.0448,27.84513z" data-paper-data="{&quot;index&quot;:null}" fill="#85c1da" stroke="#000000" stroke-width="0" stroke-linecap="round"/><path d="M638.80621,53.44609l-0.64201,-7.09161l5.81247,-22.48054l8.08198,16.55893l-1.20334,6.74867l-6.72568,-14.22727z" data-paper-data="{&quot;index&quot;:null}" fill="#303c43" stroke="#000000" stroke-width="0" stroke-linecap="round"/><path d="M643.05501,27.65227l-0.77138,2.39166l-0.19416,-22.90363l0.92156,-4.17332z" data-paper-data="{&quot;index&quot;:null}" fill="#85c1da" stroke="#000000" stroke-width="0" stroke-linecap="round"/><path d="M641.59869,2.41436l1.27861,-6.94829l5.0671,7.9543l-0.88314,7.13463l-3.97486,-7.39262l-1.05326,4.57202z" data-paper-data="{&quot;index&quot;:null}" fill="#303c43" stroke="#000000" stroke-width="0" stroke-linecap="round"/><path d="M642.849,-4.73062l-1.25962,7.54023l0.54721,4.52689l0.1566,23.29967l-4.15718,15.91661l0.67952,6.49808l-0.01048,32.5865l-3.61625,-4.04535l-2.35313,2.04128l0.13757,-50.95687l5.30784,-44.53605l0.00855,-40.09115l8.38957,22.87l0.04072,30.31392z" data-paper-data="{&quot;index&quot;:null}" fill="#85c1da" stroke="#000000" stroke-width="0" stroke-linecap="round"/><path d="M632.92978,83.4825l-10.48446,13.33014l0.30961,-40.88962l10.25592,-23.44517z" data-paper-data="{&quot;index&quot;:null}" fill="#85c1da" stroke="#000000" stroke-width="0" stroke-linecap="round"/><path d="M638.30908,-12.84791l-5.37332,46.16723l-10.26469,22.80357l-0.99966,-6.68654l11.02792,-23.41758l5.64588,-48.0017z" data-paper-data="{&quot;index&quot;:null}" fill="#303c43" stroke="#000000" stroke-width="0" stroke-linecap="round"/><path d="M638.26976,-22.42517l-10.74063,42.36873l0.04996,-25.47791l10.75836,-46.66467z" data-paper-data="{&quot;index&quot;:null}" fill="#85c1da" stroke="#000000" stroke-width="0" stroke-linecap="round"/><path d="M638.21831,-21.14002l-5.48589,47.75033l-11.02807,22.8251l5.91884,-29.8895l10.66536,-42.16911z" data-paper-data="{&quot;index&quot;:null}" fill="#d19090" stroke="#000000" stroke-width="0" stroke-linecap="round"/><path d="M638.30943,-51.30952l-10.73966,46.12105l-1.48861,-4.30285l12.45549,-55.25408l9.04469,26.01141l-0.92015,9.70307z" data-paper-data="{&quot;index&quot;:null}" fill="#303c43" stroke="#000000" stroke-width="0" stroke-linecap="round"/><path d="M621.68562,49.83093l1.0561,6.48746l-0.32854,40.49518l-3.52028,3.06164l0.24452,-74.46146l4.1464,15.48496z" data-paper-data="{&quot;index&quot;:null}" fill="#85c1da" stroke="#000000" stroke-width="0" stroke-linecap="round"/><path d="M618.87371,98.49331l-5.32828,1.53271l0.32318,-61.42921l5.28768,-12.9861z" data-paper-data="{&quot;index&quot;:null}" fill="#85c1da" stroke="#000000" stroke-width="0" stroke-linecap="round"/><path d="M614.29839,99.21481l0.28755,-53.5285c0,0 0.93859,-8.43791 1.46299,-9.40342c0.64763,-1.19245 2.1317,2.7848 2.1317,2.7848l-0.09764,59.84291z" data-paper-data="{&quot;index&quot;:null}" fill="#01005e" stroke="#01005e" stroke-width="0" stroke-linecap="round"/><path d="M614.78793,99.11158l0.23207,-49.57709c0,0 0.63918,-7.97273 1.05198,-8.62045c0.47548,-0.74608 1.63952,4.39721 1.63952,4.39721l-0.19335,53.72334z" data-paper-data="{&quot;index&quot;:null}" fill="#2b3b41" stroke="#000000" stroke-width="0" stroke-linecap="round"/><path d="M613.56326,96.07567l-2.71103,1.45891l0.23263,-47.4047l2.72895,-5.01426z" data-paper-data="{&quot;index&quot;:null}" fill="#85c1da" stroke="#000000" stroke-width="0" stroke-linecap="round"/><path d="M611.0848,49.93237l-0.67932,-5.70811l3.48191,-5.82546l-0.01716,6.51772z" data-paper-data="{&quot;index&quot;:null}" fill="#303c43" stroke="#000000" stroke-width="0" stroke-linecap="round"/><path d="M612.94452,32.8956l0.98048,5.30465l-3.48206,5.233l0.71733,7.0895l-0.28943,46.17197l-1.56221,2.41397l-0.0577,-4.73818l0.25996,-87.69387l5.27777,21.77281z" data-paper-data="{&quot;index&quot;:null}" fill="#85c1da" stroke="#000000" stroke-width="0" stroke-linecap="round"/><path d="M609.2519,98.17216l-6.53384,-0.40821l0.6022,-74.76778l6.17184,-16.17091z" data-paper-data="{&quot;index&quot;:null}" fill="#85c1da" stroke="#000000" stroke-width="0" stroke-linecap="round"/><path d="M603.2826,23.04659l-1.15045,-7.27477l7.52662,-19.76397l5.93896,30.24633l-0.88441,2.19736l-5.27771,-21.57533z" data-paper-data="{&quot;index&quot;:null}" fill="#303c43" stroke="#000000" stroke-width="0" stroke-linecap="round"/><path d="M619.68285,169.9133l-3.63214,7.40964l-4.58088,-57.73604l-11.25159,-4.42252l2.59406,-17.05748l6.4395,-0.37909l0.20748,1.37659l1.31763,-1.61709l2.76742,-1.85547l0.00106,4.1473l5.42242,-1.53535l-0.11242,2.17558l0.92212,-2.00092z" data-paper-data="{&quot;index&quot;:null}" fill="#794a45" stroke="#000000" stroke-width="0" stroke-linecap="round"/><path d="M617.49718,98.65092l-1.94227,0.17824l0.20076,-43.40464c0,0 0.65113,-6.65275 0.995,-7.19374c0.28388,-0.4466 0.923,4.17641 0.923,4.17641z" data-paper-data="{&quot;index&quot;:null}" fill="#720b00" stroke="#000000" stroke-width="0" stroke-linecap="round"/><path d="M612.46185,49.43865c0.27584,-0.51431 1.0073,2.11953 1.0073,2.11953l-0.15818,26.04903l-1.90571,1.67478l0.28218,-24.64764c0,0 0.50101,-4.68592 0.77441,-5.1957z" data-paper-data="{&quot;index&quot;:null}" fill="#01005e" stroke="#000000" stroke-width="0" stroke-linecap="round"/><path d="M613.02165,74.37328l-1.27734,1.1167l0.22199,-18.26988c0,0 0.33128,-4.41113 0.51534,-4.77044c0.22106,-0.43151 0.72045,2.35806 0.72045,2.35806z" data-paper-data="{&quot;index&quot;:null}" fill="#baaa1d" stroke="#000000" stroke-width="0" stroke-linecap="round"/><path d="M603.82427,98.46183l0.39592,-63.25842c0,0 0.9667,-10.89251 1.5819,-12.09888c0.7232,-1.41814 2.48592,4.12216 2.48592,4.12216l-0.19824,70.7366z" data-paper-data="{&quot;index&quot;:null}" fill="#01005e" stroke="#000000" stroke-width="0" stroke-linecap="round"/><path d="M607.66747,98.51557l-3.37976,-0.87732l0.30456,-57.93345c0,0 0.91147,-10.95649 1.39142,-11.84168c0.57414,-1.05894 1.82174,5.91537 1.82174,5.91537l-0.21026,64.03667z" data-paper-data="{&quot;index&quot;:null}" fill="#baaa1d" stroke="#000000" stroke-width="0" stroke-linecap="round"/><path d="M636.89363,80.10319l0.07148,-42.68918c0,0 0.41493,-2.15711 0.60012,-1.72692c0.18248,0.4239 0.50301,4.28947 0.50301,4.28947l-0.02033,41.28284z" data-paper-data="{&quot;index&quot;:null}" fill="#01005e" stroke="#000000" stroke-width="0" stroke-linecap="round"/><path d="M637.16083,77.39392l0.05246,-36.52871c0,0 0.20664,-1.62488 0.31507,-1.41141c0.10804,0.2127 0.33437,2.68993 0.33437,2.68993l-0.01135,36.09528z" data-paper-data="{&quot;index&quot;:null}" fill="#baaa1d" stroke="#000000" stroke-width="0" stroke-linecap="round"/><path d="M635.49179,77.87327l0.07148,-42.68918c0,0 0.41493,-2.15711 0.60012,-1.72692c0.18248,0.4239 0.50301,4.28947 0.50301,4.28947l-0.02033,41.28284z" data-paper-data="{&quot;index&quot;:null}" fill="#01005e" stroke="#000000" stroke-width="0" stroke-linecap="round"/><path d="M635.75899,75.16401l0.05246,-36.52872c0,0 0.20664,-1.62489 0.31508,-1.41142c0.10804,0.2127 0.33437,2.68994 0.33437,2.68994l-0.01135,36.09529z" data-paper-data="{&quot;index&quot;:null}" fill="#baaa1d" stroke="#000000" stroke-width="0" stroke-linecap="round"/><path d="M634.02819,75.86125l0.07148,-42.68918c0,0 0.41493,-2.15711 0.60012,-1.72692c0.18248,0.4239 0.50301,4.28947 0.50301,4.28947l-0.02033,41.28285z" data-paper-data="{&quot;index&quot;:null}" fill="#01005e" stroke="#000000" stroke-width="0" stroke-linecap="round"/><path d="M634.29538,73.15198l0.05246,-36.52873c0,0 0.20664,-1.62489 0.31508,-1.41141c0.10804,0.2127 0.33437,2.68993 0.33437,2.68993l-0.01135,36.0953z" data-paper-data="{&quot;index&quot;:null}" fill="#baaa1d" stroke="#baaa1d" stroke-width="0" stroke-linecap="round"/><path d="M639.61032,86.83491l-0.00809,-31.55584c0,0 0.97481,-7.94799 1.49157,-9.88795c0.56637,-2.12622 1.77149,-2.36181 1.77149,-2.36181l0.06398,48.62916z" data-paper-data="{&quot;index&quot;:null}" fill="#01005e" stroke="#000000" stroke-width="0" stroke-linecap="round"/><path d="M640.07415,87.52427l-0.06955,-30.14922c0,0 0.69359,-7.51064 1.09324,-9.06044c0.42252,-1.63849 1.37713,-0.51926 1.37713,-0.51926l0.05243,43.76637z" data-paper-data="{&quot;index&quot;:null}" fill="#baaa1d" stroke="#000000" stroke-width="0" stroke-linecap="round"/><path d="M646.48253,85.15517l-0.03059,-38.93092l2.44331,5.4426l0.13091,38.38774z" data-paper-data="{&quot;index&quot;:null}" fill="#baaa1d" stroke="#000000" stroke-width="0" stroke-linecap="round"/><path d="M648.87459,51.42428l0.88681,2.78477l0.21556,37.00748l-0.97926,-1.70148z" data-paper-data="{&quot;index&quot;:null}" fill="#01005e" stroke="#01005e" stroke-width="0" stroke-linecap="round"/><path d="M646.51345,85.20832l-1.15459,-2.34497l-0.05135,-39.55173l1.13417,3.10201z" data-paper-data="{&quot;index&quot;:null}" fill="#01005e" stroke="#000000" stroke-width="0" stroke-linecap="round"/><path d="M633.81616,-8.61554l0.0462,-20.7505l1.35841,-6.41437l0.02601,21.07268z" data-paper-data="{&quot;index&quot;:null}" fill="#baaa1d" stroke="#000000" stroke-width="0" stroke-linecap="round"/><path d="M633.08534,-5.78515l0.01531,-20.64156l0.74096,-3.4791l0.01568,20.96489z" data-paper-data="{&quot;index&quot;:null}" fill="#01005e" stroke="#000000" stroke-width="0" stroke-linecap="round"/><path d="M635.22617,-14.70716l0.01532,-20.64156l0.74095,-3.47911l0.01568,20.96491z" data-paper-data="{&quot;index&quot;:null}" fill="#01005e" stroke="#000000" stroke-width="0" stroke-linecap="round"/><path d="M629.50609,8.93209l0.0462,-20.75051l1.35841,-6.41436l0.02601,21.07267z" data-paper-data="{&quot;index&quot;:null}" fill="#baaa1d" stroke="#000000" stroke-width="0" stroke-linecap="round"/><path d="M628.77527,11.76248l0.01531,-20.64156l0.74096,-3.4791l0.01568,20.96491z" data-paper-data="{&quot;index&quot;:null}" fill="#01005e" stroke="#000000" stroke-width="0" stroke-linecap="round"/><path d="M630.91611,2.84048l0.01532,-20.64156l0.74095,-3.47911l0.01568,20.96491z" data-paper-data="{&quot;index&quot;:null}" fill="#01005e" stroke="#000000" stroke-width="0" stroke-linecap="round"/><path d="M641.37373,31.53503l-1.72097,-1.14022l0.0657,-25.0738c0,0 0.52072,-2.9211 0.78552,-2.41904c0.27751,0.52615 0.84322,5.5071 0.84322,5.5071l0.00562,21.9378z" data-paper-data="{&quot;index&quot;:null}" fill="#01005e" stroke="#000000" stroke-width="0" stroke-linecap="round"/><path d="M639.97134,27.14375l0.05717,-18.15717c0,0 0.30963,-3.05744 0.48402,-2.74286c0.17939,0.32361 0.57773,4.65816 0.57773,4.65816l0.0046,17.9393z" data-paper-data="{&quot;index&quot;:null}" fill="#baaa1d" stroke="#000000" stroke-width="0" stroke-linecap="round"/><path d="M644.10219,23.89327l-0.02418,-13.9402c0,0 0.78844,-2.45144 1.20896,-1.66352c0.33776,0.63285 1.12074,6.02863 1.12074,6.02863l0.03465,14.5883z" data-paper-data="{&quot;index&quot;:null}" fill="#01005e" stroke="#000000" stroke-width="0" stroke-linecap="round"/><path d="M644.41143,24.42488l-0.02346,-11.13041c0,0 0.59032,-2.62401 0.88328,-1.9663c0.27655,0.6209 0.82808,5.80853 0.82808,5.80853l0.04407,11.12984z" data-paper-data="{&quot;index&quot;:null}" fill="#baaa1d" stroke="#000000" stroke-width="0" stroke-linecap="round"/><path d="M615.73204,55.57395l0.22604,-2.49196l0.38321,-2.30727l0.39089,-2.49662l0.10301,-0.08396l-0.09004,50.68679l-1.17448,0.46541z" data-paper-data="{&quot;index&quot;:null}" fill="#720b00" stroke="#000000" stroke-width="0" stroke-linecap="round"/><path d="M616.57481,77.48816l-0.6901,0.88401l0.09752,-21.50844l0.6582,-4.77358z" data-paper-data="{&quot;index&quot;:null}" fill="#baaa1d" stroke="#000000" stroke-width="0" stroke-linecap="round"/><path d="M617.11449,52.50905l0.51581,2.47104l-0.05597,22.80408l-0.55632,0.23183z" data-paper-data="{&quot;index&quot;:null}" fill="#baaa1d" stroke="#000000" stroke-width="0" stroke-linecap="round"/><path d="M638.81306,120.92219l0.006,-15.82434l0.80393,-2.76553l0.82432,-1.71116l0.61345,-0.33379l-0.07573,18.46365z" data-paper-data="{&quot;index&quot;:null}" fill="#000000" stroke="#000000" stroke-width="0" stroke-linecap="round"/><path d="M641.72481,101.1126l0.49336,1.99049l0.71511,3.88313l0.67515,4.9392l0.02252,9.38837l-2.0323,-2.26357z" data-paper-data="{&quot;index&quot;:null}" fill="#000000" stroke="#000000" stroke-width="0" stroke-linecap="round"/><path d="M645.93445,127.97093l0.00514,-13.54574l0.68817,-2.36731l0.70562,-1.46475l0.52512,-0.28572l-0.06483,15.80502z" data-paper-data="{&quot;index&quot;:null}" fill="#000000" stroke="#000000" stroke-width="0" stroke-linecap="round"/><path d="M648.42693,111.01381l0.42231,1.70386l0.61214,3.32398l0.57794,4.22799l0.01928,8.0365l-1.73966,-1.93762z" data-paper-data="{&quot;index&quot;:null}" fill="#000000" stroke="#000000" stroke-width="0" stroke-linecap="round"/><path d="M652.43909,132.84333l0.00403,-10.61823l0.53944,-1.85569l0.55312,-1.14821l0.41163,-0.22399l-0.05082,12.38925z" data-paper-data="{&quot;index&quot;:null}" fill="#000000" stroke="#000000" stroke-width="0" stroke-linecap="round"/><path d="M625.08216,57.09204c0.07814,0.38519 0.12336,-0.29131 0.12336,-0.29131c0.03822,-0.9128 0.30835,-0.30545 0.40893,-0.37785c0.18765,-0.13511 0.62216,-0.51588 0.80784,0.54158c0.15492,0.88226 0.23943,4.93966 0.2688,6.49776c-0.01154,5.15415 -0.09353,9.05502 -0.46243,13.18759c-0.13837,1.55004 -0.22322,3.33195 -0.45005,4.07711c-0.27934,0.9177 -0.71655,0.46777 -0.99993,0.02007c-0.30079,-0.47242 -0.36749,-1.55928 -0.47811,-3.89896c-0.26044,-5.50834 0.17628,-11.95488 0.48358,-16.93344c0.07628,-1.24314 0.16583,-2.15385 0.26635,-3.05675c0.0071,0.08391 0.01737,0.16378 0.03166,0.23421z" data-paper-data="{&quot;noHover&quot;:false,&quot;origItem&quot;:[&quot;Path&quot;,{&quot;applyMatrix&quot;:true,&quot;segments&quot;:[[[198.44065,130.34663],[0.07391,0.06781],[-0.65049,1.01764]],[[196.85501,133.66229],[0.38783,-1.29998],[-1.56825,5.20919]],[[196.10629,150.39263],[-3.17154,-4.78632],[1.34712,2.033]],[[200.73291,153.29281],[-2.54745,0.04268],[2.40048,-0.0377]],[[208.86748,151.64902],[-2.10888,1.32263],[1.7124,-1.07397]],[[211.75454,147.07391],[-0.83713,1.69132],[2.23187,-4.50925]],[[213.03393,133.90973],[0.88194,4.89393],[-0.53508,-1.42595]],[[209.62627,128.21675],[1.43304,0.58239],[-1.71761,-0.69805]],[[202.9475,129.02331],[1.5078,-0.43318],[-0.80822,0.23219]],[[199.69167,130.04267],[0.13943,-0.92558],[0,0]],[[198.74299,130.51701],[0.71151,0.23717],[-0.13007,-0.04336]]],&quot;closed&quot;:true}],&quot;index&quot;:null}" fill="#ffffff" stroke="#000000" stroke-width="1.5" stroke-linecap="butt"/><path d="M628.57191,51.72114c0.11933,-0.17178 0.2292,-0.74222 0.34817,-0.93147c0.68555,-1.09045 0.8078,1.83983 1.1411,6.04758c-0.02488,6.94428 -0.24392,18.18135 -1.28776,18.39538c-0.11468,0.02352 -0.2779,-0.49797 -0.39289,-0.6958c-0.47543,-0.818 -0.90209,-5.50355 -0.90853,-9.94091c-0.00529,-3.64785 0.22918,-7.23397 0.47133,-9.91519c0.01782,-0.34704 0.04435,-0.67901 0.07614,-0.95163c0.0593,0.02699 0.08124,-0.40022 0.08737,-0.56659l0.07592,-0.43725c0,0 0.0408,-0.23468 0.04239,-0.61534c0.1099,-0.3094 0.27072,-0.27934 0.34676,-0.38881z" data-paper-data="{&quot;noHover&quot;:false,&quot;origItem&quot;:[&quot;Path&quot;,{&quot;applyMatrix&quot;:true,&quot;segments&quot;:[[[223.48817,120.68639],[0.83946,-0.4715],[0.05909,0.36267]],[223.26049,121.33583],[[222.72568,121.87064],[0,0],[-0.01855,0.16733]],[[222.12213,122.54569],[0.48968,-0.07096],[-0.20813,0.30959]],[[221.68358,123.56571],[0.07992,-0.35726],[-1.47095,2.93017]],[[219.71637,133.66232],[-0.7342,-3.44177],[0.89311,4.18667]],[[228.98016,141.5555],[-4.03999,0],[0.97709,0]],[[232.30889,141.57531],[-0.93264,0.20887],[8.48942,-1.90123]],[[239.31891,122.15939],[1.11198,6.60888],[-3.52059,-3.43757]],[[228.89188,118.3155],[5.39556,-2.14708],[-0.93636,0.37261]],[[226.23619,119.76044],[0.94255,-0.35667],[-0.60067,0.2273]]],&quot;closed&quot;:true}],&quot;index&quot;:null}" fill="#ffffff" stroke="#000000" stroke-width="1.5" stroke-linecap="butt"/><path d="M626.04515,66.73596c0.02603,-1.12298 0.1525,-1.85207 0.28249,-1.62842c0.12999,0.22366 0.21426,1.31531 0.18823,2.43832c-0.02603,1.12298 -0.1525,1.85205 -0.28249,1.62841c-0.12999,-0.22366 -0.21426,-1.31532 -0.18823,-2.43832z" data-paper-data="{&quot;index&quot;:null}" fill="#000000" stroke="none" stroke-width="0.5" stroke-linecap="butt"/><path d="M629.40086,61.26113c0.02603,-1.12298 0.1525,-1.85208 0.28249,-1.62843c0.12999,0.22366 0.21426,1.31532 0.18823,2.43833c-0.02603,1.12298 -0.1525,1.85207 -0.28249,1.62842c-0.12999,-0.22366 -0.21426,-1.31532 -0.18823,-2.43833z" data-paper-data="{&quot;index&quot;:null}" fill="#000000" stroke="none" stroke-width="0.5" stroke-linecap="butt"/><path d="M622.86644,15.74903c0.11579,-0.27357 0.14735,0.72632 0.14735,0.72632l-0.03257,-0.03623c0.44198,2.4992 0.85795,7.23216 1.19872,10.74978c0.56317,6.64594 1.29823,11.5577 1.93849,17.55217c0.24662,2.30901 0.66675,4.90704 0.68221,8.11764c0,0 -0.00002,1.03665 -0.12005,1.03751c-0.12002,0.00086 -0.11999,-1.0358 -0.11999,-1.0358c0.01863,-2.13287 -0.45068,-5.13794 -0.61872,-6.71306c-0.64421,-6.03865 -1.38428,-10.98409 -1.95107,-17.67996c-0.32111,-3.32478 -0.72248,-7.94996 -1.14077,-10.29071l-0.06785,-1.15416c0,0 -0.03155,-0.99992 0.08424,-1.27349z" data-paper-data="{&quot;index&quot;:null}" fill="#000000" stroke="none" stroke-width="0.5" stroke-linecap="butt"/><path d="M632.73159,16.29317c0.01324,-0.28269 0.04907,-0.77777 0.13447,-0.63083c0.11768,0.20248 0.09412,1.21917 0.09412,1.21917l-0.05702,0.91377c-0.66209,3.81328 -1.31719,7.71029 -1.95382,11.88501c-0.34592,2.80463 -0.67985,6.04318 -1.05555,8.54157c-0.71557,4.75841 -1.58416,7.65094 -2.2768,12.68026c0,0 -0.09192,0.66742 -0.16909,-0.1258c-0.07717,-0.79324 0.01475,-1.46063 0.01475,-1.46063c0.69588,-5.05285 1.56639,-7.95861 2.28484,-12.73616c0.37265,-2.47804 0.70346,-5.704 1.04705,-8.48232c0.63085,-4.14818 1.28089,-8.01381 1.93707,-11.80406z" data-paper-data="{&quot;index&quot;:null}" fill="#000000" stroke="none" stroke-width="0.5" stroke-linecap="butt"/><path d="M623.01,88.97579c0,-0.31649 0.0191,-0.43265 0.03312,-0.47528c0.02605,-3.61988 0.02337,-7.2264 0.09482,-10.78504c0.05947,-2.96215 0.22569,-5.5087 0.33911,-8.24734c0.02643,-0.63701 0.13581,-4.07483 0.2271,-4.02782c0.09378,0.04829 0.12472,2.9317 0.15001,3.68155c0.12025,3.56506 0.36985,6.46437 0.502,9.9851c0.24214,6.47525 0.66227,9.24642 1.32102,9.78647c0.63265,0.53857 1.2212,0.47822 1.85005,-0.78667c0.56976,-1.14576 1.25896,-1.6191 1.73653,-5.29146c0.09648,-0.75861 0.19807,-1.49018 0.30243,-2.18581c0.01278,-0.94966 0.0235,-1.87614 0.03281,-2.76223c0,0 0.00527,-0.49694 0.05264,-0.44173c0.04738,0.05522 0.04212,0.55216 0.04212,0.55216c-0.00685,0.64159 -0.01443,1.30076 -0.02296,1.97214c0.09878,-0.62549 0.19929,-1.21716 0.29961,-1.76777c0.00026,-0.03212 0.0008,-0.06616 0.00166,-0.1022c0.01156,-0.48507 0.05781,-0.3638 0.05781,-0.3638l0.04544,1.02379c-0.14126,0.75218 -0.28374,1.59049 -0.42183,2.49415c-0.06845,4.7859 -0.18945,10.00287 -0.43632,13.81604c-0.38106,5.83181 -0.85256,10.68425 -1.50446,12.88511c-0.6453,1.44609 -1.30508,1.09768 -1.96083,1.41758c-0.65857,0.32128 -1.32531,0.65052 -1.94279,-2.27135c-0.60829,-3.90783 -0.83292,-10.42026 -0.77328,-17.65823c-0.01254,-0.05884 -0.02582,-0.18346 -0.02582,-0.44735zM623.53565,89.25368c0.23484,0.98531 0.44632,2.73278 0.67789,3.86193c0.54585,2.69606 1.1332,3.12375 1.71604,4.28373c0.61082,0.14077 1.22686,0.27119 1.83043,-0.36922c0.14104,-0.42727 0.28252,-0.30402 0.42308,-0.64572c0.35298,-0.85807 0.68644,-2.84304 1.04483,-3.42431c0.16782,-3.21854 0.26152,-7.2317 0.31935,-11.01159c-0.07786,0.53817 -0.15379,1.09617 -0.22671,1.67005c-0.49113,3.77679 -1.18953,4.29175 -1.77536,5.47032c-0.63831,1.28387 -1.23347,1.30979 -1.87547,0.8015c-0.69338,-0.57348 -1.14697,-3.58981 -1.40232,-10.41827c-0.10948,-2.93945 -0.314,-5.39522 -0.44676,-8.20538c-0.03872,-0.81969 -0.06255,-1.88064 -0.09074,-2.74918c-0.01011,-0.31152 -0.02936,-0.86562 -0.04079,-1.32919c-0.03644,0.9375 -0.11485,2.44248 -0.12463,2.67851c-0.11072,2.66866 -0.27561,5.1673 -0.33324,8.05413c-0.07078,3.5457 -0.06742,7.14117 -0.09375,10.74908c0.09428,0.28481 0.29702,0.15929 0.39816,0.58361zM628.20499,97.35764c-0.14238,0.34132 -0.28461,0.23195 -0.42708,0.65467c-0.61332,0.63564 -1.23792,0.545 -1.85841,0.38144c-0.59425,-1.18866 -1.18841,-1.66336 -1.7463,-4.37196c-0.2274,-1.11774 -0.44145,-2.88819 -0.67252,-3.83772c-0.12519,-0.51442 -0.25826,-0.31162 -0.37092,-0.54837c-0.05332,6.76112 0.15164,12.90655 0.72383,16.56129c0.60189,2.83314 1.2528,2.46955 1.89386,2.15681c0.64871,-0.31647 1.30222,0.03678 1.94066,-1.38481c0.62919,-2.1337 1.08262,-6.85531 1.45042,-12.48428c0.00845,-0.12797 0.01675,-0.25778 0.02489,-0.38935c-0.32596,0.70307 -0.63424,2.48506 -0.95845,3.26227z" fill="#000000" stroke="none" stroke-width="0.5" stroke-linecap="butt"/><path d="M629.15873,94.10317c-0.00814,0.13157 -0.00702,0.24632 -0.01547,0.37429c-0.3678,5.62896 -0.82165,10.37968 -1.45084,12.51338c-0.63845,1.42158 -1.2982,1.09214 -1.9469,1.4086c-0.64106,0.31274 -1.29459,0.64487 -1.89648,-2.18827c-0.57219,-3.65474 -0.77715,-9.82869 -0.72383,-16.58981c0.11267,0.23675 0.25484,0.0636 0.38003,0.57803c0.23107,0.94953 0.44521,2.7166 0.67261,3.83434c0.55788,2.7086 1.14286,3.15692 1.7371,4.34558c0.62048,0.16357 1.24489,0.27181 1.85821,-0.36383c0.14246,-0.42272 0.2847,-0.3125 0.42708,-0.65382c0.32422,-0.77721 0.63254,-2.55541 0.95849,-3.25849z" data-paper-data="{&quot;noHover&quot;:false,&quot;origItem&quot;:[&quot;Path&quot;,{&quot;applyMatrix&quot;:true,&quot;segments&quot;:[[[298.99902,87.22739],[3.40058,-0.77721],[-1.49338,0.34132]],[[294.51959,87.88206],[1.49428,-0.42272],[-6.43293,0.63564]],[[275.02753,88.26349],[6.50796,0.16357],[-6.23281,-1.18866]],[[256.71134,83.89154],[5.85142,2.7086],[-2.38507,-1.11774]],[[249.65757,80.05381],[2.42361,0.94953],[-1.31304,-0.51442]],[[245.76708,79.50545],[1.18174,0.23675],[-0.55927,6.76112]],[[253.35906,96.06673],[-6.00147,-3.65474],[6.313,2.83314]],[[273.22302,98.22355],[-6.72384,0.31274],[6.804,-0.31647]],[[293.57789,96.83874],[-6.69641,1.42158],[6.59933,-2.1337]],[[308.79073,84.35447],[-3.85772,5.62896],[0.08863,-0.12797]],[[309.05182,83.96512],[-0.08544,0.13157],[-3.41887,0.70307]]],&quot;closed&quot;:true}]}" fill="#ffffff" stroke="none" stroke-width="0.5" stroke-linecap="butt"/><path d="M623.13281,88.67931c0.02633,-3.60791 0.02292,-7.21934 0.09371,-10.76505c0.05763,-2.88684 0.22286,-5.39844 0.33358,-8.0671c0.00978,-0.23603 0.08838,-1.74524 0.12482,-2.68274c0.01143,0.46357 0.03912,1.06413 0.04923,1.37565c0.02818,0.86854 0.05215,1.92627 0.09088,2.74597c0.13276,2.81016 0.33761,5.25316 0.44709,8.19261c0.25534,6.82846 0.70747,9.80172 1.40085,10.3752c0.642,0.50829 1.2297,0.49533 1.86801,-0.78854c0.58583,-1.17857 1.28367,-1.672 1.77481,-5.44879c0.07292,-0.57388 0.15838,-1.13045 0.23624,-1.66863c-0.05783,3.77989 -0.15179,7.8102 -0.31961,11.02873c-0.35838,0.58126 -0.69249,2.5791 -1.04547,3.43716c-0.14057,0.3417 -0.2825,0.22418 -0.42355,0.65145c-0.60356,0.64041 -1.22431,0.52292 -1.83514,0.38215c-0.58284,-1.15998 -1.17317,-1.61401 -1.71902,-4.31007c-0.23157,-1.12914 -0.44339,-2.88692 -0.67823,-3.87223c-0.10113,-0.42432 -0.30392,-0.30097 -0.3982,-0.58578z" data-paper-data="{&quot;noHover&quot;:false,&quot;origItem&quot;:[&quot;Path&quot;,{&quot;applyMatrix&quot;:true,&quot;segments&quot;:[[[250.02414,79.12343],[-1.06075,-0.42432],[2.46317,0.98531]],[[257.13422,82.98535],[-2.42882,-1.12914],[5.72525,2.69606]],[[275.13312,87.26908],[-6.11321,-1.15998],[6.40666,0.14077]],[[294.33173,86.89986],[-6.33052,0.64041],[1.47933,-0.42727]],[[298.76926,86.25414],[-1.47434,0.3417],[3.70229,-0.85807]],[[309.72804,82.82983],[-3.75895,0.58126],[1.76027,-3.21854]],[[313.07756,71.81824],[-0.60653,3.77989],[-0.81665,0.53817]],[[310.6997,73.48829],[0.76485,-0.57388],[-5.15132,3.77679]],[[292.0786,78.95861],[6.14453,-1.17857],[-6.69499,1.28387]],[[272.40749,79.76011],[6.73371,0.50829],[-7.27257,-0.57348]],[[257.69916,69.34184],[2.6782,6.82846],[-1.14825,-2.93945]],[[253.01326,61.13646],[1.39251,2.81016],[-0.40618,-0.81969]],[[252.06157,58.38729],[0.29561,0.86854],[-0.10603,-0.31152]],[[251.63375,57.05809],[0.11986,0.46357],[-0.38222,0.9375]],[[250.32658,59.7366],[0.10254,-0.23603],[-1.16132,2.66866]],[[246.83135,67.79074],[0.60447,-2.88684],[-0.74243,3.5457]],[[245.84804,78.53982],[0.27611,-3.60791],[0.98884,0.28481]]],&quot;closed&quot;:true}]}" fill="#ffffff" stroke="none" stroke-width="0.5" stroke-linecap="butt"/></g><path d="M654.39289,119.55096l0.33104,1.33561l0.47985,2.60561l0.45303,3.31425l0.01511,6.29967l-1.36369,-1.51887z" data-paper-data="{&quot;index&quot;:null}" fill="#000000" stroke="#000000" stroke-width="0" stroke-linecap="round"/></g><g fill-rule="nonzero" stroke="#000000" stroke-width="1"><path d="M-144.06478,-197.31635l13.10155,3.3261l19.01706,4.96363l15.31435,21.10432l142.75163,502.14608l-4.46561,19.2916l-13.92793,14.07551l-14.07813,5.32839l-7.662,-12.01588l13.0726,-5.45609l7.91033,-13.1719l1.60857,-14.69769l-138.10947,-484.65204l-7.16399,-11.74134l-9.03464,-9.52579l-14.93083,-5.30851z" fill="#00db64" stroke-linecap="round"/><path d="M-30.94474,-71.80987c-19.51996,5.64682 -39.92167,-5.59956 -45.56851,-25.11953c-5.64682,-19.51997 5.59958,-39.92167 25.11954,-45.56851c19.51996,-5.64683 39.92167,5.59956 45.5685,25.11952c5.64682,19.51996 -5.59956,39.92167 -25.11953,45.56851z" fill="#414141" stroke-linecap="butt"/><path d="M-35.41445,-87.26076c-10.98664,3.17827 -22.46957,-3.15168 -25.64784,-14.13833c-3.17827,-10.98665 3.15168,-22.46957 14.13832,-25.64785c10.98664,-3.17827 22.46958,3.15167 25.64785,14.13832c3.17827,10.98664 -3.15168,22.46957 -14.1383,25.64784z" fill="#cbcbcb" stroke-linecap="butt"/><path d="M72.31547,288.03424c-19.51996,5.64682 -39.92168,-5.59956 -45.56851,-25.11954c-5.64682,-19.51997 5.59956,-39.92168 25.11952,-45.5685c19.51996,-5.64682 39.92167,5.59956 45.56851,25.11953c5.64682,19.51997 -5.59956,39.92167 -25.11952,45.5685z" fill="#414141" stroke-linecap="butt"/><path d="M67.84576,272.58328c-10.98664,3.17827 -22.46957,-3.15168 -25.64785,-14.13832c-3.17827,-10.98665 3.15168,-22.46957 14.13833,-25.64784c10.98664,-3.17827 22.46958,3.15167 25.64785,14.13832c3.17827,10.98665 -3.15168,22.46957 -14.13832,25.64785z" fill="#cbcbcb" stroke-linecap="butt"/></g></g></g></svg>