<svg version="1.1" xmlns="http://www.w3.org/2000/svg" xmlns:xlink="http://www.w3.org/1999/xlink" width="2878.25006" height="1619.57958" viewBox="0,0,2878.25006,1619.57958"><defs><linearGradient x1="-15.97947" y1="130.49145" x2="582.93075" y2="75.1568" gradientUnits="userSpaceOnUse" id="color-1"><stop offset="0" stop-color="#ff00e1"/><stop offset="1" stop-color="#00b8ff"/></linearGradient><linearGradient x1="-33.35549" y1="108.86652" x2="-12.4992" y2="106.93955" gradientUnits="userSpaceOnUse" id="color-2"><stop offset="0" stop-color="#45ff00"/><stop offset="1" stop-color="#ff00e1"/></linearGradient><linearGradient x1="-30.36887" y1="113.45147" x2="589.05405" y2="56.22161" gradientUnits="userSpaceOnUse" id="color-3"><stop offset="0" stop-color="#feff00"/><stop offset="1" stop-color="#03ff51"/></linearGradient><linearGradient x1="-30.36887" y1="113.45147" x2="589.05405" y2="56.22161" gradientUnits="userSpaceOnUse" id="color-4"><stop offset="0" stop-color="#feff00"/><stop offset="1" stop-color="#03ff51"/></linearGradient><linearGradient x1="-31.93654" y1="52.48185" x2="320.56101" y2="19.91382" gradientUnits="userSpaceOnUse" id="color-5"><stop offset="0" stop-color="#45ff00"/><stop offset="1" stop-color="#ff00e1"/></linearGradient><linearGradient x1="-31.93654" y1="52.48185" x2="320.56101" y2="19.91382" gradientUnits="userSpaceOnUse" id="color-6"><stop offset="0" stop-color="#45ff00"/><stop offset="1" stop-color="#ff00e1"/></linearGradient><linearGradient x1="310.38336" y1="42.242" x2="379.08644" y2="35.89435" gradientUnits="userSpaceOnUse" id="color-7"><stop offset="0" stop-color="#45ff00"/><stop offset="1" stop-color="#ff00e1"/></linearGradient><linearGradient x1="358.167" y1="-24.08267" x2="585.08863" y2="-45.04847" gradientUnits="userSpaceOnUse" id="color-8"><stop offset="0" stop-color="#45ff00"/><stop offset="1" stop-color="#ff00e1"/></linearGradient><linearGradient x1="9.06054" y1="206.09795" x2="43.41207" y2="202.92413" gradientUnits="userSpaceOnUse" id="color-9"><stop offset="0" stop-color="#ff0000"/><stop offset="1" stop-color="#45ff00"/></linearGradient><linearGradient x1="213.98599" y1="194.80926" x2="298.81323" y2="186.97188" gradientUnits="userSpaceOnUse" id="color-10"><stop offset="0" stop-color="#0030ff"/><stop offset="1" stop-color="#ff0303"/></linearGradient></defs><g transform="translate(1117.37278,629.80931)"><g data-paper-data="{&quot;isPaintingLayer&quot;:true}" fill-rule="nonzero" stroke-linejoin="miter" stroke-miterlimit="10" stroke-dasharray="" stroke-dashoffset="0" style="mix-blend-mode: normal"><path d="M-1117.37278,989.77027v-1619.57958h2878.25006v1619.57958z" fill="none" stroke="#000000" stroke-width="0" stroke-linecap="butt"/><path d="M-1117.37278,989.77027v-1619.57958h2878.25006v1619.57958z" fill="none" stroke="#000000" stroke-width="0" stroke-linecap="butt"/><path d="M490.05315,168.74211c2.80575,-0.70388 5.61021,-1.40736 8.40737,-2.1448c1.39913,-0.36886 3.00903,-0.25388 4.32045,-0.79467c-0.26772,-1.76696 -0.53544,-3.53391 -0.80316,-5.30086c0,0 -0.21708,-1.43267 1.21559,-1.64974c1.43267,-0.21708 1.64974,1.21559 1.64974,1.21559c0.12824,0.84642 0.25648,1.69281 0.38472,2.53922c0.16808,-0.0682 0.35187,-0.10574 0.54444,-0.10574c0.65099,0 1.20173,0.42929 1.38453,1.02024l0.8798,2.62492c1.83165,3.34205 3.65474,6.68877 5.47967,10.03451c3.96232,7.26561 5.90992,15.84525 8.45405,23.67189c1.08937,3.35128 0.47574,7.20579 1.19182,10.55612c0.78797,3.68673 4.03126,5.79543 5.66915,8.92027c1.72187,3.28511 2.98343,7.12458 4.67696,10.51755c2.71615,7.27523 5.47536,13.94942 9.21493,20.74607c0.97077,1.76438 1.97073,5.31099 3.9213,6.31414c1.66332,0.85543 5.2465,-2.09373 6.67959,-2.39717c6.46061,-1.36788 14.48631,0.54928 20.56013,2.53245c7.71168,1.98943 15.09127,4.012 21.93064,8.29433c10.91059,6.83148 18.38925,17.85217 24.89689,28.6547c7.08507,11.76107 10.15744,25.0043 13.68542,38.16818c1.74559,6.5133 4.38835,13.1445 5.0497,19.85265c0.10118,1.04847 0.73469,6.33951 0.15424,6.91767c-0.98306,0.97915 -2.77202,0.32742 -4.15609,0.23018c-3.5973,-0.25276 -7.68122,-1.88223 -11.14942,-2.87298c-3.68978,-1.05408 -6.97837,-1.38937 -10.71658,-2.01266c-9.57664,-1.5968 -18.26141,-4.10771 -28.08855,-4.23712c-4.90902,-0.06466 -9.84479,-0.27719 -14.67993,-1.24539c-3.74509,-0.74992 -7.32403,-2.68391 -11.04206,-3.33382c-2.49192,-0.43559 -5.561,0.01876 -8.09017,0.01889c-5.34672,0.00023 -11.8732,-1.01442 -17.10392,0.05469c-3.16189,0.64626 -5.41632,1.10437 -8.77068,1.10437c-4.66243,-0.00008 -9.4042,0.09758 -14.0569,-0.20212c-7.44779,-0.47973 -15.26213,-1.87331 -22.74545,-0.83869c-2.80263,0.38747 -5.52743,1.7181 -8.30636,2.26816c-4.78765,0.9477 -9.69438,1.30758 -14.50152,2.24754c-1.14175,-0.18858 -2.61202,0.25757 -3.42525,-0.56572c-0.89613,-0.90725 -0.59491,-2.48138 -0.82376,-3.73588c-0.71557,-3.92285 -0.68703,-7.72985 -0.80399,-11.68871c-0.14891,-5.04001 -2.20491,-8.83925 -3.525,-13.58481c-2.5844,-9.29062 -3.65229,-18.94313 -6.31212,-28.25256c-5.56383,-19.47346 -10.9339,-39.06642 -15.09554,-58.8959c-2.37067,-11.29834 -5.70854,-22.82683 -6.32467,-34.39013c-0.46988,-8.81868 0.68445,-17.4967 1.69581,-26.22993c0.20107,-1.73619 0.09956,-8.18464 1.14041,-9.37862c2.50263,-2.87087 6.68391,-0.42209 9.6095,-0.26731c4.12802,0.21838 8.1715,1.00576 12.21019,1.83728c1.07614,-0.81906 2.74651,0.49557 4.08936,0.82226c0.10773,0.02621 0.21522,0.05218 0.32252,0.07792c1.16926,0.22951 2.34055,0.44674 3.51576,0.63904c4.27085,0.69879 8.56734,0.99032 12.79444,1.87074c3.18016,0.42067 6.34231,0.94941 9.31913,1.81875c1.828,-0.49909 3.65212,-0.98818 5.47286,-1.44493zM502.00159,168.66083c-2.79049,0.7939 -5.61864,1.48116 -8.43232,2.18704c-1.39341,0.34956 -2.79062,0.71786 -4.19133,1.09625c2.95553,1.26129 5.76979,2.68172 8.82316,3.63679c0.42395,-0.51621 1.15213,-0.51621 1.15213,-0.51621l0.12139,0.07437c0.82499,-0.2667 3.38338,-1.34573 4.62647,-0.62371c-0.30741,-2.02882 -0.61479,-4.05763 -0.92219,-6.08645c-0.40073,0.06377 -0.80226,0.12523 -1.1773,0.23192z" data-paper-data="{&quot;index&quot;:null}" fill="#d221e7" stroke="none" stroke-width="1" stroke-linecap="butt"/><path d="M119.00291,175.81229c1.28808,0.66369 0.6244,1.95177 0.6244,1.95177l-0.62281,1.20877c4.43861,-0.81585 8.82935,-4.58191 12.91515,-6.21997c4.72471,-1.8942 9.1602,-1.98985 13.98759,-2.87529c2.93602,-0.53852 4.84444,-2.80487 7.5707,-3.73259c3.78216,-1.28704 8.41781,-1.07299 12.23538,-0.30304c6.34867,1.31689 13.37965,0.53571 19.86047,0.53571c3.21756,0 7.04912,0.60404 10.20084,0.01871c3.05543,-0.56746 5.5329,-1.28593 8.75332,-1.16249c1.28506,0.04926 2.85584,-0.50094 3.8446,0.32136c0.98582,0.81986 0.71807,2.46325 1.00601,3.7127c1.05895,4.59491 1.97908,9.50105 1.98779,14.20815c0,3.77994 0.54456,8.05993 -0.014,11.79315c-0.60099,4.01683 -3.78732,6.96681 -5.45508,10.58635c-1.14349,2.48172 -2.52442,5.25679 -3.42477,7.83308c-0.36093,1.03277 -0.99804,4.83225 -1.38316,5.73039c-0.75996,1.77235 -2.40431,3.07387 -3.15075,4.85195c-0.74321,1.77036 -0.54892,3.83491 -1.24731,5.62343c-1.3801,3.53428 -3.64805,6.82965 -5.1082,10.40109c-3.26233,7.97949 -6.39482,16.05907 -8.61748,24.40258c-1.43583,5.38995 -3.04862,11.25416 -3.77765,16.78128c-0.15224,1.15424 -0.06168,4.7915 -0.24775,5.85209c-0.65714,3.74563 -2.39241,7.60953 -3.53996,11.23935c-4.32584,13.68295 -8.73464,27.1025 -11.94286,41.07419c-1.25958,5.48545 -2.94388,11.0416 -3.26799,16.65838c-0.84823,0.60432 -1.90314,0.99253 -2.54471,1.81295c-0.65845,0.84195 -0.36722,2.30248 -1.19878,2.97403c-0.85566,0.69103 -2.14767,0.5044 -3.24221,0.61251c-3.80358,0.3757 -7.85552,0.00341 -11.68011,0.00267c-5.74389,-0.00113 -11.8694,-0.31806 -17.55712,-1.17158c-2.84446,-0.42685 -5.608,-1.50817 -8.45902,-1.87687c-4.79851,-0.62055 -9.49905,-0.00234 -14.24171,-1.17533c-5.4125,-1.35312 -11.15447,-3.28946 -16.70325,-3.89953c-8.43291,-0.92716 -16.97276,-0.02699 -25.47661,-1.1573c-0.15584,-0.02071 -5.85739,-0.97321 -5.933,-0.99529c-1.82282,-0.53233 -3.37767,-1.84697 -5.23297,-2.2518c-1.79906,-0.39257 -3.68213,-0.07006 -5.5229,-0.11796c-3.77032,-0.10136 -7.3642,-0.99008 -11.104,-1.26874c-4.44299,-0.33106 -8.68367,0.94997 -13.10169,1.08276c-0.77845,0.02339 -5.85536,0.19612 -6.35756,-0.33646c-2.12511,-2.2536 0.24613,-4.25296 0.78924,-6.08905c0.76553,-2.58799 0.62499,-5.75325 1.03279,-8.42567c0.72958,-4.78132 1.72035,-9.53863 2.57913,-14.29867c0.66988,-3.71294 1.68649,-7.53301 2.04157,-11.28717c0.42681,-4.51257 -0.74894,-9.50769 0.10657,-13.95009c0.54489,-2.82931 2.50954,-5.39207 3.25182,-8.17207c1.59154,-5.96073 0.03918,-12.27069 4.93994,-17.00736c2.15056,-2.07854 5.56798,-2.76045 8.20135,-4.0127c7.18086,-3.36569 15.52593,-2.70208 23.2839,-2.70208c7.98135,0 16.38214,-0.76936 22.71007,4.72615c3.61451,3.13902 8.08575,5.22953 9.07471,10.31656c1.66322,-1.46255 1.90457,-3.34854 2.41676,-5.43616c0.92072,-3.75273 1.85325,-7.50262 2.77988,-11.25391c3.19977,-12.95383 6.23553,-25.94472 9.13626,-38.96864c0.67423,-2.69737 1.70054,-5.54868 2.08364,-8.30106c0.79895,-5.74039 0.41665,-11.82196 2.20817,-17.45596c0.57835,-1.81883 1.97167,-3.32223 2.47459,-5.16333c0.24141,-0.88378 0.09312,-5.44968 0.28688,-5.87632c0.44613,-0.98226 1.73578,-1.31661 2.41456,-2.15515c1.15299,-1.42439 1.68758,-3.25351 2.5269,-4.88256l0.87874,-1.70549c0,0 0.6637,-1.28808 1.95178,-0.62439z" data-paper-data="{&quot;index&quot;:null}" fill="#d221e7" stroke="none" stroke-width="1" stroke-linecap="butt"/><g><path d="M388.98992,142.83052l0.20773,-4.48529l1.92891,-45.97645c0,0 11.24388,-6.36431 17.20893,-6.4918c5.7275,-0.12242 17.89765,5.74141 17.89765,5.74141l-2.66485,54.94365l-33.94076,-3.40422l-1.44733,0.4655z" data-paper-data="{&quot;index&quot;:null}" fill="none" stroke="#000000" stroke-width="0" stroke-linecap="round"/><path d="M25.78226,59.79633l4.1741,3.19488l14.63343,0.13989l127.80533,-36.87198l0.82325,-7.23713l137.50552,15.64148l1.17216,15.10898l66.13588,-15.65854l-4.96053,-37.91082l196.86263,-52.02691l24.53186,255.83041l-137.61322,2.56953l-0.71069,-7.69217l-87.20414,2.38781l-174.92597,45.99959l-199.84355,-5.70462l-12.04922,-127.65529l5.24171,-0.66106l-3.13095,-37.71391z" fill="url(#color-1)" stroke="#000000" stroke-width="1" stroke-linecap="round"/><path d="M-12.49634,108.88364l-18.92553,3.69291l-2.11173,-5.63794l20.67817,-3.85484z" fill="url(#color-2)" stroke="#000000" stroke-width="1" stroke-linecap="round"/><path d="M-26.60806,154.15629l45.20164,-4.35304l61.92584,-93.57068l101.03079,69.01397l158.06619,-7.18021l45.72167,-40.81343l61.35301,28.88784l145.24534,-18.72232l-1.64404,8.98985l-2.99566,0.1l-147.33323,15.73355l-52.07668,-27.49124l-43.27087,38.64266l-165.91445,9.76129l-95.26237,-66.36525l-57.97075,87.59317l-51.27106,5.62084z" fill="url(#color-3)" stroke="url(#color-4)" stroke-width="1" stroke-linecap="round"/><path d="M25.82309,59.69522l-50.65288,14.22492l-5.56839,-4.78828l59.8742,-17.72828l14.15915,5.93893l122.07726,-36.55554l-2.54609,-8.42597l158.41483,18.59442l-1.84121,4.9426l-146.39218,-16.17001l-1.31256,6.83811l-127.8495,36.73532l-15.58507,-0.32765z" fill="url(#color-5)" stroke="url(#color-6)" stroke-width="1" stroke-linecap="round"/><path d="M311.03585,41.65142l5.41981,1.26685l60.85051,-14.81357l1.65072,6.38757l-67.84484,15.63657z" fill="url(#color-7)" stroke="#000000" stroke-width="1" stroke-linecap="round"/><path d="M359.79438,-6.46875l223.1487,-61.80205l-1.08585,9.29179l-218.08321,57.79887z" fill="url(#color-8)" stroke="#000000" stroke-width="1" stroke-linecap="round"/><path d="M474.01016,67.0275l-7.40326,-68.64972l2.88991,-6.98383l10.53672,-8.39738l8.56597,-4.85689l7.12102,-1.36498l10.89868,-0.65344l9.53184,1.77072l11.14445,3.9196l8.53102,77.02996z" fill="#fbfafa" stroke="#000000" stroke-width="1" stroke-linecap="round"/><path d="M479.35089,57.87288l-6.52908,-62.05783l7.38484,-6.16183l7.43343,-5.63604l8.76029,-2.75371l10.53197,-0.79633l13.77339,3.6767l6.39335,67.28476z" fill="#465979" stroke="#000000" stroke-width="1" stroke-linecap="round"/><path d="M438.48847,70.92809l-39.67132,4.90263l-4.7712,-47.81439l39.73037,-8.08974z" fill="#fbfafa" stroke="#000000" stroke-width="1" stroke-linecap="round"/><path d="M434.70221,64.38432l-31.83022,5.59225l-4.8512,-37.20146l32.53128,-5.65703z" fill="#272b2b" stroke="#000000" stroke-width="1" stroke-linecap="round"/><path d="M384.57702,77.1464l-48.70403,6.62098l-4.43876,-38.47686l47.23144,-11.08066z" fill="#fbfafa" stroke="#000000" stroke-width="1" stroke-linecap="round"/><path d="M383.35494,69.65868l-42.44031,7.45633l-3.86628,-28.45449l43.028,-8.74793z" fill="#272b2b" stroke="#000000" stroke-width="1" stroke-linecap="round"/><path d="M78.99241,207.10486l-4.78834,-59.47891l4.72352,-6.26947l10.55577,-6.27802l6.53045,-2.01742l9.76899,0.51147l12.34176,5.3998l10.39768,5.40265l5.6761,67.17428l-55.24878,-1.08201z" fill="#fbfafa" stroke="#000000" stroke-width="1" stroke-linecap="round"/><path d="M83.82166,207.71922l-4.17016,-50.87482l4.19774,-6.22089l6.09608,-4.80545l6.73525,-3.62719l8.50691,-1.66978l6.18564,1.90312l12.77611,8.18781l4.81095,55.89745l-45.87886,-1.06392z" fill="#161c21" stroke="#000000" stroke-width="1" stroke-linecap="round"/><path d="M-9.32319,207.79646l179.65498,4.08209l197.9623,-40.73858l1.52022,26.01988l-177.50032,46.97897l-198.72798,-6.56211z" fill="#453e3c" stroke="#000000" stroke-width="1" stroke-linecap="round"/><path d="M45.08019,240.11035l-4.30751,-0.70678l-34.61348,-1.57446l-6.11618,-73.85046l39.60944,-3.6596z" fill="#fbfafa" stroke="#000000" stroke-width="1" stroke-linecap="round"/><path d="M45.91603,239.59123l-33.9772,-2.3403l-5.03173,-67.85246l33.17327,-2.53468z" fill="url(#color-9)" stroke="#000000" stroke-width="1" stroke-linecap="round"/><path d="M41.68298,178.47019l-29.97282,0.82492l-0.32957,-7.39342l29.07746,-2.86329z" fill="#161c21" stroke="#000000" stroke-width="1" stroke-linecap="round"/><path d="M212.53226,238.38209l-8.53249,-94.26383l96.20599,-7.12108l8.66176,76.53178z" fill="#fbfafa" stroke="#000000" stroke-width="1" stroke-linecap="round"/><path d="M217.97349,237.96775l-7.94264,-85.96645l84.09382,-8.12313l7.30777,71.44249z" fill="url(#color-10)" stroke="#000000" stroke-width="1" stroke-linecap="round"/><path d="M290.42201,153.54428l-80.0761,9.51951l-0.49151,-9.14606l79.55318,-7.52685z" fill="#161c21" stroke="#000000" stroke-width="1" stroke-linecap="round"/><path d="M341.51787,204.85604l-24.03768,5.75608l-9.16898,-80.1085l24.37774,-2.07555z" fill="#0a0c0a" stroke="#000000" stroke-width="1" stroke-linecap="round"/><path d="M342.05176,204.89509l-24.38822,5.78845l-8.1836,-65.6169l24.87115,-2.47466z" fill="#592d2a" stroke="#000000" stroke-width="1" stroke-linecap="round"/><path d="M339.37821,123.34687l36.94522,-5.71133l8.83083,66.8828l-41.9688,2.99381z" fill="#fbfafa" stroke="#000000" stroke-width="1" stroke-linecap="round"/><path d="M343.14542,127.77131l29.39558,-3.2462l5.65895,55.50977l-30.51479,0.69822l-3.50435,-53.2342z" fill="#0a0c0a" stroke="#000000" stroke-width="1" stroke-linecap="round"/><path d="M404.43034,197.05488l-8.7994,-78.02151l9.61468,-6.89815l10.92535,-4.19108l7.67919,-1.06302l9.11653,1.10204l6.88955,3.78244l3.15474,-0.29147l6.58221,84.63389z" fill="#fbfafa" stroke="#000000" stroke-width="1" stroke-linecap="round"/><path d="M409.16649,196.66148l-3.57772,-59.7675l39.62562,-3.48434l4.13874,62.01355z" fill="#281b1a" stroke="#000000" stroke-width="1" stroke-linecap="round"/><path d="M422.59982,196.65766l-4.98267,-61.58206l21.65449,-0.94015l4.63214,61.61444z" fill="#592d2a" stroke="#000000" stroke-width="1" stroke-linecap="round"/><path d="M414.41957,138.72948l1.65167,17.87681l-6.45234,0.94966l-0.96684,-18.11685z" fill="#292c26" stroke="#000000" stroke-width="1" stroke-linecap="round"/><path d="M422.97793,139.52956l13.46285,-1.59738l1.5488,12.93707l-14.24202,2.72992z" fill="#292c26" stroke="#000000" stroke-width="1" stroke-linecap="round"/><path d="M445.84689,151.73415l-2.94707,0.6258l-0.69156,-15.13738l2.46986,-0.05144z" fill="#292c26" stroke="#000000" stroke-width="1" stroke-linecap="round"/><path d="M443.44105,127.60785l-40.21331,4.77596l-0.07905,-10.42147l13.98005,-7.4782l7.91636,-2.32225l10.64531,0.43053l7.6687,2.64989z" fill="#1a1a1a" stroke="#000000" stroke-width="1" stroke-linecap="round"/><path d="M541.09676,101.26286l8.88323,80.84191l-64.57581,3.66844l-7.54019,-77.78433z" fill="#fbfafa" stroke="#000000" stroke-width="1" stroke-linecap="round"/><path d="M486.96244,110.32991l47.17811,-4.00537l8.34434,69.26981l-50.0309,3.73866l-6.14926,-66.55607z" fill="#292c26" stroke="#000000" stroke-width="1" stroke-linecap="round"/><path d="M28.47801,61.77172l4.10398,51.32855l-39.29533,7.67359l-3.71412,-47.1088z" fill="#f6f7f3" stroke="#000000" stroke-width="1" stroke-linecap="round"/><path d="M-6.62278,77.99489l31.54384,-8.6597l2.97337,39.09124l-31.12531,6.28037z" fill="#4e5959" stroke="#000000" stroke-width="1" stroke-linecap="round"/><path d="M163.00516,-38.15857c-0.34622,-0.14829 -1.84029,-0.91409 -1.17557,-2.85517c0.74938,-2.18839 2.74395,-1.49388 2.74395,-1.49388l0.91882,0.46513c4.93896,4.24969 9.65508,8.64528 14.3531,13.19568c5.76721,5.59732 12.68,9.50652 18.78249,14.64832c12.42595,10.4698 22.91386,23.33044 35.42564,33.73924c0,0 1.64335,1.36714 0.2872,3.2117c-1.35612,1.84456 -2.99952,0.4774 -2.99952,0.4774c-12.52449,-10.41949 -23.02184,-23.29659 -35.46221,-33.7701c-6.17321,-5.19716 -13.12778,-9.1707 -18.97221,-14.82073c-4.55388,-4.41075 -9.12263,-8.67321 -13.90169,-12.79767z" data-paper-data="{&quot;index&quot;:null}" fill="#000000" stroke="none" stroke-width="1" stroke-linecap="butt"/><path d="M298.27179,-47.37748c1.84814,1.17571 0.81774,3.16354 0.81774,3.16354l-0.94837,1.8149c-0.797,1.28392 -1.59405,2.56787 -2.39108,3.85181c-14.73063,20.10976 -27.67164,43.09035 -46.70894,58.77603c0,0 -1.669,1.37276 -2.96975,-0.48445c-1.30074,-1.85722 0.36827,-3.22998 0.36827,-3.22998c18.72402,-15.37147 31.39588,-38.13085 45.88083,-57.86238c0.76566,-1.23555 1.53138,-2.47107 2.2971,-3.70664l0.77561,-1.51071c0,0 1.03044,-1.98781 2.87861,-0.81212z" data-paper-data="{&quot;index&quot;:null}" fill="#000000" stroke="none" stroke-width="1" stroke-linecap="butt"/><path d="M214.81911,33.93262c3.13227,1.60633 3.63431,3.67575 5.14575,6.78639c2.74028,5.63965 4.40558,10.76233 5.33181,16.98838c0.45598,8.03376 1.09771,19.56615 -5.41777,25.2819c-6.38561,3.07239 -13.29113,5.42859 -20.00071,1.732c-2.1948,-1.20921 -4.09815,-3.88754 -5.75555,-5.75149c-4.05876,-8.42924 -4.50037,-18.40203 -3.10117,-27.51374c0.4358,-4.64859 1.17838,-9.08494 2.25455,-13.62312c0.59767,-2.5204 0.98094,-4.78977 3.38742,-5.95885l0.58395,-0.41303c0,0 0.13675,-0.10015 0.23246,-0.26984c5.99031,-1.81811 11.48262,0.30861 17.33925,2.74138z" data-paper-data="{&quot;noHover&quot;:false,&quot;origItem&quot;:[&quot;Path&quot;,{&quot;applyMatrix&quot;:true,&quot;segments&quot;:[[[463.02145,118.92474],[11.94148,-3.76279],[-0.18782,0.34138]],[462.56327,119.46889],[[461.40637,120.30632],[0,0],[-4.78797,2.38894]],[[454.7767,132.28436],[1.14195,-5.05316],[-2.05618,9.09862]],[[450.59007,159.5336],[0.77318,-9.30587],[-2.60543,18.25199]],[[457.33707,214.37126],[-8.29546,-16.77166],[3.35404,3.69263]],[[468.94246,225.73925],[-4.41495,-2.37184],[13.49664,7.25079]],[[508.8316,221.85864],[-12.70549,6.27955],[12.90926,-11.56875]],[[519.07651,171.27858],[1.08192,16.05697],[-1.9841,-12.43181]],[[508.09898,137.49402],[5.59959,11.22069],[-3.08854,-6.18895]],[[497.69355,124.0439],[6.29819,3.14621],[-11.7641,-4.74133]]],&quot;closed&quot;:true}]}" fill="#ffffff" stroke="none" stroke-width="0.5" stroke-linecap="butt"/><path d="M267.76825,38.93971c3.00182,0.34458 3.87009,2.95463 4.77429,5.50549c2.09927,5.92222 2.1213,12.47599 1.80757,18.66353c-0.41907,8.28941 2.5334,18.50664 -4.09017,24.93001c-5.96453,6.79181 -17.81219,1.32285 -23.73803,-2.43862c-2.64114,-2.1775 -1.78613,-4.91528 -1.93408,-8.05637c-0.27168,-5.76794 -0.24263,-11.55043 0.3109,-17.29342c0.53607,-5.59815 -0.0503,-11.58504 1.10912,-17.07261c0.18523,-0.87671 0.19716,-4.54536 1.00422,-5.02167c0.012,-0.00708 0.02413,-0.014 0.03628,-0.02073c0.36666,-0.1033 0.73803,-0.20081 1.1102,-0.2909c0.26661,-0.03763 0.53452,-0.07779 0.78396,-0.16473l0.13717,-0.04402c6.15019,-1.29646 12.94253,-0.83465 18.68858,1.30404z" data-paper-data="{&quot;noHover&quot;:false,&quot;origItem&quot;:[&quot;Path&quot;,{&quot;applyMatrix&quot;:true,&quot;segments&quot;:[[[566.35295,130.72043],[12.27227,-2.72292],[0,0]],[[566.08002,130.81116],[0,0],[-0.49701,0.17916]],[[564.51821,131.15611],[0.53239,-0.0809],[-0.7424,0.18804]],[[562.30763,131.75969],[0.73107,-0.21435],[-0.02414,0.0137]],[[562.23565,131.80185],[0.02385,-0.01442],[-1.60395,0.96966]],[[560.34435,141.85964],[0.35189,-1.75725],[-2.20257,10.99907]],[[558.52911,175.96742],[0.95361,-11.20702],[-0.98546,11.49706]],[[558.25012,210.46726],[-0.66539,-11.52947],[0.36236,6.27868]],[[562.26585,226.51965],[-5.32806,-4.29887],[11.93061,7.39711]],[[609.69817,230.88926],[-11.78467,13.70908],[13.11047,-12.98617]],[[617.29234,181.04419],[-0.66268,16.58674],[0.49649,-12.38105]],[[613.32811,143.83386],[4.32361,11.79936],[-1.86229,-5.08228]],[[603.68782,132.93587],[6.0106,0.62561],[-11.53671,-4.15555]]],&quot;closed&quot;:true}]}" fill="#ffffff" stroke="none" stroke-width="0.5" stroke-linecap="butt"/><path d="M218.82865,59.71245c0.01608,-1.5187 1.26024,-2.73682 2.77894,-2.72075c1.5187,0.01608 2.73682,1.26025 2.72075,2.77895c-0.01607,1.5187 -1.26024,2.73682 -2.77894,2.72074c-1.5187,-0.01608 -2.73682,-1.26024 -2.72075,-2.77894z" fill="#000000" stroke="none" stroke-width="0.5" stroke-linecap="butt"/><path d="M267.74194,63.8878c0.01607,-1.5187 1.26024,-2.73682 2.77894,-2.72074c1.5187,0.01608 2.73682,1.26025 2.72075,2.77895c-0.01607,1.5187 -1.26025,2.73682 -2.77895,2.72074c-1.5187,-0.01608 -2.73682,-1.26025 -2.72074,-2.77895z" fill="#000000" stroke="none" stroke-width="0.5" stroke-linecap="butt"/><path d="M189.07924,150.3679c-0.7465,0.07234 -0.81884,-0.67417 -0.81884,-0.67417l-0.01239,-0.12784c-0.68734,-7.09318 -1.09637,-14.21557 -1.95449,-21.29207c-1.01578,-8.38116 -1.95497,-16.34361 5.40302,-22.18706c1.82732,-1.45119 4.13878,-2.33829 6.14605,-3.50901c4.53881,-2.64046 9.98573,-3.73314 15.04878,-4.95097c4.26406,-1.02565 8.35516,-2.36607 12.74652,-2.75456c2.55914,-0.22618 4.98963,-0.09172 7.53838,-0.09026c2.63014,0.00151 5.16444,-0.91029 7.80637,-0.95561c4.60717,-0.07902 9.45022,0.20454 13.88781,1.45275c9.86727,2.8054 16.07857,9.32669 19.77172,18.7096c2.17754,5.54627 3.50057,12.38273 3.41649,18.36271c-0.0246,1.74938 0.42338,3.55492 0.05124,5.26096c0,0 -0.16744,0.73107 -0.89851,0.56363c-0.73107,-0.16744 -0.56363,-0.89851 -0.56363,-0.89851c0.37498,-1.53804 -0.11138,-3.352 -0.08895,-4.94717c0.08125,-5.78006 -1.19839,-12.43297 -3.31246,-17.79235c-3.51057,-8.92322 -9.35169,-15.19206 -18.7822,-17.81494c-4.29676,-1.20949 -8.99557,-1.4734 -13.45578,-1.3969c-2.64345,0.04534 -5.17395,0.95365 -7.81105,0.95568c-2.51346,0.00194 -4.90324,-0.13889 -7.42724,0.08457c-4.31493,0.38166 -8.33702,1.71016 -12.5278,2.71876c-4.91023,1.18176 -10.24576,2.21749 -14.6441,4.78839c-1.93846,1.13001 -4.2069,1.98047 -5.96718,3.38658c-6.88935,5.5032 -5.80014,12.9801 -4.84836,20.8332c0.85867,7.08862 1.26988,14.22268 1.95839,21.32787l0.01239,0.12784c0,0 0.07234,0.7465 -0.67417,0.81884z" fill="#000000" stroke="none" stroke-width="0.5" stroke-linecap="butt"/><path d="M189.74957,44.77119c-0.07234,-0.7465 0.67417,-0.81884 0.67417,-0.81884l0.10907,-0.00206c0.36092,-2.14024 0.79553,-4.27011 1.31282,-6.42365c0.48597,-2.02312 0.9069,-3.85507 2.03144,-5.26411l0.00002,0c-0.0634,-0.0612 -0.1223,-0.14138 -0.17296,-0.24544c-0.3283,-0.67433 0.34604,-1.00262 0.34604,-1.00262c7.69292,-3.64527 14.06258,-1.39036 21.3845,1.60457c2.95117,1.51621 3.34206,2.52465 4.71221,5.5012c1.2504,2.71644 2.81539,5.3517 4.07023,8.05956c1.61835,3.49225 1.96562,7.63747 2.52178,11.37691c0.49904,8.69529 1.03812,20.51365 -6.05416,26.63859c-6.81382,3.35148 -14.37473,5.82341 -21.53041,1.78376c-2.40019,-1.355 -4.45529,-4.15307 -6.25253,-6.21985c-4.28041,-8.71222 -4.77713,-19.01136 -3.32294,-28.46756c0.18548,-1.98787 0.42249,-3.93613 0.7176,-5.86965c-0.22128,-0.05188 -0.50377,-0.20596 -0.54688,-0.6508zM224.08636,53.42613c-3.82012,-2.07626 -9.30874,-3.69416 -13.64231,-4.4813c-3.12231,-0.56713 -6.61424,-0.36843 -9.58435,-1.48899c-2.6107,-1.1906 -6.10281,-1.31928 -9.07335,-1.81803c-0.29523,1.9219 -0.53325,3.8586 -0.71878,5.83765c-1.3992,9.11169 -0.97557,19.02375 3.0832,27.45299c1.6574,1.86395 3.54742,4.53587 5.74222,5.74508c6.70958,3.69659 13.57838,1.34322 19.96399,-1.72916c6.51547,-5.71576 5.84574,-17.20065 5.38976,-25.23441c-0.21591,-1.45132 -0.47078,-2.84057 -0.76942,-4.18926c-0.21711,-0.00154 -0.39094,-0.09457 -0.39094,-0.09457z" fill="#000000" stroke="none" stroke-width="0.5" stroke-linecap="butt"/><path d="M276.65598,51.18907c0.07234,0.7465 -0.67417,0.81884 -0.67417,0.81884l-0.12784,0.01239c-0.06135,0.00388 -0.12434,0.00889 -0.18889,0.01502c0.38591,3.70561 0.3188,7.47791 0.13323,11.15257c-0.44618,8.8091 2.48999,18.96536 -4.47419,25.84146c-6.65802,7.33765 -18.98866,2.00848 -25.6622,-2.26157c-3.11382,-2.63191 -2.36055,-5.42951 -2.53389,-9.16386c-0.27134,-5.84566 -0.23493,-11.66495 0.32601,-17.48487c0.04616,-0.47562 0.08415,-0.95365 0.11573,-1.43364c-0.11549,-0.09135 -0.21288,-0.23543 -0.25386,-0.46096c-0.07625,-0.41965 0.12952,-0.64401 0.3212,-0.75948c0.22078,-4.85365 -0.0584,-9.8641 0.93015,-14.55411c0.223,-1.05801 0.22079,-2.74603 0.58435,-4.11923c-0.04611,0.01646 -0.09214,0.03305 -0.13812,0.04973c0,0 -0.70499,0.2559 -0.96089,-0.4491c-0.2559,-0.70499 0.4491,-0.9609 0.4491,-0.9609c0.63898,-0.23193 1.29035,-0.44355 1.95189,-0.63483c0.3028,-0.15215 0.64864,-0.21609 0.99985,-0.27169c0.41773,-0.10637 0.83896,-0.20485 1.26319,-0.29544l0.11527,-0.03716c0,0 0.09687,-0.03115 0.23072,-0.03483l-0.00001,0.00001c6.29378,-1.27557 13.21072,-0.82598 19.0495,1.37352c3.53212,0.48067 4.74474,3.41317 5.81658,6.45431c0.75186,2.13326 1.24597,4.33581 1.55697,6.57098c0.07633,-0.01066 0.15091,-0.02032 0.22364,-0.02894l0.12784,-0.01239c0,0 0.7465,-0.07234 0.81884,0.67417zM267.99446,54.57303c-3.91399,0.42563 -7.79861,0.32681 -11.68763,1.14185c-3.78145,0.7925 -7.43611,2.15065 -11.23522,2.94085c-0.03281,0.53853 -0.07347,1.07451 -0.12448,1.60724c-0.55353,5.74299 -0.59368,11.47954 -0.32201,17.24748c0.14796,3.14107 -0.71831,5.86949 1.92283,8.04699c5.92584,3.76147 17.72718,9.22743 23.69171,2.43562c6.62357,-6.42336 3.6415,-16.59157 4.06058,-24.88096c0.18032,-3.55641 0.25713,-7.22111 -0.10876,-10.81922c-2.09643,0.48981 -4.76916,1.51796 -6.19702,2.28016z" fill="#000000" stroke="none" stroke-width="0.5" stroke-linecap="butt"/></g></g></g></svg>