<svg version="1.1" xmlns="http://www.w3.org/2000/svg" xmlns:xlink="http://www.w3.org/1999/xlink" width="2878.25006" height="1619.57958" viewBox="0,0,2878.25006,1619.57958"><defs><linearGradient x1="170.36762" y1="149.90826" x2="771.26013" y2="123.76293" gradientUnits="userSpaceOnUse" id="color-1"><stop offset="0" stop-color="#ff00e1"/><stop offset="1" stop-color="#00b8ff"/></linearGradient><linearGradient x1="154.06373" y1="127.46395" x2="174.98906" y2="126.55347" gradientUnits="userSpaceOnUse" id="color-2"><stop offset="0" stop-color="#45ff00"/><stop offset="1" stop-color="#ff00e1"/></linearGradient><linearGradient x1="156.82387" y1="132.18871" x2="778.29697" y2="105.14792" gradientUnits="userSpaceOnUse" id="color-3"><stop offset="0" stop-color="#feff00"/><stop offset="1" stop-color="#03ff51"/></linearGradient><linearGradient x1="156.82387" y1="132.18871" x2="778.29697" y2="105.14792" gradientUnits="userSpaceOnUse" id="color-4"><stop offset="0" stop-color="#feff00"/><stop offset="1" stop-color="#03ff51"/></linearGradient><linearGradient x1="158.22289" y1="71.215" x2="511.88713" y2="55.82678" gradientUnits="userSpaceOnUse" id="color-5"><stop offset="0" stop-color="#45ff00"/><stop offset="1" stop-color="#ff00e1"/></linearGradient><linearGradient x1="158.22289" y1="71.215" x2="511.88713" y2="55.82678" gradientUnits="userSpaceOnUse" id="color-6"><stop offset="0" stop-color="#45ff00"/><stop offset="1" stop-color="#ff00e1"/></linearGradient><linearGradient x1="500.63575" y1="77.63362" x2="569.56622" y2="74.63438" gradientUnits="userSpaceOnUse" id="color-7"><stop offset="0" stop-color="#45ff00"/><stop offset="1" stop-color="#ff00e1"/></linearGradient><linearGradient x1="551.5881" y1="13.71104" x2="779.26081" y2="3.80481" gradientUnits="userSpaceOnUse" id="color-8"><stop offset="0" stop-color="#45ff00"/><stop offset="1" stop-color="#ff00e1"/></linearGradient><linearGradient x1="191.70141" y1="226.64297" x2="226.16664" y2="225.14334" gradientUnits="userSpaceOnUse" id="color-9"><stop offset="0" stop-color="#ff0000"/><stop offset="1" stop-color="#45ff00"/></linearGradient><linearGradient x1="396.93337" y1="225.33277" x2="482.04138" y2="221.62965" gradientUnits="userSpaceOnUse" id="color-10"><stop offset="0" stop-color="#0030ff"/><stop offset="1" stop-color="#ff0303"/></linearGradient></defs><g transform="translate(1117.37278,629.80931)"><g data-paper-data="{&quot;isPaintingLayer&quot;:true}" fill-rule="nonzero" stroke-linejoin="miter" stroke-miterlimit="10" stroke-dasharray="" stroke-dashoffset="0" style="mix-blend-mode: normal"><path d="M490.05315,168.74211c2.80575,-0.70388 5.61021,-1.40736 8.40737,-2.1448c1.39913,-0.36886 3.00903,-0.25388 4.32045,-0.79467c-0.26772,-1.76696 -0.53544,-3.53391 -0.80316,-5.30086c0,0 -0.21708,-1.43267 1.21559,-1.64974c1.43267,-0.21708 1.64974,1.21559 1.64974,1.21559c0.12824,0.84642 0.25648,1.69281 0.38472,2.53922c0.16808,-0.0682 0.35187,-0.10574 0.54444,-0.10574c0.65099,0 1.20173,0.42929 1.38453,1.02024l0.8798,2.62492c1.83165,3.34205 3.65474,6.68877 5.47967,10.03451c3.96232,7.26561 5.90992,15.84525 8.45405,23.67189c1.08937,3.35128 0.47574,7.20579 1.19182,10.55612c0.78797,3.68673 4.03126,5.79543 5.66915,8.92027c1.72187,3.28511 2.98343,7.12458 4.67696,10.51755c2.71615,7.27523 5.47536,13.94942 9.21493,20.74607c0.97077,1.76438 1.97073,5.31099 3.9213,6.31414c1.66332,0.85543 5.2465,-2.09373 6.67959,-2.39717c6.46061,-1.36788 14.48631,0.54928 20.56013,2.53245c7.71168,1.98943 15.09127,4.012 21.93064,8.29433c10.91059,6.83148 18.38925,17.85217 24.89689,28.6547c7.08507,11.76107 10.15744,25.0043 13.68542,38.16818c1.74559,6.5133 4.38835,13.1445 5.0497,19.85265c0.10118,1.04847 0.73469,6.33951 0.15424,6.91767c-0.98306,0.97915 -2.77202,0.32742 -4.15609,0.23018c-3.5973,-0.25276 -7.68122,-1.88223 -11.14942,-2.87298c-3.68978,-1.05408 -6.97837,-1.38937 -10.71658,-2.01266c-9.57664,-1.5968 -18.26141,-4.10771 -28.08855,-4.23712c-4.90902,-0.06466 -9.84479,-0.27719 -14.67993,-1.24539c-3.74509,-0.74992 -7.32403,-2.68391 -11.04206,-3.33382c-2.49192,-0.43559 -5.561,0.01876 -8.09017,0.01889c-5.34672,0.00023 -11.8732,-1.01442 -17.10392,0.05469c-3.16189,0.64626 -5.41632,1.10437 -8.77068,1.10437c-4.66243,-0.00008 -9.4042,0.09758 -14.0569,-0.20212c-7.44779,-0.47973 -15.26213,-1.87331 -22.74545,-0.83869c-2.80263,0.38747 -5.52743,1.7181 -8.30636,2.26816c-4.78765,0.9477 -9.69438,1.30758 -14.50152,2.24754c-1.14175,-0.18858 -2.61202,0.25757 -3.42525,-0.56572c-0.89613,-0.90725 -0.59491,-2.48138 -0.82376,-3.73588c-0.71557,-3.92285 -0.68703,-7.72985 -0.80399,-11.68871c-0.14891,-5.04001 -2.20491,-8.83925 -3.525,-13.58481c-2.5844,-9.29062 -3.65229,-18.94313 -6.31212,-28.25256c-5.56383,-19.47346 -10.9339,-39.06642 -15.09554,-58.8959c-2.37067,-11.29834 -5.70854,-22.82683 -6.32467,-34.39013c-0.46988,-8.81868 0.68445,-17.4967 1.69581,-26.22993c0.20107,-1.73619 0.09956,-8.18464 1.14041,-9.37862c2.50263,-2.87087 6.68391,-0.42209 9.6095,-0.26731c4.12802,0.21838 8.1715,1.00576 12.21019,1.83728c1.07614,-0.81906 2.74651,0.49557 4.08936,0.82226c0.10773,0.02621 0.21522,0.05218 0.32252,0.07792c1.16926,0.22951 2.34055,0.44674 3.51576,0.63904c4.27085,0.69879 8.56734,0.99032 12.79444,1.87074c3.18016,0.42067 6.34231,0.94941 9.31913,1.81875c1.828,-0.49909 3.65212,-0.98818 5.47286,-1.44493zM502.00159,168.66083c-2.79049,0.7939 -5.61864,1.48116 -8.43232,2.18704c-1.39341,0.34956 -2.79062,0.71786 -4.19133,1.09625c2.95553,1.26129 5.76979,2.68172 8.82316,3.63679c0.42395,-0.51621 1.15213,-0.51621 1.15213,-0.51621l0.12139,0.07437c0.82499,-0.2667 3.38338,-1.34573 4.62647,-0.62371c-0.30741,-2.02882 -0.61479,-4.05763 -0.92219,-6.08645c-0.40073,0.06377 -0.80226,0.12523 -1.1773,0.23192z" data-paper-data="{&quot;index&quot;:null}" fill="#d221e7" stroke="none" stroke-width="1" stroke-linecap="butt"/><path d="M253.67309,167.42909c0.7498,1.23993 -0.49013,1.98974 -0.49013,1.98974l-1.16358,0.70364c4.2086,1.62929 9.92133,0.72015 14.25991,1.46423c5.01702,0.86044 8.84582,3.10165 13.42207,4.87524c2.78327,1.0787 5.59591,0.14731 8.40429,0.7846c3.89609,0.88411 7.73323,3.49398 10.58233,6.14904c4.71899,4.44645 11.11794,7.46281 16.63912,10.85657c2.74112,1.68492 5.68901,4.20596 8.68056,5.35774c2.90016,1.11658 5.38701,1.80186 8.06593,3.59343c1.06898,0.7149 2.69529,1.06873 3.10703,2.28705c0.41052,1.2147 -0.67817,2.47453 -1.08716,3.68975c-1.50404,4.46905 -3.28931,9.13056 -5.74683,13.14522c-1.97941,3.22023 -3.75676,7.15163 -6.18756,10.03956c-2.61546,3.10733 -6.87477,3.95193 -10.191,6.16216c-2.27375,1.51544 -4.9034,3.15645 -7.01954,4.87978c-0.84831,0.69084 -3.38072,3.59408 -4.17914,4.15756c-1.57554,1.11195 -3.65796,1.35966 -5.22499,2.48357c-1.56023,1.11902 -2.47584,2.97961 -4.0074,4.13758c-3.02651,2.28824 -6.6843,3.90801 -9.79847,6.18598c-6.95782,5.08957 -13.85745,10.33241 -20.12017,16.27654c-4.04574,3.83995 -8.49058,7.99126 -12.00601,12.31819c-0.73413,0.9036 -2.56168,4.0497 -3.27558,4.85581c-2.52128,2.84688 -6.02298,5.22994 -8.90141,7.72135c-10.85054,9.39158 -21.63383,18.51531 -31.68344,28.73813c-3.94559,4.0136 -8.29004,7.86502 -11.50745,12.48038c-1.03909,0.07065 -2.14108,-0.15104 -3.11728,0.21193c-1.00185,0.37247 -1.51857,1.76924 -2.57866,1.9059c-1.09083,0.14063 -2.09379,-0.69494 -3.08287,-1.17601c-3.43711,-1.67172 -6.69411,-4.11074 -9.95199,-6.11416c-4.89278,-3.00882 -9.94529,-6.48652 -14.34385,-10.19211c-2.19974,-1.85318 -3.98783,-4.22155 -6.22361,-6.02863c-3.76302,-3.04146 -8.09126,-4.97629 -11.5174,-8.45914c-3.90247,-3.98708 -7.78021,-8.64355 -12.18789,-12.06898c-6.69869,-5.20587 -14.4454,-8.91099 -21.09815,-14.32708c-0.12192,-0.09925 -4.48043,-3.8964 -4.53328,-3.9548c-1.27415,-1.40805 -1.91034,-3.34224 -3.27892,-4.65868c-1.32709,-1.27654 -3.10021,-1.98788 -4.64333,-2.99263c-3.15895,-2.06073 -5.75528,-4.69983 -8.79539,-6.89562c-3.61173,-2.60867 -7.89531,-3.73801 -11.72867,-5.93843c-0.67543,-0.38772 -5.09103,-2.89915 -5.23998,-3.61585c-0.63031,-3.03274 2.4368,-3.49432 3.86098,-4.77412c2.00741,-1.8039 3.54521,-4.57406 5.29207,-6.63721c3.12535,-3.69128 6.46063,-7.22532 9.68491,-10.83081c2.51502,-2.81236 5.38152,-5.53441 7.64993,-8.54674c2.72667,-3.62087 4.34078,-8.49204 7.39593,-11.82863c1.94581,-2.12502 4.96157,-3.27949 7.04972,-5.25914c4.47728,-4.24467 6.45908,-10.4332 13.11458,-11.90215c2.92057,-0.64459 6.18905,0.56404 9.08824,0.87622c7.88005,0.89303 14.64192,5.82838 21.25113,9.89093c6.79952,4.17953 14.35925,7.92328 16.87239,15.91874c1.43551,4.567 4.14995,8.68938 2.32858,13.54103c2.18282,-0.37502 3.37606,-1.85536 4.90561,-3.36564c2.74955,-2.7149 5.50767,-5.4212 8.2615,-8.13178c9.5094,-9.3601 18.89849,-18.83766 28.18983,-28.41407c1.98691,-1.94489 4.35437,-3.83655 6.12206,-5.98076c3.68667,-4.47201 6.54567,-9.85325 11.02223,-13.71485c1.44516,-1.24665 3.41944,-1.7978 4.81201,-3.10292c0.66847,-0.6265 2.93312,-4.59396 3.32161,-4.85596c0.89444,-0.60319 2.16822,-0.21269 3.1856,-0.57161c1.72816,-0.6097 3.14143,-1.88803 4.70955,-2.83634l1.64172,-0.99279c0,0 1.23994,-0.74979 1.98974,0.49014z" data-paper-data="{&quot;index&quot;:null}" fill="#d221e7" stroke="none" stroke-width="1" stroke-linecap="butt"/><path d="M-1117.37278,989.77027v-1619.57958h2878.25006v1619.57958z" fill="none" stroke="#000000" stroke-width="0" stroke-linecap="butt"/><path d="M-1117.37278,989.77027v-1619.57958h2878.25006v1619.57958z" fill="none" stroke="#000000" stroke-width="0" stroke-linecap="butt"/><g><path d="M574.25789,181.92563l0.4256,-4.46988l4.16237,-45.82826c0,0 11.54006,-5.81001 17.50425,-5.64728c5.72667,0.15624 17.59729,6.60494 17.59729,6.60494l-5.3335,54.74907l-33.73506,-5.05066l-1.46826,0.39456z" data-paper-data="{&quot;index&quot;:null}" fill="none" stroke="#000000" stroke-width="0" stroke-linecap="round"/><path d="M215.51772,81.32757l4.01379,3.39408l14.60931,0.85132l129.44715,-30.61343l1.1742,-7.18853l136.58223,22.3096l0.43605,15.1481l66.81908,-12.42395l-3.11114,-38.1072l199.1597,-42.39231l12.06229,256.72068l-137.57537,-4.12537l-0.3358,-7.71763l-87.21709,-1.85558l-176.95589,37.43886l-199.32973,-15.41588l-5.82733,-128.0902l5.26766,-0.40538l-1.29329,-37.82154z" fill="url(#color-1)" stroke="#000000" stroke-width="1" stroke-linecap="round"/><path d="M174.89738,128.49539l-19.08272,2.76823l-1.83506,-5.73396l20.84116,-2.84474z" fill="url(#color-2)" stroke="#000000" stroke-width="1" stroke-linecap="round"/><path d="M158.60083,173.02826l45.35984,-2.14982l66.40275,-90.44865l97.55525,73.84526l158.22835,0.51474l47.65226,-38.54179l59.87566,31.83715l145.98394,-11.63717l-2.07926,8.89927l-2.99698,-0.04579l-147.92402,8.5504l-50.67823,-29.9911l-45.09879,36.49277l-166.19283,1.68164l-91.92245,-70.91916l-62.16165,84.67054l-51.48374,3.12097z" fill="url(#color-3)" stroke="url(#color-4)" stroke-width="1" stroke-linecap="round"/><path d="M215.56341,81.22857l-51.28469,11.74493l-5.32895,-5.0534l60.66546,-14.79574l13.85361,6.62043l123.71046,-30.57591l-2.13333,-8.53981l157.32321,26.27583l-2.07938,4.84721l-145.43267,-23.26965l-1.64353,6.76619l-129.48462,30.47479l-15.5507,-1.08513z" fill="url(#color-5)" stroke="url(#color-6)" stroke-width="1" stroke-linecap="round"/><path d="M501.3162,77.07547l5.35178,1.5289l61.49888,-11.837l1.33815,6.46028l-68.52495,12.3189z" fill="url(#color-7)" stroke="#000000" stroke-width="1" stroke-linecap="round"/><path d="M552.35703,31.38326l225.89002,-50.87764l-1.53641,9.228l-220.63586,47.12552z" fill="url(#color-8)" stroke="#000000" stroke-width="1" stroke-linecap="round"/><path d="M662.8637,110.34665l-4.0562,-68.92852l3.2261,-6.83504l10.9326,-7.87506l8.79201,-4.4346l7.17897,-1.01709l10.91756,-0.12268l9.43445,2.23214l10.94067,4.4569l4.77511,77.35368z" fill="#fbfafa" stroke="#000000" stroke-width="1" stroke-linecap="round"/><path d="M668.64329,101.46257l-3.5036,-62.30191l7.67574,-5.79542l7.69871,-5.2679l8.88383,-2.32445l10.55823,-0.28324l13.57831,4.34212l3.11386,67.51606z" fill="#ff0000" stroke="#000000" stroke-width="1" stroke-linecap="round"/><path d="M627.19436,112.51527l-39.86279,2.96769l-2.44043,-47.98983l40.07676,-6.14816z" fill="#fbfafa" stroke="#000000" stroke-width="1" stroke-linecap="round"/><path d="M623.73079,105.79513l-32.06451,4.03779l-3.03643,-37.39336l32.76788,-4.0684z" fill="#ff0000" stroke="#000000" stroke-width="1" stroke-linecap="round"/><path d="M573.0443,116.10462l-48.96838,4.24477l-2.56246,-38.64718l47.71439,-8.77078z" fill="#fbfafa" stroke="#000000" stroke-width="1" stroke-linecap="round"/><path d="M572.18778,108.56633l-42.75269,5.38371l-2.47802,-28.60884l43.40248,-6.64522z" fill="#ff0000" stroke="#000000" stroke-width="1" stroke-linecap="round"/><path d="M261.50159,231.04933l-1.89033,-59.64138l5.02281,-6.03236l10.84857,-5.75729l6.62082,-1.69747l9.73256,0.98592l12.06458,5.99356l10.12266,5.90187l2.40284,67.37083l-55.1308,-3.76737z" fill="#fbfafa" stroke="#000000" stroke-width="1" stroke-linecap="round"/><path d="M266.29525,231.89782l-1.69128,-51.01741l4.49528,-6.00939l6.32255,-4.50332l6.90367,-3.29538l8.57804,-1.25413l6.08579,2.20166l12.36284,8.79939l2.08707,56.06527l-45.77285,-3.29366z" fill="#ff0000" stroke="#000000" stroke-width="1" stroke-linecap="round"/><path d="M173.25683,227.4455l179.24394,12.81354l199.70915,-31.06387l0.25312,26.06303l-179.57483,38.29189l-198.17378,-16.21811z" fill="#453e3c" stroke="#000000" stroke-width="1" stroke-linecap="round"/><path d="M226.0245,262.36669l-4.26804,-0.91541l-34.49597,-3.25579l-2.51774,-74.0605l39.74053,-1.72913z" fill="#fbfafa" stroke="#000000" stroke-width="1" stroke-linecap="round"/><path d="M226.88458,261.88883l-33.8232,-3.98978l-1.72624,-68.01687l33.25728,-0.91853z" fill="url(#color-9)" stroke="#000000" stroke-width="1" stroke-linecap="round"/><path d="M225.62874,200.63426l-29.97747,-0.63358l0.03034,-7.4007l29.1823,-1.44592z" fill="#ff0000" stroke="#000000" stroke-width="1" stroke-linecap="round"/><path d="M393.36249,268.78335l-3.93853,-94.56723l96.43846,-2.43434l4.92993,76.86244z" fill="#fbfafa" stroke="#000000" stroke-width="1" stroke-linecap="round"/><path d="M398.81744,268.63411l-3.75286,-86.25099l84.38935,-4.0242l3.82501,71.71333z" fill="url(#color-10)" stroke="#000000" stroke-width="1" stroke-linecap="round"/><path d="M475.28561,187.83355l-80.44428,5.6143l-0.04618,-9.15915l79.82507,-3.64942z" fill="#ff0000" stroke="#000000" stroke-width="1" stroke-linecap="round"/><path d="M523.82582,241.56929l-24.28916,4.58037l-5.26261,-80.45959l24.44983,-0.88765z" fill="#ff0000" stroke="#000000" stroke-width="1" stroke-linecap="round"/><path d="M524.35718,241.63426l-24.64084,4.59566l-4.9831,-65.93723l24.96206,-1.2623z" fill="#592d2a" stroke="#000000" stroke-width="1" stroke-linecap="round"/><path d="M525.65233,160.0525l37.17924,-3.908l5.56799,67.2331l-42.06473,0.94941z" fill="#fbfafa" stroke="#000000" stroke-width="1" stroke-linecap="round"/><path d="M529.19993,164.6549l29.51866,-1.81291l2.95292,55.71928l-30.51265,-0.78648l-0.91153,-53.34164z" fill="#ff0000" stroke="#000000" stroke-width="1" stroke-linecap="round"/><path d="M587.04322,236.83667l-4.99495,-78.3571l9.93875,-6.42244l11.11623,-3.65485l7.72181,-0.68833l9.05216,1.54406l6.69746,4.11298l3.16517,-0.13772l2.45884,84.85385z" fill="#fbfafa" stroke="#000000" stroke-width="1" stroke-linecap="round"/><path d="M591.79289,236.67405l-0.66711,-59.87077l39.74817,-1.5533l1.11825,62.14144z" fill="#281b1a" stroke="#000000" stroke-width="1" stroke-linecap="round"/><path d="M605.21052,237.32346l-1.98215,-61.7515l21.67459,0.11398l1.63047,61.76679z" fill="#592d2a" stroke="#000000" stroke-width="1" stroke-linecap="round"/><path d="M599.85689,179.06603l0.78041,17.93598l-6.49089,0.63477l-0.08471,-18.14244z" fill="#ff0000" stroke="#000000" stroke-width="1" stroke-linecap="round"/><path d="M608.36622,180.28134l13.5246,-0.94082l0.91786,12.99709l-14.35791,2.03413z" fill="#ff0000" stroke="#000000" stroke-width="1" stroke-linecap="round"/><path d="M630.61464,193.58357l-2.97401,0.48175l0.04536,-15.1531l2.46944,0.06872z" fill="#ff0000" stroke="#000000" stroke-width="1" stroke-linecap="round"/><path d="M629.38486,169.36882l-40.39798,2.81481l0.42782,-10.41299l14.32717,-6.78954l8.01992,-1.93454l10.61179,0.94768l7.53077,3.01967z" fill="#ff0000" stroke="#000000" stroke-width="1" stroke-linecap="round"/><path d="M728.20614,147.80381l4.94153,81.17824l-64.6778,0.5239l-3.74877,-78.05898z" fill="#fbfafa" stroke="#000000" stroke-width="1" stroke-linecap="round"/><path d="M673.69494,154.22767l47.31707,-1.70645l4.966,69.59363l-50.15351,1.30132l-2.90549,-66.77635z" fill="#ff0000" stroke="#000000" stroke-width="1" stroke-linecap="round"/><path d="M218.11422,83.43172l1.60312,51.4674l-39.622,5.75365l-1.41892,-47.23368z" fill="#f6f7f3" stroke="#000000" stroke-width="1" stroke-linecap="round"/><path d="M182.26605,97.92881l31.92763,-7.11554l1.06892,39.18958l-31.39389,4.75938z" fill="#ff0000" stroke="#000000" stroke-width="1" stroke-linecap="round"/><path d="M357.34164,-9.83855c-0.3386,-0.16495 -1.79367,-1.00249 -1.03534,-2.90895c0.85491,-2.14936 2.81335,-1.35868 2.81335,-1.35868l0.89511,0.50926c4.72646,4.48484 9.22326,9.10456 13.69444,13.87803c5.4882,5.87115 12.20272,10.11188 18.04795,15.54434c11.90212,11.06166 21.75224,24.4171 33.74306,35.42201c0,0 1.57492,1.44544 0.13068,3.22187c-1.44422,1.77643 -3.01919,0.33098 -3.01919,0.33098c-12.003,-11.0162 -21.86173,-24.38854 -33.77809,-35.45461c-5.91317,-5.49121 -12.66629,-9.79823 -18.22907,-15.72578c-4.334,-4.62698 -8.69008,-9.10656 -13.26292,-13.45854z" data-paper-data="{&quot;index&quot;:null}" fill="#000000" stroke="none" stroke-width="1" stroke-linecap="butt"/><path d="M492.89653,-12.4688c1.78878,1.26419 0.66293,3.19956 0.66293,3.19956l-1.03551,1.76664c-0.85849,1.24364 -1.71703,2.48732 -2.57556,3.73098c-15.6911,19.36964 -29.73431,41.69376 -49.51185,56.43512c0,0 -1.73378,1.28997 -2.94268,-0.62829c-1.2089,-1.91828 0.5249,-3.20824 0.5249,-3.20824c19.44935,-14.44277 33.21297,-36.55902 48.64028,-55.56283c0.82484,-1.19686 1.64974,-2.39368 2.47463,-3.59055l0.84816,-1.4712c0,0 1.12589,-1.93535 2.9147,-0.67118z" data-paper-data="{&quot;index&quot;:null}" fill="#000000" stroke="none" stroke-width="1" stroke-linecap="butt"/><path d="M405.58863,64.68697c3.05046,1.75675 3.45127,3.84812 4.80965,7.02859c2.46279,5.76624 3.87701,10.96383 4.49938,17.22755c0.06478,8.04643 0.14494,19.59638 -6.64077,24.98854c-6.52746,2.75824 -13.53939,4.77585 -20.06127,0.75735c-2.13341,-1.31451 -3.90425,-4.08222 -5.46905,-6.02457c-3.64407,-8.61664 -3.60019,-18.5991 -1.75956,-27.63199c0.66134,-4.6219 1.61877,-9.01689 2.91435,-13.49737c0.71953,-2.48835 1.21269,-4.7364 3.67318,-5.78708l0.60334,-0.38414c0,0 0.14146,-0.09338 0.24531,-0.25821c6.07164,-1.52466 11.45403,0.86662 17.18542,3.58131z" data-paper-data="{&quot;noHover&quot;:false,&quot;origItem&quot;:[&quot;Path&quot;,{&quot;applyMatrix&quot;:true,&quot;segments&quot;:[[[463.02145,118.92474],[11.94148,-3.76279],[-0.18782,0.34138]],[462.56327,119.46889],[[461.40637,120.30632],[0,0],[-4.78797,2.38894]],[[454.7767,132.28436],[1.14195,-5.05316],[-2.05618,9.09862]],[[450.59007,159.5336],[0.77318,-9.30587],[-2.60543,18.25199]],[[457.33707,214.37126],[-8.29546,-16.77166],[3.35404,3.69263]],[[468.94246,225.73925],[-4.41495,-2.37184],[13.49664,7.25079]],[[508.8316,221.85864],[-12.70549,6.27955],[12.90926,-11.56875]],[[519.07651,171.27858],[1.08192,16.05697],[-1.9841,-12.43181]],[[508.09898,137.49402],[5.59959,11.22069],[-3.08854,-6.18895]],[[497.69355,124.0439],[6.29819,3.14621],[-11.7641,-4.74133]]],&quot;closed&quot;:true}]}" fill="#ffffff" stroke="none" stroke-width="0.5" stroke-linecap="butt"/><path d="M458.23165,72.26295c2.98151,0.49015 3.72183,3.13933 4.50093,5.73114c1.8088,6.0173 1.51211,12.56439 0.89786,18.72936c-0.82167,8.25922 1.63046,18.60795 -5.29763,24.70162c-6.28774,6.49374 -17.85544,0.45511 -23.59136,-3.59008c-2.53213,-2.30336 -1.545,-4.99633 -1.54003,-8.14089c0.00913,-5.77433 0.31933,-11.54856 1.15147,-17.25784c0.80766,-5.56546 0.51312,-11.57378 1.93801,-16.99848c0.22765,-0.86666 0.41796,-4.53039 1.24723,-4.96689c0.01233,-0.00648 0.02479,-0.01281 0.03724,-0.01894c0.37125,-0.08534 0.74692,-0.16468 1.12303,-0.23657c0.26813,-0.02462 0.53767,-0.05171 0.79104,-0.12641l0.13915,-0.03729c6.20596,-0.99585 12.9678,-0.20429 18.60306,2.21129z" data-paper-data="{&quot;noHover&quot;:false,&quot;origItem&quot;:[&quot;Path&quot;,{&quot;applyMatrix&quot;:true,&quot;segments&quot;:[[[566.35295,130.72043],[12.27227,-2.72292],[0,0]],[[566.08002,130.81116],[0,0],[-0.49701,0.17916]],[[564.51821,131.15611],[0.53239,-0.0809],[-0.7424,0.18804]],[[562.30763,131.75969],[0.73107,-0.21435],[-0.02414,0.0137]],[[562.23565,131.80185],[0.02385,-0.01442],[-1.60395,0.96966]],[[560.34435,141.85964],[0.35189,-1.75725],[-2.20257,10.99907]],[[558.52911,175.96742],[0.95361,-11.20702],[-0.98546,11.49706]],[[558.25012,210.46726],[-0.66539,-11.52947],[0.36236,6.27868]],[[562.26585,226.51965],[-5.32806,-4.29887],[11.93061,7.39711]],[[609.69817,230.88926],[-11.78467,13.70908],[13.11047,-12.98617]],[[617.29234,181.04419],[-0.66268,16.58674],[0.49649,-12.38105]],[[613.32811,143.83386],[4.32361,11.79936],[-1.86229,-5.08228]],[[603.68782,132.93587],[6.0106,0.62561],[-11.53671,-4.15555]]],&quot;closed&quot;:true}]}" fill="#ffffff" stroke="none" stroke-width="0.5" stroke-linecap="butt"/><path d="M408.3398,90.63127c0.08991,-1.51612 1.39183,-2.6723 2.90795,-2.5824c1.51612,0.08991 2.6723,1.39185 2.5824,2.90797c-0.0899,1.51612 -1.39183,2.6723 -2.90796,2.58239c-1.51612,-0.08991 -2.6723,-1.39183 -2.5824,-2.90795z" fill="#000000" stroke="none" stroke-width="0.5" stroke-linecap="butt"/><path d="M456.99219,97.18025c0.0899,-1.51612 1.39183,-2.6723 2.90796,-2.58239c1.51612,0.08991 2.6723,1.39185 2.5824,2.90797c-0.0899,1.51612 -1.39185,2.6723 -2.90797,2.58239c-1.51612,-0.08991 -2.6723,-1.39185 -2.58239,-2.90797z" fill="#000000" stroke="none" stroke-width="0.5" stroke-linecap="butt"/><path d="M464.92986,167.41469l-0.69432,-0.26385c-0.35724,-1.62065 0.06557,-3.64573 0.85318,-5.48207c-1.11697,-3.99653 -2.46259,-7.90655 -4.44152,-11.58784c-3.94333,-8.99326 -10.89635,-15.52256 -18.76158,-21.1582c-8.1424,-5.83652 -16.76136,-10.4707 -26.17261,-13.89019c-1.6519,-0.60027 -3.31029,-1.07799 -4.97488,-1.46295c-0.52776,0.57564 -1.10459,1.11281 -1.73499,1.60581c-6.96873,3.01617 -14.6409,5.11751 -21.59167,0.73466c-1.52657,-0.96258 -2.87527,-2.53591 -4.10026,-4.11153c-8.62828,1.88916 -16.21782,4.68194 -24.04451,9.31759c-5.32859,3.15323 -10.49283,7.22999 -13.09519,13.00122c-1.42506,3.16035 -1.71191,6.65507 -2.36808,10.01276c-0.67133,3.43327 -2.42215,6.78289 -2.70924,10.29041c-0.47385,5.7894 0.98519,11.57552 1.79347,17.26199c1.43026,5.61543 2.6544,11.74735 3.12763,17.53179c0.18935,2.31459 -0.07278,4.71141 -0.00702,7.03616c0.00575,0.20324 0.12489,0.80359 0.07144,1.3279c0.16515,-0.20656 0.33379,-0.40184 0.44698,-0.51771c7.16386,-7.21668 13.84799,-13.89109 22.13643,-19.82901c4.28841,-3.06367 9.77202,-6.31873 15.02544,-7.17967c4.44128,-0.72784 9.07222,-0.42257 13.55182,-0.69851c9.99476,-0.61567 20.12148,-0.45554 30.08819,0.43262c9.79318,0.8782 19.97704,4.04431 29.04915,7.75059c3.00604,1.25205 6.30849,3.05226 8.82188,5.04912c0.381,0.30269 0.09928,-0.96814 0.15437,-1.45162c0.15936,-1.39865 0.02432,-2.77017 -0.0964,-4.16626c-0.24467,-2.82971 -0.74797,-6.65682 -0.32771,-9.5532zM386.47198,111.15442c-0.51534,0.09763 -1.02669,0.19791 -1.53429,0.30103c0.99457,1.25104 2.07544,2.44742 3.27505,3.18657c6.52189,4.0185 13.497,2.00192 20.02446,-0.75631c0.27326,-0.21714 0.53534,-0.4442 0.7867,-0.68055c-7.40495,-1.44149 -14.93025,-1.25766 -22.55191,-2.05073zM466.50014,167.11766c-0.00143,0.00405 -0.00286,0.00809 -0.00429,0.01214c-0.85247,3.77657 0.46292,8.64478 0.45775,12.60098c-0.00145,1.11263 0.08582,3.9844 -1.48882,4.33137c-0.10305,0.02271 -2.21793,-0.98466 -2.36625,-1.06509c-2.48528,-1.34761 -4.67782,-2.98457 -7.29283,-4.07376c-8.93385,-3.64974 -18.96613,-6.77833 -28.6111,-7.64324c-9.88798,-0.89252 -19.94537,-1.04032 -29.862,-0.42946c-4.42701,0.2727 -9.01274,-0.03762 -13.40147,0.68161c-5.01129,0.82126 -10.31498,3.98722 -14.39446,6.91879c-8.22049,5.88924 -14.83955,12.50765 -21.94543,19.66637c-0.32149,0.31952 -1.83505,2.22545 -2.73071,1.51617c-0.49316,-0.39054 -0.24364,-1.23605 -0.30949,-1.86165c-0.20767,-1.9727 -0.07742,-4.0266 -0.05897,-6.00659c0.06003,-6.44408 -1.49489,-13.54719 -3.07591,-19.79171c-0.83666,-5.8262 -2.30688,-11.75374 -1.81609,-17.68595c0.29545,-3.57094 2.04865,-6.95469 2.73121,-10.44538c0.68151,-3.48314 0.99813,-7.08424 2.48182,-10.36114c2.73922,-6.04992 8.0967,-10.34056 13.68917,-13.65559c7.73652,-4.58202 15.30091,-7.46618 23.79922,-9.34902c-0.2838,-0.37412 -0.56112,-0.73808 -0.83273,-1.08295c-3.85169,-8.91006 -3.84699,-19.22118 -1.93469,-28.59548c0.28193,-1.9765 0.6134,-3.91093 1.00218,-5.8278c-0.21849,-0.06258 -0.49316,-0.23022 -0.51458,-0.67663c-0.03595,-0.74914 0.71319,-0.78509 0.71319,-0.78509l0.10904,0.00324c0.46456,-2.12016 1.00224,-4.22637 1.62363,-6.35221c0.58377,-1.9971 1.09328,-3.80641 2.28502,-5.1591l0.00002,0c-0.06035,-0.06421 -0.11528,-0.14717 -0.16082,-0.25356c-0.29512,-0.6895 0.39439,-0.98461 0.39439,-0.98461c7.86108,-3.26686 14.11355,-0.70488 21.28118,2.64256c2.87394,1.65792 3.21534,2.68418 4.43913,5.72384c1.11682,2.77403 2.55181,5.48227 3.67349,8.24795c1.44661,3.56682 1.5919,7.72402 1.96556,11.48608c0.06453,7.43302 0.04758,17.13961 -4.54769,23.41349c1.48263,0.37018 2.95869,0.81289 4.42742,1.34649c9.53933,3.46603 18.28125,8.16506 26.53425,14.08087c8.05488,5.77611 15.20291,12.50154 19.23624,21.72052c1.77049,3.28711 3.04416,6.7582 4.09846,10.30995c0.04867,-0.0785 0.09783,-0.15605 0.14745,-0.23255l-0.247,-0.14696l0.76699,-1.28908c0.09814,-0.16495 0.25921,-0.29246 0.45995,-0.34343c0.40147,-0.10194 0.80957,0.14088 0.91152,0.54235c0.02571,0.10127 0.0295,0.20295 0.01432,0.30004l-0.11064,0.83438c-0.22464,1.65494 -0.4074,3.21344 -0.72847,4.77214c0.15475,0.60542 0.30653,1.21191 0.45668,1.81898c0.69975,2.82927 1.47496,5.88289 0.85894,8.78298c0,0 -0.16,0.73273 -0.89273,0.57274c-0.73273,-0.16 -0.57274,-0.89273 -0.57274,-0.89273c0.53571,-2.37533 -0.06818,-4.96524 -0.65834,-7.33524zM386.40619,109.65587c8.04029,0.70137 16.01612,0.56904 23.81851,2.2545c4.77459,-5.89106 4.68067,-15.80046 4.62297,-22.96713c-0.14507,-1.46011 -0.33209,-2.8601 -0.5648,-4.22172c-0.21677,-0.01209 -0.38589,-0.11347 -0.38589,-0.11347l-0.00001,0.00001c-3.71463,-2.25956 -9.11809,-4.14246 -13.40826,-5.1394c-3.09104,-0.71829 -6.5885,-0.68963 -9.50061,-1.9533c-2.54973,-1.31614 -6.03143,-1.61449 -8.97421,-2.2571c-0.38834,1.90527 -0.72026,3.8281 -1.0018,5.7958c-1.84063,9.03287 -1.8995,18.9538 1.74457,27.57044c0.3754,0.46597 0.76191,0.97905 1.16206,1.50796c0.81977,-0.16732 1.6486,-0.32598 2.48746,-0.47658z" fill="#000000" stroke="none" stroke-width="0.5" stroke-linecap="butt"/><path d="M465.30473,176.9845c0.12071,1.39609 0.25478,2.77015 0.09543,4.1688c-0.05508,0.48348 0.13464,1.71513 -0.24636,1.41244c-2.51339,-1.99686 -5.72388,-3.7578 -8.72992,-5.00985c-9.0721,-3.70629 -19.25869,-6.86685 -29.05187,-7.74505c-9.96671,-0.88817 -20.14236,-1.02337 -30.13713,-0.4077c-4.47961,0.27594 -9.13912,-0.04242 -13.58039,0.68542c-5.25342,0.86093 -10.74242,4.11011 -15.03082,7.17378c-8.28844,5.93792 -14.89461,12.54971 -22.05847,19.76638c-0.11319,0.11587 -0.3588,0.375 -0.52395,0.58157c0.05345,-0.52431 -0.06619,-1.12527 -0.07194,-1.32851c-0.06575,-2.32475 0.19383,-4.72503 0.00447,-7.03962c-0.47322,-5.78445 -1.70346,-11.92893 -3.13372,-17.54435c-0.80828,-5.68646 -2.26972,-11.48723 -1.79587,-17.27662c0.28709,-3.50752 2.03861,-6.86631 2.70995,-10.29957c0.65616,-3.35769 0.94538,-6.86125 2.37045,-10.02161c2.60236,-5.77123 7.77481,-9.86233 13.1034,-13.01556c7.82669,-4.63565 15.43739,-7.44358 24.06567,-9.33274c1.22499,1.57562 2.57657,3.14797 4.10313,4.11055c6.95077,4.38284 14.65022,2.28092 21.61896,-0.73524c0.6304,-0.49299 1.2087,-1.02977 1.73646,-1.6054c1.66459,0.38496 3.32878,0.86479 4.98069,1.46506c9.41125,3.41948 18.05365,8.0746 26.19605,13.91112c7.86523,5.63564 14.82483,12.18701 18.76817,21.18027c1.97893,3.68129 3.32427,7.60022 4.44125,11.59675c-0.78761,1.83634 -1.21109,3.86553 -0.85385,5.48617l0.69431,0.26394c-0.42026,2.89638 0.08126,6.72986 0.32593,9.55958z" data-paper-data="{&quot;noHover&quot;:false,&quot;origItem&quot;:[&quot;Path&quot;,{&quot;applyMatrix&quot;:true,&quot;segments&quot;:[[[320.70482,166.3466],[-1.12017,2.70386],[0,0]],[[320.09679,165.91998],[0,0],[0.05261,-1.65872]],[[322.27293,160.81651],[-1.21533,1.58602],[-0.09902,-4.1485]],[[320.81992,148.49198],[1.01205,4.0551],[-1.60869,-9.68714]],[[307.84271,123.36713],[6.23631,7.39802],[-6.45551,-7.66094]],[[285.89368,103.46279],[8.2802,5.63053],[-1.45336,-0.98836]],[[281.43187,100.82046],[1.51865,0.7828],[-0.6532,0.42805]],[[279.35504,101.94988],[0.73234,-0.32268],[-7.4967,1.20831]],[[258.24668,97.34797],[5.6583,5.9587],[-1.24271,-1.30868]],[[255.28445,92.35378],[0.79953,1.82864],[-8.82783,-0.29247]],[[229.68634,95.46713],[8.72684,-2.56682],[-5.94074,1.74481]],[[213.79418,104.84556],[3.94268,-4.95324],[-2.15903,2.71242]],[[209.03468,113.96753],[1.46235,-3.09292],[-1.49565,3.16244]],[[203.87619,123.27464],[1.1415,-3.32898],[-1.88412,5.4947]],[[201.36611,140.44707],[0.61609,-5.71048],[0.00424,5.79471]],[[200.08275,158.20935],[0.96496,-5.72299],[-0.38612,2.29]],[[198.34425,165.02736],[0.50842,-2.26943],[-0.04445,0.1984]],[[198.08669,166.332],[0.18085,-0.49503],[0.21091,-0.15956]],[[198.64734,165.94022],[-0.13823,0.08445],[8.71962,-5.23159]],[[224.98304,152.16917],[-9.49489,3.71539],[4.91051,-1.91401]],[[241.31332,148.90828],[-5.30372,-0.45848],[4.4838,0.3876]],[[254.62022,151.56652],[-4.40974,-0.83503],[9.83886,1.8631]],[[283.67648,159.39091],[-9.44156,-3.31378],[9.27582,3.26141]],[[309.92459,174.05245],[-7.88089,-5.82504],[2.60543,1.95336]],[[317.23248,181.11744],[-1.94463,-2.55402],[0.29478,0.38715]],[[317.73936,179.74846],[-0.17238,0.45505],[0.49868,-1.31641]],[[318.67129,175.68661],[-0.2266,1.38286],[0.45928,-2.80289]]],&quot;closed&quot;:true}]}" fill="#6d0000" stroke="none" stroke-width="0.5" stroke-linecap="butt"/><path d="M409.07387,113.20665c-0.25135,0.23634 -0.51363,0.46654 -0.78689,0.68369c-6.52746,2.75823 -13.60138,4.78003 -20.12326,0.76154c-1.1996,-0.73914 -2.28113,-1.95108 -3.2757,-3.20212c0.50759,-0.10312 1.01924,-0.20557 1.53459,-0.3032c7.62166,0.79307 15.2463,0.61861 22.65126,2.0601z" data-paper-data="{&quot;noHover&quot;:false,&quot;origItem&quot;:[&quot;Path&quot;,{&quot;applyMatrix&quot;:true,&quot;segments&quot;:[[[258.50653,92.50739],[7.19204,2.64446],[-0.52352,-0.03221]],[[256.94535,92.42155],[0.51736,0.02498],[0.65608,1.45733]],[[259.33541,96.31612],[-0.98079,-1.01164],[5.33228,5.50001]],[[278.93008,100.51134],[-7.00552,1.0669],[0.3183,-0.14321]],[[279.86006,100.04535],[-0.30179,0.16721],[-6.82242,-3.2196]]],&quot;closed&quot;:true}]}" fill="#6d0000" stroke="none" stroke-width="0.5" stroke-linecap="butt"/><path d="M466.51319,84.93c0.03595,0.74914 -0.71319,0.78509 -0.71319,0.78509l-0.12829,0.00615c-0.06147,0.00089 -0.12462,0.00284 -0.1894,0.00581c0.20525,3.71999 -0.04521,7.48457 -0.40926,11.14585c-0.87402,8.77699 1.56479,19.06401 -5.72551,25.59332c-7.00696,7.0052 -19.06387,1.08272 -25.52186,-3.5068c-2.98214,-2.78021 -2.09373,-5.53788 -2.08527,-9.27623c0.01324,-5.85194 0.33259,-11.66258 1.17588,-17.44834c0.06923,-0.47281 0.13043,-0.94843 0.18531,-1.42632c-0.11091,-0.09685 -0.20118,-0.2455 -0.23114,-0.47276c-0.05576,-0.42286 0.16068,-0.63696 0.35775,-0.74296c0.45654,-4.83718 0.42135,-9.85526 1.63679,-14.49166c0.27419,-1.04591 0.35407,-2.73205 0.78398,-4.08593c-0.04686,0.0142 -0.09364,0.02853 -0.14037,0.04296c0,0 -0.71659,0.22131 -0.93791,-0.49529c-0.22131,-0.71659 0.49529,-0.93792 0.49529,-0.93792c0.6495,-0.20058 1.31038,-0.38028 1.98045,-0.53916c0.30984,-0.13725 0.65838,-0.18429 1.01187,-0.22275c0.42241,-0.08592 0.84793,-0.16382 1.27606,-0.23366l0.11694,-0.03151c0,0 0.09827,-0.0264 0.23214,-0.02358l-0.00001,0.00001c6.34837,-0.96801 13.23525,-0.18259 18.96017,2.29823c3.50456,0.65185 4.57315,3.63986 5.49583,6.72953c0.64724,2.1673 1.03365,4.39127 1.23559,6.63891c0.07675,-0.00693 0.15173,-0.01296 0.22479,-0.01803l0.12829,-0.00615c0,0 0.74914,-0.03595 0.78509,0.71319zM457.69737,87.88877c-3.93006,0.2348 -7.80528,-0.05281 -11.72933,0.57215c-3.81551,0.60768 -7.53189,1.7865 -11.36493,2.39102c-0.05896,0.5363 -0.12563,1.06966 -0.20249,1.59929c-0.83214,5.70928 -1.15121,11.43709 -1.16034,17.21141c-0.00496,3.14455 -1.00288,5.82761 1.52924,8.13097c5.73592,4.04519 17.2575,10.07855 23.54525,3.58481c6.92808,-6.09367 4.44401,-16.39486 5.26569,-24.65407c0.35306,-3.54343 0.60798,-7.20006 0.41749,-10.81171c-2.11777,0.38729 -4.83733,1.28425 -6.30057,1.97612z" fill="#000000" stroke="none" stroke-width="0.5" stroke-linecap="butt"/></g></g></g></svg>