<svg version="1.1" xmlns="http://www.w3.org/2000/svg" xmlns:xlink="http://www.w3.org/1999/xlink" width="2878.25006" height="1619.57958" viewBox="0,0,2878.25006,1619.57958"><defs><linearGradient x1="39.51146" y1="76.88331" x2="628.35601" y2="199.42911" gradientUnits="userSpaceOnUse" id="color-1"><stop offset="0" stop-color="#ff00e1"/><stop offset="1" stop-color="#00b8ff"/></linearGradient><linearGradient x1="29.23287" y1="51.11677" x2="49.73865" y2="55.38427" gradientUnits="userSpaceOnUse" id="color-2"><stop offset="0" stop-color="#45ff00"/><stop offset="1" stop-color="#ff00e1"/></linearGradient><linearGradient x1="30.74529" y1="56.37551" x2="639.75779" y2="183.11852" gradientUnits="userSpaceOnUse" id="color-3"><stop offset="0" stop-color="#feff00"/><stop offset="1" stop-color="#03ff51"/></linearGradient><linearGradient x1="30.74529" y1="56.37551" x2="639.75779" y2="183.11852" gradientUnits="userSpaceOnUse" id="color-4"><stop offset="0" stop-color="#feff00"/><stop offset="1" stop-color="#03ff51"/></linearGradient><linearGradient x1="47.10765" y1="-2.37842" x2="393.68089" y2="69.74774" gradientUnits="userSpaceOnUse" id="color-5"><stop offset="0" stop-color="#45ff00"/><stop offset="1" stop-color="#ff00e1"/></linearGradient><linearGradient x1="47.10765" y1="-2.37842" x2="393.68089" y2="69.74774" gradientUnits="userSpaceOnUse" id="color-6"><stop offset="0" stop-color="#45ff00"/><stop offset="1" stop-color="#ff00e1"/></linearGradient><linearGradient x1="377.40866" y1="88.11473" x2="444.95707" y2="102.17237" gradientUnits="userSpaceOnUse" id="color-7"><stop offset="0" stop-color="#45ff00"/><stop offset="1" stop-color="#ff00e1"/></linearGradient><linearGradient x1="442.5259" y1="38.69831" x2="665.63375" y2="85.1298" gradientUnits="userSpaceOnUse" id="color-8"><stop offset="0" stop-color="#45ff00"/><stop offset="1" stop-color="#ff00e1"/></linearGradient><linearGradient x1="41.30371" y1="156.50827" x2="75.07791" y2="163.53708" gradientUnits="userSpaceOnUse" id="color-9"><stop offset="0" stop-color="#ff0000"/><stop offset="1" stop-color="#45ff00"/></linearGradient><linearGradient x1="240.54547" y1="205.74844" x2="323.94705" y2="223.10534" gradientUnits="userSpaceOnUse" id="color-10"><stop offset="0" stop-color="#0030ff"/><stop offset="1" stop-color="#ff0303"/></linearGradient></defs><g transform="translate(1117.37278,629.80931)"><g data-paper-data="{&quot;isPaintingLayer&quot;:true}" fill-rule="nonzero" stroke-linejoin="miter" stroke-miterlimit="10" stroke-dasharray="" stroke-dashoffset="0" style="mix-blend-mode: normal"><path d="M-1117.37278,989.77027v-1619.57958h2878.25006v1619.57958z" fill="none" stroke="#000000" stroke-width="0" stroke-linecap="butt"/><path d="M-1117.37278,989.77027v-1619.57958h2878.25006v1619.57958z" fill="none" stroke="#000000" stroke-width="0" stroke-linecap="butt"/><path d="M490.05315,168.74211c2.80575,-0.70388 5.61021,-1.40736 8.40737,-2.1448c1.39913,-0.36886 3.00903,-0.25388 4.32045,-0.79467c-0.26772,-1.76696 -0.53544,-3.53391 -0.80316,-5.30086c0,0 -0.21708,-1.43267 1.21559,-1.64974c1.43267,-0.21708 1.64974,1.21559 1.64974,1.21559c0.12824,0.84642 0.25648,1.69281 0.38472,2.53922c0.16808,-0.0682 0.35187,-0.10574 0.54444,-0.10574c0.65099,0 1.20173,0.42929 1.38453,1.02024l0.8798,2.62492c1.83165,3.34205 3.65474,6.68877 5.47967,10.03451c3.96232,7.26561 5.90992,15.84525 8.45405,23.67189c1.08937,3.35128 0.47574,7.20579 1.19182,10.55612c0.78797,3.68673 4.03126,5.79543 5.66915,8.92027c1.72187,3.28511 2.98343,7.12458 4.67696,10.51755c2.71615,7.27523 5.47536,13.94942 9.21493,20.74607c0.97077,1.76438 1.97073,5.31099 3.9213,6.31414c1.66332,0.85543 5.2465,-2.09373 6.67959,-2.39717c6.46061,-1.36788 14.48631,0.54928 20.56013,2.53245c7.71168,1.98943 15.09127,4.012 21.93064,8.29433c10.91059,6.83148 18.38925,17.85217 24.89689,28.6547c7.08507,11.76107 10.15744,25.0043 13.68542,38.16818c1.74559,6.5133 4.38835,13.1445 5.0497,19.85265c0.10118,1.04847 0.73469,6.33951 0.15424,6.91767c-0.98306,0.97915 -2.77202,0.32742 -4.15609,0.23018c-3.5973,-0.25276 -7.68122,-1.88223 -11.14942,-2.87298c-3.68978,-1.05408 -6.97837,-1.38937 -10.71658,-2.01266c-9.57664,-1.5968 -18.26141,-4.10771 -28.08855,-4.23712c-4.90902,-0.06466 -9.84479,-0.27719 -14.67993,-1.24539c-3.74509,-0.74992 -7.32403,-2.68391 -11.04206,-3.33382c-2.49192,-0.43559 -5.561,0.01876 -8.09017,0.01889c-5.34672,0.00023 -11.8732,-1.01442 -17.10392,0.05469c-3.16189,0.64626 -5.41632,1.10437 -8.77068,1.10437c-4.66243,-0.00008 -9.4042,0.09758 -14.0569,-0.20212c-7.44779,-0.47973 -15.26213,-1.87331 -22.74545,-0.83869c-2.80263,0.38747 -5.52743,1.7181 -8.30636,2.26816c-4.78765,0.9477 -9.69438,1.30758 -14.50152,2.24754c-1.14175,-0.18858 -2.61202,0.25757 -3.42525,-0.56572c-0.89613,-0.90725 -0.59491,-2.48138 -0.82376,-3.73588c-0.71557,-3.92285 -0.68703,-7.72985 -0.80399,-11.68871c-0.14891,-5.04001 -2.20491,-8.83925 -3.525,-13.58481c-2.5844,-9.29062 -3.65229,-18.94313 -6.31212,-28.25256c-5.56383,-19.47346 -10.9339,-39.06642 -15.09554,-58.8959c-2.37067,-11.29834 -5.70854,-22.82683 -6.32467,-34.39013c-0.46988,-8.81868 0.68445,-17.4967 1.69581,-26.22993c0.20107,-1.73619 0.09956,-8.18464 1.14041,-9.37862c2.50263,-2.87087 6.68391,-0.42209 9.6095,-0.26731c4.12802,0.21838 8.1715,1.00576 12.21019,1.83728c1.07614,-0.81906 2.74651,0.49557 4.08936,0.82226c0.10773,0.02621 0.21522,0.05218 0.32252,0.07792c1.16926,0.22951 2.34055,0.44674 3.51576,0.63904c4.27085,0.69879 8.56734,0.99032 12.79444,1.87074c3.18016,0.42067 6.34231,0.94941 9.31913,1.81875c1.828,-0.49909 3.65212,-0.98818 5.47286,-1.44493zM502.00159,168.66083c-2.79049,0.7939 -5.61864,1.48116 -8.43232,2.18704c-1.39341,0.34956 -2.79062,0.71786 -4.19133,1.09625c2.95553,1.26129 5.76979,2.68172 8.82316,3.63679c0.42395,-0.51621 1.15213,-0.51621 1.15213,-0.51621l0.12139,0.07437c0.82499,-0.2667 3.38338,-1.34573 4.62647,-0.62371c-0.30741,-2.02882 -0.61479,-4.05763 -0.92219,-6.08645c-0.40073,0.06377 -0.80226,0.12523 -1.1773,0.23192z" data-paper-data="{&quot;index&quot;:null}" fill="#d221e7" stroke="none" stroke-width="1" stroke-linecap="butt"/><path d="M119.00291,175.81229c1.28808,0.66369 0.6244,1.95177 0.6244,1.95177l-0.62281,1.20877c4.43861,-0.81585 8.82935,-4.58191 12.91515,-6.21997c4.72471,-1.8942 9.1602,-1.98985 13.98759,-2.87529c2.93602,-0.53852 4.84444,-2.80487 7.5707,-3.73259c3.78216,-1.28704 8.41781,-1.07299 12.23538,-0.30304c6.34867,1.31689 13.37965,0.53571 19.86047,0.53571c3.21756,0 7.04912,0.60404 10.20084,0.01871c3.05543,-0.56746 5.5329,-1.28593 8.75332,-1.16249c1.28506,0.04926 2.85584,-0.50094 3.8446,0.32136c0.98582,0.81986 0.71807,2.46325 1.00601,3.7127c1.05895,4.59491 1.97908,9.50105 1.98779,14.20815c0,3.77994 0.54456,8.05993 -0.014,11.79315c-0.60099,4.01683 -3.78732,6.96681 -5.45508,10.58635c-1.14349,2.48172 -2.52442,5.25679 -3.42477,7.83308c-0.36093,1.03277 -0.99804,4.83225 -1.38316,5.73039c-0.75996,1.77235 -2.40431,3.07387 -3.15075,4.85195c-0.74321,1.77036 -0.54892,3.83491 -1.24731,5.62343c-1.3801,3.53428 -3.64805,6.82965 -5.1082,10.40109c-3.26233,7.97949 -6.39482,16.05907 -8.61748,24.40258c-1.43583,5.38995 -3.04862,11.25416 -3.77765,16.78128c-0.15224,1.15424 -0.06168,4.7915 -0.24775,5.85209c-0.65714,3.74563 -2.39241,7.60953 -3.53996,11.23935c-4.32584,13.68295 -8.73464,27.1025 -11.94286,41.07419c-1.25958,5.48545 -2.94388,11.0416 -3.26799,16.65838c-0.84823,0.60432 -1.90314,0.99253 -2.54471,1.81295c-0.65845,0.84195 -0.36722,2.30248 -1.19878,2.97403c-0.85566,0.69103 -2.14767,0.5044 -3.24221,0.61251c-3.80358,0.3757 -7.85552,0.00341 -11.68011,0.00267c-5.74389,-0.00113 -11.8694,-0.31806 -17.55712,-1.17158c-2.84446,-0.42685 -5.608,-1.50817 -8.45902,-1.87687c-4.79851,-0.62055 -9.49905,-0.00234 -14.24171,-1.17533c-5.4125,-1.35312 -11.15447,-3.28946 -16.70325,-3.89953c-8.43291,-0.92716 -16.97276,-0.02699 -25.47661,-1.1573c-0.15584,-0.02071 -5.85739,-0.97321 -5.933,-0.99529c-1.82282,-0.53233 -3.37767,-1.84697 -5.23297,-2.2518c-1.79906,-0.39257 -3.68213,-0.07006 -5.5229,-0.11796c-3.77032,-0.10136 -7.3642,-0.99008 -11.104,-1.26874c-4.44299,-0.33106 -8.68367,0.94997 -13.10169,1.08276c-0.77845,0.02339 -5.85536,0.19612 -6.35756,-0.33646c-2.12511,-2.2536 0.24613,-4.25296 0.78924,-6.08905c0.76553,-2.58799 0.62499,-5.75325 1.03279,-8.42567c0.72958,-4.78132 1.72035,-9.53863 2.57913,-14.29867c0.66988,-3.71294 1.68649,-7.53301 2.04157,-11.28717c0.42681,-4.51257 -0.74894,-9.50769 0.10657,-13.95009c0.54489,-2.82931 2.50954,-5.39207 3.25182,-8.17207c1.59154,-5.96073 0.03918,-12.27069 4.93994,-17.00736c2.15056,-2.07854 5.56798,-2.76045 8.20135,-4.0127c7.18086,-3.36569 15.52593,-2.70208 23.2839,-2.70208c7.98135,0 16.38214,-0.76936 22.71007,4.72615c3.61451,3.13902 8.08575,5.22953 9.07471,10.31656c1.66322,-1.46255 1.90457,-3.34854 2.41676,-5.43616c0.92072,-3.75273 1.85325,-7.50262 2.77988,-11.25391c3.19977,-12.95383 6.23553,-25.94472 9.13626,-38.96864c0.67423,-2.69737 1.70054,-5.54868 2.08364,-8.30106c0.79895,-5.74039 0.41665,-11.82196 2.20817,-17.45596c0.57835,-1.81883 1.97167,-3.32223 2.47459,-5.16333c0.24141,-0.88378 0.09312,-5.44968 0.28688,-5.87632c0.44613,-0.98226 1.73578,-1.31661 2.41456,-2.15515c1.15299,-1.42439 1.68758,-3.25351 2.5269,-4.88256l0.87874,-1.70549c0,0 0.6637,-1.28808 1.95178,-0.62439z" data-paper-data="{&quot;index&quot;:null}" fill="#d221e7" stroke="none" stroke-width="1" stroke-linecap="butt"/><path d="M423.09875,207.31816l1.5126,-4.22765l15.31323,-43.39424c0,0 12.61502,-2.79115 18.35571,-1.16557c5.51207,1.56084 15.43046,10.73269 15.43046,10.73269l-18.64386,51.75242l-31.45439,-13.19792l-1.5202,0.02107z" data-paper-data="{&quot;index&quot;:null}" fill="none" stroke="#000000" stroke-width="0" stroke-linecap="round"/><path d="M100.15134,21.52405l3.05501,4.27753l13.95043,4.42066l132.99987,2.18671l2.90727,-6.67844l126.89048,55.23793l-3.30549,14.78948l67.8215,4.40318l6.3632,-37.70076l203.46708,7.92724l-51.4908,251.79298l-132.32843,-37.85745l1.57393,-7.56289l-84.07773,-23.26369l-180.72713,-7.2637l-189.40458,-63.99917l25.87646,-125.5845l5.2054,0.90352l8.05483,-36.9765z" fill="url(#color-1)" stroke="#000000" stroke-width="1" stroke-linecap="round"/><path d="M49.17185,57.2439l-19.17706,-2.01341l-0.36742,-6.00922l20.90024,2.37202z" fill="url(#color-2)" stroke="#000000" stroke-width="1" stroke-linecap="round"/><path d="M22.41648,96.39622l44.49373,9.07991l86.6208,-71.32405l76.38037,95.58341l153.23478,39.44082l55.67214,-25.6285l50.19846,45.59401l144.35772,24.64919l-4.20552,8.11381l-2.89353,-0.78198l-145.47844,-28.11849l-41.73826,-41.54114l-52.69293,24.27094l-161.49484,-39.27216l-71.64098,-91.36101l-81.08809,66.76745l-50.66828,-9.6458z" fill="url(#color-3)" stroke="url(#color-4)" stroke-width="1" stroke-linecap="round"/><path d="M100.21999,21.43934l-52.59781,-1.23811l-3.92134,-6.20948l62.44088,0.58986l11.79812,9.82634l127.4304,0.81121l0.03404,-8.80218l146.01736,64.18677l-3.20838,4.18636l-135.23242,-58.34665l-3.25822,6.15358l-133.00206,-2.33031l-14.80532,-4.87897z" fill="url(#color-5)" stroke="url(#color-6)" stroke-width="1" stroke-linecap="round"/><path d="M378.20554,87.74121l4.81089,2.79901l62.52049,3.66271l-0.29296,6.59091l-69.44905,-4.92483z" fill="url(#color-7)" stroke="#000000" stroke-width="1" stroke-linecap="round"/><path d="M438.92183,56.0162l231.46356,6.28156l-3.76027,8.56603l-225.44756,-8.62516z" fill="url(#color-8)" stroke="#000000" stroke-width="1" stroke-linecap="round"/><path d="M526.59562,159.74782l13.03271,-67.80665l4.80906,-5.83082l12.53448,-4.94219l9.61299,-2.13438l7.20847,0.78103l10.61194,2.56804l8.5949,4.48541l9.50725,7.01244l-14.40944,76.1496z" fill="#fbfafa" stroke="#000000" stroke-width="1" stroke-linecap="round"/><path d="M534.38392,152.55943l11.93742,-61.24787l8.86597,-3.72807l8.7584,-3.21112l9.18265,-0.06654l10.30318,2.32398l12.09201,7.55035l-13.59844,66.20572z" fill="#ff0000" stroke="#000000" stroke-width="1" stroke-linecap="round"/><path d="M491.4897,153.07108l-39.36705,-6.93431l9.44551,-47.11435l40.35719,3.90433z" fill="#fbfafa" stroke="#000000" stroke-width="1" stroke-linecap="round"/><path d="M489.78657,145.70521l-32.072,-3.97787l6.25993,-36.99049l32.76127,4.12131z" fill="#ff0000" stroke="#000000" stroke-width="1" stroke-linecap="round"/><path d="M438.12184,143.22304l-48.50687,-7.93751l7.0279,-38.0891l48.40536,3.24209z" fill="#fbfafa" stroke="#000000" stroke-width="1" stroke-linecap="round"/><path d="M439.14693,135.70582l-42.76267,-5.30384l4.63918,-28.33874l43.70295,4.24106z" fill="#ff0000" stroke="#000000" stroke-width="1" stroke-linecap="round"/><path d="M107.87247,177.95777l12.84628,-58.27213l6.35295,-4.61064l11.93182,-2.91024l6.83494,-0.01579l9.19055,3.35089l10.2184,8.77845l8.35878,8.21165l-14.25185,65.88996l-52.50786,-17.21985z" fill="#fbfafa" stroke="#000000" stroke-width="1" stroke-linecap="round"/><path d="M112.30986,179.95993l10.91675,-49.86443l5.836,-4.71821l7.2364,-2.80875l7.50235,-1.49494l8.62285,0.89561l5.35674,3.63173l9.81694,11.57138l-11.77547,54.85443l-43.55433,-14.4576z" fill="#ff0000" stroke="#000000" stroke-width="1" stroke-linecap="round"/><path d="M23.22894,152.74668l170.57707,56.53352l201.21156,19.04246l-6.16909,25.32366l-183.47545,-7.08146l-188.08675,-64.49223z" fill="#453e3c" stroke="#000000" stroke-width="1" stroke-linecap="round"/><path d="M65.77902,199.5805l-3.91147,-1.93767l-32.63363,-11.64552l15.78689,-72.40215l38.94373,8.10468z" fill="#fbfafa" stroke="#000000" stroke-width="1" stroke-linecap="round"/><path d="M66.73026,199.32902l-31.80091,-12.19136l15.06663,-66.34961l32.46039,7.29474z" fill="url(#color-9)" stroke="#000000" stroke-width="1" stroke-linecap="round"/><path d="M80.58854,139.64948l-28.89947,-7.99191l1.85081,-7.1656l28.64055,5.78067z" fill="#ff0000" stroke="#000000" stroke-width="1" stroke-linecap="round"/><path d="M226.39071,246.98371l19.45676,-92.62779l94.07127,21.37521l-14.13849,75.71157z" fill="#fbfafa" stroke="#000000" stroke-width="1" stroke-linecap="round"/><path d="M231.7146,248.18158l17.58999,-84.52165l82.78405,16.86882l-13.94216,70.44891z" fill="url(#color-10)" stroke="#000000" stroke-width="1" stroke-linecap="round"/><path d="M325.71671,188.68608l-79.35167,-14.3567l2.20942,-8.88879l78.26793,16.10875z" fill="#ff0000" stroke="#000000" stroke-width="1" stroke-linecap="round"/><path d="M359.53887,252.71532l-24.66934,-1.53837l14.70134,-79.27996l23.91625,5.15705z" fill="#ff0000" stroke="#000000" stroke-width="1" stroke-linecap="round"/><path d="M360.0379,252.90907l-25.01397,-1.61011l11.39813,-65.13549l24.50493,4.91999z" fill="#592d2a" stroke="#000000" stroke-width="1" stroke-linecap="round"/><path d="M381.37147,174.1554l36.99746,5.36247l-11.15015,66.53545l-41.00454,-9.43243z" fill="#fbfafa" stroke="#000000" stroke-width="1" stroke-linecap="round"/><path d="M383.67725,179.48935l29.05689,5.50775l-10.8511,54.73218l-29.38056,-8.27182l12.24453,-51.92526z" fill="#ff0000" stroke="#000000" stroke-width="1" stroke-linecap="round"/><path d="M421.97655,263.68684l14.44332,-77.17626l11.21369,-3.77885l11.67381,-0.80659l7.6537,1.23327l8.39372,3.72441l5.4792,5.6348l3.10171,0.6455l-18.50035,82.84901z" fill="#fbfafa" stroke="#000000" stroke-width="1" stroke-linecap="round"/><path d="M426.62015,264.69817l14.08833,-58.19341l38.90786,8.27698l-14.20991,60.50527z" fill="#281b1a" stroke="#000000" stroke-width="1" stroke-linecap="round"/><path d="M439.46524,268.62985l13.27661,-60.33994l20.97986,5.44485l-13.62124,60.26821z" fill="#592d2a" stroke="#000000" stroke-width="1" stroke-linecap="round"/><path d="M448.61414,210.84674l-3.65786,17.57636l-6.44746,-0.98224l4.38297,-17.60525z" fill="#ff0000" stroke="#000000" stroke-width="1" stroke-linecap="round"/><path d="M456.56263,214.11892l13.34015,2.41669l-2.30911,12.82321l-14.41691,-1.56209z" fill="#ff0000" stroke="#000000" stroke-width="1" stroke-linecap="round"/><path d="M474.85288,232.4876l-3.0011,-0.26501l3.77333,-14.67585l2.37657,0.67437z" fill="#ff0000" stroke="#000000" stroke-width="1" stroke-linecap="round"/><path d="M479.62047,208.715l-39.84815,-7.2142l2.97742,-9.98741l15.55747,-3.05461l8.24935,0.09876l10.05215,3.53022l6.55596,4.7802z" fill="#ff0000" stroke="#000000" stroke-width="1" stroke-linecap="round"/><path d="M580.70956,212.13441l-15.18941,79.89748l-62.81734,-15.41021l15.5778,-76.58061z" fill="#fbfafa" stroke="#000000" stroke-width="1" stroke-linecap="round"/><path d="M526.29406,204.94482l46.28164,9.99134l-12.31458,68.67522l-48.93113,-11.08209l13.61835,-65.43748z" fill="#ff0000" stroke="#000000" stroke-width="1" stroke-linecap="round"/><path d="M102.15012,24.20251l-11.11294,50.27888l-39.81932,-4.17478l10.24951,-46.13005z" fill="#f6f7f3" stroke="#000000" stroke-width="1" stroke-linecap="round"/><path d="M63.83668,29.43102l32.6968,0.9611l-8.60899,38.24724l-31.5996,-3.11343z" fill="#ff0000" stroke="#000000" stroke-width="1" stroke-linecap="round"/><path d="M260.05004,-31.93333c-0.28759,-0.24321 -1.49177,-1.4131 -0.28757,-3.07429c1.3576,-1.87284 3.0612,-0.62449 3.0612,-0.62449l0.74224,0.71389c3.47731,5.51013 6.69882,11.09447 9.85767,16.82153c3.87443,7.04127 9.33872,12.80409 13.66717,19.50804c8.81362,13.65068 15.07383,29.01955 23.98738,42.63705c0,0 1.17074,1.78859 -0.66628,3.15493c-1.837,1.36635 -3.00778,-0.42226 -3.00778,-0.42226c-8.92258,-13.63144 -15.18698,-29.01882 -24.01331,-42.67727c-4.37984,-6.77761 -9.86523,-12.61418 -13.79806,-19.72847c-3.06194,-5.55131 -6.18155,-10.96519 -9.54266,-16.30874z" data-paper-data="{&quot;index&quot;:null}" fill="#000000" stroke="none" stroke-width="1" stroke-linecap="butt"/><path d="M392.08278,-1.12098c1.42263,1.66555 -0.14491,3.2643 -0.14491,3.2643l-1.43845,1.45745c-1.13816,0.9941 -2.27638,1.98823 -3.41458,2.98234c-19.97557,14.91209 -39.08106,33.09334 -61.8783,42.51379c0,0 -1.99793,0.82359 -2.69754,-1.33319c-0.6996,-2.1568 1.29834,-2.98038 1.29834,-2.98038c22.40566,-9.21181 41.189,-27.2604 60.81886,-41.88283c1.09403,-0.95704 2.18811,-1.91403 3.28219,-2.87107l1.18415,-1.21721c0,0 1.56757,-1.59873 2.99023,0.06681z" data-paper-data="{&quot;index&quot;:null}" fill="#000000" stroke="none" stroke-width="1" stroke-linecap="butt"/><path d="M288.47138,52.17405c2.52427,2.45347 2.39804,4.57916 2.93189,7.99611c0.9679,6.195 1.05943,11.58078 0.12108,17.80501c-1.91754,7.81487 -4.68242,19.02929 -12.58649,22.58555c-7.00552,1.06691 -14.29833,1.29674 -19.6306,-4.20327c-1.74427,-1.79913 -2.77948,-4.91754 -3.81811,-7.18526c-1.41132,-9.24845 1.08801,-18.91307 5.09513,-27.21512c1.7785,-4.31697 3.78814,-8.34114 6.14657,-12.36495c1.30981,-2.23473 2.34108,-4.29226 4.98447,-4.70506l0.67932,-0.22384c0,0 0.16009,-0.05569 0.30131,-0.1899c6.26012,0.01654 10.88843,3.65894 15.77542,7.70069z" data-paper-data="{&quot;noHover&quot;:false,&quot;origItem&quot;:[&quot;Path&quot;,{&quot;applyMatrix&quot;:true,&quot;segments&quot;:[[[463.02145,118.92474],[11.94148,-3.76279],[-0.18782,0.34138]],[462.56327,119.46889],[[461.40637,120.30632],[0,0],[-4.78797,2.38894]],[[454.7767,132.28436],[1.14195,-5.05316],[-2.05618,9.09862]],[[450.59007,159.5336],[0.77318,-9.30587],[-2.60543,18.25199]],[[457.33707,214.37126],[-8.29546,-16.77166],[3.35404,3.69263]],[[468.94246,225.73925],[-4.41495,-2.37184],[13.49664,7.25079]],[[508.8316,221.85864],[-12.70549,6.27955],[12.90926,-11.56875]],[[519.07651,171.27858],[1.08192,16.05697],[-1.9841,-12.43181]],[[508.09898,137.49402],[5.59959,11.22069],[-3.08854,-6.18895]],[[497.69355,124.0439],[6.29819,3.14621],[-11.7641,-4.74133]]],&quot;closed&quot;:true}]}" fill="#ffffff" stroke="none" stroke-width="0.5" stroke-linecap="butt"/><path d="M337.63063,72.47309c2.76917,1.20886 2.83472,3.95876 2.95198,6.66259c0.27223,6.27738 -1.62665,12.55007 -3.73928,18.37424c-2.82909,7.80296 -2.99933,18.43687 -11.21405,22.63802c-7.69253,4.74651 -17.41824,-3.95333 -21.98216,-9.28577c-1.88736,-2.8557 -0.26782,-5.22289 0.51091,-8.26951c1.42998,-5.59447 3.15175,-11.11475 5.36342,-16.44362c2.15255,-5.1955 3.34578,-11.0915 6.06193,-15.99866c0.43394,-0.78398 1.52009,-4.28818 2.43128,-4.50716c0.01355,-0.00325 0.02718,-0.00632 0.04076,-0.00919c0.38083,0.00865 0.76448,0.02421 1.14671,0.0471c0.26594,0.04213 0.53386,0.08221 0.79782,0.07216l0.14405,-0.0019c6.26016,0.56214 12.61921,2.99353 17.48663,6.72171z" data-paper-data="{&quot;noHover&quot;:false,&quot;origItem&quot;:[&quot;Path&quot;,{&quot;applyMatrix&quot;:true,&quot;segments&quot;:[[[566.35295,130.72043],[12.27227,-2.72292],[0,0]],[[566.08002,130.81116],[0,0],[-0.49701,0.17916]],[[564.51821,131.15611],[0.53239,-0.0809],[-0.7424,0.18804]],[[562.30763,131.75969],[0.73107,-0.21435],[-0.02414,0.0137]],[[562.23565,131.80185],[0.02385,-0.01442],[-1.60395,0.96966]],[[560.34435,141.85964],[0.35189,-1.75725],[-2.20257,10.99907]],[[558.52911,175.96742],[0.95361,-11.20702],[-0.98546,11.49706]],[[558.25012,210.46726],[-0.66539,-11.52947],[0.36236,6.27868]],[[562.26585,226.51965],[-5.32806,-4.29887],[11.93061,7.39711]],[[609.69817,230.88926],[-11.78467,13.70908],[13.11047,-12.98617]],[[617.29234,181.04419],[-0.66268,16.58674],[0.49649,-12.38105]],[[613.32811,143.83386],[4.32361,11.79936],[-1.86229,-5.08228]],[[603.68782,132.93587],[6.0106,0.62561],[-11.53671,-4.15555]]],&quot;closed&quot;:true}]}" fill="#ffffff" stroke="none" stroke-width="0.5" stroke-linecap="butt"/><path d="M284.75272,77.99744c0.46028,-1.44736 2.00671,-2.24756 3.45407,-1.78729c1.44736,0.46028 2.24755,2.00672 1.78728,3.45408c-0.46027,1.44736 -2.00671,2.24756 -3.45407,1.78728c-1.44736,-0.46028 -2.24756,-2.00671 -1.78729,-3.45407z" fill="#000000" stroke="none" stroke-width="0.5" stroke-linecap="butt"/><path d="M330.29685,96.31892c0.46027,-1.44736 2.00671,-2.24756 3.45407,-1.78728c1.44736,0.46028 2.24755,2.00672 1.78728,3.45408c-0.46027,1.44736 -2.00672,2.24755 -3.45408,1.78727c-1.44736,-0.46028 -2.24755,-2.00672 -1.78727,-3.45408z" fill="#000000" stroke="none" stroke-width="0.5" stroke-linecap="butt"/><path d="M320.70482,166.3466l-0.60803,-0.42662c0.05261,-1.65872 0.96081,-3.51745 2.17614,-5.10347c-0.09902,-4.1485 -0.44095,-8.26943 -1.453,-12.32453c-1.60869,-9.68714 -6.7409,-17.72683 -12.97721,-25.12485c-6.45551,-7.66094 -13.66884,-14.27381 -21.94903,-19.90434c-1.45336,-0.98836 -2.94316,-1.85953 -4.46181,-2.64233c-0.6532,0.42805 -1.34449,0.80673 -2.07683,1.12942c-7.4967,1.20831 -15.45005,1.3568 -21.10835,-4.60191c-1.24271,-1.30868 -2.16271,-3.16555 -2.96224,-4.99419c-8.82783,-0.29247 -16.87126,0.54653 -25.59811,3.11335c-5.94074,1.74481 -11.94947,4.42519 -15.89216,9.37843c-2.15903,2.71242 -3.29715,6.02905 -4.7595,9.12197c-1.49565,3.16244 -4.017,5.97814 -5.1585,9.30711c-1.88412,5.4947 -1.89399,11.46194 -2.51008,17.17243c0.00424,5.79471 -0.31841,12.0393 -1.28336,17.76228c-0.38612,2.29 -1.23008,4.54858 -1.73849,6.81801c-0.04445,0.1984 -0.07672,0.80961 -0.25757,1.30464c0.21091,-0.15956 0.42242,-0.30733 0.56065,-0.39178c8.71962,-5.23159 16.84081,-10.05566 26.3357,-13.77105c4.91051,-1.91401 11.02656,-3.71936 16.33028,-3.26089c4.4838,0.3876 8.89717,1.82321 13.3069,2.65824c9.83886,1.8631 19.61469,4.51061 29.05625,7.82438c9.27582,3.26141 18.36722,8.8365 26.24812,14.66154c2.60543,1.95336 5.36325,4.51097 7.30788,7.06499c0.29478,0.38715 0.3345,-0.91393 0.50688,-1.36898c0.49868,-1.31641 0.70534,-2.67898 0.93193,-4.06184c0.45928,-2.80289 0.91336,-6.63615 2.03353,-9.34001zM258.50653,92.50739c-0.52352,-0.03221 -1.04382,-0.06086 -1.56118,-0.08584c0.65608,1.45733 1.40926,2.88293 2.39006,3.89458c5.33228,5.50001 12.58915,5.26212 19.59467,4.19522c0.3183,-0.14321 0.6282,-0.29878 0.92999,-0.466c-6.82242,-3.2196 -14.16149,-4.89349 -21.35353,-7.53795zM322.2999,166.44517c-0.00238,0.00357 -0.00476,0.00714 -0.00715,0.01071c-1.75571,3.4506 -1.6789,8.49281 -2.65758,12.32605c-0.27524,1.07805 -0.89743,3.88297 -2.50903,3.83173c-0.10547,-0.00335 -1.90737,-1.50023 -2.03134,-1.61469c-2.07717,-1.91782 -3.7994,-4.04404 -6.06591,-5.74331c-7.76081,-5.73621 -16.71453,-11.23763 -25.84997,-14.44968c-9.36418,-3.29862 -19.07584,-5.91712 -28.83779,-7.76565c-4.35796,-0.82523 -8.72626,-2.25461 -13.15701,-2.63762c-5.05927,-0.43734 -10.97901,1.32594 -15.6545,3.16333c-9.41705,3.68493 -17.46139,8.47074 -26.11055,13.66042c-0.39024,0.23057 -2.32632,1.70537 -3.01986,0.79747c-0.38187,-0.4999 0.06806,-1.25799 0.1582,-1.88056c0.28422,-1.96313 0.91596,-3.9218 1.42114,-5.83635c1.64415,-6.23109 1.88522,-13.49841 1.88968,-19.93996c0.62297,-5.85291 0.65681,-11.95996 2.5925,-17.58892c1.16521,-3.38839 3.69727,-6.23658 5.21794,-9.45191c1.51779,-3.20828 2.71095,-6.62069 4.95548,-9.43164c4.14392,-5.18968 10.39259,-8.0298 16.62892,-9.86649c8.62625,-2.53703 16.66779,-3.47079 25.3681,-3.20418c-0.183,-0.43246 -0.36221,-0.85348 -0.54059,-1.25459c-1.54034,-9.58395 1.0019,-19.57675 5.16251,-28.19207c0.7597,-1.84632 1.55706,-3.63967 2.40565,-5.4019c-0.19637,-0.11443 -0.42133,-0.34451 -0.33223,-0.78246c0.14953,-0.73494 0.88447,-0.58542 0.88447,-0.58542l0.10489,0.02998c0.97207,-1.94061 2.01157,-3.84971 3.13705,-5.75723c1.05732,-1.792 1.99646,-3.42026 3.48445,-4.43804l0.00002,0c-0.04269,-0.07709 -0.07551,-0.17101 -0.09347,-0.28534c-0.11635,-0.74092 0.62458,-0.85726 0.62458,-0.85726c8.4233,-1.23167 13.85292,2.79032 19.97623,7.79883c2.37751,2.31424 2.45583,3.39295 2.89388,6.64031c0.39975,2.96357 1.12407,5.94168 1.53058,8.89835c0.52428,3.81314 -0.35804,7.87823 -0.92176,11.61653c-1.76681,7.22027 -4.17215,16.62413 -10.17015,21.57408c1.34592,0.72369 2.66762,1.51606 3.95985,2.39472c8.39288,5.70716 15.70942,12.41315 22.25262,20.17816c6.38555,7.58085 11.65851,15.85863 13.29888,25.7867c0.90704,3.62174 1.28725,7.29953 1.43499,11.00151c0.06649,-0.06411 0.13323,-0.12717 0.20015,-0.18911l-0.20323,-0.20323l1.06066,-1.06066c0.13572,-0.13572 0.32322,-0.21967 0.53033,-0.21967c0.41421,0 0.75,0.33579 0.75,0.75c0,0.10448 -0.02136,0.20397 -0.05996,0.29434l-0.31259,0.78149c-0.62503,1.54875 -1.18573,3.01433 -1.88054,4.44607c0.00099,0.62488 -0.00116,1.25007 -0.00504,1.87542c-0.01809,2.91446 -0.01826,6.06495 -1.32908,8.72422c0,0 -0.33541,0.67082 -1.00623,0.33541c-0.67082,-0.33541 -0.33541,-1.00623 -0.33541,-1.00623c1.10383,-2.17042 1.15592,-4.8293 1.1672,-7.27164zM258.81158,91.03874c7.62037,2.65861 15.38344,4.4933 22.53102,8.04718c6.07759,-4.53477 8.42538,-14.16249 10.13326,-21.12292c0.21874,-1.4509 0.38203,-2.85386 0.49159,-4.23087c-0.20713,-0.06507 -0.34609,-0.20495 -0.34609,-0.20495l-0.00001,0.00001c-3.04427,-3.10428 -7.81812,-6.25912 -11.73097,-8.28125c-2.81918,-1.45694 -6.21612,-2.28993 -8.72765,-4.23143c-2.14738,-1.90318 -5.44857,-3.04924 -8.14268,-4.39634c-0.8453,1.75109 -1.64025,3.53309 -2.3974,5.37097c-4.00711,8.30203 -6.50583,17.90332 -5.09451,27.15177c0.24917,0.54403 0.49752,1.13645 0.75519,1.74757c0.83573,0.03958 1.67812,0.08979 2.52824,0.15027z" fill="#000000" stroke="none" stroke-width="0.5" stroke-linecap="butt"/><path d="M318.71291,175.71432c-0.2266,1.38286 -0.43482,2.74765 -0.9335,4.06406c-0.17238,0.45505 -0.29162,1.69551 -0.5864,1.30836c-1.94463,-2.55402 -4.62298,-5.05093 -7.22842,-7.00429c-7.88089,-5.82504 -16.9763,-11.39543 -26.25212,-14.65684c-9.44156,-3.31378 -19.27095,-5.94917 -29.10981,-7.81227c-4.40974,-0.83503 -8.84757,-2.29036 -13.33137,-2.67796c-5.30372,-0.45848 -11.42355,1.33985 -16.33405,3.25386c-9.49489,3.71539 -17.52511,8.49795 -26.24473,13.72954c-0.13823,0.08445 -0.44006,0.27516 -0.65096,0.43473c0.18085,-0.49503 0.21279,-1.10695 0.25723,-1.30535c0.50842,-2.26943 1.35076,-4.53199 1.73687,-6.82199c0.96496,-5.72299 1.28479,-11.98125 1.28055,-17.77596c0.61609,-5.71048 0.62724,-11.6925 2.51135,-17.1872c1.1415,-3.32898 3.66579,-6.15338 5.16145,-9.31582c1.46235,-3.09292 2.60494,-6.41754 4.76398,-9.12996c3.94268,-4.95324 9.96291,-7.6455 15.90364,-9.39031c8.72684,-2.56682 16.79451,-3.4153 25.62234,-3.12283c0.79953,1.82864 1.72256,3.68527 2.96527,4.99395c5.6583,5.9587 13.63824,5.81636 21.13494,4.60806c0.73234,-0.32268 1.42496,-0.70062 2.07816,-1.12866c1.51865,0.7828 3.01356,1.65744 4.46692,2.6458c8.2802,5.63053 15.51109,12.26946 21.9666,19.9304c6.23631,7.39802 11.36947,15.46073 12.97816,25.14787c1.01205,4.0551 1.35151,8.18459 1.45054,12.33309c-1.21533,1.58602 -2.12519,3.44857 -2.1778,5.10728l0.60799,0.4267c-1.12017,2.70386 -1.57754,6.54286 -2.03682,9.34576z" data-paper-data="{&quot;noHover&quot;:false,&quot;origItem&quot;:[&quot;Path&quot;,{&quot;applyMatrix&quot;:true,&quot;segments&quot;:[[[320.70482,166.3466],[-1.12017,2.70386],[0,0]],[[320.09679,165.91998],[0,0],[0.05261,-1.65872]],[[322.27293,160.81651],[-1.21533,1.58602],[-0.09902,-4.1485]],[[320.81992,148.49198],[1.01205,4.0551],[-1.60869,-9.68714]],[[307.84271,123.36713],[6.23631,7.39802],[-6.45551,-7.66094]],[[285.89368,103.46279],[8.2802,5.63053],[-1.45336,-0.98836]],[[281.43187,100.82046],[1.51865,0.7828],[-0.6532,0.42805]],[[279.35504,101.94988],[0.73234,-0.32268],[-7.4967,1.20831]],[[258.24668,97.34797],[5.6583,5.9587],[-1.24271,-1.30868]],[[255.28445,92.35378],[0.79953,1.82864],[-8.82783,-0.29247]],[[229.68634,95.46713],[8.72684,-2.56682],[-5.94074,1.74481]],[[213.79418,104.84556],[3.94268,-4.95324],[-2.15903,2.71242]],[[209.03468,113.96753],[1.46235,-3.09292],[-1.49565,3.16244]],[[203.87619,123.27464],[1.1415,-3.32898],[-1.88412,5.4947]],[[201.36611,140.44707],[0.61609,-5.71048],[0.00424,5.79471]],[[200.08275,158.20935],[0.96496,-5.72299],[-0.38612,2.29]],[[198.34425,165.02736],[0.50842,-2.26943],[-0.04445,0.1984]],[[198.08669,166.332],[0.18085,-0.49503],[0.21091,-0.15956]],[[198.64734,165.94022],[-0.13823,0.08445],[8.71962,-5.23159]],[[224.98304,152.16917],[-9.49489,3.71539],[4.91051,-1.91401]],[[241.31332,148.90828],[-5.30372,-0.45848],[4.4838,0.3876]],[[254.62022,151.56652],[-4.40974,-0.83503],[9.83886,1.8631]],[[283.67648,159.39091],[-9.44156,-3.31378],[9.27582,3.26141]],[[309.92459,174.05245],[-7.88089,-5.82504],[2.60543,1.95336]],[[317.23248,181.11744],[-1.94463,-2.55402],[0.29478,0.38715]],[[317.73936,179.74846],[-0.17238,0.45505],[0.49868,-1.31641]],[[318.67129,175.68661],[-0.2266,1.38286],[0.45928,-2.80289]]],&quot;closed&quot;:true}]}" fill="#6d0000" stroke="none" stroke-width="0.5" stroke-linecap="butt"/><path d="M279.90814,100.05909c-0.30179,0.16721 -0.61265,0.32578 -0.93095,0.469c-7.00552,1.0669 -14.35944,1.28554 -19.69172,-4.21446c-0.98079,-1.01164 -1.73078,-2.45248 -2.38686,-3.90982c0.51736,0.02498 1.03848,0.0516 1.56201,0.08381c7.19204,2.64446 14.6251,4.35188 21.44752,7.57148z" data-paper-data="{&quot;noHover&quot;:false,&quot;origItem&quot;:[&quot;Path&quot;,{&quot;applyMatrix&quot;:true,&quot;segments&quot;:[[[258.50653,92.50739],[7.19204,2.64446],[-0.52352,-0.03221]],[[256.94535,92.42155],[0.51736,0.02498],[0.65608,1.45733]],[[259.33541,96.31612],[-0.98079,-1.01164],[5.33228,5.50001]],[[278.93008,100.51134],[-7.00552,1.0669],[0.3183,-0.14321]],[[279.86006,100.04535],[-0.30179,0.16721],[-6.82242,-3.2196]]],&quot;closed&quot;:true}]}" fill="#6d0000" stroke="none" stroke-width="0.5" stroke-linecap="butt"/><path d="M342.53993,86.78871c-0.14953,0.73494 -0.88447,0.58542 -0.88447,0.58542l-0.12586,-0.02561c-0.0598,-0.01427 -0.12149,-0.02792 -0.185,-0.04098c-0.7166,3.65608 -1.88586,7.24323 -3.1398,10.7023c-3.00726,8.29191 -3.17522,18.86274 -11.84823,23.39699c-8.5155,5.06523 -18.74396,-3.64243 -23.87378,-9.68018c-2.20617,-3.42864 -0.66639,-5.88283 0.26186,-9.50412c1.45307,-5.66868 3.19266,-11.222 5.43396,-16.62225c0.18347,-0.44123 0.35984,-0.88716 0.53064,-1.33684c-0.08366,-0.12117 -0.13457,-0.28746 -0.10768,-0.51511c0.05003,-0.42358 0.3125,-0.57782 0.5296,-0.63206c1.63299,-4.57603 2.83389,-9.44843 5.15302,-13.64308c0.52317,-0.94626 1.01557,-2.56087 1.76546,-3.76731c-0.04891,0.00223 -0.09778,0.00461 -0.14663,0.00709c0,0 -0.74902,0.03814 -0.78716,-0.71089c-0.03814,-0.74902 0.71089,-0.78717 0.71089,-0.78717c0.67889,-0.03456 1.36367,-0.04608 2.05223,-0.03516c0.33409,-0.05677 0.68349,-0.01659 1.03557,0.03314c0.43056,0.02068 0.86217,0.04991 1.29432,0.08758l0.1211,-0.00176c0,0 0.10174,-0.0014 0.2308,0.03428l-0.00001,0.00001c6.39134,0.62418 12.87309,3.08038 17.81136,6.89387c3.23634,1.49432 3.53667,4.65341 3.67057,7.87513c0.09393,2.25993 -0.07889,4.51059 -0.43633,6.7388c0.0761,0.01217 0.15025,0.02478 0.22231,0.03785l0.12586,0.02561c0,0 0.73494,0.14953 0.58542,0.88447zM333.26708,87.48679c-3.86696,-0.73966 -7.5522,-1.97216 -11.50936,-2.33218c-3.84771,-0.35006 -7.7399,-0.12214 -11.60382,-0.47957c-0.18914,0.50529 -0.38502,1.00584 -0.58987,1.50026c-2.21167,5.32887 -3.93061,10.80197 -5.36059,16.39644c-0.77872,3.04661 -2.40628,5.40154 -0.51893,8.25724c4.56392,5.33244 14.24623,14.01583 21.93876,9.26932c8.21471,-4.20115 8.34229,-14.79685 11.17139,-22.59979c1.21428,-3.34755 2.3613,-6.82897 3.06554,-10.37641c-2.14795,-0.14583 -5.00461,0.05422 -6.59312,0.36469z" fill="#000000" stroke="none" stroke-width="0.5" stroke-linecap="butt"/></g></g></svg>