<svg version="1.1" xmlns="http://www.w3.org/2000/svg" xmlns:xlink="http://www.w3.org/1999/xlink" width="2878.25006" height="1619.57958" viewBox="0,0,2878.25006,1619.57958"><defs><linearGradient x1="24.76501" y1="140.13627" x2="625.65752" y2="113.99094" gradientUnits="userSpaceOnUse" id="color-1"><stop offset="0" stop-color="#ff00e1"/><stop offset="1" stop-color="#00b8ff"/></linearGradient><linearGradient x1="8.46112" y1="117.69196" x2="29.38645" y2="116.78148" gradientUnits="userSpaceOnUse" id="color-2"><stop offset="0" stop-color="#45ff00"/><stop offset="1" stop-color="#ff00e1"/></linearGradient><linearGradient x1="11.22126" y1="122.41672" x2="632.69436" y2="95.37593" gradientUnits="userSpaceOnUse" id="color-3"><stop offset="0" stop-color="#feff00"/><stop offset="1" stop-color="#03ff51"/></linearGradient><linearGradient x1="11.22126" y1="122.41672" x2="632.69436" y2="95.37593" gradientUnits="userSpaceOnUse" id="color-4"><stop offset="0" stop-color="#feff00"/><stop offset="1" stop-color="#03ff51"/></linearGradient><linearGradient x1="12.62028" y1="61.44301" x2="366.28452" y2="46.05479" gradientUnits="userSpaceOnUse" id="color-5"><stop offset="0" stop-color="#45ff00"/><stop offset="1" stop-color="#ff00e1"/></linearGradient><linearGradient x1="12.62028" y1="61.44301" x2="366.28452" y2="46.05479" gradientUnits="userSpaceOnUse" id="color-6"><stop offset="0" stop-color="#45ff00"/><stop offset="1" stop-color="#ff00e1"/></linearGradient><linearGradient x1="355.03314" y1="67.86163" x2="423.96361" y2="64.86239" gradientUnits="userSpaceOnUse" id="color-7"><stop offset="0" stop-color="#45ff00"/><stop offset="1" stop-color="#ff00e1"/></linearGradient><linearGradient x1="405.98549" y1="3.93905" x2="633.6582" y2="-5.96718" gradientUnits="userSpaceOnUse" id="color-8"><stop offset="0" stop-color="#45ff00"/><stop offset="1" stop-color="#ff00e1"/></linearGradient><linearGradient x1="46.0988" y1="216.87098" x2="80.56403" y2="215.37135" gradientUnits="userSpaceOnUse" id="color-9"><stop offset="0" stop-color="#ff0000"/><stop offset="1" stop-color="#45ff00"/></linearGradient><linearGradient x1="251.33076" y1="215.56078" x2="336.43877" y2="211.85766" gradientUnits="userSpaceOnUse" id="color-10"><stop offset="0" stop-color="#0030ff"/><stop offset="1" stop-color="#ff0303"/></linearGradient></defs><g transform="translate(1117.37278,629.80931)"><g data-paper-data="{&quot;isPaintingLayer&quot;:true}" fill-rule="nonzero" stroke-linejoin="miter" stroke-miterlimit="10" stroke-dasharray="" stroke-dashoffset="0" style="mix-blend-mode: normal"><path d="M475.4559,173.87584c2.87743,-0.29667 5.75355,-0.59314 8.62727,-0.92426c1.43742,-0.16562 3.01448,0.17772 4.38959,-0.17059c-0.01307,-1.78708 -0.02614,-3.57414 -0.03921,-5.36121c0,0 -0.0106,-1.44898 1.43838,-1.45958c1.44898,-0.0106 1.45958,1.43838 1.45958,1.43838c0.00625,0.85605 0.01251,1.71208 0.01878,2.56813c0.17609,-0.04354 0.36335,-0.0545 0.55396,-0.02703c0.64434,0.09281 1.12824,0.59623 1.22494,1.2072l0.49659,2.72354c1.33647,3.56905 2.66378,7.1415 3.99308,10.71325c2.88599,7.75629 3.59049,16.52596 4.99279,24.63536c0.60045,3.47237 -0.55645,7.20001 -0.32534,10.61821c0.2543,3.76141 3.16383,6.31097 4.33948,9.63739c1.23592,3.49704 1.93721,7.47715 3.1297,11.0769c1.65118,7.58815 3.43066,14.58755 6.16304,21.84793c0.7093,1.88476 1.19342,5.53771 2.98104,6.8087c1.52437,1.08382 5.49141,-1.32435 6.95312,-1.42037c6.58964,-0.43281 14.26001,2.60898 19.98906,5.43784c7.34928,3.06856 14.36512,6.12258 20.5241,11.33625c9.82517,8.31722 15.65623,20.29155 20.55727,31.91154c5.33592,12.65104 6.48882,26.19701 8.10399,39.72941c0.79917,6.69564 2.46952,13.63586 2.16773,20.36978c-0.04934,1.05219 -0.17663,6.3795 -0.83358,6.86899c-1.11262,0.829 -2.79038,-0.07113 -4.14645,-0.36471c-3.52452,-0.76304 -7.3344,-2.95812 -10.62593,-4.43321c-3.5018,-1.56936 -6.709,-2.37009 -10.32017,-3.51998c-9.25116,-2.94583 -17.48922,-6.66926 -27.19754,-8.19841c-4.84964,-0.76388 -9.70471,-1.67793 -14.35243,-3.32559c-3.59992,-1.27619 -6.86656,-3.70068 -10.45397,-4.87402c-2.40437,-0.78642 -5.50688,-0.77426 -8.01023,-1.13472c-5.29214,-0.76205 -11.60729,-2.69682 -16.937,-2.38437c-3.22173,0.18888 -5.51844,0.32087 -8.83855,-0.15734c-4.61479,-0.6648 -9.32205,-1.24417 -13.88449,-2.20415c-7.30331,-1.53665 -14.83915,-4.03008 -22.39353,-4.07294c-2.82925,-0.01606 -5.71591,0.9125 -8.54488,1.06075c-4.87386,0.25544 -9.78178,-0.0879 -14.6738,0.15711c-1.1032,-0.34944 -2.62207,-0.11746 -3.30961,-1.04829c-0.75762,-1.02574 -0.23507,-2.54084 -0.28272,-3.81516c-0.14899,-3.98479 0.42204,-7.74883 0.87067,-11.68394c0.57116,-5.00976 -0.92218,-9.06331 -1.55222,-13.94859c-1.23344,-9.56417 -0.91426,-19.27033 -2.21967,-28.86387c-2.73065,-20.06776 -5.25252,-40.22619 -6.54457,-60.44644c-0.73565,-11.52092 -2.39581,-23.40751 -1.35707,-34.94053c0.79219,-8.79559 3.17197,-17.22038 5.41809,-25.72021c0.44654,-1.68978 1.26542,-8.08683 2.46587,-9.12023c2.88637,-2.48474 6.67581,0.53514 9.54945,1.10544c4.05472,0.80468 7.94464,2.16049 11.82352,3.55932c1.18193,-0.65727 2.6478,0.88208 3.93035,1.39688c0.1029,0.0413 0.20559,0.08234 0.30813,0.1231c1.12459,0.39387 2.25294,0.77588 3.38874,1.13375c4.12759,1.30055 8.33864,2.20165 12.39703,3.67573c3.0877,0.86977 6.14217,1.84394 8.96463,3.1288c1.88048,-0.23338 3.7557,-0.45741 5.62294,-0.64991zM487.29386,175.49889c-2.87516,0.38795 -5.77242,0.66498 -8.65798,0.96251c-1.42902,0.14734 -2.86445,0.31266 -4.30481,0.48749c2.74551,1.66977 5.32851,3.47692 8.21453,4.85756c0.49322,-0.4505 1.21396,-0.34668 1.21396,-0.34668l0.10955,0.09091c0.85459,-0.14637 3.54069,-0.84963 4.66814,0.04226c-0.01502,-2.05192 -0.03002,-4.10383 -0.04502,-6.15574c-0.40572,0.00599 -0.81192,0.00958 -1.19832,0.06171z" data-paper-data="{&quot;index&quot;:null}" fill="#d221e7" stroke="none" stroke-width="1" stroke-linecap="butt"/><path d="M123.27741,185.39016c1.39103,0.40578 0.98526,1.79682 0.98526,1.79682l-0.38079,1.30539c4.20147,-1.64759 7.79316,-6.18209 11.49144,-8.56947c4.2766,-2.76071 8.61239,-3.70072 13.18222,-5.49079c2.77937,-1.08872 4.22042,-3.6775 6.71963,-5.10825c3.46718,-1.98489 8.05853,-2.65908 11.95289,-2.63153c6.48329,0.08162 13.23615,-2.02646 19.59796,-3.26276c3.15847,-0.61378 7.0349,-0.75175 10.01709,-1.92757c2.89107,-1.13991 5.18599,-2.31778 8.37082,-2.81094c1.27086,-0.19679 2.70783,-1.03653 3.8353,-0.41795c1.12412,0.61675 1.17478,2.28103 1.69578,3.45261c1.91603,4.30852 3.75518,8.94904 4.66166,13.56804c0.72107,3.71053 2.07209,7.80804 2.23594,11.57926c0.17631,4.05771 -2.38876,7.56135 -3.33543,11.43256c-0.64907,2.65428 -1.47526,5.64182 -1.86762,8.34256c-0.15729,1.08266 -0.0579,4.93389 -0.26462,5.88901c-0.40791,1.88478 -1.77378,3.47607 -2.16732,5.36389c-0.39185,1.87962 0.19271,3.86921 -0.15166,5.75811c-0.68055,3.73265 -2.27822,7.40015 -3.03027,11.18454c-1.68023,8.45529 -3.21392,16.98406 -3.80414,25.59835c-0.38126,5.56488 -0.84577,11.62905 -0.50705,17.19375c0.07074,1.16209 0.85349,4.71527 0.87316,5.79188c0.06945,3.8022 -0.89686,7.92617 -1.33091,11.70824c-1.6362,14.25689 -3.40411,28.27103 -3.88813,42.59816c-0.19003,5.625 -0.7835,11.40042 -0.03018,16.97588c-0.71738,0.75503 -1.67885,1.33735 -2.15213,2.26509c-0.48575,0.95209 0.07874,2.33025 -0.60943,3.14811c-0.70813,0.84157 -2.012,0.90483 -3.06583,1.21976c-3.66206,1.09439 -7.71061,1.50189 -11.46511,2.23075c-5.63863,1.09461 -11.7121,1.95201 -17.45821,2.19917c-2.87365,0.1236 -5.79272,-0.41068 -8.66172,-0.22874c-4.82877,0.30622 -9.32506,1.80977 -14.20439,1.56303c-5.57123,-0.29577 -11.57713,-1.1012 -17.1404,-0.64157c-8.45491,0.69855 -16.66622,3.21127 -25.22953,3.72393c-0.15692,0.0094 -5.93548,0.16203 -6.01391,0.15478c-1.8909,-0.17483 -3.66798,-1.16872 -5.56643,-1.2122c-1.84091,-0.04216 -3.62788,0.63364 -5.44398,0.93777c-3.72041,0.61973 -7.41783,0.43291 -11.14212,0.87278c-4.42456,0.52257 -8.34299,2.58905 -12.65454,3.56219c-0.7597,0.17146 -5.71042,1.3095 -6.305,0.8825c-2.51598,-1.80682 -0.5697,-4.22181 -0.38682,-6.12779c0.25778,-2.68651 -0.48399,-5.76682 -0.59348,-8.46796c-0.19592,-4.8327 -0.13085,-9.69164 -0.19588,-14.52809c-0.05071,-3.77255 0.21851,-7.7164 -0.14909,-11.46935c-0.44186,-4.51112 -2.5489,-9.19022 -2.55653,-13.71425c-0.00484,-2.8813 1.43486,-5.77178 1.63319,-8.64233c0.42522,-6.15487 -2.30232,-12.05283 1.60486,-17.6374c1.71457,-2.45061 4.93913,-3.77192 7.28527,-5.50351c6.40695,-4.67372 14.72536,-5.61422 22.34086,-7.09415c7.83478,-1.52255 15.93454,-3.88032 23.1946,0.30713c4.14695,2.39187 8.93486,3.59104 10.87608,8.396c1.35368,-1.75297 1.23082,-3.65037 1.33536,-5.79735c0.18794,-3.85945 0.388,-7.71838 0.58201,-11.57755c0.66991,-13.32634 1.17175,-26.65778 1.53473,-39.99588c0.1473,-2.77645 0.61083,-5.77118 0.46185,-8.5461c-0.31078,-5.78739 -1.84618,-11.68434 -1.16233,-17.55664c0.22076,-1.89576 1.30171,-3.63734 1.44418,-5.54057c0.06839,-0.91361 -0.94819,-5.36736 -0.83937,-5.82313c0.25055,-1.04933 1.45275,-1.62355 1.9591,-2.57618c0.86009,-1.61818 1.03593,-3.51569 1.54909,-5.27494l0.53726,-1.84181c0,0 0.40579,-1.39103 1.79683,-0.98525z" data-paper-data="{&quot;index&quot;:null}" fill="#d221e7" stroke="none" stroke-width="1" stroke-linecap="butt"/><path d="M-1117.37278,989.77027v-1619.57958h2878.25006v1619.57958z" fill="none" stroke="#000000" stroke-width="0" stroke-linecap="butt"/><path d="M-1117.37278,989.77027v-1619.57958h2878.25006v1619.57958z" fill="none" stroke="#000000" stroke-width="0" stroke-linecap="butt"/><g><path d="M428.65528,172.15364l0.4256,-4.46988l4.16237,-45.82826c0,0 11.54006,-5.81001 17.50425,-5.64728c5.72667,0.15624 17.59729,6.60494 17.59729,6.60494l-5.3335,54.74907l-33.73506,-5.05066l-1.46826,0.39456z" data-paper-data="{&quot;index&quot;:null}" fill="none" stroke="#000000" stroke-width="0" stroke-linecap="round"/><path d="M69.91511,71.55558l4.01379,3.39408l14.60931,0.85132l129.44715,-30.61343l1.1742,-7.18853l136.58223,22.3096l0.43605,15.1481l66.81908,-12.42395l-3.11114,-38.1072l199.1597,-42.39231l12.06229,256.72068l-137.57537,-4.12537l-0.3358,-7.71763l-87.21709,-1.85558l-176.95589,37.43886l-199.32973,-15.41588l-5.82733,-128.0902l5.26766,-0.40538l-1.29329,-37.82154z" fill="url(#color-1)" stroke="#000000" stroke-width="1" stroke-linecap="round"/><path d="M29.29477,118.7234l-19.08272,2.76823l-1.83506,-5.73396l20.84116,-2.84474z" fill="url(#color-2)" stroke="#000000" stroke-width="1" stroke-linecap="round"/><path d="M12.99822,163.25627l45.35984,-2.14982l66.40275,-90.44865l97.55525,73.84526l158.22835,0.51474l47.65226,-38.54179l59.87566,31.83715l145.98394,-11.63717l-2.07926,8.89927l-2.99698,-0.04579l-147.92402,8.5504l-50.67823,-29.9911l-45.09879,36.49277l-166.19283,1.68164l-91.92245,-70.91916l-62.16165,84.67054l-51.48374,3.12097z" fill="url(#color-3)" stroke="url(#color-4)" stroke-width="1" stroke-linecap="round"/><path d="M69.9608,71.45658l-51.28469,11.74493l-5.32895,-5.0534l60.66546,-14.79574l13.85361,6.62043l123.71046,-30.57591l-2.13333,-8.53981l157.32321,26.27583l-2.07938,4.84721l-145.43267,-23.26965l-1.64353,6.76619l-129.48462,30.47479l-15.5507,-1.08513z" fill="url(#color-5)" stroke="url(#color-6)" stroke-width="1" stroke-linecap="round"/><path d="M355.71359,67.30348l5.35178,1.5289l61.49888,-11.837l1.33815,6.46028l-68.52495,12.3189z" fill="url(#color-7)" stroke="#000000" stroke-width="1" stroke-linecap="round"/><path d="M406.75442,21.61127l225.89002,-50.87764l-1.53641,9.228l-220.63586,47.12552z" fill="url(#color-8)" stroke="#000000" stroke-width="1" stroke-linecap="round"/><path d="M517.26109,100.57466l-4.0562,-68.92852l3.2261,-6.83504l10.9326,-7.87506l8.79201,-4.4346l7.17897,-1.01709l10.91756,-0.12268l9.43445,2.23214l10.94067,4.4569l4.77511,77.35368z" fill="#fbfafa" stroke="#000000" stroke-width="1" stroke-linecap="round"/><path d="M523.04068,91.69058l-3.5036,-62.30191l7.67574,-5.79542l7.69871,-5.2679l8.88383,-2.32445l10.55823,-0.28324l13.57831,4.34212l3.11386,67.51606z" fill="#ff0000" stroke="#000000" stroke-width="1" stroke-linecap="round"/><path d="M481.59175,102.74328l-39.86279,2.96769l-2.44043,-47.98983l40.07676,-6.14816z" fill="#fbfafa" stroke="#000000" stroke-width="1" stroke-linecap="round"/><path d="M478.12818,96.02314l-32.06451,4.03779l-3.03643,-37.39336l32.76788,-4.0684z" fill="#ff0000" stroke="#000000" stroke-width="1" stroke-linecap="round"/><path d="M427.44169,106.33263l-48.96838,4.24477l-2.56246,-38.64718l47.71439,-8.77078z" fill="#fbfafa" stroke="#000000" stroke-width="1" stroke-linecap="round"/><path d="M426.58517,98.79434l-42.75269,5.38371l-2.47802,-28.60884l43.40248,-6.64522z" fill="#ff0000" stroke="#000000" stroke-width="1" stroke-linecap="round"/><path d="M115.89898,221.27734l-1.89033,-59.64138l5.02281,-6.03236l10.84857,-5.75729l6.62082,-1.69747l9.73256,0.98592l12.06458,5.99356l10.12266,5.90187l2.40284,67.37083l-55.1308,-3.76737z" fill="#fbfafa" stroke="#000000" stroke-width="1" stroke-linecap="round"/><path d="M120.69264,222.12583l-1.69128,-51.01741l4.49528,-6.00939l6.32255,-4.50332l6.90367,-3.29538l8.57804,-1.25413l6.08579,2.20166l12.36284,8.79939l2.08707,56.06527l-45.77285,-3.29366z" fill="#ff0000" stroke="#000000" stroke-width="1" stroke-linecap="round"/><path d="M27.65422,217.67351l179.24394,12.81354l199.70915,-31.06387l0.25312,26.06303l-179.57483,38.29189l-198.17378,-16.21811z" fill="#453e3c" stroke="#000000" stroke-width="1" stroke-linecap="round"/><path d="M80.42189,252.5947l-4.26804,-0.91541l-34.49597,-3.25579l-2.51774,-74.0605l39.74053,-1.72913z" fill="#fbfafa" stroke="#000000" stroke-width="1" stroke-linecap="round"/><path d="M81.28197,252.11684l-33.8232,-3.98978l-1.72624,-68.01687l33.25728,-0.91853z" fill="url(#color-9)" stroke="#000000" stroke-width="1" stroke-linecap="round"/><path d="M80.02613,190.86227l-29.97747,-0.63358l0.03034,-7.4007l29.1823,-1.44592z" fill="#ff0000" stroke="#000000" stroke-width="1" stroke-linecap="round"/><path d="M247.75988,259.01136l-3.93853,-94.56723l96.43846,-2.43434l4.92993,76.86244z" fill="#fbfafa" stroke="#000000" stroke-width="1" stroke-linecap="round"/><path d="M253.21483,258.86212l-3.75286,-86.25099l84.38935,-4.0242l3.82501,71.71333z" fill="url(#color-10)" stroke="#000000" stroke-width="1" stroke-linecap="round"/><path d="M329.683,178.06156l-80.44428,5.6143l-0.04618,-9.15915l79.82507,-3.64942z" fill="#ff0000" stroke="#000000" stroke-width="1" stroke-linecap="round"/><path d="M378.22321,231.7973l-24.28916,4.58037l-5.26261,-80.45959l24.44983,-0.88765z" fill="#ff0000" stroke="#000000" stroke-width="1" stroke-linecap="round"/><path d="M378.75457,231.86227l-24.64084,4.59566l-4.9831,-65.93723l24.96206,-1.2623z" fill="#592d2a" stroke="#000000" stroke-width="1" stroke-linecap="round"/><path d="M380.04972,150.28051l37.17924,-3.908l5.56799,67.2331l-42.06473,0.94941z" fill="#fbfafa" stroke="#000000" stroke-width="1" stroke-linecap="round"/><path d="M383.59732,154.88291l29.51866,-1.81291l2.95292,55.71928l-30.51265,-0.78648l-0.91153,-53.34164z" fill="#ff0000" stroke="#000000" stroke-width="1" stroke-linecap="round"/><path d="M441.44061,227.06468l-4.99495,-78.3571l9.93875,-6.42244l11.11623,-3.65485l7.72181,-0.68833l9.05216,1.54406l6.69746,4.11298l3.16517,-0.13772l2.45884,84.85385z" fill="#fbfafa" stroke="#000000" stroke-width="1" stroke-linecap="round"/><path d="M446.19028,226.90206l-0.66711,-59.87077l39.74817,-1.5533l1.11825,62.14144z" fill="#281b1a" stroke="#000000" stroke-width="1" stroke-linecap="round"/><path d="M459.60791,227.55147l-1.98215,-61.7515l21.67459,0.11398l1.63047,61.76679z" fill="#592d2a" stroke="#000000" stroke-width="1" stroke-linecap="round"/><path d="M454.25428,169.29404l0.78041,17.93598l-6.49089,0.63477l-0.08471,-18.14244z" fill="#ff0000" stroke="#000000" stroke-width="1" stroke-linecap="round"/><path d="M462.76361,170.50935l13.5246,-0.94082l0.91786,12.99709l-14.35791,2.03413z" fill="#ff0000" stroke="#000000" stroke-width="1" stroke-linecap="round"/><path d="M485.01203,183.81158l-2.97401,0.48175l0.04536,-15.1531l2.46944,0.06872z" fill="#ff0000" stroke="#000000" stroke-width="1" stroke-linecap="round"/><path d="M483.78225,159.59683l-40.39798,2.81481l0.42782,-10.41299l14.32717,-6.78954l8.01992,-1.93454l10.61179,0.94768l7.53077,3.01967z" fill="#ff0000" stroke="#000000" stroke-width="1" stroke-linecap="round"/><path d="M582.60353,138.03182l4.94153,81.17824l-64.6778,0.5239l-3.74877,-78.05898z" fill="#fbfafa" stroke="#000000" stroke-width="1" stroke-linecap="round"/><path d="M528.09233,144.45568l47.31707,-1.70645l4.966,69.59363l-50.15351,1.30132l-2.90549,-66.77635z" fill="#ff0000" stroke="#000000" stroke-width="1" stroke-linecap="round"/><path d="M72.51161,73.65973l1.60312,51.4674l-39.622,5.75365l-1.41892,-47.23368z" fill="#f6f7f3" stroke="#000000" stroke-width="1" stroke-linecap="round"/><path d="M36.66344,88.15682l31.92763,-7.11554l1.06892,39.18958l-31.39389,4.75938z" fill="#ff0000" stroke="#000000" stroke-width="1" stroke-linecap="round"/><path d="M211.73903,-19.61054c-0.3386,-0.16495 -1.79367,-1.00249 -1.03534,-2.90895c0.85491,-2.14936 2.81335,-1.35868 2.81335,-1.35868l0.89511,0.50926c4.72646,4.48484 9.22326,9.10456 13.69444,13.87803c5.4882,5.87115 12.20272,10.11188 18.04795,15.54434c11.90212,11.06166 21.75224,24.4171 33.74306,35.42201c0,0 1.57492,1.44544 0.13068,3.22187c-1.44422,1.77643 -3.01919,0.33098 -3.01919,0.33098c-12.003,-11.0162 -21.86173,-24.38854 -33.77809,-35.45461c-5.91317,-5.49121 -12.66629,-9.79823 -18.22907,-15.72578c-4.334,-4.62698 -8.69008,-9.10656 -13.26292,-13.45854z" data-paper-data="{&quot;index&quot;:null}" fill="#000000" stroke="none" stroke-width="1" stroke-linecap="butt"/><path d="M347.29392,-22.24079c1.78878,1.26419 0.66293,3.19956 0.66293,3.19956l-1.03551,1.76664c-0.85849,1.24364 -1.71703,2.48732 -2.57556,3.73098c-15.6911,19.36964 -29.73431,41.69376 -49.51185,56.43512c0,0 -1.73378,1.28997 -2.94268,-0.62829c-1.2089,-1.91828 0.5249,-3.20824 0.5249,-3.20824c19.44935,-14.44277 33.21297,-36.55902 48.64028,-55.56283c0.82484,-1.19686 1.64974,-2.39368 2.47463,-3.59055l0.84816,-1.4712c0,0 1.12589,-1.93535 2.9147,-0.67118z" data-paper-data="{&quot;index&quot;:null}" fill="#000000" stroke="none" stroke-width="1" stroke-linecap="butt"/><path d="M259.98602,54.91498c3.05046,1.75675 3.45127,3.84812 4.80965,7.02859c2.46279,5.76624 3.87701,10.96383 4.49938,17.22755c0.06478,8.04643 0.14494,19.59638 -6.64077,24.98854c-6.52746,2.75824 -13.53939,4.77585 -20.06127,0.75735c-2.13341,-1.31451 -3.90425,-4.08222 -5.46905,-6.02457c-3.64407,-8.61664 -3.60019,-18.5991 -1.75956,-27.63199c0.66134,-4.6219 1.61877,-9.01689 2.91435,-13.49737c0.71953,-2.48835 1.21269,-4.7364 3.67318,-5.78708l0.60334,-0.38414c0,0 0.14146,-0.09338 0.24531,-0.25821c6.07164,-1.52466 11.45403,0.86662 17.18542,3.58131z" data-paper-data="{&quot;noHover&quot;:false,&quot;origItem&quot;:[&quot;Path&quot;,{&quot;applyMatrix&quot;:true,&quot;segments&quot;:[[[463.02145,118.92474],[11.94148,-3.76279],[-0.18782,0.34138]],[462.56327,119.46889],[[461.40637,120.30632],[0,0],[-4.78797,2.38894]],[[454.7767,132.28436],[1.14195,-5.05316],[-2.05618,9.09862]],[[450.59007,159.5336],[0.77318,-9.30587],[-2.60543,18.25199]],[[457.33707,214.37126],[-8.29546,-16.77166],[3.35404,3.69263]],[[468.94246,225.73925],[-4.41495,-2.37184],[13.49664,7.25079]],[[508.8316,221.85864],[-12.70549,6.27955],[12.90926,-11.56875]],[[519.07651,171.27858],[1.08192,16.05697],[-1.9841,-12.43181]],[[508.09898,137.49402],[5.59959,11.22069],[-3.08854,-6.18895]],[[497.69355,124.0439],[6.29819,3.14621],[-11.7641,-4.74133]]],&quot;closed&quot;:true}]}" fill="#ffffff" stroke="none" stroke-width="0.5" stroke-linecap="butt"/><path d="M312.62904,62.49096c2.98151,0.49015 3.72183,3.13933 4.50093,5.73114c1.8088,6.0173 1.51211,12.56439 0.89786,18.72936c-0.82167,8.25922 1.63046,18.60795 -5.29763,24.70162c-6.28774,6.49374 -17.85544,0.45511 -23.59136,-3.59008c-2.53213,-2.30336 -1.545,-4.99633 -1.54003,-8.14089c0.00913,-5.77433 0.31933,-11.54856 1.15147,-17.25784c0.80766,-5.56546 0.51312,-11.57378 1.93801,-16.99848c0.22765,-0.86666 0.41796,-4.53039 1.24723,-4.96689c0.01233,-0.00648 0.02479,-0.01281 0.03724,-0.01894c0.37125,-0.08534 0.74692,-0.16468 1.12303,-0.23657c0.26813,-0.02462 0.53767,-0.05171 0.79104,-0.12641l0.13915,-0.03729c6.20596,-0.99585 12.9678,-0.20429 18.60306,2.21129z" data-paper-data="{&quot;noHover&quot;:false,&quot;origItem&quot;:[&quot;Path&quot;,{&quot;applyMatrix&quot;:true,&quot;segments&quot;:[[[566.35295,130.72043],[12.27227,-2.72292],[0,0]],[[566.08002,130.81116],[0,0],[-0.49701,0.17916]],[[564.51821,131.15611],[0.53239,-0.0809],[-0.7424,0.18804]],[[562.30763,131.75969],[0.73107,-0.21435],[-0.02414,0.0137]],[[562.23565,131.80185],[0.02385,-0.01442],[-1.60395,0.96966]],[[560.34435,141.85964],[0.35189,-1.75725],[-2.20257,10.99907]],[[558.52911,175.96742],[0.95361,-11.20702],[-0.98546,11.49706]],[[558.25012,210.46726],[-0.66539,-11.52947],[0.36236,6.27868]],[[562.26585,226.51965],[-5.32806,-4.29887],[11.93061,7.39711]],[[609.69817,230.88926],[-11.78467,13.70908],[13.11047,-12.98617]],[[617.29234,181.04419],[-0.66268,16.58674],[0.49649,-12.38105]],[[613.32811,143.83386],[4.32361,11.79936],[-1.86229,-5.08228]],[[603.68782,132.93587],[6.0106,0.62561],[-11.53671,-4.15555]]],&quot;closed&quot;:true}]}" fill="#ffffff" stroke="none" stroke-width="0.5" stroke-linecap="butt"/><path d="M262.73719,80.85928c0.08991,-1.51612 1.39183,-2.6723 2.90795,-2.5824c1.51612,0.08991 2.6723,1.39185 2.5824,2.90797c-0.0899,1.51612 -1.39183,2.6723 -2.90796,2.58239c-1.51612,-0.08991 -2.6723,-1.39183 -2.5824,-2.90795z" fill="#000000" stroke="none" stroke-width="0.5" stroke-linecap="butt"/><path d="M311.38958,87.40826c0.0899,-1.51612 1.39183,-2.6723 2.90796,-2.58239c1.51612,0.08991 2.6723,1.39185 2.5824,2.90797c-0.0899,1.51612 -1.39185,2.6723 -2.90797,2.58239c-1.51612,-0.08991 -2.6723,-1.39185 -2.58239,-2.90797z" fill="#000000" stroke="none" stroke-width="0.5" stroke-linecap="butt"/><path d="M319.32725,157.6427l-0.69432,-0.26385c-0.35724,-1.62065 0.06557,-3.64573 0.85318,-5.48207c-1.11697,-3.99653 -2.46259,-7.90655 -4.44152,-11.58784c-3.94333,-8.99326 -10.89635,-15.52256 -18.76158,-21.1582c-8.1424,-5.83652 -16.76136,-10.4707 -26.17261,-13.89019c-1.6519,-0.60027 -3.31029,-1.07799 -4.97488,-1.46295c-0.52776,0.57564 -1.10459,1.11281 -1.73499,1.60581c-6.96873,3.01617 -14.6409,5.11751 -21.59167,0.73466c-1.52657,-0.96258 -2.87527,-2.53591 -4.10026,-4.11153c-8.62828,1.88916 -16.21782,4.68194 -24.04451,9.31759c-5.32859,3.15323 -10.49283,7.22999 -13.09519,13.00122c-1.42506,3.16035 -1.71191,6.65507 -2.36808,10.01276c-0.67133,3.43327 -2.42215,6.78289 -2.70924,10.29041c-0.47385,5.7894 0.98519,11.57552 1.79347,17.26199c1.43026,5.61543 2.6544,11.74735 3.12763,17.53179c0.18935,2.31459 -0.07278,4.71141 -0.00702,7.03616c0.00575,0.20324 0.12489,0.80359 0.07144,1.3279c0.16515,-0.20656 0.33379,-0.40184 0.44698,-0.51771c7.16386,-7.21668 13.84799,-13.89109 22.13643,-19.82901c4.28841,-3.06367 9.77202,-6.31873 15.02544,-7.17967c4.44128,-0.72784 9.07222,-0.42257 13.55182,-0.69851c9.99476,-0.61567 20.12148,-0.45554 30.08819,0.43262c9.79318,0.8782 19.97704,4.04431 29.04915,7.75059c3.00604,1.25205 6.30849,3.05226 8.82188,5.04912c0.381,0.30269 0.09928,-0.96814 0.15437,-1.45162c0.15936,-1.39865 0.02432,-2.77017 -0.0964,-4.16626c-0.24467,-2.82971 -0.74797,-6.65682 -0.32771,-9.5532zM240.86937,101.38243c-0.51534,0.09763 -1.02669,0.19791 -1.53429,0.30103c0.99457,1.25104 2.07544,2.44742 3.27505,3.18657c6.52189,4.0185 13.497,2.00192 20.02446,-0.75631c0.27326,-0.21714 0.53534,-0.4442 0.7867,-0.68055c-7.40495,-1.44149 -14.93025,-1.25766 -22.55191,-2.05073zM320.89753,157.34567c-0.00143,0.00405 -0.00286,0.00809 -0.00429,0.01214c-0.85247,3.77657 0.46292,8.64478 0.45775,12.60098c-0.00145,1.11263 0.08582,3.9844 -1.48882,4.33137c-0.10305,0.02271 -2.21793,-0.98466 -2.36625,-1.06509c-2.48528,-1.34761 -4.67782,-2.98457 -7.29283,-4.07376c-8.93385,-3.64974 -18.96613,-6.77833 -28.6111,-7.64324c-9.88798,-0.89252 -19.94537,-1.04032 -29.862,-0.42946c-4.42701,0.2727 -9.01274,-0.03762 -13.40147,0.68161c-5.01129,0.82126 -10.31498,3.98722 -14.39446,6.91879c-8.22049,5.88924 -14.83955,12.50765 -21.94543,19.66637c-0.32149,0.31952 -1.83505,2.22545 -2.73071,1.51617c-0.49316,-0.39054 -0.24364,-1.23605 -0.30949,-1.86165c-0.20767,-1.9727 -0.07742,-4.0266 -0.05897,-6.00659c0.06003,-6.44408 -1.49489,-13.54719 -3.07591,-19.79171c-0.83666,-5.8262 -2.30688,-11.75374 -1.81609,-17.68595c0.29545,-3.57094 2.04865,-6.95469 2.73121,-10.44538c0.68151,-3.48314 0.99813,-7.08424 2.48182,-10.36114c2.73922,-6.04992 8.0967,-10.34056 13.68917,-13.65559c7.73652,-4.58202 15.30091,-7.46618 23.79922,-9.34902c-0.2838,-0.37412 -0.56112,-0.73808 -0.83273,-1.08295c-3.85169,-8.91006 -3.84699,-19.22118 -1.93469,-28.59548c0.28193,-1.9765 0.6134,-3.91093 1.00218,-5.8278c-0.21849,-0.06258 -0.49316,-0.23022 -0.51458,-0.67663c-0.03595,-0.74914 0.71319,-0.78509 0.71319,-0.78509l0.10904,0.00324c0.46456,-2.12016 1.00224,-4.22637 1.62363,-6.35221c0.58377,-1.9971 1.09328,-3.80641 2.28502,-5.1591h0.00002c-0.06035,-0.06421 -0.11528,-0.14717 -0.16082,-0.25356c-0.29512,-0.6895 0.39439,-0.98461 0.39439,-0.98461c7.86108,-3.26686 14.11355,-0.70488 21.28118,2.64256c2.87394,1.65792 3.21534,2.68418 4.43913,5.72384c1.11682,2.77403 2.55181,5.48227 3.67349,8.24795c1.44661,3.56682 1.5919,7.72402 1.96556,11.48608c0.06453,7.43302 0.04758,17.13961 -4.54769,23.41349c1.48263,0.37018 2.95869,0.81289 4.42742,1.34649c9.53933,3.46603 18.28125,8.16506 26.53425,14.08087c8.05488,5.77611 15.20291,12.50154 19.23624,21.72052c1.77049,3.28711 3.04416,6.7582 4.09846,10.30995c0.04867,-0.0785 0.09783,-0.15605 0.14745,-0.23255l-0.247,-0.14696l0.76699,-1.28908c0.09814,-0.16495 0.25921,-0.29246 0.45995,-0.34343c0.40147,-0.10194 0.80957,0.14088 0.91152,0.54235c0.02571,0.10127 0.0295,0.20295 0.01432,0.30004l-0.11064,0.83438c-0.22464,1.65494 -0.4074,3.21344 -0.72847,4.77214c0.15475,0.60542 0.30653,1.21191 0.45668,1.81898c0.69975,2.82927 1.47496,5.88289 0.85894,8.78298c0,0 -0.16,0.73273 -0.89273,0.57274c-0.73273,-0.16 -0.57274,-0.89273 -0.57274,-0.89273c0.53571,-2.37533 -0.06818,-4.96524 -0.65834,-7.33524zM240.80358,99.88388c8.04029,0.70137 16.01612,0.56904 23.81851,2.2545c4.77459,-5.89106 4.68067,-15.80046 4.62297,-22.96713c-0.14507,-1.46011 -0.33209,-2.8601 -0.5648,-4.22172c-0.21677,-0.01209 -0.38589,-0.11347 -0.38589,-0.11347l-0.00001,0.00001c-3.71463,-2.25956 -9.11809,-4.14246 -13.40826,-5.1394c-3.09104,-0.71829 -6.5885,-0.68963 -9.50061,-1.9533c-2.54973,-1.31614 -6.03143,-1.61449 -8.97421,-2.2571c-0.38834,1.90527 -0.72026,3.8281 -1.0018,5.7958c-1.84063,9.03287 -1.8995,18.9538 1.74457,27.57044c0.3754,0.46597 0.76191,0.97905 1.16206,1.50796c0.81977,-0.16732 1.6486,-0.32598 2.48746,-0.47658z" fill="#000000" stroke="none" stroke-width="0.5" stroke-linecap="butt"/><path d="M319.70212,167.21251c0.12071,1.39609 0.25478,2.77015 0.09543,4.1688c-0.05508,0.48348 0.13464,1.71513 -0.24636,1.41244c-2.51339,-1.99686 -5.72388,-3.7578 -8.72992,-5.00985c-9.0721,-3.70629 -19.25869,-6.86685 -29.05187,-7.74505c-9.96671,-0.88817 -20.14236,-1.02337 -30.13713,-0.4077c-4.47961,0.27594 -9.13912,-0.04242 -13.58039,0.68542c-5.25342,0.86093 -10.74242,4.11011 -15.03082,7.17378c-8.28844,5.93792 -14.89461,12.54971 -22.05847,19.76638c-0.11319,0.11587 -0.3588,0.375 -0.52395,0.58157c0.05345,-0.52431 -0.06619,-1.12527 -0.07194,-1.32851c-0.06575,-2.32475 0.19383,-4.72503 0.00447,-7.03962c-0.47322,-5.78445 -1.70346,-11.92893 -3.13372,-17.54435c-0.80828,-5.68646 -2.26972,-11.48723 -1.79587,-17.27662c0.28709,-3.50752 2.03861,-6.86631 2.70995,-10.29957c0.65616,-3.35769 0.94538,-6.86125 2.37045,-10.02161c2.60236,-5.77123 7.77481,-9.86233 13.1034,-13.01556c7.82669,-4.63565 15.43739,-7.44358 24.06567,-9.33274c1.22499,1.57562 2.57657,3.14797 4.10313,4.11055c6.95077,4.38284 14.65022,2.28092 21.61896,-0.73524c0.6304,-0.49299 1.2087,-1.02977 1.73646,-1.6054c1.66459,0.38496 3.32878,0.86479 4.98069,1.46506c9.41125,3.41948 18.05365,8.0746 26.19605,13.91112c7.86523,5.63564 14.82483,12.18701 18.76817,21.18027c1.97893,3.68129 3.32427,7.60022 4.44125,11.59675c-0.78761,1.83634 -1.21109,3.86553 -0.85385,5.48617l0.69431,0.26394c-0.42026,2.89638 0.08126,6.72986 0.32593,9.55958z" data-paper-data="{&quot;noHover&quot;:false,&quot;origItem&quot;:[&quot;Path&quot;,{&quot;applyMatrix&quot;:true,&quot;segments&quot;:[[[320.70482,166.3466],[-1.12017,2.70386],[0,0]],[[320.09679,165.91998],[0,0],[0.05261,-1.65872]],[[322.27293,160.81651],[-1.21533,1.58602],[-0.09902,-4.1485]],[[320.81992,148.49198],[1.01205,4.0551],[-1.60869,-9.68714]],[[307.84271,123.36713],[6.23631,7.39802],[-6.45551,-7.66094]],[[285.89368,103.46279],[8.2802,5.63053],[-1.45336,-0.98836]],[[281.43187,100.82046],[1.51865,0.7828],[-0.6532,0.42805]],[[279.35504,101.94988],[0.73234,-0.32268],[-7.4967,1.20831]],[[258.24668,97.34797],[5.6583,5.9587],[-1.24271,-1.30868]],[[255.28445,92.35378],[0.79953,1.82864],[-8.82783,-0.29247]],[[229.68634,95.46713],[8.72684,-2.56682],[-5.94074,1.74481]],[[213.79418,104.84556],[3.94268,-4.95324],[-2.15903,2.71242]],[[209.03468,113.96753],[1.46235,-3.09292],[-1.49565,3.16244]],[[203.87619,123.27464],[1.1415,-3.32898],[-1.88412,5.4947]],[[201.36611,140.44707],[0.61609,-5.71048],[0.00424,5.79471]],[[200.08275,158.20935],[0.96496,-5.72299],[-0.38612,2.29]],[[198.34425,165.02736],[0.50842,-2.26943],[-0.04445,0.1984]],[[198.08669,166.332],[0.18085,-0.49503],[0.21091,-0.15956]],[[198.64734,165.94022],[-0.13823,0.08445],[8.71962,-5.23159]],[[224.98304,152.16917],[-9.49489,3.71539],[4.91051,-1.91401]],[[241.31332,148.90828],[-5.30372,-0.45848],[4.4838,0.3876]],[[254.62022,151.56652],[-4.40974,-0.83503],[9.83886,1.8631]],[[283.67648,159.39091],[-9.44156,-3.31378],[9.27582,3.26141]],[[309.92459,174.05245],[-7.88089,-5.82504],[2.60543,1.95336]],[[317.23248,181.11744],[-1.94463,-2.55402],[0.29478,0.38715]],[[317.73936,179.74846],[-0.17238,0.45505],[0.49868,-1.31641]],[[318.67129,175.68661],[-0.2266,1.38286],[0.45928,-2.80289]]],&quot;closed&quot;:true}]}" fill="#6d0000" stroke="none" stroke-width="0.5" stroke-linecap="butt"/><path d="M263.47126,103.43466c-0.25135,0.23634 -0.51363,0.46654 -0.78689,0.68369c-6.52746,2.75823 -13.60138,4.78003 -20.12326,0.76154c-1.1996,-0.73914 -2.28113,-1.95108 -3.2757,-3.20212c0.50759,-0.10312 1.01924,-0.20557 1.53459,-0.3032c7.62166,0.79307 15.2463,0.61861 22.65126,2.0601z" data-paper-data="{&quot;noHover&quot;:false,&quot;origItem&quot;:[&quot;Path&quot;,{&quot;applyMatrix&quot;:true,&quot;segments&quot;:[[[258.50653,92.50739],[7.19204,2.64446],[-0.52352,-0.03221]],[[256.94535,92.42155],[0.51736,0.02498],[0.65608,1.45733]],[[259.33541,96.31612],[-0.98079,-1.01164],[5.33228,5.50001]],[[278.93008,100.51134],[-7.00552,1.0669],[0.3183,-0.14321]],[[279.86006,100.04535],[-0.30179,0.16721],[-6.82242,-3.2196]]],&quot;closed&quot;:true}]}" fill="#6d0000" stroke="none" stroke-width="0.5" stroke-linecap="butt"/><path d="M320.91058,75.15801c0.03595,0.74914 -0.71319,0.78509 -0.71319,0.78509l-0.12829,0.00615c-0.06147,0.00089 -0.12462,0.00284 -0.1894,0.00581c0.20525,3.71999 -0.04521,7.48457 -0.40926,11.14585c-0.87402,8.77699 1.56479,19.06401 -5.72551,25.59332c-7.00696,7.0052 -19.06387,1.08272 -25.52186,-3.5068c-2.98214,-2.78021 -2.09373,-5.53788 -2.08527,-9.27623c0.01324,-5.85194 0.33259,-11.66258 1.17588,-17.44834c0.06923,-0.47281 0.13043,-0.94843 0.18531,-1.42632c-0.11091,-0.09685 -0.20118,-0.2455 -0.23114,-0.47276c-0.05576,-0.42286 0.16068,-0.63696 0.35775,-0.74296c0.45654,-4.83718 0.42135,-9.85526 1.63679,-14.49166c0.27419,-1.04591 0.35407,-2.73205 0.78398,-4.08593c-0.04686,0.0142 -0.09364,0.02853 -0.14037,0.04296c0,0 -0.71659,0.22131 -0.93791,-0.49529c-0.22131,-0.71659 0.49529,-0.93792 0.49529,-0.93792c0.6495,-0.20058 1.31038,-0.38028 1.98045,-0.53916c0.30984,-0.13725 0.65838,-0.18429 1.01187,-0.22275c0.42241,-0.08592 0.84793,-0.16382 1.27606,-0.23366l0.11694,-0.03151c0,0 0.09827,-0.0264 0.23214,-0.02358l-0.00001,0.00001c6.34837,-0.96801 13.23525,-0.18259 18.96017,2.29823c3.50456,0.65185 4.57315,3.63986 5.49583,6.72953c0.64724,2.1673 1.03365,4.39127 1.23559,6.63891c0.07675,-0.00693 0.15173,-0.01296 0.22479,-0.01803l0.12829,-0.00615c0,0 0.74914,-0.03595 0.78509,0.71319zM312.09476,78.11678c-3.93006,0.2348 -7.80528,-0.05281 -11.72933,0.57215c-3.81551,0.60768 -7.53189,1.7865 -11.36493,2.39102c-0.05896,0.5363 -0.12563,1.06966 -0.20249,1.59929c-0.83214,5.70928 -1.15121,11.43709 -1.16034,17.21141c-0.00496,3.14455 -1.00288,5.82761 1.52924,8.13097c5.73592,4.04519 17.2575,10.07855 23.54525,3.58481c6.92808,-6.09367 4.44401,-16.39486 5.26569,-24.65407c0.35306,-3.54343 0.60798,-7.20006 0.41749,-10.81171c-2.11777,0.38729 -4.83733,1.28425 -6.30057,1.97612z" fill="#000000" stroke="none" stroke-width="0.5" stroke-linecap="butt"/></g></g></g></svg>