<svg version="1.1" xmlns="http://www.w3.org/2000/svg" xmlns:xlink="http://www.w3.org/1999/xlink" width="2878.25006" height="1619.57958" viewBox="0,0,2878.25006,1619.57958"><defs><linearGradient x1="-27.2575" y1="135.81861" x2="574.19752" y2="138.50692" gradientUnits="userSpaceOnUse" id="color-1"><stop offset="0" stop-color="#ff00e1"/><stop offset="1" stop-color="#00b8ff"/></linearGradient><linearGradient x1="-42.46679" y1="112.61858" x2="-21.52187" y2="112.71219" gradientUnits="userSpaceOnUse" id="color-2"><stop offset="0" stop-color="#45ff00"/><stop offset="1" stop-color="#ff00e1"/></linearGradient><linearGradient x1="-39.93631" y1="117.47022" x2="582.11858" y2="120.25061" gradientUnits="userSpaceOnUse" id="color-3"><stop offset="0" stop-color="#feff00"/><stop offset="1" stop-color="#03ff51"/></linearGradient><linearGradient x1="-39.93631" y1="117.47022" x2="582.11858" y2="120.25061" gradientUnits="userSpaceOnUse" id="color-4"><stop offset="0" stop-color="#feff00"/><stop offset="1" stop-color="#03ff51"/></linearGradient><linearGradient x1="-35.61614" y1="56.63365" x2="318.37919" y2="58.2159" gradientUnits="userSpaceOnUse" id="color-5"><stop offset="0" stop-color="#45ff00"/><stop offset="1" stop-color="#ff00e1"/></linearGradient><linearGradient x1="-35.61614" y1="56.63365" x2="318.37919" y2="58.2159" gradientUnits="userSpaceOnUse" id="color-6"><stop offset="0" stop-color="#45ff00"/><stop offset="1" stop-color="#ff00e1"/></linearGradient><linearGradient x1="306.09544" y1="79.45834" x2="375.09044" y2="79.76671" gradientUnits="userSpaceOnUse" id="color-7"><stop offset="0" stop-color="#45ff00"/><stop offset="1" stop-color="#ff00e1"/></linearGradient><linearGradient x1="360.05332" y1="18.05163" x2="587.93916" y2="19.0702" gradientUnits="userSpaceOnUse" id="color-8"><stop offset="0" stop-color="#45ff00"/><stop offset="1" stop-color="#ff00e1"/></linearGradient><linearGradient x1="-9.62649" y1="213.48774" x2="24.871" y2="213.64192" gradientUnits="userSpaceOnUse" id="color-9"><stop offset="0" stop-color="#ff0000"/><stop offset="1" stop-color="#45ff00"/></linearGradient><linearGradient x1="195.43235" y1="222.01677" x2="280.62003" y2="222.39753" gradientUnits="userSpaceOnUse" id="color-10"><stop offset="0" stop-color="#0030ff"/><stop offset="1" stop-color="#ff0303"/></linearGradient></defs><g transform="translate(1117.37278,629.80931)"><g data-paper-data="{&quot;isPaintingLayer&quot;:true}" fill-rule="nonzero" stroke-linejoin="miter" stroke-miterlimit="10" stroke-dasharray="" stroke-dashoffset="0" style="mix-blend-mode: normal"><path d="M-1117.37278,989.77027v-1619.57958h2878.25006v1619.57958z" fill="none" stroke="#000000" stroke-width="0" stroke-linecap="butt"/><path d="M-1117.37278,989.77027v-1619.57958h2878.25006v1619.57958z" fill="none" stroke="#000000" stroke-width="0" stroke-linecap="butt"/><path d="M490.05315,168.74211c2.80575,-0.70388 5.61021,-1.40736 8.40737,-2.1448c1.39913,-0.36886 3.00903,-0.25388 4.32045,-0.79467c-0.26772,-1.76696 -0.53544,-3.53391 -0.80316,-5.30086c0,0 -0.21708,-1.43267 1.21559,-1.64974c1.43267,-0.21708 1.64974,1.21559 1.64974,1.21559c0.12824,0.84642 0.25648,1.69281 0.38472,2.53922c0.16808,-0.0682 0.35187,-0.10574 0.54444,-0.10574c0.65099,0 1.20173,0.42929 1.38453,1.02024l0.8798,2.62492c1.83165,3.34205 3.65474,6.68877 5.47967,10.03451c3.96232,7.26561 5.90992,15.84525 8.45405,23.67189c1.08937,3.35128 0.47574,7.20579 1.19182,10.55612c0.78797,3.68673 4.03126,5.79543 5.66915,8.92027c1.72187,3.28511 2.98343,7.12458 4.67696,10.51755c2.71615,7.27523 5.47536,13.94942 9.21493,20.74607c0.97077,1.76438 1.97073,5.31099 3.9213,6.31414c1.66332,0.85543 5.2465,-2.09373 6.67959,-2.39717c6.46061,-1.36788 14.48631,0.54928 20.56013,2.53245c7.71168,1.98943 15.09127,4.012 21.93064,8.29433c10.91059,6.83148 18.38925,17.85217 24.89689,28.6547c7.08507,11.76107 10.15744,25.0043 13.68542,38.16818c1.74559,6.5133 4.38835,13.1445 5.0497,19.85265c0.10118,1.04847 0.73469,6.33951 0.15424,6.91767c-0.98306,0.97915 -2.77202,0.32742 -4.15609,0.23018c-3.5973,-0.25276 -7.68122,-1.88223 -11.14942,-2.87298c-3.68978,-1.05408 -6.97837,-1.38937 -10.71658,-2.01266c-9.57664,-1.5968 -18.26141,-4.10771 -28.08855,-4.23712c-4.90902,-0.06466 -9.84479,-0.27719 -14.67993,-1.24539c-3.74509,-0.74992 -7.32403,-2.68391 -11.04206,-3.33382c-2.49192,-0.43559 -5.561,0.01876 -8.09017,0.01889c-5.34672,0.00023 -11.8732,-1.01442 -17.10392,0.05469c-3.16189,0.64626 -5.41632,1.10437 -8.77068,1.10437c-4.66243,-0.00008 -9.4042,0.09758 -14.0569,-0.20212c-7.44779,-0.47973 -15.26213,-1.87331 -22.74545,-0.83869c-2.80263,0.38747 -5.52743,1.7181 -8.30636,2.26816c-4.78765,0.9477 -9.69438,1.30758 -14.50152,2.24754c-1.14175,-0.18858 -2.61202,0.25757 -3.42525,-0.56572c-0.89613,-0.90725 -0.59491,-2.48138 -0.82376,-3.73588c-0.71557,-3.92285 -0.68703,-7.72985 -0.80399,-11.68871c-0.14891,-5.04001 -2.20491,-8.83925 -3.525,-13.58481c-2.5844,-9.29062 -3.65229,-18.94313 -6.31212,-28.25256c-5.56383,-19.47346 -10.9339,-39.06642 -15.09554,-58.8959c-2.37067,-11.29834 -5.70854,-22.82683 -6.32467,-34.39013c-0.46988,-8.81868 0.68445,-17.4967 1.69581,-26.22993c0.20107,-1.73619 0.09956,-8.18464 1.14041,-9.37862c2.50263,-2.87087 6.68391,-0.42209 9.6095,-0.26731c4.12802,0.21838 8.1715,1.00576 12.21019,1.83728c1.07614,-0.81906 2.74651,0.49557 4.08936,0.82226c0.10773,0.02621 0.21522,0.05218 0.32252,0.07792c1.16926,0.22951 2.34055,0.44674 3.51576,0.63904c4.27085,0.69879 8.56734,0.99032 12.79444,1.87074c3.18016,0.42067 6.34231,0.94941 9.31913,1.81875c1.828,-0.49909 3.65212,-0.98818 5.47286,-1.44493zM502.00159,168.66083c-2.79049,0.7939 -5.61864,1.48116 -8.43232,2.18704c-1.39341,0.34956 -2.79062,0.71786 -4.19133,1.09625c2.95553,1.26129 5.76979,2.68172 8.82316,3.63679c0.42395,-0.51621 1.15213,-0.51621 1.15213,-0.51621l0.12139,0.07437c0.82499,-0.2667 3.38338,-1.34573 4.62647,-0.62371c-0.30741,-2.02882 -0.61479,-4.05763 -0.92219,-6.08645c-0.40073,0.06377 -0.80226,0.12523 -1.1773,0.23192z" data-paper-data="{&quot;index&quot;:null}" fill="#d221e7" stroke="none" stroke-width="1" stroke-linecap="butt"/><path d="M119.00291,175.81229c1.28808,0.66369 0.6244,1.95177 0.6244,1.95177l-0.62281,1.20877c4.43861,-0.81585 8.82935,-4.58191 12.91515,-6.21997c4.72471,-1.8942 9.1602,-1.98985 13.98759,-2.87529c2.93602,-0.53852 4.84444,-2.80487 7.5707,-3.73259c3.78216,-1.28704 8.41781,-1.07299 12.23538,-0.30304c6.34867,1.31689 13.37965,0.53571 19.86047,0.53571c3.21756,0 7.04912,0.60404 10.20084,0.01871c3.05543,-0.56746 5.5329,-1.28593 8.75332,-1.16249c1.28506,0.04926 2.85584,-0.50094 3.8446,0.32136c0.98582,0.81986 0.71807,2.46325 1.00601,3.7127c1.05895,4.59491 1.97908,9.50105 1.98779,14.20815c0,3.77994 0.54456,8.05993 -0.014,11.79315c-0.60099,4.01683 -3.78732,6.96681 -5.45508,10.58635c-1.14349,2.48172 -2.52442,5.25679 -3.42477,7.83308c-0.36093,1.03277 -0.99804,4.83225 -1.38316,5.73039c-0.75996,1.77235 -2.40431,3.07387 -3.15075,4.85195c-0.74321,1.77036 -0.54892,3.83491 -1.24731,5.62343c-1.3801,3.53428 -3.64805,6.82965 -5.1082,10.40109c-3.26233,7.97949 -6.39482,16.05907 -8.61748,24.40258c-1.43583,5.38995 -3.04862,11.25416 -3.77765,16.78128c-0.15224,1.15424 -0.06168,4.7915 -0.24775,5.85209c-0.65714,3.74563 -2.39241,7.60953 -3.53996,11.23935c-4.32584,13.68295 -8.73464,27.1025 -11.94286,41.07419c-1.25958,5.48545 -2.94388,11.0416 -3.26799,16.65838c-0.84823,0.60432 -1.90314,0.99253 -2.54471,1.81295c-0.65845,0.84195 -0.36722,2.30248 -1.19878,2.97403c-0.85566,0.69103 -2.14767,0.5044 -3.24221,0.61251c-3.80358,0.3757 -7.85552,0.00341 -11.68011,0.00267c-5.74389,-0.00113 -11.8694,-0.31806 -17.55712,-1.17158c-2.84446,-0.42685 -5.608,-1.50817 -8.45902,-1.87687c-4.79851,-0.62055 -9.49905,-0.00234 -14.24171,-1.17533c-5.4125,-1.35312 -11.15447,-3.28946 -16.70325,-3.89953c-8.43291,-0.92716 -16.97276,-0.02699 -25.47661,-1.1573c-0.15584,-0.02071 -5.85739,-0.97321 -5.933,-0.99529c-1.82282,-0.53233 -3.37767,-1.84697 -5.23297,-2.2518c-1.79906,-0.39257 -3.68213,-0.07006 -5.5229,-0.11796c-3.77032,-0.10136 -7.3642,-0.99008 -11.104,-1.26874c-4.44299,-0.33106 -8.68367,0.94997 -13.10169,1.08276c-0.77845,0.02339 -5.85536,0.19612 -6.35756,-0.33646c-2.12511,-2.2536 0.24613,-4.25296 0.78924,-6.08905c0.76553,-2.58799 0.62499,-5.75325 1.03279,-8.42567c0.72958,-4.78132 1.72035,-9.53863 2.57913,-14.29867c0.66988,-3.71294 1.68649,-7.53301 2.04157,-11.28717c0.42681,-4.51257 -0.74894,-9.50769 0.10657,-13.95009c0.54489,-2.82931 2.50954,-5.39207 3.25182,-8.17207c1.59154,-5.96073 0.03918,-12.27069 4.93994,-17.00736c2.15056,-2.07854 5.56798,-2.76045 8.20135,-4.0127c7.18086,-3.36569 15.52593,-2.70208 23.2839,-2.70208c7.98135,0 16.38214,-0.76936 22.71007,4.72615c3.61451,3.13902 8.08575,5.22953 9.07471,10.31656c1.66322,-1.46255 1.90457,-3.34854 2.41676,-5.43616c0.92072,-3.75273 1.85325,-7.50262 2.77988,-11.25391c3.19977,-12.95383 6.23553,-25.94472 9.13626,-38.96864c0.67423,-2.69737 1.70054,-5.54868 2.08364,-8.30106c0.79895,-5.74039 0.41665,-11.82196 2.20817,-17.45596c0.57835,-1.81883 1.97167,-3.32223 2.47459,-5.16333c0.24141,-0.88378 0.09312,-5.44968 0.28688,-5.87632c0.44613,-0.98226 1.73578,-1.31661 2.41456,-2.15515c1.15299,-1.42439 1.68758,-3.25351 2.5269,-4.88256l0.87874,-1.70549c0,0 0.6637,-1.28808 1.95178,-0.62439z" data-paper-data="{&quot;index&quot;:null}" fill="#d221e7" stroke="none" stroke-width="1" stroke-linecap="butt"/><g><path d="M374.63374,187.15952l0.63937,-4.44434l6.35435,-45.57606c0,0 11.8053,-5.25016 17.75483,-4.80173c5.7126,0.43057 17.26045,7.44087 17.26045,7.44087l-7.95175,54.43047l-33.45418,-6.66194l-1.48548,0.32373z" data-paper-data="{&quot;index&quot;:null}" fill="none" stroke="#000000" stroke-width="0" stroke-linecap="round"/><path d="M21.12808,69.48101l3.84649,3.58258l14.55171,1.55063l130.76579,-24.37323l1.51743,-7.12399l135.35582,28.83098l-0.29057,15.15159l67.33781,-9.20672l-1.2809,-38.21252l200.96282,-32.79692l-0.25739,257.00378l-137.21947,-10.71526l0.03453,-7.72485l-87.02788,-6.03417l-178.5471,28.9135l-198.36163,-24.95296l0.31933,-128.22229l5.28103,-0.15241l0.52116,-37.84006z" fill="url(#color-1)" stroke="#000000" stroke-width="1" stroke-linecap="round"/><path d="M-21.70654,114.64749l-19.19348,1.85032l-1.5581,-5.81533l20.95356,-1.84246z" fill="url(#color-2)" stroke="#000000" stroke-width="1" stroke-linecap="round"/><path d="M-40.11902,158.348l45.41075,0.02696l70.66204,-87.16168l93.90336,78.43665l158.02179,8.09877l49.44497,-36.21329l58.28073,34.67067l146.37395,-4.6261l-2.50345,8.78937l-2.99134,-0.1894l-148.16384,1.44989l-49.18236,-32.38587l-46.79622,34.28902l-166.0824,-6.28669l-88.4173,-75.24391l-66.14885,81.59351l-51.57416,0.64953z" fill="url(#color-3)" stroke="url(#color-4)" stroke-width="1" stroke-linecap="round"/><path d="M21.17847,69.38431l-51.78872,9.27312l-5.0806,-5.30303l61.30495,-11.87075l13.52033,7.27689l125.0339,-24.61074l-1.72153,-8.63226l155.88284,33.78686l-2.30934,4.74197l-144.15007,-30.21417l-1.96598,6.67963l-130.79657,24.23295l-15.48081,-1.8293z" fill="url(#color-5)" stroke="url(#color-6)" stroke-width="1" stroke-linecap="round"/><path d="M306.80185,78.93345l5.27235,1.78368l61.99559,-8.87547l1.02694,6.517l-69.03668,9.02002z" fill="url(#color-7)" stroke="#000000" stroke-width="1" stroke-linecap="round"/><path d="M359.97425,35.74039l228.06916,-39.99119l-1.97698,9.14374l-222.64118,36.49524z" fill="url(#color-8)" stroke="#000000" stroke-width="1" stroke-linecap="round"/><path d="M466.56881,119.91012l-0.74747,-69.04371l3.55003,-6.67254l11.29752,-7.34196l8.99448,-4.00806l7.21947,-0.67179l10.91089,0.40079l9.31661,2.68181l10.71445,4.97621l1.0617,77.49365z" fill="#fbfafa" stroke="#000000" stroke-width="1" stroke-linecap="round"/><path d="M472.76761,111.31329l-0.51315,-62.39824l7.94472,-5.42083l7.94237,-4.89281l8.98504,-1.89594l10.55967,0.22319l13.35456,4.988l-0.12608,67.58771z" fill="#465979" stroke="#000000" stroke-width="1" stroke-linecap="round"/><path d="M430.83652,120.36645l-39.95922,1.05347l-0.13725,-48.05165l40.3254,-4.22002z" fill="#fbfafa" stroke="#000000" stroke-width="1" stroke-linecap="round"/><path d="M427.69906,113.488l-32.2212,2.49615l-1.2405,-37.49592l32.92523,-2.49301z" fill="#272b2b" stroke="#000000" stroke-width="1" stroke-linecap="round"/><path d="M376.57666,121.356l-49.11556,1.8926l-0.70697,-38.72559l48.07997,-6.47352z" fill="#fbfafa" stroke="#000000" stroke-width="1" stroke-linecap="round"/><path d="M376.08247,113.78532l-42.96161,3.32819l-1.10382,-28.69473l43.67113,-4.55709z" fill="#272b2b" stroke="#000000" stroke-width="1" stroke-linecap="round"/><path d="M59.88223,221.23489l0.97073,-59.66344l5.30619,-5.78466l11.11207,-5.23065l6.69458,-1.37815l9.67411,1.45131l11.76341,6.56499l9.82812,6.38032l-0.82933,67.40856l-54.88684,-6.40572z" fill="#fbfafa" stroke="#000000" stroke-width="1" stroke-linecap="round"/><path d="M64.62971,222.31217l0.75617,-51.03984l4.77817,-5.78701l6.53115,-4.19508l7.05369,-2.96066l8.6283,-0.8415l5.97325,2.49085l11.92683,9.38189l-0.6028,56.10086l-45.56235,-5.48398z" fill="#161c21" stroke="#000000" stroke-width="1" stroke-linecap="round"/><path d="M-28.08834,213.40521l178.42368,21.39081l200.96861,-21.45516l-0.99649,26.0452l-181.20391,29.64001l-197.16856,-25.69886z" fill="#453e3c" stroke="#000000" stroke-width="1" stroke-linecap="round"/><path d="M22.94473,250.81566l-4.21926,-1.11894l-34.30025,-4.9056l1.03522,-74.09606l39.77774,0.1778z" fill="#fbfafa" stroke="#000000" stroke-width="1" stroke-linecap="round"/><path d="M23.82674,250.37958l-33.59307,-5.6065l1.53611,-68.02143l33.26308,0.6767z" fill="url(#color-9)" stroke="#000000" stroke-width="1" stroke-linecap="round"/><path d="M25.50856,189.13522l-29.91264,-2.06981l0.38506,-7.39074l29.21806,-0.04542z" fill="#161c21" stroke="#000000" stroke-width="1" stroke-linecap="round"/><path d="M189.78279,265.24624l0.59905,-94.64731l96.44429,2.1912l1.23988,77.0104z" fill="#fbfafa" stroke="#000000" stroke-width="1" stroke-linecap="round"/><path d="M195.23862,265.35864l0.38587,-86.33173l84.48524,0.0256l0.38306,71.81425z" fill="url(#color-10)" stroke="#000000" stroke-width="1" stroke-linecap="round"/><path d="M275.49203,188.31644l-80.62093,1.75178l0.39292,-9.15083l79.90825,0.18116z" fill="#161c21" stroke="#000000" stroke-width="1" stroke-linecap="round"/><path d="M321.40064,244.31717l-24.48079,3.41081l-1.39976,-80.61937l24.46427,0.28536z" fill="#0a0c0a" stroke="#000000" stroke-width="1" stroke-linecap="round"/><path d="M321.92828,244.40754l-24.83281,3.40922l-1.81669,-66.10029l24.99388,-0.0643z" fill="#592d2a" stroke="#000000" stroke-width="1" stroke-linecap="round"/><path d="M327.13253,162.98164l37.32383,-2.12133l2.3388,67.42271l-42.06189,-1.06804z" fill="#fbfafa" stroke="#000000" stroke-width="1" stroke-linecap="round"/><path d="M330.45544,167.74881l29.57163,-0.39586l0.27864,55.79678l-30.43987,-2.24819l1.64643,-53.32401z" fill="#0a0c0a" stroke="#000000" stroke-width="1" stroke-linecap="round"/><path d="M384.77223,242.6203l-1.23319,-78.50646l10.23518,-5.93865l11.27864,-3.11779l7.74592,-0.3174l8.96774,1.97619l6.49261,4.4293l3.16814,0.01416l-1.61143,84.87417z" fill="#fbfafa" stroke="#000000" stroke-width="1" stroke-linecap="round"/><path d="M389.52424,242.68554l2.20354,-59.83392l39.77694,0.3538l-1.86177,62.12361z" fill="#281b1a" stroke="#000000" stroke-width="1" stroke-linecap="round"/><path d="M402.89531,243.97738l0.98016,-61.77553l21.64421,1.15281l-1.33218,61.77395z" fill="#592d2a" stroke="#000000" stroke-width="1" stroke-linecap="round"/><path d="M400.34038,185.53029l-0.08025,17.95277l-6.51385,0.3229l0.78504,-18.12564z" fill="#292c26" stroke="#000000" stroke-width="1" stroke-linecap="round"/><path d="M408.78167,187.15209l13.55415,-0.29144l0.2938,13.02614l-14.43892,1.34355z" fill="#292c26" stroke="#000000" stroke-width="1" stroke-linecap="round"/><path d="M430.36688,201.5055l-2.99369,0.33864l0.77167,-15.13351l2.46331,0.18702z" fill="#292c26" stroke="#000000" stroke-width="1" stroke-linecap="round"/><path d="M430.29924,177.25964l-40.48647,0.87511l0.92647,-10.38051l14.63615,-6.09496l8.10343,-1.54789l10.55416,1.45526l7.37737,3.37718z" fill="#1a1a1a" stroke="#000000" stroke-width="1" stroke-linecap="round"/><path d="M530.04064,160.45638l1.0446,81.3218l-64.62857,-2.57701l-0.00273,-78.14894z" fill="#fbfafa" stroke="#000000" stroke-width="1" stroke-linecap="round"/><path d="M475.28418,164.25989l47.34448,0.56364l1.62435,69.75167l-50.15824,-1.10426l0.29875,-66.83887z" fill="#292c26" stroke="#000000" stroke-width="1" stroke-linecap="round"/><path d="M23.62074,71.7072l-0.8658,51.48508l-39.85225,3.84777l0.84685,-47.2474z" fill="#f6f7f3" stroke="#000000" stroke-width="1" stroke-linecap="round"/><path d="M-12.88114,84.46926l32.23201,-5.57692l-0.81085,39.19577l-31.58594,3.24905z" fill="#4e5959" stroke="#000000" stroke-width="1" stroke-linecap="round"/><path d="M167.15899,-14.78203c-0.3303,-0.18099 -1.74355,-1.08732 -0.89471,-2.95524c0.95696,-2.10591 2.87524,-1.22226 2.87524,-1.22226l0.86967,0.55158c4.50605,4.70624 8.77623,9.53621 13.01346,14.51852c5.20046,6.12747 11.70398,10.68519 17.28209,16.3916c11.3582,11.61947 20.55681,25.43171 32.00632,36.99875c0,0 1.50383,1.51927 -0.02391,3.22443c-1.52771,1.70516 -3.03158,0.18587 -3.03158,0.18587c-11.46114,-11.5789 -20.66755,-25.40844 -32.03975,-37.03299c-5.64316,-5.76834 -12.18206,-10.39412 -17.4543,-16.58151c-4.10723,-4.82941 -8.24357,-9.51265 -12.60254,-14.07882z" data-paper-data="{&quot;index&quot;:null}" fill="#000000" stroke="none" stroke-width="1" stroke-linecap="butt"/><path d="M302.68414,-10.91148c1.72613,1.34848 0.5088,3.22766 0.5088,3.22766l-1.119,1.71497c-0.91712,1.20106 -1.83429,2.40215 -2.75144,3.60323c-16.60154,18.59523 -31.6987,40.22052 -52.16013,53.99692c0,0 -1.79362,1.20538 -2.90918,-0.76862c-1.11555,-1.97402 0.67808,-3.1794 0.67808,-3.1794c20.11931,-13.49387 34.92723,-34.92494 51.24776,-53.1674c0.88126,-1.15594 1.76258,-2.31185 2.6439,-3.4678l0.9177,-1.42886c0,0 1.21736,-1.87916 2.94352,-0.53069z" data-paper-data="{&quot;index&quot;:null}" fill="#000000" stroke="none" stroke-width="1" stroke-linecap="butt"/><path d="M211.77816,61.97052c2.96274,1.90095 3.26284,4.00914 4.46721,7.25106c2.18356,5.87766 3.34701,11.13707 3.66842,17.42343c-0.321,8.04028 -0.79457,19.5808 -7.83095,24.64149c-6.65217,2.44217 -13.75275,4.12135 -20.07451,-0.20515c-2.06794,-1.41526 -3.70409,-4.26468 -5.17398,-6.2798c-3.22684,-8.78141 -2.70451,-18.7503 -0.43301,-27.68457c0.88213,-4.58488 2.04913,-8.92893 3.55799,-13.34215c0.83798,-2.451 1.43834,-4.67283 3.94636,-5.60435l0.62106,-0.35478c0,0 0.14577,-0.08649 0.2574,-0.24616c6.13774,-1.23187 11.39932,1.41467 16.994,4.40097z" data-paper-data="{&quot;noHover&quot;:false,&quot;origItem&quot;:[&quot;Path&quot;,{&quot;applyMatrix&quot;:true,&quot;segments&quot;:[[[463.02145,118.92474],[11.94148,-3.76279],[-0.18782,0.34138]],[462.56327,119.46889],[[461.40637,120.30632],[0,0],[-4.78797,2.38894]],[[454.7767,132.28436],[1.14195,-5.05316],[-2.05618,9.09862]],[[450.59007,159.5336],[0.77318,-9.30587],[-2.60543,18.25199]],[[457.33707,214.37126],[-8.29546,-16.77166],[3.35404,3.69263]],[[468.94246,225.73925],[-4.41495,-2.37184],[13.49664,7.25079]],[[508.8316,221.85864],[-12.70549,6.27955],[12.90926,-11.56875]],[[519.07651,171.27858],[1.08192,16.05697],[-1.9841,-12.43181]],[[508.09898,137.49402],[5.59959,11.22069],[-3.08854,-6.18895]],[[497.69355,124.0439],[6.29819,3.14621],[-11.7641,-4.74133]]],&quot;closed&quot;:true}]}" fill="#ffffff" stroke="none" stroke-width="0.5" stroke-linecap="butt"/><path d="M263.99751,72.06122c2.95459,0.6325 3.56707,3.31413 4.22103,5.9403c1.51828,6.09708 0.9081,12.62242 -0.00096,18.75086c-1.21663,8.21034 0.73662,18.66471 -6.4756,24.41928c-6.59179,6.18487 -17.85673,-0.40131 -23.39215,-4.71679c-2.41881,-2.42209 -1.30372,-5.06464 -1.14803,-8.20535c0.28591,-5.76725 0.87254,-11.51998 1.9774,-17.18281c1.07351,-5.52035 1.06731,-11.53588 2.7506,-16.88604c0.26893,-0.85476 0.63464,-4.50515 1.48388,-4.9014c0.01263,-0.00589 0.02537,-0.01161 0.03811,-0.01713c0.37491,-0.06745 0.75396,-0.12869 1.13308,-0.18246c0.269,-0.01174 0.53953,-0.02587 0.79619,-0.08835l0.14078,-0.03058c6.24656,-0.69723 12.96269,0.41755 18.47568,3.10048z" data-paper-data="{&quot;noHover&quot;:false,&quot;origItem&quot;:[&quot;Path&quot;,{&quot;applyMatrix&quot;:true,&quot;segments&quot;:[[[566.35295,130.72043],[12.27227,-2.72292],[0,0]],[[566.08002,130.81116],[0,0],[-0.49701,0.17916]],[[564.51821,131.15611],[0.53239,-0.0809],[-0.7424,0.18804]],[[562.30763,131.75969],[0.73107,-0.21435],[-0.02414,0.0137]],[[562.23565,131.80185],[0.02385,-0.01442],[-1.60395,0.96966]],[[560.34435,141.85964],[0.35189,-1.75725],[-2.20257,10.99907]],[[558.52911,175.96742],[0.95361,-11.20702],[-0.98546,11.49706]],[[558.25012,210.46726],[-0.66539,-11.52947],[0.36236,6.27868]],[[562.26585,226.51965],[-5.32806,-4.29887],[11.93061,7.39711]],[[609.69817,230.88926],[-11.78467,13.70908],[13.11047,-12.98617]],[[617.29234,181.04419],[-0.66268,16.58674],[0.49649,-12.38105]],[[613.32811,143.83386],[4.32361,11.79936],[-1.86229,-5.08228]],[[603.68782,132.93587],[6.0106,0.62561],[-11.53671,-4.15555]]],&quot;closed&quot;:true}]}" fill="#ffffff" stroke="none" stroke-width="0.5" stroke-linecap="butt"/><path d="M213.28254,88.01688c0.16248,-1.51007 1.51833,-2.60251 3.0284,-2.44004c1.51007,0.16248 2.60251,1.51834 2.44004,3.02841c-0.16247,1.51007 -1.51833,2.60251 -3.0284,2.44003c-1.51007,-0.16248 -2.60251,-1.51833 -2.44004,-3.0284z" fill="#000000" stroke="none" stroke-width="0.5" stroke-linecap="butt"/><path d="M261.56508,96.89046c0.16247,-1.51007 1.51833,-2.60251 3.0284,-2.44003c1.51007,0.16248 2.60251,1.51834 2.44004,3.02841c-0.16247,1.51007 -1.51834,2.60251 -3.02841,2.44003c-1.51007,-0.16248 -2.60251,-1.51834 -2.44003,-3.02841z" fill="#000000" stroke="none" stroke-width="0.5" stroke-linecap="butt"/><path d="M174.9281,175.38034c-0.75,0 -0.75,-0.75 -0.75,-0.75v-0.12844c0,-7.1264 0.27984,-14.25504 0.10825,-21.38131c-0.20268,-8.44006 -0.36951,-16.45597 7.51778,-21.5625c1.95877,-1.26818 4.34501,-1.9282 6.45584,-2.89986c4.77232,-2.19038 10.29924,-2.75261 15.45614,-3.47643c4.3431,-0.6096 8.54441,-1.54918 12.95277,-1.51231c2.56902,0.0217 4.97521,0.38996 7.51194,0.63724c2.61773,0.25518 5.22816,-0.40794 7.86214,-0.19823c4.59331,0.36571 9.38643,1.11506 13.68294,2.78546c9.55069,3.74402 15.10405,10.83399 17.875,20.52936c1.63245,5.73044 2.28993,12.66263 1.62948,18.60662c-0.19321,1.73885 0.07853,3.57918 -0.45642,5.24137c0,0 -0.23717,0.71151 -0.94868,0.47434c-0.71151,-0.23717 -0.47434,-0.94868 -0.47434,-0.94868c0.52158,-1.4947 0.21244,-3.34711 0.38862,-4.93268c0.63836,-5.74528 0.00636,-12.49059 -1.58094,-18.02889c-2.63356,-9.22021 -7.84281,-16.0232 -16.97638,-19.54343c-4.16007,-1.61827 -8.81152,-2.33415 -13.25832,-2.6882c-2.6355,-0.20983 -5.24181,0.45018 -7.86681,0.19785c-2.50193,-0.24049 -4.86698,-0.61116 -7.40077,-0.63218c-4.33162,-0.03629 -8.4631,0.89808 -12.73162,1.49778c-5.00132,0.70266 -10.41187,1.21895 -15.03767,3.35364c-2.03841,0.93778 -4.3783,1.56548 -6.266,2.79526c-7.38801,4.81306 -7.02503,12.36016 -6.83512,20.26845c0.17097,7.13839 -0.10782,14.27885 -0.10782,21.41732v0.12844c0,0 0,0.75 -0.75,0.75z" fill="#000000" stroke="none" stroke-width="0.5" stroke-linecap="butt"/><path d="M185.78012,70.34059c0,-0.75 0.75,-0.75 0.75,-0.75l0.10876,0.00847c0.56566,-2.09545 1.20367,-4.17347 1.92626,-6.26708c0.67883,-1.96682 1.27449,-3.74963 2.52969,-5.04364h0.00002c-0.0572,-0.06703 -0.10809,-0.15252 -0.14848,-0.26098c-0.26173,-0.70285 0.44113,-0.96457 0.44113,-0.96457c8.00864,-2.88629 14.13112,-0.02754 21.13004,3.65963c2.79117,1.79378 3.08298,2.83522 4.15965,5.93005c0.98257,2.82438 2.28609,5.59829 3.27391,8.41456c1.27398,3.63206 1.21982,7.79145 1.41272,11.56709c-0.34195,8.70288 -0.94526,20.51814 -8.59523,25.93047c-7.1053,2.67866 -14.86938,4.40982 -21.60207,-0.30117c-2.25831,-1.58018 -4.03395,-4.56342 -5.62347,-6.79391c-3.42016,-9.08445 -2.92121,-19.38348 -0.56175,-28.65534c0.37635,-1.96071 0.80016,-3.87703 1.28038,-5.77307c-0.21524,-0.07298 -0.48156,-0.25359 -0.48156,-0.70051zM219.12206,82.26697c-3.60205,-2.43503 -8.90904,-4.57477 -13.14649,-5.77621c-3.05305,-0.86563 -6.54787,-1.00466 -9.39605,-2.40646c-2.4837,-1.43685 -5.94711,-1.90175 -8.8557,-2.68468c-0.47922,1.88446 -0.90293,3.78918 -1.27847,5.74111c-2.2715,8.93426 -2.80586,18.84096 0.42098,27.62237c1.46989,2.01512 3.0934,4.85687 5.16134,6.27213c6.32176,4.3265 13.38552,2.64659 20.03769,0.20443c7.03638,-5.06069 7.47749,-16.55664 7.79849,-24.59692c-0.07492,-1.46538 -0.19461,-2.87273 -0.36178,-4.24394c-0.21595,-0.02247 -0.38,-0.13184 -0.38,-0.13184z" fill="#000000" stroke="none" stroke-width="0.5" stroke-linecap="butt"/><path d="M271.66235,85.11069c0,0.75 -0.75,0.75 -0.75,0.75h-0.12844c-0.06144,-0.00206 -0.12462,-0.00314 -0.18946,-0.00327c0.0267,3.72555 -0.40393,7.4738 -0.94306,11.11342c-1.29374,8.725 0.64917,19.1171 -6.94574,25.28945c-7.3347,6.66127 -19.09385,0.16766 -25.32443,-4.72615c-2.84545,-2.91997 -1.82587,-5.63187 -1.63822,-9.36553c0.29374,-5.84458 0.89125,-11.63323 2.01091,-17.37191c0.09182,-0.46895 0.17574,-0.94109 0.25346,-1.41579c-0.10614,-0.10206 -0.18918,-0.25486 -0.20822,-0.4833c-0.03542,-0.42505 0.19103,-0.62852 0.39295,-0.72496c0.68789,-4.80973 0.89327,-9.82374 2.32956,-14.39654c0.32401,-1.03157 0.48462,-2.71193 0.97893,-4.04366c-0.04748,0.01194 -0.0949,0.02401 -0.14227,0.03618c0,0 -0.72638,0.18671 -0.91309,-0.53968c-0.18671,-0.72638 0.53968,-0.9131 0.53968,-0.9131c0.65837,-0.16922 1.32711,-0.31703 2.00402,-0.44361c0.31606,-0.12224 0.66646,-0.15252 1.02139,-0.17399c0.42604,-0.06558 0.85481,-0.12298 1.2858,-0.17223l0.11832,-0.02587c0,0 0.09942,-0.02166 0.233,-0.01242l-0.00001,0.00001c6.38747,-0.66259 13.22879,0.45205 18.82821,3.20444c3.46929,0.8191 4.39342,3.85489 5.16694,6.98523c0.5426,2.19583 0.82197,4.43577 0.91594,6.69051c0.077,-0.00325 0.15217,-0.00567 0.22539,-0.00723h0.12844c0,0 0.75,0 0.75,0.75zM262.71483,87.64347c-3.93679,0.04614 -7.79377,-0.42689 -11.74327,0.00925c-3.84026,0.42408 -7.60887,1.42341 -11.46648,1.8435c-0.0846,0.53285 -0.17676,1.06241 -0.27892,1.58774c-1.10486,5.66283 -1.69812,11.36876 -1.98403,17.13601c-0.15569,3.1407 -1.28107,5.77284 1.13773,8.19493c5.53542,4.31548 16.75455,10.8942 23.34634,4.70933c7.21222,-5.75457 5.22478,-16.16299 6.44142,-24.37332c0.5225,-3.52244 0.95241,-7.16264 0.93526,-10.77927c-2.1339,0.28533 -4.89333,1.0509 -6.38805,1.67183z" fill="#000000" stroke="none" stroke-width="0.5" stroke-linecap="butt"/></g></g></g></svg>