<svg version="1.1" xmlns="http://www.w3.org/2000/svg" xmlns:xlink="http://www.w3.org/1999/xlink" width="2878.25006" height="1619.57958" viewBox="0,0,2878.25006,1619.57958"><defs><linearGradient x1="-17.30834" y1="177.49798" x2="544.30921" y2="-37.77185" gradientUnits="userSpaceOnUse" id="color-1"><stop offset="0" stop-color="#ff00e1"/><stop offset="1" stop-color="#00b8ff"/></linearGradient><linearGradient x1="-39.88592" y1="161.37916" x2="-20.3283" y2="153.88265" gradientUnits="userSpaceOnUse" id="color-2"><stop offset="0" stop-color="#45ff00"/><stop offset="1" stop-color="#ff00e1"/></linearGradient><linearGradient x1="-35.77046" y1="164.98536" x2="545.08253" y2="-57.65747" gradientUnits="userSpaceOnUse" id="color-3"><stop offset="0" stop-color="#feff00"/><stop offset="1" stop-color="#03ff51"/></linearGradient><linearGradient x1="-35.77046" y1="164.98536" x2="545.08253" y2="-57.65747" gradientUnits="userSpaceOnUse" id="color-4"><stop offset="0" stop-color="#feff00"/><stop offset="1" stop-color="#03ff51"/></linearGradient><linearGradient x1="-53.77122" y1="106.71251" x2="276.77717" y2="-19.98775" gradientUnits="userSpaceOnUse" id="color-5"><stop offset="0" stop-color="#45ff00"/><stop offset="1" stop-color="#ff00e1"/></linearGradient><linearGradient x1="-53.77122" y1="106.71251" x2="276.77717" y2="-19.98775" gradientUnits="userSpaceOnUse" id="color-6"><stop offset="0" stop-color="#45ff00"/><stop offset="1" stop-color="#ff00e1"/></linearGradient><linearGradient x1="273.01841" y1="4.26103" x2="337.44351" y2="-20.43334" gradientUnits="userSpaceOnUse" id="color-7"><stop offset="0" stop-color="#45ff00"/><stop offset="1" stop-color="#ff00e1"/></linearGradient><linearGradient x1="301.08082" y1="-72.51617" x2="513.87261" y2="-154.07995" gradientUnits="userSpaceOnUse" id="color-8"><stop offset="0" stop-color="#45ff00"/><stop offset="1" stop-color="#ff00e1"/></linearGradient><linearGradient x1="27.2489" y1="243.51313" x2="59.46144" y2="231.16594" gradientUnits="userSpaceOnUse" id="color-9"><stop offset="0" stop-color="#ff0000"/><stop offset="1" stop-color="#45ff00"/></linearGradient><linearGradient x1="221.48197" y1="177.21542" x2="301.02723" y2="146.72546" gradientUnits="userSpaceOnUse" id="color-10"><stop offset="0" stop-color="#0030ff"/><stop offset="1" stop-color="#ff0303"/></linearGradient></defs><g transform="translate(1117.37278,629.80931)"><g data-paper-data="{&quot;isPaintingLayer&quot;:true}" fill-rule="nonzero" stroke-linejoin="miter" stroke-miterlimit="10" stroke-dasharray="" stroke-dashoffset="0" style="mix-blend-mode: normal"><path d="M-1117.37278,989.77027v-1619.57958h2878.25006v1619.57958z" fill="none" stroke="#000000" stroke-width="0" stroke-linecap="butt"/><path d="M-1117.37278,989.77027v-1619.57958h2878.25006v1619.57958z" fill="none" stroke="#000000" stroke-width="0" stroke-linecap="butt"/><path d="M437.07302,62.78185c2.80575,-0.70388 5.61021,-1.40736 8.40737,-2.1448c1.39913,-0.36886 3.00903,-0.25388 4.32045,-0.79467c-0.26772,-1.76696 -0.53544,-3.53391 -0.80316,-5.30086c0,0 -0.21708,-1.43267 1.21559,-1.64974c1.43267,-0.21708 1.64974,1.21559 1.64974,1.21559c0.12824,0.84642 0.25648,1.69281 0.38472,2.53922c0.16808,-0.0682 0.35187,-0.10574 0.54444,-0.10574c0.65099,0 1.20173,0.42929 1.38453,1.02024l0.8798,2.62492c1.83165,3.34205 3.65474,6.68877 5.47967,10.03451c3.96232,7.26561 5.90992,15.84525 8.45405,23.67189c1.08937,3.35128 0.47574,7.20579 1.19182,10.55612c0.78797,3.68673 4.03126,5.79543 5.66915,8.92027c1.72187,3.28511 2.98343,7.12458 4.67696,10.51755c2.71615,7.27523 5.47536,13.94942 9.21493,20.74607c0.97077,1.76438 1.97073,5.31099 3.9213,6.31414c1.66332,0.85543 5.2465,-2.09373 6.67959,-2.39717c6.46061,-1.36788 14.48631,0.54928 20.56013,2.53245c7.71168,1.98943 15.09127,4.012 21.93064,8.29433c10.91059,6.83148 18.38925,17.85217 24.89689,28.6547c7.08507,11.76107 10.15744,25.0043 13.68542,38.16818c1.74559,6.5133 4.38835,13.1445 5.0497,19.85265c0.10118,1.04847 0.73469,6.33951 0.15424,6.91767c-0.98306,0.97915 -2.77202,0.32742 -4.15609,0.23018c-3.5973,-0.25276 -7.68122,-1.88223 -11.14942,-2.87298c-3.68978,-1.05408 -6.97837,-1.38937 -10.71658,-2.01266c-9.57664,-1.5968 -18.26141,-4.10771 -28.08855,-4.23712c-4.90902,-0.06466 -9.84479,-0.27719 -14.67993,-1.24539c-3.74509,-0.74992 -7.32403,-2.68391 -11.04206,-3.33382c-2.49192,-0.43559 -5.561,0.01876 -8.09017,0.01889c-5.34672,0.00023 -11.8732,-1.01442 -17.10392,0.05469c-3.16189,0.64626 -5.41632,1.10437 -8.77068,1.10437c-4.66243,-0.00008 -9.4042,0.09758 -14.0569,-0.20212c-7.44779,-0.47973 -15.26213,-1.87331 -22.74545,-0.83869c-2.80263,0.38747 -5.52743,1.7181 -8.30636,2.26816c-4.78765,0.9477 -9.69438,1.30758 -14.50152,2.24754c-1.14175,-0.18858 -2.61202,0.25757 -3.42525,-0.56572c-0.89613,-0.90725 -0.59491,-2.48138 -0.82376,-3.73588c-0.71557,-3.92285 -0.68703,-7.72985 -0.80399,-11.68871c-0.14891,-5.04001 -2.20491,-8.83925 -3.525,-13.58481c-2.5844,-9.29062 -3.65229,-18.94313 -6.31212,-28.25256c-5.56383,-19.47346 -10.9339,-39.06642 -15.09554,-58.8959c-2.37067,-11.29834 -5.70854,-22.82683 -6.32467,-34.39013c-0.46988,-8.81868 0.68445,-17.4967 1.69581,-26.22993c0.20107,-1.73619 0.09956,-8.18464 1.14041,-9.37862c2.50263,-2.87087 6.68391,-0.42209 9.6095,-0.26731c4.12802,0.21838 8.1715,1.00576 12.21019,1.83728c1.07614,-0.81906 2.74651,0.49557 4.08936,0.82226c0.10773,0.02621 0.21522,0.05218 0.32252,0.07792c1.16926,0.22951 2.34055,0.44674 3.51576,0.63904c4.27085,0.69879 8.56734,0.99032 12.79444,1.87074c3.18016,0.42067 6.34231,0.94941 9.31913,1.81875c1.828,-0.49909 3.65212,-0.98818 5.47286,-1.44493zM449.02146,62.70057c-2.79049,0.7939 -5.61864,1.48116 -8.43232,2.18704c-1.39341,0.34956 -2.79062,0.71786 -4.19133,1.09625c2.95553,1.26129 5.76979,2.68172 8.82316,3.63679c0.42395,-0.51621 1.15213,-0.51621 1.15213,-0.51621l0.12139,0.07437c0.82499,-0.2667 3.38338,-1.34573 4.62647,-0.62371c-0.30741,-2.02882 -0.61479,-4.05763 -0.92219,-6.08645c-0.40073,0.06377 -0.80226,0.12523 -1.1773,0.23192z" data-paper-data="{&quot;index&quot;:null}" fill="#d221e7" stroke="none" stroke-width="1" stroke-linecap="butt"/><path d="M119.00291,175.81229c1.28808,0.66369 0.6244,1.95177 0.6244,1.95177l-0.62281,1.20877c4.43861,-0.81585 8.82935,-4.58191 12.91515,-6.21997c4.72471,-1.8942 9.1602,-1.98985 13.98759,-2.87529c2.93602,-0.53852 4.84444,-2.80487 7.5707,-3.73259c3.78216,-1.28704 8.41781,-1.07299 12.23538,-0.30304c6.34867,1.31689 13.37965,0.53571 19.86047,0.53571c3.21756,0 7.04912,0.60404 10.20084,0.01871c3.05543,-0.56746 5.5329,-1.28593 8.75332,-1.16249c1.28506,0.04926 2.85584,-0.50094 3.8446,0.32136c0.98582,0.81986 0.71807,2.46325 1.00601,3.7127c1.05895,4.59491 1.97908,9.50105 1.98779,14.20815c0,3.77994 0.54456,8.05993 -0.014,11.79315c-0.60099,4.01683 -3.78732,6.96681 -5.45508,10.58635c-1.14349,2.48172 -2.52442,5.25679 -3.42477,7.83308c-0.36093,1.03277 -0.99804,4.83225 -1.38316,5.73039c-0.75996,1.77235 -2.40431,3.07387 -3.15075,4.85195c-0.74321,1.77036 -0.54892,3.83491 -1.24731,5.62343c-1.3801,3.53428 -3.64805,6.82965 -5.1082,10.40109c-3.26233,7.97949 -6.39482,16.05907 -8.61748,24.40258c-1.43583,5.38995 -3.04862,11.25416 -3.77765,16.78128c-0.15224,1.15424 -0.06168,4.7915 -0.24775,5.85209c-0.65714,3.74563 -2.39241,7.60953 -3.53996,11.23935c-4.32584,13.68295 -8.73464,27.1025 -11.94286,41.07419c-1.25958,5.48545 -2.94388,11.0416 -3.26799,16.65838c-0.84823,0.60432 -1.90314,0.99253 -2.54471,1.81295c-0.65845,0.84195 -0.36722,2.30248 -1.19878,2.97403c-0.85566,0.69103 -2.14767,0.5044 -3.24221,0.61251c-3.80358,0.3757 -7.85552,0.00341 -11.68011,0.00267c-5.74389,-0.00113 -11.8694,-0.31806 -17.55712,-1.17158c-2.84446,-0.42685 -5.608,-1.50817 -8.45902,-1.87687c-4.79851,-0.62055 -9.49905,-0.00234 -14.24171,-1.17533c-5.4125,-1.35312 -11.15447,-3.28946 -16.70325,-3.89953c-8.43291,-0.92716 -16.97276,-0.02699 -25.47661,-1.1573c-0.15584,-0.02071 -5.85739,-0.97321 -5.933,-0.99529c-1.82282,-0.53233 -3.37767,-1.84697 -5.23297,-2.2518c-1.79906,-0.39257 -3.68213,-0.07006 -5.5229,-0.11796c-3.77032,-0.10136 -7.3642,-0.99008 -11.104,-1.26874c-4.44299,-0.33106 -8.68367,0.94997 -13.10169,1.08276c-0.77845,0.02339 -5.85536,0.19612 -6.35756,-0.33646c-2.12511,-2.2536 0.24613,-4.25296 0.78924,-6.08905c0.76553,-2.58799 0.62499,-5.75325 1.03279,-8.42567c0.72958,-4.78132 1.72035,-9.53863 2.57913,-14.29867c0.66988,-3.71294 1.68649,-7.53301 2.04157,-11.28717c0.42681,-4.51257 -0.74894,-9.50769 0.10657,-13.95009c0.54489,-2.82931 2.50954,-5.39207 3.25182,-8.17207c1.59154,-5.96073 0.03918,-12.27069 4.93994,-17.00736c2.15056,-2.07854 5.56798,-2.76045 8.20135,-4.0127c7.18086,-3.36569 15.52593,-2.70208 23.2839,-2.70208c7.98135,0 16.38214,-0.76936 22.71007,4.72615c3.61451,3.13902 8.08575,5.22953 9.07471,10.31656c1.66322,-1.46255 1.90457,-3.34854 2.41676,-5.43616c0.92072,-3.75273 1.85325,-7.50262 2.77988,-11.25391c3.19977,-12.95383 6.23553,-25.94472 9.13626,-38.96864c0.67423,-2.69737 1.70054,-5.54868 2.08364,-8.30106c0.79895,-5.74039 0.41665,-11.82196 2.20817,-17.45596c0.57835,-1.81883 1.97167,-3.32223 2.47459,-5.16333c0.24141,-0.88378 0.09312,-5.44968 0.28688,-5.87632c0.44613,-0.98226 1.73578,-1.31661 2.41456,-2.15515c1.15299,-1.42439 1.68758,-3.25351 2.5269,-4.88256l0.87874,-1.70549c0,0 0.6637,-1.28808 1.95178,-0.62439z" data-paper-data="{&quot;index&quot;:null}" fill="#d221e7" stroke="none" stroke-width="1" stroke-linecap="butt"/><g><path d="M375.90275,79.83785l-1.01323,-4.37428l-10.57906,-44.78435c0,0 9.10328,-9.1684 14.81148,-10.90461c5.48088,-1.66707 18.78347,0.68629 18.78347,0.68629l12.29607,53.61635l-33.59636,5.90324l-1.26747,0.83963z" data-paper-data="{&quot;index&quot;:null}" fill="none" stroke="#000000" stroke-width="0" stroke-linecap="round"/><path d="M3.77449,98.1421l4.88268,1.94675l14.12578,-3.82349l113.06777,-70.06729l-1.165,-7.19004l136.61061,-22.13514l5.21526,14.22871l59.43512,-32.96379l-15.03003,-35.15587l175.45162,-103.33645l92.81639,239.65836l-131.78844,39.69644l-2.76484,-7.21319l-83.30759,25.88645l-155.963,91.60022l-193.93709,48.56326l-46.12926,-119.63758l4.86751,-2.05423l-13.21539,-35.46118z" fill="url(#color-1)" stroke="#000000" stroke-width="1" stroke-linecap="round"/><path d="M-19.7997,155.7535l-17.22117,8.67437l-3.558,-4.85658l18.86467,-9.30434z" fill="url(#color-2)" stroke="#000000" stroke-width="1" stroke-linecap="round"/><path d="M-21.13968,203.15559l42.33923,-16.41726l34.30774,-106.83287l115.93214,39.11378l150.23186,-49.66753l32.97779,-51.6592l66.87978,11.21577l134.76693,-57.3115l0.84889,9.09943l-2.85695,0.90656l-137.58542,54.99889l-57.57149,-12.38035l-31.20551,48.90643l-157.08941,54.27525l-109.6623,-38.12408l-32.11692,100.00837l-47.83949,19.27951z" fill="url(#color-3)" stroke="url(#color-4)" stroke-width="1" stroke-linecap="round"/><path d="M3.78645,98.03372l-44.91705,27.39564l-6.65599,-3.10361l52.84701,-33.26267l15.23775,1.88767l107.63881,-68.21327l-4.7303,-7.4232l157.53923,-24.94799l-0.43566,5.25638l-145.30897,24.03004l0.58599,6.93824l-113.14725,69.94768l-15.09274,3.90014z" fill="url(#color-5)" stroke="url(#color-6)" stroke-width="1" stroke-linecap="round"/><path d="M273.48684,3.51598l5.56044,-0.24637l54.57533,-30.72069l3.31694,5.70296l-61.08631,33.40488z" fill="url(#color-7)" stroke="#000000" stroke-width="1" stroke-linecap="round"/><path d="M307.41189,-55.99902l198.11379,-119.85727l1.46794,9.23913l-194.31993,114.63316z" fill="url(#color-8)" stroke="#000000" stroke-width="1" stroke-linecap="round"/><path d="M437.24993,-16.13642l-25.6962,-64.0882l0.89314,-7.50518l7.87256,-10.9344l6.93293,-6.99283l6.48636,-3.24024l10.31567,-3.57704l9.65548,-0.87353l11.78923,0.75905l29.04868,71.85101z" fill="#fbfafa" stroke="#000000" stroke-width="1" stroke-linecap="round"/><path d="M439.91537,-26.3944l-23.07158,-57.9785l5.44286,-7.92964l5.63186,-7.4366l7.68889,-5.02061l9.92397,-3.61542l14.25447,-0.18589l24.35473,63.04729z" fill="#465979" stroke="#000000" stroke-width="1" stroke-linecap="round"/><path d="M404.10744,-2.77306l-36.8664,15.45048l-17.52655,-44.74148l36.06119,-18.53476z" fill="#fbfafa" stroke="#000000" stroke-width="1" stroke-linecap="round"/><path d="M398.6923,-8.04876l-29.13107,13.99348l-14.73291,-34.50253l29.78846,-14.24547z" fill="#272b2b" stroke="#000000" stroke-width="1" stroke-linecap="round"/><path d="M353.8876,17.79584l-45.09762,19.54802l-14.68082,-35.84194l42.47363,-23.44314z" fill="#fbfafa" stroke="#000000" stroke-width="1" stroke-linecap="round"/><path d="M350.68574,10.91779l-38.84144,18.65796l-11.41875,-26.34802l39.05785,-20.06038z" fill="#272b2b" stroke="#000000" stroke-width="1" stroke-linecap="round"/><path d="M94.84631,225.56678l-20.69816,-55.96655l2.85163,-7.31342l8.46415,-8.89921l5.74133,-3.70862l9.54318,-2.14998l13.34228,1.86022l11.47144,2.38881l23.63433,63.13493l-53.48197,13.90244z" fill="#fbfafa" stroke="#000000" stroke-width="1" stroke-linecap="round"/><path d="M99.66172,224.85199l-17.77572,-47.8504l2.35858,-7.12443l4.56903,-6.27524l5.50307,-5.31378l7.73815,-3.90855l6.46983,0.15903l14.51456,4.42681l19.75119,52.51248l-44.45643,11.38541z" fill="#161c21" stroke="#000000" stroke-width="1" stroke-linecap="round"/><path d="M10.00987,250.12089l174.06222,-44.66454l179.56366,-92.76637l8.50161,24.63875l-158.17648,93.23941l-193.09505,47.43599z" fill="#453e3c" stroke="#000000" stroke-width="1" stroke-linecap="round"/><path d="M71.1258,266.51478l-4.33812,0.4847l-33.74908,7.84675l-25.86384,-69.44321l37.14306,-14.23705z" fill="#fbfafa" stroke="#000000" stroke-width="1" stroke-linecap="round"/><path d="M71.79006,265.78893l-33.34367,6.93735l-23.19742,-63.96213l31.25108,-11.41316z" fill="url(#color-9)" stroke="#000000" stroke-width="1" stroke-linecap="round"/><path d="M51.18232,208.09126l-28.6324,8.90145l-2.31712,-7.02868l27.21907,-10.62166z" fill="#161c21" stroke="#000000" stroke-width="1" stroke-linecap="round"/><path d="M231.86835,219.55722l-33.71164,-88.44206l90.69359,-32.87817l29.03979,71.33603z" fill="#fbfafa" stroke="#000000" stroke-width="1" stroke-linecap="round"/><path d="M236.99468,217.68654l-30.89943,-80.61353l78.76189,-30.56668l26.35968,66.8027z" fill="url(#color-10)" stroke="#000000" stroke-width="1" stroke-linecap="round"/><path d="M283.90706,116.81365l-74.51623,30.82426l-2.94709,-8.67218l74.55179,-28.76443z" fill="#161c21" stroke="#000000" stroke-width="1" stroke-linecap="round"/><path d="M346.97743,152.39187l-21.58469,12.04342l-30.49556,-74.64223l22.90761,-8.59206z" fill="#0a0c0a" stroke="#000000" stroke-width="1" stroke-linecap="round"/><path d="M347.50199,152.28506l-21.9134,12.16939l-25.62711,-60.95736l23.27467,-9.10976z" fill="#592d2a" stroke="#000000" stroke-width="1" stroke-linecap="round"/><path d="M322.8703,74.49984l34.02318,-15.49166l26.59262,62.001l-39.59456,14.23426z" fill="#fbfafa" stroke="#000000" stroke-width="1" stroke-linecap="round"/><path d="M327.69384,77.74037l27.42176,-11.07634l20.46271,51.90988l-29.18844,8.92607l-17.77292,-50.30193z" fill="#0a0c0a" stroke="#000000" stroke-width="1" stroke-linecap="round"/><path d="M405.43463,127.86446l-29.57525,-72.733l7.39041,-9.24166l9.38445,-6.99002l7.10541,-3.10052l9.07479,-1.40495l7.65583,1.7779l2.9583,-1.13393l29.22928,79.69862z" fill="#fbfafa" stroke="#000000" stroke-width="1" stroke-linecap="round"/><path d="M409.88782,126.20466l-19.61073,-56.57184l37.20604,-14.0727l20.75837,58.58241z" fill="#281b1a" stroke="#000000" stroke-width="1" stroke-linecap="round"/><path d="M422.81937,122.56743l-21.45412,-57.93874l20.59298,-6.76238l21.12542,58.06473z" fill="#592d2a" stroke="#000000" stroke-width="1" stroke-linecap="round"/><path d="M399.27519,69.01127l6.42556,16.76367l-5.95495,2.65953l-5.83119,-17.18z" fill="#292c26" stroke="#000000" stroke-width="1" stroke-linecap="round"/><path d="M407.73093,67.46659l12.52893,-5.17937l4.99039,12.03589l-12.97271,6.48045z" fill="#292c26" stroke="#000000" stroke-width="1" stroke-linecap="round"/><path d="M433.04861,73.03047l-2.66794,1.39962l-4.76025,-14.38605l2.36388,-0.71759z" fill="#292c26" stroke="#000000" stroke-width="1" stroke-linecap="round"/><path d="M424.20658,50.45427l-37.42246,15.47513l-2.89498,-10.01161l11.43616,-10.98087l6.99312,-4.37696l10.36495,-2.46495l8.0996,0.47682z" fill="#1a1a1a" stroke="#000000" stroke-width="1" stroke-linecap="round"/><path d="M511.09602,-1.32335l30.41884,75.4256l-61.17638,20.99866l-28.29883,-72.84527z" fill="#fbfafa" stroke="#000000" stroke-width="1" stroke-linecap="round"/><path d="M461.43217,22.04838l44.33607,-16.61716l26.76992,64.43062l-47.15466,17.13204l-23.92264,-62.41179z" fill="#292c26" stroke="#000000" stroke-width="1" stroke-linecap="round"/><path d="M6.90408,99.31469l17.83474,48.30512l-35.75493,18.01645l-16.31802,-44.34812z" fill="#f6f7f3" stroke="#000000" stroke-width="1" stroke-linecap="round"/><path d="M-22.50011,124.42746l28.02565,-16.86912l13.43623,36.82979l-28.2663,14.46527z" fill="#4e5959" stroke="#000000" stroke-width="1" stroke-linecap="round"/><path d="M109.3866,-33.27848c-0.37342,-0.04911 -2.01894,-0.38223 -1.90404,-2.43076c0.12952,-2.30951 2.23759,-2.1804 2.23759,-2.1804l1.01038,0.19926c5.90434,2.75535 11.63362,5.71143 17.38734,8.82145c7.06623,3.82871 14.77873,5.72237 22.04453,9.02185c14.7947,6.71845 28.37031,16.26284 43.23114,22.89936c0,0 1.95189,0.87167 1.14522,3.0143c-0.80664,2.14261 -2.75858,1.27094 -2.75858,1.27094c-14.87597,-6.64336 -28.46511,-16.20105 -43.2747,-22.91917c-7.34886,-3.33365 -15.11898,-5.27794 -22.27382,-9.13652c-5.57718,-3.01457 -11.12857,-5.88234 -16.84509,-8.56038z" data-paper-data="{&quot;index&quot;:null}" fill="#000000" stroke="none" stroke-width="1" stroke-linecap="butt"/><path d="M237.11734,-78.74171c2.09727,0.63198 1.64295,2.82442 1.64295,2.82442l-0.42211,2.00377c-0.42001,1.45164 -0.84005,2.90332 -1.26008,4.35498c-8.74208,23.34459 -14.98472,48.96893 -29.06959,69.21925c0,0 -1.23547,1.77303 -2.99008,0.33689c-1.75461,-1.43616 -0.51913,-3.20919 -0.51913,-3.20919c13.86826,-19.86309 19.91162,-45.20166 28.51949,-68.11567c0.40292,-1.39659 0.8059,-2.79318 1.20888,-4.1898l0.33807,-1.66419c0,0 0.45435,-2.19244 2.55164,-1.56047z" data-paper-data="{&quot;index&quot;:null}" fill="#000000" stroke="none" stroke-width="1" stroke-linecap="butt"/><path d="M178.76888,22.11036c3.45001,0.69921 4.49308,2.55569 6.78957,5.14156c4.16359,4.68821 7.15243,9.16949 9.72821,14.91292c2.61202,7.61095 6.34919,18.53987 1.62264,25.80492c-5.31653,4.68509 -11.32731,8.82132 -18.78666,7.07738c-2.44006,-0.57047 -4.99692,-2.63412 -7.09671,-3.98029c-6.18747,-7.01718 -9.31014,-16.49877 -10.4277,-25.64929c-0.83783,-4.59318 -1.32291,-9.06502 -1.51438,-13.72512c-0.10634,-2.58811 -0.3512,-4.87656 1.64935,-6.65298l0.45046,-0.55558c0,0 0.10456,-0.1334 0.1508,-0.32266c5.27524,-3.37065 11.13806,-2.8088 17.43441,-2.05086z" data-paper-data="{&quot;noHover&quot;:false,&quot;origItem&quot;:[&quot;Path&quot;,{&quot;applyMatrix&quot;:true,&quot;segments&quot;:[[[463.02145,118.92474],[11.94148,-3.76279],[-0.18782,0.34138]],[462.56327,119.46889],[[461.40637,120.30632],[0,0],[-4.78797,2.38894]],[[454.7767,132.28436],[1.14195,-5.05316],[-2.05618,9.09862]],[[450.59007,159.5336],[0.77318,-9.30587],[-2.60543,18.25199]],[[457.33707,214.37126],[-8.29546,-16.77166],[3.35404,3.69263]],[[468.94246,225.73925],[-4.41495,-2.37184],[13.49664,7.25079]],[[508.8316,221.85864],[-12.70549,6.27955],[12.90926,-11.56875]],[[519.07651,171.27858],[1.08192,16.05697],[-1.9841,-12.43181]],[[508.09898,137.49402],[5.59959,11.22069],[-3.08854,-6.18895]],[[497.69355,124.0439],[6.29819,3.14621],[-11.7641,-4.74133]]],&quot;closed&quot;:true}]}" fill="#ffffff" stroke="none" stroke-width="0.5" stroke-linecap="butt"/><path d="M231.09862,12.60871c2.98313,-0.48022 4.52502,1.79768 6.08549,4.00887c3.6229,5.13363 5.41683,11.43714 6.78844,17.4789c1.83873,8.09376 7.44478,17.13153 2.80556,25.10704c-3.90509,8.15197 -16.79039,6.09151 -23.51277,4.07313c-3.13168,-1.38194 -3.04907,-4.24893 -4.04114,-7.23291c-1.8217,-5.47944 -3.35784,-11.05424 -4.37835,-16.73288c-0.99815,-5.53447 -3.18204,-11.13958 -3.55016,-16.7362c-0.05881,-0.89414 -1.03965,-4.42925 -0.39151,-5.10611c0.00964,-0.01006 0.01944,-0.02001 0.02932,-0.02977c0.32505,-0.19862 0.6562,-0.39295 0.99013,-0.58035c0.2465,-0.10834 0.49355,-0.21947 0.71018,-0.37064l0.12016,-0.07948c5.57025,-2.91168 12.23431,-4.30433 18.34467,-3.7996z" data-paper-data="{&quot;noHover&quot;:false,&quot;origItem&quot;:[&quot;Path&quot;,{&quot;applyMatrix&quot;:true,&quot;segments&quot;:[[[566.35295,130.72043],[12.27227,-2.72292],[0,0]],[[566.08002,130.81116],[0,0],[-0.49701,0.17916]],[[564.51821,131.15611],[0.53239,-0.0809],[-0.7424,0.18804]],[[562.30763,131.75969],[0.73107,-0.21435],[-0.02414,0.0137]],[[562.23565,131.80185],[0.02385,-0.01442],[-1.60395,0.96966]],[[560.34435,141.85964],[0.35189,-1.75725],[-2.20257,10.99907]],[[558.52911,175.96742],[0.95361,-11.20702],[-0.98546,11.49706]],[[558.25012,210.46726],[-0.66539,-11.52947],[0.36236,6.27868]],[[562.26585,226.51965],[-5.32806,-4.29887],[11.93061,7.39711]],[[609.69817,230.88926],[-11.78467,13.70908],[13.11047,-12.98617]],[[617.29234,181.04419],[-0.66268,16.58674],[0.49649,-12.38105]],[[613.32811,143.83386],[4.32361,11.79936],[-1.86229,-5.08228]],[[603.68782,132.93587],[6.0106,0.62561],[-11.53671,-4.15555]]],&quot;closed&quot;:true}]}" fill="#ffffff" stroke="none" stroke-width="0.5" stroke-linecap="butt"/><path d="M189.60209,45.84468c-0.39531,-1.46644 0.47299,-2.97568 1.93942,-3.371c1.46644,-0.39531 2.97568,0.47299 3.37101,1.93943c0.39532,1.46643 -0.47299,2.97568 -1.93942,3.37099c-1.46644,0.39531 -2.97568,-0.47299 -3.371,-1.93942z" fill="#000000" stroke="none" stroke-width="0.5" stroke-linecap="butt"/><path d="M237.82144,36.63394c-0.39532,-1.46643 0.47299,-2.97568 1.93942,-3.37099c1.46644,-0.39531 2.97568,0.47299 3.37101,1.93943c0.39532,1.46643 -0.47299,2.97568 -1.93943,3.371c-1.46644,0.39531 -2.97568,-0.47299 -3.371,-1.93943z" fill="#000000" stroke="none" stroke-width="0.5" stroke-linecap="butt"/><path d="M185.48282,141.16765c-0.69911,0.27156 -0.97067,-0.42755 -0.97067,-0.42755l-0.04651,-0.11972c-2.58034,-6.64285 -4.90063,-13.38911 -7.64087,-19.96971c-3.24492,-7.79399 -6.30284,-15.20558 -0.79971,-22.82146c1.36668,-1.89136 3.35202,-3.37061 4.9678,-5.04063c3.65541,-3.76972 8.60373,-6.295 13.14863,-8.83692c3.82768,-2.14079 7.40371,-4.53784 11.5263,-6.09965c2.40256,-0.90997 4.77882,-1.43793 7.23296,-2.12593c2.5325,-0.70997 4.7257,-2.27328 7.25689,-3.03151c4.41405,-1.32226 9.15327,-2.35925 13.76307,-2.35788c10.25828,0.03185 18.00197,4.62997 24.09542,12.66416c3.59657,4.75053 6.71945,10.97428 8.25603,16.75409c0.44951,1.69082 1.36916,3.30789 1.47235,5.05099c0,0 0.03655,0.74911 -0.71256,0.78565c-0.74911,0.03655 -0.78565,-0.71256 -0.78565,-0.71256c-0.05501,-1.58213 -1.0139,-3.19692 -1.42378,-4.73869c-1.48521,-5.58658 -4.51668,-11.64536 -8.00159,-16.23314c-5.79333,-7.64102 -13.11235,-12.09623 -22.90079,-12.07051c-4.46374,-0.00218 -9.05878,1.01472 -13.33204,2.2948c-2.53265,0.75867 -4.72313,2.3176 -7.26138,3.03285c-2.41924,0.68173 -4.75803,1.19255 -7.1275,2.0904c-4.05084,1.53457 -7.56367,3.90147 -11.32542,6.00603c-4.40754,2.46587 -9.26403,4.90619 -12.80302,8.57095c-1.56054,1.61222 -3.51439,3.04456 -4.82872,4.87439c-5.14399,7.16154 -2.07297,14.06511 0.9675,21.36803c2.74405,6.59212 5.0696,13.34902 7.65431,20.00312l0.04651,0.11972c0,0 0.27156,0.69911 -0.42755,0.97067z" fill="#000000" stroke="none" stroke-width="0.5" stroke-linecap="butt"/><path d="M157.56555,39.3259c-0.27156,-0.69911 0.42755,-0.97067 0.42755,-0.97067l0.10445,-0.03148c-0.23145,-2.15808 -0.38914,-4.32611 -0.47364,-6.5393c-0.07938,-2.07916 -0.16966,-3.95667 0.53183,-5.61737l0.00002,-0.00001c-0.07759,-0.04177 -0.15598,-0.10303 -0.2329,-0.18951c-0.49846,-0.56039 0.06194,-1.05885 0.06194,-1.05885c6.42015,-5.59023 13.1623,-5.14229 21.02138,-4.23949c3.25127,0.66143 3.90037,1.52655 6.02456,4.02154c1.93855,2.27697 4.15801,4.39068 6.09852,6.65818c2.50264,2.92433 3.95819,6.8211 5.50509,10.2707c2.8324,8.23617 6.54812,19.46817 1.37693,27.28317c-5.65329,5.0696 -12.26373,9.49453 -20.24534,7.54098c-2.67723,-0.65527 -5.41256,-2.79316 -7.70185,-4.29676c-6.4774,-7.22966 -9.74139,-17.01053 -10.8992,-26.50757c-0.35912,-1.96394 -0.65793,-3.90368 -0.89682,-5.84495c-0.22706,0.00991 -0.5407,-0.06202 -0.70253,-0.47861zM192.96344,38.37054c-4.23932,-0.96557 -9.96097,-1.03856 -14.34591,-0.62417c-3.15932,0.29856 -6.46734,1.43437 -9.62983,1.15896c-2.83543,-0.44005 -6.23217,0.38063 -9.22688,0.70397c0.23562,1.93011 0.53033,3.859 0.88703,5.81447c1.11756,9.15051 4.20649,18.57848 10.39396,25.59566c2.09979,1.34617 4.64208,3.40725 7.08215,3.97772c7.45935,1.74394 13.43555,-2.37964 18.75208,-7.06472c4.72655,-7.26505 0.97526,-18.14067 -1.63675,-25.75162c-0.60042,-1.33882 -1.22157,-2.60734 -1.87388,-3.82498c-0.20943,0.05725 -0.40195,0.0147 -0.40195,0.0147z" fill="#000000" stroke="none" stroke-width="0.5" stroke-linecap="butt"/><path d="M242.96834,21.99743c0.27156,0.69911 -0.42755,0.97067 -0.42755,0.97067l-0.11972,0.04651c-0.05802,0.02033 -0.1173,0.0422 -0.17779,0.06555c1.37384,3.46309 2.3296,7.11293 3.14489,10.7008c1.95321,8.60142 7.52707,17.58488 2.68239,26.08839c-4.42509,8.86504 -17.73756,7.06981 -25.31733,4.76404c-3.70964,-1.69155 -3.74117,-4.58861 -4.91815,-8.13688c-1.84241,-5.55436 -3.3814,-11.16658 -4.41558,-16.92128c-0.08421,-0.47038 -0.17694,-0.94087 -0.27637,-1.4115c-0.13589,-0.0567 -0.26862,-0.16907 -0.36909,-0.37511c-0.18692,-0.38338 -0.04951,-0.65504 0.10379,-0.81805c-1.1003,-4.73244 -2.72434,-9.4806 -3.04123,-14.26317c-0.07149,-1.07889 -0.5302,-2.70339 -0.55163,-4.12374c-0.03994,0.02832 -0.07977,0.05674 -0.11952,0.08524c0,0 -0.60949,0.43705 -1.04654,-0.17245c-0.43705,-0.60949 0.17244,-1.04655 0.17244,-1.04655c0.55243,-0.39612 1.12227,-0.77604 1.70742,-1.13913c0.25035,-0.22839 0.56601,-0.38348 0.88909,-0.53201c0.37339,-0.21539 0.75228,-0.42415 1.13619,-0.62611l0.10092,-0.06696c0,0 0.08483,-0.05619 0.21269,-0.09594l-0.00001,0.00001c5.71415,-2.93042 12.49485,-4.36852 18.71092,-3.83034c3.53047,-0.49264 5.4911,2.00255 7.34557,4.6404c1.30085,1.85037 2.37231,3.83717 3.2763,5.90489c0.0706,-0.03091 0.13979,-0.06038 0.20748,-0.08835l0.11972,-0.04651c0,0 0.69911,-0.27156 0.97067,0.42755zM235.54501,27.59809c-3.65296,1.46845 -7.4195,2.42406 -10.9431,4.26064c-3.42613,1.78579 -6.57719,4.08186 -10.02094,5.87021c0.11408,0.52733 0.21991,1.05432 0.3149,1.581c1.02051,5.67864 2.53352,11.21221 4.35523,16.69165c0.99206,2.98396 0.89609,5.84498 4.02776,7.22692c6.72238,2.01839 19.56228,4.08848 23.46737,-4.06349c4.63922,-7.97551 -0.98206,-16.95807 -2.82078,-25.05182c-0.78836,-3.47262 -1.70567,-7.02148 -3.03117,-10.3865c-1.88579,1.03862 -4.18079,2.75138 -5.34926,3.87139z" fill="#000000" stroke="none" stroke-width="0.5" stroke-linecap="butt"/></g></g></g></svg>