<svg version="1.1" xmlns="http://www.w3.org/2000/svg" xmlns:xlink="http://www.w3.org/1999/xlink" width="2878.25006" height="1619.57958" viewBox="0,0,2878.25006,1619.57958"><defs><linearGradient x1="-184.95475" y1="165.392" x2="382.41531" y2="-34.22407" gradientUnits="userSpaceOnUse" id="color-1"><stop offset="0" stop-color="#ff00e1"/><stop offset="1" stop-color="#00b8ff"/></linearGradient><linearGradient x1="-207.07676" y1="148.65341" x2="-187.31881" y2="141.70202" gradientUnits="userSpaceOnUse" id="color-2"><stop offset="0" stop-color="#45ff00"/><stop offset="1" stop-color="#ff00e1"/></linearGradient><linearGradient x1="-203.06286" y1="152.37232" x2="383.73966" y2="-54.08061" gradientUnits="userSpaceOnUse" id="color-3"><stop offset="0" stop-color="#feff00"/><stop offset="1" stop-color="#03ff51"/></linearGradient><linearGradient x1="-203.06286" y1="152.37232" x2="383.73966" y2="-54.08061" gradientUnits="userSpaceOnUse" id="color-4"><stop offset="0" stop-color="#feff00"/><stop offset="1" stop-color="#03ff51"/></linearGradient><linearGradient x1="-219.44108" y1="93.6228" x2="114.49305" y2="-23.86422" gradientUnits="userSpaceOnUse" id="color-5"><stop offset="0" stop-color="#45ff00"/><stop offset="1" stop-color="#ff00e1"/></linearGradient><linearGradient x1="-219.44108" y1="93.6228" x2="114.49305" y2="-23.86422" gradientUnits="userSpaceOnUse" id="color-6"><stop offset="0" stop-color="#45ff00"/><stop offset="1" stop-color="#ff00e1"/></linearGradient><linearGradient x1="110.06343" y1="0.27103" x2="175.14842" y2="-22.62764" gradientUnits="userSpaceOnUse" id="color-7"><stop offset="0" stop-color="#45ff00"/><stop offset="1" stop-color="#ff00e1"/></linearGradient><linearGradient x1="140.24372" y1="-75.69861" x2="355.21508" y2="-151.33133" gradientUnits="userSpaceOnUse" id="color-8"><stop offset="0" stop-color="#45ff00"/><stop offset="1" stop-color="#ff00e1"/></linearGradient><linearGradient x1="-142.24493" y1="232.61713" x2="-109.70245" y2="221.16779" gradientUnits="userSpaceOnUse" id="color-9"><stop offset="0" stop-color="#ff0000"/><stop offset="1" stop-color="#45ff00"/></linearGradient><linearGradient x1="53.75159" y1="171.73007" x2="134.11162" y2="143.45725" gradientUnits="userSpaceOnUse" id="color-10"><stop offset="0" stop-color="#0030ff"/><stop offset="1" stop-color="#ff0303"/></linearGradient></defs><g transform="translate(1117.37278,629.80931)"><g data-paper-data="{&quot;isPaintingLayer&quot;:true}" fill-rule="nonzero" stroke-linejoin="miter" stroke-miterlimit="10" stroke-dasharray="" stroke-dashoffset="0" style="mix-blend-mode: normal"><path d="M-1117.37278,989.77027v-1619.57958h2878.25006v1619.57958z" fill="none" stroke="#000000" stroke-width="0" stroke-linecap="butt"/><path d="M-1117.37278,989.77027v-1619.57958h2878.25006v1619.57958z" fill="none" stroke="#000000" stroke-width="0" stroke-linecap="butt"/><path d="M283.65138,32.98052c2.80575,-0.70388 5.61021,-1.40736 8.40737,-2.1448c1.39913,-0.36886 3.00903,-0.25388 4.32045,-0.79467c-0.26772,-1.76696 -0.53544,-3.53391 -0.80316,-5.30086c0,0 -0.21708,-1.43267 1.21559,-1.64974c1.43267,-0.21708 1.64974,1.21559 1.64974,1.21559c0.12824,0.84642 0.25648,1.69281 0.38472,2.53922c0.16808,-0.0682 0.35187,-0.10574 0.54444,-0.10574c0.65099,0 1.20173,0.42929 1.38453,1.02024l0.8798,2.62492c1.83165,3.34205 3.65474,6.68877 5.47967,10.03451c3.96232,7.26561 5.90992,15.84525 8.45405,23.67189c1.08937,3.35128 0.47574,7.20579 1.19182,10.55612c0.78797,3.68673 4.03126,5.79543 5.66915,8.92027c1.72187,3.28511 2.98343,7.12458 4.67696,10.51755c2.71615,7.27523 5.47536,13.94942 9.21493,20.74607c0.97077,1.76438 1.97073,5.31099 3.9213,6.31414c1.66332,0.85543 5.2465,-2.09373 6.67959,-2.39717c6.46061,-1.36788 14.48631,0.54928 20.56013,2.53245c7.71168,1.98943 15.09127,4.012 21.93064,8.29433c10.91059,6.83148 18.38925,17.85217 24.89689,28.6547c7.08507,11.76107 10.15744,25.0043 13.68542,38.16818c1.74559,6.5133 4.38835,13.1445 5.0497,19.85265c0.10118,1.04847 0.73469,6.33951 0.15424,6.91767c-0.98306,0.97915 -2.77202,0.32742 -4.15609,0.23018c-3.5973,-0.25276 -7.68122,-1.88223 -11.14942,-2.87298c-3.68978,-1.05408 -6.97837,-1.38937 -10.71658,-2.01266c-9.57664,-1.5968 -18.26141,-4.10771 -28.08855,-4.23712c-4.90902,-0.06466 -9.84479,-0.27719 -14.67993,-1.24539c-3.74509,-0.74992 -7.32403,-2.68391 -11.04206,-3.33382c-2.49192,-0.43559 -5.561,0.01876 -8.09017,0.01889c-5.34672,0.00023 -11.8732,-1.01442 -17.10392,0.05469c-3.16189,0.64626 -5.41632,1.10437 -8.77068,1.10437c-4.66243,-0.00008 -9.4042,0.09758 -14.0569,-0.20212c-7.44779,-0.47973 -15.26213,-1.87331 -22.74545,-0.83869c-2.80263,0.38747 -5.52743,1.7181 -8.30636,2.26816c-4.78765,0.9477 -9.69438,1.30758 -14.50152,2.24754c-1.14175,-0.18858 -2.61202,0.25757 -3.42525,-0.56572c-0.89613,-0.90725 -0.59491,-2.48138 -0.82376,-3.73588c-0.71557,-3.92285 -0.68703,-7.72985 -0.80399,-11.68871c-0.14891,-5.04001 -2.20491,-8.83925 -3.525,-13.58481c-2.5844,-9.29062 -3.65229,-18.94313 -6.31212,-28.25256c-5.56383,-19.47346 -10.9339,-39.06642 -15.09554,-58.8959c-2.37067,-11.29834 -5.70854,-22.82683 -6.32467,-34.39013c-0.46988,-8.81868 0.68445,-17.4967 1.69581,-26.22993c0.20107,-1.73619 0.09956,-8.18464 1.14041,-9.37862c2.50263,-2.87087 6.68391,-0.42209 9.6095,-0.26731c4.12802,0.21838 8.1715,1.00576 12.21019,1.83728c1.07614,-0.81906 2.74651,0.49557 4.08936,0.82226c0.10773,0.02621 0.21522,0.05218 0.32252,0.07792c1.16926,0.22951 2.34055,0.44674 3.51576,0.63904c4.27085,0.69879 8.56734,0.99032 12.79444,1.87074c3.18016,0.42067 6.34231,0.94941 9.31913,1.81875c1.828,-0.49909 3.65212,-0.98818 5.47286,-1.44493zM295.59982,32.89924c-2.79049,0.7939 -5.61864,1.48116 -8.43232,2.18704c-1.39341,0.34956 -2.79062,0.71786 -4.19133,1.09625c2.95553,1.26129 5.76979,2.68172 8.82316,3.63679c0.42395,-0.51621 1.15213,-0.51621 1.15213,-0.51621l0.12139,0.07437c0.82499,-0.2667 3.38338,-1.34573 4.62647,-0.62371c-0.30741,-2.02882 -0.61479,-4.05763 -0.92219,-6.08645c-0.40073,0.06377 -0.80226,0.12523 -1.1773,0.23192z" data-paper-data="{&quot;index&quot;:null}" fill="#d221e7" stroke="none" stroke-width="1" stroke-linecap="butt"/><path d="M119.00291,99.62523c1.28808,0.93546 0.6244,2.75098 0.6244,2.75098l-0.62281,1.70374c4.43861,-1.14992 8.82935,-6.45811 12.91515,-8.76692c4.72471,-2.66984 9.1602,-2.80465 13.98759,-4.05266c2.93602,-0.75903 4.84444,-3.95341 7.5707,-5.26101c3.78216,-1.81406 8.41781,-1.51236 12.23538,-0.42713c6.34867,1.85613 13.37965,0.75507 19.86047,0.75507c3.21756,0 7.04912,0.85138 10.20084,0.02637c3.05543,-0.79982 5.5329,-1.81249 8.75332,-1.63851c1.28506,0.06943 2.85584,-0.70606 3.8446,0.45295c0.98582,1.15558 0.71807,3.4719 1.00601,5.23297c1.05895,6.47643 1.97908,13.39153 1.98779,20.02609c0,5.32775 0.54456,11.3603 -0.014,16.6222c-0.60099,5.66164 -3.78732,9.81957 -5.45508,14.92124c-1.14349,3.49793 -2.52442,7.40934 -3.42477,11.04056c-0.36093,1.45567 -0.99804,6.81096 -1.38316,8.07687c-0.75996,2.49809 -2.40431,4.33256 -3.15075,6.83872c-0.74321,2.49529 -0.54892,5.40523 -1.24731,7.92611c-1.3801,4.98149 -3.64805,9.62625 -5.1082,14.66012c-3.26233,11.24693 -6.39482,22.63493 -8.61748,34.39493c-1.43583,7.59702 -3.04862,15.8625 -3.77765,23.65287c-0.15224,1.62688 -0.06168,6.75352 -0.24775,8.2484c-0.65714,5.27939 -2.39241,10.72547 -3.53996,15.84163c-4.32584,19.28583 -8.73464,38.20041 -11.94286,57.89322c-1.25958,7.73163 -2.94388,15.56291 -3.26799,23.47964c-0.84823,0.85178 -1.90314,1.39895 -2.54471,2.55532c-0.65845,1.18671 -0.36722,3.2453 -1.19878,4.19183c-0.85566,0.97399 -2.14767,0.71094 -3.24221,0.86332c-3.80358,0.52954 -7.85552,0.00481 -11.68011,0.00376c-5.74389,-0.00159 -11.8694,-0.4483 -17.55712,-1.65132c-2.84446,-0.60164 -5.608,-2.12573 -8.45902,-2.64541c-4.79851,-0.87465 -9.49905,-0.0033 -14.24171,-1.6566c-5.4125,-1.90719 -11.15447,-4.63643 -16.70325,-5.49631c-8.43291,-1.30681 -16.97276,-0.03804 -25.47661,-1.63119c-0.15584,-0.02919 -5.85739,-1.37172 -5.933,-1.40284c-1.82282,-0.75031 -3.37767,-2.60327 -5.23297,-3.17387c-1.79906,-0.55332 -3.68213,-0.09875 -5.5229,-0.16626c-3.77032,-0.14286 -7.3642,-1.3955 -11.104,-1.78826c-4.44299,-0.46662 -8.68367,1.33896 -13.10169,1.52613c-0.77845,0.03297 -5.85536,0.27643 -6.35756,-0.47423c-2.12511,-3.1764 0.24613,-5.99446 0.78924,-8.58239c0.76553,-3.64772 0.62499,-8.10909 1.03279,-11.87581c0.72958,-6.73917 1.72035,-13.4445 2.57913,-20.15368c0.66988,-5.23331 1.68649,-10.61762 2.04157,-15.90903c0.42681,-6.36037 -0.74894,-13.40089 0.10657,-19.66236c0.54489,-3.98785 2.50954,-7.60001 3.25182,-11.51836c1.59154,-8.40153 0.03918,-17.29528 4.93994,-23.97152c2.15056,-2.92966 5.56798,-3.8908 8.20135,-5.65582c7.18086,-4.74387 15.52593,-3.80853 23.2839,-3.80853c7.98135,0 16.38214,-1.0844 22.71007,6.66141c3.61451,4.42438 8.08575,7.37091 9.07471,14.54098c1.66322,-2.06143 1.90457,-4.7197 2.41676,-7.66215c0.92072,-5.28939 1.85325,-10.57479 2.77988,-15.86215c3.19977,-18.25815 6.23553,-36.56854 9.13626,-54.92549c0.67423,-3.80189 1.70054,-7.82075 2.08364,-11.70017c0.79895,-8.09096 0.41665,-16.66281 2.20817,-24.60381c0.57835,-2.5636 1.97167,-4.68261 2.47459,-7.27761c0.24141,-1.24567 0.09312,-7.68121 0.28688,-8.28255c0.44613,-1.38448 1.73578,-1.85573 2.41456,-3.03764c1.15299,-2.00765 1.68758,-4.58575 2.5269,-6.88187l0.87874,-2.40385c0,0 0.6637,-1.81552 1.95178,-0.88006z" data-paper-data="{&quot;index&quot;:null}" fill="#d221e7" stroke="none" stroke-width="1" stroke-linecap="butt"/><g><path d="M210.81283,78.6713l-0.89156,-4.40069l-9.33334,-45.06045c0,0 9.35398,-8.91248 15.10812,-10.48977c5.52499,-1.51447 18.75722,1.2068 18.75722,1.2068l10.80482,53.93665l-33.74711,4.9695l-1.29026,0.80416z" data-paper-data="{&quot;index&quot;:null}" fill="none" stroke="#000000" stroke-width="0" stroke-linecap="round"/><path d="M-161.67987,86.65115l4.82683,2.08137l14.22636,-3.43038l114.96694,-66.90552l-0.9652,-7.21957l137.1718,-18.33907l4.81876,14.36784l60.3262,-31.30326l-14.04955,-35.55907l178.24921,-98.43228l86.13611,242.13959l-132.83837,36.02731l-2.56379,-7.28708l-83.99327,23.56678l-158.44269,87.24089l-195.20897,43.16763l-42.79454,-120.87053l4.92259,-1.91849l-12.22714,-35.81395z" fill="url(#color-1)" stroke="#000000" stroke-width="1" stroke-linecap="round"/><path d="M-186.84229,143.5868l-17.45505,8.19358l-3.42198,-4.95336l19.11538,-8.77773z" fill="url(#color-2)" stroke="#000000" stroke-width="1" stroke-linecap="round"/><path d="M-189.49599,190.93352l42.77813,-15.23708l37.25652,-105.84061l114.80314,42.31299l151.55116,-45.48321l34.39738,-50.72502l66.54311,13.06572l136.3041,-53.55302l0.59628,9.11947l-2.88098,0.827l-139.05739,51.16316l-57.20611,-13.97178l-32.54946,48.02245l-158.53382,49.89904l-108.56314,-41.14984l-34.87733,99.07948l-48.35563,17.94573z" fill="url(#color-3)" stroke="url(#color-4)" stroke-width="1" stroke-linecap="round"/><path d="M-161.66491,86.54314l-45.65933,26.13977l-6.56739,-3.28696l53.74891,-31.78468l15.17956,2.30941l109.48867,-65.20274l-4.52267,-7.55149l158.17036,-20.57058l-0.58123,5.24228l-145.91935,19.99207l0.3934,6.95182l-115.04308,66.78375l-15.19507,3.48019z" fill="url(#color-5)" stroke="url(#color-6)" stroke-width="1" stroke-linecap="round"/><path d="M110.55233,-0.46075l5.56513,-0.09211l55.40609,-29.19577l3.15755,5.79273l-61.98899,31.69841z" fill="url(#color-7)" stroke="#000000" stroke-width="1" stroke-linecap="round"/><path d="M146.11441,-59.01228l201.3607,-114.31843l1.21122,9.27628l-197.42347,109.20152z" fill="url(#color-8)" stroke="#000000" stroke-width="1" stroke-linecap="round"/><path d="M274.79734,-15.56522l-23.90946,-64.776l1.10088,-7.47754l8.17269,-10.71193l7.12414,-6.79793l6.5737,-3.05916l10.41087,-3.28966l9.67599,-0.6055l11.76365,1.08562l27.04542,72.62877z" fill="#fbfafa" stroke="#000000" stroke-width="1" stroke-linecap="round"/><path d="M277.74616,-25.74535l-21.45524,-58.59587l5.66062,-7.77569l5.83587,-7.2776l7.82513,-4.8055l10.0204,-3.33888l14.25414,0.20939l22.59737,63.6983z" fill="#465979" stroke="#000000" stroke-width="1" stroke-linecap="round"/><path d="M241.29708,-3.12587l-37.2806,14.42241l-16.27934,-45.21021l36.56121,-17.52783z" fill="#fbfafa" stroke="#000000" stroke-width="1" stroke-linecap="round"/><path d="M236.0303,-8.54969l-29.50784,13.18043l-13.77065,-34.89774l30.17197,-13.4141z" fill="#272b2b" stroke="#000000" stroke-width="1" stroke-linecap="round"/><path d="M190.52627,16.04276l-45.62226,18.29016l-13.68145,-36.23519l43.10727,-22.25653z" fill="#fbfafa" stroke="#000000" stroke-width="1" stroke-linecap="round"/><path d="M187.51634,9.07859l-39.3438,17.5739l-10.68386,-26.65448l39.59902,-18.96978z" fill="#272b2b" stroke="#000000" stroke-width="1" stroke-linecap="round"/><path d="M-74.17595,216.55184l-19.13852,-56.51889l3.0533,-7.23155l8.70763,-8.66111l5.84194,-3.54802l9.59912,-1.88457l13.28558,2.22942l11.4008,2.70594l21.87482,63.76593l-53.84685,12.41429z" fill="#fbfafa" stroke="#000000" stroke-width="1" stroke-linecap="round"/><path d="M-69.34257,215.97083l-16.44222,-48.32484l2.55521,-7.0563l4.74125,-6.14615l5.64828,-5.15916l7.84354,-3.6925l6.46294,0.33835l14.38625,4.82753l18.28767,53.0399l-44.755,10.14847z" fill="#161c21" stroke="#000000" stroke-width="1" stroke-linecap="round"/><path d="M-159.66054,238.74439l175.23364,-39.82145l182.0666,-87.75225l7.81523,24.86499l-160.70076,88.81808l-194.336,42.06414z" fill="#453e3c" stroke="#000000" stroke-width="1" stroke-linecap="round"/><path d="M-99.02263,256.82644l-4.34989,0.36424l-33.95366,6.90803l-23.92856,-70.1336l37.5235,-13.20177z" fill="#fbfafa" stroke="#000000" stroke-width="1" stroke-linecap="round"/><path d="M-98.3385,256.11928l-33.52319,6.01022l-21.41514,-64.5807l31.5555,-10.54233z" fill="url(#color-9)" stroke="#000000" stroke-width="1" stroke-linecap="round"/><path d="M-117.33864,197.87244l-28.86819,8.10418l-2.12136,-7.09022l27.50309,-9.86292z" fill="#161c21" stroke="#000000" stroke-width="1" stroke-linecap="round"/><path d="M62.96004,214.34356l-31.2466,-89.34272l91.57029,-30.35103l27.05082,72.11375z" fill="#fbfafa" stroke="#000000" stroke-width="1" stroke-linecap="round"/><path d="M68.13626,212.61573l-28.65252,-81.43924l79.57908,-28.37123l24.49742,67.50785z" fill="url(#color-10)" stroke="#000000" stroke-width="1" stroke-linecap="round"/><path d="M117.82733,113.08228l-75.34219,28.74643l-2.70552,-8.75056l75.32063,-26.6864z" fill="#161c21" stroke="#000000" stroke-width="1" stroke-linecap="round"/><path d="M179.88705,150.39547l-21.9103,11.44034l-28.41436,-75.45904l23.13702,-7.95364z" fill="#0a0c0a" stroke="#000000" stroke-width="1" stroke-linecap="round"/><path d="M180.41437,150.30324l-22.24238,11.55716l-23.9272,-61.64445l23.5183,-8.46096z" fill="#592d2a" stroke="#000000" stroke-width="1" stroke-linecap="round"/><path d="M157.94876,71.865l34.43961,-14.5424l24.8634,62.71446l-39.97399,13.13102z" fill="#fbfafa" stroke="#000000" stroke-width="1" stroke-linecap="round"/><path d="M162.68061,75.23802l27.71831,-10.31181l19.01563,52.45726l-29.4247,8.11338l-16.37146,-50.77535z" fill="#0a0c0a" stroke="#000000" stroke-width="1" stroke-linecap="round"/><path d="M239.0018,127.49822l-27.54734,-73.52502l7.6438,-9.03321l9.57464,-6.72715l7.18864,-2.90233l9.11025,-1.15281l7.60359,1.98948l2.9886,-1.05147l27.00837,80.47838z" fill="#fbfafa" stroke="#000000" stroke-width="1" stroke-linecap="round"/><path d="M243.4993,125.96253l-18.03472,-57.0938l37.5819,-13.03574l19.12617,59.13543z" fill="#281b1a" stroke="#000000" stroke-width="1" stroke-linecap="round"/><path d="M256.52672,122.68522l-19.83951,-58.51129l20.77256,-6.18883l19.50744,58.62811z" fill="#592d2a" stroke="#000000" stroke-width="1" stroke-linecap="round"/><path d="M234.47645,68.49689l5.95831,16.93537l-6.02639,2.49341l-5.35262,-17.33507z" fill="#292c26" stroke="#000000" stroke-width="1" stroke-linecap="round"/><path d="M242.97177,67.18724l12.66771,-4.83001l4.65477,12.16962l-13.1474,6.11829z" fill="#292c26" stroke="#000000" stroke-width="1" stroke-linecap="round"/><path d="M268.12546,73.45092l-2.70572,1.32511l-4.35957,-14.5125l2.38287,-0.65177z" fill="#292c26" stroke="#000000" stroke-width="1" stroke-linecap="round"/><path d="M259.91276,50.63825l-37.83712,14.43164l-2.6163,-10.08803l11.73621,-10.65958l7.11179,-4.18139l10.4293,-2.17663l8.08327,0.7012z" fill="#1a1a1a" stroke="#000000" stroke-width="1" stroke-linecap="round"/><path d="M348.20435,1.28957l28.31595,76.23997l-61.73506,19.29445l-26.2683,-73.60186z" fill="#fbfafa" stroke="#000000" stroke-width="1" stroke-linecap="round"/><path d="M297.91159,23.27537l44.77974,-15.38155l24.97327,65.14806l-47.61152,15.81808l-22.18306,-63.05106z" fill="#292c26" stroke="#000000" stroke-width="1" stroke-linecap="round"/><path d="M-158.58399,87.91006l16.48861,48.78103l-36.24069,17.01821l-15.08218,-44.7835z" fill="#f6f7f3" stroke="#000000" stroke-width="1" stroke-linecap="round"/><path d="M-188.67314,112.19793l28.48258,-16.08562l12.40995,37.18816l-28.65649,13.67602z" fill="#4e5959" stroke="#000000" stroke-width="1" stroke-linecap="round"/><path d="M-52.46469,-41.79078c-0.37192,-0.05945 -2.00757,-0.43806 -1.83591,-2.48261c0.1935,-2.30504 2.29718,-2.11752 2.29718,-2.11752l1.00446,0.2272c5.82568,2.91799 11.47079,6.03178 17.13608,9.30013c6.95737,4.02315 14.6144,6.12991 21.78593,9.62957c14.60274,7.12606 27.90851,17.04316 42.57963,24.08915c0,0 1.92697,0.92545 1.06121,3.04489c-0.86574,2.11943 -2.79275,1.19397 -2.79275,1.19397c-14.68606,-7.05325 -28.00499,-16.98402 -42.62262,-24.11016c-7.25361,-3.53612 -14.96684,-5.69509 -22.01195,-9.75055c-5.49146,-3.16804 -10.9612,-6.18862 -16.60128,-9.02412z" data-paper-data="{&quot;index&quot;:null}" fill="#000000" stroke="none" stroke-width="1" stroke-linecap="butt"/><path d="M76.47743,-83.69516c2.07894,0.68989 1.56401,2.86889 1.56401,2.86889l-0.47751,1.9913c-0.46009,1.43943 -0.92023,2.87891 -1.38034,4.31837c-9.38595,23.09324 -16.33664,48.53465 -30.97754,68.38668c0,0 -1.28415,1.73809 -2.99828,0.25386c-1.71412,-1.48425 -0.42996,-3.22235 -0.42996,-3.22235c14.41364,-19.47096 21.15719,-44.63223 30.39705,-67.29877c0.44148,-1.38489 0.88304,-2.76976 1.32457,-4.15468l0.38408,-1.65418c0,0 0.51496,-2.179 2.59392,-1.48913z" data-paper-data="{&quot;index&quot;:null}" fill="#000000" stroke="none" stroke-width="1" stroke-linecap="butt"/><path d="M15.35525,15.50041c3.42929,0.79459 4.4205,2.67928 6.64441,5.32782c4.03201,4.80185 6.89545,9.36427 9.311,15.17691c2.4,7.68044 5.83273,18.70878 0.90656,25.83999c-5.44438,4.53588 -11.56753,8.50387 -18.97566,6.55379c-2.42331,-0.6379 -4.92196,-2.77165 -6.98362,-4.17552c-5.99054,-7.18603 -8.84912,-16.75056 -9.71256,-25.92854c-0.71016,-4.61465 -1.07107,-9.09822 -1.13326,-13.76183c-0.03454,-2.59006 -0.21586,-4.88442 1.83318,-6.60469l0.46569,-0.54288c0,0 0.10822,-0.13045 0.15969,-0.31835c5.36666,-3.22309 11.21165,-2.49892 17.48457,-1.5667z" data-paper-data="{&quot;noHover&quot;:false,&quot;origItem&quot;:[&quot;Path&quot;,{&quot;applyMatrix&quot;:true,&quot;segments&quot;:[[[463.02145,118.92474],[11.94148,-3.76279],[-0.18782,0.34138]],[462.56327,119.46889],[[461.40637,120.30632],[0,0],[-4.78797,2.38894]],[[454.7767,132.28436],[1.14195,-5.05316],[-2.05618,9.09862]],[[450.59007,159.5336],[0.77318,-9.30587],[-2.60543,18.25199]],[[457.33707,214.37126],[-8.29546,-16.77166],[3.35404,3.69263]],[[468.94246,225.73925],[-4.41495,-2.37184],[13.49664,7.25079]],[[508.8316,221.85864],[-12.70549,6.27955],[12.90926,-11.56875]],[[519.07651,171.27858],[1.08192,16.05697],[-1.9841,-12.43181]],[[508.09898,137.49402],[5.59959,11.22069],[-3.08854,-6.18895]],[[497.69355,124.0439],[6.29819,3.14621],[-11.7641,-4.74133]]],&quot;closed&quot;:true}]}" fill="#ffffff" stroke="none" stroke-width="0.5" stroke-linecap="butt"/><path d="M67.9283,7.45327c2.99529,-0.39733 4.47344,1.92245 5.972,4.17605c3.47918,5.2321 5.09765,11.58292 6.30123,17.66039c1.61363,8.14163 6.96695,17.33135 2.10838,25.17517c-4.1296,8.04057 -16.95283,5.62365 -23.61666,3.41966c-3.09216,-1.46823 -2.9301,-4.33184 -3.83905,-7.34217c-1.66909,-5.52785 -3.05006,-11.14309 -3.91274,-16.84783c-0.84432,-5.56002 -2.87197,-11.22352 -3.08478,-16.8282c-0.034,-0.89542 -0.91645,-4.45637 -0.24979,-5.115c0.00992,-0.00979 0.01999,-0.01946 0.03014,-0.02894c0.33043,-0.18953 0.66685,-0.37461 1.00584,-0.55267c0.24941,-0.10147 0.49945,-0.2057 0.72018,-0.35081l0.12231,-0.07612c5.64884,-2.75613 12.34895,-3.96348 18.44296,-3.28953z" data-paper-data="{&quot;noHover&quot;:false,&quot;origItem&quot;:[&quot;Path&quot;,{&quot;applyMatrix&quot;:true,&quot;segments&quot;:[[[566.35295,130.72043],[12.27227,-2.72292],[0,0]],[[566.08002,130.81116],[0,0],[-0.49701,0.17916]],[[564.51821,131.15611],[0.53239,-0.0809],[-0.7424,0.18804]],[[562.30763,131.75969],[0.73107,-0.21435],[-0.02414,0.0137]],[[562.23565,131.80185],[0.02385,-0.01442],[-1.60395,0.96966]],[[560.34435,141.85964],[0.35189,-1.75725],[-2.20257,10.99907]],[[558.52911,175.96742],[0.95361,-11.20702],[-0.98546,11.49706]],[[558.25012,210.46726],[-0.66539,-11.52947],[0.36236,6.27868]],[[562.26585,226.51965],[-5.32806,-4.29887],[11.93061,7.39711]],[[609.69817,230.88926],[-11.78467,13.70908],[13.11047,-12.98617]],[[617.29234,181.04419],[-0.66268,16.58674],[0.49649,-12.38105]],[[613.32811,143.83386],[4.32361,11.79936],[-1.86229,-5.08228]],[[603.68782,132.93587],[6.0106,0.62561],[-11.53671,-4.15555]]],&quot;closed&quot;:true}]}" fill="#ffffff" stroke="none" stroke-width="0.5" stroke-linecap="butt"/><path d="M25.52625,39.52595c-0.3545,-1.47683 0.5553,-2.96142 2.03214,-3.31594c1.47683,-0.3545 2.96143,0.55531 3.31594,2.03214c0.35451,1.47683 -0.5553,2.96142 -2.03214,3.31593c-1.47683,0.3545 -2.96142,-0.5553 -3.31594,-2.03214z" fill="#000000" stroke="none" stroke-width="0.5" stroke-linecap="butt"/><path d="M73.98244,31.65565c-0.35451,-1.47683 0.5553,-2.96142 2.03214,-3.31593c1.47683,-0.3545 2.96143,0.55531 3.31594,2.03214c0.35451,1.47683 -0.55531,2.96143 -2.03215,3.31593c-1.47683,0.3545 -2.96143,-0.55531 -3.31593,-2.03215z" fill="#000000" stroke="none" stroke-width="0.5" stroke-linecap="butt"/><path d="M18.76572,134.69807c-0.70637,0.25207 -0.95844,-0.4543 -0.95844,-0.4543l-0.04317,-0.12097c-2.39517,-6.71184 -4.52753,-13.51983 -7.08427,-20.17388c-3.02758,-7.88096 -5.87884,-15.37448 -0.16667,-22.83486c1.41859,-1.85275 3.44418,-3.27638 5.10565,-4.90096c3.75852,-3.66693 8.77495,-6.05404 13.38859,-8.46898c3.88556,-2.03385 7.52668,-4.33082 11.69098,-5.77774c2.42687,-0.84301 4.81685,-1.30488 7.28912,-1.92458c2.55121,-0.63948 4.78691,-2.14138 7.33815,-2.82915c4.44902,-1.19937 9.21516,-2.10457 13.82315,-1.97539c10.25346,0.31625 17.86669,5.1273 23.73504,13.32735c3.46348,4.84842 6.41261,11.15636 7.78834,16.97655c0.40245,1.70263 1.27692,3.34457 1.33175,5.08987c0,0 0.01576,0.74983 -0.73407,0.7656c-0.74983,0.01576 -0.7656,-0.73407 -0.7656,-0.73407c-0.01113,-1.58305 -0.92488,-3.2238 -1.29185,-4.77635c-1.32975,-5.62561 -4.19208,-11.76611 -7.54845,-16.44874c-5.57925,-7.79871 -12.77194,-12.45513 -22.55732,-12.7008c-4.46196,-0.12594 -9.08343,0.76317 -13.39054,1.92428c-2.55271,0.68816 -4.78557,2.18575 -7.34268,2.83036c-2.43721,0.61439 -4.78926,1.06018 -7.18272,1.89198c-4.09183,1.42167 -7.66893,3.69027 -11.48758,5.68973c-4.47421,2.34272 -9.39649,4.64745 -13.03573,8.21268c-1.60464,1.56833 -3.59745,2.94595 -4.96201,4.73864c-5.34057,7.01617 -2.46213,14.00223 0.37469,21.38664c2.56022,6.66567 4.69755,13.48444 7.09678,20.20765l0.04317,0.12097c0,0 0.25207,0.70637 -0.4543,0.95844z" fill="#000000" stroke="none" stroke-width="0.5" stroke-linecap="butt"/><path d="M-6.31724,32.12146c-0.25207,-0.70637 0.4543,-0.95844 0.4543,-0.95844l0.10528,-0.02858c-0.17152,-2.16367 -0.26905,-4.33524 -0.29215,-6.54992c-0.0217,-2.08056 -0.0599,-3.95986 0.68737,-5.60046l0.00002,-0.00001c-0.0764,-0.04391 -0.15306,-0.10732 -0.22756,-0.19589c-0.48273,-0.574 0.09128,-1.05672 0.09128,-1.05672c6.57268,-5.41008 13.29981,-4.77538 21.13084,-3.65503c3.23169,0.75132 3.85655,1.6341 5.91075,4.18703c1.87468,2.32984 4.03468,4.50427 5.91158,6.8247c2.4206,2.99259 3.76755,6.92822 5.21822,10.41938c2.60297,8.31154 6.00584,19.64224 0.61997,27.31086c-5.79167,4.91091 -12.52225,9.15086 -20.44663,6.97677c-2.65803,-0.72924 -5.33304,-2.94215 -7.57976,-4.50865c-6.27447,-7.40647 -9.26603,-17.27407 -10.16008,-26.79957c-0.30453,-1.97314 -0.54945,-3.92042 -0.73442,-5.86757c-0.22725,0.00361 -0.53878,-0.07699 -0.68899,-0.49791zM29.09353,32.14788c-4.21092,-1.08273 -9.92835,-1.31433 -14.32309,-1.02168c-3.16638,0.21085 -6.50462,1.25451 -9.65826,0.89153c-2.82214,-0.5185 -6.24032,0.20769 -9.24285,0.44788c0.18202,1.9359 0.42313,3.87222 0.72548,5.83682c0.86343,9.17797 3.68978,18.68797 9.68032,25.874c2.06166,1.40387 4.54583,3.53464 6.96914,4.17254c7.40813,1.95008 13.49636,-2.00622 18.94074,-6.5421c4.92616,-7.13121 1.47784,-18.10666 -0.92215,-25.7871c-0.56307,-1.35495 -1.14881,-2.64021 -1.76712,-3.87546c-0.21094,0.05142 -0.40221,0.00355 -0.40221,0.00355z" fill="#000000" stroke="none" stroke-width="0.5" stroke-linecap="butt"/><path d="M79.53316,17.16747c0.25207,0.70637 -0.4543,0.95844 -0.4543,0.95844l-0.12097,0.04317c-0.05856,0.01871 -0.11843,0.03893 -0.17954,0.0606c1.2773,3.49985 2.1315,7.17479 2.847,10.78388c1.71398,8.65226 7.03663,17.78681 1.95806,26.15274c-4.66918,8.73894 -17.92675,6.57532 -25.43968,4.06028c-3.66132,-1.79376 -3.61252,-4.69057 -4.69066,-8.27011c-1.6877,-5.60331 -3.07051,-11.25604 -3.94474,-17.0372c-0.07113,-0.47253 -0.15078,-0.94541 -0.23713,-1.41862c-0.13427,-0.06045 -0.26383,-0.17645 -0.35854,-0.3852c-0.17622,-0.38842 -0.03133,-0.65616 0.12643,-0.81486c-0.96867,-4.76113 -2.46044,-9.55249 -2.64461,-14.34201c-0.04155,-1.08046 -0.45505,-2.71705 -0.43708,-4.13744c-0.0407,0.0272 -0.08131,0.05451 -0.12183,0.08189c0,0 -0.62137,0.41998 -1.04136,-0.2014c-0.41998,-0.62137 0.20139,-1.04137 0.20139,-1.04137c0.5632,-0.38065 1.14335,-0.74463 1.73834,-1.09135c0.25659,-0.22136 0.57643,-0.36764 0.90349,-0.50716c0.37921,-0.20496 0.76375,-0.40313 1.15311,-0.59437l0.10274,-0.06413c0,0 0.08636,-0.05381 0.21527,-0.09001l-0.00001,0.00001c5.7932,-2.77086 12.61116,-4.02042 18.80992,-3.3101c3.54277,-0.39457 5.43346,2.15402 7.21409,4.84228c1.24905,1.88572 2.26501,3.90146 3.11133,5.99346c0.07143,-0.02894 0.14141,-0.05648 0.20985,-0.08256l0.12097,-0.04317c0,0 0.70637,-0.25207 0.95844,0.4543zM71.95741,22.56016c-3.69227,1.3666 -7.48386,2.21742 -11.05702,3.9556c-3.47433,1.69011 -6.68783,3.89793 -10.17984,5.59012c0.09941,0.53029 0.1906,1.06002 0.27094,1.58912c0.86268,5.70475 2.22169,11.27814 3.89077,16.80598c0.90895,3.01032 0.7337,5.86758 3.82585,7.33582c6.66383,2.20399 19.44141,4.62928 23.57101,-3.41129c4.85856,-7.84382 -0.51151,-16.97878 -2.12513,-25.1204c-0.69178,-3.49314 -1.51035,-7.06607 -2.74204,-10.46655c-1.91387,0.98593 -4.25546,2.63441 -5.45454,3.72159z" fill="#000000" stroke="none" stroke-width="0.5" stroke-linecap="butt"/></g></g></g></svg>