<svg version="1.1" xmlns="http://www.w3.org/2000/svg" xmlns:xlink="http://www.w3.org/1999/xlink" width="2878.25006" height="1619.57958" viewBox="0,0,2878.25006,1619.57958"><defs><linearGradient x1="-16.458" y1="181.51146" x2="570.93486" y2="52.18633" gradientUnits="userSpaceOnUse" id="color-1"><stop offset="0" stop-color="#ff00e1"/><stop offset="1" stop-color="#00b8ff"/></linearGradient><linearGradient x1="-36.38644" y1="162.21323" x2="-15.93121" y2="157.70964" gradientUnits="userSpaceOnUse" id="color-2"><stop offset="0" stop-color="#45ff00"/><stop offset="1" stop-color="#ff00e1"/></linearGradient><linearGradient x1="-32.85324" y1="166.39154" x2="574.65787" y2="32.63702" gradientUnits="userSpaceOnUse" id="color-3"><stop offset="0" stop-color="#feff00"/><stop offset="1" stop-color="#03ff51"/></linearGradient><linearGradient x1="-32.85324" y1="166.39154" x2="574.65787" y2="32.63702" gradientUnits="userSpaceOnUse" id="color-4"><stop offset="0" stop-color="#feff00"/><stop offset="1" stop-color="#03ff51"/></linearGradient><linearGradient x1="-41.98472" y1="106.08923" x2="303.73412" y2="29.973" gradientUnits="userSpaceOnUse" id="color-5"><stop offset="0" stop-color="#45ff00"/><stop offset="1" stop-color="#ff00e1"/></linearGradient><linearGradient x1="-41.98472" y1="106.08923" x2="303.73412" y2="29.973" gradientUnits="userSpaceOnUse" id="color-6"><stop offset="0" stop-color="#45ff00"/><stop offset="1" stop-color="#ff00e1"/></linearGradient><linearGradient x1="296.40981" y1="53.39278" x2="363.79169" y2="38.55743" gradientUnits="userSpaceOnUse" id="color-7"><stop offset="0" stop-color="#45ff00"/><stop offset="1" stop-color="#ff00e1"/></linearGradient><linearGradient x1="335.58175" y1="-18.35536" x2="558.13957" y2="-67.35548" gradientUnits="userSpaceOnUse" id="color-8"><stop offset="0" stop-color="#45ff00"/><stop offset="1" stop-color="#ff00e1"/></linearGradient><linearGradient x1="17.78265" y1="253.42059" x2="51.47358" y2="246.00291" gradientUnits="userSpaceOnUse" id="color-9"><stop offset="0" stop-color="#ff0000"/><stop offset="1" stop-color="#45ff00"/></linearGradient><linearGradient x1="219.7172" y1="216.75578" x2="302.91318" y2="198.43869" gradientUnits="userSpaceOnUse" id="color-10"><stop offset="0" stop-color="#0030ff"/><stop offset="1" stop-color="#ff0303"/></linearGradient></defs><g transform="translate(1117.37278,629.80931)"><g data-paper-data="{&quot;isPaintingLayer&quot;:true}" fill-rule="nonzero" stroke-linejoin="miter" stroke-miterlimit="10" stroke-dasharray="" stroke-dashoffset="0" style="mix-blend-mode: normal"><path d="M-1117.37278,989.77027v-1619.57958h2878.25006v1619.57958z" fill="none" stroke="#000000" stroke-width="0" stroke-linecap="butt"/><path d="M-1117.37278,989.77027v-1619.57958h2878.25006v1619.57958z" fill="none" stroke="#000000" stroke-width="0" stroke-linecap="butt"/><path d="M490.05315,168.74211c2.80575,-0.70388 5.61021,-1.40736 8.40737,-2.1448c1.39913,-0.36886 3.00903,-0.25388 4.32045,-0.79467c-0.26772,-1.76696 -0.53544,-3.53391 -0.80316,-5.30086c0,0 -0.21708,-1.43267 1.21559,-1.64974c1.43267,-0.21708 1.64974,1.21559 1.64974,1.21559c0.12824,0.84642 0.25648,1.69281 0.38472,2.53922c0.16808,-0.0682 0.35187,-0.10574 0.54444,-0.10574c0.65099,0 1.20173,0.42929 1.38453,1.02024l0.8798,2.62492c1.83165,3.34205 3.65474,6.68877 5.47967,10.03451c3.96232,7.26561 5.90992,15.84525 8.45405,23.67189c1.08937,3.35128 0.47574,7.20579 1.19182,10.55612c0.78797,3.68673 4.03126,5.79543 5.66915,8.92027c1.72187,3.28511 2.98343,7.12458 4.67696,10.51755c2.71615,7.27523 5.47536,13.94942 9.21493,20.74607c0.97077,1.76438 1.97073,5.31099 3.9213,6.31414c1.66332,0.85543 5.2465,-2.09373 6.67959,-2.39717c6.46061,-1.36788 14.48631,0.54928 20.56013,2.53245c7.71168,1.98943 15.09127,4.012 21.93064,8.29433c10.91059,6.83148 18.38925,17.85217 24.89689,28.6547c7.08507,11.76107 10.15744,25.0043 13.68542,38.16818c1.74559,6.5133 4.38835,13.1445 5.0497,19.85265c0.10118,1.04847 0.73469,6.33951 0.15424,6.91767c-0.98306,0.97915 -2.77202,0.32742 -4.15609,0.23018c-3.5973,-0.25276 -7.68122,-1.88223 -11.14942,-2.87298c-3.68978,-1.05408 -6.97837,-1.38937 -10.71658,-2.01266c-9.57664,-1.5968 -18.26141,-4.10771 -28.08855,-4.23712c-4.90902,-0.06466 -9.84479,-0.27719 -14.67993,-1.24539c-3.74509,-0.74992 -7.32403,-2.68391 -11.04206,-3.33382c-2.49192,-0.43559 -5.561,0.01876 -8.09017,0.01889c-5.34672,0.00023 -11.8732,-1.01442 -17.10392,0.05469c-3.16189,0.64626 -5.41632,1.10437 -8.77068,1.10437c-4.66243,-0.00008 -9.4042,0.09758 -14.0569,-0.20212c-7.44779,-0.47973 -15.26213,-1.87331 -22.74545,-0.83869c-2.80263,0.38747 -5.52743,1.7181 -8.30636,2.26816c-4.78765,0.9477 -9.69438,1.30758 -14.50152,2.24754c-1.14175,-0.18858 -2.61202,0.25757 -3.42525,-0.56572c-0.89613,-0.90725 -0.59491,-2.48138 -0.82376,-3.73588c-0.71557,-3.92285 -0.68703,-7.72985 -0.80399,-11.68871c-0.14891,-5.04001 -2.20491,-8.83925 -3.525,-13.58481c-2.5844,-9.29062 -3.65229,-18.94313 -6.31212,-28.25256c-5.56383,-19.47346 -10.9339,-39.06642 -15.09554,-58.8959c-2.37067,-11.29834 -5.70854,-22.82683 -6.32467,-34.39013c-0.46988,-8.81868 0.68445,-17.4967 1.69581,-26.22993c0.20107,-1.73619 0.09956,-8.18464 1.14041,-9.37862c2.50263,-2.87087 6.68391,-0.42209 9.6095,-0.26731c4.12802,0.21838 8.1715,1.00576 12.21019,1.83728c1.07614,-0.81906 2.74651,0.49557 4.08936,0.82226c0.10773,0.02621 0.21522,0.05218 0.32252,0.07792c1.16926,0.22951 2.34055,0.44674 3.51576,0.63904c4.27085,0.69879 8.56734,0.99032 12.79444,1.87074c3.18016,0.42067 6.34231,0.94941 9.31913,1.81875c1.828,-0.49909 3.65212,-0.98818 5.47286,-1.44493zM502.00159,168.66083c-2.79049,0.7939 -5.61864,1.48116 -8.43232,2.18704c-1.39341,0.34956 -2.79062,0.71786 -4.19133,1.09625c2.95553,1.26129 5.76979,2.68172 8.82316,3.63679c0.42395,-0.51621 1.15213,-0.51621 1.15213,-0.51621l0.12139,0.07437c0.82499,-0.2667 3.38338,-1.34573 4.62647,-0.62371c-0.30741,-2.02882 -0.61479,-4.05763 -0.92219,-6.08645c-0.40073,0.06377 -0.80226,0.12523 -1.1773,0.23192z" data-paper-data="{&quot;index&quot;:null}" fill="#d221e7" stroke="none" stroke-width="1" stroke-linecap="butt"/><path d="M119.00291,175.81229c1.28808,0.66369 0.6244,1.95177 0.6244,1.95177l-0.62281,1.20877c4.43861,-0.81585 8.82935,-4.58191 12.91515,-6.21997c4.72471,-1.8942 9.1602,-1.98985 13.98759,-2.87529c2.93602,-0.53852 4.84444,-2.80487 7.5707,-3.73259c3.78216,-1.28704 8.41781,-1.07299 12.23538,-0.30304c6.34867,1.31689 13.37965,0.53571 19.86047,0.53571c3.21756,0 7.04912,0.60404 10.20084,0.01871c3.05543,-0.56746 5.5329,-1.28593 8.75332,-1.16249c1.28506,0.04926 2.85584,-0.50094 3.8446,0.32136c0.98582,0.81986 0.71807,2.46325 1.00601,3.7127c1.05895,4.59491 1.97908,9.50105 1.98779,14.20815c0,3.77994 0.54456,8.05993 -0.014,11.79315c-0.60099,4.01683 -3.78732,6.96681 -5.45508,10.58635c-1.14349,2.48172 -2.52442,5.25679 -3.42477,7.83308c-0.36093,1.03277 -0.99804,4.83225 -1.38316,5.73039c-0.75996,1.77235 -2.40431,3.07387 -3.15075,4.85195c-0.74321,1.77036 -0.54892,3.83491 -1.24731,5.62343c-1.3801,3.53428 -3.64805,6.82965 -5.1082,10.40109c-3.26233,7.97949 -6.39482,16.05907 -8.61748,24.40258c-1.43583,5.38995 -3.04862,11.25416 -3.77765,16.78128c-0.15224,1.15424 -0.06168,4.7915 -0.24775,5.85209c-0.65714,3.74563 -2.39241,7.60953 -3.53996,11.23935c-4.32584,13.68295 -8.73464,27.1025 -11.94286,41.07419c-1.25958,5.48545 -2.94388,11.0416 -3.26799,16.65838c-0.84823,0.60432 -1.90314,0.99253 -2.54471,1.81295c-0.65845,0.84195 -0.36722,2.30248 -1.19878,2.97403c-0.85566,0.69103 -2.14767,0.5044 -3.24221,0.61251c-3.80358,0.3757 -7.85552,0.00341 -11.68011,0.00267c-5.74389,-0.00113 -11.8694,-0.31806 -17.55712,-1.17158c-2.84446,-0.42685 -5.608,-1.50817 -8.45902,-1.87687c-4.79851,-0.62055 -9.49905,-0.00234 -14.24171,-1.17533c-5.4125,-1.35312 -11.15447,-3.28946 -16.70325,-3.89953c-8.43291,-0.92716 -16.97276,-0.02699 -25.47661,-1.1573c-0.15584,-0.02071 -5.85739,-0.97321 -5.933,-0.99529c-1.82282,-0.53233 -3.37767,-1.84697 -5.23297,-2.2518c-1.79906,-0.39257 -3.68213,-0.07006 -5.5229,-0.11796c-3.77032,-0.10136 -7.3642,-0.99008 -11.104,-1.26874c-4.44299,-0.33106 -8.68367,0.94997 -13.10169,1.08276c-0.77845,0.02339 -5.85536,0.19612 -6.35756,-0.33646c-2.12511,-2.2536 0.24613,-4.25296 0.78924,-6.08905c0.76553,-2.58799 0.62499,-5.75325 1.03279,-8.42567c0.72958,-4.78132 1.72035,-9.53863 2.57913,-14.29867c0.66988,-3.71294 1.68649,-7.53301 2.04157,-11.28717c0.42681,-4.51257 -0.74894,-9.50769 0.10657,-13.95009c0.54489,-2.82931 2.50954,-5.39207 3.25182,-8.17207c1.59154,-5.96073 0.03918,-12.27069 4.93994,-17.00736c2.15056,-2.07854 5.56798,-2.76045 8.20135,-4.0127c7.18086,-3.36569 15.52593,-2.70208 23.2839,-2.70208c7.98135,0 16.38214,-0.76936 22.71007,4.72615c3.61451,3.13902 8.08575,5.22953 9.07471,10.31656c1.66322,-1.46255 1.90457,-3.34854 2.41676,-5.43616c0.92072,-3.75273 1.85325,-7.50262 2.77988,-11.25391c3.19977,-12.95383 6.23553,-25.94472 9.13626,-38.96864c0.67423,-2.69737 1.70054,-5.54868 2.08364,-8.30106c0.79895,-5.74039 0.41665,-11.82196 2.20817,-17.45596c0.57835,-1.81883 1.97167,-3.32223 2.47459,-5.16333c0.24141,-0.88378 0.09312,-5.44968 0.28688,-5.87632c0.44613,-0.98226 1.73578,-1.31661 2.41456,-2.15515c1.15299,-1.42439 1.68758,-3.25351 2.5269,-4.88256l0.87874,-1.70549c0,0 0.6637,-1.28808 1.95178,-0.62439z" data-paper-data="{&quot;index&quot;:null}" fill="#d221e7" stroke="none" stroke-width="1" stroke-linecap="butt"/><g><path d="M386.90608,143.43426l-0.35121,-4.47634l-3.79898,-45.85982c0,0 10.36593,-7.71212 16.2689,-8.57983c5.6679,-0.83316 18.47236,3.47299 18.47236,3.47299l4.18299,54.84897l-34.10071,0.83957l-1.37827,0.64173z" data-paper-data="{&quot;index&quot;:null}" fill="none" stroke="#000000" stroke-width="0" stroke-linecap="round"/><path d="M16.19564,106.175l4.53874,2.65146l14.5374,-1.67952l122.2332,-52.46704l-0.08241,-7.28334l138.38342,-1.56589l3.04048,14.84623l63.67763,-23.75509l-9.63281,-37.00063l188.87218,-76.08543l56.13069,250.79943l-136.22742,19.64915l-1.661,-7.54424l-86.2316,13.20511l-167.85447,67.37903l-199.0036,19.17173l-27.81801,-125.16875l5.11894,-1.30726l-7.79294,-37.03258z" fill="url(#color-1)" stroke="#000000" stroke-width="1" stroke-linecap="round"/><path d="M-15.68682,159.6383l-18.31999,6.01593l-2.79592,-5.33185l20.03891,-6.39439z" fill="url(#color-2)" stroke="#000000" stroke-width="1" stroke-linecap="round"/><path d="M-24.06368,206.31359l44.31042,-9.93596l49.81902,-100.54028l108.82333,55.92524l155.94897,-26.76554l40.29593,-46.1784l64.46706,21.04037l141.79329,-36.6251l-0.51424,9.12446l-2.96002,0.47146l-144.23637,33.91894l-55.08909,-20.80724l-38.13386,43.71993l-163.41568,30.30182l-102.77049,-54.01381l-46.63733,94.11764l-50.17528,11.94811z" fill="url(#color-3)" stroke="url(#color-4)" stroke-width="1" stroke-linecap="round"/><path d="M16.22359,106.0696l-48.49276,20.40869l-6.12022,-4.05926l57.20729,-25.03073l14.78738,4.13351l116.58884,-51.4413l-3.57335,-8.0443l159.49761,-1.23399l-1.21278,5.13308l-147.26688,2.14569l-0.4527,6.94821l-122.29401,52.33693l-15.505,1.61146z" fill="url(#color-5)" stroke="url(#color-6)" stroke-width="1" stroke-linecap="round"/><path d="M296.98386,52.72571l5.53522,0.58357l58.53822,-22.25993l2.43163,6.13295l-65.37607,23.94564z" fill="url(#color-7)" stroke="#000000" stroke-width="1" stroke-linecap="round"/><path d="M339.38519,-1.08016l213.7399,-89.05107l0.07715,9.3547l-209.21109,84.44949z" fill="url(#color-8)" stroke="#000000" stroke-width="1" stroke-linecap="round"/><path d="M461.84828,57.65428l-15.87616,-67.19777l1.99972,-7.2888l9.41162,-9.64157l7.89607,-5.88364l6.89622,-2.23924l10.73302,-2.00262l9.67799,0.57259l11.54512,2.50444l18.03649,75.37293z" fill="#fbfafa" stroke="#000000" stroke-width="1" stroke-linecap="round"/><path d="M466.01009,47.90697l-14.18965,-60.76559l6.56195,-7.0317l6.6755,-6.51602l8.35022,-3.8209l10.35139,-2.09884l14.12351,1.93675l14.70447,65.96888z" fill="#465979" stroke="#000000" stroke-width="1" stroke-linecap="round"/><path d="M427.08657,65.93849l-38.75467,9.79411l-10.67554,-46.85096l38.41725,-12.96385z" fill="#fbfafa" stroke="#000000" stroke-width="1" stroke-linecap="round"/><path d="M422.51654,59.9159l-30.88866,9.50407l-9.43618,-36.31035l31.57623,-9.65546z" fill="#272b2b" stroke="#000000" stroke-width="1" stroke-linecap="round"/><path d="M374.36561,78.80753l-47.50387,12.62153l-9.18542,-37.62711l45.48854,-16.86366z" fill="#fbfafa" stroke="#000000" stroke-width="1" stroke-linecap="round"/><path d="M372.22259,71.52969l-41.18489,12.67208l-7.37202,-27.75355l41.60753,-14.0267z" fill="#272b2b" stroke="#000000" stroke-width="1" stroke-linecap="round"/><path d="M87.29766,245.73011l-12.14196,-58.42295l3.90788,-6.80782l9.69386,-7.54101l6.22915,-2.81324l9.75683,-0.70636l12.91708,3.82439l10.98842,4.06879l13.97905,65.94837l-54.95505,5.79147z" fill="#fbfafa" stroke="#000000" stroke-width="1" stroke-linecap="round"/><path d="M92.16582,245.73963l-10.45943,-49.96236l3.39221,-6.69427l5.45172,-5.5257l6.23234,-4.43598l8.2335,-2.71389l6.37418,1.11975l13.69449,6.53682l11.71936,54.86644l-45.6555,4.64514z" fill="#161c21" stroke="#000000" stroke-width="1" stroke-linecap="round"/><path d="M-0.24756,257.39026l178.76988,-18.2731l191.366,-65.02124l4.74161,25.62933l-170.28718,68.67069l-198.00323,18.18227z" fill="#453e3c" stroke="#000000" stroke-width="1" stroke-linecap="round"/><path d="M57.74945,282.69366l-4.36195,-0.16606l-34.54087,2.73874l-15.24528,-72.51813l38.84773,-8.55302z" fill="#fbfafa" stroke="#000000" stroke-width="1" stroke-linecap="round"/><path d="M58.51431,282.07471l-34.00468,1.89977l-13.42394,-66.70137l32.60122,-6.63708z" fill="url(#color-9)" stroke="#000000" stroke-width="1" stroke-linecap="round"/><path d="M46.7193,221.95335l-29.63802,4.54288l-1.24571,-7.29517l28.49632,-6.45421z" fill="#161c21" stroke="#000000" stroke-width="1" stroke-linecap="round"/><path d="M223.68901,260.17156l-20.17939,-92.47305l94.57554,-19.02025l18.10431,74.86236z" fill="#fbfafa" stroke="#000000" stroke-width="1" stroke-linecap="round"/><path d="M229.03659,259.08431l-18.56309,-84.31327l82.43273,-18.5095l16.12843,69.98076z" fill="url(#color-10)" stroke="#000000" stroke-width="1" stroke-linecap="round"/><path d="M290.43335,166.31283l-78.27263,19.39583l-1.62417,-9.01411l78.00137,-17.35362z" fill="#161c21" stroke="#000000" stroke-width="1" stroke-linecap="round"/><path d="M347.5091,210.87785l-23.13615,8.69835l-19.05204,-78.34834l23.9309,-5.08859z" fill="#0a0c0a" stroke="#000000" stroke-width="1" stroke-linecap="round"/><path d="M348.04371,210.85026l-23.47994,8.77402l-16.2736,-64.09149l24.3709,-5.54592z" fill="#592d2a" stroke="#000000" stroke-width="1" stroke-linecap="round"/><path d="M335.25786,130.26625l35.94921,-10.2578l17.0731,65.26715l-41.27154,8.18557z" fill="#fbfafa" stroke="#000000" stroke-width="1" stroke-linecap="round"/><path d="M339.54565,134.1883l28.7644,-6.87368l12.51262,54.3764l-30.19154,4.48451l-10.09197,-52.38619z" fill="#0a0c0a" stroke="#000000" stroke-width="1" stroke-linecap="round"/><path d="M408.96464,195.31978l-18.42599,-76.32344l8.68301,-8.03939l10.3199,-5.51616l7.48759,-2.00898l9.18282,-0.03931l7.30615,2.89704l3.09407,-0.68122l17.04763,83.16009z" fill="#fbfafa" stroke="#000000" stroke-width="1" stroke-linecap="round"/><path d="M413.6152,194.34093l-10.97658,-58.85973l38.88556,-8.38113l11.81234,61.01867z" fill="#281b1a" stroke="#000000" stroke-width="1" stroke-linecap="round"/><path d="M426.94395,192.66793l-12.59611,-60.48566l21.36984,-3.62361l12.25232,60.56134z" fill="#592d2a" stroke="#000000" stroke-width="1" stroke-linecap="round"/><path d="M411.62906,136.20517l3.86021,17.53303l-6.28433,1.74405l-3.21051,-17.85631z" fill="#292c26" stroke="#000000" stroke-width="1" stroke-linecap="round"/><path d="M420.22051,135.9356l13.16002,-3.25787l3.14433,12.64436l-13.79243,4.47845z" fill="#292c26" stroke="#000000" stroke-width="1" stroke-linecap="round"/><path d="M444.42876,145.20396l-2.84647,0.98715l-2.56714,-14.93414l2.44433,-0.35794z" fill="#292c26" stroke="#000000" stroke-width="1" stroke-linecap="round"/><path d="M439.04368,121.56358l-39.3082,9.73576l-1.37339,-10.33088l12.94248,-9.15738l7.56645,-3.28792l10.61631,-0.89558l7.93854,1.67645z" fill="#1a1a1a" stroke="#000000" stroke-width="1" stroke-linecap="round"/><path d="M532.66898,83.28827l18.85963,79.11157l-63.61951,11.66406l-17.14708,-76.24457z" fill="#fbfafa" stroke="#000000" stroke-width="1" stroke-linecap="round"/><path d="M480.08085,99.01167l46.31478,-9.83658l16.88699,67.69611l-49.1786,9.92642l-14.37172,-65.27616z" fill="#292c26" stroke="#000000" stroke-width="1" stroke-linecap="round"/><path d="M19.11596,107.80012l10.45015,50.4208l-38.03729,12.49687l-9.53897,-46.2822z" fill="#f6f7f3" stroke="#000000" stroke-width="1" stroke-linecap="round"/><path d="M-13.69695,128.25911l30.22334,-12.51216l7.80772,38.41882l-30.1037,10.09926z" fill="#4e5959" stroke="#000000" stroke-width="1" stroke-linecap="round"/><path d="M140.18339,-8.07177c-0.36196,-0.10412 -1.93961,-0.67833 -1.52124,-2.68697c0.47165,-2.26455 2.53706,-1.82326 2.53706,-1.82326l0.96949,0.34735c5.42874,3.60305 10.6545,7.37856 15.88153,11.30993c6.41802,4.83732 13.76299,7.85726 20.45709,12.20092c13.6306,8.84463 25.63527,20.30239 39.34345,29.07584c0,0 1.80049,1.15235 0.68405,3.15113c-1.11641,1.99877 -2.91695,0.84641 -2.91695,0.84641c-13.72213,-8.78247 -25.73821,-20.2554 -39.38358,-29.10192c-6.77115,-4.38982 -14.16557,-7.4684 -20.66677,-12.34843c-5.06666,-3.81071 -10.12965,-7.47243 -15.38416,-10.97109z" data-paper-data="{&quot;index&quot;:null}" fill="#000000" stroke="none" stroke-width="1" stroke-linecap="butt"/><path d="M273.25617,-34.02718c1.97991,0.93695 1.20449,3.03741 1.20449,3.03741l-0.71551,1.91868c-0.63129,1.373 -1.26262,2.74604 -1.89393,4.11907c-12.11767,21.7843 -22.10287,46.19482 -39.04356,64.12447c0,0 -1.48549,1.5695 -3.00693,-0.11168c-1.52144,-1.6812 -0.03594,-3.25071 -0.03594,-3.25071c16.66889,-17.57895 26.4145,-41.73652 38.33539,-63.115c0.6062,-1.32111 1.21247,-2.64221 1.81872,-3.96334l0.58188,-1.59538c0,0 0.77545,-2.10045 2.75539,-1.16352z" data-paper-data="{&quot;index&quot;:null}" fill="#000000" stroke="none" stroke-width="1" stroke-linecap="butt"/><path d="M200.55367,57.02242c3.3076,1.20467 4.06288,3.19567 5.94913,6.0944c3.41982,5.25544 5.70874,10.13149 7.40143,16.1942c1.45071,7.91483 3.52045,19.27811 -2.2343,25.75917c-5.95435,3.84204 -12.51358,7.03805 -19.63049,4.20382c-2.32804,-0.92712 -4.54945,-3.34818 -6.42561,-4.99174c-5.07471,-7.85958 -6.75209,-17.70021 -6.49594,-26.91516c-0.1452,-4.66671 0.04037,-9.16095 0.5443,-13.79768c0.27986,-2.57513 0.37817,-4.87454 2.62073,-6.33358l0.5281,-0.48239c0,0 0.12324,-0.11636 0.19713,-0.29663c5.71797,-2.54837 11.43198,-1.12059 17.5455,0.56559z" data-paper-data="{&quot;noHover&quot;:false,&quot;origItem&quot;:[&quot;Path&quot;,{&quot;applyMatrix&quot;:true,&quot;segments&quot;:[[[463.02145,118.92474],[11.94148,-3.76279],[-0.18782,0.34138]],[462.56327,119.46889],[[461.40637,120.30632],[0,0],[-4.78797,2.38894]],[[454.7767,132.28436],[1.14195,-5.05316],[-2.05618,9.09862]],[[450.59007,159.5336],[0.77318,-9.30587],[-2.60543,18.25199]],[[457.33707,214.37126],[-8.29546,-16.77166],[3.35404,3.69263]],[[468.94246,225.73925],[-4.41495,-2.37184],[13.49664,7.25079]],[[508.8316,221.85864],[-12.70549,6.27955],[12.90926,-11.56875]],[[519.07651,171.27858],[1.08192,16.05697],[-1.9841,-12.43181]],[[508.09898,137.49402],[5.59959,11.22069],[-3.08854,-6.18895]],[[497.69355,124.0439],[6.29819,3.14621],[-11.7641,-4.74133]]],&quot;closed&quot;:true}]}" fill="#ffffff" stroke="none" stroke-width="0.5" stroke-linecap="butt"/><path d="M253.71463,55.41136c3.02137,-0.03109 4.20723,2.45085 5.42139,4.86957c2.81888,5.61547 3.6551,12.11571 4.11265,18.29428c0.6142,8.27724 4.81336,18.04842 -0.96072,25.24503c-5.07436,7.48032 -17.50977,3.5259 -23.85707,0.52991c-2.89125,-1.83244 -2.38305,-4.65525 -2.92016,-7.7536c-0.98628,-5.68948 -1.67598,-11.43076 -1.84036,-17.19803c-0.1637,-5.62138 -1.48945,-11.489 -1.02089,-17.07811c0.07486,-0.89294 -0.36917,-4.53463 0.37246,-5.10753c0.01103,-0.00852 0.0222,-0.01689 0.03342,-0.02507c0.35098,-0.14806 0.70736,-0.29096 1.06545,-0.42659c0.25987,-0.07047 0.52071,-0.1436 0.75741,-0.26087l0.13064,-0.06072c5.94143,-2.05062 12.73851,-2.43639 18.70579,-1.02827z" data-paper-data="{&quot;noHover&quot;:false,&quot;origItem&quot;:[&quot;Path&quot;,{&quot;applyMatrix&quot;:true,&quot;segments&quot;:[[[566.35295,130.72043],[12.27227,-2.72292],[0,0]],[[566.08002,130.81116],[0,0],[-0.49701,0.17916]],[[564.51821,131.15611],[0.53239,-0.0809],[-0.7424,0.18804]],[[562.30763,131.75969],[0.73107,-0.21435],[-0.02414,0.0137]],[[562.23565,131.80185],[0.02385,-0.01442],[-1.60395,0.96966]],[[560.34435,141.85964],[0.35189,-1.75725],[-2.20257,10.99907]],[[558.52911,175.96742],[0.95361,-11.20702],[-0.98546,11.49706]],[[558.25012,210.46726],[-0.66539,-11.52947],[0.36236,6.27868]],[[562.26585,226.51965],[-5.32806,-4.29887],[11.93061,7.39711]],[[609.69817,230.88926],[-11.78467,13.70908],[13.11047,-12.98617]],[[617.29234,181.04419],[-0.66268,16.58674],[0.49649,-12.38105]],[[613.32811,143.83386],[4.32361,11.79936],[-1.86229,-5.08228]],[[603.68782,132.93587],[6.0106,0.62561],[-11.53671,-4.15555]]],&quot;closed&quot;:true}]}" fill="#ffffff" stroke="none" stroke-width="0.5" stroke-linecap="butt"/><path d="M207.73549,82.10424c-0.17276,-1.50893 0.9104,-2.8722 2.41933,-3.04497c1.50893,-0.17276 2.87221,0.91041 3.04498,2.41934c0.17277,1.50893 -0.9104,2.8722 -2.41933,3.04496c-1.50893,0.17276 -2.8722,-0.9104 -3.04497,-2.41933z" fill="#000000" stroke="none" stroke-width="0.5" stroke-linecap="butt"/><path d="M256.78852,80.16937c-0.17277,-1.50893 0.9104,-2.8722 2.41933,-3.04496c1.50893,-0.17276 2.87221,0.91041 3.04498,2.41934c0.17277,1.50893 -0.91041,2.87221 -2.41934,3.04497c-1.50893,0.17276 -2.87221,-0.91041 -3.04497,-2.41934z" fill="#000000" stroke="none" stroke-width="0.5" stroke-linecap="butt"/><path d="M189.4813,175.7537c-0.73173,0.16454 -0.89627,-0.56719 -0.89627,-0.56719l-0.02818,-0.12531c-1.5634,-6.9528 -2.85427,-13.96917 -4.58505,-20.88419c-2.04933,-8.18999 -3.97064,-15.97403 2.60423,-22.68648c1.63284,-1.667 3.81615,-2.83444 5.6624,-4.24551c4.17553,-3.18398 9.44447,-4.94501 14.31695,-6.78253c4.10356,-1.54754 7.9964,-3.38592 12.30546,-4.31706c2.5112,-0.54242 4.93956,-0.71101 7.46874,-1.02626c2.60994,-0.32532 5.0113,-1.54496 7.62712,-1.91821c4.56164,-0.65089 9.40239,-0.97131 13.96069,-0.28418c10.1394,1.55757 17.11288,7.25652 21.94331,16.10781c2.84983,5.23271 5.01209,11.85179 5.67173,17.79587c0.19297,1.73888 0.86182,3.47476 0.70456,5.21382c0,0 -0.0753,0.74621 -0.82151,0.67091c-0.74621,-0.0753 -0.67091,-0.82151 -0.67091,-0.82151c0.18096,-1.57271 -0.52703,-3.31218 -0.70298,-4.89777c-0.6376,-5.74536 -2.734,-12.1877 -5.49763,-17.24286c-4.59215,-8.41784 -11.16694,-13.9123 -20.85028,-15.34304c-4.41375,-0.66621 -9.10893,-0.34421 -13.52508,0.28591c-2.61733,0.37346 -5.01535,1.58917 -7.63176,1.91886c-2.49374,0.31425 -4.88249,0.47145 -7.35917,1.00681c-4.23406,0.91487 -8.05991,2.73285 -12.09288,4.25437c-4.72533,1.78274 -9.89081,3.47342 -13.93561,6.57093c-1.78302,1.36212 -3.9282,2.48786 -5.50013,4.10181c-6.15214,6.3166 -4.14231,13.60022 -2.22209,21.27419c1.73283,6.92699 3.02732,13.95466 4.59336,20.91923l0.02818,0.12531c0,0 0.16454,0.73173 -0.56719,0.89627z" fill="#000000" stroke="none" stroke-width="0.5" stroke-linecap="butt"/><path d="M177.0252,70.89207c-0.16454,-0.73173 0.56719,-0.89627 0.56719,-0.89627l0.10797,-0.0156c0.09218,-2.1685 0.25877,-4.33586 0.50445,-6.53699c0.23081,-2.06783 0.42084,-3.93789 1.36158,-5.47574l0.00002,0c-0.07051,-0.05285 -0.13892,-0.12509 -0.20212,-0.22205c-0.40955,-0.62831 0.21878,-1.03785 0.21878,-1.03785c7.18035,-4.57292 13.78083,-3.12697 21.41815,-1.06506c3.1167,1.13775 3.62987,2.0898 5.35926,4.87304c1.57825,2.54002 3.45856,4.96039 5.04015,7.49134c2.03975,3.26409 2.8994,7.33404 3.91591,10.97538c1.57563,8.56589 3.57906,20.22567 -2.69718,27.18442c-6.34456,4.17218 -13.53972,7.56446 -21.1419,4.44526c-2.54996,-1.04625 -4.93681,-3.56728 -6.97693,-5.39472c-5.3298,-8.11283 -7.10242,-18.27042 -6.83451,-27.83404c-0.06296,-1.99551 -0.06988,-3.95812 -0.01731,-5.91332c-0.22601,-0.02398 -0.52546,-0.14177 -0.62351,-0.5778zM212.17133,75.21332c-4.0485,-1.58549 -9.69563,-2.50885 -14.09342,-2.7514c-3.16858,-0.17476 -6.60876,0.45629 -9.69509,-0.28652c-2.73841,-0.85697 -6.21944,-0.55074 -9.22894,-0.6765c-0.05413,1.94368 -0.04966,3.89496 0.01217,5.88172c-0.25616,9.21494 1.39585,18.99753 6.47055,26.85711c1.87616,1.64356 4.08355,4.05992 6.41159,4.98703c7.11691,2.83423 13.64005,-0.35442 19.5944,-4.19644c5.75475,-6.48106 3.66312,-17.79373 2.21241,-25.70856c-0.39457,-1.41325 -0.82009,-2.76005 -1.28401,-4.06119c-0.21562,0.02545 -0.39967,-0.04526 -0.39967,-0.04526z" fill="#000000" stroke="none" stroke-width="0.5" stroke-linecap="butt"/><path d="M264.05556,66.46141c0.16454,0.73173 -0.56719,0.89627 -0.56719,0.89627l-0.12531,0.02818c-0.0604,0.01147 -0.12227,0.02428 -0.18556,0.03837c0.84337,3.62894 1.24552,7.38035 1.51799,11.04958c0.65188,8.79627 4.82729,18.50898 -1.22851,26.19714c-5.69466,8.10809 -18.59193,4.35241 -25.74434,0.94469c-3.41672,-2.2246 -3.01692,-5.09411 -3.65293,-8.77798c-0.99561,-5.76664 -1.68257,-11.54536 -1.84915,-17.38987c-0.0133,-0.47767 -0.035,-0.95672 -0.06331,-1.4369c-0.12594,-0.07629 -0.24048,-0.20715 -0.30917,-0.42585c-0.12781,-0.40692 0.04849,-0.65512 0.22433,-0.79351c-0.38403,-4.84347 -1.28364,-9.78039 -0.88552,-14.55689c0.08981,-1.07752 -0.12213,-2.75218 0.06798,-4.15991c-0.0437,0.02207 -0.08732,0.04424 -0.13087,0.06651c0,0 -0.66772,0.34152 -1.00924,-0.32622c-0.34152,-0.66772 0.32622,-1.00925 0.32622,-1.00925c0.60521,-0.30953 1.22523,-0.60045 1.85788,-0.87245c0.28154,-0.1886 0.61676,-0.29501 0.95834,-0.39383c0.40127,-0.15745 0.80701,-0.30751 1.21669,-0.45011l0.10976,-0.0512c0,0 0.09225,-0.04294 0.2246,-0.06323l-0.00001,0.00001c6.08651,-2.04774 13.0057,-2.46111 19.07253,-1.00418c3.56447,0.03805 5.13208,2.79715 6.5735,5.68153c1.01111,2.0233 1.77507,4.14739 2.3614,6.32658c0.07441,-0.02006 0.14722,-0.03892 0.21831,-0.0565l0.12531,-0.02818c0,0 0.73173,-0.16454 0.89627,0.56719zM255.88165,70.89541c-3.83076,0.90867 -7.69756,1.29332 -11.45517,2.58528c-3.65367,1.25623 -7.11124,3.05798 -10.78272,4.31412c0.03436,0.53843 0.06062,1.07531 0.0762,1.61025c0.16437,5.76726 0.83734,11.46434 1.82362,17.15382c0.53711,3.09835 0.01659,5.91325 2.90783,7.7457c6.34731,2.99598 18.73638,6.95317 23.81074,-0.52714c5.77408,-7.19661 1.55164,-16.91547 0.93745,-25.19269c-0.26299,-3.55126 -0.64214,-7.19709 -1.45229,-10.72186c-2.01932,0.74652 -4.54358,2.0988 -5.86566,3.03252z" fill="#000000" stroke="none" stroke-width="0.5" stroke-linecap="butt"/></g></g></g></svg>