<svg version="1.1" xmlns="http://www.w3.org/2000/svg" xmlns:xlink="http://www.w3.org/1999/xlink" width="2878.25006" height="1619.57958" viewBox="0,0,2878.25006,1619.57958"><defs><linearGradient x1="2.60642" y1="97.28154" x2="570.0082" y2="296.80745" gradientUnits="userSpaceOnUse" id="color-1"><stop offset="0" stop-color="#ff00e1"/><stop offset="1" stop-color="#00b8ff"/></linearGradient><linearGradient x1="-4.16564" y1="70.37981" x2="15.59342" y2="77.32804" gradientUnits="userSpaceOnUse" id="color-2"><stop offset="0" stop-color="#45ff00"/><stop offset="1" stop-color="#ff00e1"/></linearGradient><linearGradient x1="-3.36372" y1="75.79263" x2="583.4716" y2="282.15232" gradientUnits="userSpaceOnUse" id="color-3"><stop offset="0" stop-color="#feff00"/><stop offset="1" stop-color="#03ff51"/></linearGradient><linearGradient x1="-3.36372" y1="75.79263" x2="583.4716" y2="282.15232" gradientUnits="userSpaceOnUse" id="color-4"><stop offset="0" stop-color="#feff00"/><stop offset="1" stop-color="#03ff51"/></linearGradient><linearGradient x1="20.6431" y1="19.72638" x2="354.59588" y2="137.16034" gradientUnits="userSpaceOnUse" id="color-5"><stop offset="0" stop-color="#45ff00"/><stop offset="1" stop-color="#ff00e1"/></linearGradient><linearGradient x1="20.6431" y1="19.72638" x2="354.59588" y2="137.16034" gradientUnits="userSpaceOnUse" id="color-6"><stop offset="0" stop-color="#45ff00"/><stop offset="1" stop-color="#ff00e1"/></linearGradient><linearGradient x1="336.0324" y1="153.20805" x2="401.12104" y2="176.09635" gradientUnits="userSpaceOnUse" id="color-7"><stop offset="0" stop-color="#45ff00"/><stop offset="1" stop-color="#ff00e1"/></linearGradient><linearGradient x1="407.12593" y1="112.86022" x2="622.10931" y2="188.45877" gradientUnits="userSpaceOnUse" id="color-8"><stop offset="0" stop-color="#45ff00"/><stop offset="1" stop-color="#ff00e1"/></linearGradient><linearGradient x1="-6.17285" y1="176.44132" x2="26.37147" y2="187.88546" gradientUnits="userSpaceOnUse" id="color-9"><stop offset="0" stop-color="#ff0000"/><stop offset="1" stop-color="#45ff00"/></linearGradient><linearGradient x1="184.78275" y1="251.65989" x2="265.14726" y2="279.91994" gradientUnits="userSpaceOnUse" id="color-10"><stop offset="0" stop-color="#0030ff"/><stop offset="1" stop-color="#ff0303"/></linearGradient></defs><g transform="translate(1117.37278,629.80931)"><g data-paper-data="{&quot;isPaintingLayer&quot;:true}" fill-rule="nonzero" stroke-linejoin="miter" stroke-miterlimit="10" stroke-dasharray="" stroke-dashoffset="0" style="mix-blend-mode: normal"><path d="M447.05641,183.40009c2.80575,-0.70388 5.61021,-1.40736 8.40737,-2.1448c1.39913,-0.36886 3.00903,-0.25388 4.32045,-0.79467c-0.26772,-1.76696 -0.53544,-3.53391 -0.80316,-5.30086c0,0 -0.21708,-1.43267 1.21559,-1.64974c1.43267,-0.21708 1.64974,1.21559 1.64974,1.21559c0.12824,0.84642 0.25648,1.69281 0.38472,2.53922c0.16808,-0.0682 0.35187,-0.10574 0.54444,-0.10574c0.65099,0 1.20173,0.42929 1.38453,1.02024l0.8798,2.62492c1.83165,3.34205 3.65474,6.68877 5.47967,10.03451c3.96232,7.26561 5.90992,15.84525 8.45405,23.67189c1.08937,3.35128 0.47574,7.20579 1.19182,10.55612c0.78797,3.68673 4.03126,5.79543 5.66915,8.92027c1.72187,3.28511 2.98343,7.12458 4.67696,10.51755c2.71615,7.27523 5.47536,13.94942 9.21493,20.74607c0.97077,1.76438 1.97073,5.31099 3.9213,6.31414c1.66332,0.85543 5.2465,-2.09373 6.67959,-2.39717c6.46061,-1.36788 14.48631,0.54928 20.56013,2.53245c7.71168,1.98943 15.09127,4.012 21.93064,8.29433c10.91059,6.83148 18.38925,17.85217 24.89689,28.6547c7.08507,11.76107 10.15744,25.0043 13.68542,38.16818c1.74559,6.5133 4.38835,13.1445 5.0497,19.85265c0.10118,1.04847 0.73469,6.33951 0.15424,6.91767c-0.98306,0.97915 -2.77202,0.32742 -4.15609,0.23018c-3.5973,-0.25276 -7.68122,-1.88223 -11.14942,-2.87298c-3.68978,-1.05408 -6.97837,-1.38937 -10.71658,-2.01266c-9.57664,-1.5968 -18.26141,-4.10771 -28.08855,-4.23712c-4.90902,-0.06466 -9.84479,-0.27719 -14.67993,-1.24539c-3.74509,-0.74992 -7.32403,-2.68391 -11.04206,-3.33382c-2.49192,-0.43559 -5.561,0.01876 -8.09017,0.01889c-5.34672,0.00023 -11.8732,-1.01442 -17.10392,0.05469c-3.16189,0.64626 -5.41632,1.10437 -8.77068,1.10437c-4.66243,-0.00008 -9.4042,0.09758 -14.0569,-0.20212c-7.44779,-0.47973 -15.26213,-1.87331 -22.74545,-0.83869c-2.80263,0.38747 -5.52743,1.7181 -8.30636,2.26816c-4.78765,0.9477 -9.69438,1.30758 -14.50152,2.24754c-1.14175,-0.18858 -2.61202,0.25757 -3.42525,-0.56572c-0.89613,-0.90725 -0.59491,-2.48138 -0.82376,-3.73588c-0.71557,-3.92285 -0.68703,-7.72985 -0.80399,-11.68871c-0.14891,-5.04001 -2.20491,-8.83925 -3.525,-13.58481c-2.5844,-9.29062 -3.65229,-18.94313 -6.31212,-28.25256c-5.56383,-19.47346 -10.9339,-39.06642 -15.09554,-58.8959c-2.37067,-11.29834 -5.70854,-22.82683 -6.32467,-34.39013c-0.46988,-8.81868 0.68445,-17.4967 1.69581,-26.22993c0.20107,-1.73619 0.09956,-8.18464 1.14041,-9.37862c2.50263,-2.87087 6.68391,-0.42209 9.6095,-0.26731c4.12802,0.21838 8.1715,1.00576 12.21019,1.83728c1.07614,-0.81906 2.74651,0.49557 4.08936,0.82226c0.10773,0.02621 0.21522,0.05218 0.32252,0.07792c1.16926,0.22951 2.34055,0.44674 3.51576,0.63904c4.27085,0.69879 8.56734,0.99032 12.79444,1.87074c3.18016,0.42067 6.34231,0.94941 9.31913,1.81875c1.828,-0.49909 3.65212,-0.98818 5.47286,-1.44493zM459.00485,183.31881c-2.79049,0.7939 -5.61864,1.48116 -8.43232,2.18704c-1.39341,0.34956 -2.79062,0.71786 -4.19133,1.09625c2.95553,1.26129 5.76979,2.68172 8.82316,3.63679c0.42395,-0.51621 1.15213,-0.51621 1.15213,-0.51621l0.12139,0.07437c0.82499,-0.2667 3.38338,-1.34573 4.62647,-0.62371c-0.30741,-2.02882 -0.61479,-4.05763 -0.92219,-6.08645c-0.40073,0.06377 -0.80226,0.12523 -1.1773,0.23192z" data-paper-data="{&quot;index&quot;:null}" fill="#d221e7" stroke="none" stroke-width="1" stroke-linecap="butt"/><path d="M138.54689,197.31066c1.28808,0.66369 0.6244,1.95177 0.6244,1.95177l-0.62281,1.20877c4.43861,-0.81585 8.82935,-4.58191 12.91515,-6.21997c4.72471,-1.8942 9.1602,-1.98985 13.98759,-2.87529c2.93602,-0.53852 4.84444,-2.80487 7.5707,-3.73259c3.78216,-1.28704 8.41781,-1.07299 12.23538,-0.30304c6.34867,1.31689 13.37965,0.53571 19.86047,0.53571c3.21756,0 7.04912,0.60404 10.20084,0.01871c3.05543,-0.56746 5.5329,-1.28593 8.75332,-1.16249c1.28506,0.04926 2.85584,-0.50094 3.8446,0.32136c0.98582,0.81986 0.71807,2.46325 1.00601,3.7127c1.05895,4.59491 1.97908,9.50105 1.98779,14.20815c0,3.77994 0.54456,8.05993 -0.014,11.79315c-0.60099,4.01683 -3.78732,6.96681 -5.45508,10.58635c-1.14349,2.48172 -2.52442,5.25679 -3.42477,7.83308c-0.36093,1.03277 -0.99804,4.83225 -1.38316,5.73039c-0.75996,1.77235 -2.40431,3.07387 -3.15075,4.85195c-0.74321,1.77036 -0.54892,3.83491 -1.24731,5.62343c-1.3801,3.53428 -3.64805,6.82965 -5.1082,10.40109c-3.26233,7.97949 -6.39482,16.05907 -8.61748,24.40258c-1.43583,5.38995 -3.04862,11.25416 -3.77765,16.78128c-0.15224,1.15424 -0.06168,4.7915 -0.24775,5.85209c-0.65714,3.74563 -2.39241,7.60953 -3.53996,11.23935c-4.32584,13.68295 -8.73464,27.1025 -11.94286,41.07419c-1.25958,5.48545 -2.94388,11.0416 -3.26799,16.65838c-0.84823,0.60432 -1.90314,0.99253 -2.54471,1.81295c-0.65845,0.84195 -0.36722,2.30248 -1.19878,2.97403c-0.85566,0.69103 -2.14767,0.5044 -3.24221,0.61251c-3.80358,0.3757 -7.85552,0.00341 -11.68011,0.00267c-5.74389,-0.00113 -11.8694,-0.31806 -17.55712,-1.17158c-2.84446,-0.42685 -5.608,-1.50817 -8.45902,-1.87687c-4.79851,-0.62055 -9.49905,-0.00234 -14.24171,-1.17533c-5.4125,-1.35312 -11.15447,-3.28946 -16.70325,-3.89953c-8.43291,-0.92716 -16.97276,-0.02699 -25.47661,-1.1573c-0.15584,-0.02071 -5.85739,-0.97321 -5.933,-0.99529c-1.82282,-0.53233 -3.37767,-1.84697 -5.23297,-2.2518c-1.79906,-0.39257 -3.68213,-0.07006 -5.5229,-0.11796c-3.77032,-0.10136 -7.3642,-0.99008 -11.104,-1.26874c-4.44299,-0.33106 -8.68367,0.94997 -13.10169,1.08276c-0.77845,0.02339 -5.85536,0.19612 -6.35756,-0.33646c-2.12511,-2.2536 0.24613,-4.25296 0.78924,-6.08905c0.76553,-2.58799 0.62499,-5.75325 1.03279,-8.42567c0.72958,-4.78132 1.72035,-9.53863 2.57913,-14.29867c0.66988,-3.71294 1.68649,-7.53301 2.04157,-11.28717c0.42681,-4.51257 -0.74894,-9.50769 0.10657,-13.95009c0.54489,-2.82931 2.50954,-5.39207 3.25182,-8.17207c1.59154,-5.96073 0.03918,-12.27069 4.93994,-17.00736c2.15056,-2.07854 5.56798,-2.76045 8.20135,-4.0127c7.18086,-3.36569 15.52593,-2.70208 23.2839,-2.70208c7.98135,0 16.38214,-0.76936 22.71007,4.72615c3.61451,3.13902 8.08575,5.22953 9.07471,10.31656c1.66322,-1.46255 1.90457,-3.34854 2.41676,-5.43616c0.92072,-3.75273 1.85325,-7.50262 2.77988,-11.25391c3.19977,-12.95383 6.23553,-25.94472 9.13626,-38.96864c0.67423,-2.69737 1.70054,-5.54868 2.08364,-8.30106c0.79895,-5.74039 0.41665,-11.82196 2.20817,-17.45596c0.57835,-1.81883 1.97167,-3.32223 2.47459,-5.16333c0.24141,-0.88378 0.09312,-5.44968 0.28688,-5.87632c0.44613,-0.98226 1.73578,-1.31661 2.41456,-2.15515c1.15299,-1.42439 1.68758,-3.25351 2.5269,-4.88256l0.87874,-1.70549c0,0 0.6637,-1.28808 1.95178,-0.62439z" data-paper-data="{&quot;index&quot;:null}" fill="#d221e7" stroke="none" stroke-width="1" stroke-linecap="butt"/><path d="M-1117.37278,989.77027v-1619.57958h2878.25006v1619.57958z" fill="none" stroke="#000000" stroke-width="0" stroke-linecap="butt"/><path d="M-1117.37278,989.77027v-1619.57958h2878.25006v1619.57958z" fill="none" stroke="#000000" stroke-width="0" stroke-linecap="butt"/><path d="M-1117.37278,989.77027v-1619.57958h2878.25006v1619.57958z" fill="none" stroke="#000000" stroke-width="0" stroke-linecap="butt"/><g><path d="M365.51672,277.41641l2.0597,-3.98981l20.93075,-40.9812c0,0 12.8737,-1.09417 18.34822,1.27809c5.25651,2.27779 13.87146,12.68354 13.87146,12.68354l-25.34,48.82408l-29.42715,-17.25127l-1.50958,-0.18064z" data-paper-data="{&quot;index&quot;:null}" fill="none" stroke="#000000" stroke-width="0" stroke-linecap="round"/><path d="M70.04993,50.44976l2.46099,4.64477l13.24127,6.23102l131.53612,19.79889l3.76695,-6.23409l118.44778,71.57197l-5.23693,14.22075l66.63919,13.35525l11.30494,-36.52445l200.62038,34.83042l-84.41593,242.74464l-126.14182,-55.06578l2.56263,-7.28748l-80.25164,-34.20434l-178.1691,-31.15815l-179.24867,-88.54322l42.29651,-121.0457l5.03968,1.58562l12.88562,-35.58233z" fill="url(#color-1)" stroke="#000000" stroke-width="1" stroke-linecap="round"/><path d="M14.78509,79.09612l-18.74089,-4.5379l0.43245,-6.00489l20.40132,5.12178z" fill="url(#color-2)" stroke="#000000" stroke-width="1" stroke-linecap="round"/><path d="M-16.92446,114.35599l42.89733,14.8982l95.31154,-59.21143l63.03497,104.86535l146.65375,59.40668l58.57829,-18.02198l43.71112,51.84628l139.81593,43.5688l-5.24403,7.48468l-2.76432,-1.15866l-140.46684,-47.15604l-35.86287,-46.70764l-55.4454,17.07135l-154.86327,-60.33452l-58.89716,-100.05193l-89.22361,55.42851l-48.94236,-16.27763z" fill="url(#color-3)" stroke="url(#color-4)" stroke-width="1" stroke-linecap="round"/><path d="M70.12921,50.3749l-51.96944,-8.19994l-3.06356,-6.67452l61.81158,8.8623l10.39133,11.30366l126.19815,17.69719l1.20062,-8.71998l136.21952,82.97743l-3.73504,3.72409l-126.30398,-75.75912l-4.04523,5.66733l-131.51926,-19.94151l-14.02785,-6.79861z" fill="url(#color-5)" stroke="url(#color-6)" stroke-width="1" stroke-linecap="round"/><path d="M336.87176,152.94347l4.39737,3.41208l61.48313,11.91857l-1.16412,6.4939l-68.18321,-14.08806z" fill="url(#color-7)" stroke="#000000" stroke-width="1" stroke-linecap="round"/><path d="M401.25788,129.54747l228.58792,36.91069l-4.86266,7.99193l-222.31434,-38.43608z" fill="url(#color-8)" stroke="#000000" stroke-width="1" stroke-linecap="round"/><path d="M474.4064,243.98627l21.90665,-65.48047l5.53959,-5.14183l13.07902,-3.23691l9.8111,-0.84117l7.04131,1.72975l10.17784,3.95217l7.92443,5.58523l8.49372,8.2109l-24.37723,73.56727z" fill="#fbfafa" stroke="#000000" stroke-width="1" stroke-linecap="round"/><path d="M483.07891,237.89379l19.95155,-59.12478l9.28194,-2.51983l9.10679,-2.0217l9.11043,1.15137l9.90416,3.66934l10.98435,9.08672l-22.25515,63.81867z" fill="#465979" stroke="#000000" stroke-width="1" stroke-linecap="round"/><path d="M440.49544,232.71455l-38.10033,-12.0919l15.60798,-45.44635l39.48341,9.21993z" fill="#fbfafa" stroke="#000000" stroke-width="1" stroke-linecap="round"/><path d="M439.78383,225.18791l-31.26159,-8.19447l11.10842,-35.83415l31.92576,8.42802z" fill="#272b2b" stroke="#000000" stroke-width="1" stroke-linecap="round"/><path d="M388.90415,215.87857l-47.02649,-14.2979l12.01526,-36.82125l47.54834,9.63046z" fill="#fbfafa" stroke="#000000" stroke-width="1" stroke-linecap="round"/><path d="M390.91673,208.56359l-41.68213,-10.92597l8.35503,-27.47361l42.755,9.99723z" fill="#272b2b" stroke="#000000" stroke-width="1" stroke-linecap="round"/><path d="M56.96486,206.52637l20.4579,-56.05482l6.9081,-3.72775l12.21231,-1.30278l6.77671,0.89044l8.66522,4.53969l8.96447,10.0556l7.1964,9.24728l-22.86094,63.41908l-49.76163,-24.02871z" fill="#fbfafa" stroke="#000000" stroke-width="1" stroke-linecap="round"/><path d="M61.09767,209.0991l17.43081,-47.97712l6.40997,-3.90291l7.54488,-1.82465l7.63431,-0.48717l8.42802,2.03081l4.82801,4.3098l8.1963,12.77066l-18.94346,52.80923l-41.25331,-20.10389z" fill="#161c21" stroke="#000000" stroke-width="1" stroke-linecap="round"/><path d="M-23.58942,170.31679l161.57704,78.64755l196.91124,45.54853l-9.47174,24.28233l-180.91732,-31.34186l-177.87711,-88.85723z" fill="#453e3c" stroke="#000000" stroke-width="1" stroke-linecap="round"/><path d="M12.37646,222.37802l-3.62008,-2.4391l-30.80179,-15.8689l25.24574,-69.6703l37.5256,13.19582z" fill="#fbfafa" stroke="#000000" stroke-width="1" stroke-linecap="round"/><path d="M13.35265,222.25487l-29.90405,-16.29953l23.72946,-63.76666l31.20685,11.53355z" fill="url(#color-9)" stroke="#000000" stroke-width="1" stroke-linecap="round"/><path d="M35.00019,164.93922l-27.58494,-11.75251l2.7844,-6.857l27.62144,9.52645z" fill="#161c21" stroke="#000000" stroke-width="1" stroke-linecap="round"/><path d="M165.28646,290.65476l31.56448,-89.23091l90.40733,33.65735l-24.05061,73.16903z" fill="#fbfafa" stroke="#000000" stroke-width="1" stroke-linecap="round"/><path d="M170.40456,292.54783l28.63957,-81.44379l79.81714,27.69442l-23.15835,67.97885z" fill="url(#color-10)" stroke="#000000" stroke-width="1" stroke-linecap="round"/><path d="M271.46418,246.03907l-76.74808,-24.74945l3.36829,-8.51744l75.44164,26.34236z" fill="#161c21" stroke="#000000" stroke-width="1" stroke-linecap="round"/><path d="M296.49963,313.98691l-24.24766,-4.79515l25.08154,-76.63132l23.0215,8.28205z" fill="#0a0c0a" stroke="#000000" stroke-width="1" stroke-linecap="round"/><path d="M296.96857,314.2451l-24.57975,-4.91194l19.93238,-63.04957l23.63642,8.12513z" fill="#592d2a" stroke="#000000" stroke-width="1" stroke-linecap="round"/><path d="M328.55403,239.01466l35.96003,10.21981l-19.87218,64.47006l-39.3922,-14.78506z" fill="#fbfafa" stroke="#000000" stroke-width="1" stroke-linecap="round"/><path d="M330.13234,244.6072l28.07028,9.31114l-18.01104,52.81061l-28.02467,-12.09372l19.02007,-49.84373z" fill="#0a0c0a" stroke="#000000" stroke-width="1" stroke-linecap="round"/><path d="M356.93176,333.13881l24.54691,-74.58039l11.61567,-2.25893l11.6777,0.7481l7.42265,2.23702l7.8259,4.80427l4.68385,6.31144l2.98877,1.05099l-29.32016,79.66523z" fill="#fbfafa" stroke="#000000" stroke-width="1" stroke-linecap="round"/><path d="M361.40031,334.75681l21.67855,-55.81213l37.4672,13.36185l-22.10553,58.08747z" fill="#281b1a" stroke="#000000" stroke-width="1" stroke-linecap="round"/><path d="M373.61081,340.35663l21.15855,-58.04733l20.07288,8.17804l-21.49063,57.93055z" fill="#592d2a" stroke="#000000" stroke-width="1" stroke-linecap="round"/><path d="M390.33912,284.29637l-5.95564,16.93632l-6.26034,-1.8283l6.67817,-16.86882z" fill="#292c26" stroke="#000000" stroke-width="1" stroke-linecap="round"/><path d="M397.78368,288.59337l12.90203,4.16383l-3.98867,12.40392l-14.08259,-3.45952z" fill="#292c26" stroke="#000000" stroke-width="1" stroke-linecap="round"/><path d="M413.47741,309.22462l-2.93949,-0.66052l5.68557,-14.0461l2.2662,0.98348z" fill="#292c26" stroke="#000000" stroke-width="1" stroke-linecap="round"/><path d="M421.35439,286.29387l-38.54008,-12.4331l4.27515,-9.50455l15.8251,-0.96523l8.16345,1.19148l9.49543,4.83165l5.8644,5.60712z" fill="#1a1a1a" stroke="#000000" stroke-width="1" stroke-linecap="round"/><path d="M521.09796,303.08424l-25.64717,77.17868l-60.22002,-23.60174l25.59241,-73.83959z" fill="#fbfafa" stroke="#000000" stroke-width="1" stroke-linecap="round"/><path d="M468.11584,288.74438l44.54863,16.03861l-21.31,66.43657l-47.03014,-17.47096l22.17304,-63.05458z" fill="#292c26" stroke="#000000" stroke-width="1" stroke-linecap="round"/><path d="M71.67599,53.36956l-17.68021,48.3619l-38.91443,-9.41668l16.2744,-44.36415z" fill="#f6f7f3" stroke="#000000" stroke-width="1" stroke-linecap="round"/><path d="M33.00757,53.4728l32.28081,5.28716l-13.60335,36.76839l-30.90796,-7.27504z" fill="#4e5959" stroke="#000000" stroke-width="1" stroke-linecap="round"/><path d="M235.62407,18.66158c-0.25281,-0.27919 -1.29127,-1.59839 0.12252,-3.08528c1.5939,-1.67634 3.11697,-0.21316 3.11697,-0.21316l0.64105,0.80599c2.71616,5.92247 5.16893,11.8846 7.54067,17.97987c2.90679,7.49275 7.55889,13.92909 10.96041,21.14769c6.92619,14.69859 11.09373,30.76172 18.12337,45.44068c0,0 0.9233,1.928 -1.07864,3.03876c-2.00192,1.11076 -2.92525,-0.81727 -2.92525,-0.81727c-7.03674,-14.69398 -11.20599,-30.776 -18.14374,-45.48398c-3.44269,-7.29841 -8.10593,-13.81065 -11.06092,-21.38352c-2.29899,-5.90823 -4.67336,-11.68788 -7.29642,-17.42984z" data-paper-data="{&quot;index&quot;:null}" fill="#000000" stroke="none" stroke-width="1" stroke-linecap="butt"/><path d="M362.40677,66.70525c1.18928,1.83944 -0.57637,3.21628 -0.57637,3.21628l-1.61896,1.25389c-1.2599,0.83445 -2.51986,1.6689 -3.7798,2.50336c-21.77612,12.13236 -43.12323,27.62037 -66.96811,33.93551c0,0 -2.08948,0.55146 -2.49699,-1.67903c-0.4075,-2.2305 1.68198,-2.78196 1.68198,-2.78196c23.4291,-6.16024 44.43931,-21.55947 65.83438,-33.45055c1.21124,-0.80356 2.42253,-1.60707 3.63384,-2.41062l1.33506,-1.04949c0,0 1.76567,-1.37681 2.95498,0.46263z" data-paper-data="{&quot;index&quot;:null}" fill="#000000" stroke="none" stroke-width="1" stroke-linecap="butt"/><path d="M252.64465,105.79438c2.17674,2.76645 1.76982,4.85665 1.84599,8.31421c0.1381,6.26863 -0.48516,11.61901 -2.24035,17.66392c-2.93661,7.49169 -7.16376,18.2406 -15.46951,20.71765c-7.08512,0.12878 -14.34403,-0.6102 -18.90013,-6.76855c-1.49036,-2.01448 -2.10304,-5.24261 -2.83188,-7.628c-0.17282,-9.35392 3.58567,-18.60191 8.658,-26.29947c2.3351,-4.04309 4.86048,-7.76534 7.73151,-11.44098c1.5945,-2.04137 2.88943,-3.94402 5.56421,-4.00275l0.703,-0.13181c0,0 0.16606,-0.03398 0.32382,-0.14828c6.20267,0.84628 10.30727,5.0701 14.61532,9.72404z" data-paper-data="{&quot;noHover&quot;:false,&quot;origItem&quot;:[&quot;Path&quot;,{&quot;applyMatrix&quot;:true,&quot;segments&quot;:[[[463.02145,118.92474],[11.94148,-3.76279],[-0.18782,0.34138]],[462.56327,119.46889],[[461.40637,120.30632],[0,0],[-4.78797,2.38894]],[[454.7767,132.28436],[1.14195,-5.05316],[-2.05618,9.09862]],[[450.59007,159.5336],[0.77318,-9.30587],[-2.60543,18.25199]],[[457.33707,214.37126],[-8.29546,-16.77166],[3.35404,3.69263]],[[468.94246,225.73925],[-4.41495,-2.37184],[13.49664,7.25079]],[[508.8316,221.85864],[-12.70549,6.27955],[12.90926,-11.56875]],[[519.07651,171.27858],[1.08192,16.05697],[-1.9841,-12.43181]],[[508.09898,137.49402],[5.59959,11.22069],[-3.08854,-6.18895]],[[497.69355,124.0439],[6.29819,3.14621],[-11.7641,-4.74133]]],&quot;closed&quot;:true}]}" fill="#ffffff" stroke="none" stroke-width="0.5" stroke-linecap="butt"/><path d="M298.67902,132.43118c2.58448,1.56529 2.2849,4.29961 2.04268,6.99512c-0.56235,6.25806 -3.27602,12.22366 -6.14211,17.71636c-3.83854,7.35904 -5.41699,17.87653 -14.11614,20.95159c-8.25387,3.68483 -16.74042,-6.22753 -20.55715,-12.11793c-1.49213,-3.0807 0.42693,-5.21229 1.60267,-8.12879c2.159,-5.35552 4.59739,-10.59883 7.49598,-15.58748c2.8223,-4.86429 4.78662,-10.55007 8.12933,-15.05384c0.53404,-0.71954 2.07514,-4.04882 3.00732,-4.14507c0.01386,-0.00143 0.02777,-0.00266 0.04162,-0.0037c0.37632,0.05906 0.75452,0.12534 1.13034,0.1987c0.25801,0.07701 0.51825,0.15226 0.78121,0.17729l0.14303,0.01721c6.13039,1.38707 12.11099,4.64 16.44121,8.98055z" data-paper-data="{&quot;noHover&quot;:false,&quot;origItem&quot;:[&quot;Path&quot;,{&quot;applyMatrix&quot;:true,&quot;segments&quot;:[[[566.35295,130.72043],[12.27227,-2.72292],[0,0]],[[566.08002,130.81116],[0,0],[-0.49701,0.17916]],[[564.51821,131.15611],[0.53239,-0.0809],[-0.7424,0.18804]],[[562.30763,131.75969],[0.73107,-0.21435],[-0.02414,0.0137]],[[562.23565,131.80185],[0.02385,-0.01442],[-1.60395,0.96966]],[[560.34435,141.85964],[0.35189,-1.75725],[-2.20257,10.99907]],[[558.52911,175.96742],[0.95361,-11.20702],[-0.98546,11.49706]],[[558.25012,210.46726],[-0.66539,-11.52947],[0.36236,6.27868]],[[562.26585,226.51965],[-5.32806,-4.29887],[11.93061,7.39711]],[[609.69817,230.88926],[-11.78467,13.70908],[13.11047,-12.98617]],[[617.29234,181.04419],[-0.66268,16.58674],[0.49649,-12.38105]],[[613.32811,143.83386],[4.32361,11.79936],[-1.86229,-5.08228]],[[603.68782,132.93587],[6.0106,0.62561],[-11.53671,-4.15555]]],&quot;closed&quot;:true}]}" fill="#ffffff" stroke="none" stroke-width="0.5" stroke-linecap="butt"/><path d="M245.53547,130.89688c0.64809,-1.37357 2.28695,-1.96169 3.66052,-1.31361c1.37357,0.64809 1.96169,2.28696 1.31361,3.66053c-0.64808,1.37357 -2.28695,1.96169 -3.66052,1.3136c-1.37357,-0.64809 -1.96169,-2.28695 -1.31361,-3.66052z" fill="#000000" stroke="none" stroke-width="0.5" stroke-linecap="butt"/><path d="M288.24879,155.09433c0.64808,-1.37357 2.28695,-1.96169 3.66052,-1.3136c1.37357,0.64809 1.96169,2.28696 1.31361,3.66053c-0.64808,1.37357 -2.28696,1.96169 -3.66053,1.3136c-1.37357,-0.64809 -1.96169,-2.28696 -1.3136,-3.66053z" fill="#000000" stroke="none" stroke-width="0.5" stroke-linecap="butt"/><path d="M189.03208,160.51967c-2.82939,2.12765 -5.47846,4.47706 -7.41313,7.1775c-1.88776,2.63496 -3.2801,5.82975 -4.74972,8.70778c-4.54968,8.90762 -8.94085,18.07126 -12.68429,27.3457c-0.25603,0.63396 -0.89919,2.63941 -1.68907,4.20915c1.28774,-0.85717 2.67356,-1.45623 4.12901,-2.10621c3.78732,-1.69136 8.74467,-1.91125 12.83408,-2.41252c10.12471,-1.24105 20.58067,-0.52369 30.73103,0.14026c10.12073,0.80157 20.42203,3.65815 28.26571,10.31912c3.76452,3.05029 9.04429,5.20948 12.15979,8.91285c3.61404,4.29598 5.74381,9.28054 6.46807,14.82142c0.12507,1.07284 0.43973,1.94847 0.56204,2.9936c0.18803,1.60657 1.78393,2.95485 2.43283,4.33017c0.27341,0.57949 2.28689,-0.60609 2.35347,-1.07798c0.43952,-3.1153 0.15996,-5.73359 1.99959,-8.4942c0.6236,-0.52175 1.31241,-1.26024 1.90321,-2.08216c0.49333,-1.44855 0.95684,-2.91426 1.39847,-4.38908c-0.07915,-0.64901 -0.19192,-1.28612 -0.00416,-2.05037c0.28868,-1.17504 0.81826,-1.95583 1.39553,-2.84937c0.38722,-1.4268 0.76232,-2.85385 1.13237,-4.27403c-0.10378,-1.58129 -0.60148,-3.18796 -1.24462,-4.28911c0.01127,-2.51463 -1.824,-5.30323 -2.99864,-7.48763c-0.86902,-1.61605 -1.45253,-4.10895 -2.67936,-5.47723c-2.65531,-2.96145 -6.0598,-5.46128 -8.91588,-8.28033c-2.39629,-2.30541 -5.1119,-3.84775 -7.71255,-5.84734c-5.49532,-4.22523 -10.86885,-8.19919 -16.94948,-11.5863c-8.51345,-4.74228 -16.77928,-10.47892 -26.03621,-13.7093c-3.26598,-1.13446 -6.52337,-1.22174 -9.83932,-2.01135c-1.30267,-0.3102 -3.26233,-1.29616 -4.52781,-0.59413zM191.32928,158.85867c0.96726,0.16022 1.93764,0.50541 2.90228,0.7356c3.36071,0.80196 6.66565,0.90129 9.98187,2.0532c9.34125,3.26091 17.68174,9.0299 26.27291,13.81547c6.13878,3.41951 11.57937,7.42648 17.12184,11.69845c2.64807,2.04106 5.41394,3.62071 7.85711,5.97132c2.86737,2.83005 6.38905,5.32853 8.99481,8.36336c1.31267,1.52882 1.92848,4.00053 2.8745,5.75775c1.19397,2.21778 3.17477,5.24107 3.12406,7.80078c0.28052,0.43418 0.50746,0.85605 0.68745,1.26764c0.0878,-0.33647 0.17563,-0.67221 0.26359,-1.00713c2.58377,-9.83522 3.10938,-19.9569 1.19778,-29.92673c-0.87385,-2.52167 -1.92916,-5.02725 -3.18468,-7.42729c-4.5306,-2.79772 -8.39146,-7.55857 -10.78515,-11.28225c-0.35341,-0.75302 -0.55764,-1.44517 -0.64696,-2.09937c-0.90183,-0.60629 -1.84318,-1.16306 -2.82527,-1.66439c-6.9657,-3.55596 -13.47741,-6.99883 -20.71993,-8.97265c-3.67202,-0.05025 -7.32793,-0.47966 -10.58734,-1.80768c-8.6825,-1.05077 -19.85535,-1.8564 -26.94917,2.95765c-1.77559,1.1992 -3.68572,2.44247 -5.57969,3.76628zM264.07223,240.51793c-0.01781,0.11871 -0.03458,0.23903 -0.05043,0.36109c-0.1794,1.38164 0.27321,3.29718 -0.75951,4.37942c-4.40569,4.61697 -7.23678,-4.39012 -7.66606,-7.42931c-0.69097,-5.28623 -2.7118,-9.94242 -6.13112,-14.05324c-1.92023,-2.30857 -4.80048,-3.3339 -7.22612,-4.89959c-1.67139,-1.07884 -3.1949,-2.56847 -4.74098,-3.82139c-7.60501,-6.45743 -17.60505,-9.20021 -27.41618,-9.9775c-10.05283,-0.65733 -20.41284,-1.37664 -30.44036,-0.1475c-4.60288,0.56421 -9.5175,0.9988 -13.77063,2.90644c-1.42203,0.63782 -3.647,2.97951 -4.99097,3.23554c-0.57658,0.10984 -1.48714,0.05654 -1.69006,-0.49422c-0.22142,-0.60098 0.56709,-1.14915 0.87835,-1.7089c1.02481,-1.84295 1.93377,-3.71608 2.72583,-5.67957c3.76005,-9.3156 8.17121,-18.51819 12.73934,-27.46642c1.50851,-2.95419 2.94197,-6.23457 4.89068,-8.93231c1.97926,-2.74004 4.64384,-5.12756 7.49424,-7.29275c0.12227,-0.25598 0.38478,-0.35337 0.51433,-0.38688c2.53885,-1.89162 5.19962,-3.61545 7.63686,-5.26152c6.49772,-4.3693 16.01234,-4.37915 24.33887,-3.594c-1.3687,-0.97175 -2.61859,-2.18462 -3.71018,-3.69256c-1.61622,-2.23266 -2.31687,-5.63291 -3.0882,-8.26097c-0.25623,-9.70356 3.5883,-19.27114 8.8543,-27.25886c0.99776,-1.72931 2.02582,-3.40113 3.10053,-5.03532c-0.17947,-0.13945 -0.37195,-0.39732 -0.22557,-0.81959c0.24564,-0.70863 0.95427,-0.463 0.95427,-0.463l0.09999,0.04362c1.22075,-1.79461 2.50416,-3.54906 3.87258,-5.29054c1.28555,-1.63601 2.43226,-3.12541 4.04204,-3.93695l0.00002,0.00001c-0.03209,-0.08207 -0.05218,-0.17951 -0.05482,-0.29522c-0.0171,-0.74981 0.73271,-0.76689 0.73271,-0.76689c8.51223,-0.10414 13.36075,4.60214 18.76604,10.3782c2.04973,2.609 1.98436,3.68857 1.98804,6.96533c0.00335,2.99041 0.32648,6.03825 0.33744,9.02272c0.01416,3.84898 -1.39928,7.76123 -2.4536,11.3918c-3.0315,7.74816 -7.21857,18.10177 -15.43331,21.28614c6.03941,2.05173 11.6863,5.00789 17.65682,8.05581c0.74503,0.38035 1.46777,0.79098 2.16869,1.22957c0.28716,-1.78322 1.29625,-3.42397 2.14102,-5.51534c2.19173,-5.42602 4.65216,-10.69971 7.58957,-15.75517c0.24034,-0.41301 0.47427,-0.83163 0.70317,-1.25469c-0.06686,-0.13119 -0.09528,-0.30276 -0.03845,-0.52484c0.10574,-0.41321 0.38634,-0.53129 0.60871,-0.55628c2.22521,-4.31916 4.06143,-8.98936 6.91617,-12.83954c0.64399,-0.86856 1.34609,-2.40364 2.2493,-3.50002c-0.04877,-0.00427 -0.09753,-0.0084 -0.14627,-0.01241c0,0 -0.74747,-0.06149 -0.68598,-0.80897c0.06149,-0.74747 0.80897,-0.68599 0.80897,-0.68599c0.67748,0.05574 1.35775,0.1351 2.03878,0.2372c0.33866,-0.01198 0.67965,0.07417 1.02204,0.17013c0.42402,0.07757 0.84794,0.16377 1.27129,0.25839l0.12027,0.01431c0,0 0.10103,0.0121 0.22422,0.06458l-0.00001,0.00001c6.25218,1.46595 12.35111,4.75975 16.74025,9.19423c3.00968,1.91017 2.88857,5.08119 2.59419,8.29222c-0.2065,2.25243 -0.67615,4.46033 -1.32582,6.62148c0.07382,0.02215 0.14563,0.04448 0.21533,0.06699l0.12136,0.04207c0,0 0.70863,0.24564 0.463,0.95427c-0.24564,0.70863 -0.95427,0.463 -0.95427,0.463l-0.12136,-0.04207c-0.05738,-0.02207 -0.11672,-0.04378 -0.17794,-0.06514c-1.19495,3.52881 -2.82944,6.9293 -4.53086,10.1916c-4.07996,7.82006 -5.64778,18.27532 -14.84534,21.61979c-3.18948,1.36222 -6.36328,1.02397 -9.32532,-0.27703c0.90121,1.90901 1.68681,3.86801 2.36428,5.83885c1.99286,10.21566 1.4522,20.61577 -1.19593,30.69596c-1.16872,4.44768 -2.31542,9.03687 -3.66146,13.54482c0.05584,0.42888 0.09437,0.86979 0.01454,1.35712c-0.17994,1.09844 -0.77964,2.3144 -1.53345,3.4035c-0.73009,2.13041 -1.52468,4.22361 -2.40853,6.2547c0,0 -0.29926,0.68771 -0.98697,0.38844c-0.08508,-0.03703 -0.15506,-0.08 -0.21237,-0.12688zM226.62364,150.97092c2.80658,0.27237 5.47147,0.78422 8.04551,1.47787c0.70303,0.00853 1.40742,0.00417 2.11045,-0.00861c8.30575,-2.47705 12.48763,-13.19448 15.42424,-20.68617c0.40915,-1.4091 0.75699,-2.77802 1.04813,-4.12836c-0.19668,-0.09196 -0.31586,-0.24902 -0.31586,-0.24902l-0.00001,0.00001c-2.60587,-3.48046 -6.91936,-7.2403 -10.52961,-9.76331c-2.60115,-1.81781 -5.85769,-3.09378 -8.08967,-5.35109c-1.87612,-2.17105 -4.99625,-3.74463 -7.488,-5.43699c-1.06998,1.62357 -2.09415,3.28447 -3.08826,5.00574c-5.07233,7.69755 -8.82181,16.88284 -8.64899,26.23676c0.72884,2.38539 1.33209,5.60213 2.82245,7.61661c1.77369,2.39746 3.95178,3.97164 6.36861,4.99262c0.80124,0.09688 1.58307,0.19612 2.34101,0.29394zM292.36366,146.73391c-3.73477,-1.24576 -7.2241,-2.95593 -11.09861,-3.83736c-3.76735,-0.85705 -7.6554,-1.14712 -11.43783,-2.01363c-0.25445,0.47575 -0.51497,0.94592 -0.78355,1.40882c-2.89859,4.98864 -5.32791,10.18556 -7.48691,15.54109c-0.87341,2.16655 -2.1605,3.89267 -2.15299,5.90004c4.75401,3.36341 8.43009,8.04914 11.18918,13.23597c3.10403,1.82249 6.50355,2.57885 9.87113,1.07544c8.69915,-3.07507 10.23024,-13.56034 14.06879,-20.91936c1.64734,-3.15704 3.24576,-6.45566 4.41406,-9.87844c-2.10966,-0.42929 -4.96763,-0.6097 -6.58327,-0.51256zM267.66509,174.88981c-2.08139,-3.32614 -4.60201,-6.34764 -7.61927,-8.7908c1.75512,2.68435 4.44192,6.15069 7.61927,8.7908z" fill="#000000" stroke="none" stroke-width="0.5" stroke-linecap="butt"/><path d="M189.32177,160.41957c1.26548,-0.70203 3.22777,0.28196 4.53044,0.59216c3.31595,0.78961 6.58059,0.87268 9.84657,2.00714c9.25693,3.23038 17.56079,8.96504 26.07425,13.70733c6.08063,3.38711 11.48267,7.3867 16.97798,11.61193c2.60066,1.99959 5.32027,3.5542 7.71656,5.85961c2.85608,2.81906 6.26137,5.3306 8.91668,8.29205c1.22683,1.36828 1.8097,3.86705 2.67872,5.4831c1.17464,2.18439 3.00829,4.97971 2.99702,7.49435c0.64315,1.10115 1.13966,2.71116 1.24344,4.29244c-0.37005,1.42018 -0.74684,2.851 -1.13405,4.27781c-0.57727,0.89355 -1.10825,1.67696 -1.39693,2.852c-0.18775,0.76425 -0.07582,1.40277 0.00333,2.05178c-0.44163,1.47482 -0.90738,2.94386 -1.40071,4.39242c-0.5908,0.82192 -1.28115,1.56242 -1.90475,2.08416c-1.83963,2.76062 -1.56455,5.38373 -2.00407,8.49903c-0.06658,0.47189 -2.0816,1.65886 -2.35501,1.07938c-0.64889,-1.37532 -2.31104,-2.7985 -2.49907,-4.40508c-0.12232,-1.04513 -0.4381,-1.91971 -0.56317,-2.99255c-0.72426,-5.54088 -2.85911,-10.51977 -6.47315,-14.81575c-3.1155,-3.70337 -8.31639,-5.8011 -12.08091,-8.85139c-7.84368,-6.66097 -18.23232,-9.53502 -28.35305,-10.3366c-10.15037,-0.66395 -20.60807,-1.39127 -30.73278,-0.15022c-4.08941,0.50127 -8.94713,0.71263 -12.73445,2.40399c-1.45545,0.64998 -2.94062,1.26032 -4.22837,2.11749c0.78988,-1.56973 1.43272,-3.57862 1.68875,-4.21259c3.74343,-9.27443 8.1405,-18.4647 12.69019,-27.37233c1.46962,-2.87803 2.86735,-6.08085 4.75511,-8.71581c1.93467,-2.70044 4.59086,-5.05692 7.42024,-7.18457z" data-paper-data="{&quot;noHover&quot;:false,&quot;origItem&quot;:[&quot;Path&quot;,{&quot;applyMatrix&quot;:true,&quot;segments&quot;:[[[862.12299,132.15602],[0,0],[-2.82939,2.12765]],[[854.70986,139.33352],[1.93467,-2.70044],[-1.88776,2.63496]],[[849.96014,148.0413],[1.46962,-2.87803],[-4.54968,8.90762]],[[837.27585,175.387],[3.74343,-9.27443],[-0.25603,0.63396]],[[835.58678,179.59614],[0.78988,-1.56973],[1.28774,-0.85717]],[[839.7158,177.48993],[-1.45545,0.64998],[3.78732,-1.69136]],[[852.54988,175.07741],[-4.08941,0.50127],[10.12471,-1.24105]],[[883.28091,175.21767],[-10.15037,-0.66395],[10.12073,0.80157]],[[911.54662,185.53679],[-7.84368,-6.66097],[3.76452,3.05029]],[[923.70642,194.44965],[-3.1155,-3.70337],[3.61404,4.29598]],[[930.17449,209.27107],[-0.72426,-5.54088],[0.12507,1.07284]],[[930.73653,212.26466],[-0.12232,-1.04513],[0.18803,1.60657]],[[933.16936,216.59483],[-0.64889,-1.37532],[0.27341,0.57949]],[[935.52283,215.51685],[-0.06658,0.47189],[0.43952,-3.1153]],[[937.52242,207.02264],[-1.83963,2.76062],[0.6236,-0.52175]],[[939.42563,204.94048],[-0.5908,0.82192],[0.49333,-1.44855]],[[940.8241,200.5514],[-0.44163,1.47482],[-0.07915,-0.64901]],[[940.81994,198.50103],[-0.18775,0.76425],[0.28868,-1.17504]],[[942.21547,195.65166],[-0.57727,0.89355],[0.38722,-1.4268]],[[943.34785,191.37763],[-0.37005,1.42018],[-0.10378,-1.58129]],[[942.10322,187.08852],[0.64315,1.10115],[0.01127,-2.51463]],[[939.10458,179.60089],[1.17464,2.18439],[-0.86902,-1.61605]],[[936.42522,174.12367],[1.22683,1.36828],[-2.65531,-2.96145]],[[927.50934,165.84333],[2.85608,2.81906],[-2.39629,-2.30541]],[[919.79678,159.996],[2.60066,1.99959],[-5.49532,-4.22523]],[[902.84731,148.4097],[6.08063,3.38711],[-8.51345,-4.74228]],[[876.81109,134.7004],[9.25693,3.23038],[-3.26598,-1.13446]],[[866.97178,132.68905],[3.31595,0.78961],[-1.30267,-0.3102]],[[862.44397,132.09491],[1.26548,-0.70203],[0,0]]],&quot;closed&quot;:true}]}" fill="#ffffff" stroke="none" stroke-width="0.5" stroke-linecap="butt"/><path d="M196.86667,155.06573c7.09382,-4.81405 18.29062,-4.02827 26.97312,-2.9775c3.2594,1.32802 6.9339,1.75394 10.60593,1.80418c7.24252,1.97382 13.79389,5.43654 20.75958,8.9925c0.98209,0.50133 1.92652,1.06267 2.82835,1.66897c0.08932,0.6542 0.29544,1.34982 0.64884,2.10284c2.39369,3.72369 6.2597,8.50564 10.7903,11.30336c1.25552,2.40004 2.31008,4.91527 3.18394,7.43694c1.91161,9.96983 1.37231,20.11801 -1.21146,29.95323c-0.08796,0.33492 -0.1764,0.67127 -0.2642,1.00774c-0.17999,-0.41159 -0.47711,-0.9047 -0.75763,-1.33888c0.05071,-2.55971 -1.93265,-5.58025 -3.12663,-7.79804c-0.94603,-1.75723 -1.56389,-4.2264 -2.87656,-5.75521c-2.60577,-3.03483 -6.12885,-5.53135 -8.99622,-8.3614c-2.44317,-2.3506 -5.20989,-3.92897 -7.85796,-5.97003c-5.54247,-4.27197 -10.90252,-8.21999 -17.0413,-11.6395c-8.59117,-4.78557 -16.92655,-10.56197 -26.2678,-13.82287c-3.31621,-1.15191 -6.61954,-1.25436 -9.98024,-2.05632c-0.96464,-0.23019 -2.02559,-0.61778 -2.99285,-0.77799c1.89397,-1.32381 3.80721,-2.57281 5.5828,-3.77201z" data-paper-data="{&quot;noHover&quot;:false,&quot;origItem&quot;:[&quot;Path&quot;,{&quot;applyMatrix&quot;:true,&quot;segments&quot;:[[[864.42019,130.49502],[1.89397,-1.32381],[0.96726,0.16022]],[[867.32247,131.23062],[-0.96464,-0.23019],[3.36071,0.80196]],[[877.30434,133.28381],[-3.31621,-1.15191],[9.34125,3.26091]],[[903.57725,147.09928],[-8.59117,-4.78557],[6.13878,3.41951]],[[920.69909,158.79773],[-5.54247,-4.27197],[2.64807,2.04106]],[[928.5562,164.76905],[-2.44317,-2.3506],[2.86737,2.83005]],[[937.55101,173.13241],[-2.60577,-3.03483],[1.31267,1.52882]],[[940.42551,178.89016],[-0.94603,-1.75723],[1.19397,2.21778]],[[943.54957,186.69094],[0.05071,-2.55971],[0.28052,0.43418]],[[944.23702,187.95859],[-0.17999,-0.41159],[0.0878,-0.33647]],[[944.50061,186.95145],[-0.08796,0.33492],[2.58377,-9.83522]],[[945.69838,157.02472],[1.91161,9.96983],[-0.87385,-2.52167]],[[942.51371,149.59743],[1.25552,2.40004],[-4.5306,-2.79772]],[[931.72856,138.31518],[2.39369,3.72369],[-0.35341,-0.75302]],[[931.08159,136.21581],[0.08932,0.6542],[-0.90183,-0.60629]],[[928.25632,134.55141],[0.98209,0.50133],[-6.9657,-3.55596]],[[907.53639,125.57876],[7.24252,1.97382],[-3.67202,-0.05025]],[[896.94905,123.77109],[3.2594,1.32802],[-8.6825,-1.05077]],[[869.99988,126.72873],[7.09382,-4.81405],[-1.77559,1.1992]]],&quot;closed&quot;:true}]}" fill="#ffffff" stroke="none" stroke-width="0.5" stroke-linecap="butt"/></g></g></g></svg>