<svg version="1.1" xmlns="http://www.w3.org/2000/svg" xmlns:xlink="http://www.w3.org/1999/xlink" width="2878.25006" height="1619.57958" viewBox="0,0,2878.25006,1619.57958"><g transform="translate(1119.12503,629.78979)"><g stroke-miterlimit="10"><path d="M-1119.12503,989.78979v-1619.57958h2878.25006v1619.57958z" fill="none" stroke="#000000" stroke-width="0" stroke-linecap="butt"/><g stroke-width="1"><path d="M340.42117,333.71642l-23.23587,-42.8111l110.12791,0.2476l39.46477,42.41259z" fill="#cedce9" stroke="#000000" stroke-linecap="round"/><path d="M477.25056,331.32672c-2.97997,0.47314 -5.90988,0.74531 -8.81051,0.9425c0.01973,0.07212 0.02998,0.14732 0.03007,0.22583c0.00228,1.91197 -6.0658,1.91921 -6.0658,1.91921c-26.80081,0.032 -53.60151,0.06401 -80.40225,0.09602c-6.8966,0.00824 -24.05823,-0.83868 -29.14345,0.31095c-2.9292,0.66223 -5.02684,0.59952 -8.78108,0.69034c-0.42373,0.01024 -1.19446,0.03204 -1.87547,0.04565c3.63132,0.81226 1.8855,8.36093 1.88804,10.47026c0.01067,8.92259 0.0213,17.84517 0.03197,26.76781c0.00188,1.59331 0.00379,3.18666 0.0057,4.77997c0.00077,0.63734 -1.06431,2.45468 0.00228,1.912c4.058,-2.0646 11.98357,-0.96662 21.23719,-0.98136c18.24086,-0.0291 37.76898,-0.66703 55.68556,0.34556c32.71715,2.02253 67.88679,-1.31327 100.34317,0.9449c27.33593,2.12046 60.05554,2.27542 88.2166,2.24179c7.07951,-0.00843 14.15888,-0.0169 21.23836,-0.02534c1.06518,-0.00126 2.73756,-0.04844 4.46911,-0.10008c-1.74303,-0.97876 0.07788,-3.35283 0.07629,-4.68535c-0.00594,-4.97795 5.27962,-13.57116 -1.22709,-18.03579c-5.75176,-5.42394 -9.39233,-10.64834 -18.77058,-16.05332c-6.91953,-3.988 -17.68811,-7.51745 -23.41411,-11.48024c-2.77656,-2.36255 -5.2576,-0.66871 -14.29095,-1.20547c-19.98846,-1.18771 -40.03418,-0.90818 -60.6821,-0.88352c-7.5263,0.00899 -16.97814,0.50178 -24.27242,0.02899c-1.53976,-0.09978 -4.43371,-0.47416 -6.60294,-0.78099c3.96805,0.96097 -5.08274,1.90589 -8.88562,2.50967zM381.99714,330.68644c20.2552,-0.0242 40.51036,-0.0484 60.76551,-0.07258c0.58419,-0.09275 1.16828,-0.18547 1.75247,-0.27823c7.69491,-1.2217 14.64373,-0.90869 21.2367,-1.45935c8.98487,-0.75046 14.35674,-3.24812 23.62723,-3.8522c5.32548,-0.34701 20.07797,0.73017 27.62763,0.72115c20.47124,-0.02445 40.91961,-0.41769 60.6821,0.88352c11.10178,0.73098 20.48158,-0.73114 25.67823,3.69078c0.76729,1.68119 6.89382,2.7252 10.09907,4.01535c4.89839,1.97166 8.99409,4.89547 12.78529,7.08041c9.39837,5.41654 13.53462,10.99428 19.42979,16.55343c5.26935,5.86093 1.84415,13.14065 1.85143,19.2443c0.00403,3.37448 1.69474,5.75082 -6.0578,8.61119c-2.70341,0.99745 -27.69105,0.03306 -31.8575,0.03804c-29.04677,0.0347 -62.98614,-0.16702 -91.16024,-2.35248c-30.95224,-2.81342 -67.78766,1.07206 -99.77975,-0.90565c-25.7808,-1.79874 -65.56517,3.12252 -86.68333,-3.1023c-2.0908,-0.61632 -0.00679,-5.67309 -0.008,-6.69196c-0.01067,-8.92259 -0.0213,-17.84517 -0.03197,-26.76781c-0.00354,-2.98315 -4.1856,-10.10058 2.143,-12.3296c11.04377,-3.88979 31.72207,-3.00677 47.90044,-3.02609z" fill="#000000" stroke="none" stroke-linecap="butt"/><path d="M468.35522,332.1775c2.90059,-0.19717 5.86581,-0.47192 8.84593,-0.94506c3.80287,-0.60376 12.88968,-1.54991 8.9215,-2.51084c2.16921,0.30684 5.08731,0.68113 6.62692,0.78095c7.29428,0.47278 16.83084,-0.01531 24.35695,-0.0243c20.64781,-0.02465 40.82371,-0.27753 60.81213,0.91016c9.03334,0.53676 11.53322,-1.14986 14.30974,1.21269c5.72606,3.96275 16.54014,7.52065 23.45976,11.50866c9.37827,5.4049 13.03135,10.66567 18.78311,16.08958c6.50678,4.46463 1.19273,13.09098 1.19868,18.06891c0.00158,1.33251 -1.83066,3.71337 -0.08758,4.69211c-1.73142,0.0516 -3.40612,0.10003 -4.47137,0.10131c-7.07949,0.00845 -14.17127,0.02293 -21.25075,0.03137c-28.1612,0.03363 -61.01363,-0.0879 -88.34958,-2.20836c-32.45639,-2.25819 -67.94754,1.05947 -100.66474,-0.96305c-17.91657,-1.01259 -37.49996,-0.39638 -55.74083,-0.36734c-9.2536,0.01476 -17.18636,-1.08731 -21.24437,0.97726c-1.06659,0.54263 -0.00608,-1.27748 -0.00685,-1.91484c-0.0019,-1.59328 -0.0142,-3.19437 -0.01611,-4.78768c-0.01063,-8.92261 -0.03399,-17.89822 -0.04466,-26.82086c-0.00254,-2.10936 1.76168,-9.67628 -1.86966,-10.48858c0.68111,-0.01367 1.45239,-0.0359 1.8762,-0.04617c3.75411,-0.09077 5.85654,-0.03127 8.78563,-0.69348c5.08522,-1.14961 22.26239,-0.31161 29.15897,-0.31985c26.80088,-0.032 53.74441,-0.10219 80.54515,-0.1342c0,0 6.09787,-0.01053 6.09559,-1.92253c-0.0001,-0.07847 -0.00964,-0.15373 -0.02938,-0.22588z" fill="#c9c9c9" stroke="none" stroke-linecap="butt"/><path d="M553.43144,339.08551c-0.00028,-0.2217 -0.08474,-0.59289 -0.16552,-0.95754c-0.31242,0.1484 -0.77847,0.27512 -1.37791,0.38317c-1.79719,0.57837 -4.52474,0.58162 -4.52474,0.58162c-23.11343,0.0276 -36.45732,5.11926 -44.62185,10.46832c-0.96052,0.60691 -0.87475,1.33667 -0.87394,2.01393c0.00022,0.19271 -0.05791,0.49902 -0.12145,0.81586c0.06097,-0.10202 0.21347,-0.18603 0.52401,-0.2402c1.37217,-0.23933 13.30564,1.20097 14.76875,0.36226c0.43971,-0.25204 -2.15858,-0.29635 -2.01561,-0.58017c1.75825,-3.48932 20.44311,-8.78632 29.62949,-10.24487c2.38259,-0.37829 5.06501,-0.57039 7.73175,-0.66009c-1.04326,-0.51039 1.04774,-1.29602 1.04696,-1.94221zM501.71419,352.54917c-0.13676,0.67991 -0.25815,1.3298 0.1555,0.93784c0.28273,-0.26783 -0.12635,-0.64289 -0.1555,-0.93784zM491.88449,347.86388c8.66639,-5.16186 20.19511,-9.87278 38.16767,-11.74302c1.68754,-0.83344 5.1704,-0.8376 5.1704,-0.8376l3.03399,-0.00361c6.87004,-0.00818 10.5038,-0.76667 17.88313,-0.77548c10.2481,-0.01223 12.63136,6.40576 7.27464,8.2925c-3.38026,1.19058 -8.80413,1.5864 -13.33014,2.30497c-13.3971,2.12704 -18.36176,8.19931 -33.04081,11.23523c-15.55792,3.21767 -32.69853,-3.70909 -25.15889,-8.47297z" fill="#000000" stroke="none" stroke-linecap="butt"/><path d="M553.49136,338.06366c0.08098,0.36465 0.1795,0.74112 0.17975,0.96283c0.00077,0.64618 -2.06531,1.44354 -1.02204,1.954c-2.66677,0.08971 -5.36459,0.27404 -7.74725,0.65234c-9.18649,1.45856 -27.96157,6.72894 -29.71975,10.21825c-0.14312,0.28384 2.1672,0.49639 1.72746,0.74845c-1.46314,0.83868 -13.49997,-0.62662 -14.87218,-0.3873c-0.31065,0.05419 -0.46167,0.13863 -0.52255,0.24074c0.06352,-0.31686 0.11041,-0.62754 0.11019,-0.82024c-0.0008,-0.67723 -0.11312,-1.42028 0.84745,-2.0272c8.16444,-5.34906 21.99013,-10.55357 45.10352,-10.58117c0,0 2.73993,0.00081 4.53711,-0.57754c0.59947,-0.10809 1.06584,-0.23479 1.37803,-0.38317z" fill="#ffffff" stroke="none" stroke-linecap="butt"/></g><g stroke-width="1"><path d="M177.02752,336.56551l39.46477,-42.41259l110.12791,-0.2476l-23.23587,42.8111z" fill="#cedce9" stroke="#000000" stroke-linecap="round"/><path d="M166.55497,334.32671c-3.80288,-0.60378 -12.85367,-1.5487 -8.88562,-2.50967c-2.16923,0.30683 -5.06318,0.68121 -6.60294,0.78099c-7.29428,0.47279 -16.74612,-0.02 -24.27242,-0.02899c-20.64792,-0.02466 -40.69364,-0.30419 -60.6821,0.88352c-9.03335,0.53676 -11.51439,-1.15708 -14.29095,1.20547c-5.726,3.96279 -16.49458,7.49224 -23.41411,11.48024c-9.37825,5.40498 -13.01882,10.62938 -18.77058,16.05332c-6.50671,4.46463 -1.22115,13.05784 -1.22709,18.03579c-0.00159,1.33252 1.81932,3.70659 0.07629,4.68535c1.73155,0.05164 3.40393,0.09882 4.46911,0.10008c7.07948,0.00844 14.15885,0.01691 21.23836,0.02534c28.16106,0.03363 60.88067,-0.12133 88.2166,-2.24179c32.45638,-2.25817 67.62602,1.07763 100.34317,-0.9449c17.91658,-1.01259 37.4447,-0.37466 55.68556,-0.34556c9.25362,0.01474 17.17919,-1.08324 21.23719,0.98136c1.06659,0.54268 0.00151,-1.27466 0.00228,-1.912c0.00191,-1.59331 0.00382,-3.18666 0.0057,-4.77997c0.01067,-8.92264 0.0213,-17.84522 0.03197,-26.76781c0.00254,-2.10933 -1.74328,-9.658 1.88804,-10.47026c-0.68101,-0.01361 -1.45174,-0.03541 -1.87547,-0.04565c-3.75424,-0.09082 -5.85188,-0.02811 -8.78108,-0.69034c-5.08522,-1.14963 -22.24685,-0.30271 -29.14345,-0.31095c-26.80074,-0.03201 -53.60144,-0.06402 -80.40225,-0.09602c0,0 -6.06808,-0.00724 -6.0658,-1.91921c0.00009,-0.07851 0.01034,-0.15371 0.03007,-0.22583c-2.90063,-0.19719 -5.83054,-0.46936 -8.81051,-0.9425zM261.80806,333.68636c16.17837,0.01932 36.85667,-0.8637 47.90044,3.02609c6.3286,2.22902 2.14654,9.34645 2.143,12.3296c-0.01067,8.92264 -0.0213,17.84522 -0.03197,26.76781c-0.00121,1.01887 2.0828,6.07564 -0.008,6.69196c-21.11816,6.22482 -60.90253,1.30356 -86.68333,3.1023c-31.99209,1.97771 -68.82751,-1.90777 -99.77975,0.90565c-28.1741,2.18546 -62.11347,2.38718 -91.16024,2.35248c-4.16645,-0.00498 -29.15409,0.95941 -31.8575,-0.03804c-7.75254,-2.86037 -6.06183,-5.23671 -6.0578,-8.61119c0.00728,-6.10365 -3.41792,-13.38337 1.85143,-19.2443c5.89517,-5.55915 10.03142,-11.13689 19.42979,-16.55343c3.7912,-2.18494 7.8869,-5.10875 12.78529,-7.08041c3.20525,-1.29015 9.33178,-2.33416 10.09907,-4.01535c5.19665,-4.42192 14.57645,-2.9598 25.67823,-3.69078c19.76249,-1.30121 40.21086,-0.90797 60.6821,-0.88352c7.54966,0.00902 22.30215,-1.06816 27.62763,-0.72115c9.27049,0.60408 14.64236,3.10174 23.62723,3.8522c6.59297,0.55066 13.54179,0.23765 21.2367,1.45935c0.58419,0.09276 1.16828,0.18548 1.75247,0.27823c20.25515,0.02418 40.51031,0.04838 60.76551,0.07258z" fill="#000000" stroke="none" stroke-linecap="butt"/><path d="M175.44989,335.17748c-0.01974,0.07215 -0.02928,0.14741 -0.02938,0.22588c-0.00228,1.912 6.09559,1.92253 6.09559,1.92253c26.80074,0.03201 53.74427,0.1022 80.54515,0.1342c6.89658,0.00824 24.07375,-0.82976 29.15897,0.31985c2.92909,0.66221 5.03152,0.60271 8.78563,0.69348c0.42381,0.01027 1.19509,0.0325 1.8762,0.04617c-3.63134,0.8123 -1.86712,8.37922 -1.86966,10.48858c-0.01067,8.92264 -0.03403,17.89825 -0.04466,26.82086c-0.00191,1.59331 -0.01421,3.1944 -0.01611,4.78768c-0.00077,0.63736 1.05974,2.45747 -0.00685,1.91484c-4.05801,-2.06457 -11.99077,-0.9625 -21.24437,-0.97726c-18.24087,-0.02904 -37.82426,-0.64525 -55.74083,0.36734c-32.7172,2.02252 -68.20835,-1.29514 -100.66474,0.96305c-27.33595,2.12046 -60.18838,2.24199 -88.34958,2.20836c-7.07948,-0.00844 -14.17126,-0.02292 -21.25075,-0.03137c-1.06525,-0.00128 -2.73995,-0.04971 -4.47137,-0.10131c1.74308,-0.97874 -0.08916,-3.3596 -0.08758,-4.69211c0.00595,-4.97793 -5.3081,-13.60428 1.19868,-18.06891c5.75176,-5.42391 9.40484,-10.68468 18.78311,-16.08958c6.91962,-3.98801 17.7337,-7.54591 23.45976,-11.50866c2.77652,-2.36255 5.2764,-0.67593 14.30974,-1.21269c19.98842,-1.18769 40.16432,-0.93481 60.81213,-0.91016c7.52611,0.00899 17.06267,0.49708 24.35695,0.0243c1.53961,-0.09982 4.45771,-0.47411 6.62692,-0.78095c-3.96818,0.96093 5.11863,1.90708 8.9215,2.51084c2.98012,0.47314 5.94534,0.74789 8.84593,0.94506z" fill="#c9c9c9" stroke="none" stroke-linecap="butt"/><path d="M90.37411,342.08559c-0.00078,0.64619 2.09022,1.43182 1.04696,1.94221c2.66674,0.0897 5.34916,0.2818 7.73175,0.66009c9.18638,1.45855 27.87124,6.75555 29.62949,10.24487c0.14297,0.28382 -2.45532,0.32813 -2.01561,0.58017c1.46311,0.83871 13.39658,-0.60159 14.76875,-0.36226c0.31054,0.05417 0.46304,0.13818 0.52401,0.2402c-0.06354,-0.31684 -0.12167,-0.62315 -0.12145,-0.81586c0.00081,-0.67726 0.08658,-1.40702 -0.87394,-2.01393c-8.16453,-5.34906 -21.50842,-10.44072 -44.62185,-10.46832c0,0 -2.72755,-0.00325 -4.52474,-0.58162c-0.59944,-0.10805 -1.06549,-0.23477 -1.37791,-0.38317c-0.08078,0.36465 -0.16524,0.73584 -0.16552,0.95754zM141.9358,356.48701c0.41365,0.39196 0.29226,-0.25793 0.1555,-0.93784c-0.02915,0.29495 -0.43823,0.67001 -0.1555,0.93784zM151.92102,350.8639c7.53964,4.76388 -9.60097,11.69064 -25.15889,8.47297c-14.67905,-3.03592 -19.64371,-9.10819 -33.04081,-11.23523c-4.52601,-0.71857 -9.94988,-1.11439 -13.33014,-2.30497c-5.35672,-1.88674 -2.97346,-8.30473 7.27464,-8.2925c7.37933,0.00881 11.01309,0.7673 17.88313,0.77548l3.03399,0.00361c0,0 3.48286,0.00416 5.1704,0.8376c17.97256,1.87024 29.50128,6.58116 38.16767,11.74302z" fill="#000000" stroke="none" stroke-linecap="butt"/><path d="M90.31439,341.06365c0.31219,0.14838 0.77856,0.27508 1.37803,0.38317c1.79718,0.57835 4.53711,0.57754 4.53711,0.57754c23.11339,0.0276 36.93908,5.23211 45.10352,10.58117c0.96057,0.60692 0.84825,1.34997 0.84745,2.0272c-0.00022,0.1927 0.04667,0.50338 0.11019,0.82024c-0.06088,-0.10211 -0.2119,-0.18655 -0.52255,-0.24074c-1.37221,-0.23932 -13.40904,1.22598 -14.87218,0.3873c-0.43974,-0.25206 1.87058,-0.46461 1.72746,-0.74845c-1.75818,-3.48931 -20.53326,-8.75969 -29.71975,-10.21825c-2.38266,-0.3783 -5.08048,-0.56263 -7.74725,-0.65234c1.04327,-0.51046 -1.02281,-1.30782 -1.02204,-1.954c0.00025,-0.22171 0.09877,-0.59818 0.17975,-0.96283z" fill="#ffffff" stroke="none" stroke-linecap="butt"/></g><g><path d="M20.44855,55.07053l205.24042,-149.49996l68.49689,50.24932l17.87465,-15.60291l68.78423,49.8437l22.22566,-16.5169l65.39453,49.53811l-5.64409,70.36644l133.5859,-2.83843l-9.69064,228.70424l-151.44155,4.51758l-34.05071,-23.33991l-45.33809,0.43776l2.28215,25.39754l-38.19366,-0.1544l-14.47267,-5.5734l-285.70679,11.63l-9.35253,-168.31624l17.90969,0.30841z" fill="#d3cbc9" stroke="#000000" stroke-width="1" stroke-linecap="round"/><path d="M-7.01584,165.5814l-3.42882,-9.05627l329.68066,-7.37735l-1.25483,12.36617l-319.43185,3.9161z" fill="#4e4770" stroke="#000000" stroke-width="1" stroke-linecap="round"/><path d="M225.20773,-93.8406l-216.47785,158.24908l-9.38069,-8.49656l227.32703,-168.88719l64.84154,51.14439l22.23647,-16.11939l65.84613,51.51485l25.79246,-17.01174l87.69905,68.82169l-10.02172,11.80904l-79.70759,-63.8676l-73.27253,55.69724l-18.5343,-8.64534l59.00791,-38.99908l-59.29872,-41.15108l-16.71456,14.37795l-3.98596,-0.28937l-120.05485,90.78348l-14.63487,-11.53609l124.90072,-88.13064z" fill="#4e4770" stroke="#000000" stroke-width="1" stroke-linecap="round"/><path d="M587.20367,319.57827l-151.20427,5.30675l-34.09398,-24.92996l-46.12229,0.8569l2.69045,25.78426l-36.60361,-0.19764l-17.26608,-5.89521l-283.84981,14.08674l-4.07204,-61.9471l574.4512,-17.61631z" fill="#9a918a" stroke="#000000" stroke-width="1" stroke-linecap="round"/><path d="M352.20756,301.60539l-3.4985,-99.35656l50.89244,-0.98666l-0.87144,99.57488z" fill="#0b0b03" stroke="#000000" stroke-width="1" stroke-linecap="round"/><path d="M351.87494,304.00128l-3.9717,-102.1283l33.79938,-0.52168l0.70509,99.03474z" fill="#32342f" stroke="#000000" stroke-width="1" stroke-linecap="round"/><path d="M350.75441,58.08765l3.81293,-6.07083l7.44461,-4.1806l15.80317,-4.01016l16.3629,1.9417l12.47429,5.22994l8.52078,6.13312l-0.98227,95.50039l-66.41707,0.61339z" fill="#0b0b03" stroke="#000000" stroke-width="1" stroke-linecap="round"/><path d="M487.58286,119.60572l99.33492,-4.29354l-6.30705,133.73524l-94.9623,4.17458z" fill="#0b0b03" stroke="#000000" stroke-width="1" stroke-linecap="round"/><path d="M141.35609,121.96336l-85.48688,1.52996l-2.42793,-60.00279l85.89518,-1.14326z" fill="#0b0b03" stroke="#000000" stroke-width="1" stroke-linecap="round"/><path d="M462.97586,81.48895l178.12897,-3.25456l-10.41923,11.81985l-168.98614,3.00584z" fill="#4e4770" stroke="#000000" stroke-width="1" stroke-linecap="round"/><path d="M50.38168,330.60163l-7.07873,-113.97801l249.80432,-7.98906l1.48108,112.93686z" fill="#f7f5f6" stroke="#000000" stroke-width="1" stroke-linecap="round"/><path d="M64.19524,330.22586l-4.73428,-100.91415l224.69201,-2.53224l-0.18728,95.47876z" fill="#d3cbc9" stroke="#000000" stroke-width="1" stroke-linecap="round"/><path d="M202.44804,129.61446c-0.99963,0.02719 -1.02682,-0.97243 -1.02682,-0.97243l-0.02004,-0.73638c-0.05284,-3.05468 -1.52528,-5.99264 -1.87685,-9.04981c-0.83821,-7.28889 2.6246,-17.39838 7.66272,-22.66253c2.13414,-1.37452 4.29999,-2.70414 6.41909,-4.1015c0.8711,-0.57441 1.68887,-1.22761 2.56475,-1.79468c1.40532,-0.90984 2.16015,-1.32356 3.72202,-1.9358c0.4898,-0.192 2.44137,-0.81903 3.15256,-1.04917c1.62552,-0.52602 2.19245,-0.77182 3.86772,-1.06798c2.45993,-0.43486 5.0339,-0.51612 7.52637,-0.5841c1.96041,-0.05348 3.92779,-0.15172 5.88887,-0.15992c1.29917,-0.00544 2.59784,0.05198 3.89676,0.07823c0.67697,-0.018 1.35385,-0.06596 2.03094,-0.054c1.12667,0.01991 2.24531,0.19481 3.36891,0.28033c1.73169,0.13183 3.45603,0.2516 5.18555,0.41335c2.4409,0.2283 4.87361,0.25515 7.28576,0.73805c0.6939,0.13891 1.39797,0.24986 2.06994,0.47174c0.6639,0.21923 1.28019,0.5625 1.91946,0.84558c0.6343,0.28088 1.28498,0.52786 1.90127,0.84633c0.35887,0.18545 0.67765,0.43987 1.01569,0.66101c0.57615,0.3769 1.17676,0.71914 1.72687,1.13312c0.89561,0.674 1.70076,1.46049 2.55153,2.1903c1.52963,1.31219 3.23837,2.56982 4.58594,4.07595c0.41521,0.46407 0.74198,1.00022 1.11298,1.50033c0.0493,0.06676 2.38989,3.23459 2.41284,3.27021c0.37249,0.57843 0.67104,1.20129 1.00593,1.80228c1.47544,2.6476 2.60595,5.44139 3.9345,8.16299c1.29938,2.66186 2.72423,5.27034 4.1204,7.88259c0.02903,0.05432 1.89182,3.53888 1.90592,3.56816c0.8334,1.72976 1.50599,3.56455 2.20015,5.35277c0,0 0.36183,0.93225 -0.57044,1.29408c-0.93225,0.36183 -1.29408,-0.57044 -1.29408,-0.57044c-0.67576,-1.7414 -1.32855,-3.5302 -2.14039,-5.21451c-0.57237,-1.18749 -1.24367,-2.32471 -1.86505,-3.48733c-1.4076,-2.6336 -2.84344,-5.26364 -4.15347,-7.94727c-1.31274,-2.68914 -2.42897,-5.45133 -3.88491,-8.06804c-0.31376,-0.56393 -0.59068,-1.14987 -0.94008,-1.69244c-0.71034,-1.10307 -1.5606,-2.10947 -2.34009,-3.16482c-0.33401,-0.45442 -0.62633,-0.94264 -1.00205,-1.36322c-1.28319,-1.43639 -2.93292,-2.63308 -4.39032,-3.88331c-0.81845,-0.70211 -1.59035,-1.46184 -2.45195,-2.11026c-0.51525,-0.38776 -1.08034,-0.70444 -1.61972,-1.05785c-0.29263,-0.19175 -0.56512,-0.41777 -0.87631,-0.57766c-0.56893,-0.29229 -1.17094,-0.51513 -1.7556,-0.77455c-0.57967,-0.25721 -1.13549,-0.5756 -1.7374,-0.7753c-0.59383,-0.19703 -1.21812,-0.28759 -1.83191,-0.40892c-2.34121,-0.46283 -4.70492,-0.48625 -7.07387,-0.70757c-1.719,-0.1606 -3.43261,-0.27978 -5.15376,-0.41077c-1.09353,-0.08322 -2.18195,-0.25767 -3.27851,-0.27576c-0.65602,-0.01082 -1.31171,0.03652 -1.96757,0.05477c-1.29892,-0.0259 -2.59759,-0.08367 -3.89676,-0.07823c-1.94535,0.00815 -3.89691,0.10644 -5.8416,0.1592c-2.39434,0.06495 -4.86915,0.13856 -7.23266,0.55432c-1.5346,0.26994 -2.09457,0.5132 -3.59949,1.00118c-0.66081,0.21427 -2.58386,0.83131 -3.04091,1.00931c-2.1995,0.85667 -3.95658,2.24626 -5.90343,3.5305c-2.0624,1.36046 -4.1668,2.66393 -6.25716,3.98102c-4.51429,4.8278 -7.71108,14.2654 -6.94904,20.89167c0.36062,3.13576 1.77827,6.07784 1.88922,9.22391l0.02004,0.73638c0,0 0.02719,0.99963 -0.97243,1.02682z" fill="#000000" stroke="none" stroke-width="0.5" stroke-linecap="butt"/><path d="M204.1814,34.41062c0.14125,-0.06552 0.28128,-0.13058 0.41957,-0.19527c0.40302,-0.18856 0.78502,-0.43291 1.21092,-0.5617c0.67597,-0.20441 1.38251,-0.28902 2.07416,-0.43169c2.89661,-0.59748 5.90681,-0.5959 8.85365,-0.5784c1.21036,0.00719 2.4259,-0.08754 3.63107,0.02467c0.6895,0.0642 1.36758,0.21875 2.05105,0.33012c0.67011,0.10918 1.35399,0.15524 2.00966,0.33151c0.0684,0.01838 3.74837,1.41062 3.85885,1.45237c0.00981,0.00424 3.57413,1.54062 3.63303,1.57362c0.27526,0.15418 2.38237,1.66271 2.88201,1.98962c0.13937,0.09118 3.3535,2.09985 3.43583,2.16341c0.52168,0.40263 0.98674,0.87645 1.4377,1.35696c0.4981,0.53071 1.00874,1.06101 1.40478,1.67169c0.38602,0.5952 0.61669,1.27781 0.92307,1.91766c0.84888,1.77289 1.6675,3.63681 2.09527,5.56694c0.1495,0.67454 0.17996,1.37008 0.27971,2.05373c0.09865,0.67611 0.25132,1.34513 0.31548,2.02538c0.06539,0.69323 0.06794,1.3914 0.07254,2.0877c0.00814,1.2396 -0.00186,2.48102 -0.08438,3.71789c-0.03834,0.57496 -0.03433,1.16315 -0.18845,1.71839c-0.11074,0.39899 -0.40633,0.72195 -0.59166,1.09221c-0.25961,0.51864 -0.425,1.08824 -0.74267,1.5735c-0.3774,0.57647 -0.88382,1.05731 -1.32573,1.58596c-0.72489,1.12895 -1.50503,2.2241 -2.33271,3.28c-1.03226,1.31685 -1.49471,2.03585 -2.78877,3.13493c-0.52917,0.44943 -1.12769,0.8102 -1.69371,1.21225c-0.45696,0.32458 -0.87157,0.72159 -1.37521,0.96761c-0.64507,0.31512 -1.35594,0.47246 -2.03708,0.69931c-2.44337,0.81378 -4.90657,1.47621 -7.48533,1.68235c-0.98237,0.07853 -2.96162,0.04926 -3.92739,0.0454c-0.00972,-0.00003 -3.91864,-0.01521 -3.95669,-0.01784c-0.71748,-0.04949 -1.4376,-0.11949 -2.14025,-0.27281c-0.58636,-0.12794 -1.12308,-0.43629 -1.70883,-0.56703c-0.47898,-0.10691 -0.98575,-0.03804 -1.4655,-0.14151c-1.79384,-0.38689 -3.51694,-1.16637 -5.20434,-1.86477c-0.52224,-0.54512 -1.07024,-1.06668 -1.56674,-1.63537c-0.80001,-0.91635 -1.46871,-1.94098 -2.2536,-2.8703c-0.66494,-0.78727 -1.35896,-1.54988 -2.06062,-2.30464c-0.92742,-0.99762 -1.93937,-1.96063 -2.74313,-3.06836c-0.40608,-0.55966 -0.73168,-1.17355 -1.09121,-1.7642c-0.2606,-0.42815 -0.62412,-0.81226 -0.76915,-1.29205c-0.37174,-1.22985 -0.27321,-2.55759 -0.50768,-3.8208c-0.11257,-0.60652 -0.28307,-1.20094 -0.41295,-1.804c-0.07427,-0.34479 -0.09899,-0.70105 -0.19939,-1.03916c-0.1853,-0.62398 -0.91829,-2.32234 -1.02319,-3.02223c-0.09478,-0.63233 -0.00643,-1.28011 -0.05989,-1.91725c-0.04139,-0.49318 -0.1782,-0.97496 -0.22416,-1.46775c-0.04181,-0.44848 -0.02612,-0.90047 -0.03867,-1.35072c-0.00468,-0.16796 -0.08598,-3.15306 -0.08525,-3.17942c0.01902,-0.67021 0.10037,-1.33721 0.15055,-2.0058c0.42766,-1.42601 0.7434,-3.45339 1.8038,-4.60026c2.52233,-2.72804 6.05337,-3.30149 9.5417,-3.48178zM199.22386,37.25858c-1.1332,0.42453 -2.19301,1.05744 -3.13197,2.00904c-0.74897,0.75904 -0.99576,2.63444 -1.28953,3.59001c-0.11186,1.60554 -0.07502,3.15878 -0.03245,4.76586c0.01083,0.40886 -0.00719,0.81944 0.03143,1.22659c0.04674,0.49271 0.18381,0.97447 0.22416,1.46775c0.04797,0.58641 -0.04131,1.18194 0.04027,1.76461c0.1379,0.98491 0.69647,1.86486 0.978,2.81868c0.11157,0.37799 0.14561,0.77475 0.22888,1.15994c0.13424,0.62082 0.3081,1.23325 0.42358,1.85785c0.10638,0.57531 0.17066,1.15771 0.24138,1.73847c0.0723,0.59371 0.02266,1.20956 0.18765,1.78445c0.0986,0.3436 0.39307,0.59727 0.5828,0.90021c0.34069,0.54399 0.63212,1.12045 1.00839,1.64045c0.70084,0.96856 1.78791,2.01906 2.59416,2.88635c0.7219,0.77656 1.43562,1.56152 2.11967,2.37162c0.78179,0.92586 1.46405,1.93273 2.24457,2.85964c0.37263,0.4425 0.7807,0.85393 1.17105,1.28089c1.46223,0.5459 2.93641,1.23261 4.4687,1.55669c0.48827,0.10327 1.00293,0.03791 1.49002,0.14655c0.59492,0.13269 1.14175,0.43949 1.73646,0.57307c1.83017,0.41112 3.80605,0.23379 5.66366,0.24136c0.83914,0.00343 2.87171,0.03199 3.75446,-0.0386c2.42691,-0.19405 4.72213,-0.83719 7.02417,-1.58866c0.58505,-0.19098 1.19892,-0.31194 1.75264,-0.58057c0.41647,-0.20205 0.74804,-0.54551 1.12431,-0.81513c0.51946,-0.37224 1.07432,-0.69844 1.56284,-1.11046c1.12912,-0.95234 1.59852,-1.68254 2.50676,-2.84204c0.81528,-1.04083 1.58185,-2.12152 2.29726,-3.23335c0.41647,-0.49161 0.8953,-0.93656 1.24943,-1.47483c0.2848,-0.43287 0.41529,-0.9501 0.64996,-1.41208c0.13674,-0.26923 0.38168,-0.48791 0.46282,-0.77877c0.11117,-0.39849 0.08,-0.82389 0.09961,-1.23714c0.05672,-1.19456 0.08656,-2.39089 0.0808,-3.58678c-0.00305,-0.637 -0.00291,-1.27586 -0.06359,-1.90999c-0.06193,-0.64712 -0.21018,-1.28311 -0.30359,-1.92642c-0.09231,-0.63577 -0.1155,-1.28313 -0.25353,-1.91056c-0.39237,-1.78382 -1.17054,-3.49848 -1.94776,-5.13776c-0.2673,-0.56378 -0.46062,-1.16828 -0.79782,-1.69323c-0.32725,-0.50944 -0.76268,-0.9421 -1.17802,-1.38269c-0.38168,-0.40488 -0.76779,-0.81216 -1.20974,-1.15023c-1.03458,-0.79149 -2.22176,-1.36126 -3.31173,-2.07456c-0.24598,-0.16097 -2.71909,-1.89232 -2.751,-1.91022c-0.50541,-0.28338 -1.0656,-0.45553 -1.59785,-0.68454c-0.60528,-0.26044 -1.20983,-0.52254 -1.81474,-0.78383c-0.61645,-0.23274 -1.23322,-0.46463 -1.84937,-0.69819c-0.59225,-0.2245 -1.16416,-0.51151 -1.7758,-0.67604c-0.59133,-0.15906 -1.2096,-0.19174 -1.81408,-0.2896c-0.63261,-0.10242 -1.25916,-0.25126 -1.8972,-0.31121c-0.48992,-0.04604 -0.98416,-0.0033 -1.47625,-0.00581c-1.32778,-0.00678 -2.65561,-0.03775 -3.98335,-0.02392c-1.98002,0.02063 -4.00331,0.107 -5.95752,0.45473c0.00927,0.05611 0.01505,0.11617 0.0168,0.18048c0.02719,0.99963 -0.97243,1.02682 -0.97243,1.02682l-1.15611,0.03146c-0.65904,0.01793 -1.32472,0.03107 -1.98984,0.0562c-0.34176,0.15762 -0.68307,0.31618 -1.01994,0.48392c-1.77621,0.8845 -3.36928,2.00225 -4.85228,3.31072c0,0 -0.75054,0.66084 -1.41137,-0.0897c-0.66084,-0.75054 0.0897,-1.41137 0.0897,-1.41137c0.56501,-0.49654 1.13907,-0.96933 1.73245,-1.41626z" fill="#000000" stroke="none" stroke-width="0.5" stroke-linecap="butt"/><path d="M197.53089,38.70551c0,0 -0.7492,0.65904 -0.08836,1.40958c0.66084,0.75054 1.33061,0.03074 1.33061,0.03074c1.48299,-1.30849 3.08417,-2.43472 4.86039,-3.3192c0.33686,-0.16775 0.68001,-0.32773 1.02178,-0.48535c0.66513,-0.02514 1.33377,-0.04034 1.99281,-0.05827l1.15803,-0.03262c0,0 1.0023,-0.02864 0.97511,-1.02827c-0.00175,-0.06432 -0.0074,-0.12445 -0.01669,-0.18056c1.95421,-0.34772 3.99005,-0.43841 5.97008,-0.45903c1.32773,-0.01383 2.66501,0.01617 3.99282,0.02296c0.49208,0.00251 0.9899,-0.04013 1.47981,0.00591c0.63804,0.05995 1.26921,0.20931 1.90183,0.31173c0.60449,0.09785 1.22712,0.13144 1.81846,0.2905c0.61163,0.16452 1.18795,0.45286 1.78021,0.67738c0.61614,0.23355 1.23736,0.46728 1.85382,0.70003c0.60491,0.26127 1.21369,0.52561 1.81897,0.78604c0.53225,0.22902 1.0959,0.40339 1.60129,0.68677c0.03191,0.01789 2.51108,1.75429 2.75706,1.91526c1.08997,0.7133 2.28274,1.28954 3.31732,2.08102c0.44194,0.33808 0.83006,0.74835 1.21172,1.15323c0.41533,0.4406 0.8527,0.87663 1.17994,1.38607c0.3372,0.52496 0.53222,1.13313 0.79952,1.6969c0.77722,1.63927 1.55862,3.3652 1.95099,5.14902c0.13801,0.62744 0.16171,1.27884 0.25401,1.91461c0.09341,0.64332 0.24181,1.28339 0.30375,1.9305c0.06068,0.63412 0.06038,1.27697 0.06343,1.91395c0.00573,1.1959 -0.02522,2.39947 -0.08195,3.59403c-0.01962,0.41324 0.01095,0.84103 -0.10022,1.23954c-0.08115,0.29086 -0.32659,0.51126 -0.46334,0.7805c-0.23464,0.46198 -0.36622,0.9822 -0.65102,1.41505c-0.35413,0.53827 -0.83451,0.98675 -1.25099,1.47836c-0.71541,1.11184 -1.48628,2.19972 -2.30156,3.24055c-0.90823,1.15951 -1.38286,1.89585 -2.51199,2.8482c-0.48849,0.41202 -1.04638,0.74099 -1.56582,1.11323c-0.37626,0.26963 -0.71017,0.61496 -1.12665,0.81701c-0.55372,0.26863 -1.17078,0.39179 -1.75583,0.58277c-2.30204,0.75146 -4.61214,1.40099 -7.03904,1.59504c-0.88275,0.07058 -2.92406,0.04339 -3.7632,0.03996c-1.85761,-0.00757 -3.8471,0.1688 -5.67728,-0.24232c-0.5947,-0.13359 -1.1458,-0.4415 -1.74071,-0.57418c-0.4871,-0.10864 -1.00505,-0.0444 -1.49332,-0.14767c-1.53229,-0.32408 -3.0162,-1.01579 -4.47842,-1.5617c-0.39034,-0.42696 -0.80162,-0.84067 -1.17425,-1.2832c-0.78054,-0.92691 -1.46903,-1.93959 -2.25081,-2.86545c-0.68404,-0.8101 -1.40242,-1.60107 -2.12431,-2.37763c-0.80626,-0.86731 -1.89751,-1.9255 -2.59834,-2.89409c-0.37629,-0.52001 -0.66923,-1.10045 -1.00992,-1.64445c-0.18973,-0.30295 -0.48487,-0.55882 -0.58349,-0.90241c-0.16498,-0.5749 -0.11627,-1.1946 -0.18857,-1.78829c-0.07072,-0.58076 -0.13564,-1.16705 -0.242,-1.74234c-0.1155,-0.62459 -0.28968,-1.2412 -0.4239,-1.86204c-0.0833,-0.3852 -0.11736,-0.78452 -0.22891,-1.16251c-0.28152,-0.95384 -0.83968,-1.83962 -0.97757,-2.82453c-0.08158,-0.58267 0.0083,-1.18175 -0.03968,-1.76814c-0.04035,-0.49327 -0.17678,-0.97776 -0.22351,-1.47046c-0.03863,-0.40718 -0.01996,-0.81998 -0.03077,-1.22883c-0.04257,-1.60709 -0.07619,-3.16813 0.03567,-4.77368c0.29377,-0.95556 0.5441,-2.8368 1.29306,-3.59584c0.93898,-0.95161 2.00285,-1.58957 3.13605,-2.0141c-0.59338,0.4469 -1.09111,0.98418 -1.65612,1.48072z" fill="#ffffff" stroke="none" stroke-width="0.5" stroke-linecap="butt"/><path d="M261.84566,32.00652c0.07549,-0.00797 0.15099,-0.01596 0.22647,-0.02394c1.12639,-0.11926 2.25591,-0.21193 3.37921,-0.35745c0.50374,-0.06526 1.0007,-0.18316 1.50665,-0.22841c0.50978,-0.04562 1.0232,-0.02948 1.53482,-0.04369c0.03344,-0.00092 4.00793,-0.10913 4.02443,-0.10914c0.67531,-0.00087 1.35023,0.03151 2.02532,0.04955c0.56051,0.01497 1.12845,-0.04349 1.6814,0.04948c0.69909,0.11752 1.36505,0.38313 2.04686,0.57728c0.56046,0.15959 1.13543,0.27623 1.6799,0.4839c0.64743,0.24696 1.25705,0.58351 1.88525,0.87595c1.73584,0.80807 3.46571,1.61454 5.22228,2.37672c1.23626,0.53704 1.39366,0.58314 2.82457,1.35458c0.91064,0.49095 1.7728,1.06937 2.6889,1.55007c0.41529,0.21791 0.8958,0.32631 1.26545,0.61493c0.39796,0.31073 0.72101,0.71905 0.99015,1.14624c1.53207,2.43177 1.74624,5.33425 2.10769,8.10957c0.40991,3.14744 0.46045,6.30714 0.5467,9.47756c0.01813,0.66642 0.03717,1.33282 0.0544,1.99925c0.01376,0.53236 0.08437,1.06659 0.03859,1.59716c-0.12299,1.42494 -0.51369,2.71215 -0.86862,4.08628c-0.27047,1.04711 -0.54529,2.10916 -0.81671,3.15827c-0.20412,0.66948 -0.35644,1.35697 -0.61236,2.00844c-0.36978,0.94132 -1.45532,2.98185 -2.07682,3.77177c-0.84412,1.07284 -1.74272,1.43917 -2.90548,2.13361c-0.5716,0.34138 -1.14235,0.68419 -1.71357,1.02621c-0.76507,0.45808 -2.42089,1.4777 -3.11667,1.73262c-1.34377,0.49234 -2.80293,0.537 -4.20496,0.65828c-0.50993,0.04412 -1.01852,0.14397 -1.53012,0.12856c-0.70755,-0.02131 -1.40883,-0.14244 -2.1102,-0.23824c-0.66807,-0.09127 -1.33153,-0.21373 -1.99692,-0.32282c-0.50823,-0.08332 -1.03264,-0.09992 -1.52395,-0.25439c-0.15643,-0.0492 -2.34098,-1.01177 -2.90889,-1.2539c-2.80345,-1.19517 -5.53249,-2.56224 -8.28774,-3.86687c-1.64124,-0.98231 -1.96516,-1.11187 -3.48328,-2.27652c-0.49126,-0.37686 -2.62275,-2.18708 -3.1052,-2.59467c-1.4197,-1.19943 -2.78696,-2.39911 -4.10125,-3.7152c-0.94217,-0.94346 -1.88817,-1.88309 -2.82598,-2.83088c-0.51383,-0.51927 -1.12943,-0.95658 -1.5352,-1.56404c-0.41657,-0.62367 -0.63438,-1.36139 -0.88986,-2.06653c-0.23371,-0.64511 -0.3842,-1.3174 -0.57493,-1.97648c-0.10465,-0.36158 -0.24552,-0.7149 -0.31129,-1.08555c-0.12126,-0.68336 -0.166,-1.3781 -0.24819,-2.06727c-0.00661,-0.05556 -0.47245,-3.9879 -0.47451,-4.01566c-0.05056,-0.67977 -0.04348,-1.36261 -0.06363,-2.04394c-0.03102,-1.04855 -0.1368,-2.09809 -0.08545,-3.14584c0.02126,-0.43368 0.12945,-0.86028 0.14906,-1.29406c0.02051,-0.45404 -0.01933,-0.90879 -0.029,-1.36318c0.62096,-2.34078 0.72143,-5.32045 1.96119,-7.43156c2.9363,-4.99999 9.25362,-3.12438 13.84488,-3.24928zM254.56005,33.1795c-2.27991,0.04561 -4.39393,0.59062 -5.54286,2.62142c-1.07471,1.8996 -1.13006,4.57915 -1.70825,6.66976c0.01371,0.40473 0.05853,0.80957 0.04111,1.21414c-0.01865,0.43354 -0.12666,0.85991 -0.14902,1.29327c-0.05155,0.99926 0.05739,2.00035 0.08647,3.00052c0.01893,0.65142 0.01062,1.30428 0.05898,1.95419c0.09786,1.31517 0.31223,2.61907 0.46615,3.92885c0.07462,0.63493 0.11221,1.27522 0.22216,1.90498c0.05533,0.3169 0.18226,0.61704 0.27204,0.92595c0.18062,0.62149 0.32779,1.25352 0.53913,1.86525c0.1905,0.55139 0.33741,1.13609 0.66465,1.61904c0.33817,0.49908 0.86279,0.84224 1.29079,1.26682l2.82598,2.83088c1.27394,1.27661 2.59997,2.43742 3.97655,3.60045c0.42981,0.36313 2.57527,2.18461 3.03261,2.53619c1.38946,1.06819 1.70945,1.20125 3.20698,2.09841c2.70667,1.27408 5.38155,2.62038 8.13287,3.79256c0.89829,0.3827 1.75351,0.87738 2.68404,1.17317c0.41191,0.13094 0.85438,0.13139 1.28122,0.19944c0.65083,0.10377 1.29909,0.22441 1.95174,0.31604c0.61939,0.08695 1.23836,0.20028 1.86353,0.21954c0.44446,0.0137 0.88555,-0.08205 1.3285,-0.12116c1.11634,-0.09855 2.60774,-0.14245 3.68789,-0.54266c0.51367,-0.19032 2.1986,-1.22327 2.78025,-1.57169c0.57267,-0.34302 1.14403,-0.68825 1.71812,-1.02892c0.81683,-0.48472 1.77732,-0.89235 2.38021,-1.68107c1.15171,-1.50673 1.7733,-3.26954 2.31195,-5.05491c0.26995,-1.04495 0.53462,-2.06976 0.80589,-3.11814c0.30173,-1.1661 0.70653,-2.51613 0.81007,-3.72858c0.03972,-0.46516 -0.02958,-0.93323 -0.04296,-1.39989c-0.03514,-1.22725 -0.0668,-2.45458 -0.10016,-3.68188c-0.06918,-2.54449 -0.15512,-5.06558 -0.48487,-7.5907c-0.32516,-2.48994 -0.49748,-5.0587 -1.79655,-7.27085c-0.14246,-0.24258 -0.30434,-0.49028 -0.53268,-0.65463c-0.28794,-0.20722 -0.65761,-0.26853 -0.97372,-0.42953c-0.34515,-0.17578 -0.67163,-0.38602 -1.00725,-0.57935c-1.43557,-0.8269 -2.85884,-1.60579 -4.37955,-2.26498c-1.77291,-0.76945 -3.52075,-1.58055 -5.27157,-2.39891c-0.58015,-0.27117 -1.14158,-0.58635 -1.73979,-0.81496c-0.49526,-0.18926 -1.02055,-0.28799 -1.5301,-0.43456c-0.60011,-0.17264 -1.18325,-0.41813 -1.79882,-0.52308c-0.46947,-0.08004 -0.95236,-0.01647 -1.42849,-0.02712c-1.31529,-0.0294 -2.63171,-0.0308 -3.94684,0.00509c-1.13663,0.03102 -2.2775,-0.01141 -3.40995,0.09083c-0.47994,0.04334 -0.95098,0.15782 -1.42884,0.2199c-1.13848,0.1479 -2.28332,0.24198 -3.42497,0.36284c-0.02582,0.00273 -0.05165,0.00546 -0.07747,0.0082c-0.27522,0.1689 -0.54209,0.15025 -0.75121,0.07979c-1.04964,0.11169 -2.0992,0.22399 -3.1491,0.3331c-0.62283,0.06473 -1.25424,0.07077 -1.86891,0.1904c-0.34136,0.06644 -0.65193,0.24244 -0.97789,0.36367c0,0 -0.93973,0.3419 -1.28164,-0.59783c-0.233,-0.64041 0.12921,-1.00318 0.38359,-1.1693z" fill="#000000" stroke="none" stroke-width="0.5" stroke-linecap="butt"/><path d="M254.20802,34.38758c0.3419,0.93973 1.21945,0.51952 1.21945,0.51952c0.32596,-0.12123 0.63807,-0.29838 0.97944,-0.36483c0.61465,-0.11963 1.24879,-0.12749 1.87162,-0.1922c1.04991,-0.10912 2.10477,-0.22427 3.1544,-0.33596c0.20913,0.07047 0.47738,0.08848 0.75261,-0.08041c0.02582,-0.00273 0.0518,-0.00553 0.07761,-0.00826c1.14167,-0.12086 2.29339,-0.21728 3.43187,-0.36518c0.47787,-0.06207 0.95201,-0.1773 1.43194,-0.22061c1.13245,-0.10224 2.28082,-0.06069 3.41746,-0.09171c1.31514,-0.03589 2.64034,-0.03407 3.95563,-0.00467c0.47613,0.01064 0.96211,-0.05239 1.43158,0.02764c0.61557,0.10494 1.20273,0.35142 1.80282,0.52404c0.50954,0.14658 1.03815,0.2464 1.53342,0.43566c0.5982,0.2286 1.16355,0.5454 1.7437,0.8166c1.75081,0.81836 3.50921,1.63608 5.28213,2.40555c1.52069,0.65918 2.95087,1.44495 4.38645,2.27185c0.33563,0.19333 0.66343,0.40525 1.00859,0.58103c0.31612,0.16099 0.68685,0.22375 0.97478,0.431c0.22834,0.16434 0.39113,0.41339 0.53358,0.65599c1.29908,2.21218 1.47749,4.79419 1.80266,7.28411c0.32975,2.52512 0.41768,5.06174 0.48686,7.60623c0.03337,1.2273 0.06423,2.46213 0.09938,3.68937c0.01338,0.46667 0.08211,0.93743 0.04238,1.4026c-0.10354,1.21246 -0.51066,2.56971 -0.81239,3.73582c-0.27127,1.04837 -0.53863,2.07877 -0.80858,3.12372c-0.53867,1.78537 -1.16623,3.55666 -2.31794,5.06339c-0.60288,0.78872 -1.56713,1.20022 -2.38397,1.68494c-0.57408,0.34066 -1.14832,0.68834 -1.72099,1.03137c-0.58166,0.3484 -2.27166,1.38486 -2.78529,1.5752c-1.08014,0.40021 -2.57779,0.4473 -3.69413,0.54587c-0.44295,0.03911 -0.88649,0.13583 -1.33093,0.12213c-0.62518,-0.01927 -1.24754,-0.13148 -1.86694,-0.21843c-0.65265,-0.09162 -1.30476,-0.21132 -1.9556,-0.31509c-0.42684,-0.06806 -0.87201,-0.06803 -1.28393,-0.19897c-0.93052,-0.2958 -1.79175,-0.78996 -2.69004,-1.17266c-2.75135,-1.17217 -5.44795,-2.52287 -8.15466,-3.79693c-1.49753,-0.89717 -1.82648,-1.03543 -3.21594,-2.10361c-0.45732,-0.35157 -2.61071,-2.18025 -3.04054,-2.54338c-1.37658,-1.16304 -2.71017,-2.33512 -3.98411,-3.61172l-2.82916,-2.83913c-0.42798,-0.42457 -0.95347,-0.77115 -1.29163,-1.27023c-0.32724,-0.48295 -0.47477,-1.07136 -0.66527,-1.62277c-0.21135,-0.61171 -0.35888,-1.24789 -0.53949,-1.86937c-0.08978,-0.30891 -0.21677,-0.61105 -0.2721,-0.92796c-0.10994,-0.62978 -0.14741,-1.27409 -0.22203,-1.90901c-0.15394,-1.30979 -0.36711,-2.62147 -0.46497,-3.93663c-0.04837,-0.6499 -0.03906,-1.30637 -0.058,-1.95779c-0.02907,-1.00016 -0.13613,-2.00627 -0.08459,-3.00554c0.02235,-0.43336 0.13135,-0.86184 0.15,-1.29539c0.01741,-0.40458 -0.02652,-0.81116 -0.04022,-1.21588c0.5782,-2.09061 0.64,-4.77937 1.7147,-6.67897c1.14892,-2.0308 3.27035,-2.58267 5.55025,-2.62828c-0.25439,0.16614 -0.55494,0.6076 -0.32192,1.24801z" fill="#ffffff" stroke="none" stroke-width="0.5" stroke-linecap="butt"/><path d="M234.93296,55.44093c-0.04505,-1.65624 1.26108,-3.03542 2.91731,-3.08046c1.65624,-0.04505 3.03542,1.26108 3.08046,2.91731c0.04505,1.65624 -1.26108,3.03542 -2.91731,3.08046c-1.65624,0.04505 -3.03542,-1.26108 -3.08046,-2.91731z" fill="#000000" stroke="none" stroke-width="0.5" stroke-linecap="butt"/><path d="M288.14226,53.81477c-0.04505,-1.65624 1.26108,-3.03542 2.91731,-3.08046c1.65624,-0.04505 3.03542,1.26108 3.08046,2.91731c0.04505,1.65624 -1.26108,3.03542 -2.91731,3.08046c-1.65624,0.04505 -3.03542,-1.26108 -3.08046,-2.91731z" fill="#000000" stroke="none" stroke-width="0.5" stroke-linecap="butt"/><path d="M166.359,2.16114c-0.58921,-1.10242 0.51321,-1.69162 0.51321,-1.69162l1.09112,-0.51547c11.04079,-2.01472 20.67233,0.16375 31.08569,3.868c0.12172,0.04331 4.71575,1.67656 4.78763,1.70595c1.20362,0.49221 2.31548,1.18426 3.47259,1.77761c0.10223,0.05244 4.46041,2.28631 4.5174,2.31916c1.20268,0.693 2.29479,1.56226 3.4415,2.34441c0.07533,0.05138 4.15061,2.83022 4.18744,2.85849c0.03651,0.02802 3.77491,3.24704 3.8437,3.30631c0.64532,0.55579 1.31518,1.08433 1.93556,1.66784c0.02628,0.02472 3.47718,3.56988 3.52708,3.62116c0.59411,0.61054 1.2157,1.19551 1.78187,1.83205c1.23141,1.3845 1.50717,1.82754 2.43126,3.13372c0,0 0.72142,1.02083 -0.29942,1.74224c-1.02083,0.72142 -1.74224,-0.29942 -1.74224,-0.29942c-0.85325,-1.20884 -1.12475,-1.64398 -2.2568,-2.91411c-0.54212,-0.60825 -1.13747,-1.16688 -1.70597,-1.75054c-1.15011,-1.18078 -2.24793,-2.4147 -3.44861,-3.54403c-0.59367,-0.55838 -1.23598,-1.06267 -1.85376,-1.59423c-1.24568,-1.07181 -2.43138,-2.21723 -3.73493,-3.21785c-1.30355,-1.00061 -2.71628,-1.85031 -4.07388,-2.77628c-1.10378,-0.75286 -2.15162,-1.59477 -3.31001,-2.26059c-1.42245,-0.81763 -2.92098,-1.49507 -4.38093,-2.2437c-0.74153,-0.38024 -1.48333,-0.75993 -2.22458,-1.14072c-0.36652,-0.18828 -0.71707,-0.41119 -1.09875,-0.56647c-1.51831,-0.61776 -3.08967,-1.09617 -4.63403,-1.64553c-9.99628,-3.55589 -19.19728,-5.69955 -29.79894,-3.76403l-0.36159,0.26096c0,0 -1.10242,0.58921 -1.69162,-0.51321z" fill="#000000" stroke="none" stroke-width="0.5" stroke-linecap="butt"/><path d="M293.68736,-20.68036c0.42738,1.17466 -0.74728,1.60206 -0.74728,1.60206l-0.51094,0.18525c-2.33802,0.93192 -4.7737,1.35046 -7.11162,2.2151c-5.56318,2.05745 -9.5971,6.94123 -13.36874,11.23869c-1.31913,1.82888 -2.64002,3.65649 -3.96057,5.48435c-0.96555,1.33645 -1.98524,2.63534 -2.89759,4.00868c-1.29586,1.95067 -2.41897,4.04662 -3.62474,6.0541c-0.45066,0.75031 -0.83164,1.54754 -1.35464,2.24936c-0.52299,0.70183 -1.17801,1.29482 -1.76817,1.94119c-1.68564,1.84622 -3.37519,3.68893 -5.06381,5.53243c-0.54764,0.59787 -1.12937,1.16613 -1.64357,1.79296c-0.51421,0.62684 -0.95589,1.30981 -1.43702,1.96241c-0.53211,0.72174 -0.96835,1.52673 -1.60265,2.16056c-0.30123,0.30102 -2.53819,1.86946 -3.26301,2.38172c0,0 -1.02083,0.72142 -1.74224,-0.29942c-0.72142,-1.02083 0.29942,-1.74224 0.29942,-1.74224c0.50443,-0.35645 2.80951,-1.97923 2.93811,-2.10791c0.54429,-0.54467 0.90065,-1.24918 1.35445,-1.87127c0.50439,-0.69149 0.97722,-1.40769 1.52007,-2.06943c0.54283,-0.66173 1.15464,-1.26375 1.73231,-1.89533c1.68726,-1.84475 3.37349,-3.6905 5.06381,-5.53243c0.5351,-0.58309 1.13481,-1.11249 1.60769,-1.7471c0.47288,-0.63459 0.80875,-1.36062 1.21452,-2.0401c1.21856,-2.04053 2.36707,-4.16511 3.68194,-6.14511c0.0215,-0.03238 2.91562,-4.0376 2.95865,-4.09715c1.34352,-1.85962 2.6868,-3.71942 4.03168,-5.57804c4.06399,-4.64092 8.39664,-9.74168 14.37075,-11.99203c2.34308,-0.88259 4.79409,-1.28728 7.13753,-2.22561l0.5836,-0.21297c0,0 1.17466,-0.42738 1.60206,0.74728z" fill="#000000" stroke="none" stroke-width="0.5" stroke-linecap="butt"/></g></g></g></svg>