<svg version="1.1" xmlns="http://www.w3.org/2000/svg" xmlns:xlink="http://www.w3.org/1999/xlink" width="2878.25006" height="1619.57958" viewBox="0,0,2878.25006,1619.57958"><g transform="translate(1119.12503,629.78979)"><g stroke-miterlimit="10"><path d="M-1119.12503,989.78979v-1619.57958h2878.25006v1619.57958z" fill="none" stroke="#000000" stroke-width="0" stroke-linecap="butt"/><g stroke-width="1"><path d="M340.42117,333.71642l-23.23587,-42.8111l110.12791,0.2476l39.46477,42.41259z" fill="#cedce9" stroke="#000000" stroke-linecap="round"/><path d="M477.25056,331.32672c-2.97997,0.47314 -5.90988,0.74531 -8.81051,0.9425c0.01973,0.07212 0.02998,0.14732 0.03007,0.22583c0.00228,1.91197 -6.0658,1.91921 -6.0658,1.91921c-26.80081,0.032 -53.60151,0.06401 -80.40225,0.09602c-6.8966,0.00824 -24.05823,-0.83868 -29.14345,0.31095c-2.9292,0.66223 -5.02684,0.59952 -8.78108,0.69034c-0.42373,0.01024 -1.19446,0.03204 -1.87547,0.04565c3.63132,0.81226 1.8855,8.36093 1.88804,10.47026c0.01067,8.92259 0.0213,17.84517 0.03197,26.76781c0.00188,1.59331 0.00379,3.18666 0.0057,4.77997c0.00077,0.63734 -1.06431,2.45468 0.00228,1.912c4.058,-2.0646 11.98357,-0.96662 21.23719,-0.98136c18.24086,-0.0291 37.76898,-0.66703 55.68556,0.34556c32.71715,2.02253 67.88679,-1.31327 100.34317,0.9449c27.33593,2.12046 60.05554,2.27542 88.2166,2.24179c7.07951,-0.00843 14.15888,-0.0169 21.23836,-0.02534c1.06518,-0.00126 2.73756,-0.04844 4.46911,-0.10008c-1.74303,-0.97876 0.07788,-3.35283 0.07629,-4.68535c-0.00594,-4.97795 5.27962,-13.57116 -1.22709,-18.03579c-5.75176,-5.42394 -9.39233,-10.64834 -18.77058,-16.05332c-6.91953,-3.988 -17.68811,-7.51745 -23.41411,-11.48024c-2.77656,-2.36255 -5.2576,-0.66871 -14.29095,-1.20547c-19.98846,-1.18771 -40.03418,-0.90818 -60.6821,-0.88352c-7.5263,0.00899 -16.97814,0.50178 -24.27242,0.02899c-1.53976,-0.09978 -4.43371,-0.47416 -6.60294,-0.78099c3.96805,0.96097 -5.08274,1.90589 -8.88562,2.50967zM381.99714,330.68644c20.2552,-0.0242 40.51036,-0.0484 60.76551,-0.07258c0.58419,-0.09275 1.16828,-0.18547 1.75247,-0.27823c7.69491,-1.2217 14.64373,-0.90869 21.2367,-1.45935c8.98487,-0.75046 14.35674,-3.24812 23.62723,-3.8522c5.32548,-0.34701 20.07797,0.73017 27.62763,0.72115c20.47124,-0.02445 40.91961,-0.41769 60.6821,0.88352c11.10178,0.73098 20.48158,-0.73114 25.67823,3.69078c0.76729,1.68119 6.89382,2.7252 10.09907,4.01535c4.89839,1.97166 8.99409,4.89547 12.78529,7.08041c9.39837,5.41654 13.53462,10.99428 19.42979,16.55343c5.26935,5.86093 1.84415,13.14065 1.85143,19.2443c0.00403,3.37448 1.69474,5.75082 -6.0578,8.61119c-2.70341,0.99745 -27.69105,0.03306 -31.8575,0.03804c-29.04677,0.0347 -62.98614,-0.16702 -91.16024,-2.35248c-30.95224,-2.81342 -67.78766,1.07206 -99.77975,-0.90565c-25.7808,-1.79874 -65.56517,3.12252 -86.68333,-3.1023c-2.0908,-0.61632 -0.00679,-5.67309 -0.008,-6.69196c-0.01067,-8.92259 -0.0213,-17.84517 -0.03197,-26.76781c-0.00354,-2.98315 -4.1856,-10.10058 2.143,-12.3296c11.04377,-3.88979 31.72207,-3.00677 47.90044,-3.02609z" fill="#000000" stroke="none" stroke-linecap="butt"/><path d="M468.35522,332.1775c2.90059,-0.19717 5.86581,-0.47192 8.84593,-0.94506c3.80287,-0.60376 12.88968,-1.54991 8.9215,-2.51084c2.16921,0.30684 5.08731,0.68113 6.62692,0.78095c7.29428,0.47278 16.83084,-0.01531 24.35695,-0.0243c20.64781,-0.02465 40.82371,-0.27753 60.81213,0.91016c9.03334,0.53676 11.53322,-1.14986 14.30974,1.21269c5.72606,3.96275 16.54014,7.52065 23.45976,11.50866c9.37827,5.4049 13.03135,10.66567 18.78311,16.08958c6.50678,4.46463 1.19273,13.09098 1.19868,18.06891c0.00158,1.33251 -1.83066,3.71337 -0.08758,4.69211c-1.73142,0.0516 -3.40612,0.10003 -4.47137,0.10131c-7.07949,0.00845 -14.17127,0.02293 -21.25075,0.03137c-28.1612,0.03363 -61.01363,-0.0879 -88.34958,-2.20836c-32.45639,-2.25819 -67.94754,1.05947 -100.66474,-0.96305c-17.91657,-1.01259 -37.49996,-0.39638 -55.74083,-0.36734c-9.2536,0.01476 -17.18636,-1.08731 -21.24437,0.97726c-1.06659,0.54263 -0.00608,-1.27748 -0.00685,-1.91484c-0.0019,-1.59328 -0.0142,-3.19437 -0.01611,-4.78768c-0.01063,-8.92261 -0.03399,-17.89822 -0.04466,-26.82086c-0.00254,-2.10936 1.76168,-9.67628 -1.86966,-10.48858c0.68111,-0.01367 1.45239,-0.0359 1.8762,-0.04617c3.75411,-0.09077 5.85654,-0.03127 8.78563,-0.69348c5.08522,-1.14961 22.26239,-0.31161 29.15897,-0.31985c26.80088,-0.032 53.74441,-0.10219 80.54515,-0.1342c0,0 6.09787,-0.01053 6.09559,-1.92253c-0.0001,-0.07847 -0.00964,-0.15373 -0.02938,-0.22588z" fill="#c9c9c9" stroke="none" stroke-linecap="butt"/><path d="M553.43144,339.08551c-0.00028,-0.2217 -0.08474,-0.59289 -0.16552,-0.95754c-0.31242,0.1484 -0.77847,0.27512 -1.37791,0.38317c-1.79719,0.57837 -4.52474,0.58162 -4.52474,0.58162c-23.11343,0.0276 -36.45732,5.11926 -44.62185,10.46832c-0.96052,0.60691 -0.87475,1.33667 -0.87394,2.01393c0.00022,0.19271 -0.05791,0.49902 -0.12145,0.81586c0.06097,-0.10202 0.21347,-0.18603 0.52401,-0.2402c1.37217,-0.23933 13.30564,1.20097 14.76875,0.36226c0.43971,-0.25204 -2.15858,-0.29635 -2.01561,-0.58017c1.75825,-3.48932 20.44311,-8.78632 29.62949,-10.24487c2.38259,-0.37829 5.06501,-0.57039 7.73175,-0.66009c-1.04326,-0.51039 1.04774,-1.29602 1.04696,-1.94221zM501.71419,352.54917c-0.13676,0.67991 -0.25815,1.3298 0.1555,0.93784c0.28273,-0.26783 -0.12635,-0.64289 -0.1555,-0.93784zM491.88449,347.86388c8.66639,-5.16186 20.19511,-9.87278 38.16767,-11.74302c1.68754,-0.83344 5.1704,-0.8376 5.1704,-0.8376l3.03399,-0.00361c6.87004,-0.00818 10.5038,-0.76667 17.88313,-0.77548c10.2481,-0.01223 12.63136,6.40576 7.27464,8.2925c-3.38026,1.19058 -8.80413,1.5864 -13.33014,2.30497c-13.3971,2.12704 -18.36176,8.19931 -33.04081,11.23523c-15.55792,3.21767 -32.69853,-3.70909 -25.15889,-8.47297z" fill="#000000" stroke="none" stroke-linecap="butt"/><path d="M553.49136,338.06366c0.08098,0.36465 0.1795,0.74112 0.17975,0.96283c0.00077,0.64618 -2.06531,1.44354 -1.02204,1.954c-2.66677,0.08971 -5.36459,0.27404 -7.74725,0.65234c-9.18649,1.45856 -27.96157,6.72894 -29.71975,10.21825c-0.14312,0.28384 2.1672,0.49639 1.72746,0.74845c-1.46314,0.83868 -13.49997,-0.62662 -14.87218,-0.3873c-0.31065,0.05419 -0.46167,0.13863 -0.52255,0.24074c0.06352,-0.31686 0.11041,-0.62754 0.11019,-0.82024c-0.0008,-0.67723 -0.11312,-1.42028 0.84745,-2.0272c8.16444,-5.34906 21.99013,-10.55357 45.10352,-10.58117c0,0 2.73993,0.00081 4.53711,-0.57754c0.59947,-0.10809 1.06584,-0.23479 1.37803,-0.38317z" fill="#ffffff" stroke="none" stroke-linecap="butt"/></g><g stroke-width="1"><path d="M177.02752,336.56551l39.46477,-42.41259l110.12791,-0.2476l-23.23587,42.8111z" fill="#cedce9" stroke="#000000" stroke-linecap="round"/><path d="M166.55497,334.32671c-3.80288,-0.60378 -12.85367,-1.5487 -8.88562,-2.50967c-2.16923,0.30683 -5.06318,0.68121 -6.60294,0.78099c-7.29428,0.47279 -16.74612,-0.02 -24.27242,-0.02899c-20.64792,-0.02466 -40.69364,-0.30419 -60.6821,0.88352c-9.03335,0.53676 -11.51439,-1.15708 -14.29095,1.20547c-5.726,3.96279 -16.49458,7.49224 -23.41411,11.48024c-9.37825,5.40498 -13.01882,10.62938 -18.77058,16.05332c-6.50671,4.46463 -1.22115,13.05784 -1.22709,18.03579c-0.00159,1.33252 1.81932,3.70659 0.07629,4.68535c1.73155,0.05164 3.40393,0.09882 4.46911,0.10008c7.07948,0.00844 14.15885,0.01691 21.23836,0.02534c28.16106,0.03363 60.88067,-0.12133 88.2166,-2.24179c32.45638,-2.25817 67.62602,1.07763 100.34317,-0.9449c17.91658,-1.01259 37.4447,-0.37466 55.68556,-0.34556c9.25362,0.01474 17.17919,-1.08324 21.23719,0.98136c1.06659,0.54268 0.00151,-1.27466 0.00228,-1.912c0.00191,-1.59331 0.00382,-3.18666 0.0057,-4.77997c0.01067,-8.92264 0.0213,-17.84522 0.03197,-26.76781c0.00254,-2.10933 -1.74328,-9.658 1.88804,-10.47026c-0.68101,-0.01361 -1.45174,-0.03541 -1.87547,-0.04565c-3.75424,-0.09082 -5.85188,-0.02811 -8.78108,-0.69034c-5.08522,-1.14963 -22.24685,-0.30271 -29.14345,-0.31095c-26.80074,-0.03201 -53.60144,-0.06402 -80.40225,-0.09602c0,0 -6.06808,-0.00724 -6.0658,-1.91921c0.00009,-0.07851 0.01034,-0.15371 0.03007,-0.22583c-2.90063,-0.19719 -5.83054,-0.46936 -8.81051,-0.9425zM261.80806,333.68636c16.17837,0.01932 36.85667,-0.8637 47.90044,3.02609c6.3286,2.22902 2.14654,9.34645 2.143,12.3296c-0.01067,8.92264 -0.0213,17.84522 -0.03197,26.76781c-0.00121,1.01887 2.0828,6.07564 -0.008,6.69196c-21.11816,6.22482 -60.90253,1.30356 -86.68333,3.1023c-31.99209,1.97771 -68.82751,-1.90777 -99.77975,0.90565c-28.1741,2.18546 -62.11347,2.38718 -91.16024,2.35248c-4.16645,-0.00498 -29.15409,0.95941 -31.8575,-0.03804c-7.75254,-2.86037 -6.06183,-5.23671 -6.0578,-8.61119c0.00728,-6.10365 -3.41792,-13.38337 1.85143,-19.2443c5.89517,-5.55915 10.03142,-11.13689 19.42979,-16.55343c3.7912,-2.18494 7.8869,-5.10875 12.78529,-7.08041c3.20525,-1.29015 9.33178,-2.33416 10.09907,-4.01535c5.19665,-4.42192 14.57645,-2.9598 25.67823,-3.69078c19.76249,-1.30121 40.21086,-0.90797 60.6821,-0.88352c7.54966,0.00902 22.30215,-1.06816 27.62763,-0.72115c9.27049,0.60408 14.64236,3.10174 23.62723,3.8522c6.59297,0.55066 13.54179,0.23765 21.2367,1.45935c0.58419,0.09276 1.16828,0.18548 1.75247,0.27823c20.25515,0.02418 40.51031,0.04838 60.76551,0.07258z" fill="#000000" stroke="none" stroke-linecap="butt"/><path d="M175.44989,335.17748c-0.01974,0.07215 -0.02928,0.14741 -0.02938,0.22588c-0.00228,1.912 6.09559,1.92253 6.09559,1.92253c26.80074,0.03201 53.74427,0.1022 80.54515,0.1342c6.89658,0.00824 24.07375,-0.82976 29.15897,0.31985c2.92909,0.66221 5.03152,0.60271 8.78563,0.69348c0.42381,0.01027 1.19509,0.0325 1.8762,0.04617c-3.63134,0.8123 -1.86712,8.37922 -1.86966,10.48858c-0.01067,8.92264 -0.03403,17.89825 -0.04466,26.82086c-0.00191,1.59331 -0.01421,3.1944 -0.01611,4.78768c-0.00077,0.63736 1.05974,2.45747 -0.00685,1.91484c-4.05801,-2.06457 -11.99077,-0.9625 -21.24437,-0.97726c-18.24087,-0.02904 -37.82426,-0.64525 -55.74083,0.36734c-32.7172,2.02252 -68.20835,-1.29514 -100.66474,0.96305c-27.33595,2.12046 -60.18838,2.24199 -88.34958,2.20836c-7.07948,-0.00844 -14.17126,-0.02292 -21.25075,-0.03137c-1.06525,-0.00128 -2.73995,-0.04971 -4.47137,-0.10131c1.74308,-0.97874 -0.08916,-3.3596 -0.08758,-4.69211c0.00595,-4.97793 -5.3081,-13.60428 1.19868,-18.06891c5.75176,-5.42391 9.40484,-10.68468 18.78311,-16.08958c6.91962,-3.98801 17.7337,-7.54591 23.45976,-11.50866c2.77652,-2.36255 5.2764,-0.67593 14.30974,-1.21269c19.98842,-1.18769 40.16432,-0.93481 60.81213,-0.91016c7.52611,0.00899 17.06267,0.49708 24.35695,0.0243c1.53961,-0.09982 4.45771,-0.47411 6.62692,-0.78095c-3.96818,0.96093 5.11863,1.90708 8.9215,2.51084c2.98012,0.47314 5.94534,0.74789 8.84593,0.94506z" fill="#c9c9c9" stroke="none" stroke-linecap="butt"/><path d="M90.37411,342.08559c-0.00078,0.64619 2.09022,1.43182 1.04696,1.94221c2.66674,0.0897 5.34916,0.2818 7.73175,0.66009c9.18638,1.45855 27.87124,6.75555 29.62949,10.24487c0.14297,0.28382 -2.45532,0.32813 -2.01561,0.58017c1.46311,0.83871 13.39658,-0.60159 14.76875,-0.36226c0.31054,0.05417 0.46304,0.13818 0.52401,0.2402c-0.06354,-0.31684 -0.12167,-0.62315 -0.12145,-0.81586c0.00081,-0.67726 0.08658,-1.40702 -0.87394,-2.01393c-8.16453,-5.34906 -21.50842,-10.44072 -44.62185,-10.46832c0,0 -2.72755,-0.00325 -4.52474,-0.58162c-0.59944,-0.10805 -1.06549,-0.23477 -1.37791,-0.38317c-0.08078,0.36465 -0.16524,0.73584 -0.16552,0.95754zM141.9358,356.48701c0.41365,0.39196 0.29226,-0.25793 0.1555,-0.93784c-0.02915,0.29495 -0.43823,0.67001 -0.1555,0.93784zM151.92102,350.8639c7.53964,4.76388 -9.60097,11.69064 -25.15889,8.47297c-14.67905,-3.03592 -19.64371,-9.10819 -33.04081,-11.23523c-4.52601,-0.71857 -9.94988,-1.11439 -13.33014,-2.30497c-5.35672,-1.88674 -2.97346,-8.30473 7.27464,-8.2925c7.37933,0.00881 11.01309,0.7673 17.88313,0.77548l3.03399,0.00361c0,0 3.48286,0.00416 5.1704,0.8376c17.97256,1.87024 29.50128,6.58116 38.16767,11.74302z" fill="#000000" stroke="none" stroke-linecap="butt"/><path d="M90.31439,341.06365c0.31219,0.14838 0.77856,0.27508 1.37803,0.38317c1.79718,0.57835 4.53711,0.57754 4.53711,0.57754c23.11339,0.0276 36.93908,5.23211 45.10352,10.58117c0.96057,0.60692 0.84825,1.34997 0.84745,2.0272c-0.00022,0.1927 0.04667,0.50338 0.11019,0.82024c-0.06088,-0.10211 -0.2119,-0.18655 -0.52255,-0.24074c-1.37221,-0.23932 -13.40904,1.22598 -14.87218,0.3873c-0.43974,-0.25206 1.87058,-0.46461 1.72746,-0.74845c-1.75818,-3.48931 -20.53326,-8.75969 -29.71975,-10.21825c-2.38266,-0.3783 -5.08048,-0.56263 -7.74725,-0.65234c1.04327,-0.51046 -1.02281,-1.30782 -1.02204,-1.954c0.00025,-0.22171 0.09877,-0.59818 0.17975,-0.96283z" fill="#ffffff" stroke="none" stroke-linecap="butt"/></g><g><path d="M144.71791,12.5773l237.3338,-90.25816l52.86979,66.49514l21.34898,-10.35254l53.25369,66.17937l25.78719,-10.09003l50.06369,64.99304l-23.95193,66.4048l129.62955,32.39488l-69.49921,218.1041l-147.29822,-35.47092l-26.71352,-31.47365l-43.8571,-11.50167l-4.47781,25.10364l-36.80845,-10.19399l-12.49734,-9.18353l-278.70726,-63.92095l35.24427,-164.85044l17.19807,5.00784z" fill="#d3cbc9" stroke="#000000" stroke-width="1" stroke-linecap="round"/><path d="M89.15579,111.97447l-0.92629,-9.63924l320.01459,79.58912l-4.46298,11.60079l-309.21627,-80.23305z" fill="#4e4770" stroke="#000000" stroke-width="1" stroke-linecap="round"/><path d="M381.43255,-77.23932l-250.47665,95.7438l-6.81583,-10.66458l263.74174,-103.15403l49.10772,66.39733l25.69308,-9.70367l49.97951,67.01896l29.35857,-9.62937l66.51137,89.46388l-12.77472,8.75757l-60.10418,-82.58243l-85.34148,34.46559l-15.60806,-13.21555l67.1874,-22.10692l-46.38829,-55.29806l-19.90756,9.47581l-3.76953,-1.3275l-139.7046,56.01277l-11.08563,-14.97896l143.68217,-52.17886z" fill="#4e4770" stroke="#000000" stroke-width="1" stroke-linecap="round"/><path d="M621.95441,416.83096l-147.27685,-34.64713l-26.33708,-33.0191l-44.72393,-11.30353l-4.18558,25.58413l-35.26301,-9.81752l-15.10777,-10.22869l-277.56178,-61.06232l12.36354,-60.83722l558.8609,134.08581z" fill="#9a918a" stroke="#000000" stroke-width="1" stroke-linecap="round"/><path d="M399.9582,337.68632l22.75566,-96.77885l49.36028,12.4329l-27.02917,95.84018z" fill="#0b0b03" stroke="#000000" stroke-width="1" stroke-linecap="round"/><path d="M399.00717,339.91038l23.0281,-99.57747l32.74669,8.386l-25.36609,95.73368z" fill="#32342f" stroke="#000000" stroke-width="1" stroke-linecap="round"/><path d="M462.60192,102.35938l5.27534,-4.8543l8.28203,-2.07547l16.30151,0.28729l15.27618,6.17682l10.65965,8.32659l6.60779,8.15819l-26.06451,91.87998l-64.24019,-16.87605z" fill="#0b0b03" stroke="#000000" stroke-width="1" stroke-linecap="round"/><path d="M578.43396,197.69791l96.96707,21.98292l-41.25768,127.36836l-92.71709,-20.94768z" fill="#0b0b03" stroke="#000000" stroke-width="1" stroke-linecap="round"/><path d="M243.77597,108.91414l-82.87971,-21.00714l13.43842,-58.52896l83.17194,21.48761z" fill="#0b0b03" stroke="#000000" stroke-width="1" stroke-linecap="round"/><path d="M564.71805,154.45134l172.71393,43.70833l-13.16107,8.66345l-163.82757,-41.54371z" fill="#4e4770" stroke="#000000" stroke-width="1" stroke-linecap="round"/><path d="M101.13196,286.28087l23.14695,-111.82717l243.11115,57.99129l-28.27371,109.35047z" fill="#f7f5f6" stroke="#000000" stroke-width="1" stroke-linecap="round"/><path d="M114.55804,289.55132l21.97303,-98.60662l217.44776,56.65141l-25.29181,92.0682z" fill="#d3cbc9" stroke="#000000" stroke-width="1" stroke-linecap="round"/><path d="M300.70492,132.3632c-0.97159,-0.23667 -0.73492,-1.20826 -0.73492,-1.20826l0.17434,-0.71572c0.75241,-2.96104 0.1045,-6.18282 0.56934,-9.22483c1.10829,-7.25274 7.10801,-16.0956 13.35325,-19.84939c2.42051,-0.76484 4.8598,-1.47804 7.27181,-2.26887c0.99151,-0.32509 1.95228,-0.74021 2.94647,-1.05696c1.59514,-0.50821 2.43221,-0.70884 4.1001,-0.88875c0.52305,-0.05642 2.57083,-0.14811 3.31751,-0.1831c1.70664,-0.07998 2.31825,-0.16803 4.01243,-0.01316c2.4877,0.22742 4.99242,0.82598 7.41502,1.41591c1.90546,0.464 3.82942,0.88664 5.72361,1.3945c1.25486,0.33644 2.49272,0.73338 3.739,1.10033c0.65788,0.16068 1.32353,0.29242 1.97365,0.48205c1.08177,0.31553 2.11503,0.77847 3.17658,1.1565c1.63606,0.58263 3.26819,1.15168 4.89428,1.76261c2.29493,0.86222 4.63493,1.52794 6.83516,2.62824c0.63294,0.31652 1.28304,0.60873 1.873,0.99954c0.58287,0.38612 1.08718,0.87939 1.6295,1.32064c0.5381,0.43782 1.10091,0.84723 1.61175,1.31657c0.29746,0.2733 0.5381,0.60261 0.80608,0.90487c0.45674,0.51516 0.94619,1.00331 1.36806,1.5474c0.68682,0.88582 1.25678,1.85638 1.88565,2.78425c1.13067,1.66829 2.44849,3.33105 3.35251,5.13857c0.27854,0.55693 0.4528,1.16015 0.67921,1.74023c0.03001,0.07737 1.45505,3.74926 1.46782,3.78967c0.20725,0.65603 0.33147,1.33548 0.49652,2.00339c0.72717,2.94244 1.08311,5.9352 1.6491,8.9104c0.55356,2.90989 1.24221,5.80128 1.9022,8.68876c0.01372,0.06004 0.89449,3.91185 0.90039,3.94381c0.34912,1.88805 0.51549,3.83514 0.7149,5.74297c0,0 0.10391,0.99459 -0.8907,1.09849c-0.99459,0.10391 -1.09849,-0.8907 -1.09849,-0.8907c-0.19398,-1.85782 -0.35333,-3.75533 -0.69361,-5.59386c-0.23991,-1.29622 -0.58848,-2.56996 -0.88221,-3.85507c-0.6654,-2.91109 -1.35899,-5.82617 -1.9171,-8.75986c-0.55927,-2.93972 -0.90975,-5.89825 -1.62623,-8.80575c-0.1544,-0.6266 -0.26747,-1.26474 -0.46187,-1.8801c-0.39522,-1.25106 -0.95087,-2.44565 -1.42535,-3.66886c-0.20274,-0.52626 -0.35636,-1.07418 -0.60824,-1.57876c-0.86024,-1.7233 -2.13716,-3.31175 -3.21444,-4.90126c-0.60498,-0.89264 -1.1499,-1.82864 -1.81063,-2.68084c-0.39513,-0.50962 -0.85704,-0.96377 -1.28448,-1.4466c-0.2319,-0.26196 -0.43535,-0.55169 -0.69354,-0.78779c-0.47203,-0.43163 -0.99423,-0.80496 -1.49009,-1.20901c-0.49162,-0.40061 -0.94413,-0.85397 -1.47233,-1.20495c-0.52111,-0.34627 -1.0996,-0.59783 -1.65987,-0.87632c-2.13707,-1.06228 -4.4114,-1.70653 -6.63875,-2.54311c-1.61624,-0.60704 -3.23818,-1.17272 -4.86429,-1.75175c-1.03314,-0.36789 -2.03737,-0.82245 -3.09056,-1.1283c-0.63008,-0.18297 -1.27513,-0.30975 -1.9127,-0.46463c-1.24638,-0.36661 -2.48414,-0.76389 -3.739,-1.10033c-1.87901,-0.50376 -3.78771,-0.92221 -5.67782,-1.38276c-2.32713,-0.56705 -4.73418,-1.14692 -7.12382,-1.3674c-1.55157,-0.14317 -2.1558,-0.05574 -3.73609,0.01926c-0.6939,0.03293 -2.71153,0.12248 -3.19931,0.17401c-2.34737,0.24803 -4.40806,1.12659 -6.62413,1.85359c-2.3476,0.77015 -4.72073,1.47426 -7.08389,2.19522c-5.62508,3.47057 -11.19144,11.73516 -12.19896,18.32857c-0.47679,3.12021 0.11718,6.33156 -0.6032,9.39606l-0.17434,0.71572c0,0 -0.23667,0.97159 -1.20826,0.73492z" fill="#000000" stroke="none" stroke-width="0.5" stroke-linecap="butt"/><path d="M327.41609,40.96687c0.15351,-0.02607 0.30572,-0.052 0.45615,-0.07804c0.43842,-0.07593 0.87124,-0.21121 1.31602,-0.22345c0.70593,-0.01943 1.40985,0.08475 2.11467,0.12901c2.95177,0.18537 5.85558,0.97859 8.69408,1.77049c1.16586,0.32526 2.36352,0.55356 3.49675,0.97879c0.64834,0.24328 1.2619,0.57072 1.89203,0.85793c0.6178,0.28158 1.2655,0.50588 1.85173,0.84838c0.06116,0.03573 3.24541,2.34679 3.34102,2.41613c0.00835,0.00667 3.04311,2.42639 3.09126,2.47371c0.22502,0.22114 1.8612,2.23074 2.25727,2.67755c0.11048,0.12462 2.68317,2.90791 2.74589,2.99088c0.39742,0.52566 0.72149,1.10511 1.0302,1.68731c0.34098,0.64303 0.69418,1.28896 0.91566,1.9823c0.21589,0.67577 0.25892,1.39502 0.38622,2.09292c0.35273,1.93373 0.65231,3.94734 0.55739,5.92201c-0.03317,0.69011 -0.18671,1.36917 -0.27027,2.05499c-0.08264,0.67825 -0.1113,1.36387 -0.2283,2.03705c-0.11923,0.68603 -0.30039,1.36028 -0.47909,2.03328c-0.31816,1.1981 -0.65431,2.39319 -1.05922,3.56482c-0.18821,0.54463 -0.33903,1.11317 -0.63376,1.60833c-0.21178,0.35581 -0.5819,0.58967 -0.85809,0.89815c-0.38688,0.4321 -0.69625,0.93816 -1.13036,1.32278c-0.51573,0.45692 -1.13078,0.78764 -1.69617,1.18146c-0.99629,0.89856 -2.03699,1.74997 -3.11324,2.55102c-1.34225,0.99901 -1.97752,1.57106 -3.51509,2.29112c-0.62875,0.29444 -1.30108,0.48509 -1.95291,0.72412c-0.52624,0.19297 -1.03067,0.46696 -1.58128,0.57187c-0.70524,0.13437 -1.43246,0.09921 -2.14928,0.13894c-2.57138,0.14252 -5.12208,0.1338 -7.66427,-0.34554c-0.96844,-0.1826 -2.87031,-0.73138 -3.80107,-0.98912c-0.00937,-0.00259 -3.77669,-1.04529 -3.8127,-1.05783c-0.67921,-0.23645 -1.35556,-0.49337 -1.99316,-0.8261c-0.53207,-0.27765 -0.96879,-0.7163 -1.49954,-0.9965c-0.434,-0.22912 -0.94105,-0.29596 -1.37669,-0.52196c-1.62893,-0.84505 -3.08637,-2.05027 -4.53069,-3.16788c-0.36049,-0.66328 -0.75202,-1.31061 -1.08147,-1.98985c-0.53085,-1.09449 -0.90652,-2.25892 -1.41937,-3.36195c-0.43447,-0.93444 -0.9035,-1.85273 -1.38195,-2.76545c-0.6324,-1.20641 -1.35544,-2.40167 -1.83957,-3.68179c-0.24459,-0.64676 -0.39728,-1.32467 -0.58881,-1.98908c-0.13883,-0.48161 -0.38852,-0.94781 -0.40226,-1.44885c-0.0352,-1.28432 0.40906,-2.53941 0.51508,-3.81981c0.05091,-0.61477 0.04274,-1.23311 0.07604,-1.8491c0.01903,-0.35219 0.08887,-0.7024 0.08093,-1.05502c-0.01467,-0.65075 -0.27518,-2.48209 -0.19232,-3.18494c0.07486,-0.635 0.33047,-1.23673 0.44646,-1.86551c0.08978,-0.4867 0.08449,-0.98751 0.16976,-1.47503c0.07761,-0.44369 0.21163,-0.87564 0.31793,-1.31334c0.03966,-0.16328 0.7463,-3.06467 0.75394,-3.08991c0.19462,-0.64161 0.44852,-1.26373 0.67278,-1.89559c0.78765,-1.26333 1.62548,-3.1363 2.95018,-3.96391c3.15101,-1.96862 6.70857,-1.59321 10.1215,-0.84971zM321.88405,42.41072c-1.20496,0.11155 -2.39391,0.44344 -3.5501,1.1146c-0.92223,0.53534 -1.65357,2.27981 -2.18831,3.12447c-0.53019,1.5196 -0.90315,3.02785 -1.28474,4.58955c-0.09708,0.39731 -0.22245,0.7887 -0.29227,1.19168c-0.08449,0.48766 -0.07895,0.98851 -0.16976,1.47503c-0.10794,0.57838 -0.35071,1.12947 -0.42524,1.71308c-0.12599,0.9865 0.18149,1.98238 0.20225,2.97667c0.00823,0.39402 -0.06328,0.78577 -0.08424,1.1793c-0.03377,0.63427 -0.0271,1.27087 -0.07995,1.90384c-0.04868,0.58303 -0.13983,1.16183 -0.22434,1.74075c-0.08639,0.59182 -0.29626,1.17294 -0.28827,1.77098c0.00477,0.35744 0.22215,0.67962 0.32553,1.0218c0.18563,0.61444 0.31518,1.24725 0.54145,1.84791c0.42144,1.11879 1.19395,2.4182 1.74372,3.46701c0.49225,0.93908 0.9744,1.88412 1.4213,2.84561c0.51076,1.09888 0.90419,2.24973 1.41346,3.3493c0.24313,0.52493 0.52863,1.02919 0.79294,1.54378c1.26718,0.91125 2.50885,1.9615 3.90196,2.67717c0.44392,0.22805 0.95765,0.30034 1.39902,0.53327c0.53907,0.28448 0.98597,0.7243 1.5246,1.00959c1.65762,0.87799 3.61058,1.22656 5.4008,1.72242c0.8087,0.224 2.7622,0.78613 3.63243,0.95019c2.39251,0.45106 4.77608,0.43421 7.19471,0.31465c0.61468,-0.03039 1.23876,0.01436 1.84363,-0.09918c0.45495,-0.0854 0.86517,-0.32957 1.29911,-0.49074c0.59907,-0.22252 1.22019,-0.3913 1.79987,-0.66033c1.33984,-0.62185 1.98476,-1.20289 3.16597,-2.0827c1.06032,-0.78977 2.08413,-1.6308 3.06677,-2.51534c0.53111,-0.36477 1.1101,-0.66813 1.59333,-1.09431c0.38862,-0.34273 0.65055,-0.80743 0.99845,-1.19143c0.20274,-0.22379 0.49656,-0.37035 0.65135,-0.62963c0.21206,-0.35522 0.29387,-0.77385 0.42148,-1.16739c0.36889,-1.13759 0.71232,-2.28396 1.02129,-3.43925c0.16459,-0.61538 0.33275,-1.23171 0.44098,-1.85947c0.11044,-0.64062 0.13468,-1.29322 0.21375,-1.93845c0.07815,-0.63766 0.22603,-1.26833 0.25788,-1.90998c0.09059,-1.82422 -0.20922,-3.68317 -0.52795,-5.46915c-0.10961,-0.61423 -0.13714,-1.24829 -0.3244,-1.84345c-0.18174,-0.57757 -0.48806,-1.10952 -0.7729,-1.64383c-0.26176,-0.49101 -0.52716,-0.98549 -0.86463,-1.4279c-0.79,-1.03572 -1.78553,-1.89767 -2.64953,-2.87252c-0.19499,-0.22 -2.12568,-2.54083 -2.15176,-2.56649c-0.41309,-0.40632 -0.90828,-0.71975 -1.36156,-1.08068c-0.51547,-0.41046 -1.02981,-0.82234 -1.5447,-1.23351c-0.53354,-0.38667 -1.06761,-0.77261 -1.60064,-1.16c-0.51236,-0.37236 -0.98865,-0.79968 -1.53549,-1.11928c-0.52868,-0.30898 -1.11659,-0.50312 -1.67405,-0.75651c-0.58341,-0.26519 -1.14875,-0.57357 -1.74856,-0.79922c-0.46056,-0.17327 -0.94865,-0.26202 -1.42275,-0.39386c-1.27925,-0.35575 -2.55219,-0.73485 -3.83683,-1.07071c-1.91574,-0.50085 -3.89052,-0.94964 -5.86738,-1.12812c-0.00581,0.05657 -0.01603,0.11604 -0.03126,0.17855c-0.23667,0.97159 -1.20826,0.73492 -1.20826,0.73492l-1.12368,-0.27371c-0.64055,-0.15603 -1.28625,-0.31842 -1.93457,-0.46911c-0.37118,0.06219 -0.74218,0.1254 -1.11131,0.19863c-1.94631,0.38621 -3.77726,1.04563 -5.55218,1.91801c0,0 -0.89791,0.44018 -1.33809,-0.45773c-0.44018,-0.89791 0.45773,-1.33809 0.45773,-1.33809c0.67571,-0.33046 1.3539,-0.63563 2.04393,-0.91076z" fill="#000000" stroke="none" stroke-width="0.5" stroke-linecap="butt"/><path d="M319.87015,43.36146c0,0 -0.89616,0.4388 -0.45597,1.33671c0.44018,0.89791 1.27568,0.37961 1.27568,0.37961c1.77492,-0.87239 3.61593,-1.53787 5.56224,-1.92406c0.36912,-0.07325 0.74226,-0.13735 1.11345,-0.19954c0.64832,0.15068 1.29742,0.31186 1.93797,0.4679l1.12584,0.27309c0,0 0.97454,0.23598 1.21122,-0.73562c0.01523,-0.06252 0.0256,-0.12202 0.03139,-0.17859c1.97686,0.17848 3.96489,0.62642 5.88063,1.12728c1.28463,0.33586 2.56694,0.71651 3.84621,1.07227c0.4741,0.13184 0.9656,0.22163 1.42616,0.3949c0.59981,0.22565 1.16948,0.53575 1.75289,0.80094c0.55747,0.25339 1.14935,0.44955 1.67804,0.75853c0.54683,0.31959 1.02703,0.74935 1.53938,1.12173c0.53302,0.38738 1.07091,0.77626 1.60445,1.16294c0.5149,0.41117 1.03273,0.82631 1.5482,1.23675c0.45328,0.36094 0.95122,0.67742 1.3643,1.08374c0.02608,0.02565 1.9613,2.35295 2.15628,2.57294c0.864,0.97485 1.86323,1.84451 2.65322,2.88023c0.33746,0.44241 0.60402,0.94031 0.86576,1.43132c0.28483,0.53432 0.59212,1.07003 0.77386,1.6476c0.18726,0.59516 0.21547,1.23321 0.32508,1.84743c0.31873,1.78597 0.61869,3.65665 0.52811,5.48086c-0.03186,0.64165 -0.18032,1.27635 -0.25848,1.91401c-0.07907,0.64524 -0.10423,1.30181 -0.21468,1.94243c-0.10823,0.62775 -0.27759,1.24789 -0.44218,1.86326c-0.30899,1.1553 -0.6554,2.30836 -1.0243,3.44595c-0.12761,0.39353 -0.21063,0.81431 -0.4227,1.16954c-0.15479,0.25928 -0.44956,0.40736 -0.6523,0.63116c-0.34788,0.38401 -0.61165,0.8513 -1.00026,1.19402c-0.48323,0.42618 -1.06465,0.73253 -1.59576,1.0973c-0.98264,0.88454 -2.01248,1.73138 -3.0728,2.52115c-1.18121,0.87982 -1.83279,1.46542 -3.17264,2.08728c-0.57966,0.26904 -1.20442,0.4397 -1.80348,0.66222c-0.43393,0.16118 -0.8469,0.40654 -1.30186,0.49193c-0.60487,0.11354 -1.2326,0.07008 -1.84728,0.10047c-2.41863,0.11956 -4.81823,0.13866 -7.21073,-0.3124c-0.87023,-0.16407 -2.83253,-0.72718 -3.64123,-0.95118c-1.79022,-0.49586 -3.75606,-0.84894 -5.41368,-1.72693c-0.53863,-0.2853 -0.98935,-0.7273 -1.52842,-1.01177c-0.44138,-0.23293 -0.95799,-0.30717 -1.40191,-0.53522c-1.39311,-0.71567 -2.64286,-1.7733 -3.91003,-2.68456c-0.26431,-0.51459 -0.5523,-1.02191 -0.79542,-1.54685c-0.50928,-1.09956 -0.9072,-2.25766 -1.41795,-3.35654c-0.4469,-0.96149 -0.93196,-1.91354 -1.42421,-2.85262c-0.54977,-1.04882 -1.32429,-2.35677 -1.74572,-3.47557c-0.22627,-0.60067 -0.35625,-1.23772 -0.54188,-1.85217c-0.10338,-0.34219 -0.32083,-0.66667 -0.32561,-1.0241c-0.00797,-0.59805 0.202,-1.18312 0.28839,-1.77493c0.08451,-0.57892 0.17608,-1.16164 0.22476,-1.74465c0.05284,-0.63298 0.04695,-1.27369 0.08074,-1.90797c0.02095,-0.39355 0.0931,-0.78777 0.08489,-1.18179c-0.02075,-0.9943 -0.3263,-1.99569 -0.2003,-2.98219c0.07454,-0.58362 0.31882,-1.13797 0.42675,-1.71633c0.0908,-0.48652 0.0866,-0.98983 0.1711,-1.47748c0.06982,-0.403 0.1964,-0.79636 0.2935,-1.19367c0.3816,-1.56171 0.75972,-3.07664 1.28991,-4.59624c0.53474,-0.84466 1.27103,-2.59383 2.19325,-3.12917c1.1562,-0.67115 2.3504,-1.00685 3.55536,-1.1184c-0.69003,0.27511 -1.31154,0.66257 -1.98725,0.99303z" fill="#ffffff" stroke="none" stroke-width="0.5" stroke-linecap="butt"/><path d="M383.68257,53.81323c0.07493,0.01216 0.14987,0.02431 0.22479,0.03646c1.1181,0.18119 2.23223,0.38884 3.35426,0.54387c0.50317,0.06952 1.01364,0.08648 1.51368,0.17588c0.50383,0.09006 0.99493,0.24066 1.49227,0.36151c0.0325,0.0079 3.89553,0.94881 3.91146,0.95314c0.65176,0.17677 1.29441,0.38552 1.94098,0.58046c0.53684,0.16186 1.10016,0.25483 1.60919,0.48995c0.64357,0.29725 1.21623,0.72866 1.82297,1.09528c0.49875,0.30137 1.02281,0.56513 1.49349,0.90868c0.55969,0.40854 1.05933,0.89357 1.5885,1.34093c1.4622,1.23615 2.91907,2.46919 4.41335,3.66652c1.0515,0.84327 1.19123,0.92915 2.36888,2.04977c0.74946,0.71317 1.42914,1.49797 2.18657,2.20269c0.34336,0.31946 0.77845,0.55042 1.05917,0.9261c0.30223,0.40445 0.50652,0.88337 0.65383,1.3663c0.83857,2.74909 0.28184,5.60572 -0.09935,8.3784c-0.4323,3.14445 -1.21456,6.2062 -1.96517,9.28768c-0.15778,0.64773 -0.31468,1.29567 -0.47333,1.94318c-0.12674,0.51724 -0.19911,1.05123 -0.38283,1.55108c-0.49342,1.34243 -1.2089,2.48157 -1.91274,3.71398c-0.53634,0.93912 -1.08081,1.89149 -1.61859,2.83229c-0.37301,0.59222 -0.70078,1.21546 -1.11902,1.77668c-0.60433,0.81093 -2.18831,2.49412 -2.99569,3.09278c-1.09656,0.81307 -2.05987,0.93016 -3.36434,1.29435c-0.64126,0.17903 -1.28207,0.35966 -1.92314,0.53941c-0.85861,0.24074 -2.7243,0.78898 -3.46263,0.85194c-1.42595,0.12159 -2.84548,-0.21908 -4.23006,-0.47081c-0.50358,-0.09155 -1.02052,-0.12897 -1.51006,-0.27839c-0.67703,-0.20665 -1.32177,-0.50796 -1.97325,-0.78484c-0.62055,-0.26376 -1.22844,-0.5564 -1.84172,-0.83665c-0.46842,-0.21405 -0.97001,-0.36799 -1.40339,-0.64624c-0.13799,-0.08861 -1.99247,-1.59184 -2.4767,-1.9748c-2.39042,-1.8904 -4.66385,-3.9271 -6.97897,-5.91043c-1.32511,-1.37938 -1.60356,-1.58957 -2.76192,-3.11249c-0.37484,-0.4928 -1.95521,-2.79987 -2.31348,-3.32c-1.05426,-1.53059 -2.05787,-3.04762 -2.97976,-4.66304c-0.66087,-1.15804 -1.32644,-2.31339 -1.98197,-3.47445c-0.35917,-0.63613 -0.83808,-1.21994 -1.06981,-1.91274c-0.23788,-0.71127 -0.254,-1.48031 -0.31503,-2.22782c-0.05582,-0.68386 -0.02419,-1.37207 -0.03488,-2.05811c-0.00587,-0.37638 -0.04885,-0.75431 -0.01483,-1.1292c0.06274,-0.6912 0.20229,-1.37325 0.30425,-2.05976c0.00823,-0.05534 0.59301,-3.97176 0.59832,-3.99908c0.13,-0.66914 0.31642,-1.32607 0.47617,-1.98872c0.24585,-1.01979 0.41982,-2.06021 0.74492,-3.05756c0.13457,-0.41282 0.35115,-0.79595 0.48415,-1.2093c0.1392,-0.43266 0.22036,-0.88188 0.33054,-1.32281c1.21473,-2.09506 2.09532,-4.94341 3.84666,-6.65413c4.14794,-4.05171 9.74957,-0.58066 14.21205,0.50635zM376.34496,53.02878c-2.21164,-0.55562 -4.39458,-0.58579 -6.03717,1.07135c-1.53647,1.55007 -2.2946,4.12073 -3.40228,5.98568c-0.09322,0.39408 -0.15645,0.79646 -0.27966,1.18221c-0.13202,0.41337 -0.34837,0.79633 -0.48391,1.20855c-0.31254,0.95052 -0.47072,1.94502 -0.70572,2.91763c-0.15306,0.63346 -0.33278,1.26116 -0.45706,1.9009c-0.25148,1.29461 -0.38759,2.60898 -0.58356,3.91314c-0.09499,0.6322 -0.22712,1.25984 -0.28667,1.89635c-0.02997,0.3203 0.01356,0.64325 0.01893,0.9649c0.01081,0.64711 -0.01343,1.2956 0.02959,1.94137c0.03878,0.58209 0.02673,1.18483 0.21544,1.73685c0.19501,0.57045 0.61091,1.03951 0.91217,1.5617l1.98197,3.47445c0.89334,1.56671 1.8674,3.03541 2.88963,4.51953c0.31918,0.46339 1.91006,2.785 2.25882,3.24449c1.05961,1.39601 1.33334,1.60855 2.54219,2.86798c2.2763,1.94108 4.50292,3.94349 6.84911,5.79801c0.76601,0.60548 1.46103,1.30767 2.28101,1.83778c0.36297,0.23466 0.78975,0.35147 1.18366,0.52938c0.60063,0.27129 1.19433,0.55817 1.79991,0.81822c0.57472,0.24679 1.14209,0.51892 1.74018,0.70193c0.42521,0.13011 0.87595,0.15374 1.31359,0.2325c1.10296,0.19851 2.5534,0.54841 3.70077,0.44637c0.54564,-0.04852 2.44292,-0.60197 3.09573,-0.78514c0.64273,-0.18033 1.28477,-0.36314 1.92824,-0.54083c0.91556,-0.25283 1.94944,-0.3935 2.73854,-0.99589c1.50744,-1.15078 2.57076,-2.68806 3.56001,-4.26891c0.53527,-0.93717 1.06015,-1.85629 1.59759,-2.79642c0.59779,-1.0457 1.3434,-2.24173 1.76218,-3.38427c0.16066,-0.43833 0.2169,-0.90816 0.32673,-1.3619c0.28886,-1.19329 0.58111,-2.38574 0.87171,-3.5786c0.60246,-2.47311 1.1826,-4.92805 1.52858,-7.45099c0.34115,-2.4878 0.85048,-5.01144 0.17895,-7.48738c-0.07364,-0.27151 -0.16468,-0.55307 -0.34175,-0.77168c-0.2233,-0.27566 -0.56383,-0.43203 -0.82647,-0.6705c-0.28677,-0.26037 -0.54646,-0.54907 -0.81942,-0.82386c-1.16755,-1.17534 -2.33587,-2.30114 -3.62967,-3.33707c-1.50813,-1.20865 -2.98112,-2.45087 -4.45506,-3.70089c-0.48841,-0.41421 -0.94718,-0.86595 -1.4642,-1.24384c-0.42805,-0.31285 -0.90888,-0.54626 -1.36194,-0.82168c-0.53358,-0.32439 -1.03163,-0.71461 -1.59792,-0.97776c-0.4319,-0.20069 -0.9145,-0.26637 -1.37107,-0.40187c-1.26125,-0.37429 -2.53096,-0.72186 -3.80923,-1.03312c-1.10477,-0.26901 -2.19432,-0.60999 -3.31379,-0.80919c-0.47444,-0.08442 -0.959,-0.09785 -1.43637,-0.16363c-1.1373,-0.15673 -2.26657,-0.36705 -3.39983,-0.55071c-0.02563,-0.00416 -0.05126,-0.00831 -0.0769,-0.01246c-0.30996,0.09057 -0.56252,0.00239 -0.74575,-0.12059c-1.04206,-0.1683 -2.0842,-0.33599 -3.12584,-0.50685c-0.61793,-0.10136 -1.2287,-0.26159 -1.85319,-0.30783c-0.34682,-0.02568 -0.69274,0.06245 -1.03911,0.09368c0,0 -0.99657,0.08272 -1.07929,-0.91386c-0.05637,-0.67914 0.3885,-0.93388 0.67761,-1.02725z" fill="#000000" stroke="none" stroke-width="0.5" stroke-linecap="butt"/><path d="M375.68759,54.10175c0.08272,0.99657 1.03989,0.82195 1.03989,0.82195c0.34637,-0.03123 0.69408,-0.12006 1.04091,-0.09439c0.62448,0.04624 1.23835,0.20544 1.85628,0.3068c1.04164,0.17085 2.08965,0.33718 3.13171,0.50548c0.18323,0.12299 0.4373,0.21092 0.74726,0.12036c0.02563,0.00416 0.05143,0.00829 0.07705,0.01244c1.13326,0.18366 2.2698,0.39354 3.4071,0.55027c0.47737,0.06579 0.96512,0.07933 1.43955,0.16376c1.11947,0.1992 2.21649,0.54131 3.32127,0.81032c1.27827,0.31126 2.55635,0.66155 3.8176,1.03584c0.45657,0.13549 0.94201,0.20249 1.37391,0.40318c0.5663,0.26314 1.06797,0.65537 1.60153,0.97974c0.45305,0.27543 0.9368,0.51076 1.36486,0.82361c0.51702,0.37788 0.97914,0.83222 1.46755,1.24644c1.47394,1.25002 2.95538,2.50142 4.46351,3.71007c1.29379,1.03592 2.46696,2.17017 3.63452,3.34551c0.27297,0.27479 0.5335,0.56547 0.82027,0.82584c0.26265,0.23846 0.60382,0.39652 0.82711,0.67219c0.17708,0.2186 0.26864,0.5017 0.34227,0.77322c0.67153,2.47596 0.1646,5.01399 -0.17654,7.50178c-0.34597,2.52294 -0.92827,4.99339 -1.53073,7.4665c-0.29059,1.19287 -0.58557,2.39234 -0.87444,3.58562c-0.10983,0.45375 -0.16733,0.92603 -0.328,1.36437c-0.41878,1.14255 -1.16852,2.34494 -1.76632,3.39064c-0.53744,0.94012 -1.06639,1.86393 -1.60165,2.80109c-0.98926,1.58084 -2.06058,3.12473 -3.56802,4.27551c-0.78909,0.60239 -1.82762,0.7458 -2.74319,0.99863c-0.64346,0.17769 -1.28893,0.3621 -1.93165,0.54244c-0.65281,0.18316 -2.5559,0.73866 -3.10152,0.7872c-1.14737,0.10204 -2.60468,-0.24642 -3.70764,-0.44491c-0.43764,-0.07876 -0.891,-0.1021 -1.3162,-0.23221c-0.5981,-0.18301 -1.16904,-0.45496 -1.74377,-0.70175c-0.60558,-0.26004 -1.20325,-0.54704 -1.80388,-0.81832c-0.39391,-0.17792 -0.82342,-0.29498 -1.1864,-0.52964c-0.81997,-0.53012 -1.52091,-1.23338 -2.28692,-1.83886c-2.3462,-1.85451 -4.59264,-3.86688 -6.86897,-5.80796c-1.20885,-1.25943 -1.48986,-1.47935 -2.54947,-2.87535c-0.34876,-0.45947 -1.94539,-2.79012 -2.26458,-3.25351c-1.02224,-1.48413 -2.00061,-2.96569 -2.89395,-4.5324l-1.98286,-3.48325c-0.30125,-0.52219 -0.71709,-0.99476 -0.91209,-1.56521c-0.1887,-0.55202 -0.17629,-1.15851 -0.21506,-1.74061c-0.04302,-0.64576 -0.01805,-1.29834 -0.02885,-1.94545c-0.00537,-0.32165 -0.04843,-0.64655 -0.01847,-0.96686c0.05956,-0.63652 0.19287,-1.268 0.28786,-1.9002c0.19595,-1.30417 0.33526,-2.62573 0.58674,-3.92033c0.12426,-0.63974 0.30589,-1.27065 0.45895,-1.90411c0.235,-0.9726 0.39632,-1.97145 0.70886,-2.92198c0.13554,-0.41223 0.35339,-0.79696 0.48541,-1.21033c0.12321,-0.38575 0.18775,-0.78958 0.28098,-1.18365c1.10768,-1.86495 1.87445,-4.44279 3.41092,-5.99287c1.64258,-1.65714 3.83447,-1.63164 6.0461,-1.07602c-0.28912,0.09338 -0.6952,0.44026 -0.63882,1.11941z" fill="#ffffff" stroke="none" stroke-width="0.5" stroke-linecap="butt"/><path d="M351.55403,69.34454c0.39213,-1.60978 2.015,-2.59689 3.62478,-2.20476c1.60978,0.39213 2.59689,2.015 2.20476,3.62478c-0.39213,1.60978 -2.015,2.59689 -3.62478,2.20476c-1.60978,-0.39213 -2.59689,-2.015 -2.20476,-3.62478z" fill="#000000" stroke="none" stroke-width="0.5" stroke-linecap="butt"/><path d="M403.31779,81.7698c0.39213,-1.60978 2.015,-2.59689 3.62478,-2.20476c1.60978,0.39213 2.59689,2.015 2.20476,3.62478c-0.39213,1.60978 -2.015,2.59689 -3.62478,2.20476c-1.60978,-0.39213 -2.59689,-2.015 -2.20476,-3.62478z" fill="#000000" stroke="none" stroke-width="0.5" stroke-linecap="butt"/><path d="M299.4069,-0.09465c-0.27853,-1.21857 0.94004,-1.4971 0.94004,-1.4971l1.18828,-0.21036c11.18197,0.95996 19.9015,5.59485 28.97403,11.90743c0.10604,0.07379 4.1088,2.85779 4.17041,2.90505c1.03179,0.79143 1.9225,1.75155 2.88282,2.62833c0.08484,0.07748 3.70207,3.37892 3.74843,3.4256c0.97808,0.98491 1.80312,2.1108 2.70376,3.16699c0.05916,0.06938 3.26013,3.8222 3.28823,3.85917c0.02786,0.03664 2.78803,4.12554 2.83882,4.20081c0.47642,0.70595 0.9837,1.39206 1.42877,2.11818c0.01885,0.03076 2.41588,4.35871 2.45053,4.42131c0.41262,0.7453 0.85848,1.47316 1.23731,2.23619c0.82393,1.65962 0.97347,2.15959 1.52149,3.66282c0,0 0.42754,1.17462 -0.74709,1.60215c-1.17462,0.42754 -1.60215,-0.74709 -1.60215,-0.74709c-0.50528,-1.39068 -0.65279,-1.88191 -1.41093,-3.40506c-0.36306,-0.72941 -0.79053,-1.42495 -1.18552,-2.13759c-0.79908,-1.44169 -1.53372,-2.9209 -2.39511,-4.32625c-0.42591,-0.69486 -0.91298,-1.35032 -1.36921,-2.02565c-0.91993,-1.36169 -1.76265,-2.77863 -2.75714,-4.08686c-0.99449,-1.30822 -2.13402,-2.49956 -3.20029,-3.74998c-0.86692,-1.01666 -1.65645,-2.10451 -2.59894,-3.05155c-1.15733,-1.16295 -2.42494,-2.21067 -3.6366,-3.31691c-0.61542,-0.56187 -1.23125,-1.1233 -1.84625,-1.68563c-0.3041,-0.27805 -0.58368,-0.5853 -0.91109,-0.8355c-1.30239,-0.99533 -2.6926,-1.87017 -4.03811,-2.80636c-8.70915,-6.05975 -17.02245,-10.54782 -27.75992,-11.4687l-0.41749,0.15667c0,0 -1.21857,0.27853 -1.4971,-0.94004z" fill="#000000" stroke="none" stroke-width="0.5" stroke-linecap="butt"/><path d="M428.26006,11.35562c0.1034,1.24571 -1.14231,1.34912 -1.14231,1.34912l-0.54168,0.04435c-2.50081,0.28421 -4.96082,0.04742 -7.44383,0.26674c-5.90844,0.52189 -11.0848,4.17281 -15.8539,7.32702c-1.75369,1.41756 -3.50874,2.83343 -5.26354,4.24963c-1.28305,1.03546 -2.60846,2.02044 -3.84987,3.10548c-1.76327,1.54119 -3.39808,3.26796 -5.08938,4.88765c-0.63213,0.60537 -1.20937,1.27433 -1.89854,1.8139c-0.68916,0.53957 -1.47708,0.93942 -2.21646,1.40782c-2.11186,1.3379 -4.22657,2.67138 -6.34058,4.00587c-0.6856,0.43279 -1.3963,0.82805 -2.05726,1.29758c-0.66097,0.46954 -1.26672,1.0123 -1.90254,1.51538c-0.7032,0.55639 -1.3358,1.21831 -2.11446,1.663c-0.3698,0.2112 -2.9405,1.1361 -3.77454,1.4397c0,0 -1.17462,0.42754 -1.60215,-0.74709c-0.42754,-1.17462 0.74709,-1.60215 0.74709,-1.60215c0.58042,-0.21123 3.23114,-1.17064 3.38906,-1.26097c0.66838,-0.38234 1.19748,-0.96833 1.79891,-1.44917c0.6685,-0.53449 1.31304,-1.10112 2.01082,-1.5968c0.69776,-0.49567 1.44636,-0.91559 2.1698,-1.373c2.11303,-1.33605 4.22534,-2.67334 6.34058,-4.00587c0.66962,-0.42183 1.38745,-0.77487 2.01059,-1.26276c0.62314,-0.48788 1.13812,-1.10002 1.70831,-1.64886c1.71232,-1.64821 3.37917,-3.39593 5.1685,-4.96041c0.02925,-0.02558 3.87488,-3.12864 3.93205,-3.17478c1.78531,-1.4408 3.57043,-2.88184 5.35679,-4.32132c5.14149,-3.4087 10.66312,-7.19039 17.01876,-7.79031c2.49271,-0.23529 4.96387,0.0189 7.47159,-0.27007l0.61907,-0.05199c0,0 1.24571,-0.1034 1.34912,1.14231z" fill="#000000" stroke="none" stroke-width="0.5" stroke-linecap="butt"/></g></g></g></svg>