<svg version="1.1" xmlns="http://www.w3.org/2000/svg" xmlns:xlink="http://www.w3.org/1999/xlink" width="2878.25006" height="1619.57958" viewBox="0,0,2878.25006,1619.57958"><g transform="translate(1119.12503,629.78979)"><g stroke-miterlimit="10"><path d="M-1119.12503,989.78979v-1619.57958h2878.25006v1619.57958z" fill="none" stroke="#000000" stroke-width="0" stroke-linecap="butt"/><g stroke-width="1"><path d="M340.42117,333.71642l-23.23587,-42.8111l110.12791,0.2476l39.46477,42.41259z" fill="#cedce9" stroke="#000000" stroke-linecap="round"/><path d="M477.25056,331.32672c-2.97997,0.47314 -5.90988,0.74531 -8.81051,0.9425c0.01973,0.07212 0.02998,0.14732 0.03007,0.22583c0.00228,1.91197 -6.0658,1.91921 -6.0658,1.91921c-26.80081,0.032 -53.60151,0.06401 -80.40225,0.09602c-6.8966,0.00824 -24.05823,-0.83868 -29.14345,0.31095c-2.9292,0.66223 -5.02684,0.59952 -8.78108,0.69034c-0.42373,0.01024 -1.19446,0.03204 -1.87547,0.04565c3.63132,0.81226 1.8855,8.36093 1.88804,10.47026c0.01067,8.92259 0.0213,17.84517 0.03197,26.76781c0.00188,1.59331 0.00379,3.18666 0.0057,4.77997c0.00077,0.63734 -1.06431,2.45468 0.00228,1.912c4.058,-2.0646 11.98357,-0.96662 21.23719,-0.98136c18.24086,-0.0291 37.76898,-0.66703 55.68556,0.34556c32.71715,2.02253 67.88679,-1.31327 100.34317,0.9449c27.33593,2.12046 60.05554,2.27542 88.2166,2.24179c7.07951,-0.00843 14.15888,-0.0169 21.23836,-0.02534c1.06518,-0.00126 2.73756,-0.04844 4.46911,-0.10008c-1.74303,-0.97876 0.07788,-3.35283 0.07629,-4.68535c-0.00594,-4.97795 5.27962,-13.57116 -1.22709,-18.03579c-5.75176,-5.42394 -9.39233,-10.64834 -18.77058,-16.05332c-6.91953,-3.988 -17.68811,-7.51745 -23.41411,-11.48024c-2.77656,-2.36255 -5.2576,-0.66871 -14.29095,-1.20547c-19.98846,-1.18771 -40.03418,-0.90818 -60.6821,-0.88352c-7.5263,0.00899 -16.97814,0.50178 -24.27242,0.02899c-1.53976,-0.09978 -4.43371,-0.47416 -6.60294,-0.78099c3.96805,0.96097 -5.08274,1.90589 -8.88562,2.50967zM381.99714,330.68644c20.2552,-0.0242 40.51036,-0.0484 60.76551,-0.07258c0.58419,-0.09275 1.16828,-0.18547 1.75247,-0.27823c7.69491,-1.2217 14.64373,-0.90869 21.2367,-1.45935c8.98487,-0.75046 14.35674,-3.24812 23.62723,-3.8522c5.32548,-0.34701 20.07797,0.73017 27.62763,0.72115c20.47124,-0.02445 40.91961,-0.41769 60.6821,0.88352c11.10178,0.73098 20.48158,-0.73114 25.67823,3.69078c0.76729,1.68119 6.89382,2.7252 10.09907,4.01535c4.89839,1.97166 8.99409,4.89547 12.78529,7.08041c9.39837,5.41654 13.53462,10.99428 19.42979,16.55343c5.26935,5.86093 1.84415,13.14065 1.85143,19.2443c0.00403,3.37448 1.69474,5.75082 -6.0578,8.61119c-2.70341,0.99745 -27.69105,0.03306 -31.8575,0.03804c-29.04677,0.0347 -62.98614,-0.16702 -91.16024,-2.35248c-30.95224,-2.81342 -67.78766,1.07206 -99.77975,-0.90565c-25.7808,-1.79874 -65.56517,3.12252 -86.68333,-3.1023c-2.0908,-0.61632 -0.00679,-5.67309 -0.008,-6.69196c-0.01067,-8.92259 -0.0213,-17.84517 -0.03197,-26.76781c-0.00354,-2.98315 -4.1856,-10.10058 2.143,-12.3296c11.04377,-3.88979 31.72207,-3.00677 47.90044,-3.02609z" fill="#000000" stroke="none" stroke-linecap="butt"/><path d="M468.35522,332.1775c2.90059,-0.19717 5.86581,-0.47192 8.84593,-0.94506c3.80287,-0.60376 12.88968,-1.54991 8.9215,-2.51084c2.16921,0.30684 5.08731,0.68113 6.62692,0.78095c7.29428,0.47278 16.83084,-0.01531 24.35695,-0.0243c20.64781,-0.02465 40.82371,-0.27753 60.81213,0.91016c9.03334,0.53676 11.53322,-1.14986 14.30974,1.21269c5.72606,3.96275 16.54014,7.52065 23.45976,11.50866c9.37827,5.4049 13.03135,10.66567 18.78311,16.08958c6.50678,4.46463 1.19273,13.09098 1.19868,18.06891c0.00158,1.33251 -1.83066,3.71337 -0.08758,4.69211c-1.73142,0.0516 -3.40612,0.10003 -4.47137,0.10131c-7.07949,0.00845 -14.17127,0.02293 -21.25075,0.03137c-28.1612,0.03363 -61.01363,-0.0879 -88.34958,-2.20836c-32.45639,-2.25819 -67.94754,1.05947 -100.66474,-0.96305c-17.91657,-1.01259 -37.49996,-0.39638 -55.74083,-0.36734c-9.2536,0.01476 -17.18636,-1.08731 -21.24437,0.97726c-1.06659,0.54263 -0.00608,-1.27748 -0.00685,-1.91484c-0.0019,-1.59328 -0.0142,-3.19437 -0.01611,-4.78768c-0.01063,-8.92261 -0.03399,-17.89822 -0.04466,-26.82086c-0.00254,-2.10936 1.76168,-9.67628 -1.86966,-10.48858c0.68111,-0.01367 1.45239,-0.0359 1.8762,-0.04617c3.75411,-0.09077 5.85654,-0.03127 8.78563,-0.69348c5.08522,-1.14961 22.26239,-0.31161 29.15897,-0.31985c26.80088,-0.032 53.74441,-0.10219 80.54515,-0.1342c0,0 6.09787,-0.01053 6.09559,-1.92253c-0.0001,-0.07847 -0.00964,-0.15373 -0.02938,-0.22588z" fill="#c9c9c9" stroke="none" stroke-linecap="butt"/><path d="M553.43144,339.08551c-0.00028,-0.2217 -0.08474,-0.59289 -0.16552,-0.95754c-0.31242,0.1484 -0.77847,0.27512 -1.37791,0.38317c-1.79719,0.57837 -4.52474,0.58162 -4.52474,0.58162c-23.11343,0.0276 -36.45732,5.11926 -44.62185,10.46832c-0.96052,0.60691 -0.87475,1.33667 -0.87394,2.01393c0.00022,0.19271 -0.05791,0.49902 -0.12145,0.81586c0.06097,-0.10202 0.21347,-0.18603 0.52401,-0.2402c1.37217,-0.23933 13.30564,1.20097 14.76875,0.36226c0.43971,-0.25204 -2.15858,-0.29635 -2.01561,-0.58017c1.75825,-3.48932 20.44311,-8.78632 29.62949,-10.24487c2.38259,-0.37829 5.06501,-0.57039 7.73175,-0.66009c-1.04326,-0.51039 1.04774,-1.29602 1.04696,-1.94221zM501.71419,352.54917c-0.13676,0.67991 -0.25815,1.3298 0.1555,0.93784c0.28273,-0.26783 -0.12635,-0.64289 -0.1555,-0.93784zM491.88449,347.86388c8.66639,-5.16186 20.19511,-9.87278 38.16767,-11.74302c1.68754,-0.83344 5.1704,-0.8376 5.1704,-0.8376l3.03399,-0.00361c6.87004,-0.00818 10.5038,-0.76667 17.88313,-0.77548c10.2481,-0.01223 12.63136,6.40576 7.27464,8.2925c-3.38026,1.19058 -8.80413,1.5864 -13.33014,2.30497c-13.3971,2.12704 -18.36176,8.19931 -33.04081,11.23523c-15.55792,3.21767 -32.69853,-3.70909 -25.15889,-8.47297z" fill="#000000" stroke="none" stroke-linecap="butt"/><path d="M553.49136,338.06366c0.08098,0.36465 0.1795,0.74112 0.17975,0.96283c0.00077,0.64618 -2.06531,1.44354 -1.02204,1.954c-2.66677,0.08971 -5.36459,0.27404 -7.74725,0.65234c-9.18649,1.45856 -27.96157,6.72894 -29.71975,10.21825c-0.14312,0.28384 2.1672,0.49639 1.72746,0.74845c-1.46314,0.83868 -13.49997,-0.62662 -14.87218,-0.3873c-0.31065,0.05419 -0.46167,0.13863 -0.52255,0.24074c0.06352,-0.31686 0.11041,-0.62754 0.11019,-0.82024c-0.0008,-0.67723 -0.11312,-1.42028 0.84745,-2.0272c8.16444,-5.34906 21.99013,-10.55357 45.10352,-10.58117c0,0 2.73993,0.00081 4.53711,-0.57754c0.59947,-0.10809 1.06584,-0.23479 1.37803,-0.38317z" fill="#ffffff" stroke="none" stroke-linecap="butt"/></g><g stroke-width="1"><path d="M177.02752,336.56551l39.46477,-42.41259l110.12791,-0.2476l-23.23587,42.8111z" fill="#cedce9" stroke="#000000" stroke-linecap="round"/><path d="M166.55497,334.32671c-3.80288,-0.60378 -12.85367,-1.5487 -8.88562,-2.50967c-2.16923,0.30683 -5.06318,0.68121 -6.60294,0.78099c-7.29428,0.47279 -16.74612,-0.02 -24.27242,-0.02899c-20.64792,-0.02466 -40.69364,-0.30419 -60.6821,0.88352c-9.03335,0.53676 -11.51439,-1.15708 -14.29095,1.20547c-5.726,3.96279 -16.49458,7.49224 -23.41411,11.48024c-9.37825,5.40498 -13.01882,10.62938 -18.77058,16.05332c-6.50671,4.46463 -1.22115,13.05784 -1.22709,18.03579c-0.00159,1.33252 1.81932,3.70659 0.07629,4.68535c1.73155,0.05164 3.40393,0.09882 4.46911,0.10008c7.07948,0.00844 14.15885,0.01691 21.23836,0.02534c28.16106,0.03363 60.88067,-0.12133 88.2166,-2.24179c32.45638,-2.25817 67.62602,1.07763 100.34317,-0.9449c17.91658,-1.01259 37.4447,-0.37466 55.68556,-0.34556c9.25362,0.01474 17.17919,-1.08324 21.23719,0.98136c1.06659,0.54268 0.00151,-1.27466 0.00228,-1.912c0.00191,-1.59331 0.00382,-3.18666 0.0057,-4.77997c0.01067,-8.92264 0.0213,-17.84522 0.03197,-26.76781c0.00254,-2.10933 -1.74328,-9.658 1.88804,-10.47026c-0.68101,-0.01361 -1.45174,-0.03541 -1.87547,-0.04565c-3.75424,-0.09082 -5.85188,-0.02811 -8.78108,-0.69034c-5.08522,-1.14963 -22.24685,-0.30271 -29.14345,-0.31095c-26.80074,-0.03201 -53.60144,-0.06402 -80.40225,-0.09602c0,0 -6.06808,-0.00724 -6.0658,-1.91921c0.00009,-0.07851 0.01034,-0.15371 0.03007,-0.22583c-2.90063,-0.19719 -5.83054,-0.46936 -8.81051,-0.9425zM261.80806,333.68636c16.17837,0.01932 36.85667,-0.8637 47.90044,3.02609c6.3286,2.22902 2.14654,9.34645 2.143,12.3296c-0.01067,8.92264 -0.0213,17.84522 -0.03197,26.76781c-0.00121,1.01887 2.0828,6.07564 -0.008,6.69196c-21.11816,6.22482 -60.90253,1.30356 -86.68333,3.1023c-31.99209,1.97771 -68.82751,-1.90777 -99.77975,0.90565c-28.1741,2.18546 -62.11347,2.38718 -91.16024,2.35248c-4.16645,-0.00498 -29.15409,0.95941 -31.8575,-0.03804c-7.75254,-2.86037 -6.06183,-5.23671 -6.0578,-8.61119c0.00728,-6.10365 -3.41792,-13.38337 1.85143,-19.2443c5.89517,-5.55915 10.03142,-11.13689 19.42979,-16.55343c3.7912,-2.18494 7.8869,-5.10875 12.78529,-7.08041c3.20525,-1.29015 9.33178,-2.33416 10.09907,-4.01535c5.19665,-4.42192 14.57645,-2.9598 25.67823,-3.69078c19.76249,-1.30121 40.21086,-0.90797 60.6821,-0.88352c7.54966,0.00902 22.30215,-1.06816 27.62763,-0.72115c9.27049,0.60408 14.64236,3.10174 23.62723,3.8522c6.59297,0.55066 13.54179,0.23765 21.2367,1.45935c0.58419,0.09276 1.16828,0.18548 1.75247,0.27823c20.25515,0.02418 40.51031,0.04838 60.76551,0.07258z" fill="#000000" stroke="none" stroke-linecap="butt"/><path d="M175.44989,335.17748c-0.01974,0.07215 -0.02928,0.14741 -0.02938,0.22588c-0.00228,1.912 6.09559,1.92253 6.09559,1.92253c26.80074,0.03201 53.74427,0.1022 80.54515,0.1342c6.89658,0.00824 24.07375,-0.82976 29.15897,0.31985c2.92909,0.66221 5.03152,0.60271 8.78563,0.69348c0.42381,0.01027 1.19509,0.0325 1.8762,0.04617c-3.63134,0.8123 -1.86712,8.37922 -1.86966,10.48858c-0.01067,8.92264 -0.03403,17.89825 -0.04466,26.82086c-0.00191,1.59331 -0.01421,3.1944 -0.01611,4.78768c-0.00077,0.63736 1.05974,2.45747 -0.00685,1.91484c-4.05801,-2.06457 -11.99077,-0.9625 -21.24437,-0.97726c-18.24087,-0.02904 -37.82426,-0.64525 -55.74083,0.36734c-32.7172,2.02252 -68.20835,-1.29514 -100.66474,0.96305c-27.33595,2.12046 -60.18838,2.24199 -88.34958,2.20836c-7.07948,-0.00844 -14.17126,-0.02292 -21.25075,-0.03137c-1.06525,-0.00128 -2.73995,-0.04971 -4.47137,-0.10131c1.74308,-0.97874 -0.08916,-3.3596 -0.08758,-4.69211c0.00595,-4.97793 -5.3081,-13.60428 1.19868,-18.06891c5.75176,-5.42391 9.40484,-10.68468 18.78311,-16.08958c6.91962,-3.98801 17.7337,-7.54591 23.45976,-11.50866c2.77652,-2.36255 5.2764,-0.67593 14.30974,-1.21269c19.98842,-1.18769 40.16432,-0.93481 60.81213,-0.91016c7.52611,0.00899 17.06267,0.49708 24.35695,0.0243c1.53961,-0.09982 4.45771,-0.47411 6.62692,-0.78095c-3.96818,0.96093 5.11863,1.90708 8.9215,2.51084c2.98012,0.47314 5.94534,0.74789 8.84593,0.94506z" fill="#c9c9c9" stroke="none" stroke-linecap="butt"/><path d="M90.37411,342.08559c-0.00078,0.64619 2.09022,1.43182 1.04696,1.94221c2.66674,0.0897 5.34916,0.2818 7.73175,0.66009c9.18638,1.45855 27.87124,6.75555 29.62949,10.24487c0.14297,0.28382 -2.45532,0.32813 -2.01561,0.58017c1.46311,0.83871 13.39658,-0.60159 14.76875,-0.36226c0.31054,0.05417 0.46304,0.13818 0.52401,0.2402c-0.06354,-0.31684 -0.12167,-0.62315 -0.12145,-0.81586c0.00081,-0.67726 0.08658,-1.40702 -0.87394,-2.01393c-8.16453,-5.34906 -21.50842,-10.44072 -44.62185,-10.46832c0,0 -2.72755,-0.00325 -4.52474,-0.58162c-0.59944,-0.10805 -1.06549,-0.23477 -1.37791,-0.38317c-0.08078,0.36465 -0.16524,0.73584 -0.16552,0.95754zM141.9358,356.48701c0.41365,0.39196 0.29226,-0.25793 0.1555,-0.93784c-0.02915,0.29495 -0.43823,0.67001 -0.1555,0.93784zM151.92102,350.8639c7.53964,4.76388 -9.60097,11.69064 -25.15889,8.47297c-14.67905,-3.03592 -19.64371,-9.10819 -33.04081,-11.23523c-4.52601,-0.71857 -9.94988,-1.11439 -13.33014,-2.30497c-5.35672,-1.88674 -2.97346,-8.30473 7.27464,-8.2925c7.37933,0.00881 11.01309,0.7673 17.88313,0.77548l3.03399,0.00361c0,0 3.48286,0.00416 5.1704,0.8376c17.97256,1.87024 29.50128,6.58116 38.16767,11.74302z" fill="#000000" stroke="none" stroke-linecap="butt"/><path d="M90.31439,341.06365c0.31219,0.14838 0.77856,0.27508 1.37803,0.38317c1.79718,0.57835 4.53711,0.57754 4.53711,0.57754c23.11339,0.0276 36.93908,5.23211 45.10352,10.58117c0.96057,0.60692 0.84825,1.34997 0.84745,2.0272c-0.00022,0.1927 0.04667,0.50338 0.11019,0.82024c-0.06088,-0.10211 -0.2119,-0.18655 -0.52255,-0.24074c-1.37221,-0.23932 -13.40904,1.22598 -14.87218,0.3873c-0.43974,-0.25206 1.87058,-0.46461 1.72746,-0.74845c-1.75818,-3.48931 -20.53326,-8.75969 -29.71975,-10.21825c-2.38266,-0.3783 -5.08048,-0.56263 -7.74725,-0.65234c1.04327,-0.51046 -1.02281,-1.30782 -1.02204,-1.954c0.00025,-0.22171 0.09877,-0.59818 0.17975,-0.96283z" fill="#ffffff" stroke="none" stroke-linecap="butt"/></g><g><path d="M65.09449,25.4599l222.63391,-122.09836l61.52757,58.57625l19.71893,-13.19537l61.8643,58.21059l24.15098,-13.54688l58.54127,57.47511l-14.57388,69.07166l132.8567,14.22488l-38.78483,225.59981l-150.78068,-14.8371l-30.79533,-27.49273l-45.02356,-5.34911l-0.97619,25.48118l-37.86196,-5.0251l-13.6435,-7.37399l-284.85635,-24.90956l12.19417,-168.13426l17.72404,2.59044z" fill="#d3cbc9" stroke="#000000" stroke-width="1" stroke-linecap="round"/><path d="M23.75777,131.56466l-2.2456,-9.41967l327.92853,34.73675l-2.822,12.10508l-317.32193,-36.86239z" fill="#4e4770" stroke="#000000" stroke-width="1" stroke-linecap="round"/><path d="M287.17598,-96.11583l-234.89557,129.34257l-8.22024,-9.62374l247.01311,-138.50986l57.7879,58.99773l24.111,-13.15124l58.73703,59.49331l27.75177,-13.5827l78.20379,79.44631l-11.44621,10.43421l-70.90955,-73.51331l-79.77866,45.89565l-17.2801,-10.93894l63.50057,-31.15349l-53.5651,-48.37902l-18.41206,12.1284l-3.91649,-0.79545l-130.65439,74.72775l-13.04378,-13.30866l135.12228,-71.47845z" fill="#4e4770" stroke="#000000" stroke-width="1" stroke-linecap="round"/><path d="M593.47933,360.10174l-150.646,-14.02411l-30.63542,-29.07531l-45.85482,-5.03343l-0.62055,25.91682l-36.27938,-4.86516l-16.37304,-8.0495l-283.32792,-22.23602l3.86315,-61.96048l572.0056,55.80419z" fill="#9a918a" stroke="#000000" stroke-width="1" stroke-linecap="round"/><path d="M362.69553,312.29975l9.20393,-98.99118l50.60256,5.5132l-13.56602,98.65029z" fill="#0b0b03" stroke="#000000" stroke-width="1" stroke-linecap="round"/><path d="M362.06001,314.63364l9.08816,-101.80064l33.58982,3.79401l-11.93347,98.31566z" fill="#32342f" stroke="#000000" stroke-width="1" stroke-linecap="round"/><path d="M392.3172,70.58595l4.55617,-5.53486l7.91707,-3.19682l16.18561,-1.96156l15.98155,4.01308l11.70526,6.77843l7.66884,7.16992l-13.15621,94.59494l-65.95275,-7.86374z" fill="#0b0b03" stroke="#000000" stroke-width="1" stroke-linecap="round"/><path d="M520.18069,149.05522l99.07113,8.41263l-23.3147,131.83823l-94.71905,-7.97285z" fill="#0b0b03" stroke="#000000" stroke-width="1" stroke-linecap="round"/><path d="M176.48153,107.22916l-84.98369,-9.38718l5.24582,-59.82233l85.33933,9.82281z" fill="#0b0b03" stroke="#000000" stroke-width="1" stroke-linecap="round"/><path d="M500.63686,108.11098l177.08897,19.49403l-11.84185,10.39422l-167.98911,-18.57447z" fill="#4e4770" stroke="#000000" stroke-width="1" stroke-linecap="round"/><path d="M59.63654,302.55842l7.51805,-113.94988l248.78273,23.94107l-12.93717,112.2032z" fill="#f7f5f6" stroke="#000000" stroke-width="1" stroke-linecap="round"/><path d="M73.38519,303.94776l8.17693,-100.69368l223.1795,26.15l-12.36495,94.6749z" fill="#d3cbc9" stroke="#000000" stroke-width="1" stroke-linecap="round"/><path d="M236.09844,122.6106c-0.99493,-0.10054 -0.89439,-1.09547 -0.89439,-1.09547l0.07406,-0.73292c0.33725,-3.03647 -0.7484,-6.13825 -0.70713,-9.21529c0.0984,-7.33627 4.82248,-16.92146 10.49094,-21.49995c2.29204,-1.09106 4.6098,-2.13355 6.88984,-3.24918c0.93726,-0.4586 1.83167,-1.00215 2.77273,-1.45286c1.5099,-0.72315 2.31134,-1.0372 3.93854,-1.44521c0.51029,-0.12795 2.5259,-0.50092 3.26064,-0.63846c1.67934,-0.31437 2.27299,-0.48585 3.97235,-0.56589c2.49531,-0.11752 5.05861,0.13022 7.53939,0.38073c1.95122,0.19703 3.91506,0.35055 5.86116,0.59257c1.28925,0.16033 2.56999,0.38293 3.85495,0.57466c0.67374,0.0685 1.3512,0.10727 2.02124,0.20551c1.11493,0.16347 2.20212,0.47963 3.30563,0.70778c1.70073,0.35165 3.3957,0.69039 5.09046,1.07144c2.39184,0.53779 4.80125,0.87474 7.1321,1.66139c0.67051,0.22629 1.35468,0.42614 1.99286,0.73193c0.63051,0.30213 1.19798,0.72121 1.79592,1.08352c0.59329,0.3595 1.20715,0.68746 1.77778,1.08194c0.33228,0.22971 0.616,0.52272 0.92307,0.78517c0.52337,0.44731 1.07541,0.86337 1.56822,1.34414c0.80232,0.78274 1.50057,1.66551 2.25129,2.49788c1.34975,1.49659 2.88411,2.96191 4.02855,4.62763c0.35262,0.51324 0.60833,1.0867 0.91251,1.63005c0.04038,0.0725 1.95776,3.51302 1.97598,3.55128c0.29566,0.62122 0.51232,1.27707 0.76782,1.91587c1.12566,2.81418 1.89056,5.72935 2.86109,8.59819c0.94922,2.80586 2.02969,5.57479 3.08124,8.34379c0.02186,0.05758 1.42495,3.75129 1.4352,3.78213c0.60594,1.82194 1.039,3.72753 1.49938,5.58969c0,0 0.23996,0.97079 -0.73085,1.21074c-0.97079,0.23996 -1.21074,-0.73085 -1.21074,-0.73085c-0.44811,-1.81337 -0.86739,-3.67083 -1.45775,-5.44494c-0.41622,-1.2508 -0.93697,-2.46436 -1.40497,-3.69675c-1.06016,-2.79164 -2.14879,-5.58335 -3.10579,-8.41216c-0.95899,-2.83462 -1.71376,-5.71664 -2.82402,-8.49769c-0.23926,-0.59935 -0.43918,-1.21582 -0.71651,-1.79853c-0.56383,-1.18467 -1.27877,-2.29131 -1.91727,-3.43747c-0.27332,-0.49331 -0.50097,-1.01483 -0.81997,-1.4799c-1.08948,-1.58834 -2.57309,-2.98569 -3.8591,-4.41161c-0.7222,-0.80077 -1.39089,-1.65276 -2.16274,-2.40579c-0.46158,-0.45032 -0.98166,-0.83649 -1.47155,-1.25582c-0.26578,-0.22751 -0.50721,-0.48644 -0.79547,-0.68472c-0.527,-0.36247 -1.09566,-0.66029 -1.64246,-0.99217c-0.54213,-0.32905 -1.05279,-0.71574 -1.62431,-0.99059c-0.56385,-0.27117 -1.17148,-0.44062 -1.76478,-0.63926c-2.26305,-0.75769 -4.60446,-1.08243 -6.92583,-1.60413c-1.68447,-0.37856 -3.36888,-0.71536 -5.05926,-1.06482c-1.07398,-0.22203 -2.13126,-0.53389 -3.21655,-0.69171c-0.64928,-0.09441 -1.30565,-0.1311 -1.95848,-0.19666c-1.28501,-0.19138 -2.5657,-0.41433 -3.85495,-0.57466c-1.9305,-0.24006 -3.87865,-0.39152 -5.81419,-0.58725c-2.38307,-0.241 -4.84705,-0.48368 -7.24428,-0.3728c-1.5565,0.07198 -2.14292,0.24183 -3.6978,0.53385c-0.68274,0.12823 -2.66879,0.49492 -3.14482,0.61317c-2.29081,0.5691 -4.21079,1.72321 -6.30555,2.74862c-2.21909,1.08627 -4.47257,2.11065 -6.71386,3.15034c-5.09324,4.21252 -9.46777,13.16525 -9.5572,19.83459c-0.04232,3.15614 0.98846,6.25502 0.69719,9.38955l-0.07406,0.73292c0,0 -0.10054,0.99493 -1.09547,0.89439z" fill="#000000" stroke="none" stroke-width="0.5" stroke-linecap="butt"/><path d="M249.96178,28.40559c0.14845,-0.04697 0.29564,-0.09363 0.44105,-0.14015c0.42378,-0.13561 0.83383,-0.32924 1.27268,-0.40265c0.69652,-0.11651 1.40808,-0.11031 2.11228,-0.16359c2.94916,-0.22311 5.93457,0.16244 8.8551,0.55569c1.19956,0.16152 2.41725,0.22262 3.59826,0.48765c0.67568,0.15163 1.3285,0.39141 1.99219,0.58905c0.65071,0.19377 1.32313,0.32669 1.95096,0.58515c0.0655,0.02696 3.53781,1.87724 3.64206,1.93274c0.00919,0.00546 3.34841,1.98395 3.40262,2.02419c0.25334,0.18803 2.15081,1.95302 2.60467,2.34099c0.1266,0.10821 3.05825,2.51047 3.1318,2.58401c0.46606,0.46589 0.86688,0.99516 1.25286,1.52927c0.42633,0.58991 0.86516,1.18102 1.18006,1.83723c0.30694,0.63958 0.44866,1.34604 0.67091,2.01974c0.6158,1.86669 1.18997,3.81981 1.36804,5.78873c0.06223,0.6881 0.00372,1.38184 0.01545,2.07263c0.0116,0.68317 0.07768,1.3662 0.05455,2.04908c-0.02357,0.69591 -0.1101,1.3887 -0.19436,2.0799c-0.15005,1.23051 -0.31832,2.46052 -0.55794,3.67676c-0.11137,0.56537 -0.18242,1.14927 -0.40611,1.68031c-0.16073,0.3816 -0.4951,0.66422 -0.72615,1.00782c-0.32365,0.48129 -0.56034,1.02514 -0.93732,1.46591c-0.44785,0.52362 -1.01147,0.93593 -1.5172,1.4039c-0.86298,1.02726 -1.77644,2.01395 -2.73205,2.95565c-1.1918,1.17442 -1.74219,1.82855 -3.16588,2.75359c-0.58218,0.37826 -1.22183,0.65973 -1.83451,0.9863c-0.49463,0.26364 -0.9565,0.60452 -1.4874,0.78429c-0.68,0.23026 -1.40513,0.29564 -2.10964,0.43375c-2.52722,0.49546 -5.05479,0.83827 -7.63878,0.71378c-0.98436,-0.04742 -2.94371,-0.32892 -3.9011,-0.45595c-0.00964,-0.00127 -3.88469,-0.51495 -3.92209,-0.52241c-0.70531,-0.14061 -1.41061,-0.30189 -2.08797,-0.54359c-0.56525,-0.20169 -1.05825,-0.57598 -1.62254,-0.78038c-0.46143,-0.16714 -0.97285,-0.16347 -1.43548,-0.32729c-1.72983,-0.61255 -3.33943,-1.60546 -4.92396,-2.5134c-0.44844,-0.60728 -0.92543,-1.19449 -1.34533,-1.82186c-0.67659,-1.01091 -1.20912,-2.11247 -1.86906,-3.13432c-0.55908,-0.86566 -1.15016,-1.71057 -1.74981,-2.54866c-0.79259,-1.10777 -1.67343,-2.192 -2.32932,-3.39321c-0.33137,-0.60689 -0.57601,-1.2573 -0.85726,-1.88898c-0.20386,-0.45789 -0.51541,-0.88524 -0.59805,-1.37961c-0.21182,-1.26722 0.05527,-2.57155 -0.01615,-3.85435c-0.03428,-0.61592 -0.12757,-1.22724 -0.17946,-1.84194c-0.02968,-0.35145 -0.00876,-0.70795 -0.06521,-1.05611c-0.10419,-0.64252 -0.61455,-2.4205 -0.62932,-3.12806c-0.01335,-0.63926 0.15691,-1.27047 0.18516,-1.90923c0.02186,-0.49443 -0.05238,-0.98973 -0.0351,-1.48435c0.01574,-0.45015 0.08896,-0.89645 0.13394,-1.34462c0.01678,-0.16719 0.31692,-3.13827 0.32101,-3.16432c0.10436,-0.66231 0.27012,-1.31348 0.40518,-1.97021c0.60607,-1.35981 1.17784,-3.33035 2.37587,-4.33259c2.84971,-2.38401 6.42506,-2.50236 9.90789,-2.2362zM244.68145,30.59791c-1.1781,0.27651 -2.30998,0.76906 -3.36266,1.59312c-0.83967,0.6573 -1.32367,2.4859 -1.73693,3.39619c-0.31575,1.57816 -0.47734,3.12341 -0.64011,4.72279c-0.04141,0.4069 -0.11166,0.81183 -0.12529,1.22058c-0.01649,0.49465 0.05801,0.98996 0.0351,1.48435c-0.02722,0.58774 -0.19174,1.16702 -0.18515,1.75533c0.01114,0.99445 0.4529,1.93847 0.61046,2.92041c0.06244,0.38913 0.04559,0.78699 0.07905,1.17966c0.05395,0.63287 0.14827,1.26248 0.18313,1.8967c0.03212,0.58418 0.02159,1.17002 0.01765,1.75506c-0.00402,0.59808 -0.13182,1.20257 -0.04151,1.79381c0.05397,0.35337 0.31367,0.64253 0.46321,0.9672c0.26852,0.583 0.48403,1.19193 0.7909,1.75568c0.57157,1.05005 1.51575,2.23063 2.20479,3.19368c0.61695,0.8623 1.22471,1.73189 1.79983,2.62263c0.6573,1.01802 1.20555,2.10369 1.86146,3.1226c0.31314,0.48642 0.6654,0.94654 0.99809,1.4198c1.38065,0.72796 2.75519,1.59711 4.23362,2.114c0.47111,0.16471 0.9899,0.16553 1.45915,0.33542c0.57313,0.20749 1.07636,0.58154 1.64917,0.78989c1.76278,0.64122 3.74514,0.71738 5.58661,0.96184c0.83185,0.11044 2.84417,0.39804 3.72871,0.44063c2.43184,0.11711 4.79035,-0.228 7.16944,-0.67968c0.60463,-0.11479 1.22892,-0.15646 1.81238,-0.35226c0.43884,-0.14727 0.81151,-0.44563 1.2191,-0.66506c0.5627,-0.30294 1.15464,-0.55569 1.69172,-0.90203c1.24138,-0.80053 1.80009,-1.46489 2.84881,-2.49906c0.94139,-0.92833 1.83955,-1.90241 2.69094,-2.9139c0.47578,-0.43447 1.00745,-0.81471 1.42735,-1.30341c0.33769,-0.39301 0.53309,-0.88936 0.82477,-1.31764c0.16997,-0.24959 0.4408,-0.43524 0.55838,-0.71337c0.16109,-0.38105 0.18444,-0.80696 0.25661,-1.21433c0.20863,-1.17757 0.39083,-2.36032 0.53767,-3.54717c0.07823,-0.63219 0.15986,-1.26581 0.18057,-1.9025c0.02112,-0.64973 -0.04479,-1.29944 -0.05538,-1.94941c-0.01046,-0.64235 0.04912,-1.28738 -0.00775,-1.92729c-0.16162,-1.8193 -0.71471,-3.61921 -1.27648,-5.34424c-0.1932,-0.59327 -0.30783,-1.21749 -0.57531,-1.78117c-0.25959,-0.54702 -0.63628,-1.03169 -0.99202,-1.52166c-0.32692,-0.45026 -0.65792,-0.90346 -1.05313,-1.29515c-0.92517,-0.91699 -2.02997,-1.63355 -3.02005,-2.48006c-0.22344,-0.19103 -2.45549,-2.22371 -2.48486,-2.24553c-0.46513,-0.34553 -0.99879,-0.58774 -1.49748,-0.88277c-0.56711,-0.33552 -1.13329,-0.6726 -1.69993,-1.00891c-0.58173,-0.30947 -1.16388,-0.61814 -1.7452,-0.92839c-0.55878,-0.29821 -1.0894,-0.65583 -1.67506,-0.89704c-0.56621,-0.23319 -1.17526,-0.34447 -1.76232,-0.51864c-0.61438,-0.18228 -1.21682,-0.40982 -1.842,-0.55067c-0.48004,-0.10816 -0.9757,-0.12881 -1.46345,-0.19407c-1.31607,-0.1761 -2.6291,-0.37619 -3.94776,-0.53184c-1.96648,-0.23211 -3.98426,-0.40453 -5.96686,-0.30892c0.00204,0.05683 0.00011,0.11714 -0.00636,0.18115c-0.10054,0.99493 -1.09547,0.89439 -1.09547,0.89439l-1.15068,-0.11627c-0.65594,-0.06628 -1.31786,-0.13816 -1.98075,-0.19808c-0.35907,0.11274 -0.71782,0.22647 -1.07334,0.34986c-1.87453,0.6507 -3.59716,1.55611 -5.23495,2.66472c0,0 -0.8287,0.5597 -1.3884,-0.269c-0.5597,-0.8287 0.269,-1.3884 0.269,-1.3884c0.62373,-0.42041 1.25341,-0.81611 1.89895,-1.1837z" fill="#000000" stroke="none" stroke-width="0.5" stroke-linecap="butt"/><path d="M242.81775,31.81706c0,0 -0.82715,0.55809 -0.26744,1.38679c0.5597,0.8287 1.31582,0.20022 1.31582,0.20022c1.63779,-1.10863 3.36955,-2.02142 5.24408,-2.6721c0.35551,-0.12341 0.71626,-0.23831 1.07534,-0.35105c0.6629,0.05991 1.32802,0.13012 1.98396,0.19641l1.15273,0.11536c0,0 0.99776,0.09945 1.09831,-0.89549c0.00647,-0.06402 0.00854,-0.12438 0.00648,-0.18121c1.9826,-0.0956 4.01338,0.07414 5.97986,0.30626c1.31865,0.15565 2.64118,0.35599 3.95727,0.53209c0.48774,0.06526 0.98693,0.08647 1.46697,0.19463c0.62518,0.14085 1.23214,0.3695 1.84653,0.55178c0.58707,0.17416 1.20033,0.2869 1.76655,0.52009c0.58565,0.2412 1.12048,0.60069 1.67926,0.89893c0.58131,0.31024 1.16765,0.6213 1.74938,0.93078c0.56664,0.3363 1.13673,0.67613 1.70384,1.01164c0.49869,0.29504 1.03549,0.53989 1.50061,0.88542c0.02937,0.02181 2.26679,2.06027 2.49023,2.2513c0.99008,0.84651 2.0996,1.57019 3.02477,2.48718c0.3952,0.39169 0.72782,0.84812 1.05472,1.29838c0.35573,0.48998 0.73391,0.97824 0.99349,1.52526c0.26748,0.56368 0.38333,1.19176 0.57653,1.78502c0.56177,1.72502 1.11662,3.53653 1.27825,5.35582c0.05685,0.63992 -0.00274,1.28902 0.00771,1.93137c0.01059,0.64998 0.07613,1.30375 0.05501,1.95348c-0.0207,0.63668 -0.103,1.27424 -0.18123,1.90641c-0.14686,1.18686 -0.33109,2.37665 -0.53973,3.55422c-0.07217,0.40736 -0.09642,0.83556 -0.25752,1.21663c-0.11759,0.27813 -0.38914,0.46542 -0.55911,0.71502c-0.29165,0.42828 -0.48852,0.92746 -0.8262,1.32045c-0.4199,0.4887 -0.95356,0.87224 -1.42935,1.30671c-0.85139,1.0115 -1.75473,1.99216 -2.69612,2.92049c-1.04872,1.03418 -1.6134,1.70397 -2.85478,2.50451c-0.53706,0.34634 -1.13235,0.60146 -1.69503,0.9044c-0.40758,0.21943 -0.78281,0.51935 -1.22166,0.66662c-0.58346,0.1958 -1.21119,0.23925 -1.81582,0.35404c-2.37909,0.45167 -4.75317,0.80122 -7.185,0.68411c-0.88454,-0.0426 -2.90571,-0.32996 -3.73756,-0.4404c-1.84147,-0.24446 -3.83721,-0.32331 -5.59999,-0.96453c-0.5728,-0.20836 -1.08012,-0.58405 -1.65325,-0.79153c-0.46926,-0.16989 -0.99118,-0.17224 -1.46228,-0.33695c-1.47843,-0.51689 -2.86199,-1.39224 -4.24263,-2.12021c-0.33269,-0.47326 -0.68784,-0.93606 -1.00097,-1.4225c-0.65593,-1.0189 -1.20962,-2.11113 -1.86691,-3.12915c-0.57512,-0.89074 -1.18673,-1.76688 -1.80367,-2.62918c-0.68904,-0.96307 -1.63639,-2.15182 -2.20795,-3.20189c-0.30688,-0.56376 -0.52339,-1.17683 -0.79191,-1.75984c-0.14954,-0.32468 -0.40963,-0.61611 -0.46361,-0.96947c-0.0903,-0.59125 0.03706,-1.19967 0.04108,-1.79774c0.00394,-0.58504 0.01434,-1.17482 -0.01777,-1.75898c-0.03488,-0.63422 -0.12899,-1.26801 -0.18292,-1.9009c-0.03348,-0.39268 -0.01633,-0.79308 -0.07875,-1.18221c-0.15755,-0.98196 -0.59816,-1.9317 -0.60929,-2.92615c-0.00659,-0.58832 0.15898,-1.17104 0.18619,-1.75876c0.0229,-0.49439 -0.05061,-0.99232 -0.03411,-1.48696c0.01363,-0.40878 0.0848,-0.81583 0.12623,-1.22272c0.16278,-1.59939 0.32856,-3.15197 0.64431,-4.73013c0.41326,-0.91028 0.90152,-2.74422 1.74118,-3.40152c1.0527,-0.82406 2.18925,-1.3211 3.36735,-1.59761c-0.64554,0.36756 -1.20774,0.83696 -1.83147,1.25737z" fill="#ffffff" stroke="none" stroke-width="0.5" stroke-linecap="butt"/><path d="M307.46164,33.37674c0.07589,0.00172 0.15179,0.00343 0.22767,0.00514c1.1324,0.0254 2.26452,0.07756 3.3972,0.07652c0.50795,-0.00047 1.01589,-0.05401 1.52348,-0.03436c0.51143,0.01978 1.0186,0.10128 1.52785,0.15245c0.03328,0.00335 3.98911,0.40301 4.00548,0.40511c0.6699,0.08528 1.33518,0.20349 2.00245,0.30749c0.55402,0.08635 1.12478,0.10081 1.66135,0.26355c0.67839,0.20574 1.30503,0.55413 1.9565,0.83366c0.53552,0.22978 1.09092,0.41881 1.60445,0.69423c0.61064,0.32753 1.17235,0.73909 1.75811,1.10927c1.61858,1.02289 3.23145,2.04343 4.87645,3.02346c1.15766,0.69035 1.30789,0.75615 2.62871,1.70382c0.84058,0.6031 1.62191,1.28677 2.46921,1.8804c0.3841,0.2691 0.84686,0.43791 1.17667,0.77133c0.35507,0.35895 0.6234,0.80515 0.83585,1.26318c1.20936,2.60733 1.05154,5.51342 1.05602,8.31218c0.00508,3.17402 -0.34785,6.31435 -0.66672,9.46987c-0.06703,0.66329 -0.13315,1.32667 -0.20107,1.98986c-0.05426,0.52977 -0.05237,1.06864 -0.16546,1.58903c-0.30375,1.39761 -0.85545,2.62447 -1.38277,3.9421c-0.40183,1.00406 -0.80988,2.02237 -1.2129,3.02829c-0.28785,0.63797 -0.52662,1.30042 -0.86355,1.91392c-0.48683,0.88646 -1.82379,2.77185 -2.54098,3.47604c-0.97407,0.9564 -1.91206,1.20511 -3.15391,1.74556c-0.61048,0.26568 -1.22029,0.53288 -1.83047,0.79925c-0.81725,0.35675 -2.58961,1.15682 -3.31222,1.32091c-1.3956,0.31691 -2.84853,0.17507 -4.25458,0.11652c-0.51139,-0.02129 -1.02856,0.01287 -1.53402,-0.06767c-0.69905,-0.11139 -1.37915,-0.32099 -2.06257,-0.50547c-0.65097,-0.17574 -1.29339,-0.38183 -1.93943,-0.57491c-0.49345,-0.14747 -1.01146,-0.23083 -1.47905,-0.44671c-0.14888,-0.06875 -2.1928,-1.30212 -2.72518,-1.61471c-2.62809,-1.54301 -5.16046,-3.24703 -7.72678,-4.89246c-1.50253,-1.18364 -1.80728,-1.35346 -3.16443,-2.70225c-0.43917,-0.43645 -2.32234,-2.50377 -2.74886,-2.96957c-1.2551,-1.37073 -2.45816,-2.73501 -3.59384,-4.208c-0.81413,-1.05594 -1.63254,-2.10856 -2.44179,-3.16823c-0.44339,-0.58057 -0.99818,-1.09283 -1.32315,-1.74709c-0.33361,-0.67171 -0.45554,-1.43119 -0.61899,-2.16316c-0.14951,-0.66965 -0.21301,-1.35565 -0.31812,-2.03367c-0.05767,-0.37198 -0.15232,-0.74038 -0.17028,-1.11639c-0.0331,-0.69325 0.01115,-1.38802 0.01754,-2.08204c0.00053,-0.05595 0.0401,-4.01559 0.0416,-4.04338c0.03656,-0.68067 0.13069,-1.35702 0.19761,-2.03536c0.10299,-1.04394 0.13195,-2.0984 0.31653,-3.13104c0.07641,-0.42742 0.23813,-0.83674 0.31291,-1.26447c0.07826,-0.44771 0.09675,-0.90383 0.14512,-1.35574c0.91448,-2.24245 1.39421,-5.18496 2.89313,-7.12068c3.55011,-4.58459 9.57657,-1.91847 14.14626,-1.45669zM300.08593,33.61079c-2.2671,-0.24559 -4.43338,0.02531 -5.83197,1.89296c-1.30824,1.74699 -1.70494,4.39759 -2.54509,6.39737c-0.03803,0.40317 -0.04522,0.81042 -0.1141,1.20947c-0.0738,0.42762 -0.23532,0.83673 -0.31277,1.2637c-0.17859,0.98452 -0.19824,1.99133 -0.29698,2.98704c-0.06432,0.64851 -0.15584,1.29498 -0.19078,1.94575c-0.0707,1.31691 -0.02441,2.6375 -0.03882,3.95622c-0.00698,0.63926 -0.05137,1.27912 -0.02265,1.91776c0.01445,0.32137 0.10206,0.63525 0.1517,0.95309c0.09987,0.63945 0.16521,1.28509 0.2968,1.91878c0.11861,0.57119 0.18973,1.16985 0.4527,1.6906c0.27175,0.53814 0.74831,0.94542 1.11865,1.42112l2.44179,3.16823c1.10069,1.42868 2.26782,2.74916 3.48479,4.07828c0.37998,0.41499 2.27557,2.49526 2.68432,2.90231c1.24185,1.2367 1.54226,1.40949 2.91311,2.49035c2.52204,1.60893 5.00333,3.28544 7.58266,4.799c0.84213,0.49416 1.62727,1.09389 2.51247,1.50596c0.39184,0.18241 0.83064,0.2393 1.24531,0.36124c0.63228,0.18594 1.25985,0.38829 1.89548,0.56242c0.60324,0.16525 1.2027,0.35661 1.8203,0.45546c0.43908,0.07028 0.88878,0.03158 1.3331,0.04929c1.11979,0.04465 2.60461,0.19136 3.72698,-0.0678c0.53375,-0.12324 2.33668,-0.93283 2.95802,-1.2042c0.61175,-0.26717 1.22248,-0.5367 1.83533,-0.80135c0.87199,-0.37657 1.87663,-0.65835 2.5752,-1.36372c1.3345,-1.34751 2.17587,-3.01663 2.93786,-4.71871c0.40104,-1.00198 0.79427,-1.98466 1.19705,-2.98987c0.44801,-1.11809 1.02171,-2.40545 1.27907,-3.59479c0.09873,-0.45629 0.0897,-0.92938 0.13596,-1.39393c0.12169,-1.22171 0.24685,-2.44305 0.37032,-3.66458c0.25596,-2.53253 0.49231,-5.04399 0.48736,-7.59054c-0.00489,-2.51108 0.15187,-5.08083 -0.85441,-7.44062c-0.11035,-0.25877 -0.23931,-0.5251 -0.44482,-0.71723c-0.25915,-0.24226 -0.61798,-0.35022 -0.91097,-0.55023c-0.31991,-0.21837 -0.6169,-0.46854 -0.92512,-0.7031c-1.31836,-1.00326 -2.63065,-1.95734 -4.05485,-2.80513c-1.66028,-0.98932 -3.29038,-2.01674 -4.9225,-3.05175c-0.54082,-0.34296 -1.05746,-0.72718 -1.62162,-1.03023c-0.46707,-0.25089 -0.97548,-0.41582 -1.46217,-0.62619c-0.57319,-0.24778 -1.12025,-0.56565 -1.7174,-0.74826c-0.45543,-0.13927 -0.94248,-0.13782 -1.41336,-0.20912c-1.30079,-0.19694 -2.60628,-0.36625 -3.91525,-0.49841c-1.1313,-0.11422 -2.25744,-0.30183 -3.39368,-0.34488c-0.48155,-0.01824 -0.96334,0.03522 -1.44522,0.03584c-1.14805,0.00147 -2.29553,-0.05125 -3.44328,-0.07701c-0.02596,-0.00059 -0.05192,-0.00117 -0.07788,-0.00175c-0.29452,0.13241 -0.55683,0.07987 -0.75525,-0.01669c-1.05531,-0.02311 -2.11062,-0.04561 -3.16586,-0.07132c-0.626,-0.01525 -1.25302,-0.0898 -1.87793,-0.04955c-0.34705,0.02235 -0.67753,0.1573 -1.01629,0.23596c0,0 -0.97567,0.21924 -1.19491,-0.75643c-0.14941,-0.6649 0.25612,-0.9785 0.52961,-1.11082z" fill="#000000" stroke="none" stroke-width="0.5" stroke-linecap="butt"/><path d="M299.58267,34.7641c0.21924,0.97567 1.14322,0.67083 1.14322,0.67083c0.33876,-0.07866 0.67092,-0.21455 1.01798,-0.23691c0.62489,-0.04025 1.25485,0.03285 1.88085,0.04811c1.05525,0.0257 2.11618,0.04604 3.17149,0.06916c0.19843,0.09657 0.46219,0.14865 0.75672,0.01625c0.02596,0.00059 0.05208,0.00112 0.07803,0.00171c1.14776,0.02576 2.30237,0.07704 3.45042,0.07557c0.48188,-0.00061 0.96685,-0.05441 1.44838,-0.03615c1.13624,0.04305 2.26993,0.23075 3.40124,0.34497c1.30897,0.13216 2.62312,0.30301 3.92391,0.49995c0.47088,0.07129 0.96093,0.07076 1.41636,0.21003c0.59716,0.1826 1.14808,0.50197 1.72125,0.74973c0.48668,0.21038 0.99824,0.37681 1.46532,0.6277c0.56415,0.30304 1.08447,0.68937 1.62529,1.03235c1.63212,1.03501 3.27185,2.07035 4.93213,3.05968c1.42418,0.84777 2.74245,1.80956 4.06082,2.81282c0.30823,0.23456 0.60632,0.48657 0.92623,0.70494c0.293,0.2 0.6527,0.30954 0.91184,0.55182c0.20551,0.19212 0.3352,0.4599 0.44554,0.71869c1.00628,2.35982 0.85388,4.94349 0.85878,7.45455c0.00495,2.54655 -0.2314,5.07367 -0.48736,7.6062c-0.12346,1.22153 -0.25036,2.45021 -0.37205,3.67191c-0.04626,0.46456 -0.03814,0.94025 -0.13688,1.39655c-0.25736,1.18935 -0.83428,2.48358 -1.28229,3.60167c-0.40278,1.0052 -0.7994,1.99308 -1.20043,2.99506c-0.76201,1.70207 -1.61039,3.37884 -2.94489,4.72635c-0.69856,0.70537 -1.70743,0.99051 -2.57943,1.36708c-0.61284,0.26465 -1.22674,0.53624 -1.83849,0.80342c-0.62135,0.27136 -2.42975,1.08378 -2.96347,1.20704c-1.12237,0.25916 -2.61379,0.11482 -3.73358,0.07019c-0.44432,-0.01771 -0.89657,0.02164 -1.33564,-0.04864c-0.61761,-0.09886 -1.22058,-0.28954 -1.82383,-0.45479c-0.63563,-0.17412 -1.26715,-0.37603 -1.89943,-0.56197c-0.41467,-0.12195 -0.85621,-0.17871 -1.24806,-0.36112c-0.88519,-0.41208 -1.67635,-1.01206 -2.51848,-1.50622c-2.57935,-1.51355 -5.08163,-3.1972 -7.60371,-4.80612c-1.37085,-1.08086 -1.67948,-1.25996 -2.92133,-2.49665c-0.40874,-0.40703 -2.31127,-2.49546 -2.69127,-2.91045c-1.21698,-1.32913 -2.39016,-2.66175 -3.49085,-4.09043l-2.44389,-3.17682c-0.37033,-0.4757 -0.84731,-0.88647 -1.11905,-1.42461c-0.26296,-0.52075 -0.33423,-1.12317 -0.45284,-1.69438c-0.13159,-0.63367 -0.19677,-1.28347 -0.29663,-1.92292c-0.04964,-0.31784 -0.13705,-0.63371 -0.15151,-0.95509c-0.02871,-0.63866 0.01632,-1.28248 0.0233,-1.92174c0.01439,-1.31873 -0.02972,-2.64688 0.04098,-3.96378c0.03493,-0.65076 0.1279,-1.30068 0.19221,-1.94919c0.09875,-0.9957 0.1209,-2.00725 0.29949,-2.99178c0.07745,-0.42697 0.24021,-0.83805 0.31401,-1.26567c0.06888,-0.39905 0.07717,-0.80792 0.11521,-1.21108c0.84015,-1.99978 1.24442,-4.65869 2.55266,-6.40568c1.39858,-1.86766 3.57308,-2.14441 5.84017,-1.89882c-0.2735,0.13233 -0.62791,0.53185 -0.47849,1.19675z" fill="#ffffff" stroke="none" stroke-width="0.5" stroke-linecap="butt"/><path d="M277.77952,53.18675c0.16659,-1.64846 1.63797,-2.84976 3.28642,-2.68317c1.64846,0.16659 2.84976,1.63797 2.68317,3.28642c-0.16659,1.64846 -1.63797,2.84976 -3.28642,2.68317c-1.64846,-0.16659 -2.84976,-1.63797 -2.68317,-3.28642z" fill="#000000" stroke="none" stroke-width="0.5" stroke-linecap="butt"/><path d="M330.76158,58.36122c0.16659,-1.64846 1.63797,-2.84976 3.28642,-2.68317c1.64846,0.16659 2.84976,1.63797 2.68317,3.28642c-0.16659,1.64846 -1.63797,2.84976 -3.28642,2.68317c-1.64846,-0.16659 -2.84976,-1.63797 -2.68317,-3.28642z" fill="#000000" stroke="none" stroke-width="0.5" stroke-linecap="butt"/><path d="M216.56207,-8.40504c-0.44377,-1.16857 0.7248,-1.61234 0.7248,-1.61234l1.14796,-0.37208c11.20759,-0.58991 20.48257,2.79936 30.33835,7.80167c0.1152,0.05848 4.46337,2.2644 4.53091,2.30272c1.131,0.64172 2.1455,1.46995 3.21747,2.20605c0.09471,0.06505 4.13233,2.8366 4.18467,2.87645c1.10446,0.84075 2.07676,1.84222 3.11434,2.76425c0.06816,0.06057 3.75568,3.33655 3.7886,3.36929c0.03264,0.03245 3.32988,3.70204 3.39055,3.7696c0.56915,0.63357 1.16612,1.24324 1.707,1.90111c0.02291,0.02787 2.9934,3.98426 3.03635,4.04149c0.51138,0.68134 1.05327,1.34082 1.53362,2.04438c1.04474,1.53027 1.26174,2.00486 2.01166,3.41825c0,0 0.58531,1.10451 -0.51921,1.68981c-1.10451,0.58531 -1.68981,-0.51921 -1.68981,-0.51921c-0.69208,-1.3078 -0.90586,-1.77402 -1.86664,-3.17818c-0.4601,-0.67243 -0.97933,-1.30244 -1.46874,-1.95385c-0.9901,-1.31784 -1.92155,-2.68172 -2.96836,-3.95498c-0.51759,-0.62955 -1.09033,-1.21165 -1.63526,-1.81767c-1.09878,-1.22195 -2.12869,-2.50926 -3.29395,-3.66799c-1.16526,-1.15872 -2.45807,-2.18168 -3.68646,-3.27326c-0.99873,-0.88751 -1.93062,-1.8562 -2.99461,-2.66435c-1.30653,-0.9924 -2.70641,-1.85546 -4.05894,-2.7842c-0.68697,-0.47172 -1.37428,-0.94294 -2.0609,-1.41517c-0.33951,-0.2335 -0.65876,-0.4993 -1.01752,-0.702c-1.42711,-0.80639 -2.9246,-1.48133 -4.38627,-2.2232c-9.46103,-4.80196 -18.31343,-8.10178 -29.07537,-7.53441l-0.39192,0.2127c0,0 -1.16857,0.44377 -1.61234,-0.7248z" fill="#000000" stroke="none" stroke-width="0.5" stroke-linecap="butt"/><path d="M345.76393,-14.81803c0.27405,1.21958 -0.94553,1.49365 -0.94553,1.49365l-0.5304,0.11856c-2.4378,0.62607 -4.90697,0.7305 -7.33608,1.28985c-5.78018,1.33101 -10.40412,5.66033 -14.69313,9.44157c-1.54164,1.64567 -3.08487,3.28986 -4.6278,4.93434c-1.12814,1.20237 -2.30519,2.36058 -3.38526,3.60632c-1.5341,1.76944 -2.91539,3.705 -4.36739,5.54227c-0.54269,0.68669 -1.02225,1.42881 -1.6305,2.05819c-0.60824,0.62938 -1.33355,1.13398 -2.00134,1.69979c-1.90737,1.61612 -3.81818,3.22826 -5.72816,4.8413c-0.61943,0.52313 -1.26889,1.01254 -1.85885,1.56866c-0.58997,0.55613 -1.11516,1.17718 -1.6756,1.76307c-0.61983,0.64797 -1.15519,1.39074 -1.86516,1.93848c-0.33717,0.26014 -2.75592,1.53042 -3.54017,1.94604c0,0 -1.10451,0.58531 -1.68981,-0.51921c-0.58531,-1.10451 0.51921,-1.68981 0.51921,-1.68981c0.54578,-0.28919 3.03903,-1.60468 3.18299,-1.71591c0.60932,-0.47079 1.05264,-1.12409 1.58208,-1.68321c0.58848,-0.6215 1.1488,-1.27154 1.77163,-1.85863c0.62281,-0.58708 1.30641,-1.10614 1.95993,-1.65887c1.90879,-1.61445 3.81669,-3.23003 5.72816,-4.8413c0.60511,-0.51007 1.26745,-0.95865 1.81742,-1.52775c0.54997,-0.56909 0.9757,-1.24634 1.46483,-1.86851c1.46889,-1.86842 2.87903,-3.82914 4.43573,-5.62524c0.02545,-0.02937 3.40684,-3.6327 3.45711,-3.68628c1.56976,-1.67305 3.1393,-3.34631 4.71028,-5.01819c4.62278,-4.08461 9.57069,-8.59103 15.78305,-10.06094c2.43652,-0.5765 4.91913,-0.66523 7.36312,-1.29697l0.606,-0.13679c0,0 1.21958,-0.27405 1.49365,0.94553z" fill="#000000" stroke="none" stroke-width="0.5" stroke-linecap="butt"/></g></g></g></svg>