<svg version="1.1" xmlns="http://www.w3.org/2000/svg" xmlns:xlink="http://www.w3.org/1999/xlink" width="2878.25006" height="1619.57958" viewBox="0,0,2878.25006,1619.57958"><g transform="translate(1119.12503,629.78979)"><g stroke-miterlimit="10"><path d="M-1119.12503,989.78979v-1619.57958h2878.25006v1619.57958z" fill="none" stroke="#000000" stroke-width="0" stroke-linecap="butt"/><g stroke-width="1"><path d="M340.42117,333.71642l-23.23587,-42.8111l110.12791,0.2476l39.46477,42.41259z" fill="#cedce9" stroke="#000000" stroke-linecap="round"/><path d="M477.25056,331.32672c-2.97997,0.47314 -5.90988,0.74531 -8.81051,0.9425c0.01973,0.07212 0.02998,0.14732 0.03007,0.22583c0.00228,1.91197 -6.0658,1.91921 -6.0658,1.91921c-26.80081,0.032 -53.60151,0.06401 -80.40225,0.09602c-6.8966,0.00824 -24.05823,-0.83868 -29.14345,0.31095c-2.9292,0.66223 -5.02684,0.59952 -8.78108,0.69034c-0.42373,0.01024 -1.19446,0.03204 -1.87547,0.04565c3.63132,0.81226 1.8855,8.36093 1.88804,10.47026c0.01067,8.92259 0.0213,17.84517 0.03197,26.76781c0.00188,1.59331 0.00379,3.18666 0.0057,4.77997c0.00077,0.63734 -1.06431,2.45468 0.00228,1.912c4.058,-2.0646 11.98357,-0.96662 21.23719,-0.98136c18.24086,-0.0291 37.76898,-0.66703 55.68556,0.34556c32.71715,2.02253 67.88679,-1.31327 100.34317,0.9449c27.33593,2.12046 60.05554,2.27542 88.2166,2.24179c7.07951,-0.00843 14.15888,-0.0169 21.23836,-0.02534c1.06518,-0.00126 2.73756,-0.04844 4.46911,-0.10008c-1.74303,-0.97876 0.07788,-3.35283 0.07629,-4.68535c-0.00594,-4.97795 5.27962,-13.57116 -1.22709,-18.03579c-5.75176,-5.42394 -9.39233,-10.64834 -18.77058,-16.05332c-6.91953,-3.988 -17.68811,-7.51745 -23.41411,-11.48024c-2.77656,-2.36255 -5.2576,-0.66871 -14.29095,-1.20547c-19.98846,-1.18771 -40.03418,-0.90818 -60.6821,-0.88352c-7.5263,0.00899 -16.97814,0.50178 -24.27242,0.02899c-1.53976,-0.09978 -4.43371,-0.47416 -6.60294,-0.78099c3.96805,0.96097 -5.08274,1.90589 -8.88562,2.50967zM381.99714,330.68644c20.2552,-0.0242 40.51036,-0.0484 60.76551,-0.07258c0.58419,-0.09275 1.16828,-0.18547 1.75247,-0.27823c7.69491,-1.2217 14.64373,-0.90869 21.2367,-1.45935c8.98487,-0.75046 14.35674,-3.24812 23.62723,-3.8522c5.32548,-0.34701 20.07797,0.73017 27.62763,0.72115c20.47124,-0.02445 40.91961,-0.41769 60.6821,0.88352c11.10178,0.73098 20.48158,-0.73114 25.67823,3.69078c0.76729,1.68119 6.89382,2.7252 10.09907,4.01535c4.89839,1.97166 8.99409,4.89547 12.78529,7.08041c9.39837,5.41654 13.53462,10.99428 19.42979,16.55343c5.26935,5.86093 1.84415,13.14065 1.85143,19.2443c0.00403,3.37448 1.69474,5.75082 -6.0578,8.61119c-2.70341,0.99745 -27.69105,0.03306 -31.8575,0.03804c-29.04677,0.0347 -62.98614,-0.16702 -91.16024,-2.35248c-30.95224,-2.81342 -67.78766,1.07206 -99.77975,-0.90565c-25.7808,-1.79874 -65.56517,3.12252 -86.68333,-3.1023c-2.0908,-0.61632 -0.00679,-5.67309 -0.008,-6.69196c-0.01067,-8.92259 -0.0213,-17.84517 -0.03197,-26.76781c-0.00354,-2.98315 -4.1856,-10.10058 2.143,-12.3296c11.04377,-3.88979 31.72207,-3.00677 47.90044,-3.02609z" fill="#000000" stroke="none" stroke-linecap="butt"/><path d="M468.35522,332.1775c2.90059,-0.19717 5.86581,-0.47192 8.84593,-0.94506c3.80287,-0.60376 12.88968,-1.54991 8.9215,-2.51084c2.16921,0.30684 5.08731,0.68113 6.62692,0.78095c7.29428,0.47278 16.83084,-0.01531 24.35695,-0.0243c20.64781,-0.02465 40.82371,-0.27753 60.81213,0.91016c9.03334,0.53676 11.53322,-1.14986 14.30974,1.21269c5.72606,3.96275 16.54014,7.52065 23.45976,11.50866c9.37827,5.4049 13.03135,10.66567 18.78311,16.08958c6.50678,4.46463 1.19273,13.09098 1.19868,18.06891c0.00158,1.33251 -1.83066,3.71337 -0.08758,4.69211c-1.73142,0.0516 -3.40612,0.10003 -4.47137,0.10131c-7.07949,0.00845 -14.17127,0.02293 -21.25075,0.03137c-28.1612,0.03363 -61.01363,-0.0879 -88.34958,-2.20836c-32.45639,-2.25819 -67.94754,1.05947 -100.66474,-0.96305c-17.91657,-1.01259 -37.49996,-0.39638 -55.74083,-0.36734c-9.2536,0.01476 -17.18636,-1.08731 -21.24437,0.97726c-1.06659,0.54263 -0.00608,-1.27748 -0.00685,-1.91484c-0.0019,-1.59328 -0.0142,-3.19437 -0.01611,-4.78768c-0.01063,-8.92261 -0.03399,-17.89822 -0.04466,-26.82086c-0.00254,-2.10936 1.76168,-9.67628 -1.86966,-10.48858c0.68111,-0.01367 1.45239,-0.0359 1.8762,-0.04617c3.75411,-0.09077 5.85654,-0.03127 8.78563,-0.69348c5.08522,-1.14961 22.26239,-0.31161 29.15897,-0.31985c26.80088,-0.032 53.74441,-0.10219 80.54515,-0.1342c0,0 6.09787,-0.01053 6.09559,-1.92253c-0.0001,-0.07847 -0.00964,-0.15373 -0.02938,-0.22588z" fill="#c9c9c9" stroke="none" stroke-linecap="butt"/><path d="M553.43144,339.08551c-0.00028,-0.2217 -0.08474,-0.59289 -0.16552,-0.95754c-0.31242,0.1484 -0.77847,0.27512 -1.37791,0.38317c-1.79719,0.57837 -4.52474,0.58162 -4.52474,0.58162c-23.11343,0.0276 -36.45732,5.11926 -44.62185,10.46832c-0.96052,0.60691 -0.87475,1.33667 -0.87394,2.01393c0.00022,0.19271 -0.05791,0.49902 -0.12145,0.81586c0.06097,-0.10202 0.21347,-0.18603 0.52401,-0.2402c1.37217,-0.23933 13.30564,1.20097 14.76875,0.36226c0.43971,-0.25204 -2.15858,-0.29635 -2.01561,-0.58017c1.75825,-3.48932 20.44311,-8.78632 29.62949,-10.24487c2.38259,-0.37829 5.06501,-0.57039 7.73175,-0.66009c-1.04326,-0.51039 1.04774,-1.29602 1.04696,-1.94221zM501.71419,352.54917c-0.13676,0.67991 -0.25815,1.3298 0.1555,0.93784c0.28273,-0.26783 -0.12635,-0.64289 -0.1555,-0.93784zM491.88449,347.86388c8.66639,-5.16186 20.19511,-9.87278 38.16767,-11.74302c1.68754,-0.83344 5.1704,-0.8376 5.1704,-0.8376l3.03399,-0.00361c6.87004,-0.00818 10.5038,-0.76667 17.88313,-0.77548c10.2481,-0.01223 12.63136,6.40576 7.27464,8.2925c-3.38026,1.19058 -8.80413,1.5864 -13.33014,2.30497c-13.3971,2.12704 -18.36176,8.19931 -33.04081,11.23523c-15.55792,3.21767 -32.69853,-3.70909 -25.15889,-8.47297z" fill="#000000" stroke="none" stroke-linecap="butt"/><path d="M553.49136,338.06366c0.08098,0.36465 0.1795,0.74112 0.17975,0.96283c0.00077,0.64618 -2.06531,1.44354 -1.02204,1.954c-2.66677,0.08971 -5.36459,0.27404 -7.74725,0.65234c-9.18649,1.45856 -27.96157,6.72894 -29.71975,10.21825c-0.14312,0.28384 2.1672,0.49639 1.72746,0.74845c-1.46314,0.83868 -13.49997,-0.62662 -14.87218,-0.3873c-0.31065,0.05419 -0.46167,0.13863 -0.52255,0.24074c0.06352,-0.31686 0.11041,-0.62754 0.11019,-0.82024c-0.0008,-0.67723 -0.11312,-1.42028 0.84745,-2.0272c8.16444,-5.34906 21.99013,-10.55357 45.10352,-10.58117c0,0 2.73993,0.00081 4.53711,-0.57754c0.59947,-0.10809 1.06584,-0.23479 1.37803,-0.38317z" fill="#ffffff" stroke="none" stroke-linecap="butt"/></g><g stroke-width="1"><path d="M177.02752,336.56551l39.46477,-42.41259l110.12791,-0.2476l-23.23587,42.8111z" fill="#cedce9" stroke="#000000" stroke-linecap="round"/><path d="M166.55497,334.32671c-3.80288,-0.60378 -12.85367,-1.5487 -8.88562,-2.50967c-2.16923,0.30683 -5.06318,0.68121 -6.60294,0.78099c-7.29428,0.47279 -16.74612,-0.02 -24.27242,-0.02899c-20.64792,-0.02466 -40.69364,-0.30419 -60.6821,0.88352c-9.03335,0.53676 -11.51439,-1.15708 -14.29095,1.20547c-5.726,3.96279 -16.49458,7.49224 -23.41411,11.48024c-9.37825,5.40498 -13.01882,10.62938 -18.77058,16.05332c-6.50671,4.46463 -1.22115,13.05784 -1.22709,18.03579c-0.00159,1.33252 1.81932,3.70659 0.07629,4.68535c1.73155,0.05164 3.40393,0.09882 4.46911,0.10008c7.07948,0.00844 14.15885,0.01691 21.23836,0.02534c28.16106,0.03363 60.88067,-0.12133 88.2166,-2.24179c32.45638,-2.25817 67.62602,1.07763 100.34317,-0.9449c17.91658,-1.01259 37.4447,-0.37466 55.68556,-0.34556c9.25362,0.01474 17.17919,-1.08324 21.23719,0.98136c1.06659,0.54268 0.00151,-1.27466 0.00228,-1.912c0.00191,-1.59331 0.00382,-3.18666 0.0057,-4.77997c0.01067,-8.92264 0.0213,-17.84522 0.03197,-26.76781c0.00254,-2.10933 -1.74328,-9.658 1.88804,-10.47026c-0.68101,-0.01361 -1.45174,-0.03541 -1.87547,-0.04565c-3.75424,-0.09082 -5.85188,-0.02811 -8.78108,-0.69034c-5.08522,-1.14963 -22.24685,-0.30271 -29.14345,-0.31095c-26.80074,-0.03201 -53.60144,-0.06402 -80.40225,-0.09602c0,0 -6.06808,-0.00724 -6.0658,-1.91921c0.00009,-0.07851 0.01034,-0.15371 0.03007,-0.22583c-2.90063,-0.19719 -5.83054,-0.46936 -8.81051,-0.9425zM261.80806,333.68636c16.17837,0.01932 36.85667,-0.8637 47.90044,3.02609c6.3286,2.22902 2.14654,9.34645 2.143,12.3296c-0.01067,8.92264 -0.0213,17.84522 -0.03197,26.76781c-0.00121,1.01887 2.0828,6.07564 -0.008,6.69196c-21.11816,6.22482 -60.90253,1.30356 -86.68333,3.1023c-31.99209,1.97771 -68.82751,-1.90777 -99.77975,0.90565c-28.1741,2.18546 -62.11347,2.38718 -91.16024,2.35248c-4.16645,-0.00498 -29.15409,0.95941 -31.8575,-0.03804c-7.75254,-2.86037 -6.06183,-5.23671 -6.0578,-8.61119c0.00728,-6.10365 -3.41792,-13.38337 1.85143,-19.2443c5.89517,-5.55915 10.03142,-11.13689 19.42979,-16.55343c3.7912,-2.18494 7.8869,-5.10875 12.78529,-7.08041c3.20525,-1.29015 9.33178,-2.33416 10.09907,-4.01535c5.19665,-4.42192 14.57645,-2.9598 25.67823,-3.69078c19.76249,-1.30121 40.21086,-0.90797 60.6821,-0.88352c7.54966,0.00902 22.30215,-1.06816 27.62763,-0.72115c9.27049,0.60408 14.64236,3.10174 23.62723,3.8522c6.59297,0.55066 13.54179,0.23765 21.2367,1.45935c0.58419,0.09276 1.16828,0.18548 1.75247,0.27823c20.25515,0.02418 40.51031,0.04838 60.76551,0.07258z" fill="#000000" stroke="none" stroke-linecap="butt"/><path d="M175.44989,335.17748c-0.01974,0.07215 -0.02928,0.14741 -0.02938,0.22588c-0.00228,1.912 6.09559,1.92253 6.09559,1.92253c26.80074,0.03201 53.74427,0.1022 80.54515,0.1342c6.89658,0.00824 24.07375,-0.82976 29.15897,0.31985c2.92909,0.66221 5.03152,0.60271 8.78563,0.69348c0.42381,0.01027 1.19509,0.0325 1.8762,0.04617c-3.63134,0.8123 -1.86712,8.37922 -1.86966,10.48858c-0.01067,8.92264 -0.03403,17.89825 -0.04466,26.82086c-0.00191,1.59331 -0.01421,3.1944 -0.01611,4.78768c-0.00077,0.63736 1.05974,2.45747 -0.00685,1.91484c-4.05801,-2.06457 -11.99077,-0.9625 -21.24437,-0.97726c-18.24087,-0.02904 -37.82426,-0.64525 -55.74083,0.36734c-32.7172,2.02252 -68.20835,-1.29514 -100.66474,0.96305c-27.33595,2.12046 -60.18838,2.24199 -88.34958,2.20836c-7.07948,-0.00844 -14.17126,-0.02292 -21.25075,-0.03137c-1.06525,-0.00128 -2.73995,-0.04971 -4.47137,-0.10131c1.74308,-0.97874 -0.08916,-3.3596 -0.08758,-4.69211c0.00595,-4.97793 -5.3081,-13.60428 1.19868,-18.06891c5.75176,-5.42391 9.40484,-10.68468 18.78311,-16.08958c6.91962,-3.98801 17.7337,-7.54591 23.45976,-11.50866c2.77652,-2.36255 5.2764,-0.67593 14.30974,-1.21269c19.98842,-1.18769 40.16432,-0.93481 60.81213,-0.91016c7.52611,0.00899 17.06267,0.49708 24.35695,0.0243c1.53961,-0.09982 4.45771,-0.47411 6.62692,-0.78095c-3.96818,0.96093 5.11863,1.90708 8.9215,2.51084c2.98012,0.47314 5.94534,0.74789 8.84593,0.94506z" fill="#c9c9c9" stroke="none" stroke-linecap="butt"/><path d="M90.37411,342.08559c-0.00078,0.64619 2.09022,1.43182 1.04696,1.94221c2.66674,0.0897 5.34916,0.2818 7.73175,0.66009c9.18638,1.45855 27.87124,6.75555 29.62949,10.24487c0.14297,0.28382 -2.45532,0.32813 -2.01561,0.58017c1.46311,0.83871 13.39658,-0.60159 14.76875,-0.36226c0.31054,0.05417 0.46304,0.13818 0.52401,0.2402c-0.06354,-0.31684 -0.12167,-0.62315 -0.12145,-0.81586c0.00081,-0.67726 0.08658,-1.40702 -0.87394,-2.01393c-8.16453,-5.34906 -21.50842,-10.44072 -44.62185,-10.46832c0,0 -2.72755,-0.00325 -4.52474,-0.58162c-0.59944,-0.10805 -1.06549,-0.23477 -1.37791,-0.38317c-0.08078,0.36465 -0.16524,0.73584 -0.16552,0.95754zM141.9358,356.48701c0.41365,0.39196 0.29226,-0.25793 0.1555,-0.93784c-0.02915,0.29495 -0.43823,0.67001 -0.1555,0.93784zM151.92102,350.8639c7.53964,4.76388 -9.60097,11.69064 -25.15889,8.47297c-14.67905,-3.03592 -19.64371,-9.10819 -33.04081,-11.23523c-4.52601,-0.71857 -9.94988,-1.11439 -13.33014,-2.30497c-5.35672,-1.88674 -2.97346,-8.30473 7.27464,-8.2925c7.37933,0.00881 11.01309,0.7673 17.88313,0.77548l3.03399,0.00361c0,0 3.48286,0.00416 5.1704,0.8376c17.97256,1.87024 29.50128,6.58116 38.16767,11.74302z" fill="#000000" stroke="none" stroke-linecap="butt"/><path d="M90.31439,341.06365c0.31219,0.14838 0.77856,0.27508 1.37803,0.38317c1.79718,0.57835 4.53711,0.57754 4.53711,0.57754c23.11339,0.0276 36.93908,5.23211 45.10352,10.58117c0.96057,0.60692 0.84825,1.34997 0.84745,2.0272c-0.00022,0.1927 0.04667,0.50338 0.11019,0.82024c-0.06088,-0.10211 -0.2119,-0.18655 -0.52255,-0.24074c-1.37221,-0.23932 -13.40904,1.22598 -14.87218,0.3873c-0.43974,-0.25206 1.87058,-0.46461 1.72746,-0.74845c-1.75818,-3.48931 -20.53326,-8.75969 -29.71975,-10.21825c-2.38266,-0.3783 -5.08048,-0.56263 -7.74725,-0.65234c1.04327,-0.51046 -1.02281,-1.30782 -1.02204,-1.954c0.00025,-0.22171 0.09877,-0.59818 0.17975,-0.96283z" fill="#ffffff" stroke="none" stroke-linecap="butt"/></g><g><path d="M-41.08366,83.78424l196.56616,-160.73461l71.19766,46.34341l16.97488,-16.57731l71.46188,45.92237l21.26802,-17.733l68.0604,45.80667l-1.70341,70.57188l133.21859,-10.29837l3.1038,228.88841l-150.95252,12.97262l-35.30168,-21.40079l-45.2428,2.97043l3.69772,25.23034l-38.14262,1.97999l-14.76148,-4.756l-284.61057,27.57627l-18.74292,-167.53068l17.89894,-0.69281z" fill="#d3cbc9" stroke="#000000" stroke-width="1" stroke-linecap="round"/><path d="M-62.33012,195.65708l-3.9295,-8.85053l328.75336,-25.78739l-0.56189,12.41697l-318.71397,21.75887z" fill="#4e4770" stroke="#000000" stroke-width="1" stroke-linecap="round"/><path d="M155.03491,-76.33557l-207.29716,170.09797l-9.8408,-7.95912l217.53496,-181.32568l67.59803,47.44134l21.30103,-17.33671l68.62175,47.75508l24.8016,-18.42637l91.40758,63.81381l-9.34621,12.35057l-83.15179,-59.314l-70.04586,59.70447l-18.98842,-7.59619l56.73657,-42.23533l-61.50547,-37.77335l-15.88505,15.28945l-3.9959,-0.06619l-114.79458,97.34995l-15.25661,-10.70031l119.78111,-94.97203z" fill="#4e4770" stroke="#000000" stroke-width="1" stroke-linecap="round"/><path d="M539.5659,316.21016l-150.67151,13.7473l-35.43372,-22.98594l-46.00235,3.43274l4.12699,25.59364l-36.55747,1.84797l-17.56851,-4.92122l-282.61922,29.9254l-7.5271,-61.62278l572.56937,-49.68739z" fill="#9a918a" stroke="#000000" stroke-width="1" stroke-linecap="round"/><path d="M303.93266,311.39623l-9.04478,-99.00585l50.7578,-3.82883l4.69387,99.468z" fill="#0b0b03" stroke="#000000" stroke-width="1" stroke-linecap="round"/><path d="M303.73443,313.80697l-9.67212,-101.74681l33.71742,-2.40947l6.23775,98.84062z" fill="#32342f" stroke="#000000" stroke-width="1" stroke-linecap="round"/><path d="M288.87474,68.34015l3.46775,-6.2744l7.19938,-4.59005l15.5544,-4.88693l16.44583,1.02436l12.74703,4.52474l8.85017,5.64742l4.35554,95.40607l-66.27903,4.32362z" fill="#0b0b03" stroke="#000000" stroke-width="1" stroke-linecap="round"/><path d="M428.92686,122.11654l98.93982,-9.83737l1.17553,133.87872l-94.58067,9.47427z" fill="#0b0b03" stroke="#000000" stroke-width="1" stroke-linecap="round"/><path d="M83.37275,143.81661l-85.26783,6.30432l-5.77691,-59.77338l85.6971,-5.94104z" fill="#0b0b03" stroke="#000000" stroke-width="1" stroke-linecap="round"/><path d="M402.22846,85.43429l177.66882,-13.20279l-9.74249,12.38358l-168.55417,12.44358z" fill="#4e4770" stroke="#000000" stroke-width="1" stroke-linecap="round"/><path d="M4.19856,357.21229l-13.43642,-113.4044l248.96764,-21.93489l7.78934,112.67766z" fill="#f7f5f6" stroke="#000000" stroke-width="1" stroke-linecap="round"/><path d="M17.96954,356.06525l-10.36566,-100.49195l224.19947,-15.0834l5.14808,95.34005z" fill="#d3cbc9" stroke="#000000" stroke-width="1" stroke-linecap="round"/><path d="M144.79678,148.04212c-0.99655,0.083 -1.07955,-0.91354 -1.07955,-0.91354l-0.06116,-0.73411c-0.22344,-3.04696 -1.85775,-5.89805 -2.37959,-8.9308c-1.24418,-7.23067 1.64833,-17.51785 6.38443,-23.05529c2.054,-1.49162 4.14217,-2.94019 6.17988,-4.45377c0.83764,-0.62219 1.61764,-1.32006 2.46046,-1.93519c1.35229,-0.98694 2.08282,-1.44219 3.60804,-2.14075c0.47831,-0.21907 2.39179,-0.95417 3.08901,-1.22369c1.59359,-0.61603 2.1459,-0.89312 3.802,-1.28243c2.43179,-0.57163 4.9972,-0.79659 7.48197,-1.00374c1.95436,-0.16294 3.91318,-0.37096 5.87073,-0.48872c1.29684,-0.07803 2.59669,-0.09326 3.89504,-0.13963c0.67491,-0.0558 1.34805,-0.14151 2.02475,-0.1674c1.12602,-0.04308 2.25269,0.06904 3.37931,0.09165c1.73635,0.03486 3.46469,0.05809 5.20055,0.12295c2.44984,0.09155 4.88025,-0.01757 7.31562,0.32979c0.70058,0.09992 1.40975,0.17136 2.09307,0.35534c0.67511,0.18179 1.30962,0.49009 1.96371,0.73701c0.649,0.245 1.31247,0.45523 1.94559,0.73877c0.36867,0.16511 0.70117,0.40132 1.05104,0.60322c0.59631,0.34412 1.2151,0.65226 1.78749,1.03486c0.93187,0.6229 1.77971,1.36317 2.66993,2.04431c1.60056,1.22467 3.3769,2.38485 4.80653,3.81333c0.44049,0.44014 0.79671,0.9572 1.19508,1.4358c0.05295,0.0639 2.5669,3.096 2.5918,3.13028c0.40423,0.55671 0.73712,1.16192 1.10506,1.74326c1.62107,2.56102 2.90593,5.28728 4.38448,7.93039c1.44609,2.5851 3.01446,5.10988 4.55442,7.64004c0.03202,0.05261 2.08661,3.42764 2.10232,3.45609c0.92875,1.68049 1.70281,3.47483 2.49581,5.22147c0,0 0.41336,0.91058 -0.49724,1.32393c-0.91058,0.41336 -1.32393,-0.49724 -1.32393,-0.49724c-0.77201,-1.70092 -1.52373,-3.45045 -2.42842,-5.08676c-0.63783,-1.15365 -1.37162,-2.25159 -2.057,-3.37767c-1.55256,-2.55083 -3.13311,-5.09653 -4.59105,-7.70277c-1.46095,-2.61159 -2.72978,-5.30709 -4.32966,-7.83836c-0.34478,-0.54552 -0.65401,-1.11507 -1.03318,-1.63727c-0.77087,-1.06165 -1.67603,-2.01897 -2.51327,-3.02912c-0.35888,-0.43505 -0.67802,-0.90617 -1.07666,-1.3051c-1.36145,-1.36245 -3.07547,-2.46508 -4.60045,-3.63193c-0.8564,-0.65528 -1.66955,-1.37069 -2.56603,-1.96996c-0.53611,-0.35836 -1.11801,-0.64297 -1.6763,-0.96569c-0.30289,-0.1751 -0.58758,-0.38554 -0.90722,-0.52779c-0.58437,-0.26004 -1.19789,-0.4489 -1.79614,-0.67524c-0.59314,-0.22442 -1.16588,-0.51125 -1.77801,-0.67701c-0.60391,-0.16354 -1.23229,-0.21908 -1.8519,-0.30592c-2.36341,-0.33129 -4.72474,-0.22259 -7.10236,-0.3112c-1.72529,-0.0643 -3.44288,-0.08754 -5.16866,-0.12215c-1.09647,-0.02199 -2.19294,-0.13535 -3.2888,-0.09214c-0.6556,0.02585 -1.30762,0.10976 -1.96144,0.16463c-1.29834,0.04672 -2.59821,0.06161 -3.89504,0.13963c-1.94186,0.11684 -3.88487,0.32402 -5.82358,0.48536c-2.38697,0.19864 -4.8538,0.41042 -7.19039,0.95759c-1.51712,0.35527 -2.06262,0.62944 -3.53792,1.20074c-0.6478,0.25086 -2.53337,0.97439 -2.97976,1.17765c-2.1482,0.97823 -3.82488,2.46383 -5.69693,3.85485c-1.98316,1.47358 -4.01144,2.8926 -6.02494,4.32443c-4.23747,5.0725 -6.90193,14.67398 -5.77082,21.24732c0.53527,3.11071 2.1151,5.96898 2.40167,9.10394l0.06116,0.73411c0,0 0.083,0.99655 -0.91354,1.07955z" fill="#000000" stroke="none" stroke-width="0.5" stroke-linecap="butt"/><path d="M141.20773,52.89017c0.13737,-0.07331 0.27354,-0.14609 0.408,-0.21841c0.39185,-0.21078 0.7596,-0.4761 1.17764,-0.62848c0.66349,-0.24186 1.3642,-0.36582 2.0468,-0.54691c2.8587,-0.7584 5.86428,-0.92502 8.8075,-1.07221c1.20887,-0.06045 2.41722,-0.22296 3.62678,-0.17826c0.69201,0.02557 1.37767,0.14199 2.06629,0.215c0.67516,0.07157 1.36055,0.07934 2.02504,0.2187c0.06932,0.01453 3.82133,1.19897 3.93398,1.23448c0.01003,0.00369 3.65463,1.3385 3.71528,1.36816c0.28345,0.13856 2.47156,1.52699 2.98868,1.82547c0.14425,0.08325 3.46559,1.90919 3.55135,1.96805c0.54336,0.37285 1.03417,0.81994 1.51128,1.27451c0.52698,0.50205 1.06645,1.00299 1.49599,1.59058c0.41867,0.5727 0.68713,1.24135 1.02878,1.86309c0.94662,1.72269 1.86811,3.53795 2.40306,5.44117c0.18696,0.66513 0.25623,1.35788 0.39403,2.03489c0.13627,0.66954 0.32609,1.32899 0.42816,2.00459c0.10402,0.68849 0.14558,1.38543 0.18908,2.08038c0.07739,1.23721 0.13677,2.47725 0.1235,3.7168c-0.00615,0.5762 0.03072,1.16325 -0.09214,1.72624c-0.08827,0.40455 -0.36535,0.74353 -0.52971,1.12356c-0.23022,0.53234 -0.36353,1.11029 -0.65359,1.61254c-0.3446,0.59666 -0.82336,1.10504 -1.23504,1.65756c-0.66068,1.16769 -1.3784,2.30472 -2.14579,3.40522c-0.95707,1.37247 -1.37862,2.11619 -2.60924,3.28586c-0.50323,0.4783 -1.08066,0.87195 -1.62333,1.305c-0.43811,0.34961 -0.82989,0.76916 -1.31899,1.04294c-0.62645,0.35067 -1.32742,0.54749 -1.99482,0.81204c-2.39408,0.94904 -4.81642,1.74807 -7.37963,2.09798c-0.97645,0.1333 -2.95424,0.21467 -3.91872,0.26478c-0.00971,0.00051 -3.91337,0.20378 -3.95151,0.20328c-0.71912,-0.00932 -1.44203,-0.03897 -2.15215,-0.15279c-0.59259,-0.09498 -1.1457,-0.37285 -1.73784,-0.47066c-0.48421,-0.07998 -0.98634,0.0171 -1.47112,-0.0594c-1.81266,-0.28605 -3.57662,-0.96803 -5.30041,-1.57105c-0.55188,-0.51509 -1.12817,-1.00521 -1.65567,-1.54527c-0.84996,-0.87022 -1.57487,-1.85588 -2.41046,-2.73989c-0.70789,-0.74889 -1.44344,-1.47152 -2.18618,-2.1859c-0.98172,-0.94424 -2.04589,-1.8492 -2.9103,-2.91029c-0.43672,-0.5361 -0.79611,-1.13083 -1.18808,-1.70047c-0.28412,-0.41292 -0.66853,-0.77612 -0.84014,-1.24705c-0.43988,-1.20716 -0.41569,-2.53833 -0.72038,-3.78646c-0.14628,-0.59928 -0.34973,-1.18325 -0.51311,-1.77811c-0.09342,-0.3401 -0.13801,-0.69442 -0.25714,-1.0264c-0.21988,-0.61265 -1.04662,-2.2674 -1.19046,-2.96034c-0.12996,-0.62605 -0.07795,-1.27775 -0.16693,-1.91091c-0.06888,-0.4901 -0.2324,-0.96348 -0.30582,-1.45293c-0.0668,-0.44544 -0.07639,-0.8976 -0.11408,-1.34645c-0.01406,-0.16744 -0.26203,-3.14333 -0.26277,-3.16969c-0.01846,-0.67023 0.02549,-1.34073 0.03824,-2.01108c0.34731,-1.44768 0.54927,-3.48953 1.54393,-4.69386c2.36595,-2.86472 5.85944,-3.63458 9.33224,-4.0095zM136.41707,56.01069c-1.10771,0.48719 -2.1305,1.17833 -3.01482,2.18091c-0.70539,0.7997 -0.847,2.68596 -1.08692,3.65646c-0.02197,1.60928 0.1016,3.15804 0.2339,4.76023c0.03366,0.40762 0.03861,0.81856 0.09992,1.22292c0.0742,0.48933 0.23797,0.96268 0.30582,1.45293c0.08066,0.58281 0.0248,1.1824 0.13881,1.7596c0.19272,0.97567 0.79958,1.82303 1.13397,2.75963c0.13252,0.37117 0.18867,0.7654 0.29334,1.14534c0.16872,0.61235 0.37653,1.21411 0.52673,1.83128c0.13836,0.56847 0.23508,1.14637 0.33814,1.72227c0.10536,0.58874 0.09021,1.2064 0.28707,1.77118c0.11765,0.33755 0.42583,0.57437 0.63219,0.86624c0.37055,0.5241 0.69374,1.08338 1.09848,1.58154c0.75387,0.92789 1.89794,1.916 2.75139,2.73689c0.76416,0.73501 1.52063,1.47886 2.24888,2.24947c0.8323,0.88073 1.56976,1.8479 2.40085,2.72975c0.39677,0.42099 0.8272,0.80897 1.24079,1.21345c1.49045,0.46334 3.0007,1.06661 4.5487,1.30456c0.49328,0.07583 1.00348,-0.01819 1.49588,0.06306c0.6014,0.09924 1.16452,0.37501 1.76577,0.47515c1.85028,0.30821 3.81317,0.02075 5.6683,-0.07549c0.83802,-0.04346 2.86901,-0.12852 3.74644,-0.24833c2.41228,-0.32936 4.66797,-1.09974 6.92443,-1.97867c0.57346,-0.22337 1.17962,-0.37844 1.71746,-0.6776c0.40453,-0.22501 0.71639,-0.58646 1.07701,-0.87668c0.49785,-0.40068 1.03361,-0.75738 1.49835,-1.19605c1.07414,-1.01394 1.50201,-1.76923 2.34404,-2.97767c0.75585,-1.08476 1.46083,-2.20659 2.113,-3.35666c0.38835,-0.51411 0.84157,-0.98512 1.16507,-1.54234c0.26017,-0.44811 0.36155,-0.97182 0.57004,-1.44619c0.12148,-0.27645 0.35382,-0.50847 0.41858,-0.80341c0.08873,-0.40408 0.03384,-0.82707 0.03033,-1.24077c-0.01012,-1.19586 -0.04717,-2.39199 -0.11974,-3.58569c-0.03864,-0.63583 -0.0742,-1.2737 -0.17022,-1.90345c-0.09799,-0.64265 -0.28155,-1.26936 -0.41076,-1.90645c-0.12769,-0.62962 -0.18702,-1.27467 -0.35989,-1.89341c-0.49143,-1.75911 -1.3642,-3.42761 -2.2318,-5.0209c-0.29838,-0.54796 -0.52518,-1.14072 -0.89119,-1.646c-0.3552,-0.49036 -0.81413,-0.89801 -1.25344,-1.31471c-0.40371,-0.38292 -0.81197,-0.76799 -1.27212,-1.08084c-1.07719,-0.73244 -2.29435,-1.23499 -3.42248,-1.88627c-0.25459,-0.14697 -2.82058,-1.73743 -2.85344,-1.75352c-0.52045,-0.2547 -1.08939,-0.39528 -1.6336,-0.59419c-0.61889,-0.22621 -1.23714,-0.45412 -1.8557,-0.6812c-0.62849,-0.19793 -1.25726,-0.395 -1.88549,-0.59376c-0.60387,-0.19106 -1.19092,-0.44566 -1.8108,-0.57576c-0.59929,-0.12577 -1.21842,-0.12385 -1.82743,-0.18778c-0.63734,-0.06691 -1.27123,-0.18051 -1.91163,-0.20471c-0.49173,-0.01859 -0.98281,0.0517 -1.47427,0.07669c-1.32608,0.06742 -2.65357,0.1107 -3.97846,0.19869c-1.97577,0.13124 -3.99108,0.33053 -5.9228,0.78691c0.01239,0.0555 0.02152,0.11515 0.02686,0.17926c0.083,0.99655 -0.91354,1.07955 -0.91354,1.07955l-1.15255,0.09601c-0.65701,0.05473 -1.32091,0.10504 -1.98359,0.1673c-0.33242,0.17647 -0.66434,0.35385 -0.99131,0.54016c-1.72401,0.98237 -3.25214,2.18739 -4.65971,3.57668c0,0 -0.71244,0.70175 -1.41418,-0.0107c-0.70175,-0.71244 0.0107,-1.41418 0.0107,-1.41418c0.53638,-0.52734 1.08313,-1.03146 1.65061,-1.51085z" fill="#000000" stroke="none" stroke-width="0.5" stroke-linecap="butt"/><path d="M134.80759,57.54996c0,0 -0.7112,0.69987 -0.00946,1.41232c0.70175,0.71244 1.33025,-0.04366 1.33025,-0.04366c1.40756,-1.38931 2.94331,-2.60325 4.66733,-3.5856c0.32696,-0.18631 0.66064,-0.36521 0.99306,-0.54169c0.66269,-0.06227 1.32943,-0.1148 1.98644,-0.16953l1.1544,-0.09728c0,0 0.99913,-0.0846 0.91613,-1.08115c-0.00534,-0.06412 -0.01434,-0.12384 -0.02675,-0.17935c1.93173,-0.45637 3.95932,-0.66068 5.9351,-0.7919c1.32488,-0.088 2.66175,-0.13277 3.98786,-0.20018c0.49145,-0.02499 0.98611,-0.09538 1.47783,-0.07679c0.64039,0.0242 1.27892,0.13806 1.91628,0.20497c0.60901,0.06392 1.23255,0.06267 1.83185,0.18844c0.61987,0.13009 1.2114,0.38577 1.81528,0.57685c0.62823,0.19876 1.26154,0.39741 1.89004,0.59535c0.61856,0.22706 1.24116,0.45697 1.86005,0.68317c0.54422,0.19892 1.11673,0.34152 1.63716,0.59622c0.03286,0.01608 2.60518,1.61124 2.85977,1.75821c1.12812,0.65128 2.35123,1.15997 3.42842,1.89241c0.46014,0.31286 0.87058,0.7008 1.27427,1.08372c0.4393,0.4167 0.90035,0.82761 1.25555,1.31797c0.36601,0.5053 0.5947,1.10162 0.89309,1.64957c0.8676,1.59328 1.74422,3.27285 2.23565,5.03196c0.17285,0.61875 0.23292,1.26781 0.3606,1.89743c0.12921,0.6371 0.31314,1.26787 0.41115,1.91051c0.09602,0.62974 0.13164,1.2716 0.17028,1.90742c0.07254,1.19371 0.10889,2.39713 0.119,3.59299c0.0035,0.41369 0.05793,0.8391 -0.0308,1.2432c-0.06477,0.29494 -0.29751,0.52871 -0.419,0.80517c-0.20846,0.47437 -0.31077,1.00113 -0.57093,1.44922c-0.3235,0.55722 -0.77807,1.03184 -1.16643,1.54595c-0.65217,1.15008 -1.36104,2.27933 -2.11689,3.36409c-0.84202,1.20845 -1.27477,1.97016 -2.34892,2.98411c-0.4647,0.43867 -1.00334,0.7983 -1.50117,1.19898c-0.36061,0.29023 -0.6747,0.65368 -1.07924,0.87869c-0.53784,0.29915 -1.14706,0.4566 -1.72052,0.67997c-2.25645,0.87892 -4.52665,1.65651 -6.93892,1.98587c-0.87743,0.1198 -2.91707,0.20671 -3.75509,0.25017c-1.85513,0.09624 -3.83166,0.3835 -5.68195,0.07529c-0.60124,-0.10015 -1.16868,-0.37679 -1.77007,-0.47602c-0.49241,-0.08125 -1.00596,0.01183 -1.49924,-0.064c-1.548,-0.23795 -3.06825,-0.84567 -4.55869,-1.30902c-0.41359,-0.40448 -0.84734,-0.79456 -1.24412,-1.21558c-0.83111,-0.88185 -1.57511,-1.85447 -2.40741,-2.7352c-0.72824,-0.77061 -1.48969,-1.52021 -2.25385,-2.25522c-0.85346,-0.8209 -2.00214,-1.81646 -2.75599,-2.74438c-0.40476,-0.49817 -0.72967,-1.06134 -1.10023,-1.58545c-0.20636,-0.29188 -0.51534,-0.53085 -0.633,-0.8684c-0.19685,-0.56478 -0.18284,-1.18624 -0.2882,-1.77496c-0.10306,-0.5759 -0.20064,-1.15765 -0.33898,-1.7261c-0.15022,-0.61716 -0.35858,-1.22307 -0.52728,-1.83544c-0.10469,-0.37994 -0.16101,-0.77674 -0.29351,-1.1479c-0.33438,-0.93662 -0.94116,-1.78983 -1.13387,-2.76549c-0.11401,-0.5772 -0.05775,-1.18037 -0.13842,-1.76316c-0.06785,-0.49024 -0.23114,-0.96635 -0.30533,-1.45567c-0.06132,-0.40439 -0.06575,-0.81758 -0.09939,-1.22519c-0.1323,-1.6022 -0.2531,-3.15892 -0.23112,-4.76822c0.23992,-0.97048 0.38474,-2.86277 1.09012,-3.66247c0.88434,-1.00259 1.9109,-1.699 3.01861,-2.18619c-0.56748,0.47936 -1.03441,1.04361 -1.57079,1.57095z" fill="#ffffff" stroke="none" stroke-width="0.5" stroke-linecap="butt"/><path d="M198.64756,47.26772c0.07493,-0.01218 0.14986,-0.02437 0.22478,-0.03656c1.11797,-0.18201 2.24054,-0.33765 3.35396,-0.54571c0.49931,-0.09331 0.9889,-0.23879 1.49153,-0.31224c0.50643,-0.07403 1.01995,-0.08661 1.52998,-0.12938c0.03334,-0.00279 3.99557,-0.33291 4.01204,-0.33384c0.67421,-0.0386 1.34988,-0.04399 2.02492,-0.0637c0.56047,-0.01637 1.12426,-0.10648 1.68154,-0.04455c0.70456,0.07827 1.38433,0.30626 2.07592,0.46201c0.5685,0.12802 1.14909,0.21235 1.70431,0.38928c0.66022,0.2104 1.28769,0.51236 1.93125,0.76924c1.77828,0.70981 3.55051,1.41836 5.34692,2.0812c1.26434,0.46712 1.42407,0.50436 2.89585,1.19464c0.93665,0.4393 1.82978,0.96864 2.77131,1.3974c0.42682,0.19436 0.91263,0.27575 1.29783,0.54326c0.4147,0.28801 0.76006,0.67764 1.05265,1.08912c1.66556,2.34236 2.04157,5.22834 2.55754,7.97913c0.58514,3.11962 0.81215,6.27156 1.07542,9.4322c0.05534,0.66437 0.11159,1.32866 0.16603,1.99309c0.04349,0.53076 0.14384,1.06021 0.12777,1.59251c-0.04318,1.42959 -0.36134,2.73662 -0.63893,4.12843c-0.21154,1.06059 -0.42658,2.13633 -0.63896,3.19897c-0.16639,0.67984 -0.28006,1.37477 -0.49918,2.03952c-0.3166,0.96051 -1.28643,3.05851 -1.86282,3.88192c-0.78285,1.11833 -1.65958,1.5343 -2.78172,2.29263c-0.55163,0.37279 -1.10233,0.74695 -1.65355,1.12036c-0.73828,0.50011 -2.33454,1.61066 -3.01499,1.90406c-1.31416,0.56666 -2.76854,0.69278 -4.16161,0.89221c-0.50667,0.07254 -1.00888,0.20066 -1.52055,0.21386c-0.70764,0.01826 -1.41459,-0.0635 -2.12022,-0.11996c-0.67213,-0.0538 -1.34139,-0.13899 -2.01184,-0.21073c-0.51209,-0.05479 -1.03661,-0.04206 -1.53578,-0.16884c-0.15893,-0.04038 -2.39386,-0.87938 -2.97441,-1.0894c-2.86585,-1.03665 -5.66702,-2.2491 -8.49086,-3.39773c-1.69356,-0.88907 -2.02422,-1.00033 -3.60504,-2.07833c-0.51155,-0.34882 -2.74086,-2.03711 -3.24533,-2.41711c-1.4845,-1.11823 -2.91666,-2.23963 -4.30244,-3.48023c-0.99342,-0.88934 -1.99044,-1.77464 -2.97975,-2.66855c-0.54204,-0.48975 -1.18112,-0.89198 -1.6202,-1.47581c-0.45077,-0.59942 -0.70946,-1.32382 -1.00394,-2.01358c-0.26939,-0.63104 -0.45721,-1.29387 -0.68447,-1.94127c-0.12469,-0.35517 -0.28508,-0.70006 -0.37146,-1.06646c-0.15925,-0.67552 -0.24274,-1.36667 -0.36332,-2.05017c-0.0097,-0.0551 -0.69454,-3.95527 -0.69815,-3.98287c-0.08846,-0.67588 -0.11955,-1.35805 -0.17774,-2.03719c-0.08956,-1.04518 -0.25382,-2.08717 -0.2611,-3.13615c-0.00301,-0.43419 0.08118,-0.86617 0.07652,-1.30037c-0.00489,-0.45448 -0.07008,-0.90629 -0.10513,-1.35943c0.48919,-2.37182 0.42301,-5.35245 1.54287,-7.52953c2.65233,-5.15625 9.06458,-3.63656 13.64169,-4.01781zM191.43888,48.84596c-2.2738,0.17293 -4.35406,0.83522 -5.38772,2.92704c-0.96689,1.95668 -0.87243,4.63514 -1.3329,6.75479c0.0363,0.40333 0.10367,0.80503 0.10889,1.20995c0.0056,0.4339 -0.07841,0.86564 -0.07652,1.29958c0.00437,1.00058 0.16907,1.99402 0.25399,2.991c0.0553,0.64934 0.08348,1.30165 0.16808,1.94784c0.17119,1.30765 0.45809,2.59753 0.68495,3.89666c0.10998,0.62977 0.18329,1.26696 0.32826,1.88959c0.07295,0.31331 0.21645,0.60589 0.32335,0.9093c0.21506,0.61043 0.39732,1.23325 0.64251,1.83221c0.22101,0.53988 0.40036,1.11546 0.75408,1.57937c0.36553,0.4794 0.9085,0.79271 1.35956,1.19272l2.97975,2.66855c1.34328,1.20343 2.7321,2.28833 4.17152,3.37263c0.44943,0.33855 2.69332,2.0373 3.16959,2.36277c1.44698,0.98888 1.7739,1.10385 3.31922,1.91594c2.77363,1.12085 5.51956,2.31558 8.33208,3.33219c0.91827,0.33191 1.7998,0.77803 2.7454,1.02136c0.41858,0.10772 0.86039,0.08344 1.29036,0.12754c0.65561,0.06724 1.3096,0.15147 1.96635,0.20649c0.62328,0.0522 1.24762,0.13077 1.87289,0.11507c0.44453,-0.01116 0.87958,-0.1314 1.31965,-0.1952c1.10909,-0.16077 2.59571,-0.28794 3.65181,-0.74788c0.50223,-0.21872 2.12681,-1.34421 2.68808,-1.72459c0.55261,-0.37448 1.10379,-0.7511 1.65794,-1.12332c0.78847,-0.5296 1.72468,-0.99027 2.28256,-1.81144c1.06572,-1.56873 1.58784,-3.36352 2.02588,-5.1762c0.21114,-1.0584 0.41813,-2.0964 0.6304,-3.1583c0.2361,-1.18114 0.56483,-2.55168 0.60046,-3.76802c0.01367,-0.46665 -0.08168,-0.93012 -0.12111,-1.3953c-0.10366,-1.22337 -0.20385,-2.44701 -0.30574,-3.67053c-0.21125,-2.53665 -0.43793,-5.049 -0.90826,-7.55175c-0.46378,-2.46788 -0.77937,-5.023 -2.20002,-7.1591c-0.15579,-0.23424 -0.33126,-0.47251 -0.56843,-0.62384c-0.29907,-0.19081 -0.67159,-0.23137 -0.9962,-0.37445c-0.35443,-0.15622 -0.69215,-0.34789 -1.03805,-0.52216c-1.47953,-0.74539 -2.9441,-1.44354 -4.49927,-2.01673c-1.81313,-0.66918 -3.60357,-1.38135 -5.39738,-2.1006c-0.5944,-0.23833 -1.17256,-0.52165 -1.78261,-0.71647c-0.50506,-0.16129 -1.03505,-0.23051 -1.55199,-0.34838c-0.60882,-0.13884 -1.20477,-0.35136 -1.82524,-0.42175c-0.47321,-0.05368 -0.95179,0.03677 -1.42777,0.05274c-1.31488,0.04414 -2.62932,0.1163 -3.94039,0.22562c-1.13312,0.09448 -2.27458,0.11587 -3.39955,0.28123c-0.47677,0.07009 -0.94068,0.21071 -1.41432,0.2994c-1.12844,0.21128 -2.26623,0.36919 -3.39934,0.55365c-0.02563,0.00417 -0.05126,0.00834 -0.07689,0.01252c-0.26535,0.18401 -0.53285,0.18031 -0.74558,0.12164c-1.04176,0.17017 -2.0834,0.34094 -3.12557,0.50854c-0.61824,0.09943 -1.24833,0.14074 -1.85535,0.29453c-0.33711,0.08541 -0.63736,0.27849 -0.95604,0.41774c0,0 -0.91916,0.39388 -1.31304,-0.52528c-0.26842,-0.62639 0.07295,-1.00883 0.31765,-1.18891z" fill="#000000" stroke="none" stroke-width="0.5" stroke-linecap="butt"/><path d="M191.1549,50.07183c0.39388,0.91916 1.24657,0.45057 1.24657,0.45057c0.31868,-0.13925 0.6204,-0.33357 0.95752,-0.41899c0.60701,-0.15379 1.23972,-0.19707 1.85796,-0.29648c1.04217,-0.16762 2.08895,-0.34153 3.1307,-0.51169c0.21274,0.05867 0.48158,0.06167 0.74694,-0.12234c0.02563,-0.00417 0.05141,-0.00842 0.07703,-0.01258c1.13313,-0.18446 2.27767,-0.34509 3.4061,-0.55637c0.47366,-0.08867 0.94062,-0.23022 1.41738,-0.30028c1.12497,-0.16536 2.27387,-0.18804 3.407,-0.28252c1.31108,-0.10932 2.63431,-0.18155 3.94919,-0.22569c0.47598,-0.01598 0.95768,-0.10607 1.43089,-0.0524c0.62047,0.07038 1.22049,0.28367 1.82929,0.42249c0.51693,0.11788 1.0503,0.18801 1.55537,0.3493c0.61004,0.19482 1.19221,0.47953 1.7866,0.71789c1.7938,0.71925 3.59515,1.43744 5.40829,2.10664c1.55515,0.57318 3.027,1.27781 4.50654,2.0232c0.34591,0.17427 0.68504,0.36755 1.03948,0.52377c0.32462,0.14307 0.69828,0.18502 0.99734,0.37586c0.23717,0.15132 0.41362,0.39089 0.5694,0.62515c1.42066,2.13614 1.74307,4.70414 2.20686,7.172c0.47033,2.50275 0.69986,5.03049 0.91111,7.56714c0.1019,1.22352 0.20171,2.45469 0.30538,3.67805c0.03944,0.46519 0.13436,0.93138 0.12069,1.39804c-0.03563,1.21635 -0.36627,2.59423 -0.60237,3.77538c-0.21227,1.06189 -0.42163,2.10562 -0.63277,3.16402c-0.43807,1.81268 -0.96567,3.61627 -2.03139,5.185c-0.55787,0.82117 -1.49762,1.28591 -2.2861,1.81552c-0.55415,0.37221 -1.10806,0.75143 -1.66067,1.12592c-0.56128,0.38036 -2.19073,1.50963 -2.69292,1.72837c-1.05609,0.45994 -2.54877,0.59064 -3.65786,0.75143c-0.44007,0.0638 -0.87752,0.18515 -1.32203,0.19631c-0.62528,0.01569 -1.25294,-0.06157 -1.87623,-0.11377c-0.65675,-0.05501 -1.31453,-0.13808 -1.97015,-0.20532c-0.42998,-0.0441 -0.87445,-0.0192 -1.29304,-0.12692c-0.94559,-0.24334 -1.83309,-0.68861 -2.75136,-1.02052c-2.81255,-1.0166 -5.58041,-2.21451 -8.35408,-3.33534c-1.54532,-0.81209 -1.88148,-0.93175 -3.32846,-1.92063c-0.47625,-0.32547 -2.72846,-2.03097 -3.17791,-2.36951c-1.43942,-1.0843 -2.83642,-2.18004 -4.1797,-3.38346l-2.98338,-2.67661c-0.45104,-0.39999 -0.99507,-0.71667 -1.36059,-1.19607c-0.35371,-0.46391 -0.53389,-1.04316 -0.75491,-1.58306c-0.2452,-0.59894 -0.42805,-1.22589 -0.6431,-1.8363c-0.1069,-0.30341 -0.25057,-0.59798 -0.32353,-0.91131c-0.14496,-0.62265 -0.21837,-1.26386 -0.32835,-1.89362c-0.22689,-1.29914 -0.51302,-2.59686 -0.68421,-3.9045c-0.08461,-0.64618 -0.11199,-1.30215 -0.1673,-1.95149c-0.08491,-0.99697 -0.24802,-1.99553 -0.2524,-2.99612c-0.0019,-0.43393 0.08299,-0.86783 0.07738,-1.30175c-0.00522,-0.40492 -0.0718,-0.80841 -0.1081,-1.21173c0.46048,-2.11965 0.37194,-4.80766 1.33882,-6.76435c1.03365,-2.09183 3.12093,-2.76137 5.39472,-2.9343c-0.24471,0.18009 -0.52012,0.63766 -0.25168,1.26405z" fill="#ffffff" stroke="none" stroke-width="0.5" stroke-linecap="butt"/><path d="M173.08635,72.16932c-0.13753,-1.65114 1.0895,-3.10114 2.74063,-3.23866c1.65114,-0.13753 3.10114,1.0895 3.23866,2.74063c0.13753,1.65114 -1.0895,3.10114 -2.74063,3.23866c-1.65114,0.13753 -3.10114,-1.0895 -3.23866,-2.74063z" fill="#000000" stroke="none" stroke-width="0.5" stroke-linecap="butt"/><path d="M226.12166,67.57252c-0.13753,-1.65114 1.0895,-3.10114 2.74063,-3.23866c1.65114,-0.13753 3.10114,1.0895 3.23866,2.74063c0.13753,1.65114 -1.0895,3.10114 -2.74063,3.23866c-1.65114,0.13753 -3.10114,-1.0895 -3.23866,-2.74063z" fill="#000000" stroke="none" stroke-width="0.5" stroke-linecap="butt"/><path d="M101.64241,22.80447c-0.64989,-1.06777 0.41789,-1.71765 0.41789,-1.71765l1.06061,-0.57563c10.91096,-2.6285 20.64918,-0.99161 31.25326,2.12498c0.12395,0.03644 4.80206,1.41044 4.87547,1.43577c1.22924,0.42419 2.37804,1.05303 3.56649,1.58079c0.105,0.04665 4.58119,2.0335 4.63993,2.06312c1.23952,0.62472 2.3785,1.43159 3.56712,2.14845c0.07808,0.04709 4.30227,2.59387 4.34062,2.62004c0.03802,0.02594 3.95045,3.03104 4.02244,3.08637c0.67537,0.51886 1.37371,1.00915 2.02573,1.55708c0.02762,0.02321 3.67122,3.37001 3.72391,3.41842c0.6273,0.57639 1.2806,1.12571 1.88146,1.72962c1.30685,1.31353 1.60693,1.74047 2.60256,2.99297c0,0 0.77733,0.97892 -0.2016,1.75625c-0.97892,0.77733 -1.75625,-0.2016 -1.75625,-0.2016c-0.91946,-1.15927 -1.21485,-1.57856 -2.41611,-2.78345c-0.57526,-0.57701 -1.20089,-1.1015 -1.80112,-1.65248c-1.21429,-1.11467 -2.37934,-2.28532 -3.64125,-3.3458c-0.62394,-0.52434 -1.29343,-0.99195 -1.93994,-1.48816c-1.30362,-1.00053 -2.55147,-2.07791 -3.9089,-3.00413c-1.35742,-0.92621 -2.81543,-1.69564 -4.22265,-2.54431c-1.14412,-0.69001 -2.23737,-1.47205 -3.43115,-2.0721c-1.46591,-0.73687 -2.99996,-1.32952 -4.49946,-1.9954c-0.76162,-0.33821 -1.52348,-0.67586 -2.28484,-1.01463c-0.37647,-0.16751 -0.73893,-0.37048 -1.12869,-0.50419c-1.55046,-0.53196 -3.14609,-0.92182 -4.71874,-1.38402c-10.17935,-2.99177 -19.48576,-4.61796 -29.96271,-2.09307l-0.34644,0.28076c0,0 -1.06777,0.64989 -1.71765,-0.41789z" fill="#000000" stroke="none" stroke-width="0.5" stroke-linecap="butt"/><path d="M227.49553,-7.11607c0.49235,1.14894 -0.65659,1.64131 -0.65659,1.64131l-0.49979,0.21351c-2.28229,1.06111 -4.69078,1.61509 -6.97674,2.60902c-5.43952,2.36509 -9.19425,7.46664 -12.71987,11.96814c-1.21488,1.89973 -2.43158,3.79829 -3.64793,5.69709c-0.88936,1.38831 -1.83488,2.74215 -2.66907,4.16433c-1.18484,2.02003 -2.18908,4.17546 -3.28079,6.24718c-0.40803,0.77432 -0.74387,1.59159 -1.22684,2.32154c-0.48296,0.72996 -1.10382,1.35862 -1.65694,2.03696c-1.57985,1.93752 -3.16379,3.87176 -4.74676,5.80674c-0.51338,0.62754 -1.06245,1.22741 -1.54082,1.882c-0.47838,0.65459 -0.88121,1.36118 -1.32512,2.03964c-0.49095,0.75035 -0.88153,1.57845 -1.47942,2.24674c-0.28394,0.31738 -2.42976,2.00837 -3.12483,2.56033c0,0 -0.97892,0.77733 -1.75625,-0.2016c-0.77733,-0.97892 0.2016,-1.75625 0.2016,-1.75625c0.48372,-0.38408 2.69453,-2.13312 2.81574,-2.26879c0.51301,-0.57423 0.82944,-1.29755 1.24777,-1.94403c0.46496,-0.71859 0.89704,-1.46009 1.40206,-2.15113c0.50501,-0.69103 1.08222,-1.32629 1.6237,-1.98917c1.58154,-1.93615 3.16201,-3.87323 4.74676,-5.80674c0.50168,-0.61208 1.07087,-1.17416 1.50756,-1.8342c0.43668,-0.66002 0.73146,-1.40368 1.09863,-2.10478c1.10264,-2.10543 2.13064,-4.29087 3.33282,-6.34124c0.01966,-0.03353 2.68546,-4.19421 2.72509,-4.25607c1.23751,-1.93179 2.47477,-3.86374 3.7137,-5.7946c3.79832,-4.86075 7.83919,-10.19564 13.67822,-12.77629c2.2901,-1.01214 4.71467,-1.55315 7.00202,-2.62096l0.57079,-0.24525c0,0 1.14894,-0.49235 1.64131,0.65659z" fill="#000000" stroke="none" stroke-width="0.5" stroke-linecap="butt"/></g></g></g></svg>