<svg version="1.1" xmlns="http://www.w3.org/2000/svg" xmlns:xlink="http://www.w3.org/1999/xlink" width="5838.0034" height="2817.23724" viewBox="0,0,5838.0034,2817.23724"><g transform="translate(2599.12754,1228.47321)"><g data-paper-data="{&quot;isPaintingLayer&quot;:true}" stroke-linejoin="miter" stroke-miterlimit="10" stroke-dasharray="" stroke-dashoffset="0" style="mix-blend-mode: normal"><path d="M394.13767,322.66871l-18.49406,-277.45236l87.84689,2.45533l31.43998,274.99696z" fill="#cedce9" fill-rule="nonzero" stroke="#000000" stroke-width="1" stroke-linecap="round"/><path d="M191.19183,324.10661c-3.03408,-0.39845 -10.25468,-1.01958 -7.0903,-1.66166c-1.73004,0.20576 -4.03817,0.45697 -5.2663,0.52454c-5.81808,0.32015 -13.35813,0 -19.36177,0c-16.47055,0 -32.4609,-0.16994 -48.40423,0.63566c-7.20522,0.36407 -9.18593,-0.76022 -11.39844,0.81289c-4.56378,2.63948 -13.1503,4.99481 -18.6661,7.65198c-7.47572,3.60127 -10.37481,7.07799 -14.9577,10.68901c-5.18603,2.97376 -0.96168,8.68333 -0.96168,11.99326c0,0.886 1.4548,2.46311 0.06534,3.11529c1.38124,0.03295 2.71533,0.06301 3.56501,0.06301c5.6472,0 11.29432,0 16.94154,0c22.46357,0 48.56337,-0.129 70.36675,-1.56064c25.88774,-1.52726 53.94513,0.66284 80.04112,-0.70795c14.29082,-0.68751 29.86867,-0.27883 44.41913,-0.274c7.38145,0.00246 13.70251,-0.73389 16.94148,0.63566c0.85132,0.35999 0,-0.84753 0,-1.2713c0,-1.05941 0,-2.11888 0,-3.17828c0,-5.93278 0,-11.86558 0,-17.79836c0,-1.40257 -1.39977,-6.42039 1.49608,-6.96335c-0.54321,-0.0085 -1.158,-0.02237 -1.49608,-0.02886c-2.99478,-0.05739 -4.66799,-0.01404 -7.00516,-0.45202c-4.05745,-0.76038 -17.74617,-0.18362 -23.24748,-0.18362c-21.37857,0 -42.75708,0 -64.13564,0c0,0 -4.8404,0 -4.8404,-1.2713c0,-0.05217 0.00812,-0.10221 0.02378,-0.15017c-2.314,-0.12882 -4.65136,-0.30747 -7.02891,-0.6197zM267.17311,323.6052c12.90519,0 29.39907,-0.60355 38.21222,1.97407c5.05027,1.47707 1.72119,6.21291 1.72119,8.19644c0,5.9328 0,11.86556 0,17.79834c0,0.67746 1.6672,4.03813 0,4.44959c-16.83971,4.15575 -48.57968,0.91511 -69.14283,2.1316c-25.51767,1.34042 -54.90437,-1.21385 -79.59178,0.6814c-22.47194,1.47555 -49.54459,1.63659 -72.71473,1.63659c-3.32351,0 -23.25473,0.66108 -25.41221,0c-6.1868,-1.89577 -4.8404,-3.47717 -4.8404,-5.72091c0,-4.05845 -2.73918,-8.89612 1.45849,-12.79732c4.6972,-3.70104 7.99126,-7.41305 15.48302,-11.02205c3.02208,-1.45581 6.28633,-3.40316 10.19182,-4.71802c2.55553,-0.86039 7.44156,-1.55943 8.05203,-2.67787c4.14104,-2.94433 11.62459,-1.9796 20.47956,-2.47446c15.76294,-0.88091 32.07463,-0.63566 48.40423,-0.63566c6.02226,0 17.78898,-0.72793 22.03739,-0.50145c7.39548,0.3943 11.68289,2.05078 18.85069,2.54262c5.25963,0.36092 10.80229,0.14727 16.94154,0.95349c0.46607,0.06122 0.93203,0.12241 1.39816,0.18362c16.15719,0 32.31449,0 48.4717,0z" data-paper-data="{&quot;index&quot;:null}" fill="#000000" fill-rule="nonzero" stroke="none" stroke-width="1" stroke-linecap="butt"/><path d="M198.28806,324.66534c-0.0157,0.04797 -0.02323,0.09803 -0.02323,0.15022c0,1.2713 4.86416,1.27348 4.86416,1.27348c21.37851,0 42.87096,0.02527 64.24961,0.02527c5.5013,0 19.20246,-0.57084 23.25993,0.18953c2.33712,0.438 4.01412,0.39679 7.00882,0.45415c0.33803,0.00649 0.95335,0.02066 1.49664,0.02919c-2.89588,0.54299 -1.48139,5.57299 -1.48139,6.97553c0,5.93279 -0.0101,11.90086 -0.0101,17.83365c0,1.05943 -0.00826,2.12402 -0.00826,3.18342c0,0.42376 0.84766,1.63317 -0.00366,1.27321c-3.23895,-1.36954 -9.56579,-0.63046 -16.94719,-0.63292c-14.55049,-0.00482 -30.1724,-0.399 -44.46317,0.28852c-26.09602,1.37079 -54.40985,-0.80699 -80.29762,0.72026c-21.80338,1.43164 -48.00911,1.53851 -70.47285,1.53851c-5.6472,0 -11.30419,-0.00399 -16.95139,-0.00399c-0.84974,0 -2.18566,-0.03085 -3.56685,-0.0638c1.38948,-0.65217 -0.07434,-2.23377 -0.07434,-3.11978c0,-3.30993 -4.24713,-9.04149 0.93901,-12.01526c4.58293,-3.61105 7.49192,-7.11188 14.96764,-10.71317c5.51591,-2.65717 14.13863,-5.03145 18.70247,-7.67091c2.2125,-1.57311 4.20822,-0.45365 11.41342,-0.81772c15.94328,-0.80557 32.03749,-0.65347 48.50792,-0.65347c6.00354,0 13.61107,0.31698 19.42915,-0.00317c1.22801,-0.0676 3.55536,-0.31878 5.28542,-0.52454c-3.16444,0.64208 4.08481,1.26396 7.11893,1.6624c2.37763,0.31223 4.7432,0.49257 7.05711,0.62138z" data-paper-data="{&quot;noHover&quot;:false,&quot;origItem&quot;:[&quot;Path&quot;,{&quot;applyMatrix&quot;:true,&quot;segments&quot;:[[[579.60736,595.76373],[0.95609,-0.20262],[0.00646,0.07548]],[[579.61718,596],[0,-0.08208],[0,2]],[[577.61718,598],[0,0],[-8.83333,0]],[[551.11718,598],[8.83333,0],[-2.27308,0]],[[541.51161,598.28885],[1.67648,-1.19621],[-0.96568,0.68904]],[[538.61718,599],[1.23739,-0.09027],[-0.13966,0.01019]],[[537.99901,599.04541],[0.22447,-0.0134],[1.19653,0.85421]],[[538.61718,610],[0,-2.20646],[0,9.33333]],[[538.61718,638],[0,-9.33333],[0,1.66667]],[[538.61718,643],[0,-1.66667],[0,0.66667]],[[538.61718,645],[-0.35177,0.56631],[1.33831,-2.15456]],[[545.61718,644],[-3.04994,0.00386],[6.01206,-0.00761]],[[563.97058,644.43107],[-5.90478,-1.08158],[10.78253,2.15651]],[[597.04254,645.54479],[-10.6965,-2.40266],[9.00888,2.25222]],[[626.11718,648],[-9.28168,0],[2.33333,0]],[[633.11718,648],[-2.33333,0],[0.35109,0]],[[634.59021,647.90091],[-0.5707,0.05184],[-0.57412,-1.02596]],[[634.61718,643],[0,1.39387],[0,-5.20707]],[[634.21982,624.13246],[2.14282,4.67827],[-1.8936,-5.6808]],[[628.03948,607.31672],[3.08887,5.66543],[-2.2791,-4.1802]],[[620.32688,595.27881],[1.8857,4.15235],[-0.91417,-2.47477]],[[615.61718,594],[2.9771,0.57275],[-6.58756,-1.26734]],[[595.61718,593],[6.8054,0],[-2.48058,0]],[[587.61718,593],[2.40395,0.50364],[-0.50743,-0.10631]],[[585.44122,592.1748],[0.71481,0.32365],[1.30749,1.01011]],[[582.51161,594.78885],[1.25365,-0.62682],[-0.98239,0.4912]]],&quot;closed&quot;:true}],&quot;index&quot;:null}" fill="#484848" fill-rule="nonzero" stroke="none" stroke-width="1" stroke-linecap="butt"/><path d="M130.43109,329.32618c0,0.42966 1.66868,0.95036 0.83698,1.29058c2.12732,0.0575 4.26723,0.18309 6.16811,0.43275c7.32921,0.96252 22.23884,4.46975 23.64471,6.78846c0.11429,0.18859 -1.95824,0.22007 -1.60726,0.38735c1.16791,0.55653 10.6856,-0.41064 11.78042,-0.25259c0.24775,0.03575 0.36944,0.09147 0.4182,0.15928c-0.05097,-0.21063 -0.09761,-0.41424 -0.09761,-0.54237c0,-0.45033 0.06776,-0.93562 -0.69902,-1.33841c-6.51783,-3.5502 -17.16685,-6.92513 -35.60405,-6.92513c0,0 -2.17575,0 -3.60988,-0.38313c-0.47825,-0.07134 -0.85017,-0.15528 -1.09948,-0.25369c-0.06407,0.24254 -0.13113,0.48942 -0.13113,0.63683zM171.5747,338.86093c0.33033,0.26027 0.23291,-0.17175 0.12313,-0.62373c-0.02295,0.19615 -0.34893,0.44586 -0.12313,0.62373zM179.53427,335.11417c6.01881,3.16155 -7.64735,7.7809 -20.0607,5.65377c-11.7121,-2.00699 -15.67808,-6.04059 -26.36679,-7.44425c-3.61099,-0.47422 -7.93791,-0.73309 -10.63542,-1.52204c-4.27474,-1.25028 -2.37981,-5.51957 5.79495,-5.51957c5.88638,0 8.78566,0.50144 14.26579,0.50144h2.42019c0,0 2.77826,0 4.12511,0.55283c14.33817,1.22928 23.5389,4.35247 30.45688,7.77779z" data-paper-data="{&quot;index&quot;:null}" fill="#000000" fill-rule="nonzero" stroke="none" stroke-width="1" stroke-linecap="butt"/><path d="M130.38261,328.64669c0.24919,0.09843 0.62129,0.18229 1.09957,0.25367c1.43412,0.38313 3.61974,0.38039 3.61974,0.38039c18.43718,0 29.47063,3.44956 35.98838,6.99977c0.76677,0.40276 0.67793,0.89692 0.67793,1.34723c0,0.12813 0.0377,0.33468 0.08867,0.54531c-0.04868,-0.06784 -0.16921,-0.12388 -0.41707,-0.15966c-1.09484,-0.15802 -10.695,0.82585 -11.86292,0.26933c-0.35101,-0.16725 1.49168,-0.31041 1.37725,-0.49903c-1.40583,-2.3187 -16.38738,-5.80815 -23.71668,-6.77064c-1.90094,-0.24965 -4.0531,-0.37008 -6.18045,-0.4276c0.83172,-0.34021 -0.81713,-0.86879 -0.81713,-1.29843c0,-0.14742 0.07821,-0.39782 0.14245,-0.64036z" data-paper-data="{&quot;noHover&quot;:false,&quot;origItem&quot;:[&quot;Path&quot;,{&quot;applyMatrix&quot;:true,&quot;segments&quot;:[[[607.563,601.99816],[0.02649,0.38155],[-0.10299,0.15484]],[[607.10872,602.39727],[0.1976,-0.11227],[-0.59254,0.60273]],[[605.61718,603],[0,0],[-7.618,0]],[[590.90604,613.89443],[2.69308,-5.58508],[-0.31682,0.63364]],[[590.61718,616],[0,-0.70843],[0,0.20156]],[[590.57685,616.85325],[0.02106,-0.33136],[0.02013,-0.10671]],[[590.74964,616.60263],[-0.10238,0.05628],[0.45234,-0.24865]],[[595.61718,617],[-0.48256,0.87548],[0.14503,-0.26312]],[[594.95308,616.3906],[-0.04725,0.29671],[0.58086,-3.64773]],[[604.72276,605.71115],[-3.02833,1.51416],[0.78545,-0.39273]],[[607.27135,605.03032],[-0.87898,0.0905],[-0.34365,-0.53523]],[[607.61718,603],[0,0.6759],[0,-0.23192]]],&quot;closed&quot;:true}],&quot;index&quot;:null}" fill="#ffffff" fill-rule="nonzero" stroke="none" stroke-width="1" stroke-linecap="butt"/><path d="M503.2864,311.44427c-2.37752,0.3999 -4.71494,0.62872 -7.02889,0.7937c0.01566,0.06144 0.02377,0.12553 0.02377,0.19236c0,1.62826 -4.8404,1.62826 -4.8404,1.62826c-21.3786,0 -42.75709,0 -64.13561,0c-5.50127,0 -19.19004,-0.7387 -23.24752,0.23518c-2.33718,0.56096 -4.01038,0.50544 -7.00516,0.57894c-0.338,0.00831 -0.95283,0.02605 -1.49607,0.03698c2.89582,0.69543 1.49607,7.12217 1.49607,8.91852c0,7.59863 0,15.19726 0,22.79586c0,1.35688 0,2.71383 0,4.07069c0,0.54273 -0.85132,2.08932 0,1.62826c3.23899,-1.7541 9.56,-0.81101 16.94148,-0.81414c14.55046,-0.00619 30.12829,-0.5296 44.41908,0.35095c26.09601,1.75569 54.15334,-1.04936 80.04112,0.90673c21.80339,1.8336 47.90315,1.99884 70.36675,1.99884c5.64724,0 11.29436,0 16.94154,0c0.84966,0 2.18375,-0.03849 3.56501,-0.08069c-1.38946,-0.83529 0.06531,-2.85523 0.06531,-3.99001c0,-4.23928 4.22438,-11.552 -0.96166,-15.36076c-4.58293,-4.62497 -7.48197,-9.07785 -14.95769,-13.69031c-5.5158,-3.40325 -14.10234,-6.41993 -18.6661,-9.80052c-2.21251,-2.01481 -4.19322,-0.57483 -11.39846,-1.04114c-15.94335,-1.03179 -31.93371,-0.81414 -48.40423,-0.81414c-6.00367,0 -13.54368,0.41004 -19.36176,0c-1.22816,-0.08656 -3.53623,-0.4083 -5.2663,-0.67182c3.16435,0.82242 -4.05622,1.61791 -7.09029,2.12823zM427.30499,310.80209c16.15724,0 32.31445,0 48.47167,0c0.46614,-0.0784 0.93212,-0.15677 1.39821,-0.23516c6.13922,-1.03259 11.68192,-0.75894 16.94153,-1.22121c7.16777,-0.62997 11.4552,-2.75155 18.8507,-3.25655c4.24837,-0.29011 16.01514,0.64225 22.03738,0.64225c16.32958,0 32.6413,-0.31409 48.40425,0.81414c8.85502,0.63382 16.33854,-0.60179 20.47957,3.16925c0.6105,1.43248 5.4965,2.32782 8.05203,3.42979c3.90544,1.68408 7.16971,4.17819 10.19182,6.04276c7.49174,4.62234 10.78582,9.37663 15.48302,14.11686c4.19773,4.99662 1.45855,11.19258 1.45855,16.39056c0,2.87377 1.34641,4.89919 -4.8404,7.32724c-2.15741,0.8467 -22.08873,0 -25.41223,0c-23.17015,0 -50.24285,-0.20631 -72.71473,-2.09613c-24.68739,-2.42743 -54.07406,0.84402 -79.59173,-0.87274c-20.56319,-1.55809 -52.30316,2.5925 -69.14283,-2.73012c-1.6672,-0.52698 0,-4.83127 0,-5.69896c0,-7.59862 0,-15.19724 0,-22.79585c0,-2.54051 -3.32914,-8.60606 1.72119,-10.49787c8.81311,-3.30137 25.30699,-2.52836 38.21222,-2.52836z" data-paper-data="{&quot;index&quot;:null}" fill="#000000" fill-rule="nonzero" stroke="none" stroke-width="1" stroke-linecap="butt"/><path d="M496.19,312.15983c2.31393,-0.16499 4.67951,-0.39595 7.05714,-0.79585c3.03404,-0.51032 10.28333,-1.30682 7.11889,-2.12919c1.73003,0.26353 4.0574,0.58525 5.28542,0.67182c5.81809,0.41004 13.42569,0.00407 19.42915,0.00407c16.47044,0 32.56464,-0.19483 48.50793,0.83695c7.20524,0.46629 9.20098,-0.9675 11.4135,1.04731c4.5638,3.38055 13.18658,6.42152 18.70247,9.82476c7.47572,4.61242 10.38476,9.09624 14.96765,13.72118c5.1861,3.80878 0.93895,11.14966 0.93895,15.38896c0,1.13477 -1.46382,3.16047 -0.07434,3.99576c-1.38118,0.04219 -2.71709,0.08171 -3.56683,0.08171c-5.6472,0 -11.30422,0.0051 -16.9514,0.0051c-22.46373,0 -48.66947,-0.13689 -70.47285,-1.97052c-25.88778,-1.9561 -54.20159,0.83316 -80.29762,-0.92254c-14.29079,-0.88058 -29.91269,-0.37572 -44.46316,-0.36953c-7.38145,0.00314 -13.7082,-0.94344 -16.94719,0.81065c-0.85133,0.46108 -0.00366,-1.08794 -0.00366,-1.63069c0,-1.35688 -0.0083,-2.72042 -0.0083,-4.07727c0,-7.59863 -0.01007,-15.24243 -0.01007,-22.84105c0,-1.79635 1.41449,-8.23871 -1.4814,-8.93413c0.54331,-0.01094 1.15857,-0.0291 1.49664,-0.03741c2.99467,-0.0735 4.6717,-0.0207 7.00882,-0.58167c4.05745,-0.97388 17.75863,-0.24275 23.25993,-0.24275c21.37863,0 42.87108,-0.03238 64.24961,-0.03238c0,0 4.86416,-0.00279 4.86416,-1.63105c0,-0.06684 -0.00753,-0.13095 -0.02322,-0.1924z" data-paper-data="{&quot;noHover&quot;:false,&quot;origItem&quot;:[&quot;Path&quot;,{&quot;applyMatrix&quot;:true,&quot;segments&quot;:[[[579.60736,595.76373],[0.95609,-0.20262],[0.00646,0.07548]],[[579.61718,596],[0,-0.08208],[0,2]],[[577.61718,598],[0,0],[-8.83333,0]],[[551.11718,598],[8.83333,0],[-2.27308,0]],[[541.51161,598.28885],[1.67648,-1.19621],[-0.96568,0.68904]],[[538.61718,599],[1.23739,-0.09027],[-0.13966,0.01019]],[[537.99901,599.04541],[0.22447,-0.0134],[1.19653,0.85421]],[[538.61718,610],[0,-2.20646],[0,9.33333]],[[538.61718,638],[0,-9.33333],[0,1.66667]],[[538.61718,643],[0,-1.66667],[0,0.66667]],[[538.61718,645],[-0.35177,0.56631],[1.33831,-2.15456]],[[545.61718,644],[-3.04994,0.00386],[6.01206,-0.00761]],[[563.97058,644.43107],[-5.90478,-1.08158],[10.78253,2.15651]],[[597.04254,645.54479],[-10.6965,-2.40266],[9.00888,2.25222]],[[626.11718,648],[-9.28168,0],[2.33333,0]],[[633.11718,648],[-2.33333,0],[0.35109,0]],[[634.59021,647.90091],[-0.5707,0.05184],[-0.57412,-1.02596]],[[634.61718,643],[0,1.39387],[0,-5.20707]],[[634.21982,624.13246],[2.14282,4.67827],[-1.8936,-5.6808]],[[628.03948,607.31672],[3.08887,5.66543],[-2.2791,-4.1802]],[[620.32688,595.27881],[1.8857,4.15235],[-0.91417,-2.47477]],[[615.61718,594],[2.9771,0.57275],[-6.58756,-1.26734]],[[595.61718,593],[6.8054,0],[-2.48058,0]],[[587.61718,593],[2.40395,0.50364],[-0.50743,-0.10631]],[[585.44122,592.1748],[0.71481,0.32365],[1.30749,1.01011]],[[582.51161,594.78885],[1.25365,-0.62682],[-0.98239,0.4912]]],&quot;closed&quot;:true}],&quot;index&quot;:null}" fill="#484848" fill-rule="nonzero" stroke="none" stroke-width="1" stroke-linecap="butt"/><path d="M564.04718,318.12921c0,-0.1888 -0.06699,-0.505 -0.13109,-0.81563c-0.24932,0.12605 -0.62119,0.2335 -1.09948,0.32492c-1.43415,0.49069 -3.60987,0.49071 -3.60987,0.49071c-18.43723,0 -29.08631,4.32258 -35.6041,8.86959c-0.76678,0.5159 -0.69902,1.13746 -0.69902,1.71421c0,0.16409 -0.04671,0.4249 -0.09767,0.69466c0.04872,-0.08681 0.17046,-0.15818 0.41823,-0.204c1.09478,-0.20243 10.61251,1.03629 11.78043,0.32351c0.35102,-0.21419 -1.72151,-0.25457 -1.60723,-0.49614c1.40583,-2.96978 16.31545,-7.4618 23.64468,-8.69454c1.90095,-0.31973 4.04079,-0.48059 6.16812,-0.55426c-0.83172,-0.43572 0.83697,-1.10268 0.83697,-1.65295zM522.78036,329.54242c-0.10978,0.57889 -0.20722,1.13223 0.12314,0.79885c0.22582,-0.2278 -0.10018,-0.54761 -0.12314,-0.79885zM514.94386,325.54235c6.91796,-4.38709 16.11868,-8.38724 30.45688,-9.96167c1.34692,-0.70806 4.12514,-0.70806 4.12514,-0.70806h2.42019c5.48011,0 8.37942,-0.6422 14.26579,-0.6422c8.17475,0 10.06969,5.46809 5.79493,7.06939c-2.69752,1.01049 -7.02439,1.34203 -10.63541,1.9494c-10.68865,1.79778 -14.65469,6.96395 -26.36679,9.53446c-12.41337,2.72442 -26.07952,-3.19197 -20.06076,-7.24127z" data-paper-data="{&quot;index&quot;:null}" fill="#000000" fill-rule="nonzero" stroke="none" stroke-width="1" stroke-linecap="butt"/><path d="M564.09592,317.25906c0.06424,0.31062 0.14245,0.63134 0.14245,0.82014c0,0.55028 -1.64882,1.22725 -0.81712,1.66302c-2.12734,0.07365 -4.27951,0.22788 -6.18048,0.54764c-7.32931,1.23277 -22.3109,5.70199 -23.71668,8.67175c-0.11442,0.24157 1.72828,0.42489 1.37725,0.63914c-1.16792,0.71276 -10.76806,-0.54738 -11.8629,-0.34495c-0.24785,0.04584 -0.36838,0.11761 -0.41706,0.20449c0.05098,-0.26978 0.08868,-0.5343 0.08868,-0.69841c0,-0.57675 -0.08887,-1.20964 0.67794,-1.72552c6.51772,-4.54703 17.5512,-8.96518 35.98839,-8.96518c0,0 2.1856,0.0035 3.61973,-0.4872c0.47826,-0.09144 0.8504,-0.19887 1.09958,-0.32492z" data-paper-data="{&quot;noHover&quot;:false,&quot;origItem&quot;:[&quot;Path&quot;,{&quot;applyMatrix&quot;:true,&quot;segments&quot;:[[[607.563,601.99816],[0.02649,0.38155],[-0.10299,0.15484]],[[607.10872,602.39727],[0.1976,-0.11227],[-0.59254,0.60273]],[[605.61718,603],[0,0],[-7.618,0]],[[590.90604,613.89443],[2.69308,-5.58508],[-0.31682,0.63364]],[[590.61718,616],[0,-0.70843],[0,0.20156]],[[590.57685,616.85325],[0.02106,-0.33136],[0.02013,-0.10671]],[[590.74964,616.60263],[-0.10238,0.05628],[0.45234,-0.24865]],[[595.61718,617],[-0.48256,0.87548],[0.14503,-0.26312]],[[594.95308,616.3906],[-0.04725,0.29671],[0.58086,-3.64773]],[[604.72276,605.71115],[-3.02833,1.51416],[0.78545,-0.39273]],[[607.27135,605.03032],[-0.87898,0.0905],[-0.34365,-0.53523]],[[607.61718,603],[0,0.6759],[0,-0.23192]]],&quot;closed&quot;:true}],&quot;index&quot;:null}" fill="#ffffff" fill-rule="nonzero" stroke="none" stroke-width="1" stroke-linecap="butt"/><path d="M199.54775,325.58694l31.43994,-228.69953l87.84694,-2.04194l-18.49406,230.74143z" data-paper-data="{&quot;index&quot;:null}" fill="#cedce9" fill-rule="nonzero" stroke="#000000" stroke-width="1" stroke-linecap="round"/><path d="M294.12901,216.10948c11.09186,-0.20676 22.18269,0 33.27199,0.62656c1.07749,14.77372 2.01424,29.59756 2.81533,44.48406c-0.36599,-0.23807 -0.57842,-0.86463 -0.63985,-1.87962c-0.89578,-14.00307 -1.79156,-27.99361 -2.68736,-41.9779c-11.00868,0.41354 -21.9288,-0.00627 -32.76011,-1.25306z" fill="#000000" fill-rule="evenodd" stroke="none" stroke-width="1" stroke-linecap="butt"/><path d="M96.44601,206.84654c12.85975,-0.09792 25.71831,0 38.5751,0.29674c1.24923,6.99693 2.33528,14.0176 3.26406,21.06794c-0.42432,-0.11275 -0.67061,-0.40949 -0.74183,-0.8902c-1.03856,-6.63195 -2.07711,-13.25796 -3.11569,-19.88101c-12.76331,0.19585 -25.42396,-0.00297 -37.98163,-0.59346z" fill="#000000" fill-rule="evenodd" stroke="none" stroke-width="1" stroke-linecap="butt"/><path d="M-2599.12754,1588.76403v-2817.23724h5838.0034v2817.23724z" fill="none" fill-rule="nonzero" stroke="#f00000" stroke-width="0" stroke-linecap="butt"/><path d="M-2599.12754,1588.76403v-2817.23724h5838.0034v2817.23724z" fill="none" fill-rule="nonzero" stroke="#f00000" stroke-width="0" stroke-linecap="butt"/><path d="M-2599.12754,1588.76403v-2817.23724h5838.0034v2817.23724z" fill="none" fill-rule="nonzero" stroke="#f00000" stroke-width="0" stroke-linecap="butt"/><path d="M-2599.12754,1588.76403v-2817.23724h5838.0034v2817.23724z" fill="none" fill-rule="nonzero" stroke="#f00000" stroke-width="0" stroke-linecap="butt"/><g fill-rule="nonzero" stroke="#000000" stroke-width="1" stroke-linecap="round"><path d="M69.4404,326.65858l-63.52582,-166.13215l143.66139,-101.03973l14.82479,38.38201l56.22125,-17.22406l57.9611,-32.6522l-64.87314,-145.11985l243.29217,-163.25956l189.91059,388.70135l-6.98815,3.50109l-341.48807,123.71739l-55.29671,32.90623l-166.8353,38.13459z" fill="#a6aaa2"/><path d="M58.41172,303.71852l164.85182,-58.50511l53.89791,-22.2271l-55.62019,-144.00308l58.47919,-31.04353l263.35323,-134.0169l104.21405,216.29636l-348.55535,124.76138l-59.35306,36.07903l-166.58554,50.06331z" fill="#4d3e45"/><path d="M409.41476,215.39835l-130.71146,-323.21354l5.18691,-25.49325l61.07266,-43.79015l57.83677,-18.11088l153.48773,357.24761z" fill="#a6aaa2"/><path d="M454.65993,-75.53689l-56.75959,23.3324l-63.44115,37.65803l-10.16616,19.89971l-45.68929,-113.42621l4.62021,-25.74416l61.89027,-44.10595l58.56138,-17.45117z" fill="#3e3c44"/><path d="M544.15451,131.84192l-49.27125,23.25885l-71.50486,31.37662l-23.181,5.66494l-54.0212,-131.34891l13.5383,-16.03441l64.86224,-33.97874l58.45972,-22.57966z" fill="#3e3c44"/><path d="M298.90646,255.26263l-60.36531,-145.34144l47.91504,-25.55381l63.04961,152.29121z" fill="#3e3c44"/><path d="M307.74237,251.38004l-55.19137,-135.5949l33.7365,-17.25868l57.55987,141.72705z" fill="#1f2028"/><path d="M477.776,6.2055l52.76882,113.51056l-35.58591,22.20115l-57.53392,-123.41498l39.40359,-14.74956z" fill="#21305e"/><path d="M470.04971,149.18925l-53.99096,23.2026l-46.26462,-119.78112l50.46092,-27.47673z" fill="#21305e"/><path d="M354.8066,67.32571l6.03048,-7.49699l47.70521,114.99655l-6.69886,2.11758z" fill="#21305e"/><path d="M321.68443,-14.78009l-37.56284,-85.08857l4.29359,-11.9939l35.36091,85.46926z" fill="#21305e"/><path d="M336.72819,-34.21474l-38.66814,-87.95024l40.79875,-29.38235l43.80529,93.95259l-44.67268,26.65048z" fill="#21305e"/><path d="M405.8083,-67.00381l-45.72822,-96.49847l40.60191,-12.86343l41.44545,93.9245z" fill="#21305e"/><path d="M284.55868,-133.70627l-4.14651,26.97059l-3.80039,4.75646l-10.50791,0.77002l2.59564,-33.41853l80.09203,-55.36444l69.21855,-23.9164l0.39799,14.40999l-73.75223,21.90913z" fill="#383635"/><path d="M173.89573,-80.86282l308.41097,-222.00714l4.37361,22.27037l-300.49107,204.50189z" fill="#383635"/><path d="M161.10042,93.08876l110.38068,-63.30485l7.5143,18.23853l-58.91612,33.56128l-55.88576,18.2969z" fill="#383635"/><path d="M173.23923,44.23931l-185.80059,129.54923l-8.56552,-5.14797l192.95585,-142.64844z" fill="#383635"/><path d="M87.00206,292.59738l-46.43118,-126.29396l14.69118,-23.99644l11.71702,-13.45178l18.99125,-9.21443l22.23359,-8.11777l18.27529,-3.77013l57.4474,151.16644z" fill="#3e3c44"/><path d="M95.17822,289.43938l-45.54002,-119.12141l3.31808,-12.0869l14.07688,-13.42365l10.59226,-7.84956l17.51392,-8.17402l27.0463,-9.03705l53.249,141.51291z" fill="#21305e"/></g><path d="M316.64695,87.49372c-0.76426,0.48697 -1.7205,1.10409 -2.73972,1.58888c-1.18405,0.56315 -2.42324,1.01027 -3.85279,1.58102c0.47794,-0.37443 1.12914,-0.91185 1.87099,-1.25089c1.47418,-0.67358 2.99827,-1.23792 4.72152,-1.91902z" fill="#c1bead" fill-rule="nonzero" stroke="none" stroke-width="1" stroke-linecap="butt"/><path d="M260.46877,81.0429c2.21237,-4.67832 9.63008,-10.32894 15.29564,-10.43822c-0.22572,1.20566 1.00336,1.71663 1.00336,1.71663l1.25481,0.51211c1.65277,0.4958 3.33359,0.98757 5.0231,1.33839c2.06298,0.6396 6.12462,2.63808 7.30035,4.3382c0.60928,0.88103 1.26711,4.76587 1.43063,5.57705c1.24974,6.19995 -0.78097,13.8515 -5.71857,18.35447c-5.25101,4.78879 -13.14854,1.14499 -18.77536,-0.48645c-4.1803,-1.26753 -4.89803,-3.5985 -6.41251,-7.57453c-1.74864,-4.59084 -2.61732,-8.65201 -0.4015,-13.33762z" data-paper-data="{&quot;noHover&quot;:false,&quot;origItem&quot;:[&quot;Path&quot;,{&quot;applyMatrix&quot;:true,&quot;segments&quot;:[[[342.41712,140.13554],[4.07242,-1.54941],[0.50731,0.79512]],[342.19729,141.64708],[[341.45304,142.371],[0,0],[-1.03646,0.82839]],[[338.26787,144.75824],[1.1043,-0.73553],[-1.28774,1.04877]],[[334.31884,149.9268],[0.35028,-1.55034],[-0.18152,0.80341]],[[334.90131,154.29855],[-0.11638,-0.62556],[0.88946,4.78118]],[[344.21345,165.70461],[-4.81526,-1.79353],[5.1209,1.90738]],[[357.41354,159.98508],[-3.54479,2.77989],[2.61756,-2.10485]],[[359.80282,152.76921],[0.06186,3.27099],[-0.07143,-3.77675]],[[356.27361,143.1765],[2.92636,2.70561],[-2.92179,-2.70139]]],&quot;closed&quot;:true}],&quot;index&quot;:null}" fill="#ffffff" fill-rule="nonzero" stroke="#000000" stroke-width="2.5" stroke-linecap="butt"/><path d="M315.01489,45.37892c2.50318,1.05579 3.57695,2.45993 5.7443,4.61107c3.4977,2.4034 3.19845,7.49637 3.72903,11.46033c0.72476,5.41473 2.35558,12.14245 -1.00434,17.02976c-4.621,6.72158 -18.81197,11.02934 -24.11346,3.66953c-2.60572,-3.49857 -5.916,-7.64728 -6.62422,-12.14459c-1.16555,-7.40139 3.79504,-19.32897 10.53919,-23.0153c2.70304,-1.47748 8.02312,-1.94516 10.99964,-1.54352c0,0 0.34236,0.04304 0.72984,-0.06729z" data-paper-data="{&quot;noHover&quot;:false,&quot;origItem&quot;:[&quot;Path&quot;,{&quot;applyMatrix&quot;:true,&quot;segments&quot;:[[[307.18847,133.41002],[0.30808,-0.03262],[-1.48216,1.47207]],[[304.42774,138.33581],[0.92801,-2.15688],[-1.80442,2.71895]],[[305.0672,147.54907],[-0.76017,-2.97976],[1.03838,4.07032]],[[310.6472,159.36771],[-3.80035,-2.52083],[5.22668,3.46693]],[[328.83869,155.0739],[-1.66733,6.7723],[0.85365,-3.24387]],[[330.06563,144.54515],[0.78666,3.41119],[-1.29463,-5.61394]],[[315.99034,131.1999],[5.86924,0.69214],[-2.35237,-0.27741]],[[307.72705,133.24934],[2.00768,-1.14145],[0,0]]],&quot;closed&quot;:true}],&quot;index&quot;:null}" fill="#ffffff" fill-rule="nonzero" stroke="#000000" stroke-width="2.5" stroke-linecap="butt"/><path d="M322.50777,65.19448c-1.83219,0.73784 -3.91564,-0.14931 -4.65347,-1.9815c-0.73784,-1.83219 0.14931,-3.91564 1.9815,-4.65347c1.83219,-0.73784 3.91564,0.14931 4.65347,1.9815c0.73784,1.83219 -0.14931,3.91564 -1.9815,4.65347z" data-paper-data="{&quot;index&quot;:null}" fill="#000000" fill-rule="nonzero" stroke="none" stroke-width="0.5" stroke-linecap="butt"/><path d="M286.83408,86.82329c-1.83219,0.73784 -3.91564,-0.14931 -4.65347,-1.9815c-0.73784,-1.83219 0.14931,-3.91564 1.9815,-4.65347c1.83219,-0.73784 3.91564,0.14931 4.65347,1.9815c0.73784,1.83219 -0.14931,3.91564 -1.9815,4.65347z" data-paper-data="{&quot;index&quot;:null}" fill="#000000" fill-rule="nonzero" stroke="none" stroke-width="0.5" stroke-linecap="butt"/><path d="M320.01344,-7.89979c0.60726,1.50793 -0.90068,2.11524 -0.90068,2.11524l-0.04523,-0.22186c-2.49134,3.2209 -4.98118,6.44297 -7.47884,9.65895c-4.9205,9.3998 -9.73737,18.86756 -15.06627,28.04238c-3.95822,6.81493 -9.44368,14.60941 -11.01047,22.37889c0,0 -0.33117,1.59156 -1.92272,1.26037c-1.59154,-0.3312 -1.26037,-1.92272 -1.26037,-1.92272c1.74466,-8.16892 7.20979,-16.16598 11.38208,-23.34947c5.35465,-9.21916 10.15537,-18.7463 15.14316,-28.16811c2.54289,-3.29984 5.09282,-6.59423 7.64167,-9.8895l1.40241,-0.80483c0,0 1.50793,-0.60726 2.1152,0.90068z" data-paper-data="{&quot;index&quot;:null}" fill="#000000" fill-rule="nonzero" stroke="none" stroke-width="0.5" stroke-linecap="butt"/><path d="M198.76049,34.6669c0.64118,-1.49385 2.13503,-0.85266 2.13503,-0.85266l2.91412,1.25121c7.45462,3.59302 14.82751,7.36595 22.50591,10.45561c3.96804,1.59668 7.91574,3.41263 11.95562,4.81523c8.3783,2.90885 17.51119,3.77084 26.03254,6.20953c4.40022,1.25927 8.5621,3.21635 13.18178,3.57514c0,0 1.62033,0.13124 1.48911,1.75156c-0.13122,1.62033 -1.75154,1.4891 -1.75154,1.4891c-4.85518,-0.40703 -9.18624,-2.36566 -13.8139,-3.69c-8.55979,-2.44968 -17.70934,-3.335 -26.13293,-6.24003c-4.11518,-1.41918 -8.13538,-3.26908 -12.17435,-4.89428c-7.72386,-3.10795 -15.14194,-6.8969 -22.63974,-10.51295l-2.84896,-1.2224c0,0 -1.49385,-0.64118 -0.85267,-2.13502z" data-paper-data="{&quot;index&quot;:null}" fill="#000000" fill-rule="nonzero" stroke="none" stroke-width="0.5" stroke-linecap="butt"/><path d="M277.18173,120.91641c-1,0 -1,-1 -1,-1l0.00487,-1.09644c-0.32229,-1.60461 -1.06954,-2.9832 -1.91369,-4.30561c0.00532,0.57728 0.03659,1.14313 0.11446,1.6826c1.27442,8.82859 8.55186,17.23224 15.99105,21.69492c11.60047,6.9842 23.18123,10.12405 36.73741,9.24945c6.1777,-0.39798 12.58945,-1.11914 18.09932,-4.20321c5.63234,-3.15262 10.32949,-8.40001 13.74455,-13.74702c5.24413,-11.04008 2.77854,-27.44177 -3.35163,-37.67362c-3.13982,-5.24273 -6.62944,-10.48256 -10.48566,-15.17824c-0.8387,-1.02127 -2.95907,-4.76146 -4.32271,-5.02113c-0.92863,-0.17683 -0.82447,0.68799 -0.8983,1.20218c-0.40395,2.81357 -1.18186,5.59158 -1.17568,8.42708c-1.65797,14.15978 -18.9565,18.29265 -30.6211,21.17362c-6.15435,1.51774 -12.74823,2.10248 -19.02472,2.84797c-5.02108,0.59638 -9.92748,-0.02846 -14.83884,1.37777c-0.75567,0.16809 -1.83339,-0.30735 -2.30177,0.30902c-0.4336,0.57059 1.02339,2.0549 1.46324,2.70079c0.9951,0.00326 0.9951,0.99999 0.9951,0.99999c0,0.24434 -0.00476,0.49362 -0.01243,0.74647c1.45613,2.39406 3.20956,4.60079 3.79167,7.51986l0.00487,1.29352c0,0 0,1 -1,1zM272.37046,111.59849c-0.23502,-0.38771 -0.45766,-0.78131 -0.65985,-1.185c-0.89966,-1.79625 -2.76259,-2.76781 -1.23624,-5.11934c0.16563,-0.25518 3.16044,-0.86057 3.27481,-0.88596c5.02465,-1.4322 9.9997,-0.79909 15.1229,-1.42837c6.19004,-0.76033 12.68049,-1.29865 18.75303,-2.80047c10.62072,-2.62255 27.55879,-6.3462 29.10405,-19.34928c0.00582,-2.80758 0.56889,-5.96273 1.21428,-8.71772c0.1502,-0.64117 0.15321,-1.42732 0.64232,-1.86825c0.6456,-0.58201 1.57389,-0.94079 2.44265,-0.91284c1.6533,0.0532 3.50181,3.05876 4.40776,4.15521c4.37914,5.30002 8.3411,11.08432 11.88759,17.00325c6.50126,10.85449 8.96038,27.99051 3.38571,39.67001c-3.59576,5.66912 -8.57633,11.20691 -14.53667,14.5342c-5.77487,3.22376 -12.45199,4.02483 -18.92823,4.44325c-13.95859,0.90055 -25.95252,-2.34011 -37.89776,-9.53188c-7.94954,-4.80212 -15.57558,-13.67783 -16.93894,-23.12261c-0.22132,-1.53322 -0.09784,-3.25967 -0.03742,-4.88421z" fill="#000000" fill-rule="nonzero" stroke="none" stroke-width="0.5" stroke-linecap="butt"/><path d="M278.13352,119.92967l-0.00526,-1.29504c-0.58211,-2.91907 -2.33689,-5.13539 -3.79302,-7.52946c0.00767,-0.25286 0.0124,-0.503 0.0124,-0.74735c0,0 -0.00002,-0.99791 -0.99512,-1.00117c-0.43985,-0.64589 -1.89676,-2.1332 -1.46316,-2.70379c0.46838,-0.61637 1.54613,-0.14145 2.3018,-0.30954c4.91136,-1.40624 9.81824,-0.78564 14.83932,-1.38202c6.27649,-0.74549 12.88112,-1.35426 19.03547,-2.872c11.6646,-2.88097 28.97122,-6.94255 30.6292,-21.10233c-0.00618,-2.8355 0.77572,-5.61072 1.17967,-8.42429c0.07382,-0.51419 0.02291,-1.46366 0.95154,-1.28682c1.36365,0.25967 3.4899,4.0042 4.3286,5.02547c3.85621,4.69568 7.35872,9.95261 10.49854,15.19534c6.13017,10.23184 8.59552,26.67574 3.35139,37.71581c-3.41506,5.34701 -8.12519,10.61126 -13.75752,13.76388c-5.50987,3.08407 -11.94076,3.81526 -18.11845,4.21324c-13.55618,0.87459 -25.18399,-2.27681 -36.78446,-9.26101c-7.43919,-4.46268 -14.73203,-12.89501 -16.00644,-21.72359c-0.07787,-0.53947 -0.01016,-1.11945 -0.01548,-1.69673c0.84415,1.32241 1.59045,2.69568 1.91274,4.30029l-0.00517,1.09521c0,0 -0.00039,0.99858 0.99961,0.99858c1,0 0.90381,-0.97268 0.90381,-0.97268z" data-paper-data="{&quot;noHover&quot;:false,&quot;origItem&quot;:[&quot;Path&quot;,{&quot;applyMatrix&quot;:true,&quot;segments&quot;:[[[277.18173,120.91641],[1,0],[-1,0]],[276.18173,119.91641],[[276.1866,118.81997],[0,0],[-0.32229,-1.60461]],[[274.27291,114.51436],[0.84415,1.32241],[0.00532,0.57728]],[[274.38737,116.19696],[-0.07787,-0.53947],[1.27442,8.82859]],[[290.37841,137.89189],[-7.43919,-4.46268],[11.60047,6.9842]],[[327.11582,147.14134],[-13.55618,0.87459],[6.1777,-0.39798]],[[345.21515,142.93813],[-5.50987,3.08407],[5.63234,-3.15262]],[[358.9597,129.19112],[-3.41506,5.34701],[5.24413,-11.04008]],[[355.60806,91.5175],[6.13017,10.23184],[-3.13982,-5.24273]],[[345.12241,76.33926],[3.85621,4.69568],[-0.8387,-1.02127]],[[340.79969,71.31814],[1.36365,0.25967],[-0.92863,-0.17683]],[[339.9014,72.52032],[0.07382,-0.51419],[-0.40395,2.81357]],[[338.72572,80.94739],[-0.00618,-2.8355],[-1.65797,14.15978]],[[308.10462,102.12102],[11.6646,-2.88097],[-6.15435,1.51774]],[[289.0799,104.96899],[6.27649,-0.74549],[-5.02108,0.59638]],[[274.24105,106.34676],[4.91136,-1.40624],[-0.75567,0.16809]],[[271.93928,106.65578],[0.46838,-0.61637],[-0.4336,0.57059]],[[273.40252,109.35657],[-0.43985,-0.64589],[0.9951,0.00326]],[[274.39763,110.35656],[0,0],[0,0.24434]],[[274.3852,111.10304],[0.00767,-0.25286],[1.45613,2.39406]],[[278.17687,118.62289],[-0.58211,-2.91907],[0,0]],[278.18173,119.91641]],&quot;closed&quot;:true}]}" fill="#7d0000" fill-rule="nonzero" stroke="none" stroke-width="0.5" stroke-linecap="butt"/></g></g></svg>