<svg version="1.1" xmlns="http://www.w3.org/2000/svg" xmlns:xlink="http://www.w3.org/1999/xlink" width="5838.0034" height="2817.23725" viewBox="0,0,5838.0034,2817.23725"><g transform="translate(2599.12754,1228.47326)"><g data-paper-data="{&quot;isPaintingLayer&quot;:true}" stroke-linejoin="miter" stroke-miterlimit="10" stroke-dasharray="" stroke-dashoffset="0" style="mix-blend-mode: normal"><path d="M199.54778,325.58693l31.43994,-51.16097l87.84694,-0.45679l-18.49406,51.61775z" data-paper-data="{&quot;index&quot;:null}" fill="#cedce9" fill-rule="nonzero" stroke="#000000" stroke-width="1" stroke-linecap="round"/><path d="M191.19183,324.1066c-3.03408,-0.39845 -10.25468,-1.01958 -7.0903,-1.66166c-1.73004,0.20576 -4.03817,0.45697 -5.2663,0.52454c-5.81808,0.32015 -13.35813,0 -19.36177,0c-16.47055,0 -32.4609,-0.16994 -48.40423,0.63566c-7.20522,0.36407 -9.18593,-0.76022 -11.39844,0.81289c-4.56378,2.63948 -13.1503,4.99481 -18.6661,7.65198c-7.47572,3.60127 -10.37481,7.07799 -14.9577,10.68901c-5.18603,2.97376 -0.96168,8.68333 -0.96168,11.99326c0,0.886 1.4548,2.46311 0.06534,3.11529c1.38124,0.03295 2.71533,0.06301 3.56501,0.06301c5.6472,0 11.29432,0 16.94154,0c22.46357,0 48.56337,-0.129 70.36675,-1.56064c25.88774,-1.52726 53.94513,0.66284 80.04112,-0.70795c14.29082,-0.68751 29.86867,-0.27883 44.41913,-0.274c7.38145,0.00246 13.70251,-0.73389 16.94148,0.63566c0.85132,0.35999 0,-0.84753 0,-1.2713c0,-1.05941 0,-2.11888 0,-3.17828c0,-5.93278 0,-11.86558 0,-17.79836c0,-1.40257 -1.39977,-6.42039 1.49608,-6.96335c-0.54321,-0.0085 -1.158,-0.02237 -1.49608,-0.02886c-2.99478,-0.05739 -4.66799,-0.01404 -7.00516,-0.45202c-4.05745,-0.76038 -17.74617,-0.18362 -23.24748,-0.18362c-21.37857,0 -42.75708,0 -64.13564,0c0,0 -4.8404,0 -4.8404,-1.2713c0,-0.05217 0.00812,-0.10221 0.02378,-0.15017c-2.314,-0.12882 -4.65136,-0.30747 -7.02891,-0.6197zM267.17312,323.60519c12.90519,0 29.39907,-0.60355 38.21222,1.97407c5.05027,1.47707 1.72119,6.21291 1.72119,8.19644c0,5.9328 0,11.86556 0,17.79834c0,0.67746 1.6672,4.03813 0,4.44959c-16.83971,4.15575 -48.57968,0.91511 -69.14283,2.1316c-25.51767,1.34042 -54.90437,-1.21385 -79.59178,0.6814c-22.47194,1.47555 -49.54459,1.63659 -72.71473,1.63659c-3.32351,0 -23.25473,0.66108 -25.41221,0c-6.1868,-1.89577 -4.8404,-3.47717 -4.8404,-5.72091c0,-4.05845 -2.73918,-8.89612 1.45849,-12.79732c4.6972,-3.70104 7.99126,-7.41305 15.48302,-11.02205c3.02208,-1.45581 6.28633,-3.40316 10.19182,-4.71802c2.55553,-0.86039 7.44156,-1.55943 8.05203,-2.67787c4.14104,-2.94433 11.62459,-1.9796 20.47956,-2.47446c15.76294,-0.88091 32.07463,-0.63566 48.40423,-0.63566c6.02226,0 17.78898,-0.72793 22.03739,-0.50145c7.39548,0.3943 11.68289,2.05078 18.85069,2.54262c5.25963,0.36092 10.80229,0.14727 16.94154,0.95349c0.46607,0.06122 0.93203,0.12241 1.39816,0.18362c16.15719,0 32.31449,0 48.4717,0z" data-paper-data="{&quot;index&quot;:null}" fill="#000000" fill-rule="nonzero" stroke="none" stroke-width="1" stroke-linecap="butt"/><path d="M198.28806,324.66533c-0.0157,0.04797 -0.02323,0.09803 -0.02323,0.15022c0,1.2713 4.86416,1.27348 4.86416,1.27348c21.37851,0 42.87096,0.02527 64.24961,0.02527c5.5013,0 19.20246,-0.57084 23.25993,0.18953c2.33712,0.438 4.01412,0.39679 7.00882,0.45415c0.33803,0.00649 0.95335,0.02066 1.49664,0.02919c-2.89588,0.54299 -1.48139,5.57299 -1.48139,6.97553c0,5.93279 -0.0101,11.90086 -0.0101,17.83365c0,1.05943 -0.00826,2.12402 -0.00826,3.18342c0,0.42376 0.84766,1.63317 -0.00366,1.27321c-3.23895,-1.36954 -9.56579,-0.63046 -16.94719,-0.63292c-14.55049,-0.00482 -30.1724,-0.399 -44.46317,0.28852c-26.09602,1.37079 -54.40985,-0.80699 -80.29762,0.72026c-21.80338,1.43164 -48.00911,1.53851 -70.47285,1.53851c-5.6472,0 -11.30419,-0.00399 -16.95139,-0.00399c-0.84974,0 -2.18566,-0.03085 -3.56685,-0.0638c1.38948,-0.65217 -0.07434,-2.23377 -0.07434,-3.11978c0,-3.30993 -4.24713,-9.04149 0.93901,-12.01526c4.58293,-3.61105 7.49192,-7.11188 14.96764,-10.71317c5.51591,-2.65717 14.13863,-5.03145 18.70247,-7.67091c2.2125,-1.57311 4.20822,-0.45365 11.41342,-0.81772c15.94328,-0.80557 32.03749,-0.65347 48.50792,-0.65347c6.00354,0 13.61107,0.31698 19.42915,-0.00317c1.22801,-0.0676 3.55536,-0.31878 5.28542,-0.52454c-3.16444,0.64208 4.08481,1.26396 7.11893,1.6624c2.37763,0.31223 4.7432,0.49257 7.05711,0.62138z" data-paper-data="{&quot;noHover&quot;:false,&quot;origItem&quot;:[&quot;Path&quot;,{&quot;applyMatrix&quot;:true,&quot;segments&quot;:[[[579.60736,595.76373],[0.95609,-0.20262],[0.00646,0.07548]],[[579.61718,596],[0,-0.08208],[0,2]],[[577.61718,598],[0,0],[-8.83333,0]],[[551.11718,598],[8.83333,0],[-2.27308,0]],[[541.51161,598.28885],[1.67648,-1.19621],[-0.96568,0.68904]],[[538.61718,599],[1.23739,-0.09027],[-0.13966,0.01019]],[[537.99901,599.04541],[0.22447,-0.0134],[1.19653,0.85421]],[[538.61718,610],[0,-2.20646],[0,9.33333]],[[538.61718,638],[0,-9.33333],[0,1.66667]],[[538.61718,643],[0,-1.66667],[0,0.66667]],[[538.61718,645],[-0.35177,0.56631],[1.33831,-2.15456]],[[545.61718,644],[-3.04994,0.00386],[6.01206,-0.00761]],[[563.97058,644.43107],[-5.90478,-1.08158],[10.78253,2.15651]],[[597.04254,645.54479],[-10.6965,-2.40266],[9.00888,2.25222]],[[626.11718,648],[-9.28168,0],[2.33333,0]],[[633.11718,648],[-2.33333,0],[0.35109,0]],[[634.59021,647.90091],[-0.5707,0.05184],[-0.57412,-1.02596]],[[634.61718,643],[0,1.39387],[0,-5.20707]],[[634.21982,624.13246],[2.14282,4.67827],[-1.8936,-5.6808]],[[628.03948,607.31672],[3.08887,5.66543],[-2.2791,-4.1802]],[[620.32688,595.27881],[1.8857,4.15235],[-0.91417,-2.47477]],[[615.61718,594],[2.9771,0.57275],[-6.58756,-1.26734]],[[595.61718,593],[6.8054,0],[-2.48058,0]],[[587.61718,593],[2.40395,0.50364],[-0.50743,-0.10631]],[[585.44122,592.1748],[0.71481,0.32365],[1.30749,1.01011]],[[582.51161,594.78885],[1.25365,-0.62682],[-0.98239,0.4912]]],&quot;closed&quot;:true}],&quot;index&quot;:null}" fill="#484848" fill-rule="nonzero" stroke="none" stroke-width="1" stroke-linecap="butt"/><path d="M130.43111,329.32617c0,0.42966 1.66868,0.95036 0.83698,1.29058c2.12732,0.0575 4.26723,0.18309 6.16811,0.43275c7.32921,0.96252 22.23884,4.46975 23.64471,6.78846c0.11429,0.18859 -1.95824,0.22007 -1.60726,0.38735c1.16791,0.55653 10.6856,-0.41064 11.78042,-0.25259c0.24775,0.03575 0.36944,0.09147 0.4182,0.15928c-0.05097,-0.21063 -0.09761,-0.41424 -0.09761,-0.54237c0,-0.45033 0.06776,-0.93562 -0.69902,-1.33841c-6.51783,-3.5502 -17.16685,-6.92513 -35.60405,-6.92513c0,0 -2.17575,0 -3.60988,-0.38313c-0.47825,-0.07134 -0.85017,-0.15528 -1.09948,-0.25369c-0.06407,0.24254 -0.13113,0.48942 -0.13113,0.63683zM171.57471,338.86091c0.33033,0.26027 0.23291,-0.17175 0.12313,-0.62373c-0.02295,0.19615 -0.34893,0.44586 -0.12313,0.62373zM179.53427,335.11416c6.01881,3.16155 -7.64735,7.7809 -20.0607,5.65377c-11.7121,-2.00699 -15.67808,-6.04059 -26.36679,-7.44425c-3.61099,-0.47422 -7.93791,-0.73309 -10.63542,-1.52204c-4.27474,-1.25028 -2.37981,-5.51957 5.79495,-5.51957c5.88638,0 8.78566,0.50144 14.26579,0.50144h2.42019c0,0 2.77826,0 4.12511,0.55283c14.33817,1.22928 23.5389,4.35247 30.45688,7.77779z" data-paper-data="{&quot;index&quot;:null}" fill="#000000" fill-rule="nonzero" stroke="none" stroke-width="1" stroke-linecap="butt"/><path d="M130.38261,328.64668c0.24919,0.09843 0.62129,0.18229 1.09957,0.25367c1.43412,0.38313 3.61974,0.38039 3.61974,0.38039c18.43718,0 29.47063,3.44956 35.98838,6.99977c0.76677,0.40276 0.67793,0.89692 0.67793,1.34723c0,0.12813 0.0377,0.33468 0.08867,0.54531c-0.04868,-0.06784 -0.16921,-0.12388 -0.41707,-0.15966c-1.09484,-0.15802 -10.695,0.82585 -11.86292,0.26933c-0.35101,-0.16725 1.49168,-0.31041 1.37725,-0.49903c-1.40583,-2.3187 -16.38738,-5.80815 -23.71668,-6.77064c-1.90094,-0.24965 -4.0531,-0.37008 -6.18045,-0.4276c0.83172,-0.34021 -0.81713,-0.86879 -0.81713,-1.29843c0,-0.14742 0.07821,-0.39782 0.14245,-0.64036z" data-paper-data="{&quot;noHover&quot;:false,&quot;origItem&quot;:[&quot;Path&quot;,{&quot;applyMatrix&quot;:true,&quot;segments&quot;:[[[607.563,601.99816],[0.02649,0.38155],[-0.10299,0.15484]],[[607.10872,602.39727],[0.1976,-0.11227],[-0.59254,0.60273]],[[605.61718,603],[0,0],[-7.618,0]],[[590.90604,613.89443],[2.69308,-5.58508],[-0.31682,0.63364]],[[590.61718,616],[0,-0.70843],[0,0.20156]],[[590.57685,616.85325],[0.02106,-0.33136],[0.02013,-0.10671]],[[590.74964,616.60263],[-0.10238,0.05628],[0.45234,-0.24865]],[[595.61718,617],[-0.48256,0.87548],[0.14503,-0.26312]],[[594.95308,616.3906],[-0.04725,0.29671],[0.58086,-3.64773]],[[604.72276,605.71115],[-3.02833,1.51416],[0.78545,-0.39273]],[[607.27135,605.03032],[-0.87898,0.0905],[-0.34365,-0.53523]],[[607.61718,603],[0,0.6759],[0,-0.23192]]],&quot;closed&quot;:true}],&quot;index&quot;:null}" fill="#ffffff" fill-rule="nonzero" stroke="none" stroke-width="1" stroke-linecap="butt"/><path d="M394.13771,313.34013l-18.49406,-36.48211l87.84689,0.32285l31.43998,36.15925z" fill="#cedce9" fill-rule="nonzero" stroke="#000000" stroke-width="1" stroke-linecap="round"/><path d="M503.28641,311.44426c-2.37752,0.3999 -4.71494,0.62872 -7.02889,0.7937c0.01566,0.06144 0.02377,0.12553 0.02377,0.19236c0,1.62826 -4.8404,1.62826 -4.8404,1.62826c-21.3786,0 -42.75709,0 -64.13561,0c-5.50127,0 -19.19004,-0.7387 -23.24752,0.23518c-2.33718,0.56096 -4.01038,0.50544 -7.00516,0.57894c-0.338,0.00831 -0.95283,0.02605 -1.49607,0.03698c2.89582,0.69543 1.49607,7.12217 1.49607,8.91852c0,7.59863 0,15.19726 0,22.79586c0,1.35688 0,2.71383 0,4.07069c0,0.54273 -0.85132,2.08932 0,1.62826c3.23899,-1.7541 9.56,-0.81101 16.94148,-0.81414c14.55046,-0.00619 30.12829,-0.5296 44.41908,0.35095c26.09601,1.75569 54.15334,-1.04936 80.04112,0.90673c21.80339,1.8336 47.90315,1.99884 70.36675,1.99884c5.64724,0 11.29436,0 16.94154,0c0.84966,0 2.18375,-0.03849 3.56501,-0.08069c-1.38946,-0.83529 0.06531,-2.85523 0.06531,-3.99001c0,-4.23928 4.22438,-11.552 -0.96166,-15.36076c-4.58293,-4.62497 -7.48197,-9.07785 -14.95769,-13.69031c-5.5158,-3.40325 -14.10234,-6.41993 -18.6661,-9.80052c-2.21251,-2.01481 -4.19322,-0.57483 -11.39846,-1.04114c-15.94335,-1.03179 -31.93371,-0.81414 -48.40423,-0.81414c-6.00367,0 -13.54368,0.41004 -19.36176,0c-1.22816,-0.08656 -3.53623,-0.4083 -5.2663,-0.67182c3.16435,0.82242 -4.05622,1.61791 -7.09029,2.12823zM427.30499,310.80208c16.15724,0 32.31445,0 48.47167,0c0.46614,-0.0784 0.93212,-0.15677 1.39821,-0.23516c6.13922,-1.03259 11.68192,-0.75894 16.94153,-1.22121c7.16777,-0.62997 11.4552,-2.75155 18.8507,-3.25655c4.24837,-0.29011 16.01514,0.64225 22.03738,0.64225c16.32958,0 32.6413,-0.31409 48.40425,0.81414c8.85502,0.63382 16.33854,-0.60179 20.47957,3.16925c0.6105,1.43248 5.4965,2.32782 8.05203,3.42979c3.90544,1.68408 7.16971,4.17819 10.19182,6.04276c7.49174,4.62234 10.78582,9.37663 15.48302,14.11686c4.19773,4.99662 1.45855,11.19258 1.45855,16.39056c0,2.87377 1.34641,4.89919 -4.8404,7.32724c-2.15741,0.8467 -22.08873,0 -25.41223,0c-23.17015,0 -50.24285,-0.20631 -72.71473,-2.09613c-24.68739,-2.42743 -54.07406,0.84402 -79.59173,-0.87274c-20.56319,-1.55809 -52.30316,2.5925 -69.14283,-2.73012c-1.6672,-0.52698 0,-4.83127 0,-5.69896c0,-7.59862 0,-15.19724 0,-22.79585c0,-2.54051 -3.32914,-8.60606 1.72119,-10.49787c8.81311,-3.30137 25.30699,-2.52836 38.21222,-2.52836z" data-paper-data="{&quot;index&quot;:null}" fill="#000000" fill-rule="nonzero" stroke="none" stroke-width="1" stroke-linecap="butt"/><path d="M496.19004,312.15981c2.31393,-0.16499 4.67951,-0.39595 7.05714,-0.79585c3.03404,-0.51032 10.28333,-1.30682 7.11889,-2.12919c1.73003,0.26353 4.0574,0.58525 5.28542,0.67182c5.81809,0.41004 13.42569,0.00407 19.42915,0.00407c16.47044,0 32.56464,-0.19483 48.50793,0.83695c7.20524,0.46629 9.20098,-0.9675 11.4135,1.04731c4.5638,3.38055 13.18658,6.42152 18.70247,9.82476c7.47572,4.61242 10.38476,9.09624 14.96765,13.72118c5.1861,3.80878 0.93895,11.14966 0.93895,15.38896c0,1.13477 -1.46382,3.16047 -0.07434,3.99576c-1.38118,0.04219 -2.71709,0.08171 -3.56683,0.08171c-5.6472,0 -11.30422,0.0051 -16.9514,0.0051c-22.46373,0 -48.66947,-0.13689 -70.47285,-1.97052c-25.88778,-1.9561 -54.20159,0.83316 -80.29762,-0.92254c-14.29079,-0.88058 -29.91269,-0.37572 -44.46316,-0.36953c-7.38145,0.00314 -13.7082,-0.94344 -16.94719,0.81065c-0.85133,0.46108 -0.00366,-1.08794 -0.00366,-1.63069c0,-1.35688 -0.0083,-2.72042 -0.0083,-4.07727c0,-7.59863 -0.01007,-15.24243 -0.01007,-22.84105c0,-1.79635 1.41449,-8.23871 -1.4814,-8.93413c0.54331,-0.01094 1.15857,-0.0291 1.49664,-0.03741c2.99467,-0.0735 4.6717,-0.0207 7.00882,-0.58167c4.05745,-0.97388 17.75863,-0.24275 23.25993,-0.24275c21.37863,0 42.87108,-0.03238 64.24961,-0.03238c0,0 4.86416,-0.00279 4.86416,-1.63105c0,-0.06684 -0.00753,-0.13095 -0.02322,-0.1924z" data-paper-data="{&quot;noHover&quot;:false,&quot;origItem&quot;:[&quot;Path&quot;,{&quot;applyMatrix&quot;:true,&quot;segments&quot;:[[[579.60736,595.76373],[0.95609,-0.20262],[0.00646,0.07548]],[[579.61718,596],[0,-0.08208],[0,2]],[[577.61718,598],[0,0],[-8.83333,0]],[[551.11718,598],[8.83333,0],[-2.27308,0]],[[541.51161,598.28885],[1.67648,-1.19621],[-0.96568,0.68904]],[[538.61718,599],[1.23739,-0.09027],[-0.13966,0.01019]],[[537.99901,599.04541],[0.22447,-0.0134],[1.19653,0.85421]],[[538.61718,610],[0,-2.20646],[0,9.33333]],[[538.61718,638],[0,-9.33333],[0,1.66667]],[[538.61718,643],[0,-1.66667],[0,0.66667]],[[538.61718,645],[-0.35177,0.56631],[1.33831,-2.15456]],[[545.61718,644],[-3.04994,0.00386],[6.01206,-0.00761]],[[563.97058,644.43107],[-5.90478,-1.08158],[10.78253,2.15651]],[[597.04254,645.54479],[-10.6965,-2.40266],[9.00888,2.25222]],[[626.11718,648],[-9.28168,0],[2.33333,0]],[[633.11718,648],[-2.33333,0],[0.35109,0]],[[634.59021,647.90091],[-0.5707,0.05184],[-0.57412,-1.02596]],[[634.61718,643],[0,1.39387],[0,-5.20707]],[[634.21982,624.13246],[2.14282,4.67827],[-1.8936,-5.6808]],[[628.03948,607.31672],[3.08887,5.66543],[-2.2791,-4.1802]],[[620.32688,595.27881],[1.8857,4.15235],[-0.91417,-2.47477]],[[615.61718,594],[2.9771,0.57275],[-6.58756,-1.26734]],[[595.61718,593],[6.8054,0],[-2.48058,0]],[[587.61718,593],[2.40395,0.50364],[-0.50743,-0.10631]],[[585.44122,592.1748],[0.71481,0.32365],[1.30749,1.01011]],[[582.51161,594.78885],[1.25365,-0.62682],[-0.98239,0.4912]]],&quot;closed&quot;:true}],&quot;index&quot;:null}" fill="#484848" fill-rule="nonzero" stroke="none" stroke-width="1" stroke-linecap="butt"/><path d="M564.0472,318.12917c0,-0.1888 -0.06699,-0.505 -0.13109,-0.81563c-0.24932,0.12605 -0.62119,0.2335 -1.09948,0.32492c-1.43415,0.49069 -3.60987,0.49071 -3.60987,0.49071c-18.43723,0 -29.08631,4.32258 -35.6041,8.86959c-0.76678,0.5159 -0.69902,1.13746 -0.69902,1.71421c0,0.16409 -0.04671,0.4249 -0.09767,0.69466c0.04872,-0.08681 0.17046,-0.15818 0.41823,-0.204c1.09478,-0.20243 10.61251,1.03629 11.78043,0.32351c0.35102,-0.21419 -1.72151,-0.25457 -1.60723,-0.49614c1.40583,-2.96978 16.31545,-7.4618 23.64468,-8.69454c1.90095,-0.31973 4.04079,-0.48059 6.16812,-0.55426c-0.83172,-0.43572 0.83697,-1.10268 0.83697,-1.65295zM522.78036,329.5424c-0.10978,0.57889 -0.20722,1.13223 0.12314,0.79885c0.22582,-0.2278 -0.10018,-0.54761 -0.12314,-0.79885zM514.94386,325.54233c6.91796,-4.38709 16.11868,-8.38724 30.45688,-9.96167c1.34692,-0.70806 4.12514,-0.70806 4.12514,-0.70806h2.42019c5.48011,0 8.37942,-0.6422 14.26579,-0.6422c8.17475,0 10.06969,5.46809 5.79493,7.06939c-2.69752,1.01049 -7.02439,1.34203 -10.63541,1.9494c-10.68865,1.79778 -14.65469,6.96395 -26.36679,9.53446c-12.41337,2.72442 -26.07952,-3.19197 -20.06076,-7.24127z" data-paper-data="{&quot;index&quot;:null}" fill="#000000" fill-rule="nonzero" stroke="none" stroke-width="1" stroke-linecap="butt"/><path d="M564.09593,317.25906c0.06424,0.31062 0.14245,0.63134 0.14245,0.82014c0,0.55028 -1.64882,1.22725 -0.81712,1.66302c-2.12734,0.07365 -4.27951,0.22788 -6.18048,0.54764c-7.32931,1.23277 -22.3109,5.70199 -23.71668,8.67175c-0.11442,0.24157 1.72828,0.42489 1.37725,0.63914c-1.16792,0.71276 -10.76806,-0.54738 -11.8629,-0.34495c-0.24785,0.04584 -0.36838,0.11761 -0.41706,0.20449c0.05098,-0.26978 0.08868,-0.5343 0.08868,-0.69841c0,-0.57675 -0.08887,-1.20964 0.67794,-1.72552c6.51772,-4.54703 17.5512,-8.96518 35.98839,-8.96518c0,0 2.1856,0.0035 3.61973,-0.4872c0.47826,-0.09144 0.8504,-0.19887 1.09958,-0.32492z" data-paper-data="{&quot;noHover&quot;:false,&quot;origItem&quot;:[&quot;Path&quot;,{&quot;applyMatrix&quot;:true,&quot;segments&quot;:[[[607.563,601.99816],[0.02649,0.38155],[-0.10299,0.15484]],[[607.10872,602.39727],[0.1976,-0.11227],[-0.59254,0.60273]],[[605.61718,603],[0,0],[-7.618,0]],[[590.90604,613.89443],[2.69308,-5.58508],[-0.31682,0.63364]],[[590.61718,616],[0,-0.70843],[0,0.20156]],[[590.57685,616.85325],[0.02106,-0.33136],[0.02013,-0.10671]],[[590.74964,616.60263],[-0.10238,0.05628],[0.45234,-0.24865]],[[595.61718,617],[-0.48256,0.87548],[0.14503,-0.26312]],[[594.95308,616.3906],[-0.04725,0.29671],[0.58086,-3.64773]],[[604.72276,605.71115],[-3.02833,1.51416],[0.78545,-0.39273]],[[607.27135,605.03032],[-0.87898,0.0905],[-0.34365,-0.53523]],[[607.61718,603],[0,0.6759],[0,-0.23192]]],&quot;closed&quot;:true}],&quot;index&quot;:null}" fill="#ffffff" fill-rule="nonzero" stroke="none" stroke-width="1" stroke-linecap="butt"/><path d="M294.12901,280.86566c11.09186,-0.08446 22.18269,0 33.27199,0.25595c1.07749,6.03503 2.01424,12.09053 2.81533,18.17163c-0.36599,-0.09725 -0.57842,-0.3532 -0.63985,-0.76782c-0.89578,-5.72022 -1.79156,-11.43532 -2.68736,-17.14787c-11.00868,0.16893 -21.9288,-0.00256 -32.76011,-0.51187z" fill="#000000" fill-rule="evenodd" stroke="none" stroke-width="1" stroke-linecap="butt"/><path d="M-546.54655,598.16817v-836.33634h1733.09309v836.33634z" fill="none" fill-rule="nonzero" stroke="#f00000" stroke-width="0" stroke-linecap="butt"/><path d="M-546.54655,598.16817v-836.33634h1733.09309v836.33634z" fill="none" fill-rule="nonzero" stroke="#f00000" stroke-width="0" stroke-linecap="butt"/><path d="M199.54775,325.58694l31.43994,-51.16097l87.84694,-0.45679l-18.49406,51.61775z" data-paper-data="{&quot;index&quot;:null}" fill="#cedce9" fill-rule="nonzero" stroke="#000000" stroke-width="1" stroke-linecap="round"/><path d="M191.19183,324.10661c-3.03408,-0.39845 -10.25468,-1.01958 -7.0903,-1.66166c-1.73004,0.20576 -4.03817,0.45697 -5.2663,0.52454c-5.81808,0.32015 -13.35813,0 -19.36177,0c-16.47055,0 -32.4609,-0.16994 -48.40423,0.63566c-7.20522,0.36407 -9.18593,-0.76022 -11.39844,0.81289c-4.56378,2.63948 -13.1503,4.99481 -18.6661,7.65198c-7.47572,3.60127 -10.37481,7.07799 -14.9577,10.68901c-5.18603,2.97376 -0.96168,8.68333 -0.96168,11.99326c0,0.886 1.4548,2.46311 0.06534,3.11529c1.38124,0.03295 2.71533,0.06301 3.56501,0.06301c5.6472,0 11.29432,0 16.94154,0c22.46357,0 48.56337,-0.129 70.36675,-1.56064c25.88774,-1.52726 53.94513,0.66284 80.04112,-0.70795c14.29082,-0.68751 29.86867,-0.27883 44.41913,-0.274c7.38145,0.00246 13.70251,-0.73389 16.94148,0.63566c0.85132,0.35999 0,-0.84753 0,-1.2713c0,-1.05941 0,-2.11888 0,-3.17828c0,-5.93278 0,-11.86558 0,-17.79836c0,-1.40257 -1.39977,-6.42039 1.49608,-6.96335c-0.54321,-0.0085 -1.158,-0.02237 -1.49608,-0.02886c-2.99478,-0.05739 -4.66799,-0.01404 -7.00516,-0.45202c-4.05745,-0.76038 -17.74617,-0.18362 -23.24748,-0.18362c-21.37857,0 -42.75708,0 -64.13564,0c0,0 -4.8404,0 -4.8404,-1.2713c0,-0.05217 0.00812,-0.10221 0.02378,-0.15017c-2.314,-0.12882 -4.65136,-0.30747 -7.02891,-0.6197zM267.17311,323.60519c12.90519,0 29.39907,-0.60355 38.21222,1.97407c5.05027,1.47707 1.72119,6.21291 1.72119,8.19644c0,5.9328 0,11.86556 0,17.79834c0,0.67746 1.6672,4.03813 0,4.44959c-16.83971,4.15575 -48.57968,0.91511 -69.14283,2.1316c-25.51767,1.34042 -54.90437,-1.21385 -79.59178,0.6814c-22.47194,1.47555 -49.54459,1.63659 -72.71473,1.63659c-3.32351,0 -23.25473,0.66108 -25.41221,0c-6.1868,-1.89577 -4.8404,-3.47717 -4.8404,-5.72091c0,-4.05845 -2.73918,-8.89612 1.45849,-12.79732c4.6972,-3.70104 7.99126,-7.41305 15.48302,-11.02205c3.02208,-1.45581 6.28633,-3.40316 10.19182,-4.71802c2.55553,-0.86039 7.44156,-1.55943 8.05203,-2.67787c4.14104,-2.94433 11.62459,-1.9796 20.47956,-2.47446c15.76294,-0.88091 32.07463,-0.63566 48.40423,-0.63566c6.02226,0 17.78898,-0.72793 22.03739,-0.50145c7.39548,0.3943 11.68289,2.05078 18.85069,2.54262c5.25963,0.36092 10.80229,0.14727 16.94154,0.95349c0.46607,0.06122 0.93203,0.12241 1.39816,0.18362c16.15719,0 32.31449,0 48.4717,0z" data-paper-data="{&quot;index&quot;:null}" fill="#000000" fill-rule="nonzero" stroke="none" stroke-width="1" stroke-linecap="butt"/><path d="M198.28806,324.66534c-0.0157,0.04797 -0.02323,0.09803 -0.02323,0.15022c0,1.2713 4.86416,1.27348 4.86416,1.27348c21.37851,0 42.87096,0.02527 64.24961,0.02527c5.5013,0 19.20246,-0.57084 23.25993,0.18953c2.33712,0.438 4.01412,0.39679 7.00882,0.45415c0.33803,0.00649 0.95335,0.02066 1.49664,0.02919c-2.89588,0.54299 -1.48139,5.57299 -1.48139,6.97553c0,5.93279 -0.0101,11.90086 -0.0101,17.83365c0,1.05943 -0.00826,2.12402 -0.00826,3.18342c0,0.42376 0.84766,1.63317 -0.00366,1.27321c-3.23895,-1.36954 -9.56579,-0.63046 -16.94719,-0.63292c-14.55049,-0.00482 -30.1724,-0.399 -44.46317,0.28852c-26.09602,1.37079 -54.40985,-0.80699 -80.29762,0.72026c-21.80338,1.43164 -48.00911,1.53851 -70.47285,1.53851c-5.6472,0 -11.30419,-0.00399 -16.95139,-0.00399c-0.84974,0 -2.18566,-0.03085 -3.56685,-0.0638c1.38948,-0.65217 -0.07434,-2.23377 -0.07434,-3.11978c0,-3.30993 -4.24713,-9.04149 0.93901,-12.01526c4.58293,-3.61105 7.49192,-7.11188 14.96764,-10.71317c5.51591,-2.65717 14.13863,-5.03145 18.70247,-7.67091c2.2125,-1.57311 4.20822,-0.45365 11.41342,-0.81772c15.94328,-0.80557 32.03749,-0.65347 48.50792,-0.65347c6.00354,0 13.61107,0.31698 19.42915,-0.00317c1.22801,-0.0676 3.55536,-0.31878 5.28542,-0.52454c-3.16444,0.64208 4.08481,1.26396 7.11893,1.6624c2.37763,0.31223 4.7432,0.49257 7.05711,0.62138z" data-paper-data="{&quot;noHover&quot;:false,&quot;origItem&quot;:[&quot;Path&quot;,{&quot;applyMatrix&quot;:true,&quot;segments&quot;:[[[579.60736,595.76373],[0.95609,-0.20262],[0.00646,0.07548]],[[579.61718,596],[0,-0.08208],[0,2]],[[577.61718,598],[0,0],[-8.83333,0]],[[551.11718,598],[8.83333,0],[-2.27308,0]],[[541.51161,598.28885],[1.67648,-1.19621],[-0.96568,0.68904]],[[538.61718,599],[1.23739,-0.09027],[-0.13966,0.01019]],[[537.99901,599.04541],[0.22447,-0.0134],[1.19653,0.85421]],[[538.61718,610],[0,-2.20646],[0,9.33333]],[[538.61718,638],[0,-9.33333],[0,1.66667]],[[538.61718,643],[0,-1.66667],[0,0.66667]],[[538.61718,645],[-0.35177,0.56631],[1.33831,-2.15456]],[[545.61718,644],[-3.04994,0.00386],[6.01206,-0.00761]],[[563.97058,644.43107],[-5.90478,-1.08158],[10.78253,2.15651]],[[597.04254,645.54479],[-10.6965,-2.40266],[9.00888,2.25222]],[[626.11718,648],[-9.28168,0],[2.33333,0]],[[633.11718,648],[-2.33333,0],[0.35109,0]],[[634.59021,647.90091],[-0.5707,0.05184],[-0.57412,-1.02596]],[[634.61718,643],[0,1.39387],[0,-5.20707]],[[634.21982,624.13246],[2.14282,4.67827],[-1.8936,-5.6808]],[[628.03948,607.31672],[3.08887,5.66543],[-2.2791,-4.1802]],[[620.32688,595.27881],[1.8857,4.15235],[-0.91417,-2.47477]],[[615.61718,594],[2.9771,0.57275],[-6.58756,-1.26734]],[[595.61718,593],[6.8054,0],[-2.48058,0]],[[587.61718,593],[2.40395,0.50364],[-0.50743,-0.10631]],[[585.44122,592.1748],[0.71481,0.32365],[1.30749,1.01011]],[[582.51161,594.78885],[1.25365,-0.62682],[-0.98239,0.4912]]],&quot;closed&quot;:true}],&quot;index&quot;:null}" fill="#484848" fill-rule="nonzero" stroke="none" stroke-width="1" stroke-linecap="butt"/><path d="M130.43109,329.32617c0,0.42966 1.66868,0.95036 0.83698,1.29058c2.12732,0.0575 4.26723,0.18309 6.16811,0.43275c7.32921,0.96252 22.23884,4.46975 23.64471,6.78846c0.11429,0.18859 -1.95824,0.22007 -1.60726,0.38735c1.16791,0.55653 10.6856,-0.41064 11.78042,-0.25259c0.24775,0.03575 0.36944,0.09147 0.4182,0.15928c-0.05097,-0.21063 -0.09761,-0.41424 -0.09761,-0.54237c0,-0.45033 0.06776,-0.93562 -0.69902,-1.33841c-6.51783,-3.5502 -17.16685,-6.92513 -35.60405,-6.92513c0,0 -2.17575,0 -3.60988,-0.38313c-0.47825,-0.07134 -0.85017,-0.15528 -1.09948,-0.25369c-0.06407,0.24254 -0.13113,0.48942 -0.13113,0.63683zM171.5747,338.86092c0.33033,0.26027 0.23291,-0.17175 0.12313,-0.62373c-0.02295,0.19615 -0.34893,0.44586 -0.12313,0.62373zM179.53427,335.11417c6.01881,3.16155 -7.64735,7.7809 -20.0607,5.65377c-11.7121,-2.00699 -15.67808,-6.04059 -26.36679,-7.44425c-3.61099,-0.47422 -7.93791,-0.73309 -10.63542,-1.52204c-4.27474,-1.25028 -2.37981,-5.51957 5.79495,-5.51957c5.88638,0 8.78566,0.50144 14.26579,0.50144h2.42019c0,0 2.77826,0 4.12511,0.55283c14.33817,1.22928 23.5389,4.35247 30.45688,7.77779z" data-paper-data="{&quot;index&quot;:null}" fill="#000000" fill-rule="nonzero" stroke="none" stroke-width="1" stroke-linecap="butt"/><path d="M130.38261,328.64669c0.24919,0.09843 0.62129,0.18229 1.09957,0.25367c1.43412,0.38313 3.61974,0.38039 3.61974,0.38039c18.43718,0 29.47063,3.44956 35.98838,6.99977c0.76677,0.40276 0.67793,0.89692 0.67793,1.34723c0,0.12813 0.0377,0.33468 0.08867,0.54531c-0.04868,-0.06784 -0.16921,-0.12388 -0.41707,-0.15966c-1.09484,-0.15802 -10.695,0.82585 -11.86292,0.26933c-0.35101,-0.16725 1.49168,-0.31041 1.37725,-0.49903c-1.40583,-2.3187 -16.38738,-5.80815 -23.71668,-6.77064c-1.90094,-0.24965 -4.0531,-0.37008 -6.18045,-0.4276c0.83172,-0.34021 -0.81713,-0.86879 -0.81713,-1.29843c0,-0.14742 0.07821,-0.39782 0.14245,-0.64036z" data-paper-data="{&quot;noHover&quot;:false,&quot;origItem&quot;:[&quot;Path&quot;,{&quot;applyMatrix&quot;:true,&quot;segments&quot;:[[[607.563,601.99816],[0.02649,0.38155],[-0.10299,0.15484]],[[607.10872,602.39727],[0.1976,-0.11227],[-0.59254,0.60273]],[[605.61718,603],[0,0],[-7.618,0]],[[590.90604,613.89443],[2.69308,-5.58508],[-0.31682,0.63364]],[[590.61718,616],[0,-0.70843],[0,0.20156]],[[590.57685,616.85325],[0.02106,-0.33136],[0.02013,-0.10671]],[[590.74964,616.60263],[-0.10238,0.05628],[0.45234,-0.24865]],[[595.61718,617],[-0.48256,0.87548],[0.14503,-0.26312]],[[594.95308,616.3906],[-0.04725,0.29671],[0.58086,-3.64773]],[[604.72276,605.71115],[-3.02833,1.51416],[0.78545,-0.39273]],[[607.27135,605.03032],[-0.87898,0.0905],[-0.34365,-0.53523]],[[607.61718,603],[0,0.6759],[0,-0.23192]]],&quot;closed&quot;:true}],&quot;index&quot;:null}" fill="#ffffff" fill-rule="nonzero" stroke="none" stroke-width="1" stroke-linecap="butt"/><path d="M394.13767,313.34015l-18.49406,-36.48211l87.84689,0.32285l31.43998,36.15925z" fill="#cedce9" fill-rule="nonzero" stroke="#000000" stroke-width="1" stroke-linecap="round"/><path d="M503.2864,311.44426c-2.37752,0.3999 -4.71494,0.62872 -7.02889,0.7937c0.01566,0.06144 0.02377,0.12553 0.02377,0.19236c0,1.62826 -4.8404,1.62826 -4.8404,1.62826c-21.3786,0 -42.75709,0 -64.13561,0c-5.50127,0 -19.19004,-0.7387 -23.24752,0.23518c-2.33718,0.56096 -4.01038,0.50544 -7.00516,0.57894c-0.338,0.00831 -0.95283,0.02605 -1.49607,0.03698c2.89582,0.69543 1.49607,7.12217 1.49607,8.91852c0,7.59863 0,15.19726 0,22.79586c0,1.35688 0,2.71383 0,4.07069c0,0.54273 -0.85132,2.08932 0,1.62826c3.23899,-1.7541 9.56,-0.81101 16.94148,-0.81414c14.55046,-0.00619 30.12829,-0.5296 44.41908,0.35095c26.09601,1.75569 54.15334,-1.04936 80.04112,0.90673c21.80339,1.8336 47.90315,1.99884 70.36675,1.99884c5.64724,0 11.29436,0 16.94154,0c0.84966,0 2.18375,-0.03849 3.56501,-0.08069c-1.38946,-0.83529 0.06531,-2.85523 0.06531,-3.99001c0,-4.23928 4.22438,-11.552 -0.96166,-15.36076c-4.58293,-4.62497 -7.48197,-9.07785 -14.95769,-13.69031c-5.5158,-3.40325 -14.10234,-6.41993 -18.6661,-9.80052c-2.21251,-2.01481 -4.19322,-0.57483 -11.39846,-1.04114c-15.94335,-1.03179 -31.93371,-0.81414 -48.40423,-0.81414c-6.00367,0 -13.54368,0.41004 -19.36176,0c-1.22816,-0.08656 -3.53623,-0.4083 -5.2663,-0.67182c3.16435,0.82242 -4.05622,1.61791 -7.09029,2.12823zM427.30499,310.80208c16.15724,0 32.31445,0 48.47167,0c0.46614,-0.0784 0.93212,-0.15677 1.39821,-0.23516c6.13922,-1.03259 11.68192,-0.75894 16.94153,-1.22121c7.16777,-0.62997 11.4552,-2.75155 18.8507,-3.25655c4.24837,-0.29011 16.01514,0.64225 22.03738,0.64225c16.32958,0 32.6413,-0.31409 48.40425,0.81414c8.85502,0.63382 16.33854,-0.60179 20.47957,3.16925c0.6105,1.43248 5.4965,2.32782 8.05203,3.42979c3.90544,1.68408 7.16971,4.17819 10.19182,6.04276c7.49174,4.62234 10.78582,9.37663 15.48302,14.11686c4.19773,4.99662 1.45855,11.19258 1.45855,16.39056c0,2.87377 1.34641,4.89919 -4.8404,7.32724c-2.15741,0.8467 -22.08873,0 -25.41223,0c-23.17015,0 -50.24285,-0.20631 -72.71473,-2.09613c-24.68739,-2.42743 -54.07406,0.84402 -79.59173,-0.87274c-20.56319,-1.55809 -52.30316,2.5925 -69.14283,-2.73012c-1.6672,-0.52698 0,-4.83127 0,-5.69896c0,-7.59862 0,-15.19724 0,-22.79585c0,-2.54051 -3.32914,-8.60606 1.72119,-10.49787c8.81311,-3.30137 25.30699,-2.52836 38.21222,-2.52836z" data-paper-data="{&quot;index&quot;:null}" fill="#000000" fill-rule="nonzero" stroke="none" stroke-width="1" stroke-linecap="butt"/><path d="M496.19,312.15983c2.31393,-0.16499 4.67951,-0.39595 7.05714,-0.79585c3.03404,-0.51032 10.28333,-1.30682 7.11889,-2.12919c1.73003,0.26353 4.0574,0.58525 5.28542,0.67182c5.81809,0.41004 13.42569,0.00407 19.42915,0.00407c16.47044,0 32.56464,-0.19483 48.50793,0.83695c7.20524,0.46629 9.20098,-0.9675 11.4135,1.04731c4.5638,3.38055 13.18658,6.42152 18.70247,9.82476c7.47572,4.61242 10.38476,9.09624 14.96765,13.72118c5.1861,3.80878 0.93895,11.14966 0.93895,15.38896c0,1.13477 -1.46382,3.16047 -0.07434,3.99576c-1.38118,0.04219 -2.71709,0.08171 -3.56683,0.08171c-5.6472,0 -11.30422,0.0051 -16.9514,0.0051c-22.46373,0 -48.66947,-0.13689 -70.47285,-1.97052c-25.88778,-1.9561 -54.20159,0.83316 -80.29762,-0.92254c-14.29079,-0.88058 -29.91269,-0.37572 -44.46316,-0.36953c-7.38145,0.00314 -13.7082,-0.94344 -16.94719,0.81065c-0.85133,0.46108 -0.00366,-1.08794 -0.00366,-1.63069c0,-1.35688 -0.0083,-2.72042 -0.0083,-4.07727c0,-7.59863 -0.01007,-15.24243 -0.01007,-22.84105c0,-1.79635 1.41449,-8.23871 -1.4814,-8.93413c0.54331,-0.01094 1.15857,-0.0291 1.49664,-0.03741c2.99467,-0.0735 4.6717,-0.0207 7.00882,-0.58167c4.05745,-0.97388 17.75863,-0.24275 23.25993,-0.24275c21.37863,0 42.87108,-0.03238 64.24961,-0.03238c0,0 4.86416,-0.00279 4.86416,-1.63105c0,-0.06684 -0.00753,-0.13095 -0.02322,-0.1924z" data-paper-data="{&quot;noHover&quot;:false,&quot;origItem&quot;:[&quot;Path&quot;,{&quot;applyMatrix&quot;:true,&quot;segments&quot;:[[[579.60736,595.76373],[0.95609,-0.20262],[0.00646,0.07548]],[[579.61718,596],[0,-0.08208],[0,2]],[[577.61718,598],[0,0],[-8.83333,0]],[[551.11718,598],[8.83333,0],[-2.27308,0]],[[541.51161,598.28885],[1.67648,-1.19621],[-0.96568,0.68904]],[[538.61718,599],[1.23739,-0.09027],[-0.13966,0.01019]],[[537.99901,599.04541],[0.22447,-0.0134],[1.19653,0.85421]],[[538.61718,610],[0,-2.20646],[0,9.33333]],[[538.61718,638],[0,-9.33333],[0,1.66667]],[[538.61718,643],[0,-1.66667],[0,0.66667]],[[538.61718,645],[-0.35177,0.56631],[1.33831,-2.15456]],[[545.61718,644],[-3.04994,0.00386],[6.01206,-0.00761]],[[563.97058,644.43107],[-5.90478,-1.08158],[10.78253,2.15651]],[[597.04254,645.54479],[-10.6965,-2.40266],[9.00888,2.25222]],[[626.11718,648],[-9.28168,0],[2.33333,0]],[[633.11718,648],[-2.33333,0],[0.35109,0]],[[634.59021,647.90091],[-0.5707,0.05184],[-0.57412,-1.02596]],[[634.61718,643],[0,1.39387],[0,-5.20707]],[[634.21982,624.13246],[2.14282,4.67827],[-1.8936,-5.6808]],[[628.03948,607.31672],[3.08887,5.66543],[-2.2791,-4.1802]],[[620.32688,595.27881],[1.8857,4.15235],[-0.91417,-2.47477]],[[615.61718,594],[2.9771,0.57275],[-6.58756,-1.26734]],[[595.61718,593],[6.8054,0],[-2.48058,0]],[[587.61718,593],[2.40395,0.50364],[-0.50743,-0.10631]],[[585.44122,592.1748],[0.71481,0.32365],[1.30749,1.01011]],[[582.51161,594.78885],[1.25365,-0.62682],[-0.98239,0.4912]]],&quot;closed&quot;:true}],&quot;index&quot;:null}" fill="#484848" fill-rule="nonzero" stroke="none" stroke-width="1" stroke-linecap="butt"/><path d="M564.04718,318.12919c0,-0.1888 -0.06699,-0.505 -0.13109,-0.81563c-0.24932,0.12605 -0.62119,0.2335 -1.09948,0.32492c-1.43415,0.49069 -3.60987,0.49071 -3.60987,0.49071c-18.43723,0 -29.08631,4.32258 -35.6041,8.86959c-0.76678,0.5159 -0.69902,1.13746 -0.69902,1.71421c0,0.16409 -0.04671,0.4249 -0.09767,0.69466c0.04872,-0.08681 0.17046,-0.15818 0.41823,-0.204c1.09478,-0.20243 10.61251,1.03629 11.78043,0.32351c0.35102,-0.21419 -1.72151,-0.25457 -1.60723,-0.49614c1.40583,-2.96978 16.31545,-7.4618 23.64468,-8.69454c1.90095,-0.31973 4.04079,-0.48059 6.16812,-0.55426c-0.83172,-0.43572 0.83697,-1.10268 0.83697,-1.65295zM522.78036,329.54242c-0.10978,0.57889 -0.20722,1.13223 0.12314,0.79885c0.22582,-0.2278 -0.10018,-0.54761 -0.12314,-0.79885zM514.94386,325.54235c6.91796,-4.38709 16.11868,-8.38724 30.45688,-9.96167c1.34692,-0.70806 4.12514,-0.70806 4.12514,-0.70806h2.42019c5.48011,0 8.37942,-0.6422 14.26579,-0.6422c8.17475,0 10.06969,5.46809 5.79493,7.06939c-2.69752,1.01049 -7.02439,1.34203 -10.63541,1.9494c-10.68865,1.79778 -14.65469,6.96395 -26.36679,9.53446c-12.41337,2.72442 -26.07952,-3.19197 -20.06076,-7.24127z" data-paper-data="{&quot;index&quot;:null}" fill="#000000" fill-rule="nonzero" stroke="none" stroke-width="1" stroke-linecap="butt"/><path d="M564.09592,317.25907c0.06424,0.31062 0.14245,0.63134 0.14245,0.82014c0,0.55028 -1.64882,1.22725 -0.81712,1.66302c-2.12734,0.07365 -4.27951,0.22788 -6.18048,0.54764c-7.32931,1.23277 -22.3109,5.70199 -23.71668,8.67175c-0.11442,0.24157 1.72828,0.42489 1.37725,0.63914c-1.16792,0.71276 -10.76806,-0.54738 -11.8629,-0.34495c-0.24785,0.04584 -0.36838,0.11761 -0.41706,0.20449c0.05098,-0.26978 0.08868,-0.5343 0.08868,-0.69841c0,-0.57675 -0.08887,-1.20964 0.67794,-1.72552c6.51772,-4.54703 17.5512,-8.96518 35.98839,-8.96518c0,0 2.1856,0.0035 3.61973,-0.4872c0.47826,-0.09144 0.8504,-0.19887 1.09958,-0.32492z" data-paper-data="{&quot;noHover&quot;:false,&quot;origItem&quot;:[&quot;Path&quot;,{&quot;applyMatrix&quot;:true,&quot;segments&quot;:[[[607.563,601.99816],[0.02649,0.38155],[-0.10299,0.15484]],[[607.10872,602.39727],[0.1976,-0.11227],[-0.59254,0.60273]],[[605.61718,603],[0,0],[-7.618,0]],[[590.90604,613.89443],[2.69308,-5.58508],[-0.31682,0.63364]],[[590.61718,616],[0,-0.70843],[0,0.20156]],[[590.57685,616.85325],[0.02106,-0.33136],[0.02013,-0.10671]],[[590.74964,616.60263],[-0.10238,0.05628],[0.45234,-0.24865]],[[595.61718,617],[-0.48256,0.87548],[0.14503,-0.26312]],[[594.95308,616.3906],[-0.04725,0.29671],[0.58086,-3.64773]],[[604.72276,605.71115],[-3.02833,1.51416],[0.78545,-0.39273]],[[607.27135,605.03032],[-0.87898,0.0905],[-0.34365,-0.53523]],[[607.61718,603],[0,0.6759],[0,-0.23192]]],&quot;closed&quot;:true}],&quot;index&quot;:null}" fill="#ffffff" fill-rule="nonzero" stroke="none" stroke-width="1" stroke-linecap="butt"/><path d="M294.12901,280.86566c11.09186,-0.08446 22.18269,0 33.27199,0.25595c1.07749,6.03503 2.01424,12.09053 2.81533,18.17163c-0.36599,-0.09725 -0.57842,-0.3532 -0.63985,-0.76782c-0.89578,-5.72022 -1.79156,-11.43532 -2.68736,-17.14787c-11.00868,0.16893 -21.9288,-0.00256 -32.76011,-0.51187z" fill="#000000" fill-rule="evenodd" stroke="none" stroke-width="1" stroke-linecap="butt"/><g><path d="M323.07544,-28.79615l-67.10101,-308.4077l198.75007,252.92541z" fill="#ffffff" fill-rule="nonzero" stroke="#000000" stroke-width="0.5" stroke-linecap="round"/><path d="M28.99852,175.33344l-67.10101,-308.4077l198.75007,252.92541z" fill="#ffffff" fill-rule="nonzero" stroke="#000000" stroke-width="0.5" stroke-linecap="round"/><g><path d="M76.9018,260.58072c12.76477,-1.56318 25.55067,-2.93165 38.35749,-4.1024c2.03867,6.80892 3.91794,13.66003 5.64434,20.55854c-0.43441,-0.06365 -0.71292,-0.33038 -0.83847,-0.79984c-1.78777,-6.47034 -3.57486,-12.93477 -5.36163,-19.39626c-12.65779,1.64947 -25.25858,2.89515 -37.80171,3.73997z" fill="#000000" fill-rule="evenodd" stroke="none" stroke-width="1" stroke-linecap="butt"/><g fill-rule="nonzero" stroke="#000000" stroke-width="1" stroke-linecap="round"><path d="M16.86924,346.44824l-17.10157,-177.03942l165.3437,-59.23753l4.09393,40.94133l58.77685,-1.66712l64.55338,-16.07845l-23.98338,-157.14036l277.92505,-92.7493l79.80753,425.18882l-7.6672,1.51851l-362.08518,28.538l-62.05225,17.03127l-170.97091,-7.56384z" fill="#a6aaa2"/><path d="M12.33208,321.40243l174.47112,-12.60151l57.86632,-7.10763l-15.35974,-153.60524l64.62543,-14.38993l289.49534,-59.22755l42.99881,236.21131l-369.17582,27.66671l-66.80581,19.01226l-173.89957,4.00249z" fill="#4d3e45"/><path d="M374.18527,329.51745l-40.13618,-346.3258l11.77397,-23.19879l70.51243,-25.98931l60.56993,-2.09283l53.05102,385.18817z" fill="#a6aaa2"/><path d="M495.10494,61.061l-60.91881,7.41286l-71.16649,19.44831l-15.08806,16.48332l-13.90999,-121.4888l11.2943,-23.59125l71.38455,-26.07654l61.09321,-1.2643z" fill="#3e3c44"/><path d="M526.28273,284.76436l-53.68008,9.33159l-77.2714,11.25017l-23.85295,-0.69782l-17.1804,-140.98106l17.31199,-11.86099l71.55893,-15.52369l62.35783,-6.23547z" fill="#3e3c44"/><path d="M257.05719,338.58708l-19.5787,-156.15627l52.98239,-11.9044l20.31998,163.56945z" fill="#3e3c44"/><path d="M266.60709,337.19171l-17.18036,-145.38535l37.10948,-7.67464l17.83443,151.92638z" fill="#1f2028"/><path d="M495.6714,146.00715l20.71265,123.45114l-40.20561,11.94807l-22.67489,-134.26563l41.90621,-3.74998z" fill="#21305e"/><path d="M450.23237,281.7987l-58.21521,8.02336l-12.77616,-127.76815l55.94767,-13.08178z" fill="#21305e"/><path d="M360.88247,172.25782l7.80565,-5.62524l15.43621,123.53832l-7.02071,0.2616z" fill="#21305e"/><path d="M350.76613,84.30272l-13.60488,-92.01054l7.32601,-10.422l11.38094,91.7925z" fill="#21305e"/><path d="M370.43289,69.5637l-13.9101,-95.06303l47.13912,-17.48612l17.2678,102.21455l-50.14795,13.82314z" fill="#21305e"/><path d="M445.742,56.30761l-18.44518,-105.17984l42.56031,-1.61324l15.00025,101.56047z" fill="#21305e"/><path d="M346.57321,-40.21306l-11.16349,24.89945l-4.92758,3.57575l-10.33481,-2.04958l11.38156,-31.5277l91.92343,-32.09419l73.08512,-4.66556l-3.44502,13.99779l-76.92251,1.52585z" fill="#383635"/><path d="M225.84749,-18.67187l356.31233,-132.08338l-1.70077,22.63194l-344.026,117.31162z" fill="#383635"/><path d="M167.29358,145.62759l123.23315,-31.70158l2.39828,19.5795l-65.71562,16.7011l-58.73847,2.79054z" fill="#383635"/><path d="M191.97528,101.75921l-213.54317,75.52601l-6.88984,-7.23877l223.92168,-86.25325z" fill="#383635"/><path d="M42.84962,318.27741l-11.20629,-134.09116l20.53892,-19.23052l14.86998,-9.85509l20.75689,-3.8373l23.5913,-1.91858l18.62012,1.22109l15.21798,160.99661z" fill="#3e3c44"/><path d="M51.571,317.4053l-12.25289,-126.93963l6.41028,-10.77085l17.13754,-9.20097l12.29715,-4.75308l19.05623,-3.22681l28.47529,-1.52609l13.73541,150.57456z" fill="#21305e"/></g><path d="M318.73582,181.56199c-0.86618,0.2664 -1.95201,0.60727 -3.06341,0.80383c-1.29112,0.2283 -2.60457,0.33011 -4.13438,0.50051c0.56024,-0.23399 1.33083,-0.57907 2.1361,-0.70881c1.60016,-0.25769 3.21941,-0.3968 5.0617,-0.59555z" fill="#c1bead" fill-rule="nonzero" stroke="none" stroke-width="1" stroke-linecap="butt"/><path d="M266.29084,160.41664c3.37586,-3.92234 12.02832,-7.39899 17.51927,-5.99902c-0.53795,1.10235 0.5112,1.92152 0.5112,1.92152l1.07364,0.8271c1.46163,0.91712 2.95138,1.8378 4.48695,2.62491c1.81889,1.16474 5.20354,4.17056 5.8853,6.12195c0.35329,1.01124 -0.04472,4.93123 -0.1026,5.75671c-0.44249,6.30915 -4.43321,13.14612 -10.38976,16.17533c-6.33464,3.22149 -12.98016,-2.3897 -17.97126,-5.45753c-3.69327,-2.33267 -3.76586,-4.77054 -4.16949,-9.00606c-0.46601,-4.89044 -0.22443,-9.03645 3.15671,-12.96489z" data-paper-data="{&quot;noHover&quot;:false,&quot;origItem&quot;:[&quot;Path&quot;,{&quot;applyMatrix&quot;:true,&quot;segments&quot;:[[[342.41712,140.13554],[4.07242,-1.54941],[0.50731,0.79512]],[342.19729,141.64708],[[341.45304,142.371],[0,0],[-1.03646,0.82839]],[[338.26787,144.75824],[1.1043,-0.73553],[-1.28774,1.04877]],[[334.31884,149.9268],[0.35028,-1.55034],[-0.18152,0.80341]],[[334.90131,154.29855],[-0.11638,-0.62556],[0.88946,4.78118]],[[344.21345,165.70461],[-4.81526,-1.79353],[5.1209,1.90738]],[[357.41354,159.98508],[-3.54479,2.77989],[2.61756,-2.10485]],[[359.80282,152.76921],[0.06186,3.27099],[-0.07143,-3.77675]],[[356.27361,143.1765],[2.92636,2.70561],[-2.92179,-2.70139]]],&quot;closed&quot;:true}],&quot;index&quot;:null}" fill="#ffffff" fill-rule="nonzero" stroke="#000000" stroke-width="2.5" stroke-linecap="butt"/><path d="M328.35222,140.52731c2.13268,1.68292 2.79478,3.3219 4.31268,5.97158c2.7334,3.24635 1.09172,8.07674 0.55001,12.03921c-0.73998,5.41267 -0.95531,12.33188 -5.49301,16.1508c-6.24081,5.25219 -21.06627,5.63462 -24.22172,-2.86926c-1.5825,-4.06515 -3.6715,-8.94427 -3.15933,-13.46811c0.84287,-7.44504 8.79429,-17.62589 16.27548,-19.38781c2.99844,-0.70618 8.25156,0.25647 11.01438,1.43454c0,0 0.31862,0.13245 0.72148,0.12905z" data-paper-data="{&quot;noHover&quot;:false,&quot;origItem&quot;:[&quot;Path&quot;,{&quot;applyMatrix&quot;:true,&quot;segments&quot;:[[[307.18847,133.41002],[0.30808,-0.03262],[-1.48216,1.47207]],[[304.42774,138.33581],[0.92801,-2.15688],[-1.80442,2.71895]],[[305.0672,147.54907],[-0.76017,-2.97976],[1.03838,4.07032]],[[310.6472,159.36771],[-3.80035,-2.52083],[5.22668,3.46693]],[[328.83869,155.0739],[-1.66733,6.7723],[0.85365,-3.24387]],[[330.06563,144.54515],[0.78666,3.41119],[-1.29463,-5.61394]],[[315.99034,131.1999],[5.86924,0.69214],[-2.35237,-0.27741]],[[307.72705,133.24934],[2.00768,-1.14145],[0,0]]],&quot;closed&quot;:true}],&quot;index&quot;:null}" fill="#ffffff" fill-rule="nonzero" stroke="#000000" stroke-width="2.5" stroke-linecap="butt"/><path d="M330.31082,161.62147c-1.96238,0.22452 -3.73523,-1.18432 -3.95973,-3.1467c-0.22452,-1.96238 1.18432,-3.73523 3.1467,-3.95973c1.96238,-0.22452 3.73523,1.18432 3.95973,3.1467c0.22452,1.96238 -1.18432,3.73523 -3.1467,3.95973z" data-paper-data="{&quot;index&quot;:null}" fill="#000000" fill-rule="nonzero" stroke="none" stroke-width="0.5" stroke-linecap="butt"/><path d="M290.17265,172.99446c-1.96238,0.22452 -3.73523,-1.18432 -3.95973,-3.1467c-0.22452,-1.96238 1.18432,-3.73523 3.1467,-3.95973c1.96238,-0.22452 3.73523,1.18432 3.95973,3.1467c0.22452,1.96238 -1.18432,3.73523 -3.1467,3.95973z" data-paper-data="{&quot;index&quot;:null}" fill="#000000" fill-rule="nonzero" stroke="none" stroke-width="0.5" stroke-linecap="butt"/><path d="M347.32712,90.49173c0.18478,1.61507 -1.43032,1.7999 -1.43032,1.7999l0.01535,-0.2259c-3.25758,2.44319 -6.51401,4.8879 -9.77638,7.32466c-7.24115,7.75457 -14.40045,15.6022 -21.97553,23.03136c-5.62666,5.51829 -12.98593,11.57514 -16.56072,18.64906c0,0 -0.74215,1.44637 -2.18849,0.70421c-1.44634,-0.74217 -0.70421,-2.18849 -0.70421,-2.18849c3.85241,-7.41175 11.24591,-13.66929 17.17686,-19.48602c7.61169,-7.46507 14.77119,-15.37423 22.08306,-23.13215c3.32825,-2.5056 6.66184,-5.00407 9.99461,-7.50366l1.56585,-0.40329c0,0 1.61507,-0.18478 1.79986,1.43031z" data-paper-data="{&quot;index&quot;:null}" fill="#000000" fill-rule="nonzero" stroke="none" stroke-width="0.5" stroke-linecap="butt"/><path d="M219.12257,99.31181c1.01505,-1.26979 2.28484,-0.25474 2.28484,-0.25474l2.47694,1.98052c6.23202,5.44455 12.33744,11.04082 18.91894,16.05956c3.40118,2.59358 6.72449,5.39316 10.24649,7.81874c7.30428,5.03039 15.87987,8.28798 23.44698,12.90311c3.90748,2.38314 7.39977,5.37567 11.75807,6.949c0,0 1.52722,0.55704 0.9702,2.08425c-0.55702,1.52723 -2.08423,0.9702 -2.08423,0.9702c-4.57252,-1.68241 -8.2275,-4.72138 -12.33696,-7.22769c-7.60124,-4.63595 -16.1867,-7.92045 -23.53566,-12.95919c-3.5902,-2.46157 -6.97438,-5.31313 -10.43636,-7.95306c-6.62046,-5.04845 -12.7652,-10.67218 -19.03272,-16.15041l-2.42178,-1.93543c0,0 -1.26979,-1.01504 -0.25475,-2.28483z" data-paper-data="{&quot;index&quot;:null}" fill="#000000" fill-rule="nonzero" stroke="none" stroke-width="0.5" stroke-linecap="butt"/><path d="M262.19594,183.63511c0.99348,-0.11399 1.10747,0.87949 1.10747,0.87949l0.09329,0.81311c0.43164,3.76197 1.13058,7.50322 1.43024,11.27757c0.36643,4.61525 0.32913,9.37044 1.74312,13.82283c0.64729,4.05106 1.53337,10.26184 4.52866,13.16069c1.28749,1.24604 4.1511,1.31685 5.77449,1.7728c5.2273,1.46815 10.57217,3.24335 15.9219,4.1169c7.8313,2.58758 17.79925,1.53422 25.88476,0.94962c3.71434,-0.26855 7.22817,0.36181 10.87515,-0.69111c6.64272,-1.37412 11.48488,-7.2649 15.07277,-12.64047c2.65453,-3.97714 4.4684,-5.74858 4.86859,-10.62041c-0.16776,-4.99775 0.27724,-9.64851 0.38446,-14.5937c0.03422,-1.57808 -0.327,-3.0556 -0.09619,-4.64288c0.30836,-2.12058 1.6679,-5.03228 -0.68528,-6.44104c0,0 -0.83619,-0.54845 -0.28775,-1.38463c0.54845,-0.83619 1.38463,-0.28775 1.38463,-0.28775c3.13505,2.171 2.06108,5.2148 1.5672,8.40373c-0.22644,1.4621 0.14765,2.92794 0.11694,4.3946c-0.10376,4.95447 -0.54011,9.59754 -0.38466,14.60257c-0.21004,2.48305 -0.21356,4.8399 -1.55057,7.05526c-1.00609,1.66704 -2.57044,2.99755 -3.65391,4.62462c-3.86476,5.80382 -9.11434,11.98088 -16.25665,13.47175c-3.77422,1.07629 -7.37109,0.46329 -11.20315,0.7437c-8.28929,0.60659 -18.48192,1.63536 -26.51389,-1.00173c-5.37281,-0.90109 -10.73177,-2.65775 -15.98518,-4.13357c-2.05826,-0.57822 -4.89058,-0.69765 -6.5592,-2.20065c-3.40887,-3.07052 -4.45165,-9.78322 -5.14936,-14.19781c-1.4433,-4.55881 -1.41362,-9.42209 -1.79211,-14.14562c-0.29999,-3.74381 -0.99375,-7.45532 -1.42195,-11.1873l-0.09329,-0.81311c0,0 -0.11399,-0.99348 0.87949,-1.10747z" data-paper-data="{&quot;index&quot;:null}" fill="#000000" fill-rule="nonzero" stroke="none" stroke-width="0.5" stroke-linecap="butt"/></g></g><path d="M-2599.12754,1588.764v-2817.23724h5838.0034v2817.23724z" fill="none" fill-rule="nonzero" stroke="#f00000" stroke-width="0" stroke-linecap="butt"/><path d="M-2599.12754,1588.764v-2817.23724h5838.0034v2817.23724z" fill="none" fill-rule="nonzero" stroke="#f00000" stroke-width="0" stroke-linecap="butt"/><path d="M-2599.12754,1588.76399v-2817.23724h5838.0034v2817.23724z" fill="none" fill-rule="nonzero" stroke="#f00000" stroke-width="0" stroke-linecap="butt"/><path d="M-2599.12754,1588.76399v-2817.23724h5838.0034v2817.23724z" fill="none" fill-rule="nonzero" stroke="#f00000" stroke-width="0" stroke-linecap="butt"/></g></g></svg>