<svg version="1.1" xmlns="http://www.w3.org/2000/svg" xmlns:xlink="http://www.w3.org/1999/xlink" width="5838.0034" height="2817.23724" viewBox="0,0,5838.0034,2817.23724"><g transform="translate(2599.12754,1228.47326)"><g data-paper-data="{&quot;isPaintingLayer&quot;:true}" stroke-linejoin="miter" stroke-miterlimit="10" stroke-dasharray="" stroke-dashoffset="0" style="mix-blend-mode: normal"><path d="M199.54779,325.58693l31.43994,-51.16097l87.84694,-0.45679l-18.49406,51.61775z" data-paper-data="{&quot;index&quot;:null}" fill="#cedce9" fill-rule="nonzero" stroke="#000000" stroke-width="1" stroke-linecap="round"/><path d="M191.19184,324.1066c-3.03408,-0.39845 -10.25468,-1.01958 -7.0903,-1.66166c-1.73004,0.20576 -4.03817,0.45697 -5.2663,0.52454c-5.81808,0.32015 -13.35813,0 -19.36177,0c-16.47055,0 -32.4609,-0.16994 -48.40423,0.63566c-7.20522,0.36407 -9.18593,-0.76022 -11.39844,0.81289c-4.56378,2.63948 -13.1503,4.99481 -18.6661,7.65198c-7.47572,3.60127 -10.37481,7.07799 -14.9577,10.68901c-5.18603,2.97376 -0.96168,8.68333 -0.96168,11.99326c0,0.886 1.4548,2.46311 0.06534,3.11529c1.38124,0.03295 2.71533,0.06301 3.56501,0.06301c5.6472,0 11.29432,0 16.94154,0c22.46357,0 48.56337,-0.129 70.36675,-1.56064c25.88774,-1.52726 53.94513,0.66284 80.04112,-0.70795c14.29082,-0.68751 29.86867,-0.27883 44.41913,-0.274c7.38145,0.00246 13.70251,-0.73389 16.94148,0.63566c0.85132,0.35999 0,-0.84753 0,-1.2713c0,-1.05941 0,-2.11888 0,-3.17828c0,-5.93278 0,-11.86558 0,-17.79836c0,-1.40257 -1.39977,-6.42039 1.49608,-6.96335c-0.54321,-0.0085 -1.158,-0.02237 -1.49608,-0.02886c-2.99478,-0.05739 -4.66799,-0.01404 -7.00516,-0.45202c-4.05745,-0.76038 -17.74617,-0.18362 -23.24748,-0.18362c-21.37857,0 -42.75708,0 -64.13564,0c0,0 -4.8404,0 -4.8404,-1.2713c0,-0.05217 0.00812,-0.10221 0.02378,-0.15017c-2.314,-0.12882 -4.65136,-0.30747 -7.02891,-0.6197zM267.17314,323.60519c12.90519,0 29.39907,-0.60355 38.21222,1.97407c5.05027,1.47707 1.72119,6.21291 1.72119,8.19644c0,5.9328 0,11.86556 0,17.79834c0,0.67746 1.6672,4.03813 0,4.44959c-16.83971,4.15575 -48.57968,0.91511 -69.14283,2.1316c-25.51767,1.34042 -54.90437,-1.21385 -79.59178,0.6814c-22.47194,1.47555 -49.54459,1.63659 -72.71473,1.63659c-3.32351,0 -23.25473,0.66108 -25.41221,0c-6.1868,-1.89577 -4.8404,-3.47717 -4.8404,-5.72091c0,-4.05845 -2.73918,-8.89612 1.45849,-12.79732c4.6972,-3.70104 7.99126,-7.41305 15.48302,-11.02205c3.02208,-1.45581 6.28633,-3.40316 10.19182,-4.71802c2.55553,-0.86039 7.44156,-1.55943 8.05203,-2.67787c4.14104,-2.94433 11.62459,-1.9796 20.47956,-2.47446c15.76294,-0.88091 32.07463,-0.63566 48.40423,-0.63566c6.02226,0 17.78898,-0.72793 22.03739,-0.50145c7.39548,0.3943 11.68289,2.05078 18.85069,2.54262c5.25963,0.36092 10.80229,0.14727 16.94154,0.95349c0.46607,0.06122 0.93203,0.12241 1.39816,0.18362c16.15719,0 32.31449,0 48.4717,0z" data-paper-data="{&quot;index&quot;:null}" fill="#000000" fill-rule="nonzero" stroke="none" stroke-width="1" stroke-linecap="butt"/><path d="M198.28809,324.66533c-0.0157,0.04797 -0.02323,0.09803 -0.02323,0.15022c0,1.2713 4.86416,1.27348 4.86416,1.27348c21.37851,0 42.87096,0.02527 64.24961,0.02527c5.5013,0 19.20246,-0.57084 23.25993,0.18953c2.33712,0.438 4.01412,0.39679 7.00882,0.45415c0.33803,0.00649 0.95335,0.02066 1.49664,0.02919c-2.89588,0.54299 -1.48139,5.57299 -1.48139,6.97553c0,5.93279 -0.0101,11.90086 -0.0101,17.83365c0,1.05943 -0.00826,2.12402 -0.00826,3.18342c0,0.42376 0.84766,1.63317 -0.00366,1.27321c-3.23895,-1.36954 -9.56579,-0.63046 -16.94719,-0.63292c-14.55049,-0.00482 -30.1724,-0.399 -44.46317,0.28852c-26.09602,1.37079 -54.40985,-0.80699 -80.29762,0.72026c-21.80338,1.43164 -48.00911,1.53851 -70.47285,1.53851c-5.6472,0 -11.30419,-0.00399 -16.95139,-0.00399c-0.84974,0 -2.18566,-0.03085 -3.56685,-0.0638c1.38948,-0.65217 -0.07434,-2.23377 -0.07434,-3.11978c0,-3.30993 -4.24713,-9.04149 0.93901,-12.01526c4.58293,-3.61105 7.49192,-7.11188 14.96764,-10.71317c5.51591,-2.65717 14.13863,-5.03145 18.70247,-7.67091c2.2125,-1.57311 4.20822,-0.45365 11.41342,-0.81772c15.94328,-0.80557 32.03749,-0.65347 48.50792,-0.65347c6.00354,0 13.61107,0.31698 19.42915,-0.00317c1.22801,-0.0676 3.55536,-0.31878 5.28542,-0.52454c-3.16444,0.64208 4.08481,1.26396 7.11893,1.6624c2.37763,0.31223 4.7432,0.49257 7.05711,0.62138z" data-paper-data="{&quot;noHover&quot;:false,&quot;origItem&quot;:[&quot;Path&quot;,{&quot;applyMatrix&quot;:true,&quot;segments&quot;:[[[579.60736,595.76373],[0.95609,-0.20262],[0.00646,0.07548]],[[579.61718,596],[0,-0.08208],[0,2]],[[577.61718,598],[0,0],[-8.83333,0]],[[551.11718,598],[8.83333,0],[-2.27308,0]],[[541.51161,598.28885],[1.67648,-1.19621],[-0.96568,0.68904]],[[538.61718,599],[1.23739,-0.09027],[-0.13966,0.01019]],[[537.99901,599.04541],[0.22447,-0.0134],[1.19653,0.85421]],[[538.61718,610],[0,-2.20646],[0,9.33333]],[[538.61718,638],[0,-9.33333],[0,1.66667]],[[538.61718,643],[0,-1.66667],[0,0.66667]],[[538.61718,645],[-0.35177,0.56631],[1.33831,-2.15456]],[[545.61718,644],[-3.04994,0.00386],[6.01206,-0.00761]],[[563.97058,644.43107],[-5.90478,-1.08158],[10.78253,2.15651]],[[597.04254,645.54479],[-10.6965,-2.40266],[9.00888,2.25222]],[[626.11718,648],[-9.28168,0],[2.33333,0]],[[633.11718,648],[-2.33333,0],[0.35109,0]],[[634.59021,647.90091],[-0.5707,0.05184],[-0.57412,-1.02596]],[[634.61718,643],[0,1.39387],[0,-5.20707]],[[634.21982,624.13246],[2.14282,4.67827],[-1.8936,-5.6808]],[[628.03948,607.31672],[3.08887,5.66543],[-2.2791,-4.1802]],[[620.32688,595.27881],[1.8857,4.15235],[-0.91417,-2.47477]],[[615.61718,594],[2.9771,0.57275],[-6.58756,-1.26734]],[[595.61718,593],[6.8054,0],[-2.48058,0]],[[587.61718,593],[2.40395,0.50364],[-0.50743,-0.10631]],[[585.44122,592.1748],[0.71481,0.32365],[1.30749,1.01011]],[[582.51161,594.78885],[1.25365,-0.62682],[-0.98239,0.4912]]],&quot;closed&quot;:true}],&quot;index&quot;:null}" fill="#484848" fill-rule="nonzero" stroke="none" stroke-width="1" stroke-linecap="butt"/><path d="M130.43112,329.32617c0,0.42966 1.66868,0.95036 0.83698,1.29058c2.12732,0.0575 4.26723,0.18309 6.16811,0.43275c7.32921,0.96252 22.23884,4.46975 23.64471,6.78846c0.11429,0.18859 -1.95824,0.22007 -1.60726,0.38735c1.16791,0.55653 10.6856,-0.41064 11.78042,-0.25259c0.24775,0.03575 0.36944,0.09147 0.4182,0.15928c-0.05097,-0.21063 -0.09761,-0.41424 -0.09761,-0.54237c0,-0.45033 0.06776,-0.93562 -0.69902,-1.33841c-6.51783,-3.5502 -17.16685,-6.92513 -35.60405,-6.92513c0,0 -2.17575,0 -3.60988,-0.38313c-0.47825,-0.07134 -0.85017,-0.15528 -1.09948,-0.25369c-0.06407,0.24254 -0.13113,0.48942 -0.13113,0.63683zM171.57474,338.86091c0.33033,0.26027 0.23291,-0.17175 0.12313,-0.62373c-0.02295,0.19615 -0.34893,0.44586 -0.12313,0.62373zM179.53431,335.11416c6.01881,3.16155 -7.64735,7.7809 -20.0607,5.65377c-11.7121,-2.00699 -15.67808,-6.04059 -26.36679,-7.44425c-3.61099,-0.47422 -7.93791,-0.73309 -10.63542,-1.52204c-4.27474,-1.25028 -2.37981,-5.51957 5.79495,-5.51957c5.88638,0 8.78566,0.50144 14.26579,0.50144h2.42019c0,0 2.77826,0 4.12511,0.55283c14.33817,1.22928 23.5389,4.35247 30.45688,7.77779z" data-paper-data="{&quot;index&quot;:null}" fill="#000000" fill-rule="nonzero" stroke="none" stroke-width="1" stroke-linecap="butt"/><path d="M130.38262,328.64668c0.24919,0.09843 0.62129,0.18229 1.09957,0.25367c1.43412,0.38313 3.61974,0.38039 3.61974,0.38039c18.43718,0 29.47063,3.44956 35.98838,6.99977c0.76677,0.40276 0.67793,0.89692 0.67793,1.34723c0,0.12813 0.0377,0.33468 0.08867,0.54531c-0.04868,-0.06784 -0.16921,-0.12388 -0.41707,-0.15966c-1.09484,-0.15802 -10.695,0.82585 -11.86292,0.26933c-0.35101,-0.16725 1.49168,-0.31041 1.37725,-0.49903c-1.40583,-2.3187 -16.38738,-5.80815 -23.71668,-6.77064c-1.90094,-0.24965 -4.0531,-0.37008 -6.18045,-0.4276c0.83172,-0.34021 -0.81713,-0.86879 -0.81713,-1.29843c0,-0.14742 0.07821,-0.39782 0.14245,-0.64036z" data-paper-data="{&quot;noHover&quot;:false,&quot;origItem&quot;:[&quot;Path&quot;,{&quot;applyMatrix&quot;:true,&quot;segments&quot;:[[[607.563,601.99816],[0.02649,0.38155],[-0.10299,0.15484]],[[607.10872,602.39727],[0.1976,-0.11227],[-0.59254,0.60273]],[[605.61718,603],[0,0],[-7.618,0]],[[590.90604,613.89443],[2.69308,-5.58508],[-0.31682,0.63364]],[[590.61718,616],[0,-0.70843],[0,0.20156]],[[590.57685,616.85325],[0.02106,-0.33136],[0.02013,-0.10671]],[[590.74964,616.60263],[-0.10238,0.05628],[0.45234,-0.24865]],[[595.61718,617],[-0.48256,0.87548],[0.14503,-0.26312]],[[594.95308,616.3906],[-0.04725,0.29671],[0.58086,-3.64773]],[[604.72276,605.71115],[-3.02833,1.51416],[0.78545,-0.39273]],[[607.27135,605.03032],[-0.87898,0.0905],[-0.34365,-0.53523]],[[607.61718,603],[0,0.6759],[0,-0.23192]]],&quot;closed&quot;:true}],&quot;index&quot;:null}" fill="#ffffff" fill-rule="nonzero" stroke="none" stroke-width="1" stroke-linecap="butt"/><path d="M394.13772,313.34013l-18.49406,-36.48211l87.84689,0.32285l31.43998,36.15925z" fill="#cedce9" fill-rule="nonzero" stroke="#000000" stroke-width="1" stroke-linecap="round"/><path d="M503.28642,311.44426c-2.37752,0.3999 -4.71494,0.62872 -7.02889,0.7937c0.01566,0.06144 0.02377,0.12553 0.02377,0.19236c0,1.62826 -4.8404,1.62826 -4.8404,1.62826c-21.3786,0 -42.75709,0 -64.13561,0c-5.50127,0 -19.19004,-0.7387 -23.24752,0.23518c-2.33718,0.56096 -4.01038,0.50544 -7.00516,0.57894c-0.338,0.00831 -0.95283,0.02605 -1.49607,0.03698c2.89582,0.69543 1.49607,7.12217 1.49607,8.91852c0,7.59863 0,15.19726 0,22.79586c0,1.35688 0,2.71383 0,4.07069c0,0.54273 -0.85132,2.08932 0,1.62826c3.23899,-1.7541 9.56,-0.81101 16.94148,-0.81414c14.55046,-0.00619 30.12829,-0.5296 44.41908,0.35095c26.09601,1.75569 54.15334,-1.04936 80.04112,0.90673c21.80339,1.8336 47.90315,1.99884 70.36675,1.99884c5.64724,0 11.29436,0 16.94154,0c0.84966,0 2.18375,-0.03849 3.56501,-0.08069c-1.38946,-0.83529 0.06531,-2.85523 0.06531,-3.99001c0,-4.23928 4.22438,-11.552 -0.96166,-15.36076c-4.58293,-4.62497 -7.48197,-9.07785 -14.95769,-13.69031c-5.5158,-3.40325 -14.10234,-6.41993 -18.6661,-9.80052c-2.21251,-2.01481 -4.19322,-0.57483 -11.39846,-1.04114c-15.94335,-1.03179 -31.93371,-0.81414 -48.40423,-0.81414c-6.00367,0 -13.54368,0.41004 -19.36176,0c-1.22816,-0.08656 -3.53623,-0.4083 -5.2663,-0.67182c3.16435,0.82242 -4.05622,1.61791 -7.09029,2.12823zM427.30502,310.80208c16.15724,0 32.31445,0 48.47167,0c0.46614,-0.0784 0.93212,-0.15677 1.39821,-0.23516c6.13922,-1.03259 11.68192,-0.75894 16.94153,-1.22121c7.16777,-0.62997 11.4552,-2.75155 18.8507,-3.25655c4.24837,-0.29011 16.01514,0.64225 22.03738,0.64225c16.32958,0 32.6413,-0.31409 48.40425,0.81414c8.85502,0.63382 16.33854,-0.60179 20.47957,3.16925c0.6105,1.43248 5.4965,2.32782 8.05203,3.42979c3.90544,1.68408 7.16971,4.17819 10.19182,6.04276c7.49174,4.62234 10.78582,9.37663 15.48302,14.11686c4.19773,4.99662 1.45855,11.19258 1.45855,16.39056c0,2.87377 1.34641,4.89919 -4.8404,7.32724c-2.15741,0.8467 -22.08873,0 -25.41223,0c-23.17015,0 -50.24285,-0.20631 -72.71473,-2.09613c-24.68739,-2.42743 -54.07406,0.84402 -79.59173,-0.87274c-20.56319,-1.55809 -52.30316,2.5925 -69.14283,-2.73012c-1.6672,-0.52698 0,-4.83127 0,-5.69896c0,-7.59862 0,-15.19724 0,-22.79585c0,-2.54051 -3.32914,-8.60606 1.72119,-10.49787c8.81311,-3.30137 25.30699,-2.52836 38.21222,-2.52836z" data-paper-data="{&quot;index&quot;:null}" fill="#000000" fill-rule="nonzero" stroke="none" stroke-width="1" stroke-linecap="butt"/><path d="M496.19005,312.15981c2.31393,-0.16499 4.67951,-0.39595 7.05714,-0.79585c3.03404,-0.51032 10.28333,-1.30682 7.11889,-2.12919c1.73003,0.26353 4.0574,0.58525 5.28542,0.67182c5.81809,0.41004 13.42569,0.00407 19.42915,0.00407c16.47044,0 32.56464,-0.19483 48.50793,0.83695c7.20524,0.46629 9.20098,-0.9675 11.4135,1.04731c4.5638,3.38055 13.18658,6.42152 18.70247,9.82476c7.47572,4.61242 10.38476,9.09624 14.96765,13.72118c5.1861,3.80878 0.93895,11.14966 0.93895,15.38896c0,1.13477 -1.46382,3.16047 -0.07434,3.99576c-1.38118,0.04219 -2.71709,0.08171 -3.56683,0.08171c-5.6472,0 -11.30422,0.0051 -16.9514,0.0051c-22.46373,0 -48.66947,-0.13689 -70.47285,-1.97052c-25.88778,-1.9561 -54.20159,0.83316 -80.29762,-0.92254c-14.29079,-0.88058 -29.91269,-0.37572 -44.46316,-0.36953c-7.38145,0.00314 -13.7082,-0.94344 -16.94719,0.81065c-0.85133,0.46108 -0.00366,-1.08794 -0.00366,-1.63069c0,-1.35688 -0.0083,-2.72042 -0.0083,-4.07727c0,-7.59863 -0.01007,-15.24243 -0.01007,-22.84105c0,-1.79635 1.41449,-8.23871 -1.4814,-8.93413c0.54331,-0.01094 1.15857,-0.0291 1.49664,-0.03741c2.99467,-0.0735 4.6717,-0.0207 7.00882,-0.58167c4.05745,-0.97388 17.75863,-0.24275 23.25993,-0.24275c21.37863,0 42.87108,-0.03238 64.24961,-0.03238c0,0 4.86416,-0.00279 4.86416,-1.63105c0,-0.06684 -0.00753,-0.13095 -0.02322,-0.1924z" data-paper-data="{&quot;noHover&quot;:false,&quot;origItem&quot;:[&quot;Path&quot;,{&quot;applyMatrix&quot;:true,&quot;segments&quot;:[[[579.60736,595.76373],[0.95609,-0.20262],[0.00646,0.07548]],[[579.61718,596],[0,-0.08208],[0,2]],[[577.61718,598],[0,0],[-8.83333,0]],[[551.11718,598],[8.83333,0],[-2.27308,0]],[[541.51161,598.28885],[1.67648,-1.19621],[-0.96568,0.68904]],[[538.61718,599],[1.23739,-0.09027],[-0.13966,0.01019]],[[537.99901,599.04541],[0.22447,-0.0134],[1.19653,0.85421]],[[538.61718,610],[0,-2.20646],[0,9.33333]],[[538.61718,638],[0,-9.33333],[0,1.66667]],[[538.61718,643],[0,-1.66667],[0,0.66667]],[[538.61718,645],[-0.35177,0.56631],[1.33831,-2.15456]],[[545.61718,644],[-3.04994,0.00386],[6.01206,-0.00761]],[[563.97058,644.43107],[-5.90478,-1.08158],[10.78253,2.15651]],[[597.04254,645.54479],[-10.6965,-2.40266],[9.00888,2.25222]],[[626.11718,648],[-9.28168,0],[2.33333,0]],[[633.11718,648],[-2.33333,0],[0.35109,0]],[[634.59021,647.90091],[-0.5707,0.05184],[-0.57412,-1.02596]],[[634.61718,643],[0,1.39387],[0,-5.20707]],[[634.21982,624.13246],[2.14282,4.67827],[-1.8936,-5.6808]],[[628.03948,607.31672],[3.08887,5.66543],[-2.2791,-4.1802]],[[620.32688,595.27881],[1.8857,4.15235],[-0.91417,-2.47477]],[[615.61718,594],[2.9771,0.57275],[-6.58756,-1.26734]],[[595.61718,593],[6.8054,0],[-2.48058,0]],[[587.61718,593],[2.40395,0.50364],[-0.50743,-0.10631]],[[585.44122,592.1748],[0.71481,0.32365],[1.30749,1.01011]],[[582.51161,594.78885],[1.25365,-0.62682],[-0.98239,0.4912]]],&quot;closed&quot;:true}],&quot;index&quot;:null}" fill="#484848" fill-rule="nonzero" stroke="none" stroke-width="1" stroke-linecap="butt"/><path d="M564.0472,318.12917c0,-0.1888 -0.06699,-0.505 -0.13109,-0.81563c-0.24932,0.12605 -0.62119,0.2335 -1.09948,0.32492c-1.43415,0.49069 -3.60987,0.49071 -3.60987,0.49071c-18.43723,0 -29.08631,4.32258 -35.6041,8.86959c-0.76678,0.5159 -0.69902,1.13746 -0.69902,1.71421c0,0.16409 -0.04671,0.4249 -0.09767,0.69466c0.04872,-0.08681 0.17046,-0.15818 0.41823,-0.204c1.09478,-0.20243 10.61251,1.03629 11.78043,0.32351c0.35102,-0.21419 -1.72151,-0.25457 -1.60723,-0.49614c1.40583,-2.96978 16.31545,-7.4618 23.64468,-8.69454c1.90095,-0.31973 4.04079,-0.48059 6.16812,-0.55426c-0.83172,-0.43572 0.83697,-1.10268 0.83697,-1.65295zM522.78036,329.5424c-0.10978,0.57889 -0.20722,1.13223 0.12314,0.79885c0.22582,-0.2278 -0.10018,-0.54761 -0.12314,-0.79885zM514.94386,325.54233c6.91796,-4.38709 16.11868,-8.38724 30.45688,-9.96167c1.34692,-0.70806 4.12514,-0.70806 4.12514,-0.70806h2.42019c5.48011,0 8.37942,-0.6422 14.26579,-0.6422c8.17475,0 10.06969,5.46809 5.79493,7.06939c-2.69752,1.01049 -7.02439,1.34203 -10.63541,1.9494c-10.68865,1.79778 -14.65469,6.96395 -26.36679,9.53446c-12.41337,2.72442 -26.07952,-3.19197 -20.06076,-7.24127z" data-paper-data="{&quot;index&quot;:null}" fill="#000000" fill-rule="nonzero" stroke="none" stroke-width="1" stroke-linecap="butt"/><path d="M564.09595,317.25906c0.06424,0.31062 0.14245,0.63134 0.14245,0.82014c0,0.55028 -1.64882,1.22725 -0.81712,1.66302c-2.12734,0.07365 -4.27951,0.22788 -6.18048,0.54764c-7.32931,1.23277 -22.3109,5.70199 -23.71668,8.67175c-0.11442,0.24157 1.72828,0.42489 1.37725,0.63914c-1.16792,0.71276 -10.76806,-0.54738 -11.8629,-0.34495c-0.24785,0.04584 -0.36838,0.11761 -0.41706,0.20449c0.05098,-0.26978 0.08868,-0.5343 0.08868,-0.69841c0,-0.57675 -0.08887,-1.20964 0.67794,-1.72552c6.51772,-4.54703 17.5512,-8.96518 35.98839,-8.96518c0,0 2.1856,0.0035 3.61973,-0.4872c0.47826,-0.09144 0.8504,-0.19887 1.09958,-0.32492z" data-paper-data="{&quot;noHover&quot;:false,&quot;origItem&quot;:[&quot;Path&quot;,{&quot;applyMatrix&quot;:true,&quot;segments&quot;:[[[607.563,601.99816],[0.02649,0.38155],[-0.10299,0.15484]],[[607.10872,602.39727],[0.1976,-0.11227],[-0.59254,0.60273]],[[605.61718,603],[0,0],[-7.618,0]],[[590.90604,613.89443],[2.69308,-5.58508],[-0.31682,0.63364]],[[590.61718,616],[0,-0.70843],[0,0.20156]],[[590.57685,616.85325],[0.02106,-0.33136],[0.02013,-0.10671]],[[590.74964,616.60263],[-0.10238,0.05628],[0.45234,-0.24865]],[[595.61718,617],[-0.48256,0.87548],[0.14503,-0.26312]],[[594.95308,616.3906],[-0.04725,0.29671],[0.58086,-3.64773]],[[604.72276,605.71115],[-3.02833,1.51416],[0.78545,-0.39273]],[[607.27135,605.03032],[-0.87898,0.0905],[-0.34365,-0.53523]],[[607.61718,603],[0,0.6759],[0,-0.23192]]],&quot;closed&quot;:true}],&quot;index&quot;:null}" fill="#ffffff" fill-rule="nonzero" stroke="none" stroke-width="1" stroke-linecap="butt"/><path d="M294.12901,280.86566c11.09186,-0.08446 22.18269,0 33.27199,0.25595c1.07749,6.03503 2.01424,12.09053 2.81533,18.17163c-0.36599,-0.09725 -0.57842,-0.3532 -0.63985,-0.76782c-0.89578,-5.72022 -1.79156,-11.43532 -2.68736,-17.14787c-11.00868,0.16893 -21.9288,-0.00256 -32.76011,-0.51187z" fill="#000000" fill-rule="evenodd" stroke="none" stroke-width="1" stroke-linecap="butt"/><path d="M-546.54655,598.16817v-836.33634h1733.09309v836.33634z" fill="none" fill-rule="nonzero" stroke="#f00000" stroke-width="0" stroke-linecap="butt"/><path d="M-546.54655,598.16817v-836.33634h1733.09309v836.33634z" fill="none" fill-rule="nonzero" stroke="#f00000" stroke-width="0" stroke-linecap="butt"/><g><path d="M559.32594,2.84424l301.87201,-92.14742l-235.78849,218.80731z" fill="#ffffff" fill-rule="nonzero" stroke="#000000" stroke-width="0.5" stroke-linecap="round"/><path d="M331.78511,-273.51655l301.87201,-92.14742l-235.78849,218.80731z" fill="#ffffff" fill-rule="nonzero" stroke="#000000" stroke-width="0.5" stroke-linecap="round"/><g><path d="M250.74987,-218.78888c2.60391,12.59375 5.01551,25.22451 7.23176,37.89232c-6.61896,2.58976 -13.29304,5.02411 -20.02688,7.31c0.02784,-0.43817 0.27085,-0.7376 0.72844,-0.90119c6.30208,-2.31197 12.59833,-4.62276 18.89168,-6.933c-2.68115,-12.48006 -4.9552,-24.9364 -6.825,-37.36811z" fill="#000000" fill-rule="evenodd" stroke="none" stroke-width="1" stroke-linecap="butt"/><g fill-rule="nonzero" stroke="#000000" stroke-width="1" stroke-linecap="round"><path d="M160.25185,-271.58327l175.04266,-31.55132l72.58719,159.9335l-40.46817,7.43505l6.47791,58.44258l21.31412,63.01876l154.6466,-36.77939l115.21159,269.39016l-417.21916,114.38068l-2.14168,-7.51699l-58.11263,-358.52896l-22.05878,-60.44796l-6.47159,-171.01573z" fill="#a6aaa2"/><path d="M184.84164,-278.15752l26.85594,172.85175l11.8255,57.08929l151.83002,-27.89506l19.63718,63.22893l82.75069,283.66843l-231.89344,62.21024l-57.8253,-365.66715l-24.42264,-65.02321l-18.239,-172.98676z" fill="#4d3e45"/><path d="M206.4055,83.14373l341.87219,-68.38042l24.08558,9.83338l31.67995,68.14563l7.04912,60.19473l-379.54557,84.43635z" fill="#a6aaa2"/><path d="M483.86772,181.65843l-12.37984,-60.1065l-25.21455,-69.33349l-17.66426,-13.68661l119.9404,-23.81845l24.43741,9.32316l31.83835,69.00767l6.26625,60.78415z" fill="#3e3c44"/><path d="M263.4715,231.06245l-13.69895,-52.73489l-17.54424,-76.08965l-1.25913,-23.82991l139.09911,-28.67514l13.23971,16.28184l21.33528,70.0462l11.32433,61.63716z" fill="#3e3c44"/><path d="M187.76847,-32.84726l154.02676,-32.30888l16.20594,51.82872l-161.35427,33.65513z" fill="#3e3c44"/><path d="M189.9417,-23.4438l143.48859,-29.036l10.68972,36.35579l-149.95403,30.22387z" fill="#1f2028"/><path d="M399.25368,189.18378l-121.3387,30.75904l-15.20249,-39.09133l131.95603,-33.60086l7.17132,41.45799z" fill="#21305e"/><path d="M260.19535,155.02483l-12.76675,-57.36196l126.29154,-23.20299l17.62235,54.68754z" fill="#21305e"/><path d="M362.04619,56.99922l6.24594,7.31845l-121.85795,25.50748l-0.83602,-6.97566z" fill="#21305e"/><path d="M448.87653,39.70954l90.58627,-21.09881l10.98727,6.44736l-90.5512,18.86448z" fill="#21305e"/><path d="M465.17752,58.10238l93.60349,-21.65314l21.29007,45.54771l-100.45581,25.58556l-17.88596,-48.84658z" fill="#21305e"/><path d="M484.56016,132.07198l103.31465,-27.00197l5.09537,42.28498l-99.98974,23.27205z" fill="#21305e"/><path d="M572.62997,25.32743l-25.73049,-9.0856l-3.96751,-4.61799l1.19581,-10.468l32.35432,8.75979l39.5188,88.98436l10.63873,72.45702l-14.23301,-2.28641l-7.82404,-76.53878z" fill="#383635"/><path d="M541.26848,-93.22709l160.83673,344.29063l-22.69519,0.15949l-145.10786,-333.25607z" fill="#383635"/><path d="M372.72345,-138.12079l41.69315,120.22096l-19.31713,3.99463l-22.02991,-64.12607l-7.5944,-58.31226z" fill="#383635"/><path d="M418.46683,-117.11684l-92.77053,-206.63613l6.64985,-7.45984l104.31215,216.10072z" fill="#383635"/><path d="M190.45687,-247.99867l132.72192,-22.15653l20.84888,18.89403l11.04044,14.01241l5.5253,20.37264l3.84528,23.35474l0.30882,18.65756l-159.20815,28.35946z" fill="#3e3c44"/><path d="M192.04071,-239.3781l125.50868,-22.61359l11.25991,5.50611l10.57434,16.32594l5.74477,11.86631l4.7775,18.72772l3.85433,28.25448l-148.94264,26.02786z" fill="#21305e"/></g><path d="M349.31963,15.75673c-0.33648,-0.84144 -0.76519,-1.89568 -1.05216,-2.98724c-0.33333,-1.26807 -0.54243,-2.56876 -0.83761,-4.07946c0.27911,0.53918 0.68618,1.2789 0.88146,2.07083c0.38794,1.57366 0.65928,3.17607 1.00832,4.99587z" fill="#c1bead" fill-rule="nonzero" stroke="none" stroke-width="1" stroke-linecap="butt"/><path d="M366.09636,-38.24461c4.18578,3.04309 8.35975,11.38157 7.41444,16.96877c-1.14273,-0.44581 -1.87317,0.66694 -1.87317,0.66694l-0.73634,1.13781c-0.79426,1.53186 -1.58978,3.09205 -2.24841,4.68695c-1.01177,1.90821 -3.73014,5.52779 -5.6191,6.36716c-0.97889,0.43497 -4.91831,0.35951 -5.74575,0.36947c-6.32419,0.07599 -13.46519,-3.34106 -16.9723,-9.02935c-3.72975,-6.04936 1.31802,-13.13232 3.96654,-18.35803c2.02219,-3.872 4.4459,-4.14411 8.63411,-4.89346c4.83581,-0.86518 8.98767,-0.96415 13.17996,2.08371z" data-paper-data="{&quot;noHover&quot;:false,&quot;origItem&quot;:[&quot;Path&quot;,{&quot;applyMatrix&quot;:true,&quot;segments&quot;:[[[342.41712,140.13554],[4.07242,-1.54941],[0.50731,0.79512]],[342.19729,141.64708],[[341.45304,142.371],[0,0],[-1.03646,0.82839]],[[338.26787,144.75824],[1.1043,-0.73553],[-1.28774,1.04877]],[[334.31884,149.9268],[0.35028,-1.55034],[-0.18152,0.80341]],[[334.90131,154.29855],[-0.11638,-0.62556],[0.88946,4.78118]],[[344.21345,165.70461],[-4.81526,-1.79353],[5.1209,1.90738]],[[357.41354,159.98508],[-3.54479,2.77989],[2.61756,-2.10485]],[[359.80282,152.76921],[0.06186,3.27099],[-0.07143,-3.77675]],[[356.27361,143.1765],[2.92636,2.70561],[-2.92179,-2.70139]]],&quot;closed&quot;:true}],&quot;index&quot;:null}" fill="#ffffff" fill-rule="nonzero" stroke="#000000" stroke-width="2.5" stroke-linecap="butt"/><path d="M391.00434,21.97825c-1.5025,2.26342 -3.08171,3.05759 -5.5981,4.78751c-3.01144,2.99023 -7.96012,1.74989 -11.95365,1.5347c-5.45511,-0.29396 -12.36868,0.05842 -16.5466,-4.15108c-5.74592,-5.78944 -7.34192,-20.5337 0.8748,-24.37538c3.9218,-1.91029 8.61334,-4.39208 13.16393,-4.25233c7.48907,0.22996 18.28725,7.32039 20.65628,14.63204c0.94951,2.93049 0.42056,8.24482 -0.52715,11.09489c0,0 -0.1059,0.3284 -0.0695,0.72963z" data-paper-data="{&quot;noHover&quot;:false,&quot;origItem&quot;:[&quot;Path&quot;,{&quot;applyMatrix&quot;:true,&quot;segments&quot;:[[[307.18847,133.41002],[0.30808,-0.03262],[-1.48216,1.47207]],[[304.42774,138.33581],[0.92801,-2.15688],[-1.80442,2.71895]],[[305.0672,147.54907],[-0.76017,-2.97976],[1.03838,4.07032]],[[310.6472,159.36771],[-3.80035,-2.52083],[5.22668,3.46693]],[[328.83869,155.0739],[-1.66733,6.7723],[0.85365,-3.24387]],[[330.06563,144.54515],[0.78666,3.41119],[-1.29463,-5.61394]],[[315.99034,131.1999],[5.86924,0.69214],[-2.35237,-0.27741]],[[307.72705,133.24934],[2.00768,-1.14145],[0,0]]],&quot;closed&quot;:true}],&quot;index&quot;:null}" fill="#ffffff" fill-rule="nonzero" stroke="#000000" stroke-width="2.5" stroke-linecap="butt"/><path d="M370.1416,25.65881c-0.38457,-1.93738 0.87426,-3.81972 2.81165,-4.20427c1.93738,-0.38457 3.81972,0.87426 4.20427,2.81165c0.38457,1.93738 -0.87426,3.81972 -2.81165,4.20427c-1.93738,0.38457 -3.81972,-0.87426 -4.20427,-2.81165z" data-paper-data="{&quot;index&quot;:null}" fill="#000000" fill-rule="nonzero" stroke="none" stroke-width="0.5" stroke-linecap="butt"/><path d="M355.5178,-13.41244c-0.38457,-1.93738 0.87426,-3.81972 2.81165,-4.20427c1.93738,-0.38457 3.81972,0.87426 4.20427,2.81165c0.38457,1.93738 -0.87426,3.81972 -2.81165,4.20427c-1.93738,0.38457 -3.81972,-0.87426 -4.20427,-2.81165z" data-paper-data="{&quot;index&quot;:null}" fill="#000000" fill-rule="nonzero" stroke="none" stroke-width="0.5" stroke-linecap="butt"/><path d="M442.42652,36.78925c-1.5945,0.31651 -1.91105,-1.27802 -1.91105,-1.27802l0.2264,-0.00321c-2.70192,-3.04642 -5.40525,-6.09157 -8.10114,-9.14329c-8.32186,-6.58136 -16.72976,-13.07352 -24.75466,-20.01435c-5.9608,-5.15555 -12.60032,-11.99375 -19.94339,-14.97686c0,0 -1.50232,-0.62113 -0.88117,-2.12342c0.62115,-1.50229 2.12342,-0.88117 2.12342,-0.88117c7.7025,3.23211 14.54485,10.08798 20.82802,15.52233c8.06369,6.97438 16.53293,13.46169 24.86393,20.11326c2.7699,3.11173 5.53314,6.22939 8.29742,9.34612l0.53025,1.52753c0,0 0.31651,1.5945 -1.27801,1.91101z" data-paper-data="{&quot;index&quot;:null}" fill="#000000" fill-rule="nonzero" stroke="none" stroke-width="0.5" stroke-linecap="butt"/><path d="M423.13052,-90.2614c1.3487,0.90759 0.44111,2.25628 0.44111,2.25628l-1.77088,2.6309c-4.91556,6.65721 -9.99271,13.20067 -14.45526,20.17129c-2.30616,3.60227 -4.82399,7.14382 -6.95281,10.85273c-4.41493,7.69192 -6.95885,16.50562 -10.93839,24.42546c-2.05493,4.08962 -4.75123,7.81538 -5.96213,12.28796c0,0 -0.43002,1.56773 -1.99774,1.13773c-1.56774,-0.43 -1.13773,-1.99772 -1.13773,-1.99772c1.30206,-4.69501 4.03131,-8.58671 6.19245,-12.88774c3.99749,-7.95557 6.56742,-16.7813 10.987,-24.51843c2.1591,-3.77984 4.72375,-7.38631 7.07112,-11.05296c4.48897,-7.01189 9.59027,-13.59679 14.53648,-20.29213l1.73047,-2.57224c0,0 0.90757,-1.3487 2.25627,-0.44113z" data-paper-data="{&quot;index&quot;:null}" fill="#000000" fill-rule="nonzero" stroke="none" stroke-width="0.5" stroke-linecap="butt"/><path d="M342.62042,-40.42311c0.19502,0.9808 -0.78579,1.17582 -0.78579,1.17582l-0.80273,0.15961c-3.71395,0.73846 -7.38534,1.74162 -11.12245,2.34955c-4.5697,0.74339 -9.31196,1.09587 -13.63351,2.86995c-3.9844,0.97707 -10.10168,2.36911 -12.74533,5.59187c-1.13635,1.38526 -0.97227,4.24504 -1.29365,5.90034c-1.03486,5.33003 -2.36612,10.80239 -2.79836,16.20571c-1.93715,8.017 -0.07052,17.8651 1.17467,25.87552c0.57201,3.67984 0.23171,7.23351 1.57994,10.78194c1.91383,6.50778 8.18159,10.85094 13.83308,13.98627c4.18129,2.3197 6.09541,3.98231 10.98364,3.98193c4.96719,-0.57673 9.63878,-0.51433 14.57612,-0.81269c1.57558,-0.09521 3.01853,-0.57629 4.61938,-0.47632c2.13871,0.13355 5.15203,1.24993 6.36322,-1.21078c0,0 0.47808,-0.87831 1.35639,-0.40024c0.87831,0.47808 0.40024,1.35639 0.40024,1.35639c-1.9068,3.3024 -5.02837,2.48147 -8.24704,2.25056c-1.47574,-0.10587 -2.90599,0.38708 -4.37024,0.47666c-4.94631,0.30257 -9.60952,0.24817 -14.58498,0.81323c-2.49191,-0.00586 -4.84113,0.18376 -7.15859,-0.96722c-1.74388,-0.8661 -3.1981,-2.31616 -4.90848,-3.26266c-6.10099,-3.37618 -12.68745,-8.10193 -14.75857,-15.09805c-1.38194,-3.67333 -1.06575,-7.30834 -1.65922,-11.10453c-1.2838,-8.21171 -3.14434,-18.28576 -1.17429,-26.50681c0.45779,-5.42858 1.76941,-10.91347 2.80978,-16.27014c0.40761,-2.09872 0.29455,-4.9313 1.65576,-6.71747c2.78086,-3.64902 9.38553,-5.23836 13.7281,-6.29547c4.42521,-1.81201 9.27456,-2.18095 13.9512,-2.94523c3.70664,-0.60576 7.34881,-1.60132 11.03315,-2.3339l0.80273,-0.15961c0,0 0.9808,-0.19502 1.17582,0.78579z" data-paper-data="{&quot;index&quot;:null}" fill="#000000" fill-rule="nonzero" stroke="none" stroke-width="0.5" stroke-linecap="butt"/></g></g><path d="M-2599.12754,1588.76399v-2817.23724h5838.0034v2817.23724z" fill="none" fill-rule="nonzero" stroke="#f00000" stroke-width="0" stroke-linecap="butt"/><path d="M-2599.12754,1588.76399v-2817.23724h5838.0034v2817.23724z" fill="none" fill-rule="nonzero" stroke="#f00000" stroke-width="0" stroke-linecap="butt"/></g></g></svg>