<svg version="1.1" xmlns="http://www.w3.org/2000/svg" xmlns:xlink="http://www.w3.org/1999/xlink" width="452.0536" height="275.59329" viewBox="0,0,452.0536,275.59329"><g transform="translate(-83.76912,-66.08173)"><g data-paper-data="{&quot;isPaintingLayer&quot;:true}" fill-rule="nonzero" stroke="none" stroke-linecap="butt" stroke-linejoin="miter" stroke-miterlimit="10" stroke-dasharray="" stroke-dashoffset="0" style="mix-blend-mode: normal"><path d="M309.79592,239.4134c124.83114,0 226.0268,22.89206 226.0268,51.13081c0,28.23883 -101.19566,51.13081 -226.0268,51.13081c-124.83114,0 -226.0268,-22.89206 -226.0268,-51.13081c0,-28.23874 101.19566,-51.13081 226.0268,-51.13081z" fill="#000000" stroke-width="0"/><path d="M105.15081,157.91995c-2.84054,-5.04976 -2.21606,-11.20925 -0.0699,-17.04624c0.3067,-1.30234 0.72932,-2.5066 1.2864,-3.58466c1.01841,-1.97082 3.44751,-7.82293 5.90209,-9.21766c0.72332,-0.94782 1.44407,-1.82587 2.14245,-2.61956c5.4737,-6.22068 10.15118,-13.39777 16.84769,-18.27782c4.90025,-3.57103 9.87111,-7.04554 14.87603,-10.46832c12.83936,-8.78062 31.01319,-13.90458 46.03779,-17.28426c5.89226,-1.32542 11.81915,-2.55012 17.6062,-4.27801c1.76077,-0.52573 9.50537,-3.78519 13.80335,-4.64214c11.04933,-2.20305 22.51245,-2.98692 33.68856,-3.82047c11.82439,-0.8819 23.72157,-0.6439 35.57105,-0.21508c2.01728,0.073 4.44763,0.04138 5.875,1.46875c2.79105,2.79105 5.875,6.3341 5.875,10.28125c0,7.7375 -5.56241,11.52114 -11.75,11.75c-11.27043,0.41686 -22.56302,-0.39023 -33.8344,0c-3.42002,0.11841 -6.76173,1.06207 -10.15263,1.52289c-3.9078,0.53107 -10.07133,0.3885 -12.57106,0.63431c-7.46049,0.73363 -13.72264,4.15354 -20.86975,5.84643c-14.43272,3.41859 -28.75587,6.00369 -42.39674,11.95862c-18.283,7.98145 -27.60522,14.72673 -40.42474,30.45122c-1.54839,1.89926 -3.23378,3.83942 -4.37563,6.007c-0.2512,2.21962 0.87893,7.95295 0.97946,8.49127c2.71856,14.557 8.88078,26.97419 15.33543,40.12289c1.70398,3.47116 5.65274,11.90254 7.77911,14.22169c13.7383,14.98387 31.6248,19.47142 49.9223,23.71996c0.13611,-0.83686 0.38,-1.6447 0.7603,-2.4053c5.3069,-10.6138 12.51522,-6.04669 19.3022,-3.4858c8.22823,3.10471 9.53181,3.40175 17.55976,8.88132c18.26705,12.4684 28.96664,33.71961 39.07981,52.6413c4.82953,9.03601 11.9858,17.39868 16.14635,26.41178c0.45573,0.98725 0.89574,4.90162 1.48068,6.65642l0.07181,0.14362c0.73287,1.392 1.19456,2.94902 1.31481,4.60077c0.08575,0.50293 0.12859,1.00968 0.1046,1.52226h-0.00005c-0.29805,6.36571 -4.67188,9.96091 -9.4729,10.85805c-0.7594,0.15417 -1.5454,0.2351 -2.3503,0.2351c-0.40072,0 -0.79676,-0.02006 -1.18717,-0.05923c-1.95297,-0.16918 -3.82904,-0.78351 -5.38128,-1.8381c-1.98045,-1.3455 -3.12294,-2.85534 -3.87903,-4.47026c-0.52982,-1.02633 -0.91285,-2.14075 -1.12132,-3.31552c-0.54804,-2.13838 -0.96036,-4.37783 -2.09306,-6.60599c-0.70098,-1.37891 -2.37069,-2.6547 -3.19072,-4.02541c-3.64655,-6.09535 -7.17491,-12.26075 -10.80433,-18.36631c-2.50283,-4.21035 -5.39165,-11.50454 -6.78415,-13.99519c-2.65536,-4.74944 -6.50423,-10.23741 -10.23905,-15.20073c-0.52345,0.07131 -1.05787,0.10814 -1.60089,0.10814c-2.50624,0 -4.82921,-0.78466 -6.73665,-2.12173c-1.33483,-0.93568 -2.46617,-2.14189 -3.31441,-3.53902c-3.86855,-3.94698 -21.1016,-7.44078 -26.94978,-8.97576l0.00001,0.00002c-5.3841,-1.41318 -11.33907,-0.8223 -16.56589,-2.587c-12.6888,-4.28404 -19.43989,-7.17795 -32.13463,-12.96275c-10.65845,-4.8569 -19.78987,-15.37867 -24.94912,-25.53041c-1.27531,-2.50939 -3.69917,-4.94647 -5.17975,-7.41408c-0.59006,-0.98343 -0.48186,-2.28526 -1.00325,-3.31933c-4.67396,-9.26984 -9.27737,-18.2048 -12.6079,-28.10684c-1.50069,-4.46174 -3.58299,-11.16437 -4.88209,-18.04072c-0.17363,-0.2235 -0.33279,-0.46137 -0.47568,-0.71539z" fill="#6f6f6f" stroke-width="0.5"/></g></g></svg>