<svg version="1.1" xmlns="http://www.w3.org/2000/svg" xmlns:xlink="http://www.w3.org/1999/xlink" width="460.92265" height="290.48597" viewBox="0,0,460.92265,290.48597"><g transform="translate(-83.76912,-51.18906)"><g data-paper-data="{&quot;isPaintingLayer&quot;:true}" fill-rule="nonzero" stroke="none" stroke-linecap="butt" stroke-linejoin="miter" stroke-miterlimit="10" stroke-dasharray="" stroke-dashoffset="0" style="mix-blend-mode: normal"><path d="M309.79592,239.4134c124.83114,0 226.0268,22.89206 226.0268,51.13081c0,28.23883 -101.19566,51.13081 -226.0268,51.13081c-124.83114,0 -226.0268,-22.89206 -226.0268,-51.13081c0,-28.23874 101.19566,-51.13081 226.0268,-51.13081z" fill="#000000" stroke-width="0"/><path d="M403.15851,274.8749c-3.75513,2.70206 -7.16576,5.77752 -11.1863,8.18984c-5.00823,3.00494 -15.62475,6.65429 -18.88735,11.41549c-4.70874,6.87159 -7.00706,16.42898 -7.88627,24.74312c-0.23461,2.21855 0.76508,10.56745 -1.46875,12.80128c-8.96182,8.96182 -20.63669,7.55023 -22.03125,-5.875c-1.11219,-10.70689 2.50355,-26.16802 6.42743,-36.17803c0.53911,-1.3753 2.24106,-2.88757 3.1027,-4.23647c1.24306,-1.94603 1.93958,-4.67588 3.69045,-6.42676c6.81646,-6.81646 15.68582,-11.74769 24.28618,-16.12469c-0.67414,-1.19466 -1.14386,-2.03463 -1.14312,-2.04782c0.13149,-2.36688 2.40118,-4.08918 3.52834,-6.17459c0.59424,-1.09944 1.63522,-3.66527 2.34666,-4.10666c3.43192,-2.12922 12.01355,-2.77116 19.32444,-3.10469c4.72593,-2.85735 9.25346,-6.04065 13.97216,-8.91222c3.01031,-1.83193 6.51199,-1.88065 9.72019,-3.12099c10.69014,-4.13299 19.71952,-11.31215 31.72874,-11.67521c0.21612,-0.00653 3.16945,-0.19074 6.39062,-0.13104c12.15548,-8.38622 24.03824,-17.22547 34.98532,-26.93975c4.30617,-3.82124 8.18398,-7.15537 12.83638,-10.55693c2.24646,-4.97918 4.45593,-9.97707 6.06863,-15.18545c4.5966,-14.84517 3.07414,-34.4203 0.81199,-49.36638c-1.79323,-11.84795 -5.42868,-24.82583 -14.71934,-32.99717c-8.66715,-7.62295 -21.77288,-10.99068 -34.51231,-12.51154c-2.74946,1.39377 -6.35102,1.43015 -9.46734,1.71646c-1.37035,0.1259 -2.30033,-1.87665 -3.67645,-1.87805c-11.4371,-0.01165 -22.87671,-0.16668 -34.31575,-0.28346c-2.73832,0.60141 -5.80049,1.12549 -7.71829,-0.07093c-13.97954,-0.11048 -27.9572,-0.10285 -41.92738,0.3544c-10.48408,0.34314 -20.82955,2.50291 -31.24235,3.77063c-10.36997,1.2625 -20.77015,2.3029 -31.10593,3.82003c-2.84927,0.41823 -5.66444,0.85569 -8.45318,1.30471c-2.15693,3.14103 -5.84875,4.73276 -9.79483,4.87872c-6.35798,0.23516 -12.72301,0.08081 -19.0873,-0.02836c-13.73569,2.21563 -27.48946,4.0298 -42.27524,4.43101c-1.75212,0.04754 -3.50804,0.1235 -5.26267,0.15329c-3.55768,1.20021 -7.05873,2.5609 -10.80262,3.44769c-14.43272,3.41859 -28.75587,6.00369 -42.39674,11.95862c-18.283,7.98145 -27.60522,14.72673 -40.42474,30.45122c-1.54839,1.89926 -3.23378,3.83942 -4.37563,6.007c-0.2512,2.21962 0.87893,7.95295 0.97946,8.49127c2.71856,14.557 8.88078,26.97419 15.33543,40.12289c1.70398,3.47116 5.65274,11.90254 7.77911,14.22169c13.7383,14.98387 31.6248,19.47142 49.9223,23.71996c0.13611,-0.83686 0.38,-1.6447 0.7603,-2.4053c5.3069,-10.6138 12.51522,-6.04669 19.3022,-3.4858c8.22823,3.10471 9.53181,3.40175 17.55976,8.88132c18.26705,12.4684 28.96664,33.71961 39.07981,52.6413c4.82953,9.03601 11.9858,17.39868 16.14635,26.41178c0.45573,0.98725 0.89574,4.90162 1.48068,6.65642l0.07181,0.14362c0.73287,1.392 1.19456,2.94902 1.31481,4.60077c0.08575,0.50293 0.12859,1.00968 0.1046,1.52226h-0.00005c-0.29805,6.36571 -4.67188,9.96091 -9.4729,10.85805c-0.7594,0.15417 -1.5454,0.2351 -2.3503,0.2351c-0.40072,0 -0.79676,-0.02006 -1.18717,-0.05923c-1.95297,-0.16918 -3.82904,-0.78351 -5.38128,-1.8381c-1.98045,-1.3455 -3.12294,-2.85534 -3.87903,-4.47026c-0.52982,-1.02633 -0.91285,-2.14075 -1.12132,-3.31552c-0.54804,-2.13838 -0.96036,-4.37783 -2.09306,-6.60599c-0.70098,-1.37891 -2.37069,-2.6547 -3.19072,-4.02541c-3.64655,-6.09535 -7.17491,-12.26075 -10.80433,-18.36631c-2.50283,-4.21035 -5.39165,-11.50454 -6.78415,-13.99519c-2.65536,-4.74944 -6.50423,-10.23741 -10.23905,-15.20073c-0.52345,0.07131 -1.05787,0.10814 -1.60089,0.10814c-2.50624,0 -4.82921,-0.78466 -6.73665,-2.12173c-1.33483,-0.93568 -2.46617,-2.14189 -3.31441,-3.53902c-3.86855,-3.94698 -21.1016,-7.44078 -26.94978,-8.97576l0.00001,0.00002c-5.3841,-1.41318 -11.33907,-0.8223 -16.56589,-2.587c-12.6888,-4.28404 -19.43989,-7.17795 -32.13463,-12.96275c-10.65845,-4.8569 -19.78987,-15.37867 -24.94912,-25.53041c-1.27531,-2.50939 -3.69917,-4.94647 -5.17975,-7.41408c-0.59006,-0.98343 -0.48186,-2.28526 -1.00325,-3.31933c-4.67396,-9.26984 -9.27737,-18.2048 -12.6079,-28.10684c-1.50069,-4.46174 -3.58299,-11.16437 -4.88209,-18.04072c-0.17363,-0.2235 -0.33279,-0.46137 -0.47568,-0.71539l0.00001,0.00003c-2.84054,-5.04976 -2.21606,-11.20925 -0.0699,-17.04624c0.3067,-1.30234 0.72932,-2.5066 1.2864,-3.58466c1.01841,-1.97082 3.44751,-7.82293 5.90209,-9.21766c0.72332,-0.94782 1.44407,-1.82587 2.14245,-2.61956c5.4737,-6.22068 10.15118,-13.39777 16.84769,-18.27782c4.90025,-3.57103 9.87111,-7.04554 14.87603,-10.46832c12.83936,-8.78062 31.01319,-13.90458 46.03779,-17.28426c5.89226,-1.32542 11.81915,-2.55012 17.6062,-4.27801c0.50284,-0.15014 1.49368,-0.52322 2.7529,-0.99963c0.32846,-0.31514 0.67519,-0.61139 1.03845,-0.88698c0.36174,-0.3502 0.76508,-0.65852 1.22031,-0.91459l-0.00003,-0.00001c0.60026,-0.33765 1.32558,-0.62427 2.15267,-0.86692c0.68606,-0.22897 1.40028,-0.39638 2.13611,-0.49567c1.49066,-0.27216 3.1769,-0.45421 4.97491,-0.57154c10.90355,-2.13217 22.19951,-2.90558 33.21656,-3.72727c6.06513,-0.45236 12.14942,-0.61007 18.23659,-0.59851c1.0926,-0.18938 2.18553,-0.37607 3.27902,-0.5584c30.78427,-5.13305 61.51362,-9.16981 92.53737,-12.74761c17.34464,-2.00026 34.82801,-1.63949 52.32454,-1.02539c10.34196,-1.18314 23.9648,-0.13808 25.95911,-0.08825l-0.00001,-0.00001c24.73487,0.61799 49.8271,3.00033 69.89869,18.64462c17.74985,13.83468 23.60914,39.58242 24.61724,60.80029c1.13701,23.93131 1.38538,36.83393 -7.3784,57.9735c-0.79566,1.91925 -1.59489,3.83191 -2.4028,5.73631c-0.05163,0.5195 -0.15786,1.07279 -0.32404,1.66558l0.00001,0c-0.45873,1.63636 -1.25706,3.06138 -2.26752,4.33145c-5.13696,11.64116 -10.80954,22.90076 -18.21796,33.388c-4.31821,6.11279 -12.31286,12.25895 -20.18386,4.38795c-1.17553,-1.17553 -1.91355,-2.68722 -2.37406,-4.33827c-19.25206,14.95362 -38.92091,26.84582 -64.23362,32.85066c-3.38711,0.80351 -4.59141,3.42875 -8.83038,3.57926c-2.6888,0.09546 -5.38141,0.00156 -8.07284,-0.04528c-2.33411,1.34493 -4.59713,2.73939 -6.68004,4.23817z" fill="#6f6f6f" stroke-width="0.5"/></g></g></svg>