<svg version="1.1" xmlns="http://www.w3.org/2000/svg" xmlns:xlink="http://www.w3.org/1999/xlink" width="452.0536" height="251.91847" viewBox="0,0,452.0536,251.91847"><g transform="translate(-83.76912,-89.75654)"><g data-paper-data="{&quot;isPaintingLayer&quot;:true}" fill-rule="nonzero" stroke="none" stroke-linecap="butt" stroke-linejoin="miter" stroke-miterlimit="10" stroke-dasharray="" stroke-dashoffset="0" style="mix-blend-mode: normal"><path d="M309.79592,239.4134c124.83114,0 226.0268,22.89206 226.0268,51.13081c0,28.23883 -101.19566,51.13081 -226.0268,51.13081c-124.83114,0 -226.0268,-22.89206 -226.0268,-51.13081c0,-28.23874 101.19566,-51.13081 226.0268,-51.13081z" fill="#000000" stroke-width="0"/><path d="M381.93457,253.49362c-2.74874,1.9779 -5.24531,4.22912 -8.18832,5.99493c-3.666,2.1996 -11.43725,4.87091 -13.82546,8.35609c-3.44678,5.02997 -5.12914,12.02594 -5.77272,18.11186c-0.17173,1.62397 0.56004,7.73533 -1.07512,9.37048c-6.56001,6.56001 -15.10597,5.52674 -16.12678,-4.30047c-0.81412,-7.8374 1.83259,-19.15488 4.70485,-26.48216c0.39463,-1.00671 1.64045,-2.11369 2.27116,-3.10108c0.90991,-1.42449 1.41976,-3.42272 2.70139,-4.70436c4.98962,-4.98962 11.48195,-8.59926 17.77738,-11.8032c-0.49347,-0.87449 -0.8373,-1.48934 -0.83676,-1.499c0.09625,-1.73255 1.75765,-2.99326 2.58273,-4.51977c0.43498,-0.80479 1.19697,-2.68296 1.71775,-3.00606c2.51215,-1.55858 8.79387,-2.02848 14.14541,-2.27262c3.45936,-2.09157 6.77349,-4.42173 10.22756,-6.52371c2.20353,-1.34096 4.76675,-1.37663 7.11514,-2.28455c7.82514,-3.02533 14.4346,-8.28045 23.2253,-8.5462c0.1582,-0.00478 2.32002,-0.13962 4.67791,-0.09592c8.89776,-6.13868 17.59589,-12.60897 25.6091,-19.71978c3.1521,-2.79713 5.99064,-5.2377 9.39617,-7.72763c1.6444,-3.64474 3.26172,-7.30317 4.44221,-11.11568c3.36469,-10.8666 2.25026,-25.19551 0.59437,-36.13598c-1.31264,-8.67265 -3.97377,-18.1724 -10.77449,-24.15379c-6.34432,-5.57997 -15.93765,-8.04513 -25.26286,-9.15839c-2.01259,1.02023 -4.64892,1.04686 -6.93005,1.25644c-1.00309,0.09216 -1.68383,-1.3737 -2.69115,-1.37472c-8.37191,-0.00853 -16.74565,-0.12201 -25.11898,-0.20749c-2.00444,0.44023 -4.24593,0.82385 -5.64976,-0.05192c-10.23296,-0.08087 -20.46455,-0.07529 -30.69066,0.25942c-7.6743,0.25118 -15.24714,1.83212 -22.86927,2.76008c-7.59077,0.92414 -15.20366,1.68571 -22.76941,2.79625c-2.08565,0.30614 -4.14635,0.62636 -6.18769,0.95504c-1.57886,2.29922 -4.28126,3.46436 -7.16977,3.5712c-4.65401,0.17214 -9.31319,0.05915 -13.97182,-0.02076c-10.05447,1.62183 -20.12217,2.9498 -30.94529,3.24348c-1.28254,0.0348 -2.56787,0.0904 -3.85225,0.11221c-2.60421,0.87855 -5.16696,1.87457 -7.90747,2.52369c-10.56469,2.50239 -21.04917,4.39468 -31.03423,8.75366c-13.38308,5.84239 -20.2069,10.7799 -29.59074,22.29016c-1.13341,1.39025 -2.36711,2.81044 -3.20294,4.3971c-0.18388,1.62475 0.64337,5.82153 0.71696,6.21557c1.98997,10.65566 6.50069,19.74499 11.22547,29.36978c1.24731,2.54087 4.13778,8.71261 5.69428,10.41022c10.05638,10.96813 23.14922,14.253 36.54291,17.36291c0.09963,-0.61258 0.27816,-1.20391 0.55654,-1.76067c3.88463,-7.76926 9.16109,-4.42615 14.12913,-2.55159c6.02303,2.27263 6.97724,2.49007 12.85367,6.50109c13.3714,9.12682 21.20346,24.68261 28.60625,38.53321c3.5352,6.61432 8.77355,12.73576 11.81906,19.33331c0.33359,0.72266 0.65568,3.58796 1.08385,4.87247l0.05256,0.10513c0.53646,1.01894 0.87441,2.15867 0.96244,3.36774c0.06277,0.36814 0.09413,0.73908 0.07657,1.11429h-0.00004c-0.21817,4.65967 -3.4198,7.29134 -6.93412,7.94805c-0.55588,0.11285 -1.13123,0.17209 -1.72041,0.17209c-0.29333,0 -0.58322,-0.01468 -0.869,-0.04336c-1.42957,-0.12384 -2.80284,-0.57353 -3.93907,-1.34548c-1.44968,-0.9849 -2.28598,-2.0901 -2.83943,-3.27221c-0.38783,-0.75127 -0.6682,-1.56702 -0.8208,-2.42695c-0.40116,-1.56528 -0.70298,-3.20455 -1.53211,-4.83556c-0.51311,-1.00936 -1.73533,-1.94323 -2.33559,-2.94658c-2.66926,-4.46177 -5.252,-8.97482 -7.90872,-13.44406c-1.83206,-3.08196 -3.94666,-8.42127 -4.96597,-10.24442c-1.94371,-3.47657 -4.76107,-7.49374 -7.49494,-11.12687c-0.38316,0.0522 -0.77436,0.07916 -1.17184,0.07916c-1.83456,0 -3.53496,-0.57437 -4.9312,-1.5531c-0.97709,-0.68491 -1.80523,-1.56785 -2.42613,-2.59055c-2.83176,-2.88917 -15.44628,-5.44662 -19.72712,-6.57022l0.00001,0.00001c-3.94114,-1.03444 -8.30015,-0.60192 -12.12616,-1.89367c-9.28815,-3.1359 -14.22992,-5.25423 -23.52241,-9.48868c-7.80194,-3.55523 -14.4861,-11.25712 -18.26265,-18.68815c-0.93352,-1.83686 -2.70778,-3.62079 -3.79155,-5.42707c-0.43192,-0.71987 -0.35272,-1.6728 -0.73437,-2.42974c-3.42132,-6.78548 -6.79099,-13.32584 -9.22893,-20.57409c-1.0985,-3.26597 -2.62273,-8.17227 -3.57367,-13.20573c-0.1271,-0.1636 -0.2436,-0.33772 -0.3482,-0.52366l0.00001,0.00002c-2.07926,-3.6964 -1.62215,-8.20512 -0.05117,-12.47777c0.2245,-0.95331 0.53386,-1.83482 0.94164,-2.62396c0.74547,-1.44263 2.52356,-5.72635 4.3203,-6.74729c0.52947,-0.6938 1.05705,-1.33653 1.56826,-1.91751c4.00672,-4.55351 7.43062,-9.80711 12.33244,-13.37929c3.58696,-2.61398 7.22561,-5.15731 10.88919,-7.66277c9.39836,-6.42738 22.70152,-10.17809 33.69946,-12.652c4.31311,-0.9702 8.65157,-1.86668 12.88766,-3.13148c0.36808,-0.1099 1.09337,-0.38299 2.01511,-0.73172c0.24043,-0.23068 0.49424,-0.44753 0.76014,-0.64927c0.26479,-0.25634 0.56004,-0.48203 0.89326,-0.66948l-0.00002,-0.00001c0.43939,-0.24716 0.97032,-0.45696 1.57575,-0.63458c0.50219,-0.16761 1.025,-0.29015 1.56362,-0.36283c1.09116,-0.19922 2.32548,-0.33248 3.64161,-0.41836c7.98135,-1.56074 16.24995,-2.12687 24.31438,-2.72835c4.43965,-0.33113 8.89332,-0.44657 13.34911,-0.43811c0.79978,-0.13863 1.5998,-0.27528 2.40023,-0.40875c22.53395,-3.75737 45.02771,-6.71226 67.73696,-9.3312c12.6962,-1.46418 25.49395,-1.2001 38.30134,-0.75058c7.57027,-0.86605 17.54213,-0.10107 19.00196,-0.0646l-0.00001,-0.00001c18.10582,0.45237 36.47322,2.19623 51.16554,13.64778c12.99281,10.12693 17.28179,28.97416 18.01971,44.50555c0.83229,17.51762 1.01409,26.96228 -5.40096,42.43635c-0.58242,1.40488 -1.16745,2.80494 -1.75884,4.19895c-0.03779,0.38027 -0.11555,0.78528 -0.2372,1.2192h0.00001c-0.33579,1.19781 -0.92016,2.24092 -1.65981,3.1706c-3.76023,8.52128 -7.91254,16.76326 -13.33547,24.43987c-3.16091,4.47454 -9.01296,8.9735 -14.7745,3.21196c-0.86048,-0.86048 -1.40071,-1.96703 -1.7378,-3.17559c-14.09243,10.94599 -28.48994,19.65102 -47.01873,24.04654c-2.47935,0.58817 -3.36089,2.50983 -6.4638,2.62c-1.96819,0.06988 -3.93917,0.00114 -5.90928,-0.03314c-1.70856,0.98448 -3.36508,2.00522 -4.88976,3.10232z" fill="#6f6f6f" stroke-width="0.5"/></g></g></svg>