<svg version="1.1" xmlns="http://www.w3.org/2000/svg" xmlns:xlink="http://www.w3.org/1999/xlink" width="452.0536" height="139.52181" viewBox="0,0,452.0536,139.52181"><g transform="translate(-83.76912,-202.15321)"><g data-paper-data="{&quot;isPaintingLayer&quot;:true}" fill-rule="nonzero" stroke="none" stroke-linecap="butt" stroke-linejoin="miter" stroke-miterlimit="10" stroke-dasharray="" stroke-dashoffset="0" style="mix-blend-mode: normal"><path d="M309.79592,239.4134c124.83114,0 226.0268,22.89206 226.0268,51.13081c0,28.23883 -101.19566,51.13081 -226.0268,51.13081c-124.83114,0 -226.0268,-22.89206 -226.0268,-51.13081c0,-28.23874 101.19566,-51.13081 226.0268,-51.13081z" fill="#000000" stroke-width="0"/><path d="M355.55627,291.38256c-1.49794,1.07787 -2.85846,2.30468 -4.46227,3.26697c-1.9978,1.19868 -6.23279,2.65443 -7.53425,4.55369c-1.87834,2.74111 -2.79515,6.5536 -3.14587,9.87015c-0.09359,0.88499 0.3052,4.21541 -0.58589,5.10649c-3.57491,3.57491 -8.23207,3.01182 -8.78837,-2.34356c-0.44366,-4.27103 0.99868,-10.43855 2.56393,-14.43159c0.21506,-0.54861 0.89397,-1.15187 1.23768,-1.68995c0.49586,-0.77628 0.77371,-1.86523 1.47214,-2.56366c2.71912,-2.71912 6.25715,-4.68621 9.68787,-6.43221c-0.26892,-0.47656 -0.45629,-0.81162 -0.456,-0.81689c0.05245,-0.94416 0.95784,-1.63119 1.40747,-2.46307c0.23704,-0.43857 0.65229,-1.46209 0.9361,-1.63817c1.36901,-0.84936 4.79226,-1.10543 7.70861,-1.23848c1.8852,-1.13981 3.69125,-2.40964 5.57356,-3.55513c1.20082,-0.73076 2.59766,-0.7502 3.87743,-1.24498c4.26435,-1.64867 7.86621,-4.51247 12.65674,-4.65729c0.08621,-0.0026 1.26431,-0.07609 2.54925,-0.05227c4.84888,-3.3453 9.58897,-6.87132 13.95581,-10.74639c1.71775,-1.52431 3.26463,-2.85431 5.12049,-4.21121c0.89612,-1.98622 1.77749,-3.9799 2.4208,-6.05755c1.8336,-5.92181 1.22629,-13.73042 0.3239,-19.69248c-0.71533,-4.7262 -2.16553,-9.90314 -5.87161,-13.16273c-3.45737,-3.04083 -8.6853,-4.38423 -13.76712,-4.99091c-1.09677,0.55598 -2.53345,0.57049 -3.77657,0.6847c-0.54664,0.05022 -0.91761,-0.7486 -1.46656,-0.74916c-4.56231,-0.00465 -9.12563,-0.06649 -13.68871,-0.11307c-1.09233,0.23991 -2.31384,0.44896 -3.07886,-0.02829c-5.5765,-0.04407 -11.15226,-0.04103 -16.72503,0.14137c-4.18215,0.13688 -8.30901,0.99842 -12.46272,1.50412c-4.13663,0.50361 -8.28531,0.91864 -12.4083,1.52383c-1.13659,0.16683 -2.25957,0.34134 -3.37201,0.52045c-0.86041,1.25297 -2.33309,1.88792 -3.9072,1.94614c-2.53623,0.09381 -5.07527,0.03223 -7.61401,-0.01131c-5.47923,0.88382 -10.96568,1.60751 -16.86379,1.76755c-0.69893,0.01896 -1.39937,0.04926 -2.0993,0.06115c-1.41918,0.47877 -2.81576,1.02156 -4.30922,1.3753c-5.75728,1.36369 -11.47085,2.3949 -16.91226,4.77035c-7.29318,3.18384 -11.01185,5.87456 -16.12562,12.14713c-0.61766,0.75762 -1.28997,1.53156 -1.74546,2.39622c-0.10021,0.88542 0.35061,3.17247 0.39071,3.38721c1.08444,5.80686 3.54258,10.76013 6.11738,16.00521c0.67973,1.38466 2.2549,4.74798 3.10313,5.6731c5.48027,5.97714 12.61528,7.76724 19.91424,9.462c0.05429,-0.33383 0.15158,-0.65608 0.30329,-0.95949c2.11695,-4.2339 4.99238,-2.41205 7.69974,-1.3905c3.28228,1.23848 3.80228,1.35698 7.00467,3.5428c7.28681,4.97371 11.55493,13.45091 15.58912,20.99887c1.92652,3.60451 4.78119,6.94042 6.44086,10.53578c0.18179,0.39382 0.35732,1.95528 0.59065,2.65528l0.02864,0.05729c0.29235,0.55528 0.47651,1.17638 0.52449,1.83527c0.03421,0.20062 0.0513,0.40277 0.04173,0.60724h-0.00002c-0.11889,2.53931 -1.86364,3.97345 -3.77878,4.33133c-0.30293,0.0615 -0.61647,0.09378 -0.93755,0.09378c-0.15985,0 -0.31783,-0.008 -0.47357,-0.02363c-0.77905,-0.06749 -1.52742,-0.31255 -2.14662,-0.73323c-0.79001,-0.53673 -1.24576,-1.13901 -1.54736,-1.78321c-0.21135,-0.40941 -0.36414,-0.85396 -0.4473,-1.32258c-0.21861,-0.85301 -0.38309,-1.74634 -0.83493,-2.63516c-0.27962,-0.55006 -0.94568,-1.05897 -1.27279,-1.60575c-1.45463,-2.43146 -2.8621,-4.89087 -4.3099,-7.32641c-0.99839,-1.67953 -2.15075,-4.58921 -2.70623,-5.58275c-1.05923,-1.89457 -2.59457,-4.08375 -4.0844,-6.06364c-0.2088,0.02845 -0.42199,0.04314 -0.6386,0.04314c-0.99975,0 -1.92639,-0.31301 -2.68728,-0.84637c-0.53247,-0.37325 -0.98377,-0.85441 -1.32213,-1.41173c-1.54318,-1.57447 -8.41753,-2.96816 -10.75039,-3.58047l0.00001,0.00001c-2.14774,-0.56372 -4.52321,-0.32802 -6.60821,-1.03196c-5.06162,-1.70892 -7.75467,-2.86332 -12.81865,-5.1709c-4.25171,-1.93744 -7.89427,-6.13462 -9.95232,-10.1842c-0.50873,-1.00101 -1.47562,-1.97317 -2.06622,-2.95751c-0.23538,-0.3923 -0.19222,-0.9116 -0.4002,-1.3241c-1.86447,-3.69778 -3.70078,-7.26198 -5.02935,-11.21195c-0.59863,-1.77981 -1.42927,-4.45352 -1.94749,-7.19653c-0.06926,-0.08915 -0.13275,-0.18404 -0.18975,-0.28537l0.00001,0.00001c-1.1331,-2.01437 -0.884,-4.47142 -0.02789,-6.79982c0.12234,-0.51951 0.29093,-0.99989 0.51315,-1.42994c0.40625,-0.78617 1.37523,-3.1206 2.35437,-3.67697c0.28854,-0.37809 0.57604,-0.72835 0.85463,-1.04496c2.18348,-2.48146 4.04935,-5.34443 6.72062,-7.29111c1.95473,-1.4245 3.93763,-2.8105 5.93412,-4.17586c5.12168,-3.50263 12.37131,-5.5466 18.36469,-6.89477c2.35045,-0.52872 4.71472,-1.01726 7.02319,-1.70652c0.20059,-0.05989 0.59584,-0.20871 1.09814,-0.39875c0.13102,-0.12571 0.26934,-0.24388 0.41424,-0.35382c0.1443,-0.13969 0.3052,-0.26268 0.48679,-0.36484l-0.00001,-0.00001c0.23945,-0.13469 0.52878,-0.24902 0.85871,-0.34582c0.27367,-0.09134 0.55858,-0.15812 0.8521,-0.19773c0.59463,-0.10857 1.26728,-0.18119 1.98451,-0.22799c4.34948,-0.85053 8.85549,-1.15905 13.25024,-1.48683c2.41941,-0.18045 4.84646,-0.24336 7.27466,-0.23875c0.43584,-0.07555 0.87182,-0.15002 1.30802,-0.22275c12.27999,-2.0476 24.53808,-3.65788 36.91359,-5.08508c6.91886,-0.79791 13.89306,-0.654 20.87251,-0.40903c4.12546,-0.47196 9.55967,-0.05508 10.35521,-0.0352l-0.00001,-0.00001c9.86686,0.24652 19.87626,1.19685 27.88292,7.43743c7.0805,5.51872 9.4178,15.78961 9.81993,24.25352c0.45356,9.54631 0.55263,14.69323 -2.94328,23.1259c-0.31739,0.7656 -0.63621,1.52857 -0.95849,2.28824c-0.02059,0.20723 -0.06297,0.42794 -0.12926,0.66441h0.00001c-0.18299,0.65275 -0.50145,1.2212 -0.90452,1.72783c-2.04916,4.64371 -4.31198,9.13522 -7.26723,13.31863c-1.72255,2.43842 -4.91166,4.89015 -8.05144,1.75037c-0.46892,-0.46892 -0.76332,-1.07194 -0.94702,-1.73055c-7.67974,5.96507 -15.52574,10.70892 -25.62309,13.10428c-1.35113,0.32053 -1.83153,1.36774 -3.52248,1.42778c-1.07257,0.03808 -2.14667,0.00062 -3.22029,-0.01806c-0.93109,0.5365 -1.83382,1.09275 -2.6647,1.69062z" fill="#6f6f6f" stroke-width="0.5"/></g></g></svg>