<svg version="1.1" xmlns="http://www.w3.org/2000/svg" xmlns:xlink="http://www.w3.org/1999/xlink" width="452.0536" height="102.26162" viewBox="0,0,452.0536,102.26162"><g transform="translate(-83.76912,-239.4134)"><g data-paper-data="{&quot;isPaintingLayer&quot;:true}" fill-rule="nonzero" stroke="none" stroke-linecap="butt" stroke-linejoin="miter" stroke-miterlimit="10" stroke-dasharray="" stroke-dashoffset="0" style="mix-blend-mode: normal"><path d="M309.79592,239.4134c124.83114,0 226.0268,22.89206 226.0268,51.13081c0,28.23883 -101.19566,51.13081 -226.0268,51.13081c-124.83114,0 -226.0268,-22.89206 -226.0268,-51.13081c0,-28.23874 101.19566,-51.13081 226.0268,-51.13081z" fill="#000000" stroke-width="0"/><path d="M308.35401,289.20547c-0.51374,0.36967 -0.98034,0.79042 -1.53039,1.12045c-0.68517,0.4111 -2.13761,0.91037 -2.58396,1.56174c-0.6442,0.9401 -0.95863,2.24764 -1.07891,3.38509c-0.0321,0.30352 0.10467,1.44573 -0.20094,1.75133c-1.22606,1.22606 -2.82329,1.03294 -3.01408,-0.80375c-0.15216,-1.4648 0.34251,-3.58003 0.87933,-4.94949c0.07376,-0.18815 0.3066,-0.39505 0.42448,-0.57959c0.17006,-0.26623 0.26535,-0.6397 0.50489,-0.87924c0.93255,-0.93255 2.14596,-1.60719 3.32257,-2.206c-0.09223,-0.16344 -0.15649,-0.27835 -0.15639,-0.28016c0.01799,-0.32381 0.3285,-0.55944 0.48271,-0.84474c0.0813,-0.15041 0.22371,-0.50144 0.32105,-0.56183c0.46952,-0.2913 1.64356,-0.37912 2.64376,-0.42475c0.64655,-0.39091 1.26596,-0.82642 1.91152,-1.21927c0.41184,-0.25062 0.8909,-0.25729 1.32981,-0.42698c1.46251,-0.56543 2.69781,-1.54761 4.34078,-1.59727c0.02957,-0.00089 0.43361,-0.0261 0.8743,-0.01793c1.66298,-1.14731 3.28865,-2.3566 4.78631,-3.6856c0.58912,-0.52278 1.11964,-0.97892 1.75613,-1.44429c0.30734,-0.6812 0.60961,-1.36495 0.83024,-2.07751c0.62886,-2.03096 0.42057,-4.70901 0.11109,-6.75377c-0.24533,-1.62091 -0.74269,-3.3964 -2.01374,-4.51432c-1.18575,-1.04289 -2.97873,-1.50362 -4.7216,-1.71169c-0.37615,0.19068 -0.86888,0.19566 -1.29522,0.23483c-0.18748,0.01722 -0.31471,-0.25674 -0.50297,-0.25693c-1.5647,-0.00159 -3.12974,-0.0228 -4.69471,-0.03878c-0.37463,0.08228 -0.79356,0.15398 -1.05593,-0.0097c-1.91253,-0.01511 -3.8248,-0.01407 -5.73605,0.04848c-1.43432,0.04694 -2.84967,0.34242 -4.27424,0.51586c-1.41871,0.17272 -2.84155,0.31506 -4.25558,0.52262c-0.38981,0.05722 -0.77495,0.11707 -1.15647,0.17849c-0.29509,0.42972 -0.80016,0.64748 -1.34002,0.66745c-0.86983,0.03217 -1.74062,0.01105 -2.61132,-0.00388c-1.87917,0.30312 -3.76081,0.55131 -5.78364,0.6062c-0.23971,0.0065 -0.47993,0.01689 -0.71998,0.02097c-0.48672,0.1642 -0.9657,0.35036 -1.4779,0.47168c-1.97453,0.46769 -3.93407,0.82136 -5.80026,1.63605c-2.50128,1.09194 -3.77665,2.01475 -5.53048,4.166c-0.21183,0.25983 -0.44241,0.52527 -0.59863,0.82181c-0.03437,0.30367 0.12025,1.08804 0.134,1.16168c0.37192,1.99153 1.21497,3.69032 2.09803,5.48918c0.23312,0.47489 0.77335,1.62838 1.06426,1.94566c1.87952,2.04993 4.32656,2.66387 6.82983,3.24511c0.01862,-0.11449 0.05199,-0.22501 0.10402,-0.32907c0.72603,-1.45207 1.7122,-0.82724 2.64072,-0.47689c1.1257,0.42475 1.30404,0.46539 2.40234,1.21505c2.4991,1.70579 3.9629,4.61315 5.34648,7.20182c0.66072,1.23621 1.63977,2.3803 2.20897,3.61337c0.06235,0.13507 0.12255,0.67059 0.20257,0.91066l0.00982,0.01965c0.10026,0.19044 0.16342,0.40345 0.17988,0.62943c0.01173,0.06881 0.01759,0.13813 0.01431,0.20826h-0.00001c-0.04077,0.87089 -0.63916,1.36274 -1.29598,1.48548c-0.10389,0.02109 -0.21143,0.03216 -0.32154,0.03216c-0.05482,0 -0.109,-0.00274 -0.16242,-0.0081c-0.26718,-0.02315 -0.52385,-0.10719 -0.73621,-0.25147c-0.27094,-0.18408 -0.42725,-0.39064 -0.53069,-0.61157c-0.07249,-0.14041 -0.12489,-0.29288 -0.15341,-0.45359c-0.07497,-0.29255 -0.13139,-0.59893 -0.28635,-0.90376c-0.0959,-0.18865 -0.32433,-0.36319 -0.43652,-0.55071c-0.49888,-0.8339 -0.98159,-1.67738 -1.47813,-2.51268c-0.34241,-0.57602 -0.73763,-1.57392 -0.92813,-1.91467c-0.36328,-0.64977 -0.88984,-1.40057 -1.40079,-2.0796c-0.07161,0.00976 -0.14473,0.0148 -0.21902,0.0148c-0.34288,0 -0.66068,-0.10735 -0.92164,-0.29027c-0.18262,-0.12801 -0.3374,-0.29303 -0.45344,-0.48417c-0.52925,-0.53998 -2.88689,-1.01797 -3.68698,-1.22797l0,0c-0.73659,-0.19333 -1.55129,-0.1125 -2.26637,-0.35392c-1.73594,-0.58609 -2.65956,-0.98201 -4.39631,-1.77342c-1.45818,-0.66447 -2.70743,-2.10394 -3.41327,-3.49279c-0.17448,-0.34331 -0.50608,-0.67672 -0.70864,-1.01431c-0.08073,-0.13454 -0.06592,-0.31264 -0.13725,-0.45412c-0.63944,-1.2682 -1.26923,-2.49058 -1.72488,-3.84527c-0.20531,-0.61041 -0.49019,-1.52739 -0.66792,-2.46814c-0.02375,-0.03058 -0.04553,-0.06312 -0.06508,-0.09787l0,0c-0.38861,-0.69085 -0.30318,-1.53353 -0.00957,-2.33208c0.04196,-0.17817 0.09978,-0.34292 0.17599,-0.49042c0.13933,-0.26963 0.47165,-1.07025 0.80746,-1.26106c0.09896,-0.12967 0.19756,-0.2498 0.29311,-0.35838c0.74885,-0.85105 1.38877,-1.83294 2.30492,-2.50057c0.6704,-0.48855 1.35046,-0.96389 2.03518,-1.43216c1.75654,-1.20127 4.24289,-1.90227 6.29839,-2.36464c0.80612,-0.18133 1.61697,-0.34888 2.40869,-0.58527c0.06879,-0.02054 0.20435,-0.07158 0.37662,-0.13676c0.04493,-0.04311 0.09237,-0.08364 0.14207,-0.12135c0.04949,-0.04791 0.10467,-0.09009 0.16695,-0.12513l0,0c0.08212,-0.04619 0.18135,-0.0854 0.2945,-0.1186c0.09386,-0.03133 0.19157,-0.05423 0.29224,-0.06781c0.20394,-0.03724 0.43463,-0.06214 0.68061,-0.07819c1.49171,-0.2917 3.0371,-0.39751 4.54433,-0.50993c0.82977,-0.06189 1.66215,-0.08346 2.49493,-0.08188c0.14948,-0.02591 0.299,-0.05145 0.4486,-0.07639c4.21157,-0.70225 8.41563,-1.25451 12.65996,-1.74399c2.37291,-0.27365 4.76479,-0.2243 7.15848,-0.14028c1.41488,-0.16186 3.2786,-0.01889 3.55144,-0.01207l0,0c3.38396,0.08455 6.8168,0.41047 9.56278,2.55076c2.42834,1.89271 3.22995,5.41524 3.36786,8.31804c0.15555,3.27402 0.18953,5.03922 -1.00943,7.93131c-0.10885,0.26257 -0.2182,0.52424 -0.32873,0.78478c-0.00706,0.07107 -0.0216,0.14677 -0.04433,0.22787h0c-0.06276,0.22387 -0.17198,0.41883 -0.31022,0.59258c-0.70278,1.59262 -1.47885,3.13303 -2.49238,4.56778c-0.59077,0.83629 -1.68451,1.67714 -2.76134,0.60031c-0.16082,-0.16082 -0.26179,-0.36763 -0.32479,-0.59351c-2.63386,2.04579 -5.32474,3.67275 -8.78775,4.49427c-0.46339,0.10993 -0.62815,0.46908 -1.20808,0.48967c-0.36785,0.01306 -0.73623,0.00021 -1.10444,-0.00619c-0.31933,0.184 -0.62893,0.37477 -0.91389,0.57982z" fill="#6f6f6f" stroke-width="0.5"/></g></g></svg>