<svg version="1.1" xmlns="http://www.w3.org/2000/svg" xmlns:xlink="http://www.w3.org/1999/xlink" width="452.0536" height="117.82986" viewBox="0,0,452.0536,117.82986"><g transform="translate(-83.76912,-223.84516)"><g data-paper-data="{&quot;isPaintingLayer&quot;:true}" fill-rule="nonzero" stroke="none" stroke-linecap="butt" stroke-linejoin="miter" stroke-miterlimit="10" stroke-dasharray="" stroke-dashoffset="0" style="mix-blend-mode: normal"><path d="M309.79592,239.4134c124.83114,0 226.0268,22.89206 226.0268,51.13081c0,28.23883 -101.19566,51.13081 -226.0268,51.13081c-124.83114,0 -226.0268,-22.89206 -226.0268,-51.13081c0,-28.23874 101.19566,-51.13081 226.0268,-51.13081z" fill="#000000" stroke-width="0"/><path d="M298.05416,327.90841c-0.29805,6.36571 -4.67188,9.96091 -9.4729,10.85805c-0.7594,0.15417 -1.5454,0.2351 -2.3503,0.2351c-0.40072,0 -0.79676,-0.02006 -1.18717,-0.05923c-1.95297,-0.16918 -3.82904,-0.78351 -5.38128,-1.8381c-1.98045,-1.3455 -3.12294,-2.85534 -3.87903,-4.47026c-0.52982,-1.02633 -0.91285,-2.14075 -1.12132,-3.31552c-0.54804,-2.13838 -0.96036,-4.37783 -2.09306,-6.60599c-0.70098,-1.37891 -2.37069,-2.6547 -3.19072,-4.02541c-3.64655,-6.09535 -7.17491,-12.26075 -10.80433,-18.36631c-2.50283,-4.21035 -5.39165,-11.50454 -6.78415,-13.99519c-3.68288,-6.58728 -9.66165,-14.59522 -14.4477,-20.65365c-4.66081,-5.89988 -10.55319,-11.33437 -17.36083,-14.746c-4.3415,-2.17573 -14.47032,-2.98588 -16.33034,-8.56595c-1.2482,-3.74459 -2.42206,-8.29277 -0.65684,-11.82321c5.3069,-10.6138 12.51522,-6.04669 19.3022,-3.4858c8.22823,3.10471 9.53181,3.40175 17.55976,8.88132c18.26705,12.4684 28.96664,33.71961 39.07981,52.6413c4.82953,9.03601 11.9858,17.39868 16.14635,26.41178c0.45573,0.98725 0.89574,4.90162 1.48068,6.65642l0.07181,0.14362c0.73287,1.392 1.19456,2.94902 1.31481,4.60077c0.08575,0.50293 0.12859,1.00968 0.1046,1.52226z" fill="#6f6f6f" stroke-width="0.5"/></g></g></svg>