<svg version="1.1" xmlns="http://www.w3.org/2000/svg" xmlns:xlink="http://www.w3.org/1999/xlink" width="452.0536" height="215.35528" viewBox="0,0,452.0536,215.35528"><g transform="translate(-83.76912,-126.31974)"><g data-paper-data="{&quot;isPaintingLayer&quot;:true}" fill-rule="nonzero" stroke="none" stroke-linecap="butt" stroke-linejoin="miter" stroke-miterlimit="10" stroke-dasharray="" stroke-dashoffset="0" style="mix-blend-mode: normal"><path d="M309.79592,239.4134c124.83114,0 226.0268,22.89206 226.0268,51.13081c0,28.23883 -101.19566,51.13081 -226.0268,51.13081c-124.83114,0 -226.0268,-22.89206 -226.0268,-51.13081c0,-28.23874 101.19566,-51.13081 226.0268,-51.13081z" fill="#000000" stroke-width="0"/><path d="M202.94912,256.59647c-5.3841,-1.41318 -11.33907,-0.8223 -16.56589,-2.587c-12.6888,-4.28404 -19.43989,-7.17795 -32.13463,-12.96275c-10.65845,-4.8569 -19.78987,-15.37867 -24.94912,-25.53041c-1.27531,-2.50939 -3.69917,-4.94647 -5.17975,-7.41408c-0.59006,-0.98343 -0.48186,-2.28526 -1.00325,-3.31933c-4.67396,-9.26984 -9.27737,-18.2048 -12.6079,-28.10684c-3.23505,-9.6182 -9.17283,-29.64989 -4.14127,-39.38701c1.08078,-2.09152 3.75033,-8.55427 6.35303,-9.42184c10.50952,-3.50317 14.88849,-1.31369 18.39166,9.19583c1.33432,4.00295 -2.02852,5.78946 -2.82803,8.94029c-0.46747,1.84226 0.80606,8.30117 0.91307,8.87417c2.71856,14.557 8.88078,26.97419 15.33543,40.12289c1.70398,3.47116 5.65274,11.90254 7.77911,14.22169c13.7383,14.98387 31.6248,19.47142 49.9223,23.71996c0.13611,-0.83686 0.38,-1.6447 0.7603,-2.4053c5.3069,-10.6138 12.51522,-6.04669 19.3022,-3.4858c8.22823,3.10471 9.53181,3.40175 17.55976,8.88132c18.26705,12.4684 28.96664,33.71961 39.07981,52.6413c4.82953,9.03601 11.9858,17.39868 16.14635,26.41178c0.45573,0.98725 0.89574,4.90162 1.48068,6.65642l0.07181,0.14362c0.73287,1.392 1.19456,2.94902 1.31481,4.60077c0.08575,0.50293 0.12859,1.00968 0.1046,1.52226h-0.00005c-0.29805,6.36571 -4.67188,9.96091 -9.4729,10.85805c-0.7594,0.15417 -1.5454,0.2351 -2.3503,0.2351c-0.40072,0 -0.79676,-0.02006 -1.18717,-0.05923c-1.95297,-0.16918 -3.82904,-0.78351 -5.38128,-1.8381c-1.98045,-1.3455 -3.12294,-2.85534 -3.87903,-4.47026c-0.52982,-1.02633 -0.91285,-2.14075 -1.12132,-3.31552c-0.54804,-2.13838 -0.96036,-4.37783 -2.09306,-6.60599c-0.70098,-1.37891 -2.37069,-2.6547 -3.19072,-4.02541c-3.64655,-6.09535 -7.17491,-12.26075 -10.80433,-18.36631c-2.50283,-4.21035 -5.39165,-11.50454 -6.78415,-13.99519c-2.65536,-4.74944 -6.50423,-10.23741 -10.23905,-15.20073c-0.52345,0.07131 -1.05787,0.10814 -1.60089,0.10814c-2.50624,0 -4.82921,-0.78466 -6.73665,-2.12173c-1.33483,-0.93568 -2.46617,-2.14189 -3.31441,-3.53902c-3.86855,-3.94698 -21.1016,-7.44078 -26.94978,-8.97576z" fill="#6f6f6f" stroke-width="0.5"/></g></g></svg>