<svg version="1.1" xmlns="http://www.w3.org/2000/svg" xmlns:xlink="http://www.w3.org/1999/xlink" width="2878.25006" height="1619.57958" viewBox="0,0,2878.25006,1619.57958"><g transform="translate(1117.37278,629.80931)"><g data-paper-data="{&quot;isPaintingLayer&quot;:true}" stroke-linejoin="miter" stroke-miterlimit="10" stroke-dasharray="" stroke-dashoffset="0" style="mix-blend-mode: normal"><path d="M-1117.37278,989.77027v-1619.57958h2878.25006v1619.57958z" fill="none" fill-rule="nonzero" stroke="#000000" stroke-width="0" stroke-linecap="butt"/><path d="M366.43342,317.00685l-20.13091,-28.26196l95.62189,0.25011l34.22254,28.01185z" data-paper-data="{&quot;index&quot;:null}" fill="#00dfff" fill-rule="nonzero" stroke="#000000" stroke-width="1" stroke-linecap="round"/><path d="M485.2424,315.53812c-2.58796,0.30979 -5.13219,0.48705 -7.651,0.61485c0.01703,0.04759 0.02587,0.09724 0.02587,0.14901c0,1.26138 -5.26881,1.26138 -5.26881,1.26138c-23.27068,0 -46.54132,0 -69.81196,0c-5.9882,0 -20.88845,-0.57227 -25.30504,0.18219c-2.54403,0.43456 -4.36533,0.39157 -7.62516,0.44851c-0.36796,0.00643 -1.03719,0.02018 -1.6285,0.02865c3.15215,0.53874 1.6285,5.5174 1.6285,6.909c0,5.8865 0,11.77298 0,17.65947c0,1.05114 0,2.10233 0,3.15348c0,0.42046 -0.92667,1.61856 0,1.26138c3.52564,-1.35886 10.40613,-0.62825 18.4409,-0.63069c15.83826,-0.0048 32.79485,-0.41028 48.35047,0.27186c28.40564,1.3601 58.94625,-0.81292 87.12521,0.70241c23.73311,1.42046 52.14288,1.54847 76.59458,1.54847c6.14704,0 12.29395,0 18.44093,0c0.92487,0 2.37702,-0.02982 3.88054,-0.06251c-1.51243,-0.64708 0.0711,-2.21188 0.0711,-3.09098c0,-3.28409 4.59823,-8.9491 -1.04678,-11.89967c-4.98852,-3.58286 -8.14418,-7.03243 -16.28153,-10.6056c-6.00401,-2.63644 -15.35047,-4.9734 -20.31816,-7.59227c-2.40836,-1.56083 -4.56437,-0.44531 -12.40728,-0.80654c-17.3544,-0.79931 -34.76001,-0.63069 -52.68828,-0.63069c-6.53499,0 -14.74235,0.31765 -21.07535,0c-1.33683,-0.06705 -3.84923,-0.31631 -5.73241,-0.52046c3.44442,0.63709 -4.4152,1.25335 -7.71782,1.64869zM402.53625,315.04058c17.58724,0 35.17452,0 52.76173,0c0.50737,-0.06072 1.01457,-0.12145 1.5219,-0.18219c6.68259,-0.79993 12.71582,-0.58794 18.44093,-0.94604c7.80219,-0.48801 12.46905,-2.13156 20.5191,-2.52278c4.62442,-0.22473 17.43258,0.49754 23.98782,0.49754c17.77486,0 35.53021,-0.24332 52.68828,0.6307c9.63871,0.49099 17.78456,-0.4662 22.29212,2.45514c0.66451,1.10973 5.98296,1.80333 8.76468,2.65699c4.25112,1.30461 7.80431,3.23675 11.09389,4.6812c8.1548,3.58084 11.74045,7.26389 16.85336,10.93605c4.56918,3.87077 1.58758,8.67069 1.58758,12.69745c0,2.22624 1.46556,3.7953 -5.26881,5.67626c-2.34842,0.65592 -24.04369,0 -27.66135,0c-25.22082,0 -54.68957,-0.1598 -79.15039,-1.62381c-26.8724,-1.88047 -58.85998,0.65387 -86.63608,-0.67608c-22.38311,-1.207 -56.93225,2.00836 -75.26236,-2.11497c-1.81476,-0.40824 0,-3.7427 0,-4.41487c0,-5.8865 0,-11.77297 0,-17.65946c0,-1.96807 -3.62376,-6.66694 1.87352,-8.13248c9.59318,-2.55751 27.54685,-1.95865 41.59424,-1.95865z" data-paper-data="{&quot;index&quot;:null}" fill="#000000" fill-rule="nonzero" stroke="none" stroke-width="1" stroke-linecap="butt"/><path d="M477.51797,316.09238c2.5187,-0.1278 5.09366,-0.30673 7.68174,-0.61652c3.30264,-0.39532 11.19347,-1.01235 7.74898,-1.64944c1.88317,0.20414 4.41649,0.45337 5.75322,0.52044c6.333,0.31765 14.61387,0.00315 21.14871,0.00315c17.92814,0 35.4468,-0.15094 52.80116,0.64837c7.84291,0.36123 10.01529,-0.74949 12.4236,0.81133c4.96775,2.61886 14.35366,4.97462 20.35773,7.61106c8.13736,3.57318 11.30382,7.04669 16.29235,10.62956c5.64513,2.95056 1.0221,8.63742 1.0221,11.9215c0,0.8791 -1.59337,2.44836 -0.08091,3.09544c-1.50344,0.03269 -2.95758,0.06332 -3.88252,0.06332c-6.14698,0 -12.30469,0.00395 -18.45169,0.00395c-24.4519,0 -52.97698,-0.10604 -76.7101,-1.52652c-28.17896,-1.51534 -58.99873,0.64544 -87.40441,-0.71466c-15.55558,-0.68217 -32.56012,-0.29107 -48.39839,-0.28627c-8.0347,0.00243 -14.92148,-0.73088 -18.44712,0.62799c-0.92667,0.35716 -0.00397,-0.84283 -0.00397,-1.26328c0,-1.05114 -0.00901,-2.10743 -0.00901,-3.15858c0,-5.8865 -0.01096,-11.808 -0.01096,-17.6945c0,-1.3916 1.53969,-6.38233 -1.61251,-6.92108c0.59138,-0.00846 1.26116,-0.02253 1.62909,-0.02897c3.25974,-0.05693 5.08516,-0.01603 7.62913,-0.4506c4.41657,-0.75443 19.33039,-0.18804 25.31854,-0.18804c23.27078,0 46.66543,-0.02508 69.93607,-0.02508c0,0 5.29468,-0.00216 5.29468,-1.26353c0,-0.05178 -0.00819,-0.10144 -0.02528,-0.14905z" data-paper-data="{&quot;noHover&quot;:false,&quot;origItem&quot;:[&quot;Path&quot;,{&quot;applyMatrix&quot;:true,&quot;segments&quot;:[[[579.60736,595.76373],[0.95609,-0.20262],[0.00646,0.07548]],[[579.61718,596],[0,-0.08208],[0,2]],[[577.61718,598],[0,0],[-8.83333,0]],[[551.11718,598],[8.83333,0],[-2.27308,0]],[[541.51161,598.28885],[1.67648,-1.19621],[-0.96568,0.68904]],[[538.61718,599],[1.23739,-0.09027],[-0.13966,0.01019]],[[537.99901,599.04541],[0.22447,-0.0134],[1.19653,0.85421]],[[538.61718,610],[0,-2.20646],[0,9.33333]],[[538.61718,638],[0,-9.33333],[0,1.66667]],[[538.61718,643],[0,-1.66667],[0,0.66667]],[[538.61718,645],[-0.35177,0.56631],[1.33831,-2.15456]],[[545.61718,644],[-3.04994,0.00386],[6.01206,-0.00761]],[[563.97058,644.43107],[-5.90478,-1.08158],[10.78253,2.15651]],[[597.04254,645.54479],[-10.6965,-2.40266],[9.00888,2.25222]],[[626.11718,648],[-9.28168,0],[2.33333,0]],[[633.11718,648],[-2.33333,0],[0.35109,0]],[[634.59021,647.90091],[-0.5707,0.05184],[-0.57412,-1.02596]],[[634.61718,643],[0,1.39387],[0,-5.20707]],[[634.21982,624.13246],[2.14282,4.67827],[-1.8936,-5.6808]],[[628.03948,607.31672],[3.08887,5.66543],[-2.2791,-4.1802]],[[620.32688,595.27881],[1.8857,4.15235],[-0.91417,-2.47477]],[[615.61718,594],[2.9771,0.57275],[-6.58756,-1.26734]],[[595.61718,593],[6.8054,0],[-2.48058,0]],[[587.61718,593],[2.40395,0.50364],[-0.50743,-0.10631]],[[585.44122,592.1748],[0.71481,0.32365],[1.30749,1.01011]],[[582.51161,594.78885],[1.25365,-0.62682],[-0.98239,0.4912]]],&quot;closed&quot;:true}],&quot;index&quot;:null}" fill="#ffffff" fill-rule="nonzero" stroke="none" stroke-width="1" stroke-linecap="butt"/><path d="M551.38082,320.71682c0,-0.14628 -0.07298,-0.39122 -0.14273,-0.63185c-0.27137,0.09764 -0.67622,0.18091 -1.19681,0.25172c-1.56107,0.38012 -3.92935,0.38013 -3.92935,0.38013c-20.06902,0 -31.66053,3.34859 -38.7552,6.87108c-0.83463,0.39964 -0.76091,0.88115 -0.76091,1.32797c0,0.12712 -0.05076,0.32915 -0.10626,0.53814c0.05306,-0.06728 0.18551,-0.12256 0.45521,-0.15805c1.1917,-0.15681 11.55179,0.8028 12.82307,0.25063c0.38205,-0.16595 -1.87392,-0.1972 -1.74951,-0.38434c1.53028,-2.30061 17.75951,-5.78049 25.73741,-6.73548c2.06914,-0.2477 4.39842,-0.37232 6.714,-0.42939c-0.90533,-0.33755 0.91105,-0.85421 0.91105,-1.28051zM506.46174,329.55841c-0.11947,0.44844 -0.22555,0.8771 0.13404,0.61884c0.24579,-0.17648 -0.10902,-0.42423 -0.13404,-0.61884zM497.93171,326.45968c7.53025,-3.3986 17.54531,-6.49742 33.15249,-7.71711c1.46608,-0.54851 4.49022,-0.54851 4.49022,-0.54851h2.63438c5.96515,0 9.12104,-0.49753 15.52839,-0.49753c8.89826,0 10.96094,4.23599 6.30784,5.4765c-2.93627,0.78279 -7.6461,1.03964 -11.57672,1.51015c-11.63471,1.39272 -15.9517,5.39483 -28.70042,7.38616c-13.51201,2.11053 -28.38766,-2.47277 -21.8362,-5.60967z" data-paper-data="{&quot;index&quot;:null}" fill="#000000" fill-rule="nonzero" stroke="none" stroke-width="1" stroke-linecap="butt"/><path d="M551.43378,320.04269c0.06994,0.24063 0.15507,0.48908 0.15507,0.63535c0,0.42628 -1.79477,0.95074 -0.88944,1.2883c-2.31562,0.05708 -4.65826,0.17657 -6.72748,0.42427c-7.97797,0.95498 -24.28548,4.41719 -25.81573,6.71781c-0.12456,0.18715 1.88122,0.32919 1.49913,0.49514c-1.27127,0.55217 -11.72113,-0.42403 -12.91285,-0.26723c-0.26979,0.03551 -0.40099,0.09112 -0.45397,0.15842c0.05549,-0.209 0.09652,-0.41394 0.09652,-0.54106c0,-0.44679 -0.09671,-0.93708 0.73792,-1.33672c7.09462,-3.5225 19.10457,-6.94516 39.17356,-6.94516c0,0 2.37903,0.00271 3.9401,-0.37743c0.52061,-0.07081 0.92566,-0.15405 1.19691,-0.25169z" data-paper-data="{&quot;noHover&quot;:false,&quot;origItem&quot;:[&quot;Path&quot;,{&quot;applyMatrix&quot;:true,&quot;segments&quot;:[[[607.563,601.99816],[0.02649,0.38155],[-0.10299,0.15484]],[[607.10872,602.39727],[0.1976,-0.11227],[-0.59254,0.60273]],[[605.61718,603],[0,0],[-7.618,0]],[[590.90604,613.89443],[2.69308,-5.58508],[-0.31682,0.63364]],[[590.61718,616],[0,-0.70843],[0,0.20156]],[[590.57685,616.85325],[0.02106,-0.33136],[0.02013,-0.10671]],[[590.74964,616.60263],[-0.10238,0.05628],[0.45234,-0.24865]],[[595.61718,617],[-0.48256,0.87548],[0.14503,-0.26312]],[[594.95308,616.3906],[-0.04725,0.29671],[0.58086,-3.64773]],[[604.72276,605.71115],[-3.02833,1.51416],[0.78545,-0.39273]],[[607.27135,605.03032],[-0.87898,0.0905],[-0.34365,-0.53523]],[[607.61718,603],[0,0.6759],[0,-0.23192]]],&quot;closed&quot;:true}],&quot;index&quot;:null}" fill="#ffffff" fill-rule="nonzero" stroke="none" stroke-width="1" stroke-linecap="butt"/><path d="M162.85318,319.25863l34.22259,-28.01184l95.62185,-0.25011l-20.13091,28.26195z" data-paper-data="{&quot;index&quot;:null}" fill="#00dfff" fill-rule="nonzero" stroke="#000000" stroke-width="1" stroke-linecap="round"/><path d="M153.75773,317.7899c-3.30259,-0.39533 -11.16222,-1.0116 -7.71782,-1.64869c-1.88317,0.20415 -4.39557,0.4534 -5.73241,0.52045c-6.333,0.31765 -14.54036,0 -21.07535,0c-17.92825,0 -35.33387,-0.16861 -52.68828,0.63069c-7.84296,0.36123 -9.99896,-0.75428 -12.40731,0.80654c-4.96767,2.61886 -14.31419,4.95583 -20.31816,7.59227c-8.13736,3.57318 -11.29299,7.02275 -16.28153,10.6056c-5.64505,2.95056 -1.04678,8.61558 -1.04678,11.89966c0,0.8791 1.58353,2.4439 0.0711,3.09098c1.50352,0.03269 2.95568,0.06251 3.88054,0.06251c6.14698,0 12.29391,0 18.44093,0c24.45175,0 52.86148,-0.12802 76.59458,-1.54847c28.17896,-1.51535 58.71957,0.65767 87.12521,-0.70243c15.55558,-0.68214 32.51217,-0.27668 48.35042,-0.27187c8.03477,0.00243 14.91527,-0.72817 18.4409,0.6307c0.92667,0.35717 0,-0.84093 0,-1.26138c0,-1.05114 0,-2.10232 0,-3.15348c0,-5.8865 0,-11.77298 0,-17.65947c0,-1.3916 -1.52366,-6.37027 1.6285,-6.909c-0.59134,-0.00846 -1.26056,-0.02221 -1.6285,-0.02864c-3.25983,-0.05694 -5.08113,-0.01393 -7.62516,-0.44851c-4.41657,-0.75444 -19.31687,-0.18219 -25.30507,-0.18219c-23.27064,0 -46.54125,0 -69.81196,0c0,0 -5.26881,0 -5.26881,-1.26138c0,-0.05178 0.00884,-0.10143 0.02587,-0.14901c-2.51877,-0.1278 -5.06303,-0.30506 -7.651,-0.61485zM236.46371,317.29238c14.04741,0 32.00111,-0.59885 41.59424,1.95865c5.49731,1.46554 1.87352,6.16441 1.87352,8.13248c0,5.8865 0,11.77298 0,17.65947c0,0.67217 1.81476,4.00663 0,4.41487c-18.33007,4.12332 -52.87921,0.90796 -75.26236,2.11497c-27.77612,1.32994 -59.76369,-1.20439 -86.63604,0.67609c-24.46078,1.46402 -53.92955,1.62381 -79.15039,1.62381c-3.61767,0 -25.31297,0.65592 -27.66135,0c-6.73436,-1.88095 -5.26881,-3.45003 -5.26881,-5.67626c0,-4.02676 -2.98162,-8.82667 1.58761,-12.69744c5.11291,-3.67216 8.69855,-7.35522 16.85336,-10.93605c3.28956,-1.44445 6.84275,-3.37659 11.09389,-4.6812c2.78172,-0.85366 8.10018,-1.54727 8.76468,-2.65699c4.50756,-2.92135 12.65338,-1.96415 22.29212,-2.45514c17.15805,-0.87402 34.91345,-0.6307 52.68828,-0.6307c6.55525,0 19.36345,-0.72226 23.98782,-0.49754c8.05004,0.39122 12.71691,2.03477 20.5191,2.52278c5.7251,0.35811 11.75836,0.14612 18.44093,0.94604c0.50733,0.06072 1.01457,0.12145 1.52194,0.18219c17.58721,0 35.17445,0 52.76169,0z" data-paper-data="{&quot;index&quot;:null}" fill="#000000" fill-rule="nonzero" stroke="none" stroke-width="1" stroke-linecap="butt"/><path d="M161.48194,318.34416c-0.01707,0.04761 -0.02528,0.09727 -0.02528,0.14905c0,1.26138 5.29468,1.26353 5.29468,1.26353c23.27064,0 46.66529,0.02508 69.93607,0.02508c5.98817,0 20.90197,-0.5664 25.31854,0.18804c2.54397,0.43456 4.36941,0.39367 7.62913,0.4506c0.36796,0.00643 1.03771,0.02051 1.62909,0.02897c-3.15221,0.53874 -1.61251,5.52948 -1.61251,6.92108c0,5.8865 -0.01096,11.808 -0.01096,17.6945c0,1.05114 -0.00901,2.10743 -0.00901,3.15858c0,0.42046 0.9227,1.62045 -0.00397,1.26328c-3.52564,-1.35886 -10.41238,-0.62554 -18.44712,-0.62799c-15.83826,-0.0048 -32.84281,-0.39589 -48.39839,0.28627c-28.40567,1.3601 -59.22544,-0.80069 -87.40441,0.71466c-23.73311,1.42046 -52.25818,1.52652 -76.7101,1.52652c-6.14698,0 -12.30469,-0.00395 -18.45169,-0.00395c-0.92494,0 -2.37908,-0.03062 -3.88252,-0.06332c1.51247,-0.64708 -0.08091,-2.21634 -0.08091,-3.09544c0,-3.28409 -4.62303,-8.97094 1.02206,-11.9215c4.98852,-3.58286 8.15499,-7.05638 16.29235,-10.62955c6.00408,-2.63644 15.39002,-4.9922 20.35773,-7.61106c2.40836,-1.56083 4.58073,-0.45009 12.42364,-0.81133c17.35437,-0.79931 34.87297,-0.64838 52.80116,-0.64838c6.5348,0 14.81571,0.3145 21.14871,-0.00314c1.33673,-0.06706 3.87005,-0.3163 5.75322,-0.52044c-3.4445,0.63709 4.44639,1.25412 7.74898,1.64944c2.58808,0.30979 5.16301,0.48872 7.68174,0.61652z" data-paper-data="{&quot;noHover&quot;:false,&quot;origItem&quot;:[&quot;Path&quot;,{&quot;applyMatrix&quot;:true,&quot;segments&quot;:[[[579.60736,595.76373],[0.95609,-0.20262],[0.00646,0.07548]],[[579.61718,596],[0,-0.08208],[0,2]],[[577.61718,598],[0,0],[-8.83333,0]],[[551.11718,598],[8.83333,0],[-2.27308,0]],[[541.51161,598.28885],[1.67648,-1.19621],[-0.96568,0.68904]],[[538.61718,599],[1.23739,-0.09027],[-0.13966,0.01019]],[[537.99901,599.04541],[0.22447,-0.0134],[1.19653,0.85421]],[[538.61718,610],[0,-2.20646],[0,9.33333]],[[538.61718,638],[0,-9.33333],[0,1.66667]],[[538.61718,643],[0,-1.66667],[0,0.66667]],[[538.61718,645],[-0.35177,0.56631],[1.33831,-2.15456]],[[545.61718,644],[-3.04994,0.00386],[6.01206,-0.00761]],[[563.97058,644.43107],[-5.90478,-1.08158],[10.78253,2.15651]],[[597.04254,645.54479],[-10.6965,-2.40266],[9.00888,2.25222]],[[626.11718,648],[-9.28168,0],[2.33333,0]],[[633.11718,648],[-2.33333,0],[0.35109,0]],[[634.59021,647.90091],[-0.5707,0.05184],[-0.57412,-1.02596]],[[634.61718,643],[0,1.39387],[0,-5.20707]],[[634.21982,624.13246],[2.14282,4.67827],[-1.8936,-5.6808]],[[628.03948,607.31672],[3.08887,5.66543],[-2.2791,-4.1802]],[[620.32688,595.27881],[1.8857,4.15235],[-0.91417,-2.47477]],[[615.61718,594],[2.9771,0.57275],[-6.58756,-1.26734]],[[595.61718,593],[6.8054,0],[-2.48058,0]],[[587.61718,593],[2.40395,0.50364],[-0.50743,-0.10631]],[[585.44122,592.1748],[0.71481,0.32365],[1.30749,1.01011]],[[582.51161,594.78885],[1.25365,-0.62682],[-0.98239,0.4912]]],&quot;closed&quot;:true}],&quot;index&quot;:null}" fill="#ffffff" fill-rule="nonzero" stroke="none" stroke-width="1" stroke-linecap="butt"/><path d="M87.61934,322.96864c0,0.42629 1.81638,0.94296 0.91105,1.28051c2.31558,0.05708 4.64486,0.18169 6.71404,0.42939c7.97789,0.95499 24.20712,4.43487 25.73737,6.73548c0.12442,0.18714 -2.13156,0.21841 -1.74951,0.38435c1.27127,0.55217 11.63139,-0.40744 12.82307,-0.25063c0.26969,0.0355 0.40218,0.09078 0.45524,0.15805c-0.05549,-0.20899 -0.10629,-0.41103 -0.10629,-0.53815c0,-0.44681 0.07372,-0.92833 -0.76091,-1.32797c-7.09467,-3.52249 -18.68621,-6.87108 -38.75523,-6.87108c0,0 -2.36829,-0.00001 -3.92935,-0.38013c-0.52061,-0.07081 -0.92539,-0.15406 -1.19681,-0.25171c-0.06975,0.24063 -0.14273,0.48558 -0.14273,0.63185zM132.40436,332.42904c0.35958,0.25826 0.25351,-0.17041 0.13404,-0.61884c-0.02501,0.19461 -0.37984,0.44238 -0.13404,0.61884zM141.06849,328.71146c6.55147,3.13692 -8.32423,7.72022 -21.83623,5.60967c-12.74871,-1.99131 -17.06572,-5.99345 -28.70042,-7.38615c-3.9306,-0.4705 -8.64045,-0.72736 -11.57672,-1.51015c-4.6531,-1.24051 -2.59043,-5.47651 6.30784,-5.47651c6.40736,0 9.56326,0.49753 15.52839,0.49753h2.63438c0,0 3.0241,0 4.49022,0.54851c15.60721,1.21969 25.62223,4.3185 33.15249,7.71711z" data-paper-data="{&quot;index&quot;:null}" fill="#000000" fill-rule="nonzero" stroke="none" stroke-width="1" stroke-linecap="butt"/><path d="M87.56647,322.29451c0.27122,0.09764 0.6763,0.18089 1.19691,0.2517c1.56107,0.38012 3.9401,0.37743 3.9401,0.37743c20.06898,0 32.07897,3.42265 39.17356,6.94514c0.83468,0.39964 0.73792,0.88993 0.73792,1.33673c0,0.12712 0.04103,0.33205 0.09652,0.54106c-0.05298,-0.0673 -0.18417,-0.12291 -0.45397,-0.15841c-1.1917,-0.15681 -11.64157,0.81939 -12.91285,0.26723c-0.38209,-0.16595 1.6237,-0.30799 1.49913,-0.49514c-1.53021,-2.30061 -17.83776,-5.76283 -25.81573,-6.71782c-2.06921,-0.2477 -4.41186,-0.36718 -6.72748,-0.42425c0.90533,-0.33757 -0.88944,-0.86202 -0.88944,-1.2883c0,-0.14627 0.08513,-0.39472 0.15507,-0.63535z" data-paper-data="{&quot;noHover&quot;:false,&quot;origItem&quot;:[&quot;Path&quot;,{&quot;applyMatrix&quot;:true,&quot;segments&quot;:[[[607.563,601.99816],[0.02649,0.38155],[-0.10299,0.15484]],[[607.10872,602.39727],[0.1976,-0.11227],[-0.59254,0.60273]],[[605.61718,603],[0,0],[-7.618,0]],[[590.90604,613.89443],[2.69308,-5.58508],[-0.31682,0.63364]],[[590.61718,616],[0,-0.70843],[0,0.20156]],[[590.57685,616.85325],[0.02106,-0.33136],[0.02013,-0.10671]],[[590.74964,616.60263],[-0.10238,0.05628],[0.45234,-0.24865]],[[595.61718,617],[-0.48256,0.87548],[0.14503,-0.26312]],[[594.95308,616.3906],[-0.04725,0.29671],[0.58086,-3.64773]],[[604.72276,605.71115],[-3.02833,1.51416],[0.78545,-0.39273]],[[607.27135,605.03032],[-0.87898,0.0905],[-0.34365,-0.53523]],[[607.61718,603],[0,0.6759],[0,-0.23192]]],&quot;closed&quot;:true}],&quot;index&quot;:null}" fill="#ffffff" fill-rule="nonzero" stroke="none" stroke-width="1" stroke-linecap="butt"/><path d="M174.48941,285.02869c0,2.10231 0,4.20459 0,6.30689c1.82023,-0.11246 3.57216,0.00455 5.25574,0.35037c-1.86859,0 -3.73754,0 -5.60613,0c-0.11317,-2.2852 0.0035,-4.50418 0.35037,-6.65729z" data-paper-data="{&quot;index&quot;:null}" fill="#717171" fill-rule="evenodd" stroke="none" stroke-width="1" stroke-linecap="butt"/><path d="M434.5693,300.77977l26.16512,0.38859l1.81342,0.3886l-6.08791,0.25905l-22.66779,-0.3886z" data-paper-data="{&quot;index&quot;:null}" fill="#c9c9c9" fill-rule="evenodd" stroke="none" stroke-width="1" stroke-linecap="butt"/><g fill-rule="nonzero"><path d="M66.9219,233.49009l-19.25114,12.74371l-4.33829,-5.42285l22.50485,-18.43771l1.35571,13.01486z" fill="#c5c8c1" stroke="#000000" stroke-width="1" stroke-linecap="round"/><path d="M60.12593,315.37522l-0.27114,-78.02134l5.42286,-2.98256l0.27114,-148.92519l146.34933,20.878v36.9432l178.95425,-5.42285v11.93028l91.64627,-2.44029l-0.27114,-7.86314l-6.77857,-34.70628l90.90063,19.59007l1.08457,111.23633l73.20856,-0.54229l1.08457,87.30798l-244.5708,3.796l-0.54229,-8.94771l-333.16672,-2.16914z" fill="#969897" stroke="#000000" stroke-width="1" stroke-linecap="round"/><path d="M40.35111,73.16591l196.03403,28.6368l-4.42357,7.45023l-188.58381,-25.84297z" fill="#c5c8c1" stroke="#000000" stroke-width="1" stroke-linecap="round"/><path d="M209.72731,136.60923l205.81245,-8.3815l-5.35485,7.91586l-198.76966,8.14868z" fill="#bebfb7" stroke="#000000" stroke-width="1" stroke-linecap="round"/><path d="M390.16243,143.59382l92.89499,-3.25947l-0.46564,7.21741l-92.89498,2.56101z" fill="#c5c8c1" stroke="#000000" stroke-width="1" stroke-linecap="round"/><path d="M456.45779,93.3048l132.4743,27.4727l-3.95793,7.68304l-128.45817,-26.54142z" fill="#c5c8c1" stroke="#000000" stroke-width="1" stroke-linecap="round"/><path d="M556.803,187.5967l-62.16281,0.93128v-48.65928l58.90334,-0.69846z" fill="#252925" stroke="#000000" stroke-width="1" stroke-linecap="round"/><path d="M470.89259,147.55174l0.23282,33.75883l-40.27778,0.46564l0.46564,-32.82755z" fill="#252925" stroke="#000000" stroke-width="1" stroke-linecap="round"/><path d="M191.80021,225.13885l197.83838,-1.62974l5.82048,6.28612l273.79575,-3.02665l-3.25948,8.14868l-270.01243,3.25947l-10.7097,-6.05331l-190.50457,2.79384z" fill="#c5c8c1" stroke="#000000" stroke-width="1" stroke-linecap="round"/><path d="M396.44855,327.52123l0.69846,-9.54561l-337.23906,-2.09537l0.23282,-32.12909l338.40316,1.1641l-0.46564,-47.26236l242.88896,-3.02666l1.1641,88.47142z" fill="#414033" stroke="#000000" stroke-width="1" stroke-linecap="round"/><path d="M442.2558,326.1243l-2.3282,-84.51348l173.15952,-2.56101l0.23281,85.21194z" fill="#969897" stroke="#000000" stroke-width="1" stroke-linecap="round"/><path d="M603.01767,245.56877l-0.69846,9.77842l-150.63423,-0.23282l0.23282,-9.31278l149.87756,0.46564z" fill="#000000" stroke="#000000" stroke-width="1" stroke-linecap="round"/><path d="M363.40109,232.21726l-1.41275,52.47343l-47.22608,0.40364l-0.20182,-52.87707z" fill="#252925" stroke="#000000" stroke-width="1" stroke-linecap="round"/><path d="M228.33247,316.98203l1.0091,-83.1502l52.06979,-1.0091l-0.60546,84.15931z" fill="#535550" stroke="#000000" stroke-width="1" stroke-linecap="round"/><path d="M237.41442,317.38567l1.41274,-83.95748l31.68588,-0.80729l-1.21093,83.75567z" fill="#362e21" stroke="#000000" stroke-width="1" stroke-linecap="round"/><path d="M272.88443,141.3474v45.20788l-47.42791,1.41274l1.61457,-44.60241z" fill="#252925" stroke="#000000" stroke-width="1" stroke-linecap="round"/><path d="M177.87726,184.33526l-84.36113,1.21092l0.60546,-52.06978l84.96659,-2.42186z" fill="#252925" stroke="#000000" stroke-width="1" stroke-linecap="round"/><path d="M176.86815,283.17702l-85.9757,-0.40364l1.41275,-52.06979l83.35202,-1.0091z" fill="#252925" stroke="#000000" stroke-width="1" stroke-linecap="round"/><path d="M192.15198,226.1374l30.62985,-36.30205l173.17212,-2.94954l0.22689,11.34439l85.59342,-3.17643l-0.45378,12.25194l85.30982,-1.36133l1.36133,21.78123l-172.20784,2.94954l-7.26041,-8.39485z" fill="#3d4142" stroke="#000000" stroke-width="1" stroke-linecap="round"/><path d="M291.89417,121.23774c0,-0.75 0.75,-0.75 0.75,-0.75l0.53793,0.03096c3.52549,1.04557 7.04637,2.10587 10.57333,3.14661c8.87613,2.64056 14.39717,9.83042 21.67815,14.92338c0,0 0.61442,0.4301 0.18433,1.04452c-0.4301,0.61442 -1.04452,0.18433 -1.04452,0.18433c-7.10991,-4.98073 -12.56016,-12.17455 -21.24248,-14.71355c-3.52762,-1.04094 -7.04916,-2.10143 -10.5753,-3.14719l-0.11142,0.03096c0,0 -0.75,0 -0.75,-0.75z" fill="#000000" stroke="none" stroke-width="0.5" stroke-linecap="butt"/><path d="M361.44132,115.62907c0.19741,0.72355 -0.52614,0.92097 -0.52614,0.92097l-0.57664,0.14225c-3.93314,1.96104 -7.36453,4.96953 -10.84544,7.62415c-5.02637,4.07597 -11.33316,7.97085 -15.57487,12.87126c-0.97398,1.12523 -1.46041,2.54249 -2.54026,3.62799c0,0 -0.53033,0.53033 -1.06066,0c-0.53033,-0.53033 0,-1.06066 0,-1.06066c1.04768,-1.04145 1.49783,-2.41823 2.43809,-3.51487c4.28626,-4.99913 10.70431,-8.96321 15.81041,-13.10277c3.56623,-2.72032 7.07688,-5.76894 11.10191,-7.78675l0.85263,-0.24771c0,0 0.72355,-0.19741 0.92097,0.52614z" fill="#000000" stroke="none" stroke-width="0.5" stroke-linecap="butt"/><path d="M304.36865,152.89759c-0.09322,-0.49123 0.39801,-0.58446 0.39801,-0.58446l0.94101,-0.17848c3.54334,-0.81802 9.4731,-3.13779 13.3775,-2.43263c-2.74944,-1.66146 -5.40211,-3.3267 -8.34982,-4.64765c-1.64311,-0.73632 -3.73751,-0.79588 -5.22087,-1.64902c0,0 -0.42875,-0.25725 -0.1715,-0.68599c0.25725,-0.42875 0.68599,-0.1715 0.68599,-0.1715c1.32061,0.84213 3.57567,0.90411 5.11348,1.59313c3.22501,1.44497 6.10858,3.2951 9.13396,5.11178l0.01264,0.01497l0.00305,-0.0043l0.5554,0.39343c0.1308,0.09018 0.21653,0.24105 0.21653,0.41194c0,0.24578 -0.17733,0.45013 -0.41102,0.49211l-0.9715,0.1943l-0.03571,-0.17855c-1.15419,0.19426 -2.2206,0.07965 -3.53746,0.27991c-3.37634,0.51345 -6.85764,1.48684 -10.19498,2.2567l-0.96026,0.18233c0,0 -0.49123,0.09322 -0.58446,-0.39801z" fill="#000000" stroke="none" stroke-width="0.5" stroke-linecap="butt"/><path d="M357.84188,152.71968c-0.01663,0.49972 -0.51636,0.48309 -0.51636,0.48309l-0.36082,-0.01201c-1.99741,-0.06761 -3.85883,-0.49206 -5.79312,-0.95708c-3.41943,-0.82312 -7.12288,-1.6073 -10.60834,-2.07395c-2.5277,-0.33842 -5.23072,0.1884 -7.73984,-0.18569v0.08818h-0.70922v0c-0.27614,0 -0.5,-0.22386 -0.5,-0.5c0,-0.16657 0.08145,-0.31411 0.20669,-0.40497l0.58647,-0.43557l0.01268,0.01708l0.0415,-0.05213c2.37736,-0.96176 4.76951,-1.87456 7.04541,-3.05802c4.85907,-2.52426 10.07142,-5.50568 14.61967,-8.53914c0,0 0.41603,-0.27735 0.69338,0.13868c0.27735,0.41603 -0.13868,0.69338 -0.13868,0.69338c-4.58194,3.05336 -9.82165,6.04842 -14.71302,8.59431c-1.73452,0.90195 -3.53399,1.65676 -5.34798,2.38186c0.86132,-0.00174 1.76104,0.09176 2.22345,0.11381c4.86148,0.23182 9.81555,1.11032 14.56158,2.2499c1.86815,0.44912 3.66341,0.86688 5.59263,0.92993l0.36082,0.01201c0,0 0.49972,0.01663 0.48309,0.51636z" fill="#000000" stroke="none" stroke-width="0.5" stroke-linecap="butt"/><path d="M355.29417,163.25106c0.13972,-0.89512 0.17467,-1.74072 -0.17572,-2.14265c0,0 -0.3,-0.4 0.1,-0.7c0.4,-0.3 0.7,0.1 0.7,0.1c0.42409,0.61339 0.47564,1.41865 0.39215,2.26624c0.31585,-0.15043 0.63021,-0.3024 0.94298,-0.45588c-0.00401,-0.02859 -0.00615,-0.05918 -0.00615,-0.09191c0,-0.5 0.5,-0.5 0.5,-0.5l0.28483,0.0068l0.5998,0.09997c0.24101,0.0358 0.42591,0.24358 0.42591,0.49455c0,0.22492 -0.14851,0.41515 -0.35282,0.47799l-0.57163,0.19054c-0.66018,0.33088 -1.32818,0.6547 -2.00283,0.97121c-0.12831,0.69531 -0.27301,1.37265 -0.30622,1.95152c-0.22954,4.00092 -0.21082,7.78938 -1.56481,11.62618c-2.30703,6.5366 -7.79623,9.77812 -14.11122,11.35308c-3.70816,0.41665 -7.32132,0.67334 -11.0535,0.67637c-1.51715,0.00123 -3.41025,0.30162 -4.85343,-0.23253c-1.59401,-0.58997 -2.68055,-2.08706 -3.93983,-3.15668c-5.11326,-4.34605 -10.9273,-6.89044 -13.66789,-13.482c-1.13712,-4.80411 -1.45591,-8.77874 -0.70384,-13.65356c0.38787,-2.51408 0.63735,-4.7737 3.64554,-4.98361c1.92975,-0.11882 4.47959,-0.95524 6.3308,0.00426c3.62635,1.87955 6.17206,7.24184 7.7489,10.78974c1.08656,2.44483 2.38878,2.59517 4.88703,3.19043c4.40913,1.05057 8.97304,1.30164 13.38557,0.19896c4.51484,-1.31889 9.06461,-3.01482 13.36637,-4.999zM355.06643,164.45866c-4.15699,1.88401 -8.53855,3.49011 -12.87717,4.75661c-5.31038,1.32813 -16.85032,1.89588 -19.44789,-3.94847c-1.48645,-3.34452 -3.86766,-8.45107 -7.24603,-10.28422c-1.62374,-0.88107 -4.15501,-0.02573 -5.85749,0.08213c-2.41689,0.13006 -2.41067,2.13555 -2.71961,4.13803c-0.72827,4.72053 -0.41843,8.53776 0.667,13.19336c2.65735,6.3619 8.42347,8.82849 13.36405,13.02777c1.14995,0.97804 2.1866,2.43697 3.63738,2.9801c1.30369,0.48807 3.13543,0.17218 4.50744,0.17106c3.67384,-0.00298 7.22653,-0.25871 10.87736,-0.66059c5.9631,-1.49442 11.16138,-4.51263 13.34517,-10.70164c1.32119,-3.74385 1.28547,-7.4466 1.50945,-11.35067c0.0196,-0.34162 0.12532,-0.84544 0.24033,-1.40349z" fill="#000000" stroke="none" stroke-width="0.5" stroke-linecap="butt"/><path d="M354.87472,165.85048c-0.22398,3.90407 -0.18835,7.63052 -1.50954,11.37437c-2.18379,6.18901 -7.40605,9.23875 -13.36915,10.73317c-3.65082,0.40188 -7.23306,0.6638 -10.9069,0.66678c-1.37201,0.00111 -3.21612,0.31414 -4.51981,-0.17392c-1.45078,-0.54313 -2.49912,-2.00826 -3.64907,-2.9863c-4.94058,-4.19928 -10.72762,-6.70492 -13.38497,-13.06682c-1.08543,-4.6556 -1.38966,-8.49757 -0.66138,-13.2181c0.30894,-2.00248 0.3077,-4.01571 2.7246,-4.14577c1.70247,-0.10787 4.23928,-0.96919 5.86302,-0.08812c3.37837,1.83315 5.83263,7.00752 7.31909,10.35204c2.59757,5.84435 14.14719,5.23522 19.45757,3.90709c4.33861,-1.26651 8.71921,-2.8764 12.8762,-4.76041c-0.11501,0.55806 -0.22007,1.06437 -0.23967,1.40599z" data-paper-data="{&quot;noHover&quot;:false,&quot;origItem&quot;:[&quot;Path&quot;,{&quot;applyMatrix&quot;:true,&quot;segments&quot;:[[[281.91828,145.01422],[-0.11501,0.55806],[-4.15699,1.88401]],[[269.04112,149.77083],[4.33861,-1.26651],[-5.31038,1.32813]],[[249.59323,145.82236],[2.59757,5.84435],[-1.48645,-3.34452]],[[242.3472,135.53815],[3.37837,1.83315],[-1.62374,-0.88107]],[[236.48971,135.62028],[1.70247,-0.10787],[-2.41689,0.13006]],[[233.7701,139.75831],[0.30894,-2.00248],[-0.72827,4.72053]],[[234.4371,152.95168],[-1.08543,-4.6556],[2.65735,6.3619]],[[247.80115,165.97945],[-4.94058,-4.19928],[1.14995,0.97804]],[[251.43853,168.95955],[-1.45078,-0.54313],[1.30369,0.48807]],[[255.94597,169.13062],[-1.37201,0.00111],[3.67384,-0.00298]],[[266.82333,168.47003],[-3.65082,0.40188],[5.9631,-1.49442]],[[280.1685,157.76838],[-2.18379,6.18901],[1.32119,-3.74385]],[[281.67795,146.41771],[-0.22398,3.90407],[0.0196,-0.34162]]],&quot;closed&quot;:true}]}" fill="#740000" stroke="none" stroke-width="0.5" stroke-linecap="butt"/></g></g></g></svg>