<svg version="1.1" xmlns="http://www.w3.org/2000/svg" xmlns:xlink="http://www.w3.org/1999/xlink" width="1733.09309" height="836.33634" viewBox="0,0,1733.09309,836.33634"><g transform="translate(546.54655,238.16817)"><g data-paper-data="{&quot;isPaintingLayer&quot;:true}" stroke-linejoin="miter" stroke-miterlimit="10" stroke-dasharray="" stroke-dashoffset="0" style="mix-blend-mode: normal"><path d="M-546.54655,598.16817v-836.33634h1733.09309v836.33634z" fill="none" fill-rule="nonzero" stroke="#f00000" stroke-width="0" stroke-linecap="butt"/><path d="M295.79152,308.03598h2.06705l0.25839,4.03991h-0.25839v-3.87157z" fill="#eb4a83" fill-rule="evenodd" stroke="none" stroke-width="1" stroke-linecap="butt"/><path d="M296.30827,312.07588h1.55028h0.25839l2.06705,0.50498z" fill="#9e8142" fill-rule="evenodd" stroke="none" stroke-width="1" stroke-linecap="butt"/><g fill-rule="nonzero" stroke-width="1"><path d="M147.67702,241.56496l35.66987,-36.66103l99.66573,-0.32733l-20.98225,36.98836z" fill="#cedce9" stroke="#000000" stroke-linecap="round"/><path d="M138.19693,239.64274c-3.44227,-0.5174 -11.63426,-1.32394 -8.04421,-2.15777c-1.96281,0.2672 -4.58145,0.59338 -5.97483,0.68116c-6.60083,0.41574 -15.15527,0 -21.96664,0c-18.68641,0 -36.82815,-0.22067 -54.91651,0.82543c-8.17461,0.47276 -10.42181,-0.98718 -12.932,1.05558c-5.17777,3.42749 -14.91953,6.48604 -21.17742,9.93653c-8.48152,4.67647 -11.77057,9.19115 -16.97007,13.88029c-5.88377,3.86161 -1.09103,11.2758 -1.09103,15.57391c0,1.15054 1.65049,3.1985 0.07409,4.04537c1.56709,0.04279 3.08068,0.08181 4.04466,0.08181c6.40695,0 12.81384,0 19.22083,0c25.48583,0 55.09701,-0.16755 79.83381,-2.02659c29.37069,-1.98324 61.20282,0.86074 90.80975,-0.91932c16.21346,-0.89278 33.88709,-0.36208 50.39517,-0.3558c8.37456,0.00319 15.54604,-0.953 19.22075,0.82544c0.96586,0.46746 0,-1.10057 0,-1.65085c0,-1.3757 0,-2.75146 0,-4.12716c0,-7.70405 0,-15.40812 0,-23.11217c0,-1.82128 -1.58808,-8.33722 1.69736,-9.04229c-0.61635,-0.01107 -1.31388,-0.02906 -1.69736,-0.03749c-3.39773,-0.07451 -5.296,-0.01823 -7.94763,-0.58698c-4.60337,-0.9874 -20.1338,-0.23843 -26.37523,-0.23843c-24.25478,0 -48.50949,0 -72.76436,0c0,0 -5.49164,0 -5.49164,-1.65085c0,-0.06777 0.00921,-0.13274 0.02698,-0.19503c-2.62527,-0.16727 -5.27718,-0.39925 -7.97457,-0.80471zM224.40053,238.99159c14.64146,0 33.35444,-0.78376 43.35326,2.56343c5.72981,1.91807 1.95273,8.06779 1.95273,10.64354c0,7.70405 0,15.40813 0,23.11218c0,0.87972 1.89152,5.24375 0,5.77805c-19.10527,5.39647 -55.11552,1.18831 -78.44522,2.76801c-28.95077,1.74059 -62.29112,-1.57626 -90.29992,0.88484c-25.49523,1.91606 -56.21025,2.12522 -82.49769,2.12522c-3.77064,0 -26.38349,0.85845 -28.83114,0c-7.01917,-2.46176 -5.49163,-4.51527 -5.49163,-7.42893c0,-5.27013 -3.10772,-11.55207 1.65477,-16.61803c5.32915,-4.806 9.06643,-9.62627 17.5661,-14.31276c3.4287,-1.89047 7.13216,-4.41918 11.56304,-6.12662c2.89935,-1.11726 8.44273,-2.02501 9.13535,-3.4774c4.69818,-3.82337 13.18851,-2.57062 23.23489,-3.21322c17.88369,-1.14389 36.38998,-0.82544 54.91649,-0.82544c6.83247,0 20.18232,-0.94528 25.00226,-0.65114c8.39046,0.51201 13.25473,2.66302 21.38687,3.30173c5.96723,0.46868 12.25562,0.19124 19.22083,1.23816c0.52878,0.07947 1.05748,0.15896 1.58634,0.23843c18.33101,0 36.66198,0 54.993,0z" data-paper-data="{&quot;index&quot;:null}" fill="#000000" stroke="none" stroke-linecap="butt"/><path d="M146.24776,240.36816c-0.0178,0.06232 -0.02637,0.1273 -0.02637,0.19506c0,1.65085 5.51858,1.65368 5.51858,1.65368c24.25478,0 48.63878,0.03281 72.89365,0.03281c6.24143,0 21.78594,-0.74127 26.3893,0.24611c2.65155,0.56875 4.55419,0.51521 7.95178,0.58975c0.38352,0.00842 1.08159,0.02685 1.69799,0.03793c-3.28549,0.70509 -1.68071,7.2368 -1.68071,9.05811c0,7.70405 -0.01144,15.45393 -0.01144,23.158c0,1.3757 -0.00942,2.75815 -0.00942,4.13386c0,0.55028 0.96171,2.12078 -0.00414,1.65335c-3.67473,-1.77842 -10.85272,-0.8187 -19.22725,-0.82189c-16.50808,-0.00627 -34.23171,-0.51813 -50.44518,0.37464c-29.60696,1.78003 -61.73012,-1.04791 -91.10078,0.93532c-24.73678,1.85908 -54.46821,1.99787 -79.95419,1.99787c-6.40696,0 -12.82504,-0.00518 -19.23201,-0.00518c-0.96406,0 -2.47971,-0.04009 -4.0467,-0.08285c1.57642,-0.84687 -0.08433,-2.9007 -0.08433,-4.05122c0,-4.29812 -4.81856,-11.74088 1.06528,-15.6025c5.19947,-4.68911 8.49988,-9.23516 16.98136,-13.9116c6.258,-3.45049 16.04088,-6.53365 21.21867,-9.96112c2.51018,-2.04277 4.77445,-0.58908 12.94905,-1.06185c18.08828,-1.04611 36.34775,-0.84858 55.03414,-0.84858c6.81117,0 15.44228,0.4116 22.04313,-0.00412c1.39324,-0.08778 4.03375,-0.41396 5.99652,-0.68115c-3.59015,0.83378 4.63442,1.64133 8.07667,2.15873c2.69751,0.40546 5.38136,0.63963 8.00659,0.80689z" data-paper-data="{&quot;noHover&quot;:false,&quot;origItem&quot;:[&quot;Path&quot;,{&quot;applyMatrix&quot;:true,&quot;segments&quot;:[[[579.60736,595.76373],[0.95609,-0.20262],[0.00646,0.07548]],[[579.61718,596],[0,-0.08208],[0,2]],[[577.61718,598],[0,0],[-8.83333,0]],[[551.11718,598],[8.83333,0],[-2.27308,0]],[[541.51161,598.28885],[1.67648,-1.19621],[-0.96568,0.68904]],[[538.61718,599],[1.23739,-0.09027],[-0.13966,0.01019]],[[537.99901,599.04541],[0.22447,-0.0134],[1.19653,0.85421]],[[538.61718,610],[0,-2.20646],[0,9.33333]],[[538.61718,638],[0,-9.33333],[0,1.66667]],[[538.61718,643],[0,-1.66667],[0,0.66667]],[[538.61718,645],[-0.35177,0.56631],[1.33831,-2.15456]],[[545.61718,644],[-3.04994,0.00386],[6.01206,-0.00761]],[[563.97058,644.43107],[-5.90478,-1.08158],[10.78253,2.15651]],[[597.04254,645.54479],[-10.6965,-2.40266],[9.00888,2.25222]],[[626.11718,648],[-9.28168,0],[2.33333,0]],[[633.11718,648],[-2.33333,0],[0.35109,0]],[[634.59021,647.90091],[-0.5707,0.05184],[-0.57412,-1.02596]],[[634.61718,643],[0,1.39387],[0,-5.20707]],[[634.21982,624.13246],[2.14282,4.67827],[-1.8936,-5.6808]],[[628.03948,607.31672],[3.08887,5.66543],[-2.2791,-4.1802]],[[620.32688,595.27881],[1.8857,4.15235],[-0.91417,-2.47477]],[[615.61718,594],[2.9771,0.57275],[-6.58756,-1.26734]],[[595.61718,593],[6.8054,0],[-2.48058,0]],[[587.61718,593],[2.40395,0.50364],[-0.50743,-0.10631]],[[585.44122,592.1748],[0.71481,0.32365],[1.30749,1.01011]],[[582.51161,594.78885],[1.25365,-0.62682],[-0.98239,0.4912]]],&quot;closed&quot;:true}],&quot;index&quot;:null}" fill="#484848" stroke="none" stroke-linecap="butt"/><path d="M69.26146,246.42051c0,0.55791 1.8932,1.23412 0.94957,1.67589c2.41352,0.0747 4.84129,0.23779 6.99799,0.56196c8.3153,1.24986 25.23084,5.80423 26.82582,8.8152c0.12967,0.24492 -2.2217,0.28583 -1.82348,0.50302c1.32503,0.72267 12.1233,-0.53325 13.36536,-0.32801c0.2811,0.04646 0.4192,0.11882 0.47449,0.20685c-0.05784,-0.27352 -0.1108,-0.53794 -0.1108,-0.7043c0,-0.58476 0.07682,-1.21496 -0.79311,-1.73801c-7.39469,-4.61011 -19.47646,-8.99263 -40.39421,-8.99263c0,0 -2.46844,-0.00001 -4.09556,-0.49749c-0.54263,-0.09267 -0.96451,-0.20163 -1.24741,-0.32943c-0.07269,0.31493 -0.14875,0.63551 -0.14875,0.82694zM115.94049,258.802c0.37481,0.33801 0.26423,-0.22303 0.13969,-0.80993c-0.02608,0.25472 -0.3959,0.57897 -0.13969,0.80993zM124.97107,253.93656c6.82853,4.10551 -8.67627,10.10399 -22.75971,7.34176c-13.28785,-2.60617 -17.78746,-7.84404 -29.91415,-9.66675c-4.09681,-0.61579 -9.00587,-0.95195 -12.06631,-1.97643c-4.8499,-1.62354 -2.69998,-7.16751 6.5746,-7.16751c6.67832,0 9.96769,0.65113 16.18509,0.65113h2.7458c0,0 3.152,0 4.68014,0.71787c16.26725,1.59629 26.70579,5.65194 34.5545,10.09991z" data-paper-data="{&quot;index&quot;:null}" fill="#000000" stroke="none" stroke-linecap="butt"/><path d="M69.20638,245.53823c0.28269,0.12779 0.70489,0.23673 1.24752,0.32943c1.62707,0.49749 4.10674,0.49397 4.10674,0.49397c20.91769,0 33.43559,4.47947 40.83024,9.08959c0.86998,0.52303 0.76912,1.16473 0.76912,1.74948c0,0.16637 0.04276,0.43458 0.10062,0.7081c-0.05521,-0.08808 -0.19198,-0.16085 -0.47315,-0.20735c-1.24214,-0.20522 -12.13389,1.07239 -13.45891,0.34974c-0.39823,-0.21721 1.69236,-0.40309 1.56253,-0.64802c-1.59491,-3.01096 -18.59211,-7.54221 -26.9075,-8.79209c-2.15672,-0.32418 -4.59845,-0.48056 -7.01199,-0.55525c0.9436,-0.44181 -0.92708,-1.12818 -0.92708,-1.68608c0,-0.19142 0.08876,-0.5166 0.16163,-0.83152z" data-paper-data="{&quot;noHover&quot;:false,&quot;origItem&quot;:[&quot;Path&quot;,{&quot;applyMatrix&quot;:true,&quot;segments&quot;:[[[607.563,601.99816],[0.02649,0.38155],[-0.10299,0.15484]],[[607.10872,602.39727],[0.1976,-0.11227],[-0.59254,0.60273]],[[605.61718,603],[0,0],[-7.618,0]],[[590.90604,613.89443],[2.69308,-5.58508],[-0.31682,0.63364]],[[590.61718,616],[0,-0.70843],[0,0.20156]],[[590.57685,616.85325],[0.02106,-0.33136],[0.02013,-0.10671]],[[590.74964,616.60263],[-0.10238,0.05628],[0.45234,-0.24865]],[[595.61718,617],[-0.48256,0.87548],[0.14503,-0.26312]],[[594.95308,616.3906],[-0.04725,0.29671],[0.58086,-3.64773]],[[604.72276,605.71115],[-3.02833,1.51416],[0.78545,-0.39273]],[[607.27135,605.03032],[-0.87898,0.0905],[-0.34365,-0.53523]],[[607.61718,603],[0,0.6759],[0,-0.23192]]],&quot;closed&quot;:true}],&quot;index&quot;:null}" fill="#ffffff" stroke="none" stroke-linecap="butt"/></g><g fill-rule="nonzero" stroke-width="1"><path d="M371.44219,310.0467l-20.98225,-39.72762l99.66579,0.35157l35.66983,39.37604z" data-paper-data="{&quot;index&quot;:null}" fill="#cedce9" stroke="#000000" stroke-linecap="round"/><path d="M495.27567,307.98215c-2.69741,0.43549 -5.34924,0.68463 -7.97455,0.8643c0.01777,0.06688 0.02698,0.13668 0.02698,0.20947c0,1.77311 -5.49164,1.77311 -5.49164,1.77311c-24.25481,0 -48.50953,0 -72.76436,0c-6.24146,0 -21.77182,-0.80442 -26.37522,0.25609c-2.65163,0.61087 -4.54992,0.55042 -7.94761,0.63045c-0.38354,0.00904 -1.08106,0.02837 -1.69736,0.04026c3.28547,0.7573 1.69736,7.75575 1.69736,9.71193c0,8.27459 0,16.5492 0,24.82379c0,1.47758 0,2.95524 0,4.43281c0,0.59103 -0.96586,2.2752 0,1.77311c3.67473,-1.91013 10.84624,-0.88314 19.22078,-0.88656c16.50808,-0.00674 34.18173,-0.57674 50.3952,0.38214c29.60695,1.91186 61.43911,-1.14272 90.80975,0.98739c24.73678,1.99673 54.34799,2.17667 79.83381,2.17667c6.40698,0 12.81387,0 19.22084,0c0.96399,0 2.47756,-0.04191 4.04463,-0.08787c-1.57638,-0.90959 0.07413,-3.10924 0.07413,-4.34496c0,-4.61642 4.79266,-12.5797 -1.09108,-16.72726c-5.19947,-5.03638 -8.48857,-9.88543 -16.9701,-14.90822c-6.25792,-3.70602 -15.99964,-6.99106 -21.17741,-10.6724c-2.51018,-2.19405 -4.75737,-0.62598 -12.93198,-1.13375c-18.08832,-1.12358 -36.23002,-0.88656 -54.91651,-0.88656c-6.81136,0 -15.36584,0.44653 -21.96665,0c-1.39337,-0.09424 -4.01201,-0.44463 -5.97482,-0.73161c3.59011,0.89553 -4.60192,1.76183 -8.04421,2.31756zM409.07186,307.28276c18.33103,0 36.66208,0 54.99304,0c0.52883,-0.08536 1.05749,-0.17073 1.58628,-0.25609c6.96521,-1.12445 13.25358,-0.82647 19.22084,-1.32985c8.13216,-0.686 12.99638,-2.99631 21.38687,-3.54625c4.81997,-0.31589 18.16978,0.69937 25.00227,0.69937c18.52655,0 37.0328,-0.34204 54.91647,0.88657c10.04632,0.69018 18.53667,-0.65535 23.23487,3.45118c0.69258,1.55993 6.23599,2.53491 9.13534,3.7349c4.43093,1.83387 8.13438,4.54988 11.56304,6.58033c8.49967,5.03357 12.23695,10.21078 17.5661,15.37273c4.76241,5.4411 1.65472,12.1883 1.65472,17.84872c0,3.12939 1.52753,5.33502 -5.49164,7.97909c-2.44773,0.92202 -25.0605,0 -28.83113,0c-26.28744,0 -57.0024,-0.22463 -82.49768,-2.2826c-28.00882,-2.64335 -61.34918,0.91915 -90.29995,-0.95036c-23.32968,-1.69667 -59.33996,2.82313 -78.44523,-2.973c-1.89151,-0.57387 0,-5.26108 0,-6.20595c0,-8.27459 0,-16.54916 0,-24.82377c0,-2.76649 -3.777,-9.37168 1.95275,-11.43177c9.99888,-3.59507 28.71181,-2.75327 43.35325,-2.75327z" data-paper-data="{&quot;index&quot;:null}" fill="#000000" stroke="none" stroke-linecap="butt"/><path d="M487.22454,308.76126c2.62521,-0.17965 5.30906,-0.43117 8.00658,-0.86665c3.44231,-0.55572 11.66686,-1.42307 8.07669,-2.3186c1.96281,0.28696 4.60327,0.6373 5.9965,0.73159c6.60085,0.44653 15.23189,0.00445 22.04313,0.00445c18.68636,0 36.94585,-0.21216 55.03414,0.91142c8.17462,0.50777 10.43883,-1.05356 12.949,1.14049c5.17785,3.68132 14.96067,6.99277 21.21866,10.69881c8.48149,5.02279 11.78187,9.90549 16.98136,14.94188c5.88388,4.14759 1.06533,12.14155 1.06533,16.75796c0,1.23574 -1.66078,3.44164 -0.08436,4.35124c-1.56702,0.04596 -3.08267,0.08899 -4.04671,0.08899c-6.40695,0 -12.82505,0.00556 -19.23203,0.00556c-25.48599,0 -55.2174,-0.14906 -79.95419,-2.14581c-29.37069,-2.13008 -61.4938,0.90731 -91.10078,-1.00459c-16.21345,-0.95891 -33.93708,-0.40914 -50.44518,-0.40241c-8.37449,0.00343 -15.55249,-1.02738 -19.22725,0.88276c-0.96586,0.50205 -0.00414,-1.18475 -0.00414,-1.77579c0,-1.47758 -0.00938,-2.9624 -0.00938,-4.43999c0,-8.27459 -0.01144,-16.5984 -0.01144,-24.87301c0,-1.95616 1.60481,-8.97159 -1.6807,-9.72893c0.6164,-0.01189 1.31449,-0.03167 1.69798,-0.04071c3.39759,-0.08001 5.30021,-0.02252 7.95178,-0.63342c4.60336,-1.06051 20.14788,-0.26433 26.38929,-0.26433c24.25492,0 48.63895,-0.03525 72.89366,-0.03525c0,0 5.51859,-0.00304 5.51859,-1.77615c0,-0.07278 -0.00855,-0.1426 -0.02634,-0.20951z" data-paper-data="{&quot;noHover&quot;:false,&quot;origItem&quot;:[&quot;Path&quot;,{&quot;applyMatrix&quot;:true,&quot;segments&quot;:[[[579.60736,595.76373],[0.95609,-0.20262],[0.00646,0.07548]],[[579.61718,596],[0,-0.08208],[0,2]],[[577.61718,598],[0,0],[-8.83333,0]],[[551.11718,598],[8.83333,0],[-2.27308,0]],[[541.51161,598.28885],[1.67648,-1.19621],[-0.96568,0.68904]],[[538.61718,599],[1.23739,-0.09027],[-0.13966,0.01019]],[[537.99901,599.04541],[0.22447,-0.0134],[1.19653,0.85421]],[[538.61718,610],[0,-2.20646],[0,9.33333]],[[538.61718,638],[0,-9.33333],[0,1.66667]],[[538.61718,643],[0,-1.66667],[0,0.66667]],[[538.61718,645],[-0.35177,0.56631],[1.33831,-2.15456]],[[545.61718,644],[-3.04994,0.00386],[6.01206,-0.00761]],[[563.97058,644.43107],[-5.90478,-1.08158],[10.78253,2.15651]],[[597.04254,645.54479],[-10.6965,-2.40266],[9.00888,2.25222]],[[626.11718,648],[-9.28168,0],[2.33333,0]],[[633.11718,648],[-2.33333,0],[0.35109,0]],[[634.59021,647.90091],[-0.5707,0.05184],[-0.57412,-1.02596]],[[634.61718,643],[0,1.39387],[0,-5.20707]],[[634.21982,624.13246],[2.14282,4.67827],[-1.8936,-5.6808]],[[628.03948,607.31672],[3.08887,5.66543],[-2.2791,-4.1802]],[[620.32688,595.27881],[1.8857,4.15235],[-0.91417,-2.47477]],[[615.61718,594],[2.9771,0.57275],[-6.58756,-1.26734]],[[595.61718,593],[6.8054,0],[-2.48058,0]],[[587.61718,593],[2.40395,0.50364],[-0.50743,-0.10631]],[[585.44122,592.1748],[0.71481,0.32365],[1.30749,1.01011]],[[582.51161,594.78885],[1.25365,-0.62682],[-0.98239,0.4912]]],&quot;closed&quot;:true}],&quot;index&quot;:null}" fill="#484848" stroke="none" stroke-linecap="butt"/><path d="M564.21111,315.2618c0,-0.2056 -0.07607,-0.54993 -0.14877,-0.88818c-0.28285,0.13725 -0.70483,0.25432 -1.24741,0.35384c-1.62707,0.53434 -4.09555,0.53436 -4.09555,0.53436c-20.91774,0 -32.99946,4.70707 -40.39418,9.6586c-0.86994,0.56177 -0.7931,1.23864 -0.7931,1.86671c0,0.17869 -0.05291,0.4627 -0.11074,0.75646c0.0553,-0.09458 0.19337,-0.17228 0.47445,-0.22217c1.24212,-0.22042 12.04031,1.12849 13.36534,0.3523c0.39822,-0.23329 -1.95316,-0.27721 -1.82349,-0.54026c1.59501,-3.23395 18.51057,-8.1256 26.82582,-9.46803c2.15663,-0.34819 4.58443,-0.52337 6.99795,-0.60358c-0.94361,-0.4745 0.94957,-1.20076 0.94957,-1.8zM517.39237,327.69034c-0.12453,0.63037 -0.23506,1.23295 0.13971,0.86991c0.25619,-0.24807 -0.11368,-0.59634 -0.13971,-0.86991zM508.5016,323.3345c7.84871,-4.77737 18.28731,-9.13337 34.5545,-10.84788c1.52806,-0.77104 4.68014,-0.77104 4.68014,-0.77104h2.7458c6.21741,0 9.50675,-0.69936 16.18509,-0.69936c9.27454,0 11.42446,5.95449 6.57459,7.6983c-3.06045,1.10036 -7.96947,1.46142 -12.06632,2.1228c-12.12676,1.95774 -16.62633,7.58347 -29.91414,10.38267c-14.08345,2.96675 -29.58821,-3.47595 -22.75967,-7.88547z" data-paper-data="{&quot;index&quot;:null}" fill="#000000" stroke="none" stroke-linecap="butt"/><path d="M564.26633,314.31421c0.07289,0.33825 0.16163,0.68751 0.16163,0.89311c0,0.59922 -1.87068,1.33643 -0.92707,1.81095c-2.41355,0.08023 -4.85526,0.2482 -7.01199,0.59638c-8.31538,1.34241 -25.31252,6.20923 -26.9075,9.44317c-0.12983,0.26308 1.96077,0.46273 1.56255,0.69602c-1.32504,0.77619 -12.2168,-0.59604 -13.45892,-0.37564c-0.28121,0.04991 -0.41797,0.12807 -0.47316,0.22271c0.05784,-0.29378 0.10062,-0.58187 0.10062,-0.76056c0,-0.62806 -0.10078,-1.31724 0.76913,-1.87901c7.39464,-4.95155 19.91251,-9.76276 40.83023,-9.76276c0,0 2.47967,0.00381 4.10674,-0.53055c0.54263,-0.09954 0.96478,-0.21653 1.24752,-0.35381z" data-paper-data="{&quot;noHover&quot;:false,&quot;origItem&quot;:[&quot;Path&quot;,{&quot;applyMatrix&quot;:true,&quot;segments&quot;:[[[607.563,601.99816],[0.02649,0.38155],[-0.10299,0.15484]],[[607.10872,602.39727],[0.1976,-0.11227],[-0.59254,0.60273]],[[605.61718,603],[0,0],[-7.618,0]],[[590.90604,613.89443],[2.69308,-5.58508],[-0.31682,0.63364]],[[590.61718,616],[0,-0.70843],[0,0.20156]],[[590.57685,616.85325],[0.02106,-0.33136],[0.02013,-0.10671]],[[590.74964,616.60263],[-0.10238,0.05628],[0.45234,-0.24865]],[[595.61718,617],[-0.48256,0.87548],[0.14503,-0.26312]],[[594.95308,616.3906],[-0.04725,0.29671],[0.58086,-3.64773]],[[604.72276,605.71115],[-3.02833,1.51416],[0.78545,-0.39273]],[[607.27135,605.03032],[-0.87898,0.0905],[-0.34365,-0.53523]],[[607.61718,603],[0,0.6759],[0,-0.23192]]],&quot;closed&quot;:true}],&quot;index&quot;:null}" fill="#ffffff" stroke="none" stroke-linecap="butt"/></g><g><path d="M14.86507,212.64163l18.58552,-103.33974l116.90156,18.68207l16.35129,-93.85322l271.54222,42.53813l10.8432,-10.83234l148.2789,21.66125l7.61298,0.48803l-35.59431,225.74618l-249.75133,-41.34316l3.02997,-7.20168z" fill="#67708d" fill-rule="nonzero" stroke="#000000" stroke-width="1" stroke-linecap="round"/><path d="M25.035,177.0165l305.4776,51.39105l-6.32561,38.08299l-305.51037,-52.70536z" fill="#374c6f" fill-rule="nonzero" stroke="#000000" stroke-width="1" stroke-linecap="round"/><path d="M299.02284,186.666l1.53038,0.24762l0.25507,0.04127l1.9167,1.09535z" fill="#9e8142" fill-rule="evenodd" stroke="none" stroke-width="1" stroke-linecap="butt"/><path d="M379.57853,226.04569c0.29596,0.38616 0.23706,0.7502 -0.17662,1.09154c-0.25061,-0.40683 -0.1917,-0.77088 0.17662,-1.09154z" fill="#fefffe" fill-rule="evenodd" stroke="none" stroke-width="1" stroke-linecap="butt"/><path d="M319.14405,272.54246l23.03063,-145.21755l71.45169,-41.11698l54.86303,58.52506l-4.89879,25.95434l125.79024,18.48867l-19.62438,125.60648z" fill="#727681" fill-rule="nonzero" stroke="#000000" stroke-width="1" stroke-linecap="round"/><path d="M342.34014,276.12087l18.88165,-116.69445l6.20334,-8.08675l7.84335,-5.25742l10.07801,-4.66274l8.1205,-2.64858l11.39388,1.61048l11.47401,2.55581l11.19986,8.57178l7.43184,11.69152l2.65522,9.5201l-0.55853,17.8575l-14.75316,99.8225z" fill="#56505e" fill-rule="nonzero" stroke="#000000" stroke-width="1" stroke-linecap="round"/><path d="M430.73433,163.97561l-15.61096,106.59317l-70.9041,-11.79982l16.3664,-99.12693l5.33717,-5.68144z" fill="#8c908f" fill-rule="nonzero" stroke="#000000" stroke-width="1" stroke-linecap="round"/><path d="M422.96103,181.67928l-61.22453,-8.92463l2.42518,-14.9884l60.69923,10.14864z" fill="#45a3ac" fill-rule="nonzero" stroke="#000000" stroke-width="1" stroke-linecap="round"/><path d="M412.11897,255.76542l-8.90346,-1.60425l10.15477,-67.81595l10.04541,1.62539z" fill="#45a3ac" fill-rule="nonzero" stroke="#000000" stroke-width="1" stroke-linecap="round"/><path d="M359.08806,245.75308l-8.55875,-1.71209l11.38344,-66.30815l8.87301,0.78119z" fill="#45a3ac" fill-rule="nonzero" stroke="#000000" stroke-width="1" stroke-linecap="round"/><path d="M373.99234,179.9328l34.31241,6.37003l-11.98582,75.08737l-33.08376,-4.86221l11.93602,-75.79084z" fill="#ffb600" fill-rule="nonzero" stroke="#000000" stroke-width="1" stroke-linecap="round"/><path d="M337.4297,158.10423l-0.97785,0.98716l-322.55767,-52.51842l-3.24739,-7.23408l328.1517,52.11456z" fill="#d0ced0" fill-rule="nonzero" stroke="#000000" stroke-width="1" stroke-linecap="round"/><path d="M413.86801,86.65509l-83.34131,47.8746l-1.86603,-12.73747l87.76363,-44.8683l69.42344,69.23826l-9.6284,7.93237z" fill="#d0ced0" fill-rule="nonzero" stroke="#000000" stroke-width="1" stroke-linecap="round"/><path d="M462.45023,123.15036l7.81735,-48.31366l109.98833,17.46932l-9.97735,57.61807l-95.47605,-13.64854z" fill="#393b64" fill-rule="nonzero" stroke="#000000" stroke-width="1" stroke-linecap="round"/><path d="M480.22384,137.15274l9.70074,-59.95358l73.95948,12.13057l-9.30909,58.54432l-75.30137,-10.91597" fill="#0024ff" fill-rule="nonzero" stroke="#000000" stroke-width="1" stroke-linecap="round"/><path d="M438.08102,76.78739l-286.99079,-44.80005l-7.70017,-11.06345l241.50042,35.96689l-2.33806,5.34859l49.6268,7.53895l10.32499,-12.23755l184.92342,27.13975l-6.89658,7.229l-171.61625,-26.45922z" fill="#d0ced0" fill-rule="nonzero" stroke="#000000" stroke-width="1" stroke-linecap="round"/><path d="M474.78895,183.88839l70.7916,10.47262l-10.60162,71.58886l-72.55021,-11.73893z" fill="#00ff06" fill-rule="nonzero" stroke="#000000" stroke-width="1" stroke-linecap="round"/><path d="M140.75298,134.58513l-2.54445,6.62419l-15.69306,89.90923l-89.05572,-14.90047l17.66241,-96.01288z" fill="#838a99" fill-rule="nonzero" stroke="#000000" stroke-width="1" stroke-linecap="round"/><path d="M52.46831,131.09957l81.63893,13.20952l-14.56327,85.96049l-82.96613,-13.09702z" fill="#555e7f" fill-rule="nonzero" stroke="#000000" stroke-width="1" stroke-linecap="round"/><path d="M57.58935,135.85519l73.21383,11.68267l-1.89735,8.69241l-72.36497,-11.87258z" fill="#ffb600" fill-rule="nonzero" stroke="#000000" stroke-width="1" stroke-linecap="round"/><path d="M333.76909,164.54783l-16.28615,100.65346l-177.15938,-30.62863l17.2034,-96.20987z" fill="#838a99" fill-rule="nonzero" stroke="#000000" stroke-width="1" stroke-linecap="round"/><path d="M145.13819,234.9017l14.64712,-86.4787l168.74845,26.48607l-14.92627,89.21518z" fill="#555e7f" fill-rule="nonzero" stroke="#000000" stroke-width="1" stroke-linecap="round"/><path d="M165.78333,153.32052l157.16245,24.77504l-2.61254,9.06756l-156.43318,-24.9843z" fill="#ffb600" fill-rule="nonzero" stroke="#000000" stroke-width="1" stroke-linecap="round"/><path d="M322.02069,117.32261l-126.50021,-19.10471l8.5573,-51.87551l125.36138,18.81136z" fill="#393b64" fill-rule="nonzero" stroke="#000000" stroke-width="1" stroke-linecap="round"/><path d="M214.52627,100.84314l8.43655,-52.14049l87.74966,13.87101l-10.00526,51.72303z" fill="#ba00ff" fill-rule="nonzero" stroke="#000000" stroke-width="1" stroke-linecap="round"/><path d="M402.55017,77.79644c0.63684,0.87791 1.51741,0.23827 1.51741,0.23827c6.09535,-4.43086 15.161,-5.21082 21.38938,-0.54969c2.75204,2.05955 4.28846,5.3075 6.50332,7.79061c4.90108,5.17193 2.41825,17.6491 -3.16847,21.53695c-2.14803,1.49482 -4.91207,1.81519 -7.54116,2.00363c-1.5504,-0.42173 -3.29915,-0.40394 -4.82642,-1.00773c-2.21379,-0.26042 -4.48008,-0.67591 -6.72033,-0.97584c-6.18287,-4.16284 -8.87042,-13.46583 -8.84078,-20.83948c0.03375,-3.1602 -0.6007,-6.81196 1.45628,-8.83169c0.00179,0.18996 0.06369,0.40466 0.23077,0.63497z" data-paper-data="{&quot;noHover&quot;:false,&quot;origItem&quot;:[&quot;Path&quot;,{&quot;applyMatrix&quot;:true,&quot;segments&quot;:[[[521.95838,341.96483],[-0.01667,0.21389],[-2.51251,2.06985]],[[519.4768,351.72196],[0.34861,-3.5517],[-0.75818,8.29192]],[[527.33632,375.91087],[-6.54613,-5.29068],[2.49065,0.55761]],[[534.76312,377.65449],[-2.46476,-0.51055],[1.65872,0.82936]],[[540.0653,379.26158],[-1.70264,-0.62682],[2.97607,0.04647]],[[548.70522,377.76236],[-2.56331,1.47041],[6.66685,-3.82437]],[[554.34307,353.96499],[5.00498,6.29984],[-2.24748,-3.01103]],[[547.83272,344.6127],[2.89338,2.58736],[-6.5483,-5.85572]],[[523.83701,343.12089],[7.2924,-4.38522],[0,0]],[[522.15667,342.70081],[0.63012,1.05021],[-0.1653,-0.2755]]],&quot;closed&quot;:true}]}" fill="#ffffff" fill-rule="nonzero" stroke="#000000" stroke-width="2" stroke-linecap="butt"/><path d="M369.33432,83.773c0,0 -0.78077,0.7439 -0.03208,1.52863c0.74867,0.78472 1.39611,-0.07572 1.39611,-0.07572c2.43605,-2.32459 5.33219,-5.60732 8.50213,-6.85971c1.47366,-0.58224 2.44462,0.2648 3.94313,0.40768c4.6423,0.44257 8.63713,3.13791 11.11497,7.14555c0.71507,1.35334 1.90875,2.50197 2.34998,3.97176c3.02017,10.06099 -3.7861,18.60619 -11.98919,22.83601c-11.76878,0.90717 -18.67198,-16.93621 -17.39206,-26.65726c0.42213,-1.07635 0.80876,-3.03633 1.74198,-3.82542c1.10897,-0.93771 2.50041,-1.37052 3.82225,-1.84773c-1.24114,1.1586 -2.38806,2.35636 -3.45724,3.37626z" data-paper-data="{&quot;noHover&quot;:false,&quot;origItem&quot;:[&quot;Path&quot;,{&quot;applyMatrix&quot;:true,&quot;segments&quot;:[[[488.3096,342.53923],[-1.51011,1.18134],[-1.53391,0.40687]],[[483.9403,344.40615],[1.33969,-0.94584],[-1.12739,0.79595]],[[481.61976,348.52197],[0.58067,-1.16933],[-2.39539,10.80972]],[[498.48043,380.05978],[-13.32827,-0.13636],[9.64373,-3.9519]],[[514.1197,355.67768],[2.40851,11.61483],[-0.35185,-1.69676]],[[511.87957,351.00633],[0.67137,1.5927],[-2.39344,-4.75186]],[[500.14885,341.91879],[5.17877,0.9542],[-1.67168,-0.30801]],[[495.77608,341.07281],[1.715,-0.51012],[-3.68906,1.09729]],[[485.59672,347.92601],[2.96891,-2.37555],[0,0]],[[483.87527,347.73474],[0.76509,0.95636],[-0.76509,-0.95636]],[[484.06654,346.01329],[0,0],[1.30299,-1.04221]]],&quot;closed&quot;:true}]}" fill="#ffffff" fill-rule="nonzero" stroke="#000000" stroke-width="2" stroke-linecap="butt"/><path d="M371.81121,89.2149c-0.12773,-1.4617 0.95366,-2.75015 2.41535,-2.87788c1.4617,-0.12773 2.75015,0.95367 2.87788,2.41535c0.12773,1.4617 -0.95366,2.75017 -2.41535,2.8779c-1.4617,0.12773 -2.75015,-0.95366 -2.87789,-2.41537z" fill="#000000" fill-rule="nonzero" stroke="none" stroke-width="0.5" stroke-linecap="butt"/><path d="M427.83997,93.76201c-0.12773,-1.4617 0.95366,-2.75015 2.41535,-2.87788c1.4617,-0.12773 2.75015,0.95367 2.87788,2.41535c0.12773,1.4617 -0.95366,2.75017 -2.41535,2.8779c-1.4617,0.12773 -2.75015,-0.95366 -2.87789,-2.41537z" fill="#000000" fill-rule="nonzero" stroke="none" stroke-width="0.5" stroke-linecap="butt"/><path d="M316.12807,17.60262c0.57332,-0.0501 0.86569,0.23457 1.01348,0.50894c2.84684,0.66042 5.48829,2.33905 8.10665,3.6069c3.17111,1.53551 6.80554,2.82297 9.76076,4.73543c9.43209,6.10402 17.62023,15.02401 26.39599,22.06261c5.78108,4.63697 11.08373,10.59684 17.13067,14.79504c3.75257,2.60529 8.65124,4.50485 12.69551,6.71788c0,0 0.94007,0.5146 0.42547,1.45464c-0.5146,0.94006 -1.45465,0.42547 -1.45465,0.42547c-4.10727,-2.24911 -9.05342,-4.18233 -12.87212,-6.82595c-6.10058,-4.2233 -11.44134,-10.22319 -17.26599,-14.8951c-8.71553,-6.99111 -16.85354,-15.87399 -26.2194,-21.93515c-2.87857,-1.86287 -6.44038,-3.10952 -9.53037,-4.60576c-2.60724,-1.26249 -5.35115,-3.13069 -8.23004,-3.56311l-0.93029,-1.32095c0,0 -0.0933,-1.06762 0.97432,-1.1609z" fill="#000000" fill-rule="nonzero" stroke="none" stroke-width="0.5" stroke-linecap="butt"/><path d="M480.07372,-4.76181c0.5864,0.89704 -0.31063,1.48343 -0.31063,1.48343l-0.67164,0.40483c-5.90711,6.21376 -11.81426,12.42752 -17.72137,18.64128c-10.11276,10.6356 -21.0633,20.57166 -31.59331,30.79548c-6.66287,6.46913 -13.10557,13.33183 -20.3125,19.19053c-2.35584,1.91514 -5.26196,5.36714 -8.30298,5.73742c0,0 -1.06762,0.09329 -1.16091,-0.97433c-0.09329,-1.06762 0.97433,-1.16091 0.97433,-1.16091c2.18922,-0.05473 5.42524,-3.87337 7.13754,-5.26533c7.15753,-5.81854 13.55418,-12.64029 20.17145,-19.06514c10.50915,-10.20358 21.4424,-20.11794 31.53293,-30.73448c5.90711,-6.21376 11.81425,-12.42753 17.72136,-18.64129l1.05231,-0.72212c0,0 0.89703,-0.58641 1.48342,0.31063z" fill="#000000" fill-rule="nonzero" stroke="none" stroke-width="0.5" stroke-linecap="butt"/><path d="M441.45577,106.42797c0.28565,0.1907 0.32515,0.56243 0.32515,0.56243c0.93399,8.79177 -2.65167,17.33043 -6.12766,25.23871c-2.23211,5.36701 -4.48511,12.67686 -10.28446,15.26086c-2.89589,1.29031 -6.29273,1.71086 -9.36762,2.37691c-9.56313,2.06154 -20.40124,0.3538 -29.93757,-1.18891c-10.31687,-1.66931 -20.00036,-3.3703 -29.49064,-7.97138c-3.16582,-1.53657 -6.81208,-2.56401 -9.70998,-4.58894c-5.69217,-3.97745 -8.30313,-9.26526 -11.57378,-15.04031c-1.40683,-2.25715 -0.94689,-5.07304 0.07506,-7.48171c1.27958,-3.01588 3.9254,-4.93987 5.86384,-7.43963c2.79319,-3.60201 5.19622,-7.30318 8.25004,-10.7111c2.86965,-3.17774 4.41425,-7.37647 7.10963,-10.61828c0.33626,-0.40443 2.22857,-2.82 2.85854,-2.64186c1.09,0.30821 0.80558,2.01598 0.93931,2.70259c0.55331,2.84093 1.02617,5.68356 1.62057,8.53979c2.9177,8.39595 10.10304,18.30697 18.6864,21.58371c9.54658,2.71238 18.20078,4.89766 28.20268,4.18006c5.78077,-1.39048 10.18448,-4.15654 15.56336,-6.44684c3.33574,-1.42034 6.90285,-1.607 10.03781,-3.57682c1.57483,-1.64823 2.68192,-4.32295 4.64297,-5.51423c0.50176,-0.3048 2.01282,-1.19892 2.6076,-0.36486c0.3602,0.50511 -0.06197,1.23994 -0.12897,1.85671c-0.04638,0.42692 -0.10398,0.85483 -0.16229,1.28312zM440.26473,112.97072c-0.20096,-0.18745 -0.24544,-0.46074 -0.24544,-0.46074l-0.1438,-0.88478c-0.271,-1.33319 -0.62887,-5.32091 0.29211,-6.87831c-0.09044,0.07659 -0.17587,0.14288 -0.23897,0.18173c-0.45234,0.27843 -0.76947,0.73936 -1.08714,1.16506c-1.0942,1.46628 -2.12588,2.91878 -3.39788,4.23672c-3.28803,2.06894 -6.91574,2.31132 -10.3973,3.79376c-5.4918,2.33839 -10.00816,5.14691 -15.92065,6.54895c-10.23707,0.78028 -19.1432,-1.45427 -28.90863,-4.23965c-9.06719,-3.52365 -16.5738,-13.67741 -19.65653,-22.60648c-0.42222,-2.00846 -0.46509,-4.00011 -0.81387,-5.99457c-0.04036,-0.23077 -0.75475,-2.22944 -0.88563,-3.37915c-0.78216,1.02564 -2.50623,2.70232 -2.71833,2.96578c-2.16098,2.6844 -3.17527,6.36263 -5.54742,9.02694c-3.03342,3.38469 -5.41335,7.06446 -8.19072,10.64067c-1.60314,2.06424 -3.52814,3.67805 -4.96466,5.9019c-1.29167,1.99961 -2.26575,5.23123 -0.86668,7.31328c3.15918,5.60237 5.63662,10.70114 11.13873,14.57917c2.81801,1.9862 6.42774,2.97721 9.51604,4.47615c9.35342,4.54513 18.90398,6.19433 29.07525,7.84008c9.33341,1.51049 20.02063,3.24169 29.38043,1.20366c2.95957,-0.64107 6.24706,-1.03488 9.03952,-2.26483c5.40006,-2.37848 7.48717,-9.53518 9.55094,-14.49675c2.59479,-5.90444 5.30068,-12.19404 5.99065,-18.66856z" fill="#000000" fill-rule="nonzero" stroke="none" stroke-width="0.5" stroke-linecap="butt"/><path d="M434.32215,131.65307c-2.06377,4.96157 -4.15897,12.13451 -9.55903,14.51299c-2.79245,1.22995 -6.08584,1.63032 -9.04541,2.27139c-9.3598,2.03803 -20.08334,0.3202 -29.41675,-1.19028c-10.17127,-1.64575 -19.76066,-3.31637 -29.11408,-7.8615c-3.08829,-1.49895 -6.70312,-2.49925 -9.52113,-4.48545c-5.50212,-3.87803 -7.98336,-8.99403 -11.14254,-14.5964c-1.39907,-2.08205 -0.42476,-5.32089 0.86691,-7.3205c1.43652,-2.22385 3.36271,-3.84443 4.96585,-5.90867c2.77737,-3.57621 5.16277,-7.26937 8.19618,-10.65406c2.37215,-2.66432 3.39382,-6.35215 5.55479,-9.03655c0.2121,-0.26347 1.93948,-1.94324 2.72165,-2.96888c0.13088,1.14972 0.91142,3.22336 0.95178,3.45413c0.34877,1.99446 0.39499,3.98275 0.81721,5.99121c3.08273,8.92907 10.60079,19.0613 19.66798,22.58495c9.76543,2.78538 18.57333,5.00237 28.81039,4.22209c5.91249,-1.40204 10.42885,-4.1995 15.92064,-6.53789c3.48156,-1.48243 7.10964,-1.72214 10.39767,-3.79108c1.272,-1.31794 2.30436,-2.76706 3.39856,-4.23334c0.31767,-0.4257 0.63499,-0.88583 1.08733,-1.16427c0.06311,-0.03884 0.24543,-0.12992 0.33586,-0.20651c-0.92097,1.5574 -0.56194,5.55127 -0.29093,6.88446l0.1439,0.88563c0,0 0.04453,0.27375 0.24549,0.4612c-0.68997,6.47453 -3.39755,12.7829 -5.99233,18.68734z" data-paper-data="{&quot;noHover&quot;:false,&quot;origItem&quot;:[&quot;Path&quot;,{&quot;applyMatrix&quot;:true,&quot;segments&quot;:[[[838.25604,245.98109],[0.70609,13.00322],[-0.45665,-0.30589]],[837.62427,245.14984],[[837.05771,243.44893],[0,0],[-0.96094,-2.54558]],[[835.43712,229.77562],[-1.32078,3.36901],[-0.15408,0.18011]],[[835.02336,230.21075],[0.11219,-0.09685],[-0.80412,0.69422]],[[833.24918,232.85825],[0.4912,-0.94195],[-1.69189,3.24446]],[[827.8941,242.30837],[2.09032,-3.00838],[-5.83071,5.13512]],[[808.5784,253.11993],[6.40015,-4.039],[-10.09557,6.3711]],[[779.23799,271.13558],[11.22527,-4.65685],[-19.96201,4.81079]],[[720.80866,272.0001],[20.16991,2.37964],[-19.02719,-4.06027]],[[674.7786,233.64696],[8.93873,16.64408],[-1.4752,-3.83047]],[[671.25678,222.07174],[1.32573,3.82629],[-0.1534,-0.44273]],[[668.42877,215.68312],[0.62568,2.2281],[-1.2166,2.27481]],[[664.00934,222.40691],[0.33458,-0.58792],[-3.40892,5.99021]],[[655.94063,242.00115],[3.83226,-6.01801],[-4.90769,7.6515]],[[643.16871,265.62581],[4.34099,-7.94783],[-2.50569,4.58761]],[[635.25225,278.86404],[2.12573,-4.8495],[-1.91139,4.36051]],[[635.8774,293.57967],[-3.42733,-3.6637],[8.02694,10.05167]],[[662.52622,318.80534],[-12.1018,-5.89881],[6.19815,3.02118]],[[682.74387,324.60278],[-6.57613,-1.97284],[19.91863,5.98557]],[[742.65234,330.79344],[-20.60711,0],[18.90969,0.0006]],[[801.0433,323.78416],[-17.82821,7.01376],[5.63835,-2.21112]],[[818.16671,316.42494],[-5.12029,3.32038],[9.90165,-6.42096]],[[832.39231,284.75259],[-2.48956,10.45502],[3.23675,-12.48619]]],&quot;closed&quot;:true}]}" fill="#870000" fill-rule="nonzero" stroke="none" stroke-width="0.5" stroke-linecap="butt"/></g></g></g></svg>