<svg version="1.1" xmlns="http://www.w3.org/2000/svg" xmlns:xlink="http://www.w3.org/1999/xlink" width="1733.09309" height="836.33634" viewBox="0,0,1733.09309,836.33634"><g transform="translate(546.54655,238.16817)"><g data-paper-data="{&quot;isPaintingLayer&quot;:true}" stroke-linejoin="miter" stroke-miterlimit="10" stroke-dasharray="" stroke-dashoffset="0" style="mix-blend-mode: normal"><path d="M-546.54655,598.16817v-836.33634h1733.09309v836.33634z" fill="none" fill-rule="nonzero" stroke="#f00000" stroke-width="0" stroke-linecap="butt"/><path d="M295.79152,308.03598h2.06705l0.25839,4.03991h-0.25839v-3.87157z" fill="#eb4a83" fill-rule="evenodd" stroke="none" stroke-width="1" stroke-linecap="butt"/><path d="M296.30827,312.07588h1.55028h0.25839l2.06705,0.50498z" fill="#9e8142" fill-rule="evenodd" stroke="none" stroke-width="1" stroke-linecap="butt"/><g fill-rule="nonzero" stroke-width="1"><path d="M128.44627,268.32082l35.66987,-36.66103l99.66573,-0.32733l-20.98225,36.98836z" fill="#cedce9" stroke="#000000" stroke-linecap="round"/><path d="M118.96618,266.3986c-3.44227,-0.5174 -11.63426,-1.32394 -8.04421,-2.15777c-1.96281,0.2672 -4.58145,0.59338 -5.97483,0.68116c-6.60083,0.41574 -15.15527,0 -21.96664,0c-18.68641,0 -36.82815,-0.22067 -54.91651,0.82543c-8.17461,0.47276 -10.42181,-0.98718 -12.932,1.05558c-5.17777,3.42749 -14.91953,6.48604 -21.17742,9.93653c-8.48152,4.67647 -11.77057,9.19115 -16.97007,13.88029c-5.88377,3.86161 -1.09103,11.2758 -1.09103,15.57391c0,1.15054 1.65049,3.1985 0.07409,4.04537c1.56709,0.04279 3.08068,0.08181 4.04466,0.08181c6.40695,0 12.81384,0 19.22083,0c25.48583,0 55.09701,-0.16755 79.83381,-2.02659c29.37069,-1.98324 61.20282,0.86074 90.80975,-0.91932c16.21346,-0.89278 33.88709,-0.36208 50.39517,-0.3558c8.37456,0.00319 15.54604,-0.953 19.22075,0.82544c0.96586,0.46746 0,-1.10057 0,-1.65085c0,-1.3757 0,-2.75146 0,-4.12716c0,-7.70405 0,-15.40812 0,-23.11217c0,-1.82128 -1.58808,-8.33722 1.69736,-9.04229c-0.61635,-0.01107 -1.31388,-0.02906 -1.69736,-0.03749c-3.39773,-0.07451 -5.296,-0.01823 -7.94763,-0.58698c-4.60337,-0.9874 -20.1338,-0.23843 -26.37523,-0.23843c-24.25478,0 -48.50949,0 -72.76436,0c0,0 -5.49164,0 -5.49164,-1.65085c0,-0.06777 0.00921,-0.13274 0.02698,-0.19503c-2.62527,-0.16727 -5.27718,-0.39925 -7.97457,-0.80471zM205.16979,265.74745c14.64146,0 33.35444,-0.78376 43.35326,2.56343c5.72981,1.91807 1.95273,8.06779 1.95273,10.64354c0,7.70405 0,15.40813 0,23.11218c0,0.87972 1.89152,5.24375 0,5.77805c-19.10527,5.39647 -55.11552,1.18831 -78.44522,2.76801c-28.95077,1.74059 -62.29112,-1.57626 -90.29992,0.88484c-25.49523,1.91606 -56.21025,2.12522 -82.49769,2.12522c-3.77064,0 -26.38349,0.85845 -28.83114,0c-7.01917,-2.46176 -5.49163,-4.51527 -5.49163,-7.42893c0,-5.27013 -3.10772,-11.55207 1.65477,-16.61803c5.32915,-4.806 9.06643,-9.62627 17.5661,-14.31276c3.4287,-1.89047 7.13216,-4.41918 11.56304,-6.12662c2.89935,-1.11726 8.44273,-2.02501 9.13535,-3.4774c4.69818,-3.82337 13.18851,-2.57062 23.23489,-3.21322c17.88369,-1.14389 36.38998,-0.82544 54.91649,-0.82544c6.83247,0 20.18232,-0.94528 25.00226,-0.65114c8.39046,0.51201 13.25473,2.66302 21.38687,3.30173c5.96723,0.46868 12.25562,0.19124 19.22083,1.23816c0.52878,0.07947 1.05748,0.15896 1.58634,0.23843c18.33101,0 36.66198,0 54.993,0z" data-paper-data="{&quot;index&quot;:null}" fill="#000000" stroke="none" stroke-linecap="butt"/><path d="M127.01701,267.12402c-0.0178,0.06232 -0.02637,0.1273 -0.02637,0.19506c0,1.65085 5.51858,1.65368 5.51858,1.65368c24.25478,0 48.63878,0.03281 72.89365,0.03281c6.24143,0 21.78594,-0.74127 26.3893,0.24611c2.65155,0.56875 4.55419,0.51521 7.95178,0.58975c0.38352,0.00842 1.08159,0.02685 1.69799,0.03793c-3.28549,0.70509 -1.68071,7.2368 -1.68071,9.05811c0,7.70405 -0.01144,15.45393 -0.01144,23.158c0,1.3757 -0.00942,2.75815 -0.00942,4.13386c0,0.55028 0.96171,2.12078 -0.00414,1.65335c-3.67473,-1.77842 -10.85272,-0.8187 -19.22725,-0.82189c-16.50808,-0.00627 -34.23171,-0.51813 -50.44518,0.37464c-29.60696,1.78003 -61.73012,-1.04791 -91.10078,0.93532c-24.73678,1.85908 -54.46821,1.99787 -79.95419,1.99787c-6.40696,0 -12.82504,-0.00518 -19.23201,-0.00518c-0.96406,0 -2.47971,-0.04009 -4.0467,-0.08285c1.57642,-0.84687 -0.08433,-2.9007 -0.08433,-4.05122c0,-4.29812 -4.81856,-11.74088 1.06528,-15.6025c5.19947,-4.68911 8.49988,-9.23516 16.98136,-13.9116c6.258,-3.45049 16.04088,-6.53365 21.21867,-9.96112c2.51018,-2.04277 4.77445,-0.58908 12.94905,-1.06185c18.08828,-1.04611 36.34775,-0.84858 55.03414,-0.84858c6.81117,0 15.44228,0.4116 22.04313,-0.00412c1.39324,-0.08778 4.03375,-0.41396 5.99652,-0.68115c-3.59015,0.83378 4.63442,1.64133 8.07667,2.15873c2.69751,0.40546 5.38136,0.63963 8.00659,0.80689z" data-paper-data="{&quot;noHover&quot;:false,&quot;origItem&quot;:[&quot;Path&quot;,{&quot;applyMatrix&quot;:true,&quot;segments&quot;:[[[579.60736,595.76373],[0.95609,-0.20262],[0.00646,0.07548]],[[579.61718,596],[0,-0.08208],[0,2]],[[577.61718,598],[0,0],[-8.83333,0]],[[551.11718,598],[8.83333,0],[-2.27308,0]],[[541.51161,598.28885],[1.67648,-1.19621],[-0.96568,0.68904]],[[538.61718,599],[1.23739,-0.09027],[-0.13966,0.01019]],[[537.99901,599.04541],[0.22447,-0.0134],[1.19653,0.85421]],[[538.61718,610],[0,-2.20646],[0,9.33333]],[[538.61718,638],[0,-9.33333],[0,1.66667]],[[538.61718,643],[0,-1.66667],[0,0.66667]],[[538.61718,645],[-0.35177,0.56631],[1.33831,-2.15456]],[[545.61718,644],[-3.04994,0.00386],[6.01206,-0.00761]],[[563.97058,644.43107],[-5.90478,-1.08158],[10.78253,2.15651]],[[597.04254,645.54479],[-10.6965,-2.40266],[9.00888,2.25222]],[[626.11718,648],[-9.28168,0],[2.33333,0]],[[633.11718,648],[-2.33333,0],[0.35109,0]],[[634.59021,647.90091],[-0.5707,0.05184],[-0.57412,-1.02596]],[[634.61718,643],[0,1.39387],[0,-5.20707]],[[634.21982,624.13246],[2.14282,4.67827],[-1.8936,-5.6808]],[[628.03948,607.31672],[3.08887,5.66543],[-2.2791,-4.1802]],[[620.32688,595.27881],[1.8857,4.15235],[-0.91417,-2.47477]],[[615.61718,594],[2.9771,0.57275],[-6.58756,-1.26734]],[[595.61718,593],[6.8054,0],[-2.48058,0]],[[587.61718,593],[2.40395,0.50364],[-0.50743,-0.10631]],[[585.44122,592.1748],[0.71481,0.32365],[1.30749,1.01011]],[[582.51161,594.78885],[1.25365,-0.62682],[-0.98239,0.4912]]],&quot;closed&quot;:true}],&quot;index&quot;:null}" fill="#484848" stroke="none" stroke-linecap="butt"/><path d="M50.03072,273.17637c0,0.55791 1.8932,1.23412 0.94957,1.67589c2.41352,0.0747 4.84129,0.23779 6.99799,0.56196c8.3153,1.24986 25.23084,5.80423 26.82582,8.8152c0.12967,0.24492 -2.2217,0.28583 -1.82348,0.50302c1.32503,0.72267 12.1233,-0.53325 13.36536,-0.32801c0.2811,0.04646 0.4192,0.11882 0.47449,0.20685c-0.05784,-0.27352 -0.1108,-0.53794 -0.1108,-0.7043c0,-0.58476 0.07682,-1.21496 -0.79311,-1.73801c-7.39469,-4.61011 -19.47646,-8.99263 -40.39421,-8.99263c0,0 -2.46844,-0.00001 -4.09556,-0.49749c-0.54263,-0.09267 -0.96451,-0.20163 -1.24741,-0.32943c-0.07269,0.31493 -0.14875,0.63551 -0.14875,0.82694zM96.70974,285.55786c0.37481,0.33801 0.26423,-0.22303 0.13969,-0.80993c-0.02608,0.25472 -0.3959,0.57897 -0.13969,0.80993zM105.74032,280.69242c6.82853,4.10551 -8.67627,10.10399 -22.75971,7.34176c-13.28785,-2.60617 -17.78746,-7.84404 -29.91415,-9.66675c-4.09681,-0.61579 -9.00587,-0.95195 -12.06631,-1.97643c-4.8499,-1.62354 -2.69998,-7.16751 6.5746,-7.16751c6.67832,0 9.96769,0.65113 16.18509,0.65113h2.7458c0,0 3.152,0 4.68014,0.71787c16.26725,1.59629 26.70579,5.65194 34.5545,10.09991z" data-paper-data="{&quot;index&quot;:null}" fill="#000000" stroke="none" stroke-linecap="butt"/><path d="M49.97563,272.29409c0.28269,0.12779 0.70489,0.23673 1.24752,0.32943c1.62707,0.49749 4.10674,0.49397 4.10674,0.49397c20.91769,0 33.43559,4.47947 40.83024,9.08959c0.86998,0.52303 0.76912,1.16473 0.76912,1.74948c0,0.16637 0.04276,0.43458 0.10062,0.7081c-0.05521,-0.08808 -0.19198,-0.16085 -0.47315,-0.20735c-1.24214,-0.20522 -12.13389,1.07239 -13.45891,0.34974c-0.39823,-0.21721 1.69236,-0.40309 1.56253,-0.64802c-1.59491,-3.01096 -18.59211,-7.54221 -26.9075,-8.79209c-2.15672,-0.32418 -4.59845,-0.48056 -7.01199,-0.55525c0.9436,-0.44181 -0.92708,-1.12818 -0.92708,-1.68608c0,-0.19142 0.08876,-0.5166 0.16163,-0.83152z" data-paper-data="{&quot;noHover&quot;:false,&quot;origItem&quot;:[&quot;Path&quot;,{&quot;applyMatrix&quot;:true,&quot;segments&quot;:[[[607.563,601.99816],[0.02649,0.38155],[-0.10299,0.15484]],[[607.10872,602.39727],[0.1976,-0.11227],[-0.59254,0.60273]],[[605.61718,603],[0,0],[-7.618,0]],[[590.90604,613.89443],[2.69308,-5.58508],[-0.31682,0.63364]],[[590.61718,616],[0,-0.70843],[0,0.20156]],[[590.57685,616.85325],[0.02106,-0.33136],[0.02013,-0.10671]],[[590.74964,616.60263],[-0.10238,0.05628],[0.45234,-0.24865]],[[595.61718,617],[-0.48256,0.87548],[0.14503,-0.26312]],[[594.95308,616.3906],[-0.04725,0.29671],[0.58086,-3.64773]],[[604.72276,605.71115],[-3.02833,1.51416],[0.78545,-0.39273]],[[607.27135,605.03032],[-0.87898,0.0905],[-0.34365,-0.53523]],[[607.61718,603],[0,0.6759],[0,-0.23192]]],&quot;closed&quot;:true}],&quot;index&quot;:null}" fill="#ffffff" stroke="none" stroke-linecap="butt"/></g><g fill-rule="nonzero" stroke-width="1"><path d="M399.8703,203.02328l-20.98225,-39.72762l99.66579,0.35157l35.66983,39.37604z" data-paper-data="{&quot;index&quot;:null}" fill="#cedce9" stroke="#000000" stroke-linecap="round"/><path d="M523.70378,200.95873c-2.69741,0.43549 -5.34924,0.68463 -7.97455,0.8643c0.01777,0.06688 0.02698,0.13668 0.02698,0.20947c0,1.77311 -5.49164,1.77311 -5.49164,1.77311c-24.25481,0 -48.50953,0 -72.76436,0c-6.24146,0 -21.77182,-0.80442 -26.37522,0.25609c-2.65163,0.61087 -4.54992,0.55042 -7.94761,0.63045c-0.38354,0.00904 -1.08106,0.02837 -1.69736,0.04026c3.28547,0.7573 1.69736,7.75575 1.69736,9.71193c0,8.27459 0,16.5492 0,24.82379c0,1.47758 0,2.95524 0,4.43281c0,0.59103 -0.96586,2.2752 0,1.77311c3.67473,-1.91013 10.84624,-0.88314 19.22078,-0.88656c16.50808,-0.00674 34.18173,-0.57674 50.3952,0.38214c29.60695,1.91186 61.43911,-1.14272 90.80975,0.98739c24.73678,1.99673 54.34799,2.17667 79.83381,2.17667c6.40698,0 12.81387,0 19.22084,0c0.96399,0 2.47756,-0.04191 4.04463,-0.08787c-1.57638,-0.90959 0.07413,-3.10924 0.07413,-4.34496c0,-4.61642 4.79266,-12.5797 -1.09108,-16.72726c-5.19947,-5.03638 -8.48857,-9.88543 -16.9701,-14.90822c-6.25792,-3.70602 -15.99964,-6.99106 -21.17741,-10.6724c-2.51018,-2.19405 -4.75737,-0.62598 -12.93198,-1.13375c-18.08832,-1.12358 -36.23002,-0.88656 -54.91651,-0.88656c-6.81136,0 -15.36584,0.44653 -21.96665,0c-1.39337,-0.09424 -4.01201,-0.44463 -5.97482,-0.73161c3.59011,0.89553 -4.60192,1.76183 -8.04421,2.31756zM437.49997,200.25934c18.33103,0 36.66208,0 54.99304,0c0.52883,-0.08536 1.05749,-0.17073 1.58628,-0.25609c6.96521,-1.12445 13.25358,-0.82647 19.22084,-1.32985c8.13216,-0.686 12.99638,-2.99631 21.38687,-3.54625c4.81997,-0.31589 18.16978,0.69937 25.00227,0.69937c18.52655,0 37.0328,-0.34204 54.91647,0.88657c10.04632,0.69018 18.53667,-0.65535 23.23487,3.45118c0.69258,1.55993 6.23599,2.53491 9.13534,3.7349c4.43093,1.83387 8.13438,4.54988 11.56304,6.58033c8.49967,5.03357 12.23695,10.21078 17.5661,15.37273c4.76241,5.4411 1.65472,12.1883 1.65472,17.84872c0,3.12939 1.52753,5.33502 -5.49164,7.97909c-2.44773,0.92202 -25.0605,0 -28.83113,0c-26.28744,0 -57.0024,-0.22463 -82.49768,-2.2826c-28.00882,-2.64335 -61.34918,0.91915 -90.29995,-0.95036c-23.32968,-1.69667 -59.33996,2.82313 -78.44523,-2.973c-1.89151,-0.57387 0,-5.26108 0,-6.20595c0,-8.27459 0,-16.54916 0,-24.82377c0,-2.76649 -3.777,-9.37168 1.95275,-11.43177c9.99888,-3.59507 28.71181,-2.75327 43.35325,-2.75327z" data-paper-data="{&quot;index&quot;:null}" fill="#000000" stroke="none" stroke-linecap="butt"/><path d="M515.65265,201.73784c2.62521,-0.17965 5.30906,-0.43117 8.00658,-0.86665c3.44231,-0.55572 11.66686,-1.42307 8.07669,-2.3186c1.96281,0.28696 4.60327,0.6373 5.9965,0.73159c6.60085,0.44653 15.23189,0.00445 22.04313,0.00445c18.68636,0 36.94585,-0.21216 55.03414,0.91142c8.17462,0.50777 10.43883,-1.05356 12.949,1.14049c5.17785,3.68132 14.96067,6.99277 21.21866,10.69881c8.48149,5.02279 11.78187,9.90549 16.98136,14.94188c5.88388,4.14759 1.06533,12.14155 1.06533,16.75796c0,1.23574 -1.66078,3.44164 -0.08436,4.35124c-1.56702,0.04596 -3.08267,0.08899 -4.04671,0.08899c-6.40695,0 -12.82505,0.00556 -19.23203,0.00556c-25.48599,0 -55.2174,-0.14906 -79.95419,-2.14581c-29.37069,-2.13008 -61.4938,0.90731 -91.10078,-1.00459c-16.21345,-0.95891 -33.93708,-0.40914 -50.44518,-0.40241c-8.37449,0.00343 -15.55249,-1.02738 -19.22725,0.88276c-0.96586,0.50205 -0.00414,-1.18475 -0.00414,-1.77579c0,-1.47758 -0.00938,-2.9624 -0.00938,-4.43999c0,-8.27459 -0.01144,-16.5984 -0.01144,-24.87301c0,-1.95616 1.60481,-8.97159 -1.6807,-9.72893c0.6164,-0.01189 1.31449,-0.03167 1.69798,-0.04071c3.39759,-0.08001 5.30021,-0.02252 7.95178,-0.63342c4.60336,-1.06051 20.14788,-0.26433 26.38929,-0.26433c24.25492,0 48.63895,-0.03525 72.89366,-0.03525c0,0 5.51859,-0.00304 5.51859,-1.77615c0,-0.07278 -0.00855,-0.1426 -0.02634,-0.20951z" data-paper-data="{&quot;noHover&quot;:false,&quot;origItem&quot;:[&quot;Path&quot;,{&quot;applyMatrix&quot;:true,&quot;segments&quot;:[[[579.60736,595.76373],[0.95609,-0.20262],[0.00646,0.07548]],[[579.61718,596],[0,-0.08208],[0,2]],[[577.61718,598],[0,0],[-8.83333,0]],[[551.11718,598],[8.83333,0],[-2.27308,0]],[[541.51161,598.28885],[1.67648,-1.19621],[-0.96568,0.68904]],[[538.61718,599],[1.23739,-0.09027],[-0.13966,0.01019]],[[537.99901,599.04541],[0.22447,-0.0134],[1.19653,0.85421]],[[538.61718,610],[0,-2.20646],[0,9.33333]],[[538.61718,638],[0,-9.33333],[0,1.66667]],[[538.61718,643],[0,-1.66667],[0,0.66667]],[[538.61718,645],[-0.35177,0.56631],[1.33831,-2.15456]],[[545.61718,644],[-3.04994,0.00386],[6.01206,-0.00761]],[[563.97058,644.43107],[-5.90478,-1.08158],[10.78253,2.15651]],[[597.04254,645.54479],[-10.6965,-2.40266],[9.00888,2.25222]],[[626.11718,648],[-9.28168,0],[2.33333,0]],[[633.11718,648],[-2.33333,0],[0.35109,0]],[[634.59021,647.90091],[-0.5707,0.05184],[-0.57412,-1.02596]],[[634.61718,643],[0,1.39387],[0,-5.20707]],[[634.21982,624.13246],[2.14282,4.67827],[-1.8936,-5.6808]],[[628.03948,607.31672],[3.08887,5.66543],[-2.2791,-4.1802]],[[620.32688,595.27881],[1.8857,4.15235],[-0.91417,-2.47477]],[[615.61718,594],[2.9771,0.57275],[-6.58756,-1.26734]],[[595.61718,593],[6.8054,0],[-2.48058,0]],[[587.61718,593],[2.40395,0.50364],[-0.50743,-0.10631]],[[585.44122,592.1748],[0.71481,0.32365],[1.30749,1.01011]],[[582.51161,594.78885],[1.25365,-0.62682],[-0.98239,0.4912]]],&quot;closed&quot;:true}],&quot;index&quot;:null}" fill="#484848" stroke="none" stroke-linecap="butt"/><path d="M592.63922,208.23838c0,-0.2056 -0.07607,-0.54993 -0.14877,-0.88818c-0.28285,0.13725 -0.70483,0.25432 -1.24741,0.35384c-1.62707,0.53434 -4.09555,0.53436 -4.09555,0.53436c-20.91774,0 -32.99946,4.70707 -40.39418,9.6586c-0.86994,0.56177 -0.7931,1.23864 -0.7931,1.86671c0,0.17869 -0.05291,0.4627 -0.11074,0.75646c0.0553,-0.09458 0.19337,-0.17228 0.47445,-0.22217c1.24212,-0.22042 12.04031,1.12849 13.36534,0.3523c0.39822,-0.23329 -1.95316,-0.27721 -1.82349,-0.54026c1.59501,-3.23395 18.51057,-8.1256 26.82582,-9.46803c2.15663,-0.34819 4.58443,-0.52337 6.99795,-0.60358c-0.94361,-0.4745 0.94957,-1.20076 0.94957,-1.8zM545.82048,220.66692c-0.12453,0.63037 -0.23506,1.23295 0.13971,0.86991c0.25619,-0.24807 -0.11368,-0.59634 -0.13971,-0.86991zM536.92971,216.31108c7.84871,-4.77737 18.28731,-9.13337 34.5545,-10.84788c1.52806,-0.77104 4.68014,-0.77104 4.68014,-0.77104h2.7458c6.21741,0 9.50675,-0.69936 16.18509,-0.69936c9.27454,0 11.42446,5.95449 6.57459,7.6983c-3.06045,1.10036 -7.96947,1.46142 -12.06632,2.1228c-12.12676,1.95774 -16.62633,7.58347 -29.91414,10.38267c-14.08345,2.96675 -29.58821,-3.47595 -22.75967,-7.88547z" data-paper-data="{&quot;index&quot;:null}" fill="#000000" stroke="none" stroke-linecap="butt"/><path d="M592.69444,207.29079c0.07289,0.33825 0.16163,0.68751 0.16163,0.89311c0,0.59922 -1.87068,1.33643 -0.92707,1.81095c-2.41355,0.08023 -4.85526,0.2482 -7.01199,0.59638c-8.31538,1.34241 -25.31252,6.20923 -26.9075,9.44317c-0.12983,0.26308 1.96077,0.46273 1.56255,0.69602c-1.32504,0.77619 -12.2168,-0.59604 -13.45892,-0.37564c-0.28121,0.04991 -0.41797,0.12807 -0.47316,0.22271c0.05784,-0.29378 0.10062,-0.58187 0.10062,-0.76056c0,-0.62806 -0.10078,-1.31724 0.76913,-1.87901c7.39464,-4.95155 19.91251,-9.76276 40.83023,-9.76276c0,0 2.47967,0.00381 4.10674,-0.53055c0.54263,-0.09954 0.96478,-0.21653 1.24752,-0.35381z" data-paper-data="{&quot;noHover&quot;:false,&quot;origItem&quot;:[&quot;Path&quot;,{&quot;applyMatrix&quot;:true,&quot;segments&quot;:[[[607.563,601.99816],[0.02649,0.38155],[-0.10299,0.15484]],[[607.10872,602.39727],[0.1976,-0.11227],[-0.59254,0.60273]],[[605.61718,603],[0,0],[-7.618,0]],[[590.90604,613.89443],[2.69308,-5.58508],[-0.31682,0.63364]],[[590.61718,616],[0,-0.70843],[0,0.20156]],[[590.57685,616.85325],[0.02106,-0.33136],[0.02013,-0.10671]],[[590.74964,616.60263],[-0.10238,0.05628],[0.45234,-0.24865]],[[595.61718,617],[-0.48256,0.87548],[0.14503,-0.26312]],[[594.95308,616.3906],[-0.04725,0.29671],[0.58086,-3.64773]],[[604.72276,605.71115],[-3.02833,1.51416],[0.78545,-0.39273]],[[607.27135,605.03032],[-0.87898,0.0905],[-0.34365,-0.53523]],[[607.61718,603],[0,0.6759],[0,-0.23192]]],&quot;closed&quot;:true}],&quot;index&quot;:null}" fill="#ffffff" stroke="none" stroke-linecap="butt"/></g><g><path d="M18.28224,295.28048l-19.24619,-103.21874l115.93445,-23.96245l-17.97321,-93.55616l268.99201,-56.46207l6.30019,-13.9722l146.33088,-32.29728l7.29177,-2.24181l46.7243,223.7077l-248.1921,49.85644l0.28089,-7.80808z" fill="#67708d" fill-rule="nonzero" stroke="#000000" stroke-width="1" stroke-linecap="round"/><path d="M15.16589,258.36346l303.86219,-60.21107l7.58224,37.85284l-304.35865,58.9937z" fill="#374c6f" fill-rule="nonzero" stroke="#000000" stroke-width="1" stroke-linecap="round"/><path d="M274.78851,170.28087l1.51879,-0.31085l0.25313,-0.05182l2.18049,0.34495z" fill="#9e8142" fill-rule="evenodd" stroke="none" stroke-width="1" stroke-linecap="butt"/><path d="M364.07195,178.55409c0.41362,0.25619 0.48756,0.61748 0.2217,1.08329c-0.37853,-0.2916 -0.45247,-0.65291 -0.2217,-1.08329z" fill="#fefffe" fill-rule="evenodd" stroke="none" stroke-width="1" stroke-linecap="butt"/><path d="M324.03962,243.45162l-29.9318,-143.95358l52.24108,-63.77162l72.04397,35.28172l4.61783,26.00579l124.17759,-27.29356l26.16645,124.40829z" fill="#727681" fill-rule="nonzero" stroke="#000000" stroke-width="1" stroke-linecap="round"/><path d="M346.99824,238.57668l-23.7024,-115.81152l2.9346,-9.76038l5.47091,-7.69596l7.77128,-7.93188l6.65469,-5.3547l11.22506,-2.53224l11.63503,-1.67667l13.51083,4.04595l11.0931,8.29864l5.85695,7.96107l5.80672,16.89628l21.58322,98.57155z" fill="#56505e" fill-rule="nonzero" stroke="#000000" stroke-width="1" stroke-linecap="round"/><path d="M389.90847,102.38268l23.18073,105.20675l-70.4836,14.0957l-19.82817,-98.49289l2.97713,-7.20422z" fill="#8c908f" fill-rule="nonzero" stroke="#000000" stroke-width="1" stroke-linecap="round"/><path d="M388.91422,121.69214l-60.41334,13.35366l-3.04438,-14.87499l60.35594,-12.02292z" fill="#45a3ac" fill-rule="nonzero" stroke="#000000" stroke-width="1" stroke-linecap="round"/><path d="M405.03327,194.81179l-8.89409,1.65541l-14.53947,-67.01288l9.96942,-2.04037z" fill="#45a3ac" fill-rule="nonzero" stroke="#000000" stroke-width="1" stroke-linecap="round"/><path d="M351.89618,204.24439l-8.60997,1.43241l-12.85618,-66.03842l8.57391,-2.41425z" fill="#45a3ac" fill-rule="nonzero" stroke="#000000" stroke-width="1" stroke-linecap="round"/><path d="M342.50521,137.41434l34.34277,-6.20434l15.40439,74.46124l-32.65946,7.17883l-15.70028,-75.10141z" fill="#ffb600" fill-rule="nonzero" stroke="#000000" stroke-width="1" stroke-linecap="round"/><path d="M300.57953,129.96109l-0.56451,1.26965l-320.23312,65.21035l-5.60047,-5.61357l325.3209,-67.5706z" fill="#d0ced0" fill-rule="nonzero" stroke="#000000" stroke-width="1" stroke-linecap="round"/><path d="M346.73334,36.05891l-60.96391,74.30447l-6.25926,-11.2493l66.16465,-73.06065l89.45617,40.13905l-6.19203,10.82993z" fill="#d0ced0" fill-rule="nonzero" stroke="#000000" stroke-width="1" stroke-linecap="round"/><path d="M405.09649,52.96685l-9.81323,-47.94811l109.04015,-22.6463l11.09108,57.41408l-94.11575,21.07567z" fill="#393b64" fill-rule="nonzero" stroke="#000000" stroke-width="1" stroke-linecap="round"/><path d="M426.67905,59.76105l-12.17748,-59.49996l73.45788,-14.86929l12.04423,58.04337l-74.28219,16.48064" fill="#0024ff" fill-rule="nonzero" stroke="#000000" stroke-width="1" stroke-linecap="round"/><path d="M365.87734,18.25026l-284.23944,59.82222l-11.12141,-7.61623l238.57134,-51.95946l-0.29067,5.83005l49.07735,-10.53896l5.31757,-15.10252l182.53841,-40.16181l-3.88683,9.20402l-169.85384,36.08189z" fill="#d0ced0" fill-rule="nonzero" stroke="#000000" stroke-width="1" stroke-linecap="round"/><path d="M438.16082,105.38921l69.90802,-15.29686l15.45881,70.69925l-72.00127,14.73604z" fill="#00ff06" fill-rule="nonzero" stroke="#000000" stroke-width="1" stroke-linecap="round"/><path d="M108.33399,177.6741l-0.03156,7.09599l17.19091,89.6349l-88.55589,17.62954l-17.51263,-96.04031z" fill="#838a99" fill-rule="nonzero" stroke="#000000" stroke-width="1" stroke-linecap="round"/><path d="M24.54474,205.70431l81.02123,-16.5821l16.84785,85.54206l-82.22241,17.15767z" fill="#555e7f" fill-rule="nonzero" stroke="#000000" stroke-width="1" stroke-linecap="round"/><path d="M31.01883,208.33625l72.60188,-15.02385l1.30655,8.80061l-71.87542,14.54542z" fill="#ffb600" fill-rule="nonzero" stroke="#000000" stroke-width="1" stroke-linecap="round"/><path d="M299.44026,137.28381l20.44424,99.89189l-176.51485,34.1477l-18.01165,-96.06184z" fill="#838a99" fill-rule="nonzero" stroke="#000000" stroke-width="1" stroke-linecap="round"/><path d="M147.98836,269.92472l-16.95311,-86.05635l167.18171,-35.04039l17.66193,88.71413z" fill="#555e7f" fill-rule="nonzero" stroke="#000000" stroke-width="1" stroke-linecap="round"/><path d="M138.37969,186.32216l155.74136,-32.53409l0.77074,9.4049l-155.13359,32.07995z" fill="#ffb600" fill-rule="nonzero" stroke="#000000" stroke-width="1" stroke-linecap="round"/><path d="M271.71709,97.2879l-125.05982,26.96915l-10.3837,-51.541l123.89094,-26.83983z" fill="#393b64" fill-rule="nonzero" stroke="#000000" stroke-width="1" stroke-linecap="round"/><path d="M165.35978,119.97591l-10.59052,-51.74598l86.96974,-18.12929l8.97568,51.91159z" fill="#ba00ff" fill-rule="nonzero" stroke="#000000" stroke-width="1" stroke-linecap="round"/><path d="M333.01052,31.78652c0.90665,0.59522 1.50336,-0.31499 1.50336,-0.31499c4.12932,-6.30354 12.33007,-10.24588 19.80613,-8.09475c3.30334,0.95049 5.89116,3.44307 8.84229,4.98003c6.41595,3.09919 8.5164,15.64639 4.67024,21.26189c-1.4788,2.15908 -3.94988,3.43828 -6.34152,4.54628c-1.59923,0.15512 -3.22816,0.79154 -4.87028,0.76824c-2.16238,0.54107 -4.42883,0.95577 -6.62996,1.46931c-7.25691,-1.70132 -13.06713,-9.44792 -15.65274,-16.35343c-1.08846,-2.96702 -2.97597,-6.15688 -1.76835,-8.77453c0.06899,0.177 0.20297,0.35582 0.44083,0.51198z" data-paper-data="{&quot;noHover&quot;:false,&quot;origItem&quot;:[&quot;Path&quot;,{&quot;applyMatrix&quot;:true,&quot;segments&quot;:[[[521.95838,341.96483],[-0.01667,0.21389],[-2.51251,2.06985]],[[519.4768,351.72196],[0.34861,-3.5517],[-0.75818,8.29192]],[[527.33632,375.91087],[-6.54613,-5.29068],[2.49065,0.55761]],[[534.76312,377.65449],[-2.46476,-0.51055],[1.65872,0.82936]],[[540.0653,379.26158],[-1.70264,-0.62682],[2.97607,0.04647]],[[548.70522,377.76236],[-2.56331,1.47041],[6.66685,-3.82437]],[[554.34307,353.96499],[5.00498,6.29984],[-2.24748,-3.01103]],[[547.83272,344.6127],[2.89338,2.58736],[-6.5483,-5.85572]],[[523.83701,343.12089],[7.2924,-4.38522],[0,0]],[[522.15667,342.70081],[0.63012,1.05021],[-0.1653,-0.2755]]],&quot;closed&quot;:true}]}" fill="#ffffff" fill-rule="nonzero" stroke="#000000" stroke-width="2" stroke-linecap="butt"/><path d="M304.06896,49.14736c0,0 -0.46645,0.97233 0.51177,1.44078c0.9782,0.46844 1.27865,-0.56561 1.27865,-0.56561c1.45405,-3.03707 2.99873,-7.13315 5.51905,-9.42773c1.17165,-1.06673 2.37978,-0.6188 3.83166,-1.01629c4.49782,-1.23147 9.18859,-0.12692 12.92598,2.74238c1.14829,1.01207 2.67158,1.66307 3.60509,2.88107c6.3899,8.33751 3.05401,18.74028 -3.11748,25.60283c-10.68333,5.01934 -23.46242,-9.2192 -25.71087,-18.76285c0.01326,-1.15609 -0.31985,-3.12586 0.27312,-4.19448c0.70464,-1.26986 1.85236,-2.16774 2.91926,-3.08245c-0.74995,1.52327 -1.39792,3.04977 -2.03623,4.3824z" data-paper-data="{&quot;noHover&quot;:false,&quot;origItem&quot;:[&quot;Path&quot;,{&quot;applyMatrix&quot;:true,&quot;segments&quot;:[[[488.3096,342.53923],[-1.51011,1.18134],[-1.53391,0.40687]],[[483.9403,344.40615],[1.33969,-0.94584],[-1.12739,0.79595]],[[481.61976,348.52197],[0.58067,-1.16933],[-2.39539,10.80972]],[[498.48043,380.05978],[-13.32827,-0.13636],[9.64373,-3.9519]],[[514.1197,355.67768],[2.40851,11.61483],[-0.35185,-1.69676]],[[511.87957,351.00633],[0.67137,1.5927],[-2.39344,-4.75186]],[[500.14885,341.91879],[5.17877,0.9542],[-1.67168,-0.30801]],[[495.77608,341.07281],[1.715,-0.51012],[-3.68906,1.09729]],[[485.59672,347.92601],[2.96891,-2.37555],[0,0]],[[483.87527,347.73474],[0.76509,0.95636],[-0.76509,-0.95636]],[[484.06654,346.01329],[0,0],[1.30299,-1.04221]]],&quot;closed&quot;:true}]}" fill="#ffffff" fill-rule="nonzero" stroke="#000000" stroke-width="2" stroke-linecap="butt"/><path d="M308.31377,53.35815c-0.63748,-1.32155 -0.08293,-2.90963 1.23859,-3.54712c1.32155,-0.63748 2.90963,-0.08292 3.54712,1.23859c0.63748,1.32155 0.08295,2.90964 -1.23859,3.54714c-1.32155,0.63748 -2.90963,0.08293 -3.54713,-1.23861z" fill="#000000" fill-rule="nonzero" stroke="none" stroke-width="0.5" stroke-linecap="butt"/><path d="M362.31714,37.7526c-0.63748,-1.32155 -0.08293,-2.90963 1.23859,-3.54712c1.32155,-0.63748 2.90963,-0.08292 3.54712,1.23859c0.63748,1.32155 0.08295,2.90964 -1.23859,3.54714c-1.32155,0.63748 -2.90963,0.08293 -3.54713,-1.23861z" fill="#000000" fill-rule="nonzero" stroke="none" stroke-width="0.5" stroke-linecap="butt"/><path d="M230.8646,6.1294c0.51835,-0.25003 0.89263,-0.08746 1.12809,0.11671c2.89611,-0.39142 5.96103,0.24208 8.85878,0.49965c3.50948,0.31194 7.36429,0.22773 10.80549,0.96867c10.98319,2.36491 21.80121,7.80387 32.50192,11.27531c7.04924,2.28707 14.11995,5.98072 21.26228,7.76327c4.43234,1.1062 9.68625,1.1463 14.25235,1.78231c0,0 1.06142,0.14801 0.9134,1.20942c-0.14803,1.06142 -1.20943,0.9134 -1.20943,0.9134c-4.63777,-0.64743 -9.94803,-0.70217 -14.45578,-1.82077c-7.20139,-1.78701 -14.32193,-5.50459 -21.42429,-7.80887c-10.62755,-3.44838 -21.38554,-8.87041 -32.2916,-11.21871c-3.35196,-0.72173 -7.12438,-0.62509 -10.54409,-0.92907c-2.88544,-0.25649 -6.11336,-1.03093 -8.95863,-0.41497l-1.33807,-0.90549c0,0 -0.46562,-0.96526 0.49963,-1.43085z" fill="#000000" fill-rule="nonzero" stroke="none" stroke-width="0.5" stroke-linecap="butt"/><path d="M376.24185,-72.8883c0.86626,0.63097 0.23528,1.49722 0.23528,1.49722l-0.48457,0.61659c-3.32141,7.90399 -6.64285,15.80799 -9.96426,23.71198c-5.68688,13.52935 -12.40511,26.70147 -18.6281,39.99366c-3.9376,8.41064 -7.52984,17.11125 -12.19253,25.1439c-1.52416,2.62577 -3.0182,6.88367 -5.73058,8.3077c0,0 -0.96526,0.46561 -1.43086,-0.49964c-0.46561,-0.96526 0.49964,-1.43086 0.49964,-1.43086c2.02771,-0.82707 3.70029,-5.54473 4.8081,-7.45321c4.63074,-7.9776 8.19443,-16.6236 12.10509,-24.97667c6.21067,-13.26586 12.92041,-26.41157 18.59326,-39.91522c3.32141,-7.90399 6.64283,-15.80799 9.96425,-23.71198l0.72807,-1.0482c0,0 0.63096,-0.86627 1.49721,-0.23528z" fill="#000000" fill-rule="nonzero" stroke="none" stroke-width="0.5" stroke-linecap="butt"/><path d="M379.53814,44.77074c0.33469,0.07708 0.50337,0.41068 0.50337,0.41068c3.98932,7.89006 3.66265,17.14528 3.21512,25.77214c-0.18507,5.80972 0.29892,13.44356 -4.20818,17.91522c-2.2506,2.2329 -5.27789,3.83005 -7.91713,5.54265c-8.21173,5.31704 -18.95155,7.56137 -28.41563,9.49862c-10.23879,2.09551 -19.89659,3.93693 -30.40152,2.99802c-3.50491,-0.31481 -7.27861,0.01673 -10.70608,-0.84969c-6.73235,-1.70187 -11.04792,-5.72106 -16.15304,-9.96207c-2.11549,-1.61202 -2.68339,-4.40816 -2.58144,-7.02265c0.12764,-3.27362 1.91982,-6.01044 2.84648,-9.03495c1.33527,-4.35814 2.27055,-8.67074 3.91832,-12.93978c1.55714,-3.98852 1.51336,-8.46212 2.88484,-12.44879c0.17109,-0.49737 1.08445,-3.42678 1.73667,-3.48348c1.12848,-0.09811 1.46778,1.5996 1.83617,2.19425c1.52427,2.46042 2.9739,4.95095 4.54201,7.4111c5.70397,6.81688 15.93551,13.53794 25.12304,13.5599c9.8882,-0.84715 18.75514,-1.87091 27.85346,-6.08676c4.91273,-3.34902 8.05023,-7.49627 12.26824,-11.54427c2.61581,-2.51038 5.88522,-3.94917 8.11855,-6.9022c0.88844,-2.09939 0.97571,-4.99286 2.38725,-6.80183c0.36117,-0.46285 1.45726,-1.83447 2.30903,-1.26535c0.51582,0.34466 0.38151,1.18141 0.53744,1.78189c0.10794,0.41565 0.20574,0.8362 0.30301,1.25735zM380.74327,51.3109c-0.25434,-0.10407 -0.39281,-0.34385 -0.39281,-0.34385l-0.44805,-0.77638c-0.72591,-1.1506 -2.47387,-4.75263 -2.16463,-6.53536c-0.05742,0.10367 -0.11382,0.19594 -0.15904,0.25463c-0.32431,0.42068 -0.45748,0.96408 -0.60366,1.47473c-0.5035,1.75891 -0.95343,3.48276 -1.67576,5.16597c-2.34133,3.09998 -5.64765,4.61234 -8.37781,7.23246c-4.30655,4.13299 -7.53435,8.35986 -12.56616,11.76639c-9.296,4.35781 -18.41598,5.42478 -28.53471,6.28125c-9.72745,-0.08137 -20.34544,-6.91556 -26.39268,-14.17246c-1.10665,-1.72845 -1.85261,-3.57562 -2.88561,-5.317c-0.11952,-0.20149 -1.49591,-1.81722 -2.02577,-2.84591c-0.36788,1.23627 -1.3858,3.41517 -1.49075,3.73668c-1.06932,3.27603 -0.71413,7.07498 -1.98802,10.40708c-1.63692,4.24008 -2.5582,8.52447 -3.88782,12.85289c-0.76747,2.49842 -1.99555,4.68973 -2.55066,7.27835c-0.49913,2.3276 -0.26466,5.69468 1.78152,7.14573c4.93968,4.11904 9.06339,8.0088 15.58278,9.68506c3.33902,0.85852 7.06567,0.50586 10.48474,0.81295c10.35713,0.93509 19.87224,-0.90763 29.96656,-2.97358c9.2629,-1.89548 19.86996,-4.06437 27.89987,-9.28737c2.54025,-1.64837 5.47477,-3.18176 7.65005,-5.32157c4.20656,-4.13796 3.62173,-11.56982 3.79308,-16.94075c0.33372,-6.4408 0.63484,-13.28114 -1.01466,-19.57991z" fill="#000000" fill-rule="nonzero" stroke="none" stroke-width="0.5" stroke-linecap="butt"/><path d="M381.80776,70.88668c-0.17136,5.37093 0.41168,12.82084 -3.79488,16.95878c-2.17527,2.1398 -5.11298,3.68141 -7.65324,5.32979c-8.02993,5.223 -18.66619,7.41728 -27.9291,9.31276c-10.09431,2.06594 -19.65331,3.9024 -30.01046,2.96731c-3.41907,-0.30711 -7.15378,0.03868 -10.49281,-0.81985c-6.51941,-1.67627 -10.65278,-5.58077 -15.59247,-9.69982c-2.04617,-1.45105 -2.28299,-4.82496 -1.78385,-7.15256c0.5551,-2.58863 1.78191,-4.78669 2.54937,-7.28509c1.32962,-4.32841 2.25126,-8.62727 3.88817,-12.86734c1.27388,-3.33211 0.92221,-7.14265 1.99152,-10.41867c0.10495,-0.32153 1.12487,-2.50448 1.49276,-3.74076c0.52986,1.0287 1.99468,2.6911 2.1142,2.89258c1.033,1.74138 1.7809,3.58423 2.88755,5.31268c6.04723,7.25691 16.66831,14.06689 26.39575,14.14826c10.11872,-0.85645 19.14061,-1.90504 28.43662,-6.26285c5.03179,-3.40651 8.26352,-7.62306 12.57007,-11.75603c2.73016,-2.62012 6.03778,-4.13013 8.37912,-7.2301c0.72234,-1.68321 1.1741,-3.40414 1.67759,-5.16305c0.14617,-0.51065 0.27981,-1.05337 0.60411,-1.47406c0.04525,-0.05869 0.18345,-0.20847 0.24087,-0.31213c-0.30922,1.78271 1.44198,5.39008 2.16792,6.54069l0.44845,0.77714c0,0 0.13866,0.24019 0.39301,0.34427c1.6495,6.2988 1.35347,13.15729 1.01975,19.59809z" data-paper-data="{&quot;noHover&quot;:false,&quot;origItem&quot;:[&quot;Path&quot;,{&quot;applyMatrix&quot;:true,&quot;segments&quot;:[[[838.25604,245.98109],[0.70609,13.00322],[-0.45665,-0.30589]],[837.62427,245.14984],[[837.05771,243.44893],[0,0],[-0.96094,-2.54558]],[[835.43712,229.77562],[-1.32078,3.36901],[-0.15408,0.18011]],[[835.02336,230.21075],[0.11219,-0.09685],[-0.80412,0.69422]],[[833.24918,232.85825],[0.4912,-0.94195],[-1.69189,3.24446]],[[827.8941,242.30837],[2.09032,-3.00838],[-5.83071,5.13512]],[[808.5784,253.11993],[6.40015,-4.039],[-10.09557,6.3711]],[[779.23799,271.13558],[11.22527,-4.65685],[-19.96201,4.81079]],[[720.80866,272.0001],[20.16991,2.37964],[-19.02719,-4.06027]],[[674.7786,233.64696],[8.93873,16.64408],[-1.4752,-3.83047]],[[671.25678,222.07174],[1.32573,3.82629],[-0.1534,-0.44273]],[[668.42877,215.68312],[0.62568,2.2281],[-1.2166,2.27481]],[[664.00934,222.40691],[0.33458,-0.58792],[-3.40892,5.99021]],[[655.94063,242.00115],[3.83226,-6.01801],[-4.90769,7.6515]],[[643.16871,265.62581],[4.34099,-7.94783],[-2.50569,4.58761]],[[635.25225,278.86404],[2.12573,-4.8495],[-1.91139,4.36051]],[[635.8774,293.57967],[-3.42733,-3.6637],[8.02694,10.05167]],[[662.52622,318.80534],[-12.1018,-5.89881],[6.19815,3.02118]],[[682.74387,324.60278],[-6.57613,-1.97284],[19.91863,5.98557]],[[742.65234,330.79344],[-20.60711,0],[18.90969,0.0006]],[[801.0433,323.78416],[-17.82821,7.01376],[5.63835,-2.21112]],[[818.16671,316.42494],[-5.12029,3.32038],[9.90165,-6.42096]],[[832.39231,284.75259],[-2.48956,10.45502],[3.23675,-12.48619]]],&quot;closed&quot;:true}]}" fill="#870000" fill-rule="nonzero" stroke="none" stroke-width="0.5" stroke-linecap="butt"/></g></g></g></svg>