<svg version="1.1" xmlns="http://www.w3.org/2000/svg" xmlns:xlink="http://www.w3.org/1999/xlink" width="1733.09309" height="836.33634" viewBox="0,0,1733.09309,836.33634"><g transform="translate(546.54655,238.16817)"><g data-paper-data="{&quot;isPaintingLayer&quot;:true}" stroke-linejoin="miter" stroke-miterlimit="10" stroke-dasharray="" stroke-dashoffset="0" style="mix-blend-mode: normal"><path d="M-546.54655,598.16817v-836.33634h1733.09309v836.33634z" fill="none" fill-rule="nonzero" stroke="#f00000" stroke-width="0" stroke-linecap="butt"/><path d="M295.79152,308.03598h2.06705l0.25839,4.03991h-0.25839v-3.87157z" fill="#eb4a83" fill-rule="evenodd" stroke="none" stroke-width="1" stroke-linecap="butt"/><path d="M296.30827,312.07588h1.55028h0.25839l2.06705,0.50498z" fill="#9e8142" fill-rule="evenodd" stroke="none" stroke-width="1" stroke-linecap="butt"/><g fill-rule="nonzero" stroke-width="1"><path d="M136.80749,326.84925l35.66987,-36.66103l99.66573,-0.32733l-20.98225,36.98836z" fill="#cedce9" stroke="#000000" stroke-linecap="round"/><path d="M127.3274,324.92703c-3.44227,-0.5174 -11.63426,-1.32394 -8.04421,-2.15777c-1.96281,0.2672 -4.58145,0.59338 -5.97483,0.68116c-6.60083,0.41574 -15.15527,0 -21.96664,0c-18.68641,0 -36.82815,-0.22067 -54.91651,0.82543c-8.17461,0.47276 -10.42181,-0.98718 -12.932,1.05558c-5.17777,3.42749 -14.91953,6.48604 -21.17742,9.93653c-8.48152,4.67647 -11.77057,9.19115 -16.97007,13.88029c-5.88377,3.86161 -1.09103,11.2758 -1.09103,15.57391c0,1.15054 1.65049,3.1985 0.07409,4.04537c1.56709,0.04279 3.08068,0.08181 4.04466,0.08181c6.40695,0 12.81384,0 19.22083,0c25.48583,0 55.09701,-0.16755 79.83381,-2.02659c29.37069,-1.98324 61.20282,0.86074 90.80975,-0.91932c16.21346,-0.89278 33.88709,-0.36208 50.39517,-0.3558c8.37456,0.00319 15.54604,-0.953 19.22075,0.82544c0.96586,0.46746 0,-1.10057 0,-1.65085c0,-1.3757 0,-2.75146 0,-4.12716c0,-7.70405 0,-15.40812 0,-23.11217c0,-1.82128 -1.58808,-8.33722 1.69736,-9.04229c-0.61635,-0.01107 -1.31388,-0.02906 -1.69736,-0.03749c-3.39773,-0.07451 -5.296,-0.01823 -7.94763,-0.58698c-4.60337,-0.9874 -20.1338,-0.23843 -26.37523,-0.23843c-24.25478,0 -48.50949,0 -72.76436,0c0,0 -5.49164,0 -5.49164,-1.65085c0,-0.06777 0.00921,-0.13274 0.02698,-0.19503c-2.62527,-0.16727 -5.27718,-0.39925 -7.97457,-0.80471zM213.53101,324.27588c14.64146,0 33.35444,-0.78376 43.35326,2.56343c5.72981,1.91807 1.95273,8.06779 1.95273,10.64354c0,7.70405 0,15.40813 0,23.11218c0,0.87972 1.89152,5.24375 0,5.77805c-19.10527,5.39647 -55.11552,1.18831 -78.44522,2.76801c-28.95077,1.74059 -62.29112,-1.57626 -90.29992,0.88484c-25.49523,1.91606 -56.21025,2.12522 -82.49769,2.12522c-3.77064,0 -26.38349,0.85845 -28.83114,0c-7.01917,-2.46176 -5.49163,-4.51527 -5.49163,-7.42893c0,-5.27013 -3.10772,-11.55207 1.65477,-16.61803c5.32915,-4.806 9.06643,-9.62627 17.5661,-14.31276c3.4287,-1.89047 7.13216,-4.41918 11.56304,-6.12662c2.89935,-1.11726 8.44273,-2.02501 9.13535,-3.4774c4.69818,-3.82337 13.18851,-2.57062 23.23489,-3.21322c17.88369,-1.14389 36.38998,-0.82544 54.91649,-0.82544c6.83247,0 20.18232,-0.94528 25.00226,-0.65114c8.39046,0.51201 13.25473,2.66302 21.38687,3.30173c5.96723,0.46868 12.25562,0.19124 19.22083,1.23816c0.52878,0.07947 1.05748,0.15896 1.58634,0.23843c18.33101,0 36.66198,0 54.993,0z" data-paper-data="{&quot;index&quot;:null}" fill="#000000" stroke="none" stroke-linecap="butt"/><path d="M135.37823,325.65245c-0.0178,0.06232 -0.02637,0.1273 -0.02637,0.19506c0,1.65085 5.51858,1.65368 5.51858,1.65368c24.25478,0 48.63878,0.03281 72.89365,0.03281c6.24143,0 21.78594,-0.74127 26.3893,0.24611c2.65155,0.56875 4.55419,0.51521 7.95178,0.58975c0.38352,0.00842 1.08159,0.02685 1.69799,0.03793c-3.28549,0.70509 -1.68071,7.2368 -1.68071,9.05811c0,7.70405 -0.01144,15.45393 -0.01144,23.158c0,1.3757 -0.00942,2.75815 -0.00942,4.13386c0,0.55028 0.96171,2.12078 -0.00414,1.65335c-3.67473,-1.77842 -10.85272,-0.8187 -19.22725,-0.82189c-16.50808,-0.00627 -34.23171,-0.51813 -50.44518,0.37464c-29.60696,1.78003 -61.73012,-1.04791 -91.10078,0.93532c-24.73678,1.85908 -54.46821,1.99787 -79.95419,1.99787c-6.40696,0 -12.82504,-0.00518 -19.23201,-0.00518c-0.96406,0 -2.47971,-0.04009 -4.0467,-0.08285c1.57642,-0.84687 -0.08433,-2.9007 -0.08433,-4.05122c0,-4.29812 -4.81856,-11.74088 1.06528,-15.6025c5.19947,-4.68911 8.49988,-9.23516 16.98136,-13.9116c6.258,-3.45049 16.04088,-6.53365 21.21867,-9.96112c2.51018,-2.04277 4.77445,-0.58908 12.94905,-1.06185c18.08828,-1.04611 36.34775,-0.84858 55.03414,-0.84858c6.81117,0 15.44228,0.4116 22.04313,-0.00412c1.39324,-0.08778 4.03375,-0.41396 5.99652,-0.68115c-3.59015,0.83378 4.63442,1.64133 8.07667,2.15873c2.69751,0.40546 5.38136,0.63963 8.00659,0.80689z" data-paper-data="{&quot;noHover&quot;:false,&quot;origItem&quot;:[&quot;Path&quot;,{&quot;applyMatrix&quot;:true,&quot;segments&quot;:[[[579.60736,595.76373],[0.95609,-0.20262],[0.00646,0.07548]],[[579.61718,596],[0,-0.08208],[0,2]],[[577.61718,598],[0,0],[-8.83333,0]],[[551.11718,598],[8.83333,0],[-2.27308,0]],[[541.51161,598.28885],[1.67648,-1.19621],[-0.96568,0.68904]],[[538.61718,599],[1.23739,-0.09027],[-0.13966,0.01019]],[[537.99901,599.04541],[0.22447,-0.0134],[1.19653,0.85421]],[[538.61718,610],[0,-2.20646],[0,9.33333]],[[538.61718,638],[0,-9.33333],[0,1.66667]],[[538.61718,643],[0,-1.66667],[0,0.66667]],[[538.61718,645],[-0.35177,0.56631],[1.33831,-2.15456]],[[545.61718,644],[-3.04994,0.00386],[6.01206,-0.00761]],[[563.97058,644.43107],[-5.90478,-1.08158],[10.78253,2.15651]],[[597.04254,645.54479],[-10.6965,-2.40266],[9.00888,2.25222]],[[626.11718,648],[-9.28168,0],[2.33333,0]],[[633.11718,648],[-2.33333,0],[0.35109,0]],[[634.59021,647.90091],[-0.5707,0.05184],[-0.57412,-1.02596]],[[634.61718,643],[0,1.39387],[0,-5.20707]],[[634.21982,624.13246],[2.14282,4.67827],[-1.8936,-5.6808]],[[628.03948,607.31672],[3.08887,5.66543],[-2.2791,-4.1802]],[[620.32688,595.27881],[1.8857,4.15235],[-0.91417,-2.47477]],[[615.61718,594],[2.9771,0.57275],[-6.58756,-1.26734]],[[595.61718,593],[6.8054,0],[-2.48058,0]],[[587.61718,593],[2.40395,0.50364],[-0.50743,-0.10631]],[[585.44122,592.1748],[0.71481,0.32365],[1.30749,1.01011]],[[582.51161,594.78885],[1.25365,-0.62682],[-0.98239,0.4912]]],&quot;closed&quot;:true}],&quot;index&quot;:null}" fill="#484848" stroke="none" stroke-linecap="butt"/><path d="M58.39194,331.7048c0,0.55791 1.8932,1.23412 0.94957,1.67589c2.41352,0.0747 4.84129,0.23779 6.99799,0.56196c8.3153,1.24986 25.23084,5.80423 26.82582,8.8152c0.12967,0.24492 -2.2217,0.28583 -1.82348,0.50302c1.32503,0.72267 12.1233,-0.53325 13.36536,-0.32801c0.2811,0.04646 0.4192,0.11882 0.47449,0.20685c-0.05784,-0.27352 -0.1108,-0.53794 -0.1108,-0.7043c0,-0.58476 0.07682,-1.21496 -0.79311,-1.73801c-7.39469,-4.61011 -19.47646,-8.99263 -40.39421,-8.99263c0,0 -2.46844,-0.00001 -4.09556,-0.49749c-0.54263,-0.09267 -0.96451,-0.20163 -1.24741,-0.32943c-0.07269,0.31493 -0.14875,0.63551 -0.14875,0.82694zM105.07096,344.08629c0.37481,0.33801 0.26423,-0.22303 0.13969,-0.80993c-0.02608,0.25472 -0.3959,0.57897 -0.13969,0.80993zM114.10154,339.22085c6.82853,4.10551 -8.67627,10.10399 -22.75971,7.34176c-13.28785,-2.60617 -17.78746,-7.84404 -29.91415,-9.66675c-4.09681,-0.61579 -9.00587,-0.95195 -12.06631,-1.97643c-4.8499,-1.62354 -2.69998,-7.16751 6.5746,-7.16751c6.67832,0 9.96769,0.65113 16.18509,0.65113h2.7458c0,0 3.152,0 4.68014,0.71787c16.26725,1.59629 26.70579,5.65194 34.5545,10.09991z" data-paper-data="{&quot;index&quot;:null}" fill="#000000" stroke="none" stroke-linecap="butt"/><path d="M58.33685,330.82252c0.28269,0.12779 0.70489,0.23673 1.24752,0.32943c1.62707,0.49749 4.10674,0.49397 4.10674,0.49397c20.91769,0 33.43559,4.47947 40.83024,9.08959c0.86998,0.52303 0.76912,1.16473 0.76912,1.74948c0,0.16637 0.04276,0.43458 0.10062,0.7081c-0.05521,-0.08808 -0.19198,-0.16085 -0.47315,-0.20735c-1.24214,-0.20522 -12.13389,1.07239 -13.45891,0.34974c-0.39823,-0.21721 1.69236,-0.40309 1.56253,-0.64802c-1.59491,-3.01096 -18.59211,-7.54221 -26.9075,-8.79209c-2.15672,-0.32418 -4.59845,-0.48056 -7.01199,-0.55525c0.9436,-0.44181 -0.92708,-1.12818 -0.92708,-1.68608c0,-0.19142 0.08876,-0.5166 0.16163,-0.83152z" data-paper-data="{&quot;noHover&quot;:false,&quot;origItem&quot;:[&quot;Path&quot;,{&quot;applyMatrix&quot;:true,&quot;segments&quot;:[[[607.563,601.99816],[0.02649,0.38155],[-0.10299,0.15484]],[[607.10872,602.39727],[0.1976,-0.11227],[-0.59254,0.60273]],[[605.61718,603],[0,0],[-7.618,0]],[[590.90604,613.89443],[2.69308,-5.58508],[-0.31682,0.63364]],[[590.61718,616],[0,-0.70843],[0,0.20156]],[[590.57685,616.85325],[0.02106,-0.33136],[0.02013,-0.10671]],[[590.74964,616.60263],[-0.10238,0.05628],[0.45234,-0.24865]],[[595.61718,617],[-0.48256,0.87548],[0.14503,-0.26312]],[[594.95308,616.3906],[-0.04725,0.29671],[0.58086,-3.64773]],[[604.72276,605.71115],[-3.02833,1.51416],[0.78545,-0.39273]],[[607.27135,605.03032],[-0.87898,0.0905],[-0.34365,-0.53523]],[[607.61718,603],[0,0.6759],[0,-0.23192]]],&quot;closed&quot;:true}],&quot;index&quot;:null}" fill="#ffffff" stroke="none" stroke-linecap="butt"/></g><g fill-rule="nonzero" stroke-width="1"><path d="M426.84809,259.01706l-40.30873,-19.84301l80.88963,-58.22596l51.99248,10.93578z" data-paper-data="{&quot;index&quot;:null}" fill="#cedce9" stroke="#000000" stroke-linecap="round"/><path d="M525.88394,184.64709c-1.92799,1.93611 -3.92849,3.6946 -5.9483,5.38128c0.05365,0.04371 0.10208,0.09481 0.14481,0.15374c1.04093,1.4354 -3.40476,4.65937 -3.40476,4.65937c-19.63519,14.23922 -39.2703,28.47838 -58.9055,42.71761c-5.0527,3.66416 -18.09736,12.13032 -21.20139,15.69135c-1.78797,2.05121 -3.36019,3.1167 -6.06377,5.17616c-0.30518,0.23248 -0.85851,0.65762 -1.35045,1.02906c3.10429,-1.31573 5.92723,5.28211 7.07564,6.86571c4.85774,6.6986 9.7155,13.3972 14.57325,20.0958c0.86744,1.19616 1.73492,2.39238 2.60236,3.58853c0.34698,0.47846 0.5538,2.40888 1.04093,1.4354c1.85346,-3.70363 8.26198,-7.08241 15.03947,-12.0016c13.35996,-9.69682 27.33282,-20.53388 41.02116,-29.27603c25.09034,-15.83356 49.06643,-36.994 74.09359,-52.51215c21.19757,-12.90574 45.27461,-30.14385 65.90634,-45.10576c5.18669,-3.76133 10.37332,-7.52261 15.56,-11.28393c0.78039,-0.56592 1.98108,-1.48842 3.2227,-2.44561c-1.81013,0.1891 -1.76532,-2.56056 -2.49078,-3.56093c-2.71015,-3.73716 -3.5053,-12.99736 -10.70331,-12.90081c-7.16586,-1.0247 -12.67524,-3.01927 -22.49007,-2.10617c-7.24171,0.67366 -17.05654,3.73334 -23.40934,3.79286c-3.32014,-0.30252 -4.21876,2.28614 -11.13451,6.67414c-15.3028,9.70949 -29.85004,20.55178 -44.97746,31.52201c-5.51406,3.99874 -12.17709,9.38228 -17.78283,12.89591c-1.18331,0.74172 -3.5089,1.99538 -5.26635,2.91535c3.43206,-1.38267 -2.69111,4.12791 -5.15153,6.59864zM455.68811,234.68838c14.83966,-10.76156 29.67934,-21.52313 44.51894,-32.28464c0.378,-0.37956 0.75585,-0.75903 1.13381,-1.13856c4.97847,-4.99934 10.24408,-8.44981 14.77929,-12.3605c6.18057,-5.32947 8.76202,-10.05538 15.23159,-15.42636c3.7165,-3.08537 15.1197,-10.10072 20.65086,-14.11186c14.99794,-10.87634 29.77865,-22.01766 44.97743,-31.52197c8.53806,-5.33914 14.6214,-11.41281 20.83559,-10.84658c1.47646,0.85623 6.53643,-1.60885 9.58804,-2.33952c4.66361,-1.11667 9.25617,-1.09213 13.22381,-1.46126c9.83585,-0.91502 15.90069,1.08209 23.24526,2.13231c7.04965,1.60892 8.49492,8.89546 11.81796,13.47778c1.83716,2.53336 4.36861,3.42214 0.23858,9.68334c-1.44024,2.18339 -20.28742,14.71221 -23.33989,16.92583c-21.28068,15.43251 -46.27747,33.28243 -68.12503,46.58388c-24.22603,14.30318 -49.12487,36.76022 -73.65915,52.24284c-19.88232,12.32258 -46.38057,37.122 -65.24973,43.64591c-1.86815,0.64587 -3.08861,-4.25904 -3.64331,-5.02395c-4.85774,-6.6986 -9.71548,-13.39717 -14.57323,-20.09578c-1.62412,-2.23958 -8.55943,-5.36937 -5.1304,-10.40084c5.98392,-8.78037 21.62694,-19.08466 33.47974,-27.68017z" data-paper-data="{&quot;index&quot;:null}" fill="#000000" stroke="none" stroke-linecap="butt"/><path d="M519.82363,190.00436c2.01974,-1.68661 4.04476,-3.46582 5.97285,-5.40199c2.46044,-2.47075 8.60932,-8.00126 5.17721,-6.61856c1.75743,-0.92 4.10065,-2.18651 5.28389,-2.9281c5.60578,-3.51366 12.33341,-8.93855 17.84736,-12.93721c15.12732,-10.97016 29.78451,-21.86147 45.08728,-31.57094c6.91575,-4.388 7.83212,-6.9812 11.15225,-6.67867c6.35285,-0.05958 16.21645,-3.12202 23.45823,-3.7957c9.81481,-0.91307 15.35306,1.10211 22.51895,2.12681c7.19814,-0.09661 7.99034,9.20362 10.70048,12.94078c0.72546,1.00038 0.67601,3.76113 2.48618,3.57202c-1.24158,0.95716 -2.4433,1.88178 -3.22372,2.44773c-5.18667,3.76132 -10.3791,7.53367 -15.56579,11.295c-20.63187,14.96201 -44.78809,32.29568 -65.98568,45.20141c-25.02719,15.5182 -49.2489,36.83553 -74.33929,52.66908c-13.68835,8.74212 -27.71354,19.59215 -41.07352,29.28898c-6.77745,4.91917 -13.19347,8.29867 -15.04695,12.00233c-0.48717,0.97346 -0.69888,-0.95667 -1.04586,-1.43514c-0.86744,-1.19616 -1.74672,-2.39267 -2.61416,-3.58883c-4.85774,-6.6986 -9.75364,-13.43031 -14.6114,-20.12893c-1.1484,-1.58358 -3.96778,-8.20498 -7.07214,-6.88925c0.49202,-0.3715 1.04554,-0.79733 1.35068,-1.02979c2.7035,-2.05939 4.2775,-3.12982 6.06541,-5.18101c3.104,-3.56101 16.15529,-12.04216 21.20795,-15.70628c19.63528,-14.23928 39.35438,-28.5829 58.98948,-42.82205c0,0 4.46572,-3.24225 3.42479,-4.67765c-0.04273,-0.05892 -0.09064,-0.11042 -0.14432,-0.15415z" data-paper-data="{&quot;noHover&quot;:false,&quot;origItem&quot;:[&quot;Path&quot;,{&quot;applyMatrix&quot;:true,&quot;segments&quot;:[[[579.60736,595.76373],[0.95609,-0.20262],[0.00646,0.07548]],[[579.61718,596],[0,-0.08208],[0,2]],[[577.61718,598],[0,0],[-8.83333,0]],[[551.11718,598],[8.83333,0],[-2.27308,0]],[[541.51161,598.28885],[1.67648,-1.19621],[-0.96568,0.68904]],[[538.61718,599],[1.23739,-0.09027],[-0.13966,0.01019]],[[537.99901,599.04541],[0.22447,-0.0134],[1.19653,0.85421]],[[538.61718,610],[0,-2.20646],[0,9.33333]],[[538.61718,638],[0,-9.33333],[0,1.66667]],[[538.61718,643],[0,-1.66667],[0,0.66667]],[[538.61718,645],[-0.35177,0.56631],[1.33831,-2.15456]],[[545.61718,644],[-3.04994,0.00386],[6.01206,-0.00761]],[[563.97058,644.43107],[-5.90478,-1.08158],[10.78253,2.15651]],[[597.04254,645.54479],[-10.6965,-2.40266],[9.00888,2.25222]],[[626.11718,648],[-9.28168,0],[2.33333,0]],[[633.11718,648],[-2.33333,0],[0.35109,0]],[[634.59021,647.90091],[-0.5707,0.05184],[-0.57412,-1.02596]],[[634.61718,643],[0,1.39387],[0,-5.20707]],[[634.21982,624.13246],[2.14282,4.67827],[-1.8936,-5.6808]],[[628.03948,607.31672],[3.08887,5.66543],[-2.2791,-4.1802]],[[620.32688,595.27881],[1.8857,4.15235],[-0.91417,-2.47477]],[[615.61718,594],[2.9771,0.57275],[-6.58756,-1.26734]],[[595.61718,593],[6.8054,0],[-2.48058,0]],[[587.61718,593],[2.40395,0.50364],[-0.50743,-0.10631]],[[585.44122,592.1748],[0.71481,0.32365],[1.30749,1.01011]],[[582.51161,594.78885],[1.25365,-0.62682],[-0.98239,0.4912]]],&quot;closed&quot;:true}],&quot;index&quot;:null}" fill="#484848" stroke="none" stroke-linecap="butt"/><path d="M585.96343,150.07046c-0.1207,-0.16645 -0.38442,-0.40053 -0.64186,-0.63168c-0.1484,0.27716 -0.42128,0.61966 -0.8021,1.01876c-1.00348,1.38777 -3.0018,2.83695 -3.0018,2.83695c-16.9337,12.28013 -23.95095,23.18347 -27.03036,31.53313c-0.37445,0.96549 0.08512,1.46833 0.45384,1.97677c0.1049,0.14466 0.2288,0.40564 0.35444,0.6774c-0.01075,-0.10903 0.0554,-0.25299 0.25366,-0.45839c0.87615,-0.90765 10.40959,-6.15492 11.02658,-7.56116c0.18542,-0.42263 -1.7439,0.92222 -1.79336,0.63315c-0.60733,-3.55439 10.21473,-17.44494 16.15814,-23.4133c1.54147,-1.54796 3.40402,-3.11506 5.31076,-4.59689c-1.04246,0.16984 0.06379,-1.52953 -0.28801,-2.01463zM555.35829,187.61761c0.26926,0.58342 0.53353,1.13612 0.6238,0.62221c0.06176,-0.35122 -0.44212,-0.41603 -0.6238,-0.62221zM545.6037,189.31087c3.54919,-8.47519 9.44236,-18.1297 21.60473,-29.0676c0.78437,-1.52127 3.3361,-3.37175 3.3361,-3.37175l2.22283,-1.61197c5.03323,-3.65004 7.2855,-6.14726 12.69187,-10.06791c7.50809,-5.44478 12.74422,-1.88655 9.8418,2.37233c-1.83156,2.68747 -5.59363,5.86169 -8.52191,8.80223c-8.66775,8.70409 -9.00764,15.89988 -18.1213,25.96679c-9.6594,10.66963 -25.99339,14.55637 -23.05412,6.97788z" data-paper-data="{&quot;index&quot;:null}" fill="#000000" stroke="none" stroke-linecap="butt"/><path d="M585.45184,149.27093c0.25758,0.23103 0.53446,0.46167 0.65516,0.62812c0.35178,0.48509 -0.72981,2.18011 0.31265,2.01028c-1.90676,1.48187 -3.78481,3.05129 -5.32635,4.5993c-5.94353,5.96842 -16.84621,19.88677 -16.23885,23.44113c0.04935,0.28919 1.85897,-0.77651 1.67355,-0.35387c-0.61699,1.40625 -10.23988,6.68957 -11.11603,7.59721c-0.19835,0.2055 -0.26318,0.34906 -0.2523,0.45807c-0.12564,-0.27178 -0.26014,-0.53012 -0.36504,-0.67477c-0.36872,-0.50843 -0.8549,-1.00719 -0.48047,-1.97266c3.07935,-8.34962 10.38853,-19.59332 27.32221,-31.87343c0,0 2.00963,-1.45265 3.01309,-2.84043c0.38085,-0.39915 0.65391,-0.74168 0.8022,-1.0188z" data-paper-data="{&quot;noHover&quot;:false,&quot;origItem&quot;:[&quot;Path&quot;,{&quot;applyMatrix&quot;:true,&quot;segments&quot;:[[[607.563,601.99816],[0.02649,0.38155],[-0.10299,0.15484]],[[607.10872,602.39727],[0.1976,-0.11227],[-0.59254,0.60273]],[[605.61718,603],[0,0],[-7.618,0]],[[590.90604,613.89443],[2.69308,-5.58508],[-0.31682,0.63364]],[[590.61718,616],[0,-0.70843],[0,0.20156]],[[590.57685,616.85325],[0.02106,-0.33136],[0.02013,-0.10671]],[[590.74964,616.60263],[-0.10238,0.05628],[0.45234,-0.24865]],[[595.61718,617],[-0.48256,0.87548],[0.14503,-0.26312]],[[594.95308,616.3906],[-0.04725,0.29671],[0.58086,-3.64773]],[[604.72276,605.71115],[-3.02833,1.51416],[0.78545,-0.39273]],[[607.27135,605.03032],[-0.87898,0.0905],[-0.34365,-0.53523]],[[607.61718,603],[0,0.6759],[0,-0.23192]]],&quot;closed&quot;:true}],&quot;index&quot;:null}" fill="#ffffff" stroke="none" stroke-linecap="butt"/></g><g><path d="M19.37437,373.00055l-30.27025,-100.53972l112.67236,-36.33089l-27.96219,-91.07089l261.33006,-85.15439l4.75593,-14.57037l141.99211,-47.89659l7.00734,-3.01544l70.58768,217.3607l-241.36425,76.34318l-0.56317,-7.79281z" fill="#67708d" fill-rule="nonzero" stroke="#000000" stroke-width="1" stroke-linecap="round"/><path d="M12.29319,336.63525l295.5922,-92.64369l11.62197,36.81383l-296.21711,91.487z" fill="#374c6f" fill-rule="nonzero" stroke="#000000" stroke-width="1" stroke-linecap="round"/><path d="M260.89696,221.0558l1.47639,-0.4729l0.24606,-0.07883l2.20498,0.10768z" fill="#9e8142" fill-rule="evenodd" stroke="none" stroke-width="1" stroke-linecap="butt"/><path d="M350.55184,219.64782c0.43885,0.21007 0.55134,0.56127 0.33728,1.05305c-0.40778,-0.24906 -0.52027,-0.60028 -0.33728,-1.05305z" fill="#fefffe" fill-rule="evenodd" stroke="none" stroke-width="1" stroke-linecap="butt"/><path d="M317.75506,288.48566l-45.28842,-139.88389l45.05573,-69.03573l75.43002,27.30286l7.39667,25.35577l120.50799,-40.53192l39.43628,120.85895z" fill="#727681" fill-rule="nonzero" stroke="#000000" stroke-width="1" stroke-linecap="round"/><path d="M340.05371,281.16215l-36.0591,-112.57821l1.86441,-10.02003l4.60864,-8.2413l6.87013,-8.72403l6.03812,-6.04143l10.88633,-3.72854l11.38622,-2.9222l13.86849,2.56463l11.92369,7.05335l6.68169,7.28268l7.59579,16.17115l32.09224,95.66751z" fill="#56505e" fill-rule="nonzero" stroke="#000000" stroke-width="1" stroke-linecap="round"/><path d="M368.01931,141.13351l34.39631,102.09162l-68.55136,21.61799l-30.33895,-95.77867l2.18248,-7.48337z" fill="#8c908f" fill-rule="nonzero" stroke="#000000" stroke-width="1" stroke-linecap="round"/><path d="M369.11419,160.43752l-58.61995,19.79378l-4.63149,-14.4597l58.70645,-18.46462z" fill="#45a3ac" fill-rule="nonzero" stroke="#000000" stroke-width="1" stroke-linecap="round"/><path d="M393.02812,231.39125l-8.66357,2.60534l-21.6847,-65.05303l9.69108,-3.10408z" fill="#45a3ac" fill-rule="nonzero" stroke="#000000" stroke-width="1" stroke-linecap="round"/><path d="M341.2189,246.50182l-8.40517,2.35299l-19.90611,-64.26587l8.26339,-3.32521z" fill="#45a3ac" fill-rule="nonzero" stroke="#000000" stroke-width="1" stroke-linecap="round"/><path d="M324.67236,181.07507l33.47291,-9.87341l23.3482,72.36459l-31.69428,10.6606l-23.71143,-72.96909z" fill="#ffb600" fill-rule="nonzero" stroke="#000000" stroke-width="1" stroke-linecap="round"/><path d="M282.18728,178.18875l-0.42423,1.32315l-311.32819,99.38008l-6.17343,-4.97656l316.13162,-102.27547z" fill="#d0ced0" fill-rule="nonzero" stroke="#000000" stroke-width="1" stroke-linecap="round"/><path d="M317.94045,79.85511l-52.59124,80.44821l-7.43642,-10.50831l57.89582,-79.77276l93.26464,30.2532l-4.98743,11.43478z" fill="#d0ced0" fill-rule="nonzero" stroke="#000000" stroke-width="1" stroke-linecap="round"/><path d="M377.78713,90.36748l-14.92913,-46.60946l105.96031,-34.27859l17.22081,55.8823l-91.29248,31.10692z" fill="#393b64" fill-rule="nonzero" stroke="#000000" stroke-width="1" stroke-linecap="round"/><path d="M399.97674,94.79344l-18.52592,-57.83879l71.42482,-22.70796l18.2363,56.40509l-72.07046,24.39884" fill="#0024ff" fill-rule="nonzero" stroke="#000000" stroke-width="1" stroke-linecap="round"/><path d="M335.05129,60.08494l-276.12594,90.13998l-11.87822,-6.37187l231.57275,-77.39594l0.34004,5.82737l47.65381,-15.77246l3.6571,-15.58808l177.13977,-59.62168l-2.87111,9.56965l-164.96943,54.19702z" fill="#d0ced0" fill-rule="nonzero" stroke="#000000" stroke-width="1" stroke-linecap="round"/><path d="M416.31437,138.91648l67.84955,-22.75004l22.9964,68.61869l-69.99109,22.41834z" fill="#00ff06" fill-rule="nonzero" stroke="#000000" stroke-width="1" stroke-linecap="round"/><path d="M96.21175,246.36487l0.73422,7.05797l26.76139,87.25692l-86.13689,27.08104l-27.77232,-93.59023z" fill="#838a99" fill-rule="nonzero" stroke="#000000" stroke-width="1" stroke-linecap="round"/><path d="M15.93582,283.27159l78.75922,-25.2268l25.97875,83.22499l-79.89129,25.9286z" fill="#555e7f" fill-rule="nonzero" stroke="#000000" stroke-width="1" stroke-linecap="round"/><path d="M22.65609,285.18967l70.55714,-22.76926l2.24843,8.60828l-69.88654,22.21525z" fill="#ffb600" fill-rule="nonzero" stroke="#000000" stroke-width="1" stroke-linecap="round"/><path d="M281.84472,185.59164l31.10237,97.10303l-171.80024,52.99279l-28.27075,-93.55779z" fill="#838a99" fill-rule="nonzero" stroke="#000000" stroke-width="1" stroke-linecap="round"/><path d="M145.58769,333.79863l-26.13888,-83.72492l162.42527,-52.8733l27.13032,86.29071z" fill="#555e7f" fill-rule="nonzero" stroke="#000000" stroke-width="1" stroke-linecap="round"/><path d="M127.01512,251.72077l151.3221,-49.14732l1.78095,9.26684l-150.76688,48.63026z" fill="#ffb600" fill-rule="nonzero" stroke="#000000" stroke-width="1" stroke-linecap="round"/><path d="M249.96816,148.82029l-121.42007,40.3046l-15.88391,-50.11983l120.27197,-40.04991z" fill="#393b64" fill-rule="nonzero" stroke="#000000" stroke-width="1" stroke-linecap="round"/><path d="M146.67954,182.8509l-16.11164,-50.3013l84.50608,-27.40675l14.5241,50.64017z" fill="#ba00ff" fill-rule="nonzero" stroke="#000000" stroke-width="1" stroke-linecap="round"/><path d="M303.83677,77.08823c0.96557,0.49392 1.4606,-0.47535 1.4606,-0.47535c3.42512,-6.71226 11.15266,-11.51638 18.81717,-10.18441c3.38661,0.58854 6.22825,2.78737 9.32797,3.99695c6.71287,2.38887 10.1548,14.63622 6.93695,20.6339c-1.23722,2.30602 -3.55587,3.84436 -5.814,5.20394c-1.57316,0.32676 -3.12391,1.13521 -4.75896,1.28921c-2.09138,0.77121 -4.29986,1.42803 -6.43273,2.17605c-7.39811,-0.90843 -14.0102,-7.98294 -17.32577,-14.56918c-1.40223,-2.83227 -3.62287,-5.79986 -2.70473,-8.53252c0.08768,0.16853 0.24018,0.33184 0.49349,0.46143z" data-paper-data="{&quot;noHover&quot;:false,&quot;origItem&quot;:[&quot;Path&quot;,{&quot;applyMatrix&quot;:true,&quot;segments&quot;:[[[521.95838,341.96483],[-0.01667,0.21389],[-2.51251,2.06985]],[[519.4768,351.72196],[0.34861,-3.5517],[-0.75818,8.29192]],[[527.33632,375.91087],[-6.54613,-5.29068],[2.49065,0.55761]],[[534.76312,377.65449],[-2.46476,-0.51055],[1.65872,0.82936]],[[540.0653,379.26158],[-1.70264,-0.62682],[2.97607,0.04647]],[[548.70522,377.76236],[-2.56331,1.47041],[6.66685,-3.82437]],[[554.34307,353.96499],[5.00498,6.29984],[-2.24748,-3.01103]],[[547.83272,344.6127],[2.89338,2.58736],[-6.5483,-5.85572]],[[523.83701,343.12089],[7.2924,-4.38522],[0,0]],[[522.15667,342.70081],[0.63012,1.05021],[-0.1653,-0.2755]]],&quot;closed&quot;:true}]}" fill="#ffffff" fill-rule="nonzero" stroke="#000000" stroke-width="2" stroke-linecap="butt"/><path d="M276.93724,97.47028c0,0 -0.35882,1.01698 0.66423,1.37715c1.02303,0.36017 1.21016,-0.70027 1.21016,-0.70027c1.11789,-3.17622 2.21162,-7.41505 4.46966,-9.96816c1.04972,-1.18692 2.29913,-0.87195 3.69965,-1.42376c4.3387,-1.70956 9.12126,-1.11755 13.1464,1.33177c1.25078,0.88227 2.83542,1.36512 3.89489,2.4753c7.25215,7.59943 5.0581,18.30139 -0.33696,25.78973c-10.07942,6.14268 -24.32013,-6.634 -27.58514,-15.87935c-0.11155,-1.15078 -0.65524,-3.07311 -0.18103,-4.19946c0.56352,-1.33847 1.60766,-2.35494 2.56965,-3.37942c-0.58122,1.59529 -1.06071,3.18279 -1.55152,4.57651z" data-paper-data="{&quot;noHover&quot;:false,&quot;origItem&quot;:[&quot;Path&quot;,{&quot;applyMatrix&quot;:true,&quot;segments&quot;:[[[488.3096,342.53923],[-1.51011,1.18134],[-1.53391,0.40687]],[[483.9403,344.40615],[1.33969,-0.94584],[-1.12739,0.79595]],[[481.61976,348.52197],[0.58067,-1.16933],[-2.39539,10.80972]],[[498.48043,380.05978],[-13.32827,-0.13636],[9.64373,-3.9519]],[[514.1197,355.67768],[2.40851,11.61483],[-0.35185,-1.69676]],[[511.87957,351.00633],[0.67137,1.5927],[-2.39344,-4.75186]],[[500.14885,341.91879],[5.17877,0.9542],[-1.67168,-0.30801]],[[495.77608,341.07281],[1.715,-0.51012],[-3.68906,1.09729]],[[485.59672,347.92601],[2.96891,-2.37555],[0,0]],[[483.87527,347.73474],[0.76509,0.95636],[-0.76509,-0.95636]],[[484.06654,346.01329],[0,0],[1.30299,-1.04221]]],&quot;closed&quot;:true}]}" fill="#ffffff" fill-rule="nonzero" stroke="#000000" stroke-width="2" stroke-linecap="butt"/><path d="M281.61157,101.19851c-0.77635,-1.24505 -0.39636,-2.8837 0.84866,-3.66005c1.24505,-0.77635 2.8837,-0.39635 3.66005,0.84866c0.77635,1.24505 0.39639,2.8837 -0.84866,3.66007c-1.24505,0.77635 -2.8837,0.39636 -3.66006,-0.84868z" fill="#000000" fill-rule="nonzero" stroke="none" stroke-width="0.5" stroke-linecap="butt"/><path d="M333.61601,79.85756c-0.77635,-1.24505 -0.39636,-2.8837 0.84866,-3.66005c1.24505,-0.77635 2.8837,-0.39635 3.66005,0.84866c0.77635,1.24505 0.39639,2.8837 -0.84866,3.66007c-1.24505,0.77635 -2.8837,0.39636 -3.66006,-0.84868z" fill="#000000" fill-rule="nonzero" stroke="none" stroke-width="0.5" stroke-linecap="butt"/><path d="M199.51893,62.60154c0.48835,-0.3045 0.87799,-0.18326 1.1341,-0.00568c2.83698,-0.7016 5.95235,-0.40247 8.86097,-0.45905c3.52265,-0.06852 7.34587,-0.56814 10.84693,-0.2028c11.17423,1.16611 22.51592,5.40615 33.52871,7.70282c7.25485,1.51317 14.6828,4.42239 21.97575,5.42394c4.52581,0.62153 9.75338,0.09454 14.36145,0.23421c0,0 1.07119,0.03263 1.03855,1.10381c-0.03265,1.07119 -1.10382,1.03855 -1.10382,1.03855c-4.68055,-0.14328 -9.96571,0.37523 -14.56784,-0.25049c-7.35215,-0.99961 -14.83223,-3.92724 -22.14174,-5.45179c-10.93756,-2.28163 -22.21775,-6.51132 -33.3135,-7.66924c-3.41026,-0.35586 -7.15023,0.14722 -10.58278,0.21397c-2.89627,0.05632 -6.1889,-0.36534 -8.95111,0.55401l-1.42795,-0.75584c0,0 -0.56704,-0.90939 0.34233,-1.4764z" fill="#000000" fill-rule="nonzero" stroke="none" stroke-width="0.5" stroke-linecap="butt"/><path d="M335.52225,-31.63985c0.92927,0.53382 0.39544,1.4631 0.39544,1.4631l-0.41521,0.66528c-2.44925,8.2162 -4.89853,16.43242 -7.34777,24.64863c-4.19398,14.06393 -9.45184,27.88401 -14.20439,41.77001c-3.00718,8.78638 -5.63973,17.82377 -9.40855,26.31259c-1.23196,2.77489 -2.2579,7.16913 -4.8008,8.87748c0,0 -0.90939,0.56703 -1.47641,-0.34234c-0.56703,-0.90939 0.34234,-1.47641 0.34234,-1.47641c1.92664,-1.04102 3.08046,-5.91159 3.9759,-7.92845c3.74299,-8.43065 6.35306,-17.41068 9.33966,-26.13691c4.74314,-13.8585 9.99541,-27.6514 14.17822,-41.68827c2.44925,-8.2162 4.89851,-16.43242 7.34776,-24.64863l0.61073,-1.12063c0,0 0.53381,-0.92928 1.46309,-0.39544z" fill="#000000" fill-rule="nonzero" stroke="none" stroke-width="0.5" stroke-linecap="butt"/><path d="M351.49368,84.97674c0.34105,0.04052 0.54474,0.35397 0.54474,0.35397c4.8173,7.41359 5.49109,16.65003 5.97694,25.27481c0.44282,5.79577 1.74761,13.33284 -2.25072,18.26467c-1.99655,2.46268 -4.83386,4.37713 -7.27291,6.36448c-7.59013,6.17198 -18.02512,9.56194 -27.22494,12.50898c-9.95293,3.18796 -19.35569,6.06062 -29.9006,6.26058c-3.51842,0.06518 -7.23431,0.80193 -10.73526,0.31036c-6.87667,-0.96558 -11.60068,-4.49569 -17.13357,-8.16114c-2.27706,-1.37437 -3.14333,-4.09291 -3.32405,-6.70314c-0.2263,-3.26828 1.26014,-6.18249 1.85507,-9.28933c0.85727,-4.47676 1.3218,-8.8651 2.49936,-13.287c1.11772,-4.13323 0.59154,-8.576 1.52488,-12.68737c0.11643,-0.51293 0.7084,-3.52377 1.35069,-3.65052c1.11131,-0.21929 1.6318,1.4319 2.0622,1.98333c1.78083,2.2816 3.49071,4.60119 5.31509,6.87779c6.40615,6.16167 17.30311,11.73961 26.43938,10.77019c9.73907,-1.90906 18.44381,-3.8835 27.03416,-9.05638c4.52272,-3.85951 7.19446,-8.32106 10.95109,-12.80052c2.3297,-2.77795 5.42479,-4.56108 7.32647,-7.73783c0.65675,-2.18299 0.43133,-5.06899 1.63946,-7.01969c0.30913,-0.49912 1.25083,-1.98099 2.15903,-1.50709c0.55,0.28699 0.50674,1.13335 0.72656,1.71351c0.15216,0.40158 0.29476,0.80912 0.4369,1.21732zM353.3974,91.34869c-0.26409,-0.07602 -0.42761,-0.29946 -0.42761,-0.29946l-0.5292,-0.72351c-0.84581,-1.06556 -2.9722,-4.45798 -2.85711,-6.26367c-0.0459,0.10926 -0.09202,0.20708 -0.13064,0.2703c-0.27703,0.45321 -0.3508,1.00781 -0.44103,1.53125c-0.31079,1.80296 -0.5721,3.5653 -1.10861,5.31661c-1.9932,3.33449 -5.11705,5.19474 -7.54858,8.09414c-3.8355,4.5735 -6.58841,9.12395 -11.22332,13.05349c-8.77157,5.33533 -17.7232,7.38003 -27.69045,9.32324c-9.67945,0.96861 -20.9728,-4.68009 -27.7677,-11.24219c-1.28667,-1.59896 -2.22758,-3.35486 -3.44243,-4.97463c-0.14056,-0.18742 -1.68324,-1.64521 -2.32099,-2.61073c-0.23235,1.26874 -1.00925,3.54475 -1.07889,3.8757c-0.70962,3.37228 0.05337,7.11073 -0.85358,10.56082c-1.1699,4.39194 -1.62355,8.75072 -2.47841,13.19733c-0.49343,2.56664 -1.47792,4.87766 -1.7505,7.51106c-0.24509,2.36787 0.35129,5.68999 2.54208,6.91181c5.35525,3.56205 9.87456,6.98419 16.53675,7.94727c3.41216,0.49326 7.07901,-0.25942 10.51125,-0.323c10.39756,-0.18781 19.65832,-3.04638 29.47081,-6.18935c9.00432,-2.8838 19.31547,-6.18444 26.73499,-12.24331c2.34757,-1.91282 5.09953,-3.75387 7.03124,-6.11588c3.73556,-4.56766 2.3523,-11.89304 1.94318,-17.25111c-0.36313,-6.43921 -0.80178,-13.27211 -3.12124,-19.35614z" fill="#000000" fill-rule="nonzero" stroke="none" stroke-width="0.5" stroke-linecap="butt"/><path d="M356.56774,110.69535c0.40912,5.35807 1.79253,12.70159 -1.94302,17.26922c-1.9317,2.36201 -4.68594,4.21157 -7.03353,6.1244c-7.41954,6.05887 -17.75697,9.38791 -26.7613,12.27171c-9.81249,3.14297 -19.11756,6.00005 -29.51514,6.18786c-3.43224,0.06358 -7.10785,0.81029 -10.52002,0.31702c-6.66221,-0.9631 -11.19271,-4.39885 -16.54797,-7.96091c-2.19078,-1.22182 -2.79024,-4.55048 -2.54514,-6.91835c0.27257,-2.63341 1.25506,-4.951 1.74849,-7.51762c0.85487,-4.4466 1.30731,-8.8198 2.4772,-13.21173c0.90694,-3.4501 0.1462,-7.20045 0.85581,-10.57272c0.06965,-0.33097 0.84809,-2.61123 1.08045,-3.87998c0.63775,0.96553 2.27338,2.46018 2.41395,2.64759c1.21485,1.61976 2.15721,3.37117 3.44389,4.97013c6.79489,6.56211 18.08871,12.18641 27.76814,11.2178c9.96725,-1.94317 18.82334,-3.95902 27.59492,-9.29436c4.63489,-3.92951 7.39282,-8.47013 11.22832,-13.04361c2.43153,-2.89939 5.55693,-4.75744 7.55014,-8.09193c0.53652,-1.75131 0.79997,-3.51095 1.11075,-5.31391c0.09022,-0.52344 0.16452,-1.07741 0.44154,-1.53063c0.03865,-0.06323 0.15988,-0.22705 0.20579,-0.33629c-0.11507,1.80567 2.0151,5.20304 2.86095,6.26861l0.52968,0.72422c0,0 0.16376,0.22383 0.42786,0.29986c2.31946,6.08406 2.76512,12.93446 3.12826,19.37367z" data-paper-data="{&quot;noHover&quot;:false,&quot;origItem&quot;:[&quot;Path&quot;,{&quot;applyMatrix&quot;:true,&quot;segments&quot;:[[[838.25604,245.98109],[0.70609,13.00322],[-0.45665,-0.30589]],[837.62427,245.14984],[[837.05771,243.44893],[0,0],[-0.96094,-2.54558]],[[835.43712,229.77562],[-1.32078,3.36901],[-0.15408,0.18011]],[[835.02336,230.21075],[0.11219,-0.09685],[-0.80412,0.69422]],[[833.24918,232.85825],[0.4912,-0.94195],[-1.69189,3.24446]],[[827.8941,242.30837],[2.09032,-3.00838],[-5.83071,5.13512]],[[808.5784,253.11993],[6.40015,-4.039],[-10.09557,6.3711]],[[779.23799,271.13558],[11.22527,-4.65685],[-19.96201,4.81079]],[[720.80866,272.0001],[20.16991,2.37964],[-19.02719,-4.06027]],[[674.7786,233.64696],[8.93873,16.64408],[-1.4752,-3.83047]],[[671.25678,222.07174],[1.32573,3.82629],[-0.1534,-0.44273]],[[668.42877,215.68312],[0.62568,2.2281],[-1.2166,2.27481]],[[664.00934,222.40691],[0.33458,-0.58792],[-3.40892,5.99021]],[[655.94063,242.00115],[3.83226,-6.01801],[-4.90769,7.6515]],[[643.16871,265.62581],[4.34099,-7.94783],[-2.50569,4.58761]],[[635.25225,278.86404],[2.12573,-4.8495],[-1.91139,4.36051]],[[635.8774,293.57967],[-3.42733,-3.6637],[8.02694,10.05167]],[[662.52622,318.80534],[-12.1018,-5.89881],[6.19815,3.02118]],[[682.74387,324.60278],[-6.57613,-1.97284],[19.91863,5.98557]],[[742.65234,330.79344],[-20.60711,0],[18.90969,0.0006]],[[801.0433,323.78416],[-17.82821,7.01376],[5.63835,-2.21112]],[[818.16671,316.42494],[-5.12029,3.32038],[9.90165,-6.42096]],[[832.39231,284.75259],[-2.48956,10.45502],[3.23675,-12.48619]]],&quot;closed&quot;:true}]}" fill="#870000" fill-rule="nonzero" stroke="none" stroke-width="0.5" stroke-linecap="butt"/></g></g></g></svg>