<svg version="1.1" xmlns="http://www.w3.org/2000/svg" xmlns:xlink="http://www.w3.org/1999/xlink" width="1733.09309" height="836.33634" viewBox="0,0,1733.09309,836.33634"><g transform="translate(546.54655,238.16817)"><g data-paper-data="{&quot;isPaintingLayer&quot;:true}" stroke-linejoin="miter" stroke-miterlimit="10" stroke-dasharray="" stroke-dashoffset="0" style="mix-blend-mode: normal"><path d="M-546.54655,598.16817v-836.33634h1733.09309v836.33634z" fill="none" fill-rule="nonzero" stroke="#f00000" stroke-width="0" stroke-linecap="butt"/><path d="M295.79152,308.03598h2.06705l0.25839,4.03991h-0.25839v-3.87157z" fill="#eb4a83" fill-rule="evenodd" stroke="none" stroke-width="1" stroke-linecap="butt"/><path d="M296.30827,312.07588h1.55028h0.25839l2.06705,0.50498z" fill="#9e8142" fill-rule="evenodd" stroke="none" stroke-width="1" stroke-linecap="butt"/><g fill-rule="nonzero" stroke-width="1"><path d="M140.98807,232.36764l35.66987,-36.66103l99.66573,-0.32733l-20.98225,36.98836z" fill="#cedce9" stroke="#000000" stroke-linecap="round"/><path d="M131.50798,230.44542c-3.44227,-0.5174 -11.63426,-1.32394 -8.04421,-2.15777c-1.96281,0.2672 -4.58145,0.59338 -5.97483,0.68116c-6.60083,0.41574 -15.15527,0 -21.96664,0c-18.68641,0 -36.82815,-0.22067 -54.91651,0.82543c-8.17461,0.47276 -10.42181,-0.98718 -12.932,1.05558c-5.17777,3.42749 -14.91953,6.48604 -21.17742,9.93653c-8.48152,4.67647 -11.77057,9.19115 -16.97007,13.88029c-5.88377,3.86161 -1.09103,11.2758 -1.09103,15.57391c0,1.15054 1.65049,3.1985 0.07409,4.04537c1.56709,0.04279 3.08068,0.08181 4.04466,0.08181c6.40695,0 12.81384,0 19.22083,0c25.48583,0 55.09701,-0.16755 79.83381,-2.02659c29.37069,-1.98324 61.20282,0.86074 90.80975,-0.91932c16.21346,-0.89278 33.88709,-0.36208 50.39517,-0.3558c8.37456,0.00319 15.54604,-0.953 19.22075,0.82544c0.96586,0.46746 0,-1.10057 0,-1.65085c0,-1.3757 0,-2.75146 0,-4.12716c0,-7.70405 0,-15.40812 0,-23.11217c0,-1.82128 -1.58808,-8.33722 1.69736,-9.04229c-0.61635,-0.01107 -1.31388,-0.02906 -1.69736,-0.03749c-3.39773,-0.07451 -5.296,-0.01823 -7.94763,-0.58698c-4.60337,-0.9874 -20.1338,-0.23843 -26.37523,-0.23843c-24.25478,0 -48.50949,0 -72.76436,0c0,0 -5.49164,0 -5.49164,-1.65085c0,-0.06777 0.00921,-0.13274 0.02698,-0.19503c-2.62527,-0.16727 -5.27718,-0.39925 -7.97457,-0.80471zM217.71159,229.79427c14.64146,0 33.35444,-0.78376 43.35326,2.56343c5.72981,1.91807 1.95273,8.06779 1.95273,10.64354c0,7.70405 0,15.40813 0,23.11218c0,0.87972 1.89152,5.24375 0,5.77805c-19.10527,5.39647 -55.11552,1.18831 -78.44522,2.76801c-28.95077,1.74059 -62.29112,-1.57626 -90.29992,0.88484c-25.49523,1.91606 -56.21025,2.12522 -82.49769,2.12522c-3.77064,0 -26.38349,0.85845 -28.83114,0c-7.01917,-2.46176 -5.49163,-4.51527 -5.49163,-7.42893c0,-5.27013 -3.10772,-11.55207 1.65477,-16.61803c5.32915,-4.806 9.06643,-9.62627 17.5661,-14.31276c3.4287,-1.89047 7.13216,-4.41918 11.56304,-6.12662c2.89935,-1.11726 8.44273,-2.02501 9.13535,-3.4774c4.69818,-3.82337 13.18851,-2.57062 23.23489,-3.21322c17.88369,-1.14389 36.38998,-0.82544 54.91649,-0.82544c6.83247,0 20.18232,-0.94528 25.00226,-0.65114c8.39046,0.51201 13.25473,2.66302 21.38687,3.30173c5.96723,0.46868 12.25562,0.19124 19.22083,1.23816c0.52878,0.07947 1.05748,0.15896 1.58634,0.23843c18.33101,0 36.66198,0 54.993,0z" data-paper-data="{&quot;index&quot;:null}" fill="#000000" stroke="none" stroke-linecap="butt"/><path d="M139.55881,231.17084c-0.0178,0.06232 -0.02637,0.1273 -0.02637,0.19506c0,1.65085 5.51858,1.65368 5.51858,1.65368c24.25478,0 48.63878,0.03281 72.89365,0.03281c6.24143,0 21.78594,-0.74127 26.3893,0.24611c2.65155,0.56875 4.55419,0.51521 7.95178,0.58975c0.38352,0.00842 1.08159,0.02685 1.69799,0.03793c-3.28549,0.70509 -1.68071,7.2368 -1.68071,9.05811c0,7.70405 -0.01144,15.45393 -0.01144,23.158c0,1.3757 -0.00942,2.75815 -0.00942,4.13386c0,0.55028 0.96171,2.12078 -0.00414,1.65335c-3.67473,-1.77842 -10.85272,-0.8187 -19.22725,-0.82189c-16.50808,-0.00627 -34.23171,-0.51813 -50.44518,0.37464c-29.60696,1.78003 -61.73012,-1.04791 -91.10078,0.93532c-24.73678,1.85908 -54.46821,1.99787 -79.95419,1.99787c-6.40696,0 -12.82504,-0.00518 -19.23201,-0.00518c-0.96406,0 -2.47971,-0.04009 -4.0467,-0.08285c1.57642,-0.84687 -0.08433,-2.9007 -0.08433,-4.05122c0,-4.29812 -4.81856,-11.74088 1.06528,-15.6025c5.19947,-4.68911 8.49988,-9.23516 16.98136,-13.9116c6.258,-3.45049 16.04088,-6.53365 21.21867,-9.96112c2.51018,-2.04277 4.77445,-0.58908 12.94905,-1.06185c18.08828,-1.04611 36.34775,-0.84858 55.03414,-0.84858c6.81117,0 15.44228,0.4116 22.04313,-0.00412c1.39324,-0.08778 4.03375,-0.41396 5.99652,-0.68115c-3.59015,0.83378 4.63442,1.64133 8.07667,2.15873c2.69751,0.40546 5.38136,0.63963 8.00659,0.80689z" data-paper-data="{&quot;noHover&quot;:false,&quot;origItem&quot;:[&quot;Path&quot;,{&quot;applyMatrix&quot;:true,&quot;segments&quot;:[[[579.60736,595.76373],[0.95609,-0.20262],[0.00646,0.07548]],[[579.61718,596],[0,-0.08208],[0,2]],[[577.61718,598],[0,0],[-8.83333,0]],[[551.11718,598],[8.83333,0],[-2.27308,0]],[[541.51161,598.28885],[1.67648,-1.19621],[-0.96568,0.68904]],[[538.61718,599],[1.23739,-0.09027],[-0.13966,0.01019]],[[537.99901,599.04541],[0.22447,-0.0134],[1.19653,0.85421]],[[538.61718,610],[0,-2.20646],[0,9.33333]],[[538.61718,638],[0,-9.33333],[0,1.66667]],[[538.61718,643],[0,-1.66667],[0,0.66667]],[[538.61718,645],[-0.35177,0.56631],[1.33831,-2.15456]],[[545.61718,644],[-3.04994,0.00386],[6.01206,-0.00761]],[[563.97058,644.43107],[-5.90478,-1.08158],[10.78253,2.15651]],[[597.04254,645.54479],[-10.6965,-2.40266],[9.00888,2.25222]],[[626.11718,648],[-9.28168,0],[2.33333,0]],[[633.11718,648],[-2.33333,0],[0.35109,0]],[[634.59021,647.90091],[-0.5707,0.05184],[-0.57412,-1.02596]],[[634.61718,643],[0,1.39387],[0,-5.20707]],[[634.21982,624.13246],[2.14282,4.67827],[-1.8936,-5.6808]],[[628.03948,607.31672],[3.08887,5.66543],[-2.2791,-4.1802]],[[620.32688,595.27881],[1.8857,4.15235],[-0.91417,-2.47477]],[[615.61718,594],[2.9771,0.57275],[-6.58756,-1.26734]],[[595.61718,593],[6.8054,0],[-2.48058,0]],[[587.61718,593],[2.40395,0.50364],[-0.50743,-0.10631]],[[585.44122,592.1748],[0.71481,0.32365],[1.30749,1.01011]],[[582.51161,594.78885],[1.25365,-0.62682],[-0.98239,0.4912]]],&quot;closed&quot;:true}],&quot;index&quot;:null}" fill="#484848" stroke="none" stroke-linecap="butt"/><path d="M62.57252,237.22319c0,0.55791 1.8932,1.23412 0.94957,1.67589c2.41352,0.0747 4.84129,0.23779 6.99799,0.56196c8.3153,1.24986 25.23084,5.80423 26.82582,8.8152c0.12967,0.24492 -2.2217,0.28583 -1.82348,0.50302c1.32503,0.72267 12.1233,-0.53325 13.36536,-0.32801c0.2811,0.04646 0.4192,0.11882 0.47449,0.20685c-0.05784,-0.27352 -0.1108,-0.53794 -0.1108,-0.7043c0,-0.58476 0.07682,-1.21496 -0.79311,-1.73801c-7.39469,-4.61011 -19.47646,-8.99263 -40.39421,-8.99263c0,0 -2.46844,-0.00001 -4.09556,-0.49749c-0.54263,-0.09267 -0.96451,-0.20163 -1.24741,-0.32943c-0.07269,0.31493 -0.14875,0.63551 -0.14875,0.82694zM109.25154,249.60468c0.37481,0.33801 0.26423,-0.22303 0.13969,-0.80993c-0.02608,0.25472 -0.3959,0.57897 -0.13969,0.80993zM118.28212,244.73924c6.82853,4.10551 -8.67627,10.10399 -22.75971,7.34176c-13.28785,-2.60617 -17.78746,-7.84404 -29.91415,-9.66675c-4.09681,-0.61579 -9.00587,-0.95195 -12.06631,-1.97643c-4.8499,-1.62354 -2.69998,-7.16751 6.5746,-7.16751c6.67832,0 9.96769,0.65113 16.18509,0.65113h2.7458c0,0 3.152,0 4.68014,0.71787c16.26725,1.59629 26.70579,5.65194 34.5545,10.09991z" data-paper-data="{&quot;index&quot;:null}" fill="#000000" stroke="none" stroke-linecap="butt"/><path d="M62.51743,236.34091c0.28269,0.12779 0.70489,0.23673 1.24752,0.32943c1.62707,0.49749 4.10674,0.49397 4.10674,0.49397c20.91769,0 33.43559,4.47947 40.83024,9.08959c0.86998,0.52303 0.76912,1.16473 0.76912,1.74948c0,0.16637 0.04276,0.43458 0.10062,0.7081c-0.05521,-0.08808 -0.19198,-0.16085 -0.47315,-0.20735c-1.24214,-0.20522 -12.13389,1.07239 -13.45891,0.34974c-0.39823,-0.21721 1.69236,-0.40309 1.56253,-0.64802c-1.59491,-3.01096 -18.59211,-7.54221 -26.9075,-8.79209c-2.15672,-0.32418 -4.59845,-0.48056 -7.01199,-0.55525c0.9436,-0.44181 -0.92708,-1.12818 -0.92708,-1.68608c0,-0.19142 0.08876,-0.5166 0.16163,-0.83152z" data-paper-data="{&quot;noHover&quot;:false,&quot;origItem&quot;:[&quot;Path&quot;,{&quot;applyMatrix&quot;:true,&quot;segments&quot;:[[[607.563,601.99816],[0.02649,0.38155],[-0.10299,0.15484]],[[607.10872,602.39727],[0.1976,-0.11227],[-0.59254,0.60273]],[[605.61718,603],[0,0],[-7.618,0]],[[590.90604,613.89443],[2.69308,-5.58508],[-0.31682,0.63364]],[[590.61718,616],[0,-0.70843],[0,0.20156]],[[590.57685,616.85325],[0.02106,-0.33136],[0.02013,-0.10671]],[[590.74964,616.60263],[-0.10238,0.05628],[0.45234,-0.24865]],[[595.61718,617],[-0.48256,0.87548],[0.14503,-0.26312]],[[594.95308,616.3906],[-0.04725,0.29671],[0.58086,-3.64773]],[[604.72276,605.71115],[-3.02833,1.51416],[0.78545,-0.39273]],[[607.27135,605.03032],[-0.87898,0.0905],[-0.34365,-0.53523]],[[607.61718,603],[0,0.6759],[0,-0.23192]]],&quot;closed&quot;:true}],&quot;index&quot;:null}" fill="#ffffff" stroke="none" stroke-linecap="butt"/></g><g fill-rule="nonzero" stroke-width="1"><path d="M381.47564,228.94302l-20.98225,-39.72762l99.66579,0.35157l35.66983,39.37604z" data-paper-data="{&quot;index&quot;:null}" fill="#cedce9" stroke="#000000" stroke-linecap="round"/><path d="M505.30912,226.87847c-2.69741,0.43549 -5.34924,0.68463 -7.97455,0.8643c0.01777,0.06688 0.02698,0.13668 0.02698,0.20947c0,1.77311 -5.49164,1.77311 -5.49164,1.77311c-24.25481,0 -48.50953,0 -72.76436,0c-6.24146,0 -21.77182,-0.80442 -26.37522,0.25609c-2.65163,0.61087 -4.54992,0.55042 -7.94761,0.63045c-0.38354,0.00904 -1.08106,0.02837 -1.69736,0.04026c3.28547,0.7573 1.69736,7.75575 1.69736,9.71193c0,8.27459 0,16.5492 0,24.82379c0,1.47758 0,2.95524 0,4.43281c0,0.59103 -0.96586,2.2752 0,1.77311c3.67473,-1.91013 10.84624,-0.88314 19.22078,-0.88656c16.50808,-0.00674 34.18173,-0.57674 50.3952,0.38214c29.60695,1.91186 61.43911,-1.14272 90.80975,0.98739c24.73678,1.99673 54.34799,2.17667 79.83381,2.17667c6.40698,0 12.81387,0 19.22084,0c0.96399,0 2.47756,-0.04191 4.04463,-0.08787c-1.57638,-0.90959 0.07413,-3.10924 0.07413,-4.34496c0,-4.61642 4.79266,-12.5797 -1.09108,-16.72726c-5.19947,-5.03638 -8.48857,-9.88543 -16.9701,-14.90822c-6.25792,-3.70602 -15.99964,-6.99106 -21.17741,-10.6724c-2.51018,-2.19405 -4.75737,-0.62598 -12.93198,-1.13375c-18.08832,-1.12358 -36.23002,-0.88656 -54.91651,-0.88656c-6.81136,0 -15.36584,0.44653 -21.96665,0c-1.39337,-0.09424 -4.01201,-0.44463 -5.97482,-0.73161c3.59011,0.89553 -4.60192,1.76183 -8.04421,2.31756zM419.10531,226.17908c18.33103,0 36.66208,0 54.99304,0c0.52883,-0.08536 1.05749,-0.17073 1.58628,-0.25609c6.96521,-1.12445 13.25358,-0.82647 19.22084,-1.32985c8.13216,-0.686 12.99638,-2.99631 21.38687,-3.54625c4.81997,-0.31589 18.16978,0.69937 25.00227,0.69937c18.52655,0 37.0328,-0.34204 54.91647,0.88657c10.04632,0.69018 18.53667,-0.65535 23.23487,3.45118c0.69258,1.55993 6.23599,2.53491 9.13534,3.7349c4.43093,1.83387 8.13438,4.54988 11.56304,6.58033c8.49967,5.03357 12.23695,10.21078 17.5661,15.37273c4.76241,5.4411 1.65472,12.1883 1.65472,17.84872c0,3.12939 1.52753,5.33502 -5.49164,7.97909c-2.44773,0.92202 -25.0605,0 -28.83113,0c-26.28744,0 -57.0024,-0.22463 -82.49768,-2.2826c-28.00882,-2.64335 -61.34918,0.91915 -90.29995,-0.95036c-23.32968,-1.69667 -59.33996,2.82313 -78.44523,-2.973c-1.89151,-0.57387 0,-5.26108 0,-6.20595c0,-8.27459 0,-16.54916 0,-24.82377c0,-2.76649 -3.777,-9.37168 1.95275,-11.43177c9.99888,-3.59507 28.71181,-2.75327 43.35325,-2.75327z" data-paper-data="{&quot;index&quot;:null}" fill="#000000" stroke="none" stroke-linecap="butt"/><path d="M497.25799,227.65758c2.62521,-0.17965 5.30906,-0.43117 8.00658,-0.86665c3.44231,-0.55572 11.66686,-1.42307 8.07669,-2.3186c1.96281,0.28696 4.60327,0.6373 5.9965,0.73159c6.60085,0.44653 15.23189,0.00445 22.04313,0.00445c18.68636,0 36.94585,-0.21216 55.03414,0.91142c8.17462,0.50777 10.43883,-1.05356 12.949,1.14049c5.17785,3.68132 14.96067,6.99277 21.21866,10.69881c8.48149,5.02279 11.78187,9.90549 16.98136,14.94188c5.88388,4.14759 1.06533,12.14155 1.06533,16.75796c0,1.23574 -1.66078,3.44164 -0.08436,4.35124c-1.56702,0.04596 -3.08267,0.08899 -4.04671,0.08899c-6.40695,0 -12.82505,0.00556 -19.23203,0.00556c-25.48599,0 -55.2174,-0.14906 -79.95419,-2.14581c-29.37069,-2.13008 -61.4938,0.90731 -91.10078,-1.00459c-16.21345,-0.95891 -33.93708,-0.40914 -50.44518,-0.40241c-8.37449,0.00343 -15.55249,-1.02738 -19.22725,0.88276c-0.96586,0.50205 -0.00414,-1.18475 -0.00414,-1.77579c0,-1.47758 -0.00938,-2.9624 -0.00938,-4.43999c0,-8.27459 -0.01144,-16.5984 -0.01144,-24.87301c0,-1.95616 1.60481,-8.97159 -1.6807,-9.72893c0.6164,-0.01189 1.31449,-0.03167 1.69798,-0.04071c3.39759,-0.08001 5.30021,-0.02252 7.95178,-0.63342c4.60336,-1.06051 20.14788,-0.26433 26.38929,-0.26433c24.25492,0 48.63895,-0.03525 72.89366,-0.03525c0,0 5.51859,-0.00304 5.51859,-1.77615c0,-0.07278 -0.00855,-0.1426 -0.02634,-0.20951z" data-paper-data="{&quot;noHover&quot;:false,&quot;origItem&quot;:[&quot;Path&quot;,{&quot;applyMatrix&quot;:true,&quot;segments&quot;:[[[579.60736,595.76373],[0.95609,-0.20262],[0.00646,0.07548]],[[579.61718,596],[0,-0.08208],[0,2]],[[577.61718,598],[0,0],[-8.83333,0]],[[551.11718,598],[8.83333,0],[-2.27308,0]],[[541.51161,598.28885],[1.67648,-1.19621],[-0.96568,0.68904]],[[538.61718,599],[1.23739,-0.09027],[-0.13966,0.01019]],[[537.99901,599.04541],[0.22447,-0.0134],[1.19653,0.85421]],[[538.61718,610],[0,-2.20646],[0,9.33333]],[[538.61718,638],[0,-9.33333],[0,1.66667]],[[538.61718,643],[0,-1.66667],[0,0.66667]],[[538.61718,645],[-0.35177,0.56631],[1.33831,-2.15456]],[[545.61718,644],[-3.04994,0.00386],[6.01206,-0.00761]],[[563.97058,644.43107],[-5.90478,-1.08158],[10.78253,2.15651]],[[597.04254,645.54479],[-10.6965,-2.40266],[9.00888,2.25222]],[[626.11718,648],[-9.28168,0],[2.33333,0]],[[633.11718,648],[-2.33333,0],[0.35109,0]],[[634.59021,647.90091],[-0.5707,0.05184],[-0.57412,-1.02596]],[[634.61718,643],[0,1.39387],[0,-5.20707]],[[634.21982,624.13246],[2.14282,4.67827],[-1.8936,-5.6808]],[[628.03948,607.31672],[3.08887,5.66543],[-2.2791,-4.1802]],[[620.32688,595.27881],[1.8857,4.15235],[-0.91417,-2.47477]],[[615.61718,594],[2.9771,0.57275],[-6.58756,-1.26734]],[[595.61718,593],[6.8054,0],[-2.48058,0]],[[587.61718,593],[2.40395,0.50364],[-0.50743,-0.10631]],[[585.44122,592.1748],[0.71481,0.32365],[1.30749,1.01011]],[[582.51161,594.78885],[1.25365,-0.62682],[-0.98239,0.4912]]],&quot;closed&quot;:true}],&quot;index&quot;:null}" fill="#484848" stroke="none" stroke-linecap="butt"/><path d="M574.24456,234.15812c0,-0.2056 -0.07607,-0.54993 -0.14877,-0.88818c-0.28285,0.13725 -0.70483,0.25432 -1.24741,0.35384c-1.62707,0.53434 -4.09555,0.53436 -4.09555,0.53436c-20.91774,0 -32.99946,4.70707 -40.39418,9.6586c-0.86994,0.56177 -0.7931,1.23864 -0.7931,1.86671c0,0.17869 -0.05291,0.4627 -0.11074,0.75646c0.0553,-0.09458 0.19337,-0.17228 0.47445,-0.22217c1.24212,-0.22042 12.04031,1.12849 13.36534,0.3523c0.39822,-0.23329 -1.95316,-0.27721 -1.82349,-0.54026c1.59501,-3.23395 18.51057,-8.1256 26.82582,-9.46803c2.15663,-0.34819 4.58443,-0.52337 6.99795,-0.60358c-0.94361,-0.4745 0.94957,-1.20076 0.94957,-1.8zM527.42582,246.58666c-0.12453,0.63037 -0.23506,1.23295 0.13971,0.86991c0.25619,-0.24807 -0.11368,-0.59634 -0.13971,-0.86991zM518.53505,242.23082c7.84871,-4.77737 18.28731,-9.13337 34.5545,-10.84788c1.52806,-0.77104 4.68014,-0.77104 4.68014,-0.77104h2.7458c6.21741,0 9.50675,-0.69936 16.18509,-0.69936c9.27454,0 11.42446,5.95449 6.57459,7.6983c-3.06045,1.10036 -7.96947,1.46142 -12.06632,2.1228c-12.12676,1.95774 -16.62633,7.58347 -29.91414,10.38267c-14.08345,2.96675 -29.58821,-3.47595 -22.75967,-7.88547z" data-paper-data="{&quot;index&quot;:null}" fill="#000000" stroke="none" stroke-linecap="butt"/><path d="M574.29978,233.21053c0.07289,0.33825 0.16163,0.68751 0.16163,0.89311c0,0.59922 -1.87068,1.33643 -0.92707,1.81095c-2.41355,0.08023 -4.85526,0.2482 -7.01199,0.59638c-8.31538,1.34241 -25.31252,6.20923 -26.9075,9.44317c-0.12983,0.26308 1.96077,0.46273 1.56255,0.69602c-1.32504,0.77619 -12.2168,-0.59604 -13.45892,-0.37564c-0.28121,0.04991 -0.41797,0.12807 -0.47316,0.22271c0.05784,-0.29378 0.10062,-0.58187 0.10062,-0.76056c0,-0.62806 -0.10078,-1.31724 0.76913,-1.87901c7.39464,-4.95155 19.91251,-9.76276 40.83023,-9.76276c0,0 2.47967,0.00381 4.10674,-0.53055c0.54263,-0.09954 0.96478,-0.21653 1.24752,-0.35381z" data-paper-data="{&quot;noHover&quot;:false,&quot;origItem&quot;:[&quot;Path&quot;,{&quot;applyMatrix&quot;:true,&quot;segments&quot;:[[[607.563,601.99816],[0.02649,0.38155],[-0.10299,0.15484]],[[607.10872,602.39727],[0.1976,-0.11227],[-0.59254,0.60273]],[[605.61718,603],[0,0],[-7.618,0]],[[590.90604,613.89443],[2.69308,-5.58508],[-0.31682,0.63364]],[[590.61718,616],[0,-0.70843],[0,0.20156]],[[590.57685,616.85325],[0.02106,-0.33136],[0.02013,-0.10671]],[[590.74964,616.60263],[-0.10238,0.05628],[0.45234,-0.24865]],[[595.61718,617],[-0.48256,0.87548],[0.14503,-0.26312]],[[594.95308,616.3906],[-0.04725,0.29671],[0.58086,-3.64773]],[[604.72276,605.71115],[-3.02833,1.51416],[0.78545,-0.39273]],[[607.27135,605.03032],[-0.87898,0.0905],[-0.34365,-0.53523]],[[607.61718,603],[0,0.6759],[0,-0.23192]]],&quot;closed&quot;:true}],&quot;index&quot;:null}" fill="#ffffff" stroke="none" stroke-linecap="butt"/></g><g><path d="M11.19624,228.28974l-2.23055,-104.97404l118.2868,-4.81949l-2.54344,-95.23299l274.59029,-12.03498l8.48533,-12.76377l149.63322,-8.10807l7.55902,-1.02805l9.77951,228.32576l-252.99382,8.89441l1.54501,-7.65884z" fill="#67708d" fill-rule="nonzero" stroke="#000000" stroke-width="1" stroke-linecap="round"/><path d="M14.11568,191.35663l309.60645,-10.07215l1.33523,38.58167l-309.89865,8.79032z" fill="#374c6f" fill-rule="nonzero" stroke="#000000" stroke-width="1" stroke-linecap="round"/><path d="M284.59532,146.5994l1.54911,-0.06011l0.25819,-0.01002l2.09554,0.69443z" fill="#9e8142" fill-rule="evenodd" stroke="none" stroke-width="1" stroke-linecap="butt"/><path d="M371.35051,169.2603c0.36653,0.31996 0.38082,0.68845 0.04286,1.10491c-0.32616,-0.3492 -0.34045,-0.71771 -0.04286,-1.10491z" fill="#fefffe" fill-rule="evenodd" stroke="none" stroke-width="1" stroke-linecap="butt"/><path d="M321.31167,226.79629l-6.16,-146.90337l61.90276,-54.44262l65.35898,46.51169l0.33384,26.41049l126.96145,-6.76792l5.61831,127.00606z" fill="#727681" fill-rule="nonzero" stroke="#000000" stroke-width="1" stroke-linecap="round"/><path d="M344.75718,225.71397l-4.58286,-118.12328l4.4805,-9.15435l6.64794,-6.70549l8.95609,-6.56475l7.43585,-4.20307l11.48726,-0.67595l11.75287,0.23483l12.67456,6.18609l9.59838,9.98975l4.48653,8.80645l2.98611,17.61492l5.29115,100.768z" fill="#56505e" fill-rule="nonzero" stroke="#000000" stroke-width="1" stroke-linecap="round"/><path d="M409.21255,98.29499l5.79007,107.57454l-71.83701,2.46381l-3.57217,-100.4054l4.10741,-6.6252z" fill="#8c908f" fill-rule="nonzero" stroke="#000000" stroke-width="1" stroke-linecap="round"/><path d="M405.0961,117.18675l-61.77991,3.36678l-0.58864,-15.17192l61.50719,-2.06302z" fill="#45a3ac" fill-rule="nonzero" stroke="#000000" stroke-width="1" stroke-linecap="round"/><path d="M409.12838,191.95337l-9.04486,0.18926l-3.46525,-68.48441l10.16842,-0.3945z" fill="#45a3ac" fill-rule="nonzero" stroke="#000000" stroke-width="1" stroke-linecap="round"/><path d="M355.16485,192.63261l-8.7283,0.01535l-1.96252,-67.24955l8.85214,-0.99002z" fill="#45a3ac" fill-rule="nonzero" stroke="#000000" stroke-width="1" stroke-linecap="round"/><path d="M356.75009,125.1646l34.89444,-0.54556l3.10925,75.97437l-33.39171,1.78045l-3.29727,-76.65408z" fill="#ffb600" fill-rule="nonzero" stroke="#000000" stroke-width="1" stroke-linecap="round"/><path d="M316.59103,111.00255l-0.76318,1.16114l-326.57188,12.34684l-4.61464,-6.44846l331.97539,-13.84963z" fill="#d0ced0" fill-rule="nonzero" stroke="#000000" stroke-width="1" stroke-linecap="round"/><path d="M377.37977,25.8408l-72.2201,63.41931l-4.34958,-12.11636l77.14986,-61.34752l81.75139,54.13188l-7.86838,9.68077z" fill="#d0ced0" fill-rule="nonzero" stroke="#000000" stroke-width="1" stroke-linecap="round"/><path d="M432.22294,52.00112l-1.89739,-48.90522l111.27029,-4.64028l1.62124,58.45306l-96.28892,5.51386z" fill="#393b64" fill-rule="nonzero" stroke="#000000" stroke-width="1" stroke-linecap="round"/><path d="M452.41586,62.20964l-2.35452,-60.68766l74.89743,-2.74418l2.45956,59.22877l-75.97245,4.2003" fill="#0024ff" fill-rule="nonzero" stroke="#000000" stroke-width="1" stroke-linecap="round"/><path d="M399.16141,11.37701l-290.18097,12.87471l-9.73712,-9.321l243.84221,-12.5317l-1.23347,5.70548l50.13731,-2.43013l7.69929,-14.03865l186.63724,-9.989l-5.32976,8.45074l-173.45853,8.0229z" fill="#d0ced0" fill-rule="nonzero" stroke="#000000" stroke-width="1" stroke-linecap="round"/><path d="M456.33635,109.09663l71.46411,-3.74249l3.77381,72.27114l-73.43852,2.84922z" fill="#00ff06" fill-rule="nonzero" stroke="#000000" stroke-width="1" stroke-linecap="round"/><path d="M119.14934,126.86633l-1.18336,6.99669l2.40823,91.23674l-90.24327,3.01625l-1.68559,-97.60939z" fill="#838a99" fill-rule="nonzero" stroke="#000000" stroke-width="1" stroke-linecap="round"/><path d="M31.92063,140.91921l82.63853,-3.20615l2.7343,87.14252l-83.91723,3.57905z" fill="#555e7f" fill-rule="nonzero" stroke="#000000" stroke-width="1" stroke-linecap="round"/><path d="M37.88144,144.56746l74.07789,-3.03568l-0.1398,8.89597l-73.28339,2.68156z" fill="#ffb600" fill-rule="nonzero" stroke="#000000" stroke-width="1" stroke-linecap="round"/><path d="M314.27784,118.0431l3.9529,101.88588l-179.71708,5.03279l-2.1745,-97.71165z" fill="#838a99" fill-rule="nonzero" stroke="#000000" stroke-width="1" stroke-linecap="round"/><path d="M143.2982,224.3316l-2.75466,-87.66707l170.65275,-7.42911l3.02251,90.40468z" fill="#555e7f" fill-rule="nonzero" stroke="#000000" stroke-width="1" stroke-linecap="round"/><path d="M147.39207,140.27833l158.95727,-6.81371l-0.76662,9.40523l-158.28382,6.46428z" fill="#ffb600" fill-rule="nonzero" stroke="#000000" stroke-width="1" stroke-linecap="round"/><path d="M293.41696,74.0764l-127.77928,6.30456l-1.87689,-52.54306l126.60492,-6.36676z" fill="#393b64" fill-rule="nonzero" stroke="#000000" stroke-width="1" stroke-linecap="round"/><path d="M184.78713,79.19347l-2.04768,-52.77891l88.75932,-3.76692l0.42738,52.68011z" fill="#ba00ff" fill-rule="nonzero" stroke="#000000" stroke-width="1" stroke-linecap="round"/><path d="M364.5328,19.39686c0.79797,0.73454 1.53455,-0.0667 1.53455,-0.0667c5.09806,-5.54938 13.83012,-8.1078 20.85768,-4.77129c3.10516,1.47426 5.2539,4.35396 7.91631,6.34971c5.82757,4.09985 5.86278,16.8216 1.15585,21.73806c-1.80976,1.89031 -4.45576,2.75128 -6.99557,3.45624c-1.60319,-0.10661 -3.31384,0.25687 -4.93039,-0.03277c-2.22154,0.18278 -4.52525,0.22396 -6.78055,0.37326c-6.88435,-2.85708 -11.3596,-11.44432 -12.78962,-18.67803c-0.59225,-3.10439 -1.93675,-6.5584 -0.32011,-8.94522c0.03934,0.18585 0.1425,0.38405 0.35185,0.57676z" data-paper-data="{&quot;noHover&quot;:false,&quot;origItem&quot;:[&quot;Path&quot;,{&quot;applyMatrix&quot;:true,&quot;segments&quot;:[[[521.95838,341.96483],[-0.01667,0.21389],[-2.51251,2.06985]],[[519.4768,351.72196],[0.34861,-3.5517],[-0.75818,8.29192]],[[527.33632,375.91087],[-6.54613,-5.29068],[2.49065,0.55761]],[[534.76312,377.65449],[-2.46476,-0.51055],[1.65872,0.82936]],[[540.0653,379.26158],[-1.70264,-0.62682],[2.97607,0.04647]],[[548.70522,377.76236],[-2.56331,1.47041],[6.66685,-3.82437]],[[554.34307,353.96499],[5.00498,6.29984],[-2.24748,-3.01103]],[[547.83272,344.6127],[2.89338,2.58736],[-6.5483,-5.85572]],[[523.83701,343.12089],[7.2924,-4.38522],[0,0]],[[522.15667,342.70081],[0.63012,1.05021],[-0.1653,-0.2755]]],&quot;closed&quot;:true}]}" fill="#ffffff" fill-rule="nonzero" stroke="#000000" stroke-width="2" stroke-linecap="butt"/><path d="M333.15634,31.8279c0,0 -0.61814,0.88369 0.27103,1.50476c0.88915,0.62105 1.35352,-0.35048 1.35352,-0.35048c1.9279,-2.76066 4.11719,-6.55156 6.97664,-8.40645c1.32931,-0.86233 2.44867,-0.22417 3.94583,-0.38064c4.63809,-0.48479 9.08726,1.36677 12.30914,4.80486c0.96872,1.18509 2.36609,2.0748 3.08943,3.42822c4.95129,9.26443 -0.02949,18.98747 -7.23339,24.75685c-11.35657,3.21801 -21.65407,-12.90658 -22.32303,-22.68867c0.20081,-1.1386 0.19196,-3.13632 0.95058,-4.09447c0.90148,-1.1386 2.17977,-1.83819 3.38104,-2.56753c-0.98734,1.38128 -1.87458,2.78231 -2.7208,3.9936z" data-paper-data="{&quot;noHover&quot;:false,&quot;origItem&quot;:[&quot;Path&quot;,{&quot;applyMatrix&quot;:true,&quot;segments&quot;:[[[488.3096,342.53923],[-1.51011,1.18134],[-1.53391,0.40687]],[[483.9403,344.40615],[1.33969,-0.94584],[-1.12739,0.79595]],[[481.61976,348.52197],[0.58067,-1.16933],[-2.39539,10.80972]],[[498.48043,380.05978],[-13.32827,-0.13636],[9.64373,-3.9519]],[[514.1197,355.67768],[2.40851,11.61483],[-0.35185,-1.69676]],[[511.87957,351.00633],[0.67137,1.5927],[-2.39344,-4.75186]],[[500.14885,341.91879],[5.17877,0.9542],[-1.67168,-0.30801]],[[495.77608,341.07281],[1.715,-0.51012],[-3.68906,1.09729]],[[485.59672,347.92601],[2.96891,-2.37555],[0,0]],[[483.87527,347.73474],[0.76509,0.95636],[-0.76509,-0.95636]],[[484.06654,346.01329],[0,0],[1.30299,-1.04221]]],&quot;closed&quot;:true}]}" fill="#ffffff" fill-rule="nonzero" stroke="#000000" stroke-width="2" stroke-linecap="butt"/><path d="M336.66109,36.67206c-0.41444,-1.40752 0.39062,-2.88448 1.79812,-3.29892c1.40752,-0.41444 2.88448,0.39063 3.29892,1.79812c0.41444,1.40752 -0.39061,2.8845 -1.79812,3.29894c-1.40752,0.41444 -2.88448,-0.39062 -3.29893,-1.79814z" fill="#000000" fill-rule="nonzero" stroke="none" stroke-width="0.5" stroke-linecap="butt"/><path d="M392.48175,30.04245c-0.41444,-1.40752 0.39062,-2.88448 1.79812,-3.29892c1.40752,-0.41444 2.88448,0.39063 3.29892,1.79812c0.41444,1.40752 -0.39061,2.8845 -1.79812,3.29894c-1.40752,0.41444 -2.88448,-0.39062 -3.29893,-1.79814z" fill="#000000" fill-rule="nonzero" stroke="none" stroke-width="0.5" stroke-linecap="butt"/><path d="M267.90855,-22.50579c0.55207,-0.16255 0.89498,0.05864 1.09416,0.29833c2.92123,0.08403 5.84261,1.20679 8.66008,1.93147c3.41225,0.87766 7.22958,1.42049 10.5048,2.71036c10.45343,4.11693 20.24472,11.2403 30.23974,16.4032c6.58432,3.40134 12.96144,8.19408 19.71954,11.11272c4.1939,1.81123 9.37158,2.7039 13.7738,4.07289c0,0 1.0233,0.3184 0.7049,1.34168c-0.31841,1.02329 -1.34169,0.7049 -1.34169,0.7049c-4.4711,-1.3919 -9.70199,-2.30817 -13.96829,-4.14388c-6.81565,-2.93263 -13.23805,-7.75707 -19.87199,-11.18402c-9.92658,-5.12827 -19.66139,-12.22518 -30.04142,-16.3132c-3.19028,-1.25643 -6.92833,-1.77362 -10.2533,-2.62885c-2.8055,-0.72161 -5.86483,-2.00992 -8.77236,-1.86413l-1.17328,-1.11075c0,0 -0.30271,-1.02806 0.72534,-1.33074z" fill="#000000" fill-rule="nonzero" stroke="none" stroke-width="0.5" stroke-linecap="butt"/><path d="M424.18706,-76.8691c0.75231,0.76326 -0.01095,1.51556 -0.01095,1.51556l-0.57826,0.52972c-4.56075,7.25978 -9.12153,14.51956 -13.68228,21.77934c-7.80825,12.42639 -16.57615,24.33283 -24.87488,36.43815c-5.25103,7.65965 -10.20837,15.66151 -16.11349,22.83045c-1.9303,2.34344 -4.09588,6.30223 -7.0035,7.26694c0,0 -1.02806,0.3027 -1.33075,-0.72535c-0.3027,-1.02806 0.72535,-1.33075 0.72535,-1.33075c2.1351,-0.48684 4.55151,-4.87031 5.95452,-6.57358c5.86465,-7.11981 10.78495,-15.07241 16.00005,-22.67963c8.2823,-12.08134 17.03754,-23.9631 24.82777,-36.36641c4.56075,-7.25978 9.12151,-14.51956 13.68227,-21.77934l0.88861,-0.91607c0,0 0.76325,-0.75232 1.51555,0.01095z" fill="#000000" fill-rule="nonzero" stroke="none" stroke-width="0.5" stroke-linecap="butt"/><path d="M408.33463,39.76372c0.31774,0.1304 0.43001,0.48696 0.43001,0.48696c2.65522,8.43312 0.83006,17.51247 -1.01232,25.95218c-1.12597,5.70257 -1.88796,13.31369 -7.06133,16.99416c-2.58331,1.83783 -5.82976,2.92222 -8.71205,4.18355c-8.96611,3.91309 -19.92783,4.38375 -29.58087,4.75855c-10.44318,0.40517 -20.2718,0.65396 -30.48487,-1.97823c-3.40728,-0.87974 -7.18474,-1.16536 -10.42603,-2.57682c-6.36666,-2.77245 -9.97234,-7.43906 -14.32107,-12.45272c-1.82566,-1.93413 -1.932,-4.78537 -1.40688,-7.34862c0.6575,-3.20945 2.87029,-5.61894 4.27576,-8.45285c2.02521,-4.08349 3.64833,-8.18699 5.96743,-12.13181c2.18411,-3.68275 2.86732,-8.10409 4.86794,-11.81515c0.24958,-0.46298 1.62648,-3.20522 2.27925,-3.15526c1.12943,0.08643 1.18857,1.81671 1.45551,2.46328c1.10453,2.67527 2.13052,5.36813 3.27835,8.05026c4.52137,7.6526 13.5258,15.94582 22.58783,17.45932c9.89453,0.7697 18.81003,1.1993 28.47216,-1.48326c5.39133,-2.50687 9.16061,-6.08962 13.97994,-9.399c2.98872,-2.05232 6.44837,-2.94114 9.13156,-5.49235c1.21754,-1.92727 1.77348,-4.76817 3.46002,-6.32393c0.43153,-0.39806 1.73579,-1.57351 2.48385,-0.87362c0.45302,0.42384 0.18462,1.22768 0.24097,1.84551c0.03902,0.42766 0.06723,0.85851 0.09482,1.28987zM408.4618,46.41277c-0.23407,-0.14399 -0.33176,-0.40307 -0.33176,-0.40307l-0.31603,-0.83883c-0.52945,-1.2532 -1.66932,-5.09125 -1.07472,-6.80011c-0.07349,0.09297 -0.14412,0.17486 -0.19828,0.22543c-0.38831,0.36243 -0.60795,0.877 -0.83511,1.35714c-0.78242,1.65381 -1.50629,3.28173 -2.49235,4.82531c-2.81362,2.67866 -6.32163,3.63409 -9.44101,5.77613c-4.9205,3.37886 -8.7918,7.02552 -14.30997,9.56979c-9.88024,2.79053 -19.05244,2.36248 -29.17595,1.56454c-9.58515,-1.65979 -18.95252,-10.12739 -23.74116,-18.26991c-0.8113,-1.8852 -1.24743,-3.82898 -1.98397,-5.71499c-0.08522,-0.21822 -1.18099,-2.03601 -1.53678,-3.13708c-0.56374,1.16013 -1.92195,3.14482 -2.07772,3.44503c-1.58707,3.05893 -1.85346,6.86513 -3.6515,9.94616c-2.30368,3.91801 -3.90842,7.99595 -5.92322,12.05103c-1.16297,2.34065 -2.73057,4.30346 -3.69864,6.76759c-0.87046,2.21566 -1.18582,5.57613 0.59759,7.34017c4.20529,4.86646 7.64268,9.37419 13.80336,12.08679c3.15531,1.3893 6.88976,1.64644 10.2136,2.50463c10.06785,2.60443 19.7559,2.33118 30.05171,1.93173c9.44775,-0.36625 20.26622,-0.78403 29.03766,-4.63386c2.77419,-1.21402 5.91876,-2.25057 8.41262,-4.00876c4.82264,-3.4 5.45233,-10.82819 6.49351,-16.10002c1.37512,-6.30113 2.78295,-13.0018 2.17811,-19.48483z" fill="#000000" fill-rule="nonzero" stroke="none" stroke-width="0.5" stroke-linecap="butt"/><path d="M406.33353,65.90161c-1.04119,5.27183 -1.67558,12.71754 -6.49822,16.11753c-2.49385,1.75819 -5.6429,2.80233 -8.4171,4.01636c-8.77145,3.84982 -19.62286,4.28791 -29.07062,4.65416c-10.29581,0.39945 -20.02615,0.65939 -30.09401,-1.94505c-3.32383,-0.85821 -7.06513,-1.12344 -10.22043,-2.51275c-6.1607,-2.71261 -9.60522,-7.23646 -13.81052,-12.10293c-1.7834,-1.76404 -1.46924,-5.13163 -0.59878,-7.34729c0.96807,-2.46414 2.5355,-4.43383 3.69846,-6.77446c2.0148,-4.05507 3.62224,-8.14723 5.92592,-12.06523c1.79803,-3.08104 2.06977,-6.89811 3.65683,-9.95703c0.15577,-0.30023 1.51661,-2.28859 2.08036,-3.44873c0.35579,1.10109 1.53123,2.97928 1.61645,3.19749c0.73653,1.88601 1.17528,3.82584 1.98658,5.71104c4.78863,8.14252 14.16298,16.58674 23.74812,18.24653c10.1235,0.79795 19.19593,1.22821 29.07617,-1.56232c5.51815,-2.54426 9.39165,-6.1801 14.31214,-9.55894c3.11938,-2.14204 6.62829,-3.09493 9.44192,-5.77358c0.98606,-1.54358 1.71126,-3.16832 2.49368,-4.82213c0.22715,-0.48014 0.44714,-0.99396 0.83545,-1.3564c0.05418,-0.05056 0.21487,-0.17592 0.28835,-0.26888c-0.59458,1.70884 0.54763,5.55269 1.0771,6.8059l0.31631,0.83964c0,0 0.09782,0.25952 0.33189,0.40351c0.60484,6.48304 -0.80092,13.20245 -2.17604,19.50358z" data-paper-data="{&quot;noHover&quot;:false,&quot;origItem&quot;:[&quot;Path&quot;,{&quot;applyMatrix&quot;:true,&quot;segments&quot;:[[[838.25604,245.98109],[0.70609,13.00322],[-0.45665,-0.30589]],[837.62427,245.14984],[[837.05771,243.44893],[0,0],[-0.96094,-2.54558]],[[835.43712,229.77562],[-1.32078,3.36901],[-0.15408,0.18011]],[[835.02336,230.21075],[0.11219,-0.09685],[-0.80412,0.69422]],[[833.24918,232.85825],[0.4912,-0.94195],[-1.69189,3.24446]],[[827.8941,242.30837],[2.09032,-3.00838],[-5.83071,5.13512]],[[808.5784,253.11993],[6.40015,-4.039],[-10.09557,6.3711]],[[779.23799,271.13558],[11.22527,-4.65685],[-19.96201,4.81079]],[[720.80866,272.0001],[20.16991,2.37964],[-19.02719,-4.06027]],[[674.7786,233.64696],[8.93873,16.64408],[-1.4752,-3.83047]],[[671.25678,222.07174],[1.32573,3.82629],[-0.1534,-0.44273]],[[668.42877,215.68312],[0.62568,2.2281],[-1.2166,2.27481]],[[664.00934,222.40691],[0.33458,-0.58792],[-3.40892,5.99021]],[[655.94063,242.00115],[3.83226,-6.01801],[-4.90769,7.6515]],[[643.16871,265.62581],[4.34099,-7.94783],[-2.50569,4.58761]],[[635.25225,278.86404],[2.12573,-4.8495],[-1.91139,4.36051]],[[635.8774,293.57967],[-3.42733,-3.6637],[8.02694,10.05167]],[[662.52622,318.80534],[-12.1018,-5.89881],[6.19815,3.02118]],[[682.74387,324.60278],[-6.57613,-1.97284],[19.91863,5.98557]],[[742.65234,330.79344],[-20.60711,0],[18.90969,0.0006]],[[801.0433,323.78416],[-17.82821,7.01376],[5.63835,-2.21112]],[[818.16671,316.42494],[-5.12029,3.32038],[9.90165,-6.42096]],[[832.39231,284.75259],[-2.48956,10.45502],[3.23675,-12.48619]]],&quot;closed&quot;:true}]}" fill="#870000" fill-rule="nonzero" stroke="none" stroke-width="0.5" stroke-linecap="butt"/></g></g></g></svg>