<svg version="1.1" xmlns="http://www.w3.org/2000/svg" xmlns:xlink="http://www.w3.org/1999/xlink" width="1733.09309" height="836.33634" viewBox="0,0,1733.09309,836.33634"><g transform="translate(546.54655,238.16817)"><g data-paper-data="{&quot;isPaintingLayer&quot;:true}" stroke-linejoin="miter" stroke-miterlimit="10" stroke-dasharray="" stroke-dashoffset="0" style="mix-blend-mode: normal"><path d="M-546.54655,598.16817v-836.33634h1733.09309v836.33634z" fill="none" fill-rule="nonzero" stroke="#f00000" stroke-width="0" stroke-linecap="butt"/><path d="M295.79152,308.03598h2.06705l0.25839,4.03991h-0.25839v-3.87157z" fill="#eb4a83" fill-rule="evenodd" stroke="none" stroke-width="1" stroke-linecap="butt"/><path d="M296.30827,312.07588h1.55028h0.25839l2.06705,0.50498z" fill="#9e8142" fill-rule="evenodd" stroke="none" stroke-width="1" stroke-linecap="butt"/><g fill-rule="nonzero" stroke-width="1"><path d="M130.95464,289.22383l35.66987,-36.66103l99.66573,-0.32733l-20.98225,36.98836z" fill="#cedce9" stroke="#000000" stroke-linecap="round"/><path d="M121.47455,287.30161c-3.44227,-0.5174 -11.63426,-1.32394 -8.04421,-2.15777c-1.96281,0.2672 -4.58145,0.59338 -5.97483,0.68116c-6.60083,0.41574 -15.15527,0 -21.96664,0c-18.68641,0 -36.82815,-0.22067 -54.91651,0.82543c-8.17461,0.47276 -10.42181,-0.98718 -12.932,1.05558c-5.17777,3.42749 -14.91953,6.48604 -21.17742,9.93653c-8.48152,4.67647 -11.77057,9.19115 -16.97007,13.88029c-5.88377,3.86161 -1.09103,11.2758 -1.09103,15.57391c0,1.15054 1.65049,3.1985 0.07409,4.04537c1.56709,0.04279 3.08068,0.08181 4.04466,0.08181c6.40695,0 12.81384,0 19.22083,0c25.48583,0 55.09701,-0.16755 79.83381,-2.02659c29.37069,-1.98324 61.20282,0.86074 90.80975,-0.91932c16.21346,-0.89278 33.88709,-0.36208 50.39517,-0.3558c8.37456,0.00319 15.54604,-0.953 19.22075,0.82544c0.96586,0.46746 0,-1.10057 0,-1.65085c0,-1.3757 0,-2.75146 0,-4.12716c0,-7.70405 0,-15.40812 0,-23.11217c0,-1.82128 -1.58808,-8.33722 1.69736,-9.04229c-0.61635,-0.01107 -1.31388,-0.02906 -1.69736,-0.03749c-3.39773,-0.07451 -5.296,-0.01823 -7.94763,-0.58698c-4.60337,-0.9874 -20.1338,-0.23843 -26.37523,-0.23843c-24.25478,0 -48.50949,0 -72.76436,0c0,0 -5.49164,0 -5.49164,-1.65085c0,-0.06777 0.00921,-0.13274 0.02698,-0.19503c-2.62527,-0.16727 -5.27718,-0.39925 -7.97457,-0.80471zM207.67816,286.65046c14.64146,0 33.35444,-0.78376 43.35326,2.56343c5.72981,1.91807 1.95273,8.06779 1.95273,10.64354c0,7.70405 0,15.40813 0,23.11218c0,0.87972 1.89152,5.24375 0,5.77805c-19.10527,5.39647 -55.11552,1.18831 -78.44522,2.76801c-28.95077,1.74059 -62.29112,-1.57626 -90.29992,0.88484c-25.49523,1.91606 -56.21025,2.12522 -82.49769,2.12522c-3.77064,0 -26.38349,0.85845 -28.83114,0c-7.01917,-2.46176 -5.49163,-4.51527 -5.49163,-7.42893c0,-5.27013 -3.10772,-11.55207 1.65477,-16.61803c5.32915,-4.806 9.06643,-9.62627 17.5661,-14.31276c3.4287,-1.89047 7.13216,-4.41918 11.56304,-6.12662c2.89935,-1.11726 8.44273,-2.02501 9.13535,-3.4774c4.69818,-3.82337 13.18851,-2.57062 23.23489,-3.21322c17.88369,-1.14389 36.38998,-0.82544 54.91649,-0.82544c6.83247,0 20.18232,-0.94528 25.00226,-0.65114c8.39046,0.51201 13.25473,2.66302 21.38687,3.30173c5.96723,0.46868 12.25562,0.19124 19.22083,1.23816c0.52878,0.07947 1.05748,0.15896 1.58634,0.23843c18.33101,0 36.66198,0 54.993,0z" data-paper-data="{&quot;index&quot;:null}" fill="#000000" stroke="none" stroke-linecap="butt"/><path d="M129.52538,288.02703c-0.0178,0.06232 -0.02637,0.1273 -0.02637,0.19506c0,1.65085 5.51858,1.65368 5.51858,1.65368c24.25478,0 48.63878,0.03281 72.89365,0.03281c6.24143,0 21.78594,-0.74127 26.3893,0.24611c2.65155,0.56875 4.55419,0.51521 7.95178,0.58975c0.38352,0.00842 1.08159,0.02685 1.69799,0.03793c-3.28549,0.70509 -1.68071,7.2368 -1.68071,9.05811c0,7.70405 -0.01144,15.45393 -0.01144,23.158c0,1.3757 -0.00942,2.75815 -0.00942,4.13386c0,0.55028 0.96171,2.12078 -0.00414,1.65335c-3.67473,-1.77842 -10.85272,-0.8187 -19.22725,-0.82189c-16.50808,-0.00627 -34.23171,-0.51813 -50.44518,0.37464c-29.60696,1.78003 -61.73012,-1.04791 -91.10078,0.93532c-24.73678,1.85908 -54.46821,1.99787 -79.95419,1.99787c-6.40696,0 -12.82504,-0.00518 -19.23201,-0.00518c-0.96406,0 -2.47971,-0.04009 -4.0467,-0.08285c1.57642,-0.84687 -0.08433,-2.9007 -0.08433,-4.05122c0,-4.29812 -4.81856,-11.74088 1.06528,-15.6025c5.19947,-4.68911 8.49988,-9.23516 16.98136,-13.9116c6.258,-3.45049 16.04088,-6.53365 21.21867,-9.96112c2.51018,-2.04277 4.77445,-0.58908 12.94905,-1.06185c18.08828,-1.04611 36.34775,-0.84858 55.03414,-0.84858c6.81117,0 15.44228,0.4116 22.04313,-0.00412c1.39324,-0.08778 4.03375,-0.41396 5.99652,-0.68115c-3.59015,0.83378 4.63442,1.64133 8.07667,2.15873c2.69751,0.40546 5.38136,0.63963 8.00659,0.80689z" data-paper-data="{&quot;noHover&quot;:false,&quot;origItem&quot;:[&quot;Path&quot;,{&quot;applyMatrix&quot;:true,&quot;segments&quot;:[[[579.60736,595.76373],[0.95609,-0.20262],[0.00646,0.07548]],[[579.61718,596],[0,-0.08208],[0,2]],[[577.61718,598],[0,0],[-8.83333,0]],[[551.11718,598],[8.83333,0],[-2.27308,0]],[[541.51161,598.28885],[1.67648,-1.19621],[-0.96568,0.68904]],[[538.61718,599],[1.23739,-0.09027],[-0.13966,0.01019]],[[537.99901,599.04541],[0.22447,-0.0134],[1.19653,0.85421]],[[538.61718,610],[0,-2.20646],[0,9.33333]],[[538.61718,638],[0,-9.33333],[0,1.66667]],[[538.61718,643],[0,-1.66667],[0,0.66667]],[[538.61718,645],[-0.35177,0.56631],[1.33831,-2.15456]],[[545.61718,644],[-3.04994,0.00386],[6.01206,-0.00761]],[[563.97058,644.43107],[-5.90478,-1.08158],[10.78253,2.15651]],[[597.04254,645.54479],[-10.6965,-2.40266],[9.00888,2.25222]],[[626.11718,648],[-9.28168,0],[2.33333,0]],[[633.11718,648],[-2.33333,0],[0.35109,0]],[[634.59021,647.90091],[-0.5707,0.05184],[-0.57412,-1.02596]],[[634.61718,643],[0,1.39387],[0,-5.20707]],[[634.21982,624.13246],[2.14282,4.67827],[-1.8936,-5.6808]],[[628.03948,607.31672],[3.08887,5.66543],[-2.2791,-4.1802]],[[620.32688,595.27881],[1.8857,4.15235],[-0.91417,-2.47477]],[[615.61718,594],[2.9771,0.57275],[-6.58756,-1.26734]],[[595.61718,593],[6.8054,0],[-2.48058,0]],[[587.61718,593],[2.40395,0.50364],[-0.50743,-0.10631]],[[585.44122,592.1748],[0.71481,0.32365],[1.30749,1.01011]],[[582.51161,594.78885],[1.25365,-0.62682],[-0.98239,0.4912]]],&quot;closed&quot;:true}],&quot;index&quot;:null}" fill="#484848" stroke="none" stroke-linecap="butt"/><path d="M52.53909,294.07938c0,0.55791 1.8932,1.23412 0.94957,1.67589c2.41352,0.0747 4.84129,0.23779 6.99799,0.56196c8.3153,1.24986 25.23084,5.80423 26.82582,8.8152c0.12967,0.24492 -2.2217,0.28583 -1.82348,0.50302c1.32503,0.72267 12.1233,-0.53325 13.36536,-0.32801c0.2811,0.04646 0.4192,0.11882 0.47449,0.20685c-0.05784,-0.27352 -0.1108,-0.53794 -0.1108,-0.7043c0,-0.58476 0.07682,-1.21496 -0.79311,-1.73801c-7.39469,-4.61011 -19.47646,-8.99263 -40.39421,-8.99263c0,0 -2.46844,-0.00001 -4.09556,-0.49749c-0.54263,-0.09267 -0.96451,-0.20163 -1.24741,-0.32943c-0.07269,0.31493 -0.14875,0.63551 -0.14875,0.82694zM99.21811,306.46087c0.37481,0.33801 0.26423,-0.22303 0.13969,-0.80993c-0.02608,0.25472 -0.3959,0.57897 -0.13969,0.80993zM108.24869,301.59543c6.82853,4.10551 -8.67627,10.10399 -22.75971,7.34176c-13.28785,-2.60617 -17.78746,-7.84404 -29.91415,-9.66675c-4.09681,-0.61579 -9.00587,-0.95195 -12.06631,-1.97643c-4.8499,-1.62354 -2.69998,-7.16751 6.5746,-7.16751c6.67832,0 9.96769,0.65113 16.18509,0.65113h2.7458c0,0 3.152,0 4.68014,0.71787c16.26725,1.59629 26.70579,5.65194 34.5545,10.09991z" data-paper-data="{&quot;index&quot;:null}" fill="#000000" stroke="none" stroke-linecap="butt"/><path d="M52.484,293.1971c0.28269,0.12779 0.70489,0.23673 1.24752,0.32943c1.62707,0.49749 4.10674,0.49397 4.10674,0.49397c20.91769,0 33.43559,4.47947 40.83024,9.08959c0.86998,0.52303 0.76912,1.16473 0.76912,1.74948c0,0.16637 0.04276,0.43458 0.10062,0.7081c-0.05521,-0.08808 -0.19198,-0.16085 -0.47315,-0.20735c-1.24214,-0.20522 -12.13389,1.07239 -13.45891,0.34974c-0.39823,-0.21721 1.69236,-0.40309 1.56253,-0.64802c-1.59491,-3.01096 -18.59211,-7.54221 -26.9075,-8.79209c-2.15672,-0.32418 -4.59845,-0.48056 -7.01199,-0.55525c0.9436,-0.44181 -0.92708,-1.12818 -0.92708,-1.68608c0,-0.19142 0.08876,-0.5166 0.16163,-0.83152z" data-paper-data="{&quot;noHover&quot;:false,&quot;origItem&quot;:[&quot;Path&quot;,{&quot;applyMatrix&quot;:true,&quot;segments&quot;:[[[607.563,601.99816],[0.02649,0.38155],[-0.10299,0.15484]],[[607.10872,602.39727],[0.1976,-0.11227],[-0.59254,0.60273]],[[605.61718,603],[0,0],[-7.618,0]],[[590.90604,613.89443],[2.69308,-5.58508],[-0.31682,0.63364]],[[590.61718,616],[0,-0.70843],[0,0.20156]],[[590.57685,616.85325],[0.02106,-0.33136],[0.02013,-0.10671]],[[590.74964,616.60263],[-0.10238,0.05628],[0.45234,-0.24865]],[[595.61718,617],[-0.48256,0.87548],[0.14503,-0.26312]],[[594.95308,616.3906],[-0.04725,0.29671],[0.58086,-3.64773]],[[604.72276,605.71115],[-3.02833,1.51416],[0.78545,-0.39273]],[[607.27135,605.03032],[-0.87898,0.0905],[-0.34365,-0.53523]],[[607.61718,603],[0,0.6759],[0,-0.23192]]],&quot;closed&quot;:true}],&quot;index&quot;:null}" fill="#ffffff" stroke="none" stroke-linecap="butt"/></g><g fill-rule="nonzero" stroke-width="1"><path d="M409.90375,182.12027l-20.98225,-39.72762l99.66579,0.35157l35.66983,39.37604z" data-paper-data="{&quot;index&quot;:null}" fill="#cedce9" stroke="#000000" stroke-linecap="round"/><path d="M533.73723,180.05572c-2.69741,0.43549 -5.34924,0.68463 -7.97455,0.8643c0.01777,0.06688 0.02698,0.13668 0.02698,0.20947c0,1.77311 -5.49164,1.77311 -5.49164,1.77311c-24.25481,0 -48.50953,0 -72.76436,0c-6.24146,0 -21.77182,-0.80442 -26.37522,0.25609c-2.65163,0.61087 -4.54992,0.55042 -7.94761,0.63045c-0.38354,0.00904 -1.08106,0.02837 -1.69736,0.04026c3.28547,0.7573 1.69736,7.75575 1.69736,9.71193c0,8.27459 0,16.5492 0,24.82379c0,1.47758 0,2.95524 0,4.43281c0,0.59103 -0.96586,2.2752 0,1.77311c3.67473,-1.91013 10.84624,-0.88314 19.22078,-0.88656c16.50808,-0.00674 34.18173,-0.57674 50.3952,0.38214c29.60695,1.91186 61.43911,-1.14272 90.80975,0.98739c24.73678,1.99673 54.34799,2.17667 79.83381,2.17667c6.40698,0 12.81387,0 19.22084,0c0.96399,0 2.47756,-0.04191 4.04463,-0.08787c-1.57638,-0.90959 0.07413,-3.10924 0.07413,-4.34496c0,-4.61642 4.79266,-12.5797 -1.09108,-16.72726c-5.19947,-5.03638 -8.48857,-9.88543 -16.9701,-14.90822c-6.25792,-3.70602 -15.99964,-6.99106 -21.17741,-10.6724c-2.51018,-2.19405 -4.75737,-0.62598 -12.93198,-1.13375c-18.08832,-1.12358 -36.23002,-0.88656 -54.91651,-0.88656c-6.81136,0 -15.36584,0.44653 -21.96665,0c-1.39337,-0.09424 -4.01201,-0.44463 -5.97482,-0.73161c3.59011,0.89553 -4.60192,1.76183 -8.04421,2.31756zM447.53342,179.35633c18.33103,0 36.66208,0 54.99304,0c0.52883,-0.08536 1.05749,-0.17073 1.58628,-0.25609c6.96521,-1.12445 13.25358,-0.82647 19.22084,-1.32985c8.13216,-0.686 12.99638,-2.99631 21.38687,-3.54625c4.81997,-0.31589 18.16978,0.69937 25.00227,0.69937c18.52655,0 37.0328,-0.34204 54.91647,0.88657c10.04632,0.69018 18.53667,-0.65535 23.23487,3.45118c0.69258,1.55993 6.23599,2.53491 9.13534,3.7349c4.43093,1.83387 8.13438,4.54988 11.56304,6.58033c8.49967,5.03357 12.23695,10.21078 17.5661,15.37273c4.76241,5.4411 1.65472,12.1883 1.65472,17.84872c0,3.12939 1.52753,5.33502 -5.49164,7.97909c-2.44773,0.92202 -25.0605,0 -28.83113,0c-26.28744,0 -57.0024,-0.22463 -82.49768,-2.2826c-28.00882,-2.64335 -61.34918,0.91915 -90.29995,-0.95036c-23.32968,-1.69667 -59.33996,2.82313 -78.44523,-2.973c-1.89151,-0.57387 0,-5.26108 0,-6.20595c0,-8.27459 0,-16.54916 0,-24.82377c0,-2.76649 -3.777,-9.37168 1.95275,-11.43177c9.99888,-3.59507 28.71181,-2.75327 43.35325,-2.75327z" data-paper-data="{&quot;index&quot;:null}" fill="#000000" stroke="none" stroke-linecap="butt"/><path d="M525.6861,180.83483c2.62521,-0.17965 5.30906,-0.43117 8.00658,-0.86665c3.44231,-0.55572 11.66686,-1.42307 8.07669,-2.3186c1.96281,0.28696 4.60327,0.6373 5.9965,0.73159c6.60085,0.44653 15.23189,0.00445 22.04313,0.00445c18.68636,0 36.94585,-0.21216 55.03414,0.91142c8.17462,0.50777 10.43883,-1.05356 12.949,1.14049c5.17785,3.68132 14.96067,6.99277 21.21866,10.69881c8.48149,5.02279 11.78187,9.90549 16.98136,14.94188c5.88388,4.14759 1.06533,12.14155 1.06533,16.75796c0,1.23574 -1.66078,3.44164 -0.08436,4.35124c-1.56702,0.04596 -3.08267,0.08899 -4.04671,0.08899c-6.40695,0 -12.82505,0.00556 -19.23203,0.00556c-25.48599,0 -55.2174,-0.14906 -79.95419,-2.14581c-29.37069,-2.13008 -61.4938,0.90731 -91.10078,-1.00459c-16.21345,-0.95891 -33.93708,-0.40914 -50.44518,-0.40241c-8.37449,0.00343 -15.55249,-1.02738 -19.22725,0.88276c-0.96586,0.50205 -0.00414,-1.18475 -0.00414,-1.77579c0,-1.47758 -0.00938,-2.9624 -0.00938,-4.43999c0,-8.27459 -0.01144,-16.5984 -0.01144,-24.87301c0,-1.95616 1.60481,-8.97159 -1.6807,-9.72893c0.6164,-0.01189 1.31449,-0.03167 1.69798,-0.04071c3.39759,-0.08001 5.30021,-0.02252 7.95178,-0.63342c4.60336,-1.06051 20.14788,-0.26433 26.38929,-0.26433c24.25492,0 48.63895,-0.03525 72.89366,-0.03525c0,0 5.51859,-0.00304 5.51859,-1.77615c0,-0.07278 -0.00855,-0.1426 -0.02634,-0.20951z" data-paper-data="{&quot;noHover&quot;:false,&quot;origItem&quot;:[&quot;Path&quot;,{&quot;applyMatrix&quot;:true,&quot;segments&quot;:[[[579.60736,595.76373],[0.95609,-0.20262],[0.00646,0.07548]],[[579.61718,596],[0,-0.08208],[0,2]],[[577.61718,598],[0,0],[-8.83333,0]],[[551.11718,598],[8.83333,0],[-2.27308,0]],[[541.51161,598.28885],[1.67648,-1.19621],[-0.96568,0.68904]],[[538.61718,599],[1.23739,-0.09027],[-0.13966,0.01019]],[[537.99901,599.04541],[0.22447,-0.0134],[1.19653,0.85421]],[[538.61718,610],[0,-2.20646],[0,9.33333]],[[538.61718,638],[0,-9.33333],[0,1.66667]],[[538.61718,643],[0,-1.66667],[0,0.66667]],[[538.61718,645],[-0.35177,0.56631],[1.33831,-2.15456]],[[545.61718,644],[-3.04994,0.00386],[6.01206,-0.00761]],[[563.97058,644.43107],[-5.90478,-1.08158],[10.78253,2.15651]],[[597.04254,645.54479],[-10.6965,-2.40266],[9.00888,2.25222]],[[626.11718,648],[-9.28168,0],[2.33333,0]],[[633.11718,648],[-2.33333,0],[0.35109,0]],[[634.59021,647.90091],[-0.5707,0.05184],[-0.57412,-1.02596]],[[634.61718,643],[0,1.39387],[0,-5.20707]],[[634.21982,624.13246],[2.14282,4.67827],[-1.8936,-5.6808]],[[628.03948,607.31672],[3.08887,5.66543],[-2.2791,-4.1802]],[[620.32688,595.27881],[1.8857,4.15235],[-0.91417,-2.47477]],[[615.61718,594],[2.9771,0.57275],[-6.58756,-1.26734]],[[595.61718,593],[6.8054,0],[-2.48058,0]],[[587.61718,593],[2.40395,0.50364],[-0.50743,-0.10631]],[[585.44122,592.1748],[0.71481,0.32365],[1.30749,1.01011]],[[582.51161,594.78885],[1.25365,-0.62682],[-0.98239,0.4912]]],&quot;closed&quot;:true}],&quot;index&quot;:null}" fill="#484848" stroke="none" stroke-linecap="butt"/><path d="M602.67267,187.33537c0,-0.2056 -0.07607,-0.54993 -0.14877,-0.88818c-0.28285,0.13725 -0.70483,0.25432 -1.24741,0.35384c-1.62707,0.53434 -4.09555,0.53436 -4.09555,0.53436c-20.91774,0 -32.99946,4.70707 -40.39418,9.6586c-0.86994,0.56177 -0.7931,1.23864 -0.7931,1.86671c0,0.17869 -0.05291,0.4627 -0.11074,0.75646c0.0553,-0.09458 0.19337,-0.17228 0.47445,-0.22217c1.24212,-0.22042 12.04031,1.12849 13.36534,0.3523c0.39822,-0.23329 -1.95316,-0.27721 -1.82349,-0.54026c1.59501,-3.23395 18.51057,-8.1256 26.82582,-9.46803c2.15663,-0.34819 4.58443,-0.52337 6.99795,-0.60358c-0.94361,-0.4745 0.94957,-1.20076 0.94957,-1.8zM555.85393,199.76391c-0.12453,0.63037 -0.23506,1.23295 0.13971,0.86991c0.25619,-0.24807 -0.11368,-0.59634 -0.13971,-0.86991zM546.96316,195.40807c7.84871,-4.77737 18.28731,-9.13337 34.5545,-10.84788c1.52806,-0.77104 4.68014,-0.77104 4.68014,-0.77104h2.7458c6.21741,0 9.50675,-0.69936 16.18509,-0.69936c9.27454,0 11.42446,5.95449 6.57459,7.6983c-3.06045,1.10036 -7.96947,1.46142 -12.06632,2.1228c-12.12676,1.95774 -16.62633,7.58347 -29.91414,10.38267c-14.08345,2.96675 -29.58821,-3.47595 -22.75967,-7.88547z" data-paper-data="{&quot;index&quot;:null}" fill="#000000" stroke="none" stroke-linecap="butt"/><path d="M602.72789,186.38778c0.07289,0.33825 0.16163,0.68751 0.16163,0.89311c0,0.59922 -1.87068,1.33643 -0.92707,1.81095c-2.41355,0.08023 -4.85526,0.2482 -7.01199,0.59638c-8.31538,1.34241 -25.31252,6.20923 -26.9075,9.44317c-0.12983,0.26308 1.96077,0.46273 1.56255,0.69602c-1.32504,0.77619 -12.2168,-0.59604 -13.45892,-0.37564c-0.28121,0.04991 -0.41797,0.12807 -0.47316,0.22271c0.05784,-0.29378 0.10062,-0.58187 0.10062,-0.76056c0,-0.62806 -0.10078,-1.31724 0.76913,-1.87901c7.39464,-4.95155 19.91251,-9.76276 40.83023,-9.76276c0,0 2.47967,0.00381 4.10674,-0.53055c0.54263,-0.09954 0.96478,-0.21653 1.24752,-0.35381z" data-paper-data="{&quot;noHover&quot;:false,&quot;origItem&quot;:[&quot;Path&quot;,{&quot;applyMatrix&quot;:true,&quot;segments&quot;:[[[607.563,601.99816],[0.02649,0.38155],[-0.10299,0.15484]],[[607.10872,602.39727],[0.1976,-0.11227],[-0.59254,0.60273]],[[605.61718,603],[0,0],[-7.618,0]],[[590.90604,613.89443],[2.69308,-5.58508],[-0.31682,0.63364]],[[590.61718,616],[0,-0.70843],[0,0.20156]],[[590.57685,616.85325],[0.02106,-0.33136],[0.02013,-0.10671]],[[590.74964,616.60263],[-0.10238,0.05628],[0.45234,-0.24865]],[[595.61718,617],[-0.48256,0.87548],[0.14503,-0.26312]],[[594.95308,616.3906],[-0.04725,0.29671],[0.58086,-3.64773]],[[604.72276,605.71115],[-3.02833,1.51416],[0.78545,-0.39273]],[[607.27135,605.03032],[-0.87898,0.0905],[-0.34365,-0.53523]],[[607.61718,603],[0,0.6759],[0,-0.23192]]],&quot;closed&quot;:true}],&quot;index&quot;:null}" fill="#ffffff" stroke="none" stroke-linecap="butt"/></g><g><path d="M16.22701,333.81919l-26.15882,-101.68697l114.05592,-31.72133l-24.23753,-92.13215l264.57519,-74.46232l5.34421,-14.36503l143.82152,-42.08577l7.12411,-2.72814l61.69477,220.05011l-244.26775,66.4699l-0.24597,-7.80926z" fill="#67708d" fill-rule="nonzero" stroke="#000000" stroke-width="1" stroke-linecap="round"/><path d="M10.62974,297.19613l299.11342,-80.55286l10.11608,37.25578l-299.6908,79.37172z" fill="#374c6f" fill-rule="nonzero" stroke="#000000" stroke-width="1" stroke-linecap="round"/><path d="M263.72578,191.81663l1.49439,-0.4125l0.24906,-0.06876l2.19878,0.19721z" fill="#9e8142" fill-rule="evenodd" stroke="none" stroke-width="1" stroke-linecap="butt"/><path d="M353.3638,194.05382c0.42995,0.22773 0.52807,0.58322 0.2942,1.06589c-0.39732,-0.26543 -0.49544,-0.62093 -0.2942,-1.06589z" fill="#fefffe" fill-rule="evenodd" stroke="none" stroke-width="1" stroke-linecap="butt"/><path d="M317.79623,261.50176l-39.56545,-141.60904l47.82444,-67.1474l74.25797,30.34613l6.35998,25.63545l122.05582,-35.60041l34.49141,122.36196z" fill="#727681" fill-rule="nonzero" stroke="#000000" stroke-width="1" stroke-linecap="round"/><path d="M340.37411,255.09062l-31.45359,-113.9508l2.27013,-9.93597l4.9398,-8.04717l7.21904,-8.43759l6.27868,-5.79102l11.02888,-3.28299l11.49558,-2.457l13.75279,3.12619l11.62716,7.53216l6.38017,7.54824l6.93224,16.46652l28.17734,96.89284z" fill="#56505e" fill-rule="nonzero" stroke="#000000" stroke-width="1" stroke-linecap="round"/><path d="M374.00803,116.31435l30.2184,103.40529l-69.37337,18.81387l-26.42098,-96.93264l2.48484,-7.38848z" fill="#8c908f" fill-rule="nonzero" stroke="#000000" stroke-width="1" stroke-linecap="round"/><path d="M374.3174,135.64691l-59.37602,17.39483l-4.03995,-14.636l59.40843,-16.06325z" fill="#45a3ac" fill-rule="nonzero" stroke="#000000" stroke-width="1" stroke-linecap="round"/><path d="M395.32767,207.51398l-8.7623,2.25106l-19.02272,-65.88064l9.80924,-2.70762z" fill="#45a3ac" fill-rule="nonzero" stroke="#000000" stroke-width="1" stroke-linecap="round"/><path d="M342.9471,220.50629l-8.49386,2.00942l-17.27759,-65.02184l8.39171,-2.9866z" fill="#45a3ac" fill-rule="nonzero" stroke="#000000" stroke-width="1" stroke-linecap="round"/><path d="M329.07349,154.46108l33.84655,-8.50475l20.38766,73.25377l-32.10139,9.36358l-20.72602,-73.87254z" fill="#ffb600" fill-rule="nonzero" stroke="#000000" stroke-width="1" stroke-linecap="round"/><path d="M286.74083,149.85035l-0.47766,1.30481l-315.11021,86.64409l-5.96606,-5.22337l320.02735,-89.34186z" fill="#d0ced0" fill-rule="nonzero" stroke="#000000" stroke-width="1" stroke-linecap="round"/><path d="M326.4612,53.05114l-55.81758,78.24417l-7.00317,-10.80188l61.09032,-77.35368l91.95794,34.01892l-5.44807,11.22262z" fill="#d0ced0" fill-rule="nonzero" stroke="#000000" stroke-width="1" stroke-linecap="round"/><path d="M385.83116,65.98728l-13.02236,-47.17774l107.266,-29.94353l14.93526,56.53606l-92.48138,27.37065z" fill="#393b64" fill-rule="nonzero" stroke="#000000" stroke-width="1" stroke-linecap="round"/><path d="M407.82254,71.31148l-16.15977,-58.54398l72.28876,-19.78615l15.92866,57.09969l-73.00259,21.44939" fill="#0024ff" fill-rule="nonzero" stroke="#000000" stroke-width="1" stroke-linecap="round"/><path d="M344.36146,33.99278l-279.56149,78.84242l-11.60942,-6.84939l234.52713,-67.91976l0.10291,5.83638l48.2555,-13.82255l4.28765,-15.42656l179.4167,-52.37261l-3.25769,9.44505l-167.03593,47.44709z" fill="#d0ced0" fill-rule="nonzero" stroke="#000000" stroke-width="1" stroke-linecap="round"/><path d="M422.3533,116.06209l68.71815,-19.97351l20.18841,69.49667l-70.84444,19.55504z" fill="#00ff06" fill-rule="nonzero" stroke="#000000" stroke-width="1" stroke-linecap="round"/><path d="M98.14798,210.4112l0.44674,7.08198l23.19274,88.27253l-87.16641,23.55765l-23.94542,-94.64169z" fill="#838a99" fill-rule="nonzero" stroke="#000000" stroke-width="1" stroke-linecap="round"/><path d="M16.43832,244.02462l79.71948,-22.0048l22.57462,84.21212l-80.87913,22.66001z" fill="#555e7f" fill-rule="nonzero" stroke="#000000" stroke-width="1" stroke-linecap="round"/><path d="M23.07507,246.21426l71.42429,-19.88267l1.89669,8.69255l-70.73172,19.35637z" fill="#ffb600" fill-rule="nonzero" stroke="#000000" stroke-width="1" stroke-linecap="round"/><path d="M286.09766,157.2332l27.12994,98.28694l-173.81215,45.96622l-24.44475,-94.62954z" fill="#838a99" fill-rule="nonzero" stroke="#000000" stroke-width="1" stroke-linecap="round"/><path d="M143.92939,299.77958l-22.7143,-84.71814l164.44007,-46.22787l23.60063,87.32211z" fill="#555e7f" fill-rule="nonzero" stroke="#000000" stroke-width="1" stroke-linecap="round"/><path d="M128.7082,217.01467l153.19464,-42.95625l1.40283,9.33157l-152.61886,42.46219z" fill="#ffb600" fill-rule="nonzero" stroke="#000000" stroke-width="1" stroke-linecap="round"/><path d="M255.74201,119.19662l-122.95791,35.3362l-13.83368,-50.72401l121.8004,-35.12839z" fill="#393b64" fill-rule="nonzero" stroke="#000000" stroke-width="1" stroke-linecap="round"/><path d="M151.15557,149.00096l-14.05384,-50.91459l85.55019,-23.94937l12.45384,51.18865z" fill="#ba00ff" fill-rule="nonzero" stroke="#000000" stroke-width="1" stroke-linecap="round"/><path d="M312.48164,49.71331c0.9447,0.53276 1.47871,-0.41559 1.47871,-0.41559c3.69511,-6.5675 11.61152,-11.05357 19.21556,-9.41117c3.35989,0.7257 6.10981,3.03821 9.15781,4.37278c6.61023,2.65974 9.55152,15.03686 6.09256,20.8988c-1.32993,2.25383 -3.70918,3.69666 -6.02071,4.96333c-1.58514,0.26255 -3.16747,1.0073 -4.80743,1.09472c-2.121,0.68557 -4.35435,1.25208 -6.51586,1.91279c-7.35507,-1.20837 -13.67416,-8.54578 -16.71929,-15.26134c-1.28595,-2.88692 -3.38414,-5.94232 -2.35569,-8.6354c0.08076,0.17195 0.22649,0.34133 0.47433,0.48111z" data-paper-data="{&quot;noHover&quot;:false,&quot;origItem&quot;:[&quot;Path&quot;,{&quot;applyMatrix&quot;:true,&quot;segments&quot;:[[[521.95838,341.96483],[-0.01667,0.21389],[-2.51251,2.06985]],[[519.4768,351.72196],[0.34861,-3.5517],[-0.75818,8.29192]],[[527.33632,375.91087],[-6.54613,-5.29068],[2.49065,0.55761]],[[534.76312,377.65449],[-2.46476,-0.51055],[1.65872,0.82936]],[[540.0653,379.26158],[-1.70264,-0.62682],[2.97607,0.04647]],[[548.70522,377.76236],[-2.56331,1.47041],[6.66685,-3.82437]],[[554.34307,353.96499],[5.00498,6.29984],[-2.24748,-3.01103]],[[547.83272,344.6127],[2.89338,2.58736],[-6.5483,-5.85572]],[[523.83701,343.12089],[7.2924,-4.38522],[0,0]],[[522.15667,342.70081],[0.63012,1.05021],[-0.1653,-0.2755]]],&quot;closed&quot;:true}]}" fill="#ffffff" fill-rule="nonzero" stroke="#000000" stroke-width="2" stroke-linecap="butt"/><path d="M284.77591,68.98519c0,0 -0.39986,1.00156 0.60771,1.40301c1.00755,0.40145 1.23762,-0.6505 1.23762,-0.6505c1.24606,-3.12816 2.51118,-7.31903 4.87112,-9.77825c1.09709,-1.14327 2.33267,-0.77778 3.75446,-1.27221c4.4046,-1.5318 9.15915,-0.74589 13.08141,1.865c1.21389,0.93238 2.77759,1.47924 3.79106,2.63156c6.93728,7.88791 4.31006,18.49185 -1.3849,25.75472c-10.32076,5.72793 -24.0304,-7.617 -26.91693,-16.98742c-0.06468,-1.15436 -0.52979,-3.0972 -0.01019,-4.20335c0.61746,-1.31446 1.70205,-2.28765 2.70488,-3.27218c-0.64558,1.57035 -1.1892,3.13705 -1.73625,4.50967z" data-paper-data="{&quot;noHover&quot;:false,&quot;origItem&quot;:[&quot;Path&quot;,{&quot;applyMatrix&quot;:true,&quot;segments&quot;:[[[488.3096,342.53923],[-1.51011,1.18134],[-1.53391,0.40687]],[[483.9403,344.40615],[1.33969,-0.94584],[-1.12739,0.79595]],[[481.61976,348.52197],[0.58067,-1.16933],[-2.39539,10.80972]],[[498.48043,380.05978],[-13.32827,-0.13636],[9.64373,-3.9519]],[[514.1197,355.67768],[2.40851,11.61483],[-0.35185,-1.69676]],[[511.87957,351.00633],[0.67137,1.5927],[-2.39344,-4.75186]],[[500.14885,341.91879],[5.17877,0.9542],[-1.67168,-0.30801]],[[495.77608,341.07281],[1.715,-0.51012],[-3.68906,1.09729]],[[485.59672,347.92601],[2.96891,-2.37555],[0,0]],[[483.87527,347.73474],[0.76509,0.95636],[-0.76509,-0.95636]],[[484.06654,346.01329],[0,0],[1.30299,-1.04221]]],&quot;closed&quot;:true}]}" fill="#ffffff" fill-rule="nonzero" stroke="#000000" stroke-width="2" stroke-linecap="butt"/><path d="M289.29485,72.90033c-0.7251,-1.27558 -0.27883,-2.89743 0.99672,-3.62253c1.27558,-0.7251 2.89743,-0.27882 3.62253,0.99672c0.7251,1.27558 0.27886,2.89743 -0.99672,3.62255c-1.27558,0.7251 -2.89743,0.27883 -3.62254,-0.99674z" fill="#000000" fill-rule="nonzero" stroke="none" stroke-width="0.5" stroke-linecap="butt"/><path d="M342.12371,53.69072c-0.7251,-1.27558 -0.27883,-2.89743 0.99672,-3.62253c1.27558,-0.7251 2.89743,-0.27882 3.62253,0.99672c0.7251,1.27558 0.27886,2.89743 -0.99672,3.62255c-1.27558,0.7251 -2.89743,0.27883 -3.62254,-0.99674z" fill="#000000" fill-rule="nonzero" stroke="none" stroke-width="0.5" stroke-linecap="butt"/><path d="M208.83881,30.99861c0.50032,-0.2844 0.88471,-0.14742 1.13339,0.04042c2.86315,-0.58571 5.96379,-0.16021 8.87231,-0.09852c3.52252,0.07471 7.36289,-0.2691 10.84621,0.23824c11.1176,1.61932 22.27758,6.31684 33.18792,9.05922c7.18735,1.80679 14.49092,5.01551 21.73714,6.31266c4.49681,0.80497 9.74148,0.49089 14.34006,0.81773c0,0 1.06898,0.07614 0.99283,1.14511c-0.07616,1.06898 -1.14512,0.99283 -1.14512,0.99283c-4.67086,-0.3334 -9.97273,-0.03013 -14.54562,-0.84239c-7.30545,-1.29761 -14.66035,-4.52685 -21.90186,-6.34723c-10.83579,-2.7243 -21.93474,-7.40897 -32.97426,-9.01692c-3.39298,-0.49418 -7.15031,-0.14352 -10.58273,-0.21634c-2.89617,-0.06144 -6.16894,-0.61658 -8.96623,0.18974l-1.39605,-0.81325c0,0 -0.52961,-0.93169 0.40206,-1.46127z" fill="#000000" fill-rule="nonzero" stroke="none" stroke-width="0.5" stroke-linecap="butt"/><path d="M348.56016,-57.63708c0.90681,0.57115 0.33565,1.47796 0.33565,1.47796l-0.44191,0.64785c-2.78117,8.10986 -5.56237,16.21974 -8.34354,24.32961c-4.76214,13.88185 -10.57737,27.4768 -15.89039,41.15816c-3.36182,8.65689 -6.35951,17.57982 -10.47024,25.90844c-1.34373,2.72252 -2.54742,7.07143 -5.15766,8.67502c0,0 -0.93169,0.5296 -1.46128,-0.40207c-0.5296,-0.93169 0.40207,-1.46128 0.40207,-1.46128c1.96736,-0.96185 3.31819,-5.7815 4.29486,-7.7603c4.08256,-8.27155 7.05546,-17.13807 10.39427,-25.7357c5.3025,-13.65426 11.11104,-27.22229 15.86091,-41.07755c2.78117,-8.10986 5.56235,-16.21974 8.34353,-24.32961l0.65577,-1.09488c0,0 0.57114,-0.90682 1.47795,-0.33565z" fill="#000000" fill-rule="nonzero" stroke="none" stroke-width="0.5" stroke-linecap="butt"/><path d="M359.77854,59.5323c0.33912,0.05435 0.5299,0.37582 0.5299,0.37582c4.512,7.60326 4.80982,16.85946 4.94471,25.49686c0.20689,5.80898 1.20426,13.39285 -2.99122,18.1581c-2.095,2.3795 -5.00777,4.17704 -7.52558,6.06362c-7.83472,5.85838 -18.39887,8.82141 -27.71087,11.39209c-10.07428,2.78079 -19.58603,5.2689 -30.13035,5.0401c-3.51816,-0.07788 -7.26093,0.50723 -10.739,-0.12623c-6.83174,-1.24428 -11.40837,-4.96348 -16.7877,-8.85079c-2.21932,-1.46578 -2.97438,-4.21729 -3.04886,-6.83271c-0.09327,-3.27478 1.51038,-6.12616 2.2311,-9.20625c1.03852,-4.43822 1.68103,-8.80405 3.03734,-13.17443c1.28479,-4.08439 0.93962,-8.54487 2.0393,-12.61491c0.13718,-0.50777 0.85104,-3.49207 1.49795,-3.5926c1.1193,-0.17394 1.57225,1.49704 1.97988,2.06551c1.68662,2.3521 3.30081,4.73927 5.03115,7.08814c6.15042,6.41696 16.81166,12.43319 25.97978,11.83591c9.80862,-1.51164 18.58641,-3.13065 27.37992,-7.9501c4.67585,-3.6725 7.52672,-8.02177 11.46232,-12.34484c2.44068,-2.68096 5.60569,-4.33682 7.63492,-7.43365c0.74493,-2.15449 0.637,-5.04727 1.92342,-6.94725c0.32916,-0.48614 1.33031,-1.92851 2.2185,-1.41809c0.53788,0.30911 0.46026,1.15301 0.65631,1.74162c0.13571,0.40743 0.26163,0.82043 0.38706,1.23407zM361.4217,65.97637c-0.26078,-0.08669 -0.41509,-0.31659 -0.41509,-0.31659l-0.49936,-0.74442c-0.8018,-1.09906 -2.78855,-4.5751 -2.60016,-6.37462c-0.0503,0.1073 -0.10036,0.20317 -0.14152,0.26477c-0.29522,0.44158 -0.39147,0.99272 -0.5029,1.51206c-0.38381,1.78884 -0.71654,3.5391 -1.32379,5.26716c-2.12708,3.25072 -5.32396,4.98247 -7.87133,7.78064c-4.01822,4.41383 -6.95381,8.84863 -11.7446,12.58653c-8.98117,4.9744 -18.00851,6.65358 -28.04651,8.19006c-9.71082,0.57439 -20.76525,-5.52866 -27.28782,-12.36151c-1.22062,-1.64994 -2.08938,-3.44263 -3.23739,-5.11044c-0.13283,-0.19298 -1.61498,-1.71227 -2.21296,-2.70291c-0.28373,1.25825 -1.15249,3.5008 -1.23553,3.82865c-0.8461,3.34065 -0.23569,7.10702 -1.28212,10.5174c-1.34744,4.34076 -1.97788,8.6775 -3.01276,13.08569c-0.59734,2.54446 -1.67495,4.81356 -2.05434,7.4337c-0.34113,2.35595 0.11973,5.69957 2.25905,7.00942c5.20605,3.77677 9.58253,7.37977 16.20007,8.61284c3.38929,0.63154 7.0837,0.02852 10.51569,0.10449c10.3966,0.23495 19.76589,-2.24485 29.69802,-4.9864c9.11409,-2.51544 19.55087,-5.39426 27.21052,-11.14656c2.42338,-1.81582 5.24789,-3.5435 7.27401,-5.82504c3.91812,-4.41205 2.83375,-11.7876 2.64274,-17.15787c-0.10111,-6.44865 -0.26168,-13.29373 -2.33193,-19.46701z" fill="#000000" fill-rule="nonzero" stroke="none" stroke-width="0.5" stroke-linecap="butt"/><path d="M363.80308,85.4359c0.191,5.37027 1.2748,12.76395 -2.64332,17.17598c-2.02611,2.28154 -4.85325,4.01763 -7.27664,5.83346c-7.65967,5.7523 -18.12387,8.65842 -27.23797,11.17386c-9.93213,2.74155 -19.34563,5.21806 -29.74225,4.98311c-3.43199,-0.07598 -7.13491,0.52072 -10.52421,-0.11083c-6.61756,-1.23309 -11.00467,-4.85014 -16.21073,-8.62692c-2.13931,-1.30985 -2.60298,-4.66013 -2.26184,-7.01608c0.37938,-2.62016 1.45526,-4.8959 2.0526,-7.44034c1.03489,-4.40818 1.66471,-8.75938 3.01214,-13.10013c1.04642,-3.41039 0.43874,-7.18856 1.28483,-10.5292c0.08304,-0.32787 0.95352,-2.5746 1.23726,-3.83286c0.59798,0.99065 2.17151,2.55055 2.30434,2.74352c1.14801,1.6678 2.01841,3.45606 3.23903,5.106c6.52256,6.83286 17.57845,12.91155 27.28925,12.33716c10.03799,-1.53645 18.9687,-3.19068 27.94988,-8.16509c4.79077,-3.73788 7.73098,-8.16265 11.7492,-12.57646c2.54737,-2.79816 5.7457,-4.52765 7.8728,-7.77837c0.60726,-1.72806 0.94201,-3.47553 1.32581,-5.26437c0.11142,-0.51934 0.20818,-1.06983 0.50339,-1.51142c0.04119,-0.06161 0.16898,-0.22036 0.21929,-0.32765c-0.18837,1.7995 1.80196,5.28064 2.6038,6.37971l0.49981,0.74515c0,0 0.15453,0.2303 0.41532,0.317c2.07026,6.17331 2.23712,13.03616 2.33824,19.48481z" data-paper-data="{&quot;noHover&quot;:false,&quot;origItem&quot;:[&quot;Path&quot;,{&quot;applyMatrix&quot;:true,&quot;segments&quot;:[[[838.25604,245.98109],[0.70609,13.00322],[-0.45665,-0.30589]],[837.62427,245.14984],[[837.05771,243.44893],[0,0],[-0.96094,-2.54558]],[[835.43712,229.77562],[-1.32078,3.36901],[-0.15408,0.18011]],[[835.02336,230.21075],[0.11219,-0.09685],[-0.80412,0.69422]],[[833.24918,232.85825],[0.4912,-0.94195],[-1.69189,3.24446]],[[827.8941,242.30837],[2.09032,-3.00838],[-5.83071,5.13512]],[[808.5784,253.11993],[6.40015,-4.039],[-10.09557,6.3711]],[[779.23799,271.13558],[11.22527,-4.65685],[-19.96201,4.81079]],[[720.80866,272.0001],[20.16991,2.37964],[-19.02719,-4.06027]],[[674.7786,233.64696],[8.93873,16.64408],[-1.4752,-3.83047]],[[671.25678,222.07174],[1.32573,3.82629],[-0.1534,-0.44273]],[[668.42877,215.68312],[0.62568,2.2281],[-1.2166,2.27481]],[[664.00934,222.40691],[0.33458,-0.58792],[-3.40892,5.99021]],[[655.94063,242.00115],[3.83226,-6.01801],[-4.90769,7.6515]],[[643.16871,265.62581],[4.34099,-7.94783],[-2.50569,4.58761]],[[635.25225,278.86404],[2.12573,-4.8495],[-1.91139,4.36051]],[[635.8774,293.57967],[-3.42733,-3.6637],[8.02694,10.05167]],[[662.52622,318.80534],[-12.1018,-5.89881],[6.19815,3.02118]],[[682.74387,324.60278],[-6.57613,-1.97284],[19.91863,5.98557]],[[742.65234,330.79344],[-20.60711,0],[18.90969,0.0006]],[[801.0433,323.78416],[-17.82821,7.01376],[5.63835,-2.21112]],[[818.16671,316.42494],[-5.12029,3.32038],[9.90165,-6.42096]],[[832.39231,284.75259],[-2.48956,10.45502],[3.23675,-12.48619]]],&quot;closed&quot;:true}]}" fill="#870000" fill-rule="nonzero" stroke="none" stroke-width="0.5" stroke-linecap="butt"/></g></g></g></svg>