<svg version="1.1" xmlns="http://www.w3.org/2000/svg" xmlns:xlink="http://www.w3.org/1999/xlink" width="1733.09309" height="836.33634" viewBox="0,0,1733.09309,836.33634"><g transform="translate(546.54655,238.16817)"><g data-paper-data="{&quot;isPaintingLayer&quot;:true}" stroke-linejoin="miter" stroke-miterlimit="10" stroke-dasharray="" stroke-dashoffset="0" style="mix-blend-mode: normal"><path d="M-546.54655,598.16817v-836.33634h1733.09309v836.33634z" fill="none" fill-rule="nonzero" stroke="#f00000" stroke-width="0" stroke-linecap="butt"/><path d="M295.79152,308.03598h2.06705l0.25839,4.03991h-0.25839v-3.87157z" fill="#eb4a83" fill-rule="evenodd" stroke="none" stroke-width="1" stroke-linecap="butt"/><path d="M296.30827,312.07588h1.55028h0.25839l2.06705,0.50498z" fill="#9e8142" fill-rule="evenodd" stroke="none" stroke-width="1" stroke-linecap="butt"/><path d="M154.20443,308.14459l35.66987,-36.66103l99.66573,-0.32733l-20.98225,36.98836z" fill="#cedce9" fill-rule="nonzero" stroke="#000000" stroke-width="1" stroke-linecap="round"/><path d="M144.72434,306.22237c-3.44227,-0.5174 -11.63426,-1.32394 -8.04421,-2.15777c-1.96281,0.2672 -4.58145,0.59338 -5.97483,0.68116c-6.60083,0.41574 -15.15527,0 -21.96664,0c-18.68641,0 -36.82815,-0.22067 -54.91651,0.82543c-8.17461,0.47276 -10.42181,-0.98718 -12.932,1.05558c-5.17777,3.42749 -14.91953,6.48604 -21.17742,9.93653c-8.48152,4.67647 -11.77057,9.19115 -16.97007,13.88029c-5.88377,3.86161 -1.09103,11.2758 -1.09103,15.57391c0,1.15054 1.65049,3.1985 0.07409,4.04537c1.56709,0.04279 3.08068,0.08181 4.04466,0.08181c6.40695,0 12.81384,0 19.22083,0c25.48583,0 55.09701,-0.16755 79.83381,-2.02659c29.37069,-1.98324 61.20282,0.86074 90.80975,-0.91932c16.21346,-0.89278 33.88709,-0.36208 50.39517,-0.3558c8.37456,0.00319 15.54604,-0.953 19.22075,0.82544c0.96586,0.46746 0,-1.10057 0,-1.65085c0,-1.3757 0,-2.75146 0,-4.12716c0,-7.70405 0,-15.40812 0,-23.11217c0,-1.82128 -1.58808,-8.33722 1.69736,-9.04229c-0.61635,-0.01107 -1.31388,-0.02906 -1.69736,-0.03749c-3.39773,-0.07451 -5.296,-0.01823 -7.94763,-0.58698c-4.60337,-0.9874 -20.1338,-0.23843 -26.37523,-0.23843c-24.25478,0 -48.50949,0 -72.76436,0c0,0 -5.49164,0 -5.49164,-1.65085c0,-0.06777 0.00921,-0.13274 0.02698,-0.19503c-2.62527,-0.16727 -5.27718,-0.39925 -7.97457,-0.80471zM230.92796,305.57122c14.64146,0 33.35444,-0.78376 43.35326,2.56343c5.72981,1.91807 1.95273,8.06779 1.95273,10.64354c0,7.70405 0,15.40813 0,23.11218c0,0.87972 1.89152,5.24375 0,5.77805c-19.10527,5.39647 -55.11552,1.18831 -78.44522,2.76801c-28.95077,1.74059 -62.29112,-1.57626 -90.29992,0.88484c-25.49523,1.91606 -56.21025,2.12522 -82.49769,2.12522c-3.77064,0 -26.38349,0.85845 -28.83114,0c-7.01917,-2.46176 -5.49163,-4.51527 -5.49163,-7.42893c0,-5.27013 -3.10772,-11.55207 1.65477,-16.61803c5.32915,-4.806 9.06643,-9.62627 17.5661,-14.31276c3.4287,-1.89047 7.13216,-4.41918 11.56304,-6.12662c2.89935,-1.11726 8.44273,-2.02501 9.13535,-3.4774c4.69818,-3.82337 13.18851,-2.57062 23.23489,-3.21322c17.88369,-1.14389 36.38998,-0.82544 54.91649,-0.82544c6.83247,0 20.18232,-0.94528 25.00226,-0.65114c8.39046,0.51201 13.25473,2.66302 21.38687,3.30173c5.96723,0.46868 12.25562,0.19124 19.22083,1.23816c0.52878,0.07947 1.05748,0.15896 1.58634,0.23843c18.33101,0 36.66198,0 54.993,0z" data-paper-data="{&quot;index&quot;:null}" fill="#000000" fill-rule="nonzero" stroke="none" stroke-width="1" stroke-linecap="butt"/><path d="M152.77517,306.94779c-0.0178,0.06232 -0.02637,0.1273 -0.02637,0.19506c0,1.65085 5.51858,1.65368 5.51858,1.65368c24.25478,0 48.63878,0.03281 72.89365,0.03281c6.24143,0 21.78594,-0.74127 26.3893,0.24611c2.65155,0.56875 4.55419,0.51521 7.95178,0.58975c0.38352,0.00842 1.08159,0.02685 1.69799,0.03793c-3.28549,0.70509 -1.68071,7.2368 -1.68071,9.05811c0,7.70405 -0.01144,15.45393 -0.01144,23.158c0,1.3757 -0.00942,2.75815 -0.00942,4.13386c0,0.55028 0.96171,2.12078 -0.00414,1.65335c-3.67473,-1.77842 -10.85272,-0.8187 -19.22725,-0.82189c-16.50808,-0.00627 -34.23171,-0.51813 -50.44518,0.37464c-29.60696,1.78003 -61.73012,-1.04791 -91.10078,0.93532c-24.73678,1.85908 -54.46821,1.99787 -79.95419,1.99787c-6.40696,0 -12.82504,-0.00518 -19.23201,-0.00518c-0.96406,0 -2.47971,-0.04009 -4.0467,-0.08285c1.57642,-0.84687 -0.08433,-2.9007 -0.08433,-4.05122c0,-4.29812 -4.81856,-11.74088 1.06528,-15.6025c5.19947,-4.68911 8.49988,-9.23516 16.98136,-13.9116c6.258,-3.45049 16.04088,-6.53365 21.21867,-9.96112c2.51018,-2.04277 4.77445,-0.58908 12.94905,-1.06185c18.08828,-1.04611 36.34775,-0.84858 55.03414,-0.84858c6.81117,0 15.44228,0.4116 22.04313,-0.00412c1.39324,-0.08778 4.03375,-0.41396 5.99652,-0.68115c-3.59015,0.83378 4.63442,1.64133 8.07667,2.15873c2.69751,0.40546 5.38136,0.63963 8.00659,0.80689z" data-paper-data="{&quot;noHover&quot;:false,&quot;origItem&quot;:[&quot;Path&quot;,{&quot;applyMatrix&quot;:true,&quot;segments&quot;:[[[579.60736,595.76373],[0.95609,-0.20262],[0.00646,0.07548]],[[579.61718,596],[0,-0.08208],[0,2]],[[577.61718,598],[0,0],[-8.83333,0]],[[551.11718,598],[8.83333,0],[-2.27308,0]],[[541.51161,598.28885],[1.67648,-1.19621],[-0.96568,0.68904]],[[538.61718,599],[1.23739,-0.09027],[-0.13966,0.01019]],[[537.99901,599.04541],[0.22447,-0.0134],[1.19653,0.85421]],[[538.61718,610],[0,-2.20646],[0,9.33333]],[[538.61718,638],[0,-9.33333],[0,1.66667]],[[538.61718,643],[0,-1.66667],[0,0.66667]],[[538.61718,645],[-0.35177,0.56631],[1.33831,-2.15456]],[[545.61718,644],[-3.04994,0.00386],[6.01206,-0.00761]],[[563.97058,644.43107],[-5.90478,-1.08158],[10.78253,2.15651]],[[597.04254,645.54479],[-10.6965,-2.40266],[9.00888,2.25222]],[[626.11718,648],[-9.28168,0],[2.33333,0]],[[633.11718,648],[-2.33333,0],[0.35109,0]],[[634.59021,647.90091],[-0.5707,0.05184],[-0.57412,-1.02596]],[[634.61718,643],[0,1.39387],[0,-5.20707]],[[634.21982,624.13246],[2.14282,4.67827],[-1.8936,-5.6808]],[[628.03948,607.31672],[3.08887,5.66543],[-2.2791,-4.1802]],[[620.32688,595.27881],[1.8857,4.15235],[-0.91417,-2.47477]],[[615.61718,594],[2.9771,0.57275],[-6.58756,-1.26734]],[[595.61718,593],[6.8054,0],[-2.48058,0]],[[587.61718,593],[2.40395,0.50364],[-0.50743,-0.10631]],[[585.44122,592.1748],[0.71481,0.32365],[1.30749,1.01011]],[[582.51161,594.78885],[1.25365,-0.62682],[-0.98239,0.4912]]],&quot;closed&quot;:true}],&quot;index&quot;:null}" fill="#484848" fill-rule="nonzero" stroke="none" stroke-width="1" stroke-linecap="butt"/><path d="M75.78887,313.00014c0,0.55791 1.8932,1.23412 0.94957,1.67589c2.41352,0.0747 4.84129,0.23779 6.99799,0.56196c8.3153,1.24986 25.23084,5.80423 26.82582,8.8152c0.12967,0.24492 -2.2217,0.28583 -1.82348,0.50302c1.32503,0.72267 12.1233,-0.53325 13.36536,-0.32801c0.2811,0.04646 0.4192,0.11882 0.47449,0.20685c-0.05784,-0.27352 -0.1108,-0.53794 -0.1108,-0.7043c0,-0.58476 0.07682,-1.21496 -0.79311,-1.73801c-7.39469,-4.61011 -19.47646,-8.99263 -40.39421,-8.99263c0,0 -2.46844,-0.00001 -4.09556,-0.49749c-0.54263,-0.09267 -0.96451,-0.20163 -1.24741,-0.32943c-0.07269,0.31493 -0.14875,0.63551 -0.14875,0.82694zM122.4679,325.38163c0.37481,0.33801 0.26423,-0.22303 0.13969,-0.80993c-0.02608,0.25472 -0.3959,0.57897 -0.13969,0.80993zM131.49848,320.51619c6.82853,4.10551 -8.67627,10.10399 -22.75971,7.34176c-13.28785,-2.60617 -17.78746,-7.84404 -29.91415,-9.66675c-4.09681,-0.61579 -9.00587,-0.95195 -12.06631,-1.97643c-4.8499,-1.62354 -2.69998,-7.16751 6.5746,-7.16751c6.67832,0 9.96769,0.65113 16.18509,0.65113h2.7458c0,0 3.152,0 4.68014,0.71787c16.26725,1.59629 26.70579,5.65194 34.5545,10.09991z" data-paper-data="{&quot;index&quot;:null}" fill="#000000" fill-rule="nonzero" stroke="none" stroke-width="1" stroke-linecap="butt"/><path d="M75.73379,312.11786c0.28269,0.12779 0.70489,0.23673 1.24752,0.32943c1.62707,0.49749 4.10674,0.49397 4.10674,0.49397c20.91769,0 33.43559,4.47947 40.83024,9.08959c0.86998,0.52303 0.76912,1.16473 0.76912,1.74948c0,0.16637 0.04276,0.43458 0.10062,0.7081c-0.05521,-0.08808 -0.19198,-0.16085 -0.47315,-0.20735c-1.24214,-0.20522 -12.13389,1.07239 -13.45891,0.34974c-0.39823,-0.21721 1.69236,-0.40309 1.56253,-0.64802c-1.59491,-3.01096 -18.59211,-7.54221 -26.9075,-8.79209c-2.15672,-0.32418 -4.59845,-0.48056 -7.01199,-0.55525c0.9436,-0.44181 -0.92708,-1.12818 -0.92708,-1.68608c0,-0.19142 0.08876,-0.5166 0.16163,-0.83152z" data-paper-data="{&quot;noHover&quot;:false,&quot;origItem&quot;:[&quot;Path&quot;,{&quot;applyMatrix&quot;:true,&quot;segments&quot;:[[[607.563,601.99816],[0.02649,0.38155],[-0.10299,0.15484]],[[607.10872,602.39727],[0.1976,-0.11227],[-0.59254,0.60273]],[[605.61718,603],[0,0],[-7.618,0]],[[590.90604,613.89443],[2.69308,-5.58508],[-0.31682,0.63364]],[[590.61718,616],[0,-0.70843],[0,0.20156]],[[590.57685,616.85325],[0.02106,-0.33136],[0.02013,-0.10671]],[[590.74964,616.60263],[-0.10238,0.05628],[0.45234,-0.24865]],[[595.61718,617],[-0.48256,0.87548],[0.14503,-0.26312]],[[594.95308,616.3906],[-0.04725,0.29671],[0.58086,-3.64773]],[[604.72276,605.71115],[-3.02833,1.51416],[0.78545,-0.39273]],[[607.27135,605.03032],[-0.87898,0.0905],[-0.34365,-0.53523]],[[607.61718,603],[0,0.6759],[0,-0.23192]]],&quot;closed&quot;:true}],&quot;index&quot;:null}" fill="#ffffff" fill-rule="nonzero" stroke="none" stroke-width="1" stroke-linecap="butt"/><path d="M371.4422,310.0467l-20.98225,-39.72762l99.66579,0.35157l35.66983,39.37604z" data-paper-data="{&quot;index&quot;:null}" fill="#cedce9" fill-rule="nonzero" stroke="#000000" stroke-width="1" stroke-linecap="round"/><path d="M495.27568,307.98215c-2.69741,0.43549 -5.34924,0.68463 -7.97455,0.8643c0.01777,0.06688 0.02698,0.13668 0.02698,0.20947c0,1.77311 -5.49164,1.77311 -5.49164,1.77311c-24.25481,0 -48.50953,0 -72.76436,0c-6.24146,0 -21.77182,-0.80442 -26.37522,0.25609c-2.65163,0.61087 -4.54992,0.55042 -7.94761,0.63045c-0.38354,0.00904 -1.08106,0.02837 -1.69736,0.04026c3.28547,0.7573 1.69736,7.75575 1.69736,9.71193c0,8.27459 0,16.5492 0,24.82379c0,1.47758 0,2.95524 0,4.43281c0,0.59103 -0.96586,2.2752 0,1.77311c3.67473,-1.91013 10.84624,-0.88314 19.22078,-0.88656c16.50808,-0.00674 34.18173,-0.57674 50.3952,0.38214c29.60695,1.91186 61.43911,-1.14272 90.80975,0.98739c24.73678,1.99673 54.34799,2.17667 79.83381,2.17667c6.40698,0 12.81387,0 19.22084,0c0.96399,0 2.47756,-0.04191 4.04463,-0.08787c-1.57638,-0.90959 0.07413,-3.10924 0.07413,-4.34496c0,-4.61642 4.79266,-12.5797 -1.09108,-16.72726c-5.19947,-5.03638 -8.48857,-9.88543 -16.9701,-14.90822c-6.25792,-3.70602 -15.99964,-6.99106 -21.17741,-10.6724c-2.51018,-2.19405 -4.75737,-0.62598 -12.93198,-1.13375c-18.08832,-1.12358 -36.23002,-0.88656 -54.91651,-0.88656c-6.81136,0 -15.36584,0.44653 -21.96665,0c-1.39337,-0.09424 -4.01201,-0.44463 -5.97482,-0.73161c3.59011,0.89553 -4.60192,1.76183 -8.04421,2.31756zM409.07188,307.28276c18.33103,0 36.66208,0 54.99304,0c0.52883,-0.08536 1.05749,-0.17073 1.58628,-0.25609c6.96521,-1.12445 13.25358,-0.82647 19.22084,-1.32985c8.13216,-0.686 12.99638,-2.99631 21.38687,-3.54625c4.81997,-0.31589 18.16978,0.69937 25.00227,0.69937c18.52655,0 37.0328,-0.34204 54.91647,0.88657c10.04632,0.69018 18.53667,-0.65535 23.23487,3.45118c0.69258,1.55993 6.23599,2.53491 9.13534,3.7349c4.43093,1.83387 8.13438,4.54988 11.56304,6.58033c8.49967,5.03357 12.23695,10.21078 17.5661,15.37273c4.76241,5.4411 1.65472,12.1883 1.65472,17.84872c0,3.12939 1.52753,5.33502 -5.49164,7.97909c-2.44773,0.92202 -25.0605,0 -28.83113,0c-26.28744,0 -57.0024,-0.22463 -82.49768,-2.2826c-28.00882,-2.64335 -61.34918,0.91915 -90.29995,-0.95036c-23.32968,-1.69667 -59.33996,2.82313 -78.44523,-2.973c-1.89151,-0.57387 0,-5.26108 0,-6.20595c0,-8.27459 0,-16.54916 0,-24.82377c0,-2.76649 -3.777,-9.37168 1.95275,-11.43177c9.99888,-3.59507 28.71181,-2.75327 43.35325,-2.75327z" data-paper-data="{&quot;index&quot;:null}" fill="#000000" fill-rule="nonzero" stroke="none" stroke-width="1" stroke-linecap="butt"/><path d="M487.22453,308.76126c2.62521,-0.17965 5.30906,-0.43117 8.00658,-0.86665c3.44231,-0.55572 11.66686,-1.42307 8.07669,-2.3186c1.96281,0.28696 4.60327,0.6373 5.9965,0.73159c6.60085,0.44653 15.23189,0.00445 22.04313,0.00445c18.68636,0 36.94585,-0.21216 55.03414,0.91142c8.17462,0.50777 10.43883,-1.05356 12.949,1.14049c5.17785,3.68132 14.96067,6.99277 21.21866,10.69881c8.48149,5.02279 11.78187,9.90549 16.98136,14.94188c5.88388,4.14759 1.06533,12.14155 1.06533,16.75796c0,1.23574 -1.66078,3.44164 -0.08436,4.35124c-1.56702,0.04596 -3.08267,0.08899 -4.04671,0.08899c-6.40695,0 -12.82505,0.00556 -19.23203,0.00556c-25.48599,0 -55.2174,-0.14906 -79.95419,-2.14581c-29.37069,-2.13008 -61.4938,0.90731 -91.10078,-1.00459c-16.21345,-0.95891 -33.93708,-0.40914 -50.44518,-0.40241c-8.37449,0.00343 -15.55249,-1.02738 -19.22725,0.88276c-0.96586,0.50205 -0.00414,-1.18475 -0.00414,-1.77579c0,-1.47758 -0.00938,-2.9624 -0.00938,-4.43999c0,-8.27459 -0.01144,-16.5984 -0.01144,-24.87301c0,-1.95616 1.60481,-8.97159 -1.6807,-9.72893c0.6164,-0.01189 1.31449,-0.03167 1.69798,-0.04071c3.39759,-0.08001 5.30021,-0.02252 7.95178,-0.63342c4.60336,-1.06051 20.14788,-0.26433 26.38929,-0.26433c24.25492,0 48.63895,-0.03525 72.89366,-0.03525c0,0 5.51859,-0.00304 5.51859,-1.77615c0,-0.07278 -0.00855,-0.1426 -0.02634,-0.20951z" data-paper-data="{&quot;noHover&quot;:false,&quot;origItem&quot;:[&quot;Path&quot;,{&quot;applyMatrix&quot;:true,&quot;segments&quot;:[[[579.60736,595.76373],[0.95609,-0.20262],[0.00646,0.07548]],[[579.61718,596],[0,-0.08208],[0,2]],[[577.61718,598],[0,0],[-8.83333,0]],[[551.11718,598],[8.83333,0],[-2.27308,0]],[[541.51161,598.28885],[1.67648,-1.19621],[-0.96568,0.68904]],[[538.61718,599],[1.23739,-0.09027],[-0.13966,0.01019]],[[537.99901,599.04541],[0.22447,-0.0134],[1.19653,0.85421]],[[538.61718,610],[0,-2.20646],[0,9.33333]],[[538.61718,638],[0,-9.33333],[0,1.66667]],[[538.61718,643],[0,-1.66667],[0,0.66667]],[[538.61718,645],[-0.35177,0.56631],[1.33831,-2.15456]],[[545.61718,644],[-3.04994,0.00386],[6.01206,-0.00761]],[[563.97058,644.43107],[-5.90478,-1.08158],[10.78253,2.15651]],[[597.04254,645.54479],[-10.6965,-2.40266],[9.00888,2.25222]],[[626.11718,648],[-9.28168,0],[2.33333,0]],[[633.11718,648],[-2.33333,0],[0.35109,0]],[[634.59021,647.90091],[-0.5707,0.05184],[-0.57412,-1.02596]],[[634.61718,643],[0,1.39387],[0,-5.20707]],[[634.21982,624.13246],[2.14282,4.67827],[-1.8936,-5.6808]],[[628.03948,607.31672],[3.08887,5.66543],[-2.2791,-4.1802]],[[620.32688,595.27881],[1.8857,4.15235],[-0.91417,-2.47477]],[[615.61718,594],[2.9771,0.57275],[-6.58756,-1.26734]],[[595.61718,593],[6.8054,0],[-2.48058,0]],[[587.61718,593],[2.40395,0.50364],[-0.50743,-0.10631]],[[585.44122,592.1748],[0.71481,0.32365],[1.30749,1.01011]],[[582.51161,594.78885],[1.25365,-0.62682],[-0.98239,0.4912]]],&quot;closed&quot;:true}],&quot;index&quot;:null}" fill="#484848" fill-rule="nonzero" stroke="none" stroke-width="1" stroke-linecap="butt"/><path d="M564.21111,315.2618c0,-0.2056 -0.07607,-0.54993 -0.14877,-0.88818c-0.28285,0.13725 -0.70483,0.25432 -1.24741,0.35384c-1.62707,0.53434 -4.09555,0.53436 -4.09555,0.53436c-20.91774,0 -32.99946,4.70707 -40.39418,9.6586c-0.86994,0.56177 -0.7931,1.23864 -0.7931,1.86671c0,0.17869 -0.05291,0.4627 -0.11074,0.75646c0.0553,-0.09458 0.19337,-0.17228 0.47445,-0.22217c1.24212,-0.22042 12.04031,1.12849 13.36534,0.3523c0.39822,-0.23329 -1.95316,-0.27721 -1.82349,-0.54026c1.59501,-3.23395 18.51057,-8.1256 26.82582,-9.46803c2.15663,-0.34819 4.58443,-0.52337 6.99795,-0.60358c-0.94361,-0.4745 0.94957,-1.20076 0.94957,-1.8zM517.3924,327.69034c-0.12453,0.63037 -0.23506,1.23295 0.13971,0.86991c0.25619,-0.24807 -0.11368,-0.59634 -0.13971,-0.86991zM508.50164,323.3345c7.84871,-4.77737 18.28731,-9.13337 34.5545,-10.84788c1.52806,-0.77104 4.68014,-0.77104 4.68014,-0.77104h2.7458c6.21741,0 9.50675,-0.69936 16.18509,-0.69936c9.27454,0 11.42446,5.95449 6.57459,7.6983c-3.06045,1.10036 -7.96947,1.46142 -12.06632,2.1228c-12.12676,1.95774 -16.62633,7.58347 -29.91414,10.38267c-14.08345,2.96675 -29.58821,-3.47595 -22.75967,-7.88547z" data-paper-data="{&quot;index&quot;:null}" fill="#000000" fill-rule="nonzero" stroke="none" stroke-width="1" stroke-linecap="butt"/><path d="M564.26632,314.31421c0.07289,0.33825 0.16163,0.68751 0.16163,0.89311c0,0.59922 -1.87068,1.33643 -0.92707,1.81095c-2.41355,0.08023 -4.85526,0.2482 -7.01199,0.59638c-8.31538,1.34241 -25.31252,6.20923 -26.9075,9.44317c-0.12983,0.26308 1.96077,0.46273 1.56255,0.69602c-1.32504,0.77619 -12.2168,-0.59604 -13.45892,-0.37564c-0.28121,0.04991 -0.41797,0.12807 -0.47316,0.22271c0.05784,-0.29378 0.10062,-0.58187 0.10062,-0.76056c0,-0.62806 -0.10078,-1.31724 0.76913,-1.87901c7.39464,-4.95155 19.91251,-9.76276 40.83023,-9.76276c0,0 2.47967,0.00381 4.10674,-0.53055c0.54263,-0.09954 0.96478,-0.21653 1.24752,-0.35381z" data-paper-data="{&quot;noHover&quot;:false,&quot;origItem&quot;:[&quot;Path&quot;,{&quot;applyMatrix&quot;:true,&quot;segments&quot;:[[[607.563,601.99816],[0.02649,0.38155],[-0.10299,0.15484]],[[607.10872,602.39727],[0.1976,-0.11227],[-0.59254,0.60273]],[[605.61718,603],[0,0],[-7.618,0]],[[590.90604,613.89443],[2.69308,-5.58508],[-0.31682,0.63364]],[[590.61718,616],[0,-0.70843],[0,0.20156]],[[590.57685,616.85325],[0.02106,-0.33136],[0.02013,-0.10671]],[[590.74964,616.60263],[-0.10238,0.05628],[0.45234,-0.24865]],[[595.61718,617],[-0.48256,0.87548],[0.14503,-0.26312]],[[594.95308,616.3906],[-0.04725,0.29671],[0.58086,-3.64773]],[[604.72276,605.71115],[-3.02833,1.51416],[0.78545,-0.39273]],[[607.27135,605.03032],[-0.87898,0.0905],[-0.34365,-0.53523]],[[607.61718,603],[0,0.6759],[0,-0.23192]]],&quot;closed&quot;:true}],&quot;index&quot;:null}" fill="#ffffff" fill-rule="nonzero" stroke="none" stroke-width="1" stroke-linecap="butt"/><g><path d="M376.95396,222.22612l1.54334,-0.14652l0.25724,-0.02442l2.13106,0.57631z" fill="#9e8142" fill-rule="evenodd" stroke="none" stroke-width="1" stroke-linecap="butt"/><path d="M464.83929,240.00669c0.38382,0.29899 0.41866,0.66612 0.10451,1.10079c-0.34515,-0.33044 -0.38,-0.69757 -0.10451,-1.10079z" fill="#fefffe" fill-rule="evenodd" stroke="none" stroke-width="1" stroke-linecap="butt"/><path d="M108.54366,319.05732l-8.08948,-104.68564l117.83304,-11.41785l-7.85788,-94.94233l273.48965,-27.35107l7.75928,-13.21774l148.9469,-16.45188l7.48981,-1.44859l22.51542,227.42328l-252.10228,23.00931l1.11488,-7.73318z" fill="#67708d" fill-rule="nonzero" stroke="#000000" stroke-width="1" stroke-linecap="round"/><path d="M418.0917,300.24739l-14.3544,-146.3301l58.76573,-57.8147l67.8545,42.78905l1.80826,26.35064l126.38536,-13.84769l12.70236,126.49408z" fill="#727681" fill-rule="nonzero" stroke="#000000" stroke-width="1" stroke-linecap="round"/><path d="M441.4402,297.8574l-11.17247,-117.683l3.96227,-9.39029l6.26308,-7.06628l8.5755,-7.05467l7.18951,-4.61178l11.43158,-1.31641l11.74764,-0.42189l13.00024,5.46861l10.14128,9.43812l4.97133,8.54214l3.96517,17.42066l10.91042,100.31525z" fill="#56505e" fill-rule="nonzero" stroke="#000000" stroke-width="1" stroke-linecap="round"/><path d="M498.67908,167.03766l11.78868,107.08331l-71.58732,6.47179l-9.17387,-100.04923l3.731,-6.84425z" fill="#8c908f" fill-rule="nonzero" stroke="#000000" stroke-width="1" stroke-linecap="round"/><path d="M495.6241,186.12984l-61.49547,6.81171l-1.435,-15.11537l61.296,-5.49476z" fill="#45a3ac" fill-rule="nonzero" stroke="#000000" stroke-width="1" stroke-linecap="round"/><path d="M503.82552,260.5546l-9.02016,0.69409l-7.28445,-68.18401l10.13052,-0.96175z" fill="#45a3ac" fill-rule="nonzero" stroke="#000000" stroke-width="1" stroke-linecap="round"/><path d="M449.98414,264.24643l-8.71381,0.50276l-5.7151,-67.035l8.78304,-1.48284z" fill="#45a3ac" fill-rule="nonzero" stroke="#000000" stroke-width="1" stroke-linecap="round"/><path d="M447.79906,196.79519l34.80951,-2.49345l7.3473,75.68216l-33.24016,3.64248l-7.57297,-76.35031z" fill="#3b3d54" fill-rule="nonzero" stroke="#000000" stroke-width="1" stroke-linecap="round"/><path d="M406.91178,184.89798l-0.69714,1.20194l-325.37271,30.56541l-4.96756,-6.18068l330.68385,-32.36764z" fill="#d0ced0" fill-rule="nonzero" stroke="#000000" stroke-width="1" stroke-linecap="round"/><path d="M462.84966,96.4743l-68.56566,67.35356l-5.01945,-11.85454l73.60342,-65.56033l84.64688,49.48189l-7.31546,10.10507z" fill="#d0ced0" fill-rule="nonzero" stroke="#000000" stroke-width="1" stroke-linecap="round"/><path d="M519.06821,119.53102l-4.62561,-48.72293l110.8375,-10.84709l4.88309,58.27131l-95.83072,10.88264z" fill="#393b64" fill-rule="nonzero" stroke="#000000" stroke-width="1" stroke-linecap="round"/><path d="M539.79973,128.59589l-5.74003,-60.46146l74.62729,-6.92264l5.76344,58.99898l-75.61931,8.43652" fill="#000c40" fill-rule="nonzero" stroke="#000000" stroke-width="1" stroke-linecap="round"/><path d="M483.78958,80.81667l-289.0091,29.06017l-10.24247,-8.76267l242.76182,-26.12986l-0.91291,5.76546l49.92335,-5.22633l6.90328,-14.44672l185.78811,-20.39643l-4.8495,8.7352l-172.73977,17.69741z" fill="#d0ced0" fill-rule="nonzero" stroke="#000000" stroke-width="1" stroke-linecap="round"/><path d="M546.33258,175.19076l71.14359,-7.72767l7.804,71.9476l-73.1648,6.94605z" fill="#000c40" fill-rule="nonzero" stroke="#000000" stroke-width="1" stroke-linecap="round"/><path d="M105.49706,282.38897l308.56078,-27.34682l3.48779,38.44688l-308.92411,26.08331z" fill="#374c6f" fill-rule="nonzero" stroke="#000000" stroke-width="1" stroke-linecap="round"/><path d="M210.66418,211.7634l-0.79077,7.05186l7.4997,90.95986l-89.93398,8.0513l-7.13408,-97.36293z" fill="#838a99" fill-rule="nonzero" stroke="#000000" stroke-width="1" stroke-linecap="round"/><path d="M124.35638,230.66576l82.33051,-7.81621l7.59663,86.85381l-83.58638,8.25994z" fill="#555e7f" fill-rule="nonzero" stroke="#000000" stroke-width="1" stroke-linecap="round"/><path d="M130.51163,233.97543l73.79275,-7.16792l0.35722,8.8899l-73.01927,6.76998z" fill="#000000" fill-rule="nonzero" stroke="#000000" stroke-width="1" stroke-linecap="round"/><path d="M404.99541,192.05671l9.63669,101.50612l-179.15554,15.06148l-7.62794,-97.43773z" fill="#838a99" fill-rule="nonzero" stroke="#000000" stroke-width="1" stroke-linecap="round"/><path d="M240.21841,307.72793l-7.64626,-87.37642l169.97153,-16.94785l8.06657,90.09479z" fill="#555e7f" fill-rule="nonzero" stroke="#000000" stroke-width="1" stroke-linecap="round"/><path d="M239.61182,223.57723l158.32867,-15.68025l-0.24018,9.43337l-157.6758,15.29376z" fill="#000000" fill-rule="nonzero" stroke="#000000" stroke-width="1" stroke-linecap="round"/><path d="M381.71169,149.32365l-127.22778,13.43071l-4.80829,-52.35624l126.05179,-13.42724z" fill="#393b64" fill-rule="nonzero" stroke="#000000" stroke-width="1" stroke-linecap="round"/><path d="M273.53716,160.49932l-4.99199,-52.58219l88.41043,-8.71793l3.3687,52.57403z" fill="#000c40" fill-rule="nonzero" stroke="#000000" stroke-width="1" stroke-linecap="round"/><path d="M449.66288,90.75787c0.83774,0.68882 1.52844,-0.1523 1.52844,-0.1523c4.7802,-5.82542 13.35574,-8.86751 20.55866,-5.92868c3.18264,1.29855 5.48886,4.05377 8.25856,5.8977c6.04744,3.768 6.79307,16.46794 2.36804,21.63959c-1.70137,1.98844 -4.29516,2.99582 -6.79164,3.84153c-1.60665,-0.0169 -3.29432,0.44154 -4.92453,0.24263c-2.20787,0.30656 -4.50568,0.47633 -6.74912,0.75134c-7.03316,-2.46815 -11.981,-10.79206 -13.81277,-17.93462c-0.76469,-3.06647 -2.3,-6.44001 -0.81915,-8.91339c0.04967,0.18337 0.16373,0.37549 0.38352,0.5562z" data-paper-data="{&quot;noHover&quot;:false,&quot;origItem&quot;:[&quot;Path&quot;,{&quot;applyMatrix&quot;:true,&quot;segments&quot;:[[[521.95838,341.96483],[-0.01667,0.21389],[-2.51251,2.06985]],[[519.4768,351.72196],[0.34861,-3.5517],[-0.75818,8.29192]],[[527.33632,375.91087],[-6.54613,-5.29068],[2.49065,0.55761]],[[534.76312,377.65449],[-2.46476,-0.51055],[1.65872,0.82936]],[[540.0653,379.26158],[-1.70264,-0.62682],[2.97607,0.04647]],[[548.70522,377.76236],[-2.56331,1.47041],[6.66685,-3.82437]],[[554.34307,353.96499],[5.00498,6.29984],[-2.24748,-3.01103]],[[547.83272,344.6127],[2.89338,2.58736],[-6.5483,-5.85572]],[[523.83701,343.12089],[7.2924,-4.38522],[0,0]],[[522.15667,342.70081],[0.63012,1.05021],[-0.1653,-0.2755]]],&quot;closed&quot;:true}]}" fill="#ffffff" fill-rule="nonzero" stroke="#000000" stroke-width="2" stroke-linecap="butt"/><path d="M419.02962,104.92177c0,0 -0.5678,0.91683 0.35465,1.48727c0.92244,0.57043 1.33183,-0.42552 1.33183,-0.42552c1.77071,-2.86402 3.74489,-6.77127 6.49628,-8.78295c1.27907,-0.93522 2.43234,-0.36057 3.91842,-0.60041c4.60377,-0.74305 9.14942,0.85715 12.55825,4.10994c1.0334,1.12913 2.47826,1.93942 3.27607,3.25033c5.46095,8.97347 1.03094,18.95948 -5.83953,25.12217c-11.15912,3.8472 -22.34106,-11.67714 -23.55527,-21.40661c0.13689,-1.14803 0.01649,-3.14215 0.72043,-4.14118c0.83651,-1.18718 2.07373,-1.95706 3.23239,-2.75234c-0.90867,1.43427 -1.71626,2.88265 -2.49351,4.13932z" data-paper-data="{&quot;noHover&quot;:false,&quot;origItem&quot;:[&quot;Path&quot;,{&quot;applyMatrix&quot;:true,&quot;segments&quot;:[[[488.3096,342.53923],[-1.51011,1.18134],[-1.53391,0.40687]],[[483.9403,344.40615],[1.33969,-0.94584],[-1.12739,0.79595]],[[481.61976,348.52197],[0.58067,-1.16933],[-2.39539,10.80972]],[[498.48043,380.05978],[-13.32827,-0.13636],[9.64373,-3.9519]],[[514.1197,355.67768],[2.40851,11.61483],[-0.35185,-1.69676]],[[511.87957,351.00633],[0.67137,1.5927],[-2.39344,-4.75186]],[[500.14885,341.91879],[5.17877,0.9542],[-1.67168,-0.30801]],[[495.77608,341.07281],[1.715,-0.51012],[-3.68906,1.09729]],[[485.59672,347.92601],[2.96891,-2.37555],[0,0]],[[483.87527,347.73474],[0.76509,0.95636],[-0.76509,-0.95636]],[[484.06654,346.01329],[0,0],[1.30299,-1.04221]]],&quot;closed&quot;:true}]}" fill="#ffffff" fill-rule="nonzero" stroke="#000000" stroke-width="2" stroke-linecap="butt"/><path d="M442.46104,111.55545c-0.49239,-1.38218 0.22892,-2.9018 1.61108,-3.39418c1.38218,-0.49239 2.9018,0.22893 3.39418,1.61108c0.49239,1.38218 -0.2289,2.90181 -1.61108,3.3942c-1.38218,0.49239 -2.9018,-0.22892 -3.3942,-1.6111z" fill="#000000" fill-rule="nonzero" stroke="none" stroke-width="0.5" stroke-linecap="butt"/><path d="M477.93582,101.97145c-0.49239,-1.38218 0.22894,-2.9018 1.61108,-3.39418c1.38214,-0.49239 2.90179,0.22893 3.39417,1.61108c0.49239,1.38218 -0.22891,2.90182 -1.61107,3.3942c-1.38214,0.49239 -2.9018,-0.22892 -3.3942,-1.6111z" fill="#000000" fill-rule="nonzero" stroke="none" stroke-width="0.5" stroke-linecap="butt"/><path d="M350.84932,54.31674c0.54214,-0.19314 0.89686,0.00856 1.10911,0.23677c2.92137,-0.07924 5.9009,0.87862 8.75442,1.44481c3.45594,0.68572 7.29762,1.01452 10.63976,2.11948c10.66704,3.52672 20.84087,10.09216 31.10861,14.68882c6.764,3.02832 13.39883,7.45746 20.30937,9.99412c4.28851,1.57418 9.50796,2.1763 13.97975,3.29732c0,0 1.03949,0.26077 0.77872,1.30024c-0.26076,1.03948 -1.30025,0.77872 -1.30025,0.77872c-4.54185,-1.14003 -9.81575,-1.76274 -14.17793,-3.35734c-6.96879,-2.54742 -13.6506,-7.00567 -20.46556,-10.0568c-10.19748,-4.5659 -20.31344,-11.10809 -30.90558,-14.61004c-3.25546,-1.07631 -7.01658,-1.38394 -10.38411,-2.05213c-2.84142,-0.56381 -5.96793,-1.67925 -8.86278,-1.37132l-1.23349,-1.04349c0,0 -0.35965,-1.00954 0.64989,-1.36917z" fill="#000000" fill-rule="nonzero" stroke="none" stroke-width="0.5" stroke-linecap="butt"/><path d="M503.84794,-8.68932c0.79376,0.72007 0.0737,1.51381 0.0737,1.51381l-0.54777,0.56119c-4.1482,7.50315 -8.29643,15.0063 -12.44463,22.50946c-7.1021,12.84306 -15.19138,25.22058 -22.80113,37.77045c-4.81507,7.94093 -9.3178,16.20717 -14.81335,23.6947c-1.79641,2.44757 -3.73753,6.52114 -6.58673,7.64672c0,0 -1.00955,0.35964 -1.36919,-0.64989c-0.35964,-1.00955 0.64989,-1.36919 0.64989,-1.36919c2.10458,-0.60532 4.27242,-5.1169 5.57811,-6.89586c5.45789,-7.43621 9.92638,-15.6512 14.7085,-23.53779c7.59467,-12.52502 15.67269,-24.8772 22.75811,-37.69619c4.1482,-7.50315 8.29642,-15.00631 12.44462,-22.50947l0.83606,-0.96427c0,0 0.72006,-0.79376 1.5138,-0.0737z" fill="#000000" fill-rule="nonzero" stroke="none" stroke-width="0.5" stroke-linecap="butt"/><path d="M479.61573,133.27753c-0.01345,-0.00706 -0.02704,-0.01454 -0.04074,-0.02249c-0.64877,-0.3763 -0.27247,-1.02506 -0.27247,-1.02506c0.96622,-1.57783 0.63288,-3.50288 0.24229,-5.25332c-1.21609,-5.44999 -6.09149,-8.17972 -10.63904,-10.96008c-6.95396,-4.29879 -18.20554,-1.48389 -23.3231,4.56987c-1.11383,0.68014 -1.55982,1.84912 -2.14576,2.99727c-2.03261,3.98295 -0.36758,9.05583 3.62789,11.28322c2.15234,1.19988 4.73206,1.56221 6.98687,2.49013c3.96116,1.65288 10.64089,4.9061 15.07506,3.66657c2.47612,-0.69218 4.30624,-2.44662 6.60146,-3.44435c2.14047,-1.5878 3.51295,-2.00157 3.88756,-4.30175zM481.1148,131.78276c0.07206,0.05471 0.1416,0.12994 0.20504,0.23151c0.30741,0.49219 -0.00386,0.84141 -0.16045,0.97424c-0.36554,3.16704 -2.08603,3.98927 -4.67845,5.88819c-2.40951,1.08051 -4.371,2.88641 -6.99712,3.6038c-4.83692,1.32129 -11.65758,-1.95222 -16.00556,-3.73736c-2.31763,-0.96422 -4.95647,-1.33472 -7.17161,-2.5819c-5.55055,-3.12509 -7.74774,-12.85707 -1.70988,-16.70531c5.43378,-6.62626 17.72324,-9.26371 25.09705,-4.71566c5.39137,3.35788 10.32899,6.32385 11.50592,12.96247c0.25511,1.43896 0.31629,2.77969 -0.08496,4.08z" fill="#000000" fill-rule="nonzero" stroke="none" stroke-width="0.5" stroke-linecap="butt"/><path d="M475.76972,137.60707c-2.2952,0.99774 -4.14109,2.7672 -6.6172,3.45939c-4.43416,1.23954 -11.16975,-2.01653 -15.13091,-3.66941c-2.25481,-0.92792 -4.84928,-1.308 -7.00163,-2.50788c-3.99547,-2.22738 -5.66432,-7.3342 -3.6317,-11.31715c0.58593,-1.14815 1.03522,-2.32654 2.14904,-3.00668c5.11757,-6.05375 16.44175,-8.88942 23.39572,-4.59063c4.54755,2.78035 9.4456,5.54958 10.66169,10.99956c0.39059,1.75043 0.72259,3.68963 -0.24363,5.26744c0,0 -0.37692,0.65111 0.27185,1.02742c0.0137,0.00796 0.02728,0.01546 0.04074,0.02251c-0.37462,2.30018 -1.7535,2.72763 -3.89397,4.31544z" data-paper-data="{&quot;noHover&quot;:false,&quot;origItem&quot;:[&quot;Path&quot;,{&quot;applyMatrix&quot;:true,&quot;segments&quot;:[[[402.07953,139.45212],[-0.59033,2.25447],[-0.01273,-0.00829]],[[402.04109,139.42588],[0.01289,0.00921],[-0.6103,-0.43593]],[[401.86672,138.37965],[0,0],[1.11102,-1.47944]],[[402.60443,133.17275],[0.2234,1.77951],[-0.69556,-5.54052]],[[393.04887,121.25623],[4.26442,3.1977],[-6.51655,-4.93678]],[[369.39825,123.60132],[5.66682,-5.54298],[-1.17312,0.57182]],[[366.97883,126.38237],[0.69182,-1.08763],[-2.39995,3.77302]],[[369.52407,137.95796],[-3.76707,-2.59503],[2.0293,1.39793]],[[376.24432,141.09728],[-2.15702,-1.13687],[3.78721,2.01986]],[[390.90536,146.17221],[-4.53146,0.81491],[2.53045,-0.45506]],[[397.8028,143.36719],[-2.37923,0.77635],[2.28095,-1.3784]]],&quot;closed&quot;:true}]}" fill="#6f0000" fill-rule="nonzero" stroke="none" stroke-width="0.5" stroke-linecap="butt"/></g></g></g></svg>