<svg version="1.1" xmlns="http://www.w3.org/2000/svg" xmlns:xlink="http://www.w3.org/1999/xlink" width="1733.09309" height="836.33634" viewBox="0,0,1733.09309,836.33634"><g transform="translate(546.54655,238.16817)"><g data-paper-data="{&quot;isPaintingLayer&quot;:true}" fill-rule="nonzero" stroke-linejoin="miter" stroke-miterlimit="10" stroke-dasharray="" stroke-dashoffset="0" style="mix-blend-mode: normal"><path d="M446.58118,317.04116l-14.60021,-24.27645l69.35105,0.21485l24.82037,24.0616z" data-paper-data="{&quot;index&quot;:null}" fill="#cedce9" stroke="#000000" stroke-width="1" stroke-linecap="round"/><path d="M532.74896,315.77957c-1.87696,0.26611 -3.72221,0.41837 -5.54899,0.52815c0.01236,0.04088 0.01878,0.08353 0.01878,0.12802c0,1.0835 -3.82126,1.0835 -3.82126,1.0835c-16.87736,0 -33.75469,0 -50.63205,0c-4.34303,0 -15.14964,-0.49156 -18.35283,0.15648c-1.84509,0.37328 -3.166,0.33634 -5.53023,0.38525c-0.26689,0.00553 -0.75224,0.01735 -1.18108,0.0246c2.28616,0.46275 1.18108,4.73934 1.18108,5.9347c0,5.05639 0,10.11275 0,15.16914c0,0.90291 0,1.80587 0,2.70878c0,0.36117 -0.67209,1.39031 0,1.0835c2.557,-1.16723 7.54718,-0.53966 13.37452,-0.54176c11.48691,-0.00413 23.78489,-0.35242 35.0668,0.23352c20.60159,1.1683 42.75156,-0.69827 63.18872,0.60337c17.21274,1.22014 37.81729,1.33011 55.55125,1.33011c4.45822,0 8.91635,0 13.37454,0c0.67077,0 1.72398,-0.02561 2.81439,-0.05369c-1.0969,-0.55581 0.05158,-1.89997 0.05158,-2.6551c0,-2.82096 3.33493,-7.6871 -0.7592,-10.22158c-3.61798,-3.07759 -5.90665,-6.04072 -11.8084,-9.11001c-4.35448,-2.26465 -11.13314,-4.27204 -14.73603,-6.52161c-1.74668,-1.34073 -3.31033,-0.38252 -8.99853,-0.69279c-12.58651,-0.68658 -25.21016,-0.54176 -38.21288,-0.54176c-4.73958,0 -10.6921,0.27287 -15.28519,0c-0.96956,-0.05758 -2.79171,-0.2717 -4.15751,-0.44707c2.49812,0.54724 -3.20218,1.07659 -5.59745,1.41618zM472.76526,315.3522c12.75538,0 25.51079,0 38.26613,0c0.36798,-0.05215 0.73583,-0.10433 1.10378,-0.15648c4.84664,-0.68713 9.22234,-0.50504 13.37454,-0.81263c5.65864,-0.4192 9.04336,-1.83096 14.88176,-2.16702c3.35391,-0.19303 12.64321,0.42735 17.39749,0.42735c12.89145,0 25.76875,-0.20903 38.21286,0.54176c6.99059,0.42174 12.89849,-0.40047 16.16766,2.10892c0.48195,0.95322 4.33924,1.54903 6.35671,2.28229c3.0832,1.12064 5.6602,2.78031 8.04599,4.02107c5.91439,3.07588 8.5149,6.23952 12.22313,9.39386c3.31386,3.3249 1.15142,7.44794 1.15142,10.90686c0,1.91228 1.0629,3.2601 -3.82126,4.8758c-1.70323,0.56342 -17.438,0 -20.06175,0c-18.29175,0 -39.66433,-0.13726 -57.40486,-1.39483c-19.48955,-1.61529 -42.68897,0.56166 -62.83396,-0.58075c-16.23363,-1.03677 -41.29089,1.72515 -54.58502,-1.8167c-1.31619,-0.35068 0,-3.21491 0,-3.79228c0,-5.05639 0,-10.11275 0,-15.16912c0,-1.69053 -2.62816,-5.72677 1.35878,-6.98563c6.95758,-2.19684 19.97872,-1.68245 30.16676,-1.68245z" data-paper-data="{&quot;index&quot;:null}" fill="#000000" stroke="none" stroke-width="1" stroke-linecap="butt"/><path d="M527.14671,316.25568c1.82673,-0.10979 3.69423,-0.26349 5.57127,-0.52958c2.39529,-0.33959 8.11822,-0.86961 5.62005,-1.41683c1.36579,0.17534 3.20312,0.38943 4.17257,0.44707c4.59312,0.27287 10.59888,0.00273 15.33838,0.00273c13.00264,0 25.70826,-0.12963 38.29475,0.55693c5.6882,0.31029 7.26369,-0.64381 9.01037,0.69692c3.60294,2.24956 10.41017,4.27311 14.7647,6.53773c5.90174,3.06928 8.19824,6.05298 11.81624,9.13058c4.09421,2.53448 0.74128,7.41937 0.74128,10.24031c0,0.75513 -1.15562,2.10308 -0.0587,2.65891c-1.09041,0.02808 -2.14502,0.05439 -2.81584,0.05439c-4.45819,0 -8.92412,0.0034 -13.38234,0.0034c-17.73406,0 -38.42225,-0.09109 -55.63502,-1.31125c-20.43718,-1.30164 -42.78961,0.55444 -63.39123,-0.61389c-11.28191,-0.58597 -23.61467,-0.25001 -35.10158,-0.24591c-5.82726,0.0021 -10.82199,-0.62781 -13.37901,0.53942c-0.67209,0.30679 -0.00288,-0.72396 -0.00288,-1.08513c0,-0.90291 -0.00655,-1.81024 -0.00655,-2.71315c0,-5.05639 -0.00795,-10.14283 -0.00795,-15.19922c0,-1.19536 1.11666,-5.48231 -1.16949,-5.94507c0.42891,-0.00727 0.91468,-0.01935 1.18152,-0.02488c2.36418,-0.04891 3.68808,-0.01377 5.53314,-0.38707c3.20317,-0.64804 14.01962,-0.16152 18.36263,-0.16152c16.87744,0 33.84474,-0.02153 50.72205,-0.02153c0,0 3.84004,-0.00184 3.84004,-1.08534c0,-0.04447 -0.00595,-0.08714 -0.01834,-0.12802z" data-paper-data="{&quot;noHover&quot;:false,&quot;origItem&quot;:[&quot;Path&quot;,{&quot;applyMatrix&quot;:true,&quot;segments&quot;:[[[579.60736,595.76373],[0.95609,-0.20262],[0.00646,0.07548]],[[579.61718,596],[0,-0.08208],[0,2]],[[577.61718,598],[0,0],[-8.83333,0]],[[551.11718,598],[8.83333,0],[-2.27308,0]],[[541.51161,598.28885],[1.67648,-1.19621],[-0.96568,0.68904]],[[538.61718,599],[1.23739,-0.09027],[-0.13966,0.01019]],[[537.99901,599.04541],[0.22447,-0.0134],[1.19653,0.85421]],[[538.61718,610],[0,-2.20646],[0,9.33333]],[[538.61718,638],[0,-9.33333],[0,1.66667]],[[538.61718,643],[0,-1.66667],[0,0.66667]],[[538.61718,645],[-0.35177,0.56631],[1.33831,-2.15456]],[[545.61718,644],[-3.04994,0.00386],[6.01206,-0.00761]],[[563.97058,644.43107],[-5.90478,-1.08158],[10.78253,2.15651]],[[597.04254,645.54479],[-10.6965,-2.40266],[9.00888,2.25222]],[[626.11718,648],[-9.28168,0],[2.33333,0]],[[633.11718,648],[-2.33333,0],[0.35109,0]],[[634.59021,647.90091],[-0.5707,0.05184],[-0.57412,-1.02596]],[[634.61718,643],[0,1.39387],[0,-5.20707]],[[634.21982,624.13246],[2.14282,4.67827],[-1.8936,-5.6808]],[[628.03948,607.31672],[3.08887,5.66543],[-2.2791,-4.1802]],[[620.32688,595.27881],[1.8857,4.15235],[-0.91417,-2.47477]],[[615.61718,594],[2.9771,0.57275],[-6.58756,-1.26734]],[[595.61718,593],[6.8054,0],[-2.48058,0]],[[587.61718,593],[2.40395,0.50364],[-0.50743,-0.10631]],[[585.44122,592.1748],[0.71481,0.32365],[1.30749,1.01011]],[[582.51161,594.78885],[1.25365,-0.62682],[-0.98239,0.4912]]],&quot;closed&quot;:true}],&quot;index&quot;:null}" fill="#484848" stroke="none" stroke-width="1" stroke-linecap="butt"/><path d="M580.71677,320.22798c0,-0.12566 -0.05293,-0.33603 -0.10353,-0.54275c-0.19682,0.08387 -0.49044,0.15542 -0.868,0.21622c-1.1322,0.32653 -2.84981,0.32653 -2.84981,0.32653c-14.55531,0 -22.96221,2.87636 -28.10771,5.90211c-0.60534,0.34328 -0.55186,0.75689 -0.55186,1.14069c0,0.10919 -0.03683,0.28274 -0.07706,0.46226c0.03847,-0.05779 0.13456,-0.10529 0.33014,-0.13576c0.86431,-0.13469 8.3781,0.6896 9.3001,0.21529c0.2771,-0.14256 -1.35909,-0.16939 -1.26884,-0.33014c1.10989,-1.97617 12.88031,-4.96533 18.66637,-5.78565c1.50067,-0.21277 3.19,-0.31983 4.86944,-0.36884c-0.65661,-0.28996 0.66074,-0.73375 0.66074,-1.09994zM548.13856,327.82271c-0.08664,0.3852 -0.16358,0.75341 0.09722,0.53158c0.17828,-0.15158 -0.07909,-0.36442 -0.09722,-0.53158zM541.95205,325.161c5.46141,-2.91932 12.72497,-5.58114 24.04428,-6.62885c1.06329,-0.47117 3.25662,-0.47117 3.25662,-0.47117h1.91062c4.3263,0 6.61516,-0.42735 11.26217,-0.42735c6.45356,0 7.94955,3.63863 4.57483,4.7042c-2.12957,0.6724 -5.54545,0.89304 -8.39618,1.29717c-8.43822,1.1963 -11.56919,4.63405 -20.81534,6.34455c-9.79976,1.81291 -20.58855,-2.12406 -15.837,-4.81861z" data-paper-data="{&quot;index&quot;:null}" fill="#000000" stroke="none" stroke-width="1" stroke-linecap="butt"/><path d="M580.75519,319.64894c0.05072,0.20669 0.11246,0.42013 0.11246,0.54576c0,0.36616 -1.30167,0.81666 -0.64508,1.10661c-1.67944,0.04904 -3.37846,0.15168 -4.87918,0.36442c-5.78614,0.82029 -17.61337,3.79431 -18.7232,5.77045c-0.09033,0.16077 1.36439,0.28276 1.08726,0.42533c-0.922,0.47431 -8.5009,-0.36424 -9.36521,-0.22955c-0.19568,0.03049 -0.29084,0.07826 -0.32925,0.1361c0.04026,-0.17952 0.07,-0.35556 0.07,-0.46478c0,-0.3838 -0.07013,-0.80492 0.53519,-1.14822c5.14545,-3.02575 13.85584,-5.96574 28.41115,-5.96574c0,0 1.72544,0.00234 2.85763,-0.32419c0.37759,-0.06083 0.67134,-0.1323 0.86808,-0.2162z" data-paper-data="{&quot;noHover&quot;:false,&quot;origItem&quot;:[&quot;Path&quot;,{&quot;applyMatrix&quot;:true,&quot;segments&quot;:[[[607.563,601.99816],[0.02649,0.38155],[-0.10299,0.15484]],[[607.10872,602.39727],[0.1976,-0.11227],[-0.59254,0.60273]],[[605.61718,603],[0,0],[-7.618,0]],[[590.90604,613.89443],[2.69308,-5.58508],[-0.31682,0.63364]],[[590.61718,616],[0,-0.70843],[0,0.20156]],[[590.57685,616.85325],[0.02106,-0.33136],[0.02013,-0.10671]],[[590.74964,616.60263],[-0.10238,0.05628],[0.45234,-0.24865]],[[595.61718,617],[-0.48256,0.87548],[0.14503,-0.26312]],[[594.95308,616.3906],[-0.04725,0.29671],[0.58086,-3.64773]],[[604.72276,605.71115],[-3.02833,1.51416],[0.78545,-0.39273]],[[607.27135,605.03032],[-0.87898,0.0905],[-0.34365,-0.53523]],[[607.61718,603],[0,0.6759],[0,-0.23192]]],&quot;closed&quot;:true}],&quot;index&quot;:null}" fill="#ffffff" stroke="none" stroke-width="1" stroke-linecap="butt"/><path d="M182.17291,314.6233l28.06257,-27.20467l78.41004,-0.2429l-16.50738,27.44757z" data-paper-data="{&quot;index&quot;:null}" fill="#cedce9" stroke="#000000" stroke-width="1" stroke-linecap="round"/><path d="M174.71465,313.19692c-2.70813,-0.38393 -9.15304,-0.98246 -6.32863,-1.60118c-1.5442,0.19827 -3.60437,0.44031 -4.70057,0.50545c-5.19308,0.3085 -11.92312,0 -17.28183,0c-14.70117,0 -28.97382,-0.16376 -43.20447,0.61251c-6.43122,0.35081 -8.19917,-0.73256 -10.174,0.78331c-4.07351,2.54339 -11.73765,4.81303 -16.66093,7.37351c-6.67266,3.47022 -9.26026,6.82039 -13.35088,10.30002c-4.62893,2.86555 -0.85837,8.36732 -0.85837,11.55678c0,0.85374 1.2985,2.37348 0.05828,3.00191c1.23287,0.03174 2.42366,0.0607 3.18205,0.0607c5.04055,0 10.08102,0 15.12161,0c20.05045,0 43.34649,-0.12433 62.80768,-1.50384c23.1068,-1.47168 48.15011,0.63872 71.44277,-0.68217c12.75562,-0.66248 26.66,-0.26869 39.6474,-0.26404c6.58851,0.00236 12.23053,-0.70718 15.12156,0.61254c0.75988,0.34689 0,-0.81671 0,-1.22502c0,-1.02085 0,-2.04175 0,-3.06261c0,-5.71687 0,-11.43374 0,-17.15062c0,-1.35148 -1.24938,-6.18669 1.33535,-6.70991c-0.48488,-0.00823 -1.03368,-0.02156 -1.33535,-0.02782c-2.6731,-0.0553 -4.16652,-0.01353 -6.25263,-0.43559c-3.62161,-0.73271 -15.83986,-0.17693 -20.75018,-0.17693c-19.08196,0 -38.1639,0 -57.24591,0c0,0 -4.32043,0 -4.32043,-1.22502c0,-0.05028 0.00725,-0.09851 0.02122,-0.14472c-2.06539,-0.12412 -4.15171,-0.29627 -6.27383,-0.59716zM242.53363,312.71373c11.51888,0 26.24093,-0.58158 34.10732,1.90223c4.5078,1.42332 1.53628,5.98678 1.53628,7.89815c0,5.71687 0,11.43374 0,17.15062c0,0.65282 1.48812,3.89118 0,4.28765c-15.03071,4.0045 -43.36103,0.88179 -61.71524,2.05401c-22.77645,1.29162 -49.0063,-1.16967 -71.04168,0.65661c-20.05788,1.42182 -44.22231,1.57703 -64.90343,1.57703c-2.96648,0 -20.7567,0.63703 -22.68233,0c-5.52218,-1.82675 -4.32043,-3.35062 -4.32043,-5.5127c0,-3.91074 -2.44493,-8.57232 1.30185,-12.33156c4.19262,-3.56634 7.13282,-7.14326 13.81979,-10.62091c2.69746,-1.40283 5.61106,-3.2793 9.09699,-4.54631c2.28101,-0.82907 6.64214,-1.50267 7.18705,-2.58043c3.69618,-2.83716 10.3758,-1.90755 18.27959,-2.38441c14.06962,-0.84884 28.62909,-0.61254 43.20447,-0.61254c5.37531,0 15.87804,-0.70147 19.67003,-0.48319c6.60103,0.37995 10.42788,1.97612 16.82567,2.4501c4.69459,0.3478 9.64187,0.14191 15.12161,0.91878c0.416,0.05898 0.83195,0.11797 1.24801,0.17693c14.42155,0 28.8431,0 43.26467,0z" data-paper-data="{&quot;index&quot;:null}" fill="#000000" stroke="none" stroke-width="1" stroke-linecap="butt"/><path d="M181.04848,313.73519c-0.014,0.04623 -0.02075,0.09446 -0.02075,0.14475c0,1.22502 4.34165,1.22713 4.34165,1.22713c19.08196,0 38.26561,0.02436 57.34765,0.02436c4.91032,0 17.13966,-0.55007 20.76127,0.18261c2.08604,0.42203 3.58291,0.38234 6.25591,0.43761c0.30172,0.00623 0.85091,0.01992 1.33585,0.02815c-2.58479,0.52322 -1.32224,5.37014 -1.32224,6.72165c0,5.71687 -0.00899,11.46774 -0.00899,17.18461c0,1.02085 -0.0074,2.04669 -0.0074,3.06757c0,0.40834 0.75661,1.57376 -0.00325,1.22689c-2.89103,-1.31972 -8.53817,-0.60752 -15.12665,-0.60989c-12.9874,-0.00468 -26.93113,-0.3845 -39.68675,0.27801c-23.29269,1.32091 -48.56495,-0.77762 -71.67175,0.69406c-19.46119,1.37956 -42.85179,1.48254 -62.90237,1.48254c-5.04055,0 -10.08985,-0.00384 -15.13039,-0.00384c-0.75845,0 -1.95085,-0.02974 -3.18366,-0.0615c1.24022,-0.62843 -0.06636,-2.1525 -0.06636,-3.00625c0,-3.18946 -3.7909,-8.71242 0.83808,-11.578c4.09057,-3.4796 6.6871,-6.85304 13.35977,-10.32324c4.92336,-2.56048 12.61983,-4.84835 16.69337,-7.39174c1.97485,-1.51586 3.7562,-0.43712 10.1874,-0.78796c14.2306,-0.77627 28.59589,-0.62968 43.29701,-0.62968c5.35855,0 12.1489,0.30544 17.34198,-0.00306c1.09609,-0.06514 3.17346,-0.30718 4.71763,-0.50545c-2.82449,0.61872 3.64603,1.21798 6.35416,1.60191c2.12222,0.30087 4.23366,0.47462 6.29902,0.59875z" data-paper-data="{&quot;noHover&quot;:false,&quot;origItem&quot;:[&quot;Path&quot;,{&quot;applyMatrix&quot;:true,&quot;segments&quot;:[[[579.60736,595.76373],[0.95609,-0.20262],[0.00646,0.07548]],[[579.61718,596],[0,-0.08208],[0,2]],[[577.61718,598],[0,0],[-8.83333,0]],[[551.11718,598],[8.83333,0],[-2.27308,0]],[[541.51161,598.28885],[1.67648,-1.19621],[-0.96568,0.68904]],[[538.61718,599],[1.23739,-0.09027],[-0.13966,0.01019]],[[537.99901,599.04541],[0.22447,-0.0134],[1.19653,0.85421]],[[538.61718,610],[0,-2.20646],[0,9.33333]],[[538.61718,638],[0,-9.33333],[0,1.66667]],[[538.61718,643],[0,-1.66667],[0,0.66667]],[[538.61718,645],[-0.35177,0.56631],[1.33831,-2.15456]],[[545.61718,644],[-3.04994,0.00386],[6.01206,-0.00761]],[[563.97058,644.43107],[-5.90478,-1.08158],[10.78253,2.15651]],[[597.04254,645.54479],[-10.6965,-2.40266],[9.00888,2.25222]],[[626.11718,648],[-9.28168,0],[2.33333,0]],[[633.11718,648],[-2.33333,0],[0.35109,0]],[[634.59021,647.90091],[-0.5707,0.05184],[-0.57412,-1.02596]],[[634.61718,643],[0,1.39387],[0,-5.20707]],[[634.21982,624.13246],[2.14282,4.67827],[-1.8936,-5.6808]],[[628.03948,607.31672],[3.08887,5.66543],[-2.2791,-4.1802]],[[620.32688,595.27881],[1.8857,4.15235],[-0.91417,-2.47477]],[[615.61718,594],[2.9771,0.57275],[-6.58756,-1.26734]],[[595.61718,593],[6.8054,0],[-2.48058,0]],[[587.61718,593],[2.40395,0.50364],[-0.50743,-0.10631]],[[585.44122,592.1748],[0.71481,0.32365],[1.30749,1.01011]],[[582.51161,594.78885],[1.25365,-0.62682],[-0.98239,0.4912]]],&quot;closed&quot;:true}],&quot;index&quot;:null}" fill="#484848" stroke="none" stroke-width="1" stroke-linecap="butt"/><path d="M120.48104,318.22643c0,0.414 1.48942,0.91577 0.74705,1.24359c1.8988,0.05543 3.8088,0.17646 5.50553,0.41702c6.54189,0.92745 19.84987,4.30708 21.10468,6.5414c0.10202,0.18176 -1.7479,0.21212 -1.43459,0.37328c1.04243,0.53626 9.53777,-0.39569 10.51491,-0.24341c0.22113,0.03447 0.3298,0.08818 0.3733,0.1535c-0.0455,-0.20295 -0.08716,-0.39917 -0.08716,-0.52265c0,-0.43392 0.06044,-0.90159 -0.62396,-1.28969c-5.81762,-3.42098 -15.32272,-6.67308 -31.77935,-6.67308c0,0 -1.94199,0 -3.2221,-0.36917c-0.42691,-0.06878 -0.75881,-0.14963 -0.98137,-0.24445c-0.05719,0.2337 -0.11701,0.47158 -0.11701,0.61365zM157.20484,327.41425c0.29487,0.25082 0.20788,-0.1655 0.10992,-0.60103c-0.02052,0.189 -0.31146,0.42964 -0.10992,0.60103zM164.30947,323.80377c5.37222,3.04653 -6.82587,7.49776 -17.90574,5.44803c-10.45396,-1.93394 -13.99394,-5.82074 -23.53436,-7.17331c-3.22309,-0.45696 -7.08518,-0.7064 -9.49292,-1.46662c-3.81555,-1.20476 -2.12417,-5.31871 5.17244,-5.31871c5.25404,0 7.84187,0.48317 12.73331,0.48317h2.16022c0,0 2.47978,0 3.682,0.53272c12.79793,1.18453 21.01027,4.19407 27.18509,7.49472z" data-paper-data="{&quot;index&quot;:null}" fill="#000000" stroke="none" stroke-width="1" stroke-linecap="butt"/><path d="M120.43769,317.57169c0.2224,0.09483 0.55454,0.17568 0.98148,0.24445c1.28008,0.36917 3.23088,0.36655 3.23088,0.36655c16.45658,0 26.3048,3.32405 32.12239,6.74502c0.68443,0.38813 0.60508,0.86429 0.60508,1.29821c0,0.12345 0.03363,0.32248 0.07914,0.52545c-0.04345,-0.06537 -0.15103,-0.11937 -0.37224,-0.15386c-0.97722,-0.1523 -9.54611,0.79577 -10.58855,0.25954c-0.31331,-0.16119 1.33143,-0.29913 1.22928,-0.48086c-1.25476,-2.23432 -14.62697,-5.59677 -21.16893,-6.52426c-1.69676,-0.24056 -3.61774,-0.3566 -5.51655,-0.41203c0.74237,-0.32785 -0.72936,-0.83717 -0.72936,-1.25118c0,-0.14204 0.06981,-0.38335 0.12716,-0.61706z" data-paper-data="{&quot;noHover&quot;:false,&quot;origItem&quot;:[&quot;Path&quot;,{&quot;applyMatrix&quot;:true,&quot;segments&quot;:[[[607.563,601.99816],[0.02649,0.38155],[-0.10299,0.15484]],[[607.10872,602.39727],[0.1976,-0.11227],[-0.59254,0.60273]],[[605.61718,603],[0,0],[-7.618,0]],[[590.90604,613.89443],[2.69308,-5.58508],[-0.31682,0.63364]],[[590.61718,616],[0,-0.70843],[0,0.20156]],[[590.57685,616.85325],[0.02106,-0.33136],[0.02013,-0.10671]],[[590.74964,616.60263],[-0.10238,0.05628],[0.45234,-0.24865]],[[595.61718,617],[-0.48256,0.87548],[0.14503,-0.26312]],[[594.95308,616.3906],[-0.04725,0.29671],[0.58086,-3.64773]],[[604.72276,605.71115],[-3.02833,1.51416],[0.78545,-0.39273]],[[607.27135,605.03032],[-0.87898,0.0905],[-0.34365,-0.53523]],[[607.61718,603],[0,0.6759],[0,-0.23192]]],&quot;closed&quot;:true}],&quot;index&quot;:null}" fill="#ffffff" stroke="none" stroke-width="1" stroke-linecap="butt"/><path d="M145.32703,-51.2716l207.77515,33.97654l-3.56932,16.20267l87.70206,8.33544l-7.95639,49.01487l195.47618,28.31805l2.73705,-1.81646l-16.85276,250.98245l-297.54262,-30.92894l-9.49907,6.0798l-214.30267,-31.32545z" fill="#e9e0d9" stroke="#000000" stroke-width="1" stroke-linecap="round"/><path d="M153.43979,151.2579l146.81923,18.85065l-8.58685,70.05324l-150.65947,-15.7787z" fill="#ffd200" stroke="#000000" stroke-width="1" stroke-linecap="round"/><path d="M186.41742,72.50144l10.03089,-68.02849l97.94418,12.47182l-11.19593,70.91251l-97.64771,-13.5234z" fill="#ffd200" stroke="#000000" stroke-width="1" stroke-linecap="round"/><path d="M122.57731,-63.00397l243.06557,39.35747l-6.64297,17.03881l101.0302,5.71364l-3.64868,9.80069l-107.72428,-9.5705l3.5898,-16.35581l-227.52627,-36.65629z" fill="#2e332c" stroke="#000000" stroke-width="1" stroke-linecap="round"/><path d="M429.66725,47.22948l227.20118,32.0921l-5.38409,8.78924l-221.4198,-31.31912z" fill="#2e332c" stroke="#000000" stroke-width="1" stroke-linecap="round"/><path d="M467.6969,72.93017l109.20512,15.6922l-3.18704,31.99834l-111.99295,-14.66196z" fill="#ffd200" stroke="#000000" stroke-width="1" stroke-linecap="round"/><path d="M574.2222,214.18168l-7.37617,67.99373l-127.54025,-16.42889l6.89667,-69.0711l127.24909,16.85762z" fill="#ffd200" stroke="#000000" stroke-width="1" stroke-linecap="round"/><path d="M326.80582,304.71979l15.18879,-114.76745l41.98334,5.45738l-13.13088,113.36681z" fill="#341f1c" stroke="#000000" stroke-width="1" stroke-linecap="round"/><path d="M285.06387,119.36227l362.76096,52.08741l-7.74275,8.94153l-351.6037,-50.12799z" fill="#2e332c" stroke="#000000" stroke-width="1" stroke-linecap="round"/><path d="M405.46699,31.34338c-0.01179,0.24361 2.48095,1.70287 2.82642,1.91935c2.55247,1.59933 4.32252,1.54057 3.89825,4.75997c-1.03756,3.67825 -4.21222,5.01488 -7.19788,6.85734c-4.36292,2.69235 -8.799,5.32615 -12.26069,9.25511c-3.26448,3.37194 -7.00353,7.12509 -11.2109,9.30982c-1.3419,0.6968 -3.54646,0.66819 -5.00013,0.80567c-2.55386,0.24156 -4.08876,1.02608 -6.67422,0.6804c-8.71242,-1.16487 -5.60214,-11.85306 -3.17405,-17.43494c0.75811,-1.74279 1.08762,-3.20948 2.41175,-4.64008c4.72956,-4.65695 8.62843,-11.29108 15.00691,-13.93329c2.41743,-1.0014 5.42222,-1.19612 7.98836,-1.55739c5.68206,-0.48831 10.94447,-0.15308 15.70658,2.51583c-1.17418,-0.10513 -2.25672,0.147 -2.32038,1.46222z" data-paper-data="{&quot;noHover&quot;:false,&quot;origItem&quot;:[&quot;Path&quot;,{&quot;applyMatrix&quot;:true,&quot;segments&quot;:[[[351.92467,24.91393],[-1.17776,0.0514],[-5.0738,-2.01429]],[[336.05337,24.5144],[5.56723,-1.23701],[-2.49563,0.69816]],[[328.36282,27.11354],[2.2634,-1.31293],[-5.97206,3.4642]],[[315.3669,42.869],[4.07069,-5.24265],[-1.12286,1.59346]],[[313.59068,47.77608],[0.52046,-1.82789],[-1.66695,5.85443]],[[319.02846,64.6056],[-8.78995,0],[2.60846,0]],[[325.54511,63.04143],[-2.49932,0.57787],[1.42263,-0.32893]],[[330.38469,61.57669],[-1.23772,0.86849],[3.88074,-2.72304]],[[340.21963,50.87259],[-2.78883,3.77482],[2.91048,-4.35307]],[[351.12813,40.12515],[-3.96764,3.24679],[2.71516,-2.22187]],[[357.35797,32.38569],[-0.54096,3.78331],[-0.00611,-3.24723]],[[352.87014,28.19433],[2.7419,1.24696],[-0.37111,-0.16877]],[[349.81918,26.67133],[0.0206,0.24302],[-0.11119,-1.31205]]],&quot;closed&quot;:true}]}" fill="#ffffff" stroke="none" stroke-width="0.5" stroke-linecap="butt"/><path d="M321.14987,119.31424l0.01343,-0.74998c0.24783,-1.18747 0.52673,-3.64459 1.14236,-4.59045c0.84735,-1.30185 1.32374,-1.2215 1.58254,-2.95493c0.38023,-2.80572 1.13663,-5.58389 1.3121,-8.42858c0.41253,-6.68778 -0.83111,-12.84408 1.94861,-19.26626c1.91624,-2.59156 4.35642,-4.72867 6.28416,-7.29643c0.85033,-1.13266 1.17421,-2.105 2.4567,-2.8652c3.63925,-2.15718 8.51215,-2.10536 12.54336,-1.68789c9.12493,-0.77583 18.29874,0.58654 27.34774,0.02538c8.58495,0.30316 20.47009,2.77383 26.91106,8.88235c6.778,6.39511 10.61643,17.18674 10.33643,26.50825c-0.21631,7.24856 -2.24115,14.43661 -2.70571,21.60827c-0.4774,-1.27288 -1.32699,-2.54759 -1.92793,-3.70373c-2.41991,-3.17847 -5.14002,-6.35399 -7.07892,-9.85367c-1.83038,-3.3038 -3.26925,-7.18692 -6.23358,-9.71527c-1.14355,-0.97536 -2.62018,-1.33156 -3.77707,-2.22048c-9.00348,-3.10464 -17.08074,-7.30872 -26.83438,-7.10643c-4.8946,0.10797 -9.14279,1.14583 -13.84504,2.30462c-5.09683,1.25603 -10.20714,1.19905 -14.33964,4.87019c-4.93265,4.41542 -9.4826,9.82806 -13.79504,14.84418c-0.2714,0.31569 -0.77092,0.81331 -1.3412,1.39607z" data-paper-data="{&quot;noHover&quot;:false,&quot;origItem&quot;:[&quot;Path&quot;,{&quot;applyMatrix&quot;:true,&quot;segments&quot;:[[[322.44504,117.93772],[-0.2714,0.31569],[4.31244,-5.01612]],[[336.23667,103.08149],[-4.93265,4.41542],[4.1325,-3.67115]],[[350.57574,98.20414],[-5.09683,1.25603],[4.70225,-1.15879]],[[364.42538,95.87824],[-4.8946,0.10797],[9.75364,-0.20229]],[[391.35396,103.01648],[-9.00348,-3.10464],[1.15689,0.88892]],[[395.13043,105.23939],[-1.14355,-0.97536],[2.96434,2.52835]],[[401.36009,114.96459],[-1.83038,-3.3038],[1.9389,3.49968]],[[408.43605,124.82318],[-2.41991,-3.17847],[0.60093,1.15614]],[[410.28247,128.46901],[-0.4774,-1.27288],[0.46456,-7.17166]],[[412.97935,106.88062],[-0.21631,7.24856],[0.28001,-9.32151]],[[402.64773,80.40558],[6.778,6.39511],[-6.44097,-6.10852]],[[375.76885,71.54841],[8.58495,0.30316],[-9.04901,0.56116]],[[348.4639,71.51392],[9.12493,-0.77583],[-4.03121,-0.41746]],[[335.92981,73.19235],[3.63925,-2.15718],[-1.2825,0.7602]],[[333.47563,76.05384],[0.85033,-1.13266],[-1.92774,2.56777]],[[327.1961,83.34058],[1.91624,-2.59156],[-2.77971,6.42218]],[[325.25005,102.58519],[0.41253,-6.68778],[-0.17548,2.8447]],[[323.93628,111.00514],[0.38023,-2.80572],[-0.2588,1.73343]],[[322.35302,113.95775],[0.84735,-1.30185],[-0.61564,0.94586]],[[321.20929,118.54464],[0.24783,-1.18747],[0,0]],[[321.10414,119.33446],[0,0],[0.57028,-0.58276]]],&quot;closed&quot;:true}]}" fill="#5e0000" stroke="none" stroke-width="0.5" stroke-linecap="butt"/><path d="M321.28253,6.39464l-0.16561,-0.59425c0.8054,-0.06801 1.64305,-0.03713 2.41631,-0.05475c7.60962,-0.17334 11.42149,4.02695 17.17716,8.13406c4.28573,3.20839 9.17299,6.47756 12.9926,10.06503c3.12193,2.9322 3.36425,8.19701 4.12398,12.06183c0.87877,4.46427 1.85349,8.99318 0.67493,13.4807c-0.6058,2.30667 -1.96733,4.44171 -2.67762,6.72155c-0.81403,2.61285 -1.15223,5.23024 -2.57205,7.61659c-2.47101,2.5561 -5.95116,3.67968 -9.29402,4.53202c-2.18585,0.55733 -3.92533,1.40249 -6.2246,0.64804c-3.32443,-1.09084 -6.82561,-3.36569 -9.48762,-5.5844c-2.22301,-1.85209 -4.9976,-3.68141 -6.17823,-6.46157c-2.33411,-5.49636 -3.3683,-13.27251 -3.93519,-19.20692c-0.47389,-4.93347 -1.34019,-9.92043 -3.4178,-14.40294c-1.0503,-2.26606 -4.82448,-3.45973 -5.2632,-5.82398c-0.1881,-1.01367 0.54285,-2.33662 0.63317,-3.35931c1.999,-2.06197 4.4869,-4.00344 6.79656,-5.71336c0.8548,-0.63284 2.17979,-1.10804 2.9125,-1.88807c0.03474,0.18689 0.18359,0.666 0.78728,0.62702c0.74845,-0.04833 0.70144,-0.79731 0.70144,-0.79731z" data-paper-data="{&quot;noHover&quot;:false,&quot;origItem&quot;:[&quot;Path&quot;,{&quot;applyMatrix&quot;:true,&quot;segments&quot;:[[[262.53939,13.98753],[0.73544,-0.14709],[-0.5932,0.11864]],[[261.67657,13.47],[0.0592,0.18064],[-0.62288,0.87025]],[[259.04419,15.72453],[0.76339,-0.74054],[-2.06268,2.00092]],[[253.07416,22.27884],[1.70811,-2.3087],[0.04601,1.02564]],[[252.89435,25.68875],[-0.32078,-0.9798],[0.74817,2.28526]],[[258.88412,30.76192],[-1.34134,-2.10688],[2.65332,4.16765]],[[264.18665,44.55317],[-1.12351,-4.82715],[1.34832,5.80694]],[[270.60241,63.02996],[-3.04192,-5.13856],[1.53866,2.59918]],[[277.56629,68.61195],[-2.44885,-1.54115],[2.93256,1.84637]],[[287.69369,72.89147],[-3.43967,-0.64065],[2.37896,0.44309]],[[293.76846,71.42771],[-2.09271,0.84209],[3.20042,-1.28782]],[[302.36704,65.71323],[-2.11047,2.86102],[1.09105,-2.55346]],[[303.89984,57.83196],[-0.46059,2.69768],[0.40189,-2.35386]],[[305.65783,50.82622],[-0.29477,2.36661],[0.57347,-4.60414]],[[303.20103,37.57898],[1.46264,4.30844],[-1.26521,-3.73004]],[[297.52662,26.19333],[3.48298,2.49261],[-4.26134,-3.04965]],[[283.34392,17.95494],[4.67312,2.61213],[-6.24919,-3.30814]],[[265.26946,12.16504],[7.51953,-1.18026],[-0.7641,0.11993]],[[262.88476,12.53799],[0.78928,-0.17414],[0,0]],[263.12774,13.10501]],&quot;closed&quot;:true}]}" fill="#ffffff" stroke="none" stroke-width="0.5" stroke-linecap="butt"/><path d="M353.62211,45.21154c0.18298,-1.36853 1.44073,-2.32962 2.80926,-2.14664c1.36853,0.18298 2.32962,1.44073 2.14664,2.80926c-0.18298,1.36853 -1.44073,2.32962 -2.80926,2.14664c-1.36853,-0.18298 -2.32962,-1.44073 -2.14664,-2.80926z" fill="#000000" stroke="none" stroke-width="0.5" stroke-linecap="butt"/><path d="M394.70243,47.80398c0.18298,-1.36853 1.44073,-2.32962 2.80926,-2.14664c1.36853,0.18298 2.32962,1.44073 2.14664,2.80926c-0.18298,1.36853 -1.44073,2.32962 -2.80926,2.14664c-1.36853,-0.18298 -2.32962,-1.44073 -2.14664,-2.80926z" fill="#000000" stroke="none" stroke-width="0.5" stroke-linecap="butt"/><path d="M296.7426,-50.55078c0.59593,-0.45537 1.0513,0.14056 1.0513,0.14056l-0.02343,0.03272c2.83491,1.97492 4.84329,6.07308 7.37482,8.61982c7.26266,7.30627 15.20621,13.71355 22.14855,21.35672c2.62598,2.89106 5.77399,5.11903 8.52312,7.86928c4.45844,4.46024 7.55697,10.20226 11.43599,15.13135c3.29113,4.18355 6.40375,9.0539 10.20215,12.78314c2.27419,2.23279 5.5361,4.03347 8.17423,5.82487c0,0 0.62045,0.42135 0.1991,1.0418c-0.42135,0.62045 -1.0418,0.1991 -1.0418,0.1991c-2.70986,-1.84043 -6.01861,-3.68701 -8.36232,-5.97606c-3.85963,-3.76963 -7.01543,-8.70628 -10.35029,-12.94541c-3.84152,-4.88489 -6.90929,-10.60077 -11.33245,-15.01306c-2.76573,-2.75894 -5.9191,-5.00108 -8.55809,-7.90648c-6.92671,-7.62595 -14.85523,-14.01744 -22.10204,-21.30777c-1.42568,-1.43425 -2.92799,-2.85424 -4.14256,-4.47984c-1.02706,-1.37463 -1.55727,-3.00174 -3.01113,-3.95655l-0.32573,-0.36289c0,0 -0.45537,-0.59593 0.14056,-1.0513z" fill="#000000" stroke="none" stroke-width="0.5" stroke-linecap="butt"/><path d="M431.99067,-43.30088c0.45537,0.59593 -0.14056,1.0513 -0.14056,1.0513l-0.23052,0.12771c-5.58198,8.21967 -11.35038,16.09951 -17.2799,24.07935c-6.14996,8.27649 -12.76083,16.18357 -19.57746,23.91429c-4.05884,4.60312 -8.40228,8.4692 -12.95712,12.56295c-2.18724,1.96581 -4.24836,4.88362 -7.2414,5.37186c0,0 -0.74208,0.10865 -0.85074,-0.63343c-0.10865,-0.74208 0.63343,-0.85074 0.63343,-0.85074c2.52668,-0.31353 4.61716,-3.3506 6.45602,-5.00331c4.51328,-4.05639 8.81339,-7.87878 12.83473,-12.43938c6.78901,-7.6994 13.3735,-15.57391 19.49856,-23.81688c5.91759,-7.96378 11.67223,-15.82426 17.24299,-24.0274l0.56068,-0.47687c0,0 0.59593,-0.45537 1.0513,0.14056z" fill="#000000" stroke="none" stroke-width="0.5" stroke-linecap="butt"/><path d="M406.24588,45.8632l-0.0264,0.00142c-0.1725,0.10411 -0.34544,0.20916 -0.51858,0.31558c-4.24139,2.60713 -8.53054,5.1087 -11.89125,8.92942c-3.35842,3.47091 -7.20582,7.41224 -11.5712,9.61673c-1.53929,0.77732 -3.87743,0.81939 -5.54059,0.97528c-2.60201,0.24388 -4.31908,1.04109 -7.01337,0.68086c-1.29561,-0.17323 -2.6922,-0.12678 -3.792,-0.95783c-5.69795,-4.30561 -2.87708,-13.17416 -0.54943,-18.51689c0.02798,-0.06422 0.05549,-0.12803 0.0826,-0.19145c-0.01298,-0.04952 -0.02238,-0.10371 -0.02749,-0.16302c-0.03689,-0.42911 0.19383,-0.63299 0.39696,-0.7288c0.5894,-1.44945 1.09099,-2.71367 2.26037,-4.00079c0.40196,-0.39446 0.79744,-0.80142 1.18845,-1.21768c0.06243,-0.32595 0.34471,-0.47311 0.48946,-0.52811c0.70606,-0.77146 1.40006,-1.56937 2.09404,-2.37445c-0.07402,-0.12048 -0.11588,-0.28172 -0.0871,-0.49694c0.09939,-0.74338 0.84278,-0.64399 0.84278,-0.64399c0.06794,0.00908 0.13589,0.0179 0.20385,0.02646c3.12139,-3.61916 6.35411,-7.20411 10.78385,-9.01972c2.54764,-1.04419 5.63019,-1.26351 8.33111,-1.64538c7.19312,-0.61854 13.74659,0.06182 19.53969,4.67798c0,0 0.11255,0.08978 0.19969,0.23998c0.16836,0.16 0.26028,0.3957 0.22714,0.64352c-0.05489,0.41056 -0.43222,0.69888 -0.84278,0.64399l-1.34749,-0.18016c-0.18526,0.02985 -0.37062,0.05511 -0.55733,0.07434c0.29009,0.20909 0.54632,0.40362 0.72052,0.53103l0.72403,0.07146c0,0 0.70325,0.09403 0.6503,0.78318c0.75968,0.45936 1.34709,0.83113 1.76169,1.28253c0.17598,-0.06235 0.67125,-0.17769 0.93921,0.36991c0.26246,0.53633 -0.11105,0.85462 -0.27423,0.9621c0.11555,0.5844 0.10605,1.32339 -0.02886,2.31947c-0.25987,0.92207 -0.62443,1.71688 -1.07135,2.41812c0.07756,0.0111 0.15503,0.02183 0.23242,0.03217l0.37422,0.05003c0,0 0.74338,0.09939 0.64399,0.84278c-0.09939,0.74338 -0.84278,0.64399 -0.84278,0.64399l-0.37422,-0.05003c-0.3606,-0.04821 -0.72378,-0.10555 -1.08891,-0.16875c-1.27319,1.35385 -2.90164,2.33519 -4.61049,3.3587c-0.17896,0.3638 -0.63056,0.39296 -0.63056,0.39296zM393.82766,45.35295c-2.16935,-0.01214 -4.50217,0.28476 -6.67011,0.00334c-2.82122,-0.09884 -5.69626,0.82113 -8.53101,1.00421c-3.95416,0.25537 -7.80973,0.48384 -11.76946,0.81995c-0.04309,0.1035 -0.08743,0.20802 -0.13334,0.31357c-2.42809,5.58188 -5.55289,16.23683 3.15952,17.4017c2.58545,0.34568 4.1126,-0.44521 6.66646,-0.68676c1.45367,-0.1375 3.64911,-0.11367 4.99101,-0.81046c4.20738,-2.18473 7.90225,-5.93438 11.16674,-9.30633c2.92745,-3.32262 6.5345,-5.68459 10.21678,-7.96279c-3.03115,-0.00978 -6.02353,-0.75924 -9.09657,-0.77643z" fill="#000000" stroke="none" stroke-width="0.5" stroke-linecap="butt"/><path d="M412.37601,125.2066c0.74338,0.09939 0.64399,0.84278 0.64399,0.84278l-0.06012,0.40598c-0.01755,1.32416 -0.37585,7.2404 -2.78824,6.68843c-0.66563,-0.1523 -0.60333,-1.22775 -0.84127,-1.86778c-0.74225,-1.99658 -1.1507,-3.69005 -2.16108,-5.64952c-2.44931,-3.19303 -5.16795,-6.40923 -7.12129,-9.93497c-1.72437,-3.11246 -3.06572,-6.92246 -5.872,-9.29495c-1.07117,-0.90558 -2.43176,-1.22581 -3.52376,-2.05435c-8.8775,-2.81944 -16.61868,-7.18192 -26.19433,-6.96434c-4.78967,0.10215 -8.92648,1.15081 -13.52646,2.28346c-4.79857,1.18156 -9.82366,1.06169 -13.69572,4.539c-2.44773,2.17993 -4.26623,4.9836 -6.63083,7.26083c-1.40852,1.35648 -2.89865,2.44401 -4.13934,3.97274c-2.33883,2.88182 -4.65324,6.34768 -7.64007,8.67288l0.09065,0.08498l-0.73361,0.78249c-0.16008,0.17507 -0.40042,0.27154 -0.65338,0.23771c-0.41056,-0.05489 -0.69889,-0.43222 -0.64399,-0.84278l0.11675,-0.87318l0.03837,0.00513l-0.0174,-0.10728c0.94896,-2.17614 2.33187,-5.06347 2.63468,-7.41489c0,0 0.08104,-0.60613 0.64409,-0.65057c0.18218,-0.7901 0.40866,-1.5336 0.7142,-2.0504c0.48511,-0.82054 1.32578,-1.52707 1.43398,-2.47413c0.38005,-2.76661 1.12799,-5.49871 1.30261,-8.30356c0.4328,-6.95159 -0.78079,-13.24328 2.14357,-19.90798c1.93732,-2.65625 4.4202,-4.81536 6.37711,-7.43519c0.99039,-1.3259 1.43811,-2.3856 2.94861,-3.28719c0.9014,-0.53804 1.87674,-0.95073 2.89681,-1.26138c-0.29503,-0.06083 -0.58193,-0.13636 -0.85943,-0.22742c-3.49981,-1.14837 -7.16744,-3.52774 -9.96348,-5.85672c-2.43059,-2.02537 -5.26918,-3.98477 -6.57644,-7.00608c-0.97359,-2.25014 -1.18305,-4.73993 -1.70414,-7.12833c-0.90133,-4.13125 -1.9215,-8.29652 -2.32566,-12.49447c-0.29377,-3.06794 -0.84242,-5.86056 -1.65487,-8.68486c-0.0674,-0.00099 -0.13504,-0.0022 -0.20296,-0.00369l-0.06123,0.12329c0,0 -0.67367,0.32966 -1.00332,-0.34401l0.00001,-0.00001c-0.32966,-0.67367 0.34401,-1.00332 0.34401,-1.00332l0.49736,-0.18181c-0.03463,-0.10938 -0.06966,-0.21889 -0.10508,-0.32853c-0.20673,-0.09759 -0.46066,-0.31138 -0.39993,-0.76561v-0.00001c0.01246,-0.09317 0.03503,-0.17311 0.06499,-0.24166c-0.00634,-0.01857 -0.01271,-0.03716 -0.01908,-0.05574c-0.34416,-1.00409 -0.37737,-2.09682 -1.0452,-3.01463c-1.21629,-1.67156 -3.7435,-2.6922 -4.73806,-4.57278l-0.069,-0.00696c0,0 -0.74338,-0.09939 -0.64399,-0.84277v-0.00001c0.03783,-0.28293 0.16895,-0.44377 0.31687,-0.53449c-0.05662,-1.23947 0.60119,-2.71882 0.79178,-3.87272c0.91966,-1.03607 2.01617,-2.17107 3.2237,-3.27139l-0.02093,-0.62767c0.08272,0.01178 0.16552,0.02407 0.2484,0.03686l0.00108,-0.00351c0,0 0.027,0.00361 0.07002,0.0146l-0.00001,0.00001c0.09866,0.01556 0.19741,0.0318 0.29625,0.0487c1.61556,-1.41239 3.40103,-2.72944 5.21147,-3.65684h0.00002c-0.22232,-0.55746 0.32666,-0.8879 0.32666,-0.8879c1.6514,-0.95307 3.49758,-0.88246 5.39602,-0.92436c7.98151,-0.17609 12.03205,4.11611 18.06652,8.42276c2.35278,1.7611 4.47698,3.71702 6.74405,5.54563c0.22116,0.17839 0.44769,0.35144 0.67819,0.52052c0.0677,0.02131 0.13541,0.04236 0.20313,0.06315c0,0 0.35817,0.11004 0.49041,0.4277c1.69805,1.16471 3.52759,2.19344 4.96721,3.58331c2.14708,2.07288 3.07482,4.96114 3.68104,7.88891c0.03627,0.02353 0.0724,0.04734 0.10841,0.07145c0,0 0.62045,0.42135 0.1991,1.0418c-0.02382,0.03507 -0.04827,0.06681 -0.07321,0.09549c0.23603,1.2906 0.43348,2.56811 0.66957,3.76579c0.37923,1.92653 0.76898,3.85873 1.00995,5.79361c0.13206,0.20156 0.25444,0.41542 0.36606,0.64309c0,0 0.28127,0.57478 -0.20673,0.92231c0.17379,2.25558 0.08736,4.51369 -0.51117,6.76961c-0.61922,2.33388 -1.97442,4.47639 -2.69175,6.78263c-0.87444,2.81135 -1.2673,5.4998 -2.80211,8.06582c-1.92062,1.98514 -5.23538,3.96534 -8.69263,5.11152c0.94533,0.03697 1.87166,0.11073 2.75881,0.20512c9.11453,-0.76177 18.23214,0.58442 27.27008,0.03454c9.02249,0.31882 21.14185,2.89259 27.92779,9.26602c7.08148,6.68143 11.09033,17.87184 10.80156,27.61082c-0.18304,6.13384 -1.66039,12.21586 -2.38858,18.28662c0.08273,-0.01645 0.17747,-0.01988 0.28591,-0.00538zM319.78593,120.72605c0.18783,-0.20834 0.38022,-0.41547 0.57209,-0.61823c-0.03582,-0.00077 -0.07336,-0.00367 -0.1127,-0.00893c-0.07256,-0.0097 -0.13709,-0.02554 -0.19447,-0.04622c-0.08621,0.22535 -0.1748,0.45004 -0.26492,0.67338zM322.44504,117.93772c4.31244,-5.01612 8.85897,-10.44081 13.79162,-14.85623c4.1325,-3.67115 9.24224,-3.62133 14.33908,-4.87736c4.70225,-1.15879 8.95503,-2.21793 13.84963,-2.3259c9.75364,-0.20229 17.92511,4.0336 26.92859,7.13824c1.15689,0.88892 2.63291,1.24755 3.77646,2.22291c2.96434,2.52835 4.39928,6.4214 6.22966,9.7252c1.9389,3.49968 4.65606,6.68012 7.07597,9.85859c0.60093,1.15614 1.36901,2.37295 1.84641,3.64583c0.46456,-7.17166 2.48058,-14.33983 2.69689,-21.5884c0.28001,-9.32151 -3.55362,-20.07993 -10.33162,-26.47504c-6.44097,-6.10852 -18.29393,-8.55401 -26.87888,-8.85717c-9.04901,0.56116 -18.18002,-0.81032 -27.30495,-0.03449c-4.03121,-0.41746 -8.89484,-0.47875 -12.53408,1.67843c-1.2825,0.7602 -1.60385,1.72883 -2.45418,2.86149c-1.92774,2.56777 -4.3633,4.69518 -6.27954,7.28675c-2.77971,6.42218 -1.53352,12.55683 -1.94605,19.2446c-0.17548,2.8447 -0.93354,5.61423 -1.31377,8.41995c-0.2588,1.73343 -0.73592,1.65076 -1.58326,2.95261c-0.61564,0.94586 -0.89589,3.39942 -1.14373,4.58689l-0.10515,0.78982c0.57028,-0.58276 1.06951,-1.08105 1.34091,-1.39674zM353.74861,38.95832c-4.44305,-2.19307 -9.30533,-3.0769 -13.94945,-4.78108c-2.61045,-1.16419 -5.6493,-1.29409 -8.39399,-1.9927c-4.50023,-1.14546 -9.25987,-2.27413 -13.87865,-2.86651c-0.24541,-0.03359 -0.4879,-0.05566 -0.72925,-0.07037c0.70068,2.7781 1.11064,5.64524 1.38531,8.5047c0.56687,5.93441 1.57646,13.6677 3.91057,19.16406c1.18064,2.78016 3.9397,4.60355 6.16272,6.45563c2.66201,2.21872 6.14652,4.49306 9.47094,5.58389c2.29926,0.75445 4.02932,-0.08847 6.21517,-0.6458c3.34286,-0.85233 6.80903,-1.96846 9.28004,-4.52457c1.41982,-2.38635 1.7497,-4.99578 2.56373,-7.60863c0.71029,-2.27984 2.06511,-4.4043 2.67091,-6.71097c0.64684,-2.46294 0.64367,-4.9309 0.36384,-7.39452c-1.19143,-1.5799 -3.25706,-2.21733 -5.07188,-3.11312z" fill="#000000" stroke="none" stroke-width="0.5" stroke-linecap="butt"/><path d="M-546.54655,598.16817v-836.33634h1733.09309v836.33634z" fill="none" stroke="#f00000" stroke-width="0" stroke-linecap="butt"/></g></g></svg>