<svg version="1.1" xmlns="http://www.w3.org/2000/svg" xmlns:xlink="http://www.w3.org/1999/xlink" width="1733.09309" height="836.33634" viewBox="0,0,1733.09309,836.33634"><g transform="translate(546.54655,238.16817)"><g data-paper-data="{&quot;isPaintingLayer&quot;:true}" fill-rule="nonzero" stroke-linejoin="miter" stroke-miterlimit="10" stroke-dasharray="" stroke-dashoffset="0" style="mix-blend-mode: normal"><path d="M162.33164,323.88256l28.06257,-100.26411l78.41004,-0.89522l-16.50738,101.15933z" data-paper-data="{&quot;index&quot;:null}" fill="#cedce9" stroke="#000000" stroke-width="1" stroke-linecap="round"/><path d="M426.73991,330.53891l-14.60021,-128.11563l69.35105,1.13384l24.82037,126.98178z" data-paper-data="{&quot;index&quot;:null}" fill="#cedce9" stroke="#000000" stroke-width="1" stroke-linecap="round"/><path d="M512.90769,314.57731c-1.87696,0.35521 -3.72221,0.55845 -5.54899,0.70499c0.01236,0.05457 0.01878,0.1115 0.01878,0.17088c0,1.44628 -3.82126,1.44628 -3.82126,1.44628c-16.87736,0 -33.75469,0 -50.63205,0c-4.34303,0 -15.14964,-0.65615 -18.35283,0.20887c-1.84509,0.49826 -3.166,0.44895 -5.53023,0.51424c-0.26689,0.00738 -0.75224,0.02316 -1.18108,0.03284c2.28616,0.61769 1.18108,6.32619 1.18108,7.92178c0,6.74939 0,13.49874 0,20.24814c0,1.20523 0,2.41052 0,3.61575c0,0.4821 -0.67209,1.85582 0,1.44628c2.557,-1.55805 7.54718,-0.72035 13.37452,-0.72315c11.48691,-0.00551 23.78489,-0.47042 35.0668,0.31171c20.60159,1.55948 42.75156,-0.93207 63.18872,0.80539c17.21274,1.62867 37.81729,1.77546 55.55125,1.77546c4.45822,0 8.91635,0 13.37454,0c0.67077,0 1.72398,-0.03418 2.81439,-0.07167c-1.0969,-0.74191 0.05158,-2.53613 0.05158,-3.54409c0,-3.76549 3.33493,-10.26093 -0.7592,-13.64401c-3.61798,-4.10804 -5.90665,-8.0633 -11.8084,-12.16026c-4.35448,-3.02291 -11.13314,-5.70242 -14.73603,-8.7052c-1.74668,-1.78964 -3.31033,-0.5106 -8.99853,-0.92475c-12.58651,-0.91646 -25.21016,-0.72315 -38.21288,-0.72315c-4.73958,0 -10.6921,0.36423 -15.28519,0c-0.96956,-0.07686 -2.79171,-0.36267 -4.15751,-0.59676c2.49812,0.73047 -3.20218,1.43706 -5.59745,1.89035zM452.92399,314.00684c12.75538,0 25.51079,0 38.26613,0c0.36798,-0.06961 0.73583,-0.13926 1.10378,-0.20887c4.84664,-0.9172 9.22234,-0.67414 13.37454,-1.08472c5.65864,-0.55956 9.04336,-2.44401 14.88176,-2.89259c3.35391,-0.25766 12.64321,0.57044 17.39749,0.57044c12.89145,0 25.76875,-0.27902 38.21286,0.72315c6.99059,0.56295 12.89849,-0.53456 16.16766,2.81504c0.48195,1.27238 4.33924,2.06768 6.35671,3.04646c3.0832,1.49586 5.6602,3.71123 8.04599,5.36742c5.91439,4.10576 8.5149,8.32866 12.22313,12.53915c3.31386,4.43816 1.15142,9.94169 1.15142,14.55874c0,2.55256 1.0629,4.35166 -3.82126,6.50834c-1.70323,0.75207 -17.438,0 -20.06175,0c-18.29175,0 -39.66433,-0.18322 -57.40486,-1.86185c-19.48955,-2.15613 -42.68897,0.74972 -62.83396,-0.7752c-16.23363,-1.38391 -41.29089,2.30277 -54.58502,-2.42498c-1.31619,-0.4681 0,-4.29134 0,-5.06203c0,-6.74939 0,-13.49874 0,-20.24811c0,-2.25656 -2.62816,-7.64423 1.35878,-9.32459c6.95758,-2.9324 19.97872,-2.24578 30.16676,-2.24578z" data-paper-data="{&quot;index&quot;:null}" fill="#000000" stroke="none" stroke-width="1" stroke-linecap="butt"/><path d="M507.30544,315.21283c1.82673,-0.14655 3.69423,-0.35171 5.57127,-0.7069c2.39529,-0.45329 8.11822,-1.16078 5.62005,-1.89122c1.36579,0.23405 3.20312,0.51982 4.17257,0.59676c4.59312,0.36423 10.59888,0.00364 15.33838,0.00364c13.00264,0 25.70826,-0.17303 38.29475,0.7434c5.6882,0.41418 7.26369,-0.85937 9.01037,0.93027c3.60294,3.00277 10.41017,5.70385 14.7647,8.72672c5.90174,4.09695 8.19824,8.07966 11.81624,12.18772c4.09421,3.38309 0.74128,9.90356 0.74128,13.66901c0,1.00797 -1.15562,2.80724 -0.0587,3.54918c-1.09041,0.03748 -2.14502,0.0726 -2.81584,0.0726c-4.45819,0 -8.92412,0.00454 -13.38234,0.00454c-17.73406,0 -38.42225,-0.12159 -55.63502,-1.75029c-20.43718,-1.73746 -42.78961,0.74008 -63.39123,-0.81944c-11.28191,-0.78217 -23.61467,-0.33372 -35.10158,-0.32825c-5.82726,0.0028 -10.82199,-0.83802 -13.37901,0.72003c-0.67209,0.40951 -0.00288,-0.96636 -0.00288,-1.44846c0,-1.20523 -0.00655,-2.41635 -0.00655,-3.62158c0,-6.74939 -0.00795,-13.5389 -0.00795,-20.28829c0,-1.5956 1.11666,-7.31792 -1.16949,-7.93562c0.42891,-0.0097 0.91468,-0.02583 1.18152,-0.03321c2.36418,-0.06529 3.68808,-0.01838 5.53314,-0.51667c3.20317,-0.86502 14.01962,-0.2156 18.36263,-0.2156c16.87744,0 33.84474,-0.02874 50.72205,-0.02874c0,0 3.84004,-0.00246 3.84004,-1.44874c0,-0.05936 -0.00595,-0.11632 -0.01834,-0.17088z" data-paper-data="{&quot;noHover&quot;:false,&quot;origItem&quot;:[&quot;Path&quot;,{&quot;applyMatrix&quot;:true,&quot;segments&quot;:[[[579.60736,595.76373],[0.95609,-0.20262],[0.00646,0.07548]],[[579.61718,596],[0,-0.08208],[0,2]],[[577.61718,598],[0,0],[-8.83333,0]],[[551.11718,598],[8.83333,0],[-2.27308,0]],[[541.51161,598.28885],[1.67648,-1.19621],[-0.96568,0.68904]],[[538.61718,599],[1.23739,-0.09027],[-0.13966,0.01019]],[[537.99901,599.04541],[0.22447,-0.0134],[1.19653,0.85421]],[[538.61718,610],[0,-2.20646],[0,9.33333]],[[538.61718,638],[0,-9.33333],[0,1.66667]],[[538.61718,643],[0,-1.66667],[0,0.66667]],[[538.61718,645],[-0.35177,0.56631],[1.33831,-2.15456]],[[545.61718,644],[-3.04994,0.00386],[6.01206,-0.00761]],[[563.97058,644.43107],[-5.90478,-1.08158],[10.78253,2.15651]],[[597.04254,645.54479],[-10.6965,-2.40266],[9.00888,2.25222]],[[626.11718,648],[-9.28168,0],[2.33333,0]],[[633.11718,648],[-2.33333,0],[0.35109,0]],[[634.59021,647.90091],[-0.5707,0.05184],[-0.57412,-1.02596]],[[634.61718,643],[0,1.39387],[0,-5.20707]],[[634.21982,624.13246],[2.14282,4.67827],[-1.8936,-5.6808]],[[628.03948,607.31672],[3.08887,5.66543],[-2.2791,-4.1802]],[[620.32688,595.27881],[1.8857,4.15235],[-0.91417,-2.47477]],[[615.61718,594],[2.9771,0.57275],[-6.58756,-1.26734]],[[595.61718,593],[6.8054,0],[-2.48058,0]],[[587.61718,593],[2.40395,0.50364],[-0.50743,-0.10631]],[[585.44122,592.1748],[0.71481,0.32365],[1.30749,1.01011]],[[582.51161,594.78885],[1.25365,-0.62682],[-0.98239,0.4912]]],&quot;closed&quot;:true}],&quot;index&quot;:null}" fill="#484848" stroke="none" stroke-width="1" stroke-linecap="butt"/><path d="M560.8755,320.51515c0,-0.16773 -0.05293,-0.44854 -0.10353,-0.72448c-0.19682,0.11195 -0.49044,0.20746 -0.868,0.28862c-1.1322,0.43586 -2.84981,0.43586 -2.84981,0.43586c-14.55531,0 -22.96221,3.83944 -28.10771,7.87828c-0.60534,0.45822 -0.55186,1.01032 -0.55186,1.52262c0,0.14575 -0.03683,0.37741 -0.07706,0.61704c0.03847,-0.07714 0.13456,-0.14054 0.33014,-0.18122c0.86431,-0.17979 8.3781,0.92049 9.3001,0.28737c0.2771,-0.19029 -1.35909,-0.22611 -1.26884,-0.44068c1.10989,-2.63784 12.88031,-6.62784 18.66637,-7.72283c1.50067,-0.28401 3.19,-0.42692 4.86944,-0.49234c-0.65661,-0.38705 0.66074,-0.97943 0.66074,-1.46823zM528.29729,330.65278c-0.08664,0.51417 -0.16358,1.00567 0.09722,0.70957c0.17828,-0.20233 -0.07909,-0.48644 -0.09722,-0.70957zM522.11078,327.09987c5.46141,-3.89678 12.72497,-7.44984 24.04428,-8.84835c1.06329,-0.62893 3.25662,-0.62893 3.25662,-0.62893h1.91062c4.3263,0 6.61516,-0.57044 11.26217,-0.57044c6.45356,0 7.94955,4.85693 4.57483,6.27928c-2.12957,0.89754 -5.54545,1.19205 -8.39618,1.73149c-8.43822,1.59685 -11.56919,6.18564 -20.81534,8.46886c-9.79976,2.41992 -20.58855,-2.83525 -15.837,-6.432z" data-paper-data="{&quot;index&quot;:null}" fill="#000000" stroke="none" stroke-width="1" stroke-linecap="butt"/><path d="M560.91392,319.74224c0.05072,0.27589 0.11246,0.5608 0.11246,0.72849c0,0.48876 -1.30167,1.0901 -0.64508,1.47713c-1.67944,0.06546 -3.37846,0.20247 -4.87918,0.48644c-5.78614,1.09494 -17.61337,5.06474 -18.7232,7.70254c-0.09033,0.2146 1.36439,0.37743 1.08726,0.56774c-0.922,0.63312 -8.5009,-0.4862 -9.36521,-0.30641c-0.19568,0.0407 -0.29084,0.10446 -0.32925,0.18167c0.04026,-0.23963 0.07,-0.47461 0.07,-0.6204c0,-0.51231 -0.07013,-1.07443 0.53519,-1.53267c5.14545,-4.03884 13.85584,-7.96321 28.41115,-7.96321c0,0 1.72544,0.00312 2.85763,-0.43274c0.37759,-0.0812 0.67134,-0.1766 0.86808,-0.28859z" data-paper-data="{&quot;noHover&quot;:false,&quot;origItem&quot;:[&quot;Path&quot;,{&quot;applyMatrix&quot;:true,&quot;segments&quot;:[[[607.563,601.99816],[0.02649,0.38155],[-0.10299,0.15484]],[[607.10872,602.39727],[0.1976,-0.11227],[-0.59254,0.60273]],[[605.61718,603],[0,0],[-7.618,0]],[[590.90604,613.89443],[2.69308,-5.58508],[-0.31682,0.63364]],[[590.61718,616],[0,-0.70843],[0,0.20156]],[[590.57685,616.85325],[0.02106,-0.33136],[0.02013,-0.10671]],[[590.74964,616.60263],[-0.10238,0.05628],[0.45234,-0.24865]],[[595.61718,617],[-0.48256,0.87548],[0.14503,-0.26312]],[[594.95308,616.3906],[-0.04725,0.29671],[0.58086,-3.64773]],[[604.72276,605.71115],[-3.02833,1.51416],[0.78545,-0.39273]],[[607.27135,605.03032],[-0.87898,0.0905],[-0.34365,-0.53523]],[[607.61718,603],[0,0.6759],[0,-0.23192]]],&quot;closed&quot;:true}],&quot;index&quot;:null}" fill="#ffffff" stroke="none" stroke-width="1" stroke-linecap="butt"/><path d="M154.87338,318.20657c-2.70813,-0.43012 -9.15304,-1.10065 -6.32863,-1.7938c-1.5442,0.22212 -3.60437,0.49328 -4.70057,0.56625c-5.19308,0.34561 -11.92312,0 -17.28183,0c-14.70117,0 -28.97382,-0.18346 -43.20447,0.68619c-6.43122,0.39301 -8.19917,-0.82068 -10.174,0.87754c-4.07351,2.84935 -11.73765,5.39202 -16.66093,8.26051c-6.67266,3.88767 -9.26026,7.64086 -13.35088,11.53907c-4.62893,3.21026 -0.85837,9.37388 -0.85837,12.94701c0,0.95644 1.2985,2.659 0.05828,3.36303c1.23287,0.03556 2.42366,0.068 3.18205,0.068c5.04055,0 10.08102,0 15.12161,0c20.05045,0 43.34649,-0.13929 62.80768,-1.68475c23.1068,-1.64872 48.15011,0.71556 71.44277,-0.76423c12.75562,-0.74217 26.66,-0.30101 39.6474,-0.2958c6.58851,0.00264 12.23053,-0.79225 15.12156,0.68623c0.75988,0.38862 0,-0.91496 0,-1.37239c0,-1.14365 0,-2.28736 0,-3.43103c0,-6.40459 0,-12.80917 0,-19.21377c0,-1.51406 -1.24938,-6.93092 1.33535,-7.51709c-0.48488,-0.00922 -1.03368,-0.02415 -1.33535,-0.03117c-2.6731,-0.06195 -4.16652,-0.01516 -6.25263,-0.48799c-3.62161,-0.82085 -15.83986,-0.19821 -20.75018,-0.19821c-19.08196,0 -38.1639,0 -57.24591,0c0,0 -4.32043,0 -4.32043,-1.37239c0,-0.05633 0.00725,-0.11036 0.02122,-0.16213c-2.06539,-0.13905 -4.15171,-0.33191 -6.27383,-0.669zM222.69236,317.66526c11.51888,0 26.24093,-0.65154 34.10732,2.13106c4.5078,1.59454 1.53628,6.70697 1.53628,8.84827c0,6.40459 0,12.80917 0,19.21377c0,0.73135 1.48812,4.35927 0,4.80344c-15.03071,4.48623 -43.36103,0.98787 -61.71524,2.3011c-22.77645,1.447 -49.0063,-1.31038 -71.04168,0.7356c-20.05788,1.59286 -44.22231,1.76674 -64.90343,1.76674c-2.96648,0 -20.7567,0.71366 -22.68233,0c-5.52218,-2.0465 -4.32043,-3.75369 -4.32043,-6.17586c0,-4.38119 -2.44493,-9.60354 1.30185,-13.815c4.19262,-3.99536 7.13282,-8.00257 13.81979,-11.89856c2.69746,-1.57158 5.61106,-3.67379 9.09699,-5.09321c2.28101,-0.9288 6.64214,-1.68344 7.18705,-2.89085c3.69618,-3.17846 10.3758,-2.13702 18.27959,-2.67125c14.06962,-0.95095 28.62909,-0.68623 43.20447,-0.68623c5.37531,0 15.87804,-0.78585 19.67003,-0.54132c6.60103,0.42566 10.42788,2.21384 16.82567,2.74484c4.69459,0.38964 9.64187,0.15898 15.12161,1.02931c0.416,0.06608 0.83195,0.13216 1.24801,0.19821c14.42155,0 28.8431,0 43.26467,0z" data-paper-data="{&quot;index&quot;:null}" fill="#000000" stroke="none" stroke-width="1" stroke-linecap="butt"/><path d="M161.20721,318.8096c-0.014,0.05179 -0.02075,0.10582 -0.02075,0.16216c0,1.37239 4.34165,1.37475 4.34165,1.37475c19.08196,0 38.26561,0.02729 57.34765,0.02729c4.91032,0 17.13966,-0.61624 20.76127,0.20458c2.08604,0.4728 3.58291,0.42833 6.25591,0.49025c0.30172,0.00698 0.85091,0.02232 1.33585,0.03154c-2.58479,0.58616 -1.32224,6.01615 -1.32224,7.53024c0,6.40459 -0.00899,12.84726 -0.00899,19.25185c0,1.14365 -0.0074,2.2929 -0.0074,3.43659c0,0.45746 0.75661,1.76308 -0.00325,1.37448c-2.89103,-1.47848 -8.53817,-0.6806 -15.12665,-0.68326c-12.9874,-0.00524 -26.93113,-0.43075 -39.68675,0.31145c-23.29269,1.47981 -48.56495,-0.87116 -71.67175,0.77755c-19.46119,1.54552 -42.85179,1.66088 -62.90237,1.66088c-5.04055,0 -10.08985,-0.0043 -15.13039,-0.0043c-0.75845,0 -1.95085,-0.03332 -3.18366,-0.0689c1.24022,-0.70403 -0.06636,-2.41144 -0.06636,-3.36789c0,-3.57314 -3.7909,-9.76049 0.83808,-12.97079c4.09057,-3.89818 6.6871,-7.67743 13.35977,-11.56508c4.92336,-2.8685 12.61983,-5.43159 16.69337,-8.28094c1.97485,-1.69821 3.7562,-0.4897 10.1874,-0.88275c14.2306,-0.86965 28.59589,-0.70543 43.29701,-0.70543c5.35855,0 12.1489,0.34218 17.34198,-0.00343c1.09609,-0.07298 3.17346,-0.34413 4.71763,-0.56625c-2.82449,0.69315 3.64603,1.3645 6.35416,1.79461c2.12222,0.33706 4.23366,0.53171 6.29902,0.67078z" data-paper-data="{&quot;noHover&quot;:false,&quot;origItem&quot;:[&quot;Path&quot;,{&quot;applyMatrix&quot;:true,&quot;segments&quot;:[[[579.60736,595.76373],[0.95609,-0.20262],[0.00646,0.07548]],[[579.61718,596],[0,-0.08208],[0,2]],[[577.61718,598],[0,0],[-8.83333,0]],[[551.11718,598],[8.83333,0],[-2.27308,0]],[[541.51161,598.28885],[1.67648,-1.19621],[-0.96568,0.68904]],[[538.61718,599],[1.23739,-0.09027],[-0.13966,0.01019]],[[537.99901,599.04541],[0.22447,-0.0134],[1.19653,0.85421]],[[538.61718,610],[0,-2.20646],[0,9.33333]],[[538.61718,638],[0,-9.33333],[0,1.66667]],[[538.61718,643],[0,-1.66667],[0,0.66667]],[[538.61718,645],[-0.35177,0.56631],[1.33831,-2.15456]],[[545.61718,644],[-3.04994,0.00386],[6.01206,-0.00761]],[[563.97058,644.43107],[-5.90478,-1.08158],[10.78253,2.15651]],[[597.04254,645.54479],[-10.6965,-2.40266],[9.00888,2.25222]],[[626.11718,648],[-9.28168,0],[2.33333,0]],[[633.11718,648],[-2.33333,0],[0.35109,0]],[[634.59021,647.90091],[-0.5707,0.05184],[-0.57412,-1.02596]],[[634.61718,643],[0,1.39387],[0,-5.20707]],[[634.21982,624.13246],[2.14282,4.67827],[-1.8936,-5.6808]],[[628.03948,607.31672],[3.08887,5.66543],[-2.2791,-4.1802]],[[620.32688,595.27881],[1.8857,4.15235],[-0.91417,-2.47477]],[[615.61718,594],[2.9771,0.57275],[-6.58756,-1.26734]],[[595.61718,593],[6.8054,0],[-2.48058,0]],[[587.61718,593],[2.40395,0.50364],[-0.50743,-0.10631]],[[585.44122,592.1748],[0.71481,0.32365],[1.30749,1.01011]],[[582.51161,594.78885],[1.25365,-0.62682],[-0.98239,0.4912]]],&quot;closed&quot;:true}],&quot;index&quot;:null}" fill="#484848" stroke="none" stroke-width="1" stroke-linecap="butt"/><path d="M100.63977,323.84111c0,0.4638 1.48942,1.02593 0.74705,1.39319c1.8988,0.0621 3.8088,0.19769 5.50553,0.46719c6.54189,1.03902 19.84987,4.8252 21.10468,7.3283c0.10202,0.20363 -1.7479,0.23764 -1.43459,0.41818c1.04243,0.60077 9.53777,-0.44329 10.51491,-0.27269c0.22113,0.03862 0.3298,0.09879 0.3733,0.17197c-0.0455,-0.22736 -0.08716,-0.44719 -0.08716,-0.58552c0,-0.48612 0.06044,-1.01005 -0.62396,-1.44483c-5.81762,-3.83251 -15.32272,-7.47583 -31.77935,-7.47583c0,0 -1.94199,0 -3.2221,-0.41358c-0.42691,-0.07705 -0.75881,-0.16763 -0.98137,-0.27386c-0.05719,0.26181 -0.11701,0.52831 -0.11701,0.68747zM137.36357,334.13419c0.29487,0.28099 0.20788,-0.18541 0.10992,-0.67333c-0.02052,0.21174 -0.31146,0.48132 -0.10992,0.67333zM144.4682,330.08939c5.37222,3.41302 -6.82587,8.39971 -17.90574,6.10341c-10.45396,-2.16659 -13.99394,-6.52095 -23.53436,-8.03623c-3.22309,-0.51193 -7.08518,-0.79138 -9.49292,-1.64305c-3.81555,-1.34969 -2.12417,-5.95853 5.17244,-5.95853c5.25404,0 7.84187,0.54129 12.73331,0.54129h2.16022c0,0 2.47978,0 3.682,0.5968c12.79793,1.32702 21.01027,4.6986 27.18509,8.39631z" data-paper-data="{&quot;index&quot;:null}" fill="#000000" stroke="none" stroke-width="1" stroke-linecap="butt"/><path d="M100.59642,323.10761c0.2224,0.10624 0.55454,0.19681 0.98148,0.27386c1.28008,0.41358 3.23088,0.41064 3.23088,0.41064c16.45658,0 26.3048,3.72392 32.12239,7.55642c0.68443,0.43482 0.60508,0.96826 0.60508,1.45438c0,0.1383 0.03363,0.36127 0.07914,0.58866c-0.04345,-0.07323 -0.15103,-0.13373 -0.37224,-0.17237c-0.97722,-0.17062 -9.54611,0.8915 -10.58855,0.29076c-0.31331,-0.18058 1.33143,-0.33511 1.22928,-0.53871c-1.25476,-2.5031 -14.62697,-6.27004 -21.16893,-7.3091c-1.69676,-0.2695 -3.61774,-0.3995 -5.51655,-0.4616c0.74237,-0.36729 -0.72936,-0.93788 -0.72936,-1.40169c0,-0.15913 0.06981,-0.42947 0.12716,-0.69129z" data-paper-data="{&quot;noHover&quot;:false,&quot;origItem&quot;:[&quot;Path&quot;,{&quot;applyMatrix&quot;:true,&quot;segments&quot;:[[[607.563,601.99816],[0.02649,0.38155],[-0.10299,0.15484]],[[607.10872,602.39727],[0.1976,-0.11227],[-0.59254,0.60273]],[[605.61718,603],[0,0],[-7.618,0]],[[590.90604,613.89443],[2.69308,-5.58508],[-0.31682,0.63364]],[[590.61718,616],[0,-0.70843],[0,0.20156]],[[590.57685,616.85325],[0.02106,-0.33136],[0.02013,-0.10671]],[[590.74964,616.60263],[-0.10238,0.05628],[0.45234,-0.24865]],[[595.61718,617],[-0.48256,0.87548],[0.14503,-0.26312]],[[594.95308,616.3906],[-0.04725,0.29671],[0.58086,-3.64773]],[[604.72276,605.71115],[-3.02833,1.51416],[0.78545,-0.39273]],[[607.27135,605.03032],[-0.87898,0.0905],[-0.34365,-0.53523]],[[607.61718,603],[0,0.6759],[0,-0.23192]]],&quot;closed&quot;:true}],&quot;index&quot;:null}" fill="#ffffff" stroke="none" stroke-width="1" stroke-linecap="butt"/><g><g><path d="M34.85666,2.04671l207.76324,-34.04928l1.78346,16.49503l85.7819,-20.0648l8.08807,48.99331l194.30198,-35.4907l2.01497,-2.59439l64.05651,243.25494l-291.87309,65.56152l-7.06458,8.79135l-213.10469,38.64339z" fill="#e9e0d9" stroke="#000000" stroke-width="1" stroke-linecap="round"/><path d="M107.12555,191.41731l145.1661,-28.94889l14.19892,69.13451l-147.82633,33.085z" fill="#36578c" stroke="#000000" stroke-width="1" stroke-linecap="round"/><path d="M113.26906,106.25651l-12.18463,-67.67591l96.80833,-19.41019l12.00003,70.78088l-96.86265,18.31897z" fill="#36578c" stroke="#000000" stroke-width="1" stroke-linecap="round"/><path d="M9.55344,-1.81914l242.9273,-40.20213l-0.86312,18.26759l97.57831,-26.79962l-0.33312,10.45253l-105.15279,25.2786l-1.81289,-16.6467l-227.33783,37.80736z" fill="#2e332c" stroke="#000000" stroke-width="1" stroke-linecap="round"/><path d="M335.76292,4.73985l225.57435,-42.02964l-2.30046,10.04724l-219.84829,40.9188z" fill="#2e332c" stroke="#000000" stroke-width="1" stroke-linecap="round"/><path d="M380.00247,16.97264l108.50832,-19.94864l7.18248,31.34427l-110.82211,21.81404z" fill="#36578c" stroke="#000000" stroke-width="1" stroke-linecap="round"/><path d="M526.00736,116.88363l14.68969,66.79646l-126.12126,25.09684l-15.4877,-67.6647l125.98201,-24.59765z" fill="#36578c" stroke="#000000" stroke-width="1" stroke-linecap="round"/><path d="M320.37554,281.58812l-22.1994,-113.61978l41.53198,-8.21452l23.70327,111.63605z" fill="#341f1c" stroke="#000000" stroke-width="1" stroke-linecap="round"/><path d="M221.70845,119.2163l360.43373,-66.30338l-4.48744,10.94368l-349.23409,64.60285z" fill="#2e332c" stroke="#000000" stroke-width="1" stroke-linecap="round"/><path d="M307.76038,-2.60037c0.06651,0.23465 2.89443,0.82289 3.29089,0.91791c2.9292,0.70195 4.58812,0.08185 5.21255,3.26849c0.18946,3.81709 -2.39327,6.09624 -4.63559,8.79454c-3.27668,3.94299 -6.64137,7.85382 -8.66955,12.6815c-2.01888,4.23686 -4.366,8.98635 -7.65711,12.39861c-1.04966,1.08831 -3.14827,1.76415 -4.48222,2.35798c-2.34352,1.04328 -3.54815,2.27629 -6.10887,2.77306c-8.62907,1.67402 -9.08923,-9.448 -8.56776,-15.51275c0.16282,-1.89356 0.00746,-3.38875 0.8063,-5.16689c2.99774,-5.92195 4.5777,-13.45299 9.78071,-17.99115c1.97193,-1.71996 4.75778,-2.86264 7.07477,-4.02331c5.22975,-2.27463 10.32435,-3.6349 15.68891,-2.62377c-1.14641,0.27476 -2.09204,0.85891 -1.73301,2.12578z" data-paper-data="{&quot;noHover&quot;:false,&quot;origItem&quot;:[&quot;Path&quot;,{&quot;applyMatrix&quot;:true,&quot;segments&quot;:[[[351.92467,24.91393],[-1.17776,0.0514],[-5.0738,-2.01429]],[[336.05337,24.5144],[5.56723,-1.23701],[-2.49563,0.69816]],[[328.36282,27.11354],[2.2634,-1.31293],[-5.97206,3.4642]],[[315.3669,42.869],[4.07069,-5.24265],[-1.12286,1.59346]],[[313.59068,47.77608],[0.52046,-1.82789],[-1.66695,5.85443]],[[319.02846,64.6056],[-8.78995,0],[2.60846,0]],[[325.54511,63.04143],[-2.49932,0.57787],[1.42263,-0.32893]],[[330.38469,61.57669],[-1.23772,0.86849],[3.88074,-2.72304]],[[340.21963,50.87259],[-2.78883,3.77482],[2.91048,-4.35307]],[[351.12813,40.12515],[-3.96764,3.24679],[2.71516,-2.22187]],[[357.35797,32.38569],[-0.54096,3.78331],[-0.00611,-3.24723]],[[352.87014,28.19433],[2.7419,1.24696],[-0.37111,-0.16877]],[[349.81918,26.67133],[0.0206,0.24302],[-0.11119,-1.31205]]],&quot;closed&quot;:true}]}" fill="#ffffff" stroke="none" stroke-width="0.5" stroke-linecap="butt"/><path d="M220.01506,0.5967l-0.34645,-0.51042c0.74167,-0.32127 1.54544,-0.55911 2.27272,-0.82236c7.15713,-2.59073 12.10935,0.17483 18.87419,2.23227c5.08506,1.67434 10.75963,3.21448 15.52377,5.39675c3.89394,1.78366 5.80238,6.69638 7.75481,10.11721c2.2564,3.95103 4.62435,7.93272 4.93822,12.5618c0.16134,2.37943 -0.44833,4.83717 -0.39458,7.22448c0.06161,2.73602 0.57566,5.32463 -0.00912,8.03914c-1.52697,3.21059 -4.46719,5.38522 -7.36377,7.25899c-1.89403,1.22523 -3.27323,2.58093 -5.69304,2.59902c-3.49873,0.02615 -7.54252,-1.01355 -10.77304,-2.26763c-2.69754,-1.04657 -5.9106,-1.89568 -7.9161,-4.15425c-3.96487,-4.46519 -7.42462,-11.50565 -9.85419,-16.94953c-2.02226,-4.52483 -4.43351,-8.97524 -7.83199,-12.56129c-1.71804,-1.81286 -5.67583,-1.74077 -6.84553,-3.84172c-0.50151,-0.90078 -0.23055,-2.38774 -0.47105,-3.38585c1.23716,-2.59175 2.97613,-5.22518 4.61999,-7.58231c0.60838,-0.87237 1.71269,-1.74526 2.15843,-2.71821c0.09252,0.16606 0.38637,0.5727 0.94612,0.34326c0.69397,-0.28446 0.41059,-0.97935 0.41059,-0.97935z" data-paper-data="{&quot;noHover&quot;:false,&quot;origItem&quot;:[&quot;Path&quot;,{&quot;applyMatrix&quot;:true,&quot;segments&quot;:[[[262.53939,13.98753],[0.73544,-0.14709],[-0.5932,0.11864]],[[261.67657,13.47],[0.0592,0.18064],[-0.62288,0.87025]],[[259.04419,15.72453],[0.76339,-0.74054],[-2.06268,2.00092]],[[253.07416,22.27884],[1.70811,-2.3087],[0.04601,1.02564]],[[252.89435,25.68875],[-0.32078,-0.9798],[0.74817,2.28526]],[[258.88412,30.76192],[-1.34134,-2.10688],[2.65332,4.16765]],[[264.18665,44.55317],[-1.12351,-4.82715],[1.34832,5.80694]],[[270.60241,63.02996],[-3.04192,-5.13856],[1.53866,2.59918]],[[277.56629,68.61195],[-2.44885,-1.54115],[2.93256,1.84637]],[[287.69369,72.89147],[-3.43967,-0.64065],[2.37896,0.44309]],[[293.76846,71.42771],[-2.09271,0.84209],[3.20042,-1.28782]],[[302.36704,65.71323],[-2.11047,2.86102],[1.09105,-2.55346]],[[303.89984,57.83196],[-0.46059,2.69768],[0.40189,-2.35386]],[[305.65783,50.82622],[-0.29477,2.36661],[0.57347,-4.60414]],[[303.20103,37.57898],[1.46264,4.30844],[-1.26521,-3.73004]],[[297.52662,26.19333],[3.48298,2.49261],[-4.26134,-3.04965]],[[283.34392,17.95494],[4.67312,2.61213],[-6.24919,-3.30814]],[[265.26946,12.16504],[7.51953,-1.18026],[-0.7641,0.11993]],[[262.88476,12.53799],[0.78928,-0.17414],[0,0]],[263.12774,13.10501]],&quot;closed&quot;:true}]}" fill="#ffffff" stroke="#000000" stroke-width="1.5" stroke-linecap="butt"/><path d="M260.58139,25.11165c-0.26295,-1.35544 0.62269,-2.66741 1.97813,-2.93036c1.35544,-0.26295 2.66741,0.62269 2.93036,1.97813c0.26295,1.35544 -0.62269,2.66741 -1.97813,2.93036c-1.35544,0.26295 -2.66741,-0.62269 -2.93036,-1.97813z" fill="#000000" stroke="none" stroke-width="0.5" stroke-linecap="butt"/><path d="M301.10267,16.08046c-0.26295,-1.35544 0.62269,-2.66741 1.97813,-2.93036c1.35544,-0.26295 2.66741,0.62269 2.93036,1.97813c0.26295,1.35544 -0.62269,2.66741 -1.97813,2.93036c-1.35544,0.26295 -2.66741,-0.62269 -2.93036,-1.97813z" fill="#000000" stroke="none" stroke-width="0.5" stroke-linecap="butt"/><path d="M178.5982,-45.55125c0.41962,-0.62162 1.04125,-0.202 1.04125,-0.202l-0.01178,0.03849c3.31666,0.96788 6.52697,4.21171 9.73842,5.81829c9.21326,4.60908 18.78522,8.14897 27.80231,13.1795c3.41076,1.90282 7.10487,3.01069 10.58746,4.74078c5.64792,2.80577 10.41564,7.26005 15.6639,10.69496c4.45332,2.91574 8.95645,6.53936 13.7457,8.86275c2.86744,1.39107 6.53325,2.05765 9.60488,2.91434c0,0 0.72242,0.20152 0.5209,0.92394c-0.20152,0.72242 -0.92394,0.5209 -0.92394,0.5209c-3.15526,-0.88028 -6.8801,-1.57543 -9.83137,-2.99766c-4.86016,-2.34215 -9.42536,-6.01483 -13.93785,-8.96932c-5.19861,-3.40497 -9.92885,-7.84428 -15.52803,-10.61586c-3.50109,-1.73303 -7.20479,-2.85263 -10.63246,-4.76489c-8.99679,-5.01919 -18.54946,-8.54891 -27.74262,-13.14793c-1.80859,-0.90478 -3.68527,-1.77162 -5.35478,-2.92507c-1.41177,-0.97538 -2.43313,-2.34849 -4.11556,-2.78987l-0.42444,-0.24008c0,0 -0.62162,-0.41962 -0.202,-1.04125z" fill="#000000" stroke="none" stroke-width="0.5" stroke-linecap="butt"/><path d="M309.09808,-81.80569c0.62162,0.41962 0.202,1.04125 0.202,1.04125l-0.17776,0.19455c-2.66964,9.5705 -5.62432,18.87836 -8.69983,28.33236c-3.18985,9.80546 -6.93434,19.40777 -10.93009,28.90854c-2.37919,5.65706 -5.26315,10.70631 -8.27488,16.03874c-1.44624,2.56063 -2.46938,5.98335 -5.1505,7.40048c0,0 -0.6687,0.33961 -1.00831,-0.32909c-0.33961,-0.6687 0.32909,-1.00831 0.32909,-1.00831c2.29481,-1.10283 3.30775,-4.64795 4.52363,-6.80073c2.98425,-5.28378 5.84106,-10.27779 8.19827,-15.88259c3.97955,-9.46227 7.70943,-19.02529 10.88636,-28.79105c3.06932,-9.43499 6.01714,-18.7201 8.68141,-28.27136l0.37936,-0.63076c0,0 0.41962,-0.62162 1.04125,-0.202z" fill="#000000" stroke="none" stroke-width="0.5" stroke-linecap="butt"/><path d="M219.68831,47.69355c0.73666,0.14083 0.59583,0.87749 0.59583,0.87749l-0.24102,1.14396c-5.50157,7.12715 -5.1384,19.70137 0.82083,26.48595c4.81713,5.55051 9.65155,11.28415 15.15301,16.17918c2.02412,1.801 4.05668,4.1825 6.47543,5.40849c9.4308,4.84702 19.09277,4.61342 29.28295,6.73707c9.70691,2.04156 19.95086,1.35466 29.03385,-2.67641c5.56634,-2.47008 10.31167,-5.66175 15.3242,-9.0764c1.86452,-1.27016 4.08344,-2.35374 5.54425,-4.12852c0.94956,-1.15364 1.55043,-2.95275 2.23234,-4.28888c1.63235,-10.04229 1.24579,-20.25818 0.55844,-30.38141c-0.54783,-8.06845 -0.42697,-17.56295 -5.10147,-24.42064c0,0 -0.42132,-0.62048 0.19916,-1.04179c0.62048,-0.42132 1.04179,0.19916 1.04179,0.19916c4.8277,7.13496 4.78808,16.78155 5.35708,25.16167c0.69902,10.29505 1.14615,20.74859 -0.62951,30.94991c-0.73918,1.48931 -1.42173,3.45184 -2.47359,4.74263c-1.56067,1.91518 -3.8821,3.08378 -5.88499,4.44824c-5.08641,3.46509 -9.91047,6.70043 -15.55928,9.2071c-9.38827,4.16559 -19.9174,4.84659 -29.9483,2.77379c-5.36102,-1.11725 -10.72269,-1.4443 -16.12731,-2.05337c-4.64534,-0.52351 -9.43661,-2.7115 -13.53528,-4.81804c-2.54199,-1.32184 -4.64968,-3.71906 -6.78705,-5.62216c-5.54853,-4.94037 -10.42865,-10.71663 -15.28857,-16.31645c-6.0444,-7.03717 -7.18797,-20.72592 -1.0506,-28.09622l0.13032,-0.79852c0,0 0.14083,-0.73666 0.87749,-0.59583z" fill="#000000" stroke="none" stroke-width="0.5" stroke-linecap="butt"/></g><path d="M311.44042,-3.12079c0.49127,0.15197 0.9066,0.29774 1.06027,0.33478c3.31526,0.79918 4.51418,0.5872 5.213,4.22246c0.21641,4.33979 -2.44344,6.88463 -5.00067,9.95095c-3.18867,3.82347 -6.45626,7.56212 -8.42324,12.25501c-2.07636,4.36061 -4.46617,9.32301 -7.90074,12.80439c-1.21108,1.22757 -3.41375,2.01299 -4.94039,2.69107c-2.38842,1.06084 -3.76166,2.36395 -6.43017,2.88164c-1.28322,0.24894 -2.5921,0.73829 -3.89948,0.30131c-6.77343,-2.26398 -6.92767,-11.56907 -6.42514,-17.37512c0.18103,-2.09154 0.08359,-3.70686 0.94973,-5.68358c3.12422,-6.14618 4.73186,-13.75859 10.16019,-18.45765c2.0817,-1.80204 4.93341,-2.99283 7.37157,-4.21599c6.62041,-2.87989 13.04873,-4.32472 20.01137,-1.79674c0,0 0.1353,0.0492 0.26579,0.16378c0.21059,0.09797 0.37287,0.29205 0.42048,0.5375c0.07889,0.40663 -0.18681,0.80022 -0.59344,0.87911l-1.3346,0.25891c-0.16607,0.08737 -0.3337,0.17041 -0.50453,0.24817zM309.46777,-4.68323c-5.36455,-1.01113 -10.42715,0.3558 -15.6569,2.63043c-2.31699,1.16067 -5.08286,2.29626 -7.05479,4.01621c-5.20301,4.53816 -6.75975,12.02019 -9.75749,17.94213c-0.79884,1.77814 -0.64635,3.26199 -0.80917,5.15554c-0.52148,6.06474 -0.08567,17.1599 8.54339,15.48588c2.56072,-0.49677 3.75596,-1.73334 6.09949,-2.77661c1.33395,-0.59385 3.42238,-1.27131 4.47205,-2.35962c3.29112,-3.41228 5.59749,-8.14436 7.61637,-12.38122c2.02818,-4.82769 5.38535,-8.68524 8.66202,-12.62824c2.24232,-2.6983 4.83133,-4.96718 4.64186,-8.78426c-0.62442,-3.18663 -2.27474,-2.558 -5.20393,-3.25995c-0.39646,-0.095 -3.21866,-0.67942 -3.28517,-0.91407c-0.35903,-1.26686 0.58585,-1.85146 1.73226,-2.12622z" fill="#000000" stroke="none" stroke-width="0.5" stroke-linecap="butt"/></g><path d="M-546.54655,598.16817v-836.33634h1733.09309v836.33634z" fill="none" stroke="#f00000" stroke-width="0" stroke-linecap="butt"/></g></g></svg>