<svg version="1.1" xmlns="http://www.w3.org/2000/svg" xmlns:xlink="http://www.w3.org/1999/xlink" width="684.93453" height="502.3565" viewBox="0,0,684.93453,502.3565"><g transform="translate(-20.4366,144.57408)"><g data-paper-data="{&quot;isPaintingLayer&quot;:true}" fill-rule="nonzero" stroke-linejoin="miter" stroke-miterlimit="10" stroke-dasharray="" stroke-dashoffset="0" style="mix-blend-mode: normal"><path d="M162.33164,323.88256l28.06257,-100.26411l78.41004,-0.89522l-16.50738,101.15933z" data-paper-data="{&quot;index&quot;:null}" fill="#cedce9" stroke="#000000" stroke-width="1" stroke-linecap="round"/><path d="M511.31239,187.41623l-14.60021,-128.11563l69.35105,1.13384l24.82037,126.98178z" data-paper-data="{&quot;index&quot;:null}" fill="#cedce9" stroke="#000000" stroke-width="1" stroke-linecap="round"/><path d="M597.48017,171.45463c-1.87696,0.35521 -3.72221,0.55845 -5.54899,0.70499c0.01236,0.05457 0.01878,0.1115 0.01878,0.17088c0,1.44628 -3.82126,1.44628 -3.82126,1.44628c-16.87736,0 -33.75469,0 -50.63205,0c-4.34303,0 -15.14964,-0.65615 -18.35283,0.20887c-1.84509,0.49826 -3.166,0.44895 -5.53023,0.51424c-0.26689,0.00738 -0.75224,0.02316 -1.18108,0.03284c2.28616,0.61769 1.18108,6.32619 1.18108,7.92178c0,6.74939 0,13.49874 0,20.24814c0,1.20523 0,2.41052 0,3.61575c0,0.4821 -0.67209,1.85582 0,1.44628c2.557,-1.55805 7.54718,-0.72035 13.37452,-0.72315c11.48691,-0.00551 23.78489,-0.47042 35.0668,0.31171c20.60159,1.55948 42.75156,-0.93207 63.18872,0.80539c17.21274,1.62867 37.81729,1.77546 55.55125,1.77546c4.45822,0 8.91635,0 13.37454,0c0.67077,0 1.72398,-0.03418 2.81439,-0.07167c-1.0969,-0.74191 0.05158,-2.53613 0.05158,-3.54409c0,-3.76549 3.33493,-10.26093 -0.7592,-13.64401c-3.61798,-4.10804 -5.90665,-8.0633 -11.8084,-12.16026c-4.35448,-3.02291 -11.13314,-5.70242 -14.73603,-8.7052c-1.74668,-1.78964 -3.31033,-0.5106 -8.99853,-0.92475c-12.58651,-0.91646 -25.21016,-0.72315 -38.21288,-0.72315c-4.73958,0 -10.6921,0.36423 -15.28519,0c-0.96956,-0.07686 -2.79171,-0.36267 -4.15751,-0.59676c2.49812,0.73047 -3.20218,1.43706 -5.59745,1.89035zM537.49647,170.88416c12.75538,0 25.51079,0 38.26613,0c0.36798,-0.06961 0.73583,-0.13926 1.10378,-0.20887c4.84664,-0.9172 9.22234,-0.67414 13.37454,-1.08472c5.65864,-0.55956 9.04336,-2.44401 14.88176,-2.89259c3.35391,-0.25766 12.64321,0.57044 17.39749,0.57044c12.89145,0 25.76875,-0.27902 38.21286,0.72315c6.99059,0.56295 12.89849,-0.53456 16.16766,2.81504c0.48195,1.27238 4.33924,2.06768 6.35671,3.04646c3.0832,1.49586 5.6602,3.71123 8.04599,5.36742c5.91439,4.10576 8.5149,8.32866 12.22313,12.53915c3.31386,4.43816 1.15142,9.94169 1.15142,14.55874c0,2.55256 1.0629,4.35166 -3.82126,6.50834c-1.70323,0.75207 -17.438,0 -20.06175,0c-18.29175,0 -39.66433,-0.18322 -57.40486,-1.86185c-19.48955,-2.15613 -42.68897,0.74972 -62.83396,-0.7752c-16.23363,-1.38391 -41.29089,2.30277 -54.58502,-2.42498c-1.31619,-0.4681 0,-4.29134 0,-5.06203c0,-6.74939 0,-13.49874 0,-20.24811c0,-2.25656 -2.62816,-7.64423 1.35878,-9.32459c6.95758,-2.9324 19.97872,-2.24578 30.16676,-2.24578z" data-paper-data="{&quot;index&quot;:null}" fill="#000000" stroke="none" stroke-width="1" stroke-linecap="butt"/><path d="M591.87792,172.09015c1.82673,-0.14655 3.69423,-0.35171 5.57127,-0.7069c2.39529,-0.45329 8.11822,-1.16078 5.62005,-1.89122c1.36579,0.23405 3.20312,0.51982 4.17257,0.59676c4.59312,0.36423 10.59888,0.00364 15.33838,0.00364c13.00264,0 25.70826,-0.17303 38.29475,0.7434c5.6882,0.41418 7.26369,-0.85937 9.01037,0.93027c3.60294,3.00277 10.41017,5.70385 14.7647,8.72672c5.90174,4.09695 8.19824,8.07966 11.81624,12.18772c4.09421,3.38309 0.74128,9.90356 0.74128,13.66901c0,1.00797 -1.15562,2.80724 -0.0587,3.54918c-1.09041,0.03748 -2.14502,0.0726 -2.81584,0.0726c-4.45819,0 -8.92412,0.00454 -13.38234,0.00454c-17.73406,0 -38.42225,-0.12159 -55.63502,-1.75029c-20.43718,-1.73746 -42.78961,0.74008 -63.39123,-0.81944c-11.28191,-0.78217 -23.61467,-0.33372 -35.10158,-0.32825c-5.82726,0.0028 -10.82199,-0.83802 -13.37901,0.72003c-0.67209,0.40951 -0.00288,-0.96636 -0.00288,-1.44846c0,-1.20523 -0.00655,-2.41635 -0.00655,-3.62158c0,-6.74939 -0.00795,-13.5389 -0.00795,-20.28829c0,-1.5956 1.11666,-7.31792 -1.16949,-7.93562c0.42891,-0.0097 0.91468,-0.02583 1.18152,-0.03321c2.36418,-0.06529 3.68808,-0.01838 5.53314,-0.51667c3.20317,-0.86502 14.01962,-0.2156 18.36263,-0.2156c16.87744,0 33.84474,-0.02874 50.72205,-0.02874c0,0 3.84004,-0.00246 3.84004,-1.44874c0,-0.05936 -0.00595,-0.11632 -0.01834,-0.17088z" data-paper-data="{&quot;noHover&quot;:false,&quot;origItem&quot;:[&quot;Path&quot;,{&quot;applyMatrix&quot;:true,&quot;segments&quot;:[[[579.60736,595.76373],[0.95609,-0.20262],[0.00646,0.07548]],[[579.61718,596],[0,-0.08208],[0,2]],[[577.61718,598],[0,0],[-8.83333,0]],[[551.11718,598],[8.83333,0],[-2.27308,0]],[[541.51161,598.28885],[1.67648,-1.19621],[-0.96568,0.68904]],[[538.61718,599],[1.23739,-0.09027],[-0.13966,0.01019]],[[537.99901,599.04541],[0.22447,-0.0134],[1.19653,0.85421]],[[538.61718,610],[0,-2.20646],[0,9.33333]],[[538.61718,638],[0,-9.33333],[0,1.66667]],[[538.61718,643],[0,-1.66667],[0,0.66667]],[[538.61718,645],[-0.35177,0.56631],[1.33831,-2.15456]],[[545.61718,644],[-3.04994,0.00386],[6.01206,-0.00761]],[[563.97058,644.43107],[-5.90478,-1.08158],[10.78253,2.15651]],[[597.04254,645.54479],[-10.6965,-2.40266],[9.00888,2.25222]],[[626.11718,648],[-9.28168,0],[2.33333,0]],[[633.11718,648],[-2.33333,0],[0.35109,0]],[[634.59021,647.90091],[-0.5707,0.05184],[-0.57412,-1.02596]],[[634.61718,643],[0,1.39387],[0,-5.20707]],[[634.21982,624.13246],[2.14282,4.67827],[-1.8936,-5.6808]],[[628.03948,607.31672],[3.08887,5.66543],[-2.2791,-4.1802]],[[620.32688,595.27881],[1.8857,4.15235],[-0.91417,-2.47477]],[[615.61718,594],[2.9771,0.57275],[-6.58756,-1.26734]],[[595.61718,593],[6.8054,0],[-2.48058,0]],[[587.61718,593],[2.40395,0.50364],[-0.50743,-0.10631]],[[585.44122,592.1748],[0.71481,0.32365],[1.30749,1.01011]],[[582.51161,594.78885],[1.25365,-0.62682],[-0.98239,0.4912]]],&quot;closed&quot;:true}],&quot;index&quot;:null}" fill="#484848" stroke="none" stroke-width="1" stroke-linecap="butt"/><path d="M645.44798,177.39247c0,-0.16773 -0.05293,-0.44854 -0.10353,-0.72448c-0.19682,0.11195 -0.49044,0.20746 -0.868,0.28862c-1.1322,0.43586 -2.84981,0.43586 -2.84981,0.43586c-14.55531,0 -22.96221,3.83944 -28.10771,7.87828c-0.60534,0.45822 -0.55186,1.01032 -0.55186,1.52262c0,0.14575 -0.03683,0.37741 -0.07706,0.61704c0.03847,-0.07714 0.13456,-0.14054 0.33014,-0.18122c0.86431,-0.17979 8.3781,0.92049 9.3001,0.28737c0.2771,-0.19029 -1.35909,-0.22611 -1.26884,-0.44068c1.10989,-2.63784 12.88031,-6.62784 18.66637,-7.72283c1.50067,-0.28401 3.19,-0.42692 4.86944,-0.49234c-0.65661,-0.38705 0.66074,-0.97943 0.66074,-1.46823zM612.86977,187.5301c-0.08664,0.51417 -0.16358,1.00567 0.09722,0.70957c0.17828,-0.20233 -0.07909,-0.48644 -0.09722,-0.70957zM606.68326,183.97719c5.46141,-3.89678 12.72497,-7.44984 24.04428,-8.84835c1.06329,-0.62893 3.25662,-0.62893 3.25662,-0.62893h1.91062c4.3263,0 6.61516,-0.57044 11.26217,-0.57044c6.45356,0 7.94955,4.85693 4.57483,6.27928c-2.12957,0.89754 -5.54545,1.19205 -8.39618,1.73149c-8.43822,1.59685 -11.56919,6.18564 -20.81534,8.46886c-9.79976,2.41992 -20.58855,-2.83525 -15.837,-6.432z" data-paper-data="{&quot;index&quot;:null}" fill="#000000" stroke="none" stroke-width="1" stroke-linecap="butt"/><path d="M646.41577,175.69019c0.05072,0.27589 0.11246,0.5608 0.11246,0.72849c0,0.48876 -1.30167,1.0901 -0.64508,1.47713c-1.67944,0.06546 -3.37846,0.20247 -4.87918,0.48644c-5.78614,1.09494 -17.61337,5.06474 -18.7232,7.70254c-0.09033,0.2146 1.36439,0.37743 1.08726,0.56774c-0.922,0.63312 -8.5009,-0.4862 -9.36521,-0.30641c-0.19568,0.0407 -0.29084,0.10446 -0.32925,0.18167c0.04026,-0.23963 0.07,-0.47461 0.07,-0.6204c0,-0.51231 -0.07013,-1.07443 0.53519,-1.53267c5.14545,-4.03884 13.85584,-7.96321 28.41115,-7.96321c0,0 1.72544,0.00312 2.85763,-0.43274c0.37759,-0.0812 0.67134,-0.1766 0.86808,-0.28859z" data-paper-data="{&quot;noHover&quot;:false,&quot;origItem&quot;:[&quot;Path&quot;,{&quot;applyMatrix&quot;:true,&quot;segments&quot;:[[[607.563,601.99816],[0.02649,0.38155],[-0.10299,0.15484]],[[607.10872,602.39727],[0.1976,-0.11227],[-0.59254,0.60273]],[[605.61718,603],[0,0],[-7.618,0]],[[590.90604,613.89443],[2.69308,-5.58508],[-0.31682,0.63364]],[[590.61718,616],[0,-0.70843],[0,0.20156]],[[590.57685,616.85325],[0.02106,-0.33136],[0.02013,-0.10671]],[[590.74964,616.60263],[-0.10238,0.05628],[0.45234,-0.24865]],[[595.61718,617],[-0.48256,0.87548],[0.14503,-0.26312]],[[594.95308,616.3906],[-0.04725,0.29671],[0.58086,-3.64773]],[[604.72276,605.71115],[-3.02833,1.51416],[0.78545,-0.39273]],[[607.27135,605.03032],[-0.87898,0.0905],[-0.34365,-0.53523]],[[607.61718,603],[0,0.6759],[0,-0.23192]]],&quot;closed&quot;:true}],&quot;index&quot;:null}" fill="#ffffff" stroke="none" stroke-width="1" stroke-linecap="butt"/><path d="M154.87338,318.20657c-2.70813,-0.43012 -9.15304,-1.10065 -6.32863,-1.7938c-1.5442,0.22212 -3.60437,0.49328 -4.70057,0.56625c-5.19308,0.34561 -11.92312,0 -17.28183,0c-14.70117,0 -28.97382,-0.18346 -43.20447,0.68619c-6.43122,0.39301 -8.19917,-0.82068 -10.174,0.87754c-4.07351,2.84935 -11.73765,5.39202 -16.66093,8.26051c-6.67266,3.88767 -9.26026,7.64086 -13.35088,11.53907c-4.62893,3.21026 -0.85837,9.37388 -0.85837,12.94701c0,0.95644 1.2985,2.659 0.05828,3.36303c1.23287,0.03556 2.42366,0.068 3.18205,0.068c5.04055,0 10.08102,0 15.12161,0c20.05045,0 43.34649,-0.13929 62.80768,-1.68475c23.1068,-1.64872 48.15011,0.71556 71.44277,-0.76423c12.75562,-0.74217 26.66,-0.30101 39.6474,-0.2958c6.58851,0.00264 12.23053,-0.79225 15.12156,0.68623c0.75988,0.38862 0,-0.91496 0,-1.37239c0,-1.14365 0,-2.28736 0,-3.43103c0,-6.40459 0,-12.80917 0,-19.21377c0,-1.51406 -1.24938,-6.93092 1.33535,-7.51709c-0.48488,-0.00922 -1.03368,-0.02415 -1.33535,-0.03117c-2.6731,-0.06195 -4.16652,-0.01516 -6.25263,-0.48799c-3.62161,-0.82085 -15.83986,-0.19821 -20.75018,-0.19821c-19.08196,0 -38.1639,0 -57.24591,0c0,0 -4.32043,0 -4.32043,-1.37239c0,-0.05633 0.00725,-0.11036 0.02122,-0.16213c-2.06539,-0.13905 -4.15171,-0.33191 -6.27383,-0.669zM222.69236,317.66526c11.51888,0 26.24093,-0.65154 34.10732,2.13106c4.5078,1.59454 1.53628,6.70697 1.53628,8.84827c0,6.40459 0,12.80917 0,19.21377c0,0.73135 1.48812,4.35927 0,4.80344c-15.03071,4.48623 -43.36103,0.98787 -61.71524,2.3011c-22.77645,1.447 -49.0063,-1.31038 -71.04168,0.7356c-20.05788,1.59286 -44.22231,1.76674 -64.90343,1.76674c-2.96648,0 -20.7567,0.71366 -22.68233,0c-5.52218,-2.0465 -4.32043,-3.75369 -4.32043,-6.17586c0,-4.38119 -2.44493,-9.60354 1.30185,-13.815c4.19262,-3.99536 7.13282,-8.00257 13.81979,-11.89856c2.69746,-1.57158 5.61106,-3.67379 9.09699,-5.09321c2.28101,-0.9288 6.64214,-1.68344 7.18705,-2.89085c3.69618,-3.17846 10.3758,-2.13702 18.27959,-2.67125c14.06962,-0.95095 28.62909,-0.68623 43.20447,-0.68623c5.37531,0 15.87804,-0.78585 19.67003,-0.54132c6.60103,0.42566 10.42788,2.21384 16.82567,2.74484c4.69459,0.38964 9.64187,0.15898 15.12161,1.02931c0.416,0.06608 0.83195,0.13216 1.24801,0.19821c14.42155,0 28.8431,0 43.26467,0z" data-paper-data="{&quot;index&quot;:null}" fill="#000000" stroke="none" stroke-width="1" stroke-linecap="butt"/><path d="M161.20721,318.8096c-0.014,0.05179 -0.02075,0.10582 -0.02075,0.16216c0,1.37239 4.34165,1.37475 4.34165,1.37475c19.08196,0 38.26561,0.02729 57.34765,0.02729c4.91032,0 17.13966,-0.61624 20.76127,0.20458c2.08604,0.4728 3.58291,0.42833 6.25591,0.49025c0.30172,0.00698 0.85091,0.02232 1.33585,0.03154c-2.58479,0.58616 -1.32224,6.01615 -1.32224,7.53024c0,6.40459 -0.00899,12.84726 -0.00899,19.25185c0,1.14365 -0.0074,2.2929 -0.0074,3.43659c0,0.45746 0.75661,1.76308 -0.00325,1.37448c-2.89103,-1.47848 -8.53817,-0.6806 -15.12665,-0.68326c-12.9874,-0.00524 -26.93113,-0.43075 -39.68675,0.31145c-23.29269,1.47981 -48.56495,-0.87116 -71.67175,0.77755c-19.46119,1.54552 -42.85179,1.66088 -62.90237,1.66088c-5.04055,0 -10.08985,-0.0043 -15.13039,-0.0043c-0.75845,0 -1.95085,-0.03332 -3.18366,-0.0689c1.24022,-0.70403 -0.06636,-2.41144 -0.06636,-3.36789c0,-3.57314 -3.7909,-9.76049 0.83808,-12.97079c4.09057,-3.89818 6.6871,-7.67743 13.35977,-11.56508c4.92336,-2.8685 12.61983,-5.43159 16.69337,-8.28094c1.97485,-1.69821 3.7562,-0.4897 10.1874,-0.88275c14.2306,-0.86965 28.59589,-0.70543 43.29701,-0.70543c5.35855,0 12.1489,0.34218 17.34198,-0.00343c1.09609,-0.07298 3.17346,-0.34413 4.71763,-0.56625c-2.82449,0.69315 3.64603,1.3645 6.35416,1.79461c2.12222,0.33706 4.23366,0.53171 6.29902,0.67078z" data-paper-data="{&quot;noHover&quot;:false,&quot;origItem&quot;:[&quot;Path&quot;,{&quot;applyMatrix&quot;:true,&quot;segments&quot;:[[[579.60736,595.76373],[0.95609,-0.20262],[0.00646,0.07548]],[[579.61718,596],[0,-0.08208],[0,2]],[[577.61718,598],[0,0],[-8.83333,0]],[[551.11718,598],[8.83333,0],[-2.27308,0]],[[541.51161,598.28885],[1.67648,-1.19621],[-0.96568,0.68904]],[[538.61718,599],[1.23739,-0.09027],[-0.13966,0.01019]],[[537.99901,599.04541],[0.22447,-0.0134],[1.19653,0.85421]],[[538.61718,610],[0,-2.20646],[0,9.33333]],[[538.61718,638],[0,-9.33333],[0,1.66667]],[[538.61718,643],[0,-1.66667],[0,0.66667]],[[538.61718,645],[-0.35177,0.56631],[1.33831,-2.15456]],[[545.61718,644],[-3.04994,0.00386],[6.01206,-0.00761]],[[563.97058,644.43107],[-5.90478,-1.08158],[10.78253,2.15651]],[[597.04254,645.54479],[-10.6965,-2.40266],[9.00888,2.25222]],[[626.11718,648],[-9.28168,0],[2.33333,0]],[[633.11718,648],[-2.33333,0],[0.35109,0]],[[634.59021,647.90091],[-0.5707,0.05184],[-0.57412,-1.02596]],[[634.61718,643],[0,1.39387],[0,-5.20707]],[[634.21982,624.13246],[2.14282,4.67827],[-1.8936,-5.6808]],[[628.03948,607.31672],[3.08887,5.66543],[-2.2791,-4.1802]],[[620.32688,595.27881],[1.8857,4.15235],[-0.91417,-2.47477]],[[615.61718,594],[2.9771,0.57275],[-6.58756,-1.26734]],[[595.61718,593],[6.8054,0],[-2.48058,0]],[[587.61718,593],[2.40395,0.50364],[-0.50743,-0.10631]],[[585.44122,592.1748],[0.71481,0.32365],[1.30749,1.01011]],[[582.51161,594.78885],[1.25365,-0.62682],[-0.98239,0.4912]]],&quot;closed&quot;:true}],&quot;index&quot;:null}" fill="#484848" stroke="none" stroke-width="1" stroke-linecap="butt"/><path d="M100.63977,323.84111c0,0.4638 1.48942,1.02593 0.74705,1.39319c1.8988,0.0621 3.8088,0.19769 5.50553,0.46719c6.54189,1.03902 19.84987,4.8252 21.10468,7.3283c0.10202,0.20363 -1.7479,0.23764 -1.43459,0.41818c1.04243,0.60077 9.53777,-0.44329 10.51491,-0.27269c0.22113,0.03862 0.3298,0.09879 0.3733,0.17197c-0.0455,-0.22736 -0.08716,-0.44719 -0.08716,-0.58552c0,-0.48612 0.06044,-1.01005 -0.62396,-1.44483c-5.81762,-3.83251 -15.32272,-7.47583 -31.77935,-7.47583c0,0 -1.94199,0 -3.2221,-0.41358c-0.42691,-0.07705 -0.75881,-0.16763 -0.98137,-0.27386c-0.05719,0.26181 -0.11701,0.52831 -0.11701,0.68747zM137.36357,334.13419c0.29487,0.28099 0.20788,-0.18541 0.10992,-0.67333c-0.02052,0.21174 -0.31146,0.48132 -0.10992,0.67333zM144.4682,330.08939c5.37222,3.41302 -6.82587,8.39971 -17.90574,6.10341c-10.45396,-2.16659 -13.99394,-6.52095 -23.53436,-8.03623c-3.22309,-0.51193 -7.08518,-0.79138 -9.49292,-1.64305c-3.81555,-1.34969 -2.12417,-5.95853 5.17244,-5.95853c5.25404,0 7.84187,0.54129 12.73331,0.54129h2.16022c0,0 2.47978,0 3.682,0.5968c12.79793,1.32702 21.01027,4.6986 27.18509,8.39631z" data-paper-data="{&quot;index&quot;:null}" fill="#000000" stroke="none" stroke-width="1" stroke-linecap="butt"/><path d="M100.59642,323.10761c0.2224,0.10624 0.55454,0.19681 0.98148,0.27386c1.28008,0.41358 3.23088,0.41064 3.23088,0.41064c16.45658,0 26.3048,3.72392 32.12239,7.55642c0.68443,0.43482 0.60508,0.96826 0.60508,1.45438c0,0.1383 0.03363,0.36127 0.07914,0.58866c-0.04345,-0.07323 -0.15103,-0.13373 -0.37224,-0.17237c-0.97722,-0.17062 -9.54611,0.8915 -10.58855,0.29076c-0.31331,-0.18058 1.33143,-0.33511 1.22928,-0.53871c-1.25476,-2.5031 -14.62697,-6.27004 -21.16893,-7.3091c-1.69676,-0.2695 -3.61774,-0.3995 -5.51655,-0.4616c0.74237,-0.36729 -0.72936,-0.93788 -0.72936,-1.40169c0,-0.15913 0.06981,-0.42947 0.12716,-0.69129z" data-paper-data="{&quot;noHover&quot;:false,&quot;origItem&quot;:[&quot;Path&quot;,{&quot;applyMatrix&quot;:true,&quot;segments&quot;:[[[607.563,601.99816],[0.02649,0.38155],[-0.10299,0.15484]],[[607.10872,602.39727],[0.1976,-0.11227],[-0.59254,0.60273]],[[605.61718,603],[0,0],[-7.618,0]],[[590.90604,613.89443],[2.69308,-5.58508],[-0.31682,0.63364]],[[590.61718,616],[0,-0.70843],[0,0.20156]],[[590.57685,616.85325],[0.02106,-0.33136],[0.02013,-0.10671]],[[590.74964,616.60263],[-0.10238,0.05628],[0.45234,-0.24865]],[[595.61718,617],[-0.48256,0.87548],[0.14503,-0.26312]],[[594.95308,616.3906],[-0.04725,0.29671],[0.58086,-3.64773]],[[604.72276,605.71115],[-3.02833,1.51416],[0.78545,-0.39273]],[[607.27135,605.03032],[-0.87898,0.0905],[-0.34365,-0.53523]],[[607.61718,603],[0,0.6759],[0,-0.23192]]],&quot;closed&quot;:true}],&quot;index&quot;:null}" fill="#ffffff" stroke="none" stroke-width="1" stroke-linecap="butt"/><g><g><path d="M46.89294,-21.8831l200.66206,-63.71541l4.14841,16.06417l81.98197,-32.25039l15.08312,47.31026l187.1338,-63.19644l1.61891,-2.85834l98.53652,231.44493l-279.33528,107.05146l-5.72,9.71996l-205.28356,69.03318z" fill="#e9e0d9" stroke="#000000" stroke-width="1" stroke-linecap="round"/><path d="M145.7689,155.05633l139.45902,-49.62275l24.0404,66.35698l-141.49362,54.09987z" fill="#36578c" stroke="#000000" stroke-width="1" stroke-linecap="round"/><path d="M139.54148,69.90163l-21.83647,-65.20477l92.98725,-33.19607l22.1025,68.30383l-93.19869,32.12415z" fill="#36578c" stroke="#000000" stroke-width="1" stroke-linecap="round"/><path d="M21.29667,-22.05184l234.56789,-74.88518l1.78576,18.20057l92.68132,-40.6192l1.18085,10.39095l-100.39609,40.20872l-4.19945,-16.20999l-219.48812,70.26273z" fill="#2e332c" stroke="#000000" stroke-width="1" stroke-linecap="round"/><path d="M345.02995,-62.70169l217.13299,-74.18586l-0.8244,10.27422l-211.62756,72.25921z" fill="#2e332c" stroke="#000000" stroke-width="1" stroke-linecap="round"/><path d="M390.57288,-56.99029l104.48663,-35.41961l11.6366,29.97734l-106.50656,37.59979z" fill="#36578c" stroke="#000000" stroke-width="1" stroke-linecap="round"/><path d="M549.48321,20.77307l24.18815,63.97255l-121.17074,43.05899l-25.10325,-64.71636l121.10508,-42.54492z" fill="#36578c" stroke="#000000" stroke-width="1" stroke-linecap="round"/><path d="M369.81097,213.46427l-38.38539,-109.21918l39.90898,-14.13002l39.58681,107.03895z" fill="#341f1c" stroke="#000000" stroke-width="1" stroke-linecap="round"/><path d="M248.71544,67.05499l347.06907,-117.69312l-2.85888,11.47728l-336.23273,114.392z" fill="#2e332c" stroke="#000000" stroke-width="1" stroke-linecap="round"/><path d="M316.26061,-65.91827c0.09972,0.22258 2.98296,0.39598 3.38899,0.43271c2.99989,0.27129 4.55179,-0.58203 5.63016,2.48093c0.73907,3.74965 -1.48719,6.3781 -3.31605,9.37211c-2.67249,4.37511 -5.43672,8.73112 -6.74597,13.80121c-1.38543,4.48413 -3.02157,9.52295 -5.78503,13.37499c-0.88137,1.22857 -2.86029,2.20058 -4.09442,2.98095c-2.16816,1.37099 -3.18196,2.76513 -5.64402,3.62674c-8.29659,2.90342 -10.35914,-8.03536 -10.71955,-14.11181c-0.11252,-1.89721 -0.48232,-3.35426 0.05118,-5.22917c2.1105,-6.29299 2.58558,-13.9733 7.07818,-19.2157c1.70268,-1.98687 4.29416,-3.52013 6.41911,-5.00344c4.84615,-3.0065 9.69071,-5.0887 15.14508,-4.86341c-1.09467,0.43754 -1.94596,1.15221 -1.40763,2.3539z" data-paper-data="{&quot;noHover&quot;:false,&quot;origItem&quot;:[&quot;Path&quot;,{&quot;applyMatrix&quot;:true,&quot;segments&quot;:[[[351.92467,24.91393],[-1.17776,0.0514],[-5.0738,-2.01429]],[[336.05337,24.5144],[5.56723,-1.23701],[-2.49563,0.69816]],[[328.36282,27.11354],[2.2634,-1.31293],[-5.97206,3.4642]],[[315.3669,42.869],[4.07069,-5.24265],[-1.12286,1.59346]],[[313.59068,47.77608],[0.52046,-1.82789],[-1.66695,5.85443]],[[319.02846,64.6056],[-8.78995,0],[2.60846,0]],[[325.54511,63.04143],[-2.49932,0.57787],[1.42263,-0.32893]],[[330.38469,61.57669],[-1.23772,0.86849],[3.88074,-2.72304]],[[340.21963,50.87259],[-2.78883,3.77482],[2.91048,-4.35307]],[[351.12813,40.12515],[-3.96764,3.24679],[2.71516,-2.22187]],[[357.35797,32.38569],[-0.54096,3.78331],[-0.00611,-3.24723]],[[352.87014,28.19433],[2.7419,1.24696],[-0.37111,-0.16877]],[[349.81918,26.67133],[0.0206,0.24302],[-0.11119,-1.31205]]],&quot;closed&quot;:true}]}" fill="#ffffff" stroke="none" stroke-width="0.5" stroke-linecap="butt"/><path d="M229.8983,-50.07482l-0.41657,-0.455c0.68746,-0.42508 1.44842,-0.77657 2.13003,-1.14216c6.70762,-3.5978 12.00751,-1.57691 18.99866,-0.51864c5.27364,0.92193 11.11121,1.62588 16.1407,3.09679c4.11082,1.20223 6.70916,5.7876 9.13543,8.89038c2.80367,3.58349 5.72216,7.1812 6.70167,11.71633c0.50349,2.33114 0.25539,4.85118 0.65356,7.20567c0.45634,2.6984 1.33907,5.18555 1.1527,7.95608c-1.04699,3.39755 -3.64209,5.97424 -6.23749,8.24692c-1.69709,1.48607 -2.86591,3.02685 -5.2577,3.39443c-3.45823,0.53147 -7.60982,0.08705 -10.98765,-0.68703c-2.82046,-0.64577 -6.1225,-1.02165 -8.43333,-2.9667c-4.56851,-3.84536 -9.00935,-10.31196 -12.20011,-15.34761c-2.65491,-4.1851 -5.68397,-8.24035 -9.56499,-11.29765c-1.96198,-1.54556 -5.86781,-0.90229 -7.32884,-2.81216c-0.62642,-0.81885 -0.57318,-2.32936 -0.95539,-3.28224c0.84964,-2.74333 2.18981,-5.60041 3.47579,-8.17035c0.47593,-0.95113 1.44251,-1.97444 1.74297,-3.00159c0.11555,0.15095 0.46507,0.51086 0.98579,0.20293c0.64558,-0.38176 0.26476,-1.0284 0.26476,-1.0284z" data-paper-data="{&quot;noHover&quot;:false,&quot;origItem&quot;:[&quot;Path&quot;,{&quot;applyMatrix&quot;:true,&quot;segments&quot;:[[[262.53939,13.98753],[0.73544,-0.14709],[-0.5932,0.11864]],[[261.67657,13.47],[0.0592,0.18064],[-0.62288,0.87025]],[[259.04419,15.72453],[0.76339,-0.74054],[-2.06268,2.00092]],[[253.07416,22.27884],[1.70811,-2.3087],[0.04601,1.02564]],[[252.89435,25.68875],[-0.32078,-0.9798],[0.74817,2.28526]],[[258.88412,30.76192],[-1.34134,-2.10688],[2.65332,4.16765]],[[264.18665,44.55317],[-1.12351,-4.82715],[1.34832,5.80694]],[[270.60241,63.02996],[-3.04192,-5.13856],[1.53866,2.59918]],[[277.56629,68.61195],[-2.44885,-1.54115],[2.93256,1.84637]],[[287.69369,72.89147],[-3.43967,-0.64065],[2.37896,0.44309]],[[293.76846,71.42771],[-2.09271,0.84209],[3.20042,-1.28782]],[[302.36704,65.71323],[-2.11047,2.86102],[1.09105,-2.55346]],[[303.89984,57.83196],[-0.46059,2.69768],[0.40189,-2.35386]],[[305.65783,50.82622],[-0.29477,2.36661],[0.57347,-4.60414]],[[303.20103,37.57898],[1.46264,4.30844],[-1.26521,-3.73004]],[[297.52662,26.19333],[3.48298,2.49261],[-4.26134,-3.04965]],[[283.34392,17.95494],[4.67312,2.61213],[-6.24919,-3.30814]],[[265.26946,12.16504],[7.51953,-1.18026],[-0.7641,0.11993]],[[262.88476,12.53799],[0.78928,-0.17414],[0,0]],[263.12774,13.10501]],&quot;closed&quot;:true}]}" fill="#ffffff" stroke="#000000" stroke-width="1.5" stroke-linecap="butt"/><path d="M273.58145,-31.67937c-0.45606,-1.30321 0.23069,-2.7294 1.53391,-3.18546c1.30321,-0.45606 2.7294,0.23069 3.18546,1.53391c0.45606,1.30321 -0.23069,2.7294 -1.53391,3.18546c-1.30321,0.45606 -2.7294,-0.23069 -3.18546,-1.53391z" fill="#000000" stroke="none" stroke-width="0.5" stroke-linecap="butt"/><path d="M312.37232,-46.47142c-0.45606,-1.30321 0.23069,-2.7294 1.53391,-3.18546c1.30321,-0.45606 2.7294,0.23069 3.18546,1.53391c0.45606,1.30321 -0.23069,2.7294 -1.53391,3.18546c-1.30321,0.45606 -2.7294,-0.23069 -3.18546,-1.53391z" fill="#000000" stroke="none" stroke-width="0.5" stroke-linecap="butt"/><path d="M182.24741,-89.7533c0.32539,-0.67573 1.00113,-0.35035 1.00113,-0.35035l-0.00609,0.03979c3.42171,0.47844 7.06709,3.2243 10.47699,4.34994c9.7826,3.22931 19.76564,5.34881 29.41503,9.0235c3.64993,1.38996 7.46536,1.95238 11.16141,3.16104c5.99409,1.96015 11.35545,5.6787 17.045,8.31914c4.82792,2.24159 9.80743,5.17644 14.88216,6.78335c3.03836,0.9621 6.76202,1.09194 9.92521,1.49576c0,0 0.74396,0.09501 0.64895,0.83897c-0.09501,0.74396 -0.83897,0.64895 -0.83897,0.64895c-3.24935,-0.41508 -7.03555,-0.56466 -10.16136,-1.54548c-5.14761,-1.61523 -10.19562,-4.58965 -15.08769,-6.86104c-5.63609,-2.61799 -10.9582,-6.32714 -16.89912,-8.2605c-3.71478,-1.2089 -7.54139,-1.78154 -11.20942,-3.1784c-9.62767,-3.6664 -19.59015,-5.77863 -29.35141,-9.00088c-1.92035,-0.63393 -3.9026,-1.22047 -5.72127,-2.12056c-1.5379,-0.76113 -2.74697,-1.97223 -4.47552,-2.16585l-0.45468,-0.17622c0,0 -0.67573,-0.32539 -0.35035,-1.00113z" fill="#000000" stroke="none" stroke-width="0.5" stroke-linecap="butt"/><path d="M306.13844,-144.48552c0.67573,0.32539 0.35035,1.00113 0.35035,1.00113l-0.14778,0.2182c-1.2586,9.85583 -2.8372,19.49297 -4.51425,29.29217c-1.7394,10.1635 -4.05697,20.20613 -6.63784,30.18459c-1.53672,5.94149 -3.66075,11.3545 -5.87029,17.06618c-1.06103,2.74275 -1.57882,6.27739 -4.02701,8.06709c0,0 -0.6126,0.43268 -1.04528,-0.17993c-0.43268,-0.6126 0.17993,-1.04528 0.17993,-1.04528c2.11135,-1.42287 2.60136,-5.07716 3.49339,-7.38305c2.18938,-5.65957 4.29452,-11.01399 5.81705,-16.9006c2.5704,-9.93803 4.8792,-19.93967 6.61154,-30.06202c1.67367,-9.7795 3.24877,-19.39313 4.50484,-29.22915l0.28423,-0.67896c0,0 0.32539,-0.67573 1.00113,-0.35035z" fill="#000000" stroke="none" stroke-width="0.5" stroke-linecap="butt"/><path d="M236.38087,-3.4251c0.74928,0.0329 0.71638,0.78218 0.71638,0.78218l-0.07318,1.16678c-4.41389,7.84736 -2.23745,20.23712 4.63966,26.08933c5.56866,4.79613 11.1809,9.77098 17.33198,13.81962c2.26313,1.48959 4.61851,3.55237 7.18903,4.41597c10.03225,3.43331 19.55904,1.80593 29.94915,2.43472c9.90004,0.6174 19.93721,-1.54263 28.34233,-6.84395c5.15097,-3.24854 9.38526,-7.09244 13.85174,-11.19561c1.6614,-1.52627 3.70044,-2.91913 4.88945,-4.88638c0.77288,-1.27875 1.10746,-3.14581 1.58913,-4.56645c0.16402,-10.17277 -1.69476,-20.22557 -3.83779,-30.14321c-1.70804,-7.90459 -2.96048,-17.3169 -8.57691,-23.42711c0,0 -0.50656,-0.55308 0.04652,-1.05964c0.55308,-0.50656 1.05964,0.04652 1.05964,0.04652c5.80809,6.36243 7.1629,15.91349 8.93692,24.12342c2.1794,10.08597 4.13246,20.36518 3.84962,30.71602c-0.5162,1.5805 -0.90799,3.62106 -1.76228,5.0503c-1.26753,2.12061 -3.39572,3.61241 -5.18041,5.25198c-4.53229,4.16375 -8.83818,8.06225 -14.06546,11.3589c-8.68776,5.47855 -19.00797,7.67395 -29.23311,7.07245c-5.4662,-0.33081 -10.81885,0.12038 -16.25476,0.29871c-4.67223,0.15328 -9.72939,-1.31937 -14.08946,-2.81151c-2.70633,-0.94063 -5.13831,-3.00811 -7.52826,-4.58236c-6.20422,-4.0867 -11.86783,-9.09712 -17.48596,-13.93586c-6.99789,-6.08984 -10.10759,-19.46965 -5.09971,-27.64949l0.01356,-0.80897c0,0 0.0329,-0.74928 0.78218,-0.71638z" fill="#000000" stroke="none" stroke-width="0.5" stroke-linecap="butt"/></g><path d="M319.82682,-66.96502c0.50807,0.07938 0.94011,0.1636 1.09752,0.17805c3.39595,0.31171 4.55165,-0.0713 5.76846,3.42482c0.84127,4.26296 -1.42291,7.16546 -3.51019,10.56914c-2.60268,4.24413 -5.2957,8.41573 -6.56387,13.3436c-1.42442,4.61489 -3.07204,9.87055 -5.96747,13.81171c-1.02097,1.3897 -3.08702,2.48518 -4.49965,3.37675c-2.21005,1.39485 -3.38057,2.88273 -5.94626,3.78061c-1.23378,0.43176 -2.4582,1.10512 -3.81501,0.86165c-7.0295,-1.2614 -8.52678,-10.44653 -8.86855,-16.26426c-0.12312,-2.09575 -0.45296,-3.68003 0.11844,-5.76117c2.20325,-6.53314 2.69396,-14.29797 7.38626,-19.73214c1.79944,-2.08395 4.44914,-3.67433 6.68495,-5.23699c6.13475,-3.80637 12.28681,-6.16498 19.54168,-4.66969c0,0 0.14099,0.02913 0.28667,0.12365c0.22254,0.06651 0.41116,0.2351 0.49374,0.4711c0.13682,0.39096 -0.06921,0.81882 -0.46017,0.95564l-1.28318,0.44905c-0.1517,0.11045 -0.30557,0.21684 -0.46337,0.31847zM317.64909,-68.226c-5.45436,-0.22529 -10.26629,1.85888 -15.11244,4.86537c-2.12494,1.48331 -4.69768,3.00667 -6.40036,4.99353c-4.49259,5.2424 -4.95178,12.87086 -7.06228,19.16384c-0.5335,1.87491 -0.16818,3.32115 -0.05566,5.21836c0.3604,6.07644 2.39498,16.99216 10.69155,14.08874c2.46205,-0.8616 3.46605,-2.25791 5.63422,-3.62889c1.23413,-0.78038 3.20274,-1.75253 4.08412,-2.9811c2.76347,-3.85206 4.36181,-8.86776 5.74724,-13.35189c1.30925,-5.07011 4.07373,-9.3723 6.74621,-13.74742c1.82886,-2.99401 4.06282,-5.61321 3.32374,-9.36284c-1.07836,-3.06295 -2.62052,-2.20243 -5.6204,-2.47372c-0.40603,-0.03671 -3.28306,-0.20717 -3.38278,-0.42974c-0.53833,-1.20168 0.31215,-1.91669 1.40682,-2.35423z" fill="#000000" stroke="none" stroke-width="0.5" stroke-linecap="butt"/></g></g></g></svg>