<svg version="1.1" xmlns="http://www.w3.org/2000/svg" xmlns:xlink="http://www.w3.org/1999/xlink" width="2878.25006" height="1619.57958" viewBox="0,0,2878.25006,1619.57958"><g transform="translate(1119.12503,629.78979)"><g stroke-miterlimit="10"><path d="M-1119.12503,989.78979v-1619.57958h2878.25006v1619.57958z" fill="none" stroke="#000000" stroke-width="0" stroke-linecap="butt"/><g stroke-width="0"><path d="M120.78903,324.1049l34.28391,-35.94698l93.59733,3.68829l-20.4987,36.87351z" fill="#cedce9" stroke="#000000" stroke-linecap="round"/><path d="M111.92811,321.762c-3.22129,-0.66658 -10.89663,-1.81968 -7.50745,-2.5251c-1.84892,0.19327 -4.31493,0.42025 -5.62525,0.45352c-6.2074,0.15758 -14.23147,-0.6116 -20.6276,-0.88648c-17.54737,-0.75411 -34.57842,-1.71129 -51.5866,-1.37443c-7.68646,0.15224 -9.76525,-1.4273 -12.16636,0.55458c-4.93588,3.28638 -14.14952,6.01231 -20.10017,9.27852c-8.06507,4.42673 -11.25078,8.89804 -16.23413,13.47011c-5.60812,3.70055 -1.26705,11.45488 -1.35949,15.83805c-0.02474,1.17329 1.48112,3.3284 -0.01739,4.12841c1.47064,0.10688 2.89111,0.20777 3.79633,0.24668c6.0164,0.25856 12.03272,0.51711 18.04915,0.77567c23.93223,1.02851 51.74198,2.05264 75.01084,1.15509c27.62292,-0.83718 57.45351,3.34767 85.29391,2.72723c15.24434,-0.25613 31.82923,0.99831 47.33086,1.67093c7.86397,0.34122 14.61887,-0.34448 18.03136,1.61745c0.89693,0.51569 0.02367,-1.12236 0.03551,-1.68353c0.02958,-1.40291 0.05917,-2.80593 0.08875,-4.20884c0.16569,-7.85652 0.33138,-15.713 0.49707,-23.5695c0.03918,-1.85733 -1.31201,-8.56628 1.78836,-9.15274c-0.57846,-0.03616 -1.23307,-0.08263 -1.59307,-0.10672c-3.18898,-0.21312 -4.9728,-0.2323 -7.45053,-0.91933c-4.3015,-1.19272 -18.90126,-1.05569 -24.76226,-1.30756c-22.77626,-0.97881 -45.55247,-1.95764 -68.32874,-2.93648c0,0 -5.15688,-0.22161 -5.12137,-1.90513c0.00146,-0.06912 0.01149,-0.13499 0.02953,-0.19781c-2.46167,-0.27655 -4.94686,-0.62013 -7.47115,-1.14245zM192.89098,324.57687c13.74891,0.59087 31.33803,0.54679 40.65537,4.36374c5.3392,2.18723 1.66019,8.30623 1.6048,10.93295c-0.16569,7.85652 -0.33137,15.71298 -0.49707,23.5695c-0.01892,0.89715 1.66342,5.42385 -0.12427,5.89239c-18.0567,4.73225 -51.78133,-1.01241 -73.72282,-0.34296c-27.22341,0.60671 -58.46003,-4.12128 -84.81441,-2.7418c-23.98233,0.9251 -52.82947,-0.10116 -77.51444,-1.16202c-3.54078,-0.15218 -24.79357,-0.1893 -27.07361,-1.16352c-6.53834,-2.79372 -5.05977,-4.82626 -4.99709,-7.79755c0.11333,-5.3744 -2.66982,-11.90613 1.91125,-16.88009c5.10765,-4.68607 8.72076,-9.45087 16.80312,-13.88708c3.26033,-1.78949 6.79239,-4.21882 10.98993,-5.78121c2.74665,-1.02233 7.97165,-1.72433 8.65326,-3.1775c4.49402,-3.70942 12.4399,-2.08924 21.88761,-2.33913c16.81811,-0.44485 34.18941,0.62675 51.58661,1.37441c6.41598,0.27572 18.97231,-0.14947 23.49217,0.34497c7.86799,0.86076 12.38944,3.25064 20.01212,4.23015c5.59341,0.71876 11.50441,0.6896 18.02251,2.03833c0.49483,0.10244 0.98956,0.20479 1.48444,0.30719c17.21354,0.73977 34.42717,1.47954 51.64074,2.2193z" fill="#000000" stroke="none" stroke-linecap="butt"/><path d="M119.47267,322.82675c-0.01804,0.06281 -0.02747,0.12876 -0.02893,0.19788c-0.0355,1.68352 5.14663,1.90911 5.14663,1.90911c22.77621,0.97883 45.67312,1.99633 68.44947,2.97517c5.86097,0.25187 20.47384,0.12327 24.77533,1.31595c2.47768,0.68703 4.26551,0.70923 7.45436,0.9223c0.35995,0.02407 1.01509,0.071 1.59366,0.10719c-3.10038,0.58646 -1.73387,7.31219 -1.77305,9.16952c-0.16569,7.85651 -0.34312,15.7593 -0.50881,23.6158c-0.02959,1.40295 -0.06813,2.81236 -0.09771,4.21527c-0.01183,0.56117 0.85749,2.20158 -0.03945,1.68591c-3.41247,-1.96192 -10.17358,-1.27289 -18.03749,-1.61409c-15.50164,-0.67262 -32.13389,-1.90987 -47.37817,-1.65371c-27.84043,0.62045 -57.94455,-3.55982 -85.56749,-2.72264c-23.26885,0.89756 -51.19086,-0.16075 -75.12326,-1.18926c-6.01641,-0.25855 -12.04317,-0.52286 -18.05956,-0.78142c-0.9053,-0.0389 -2.32768,-0.14093 -3.79825,-0.2478c1.49853,-0.80004 -0.01682,-2.96148 0.00792,-4.13479c0.09244,-4.38317 -4.27228,-12.16767 1.33596,-15.86825c4.98341,-4.57209 8.18035,-9.0749 16.24542,-13.50162c5.95074,-3.26623 15.20351,-6.01556 20.13943,-9.30191c2.40107,-1.98188 4.49603,-0.40806 12.18246,-0.56028c17.00813,-0.33682 34.15033,0.60151 51.69757,1.35563c6.39603,0.27487 14.49209,1.04292 20.69949,0.88536c1.3102,-0.03328 3.79673,-0.25937 5.64564,-0.45263c-3.38928,0.70538 4.31656,1.86084 7.53792,2.52738c2.52437,0.52232 5.03955,0.86944 7.50116,1.14598z" fill="#d2d2d2" stroke="none" stroke-linecap="butt"/><path d="M47.04918,325.89203c-0.012,0.56897 1.75122,1.33495 0.85564,1.74739c2.26481,0.17354 4.5411,0.43785 6.55929,0.85548c7.78152,1.61018 23.56795,6.9373 25.00099,10.0722c0.11652,0.25499 -2.0924,0.20182 -1.72315,0.43937c1.22873,0.79045 11.39569,-0.05451 12.55769,0.20488c0.26293,0.05869 0.39101,0.13803 0.44106,0.23009c-0.04841,-0.28127 -0.09241,-0.55303 -0.08883,-0.7227c0.01257,-0.59635 0.0983,-1.23589 -0.70736,-1.8044c-6.84479,-4.99978 -18.09577,-9.95662 -37.7384,-10.80077c0,0 -2.31799,-0.09963 -3.8352,-0.67262c-0.50751,-0.11637 -0.90139,-0.24456 -1.16427,-0.38629c-0.07505,0.31823 -0.1534,0.64209 -0.15751,0.83732zM90.6164,340.40225c0.34468,0.3598 0.25295,-0.21677 0.14862,-0.82031c-0.02996,0.25868 -0.38423,0.57443 -0.14862,0.82031zM99.201,335.80498c6.32399,4.46228 -8.36464,9.95375 -21.53017,6.56855c-12.42176,-3.19401 -16.53437,-8.71708 -27.8827,-11.06527c-3.83382,-0.79332 -8.43639,-1.33425 -11.28824,-2.50252c-4.51929,-1.85141 -2.38123,-7.41825 6.32796,-7.04398c6.27123,0.26951 9.34605,1.06627 15.18445,1.31719l2.57844,0.11082c0,0 2.95992,0.12724 4.37938,0.92094c15.24125,2.28436 24.95631,6.84152 32.23092,11.69423z" fill="#000000" stroke="none" stroke-linecap="butt"/><path d="M47.0165,324.99006c0.26274,0.14174 0.6568,0.26986 1.16437,0.38626c1.51717,0.57302 3.84577,0.66946 3.84577,0.66946c19.6426,0.84415 31.30105,5.91741 38.14579,10.91719c0.80565,0.56848 0.69718,1.2188 0.68461,1.81512c-0.00359,0.16967 0.03084,0.44491 0.07925,0.72618c-0.04994,-0.09209 -0.1768,-0.17179 -0.43987,-0.23054c-1.16198,-0.25939 -11.41729,0.60396 -12.64602,-0.18648c-0.3693,-0.23757 1.59784,-0.34275 1.48121,-0.59779c-1.43298,-3.13491 -17.29655,-8.44176 -25.07817,-10.05192c-2.01827,-0.41763 -4.30777,-0.67564 -6.5726,-0.8492c0.89559,-0.41246 -0.84627,-1.1879 -0.83428,-1.75685c0.00411,-0.19523 0.09445,-0.52325 0.16965,-0.84147z" fill="#ffffff" stroke="none" stroke-linecap="butt"/></g><g stroke-width="0"><path d="M404.85587,286.83109l-20.4987,-36.87351l93.59733,-3.68829l34.28391,35.94698z" fill="#cedce9" stroke="#000000" stroke-linecap="round"/><path d="M521.09922,279.87351c-2.52429,0.52232 -5.00948,0.8659 -7.47115,1.14245c0.01804,0.06282 0.02807,0.12869 0.02953,0.19781c0.03551,1.68352 -5.12137,1.90513 -5.12137,1.90513c-22.77627,0.97884 -45.55248,1.95767 -68.32874,2.93648c-5.861,0.25187 -20.46076,0.11484 -24.76226,1.30756c-2.47773,0.68703 -4.26155,0.70621 -7.45053,0.91933c-0.36,0.02409 -1.01461,0.07056 -1.59307,0.10672c3.10037,0.58646 1.74918,7.29541 1.78836,9.15274c0.16569,7.8565 0.33138,15.71298 0.49707,23.5695c0.02958,1.40291 0.05917,2.80593 0.08875,4.20884c0.01184,0.56117 -0.86142,2.19922 0.03551,1.68353c3.41249,-1.96193 10.16739,-1.27623 18.03136,-1.61745c15.50163,-0.67262 32.08652,-1.92706 47.33086,-1.67093c27.8404,0.62044 57.67099,-3.56441 85.29391,-2.72723c23.26886,0.89755 51.07861,-0.12658 75.01084,-1.15509c6.01643,-0.25856 12.03275,-0.51711 18.04915,-0.77567c0.90522,-0.03891 2.32569,-0.1398 3.79633,-0.24668c-1.49851,-0.80001 0.00735,-2.95512 -0.01739,-4.12841c-0.09244,-4.38317 4.24863,-12.1375 -1.35949,-15.83805c-4.98335,-4.57207 -8.16906,-9.04338 -16.23413,-13.47011c-5.95065,-3.26621 -15.16429,-5.99214 -20.10017,-9.27852c-2.40111,-1.98188 -4.4799,-0.40234 -12.16636,-0.55458c-17.00818,-0.33686 -34.03923,0.62032 -51.5866,1.37443c-6.39613,0.27488 -14.4202,1.04406 -20.6276,0.88648c-1.31032,-0.03327 -3.77633,-0.26025 -5.62525,-0.45352c3.38918,0.70542 -4.28616,1.85852 -7.50745,2.5251zM440.13624,282.68832c17.21357,-0.73976 34.4272,-1.47953 51.64074,-2.2193c0.49488,-0.1024 0.98961,-0.20475 1.48444,-0.30719c6.5181,-1.34873 12.4291,-1.31957 18.02251,-2.03833c7.62268,-0.97951 12.14413,-3.36939 20.01212,-4.23015c4.51986,-0.49444 17.07619,-0.06925 23.49217,-0.34497c17.3972,-0.74766 34.7685,-1.81926 51.58661,-1.37441c9.44771,0.24989 17.39359,-1.37029 21.88761,2.33913c0.68161,1.45317 5.90661,2.15517 8.65326,3.1775c4.19754,1.56239 7.7296,3.99172 10.98993,5.78121c8.08236,4.43621 11.69547,9.20101 16.80312,13.88708c4.58107,4.97396 1.79792,11.50569 1.91125,16.88009c0.06268,2.97129 1.54125,5.00383 -4.99709,7.79755c-2.28004,0.97422 -23.53283,1.01134 -27.07361,1.16352c-24.68497,1.06086 -53.53211,2.08712 -77.51444,1.16202c-26.35438,-1.37948 -57.591,3.34851 -84.81441,2.7418c-21.94149,-0.66945 -55.66612,5.07521 -73.72282,0.34296c-1.78769,-0.46854 -0.10535,-4.99524 -0.12427,-5.89239c-0.1657,-7.85652 -0.33138,-15.71298 -0.49707,-23.5695c-0.05539,-2.62672 -3.7344,-8.74572 1.6048,-10.93295c9.31734,-3.81695 26.90646,-3.77287 40.65537,-4.36374z" fill="#000000" stroke="none" stroke-linecap="butt"/><path d="M513.55452,280.93817c2.46161,-0.27654 4.97679,-0.62366 7.50116,-1.14598c3.22136,-0.66654 10.9272,-1.822 7.53792,-2.52738c1.84891,0.19326 4.33544,0.41935 5.64564,0.45263c6.2074,0.15756 14.30346,-0.61049 20.69949,-0.88536c17.54724,-0.75412 34.68944,-1.69245 51.69757,-1.35563c7.68643,0.15222 9.78139,-1.4216 12.18246,0.56028c4.93592,3.28635 14.18869,6.03568 20.13943,9.30191c8.06507,4.42672 11.26201,8.92953 16.24542,13.50162c5.60824,3.70058 1.24352,11.48508 1.33596,15.86825c0.02474,1.17331 -1.49061,3.33475 0.00792,4.13479c-1.47057,0.10687 -2.89295,0.2089 -3.79825,0.2478c-6.01639,0.25856 -12.04315,0.52287 -18.05956,0.78142c-23.9324,1.02851 -51.85441,2.08682 -75.12326,1.18926c-27.62294,-0.83718 -57.72706,3.34309 -85.56749,2.72264c-15.24428,-0.25616 -31.87653,0.98109 -47.37817,1.65371c-7.86391,0.3412 -14.62502,-0.34783 -18.03749,1.61409c-0.89694,0.51567 -0.02762,-1.12474 -0.03945,-1.68591c-0.02958,-1.40291 -0.06812,-2.81232 -0.09771,-4.21527c-0.16569,-7.8565 -0.34312,-15.75929 -0.50881,-23.6158c-0.03918,-1.85733 1.32733,-8.58306 -1.77305,-9.16952c0.57857,-0.03619 1.23371,-0.08312 1.59366,-0.10719c3.18885,-0.21307 4.97668,-0.23527 7.45436,-0.9223c4.30149,-1.19268 18.91436,-1.06408 24.77533,-1.31595c22.77635,-0.97884 45.67326,-1.99634 68.44947,-2.97517c0,0 5.18213,-0.22559 5.14663,-1.90911c-0.00146,-0.06912 -0.01089,-0.13507 -0.02893,-0.19788z" fill="#d2d2d2" stroke="none" stroke-linecap="butt"/><path d="M585.9783,284.00335c-0.00411,-0.19523 -0.08246,-0.51909 -0.15751,-0.83732c-0.26288,0.14173 -0.65676,0.26992 -1.16427,0.38629c-1.51721,0.57299 -3.8352,0.67262 -3.8352,0.67262c-19.64263,0.84415 -30.89361,5.80099 -37.7384,10.80077c-0.80566,0.56851 -0.71993,1.20805 -0.70736,1.8044c0.00358,0.16967 -0.04042,0.44143 -0.08883,0.7227c0.05005,-0.09206 0.17813,-0.1714 0.44106,-0.23009c1.162,-0.25939 11.32896,0.58557 12.55769,-0.20488c0.36925,-0.23755 -1.83967,-0.18438 -1.72315,-0.43937c1.43304,-3.1349 17.21947,-8.46202 25.00099,-10.0722c2.01819,-0.41763 4.29448,-0.68194 6.55929,-0.85548c-0.89558,-0.41244 0.86764,-1.17842 0.85564,-1.74739zM542.26242,297.69332c-0.10433,0.60354 -0.19606,1.18011 0.14862,0.82031c0.23561,-0.24588 -0.11866,-0.56163 -0.14862,-0.82031zM533.8264,293.91631c7.27461,-4.85271 16.98967,-9.40987 32.23092,-11.69423c1.41946,-0.7937 4.37938,-0.92094 4.37938,-0.92094l2.57844,-0.11082c5.8384,-0.25092 8.91322,-1.04768 15.18445,-1.31719c8.70919,-0.37427 10.84725,5.19257 6.32796,7.04398c-2.85185,1.16827 -7.45442,1.7092 -11.28824,2.50252c-11.34833,2.34819 -15.46094,7.87126 -27.8827,11.06527c-13.16553,3.3852 -27.85416,-2.10627 -21.53017,-6.56855z" fill="#000000" stroke="none" stroke-linecap="butt"/><path d="M586.01122,283.1014c0.0752,0.31822 0.16554,0.64624 0.16965,0.84147c0.01199,0.56895 -1.72987,1.34439 -0.83428,1.75685c-2.26483,0.17356 -4.55433,0.43157 -6.5726,0.8492c-7.78162,1.61016 -23.64519,6.91701 -25.07817,10.05192c-0.11663,0.25504 1.85051,0.36022 1.48121,0.59779c-1.22873,0.79044 -11.48404,-0.07291 -12.64602,0.18648c-0.26307,0.05875 -0.38993,0.13845 -0.43987,0.23054c0.04841,-0.28127 0.08284,-0.55651 0.07925,-0.72618c-0.01257,-0.59632 -0.12104,-1.24664 0.68461,-1.81512c6.84474,-4.99978 18.50319,-10.07304 38.14579,-10.91719c0,0 2.3286,-0.09644 3.84577,-0.66946c0.50757,-0.1164 0.90163,-0.24452 1.16437,-0.38626z" fill="#ffffff" stroke="none" stroke-linecap="butt"/></g><path d="M255.01389,-13.71394l-124.53098,0.22438l-4.93637,-9.87273l132.60867,-2.46819z" fill="#e6e6e6" stroke="#000000" stroke-width="1" stroke-linecap="round"/><g><path d="M25.61909,359.96917l-41.80858,-251.17513l287.11056,-40.60426l-6.38236,-40.19307l292.65739,-47.94928l48.90882,284.73027z" fill="#b8b19e" stroke="#000000" stroke-width="1" stroke-linecap="round"/><path d="M16.59855,309.52109l580.67768,-97.86862l7.55186,53.7061l-581.32322,95.77806z" fill="#a28f80" stroke="#000000" stroke-width="1" stroke-linecap="round"/><path d="M282.38321,303.48811l-48.8291,8.65399l-19.08547,-110.95413l47.94398,-8.50537z" fill="#e6e6e6" stroke="#000000" stroke-width="1" stroke-linecap="round"/><path d="M272.40796,298.28056l-35.22107,5.68648l-16.34089,-98.67379l36.8427,-6.86886z" fill="#121212" stroke="#000000" stroke-width="1" stroke-linecap="round"/><path d="M273.81926,298.55552l-36.5116,6.1307l-14.82185,-85.56198l37.50654,-6.98033z" fill="#755943" stroke="#000000" stroke-width="1" stroke-linecap="round"/><path d="M325.08737,186.8799l224.93605,-35.72154l22.14088,121.02085l-227.84987,35.98328z" fill="#8b7a60" stroke="#000000" stroke-width="1" stroke-linecap="round"/><path d="M326.14196,197.22568l211.29004,-33.65773l20.5339,111.45037l-213.53195,32.83969z" fill="#d2c9c2" stroke="#000000" stroke-width="1" stroke-linecap="round"/><path d="M327.0046,201.34687l205.83063,-33.65113l3.41338,16.26344l-206.56548,36.04973z" fill="#2d241d" stroke="#000000" stroke-width="1" stroke-linecap="round"/><path d="M464.06834,24.07295l10.81894,69.85259l-87.92344,14.30826l-12.36791,-69.59249l90.72579,-15.23385z" fill="#4a413a" stroke="#000000" stroke-width="1" stroke-linecap="round"/><path d="M540.67088,73.77888l-23.93566,3.79155l-9.73149,-55.24629l27.03195,-5.67657z" fill="#4a413a" stroke="#000000" stroke-width="1" stroke-linecap="round"/><path d="M305.81967,176.80518l-173.81533,-91.0595l-141.31373,147.89784l-12.58915,-8.57964l151.64443,-153.78476l181.29704,93.27293z" fill="#e6e6e6" stroke="#000000" stroke-width="1" stroke-linecap="round"/><path d="M155.11898,287.42994l-92.53321,15.30982l-12.88809,-72.69044l94.5231,-17.00907z" fill="#4a413a" stroke="#000000" stroke-width="1" stroke-linecap="round"/><path d="M64.81275,108.34706l4.12429,24.56234l-15.69452,16.28657l-22.49649,4.23244l-7.20656,-41.56393l40.66146,-6.14494z" fill="#4a413a" stroke="#000000" stroke-width="1" stroke-linecap="round"/><path d="M270.06169,51.24516l1.31202,17.29883l-309.56171,46.97333l-13.36943,-13.22657l320.10647,-51.24665z" fill="#e6e6e6" stroke="#000000" stroke-width="1" stroke-linecap="round"/><path d="M233.5451,22.79346l351.69041,-59.96276l-2.38209,12.91365l-342.21406,56.77891z" fill="#e6e6e6" stroke="#000000" stroke-width="1" stroke-linecap="round"/><path d="M95.48719,79.64804l-12.04365,-71.7264l95.33639,-15.55299l12.27832,71.769z" fill="#a09986" stroke="#000000" stroke-width="1" stroke-linecap="round"/><path d="M154.27745,45.96877l-31.20081,5.23896l-7.01749,-37.72783l34.74134,-5.83345z" fill="#4a413a" stroke="#000000" stroke-width="1" stroke-linecap="round"/><path d="M233.58681,127.85632c-0.51362,-0.54653 0.03291,-1.06015 0.03291,-1.06015l0.2079,-0.16751c-0.02581,-0.03487 -0.05126,-0.06999 -0.07621,-0.10544c-0.95748,-1.3602 -2.03418,-2.79127 -2.66041,-4.34542c-0.1861,-0.46184 -0.28036,-0.9578 -0.47366,-1.41667c-0.1964,-0.46626 -0.50696,-0.87999 -0.69209,-1.35084c-0.18775,-0.47751 -0.26142,-0.99297 -0.42118,-1.48057c-0.1255,-0.38301 -0.32209,-0.74138 -0.43374,-1.12865c-0.22588,-0.78344 -0.27384,-1.60755 -0.40886,-2.41164c-0.34342,-2.04523 -0.68683,-4.09047 -1.03025,-6.1357l-0.12606,-0.75077c-0.06859,-0.40849 0.20696,-0.79525 0.61545,-0.86384c0.17355,-0.02914 0.34317,0.00384 0.48614,0.08273l1.31429,0.70896c0.48044,0.19249 2.15135,1.21001 2.61248,1.45647c0.69834,0.37326 1.39379,0.75286 2.10547,1.10002c0.42328,0.20647 0.87619,0.34761 1.30122,0.55044c0.35486,0.16934 0.66706,0.4277 1.03563,0.56467c0.43413,0.16134 0.89939,0.22192 1.35148,0.32246c0.71347,0.15866 1.42175,0.35058 2.14553,0.45235c0.31421,0.04418 0.63414,0.02622 0.95073,0.04739c0.92864,0.06206 1.85827,0.13607 2.78897,0.13254c0.51052,-0.00194 1.0209,-0.05786 1.53107,-0.03898c0.48214,0.01784 0.95779,0.12653 1.43974,0.14892c0.95555,0.04438 1.90892,-0.13094 2.86473,-0.1694c0.98947,-0.03981 1.99983,0.12911 2.98742,0.18048c0.31238,0.01727 0.6247,0.06782 0.93716,0.05182c0.76353,-0.03913 1.51299,-0.27448 2.27751,-0.27114c1.00287,0.00438 1.99821,0.22621 3.00101,0.21409c1.19594,-0.01446 2.49034,-0.26144 3.66405,-0.45874c0.65976,-0.1109 1.33703,-0.1434 1.9801,-0.32794c0.32126,-0.09219 0.60778,-0.28518 0.92926,-0.37659c0.31383,-0.08923 0.65112,-0.07405 0.96528,-0.16208c0.5577,-0.15628 1.04296,-0.51071 1.59042,-0.69979c0.39085,-0.135 0.80443,-0.19452 1.19911,-0.31791c1.78856,-0.55917 3.51355,-1.32481 5.30225,-1.882c0.02124,-0.00662 2.88314,-0.78624 2.92331,-0.79718c0.42387,-0.11481 0.85797,-0.19698 1.27162,-0.34445c0.45981,-0.16391 0.88943,-0.4032 1.34161,-0.58714c0.82032,-0.3337 1.65057,-0.64327 2.48559,-0.93824c0.91843,-0.32443 1.85811,-0.61112 2.75259,-1.00171c0.34823,-0.15206 0.67225,-0.35665 1.02265,-0.50364c0.45304,-0.19004 0.93976,-0.29684 1.38429,-0.50601c0.45349,-0.2134 0.84467,-0.54568 1.29924,-0.7568c0.44729,-0.20775 0.95268,-0.27524 1.39453,-0.49432c0.081,-0.04016 2.30409,-1.53931 2.35905,-1.58323c1.08477,-0.86693 2.09346,-1.9825 2.98432,-3.04384c0.3364,-0.40078 0.6057,-0.85954 0.97493,-1.23029c0.30557,-0.30682 0.74027,-0.46831 1.03381,-0.78666c0.3111,-0.33739 0.50139,-0.7688 0.7538,-1.15209c0.36405,-0.55281 0.74452,-1.09475 1.12854,-1.63387c2.51528,-3.49015 6.23437,-6.33829 8.04435,-10.36102l0.08551,-0.06051l-0.02588,-0.02161l0.64004,-0.76638c0.11088,-0.1344 0.26882,-0.23098 0.45414,-0.2621c0.40849,-0.06859 0.79525,0.20696 0.86384,0.61545c0.0067,0.03988 0.01011,0.07955 0.01045,0.11875l0.01849,0.75588l-0.01387,0.00034c0.00427,0.02953 0.00785,0.05921 0.01071,0.08904c0.03887,0.40557 -0.18558,0.7939 -0.2555,1.19528c-0.08868,0.50904 -0.11025,1.02754 -0.1722,1.54052c-0.11045,0.91457 -0.20738,1.26893 -0.15501,2.19641c0.00286,0.05059 0.00639,0.10122 0.01055,0.15188c0.32389,0.13505 0.42887,0.50427 0.42887,0.50427c0.36379,1.28188 0.74827,2.60952 0.88617,3.94155c0.05198,0.50215 0.02562,1.01027 0.07542,1.51264c0.07946,0.80138 0.27546,1.58813 0.35892,2.3891c0.00495,0.04755 0.00982,0.0951 0.01462,0.14267c0.1056,0.18428 0.20606,0.36955 0.21699,0.57609c0.02446,0.46234 -0.00604,0.79541 -0.07678,1.07784c0.06587,0.90622 0.11953,1.81415 0.18807,2.71785c0.13559,1.78781 0.38553,3.61608 0.31683,5.41265c-0.01259,0.32926 -0.19706,2.1038 -0.23046,2.59676c-0.03677,0.54261 0.04456,1.10164 -0.08751,1.6292c-0.11033,0.44069 -1.19831,2.46489 -1.4221,2.89254c-1.89223,2.73578 -3.38201,5.71693 -5.31315,8.42749c-0.5151,0.72299 -1.06401,1.422 -1.62679,2.10853c-0.18575,0.22659 -0.34865,0.47433 -0.55883,0.67846c-0.34403,0.33416 -1.50971,1.27012 -1.9644,1.68113c-0.96358,0.87101 -1.87828,1.75457 -2.86857,2.59703c-0.28546,0.24284 -0.54289,0.52387 -0.85835,0.7262c-0.43648,0.27995 -0.93219,0.45595 -1.38333,0.71159c-0.81805,0.46355 -1.56428,1.04935 -2.39342,1.49275c-0.07689,0.04112 -2.03022,0.93776 -2.3426,1.08132c-1.68526,0.50645 -3.37743,0.9975 -5.02609,1.6167c-2.01246,0.75584 -3.99959,1.58956 -6.05312,2.23492c-1.67699,0.52702 -3.4097,1.06097 -5.13137,1.42037c-0.38964,0.08133 -0.78919,0.11085 -1.17765,0.19764c-0.97417,0.21762 -1.91793,0.55861 -2.89165,0.77827c-2.15716,0.48664 -4.33955,0.74349 -6.53974,0.91183c-1.00734,0.03404 -2.01595,0.00673 -3.02362,0.02919c-2.00779,0.04477 -4.02388,0.17026 -6.03392,0.11439c-0.45204,-0.01256 -1.91548,-0.16779 -2.50792,-0.20146c-0.50319,-0.0286 -1.00821,-0.02376 -1.51073,-0.06252c-0.80571,-0.06215 -1.60205,-0.22827 -2.40893,-0.27268c-0.51253,-0.02821 -1.03001,0.02969 -1.53958,-0.03218c-0.80731,-0.09802 -2.23667,-0.53676 -3.02319,-0.76162c-0.82558,-0.23603 -2.09878,-0.54001 -2.81465,-1.02058c-0.63152,-0.42394 -1.27692,-1.24875 -1.77735,-1.86565c-0.90756,-1.11881 -1.70997,-2.279 -2.51972,-3.46895c-0.17751,-0.48021 -0.32018,-0.97477 -0.53254,-1.44061c-0.52867,-1.15978 -0.80457,-1.3042 -1.426,-2.39512c-0.10617,-0.18638 -0.18908,-0.38526 -0.2774,-0.58114l-0.00465,0.01038c0,0 -0.54653,0.51362 -1.06015,-0.03291zM236.08137,127.41962c0.048,0.10327 0.09824,0.20534 0.15454,0.30413c0.48076,0.84378 1.07837,1.62485 1.48326,2.50756c0.20348,0.4436 0.33398,0.91716 0.50097,1.37575c0.76275,1.09617 1.50996,2.1733 2.3515,3.21196c0.37344,0.46091 0.99494,1.25987 1.44505,1.56325c0.5061,0.34112 1.84053,0.6684 2.39438,0.82628c0.62444,0.17802 2.12357,0.63611 2.7897,0.71462c0.48335,0.05697 0.97391,-0.00184 1.45988,0.02479c0.81242,0.04451 1.61426,0.2115 2.4255,0.27387c0.49453,0.03802 0.99154,0.03269 1.48673,0.06086c0.42296,0.02406 2.21434,0.19259 2.45807,0.19925c1.98527,0.05426 3.97605,-0.07038 5.95915,-0.1146c0.99124,-0.0221 1.98342,0.00626 2.97433,-0.02729c2.11691,-0.16275 4.21663,-0.40907 6.29237,-0.87734c0.97727,-0.22046 1.92469,-0.56174 2.9023,-0.78064c0.38984,-0.08729 0.79078,-0.11729 1.18192,-0.19856c1.67217,-0.34745 3.35613,-0.86979 4.98485,-1.38103c2.03322,-0.63821 3.99969,-1.4656 5.99206,-2.2137c1.64629,-0.61815 3.33404,-1.11225 5.01809,-1.61371c0.71953,-0.33405 1.46079,-0.62422 2.16044,-0.99811c0.82055,-0.4385 1.55755,-1.02044 2.36742,-1.47837c0.41911,-0.23697 0.88179,-0.3951 1.28832,-0.65304c0.26706,-0.16944 0.47809,-0.4142 0.7182,-0.62007c0.58616,-0.50261 1.17284,-1.00545 1.7355,-1.53424c0.96979,-0.91138 2.04453,-1.73056 2.99972,-2.65261c0.17875,-0.17255 0.31252,-0.38632 0.4696,-0.57881c0.54022,-0.66199 1.07039,-1.33331 1.56618,-2.02919c1.90913,-2.67961 3.37611,-5.63099 5.251,-8.33291c0.06931,-0.13301 1.2,-2.27445 1.25012,-2.47825c0.10893,-0.443 0.02,-0.91237 0.04665,-1.36779c0.02822,-0.48261 0.2139,-2.19091 0.22817,-2.55299c0.06837,-1.73592 -0.18166,-3.50796 -0.31301,-5.23518c-0.42838,0.94099 -0.85027,1.88597 -1.26374,2.83233c-0.38912,0.70992 -0.81311,1.4003 -1.23466,2.09143c-0.73639,1.20733 -1.41485,2.44771 -2.39383,3.48546c-0.34963,0.37061 -0.73225,0.70867 -1.09465,1.06679c-0.20092,0.19854 -0.3702,0.4324 -0.59522,0.60314c-0.56863,0.43146 -1.23288,0.73029 -1.78584,1.18168c-0.39236,0.32028 -0.74109,0.6933 -1.14506,0.99881c-0.05121,0.03874 -2.45841,1.60355 -2.54468,1.66197c-0.23657,0.16019 -1.78313,1.27781 -2.14257,1.463c-0.45042,0.23206 -0.93562,0.38925 -1.40275,0.58551c-1.18074,0.49607 -2.35831,0.99935 -3.53618,1.50216c-0.44251,0.1889 -0.90112,0.34366 -1.32797,0.56571c-0.42684,0.22205 -0.81701,0.50843 -1.22551,0.76264c-1.85098,1.1479 -3.77125,2.40528 -5.8322,3.1463c-1.41822,0.50993 -2.88669,0.93892 -4.32393,1.39497c-0.73174,0.23219 -1.43443,0.55457 -2.17431,0.75936c-0.49918,0.13817 -1.01806,0.19162 -1.5258,0.29399c-1.48582,0.29957 -2.96261,0.68666 -4.46873,0.87668c-1.30845,0.16509 -2.64068,0.15542 -3.94748,0.33213c-1.96783,0.26609 -3.92811,0.66022 -5.88659,0.98907c-1.49726,0.25126 -3.04999,0.4728 -4.51653,0.86618c-0.49981,0.13407 -0.97893,0.34441 -1.48494,0.45279c-0.28693,0.06145 -0.58606,0.03159 -0.87868,0.05346c-0.50935,0.03807 -1.01715,0.15542 -1.52709,0.12634c-0.38143,-0.02175 -0.73735,-0.20303 -1.11221,-0.27684c-0.48802,-0.09608 -0.99703,-0.00177 -1.49092,-0.06063c-0.39455,-0.04701 -0.77102,-0.20166 -1.16526,-0.25118c-0.36857,-0.0463 -0.74615,0.01761 -1.11387,-0.03509c-0.45249,-0.06486 -0.87883,-0.27914 -1.33446,-0.31583c-0.40667,-0.03275 -0.81139,0.09239 -1.21899,0.11017c-0.20563,0.00897 -2.43244,0.00425 -2.66477,-0.02008c-0.29217,-0.03061 -0.56862,-0.14987 -0.85731,-0.20426c-1.27141,-0.23948 -2.65212,-0.53636 -3.94826,-0.50236c-0.31401,0.05273 -0.59182,0.0843 -0.85798,0.12033zM235.26799,126.04849c0.48245,-0.0967 0.95595,-0.14624 1.52847,-0.24237c1.45649,-0.03376 2.95375,0.25365 4.38468,0.52454c0.2539,0.04807 0.4953,0.16011 0.75229,0.18714c0.13451,0.01415 2.37389,0.01111 2.41295,0.00952c0.46471,-0.01883 0.9274,-0.14334 1.39111,-0.10754c0.484,0.03736 0.93909,0.25624 1.4197,0.32449c0.36426,0.05172 0.7382,-0.01222 1.10324,0.03374c0.38054,0.04792 0.74314,0.20043 1.12388,0.24667c0.53676,0.06519 1.0893,-0.02374 1.62022,0.07864c0.32604,0.06287 0.63092,0.23801 0.96243,0.25703c0.43387,0.02489 0.86431,-0.09278 1.29751,-0.12739c0.24049,-0.01921 0.48738,0.01801 0.72297,-0.03399c0.47118,-0.104 0.91609,-0.30522 1.38203,-0.43065c1.50493,-0.40514 3.09822,-0.63283 4.63477,-0.89097c1.97873,-0.33225 3.95941,-0.7301 5.94774,-0.99804c1.30706,-0.17613 2.63878,-0.16772 3.94733,-0.3321c1.46952,-0.18461 2.91065,-0.56861 4.36056,-0.85903c0.47266,-0.09468 0.95638,-0.14017 1.42091,-0.26896c0.72195,-0.20015 1.40693,-0.51684 2.12099,-0.74353c1.41016,-0.44764 2.84863,-0.86893 4.24131,-1.36606c1.97069,-0.70346 3.81006,-1.92348 5.57794,-3.02018c0.4413,-0.27288 0.8636,-0.57919 1.32391,-0.81864c0.46029,-0.23945 0.95339,-0.40974 1.43029,-0.61412c1.18045,-0.50591 2.36151,-1.01168 3.54662,-1.50659c0.42506,-0.17751 0.8677,-0.31643 1.27778,-0.52625c0.23527,-0.12037 1.99905,-1.37606 2.00561,-1.38049c0.81721,-0.55327 1.69417,-1.01999 2.48068,-1.6161c0.39331,-0.29809 0.73123,-0.66369 1.11427,-0.97486c0.55445,-0.45042 1.21535,-0.7545 1.78714,-1.1827c0.18119,-0.1357 0.30893,-0.33111 0.46943,-0.49075c0.34776,-0.34591 0.71752,-0.66985 1.0551,-1.02571c0.90979,-0.95905 1.52878,-2.12462 2.21086,-3.24268c0.39879,-0.65372 0.80294,-1.3049 1.17158,-1.9761c0.59691,-1.36924 1.20982,-2.73906 1.84172,-4.09195c0.17814,-0.3814 0.41913,-0.72172 0.55766,-1.10417c-0.02713,-0.35596 -0.05669,-0.71155 -0.09035,-1.06639c-0.03289,-0.04495 -0.06346,-0.09086 -0.08566,-0.13963c-0.37301,-0.81942 -0.5369,-1.33317 -0.72881,-2.23574c-0.24443,-1.14951 -0.31966,-2.25264 -0.46229,-3.4099c-0.12823,-1.04042 -0.46775,-2.09578 -0.52556,-3.14363c-0.0611,-1.1076 0.03375,-1.42474 0.16115,-2.48832c0.00141,-0.01182 0.01056,-0.09309 0.02407,-0.21336c-1.99401,3.04723 -4.91196,5.48481 -6.97303,8.41745c-0.37477,0.52592 -0.74137,1.05772 -1.10111,1.59402c-0.30142,0.44937 -0.5428,0.94616 -0.90728,1.34608c-0.30499,0.33464 -0.75551,0.5093 -1.07556,0.82957c-0.337,0.33724 -0.57409,0.76183 -0.88007,1.12746c-0.95186,1.13742 -2.03621,2.32246 -3.19619,3.25068c-0.16064,0.12855 -2.45776,1.66964 -2.62684,1.75428c-0.45318,0.22691 -0.97198,0.29858 -1.43161,0.51215c-0.45236,0.2102 -0.84133,0.5415 -1.29272,0.75375c-0.46036,0.21647 -0.96305,0.33049 -1.43207,0.52748c-0.34757,0.14598 -0.66878,0.34946 -1.01436,0.50005c-0.92989,0.40523 -1.90443,0.70631 -2.859,1.04331c-0.81077,0.28624 -1.61667,0.58732 -2.41326,0.91097c-0.4742,0.19267 -0.92586,0.44097 -1.40816,0.61237c-0.448,0.1592 -0.91709,0.25126 -1.37563,0.37689c-0.95516,0.26027 -1.92041,0.48589 -2.86562,0.78022c-1.79239,0.55812 -3.52096,1.32561 -5.31342,1.88549c-0.3697,0.11547 -0.75808,0.16716 -1.12444,0.29279c-0.58323,0.2 -1.10513,0.56387 -1.69762,0.73452c-0.31351,0.0903 -0.65145,0.07285 -0.96528,0.16208c-0.32148,0.09141 -0.60758,0.2859 -0.92926,0.37659c-0.05369,0.01514 -2.11606,0.35985 -2.14003,0.36388c-1.2533,0.21021 -2.61861,0.46393 -3.89431,0.47934c-0.71183,0.0086 -2.24818,-0.20845 -2.98367,-0.21441c-0.75974,-0.00616 -1.50431,0.23318 -2.26314,0.27073c-0.35515,0.01757 -0.71029,-0.03536 -1.06543,-0.05303c-0.93991,-0.04952 -1.91832,-0.22062 -2.85989,-0.17923c-0.99429,0.04371 -1.98667,0.21219 -2.98097,0.1687c-0.47886,-0.02094 -0.95128,-0.1306 -1.43026,-0.14852c-1.00162,-0.03748 -2.00574,0.05769 -3.00696,0.01071c-0.80277,-0.03767 -1.60953,-0.05219 -2.4054,-0.16384c-0.76615,-0.10746 -1.51768,-0.30235 -2.27186,-0.47482c-0.52335,-0.11969 -1.05984,-0.2007 -1.56358,-0.38638c-0.40673,-0.14992 -0.75552,-0.42668 -1.14706,-0.61271c-0.42847,-0.20358 -0.88414,-0.34689 -1.31047,-0.55492c-0.42211,-0.20596 -0.81484,-0.46786 -1.23118,-0.68526c-0.74696,-0.39003 -1.49341,-0.78147 -2.22947,-1.19172c-0.4223,-0.23537 -0.89745,-0.38889 -1.28022,-0.68295c0.30033,1.78862 0.60066,3.57725 0.90099,5.36587c0.12663,0.75412 0.16097,1.5292 0.37607,2.26299c0.10574,0.36071 0.29306,0.69326 0.40999,1.0505c0.15147,0.46275 0.21583,0.95345 0.39426,1.40649c0.18104,0.4597 0.48675,0.86242 0.6786,1.31772c0.19496,0.46268 0.29273,0.96176 0.47847,1.42823c0.57628,1.4473 1.61155,2.7877 2.49896,4.05156c0.09312,0.13261 0.19197,0.26131 0.29088,0.38995z" fill="#000000" stroke="none" stroke-width="0.5" stroke-linecap="butt"/><path d="M236.98882,127.29202c1.29613,-0.034 2.6766,0.26133 3.948,0.50081c0.28869,0.05438 0.56504,0.17312 0.85721,0.20372c0.23233,0.02434 2.45897,0.02822 2.66461,0.01926c0.40759,-0.01777 0.81227,-0.14315 1.21894,-0.11039c0.45564,0.0367 0.88175,0.24996 1.33424,0.31482c0.36771,0.05271 0.74517,-0.01173 1.11374,0.03457c0.39424,0.04952 0.77045,0.20319 1.16501,0.25021c0.49389,0.05886 1.00267,-0.03633 1.49069,0.05976c0.37485,0.07381 0.73043,0.25393 1.11186,0.27568c0.50995,0.02908 1.01751,-0.089 1.52686,-0.12706c0.29262,-0.02187 0.59158,0.00749 0.87851,-0.05396c0.506,-0.10838 0.98509,-0.31885 1.4849,-0.45291c1.46654,-0.39338 3.01852,-0.61694 4.51579,-0.86821c1.95847,-0.32885 3.91595,-0.72892 5.88378,-0.99501c1.3068,-0.17671 2.63089,-0.1779 3.93934,-0.34299c1.50614,-0.19003 2.94483,-0.59192 4.43063,-0.89149c0.50774,-0.10237 1.00498,-0.14966 1.50417,-0.28783c0.73988,-0.2048 1.4238,-0.50906 2.15555,-0.74125c1.43725,-0.45605 2.89893,-0.86495 4.31715,-1.37488c2.06095,-0.74102 3.98153,-1.98498 5.83251,-3.13287c0.4085,-0.25421 0.79899,-0.53882 1.22583,-0.76086c0.42684,-0.22205 0.88562,-0.37594 1.32814,-0.56484c1.17787,-0.50282 2.35584,-1.00439 3.53658,-1.50046c0.46713,-0.19625 0.95246,-0.35295 1.40288,-0.58501c0.35943,-0.18518 1.90648,-1.30111 2.14305,-1.4613c0.08626,-0.05841 2.49393,-1.62175 2.54515,-1.66048c0.40398,-0.3055 0.75304,-0.67757 1.1454,-0.99786c0.55296,-0.45138 1.21749,-0.74943 1.78612,-1.1809c0.22502,-0.17074 0.3945,-0.40408 0.59542,-0.60262c0.3624,-0.35813 0.74536,-0.69535 1.09498,-1.06596c0.97898,-1.03775 1.65872,-2.27526 2.39511,-3.48259c0.42155,-0.69115 0.84632,-1.37999 1.23544,-2.0899c0.41348,-0.94636 0.92267,-1.94006 1.35105,-2.88104c0.13134,1.72723 0.38408,3.50456 0.31571,5.24048c-0.01426,0.36208 -0.19884,2.07312 -0.22707,2.55572c-0.02663,0.45542 0.06284,0.92637 -0.04609,1.36938c-0.0501,0.2038 -1.18001,2.34786 -1.24932,2.48088c-1.8749,2.70192 -3.34015,5.66462 -5.24929,8.34423c-0.49579,0.69588 -1.02597,1.37076 -1.56618,2.03275c-0.15708,0.19249 -0.29089,0.40734 -0.46965,0.5799c-0.95519,0.92205 -2.03059,1.74693 -3.00039,2.65831c-0.56267,0.52878 -1.15015,1.03544 -1.73631,1.53804c-0.2401,0.20587 -0.45159,0.45228 -0.71865,0.62173c-0.40654,0.25794 -0.86991,0.41825 -1.28902,0.65522c-0.80986,0.45793 -1.5489,1.0449 -2.36944,1.48339c-0.69965,0.37389 -1.44321,0.66841 -2.16274,1.00245c-1.68405,0.50146 -3.37969,1.00563 -5.02598,1.62377c-1.99238,0.74809 -3.97653,1.58675 -6.00975,2.22496c-1.62872,0.51124 -3.33024,1.03671 -5.00241,1.38415c-0.39114,0.08127 -0.79603,0.1111 -1.18587,0.19839c-0.97761,0.2189 -1.93368,0.55869 -2.91093,0.77916c-2.07573,0.46827 -4.18936,0.70855 -6.30627,0.8713c-0.99091,0.03355 -1.98788,0.00176 -2.97912,0.02387c-1.9831,0.04422 -3.98031,0.16262 -5.96559,0.10835c-0.24373,-0.00666 -2.03712,-0.17769 -2.46009,-0.20175c-0.49519,-0.02817 -0.99318,-0.02418 -1.48772,-0.0622c-0.81125,-0.06236 -1.61456,-0.23158 -2.42699,-0.27609c-0.48597,-0.02662 -0.97719,0.03111 -1.46054,-0.02586c-0.66613,-0.07851 -2.16672,-0.53926 -2.79117,-0.71727c-0.55385,-0.15789 -1.8894,-0.48748 -2.3955,-0.8286c-0.45011,-0.30338 -1.07268,-1.10491 -1.44612,-1.56582c-0.84154,-1.03867 -1.59035,-2.12068 -2.3531,-3.21684c-0.16699,-0.45858 -0.29796,-0.93402 -0.50144,-1.37762c-0.40489,-0.8827 -1.00317,-1.66731 -1.48394,-2.51109c-0.0563,-0.0988 -0.10659,-0.20129 -0.15459,-0.30454c0.26616,-0.03602 0.6429,-0.08214 0.95692,-0.13487z" fill="#ffffff" stroke="none" stroke-width="0.5" stroke-linecap="butt"/><path d="M234.93237,125.68087c-0.88741,-1.26385 -1.92499,-2.60965 -2.50126,-4.05695c-0.18574,-0.46646 -0.2841,-0.96731 -0.47907,-1.42999c-0.19185,-0.4553 -0.49807,-0.85974 -0.67912,-1.31944c-0.17841,-0.45303 -0.24323,-0.94549 -0.3947,-1.40822c-0.11693,-0.35724 -0.30455,-0.69112 -0.41029,-1.05183c-0.2151,-0.7338 -0.24995,-1.51163 -0.37657,-2.26575c-0.30033,-1.78862 -0.60124,-3.58383 -0.90157,-5.37245c0.38277,0.29407 0.95787,0.4446 1.38016,0.67997c0.73606,0.41025 1.48242,0.8 2.22938,1.19004c0.41634,0.2174 0.80898,0.47824 1.2311,0.68421c0.42633,0.20802 0.88191,0.35039 1.31037,0.55397c0.39154,0.18602 0.74019,0.46173 1.14693,0.61165c0.50374,0.18567 1.04009,0.2658 1.56345,0.38549c0.75418,0.17247 1.50549,0.36606 2.27164,0.47352c0.79586,0.11163 1.60244,0.12515 2.40521,0.16281c1.00122,0.04698 2.0051,-0.04931 3.00672,-0.01183c0.47898,0.01792 0.95118,0.12665 1.43003,0.14759c0.9943,0.04349 1.98636,-0.12624 2.98065,-0.16995c0.94159,-0.04139 1.91927,0.12731 2.85917,0.17682c0.35514,0.01768 0.70993,0.06958 1.06509,0.05201c0.75883,-0.03754 1.50284,-0.27841 2.26258,-0.27226c0.73549,0.00596 2.26976,0.21838 2.98159,0.20978c1.2757,-0.01542 2.63714,-0.27548 3.89044,-0.48569c0.02397,-0.00403 2.08213,-0.35386 2.13582,-0.369c0.32168,-0.09069 0.60574,-0.28723 0.92722,-0.37864c0.31383,-0.08923 0.64768,-0.07525 0.9612,-0.16555c0.59248,-0.17066 1.10461,-0.54035 1.68784,-0.74034c0.36637,-0.12563 0.74185,-0.18114 1.11155,-0.29662c1.79247,-0.55988 3.4656,-1.29258 5.258,-1.85072c0.94521,-0.29432 1.90847,-0.50979 2.86363,-0.77005c0.45855,-0.12563 0.92747,-0.21494 1.37546,-0.37414c0.4823,-0.17139 0.93395,-0.41654 1.40815,-0.60921c0.79658,-0.32367 1.60267,-0.62148 2.41345,-0.90772c0.95456,-0.337 1.9294,-0.63567 2.85929,-1.0409c0.34558,-0.15061 0.66695,-0.35306 1.01452,-0.49904c0.46901,-0.197 0.97185,-0.31025 1.4322,-0.52671c0.4514,-0.21225 0.84061,-0.5423 1.29297,-0.75249c0.45962,-0.21357 0.97851,-0.28477 1.43171,-0.51167c0.16908,-0.08466 2.46677,-1.62344 2.6274,-1.75199c1.15998,-0.92822 2.24555,-2.10937 3.19741,-3.24679c0.30597,-0.36562 0.54352,-0.78901 0.88052,-1.12625c0.32004,-0.32027 0.7708,-0.49434 1.07579,-0.82899c0.36449,-0.39993 0.60641,-0.89541 0.90783,-1.34478c0.35974,-0.5363 0.72696,-1.06673 1.10174,-1.59265c2.06107,-2.93265 4.98152,-5.36558 6.97552,-8.4128c-0.0135,0.12027 0.06291,0.14979 0.0615,0.16161c-0.1274,1.06358 -0.22106,1.3828 -0.15995,2.49041c0.0578,1.04784 0.39894,2.10646 0.52716,3.14688c0.14262,1.15726 0.21935,2.26414 0.46379,3.41366c0.19192,0.90258 0.35669,1.41907 0.7297,2.23848c0.0222,0.04878 0.05283,0.09486 0.08572,0.13983c0.03366,0.35484 0.06356,0.71167 0.0907,1.06764c-0.13852,0.38245 -0.37923,0.7239 -0.55737,1.10531c-0.6319,1.35289 -1.24394,2.72741 -1.84086,4.09666c-0.36863,0.6712 -0.77251,1.32487 -1.1713,1.97858c-0.68207,1.11807 -1.30089,2.28817 -2.21068,3.24722c-0.33757,0.35585 -0.70738,0.68138 -1.05513,1.0273c-0.16049,0.15964 -0.28826,0.35585 -0.46946,0.49153c-0.57179,0.42821 -1.23284,0.73438 -1.7873,1.1848c-0.38304,0.31117 -0.72118,0.67859 -1.11448,0.97668c-0.78652,0.59611 -1.66407,1.06633 -2.48128,1.6196c-0.00656,0.00444 -1.77116,1.26346 -2.00643,1.38383c-0.41008,0.20981 -0.85321,0.3504 -1.27828,0.52791c-1.18512,0.4949 -2.36825,1.00607 -3.5487,1.51198c-0.4769,0.20438 -0.9712,0.37716 -1.43151,0.61662c-0.46029,0.23945 -0.88424,0.54868 -1.32555,0.82155c-1.76789,1.09671 -3.61741,2.3287 -5.58809,3.03216c-1.39268,0.49714 -2.84165,0.92535 -4.25181,1.37299c-0.71406,0.22667 -1.40538,0.54596 -2.12733,0.74611c-0.46453,0.12879 -0.95251,0.17549 -1.42517,0.27016c-1.44993,0.29042 -2.90444,0.67572 -4.37396,0.86033c-1.30855,0.16439 -2.6514,0.15427 -3.95846,0.33041c-1.98833,0.26794 -3.98125,0.66066 -5.95998,0.99291c-1.53655,0.25814 -3.13589,0.48166 -4.64081,0.8868c-0.46593,0.12544 -0.91207,0.32564 -1.38325,0.42964c-0.23558,0.052 -0.48324,0.01412 -0.72373,0.03332c-0.4332,0.0346 -0.86485,0.15116 -1.29872,0.12627c-0.33151,-0.01902 -0.63752,-0.19528 -0.96356,-0.25815c-0.53093,-0.10237 -1.08489,-0.01498 -1.62166,-0.08016c-0.38074,-0.04624 -0.7444,-0.19996 -1.12494,-0.24787c-0.36504,-0.04596 -0.73975,0.01703 -1.10402,-0.03469c-0.48062,-0.06825 -0.93684,-0.28859 -1.42084,-0.32595c-0.46371,-0.03579 -0.92708,0.08778 -1.39179,0.10661c-0.03906,0.00158 -2.27961,0.00292 -2.41411,-0.01123c-0.25699,-0.02704 -0.49883,-0.13977 -0.75274,-0.18784c-1.43094,-0.27089 -2.93002,-0.56145 -4.38651,-0.52769c-0.57252,0.09613 -1.04632,0.14511 -1.52877,0.2418c-0.09891,-0.12864 -0.19804,-0.25788 -0.29115,-0.39049z" fill="#ffffff" stroke="none" stroke-width="0.5" stroke-linecap="butt"/><path d="M236.12376,80.30073c0.9862,-0.16556 1.98642,-0.32805 2.97143,-0.50057c0.22273,-0.03901 0.44348,-0.13827 0.66935,-0.12778c0.27579,0.0128 0.53239,0.19137 0.80844,0.1955c0.76744,0.01148 1.52935,-0.26403 2.29686,-0.26966c0.26597,-0.00195 0.53056,0.09633 0.79644,0.08929c0.50949,-0.01349 1.01815,-0.1263 1.52736,-0.14794c0.64536,-0.02743 1.64191,0.12032 2.27773,0.0758c0.38927,-0.02726 0.76668,-0.18308 1.15671,-0.19503c0.41314,-0.01266 0.82357,0.13325 1.23683,0.12595c0.33212,-0.00588 0.65706,-0.10717 0.98476,-0.16147c0.90174,0.05139 1.80029,0.14335 2.70204,0.19744c0.53759,0.03224 1.38589,-0.05491 1.84729,0.40848c0.21369,0.21461 0.31893,0.51897 0.45201,0.79102c0.47137,0.96362 0.53199,2.03976 0.70729,3.08371c0.20915,1.2456 0.3983,2.50882 0.42673,3.77518c0.01916,0.85359 -0.34623,1.6658 -0.53118,2.4764c-0.15648,0.68581 -0.19537,1.41747 -0.47517,2.06287c-0.41798,0.96414 -1.08641,1.64443 -1.74564,2.4344c-0.21452,0.22978 -0.38936,0.50868 -0.64453,0.69226c-0.35096,0.25248 -0.78111,0.38026 -1.15094,0.60417c-0.42612,0.25799 -0.80844,0.59281 -1.23667,0.84727c-0.85659,0.50899 -1.77107,0.93793 -2.63448,1.43525c-0.80275,0.46237 -1.58038,0.99701 -2.40851,1.41218c-0.42483,0.21298 -0.88741,0.3594 -1.32291,0.5496c-0.4365,0.19063 -0.85384,0.44615 -1.30526,0.59812c-0.38623,0.13002 -0.80928,0.14297 -1.20361,0.24585c-0.96289,0.25123 -1.93177,0.53068 -2.88496,0.81653c-0.4119,0.12352 -0.80678,0.31696 -1.22405,0.42096c-0.46516,0.11593 -0.95107,0.15521 -1.4239,0.23419c-0.95752,0.15993 -1.91668,0.36228 -2.8803,0.47997c-0.60013,0.0733 -1.8003,0.00001 -2.27268,-0.01673c-0.34848,-0.01235 -0.70438,0.01827 -1.04734,-0.04469c-0.27,-0.04956 -0.508,-0.21838 -0.77248,-0.29195c-0.2984,-0.083 -0.60975,-0.12011 -0.91377,-0.17934c-0.83514,-0.31027 -1.66169,-0.55206 -2.38087,-1.09153c-0.24707,-0.18533 -0.56512,-0.30941 -0.73611,-0.56661c-0.19929,-0.29977 -0.23378,-0.6845 -0.32686,-1.03222c-0.29397,-1.09818 -0.39314,-1.7431 -0.58744,-2.86576c-0.16943,-0.97895 -0.33293,-1.96794 -0.49745,-2.94774c-0.06603,-0.39326 -0.13095,-0.79036 -0.19867,-1.18333c-0.03694,-0.21431 -0.11867,-0.42653 -0.11607,-0.64399c0.01014,-0.8501 0.27941,-1.68766 0.33505,-2.53599c0.03259,-0.49692 -0.02967,-1.00124 -0.00173,-1.49843c0.01708,-0.3038 0.09613,-0.60376 0.13743,-0.90523c0.13991,-1.02135 0.11699,-1.35099 0.43503,-2.38374c0.23994,-0.77914 0.61295,-1.59612 1.00538,-2.30994c2.44355,-1.05722 6.40471,-1.08112 9.059,-1.5268l0.10765,-0.01824c0,0 0.51768,-0.08805 0.61636,-0.54591c0.12168,-0.02028 0.24476,-0.04135 0.36641,-0.06177z" fill="#ffffff" stroke="none" stroke-width="0.5" stroke-linecap="butt"/><path d="M267.58527,76.4597c0.48703,-0.17786 0.94659,-0.43294 1.42133,-0.64139c0.0385,-0.01691 2.7424,-1.18135 2.76908,-1.19401c0.01626,-0.00772 2.66445,-1.3912 2.69666,-1.40803c0.42468,-0.22189 0.83779,-0.4845 1.27965,-0.66981c0.73034,-0.30629 1.54492,-0.41937 2.27106,-0.73551c0.91839,-0.39983 1.78283,-0.94327 2.7062,-1.33144c0.87296,-0.36698 1.79608,-0.63022 2.66723,-1.00146c1.30118,-0.55449 2.57992,-1.08438 3.91968,-1.54765c0.85005,-0.35522 1.68352,-0.7618 2.55362,-1.0646c1.40718,-0.48971 2.86113,-0.86971 4.27916,-1.32505c0.44474,-0.14282 0.88153,-0.31189 1.31632,-0.48267c0.15436,-0.06063 0.31409,-0.30301 0.45128,-0.20984c0.19946,0.13546 0.19093,0.44704 0.24383,0.68227c0.10251,0.45588 0.12732,0.92866 0.2233,1.38595c0.10488,0.49973 0.25546,0.99162 0.38235,1.48621c0.19143,0.74616 0.42791,1.48672 0.57838,2.24221c0.17495,0.87842 0.29898,1.77199 0.44729,2.65529c0.2446,1.4567 0.53968,2.91722 0.65026,4.39252c0.14746,1.96735 0.13083,3.98403 0.12793,5.95583c-0.001,0.72463 0.03131,1.45485 0.01871,2.17937c-0.0035,0.20068 0.01405,0.41281 -0.05541,0.60112c-0.2765,0.74951 -0.88938,1.39372 -1.36885,1.99573c-0.20829,0.26153 -0.36744,0.57425 -0.62451,0.78802c-0.24306,0.20213 -0.58108,0.26046 -0.84397,0.43602c-0.41474,0.27697 -0.76322,0.6525 -1.18322,0.92142c-0.77159,0.49403 -1.6314,0.85297 -2.40677,1.34104c-0.29057,0.1829 -0.55906,0.40704 -0.85988,0.57253c-0.37314,0.20528 -0.79514,0.32397 -1.16101,0.54196c-0.25378,0.15119 -0.43814,0.406 -0.68889,0.56215c-0.31918,0.19877 -0.69899,0.29663 -1.01513,0.5002c-0.36876,0.23744 -0.65038,0.60859 -1.03457,0.82018c-0.35665,0.19643 -0.78104,0.24575 -1.16179,0.39001c-0.43304,0.16406 -0.84458,0.39796 -1.28588,0.5383c-0.27637,0.08789 -0.58451,0.05699 -0.86082,0.14508c-0.45425,0.14483 -0.86322,0.43278 -1.32492,0.5517c-0.45014,0.11595 -0.92937,0.09744 -1.3915,0.14768c-0.49707,0.05404 -0.99903,0.11099 -1.49596,0.16632c-0.28484,0.03255 -0.57087,0.08984 -0.85747,0.0976c-0.7367,0.01994 -1.30567,-0.12476 -2.04643,-0.19224c-1.25506,-0.11434 -2.60923,-0.04333 -3.84187,-0.32602c-0.41154,-0.09438 -0.80061,-0.29403 -1.21654,-0.36666c-0.25252,-0.04409 -0.51794,0.06134 -0.77055,0.01777c-0.3638,-0.06275 -0.70432,-0.23239 -1.05883,-0.3354c-0.48984,-0.14231 -0.98481,-0.28164 -1.47981,-0.40479c-1.38657,-0.34499 -2.80179,-0.52194 -4.0711,-1.23669c-0.92649,-0.5217 -1.36994,-0.80238 -2.01486,-1.66478c-0.20652,-0.27616 -0.31832,-0.61535 -0.49676,-0.91044c-0.48856,-0.80796 -0.70757,-0.83971 -0.91018,-1.79127c-0.05241,-0.24613 -0.01152,-0.50486 -0.01696,-0.75645c-1.51465,-4.87262 1.94614,-9.45775 5.63503,-12.29093c0.30067,-0.07848 0.6142,-0.12079 0.90608,-0.2274z" fill="#ffffff" stroke="none" stroke-width="0.5" stroke-linecap="butt"/><path d="M250.89402,89.6186c-0.27436,-1.63398 0.82783,-3.181 2.4618,-3.45536c1.63398,-0.27436 3.181,0.82783 3.45536,2.4618c0.27436,1.63398 -0.82783,3.181 -2.4618,3.45536c-1.63398,0.27436 -3.181,-0.82783 -3.45536,-2.4618z" fill="#000000" stroke="none" stroke-width="0.5" stroke-linecap="butt"/><path d="M293.25947,80.36607c-0.27436,-1.63398 0.82783,-3.181 2.4618,-3.45536c1.63398,-0.27436 3.181,0.82783 3.45536,2.4618c0.27436,1.63398 -0.82783,3.181 -2.4618,3.45536c-1.63398,0.27436 -3.181,-0.82783 -3.45536,-2.4618z" fill="#000000" stroke="none" stroke-width="0.5" stroke-linecap="butt"/><path d="M256.48513,85.81612c-0.20976,-0.0173 -0.42711,0.02443 -0.63077,-0.02869c-0.27058,-0.07058 -0.50388,-0.24609 -0.76856,-0.3363c-0.59624,-0.2032 -1.24465,-0.19692 -1.86269,-0.31869c-0.31709,-0.06247 -0.60974,-0.22244 -0.92695,-0.28434c-0.28663,-0.05593 -0.5848,-0.02329 -0.87355,-0.06698c-0.32307,-0.04888 -0.63264,-0.17478 -0.95748,-0.21001c-1.74053,-0.18875 -3.42483,0.41611 -5.13568,0.59527c-0.34953,0.03661 -0.70136,0.06367 -1.05275,0.0577c-0.25472,-0.00432 -0.50438,-0.09089 -0.75913,-0.08843c-0.43224,0.00418 -0.85205,0.14648 -1.27872,0.21582c-0.29801,-0.02348 -0.59514,-0.07453 -0.89405,-0.07043c-0.18124,0.00249 -0.35502,0.08756 -0.53626,0.09004c-0.29891,0.00409 -0.59525,-0.07972 -0.89405,-0.07043c-0.23329,0.00725 -0.45982,0.0804 -0.6899,0.11964c-0.66011,0.11258 -1.35633,0.17779 -2.00733,0.33607c-0.284,0.06905 -0.55508,0.18628 -0.84002,0.25132c-0.86127,0.19662 -1.74785,0.30415 -2.57544,0.64298c-0.31606,0.1294 -0.59651,0.34161 -0.92021,0.45046c-0.33377,0.11224 -0.69176,0.13253 -1.03586,0.2073c-0.60574,0.13164 -1.20266,0.30285 -1.8101,0.42645c-0.48799,0.09929 -0.99367,0.11282 -1.47361,0.24565c-0.31717,0.08778 -0.61309,0.24158 -0.92837,0.33595c-0.68612,0.20538 -1.39787,0.38573 -2.10431,0.50125c-0.36038,0.17466 -0.71823,0.35468 -1.07291,0.54067c-0.00141,0.06528 -0.00405,0.13053 -0.00833,0.19572c-0.05564,0.84834 -0.32498,1.67826 -0.33512,2.52835c-0.0026,0.21746 0.07893,0.42774 0.11587,0.64205c0.06772,0.39297 0.13207,0.78652 0.1981,1.17978c0.16452,0.9798 0.32557,1.96035 0.49499,2.9393c0.19429,1.12265 0.28991,1.76026 0.58388,2.85845c0.09309,0.34773 0.126,0.72999 0.3253,1.02976c0.17099,0.2572 0.4876,0.37926 0.73467,0.56459c0.71918,0.53947 1.54121,0.77603 2.37636,1.0863c0.30401,0.05923 0.61365,0.09468 0.91205,0.17768c0.26447,0.07356 0.50066,0.2408 0.77066,0.29036c0.34296,0.06297 0.69672,0.03065 1.0452,0.043c0.47236,0.01674 1.66707,0.08649 2.26719,0.01319c0.96362,-0.11769 1.91438,-0.32377 2.87189,-0.48369c0.47283,-0.07897 0.95355,-0.1197 1.41871,-0.23562c0.41727,-0.10399 0.80729,-0.29825 1.2192,-0.42177c0.95318,-0.28586 1.9087,-0.5651 2.8716,-0.81633c0.39433,-0.10288 0.81164,-0.11461 1.19787,-0.24464c0.45142,-0.15197 0.86227,-0.40522 1.29876,-0.59585c0.43551,-0.1902 0.89196,-0.33349 1.31679,-0.54647c0.82814,-0.41517 1.59563,-0.94173 2.39836,-1.4041c0.86342,-0.49731 1.77069,-0.91675 2.62728,-1.42574c0.42823,-0.25447 0.80812,-0.58456 1.23424,-0.84255c0.36984,-0.22391 0.79857,-0.34821 1.14953,-0.6007c0.25517,-0.18358 0.42905,-0.45954 0.64356,-0.68932c0.65923,-0.78997 1.32588,-1.46114 1.74386,-2.42528c0.2798,-0.6454 0.31847,-1.37037 0.47495,-2.05618c0.18495,-0.8106 0.55116,-1.61539 0.53199,-2.46898c-0.01354,-0.60326 -0.06283,-1.20339 -0.13334,-1.80114c-0.10565,-0.01239 -0.2114,-0.02377 -0.3174,-0.03252zM228.91508,80.25443c0.17376,-0.13413 0.37129,-0.1673 0.37129,-0.1673c0.44953,-0.07499 0.90493,-0.12069 1.34857,-0.22497c0.49078,-0.11536 0.9563,-0.32702 1.44926,-0.43268c0.32816,-0.07033 1.79747,-0.2307 2.34466,-0.316c0.98396,-0.15338 1.96416,-0.3299 2.94624,-0.49481c0.4931,-0.0828 0.98569,-0.16864 1.47929,-0.24839c0.32246,-0.0521 0.64228,-0.15608 0.96879,-0.14714c0.27598,0.00755 0.5288,0.18918 0.8048,0.19569c0.28635,0.00677 0.56049,-0.1225 0.84487,-0.15674c0.46789,-0.05633 0.93792,-0.10897 1.40917,-0.11461c0.26184,-0.00313 0.51882,0.09546 0.78058,0.08838c0.49015,-0.01325 0.97352,-0.12868 1.46343,-0.14905c0.73911,-0.03072 1.48019,0.12865 2.21796,0.07471c0.40623,-0.0297 0.79846,-0.18676 1.20558,-0.1994c0.41313,-0.01283 0.82055,0.13079 1.23381,0.12366c0.32032,-0.00553 0.63164,-0.10752 0.94745,-0.16128c0.96223,0.04677 1.9207,0.12249 2.8812,0.19368c1.10753,0.08209 1.88492,-0.01233 2.76961,0.805c0.35126,0.32452 0.54505,0.78876 0.76762,1.21204c0.57257,1.08884 0.64249,2.3111 0.84239,3.50159c0.22322,1.3294 0.42635,2.67774 0.44412,4.02971c0.0128,0.97343 -0.35893,1.86241 -0.57015,2.78883c-0.1759,0.77147 -0.24079,1.58216 -0.55677,2.30759c-0.49389,1.13393 -1.23125,1.91066 -2.00441,2.83573c-0.28546,0.29529 -0.5258,0.64214 -0.85638,0.88587c-0.3902,0.28768 -0.86647,0.43733 -1.28047,0.68955c-0.42859,0.26111 -0.81232,0.59211 -1.24386,0.84832c-0.86246,0.51206 -1.77535,0.93501 -2.64442,1.43577c-0.82807,0.47713 -1.62165,1.01722 -2.47588,1.44578c-0.44856,0.22503 -0.92898,0.38019 -1.38919,0.58032c-0.48025,0.20884 -0.93568,0.47912 -1.43192,0.64647c-0.41639,0.14043 -0.86494,0.16022 -1.29005,0.27152c-0.94273,0.24683 -1.87847,0.52015 -2.81202,0.79968c-0.43302,0.12965 -0.84414,0.33057 -1.28285,0.43946c-0.50529,0.12541 -1.02651,0.17451 -1.53987,0.26116c-0.04213,0.00712 -2.92534,0.49165 -2.9643,0.49627c-0.69244,0.08212 -1.87307,0.01954 -2.48343,-0.00627c-0.42845,-0.01811 -0.86241,0.00375 -1.2845,-0.07201c-0.30516,-0.05476 -0.57609,-0.23305 -0.87496,-0.31554c-0.29857,-0.08241 -0.60804,-0.11846 -0.91205,-0.17768c-1.01349,-0.37028 -2.02482,-0.65929 -2.88306,-1.3389c-0.36228,-0.28687 -0.79758,-0.51558 -1.05502,-0.89933c-0.29095,-0.43372 -0.38692,-0.97173 -0.53593,-1.47229c-0.26834,-0.90141 -0.45994,-2.09164 -0.62037,-3.01729c-0.17008,-0.9814 -0.33133,-1.96451 -0.49627,-2.9468c-0.11407,-0.67933 -0.33811,-1.35045 -0.33436,-2.03929c0.00158,-0.29076 0.32516,-2.45841 0.33802,-2.65742c0.03235,-0.50097 -0.03052,-1.00488 -0.00139,-1.50605c0.01948,-0.33525 0.10153,-0.66396 0.14685,-0.99672c0.1563,-1.14772 0.1274,-1.43932 0.49066,-2.63047c0.10429,-0.34197 0.27709,-0.65925 0.40781,-0.99201c0.11371,-0.28946 0.18259,-0.59812 0.32537,-0.87439c0.19739,-0.38194 0.45984,-0.72657 0.68977,-1.08985c1.10949,-0.5466 2.4752,-0.8771 3.90468,-1.11212z" fill="#000000" stroke="none" stroke-width="0.5" stroke-linecap="butt"/><path d="M290.59271,75.09462c-1.14373,0.37707 -2.32131,0.60642 -3.4932,0.89011c-0.32975,0.07983 -0.65734,0.16919 -0.98929,0.23932c-0.19601,0.04141 -0.4032,0.03231 -0.59345,0.09506c-0.49257,0.16247 -0.91626,0.49394 -1.40337,0.6721c-0.56073,0.20507 -1.16428,0.26563 -1.74359,0.41014c-0.35528,0.08862 -1.01395,0.46641 -1.26503,0.57107c-0.3298,0.13748 -0.66507,0.26476 -1.00873,0.36252c-0.19797,0.05632 -0.41497,0.03109 -0.60965,0.09788c-0.20058,0.06883 -0.36636,0.21513 -0.55927,0.30321c-0.84053,0.3838 -1.72213,0.68062 -2.5546,1.08483c-0.45947,0.2231 -0.85863,0.55903 -1.32004,0.7781c-0.27867,0.13231 -0.58092,0.2078 -0.87138,0.31171c-1.17456,0.41544 -2.24348,0.98875 -3.33385,1.59039c-0.27639,0.1525 -0.5673,0.28101 -0.82987,0.45625c-0.45583,0.30423 -0.80207,0.74961 -1.23725,1.08273c-0.47866,0.36641 -1.01081,0.6572 -1.52201,0.97666c-0.03959,0.02474 -1.73005,1.05452 -1.75057,1.0647c-0.05664,0.02811 -1.79868,0.70468 -1.88804,0.74248c-0.86778,0.36708 -1.67958,0.85382 -2.53656,1.23507c-0.06639,0.02953 -0.13331,0.05775 -0.20064,0.08496c0.05451,0.27121 0.12386,0.54369 0.20887,0.81717c0.00544,0.25159 -0.03609,0.50864 0.01632,0.75477c0.20261,0.95157 0.4195,0.97873 0.90806,1.7867c0.17844,0.2951 0.28896,0.63199 0.49549,0.90817c0.64492,0.86239 1.08474,1.13775 2.01123,1.65945c1.26931,0.71475 2.67741,0.88432 4.06398,1.22931c0.495,0.12316 0.98663,0.2599 1.47647,0.40221c0.35452,0.103 0.6923,0.27084 1.0561,0.33359c0.2526,0.04357 0.51626,-0.0629 0.76878,-0.01881c0.41593,0.07263 0.80144,0.27047 1.21297,0.36486c1.23264,0.28269 2.57494,0.20793 3.82999,0.32227c0.74075,0.06749 1.30277,0.21141 2.03946,0.19147c0.28659,-0.00775 0.56969,-0.06508 0.85453,-0.09763c0.49693,-0.05531 0.99372,-0.11192 1.49079,-0.16595c0.46211,-0.05024 0.93661,-0.03091 1.38676,-0.14686c0.4617,-0.11893 0.86594,-0.40558 1.32018,-0.55041c0.27631,-0.08809 0.58166,-0.05618 0.85803,-0.14407c0.44129,-0.14034 0.84848,-0.37227 1.28152,-0.53634c0.38075,-0.14425 0.80157,-0.19157 1.15821,-0.388c0.38418,-0.21159 0.66211,-0.58023 1.03087,-0.81767c0.31615,-0.20356 0.69306,-0.2991 1.01224,-0.49786c0.25075,-0.15615 0.43295,-0.40895 0.68672,-0.56014c0.36588,-0.21798 0.78519,-0.33383 1.15834,-0.53912c0.30083,-0.1655 0.56732,-0.38719 0.85788,-0.57009c0.77537,-0.48806 1.63112,-0.8408 2.40271,-1.33483c0.42001,-0.26892 0.76673,-0.64097 1.18147,-0.91795c0.26289,-0.17557 0.6001,-0.23203 0.84317,-0.43416c0.25707,-0.21378 0.4153,-0.52407 0.62359,-0.7856c0.47946,-0.60203 1.09071,-1.24043 1.36722,-1.98994c0.06947,-0.1883 0.05162,-0.39893 0.05511,-0.5996c0.01261,-0.72452 -0.02041,-1.44917 -0.01942,-2.17379c0.0029,-1.9718 0.02083,-3.97309 -0.12662,-5.94043c-0.10624,-1.41749 -0.37935,-2.81182 -0.61754,-4.21099c-2.40926,0.40728 -4.76293,1.09557 -7.18311,1.60101zM258.95341,88.3167c-0.17789,-0.46728 0.28939,-0.64518 0.28939,-0.64518c0.00521,-0.00198 0.01043,-0.00396 0.01564,-0.00593c-0.52683,-3.94596 1.7795,-7.7211 4.65168,-10.50387c-0.12428,-0.10778 -0.22263,-0.27702 -0.22912,-0.5427c-0.01834,-0.74977 0.73143,-0.76812 0.73143,-0.76812c0.20268,0.00089 0.41426,0.06212 0.60802,0.00266c0.33444,-0.10261 0.60742,-0.354 0.93522,-0.47615c0.02514,-0.00937 0.05044,-0.01824 0.07586,-0.0267c0.08164,-0.0613 0.16329,-0.12173 0.24491,-0.18127l0.42492,-0.15164c0,0 0.21649,-0.03635 0.43488,0.0474c0.44992,-0.16456 0.87055,-0.40054 1.30897,-0.59374c0.90376,-0.39829 1.83099,-0.74393 2.72326,-1.16734c0.89492,-0.42467 1.75609,-0.91711 2.63483,-1.3743c0.46205,-0.24039 0.90643,-0.51862 1.38675,-0.72006c0.73295,-0.30737 1.54,-0.41691 2.26799,-0.73587c0.91433,-0.40061 1.76457,-0.9398 2.68457,-1.32721c0.87004,-0.36636 1.78142,-0.62934 2.64968,-0.99985c1.31831,-0.56257 2.60792,-1.10484 3.96549,-1.57389c0.86124,-0.36039 1.70286,-0.77213 2.58433,-1.07977c1.42013,-0.49565 2.88296,-0.88395 4.31475,-1.34264c0.51685,-0.16557 2.24169,-0.97851 2.87069,-0.6199c1.11525,0.63582 1.07061,2.09908 1.2866,3.10861c0.10238,0.47855 0.24399,0.94785 0.36581,1.42182c0.19706,0.76665 0.43486,1.52404 0.58999,2.30027c0.00544,0.0272 0.42149,2.50612 0.45617,2.71265c0.25227,1.50238 0.54838,2.99668 0.663,4.51823c0.15107,2.00529 0.13354,4.04505 0.13084,6.05495c-0.00108,0.74846 0.04912,1.49752 0.01761,2.24532c-0.01378,0.32689 -0.01232,0.66564 -0.12178,0.97398c-0.35595,1.00282 -0.97379,1.67434 -1.63108,2.48349c-0.27518,0.33877 -0.50697,0.72239 -0.84033,1.00409c-0.28395,0.23993 -0.67073,0.32626 -0.97934,0.53353c-0.41613,0.27949 -0.76556,0.65219 -1.18795,0.92212c-0.43372,0.27717 -0.92005,0.46246 -1.36996,0.71251c-0.67768,0.37664 -1.28925,0.86512 -1.96849,1.23894c-0.35112,0.19324 -0.74884,0.29551 -1.09319,0.5006c-0.24842,0.14796 -0.42531,0.39717 -0.67075,0.55002c-0.32337,0.20137 -0.70415,0.30012 -1.02477,0.50584c-0.39547,0.25375 -0.70001,0.6407 -1.11259,0.86557c-0.41699,0.22727 -0.90024,0.30363 -1.34383,0.47323c-0.47099,0.18007 -0.91859,0.42227 -1.39902,0.57541c-0.27631,0.08808 -0.58165,0.05618 -0.85803,0.14407c-0.46747,0.14865 -0.88474,0.44122 -1.36035,0.56134c-0.06968,0.0176 -2.95187,0.3361 -3.08562,0.35098c-0.32552,0.0354 -0.64923,0.09809 -0.97658,0.1062c-0.93981,0.02327 -1.27817,-0.11105 -2.21625,-0.19672c-1.31586,-0.12018 -2.70817,-0.05416 -4.0019,-0.34766c-0.37878,-0.08593 -0.72957,-0.28064 -1.11218,-0.3475c-0.25251,-0.04412 -0.51635,0.0634 -0.76878,0.01881c-0.91711,-0.16199 -1.78325,-0.54062 -2.68704,-0.76532c-1.50885,-0.37513 -3.03928,-0.57919 -4.41682,-1.36521c-1.18417,-0.67568 -1.6668,-0.99482 -2.51247,-2.09704c-0.23565,-0.30715 -0.36555,-0.68295 -0.56599,-1.01415c-0.19508,-0.32233 -0.4566,-0.60561 -0.6198,-0.94518c-0.2058,-0.42819 -0.37054,-0.87974 -0.47953,-1.34214c-0.05988,-0.25407 -0.0142,-0.52186 -0.0213,-0.7828c-0.06244,-0.19088 -0.11768,-0.3816 -0.16594,-0.57209c-0.15259,0.01219 -0.38024,-0.02568 -0.49255,-0.32068z" fill="#000000" stroke="none" stroke-width="0.5" stroke-linecap="butt"/><path d="M207.66558,72.09939c-0.12419,-0.73965 0.61545,-0.86384 0.61545,-0.86384l0.64352,-0.10805c3.29427,-0.54743 6.19834,-0.12828 9.31174,0.58553c2.76633,0.63424 7.29552,-0.49393 10.18873,-0.65478c2.29136,-0.01095 4.5855,0.01207 6.87643,-0.03115c0.51261,-0.00967 1.02472,-0.06319 1.53727,-0.05047c1.4016,0.0348 2.807,0.31419 4.20586,0.40868c0.16029,0.01083 2.94321,0.10407 3.04822,0.11826c0.79975,0.10799 1.57408,0.36299 2.37139,0.48778c0.90003,0.14086 1.79842,0.29481 2.69098,0.47707c0.51112,0.10437 1.03568,0.15724 1.5331,0.31442c0.57612,0.18204 1.18634,0.33988 1.67257,0.69853c0.31577,0.2329 0.41732,0.66456 0.62598,0.99684c0,0 0.37599,0.64895 -0.27295,1.02494c-0.64895,0.37599 -1.02494,-0.27295 -1.02494,-0.27295c-0.10189,-0.20372 -0.11975,-0.47958 -0.30568,-0.61116c-0.32339,-0.22884 -0.73746,-0.29462 -1.11998,-0.39767c-1.30422,-0.35133 -2.69929,-0.53923 -4.03123,-0.74809c-0.78719,-0.12343 -1.55157,-0.37553 -2.34104,-0.48334c-0.97412,-0.13303 -1.96659,-0.04177 -2.94751,-0.10803c-1.38019,-0.09323 -2.76952,-0.37301 -4.15228,-0.40603c-0.48716,-0.01163 -0.97381,0.04146 -1.46103,0.05094c-2.28534,0.04447 -4.57423,0.0211 -6.86001,0.03074c-3.10575,0.17369 -7.54212,1.2439 -10.54959,0.62186c-2.94695,-0.60953 -5.61517,-1.10469 -8.74763,-0.57264l-0.64352,0.10805c0,0 -0.73965,0.12419 -0.86384,-0.61545z" fill="#000000" stroke="none" stroke-width="0.5" stroke-linecap="butt"/><path d="M300.53699,37.32455l0.69517,0.63815c-7.32153,6.24677 -16.2929,10.90309 -22.6029,18.2488c-2.19348,2.55352 -4.38468,5.10878 -6.56814,7.67088c-1.27035,1.49065 -2.55565,2.95992 -3.86969,4.41219c-0.34629,0.38272 -0.66936,0.78785 -1.03942,1.14762c-0.37006,0.35978 -0.78413,0.67131 -1.17645,1.00668c-1.05466,0.90152 -2.11214,1.83234 -3.21763,2.67172c-0.6428,0.48806 -1.34151,0.89774 -2.01251,1.34624c0,0 -0.62353,0.41678 -1.04031,-0.20676c-0.41678,-0.62353 0.20676,-1.04031 0.20676,-1.04031c0.65099,-0.43514 1.33019,-0.8307 1.95346,-1.30468c1.07761,-0.81949 2.10671,-1.72872 3.13616,-2.6069c0.36813,-0.31404 0.75799,-0.60419 1.10492,-0.94148c0.34694,-0.3373 0.64797,-0.71881 0.97224,-1.07796c1.30276,-1.44283 2.57989,-2.89969 3.84081,-4.3793c2.18472,-2.56359 4.3772,-5.12035 6.57196,-7.67535c6.28338,-7.31472 15.13991,-11.97439 22.4652,-18.15608c0.07695,-0.09506 0.15013,-0.14841 0.15013,-0.14841l0.01206,0.01108c0.04648,-0.03949 0.0929,-0.07905 0.13926,-0.11867z" fill="#000000" stroke="none" stroke-width="0.5" stroke-linecap="butt"/></g><g stroke="#000000" stroke-width="1.5" stroke-linecap="round"><path d="M-27.93261,224.04402l417.02276,-341.35776l21.97515,44.80277l-349.85894,293.24043l2.27415,20.13643l10.73459,18.43442l-47.4669,41.65127l-46.12924,-52.8654z" fill="#828282"/><path d="M73.46871,258.40058l-10.44859,-12.59647l-3.16351,-23.9553l136.61869,-116.36079l15.77844,71.20638l70.96991,22.38821l-129.6404,108.29425l-56.09522,18.43215l-34.09694,-12.72513l-23.51969,-23.77696z" fill="#710000"/><path d="M196.24519,107.95728l31.1883,8.3031l27.85464,26.25655l-14.09949,13.21414l-11.94122,-14.39593l-28.69844,-17.20311z" fill="#b5b5b5"/></g></g></g></svg>