<svg version="1.1" xmlns="http://www.w3.org/2000/svg" xmlns:xlink="http://www.w3.org/1999/xlink" width="2878.25006" height="1619.57958" viewBox="0,0,2878.25006,1619.57958"><g transform="translate(1119.12503,629.78979)"><g stroke-miterlimit="10"><path d="M-1119.12503,989.78979v-1619.57958h2878.25006v1619.57958z" fill="none" stroke="#000000" stroke-width="0" stroke-linecap="butt"/><g stroke-width="0"><path d="M180.81728,337.52298l34.28391,-35.94698l93.59733,3.68829l-20.4987,36.87351z" fill="#cedce9" stroke="#000000" stroke-linecap="round"/><path d="M171.95636,335.18008c-3.22129,-0.66658 -10.89663,-1.81968 -7.50745,-2.5251c-1.84892,0.19327 -4.31493,0.42025 -5.62525,0.45352c-6.2074,0.15758 -14.23147,-0.6116 -20.6276,-0.88648c-17.54737,-0.75411 -34.57842,-1.71129 -51.5866,-1.37443c-7.68646,0.15224 -9.76525,-1.4273 -12.16636,0.55458c-4.93588,3.28638 -14.14952,6.01231 -20.10017,9.27852c-8.06507,4.42673 -11.25078,8.89804 -16.23413,13.47011c-5.60812,3.70055 -1.26705,11.45488 -1.35949,15.83805c-0.02474,1.17329 1.48112,3.3284 -0.01739,4.12841c1.47064,0.10688 2.89111,0.20777 3.79633,0.24668c6.0164,0.25856 12.03272,0.51711 18.04915,0.77567c23.93223,1.02851 51.74198,2.05264 75.01084,1.15509c27.62292,-0.83718 57.45351,3.34767 85.29391,2.72723c15.24434,-0.25613 31.82923,0.99831 47.33086,1.67093c7.86397,0.34122 14.61887,-0.34448 18.03136,1.61745c0.89693,0.51569 0.02367,-1.12236 0.03551,-1.68353c0.02958,-1.40291 0.05917,-2.80593 0.08875,-4.20884c0.16569,-7.85652 0.33138,-15.713 0.49707,-23.5695c0.03918,-1.85733 -1.31201,-8.56628 1.78836,-9.15274c-0.57846,-0.03616 -1.23307,-0.08263 -1.59307,-0.10672c-3.18898,-0.21312 -4.9728,-0.2323 -7.45053,-0.91933c-4.3015,-1.19272 -18.90126,-1.05569 -24.76226,-1.30756c-22.77626,-0.97881 -45.55247,-1.95764 -68.32874,-2.93648c0,0 -5.15688,-0.22161 -5.12137,-1.90513c0.00146,-0.06912 0.01149,-0.13499 0.02953,-0.19781c-2.46167,-0.27655 -4.94686,-0.62013 -7.47115,-1.14245zM252.91923,337.99495c13.74891,0.59087 31.33803,0.54679 40.65537,4.36374c5.3392,2.18723 1.66019,8.30623 1.6048,10.93295c-0.16569,7.85652 -0.33137,15.71298 -0.49707,23.5695c-0.01892,0.89715 1.66342,5.42385 -0.12427,5.89239c-18.0567,4.73225 -51.78133,-1.01241 -73.72282,-0.34296c-27.22341,0.60671 -58.46003,-4.12128 -84.81441,-2.7418c-23.98233,0.9251 -52.82947,-0.10116 -77.51444,-1.16202c-3.54078,-0.15218 -24.79357,-0.1893 -27.07361,-1.16352c-6.53834,-2.79372 -5.05977,-4.82626 -4.99709,-7.79755c0.11333,-5.3744 -2.66982,-11.90613 1.91125,-16.88009c5.10765,-4.68607 8.72076,-9.45087 16.80312,-13.88708c3.26033,-1.78949 6.79239,-4.21882 10.98993,-5.78121c2.74665,-1.02233 7.97165,-1.72433 8.65326,-3.1775c4.49402,-3.70942 12.4399,-2.08924 21.88761,-2.33913c16.81811,-0.44485 34.18941,0.62675 51.58661,1.37441c6.41598,0.27572 18.97231,-0.14947 23.49217,0.34497c7.86799,0.86076 12.38944,3.25064 20.01212,4.23015c5.59341,0.71876 11.50441,0.6896 18.02251,2.03833c0.49483,0.10244 0.98956,0.20479 1.48444,0.30719c17.21354,0.73977 34.42717,1.47954 51.64074,2.2193z" fill="#000000" stroke="none" stroke-linecap="butt"/><path d="M179.50092,336.24483c-0.01804,0.06281 -0.02747,0.12876 -0.02893,0.19788c-0.0355,1.68352 5.14663,1.90911 5.14663,1.90911c22.77621,0.97883 45.67312,1.99633 68.44947,2.97517c5.86097,0.25187 20.47384,0.12327 24.77533,1.31595c2.47768,0.68703 4.26551,0.70923 7.45436,0.9223c0.35995,0.02407 1.01509,0.071 1.59366,0.10719c-3.10038,0.58646 -1.73387,7.31219 -1.77305,9.16952c-0.16569,7.85651 -0.34312,15.7593 -0.50881,23.6158c-0.02959,1.40295 -0.06813,2.81236 -0.09771,4.21527c-0.01183,0.56117 0.85749,2.20158 -0.03945,1.68591c-3.41247,-1.96192 -10.17358,-1.27289 -18.03749,-1.61409c-15.50164,-0.67262 -32.13389,-1.90987 -47.37817,-1.65371c-27.84043,0.62045 -57.94455,-3.55982 -85.56749,-2.72264c-23.26885,0.89756 -51.19086,-0.16075 -75.12326,-1.18926c-6.01641,-0.25855 -12.04317,-0.52286 -18.05956,-0.78142c-0.9053,-0.0389 -2.32768,-0.14093 -3.79825,-0.2478c1.49853,-0.80004 -0.01682,-2.96148 0.00792,-4.13479c0.09244,-4.38317 -4.27228,-12.16767 1.33596,-15.86825c4.98341,-4.57209 8.18035,-9.0749 16.24542,-13.50162c5.95074,-3.26623 15.20351,-6.01556 20.13943,-9.30191c2.40107,-1.98188 4.49603,-0.40806 12.18246,-0.56028c17.00813,-0.33682 34.15033,0.60151 51.69757,1.35563c6.39603,0.27487 14.49209,1.04292 20.69949,0.88536c1.3102,-0.03328 3.79673,-0.25937 5.64564,-0.45263c-3.38928,0.70538 4.31656,1.86084 7.53792,2.52738c2.52437,0.52232 5.03955,0.86944 7.50116,1.14598z" fill="#d2d2d2" stroke="none" stroke-linecap="butt"/><path d="M107.07743,339.31011c-0.012,0.56897 1.75122,1.33495 0.85564,1.74739c2.26481,0.17354 4.5411,0.43785 6.55929,0.85548c7.78152,1.61018 23.56795,6.9373 25.00099,10.0722c0.11652,0.25499 -2.0924,0.20182 -1.72315,0.43937c1.22873,0.79045 11.39569,-0.05451 12.55769,0.20488c0.26293,0.05869 0.39101,0.13803 0.44106,0.23009c-0.04841,-0.28127 -0.09241,-0.55303 -0.08883,-0.7227c0.01257,-0.59635 0.0983,-1.23589 -0.70736,-1.8044c-6.84479,-4.99978 -18.09577,-9.95662 -37.7384,-10.80077c0,0 -2.31799,-0.09963 -3.8352,-0.67262c-0.50751,-0.11637 -0.90139,-0.24456 -1.16427,-0.38629c-0.07505,0.31823 -0.1534,0.64209 -0.15751,0.83732zM150.64465,353.82033c0.34468,0.3598 0.25295,-0.21677 0.14862,-0.82031c-0.02996,0.25868 -0.38423,0.57443 -0.14862,0.82031zM159.22925,349.22306c6.32399,4.46228 -8.36464,9.95375 -21.53017,6.56855c-12.42176,-3.19401 -16.53437,-8.71708 -27.8827,-11.06527c-3.83382,-0.79332 -8.43639,-1.33425 -11.28824,-2.50252c-4.51929,-1.85141 -2.38123,-7.41825 6.32796,-7.04398c6.27123,0.26951 9.34605,1.06627 15.18445,1.31719l2.57844,0.11082c0,0 2.95992,0.12724 4.37938,0.92094c15.24125,2.28436 24.95631,6.84152 32.23092,11.69423z" fill="#000000" stroke="none" stroke-linecap="butt"/><path d="M107.04475,338.40814c0.26274,0.14174 0.6568,0.26986 1.16437,0.38626c1.51717,0.57302 3.84577,0.66946 3.84577,0.66946c19.6426,0.84415 31.30105,5.91741 38.14579,10.91719c0.80565,0.56848 0.69718,1.2188 0.68461,1.81512c-0.00359,0.16967 0.03084,0.44491 0.07925,0.72618c-0.04994,-0.09209 -0.1768,-0.17179 -0.43987,-0.23054c-1.16198,-0.25939 -11.41729,0.60396 -12.64602,-0.18648c-0.3693,-0.23757 1.59784,-0.34275 1.48121,-0.59779c-1.43298,-3.13491 -17.29655,-8.44176 -25.07817,-10.05192c-2.01827,-0.41763 -4.30777,-0.67564 -6.5726,-0.8492c0.89559,-0.41246 -0.84627,-1.1879 -0.83428,-1.75685c0.00411,-0.19523 0.09445,-0.52325 0.16965,-0.84147z" fill="#ffffff" stroke="none" stroke-linecap="butt"/></g><g stroke-width="0"><path d="M349.77112,343.32827l-20.4987,-36.87351l93.59733,-3.68829l34.28391,35.94698z" fill="#cedce9" stroke="#000000" stroke-linecap="round"/><path d="M466.01447,336.37069c-2.52429,0.52232 -5.00948,0.8659 -7.47115,1.14245c0.01804,0.06282 0.02807,0.12869 0.02953,0.19781c0.03551,1.68352 -5.12137,1.90513 -5.12137,1.90513c-22.77627,0.97884 -45.55248,1.95767 -68.32874,2.93648c-5.861,0.25187 -20.46076,0.11484 -24.76226,1.30756c-2.47773,0.68703 -4.26155,0.70621 -7.45053,0.91933c-0.36,0.02409 -1.01461,0.07056 -1.59307,0.10672c3.10037,0.58646 1.74918,7.29541 1.78836,9.15274c0.16569,7.8565 0.33138,15.71298 0.49707,23.5695c0.02958,1.40291 0.05917,2.80593 0.08875,4.20884c0.01184,0.56117 -0.86142,2.19922 0.03551,1.68353c3.41249,-1.96193 10.16739,-1.27623 18.03136,-1.61745c15.50163,-0.67262 32.08652,-1.92706 47.33086,-1.67093c27.8404,0.62044 57.67099,-3.56441 85.29391,-2.72723c23.26886,0.89755 51.07861,-0.12658 75.01084,-1.15509c6.01643,-0.25856 12.03275,-0.51711 18.04915,-0.77567c0.90522,-0.03891 2.32569,-0.1398 3.79633,-0.24668c-1.49851,-0.80001 0.00735,-2.95512 -0.01739,-4.12841c-0.09244,-4.38317 4.24863,-12.1375 -1.35949,-15.83805c-4.98335,-4.57207 -8.16906,-9.04338 -16.23413,-13.47011c-5.95065,-3.26621 -15.16429,-5.99214 -20.10017,-9.27852c-2.40111,-1.98188 -4.4799,-0.40234 -12.16636,-0.55458c-17.00818,-0.33686 -34.03923,0.62032 -51.5866,1.37443c-6.39613,0.27488 -14.4202,1.04406 -20.6276,0.88648c-1.31032,-0.03327 -3.77633,-0.26025 -5.62525,-0.45352c3.38918,0.70542 -4.28616,1.85852 -7.50745,2.5251zM385.05149,339.1855c17.21357,-0.73976 34.4272,-1.47953 51.64074,-2.2193c0.49488,-0.1024 0.98961,-0.20475 1.48444,-0.30719c6.5181,-1.34873 12.4291,-1.31957 18.02251,-2.03833c7.62268,-0.97951 12.14413,-3.36939 20.01212,-4.23015c4.51986,-0.49444 17.07619,-0.06925 23.49217,-0.34497c17.3972,-0.74766 34.7685,-1.81926 51.58661,-1.37441c9.44771,0.24989 17.39359,-1.37029 21.88761,2.33913c0.68161,1.45317 5.90661,2.15517 8.65326,3.1775c4.19754,1.56239 7.7296,3.99172 10.98993,5.78121c8.08236,4.43621 11.69547,9.20101 16.80312,13.88708c4.58107,4.97396 1.79792,11.50569 1.91125,16.88009c0.06268,2.97129 1.54125,5.00383 -4.99709,7.79755c-2.28004,0.97422 -23.53283,1.01134 -27.07361,1.16352c-24.68497,1.06086 -53.53211,2.08712 -77.51444,1.16202c-26.35438,-1.37948 -57.591,3.34851 -84.81441,2.7418c-21.94149,-0.66945 -55.66612,5.07521 -73.72282,0.34296c-1.78769,-0.46854 -0.10535,-4.99524 -0.12427,-5.89239c-0.1657,-7.85652 -0.33138,-15.71298 -0.49707,-23.5695c-0.05539,-2.62672 -3.7344,-8.74572 1.6048,-10.93295c9.31734,-3.81695 26.90646,-3.77287 40.65537,-4.36374z" fill="#000000" stroke="none" stroke-linecap="butt"/><path d="M458.46977,337.43535c2.46161,-0.27654 4.97679,-0.62366 7.50116,-1.14598c3.22136,-0.66654 10.9272,-1.822 7.53792,-2.52738c1.84891,0.19326 4.33544,0.41935 5.64564,0.45263c6.2074,0.15756 14.30346,-0.61049 20.69949,-0.88536c17.54724,-0.75412 34.68944,-1.69245 51.69757,-1.35563c7.68643,0.15222 9.78139,-1.4216 12.18246,0.56028c4.93592,3.28635 14.18869,6.03568 20.13943,9.30191c8.06507,4.42672 11.26201,8.92953 16.24542,13.50162c5.60824,3.70058 1.24352,11.48508 1.33596,15.86825c0.02474,1.17331 -1.49061,3.33475 0.00792,4.13479c-1.47057,0.10687 -2.89295,0.2089 -3.79825,0.2478c-6.01639,0.25856 -12.04315,0.52287 -18.05956,0.78142c-23.9324,1.02851 -51.85441,2.08682 -75.12326,1.18926c-27.62294,-0.83718 -57.72706,3.34309 -85.56749,2.72264c-15.24428,-0.25616 -31.87653,0.98109 -47.37817,1.65371c-7.86391,0.3412 -14.62502,-0.34783 -18.03749,1.61409c-0.89694,0.51567 -0.02762,-1.12474 -0.03945,-1.68591c-0.02958,-1.40291 -0.06812,-2.81232 -0.09771,-4.21527c-0.16569,-7.8565 -0.34312,-15.75929 -0.50881,-23.6158c-0.03918,-1.85733 1.32733,-8.58306 -1.77305,-9.16952c0.57857,-0.03619 1.23371,-0.08312 1.59366,-0.10719c3.18885,-0.21307 4.97668,-0.23527 7.45436,-0.9223c4.30149,-1.19268 18.91436,-1.06408 24.77533,-1.31595c22.77635,-0.97884 45.67326,-1.99634 68.44947,-2.97517c0,0 5.18213,-0.22559 5.14663,-1.90911c-0.00146,-0.06912 -0.01089,-0.13507 -0.02893,-0.19788z" fill="#d2d2d2" stroke="none" stroke-linecap="butt"/><path d="M530.89355,340.50053c-0.00411,-0.19523 -0.08246,-0.51909 -0.15751,-0.83732c-0.26288,0.14173 -0.65676,0.26992 -1.16427,0.38629c-1.51721,0.57299 -3.8352,0.67262 -3.8352,0.67262c-19.64263,0.84415 -30.89361,5.80099 -37.7384,10.80077c-0.80566,0.56851 -0.71993,1.20805 -0.70736,1.8044c0.00358,0.16967 -0.04042,0.44143 -0.08883,0.7227c0.05005,-0.09206 0.17813,-0.1714 0.44106,-0.23009c1.162,-0.25939 11.32896,0.58557 12.55769,-0.20488c0.36925,-0.23755 -1.83967,-0.18438 -1.72315,-0.43937c1.43304,-3.1349 17.21947,-8.46202 25.00099,-10.0722c2.01819,-0.41763 4.29448,-0.68194 6.55929,-0.85548c-0.89558,-0.41244 0.86764,-1.17842 0.85564,-1.74739zM487.17767,354.1905c-0.10433,0.60354 -0.19606,1.18011 0.14862,0.82031c0.23561,-0.24588 -0.11866,-0.56163 -0.14862,-0.82031zM478.74165,350.41349c7.27461,-4.85271 16.98967,-9.40987 32.23092,-11.69423c1.41946,-0.7937 4.37938,-0.92094 4.37938,-0.92094l2.57844,-0.11082c5.8384,-0.25092 8.91322,-1.04768 15.18445,-1.31719c8.70919,-0.37427 10.84725,5.19257 6.32796,7.04398c-2.85185,1.16827 -7.45442,1.7092 -11.28824,2.50252c-11.34833,2.34819 -15.46094,7.87126 -27.8827,11.06527c-13.16553,3.3852 -27.85416,-2.10627 -21.53017,-6.56855z" fill="#000000" stroke="none" stroke-linecap="butt"/><path d="M530.92647,339.59858c0.0752,0.31822 0.16554,0.64624 0.16965,0.84147c0.01199,0.56895 -1.72987,1.34439 -0.83428,1.75685c-2.26483,0.17356 -4.55433,0.43157 -6.5726,0.8492c-7.78162,1.61016 -23.64519,6.91701 -25.07817,10.05192c-0.11663,0.25504 1.85051,0.36022 1.48121,0.59779c-1.22873,0.79044 -11.48404,-0.07291 -12.64602,0.18648c-0.26307,0.05875 -0.38993,0.13845 -0.43987,0.23054c0.04841,-0.28127 0.08284,-0.55651 0.07925,-0.72618c-0.01257,-0.59632 -0.12104,-1.24664 0.68461,-1.81512c6.84474,-4.99978 18.50319,-10.07304 38.14579,-10.91719c0,0 2.3286,-0.09644 3.84577,-0.66946c0.50757,-0.1164 0.90163,-0.24452 1.16437,-0.38626z" fill="#ffffff" stroke="none" stroke-linecap="butt"/></g><path d="M255.01389,-13.71394l-124.53098,0.22438l-4.93637,-9.87273l132.60867,-2.46819z" fill="#e6e6e6" stroke="#000000" stroke-width="1" stroke-linecap="round"/><g><path d="M27.8938,323.78579l0.36142,-254.63066l289.87055,7.49976l0.36144,-40.69505l296.55708,1.17466l1.08431,288.89829z" fill="#b8b19e" stroke="#000000" stroke-width="1" stroke-linecap="round"/><path d="M27.35164,272.54045l588.86731,-0.36142l-1.44574,54.21518l-589.15775,-1.80718z" fill="#a28f80" stroke="#000000" stroke-width="1" stroke-linecap="round"/><path d="M290.46595,310.60279l-49.58801,0.44877l-0.44877,-112.58274l48.6905,-0.44877z" fill="#e6e6e6" stroke="#000000" stroke-width="1" stroke-linecap="round"/><path d="M281.49075,303.8153l-35.67646,-0.22438l0.22438,-100.01745l37.47149,-0.67314z" fill="#121212" stroke="#000000" stroke-width="1" stroke-linecap="round"/><path d="M282.83703,304.32017h-37.02273l-0.44877,-86.83512l38.14463,-0.67315z" fill="#755943" stroke="#000000" stroke-width="1" stroke-linecap="round"/><path d="M351.89002,202.67595l227.74586,2.01942l1.79503,123.01643l-230.66279,-2.2438z" fill="#8b7a60" stroke="#000000" stroke-width="1" stroke-linecap="round"/><path d="M351.21687,213.05353l213.94649,1.79505l1.79503,113.31198l-216.02199,-2.97304z" fill="#d2c9c2" stroke="#000000" stroke-width="1" stroke-linecap="round"/><path d="M351.38516,217.26067l208.56136,0.89752l0.67315,16.60414l-209.68326,1.34628z" fill="#2d241d" stroke="#000000" stroke-width="1" stroke-linecap="round"/><path d="M515.91191,65.13093l-0.89751,70.67976l-89.07893,-0.44877l-0.67314,-70.67975h91.99587z" fill="#4a413a" stroke="#000000" stroke-width="1" stroke-linecap="round"/><path d="M583.22595,126.83546l-24.23306,-0.22437l-0.44875,-56.09504l27.59875,-1.1219z" fill="#4a413a" stroke="#000000" stroke-width="1" stroke-linecap="round"/><path d="M334.55663,189.54973l-156.33687,-118.58492l-163.8536,122.45546l-10.99462,-10.54586l175.01651,-126.55041l163.34876,122.00671z" fill="#e6e6e6" stroke="#000000" stroke-width="1" stroke-linecap="round"/><path d="M167.61782,273.69227l-93.79091,-0.22438l-0.67314,-73.82107l96.03471,-1.1219z" fill="#4a413a" stroke="#000000" stroke-width="1" stroke-linecap="round"/><path d="M108.21317,82.12771v24.90619l-18.17478,13.46282l-22.88677,0.44875l-0.22438,-42.18346l41.11765,0.67314z" fill="#4a413a" stroke="#000000" stroke-width="1" stroke-linecap="round"/><path d="M320.08415,59.8019l-1.57066,17.27727l-313.06641,-4.93637l-10.99463,-15.25785l324.17322,2.46818z" fill="#e6e6e6" stroke="#000000" stroke-width="1" stroke-linecap="round"/><path d="M288.7831,25.69611l356.76445,-0.89752l-4.48761,12.34091l-346.8917,-0.67315z" fill="#e6e6e6" stroke="#000000" stroke-width="1" stroke-linecap="round"/><path d="M143.21648,58.90437v-72.7305l96.59566,0.44875l0.22438,72.81137z" fill="#a09986" stroke="#000000" stroke-width="1" stroke-linecap="round"/><path d="M206.77214,35.42531h-31.63759l-0.67315,-38.36901h35.22769z" fill="#4a413a" stroke="#000000" stroke-width="1" stroke-linecap="round"/><path d="M271.42658,129.3154c-0.41603,-0.62404 0.20801,-1.04006 0.20801,-1.04006l0.23277,-0.13077c-0.01968,-0.03866 -0.03896,-0.07751 -0.0577,-0.1166c-0.71902,-1.49997 -1.54388,-3.08958 -1.90411,-4.72597c-0.10705,-0.48628 -0.11789,-0.991 -0.23253,-1.47555c-0.11648,-0.49235 -0.35424,-0.95179 -0.45885,-1.4468c-0.10609,-0.50201 -0.09338,-1.02255 -0.17019,-1.52987c-0.06034,-0.3985 -0.19488,-0.78448 -0.24086,-1.18489c-0.09303,-0.81003 -0.00386,-1.6307 -0.00386,-2.44605c0,-2.07386 0,-4.14773 0,-6.22159v-0.76128c0,-0.41421 0.33579,-0.75 0.75,-0.75c0.17598,0 0.3378,0.06061 0.46573,0.16209l1.17875,0.91681c0.44193,0.26939 1.92128,1.54955 2.33523,1.86897c0.62689,0.48375 1.24988,0.97327 1.89425,1.43348c0.38325,0.27371 0.80653,0.4879 1.19211,0.75831c0.32192,0.22576 0.58703,0.53226 0.92783,0.72837c0.40142,0.231 0.85022,0.36779 1.27943,0.5418c0.67735,0.27462 1.34407,0.58117 2.041,0.80139c0.30256,0.0956 0.62104,0.13087 0.92976,0.20417c0.90554,0.21498 1.81008,0.44191 2.72852,0.59254c0.50379,0.08262 1.01639,0.11199 1.51639,0.21509c0.47253,0.09743 0.92361,0.28339 1.3952,0.38527c0.93501,0.202 1.90425,0.18697 2.85323,0.30732c0.9824,0.12459 1.95084,0.45848 2.91629,0.67268c0.30521,0.06876 0.60485,0.17033 0.91564,0.20629c0.75947,0.08785 1.53755,-0.02015 2.29097,0.10974c0.9883,0.17039 1.93316,0.55398 2.92413,0.70808c1.18182,0.18378 2.49925,0.15455 3.68943,0.15433c0.66902,-0.00012 1.34232,0.07998 2.00707,0.00448c0.33209,-0.03772 0.64661,-0.1806 0.97879,-0.21751c0.32427,-0.03603 0.65439,0.03479 0.97879,0c0.57588,-0.06177 1.11313,-0.33095 1.68434,-0.42677c0.40781,-0.06841 0.82554,-0.05863 1.2352,-0.11496c1.85646,-0.25528 3.68442,-0.7247 5.54069,-0.978c0.02204,-0.00301 2.97353,-0.29796 3.01496,-0.3021c0.43703,-0.04304 0.87874,-0.05219 1.3111,-0.12912c0.4806,-0.08551 0.94392,-0.25035 1.42031,-0.35687c0.86425,-0.19325 1.7343,-0.36107 2.60664,-0.51369c0.95947,-0.16787 1.93365,-0.29499 2.88046,-0.53207c0.3686,-0.0923 0.72203,-0.24041 1.09193,-0.32734c0.47826,-0.1124 0.97594,-0.13712 1.44897,-0.2698c0.48257,-0.13536 0.92337,-0.39827 1.40662,-0.53121c0.47552,-0.13081 0.9851,-0.11368 1.45713,-0.25657c0.08653,-0.02619 2.52718,-1.13652 2.58865,-1.17073c1.21335,-0.67533 2.39285,-1.60847 3.44716,-2.50763c0.39812,-0.33954 0.73967,-0.74737 1.1652,-1.05186c0.35216,-0.25198 0.8076,-0.33926 1.1498,-0.60461c0.36267,-0.28122 0.62178,-0.67516 0.93417,-1.01136c0.45056,-0.48489 0.91552,-0.95635 1.38352,-1.42443c3.0585,-3.02545 7.19788,-5.21842 9.649,-8.88589l0.09435,-0.04551l-0.02194,-0.0256l0.75811,-0.64981c0.1316,-0.11418 0.30336,-0.18328 0.49127,-0.18328c0.41421,0 0.75,0.33579 0.75,0.75c0,0.04044 -0.0032,0.08013 -0.00936,0.11884l-0.10693,0.74851l-0.01373,-0.00196c-0.00068,0.02983 -0.00206,0.05969 -0.00418,0.08958c-0.02883,0.40641 -0.31448,0.75221 -0.4499,1.13647c-0.17175,0.48733 -0.27888,0.9951 -0.42492,1.49074c-0.26037,0.88365 -0.41464,1.21707 -0.51658,2.14042c-0.00556,0.05036 -0.01046,0.10088 -0.01475,0.15153c0.29706,0.18682 0.33945,0.56833 0.33945,0.56833c0.1465,1.32442 0.30582,2.6974 0.22124,4.03388c-0.03189,0.50383 -0.14203,1.00056 -0.1761,1.50425c-0.05434,0.80347 0.00867,1.61182 -0.04165,2.41555c-0.00299,0.04771 -0.00606,0.09541 -0.00921,0.14312c0.07363,0.19922 0.14202,0.39857 0.1186,0.60407c-0.05244,0.46001 -0.13767,0.78343 -0.2542,1.05025c-0.0851,0.90462 -0.18253,1.8089 -0.26458,2.71147c-0.16233,1.78558 -0.21859,3.63 -0.58384,5.39039c-0.06694,0.32263 -0.54271,2.04212 -0.65728,2.52275c-0.12611,0.52903 -0.13848,1.09381 -0.35609,1.59222c-0.18178,0.41634 -1.58993,2.23243 -1.88145,2.61712c-2.31913,2.38467 -4.282,5.07797 -6.63533,7.43132c-0.62771,0.62771 -1.28479,1.22618 -1.95349,1.81003c-0.22071,0.1927 -0.42238,0.41005 -0.66346,0.57656c-0.39462,0.27258 -1.69919,1.00259 -2.21566,1.33263c-1.09451,0.69942 -2.14289,1.41932 -3.25902,2.08616c-0.32173,0.19222 -0.62214,0.42674 -0.96675,0.57404c-0.47681,0.20381 -0.99482,0.29529 -1.48207,0.4727c-0.88352,0.32169 -1.71645,0.77583 -2.60757,1.07581c-0.08264,0.02782 -2.15748,0.58862 -2.48932,0.67847c-1.74586,0.22039 -3.49598,0.42445 -5.22442,0.7621c-2.10984,0.41216 -4.20759,0.90531 -6.33964,1.20171c-1.74111,0.24205 -3.53832,0.4817 -5.29573,0.55104c-0.39773,0.01569 -0.79665,-0.02136 -1.19412,-0.0001c-0.99676,0.0533 -1.98395,0.2333 -2.9806,0.28869c-2.20796,0.12271 -4.40276,0.01463 -6.60045,-0.18369c-0.99907,-0.13324 -1.98923,-0.32719 -2.98671,-0.4719c-1.98749,-0.28832 -3.99652,-0.49842 -5.96956,-0.88636c-0.44372,-0.08724 -1.86125,-0.48266 -2.43994,-0.61397c-0.49151,-0.11153 -0.99036,-0.19038 -1.47952,-0.31182c-0.7843,-0.19471 -1.54213,-0.49041 -2.33052,-0.66782c-0.50078,-0.11269 -1.02071,-0.14128 -1.513,-0.28668c-0.77993,-0.23035 -2.11691,-0.89973 -2.85533,-1.25172c-0.7751,-0.36948 -1.98038,-0.8801 -2.60679,-1.47258c-0.5526,-0.52266 -1.05251,-1.44296 -1.44387,-2.13421c-0.70976,-1.25365 -1.30898,-2.5307 -1.9105,-3.83831c-0.09554,-0.50297 -0.15435,-1.01433 -0.28663,-1.50891c-0.32932,-1.23131 -0.5775,-1.41943 -1.0097,-2.59819c-0.07384,-0.20139 -0.12267,-0.41125 -0.17734,-0.61905l-0.00631,0.00947c0,0 -0.62404,0.41603 -1.04006,-0.20801zM273.95902,129.29781c0.03024,0.10979 0.06288,0.21877 0.10204,0.32552c0.3344,0.91174 0.79442,1.78099 1.04755,2.71856c0.12721,0.47117 0.17749,0.9598 0.26624,1.43971c0.5707,1.20734 1.12923,2.39333 1.78716,3.55701c0.29196,0.51639 0.77258,1.40723 1.16624,1.78096c0.44263,0.42022 1.70444,0.96395 2.2245,1.21137c0.58634,0.27896 1.98892,0.97898 2.63285,1.16671c0.46724,0.13622 0.96077,0.15946 1.43562,0.26619c0.79383,0.17843 1.55695,0.47589 2.34666,0.67173c0.48141,0.11939 0.97244,0.19643 1.45613,0.30621c0.41314,0.09377 2.15188,0.55661 2.39114,0.60354c1.94888,0.38226 3.93281,0.589 5.89586,0.87378c0.98121,0.14235 1.955,0.33461 2.93779,0.46562c2.11464,0.19004 4.22616,0.29482 6.35078,0.17674c1.00028,-0.05559 1.99114,-0.23527 2.9915,-0.28926c0.39891,-0.02153 0.79928,0.01528 1.19848,-0.0001c1.70662,-0.06575 3.45383,-0.30203 5.14472,-0.53651c2.11083,-0.29271 4.18716,-0.78305 6.27591,-1.1909c1.72592,-0.337 3.47219,-0.5448 5.21603,-0.76047c0.76491,-0.21029 1.54399,-0.37371 2.29589,-0.62658c0.88183,-0.29657 1.70502,-0.74843 2.57954,-1.06593c0.45256,-0.1643 0.93504,-0.24363 1.37867,-0.43069c0.29143,-0.12288 0.54008,-0.32931 0.81096,-0.49258c0.6613,-0.39861 1.32314,-0.79736 1.9656,-1.22567c1.10732,-0.73821 2.30287,-1.36811 3.39756,-2.11926c0.20486,-0.14057 0.37218,-0.32923 0.55896,-0.49306c0.64238,-0.56339 1.2764,-1.13765 1.88058,-1.74183c2.3265,-2.32648 4.26195,-4.99419 6.55838,-7.34834c0.09038,-0.1197 1.56007,-2.04434 1.64324,-2.23703c0.18078,-0.41885 0.17081,-0.89646 0.2725,-1.34118c0.10775,-0.47127 0.57375,-2.12524 0.64778,-2.47996c0.35488,-1.70063 0.40174,-3.48961 0.55822,-5.21474c-0.57829,0.85706 -1.15083,1.71913 -1.71531,2.58396c-0.5013,0.63568 -1.03376,1.24632 -1.56394,1.85811c-0.92615,1.06872 -1.80064,2.17963 -2.93795,3.04094c-0.40617,0.3076 -0.83949,0.57763 -1.25619,0.8708c-0.23102,0.16253 -0.43669,0.36513 -0.68688,0.49625c-0.63223,0.33134 -1.33679,0.51605 -1.95686,0.86964c-0.43998,0.25089 -0.84566,0.56101 -1.29465,0.79541c-0.05692,0.02972 -2.69001,1.17432 -2.78476,1.21764c-0.25983,0.1188 -1.97011,0.9649 -2.35525,1.08801c-0.48263,0.15427 -0.98716,0.22894 -1.48034,0.34514c-1.24658,0.2937 -2.49124,0.59503 -3.73611,0.89586c-0.46768,0.11302 -0.94559,0.1897 -1.40331,0.338c-0.45772,0.1483 -0.88992,0.36612 -1.33488,0.54918c-2.01551,0.82554 -4.11748,1.74758 -6.27269,2.13709c-1.48308,0.26804 -3.00231,0.44794 -4.49523,0.6597c-0.76009,0.10781 -1.50646,0.30938 -2.27004,0.38883c-0.51517,0.0536 -1.03574,0.02039 -1.55342,0.03727c-1.51491,0.04939 -3.03541,0.18659 -4.55221,0.12459c-1.31772,-0.05386 -2.62996,-0.284 -3.94798,-0.32613c-1.98473,-0.06344 -3.98321,0.00064 -5.9691,0.00064c-1.5182,-0.00014 -3.08618,-0.03878 -4.59761,0.10632c-0.51511,0.04945 -1.02245,0.17755 -1.53942,0.20064c-0.29314,0.01309 -0.5832,-0.06589 -0.8754,-0.09278c-0.50862,-0.0468 -1.02884,-0.01516 -1.52693,-0.12828c-0.37256,-0.08461 -0.69355,-0.32233 -1.05101,-0.45719c-0.46537,-0.17557 -0.98297,-0.16685 -1.4603,-0.30668c-0.38132,-0.1117 -0.72698,-0.32655 -1.10758,-0.44067c-0.35582,-0.10669 -0.73877,-0.10619 -1.09268,-0.21905c-0.4355,-0.13889 -0.82047,-0.42081 -1.26374,-0.53245c-0.39563,-0.09964 -0.81549,-0.04325 -1.2204,-0.09321c-0.20428,-0.02521 -2.39956,-0.3986 -2.62466,-0.46107c-0.28307,-0.07857 -0.53595,-0.24196 -0.81165,-0.3434c-1.2142,-0.44671 -2.52669,-0.96813 -3.81056,-1.14923c-0.31841,0 -0.59761,-0.01487 -0.86606,-0.02341zM273.38391,127.81092c0.4918,-0.01548 0.96697,0.01408 1.5475,0.01408c1.44197,0.20789 2.87097,0.73927 4.23729,1.24337c0.24243,0.08945 0.46195,0.23992 0.71092,0.30913c0.13031,0.03623 2.33928,0.40406 2.37806,0.40896c0.46141,0.05838 0.93833,0.01221 1.38971,0.1243c0.47113,0.11699 0.88369,0.40821 1.34637,0.5551c0.35067,0.11133 0.73003,0.11019 1.08242,0.21596c0.36735,0.11027 0.69969,0.32072 1.06752,0.42937c0.51856,0.15317 1.07819,0.15697 1.58483,0.34585c0.31113,0.11599 0.5828,0.3392 0.90658,0.41285c0.42376,0.09639 0.86774,0.05162 1.30069,0.08923c0.24035,0.02088 0.47767,0.09847 0.71862,0.0862c0.4819,-0.02454 0.95399,-0.14931 1.43426,-0.19585c1.55124,-0.15034 3.16024,-0.11105 4.71832,-0.11119c2.00643,0 4.02565,-0.06437 6.0309,0.00064c1.31818,0.04274 2.63012,0.27156 3.94783,0.32613c1.4798,0.06128 2.96462,-0.07878 4.44261,-0.12509c0.48181,-0.0151 0.96639,0.02014 1.44583,-0.02995c0.74513,-0.07784 1.47309,-0.27673 2.21483,-0.38204c1.46482,-0.20795 2.95319,-0.38522 4.40897,-0.64487c2.05997,-0.36742 4.07597,-1.26601 6.00105,-2.05482c0.4804,-0.19604 0.94759,-0.42819 1.44119,-0.58811c0.49359,-0.15992 1.00808,-0.24621 1.51224,-0.3688c1.24793,-0.30345 2.49643,-0.60666 3.74714,-0.89849c0.44859,-0.10467 0.90812,-0.16838 1.34728,-0.30739c0.25195,-0.07975 2.19932,-1.02603 2.20652,-1.02932c0.89755,-0.41031 1.83968,-0.72537 2.71405,-1.18301c0.43724,-0.22885 0.83104,-0.53344 1.26032,-0.77689c0.62138,-0.35239 1.32351,-0.54283 1.95831,-0.87044c0.20116,-0.10382 0.35949,-0.27538 0.54421,-0.40624c0.40024,-0.28355 0.81854,-0.54179 1.21038,-0.83683c1.05604,-0.79516 1.8595,-1.84213 2.7173,-2.83181c0.50154,-0.57866 1.00794,-1.15392 1.48263,-1.75481c0.81541,-1.25149 1.64669,-2.50091 2.49389,-3.73048c0.23884,-0.34664 0.53285,-0.64235 0.7328,-0.99658c0.03219,-0.35554 0.06192,-0.71111 0.08748,-1.06663c-0.02499,-0.04978 -0.04754,-0.10011 -0.06136,-0.15189c-0.23217,-0.86987 -0.30872,-1.40367 -0.34853,-2.32556c-0.0507,-1.17412 0.05777,-2.27447 0.10875,-3.43937c0.04583,-1.04729 -0.11425,-2.1443 0.00226,-3.18726c0.12315,-1.10243 0.26921,-1.39948 0.57097,-2.42728c0.00335,-0.01142 0.02583,-0.09006 0.05907,-0.20643c-2.47108,2.67497 -5.75239,4.5957 -8.27063,7.14656c-0.45668,0.4566 -0.90629,0.92035 -1.34987,1.38968c-0.37167,0.39325 -0.69198,0.84321 -1.11766,1.17726c-0.35619,0.27952 -0.82942,0.37716 -1.19808,0.64001c-0.38819,0.27678 -0.69232,0.65625 -1.05462,0.96616c-1.12707,0.9641 -2.39268,1.95322 -3.69035,2.67654c-0.17971,0.10017 -2.70031,1.2396 -2.88107,1.29508c-0.4845,0.14873 -1.008,0.13351 -1.49665,0.26802c-0.48092,0.13239 -0.91938,0.39471 -1.39969,0.52928c-0.48985,0.13725 -1.00448,0.16645 -1.49965,0.28306c-0.36694,0.08641 -0.71741,0.23389 -1.08316,0.32518c-0.98415,0.24565 -1.9951,0.3812 -2.99229,0.55548c-0.84698,0.14803 -1.69161,0.3115 -2.53079,0.49878c-0.49956,0.11149 -0.9861,0.28157 -1.49012,0.37074c-0.46818,0.08282 -0.94604,0.09593 -1.41905,0.14389c-0.98507,0.09851 -1.97436,0.16118 -2.95526,0.29492c-1.86007,0.25361 -3.69186,0.72426 -5.55229,0.97959c-0.38372,0.05266 -0.77529,0.03932 -1.1574,0.10255c-0.6083,0.10066 -1.18325,0.37308 -1.79581,0.44327c-0.32414,0.03714 -0.65452,-0.03603 -0.97879,0c-0.33218,0.03691 -0.64653,0.18134 -0.97879,0.21751c-0.05546,0.00604 -2.14644,0.00448 -2.17074,0.00448c-1.27081,-0.00023 -2.65928,0.0239 -3.91992,-0.17215c-0.70343,-0.10939 -2.18262,-0.57785 -2.90697,-0.70552c-0.74823,-0.13188 -1.52216,-0.01914 -2.27673,-0.10777c-0.35316,-0.04148 -0.69463,-0.15249 -1.04194,-0.22873c-0.91873,-0.20448 -1.8553,-0.53523 -2.79073,-0.65033c-0.9878,-0.12154 -1.99438,-0.11972 -2.96775,-0.32726c-0.46878,-0.09995 -0.91652,-0.28632 -1.38592,-0.38331c-0.98159,-0.20282 -1.9876,-0.27524 -2.96722,-0.48737c-0.78545,-0.17008 -1.57867,-0.318 -2.34506,-0.55989c-0.73778,-0.23285 -1.44666,-0.54949 -2.16187,-0.84447c-0.49631,-0.2047 -1.01197,-0.37343 -1.47801,-0.63996c-0.37629,-0.2152 -0.67443,-0.5459 -1.02976,-0.7942c-0.38884,-0.27172 -0.81449,-0.48851 -1.20049,-0.76426c-0.38218,-0.27302 -0.72612,-0.59633 -1.10071,-0.87967c-0.67206,-0.50834 -1.34339,-1.01798 -2.00135,-1.54445c-0.37749,-0.30205 -0.82066,-0.53213 -1.14945,-0.88552c0,1.81366 0,3.62733 0,5.44099c0,0.76468 -0.09448,1.53474 -0.00386,2.29402c0.04455,0.37324 0.17421,0.73222 0.23037,1.10389c0.07275,0.48144 0.05497,0.97603 0.15591,1.45236c0.10242,0.48333 0.33722,0.93112 0.45103,1.4119c0.11565,0.48858 0.12943,0.99696 0.23536,1.48774c0.32866,1.52275 1.12768,3.01608 1.79355,4.40943c0.06987,0.1462 0.14605,0.28949 0.22229,0.43273z" fill="#000000" stroke="none" stroke-width="0.5" stroke-linecap="butt"/><path d="M274.87507,129.32224c1.28387,0.1811 2.59637,0.70095 3.81056,1.14766c0.2757,0.10143 0.52857,0.2643 0.81164,0.34286c0.22509,0.06248 2.42035,0.43502 2.62463,0.46023c0.40491,0.04997 0.82476,-0.00667 1.22039,0.09298c0.44327,0.11164 0.82819,0.39252 1.26369,0.53141c0.35391,0.11287 0.73682,0.11183 1.09264,0.21852c0.3806,0.11412 0.72617,0.32797 1.10749,0.43967c0.47733,0.13983 0.99484,0.13021 1.46021,0.30578c0.35745,0.13486 0.6783,0.37138 1.05086,0.45599c0.49809,0.11312 1.0182,0.08072 1.52682,0.12753c0.2922,0.02689 0.58217,0.10535 0.87532,0.09226c0.51696,-0.02309 1.02429,-0.15132 1.5394,-0.20077c1.51143,-0.1451 3.07901,-0.10858 4.59721,-0.10844c1.98589,0 3.98259,-0.0704 5.96732,-0.00696c1.31802,0.04213 2.62403,0.26021 3.94175,0.31407c1.51681,0.062 3.00219,-0.09611 4.51709,-0.1455c0.51768,-0.01688 1.01589,0.01882 1.53107,-0.03478c0.76358,-0.07945 1.48844,-0.26626 2.24854,-0.37407c1.49293,-0.21175 3.00214,-0.37297 4.48522,-0.64101c2.1552,-0.38951 4.25526,-1.29826 6.27077,-2.1238c0.44496,-0.18306 0.87718,-0.39907 1.3349,-0.54737c0.45772,-0.1483 0.93565,-0.2241 1.40334,-0.33711c1.24487,-0.30083 2.48964,-0.60041 3.73622,-0.89411c0.49318,-0.11619 0.99776,-0.19036 1.48039,-0.34463c0.38513,-0.1231 2.09561,-0.96745 2.35544,-1.08625c0.09474,-0.04332 2.72805,-1.18638 2.78498,-1.2161c0.44899,-0.23439 0.85484,-0.54352 1.29482,-0.79441c0.62007,-0.35358 1.32478,-0.53748 1.95701,-0.86883c0.25019,-0.13112 0.45597,-0.33317 0.68699,-0.4957c0.4167,-0.29317 0.85021,-0.56232 1.25638,-0.86992c1.13731,-0.86131 2.01259,-1.96918 2.93874,-3.0379c0.53018,-0.6118 1.06315,-1.22079 1.56446,-1.85647c0.56448,-0.86483 1.23119,-1.76049 1.80948,-2.61754c-0.15649,1.72513 -0.20155,3.51978 -0.55643,5.22041c-0.07402,0.35472 -0.53939,2.01157 -0.64714,2.48284c-0.10168,0.44472 -0.09143,0.92399 -0.27221,1.34284c-0.08316,0.19269 -1.55251,2.12004 -1.64289,2.23975c-2.29643,2.35415 -4.23206,5.03331 -6.55856,7.35979c-0.60418,0.60417 -1.23879,1.18194 -1.88117,1.74534c-0.18679,0.16382 -0.35433,0.35355 -0.55919,0.49412c-1.09469,0.75115 -2.29184,1.38656 -3.39916,2.12477c-0.64246,0.42831 -1.30573,0.83069 -1.96703,1.22929c-0.27088,0.16327 -0.52025,0.37126 -0.81168,0.49414c-0.44364,0.18706 -0.92716,0.26842 -1.37972,0.43272c-0.87451,0.3175 -1.70054,0.77399 -2.58237,1.07055c-0.7519,0.25287 -1.53397,0.4202 -2.29888,0.63048c-1.74384,0.21567 -3.49956,0.43209 -5.22548,0.76909c-2.08875,0.40784 -4.18439,0.90636 -6.29522,1.19907c-1.69089,0.23448 -3.45593,0.47093 -5.16255,0.53668c-0.3992,0.01538 -0.80344,-0.02225 -1.20235,-0.00072c-1.00036,0.05399 -1.9995,0.23077 -2.99977,0.28637c-2.12462,0.11808 -4.24885,0.00504 -6.36349,-0.185c-0.98279,-0.131 -1.96073,-0.32744 -2.94194,-0.46978c-1.96304,-0.28478 -3.95229,-0.49874 -5.90117,-0.881c-0.23926,-0.04693 -1.97957,-0.51257 -2.39272,-0.60634c-0.48369,-0.10978 -0.97546,-0.18831 -1.45688,-0.3077c-0.78972,-0.19584 -1.55392,-0.49574 -2.34776,-0.67417c-0.47485,-0.10673 -0.96885,-0.13114 -1.43609,-0.26736c-0.64393,-0.18773 -2.04751,-0.89061 -2.63386,-1.16957c-0.52006,-0.24742 -1.78259,-0.79362 -2.22522,-1.21384c-0.39366,-0.37373 -0.87491,-1.26728 -1.16687,-1.78367c-0.65793,-1.16368 -1.21723,-2.35475 -1.78793,-3.56209c-0.08875,-0.4799 -0.13918,-0.97047 -0.26639,-1.44164c-0.25313,-0.93756 -0.71323,-1.81041 -1.04763,-2.72215c-0.03916,-0.10676 -0.07179,-0.21616 -0.10203,-0.32594c0.26845,0.00855 0.64763,0.02545 0.96604,0.02545z" fill="#ffffff" stroke="none" stroke-width="0.5" stroke-linecap="butt"/><path d="M273.1138,127.3928c-0.66587,-1.39335 -1.46627,-2.89239 -1.79493,-4.41513c-0.10593,-0.49078 -0.12,-1.001 -0.23566,-1.48958c-0.11381,-0.48078 -0.34883,-0.93035 -0.45125,-1.41368c-0.10093,-0.47632 -0.08331,-0.97271 -0.15606,-1.45414c-0.05616,-0.37167 -0.1859,-0.73201 -0.23045,-1.10525c-0.09062,-0.75929 0.00382,-1.53215 0.00382,-2.29683c0,-1.81366 0.00052,-3.63391 0.00052,-5.44757c0.32879,0.35339 0.87102,0.59708 1.24851,0.89913c0.65796,0.52647 1.32948,1.03443 2.00154,1.54278c0.37459,0.28334 0.71862,0.6056 1.1008,0.87862c0.386,0.27575 0.81171,0.49159 1.20055,0.76331c0.35533,0.24829 0.65351,0.57793 1.02981,0.79313c0.46604,0.26652 0.98172,0.43436 1.47803,0.63906c0.71521,0.29498 1.42409,0.6103 2.16187,0.84315c0.76639,0.24188 1.55959,0.38877 2.34504,0.55885c0.97962,0.21213 1.98558,0.2834 2.96717,0.48622c0.4694,0.09699 0.91708,0.28241 1.38585,0.38236c0.97337,0.20754 1.97984,0.20443 2.96764,0.32597c0.93544,0.1151 1.87169,0.44337 2.79042,0.64784c0.34731,0.07624 0.68861,0.18618 1.04177,0.22766c0.75457,0.08863 1.5282,-0.02571 2.27643,0.10617c0.72435,0.12767 2.20226,0.59122 2.90569,0.70061c1.26064,0.19604 2.64635,0.16501 3.91716,0.16524c0.02431,0 2.11198,-0.00419 2.16744,-0.01023c0.33226,-0.03617 0.64494,-0.18296 0.97712,-0.21987c0.32427,-0.03603 0.6512,0.03304 0.97534,-0.0041c0.61256,-0.07019 1.17884,-0.34997 1.78713,-0.45063c0.38212,-0.06323 0.7616,-0.05579 1.14532,-0.10846c1.86044,-0.25533 3.6318,-0.70086 5.49187,-0.95448c0.9809,-0.13374 1.96654,-0.18672 2.95161,-0.28522c0.47302,-0.04796 0.95026,-0.05839 1.41843,-0.14121c0.50402,-0.08916 0.99003,-0.25613 1.48959,-0.36762c0.83918,-0.18729 1.68346,-0.34751 2.53044,-0.49554c0.99719,-0.17428 2.00803,-0.3074 2.99218,-0.55305c0.36575,-0.0913 0.71621,-0.23774 1.08315,-0.32415c0.49516,-0.11661 1.00981,-0.14504 1.49965,-0.28228c0.48031,-0.13457 0.91881,-0.39561 1.39973,-0.52799c0.48864,-0.13451 1.01216,-0.1188 1.49667,-0.26753c0.18076,-0.05549 2.70154,-1.19255 2.88124,-1.29272c1.29767,-0.72332 2.56384,-1.7084 3.69091,-2.6725c0.36229,-0.30991 0.66667,-0.68811 1.05486,-0.96489c0.36866,-0.26285 0.84202,-0.35988 1.19821,-0.6394c0.42568,-0.33405 0.74631,-0.78263 1.11798,-1.17588c0.44358,-0.46933 0.89357,-0.93162 1.35026,-1.38822c2.51824,-2.55086 5.80125,-4.4666 8.27232,-7.14156c-0.03323,0.11637 0.03724,0.15814 0.03389,0.16956c-0.30176,1.0278 -0.44699,1.3271 -0.57014,2.42954c-0.11651,1.04295 0.04462,2.14344 -0.00122,3.19073c-0.05098,1.1649 -0.1586,2.26921 -0.10789,3.44333c0.03981,0.9219 0.11678,1.45854 0.34895,2.32841c0.01382,0.05178 0.03639,0.1023 0.06138,0.15209c-0.02556,0.35552 -0.05517,0.71237 -0.08735,1.06792c-0.19994,0.35423 -0.49387,0.65111 -0.73271,0.99775c-0.8472,1.22957 -1.67841,2.48377 -2.49382,3.73527c-0.47469,0.60089 -0.98123,1.17866 -1.48277,1.75731c-0.8578,0.98969 -1.66183,2.04116 -2.71788,2.83632c-0.39184,0.29504 -0.81045,0.55484 -1.21068,0.83839c-0.18471,0.13086 -0.34321,0.3032 -0.54437,0.40701c-0.6348,0.32761 -1.33743,0.52009 -1.95882,0.87248c-0.42928,0.24345 -0.82359,0.5498 -1.26083,0.77865c-0.87437,0.45764 -1.81767,0.77605 -2.71522,1.18636c-0.0072,0.00329 -1.95593,0.95273 -2.20788,1.03248c-0.43916,0.13901 -0.89946,0.20428 -1.34805,0.30895c-1.25071,0.29182 -2.50215,0.60002 -3.75008,0.90347c-0.50416,0.12259 -1.02025,0.21113 -1.51385,0.37106c-0.49359,0.15992 -0.96289,0.39468 -1.44329,0.59071c-1.92509,0.78882 -3.95308,1.69753 -6.01305,2.06495c-1.45578,0.25966 -2.95565,0.44202 -4.42047,0.64997c-0.74174,0.1053 -1.47638,0.3057 -2.22151,0.38354c-0.47944,0.05009 -0.96842,0.01534 -1.45023,0.03043c-1.478,0.04631 -2.97624,0.18544 -4.45604,0.12416c-1.31771,-0.05457 -2.64034,-0.28691 -3.95852,-0.32964c-2.00525,-0.06501 -4.03569,-0.00773 -6.04212,-0.00773c-1.55808,0.00014 -3.17236,-0.04427 -4.72359,0.10607c-0.48027,0.04655 -0.9534,0.17011 -1.4353,0.19465c-0.24094,0.01227 -0.47891,-0.0661 -0.71926,-0.08699c-0.43295,-0.03761 -0.87794,0.00586 -1.3017,-0.09053c-0.32378,-0.07365 -0.59638,-0.29815 -0.90751,-0.41414c-0.50665,-0.18888 -1.06743,-0.19442 -1.586,-0.34759c-0.36783,-0.10865 -0.70101,-0.32047 -1.06836,-0.43073c-0.35239,-0.10577 -0.73236,-0.1057 -1.08303,-0.21703c-0.46268,-0.14689 -0.87612,-0.43974 -1.34725,-0.55673c-0.45138,-0.11208 -0.92882,-0.06695 -1.39023,-0.12533c-0.03878,-0.00491 -2.24862,-0.37461 -2.37892,-0.41083c-0.24896,-0.06922 -0.4688,-0.22044 -0.71124,-0.30989c-1.36633,-0.5041 -2.7966,-1.03889 -4.23857,-1.24678c-0.58053,0 -1.0559,-0.03016 -1.5477,-0.01469c-0.07624,-0.14324 -0.1526,-0.28711 -0.22247,-0.43331z" fill="#ffffff" stroke="none" stroke-width="0.5" stroke-linecap="butt"/><path d="M281.80337,82.83645c1,0.00003 2.01332,0.00542 3.0133,-0.00161c0.22611,-0.00159 0.46025,-0.06292 0.68127,-0.01518c0.26986,0.05829 0.49335,0.27689 0.76491,0.32667c0.75494,0.1384 1.55196,-0.00714 2.3098,0.11441c0.26262,0.04212 0.50728,0.18286 0.77066,0.21994c0.50469,0.07106 1.02501,0.04404 1.53077,0.10702c0.64099,0.07982 1.59932,0.39055 2.23373,0.45193c0.38841,0.03758 0.78641,-0.0536 1.17304,-0.00079c0.40953,0.05593 0.79013,0.26779 1.1989,0.32902c0.32851,0.0492 0.66574,0.00311 0.9979,0.00383c0.88078,0.2 1.7517,0.43949 2.63204,0.64215c0.52483,0.12082 1.37585,0.17534 1.75415,0.70874c0.1752,0.24703 0.22859,0.56462 0.31478,0.85495c0.30529,1.02837 0.18688,2.09969 0.18688,3.15826c0,1.26304 -0.02264,2.54014 -0.2043,3.79372c-0.12245,0.84498 -0.61729,1.58547 -0.93392,2.35425c-0.26788,0.65043 -0.4274,1.36555 -0.81021,1.95571c-0.57186,0.88162 -1.34372,1.44183 -2.12466,2.11173c-0.24961,0.19108 -0.46822,0.43718 -0.75026,0.57597c-0.38792,0.19088 -0.83329,0.24566 -1.2351,0.40524c-0.46296,0.18387 -0.89544,0.45075 -1.3599,0.63079c-0.92905,0.36012 -1.90193,0.63171 -2.83578,0.97918c-0.86823,0.32306 -1.72366,0.72155 -2.60911,0.99385c-0.45423,0.13969 -0.93467,0.20749 -1.39566,0.32295c-0.46204,0.11572 -0.91593,0.2986 -1.38628,0.37372c-0.40243,0.06427 -0.82178,0.00699 -1.2277,0.04315c-0.9912,0.08831 -1.99298,0.20347 -2.98034,0.32753c-0.42667,0.05361 -0.84813,0.17899 -1.27686,0.21245c-0.47793,0.0373 -0.96364,-0.00442 -1.44302,-0.00483c-0.97078,-0.00084 -1.95021,0.03989 -2.92002,-0.00361c-0.60398,-0.02709 -1.77545,-0.29811 -2.23853,-0.39284c-0.34162,-0.06988 -0.69768,-0.09862 -1.02548,-0.2175c-0.25807,-0.09359 -0.46482,-0.29949 -0.71347,-0.41584c-0.28054,-0.13127 -0.58144,-0.21942 -0.87146,-0.32818c-0.77223,-0.44428 -1.54733,-0.8196 -2.16725,-1.47072c-0.21297,-0.22368 -0.50608,-0.39872 -0.63212,-0.68068c-0.1469,-0.32863 -0.1172,-0.71376 -0.15142,-1.0721c-0.10806,-1.1317 -0.09907,-1.78414 -0.10478,-2.92347c-0.00498,-0.99349 -0.00246,-1.9959 -0.00246,-2.98942c0,-0.39877 0.00174,-0.80113 0.00002,-1.19989c-0.00094,-0.21747 -0.0464,-0.44029 -0.00783,-0.65432c0.15077,-0.83668 0.55502,-1.61809 0.75037,-2.4455c0.11443,-0.48466 0.13654,-0.99233 0.24642,-1.47803c0.06715,-0.29678 0.19478,-0.57951 0.28543,-0.86998c0.30711,-0.98408 0.33909,-1.31297 0.82375,-2.27879c0.36565,-0.72865 0.86879,-1.47258 1.37401,-2.11157c2.58488,-0.63799 6.49531,-0.00562 9.18676,-0.00562l0.10918,-0.00016c0,0 0.52511,-0.00111 0.69825,-0.43631c0.12336,0.00015 0.24823,-0.00025 0.37158,-0.00024z" fill="#ffffff" stroke="none" stroke-width="0.5" stroke-linecap="butt"/><path d="M313.46658,84.25825c0.50976,-0.09476 1.00521,-0.27021 1.50792,-0.39717c0.04077,-0.0103 2.90016,-0.71092 2.92857,-0.71899c0.01731,-0.00492 2.85804,-0.93078 2.89259,-0.94204c0.45556,-0.1485 0.90645,-0.33908 1.3729,-0.44866c0.77098,-0.18112 1.59304,-0.15775 2.3615,-0.34928c0.97192,-0.24223 1.91441,-0.63502 2.88932,-0.86493c0.92168,-0.21736 1.87564,-0.3241 2.79624,-0.54596c1.37504,-0.33137 2.72387,-0.64219 4.12184,-0.87721c0.89714,-0.20955 1.78643,-0.4725 2.69466,-0.62704c1.46885,-0.24993 2.96565,-0.38392 4.4395,-0.59816c0.46225,-0.0672 0.92101,-0.16161 1.37807,-0.25803c0.16227,-0.03423 0.35993,-0.24682 0.4798,-0.13221c0.17427,0.16662 0.11427,0.47249 0.12748,0.71323c0.0256,0.46656 -0.02822,0.93692 -0.00929,1.40379c0.02068,0.5102 0.08773,1.02023 0.13097,1.52901c0.06523,0.76756 0.17581,1.53705 0.1991,2.30703c0.02708,0.89526 0.00142,1.79703 0.00142,2.6927c0,1.47709 0.04916,2.96631 -0.08609,4.43956c-0.18036,1.96461 -0.5307,3.95069 -0.86008,5.89479c-0.12098,0.71446 -0.21003,1.43995 -0.34244,2.15238c-0.03668,0.19733 -0.0545,0.40944 -0.15419,0.58364c-0.3968,0.69338 -1.10789,1.2272 -1.68043,1.74151c-0.24872,0.22343 -0.45746,0.50548 -0.74638,0.67373c-0.27318,0.15909 -0.61619,0.16064 -0.90452,0.29025c-0.45488,0.20447 -0.86073,0.51711 -1.31947,0.71277c-0.84275,0.35944 -1.75012,0.57105 -2.59561,0.92398c-0.31685,0.13226 -0.61874,0.30884 -0.94282,0.42224c-0.40198,0.14066 -0.83781,0.18783 -1.23473,0.34222c-0.27531,0.10708 -0.49932,0.32784 -0.77247,0.44031c-0.34769,0.14317 -0.73846,0.17679 -1.08395,0.3252c-0.40299,0.1731 -0.74218,0.49249 -1.1561,0.63754c-0.38425,0.13466 -0.81095,0.11302 -1.21033,0.19224c-0.45423,0.09009 -0.89882,0.25261 -1.35727,0.31794c-0.28711,0.04091 -0.58588,-0.04059 -0.87296,0.00053c-0.47196,0.06761 -0.92297,0.28386 -1.39799,0.32469c-0.46313,0.03981 -0.93268,-0.0578 -1.39674,-0.08478c-0.49916,-0.02902 -1.00362,-0.05597 -1.50285,-0.0837c-0.2863,-0.01507 -0.57787,-0.00593 -0.86179,-0.04574c-0.72983,-0.10233 -1.26698,-0.33925 -1.98634,-0.52846c-1.2188,-0.32059 -2.56603,-0.4748 -3.73484,-0.9577c-0.39023,-0.16123 -0.74087,-0.42255 -1.13903,-0.56305c-0.24173,-0.0853 -0.52095,-0.02527 -0.76286,-0.11007c-0.34839,-0.12213 -0.65611,-0.34581 -0.98867,-0.5061c-0.45951,-0.22146 -0.92458,-0.44083 -1.39235,-0.64425c-1.3103,-0.56983 -2.67668,-0.97869 -3.81011,-1.89376c-0.82731,-0.66792 -1.21816,-1.01816 -1.71137,-1.97544c-0.15794,-0.30655 -0.21203,-0.65957 -0.33914,-0.98013c-0.34802,-0.87771 -0.55875,-0.94529 -0.60099,-1.91726c-0.01093,-0.25141 0.07224,-0.4998 0.10854,-0.74881c-0.68687,-5.05617 3.48541,-9.00491 7.59252,-11.18812c0.30952,-0.02761 0.62572,-0.01742 0.93123,-0.07422z" fill="#ffffff" stroke="none" stroke-width="0.5" stroke-linecap="butt"/><path d="M294.82674,94.47153c0,-1.65685 1.34315,-3 3,-3c1.65685,0 3,1.34315 3,3c0,1.65685 -1.34315,3 -3,3c-1.65685,0 -3,-1.34315 -3,-3z" fill="#000000" stroke="none" stroke-width="0.5" stroke-linecap="butt"/><path d="M338.13946,92.36215c0,-1.65685 1.34315,-3 3,-3c1.65685,0 3,1.34315 3,3c0,1.65685 -1.34315,3 -3,3c-1.65685,0 -3,-1.34315 -3,-3z" fill="#000000" stroke="none" stroke-width="0.5" stroke-linecap="butt"/><path d="M300.97033,91.6474c-0.204,-0.0518 -0.42526,-0.04663 -0.61731,-0.13274c-0.25516,-0.11441 -0.45617,-0.32613 -0.70226,-0.45892c-0.55436,-0.29913 -1.19486,-0.40031 -1.7842,-0.62274c-0.30237,-0.11412 -0.56449,-0.32034 -0.86707,-0.43391c-0.27341,-0.10262 -0.57287,-0.11981 -0.8504,-0.21071c-0.31052,-0.1017 -0.59496,-0.27713 -0.90949,-0.36566c-1.68525,-0.47436 -3.44645,-0.15676 -5.16335,-0.26338c-0.35077,-0.02178 -0.70222,-0.05335 -1.04777,-0.11742c-0.25049,-0.04644 -0.48237,-0.17316 -0.73401,-0.21292c-0.42697,-0.06745 -0.86454,0.00336 -1.2968,0.00109c-0.29001,-0.0725 -0.57458,-0.17205 -0.87004,-0.21751c-0.17915,-0.02756 -0.36462,0.02756 -0.54377,0c-0.29546,-0.04546 -0.57383,-0.17719 -0.87004,-0.21751c-0.23127,-0.03148 -0.46679,0.00315 -0.70019,0.00375c-0.66964,0.00172 -1.36705,-0.04926 -2.03527,-0.00097c-0.29151,0.02107 -0.57826,0.09179 -0.87004,0.10875c-0.88194,0.05129 -1.77408,0.01052 -2.64636,0.20763c-0.33312,0.07528 -0.64484,0.23812 -0.9821,0.29186c-0.34775,0.05542 -0.70416,0.01615 -1.05589,0.03291c-0.61918,0.02952 -1.23621,0.09952 -1.85573,0.12082c-0.49769,0.01711 -0.99863,-0.05328 -1.49394,-0.00176c-0.32733,0.03405 -0.64463,0.13672 -0.97118,0.17758c-0.71066,0.08893 -1.44245,0.14893 -2.15826,0.14587c-0.38433,0.11257 -0.76705,0.23085 -1.14763,0.35554c-0.0122,0.06415 -0.02561,0.12806 -0.04062,0.19164c-0.19535,0.82741 -0.5984,1.60128 -0.74917,2.43795c-0.03857,0.21403 0.00701,0.4349 0.00795,0.65237c0.00171,0.39876 0,0.79753 0,1.1963c0,0.99352 -0.00355,1.9872 0.00143,2.98069c0.00571,1.13932 -0.00558,1.78397 0.10248,2.91567c0.03422,0.35834 0.00338,0.74078 0.15029,1.06941c0.12604,0.28196 0.41807,0.45477 0.63104,0.67845c0.61992,0.65111 1.39143,1.02053 2.16367,1.46481c0.29001,0.10875 0.5895,0.19499 0.87004,0.32626c0.24864,0.11634 0.45387,0.32038 0.71194,0.41397c0.3278,0.11889 0.68203,0.1456 1.02365,0.21548c0.46307,0.09473 1.62973,0.36135 2.23371,0.38844c0.96981,0.0435 1.94156,-0.00229 2.91234,-0.00145c0.47938,0.00042 0.96021,0.03985 1.43814,0.00256c0.42873,-0.03346 0.84553,-0.16045 1.27221,-0.21406c0.98736,-0.12407 1.97593,-0.24123 2.96713,-0.32954c0.40592,-0.03616 0.81941,0.02137 1.22184,-0.0429c0.47035,-0.07512 0.91747,-0.25684 1.3795,-0.37256c0.46099,-0.11546 0.93487,-0.18118 1.3891,-0.32087c0.88546,-0.2723 1.72954,-0.6645 2.59776,-0.98756c0.93385,-0.34747 1.89805,-0.61088 2.8271,-0.971c0.46446,-0.18004 0.89376,-0.44267 1.35672,-0.62654c0.40181,-0.15958 0.84521,-0.21116 1.23313,-0.40205c0.28205,-0.13879 0.49922,-0.38215 0.74882,-0.57323c0.78094,-0.6699 1.54953,-1.22141 2.12139,-2.10303c0.38281,-0.59016 0.541,-1.29871 0.80888,-1.94914c0.31663,-0.76878 0.81105,-1.50182 0.93349,-2.3468c0.08654,-0.59717 0.13731,-1.19718 0.16676,-1.79835c-0.10214,-0.02971 -0.20454,-0.05845 -0.30763,-0.08463zM274.70188,81.59709c0.19357,-0.10351 0.39387,-0.10351 0.39387,-0.10351c0.45574,0.00048 0.91242,0.03083 1.36721,0.00145c0.50311,-0.0325 0.99725,-0.16415 1.5009,-0.18672c0.33528,-0.01502 1.81086,0.07013 2.36462,0.07662c0.99577,0.01167 1.99167,-0.0001 2.9875,-0.0001c0.5,0 1.00001,-0.00309 1.5,0c0.32663,0.00202 0.65926,-0.04757 0.97978,0.01532c0.27092,0.05315 0.49017,0.27413 0.76128,0.32626c0.28128,0.05409 0.57304,-0.028 0.85916,-0.01467c0.47076,0.02193 0.94302,0.04785 1.40869,0.12032c0.25874,0.04027 0.49585,0.18005 0.75517,0.21642c0.48558,0.0681 0.98139,0.0343 1.46791,0.09534c0.73399,0.09209 1.43845,0.37198 2.17497,0.44096c0.40554,0.03798 0.81836,-0.05196 1.22195,0.00299c0.40955,0.05576 0.78756,0.26486 1.1963,0.32626c0.31681,0.04759 0.64072,-0.00144 0.96108,-0.00216c0.9412,0.20546 1.8739,0.43885 2.80935,0.66811c1.07865,0.26436 1.86094,0.29997 2.59807,1.25251c0.29267,0.37821 0.40691,0.86813 0.55632,1.32242c0.38436,1.16862 0.25092,2.38559 0.25092,3.59274c0,1.34801 -0.02295,2.71137 -0.2293,4.04762c-0.14857,0.96211 -0.66238,1.77726 -1.02409,2.65592c-0.30122,0.73169 -0.49946,1.52044 -0.9312,2.18354c-0.67484,1.03649 -1.53064,1.6804 -2.44631,2.46467c-0.33042,0.24394 -0.62488,0.54621 -0.99125,0.73183c-0.43245,0.21909 -0.92693,0.28781 -1.37698,0.46799c-0.46591,0.18653 -0.89915,0.44942 -1.36716,0.63063c-0.93535,0.36217 -1.90567,0.62812 -2.84566,0.97805c-0.89565,0.33342 -1.76771,0.73464 -2.68111,1.01583c-0.47963,0.14765 -0.97911,0.22111 -1.46611,0.34227c-0.5082,0.12643 -1.0021,0.31756 -1.5192,0.40043c-0.4339,0.06954 -0.87953,0.01478 -1.3172,0.05415c-0.97059,0.08731 -1.93867,0.20191 -2.90562,0.32299c-0.44851,0.05616 -0.88723,0.18622 -1.33791,0.22096c-0.51908,0.04001 -1.04124,0.00212 -1.56186,0.00256c-0.04273,0.00004 -2.96637,0.00045 -3.00555,-0.00145c-0.69648,-0.03368 -1.85045,-0.2909 -2.44811,-0.41742c-0.41954,-0.08881 -0.85112,-0.13911 -1.25484,-0.28372c-0.29188,-0.10454 -0.52955,-0.32523 -0.81063,-0.45607c-0.2808,-0.13071 -0.58003,-0.21751 -0.87004,-0.32626c-0.93818,-0.53299 -1.88769,-0.98548 -2.62154,-1.79783c-0.30977,-0.3429 -0.70119,-0.64054 -0.89153,-1.06162c-0.21511,-0.47591 -0.22067,-1.02239 -0.28473,-1.54071c-0.11537,-0.9334 -0.10723,-2.13893 -0.11216,-3.07836c-0.00522,-0.99602 -0.00145,-1.99225 -0.00145,-2.9883c0,-0.68884 -0.10982,-1.3878 0.00795,-2.0665c0.04971,-0.28648 0.72777,-2.37062 0.7734,-2.56476c0.11486,-0.4887 0.1363,-0.99606 0.24802,-1.48549c0.07473,-0.3274 0.21008,-0.63798 0.30987,-0.95864c0.3442,-1.10599 0.36398,-1.39835 0.91947,-2.5129c0.15948,-0.31998 0.38243,-0.60426 0.56645,-0.91078c0.16007,-0.26663 0.27911,-0.55963 0.46567,-0.80844c0.25791,-0.34398 0.57381,-0.64039 0.86072,-0.96058c1.18469,-0.35533 2.58627,-0.45512 4.03493,-0.45018z" fill="#000000" stroke="none" stroke-width="0.5" stroke-linecap="butt"/><path d="M336.38243,86.72188c-1.19038,0.18247 -2.38968,0.21366 -3.59237,0.29937c-0.33842,0.02412 -0.67628,0.058 -1.01526,0.0722c-0.20016,0.00838 -0.40298,-0.0349 -0.601,-0.00452c-0.51267,0.07866 -0.9854,0.3354 -1.49529,0.43043c-0.58695,0.10939 -1.19219,0.06917 -1.78743,0.11575c-0.36505,0.02856 -1.07719,0.29207 -1.34213,0.35371c-0.34801,0.08097 -0.69973,0.15097 -1.05484,0.19048c-0.20456,0.02276 -0.41439,-0.03806 -0.61744,-0.00442c-0.20921,0.03466 -0.39693,0.15149 -0.60176,0.20641c-0.89248,0.23932 -1.81106,0.38605 -2.69897,0.64683c-0.49007,0.14393 -0.93935,0.40913 -1.43066,0.54877c-0.29673,0.08434 -0.60731,0.10874 -0.91097,0.16311c-1.22714,0.21521 -2.37624,0.60359 -3.55118,1.01637c-0.29783,0.10463 -0.606,0.18319 -0.89396,0.31253c-0.49992,0.22455 -0.91513,0.60644 -1.39946,0.8629c-0.53273,0.28209 -1.10568,0.48074 -1.66272,0.71114c-0.04314,0.01784 -1.88079,0.75348 -1.90271,0.76012c-0.06051,0.01834 -1.89054,0.3971 -1.98492,0.41958c-0.91658,0.21831 -1.79778,0.56391 -2.70606,0.79798c-0.07036,0.01813 -0.14103,0.03488 -0.21194,0.05056c0.00885,0.27649 0.03212,0.55669 0.07067,0.84048c-0.0363,0.24902 -0.11982,0.49564 -0.10889,0.74705c0.04224,0.97198 0.25164,1.03468 0.59966,1.9124c0.12711,0.32057 0.18032,0.67112 0.33826,0.97768c0.49321,0.95728 0.88136,1.30167 1.70867,1.96959c1.13343,0.91507 2.49401,1.31547 3.80431,1.8853c0.46777,0.20343 0.92997,0.41969 1.38948,0.64115c0.33257,0.16028 0.63789,0.38174 0.98628,0.50387c0.2419,0.0848 0.51955,0.02346 0.76128,0.10875c0.39816,0.1405 0.74559,0.39945 1.13581,0.56068c1.16881,0.4829 2.50496,0.63145 3.72375,0.95204c0.71935,0.18922 1.24978,0.42422 1.9796,0.52655c0.28392,0.03981 0.5726,0.03015 0.8589,0.04522c0.49923,0.02774 0.99853,0.05418 1.49769,0.08321c0.46405,0.02698 0.9288,0.12461 1.39193,0.0848c0.47502,-0.04083 0.92115,-0.25659 1.3931,-0.3242c0.28708,-0.04112 0.58293,0.04091 0.87004,0c0.45844,-0.06533 0.89841,-0.22663 1.35264,-0.31673c0.39938,-0.07921 0.82223,-0.05619 1.20647,-0.19085c0.41391,-0.14505 0.74905,-0.46258 1.15204,-0.63568c0.34549,-0.1484 0.73302,-0.1802 1.08071,-0.32337c0.27315,-0.11247 0.49469,-0.33161 0.76999,-0.43869c0.39692,-0.15438 0.82963,-0.1992 1.23162,-0.33986c0.32408,-0.1134 0.6236,-0.2879 0.94044,-0.42016c0.84549,-0.35293 1.74783,-0.55909 2.59058,-0.91853c0.45874,-0.19566 0.86229,-0.50516 1.31716,-0.70963c0.28833,-0.12961 0.63024,-0.12945 0.90342,-0.28854c0.28892,-0.16826 0.49635,-0.44806 0.74507,-0.67149c0.57253,-0.51432 1.28106,-1.04269 1.67786,-1.73607c0.09969,-0.1742 0.11697,-0.38487 0.15364,-0.5822c0.13241,-0.71243 0.21984,-1.43254 0.34081,-2.147c0.32938,-1.9441 0.67846,-3.91479 0.85882,-5.87939c0.12995,-1.41551 0.0915,-2.83582 0.08829,-4.25511c-2.44344,0.0027 -4.87859,0.29174 -7.34906,0.38944zM302.99045,94.52218c-0.09806,-0.49029 0.39223,-0.58835 0.39223,-0.58835c0.00547,-0.00109 0.01094,-0.00218 0.01641,-0.00326c0.13387,-3.97872 3.03349,-7.31983 6.32683,-9.58857c-0.10472,-0.12687 -0.17368,-0.31006 -0.13609,-0.57315c0.10607,-0.74246 0.84853,-0.6364 0.84853,-0.6364c0.19973,0.03444 0.39825,0.12986 0.59918,0.10331c0.34681,-0.04581 0.65765,-0.24853 1.00116,-0.31471c0.02634,-0.00508 0.05276,-0.00964 0.07923,-0.01377c0.09066,-0.04694 0.18119,-0.09301 0.27155,-0.13821l0.44416,-0.07918c0,0 0.21952,0 0.42103,0.11876c0.47096,-0.08778 0.92486,-0.25085 1.38922,-0.36879c0.95724,-0.24313 1.9289,-0.43046 2.87897,-0.70027c0.95289,-0.27061 1.88371,-0.61365 2.82603,-0.91902c0.49548,-0.16056 0.9798,-0.36136 1.48684,-0.48048c0.77373,-0.18176 1.58778,-0.15614 2.35853,-0.35015c0.96804,-0.24367 1.89583,-0.63463 2.86728,-0.86434c0.91869,-0.21723 1.86104,-0.32566 2.77867,-0.54728c1.39327,-0.3365 2.75487,-0.65773 4.17137,-0.8955c0.90903,-0.2128 1.80721,-0.47949 2.72745,-0.63692c1.4826,-0.25364 2.98953,-0.39435 4.47751,-0.60961c0.53713,-0.0777 2.37278,-0.59379 2.93371,-0.13598c0.99457,0.81172 0.70824,2.24739 0.75407,3.27874c0.02172,0.4889 0.08366,0.97517 0.12532,1.46277c0.06739,0.7887 0.17649,1.57501 0.20094,2.36621c0.00086,0.02773 0.00068,2.54132 0.00068,2.75074c0,1.52341 0.04458,3.04612 -0.09434,4.56564c-0.18308,2.00262 -0.53814,4.01132 -0.87362,5.99302c-0.125,0.73795 -0.19954,1.48498 -0.35444,2.21724c-0.06772,0.3201 -0.12238,0.65441 -0.28138,0.94037c-0.5171,0.93003 -1.2376,1.48997 -2.01981,2.17911c-0.32748,0.28852 -0.61959,0.62847 -0.995,0.85107c-0.31976,0.1896 -0.7155,0.21069 -1.05417,0.36399c-0.45667,0.20672 -0.86299,0.51641 -1.32425,0.71267c-0.47363,0.20152 -0.98393,0.30372 -1.46903,0.47582c-0.73069,0.25922 -1.41471,0.63969 -2.14647,0.89587c-0.37827,0.13243 -0.78744,0.16743 -1.16099,0.31267c-0.26949,0.10478 -0.48521,0.32126 -0.75257,0.43135c-0.35225,0.14504 -0.74413,0.17937 -1.09439,0.32916c-0.43203,0.18476 -0.79644,0.51594 -1.24056,0.66938c-0.44887,0.15508 -0.93809,0.15037 -1.40364,0.24417c-0.49431,0.09959 -0.97583,0.26433 -1.47499,0.3358c-0.28708,0.04111 -0.58292,-0.04091 -0.87004,0c-0.48563,0.06919 -0.94559,0.28862 -1.43452,0.32833c-0.07163,0.00582 -2.96677,-0.15735 -3.10114,-0.16482c-0.32689,-0.01899 -0.65651,-0.01077 -0.98068,-0.05698c-0.93069,-0.13268 -1.24214,-0.32117 -2.15308,-0.561c-1.27779,-0.33642 -2.66181,-0.50187 -3.88908,-1.00555c-0.35932,-0.14747 -0.67303,-0.39758 -1.03928,-0.52687c-0.24172,-0.08533 -0.51972,-0.02298 -0.76128,-0.10875c-0.87762,-0.31162 -1.66911,-0.82845 -2.52321,-1.19971c-1.4259,-0.61981 -2.90141,-1.07448 -4.12977,-2.07776c-1.05593,-0.86244 -1.47905,-1.2571 -2.13053,-2.48414c-0.18154,-0.34193 -0.24741,-0.73405 -0.39024,-1.09387c-0.13901,-0.35018 -0.35001,-0.67286 -0.45473,-1.03477c-0.13205,-0.45636 -0.21975,-0.92895 -0.25066,-1.40302c-0.01698,-0.26048 0.07241,-0.51701 0.10862,-0.77552c-0.02997,-0.19858 -0.05286,-0.39582 -0.06892,-0.59167c-0.1525,-0.01325 -0.37074,-0.08829 -0.43265,-0.39782z" fill="#000000" stroke="none" stroke-width="0.5" stroke-linecap="butt"/><path d="M255.09616,70.03587c0,-0.75 0.75,-0.75 0.75,-0.75h0.65253c3.33944,0.00564 6.13401,0.89989 9.08623,2.1194c2.62311,1.08357 7.27659,0.72097 10.15649,1.04144c2.26154,0.36863 4.52019,0.77123 6.78665,1.10797c0.50713,0.07535 1.02104,0.10737 1.5244,0.20479c1.37649,0.26641 2.71622,0.77467 4.08012,1.0995c0.15628,0.03722 2.88534,0.59001 2.98655,0.62139c0.77083,0.23893 1.49224,0.61864 2.25788,0.87373c0.86428,0.28795 1.72477,0.58854 2.57483,0.91609c0.48678,0.18757 0.99534,0.32657 1.45987,0.56395c0.53802,0.27493 1.11368,0.53164 1.53381,0.96585c0.27284,0.28197 0.30151,0.72449 0.45227,1.08674c0,0 0.26334,0.70225 -0.4389,0.96559c-0.70225,0.26334 -0.96559,-0.4389 -0.96559,-0.4389c-0.06675,-0.21778 -0.03868,-0.49279 -0.20026,-0.65334c-0.28103,-0.27923 -0.67849,-0.41267 -1.03867,-0.57764c-1.22804,-0.56245 -2.57273,-0.97877 -3.8517,-1.40531c-0.75588,-0.25208 -1.46796,-0.62727 -2.22868,-0.86433c-0.93864,-0.2925 -1.93252,-0.36685 -2.88893,-0.59463c-1.3457,-0.32049 -2.66952,-0.82647 -4.02772,-1.08801c-0.47851,-0.09214 -0.96723,-0.12037 -1.44929,-0.1917c-2.26115,-0.33458 -4.51457,-0.73665 -6.77039,-1.10565c-3.09163,-0.343 -7.64398,-0.02219 -10.50692,-1.13366c-2.80533,-1.08911 -5.35472,-2.01927 -8.53204,-2.01328h-0.65253c0,0 -0.75,0 -0.75,-0.75z" fill="#000000" stroke="none" stroke-width="0.5" stroke-linecap="butt"/><path d="M352.44387,51.11996l0.5799,0.74445c-8.25487,4.94814 -17.87344,8.05458 -25.31272,14.25398c-2.58604,2.15504 -5.17012,4.31218 -7.7477,6.47734c-1.49965,1.25971 -3.01051,2.49586 -4.54689,3.71048c-0.40488,0.32009 -0.79058,0.66613 -1.21511,0.95966c-0.42453,0.29353 -0.88447,0.5322 -1.32691,0.79797c-1.18938,0.71443 -2.3864,1.45729 -3.61563,2.10202c-0.71474,0.37488 -1.47165,0.6632 -2.20765,0.9944c0,0 -0.68394,0.30777 -0.99171,-0.37617c-0.30777,-0.68394 0.37617,-0.99171 0.37617,-0.99171c0.71406,-0.32133 1.44938,-0.59896 2.14254,-0.96319c1.19843,-0.62973 2.36389,-1.356 3.52455,-2.05158c0.41505,-0.24874 0.84757,-0.47033 1.24557,-0.74552c0.398,-0.27519 0.75805,-0.60159 1.13732,-0.90208c1.5237,-1.20718 3.02444,-2.43245 4.51297,-3.68283c2.57907,-2.16642 5.16466,-4.32483 7.75221,-6.48112c7.4079,-6.17325 16.91376,-9.30201 25.16157,-14.18534c0.09163,-0.081 0.17263,-0.1215 0.17263,-0.1215l0.01006,0.01292c0.05238,-0.03125 0.10471,-0.06257 0.15699,-0.09397z" fill="#000000" stroke="none" stroke-width="0.5" stroke-linecap="butt"/></g><g stroke="#000000" stroke-width="1.5" stroke-linecap="round"><path d="M29.74095,279.9477l57.72422,0.37565l-1.25215,5.19643l-48.89655,0.25043l-1.18954,1.81562l-0.37565,2.25387l-6.76162,0.18782l-0.18782,-7.51291z" fill="#828282"/><path d="M30.86789,289.96492l0.31304,3.56863l1.94084,3.38081l5.88512,2.31648l18.0936,-0.06261l-4.31993,-6.69902l3.56863,-6.94945l-19.22054,0.25043l-1.37737,2.19127v1.75301z" fill="#710000"/><path d="M55.41007,287.3354l1.18954,3.38081v2.00344l2.06605,-0.12522l-0.50086,-4.0695l-2.00344,-2.81734z" fill="#b5b5b5"/></g></g></g></svg>