<svg version="1.1" xmlns="http://www.w3.org/2000/svg" xmlns:xlink="http://www.w3.org/1999/xlink" width="2878.25006" height="1619.57958" viewBox="0,0,2878.25006,1619.57958"><g transform="translate(1119.12503,629.78979)"><g stroke-miterlimit="10"><path d="M-1119.12503,989.78979v-1619.57958h2878.25006v1619.57958z" fill="none" stroke="#000000" stroke-width="0" stroke-linecap="butt"/><g stroke-width="0"><path d="M180.81728,337.52298l34.28391,-35.94698l93.59733,3.68829l-20.4987,36.87351z" fill="#cedce9" stroke="#000000" stroke-linecap="round"/><path d="M171.95636,335.18008c-3.22129,-0.66658 -10.89663,-1.81968 -7.50745,-2.5251c-1.84892,0.19327 -4.31493,0.42025 -5.62525,0.45352c-6.2074,0.15758 -14.23147,-0.6116 -20.6276,-0.88648c-17.54737,-0.75411 -34.57842,-1.71129 -51.5866,-1.37443c-7.68646,0.15224 -9.76525,-1.4273 -12.16636,0.55458c-4.93588,3.28638 -14.14952,6.01231 -20.10017,9.27852c-8.06507,4.42673 -11.25078,8.89804 -16.23413,13.47011c-5.60812,3.70055 -1.26705,11.45488 -1.35949,15.83805c-0.02474,1.17329 1.48112,3.3284 -0.01739,4.12841c1.47064,0.10688 2.89111,0.20777 3.79633,0.24668c6.0164,0.25856 12.03272,0.51711 18.04915,0.77567c23.93223,1.02851 51.74198,2.05264 75.01084,1.15509c27.62292,-0.83718 57.45351,3.34767 85.29391,2.72723c15.24434,-0.25613 31.82923,0.99831 47.33086,1.67093c7.86397,0.34122 14.61887,-0.34448 18.03136,1.61745c0.89693,0.51569 0.02367,-1.12236 0.03551,-1.68353c0.02958,-1.40291 0.05917,-2.80593 0.08875,-4.20884c0.16569,-7.85652 0.33138,-15.713 0.49707,-23.5695c0.03918,-1.85733 -1.31201,-8.56628 1.78836,-9.15274c-0.57846,-0.03616 -1.23307,-0.08263 -1.59307,-0.10672c-3.18898,-0.21312 -4.9728,-0.2323 -7.45053,-0.91933c-4.3015,-1.19272 -18.90126,-1.05569 -24.76226,-1.30756c-22.77626,-0.97881 -45.55247,-1.95764 -68.32874,-2.93648c0,0 -5.15688,-0.22161 -5.12137,-1.90513c0.00146,-0.06912 0.01149,-0.13499 0.02953,-0.19781c-2.46167,-0.27655 -4.94686,-0.62013 -7.47115,-1.14245zM252.91923,337.99495c13.74891,0.59087 31.33803,0.54679 40.65537,4.36374c5.3392,2.18723 1.66019,8.30623 1.6048,10.93295c-0.16569,7.85652 -0.33137,15.71298 -0.49707,23.5695c-0.01892,0.89715 1.66342,5.42385 -0.12427,5.89239c-18.0567,4.73225 -51.78133,-1.01241 -73.72282,-0.34296c-27.22341,0.60671 -58.46003,-4.12128 -84.81441,-2.7418c-23.98233,0.9251 -52.82947,-0.10116 -77.51444,-1.16202c-3.54078,-0.15218 -24.79357,-0.1893 -27.07361,-1.16352c-6.53834,-2.79372 -5.05977,-4.82626 -4.99709,-7.79755c0.11333,-5.3744 -2.66982,-11.90613 1.91125,-16.88009c5.10765,-4.68607 8.72076,-9.45087 16.80312,-13.88708c3.26033,-1.78949 6.79239,-4.21882 10.98993,-5.78121c2.74665,-1.02233 7.97165,-1.72433 8.65326,-3.1775c4.49402,-3.70942 12.4399,-2.08924 21.88761,-2.33913c16.81811,-0.44485 34.18941,0.62675 51.58661,1.37441c6.41598,0.27572 18.97231,-0.14947 23.49217,0.34497c7.86799,0.86076 12.38944,3.25064 20.01212,4.23015c5.59341,0.71876 11.50441,0.6896 18.02251,2.03833c0.49483,0.10244 0.98956,0.20479 1.48444,0.30719c17.21354,0.73977 34.42717,1.47954 51.64074,2.2193z" fill="#000000" stroke="none" stroke-linecap="butt"/><path d="M179.50092,336.24483c-0.01804,0.06281 -0.02747,0.12876 -0.02893,0.19788c-0.0355,1.68352 5.14663,1.90911 5.14663,1.90911c22.77621,0.97883 45.67312,1.99633 68.44947,2.97517c5.86097,0.25187 20.47384,0.12327 24.77533,1.31595c2.47768,0.68703 4.26551,0.70923 7.45436,0.9223c0.35995,0.02407 1.01509,0.071 1.59366,0.10719c-3.10038,0.58646 -1.73387,7.31219 -1.77305,9.16952c-0.16569,7.85651 -0.34312,15.7593 -0.50881,23.6158c-0.02959,1.40295 -0.06813,2.81236 -0.09771,4.21527c-0.01183,0.56117 0.85749,2.20158 -0.03945,1.68591c-3.41247,-1.96192 -10.17358,-1.27289 -18.03749,-1.61409c-15.50164,-0.67262 -32.13389,-1.90987 -47.37817,-1.65371c-27.84043,0.62045 -57.94455,-3.55982 -85.56749,-2.72264c-23.26885,0.89756 -51.19086,-0.16075 -75.12326,-1.18926c-6.01641,-0.25855 -12.04317,-0.52286 -18.05956,-0.78142c-0.9053,-0.0389 -2.32768,-0.14093 -3.79825,-0.2478c1.49853,-0.80004 -0.01682,-2.96148 0.00792,-4.13479c0.09244,-4.38317 -4.27228,-12.16767 1.33596,-15.86825c4.98341,-4.57209 8.18035,-9.0749 16.24542,-13.50162c5.95074,-3.26623 15.20351,-6.01556 20.13943,-9.30191c2.40107,-1.98188 4.49603,-0.40806 12.18246,-0.56028c17.00813,-0.33682 34.15033,0.60151 51.69757,1.35563c6.39603,0.27487 14.49209,1.04292 20.69949,0.88536c1.3102,-0.03328 3.79673,-0.25937 5.64564,-0.45263c-3.38928,0.70538 4.31656,1.86084 7.53792,2.52738c2.52437,0.52232 5.03955,0.86944 7.50116,1.14598z" fill="#d2d2d2" stroke="none" stroke-linecap="butt"/><path d="M107.07743,339.31011c-0.012,0.56897 1.75122,1.33495 0.85564,1.74739c2.26481,0.17354 4.5411,0.43785 6.55929,0.85548c7.78152,1.61018 23.56795,6.9373 25.00099,10.0722c0.11652,0.25499 -2.0924,0.20182 -1.72315,0.43937c1.22873,0.79045 11.39569,-0.05451 12.55769,0.20488c0.26293,0.05869 0.39101,0.13803 0.44106,0.23009c-0.04841,-0.28127 -0.09241,-0.55303 -0.08883,-0.7227c0.01257,-0.59635 0.0983,-1.23589 -0.70736,-1.8044c-6.84479,-4.99978 -18.09577,-9.95662 -37.7384,-10.80077c0,0 -2.31799,-0.09963 -3.8352,-0.67262c-0.50751,-0.11637 -0.90139,-0.24456 -1.16427,-0.38629c-0.07505,0.31823 -0.1534,0.64209 -0.15751,0.83732zM150.64465,353.82033c0.34468,0.3598 0.25295,-0.21677 0.14862,-0.82031c-0.02996,0.25868 -0.38423,0.57443 -0.14862,0.82031zM159.22925,349.22306c6.32399,4.46228 -8.36464,9.95375 -21.53017,6.56855c-12.42176,-3.19401 -16.53437,-8.71708 -27.8827,-11.06527c-3.83382,-0.79332 -8.43639,-1.33425 -11.28824,-2.50252c-4.51929,-1.85141 -2.38123,-7.41825 6.32796,-7.04398c6.27123,0.26951 9.34605,1.06627 15.18445,1.31719l2.57844,0.11082c0,0 2.95992,0.12724 4.37938,0.92094c15.24125,2.28436 24.95631,6.84152 32.23092,11.69423z" fill="#000000" stroke="none" stroke-linecap="butt"/><path d="M107.04475,338.40814c0.26274,0.14174 0.6568,0.26986 1.16437,0.38626c1.51717,0.57302 3.84577,0.66946 3.84577,0.66946c19.6426,0.84415 31.30105,5.91741 38.14579,10.91719c0.80565,0.56848 0.69718,1.2188 0.68461,1.81512c-0.00359,0.16967 0.03084,0.44491 0.07925,0.72618c-0.04994,-0.09209 -0.1768,-0.17179 -0.43987,-0.23054c-1.16198,-0.25939 -11.41729,0.60396 -12.64602,-0.18648c-0.3693,-0.23757 1.59784,-0.34275 1.48121,-0.59779c-1.43298,-3.13491 -17.29655,-8.44176 -25.07817,-10.05192c-2.01827,-0.41763 -4.30777,-0.67564 -6.5726,-0.8492c0.89559,-0.41246 -0.84627,-1.1879 -0.83428,-1.75685c0.00411,-0.19523 0.09445,-0.52325 0.16965,-0.84147z" fill="#ffffff" stroke="none" stroke-linecap="butt"/></g><g stroke-width="0"><path d="M349.77112,343.32827l-20.4987,-36.87351l93.59733,-3.68829l34.28391,35.94698z" fill="#cedce9" stroke="#000000" stroke-linecap="round"/><path d="M466.01447,336.37069c-2.52429,0.52232 -5.00948,0.8659 -7.47115,1.14245c0.01804,0.06282 0.02807,0.12869 0.02953,0.19781c0.03551,1.68352 -5.12137,1.90513 -5.12137,1.90513c-22.77627,0.97884 -45.55248,1.95767 -68.32874,2.93648c-5.861,0.25187 -20.46076,0.11484 -24.76226,1.30756c-2.47773,0.68703 -4.26155,0.70621 -7.45053,0.91933c-0.36,0.02409 -1.01461,0.07056 -1.59307,0.10672c3.10037,0.58646 1.74918,7.29541 1.78836,9.15274c0.16569,7.8565 0.33138,15.71298 0.49707,23.5695c0.02958,1.40291 0.05917,2.80593 0.08875,4.20884c0.01184,0.56117 -0.86142,2.19922 0.03551,1.68353c3.41249,-1.96193 10.16739,-1.27623 18.03136,-1.61745c15.50163,-0.67262 32.08652,-1.92706 47.33086,-1.67093c27.8404,0.62044 57.67099,-3.56441 85.29391,-2.72723c23.26886,0.89755 51.07861,-0.12658 75.01084,-1.15509c6.01643,-0.25856 12.03275,-0.51711 18.04915,-0.77567c0.90522,-0.03891 2.32569,-0.1398 3.79633,-0.24668c-1.49851,-0.80001 0.00735,-2.95512 -0.01739,-4.12841c-0.09244,-4.38317 4.24863,-12.1375 -1.35949,-15.83805c-4.98335,-4.57207 -8.16906,-9.04338 -16.23413,-13.47011c-5.95065,-3.26621 -15.16429,-5.99214 -20.10017,-9.27852c-2.40111,-1.98188 -4.4799,-0.40234 -12.16636,-0.55458c-17.00818,-0.33686 -34.03923,0.62032 -51.5866,1.37443c-6.39613,0.27488 -14.4202,1.04406 -20.6276,0.88648c-1.31032,-0.03327 -3.77633,-0.26025 -5.62525,-0.45352c3.38918,0.70542 -4.28616,1.85852 -7.50745,2.5251zM385.05149,339.1855c17.21357,-0.73976 34.4272,-1.47953 51.64074,-2.2193c0.49488,-0.1024 0.98961,-0.20475 1.48444,-0.30719c6.5181,-1.34873 12.4291,-1.31957 18.02251,-2.03833c7.62268,-0.97951 12.14413,-3.36939 20.01212,-4.23015c4.51986,-0.49444 17.07619,-0.06925 23.49217,-0.34497c17.3972,-0.74766 34.7685,-1.81926 51.58661,-1.37441c9.44771,0.24989 17.39359,-1.37029 21.88761,2.33913c0.68161,1.45317 5.90661,2.15517 8.65326,3.1775c4.19754,1.56239 7.7296,3.99172 10.98993,5.78121c8.08236,4.43621 11.69547,9.20101 16.80312,13.88708c4.58107,4.97396 1.79792,11.50569 1.91125,16.88009c0.06268,2.97129 1.54125,5.00383 -4.99709,7.79755c-2.28004,0.97422 -23.53283,1.01134 -27.07361,1.16352c-24.68497,1.06086 -53.53211,2.08712 -77.51444,1.16202c-26.35438,-1.37948 -57.591,3.34851 -84.81441,2.7418c-21.94149,-0.66945 -55.66612,5.07521 -73.72282,0.34296c-1.78769,-0.46854 -0.10535,-4.99524 -0.12427,-5.89239c-0.1657,-7.85652 -0.33138,-15.71298 -0.49707,-23.5695c-0.05539,-2.62672 -3.7344,-8.74572 1.6048,-10.93295c9.31734,-3.81695 26.90646,-3.77287 40.65537,-4.36374z" fill="#000000" stroke="none" stroke-linecap="butt"/><path d="M458.46977,337.43535c2.46161,-0.27654 4.97679,-0.62366 7.50116,-1.14598c3.22136,-0.66654 10.9272,-1.822 7.53792,-2.52738c1.84891,0.19326 4.33544,0.41935 5.64564,0.45263c6.2074,0.15756 14.30346,-0.61049 20.69949,-0.88536c17.54724,-0.75412 34.68944,-1.69245 51.69757,-1.35563c7.68643,0.15222 9.78139,-1.4216 12.18246,0.56028c4.93592,3.28635 14.18869,6.03568 20.13943,9.30191c8.06507,4.42672 11.26201,8.92953 16.24542,13.50162c5.60824,3.70058 1.24352,11.48508 1.33596,15.86825c0.02474,1.17331 -1.49061,3.33475 0.00792,4.13479c-1.47057,0.10687 -2.89295,0.2089 -3.79825,0.2478c-6.01639,0.25856 -12.04315,0.52287 -18.05956,0.78142c-23.9324,1.02851 -51.85441,2.08682 -75.12326,1.18926c-27.62294,-0.83718 -57.72706,3.34309 -85.56749,2.72264c-15.24428,-0.25616 -31.87653,0.98109 -47.37817,1.65371c-7.86391,0.3412 -14.62502,-0.34783 -18.03749,1.61409c-0.89694,0.51567 -0.02762,-1.12474 -0.03945,-1.68591c-0.02958,-1.40291 -0.06812,-2.81232 -0.09771,-4.21527c-0.16569,-7.8565 -0.34312,-15.75929 -0.50881,-23.6158c-0.03918,-1.85733 1.32733,-8.58306 -1.77305,-9.16952c0.57857,-0.03619 1.23371,-0.08312 1.59366,-0.10719c3.18885,-0.21307 4.97668,-0.23527 7.45436,-0.9223c4.30149,-1.19268 18.91436,-1.06408 24.77533,-1.31595c22.77635,-0.97884 45.67326,-1.99634 68.44947,-2.97517c0,0 5.18213,-0.22559 5.14663,-1.90911c-0.00146,-0.06912 -0.01089,-0.13507 -0.02893,-0.19788z" fill="#d2d2d2" stroke="none" stroke-linecap="butt"/><path d="M530.89355,340.50053c-0.00411,-0.19523 -0.08246,-0.51909 -0.15751,-0.83732c-0.26288,0.14173 -0.65676,0.26992 -1.16427,0.38629c-1.51721,0.57299 -3.8352,0.67262 -3.8352,0.67262c-19.64263,0.84415 -30.89361,5.80099 -37.7384,10.80077c-0.80566,0.56851 -0.71993,1.20805 -0.70736,1.8044c0.00358,0.16967 -0.04042,0.44143 -0.08883,0.7227c0.05005,-0.09206 0.17813,-0.1714 0.44106,-0.23009c1.162,-0.25939 11.32896,0.58557 12.55769,-0.20488c0.36925,-0.23755 -1.83967,-0.18438 -1.72315,-0.43937c1.43304,-3.1349 17.21947,-8.46202 25.00099,-10.0722c2.01819,-0.41763 4.29448,-0.68194 6.55929,-0.85548c-0.89558,-0.41244 0.86764,-1.17842 0.85564,-1.74739zM487.17767,354.1905c-0.10433,0.60354 -0.19606,1.18011 0.14862,0.82031c0.23561,-0.24588 -0.11866,-0.56163 -0.14862,-0.82031zM478.74165,350.41349c7.27461,-4.85271 16.98967,-9.40987 32.23092,-11.69423c1.41946,-0.7937 4.37938,-0.92094 4.37938,-0.92094l2.57844,-0.11082c5.8384,-0.25092 8.91322,-1.04768 15.18445,-1.31719c8.70919,-0.37427 10.84725,5.19257 6.32796,7.04398c-2.85185,1.16827 -7.45442,1.7092 -11.28824,2.50252c-11.34833,2.34819 -15.46094,7.87126 -27.8827,11.06527c-13.16553,3.3852 -27.85416,-2.10627 -21.53017,-6.56855z" fill="#000000" stroke="none" stroke-linecap="butt"/><path d="M530.92647,339.59858c0.0752,0.31822 0.16554,0.64624 0.16965,0.84147c0.01199,0.56895 -1.72987,1.34439 -0.83428,1.75685c-2.26483,0.17356 -4.55433,0.43157 -6.5726,0.8492c-7.78162,1.61016 -23.64519,6.91701 -25.07817,10.05192c-0.11663,0.25504 1.85051,0.36022 1.48121,0.59779c-1.22873,0.79044 -11.48404,-0.07291 -12.64602,0.18648c-0.26307,0.05875 -0.38993,0.13845 -0.43987,0.23054c0.04841,-0.28127 0.08284,-0.55651 0.07925,-0.72618c-0.01257,-0.59632 -0.12104,-1.24664 0.68461,-1.81512c6.84474,-4.99978 18.50319,-10.07304 38.14579,-10.91719c0,0 2.3286,-0.09644 3.84577,-0.66946c0.50757,-0.1164 0.90163,-0.24452 1.16437,-0.38626z" fill="#ffffff" stroke="none" stroke-linecap="butt"/></g><g><path d="M114.14962,298.85576l32.17907,-252.58941l286.66099,43.66529l5.44416,-40.33087l294.08554,38.22537l-35.02701,286.76909z" fill="#b8b19e" stroke="#000000" stroke-width="1" stroke-linecap="round"/><path d="M120.0157,247.94438l584.29627,73.23053l-8.20952,53.60951l-584.31343,-75.41842z" fill="#a28f80" stroke="#000000" stroke-width="1" stroke-linecap="round"/><path d="M376.31088,318.58901l-49.25536,-5.75163l13.62389,-111.75627l48.3649,5.63945z" fill="#e6e6e6" stroke="#000000" stroke-width="1" stroke-linecap="round"/><path d="M368.25425,310.73312l-35.36875,-4.68101l12.72153,-99.20535l37.26187,4.01485z" fill="#121212" stroke="#000000" stroke-width="1" stroke-linecap="round"/><path d="M369.52688,311.40227l-36.73251,-4.62663l10.40629,-86.21048l37.92975,4.09895z" fill="#755943" stroke="#000000" stroke-width="1" stroke-linecap="round"/><path d="M450.74075,219.18422l225.70817,30.46436l-13.59205,122.27641l-228.57419,-31.05151z" fill="#8b7a60" stroke="#000000" stroke-width="1" stroke-linecap="round"/><path d="M448.77603,229.39633l212.04501,28.51727l-12.37933,112.64803l-213.95703,-29.9454z" fill="#d2c9c2" stroke="#000000" stroke-width="1" stroke-linecap="round"/><path d="M448.41724,233.59152l206.81426,26.95381l-1.4071,16.55809l-208.20777,-24.86781z" fill="#2d241d" stroke="#000000" stroke-width="1" stroke-linecap="round"/><path d="M630.66548,103.21479l-9.72313,70.01353l-88.32455,-11.5772l8.16479,-70.2098l91.2747,11.49646z" fill="#4a413a" stroke="#000000" stroke-width="1" stroke-linecap="round"/><path d="M689.74078,172.84766l-24.01505,-3.25095l6.56481,-55.71139l27.52261,2.33584z" fill="#4a413a" stroke="#000000" stroke-width="1" stroke-linecap="round"/><path d="M435.18359,203.99479l-140.2921,-137.1923l-177.87205,101.01919l-9.59054,-11.83715l189.4592,-103.68704l146.82141,141.46353z" fill="#e6e6e6" stroke="#000000" stroke-width="1" stroke-linecap="round"/><path d="M259.03837,266.61584l-93.02764,-11.94341l8.55735,-73.32649l95.42209,10.88809z" fill="#4a413a" stroke="#000000" stroke-width="1" stroke-linecap="round"/><path d="M224.03869,69.12935l-3.11245,24.71095l-19.71472,11.08602l-22.76343,-2.41486l5.04892,-41.88082l40.7112,5.80622z" fill="#4a413a" stroke="#000000" stroke-width="1" stroke-linecap="round"/><path d="M437.03879,73.45548l-3.71744,16.94555l-309.99536,-44.02071l-9.0017,-16.51221l321.32354,42.95985z" fill="#e6e6e6" stroke="#000000" stroke-width="1" stroke-linecap="round"/><path d="M410.24521,35.70545l354.07989,43.69339l-5.99463,11.68337l-344.08825,-44.01796z" fill="#e6e6e6" stroke="#000000" stroke-width="1" stroke-linecap="round"/><path d="M261.66977,50.46233l9.08893,-72.16035l95.78236,12.51652l-8.87642,72.26864z" fill="#a09986" stroke="#000000" stroke-width="1" stroke-linecap="round"/><path d="M327.66132,35.1097l-31.38957,-3.95365l4.12699,-38.15236l34.95154,4.40231z" fill="#4a413a" stroke="#000000" stroke-width="1" stroke-linecap="round"/><path d="M381.6657,-7.6157l-123.5828,-15.33967l-3.6639,-10.41221l131.87757,14.1229z" fill="#e6e6e6" stroke="#000000" stroke-width="1" stroke-linecap="round"/><path d="M380.07574,136.34346c-0.33478,-0.67113 0.33635,-1.00591 0.33635,-1.00591l0.24729,-0.10066c-0.01469,-0.04081 -0.02897,-0.08177 -0.04267,-0.12289c-0.52594,-1.57807 -1.14568,-3.25829 -1.29859,-4.92687c-0.04544,-0.49584 0.00688,-0.99797 -0.04631,-1.49305c-0.05403,-0.50304 -0.23252,-0.9886 -0.27445,-1.4928c-0.04253,-0.51133 0.03514,-1.0262 0.02233,-1.53914c-0.01006,-0.40292 -0.09533,-0.80268 -0.09089,-1.2057c0.00892,-0.81531 0.19996,-1.6184 0.30184,-2.42736c0.25916,-2.0576 0.51833,-4.11522 0.7775,-6.17282l0.09514,-0.75531c0.05176,-0.41097 0.42689,-0.70216 0.83785,-0.6504c0.1746,0.02199 0.32758,0.10234 0.44182,0.21902l1.05494,1.05693c0.4048,0.3225 1.71258,1.77749 2.08337,2.14615c0.56153,0.5583 1.11845,1.12184 1.70027,1.65897c0.34603,0.31946 0.73923,0.58487 1.08801,0.90134c0.29119,0.26422 0.51592,0.60145 0.82954,0.83862c0.36941,0.27935 0.79759,0.47115 1.20169,0.69743c0.63772,0.35711 1.2609,0.74459 1.92485,1.05017c0.28825,0.13265 0.59981,0.20745 0.89695,0.31875c0.87158,0.32646 1.74067,0.66465 2.63308,0.92887c0.48951,0.14493 0.99442,0.23812 1.47762,0.4029c0.45665,0.15572 0.88096,0.3966 1.33612,0.55661c0.90244,0.31726 1.86595,0.42348 2.79246,0.66147c0.95912,0.24638 1.87825,0.69868 2.80936,1.03185c0.29422,0.10636 0.57883,0.24459 0.88268,0.3191c0.74253,0.18206 1.52801,0.17216 2.2593,0.39517c0.95926,0.29256 1.84877,0.79123 2.81272,1.06796c1.14959,0.33003 2.46034,0.46566 3.64122,0.61417c0.66379,0.08348 1.32181,0.2471 1.99078,0.25527c0.3342,0.00408 0.66411,-0.09838 0.99829,-0.09349c0.32623,0.00478 0.64491,0.11629 0.97111,0.12232c0.57909,0.01069 1.14576,-0.18926 1.72447,-0.21295c0.41316,-0.01691 0.8264,0.045 1.23989,0.0403c1.87381,-0.02128 3.7461,-0.25858 5.61947,-0.27792c0.02225,-0.00023 2.98746,0.07597 3.02908,0.07704c0.43898,0.01191 0.87838,0.05803 1.31696,0.03574c0.48752,-0.02479 0.96781,-0.13043 1.45378,-0.17658c0.88162,-0.08373 1.76583,-0.1415 2.6504,-0.18392c0.97293,-0.04665 1.95535,-0.05103 2.92437,-0.16793c0.37725,-0.04551 0.74642,-0.14829 1.12427,-0.18832c0.48856,-0.05175 0.98543,-0.01408 1.47132,-0.08661c0.4957,-0.074 0.96591,-0.27976 1.46197,-0.35126c0.48814,-0.07035 0.99158,0.01031 1.47778,-0.07247c0.08913,-0.01517 2.6494,-0.81179 2.71465,-0.83805c1.28823,-0.51841 2.5751,-1.29684 3.73352,-2.05719c0.43743,-0.28713 0.82727,-0.64908 1.28751,-0.898c0.3809,-0.206 0.84367,-0.23568 1.21635,-0.45617c0.39497,-0.23369 0.70128,-0.59217 1.05323,-0.88669c0.50762,-0.42479 1.02785,-0.83445 1.55068,-1.24037c3.4126,-2.61952 7.79359,-4.27801 10.68381,-7.61042l0.09931,-0.03336l-0.01857,-0.02814l0.83337,-0.54998c0.14484,-0.09683 0.32388,-0.14393 0.51033,-0.12045c0.41096,0.05176 0.70216,0.42689 0.6504,0.83786c-0.00505,0.04012 -0.01319,0.07909 -0.02414,0.11673l-0.19963,0.72929l-0.01338,-0.00366c-0.0044,0.02951 -0.00951,0.05896 -0.01535,0.08835c-0.07939,0.39962 -0.40601,0.70702 -0.58839,1.07135c-0.23131,0.46205 -0.40106,0.95245 -0.60788,1.42596c-0.36875,0.84418 -0.56348,1.15571 -0.78001,2.05909c-0.0118,0.04927 -0.02299,0.09877 -0.03357,0.14849c0.27139,0.22248 0.26577,0.6063 0.26577,0.6063c-0.02017,1.33235 -0.03366,2.71447 -0.2846,4.0299c-0.0946,0.4959 -0.26596,0.97498 -0.3627,1.47046c-0.15432,0.79038 -0.19283,1.60027 -0.34319,2.3914c-0.00892,0.04696 -0.01794,0.09391 -0.02702,0.14085c0.04816,0.20687 0.09111,0.41321 0.04218,0.61416c-0.10952,0.44985 -0.2345,0.76008 -0.38345,1.01025c-0.19749,0.8869 -0.40716,1.77191 -0.60135,2.65715c-0.38419,1.75129 -0.6705,3.57423 -1.25288,5.27517c-0.10674,0.31174 -0.79366,1.95829 -0.9674,2.42083c-0.19124,0.50913 -0.27409,1.06794 -0.55228,1.53524c-0.23239,0.39035 -1.85644,2.01624 -2.19375,2.36148c-2.59895,2.07617 -4.88302,4.50305 -7.51199,6.54387c-0.70124,0.54434 -1.42795,1.05602 -2.16438,1.55173c-0.24307,0.16361 -0.47031,0.35405 -0.7303,0.48913c-0.42559,0.22113 -1.81117,0.78239 -2.36483,1.04529c-1.17334,0.55716 -2.30347,1.14041 -3.49417,1.66253c-0.34323,0.15051 -0.67059,0.34565 -1.0309,0.44873c-0.49854,0.14263 -1.02393,0.16866 -1.52954,0.28378c-0.91679,0.20875 -1.79994,0.55524 -2.72158,0.74151c-0.08547,0.01728 -2.21413,0.31439 -2.55458,0.36207c-1.75971,0.00048 -3.52161,-0.01576 -5.27871,0.10324c-2.14481,0.14527 -4.28774,0.3724 -6.44011,0.40004c-1.75772,0.02257 -3.57078,0.03574 -5.32308,-0.11507c-0.39657,-0.03414 -0.78774,-0.12075 -1.18475,-0.14933c-0.99561,-0.07167 -1.99755,-0.01645 -2.99331,-0.08605c-2.20598,-0.15417 -4.37006,-0.53569 -6.52574,-1.00708c-0.97459,-0.25704 -1.93275,-0.57321 -2.90432,-0.84143c-1.93588,-0.53444 -3.9029,-0.99395 -5.812,-1.62542c-0.42934,-0.14201 -1.78634,-0.71148 -2.34408,-0.91407c-0.47372,-0.17208 -0.95881,-0.31266 -1.42895,-0.49427c-0.75383,-0.2912 -1.46876,-0.67928 -2.2288,-0.95381c-0.48278,-0.17439 -0.99506,-0.26773 -1.46532,-0.47351c-0.74502,-0.32601 -1.98788,-1.15723 -2.67652,-1.59874c-0.72284,-0.46345 -1.85487,-1.12068 -2.40233,-1.7868c-0.48295,-0.58762 -0.86394,-1.56319 -1.16584,-2.29792c-0.54753,-1.33251 -0.98247,-2.67444 -1.41586,-4.04697c-0.03194,-0.51096 -0.02639,-1.02567 -0.09582,-1.53289c-0.17287,-1.26281 -0.39558,-1.48047 -0.6771,-2.704c-0.0481,-0.20904 -0.07031,-0.42335 -0.09858,-0.63636l-0.00745,0.00861c0,0 -0.67113,0.33478 -1.00591,-0.33635zM382.59052,136.64248c0.01628,0.1127 0.03505,0.22492 0.06055,0.33572c0.21784,0.94637 0.56563,1.86631 0.69961,2.82815c0.06734,0.48337 0.05615,0.97445 0.08424,1.4617c0.41535,1.26919 0.8213,2.51567 1.32864,3.75247c0.22514,0.54883 0.59067,1.49275 0.93453,1.91274c0.38665,0.47224 1.57061,1.1694 2.05568,1.47987c0.54688,0.35004 1.851,1.21986 2.46641,1.48658c0.44655,0.19354 0.93332,0.27828 1.3911,0.44351c0.76531,0.27624 1.48528,0.66673 2.24432,0.95972c0.46272,0.17862 0.94027,0.31642 1.40645,0.48578c0.39818,0.14466 2.06545,0.82116 2.29697,0.89762c1.88583,0.62281 3.82837,1.07586 5.74045,1.60371c0.95573,0.26385 1.89786,0.57631 2.85657,0.8291c2.07432,0.45281 4.15618,0.82063 6.27891,0.969c0.99939,0.06985 2.00493,0.0154 3.00419,0.08684c0.39847,0.02848 0.79111,0.11505 1.18909,0.14968c1.70146,0.14803 3.4645,0.13196 5.17143,0.11061c2.13086,-0.02663 4.2522,-0.25365 6.37553,-0.39727c1.7545,-0.11867 3.51305,-0.10662 5.27017,-0.10267c0.7852,-0.11305 1.5786,-0.17784 2.35619,-0.33476c0.91199,-0.18404 1.78518,-0.52949 2.69252,-0.73522c0.46954,-0.10646 0.95816,-0.12488 1.42169,-0.25502c0.30449,-0.08551 0.577,-0.25924 0.86615,-0.38738c0.70592,-0.31285 1.41241,-0.62576 2.10336,-0.97043c1.19089,-0.59403 2.45579,-1.0696 3.63577,-1.67806c0.22081,-0.11387 0.41041,-0.28015 0.61619,-0.41935c0.70775,-0.4787 1.40856,-0.96923 2.08352,-1.49317c2.59899,-2.0175 4.85265,-4.42244 7.42526,-6.47115c0.10462,-0.10747 1.80332,-1.83337 1.90992,-2.01415c0.2317,-0.39298 0.2815,-0.86809 0.43797,-1.2966c0.1658,-0.4541 0.83483,-2.03689 0.95262,-2.37957c0.56462,-1.64295 0.83468,-3.41205 1.20552,-5.1041c-0.68086,0.77807 -1.35665,1.56184 -2.02478,2.34935c-0.57682,0.56805 -1.18141,1.10736 -1.78388,1.6481c-1.05244,0.9446 -2.05891,1.93753 -3.29493,2.64995c-0.44142,0.25442 -0.90509,0.46819 -1.35516,0.70699c-0.24953,0.13238 -0.4789,0.30769 -0.74352,0.40653c-0.66868,0.24974 -1.39081,0.34495 -2.05019,0.61828c-0.46787,0.19394 -0.90914,0.45092 -1.3839,0.62739c-0.06019,0.02238 -2.81567,0.82896 -2.91509,0.8601c-0.27263,0.0854 -2.07524,0.71113 -2.47275,0.78516c-0.49813,0.09274 -1.00804,0.10378 -1.51187,0.15744c-1.27351,0.13562 -2.54607,0.27904 -3.81877,0.42194c-0.47814,0.05369 -0.96188,0.07005 -1.43455,0.15999c-0.47267,0.08993 -0.92869,0.25204 -1.39304,0.37805c-2.10289,0.5672 -4.3036,1.21933 -6.49058,1.33646c-1.50495,0.0806 -3.03475,0.06924 -4.54243,0.09277c-0.76759,0.01198 -1.5333,0.1187 -2.30084,0.1021c-0.51783,-0.0112 -1.03017,-0.10921 -1.5459,-0.15714c-1.50921,-0.14031 -3.03493,-0.19421 -4.53209,-0.44527c-1.30066,-0.21811 -2.57386,-0.61043 -3.87628,-0.81694c-1.96124,-0.31097 -3.95207,-0.49714 -5.92239,-0.74531c-1.50628,-0.18986 -3.05714,-0.42415 -4.57485,-0.46907c-0.51725,-0.01531 -1.03662,0.04838 -1.55243,0.00668c-0.29248,-0.02364 -0.5704,-0.13825 -0.85694,-0.20145c-0.49878,-0.10999 -1.01888,-0.14362 -1.49893,-0.31808c-0.35907,-0.13049 -0.64783,-0.40649 -0.98564,-0.58495c-0.43978,-0.23235 -0.95441,-0.28838 -1.41052,-0.48676c-0.36437,-0.15848 -0.68047,-0.41484 -1.04383,-0.57563c-0.3397,-0.15032 -0.71971,-0.19768 -1.05674,-0.35388c-0.41473,-0.19223 -0.76145,-0.52004 -1.18728,-0.68621c-0.38008,-0.1483 -0.8037,-0.14481 -1.19919,-0.24499c-0.19953,-0.05053 -2.33094,-0.69534 -2.54646,-0.78546c-0.27103,-0.11334 -0.50151,-0.30704 -0.76236,-0.44214c-1.14886,-0.59494 -2.3859,-1.2763 -3.63707,-1.61642c-0.31592,-0.03979 -0.59107,-0.08943 -0.85635,-0.13146zM382.20573,135.09537c0.48988,0.0461 0.95764,0.13481 1.53361,0.20736c1.40468,0.38646 2.75608,1.09225 4.0487,1.76315c0.22936,0.11905 0.42834,0.29575 0.66671,0.39555c0.12477,0.05223 2.27045,0.69323 2.30832,0.70293c0.45049,0.11558 0.92945,0.12937 1.36327,0.29699c0.45281,0.17495 0.82575,0.51544 1.26645,0.71901c0.33402,0.15428 0.71054,0.20055 1.04695,0.34953c0.35069,0.15531 0.65413,0.40564 1.00549,0.5594c0.49535,0.21678 1.05012,0.29047 1.52918,0.54118c0.2942,0.15397 0.53584,0.40938 0.84789,0.52291c0.40839,0.14858 0.85448,0.15965 1.27933,0.25108c0.23586,0.05075 0.46162,0.15739 0.70222,0.17532c0.48119,0.03587 0.96517,-0.02892 1.4475,-0.01508c1.55787,0.04469 3.14934,0.28475 4.69523,0.47932c1.9907,0.25073 4.00214,0.43921 5.98354,0.75429c1.3025,0.20713 2.57557,0.59812 3.87614,0.81693c1.46054,0.24572 2.95122,0.29233 4.42341,0.43107c0.47992,0.04523 0.95629,0.14076 1.43824,0.15097c0.74902,0.01588 1.49613,-0.09047 2.24521,-0.10226c1.47933,-0.02327 2.97818,-0.01315 4.455,-0.08885c2.08974,-0.10711 4.20222,-0.74672 6.21079,-1.28877c0.50113,-0.13446 0.99367,-0.30641 1.5034,-0.40339c0.50971,-0.09698 1.03095,-0.11831 1.54647,-0.17694c1.27607,-0.14513 2.55267,-0.28994 3.83004,-0.42318c0.45815,-0.0478 0.92204,-0.05357 1.37514,-0.13661c0.25994,-0.04764 2.31029,-0.74314 2.31786,-0.74551c0.94178,-0.29493 1.9159,-0.48978 2.84061,-0.83456c0.46241,-0.17242 0.89119,-0.42542 1.34753,-0.61331c0.66055,-0.27197 1.38097,-0.37318 2.05173,-0.61889c0.21256,-0.07787 0.39108,-0.22829 0.59071,-0.33504c0.43254,-0.23131 0.87984,-0.43525 1.30548,-0.67901c1.14713,-0.65696 2.07513,-1.59531 3.04988,-2.47003c0.56992,-0.51145 1.14424,-1.01892 1.6903,-1.55578c0.96542,-1.13978 1.94631,-2.27552 2.94053,-3.38958c0.28028,-0.31408 0.60895,-0.57073 0.85159,-0.8972c0.07637,-0.34873 0.15029,-0.6978 0.22008,-1.04734c-0.01857,-0.0525 -0.03465,-0.10527 -0.0419,-0.15838c-0.12165,-0.89206 -0.13088,-1.43124 -0.05517,-2.35088c0.09642,-1.17124 0.34156,-2.24942 0.5377,-3.39881c0.17635,-1.03336 0.15461,-2.14177 0.40055,-3.162c0.25995,-1.0784 0.44199,-1.35487 0.86983,-2.33689c0.00475,-0.0109 0.03689,-0.08612 0.0844,-0.19743c-2.786,2.34521 -6.28161,3.84081 -9.09887,6.05698c-0.51016,0.39594 -1.0142,0.79988 -1.51296,1.2101c-0.4179,0.34372 -0.79193,0.75012 -1.25601,1.02835c-0.38833,0.23281 -0.87006,0.27055 -1.26866,0.48527c-0.41974,0.2261 -0.7689,0.56458 -1.16709,0.82679c-1.23872,0.8157 -2.61802,1.63891 -3.9959,2.19438c-0.19082,0.07692 -2.83405,0.89244 -3.02033,0.92489c-0.4993,0.08702 -1.01678,0.00649 -1.51841,0.07889c-0.4937,0.07126 -0.9615,0.27672 -1.45486,0.35021c-0.50316,0.07496 -1.0174,0.03961 -1.52326,0.09343c-0.37486,0.03988 -0.74102,0.14241 -1.1153,0.18727c-1.00714,0.12074 -2.0271,0.12889 -3.03825,0.17719c-0.85883,0.04102 -1.71728,0.09767 -2.57328,0.17861c-0.50958,0.04818 -1.01355,0.15614 -1.52477,0.18162c-0.47486,0.02366 -0.95061,-0.02304 -1.42591,-0.03457c-0.98966,-0.02535 -1.97902,-0.08682 -2.96895,-0.07671c-1.87718,0.01917 -3.75343,0.25723 -5.63118,0.27805c-0.38729,0.0043 -0.77412,-0.05787 -1.16114,-0.04289c-0.61612,0.02385 -1.2206,0.22228 -1.83713,0.21537c-0.32624,-0.00366 -0.64489,-0.11754 -0.97111,-0.12232c-0.33418,-0.00489 -0.66412,0.09912 -0.9983,0.09349c-0.05578,-0.00093 -2.13017,-0.26379 -2.15429,-0.26683c-1.26083,-0.15903 -2.64142,-0.30861 -3.86767,-0.66066c-0.68424,-0.19644 -2.09331,-0.84608 -2.79603,-1.06326c-0.72589,-0.22435 -1.50784,-0.20921 -2.24541,-0.39145c-0.34521,-0.08528 -0.67013,-0.23809 -1.00519,-0.35715c-0.88597,-0.31768 -1.77386,-0.76288 -2.68758,-0.99398c-0.96487,-0.24403 -1.96378,-0.36801 -2.90359,-0.69556c-0.45261,-0.15775 -0.87356,-0.39861 -1.32716,-0.5535c-0.94855,-0.32389 -1.93762,-0.52147 -2.88305,-0.85435c-0.75804,-0.26691 -1.52655,-0.5128 -2.25671,-0.84856c-0.70289,-0.32322 -1.36665,-0.72596 -2.03939,-1.10801c-0.46684,-0.26512 -0.95737,-0.49696 -1.38645,-0.81965c-0.34645,-0.26054 -0.60092,-0.6259 -0.92244,-0.91667c-0.35183,-0.31818 -0.74706,-0.58646 -1.09557,-0.90829c-0.34508,-0.31865 -0.64591,-0.68239 -0.98215,-1.01032c-0.60327,-0.58835 -1.20564,-1.17788 -1.79266,-1.78245c-0.33678,-0.34685 -0.74772,-0.63051 -1.02977,-1.02222c-0.22665,1.79945 -0.45328,3.59889 -0.67994,5.39833c-0.09556,0.75868 -0.28554,1.5109 -0.29051,2.27556c-0.00244,0.37588 0.08134,0.74825 0.09061,1.12403c0.01201,0.48676 -0.06744,0.97525 -0.02681,1.46046c0.04122,0.49235 0.21822,0.96596 0.27105,1.45718c0.05369,0.4992 0.00382,1.00533 0.0476,1.50549c0.13579,1.55188 0.74193,3.13335 1.22846,4.599c0.05104,0.15378 0.10873,0.30547 0.16647,0.45711z" fill="#000000" stroke="none" stroke-width="0.5" stroke-linecap="butt"/><path d="M383.49634,136.78119c1.25118,0.34011 2.48842,1.0199 3.63726,1.61486c0.26085,0.13509 0.4914,0.32828 0.76243,0.4416c0.21551,0.09013 2.34701,0.73408 2.54653,0.78462c0.39549,0.10019 0.81914,0.09644 1.19921,0.24477c0.42584,0.16617 0.77265,0.49294 1.18738,0.68516c0.33703,0.15621 0.71708,0.20303 1.05676,0.35335c0.36336,0.16079 0.67949,0.41613 1.04386,0.57462c0.45612,0.19839 0.97077,0.25351 1.41056,0.48587c0.33779,0.17846 0.62656,0.45323 0.98563,0.58374c0.48005,0.17449 1.00014,0.20732 1.49892,0.31733c0.28654,0.0632 0.56444,0.17728 0.85694,0.20092c0.5158,0.0417 1.03518,-0.02213 1.55243,-0.00682c1.51771,0.04492 3.06843,0.27705 4.57472,0.46692c1.97032,0.24817 3.96018,0.42785 5.92142,0.73882c1.30242,0.20651 2.57094,0.58608 3.8716,0.8042c1.49717,0.25107 2.99067,0.27982 4.49987,0.42013c0.51573,0.04793 1.00556,0.14562 1.52341,0.15682c0.76752,0.0166 1.51004,-0.07817 2.27767,-0.09013c1.50768,-0.02353 3.02522,0.00512 4.53017,-0.07548c2.18698,-0.11712 4.38415,-0.75632 6.48702,-1.32351c0.46434,-0.12602 0.92018,-0.28632 1.39284,-0.37625c0.47267,-0.08993 0.95632,-0.10541 1.43447,-0.1591c1.27271,-0.1429 2.54516,-0.28458 3.81867,-0.4202c0.50383,-0.05365 1.01373,-0.06417 1.51184,-0.15694c0.39749,-0.074 2.20009,-0.69799 2.47273,-0.78339c0.09941,-0.03114 2.85493,-0.83616 2.91512,-0.85853c0.47476,-0.17643 0.91606,-0.43243 1.38396,-0.62637c0.6594,-0.27332 1.38155,-0.36772 2.05024,-0.61746c0.26461,-0.09883 0.49403,-0.27357 0.74355,-0.40596c0.45008,-0.2388 0.91382,-0.45166 1.35525,-0.70609c1.23603,-0.71243 2.2429,-1.70224 3.29534,-2.64684c0.60247,-0.54075 1.20738,-1.07836 1.7842,-1.64641c0.66813,-0.7875 1.44154,-1.59283 2.12241,-2.37089c-0.37084,1.69205 -0.63983,3.467 -1.20445,5.10995c-0.11777,0.34269 -0.78654,1.92839 -0.95234,2.38251c-0.15646,0.42853 -0.20618,0.90532 -0.43788,1.29829c-0.10659,0.18079 -1.80528,1.90941 -1.9099,2.01689c-2.57261,2.04871 -4.82788,4.46498 -7.42687,6.48248c-0.67494,0.52393 -1.37679,1.01788 -2.08454,1.49658c-0.2058,0.1392 -0.39573,0.3065 -0.61656,0.42036c-1.17998,0.60846 -2.44715,1.08929 -3.63804,1.68333c-0.69095,0.34467 -1.3993,0.66101 -2.10524,0.97384c-0.28915,0.12813 -0.56257,0.30333 -0.86707,0.38884c-0.46355,0.13016 -0.95344,0.15045 -1.42297,0.25691c-0.90733,0.20571 -1.78394,0.55541 -2.69591,0.73944c-0.7776,0.15693 -1.57446,0.22521 -2.35965,0.33825c-1.75712,-0.00394 -3.52611,-0.00862 -5.28063,0.11004c-2.12334,0.14362 -4.26484,0.37635 -6.39571,0.40297c-1.70693,0.02133 -3.48769,0.03536 -5.18916,-0.11267c-0.39799,-0.03464 -0.79437,-0.12249 -1.19284,-0.15097c-0.99926,-0.07145 -2.01265,-0.02092 -3.01205,-0.09074c-2.12273,-0.14836 -4.21618,-0.52597 -6.2905,-0.97879c-0.95871,-0.25279 -1.90443,-0.56991 -2.86017,-0.83374c-1.91206,-0.52786 -3.85899,-0.98874 -5.74482,-1.61155c-0.23152,-0.07647 -1.90001,-0.75592 -2.29819,-0.90059c-0.46618,-0.16937 -0.94428,-0.30875 -1.40701,-0.48735c-0.75905,-0.29299 -1.47978,-0.68604 -2.2451,-0.96228c-0.45778,-0.16523 -0.94487,-0.25118 -1.39143,-0.44474c-0.61542,-0.26673 -1.92016,-1.1395 -2.46705,-1.48955c-0.48507,-0.31047 -1.66944,-1.01016 -2.05609,-1.4824c-0.34388,-0.42 -0.70968,-1.36667 -0.93482,-1.9155c-0.50735,-1.23678 -0.91341,-2.4884 -1.32876,-3.7576c-0.02808,-0.48723 -0.01681,-0.98025 -0.08414,-1.46363c-0.13398,-0.96185 -0.4814,-1.88536 -0.69924,-2.83173c-0.02551,-0.11082 -0.04421,-0.22344 -0.0605,-0.33613c0.26528,0.04203 0.63938,0.10619 0.95528,0.14598z" fill="#ffffff" stroke="none" stroke-width="0.5" stroke-linecap="butt"/><path d="M381.98999,134.64678c-0.48653,-1.46564 -1.09332,-3.05295 -1.22911,-4.60483c-0.04377,-0.50017 0.00604,-1.00815 -0.04766,-1.50735c-0.05283,-0.49123 -0.22983,-0.96664 -0.27105,-1.45898c-0.04061,-0.48521 0.0389,-0.97551 0.02688,-1.46225c-0.00927,-0.37578 -0.09297,-0.7495 -0.09052,-1.12538c0.00498,-0.76466 0.19527,-1.51966 0.29082,-2.27835c0.22665,-1.79945 0.45463,-3.60536 0.68129,-5.4048c0.28205,0.39171 0.78958,0.70124 1.12636,1.0481c0.58702,0.60456 1.18979,1.19246 1.79305,1.78082c0.33625,0.32793 0.6373,0.69065 0.98237,1.0093c0.34852,0.32183 0.74391,0.58918 1.09575,0.90736c0.32153,0.29075 0.57616,0.65507 0.92263,0.91561c0.42908,0.32267 0.91974,0.55363 1.38658,0.81875c0.67275,0.38205 1.33666,0.78348 2.03956,1.1067c0.73016,0.33576 1.49879,0.58062 2.25681,0.84752c0.94543,0.33289 1.9346,0.52931 2.88315,0.85321c0.4536,0.15489 0.8746,0.3948 1.3272,0.55254c0.9398,0.32754 1.93877,0.45025 2.90365,0.69428c0.91372,0.2311 1.80161,0.6738 2.68758,0.99148c0.33506,0.11904 0.65995,0.27077 1.00515,0.35607c0.73759,0.18224 1.51943,0.16547 2.24532,0.38983c0.70272,0.21719 2.11111,0.8618 2.79536,1.05824c1.22625,0.35205 2.60498,0.49443 3.86581,0.65347c0.02411,0.00304 2.09594,0.25976 2.15173,0.26071c0.33418,0.00563 0.66275,-0.10093 0.99694,-0.09604c0.32623,0.00478 0.64197,0.11416 0.96821,0.11783c0.61653,0.00691 1.21333,-0.19991 1.82944,-0.22377c0.38702,-0.01498 0.76261,0.03983 1.1499,0.03552c1.87776,-0.02083 3.69092,-0.24152 5.5681,-0.26069c0.98992,-0.01012 1.97446,0.06049 2.96413,0.08587c0.47531,0.01154 0.95011,0.06082 1.42496,0.03715c0.51121,-0.02548 1.01427,-0.1304 1.52385,-0.17858c0.85601,-0.08095 1.71369,-0.1344 2.57253,-0.17543c1.01114,-0.04829 2.0307,-0.05405 3.03784,-0.17479c0.3743,-0.04488 0.7403,-0.14637 1.11517,-0.18626c0.50585,-0.05381 1.02002,-0.01771 1.52317,-0.09266c0.49336,-0.0735 0.96105,-0.27768 1.45474,-0.34892c0.50162,-0.07239 1.01907,0.00862 1.51837,-0.0784c0.18628,-0.03247 2.82939,-0.84559 3.02021,-0.92252c1.37789,-0.55548 2.75723,-1.37462 3.99595,-2.19032c0.39817,-0.2622 0.74743,-0.5994 1.16717,-0.8255c0.39862,-0.21473 0.8804,-0.25183 1.26872,-0.48465c0.46409,-0.27823 0.83826,-0.68323 1.25616,-1.02695c0.49876,-0.41021 1.00298,-0.81265 1.51316,-1.2086c2.81728,-2.21617 6.31396,-3.70662 9.09993,-6.05181c-0.04751,0.11131 0.01718,0.16155 0.01243,0.17246c-0.42784,0.98204 -0.60933,1.26084 -0.86928,2.33925c-0.24593,1.02021 -0.22359,2.13221 -0.39996,3.16556c-0.19615,1.14939 -0.44094,2.23159 -0.53734,3.40285c-0.07571,0.91964 -0.06641,1.46169 0.05523,2.35377c0.00725,0.0531 0.02332,0.10605 0.04189,0.15856c-0.06979,0.34954 -0.14376,0.69989 -0.22013,1.04863c-0.24264,0.32647 -0.57136,0.58429 -0.85165,0.89838c-0.99421,1.11406 -1.97565,2.25455 -2.94106,3.39434c-0.54606,0.53686 -1.12083,1.0468 -1.69076,1.55823c-0.97476,0.87473 -1.90389,1.81748 -3.05102,2.47443c-0.42564,0.24375 -0.87343,0.44921 -1.30596,0.68052c-0.19962,0.10675 -0.3784,0.25794 -0.59096,0.33579c-0.67076,0.24571 -1.39193,0.34888 -2.05249,0.62086c-0.45634,0.18789 -0.88584,0.44257 -1.34825,0.61498c-0.92471,0.34479 -1.9004,0.54282 -2.84218,0.83775c-0.00756,0.00236 -2.05967,0.70084 -2.3196,0.74847c-0.45308,0.08303 -0.91794,0.09028 -1.37609,0.13806c-1.27737,0.13324 -2.55752,0.28263 -3.83359,0.42776c-0.51553,0.05863 -1.03864,0.08197 -1.54834,0.17896c-0.50971,0.09698 -1.00466,0.27126 -1.50579,0.40572c-2.00857,0.54206 -4.13422,1.19022 -6.22397,1.29732c-1.47683,0.0757 -2.98772,0.06919 -4.46705,0.09245c-0.74908,0.01179 -1.503,0.11881 -2.25202,0.10291c-0.48194,-0.01021 -0.96275,-0.10579 -1.44267,-0.15104c-1.4722,-0.13875 -2.97609,-0.18795 -4.43662,-0.43366c-1.30057,-0.21882 -2.58378,-0.61462 -3.8863,-0.82174c-1.9814,-0.3151 -4.00309,-0.512 -5.99378,-0.76273c-1.54589,-0.19457 -3.14196,-0.44037 -4.69982,-0.48506c-0.48233,-0.01383 -0.96718,0.04964 -1.44837,0.01376c-0.24059,-0.01793 -0.46689,-0.12543 -0.70274,-0.17619c-0.42485,-0.09142 -0.87179,-0.1039 -1.28018,-0.25249c-0.31205,-0.11354 -0.55444,-0.37034 -0.84864,-0.5243c-0.47908,-0.25072 -1.03476,-0.32628 -1.53014,-0.54306c-0.35136,-0.15377 -0.65547,-0.40556 -1.00616,-0.56087c-0.33641,-0.14898 -0.71341,-0.19639 -1.04742,-0.35068c-0.4407,-0.20356 -0.8143,-0.54578 -1.26711,-0.72072c-0.43383,-0.16762 -0.91316,-0.1825 -1.36368,-0.29808c-0.03786,-0.00973 -2.18418,-0.65269 -2.30893,-0.7049c-0.23836,-0.09978 -0.43757,-0.27729 -0.66694,-0.39634c-1.29262,-0.6709 -2.64485,-1.38023 -4.04954,-1.76669c-0.57598,-0.07255 -1.04385,-0.16187 -1.53372,-0.20799c-0.05774,-0.15165 -0.11552,-0.30393 -0.16658,-0.45772z" fill="#ffffff" stroke="none" stroke-width="0.5" stroke-linecap="butt"/><path d="M396.17953,91.52562c0.99216,0.12499 1.99686,0.25697 2.98988,0.37497c0.22453,0.02668 0.46452,-0.00491 0.67782,0.07007c0.26047,0.09155 0.45487,0.33637 0.71808,0.41969c0.73172,0.23166 1.54069,0.18686 2.2774,0.40216c0.25529,0.07461 0.48045,0.24482 0.73714,0.31453c0.49185,0.13358 1.01147,0.17178 1.50539,0.29747c0.62599,0.1593 1.53798,0.58735 2.15975,0.72753c0.38067,0.08583 0.78694,0.0451 1.16395,0.14581c0.39934,0.10667 0.75048,0.36444 1.14837,0.47627c0.31979,0.08986 0.66012,0.08628 0.9896,0.12851c0.84889,0.3085 1.68304,0.65494 2.53116,0.96603c0.50562,0.18545 1.34316,0.34589 1.65184,0.9224c0.14295,0.26699 0.15624,0.58876 0.20547,0.88759c0.17438,1.05846 -0.07697,2.10658 -0.20926,3.15685c-0.15784,1.25314 -0.33991,2.5174 -0.67679,3.73846c-0.22709,0.82305 -0.81058,1.49591 -1.22081,2.21909c-0.34706,0.61186 -0.5947,1.30143 -1.04826,1.83912c-0.67755,0.80325 -1.51337,1.26261 -2.37189,1.82966c-0.27153,0.15839 -0.51918,0.37524 -0.81636,0.47769c-0.40873,0.14092 -0.85746,0.1396 -1.27607,0.24772c-0.48232,0.12458 -0.94475,0.33532 -1.42807,0.4559c-0.96677,0.2412 -1.96596,0.38908 -2.9359,0.61713c-0.90179,0.21203 -1.80032,0.50048 -2.71285,0.66c-0.46812,0.08183 -0.95328,0.08906 -1.42507,0.14601c-0.47289,0.05708 -0.94606,0.1818 -1.42212,0.19755c-0.40731,0.01347 -0.81621,-0.09577 -1.22347,-0.11061c-0.99447,-0.03626 -2.00279,-0.04718 -2.99791,-0.04748c-0.43002,-0.00014 -0.86385,0.0716 -1.2934,0.05122c-0.47884,-0.02272 -0.95554,-0.12481 -1.43111,-0.18511c-0.96306,-0.12215 -1.93991,-0.20413 -2.89668,-0.36849c-0.59586,-0.10236 -1.72428,-0.51765 -2.17189,-0.66951c-0.33021,-0.11202 -0.67989,-0.18504 -0.99026,-0.34394c-0.24435,-0.12511 -0.42375,-0.35523 -0.65591,-0.50173c-0.26193,-0.1653 -0.54946,-0.29035 -0.82362,-0.43451c-0.71065,-0.5373 -1.43277,-1.00654 -1.96647,-1.73002c-0.18335,-0.24854 -0.45229,-0.45883 -0.5421,-0.75433c-0.10469,-0.34441 -0.02708,-0.72282 -0.01625,-1.08263c0.03421,-1.13634 0.12467,-1.78253 0.26138,-2.91365c0.11921,-0.98632 0.24698,-1.98056 0.37113,-2.96629c0.04983,-0.39565 0.10184,-0.79464 0.14996,-1.19048c0.02625,-0.21588 0.00898,-0.44264 0.074,-0.65016c0.25415,-0.81127 0.75288,-1.53605 1.0501,-2.33257c0.1741,-0.46657 0.25948,-0.96749 0.4292,-1.43564c0.10372,-0.28606 0.26567,-0.55063 0.3919,-0.82749c0.42768,-0.93799 0.50051,-1.26031 1.10207,-2.15798c0.45385,-0.67724 1.046,-1.35246 1.62711,-1.9233c2.64435,-0.30997 6.44509,0.80612 9.11545,1.14247l0.10834,0.01349c0,0 0.52113,0.06452 0.7473,-0.34564c0.12237,0.01556 0.24631,0.03077 0.3687,0.04619z" fill="#ffffff" stroke="none" stroke-width="0.5" stroke-linecap="butt"/><path d="M427.41684,96.89313c0.51761,-0.0303 1.03109,-0.14248 1.54573,-0.20562c0.04174,-0.00513 2.96627,-0.34293 2.99546,-0.34737c0.01779,-0.00272 2.95195,-0.56632 2.98764,-0.57317c0.47054,-0.09041 0.94172,-0.22314 1.41821,-0.27357c0.78756,-0.08335 1.60027,0.04257 2.38664,-0.05143c0.99458,-0.11888 1.97876,-0.39081 2.97476,-0.49708c0.94162,-0.10048 1.90143,-0.08716 2.84254,-0.19224c1.40567,-0.15694 2.78278,-0.29677 4.19916,-0.35525c0.91629,-0.09579 1.83148,-0.24555 2.75189,-0.28538c1.48858,-0.06441 2.99038,-0.0103 4.47945,-0.03868c0.46703,-0.0089 0.93399,-0.04524 1.39951,-0.08379c0.16528,-0.01368 0.38795,-0.1999 0.49255,-0.07121c0.15208,0.18709 0.05434,0.48307 0.03734,0.72358c-0.03291,0.46609 -0.14509,0.92605 -0.18465,1.39163c-0.04324,0.50878 -0.04045,1.0232 -0.06113,1.53339c-0.0312,0.76969 -0.01766,1.54698 -0.09077,2.31383c-0.08501,0.89163 -0.22317,1.78312 -0.3351,2.67177c-0.18459,1.4655 -0.32193,2.9492 -0.64022,4.394c-0.42446,1.92667 -1.02024,3.8534 -1.58999,5.7411c-0.20932,0.69375 -0.38834,1.40242 -0.60874,2.09271c-0.06106,0.1912 -0.10525,0.39943 -0.22591,0.55979c-0.48034,0.63836 -1.25257,1.07914 -1.88489,1.51786c-0.2747,0.19061 -0.51704,0.44435 -0.82472,0.57518c-0.29093,0.12371 -0.63144,0.08237 -0.9337,0.17494c-0.47686,0.14602 -0.91861,0.4055 -1.39819,0.54229c-0.88106,0.2513 -1.80776,0.34786 -2.69072,0.59238c-0.33089,0.09163 -0.65249,0.2291 -0.9882,0.30111c-0.41641,0.08932 -0.85472,0.08165 -1.26782,0.18523c-0.28653,0.07183 -0.53638,0.26287 -0.82144,0.34033c-0.36286,0.0986 -0.75477,0.08312 -1.11608,0.18719c-0.42147,0.12138 -0.79791,0.39588 -1.22671,0.48807c-0.39806,0.08559 -0.81872,0.0108 -1.22486,0.03948c-0.46193,0.03262 -0.92334,0.13831 -1.38636,0.14583c-0.28998,0.00472 -0.57621,-0.11348 -0.86618,-0.10857c-0.47672,0.00811 -0.9512,0.1663 -1.42761,0.14745c-0.46447,-0.01838 -0.91814,-0.17391 -1.37519,-0.25866c-0.49162,-0.09117 -0.98876,-0.18095 -1.48061,-0.27084c-0.28218,-0.05073 -0.5726,-0.07809 -0.84932,-0.15308c-0.71132,-0.19272 -1.21465,-0.49493 -1.90473,-0.77254c-1.16918,-0.47038 -2.48658,-0.79175 -3.58589,-1.41692c-0.36703,-0.20874 -0.68225,-0.51182 -1.05974,-0.70097c-0.22918,-0.11483 -0.51372,-0.09018 -0.74313,-0.20454c-0.3304,-0.16472 -0.60775,-0.42508 -0.91766,-0.62568c-0.42823,-0.27715 -0.86223,-0.55292 -1.30092,-0.8132c-1.22881,-0.72911 -2.5334,-1.30551 -3.54359,-2.35505c-0.73736,-0.76606 -1.08138,-1.16241 -1.45108,-2.17383c-0.1184,-0.32389 -0.12794,-0.6809 -0.21399,-1.01483c-0.23561,-0.91432 -0.43623,-1.0077 -0.35668,-1.97732c0.02057,-0.25081 0.13413,-0.48686 0.20126,-0.72938c-0.04962,-5.10237 4.58341,-8.49876 8.93115,-10.15159c0.31054,0.0113 0.62299,0.06091 0.9332,0.04274z" fill="#ffffff" stroke="none" stroke-width="0.5" stroke-linecap="butt"/><path d="M407.64681,104.69699c0.20706,-1.64385 1.70752,-2.80863 3.35137,-2.60159c1.64385,0.20705 2.80863,1.70752 2.60159,3.35138c-0.20706,1.64385 -1.70752,2.80863 -3.35137,2.60159c-1.64385,-0.20705 -2.80863,-1.70752 -2.60158,-3.35137z" fill="#000000" stroke="none" stroke-width="0.5" stroke-linecap="butt"/><path d="M450.88359,108.01681c0.20706,-1.64385 1.70752,-2.80863 3.35137,-2.60158c1.64385,0.20705 2.80863,1.70752 2.60159,3.35138c-0.20706,1.64385 -1.70752,2.80863 -3.35137,2.60159c-1.64385,-0.20705 -2.80863,-1.70752 -2.60158,-3.35138z" fill="#000000" stroke="none" stroke-width="0.5" stroke-linecap="butt"/><path d="M414.09516,102.66274c-0.19592,-0.07689 -0.4161,-0.09941 -0.59588,-0.20885c-0.23886,-0.14539 -0.41185,-0.38058 -0.6394,-0.54308c-0.51263,-0.36606 -1.13547,-0.5465 -1.69239,-0.84083c-0.28574,-0.15101 -0.52003,-0.38837 -0.80605,-0.53886c-0.25844,-0.13598 -0.5534,-0.19046 -0.8174,-0.31533c-0.29537,-0.13971 -0.55567,-0.34931 -0.85667,-0.47646c-1.61277,-0.68125 -3.39984,-0.58622 -5.08996,-0.90657c-0.3453,-0.06544 -0.69004,-0.14069 -1.02488,-0.24743c-0.24273,-0.07738 -0.45696,-0.23208 -0.70165,-0.30298c-0.41519,-0.12028 -0.85819,-0.1047 -1.28678,-0.16097c-0.27868,-0.10817 -0.54858,-0.2425 -0.83603,-0.32453c-0.17431,-0.04973 -0.36521,-0.01822 -0.53951,-0.06794c-0.28746,-0.08203 -0.54719,-0.24751 -0.83604,-0.32454c-0.22553,-0.06013 -0.46353,-0.05521 -0.69517,-0.08378c-0.66461,-0.08198 -1.35018,-0.21972 -2.0192,-0.2553c-0.29186,-0.01552 -0.5852,0.01881 -0.8768,-0.00082c-0.88144,-0.05933 -1.76149,-0.21126 -2.65157,-0.1247c-0.33991,0.03306 -0.66954,0.15566 -1.01087,0.16684c-0.35195,0.01153 -0.70065,-0.07197 -1.05174,-0.09931c-0.61802,-0.04809 -1.23895,-0.05574 -1.85627,-0.11203c-0.49593,-0.04523 -0.98414,-0.17766 -1.48201,-0.18844c-0.32902,-0.00712 -0.65666,0.05508 -0.98576,0.05482c-0.7162,-0.00057 -1.44975,-0.0325 -2.15957,-0.12497c-0.39538,0.06365 -0.7899,0.13318 -1.18306,0.20934c-0.02013,0.06212 -0.04142,0.12385 -0.06425,0.18506c-0.29721,0.79651 -0.79381,1.51395 -1.04796,2.32522c-0.06502,0.20753 -0.04739,0.43237 -0.07364,0.64826c-0.04813,0.39584 -0.09967,0.79127 -0.1495,1.18692c-0.12415,0.98574 -0.25186,1.97118 -0.37107,2.9575c-0.13671,1.1311 -0.22848,1.76929 -0.26268,2.90563c-0.01083,0.35981 -0.08922,0.73539 0.01547,1.0798c0.08981,0.2955 0.35796,0.50345 0.54131,0.75199c0.53368,0.72347 1.25299,1.1864 1.96366,1.72371c0.27414,0.14414 0.56051,0.26713 0.82244,0.43243c0.23215,0.1465 0.41028,0.37458 0.65463,0.49969c0.31036,0.15892 0.65848,0.2297 0.9887,0.34171c0.44761,0.15186 1.5718,0.56218 2.16766,0.66453c0.95677,0.16436 1.92663,0.24037 2.88969,0.36251c0.47557,0.06033 0.9477,0.15953 1.42655,0.18227c0.42955,0.02038 0.85895,-0.05352 1.28898,-0.0534c0.99512,0.00029 1.99059,0.00759 2.98506,0.04384c0.40726,0.01485 0.81031,0.12361 1.21761,0.11012c0.47605,-0.01576 0.94238,-0.14017 1.41525,-0.19724c0.4718,-0.05695 0.95018,-0.06294 1.4183,-0.14477c0.91255,-0.1595 1.79903,-0.44315 2.70081,-0.65517c0.96996,-0.22804 1.95951,-0.3689 2.92629,-0.6101c0.48332,-0.12059 0.94208,-0.32751 1.42438,-0.45208c0.41861,-0.10812 0.86497,-0.10388 1.27371,-0.24479c0.29719,-0.10246 0.54306,-0.31677 0.81459,-0.47516c0.85854,-0.56706 1.69002,-1.0182 2.36757,-1.82145c0.45357,-0.53769 0.69906,-1.22092 1.04613,-1.83277c0.41021,-0.72319 0.99236,-1.38869 1.21944,-2.21175c0.16048,-0.58167 0.28584,-1.17064 0.39019,-1.76341c-0.09763,-0.04224 -0.19564,-0.08355 -0.29464,-0.1224zM389.28859,89.40852c0.20499,-0.07851 0.40372,-0.05348 0.40372,-0.05348c0.45211,0.05742 0.90141,0.14461 1.35631,0.17229c0.50324,0.03062 1.00995,-0.03823 1.51247,0.00231c0.33452,0.02699 1.7879,0.29588 2.33651,0.37152c0.98651,0.13602 1.97607,0.2488 2.96409,0.37324c0.49608,0.06248 0.99255,0.12189 1.48825,0.18744c0.32382,0.04282 0.66004,0.03518 0.97019,0.13764c0.26216,0.0866 0.45207,0.33324 0.71454,0.41884c0.27231,0.08881 0.57205,0.04383 0.85426,0.09281c0.46433,0.08058 0.92964,0.16532 1.38261,0.29541c0.25168,0.07229 0.46946,0.24061 0.7222,0.3091c0.47326,0.12825 0.96941,0.15668 1.44448,0.27804c0.71672,0.18309 1.38069,0.54882 2.10282,0.70931c0.39761,0.08836 0.81844,0.05072 1.212,0.15567c0.39937,0.1065 0.74829,0.3612 1.14616,0.4732c0.30838,0.0868 0.63587,0.07864 0.95381,0.11797c0.90814,0.32147 1.80437,0.66958 2.70384,1.01395c1.03717,0.39709 1.80886,0.53017 2.42118,1.56737c0.24311,0.41182 0.29523,0.91219 0.3867,1.38159c0.23531,1.20749 -0.04918,2.39825 -0.20003,3.59593c-0.16846,1.33745 -0.3616,2.68725 -0.73332,3.98723c-0.26764,0.936 -0.87928,1.68055 -1.34796,2.50712c-0.3903,0.68831 -0.68556,1.44611 -1.19678,2.05006c-0.79908,0.94402 -1.72864,1.47595 -2.73514,2.13963c-0.35832,0.20074 -0.68824,0.46384 -1.07493,0.60222c-0.45644,0.16334 -0.95563,0.16972 -1.42467,0.29224c-0.48557,0.12685 -0.94826,0.33353 -1.43525,0.45484c-0.97328,0.24245 -1.96923,0.38504 -2.94557,0.61477c-0.93029,0.21889 -1.84566,0.50797 -2.78704,0.67281c-0.49432,0.08655 -0.99907,0.09702 -1.49738,0.15637c-0.52001,0.06194 -1.03393,0.18983 -1.55734,0.20743c-0.43919,0.01478 -0.87448,-0.09524 -1.31364,-0.11088c-0.97389,-0.03467 -1.94871,-0.04194 -2.9232,-0.04265c-0.45202,-0.00034 -0.90354,0.07389 -1.35503,0.05203c-0.52001,-0.02518 -1.03334,-0.12802 -1.54994,-0.19263c-0.0424,-0.0053 -2.94318,-0.37025 -2.98181,-0.37703c-0.68681,-0.12046 -1.79959,-0.51987 -2.37675,-0.72008c-0.40515,-0.14055 -0.82707,-0.24439 -1.20954,-0.43831c-0.27653,-0.1402 -0.48476,-0.38886 -0.74728,-0.5538c-0.26225,-0.16477 -0.5483,-0.28829 -0.82245,-0.43242c-0.86422,-0.64605 -1.74974,-1.21366 -2.37632,-2.11134c-0.2645,-0.37892 -0.61565,-0.72314 -0.75187,-1.16471c-0.15395,-0.49907 -0.09118,-1.04196 -0.08996,-1.56422c0.00218,-0.9405 0.1609,-2.13556 0.2734,-3.06824c0.1193,-0.98887 0.24753,-1.97682 0.37201,-2.96505c0.08607,-0.68344 0.06447,-1.39065 0.26613,-2.0493c0.08513,-0.27802 1.01831,-2.26109 1.08784,-2.448c0.17503,-0.47052 0.25972,-0.97123 0.43171,-1.44286c0.11507,-0.31549 0.28816,-0.60672 0.42723,-0.9124c0.47972,-1.0543 0.53588,-1.3419 1.22629,-2.3783c0.19822,-0.29753 0.45494,-0.55173 0.67583,-0.83285c0.19214,-0.24453 0.34686,-0.52035 0.56306,-0.7439c0.29887,-0.30905 0.64935,-0.56366 0.97402,-0.84548c1.21981,-0.2045 2.62287,-0.12835 4.05956,0.05758z" fill="#000000" stroke="none" stroke-width="0.5" stroke-linecap="butt"/><path d="M449.84518,102.20119c-1.20385,0.03228 -2.39765,-0.08665 -3.60162,-0.1519c-0.33878,-0.01836 -0.67823,-0.02697 -1.01632,-0.05524c-0.19964,-0.01669 -0.39547,-0.08499 -0.59573,-0.07959c-0.51848,0.01398 -1.01959,0.20963 -1.53736,0.24019c-0.59601,0.03518 -1.19148,-0.08036 -1.78788,-0.10853c-0.36577,-0.01729 -1.10524,0.15517 -1.37581,0.18322c-0.3554,0.03684 -0.71311,0.06234 -1.07037,0.05716c-0.2058,-0.00298 -0.40637,-0.08955 -0.61204,-0.08154c-0.2119,0.00825 -0.41274,0.1007 -0.62284,0.1296c-0.91539,0.12591 -1.8451,0.1567 -2.75864,0.30447c-0.50421,0.08155 -0.98311,0.28854 -1.48802,0.36568c-0.30494,0.0466 -0.61614,0.032 -0.92422,0.04799c-1.24442,0.06018 -2.43304,0.30191 -3.65035,0.56462c-0.30858,0.0666 -0.62414,0.10602 -0.92601,0.19836c-0.52407,0.16031 -0.98373,0.48733 -1.49632,0.68125c-0.56381,0.21331 -1.15709,0.3388 -1.73856,0.49778c-0.04503,0.01232 -1.96022,0.51253 -1.98278,0.51638c-0.06232,0.01064 -1.92534,0.15773 -2.02179,0.16824c-0.93667,0.10206 -1.85415,0.33483 -2.78457,0.45356c-0.07207,0.0092 -0.14428,0.01699 -0.21659,0.02368c-0.02578,0.27543 -0.03769,0.55634 -0.03492,0.84272c-0.06713,0.24253 -0.18081,0.47679 -0.20139,0.72759c-0.07956,0.96964 0.12037,1.05801 0.35598,1.97235c0.08605,0.33394 0.09505,0.68839 0.21343,1.01229c0.36971,1.01141 0.71179,1.40161 1.44914,2.16768c1.0102,1.04954 2.31007,1.61683 3.53889,2.34593c0.43868,0.26029 0.87024,0.53261 1.29847,0.80976c0.30993,0.20058 0.58518,0.45847 0.91558,0.62318c0.2294,0.11436 0.51255,0.08821 0.74172,0.20303c0.37748,0.18915 0.68982,0.48949 1.05684,0.69822c1.09931,0.62519 2.40641,0.93954 3.57559,1.40993c0.69005,0.27764 1.18698,0.57707 1.89828,0.7698c0.27672,0.07497 0.56434,0.10146 0.84651,0.1522c0.49185,0.08992 0.98394,0.17854 1.47556,0.26972c0.45704,0.08476 0.90595,0.23971 1.37042,0.25809c0.47639,0.01885 0.94599,-0.13946 1.42269,-0.14756c0.28996,-0.00491 0.57324,0.11343 0.86322,0.10872c0.46301,-0.00752 0.91969,-0.11258 1.38162,-0.14521c0.40614,-0.02868 0.82281,0.047 1.22086,-0.03858c0.42879,-0.09218 0.80098,-0.36535 1.22245,-0.48673c0.36133,-0.10407 0.7498,-0.08718 1.11266,-0.18578c0.28507,-0.07746 0.53225,-0.2672 0.81877,-0.33902c0.4131,-0.10357 0.84803,-0.09396 1.26443,-0.18328c0.33572,-0.07201 0.65469,-0.20772 0.98558,-0.29935c0.88297,-0.24451 1.80399,-0.33628 2.68506,-0.58759c0.4796,-0.1368 0.91866,-0.39344 1.39553,-0.53946c0.30226,-0.09256 0.64147,-0.04968 0.9324,-0.17338c0.30768,-0.13083 0.54846,-0.38252 0.82314,-0.57313c0.63232,-0.43873 1.40132,-0.87442 1.88166,-1.51278c0.12067,-0.16038 0.16414,-0.36724 0.22519,-0.55844c0.22041,-0.6903 0.39713,-1.39383 0.60645,-2.08757c0.56975,-1.8877 1.16235,-3.79932 1.58682,-5.72598c0.30583,-1.38817 0.44517,-2.80215 0.61935,-4.21072c-2.42462,-0.30267 -4.87681,-0.32022 -7.34012,-0.532zM415.74018,105.76744c-0.03602,-0.4987 0.46269,-0.53472 0.46269,-0.53472c0.00557,-0.0004 0.01113,-0.0008 0.01668,-0.00119c0.63002,-3.9308 3.92444,-6.88335 7.47548,-8.72276c-0.08804,-0.13895 -0.13356,-0.32933 -0.0634,-0.58567c0.19802,-0.72338 0.92141,-0.52537 0.92141,-0.52537c0.19386,0.05913 0.3789,0.17861 0.58157,0.17737c0.34981,-0.00212 0.68356,-0.16439 1.03264,-0.18712c0.02677,-0.00174 0.05354,-0.00298 0.08033,-0.00376c0.09581,-0.03524 0.19139,-0.06964 0.2867,-0.10319l0.45058,-0.02305c0,0 0.2178,0.02742 0.4029,0.17044c0.47823,-0.02823 0.94896,-0.13331 1.42441,-0.19229c0.98012,-0.1216 1.96758,-0.18603 2.94392,-0.33501c0.97924,-0.14941 1.94563,-0.37344 2.91872,-0.55866c0.51166,-0.09739 1.01727,-0.23608 1.53523,-0.2909c0.79038,-0.08364 1.59483,0.0435 2.3838,-0.05267c0.9909,-0.12078 1.96027,-0.39275 2.95282,-0.49925c0.93863,-0.10072 1.88716,-0.09054 2.82529,-0.19574c1.4244,-0.15975 2.81547,-0.30831 4.25058,-0.3672c0.92849,-0.09753 1.85296,-0.24989 2.78566,-0.29108c1.50268,-0.06638 3.01537,-0.01767 4.51859,-0.04529c0.54264,-0.00996 2.42838,-0.29261 2.92771,0.2317c0.88533,0.92965 0.42184,2.31828 0.33842,3.34727c-0.03954,0.48778 -0.03886,0.97798 -0.05847,1.46696c-0.03171,0.79094 -0.02171,1.58472 -0.09633,2.37277c-0.00261,0.02762 -0.31691,2.5215 -0.34308,2.72926c-0.19038,1.51146 -0.33643,3.02781 -0.66415,4.51806c-0.43191,1.96404 -1.03521,3.91262 -1.6157,5.83687c-0.21623,0.71655 -0.38355,1.4484 -0.62875,2.15557c-0.10719,0.30913 -0.20321,0.63399 -0.39668,0.89784c-0.62926,0.85811 -1.4141,1.32364 -2.27629,1.90963c-0.36097,0.24534 -0.69327,0.54611 -1.09355,0.72005c-0.34095,0.14816 -0.73622,0.11962 -1.09139,0.2294c-0.47893,0.14803 -0.92075,0.40452 -1.40292,0.54159c-0.49511,0.14074 -1.01416,0.17838 -1.51698,0.28851c-0.75736,0.16588 -1.48356,0.45789 -2.2416,0.62061c-0.39185,0.08412 -0.80219,0.06772 -1.19097,0.16513c-0.28047,0.07028 -0.52155,0.25811 -0.80057,0.33392c-0.36762,0.09989 -0.76071,0.08498 -1.12695,0.18981c-0.45173,0.12933 -0.85468,0.41237 -1.31448,0.5091c-0.46474,0.09777 -0.94952,0.03196 -1.42315,0.06683c-0.50288,0.03704 -1.00121,0.14032 -1.50539,0.14884c-0.28997,0.00491 -0.57323,-0.11343 -0.86322,-0.10872c-0.49046,0.00796 -0.97425,0.16819 -1.46431,0.1465c-0.0718,-0.00317 -2.92385,-0.52687 -3.05624,-0.55107c-0.32196,-0.0597 -0.65001,-0.09273 -0.96587,-0.17909c-0.90681,-0.24795 -1.19227,-0.47388 -2.0661,-0.82567c-1.22573,-0.49347 -2.57823,-0.83058 -3.73294,-1.48367c-0.33807,-0.19122 -0.61807,-0.47857 -0.96529,-0.65262c-0.22916,-0.11487 -0.51277,-0.08775 -0.74172,-0.20303c-0.83179,-0.41885 -1.5525,-1.03054 -2.3535,-1.50562c-1.33727,-0.79314 -2.74439,-1.42864 -3.83775,-2.57756c-0.93988,-0.98763 -1.31036,-1.43208 -1.8034,-2.73092c-0.13738,-0.36194 -0.15374,-0.75921 -0.25049,-1.13407c-0.09416,-0.36481 -0.26318,-0.71133 -0.32186,-1.08348c-0.07399,-0.46928 -0.10195,-0.94912 -0.07337,-1.42335c0.0157,-0.26057 0.13645,-0.50391 0.20469,-0.75586c-0.00492,-0.20077 -0.00297,-0.39933 0.00556,-0.59565c-0.14964,-0.0322 -0.3568,-0.13392 -0.37955,-0.44877z" fill="#000000" stroke="none" stroke-width="0.5" stroke-linecap="butt"/><path d="M371.28134,75.48785c0.09373,-0.74411 0.83785,-0.6504 0.83785,-0.6504l0.64741,0.08155c3.31255,0.42292 5.97346,1.65939 8.75014,3.23827c2.46713,1.40287 7.12945,1.62465 9.94673,2.3025c2.19774,0.64835 4.38837,1.33006 6.59499,1.94739c0.49374,0.13814 0.99962,0.23412 1.48686,0.39369c1.3324,0.43634 2.59812,1.10804 3.91073,1.60076c0.1504,0.05647 2.78899,0.94596 2.88549,0.98974c0.73493,0.33339 1.40323,0.80026 2.13099,1.14904c0.82153,0.3937 1.6377,0.79947 2.44016,1.23068c0.45952,0.24693 0.94673,0.44839 1.37795,0.74196c0.49944,0.34001 1.03852,0.66665 1.40109,1.14996c0.23547,0.31386 0.20861,0.75649 0.31292,1.13474c0,0 0.17352,0.72966 -0.55613,0.90318c-0.72966,0.17352 -0.90317,-0.55612 -0.90317,-0.55612c-0.03901,-0.22441 0.0232,-0.49376 -0.11705,-0.67325c-0.24394,-0.31216 -0.6216,-0.49423 -0.95835,-0.70291c-1.14812,-0.7115 -2.43025,-1.29261 -3.64589,-1.87563c-0.71846,-0.34457 -1.37806,-0.8058 -2.1032,-1.13607c-0.89474,-0.40751 -1.87152,-0.60547 -2.79197,-0.95099c-1.2951,-0.48614 -2.54531,-1.1536 -3.86018,-1.58281c-0.46326,-0.15121 -0.9446,-0.2403 -1.41398,-0.37131c-2.20162,-0.61453 -4.38713,-1.29505 -6.57914,-1.94307c-3.02453,-0.72665 -7.58128,-0.97727 -10.28288,-2.43779c-2.64723,-1.43115 -5.06041,-2.67261 -8.21357,-3.06372l-0.6474,-0.08155c0,0 -0.74412,-0.09373 -0.6504,-0.83786z" fill="#000000" stroke="none" stroke-width="0.5" stroke-linecap="butt"/><path d="M470.22979,68.88551l0.48231,0.81108c-8.80851,3.87776 -18.73989,5.75784 -26.89556,10.97897c-2.83508,1.81497 -5.66847,3.63227 -8.49642,5.45835c-1.64532,1.06243 -3.29881,2.10008 -4.97494,3.11319c-0.44171,0.26698 -0.86763,0.56211 -1.32551,0.80029c-0.45788,0.23818 -0.94403,0.41751 -1.41623,0.62589c-1.26934,0.56019 -2.54981,1.14765 -3.84997,1.63371c-0.75599,0.28262 -1.543,0.47409 -2.31461,0.71072c0,0 -0.71704,0.21988 -0.93693,-0.49715c-0.21988,-0.71704 0.49715,-0.93692 0.49715,-0.93692c0.74862,-0.22958 1.51287,-0.41313 2.24612,-0.68789c1.26773,-0.47503 2.51481,-1.04997 3.7533,-1.59504c0.44288,-0.19492 0.8997,-0.36073 1.32896,-0.58402c0.42928,-0.22329 0.82729,-0.50215 1.24114,-0.75289c1.6626,-1.0073 3.30472,-2.03542 4.93783,-3.08998c2.82959,-1.82713 5.66464,-3.64552 8.50136,-5.46154c8.12128,-5.19911 17.94362,-7.11543 26.73703,-10.92976c0.10104,-0.06892 0.18646,-0.09898 0.18646,-0.09898l0.00836,0.01408c0.05588,-0.02447 0.1117,-0.049 0.1675,-0.07362z" fill="#000000" stroke="none" stroke-width="0.5" stroke-linecap="butt"/></g></g></g></svg>