<svg version="1.1" xmlns="http://www.w3.org/2000/svg" xmlns:xlink="http://www.w3.org/1999/xlink" width="2878.25006" height="1619.57958" viewBox="0,0,2878.25006,1619.57958"><g transform="translate(1119.12503,629.78979)"><g stroke-miterlimit="10"><path d="M-1119.12503,989.78979v-1619.57958h2878.25006v1619.57958z" fill="none" stroke="#000000" stroke-width="0" stroke-linecap="butt"/><g stroke-width="0"><path d="M180.81728,337.52298l34.28391,-35.94698l93.59733,3.68829l-20.4987,36.87351z" fill="#cedce9" stroke="#000000" stroke-linecap="round"/><path d="M171.95636,335.18008c-3.22129,-0.66658 -10.89663,-1.81968 -7.50745,-2.5251c-1.84892,0.19327 -4.31493,0.42025 -5.62525,0.45352c-6.2074,0.15758 -14.23147,-0.6116 -20.6276,-0.88648c-17.54737,-0.75411 -34.57842,-1.71129 -51.5866,-1.37443c-7.68646,0.15224 -9.76525,-1.4273 -12.16636,0.55458c-4.93588,3.28638 -14.14952,6.01231 -20.10017,9.27852c-8.06507,4.42673 -11.25078,8.89804 -16.23413,13.47011c-5.60812,3.70055 -1.26705,11.45488 -1.35949,15.83805c-0.02474,1.17329 1.48112,3.3284 -0.01739,4.12841c1.47064,0.10688 2.89111,0.20777 3.79633,0.24668c6.0164,0.25856 12.03272,0.51711 18.04915,0.77567c23.93223,1.02851 51.74198,2.05264 75.01084,1.15509c27.62292,-0.83718 57.45351,3.34767 85.29391,2.72723c15.24434,-0.25613 31.82923,0.99831 47.33086,1.67093c7.86397,0.34122 14.61887,-0.34448 18.03136,1.61745c0.89693,0.51569 0.02367,-1.12236 0.03551,-1.68353c0.02958,-1.40291 0.05917,-2.80593 0.08875,-4.20884c0.16569,-7.85652 0.33138,-15.713 0.49707,-23.5695c0.03918,-1.85733 -1.31201,-8.56628 1.78836,-9.15274c-0.57846,-0.03616 -1.23307,-0.08263 -1.59307,-0.10672c-3.18898,-0.21312 -4.9728,-0.2323 -7.45053,-0.91933c-4.3015,-1.19272 -18.90126,-1.05569 -24.76226,-1.30756c-22.77626,-0.97881 -45.55247,-1.95764 -68.32874,-2.93648c0,0 -5.15688,-0.22161 -5.12137,-1.90513c0.00146,-0.06912 0.01149,-0.13499 0.02953,-0.19781c-2.46167,-0.27655 -4.94686,-0.62013 -7.47115,-1.14245zM252.91923,337.99495c13.74891,0.59087 31.33803,0.54679 40.65537,4.36374c5.3392,2.18723 1.66019,8.30623 1.6048,10.93295c-0.16569,7.85652 -0.33137,15.71298 -0.49707,23.5695c-0.01892,0.89715 1.66342,5.42385 -0.12427,5.89239c-18.0567,4.73225 -51.78133,-1.01241 -73.72282,-0.34296c-27.22341,0.60671 -58.46003,-4.12128 -84.81441,-2.7418c-23.98233,0.9251 -52.82947,-0.10116 -77.51444,-1.16202c-3.54078,-0.15218 -24.79357,-0.1893 -27.07361,-1.16352c-6.53834,-2.79372 -5.05977,-4.82626 -4.99709,-7.79755c0.11333,-5.3744 -2.66982,-11.90613 1.91125,-16.88009c5.10765,-4.68607 8.72076,-9.45087 16.80312,-13.88708c3.26033,-1.78949 6.79239,-4.21882 10.98993,-5.78121c2.74665,-1.02233 7.97165,-1.72433 8.65326,-3.1775c4.49402,-3.70942 12.4399,-2.08924 21.88761,-2.33913c16.81811,-0.44485 34.18941,0.62675 51.58661,1.37441c6.41598,0.27572 18.97231,-0.14947 23.49217,0.34497c7.86799,0.86076 12.38944,3.25064 20.01212,4.23015c5.59341,0.71876 11.50441,0.6896 18.02251,2.03833c0.49483,0.10244 0.98956,0.20479 1.48444,0.30719c17.21354,0.73977 34.42717,1.47954 51.64074,2.2193z" fill="#000000" stroke="none" stroke-linecap="butt"/><path d="M179.50092,336.24483c-0.01804,0.06281 -0.02747,0.12876 -0.02893,0.19788c-0.0355,1.68352 5.14663,1.90911 5.14663,1.90911c22.77621,0.97883 45.67312,1.99633 68.44947,2.97517c5.86097,0.25187 20.47384,0.12327 24.77533,1.31595c2.47768,0.68703 4.26551,0.70923 7.45436,0.9223c0.35995,0.02407 1.01509,0.071 1.59366,0.10719c-3.10038,0.58646 -1.73387,7.31219 -1.77305,9.16952c-0.16569,7.85651 -0.34312,15.7593 -0.50881,23.6158c-0.02959,1.40295 -0.06813,2.81236 -0.09771,4.21527c-0.01183,0.56117 0.85749,2.20158 -0.03945,1.68591c-3.41247,-1.96192 -10.17358,-1.27289 -18.03749,-1.61409c-15.50164,-0.67262 -32.13389,-1.90987 -47.37817,-1.65371c-27.84043,0.62045 -57.94455,-3.55982 -85.56749,-2.72264c-23.26885,0.89756 -51.19086,-0.16075 -75.12326,-1.18926c-6.01641,-0.25855 -12.04317,-0.52286 -18.05956,-0.78142c-0.9053,-0.0389 -2.32768,-0.14093 -3.79825,-0.2478c1.49853,-0.80004 -0.01682,-2.96148 0.00792,-4.13479c0.09244,-4.38317 -4.27228,-12.16767 1.33596,-15.86825c4.98341,-4.57209 8.18035,-9.0749 16.24542,-13.50162c5.95074,-3.26623 15.20351,-6.01556 20.13943,-9.30191c2.40107,-1.98188 4.49603,-0.40806 12.18246,-0.56028c17.00813,-0.33682 34.15033,0.60151 51.69757,1.35563c6.39603,0.27487 14.49209,1.04292 20.69949,0.88536c1.3102,-0.03328 3.79673,-0.25937 5.64564,-0.45263c-3.38928,0.70538 4.31656,1.86084 7.53792,2.52738c2.52437,0.52232 5.03955,0.86944 7.50116,1.14598z" fill="#d2d2d2" stroke="none" stroke-linecap="butt"/><path d="M107.07743,339.31011c-0.012,0.56897 1.75122,1.33495 0.85564,1.74739c2.26481,0.17354 4.5411,0.43785 6.55929,0.85548c7.78152,1.61018 23.56795,6.9373 25.00099,10.0722c0.11652,0.25499 -2.0924,0.20182 -1.72315,0.43937c1.22873,0.79045 11.39569,-0.05451 12.55769,0.20488c0.26293,0.05869 0.39101,0.13803 0.44106,0.23009c-0.04841,-0.28127 -0.09241,-0.55303 -0.08883,-0.7227c0.01257,-0.59635 0.0983,-1.23589 -0.70736,-1.8044c-6.84479,-4.99978 -18.09577,-9.95662 -37.7384,-10.80077c0,0 -2.31799,-0.09963 -3.8352,-0.67262c-0.50751,-0.11637 -0.90139,-0.24456 -1.16427,-0.38629c-0.07505,0.31823 -0.1534,0.64209 -0.15751,0.83732zM150.64465,353.82033c0.34468,0.3598 0.25295,-0.21677 0.14862,-0.82031c-0.02996,0.25868 -0.38423,0.57443 -0.14862,0.82031zM159.22925,349.22306c6.32399,4.46228 -8.36464,9.95375 -21.53017,6.56855c-12.42176,-3.19401 -16.53437,-8.71708 -27.8827,-11.06527c-3.83382,-0.79332 -8.43639,-1.33425 -11.28824,-2.50252c-4.51929,-1.85141 -2.38123,-7.41825 6.32796,-7.04398c6.27123,0.26951 9.34605,1.06627 15.18445,1.31719l2.57844,0.11082c0,0 2.95992,0.12724 4.37938,0.92094c15.24125,2.28436 24.95631,6.84152 32.23092,11.69423z" fill="#000000" stroke="none" stroke-linecap="butt"/><path d="M107.04475,338.40814c0.26274,0.14174 0.6568,0.26986 1.16437,0.38626c1.51717,0.57302 3.84577,0.66946 3.84577,0.66946c19.6426,0.84415 31.30105,5.91741 38.14579,10.91719c0.80565,0.56848 0.69718,1.2188 0.68461,1.81512c-0.00359,0.16967 0.03084,0.44491 0.07925,0.72618c-0.04994,-0.09209 -0.1768,-0.17179 -0.43987,-0.23054c-1.16198,-0.25939 -11.41729,0.60396 -12.64602,-0.18648c-0.3693,-0.23757 1.59784,-0.34275 1.48121,-0.59779c-1.43298,-3.13491 -17.29655,-8.44176 -25.07817,-10.05192c-2.01827,-0.41763 -4.30777,-0.67564 -6.5726,-0.8492c0.89559,-0.41246 -0.84627,-1.1879 -0.83428,-1.75685c0.00411,-0.19523 0.09445,-0.52325 0.16965,-0.84147z" fill="#ffffff" stroke="none" stroke-linecap="butt"/></g><g stroke-width="0"><path d="M349.77112,343.32827l-20.4987,-36.87351l93.59733,-3.68829l34.28391,35.94698z" fill="#cedce9" stroke="#000000" stroke-linecap="round"/><path d="M466.01447,336.37069c-2.52429,0.52232 -5.00948,0.8659 -7.47115,1.14245c0.01804,0.06282 0.02807,0.12869 0.02953,0.19781c0.03551,1.68352 -5.12137,1.90513 -5.12137,1.90513c-22.77627,0.97884 -45.55248,1.95767 -68.32874,2.93648c-5.861,0.25187 -20.46076,0.11484 -24.76226,1.30756c-2.47773,0.68703 -4.26155,0.70621 -7.45053,0.91933c-0.36,0.02409 -1.01461,0.07056 -1.59307,0.10672c3.10037,0.58646 1.74918,7.29541 1.78836,9.15274c0.16569,7.8565 0.33138,15.71298 0.49707,23.5695c0.02958,1.40291 0.05917,2.80593 0.08875,4.20884c0.01184,0.56117 -0.86142,2.19922 0.03551,1.68353c3.41249,-1.96193 10.16739,-1.27623 18.03136,-1.61745c15.50163,-0.67262 32.08652,-1.92706 47.33086,-1.67093c27.8404,0.62044 57.67099,-3.56441 85.29391,-2.72723c23.26886,0.89755 51.07861,-0.12658 75.01084,-1.15509c6.01643,-0.25856 12.03275,-0.51711 18.04915,-0.77567c0.90522,-0.03891 2.32569,-0.1398 3.79633,-0.24668c-1.49851,-0.80001 0.00735,-2.95512 -0.01739,-4.12841c-0.09244,-4.38317 4.24863,-12.1375 -1.35949,-15.83805c-4.98335,-4.57207 -8.16906,-9.04338 -16.23413,-13.47011c-5.95065,-3.26621 -15.16429,-5.99214 -20.10017,-9.27852c-2.40111,-1.98188 -4.4799,-0.40234 -12.16636,-0.55458c-17.00818,-0.33686 -34.03923,0.62032 -51.5866,1.37443c-6.39613,0.27488 -14.4202,1.04406 -20.6276,0.88648c-1.31032,-0.03327 -3.77633,-0.26025 -5.62525,-0.45352c3.38918,0.70542 -4.28616,1.85852 -7.50745,2.5251zM385.05149,339.1855c17.21357,-0.73976 34.4272,-1.47953 51.64074,-2.2193c0.49488,-0.1024 0.98961,-0.20475 1.48444,-0.30719c6.5181,-1.34873 12.4291,-1.31957 18.02251,-2.03833c7.62268,-0.97951 12.14413,-3.36939 20.01212,-4.23015c4.51986,-0.49444 17.07619,-0.06925 23.49217,-0.34497c17.3972,-0.74766 34.7685,-1.81926 51.58661,-1.37441c9.44771,0.24989 17.39359,-1.37029 21.88761,2.33913c0.68161,1.45317 5.90661,2.15517 8.65326,3.1775c4.19754,1.56239 7.7296,3.99172 10.98993,5.78121c8.08236,4.43621 11.69547,9.20101 16.80312,13.88708c4.58107,4.97396 1.79792,11.50569 1.91125,16.88009c0.06268,2.97129 1.54125,5.00383 -4.99709,7.79755c-2.28004,0.97422 -23.53283,1.01134 -27.07361,1.16352c-24.68497,1.06086 -53.53211,2.08712 -77.51444,1.16202c-26.35438,-1.37948 -57.591,3.34851 -84.81441,2.7418c-21.94149,-0.66945 -55.66612,5.07521 -73.72282,0.34296c-1.78769,-0.46854 -0.10535,-4.99524 -0.12427,-5.89239c-0.1657,-7.85652 -0.33138,-15.71298 -0.49707,-23.5695c-0.05539,-2.62672 -3.7344,-8.74572 1.6048,-10.93295c9.31734,-3.81695 26.90646,-3.77287 40.65537,-4.36374z" fill="#000000" stroke="none" stroke-linecap="butt"/><path d="M458.46977,337.43535c2.46161,-0.27654 4.97679,-0.62366 7.50116,-1.14598c3.22136,-0.66654 10.9272,-1.822 7.53792,-2.52738c1.84891,0.19326 4.33544,0.41935 5.64564,0.45263c6.2074,0.15756 14.30346,-0.61049 20.69949,-0.88536c17.54724,-0.75412 34.68944,-1.69245 51.69757,-1.35563c7.68643,0.15222 9.78139,-1.4216 12.18246,0.56028c4.93592,3.28635 14.18869,6.03568 20.13943,9.30191c8.06507,4.42672 11.26201,8.92953 16.24542,13.50162c5.60824,3.70058 1.24352,11.48508 1.33596,15.86825c0.02474,1.17331 -1.49061,3.33475 0.00792,4.13479c-1.47057,0.10687 -2.89295,0.2089 -3.79825,0.2478c-6.01639,0.25856 -12.04315,0.52287 -18.05956,0.78142c-23.9324,1.02851 -51.85441,2.08682 -75.12326,1.18926c-27.62294,-0.83718 -57.72706,3.34309 -85.56749,2.72264c-15.24428,-0.25616 -31.87653,0.98109 -47.37817,1.65371c-7.86391,0.3412 -14.62502,-0.34783 -18.03749,1.61409c-0.89694,0.51567 -0.02762,-1.12474 -0.03945,-1.68591c-0.02958,-1.40291 -0.06812,-2.81232 -0.09771,-4.21527c-0.16569,-7.8565 -0.34312,-15.75929 -0.50881,-23.6158c-0.03918,-1.85733 1.32733,-8.58306 -1.77305,-9.16952c0.57857,-0.03619 1.23371,-0.08312 1.59366,-0.10719c3.18885,-0.21307 4.97668,-0.23527 7.45436,-0.9223c4.30149,-1.19268 18.91436,-1.06408 24.77533,-1.31595c22.77635,-0.97884 45.67326,-1.99634 68.44947,-2.97517c0,0 5.18213,-0.22559 5.14663,-1.90911c-0.00146,-0.06912 -0.01089,-0.13507 -0.02893,-0.19788z" fill="#d2d2d2" stroke="none" stroke-linecap="butt"/><path d="M530.89355,340.50053c-0.00411,-0.19523 -0.08246,-0.51909 -0.15751,-0.83732c-0.26288,0.14173 -0.65676,0.26992 -1.16427,0.38629c-1.51721,0.57299 -3.8352,0.67262 -3.8352,0.67262c-19.64263,0.84415 -30.89361,5.80099 -37.7384,10.80077c-0.80566,0.56851 -0.71993,1.20805 -0.70736,1.8044c0.00358,0.16967 -0.04042,0.44143 -0.08883,0.7227c0.05005,-0.09206 0.17813,-0.1714 0.44106,-0.23009c1.162,-0.25939 11.32896,0.58557 12.55769,-0.20488c0.36925,-0.23755 -1.83967,-0.18438 -1.72315,-0.43937c1.43304,-3.1349 17.21947,-8.46202 25.00099,-10.0722c2.01819,-0.41763 4.29448,-0.68194 6.55929,-0.85548c-0.89558,-0.41244 0.86764,-1.17842 0.85564,-1.74739zM487.17767,354.1905c-0.10433,0.60354 -0.19606,1.18011 0.14862,0.82031c0.23561,-0.24588 -0.11866,-0.56163 -0.14862,-0.82031zM478.74165,350.41349c7.27461,-4.85271 16.98967,-9.40987 32.23092,-11.69423c1.41946,-0.7937 4.37938,-0.92094 4.37938,-0.92094l2.57844,-0.11082c5.8384,-0.25092 8.91322,-1.04768 15.18445,-1.31719c8.70919,-0.37427 10.84725,5.19257 6.32796,7.04398c-2.85185,1.16827 -7.45442,1.7092 -11.28824,2.50252c-11.34833,2.34819 -15.46094,7.87126 -27.8827,11.06527c-13.16553,3.3852 -27.85416,-2.10627 -21.53017,-6.56855z" fill="#000000" stroke="none" stroke-linecap="butt"/><path d="M530.92647,339.59858c0.0752,0.31822 0.16554,0.64624 0.16965,0.84147c0.01199,0.56895 -1.72987,1.34439 -0.83428,1.75685c-2.26483,0.17356 -4.55433,0.43157 -6.5726,0.8492c-7.78162,1.61016 -23.64519,6.91701 -25.07817,10.05192c-0.11663,0.25504 1.85051,0.36022 1.48121,0.59779c-1.22873,0.79044 -11.48404,-0.07291 -12.64602,0.18648c-0.26307,0.05875 -0.38993,0.13845 -0.43987,0.23054c0.04841,-0.28127 0.08284,-0.55651 0.07925,-0.72618c-0.01257,-0.59632 -0.12104,-1.24664 0.68461,-1.81512c6.84474,-4.99978 18.50319,-10.07304 38.14579,-10.91719c0,0 2.3286,-0.09644 3.84577,-0.66946c0.50757,-0.1164 0.90163,-0.24452 1.16437,-0.38626z" fill="#ffffff" stroke="none" stroke-linecap="butt"/></g><g><path d="M-5.23563,365.7279l-43.00654,-250.97279l286.91356,-41.9737l-6.57406,-40.16216l292.42528,-49.3451l50.26681,284.49367z" fill="#b8b19e" stroke="#000000" stroke-width="1" stroke-linecap="round"/><path d="M-14.49677,315.32343l580.20411,-100.63812l7.80803,53.66946l-580.85961,98.55066z" fill="#a28f80" stroke="#000000" stroke-width="1" stroke-linecap="round"/><path d="M251.25608,308.02237l-48.78725,8.88687l-19.61465,-110.8618l47.90285,-8.73404z" fill="#e6e6e6" stroke="#000000" stroke-width="1" stroke-linecap="round"/><path d="M241.2561,302.86247l-35.19354,5.85447l-16.81151,-98.59469l36.80951,-7.04457z" fill="#121212" stroke="#000000" stroke-width="1" stroke-linecap="round"/><path d="M242.66869,303.13069l-36.48194,6.30484l-15.22992,-85.49028l37.47282,-7.15922z" fill="#755943" stroke="#000000" stroke-width="1" stroke-linecap="round"/><path d="M293.40337,191.21173l224.76305,-36.79437l22.71807,120.91382l-227.67558,37.07001z" fill="#8b7a60" stroke="#000000" stroke-width="1" stroke-linecap="round"/><path d="M294.50732,201.55236l211.12704,-34.66549l21.06543,111.35113l-213.37283,33.85815z" fill="#d2c9c2" stroke="#000000" stroke-width="1" stroke-linecap="round"/><path d="M295.38961,205.66939l205.66772,-34.63284l3.49094,16.24696l-206.39113,37.03492z" fill="#2d241d" stroke="#000000" stroke-width="1" stroke-linecap="round"/><path d="M431.60596,27.74351l11.15211,69.80017l-87.85417,14.7276l-12.69981,-69.53269l90.65207,-15.66657z" fill="#4a413a" stroke="#000000" stroke-width="1" stroke-linecap="round"/><path d="M508.44478,77.08338l-23.91729,3.90571l-9.99498,-55.19924l27.00456,-5.80548z" fill="#4a413a" stroke="#000000" stroke-width="1" stroke-linecap="round"/><path d="M274.08782,181.22906l-174.24783,-90.22913l-140.60645,148.57042l-12.62994,-8.51947l150.90895,-154.50656l181.74001,92.40684z" fill="#e6e6e6" stroke="#000000" stroke-width="1" stroke-linecap="round"/><path d="M123.91667,292.5716l-92.45911,15.75115l-13.23477,-72.62812l94.44087,-17.45988z" fill="#4a413a" stroke="#000000" stroke-width="1" stroke-linecap="round"/><path d="M32.757,113.92165l4.24144,24.54238l-15.61663,16.36126l-22.47604,4.33973l-7.4048,-41.52907l40.63167,-6.33888z" fill="#4a413a" stroke="#000000" stroke-width="1" stroke-linecap="round"/><path d="M237.73116,55.84108l1.39454,17.29238l-309.33406,48.44981l-13.43238,-13.16263l319.8583,-52.77341z" fill="#e6e6e6" stroke="#000000" stroke-width="1" stroke-linecap="round"/><path d="M201.07923,27.56394l351.40031,-61.6401l-2.32044,12.92487l-341.93925,58.41109z" fill="#e6e6e6" stroke="#000000" stroke-width="1" stroke-linecap="round"/><path d="M63.29417,85.07659l-12.38574,-71.66812l95.2611,-16.0077l12.62062,71.7096z" fill="#a09986" stroke="#000000" stroke-width="1" stroke-linecap="round"/><path d="M121.92307,51.1172l-31.17545,5.38777l-7.19742,-37.69392l34.71312,-5.99915z" fill="#4a413a" stroke="#000000" stroke-width="1" stroke-linecap="round"/><path d="M161.09191,-5.51967l-122.67373,21.42828l-6.54555,-8.88787l130.25131,-25.01491z" fill="#e6e6e6" stroke="#000000" stroke-width="1" stroke-linecap="round"/><path d="M201.62223,132.6254c-0.51622,-0.54407 0.02785,-1.06029 0.02785,-1.06029l0.2071,-0.1685c-0.02597,-0.03474 -0.05159,-0.06974 -0.07671,-0.10507c-0.96396,-1.35561 -2.04747,-2.78153 -2.68111,-4.33267c-0.1883,-0.46094 -0.28493,-0.95645 -0.48042,-1.4144c-0.19862,-0.46532 -0.51115,-0.87756 -0.69853,-1.34753c-0.19003,-0.47661 -0.26615,-0.99171 -0.42823,-1.47854c-0.12732,-0.38241 -0.32563,-0.73983 -0.43912,-1.12657c-0.22962,-0.78236 -0.2815,-1.60622 -0.42036,-2.40966c-0.35317,-2.04356 -0.70634,-4.08714 -1.05951,-6.13071l-0.12964,-0.75016c-0.07054,-0.40816 0.20317,-0.79623 0.61133,-0.86677c0.17341,-0.02997 0.34319,0.00219 0.48653,0.08041l1.31766,0.70268c0.48135,0.19019 2.1571,1.19972 2.6194,1.44399c0.70012,0.36992 1.39737,0.74621 2.1107,1.08996c0.42426,0.20445 0.87783,0.34343 1.30384,0.54422c0.35567,0.16764 0.6691,0.42452 1.03832,0.55973c0.4349,0.15926 0.90043,0.21763 1.35301,0.316c0.71422,0.15526 1.42341,0.3438 2.14766,0.44211c0.31442,0.04267 0.63425,0.0232 0.95094,0.04285c0.92893,0.05763 1.8589,0.12721 2.78957,0.11923c0.5105,-0.00438 1.02061,-0.06274 1.53087,-0.04629c0.48222,0.01554 0.95838,0.12197 1.44043,0.14205c0.95575,0.03982 1.90827,-0.14004 2.86389,-0.18306c0.98926,-0.04453 2.00042,0.11956 2.98824,0.16622c0.31246,0.01578 0.62503,0.06484 0.93739,0.04735c0.76333,-0.04277 1.51166,-0.28169 2.27619,-0.28201c1.00288,-0.0004 1.99926,0.21668 3.002,0.19977c1.19585,-0.02016 2.48906,-0.27332 3.66182,-0.47622c0.65922,-0.11405 1.33633,-0.14978 1.97851,-0.33738c0.32081,-0.09372 0.60641,-0.28808 0.92745,-0.38102c0.3134,-0.09072 0.65075,-0.07716 0.96449,-0.16668c0.55695,-0.15893 1.04051,-0.51568 1.58706,-0.70738c0.3902,-0.13686 0.8035,-0.19836 1.19758,-0.32363c1.78587,-0.5677 3.50719,-1.34156 5.29321,-1.90727c0.02121,-0.00672 2.87936,-0.79999 2.91948,-0.81112c0.42331,-0.11684 0.85702,-0.20108 1.26996,-0.35051c0.45902,-0.16611 0.8875,-0.40744 1.33879,-0.59353c0.81871,-0.3376 1.64748,-0.65114 2.48108,-0.95009c0.91687,-0.32881 1.85517,-0.61997 2.74778,-1.01483c0.3475,-0.15372 0.67055,-0.35985 1.02023,-0.50851c0.45213,-0.1922 0.93834,-0.30132 1.38185,-0.51261c0.45247,-0.21557 0.84206,-0.5497 1.29561,-0.76299c0.4463,-0.20987 0.95135,-0.27978 1.39216,-0.50097c0.08081,-0.04055 2.29672,-1.55029 2.35146,-1.59446c1.08062,-0.87209 2.08398,-1.99247 2.96977,-3.05804c0.33448,-0.40238 0.60159,-0.86242 0.96905,-1.23492c0.30411,-0.30827 0.73803,-0.47184 1.03005,-0.79158c0.30948,-0.33887 0.49772,-0.77119 0.74829,-1.15567c0.3614,-0.55454 0.73928,-1.09829 1.12073,-1.63923c2.4986,-3.50211 6.20407,-6.36797 7.99482,-10.39928l0.08523,-0.06091l-0.02598,-0.02149l0.63637,-0.76942c0.11023,-0.13492 0.26771,-0.23226 0.45289,-0.26426c0.40816,-0.07054 0.79623,0.20317 0.86677,0.61133c0.00689,0.03984 0.01049,0.0795 0.01101,0.1187l0.0221,0.75579l-0.01387,0.00041c0.00441,0.02951 0.00813,0.05917 0.01113,0.08898c0.0408,0.40538 -0.18178,0.79478 -0.24979,1.19649c-0.08625,0.50946 -0.10535,1.02806 -0.16484,1.54133c-0.10608,0.91508 -0.20132,1.2699 -0.14453,2.19713c0.0031,0.05057 0.00687,0.10118 0.01127,0.15182c0.32454,0.1335 0.43128,0.50222 0.43128,0.50222c0.3699,1.28013 0.76071,2.60591 0.90496,3.93728c0.05438,0.5019 0.03043,1.01014 0.08264,1.51227c0.08328,0.80099 0.28303,1.5868 0.37032,2.38735c0.00518,0.04752 0.01027,0.09505 0.0153,0.1426c0.10648,0.18378 0.20783,0.36857 0.21974,0.57505c0.02666,0.46222 -0.00225,0.79543 -0.07163,1.0782c0.07019,0.9059 0.12818,1.81356 0.20104,2.71692c0.14412,1.78714 0.40278,3.6142 0.34266,5.41107c-0.01102,0.32932 -0.18702,2.10472 -0.21807,2.59783c-0.03418,0.54278 0.04981,1.10142 -0.07974,1.6296c-0.10823,0.44121 -1.18653,2.47058 -1.40828,2.89929c-1.87915,2.74478 -3.3547,5.733 -5.27288,8.45274c-0.51165,0.72544 -1.05721,1.42707 -1.61672,2.11627c-0.18467,0.22748 -0.34638,0.47599 -0.55558,0.68112c-0.34244,0.3358 -1.50364,1.27732 -1.95636,1.69048c-0.95941,0.8756 -1.86989,1.76352 -2.85615,2.61068c-0.2843,0.2442 -0.54038,0.52645 -0.85487,0.73029c-0.43514,0.28203 -0.93,0.46039 -1.37993,0.71819c-0.81583,0.46745 -1.55925,1.0568 -2.38628,1.50416c-0.0767,0.04149 -2.02573,0.94743 -2.33741,1.09248c-1.68282,0.51448 -3.37263,1.0136 -5.01833,1.64067c-2.00883,0.76544 -3.99196,1.60862 -6.04239,2.26377c-1.67446,0.53502 -3.4046,1.07722 -5.12453,1.44484c-0.38925,0.08319 -0.78865,0.11462 -1.1767,0.20325c-0.97312,0.22227 -1.91524,0.56776 -2.8879,0.79206c-2.15481,0.49693 -4.33595,0.76419 -6.53531,0.94303c-1.00717,0.03885 -2.01589,0.01635 -3.02344,0.04362c-2.00756,0.05435 -4.02302,0.18945 -6.03331,0.14318c-0.4521,-0.01041 -1.91626,-0.15865 -2.50885,-0.18949c-0.50332,-0.0262 -1.00832,-0.01895 -1.51101,-0.05531c-0.80601,-0.05831 -1.60312,-0.22063 -2.41021,-0.26118c-0.51266,-0.02576 -1.02986,0.03461 -1.53972,-0.02483c-0.80776,-0.09417 -2.23921,-0.52609 -3.02679,-0.74719c-0.82669,-0.23209 -2.10133,-0.52999 -2.81949,-1.00715c-0.63353,-0.42092 -1.28287,-1.24265 -1.78622,-1.85715c-0.91288,-1.11446 -1.72083,-2.27082 -2.53624,-3.45689c-0.1798,-0.47935 -0.32484,-0.97323 -0.53941,-1.43805c-0.5342,-1.15724 -0.81078,-1.30035 -1.43741,-2.38829c-0.10706,-0.18587 -0.19091,-0.38435 -0.28017,-0.57981l-0.00461,0.01041c0,0 -0.54407,0.51622 -1.06029,-0.02785zM204.11468,132.17681c0.04849,0.10303 0.09922,0.20487 0.15598,0.30339c0.48478,0.84147 1.08611,1.61969 1.49521,2.50045c0.20559,0.44262 0.33834,0.91555 0.50753,1.37334c0.76797,1.09251 1.52031,2.16606 2.3668,3.20071c0.37564,0.45913 1.00094,1.25511 1.45249,1.55634c0.50773,0.3387 1.8437,0.65961 2.3983,0.81485c0.62528,0.17503 2.12659,0.62598 2.79308,0.7013c0.48361,0.05466 0.9739,-0.00649 1.45998,0.01782c0.81262,0.04064 1.61525,0.2038 2.42677,0.26229c0.49471,0.03567 0.99169,0.02796 1.48701,0.05376c0.42307,0.02204 2.21524,0.18202 2.45899,0.18752c1.98551,0.04479 3.97567,-0.08934 5.95854,-0.14303c0.99112,-0.02683 1.98343,-0.0032 2.97417,-0.04147c2.11612,-0.17285 4.21463,-0.42919 6.28811,-0.90735c0.9762,-0.22512 1.92199,-0.57092 2.89854,-0.79448c0.38941,-0.08915 0.79021,-0.12106 1.18095,-0.20419c1.67049,-0.35542 3.35195,-0.88579 4.9782,-1.4048c2.03015,-0.6479 3.99265,-1.48467 5.98143,-2.24226c1.64332,-0.62599 3.32869,-1.12814 5.01033,-1.63763c0.71793,-0.33748 1.4578,-0.63119 2.15564,-1.00841c0.81845,-0.44241 1.55266,-1.02785 2.36033,-1.48965c0.41797,-0.23897 0.87989,-0.39931 1.28519,-0.65918c0.26624,-0.17072 0.47611,-0.41647 0.71522,-0.62349c0.58375,-0.5054 1.16802,-1.01104 1.72816,-1.5425c0.96543,-0.91599 2.03625,-1.74029 2.98703,-2.66689c0.17792,-0.1734 0.31068,-0.38781 0.46683,-0.58105c0.53705,-0.66456 1.06401,-1.3384 1.55649,-2.03665c1.89632,-2.68869 3.34921,-5.64704 5.21118,-8.35787c0.06867,-0.13335 1.18914,-2.28016 1.23828,-2.48419c0.10681,-0.44352 0.01565,-0.91246 0.04012,-1.36799c0.02592,-0.48273 0.20344,-2.19191 0.21599,-2.55405c0.06008,-1.73622 -0.19839,-3.50705 -0.33798,-5.23363c-0.42389,0.94302 -0.84126,1.89 -1.25022,2.83833c-0.38573,0.71176 -0.80642,1.40416 -1.22466,2.0973c-0.73062,1.21083 -1.40316,2.45444 -2.37717,3.49684c-0.34785,0.37227 -0.72886,0.71215 -1.08954,1.072c-0.19997,0.1995 -0.36813,0.43416 -0.59234,0.60598c-0.56657,0.43417 -1.22939,0.73616 -1.78018,1.19018c-0.39082,0.32215 -0.73777,0.69682 -1.14028,1.00427c-0.05103,0.03898 -2.45073,1.61527 -2.53672,1.67409c-0.2358,0.16131 -1.77701,1.2863 -2.13556,1.47321c-0.44931,0.2342 -0.93376,0.39371 -1.39994,0.5922c-1.17836,0.5017 -2.35352,1.01059 -3.52897,1.51902c-0.4416,0.19101 -0.89947,0.34796 -1.32525,0.57204c-0.42578,0.22408 -0.81457,0.51233 -1.22186,0.76848c-1.84549,1.15672 -3.75973,2.42325 -5.81712,3.17409c-1.41577,0.51669 -2.88217,0.95268 -4.31722,1.41558c-0.73062,0.23567 -1.43176,0.5614 -2.17067,0.76973c-0.49852,0.14055 -1.01714,0.19647 -1.52438,0.30127c-1.48437,0.30665 -2.9593,0.70078 -4.4645,0.89799c-1.30765,0.17133 -2.63991,0.16802 -3.94585,0.35096c-1.96654,0.27548 -3.92492,0.67895 -5.8818,1.01715c-1.49604,0.25841 -3.0477,0.48735 -4.51234,0.88772c-0.49917,0.13645 -0.97728,0.34908 -1.48277,0.45986c-0.28663,0.06282 -0.58591,0.03439 -0.87841,0.05765c-0.50916,0.0405 -1.0164,0.16026 -1.52647,0.13363c-0.38153,-0.01992 -0.73831,-0.19952 -1.11351,-0.27153c-0.48847,-0.09375 -0.99702,0.00298 -1.49119,-0.05352c-0.39477,-0.04513 -0.77197,-0.19798 -1.16645,-0.24562c-0.36879,-0.04453 -0.74606,0.02117 -1.11402,-0.02977c-0.45279,-0.0627 -0.88015,-0.27494 -1.33595,-0.30947c-0.40682,-0.03081 -0.81094,0.09626 -1.21845,0.11598c-0.20559,0.00995 -2.43239,0.01586 -2.66483,-0.00737c-0.29232,-0.02922 -0.56933,-0.14716 -0.85827,-0.20017c-1.27254,-0.23341 -2.65465,-0.52371 -3.95061,-0.48352c-0.31376,0.05422 -0.59141,0.08712 -0.8574,0.12441zM203.29476,130.80957c0.48198,-0.09901 0.95525,-0.1508 1.52729,-0.24966c1.45631,-0.04071 2.95493,0.23955 4.38714,0.50361c0.25413,0.04686 0.49605,0.15774 0.75318,0.18355c0.13458,0.01351 2.37392,-0.00021 2.41297,-0.00199c0.46461,-0.02105 0.9267,-0.14777 1.39057,-0.11418c0.48417,0.03505 0.9403,0.25176 1.42124,0.31771c0.36451,0.04998 0.73813,-0.01574 1.10338,0.02847c0.38076,0.0461 0.74409,0.19688 1.12505,0.2413c0.53707,0.06263 1.08917,-0.02894 1.62057,0.0709c0.32634,0.06132 0.63205,0.235 0.96365,0.25243c0.43398,0.02281 0.86385,-0.09691 1.29688,-0.13357c0.24039,-0.02036 0.48746,0.01569 0.7228,-0.03744c0.47068,-0.10625 0.91463,-0.30959 1.37996,-0.43724c1.50298,-0.41232 3.09516,-0.64761 4.63047,-0.91308c1.97712,-0.34169 3.95588,-0.74898 5.94291,-1.02641c1.3062,-0.18237 2.63795,-0.1803 3.94571,-0.35093c1.46862,-0.19162 2.9079,-0.58249 4.35641,-0.87982c0.4722,-0.09693 0.9557,-0.14472 1.41962,-0.27573c0.72099,-0.2036 1.40445,-0.52355 2.11742,-0.75364c1.40801,-0.45437 2.84445,-0.88251 4.23475,-1.38629c1.96731,-0.71286 3.80083,-1.94164 5.56347,-3.04676c0.44,-0.27498 0.86083,-0.58331 1.31999,-0.82495c0.45915,-0.24164 0.95143,-0.41429 1.42734,-0.62095c1.17803,-0.51154 2.35665,-1.02293 3.53939,-1.52349c0.42421,-0.17954 0.86618,-0.32057 1.27526,-0.53233c0.23469,-0.12149 1.99246,-1.38558 1.999,-1.39005c0.81456,-0.55716 1.68928,-1.02806 2.47294,-1.62792c0.39188,-0.29997 0.72806,-0.66718 1.10961,-0.98017c0.55229,-0.45306 1.21174,-0.76029 1.78147,-1.19122c0.18054,-0.13656 0.30734,-0.33257 0.46708,-0.49298c0.34611,-0.34757 0.71432,-0.67327 1.0502,-1.03073c0.9052,-0.96339 1.51863,-2.13189 2.19536,-3.25319c0.39567,-0.65562 0.79671,-1.30871 1.16214,-1.98167c0.59038,-1.37207 1.19674,-2.7448 1.82217,-4.10069c0.17632,-0.38225 0.41568,-0.72371 0.55238,-1.10682c-0.02883,-0.35583 -0.06009,-0.71127 -0.09545,-1.06595c-0.0331,-0.04479 -0.06389,-0.09055 -0.08633,-0.13923c-0.37692,-0.81762 -0.54325,-1.33059 -0.73947,-2.23223c-0.24991,-1.14833 -0.3304,-2.25109 -0.47855,-3.40765c-0.13319,-1.0398 -0.47775,-2.09352 -0.54055,-3.14109c-0.06639,-1.1073 0.02695,-1.42489 0.14928,-2.48905c0.00136,-0.01182 0.01012,-0.09314 0.02305,-0.21347c-1.97945,3.05672 -4.88574,5.50818 -6.93278,8.45063c-0.37226,0.5277 -0.73632,1.06124 -1.0935,1.59926c-0.29927,0.4508 -0.53828,0.94873 -0.90085,1.35039c-0.30339,0.33609 -0.75308,0.5129 -1.07158,0.83469c-0.33539,0.33884 -0.57045,0.76456 -0.87468,1.13164c-0.94642,1.14196 -2.02511,2.33216 -3.18064,3.26589c-0.16003,0.12931 -2.44977,1.68135 -2.61844,1.7668c-0.4521,0.22907 -0.97054,0.30321 -1.42914,0.51898c-0.45135,0.21236 -0.83874,0.54551 -1.28911,0.75991c-0.45932,0.21867 -0.96146,0.33508 -1.42954,0.53431c-0.34686,0.14764 -0.6671,0.35265 -1.01196,0.50489c-0.92794,0.40966 -1.90104,0.71539 -2.85398,1.05694c-0.80939,0.2901 -1.61385,0.59503 -2.40888,0.92248c-0.47328,0.19493 -0.92374,0.44539 -1.40522,0.61909c-0.44724,0.16134 -0.91588,0.25564 -1.37382,0.38345c-0.9539,0.26483 -1.91807,0.49505 -2.86187,0.79388c-1.78971,0.56667 -3.51459,1.34239 -5.30436,1.91081c-0.36915,0.11724 -0.75727,0.17078 -1.12303,0.29815c-0.58228,0.20278 -1.10243,0.56913 -1.69409,0.74261c-0.31308,0.0918 -0.6511,0.07596 -0.96449,0.16668c-0.32104,0.09294 -0.6062,0.28879 -0.92745,0.38102c-0.05362,0.0154 -2.11432,0.36994 -2.13827,0.37408c-1.25229,0.21619 -2.61637,0.47642 -3.89198,0.49791c-0.71178,0.012 -2.24915,-0.19772 -2.98466,-0.20016c-0.75976,-0.00253 -1.50319,0.24036 -2.26183,0.28152c-0.35506,0.01927 -0.71045,-0.03196 -1.06567,-0.04795c-0.94013,-0.04503 -1.91934,-0.21146 -2.86071,-0.16558c-0.99407,0.04845 -1.98563,0.22167 -2.98013,0.18292c-0.47895,-0.01866 -0.95189,-0.12606 -1.43095,-0.14169c-1.00179,-0.03269 -2.00544,0.06726 -3.00687,0.02506c-0.80295,-0.03384 -1.60976,-0.04452 -2.40615,-0.15236c-0.76665,-0.10381 -1.5191,-0.2951 -2.2741,-0.46398c-0.52392,-0.11719 -1.06078,-0.19564 -1.5654,-0.37892c-0.40744,-0.14798 -0.75754,-0.42307 -1.14997,-0.60724c-0.42943,-0.20153 -0.88579,-0.34267 -1.3131,-0.54866c-0.4231,-0.20395 -0.81707,-0.46396 -1.23444,-0.67937c-0.74881,-0.38647 -1.49712,-0.77433 -2.23513,-1.18107c-0.42341,-0.23335 -0.89929,-0.3846 -1.28346,-0.67684c0.30886,1.78717 0.61773,3.57434 0.92658,5.36151c0.13022,0.75351 0.16826,1.52841 0.38686,2.26117c0.10746,0.3602 0.29636,0.69186 0.41499,1.04854c0.15367,0.46202 0.22038,0.95241 0.40097,1.40459c0.18324,0.45883 0.49086,0.86009 0.68488,1.31446c0.19717,0.46175 0.29731,0.96036 0.48528,1.42592c0.58318,1.44453 1.62484,2.77998 2.51827,4.03958c0.09374,0.13217 0.19322,0.26039 0.29273,0.38855z" fill="#000000" stroke="none" stroke-width="0.5" stroke-linecap="butt"/><path d="M205.02151,132.04487c1.29596,-0.04019 2.67781,0.24855 3.95034,0.48198c0.28894,0.053 0.56586,0.17042 0.85817,0.19963c0.23244,0.02324 2.45908,0.01649 2.66466,0.00654c0.40751,-0.01971 0.81158,-0.14703 1.2184,-0.1162c0.4558,0.03453 0.88294,0.24575 1.33573,0.30844c0.36796,0.05095 0.74511,-0.01528 1.11389,0.02926c0.39448,0.04764 0.77141,0.19951 1.16619,0.24465c0.49417,0.0565 1.00248,-0.04111 1.49096,0.05265c0.37519,0.07201 0.73163,0.25044 1.11316,0.27038c0.51008,0.02665 1.01708,-0.09386 1.52624,-0.13435c0.29251,-0.02326 0.5916,0.00467 0.87825,-0.05816c0.50548,-0.11079 0.98356,-0.32354 1.48273,-0.45999c1.46464,-0.40037 3.01554,-0.63133 4.51159,-0.88974c1.95688,-0.33819 3.91243,-0.74759 5.87897,-1.02307c1.30594,-0.18294 2.63001,-0.19046 3.93766,-0.36178c1.50521,-0.19721 2.94197,-0.60597 4.42634,-0.91262c0.50724,-0.1048 1.00425,-0.15446 1.50278,-0.29501c0.73889,-0.20832 1.42135,-0.51585 2.152,-0.75152c1.43506,-0.4629 2.89477,-0.87877 4.31054,-1.39546c2.05738,-0.75084 3.97202,-2.00396 5.8175,-3.16067c0.40728,-0.25616 0.79641,-0.54262 1.22219,-0.7667c0.42578,-0.22408 0.88382,-0.38016 1.32544,-0.57117c1.17546,-0.50843 2.35103,-1.01562 3.52938,-1.51732c0.46619,-0.19848 0.95077,-0.35749 1.40007,-0.59171c0.35854,-0.18688 1.90025,-1.3102 2.13605,-1.47151c0.08598,-0.05882 2.48617,-1.63363 2.5372,-1.6726c0.40252,-0.30742 0.74979,-0.68116 1.14063,-1.00331c0.5508,-0.45401 1.21389,-0.75523 1.78046,-1.18941c0.2242,-0.17181 0.39258,-0.40595 0.59254,-0.60545c0.36069,-0.35985 0.74203,-0.6989 1.08989,-1.07117c0.97402,-1.04241 1.64785,-2.28315 2.37847,-3.49398c0.41824,-0.69315 0.83973,-1.38401 1.22546,-2.09577c0.40896,-0.94832 0.9134,-1.94444 1.3373,-2.88745c0.13958,1.72658 0.4008,3.50269 0.34072,5.23891c-0.01253,0.36215 -0.18895,2.07404 -0.21487,2.55678c-0.02446,0.45554 0.06726,0.92606 -0.03955,1.36958c-0.04913,0.20404 -1.1688,2.35346 -1.23747,2.48681c-1.86198,2.71083 -3.31309,5.68049 -5.20941,8.36918c-0.49246,0.69823 -1.01942,1.37564 -1.55647,2.0402c-0.15616,0.19324 -0.28894,0.40873 -0.46688,0.58213c-0.95078,0.9266 -2.02224,1.7566 -2.98767,2.6726c-0.56014,0.53147 -1.14519,1.04092 -1.72896,1.54631c-0.23911,0.20701 -0.44943,0.45443 -0.71567,0.62515c-0.40531,0.25988 -0.86791,0.42239 -1.28587,0.66136c-0.80767,0.46178 -1.5439,1.05228 -2.36234,1.49468c-0.69785,0.37722 -1.44001,0.67529 -2.15793,1.01276c-1.68164,0.50949 -3.37485,1.02174 -5.01818,1.64773c-1.98879,0.75759 -3.96891,1.60571 -5.99907,2.25361c-1.62626,0.519 -3.32525,1.05258 -4.99575,1.40801c-0.39075,0.08313 -0.7955,0.11489 -1.18491,0.20404c-0.97655,0.22356 -1.93099,0.5679 -2.90719,0.79304c-2.07348,0.47817 -4.18593,0.72853 -6.30205,0.90138c-0.99074,0.03828 -1.98785,0.01124 -2.97897,0.03808c-1.98286,0.05368 -3.97949,0.18161 -5.965,0.13682c-0.24376,-0.0055 -2.03795,-0.16796 -2.46103,-0.19001c-0.49532,-0.02581 -0.99328,-0.01945 -1.488,-0.0551c-0.81153,-0.05849 -1.61564,-0.22387 -2.42827,-0.26451c-0.48608,-0.02431 -0.97703,0.03577 -1.46065,-0.0189c-0.66649,-0.07533 -2.16927,-0.52892 -2.79456,-0.70395c-0.5546,-0.15524 -1.8917,-0.47846 -2.39943,-0.81716c-0.45156,-0.30123 -1.07794,-1.09977 -1.45358,-1.5589c-0.84649,-1.03464 -1.60045,-2.11306 -2.36842,-3.20558c-0.16918,-0.45778 -0.30241,-0.93259 -0.508,-1.37522c-0.4091,-0.88076 -1.01112,-1.66251 -1.4959,-2.50398c-0.05677,-0.09853 -0.10755,-0.20078 -0.15605,-0.3038c0.26599,-0.03729 0.64251,-0.08521 0.95626,-0.13943z" fill="#ffffff" stroke="none" stroke-width="0.5" stroke-linecap="butt"/><path d="M202.95739,130.44356c-0.89343,-1.2596 -1.93741,-2.60044 -2.52059,-4.04497c-0.18796,-0.46557 -0.28871,-0.96595 -0.48589,-1.42769c-0.19402,-0.45438 -0.50217,-0.85735 -0.6854,-1.31618c-0.18057,-0.45218 -0.24775,-0.94432 -0.40142,-1.40632c-0.11863,-0.35668 -0.30785,-0.68966 -0.4153,-1.04986c-0.2186,-0.73276 -0.25715,-1.51042 -0.38737,-2.26393c-0.30886,-1.78717 -0.61833,-3.58092 -0.92719,-5.36809c0.38417,0.29224 0.95998,0.44002 1.38339,0.67338c0.73801,0.40673 1.48622,0.79291 2.23503,1.17939c0.41737,0.21541 0.81125,0.47437 1.23435,0.67833c0.42732,0.20599 0.88357,0.34618 1.313,0.54771c0.39243,0.18415 0.74238,0.4582 1.14984,0.60618c0.50462,0.18326 1.04135,0.26083 1.56527,0.37802c0.755,0.16887 1.50722,0.35887 2.27388,0.46267c0.79639,0.10783 1.60302,0.1175 2.40595,0.15134c1.00144,0.04221 2.00484,-0.05888 3.00663,-0.02618c0.47906,0.01564 0.95178,0.12211 1.43072,0.14077c0.99449,0.03874 1.98573,-0.13571 2.97981,-0.18417c0.94138,-0.04588 1.91985,0.11815 2.85998,0.16318c0.35522,0.01598 0.71026,0.06619 1.06532,0.04693c0.75865,-0.04116 1.5015,-0.28558 2.26126,-0.28304c0.73551,0.00245 2.27077,0.20755 2.98256,0.19555c1.27561,-0.0215 2.6358,-0.28806 3.88809,-0.50425c0.02395,-0.00414 2.08041,-0.3638 2.13404,-0.37919c0.32125,-0.09223 0.60436,-0.29012 0.9254,-0.38306c0.3134,-0.09072 0.64732,-0.07834 0.9604,-0.17013c0.59166,-0.17348 1.10202,-0.54561 1.68429,-0.74839c0.36577,-0.12738 0.74098,-0.18467 1.11012,-0.30192c1.78978,-0.56842 3.4594,-1.30911 5.24911,-1.87578c0.94379,-0.29883 1.90601,-0.51889 2.85993,-0.78371c0.45795,-0.12781 0.92644,-0.21936 1.37367,-0.3807c0.48147,-0.17369 0.93195,-0.42099 1.40523,-0.61592c0.79503,-0.32746 1.59969,-0.62912 2.40909,-0.91923c0.95294,-0.34155 1.92635,-0.64487 2.85429,-1.05453c0.34486,-0.15226 0.66526,-0.35623 1.01213,-0.50388c0.46807,-0.19923 0.97036,-0.31489 1.42967,-0.53354c0.45037,-0.2144 0.83802,-0.5463 1.28937,-0.75864c0.4586,-0.21576 0.97715,-0.28943 1.42925,-0.5185c0.16867,-0.08546 2.45899,-1.63519 2.61901,-1.7645c1.15554,-0.93374 2.23545,-2.12006 3.18188,-3.26202c0.30422,-0.36708 0.53975,-0.79159 0.87514,-1.13044c0.31852,-0.3218 0.76844,-0.49802 1.07182,-0.83411c0.36257,-0.40166 0.60213,-0.89829 0.9014,-1.34909c0.35718,-0.53801 0.72186,-1.07018 1.09413,-1.59789c2.04706,-2.94245 4.95587,-5.38929 6.9353,-8.44599c-0.01292,0.12033 0.06362,0.14949 0.06227,0.16131c-0.12232,1.06418 -0.21446,1.38384 -0.14807,2.49115c0.0628,1.04756 0.40899,2.10453 0.54216,3.14433c0.14814,1.15656 0.23015,2.26307 0.48008,3.4114c0.19623,0.90165 0.36345,1.41734 0.74037,2.23498c0.02244,0.04867 0.05328,0.09461 0.08638,0.13941c0.03536,0.35468 0.06695,0.71136 0.09578,1.0672c-0.13669,0.3831 -0.37577,0.7257 -0.55209,1.10796c-0.62543,1.35588 -1.23092,2.73332 -1.82129,4.1054c-0.36543,0.67295 -0.76618,1.32854 -1.16185,1.98415c-0.67673,1.12131 -1.28996,2.29435 -2.19517,3.25773c-0.33588,0.35745 -0.70412,0.68475 -1.05022,1.03232c-0.15973,0.16041 -0.28656,0.35722 -0.4671,0.49376c-0.56973,0.43093 -1.22932,0.74025 -1.78162,1.19332c-0.38155,0.313 -0.71793,0.68203 -1.10981,0.98199c-0.78367,0.59986 -1.65896,1.07426 -2.47352,1.63142c-0.00654,0.00447 -1.76512,1.27191 -1.9998,1.39339c-0.40907,0.21176 -0.85153,0.35448 -1.27575,0.534c-1.18274,0.50055 -2.36342,1.01736 -3.54144,1.5289c-0.47592,0.20666 -0.9694,0.38179 -1.42854,0.62344c-0.45915,0.24164 -0.88161,0.55289 -1.32161,0.82787c-1.76263,1.10513 -3.60625,2.34593 -5.57357,3.05878c-1.3903,0.50379 -2.8372,0.9389 -4.24522,1.39326c-0.71297,0.23008 -1.40275,0.55266 -2.12374,0.75625c-0.4639,0.13101 -0.95166,0.18004 -1.42387,0.27695c-1.44852,0.29734 -2.90119,0.68957 -4.3698,0.8812c-1.30776,0.17063 -2.65063,0.16692 -3.95684,0.3493c-1.98703,0.27742 -3.97806,0.67965 -5.95517,1.02134c-1.5353,0.26548 -3.13356,0.49662 -4.63653,0.90893c-0.46533,0.12766 -0.9105,0.32999 -1.38119,0.43623c-0.23533,0.05312 -0.48317,0.01642 -0.72356,0.03677c-0.43303,0.03667 -0.86412,0.15529 -1.2981,0.13247c-0.3316,-0.01744 -0.63844,-0.19223 -0.96478,-0.25355c-0.53142,-0.09984 -1.08494,-0.0098 -1.62203,-0.07242c-0.38096,-0.04443 -0.74535,-0.19641 -1.12611,-0.2425c-0.36525,-0.04422 -0.73966,0.02056 -1.10417,-0.02943c-0.48094,-0.06596 -0.93821,-0.28412 -1.42238,-0.31916c-0.46387,-0.03358 -0.92665,0.0922 -1.39127,0.11326c-0.03905,0.00176 -2.27957,0.01379 -2.41413,0.00029c-0.25711,-0.02581 -0.49949,-0.13738 -0.75363,-0.18424c-1.43221,-0.26406 -2.93267,-0.54747 -4.38898,-0.50676c-0.57205,0.09886 -1.04561,0.1501 -1.52759,0.24909c-0.09952,-0.12817 -0.19926,-0.25693 -0.29301,-0.3891z" fill="#ffffff" stroke="none" stroke-width="0.5" stroke-linecap="butt"/><path d="M203.93225,85.05824c0.9854,-0.17027 1.98483,-0.33752 2.96901,-0.51474c0.22253,-0.04007 0.44282,-0.14038 0.66873,-0.13098c0.27585,0.01148 0.53329,0.18883 0.80936,0.19163c0.76748,0.00782 1.52808,-0.27133 2.29555,-0.28061c0.26595,-0.00322 0.53101,0.0938 0.79686,0.08549c0.50942,-0.01592 1.01754,-0.13116 1.52663,-0.15523c0.64522,-0.0305 1.64247,0.11249 2.27807,0.06493c0.38914,-0.02911 0.76579,-0.18674 1.15577,-0.20054c0.41308,-0.01463 0.8242,0.12932 1.23741,0.12005c0.33209,-0.00747 0.65654,-0.11031 0.98398,-0.16616c0.90198,0.04708 1.80095,0.13476 2.70295,0.18454c0.53774,0.02967 1.38561,-0.06153 1.84923,0.39967c0.21471,0.21359 0.3214,0.51744 0.45578,0.78886c0.47596,0.96136 0.54172,2.03719 0.72199,3.0803c0.21509,1.24459 0.41026,2.5069 0.44474,3.7731c0.02323,0.85349 -0.33827,1.66744 -0.51936,2.47891c-0.1532,0.68655 -0.18861,1.41839 -0.46533,2.06512c-0.41337,0.96613 -1.07855,1.6496 -1.734,2.4427c-0.21342,0.2308 -0.38693,0.51053 -0.64122,0.69532c-0.34974,0.25416 -0.77928,0.38398 -1.14805,0.60966c-0.42489,0.26003 -0.80559,0.59666 -1.23261,0.85316c-0.85415,0.51307 -1.76657,0.94637 -2.6276,1.4478c-0.80053,0.4662 -1.57561,1.00454 -2.40175,1.42365c-0.4238,0.215 -0.88568,0.36363 -1.32027,0.55591c-0.43559,0.19272 -0.8517,0.45022 -1.30239,0.60434c-0.38561,0.13186 -0.80858,0.14683 -1.20242,0.25159c-0.96169,0.25581 -1.92922,0.5399 -2.88103,0.83029c-0.4113,0.12548 -0.80526,0.32081 -1.22203,0.42679c-0.4646,0.11814 -0.95032,0.15975 -1.42276,0.24099c-0.95674,0.16449 -1.91493,0.37142 -2.87798,0.49371c-0.59977,0.07616 -1.80028,0.00859 -2.27273,-0.00589c-0.34853,-0.01068 -0.70429,0.02163 -1.04754,-0.03968c-0.27024,-0.04827 -0.50903,-0.21596 -0.77386,-0.28826c-0.29879,-0.08158 -0.61031,-0.11719 -0.91462,-0.17498c-0.83661,-0.30628 -1.6643,-0.54412 -2.38605,-1.08016c-0.24795,-0.18414 -0.56659,-0.30671 -0.7388,-0.56309c-0.20072,-0.29881 -0.23704,-0.68338 -0.33178,-1.03066c-0.29921,-1.09677 -0.40145,-1.7412 -0.6011,-2.86292c-0.1741,-0.97813 -0.34232,-1.96633 -0.51152,-2.94533c-0.06791,-0.39295 -0.13472,-0.78973 -0.20432,-1.18237c-0.03796,-0.21413 -0.1207,-0.42596 -0.11914,-0.64342c0.00609,-0.85013 0.27136,-1.68897 0.32295,-2.53757c0.03022,-0.49707 -0.03445,-1.00109 -0.00888,-1.4984c0.01563,-0.30388 0.09325,-0.60422 0.1331,-0.90588c0.13504,-1.02201 0.11054,-1.35154 0.42365,-2.38578c0.23623,-0.78028 0.60532,-1.59902 0.99434,-2.31471c2.43848,-1.06887 6.39947,-1.11166 9.05161,-1.57001l0.10755,-0.01875c0,0 0.51725,-0.09052 0.61375,-0.54885c0.12158,-0.02086 0.24456,-0.04252 0.36611,-0.06352z" fill="#ffffff" stroke="none" stroke-width="0.5" stroke-linecap="butt"/><path d="M235.37507,81.06714c0.48618,-0.18018 0.94451,-0.43745 1.41825,-0.64816c0.03842,-0.0171 2.73673,-1.19443 2.76335,-1.20721c0.01622,-0.0078 2.65778,-1.4039 2.68991,-1.42087c0.42361,-0.22391 0.83547,-0.48849 1.27645,-0.6759c0.72887,-0.30977 1.54291,-0.42673 2.26752,-0.74633c0.91648,-0.40421 1.7783,-0.95176 2.69982,-1.34433c0.8712,-0.37114 1.79305,-0.63878 2.66242,-1.01418c1.29852,-0.5607 2.57472,-1.09668 3.91225,-1.56634c0.84835,-0.35927 1.67987,-0.76982 2.54851,-1.07677c1.40484,-0.49642 2.85695,-0.88335 4.27279,-1.34545c0.44406,-0.14494 0.88004,-0.31609 1.314,-0.48894c0.15407,-0.06136 0.31264,-0.3045 0.45027,-0.21198c0.2001,0.13451 0.19307,0.44613 0.24707,0.68111c0.10468,0.45538 0.13174,0.92804 0.22991,1.38487c0.10726,0.49922 0.26019,0.99039 0.38944,1.48437c0.19499,0.74524 0.43499,1.48466 0.58907,2.23943c0.17915,0.87757 0.30742,1.77054 0.45995,2.65313c0.25154,1.45551 0.55359,2.91461 0.67121,4.38937c0.15684,1.96663 0.14984,3.98336 0.15634,5.95515c0.00246,0.72463 0.03825,1.45469 0.0291,2.17925c-0.00254,0.2007 0.01602,0.41275 -0.05254,0.60137c-0.27292,0.75082 -0.88272,1.39795 -1.35931,2.00224c-0.20704,0.26253 -0.36469,0.576 -0.62074,0.791c-0.2421,0.20329 -0.57984,0.26322 -0.84188,0.44004c-0.41341,0.27895 -0.7601,0.65614 -1.17881,0.92706c-0.76923,0.4977 -1.62731,0.86075 -2.40034,1.35251c-0.2897,0.18429 -0.55711,0.4097 -0.85714,0.57663c-0.37216,0.20706 -0.79359,0.32776 -1.15842,0.54749c-0.25305,0.1524 -0.4362,0.40808 -0.6862,0.56543c-0.31823,0.20029 -0.69757,0.29996 -1.01273,0.50504c-0.36763,0.2392 -0.64747,0.61168 -1.03064,0.82511c-0.3557,0.19813 -0.77986,0.24947 -1.15991,0.39554c-0.43225,0.16613 -0.84267,0.40199 -1.2833,0.54443c-0.27595,0.08921 -0.58423,0.05978 -0.86012,0.14918c-0.45356,0.147 -0.86114,0.43689 -1.32228,0.55802c-0.44958,0.1181 -0.9289,0.10187 -1.39077,0.15432c-0.49681,0.05641 -0.99849,0.11576 -1.49515,0.17346c-0.28469,0.03391 -0.57043,0.09257 -0.85699,0.10169c-0.7366,0.02346 -1.30625,-0.11854 -2.04732,-0.18247c-1.25559,-0.10835 -2.60941,-0.03088 -3.84338,-0.30768c-0.41199,-0.09242 -0.802,-0.29021 -1.21828,-0.36085c-0.25273,-0.04288 -0.51765,0.06381 -0.77046,0.02145c-0.3641,-0.06102 -0.70542,-0.22902 -1.06041,-0.33034c-0.49051,-0.13998 -0.98614,-0.27694 -1.48172,-0.39773c-1.3882,-0.33837 -2.80425,-0.50856 -4.07696,-1.21725c-0.92897,-0.51727 -1.37376,-0.79584 -2.02278,-1.65515c-0.20784,-0.27518 -0.32125,-0.61383 -0.50109,-0.90806c-0.49241,-0.80562 -0.71156,-0.83633 -0.91871,-1.7869c-0.05359,-0.24588 -0.01393,-0.5048 -0.02057,-0.75635c-1.53788,-4.86534 1.90099,-9.46693 5.57632,-12.31767c0.3003,-0.07991 0.61361,-0.12373 0.90498,-0.23172z" fill="#ffffff" stroke="none" stroke-width="0.5" stroke-linecap="butt"/><path d="M218.7468,94.30554c-0.28215,-1.63264 0.81264,-3.18491 2.44528,-3.46707c1.63264,-0.28215 3.18491,0.81264 3.46707,2.44528c0.28215,1.63264 -0.81264,3.18491 -2.44528,3.46707c-1.63264,0.28215 -3.18491,-0.81264 -3.46707,-2.44528z" fill="#000000" stroke="none" stroke-width="0.5" stroke-linecap="butt"/><path d="M261.06762,84.85097c-0.28215,-1.63264 0.81264,-3.18491 2.44528,-3.46707c1.63264,-0.28215 3.18491,0.81264 3.46707,2.44528c0.28215,1.63264 -0.81264,3.18491 -2.44528,3.46707c-1.63264,0.28215 -3.18491,-0.81264 -3.46707,-2.44528z" fill="#000000" stroke="none" stroke-width="0.5" stroke-linecap="butt"/><path d="M224.31971,90.47643c-0.20984,-0.0163 -0.42699,0.02647 -0.6309,-0.02568c-0.27092,-0.06928 -0.50505,-0.24368 -0.77015,-0.33263c-0.5972,-0.20035 -1.24558,-0.19099 -1.86419,-0.3098c-0.31739,-0.06096 -0.6108,-0.21953 -0.9283,-0.27991c-0.28689,-0.05456 -0.5849,-0.0205 -0.87386,-0.06281c-0.3233,-0.04734 -0.63346,-0.17176 -0.95848,-0.20544c-1.74142,-0.18044 -3.4228,0.43245 -5.13278,0.61977c-0.34935,0.03827 -0.70105,0.06701 -1.05246,0.06273c-0.25474,-0.0031 -0.50482,-0.08848 -0.75955,-0.08481c-0.43222,0.00624 -0.85134,0.15054 -1.27768,0.22192c-0.29812,-0.02205 -0.59549,-0.07168 -0.89437,-0.06617c-0.18123,0.00335 -0.3546,0.08925 -0.53583,0.09261c-0.29889,0.00552 -0.59562,-0.07688 -0.89437,-0.06617c-0.23326,0.00837 -0.45944,0.08259 -0.68933,0.12293c-0.65957,0.11573 -1.35547,0.18426 -2.00571,0.34565c-0.28367,0.07041 -0.55419,0.18893 -0.83881,0.25533c-0.86032,0.20073 -1.74637,0.31249 -2.57235,0.65527c-0.31543,0.13091 -0.59487,0.34445 -0.91805,0.45484c-0.33323,0.11383 -0.69112,0.13583 -1.03487,0.21224c-0.60511,0.13453 -1.2012,0.30859 -1.80804,0.43508c-0.48751,0.10161 -0.99311,0.11756 -1.47242,0.25268c-0.31675,0.0893 -0.61193,0.2445 -0.92675,0.34038c-0.68513,0.20866 -1.39602,0.39239 -2.10189,0.51129c-0.35954,0.17637 -0.71654,0.3581 -1.07031,0.54579c-0.0011,0.06529 -0.00343,0.13055 -0.00739,0.19576c-0.05159,0.84859 -0.31696,1.6798 -0.32305,2.52992c-0.00156,0.21747 0.08097,0.42735 0.11893,0.64149c0.0696,0.39264 0.13581,0.78588 0.20373,1.17883c0.1692,0.97901 0.33491,1.95878 0.50901,2.9369c0.19965,1.1217 0.2983,1.75886 0.59751,2.85563c0.09474,0.34728 0.12948,0.72938 0.33021,1.02819c0.17221,0.25638 0.48941,0.37693 0.73736,0.56107c0.72174,0.53603 1.54489,0.76866 2.38152,1.07494c0.30429,0.05777 0.6141,0.09175 0.91289,0.17333c0.26482,0.0723 0.5018,0.23841 0.77204,0.28668c0.34325,0.06133 0.69686,0.02733 1.04539,0.038c0.47244,0.01449 1.66746,0.07854 2.26723,0.00237c0.96305,-0.12229 1.91281,-0.33289 2.86955,-0.49739c0.47245,-0.08122 0.95297,-0.12425 1.41757,-0.24238c0.41677,-0.10598 0.80586,-0.30209 1.21717,-0.42759c0.95181,-0.2904 1.90599,-0.5742 2.86767,-0.83002c0.39384,-0.10476 0.81108,-0.11848 1.19668,-0.25035c0.45069,-0.15413 0.86033,-0.40933 1.29591,-0.60204c0.43459,-0.19228 0.89036,-0.33774 1.31416,-0.55274c0.82616,-0.41911 1.59112,-0.94933 2.39164,-1.41552c0.86104,-0.50142 1.76629,-0.92519 2.62045,-1.43826c0.42702,-0.25651 0.80532,-0.58841 1.2302,-0.84843c0.36877,-0.22568 0.7969,-0.35201 1.14665,-0.60617c0.2543,-0.1848 0.42685,-0.46158 0.64027,-0.69238c0.65545,-0.79311 1.3189,-1.46745 1.73226,-2.43358c0.27672,-0.64673 0.31193,-1.37187 0.46514,-2.05842c0.18108,-0.81147 0.54344,-1.618 0.5202,-2.47149c-0.01642,-0.60318 -0.06858,-1.20308 -0.14193,-1.80048c-0.10571,-0.01188 -0.21151,-0.02276 -0.31754,-0.031zM196.72343,85.04634c0.17312,-0.13497 0.37049,-0.16908 0.37049,-0.16908c0.44916,-0.07714 0.90434,-0.125 1.34749,-0.2314c0.49023,-0.11771 0.95473,-0.33158 1.44718,-0.43959c0.32782,-0.0719 1.79635,-0.23927 2.34313,-0.32719c0.98321,-0.15808 1.96256,-0.33927 2.94384,-0.50886c0.49269,-0.08515 0.98487,-0.17335 1.47809,-0.25545c0.32221,-0.05364 0.64153,-0.15915 0.96808,-0.15176c0.27602,0.00624 0.52969,0.18665 0.80572,0.19185c0.28638,0.0054 0.5599,-0.12518 0.84411,-0.16077c0.46762,-0.05856 0.93739,-0.11344 1.4086,-0.12133c0.26182,-0.00438 0.51927,0.09298 0.781,0.08466c0.49008,-0.01559 0.9729,-0.13332 1.4627,-0.15603c0.73895,-0.03425 1.48078,0.12158 2.2183,0.06413c0.40608,-0.03163 0.79756,-0.19056 1.20461,-0.20515c0.41306,-0.0148 0.82116,0.12687 1.23439,0.11777c0.32028,-0.00706 0.63111,-0.11053 0.94667,-0.16579c0.96244,0.04218 1.92126,0.11332 2.88209,0.17993c1.10792,0.07681 1.88484,-0.02132 2.77342,0.79178c0.3528,0.32285 0.5488,0.78616 0.7734,1.20837c0.57776,1.0861 0.65351,2.30802 0.85908,3.49753c0.22956,1.32832 0.43912,2.67568 0.46335,4.02754c0.01744,0.97336 -0.35004,1.8641 -0.55684,2.79152c-0.17222,0.7723 -0.23324,1.58329 -0.54575,2.31023c-0.48848,1.13627 -1.22212,1.91652 -1.99086,2.84526c-0.28405,0.29665 -0.52273,0.64464 -0.85214,0.88994c-0.38882,0.28954 -0.86438,0.44146 -1.27717,0.69565c-0.42734,0.26315 -0.80948,0.59598 -1.2398,0.85424c-0.86002,0.51617 -1.77087,0.94347 -2.63753,1.44837c-0.82578,0.48108 -1.61678,1.02494 -2.46895,1.45757c-0.44748,0.22717 -0.92716,0.38462 -1.3864,0.58694c-0.47924,0.21113 -0.93338,0.48357 -1.42882,0.65329c-0.41572,0.14242 -0.86417,0.16435 -1.28874,0.27767c-0.94154,0.25132 -1.87597,0.52911 -2.80817,0.81308c-0.4324,0.13171 -0.84255,0.33459 -1.28074,0.44557c-0.50468,0.12782 -1.02567,0.17941 -1.53861,0.26851c-0.0421,0.00732 -2.92297,0.50561 -2.9619,0.51041c-0.69204,0.08542 -1.87296,0.02847 -2.48343,0.00558c-0.42854,-0.01607 -0.86238,0.00786 -1.28482,-0.06588c-0.30542,-0.05331 -0.5772,-0.2303 -0.87645,-0.31136c-0.29895,-0.08098 -0.6086,-0.11556 -0.91289,-0.17333c-1.01524,-0.36543 -2.02794,-0.64962 -2.88941,-1.32513c-0.36364,-0.28513 -0.80003,-0.51177 -1.0593,-0.89429c-0.29301,-0.43233 -0.39156,-0.96988 -0.54295,-1.46972c-0.27264,-0.90012 -0.46992,-2.08943 -0.63476,-3.01429c-0.17476,-0.98059 -0.3407,-1.96291 -0.51032,-2.9444c-0.11731,-0.67877 -0.34456,-1.34883 -0.34409,-2.03766c0.0002,-0.29076 0.31343,-2.45993 0.32533,-2.659c0.02996,-0.50112 -0.03531,-1.00473 -0.00858,-1.50603c0.01789,-0.33534 0.09837,-0.66443 0.14209,-0.9974c0.15083,-1.14845 0.12053,-1.43991 0.4781,-2.63278c0.10266,-0.34246 0.27394,-0.66056 0.40308,-0.99394c0.11233,-0.28999 0.17973,-0.59898 0.3212,-0.87593c0.19556,-0.38287 0.45638,-0.72875 0.68457,-1.09312c1.10687,-0.55189 2.47099,-0.8889 3.89933,-1.13074z" fill="#000000" stroke="none" stroke-width="0.5" stroke-linecap="butt"/><path d="M258.37574,79.59231c-1.14192,0.38252 -2.31839,0.61749 -3.48891,0.90677c-0.32937,0.0814 -0.65653,0.17232 -0.98813,0.24404c-0.19581,0.04235 -0.40304,0.03423 -0.59299,0.09789c-0.49178,0.16482 -0.91389,0.49831 -1.40015,0.67879c-0.55974,0.20775 -1.16299,0.27118 -1.74161,0.41845c-0.35486,0.09031 -1.01171,0.47125 -1.26229,0.5771c-0.32914,0.13905 -0.66379,0.26793 -1.00699,0.36733c-0.1977,0.05727 -0.41481,0.03306 -0.60917,0.10079c-0.20025,0.06978 -0.36533,0.21687 -0.55782,0.30588c-0.83869,0.38781 -1.71886,0.68883 -2.54939,1.097c-0.4584,0.22528 -0.85595,0.56312 -1.31631,0.78439c-0.27803,0.13364 -0.57992,0.21058 -0.86989,0.31586c-1.17257,0.42105 -2.23874,0.99944 -3.32622,1.60628c-0.27567,0.15383 -0.56595,0.28371 -0.82768,0.4602c-0.45438,0.3064 -0.79848,0.75343 -1.23207,1.08862c-0.47691,0.36869 -1.00766,0.66201 -1.51733,0.9839c-0.03947,0.02493 -1.72501,1.06277 -1.74547,1.07304c-0.0565,0.02838 -1.7953,0.71325 -1.88447,0.75148c-0.86601,0.37122 -1.67548,0.86183 -2.53064,1.24716c-0.06624,0.02985 -0.13303,0.05839 -0.20023,0.08591c0.0558,0.27095 0.12646,0.54309 0.21277,0.81617c0.00664,0.25156 -0.03366,0.50881 0.01992,0.75468c0.20715,0.95059 0.42417,0.97671 0.91658,1.78234c0.17984,0.29424 0.29198,0.63061 0.49981,0.9058c0.64902,0.85931 1.09016,1.13256 2.01913,1.64984c1.27271,0.70868 2.6816,0.87154 4.0698,1.2099c0.49558,0.1208 0.98786,0.25519 1.47837,0.39516c0.355,0.1013 0.69358,0.26754 1.05768,0.32855c0.2528,0.04236 0.51596,-0.06536 0.76868,-0.02248c0.41627,0.07064 0.80272,0.26664 1.2147,0.35906c1.23398,0.27681 2.5759,0.19564 3.83149,0.30399c0.74106,0.06396 1.30377,0.20519 2.04035,0.18174c0.28655,-0.00913 0.56937,-0.06781 0.85405,-0.10171c0.49667,-0.05768 0.99317,-0.11666 1.48999,-0.17306c0.46187,-0.05244 0.93646,-0.03538 1.38604,-0.15347c0.46112,-0.12113 0.864,-0.40971 1.31754,-0.5567c0.27588,-0.0894 0.58138,-0.05896 0.85733,-0.14817c0.44062,-0.14244 0.84669,-0.37632 1.27894,-0.54245c0.38005,-0.14607 0.80065,-0.19539 1.15634,-0.39352c0.38316,-0.21341 0.65933,-0.58338 1.02696,-0.82258c0.31517,-0.20507 0.69163,-0.3024 1.00986,-0.50269c0.25001,-0.15735 0.43099,-0.41101 0.68404,-0.5634c0.36483,-0.21972 0.78359,-0.33758 1.15575,-0.54464c0.30004,-0.16694 0.56546,-0.38989 0.85515,-0.57418c0.77304,-0.49176 1.62709,-0.84857 2.39632,-1.34628c0.41872,-0.27092 0.76366,-0.64462 1.17708,-0.92357c0.26204,-0.17682 0.59899,-0.23489 0.84109,-0.43818c0.25605,-0.215 0.4128,-0.52604 0.61983,-0.78857c0.47658,-0.6043 1.08478,-1.24562 1.3577,-1.99644c0.06856,-0.18863 0.04971,-0.39917 0.05225,-0.59986c0.00915,-0.72458 -0.02733,-1.44905 -0.02979,-2.17367c-0.0065,-1.9718 0.00187,-3.97314 -0.15496,-5.93976c-0.113,-1.41696 -0.39277,-2.80998 -0.63763,-4.20799c-2.40729,0.41877 -4.75765,1.11828 -7.17539,1.63527zM226.79988,92.9652c-0.18012,-0.46643 0.28631,-0.64655 0.28631,-0.64655c0.00521,-0.00201 0.01041,-0.00401 0.01561,-0.00601c-0.54565,-3.9434 1.74264,-7.7295 4.60151,-10.52595c-0.12479,-0.10718 -0.22394,-0.27595 -0.23171,-0.5416c-0.02192,-0.74968 0.72776,-0.77161 0.72776,-0.77161c0.20268,-0.00007 0.41455,0.06014 0.60802,-0.00024c0.33394,-0.10421 0.60572,-0.35689 0.93294,-0.4806c0.02509,-0.00949 0.05034,-0.01849 0.07573,-0.02706c0.08134,-0.06169 0.1627,-0.12251 0.24405,-0.18244l0.42419,-0.15366c0,0 0.21631,-0.03739 0.43511,0.04532c0.44913,-0.1667 0.86863,-0.40469 1.30612,-0.59998c0.90185,-0.40259 1.82742,-0.75265 2.71767,-1.18032c0.89289,-0.42893 1.75169,-0.92548 2.62824,-1.38686c0.4609,-0.2426 0.90394,-0.52294 1.3833,-0.72666c0.73148,-0.31086 1.53799,-0.42425 2.26445,-0.74669c0.91241,-0.40496 1.76006,-0.94822 2.67821,-1.34c0.86827,-0.37051 1.7784,-0.63783 2.64489,-1.01248c1.31561,-0.56885 2.60262,-1.11727 3.95794,-1.59279c0.85951,-0.3645 1.69915,-0.78025 2.57915,-1.09209c1.41775,-0.50242 2.8787,-0.8977 4.30829,-1.36321c0.51606,-0.16803 2.237,-0.98919 2.8677,-0.6336c1.11827,0.6305 1.08062,2.09395 1.30141,3.10243c0.10466,0.47806 0.2485,0.94668 0.37259,1.42006c0.20071,0.76571 0.44214,1.52195 0.60097,2.29743c0.00557,0.02718 0.43345,2.50409 0.46911,2.71044c0.25943,1.50115 0.56267,2.99403 0.68455,4.51502c0.16063,2.00455 0.15283,4.04437 0.15973,6.05426c0.0025,0.74846 0.05626,1.49727 0.02832,2.24522c-0.01222,0.32696 -0.00915,0.6657 -0.11712,0.97455c-0.35116,1.0045 -0.96579,1.67897 -1.61921,2.49125c-0.27356,0.34008 -0.50351,0.7248 -0.83553,1.00808c-0.2828,0.24129 -0.66917,0.32946 -0.97678,0.5382c-0.4148,0.28147 -0.76244,0.65583 -1.18354,0.92777c-0.4324,0.27923 -0.91783,0.46684 -1.36654,0.71904c-0.67587,0.37987 -1.28511,0.87127 -1.96255,1.24832c-0.35019,0.19491 -0.74743,0.29909 -1.09079,0.50581c-0.24771,0.14914 -0.42341,0.3992 -0.66812,0.5532c-0.32241,0.20291 -0.70271,0.30348 -1.02235,0.51072c-0.39425,0.25564 -0.69695,0.64404 -1.10844,0.87086c-0.41591,0.22926 -0.89878,0.30793 -1.34156,0.47963c-0.47013,0.18232 -0.91656,0.42665 -1.39626,0.58208c-0.27589,0.0894 -0.58137,0.05896 -0.85733,0.14817c-0.46675,0.15088 -0.88263,0.44543 -1.35765,0.56783c-0.06959,0.01794 -2.95023,0.35018 -3.08391,0.3657c-0.32535,0.03695 -0.64875,0.10119 -0.97606,0.11086c-0.93969,0.02775 -1.27869,-0.10495 -2.21717,-0.18614c-1.31642,-0.1139 -2.7084,-0.04125 -4.00352,-0.32856c-0.37918,-0.08413 -0.7309,-0.27715 -1.11382,-0.34219c-0.25272,-0.04292 -0.51604,0.06586 -0.76868,0.02248c-0.91786,-0.15761 -1.78581,-0.53211 -2.69065,-0.75249c-1.51062,-0.36793 -3.04201,-0.56469 -4.42329,-1.34413c-1.18738,-0.67002 -1.67152,-0.98686 -2.52245,-2.08503c-0.23711,-0.30602 -0.3688,-0.68119 -0.57083,-1.01144c-0.19662,-0.32139 -0.45948,-0.60343 -0.62431,-0.94222c-0.20784,-0.4272 -0.37474,-0.87795 -0.48593,-1.33984c-0.0611,-0.25379 -0.01669,-0.52179 -0.02503,-0.78269c-0.06335,-0.19058 -0.11949,-0.38104 -0.16868,-0.57129c-0.15252,0.01292 -0.38036,-0.02386 -0.49408,-0.31833z" fill="#000000" stroke="none" stroke-width="0.5" stroke-linecap="butt"/><path d="M175.43526,76.99278c-0.12772,-0.73904 0.61133,-0.86677 0.61133,-0.86677l0.64299,-0.11112c3.29162,-0.56314 6.19765,-0.15785 9.31443,0.54109c2.76932,0.62103 7.29308,-0.52874 10.18549,-0.70339c2.29128,-0.02189 4.5855,-0.00981 6.8762,-0.06396c0.51255,-0.01211 1.02441,-0.06808 1.53701,-0.0578c1.40175,0.02811 2.80846,0.3008 4.20776,0.38861c0.16033,0.01007 2.94367,0.09003 3.04875,0.10371c0.80026,0.10417 1.57579,0.35548 2.37369,0.47646c0.9007,0.13656 1.7998,0.28622 2.69322,0.46423c0.51161,0.10194 1.03642,0.15229 1.53459,0.3071c0.57698,0.17929 1.18795,0.33422 1.67589,0.69054c0.31688,0.23139 0.42048,0.66256 0.63073,0.99385c0,0 0.37909,0.64715 -0.26805,1.02623c-0.64715,0.37909 -1.02623,-0.26805 -1.02623,-0.26805c-0.10286,-0.20323 -0.12204,-0.479 -0.3086,-0.6097c-0.32448,-0.22729 -0.73885,-0.2911 -1.12187,-0.39232c-1.30588,-0.3451 -2.70183,-0.52635 -4.03476,-0.72885c-0.78777,-0.11968 -1.55334,-0.36812 -2.34332,-0.47217c-0.97475,-0.12838 -1.96676,-0.03239 -2.94799,-0.09397c-1.38062,-0.08664 -2.77127,-0.35979 -4.15417,-0.38621c-0.48722,-0.0093 -0.9736,0.0461 -1.46077,0.05791c-2.2851,0.05537 -4.57408,0.04293 -6.85978,0.06347c-3.10488,0.18851 -7.5361,1.27987 -10.5465,0.67219c-2.94982,-0.59547 -5.62038,-1.07789 -8.75027,-0.53089l-0.64299,0.11112c0,0 -0.73904,0.12772 -0.86677,-0.61133z" fill="#000000" stroke="none" stroke-width="0.5" stroke-linecap="butt"/><path d="M268.13969,41.77522l0.6982,0.63482c-7.29164,6.28164 -16.2407,10.98071 -22.51557,18.35643c-2.18128,2.56395 -4.36025,5.12964 -6.53146,7.70213c-1.26322,1.4967 -2.5415,2.97208 -3.84859,4.4306c-0.34446,0.38436 -0.6656,0.79103 -1.03393,1.15257c-0.36834,0.36154 -0.78091,0.67505 -1.17164,1.01228c-1.05034,0.90654 -2.10337,1.8424 -3.20485,2.68705c-0.64046,0.49112 -1.33722,0.90413 -2.00606,1.35583c0,0 -0.62154,0.41974 -1.04128,-0.20179c-0.41974,-0.62154 0.20179,-1.04128 0.20179,-1.04128c0.64891,-0.43824 1.32621,-0.83703 1.94722,-1.31399c1.07368,-0.82462 2.09844,-1.73876 3.12369,-2.62183c0.36663,-0.31579 0.7551,-0.6078 1.10041,-0.94675c0.34533,-0.33895 0.64453,-0.7219 0.96709,-1.08259c1.29586,-1.44902 2.56603,-2.91197 3.81988,-4.39758c2.17247,-2.57398 4.35272,-5.14118 6.53526,-7.70662c6.24841,-7.34461 15.0826,-12.04649 22.37832,-18.26305c0.0765,-0.09542 0.14942,-0.14913 0.14942,-0.14913l0.01211,0.01102c0.04629,-0.03972 0.09252,-0.07949 0.13869,-0.11933z" fill="#000000" stroke="none" stroke-width="0.5" stroke-linecap="butt"/></g><g stroke="#000000" stroke-width="1.5" stroke-linecap="round"><path d="M-280.11621,-314.20344l4.01536,-0.02768l56.76198,7.76075l14.49983,14.06496l112.65598,317.22969l-1.73148,17.29418l-13.69967,10.39855l-15.04138,4.19925l-18.89156,-2.5045l-8.71099,-10.27017l-72.71035,-210.10733z" fill="#823200"/><path d="M-210.59339,-302.79151l160.26441,-133.33337l11.40745,-0.69166l29.11921,30.86818l23.11989,54.67424l29.51385,88.97943l1.06124,71.84767l-218.25161,-10.9323z" fill="#bdbdbd"/></g></g></g></svg>