<svg version="1.1" xmlns="http://www.w3.org/2000/svg" xmlns:xlink="http://www.w3.org/1999/xlink" width="2878.25006" height="1619.57958" viewBox="0,0,2878.25006,1619.57958"><g transform="translate(1119.12503,629.78979)"><g stroke-miterlimit="10"><path d="M-1119.12503,989.78979v-1619.57958h2878.25006v1619.57958z" fill="none" stroke="#000000" stroke-width="0" stroke-linecap="butt"/><g stroke-width="0"><path d="M180.81728,337.52298l34.28391,-35.94698l93.59733,3.68829l-20.4987,36.87351z" fill="#cedce9" stroke="#000000" stroke-linecap="round"/><path d="M171.95636,335.18008c-3.22129,-0.66658 -10.89663,-1.81968 -7.50745,-2.5251c-1.84892,0.19327 -4.31493,0.42025 -5.62525,0.45352c-6.2074,0.15758 -14.23147,-0.6116 -20.6276,-0.88648c-17.54737,-0.75411 -34.57842,-1.71129 -51.5866,-1.37443c-7.68646,0.15224 -9.76525,-1.4273 -12.16636,0.55458c-4.93588,3.28638 -14.14952,6.01231 -20.10017,9.27852c-8.06507,4.42673 -11.25078,8.89804 -16.23413,13.47011c-5.60812,3.70055 -1.26705,11.45488 -1.35949,15.83805c-0.02474,1.17329 1.48112,3.3284 -0.01739,4.12841c1.47064,0.10688 2.89111,0.20777 3.79633,0.24668c6.0164,0.25856 12.03272,0.51711 18.04915,0.77567c23.93223,1.02851 51.74198,2.05264 75.01084,1.15509c27.62292,-0.83718 57.45351,3.34767 85.29391,2.72723c15.24434,-0.25613 31.82923,0.99831 47.33086,1.67093c7.86397,0.34122 14.61887,-0.34448 18.03136,1.61745c0.89693,0.51569 0.02367,-1.12236 0.03551,-1.68353c0.02958,-1.40291 0.05917,-2.80593 0.08875,-4.20884c0.16569,-7.85652 0.33138,-15.713 0.49707,-23.5695c0.03918,-1.85733 -1.31201,-8.56628 1.78836,-9.15274c-0.57846,-0.03616 -1.23307,-0.08263 -1.59307,-0.10672c-3.18898,-0.21312 -4.9728,-0.2323 -7.45053,-0.91933c-4.3015,-1.19272 -18.90126,-1.05569 -24.76226,-1.30756c-22.77626,-0.97881 -45.55247,-1.95764 -68.32874,-2.93648c0,0 -5.15688,-0.22161 -5.12137,-1.90513c0.00146,-0.06912 0.01149,-0.13499 0.02953,-0.19781c-2.46167,-0.27655 -4.94686,-0.62013 -7.47115,-1.14245zM252.91923,337.99495c13.74891,0.59087 31.33803,0.54679 40.65537,4.36374c5.3392,2.18723 1.66019,8.30623 1.6048,10.93295c-0.16569,7.85652 -0.33137,15.71298 -0.49707,23.5695c-0.01892,0.89715 1.66342,5.42385 -0.12427,5.89239c-18.0567,4.73225 -51.78133,-1.01241 -73.72282,-0.34296c-27.22341,0.60671 -58.46003,-4.12128 -84.81441,-2.7418c-23.98233,0.9251 -52.82947,-0.10116 -77.51444,-1.16202c-3.54078,-0.15218 -24.79357,-0.1893 -27.07361,-1.16352c-6.53834,-2.79372 -5.05977,-4.82626 -4.99709,-7.79755c0.11333,-5.3744 -2.66982,-11.90613 1.91125,-16.88009c5.10765,-4.68607 8.72076,-9.45087 16.80312,-13.88708c3.26033,-1.78949 6.79239,-4.21882 10.98993,-5.78121c2.74665,-1.02233 7.97165,-1.72433 8.65326,-3.1775c4.49402,-3.70942 12.4399,-2.08924 21.88761,-2.33913c16.81811,-0.44485 34.18941,0.62675 51.58661,1.37441c6.41598,0.27572 18.97231,-0.14947 23.49217,0.34497c7.86799,0.86076 12.38944,3.25064 20.01212,4.23015c5.59341,0.71876 11.50441,0.6896 18.02251,2.03833c0.49483,0.10244 0.98956,0.20479 1.48444,0.30719c17.21354,0.73977 34.42717,1.47954 51.64074,2.2193z" fill="#000000" stroke="none" stroke-linecap="butt"/><path d="M179.50092,336.24483c-0.01804,0.06281 -0.02747,0.12876 -0.02893,0.19788c-0.0355,1.68352 5.14663,1.90911 5.14663,1.90911c22.77621,0.97883 45.67312,1.99633 68.44947,2.97517c5.86097,0.25187 20.47384,0.12327 24.77533,1.31595c2.47768,0.68703 4.26551,0.70923 7.45436,0.9223c0.35995,0.02407 1.01509,0.071 1.59366,0.10719c-3.10038,0.58646 -1.73387,7.31219 -1.77305,9.16952c-0.16569,7.85651 -0.34312,15.7593 -0.50881,23.6158c-0.02959,1.40295 -0.06813,2.81236 -0.09771,4.21527c-0.01183,0.56117 0.85749,2.20158 -0.03945,1.68591c-3.41247,-1.96192 -10.17358,-1.27289 -18.03749,-1.61409c-15.50164,-0.67262 -32.13389,-1.90987 -47.37817,-1.65371c-27.84043,0.62045 -57.94455,-3.55982 -85.56749,-2.72264c-23.26885,0.89756 -51.19086,-0.16075 -75.12326,-1.18926c-6.01641,-0.25855 -12.04317,-0.52286 -18.05956,-0.78142c-0.9053,-0.0389 -2.32768,-0.14093 -3.79825,-0.2478c1.49853,-0.80004 -0.01682,-2.96148 0.00792,-4.13479c0.09244,-4.38317 -4.27228,-12.16767 1.33596,-15.86825c4.98341,-4.57209 8.18035,-9.0749 16.24542,-13.50162c5.95074,-3.26623 15.20351,-6.01556 20.13943,-9.30191c2.40107,-1.98188 4.49603,-0.40806 12.18246,-0.56028c17.00813,-0.33682 34.15033,0.60151 51.69757,1.35563c6.39603,0.27487 14.49209,1.04292 20.69949,0.88536c1.3102,-0.03328 3.79673,-0.25937 5.64564,-0.45263c-3.38928,0.70538 4.31656,1.86084 7.53792,2.52738c2.52437,0.52232 5.03955,0.86944 7.50116,1.14598z" fill="#d2d2d2" stroke="none" stroke-linecap="butt"/><path d="M107.07743,339.31011c-0.012,0.56897 1.75122,1.33495 0.85564,1.74739c2.26481,0.17354 4.5411,0.43785 6.55929,0.85548c7.78152,1.61018 23.56795,6.9373 25.00099,10.0722c0.11652,0.25499 -2.0924,0.20182 -1.72315,0.43937c1.22873,0.79045 11.39569,-0.05451 12.55769,0.20488c0.26293,0.05869 0.39101,0.13803 0.44106,0.23009c-0.04841,-0.28127 -0.09241,-0.55303 -0.08883,-0.7227c0.01257,-0.59635 0.0983,-1.23589 -0.70736,-1.8044c-6.84479,-4.99978 -18.09577,-9.95662 -37.7384,-10.80077c0,0 -2.31799,-0.09963 -3.8352,-0.67262c-0.50751,-0.11637 -0.90139,-0.24456 -1.16427,-0.38629c-0.07505,0.31823 -0.1534,0.64209 -0.15751,0.83732zM150.64465,353.82033c0.34468,0.3598 0.25295,-0.21677 0.14862,-0.82031c-0.02996,0.25868 -0.38423,0.57443 -0.14862,0.82031zM159.22925,349.22306c6.32399,4.46228 -8.36464,9.95375 -21.53017,6.56855c-12.42176,-3.19401 -16.53437,-8.71708 -27.8827,-11.06527c-3.83382,-0.79332 -8.43639,-1.33425 -11.28824,-2.50252c-4.51929,-1.85141 -2.38123,-7.41825 6.32796,-7.04398c6.27123,0.26951 9.34605,1.06627 15.18445,1.31719l2.57844,0.11082c0,0 2.95992,0.12724 4.37938,0.92094c15.24125,2.28436 24.95631,6.84152 32.23092,11.69423z" fill="#000000" stroke="none" stroke-linecap="butt"/><path d="M107.04475,338.40814c0.26274,0.14174 0.6568,0.26986 1.16437,0.38626c1.51717,0.57302 3.84577,0.66946 3.84577,0.66946c19.6426,0.84415 31.30105,5.91741 38.14579,10.91719c0.80565,0.56848 0.69718,1.2188 0.68461,1.81512c-0.00359,0.16967 0.03084,0.44491 0.07925,0.72618c-0.04994,-0.09209 -0.1768,-0.17179 -0.43987,-0.23054c-1.16198,-0.25939 -11.41729,0.60396 -12.64602,-0.18648c-0.3693,-0.23757 1.59784,-0.34275 1.48121,-0.59779c-1.43298,-3.13491 -17.29655,-8.44176 -25.07817,-10.05192c-2.01827,-0.41763 -4.30777,-0.67564 -6.5726,-0.8492c0.89559,-0.41246 -0.84627,-1.1879 -0.83428,-1.75685c0.00411,-0.19523 0.09445,-0.52325 0.16965,-0.84147z" fill="#ffffff" stroke="none" stroke-linecap="butt"/></g><g stroke-width="0"><path d="M349.77112,343.32827l-20.4987,-36.87351l93.59733,-3.68829l34.28391,35.94698z" fill="#cedce9" stroke="#000000" stroke-linecap="round"/><path d="M466.01447,336.37069c-2.52429,0.52232 -5.00948,0.8659 -7.47115,1.14245c0.01804,0.06282 0.02807,0.12869 0.02953,0.19781c0.03551,1.68352 -5.12137,1.90513 -5.12137,1.90513c-22.77627,0.97884 -45.55248,1.95767 -68.32874,2.93648c-5.861,0.25187 -20.46076,0.11484 -24.76226,1.30756c-2.47773,0.68703 -4.26155,0.70621 -7.45053,0.91933c-0.36,0.02409 -1.01461,0.07056 -1.59307,0.10672c3.10037,0.58646 1.74918,7.29541 1.78836,9.15274c0.16569,7.8565 0.33138,15.71298 0.49707,23.5695c0.02958,1.40291 0.05917,2.80593 0.08875,4.20884c0.01184,0.56117 -0.86142,2.19922 0.03551,1.68353c3.41249,-1.96193 10.16739,-1.27623 18.03136,-1.61745c15.50163,-0.67262 32.08652,-1.92706 47.33086,-1.67093c27.8404,0.62044 57.67099,-3.56441 85.29391,-2.72723c23.26886,0.89755 51.07861,-0.12658 75.01084,-1.15509c6.01643,-0.25856 12.03275,-0.51711 18.04915,-0.77567c0.90522,-0.03891 2.32569,-0.1398 3.79633,-0.24668c-1.49851,-0.80001 0.00735,-2.95512 -0.01739,-4.12841c-0.09244,-4.38317 4.24863,-12.1375 -1.35949,-15.83805c-4.98335,-4.57207 -8.16906,-9.04338 -16.23413,-13.47011c-5.95065,-3.26621 -15.16429,-5.99214 -20.10017,-9.27852c-2.40111,-1.98188 -4.4799,-0.40234 -12.16636,-0.55458c-17.00818,-0.33686 -34.03923,0.62032 -51.5866,1.37443c-6.39613,0.27488 -14.4202,1.04406 -20.6276,0.88648c-1.31032,-0.03327 -3.77633,-0.26025 -5.62525,-0.45352c3.38918,0.70542 -4.28616,1.85852 -7.50745,2.5251zM385.05149,339.1855c17.21357,-0.73976 34.4272,-1.47953 51.64074,-2.2193c0.49488,-0.1024 0.98961,-0.20475 1.48444,-0.30719c6.5181,-1.34873 12.4291,-1.31957 18.02251,-2.03833c7.62268,-0.97951 12.14413,-3.36939 20.01212,-4.23015c4.51986,-0.49444 17.07619,-0.06925 23.49217,-0.34497c17.3972,-0.74766 34.7685,-1.81926 51.58661,-1.37441c9.44771,0.24989 17.39359,-1.37029 21.88761,2.33913c0.68161,1.45317 5.90661,2.15517 8.65326,3.1775c4.19754,1.56239 7.7296,3.99172 10.98993,5.78121c8.08236,4.43621 11.69547,9.20101 16.80312,13.88708c4.58107,4.97396 1.79792,11.50569 1.91125,16.88009c0.06268,2.97129 1.54125,5.00383 -4.99709,7.79755c-2.28004,0.97422 -23.53283,1.01134 -27.07361,1.16352c-24.68497,1.06086 -53.53211,2.08712 -77.51444,1.16202c-26.35438,-1.37948 -57.591,3.34851 -84.81441,2.7418c-21.94149,-0.66945 -55.66612,5.07521 -73.72282,0.34296c-1.78769,-0.46854 -0.10535,-4.99524 -0.12427,-5.89239c-0.1657,-7.85652 -0.33138,-15.71298 -0.49707,-23.5695c-0.05539,-2.62672 -3.7344,-8.74572 1.6048,-10.93295c9.31734,-3.81695 26.90646,-3.77287 40.65537,-4.36374z" fill="#000000" stroke="none" stroke-linecap="butt"/><path d="M458.46977,337.43535c2.46161,-0.27654 4.97679,-0.62366 7.50116,-1.14598c3.22136,-0.66654 10.9272,-1.822 7.53792,-2.52738c1.84891,0.19326 4.33544,0.41935 5.64564,0.45263c6.2074,0.15756 14.30346,-0.61049 20.69949,-0.88536c17.54724,-0.75412 34.68944,-1.69245 51.69757,-1.35563c7.68643,0.15222 9.78139,-1.4216 12.18246,0.56028c4.93592,3.28635 14.18869,6.03568 20.13943,9.30191c8.06507,4.42672 11.26201,8.92953 16.24542,13.50162c5.60824,3.70058 1.24352,11.48508 1.33596,15.86825c0.02474,1.17331 -1.49061,3.33475 0.00792,4.13479c-1.47057,0.10687 -2.89295,0.2089 -3.79825,0.2478c-6.01639,0.25856 -12.04315,0.52287 -18.05956,0.78142c-23.9324,1.02851 -51.85441,2.08682 -75.12326,1.18926c-27.62294,-0.83718 -57.72706,3.34309 -85.56749,2.72264c-15.24428,-0.25616 -31.87653,0.98109 -47.37817,1.65371c-7.86391,0.3412 -14.62502,-0.34783 -18.03749,1.61409c-0.89694,0.51567 -0.02762,-1.12474 -0.03945,-1.68591c-0.02958,-1.40291 -0.06812,-2.81232 -0.09771,-4.21527c-0.16569,-7.8565 -0.34312,-15.75929 -0.50881,-23.6158c-0.03918,-1.85733 1.32733,-8.58306 -1.77305,-9.16952c0.57857,-0.03619 1.23371,-0.08312 1.59366,-0.10719c3.18885,-0.21307 4.97668,-0.23527 7.45436,-0.9223c4.30149,-1.19268 18.91436,-1.06408 24.77533,-1.31595c22.77635,-0.97884 45.67326,-1.99634 68.44947,-2.97517c0,0 5.18213,-0.22559 5.14663,-1.90911c-0.00146,-0.06912 -0.01089,-0.13507 -0.02893,-0.19788z" fill="#d2d2d2" stroke="none" stroke-linecap="butt"/><path d="M530.89355,340.50053c-0.00411,-0.19523 -0.08246,-0.51909 -0.15751,-0.83732c-0.26288,0.14173 -0.65676,0.26992 -1.16427,0.38629c-1.51721,0.57299 -3.8352,0.67262 -3.8352,0.67262c-19.64263,0.84415 -30.89361,5.80099 -37.7384,10.80077c-0.80566,0.56851 -0.71993,1.20805 -0.70736,1.8044c0.00358,0.16967 -0.04042,0.44143 -0.08883,0.7227c0.05005,-0.09206 0.17813,-0.1714 0.44106,-0.23009c1.162,-0.25939 11.32896,0.58557 12.55769,-0.20488c0.36925,-0.23755 -1.83967,-0.18438 -1.72315,-0.43937c1.43304,-3.1349 17.21947,-8.46202 25.00099,-10.0722c2.01819,-0.41763 4.29448,-0.68194 6.55929,-0.85548c-0.89558,-0.41244 0.86764,-1.17842 0.85564,-1.74739zM487.17767,354.1905c-0.10433,0.60354 -0.19606,1.18011 0.14862,0.82031c0.23561,-0.24588 -0.11866,-0.56163 -0.14862,-0.82031zM478.74165,350.41349c7.27461,-4.85271 16.98967,-9.40987 32.23092,-11.69423c1.41946,-0.7937 4.37938,-0.92094 4.37938,-0.92094l2.57844,-0.11082c5.8384,-0.25092 8.91322,-1.04768 15.18445,-1.31719c8.70919,-0.37427 10.84725,5.19257 6.32796,7.04398c-2.85185,1.16827 -7.45442,1.7092 -11.28824,2.50252c-11.34833,2.34819 -15.46094,7.87126 -27.8827,11.06527c-13.16553,3.3852 -27.85416,-2.10627 -21.53017,-6.56855z" fill="#000000" stroke="none" stroke-linecap="butt"/><path d="M530.92647,339.59858c0.0752,0.31822 0.16554,0.64624 0.16965,0.84147c0.01199,0.56895 -1.72987,1.34439 -0.83428,1.75685c-2.26483,0.17356 -4.55433,0.43157 -6.5726,0.8492c-7.78162,1.61016 -23.64519,6.91701 -25.07817,10.05192c-0.11663,0.25504 1.85051,0.36022 1.48121,0.59779c-1.22873,0.79044 -11.48404,-0.07291 -12.64602,0.18648c-0.26307,0.05875 -0.38993,0.13845 -0.43987,0.23054c0.04841,-0.28127 0.08284,-0.55651 0.07925,-0.72618c-0.01257,-0.59632 -0.12104,-1.24664 0.68461,-1.81512c6.84474,-4.99978 18.50319,-10.07304 38.14579,-10.91719c0,0 2.3286,-0.09644 3.84577,-0.66946c0.50757,-0.1164 0.90163,-0.24452 1.16437,-0.38626z" fill="#ffffff" stroke="none" stroke-linecap="butt"/></g><g><path d="M29.23899,342.63253l-21.2114,-253.7459l289.46384,-17.08414l-3.08742,-40.57937l295.59049,-23.95296l25.55498,287.76786z" fill="#b8b19e" stroke="#000000" stroke-width="1" stroke-linecap="round"/><path d="M24.35743,291.61734l586.71975,-50.24714l3.1524,54.14276l-587.19286,48.11094z" fill="#a28f80" stroke="#000000" stroke-width="1" stroke-linecap="round"/><path d="M289.75039,307.25262l-49.37173,4.6481l-9.98482,-112.13999l48.47744,-4.57207z" fill="#e6e6e6" stroke="#000000" stroke-width="1" stroke-linecap="round"/><path d="M280.23244,301.24988l-35.56721,2.79883l-8.2496,-99.6769l37.27976,-3.84519z" fill="#121212" stroke="#000000" stroke-width="1" stroke-linecap="round"/><path d="M281.61665,301.63888l-36.88964,3.13645l-7.80356,-86.48493l37.95048,-3.90223z" fill="#755943" stroke="#000000" stroke-width="1" stroke-linecap="round"/><path d="M341.81041,194.51011l227.09821,-17.28176l12.21015,122.42212l-230.02366,17.3053z" fill="#8b7a60" stroke="#000000" stroke-width="1" stroke-linecap="round"/><path d="M342.01884,204.90741l213.32944,-16.33629l11.38802,112.75256l-215.49727,15.33836z" fill="#d2c9c2" stroke="#000000" stroke-width="1" stroke-linecap="round"/><path d="M342.54294,209.08517l207.88763,-16.77438l2.07738,16.48742l-208.81541,19.10516z" fill="#2d241d" stroke="#000000" stroke-width="1" stroke-linecap="round"/><path d="M493.59027,43.56413l5.09349,70.5017l-88.79672,7.09933l-6.65849,-70.36863l91.66515,-7.79361z" fill="#4a413a" stroke="#000000" stroke-width="1" stroke-linecap="round"/><path d="M565.88973,99.3442l-24.16495,1.82939l-5.19934,-55.85537l27.40449,-3.45595z" fill="#4a413a" stroke="#000000" stroke-width="1" stroke-linecap="round"/><path d="M323.42732,182.89951l-165.821,-104.91424l-152.89051,135.89641l-11.84851,-9.57652l163.66638,-140.92233l173.09756,107.7297z" fill="#e6e6e6" stroke="#000000" stroke-width="1" stroke-linecap="round"/><path d="M164.21694,280.8821l-93.47275,7.7221l-6.92461,-73.49866l95.59443,-9.25363z" fill="#4a413a" stroke="#000000" stroke-width="1" stroke-linecap="round"/><path d="M88.79709,95.03879l2.10998,24.81665l-16.96891,14.95413l-22.76648,2.38603l-3.79723,-42.0128l41.02686,-2.81264z" fill="#4a413a" stroke="#000000" stroke-width="1" stroke-linecap="round"/><path d="M298.01504,54.84418l-0.10134,17.34822l-312.35915,21.60339l-12.2477,-14.27157l323.21693,-25.00365z" fill="#e6e6e6" stroke="#000000" stroke-width="1" stroke-linecap="round"/><path d="M263.93717,23.51273l355.40587,-31.11827l-3.42599,12.67672l-345.70167,28.71686z" fill="#e6e6e6" stroke="#000000" stroke-width="1" stroke-linecap="round"/><path d="M121.70716,68.93356l-6.1615,-72.46904l96.28642,-7.73615l6.39193,72.53061z" fill="#a09986" stroke="#000000" stroke-width="1" stroke-linecap="round"/><path d="M183.04527,40.15467l-31.52385,2.68024l-3.92123,-38.17405l35.10105,-2.98438z" fill="#4a413a" stroke="#000000" stroke-width="1" stroke-linecap="round"/><path d="M226.95067,-12.89482l-124.06429,10.77345l-5.75501,-9.41904l131.92285,-13.69351z" fill="#e6e6e6" stroke="#000000" stroke-width="1" stroke-linecap="round"/><path d="M255.42136,128.2299c-0.4674,-0.58655 0.11915,-1.05394 0.11915,-1.05394l0.22085,-0.15002c-0.02288,-0.03685 -0.04539,-0.07393 -0.06737,-0.11129c-0.84351,-1.43366 -1.80007,-2.94768 -2.29763,-4.54767c-0.14786,-0.47546 -0.20142,-0.97745 -0.3567,-1.45055c-0.15777,-0.48071 -0.4336,-0.91836 -0.57977,-1.40273c-0.14824,-0.49122 -0.17967,-1.01096 -0.29918,-1.50995c-0.09388,-0.39196 -0.26064,-0.76515 -0.34037,-1.16023c-0.16132,-0.79924 -0.14199,-1.62451 -0.21107,-2.43693c-0.17569,-2.0664 -0.35138,-4.13282 -0.52707,-6.19922l-0.06449,-0.75854c-0.03509,-0.41272 0.27105,-0.77575 0.68377,-0.81084c0.17535,-0.01491 0.34172,0.03177 0.47779,0.12205l1.25218,0.81365c0.46316,0.23098 2.04565,1.38121 2.48517,1.66442c0.66562,0.4289 1.32784,0.86389 2.00888,1.26785c0.40506,0.24026 0.84496,0.41782 1.25207,0.65459c0.33989,0.19768 0.63001,0.48062 0.9862,0.64715c0.41955,0.19616 0.87832,0.29444 1.32073,0.43146c0.69818,0.21625 1.38847,0.46522 2.10155,0.6256c0.30957,0.06962 0.62989,0.07779 0.94371,0.12467c0.9205,0.13749 1.84101,0.28698 2.76891,0.35926c0.50898,0.03964 1.02222,0.02548 1.52916,0.08585c0.47909,0.05705 0.9443,0.20413 1.42282,0.26569c0.94876,0.12206 1.91324,0.02498 2.86901,0.0645c0.98942,0.04092 1.98267,0.29156 2.96279,0.4232c0.30994,0.04266 0.61711,0.11848 0.92982,0.12798c0.76418,0.02319 1.53032,-0.15033 2.29203,-0.08474c0.99918,0.08605 1.97314,0.38822 2.9736,0.45781c1.19314,0.083 2.50336,-0.05773 3.68924,-0.15878c0.6666,-0.0568 1.34427,-0.03402 2.00023,-0.16557c0.3277,-0.06572 0.62899,-0.23473 0.95684,-0.29965c0.32005,-0.06337 0.65498,-0.02077 0.97527,-0.08292c0.56858,-0.11033 1.08109,-0.42406 1.64213,-0.56793c0.40055,-0.10271 0.81761,-0.12836 1.22102,-0.21919c1.82816,-0.41164 3.60978,-1.03423 5.43792,-1.44387c0.02171,-0.00487 2.9376,-0.5488 2.97853,-0.55643c0.43181,-0.07991 0.87116,-0.12645 1.29545,-0.23973c0.47163,-0.12592 0.91932,-0.32942 1.38497,-0.47591c0.84477,-0.26577 1.69748,-0.5067 2.55375,-0.73267c0.9418,-0.24855 1.90171,-0.45774 2.82503,-0.77418c0.35946,-0.12319 0.69907,-0.30071 1.06027,-0.41867c0.46702,-0.15251 0.96082,-0.21931 1.4209,-0.39158c0.46937,-0.17576 0.88631,-0.47506 1.35656,-0.64846c0.46273,-0.17062 0.97193,-0.19673 1.43016,-0.37909c0.084,-0.03343 2.42181,-1.34653 2.48016,-1.38582c1.15178,-0.77569 2.24798,-1.8054 3.22233,-2.79065c0.36792,-0.37205 0.6737,-0.80735 1.0719,-1.14679c0.32955,-0.28091 0.77596,-0.40646 1.09445,-0.69984c0.33754,-0.31093 0.56235,-0.72541 0.84513,-1.08686c0.40786,-0.52132 0.83121,-1.03047 1.25787,-1.53652c2.7912,-3.27368 6.72992,-5.80944 8.86153,-9.67138l0.09016,-0.05334l-0.02403,-0.02365l0.70033,-0.7117c0.12145,-0.12492 0.28674,-0.20832 0.47398,-0.22424c0.41272,-0.03509 0.77575,0.27105 0.81084,0.68377c0.00343,0.04029 0.0036,0.08011 0.00074,0.11921l-0.04313,0.75488l-0.01385,-0.00079c0.00185,0.02978 0.003,0.05965 0.00342,0.08961c0.0057,0.40739 -0.24962,0.77615 -0.352,1.1705c-0.12985,0.50013 -0.19358,1.01515 -0.2971,1.52138c-0.18457,0.90253 -0.31004,1.24782 -0.33339,2.17649c-0.00127,0.05065 -0.00188,0.1014 -0.00186,0.15223c0.31182,0.16098 0.38638,0.53753 0.38638,0.53753c0.25817,1.30725 0.53324,2.66179 0.56218,4.00064c0.01091,0.50472 -0.05676,1.009 -0.04803,1.51376c0.01392,0.80519 0.14519,1.60529 0.16314,2.41039c0.00106,0.04779 0.00204,0.09558 0.00295,0.14339c0.09024,0.19227 0.17528,0.38511 0.16935,0.59185c-0.01328,0.4628 -0.07081,0.79228 -0.16431,1.06801c-0.00816,0.90858 -0.02863,1.81786 -0.03392,2.72414c-0.01048,1.79291 0.08972,3.63547 -0.12508,5.42047c-0.03937,0.32714 -0.36776,2.08076 -0.4412,2.56936c-0.08084,0.53781 -0.04532,1.10161 -0.21992,1.61666c-0.14586,0.43024 -1.39509,2.3591 -1.65297,2.7671c-2.10877,2.57257 -3.83642,5.42247 -5.98192,7.96673c-0.57228,0.67863 -1.17629,1.33062 -1.79313,1.96902c-0.20359,0.21071 -0.38612,0.44436 -0.61223,0.63069c-0.37011,0.30503 -1.60815,1.14294 -2.0948,1.51554c-1.03132,0.78963 -2.01495,1.59576 -3.07057,2.35475c-0.30429,0.21878 -0.58375,0.47791 -0.91464,0.65388c-0.45783,0.24347 -0.96623,0.37851 -1.4367,0.59656c-0.85309,0.39538 -1.64455,0.91845 -2.50706,1.29285c-0.07999,0.03472 -2.09986,0.76928 -2.42289,0.88692c-1.72091,0.3675 -3.44745,0.71909 -5.14108,1.20196c-2.06734,0.58942 -4.11577,1.25851 -6.21504,1.73446c-1.71435,0.38868 -3.48479,0.77972 -5.23001,0.9977c-0.39497,0.04933 -0.7956,0.04621 -1.18984,0.10106c-0.98866,0.13755 -1.95705,0.40054 -2.94543,0.54016c-2.18963,0.30932 -4.38569,0.38757 -6.59228,0.37614c-1.00677,-0.04812 -2.0098,-0.15749 -3.01595,-0.21718c-2.00477,-0.11891 -4.02438,-0.15806 -6.02319,-0.37745c-0.44952,-0.04934 -1.89545,-0.32325 -2.48318,-0.40506c-0.49919,-0.06949 -1.00293,-0.1058 -1.50062,-0.18536c-0.79798,-0.12757 -1.57813,-0.358 -2.37872,-0.46798c-0.50853,-0.06986 -1.02901,-0.0543 -1.53185,-0.15747c-0.79664,-0.16345 -2.18552,-0.71716 -2.95111,-1.00533c-0.80361,-0.30249 -2.04782,-0.70916 -2.72217,-1.24645c-0.59489,-0.47397 -1.17097,-1.34861 -1.61948,-2.00422c-0.81341,-1.18901 -1.51867,-2.41071 -2.2288,-3.66266c-0.13781,-0.49307 -0.23973,-0.99761 -0.41343,-1.4792c-0.43245,-1.19898 -0.69567,-1.3654 -1.22618,-2.50331c-0.09064,-0.19441 -0.15707,-0.39938 -0.22915,-0.6018l-0.00549,0.00997c0,0 -0.58655,0.4674 -1.05394,-0.11915zM257.9432,127.99784c0.03943,0.10683 0.08119,0.21266 0.12925,0.31571c0.41044,0.88013 0.94244,1.70729 1.27409,2.62004c0.16667,0.4587 0.25816,0.94131 0.38725,1.41198c0.67093,1.15465 1.32793,2.28906 2.08207,3.39282c0.33466,0.4898 0.88902,1.33672 1.31292,1.67576c0.47664,0.38121 1.77998,0.81609 2.31913,1.01856c0.60786,0.22828 2.06471,0.80697 2.72223,0.93947c0.4771,0.09615 0.97083,0.07749 1.45301,0.14361c0.80609,0.11054 1.59167,0.34228 2.39513,0.47051c0.48979,0.07818 0.98559,0.11334 1.47684,0.18175c0.4196,0.05843 2.1913,0.37231 2.43367,0.3988c1.97426,0.21578 3.96857,0.25371 5.94869,0.37116c0.98974,0.05871 1.97632,0.16779 2.96667,0.21507c2.12314,0.01021 4.23594,-0.06427 6.34292,-0.36191c0.99197,-0.14013 1.96405,-0.40311 2.95624,-0.54165c0.39565,-0.05525 0.7977,-0.05249 1.19416,-0.10163c1.69491,-0.21009 3.41583,-0.59354 5.08077,-0.97043c2.07844,-0.47048 4.10577,-1.13496 6.15246,-1.71829c1.69117,-0.482 3.41355,-0.83699 5.13285,-1.19962c0.74435,-0.27433 1.50678,-0.50317 2.23455,-0.81883c0.85354,-0.37021 1.63549,-0.89018 2.47996,-1.28063c0.43701,-0.20205 0.91104,-0.32197 1.33723,-0.54594c0.27997,-0.14713 0.51024,-0.37388 0.76631,-0.55951c0.62515,-0.4532 1.25083,-0.90659 1.8547,-1.38778c1.0408,-0.82936 2.17869,-1.55828 3.20581,-2.39947c0.19221,-0.15742 0.34295,-0.35958 0.51518,-0.53864c0.59234,-0.61579 1.17543,-1.24169 1.72626,-1.89489c2.12104,-2.51521 3.82354,-5.3373 5.91227,-7.87753c0.07991,-0.12693 1.38127,-2.16916 1.44782,-2.3682c0.14465,-0.43266 0.09425,-0.90771 0.1579,-1.35944c0.06744,-0.4787 0.39164,-2.16621 0.43536,-2.52592c0.20953,-1.72458 0.10467,-3.5111 0.11444,-5.24328c-0.5036,0.90297 -1.00105,1.81044 -1.49024,2.71999c-0.44565,0.67586 -0.92446,1.32942 -1.4009,1.98392c-0.83228,1.14334 -1.60952,2.32434 -2.66977,3.2789c-0.37865,0.3409 -0.78754,0.64667 -1.1779,0.97409c-0.21642,0.18152 -0.40419,0.40081 -0.64237,0.55266c-0.60189,0.38371 -1.28827,0.62744 -1.87615,1.03229c-0.41714,0.28726 -0.79509,0.63063 -1.22261,0.90223c-0.0542,0.03444 -2.58085,1.39799 -2.67159,1.44918c-0.24883,0.14038 -1.88128,1.12833 -2.25461,1.28363c-0.46783,0.1946 -0.96422,0.31175 -1.44578,0.46931c-1.21722,0.39825 -2.43188,0.80394 -3.64678,1.20915c-0.45642,0.15223 -0.92612,0.26913 -1.36963,0.45567c-0.44351,0.18654 -0.8557,0.4402 -1.28356,0.66029c-1.93833,0.99332 -3.95463,2.09012 -6.06909,2.66081c-1.45504,0.39272 -2.95357,0.70068 -4.42318,1.03815c-0.74822,0.17181 -1.47483,0.43589 -2.22894,0.57974c-0.50878,0.09705 -1.03029,0.10806 -1.54468,0.16874c-1.50528,0.17755 -3.00869,0.44307 -4.52529,0.50979c-1.31755,0.05797 -2.64457,-0.06018 -3.96142,0.0095c-1.98297,0.10493 -3.96884,0.33808 -5.94759,0.50632c-1.51275,0.12848 -3.07837,0.22281 -4.57207,0.49543c-0.50907,0.09291 -1.00373,0.26353 -1.51689,0.33033c-0.29098,0.03788 -0.58669,-0.01625 -0.88011,-0.01829c-0.51076,-0.00354 -1.02643,0.07205 -1.53231,0.00154c-0.37839,-0.05274 -0.71836,-0.26242 -1.08596,-0.36651c-0.47857,-0.13551 -0.99357,-0.08298 -1.48103,-0.18187c-0.38941,-0.07899 -0.75203,-0.26379 -1.14093,-0.34526c-0.36358,-0.07616 -0.74511,-0.04322 -1.10731,-0.12569c-0.4457,-0.1015 -0.85317,-0.34979 -1.3043,-0.42348c-0.40265,-0.06577 -0.81622,0.02599 -1.22391,0.01051c-0.20568,-0.00781 -2.4247,-0.19388 -2.65428,-0.23706c-0.28871,-0.05431 -0.55452,-0.19569 -0.83782,-0.27341c-1.24768,-0.34224 -2.59962,-0.7506 -3.89422,-0.82228c-0.31727,0.02697 -0.59672,0.03581 -0.86493,0.05004zM257.24419,126.56501c0.48872,-0.05709 0.96469,-0.06789 1.54313,-0.11707c1.4544,0.08498 2.92328,0.49339 4.32739,0.87993c0.24914,0.06859 0.48061,0.19992 0.73455,0.24779c0.13291,0.02506 2.3651,0.20443 2.40416,0.20603c0.4647,0.01908 0.93599,-0.06733 1.39524,0.00612c0.47935,0.07666 0.9151,0.33188 1.38856,0.43904c0.35884,0.08122 0.73674,0.04795 1.09682,0.12348c0.37537,0.07875 0.72435,0.26029 1.10006,0.33739c0.52967,0.10869 1.08761,0.06506 1.60843,0.21034c0.31984,0.08922 0.60944,0.28861 0.9383,0.33456c0.4304,0.06014 0.86899,-0.02208 1.30357,-0.02128c0.24125,0.00044 0.48429,0.05765 0.72334,0.02501c0.47809,-0.06528 0.93791,-0.22959 1.41251,-0.31665c1.53293,-0.28122 3.13947,-0.37838 4.69194,-0.51051c1.99922,-0.16998 4.00572,-0.40518 6.00927,-0.51028c1.31706,-0.06909 2.64367,0.04777 3.96127,-0.00949c1.47967,-0.0643 2.94729,-0.32965 4.41604,-0.501c0.4788,-0.05586 0.96462,-0.0618 1.4381,-0.15233c0.73586,-0.14069 1.44435,-0.40053 2.1745,-0.5683c1.44194,-0.3313 2.90994,-0.63402 4.33849,-1.01607c2.02144,-0.54061 3.95406,-1.60676 5.8054,-2.55582c0.46207,-0.23603 0.90791,-0.50693 1.38619,-0.70809c0.47827,-0.20116 0.9836,-0.33073 1.47556,-0.49559c1.21774,-0.40808 2.43606,-0.81597 3.65755,-1.21271c0.43811,-0.1423 0.89059,-0.24471 1.3164,-0.42042c0.24429,-0.10081 2.10449,-1.20866 2.11139,-1.21255c0.85956,-0.48487 1.77162,-0.87861 2.60407,-1.40868c0.41628,-0.26507 0.78286,-0.60193 1.18997,-0.88087c0.58929,-0.40376 1.27277,-0.653 1.87753,-1.03321c0.19164,-0.12049 0.33487,-0.30484 0.50784,-0.45088c0.37478,-0.31644 0.7697,-0.60919 1.13514,-0.93636c0.98488,-0.88177 1.69676,-1.99304 2.46763,-3.05183c0.45071,-0.61907 0.90656,-1.23516 1.32864,-1.87411c0.70646,-1.31607 1.4289,-2.63142 2.16889,-3.92834c0.20862,-0.36563 0.47652,-0.68518 0.64574,-1.05508c0.00195,-0.35699 0.00145,-0.7138 -0.0032,-1.07021c-0.02912,-0.04748 -0.05585,-0.09572 -0.07401,-0.14615c-0.30503,-0.84707 -0.42652,-1.37247 -0.54429,-2.28767c-0.14999,-1.1656 -0.13512,-2.27119 -0.18301,-3.43622c-0.04306,-1.04741 -0.2955,-2.12691 -0.26776,-3.17599c0.02931,-1.1089 0.14968,-1.41726 0.36329,-2.46692c0.00237,-0.01166 0.01811,-0.09192 0.04137,-0.21069c-2.23558,2.8747 -5.34238,5.0665 -7.63546,7.82153c-0.41636,0.49365 -0.82506,0.99382 -1.22729,1.49904c-0.33702,0.42332 -0.61806,0.8988 -1.01391,1.26771c-0.33123,0.30869 -0.79449,0.44607 -1.13955,0.73921c-0.36335,0.30867 -0.63424,0.71254 -0.96898,1.05203c-1.04134,1.05612 -2.21861,2.1489 -3.45034,2.97955c-0.17058,0.11503 -2.58559,1.46391 -2.761,1.5345c-0.47016,0.18924 -0.99307,0.21842 -1.46856,0.39385c-0.46798,0.17266 -0.88264,0.47118 -1.34982,0.64595c-0.47646,0.17826 -0.98677,0.25095 -1.47028,0.40909c-0.3583,0.11719 -0.69502,0.29383 -1.05172,0.41577c-0.9598,0.32814 -1.95563,0.54885 -2.93447,0.80698c-0.83139,0.21925 -1.65914,0.45369 -2.47944,0.71139c-0.48832,0.15341 -0.9587,0.3641 -1.45336,0.49565c-0.45948,0.12219 -0.93451,0.17573 -1.40176,0.26359c-0.97318,0.18161 -1.95361,0.32786 -2.91965,0.54422c-1.8319,0.41028 -3.61723,1.03442 -5.44934,1.44644c-0.37788,0.08498 -0.76917,0.10486 -1.14455,0.20023c-0.59759,0.15183 -1.14739,0.47198 -1.7518,0.59381c-0.31983,0.06447 -0.65522,0.01955 -0.97527,0.08292c-0.32786,0.06492 -0.62884,0.23546 -0.95684,0.29965c-0.05475,0.01072 -2.13834,0.1863 -2.16256,0.18836c-1.26626,0.10743 -2.6477,0.2491 -3.92041,0.16055c-0.71017,-0.0494 -2.22373,-0.39087 -2.95629,-0.45671c-0.75671,-0.06802 -1.51831,0.10988 -2.27768,0.08549c-0.3554,-0.01141 -0.70505,-0.09309 -1.05757,-0.13964c-0.93275,-0.12591 -1.89397,-0.37613 -2.83579,-0.41157c-0.99455,-0.03742 -1.99735,0.04967 -2.98481,-0.07466c-0.47556,-0.05988 -0.93748,-0.20765 -1.41341,-0.26452c-0.99524,-0.11893 -2.00377,-0.10587 -2.99784,-0.23424c-0.79704,-0.10293 -1.59993,-0.18312 -2.38406,-0.35921c-0.75485,-0.16951 -1.48801,-0.42496 -2.22564,-0.65829c-0.51187,-0.16192 -1.03997,-0.28636 -1.52691,-0.51245c-0.39317,-0.18255 -0.71825,-0.4868 -1.09334,-0.70411c-0.41046,-0.2378 -0.85295,-0.41775 -1.26092,-0.65981c-0.40394,-0.23966 -0.77403,-0.53267 -1.17128,-0.78326c-0.71271,-0.44958 -1.4248,-0.90051 -2.125,-1.36935c-0.40172,-0.26898 -0.86279,-0.46069 -1.22034,-0.78496c0.15365,1.80714 0.3073,3.61429 0.46094,5.42143c0.06478,0.76193 0.03588,1.53723 0.1905,2.2861c0.07601,0.36812 0.23562,0.71483 0.32306,1.08041c0.11327,0.47355 0.13746,0.96786 0.27839,1.43393c0.143,0.47292 0.41489,0.8992 0.56902,1.36861c0.15663,0.47703 0.21342,0.98241 0.36055,1.46245c0.45648,1.48943 1.37914,2.9097 2.16066,4.24163c0.082,0.13976 0.17005,0.27608 0.25815,0.41234z" fill="#000000" stroke="none" stroke-width="0.5" stroke-linecap="butt"/><path d="M258.85803,127.94457c1.2946,0.07168 2.64642,0.47847 3.89409,0.82072c0.2833,0.07771 0.54906,0.21857 0.83777,0.27287c0.22957,0.04319 2.4485,0.22841 2.65418,0.23622c0.40769,0.01549 0.82123,-0.07652 1.22388,-0.01074c0.45113,0.07369 0.85847,0.32095 1.30417,0.42244c0.3622,0.08248 0.74365,0.04901 1.10722,0.12517c0.3889,0.08147 0.75134,0.26527 1.14076,0.34427c0.48746,0.09889 1.00229,0.04546 1.48087,0.18098c0.36759,0.10409 0.70732,0.31258 1.08571,0.36533c0.50588,0.07052 1.02138,-0.00583 1.53214,-0.00228c0.29343,0.00204 0.589,0.05565 0.87999,0.01777c0.51315,-0.0668 1.00779,-0.23755 1.51686,-0.33046c1.4937,-0.27262 3.05874,-0.36903 4.5715,-0.49751c1.97875,-0.16824 3.96231,-0.40754 5.94528,-0.51247c1.31685,-0.06968 2.63664,0.03697 3.95419,-0.02099c1.51661,-0.06672 2.98326,-0.3501 4.48853,-0.52765c0.51439,-0.06068 1.01383,-0.06731 1.52262,-0.16436c0.7541,-0.14385 1.46053,-0.3914 2.20877,-0.56321c1.46962,-0.33747 2.95975,-0.62596 4.41479,-1.01868c2.11445,-0.57069 4.12998,-1.65409 6.06831,-2.64741c0.42785,-0.2201 0.84022,-0.47195 1.28373,-0.65849c0.44351,-0.18654 0.9133,-0.30256 1.36974,-0.45478c1.21491,-0.40521 2.42983,-0.80917 3.64704,-1.20742c0.48156,-0.15755 0.97805,-0.2742 1.44587,-0.46881c0.37332,-0.15528 2.00612,-1.14151 2.25495,-1.28189c0.09073,-0.05119 2.61774,-1.41323 2.67194,-1.44766c0.42752,-0.27158 0.80572,-0.61399 1.22287,-0.90125c0.58789,-0.40484 1.27448,-0.64778 1.87637,-1.0315c0.23818,-0.15184 0.42611,-0.3706 0.64253,-0.55212c0.39037,-0.32742 0.79952,-0.63233 1.17817,-0.97323c1.06025,-0.95456 1.83853,-2.1326 2.67081,-3.27594c0.47644,-0.65452 0.95591,-1.30647 1.40156,-1.98233c0.48919,-0.90954 1.07762,-1.85846 1.58123,-2.76142c-0.00978,1.73219 0.09736,3.5242 -0.11217,5.24878c-0.0437,0.35972 -0.36704,2.05003 -0.43448,2.52874c-0.06364,0.45174 -0.01282,0.92841 -0.15747,1.36107c-0.06654,0.19904 -1.36733,2.24394 -1.44724,2.37088c-2.08874,2.54023 -3.79044,5.37374 -5.91148,7.88895c-0.55082,0.65318 -1.13421,1.28264 -1.72655,1.89843c-0.17224,0.17906 -0.3231,0.3823 -0.51532,0.53972c-1.02712,0.84119 -2.16614,1.57573 -3.20694,2.4051c-0.60387,0.4812 -1.23066,0.93832 -1.85582,1.39151c-0.25607,0.18563 -0.48693,0.414 -0.7669,0.56113c-0.4262,0.22397 -0.90109,0.346 -1.3381,0.54805c-0.84447,0.39044 -1.62886,0.91527 -2.48239,1.28547c-0.72777,0.31566 -1.49286,0.54864 -2.2372,0.82297c-1.7193,0.36263 -3.45037,0.72701 -5.14154,1.20901c-2.04669,0.58333 -4.09256,1.25759 -6.17101,1.72807c-1.66495,0.37688 -3.40361,0.76201 -5.09853,0.97211c-0.39646,0.04914 -0.80244,0.04589 -1.19809,0.10114c-0.99219,0.13854 -1.97276,0.39933 -2.96473,0.53947c-2.10698,0.29765 -4.23315,0.36497 -6.35629,0.35476c-0.99035,-0.04727 -1.98142,-0.16016 -2.97116,-0.21886c-1.98011,-0.11745 -3.98033,-0.16212 -5.95459,-0.3779c-0.24238,-0.02649 -2.01588,-0.34302 -2.43549,-0.40146c-0.49125,-0.06841 -0.98791,-0.105 -1.47771,-0.18317c-0.80347,-0.12823 -1.59033,-0.36231 -2.39643,-0.47285c-0.48218,-0.06612 -0.97648,-0.04859 -1.45358,-0.14474c-0.65752,-0.1325 -2.1156,-0.71395 -2.72347,-0.94223c-0.53915,-0.20247 -1.84341,-0.63975 -2.32005,-1.02096c-0.42391,-0.33904 -0.97912,-1.1886 -1.31378,-1.6784c-0.75415,-1.10376 -1.41234,-2.24316 -2.08327,-3.39782c-0.12909,-0.47066 -0.22089,-0.95519 -0.38756,-1.41389c-0.33165,-0.91275 -0.86404,-1.74348 -1.27448,-2.62361c-0.04806,-0.10306 -0.08984,-0.2093 -0.12928,-0.31612c0.26821,-0.01422 0.64746,-0.02951 0.96472,-0.05648z" fill="#ffffff" stroke="none" stroke-width="0.5" stroke-linecap="butt"/><path d="M256.93963,126.17128c-0.78152,-1.33193 -1.70603,-2.75777 -2.16251,-4.2472c-0.14713,-0.48004 -0.20437,-0.98724 -0.36101,-1.46426c-0.15413,-0.46941 -0.42639,-0.89745 -0.56939,-1.37037c-0.14092,-0.46606 -0.16542,-0.96216 -0.27869,-1.43569c-0.08744,-0.36558 -0.24725,-0.71363 -0.32325,-1.08175c-0.15462,-0.74888 -0.12599,-1.52697 -0.19077,-2.2889c-0.15365,-1.80714 -0.30734,-3.62089 -0.46098,-5.42803c0.35755,0.32427 0.91847,0.52114 1.32019,0.79013c0.7002,0.46884 1.41233,0.91808 2.12504,1.36767c0.39725,0.25059 0.76734,0.54254 1.17128,0.78221c0.40797,0.24206 0.85044,0.42106 1.2609,0.65886c0.37509,0.21729 0.70012,0.52049 1.0933,0.70304c0.48694,0.22608 1.01499,0.34963 1.52686,0.51155c0.73763,0.23333 1.47067,0.48746 2.22553,0.65697c0.78413,0.17608 1.58692,0.25525 2.38395,0.35818c0.99407,0.12838 2.00245,0.11417 2.99769,0.2331c0.47593,0.05688 0.93771,0.2037 1.41326,0.26358c0.98745,0.12433 1.99004,0.03597 2.98459,0.07339c0.94183,0.03544 1.90252,0.28321 2.83527,0.40912c0.35252,0.04654 0.70191,0.12717 1.05731,0.13859c0.75937,0.02439 1.52053,-0.15508 2.27724,-0.08706c0.73256,0.06585 2.24443,0.40253 2.9546,0.45193c1.27272,0.08854 2.65082,-0.05977 3.91708,-0.1672c0.02422,-0.00206 2.10403,-0.1831 2.15878,-0.19381c0.328,-0.06419 0.62712,-0.23694 0.95498,-0.30186c0.32005,-0.06337 0.65166,-0.02225 0.97149,-0.08671c0.60441,-0.12183 1.14495,-0.44858 1.74253,-0.60041c0.37539,-0.09537 0.75414,-0.12011 1.13201,-0.2051c1.83212,-0.41202 3.55937,-1.00602 5.39127,-1.4163c0.96604,-0.21636 1.94365,-0.35265 2.91684,-0.53425c0.46726,-0.08786 0.9419,-0.13868 1.40137,-0.26087c0.49465,-0.13154 0.96477,-0.33908 1.45309,-0.49249c0.8203,-0.25771 1.64797,-0.48888 2.47936,-0.70813c0.97884,-0.25813 1.97477,-0.47641 2.93457,-0.80455c0.3567,-0.12196 0.69349,-0.29756 1.0518,-0.41475c0.4835,-0.15814 0.99389,-0.23007 1.47034,-0.40831c0.46718,-0.17478 0.88199,-0.47203 1.34997,-0.64467c0.47549,-0.17542 0.99846,-0.20412 1.46863,-0.39336c0.17541,-0.0706 2.5908,-1.41713 2.76137,-1.53216c1.23173,-0.83065 2.40989,-1.91946 3.45124,-2.97558c0.33473,-0.33949 0.60598,-0.74211 0.96933,-1.05079c0.34507,-0.29314 0.80851,-0.42992 1.13973,-0.73861c0.39585,-0.36891 0.67733,-0.84304 1.01434,-1.26636c0.40223,-0.50522 0.81143,-1.00397 1.2278,-1.49762c2.29309,-2.75503 5.402,-4.94201 7.63757,-7.81669c-0.02325,0.11877 0.0505,0.15442 0.04813,0.16608c-0.2136,1.04967 -0.33296,1.3602 -0.36227,2.46911c-0.02774,1.04907 0.22605,2.13195 0.26909,3.17936c0.04789,1.16503 0.03421,2.27449 0.18421,3.44009c0.11777,0.91521 0.23992,1.4434 0.54495,2.29048c0.01816,0.05042 0.04493,0.09885 0.07404,0.14634c0.00465,0.35641 0.00538,0.71448 0.00343,1.07148c-0.16921,0.36989 -0.43693,0.69061 -0.64555,1.05624c-0.73999,1.29692 -1.46196,2.61703 -2.16841,3.93311c-0.42208,0.63894 -0.87785,1.25755 -1.32857,1.87661c-0.77087,1.0588 -1.48294,2.17461 -2.46783,3.05637c-0.36544,0.32717 -0.76053,0.6215 -1.1353,0.93794c-0.17296,0.14604 -0.31629,0.33119 -0.50793,0.45166c-0.60476,0.38021 -1.28856,0.63152 -1.87786,1.03529c-0.40711,0.27894 -0.77405,0.6176 -1.19033,0.88266c-0.83246,0.53007 -1.74539,0.92725 -2.60495,1.41212c-0.0069,0.00389 -1.86819,1.11501 -2.11247,1.21581c-0.4258,0.17571 -0.87892,0.27975 -1.31703,0.42204c-1.22149,0.39673 -2.44232,0.80984 -3.66006,1.21792c-0.49196,0.16486 -0.9987,0.2968 -1.47697,0.49797c-0.47827,0.20116 -0.92599,0.47483 -1.38806,0.71086c-1.85134,0.94907 -3.79506,2.02632 -5.8165,2.56693c-1.42855,0.38206 -2.90758,0.69082 -4.34952,1.02212c-0.73015,0.16776 -1.44517,0.42968 -2.18103,0.57036c-0.47347,0.09053 -0.96364,0.09733 -1.44244,0.15318c-1.46876,0.17136 -2.94983,0.43691 -4.4295,0.50122c-1.3176,0.05726 -2.65515,-0.0622 -3.97222,0.0069c-2.00355,0.1051 -4.02184,0.33419 -6.02105,0.50417c-1.55247,0.13214 -3.16471,0.22464 -4.69762,0.50586c-0.4746,0.08707 -0.93556,0.25027 -1.41365,0.31554c-0.23903,0.03264 -0.48279,-0.02529 -0.72404,-0.02574c-0.43458,-0.0008 -0.87429,0.08022 -1.30469,0.02007c-0.32886,-0.04596 -0.61949,-0.24655 -0.93933,-0.33577c-0.52083,-0.14528 -1.08006,-0.10329 -1.60975,-0.21198c-0.37571,-0.0771 -0.72564,-0.25993 -1.10101,-0.33867c-0.36008,-0.07554 -0.73868,-0.04328 -1.09752,-0.1245c-0.47346,-0.10717 -0.91022,-0.36394 -1.38957,-0.44059c-0.45925,-0.07344 -0.93115,0.01198 -1.39585,-0.0071c-0.03906,-0.00161 -2.27227,-0.18277 -2.40517,-0.20782c-0.25393,-0.04788 -0.48579,-0.17993 -0.73494,-0.24852c-1.40412,-0.38654 -2.87456,-0.79824 -4.32896,-0.88322c-0.57844,0.04918 -1.05466,0.0594 -1.54338,0.11648c-0.0881,-0.13627 -0.17637,-0.27315 -0.25838,-0.41291z" fill="#ffffff" stroke="none" stroke-width="0.5" stroke-linecap="butt"/><path d="M261.82329,81.03895c0.99641,-0.08469 2.00654,-0.16516 3.00233,-0.25688c0.22516,-0.02074 0.45327,-0.10168 0.67753,-0.07284c0.27383,0.03522 0.51503,0.2341 0.78983,0.26069c0.76395,0.07395 1.54578,-0.13859 2.31119,-0.08168c0.26524,0.01972 0.52095,0.13923 0.78652,0.15386c0.5089,0.02805 1.02506,-0.04295 1.53433,-0.02305c0.64545,0.02523 1.62666,0.25366 2.26399,0.26107c0.3902,0.00454 0.77904,-0.12003 1.16876,-0.10016c0.4128,0.02103 0.80998,0.19989 1.22246,0.22627c0.3315,0.02119 0.66361,-0.0533 0.99464,-0.08072c0.89456,0.12466 1.78263,0.28951 2.67698,0.41686c0.53318,0.07592 1.38576,0.05815 1.80789,0.55759c0.1955,0.2313 0.2756,0.54322 0.38608,0.82521c0.39131,0.99881 0.36409,2.07631 0.45377,3.13107c0.107,1.2585 0.19263,2.53293 0.11783,3.79739c-0.05043,0.85232 -0.48075,1.63207 -0.73112,2.42491c-0.21181,0.67079 -0.31018,1.39685 -0.64162,2.01732c-0.49512,0.9269 -1.21674,1.55048 -1.93812,2.28413c-0.23252,0.21154 -0.4295,0.47527 -0.69877,0.63746c-0.37035,0.22306 -0.80948,0.31537 -1.19633,0.50842c-0.44572,0.22243 -0.85403,0.52499 -1.30157,0.74373c-0.8952,0.43753 -1.84158,0.79056 -2.74263,1.2159c-0.83774,0.39545 -1.65634,0.86498 -2.51553,1.21131c-0.44076,0.17767 -0.91373,0.28593 -1.36328,0.44003c-0.45058,0.15445 -0.88734,0.37512 -1.34964,0.48982c-0.39554,0.09813 -0.81823,0.07658 -1.21963,0.147c-0.98016,0.17196 -1.96858,0.37158 -2.94188,0.57884c-0.42059,0.08956 -0.82992,0.2502 -1.25427,0.31986c-0.47305,0.07765 -0.96055,0.07723 -1.43824,0.11744c-0.96736,0.0814 -1.93982,0.20496 -2.90983,0.24378c-0.6041,0.02417 -1.79432,-0.14663 -2.26376,-0.20179c-0.34631,-0.04069 -0.70353,-0.03916 -1.04022,-0.12984c-0.26507,-0.07139 -0.48852,-0.25904 -0.74613,-0.3539c-0.29065,-0.10703 -0.59794,-0.16937 -0.89613,-0.25317c-0.80709,-0.37726 -1.6112,-0.68557 -2.28405,-1.28183c-0.23115,-0.20483 -0.53804,-0.35441 -0.68751,-0.62468c-0.17421,-0.315 -0.17725,-0.70127 -0.2417,-1.05542c-0.20355,-1.11848 -0.24986,-1.76933 -0.35207,-2.90408c-0.08913,-0.9895 -0.17154,-1.98852 -0.25571,-2.97846c-0.03378,-0.39734 -0.06614,-0.7984 -0.10163,-1.19558c-0.01936,-0.21661 -0.08353,-0.43478 -0.06323,-0.6513c0.07935,-0.84644 0.41595,-1.65929 0.5405,-2.50028c0.07296,-0.49261 0.05198,-1.00033 0.12032,-1.49359c0.04177,-0.3014 0.14499,-0.59393 0.2107,-0.89103c0.22264,-1.00656 0.22664,-1.33698 0.62774,-2.34038c0.30261,-0.75701 0.74091,-1.54089 1.19018,-2.22038c2.52154,-0.85468 6.47148,-0.55586 9.15326,-0.78387l0.10877,-0.00941c0,0 0.52313,-0.04559 0.65878,-0.4939c0.12293,-0.0103 0.24732,-0.02128 0.37022,-0.03172z" fill="#ffffff" stroke="none" stroke-width="0.5" stroke-linecap="butt"/><path d="M293.49312,79.77323c0.4999,-0.1376 0.9787,-0.3544 1.46885,-0.52349c0.03975,-0.01372 2.82951,-0.95406 2.85713,-0.9645c0.01683,-0.00637 2.76891,-1.16956 2.80238,-1.1837c0.44134,-0.18656 0.87447,-0.41465 1.32996,-0.56335c0.75286,-0.24578 1.57395,-0.29214 2.32342,-0.54808c0.94791,-0.3237 1.85373,-0.79492 2.80566,-1.10659c0.89995,-0.29466 1.84144,-0.48183 2.73994,-0.78089c1.34202,-0.44667 2.65967,-0.87064 4.03271,-1.22325c0.87616,-0.2848 1.73998,-0.62214 2.63185,-0.85307c1.4424,-0.37347 2.92246,-0.63378 4.37287,-0.97211c0.4549,-0.10612 0.90401,-0.23905 1.35126,-0.37385c0.15879,-0.04785 0.33773,-0.27642 0.46687,-0.17238c0.18776,0.15126 0.15389,0.46111 0.18744,0.69987c0.06503,0.46271 0.05125,0.93594 0.10967,1.39953c0.06383,0.50661 0.17385,1.00913 0.26003,1.51242c0.13002,0.75927 0.30539,1.51663 0.39383,2.28187c0.10283,0.88975 0.15365,1.79045 0.22953,2.6829c0.12513,1.47178 0.30028,2.95148 0.29033,4.43089c-0.01328,1.97283 -0.1941,3.98145 -0.3576,5.94646c-0.06002,0.72214 -0.08729,1.45257 -0.15887,2.17365c-0.01983,0.19973 -0.01962,0.41259 -0.10419,0.5946c-0.33663,0.7245 -0.99994,1.31665 -1.52685,1.87761c-0.2289,0.2437 -0.41299,0.54242 -0.68662,0.73454c-0.25872,0.18166 -0.60037,0.21226 -0.87668,0.36583c-0.43592,0.24227 -0.81383,0.58817 -1.25434,0.82199c-0.80927,0.42954 -1.69545,0.71726 -2.508,1.14055c-0.30451,0.15863 -0.59035,0.36015 -0.90366,0.50059c-0.38862,0.17421 -0.81889,0.25813 -1.2013,0.44559c-0.26525,0.13002 -0.46975,0.36896 -0.73239,0.50417c-0.33431,0.17211 -0.72083,0.23871 -1.0525,0.41586c-0.38688,0.20662 -0.69779,0.55359 -1.09793,0.73319c-0.37146,0.16673 -0.79846,0.18131 -1.18969,0.29408c-0.44496,0.12825 -0.87419,0.32785 -1.32546,0.43178c-0.28261,0.06509 -0.58721,0.00919 -0.86978,0.07448c-0.46454,0.10735 -0.8956,0.36103 -1.36546,0.44196c-0.45809,0.0789 -0.93422,0.02142 -1.3989,0.03385c-0.49982,0.01337 -1.00475,0.02925 -1.50454,0.04392c-0.28655,0.00924 -0.57629,0.04305 -0.86257,0.02743c-0.73588,-0.04013 -1.29117,-0.2307 -2.02397,-0.35828c-1.24158,-0.21618 -2.59703,-0.25571 -3.80255,-0.63785c-0.40249,-0.12759 -0.774,-0.35827 -1.18264,-0.46453c-0.24809,-0.06451 -0.52122,0.01895 -0.76944,-0.04505c-0.35748,-0.09218 -0.68305,-0.28898 -1.02799,-0.42052c-0.47662,-0.18174 -0.9586,-0.36092 -1.44192,-0.52398c-1.35386,-0.45678 -2.74997,-0.74841 -3.95685,-1.56417c-0.88092,-0.59543 -1.30004,-0.9113 -1.87257,-1.82336c-0.18334,-0.29207 -0.26714,-0.63924 -0.42095,-0.94788c-0.42113,-0.84507 -0.63682,-0.89456 -0.76125,-1.85945c-0.03219,-0.24958 0.02964,-0.50412 0.04471,-0.75531c-1.11274,-4.9798 2.71001,-9.26781 6.6174,-11.79111c0.30607,-0.05373 0.62199,-0.07037 0.92159,-0.15284z" fill="#ffffff" stroke="none" stroke-width="0.5" stroke-linecap="butt"/><path d="M275.78553,91.52891c-0.14036,-1.65089 1.08417,-3.103 2.73506,-3.24337c1.65089,-0.14036 3.103,1.08417 3.24337,2.73506c0.14036,1.65089 -1.08417,3.103 -2.73506,3.24337c-1.65089,0.14036 -3.103,-1.08417 -3.24337,-2.73506z" fill="#000000" stroke="none" stroke-width="0.5" stroke-linecap="butt"/><path d="M318.76384,85.75779c-0.14036,-1.65089 1.08417,-3.103 2.73506,-3.24337c1.65089,-0.14036 3.103,1.08417 3.24337,2.73506c0.14036,1.65089 -1.08417,3.103 -2.73506,3.24337c-1.65089,0.14036 -3.103,-1.08417 -3.24337,-2.73506z" fill="#000000" stroke="none" stroke-width="0.5" stroke-linecap="butt"/><path d="M281.66778,88.19446c-0.20765,-0.03433 -0.42768,-0.01044 -0.62634,-0.07997c-0.26394,-0.09238 -0.48216,-0.28631 -0.73861,-0.39778c-0.57771,-0.25109 -1.22448,-0.29765 -1.83054,-0.46935c-0.31095,-0.08809 -0.5896,-0.27137 -0.90071,-0.35889c-0.28112,-0.07909 -0.58096,-0.07085 -0.86519,-0.13791c-0.31802,-0.07503 -0.6163,-0.22573 -0.9372,-0.2873c-1.71938,-0.32989 -3.44734,0.13578 -5.1671,0.17499c-0.35135,0.00801 -0.70422,0.00633 -1.05395,-0.02823c-0.25352,-0.02505 -0.49531,-0.13167 -0.74941,-0.14997c-0.43115,-0.03104 -0.86115,0.07659 -1.29205,0.11095c-0.29511,-0.04767 -0.58709,-0.12275 -0.88534,-0.14302c-0.18084,-0.01228 -0.36097,0.05835 -0.54182,0.04607c-0.29825,-0.02027 -0.58678,-0.12794 -0.88534,-0.14302c-0.23311,-0.01177 -0.46485,0.04268 -0.69736,0.06305c-0.66709,0.05844 -1.36631,0.06673 -2.02804,0.17146c-0.28868,0.04569 -0.56841,0.14045 -0.8577,0.18207c-0.87442,0.12582 -1.76681,0.16078 -2.61926,0.43108c-0.32554,0.10323 -0.62235,0.29189 -0.95384,0.37401c-0.3418,0.08468 -0.70026,0.07575 -1.04931,0.12224c-0.61445,0.08187 -1.22333,0.20389 -1.83882,0.2776c-0.49445,0.05921 -0.99955,0.03151 -1.48872,0.12481c-0.32327,0.06166 -0.63073,0.19084 -0.95264,0.25922c-0.70057,0.14882 -1.42465,0.27059 -2.13814,0.32819c-0.37341,0.14472 -0.74474,0.295 -1.11338,0.45149c-0.00672,0.06495 -0.01467,0.12977 -0.02424,0.19439c-0.12455,0.84098 -0.46059,1.64622 -0.53994,2.49265c-0.0203,0.21653 0.04383,0.43274 0.06319,0.64935c0.03549,0.39718 0.06756,0.79466 0.10135,1.192c0.08417,0.98995 0.16481,1.98036 0.25394,2.96985c0.10221,1.13474 0.14557,1.77803 0.34912,2.89651c0.06445,0.35415 0.06612,0.73783 0.24035,1.05283c0.14947,0.27027 0.45509,0.41772 0.68625,0.62255c0.67285,0.59625 1.47288,0.89898 2.27999,1.27624c0.29818,0.08379 0.6039,0.14435 0.89455,0.25138c0.2576,0.09486 0.47938,0.28078 0.74445,0.35217c0.33669,0.09069 0.69191,0.0873 1.03822,0.12798c0.46943,0.05516 1.65448,0.22199 2.25859,0.19781c0.97001,-0.03882 1.93439,-0.16676 2.90175,-0.24817c0.47769,-0.04019 0.96013,-0.04164 1.43319,-0.11928c0.42435,-0.06966 0.8289,-0.2315 1.2495,-0.32107c0.9733,-0.20727 1.94839,-0.40776 2.92855,-0.57972c0.4014,-0.07042 0.81827,-0.04812 1.21381,-0.14626c0.4623,-0.1147 0.89241,-0.33364 1.34298,-0.48809c0.44955,-0.1541 0.91616,-0.25973 1.35692,-0.4374c0.85921,-0.34633 1.66703,-0.80863 2.50476,-1.20408c0.90106,-0.42533 1.83947,-0.76948 2.73468,-1.20701c0.44754,-0.21874 0.85305,-0.5168 1.29876,-0.73922c0.38685,-0.19305 0.82428,-0.282 1.19464,-0.50507c0.26928,-0.16219 0.46505,-0.42307 0.69757,-0.63461c0.72138,-0.73365 1.44049,-1.34829 1.9356,-2.27519c0.33144,-0.62047 0.42903,-1.33987 0.64085,-2.01066c0.25036,-0.79284 0.6809,-1.56513 0.73132,-2.41745c0.03564,-0.60235 0.03539,-1.20451 0.01381,-1.80601c-0.10429,-0.02095 -0.20876,-0.04091 -0.31369,-0.05826zM254.64233,80.40566c0.18411,-0.11954 0.38369,-0.13651 0.38369,-0.13651c0.45414,-0.03813 0.91175,-0.04658 1.36242,-0.11438c0.49855,-0.07501 0.97976,-0.24804 1.47969,-0.3132c0.3328,-0.04337 1.81029,-0.08353 2.36261,-0.12398c0.99318,-0.07273 1.9845,-0.16883 2.97675,-0.25319c0.4982,-0.04236 0.99615,-0.0878 1.49461,-0.12708c0.32563,-0.02566 0.65286,-0.10325 0.97756,-0.06774c0.27445,0.03001 0.51163,0.23162 0.78618,0.26059c0.28485,0.03007 0.56861,-0.07645 0.85483,-0.0874c0.47093,-0.01803 0.94368,-0.03221 1.41382,0.00055c0.26122,0.01821 0.50932,0.1374 0.77079,0.15167c0.4896,0.02672 0.98077,-0.04896 1.47071,-0.02936c0.73915,0.02958 1.46479,0.24878 2.20451,0.25512c0.4073,0.00349 0.81102,-0.1211 1.21781,-0.10054c0.4128,0.02086 0.80717,0.19719 1.21964,0.22374c0.3197,0.02058 0.63829,-0.05571 0.95744,-0.08357c0.95522,0.12499 1.90434,0.27852 2.85585,0.42771c1.09717,0.17203 1.87966,0.14124 2.69484,1.02791c0.32366,0.35206 0.47899,0.83054 0.66635,1.27054c0.48198,1.13186 0.45212,2.35576 0.55438,3.55857c0.1142,1.34316 0.20683,2.70357 0.11443,4.05249c-0.06653,0.97124 -0.50943,1.82699 -0.79541,2.73313c-0.23815,0.75458 -0.36886,1.55729 -0.74287,2.25458c-0.58461,1.08993 -1.38278,1.80403 -2.22872,2.66305c-0.30857,0.27106 -0.57636,0.59718 -0.92569,0.81317c-0.41233,0.25494 -0.89922,0.3653 -1.33238,0.58296c-0.44843,0.22533 -0.85784,0.52398 -1.30882,0.74418c-0.90131,0.44011 -1.84561,0.7873 -2.75257,1.21561c-0.86418,0.4081 -1.69912,0.88175 -2.58541,1.23931c-0.4654,0.18775 -0.95686,0.30326 -1.43184,0.46524c-0.49566,0.16903 -0.97159,0.40131 -1.47982,0.52769c-0.42645,0.10605 -0.87512,0.08924 -1.30788,0.16554c-0.9597,0.16922 -1.9146,0.36542 -2.86781,0.56798c-0.44214,0.09395 -0.86826,0.26071 -1.31438,0.33351c-0.51382,0.08384 -1.03732,0.09032 -1.55603,0.13487c-0.04257,0.00366 -2.95567,0.25175 -2.99487,0.25318c-0.69683,0.02544 -1.86844,-0.13309 -2.47467,-0.20852c-0.42556,-0.05295 -0.85985,-0.06651 -1.27436,-0.17639c-0.29969,-0.07944 -0.5552,-0.2792 -0.84635,-0.38576c-0.29086,-0.10645 -0.59637,-0.16759 -0.89455,-0.25138c-0.97996,-0.45159 -1.96439,-0.82202 -2.76442,-1.56928c-0.33771,-0.31542 -0.75293,-0.57883 -0.97826,-0.98228c-0.25465,-0.45598 -0.30649,-1.00002 -0.41423,-1.51105c-0.19403,-0.92027 -0.28805,-2.12216 -0.37255,-3.05779c-0.08958,-0.992 -0.17022,-1.98497 -0.2546,-2.97743c-0.05836,-0.68636 -0.227,-1.37351 -0.16715,-2.05974c0.02526,-0.28966 0.52432,-2.42375 0.55334,-2.62106c0.07305,-0.49667 0.05143,-1.00403 0.12128,-1.50116c0.04673,-0.33255 0.15528,-0.65348 0.22754,-0.98144c0.24927,-1.13117 0.24421,-1.42416 0.70328,-2.58176c0.1318,-0.33234 0.32986,-0.63449 0.48726,-0.95549c0.13691,-0.27923 0.2307,-0.58126 0.39551,-0.84498c0.22784,-0.36459 0.5175,-0.6867 0.77625,-1.03004c1.15033,-0.45442 2.53842,-0.67258 3.98229,-0.79039z" fill="#000000" stroke="none" stroke-width="0.5" stroke-linecap="butt"/><path d="M316.5353,80.28665c-1.17064,0.28266 -2.36299,0.41534 -3.55409,0.60263c-0.33516,0.0527 -0.66894,0.11508 -1.00549,0.15795c-0.19873,0.02531 -0.40449,-0.00064 -0.59922,0.04641c-0.50416,0.12181 -0.95344,0.41767 -1.45345,0.55556c-0.57557,0.15872 -1.18204,0.16992 -1.7712,0.26676c-0.36132,0.05938 -1.04857,0.38228 -1.30734,0.46614c-0.3399,0.11016 -0.68442,0.20971 -1.03491,0.27916c-0.2019,0.04001 -0.41612,-0.00282 -0.61559,0.0479c-0.20552,0.05226 -0.38267,0.18457 -0.58211,0.25665c-0.869,0.31407 -1.77184,0.53809 -2.63447,0.87315c-0.47611,0.18493 -0.90131,0.48724 -1.37903,0.668c-0.28852,0.10917 -0.59591,0.1598 -0.89388,0.2397c-1.2045,0.3184 -2.31656,0.80273 -3.45231,1.31356c-0.2879,0.12949 -0.5883,0.23387 -0.86427,0.38714c-0.4791,0.26609 -0.86046,0.68179 -1.32133,0.97836c-0.50692,0.32621 -1.06098,0.57268 -1.5965,0.84944c-0.04147,0.02143 -1.8102,0.91011 -1.83147,0.91858c-0.05874,0.0234 -1.8501,0.55583 -1.94224,0.58623c-0.89479,0.29518 -1.74354,0.71419 -2.62873,1.02436c-0.06857,0.02403 -0.13757,0.0467 -0.20689,0.06833c0.03224,0.27475 0.07917,0.55197 0.14162,0.83147c-0.01507,0.2512 -0.0774,0.50401 -0.04521,0.75359c0.12443,0.96491 0.33839,1.00964 0.75952,1.85472c0.15381,0.30865 0.23653,0.65343 0.41987,0.94551c0.57253,0.91206 0.98847,1.22232 1.86939,1.81776c1.20688,0.81576 2.59649,1.09946 3.95035,1.55623c0.48332,0.16307 0.96218,0.3394 1.4388,0.52113c0.34495,0.13153 0.66794,0.32633 1.02542,0.4185c0.24821,0.064 0.51967,-0.02064 0.76776,0.04387c0.40863,0.10626 0.77675,0.33485 1.17923,0.46244c1.20552,0.38215 2.54945,0.41697 3.79102,0.63315c0.73279,0.1276 1.28123,0.31682 2.01709,0.35695c0.28627,0.01561 0.5731,-0.01847 0.85964,-0.02771c0.49979,-0.01465 0.99953,-0.03061 1.49936,-0.04397c0.46467,-0.01243 0.93602,0.04548 1.39411,-0.03342c0.46985,-0.08093 0.8961,-0.3337 1.36063,-0.44105c0.28256,-0.06529 0.5843,-0.00862 0.86691,-0.07371c0.45126,-0.10393 0.87598,-0.30193 1.32094,-0.43018c0.39123,-0.11276 0.81451,-0.12564 1.18596,-0.29237c0.40013,-0.17959 0.70717,-0.52437 1.09405,-0.73099c0.33168,-0.17714 0.71512,-0.24165 1.04943,-0.41376c0.26264,-0.13521 0.46482,-0.37233 0.73006,-0.50234c0.38241,-0.18745 0.80977,-0.26877 1.1984,-0.44298c0.31331,-0.14045 0.59697,-0.33969 0.90146,-0.49832c0.81255,-0.42329 1.69418,-0.70515 2.50345,-1.13469c0.44052,-0.23382 0.81639,-0.57639 1.25231,-0.81866c0.27631,-0.15357 0.61701,-0.18238 0.87573,-0.36404c0.27363,-0.19213 0.45661,-0.4885 0.6855,-0.7322c0.5269,-0.56097 1.18812,-1.14747 1.52475,-1.87197c0.08457,-0.18202 0.08394,-0.3934 0.10377,-0.59312c0.07158,-0.72109 0.09769,-1.44601 0.1577,-2.16815c0.1635,-1.96502 0.34437,-3.95819 0.35765,-5.93101c0.00957,-1.42143 -0.14907,-2.83338 -0.27251,-4.24729c-2.43443,0.20969 -4.83634,0.70399 -7.28965,1.01063zM283.92418,90.88777c-0.13924,-0.48022 0.34098,-0.61946 0.34098,-0.61946c0.00536,-0.00155 0.01072,-0.0031 0.01607,-0.00464c-0.20368,-3.97576 2.40247,-7.5505 5.49177,-10.09009c-0.11509,-0.11754 -0.19932,-0.29423 -0.18416,-0.55956c0.04279,-0.74878 0.79157,-0.706 0.79157,-0.706c0.20193,0.0174 0.40782,0.09565 0.60578,0.05218c0.34168,-0.07503 0.63423,-0.30335 0.9709,-0.39839c0.02581,-0.00729 0.05175,-0.01408 0.07778,-0.02043c0.08636,-0.05445 0.17266,-0.10803 0.25887,-0.16072l0.43586,-0.11652c0,0 0.21873,-0.0186 0.42958,0.08266c0.46183,-0.12736 0.90028,-0.3283 1.35298,-0.48515c0.9332,-0.32335 1.8855,-0.59232 2.8093,-0.94165c0.92654,-0.35036 1.82495,-0.77103 2.73801,-1.15513c0.4801,-0.20196 0.94566,-0.44307 1.44079,-0.60471c0.75555,-0.24665 1.56884,-0.29009 2.32039,-0.5487c0.94392,-0.3248 1.83525,-0.79296 2.78375,-1.10414c0.89698,-0.29428 1.82676,-0.48215 2.72232,-0.78071c1.35975,-0.45332 2.68925,-0.88875 4.08051,-1.24567c0.88773,-0.28905 1.76009,-0.63087 2.66369,-0.86569c1.45578,-0.37833 2.94537,-0.6462 4.40977,-0.98674c0.52862,-0.12292 2.31395,-0.79267 2.91164,-0.38403c1.05976,0.72455 0.89609,2.17931 1.02912,3.20307c0.06306,0.4853 0.16597,0.96458 0.24879,1.44689c0.13396,0.78016 0.30929,1.5544 0.40068,2.34068c0.00321,0.02756 0.21597,2.53213 0.23371,2.74079c0.12906,1.51793 0.30248,3.03139 0.29279,4.55722c-0.01277,2.01093 -0.19638,4.04249 -0.36277,6.04549c-0.06203,0.74589 -0.07302,1.49655 -0.16533,2.2393c-0.04036,0.32469 -0.0665,0.66243 -0.2007,0.96083c-0.43645,0.97049 -1.10693,1.58946 -1.82794,2.34239c-0.30186,0.31523 -0.56412,0.6787 -0.91932,0.9323c-0.30255,0.21601 -0.69508,0.27055 -1.01954,0.45199c-0.43752,0.24466 -0.81614,0.58766 -1.25911,0.82229c-0.45486,0.24092 -0.95466,0.38598 -1.42344,0.59856c-0.7061,0.32019 -1.35543,0.75724 -2.06286,1.07449c-0.36569,0.164 -0.77043,0.23354 -1.13033,0.4099c-0.25964,0.12723 -0.45625,0.36121 -0.71332,0.49355c-0.3387,0.17436 -0.72626,0.24177 -1.06257,0.42069c-0.41482,0.2207 -0.74987,0.58156 -1.17939,0.77207c-0.43412,0.19255 -0.92198,0.2293 -1.37791,0.3622c-0.4841,0.14111 -0.94993,0.34605 -1.44124,0.45955c-0.28257,0.06528 -0.58429,0.00862 -0.86691,0.07371c-0.47802,0.11008 -0.91774,0.36769 -1.40155,0.44868c-0.07088,0.01187 -2.96943,0.09455 -3.10395,0.09849c-0.32732,0.00877 -0.65506,0.04489 -0.98198,0.02631c-0.93858,-0.05336 -1.26488,-0.21479 -2.19287,-0.37658c-1.3017,-0.22696 -2.69476,-0.27457 -3.96029,-0.67246c-0.37052,-0.1165 -0.70429,-0.33913 -1.08018,-0.43693c-0.24808,-0.06455 -0.5198,0.02113 -0.76776,-0.04387c-0.90086,-0.23615 -1.73329,-0.68407 -2.61577,-0.98164c-1.47328,-0.49678 -2.98201,-0.82482 -4.29095,-1.72043c-1.1252,-0.76988 -1.58023,-1.12728 -2.33332,-2.29472c-0.20985,-0.32532 -0.30871,-0.71045 -0.48151,-1.05688c-0.16818,-0.33714 -0.40575,-0.64079 -0.54076,-0.99253c-0.17024,-0.44353 -0.29766,-0.90699 -0.36862,-1.37674c-0.03899,-0.25811 0.02835,-0.52129 0.04253,-0.78193c-0.04669,-0.19533 -0.0862,-0.38992 -0.1188,-0.5837c-0.15307,-0.00028 -0.37689,-0.05656 -0.4648,-0.35974z" fill="#000000" stroke="none" stroke-width="0.5" stroke-linecap="butt"/><path d="M234.12766,70.54694c-0.06354,-0.7473 0.68377,-0.81084 0.68377,-0.81084l0.65018,-0.05528c3.32791,-0.27729 6.18819,0.377 9.23311,1.34202c2.70548,0.85745 7.31151,0.10193 10.20821,0.17727c2.28464,0.17571 4.56928,0.38552 6.85612,0.52904c0.51169,0.03212 1.02647,0.02048 1.53627,0.07491c1.39411,0.14884 2.77208,0.54178 4.1586,0.74989c0.15887,0.02385 2.92495,0.34345 3.02846,0.36614c0.7883,0.17277 1.53928,0.49 2.32378,0.67931c0.88557,0.2137 1.76843,0.44031 2.64318,0.69467c0.50092,0.14566 1.01943,0.24107 1.5024,0.43825c0.55938,0.22836 1.15472,0.43538 1.61012,0.83244c0.29575,0.25784 0.3618,0.69634 0.54271,1.04452c0,0 0.32189,0.67742 -0.35552,0.9993c-0.67742,0.32189 -0.9993,-0.35552 -0.9993,-0.35552c-0.08496,-0.21134 -0.08029,-0.48774 -0.25489,-0.63403c-0.30368,-0.25442 -0.71101,-0.35371 -1.08387,-0.48757c-1.27127,-0.45639 -2.6464,-0.7573 -3.95691,-1.07395c-0.77452,-0.18714 -1.51582,-0.50065 -2.29389,-0.67242c-0.96005,-0.21193 -1.95665,-0.20181 -2.92892,-0.34775c-1.36801,-0.20533 -2.72994,-0.59735 -4.10541,-0.74288c-0.4846,-0.05127 -0.97395,-0.038 -1.46032,-0.06823c-2.28137,-0.14182 -4.56075,-0.35154 -6.83972,-0.52811c-3.10957,-0.07985 -7.61838,0.62546 -10.56519,-0.23947c-2.88751,-0.84754 -5.50654,-1.55838 -8.67193,-1.28323l-0.65018,0.05528c0,0 -0.7473,0.06354 -0.81084,-0.68377z" fill="#000000" stroke="none" stroke-width="0.5" stroke-linecap="butt"/><path d="M329.52292,43.45204l0.64088,0.69265c-7.806,5.62968 -17.12683,9.53981 -24.01417,16.34715c-2.39418,2.36637 -4.78622,4.73467 -7.17111,7.11042c-1.38754,1.38223 -2.78825,2.74193 -4.2162,4.08234c-0.37631,0.35324 -0.73131,0.73071 -1.12944,1.05915c-0.39814,0.32844 -0.8362,0.60522 -1.25454,0.90751c-1.12458,0.81262 -2.25436,1.65422 -3.42456,2.40077c-0.68041,0.43408 -1.41018,0.78549 -2.11547,1.17785c0,0 -0.65541,0.3646 -1.02001,-0.2908c-0.3646,-0.65541 0.2908,-1.02001 0.2908,-1.02001c0.68427,-0.38067 1.39343,-0.71959 2.05324,-1.14124c1.14077,-0.72899 2.24052,-1.55139 3.33808,-2.34279c0.39249,-0.28301 0.80468,-0.54044 1.17793,-0.84836c0.37326,-0.30792 0.70436,-0.66365 1.05681,-0.99519c1.41595,-1.33192 2.8075,-2.67993 4.18475,-4.05192c2.38627,-2.37712 4.77971,-4.74682 7.17528,-7.11456c6.85829,-6.77863 16.06492,-10.70145 23.86938,-16.26595c0.08444,-0.08847 0.16172,-0.13569 0.16172,-0.13569l0.01112,0.01202c0.04954,-0.03558 0.09903,-0.07122 0.14846,-0.10693z" fill="#000000" stroke="none" stroke-width="0.5" stroke-linecap="butt"/></g><g stroke="#000000" stroke-width="1.5" stroke-linecap="round"><path d="M-175.28966,-198.06467l4.01536,-0.02768l56.76198,7.76075l14.49983,14.06496l112.65598,317.22969l-1.73148,17.29418l-13.69967,10.39855l-15.04138,4.19925l-18.89156,-2.5045l-8.71099,-10.27017l-72.71035,-210.10733z" fill="#823200"/><path d="M-105.76684,-186.65274l160.26441,-133.33337l11.40745,-0.69166l29.11921,30.86818l23.11989,54.67424l29.51385,88.97943l1.06124,71.84767l-218.25161,-10.9323z" fill="#bdbdbd"/></g></g></g></svg>