<svg version="1.1" xmlns="http://www.w3.org/2000/svg" xmlns:xlink="http://www.w3.org/1999/xlink" width="2878.25006" height="1619.57958" viewBox="0,0,2878.25006,1619.57958"><g transform="translate(1117.37278,629.80931)"><g data-paper-data="{&quot;isPaintingLayer&quot;:true}" stroke-linejoin="miter" stroke-miterlimit="10" stroke-dasharray="" stroke-dashoffset="0" style="mix-blend-mode: normal"><path d="M-1117.37278,989.77027v-1619.57958h2878.25006v1619.57958z" fill="none" fill-rule="nonzero" stroke="#000000" stroke-width="0" stroke-linecap="butt"/><g><path d="M371.77626,301.93378l-19.76914,-31.72747l93.69715,0.1835l33.57674,31.43214z" data-paper-data="{&quot;index&quot;:null}" fill="#cedce9" fill-rule="nonzero" stroke="#000000" stroke-width="0" stroke-linecap="round"/><path d="M488.1911,300.16278c-2.53537,0.35065 -5.02815,0.55236 -7.49601,0.6985c0.01679,0.05345 0.02551,0.10918 0.02559,0.16736c0.00194,1.41697 -5.1608,1.42233 -5.1608,1.42233c-22.80221,0.02372 -45.60433,0.04744 -68.40647,0.07117c-5.86765,0.00611 -20.46882,-0.62155 -24.79534,0.23045c-2.49217,0.49078 -4.27685,0.4443 -7.47097,0.51161c-0.36051,0.00759 -1.01625,0.02375 -1.59566,0.03383c3.08953,0.60197 1.60419,6.19631 1.60635,7.75955c0.00908,6.61257 0.01812,13.22513 0.0272,19.83773c0.0016,1.18081 0.00322,2.36165 0.00485,3.54245c0.00065,0.47233 -0.90552,1.81917 0.00194,1.41699c3.45256,-1.53008 10.19566,-0.71636 18.06866,-0.72729c15.51938,-0.02156 32.13396,-0.49434 47.37744,0.2561c27.83585,1.4989 57.75828,-0.97327 85.37226,0.70027c23.25749,1.57148 51.09544,1.68632 75.05495,1.6614c6.02327,-0.00625 12.04642,-0.01253 18.06966,-0.01878c0.90625,-0.00093 2.32912,-0.03591 3.80233,-0.07417c-1.48298,-0.72536 0.06626,-2.4848 0.06491,-3.47233c-0.00505,-3.68917 4.49192,-10.05765 -1.04401,-13.36639c-4.89362,-4.01971 -7.99102,-7.89153 -15.97006,-11.89718c-5.88716,-2.95552 -15.04909,-5.57121 -19.9208,-8.50805c-2.3623,-1.7509 -4.47318,-0.49558 -12.15878,-0.89338c-17.00624,-0.88022 -34.0612,-0.67306 -51.62851,-0.65478c-6.4034,0.00666 -14.44505,0.37187 -20.65104,0.02148c-1.31004,-0.07395 -3.77221,-0.3514 -5.6178,-0.5788c3.37603,0.71218 -4.32441,1.41247 -7.55991,1.85993zM407.1492,299.68824c17.23319,-0.01794 34.46634,-0.03587 51.69948,-0.05379c0.49704,-0.06874 0.99398,-0.13745 1.49101,-0.2062c6.54685,-0.90541 12.45893,-0.67344 18.06825,-1.08153c7.64435,-0.55617 12.21475,-2.40719 20.10212,-2.85488c4.53093,-0.25717 17.08239,0.54113 23.50567,0.53444c17.41699,-0.01812 34.81452,-0.30955 51.62851,0.65478c9.44543,0.54173 17.42579,-0.54185 21.84711,2.73525c0.65281,1.24594 5.86528,2.01965 8.59232,2.97579c4.16756,1.4612 7.65219,3.62805 10.87776,5.24732c7.99617,4.01422 11.5153,8.1479 16.53092,12.26781c4.48318,4.34356 1.56901,9.73858 1.5752,14.26203c0.00344,2.50084 1.44189,4.26195 -5.15399,6.38179c-2.30007,0.73921 -23.55962,0.0245 -27.10445,0.02819c-24.71307,0.02572 -53.58879,-0.12378 -77.5594,-1.74343c-26.33426,-2.08504 -57.67394,0.79451 -84.8929,-0.67118c-21.93438,-1.33306 -55.78304,2.31411 -73.75043,-2.29913c-1.77886,-0.45676 -0.00578,-4.20435 -0.00681,-4.95944c-0.00908,-6.61257 -0.01812,-13.22513 -0.0272,-19.83773c-0.00301,-2.21082 -3.56112,-7.48558 1.82327,-9.13751c9.39607,-2.88274 26.98922,-2.22833 40.75383,-2.24264z" data-paper-data="{&quot;index&quot;:null}" fill="#000000" fill-rule="nonzero" stroke="none" stroke-width="0" stroke-linecap="butt"/><path d="M480.62287,300.79326c2.46783,-0.14612 4.99065,-0.34974 7.52614,-0.70039c3.23549,-0.44745 10.96657,-1.14864 7.59043,-1.86079c1.84557,0.2274 4.3283,0.50479 5.63821,0.57876c6.206,0.35038 14.31973,-0.01135 20.72296,-0.018c17.56722,-0.01827 34.73294,-0.20568 51.73914,0.67453c7.68559,0.3978 9.81249,-0.85216 12.17477,0.89873c4.87175,2.93681 14.0724,5.57359 19.95963,8.52911c7.97906,4.0056 11.08711,7.90437 15.98073,11.92406c5.53599,3.30876 1.01478,9.70178 1.01984,13.39095c0.00134,0.98753 -1.55753,2.75199 -0.07451,3.47734c-1.47309,0.03825 -2.89793,0.07413 -3.80425,0.07509c-6.02325,0.00626 -12.05696,0.01699 -18.0802,0.02325c-23.95963,0.02492 -51.91057,-0.06515 -75.16808,-1.63662c-27.61399,-1.67355 -57.80997,0.78518 -85.64586,-0.71372c-15.24347,-0.75044 -31.90507,-0.29376 -47.42446,-0.27223c-7.87299,0.01094 -14.62221,-0.80581 -18.07478,0.72425c-0.90746,0.40215 -0.00517,-0.94674 -0.00583,-1.41909c-0.00162,-1.18079 -0.01208,-2.36736 -0.01371,-3.54817c-0.00904,-6.61259 -0.02892,-13.26445 -0.038,-19.87705c-0.00216,-1.56325 1.49884,-7.17113 -1.59071,-7.77312c0.57949,-0.01013 1.2357,-0.0266 1.59627,-0.03422c3.19401,-0.06726 4.98276,-0.02317 7.47484,-0.51394c4.32652,-0.85198 18.94091,-0.23094 24.80854,-0.23704c22.80227,-0.02372 45.7259,-0.07573 68.52805,-0.09946c0,0 5.18809,-0.0078 5.18615,-1.4248c-0.00008,-0.05815 -0.0082,-0.11393 -0.025,-0.1674z" data-paper-data="{&quot;noHover&quot;:false,&quot;origItem&quot;:[&quot;Path&quot;,{&quot;applyMatrix&quot;:true,&quot;segments&quot;:[[[579.60736,595.76373],[0.95609,-0.20262],[0.00646,0.07548]],[[579.61718,596],[0,-0.08208],[0,2]],[[577.61718,598],[0,0],[-8.83333,0]],[[551.11718,598],[8.83333,0],[-2.27308,0]],[[541.51161,598.28885],[1.67648,-1.19621],[-0.96568,0.68904]],[[538.61718,599],[1.23739,-0.09027],[-0.13966,0.01019]],[[537.99901,599.04541],[0.22447,-0.0134],[1.19653,0.85421]],[[538.61718,610],[0,-2.20646],[0,9.33333]],[[538.61718,638],[0,-9.33333],[0,1.66667]],[[538.61718,643],[0,-1.66667],[0,0.66667]],[[538.61718,645],[-0.35177,0.56631],[1.33831,-2.15456]],[[545.61718,644],[-3.04994,0.00386],[6.01206,-0.00761]],[[563.97058,644.43107],[-5.90478,-1.08158],[10.78253,2.15651]],[[597.04254,645.54479],[-10.6965,-2.40266],[9.00888,2.25222]],[[626.11718,648],[-9.28168,0],[2.33333,0]],[[633.11718,648],[-2.33333,0],[0.35109,0]],[[634.59021,647.90091],[-0.5707,0.05184],[-0.57412,-1.02596]],[[634.61718,643],[0,1.39387],[0,-5.20707]],[[634.21982,624.13246],[2.14282,4.67827],[-1.8936,-5.6808]],[[628.03948,607.31672],[3.08887,5.66543],[-2.2791,-4.1802]],[[620.32688,595.27881],[1.8857,4.15235],[-0.91417,-2.47477]],[[615.61718,594],[2.9771,0.57275],[-6.58756,-1.26734]],[[595.61718,593],[6.8054,0],[-2.48058,0]],[[587.61718,593],[2.40395,0.50364],[-0.50743,-0.10631]],[[585.44122,592.1748],[0.71481,0.32365],[1.30749,1.01011]],[[582.51161,594.78885],[1.25365,-0.62682],[-0.98239,0.4912]]],&quot;closed&quot;:true}],&quot;index&quot;:null}" fill="#c9c9c9" fill-rule="nonzero" stroke="none" stroke-width="0" stroke-linecap="butt"/><path d="M553.00602,305.91283c-0.00023,-0.1643 -0.0721,-0.43939 -0.14082,-0.70964c-0.26581,0.10998 -0.66232,0.20389 -1.17233,0.28397c-1.52905,0.42863 -3.84966,0.43104 -3.84966,0.43104c-19.66498,0.02045 -31.018,3.7939 -37.9644,7.75811c-0.81722,0.44979 -0.74424,0.99062 -0.74355,1.49253c0.00019,0.14282 -0.04928,0.36983 -0.10333,0.60464c0.05187,-0.07561 0.18162,-0.13786 0.44583,-0.17802c1.16745,-0.17737 11.32048,0.89004 12.5653,0.26847c0.37411,-0.18679 -1.83653,-0.21963 -1.71489,-0.42997c1.49592,-2.58595 17.39306,-6.51158 25.20886,-7.59252c2.02712,-0.28035 4.30933,-0.42272 6.5782,-0.4892c-0.88762,-0.37825 0.89142,-0.96049 0.89075,-1.43938zM509.00481,315.8908c-0.11636,0.50388 -0.21964,0.98552 0.1323,0.69504c0.24055,-0.19849 -0.1075,-0.47645 -0.1323,-0.69504zM500.64169,312.41853c7.37339,-3.82547 17.18205,-7.31676 32.47316,-8.70279c1.43576,-0.61767 4.39899,-0.62076 4.39899,-0.62076l2.58133,-0.00267c5.84505,-0.00607 8.93666,-0.56819 15.21502,-0.57471c8.71911,-0.00907 10.7468,4.74733 6.18928,6.1456c-2.87593,0.88235 -7.49058,1.17569 -11.34132,1.70823c-11.39829,1.57636 -15.62223,6.07653 -28.11122,8.32648c-13.23673,2.38463 -27.82001,-2.74883 -21.40526,-6.27935z" data-paper-data="{&quot;index&quot;:null}" fill="#000000" fill-rule="nonzero" stroke="none" stroke-width="0" stroke-linecap="butt"/><path d="M553.05695,305.15552c0.0689,0.27025 0.15272,0.54925 0.15293,0.71356c0.00065,0.47888 -1.75717,1.06981 -0.86956,1.44812c-2.2689,0.06649 -4.56421,0.20309 -6.59138,0.48346c-7.81589,1.08095 -23.78979,4.98684 -25.28565,7.57278c-0.12176,0.21035 1.84386,0.36789 1.46973,0.55468c-1.24485,0.62155 -11.48582,-0.4644 -12.6533,-0.28703c-0.2643,0.04016 -0.39279,0.10273 -0.44459,0.17841c0.05405,-0.23483 0.09394,-0.46507 0.09375,-0.60788c-0.00068,-0.5019 -0.09624,-1.05258 0.72101,-1.50237c6.94633,-3.96421 18.70926,-7.82129 38.37421,-7.84175c0,0 2.33114,0.0006 3.86018,-0.42801c0.51004,-0.0801 0.90682,-0.174 1.17243,-0.28397z" data-paper-data="{&quot;noHover&quot;:false,&quot;origItem&quot;:[&quot;Path&quot;,{&quot;applyMatrix&quot;:true,&quot;segments&quot;:[[[607.563,601.99816],[0.02649,0.38155],[-0.10299,0.15484]],[[607.10872,602.39727],[0.1976,-0.11227],[-0.59254,0.60273]],[[605.61718,603],[0,0],[-7.618,0]],[[590.90604,613.89443],[2.69308,-5.58508],[-0.31682,0.63364]],[[590.61718,616],[0,-0.70843],[0,0.20156]],[[590.57685,616.85325],[0.02106,-0.33136],[0.02013,-0.10671]],[[590.74964,616.60263],[-0.10238,0.05628],[0.45234,-0.24865]],[[595.61718,617],[-0.48256,0.87548],[0.14503,-0.26312]],[[594.95308,616.3906],[-0.04725,0.29671],[0.58086,-3.64773]],[[604.72276,605.71115],[-3.02833,1.51416],[0.78545,-0.39273]],[[607.27135,605.03032],[-0.87898,0.0905],[-0.34365,-0.53523]],[[607.61718,603],[0,0.6759],[0,-0.23192]]],&quot;closed&quot;:true}],&quot;index&quot;:null}" fill="#ffffff" fill-rule="nonzero" stroke="none" stroke-width="0" stroke-linecap="butt"/><path d="M371.77627,301.93378l-19.76914,-31.72747l93.69715,0.1835l33.57674,31.43214z" data-paper-data="{&quot;index&quot;:null}" fill="#cedce9" fill-rule="nonzero" stroke="#000000" stroke-width="0" stroke-linecap="round"/><path d="M488.1911,300.16278c-2.53537,0.35065 -5.02815,0.55236 -7.49601,0.6985c0.01679,0.05345 0.02551,0.10918 0.02559,0.16736c0.00194,1.41697 -5.1608,1.42233 -5.1608,1.42233c-22.80221,0.02372 -45.60433,0.04744 -68.40647,0.07117c-5.86765,0.00611 -20.46882,-0.62155 -24.79534,0.23045c-2.49217,0.49078 -4.27685,0.4443 -7.47097,0.51161c-0.36051,0.00759 -1.01625,0.02375 -1.59566,0.03383c3.08953,0.60197 1.60419,6.19631 1.60635,7.75955c0.00908,6.61257 0.01812,13.22513 0.0272,19.83773c0.0016,1.18081 0.00322,2.36165 0.00485,3.54245c0.00065,0.47233 -0.90552,1.81917 0.00194,1.41699c3.45256,-1.53008 10.19566,-0.71636 18.06866,-0.72729c15.51938,-0.02156 32.13396,-0.49434 47.37744,0.2561c27.83585,1.4989 57.75828,-0.97327 85.37226,0.70027c23.25749,1.57148 51.09544,1.68632 75.05495,1.6614c6.02327,-0.00625 12.04642,-0.01253 18.06966,-0.01878c0.90625,-0.00093 2.32912,-0.03591 3.80233,-0.07417c-1.48298,-0.72536 0.06626,-2.4848 0.06491,-3.47233c-0.00505,-3.68917 4.49192,-10.05765 -1.04401,-13.36639c-4.89362,-4.01971 -7.99102,-7.89153 -15.97006,-11.89718c-5.88716,-2.95552 -15.04909,-5.57121 -19.9208,-8.50805c-2.3623,-1.7509 -4.47318,-0.49558 -12.15878,-0.89338c-17.00624,-0.88022 -34.0612,-0.67306 -51.62851,-0.65478c-6.4034,0.00666 -14.44505,0.37187 -20.65104,0.02148c-1.31004,-0.07395 -3.77221,-0.3514 -5.6178,-0.5788c3.37603,0.71218 -4.32441,1.41247 -7.55991,1.85993zM407.14921,299.68824c17.23319,-0.01794 34.46634,-0.03587 51.69948,-0.05379c0.49704,-0.06874 0.99398,-0.13745 1.49101,-0.2062c6.54685,-0.90541 12.45893,-0.67344 18.06825,-1.08153c7.64435,-0.55617 12.21475,-2.40719 20.10212,-2.85488c4.53093,-0.25717 17.08239,0.54113 23.50567,0.53444c17.41699,-0.01812 34.81452,-0.30955 51.62851,0.65478c9.44543,0.54173 17.42579,-0.54185 21.84711,2.73525c0.65281,1.24594 5.86528,2.01965 8.59232,2.97579c4.16756,1.4612 7.65219,3.62805 10.87776,5.24732c7.99617,4.01422 11.5153,8.1479 16.53092,12.26781c4.48318,4.34356 1.56901,9.73858 1.5752,14.26203c0.00344,2.50084 1.44189,4.26195 -5.15399,6.38179c-2.30007,0.73921 -23.55962,0.0245 -27.10445,0.02819c-24.71307,0.02572 -53.58879,-0.12378 -77.5594,-1.74343c-26.33426,-2.08504 -57.67394,0.79451 -84.8929,-0.67118c-21.93438,-1.33306 -55.78304,2.31411 -73.75043,-2.29913c-1.77886,-0.45676 -0.00578,-4.20435 -0.00681,-4.95944c-0.00908,-6.61257 -0.01812,-13.22513 -0.0272,-19.83773c-0.00301,-2.21082 -3.56112,-7.48558 1.82327,-9.13751c9.39607,-2.88274 26.98922,-2.22833 40.75383,-2.24264z" data-paper-data="{&quot;index&quot;:null}" fill="#000000" fill-rule="nonzero" stroke="none" stroke-width="0" stroke-linecap="butt"/><path d="M480.62287,300.79326c2.46783,-0.14612 4.99065,-0.34974 7.52614,-0.70039c3.23549,-0.44745 10.96657,-1.14864 7.59043,-1.86079c1.84557,0.2274 4.3283,0.50479 5.63821,0.57876c6.206,0.35038 14.31973,-0.01135 20.72296,-0.018c17.56722,-0.01827 34.73294,-0.20568 51.73914,0.67453c7.68559,0.3978 9.81249,-0.85216 12.17477,0.89873c4.87175,2.93681 14.0724,5.57359 19.95963,8.52911c7.97906,4.0056 11.08711,7.90437 15.98073,11.92406c5.53599,3.30876 1.01478,9.70178 1.01984,13.39095c0.00134,0.98753 -1.55753,2.75199 -0.07451,3.47734c-1.47309,0.03825 -2.89793,0.07413 -3.80425,0.07509c-6.02325,0.00626 -12.05696,0.01699 -18.0802,0.02325c-23.95963,0.02492 -51.91057,-0.06515 -75.16808,-1.63662c-27.61399,-1.67355 -57.80997,0.78518 -85.64586,-0.71372c-15.24347,-0.75044 -31.90507,-0.29376 -47.42446,-0.27223c-7.87299,0.01094 -14.62221,-0.80581 -18.07478,0.72425c-0.90746,0.40215 -0.00517,-0.94674 -0.00583,-1.41909c-0.00162,-1.18079 -0.01208,-2.36736 -0.01371,-3.54817c-0.00904,-6.61259 -0.02892,-13.26445 -0.038,-19.87705c-0.00216,-1.56325 1.49884,-7.17113 -1.59071,-7.77312c0.57949,-0.01013 1.2357,-0.0266 1.59627,-0.03422c3.19401,-0.06726 4.98276,-0.02317 7.47484,-0.51394c4.32652,-0.85198 18.94091,-0.23094 24.80854,-0.23704c22.80227,-0.02372 45.7259,-0.07573 68.52805,-0.09946c0,0 5.18809,-0.0078 5.18615,-1.4248c-0.00008,-0.05815 -0.0082,-0.11393 -0.025,-0.1674z" data-paper-data="{&quot;noHover&quot;:false,&quot;origItem&quot;:[&quot;Path&quot;,{&quot;applyMatrix&quot;:true,&quot;segments&quot;:[[[579.60736,595.76373],[0.95609,-0.20262],[0.00646,0.07548]],[[579.61718,596],[0,-0.08208],[0,2]],[[577.61718,598],[0,0],[-8.83333,0]],[[551.11718,598],[8.83333,0],[-2.27308,0]],[[541.51161,598.28885],[1.67648,-1.19621],[-0.96568,0.68904]],[[538.61718,599],[1.23739,-0.09027],[-0.13966,0.01019]],[[537.99901,599.04541],[0.22447,-0.0134],[1.19653,0.85421]],[[538.61718,610],[0,-2.20646],[0,9.33333]],[[538.61718,638],[0,-9.33333],[0,1.66667]],[[538.61718,643],[0,-1.66667],[0,0.66667]],[[538.61718,645],[-0.35177,0.56631],[1.33831,-2.15456]],[[545.61718,644],[-3.04994,0.00386],[6.01206,-0.00761]],[[563.97058,644.43107],[-5.90478,-1.08158],[10.78253,2.15651]],[[597.04254,645.54479],[-10.6965,-2.40266],[9.00888,2.25222]],[[626.11718,648],[-9.28168,0],[2.33333,0]],[[633.11718,648],[-2.33333,0],[0.35109,0]],[[634.59021,647.90091],[-0.5707,0.05184],[-0.57412,-1.02596]],[[634.61718,643],[0,1.39387],[0,-5.20707]],[[634.21982,624.13246],[2.14282,4.67827],[-1.8936,-5.6808]],[[628.03948,607.31672],[3.08887,5.66543],[-2.2791,-4.1802]],[[620.32688,595.27881],[1.8857,4.15235],[-0.91417,-2.47477]],[[615.61718,594],[2.9771,0.57275],[-6.58756,-1.26734]],[[595.61718,593],[6.8054,0],[-2.48058,0]],[[587.61718,593],[2.40395,0.50364],[-0.50743,-0.10631]],[[585.44122,592.1748],[0.71481,0.32365],[1.30749,1.01011]],[[582.51161,594.78885],[1.25365,-0.62682],[-0.98239,0.4912]]],&quot;closed&quot;:true}],&quot;index&quot;:null}" fill="#c9c9c9" fill-rule="nonzero" stroke="none" stroke-width="0" stroke-linecap="butt"/><path d="M553.00603,305.91283c-0.00023,-0.1643 -0.0721,-0.43939 -0.14082,-0.70964c-0.26581,0.10998 -0.66232,0.20389 -1.17233,0.28397c-1.52905,0.42863 -3.84966,0.43104 -3.84966,0.43104c-19.66498,0.02045 -31.018,3.7939 -37.9644,7.75811c-0.81722,0.44979 -0.74424,0.99062 -0.74355,1.49253c0.00019,0.14282 -0.04928,0.36983 -0.10333,0.60464c0.05187,-0.07561 0.18162,-0.13786 0.44583,-0.17802c1.16745,-0.17737 11.32048,0.89004 12.5653,0.26847c0.37411,-0.18679 -1.83653,-0.21963 -1.71489,-0.42997c1.49592,-2.58595 17.39306,-6.51158 25.20886,-7.59252c2.02712,-0.28035 4.30933,-0.42272 6.5782,-0.4892c-0.88762,-0.37825 0.89142,-0.96049 0.89075,-1.43938zM509.00481,315.8908c-0.11636,0.50388 -0.21964,0.98552 0.1323,0.69504c0.24055,-0.19849 -0.1075,-0.47645 -0.1323,-0.69504zM500.64169,312.41853c7.37339,-3.82547 17.18205,-7.31676 32.47316,-8.70279c1.43576,-0.61767 4.39899,-0.62076 4.39899,-0.62076l2.58133,-0.00267c5.84505,-0.00607 8.93666,-0.56819 15.21502,-0.57471c8.71911,-0.00907 10.7468,4.74733 6.18928,6.1456c-2.87593,0.88235 -7.49058,1.17569 -11.34132,1.70823c-11.39829,1.57636 -15.62223,6.07653 -28.11122,8.32648c-13.23673,2.38463 -27.82001,-2.74883 -21.40526,-6.27935z" data-paper-data="{&quot;index&quot;:null}" fill="#000000" fill-rule="nonzero" stroke="none" stroke-width="0" stroke-linecap="butt"/><path d="M553.05695,305.15552c0.0689,0.27025 0.15272,0.54925 0.15293,0.71356c0.00065,0.47888 -1.75717,1.06981 -0.86956,1.44812c-2.2689,0.06649 -4.56421,0.20309 -6.59138,0.48346c-7.81589,1.08095 -23.78979,4.98684 -25.28565,7.57278c-0.12176,0.21035 1.84386,0.36789 1.46973,0.55468c-1.24485,0.62155 -11.48582,-0.4644 -12.6533,-0.28703c-0.2643,0.04016 -0.39279,0.10273 -0.44459,0.17841c0.05405,-0.23483 0.09394,-0.46507 0.09375,-0.60788c-0.00068,-0.5019 -0.09624,-1.05258 0.72101,-1.50237c6.94633,-3.96421 18.70926,-7.82129 38.37421,-7.84175c0,0 2.33114,0.0006 3.86018,-0.42801c0.51004,-0.0801 0.90682,-0.174 1.17243,-0.28397z" data-paper-data="{&quot;noHover&quot;:false,&quot;origItem&quot;:[&quot;Path&quot;,{&quot;applyMatrix&quot;:true,&quot;segments&quot;:[[[607.563,601.99816],[0.02649,0.38155],[-0.10299,0.15484]],[[607.10872,602.39727],[0.1976,-0.11227],[-0.59254,0.60273]],[[605.61718,603],[0,0],[-7.618,0]],[[590.90604,613.89443],[2.69308,-5.58508],[-0.31682,0.63364]],[[590.61718,616],[0,-0.70843],[0,0.20156]],[[590.57685,616.85325],[0.02106,-0.33136],[0.02013,-0.10671]],[[590.74964,616.60263],[-0.10238,0.05628],[0.45234,-0.24865]],[[595.61718,617],[-0.48256,0.87548],[0.14503,-0.26312]],[[594.95308,616.3906],[-0.04725,0.29671],[0.58086,-3.64773]],[[604.72276,605.71115],[-3.02833,1.51416],[0.78545,-0.39273]],[[607.27135,605.03032],[-0.87898,0.0905],[-0.34365,-0.53523]],[[607.61718,603],[0,0.6759],[0,-0.23192]]],&quot;closed&quot;:true}],&quot;index&quot;:null}" fill="#ffffff" fill-rule="nonzero" stroke="none" stroke-width="0" stroke-linecap="butt"/><path d="M164.71899,300.07981l33.57675,-31.43214l93.69714,-0.1835l-19.76914,31.72747z" data-paper-data="{&quot;index&quot;:null}" fill="#cedce9" fill-rule="nonzero" stroke="#000000" stroke-width="0" stroke-linecap="round"/><path d="M155.80894,298.4206c-3.2355,-0.44746 -10.93595,-1.14775 -7.55991,-1.85993c-1.84559,0.22739 -4.30777,0.50485 -5.61781,0.5788c-6.20599,0.35039 -14.24765,-0.01482 -20.65104,-0.02148c-17.56731,-0.01827 -34.62226,-0.22543 -51.62851,0.65479c-7.68561,0.3978 -9.79648,-0.85752 -12.15878,0.89338c-4.8717,2.93684 -14.03364,5.55253 -19.92079,8.50805c-7.97904,4.00565 -11.07645,7.87747 -15.97007,11.89718c-5.53593,3.30875 -1.03896,9.67722 -1.04401,13.36639c-0.00135,0.98753 1.54789,2.74696 0.06491,3.47233c1.47321,0.03827 2.89607,0.07324 3.80232,0.07417c6.02324,0.00625 12.04639,0.01253 18.06966,0.01878c23.95951,0.02492 51.79746,-0.08992 75.05494,-1.66141c27.61399,-1.67353 57.53642,0.79864 85.37226,-0.70027c15.24348,-0.75043 31.85806,-0.27766 47.37744,-0.25609c7.87301,0.01092 14.6161,-0.8028 18.06866,0.72729c0.90746,0.40219 0.00129,-0.94465 0.00194,-1.41699c0.00162,-1.18081 0.00325,-2.36164 0.00485,-3.54245c0.00908,-6.6126 0.01812,-13.22516 0.0272,-19.83773c0.00216,-1.56323 -1.48319,-7.15758 1.60635,-7.75954c-0.5794,-0.01009 -1.23515,-0.02624 -1.59566,-0.03383c-3.19412,-0.06731 -4.97879,-0.02084 -7.47096,-0.51162c-4.32652,-0.852 -18.92768,-0.22433 -24.79534,-0.23044c-22.80214,-0.02373 -45.60426,-0.04745 -68.40647,-0.07117c0,0 -5.16274,-0.00537 -5.1608,-1.42233c0.00008,-0.05819 0.0088,-0.11391 0.02559,-0.16736c-2.46787,-0.14614 -4.96064,-0.34785 -7.49601,-0.6985zM236.85053,297.94605c13.76461,0.01432 31.35777,-0.64009 40.75384,2.24264c5.38439,1.65194 1.82628,6.92669 1.82327,9.13751c-0.00907,6.6126 -0.01813,13.22517 -0.0272,19.83774c-0.00103,0.75509 1.77206,4.50268 -0.0068,4.95944c-17.9674,4.61323 -51.81605,0.96607 -73.75043,2.29912c-27.21896,1.46569 -58.55864,-1.41386 -84.8929,0.67118c-23.97061,1.61965 -52.84632,1.76915 -77.55939,1.74343c-3.54483,-0.00369 -24.80439,0.71101 -27.10445,-0.0282c-6.59588,-2.11983 -5.15742,-3.88095 -5.15399,-6.38179c0.00619,-4.52344 -2.90798,-9.91846 1.5752,-14.26202c5.01563,-4.11991 8.53476,-8.25359 16.53093,-12.26781c3.22556,-1.61926 6.71019,-3.78611 10.87776,-5.24732c2.72704,-0.95614 7.9395,-1.72985 8.59231,-2.97579c4.42133,-3.2771 12.40168,-2.19352 21.84711,-2.73525c16.81399,-0.96433 34.21152,-0.6729 51.62851,-0.65478c6.42327,0.00669 18.97474,-0.79161 23.50567,-0.53444c7.88736,0.44769 12.45776,2.29871 20.10211,2.85489c5.60931,0.40809 11.5214,0.17612 18.06825,1.08153c0.49703,0.06874 0.99398,0.13745 1.49101,0.2062c17.23314,0.01792 34.46629,0.03585 51.69948,0.05379z" data-paper-data="{&quot;index&quot;:null}" fill="#000000" fill-rule="nonzero" stroke="none" stroke-width="0" stroke-linecap="butt"/><path d="M163.37679,299.05113c-0.0168,0.05347 -0.02491,0.10925 -0.025,0.1674c-0.00194,1.41699 5.18615,1.42479 5.18615,1.42479c22.80215,0.02373 45.72579,0.07574 68.52805,0.09946c5.86764,0.00611 20.48202,-0.61494 24.80854,0.23704c2.49208,0.49077 4.28083,0.44667 7.47484,0.51394c0.36057,0.00761 1.01678,0.02408 1.59627,0.03422c-3.08955,0.60199 -1.58855,6.20988 -1.59071,7.77312c-0.00907,6.6126 -0.02895,13.26446 -0.03799,19.87705c-0.00163,1.18081 -0.0121,2.36739 -0.01371,3.54817c-0.00066,0.47235 0.90163,1.82125 -0.00583,1.41909c-3.45256,-1.53007 -10.20178,-0.71331 -18.07478,-0.72425c-15.51939,-0.02152 -32.18099,-0.4782 -47.42446,0.27224c-27.83589,1.4989 -58.03187,-0.95983 -85.64586,0.71372c-23.25751,1.57149 -51.20845,1.66155 -75.16808,1.63662c-6.02324,-0.00625 -12.05696,-0.01699 -18.0802,-0.02324c-0.90632,-0.00096 -2.33116,-0.03685 -3.80425,-0.07509c1.48302,-0.72535 -0.07586,-2.48981 -0.07452,-3.47734c0.00506,-3.68916 -4.51614,-10.08218 1.01984,-13.39095c4.89361,-4.01968 8.00167,-7.91845 15.98073,-11.92405c5.88724,-2.95553 15.08788,-5.5923 19.95963,-8.52912c2.36227,-1.75089 4.48917,-0.50093 12.17477,-0.89873c17.00621,-0.8802 34.17192,-0.69279 51.73915,-0.67453c6.40323,0.00666 14.51696,0.36838 20.72296,0.018c1.30991,-0.07397 3.79264,-0.35136 5.63821,-0.57877c-3.37613,0.71216 4.35494,1.41335 7.59043,1.86079c2.5355,0.35065 5.05832,0.55427 7.52615,0.70039z" data-paper-data="{&quot;noHover&quot;:false,&quot;origItem&quot;:[&quot;Path&quot;,{&quot;applyMatrix&quot;:true,&quot;segments&quot;:[[[579.60736,595.76373],[0.95609,-0.20262],[0.00646,0.07548]],[[579.61718,596],[0,-0.08208],[0,2]],[[577.61718,598],[0,0],[-8.83333,0]],[[551.11718,598],[8.83333,0],[-2.27308,0]],[[541.51161,598.28885],[1.67648,-1.19621],[-0.96568,0.68904]],[[538.61718,599],[1.23739,-0.09027],[-0.13966,0.01019]],[[537.99901,599.04541],[0.22447,-0.0134],[1.19653,0.85421]],[[538.61718,610],[0,-2.20646],[0,9.33333]],[[538.61718,638],[0,-9.33333],[0,1.66667]],[[538.61718,643],[0,-1.66667],[0,0.66667]],[[538.61718,645],[-0.35177,0.56631],[1.33831,-2.15456]],[[545.61718,644],[-3.04994,0.00386],[6.01206,-0.00761]],[[563.97058,644.43107],[-5.90478,-1.08158],[10.78253,2.15651]],[[597.04254,645.54479],[-10.6965,-2.40266],[9.00888,2.25222]],[[626.11718,648],[-9.28168,0],[2.33333,0]],[[633.11718,648],[-2.33333,0],[0.35109,0]],[[634.59021,647.90091],[-0.5707,0.05184],[-0.57412,-1.02596]],[[634.61718,643],[0,1.39387],[0,-5.20707]],[[634.21982,624.13246],[2.14282,4.67827],[-1.8936,-5.6808]],[[628.03948,607.31672],[3.08887,5.66543],[-2.2791,-4.1802]],[[620.32688,595.27881],[1.8857,4.15235],[-0.91417,-2.47477]],[[615.61718,594],[2.9771,0.57275],[-6.58756,-1.26734]],[[595.61718,593],[6.8054,0],[-2.48058,0]],[[587.61718,593],[2.40395,0.50364],[-0.50743,-0.10631]],[[585.44122,592.1748],[0.71481,0.32365],[1.30749,1.01011]],[[582.51161,594.78885],[1.25365,-0.62682],[-0.98239,0.4912]]],&quot;closed&quot;:true}],&quot;index&quot;:null}" fill="#c9c9c9" fill-rule="nonzero" stroke="none" stroke-width="0" stroke-linecap="butt"/><path d="M90.99403,304.17073c-0.00067,0.47889 1.77837,1.06113 0.89076,1.43938c2.26887,0.06648 4.55109,0.20885 6.5782,0.4892c7.8158,1.08093 23.71294,5.00656 25.20885,7.59251c0.12164,0.21034 -2.08899,0.24317 -1.71489,0.42997c1.24482,0.62157 11.39785,-0.44585 12.5653,-0.26847c0.26421,0.04015 0.39396,0.1024 0.44583,0.17801c-0.05406,-0.23481 -0.10352,-0.46182 -0.10333,-0.60464c0.00069,-0.50192 0.07367,-1.04274 -0.74355,-1.49253c-6.9464,-3.96421 -18.29942,-7.73766 -37.9644,-7.75811c0,0 -2.32061,-0.0024 -3.84966,-0.43104c-0.51,-0.08008 -0.90652,-0.174 -1.17233,-0.28397c-0.06872,0.27025 -0.14059,0.54534 -0.14083,0.70964zM134.86289,314.8437c0.35194,0.29048 0.24865,-0.19116 0.13229,-0.69504c-0.0248,0.21858 -0.37284,0.49655 -0.13229,0.69504zM143.35832,310.67641c6.41475,3.53053 -8.16853,8.66399 -21.40526,6.27935c-12.48898,-2.24993 -16.71293,-6.75012 -28.11122,-8.32648c-3.85074,-0.53253 -8.46538,-0.82588 -11.34132,-1.70823c-4.55751,-1.39828 -2.52983,-6.15467 6.18928,-6.1456c6.27836,0.00653 9.36997,0.56865 15.21501,0.57471l2.58133,0.00267c0,0 2.96323,0.00308 4.39899,0.62076c15.29111,1.38605 25.09977,4.87732 32.47316,8.70279z" data-paper-data="{&quot;index&quot;:null}" fill="#000000" fill-rule="nonzero" stroke="none" stroke-width="0" stroke-linecap="butt"/><path d="M90.94327,303.41339c0.26561,0.10996 0.6624,0.20386 1.17244,0.28397c1.52904,0.42862 3.86019,0.42801 3.86019,0.42801c19.66494,0.02045 31.42788,3.87754 38.37421,7.84175c0.81725,0.44979 0.72169,1.00047 0.72101,1.50237c-0.00018,0.14281 0.03971,0.37305 0.09375,0.60788c-0.0518,-0.07568 -0.18028,-0.13825 -0.44458,-0.17841c-1.16748,-0.17737 -11.40845,0.90858 -12.6533,0.28703c-0.37414,-0.1868 1.5915,-0.34433 1.46973,-0.55468c-1.49586,-2.58594 -17.46976,-6.49184 -25.28565,-7.57278c-2.02717,-0.28036 -4.32249,-0.41697 -6.59138,-0.48345c0.88761,-0.3783 -0.87021,-0.96924 -0.86955,-1.44812c0.00022,-0.16431 0.08403,-0.44331 0.15293,-0.71356z" data-paper-data="{&quot;noHover&quot;:false,&quot;origItem&quot;:[&quot;Path&quot;,{&quot;applyMatrix&quot;:true,&quot;segments&quot;:[[[607.563,601.99816],[0.02649,0.38155],[-0.10299,0.15484]],[[607.10872,602.39727],[0.1976,-0.11227],[-0.59254,0.60273]],[[605.61718,603],[0,0],[-7.618,0]],[[590.90604,613.89443],[2.69308,-5.58508],[-0.31682,0.63364]],[[590.61718,616],[0,-0.70843],[0,0.20156]],[[590.57685,616.85325],[0.02106,-0.33136],[0.02013,-0.10671]],[[590.74964,616.60263],[-0.10238,0.05628],[0.45234,-0.24865]],[[595.61718,617],[-0.48256,0.87548],[0.14503,-0.26312]],[[594.95308,616.3906],[-0.04725,0.29671],[0.58086,-3.64773]],[[604.72276,605.71115],[-3.02833,1.51416],[0.78545,-0.39273]],[[607.27135,605.03032],[-0.87898,0.0905],[-0.34365,-0.53523]],[[607.61718,603],[0,0.6759],[0,-0.23192]]],&quot;closed&quot;:true}],&quot;index&quot;:null}" fill="#ffffff" fill-rule="nonzero" stroke="none" stroke-width="0" stroke-linecap="butt"/><path d="M164.71899,300.07981l33.57674,-31.43214l93.69715,-0.1835l-19.76914,31.72747z" data-paper-data="{&quot;index&quot;:null}" fill="#cedce9" fill-rule="nonzero" stroke="#000000" stroke-width="0" stroke-linecap="round"/><path d="M155.80894,298.4206c-3.2355,-0.44746 -10.93595,-1.14775 -7.55991,-1.85993c-1.84559,0.22739 -4.30777,0.50485 -5.61781,0.5788c-6.20599,0.35039 -14.24765,-0.01482 -20.65104,-0.02148c-17.56731,-0.01827 -34.62226,-0.22543 -51.62851,0.65479c-7.68561,0.3978 -9.79648,-0.85752 -12.15878,0.89338c-4.8717,2.93684 -14.03364,5.55253 -19.92079,8.50805c-7.97904,4.00565 -11.07645,7.87747 -15.97007,11.89718c-5.53593,3.30875 -1.03896,9.67722 -1.04401,13.36639c-0.00135,0.98753 1.54789,2.74696 0.06491,3.47233c1.47321,0.03827 2.89607,0.07324 3.80232,0.07417c6.02324,0.00625 12.04639,0.01253 18.06966,0.01878c23.95951,0.02492 51.79746,-0.08992 75.05494,-1.66141c27.61399,-1.67353 57.53642,0.79864 85.37227,-0.70027c15.24348,-0.75043 31.85806,-0.27766 47.37744,-0.25609c7.87301,0.01092 14.6161,-0.8028 18.06866,0.72729c0.90746,0.40219 0.00129,-0.94465 0.00194,-1.41699c0.00162,-1.18081 0.00325,-2.36164 0.00485,-3.54245c0.00908,-6.6126 0.01812,-13.22516 0.0272,-19.83773c0.00216,-1.56323 -1.48319,-7.15758 1.60635,-7.75954c-0.5794,-0.01009 -1.23515,-0.02624 -1.59566,-0.03383c-3.19412,-0.06731 -4.97879,-0.02084 -7.47096,-0.51162c-4.32652,-0.852 -18.92768,-0.22433 -24.79534,-0.23044c-22.80214,-0.02373 -45.60426,-0.04745 -68.40647,-0.07117c0,0 -5.16274,-0.00537 -5.1608,-1.42233c0.00007,-0.05819 0.00879,-0.11391 0.02558,-0.16736c-2.46786,-0.14614 -4.96064,-0.34785 -7.49601,-0.6985zM236.85053,297.94605c13.7646,0.01432 31.35776,-0.64009 40.75383,2.24264c5.38439,1.65194 1.82628,6.92669 1.82328,9.13751c-0.00908,6.6126 -0.01813,13.22517 -0.0272,19.83774c-0.00103,0.75509 1.77206,4.50268 -0.0068,4.95944c-17.9674,4.61323 -51.81605,0.96607 -73.75043,2.29912c-27.21896,1.46569 -58.55864,-1.41386 -84.8929,0.67118c-23.97061,1.61965 -52.84633,1.76915 -77.5594,1.74343c-3.54483,-0.00369 -24.80438,0.71101 -27.10445,-0.0282c-6.59588,-2.11983 -5.15742,-3.88095 -5.15399,-6.38179c0.00619,-4.52344 -2.90798,-9.91846 1.5752,-14.26202c5.01563,-4.11991 8.53476,-8.25359 16.53093,-12.26781c3.22556,-1.61926 6.71019,-3.78611 10.87775,-5.24732c2.72704,-0.95614 7.9395,-1.72985 8.59231,-2.97579c4.42133,-3.2771 12.40169,-2.19352 21.84712,-2.73525c16.81399,-0.96433 34.21151,-0.6729 51.62851,-0.65478c6.42327,0.00669 18.97474,-0.79161 23.50567,-0.53444c7.88736,0.44769 12.45777,2.29871 20.10212,2.85489c5.60932,0.40809 11.5214,0.17612 18.06825,1.08153c0.49703,0.06874 0.99398,0.13745 1.49101,0.2062c17.23314,0.01792 34.46629,0.03585 51.69948,0.05379z" data-paper-data="{&quot;index&quot;:null}" fill="#000000" fill-rule="nonzero" stroke="none" stroke-width="0" stroke-linecap="butt"/><path d="M163.37679,299.05113c-0.0168,0.05347 -0.02491,0.10925 -0.025,0.1674c-0.00194,1.41699 5.18615,1.42479 5.18615,1.42479c22.80215,0.02373 45.72579,0.07574 68.52805,0.09946c5.86764,0.00611 20.48202,-0.61494 24.80854,0.23704c2.49208,0.49077 4.28083,0.44667 7.47484,0.51394c0.36057,0.00761 1.01678,0.02408 1.59627,0.03422c-3.08955,0.60199 -1.58855,6.20988 -1.59071,7.77312c-0.00907,6.6126 -0.02895,13.26446 -0.03799,19.87705c-0.00163,1.18081 -0.0121,2.36739 -0.01371,3.54817c-0.00066,0.47235 0.90163,1.82125 -0.00583,1.41909c-3.45256,-1.53007 -10.20178,-0.71331 -18.07478,-0.72425c-15.51939,-0.02152 -32.18099,-0.4782 -47.42446,0.27224c-27.83589,1.4989 -58.03187,-0.95983 -85.64586,0.71372c-23.25751,1.57149 -51.20845,1.66155 -75.16808,1.63662c-6.02324,-0.00625 -12.05696,-0.01699 -18.0802,-0.02324c-0.90632,-0.00096 -2.33116,-0.03685 -3.80425,-0.07509c1.48302,-0.72535 -0.07586,-2.48981 -0.07452,-3.47734c0.00506,-3.68916 -4.51614,-10.08218 1.01984,-13.39095c4.89361,-4.01968 8.00167,-7.91845 15.98073,-11.92405c5.88724,-2.95553 15.08788,-5.5923 19.95963,-8.52912c2.36227,-1.75089 4.48917,-0.50093 12.17477,-0.89873c17.00621,-0.8802 34.17192,-0.69279 51.73915,-0.67453c6.40323,0.00666 14.51696,0.36838 20.72296,0.018c1.30991,-0.07397 3.79264,-0.35136 5.63821,-0.57877c-3.37613,0.71216 4.35494,1.41335 7.59043,1.86079c2.5355,0.35065 5.05832,0.55427 7.52615,0.70039z" data-paper-data="{&quot;noHover&quot;:false,&quot;origItem&quot;:[&quot;Path&quot;,{&quot;applyMatrix&quot;:true,&quot;segments&quot;:[[[579.60736,595.76373],[0.95609,-0.20262],[0.00646,0.07548]],[[579.61718,596],[0,-0.08208],[0,2]],[[577.61718,598],[0,0],[-8.83333,0]],[[551.11718,598],[8.83333,0],[-2.27308,0]],[[541.51161,598.28885],[1.67648,-1.19621],[-0.96568,0.68904]],[[538.61718,599],[1.23739,-0.09027],[-0.13966,0.01019]],[[537.99901,599.04541],[0.22447,-0.0134],[1.19653,0.85421]],[[538.61718,610],[0,-2.20646],[0,9.33333]],[[538.61718,638],[0,-9.33333],[0,1.66667]],[[538.61718,643],[0,-1.66667],[0,0.66667]],[[538.61718,645],[-0.35177,0.56631],[1.33831,-2.15456]],[[545.61718,644],[-3.04994,0.00386],[6.01206,-0.00761]],[[563.97058,644.43107],[-5.90478,-1.08158],[10.78253,2.15651]],[[597.04254,645.54479],[-10.6965,-2.40266],[9.00888,2.25222]],[[626.11718,648],[-9.28168,0],[2.33333,0]],[[633.11718,648],[-2.33333,0],[0.35109,0]],[[634.59021,647.90091],[-0.5707,0.05184],[-0.57412,-1.02596]],[[634.61718,643],[0,1.39387],[0,-5.20707]],[[634.21982,624.13246],[2.14282,4.67827],[-1.8936,-5.6808]],[[628.03948,607.31672],[3.08887,5.66543],[-2.2791,-4.1802]],[[620.32688,595.27881],[1.8857,4.15235],[-0.91417,-2.47477]],[[615.61718,594],[2.9771,0.57275],[-6.58756,-1.26734]],[[595.61718,593],[6.8054,0],[-2.48058,0]],[[587.61718,593],[2.40395,0.50364],[-0.50743,-0.10631]],[[585.44122,592.1748],[0.71481,0.32365],[1.30749,1.01011]],[[582.51161,594.78885],[1.25365,-0.62682],[-0.98239,0.4912]]],&quot;closed&quot;:true}],&quot;index&quot;:null}" fill="#c9c9c9" fill-rule="nonzero" stroke="none" stroke-width="0" stroke-linecap="butt"/><path d="M90.99402,304.17073c-0.00067,0.47889 1.77837,1.06113 0.89075,1.43938c2.26887,0.06648 4.55109,0.20885 6.5782,0.4892c7.8158,1.08093 23.71294,5.00656 25.20885,7.59251c0.12164,0.21034 -2.08899,0.24317 -1.71489,0.42997c1.24482,0.62157 11.39785,-0.44585 12.5653,-0.26847c0.26421,0.04015 0.39396,0.1024 0.44583,0.17801c-0.05406,-0.23481 -0.10352,-0.46182 -0.10333,-0.60464c0.00069,-0.50192 0.07367,-1.04274 -0.74355,-1.49253c-6.9464,-3.96421 -18.29942,-7.73766 -37.9644,-7.75811c0,0 -2.32061,-0.0024 -3.84966,-0.43104c-0.51,-0.08008 -0.90653,-0.174 -1.17233,-0.28397c-0.06872,0.27025 -0.14059,0.54534 -0.14082,0.70964zM134.86289,314.8437c0.35194,0.29048 0.24865,-0.19116 0.13229,-0.69504c-0.0248,0.21858 -0.37284,0.49655 -0.13229,0.69504zM143.35832,310.67641c6.41475,3.53053 -8.16853,8.66399 -21.40526,6.27935c-12.48898,-2.24993 -16.71293,-6.75012 -28.11122,-8.32648c-3.85074,-0.53253 -8.46538,-0.82588 -11.34132,-1.70823c-4.55751,-1.39828 -2.52983,-6.15467 6.18928,-6.1456c6.27836,0.00653 9.36997,0.56865 15.21501,0.57471l2.58133,0.00267c0,0 2.96323,0.00308 4.39899,0.62076c15.29111,1.38605 25.09977,4.87732 32.47316,8.70279z" data-paper-data="{&quot;index&quot;:null}" fill="#000000" fill-rule="nonzero" stroke="none" stroke-width="0" stroke-linecap="butt"/><path d="M90.94327,303.41339c0.26561,0.10996 0.6624,0.20386 1.17244,0.28397c1.52904,0.42862 3.86019,0.42801 3.86019,0.42801c19.66494,0.02045 31.42788,3.87754 38.37421,7.84175c0.81725,0.44979 0.72169,1.00047 0.72101,1.50237c-0.00018,0.14281 0.03971,0.37305 0.09375,0.60788c-0.0518,-0.07568 -0.18028,-0.13825 -0.44458,-0.17841c-1.16748,-0.17737 -11.40845,0.90858 -12.6533,0.28703c-0.37414,-0.1868 1.5915,-0.34433 1.46973,-0.55468c-1.49586,-2.58594 -17.46976,-6.49184 -25.28565,-7.57278c-2.02717,-0.28036 -4.32249,-0.41697 -6.59138,-0.48345c0.88761,-0.3783 -0.87021,-0.96924 -0.86955,-1.44812c0.00022,-0.16431 0.08403,-0.44331 0.15293,-0.71356z" data-paper-data="{&quot;noHover&quot;:false,&quot;origItem&quot;:[&quot;Path&quot;,{&quot;applyMatrix&quot;:true,&quot;segments&quot;:[[[607.563,601.99816],[0.02649,0.38155],[-0.10299,0.15484]],[[607.10872,602.39727],[0.1976,-0.11227],[-0.59254,0.60273]],[[605.61718,603],[0,0],[-7.618,0]],[[590.90604,613.89443],[2.69308,-5.58508],[-0.31682,0.63364]],[[590.61718,616],[0,-0.70843],[0,0.20156]],[[590.57685,616.85325],[0.02106,-0.33136],[0.02013,-0.10671]],[[590.74964,616.60263],[-0.10238,0.05628],[0.45234,-0.24865]],[[595.61718,617],[-0.48256,0.87548],[0.14503,-0.26312]],[[594.95308,616.3906],[-0.04725,0.29671],[0.58086,-3.64773]],[[604.72276,605.71115],[-3.02833,1.51416],[0.78545,-0.39273]],[[607.27135,605.03032],[-0.87898,0.0905],[-0.34365,-0.53523]],[[607.61718,603],[0,0.6759],[0,-0.23192]]],&quot;closed&quot;:true}],&quot;index&quot;:null}" fill="#ffffff" fill-rule="nonzero" stroke="none" stroke-width="0" stroke-linecap="butt"/><g><path d="M583.58896,242.474c0.30548,0.75675 0.40835,1.57132 0.31172,2.44374c-2.54985,0.08851 -5.04361,-0.00218 -7.48125,-0.27153c2.39087,0 4.77864,0 7.16953,0c0,-0.72416 0,-1.44806 0,-2.17222z" data-paper-data="{&quot;index&quot;:null}" fill="#6b6b6b" fill-rule="evenodd" stroke="none" stroke-width="0" stroke-linecap="butt"/><path d="M594.1874,243.83163c0.2899,0.28999 0.39589,0.65193 0.31172,1.0861c-3.17329,0.08879 -6.29048,-0.00164 -9.35156,-0.27153c3.01432,0 6.02552,0 9.03984,0c0,-0.27152 0,-0.54305 0,-0.81458z" data-paper-data="{&quot;index&quot;:null}" fill="#9e9e9e" fill-rule="evenodd" stroke="none" stroke-width="0" stroke-linecap="butt"/><path d="M502.54206,244.91772c2.54674,0 5.04049,0.0907 7.48125,0.27153c-5.01244,-0.08607 -9.99995,0.00435 -14.96252,0.27153c2.38152,-0.3614 4.87528,-0.54252 7.48125,-0.54306z" data-paper-data="{&quot;index&quot;:null}" fill="#484848" fill-rule="evenodd" stroke="none" stroke-width="0" stroke-linecap="butt"/><path d="M83.28014,246.81841c3.79611,-0.08906 7.53673,0.00136 11.22188,0.27153c-3.81888,-0.16671 -7.5595,0.0144 -11.22188,0.54306c0,-0.27152 0,-0.54305 0,-0.81458z" data-paper-data="{&quot;index&quot;:null}" fill="#838383" fill-rule="evenodd" stroke="none" stroke-width="0" stroke-linecap="butt"/><path d="M23.86418,93.76837l1.47565,0.21424l164.59665,1.92808v14.1414l95.364,0.05356v27.31448l49.18839,2.35654l0.49189,-16.06734l91.55189,1.92808v16.06733l29.51303,0.21423v54.78963l15.00246,0.58914l140.2484,1.01759l-1.96753,90.40557l-3.44319,0.10711l-323.98511,3.85616l-0.24594,-8.58003l-257.6242,-0.26779v-4.8202v-183.70326z" fill="#413831" fill-rule="nonzero" stroke="#000000" stroke-width="1" stroke-linecap="round"/><path d="M140.93421,197.64908l29.28309,0.52524v66.31184l-30.69432,0.52524l0.35281,-67.32951z" fill="#928b78" fill-rule="nonzero" stroke="#000000" stroke-width="1" stroke-linecap="round"/><path d="M132.35772,265.81162l-50.56643,-1.18817l1.28832,-68.8812l48.95603,1.05616z" fill="#928b78" fill-rule="nonzero" stroke="#000000" stroke-width="1" stroke-linecap="round"/><path d="M74.69809,266.01698l-16.175,-1.29586l-1.4516,-66.4129l16.58974,-1.42545z" fill="#928b78" fill-rule="nonzero" stroke="#000000" stroke-width="1" stroke-linecap="round"/><path d="M189.82375,95.71189l2.01613,94.19498l-168.16349,-2.39479l0.54985,-93.07741z" fill="#736c59" fill-rule="nonzero" stroke="#000000" stroke-width="1" stroke-linecap="round"/><path d="M189.13717,96.12492l-180.02951,-2.14231l-6.82489,-11.35426l192.94147,5.99848l16.23217,13.92503l104.09493,0.6427l-2.21348,8.35502l-105.01721,-1.92808l-18.69159,0.6427z" fill="#8b8471" fill-rule="nonzero" stroke="#000000" stroke-width="1" stroke-linecap="round"/><path d="M314.07569,123.06448l-2.21348,-4.71308l139.69503,1.07116l-6.64043,6.64117l-129.36547,-2.35654" fill="#8b8471" fill-rule="nonzero" stroke="#000000" stroke-width="1" stroke-linecap="round"/><path d="M283.087,132.49066l52.1397,1.07116l-0.84551,5.57001l-50.16685,-0.85692z" fill="#8b8471" fill-rule="nonzero" stroke="#000000" stroke-width="1" stroke-linecap="round"/><path d="M425.73335,136.56106l63.69896,-2.35655l-5.16478,7.71232l-58.04231,0.42846z" fill="#8b8471" fill-rule="nonzero" stroke="#000000" stroke-width="1" stroke-linecap="round"/><path d="M456.59904,190.65444l-171.91343,-1.45538v-43.66147h51.34039v25.2093l90.70547,1.06387l-1.12111,-21.85504l30.98869,1.24747z" fill="#262626" fill-rule="nonzero" stroke="#000000" stroke-width="1" stroke-linecap="round"/><path d="M279.64481,195.42108l-0.73782,-6.8554l356.43138,1.71384l-3.93507,7.92655l-174.98871,-1.28539z" fill="#8b8471" fill-rule="nonzero" stroke="#000000" stroke-width="1" stroke-linecap="round"/><path d="M426.59513,125.42103l1.22971,46.70241l-92.22823,-1.92808l-0.49189,-46.27394z" fill="#736c59" fill-rule="nonzero" stroke="#000000" stroke-width="1" stroke-linecap="round"/><path d="M352.51246,132.072l56.1736,-0.23927l1.09875,33.49787l-57.82173,-0.71782z" fill="#515a61" fill-rule="nonzero" stroke="#000000" stroke-width="1" stroke-linecap="round"/><path d="M212.04412,214.23148h59.05783l0.54937,70.18689l-62.90345,-0.47854l0.27469,-70.3156z" fill="#090909" fill-rule="nonzero" stroke="#000000" stroke-width="1" stroke-linecap="round"/><path d="M226.19052,214.01306h32.13844l0.82407,70.34552l-33.78657,-0.11964l0.13735,-70.85396z" fill="#2d0d0e" fill-rule="nonzero" stroke="#000000" stroke-width="1" stroke-linecap="round"/><path d="M271.17061,262.64475h228.86105v27.06747l-218.75429,3.08061l-0.13735,-8.85301l-9.47672,0.11963l-0.27469,-20.69689" fill="#807165" fill-rule="nonzero" stroke="#000000" stroke-width="1" stroke-linecap="round"/><path d="M46.78059,188.56066l0.27469,95.25954l-23.89782,0.71782l0.68672,-96.90453l22.93641,0.11963z" fill="#807165" fill-rule="nonzero" stroke="#000000" stroke-width="1" stroke-linecap="round"/><path d="M173.27421,189.06911h18.02637l0.17168,94.96046l-17.44266,0.14954z" fill="#807165" fill-rule="nonzero" stroke="#000000" stroke-width="1" stroke-linecap="round"/><path d="M298.53173,292.43392v-68.90989l173.05315,0.11964l0.27469,66.63682z" fill="#928b78" fill-rule="nonzero" stroke="#000000" stroke-width="1" stroke-linecap="round"/><path d="M304.54052,292.70312l-0.41203,-65.2012l160.17717,0.11964l0.41203,62.77858z" fill="#3c332c" fill-rule="nonzero" stroke="#000000" stroke-width="1" stroke-linecap="round"/><path d="M500.11805,290.40014l-0.96141,-66.12837l79.96841,0.23927l-0.96141,64.96193z" fill="#928b78" fill-rule="nonzero" stroke="#000000" stroke-width="1" stroke-linecap="round"/><path d="M502.38422,290.87867v-62.50941l68.91224,0.23927l-1.2361,60.98406z" fill="#3c332c" fill-rule="nonzero" stroke="#000000" stroke-width="1" stroke-linecap="round"/><path d="M301.66093,161.17326l-2.33484,3.58905l-4.25766,-0.11964l-11.26219,-18.66309l-126.90565,-1.55526l-4.25766,-6.57993l137.89315,0.59817z" fill="#8b8471" fill-rule="nonzero" stroke="#000000" stroke-width="1" stroke-linecap="round"/><path d="M140.55206,103.44019l1.64812,51.38333l-77.49622,-0.11963l-0.27469,-53.29749z" fill="#515a61" fill-rule="nonzero" stroke="#000000" stroke-width="1" stroke-linecap="round"/><path d="M128.63749,262.52513l-43.12595,-1.07671l1.09875,-62.41968l41.7525,0.95708z" fill="#515a61" fill-rule="nonzero" stroke="#000000" stroke-width="1" stroke-linecap="round"/><path d="M71.7219,263.36258l-10.71282,-1.19635l-0.9614,-61.31305l10.9875,-1.31599z" fill="#515a61" fill-rule="nonzero" stroke="#000000" stroke-width="1" stroke-linecap="round"/><path d="M144.01997,200.64382l22.79906,0.47854v60.41579l-23.89781,0.47854l0.27469,-61.34296z" fill="#515a61" fill-rule="nonzero" stroke="#000000" stroke-width="1" stroke-linecap="round"/></g><path d="M266.7374,155.05409c-0.06886,0.92132 0.00324,1.80237 0.21652,2.64277c-0.01299,0.11039 -0.08508,0.17807 -0.21652,0.20329c-0.28406,-0.97946 -0.28406,-1.9282 0,-2.84606z" data-paper-data="{&quot;index&quot;:null}" fill="#9e9e9e" fill-rule="evenodd" stroke="none" stroke-width="0" stroke-linecap="butt"/><path d="M241.93693,149.76452h5.67459v5.76678l-0.94576,-4.94293z" fill="#736d42" fill-rule="evenodd" stroke="none" stroke-width="0" stroke-linecap="butt"/><path d="M210.38099,160.18614c0.2303,0 0.42369,0.03468 0.58609,0.09286c2.53071,-2.9099 6.76151,-4.39071 10.81448,-4.34339c0.68051,0.00794 5.0493,0.35185 5.75233,0.82967c1.54118,1.04744 2.05379,3.00897 3.14937,4.46939c4.54198,6.05432 5.31977,12.295 0.40807,18.37243c-3.45876,1.81508 -6.25406,3.43328 -10.36086,3.35076c-11.63946,-0.23389 -14.77262,-12.57559 -11.71253,-21.20174l-0.07372,-0.22095c0,0 0,-1.34904 1.43679,-1.34904zM211.44232,163.55616c-1.92196,6.7702 0.10682,16.591 9.27893,16.70366c3.39694,0.04172 5.58728,-1.25126 8.48976,-2.69295c3.8961,-4.96967 2.73031,-9.99064 -0.87536,-14.77624c-0.91642,-1.21626 -1.22531,-2.89292 -2.46377,-3.82432c-1.08144,-0.8133 -2.75641,-0.30142 -4.14159,-0.33303c-3.39953,-0.0776 -7.58619,1.33489 -9.17377,4.20458c0,0 -0.39092,0.66066 -1.1142,0.71829z" data-paper-data="{&quot;index&quot;:null}" fill="#75dbff" fill-rule="nonzero" stroke="none" stroke-width="0" stroke-linecap="butt"/><path d="M212.51175,162.80399c1.58757,-2.8697 5.82161,-4.30225 9.22113,-4.22466c1.38519,0.03161 3.07981,-0.47611 4.16125,0.33719c1.23847,0.93138 1.56604,2.61992 2.48244,3.83619c3.60566,4.78563 4.76937,9.88418 0.8733,14.85386c-2.9025,1.44168 -5.13411,2.74883 -8.53104,2.70708c-9.17211,-0.11267 -11.24699,-10.0163 -9.32505,-16.7865c0.72328,-0.05761 1.11795,-0.72319 1.11795,-0.72319z" data-paper-data="{&quot;noHover&quot;:false,&quot;origItem&quot;:[&quot;Path&quot;,{&quot;applyMatrix&quot;:true,&quot;segments&quot;:[[[409.4867,271.35519],[1.25852,-0.10678],[-3.34423,12.54639]],[[425.63199,302.31001],[-15.95943,-0.20878],[5.91067,0.07732]],[[440.40413,297.31952],[-5.05034,2.67171],[6.7792,-9.20965]],[[438.881,269.93654],[6.27385,8.86861],[-1.59451,-2.25397]],[[434.59405,262.84941],[2.15492,1.72602],[-1.88172,-1.50719]],[[427.3877,262.23225],[2.4102,0.05859],[-5.91515,-0.1438]],[[411.4254,270.0241],[2.76238,-5.31806],[0,0]]],&quot;closed&quot;:true}],&quot;index&quot;:null}" fill="#ffffff" fill-rule="nonzero" stroke="none" stroke-width="0" stroke-linecap="butt"/><path d="M245.01954,159.41836c3.84852,-1.25724 8.09747,0.13525 11.98494,1.46796c0.91883,0.315 4.11387,1.22369 4.83263,2.16791c1.73039,2.27309 1.55353,5.98582 1.86624,8.62788c0.29339,2.47887 0.87652,4.8918 -0.91547,7.07558c-3.13895,3.82521 -7.87289,5.19851 -12.60766,6.38107c-2.18712,0.24493 -4.14864,0.88728 -6.1682,-0.50091c-1.21965,-0.83836 -2.41076,-3.63603 -2.99129,-4.85841c-1.9755,-4.15971 -5.16204,-9.61564 -3.48967,-14.37382c0.56682,-1.61267 3.45026,-3.52545 4.44459,-4.97233l1.7368,-0.94386c0,0 0.67433,-0.34776 1.30712,-0.071zM243.49734,162.89655c-0.98323,0.9956 -3.13818,2.92311 -3.25471,3.40205c-1.04127,4.27942 1.64864,8.66361 3.40689,12.39103c0.13897,0.29464 1.4949,3.33787 2.06621,3.77541c0.92941,0.7118 3.15207,0.12515 3.91093,0.02609c4.20496,-1.05575 7.93205,-2.17433 10.87651,-5.3699c1.22934,-1.33419 0.52019,-3.66526 0.34432,-5.14015c-0.24066,-2.01847 0.00429,-5.42553 -1.23263,-7.21638c-0.70184,-1.01617 -2.38357,-0.92889 -3.59544,-1.34384c-3.45236,-1.18212 -8.2376,-3.09011 -11.46988,-0.78797c0,0 -0.48436,0.32484 -1.05224,0.26362z" data-paper-data="{&quot;index&quot;:null}" fill="#75dbff" fill-rule="nonzero" stroke="none" stroke-width="0" stroke-linecap="butt"/><path d="M244.52013,162.58657c3.23228,-2.30214 8.07575,-0.39447 11.52812,0.78766c1.21186,0.41494 2.90793,0.33875 3.6098,1.35493c1.2369,1.79087 1.00622,5.23236 1.24689,7.25083c0.17584,1.47491 0.87832,3.8324 -0.35105,5.16659c-2.94446,3.19554 -6.7274,4.34257 -10.93239,5.39831c-0.75885,0.09907 -2.99985,0.68123 -3.92924,-0.03057c-0.5713,-0.43755 -1.94448,-3.49196 -2.0835,-3.78659c-1.75824,-3.72741 -4.45661,-8.17762 -3.41535,-12.45704c0.11653,-0.47894 2.2871,-2.42235 3.27032,-3.41794c0.56787,0.06117 1.05636,-0.2662 1.05636,-0.2662z" data-paper-data="{&quot;noHover&quot;:false,&quot;origItem&quot;:[&quot;Path&quot;,{&quot;applyMatrix&quot;:true,&quot;segments&quot;:[[[465.26223,270.13291],[0.98811,0.11339],[-1.71083,1.84504]],[[459.59907,276.43751],[0.20277,-0.88758],[-1.81178,7.93053]],[[465.52703,299.40029],[-3.05933,-6.90758],[0.24182,0.54599]],[[469.12222,306.39679],[-0.99407,-0.81085],[1.61715,1.31908]],[[475.92722,306.44514],[-1.32039,0.18358],[7.31661,-1.95648]],[[494.85229,296.49376],[-5.12332,5.92193],[2.13908,-2.47252]],[[495.45142,286.96818],[0.30597,2.73324],[-0.41874,-3.7406]],[[493.30665,273.59497],[2.15221,3.31878],[-1.22123,-1.88318]],[[487.05062,271.1046],[2.10865,0.76899],[-6.0071,-2.19068]],[[467.0931,269.64433],[5.62415,-4.26625],[0,0]]],&quot;closed&quot;:true}],&quot;index&quot;:null}" fill="#ffffff" fill-rule="nonzero" stroke="none" stroke-width="0" stroke-linecap="butt"/><path d="M227.49907,170.10732c0,-1.19209 1.02922,-2.15845 2.29886,-2.15845c1.26963,0 2.29886,0.96637 2.29886,2.15845c0,1.19209 -1.02923,2.15846 -2.29886,2.15846c-1.26963,0 -2.29886,-0.96638 -2.29886,-2.15846z" data-paper-data="{&quot;index&quot;:null}" fill="#000000" fill-rule="nonzero" stroke="none" stroke-width="0" stroke-linecap="butt"/><path d="M256.87772,172.20844c0,-1.19209 1.02922,-2.15846 2.29886,-2.15846c1.26963,0 2.29886,0.96638 2.29886,2.15846c0,1.19209 -1.02923,2.15845 -2.29886,2.15845c-1.26963,0 -2.29886,-0.96637 -2.29886,-2.15845z" data-paper-data="{&quot;index&quot;:null}" fill="#000000" fill-rule="nonzero" stroke="none" stroke-width="0" stroke-linecap="butt"/><path d="M184.59694,120.78923c0.63758,-0.89799 1.59397,-0.29932 1.59397,-0.29932l0.46863,0.29333c5.08723,3.18437 9.93164,6.58899 14.79435,10.06765c10.70547,7.65839 22.50179,14.49128 32.03877,23.44578c0,0 0.81277,0.76313 0,1.52625c-0.81277,0.76313 -1.62554,0 -1.62554,0c-9.4608,-8.88299 -21.18593,-15.65753 -31.80643,-23.25514c-4.82446,-3.45129 -9.62926,-6.8294 -14.67633,-9.98861l-0.46862,-0.29333c0,0 -0.95639,-0.59863 -0.3188,-1.49662z" data-paper-data="{&quot;index&quot;:null}" fill="#75dbff" fill-rule="nonzero" stroke="none" stroke-width="0" stroke-linecap="butt"/><path d="M293.74984,107.73825c0.9742,0.57273 0.36424,1.48746 0.36424,1.48746l-0.6537,0.97619c-6.33538,7.28197 -13.97532,13.12156 -20.86271,19.8826c-9.46756,9.29386 -18.69518,19.14591 -29.05475,27.52148c0,0 -0.87272,0.70236 -1.62074,-0.11706c-0.74803,-0.81942 0.12467,-1.52174 0.12467,-1.52174c10.33337,-8.27412 19.48516,-18.14273 28.88952,-27.37459c6.81246,-6.68746 14.37909,-12.45814 20.65648,-19.64932l0.57281,-0.863c0,0 0.60998,-0.9147 1.58423,-0.34197z" data-paper-data="{&quot;index&quot;:null}" fill="#75dbff" fill-rule="nonzero" stroke="none" stroke-width="0" stroke-linecap="butt"/><path d="M201.44566,184.52784c-0.14647,-0.09366 -0.26958,-0.25111 -0.26958,-0.5158c0,-0.6533 0.75,-0.6533 0.75,-0.6533l1.02909,0.6533c0,3.30426 -1.06045,5.91377 -1.8238,9.09973c-0.90828,3.7908 1.29971,8.15222 3.95633,10.96426c2.14412,1.32376 4.37366,1.60223 6.75419,2.42793c6.36138,2.20645 12.10192,2.39488 18.8348,2.98997c9.49173,-0.00535 20.24092,0.1052 28.74321,-4.1287c8.09985,-4.01125 6.6588,-12.38121 5.53708,-19.19435c0,0 -0.10607,-0.64674 0.63639,-0.73912c0.74246,-0.09239 0.84853,0.55435 0.84853,0.55435c1.21306,7.42716 2.44753,16.15037 -6.2778,20.51358c-8.76097,4.35877 -19.77932,4.30445 -29.56275,4.29921c-6.89883,-0.60211 -12.81101,-0.83352 -19.33349,-3.08778c-2.55417,-0.88276 -4.89917,-1.2369 -7.2006,-2.6774c-3.05011,-3.15505 -5.34133,-7.86477 -4.41654,-12.13121c0.64138,-2.95894 1.68468,-5.38 1.79493,-8.37464z" fill="#75dbff" fill-rule="nonzero" stroke="none" stroke-width="0.5" stroke-linecap="butt"/></g></g></g></svg>