<svg version="1.1" xmlns="http://www.w3.org/2000/svg" xmlns:xlink="http://www.w3.org/1999/xlink" width="2878.25006" height="1619.57958" viewBox="0,0,2878.25006,1619.57958"><g transform="translate(1117.37278,629.80931)"><g data-paper-data="{&quot;isPaintingLayer&quot;:true}" stroke-linejoin="miter" stroke-miterlimit="10" stroke-dasharray="" stroke-dashoffset="0" style="mix-blend-mode: normal"><path d="M-1117.37278,989.77027v-1619.57958h2878.25006v1619.57958z" fill="none" fill-rule="nonzero" stroke="#000000" stroke-width="0" stroke-linecap="butt"/><g><path d="M371.77626,247.93493l-19.76914,-12.72865l93.69715,0.07362l33.57674,12.61017z" data-paper-data="{&quot;index&quot;:null}" fill="#cedce9" fill-rule="nonzero" stroke="#000000" stroke-width="0" stroke-linecap="round"/><path d="M488.1911,247.22443c-2.53537,0.14068 -5.02815,0.2216 -7.49601,0.28023c0.01679,0.02144 0.02551,0.0438 0.02559,0.06714c0.00194,0.56847 -5.1608,0.57062 -5.1608,0.57062c-22.80221,0.00952 -45.60433,0.01903 -68.40647,0.02856c-5.86765,0.00245 -20.46882,-0.24936 -24.79534,0.09245c-2.49217,0.19689 -4.27685,0.17825 -7.47097,0.20525c-0.36051,0.00305 -1.01625,0.00953 -1.59566,0.01357c3.08953,0.2415 1.60419,2.48588 1.60635,3.11303c0.00908,2.65288 0.01812,5.30575 0.0272,7.95864c0.0016,0.47373 0.00322,0.94746 0.00485,1.42119c0.00065,0.18949 -0.90552,0.72983 0.00194,0.56848c3.45256,-0.61385 10.19566,-0.2874 18.06866,-0.29178c15.51938,-0.00865 32.13396,-0.19832 47.37744,0.10274c27.83585,0.60134 57.75828,-0.39046 85.37226,0.28094c23.25749,0.63046 51.09544,0.67653 75.05495,0.66653c6.02327,-0.00251 12.04642,-0.00502 18.06966,-0.00753c0.90625,-0.00037 2.32912,-0.01441 3.80233,-0.02976c-1.48298,-0.291 0.06626,-0.99687 0.06491,-1.39305c-0.00505,-1.48005 4.49192,-4.035 -1.04401,-5.36242c-4.89362,-1.61265 -7.99102,-3.16598 -15.97006,-4.77299c-5.88716,-1.18572 -15.04909,-2.2351 -19.9208,-3.41332c-2.3623,-0.70244 -4.47318,-0.19882 -12.15878,-0.35841c-17.00624,-0.35313 -34.0612,-0.27002 -51.62851,-0.26269c-6.4034,0.00267 -14.44505,0.14919 -20.65104,0.00862c-1.31004,-0.02967 -3.77221,-0.14098 -5.6178,-0.23221c3.37603,0.28572 -4.32441,0.56667 -7.55991,0.74618zM407.1492,247.03405c17.23319,-0.0072 34.46634,-0.01439 51.69948,-0.02158c0.49704,-0.02758 0.99398,-0.05514 1.49101,-0.08273c6.54685,-0.36324 12.45893,-0.27018 18.06825,-0.43389c7.64435,-0.22313 12.21475,-0.96574 20.10212,-1.14534c4.53093,-0.10318 17.08239,0.21709 23.50567,0.21441c17.41699,-0.00727 34.81452,-0.12419 51.62851,0.26269c9.44543,0.21734 17.42579,-0.21739 21.84711,1.09735c0.65281,0.49986 5.86528,0.81026 8.59232,1.19385c4.16756,0.58622 7.65219,1.45553 10.87776,2.10516c7.99617,1.61046 11.5153,3.26883 16.53092,4.92169c4.48318,1.74258 1.56901,3.90699 1.5752,5.72174c0.00344,1.0033 1.44189,1.70984 -5.15399,2.56029c-2.30007,0.29656 -23.55962,0.00983 -27.10445,0.01131c-24.71307,0.01032 -53.58879,-0.04966 -77.5594,-0.69944c-26.33426,-0.83649 -57.67394,0.31875 -84.8929,-0.26927c-21.93438,-0.53481 -55.78304,0.92839 -73.75043,-0.92238c-1.77886,-0.18325 -0.00578,-1.68673 -0.00681,-1.98966c-0.00908,-2.65288 -0.01812,-5.30575 -0.0272,-7.95864c-0.00301,-0.88695 -3.56112,-3.00312 1.82327,-3.66585c9.39607,-1.15652 26.98922,-0.89398 40.75383,-0.89972z" data-paper-data="{&quot;index&quot;:null}" fill="#000000" fill-rule="nonzero" stroke="none" stroke-width="0" stroke-linecap="butt"/><path d="M480.62287,247.47737c2.46783,-0.05862 4.99065,-0.14031 7.52614,-0.28099c3.23549,-0.17951 10.96657,-0.46082 7.59043,-0.74653c1.84557,0.09123 4.3283,0.20252 5.63821,0.23219c6.206,0.14057 14.31973,-0.00455 20.72296,-0.00722c17.56722,-0.00733 34.73294,-0.08251 51.73914,0.27061c7.68559,0.15959 9.81249,-0.34188 12.17477,0.36056c4.87175,1.17821 14.0724,2.23605 19.95963,3.42177c7.97906,1.60699 11.08711,3.17113 15.98073,4.78378c5.53599,1.32743 1.01478,3.89223 1.01984,5.37228c0.00134,0.39618 -1.55753,1.10406 -0.07451,1.39506c-1.47309,0.01535 -2.89793,0.02974 -3.80425,0.03013c-6.02325,0.00251 -12.05696,0.00681 -18.0802,0.00933c-23.95963,0.01 -51.91057,-0.02614 -75.16808,-0.65659c-27.61399,-0.67141 -57.80997,0.315 -85.64586,-0.28634c-15.24347,-0.30107 -31.90507,-0.11785 -47.42446,-0.10921c-7.87299,0.00439 -14.62221,-0.32328 -18.07478,0.29056c-0.90746,0.16134 -0.00517,-0.37982 -0.00583,-0.56932c-0.00162,-0.47372 -0.01208,-0.94976 -0.01371,-1.42348c-0.00904,-2.65289 -0.02892,-5.32153 -0.038,-7.97442c-0.00216,-0.62716 1.49884,-2.87697 -1.59071,-3.11848c0.57949,-0.00406 1.2357,-0.01067 1.59627,-0.01373c3.19401,-0.02699 4.98276,-0.0093 7.47484,-0.20619c4.32652,-0.3418 18.94091,-0.09265 24.80854,-0.0951c22.80227,-0.00952 45.7259,-0.03038 68.52805,-0.0399c0,0 5.18809,-0.00313 5.18615,-0.57161c-0.00008,-0.02333 -0.0082,-0.04571 -0.025,-0.06716z" data-paper-data="{&quot;noHover&quot;:false,&quot;origItem&quot;:[&quot;Path&quot;,{&quot;applyMatrix&quot;:true,&quot;segments&quot;:[[[579.60736,595.76373],[0.95609,-0.20262],[0.00646,0.07548]],[[579.61718,596],[0,-0.08208],[0,2]],[[577.61718,598],[0,0],[-8.83333,0]],[[551.11718,598],[8.83333,0],[-2.27308,0]],[[541.51161,598.28885],[1.67648,-1.19621],[-0.96568,0.68904]],[[538.61718,599],[1.23739,-0.09027],[-0.13966,0.01019]],[[537.99901,599.04541],[0.22447,-0.0134],[1.19653,0.85421]],[[538.61718,610],[0,-2.20646],[0,9.33333]],[[538.61718,638],[0,-9.33333],[0,1.66667]],[[538.61718,643],[0,-1.66667],[0,0.66667]],[[538.61718,645],[-0.35177,0.56631],[1.33831,-2.15456]],[[545.61718,644],[-3.04994,0.00386],[6.01206,-0.00761]],[[563.97058,644.43107],[-5.90478,-1.08158],[10.78253,2.15651]],[[597.04254,645.54479],[-10.6965,-2.40266],[9.00888,2.25222]],[[626.11718,648],[-9.28168,0],[2.33333,0]],[[633.11718,648],[-2.33333,0],[0.35109,0]],[[634.59021,647.90091],[-0.5707,0.05184],[-0.57412,-1.02596]],[[634.61718,643],[0,1.39387],[0,-5.20707]],[[634.21982,624.13246],[2.14282,4.67827],[-1.8936,-5.6808]],[[628.03948,607.31672],[3.08887,5.66543],[-2.2791,-4.1802]],[[620.32688,595.27881],[1.8857,4.15235],[-0.91417,-2.47477]],[[615.61718,594],[2.9771,0.57275],[-6.58756,-1.26734]],[[595.61718,593],[6.8054,0],[-2.48058,0]],[[587.61718,593],[2.40395,0.50364],[-0.50743,-0.10631]],[[585.44122,592.1748],[0.71481,0.32365],[1.30749,1.01011]],[[582.51161,594.78885],[1.25365,-0.62682],[-0.98239,0.4912]]],&quot;closed&quot;:true}],&quot;index&quot;:null}" fill="#c9c9c9" fill-rule="nonzero" stroke="none" stroke-width="0" stroke-linecap="butt"/><path d="M553.00602,249.53128c-0.00023,-0.06592 -0.0721,-0.17628 -0.14082,-0.2847c-0.26581,0.04412 -0.66232,0.0818 -1.17233,0.11392c-1.52905,0.17196 -3.84966,0.17293 -3.84966,0.17293c-19.66498,0.00821 -31.018,1.52206 -37.9644,3.11246c-0.81722,0.18045 -0.74424,0.39742 -0.74355,0.59878c0.00019,0.0573 -0.04928,0.14837 -0.10333,0.24257c0.05187,-0.03033 0.18162,-0.05531 0.44583,-0.07142c1.16745,-0.07116 11.32048,0.35707 12.5653,0.10771c0.37411,-0.07494 -1.83653,-0.08811 -1.71489,-0.1725c1.49592,-1.03745 17.39306,-2.61236 25.20886,-3.04602c2.02712,-0.11247 4.30933,-0.16959 6.5782,-0.19626c-0.88762,-0.15175 0.89142,-0.38533 0.89075,-0.57746zM509.00481,253.53431c-0.11636,0.20215 -0.21964,0.39538 0.1323,0.27884c0.24055,-0.07963 -0.1075,-0.19115 -0.1323,-0.27884zM500.64169,252.14128c7.37339,-1.53473 17.18205,-2.93539 32.47316,-3.49145c1.43576,-0.2478 4.39899,-0.24904 4.39899,-0.24904l2.58133,-0.00107c5.84505,-0.00244 8.93666,-0.22795 15.21502,-0.23056c8.71911,-0.00364 10.7468,1.90456 6.18928,2.46554c-2.87593,0.35399 -7.49058,0.47167 -11.34132,0.68532c-11.39829,0.63242 -15.62223,2.43782 -28.11122,3.34048c-13.23673,0.95668 -27.82001,-1.10279 -21.40526,-2.51919z" data-paper-data="{&quot;index&quot;:null}" fill="#000000" fill-rule="nonzero" stroke="none" stroke-width="0" stroke-linecap="butt"/><path d="M553.05695,249.22746c0.0689,0.10842 0.15272,0.22035 0.15293,0.28627c0.00065,0.19212 -1.75717,0.42919 -0.86956,0.58097c-2.2689,0.02668 -4.56421,0.08148 -6.59138,0.19396c-7.81589,0.43366 -23.78979,2.00065 -25.28565,3.0381c-0.12176,0.08439 1.84386,0.14759 1.46973,0.22253c-1.24485,0.24936 -11.48582,-0.18631 -12.6533,-0.11515c-0.2643,0.01611 -0.39279,0.04121 -0.44459,0.07157c0.05405,-0.09421 0.09394,-0.18658 0.09375,-0.24387c-0.00068,-0.20136 -0.09624,-0.42228 0.72101,-0.60273c6.94633,-1.59039 18.70926,-3.1378 38.37421,-3.14601c0,0 2.33114,0.00024 3.86018,-0.17171c0.51004,-0.03213 0.90682,-0.06981 1.17243,-0.11392z" data-paper-data="{&quot;noHover&quot;:false,&quot;origItem&quot;:[&quot;Path&quot;,{&quot;applyMatrix&quot;:true,&quot;segments&quot;:[[[607.563,601.99816],[0.02649,0.38155],[-0.10299,0.15484]],[[607.10872,602.39727],[0.1976,-0.11227],[-0.59254,0.60273]],[[605.61718,603],[0,0],[-7.618,0]],[[590.90604,613.89443],[2.69308,-5.58508],[-0.31682,0.63364]],[[590.61718,616],[0,-0.70843],[0,0.20156]],[[590.57685,616.85325],[0.02106,-0.33136],[0.02013,-0.10671]],[[590.74964,616.60263],[-0.10238,0.05628],[0.45234,-0.24865]],[[595.61718,617],[-0.48256,0.87548],[0.14503,-0.26312]],[[594.95308,616.3906],[-0.04725,0.29671],[0.58086,-3.64773]],[[604.72276,605.71115],[-3.02833,1.51416],[0.78545,-0.39273]],[[607.27135,605.03032],[-0.87898,0.0905],[-0.34365,-0.53523]],[[607.61718,603],[0,0.6759],[0,-0.23192]]],&quot;closed&quot;:true}],&quot;index&quot;:null}" fill="#ffffff" fill-rule="nonzero" stroke="none" stroke-width="0" stroke-linecap="butt"/><path d="M371.77627,247.93493l-19.76914,-12.72865l93.69715,0.07362l33.57674,12.61017z" data-paper-data="{&quot;index&quot;:null}" fill="#cedce9" fill-rule="nonzero" stroke="#000000" stroke-width="0" stroke-linecap="round"/><path d="M488.1911,247.22443c-2.53537,0.14068 -5.02815,0.2216 -7.49601,0.28023c0.01679,0.02144 0.02551,0.0438 0.02559,0.06714c0.00194,0.56847 -5.1608,0.57062 -5.1608,0.57062c-22.80221,0.00952 -45.60433,0.01903 -68.40647,0.02856c-5.86765,0.00245 -20.46882,-0.24936 -24.79534,0.09245c-2.49217,0.19689 -4.27685,0.17825 -7.47097,0.20525c-0.36051,0.00305 -1.01625,0.00953 -1.59566,0.01357c3.08953,0.2415 1.60419,2.48588 1.60635,3.11303c0.00908,2.65288 0.01812,5.30575 0.0272,7.95864c0.0016,0.47373 0.00322,0.94746 0.00485,1.42119c0.00065,0.18949 -0.90552,0.72983 0.00194,0.56848c3.45256,-0.61385 10.19566,-0.2874 18.06866,-0.29178c15.51938,-0.00865 32.13396,-0.19832 47.37744,0.10274c27.83585,0.60134 57.75828,-0.39046 85.37226,0.28094c23.25749,0.63046 51.09544,0.67653 75.05495,0.66653c6.02327,-0.00251 12.04642,-0.00502 18.06966,-0.00753c0.90625,-0.00037 2.32912,-0.01441 3.80233,-0.02976c-1.48298,-0.291 0.06626,-0.99687 0.06491,-1.39305c-0.00505,-1.48005 4.49192,-4.035 -1.04401,-5.36242c-4.89362,-1.61265 -7.99102,-3.16598 -15.97006,-4.77299c-5.88716,-1.18572 -15.04909,-2.2351 -19.9208,-3.41332c-2.3623,-0.70244 -4.47318,-0.19882 -12.15878,-0.35841c-17.00624,-0.35313 -34.0612,-0.27002 -51.62851,-0.26269c-6.4034,0.00267 -14.44505,0.14919 -20.65104,0.00862c-1.31004,-0.02967 -3.77221,-0.14098 -5.6178,-0.23221c3.37603,0.28572 -4.32441,0.56667 -7.55991,0.74618zM407.14921,247.03405c17.23319,-0.0072 34.46634,-0.01439 51.69948,-0.02158c0.49704,-0.02758 0.99398,-0.05514 1.49101,-0.08273c6.54685,-0.36324 12.45893,-0.27018 18.06825,-0.43389c7.64435,-0.22313 12.21475,-0.96574 20.10212,-1.14534c4.53093,-0.10318 17.08239,0.21709 23.50567,0.21441c17.41699,-0.00727 34.81452,-0.12419 51.62851,0.26269c9.44543,0.21734 17.42579,-0.21739 21.84711,1.09735c0.65281,0.49986 5.86528,0.81026 8.59232,1.19385c4.16756,0.58622 7.65219,1.45553 10.87776,2.10516c7.99617,1.61046 11.5153,3.26883 16.53092,4.92169c4.48318,1.74258 1.56901,3.90699 1.5752,5.72174c0.00344,1.0033 1.44189,1.70984 -5.15399,2.56029c-2.30007,0.29656 -23.55962,0.00983 -27.10445,0.01131c-24.71307,0.01032 -53.58879,-0.04966 -77.5594,-0.69944c-26.33426,-0.83649 -57.67394,0.31875 -84.8929,-0.26927c-21.93438,-0.53481 -55.78304,0.92839 -73.75043,-0.92238c-1.77886,-0.18325 -0.00578,-1.68673 -0.00681,-1.98966c-0.00908,-2.65288 -0.01812,-5.30575 -0.0272,-7.95864c-0.00301,-0.88695 -3.56112,-3.00312 1.82327,-3.66585c9.39607,-1.15652 26.98922,-0.89398 40.75383,-0.89972z" data-paper-data="{&quot;index&quot;:null}" fill="#000000" fill-rule="nonzero" stroke="none" stroke-width="0" stroke-linecap="butt"/><path d="M480.62287,247.47737c2.46783,-0.05862 4.99065,-0.14031 7.52614,-0.28099c3.23549,-0.17951 10.96657,-0.46082 7.59043,-0.74653c1.84557,0.09123 4.3283,0.20252 5.63821,0.23219c6.206,0.14057 14.31973,-0.00455 20.72296,-0.00722c17.56722,-0.00733 34.73294,-0.08251 51.73914,0.27061c7.68559,0.15959 9.81249,-0.34188 12.17477,0.36056c4.87175,1.17821 14.0724,2.23605 19.95963,3.42177c7.97906,1.60699 11.08711,3.17113 15.98073,4.78378c5.53599,1.32743 1.01478,3.89223 1.01984,5.37228c0.00134,0.39618 -1.55753,1.10406 -0.07451,1.39506c-1.47309,0.01535 -2.89793,0.02974 -3.80425,0.03013c-6.02325,0.00251 -12.05696,0.00681 -18.0802,0.00933c-23.95963,0.01 -51.91057,-0.02614 -75.16808,-0.65659c-27.61399,-0.67141 -57.80997,0.315 -85.64586,-0.28634c-15.24347,-0.30107 -31.90507,-0.11785 -47.42446,-0.10921c-7.87299,0.00439 -14.62221,-0.32328 -18.07478,0.29056c-0.90746,0.16134 -0.00517,-0.37982 -0.00583,-0.56932c-0.00162,-0.47372 -0.01208,-0.94976 -0.01371,-1.42348c-0.00904,-2.65289 -0.02892,-5.32153 -0.038,-7.97442c-0.00216,-0.62716 1.49884,-2.87697 -1.59071,-3.11848c0.57949,-0.00406 1.2357,-0.01067 1.59627,-0.01373c3.19401,-0.02699 4.98276,-0.0093 7.47484,-0.20619c4.32652,-0.3418 18.94091,-0.09265 24.80854,-0.0951c22.80227,-0.00952 45.7259,-0.03038 68.52805,-0.0399c0,0 5.18809,-0.00313 5.18615,-0.57161c-0.00008,-0.02333 -0.0082,-0.04571 -0.025,-0.06716z" data-paper-data="{&quot;noHover&quot;:false,&quot;origItem&quot;:[&quot;Path&quot;,{&quot;applyMatrix&quot;:true,&quot;segments&quot;:[[[579.60736,595.76373],[0.95609,-0.20262],[0.00646,0.07548]],[[579.61718,596],[0,-0.08208],[0,2]],[[577.61718,598],[0,0],[-8.83333,0]],[[551.11718,598],[8.83333,0],[-2.27308,0]],[[541.51161,598.28885],[1.67648,-1.19621],[-0.96568,0.68904]],[[538.61718,599],[1.23739,-0.09027],[-0.13966,0.01019]],[[537.99901,599.04541],[0.22447,-0.0134],[1.19653,0.85421]],[[538.61718,610],[0,-2.20646],[0,9.33333]],[[538.61718,638],[0,-9.33333],[0,1.66667]],[[538.61718,643],[0,-1.66667],[0,0.66667]],[[538.61718,645],[-0.35177,0.56631],[1.33831,-2.15456]],[[545.61718,644],[-3.04994,0.00386],[6.01206,-0.00761]],[[563.97058,644.43107],[-5.90478,-1.08158],[10.78253,2.15651]],[[597.04254,645.54479],[-10.6965,-2.40266],[9.00888,2.25222]],[[626.11718,648],[-9.28168,0],[2.33333,0]],[[633.11718,648],[-2.33333,0],[0.35109,0]],[[634.59021,647.90091],[-0.5707,0.05184],[-0.57412,-1.02596]],[[634.61718,643],[0,1.39387],[0,-5.20707]],[[634.21982,624.13246],[2.14282,4.67827],[-1.8936,-5.6808]],[[628.03948,607.31672],[3.08887,5.66543],[-2.2791,-4.1802]],[[620.32688,595.27881],[1.8857,4.15235],[-0.91417,-2.47477]],[[615.61718,594],[2.9771,0.57275],[-6.58756,-1.26734]],[[595.61718,593],[6.8054,0],[-2.48058,0]],[[587.61718,593],[2.40395,0.50364],[-0.50743,-0.10631]],[[585.44122,592.1748],[0.71481,0.32365],[1.30749,1.01011]],[[582.51161,594.78885],[1.25365,-0.62682],[-0.98239,0.4912]]],&quot;closed&quot;:true}],&quot;index&quot;:null}" fill="#c9c9c9" fill-rule="nonzero" stroke="none" stroke-width="0" stroke-linecap="butt"/><path d="M553.00603,249.53128c-0.00023,-0.06592 -0.0721,-0.17628 -0.14082,-0.2847c-0.26581,0.04412 -0.66232,0.0818 -1.17233,0.11392c-1.52905,0.17196 -3.84966,0.17293 -3.84966,0.17293c-19.66498,0.00821 -31.018,1.52206 -37.9644,3.11246c-0.81722,0.18045 -0.74424,0.39742 -0.74355,0.59878c0.00019,0.0573 -0.04928,0.14837 -0.10333,0.24257c0.05187,-0.03033 0.18162,-0.05531 0.44583,-0.07142c1.16745,-0.07116 11.32048,0.35707 12.5653,0.10771c0.37411,-0.07494 -1.83653,-0.08811 -1.71489,-0.1725c1.49592,-1.03745 17.39306,-2.61236 25.20886,-3.04602c2.02712,-0.11247 4.30933,-0.16959 6.5782,-0.19626c-0.88762,-0.15175 0.89142,-0.38533 0.89075,-0.57746zM509.00481,253.53431c-0.11636,0.20215 -0.21964,0.39538 0.1323,0.27884c0.24055,-0.07963 -0.1075,-0.19115 -0.1323,-0.27884zM500.64169,252.14128c7.37339,-1.53473 17.18205,-2.93539 32.47316,-3.49145c1.43576,-0.2478 4.39899,-0.24904 4.39899,-0.24904l2.58133,-0.00107c5.84505,-0.00244 8.93666,-0.22795 15.21502,-0.23056c8.71911,-0.00364 10.7468,1.90456 6.18928,2.46554c-2.87593,0.35399 -7.49058,0.47167 -11.34132,0.68532c-11.39829,0.63242 -15.62223,2.43782 -28.11122,3.34048c-13.23673,0.95668 -27.82001,-1.10279 -21.40526,-2.51919z" data-paper-data="{&quot;index&quot;:null}" fill="#000000" fill-rule="nonzero" stroke="none" stroke-width="0" stroke-linecap="butt"/><path d="M553.05695,249.22746c0.0689,0.10842 0.15272,0.22035 0.15293,0.28627c0.00065,0.19212 -1.75717,0.42919 -0.86956,0.58097c-2.2689,0.02668 -4.56421,0.08148 -6.59138,0.19396c-7.81589,0.43366 -23.78979,2.00065 -25.28565,3.0381c-0.12176,0.08439 1.84386,0.14759 1.46973,0.22253c-1.24485,0.24936 -11.48582,-0.18631 -12.6533,-0.11515c-0.2643,0.01611 -0.39279,0.04121 -0.44459,0.07157c0.05405,-0.09421 0.09394,-0.18658 0.09375,-0.24387c-0.00068,-0.20136 -0.09624,-0.42228 0.72101,-0.60273c6.94633,-1.59039 18.70926,-3.1378 38.37421,-3.14601c0,0 2.33114,0.00024 3.86018,-0.17171c0.51004,-0.03213 0.90682,-0.06981 1.17243,-0.11392z" data-paper-data="{&quot;noHover&quot;:false,&quot;origItem&quot;:[&quot;Path&quot;,{&quot;applyMatrix&quot;:true,&quot;segments&quot;:[[[607.563,601.99816],[0.02649,0.38155],[-0.10299,0.15484]],[[607.10872,602.39727],[0.1976,-0.11227],[-0.59254,0.60273]],[[605.61718,603],[0,0],[-7.618,0]],[[590.90604,613.89443],[2.69308,-5.58508],[-0.31682,0.63364]],[[590.61718,616],[0,-0.70843],[0,0.20156]],[[590.57685,616.85325],[0.02106,-0.33136],[0.02013,-0.10671]],[[590.74964,616.60263],[-0.10238,0.05628],[0.45234,-0.24865]],[[595.61718,617],[-0.48256,0.87548],[0.14503,-0.26312]],[[594.95308,616.3906],[-0.04725,0.29671],[0.58086,-3.64773]],[[604.72276,605.71115],[-3.02833,1.51416],[0.78545,-0.39273]],[[607.27135,605.03032],[-0.87898,0.0905],[-0.34365,-0.53523]],[[607.61718,603],[0,0.6759],[0,-0.23192]]],&quot;closed&quot;:true}],&quot;index&quot;:null}" fill="#ffffff" fill-rule="nonzero" stroke="none" stroke-width="0" stroke-linecap="butt"/><path d="M164.71899,247.19114l33.57675,-12.61017l93.69714,-0.07362l-19.76914,12.72865z" data-paper-data="{&quot;index&quot;:null}" fill="#cedce9" fill-rule="nonzero" stroke="#000000" stroke-width="0" stroke-linecap="round"/><path d="M155.80894,246.52549c-3.2355,-0.17951 -10.93595,-0.46046 -7.55991,-0.74618c-1.84559,0.09122 -4.30777,0.20254 -5.61781,0.23221c-6.20599,0.14057 -14.24765,-0.00594 -20.65104,-0.00862c-17.56731,-0.00733 -34.62226,-0.09044 -51.62851,0.26269c-7.68561,0.15959 -9.79648,-0.34403 -12.15878,0.35841c-4.8717,1.17822 -14.03364,2.2276 -19.92079,3.41332c-7.97904,1.60701 -11.07645,3.16034 -15.97007,4.77299c-5.53593,1.32743 -1.03896,3.88238 -1.04401,5.36242c-0.00135,0.39618 1.54789,1.10204 0.06491,1.39305c1.47321,0.01535 2.89607,0.02938 3.80232,0.02976c6.02324,0.00251 12.04639,0.00502 18.06966,0.00753c23.95951,0.01 51.79746,-0.03607 75.05494,-0.66654c27.61399,-0.6714 57.53642,0.32041 85.37226,-0.28094c15.24348,-0.30106 31.85806,-0.11139 47.37744,-0.10274c7.87301,0.00438 14.6161,-0.32207 18.06866,0.29178c0.90746,0.16135 0.00129,-0.37898 0.00194,-0.56848c0.00162,-0.47373 0.00325,-0.94746 0.00485,-1.42119c0.00908,-2.65289 0.01812,-5.30576 0.0272,-7.95864c0.00216,-0.62715 -1.48319,-2.87153 1.60635,-3.11303c-0.5794,-0.00405 -1.23515,-0.01053 -1.59566,-0.01357c-3.19412,-0.027 -4.97879,-0.00836 -7.47096,-0.20526c-4.32652,-0.34181 -18.92768,-0.09 -24.79534,-0.09245c-22.80214,-0.00952 -45.60426,-0.01904 -68.40647,-0.02856c0,0 -5.16274,-0.00216 -5.1608,-0.57062c0.00008,-0.02335 0.0088,-0.0457 0.02559,-0.06714c-2.46787,-0.05863 -4.96064,-0.13955 -7.49601,-0.28023zM236.85053,246.3351c13.76461,0.00575 31.35777,-0.2568 40.75384,0.89972c5.38439,0.66274 1.82628,2.7789 1.82327,3.66585c-0.00907,2.65289 -0.01813,5.30577 -0.0272,7.95865c-0.00103,0.30293 1.77206,1.80642 -0.0068,1.98966c-17.9674,1.85077 -51.81605,0.38757 -73.75043,0.92238c-27.21896,0.58802 -58.55864,-0.56722 -84.8929,0.26927c-23.97061,0.64979 -52.84632,0.70976 -77.55939,0.69944c-3.54483,-0.00148 -24.80439,0.28525 -27.10445,-0.01131c-6.59588,-0.85045 -5.15742,-1.55699 -5.15399,-2.56029c0.00619,-1.81475 -2.90798,-3.97916 1.5752,-5.72174c5.01563,-1.65285 8.53476,-3.31123 16.53093,-4.92169c3.22556,-0.64963 6.71019,-1.51894 10.87776,-2.10516c2.72704,-0.38359 7.9395,-0.694 8.59231,-1.19385c4.42133,-1.31473 12.40168,-0.88001 21.84711,-1.09735c16.81399,-0.38687 34.21152,-0.26996 51.62851,-0.26269c6.42327,0.00268 18.97474,-0.31759 23.50567,-0.21441c7.88736,0.17961 12.45776,0.92221 20.10211,1.14535c5.60931,0.16372 11.5214,0.07066 18.06825,0.43389c0.49703,0.02758 0.99398,0.05514 1.49101,0.08273c17.23314,0.00719 34.46629,0.01438 51.69948,0.02158z" data-paper-data="{&quot;index&quot;:null}" fill="#000000" fill-rule="nonzero" stroke="none" stroke-width="0" stroke-linecap="butt"/><path d="M163.37679,246.77845c-0.0168,0.02145 -0.02491,0.04383 -0.025,0.06716c-0.00194,0.56848 5.18615,0.57161 5.18615,0.57161c22.80215,0.00952 45.72579,0.03039 68.52805,0.0399c5.86764,0.00245 20.48202,-0.2467 24.80854,0.0951c2.49208,0.19689 4.28083,0.1792 7.47484,0.20619c0.36057,0.00305 1.01678,0.00966 1.59627,0.01373c-3.08955,0.24151 -1.58855,2.49133 -1.59071,3.11848c-0.00907,2.65289 -0.02895,5.32153 -0.03799,7.97442c-0.00163,0.47373 -0.0121,0.94977 -0.01371,1.42348c-0.00066,0.1895 0.90163,0.73066 -0.00583,0.56932c-3.45256,-0.61385 -10.20178,-0.28617 -18.07478,-0.29056c-15.51939,-0.00863 -32.18099,-0.19185 -47.42446,0.10922c-27.83589,0.60134 -58.03187,-0.38507 -85.64586,0.28634c-23.25751,0.63046 -51.20845,0.66659 -75.16808,0.65659c-6.02324,-0.00251 -12.05696,-0.00681 -18.0802,-0.00932c-0.90632,-0.00039 -2.33116,-0.01478 -3.80425,-0.03013c1.48302,-0.291 -0.07586,-0.99888 -0.07452,-1.39506c0.00506,-1.48005 -4.51614,-4.04484 1.01984,-5.37228c4.89361,-1.61264 8.00167,-3.17678 15.98073,-4.78378c5.88724,-1.18572 15.08788,-2.24356 19.95963,-3.42178c2.36227,-0.70243 4.48917,-0.20097 12.17477,-0.36056c17.00621,-0.35312 34.17192,-0.27794 51.73915,-0.27061c6.40323,0.00267 14.51696,0.14779 20.72296,0.00722c1.30991,-0.02968 3.79264,-0.14096 5.63821,-0.23219c-3.37613,0.28571 4.35494,0.56702 7.59043,0.74653c2.5355,0.14068 5.05832,0.22237 7.52615,0.28099z" data-paper-data="{&quot;noHover&quot;:false,&quot;origItem&quot;:[&quot;Path&quot;,{&quot;applyMatrix&quot;:true,&quot;segments&quot;:[[[579.60736,595.76373],[0.95609,-0.20262],[0.00646,0.07548]],[[579.61718,596],[0,-0.08208],[0,2]],[[577.61718,598],[0,0],[-8.83333,0]],[[551.11718,598],[8.83333,0],[-2.27308,0]],[[541.51161,598.28885],[1.67648,-1.19621],[-0.96568,0.68904]],[[538.61718,599],[1.23739,-0.09027],[-0.13966,0.01019]],[[537.99901,599.04541],[0.22447,-0.0134],[1.19653,0.85421]],[[538.61718,610],[0,-2.20646],[0,9.33333]],[[538.61718,638],[0,-9.33333],[0,1.66667]],[[538.61718,643],[0,-1.66667],[0,0.66667]],[[538.61718,645],[-0.35177,0.56631],[1.33831,-2.15456]],[[545.61718,644],[-3.04994,0.00386],[6.01206,-0.00761]],[[563.97058,644.43107],[-5.90478,-1.08158],[10.78253,2.15651]],[[597.04254,645.54479],[-10.6965,-2.40266],[9.00888,2.25222]],[[626.11718,648],[-9.28168,0],[2.33333,0]],[[633.11718,648],[-2.33333,0],[0.35109,0]],[[634.59021,647.90091],[-0.5707,0.05184],[-0.57412,-1.02596]],[[634.61718,643],[0,1.39387],[0,-5.20707]],[[634.21982,624.13246],[2.14282,4.67827],[-1.8936,-5.6808]],[[628.03948,607.31672],[3.08887,5.66543],[-2.2791,-4.1802]],[[620.32688,595.27881],[1.8857,4.15235],[-0.91417,-2.47477]],[[615.61718,594],[2.9771,0.57275],[-6.58756,-1.26734]],[[595.61718,593],[6.8054,0],[-2.48058,0]],[[587.61718,593],[2.40395,0.50364],[-0.50743,-0.10631]],[[585.44122,592.1748],[0.71481,0.32365],[1.30749,1.01011]],[[582.51161,594.78885],[1.25365,-0.62682],[-0.98239,0.4912]]],&quot;closed&quot;:true}],&quot;index&quot;:null}" fill="#c9c9c9" fill-rule="nonzero" stroke="none" stroke-width="0" stroke-linecap="butt"/><path d="M90.99403,248.83237c-0.00067,0.19212 1.77837,0.42571 0.89076,0.57746c2.26887,0.02667 4.55109,0.08379 6.5782,0.19626c7.8158,0.43366 23.71294,2.00857 25.20885,3.04602c0.12164,0.08439 -2.08899,0.09756 -1.71489,0.1725c1.24482,0.24937 11.39785,-0.17887 12.5653,-0.10771c0.26421,0.01611 0.39396,0.04108 0.44583,0.07141c-0.05406,-0.0942 -0.10352,-0.18527 -0.10333,-0.24257c0.00069,-0.20136 0.07367,-0.41833 -0.74355,-0.59878c-6.9464,-1.59039 -18.29942,-3.10425 -37.9644,-3.11246c0,0 -2.32061,-0.00096 -3.84966,-0.17293c-0.51,-0.03213 -0.90652,-0.06981 -1.17233,-0.11392c-0.06872,0.10842 -0.14059,0.21878 -0.14083,0.2847zM134.86289,253.11423c0.35194,0.11654 0.24865,-0.07669 0.13229,-0.27884c-0.0248,0.08769 -0.37284,0.19921 -0.13229,0.27884zM143.35832,251.44237c6.41475,1.41641 -8.16853,3.47588 -21.40526,2.51919c-12.48898,-0.90264 -16.71293,-2.70806 -28.11122,-3.34048c-3.85074,-0.21365 -8.46538,-0.33133 -11.34132,-0.68532c-4.55751,-0.56097 -2.52983,-2.46918 6.18928,-2.46554c6.27836,0.00262 9.36997,0.22813 15.21501,0.23056l2.58133,0.00107c0,0 2.96323,0.00124 4.39899,0.24904c15.29111,0.55607 25.09977,1.95672 32.47316,3.49145z" data-paper-data="{&quot;index&quot;:null}" fill="#000000" fill-rule="nonzero" stroke="none" stroke-width="0" stroke-linecap="butt"/><path d="M90.94327,248.52853c0.26561,0.04412 0.6624,0.08178 1.17244,0.11392c1.52904,0.17195 3.86019,0.17171 3.86019,0.17171c19.66494,0.00821 31.42788,1.55562 38.37421,3.14601c0.81725,0.18045 0.72169,0.40137 0.72101,0.60273c-0.00018,0.05729 0.03971,0.14966 0.09375,0.24387c-0.0518,-0.03036 -0.18028,-0.05546 -0.44458,-0.07157c-1.16748,-0.07116 -11.40845,0.36451 -12.6533,0.11515c-0.37414,-0.07494 1.5915,-0.13814 1.46973,-0.22253c-1.49586,-1.03745 -17.46976,-2.60444 -25.28565,-3.0381c-2.02717,-0.11248 -4.32249,-0.16728 -6.59138,-0.19396c0.88761,-0.15177 -0.87021,-0.38885 -0.86955,-0.58097c0.00022,-0.06592 0.08403,-0.17785 0.15293,-0.28627z" data-paper-data="{&quot;noHover&quot;:false,&quot;origItem&quot;:[&quot;Path&quot;,{&quot;applyMatrix&quot;:true,&quot;segments&quot;:[[[607.563,601.99816],[0.02649,0.38155],[-0.10299,0.15484]],[[607.10872,602.39727],[0.1976,-0.11227],[-0.59254,0.60273]],[[605.61718,603],[0,0],[-7.618,0]],[[590.90604,613.89443],[2.69308,-5.58508],[-0.31682,0.63364]],[[590.61718,616],[0,-0.70843],[0,0.20156]],[[590.57685,616.85325],[0.02106,-0.33136],[0.02013,-0.10671]],[[590.74964,616.60263],[-0.10238,0.05628],[0.45234,-0.24865]],[[595.61718,617],[-0.48256,0.87548],[0.14503,-0.26312]],[[594.95308,616.3906],[-0.04725,0.29671],[0.58086,-3.64773]],[[604.72276,605.71115],[-3.02833,1.51416],[0.78545,-0.39273]],[[607.27135,605.03032],[-0.87898,0.0905],[-0.34365,-0.53523]],[[607.61718,603],[0,0.6759],[0,-0.23192]]],&quot;closed&quot;:true}],&quot;index&quot;:null}" fill="#ffffff" fill-rule="nonzero" stroke="none" stroke-width="0" stroke-linecap="butt"/><path d="M164.71899,247.19114l33.57674,-12.61017l93.69715,-0.07362l-19.76914,12.72865z" data-paper-data="{&quot;index&quot;:null}" fill="#cedce9" fill-rule="nonzero" stroke="#000000" stroke-width="0" stroke-linecap="round"/><path d="M155.80894,246.52549c-3.2355,-0.17951 -10.93595,-0.46046 -7.55991,-0.74618c-1.84559,0.09122 -4.30777,0.20254 -5.61781,0.23221c-6.20599,0.14057 -14.24765,-0.00594 -20.65104,-0.00862c-17.56731,-0.00733 -34.62226,-0.09044 -51.62851,0.26269c-7.68561,0.15959 -9.79648,-0.34403 -12.15878,0.35841c-4.8717,1.17822 -14.03364,2.2276 -19.92079,3.41332c-7.97904,1.60701 -11.07645,3.16034 -15.97007,4.77299c-5.53593,1.32743 -1.03896,3.88238 -1.04401,5.36242c-0.00135,0.39618 1.54789,1.10204 0.06491,1.39305c1.47321,0.01535 2.89607,0.02938 3.80232,0.02976c6.02324,0.00251 12.04639,0.00502 18.06966,0.00753c23.95951,0.01 51.79746,-0.03607 75.05494,-0.66654c27.61399,-0.6714 57.53642,0.32041 85.37227,-0.28094c15.24348,-0.30106 31.85806,-0.11139 47.37744,-0.10274c7.87301,0.00438 14.6161,-0.32207 18.06866,0.29178c0.90746,0.16135 0.00129,-0.37898 0.00194,-0.56848c0.00162,-0.47373 0.00325,-0.94746 0.00485,-1.42119c0.00908,-2.65289 0.01812,-5.30576 0.0272,-7.95864c0.00216,-0.62715 -1.48319,-2.87153 1.60635,-3.11303c-0.5794,-0.00405 -1.23515,-0.01053 -1.59566,-0.01357c-3.19412,-0.027 -4.97879,-0.00836 -7.47096,-0.20526c-4.32652,-0.34181 -18.92768,-0.09 -24.79534,-0.09245c-22.80214,-0.00952 -45.60426,-0.01904 -68.40647,-0.02856c0,0 -5.16274,-0.00216 -5.1608,-0.57062c0.00007,-0.02335 0.00879,-0.0457 0.02558,-0.06714c-2.46786,-0.05863 -4.96064,-0.13955 -7.49601,-0.28023zM236.85053,246.3351c13.7646,0.00575 31.35776,-0.2568 40.75383,0.89972c5.38439,0.66274 1.82628,2.7789 1.82328,3.66585c-0.00908,2.65289 -0.01813,5.30577 -0.0272,7.95865c-0.00103,0.30293 1.77206,1.80642 -0.0068,1.98966c-17.9674,1.85077 -51.81605,0.38757 -73.75043,0.92238c-27.21896,0.58802 -58.55864,-0.56722 -84.8929,0.26927c-23.97061,0.64979 -52.84633,0.70976 -77.5594,0.69944c-3.54483,-0.00148 -24.80438,0.28525 -27.10445,-0.01131c-6.59588,-0.85045 -5.15742,-1.55699 -5.15399,-2.56029c0.00619,-1.81475 -2.90798,-3.97916 1.5752,-5.72174c5.01563,-1.65285 8.53476,-3.31123 16.53093,-4.92169c3.22556,-0.64963 6.71019,-1.51894 10.87775,-2.10516c2.72704,-0.38359 7.9395,-0.694 8.59231,-1.19385c4.42133,-1.31473 12.40169,-0.88001 21.84712,-1.09735c16.81399,-0.38687 34.21151,-0.26996 51.62851,-0.26269c6.42327,0.00268 18.97474,-0.31759 23.50567,-0.21441c7.88736,0.17961 12.45777,0.92221 20.10212,1.14535c5.60932,0.16372 11.5214,0.07066 18.06825,0.43389c0.49703,0.02758 0.99398,0.05514 1.49101,0.08273c17.23314,0.00719 34.46629,0.01438 51.69948,0.02158z" data-paper-data="{&quot;index&quot;:null}" fill="#000000" fill-rule="nonzero" stroke="none" stroke-width="0" stroke-linecap="butt"/><path d="M163.37679,246.77845c-0.0168,0.02145 -0.02491,0.04383 -0.025,0.06716c-0.00194,0.56848 5.18615,0.57161 5.18615,0.57161c22.80215,0.00952 45.72579,0.03039 68.52805,0.0399c5.86764,0.00245 20.48202,-0.2467 24.80854,0.0951c2.49208,0.19689 4.28083,0.1792 7.47484,0.20619c0.36057,0.00305 1.01678,0.00966 1.59627,0.01373c-3.08955,0.24151 -1.58855,2.49133 -1.59071,3.11848c-0.00907,2.65289 -0.02895,5.32153 -0.03799,7.97442c-0.00163,0.47373 -0.0121,0.94977 -0.01371,1.42348c-0.00066,0.1895 0.90163,0.73066 -0.00583,0.56932c-3.45256,-0.61385 -10.20178,-0.28617 -18.07478,-0.29056c-15.51939,-0.00863 -32.18099,-0.19185 -47.42446,0.10922c-27.83589,0.60134 -58.03187,-0.38507 -85.64586,0.28634c-23.25751,0.63046 -51.20845,0.66659 -75.16808,0.65659c-6.02324,-0.00251 -12.05696,-0.00681 -18.0802,-0.00932c-0.90632,-0.00039 -2.33116,-0.01478 -3.80425,-0.03013c1.48302,-0.291 -0.07586,-0.99888 -0.07452,-1.39506c0.00506,-1.48005 -4.51614,-4.04484 1.01984,-5.37228c4.89361,-1.61264 8.00167,-3.17678 15.98073,-4.78378c5.88724,-1.18572 15.08788,-2.24356 19.95963,-3.42178c2.36227,-0.70243 4.48917,-0.20097 12.17477,-0.36056c17.00621,-0.35312 34.17192,-0.27794 51.73915,-0.27061c6.40323,0.00267 14.51696,0.14779 20.72296,0.00722c1.30991,-0.02968 3.79264,-0.14096 5.63821,-0.23219c-3.37613,0.28571 4.35494,0.56702 7.59043,0.74653c2.5355,0.14068 5.05832,0.22237 7.52615,0.28099z" data-paper-data="{&quot;noHover&quot;:false,&quot;origItem&quot;:[&quot;Path&quot;,{&quot;applyMatrix&quot;:true,&quot;segments&quot;:[[[579.60736,595.76373],[0.95609,-0.20262],[0.00646,0.07548]],[[579.61718,596],[0,-0.08208],[0,2]],[[577.61718,598],[0,0],[-8.83333,0]],[[551.11718,598],[8.83333,0],[-2.27308,0]],[[541.51161,598.28885],[1.67648,-1.19621],[-0.96568,0.68904]],[[538.61718,599],[1.23739,-0.09027],[-0.13966,0.01019]],[[537.99901,599.04541],[0.22447,-0.0134],[1.19653,0.85421]],[[538.61718,610],[0,-2.20646],[0,9.33333]],[[538.61718,638],[0,-9.33333],[0,1.66667]],[[538.61718,643],[0,-1.66667],[0,0.66667]],[[538.61718,645],[-0.35177,0.56631],[1.33831,-2.15456]],[[545.61718,644],[-3.04994,0.00386],[6.01206,-0.00761]],[[563.97058,644.43107],[-5.90478,-1.08158],[10.78253,2.15651]],[[597.04254,645.54479],[-10.6965,-2.40266],[9.00888,2.25222]],[[626.11718,648],[-9.28168,0],[2.33333,0]],[[633.11718,648],[-2.33333,0],[0.35109,0]],[[634.59021,647.90091],[-0.5707,0.05184],[-0.57412,-1.02596]],[[634.61718,643],[0,1.39387],[0,-5.20707]],[[634.21982,624.13246],[2.14282,4.67827],[-1.8936,-5.6808]],[[628.03948,607.31672],[3.08887,5.66543],[-2.2791,-4.1802]],[[620.32688,595.27881],[1.8857,4.15235],[-0.91417,-2.47477]],[[615.61718,594],[2.9771,0.57275],[-6.58756,-1.26734]],[[595.61718,593],[6.8054,0],[-2.48058,0]],[[587.61718,593],[2.40395,0.50364],[-0.50743,-0.10631]],[[585.44122,592.1748],[0.71481,0.32365],[1.30749,1.01011]],[[582.51161,594.78885],[1.25365,-0.62682],[-0.98239,0.4912]]],&quot;closed&quot;:true}],&quot;index&quot;:null}" fill="#c9c9c9" fill-rule="nonzero" stroke="none" stroke-width="0" stroke-linecap="butt"/><path d="M90.99402,248.83237c-0.00067,0.19212 1.77837,0.42571 0.89075,0.57746c2.26887,0.02667 4.55109,0.08379 6.5782,0.19626c7.8158,0.43366 23.71294,2.00857 25.20885,3.04602c0.12164,0.08439 -2.08899,0.09756 -1.71489,0.1725c1.24482,0.24937 11.39785,-0.17887 12.5653,-0.10771c0.26421,0.01611 0.39396,0.04108 0.44583,0.07141c-0.05406,-0.0942 -0.10352,-0.18527 -0.10333,-0.24257c0.00069,-0.20136 0.07367,-0.41833 -0.74355,-0.59878c-6.9464,-1.59039 -18.29942,-3.10425 -37.9644,-3.11246c0,0 -2.32061,-0.00096 -3.84966,-0.17293c-0.51,-0.03213 -0.90653,-0.06981 -1.17233,-0.11392c-0.06872,0.10842 -0.14059,0.21878 -0.14082,0.2847zM134.86289,253.11423c0.35194,0.11654 0.24865,-0.07669 0.13229,-0.27884c-0.0248,0.08769 -0.37284,0.19921 -0.13229,0.27884zM143.35832,251.44237c6.41475,1.41641 -8.16853,3.47588 -21.40526,2.51919c-12.48898,-0.90264 -16.71293,-2.70806 -28.11122,-3.34048c-3.85074,-0.21365 -8.46538,-0.33133 -11.34132,-0.68532c-4.55751,-0.56097 -2.52983,-2.46918 6.18928,-2.46554c6.27836,0.00262 9.36997,0.22813 15.21501,0.23056l2.58133,0.00107c0,0 2.96323,0.00124 4.39899,0.24904c15.29111,0.55607 25.09977,1.95672 32.47316,3.49145z" data-paper-data="{&quot;index&quot;:null}" fill="#000000" fill-rule="nonzero" stroke="none" stroke-width="0" stroke-linecap="butt"/><path d="M90.94327,248.52853c0.26561,0.04412 0.6624,0.08178 1.17244,0.11392c1.52904,0.17195 3.86019,0.17171 3.86019,0.17171c19.66494,0.00821 31.42788,1.55562 38.37421,3.14601c0.81725,0.18045 0.72169,0.40137 0.72101,0.60273c-0.00018,0.05729 0.03971,0.14966 0.09375,0.24387c-0.0518,-0.03036 -0.18028,-0.05546 -0.44458,-0.07157c-1.16748,-0.07116 -11.40845,0.36451 -12.6533,0.11515c-0.37414,-0.07494 1.5915,-0.13814 1.46973,-0.22253c-1.49586,-1.03745 -17.46976,-2.60444 -25.28565,-3.0381c-2.02717,-0.11248 -4.32249,-0.16728 -6.59138,-0.19396c0.88761,-0.15177 -0.87021,-0.38885 -0.86955,-0.58097c0.00022,-0.06592 0.08403,-0.17785 0.15293,-0.28627z" data-paper-data="{&quot;noHover&quot;:false,&quot;origItem&quot;:[&quot;Path&quot;,{&quot;applyMatrix&quot;:true,&quot;segments&quot;:[[[607.563,601.99816],[0.02649,0.38155],[-0.10299,0.15484]],[[607.10872,602.39727],[0.1976,-0.11227],[-0.59254,0.60273]],[[605.61718,603],[0,0],[-7.618,0]],[[590.90604,613.89443],[2.69308,-5.58508],[-0.31682,0.63364]],[[590.61718,616],[0,-0.70843],[0,0.20156]],[[590.57685,616.85325],[0.02106,-0.33136],[0.02013,-0.10671]],[[590.74964,616.60263],[-0.10238,0.05628],[0.45234,-0.24865]],[[595.61718,617],[-0.48256,0.87548],[0.14503,-0.26312]],[[594.95308,616.3906],[-0.04725,0.29671],[0.58086,-3.64773]],[[604.72276,605.71115],[-3.02833,1.51416],[0.78545,-0.39273]],[[607.27135,605.03032],[-0.87898,0.0905],[-0.34365,-0.53523]],[[607.61718,603],[0,0.6759],[0,-0.23192]]],&quot;closed&quot;:true}],&quot;index&quot;:null}" fill="#ffffff" fill-rule="nonzero" stroke="none" stroke-width="0" stroke-linecap="butt"/><g><path d="M583.58896,224.08043c0.30548,0.3036 0.40835,0.63039 0.31172,0.9804c-2.54985,0.03551 -5.04361,-0.00088 -7.48125,-0.10894c2.39087,0 4.77864,0 7.16953,0c0,-0.29052 0,-0.58094 0,-0.87147z" data-paper-data="{&quot;index&quot;:null}" fill="#6b6b6b" fill-rule="evenodd" stroke="none" stroke-width="0" stroke-linecap="butt"/><path d="M594.1874,224.6251c0.2899,0.11634 0.39589,0.26155 0.31172,0.43573c-3.17329,0.03562 -6.29048,-0.00066 -9.35156,-0.10894c3.01432,0 6.02552,0 9.03984,0c0,-0.10893 0,-0.21787 0,-0.3268z" data-paper-data="{&quot;index&quot;:null}" fill="#9e9e9e" fill-rule="evenodd" stroke="none" stroke-width="0" stroke-linecap="butt"/><path d="M502.54206,225.06082c2.54674,0 5.04049,0.03639 7.48125,0.10894c-5.01244,-0.03453 -9.99995,0.00175 -14.96252,0.10894c2.38152,-0.14499 4.87528,-0.21765 7.48125,-0.21787z" data-paper-data="{&quot;index&quot;:null}" fill="#484848" fill-rule="evenodd" stroke="none" stroke-width="0" stroke-linecap="butt"/><path d="M83.28014,225.82335c3.79611,-0.03573 7.53673,0.00055 11.22188,0.10894c-3.81888,-0.06688 -7.5595,0.00578 -11.22188,0.21787c0,-0.10893 0,-0.21787 0,-0.3268z" data-paper-data="{&quot;index&quot;:null}" fill="#838383" fill-rule="evenodd" stroke="none" stroke-width="0" stroke-linecap="butt"/><path d="M23.86418,164.42165l1.47565,0.08595l164.59665,0.77352v5.67335l95.364,0.02149v10.95821l49.18839,0.94541l0.49189,-6.44601l91.55189,0.77352v6.44601l29.51303,0.08594v21.98089l15.00246,0.23635l140.2484,0.40824l-1.96753,36.26955l-3.44319,0.04297l-323.98511,1.54704l-0.24594,-3.4422l-257.6242,-0.10744v-1.9338v-73.69939z" fill="#413831" fill-rule="nonzero" stroke="#000000" stroke-width="1" stroke-linecap="round"/><path d="M140.93421,206.09726l29.28309,0.21072v26.60346l-30.69432,0.21072l0.35281,-27.01173z" fill="#928b78" fill-rule="nonzero" stroke="#000000" stroke-width="1" stroke-linecap="round"/><path d="M132.35772,233.44319l-50.56643,-0.47668l1.28832,-27.63425l48.95603,0.42372z" fill="#928b78" fill-rule="nonzero" stroke="#000000" stroke-width="1" stroke-linecap="round"/><path d="M74.69809,233.52557l-16.175,-0.51989l-1.4516,-26.644l16.58974,-0.57187z" fill="#928b78" fill-rule="nonzero" stroke="#000000" stroke-width="1" stroke-linecap="round"/><path d="M189.82375,165.20137l2.01613,37.78982l-168.16349,-0.96076l0.54985,-37.34146z" fill="#736c59" fill-rule="nonzero" stroke="#000000" stroke-width="1" stroke-linecap="round"/><path d="M189.13717,165.36707l-180.02951,-0.85947l-6.82489,-4.55518l192.94147,2.40651l16.23217,5.58654l104.09493,0.25784l-2.21348,3.35193l-105.01721,-0.77352l-18.69159,0.25784z" fill="#8b8471" fill-rule="nonzero" stroke="#000000" stroke-width="1" stroke-linecap="round"/><path d="M314.07569,176.17487l-2.21348,-1.89083l139.69503,0.42973l-6.64043,2.66435l-129.36547,-0.94541" fill="#8b8471" fill-rule="nonzero" stroke="#000000" stroke-width="1" stroke-linecap="round"/><path d="M283.087,179.95653l52.1397,0.42973l-0.84551,2.23462l-50.16685,-0.34378z" fill="#8b8471" fill-rule="nonzero" stroke="#000000" stroke-width="1" stroke-linecap="round"/><path d="M425.73335,181.58952l63.69896,-0.94542l-5.16478,3.09409l-58.04231,0.17189z" fill="#8b8471" fill-rule="nonzero" stroke="#000000" stroke-width="1" stroke-linecap="round"/><path d="M456.59904,203.29109l-171.91343,-0.58388v-17.51642h51.34039v10.11364l90.70547,0.42681l-1.12111,-8.76796l30.98869,0.50047z" fill="#262626" fill-rule="nonzero" stroke="#000000" stroke-width="1" stroke-linecap="round"/><path d="M279.64481,205.20341l-0.73782,-2.7503l356.43138,0.68757l-3.93507,3.18003l-174.98871,-0.51568z" fill="#8b8471" fill-rule="nonzero" stroke="#000000" stroke-width="1" stroke-linecap="round"/><path d="M426.59513,177.12029l1.22971,18.73641l-92.22823,-0.77352l-0.49189,-18.56451z" fill="#736c59" fill-rule="nonzero" stroke="#000000" stroke-width="1" stroke-linecap="round"/><path d="M352.51246,179.78857l56.1736,-0.09599l1.09875,13.43892l-57.82173,-0.28798z" fill="#515a61" fill-rule="nonzero" stroke="#000000" stroke-width="1" stroke-linecap="round"/><path d="M212.04412,212.7499h59.05783l0.54937,28.15807l-62.90345,-0.19198l0.27469,-28.20972z" fill="#090909" fill-rule="nonzero" stroke="#000000" stroke-width="1" stroke-linecap="round"/><path d="M226.19052,212.66227h32.13844l0.82407,28.22171l-33.78657,-0.048l0.13735,-28.4257z" fill="#2d0d0e" fill-rule="nonzero" stroke="#000000" stroke-width="1" stroke-linecap="round"/><path d="M271.17061,232.17268h228.86105v10.85912l-218.75429,1.2359l-0.13735,-3.55171l-9.47672,0.04799l-0.27469,-8.30333" fill="#807165" fill-rule="nonzero" stroke="#000000" stroke-width="1" stroke-linecap="round"/><path d="M46.78059,202.4511l0.27469,38.2169l-23.89782,0.28798l0.68672,-38.87685l22.93641,0.04799z" fill="#807165" fill-rule="nonzero" stroke="#000000" stroke-width="1" stroke-linecap="round"/><path d="M173.27421,202.65508h18.02637l0.17168,38.09691l-17.44266,0.06z" fill="#807165" fill-rule="nonzero" stroke="#000000" stroke-width="1" stroke-linecap="round"/><path d="M298.53173,244.12371v-27.64576l173.05315,0.048l0.27469,26.73384z" fill="#928b78" fill-rule="nonzero" stroke="#000000" stroke-width="1" stroke-linecap="round"/><path d="M304.54052,244.23171l-0.41203,-26.15788l160.17717,0.048l0.41203,25.18596z" fill="#3c332c" fill-rule="nonzero" stroke="#000000" stroke-width="1" stroke-linecap="round"/><path d="M500.11805,243.30778l-0.96141,-26.52985l79.96841,0.09599l-0.96141,26.06189z" fill="#928b78" fill-rule="nonzero" stroke="#000000" stroke-width="1" stroke-linecap="round"/><path d="M502.38422,243.49976v-25.07797l68.91224,0.09599l-1.2361,24.46602z" fill="#3c332c" fill-rule="nonzero" stroke="#000000" stroke-width="1" stroke-linecap="round"/><path d="M301.66093,191.46363l-2.33484,1.43988l-4.25766,-0.048l-11.26219,-7.48739l-126.90565,-0.62395l-4.25766,-2.63978l137.89315,0.23998z" fill="#8b8471" fill-rule="nonzero" stroke="#000000" stroke-width="1" stroke-linecap="round"/><path d="M140.55206,168.30186l1.64812,20.61433l-77.49622,-0.04799l-0.27469,-21.38227z" fill="#515a61" fill-rule="nonzero" stroke="#000000" stroke-width="1" stroke-linecap="round"/><path d="M128.63749,232.12469l-43.12595,-0.43196l1.09875,-25.04197l41.7525,0.38397z" fill="#515a61" fill-rule="nonzero" stroke="#000000" stroke-width="1" stroke-linecap="round"/><path d="M71.7219,232.46067l-10.71282,-0.47996l-0.9614,-24.59801l10.9875,-0.52796z" fill="#515a61" fill-rule="nonzero" stroke="#000000" stroke-width="1" stroke-linecap="round"/><path d="M144.01997,207.2987l22.79906,0.19198v24.23804l-23.89781,0.19198l0.27469,-24.61001z" fill="#515a61" fill-rule="nonzero" stroke="#000000" stroke-width="1" stroke-linecap="round"/></g><path d="M266.7374,189.00869c-0.06886,0.36962 0.00324,0.72309 0.21652,1.06024c-0.01299,0.04429 -0.08508,0.07144 -0.21652,0.08156c-0.28406,-0.39295 -0.28406,-0.77357 0,-1.1418z" data-paper-data="{&quot;index&quot;:null}" fill="#9e9e9e" fill-rule="evenodd" stroke="none" stroke-width="0" stroke-linecap="butt"/><path d="M241.93693,186.88659h5.67459v2.31356l-0.94576,-1.98304z" fill="#736d42" fill-rule="evenodd" stroke="none" stroke-width="0" stroke-linecap="butt"/><path d="M210.38099,191.0676c0.2303,0 0.42369,0.01391 0.58609,0.03725c2.53071,-1.16741 6.76151,-1.7615 10.81448,-1.74251c0.68051,0.00319 5.0493,0.14116 5.75233,0.33285c1.54118,0.42022 2.05379,1.20716 3.14937,1.79306c4.54198,2.42892 5.31977,4.9326 0.40807,7.37078c-3.45876,0.72819 -6.25406,1.37739 -10.36086,1.34428c-11.63946,-0.09383 -14.77262,-5.04517 -11.71253,-8.50587l-0.07372,-0.08864c0,0 0,-0.54122 1.43679,-0.54122zM211.44232,192.41962c-1.92196,2.71612 0.10682,6.6561 9.27893,6.7013c3.39694,0.01674 5.58728,-0.50199 8.48976,-1.08038c3.8961,-1.99377 2.73031,-4.00812 -0.87536,-5.92804c-0.91642,-0.48795 -1.22531,-1.1606 -2.46377,-1.53427c-1.08144,-0.32629 -2.75641,-0.12092 -4.14159,-0.13361c-3.39953,-0.03113 -7.58619,0.53554 -9.17377,1.68682c0,0 -0.39092,0.26505 -1.1142,0.28817z" data-paper-data="{&quot;index&quot;:null}" fill="#75dbff" fill-rule="nonzero" stroke="none" stroke-width="0" stroke-linecap="butt"/><path d="M212.51175,192.11785c1.58757,-1.15129 5.82161,-1.72601 9.22113,-1.69488c1.38519,0.01268 3.07981,-0.19101 4.16125,0.13527c1.23847,0.37366 1.56604,1.05108 2.48244,1.53903c3.60566,1.91994 4.76937,3.9654 0.8733,5.95918c-2.9025,0.57838 -5.13411,1.10279 -8.53104,1.08604c-9.17211,-0.0452 -11.24699,-4.01841 -9.32505,-6.73453c0.72328,-0.02311 1.11795,-0.29013 1.11795,-0.29013z" data-paper-data="{&quot;noHover&quot;:false,&quot;origItem&quot;:[&quot;Path&quot;,{&quot;applyMatrix&quot;:true,&quot;segments&quot;:[[[409.4867,271.35519],[1.25852,-0.10678],[-3.34423,12.54639]],[[425.63199,302.31001],[-15.95943,-0.20878],[5.91067,0.07732]],[[440.40413,297.31952],[-5.05034,2.67171],[6.7792,-9.20965]],[[438.881,269.93654],[6.27385,8.86861],[-1.59451,-2.25397]],[[434.59405,262.84941],[2.15492,1.72602],[-1.88172,-1.50719]],[[427.3877,262.23225],[2.4102,0.05859],[-5.91515,-0.1438]],[[411.4254,270.0241],[2.76238,-5.31806],[0,0]]],&quot;closed&quot;:true}],&quot;index&quot;:null}" fill="#ffffff" fill-rule="nonzero" stroke="none" stroke-width="0" stroke-linecap="butt"/><path d="M245.01954,190.75958c3.84852,-0.50439 8.09747,0.05426 11.98494,0.58892c0.91883,0.12637 4.11387,0.49093 4.83263,0.86974c1.73039,0.91193 1.55353,2.40144 1.86624,3.46139c0.29339,0.99449 0.87652,1.96253 -0.91547,2.83863c-3.13895,1.53463 -7.87289,2.08557 -12.60766,2.56c-2.18712,0.09826 -4.14864,0.35597 -6.1682,-0.20096c-1.21965,-0.33634 -2.41076,-1.45873 -2.99129,-1.94913c-1.9755,-1.66882 -5.16204,-3.85767 -3.48967,-5.76659c0.56682,-0.64698 3.45026,-1.41437 4.44459,-1.99483l1.7368,-0.37867c0,0 0.67433,-0.13952 1.30712,-0.02848zM243.49734,192.15499c-0.98323,0.39942 -3.13818,1.17272 -3.25471,1.36486c-1.04127,1.71685 1.64864,3.47573 3.40689,4.97112c0.13897,0.1182 1.4949,1.33911 2.06621,1.51465c0.92941,0.28556 3.15207,0.05021 3.91093,0.01046c4.20496,-0.42355 7.93205,-0.87231 10.87651,-2.15433c1.22934,-0.53526 0.52019,-1.47045 0.34432,-2.06216c-0.24066,-0.80978 0.00429,-2.17665 -1.23263,-2.89512c-0.70184,-0.40767 -2.38357,-0.37266 -3.59544,-0.53913c-3.45236,-0.47425 -8.2376,-1.23971 -11.46988,-0.31612c0,0 -0.48436,0.13032 -1.05224,0.10576z" data-paper-data="{&quot;index&quot;:null}" fill="#75dbff" fill-rule="nonzero" stroke="none" stroke-width="0" stroke-linecap="butt"/><path d="M244.52013,192.03063c3.23228,-0.92359 8.07575,-0.15825 11.52812,0.316c1.21186,0.16647 2.90793,0.1359 3.6098,0.54358c1.2369,0.71847 1.00622,2.09915 1.24689,2.90894c0.17584,0.59171 0.87832,1.53751 -0.35105,2.07277c-2.94446,1.28201 -6.7274,1.74218 -10.93239,2.16573c-0.75885,0.03974 -2.99985,0.2733 -3.92924,-0.01227c-0.5713,-0.17554 -1.94448,-1.40093 -2.0835,-1.51913c-1.75824,-1.49539 -4.45661,-3.28075 -3.41535,-4.9976c0.11653,-0.19214 2.2871,-0.97182 3.27032,-1.37123c0.56787,0.02454 1.05636,-0.1068 1.05636,-0.1068z" data-paper-data="{&quot;noHover&quot;:false,&quot;origItem&quot;:[&quot;Path&quot;,{&quot;applyMatrix&quot;:true,&quot;segments&quot;:[[[465.26223,270.13291],[0.98811,0.11339],[-1.71083,1.84504]],[[459.59907,276.43751],[0.20277,-0.88758],[-1.81178,7.93053]],[[465.52703,299.40029],[-3.05933,-6.90758],[0.24182,0.54599]],[[469.12222,306.39679],[-0.99407,-0.81085],[1.61715,1.31908]],[[475.92722,306.44514],[-1.32039,0.18358],[7.31661,-1.95648]],[[494.85229,296.49376],[-5.12332,5.92193],[2.13908,-2.47252]],[[495.45142,286.96818],[0.30597,2.73324],[-0.41874,-3.7406]],[[493.30665,273.59497],[2.15221,3.31878],[-1.22123,-1.88318]],[[487.05062,271.1046],[2.10865,0.76899],[-6.0071,-2.19068]],[[467.0931,269.64433],[5.62415,-4.26625],[0,0]]],&quot;closed&quot;:true}],&quot;index&quot;:null}" fill="#ffffff" fill-rule="nonzero" stroke="none" stroke-width="0" stroke-linecap="butt"/><path d="M227.49907,195.04785c0,-0.47825 1.02922,-0.86594 2.29886,-0.86594c1.26963,0 2.29886,0.3877 2.29886,0.86594c0,0.47825 -1.02923,0.86594 -2.29886,0.86594c-1.26963,0 -2.29886,-0.3877 -2.29886,-0.86594z" data-paper-data="{&quot;index&quot;:null}" fill="#000000" fill-rule="nonzero" stroke="none" stroke-width="0" stroke-linecap="butt"/><path d="M256.87772,195.8908c0,-0.47825 1.02922,-0.86594 2.29886,-0.86594c1.26963,0 2.29886,0.3877 2.29886,0.86594c0,0.47825 -1.02923,0.86594 -2.29886,0.86594c-1.26963,0 -2.29886,-0.3877 -2.29886,-0.86594z" data-paper-data="{&quot;index&quot;:null}" fill="#000000" fill-rule="nonzero" stroke="none" stroke-width="0" stroke-linecap="butt"/><path d="M184.59694,175.26207c0.63758,-0.36026 1.59397,-0.12008 1.59397,-0.12008l0.46863,0.11768c5.08723,1.27753 9.93164,2.64342 14.79435,4.03901c10.70547,3.07245 22.50179,5.81371 32.03877,9.40614c0,0 0.81277,0.30616 0,0.61231c-0.81277,0.30616 -1.62554,0 -1.62554,0c-9.4608,-3.56374 -21.18593,-6.2816 -31.80643,-9.32966c-4.82446,-1.38461 -9.62926,-2.73987 -14.67633,-4.0073l-0.46862,-0.11768c0,0 -0.95639,-0.24016 -0.3188,-0.60043z" data-paper-data="{&quot;index&quot;:null}" fill="#75dbff" fill-rule="nonzero" stroke="none" stroke-width="0" stroke-linecap="butt"/><path d="M293.74984,170.02618c0.9742,0.22977 0.36424,0.59675 0.36424,0.59675l-0.6537,0.39163c-6.33538,2.92143 -13.97532,5.2642 -20.86271,7.97664c-9.46756,3.72858 -18.69518,7.68109 -29.05475,11.04126c0,0 -0.87272,0.28178 -1.62074,-0.04696c-0.74803,-0.32874 0.12467,-0.6105 0.12467,-0.6105c10.33337,-3.31947 19.48516,-7.27863 28.88952,-10.98233c6.81246,-2.68292 14.37909,-4.99805 20.65648,-7.88305l0.57281,-0.34622c0,0 0.60998,-0.36696 1.58423,-0.13719z" data-paper-data="{&quot;index&quot;:null}" fill="#75dbff" fill-rule="nonzero" stroke="none" stroke-width="0" stroke-linecap="butt"/><path d="M201.44566,200.83318c-0.14647,-0.03757 -0.26958,-0.10074 -0.26958,-0.20693c0,-0.26209 0.75,-0.26209 0.75,-0.26209l1.02909,0.26209c0,1.32563 -1.06045,2.37253 -1.8238,3.65069c-0.90828,1.52082 1.29971,3.27057 3.95633,4.39872c2.14412,0.53107 4.37366,0.64279 6.75419,0.97406c6.36138,0.8852 12.10192,0.96079 18.8348,1.19954c9.49173,-0.00215 20.24092,0.04221 28.74321,-1.65638c8.09985,-1.60926 6.6588,-4.96718 5.53708,-7.70052c0,0 -0.10607,-0.25946 0.63639,-0.29653c0.74246,-0.03706 0.84853,0.2224 0.84853,0.2224c1.21306,2.97968 2.44753,6.47932 -6.2778,8.22978c-8.76097,1.74868 -19.77932,1.72689 -29.56275,1.72479c-6.89883,-0.24156 -12.81101,-0.3344 -19.33349,-1.23878c-2.55417,-0.35415 -4.89917,-0.49623 -7.2006,-1.07414c-3.05011,-1.26577 -5.34133,-3.15524 -4.41654,-4.86688c0.64138,-1.18709 1.68468,-2.15839 1.79493,-3.3598z" fill="#75dbff" fill-rule="nonzero" stroke="none" stroke-width="0.5" stroke-linecap="butt"/></g></g></g></svg>