<svg version="1.1" xmlns="http://www.w3.org/2000/svg" xmlns:xlink="http://www.w3.org/1999/xlink" width="2878.25006" height="1619.57958" viewBox="0,0,2878.25006,1619.57958"><g transform="translate(1117.37278,629.80931)"><g data-paper-data="{&quot;isPaintingLayer&quot;:true}" stroke-linejoin="miter" stroke-miterlimit="10" stroke-dasharray="" stroke-dashoffset="0" style="mix-blend-mode: normal"><path d="M-1117.37278,989.77027v-1619.57958h2878.25006v1619.57958z" fill="none" fill-rule="nonzero" stroke="#000000" stroke-width="0" stroke-linecap="butt"/><g><path d="M371.77626,221.48608l-19.76914,-3.42296l93.69715,0.0198l33.57674,3.39109z" data-paper-data="{&quot;index&quot;:null}" fill="#cedce9" fill-rule="nonzero" stroke="#000000" stroke-width="0" stroke-linecap="round"/><path d="M488.1911,221.29501c-2.53537,0.03783 -5.02815,0.05959 -7.49601,0.07536c0.01679,0.00577 0.02551,0.01178 0.02559,0.01806c0.00194,0.15287 -5.1608,0.15345 -5.1608,0.15345c-22.80221,0.00256 -45.60433,0.00512 -68.40647,0.00768c-5.86765,0.00066 -20.46882,-0.06706 -24.79534,0.02486c-2.49217,0.05295 -4.27685,0.04793 -7.47097,0.0552c-0.36051,0.00082 -1.01625,0.00256 -1.59566,0.00365c3.08953,0.06494 1.60419,0.6685 1.60635,0.83715c0.00908,0.71341 0.01812,1.42681 0.0272,2.14022c0.0016,0.12739 0.00322,0.25479 0.00485,0.38218c0.00065,0.05096 -0.90552,0.19626 0.00194,0.15287c3.45256,-0.16507 10.19566,-0.07729 18.06866,-0.07846c15.51938,-0.00233 32.13396,-0.05333 47.37744,0.02763c27.83585,0.16171 57.75828,-0.105 85.37226,0.07555c23.25749,0.16954 51.09544,0.18193 75.05495,0.17924c6.02327,-0.00067 12.04642,-0.00135 18.06966,-0.00203c0.90625,-0.0001 2.32912,-0.00387 3.80233,-0.008c-1.48298,-0.07826 0.06626,-0.26808 0.06491,-0.37462c-0.00505,-0.39801 4.49192,-1.08508 -1.04401,-1.44205c-4.89362,-0.43367 -7.99102,-0.85139 -15.97006,-1.28354c-5.88716,-0.31886 -15.04909,-0.60106 -19.9208,-0.9179c-2.3623,-0.1889 -4.47318,-0.05347 -12.15878,-0.09638c-17.00624,-0.09496 -34.0612,-0.07261 -51.62851,-0.07064c-6.4034,0.00072 -14.44505,0.04012 -20.65104,0.00232c-1.31004,-0.00798 -3.77221,-0.03791 -5.6178,-0.06244c3.37603,0.07683 -4.32441,0.15239 -7.55991,0.20066zM407.1492,221.24381c17.23319,-0.00193 34.46634,-0.00387 51.69948,-0.0058c0.49704,-0.00742 0.99398,-0.01483 1.49101,-0.02225c6.54685,-0.09768 12.45893,-0.07265 18.06825,-0.11668c7.64435,-0.06 12.21475,-0.2597 20.10212,-0.308c4.53093,-0.02775 17.08239,0.05838 23.50567,0.05766c17.41699,-0.00195 34.81452,-0.0334 51.62851,0.07064c9.44543,0.05845 17.42579,-0.05846 21.84711,0.2951c0.65281,0.13442 5.86528,0.21789 8.59232,0.32105c4.16756,0.15764 7.65219,0.39142 10.87776,0.56611c7.99617,0.43308 11.5153,0.87905 16.53092,1.32353c4.48318,0.46861 1.56901,1.05066 1.5752,1.53868c0.00344,0.26981 1.44189,0.45981 -5.15399,0.68851c-2.30007,0.07975 -23.55962,0.00264 -27.10445,0.00304c-24.71307,0.00278 -53.58879,-0.01335 -77.5594,-0.18809c-26.33426,-0.22495 -57.67394,0.08572 -84.8929,-0.07241c-21.93438,-0.14382 -55.78304,0.24966 -73.75043,-0.24804c-1.77886,-0.04928 -0.00578,-0.45359 -0.00681,-0.53506c-0.00908,-0.71341 -0.01812,-1.42681 -0.0272,-2.14022c-0.00301,-0.23852 -3.56112,-0.80759 1.82327,-0.98581c9.39607,-0.31101 26.98922,-0.24041 40.75383,-0.24195z" data-paper-data="{&quot;index&quot;:null}" fill="#000000" fill-rule="nonzero" stroke="none" stroke-width="0" stroke-linecap="butt"/><path d="M480.62287,221.36303c2.46783,-0.01576 4.99065,-0.03773 7.52614,-0.07556c3.23549,-0.04827 10.96657,-0.12392 7.59043,-0.20075c1.84557,0.02453 4.3283,0.05446 5.63821,0.06244c6.206,0.0378 14.31973,-0.00122 20.72296,-0.00194c17.56722,-0.00197 34.73294,-0.02219 51.73914,0.07277c7.68559,0.04292 9.81249,-0.09194 12.17477,0.09696c4.87175,0.31684 14.0724,0.60131 19.95963,0.92017c7.97906,0.43215 11.08711,0.85277 15.98073,1.28644c5.53599,0.35697 1.01478,1.04669 1.01984,1.4447c0.00134,0.10654 -1.55753,0.2969 -0.07451,0.37516c-1.47309,0.00413 -2.89793,0.008 -3.80425,0.0081c-6.02325,0.00068 -12.05696,0.00183 -18.0802,0.00251c-23.95963,0.00269 -51.91057,-0.00703 -75.16808,-0.17657c-27.61399,-0.18055 -57.80997,0.08471 -85.64586,-0.077c-15.24347,-0.08096 -31.90507,-0.03169 -47.42446,-0.02937c-7.87299,0.00118 -14.62221,-0.08694 -18.07478,0.07814c-0.90746,0.04339 -0.00517,-0.10214 -0.00583,-0.1531c-0.00162,-0.12739 -0.01208,-0.25541 -0.01371,-0.3828c-0.00904,-0.71341 -0.02892,-1.43105 -0.038,-2.14446c-0.00216,-0.16865 1.49884,-0.77367 -1.59071,-0.83861c0.57949,-0.00109 1.2357,-0.00287 1.59627,-0.00369c3.19401,-0.00726 4.98276,-0.0025 7.47484,-0.05545c4.32652,-0.09192 18.94091,-0.02491 24.80854,-0.02557c22.80227,-0.00256 45.7259,-0.00817 68.52805,-0.01073c0,0 5.18809,-0.00084 5.18615,-0.15372c-0.00008,-0.00627 -0.0082,-0.01229 -0.025,-0.01806z" data-paper-data="{&quot;noHover&quot;:false,&quot;origItem&quot;:[&quot;Path&quot;,{&quot;applyMatrix&quot;:true,&quot;segments&quot;:[[[579.60736,595.76373],[0.95609,-0.20262],[0.00646,0.07548]],[[579.61718,596],[0,-0.08208],[0,2]],[[577.61718,598],[0,0],[-8.83333,0]],[[551.11718,598],[8.83333,0],[-2.27308,0]],[[541.51161,598.28885],[1.67648,-1.19621],[-0.96568,0.68904]],[[538.61718,599],[1.23739,-0.09027],[-0.13966,0.01019]],[[537.99901,599.04541],[0.22447,-0.0134],[1.19653,0.85421]],[[538.61718,610],[0,-2.20646],[0,9.33333]],[[538.61718,638],[0,-9.33333],[0,1.66667]],[[538.61718,643],[0,-1.66667],[0,0.66667]],[[538.61718,645],[-0.35177,0.56631],[1.33831,-2.15456]],[[545.61718,644],[-3.04994,0.00386],[6.01206,-0.00761]],[[563.97058,644.43107],[-5.90478,-1.08158],[10.78253,2.15651]],[[597.04254,645.54479],[-10.6965,-2.40266],[9.00888,2.25222]],[[626.11718,648],[-9.28168,0],[2.33333,0]],[[633.11718,648],[-2.33333,0],[0.35109,0]],[[634.59021,647.90091],[-0.5707,0.05184],[-0.57412,-1.02596]],[[634.61718,643],[0,1.39387],[0,-5.20707]],[[634.21982,624.13246],[2.14282,4.67827],[-1.8936,-5.6808]],[[628.03948,607.31672],[3.08887,5.66543],[-2.2791,-4.1802]],[[620.32688,595.27881],[1.8857,4.15235],[-0.91417,-2.47477]],[[615.61718,594],[2.9771,0.57275],[-6.58756,-1.26734]],[[595.61718,593],[6.8054,0],[-2.48058,0]],[[587.61718,593],[2.40395,0.50364],[-0.50743,-0.10631]],[[585.44122,592.1748],[0.71481,0.32365],[1.30749,1.01011]],[[582.51161,594.78885],[1.25365,-0.62682],[-0.98239,0.4912]]],&quot;closed&quot;:true}],&quot;index&quot;:null}" fill="#c9c9c9" fill-rule="nonzero" stroke="none" stroke-width="0" stroke-linecap="butt"/><path d="M553.00602,221.91536c-0.00023,-0.01773 -0.0721,-0.0474 -0.14082,-0.07656c-0.26581,0.01187 -0.66232,0.022 -1.17233,0.03064c-1.52905,0.04624 -3.84966,0.0465 -3.84966,0.0465c-19.66498,0.00221 -31.018,0.40931 -37.9644,0.83699c-0.81722,0.04853 -0.74424,0.10687 -0.74355,0.16102c0.00019,0.01541 -0.04928,0.0399 -0.10333,0.06523c0.05187,-0.00816 0.18162,-0.01487 0.44583,-0.01921c1.16745,-0.01914 11.32048,0.09602 12.5653,0.02896c0.37411,-0.02015 -1.83653,-0.0237 -1.71489,-0.04639c1.49592,-0.27899 17.39306,-0.70251 25.20886,-0.81913c2.02712,-0.03025 4.30933,-0.04561 6.5782,-0.05278c-0.88762,-0.04081 0.89142,-0.10362 0.89075,-0.15529zM509.00481,222.99185c-0.11636,0.05436 -0.21964,0.10632 0.1323,0.07499c0.24055,-0.02141 -0.1075,-0.0514 -0.1323,-0.07499zM500.64169,222.61724c7.37339,-0.41272 17.18205,-0.78938 32.47316,-0.93891c1.43576,-0.06664 4.39899,-0.06697 4.39899,-0.06697l2.58133,-0.00029c5.84505,-0.00066 8.93666,-0.0613 15.21502,-0.062c8.71911,-0.00098 10.7468,0.51217 6.18928,0.66303c-2.87593,0.09519 -7.49058,0.12684 -11.34132,0.18429c-11.39829,0.17007 -15.62223,0.65557 -28.11122,0.89831c-13.23673,0.25727 -27.82001,-0.29656 -21.40526,-0.67746z" data-paper-data="{&quot;index&quot;:null}" fill="#000000" fill-rule="nonzero" stroke="none" stroke-width="0" stroke-linecap="butt"/><path d="M553.05695,221.83366c0.0689,0.02916 0.15272,0.05926 0.15293,0.07698c0.00065,0.05167 -1.75717,0.11542 -0.86956,0.15623c-2.2689,0.00717 -4.56421,0.02191 -6.59138,0.05216c-7.81589,0.11662 -23.78979,0.53801 -25.28565,0.817c-0.12176,0.02269 1.84386,0.03969 1.46973,0.05984c-1.24485,0.06706 -11.48582,-0.0501 -12.6533,-0.03097c-0.2643,0.00433 -0.39279,0.01108 -0.44459,0.01925c0.05405,-0.02533 0.09394,-0.05017 0.09375,-0.06558c-0.00068,-0.05415 -0.09624,-0.11356 0.72101,-0.16208c6.94633,-0.42768 18.70926,-0.84381 38.37421,-0.84602c0,0 2.33114,0.00006 3.86018,-0.04618c0.51004,-0.00864 0.90682,-0.01877 1.17243,-0.03064z" data-paper-data="{&quot;noHover&quot;:false,&quot;origItem&quot;:[&quot;Path&quot;,{&quot;applyMatrix&quot;:true,&quot;segments&quot;:[[[607.563,601.99816],[0.02649,0.38155],[-0.10299,0.15484]],[[607.10872,602.39727],[0.1976,-0.11227],[-0.59254,0.60273]],[[605.61718,603],[0,0],[-7.618,0]],[[590.90604,613.89443],[2.69308,-5.58508],[-0.31682,0.63364]],[[590.61718,616],[0,-0.70843],[0,0.20156]],[[590.57685,616.85325],[0.02106,-0.33136],[0.02013,-0.10671]],[[590.74964,616.60263],[-0.10238,0.05628],[0.45234,-0.24865]],[[595.61718,617],[-0.48256,0.87548],[0.14503,-0.26312]],[[594.95308,616.3906],[-0.04725,0.29671],[0.58086,-3.64773]],[[604.72276,605.71115],[-3.02833,1.51416],[0.78545,-0.39273]],[[607.27135,605.03032],[-0.87898,0.0905],[-0.34365,-0.53523]],[[607.61718,603],[0,0.6759],[0,-0.23192]]],&quot;closed&quot;:true}],&quot;index&quot;:null}" fill="#ffffff" fill-rule="nonzero" stroke="none" stroke-width="0" stroke-linecap="butt"/><path d="M371.77627,221.48608l-19.76914,-3.42296l93.69715,0.0198l33.57674,3.39109z" data-paper-data="{&quot;index&quot;:null}" fill="#cedce9" fill-rule="nonzero" stroke="#000000" stroke-width="0" stroke-linecap="round"/><path d="M488.1911,221.29501c-2.53537,0.03783 -5.02815,0.05959 -7.49601,0.07536c0.01679,0.00577 0.02551,0.01178 0.02559,0.01806c0.00194,0.15287 -5.1608,0.15345 -5.1608,0.15345c-22.80221,0.00256 -45.60433,0.00512 -68.40647,0.00768c-5.86765,0.00066 -20.46882,-0.06706 -24.79534,0.02486c-2.49217,0.05295 -4.27685,0.04793 -7.47097,0.0552c-0.36051,0.00082 -1.01625,0.00256 -1.59566,0.00365c3.08953,0.06494 1.60419,0.6685 1.60635,0.83715c0.00908,0.71341 0.01812,1.42681 0.0272,2.14022c0.0016,0.12739 0.00322,0.25479 0.00485,0.38218c0.00065,0.05096 -0.90552,0.19626 0.00194,0.15287c3.45256,-0.16507 10.19566,-0.07729 18.06866,-0.07846c15.51938,-0.00233 32.13396,-0.05333 47.37744,0.02763c27.83585,0.16171 57.75828,-0.105 85.37226,0.07555c23.25749,0.16954 51.09544,0.18193 75.05495,0.17924c6.02327,-0.00067 12.04642,-0.00135 18.06966,-0.00203c0.90625,-0.0001 2.32912,-0.00387 3.80233,-0.008c-1.48298,-0.07826 0.06626,-0.26808 0.06491,-0.37462c-0.00505,-0.39801 4.49192,-1.08508 -1.04401,-1.44205c-4.89362,-0.43367 -7.99102,-0.85139 -15.97006,-1.28354c-5.88716,-0.31886 -15.04909,-0.60106 -19.9208,-0.9179c-2.3623,-0.1889 -4.47318,-0.05347 -12.15878,-0.09638c-17.00624,-0.09496 -34.0612,-0.07261 -51.62851,-0.07064c-6.4034,0.00072 -14.44505,0.04012 -20.65104,0.00232c-1.31004,-0.00798 -3.77221,-0.03791 -5.6178,-0.06244c3.37603,0.07683 -4.32441,0.15239 -7.55991,0.20066zM407.14921,221.24381c17.23319,-0.00193 34.46634,-0.00387 51.69948,-0.0058c0.49704,-0.00742 0.99398,-0.01483 1.49101,-0.02225c6.54685,-0.09768 12.45893,-0.07265 18.06825,-0.11668c7.64435,-0.06 12.21475,-0.2597 20.10212,-0.308c4.53093,-0.02775 17.08239,0.05838 23.50567,0.05766c17.41699,-0.00195 34.81452,-0.0334 51.62851,0.07064c9.44543,0.05845 17.42579,-0.05846 21.84711,0.2951c0.65281,0.13442 5.86528,0.21789 8.59232,0.32105c4.16756,0.15764 7.65219,0.39142 10.87776,0.56611c7.99617,0.43308 11.5153,0.87905 16.53092,1.32353c4.48318,0.46861 1.56901,1.05066 1.5752,1.53868c0.00344,0.26981 1.44189,0.45981 -5.15399,0.68851c-2.30007,0.07975 -23.55962,0.00264 -27.10445,0.00304c-24.71307,0.00278 -53.58879,-0.01335 -77.5594,-0.18809c-26.33426,-0.22495 -57.67394,0.08572 -84.8929,-0.07241c-21.93438,-0.14382 -55.78304,0.24966 -73.75043,-0.24804c-1.77886,-0.04928 -0.00578,-0.45359 -0.00681,-0.53506c-0.00908,-0.71341 -0.01812,-1.42681 -0.0272,-2.14022c-0.00301,-0.23852 -3.56112,-0.80759 1.82327,-0.98581c9.39607,-0.31101 26.98922,-0.24041 40.75383,-0.24195z" data-paper-data="{&quot;index&quot;:null}" fill="#000000" fill-rule="nonzero" stroke="none" stroke-width="0" stroke-linecap="butt"/><path d="M480.62287,221.36303c2.46783,-0.01576 4.99065,-0.03773 7.52614,-0.07556c3.23549,-0.04827 10.96657,-0.12392 7.59043,-0.20075c1.84557,0.02453 4.3283,0.05446 5.63821,0.06244c6.206,0.0378 14.31973,-0.00122 20.72296,-0.00194c17.56722,-0.00197 34.73294,-0.02219 51.73914,0.07277c7.68559,0.04292 9.81249,-0.09194 12.17477,0.09696c4.87175,0.31684 14.0724,0.60131 19.95963,0.92017c7.97906,0.43215 11.08711,0.85277 15.98073,1.28644c5.53599,0.35697 1.01478,1.04669 1.01984,1.4447c0.00134,0.10654 -1.55753,0.2969 -0.07451,0.37516c-1.47309,0.00413 -2.89793,0.008 -3.80425,0.0081c-6.02325,0.00068 -12.05696,0.00183 -18.0802,0.00251c-23.95963,0.00269 -51.91057,-0.00703 -75.16808,-0.17657c-27.61399,-0.18055 -57.80997,0.08471 -85.64586,-0.077c-15.24347,-0.08096 -31.90507,-0.03169 -47.42446,-0.02937c-7.87299,0.00118 -14.62221,-0.08694 -18.07478,0.07814c-0.90746,0.04339 -0.00517,-0.10214 -0.00583,-0.1531c-0.00162,-0.12739 -0.01208,-0.25541 -0.01371,-0.3828c-0.00904,-0.71341 -0.02892,-1.43105 -0.038,-2.14446c-0.00216,-0.16865 1.49884,-0.77367 -1.59071,-0.83861c0.57949,-0.00109 1.2357,-0.00287 1.59627,-0.00369c3.19401,-0.00726 4.98276,-0.0025 7.47484,-0.05545c4.32652,-0.09192 18.94091,-0.02491 24.80854,-0.02557c22.80227,-0.00256 45.7259,-0.00817 68.52805,-0.01073c0,0 5.18809,-0.00084 5.18615,-0.15372c-0.00008,-0.00627 -0.0082,-0.01229 -0.025,-0.01806z" data-paper-data="{&quot;noHover&quot;:false,&quot;origItem&quot;:[&quot;Path&quot;,{&quot;applyMatrix&quot;:true,&quot;segments&quot;:[[[579.60736,595.76373],[0.95609,-0.20262],[0.00646,0.07548]],[[579.61718,596],[0,-0.08208],[0,2]],[[577.61718,598],[0,0],[-8.83333,0]],[[551.11718,598],[8.83333,0],[-2.27308,0]],[[541.51161,598.28885],[1.67648,-1.19621],[-0.96568,0.68904]],[[538.61718,599],[1.23739,-0.09027],[-0.13966,0.01019]],[[537.99901,599.04541],[0.22447,-0.0134],[1.19653,0.85421]],[[538.61718,610],[0,-2.20646],[0,9.33333]],[[538.61718,638],[0,-9.33333],[0,1.66667]],[[538.61718,643],[0,-1.66667],[0,0.66667]],[[538.61718,645],[-0.35177,0.56631],[1.33831,-2.15456]],[[545.61718,644],[-3.04994,0.00386],[6.01206,-0.00761]],[[563.97058,644.43107],[-5.90478,-1.08158],[10.78253,2.15651]],[[597.04254,645.54479],[-10.6965,-2.40266],[9.00888,2.25222]],[[626.11718,648],[-9.28168,0],[2.33333,0]],[[633.11718,648],[-2.33333,0],[0.35109,0]],[[634.59021,647.90091],[-0.5707,0.05184],[-0.57412,-1.02596]],[[634.61718,643],[0,1.39387],[0,-5.20707]],[[634.21982,624.13246],[2.14282,4.67827],[-1.8936,-5.6808]],[[628.03948,607.31672],[3.08887,5.66543],[-2.2791,-4.1802]],[[620.32688,595.27881],[1.8857,4.15235],[-0.91417,-2.47477]],[[615.61718,594],[2.9771,0.57275],[-6.58756,-1.26734]],[[595.61718,593],[6.8054,0],[-2.48058,0]],[[587.61718,593],[2.40395,0.50364],[-0.50743,-0.10631]],[[585.44122,592.1748],[0.71481,0.32365],[1.30749,1.01011]],[[582.51161,594.78885],[1.25365,-0.62682],[-0.98239,0.4912]]],&quot;closed&quot;:true}],&quot;index&quot;:null}" fill="#c9c9c9" fill-rule="nonzero" stroke="none" stroke-width="0" stroke-linecap="butt"/><path d="M553.00603,221.91536c-0.00023,-0.01773 -0.0721,-0.0474 -0.14082,-0.07656c-0.26581,0.01187 -0.66232,0.022 -1.17233,0.03064c-1.52905,0.04624 -3.84966,0.0465 -3.84966,0.0465c-19.66498,0.00221 -31.018,0.40931 -37.9644,0.83699c-0.81722,0.04853 -0.74424,0.10687 -0.74355,0.16102c0.00019,0.01541 -0.04928,0.0399 -0.10333,0.06523c0.05187,-0.00816 0.18162,-0.01487 0.44583,-0.01921c1.16745,-0.01914 11.32048,0.09602 12.5653,0.02896c0.37411,-0.02015 -1.83653,-0.0237 -1.71489,-0.04639c1.49592,-0.27899 17.39306,-0.70251 25.20886,-0.81913c2.02712,-0.03025 4.30933,-0.04561 6.5782,-0.05278c-0.88762,-0.04081 0.89142,-0.10362 0.89075,-0.15529zM509.00481,222.99185c-0.11636,0.05436 -0.21964,0.10632 0.1323,0.07499c0.24055,-0.02141 -0.1075,-0.0514 -0.1323,-0.07499zM500.64169,222.61724c7.37339,-0.41272 17.18205,-0.78938 32.47316,-0.93891c1.43576,-0.06664 4.39899,-0.06697 4.39899,-0.06697l2.58133,-0.00029c5.84505,-0.00066 8.93666,-0.0613 15.21502,-0.062c8.71911,-0.00098 10.7468,0.51217 6.18928,0.66303c-2.87593,0.09519 -7.49058,0.12684 -11.34132,0.18429c-11.39829,0.17007 -15.62223,0.65557 -28.11122,0.89831c-13.23673,0.25727 -27.82001,-0.29656 -21.40526,-0.67746z" data-paper-data="{&quot;index&quot;:null}" fill="#000000" fill-rule="nonzero" stroke="none" stroke-width="0" stroke-linecap="butt"/><path d="M553.05695,221.83366c0.0689,0.02916 0.15272,0.05926 0.15293,0.07698c0.00065,0.05167 -1.75717,0.11542 -0.86956,0.15623c-2.2689,0.00717 -4.56421,0.02191 -6.59138,0.05216c-7.81589,0.11662 -23.78979,0.53801 -25.28565,0.817c-0.12176,0.02269 1.84386,0.03969 1.46973,0.05984c-1.24485,0.06706 -11.48582,-0.0501 -12.6533,-0.03097c-0.2643,0.00433 -0.39279,0.01108 -0.44459,0.01925c0.05405,-0.02533 0.09394,-0.05017 0.09375,-0.06558c-0.00068,-0.05415 -0.09624,-0.11356 0.72101,-0.16208c6.94633,-0.42768 18.70926,-0.84381 38.37421,-0.84602c0,0 2.33114,0.00006 3.86018,-0.04618c0.51004,-0.00864 0.90682,-0.01877 1.17243,-0.03064z" data-paper-data="{&quot;noHover&quot;:false,&quot;origItem&quot;:[&quot;Path&quot;,{&quot;applyMatrix&quot;:true,&quot;segments&quot;:[[[607.563,601.99816],[0.02649,0.38155],[-0.10299,0.15484]],[[607.10872,602.39727],[0.1976,-0.11227],[-0.59254,0.60273]],[[605.61718,603],[0,0],[-7.618,0]],[[590.90604,613.89443],[2.69308,-5.58508],[-0.31682,0.63364]],[[590.61718,616],[0,-0.70843],[0,0.20156]],[[590.57685,616.85325],[0.02106,-0.33136],[0.02013,-0.10671]],[[590.74964,616.60263],[-0.10238,0.05628],[0.45234,-0.24865]],[[595.61718,617],[-0.48256,0.87548],[0.14503,-0.26312]],[[594.95308,616.3906],[-0.04725,0.29671],[0.58086,-3.64773]],[[604.72276,605.71115],[-3.02833,1.51416],[0.78545,-0.39273]],[[607.27135,605.03032],[-0.87898,0.0905],[-0.34365,-0.53523]],[[607.61718,603],[0,0.6759],[0,-0.23192]]],&quot;closed&quot;:true}],&quot;index&quot;:null}" fill="#ffffff" fill-rule="nonzero" stroke="none" stroke-width="0" stroke-linecap="butt"/><path d="M164.71899,221.28606l33.57675,-3.39109l93.69714,-0.0198l-19.76914,3.42296z" data-paper-data="{&quot;index&quot;:null}" fill="#cedce9" fill-rule="nonzero" stroke="#000000" stroke-width="0" stroke-linecap="round"/><path d="M155.80894,221.10705c-3.2355,-0.04827 -10.93595,-0.12383 -7.55991,-0.20066c-1.84559,0.02453 -4.30777,0.05447 -5.61781,0.06245c-6.20599,0.0378 -14.24765,-0.0016 -20.65104,-0.00232c-17.56731,-0.00197 -34.62226,-0.02432 -51.62851,0.07064c-7.68561,0.04292 -9.79648,-0.09251 -12.15878,0.09638c-4.8717,0.31684 -14.03364,0.59904 -19.92079,0.9179c-7.97904,0.43215 -11.07645,0.84987 -15.97007,1.28354c-5.53593,0.35697 -1.03896,1.04404 -1.04401,1.44205c-0.00135,0.10654 1.54789,0.29636 0.06491,0.37462c1.47321,0.00413 2.89607,0.0079 3.80232,0.008c6.02324,0.00067 12.04639,0.00135 18.06966,0.00203c23.95951,0.00269 51.79746,-0.0097 75.05494,-0.17924c27.61399,-0.18055 57.53642,0.08616 85.37226,-0.07555c15.24348,-0.08096 31.85806,-0.02996 47.37744,-0.02763c7.87301,0.00118 14.6161,-0.08661 18.06866,0.07846c0.90746,0.04339 0.00129,-0.10191 0.00194,-0.15287c0.00162,-0.12739 0.00325,-0.25479 0.00485,-0.38218c0.00908,-0.71341 0.01812,-1.42681 0.0272,-2.14022c0.00216,-0.16865 -1.48319,-0.7722 1.60635,-0.83715c-0.5794,-0.00109 -1.23515,-0.00283 -1.59566,-0.00365c-3.19412,-0.00726 -4.97879,-0.00225 -7.47096,-0.0552c-4.32652,-0.09192 -18.92768,-0.0242 -24.79534,-0.02486c-22.80214,-0.00256 -45.60426,-0.00512 -68.40647,-0.00768c0,0 -5.16274,-0.00058 -5.1608,-0.15345c0.00008,-0.00628 0.0088,-0.01229 0.02559,-0.01806c-2.46787,-0.01577 -4.96064,-0.03753 -7.49601,-0.07536zM236.85053,221.05586c13.76461,0.00154 31.35777,-0.06906 40.75384,0.24195c5.38439,0.17822 1.82628,0.74729 1.82327,0.98581c-0.00907,0.71341 -0.01813,1.42681 -0.0272,2.14022c-0.00103,0.08146 1.77206,0.48578 -0.0068,0.53506c-17.9674,0.4977 -51.81605,0.10423 -73.75043,0.24804c-27.21896,0.15813 -58.55864,-0.15254 -84.8929,0.07241c-23.97061,0.17474 -52.84632,0.19087 -77.55939,0.18809c-3.54483,-0.0004 -24.80439,0.07671 -27.10445,-0.00304c-6.59588,-0.2287 -5.15742,-0.4187 -5.15399,-0.68851c0.00619,-0.48802 -2.90798,-1.07007 1.5752,-1.53868c5.01563,-0.44448 8.53476,-0.89045 16.53093,-1.32353c3.22556,-0.1747 6.71019,-0.40847 10.87776,-0.56611c2.72704,-0.10315 7.9395,-0.18663 8.59231,-0.32105c4.42133,-0.35355 12.40168,-0.23665 21.84711,-0.2951c16.81399,-0.10404 34.21152,-0.0726 51.62851,-0.07064c6.42327,0.00072 18.97474,-0.0854 23.50567,-0.05766c7.88736,0.0483 12.45776,0.248 20.10211,0.308c5.60931,0.04403 11.5214,0.019 18.06825,0.11668c0.49703,0.00742 0.99398,0.01483 1.49101,0.02225c17.23314,0.00193 34.46629,0.00387 51.69948,0.0058z" data-paper-data="{&quot;index&quot;:null}" fill="#000000" fill-rule="nonzero" stroke="none" stroke-width="0" stroke-linecap="butt"/><path d="M163.37679,221.17508c-0.0168,0.00577 -0.02491,0.01179 -0.025,0.01806c-0.00194,0.15287 5.18615,0.15372 5.18615,0.15372c22.80215,0.00256 45.72579,0.00817 68.52805,0.01073c5.86764,0.00066 20.48202,-0.06634 24.80854,0.02557c2.49208,0.05295 4.28083,0.04819 7.47484,0.05545c0.36057,0.00082 1.01678,0.0026 1.59627,0.00369c-3.08955,0.06495 -1.58855,0.66996 -1.59071,0.83861c-0.00907,0.71341 -0.02895,1.43105 -0.03799,2.14446c-0.00163,0.12739 -0.0121,0.25541 -0.01371,0.3828c-0.00066,0.05096 0.90163,0.19649 -0.00583,0.1531c-3.45256,-0.16507 -10.20178,-0.07696 -18.07478,-0.07814c-15.51939,-0.00232 -32.18099,-0.05159 -47.42446,0.02937c-27.83589,0.16171 -58.03187,-0.10355 -85.64586,0.077c-23.25751,0.16954 -51.20845,0.17926 -75.16808,0.17657c-6.02324,-0.00067 -12.05696,-0.00183 -18.0802,-0.00251c-0.90632,-0.0001 -2.33116,-0.00398 -3.80425,-0.0081c1.48302,-0.07826 -0.07586,-0.26862 -0.07452,-0.37516c0.00506,-0.39801 -4.51614,-1.08773 1.01984,-1.4447c4.89361,-0.43367 8.00167,-0.85429 15.98073,-1.28644c5.88724,-0.31886 15.08788,-0.60333 19.95963,-0.92017c2.36227,-0.1889 4.48917,-0.05404 12.17477,-0.09696c17.00621,-0.09496 34.17192,-0.07474 51.73915,-0.07277c6.40323,0.00072 14.51696,0.03974 20.72296,0.00194c1.30991,-0.00798 3.79264,-0.03791 5.63821,-0.06244c-3.37613,0.07683 4.35494,0.15248 7.59043,0.20075c2.5355,0.03783 5.05832,0.0598 7.52615,0.07556z" data-paper-data="{&quot;noHover&quot;:false,&quot;origItem&quot;:[&quot;Path&quot;,{&quot;applyMatrix&quot;:true,&quot;segments&quot;:[[[579.60736,595.76373],[0.95609,-0.20262],[0.00646,0.07548]],[[579.61718,596],[0,-0.08208],[0,2]],[[577.61718,598],[0,0],[-8.83333,0]],[[551.11718,598],[8.83333,0],[-2.27308,0]],[[541.51161,598.28885],[1.67648,-1.19621],[-0.96568,0.68904]],[[538.61718,599],[1.23739,-0.09027],[-0.13966,0.01019]],[[537.99901,599.04541],[0.22447,-0.0134],[1.19653,0.85421]],[[538.61718,610],[0,-2.20646],[0,9.33333]],[[538.61718,638],[0,-9.33333],[0,1.66667]],[[538.61718,643],[0,-1.66667],[0,0.66667]],[[538.61718,645],[-0.35177,0.56631],[1.33831,-2.15456]],[[545.61718,644],[-3.04994,0.00386],[6.01206,-0.00761]],[[563.97058,644.43107],[-5.90478,-1.08158],[10.78253,2.15651]],[[597.04254,645.54479],[-10.6965,-2.40266],[9.00888,2.25222]],[[626.11718,648],[-9.28168,0],[2.33333,0]],[[633.11718,648],[-2.33333,0],[0.35109,0]],[[634.59021,647.90091],[-0.5707,0.05184],[-0.57412,-1.02596]],[[634.61718,643],[0,1.39387],[0,-5.20707]],[[634.21982,624.13246],[2.14282,4.67827],[-1.8936,-5.6808]],[[628.03948,607.31672],[3.08887,5.66543],[-2.2791,-4.1802]],[[620.32688,595.27881],[1.8857,4.15235],[-0.91417,-2.47477]],[[615.61718,594],[2.9771,0.57275],[-6.58756,-1.26734]],[[595.61718,593],[6.8054,0],[-2.48058,0]],[[587.61718,593],[2.40395,0.50364],[-0.50743,-0.10631]],[[585.44122,592.1748],[0.71481,0.32365],[1.30749,1.01011]],[[582.51161,594.78885],[1.25365,-0.62682],[-0.98239,0.4912]]],&quot;closed&quot;:true}],&quot;index&quot;:null}" fill="#c9c9c9" fill-rule="nonzero" stroke="none" stroke-width="0" stroke-linecap="butt"/><path d="M90.99403,221.72741c-0.00067,0.05167 1.77837,0.11448 0.89076,0.15529c2.26887,0.00717 4.55109,0.02253 6.5782,0.05278c7.8158,0.11662 23.71294,0.54014 25.20885,0.81913c0.12164,0.02269 -2.08899,0.02624 -1.71489,0.04639c1.24482,0.06706 11.39785,-0.0481 12.5653,-0.02896c0.26421,0.00433 0.39396,0.01105 0.44583,0.0192c-0.05406,-0.02533 -0.10352,-0.04982 -0.10333,-0.06523c0.00069,-0.05415 0.07367,-0.1125 -0.74355,-0.16102c-6.9464,-0.42768 -18.29942,-0.83479 -37.9644,-0.83699c0,0 -2.32061,-0.00026 -3.84966,-0.0465c-0.51,-0.00864 -0.90652,-0.01877 -1.17233,-0.03064c-0.06872,0.02916 -0.14059,0.05883 -0.14083,0.07656zM134.86289,222.87888c0.35194,0.03134 0.24865,-0.02062 0.13229,-0.07499c-0.0248,0.02358 -0.37284,0.05357 -0.13229,0.07499zM143.35832,222.42929c6.41475,0.3809 -8.16853,0.93472 -21.40526,0.67746c-12.48898,-0.24274 -16.71293,-0.72824 -28.11122,-0.89831c-3.85074,-0.05745 -8.46538,-0.0891 -11.34132,-0.18429c-4.55751,-0.15085 -2.52983,-0.664 6.18928,-0.66303c6.27836,0.0007 9.36997,0.06135 15.21501,0.062l2.58133,0.00029c0,0 2.96323,0.00033 4.39899,0.06697c15.29111,0.14954 25.09977,0.5262 32.47316,0.93891z" data-paper-data="{&quot;index&quot;:null}" fill="#000000" fill-rule="nonzero" stroke="none" stroke-width="0" stroke-linecap="butt"/><path d="M90.94327,221.64571c0.26561,0.01186 0.6624,0.02199 1.17244,0.03064c1.52904,0.04624 3.86019,0.04618 3.86019,0.04618c19.66494,0.00221 31.42788,0.41833 38.37421,0.84602c0.81725,0.04853 0.72169,0.10794 0.72101,0.16208c-0.00018,0.01541 0.03971,0.04025 0.09375,0.06558c-0.0518,-0.00816 -0.18028,-0.01491 -0.44458,-0.01925c-1.16748,-0.01914 -11.40845,0.09802 -12.6533,0.03097c-0.37414,-0.02015 1.5915,-0.03715 1.46973,-0.05984c-1.49586,-0.27899 -17.46976,-0.70038 -25.28565,-0.817c-2.02717,-0.03025 -4.32249,-0.04499 -6.59138,-0.05216c0.88761,-0.04081 -0.87021,-0.10457 -0.86955,-0.15623c0.00022,-0.01773 0.08403,-0.04783 0.15293,-0.07698z" data-paper-data="{&quot;noHover&quot;:false,&quot;origItem&quot;:[&quot;Path&quot;,{&quot;applyMatrix&quot;:true,&quot;segments&quot;:[[[607.563,601.99816],[0.02649,0.38155],[-0.10299,0.15484]],[[607.10872,602.39727],[0.1976,-0.11227],[-0.59254,0.60273]],[[605.61718,603],[0,0],[-7.618,0]],[[590.90604,613.89443],[2.69308,-5.58508],[-0.31682,0.63364]],[[590.61718,616],[0,-0.70843],[0,0.20156]],[[590.57685,616.85325],[0.02106,-0.33136],[0.02013,-0.10671]],[[590.74964,616.60263],[-0.10238,0.05628],[0.45234,-0.24865]],[[595.61718,617],[-0.48256,0.87548],[0.14503,-0.26312]],[[594.95308,616.3906],[-0.04725,0.29671],[0.58086,-3.64773]],[[604.72276,605.71115],[-3.02833,1.51416],[0.78545,-0.39273]],[[607.27135,605.03032],[-0.87898,0.0905],[-0.34365,-0.53523]],[[607.61718,603],[0,0.6759],[0,-0.23192]]],&quot;closed&quot;:true}],&quot;index&quot;:null}" fill="#ffffff" fill-rule="nonzero" stroke="none" stroke-width="0" stroke-linecap="butt"/><path d="M164.71899,221.28606l33.57674,-3.39109l93.69715,-0.0198l-19.76914,3.42296z" data-paper-data="{&quot;index&quot;:null}" fill="#cedce9" fill-rule="nonzero" stroke="#000000" stroke-width="0" stroke-linecap="round"/><path d="M155.80894,221.10705c-3.2355,-0.04827 -10.93595,-0.12383 -7.55991,-0.20066c-1.84559,0.02453 -4.30777,0.05447 -5.61781,0.06245c-6.20599,0.0378 -14.24765,-0.0016 -20.65104,-0.00232c-17.56731,-0.00197 -34.62226,-0.02432 -51.62851,0.07064c-7.68561,0.04292 -9.79648,-0.09251 -12.15878,0.09638c-4.8717,0.31684 -14.03364,0.59904 -19.92079,0.9179c-7.97904,0.43215 -11.07645,0.84987 -15.97007,1.28354c-5.53593,0.35697 -1.03896,1.04404 -1.04401,1.44205c-0.00135,0.10654 1.54789,0.29636 0.06491,0.37462c1.47321,0.00413 2.89607,0.0079 3.80232,0.008c6.02324,0.00067 12.04639,0.00135 18.06966,0.00203c23.95951,0.00269 51.79746,-0.0097 75.05494,-0.17924c27.61399,-0.18055 57.53642,0.08616 85.37227,-0.07555c15.24348,-0.08096 31.85806,-0.02996 47.37744,-0.02763c7.87301,0.00118 14.6161,-0.08661 18.06866,0.07846c0.90746,0.04339 0.00129,-0.10191 0.00194,-0.15287c0.00162,-0.12739 0.00325,-0.25479 0.00485,-0.38218c0.00908,-0.71341 0.01812,-1.42681 0.0272,-2.14022c0.00216,-0.16865 -1.48319,-0.7722 1.60635,-0.83715c-0.5794,-0.00109 -1.23515,-0.00283 -1.59566,-0.00365c-3.19412,-0.00726 -4.97879,-0.00225 -7.47096,-0.0552c-4.32652,-0.09192 -18.92768,-0.0242 -24.79534,-0.02486c-22.80214,-0.00256 -45.60426,-0.00512 -68.40647,-0.00768c0,0 -5.16274,-0.00058 -5.1608,-0.15345c0.00007,-0.00628 0.00879,-0.01229 0.02558,-0.01806c-2.46786,-0.01577 -4.96064,-0.03753 -7.49601,-0.07536zM236.85053,221.05586c13.7646,0.00154 31.35776,-0.06906 40.75383,0.24195c5.38439,0.17822 1.82628,0.74729 1.82328,0.98581c-0.00908,0.71341 -0.01813,1.42681 -0.0272,2.14022c-0.00103,0.08146 1.77206,0.48578 -0.0068,0.53506c-17.9674,0.4977 -51.81605,0.10423 -73.75043,0.24804c-27.21896,0.15813 -58.55864,-0.15254 -84.8929,0.07241c-23.97061,0.17474 -52.84633,0.19087 -77.5594,0.18809c-3.54483,-0.0004 -24.80438,0.07671 -27.10445,-0.00304c-6.59588,-0.2287 -5.15742,-0.4187 -5.15399,-0.68851c0.00619,-0.48802 -2.90798,-1.07007 1.5752,-1.53868c5.01563,-0.44448 8.53476,-0.89045 16.53093,-1.32353c3.22556,-0.1747 6.71019,-0.40847 10.87775,-0.56611c2.72704,-0.10315 7.9395,-0.18663 8.59231,-0.32105c4.42133,-0.35355 12.40169,-0.23665 21.84712,-0.2951c16.81399,-0.10404 34.21151,-0.0726 51.62851,-0.07064c6.42327,0.00072 18.97474,-0.0854 23.50567,-0.05766c7.88736,0.0483 12.45777,0.248 20.10212,0.308c5.60932,0.04403 11.5214,0.019 18.06825,0.11668c0.49703,0.00742 0.99398,0.01483 1.49101,0.02225c17.23314,0.00193 34.46629,0.00387 51.69948,0.0058z" data-paper-data="{&quot;index&quot;:null}" fill="#000000" fill-rule="nonzero" stroke="none" stroke-width="0" stroke-linecap="butt"/><path d="M163.37679,221.17508c-0.0168,0.00577 -0.02491,0.01179 -0.025,0.01806c-0.00194,0.15287 5.18615,0.15372 5.18615,0.15372c22.80215,0.00256 45.72579,0.00817 68.52805,0.01073c5.86764,0.00066 20.48202,-0.06634 24.80854,0.02557c2.49208,0.05295 4.28083,0.04819 7.47484,0.05545c0.36057,0.00082 1.01678,0.0026 1.59627,0.00369c-3.08955,0.06495 -1.58855,0.66996 -1.59071,0.83861c-0.00907,0.71341 -0.02895,1.43105 -0.03799,2.14446c-0.00163,0.12739 -0.0121,0.25541 -0.01371,0.3828c-0.00066,0.05096 0.90163,0.19649 -0.00583,0.1531c-3.45256,-0.16507 -10.20178,-0.07696 -18.07478,-0.07814c-15.51939,-0.00232 -32.18099,-0.05159 -47.42446,0.02937c-27.83589,0.16171 -58.03187,-0.10355 -85.64586,0.077c-23.25751,0.16954 -51.20845,0.17926 -75.16808,0.17657c-6.02324,-0.00067 -12.05696,-0.00183 -18.0802,-0.00251c-0.90632,-0.0001 -2.33116,-0.00398 -3.80425,-0.0081c1.48302,-0.07826 -0.07586,-0.26862 -0.07452,-0.37516c0.00506,-0.39801 -4.51614,-1.08773 1.01984,-1.4447c4.89361,-0.43367 8.00167,-0.85429 15.98073,-1.28644c5.88724,-0.31886 15.08788,-0.60333 19.95963,-0.92017c2.36227,-0.1889 4.48917,-0.05404 12.17477,-0.09696c17.00621,-0.09496 34.17192,-0.07474 51.73915,-0.07277c6.40323,0.00072 14.51696,0.03974 20.72296,0.00194c1.30991,-0.00798 3.79264,-0.03791 5.63821,-0.06244c-3.37613,0.07683 4.35494,0.15248 7.59043,0.20075c2.5355,0.03783 5.05832,0.0598 7.52615,0.07556z" data-paper-data="{&quot;noHover&quot;:false,&quot;origItem&quot;:[&quot;Path&quot;,{&quot;applyMatrix&quot;:true,&quot;segments&quot;:[[[579.60736,595.76373],[0.95609,-0.20262],[0.00646,0.07548]],[[579.61718,596],[0,-0.08208],[0,2]],[[577.61718,598],[0,0],[-8.83333,0]],[[551.11718,598],[8.83333,0],[-2.27308,0]],[[541.51161,598.28885],[1.67648,-1.19621],[-0.96568,0.68904]],[[538.61718,599],[1.23739,-0.09027],[-0.13966,0.01019]],[[537.99901,599.04541],[0.22447,-0.0134],[1.19653,0.85421]],[[538.61718,610],[0,-2.20646],[0,9.33333]],[[538.61718,638],[0,-9.33333],[0,1.66667]],[[538.61718,643],[0,-1.66667],[0,0.66667]],[[538.61718,645],[-0.35177,0.56631],[1.33831,-2.15456]],[[545.61718,644],[-3.04994,0.00386],[6.01206,-0.00761]],[[563.97058,644.43107],[-5.90478,-1.08158],[10.78253,2.15651]],[[597.04254,645.54479],[-10.6965,-2.40266],[9.00888,2.25222]],[[626.11718,648],[-9.28168,0],[2.33333,0]],[[633.11718,648],[-2.33333,0],[0.35109,0]],[[634.59021,647.90091],[-0.5707,0.05184],[-0.57412,-1.02596]],[[634.61718,643],[0,1.39387],[0,-5.20707]],[[634.21982,624.13246],[2.14282,4.67827],[-1.8936,-5.6808]],[[628.03948,607.31672],[3.08887,5.66543],[-2.2791,-4.1802]],[[620.32688,595.27881],[1.8857,4.15235],[-0.91417,-2.47477]],[[615.61718,594],[2.9771,0.57275],[-6.58756,-1.26734]],[[595.61718,593],[6.8054,0],[-2.48058,0]],[[587.61718,593],[2.40395,0.50364],[-0.50743,-0.10631]],[[585.44122,592.1748],[0.71481,0.32365],[1.30749,1.01011]],[[582.51161,594.78885],[1.25365,-0.62682],[-0.98239,0.4912]]],&quot;closed&quot;:true}],&quot;index&quot;:null}" fill="#c9c9c9" fill-rule="nonzero" stroke="none" stroke-width="0" stroke-linecap="butt"/><path d="M90.99402,221.72741c-0.00067,0.05167 1.77837,0.11448 0.89075,0.15529c2.26887,0.00717 4.55109,0.02253 6.5782,0.05278c7.8158,0.11662 23.71294,0.54014 25.20885,0.81913c0.12164,0.02269 -2.08899,0.02624 -1.71489,0.04639c1.24482,0.06706 11.39785,-0.0481 12.5653,-0.02896c0.26421,0.00433 0.39396,0.01105 0.44583,0.0192c-0.05406,-0.02533 -0.10352,-0.04982 -0.10333,-0.06523c0.00069,-0.05415 0.07367,-0.1125 -0.74355,-0.16102c-6.9464,-0.42768 -18.29942,-0.83479 -37.9644,-0.83699c0,0 -2.32061,-0.00026 -3.84966,-0.0465c-0.51,-0.00864 -0.90653,-0.01877 -1.17233,-0.03064c-0.06872,0.02916 -0.14059,0.05883 -0.14082,0.07656zM134.86289,222.87888c0.35194,0.03134 0.24865,-0.02062 0.13229,-0.07499c-0.0248,0.02358 -0.37284,0.05357 -0.13229,0.07499zM143.35832,222.42929c6.41475,0.3809 -8.16853,0.93472 -21.40526,0.67746c-12.48898,-0.24274 -16.71293,-0.72824 -28.11122,-0.89831c-3.85074,-0.05745 -8.46538,-0.0891 -11.34132,-0.18429c-4.55751,-0.15085 -2.52983,-0.664 6.18928,-0.66303c6.27836,0.0007 9.36997,0.06135 15.21501,0.062l2.58133,0.00029c0,0 2.96323,0.00033 4.39899,0.06697c15.29111,0.14954 25.09977,0.5262 32.47316,0.93891z" data-paper-data="{&quot;index&quot;:null}" fill="#000000" fill-rule="nonzero" stroke="none" stroke-width="0" stroke-linecap="butt"/><path d="M90.94327,221.64571c0.26561,0.01186 0.6624,0.02199 1.17244,0.03064c1.52904,0.04624 3.86019,0.04618 3.86019,0.04618c19.66494,0.00221 31.42788,0.41833 38.37421,0.84602c0.81725,0.04853 0.72169,0.10794 0.72101,0.16208c-0.00018,0.01541 0.03971,0.04025 0.09375,0.06558c-0.0518,-0.00816 -0.18028,-0.01491 -0.44458,-0.01925c-1.16748,-0.01914 -11.40845,0.09802 -12.6533,0.03097c-0.37414,-0.02015 1.5915,-0.03715 1.46973,-0.05984c-1.49586,-0.27899 -17.46976,-0.70038 -25.28565,-0.817c-2.02717,-0.03025 -4.32249,-0.04499 -6.59138,-0.05216c0.88761,-0.04081 -0.87021,-0.10457 -0.86955,-0.15623c0.00022,-0.01773 0.08403,-0.04783 0.15293,-0.07698z" data-paper-data="{&quot;noHover&quot;:false,&quot;origItem&quot;:[&quot;Path&quot;,{&quot;applyMatrix&quot;:true,&quot;segments&quot;:[[[607.563,601.99816],[0.02649,0.38155],[-0.10299,0.15484]],[[607.10872,602.39727],[0.1976,-0.11227],[-0.59254,0.60273]],[[605.61718,603],[0,0],[-7.618,0]],[[590.90604,613.89443],[2.69308,-5.58508],[-0.31682,0.63364]],[[590.61718,616],[0,-0.70843],[0,0.20156]],[[590.57685,616.85325],[0.02106,-0.33136],[0.02013,-0.10671]],[[590.74964,616.60263],[-0.10238,0.05628],[0.45234,-0.24865]],[[595.61718,617],[-0.48256,0.87548],[0.14503,-0.26312]],[[594.95308,616.3906],[-0.04725,0.29671],[0.58086,-3.64773]],[[604.72276,605.71115],[-3.02833,1.51416],[0.78545,-0.39273]],[[607.27135,605.03032],[-0.87898,0.0905],[-0.34365,-0.53523]],[[607.61718,603],[0,0.6759],[0,-0.23192]]],&quot;closed&quot;:true}],&quot;index&quot;:null}" fill="#ffffff" fill-rule="nonzero" stroke="none" stroke-width="0" stroke-linecap="butt"/><g><path d="M583.58896,215.07119c0.30548,0.08164 0.40835,0.16952 0.31172,0.26365c-2.54985,0.00955 -5.04361,-0.00023 -7.48125,-0.02929c2.39087,0 4.77864,0 7.16953,0c0,-0.07813 0,-0.15623 0,-0.23435z" data-paper-data="{&quot;index&quot;:null}" fill="#6b6b6b" fill-rule="evenodd" stroke="none" stroke-width="0" stroke-linecap="butt"/><path d="M594.1874,215.21766c0.2899,0.03129 0.39589,0.07033 0.31172,0.11718c-3.17329,0.00958 -6.29048,-0.00018 -9.35156,-0.02929c3.01432,0 6.02552,0 9.03984,0c0,-0.02929 0,-0.05859 0,-0.08788z" data-paper-data="{&quot;index&quot;:null}" fill="#9e9e9e" fill-rule="evenodd" stroke="none" stroke-width="0" stroke-linecap="butt"/><path d="M502.54206,215.33483c2.54674,0 5.04049,0.00978 7.48125,0.02929c-5.01244,-0.00929 -9.99995,0.00047 -14.96252,0.02929c2.38152,-0.03899 4.87528,-0.05853 7.48125,-0.05859z" data-paper-data="{&quot;index&quot;:null}" fill="#484848" fill-rule="evenodd" stroke="none" stroke-width="0" stroke-linecap="butt"/><path d="M83.28014,215.53989c3.79611,-0.00961 7.53673,0.00015 11.22188,0.02929c-3.81888,-0.01799 -7.5595,0.00155 -11.22188,0.05859c0,-0.02929 0,-0.05859 0,-0.08788z" data-paper-data="{&quot;index&quot;:null}" fill="#838383" fill-rule="evenodd" stroke="none" stroke-width="0" stroke-linecap="butt"/><path d="M23.86418,199.0279l1.47565,0.02311l164.59665,0.20801v1.52566l95.364,0.00578v2.94686l49.18839,0.25424l0.49189,-1.73344l91.55189,0.20801v1.73344l29.51303,0.02311v5.91105l15.00246,0.06356l140.2484,0.10978l-1.96753,9.75352l-3.44319,0.01156l-323.98511,0.41603l-0.24594,-0.92567l-257.6242,-0.02889v-0.52003v-19.81905z" fill="#ffe800" fill-rule="nonzero" stroke="#000000" stroke-width="1" stroke-linecap="round"/><path d="M140.93421,210.2352l29.28309,0.05667v7.15413l-30.69432,0.05667l0.35281,-7.26393z" fill="#928b78" fill-rule="nonzero" stroke="#000000" stroke-width="1" stroke-linecap="round"/><path d="M132.35772,217.58899l-50.56643,-0.12819l1.28832,-7.43133l48.95603,0.11394z" fill="#928b78" fill-rule="nonzero" stroke="#000000" stroke-width="1" stroke-linecap="round"/><path d="M74.69809,217.61115l-16.175,-0.13981l-1.4516,-7.16504l16.58974,-0.15379z" fill="#928b78" fill-rule="nonzero" stroke="#000000" stroke-width="1" stroke-linecap="round"/><path d="M189.82375,199.23758l2.01613,10.16234l-168.16349,-0.25836l0.54985,-10.04177z" fill="#38ff00" fill-rule="nonzero" stroke="#000000" stroke-width="1" stroke-linecap="round"/><path d="M189.13717,199.28214l-180.02951,-0.23113l-6.82489,-1.22497l192.94147,0.64715l16.23217,1.50232l104.09493,0.06934l-2.21348,0.90139l-105.01721,-0.20801l-18.69159,0.06934z" fill="#8b8471" fill-rule="nonzero" stroke="#000000" stroke-width="1" stroke-linecap="round"/><path d="M314.07569,202.18854l-2.21348,-0.50848l139.69503,0.11556l-6.64043,0.71649l-129.36547,-0.25424" fill="#8b8471" fill-rule="nonzero" stroke="#000000" stroke-width="1" stroke-linecap="round"/><path d="M283.087,203.2055l52.1397,0.11556l-0.84551,0.60093l-50.16685,-0.09245z" fill="#8b8471" fill-rule="nonzero" stroke="#000000" stroke-width="1" stroke-linecap="round"/><path d="M425.73335,203.64464l63.69896,-0.25424l-5.16478,0.83205l-58.04231,0.04622z" fill="#8b8471" fill-rule="nonzero" stroke="#000000" stroke-width="1" stroke-linecap="round"/><path d="M456.59904,209.48057l-171.91343,-0.15702v-4.71047h51.34039v2.71974l90.70547,0.11478l-1.12111,-2.35786l30.98869,0.13458z" fill="#262626" fill-rule="nonzero" stroke="#000000" stroke-width="1" stroke-linecap="round"/><path d="M279.64481,209.99482l-0.73782,-0.7396l356.43138,0.1849l-3.93507,0.85517l-174.98871,-0.13868z" fill="#8b8471" fill-rule="nonzero" stroke="#000000" stroke-width="1" stroke-linecap="round"/><path d="M426.59513,202.44278l1.22971,5.03855l-92.22823,-0.20801l-0.49189,-4.99232z" fill="#38ff00" fill-rule="nonzero" stroke="#000000" stroke-width="1" stroke-linecap="round"/><path d="M352.51246,203.16033l56.1736,-0.02581l1.09875,3.61396l-57.82173,-0.07744z" fill="#515a61" fill-rule="nonzero" stroke="#000000" stroke-width="1" stroke-linecap="round"/><path d="M212.04412,212.02421h59.05783l0.54937,7.5722l-62.90345,-0.05163l0.27469,-7.58608z" fill="#ff0000" fill-rule="nonzero" stroke="#000000" stroke-width="1" stroke-linecap="round"/><path d="M226.19052,212.00064h32.13844l0.82407,7.58931l-33.78657,-0.01291l0.13735,-7.64417z" fill="#2d0d0e" fill-rule="nonzero" stroke="#000000" stroke-width="1" stroke-linecap="round"/><path d="M271.17061,217.24733h228.86105v2.92021l-218.75429,0.33236l-0.13735,-0.95512l-9.47672,0.01291l-0.27469,-2.23291" fill="#807165" fill-rule="nonzero" stroke="#000000" stroke-width="1" stroke-linecap="round"/><path d="M46.78059,209.25468l0.27469,10.27719l-23.89782,0.07744l0.68672,-10.45466l22.93641,0.01291z" fill="#807165" fill-rule="nonzero" stroke="#000000" stroke-width="1" stroke-linecap="round"/><path d="M173.27421,209.30953h18.02637l0.17168,10.24493l-17.44266,0.01613z" fill="#807165" fill-rule="nonzero" stroke="#000000" stroke-width="1" stroke-linecap="round"/><path d="M298.53173,220.46117v-7.43443l173.05315,0.01291l0.27469,7.18919z" fill="#928b78" fill-rule="nonzero" stroke="#000000" stroke-width="1" stroke-linecap="round"/><path d="M304.54052,220.49022l-0.41203,-7.03431l160.17717,0.01291l0.41203,6.77294z" fill="#38ff00" fill-rule="nonzero" stroke="#000000" stroke-width="1" stroke-linecap="round"/><path d="M500.11805,220.24176l-0.96141,-7.13434l79.96841,0.02581l-0.96141,7.0085z" fill="#928b78" fill-rule="nonzero" stroke="#000000" stroke-width="1" stroke-linecap="round"/><path d="M502.38422,220.29338v-6.7439l68.91224,0.02581l-1.2361,6.57934z" fill="#38ff00" fill-rule="nonzero" stroke="#000000" stroke-width="1" stroke-linecap="round"/><path d="M301.66093,206.29996l-2.33484,0.38721l-4.25766,-0.01291l-11.26219,-2.01349l-126.90565,-0.16779l-4.25766,-0.70988l137.89315,0.06453z" fill="#8b8471" fill-rule="nonzero" stroke="#000000" stroke-width="1" stroke-linecap="round"/><path d="M140.55206,200.07135l1.64812,5.54355l-77.49622,-0.01291l-0.27469,-5.75007z" fill="#515a61" fill-rule="nonzero" stroke="#000000" stroke-width="1" stroke-linecap="round"/><path d="M128.63749,217.23443l-43.12595,-0.11616l1.09875,-6.73422l41.7525,0.10326z" fill="#515a61" fill-rule="nonzero" stroke="#000000" stroke-width="1" stroke-linecap="round"/><path d="M71.7219,217.32478l-10.71282,-0.12907l-0.9614,-6.61483l10.9875,-0.14198z" fill="#515a61" fill-rule="nonzero" stroke="#000000" stroke-width="1" stroke-linecap="round"/><path d="M144.01997,210.55829l22.79906,0.05163v6.51803l-23.89781,0.05163l0.27469,-6.61806z" fill="#515a61" fill-rule="nonzero" stroke="#000000" stroke-width="1" stroke-linecap="round"/></g><path d="M266.7374,205.63978c-0.06886,0.0994 0.00324,0.19445 0.21652,0.28512c-0.01299,0.01191 -0.08508,0.01921 -0.21652,0.02193c-0.28406,-0.10567 -0.28406,-0.20803 0,-0.30705z" data-paper-data="{&quot;index&quot;:null}" fill="#9e9e9e" fill-rule="evenodd" stroke="none" stroke-width="0" stroke-linecap="butt"/><path d="M241.93693,205.06911h5.67459v0.62216l-0.94576,-0.53327z" fill="#736d42" fill-rule="evenodd" stroke="none" stroke-width="0" stroke-linecap="butt"/><path d="M210.38099,206.19346c0.2303,0 0.42369,0.00374 0.58609,0.01002c2.53071,-0.31394 6.76151,-0.4737 10.81448,-0.46859c0.68051,0.00086 5.0493,0.03796 5.75233,0.08951c1.54118,0.113 2.05379,0.32463 3.14937,0.48219c4.54198,0.65318 5.31977,1.32646 0.40807,1.98213c-3.45876,0.19582 -6.25406,0.3704 -10.36086,0.3615c-11.63946,-0.02523 -14.77262,-1.35673 -11.71253,-2.28738l-0.07372,-0.02384c0,0 0,-0.14554 1.43679,-0.14554zM211.44232,206.55704c-1.92196,0.73041 0.10682,1.78994 9.27893,1.80209c3.39694,0.0045 5.58728,-0.13499 8.48976,-0.29053c3.8961,-0.53616 2.73031,-1.07785 -0.87536,-1.59415c-0.91642,-0.13122 -1.22531,-0.31211 -2.46377,-0.41259c-1.08144,-0.08774 -2.75641,-0.03252 -4.14159,-0.03593c-3.39953,-0.00837 -7.58619,0.14402 -9.17377,0.45362c0,0 -0.39092,0.07128 -1.1142,0.07749z" data-paper-data="{&quot;index&quot;:null}" fill="#75dbff" fill-rule="nonzero" stroke="none" stroke-width="0" stroke-linecap="butt"/><path d="M212.51175,206.47589c1.58757,-0.3096 5.82161,-0.46415 9.22113,-0.45578c1.38519,0.00341 3.07981,-0.05137 4.16125,0.03638c1.23847,0.10048 1.56604,0.28265 2.48244,0.41387c3.60566,0.5163 4.76937,1.06637 0.8733,1.60253c-2.9025,0.15554 -5.13411,0.29656 -8.53104,0.29206c-9.17211,-0.01216 -11.24699,-1.08062 -9.32505,-1.81103c0.72328,-0.00622 1.11795,-0.07802 1.11795,-0.07802z" data-paper-data="{&quot;noHover&quot;:false,&quot;origItem&quot;:[&quot;Path&quot;,{&quot;applyMatrix&quot;:true,&quot;segments&quot;:[[[409.4867,271.35519],[1.25852,-0.10678],[-3.34423,12.54639]],[[425.63199,302.31001],[-15.95943,-0.20878],[5.91067,0.07732]],[[440.40413,297.31952],[-5.05034,2.67171],[6.7792,-9.20965]],[[438.881,269.93654],[6.27385,8.86861],[-1.59451,-2.25397]],[[434.59405,262.84941],[2.15492,1.72602],[-1.88172,-1.50719]],[[427.3877,262.23225],[2.4102,0.05859],[-5.91515,-0.1438]],[[411.4254,270.0241],[2.76238,-5.31806],[0,0]]],&quot;closed&quot;:true}],&quot;index&quot;:null}" fill="#ff0000" fill-rule="nonzero" stroke="none" stroke-width="0" stroke-linecap="butt"/><path d="M245.01954,206.11063c3.84852,-0.13564 8.09747,0.01459 11.98494,0.15837c0.91883,0.03398 4.11387,0.13202 4.83263,0.23389c1.73039,0.24524 1.55353,0.64579 1.86624,0.93083c0.29339,0.26744 0.87652,0.52776 -0.91547,0.76336c-3.13895,0.41269 -7.87289,0.56085 -12.60766,0.68843c-2.18712,0.02642 -4.14864,0.09573 -6.1682,-0.05404c-1.21965,-0.09045 -2.41076,-0.39228 -2.99129,-0.52416c-1.9755,-0.44877 -5.16204,-1.0374 -3.48967,-1.55074c0.56682,-0.17398 3.45026,-0.38035 4.44459,-0.53645l1.7368,-0.10183c0,0 0.67433,-0.03752 1.30712,-0.00766zM243.49734,206.48588c-0.98323,0.10741 -3.13818,0.31536 -3.25471,0.36703c-1.04127,0.46169 1.64864,0.93468 3.40689,1.33682c0.13897,0.03179 1.4949,0.36011 2.06621,0.40731c0.92941,0.07679 3.15207,0.0135 3.91093,0.00281c4.20496,-0.1139 7.93205,-0.23458 10.87651,-0.57934c1.22934,-0.14394 0.52019,-0.39543 0.34432,-0.55455c-0.24066,-0.21777 0.00429,-0.58534 -1.23263,-0.77855c-0.70184,-0.10963 -2.38357,-0.10021 -3.59544,-0.14498c-3.45236,-0.12753 -8.2376,-0.33338 -11.46988,-0.08501c0,0 -0.48436,0.03505 -1.05224,0.02844z" data-paper-data="{&quot;index&quot;:null}" fill="#75dbff" fill-rule="nonzero" stroke="none" stroke-width="0" stroke-linecap="butt"/><path d="M244.52013,206.45243c3.23228,-0.24837 8.07575,-0.04256 11.52812,0.08498c1.21186,0.04477 2.90793,0.03655 3.6098,0.14618c1.2369,0.19321 1.00622,0.5645 1.24689,0.78227c0.17584,0.15912 0.87832,0.41346 -0.35105,0.5574c-2.94446,0.34475 -6.7274,0.4685 -10.93239,0.5824c-0.75885,0.01069 -2.99985,0.0735 -3.92924,-0.0033c-0.5713,-0.04721 -1.94448,-0.37673 -2.0835,-0.40852c-1.75824,-0.40214 -4.45661,-0.88225 -3.41535,-1.34394c0.11653,-0.05167 2.2871,-0.26134 3.27032,-0.36875c0.56787,0.0066 1.05636,-0.02872 1.05636,-0.02872z" data-paper-data="{&quot;noHover&quot;:false,&quot;origItem&quot;:[&quot;Path&quot;,{&quot;applyMatrix&quot;:true,&quot;segments&quot;:[[[465.26223,270.13291],[0.98811,0.11339],[-1.71083,1.84504]],[[459.59907,276.43751],[0.20277,-0.88758],[-1.81178,7.93053]],[[465.52703,299.40029],[-3.05933,-6.90758],[0.24182,0.54599]],[[469.12222,306.39679],[-0.99407,-0.81085],[1.61715,1.31908]],[[475.92722,306.44514],[-1.32039,0.18358],[7.31661,-1.95648]],[[494.85229,296.49376],[-5.12332,5.92193],[2.13908,-2.47252]],[[495.45142,286.96818],[0.30597,2.73324],[-0.41874,-3.7406]],[[493.30665,273.59497],[2.15221,3.31878],[-1.22123,-1.88318]],[[487.05062,271.1046],[2.10865,0.76899],[-6.0071,-2.19068]],[[467.0931,269.64433],[5.62415,-4.26625],[0,0]]],&quot;closed&quot;:true}],&quot;index&quot;:null}" fill="#ff0000" fill-rule="nonzero" stroke="none" stroke-width="0" stroke-linecap="butt"/><path d="M227.49907,207.26382c0,-0.12861 1.02922,-0.23287 2.29886,-0.23287c1.26963,0 2.29886,0.10426 2.29886,0.23287c0,0.12861 -1.02923,0.23287 -2.29886,0.23287c-1.26963,0 -2.29886,-0.10426 -2.29886,-0.23287z" data-paper-data="{&quot;index&quot;:null}" fill="#ff0000" fill-rule="nonzero" stroke="none" stroke-width="0" stroke-linecap="butt"/><path d="M256.87772,207.4905c0,-0.12861 1.02922,-0.23287 2.29886,-0.23287c1.26963,0 2.29886,0.10426 2.29886,0.23287c0,0.12861 -1.02923,0.23287 -2.29886,0.23287c-1.26963,0 -2.29886,-0.10426 -2.29886,-0.23287z" data-paper-data="{&quot;index&quot;:null}" fill="#ff0000" fill-rule="nonzero" stroke="none" stroke-width="0" stroke-linecap="butt"/><path d="M184.59694,201.94308c0.63758,-0.09688 1.59397,-0.03229 1.59397,-0.03229l0.46863,0.03165c5.08723,0.34355 9.93164,0.71086 14.79435,1.08616c10.70547,0.82623 22.50179,1.56341 32.03877,2.52948c0,0 0.81277,0.08233 0,0.16466c-0.81277,0.08233 -1.62554,0 -1.62554,0c-9.4608,-0.95835 -21.18593,-1.68923 -31.80643,-2.50891c-4.82446,-0.37235 -9.62926,-0.7368 -14.67633,-1.07763l-0.46862,-0.03165c0,0 -0.95639,-0.06458 -0.3188,-0.16146z" data-paper-data="{&quot;index&quot;:null}" fill="#75dbff" fill-rule="nonzero" stroke="none" stroke-width="0" stroke-linecap="butt"/><path d="M293.74984,200.53506c0.9742,0.06179 0.36424,0.16048 0.36424,0.16048l-0.6537,0.10532c-6.33538,0.78562 -13.97532,1.41564 -20.86271,2.14506c-9.46756,1.00268 -18.69518,2.06558 -29.05475,2.96919c0,0 -0.87272,0.07577 -1.62074,-0.01263c-0.74803,-0.0884 0.12467,-0.16417 0.12467,-0.16417c10.33337,-0.89266 19.48516,-1.95735 28.88952,-2.95334c6.81246,-0.72149 14.37909,-1.34406 20.65648,-2.11989l0.57281,-0.09311c0,0 0.60998,-0.09868 1.58423,-0.03689z" data-paper-data="{&quot;index&quot;:null}" fill="#75dbff" fill-rule="nonzero" stroke="none" stroke-width="0" stroke-linecap="butt"/><path d="M201.44566,208.81959c-0.14647,-0.0101 -0.26958,-0.02709 -0.26958,-0.05565c0,-0.07048 0.75,-0.07048 0.75,-0.07048l1.02909,0.07048c0,0.35648 -1.06045,0.63801 -1.8238,0.98174c-0.90828,0.40898 1.29971,0.87951 3.95633,1.18289c2.14412,0.14282 4.37366,0.17286 6.75419,0.26194c6.36138,0.23805 12.10192,0.25837 18.8348,0.32258c9.49173,-0.00058 20.24092,0.01135 28.74321,-0.44543c8.09985,-0.43276 6.6588,-1.33576 5.53708,-2.07081c0,0 -0.10607,-0.06977 0.63639,-0.07974c0.74246,-0.00997 0.84853,0.05981 0.84853,0.05981c1.21306,0.80129 2.44753,1.7424 -6.2778,2.21313c-8.76097,0.47025 -19.77932,0.46439 -29.56275,0.46383c-6.89883,-0.06496 -12.81101,-0.08993 -19.33349,-0.33313c-2.55417,-0.09524 -4.89917,-0.13344 -7.2006,-0.28885c-3.05011,-0.34039 -5.34133,-0.8485 -4.41654,-1.30879c0.64138,-0.31923 1.68468,-0.58043 1.79493,-0.90351z" fill="#75dbff" fill-rule="nonzero" stroke="none" stroke-width="0.5" stroke-linecap="butt"/></g></g></g></svg>