<svg version="1.1" xmlns="http://www.w3.org/2000/svg" xmlns:xlink="http://www.w3.org/1999/xlink" width="2878.25006" height="1619.57958" viewBox="0,0,2878.25006,1619.57958"><g transform="translate(1117.37278,629.80931)"><g data-paper-data="{&quot;isPaintingLayer&quot;:true}" stroke-linejoin="miter" stroke-miterlimit="10" stroke-dasharray="" stroke-dashoffset="0" style="mix-blend-mode: normal"><path d="M-1117.37278,989.77027v-1619.57958h2878.25006v1619.57958z" fill="none" fill-rule="nonzero" stroke="#000000" stroke-width="0" stroke-linecap="butt"/><g><path d="M371.77626,272.8108l-19.76914,-21.48092l93.69715,0.12424l33.57674,21.28097z" data-paper-data="{&quot;index&quot;:null}" fill="#cedce9" fill-rule="nonzero" stroke="#000000" stroke-width="0" stroke-linecap="round"/><path d="M488.1911,271.61176c-2.53537,0.23741 -5.02815,0.37397 -7.49601,0.47292c0.01679,0.03619 0.02551,0.07392 0.02559,0.11331c0.00194,0.95935 -5.1608,0.96298 -5.1608,0.96298c-22.80221,0.01606 -45.60433,0.03212 -68.40647,0.04819c-5.86765,0.00414 -20.46882,-0.42082 -24.79534,0.15602c-2.49217,0.33228 -4.27685,0.30081 -7.47097,0.34638c-0.36051,0.00514 -1.01625,0.01608 -1.59566,0.0229c3.08953,0.40756 1.60419,4.19518 1.60635,5.25356c0.00908,4.47701 0.01812,8.954 0.0272,13.43103c0.0016,0.79946 0.00322,1.59894 0.00485,2.3984c0.00065,0.31979 -0.90552,1.23166 0.00194,0.95937c3.45256,-1.03593 10.19566,-0.48501 18.06866,-0.49241c15.51938,-0.0146 32.13396,-0.33469 47.37744,0.17339c27.83585,1.01482 57.75828,-0.65895 85.37226,0.47411c23.25749,1.06396 51.09544,1.14171 75.05495,1.12484c6.02327,-0.00423 12.04642,-0.00848 18.06966,-0.01271c0.90625,-0.00063 2.32912,-0.02431 3.80233,-0.05022c-1.48298,-0.4911 0.06626,-1.68232 0.06491,-2.35092c-0.00505,-2.49773 4.49192,-6.80948 -1.04401,-9.04964c-4.89362,-2.72152 -7.99102,-5.34292 -15.97006,-8.05492c-5.88716,-2.00102 -15.04909,-3.77196 -19.9208,-5.76033c-2.3623,-1.18544 -4.47318,-0.33553 -12.15878,-0.60486c-17.00624,-0.59595 -34.0612,-0.45569 -51.62851,-0.44332c-6.4034,0.00451 -14.44505,0.25177 -20.65104,0.01454c-1.31004,-0.05007 -3.77221,-0.23791 -5.6178,-0.39187c3.37603,0.48218 -4.32441,0.95631 -7.55991,1.25926zM407.1492,271.29047c17.23319,-0.01215 34.46634,-0.02429 51.69948,-0.03642c0.49704,-0.04654 0.99398,-0.09306 1.49101,-0.13961c6.54685,-0.613 12.45893,-0.45595 18.06825,-0.73224c7.64435,-0.37655 12.21475,-1.62978 20.10212,-1.93288c4.53093,-0.17412 17.08239,0.36637 23.50567,0.36184c17.41699,-0.01227 34.81452,-0.20958 51.62851,0.44332c9.44543,0.36678 17.42579,-0.36686 21.84711,1.85189c0.65281,0.84356 5.86528,1.36739 8.59232,2.01474c4.16756,0.9893 7.65219,2.45635 10.87776,3.55267c7.99617,2.71781 11.5153,5.51649 16.53092,8.30586c4.48318,2.94078 1.56901,6.59345 1.5752,9.65603c0.00344,1.69318 1.44189,2.88553 -5.15399,4.32076c-2.30007,0.50048 -23.55962,0.01659 -27.10445,0.01909c-24.71307,0.01741 -53.58879,-0.0838 -77.5594,-1.18038c-26.33426,-1.41167 -57.67394,0.53792 -84.8929,-0.45442c-21.93438,-0.90254 -55.78304,1.56676 -73.75043,-1.55661c-1.77886,-0.30925 -0.00578,-2.84653 -0.00681,-3.35776c-0.00908,-4.47701 -0.01812,-8.954 -0.0272,-13.43103c-0.00301,-1.49682 -3.56112,-5.06807 1.82327,-6.1865c9.39607,-1.95174 26.98922,-1.50868 40.75383,-1.51837z" data-paper-data="{&quot;index&quot;:null}" fill="#000000" fill-rule="nonzero" stroke="none" stroke-width="0" stroke-linecap="butt"/><path d="M480.62287,272.03862c2.46783,-0.09893 4.99065,-0.23679 7.52614,-0.4742c3.23549,-0.30294 10.96657,-0.77768 7.59043,-1.25984c1.84557,0.15396 4.3283,0.34177 5.63821,0.39185c6.206,0.23722 14.31973,-0.00768 20.72296,-0.01219c17.56722,-0.01237 34.73294,-0.13925 51.73914,0.45669c7.68559,0.26933 9.81249,-0.57695 12.17477,0.60848c4.87175,1.98835 14.0724,3.77357 19.95963,5.77459c7.97906,2.71197 11.08711,5.35161 15.98073,8.07312c5.53599,2.24018 1.01478,6.56854 1.01984,9.06627c0.00134,0.6686 -1.55753,1.86322 -0.07451,2.35431c-1.47309,0.0259 -2.89793,0.05019 -3.80425,0.05084c-6.02325,0.00424 -12.05696,0.0115 -18.0802,0.01574c-23.95963,0.01687 -51.91057,-0.04411 -75.16808,-1.10806c-27.61399,-1.13307 -57.80997,0.5316 -85.64586,-0.48322c-15.24347,-0.50808 -31.90507,-0.19889 -47.42446,-0.18431c-7.87299,0.00741 -14.62221,-0.54557 -18.07478,0.49035c-0.90746,0.27227 -0.00517,-0.64099 -0.00583,-0.96079c-0.00162,-0.79945 -0.01208,-1.60281 -0.01371,-2.40227c-0.00904,-4.47702 -0.02892,-8.98063 -0.038,-13.45765c-0.00216,-1.05839 1.49884,-4.85518 -1.59071,-5.26275c0.57949,-0.00686 1.2357,-0.01801 1.59627,-0.02317c3.19401,-0.04554 4.98276,-0.01569 7.47484,-0.34796c4.32652,-0.57683 18.94091,-0.15636 24.80854,-0.16049c22.80227,-0.01606 45.7259,-0.05127 68.52805,-0.06734c0,0 5.18809,-0.00528 5.18615,-0.96465c-0.00008,-0.03937 -0.0082,-0.07714 -0.025,-0.11334z" data-paper-data="{&quot;noHover&quot;:false,&quot;origItem&quot;:[&quot;Path&quot;,{&quot;applyMatrix&quot;:true,&quot;segments&quot;:[[[579.60736,595.76373],[0.95609,-0.20262],[0.00646,0.07548]],[[579.61718,596],[0,-0.08208],[0,2]],[[577.61718,598],[0,0],[-8.83333,0]],[[551.11718,598],[8.83333,0],[-2.27308,0]],[[541.51161,598.28885],[1.67648,-1.19621],[-0.96568,0.68904]],[[538.61718,599],[1.23739,-0.09027],[-0.13966,0.01019]],[[537.99901,599.04541],[0.22447,-0.0134],[1.19653,0.85421]],[[538.61718,610],[0,-2.20646],[0,9.33333]],[[538.61718,638],[0,-9.33333],[0,1.66667]],[[538.61718,643],[0,-1.66667],[0,0.66667]],[[538.61718,645],[-0.35177,0.56631],[1.33831,-2.15456]],[[545.61718,644],[-3.04994,0.00386],[6.01206,-0.00761]],[[563.97058,644.43107],[-5.90478,-1.08158],[10.78253,2.15651]],[[597.04254,645.54479],[-10.6965,-2.40266],[9.00888,2.25222]],[[626.11718,648],[-9.28168,0],[2.33333,0]],[[633.11718,648],[-2.33333,0],[0.35109,0]],[[634.59021,647.90091],[-0.5707,0.05184],[-0.57412,-1.02596]],[[634.61718,643],[0,1.39387],[0,-5.20707]],[[634.21982,624.13246],[2.14282,4.67827],[-1.8936,-5.6808]],[[628.03948,607.31672],[3.08887,5.66543],[-2.2791,-4.1802]],[[620.32688,595.27881],[1.8857,4.15235],[-0.91417,-2.47477]],[[615.61718,594],[2.9771,0.57275],[-6.58756,-1.26734]],[[595.61718,593],[6.8054,0],[-2.48058,0]],[[587.61718,593],[2.40395,0.50364],[-0.50743,-0.10631]],[[585.44122,592.1748],[0.71481,0.32365],[1.30749,1.01011]],[[582.51161,594.78885],[1.25365,-0.62682],[-0.98239,0.4912]]],&quot;closed&quot;:true}],&quot;index&quot;:null}" fill="#c9c9c9" fill-rule="nonzero" stroke="none" stroke-width="0" stroke-linecap="butt"/><path d="M553.00602,275.5048c-0.00023,-0.11124 -0.0721,-0.29749 -0.14082,-0.48046c-0.26581,0.07446 -0.66232,0.13804 -1.17233,0.19226c-1.52905,0.2902 -3.84966,0.29183 -3.84966,0.29183c-19.66498,0.01385 -31.018,2.56864 -37.9644,5.25259c-0.81722,0.30453 -0.74424,0.67069 -0.74355,1.01051c0.00019,0.0967 -0.04928,0.25039 -0.10333,0.40937c0.05187,-0.05119 0.18162,-0.09334 0.44583,-0.12053c1.16745,-0.12009 11.32048,0.6026 12.5653,0.18177c0.37411,-0.12647 -1.83653,-0.1487 -1.71489,-0.29111c1.49592,-1.7508 17.39306,-4.40863 25.20886,-5.14048c2.02712,-0.18981 4.30933,-0.2862 6.5782,-0.33121c-0.88762,-0.25609 0.89142,-0.65029 0.89075,-0.97452zM509.00481,282.26033c-0.11636,0.34115 -0.21964,0.66724 0.1323,0.47057c0.24055,-0.13439 -0.1075,-0.32258 -0.1323,-0.47057zM500.64169,279.90945c7.37339,-2.59001 17.18205,-4.95377 32.47316,-5.89218c1.43576,-0.41819 4.39899,-0.42028 4.39899,-0.42028l2.58133,-0.00181c5.84505,-0.00411 8.93666,-0.38469 15.21502,-0.3891c8.71911,-0.00614 10.7468,3.21415 6.18928,4.16085c-2.87593,0.59739 -7.49058,0.79599 -11.34132,1.15655c-11.39829,1.06727 -15.62223,4.11408 -28.11122,5.6374c-13.23673,1.6145 -27.82001,-1.86108 -21.40526,-4.2514z" data-paper-data="{&quot;index&quot;:null}" fill="#000000" fill-rule="nonzero" stroke="none" stroke-width="0" stroke-linecap="butt"/><path d="M553.05695,274.99207c0.0689,0.18297 0.15272,0.37187 0.15293,0.48311c0.00065,0.32422 -1.75717,0.72431 -0.86956,0.98044c-2.2689,0.04502 -4.56421,0.1375 -6.59138,0.32732c-7.81589,0.73185 -23.78979,3.37631 -25.28565,5.12711c-0.12176,0.14242 1.84386,0.24908 1.46973,0.37554c-1.24485,0.42082 -11.48582,-0.31442 -12.6533,-0.19433c-0.2643,0.02719 -0.39279,0.06955 -0.44459,0.12079c0.05405,-0.15899 0.09394,-0.31487 0.09375,-0.41156c-0.00068,-0.33981 -0.09624,-0.71264 0.72101,-1.01717c6.94633,-2.68395 18.70926,-5.29536 38.37421,-5.30922c0,0 2.33114,0.00041 3.86018,-0.28978c0.51004,-0.05423 0.90682,-0.11781 1.17243,-0.19226z" data-paper-data="{&quot;noHover&quot;:false,&quot;origItem&quot;:[&quot;Path&quot;,{&quot;applyMatrix&quot;:true,&quot;segments&quot;:[[[607.563,601.99816],[0.02649,0.38155],[-0.10299,0.15484]],[[607.10872,602.39727],[0.1976,-0.11227],[-0.59254,0.60273]],[[605.61718,603],[0,0],[-7.618,0]],[[590.90604,613.89443],[2.69308,-5.58508],[-0.31682,0.63364]],[[590.61718,616],[0,-0.70843],[0,0.20156]],[[590.57685,616.85325],[0.02106,-0.33136],[0.02013,-0.10671]],[[590.74964,616.60263],[-0.10238,0.05628],[0.45234,-0.24865]],[[595.61718,617],[-0.48256,0.87548],[0.14503,-0.26312]],[[594.95308,616.3906],[-0.04725,0.29671],[0.58086,-3.64773]],[[604.72276,605.71115],[-3.02833,1.51416],[0.78545,-0.39273]],[[607.27135,605.03032],[-0.87898,0.0905],[-0.34365,-0.53523]],[[607.61718,603],[0,0.6759],[0,-0.23192]]],&quot;closed&quot;:true}],&quot;index&quot;:null}" fill="#ffffff" fill-rule="nonzero" stroke="none" stroke-width="0" stroke-linecap="butt"/><path d="M371.77627,272.8108l-19.76914,-21.48092l93.69715,0.12424l33.57674,21.28097z" data-paper-data="{&quot;index&quot;:null}" fill="#cedce9" fill-rule="nonzero" stroke="#000000" stroke-width="0" stroke-linecap="round"/><path d="M488.1911,271.61176c-2.53537,0.23741 -5.02815,0.37397 -7.49601,0.47292c0.01679,0.03619 0.02551,0.07392 0.02559,0.11331c0.00194,0.95935 -5.1608,0.96298 -5.1608,0.96298c-22.80221,0.01606 -45.60433,0.03212 -68.40647,0.04819c-5.86765,0.00414 -20.46882,-0.42082 -24.79534,0.15602c-2.49217,0.33228 -4.27685,0.30081 -7.47097,0.34638c-0.36051,0.00514 -1.01625,0.01608 -1.59566,0.0229c3.08953,0.40756 1.60419,4.19518 1.60635,5.25356c0.00908,4.47701 0.01812,8.954 0.0272,13.43103c0.0016,0.79946 0.00322,1.59894 0.00485,2.3984c0.00065,0.31979 -0.90552,1.23166 0.00194,0.95937c3.45256,-1.03593 10.19566,-0.48501 18.06866,-0.49241c15.51938,-0.0146 32.13396,-0.33469 47.37744,0.17339c27.83585,1.01482 57.75828,-0.65895 85.37226,0.47411c23.25749,1.06396 51.09544,1.14171 75.05495,1.12484c6.02327,-0.00423 12.04642,-0.00848 18.06966,-0.01271c0.90625,-0.00063 2.32912,-0.02431 3.80233,-0.05022c-1.48298,-0.4911 0.06626,-1.68232 0.06491,-2.35092c-0.00505,-2.49773 4.49192,-6.80948 -1.04401,-9.04964c-4.89362,-2.72152 -7.99102,-5.34292 -15.97006,-8.05492c-5.88716,-2.00102 -15.04909,-3.77196 -19.9208,-5.76033c-2.3623,-1.18544 -4.47318,-0.33553 -12.15878,-0.60486c-17.00624,-0.59595 -34.0612,-0.45569 -51.62851,-0.44332c-6.4034,0.00451 -14.44505,0.25177 -20.65104,0.01454c-1.31004,-0.05007 -3.77221,-0.23791 -5.6178,-0.39187c3.37603,0.48218 -4.32441,0.95631 -7.55991,1.25926zM407.14921,271.29047c17.23319,-0.01215 34.46634,-0.02429 51.69948,-0.03642c0.49704,-0.04654 0.99398,-0.09306 1.49101,-0.13961c6.54685,-0.613 12.45893,-0.45595 18.06825,-0.73224c7.64435,-0.37655 12.21475,-1.62978 20.10212,-1.93288c4.53093,-0.17412 17.08239,0.36637 23.50567,0.36184c17.41699,-0.01227 34.81452,-0.20958 51.62851,0.44332c9.44543,0.36678 17.42579,-0.36686 21.84711,1.85189c0.65281,0.84356 5.86528,1.36739 8.59232,2.01474c4.16756,0.9893 7.65219,2.45635 10.87776,3.55267c7.99617,2.71781 11.5153,5.51649 16.53092,8.30586c4.48318,2.94078 1.56901,6.59345 1.5752,9.65603c0.00344,1.69318 1.44189,2.88553 -5.15399,4.32076c-2.30007,0.50048 -23.55962,0.01659 -27.10445,0.01909c-24.71307,0.01741 -53.58879,-0.0838 -77.5594,-1.18038c-26.33426,-1.41167 -57.67394,0.53792 -84.8929,-0.45442c-21.93438,-0.90254 -55.78304,1.56676 -73.75043,-1.55661c-1.77886,-0.30925 -0.00578,-2.84653 -0.00681,-3.35776c-0.00908,-4.47701 -0.01812,-8.954 -0.0272,-13.43103c-0.00301,-1.49682 -3.56112,-5.06807 1.82327,-6.1865c9.39607,-1.95174 26.98922,-1.50868 40.75383,-1.51837z" data-paper-data="{&quot;index&quot;:null}" fill="#000000" fill-rule="nonzero" stroke="none" stroke-width="0" stroke-linecap="butt"/><path d="M480.62287,272.03862c2.46783,-0.09893 4.99065,-0.23679 7.52614,-0.4742c3.23549,-0.30294 10.96657,-0.77768 7.59043,-1.25984c1.84557,0.15396 4.3283,0.34177 5.63821,0.39185c6.206,0.23722 14.31973,-0.00768 20.72296,-0.01219c17.56722,-0.01237 34.73294,-0.13925 51.73914,0.45669c7.68559,0.26933 9.81249,-0.57695 12.17477,0.60848c4.87175,1.98835 14.0724,3.77357 19.95963,5.77459c7.97906,2.71197 11.08711,5.35161 15.98073,8.07312c5.53599,2.24018 1.01478,6.56854 1.01984,9.06627c0.00134,0.6686 -1.55753,1.86322 -0.07451,2.35431c-1.47309,0.0259 -2.89793,0.05019 -3.80425,0.05084c-6.02325,0.00424 -12.05696,0.0115 -18.0802,0.01574c-23.95963,0.01687 -51.91057,-0.04411 -75.16808,-1.10806c-27.61399,-1.13307 -57.80997,0.5316 -85.64586,-0.48322c-15.24347,-0.50808 -31.90507,-0.19889 -47.42446,-0.18431c-7.87299,0.00741 -14.62221,-0.54557 -18.07478,0.49035c-0.90746,0.27227 -0.00517,-0.64099 -0.00583,-0.96079c-0.00162,-0.79945 -0.01208,-1.60281 -0.01371,-2.40227c-0.00904,-4.47702 -0.02892,-8.98063 -0.038,-13.45765c-0.00216,-1.05839 1.49884,-4.85518 -1.59071,-5.26275c0.57949,-0.00686 1.2357,-0.01801 1.59627,-0.02317c3.19401,-0.04554 4.98276,-0.01569 7.47484,-0.34796c4.32652,-0.57683 18.94091,-0.15636 24.80854,-0.16049c22.80227,-0.01606 45.7259,-0.05127 68.52805,-0.06734c0,0 5.18809,-0.00528 5.18615,-0.96465c-0.00008,-0.03937 -0.0082,-0.07714 -0.025,-0.11334z" data-paper-data="{&quot;noHover&quot;:false,&quot;origItem&quot;:[&quot;Path&quot;,{&quot;applyMatrix&quot;:true,&quot;segments&quot;:[[[579.60736,595.76373],[0.95609,-0.20262],[0.00646,0.07548]],[[579.61718,596],[0,-0.08208],[0,2]],[[577.61718,598],[0,0],[-8.83333,0]],[[551.11718,598],[8.83333,0],[-2.27308,0]],[[541.51161,598.28885],[1.67648,-1.19621],[-0.96568,0.68904]],[[538.61718,599],[1.23739,-0.09027],[-0.13966,0.01019]],[[537.99901,599.04541],[0.22447,-0.0134],[1.19653,0.85421]],[[538.61718,610],[0,-2.20646],[0,9.33333]],[[538.61718,638],[0,-9.33333],[0,1.66667]],[[538.61718,643],[0,-1.66667],[0,0.66667]],[[538.61718,645],[-0.35177,0.56631],[1.33831,-2.15456]],[[545.61718,644],[-3.04994,0.00386],[6.01206,-0.00761]],[[563.97058,644.43107],[-5.90478,-1.08158],[10.78253,2.15651]],[[597.04254,645.54479],[-10.6965,-2.40266],[9.00888,2.25222]],[[626.11718,648],[-9.28168,0],[2.33333,0]],[[633.11718,648],[-2.33333,0],[0.35109,0]],[[634.59021,647.90091],[-0.5707,0.05184],[-0.57412,-1.02596]],[[634.61718,643],[0,1.39387],[0,-5.20707]],[[634.21982,624.13246],[2.14282,4.67827],[-1.8936,-5.6808]],[[628.03948,607.31672],[3.08887,5.66543],[-2.2791,-4.1802]],[[620.32688,595.27881],[1.8857,4.15235],[-0.91417,-2.47477]],[[615.61718,594],[2.9771,0.57275],[-6.58756,-1.26734]],[[595.61718,593],[6.8054,0],[-2.48058,0]],[[587.61718,593],[2.40395,0.50364],[-0.50743,-0.10631]],[[585.44122,592.1748],[0.71481,0.32365],[1.30749,1.01011]],[[582.51161,594.78885],[1.25365,-0.62682],[-0.98239,0.4912]]],&quot;closed&quot;:true}],&quot;index&quot;:null}" fill="#c9c9c9" fill-rule="nonzero" stroke="none" stroke-width="0" stroke-linecap="butt"/><path d="M553.00603,275.5048c-0.00023,-0.11124 -0.0721,-0.29749 -0.14082,-0.48046c-0.26581,0.07446 -0.66232,0.13804 -1.17233,0.19226c-1.52905,0.2902 -3.84966,0.29183 -3.84966,0.29183c-19.66498,0.01385 -31.018,2.56864 -37.9644,5.25259c-0.81722,0.30453 -0.74424,0.67069 -0.74355,1.01051c0.00019,0.0967 -0.04928,0.25039 -0.10333,0.40937c0.05187,-0.05119 0.18162,-0.09334 0.44583,-0.12053c1.16745,-0.12009 11.32048,0.6026 12.5653,0.18177c0.37411,-0.12647 -1.83653,-0.1487 -1.71489,-0.29111c1.49592,-1.7508 17.39306,-4.40863 25.20886,-5.14048c2.02712,-0.18981 4.30933,-0.2862 6.5782,-0.33121c-0.88762,-0.25609 0.89142,-0.65029 0.89075,-0.97452zM509.00481,282.26033c-0.11636,0.34115 -0.21964,0.66724 0.1323,0.47057c0.24055,-0.13439 -0.1075,-0.32258 -0.1323,-0.47057zM500.64169,279.90945c7.37339,-2.59001 17.18205,-4.95377 32.47316,-5.89218c1.43576,-0.41819 4.39899,-0.42028 4.39899,-0.42028l2.58133,-0.00181c5.84505,-0.00411 8.93666,-0.38469 15.21502,-0.3891c8.71911,-0.00614 10.7468,3.21415 6.18928,4.16085c-2.87593,0.59739 -7.49058,0.79599 -11.34132,1.15655c-11.39829,1.06727 -15.62223,4.11408 -28.11122,5.6374c-13.23673,1.6145 -27.82001,-1.86108 -21.40526,-4.2514z" data-paper-data="{&quot;index&quot;:null}" fill="#000000" fill-rule="nonzero" stroke="none" stroke-width="0" stroke-linecap="butt"/><path d="M553.05695,274.99207c0.0689,0.18297 0.15272,0.37187 0.15293,0.48311c0.00065,0.32422 -1.75717,0.72431 -0.86956,0.98044c-2.2689,0.04502 -4.56421,0.1375 -6.59138,0.32732c-7.81589,0.73185 -23.78979,3.37631 -25.28565,5.12711c-0.12176,0.14242 1.84386,0.24908 1.46973,0.37554c-1.24485,0.42082 -11.48582,-0.31442 -12.6533,-0.19433c-0.2643,0.02719 -0.39279,0.06955 -0.44459,0.12079c0.05405,-0.15899 0.09394,-0.31487 0.09375,-0.41156c-0.00068,-0.33981 -0.09624,-0.71264 0.72101,-1.01717c6.94633,-2.68395 18.70926,-5.29536 38.37421,-5.30922c0,0 2.33114,0.00041 3.86018,-0.28978c0.51004,-0.05423 0.90682,-0.11781 1.17243,-0.19226z" data-paper-data="{&quot;noHover&quot;:false,&quot;origItem&quot;:[&quot;Path&quot;,{&quot;applyMatrix&quot;:true,&quot;segments&quot;:[[[607.563,601.99816],[0.02649,0.38155],[-0.10299,0.15484]],[[607.10872,602.39727],[0.1976,-0.11227],[-0.59254,0.60273]],[[605.61718,603],[0,0],[-7.618,0]],[[590.90604,613.89443],[2.69308,-5.58508],[-0.31682,0.63364]],[[590.61718,616],[0,-0.70843],[0,0.20156]],[[590.57685,616.85325],[0.02106,-0.33136],[0.02013,-0.10671]],[[590.74964,616.60263],[-0.10238,0.05628],[0.45234,-0.24865]],[[595.61718,617],[-0.48256,0.87548],[0.14503,-0.26312]],[[594.95308,616.3906],[-0.04725,0.29671],[0.58086,-3.64773]],[[604.72276,605.71115],[-3.02833,1.51416],[0.78545,-0.39273]],[[607.27135,605.03032],[-0.87898,0.0905],[-0.34365,-0.53523]],[[607.61718,603],[0,0.6759],[0,-0.23192]]],&quot;closed&quot;:true}],&quot;index&quot;:null}" fill="#ffffff" fill-rule="nonzero" stroke="none" stroke-width="0" stroke-linecap="butt"/><path d="M164.71899,271.55558l33.57675,-21.28097l93.69714,-0.12424l-19.76914,21.48092z" data-paper-data="{&quot;index&quot;:null}" fill="#cedce9" fill-rule="nonzero" stroke="#000000" stroke-width="0" stroke-linecap="round"/><path d="M155.80894,270.43222c-3.2355,-0.30295 -10.93595,-0.77708 -7.55991,-1.25926c-1.84559,0.15395 -4.30777,0.34181 -5.61781,0.39187c-6.20599,0.23723 -14.24765,-0.01003 -20.65104,-0.01454c-17.56731,-0.01237 -34.62226,-0.15263 -51.62851,0.44332c-7.68561,0.26933 -9.79648,-0.58058 -12.15878,0.60486c-4.8717,1.98837 -14.03364,3.75931 -19.92079,5.76033c-7.97904,2.712 -11.07645,5.3334 -15.97007,8.05492c-5.53593,2.24017 -1.03896,6.55191 -1.04401,9.04964c-0.00135,0.6686 1.54789,1.85981 0.06491,2.35092c1.47321,0.02591 2.89607,0.04959 3.80232,0.05022c6.02324,0.00423 12.04639,0.00848 18.06966,0.01271c23.95951,0.01687 51.79746,-0.06088 75.05494,-1.12485c27.61399,-1.13305 57.53642,0.54072 85.37226,-0.47411c15.24348,-0.50807 31.85806,-0.18799 47.37744,-0.17338c7.87301,0.00739 14.6161,-0.54353 18.06866,0.49241c0.90746,0.2723 0.00129,-0.63957 0.00194,-0.95937c0.00162,-0.79946 0.00325,-1.59894 0.00485,-2.3984c0.00908,-4.47703 0.01812,-8.95402 0.0272,-13.43103c0.00216,-1.05838 -1.48319,-4.846 1.60635,-5.25356c-0.5794,-0.00683 -1.23515,-0.01777 -1.59566,-0.0229c-3.19412,-0.04557 -4.97879,-0.01411 -7.47096,-0.34639c-4.32652,-0.57684 -18.92768,-0.15188 -24.79534,-0.15602c-22.80214,-0.01607 -45.60426,-0.03213 -68.40647,-0.04819c0,0 -5.16274,-0.00364 -5.1608,-0.96298c0.00008,-0.0394 0.0088,-0.07712 0.02559,-0.11331c-2.46787,-0.09894 -4.96064,-0.23551 -7.49601,-0.47292zM236.85053,270.11093c13.76461,0.0097 31.35777,-0.43337 40.75384,1.51837c5.38439,1.11844 1.82628,4.68968 1.82327,6.1865c-0.00907,4.47703 -0.01813,8.95403 -0.0272,13.43104c-0.00103,0.51123 1.77206,3.04852 -0.0068,3.35776c-17.9674,3.12336 -51.81605,0.65407 -73.75043,1.55661c-27.21896,0.99234 -58.55864,-0.95725 -84.8929,0.45442c-23.97061,1.09658 -52.84632,1.19779 -77.55939,1.18038c-3.54483,-0.0025 -24.80439,0.48139 -27.10445,-0.01909c-6.59588,-1.43522 -5.15742,-2.62758 -5.15399,-4.32076c0.00619,-3.06257 -2.90798,-6.71524 1.5752,-9.65603c5.01563,-2.78936 8.53476,-5.58805 16.53093,-8.30586c3.22556,-1.09631 6.71019,-2.56337 10.87776,-3.55267c2.72704,-0.64735 7.9395,-1.17119 8.59231,-2.01474c4.42133,-2.21874 12.40168,-1.48511 21.84711,-1.85189c16.81399,-0.65289 34.21152,-0.45558 51.62851,-0.44332c6.42327,0.00453 18.97474,-0.53596 23.50567,-0.36184c7.88736,0.30311 12.45776,1.55633 20.10211,1.93289c5.60931,0.2763 11.5214,0.11924 18.06825,0.73224c0.49703,0.04654 0.99398,0.09306 1.49101,0.13961c17.23314,0.01213 34.46629,0.02427 51.69948,0.03642z" data-paper-data="{&quot;index&quot;:null}" fill="#000000" fill-rule="nonzero" stroke="none" stroke-width="0" stroke-linecap="butt"/><path d="M163.37679,270.85912c-0.0168,0.0362 -0.02491,0.07397 -0.025,0.11334c-0.00194,0.95937 5.18615,0.96465 5.18615,0.96465c22.80215,0.01607 45.72579,0.05128 68.52805,0.06734c5.86764,0.00414 20.48202,-0.41634 24.80854,0.16049c2.49208,0.33227 4.28083,0.30242 7.47484,0.34796c0.36057,0.00515 1.01678,0.0163 1.59627,0.02317c-3.08955,0.40757 -1.58855,4.20437 -1.59071,5.26275c-0.00907,4.47703 -0.02895,8.98063 -0.03799,13.45765c-0.00163,0.79946 -0.0121,1.60283 -0.01371,2.40227c-0.00066,0.3198 0.90163,1.23307 -0.00583,0.96079c-3.45256,-1.03593 -10.20178,-0.48294 -18.07478,-0.49035c-15.51939,-0.01457 -32.18099,-0.32376 -47.42446,0.18432c-27.83589,1.01482 -58.03187,-0.64985 -85.64586,0.48322c-23.25751,1.06397 -51.20845,1.12494 -75.16808,1.10806c-6.02324,-0.00423 -12.05696,-0.0115 -18.0802,-0.01573c-0.90632,-0.00065 -2.33116,-0.02495 -3.80425,-0.05084c1.48302,-0.49109 -0.07586,-1.68571 -0.07452,-2.35431c0.00506,-2.49773 -4.51614,-6.82609 1.01984,-9.06627c4.89361,-2.7215 8.00167,-5.36114 15.98073,-8.07312c5.88724,-2.00103 15.08788,-3.78624 19.95963,-5.7746c2.36227,-1.18543 4.48917,-0.33915 12.17477,-0.60848c17.00621,-0.59593 34.17192,-0.46905 51.73915,-0.45669c6.40323,0.00451 14.51696,0.24941 20.72296,0.01219c1.30991,-0.05008 3.79264,-0.23789 5.63821,-0.39185c-3.37613,0.48216 4.35494,0.9569 7.59043,1.25984c2.5355,0.23741 5.05832,0.37527 7.52615,0.4742z" data-paper-data="{&quot;noHover&quot;:false,&quot;origItem&quot;:[&quot;Path&quot;,{&quot;applyMatrix&quot;:true,&quot;segments&quot;:[[[579.60736,595.76373],[0.95609,-0.20262],[0.00646,0.07548]],[[579.61718,596],[0,-0.08208],[0,2]],[[577.61718,598],[0,0],[-8.83333,0]],[[551.11718,598],[8.83333,0],[-2.27308,0]],[[541.51161,598.28885],[1.67648,-1.19621],[-0.96568,0.68904]],[[538.61718,599],[1.23739,-0.09027],[-0.13966,0.01019]],[[537.99901,599.04541],[0.22447,-0.0134],[1.19653,0.85421]],[[538.61718,610],[0,-2.20646],[0,9.33333]],[[538.61718,638],[0,-9.33333],[0,1.66667]],[[538.61718,643],[0,-1.66667],[0,0.66667]],[[538.61718,645],[-0.35177,0.56631],[1.33831,-2.15456]],[[545.61718,644],[-3.04994,0.00386],[6.01206,-0.00761]],[[563.97058,644.43107],[-5.90478,-1.08158],[10.78253,2.15651]],[[597.04254,645.54479],[-10.6965,-2.40266],[9.00888,2.25222]],[[626.11718,648],[-9.28168,0],[2.33333,0]],[[633.11718,648],[-2.33333,0],[0.35109,0]],[[634.59021,647.90091],[-0.5707,0.05184],[-0.57412,-1.02596]],[[634.61718,643],[0,1.39387],[0,-5.20707]],[[634.21982,624.13246],[2.14282,4.67827],[-1.8936,-5.6808]],[[628.03948,607.31672],[3.08887,5.66543],[-2.2791,-4.1802]],[[620.32688,595.27881],[1.8857,4.15235],[-0.91417,-2.47477]],[[615.61718,594],[2.9771,0.57275],[-6.58756,-1.26734]],[[595.61718,593],[6.8054,0],[-2.48058,0]],[[587.61718,593],[2.40395,0.50364],[-0.50743,-0.10631]],[[585.44122,592.1748],[0.71481,0.32365],[1.30749,1.01011]],[[582.51161,594.78885],[1.25365,-0.62682],[-0.98239,0.4912]]],&quot;closed&quot;:true}],&quot;index&quot;:null}" fill="#c9c9c9" fill-rule="nonzero" stroke="none" stroke-width="0" stroke-linecap="butt"/><path d="M90.99403,274.32532c-0.00067,0.32423 1.77837,0.71843 0.89076,0.97452c2.26887,0.04501 4.55109,0.1414 6.5782,0.33121c7.8158,0.73184 23.71294,3.38967 25.20885,5.14047c0.12164,0.14241 -2.08899,0.16464 -1.71489,0.29111c1.24482,0.42083 11.39785,-0.30186 12.5653,-0.18177c0.26421,0.02718 0.39396,0.06933 0.44583,0.12052c-0.05406,-0.15898 -0.10352,-0.31267 -0.10333,-0.40937c0.00069,-0.33982 0.07367,-0.70598 -0.74355,-1.01051c-6.9464,-2.68395 -18.29942,-5.23874 -37.9644,-5.25259c0,0 -2.32061,-0.00162 -3.84966,-0.29183c-0.51,-0.05422 -0.90652,-0.11781 -1.17233,-0.19226c-0.06872,0.18297 -0.14059,0.36922 -0.14083,0.48046zM134.86289,281.5514c0.35194,0.19667 0.24865,-0.12942 0.13229,-0.47057c-0.0248,0.14799 -0.37284,0.33619 -0.13229,0.47057zM143.35832,278.72996c6.41475,2.39033 -8.16853,5.86591 -21.40526,4.2514c-12.48898,-1.5233 -16.71293,-4.57013 -28.11122,-5.6374c-3.85074,-0.36055 -8.46538,-0.55916 -11.34132,-1.15655c-4.55751,-0.9467 -2.52983,-4.16699 6.18928,-4.16085c6.27836,0.00442 9.36997,0.385 15.21501,0.3891l2.58133,0.00181c0,0 2.96323,0.00209 4.39899,0.42028c15.29111,0.93842 25.09977,3.30216 32.47316,5.89218z" data-paper-data="{&quot;index&quot;:null}" fill="#000000" fill-rule="nonzero" stroke="none" stroke-width="0" stroke-linecap="butt"/><path d="M90.94327,273.81257c0.26561,0.07445 0.6624,0.13802 1.17244,0.19226c1.52904,0.29019 3.86019,0.28978 3.86019,0.28978c19.66494,0.01385 31.42788,2.62527 38.37421,5.30922c0.81725,0.30453 0.72169,0.67736 0.72101,1.01717c-0.00018,0.09669 0.03971,0.25257 0.09375,0.41156c-0.0518,-0.05124 -0.18028,-0.0936 -0.44458,-0.12079c-1.16748,-0.12009 -11.40845,0.61515 -12.6533,0.19433c-0.37414,-0.12647 1.5915,-0.23313 1.46973,-0.37554c-1.49586,-1.7508 -17.46976,-4.39527 -25.28565,-5.12711c-2.02717,-0.18982 -4.32249,-0.28231 -6.59138,-0.32732c0.88761,-0.25613 -0.87021,-0.65622 -0.86955,-0.98044c0.00022,-0.11125 0.08403,-0.30014 0.15293,-0.48311z" data-paper-data="{&quot;noHover&quot;:false,&quot;origItem&quot;:[&quot;Path&quot;,{&quot;applyMatrix&quot;:true,&quot;segments&quot;:[[[607.563,601.99816],[0.02649,0.38155],[-0.10299,0.15484]],[[607.10872,602.39727],[0.1976,-0.11227],[-0.59254,0.60273]],[[605.61718,603],[0,0],[-7.618,0]],[[590.90604,613.89443],[2.69308,-5.58508],[-0.31682,0.63364]],[[590.61718,616],[0,-0.70843],[0,0.20156]],[[590.57685,616.85325],[0.02106,-0.33136],[0.02013,-0.10671]],[[590.74964,616.60263],[-0.10238,0.05628],[0.45234,-0.24865]],[[595.61718,617],[-0.48256,0.87548],[0.14503,-0.26312]],[[594.95308,616.3906],[-0.04725,0.29671],[0.58086,-3.64773]],[[604.72276,605.71115],[-3.02833,1.51416],[0.78545,-0.39273]],[[607.27135,605.03032],[-0.87898,0.0905],[-0.34365,-0.53523]],[[607.61718,603],[0,0.6759],[0,-0.23192]]],&quot;closed&quot;:true}],&quot;index&quot;:null}" fill="#ffffff" fill-rule="nonzero" stroke="none" stroke-width="0" stroke-linecap="butt"/><path d="M164.71899,271.55558l33.57674,-21.28097l93.69715,-0.12424l-19.76914,21.48092z" data-paper-data="{&quot;index&quot;:null}" fill="#cedce9" fill-rule="nonzero" stroke="#000000" stroke-width="0" stroke-linecap="round"/><path d="M155.80894,270.43222c-3.2355,-0.30295 -10.93595,-0.77708 -7.55991,-1.25926c-1.84559,0.15395 -4.30777,0.34181 -5.61781,0.39187c-6.20599,0.23723 -14.24765,-0.01003 -20.65104,-0.01454c-17.56731,-0.01237 -34.62226,-0.15263 -51.62851,0.44332c-7.68561,0.26933 -9.79648,-0.58058 -12.15878,0.60486c-4.8717,1.98837 -14.03364,3.75931 -19.92079,5.76033c-7.97904,2.712 -11.07645,5.3334 -15.97007,8.05492c-5.53593,2.24017 -1.03896,6.55191 -1.04401,9.04964c-0.00135,0.6686 1.54789,1.85981 0.06491,2.35092c1.47321,0.02591 2.89607,0.04959 3.80232,0.05022c6.02324,0.00423 12.04639,0.00848 18.06966,0.01271c23.95951,0.01687 51.79746,-0.06088 75.05494,-1.12485c27.61399,-1.13305 57.53642,0.54072 85.37227,-0.47411c15.24348,-0.50807 31.85806,-0.18799 47.37744,-0.17338c7.87301,0.00739 14.6161,-0.54353 18.06866,0.49241c0.90746,0.2723 0.00129,-0.63957 0.00194,-0.95937c0.00162,-0.79946 0.00325,-1.59894 0.00485,-2.3984c0.00908,-4.47703 0.01812,-8.95402 0.0272,-13.43103c0.00216,-1.05838 -1.48319,-4.846 1.60635,-5.25356c-0.5794,-0.00683 -1.23515,-0.01777 -1.59566,-0.0229c-3.19412,-0.04557 -4.97879,-0.01411 -7.47096,-0.34639c-4.32652,-0.57684 -18.92768,-0.15188 -24.79534,-0.15602c-22.80214,-0.01607 -45.60426,-0.03213 -68.40647,-0.04819c0,0 -5.16274,-0.00364 -5.1608,-0.96298c0.00007,-0.0394 0.00879,-0.07712 0.02558,-0.11331c-2.46786,-0.09894 -4.96064,-0.23551 -7.49601,-0.47292zM236.85053,270.11093c13.7646,0.0097 31.35776,-0.43337 40.75383,1.51837c5.38439,1.11844 1.82628,4.68968 1.82328,6.1865c-0.00908,4.47703 -0.01813,8.95403 -0.0272,13.43104c-0.00103,0.51123 1.77206,3.04852 -0.0068,3.35776c-17.9674,3.12336 -51.81605,0.65407 -73.75043,1.55661c-27.21896,0.99234 -58.55864,-0.95725 -84.8929,0.45442c-23.97061,1.09658 -52.84633,1.19779 -77.5594,1.18038c-3.54483,-0.0025 -24.80438,0.48139 -27.10445,-0.01909c-6.59588,-1.43522 -5.15742,-2.62758 -5.15399,-4.32076c0.00619,-3.06257 -2.90798,-6.71524 1.5752,-9.65603c5.01563,-2.78936 8.53476,-5.58805 16.53093,-8.30586c3.22556,-1.09631 6.71019,-2.56337 10.87775,-3.55267c2.72704,-0.64735 7.9395,-1.17119 8.59231,-2.01474c4.42133,-2.21874 12.40169,-1.48511 21.84712,-1.85189c16.81399,-0.65289 34.21151,-0.45558 51.62851,-0.44332c6.42327,0.00453 18.97474,-0.53596 23.50567,-0.36184c7.88736,0.30311 12.45777,1.55633 20.10212,1.93289c5.60932,0.2763 11.5214,0.11924 18.06825,0.73224c0.49703,0.04654 0.99398,0.09306 1.49101,0.13961c17.23314,0.01213 34.46629,0.02427 51.69948,0.03642z" data-paper-data="{&quot;index&quot;:null}" fill="#000000" fill-rule="nonzero" stroke="none" stroke-width="0" stroke-linecap="butt"/><path d="M163.37679,270.85912c-0.0168,0.0362 -0.02491,0.07397 -0.025,0.11334c-0.00194,0.95937 5.18615,0.96465 5.18615,0.96465c22.80215,0.01607 45.72579,0.05128 68.52805,0.06734c5.86764,0.00414 20.48202,-0.41634 24.80854,0.16049c2.49208,0.33227 4.28083,0.30242 7.47484,0.34796c0.36057,0.00515 1.01678,0.0163 1.59627,0.02317c-3.08955,0.40757 -1.58855,4.20437 -1.59071,5.26275c-0.00907,4.47703 -0.02895,8.98063 -0.03799,13.45765c-0.00163,0.79946 -0.0121,1.60283 -0.01371,2.40227c-0.00066,0.3198 0.90163,1.23307 -0.00583,0.96079c-3.45256,-1.03593 -10.20178,-0.48294 -18.07478,-0.49035c-15.51939,-0.01457 -32.18099,-0.32376 -47.42446,0.18432c-27.83589,1.01482 -58.03187,-0.64985 -85.64586,0.48322c-23.25751,1.06397 -51.20845,1.12494 -75.16808,1.10806c-6.02324,-0.00423 -12.05696,-0.0115 -18.0802,-0.01573c-0.90632,-0.00065 -2.33116,-0.02495 -3.80425,-0.05084c1.48302,-0.49109 -0.07586,-1.68571 -0.07452,-2.35431c0.00506,-2.49773 -4.51614,-6.82609 1.01984,-9.06627c4.89361,-2.7215 8.00167,-5.36114 15.98073,-8.07312c5.88724,-2.00103 15.08788,-3.78624 19.95963,-5.7746c2.36227,-1.18543 4.48917,-0.33915 12.17477,-0.60848c17.00621,-0.59593 34.17192,-0.46905 51.73915,-0.45669c6.40323,0.00451 14.51696,0.24941 20.72296,0.01219c1.30991,-0.05008 3.79264,-0.23789 5.63821,-0.39185c-3.37613,0.48216 4.35494,0.9569 7.59043,1.25984c2.5355,0.23741 5.05832,0.37527 7.52615,0.4742z" data-paper-data="{&quot;noHover&quot;:false,&quot;origItem&quot;:[&quot;Path&quot;,{&quot;applyMatrix&quot;:true,&quot;segments&quot;:[[[579.60736,595.76373],[0.95609,-0.20262],[0.00646,0.07548]],[[579.61718,596],[0,-0.08208],[0,2]],[[577.61718,598],[0,0],[-8.83333,0]],[[551.11718,598],[8.83333,0],[-2.27308,0]],[[541.51161,598.28885],[1.67648,-1.19621],[-0.96568,0.68904]],[[538.61718,599],[1.23739,-0.09027],[-0.13966,0.01019]],[[537.99901,599.04541],[0.22447,-0.0134],[1.19653,0.85421]],[[538.61718,610],[0,-2.20646],[0,9.33333]],[[538.61718,638],[0,-9.33333],[0,1.66667]],[[538.61718,643],[0,-1.66667],[0,0.66667]],[[538.61718,645],[-0.35177,0.56631],[1.33831,-2.15456]],[[545.61718,644],[-3.04994,0.00386],[6.01206,-0.00761]],[[563.97058,644.43107],[-5.90478,-1.08158],[10.78253,2.15651]],[[597.04254,645.54479],[-10.6965,-2.40266],[9.00888,2.25222]],[[626.11718,648],[-9.28168,0],[2.33333,0]],[[633.11718,648],[-2.33333,0],[0.35109,0]],[[634.59021,647.90091],[-0.5707,0.05184],[-0.57412,-1.02596]],[[634.61718,643],[0,1.39387],[0,-5.20707]],[[634.21982,624.13246],[2.14282,4.67827],[-1.8936,-5.6808]],[[628.03948,607.31672],[3.08887,5.66543],[-2.2791,-4.1802]],[[620.32688,595.27881],[1.8857,4.15235],[-0.91417,-2.47477]],[[615.61718,594],[2.9771,0.57275],[-6.58756,-1.26734]],[[595.61718,593],[6.8054,0],[-2.48058,0]],[[587.61718,593],[2.40395,0.50364],[-0.50743,-0.10631]],[[585.44122,592.1748],[0.71481,0.32365],[1.30749,1.01011]],[[582.51161,594.78885],[1.25365,-0.62682],[-0.98239,0.4912]]],&quot;closed&quot;:true}],&quot;index&quot;:null}" fill="#c9c9c9" fill-rule="nonzero" stroke="none" stroke-width="0" stroke-linecap="butt"/><path d="M90.99402,274.32532c-0.00067,0.32423 1.77837,0.71843 0.89075,0.97452c2.26887,0.04501 4.55109,0.1414 6.5782,0.33121c7.8158,0.73184 23.71294,3.38967 25.20885,5.14047c0.12164,0.14241 -2.08899,0.16464 -1.71489,0.29111c1.24482,0.42083 11.39785,-0.30186 12.5653,-0.18177c0.26421,0.02718 0.39396,0.06933 0.44583,0.12052c-0.05406,-0.15898 -0.10352,-0.31267 -0.10333,-0.40937c0.00069,-0.33982 0.07367,-0.70598 -0.74355,-1.01051c-6.9464,-2.68395 -18.29942,-5.23874 -37.9644,-5.25259c0,0 -2.32061,-0.00162 -3.84966,-0.29183c-0.51,-0.05422 -0.90653,-0.11781 -1.17233,-0.19226c-0.06872,0.18297 -0.14059,0.36922 -0.14082,0.48046zM134.86289,281.5514c0.35194,0.19667 0.24865,-0.12942 0.13229,-0.47057c-0.0248,0.14799 -0.37284,0.33619 -0.13229,0.47057zM143.35832,278.72996c6.41475,2.39033 -8.16853,5.86591 -21.40526,4.2514c-12.48898,-1.5233 -16.71293,-4.57013 -28.11122,-5.6374c-3.85074,-0.36055 -8.46538,-0.55916 -11.34132,-1.15655c-4.55751,-0.9467 -2.52983,-4.16699 6.18928,-4.16085c6.27836,0.00442 9.36997,0.385 15.21501,0.3891l2.58133,0.00181c0,0 2.96323,0.00209 4.39899,0.42028c15.29111,0.93842 25.09977,3.30216 32.47316,5.89218z" data-paper-data="{&quot;index&quot;:null}" fill="#000000" fill-rule="nonzero" stroke="none" stroke-width="0" stroke-linecap="butt"/><path d="M90.94327,273.81257c0.26561,0.07445 0.6624,0.13802 1.17244,0.19226c1.52904,0.29019 3.86019,0.28978 3.86019,0.28978c19.66494,0.01385 31.42788,2.62527 38.37421,5.30922c0.81725,0.30453 0.72169,0.67736 0.72101,1.01717c-0.00018,0.09669 0.03971,0.25257 0.09375,0.41156c-0.0518,-0.05124 -0.18028,-0.0936 -0.44458,-0.12079c-1.16748,-0.12009 -11.40845,0.61515 -12.6533,0.19433c-0.37414,-0.12647 1.5915,-0.23313 1.46973,-0.37554c-1.49586,-1.7508 -17.46976,-4.39527 -25.28565,-5.12711c-2.02717,-0.18982 -4.32249,-0.28231 -6.59138,-0.32732c0.88761,-0.25613 -0.87021,-0.65622 -0.86955,-0.98044c0.00022,-0.11125 0.08403,-0.30014 0.15293,-0.48311z" data-paper-data="{&quot;noHover&quot;:false,&quot;origItem&quot;:[&quot;Path&quot;,{&quot;applyMatrix&quot;:true,&quot;segments&quot;:[[[607.563,601.99816],[0.02649,0.38155],[-0.10299,0.15484]],[[607.10872,602.39727],[0.1976,-0.11227],[-0.59254,0.60273]],[[605.61718,603],[0,0],[-7.618,0]],[[590.90604,613.89443],[2.69308,-5.58508],[-0.31682,0.63364]],[[590.61718,616],[0,-0.70843],[0,0.20156]],[[590.57685,616.85325],[0.02106,-0.33136],[0.02013,-0.10671]],[[590.74964,616.60263],[-0.10238,0.05628],[0.45234,-0.24865]],[[595.61718,617],[-0.48256,0.87548],[0.14503,-0.26312]],[[594.95308,616.3906],[-0.04725,0.29671],[0.58086,-3.64773]],[[604.72276,605.71115],[-3.02833,1.51416],[0.78545,-0.39273]],[[607.27135,605.03032],[-0.87898,0.0905],[-0.34365,-0.53523]],[[607.61718,603],[0,0.6759],[0,-0.23192]]],&quot;closed&quot;:true}],&quot;index&quot;:null}" fill="#ffffff" fill-rule="nonzero" stroke="none" stroke-width="0" stroke-linecap="butt"/><g><path d="M583.58896,232.55387c0.30548,0.51235 0.40835,1.06385 0.31172,1.65452c-2.54985,0.05993 -5.04361,-0.00148 -7.48125,-0.18384c2.39087,0 4.77864,0 7.16953,0c0,-0.49029 0,-0.9804 0,-1.47069z" data-paper-data="{&quot;index&quot;:null}" fill="#6b6b6b" fill-rule="evenodd" stroke="none" stroke-width="0" stroke-linecap="butt"/><path d="M594.1874,233.47305c0.2899,0.19634 0.39589,0.44139 0.31172,0.73534c-3.17329,0.06011 -6.29048,-0.00111 -9.35156,-0.18384c3.01432,0 6.02552,0 9.03984,0c0,-0.18383 0,-0.36767 0,-0.55151z" data-paper-data="{&quot;index&quot;:null}" fill="#9e9e9e" fill-rule="evenodd" stroke="none" stroke-width="0" stroke-linecap="butt"/><path d="M502.54206,234.20838c2.54674,0 5.04049,0.06141 7.48125,0.18384c-5.01244,-0.05827 -9.99995,0.00295 -14.96252,0.18384c2.38152,-0.24468 4.87528,-0.36731 7.48125,-0.36768z" data-paper-data="{&quot;index&quot;:null}" fill="#484848" fill-rule="evenodd" stroke="none" stroke-width="0" stroke-linecap="butt"/><path d="M83.28014,235.49523c3.79611,-0.0603 7.53673,0.00092 11.22188,0.18384c-3.81888,-0.11287 -7.5595,0.00975 -11.22188,0.36768c0,-0.18383 0,-0.36767 0,-0.55151z" data-paper-data="{&quot;index&quot;:null}" fill="#838383" fill-rule="evenodd" stroke="none" stroke-width="0" stroke-linecap="butt"/><path d="M23.86418,131.87351l1.47565,0.14505l164.59665,1.3054v9.57436l95.364,0.03626v18.49312l49.18839,1.59548l0.49189,-10.87831l91.55189,1.3054v10.8783l29.51303,0.14504v37.09503l15.00246,0.39887l140.2484,0.68895l-1.96753,61.20862l-3.44319,0.07252l-323.98511,2.61079l-0.24594,-5.80906l-257.6242,-0.18131v-3.26349v-124.37533z" fill="#413831" fill-rule="nonzero" stroke="#000000" stroke-width="1" stroke-linecap="round"/><path d="M140.93421,202.2054l29.28309,0.35561v44.89608l-30.69432,0.35561l0.35281,-45.58509z" fill="#928b78" fill-rule="nonzero" stroke="#000000" stroke-width="1" stroke-linecap="round"/><path d="M132.35772,248.35449l-50.56643,-0.80444l1.28832,-46.63565l48.95603,0.71507z" fill="#928b78" fill-rule="nonzero" stroke="#000000" stroke-width="1" stroke-linecap="round"/><path d="M74.69809,248.49352l-16.175,-0.87736l-1.4516,-44.9645l16.58974,-0.96509z" fill="#928b78" fill-rule="nonzero" stroke="#000000" stroke-width="1" stroke-linecap="round"/><path d="M189.82375,133.18936l2.01613,63.77422l-168.16349,-1.62138l0.54985,-63.01757z" fill="#736c59" fill-rule="nonzero" stroke="#000000" stroke-width="1" stroke-linecap="round"/><path d="M189.13717,133.469l-180.02951,-1.45044l-6.82489,-7.68734l192.94147,4.06124l16.23217,9.42787l104.09493,0.43514l-2.21348,5.65672l-105.01721,-1.3054l-18.69159,0.43514z" fill="#8b8471" fill-rule="nonzero" stroke="#000000" stroke-width="1" stroke-linecap="round"/><path d="M314.07569,151.70829l-2.21348,-3.19097l139.69503,0.72522l-6.64043,4.49637l-129.36547,-1.59548" fill="#8b8471" fill-rule="nonzero" stroke="#000000" stroke-width="1" stroke-linecap="round"/><path d="M283.087,158.09023l52.1397,0.72522l-0.84551,3.77115l-50.16685,-0.58017z" fill="#8b8471" fill-rule="nonzero" stroke="#000000" stroke-width="1" stroke-linecap="round"/><path d="M425.73335,160.84607l63.69896,-1.59549l-5.16478,5.22159l-58.04231,0.29009z" fill="#8b8471" fill-rule="nonzero" stroke="#000000" stroke-width="1" stroke-linecap="round"/><path d="M456.59904,197.46971l-171.91343,-0.98536v-29.56077h51.34039v17.06782l90.70547,0.72029l-1.12111,-14.79684l30.98869,0.84459z" fill="#262626" fill-rule="nonzero" stroke="#000000" stroke-width="1" stroke-linecap="round"/><path d="M279.64481,200.69694l-0.73782,-4.64141l356.43138,1.16035l-3.93507,5.36663l-174.98871,-0.87027z" fill="#8b8471" fill-rule="nonzero" stroke="#000000" stroke-width="1" stroke-linecap="round"/><path d="M426.59513,153.30378l1.22971,31.61962l-92.22823,-1.3054l-0.49189,-31.32953z" fill="#736c59" fill-rule="nonzero" stroke="#000000" stroke-width="1" stroke-linecap="round"/><path d="M352.51246,157.80678l56.1736,-0.162l1.09875,22.67956l-57.82173,-0.486z" fill="#515a61" fill-rule="nonzero" stroke="#000000" stroke-width="1" stroke-linecap="round"/><path d="M212.04412,213.43242h59.05783l0.54937,47.51966l-62.90345,-0.32399l0.27469,-47.60681z" fill="#090909" fill-rule="nonzero" stroke="#000000" stroke-width="1" stroke-linecap="round"/><path d="M226.19052,213.28454h32.13844l0.82407,47.62706l-33.78657,-0.081l0.13735,-47.9713z" fill="#2d0d0e" fill-rule="nonzero" stroke="#000000" stroke-width="1" stroke-linecap="round"/><path d="M271.17061,246.21037h228.86105v18.32589l-218.75429,2.08571l-0.13735,-5.99388l-9.47672,0.08099l-0.27469,-14.01272" fill="#807165" fill-rule="nonzero" stroke="#000000" stroke-width="1" stroke-linecap="round"/><path d="M46.78059,196.05213l0.27469,64.49497l-23.89782,0.486l0.68672,-65.6087l22.93641,0.08099z" fill="#807165" fill-rule="nonzero" stroke="#000000" stroke-width="1" stroke-linecap="round"/><path d="M173.27421,196.39637h18.02637l0.17168,64.29248l-17.44266,0.10125z" fill="#807165" fill-rule="nonzero" stroke="#000000" stroke-width="1" stroke-linecap="round"/><path d="M298.53173,266.37897v-46.65508l173.05315,0.081l0.27469,45.11611z" fill="#928b78" fill-rule="nonzero" stroke="#000000" stroke-width="1" stroke-linecap="round"/><path d="M304.54052,266.56123l-0.41203,-44.14413l160.17717,0.081l0.41203,42.50391z" fill="#3c332c" fill-rule="nonzero" stroke="#000000" stroke-width="1" stroke-linecap="round"/><path d="M500.11805,265.00201l-0.96141,-44.77186l79.96841,0.162l-0.96141,43.98213z" fill="#928b78" fill-rule="nonzero" stroke="#000000" stroke-width="1" stroke-linecap="round"/><path d="M502.38422,265.326v-42.32167l68.91224,0.162l-1.2361,41.28894z" fill="#3c332c" fill-rule="nonzero" stroke="#000000" stroke-width="1" stroke-linecap="round"/><path d="M301.66093,177.50964l-2.33484,2.42995l-4.25766,-0.081l-11.26219,-12.63575l-126.90565,-1.05298l-4.25766,-4.45491l137.89315,0.40499z" fill="#8b8471" fill-rule="nonzero" stroke="#000000" stroke-width="1" stroke-linecap="round"/><path d="M140.55206,138.42176l1.64812,34.78881l-77.49622,-0.08099l-0.27469,-36.08479z" fill="#515a61" fill-rule="nonzero" stroke="#000000" stroke-width="1" stroke-linecap="round"/><path d="M128.63749,246.12939l-43.12595,-0.72898l1.09875,-42.26092l41.7525,0.64799z" fill="#515a61" fill-rule="nonzero" stroke="#000000" stroke-width="1" stroke-linecap="round"/><path d="M71.7219,246.69638l-10.71282,-0.80998l-0.9614,-41.51168l10.9875,-0.89098z" fill="#515a61" fill-rule="nonzero" stroke="#000000" stroke-width="1" stroke-linecap="round"/><path d="M144.01997,204.23297l22.79906,0.32399v40.90419l-23.89781,0.32399l0.27469,-41.53193z" fill="#515a61" fill-rule="nonzero" stroke="#000000" stroke-width="1" stroke-linecap="round"/></g><path d="M266.7374,173.36668c-0.06886,0.62377 0.00324,1.22029 0.21652,1.78927c-0.01299,0.07474 -0.08508,0.12056 -0.21652,0.13764c-0.28406,-0.66314 -0.28406,-1.30548 0,-1.92691z" data-paper-data="{&quot;index&quot;:null}" fill="#9e9e9e" fill-rule="evenodd" stroke="none" stroke-width="0" stroke-linecap="butt"/><path d="M241.93693,169.78541h5.67459v3.90437l-0.94576,-3.34658z" fill="#736d42" fill-rule="evenodd" stroke="none" stroke-width="0" stroke-linecap="butt"/><path d="M210.38099,176.84131c0.2303,0 0.42369,0.02348 0.58609,0.06287c2.53071,-1.97013 6.76151,-2.97271 10.81448,-2.94067c0.68051,0.00538 5.0493,0.23822 5.75233,0.56172c1.54118,0.70916 2.05379,2.03721 3.14937,3.02598c4.54198,4.09905 5.31977,8.32427 0.40807,12.43896c-3.45876,1.22889 -6.25406,2.32448 -10.36086,2.26861c-11.63946,-0.15835 -14.77262,-8.51424 -11.71253,-14.35453l-0.07372,-0.14959c0,0 0,-0.91336 1.43679,-0.91336zM211.44232,179.12297c-1.92196,4.58373 0.10682,11.23285 9.27893,11.30913c3.39694,0.02825 5.58728,-0.84716 8.48976,-1.82325c3.8961,-3.36469 2.73031,-6.76411 -0.87536,-10.00418c-0.91642,-0.82346 -1.22531,-1.95864 -2.46377,-2.58924c-1.08144,-0.55064 -2.75641,-0.20407 -4.14159,-0.22548c-3.39953,-0.05254 -7.58619,0.90378 -9.17377,2.84669c0,0 -0.39092,0.4473 -1.1142,0.48631z" data-paper-data="{&quot;index&quot;:null}" fill="#75dbff" fill-rule="nonzero" stroke="none" stroke-width="0" stroke-linecap="butt"/><path d="M212.51175,178.61371c1.58757,-1.94292 5.82161,-2.91282 9.22113,-2.86028c1.38519,0.0214 3.07981,-0.32235 4.16125,0.22829c1.23847,0.63059 1.56604,1.7738 2.48244,2.59727c3.60566,3.24009 4.76937,6.69203 0.8733,10.05673c-2.9025,0.97608 -5.13411,1.86108 -8.53104,1.83281c-9.17211,-0.07628 -11.24699,-6.78148 -9.32505,-11.36521c0.72328,-0.039 1.11795,-0.48963 1.11795,-0.48963z" data-paper-data="{&quot;noHover&quot;:false,&quot;origItem&quot;:[&quot;Path&quot;,{&quot;applyMatrix&quot;:true,&quot;segments&quot;:[[[409.4867,271.35519],[1.25852,-0.10678],[-3.34423,12.54639]],[[425.63199,302.31001],[-15.95943,-0.20878],[5.91067,0.07732]],[[440.40413,297.31952],[-5.05034,2.67171],[6.7792,-9.20965]],[[438.881,269.93654],[6.27385,8.86861],[-1.59451,-2.25397]],[[434.59405,262.84941],[2.15492,1.72602],[-1.88172,-1.50719]],[[427.3877,262.23225],[2.4102,0.05859],[-5.91515,-0.1438]],[[411.4254,270.0241],[2.76238,-5.31806],[0,0]]],&quot;closed&quot;:true}],&quot;index&quot;:null}" fill="#ffffff" fill-rule="nonzero" stroke="none" stroke-width="0" stroke-linecap="butt"/><path d="M245.01954,176.32149c3.84852,-0.85121 8.09747,0.09157 11.98494,0.99387c0.91883,0.21327 4.11387,0.82849 4.83263,1.46777c1.73039,1.53898 1.55353,4.05267 1.86624,5.84146c0.29339,1.67831 0.87652,3.31197 -0.91547,4.79048c-3.13895,2.58984 -7.87289,3.51962 -12.60766,4.32027c-2.18712,0.16583 -4.14864,0.60073 -6.1682,-0.33914c-1.21965,-0.56761 -2.41076,-2.46175 -2.99129,-3.28936c-1.9755,-2.81631 -5.16204,-6.51022 -3.48967,-9.73172c0.56682,-1.09185 3.45026,-2.38689 4.44459,-3.36649l1.7368,-0.63904c0,0 0.67433,-0.23545 1.30712,-0.04807zM243.49734,178.67638c-0.98323,0.67407 -3.13818,1.97908 -3.25471,2.30334c-1.04127,2.89736 1.64864,5.86565 3.40689,8.38928c0.13897,0.19948 1.4949,2.25989 2.06621,2.55612c0.92941,0.48192 3.15207,0.08473 3.91093,0.01766c4.20496,-0.71479 7.93205,-1.47212 10.87651,-3.63566c1.22934,-0.90331 0.52019,-2.48154 0.34432,-3.48011c-0.24066,-1.36659 0.00429,-3.67333 -1.23263,-4.88581c-0.70184,-0.68799 -2.38357,-0.6289 -3.59544,-0.90984c-3.45236,-0.80035 -8.2376,-2.09214 -11.46988,-0.53349c0,0 -0.48436,0.21993 -1.05224,0.17848z" data-paper-data="{&quot;index&quot;:null}" fill="#75dbff" fill-rule="nonzero" stroke="none" stroke-width="0" stroke-linecap="butt"/><path d="M244.52013,178.46651c3.23228,-1.55865 8.07575,-0.26707 11.52812,0.53328c1.21186,0.28093 2.90793,0.22935 3.6098,0.91735c1.2369,1.2125 1.00622,3.54254 1.24689,4.90914c0.17584,0.99858 0.87832,2.59471 -0.35105,3.49801c-2.94446,2.16352 -6.7274,2.94011 -10.93239,3.6549c-0.75885,0.06707 -2.99985,0.46122 -3.92924,-0.0207c-0.5713,-0.29624 -1.94448,-2.36421 -2.0835,-2.56369c-1.75824,-2.52362 -4.45661,-5.53661 -3.41535,-8.43397c0.11653,-0.32426 2.2871,-1.64004 3.27032,-2.3141c0.56787,0.04141 1.05636,-0.18023 1.05636,-0.18023z" data-paper-data="{&quot;noHover&quot;:false,&quot;origItem&quot;:[&quot;Path&quot;,{&quot;applyMatrix&quot;:true,&quot;segments&quot;:[[[465.26223,270.13291],[0.98811,0.11339],[-1.71083,1.84504]],[[459.59907,276.43751],[0.20277,-0.88758],[-1.81178,7.93053]],[[465.52703,299.40029],[-3.05933,-6.90758],[0.24182,0.54599]],[[469.12222,306.39679],[-0.99407,-0.81085],[1.61715,1.31908]],[[475.92722,306.44514],[-1.32039,0.18358],[7.31661,-1.95648]],[[494.85229,296.49376],[-5.12332,5.92193],[2.13908,-2.47252]],[[495.45142,286.96818],[0.30597,2.73324],[-0.41874,-3.7406]],[[493.30665,273.59497],[2.15221,3.31878],[-1.22123,-1.88318]],[[487.05062,271.1046],[2.10865,0.76899],[-6.0071,-2.19068]],[[467.0931,269.64433],[5.62415,-4.26625],[0,0]]],&quot;closed&quot;:true}],&quot;index&quot;:null}" fill="#ffffff" fill-rule="nonzero" stroke="none" stroke-width="0" stroke-linecap="butt"/><path d="M227.49907,183.55839c0,-0.8071 1.02922,-1.46137 2.29886,-1.46137c1.26963,0 2.29886,0.65428 2.29886,1.46137c0,0.8071 -1.02923,1.46137 -2.29886,1.46137c-1.26963,0 -2.29886,-0.65428 -2.29886,-1.46137z" data-paper-data="{&quot;index&quot;:null}" fill="#000000" fill-rule="nonzero" stroke="none" stroke-width="0" stroke-linecap="butt"/><path d="M256.87772,184.98095c0,-0.8071 1.02922,-1.46137 2.29886,-1.46137c1.26963,0 2.29886,0.65428 2.29886,1.46137c0,0.8071 -1.02923,1.46137 -2.29886,1.46137c-1.26963,0 -2.29886,-0.65428 -2.29886,-1.46137z" data-paper-data="{&quot;index&quot;:null}" fill="#000000" fill-rule="nonzero" stroke="none" stroke-width="0" stroke-linecap="butt"/><path d="M184.59694,150.16784c0.63758,-0.60798 1.59397,-0.20265 1.59397,-0.20265l0.46863,0.1986c5.08723,2.15596 9.93164,4.46104 14.79435,6.81625c10.70547,5.18507 22.50179,9.81124 32.03877,15.87384c0,0 0.81277,0.51667 0,1.03334c-0.81277,0.51667 -1.62554,0 -1.62554,0c-9.4608,-6.01418 -21.18593,-10.60085 -31.80643,-15.74477c-4.82446,-2.33668 -9.62926,-4.62381 -14.67633,-6.76274l-0.46862,-0.1986c0,0 -0.95639,-0.4053 -0.3188,-1.01328z" data-paper-data="{&quot;index&quot;:null}" fill="#75dbff" fill-rule="nonzero" stroke="none" stroke-width="0" stroke-linecap="butt"/><path d="M293.74984,141.33174c0.9742,0.38776 0.36424,1.00708 0.36424,1.00708l-0.6537,0.66092c-6.33538,4.93022 -13.97532,8.88388 -20.86271,13.46141c-9.46756,6.29236 -18.69518,12.96264 -29.05475,18.63327c0,0 -0.87272,0.47553 -1.62074,-0.07925c-0.74803,-0.55478 0.12467,-1.03029 0.12467,-1.03029c10.33337,-5.60195 19.48516,-12.28344 28.88952,-18.53382c6.81246,-4.52771 14.37909,-8.43472 20.65648,-13.30347l0.57281,-0.58429c0,0 0.60998,-0.61929 1.58423,-0.23153z" data-paper-data="{&quot;index&quot;:null}" fill="#75dbff" fill-rule="nonzero" stroke="none" stroke-width="0" stroke-linecap="butt"/><path d="M201.44566,193.32173c-0.14647,-0.06341 -0.26958,-0.17001 -0.26958,-0.34922c0,-0.44231 0.75,-0.44231 0.75,-0.44231l1.02909,0.44231c0,2.23713 -1.06045,4.00389 -1.8238,6.16092c-0.90828,2.56654 1.29971,5.51942 3.95633,7.42329c2.14412,0.89624 4.37366,1.08478 6.75419,1.64382c6.36138,1.49387 12.10192,1.62144 18.8348,2.02434c9.49173,-0.00362 20.24092,0.07123 28.74321,-2.79531c8.09985,-2.7158 6.6588,-8.38263 5.53708,-12.99543c0,0 -0.10607,-0.43787 0.63639,-0.50042c0.74246,-0.06255 0.84853,0.37532 0.84853,0.37532c1.21306,5.02852 2.44753,10.93452 -6.2778,13.88861c-8.76097,2.95108 -19.77932,2.91431 -29.56275,2.91076c-6.89883,-0.40766 -12.81101,-0.56433 -19.33349,-2.09057c-2.55417,-0.59767 -4.89917,-0.83744 -7.2006,-1.81272c-3.05011,-2.13611 -5.34133,-5.3248 -4.41654,-8.21337c0.64138,-2.00333 1.68468,-3.6425 1.79493,-5.67001z" fill="#75dbff" fill-rule="nonzero" stroke="none" stroke-width="0.5" stroke-linecap="butt"/></g></g></g></svg>