<svg version="1.1" xmlns="http://www.w3.org/2000/svg" xmlns:xlink="http://www.w3.org/1999/xlink" width="2878.25006" height="1619.57958" viewBox="0,0,2878.25006,1619.57958"><g transform="translate(1117.37278,629.80931)"><g data-paper-data="{&quot;isPaintingLayer&quot;:true}" stroke-linejoin="miter" stroke-miterlimit="10" stroke-dasharray="" stroke-dashoffset="0" style="mix-blend-mode: normal"><path d="M-1117.37278,989.77027v-1619.57958h2878.25006v1619.57958z" fill="none" fill-rule="nonzero" stroke="#000000" stroke-width="0" stroke-linecap="butt"/><g><path d="M371.77626,215.17158l-19.76914,-1.20128l93.69715,0.00695l33.57674,1.1901z" data-paper-data="{&quot;index&quot;:null}" fill="#cedce9" fill-rule="nonzero" stroke="#000000" stroke-width="0" stroke-linecap="round"/><path d="M488.1911,215.10453c-2.53537,0.01328 -5.02815,0.02091 -7.49601,0.02645c0.01679,0.00202 0.02551,0.00413 0.02559,0.00634c0.00194,0.05365 -5.1608,0.05385 -5.1608,0.05385c-22.80221,0.0009 -45.60433,0.0018 -68.40647,0.00269c-5.86765,0.00023 -20.46882,-0.02353 -24.79534,0.00872c-2.49217,0.01858 -4.27685,0.01682 -7.47097,0.01937c-0.36051,0.00029 -1.01625,0.0009 -1.59566,0.00128c3.08953,0.02279 1.60419,0.23461 1.60635,0.2938c0.00908,0.25037 0.01812,0.50073 0.0272,0.7511c0.0016,0.04471 0.00322,0.08942 0.00485,0.13413c0.00065,0.01788 -0.90552,0.06888 0.00194,0.05365c3.45256,-0.05793 10.19566,-0.02712 18.06866,-0.02754c15.51938,-0.00082 32.13396,-0.01872 47.37744,0.0097c27.83585,0.05675 57.75828,-0.03685 85.37226,0.02651c23.25749,0.0595 51.09544,0.06385 75.05495,0.0629c6.02327,-0.00024 12.04642,-0.00047 18.06966,-0.00071c0.90625,-0.00004 2.32912,-0.00136 3.80233,-0.00281c-1.48298,-0.02746 0.06626,-0.09408 0.06491,-0.13147c-0.00505,-0.13968 4.49192,-0.38081 -1.04401,-0.50608c-4.89362,-0.15219 -7.99102,-0.29879 -15.97006,-0.45045c-5.88716,-0.1119 -15.04909,-0.21094 -19.9208,-0.32214c-2.3623,-0.06629 -4.47318,-0.01876 -12.15878,-0.03382c-17.00624,-0.03333 -34.0612,-0.02548 -51.62851,-0.02479c-6.4034,0.00025 -14.44505,0.01408 -20.65104,0.00081c-1.31004,-0.0028 -3.77221,-0.0133 -5.6178,-0.02191c3.37603,0.02697 -4.32441,0.05348 -7.55991,0.07042zM407.1492,215.08656c17.23319,-0.00068 34.46634,-0.00136 51.69948,-0.00204c0.49704,-0.0026 0.99398,-0.0052 1.49101,-0.00781c6.54685,-0.03428 12.45893,-0.0255 18.06825,-0.04095c7.64435,-0.02106 12.21475,-0.09114 20.10212,-0.10809c4.53093,-0.00974 17.08239,0.02049 23.50567,0.02023c17.41699,-0.00069 34.81452,-0.01172 51.62851,0.02479c9.44543,0.02051 17.42579,-0.02052 21.84711,0.10356c0.65281,0.04718 5.86528,0.07647 8.59232,0.11267c4.16756,0.05532 7.65219,0.13737 10.87776,0.19868c7.99617,0.15199 11.5153,0.3085 16.53092,0.46449c4.48318,0.16446 1.56901,0.36872 1.5752,0.53999c0.00344,0.09469 1.44189,0.16137 -5.15399,0.24163c-2.30007,0.02799 -23.55962,0.00093 -27.10445,0.00107c-24.71307,0.00097 -53.58879,-0.00469 -77.5594,-0.06601c-26.33426,-0.07895 -57.67394,0.03008 -84.8929,-0.02541c-21.93438,-0.05047 -55.78304,0.08762 -73.75043,-0.08705c-1.77886,-0.01729 -0.00578,-0.15919 -0.00681,-0.18778c-0.00908,-0.25037 -0.01812,-0.50073 -0.0272,-0.7511c-0.00301,-0.08371 -3.56112,-0.28342 1.82327,-0.34597c9.39607,-0.10915 26.98922,-0.08437 40.75383,-0.08491z" data-paper-data="{&quot;index&quot;:null}" fill="#000000" fill-rule="nonzero" stroke="none" stroke-width="0" stroke-linecap="butt"/><path d="M480.62287,215.1284c2.46783,-0.00553 4.99065,-0.01324 7.52614,-0.02652c3.23549,-0.01694 10.96657,-0.04349 7.59043,-0.07045c1.84557,0.00861 4.3283,0.01911 5.63821,0.02191c6.206,0.01327 14.31973,-0.00043 20.72296,-0.00068c17.56722,-0.00069 34.73294,-0.00779 51.73914,0.02554c7.68559,0.01506 9.81249,-0.03227 12.17477,0.03403c4.87175,0.1112 14.0724,0.21103 19.95963,0.32293c7.97906,0.15166 11.08711,0.29928 15.98073,0.45147c5.53599,0.12528 1.01478,0.36733 1.01984,0.50701c0.00134,0.03739 -1.55753,0.1042 -0.07451,0.13166c-1.47309,0.00145 -2.89793,0.00281 -3.80425,0.00284c-6.02325,0.00024 -12.05696,0.00064 -18.0802,0.00088c-23.95963,0.00094 -51.91057,-0.00247 -75.16808,-0.06197c-27.61399,-0.06337 -57.80997,0.02973 -85.64586,-0.02702c-15.24347,-0.02841 -31.90507,-0.01112 -47.42446,-0.01031c-7.87299,0.00042 -14.62221,-0.03051 -18.07478,0.02742c-0.90746,0.01523 -0.00517,-0.03585 -0.00583,-0.05373c-0.00162,-0.04471 -0.01208,-0.08963 -0.01371,-0.13434c-0.00904,-0.25037 -0.02892,-0.50222 -0.038,-0.75259c-0.00216,-0.05919 1.49884,-0.27152 -1.59071,-0.29431c0.57949,-0.00038 1.2357,-0.00101 1.59627,-0.0013c3.19401,-0.00255 4.98276,-0.00088 7.47484,-0.01946c4.32652,-0.03226 18.94091,-0.00874 24.80854,-0.00897c22.80227,-0.0009 45.7259,-0.00287 68.52805,-0.00377c0,0 5.18809,-0.0003 5.18615,-0.05395c-0.00008,-0.0022 -0.0082,-0.00431 -0.025,-0.00634z" data-paper-data="{&quot;noHover&quot;:false,&quot;origItem&quot;:[&quot;Path&quot;,{&quot;applyMatrix&quot;:true,&quot;segments&quot;:[[[579.60736,595.76373],[0.95609,-0.20262],[0.00646,0.07548]],[[579.61718,596],[0,-0.08208],[0,2]],[[577.61718,598],[0,0],[-8.83333,0]],[[551.11718,598],[8.83333,0],[-2.27308,0]],[[541.51161,598.28885],[1.67648,-1.19621],[-0.96568,0.68904]],[[538.61718,599],[1.23739,-0.09027],[-0.13966,0.01019]],[[537.99901,599.04541],[0.22447,-0.0134],[1.19653,0.85421]],[[538.61718,610],[0,-2.20646],[0,9.33333]],[[538.61718,638],[0,-9.33333],[0,1.66667]],[[538.61718,643],[0,-1.66667],[0,0.66667]],[[538.61718,645],[-0.35177,0.56631],[1.33831,-2.15456]],[[545.61718,644],[-3.04994,0.00386],[6.01206,-0.00761]],[[563.97058,644.43107],[-5.90478,-1.08158],[10.78253,2.15651]],[[597.04254,645.54479],[-10.6965,-2.40266],[9.00888,2.25222]],[[626.11718,648],[-9.28168,0],[2.33333,0]],[[633.11718,648],[-2.33333,0],[0.35109,0]],[[634.59021,647.90091],[-0.5707,0.05184],[-0.57412,-1.02596]],[[634.61718,643],[0,1.39387],[0,-5.20707]],[[634.21982,624.13246],[2.14282,4.67827],[-1.8936,-5.6808]],[[628.03948,607.31672],[3.08887,5.66543],[-2.2791,-4.1802]],[[620.32688,595.27881],[1.8857,4.15235],[-0.91417,-2.47477]],[[615.61718,594],[2.9771,0.57275],[-6.58756,-1.26734]],[[595.61718,593],[6.8054,0],[-2.48058,0]],[[587.61718,593],[2.40395,0.50364],[-0.50743,-0.10631]],[[585.44122,592.1748],[0.71481,0.32365],[1.30749,1.01011]],[[582.51161,594.78885],[1.25365,-0.62682],[-0.98239,0.4912]]],&quot;closed&quot;:true}],&quot;index&quot;:null}" fill="#c9c9c9" fill-rule="nonzero" stroke="none" stroke-width="0" stroke-linecap="butt"/><path d="M553.00602,215.32224c-0.00023,-0.00622 -0.0721,-0.01664 -0.14082,-0.02687c-0.26581,0.00416 -0.66232,0.00772 -1.17233,0.01075c-1.52905,0.01623 -3.84966,0.01632 -3.84966,0.01632c-19.66498,0.00078 -31.018,0.14365 -37.9644,0.29374c-0.81722,0.01703 -0.74424,0.03751 -0.74355,0.05651c0.00019,0.00541 -0.04928,0.014 -0.10333,0.02289c0.05187,-0.00286 0.18162,-0.00522 0.44583,-0.00674c1.16745,-0.00671 11.32048,0.0337 12.5653,0.01016c0.37411,-0.00707 -1.83653,-0.00832 -1.71489,-0.01628c1.49592,-0.09791 17.39306,-0.24654 25.20886,-0.28747c2.02712,-0.01061 4.30933,-0.01601 6.5782,-0.01852c-0.88762,-0.01432 0.89142,-0.03637 0.89075,-0.0545zM509.00481,215.70003c-0.11636,0.01908 -0.21964,0.03731 0.1323,0.02632c0.24055,-0.00751 -0.1075,-0.01804 -0.1323,-0.02632zM500.64169,215.56856c7.37339,-0.14484 17.18205,-0.27703 32.47316,-0.32951c1.43576,-0.02339 4.39899,-0.0235 4.39899,-0.0235l2.58133,-0.0001c5.84505,-0.00023 8.93666,-0.02151 15.21502,-0.02176c8.71911,-0.00034 10.7468,0.17975 6.18928,0.23269c-2.87593,0.03341 -7.49058,0.04451 -11.34132,0.06468c-11.39829,0.05969 -15.62223,0.23007 -28.11122,0.31526c-13.23673,0.09029 -27.82001,-0.10408 -21.40526,-0.23775z" data-paper-data="{&quot;index&quot;:null}" fill="#000000" fill-rule="nonzero" stroke="none" stroke-width="0" stroke-linecap="butt"/><path d="M553.05695,215.29357c0.0689,0.01023 0.15272,0.02079 0.15293,0.02702c0.00065,0.01813 -1.75717,0.0405 -0.86956,0.05483c-2.2689,0.00252 -4.56421,0.00769 -6.59138,0.0183c-7.81589,0.04093 -23.78979,0.18881 -25.28565,0.28672c-0.12176,0.00796 1.84386,0.01393 1.46973,0.021c-1.24485,0.02353 -11.48582,-0.01758 -12.6533,-0.01087c-0.2643,0.00152 -0.39279,0.00389 -0.44459,0.00675c0.05405,-0.00889 0.09394,-0.01761 0.09375,-0.02301c-0.00068,-0.019 -0.09624,-0.03985 0.72101,-0.05688c6.94633,-0.1501 18.70926,-0.29613 38.37421,-0.29691c0,0 2.33114,0.00002 3.86018,-0.01621c0.51004,-0.00303 0.90682,-0.00659 1.17243,-0.01075z" data-paper-data="{&quot;noHover&quot;:false,&quot;origItem&quot;:[&quot;Path&quot;,{&quot;applyMatrix&quot;:true,&quot;segments&quot;:[[[607.563,601.99816],[0.02649,0.38155],[-0.10299,0.15484]],[[607.10872,602.39727],[0.1976,-0.11227],[-0.59254,0.60273]],[[605.61718,603],[0,0],[-7.618,0]],[[590.90604,613.89443],[2.69308,-5.58508],[-0.31682,0.63364]],[[590.61718,616],[0,-0.70843],[0,0.20156]],[[590.57685,616.85325],[0.02106,-0.33136],[0.02013,-0.10671]],[[590.74964,616.60263],[-0.10238,0.05628],[0.45234,-0.24865]],[[595.61718,617],[-0.48256,0.87548],[0.14503,-0.26312]],[[594.95308,616.3906],[-0.04725,0.29671],[0.58086,-3.64773]],[[604.72276,605.71115],[-3.02833,1.51416],[0.78545,-0.39273]],[[607.27135,605.03032],[-0.87898,0.0905],[-0.34365,-0.53523]],[[607.61718,603],[0,0.6759],[0,-0.23192]]],&quot;closed&quot;:true}],&quot;index&quot;:null}" fill="#ffffff" fill-rule="nonzero" stroke="none" stroke-width="0" stroke-linecap="butt"/><path d="M371.77627,215.17158l-19.76914,-1.20128l93.69715,0.00695l33.57674,1.1901z" data-paper-data="{&quot;index&quot;:null}" fill="#cedce9" fill-rule="nonzero" stroke="#000000" stroke-width="0" stroke-linecap="round"/><path d="M488.1911,215.10453c-2.53537,0.01328 -5.02815,0.02091 -7.49601,0.02645c0.01679,0.00202 0.02551,0.00413 0.02559,0.00634c0.00194,0.05365 -5.1608,0.05385 -5.1608,0.05385c-22.80221,0.0009 -45.60433,0.0018 -68.40647,0.00269c-5.86765,0.00023 -20.46882,-0.02353 -24.79534,0.00872c-2.49217,0.01858 -4.27685,0.01682 -7.47097,0.01937c-0.36051,0.00029 -1.01625,0.0009 -1.59566,0.00128c3.08953,0.02279 1.60419,0.23461 1.60635,0.2938c0.00908,0.25037 0.01812,0.50073 0.0272,0.7511c0.0016,0.04471 0.00322,0.08942 0.00485,0.13413c0.00065,0.01788 -0.90552,0.06888 0.00194,0.05365c3.45256,-0.05793 10.19566,-0.02712 18.06866,-0.02754c15.51938,-0.00082 32.13396,-0.01872 47.37744,0.0097c27.83585,0.05675 57.75828,-0.03685 85.37226,0.02651c23.25749,0.0595 51.09544,0.06385 75.05495,0.0629c6.02327,-0.00024 12.04642,-0.00047 18.06966,-0.00071c0.90625,-0.00004 2.32912,-0.00136 3.80233,-0.00281c-1.48298,-0.02746 0.06626,-0.09408 0.06491,-0.13147c-0.00505,-0.13968 4.49192,-0.38081 -1.04401,-0.50608c-4.89362,-0.15219 -7.99102,-0.29879 -15.97006,-0.45045c-5.88716,-0.1119 -15.04909,-0.21094 -19.9208,-0.32214c-2.3623,-0.06629 -4.47318,-0.01876 -12.15878,-0.03382c-17.00624,-0.03333 -34.0612,-0.02548 -51.62851,-0.02479c-6.4034,0.00025 -14.44505,0.01408 -20.65104,0.00081c-1.31004,-0.0028 -3.77221,-0.0133 -5.6178,-0.02191c3.37603,0.02697 -4.32441,0.05348 -7.55991,0.07042zM407.14921,215.08656c17.23319,-0.00068 34.46634,-0.00136 51.69948,-0.00204c0.49704,-0.0026 0.99398,-0.0052 1.49101,-0.00781c6.54685,-0.03428 12.45893,-0.0255 18.06825,-0.04095c7.64435,-0.02106 12.21475,-0.09114 20.10212,-0.10809c4.53093,-0.00974 17.08239,0.02049 23.50567,0.02023c17.41699,-0.00069 34.81452,-0.01172 51.62851,0.02479c9.44543,0.02051 17.42579,-0.02052 21.84711,0.10356c0.65281,0.04718 5.86528,0.07647 8.59232,0.11267c4.16756,0.05532 7.65219,0.13737 10.87776,0.19868c7.99617,0.15199 11.5153,0.3085 16.53092,0.46449c4.48318,0.16446 1.56901,0.36872 1.5752,0.53999c0.00344,0.09469 1.44189,0.16137 -5.15399,0.24163c-2.30007,0.02799 -23.55962,0.00093 -27.10445,0.00107c-24.71307,0.00097 -53.58879,-0.00469 -77.5594,-0.06601c-26.33426,-0.07895 -57.67394,0.03008 -84.8929,-0.02541c-21.93438,-0.05047 -55.78304,0.08762 -73.75043,-0.08705c-1.77886,-0.01729 -0.00578,-0.15919 -0.00681,-0.18778c-0.00908,-0.25037 -0.01812,-0.50073 -0.0272,-0.7511c-0.00301,-0.08371 -3.56112,-0.28342 1.82327,-0.34597c9.39607,-0.10915 26.98922,-0.08437 40.75383,-0.08491z" data-paper-data="{&quot;index&quot;:null}" fill="#000000" fill-rule="nonzero" stroke="none" stroke-width="0" stroke-linecap="butt"/><path d="M480.62287,215.1284c2.46783,-0.00553 4.99065,-0.01324 7.52614,-0.02652c3.23549,-0.01694 10.96657,-0.04349 7.59043,-0.07045c1.84557,0.00861 4.3283,0.01911 5.63821,0.02191c6.206,0.01327 14.31973,-0.00043 20.72296,-0.00068c17.56722,-0.00069 34.73294,-0.00779 51.73914,0.02554c7.68559,0.01506 9.81249,-0.03227 12.17477,0.03403c4.87175,0.1112 14.0724,0.21103 19.95963,0.32293c7.97906,0.15166 11.08711,0.29928 15.98073,0.45147c5.53599,0.12528 1.01478,0.36733 1.01984,0.50701c0.00134,0.03739 -1.55753,0.1042 -0.07451,0.13166c-1.47309,0.00145 -2.89793,0.00281 -3.80425,0.00284c-6.02325,0.00024 -12.05696,0.00064 -18.0802,0.00088c-23.95963,0.00094 -51.91057,-0.00247 -75.16808,-0.06197c-27.61399,-0.06337 -57.80997,0.02973 -85.64586,-0.02702c-15.24347,-0.02841 -31.90507,-0.01112 -47.42446,-0.01031c-7.87299,0.00042 -14.62221,-0.03051 -18.07478,0.02742c-0.90746,0.01523 -0.00517,-0.03585 -0.00583,-0.05373c-0.00162,-0.04471 -0.01208,-0.08963 -0.01371,-0.13434c-0.00904,-0.25037 -0.02892,-0.50222 -0.038,-0.75259c-0.00216,-0.05919 1.49884,-0.27152 -1.59071,-0.29431c0.57949,-0.00038 1.2357,-0.00101 1.59627,-0.0013c3.19401,-0.00255 4.98276,-0.00088 7.47484,-0.01946c4.32652,-0.03226 18.94091,-0.00874 24.80854,-0.00897c22.80227,-0.0009 45.7259,-0.00287 68.52805,-0.00377c0,0 5.18809,-0.0003 5.18615,-0.05395c-0.00008,-0.0022 -0.0082,-0.00431 -0.025,-0.00634z" data-paper-data="{&quot;noHover&quot;:false,&quot;origItem&quot;:[&quot;Path&quot;,{&quot;applyMatrix&quot;:true,&quot;segments&quot;:[[[579.60736,595.76373],[0.95609,-0.20262],[0.00646,0.07548]],[[579.61718,596],[0,-0.08208],[0,2]],[[577.61718,598],[0,0],[-8.83333,0]],[[551.11718,598],[8.83333,0],[-2.27308,0]],[[541.51161,598.28885],[1.67648,-1.19621],[-0.96568,0.68904]],[[538.61718,599],[1.23739,-0.09027],[-0.13966,0.01019]],[[537.99901,599.04541],[0.22447,-0.0134],[1.19653,0.85421]],[[538.61718,610],[0,-2.20646],[0,9.33333]],[[538.61718,638],[0,-9.33333],[0,1.66667]],[[538.61718,643],[0,-1.66667],[0,0.66667]],[[538.61718,645],[-0.35177,0.56631],[1.33831,-2.15456]],[[545.61718,644],[-3.04994,0.00386],[6.01206,-0.00761]],[[563.97058,644.43107],[-5.90478,-1.08158],[10.78253,2.15651]],[[597.04254,645.54479],[-10.6965,-2.40266],[9.00888,2.25222]],[[626.11718,648],[-9.28168,0],[2.33333,0]],[[633.11718,648],[-2.33333,0],[0.35109,0]],[[634.59021,647.90091],[-0.5707,0.05184],[-0.57412,-1.02596]],[[634.61718,643],[0,1.39387],[0,-5.20707]],[[634.21982,624.13246],[2.14282,4.67827],[-1.8936,-5.6808]],[[628.03948,607.31672],[3.08887,5.66543],[-2.2791,-4.1802]],[[620.32688,595.27881],[1.8857,4.15235],[-0.91417,-2.47477]],[[615.61718,594],[2.9771,0.57275],[-6.58756,-1.26734]],[[595.61718,593],[6.8054,0],[-2.48058,0]],[[587.61718,593],[2.40395,0.50364],[-0.50743,-0.10631]],[[585.44122,592.1748],[0.71481,0.32365],[1.30749,1.01011]],[[582.51161,594.78885],[1.25365,-0.62682],[-0.98239,0.4912]]],&quot;closed&quot;:true}],&quot;index&quot;:null}" fill="#c9c9c9" fill-rule="nonzero" stroke="none" stroke-width="0" stroke-linecap="butt"/><path d="M553.00603,215.32224c-0.00023,-0.00622 -0.0721,-0.01664 -0.14082,-0.02687c-0.26581,0.00416 -0.66232,0.00772 -1.17233,0.01075c-1.52905,0.01623 -3.84966,0.01632 -3.84966,0.01632c-19.66498,0.00078 -31.018,0.14365 -37.9644,0.29374c-0.81722,0.01703 -0.74424,0.03751 -0.74355,0.05651c0.00019,0.00541 -0.04928,0.014 -0.10333,0.02289c0.05187,-0.00286 0.18162,-0.00522 0.44583,-0.00674c1.16745,-0.00671 11.32048,0.0337 12.5653,0.01016c0.37411,-0.00707 -1.83653,-0.00832 -1.71489,-0.01628c1.49592,-0.09791 17.39306,-0.24654 25.20886,-0.28747c2.02712,-0.01061 4.30933,-0.01601 6.5782,-0.01852c-0.88762,-0.01432 0.89142,-0.03637 0.89075,-0.0545zM509.00481,215.70003c-0.11636,0.01908 -0.21964,0.03731 0.1323,0.02632c0.24055,-0.00751 -0.1075,-0.01804 -0.1323,-0.02632zM500.64169,215.56856c7.37339,-0.14484 17.18205,-0.27703 32.47316,-0.32951c1.43576,-0.02339 4.39899,-0.0235 4.39899,-0.0235l2.58133,-0.0001c5.84505,-0.00023 8.93666,-0.02151 15.21502,-0.02176c8.71911,-0.00034 10.7468,0.17975 6.18928,0.23269c-2.87593,0.03341 -7.49058,0.04451 -11.34132,0.06468c-11.39829,0.05969 -15.62223,0.23007 -28.11122,0.31526c-13.23673,0.09029 -27.82001,-0.10408 -21.40526,-0.23775z" data-paper-data="{&quot;index&quot;:null}" fill="#000000" fill-rule="nonzero" stroke="none" stroke-width="0" stroke-linecap="butt"/><path d="M553.05695,215.29357c0.0689,0.01023 0.15272,0.02079 0.15293,0.02702c0.00065,0.01813 -1.75717,0.0405 -0.86956,0.05483c-2.2689,0.00252 -4.56421,0.00769 -6.59138,0.0183c-7.81589,0.04093 -23.78979,0.18881 -25.28565,0.28672c-0.12176,0.00796 1.84386,0.01393 1.46973,0.021c-1.24485,0.02353 -11.48582,-0.01758 -12.6533,-0.01087c-0.2643,0.00152 -0.39279,0.00389 -0.44459,0.00675c0.05405,-0.00889 0.09394,-0.01761 0.09375,-0.02301c-0.00068,-0.019 -0.09624,-0.03985 0.72101,-0.05688c6.94633,-0.1501 18.70926,-0.29613 38.37421,-0.29691c0,0 2.33114,0.00002 3.86018,-0.01621c0.51004,-0.00303 0.90682,-0.00659 1.17243,-0.01075z" data-paper-data="{&quot;noHover&quot;:false,&quot;origItem&quot;:[&quot;Path&quot;,{&quot;applyMatrix&quot;:true,&quot;segments&quot;:[[[607.563,601.99816],[0.02649,0.38155],[-0.10299,0.15484]],[[607.10872,602.39727],[0.1976,-0.11227],[-0.59254,0.60273]],[[605.61718,603],[0,0],[-7.618,0]],[[590.90604,613.89443],[2.69308,-5.58508],[-0.31682,0.63364]],[[590.61718,616],[0,-0.70843],[0,0.20156]],[[590.57685,616.85325],[0.02106,-0.33136],[0.02013,-0.10671]],[[590.74964,616.60263],[-0.10238,0.05628],[0.45234,-0.24865]],[[595.61718,617],[-0.48256,0.87548],[0.14503,-0.26312]],[[594.95308,616.3906],[-0.04725,0.29671],[0.58086,-3.64773]],[[604.72276,605.71115],[-3.02833,1.51416],[0.78545,-0.39273]],[[607.27135,605.03032],[-0.87898,0.0905],[-0.34365,-0.53523]],[[607.61718,603],[0,0.6759],[0,-0.23192]]],&quot;closed&quot;:true}],&quot;index&quot;:null}" fill="#ffffff" fill-rule="nonzero" stroke="none" stroke-width="0" stroke-linecap="butt"/><path d="M164.71899,215.10139l33.57675,-1.1901l93.69714,-0.00695l-19.76914,1.20128z" data-paper-data="{&quot;index&quot;:null}" fill="#cedce9" fill-rule="nonzero" stroke="#000000" stroke-width="0" stroke-linecap="round"/><path d="M155.80894,215.03857c-3.2355,-0.01694 -10.93595,-0.04346 -7.55991,-0.07042c-1.84559,0.00861 -4.30777,0.01911 -5.61781,0.02191c-6.20599,0.01327 -14.24765,-0.00056 -20.65104,-0.00081c-17.56731,-0.00069 -34.62226,-0.00854 -51.62851,0.02479c-7.68561,0.01506 -9.79648,-0.03247 -12.15878,0.03382c-4.8717,0.1112 -14.03364,0.21023 -19.92079,0.32214c-7.97904,0.15166 -11.07645,0.29826 -15.97007,0.45045c-5.53593,0.12528 -1.03896,0.3664 -1.04401,0.50608c-0.00135,0.03739 1.54789,0.10401 0.06491,0.13147c1.47321,0.00145 2.89607,0.00277 3.80232,0.00281c6.02324,0.00024 12.04639,0.00047 18.06966,0.00071c23.95951,0.00094 51.79746,-0.0034 75.05494,-0.0629c27.61399,-0.06336 57.53642,0.03024 85.37226,-0.02651c15.24348,-0.02841 31.85806,-0.01051 47.37744,-0.0097c7.87301,0.00041 14.6161,-0.03039 18.06866,0.02754c0.90746,0.01523 0.00129,-0.03577 0.00194,-0.05365c0.00162,-0.04471 0.00325,-0.08942 0.00485,-0.13413c0.00908,-0.25037 0.01812,-0.50074 0.0272,-0.7511c0.00216,-0.05919 -1.48319,-0.271 1.60635,-0.2938c-0.5794,-0.00038 -1.23515,-0.00099 -1.59566,-0.00128c-3.19412,-0.00255 -4.97879,-0.00079 -7.47096,-0.01937c-4.32652,-0.03226 -18.92768,-0.00849 -24.79534,-0.00872c-22.80214,-0.0009 -45.60426,-0.0018 -68.40647,-0.00269c0,0 -5.16274,-0.0002 -5.1608,-0.05385c0.00008,-0.0022 0.0088,-0.00431 0.02559,-0.00634c-2.46787,-0.00553 -4.96064,-0.01317 -7.49601,-0.02645zM236.85053,215.0206c13.76461,0.00054 31.35777,-0.02424 40.75384,0.08491c5.38439,0.06255 1.82628,0.26226 1.82327,0.34597c-0.00907,0.25037 -0.01813,0.50074 -0.0272,0.75111c-0.00103,0.02859 1.77206,0.17048 -0.0068,0.18778c-17.9674,0.17467 -51.81605,0.03658 -73.75043,0.08705c-27.21896,0.0555 -58.55864,-0.05353 -84.8929,0.02541c-23.97061,0.06132 -52.84632,0.06698 -77.55939,0.06601c-3.54483,-0.00014 -24.80439,0.02692 -27.10445,-0.00107c-6.59588,-0.08026 -5.15742,-0.14694 -5.15399,-0.24163c0.00619,-0.17127 -2.90798,-0.37554 1.5752,-0.53999c5.01563,-0.15599 8.53476,-0.3125 16.53093,-0.46449c3.22556,-0.06131 6.71019,-0.14335 10.87776,-0.19868c2.72704,-0.0362 7.9395,-0.0655 8.59231,-0.11267c4.42133,-0.12408 12.40168,-0.08305 21.84711,-0.10356c16.81399,-0.03651 34.21152,-0.02548 51.62851,-0.02479c6.42327,0.00025 18.97474,-0.02997 23.50567,-0.02023c7.88736,0.01695 12.45776,0.08703 20.10211,0.10809c5.60931,0.01545 11.5214,0.00667 18.06825,0.04095c0.49703,0.0026 0.99398,0.0052 1.49101,0.00781c17.23314,0.00068 34.46629,0.00136 51.69948,0.00204z" data-paper-data="{&quot;index&quot;:null}" fill="#000000" fill-rule="nonzero" stroke="none" stroke-width="0" stroke-linecap="butt"/><path d="M163.37679,215.06244c-0.0168,0.00202 -0.02491,0.00414 -0.025,0.00634c-0.00194,0.05365 5.18615,0.05395 5.18615,0.05395c22.80215,0.0009 45.72579,0.00287 68.52805,0.00377c5.86764,0.00023 20.48202,-0.02328 24.80854,0.00897c2.49208,0.01858 4.28083,0.01691 7.47484,0.01946c0.36057,0.00029 1.01678,0.00091 1.59627,0.0013c-3.08955,0.02279 -1.58855,0.23512 -1.59071,0.29431c-0.00907,0.25037 -0.02895,0.50222 -0.03799,0.75259c-0.00163,0.04471 -0.0121,0.08963 -0.01371,0.13434c-0.00066,0.01789 0.90163,0.06896 -0.00583,0.05373c-3.45256,-0.05793 -10.20178,-0.02701 -18.07478,-0.02742c-15.51939,-0.00081 -32.18099,-0.01811 -47.42446,0.01031c-27.83589,0.05675 -58.03187,-0.03634 -85.64586,0.02702c-23.25751,0.0595 -51.20845,0.06291 -75.16808,0.06197c-6.02324,-0.00024 -12.05696,-0.00064 -18.0802,-0.00088c-0.90632,-0.00004 -2.33116,-0.00139 -3.80425,-0.00284c1.48302,-0.02746 -0.07586,-0.09427 -0.07452,-0.13166c0.00506,-0.13968 -4.51614,-0.38174 1.01984,-0.50701c4.89361,-0.15219 8.00167,-0.29981 15.98073,-0.45147c5.88724,-0.1119 15.08788,-0.21174 19.95963,-0.32293c2.36227,-0.06629 4.48917,-0.01897 12.17477,-0.03403c17.00621,-0.03333 34.17192,-0.02623 51.73915,-0.02554c6.40323,0.00025 14.51696,0.01395 20.72296,0.00068c1.30991,-0.0028 3.79264,-0.0133 5.63821,-0.02191c-3.37613,0.02697 4.35494,0.05351 7.59043,0.07045c2.5355,0.01328 5.05832,0.02099 7.52615,0.02652z" data-paper-data="{&quot;noHover&quot;:false,&quot;origItem&quot;:[&quot;Path&quot;,{&quot;applyMatrix&quot;:true,&quot;segments&quot;:[[[579.60736,595.76373],[0.95609,-0.20262],[0.00646,0.07548]],[[579.61718,596],[0,-0.08208],[0,2]],[[577.61718,598],[0,0],[-8.83333,0]],[[551.11718,598],[8.83333,0],[-2.27308,0]],[[541.51161,598.28885],[1.67648,-1.19621],[-0.96568,0.68904]],[[538.61718,599],[1.23739,-0.09027],[-0.13966,0.01019]],[[537.99901,599.04541],[0.22447,-0.0134],[1.19653,0.85421]],[[538.61718,610],[0,-2.20646],[0,9.33333]],[[538.61718,638],[0,-9.33333],[0,1.66667]],[[538.61718,643],[0,-1.66667],[0,0.66667]],[[538.61718,645],[-0.35177,0.56631],[1.33831,-2.15456]],[[545.61718,644],[-3.04994,0.00386],[6.01206,-0.00761]],[[563.97058,644.43107],[-5.90478,-1.08158],[10.78253,2.15651]],[[597.04254,645.54479],[-10.6965,-2.40266],[9.00888,2.25222]],[[626.11718,648],[-9.28168,0],[2.33333,0]],[[633.11718,648],[-2.33333,0],[0.35109,0]],[[634.59021,647.90091],[-0.5707,0.05184],[-0.57412,-1.02596]],[[634.61718,643],[0,1.39387],[0,-5.20707]],[[634.21982,624.13246],[2.14282,4.67827],[-1.8936,-5.6808]],[[628.03948,607.31672],[3.08887,5.66543],[-2.2791,-4.1802]],[[620.32688,595.27881],[1.8857,4.15235],[-0.91417,-2.47477]],[[615.61718,594],[2.9771,0.57275],[-6.58756,-1.26734]],[[595.61718,593],[6.8054,0],[-2.48058,0]],[[587.61718,593],[2.40395,0.50364],[-0.50743,-0.10631]],[[585.44122,592.1748],[0.71481,0.32365],[1.30749,1.01011]],[[582.51161,594.78885],[1.25365,-0.62682],[-0.98239,0.4912]]],&quot;closed&quot;:true}],&quot;index&quot;:null}" fill="#c9c9c9" fill-rule="nonzero" stroke="none" stroke-width="0" stroke-linecap="butt"/><path d="M90.99403,215.25628c-0.00067,0.01813 1.77837,0.04018 0.89076,0.0545c2.26887,0.00252 4.55109,0.00791 6.5782,0.01852c7.8158,0.04093 23.71294,0.18956 25.20885,0.28747c0.12164,0.00796 -2.08899,0.00921 -1.71489,0.01628c1.24482,0.02354 11.39785,-0.01688 12.5653,-0.01016c0.26421,0.00152 0.39396,0.00388 0.44583,0.00674c-0.05406,-0.00889 -0.10352,-0.01749 -0.10333,-0.02289c0.00069,-0.019 0.07367,-0.03948 -0.74355,-0.05651c-6.9464,-0.1501 -18.29942,-0.29297 -37.9644,-0.29374c0,0 -2.32061,-0.00009 -3.84966,-0.01632c-0.51,-0.00303 -0.90652,-0.00659 -1.17233,-0.01075c-0.06872,0.01023 -0.14059,0.02065 -0.14083,0.02687zM134.86289,215.66038c0.35194,0.011 0.24865,-0.00724 0.13229,-0.02632c-0.0248,0.00828 -0.37284,0.0188 -0.13229,0.02632zM143.35832,215.5026c6.41475,0.13367 -8.16853,0.32804 -21.40526,0.23775c-12.48898,-0.08519 -16.71293,-0.25557 -28.11122,-0.31526c-3.85074,-0.02016 -8.46538,-0.03127 -11.34132,-0.06468c-4.55751,-0.05294 -2.52983,-0.23303 6.18928,-0.23269c6.27836,0.00025 9.36997,0.02153 15.21501,0.02176l2.58133,0.0001c0,0 2.96323,0.00012 4.39899,0.0235c15.29111,0.05248 25.09977,0.18467 32.47316,0.32951z" data-paper-data="{&quot;index&quot;:null}" fill="#000000" fill-rule="nonzero" stroke="none" stroke-width="0" stroke-linecap="butt"/><path d="M90.94327,215.2276c0.26561,0.00416 0.6624,0.00772 1.17244,0.01075c1.52904,0.01623 3.86019,0.01621 3.86019,0.01621c19.66494,0.00078 31.42788,0.14681 38.37421,0.29691c0.81725,0.01703 0.72169,0.03788 0.72101,0.05688c-0.00018,0.00541 0.03971,0.01412 0.09375,0.02301c-0.0518,-0.00287 -0.18028,-0.00523 -0.44458,-0.00675c-1.16748,-0.00671 -11.40845,0.0344 -12.6533,0.01087c-0.37414,-0.00707 1.5915,-0.01304 1.46973,-0.021c-1.49586,-0.09791 -17.46976,-0.2458 -25.28565,-0.28672c-2.02717,-0.01061 -4.32249,-0.01579 -6.59138,-0.0183c0.88761,-0.01432 -0.87021,-0.0367 -0.86955,-0.05483c0.00022,-0.00622 0.08403,-0.01679 0.15293,-0.02702z" data-paper-data="{&quot;noHover&quot;:false,&quot;origItem&quot;:[&quot;Path&quot;,{&quot;applyMatrix&quot;:true,&quot;segments&quot;:[[[607.563,601.99816],[0.02649,0.38155],[-0.10299,0.15484]],[[607.10872,602.39727],[0.1976,-0.11227],[-0.59254,0.60273]],[[605.61718,603],[0,0],[-7.618,0]],[[590.90604,613.89443],[2.69308,-5.58508],[-0.31682,0.63364]],[[590.61718,616],[0,-0.70843],[0,0.20156]],[[590.57685,616.85325],[0.02106,-0.33136],[0.02013,-0.10671]],[[590.74964,616.60263],[-0.10238,0.05628],[0.45234,-0.24865]],[[595.61718,617],[-0.48256,0.87548],[0.14503,-0.26312]],[[594.95308,616.3906],[-0.04725,0.29671],[0.58086,-3.64773]],[[604.72276,605.71115],[-3.02833,1.51416],[0.78545,-0.39273]],[[607.27135,605.03032],[-0.87898,0.0905],[-0.34365,-0.53523]],[[607.61718,603],[0,0.6759],[0,-0.23192]]],&quot;closed&quot;:true}],&quot;index&quot;:null}" fill="#ffffff" fill-rule="nonzero" stroke="none" stroke-width="0" stroke-linecap="butt"/><path d="M164.71899,215.10139l33.57674,-1.1901l93.69715,-0.00695l-19.76914,1.20128z" data-paper-data="{&quot;index&quot;:null}" fill="#cedce9" fill-rule="nonzero" stroke="#000000" stroke-width="0" stroke-linecap="round"/><path d="M155.80894,215.03857c-3.2355,-0.01694 -10.93595,-0.04346 -7.55991,-0.07042c-1.84559,0.00861 -4.30777,0.01911 -5.61781,0.02191c-6.20599,0.01327 -14.24765,-0.00056 -20.65104,-0.00081c-17.56731,-0.00069 -34.62226,-0.00854 -51.62851,0.02479c-7.68561,0.01506 -9.79648,-0.03247 -12.15878,0.03382c-4.8717,0.1112 -14.03364,0.21023 -19.92079,0.32214c-7.97904,0.15166 -11.07645,0.29826 -15.97007,0.45045c-5.53593,0.12528 -1.03896,0.3664 -1.04401,0.50608c-0.00135,0.03739 1.54789,0.10401 0.06491,0.13147c1.47321,0.00145 2.89607,0.00277 3.80232,0.00281c6.02324,0.00024 12.04639,0.00047 18.06966,0.00071c23.95951,0.00094 51.79746,-0.0034 75.05494,-0.0629c27.61399,-0.06336 57.53642,0.03024 85.37227,-0.02651c15.24348,-0.02841 31.85806,-0.01051 47.37744,-0.0097c7.87301,0.00041 14.6161,-0.03039 18.06866,0.02754c0.90746,0.01523 0.00129,-0.03577 0.00194,-0.05365c0.00162,-0.04471 0.00325,-0.08942 0.00485,-0.13413c0.00908,-0.25037 0.01812,-0.50074 0.0272,-0.7511c0.00216,-0.05919 -1.48319,-0.271 1.60635,-0.2938c-0.5794,-0.00038 -1.23515,-0.00099 -1.59566,-0.00128c-3.19412,-0.00255 -4.97879,-0.00079 -7.47096,-0.01937c-4.32652,-0.03226 -18.92768,-0.00849 -24.79534,-0.00872c-22.80214,-0.0009 -45.60426,-0.0018 -68.40647,-0.00269c0,0 -5.16274,-0.0002 -5.1608,-0.05385c0.00007,-0.0022 0.00879,-0.00431 0.02558,-0.00634c-2.46786,-0.00553 -4.96064,-0.01317 -7.49601,-0.02645zM236.85053,215.0206c13.7646,0.00054 31.35776,-0.02424 40.75383,0.08491c5.38439,0.06255 1.82628,0.26226 1.82328,0.34597c-0.00908,0.25037 -0.01813,0.50074 -0.0272,0.75111c-0.00103,0.02859 1.77206,0.17048 -0.0068,0.18778c-17.9674,0.17467 -51.81605,0.03658 -73.75043,0.08705c-27.21896,0.0555 -58.55864,-0.05353 -84.8929,0.02541c-23.97061,0.06132 -52.84633,0.06698 -77.5594,0.06601c-3.54483,-0.00014 -24.80438,0.02692 -27.10445,-0.00107c-6.59588,-0.08026 -5.15742,-0.14694 -5.15399,-0.24163c0.00619,-0.17127 -2.90798,-0.37554 1.5752,-0.53999c5.01563,-0.15599 8.53476,-0.3125 16.53093,-0.46449c3.22556,-0.06131 6.71019,-0.14335 10.87775,-0.19868c2.72704,-0.0362 7.9395,-0.0655 8.59231,-0.11267c4.42133,-0.12408 12.40169,-0.08305 21.84712,-0.10356c16.81399,-0.03651 34.21151,-0.02548 51.62851,-0.02479c6.42327,0.00025 18.97474,-0.02997 23.50567,-0.02023c7.88736,0.01695 12.45777,0.08703 20.10212,0.10809c5.60932,0.01545 11.5214,0.00667 18.06825,0.04095c0.49703,0.0026 0.99398,0.0052 1.49101,0.00781c17.23314,0.00068 34.46629,0.00136 51.69948,0.00204z" data-paper-data="{&quot;index&quot;:null}" fill="#000000" fill-rule="nonzero" stroke="none" stroke-width="0" stroke-linecap="butt"/><path d="M163.37679,215.06244c-0.0168,0.00202 -0.02491,0.00414 -0.025,0.00634c-0.00194,0.05365 5.18615,0.05395 5.18615,0.05395c22.80215,0.0009 45.72579,0.00287 68.52805,0.00377c5.86764,0.00023 20.48202,-0.02328 24.80854,0.00897c2.49208,0.01858 4.28083,0.01691 7.47484,0.01946c0.36057,0.00029 1.01678,0.00091 1.59627,0.0013c-3.08955,0.02279 -1.58855,0.23512 -1.59071,0.29431c-0.00907,0.25037 -0.02895,0.50222 -0.03799,0.75259c-0.00163,0.04471 -0.0121,0.08963 -0.01371,0.13434c-0.00066,0.01789 0.90163,0.06896 -0.00583,0.05373c-3.45256,-0.05793 -10.20178,-0.02701 -18.07478,-0.02742c-15.51939,-0.00081 -32.18099,-0.01811 -47.42446,0.01031c-27.83589,0.05675 -58.03187,-0.03634 -85.64586,0.02702c-23.25751,0.0595 -51.20845,0.06291 -75.16808,0.06197c-6.02324,-0.00024 -12.05696,-0.00064 -18.0802,-0.00088c-0.90632,-0.00004 -2.33116,-0.00139 -3.80425,-0.00284c1.48302,-0.02746 -0.07586,-0.09427 -0.07452,-0.13166c0.00506,-0.13968 -4.51614,-0.38174 1.01984,-0.50701c4.89361,-0.15219 8.00167,-0.29981 15.98073,-0.45147c5.88724,-0.1119 15.08788,-0.21174 19.95963,-0.32293c2.36227,-0.06629 4.48917,-0.01897 12.17477,-0.03403c17.00621,-0.03333 34.17192,-0.02623 51.73915,-0.02554c6.40323,0.00025 14.51696,0.01395 20.72296,0.00068c1.30991,-0.0028 3.79264,-0.0133 5.63821,-0.02191c-3.37613,0.02697 4.35494,0.05351 7.59043,0.07045c2.5355,0.01328 5.05832,0.02099 7.52615,0.02652z" data-paper-data="{&quot;noHover&quot;:false,&quot;origItem&quot;:[&quot;Path&quot;,{&quot;applyMatrix&quot;:true,&quot;segments&quot;:[[[579.60736,595.76373],[0.95609,-0.20262],[0.00646,0.07548]],[[579.61718,596],[0,-0.08208],[0,2]],[[577.61718,598],[0,0],[-8.83333,0]],[[551.11718,598],[8.83333,0],[-2.27308,0]],[[541.51161,598.28885],[1.67648,-1.19621],[-0.96568,0.68904]],[[538.61718,599],[1.23739,-0.09027],[-0.13966,0.01019]],[[537.99901,599.04541],[0.22447,-0.0134],[1.19653,0.85421]],[[538.61718,610],[0,-2.20646],[0,9.33333]],[[538.61718,638],[0,-9.33333],[0,1.66667]],[[538.61718,643],[0,-1.66667],[0,0.66667]],[[538.61718,645],[-0.35177,0.56631],[1.33831,-2.15456]],[[545.61718,644],[-3.04994,0.00386],[6.01206,-0.00761]],[[563.97058,644.43107],[-5.90478,-1.08158],[10.78253,2.15651]],[[597.04254,645.54479],[-10.6965,-2.40266],[9.00888,2.25222]],[[626.11718,648],[-9.28168,0],[2.33333,0]],[[633.11718,648],[-2.33333,0],[0.35109,0]],[[634.59021,647.90091],[-0.5707,0.05184],[-0.57412,-1.02596]],[[634.61718,643],[0,1.39387],[0,-5.20707]],[[634.21982,624.13246],[2.14282,4.67827],[-1.8936,-5.6808]],[[628.03948,607.31672],[3.08887,5.66543],[-2.2791,-4.1802]],[[620.32688,595.27881],[1.8857,4.15235],[-0.91417,-2.47477]],[[615.61718,594],[2.9771,0.57275],[-6.58756,-1.26734]],[[595.61718,593],[6.8054,0],[-2.48058,0]],[[587.61718,593],[2.40395,0.50364],[-0.50743,-0.10631]],[[585.44122,592.1748],[0.71481,0.32365],[1.30749,1.01011]],[[582.51161,594.78885],[1.25365,-0.62682],[-0.98239,0.4912]]],&quot;closed&quot;:true}],&quot;index&quot;:null}" fill="#c9c9c9" fill-rule="nonzero" stroke="none" stroke-width="0" stroke-linecap="butt"/><path d="M90.99402,215.25628c-0.00067,0.01813 1.77837,0.04018 0.89075,0.0545c2.26887,0.00252 4.55109,0.00791 6.5782,0.01852c7.8158,0.04093 23.71294,0.18956 25.20885,0.28747c0.12164,0.00796 -2.08899,0.00921 -1.71489,0.01628c1.24482,0.02354 11.39785,-0.01688 12.5653,-0.01016c0.26421,0.00152 0.39396,0.00388 0.44583,0.00674c-0.05406,-0.00889 -0.10352,-0.01749 -0.10333,-0.02289c0.00069,-0.019 0.07367,-0.03948 -0.74355,-0.05651c-6.9464,-0.1501 -18.29942,-0.29297 -37.9644,-0.29374c0,0 -2.32061,-0.00009 -3.84966,-0.01632c-0.51,-0.00303 -0.90653,-0.00659 -1.17233,-0.01075c-0.06872,0.01023 -0.14059,0.02065 -0.14082,0.02687zM134.86289,215.66038c0.35194,0.011 0.24865,-0.00724 0.13229,-0.02632c-0.0248,0.00828 -0.37284,0.0188 -0.13229,0.02632zM143.35832,215.5026c6.41475,0.13367 -8.16853,0.32804 -21.40526,0.23775c-12.48898,-0.08519 -16.71293,-0.25557 -28.11122,-0.31526c-3.85074,-0.02016 -8.46538,-0.03127 -11.34132,-0.06468c-4.55751,-0.05294 -2.52983,-0.23303 6.18928,-0.23269c6.27836,0.00025 9.36997,0.02153 15.21501,0.02176l2.58133,0.0001c0,0 2.96323,0.00012 4.39899,0.0235c15.29111,0.05248 25.09977,0.18467 32.47316,0.32951z" data-paper-data="{&quot;index&quot;:null}" fill="#000000" fill-rule="nonzero" stroke="none" stroke-width="0" stroke-linecap="butt"/><path d="M90.94327,215.2276c0.26561,0.00416 0.6624,0.00772 1.17244,0.01075c1.52904,0.01623 3.86019,0.01621 3.86019,0.01621c19.66494,0.00078 31.42788,0.14681 38.37421,0.29691c0.81725,0.01703 0.72169,0.03788 0.72101,0.05688c-0.00018,0.00541 0.03971,0.01412 0.09375,0.02301c-0.0518,-0.00287 -0.18028,-0.00523 -0.44458,-0.00675c-1.16748,-0.00671 -11.40845,0.0344 -12.6533,0.01087c-0.37414,-0.00707 1.5915,-0.01304 1.46973,-0.021c-1.49586,-0.09791 -17.46976,-0.2458 -25.28565,-0.28672c-2.02717,-0.01061 -4.32249,-0.01579 -6.59138,-0.0183c0.88761,-0.01432 -0.87021,-0.0367 -0.86955,-0.05483c0.00022,-0.00622 0.08403,-0.01679 0.15293,-0.02702z" data-paper-data="{&quot;noHover&quot;:false,&quot;origItem&quot;:[&quot;Path&quot;,{&quot;applyMatrix&quot;:true,&quot;segments&quot;:[[[607.563,601.99816],[0.02649,0.38155],[-0.10299,0.15484]],[[607.10872,602.39727],[0.1976,-0.11227],[-0.59254,0.60273]],[[605.61718,603],[0,0],[-7.618,0]],[[590.90604,613.89443],[2.69308,-5.58508],[-0.31682,0.63364]],[[590.61718,616],[0,-0.70843],[0,0.20156]],[[590.57685,616.85325],[0.02106,-0.33136],[0.02013,-0.10671]],[[590.74964,616.60263],[-0.10238,0.05628],[0.45234,-0.24865]],[[595.61718,617],[-0.48256,0.87548],[0.14503,-0.26312]],[[594.95308,616.3906],[-0.04725,0.29671],[0.58086,-3.64773]],[[604.72276,605.71115],[-3.02833,1.51416],[0.78545,-0.39273]],[[607.27135,605.03032],[-0.87898,0.0905],[-0.34365,-0.53523]],[[607.61718,603],[0,0.6759],[0,-0.23192]]],&quot;closed&quot;:true}],&quot;index&quot;:null}" fill="#ffffff" fill-rule="nonzero" stroke="none" stroke-width="0" stroke-linecap="butt"/><g><path d="M583.58896,212.92029c0.30548,0.02865 0.40835,0.05949 0.31172,0.09253c-2.54985,0.00335 -5.04361,-0.00008 -7.48125,-0.01028c2.39087,0 4.77864,0 7.16953,0c0,-0.02742 0,-0.05483 0,-0.08225z" data-paper-data="{&quot;index&quot;:null}" fill="#6b6b6b" fill-rule="evenodd" stroke="none" stroke-width="0" stroke-linecap="butt"/><path d="M594.1874,212.9717c0.2899,0.01098 0.39589,0.02468 0.31172,0.04112c-3.17329,0.00336 -6.29048,-0.00006 -9.35156,-0.01028c3.01432,0 6.02552,0 9.03984,0c0,-0.01028 0,-0.02056 0,-0.03084z" data-paper-data="{&quot;index&quot;:null}" fill="#9e9e9e" fill-rule="evenodd" stroke="none" stroke-width="0" stroke-linecap="butt"/><path d="M502.54206,213.01282c2.54674,0 5.04049,0.00343 7.48125,0.01028c-5.01244,-0.00326 -9.99995,0.00016 -14.96252,0.01028c2.38152,-0.01368 4.87528,-0.02054 7.48125,-0.02056z" data-paper-data="{&quot;index&quot;:null}" fill="#484848" fill-rule="evenodd" stroke="none" stroke-width="0" stroke-linecap="butt"/><path d="M83.28014,213.08478c3.79611,-0.00337 7.53673,0.00005 11.22188,0.01028c-3.81888,-0.00631 -7.5595,0.00054 -11.22188,0.02056c0,-0.01028 0,-0.02056 0,-0.03084z" data-paper-data="{&quot;index&quot;:null}" fill="#838383" fill-rule="evenodd" stroke="none" stroke-width="0" stroke-linecap="butt"/><path d="M23.86418,207.28994l1.47565,0.00811l164.59665,0.073v0.53543l95.364,0.00203v1.03419l49.18839,0.08922l0.49189,-0.60835l91.55189,0.073v0.60835l29.51303,0.00811v2.07447l15.00246,0.02231l140.2484,0.03853l-1.96753,3.42297l-3.44319,0.00406l-323.98511,0.146l-0.24594,-0.32486l-257.6242,-0.01014v-0.1825v-6.95545z" fill="#413831" fill-rule="nonzero" stroke="#000000" stroke-width="1" stroke-linecap="round"/><path d="M140.93421,211.22311l29.28309,0.01989v2.51073l-30.69432,0.01989l0.35281,-2.54926z" fill="#928b78" fill-rule="nonzero" stroke="#000000" stroke-width="1" stroke-linecap="round"/><path d="M132.35772,213.80391l-50.56643,-0.04499l1.28832,-2.60801l48.95603,0.03999z" fill="#928b78" fill-rule="nonzero" stroke="#000000" stroke-width="1" stroke-linecap="round"/><path d="M74.69809,213.81169l-16.175,-0.04906l-1.4516,-2.51455l16.58974,-0.05397z" fill="#928b78" fill-rule="nonzero" stroke="#000000" stroke-width="1" stroke-linecap="round"/><path d="M189.82375,207.36353l2.01613,3.56645l-168.16349,-0.09067l0.54985,-3.52413z" fill="#736c59" fill-rule="nonzero" stroke="#000000" stroke-width="1" stroke-linecap="round"/><path d="M189.13717,207.37917l-180.02951,-0.08111l-6.82489,-0.4299l192.94147,0.22712l16.23217,0.52723l104.09493,0.02433l-2.21348,0.31634l-105.01721,-0.073l-18.69159,0.02433z" fill="#8b8471" fill-rule="nonzero" stroke="#000000" stroke-width="1" stroke-linecap="round"/><path d="M314.07569,208.39916l-2.21348,-0.17845l139.69503,0.04056l-6.64043,0.25145l-129.36547,-0.08922" fill="#8b8471" fill-rule="nonzero" stroke="#000000" stroke-width="1" stroke-linecap="round"/><path d="M283.087,208.75606l52.1397,0.04056l-0.84551,0.21089l-50.16685,-0.03244z" fill="#8b8471" fill-rule="nonzero" stroke="#000000" stroke-width="1" stroke-linecap="round"/><path d="M425.73335,208.91017l63.69896,-0.08922l-5.16478,0.29201l-58.04231,0.01622z" fill="#8b8471" fill-rule="nonzero" stroke="#000000" stroke-width="1" stroke-linecap="round"/><path d="M456.59904,210.95828l-171.91343,-0.0551v-1.65313h51.34039v0.95449l90.70547,0.04028l-1.12111,-0.82748l30.98869,0.04723z" fill="#262626" fill-rule="nonzero" stroke="#000000" stroke-width="1" stroke-linecap="round"/><path d="M279.64481,211.13876l-0.73782,-0.25956l356.43138,0.06489l-3.93507,0.30012l-174.98871,-0.04867z" fill="#8b8471" fill-rule="nonzero" stroke="#000000" stroke-width="1" stroke-linecap="round"/><path d="M426.59513,208.48839l1.22971,1.76827l-92.22823,-0.073l-0.49189,-1.75204z" fill="#736c59" fill-rule="nonzero" stroke="#000000" stroke-width="1" stroke-linecap="round"/><path d="M352.51246,208.74021l56.1736,-0.00906l1.09875,1.26831l-57.82173,-0.02718z" fill="#515a61" fill-rule="nonzero" stroke="#000000" stroke-width="1" stroke-linecap="round"/><path d="M212.04412,211.85096h59.05783l0.54937,2.65744l-62.90345,-0.01812l0.27469,-2.66232z" fill="#090909" fill-rule="nonzero" stroke="#000000" stroke-width="1" stroke-linecap="round"/><path d="M226.19052,211.84269h32.13844l0.82407,2.66345l-33.78657,-0.00453l0.13735,-2.6827z" fill="#2d0d0e" fill-rule="nonzero" stroke="#000000" stroke-width="1" stroke-linecap="round"/><path d="M271.17061,213.68401h228.86105v1.02484l-218.75429,0.11664l-0.13735,-0.3352l-9.47672,0.00453l-0.27469,-0.78363" fill="#807165" fill-rule="nonzero" stroke="#000000" stroke-width="1" stroke-linecap="round"/><path d="M46.78059,210.87901l0.27469,3.60676l-23.89782,0.02718l0.68672,-3.66904l22.93641,0.00453z" fill="#807165" fill-rule="nonzero" stroke="#000000" stroke-width="1" stroke-linecap="round"/><path d="M173.27421,210.89826h18.02637l0.17168,3.59543l-17.44266,0.00566z" fill="#807165" fill-rule="nonzero" stroke="#000000" stroke-width="1" stroke-linecap="round"/><path d="M298.53173,214.8119v-2.6091l173.05315,0.00453l0.27469,2.52303z" fill="#928b78" fill-rule="nonzero" stroke="#000000" stroke-width="1" stroke-linecap="round"/><path d="M304.54052,214.82209l-0.41203,-2.46867l160.17717,0.00453l0.41203,2.37695z" fill="#3c332c" fill-rule="nonzero" stroke="#000000" stroke-width="1" stroke-linecap="round"/><path d="M500.11805,214.73489l-0.96141,-2.50378l79.96841,0.00906l-0.96141,2.45961z" fill="#928b78" fill-rule="nonzero" stroke="#000000" stroke-width="1" stroke-linecap="round"/><path d="M502.38422,214.75301v-2.36676l68.91224,0.00906l-1.2361,2.309z" fill="#3c332c" fill-rule="nonzero" stroke="#000000" stroke-width="1" stroke-linecap="round"/><path d="M301.66093,209.84205l-2.33484,0.13589l-4.25766,-0.00453l-11.26219,-0.70663l-126.90565,-0.05889l-4.25766,-0.24913l137.89315,0.02265z" fill="#8b8471" fill-rule="nonzero" stroke="#000000" stroke-width="1" stroke-linecap="round"/><path d="M140.55206,207.65614l1.64812,1.9455l-77.49622,-0.00453l-0.27469,-2.01797z" fill="#515a61" fill-rule="nonzero" stroke="#000000" stroke-width="1" stroke-linecap="round"/><path d="M128.63749,213.67948l-43.12595,-0.04077l1.09875,-2.36336l41.7525,0.03624z" fill="#515a61" fill-rule="nonzero" stroke="#000000" stroke-width="1" stroke-linecap="round"/><path d="M71.7219,213.71119l-10.71282,-0.0453l-0.9614,-2.32146l10.9875,-0.04983z" fill="#515a61" fill-rule="nonzero" stroke="#000000" stroke-width="1" stroke-linecap="round"/><path d="M144.01997,211.3365l22.79906,0.01812v2.28749l-23.89781,0.01812l0.27469,-2.32259z" fill="#515a61" fill-rule="nonzero" stroke="#000000" stroke-width="1" stroke-linecap="round"/></g><path d="M266.7374,209.61036c-0.06886,0.03488 0.00324,0.06824 0.21652,0.10006c-0.01299,0.00418 -0.08508,0.00674 -0.21652,0.0077c-0.28406,-0.03709 -0.28406,-0.07301 0,-0.10776z" data-paper-data="{&quot;index&quot;:null}" fill="#9e9e9e" fill-rule="evenodd" stroke="none" stroke-width="0" stroke-linecap="butt"/><path d="M241.93693,209.41009h5.67459v0.21834l-0.94576,-0.18715z" fill="#736d42" fill-rule="evenodd" stroke="none" stroke-width="0" stroke-linecap="butt"/><path d="M210.38099,209.80468c0.2303,0 0.42369,0.00131 0.58609,0.00352c2.53071,-0.11017 6.76151,-0.16624 10.81448,-0.16445c0.68051,0.0003 5.0493,0.01332 5.75233,0.03141c1.54118,0.03966 2.05379,0.11393 3.14937,0.16922c4.54198,0.22923 5.31977,0.46552 0.40807,0.69562c-3.45876,0.06872 -6.25406,0.12999 -10.36086,0.12687c-11.63946,-0.00886 -14.77262,-0.47614 -11.71253,-0.80275l-0.07372,-0.00837c0,0 0,-0.05108 1.43679,-0.05108zM211.44232,209.93227c-1.92196,0.25634 0.10682,0.62818 9.27893,0.63244c3.39694,0.00158 5.58728,-0.04738 8.48976,-0.10196c3.8961,-0.18816 2.73031,-0.37827 -0.87536,-0.55947c-0.91642,-0.04605 -1.22531,-0.10953 -2.46377,-0.1448c-1.08144,-0.03079 -2.75641,-0.01141 -4.14159,-0.01261c-3.39953,-0.00294 -7.58619,0.05054 -9.17377,0.15919c0,0 -0.39092,0.02502 -1.1142,0.0272z" data-paper-data="{&quot;index&quot;:null}" fill="#75dbff" fill-rule="nonzero" stroke="none" stroke-width="0" stroke-linecap="butt"/><path d="M212.51175,209.9038c1.58757,-0.10866 5.82161,-0.16289 9.22113,-0.15996c1.38519,0.0012 3.07981,-0.01803 4.16125,0.01277c1.23847,0.03527 1.56604,0.0992 2.48244,0.14525c3.60566,0.1812 4.76937,0.37424 0.8733,0.5624c-2.9025,0.05458 -5.13411,0.10408 -8.53104,0.1025c-9.17211,-0.00427 -11.24699,-0.37924 -9.32505,-0.63558c0.72328,-0.00218 1.11795,-0.02738 1.11795,-0.02738z" data-paper-data="{&quot;noHover&quot;:false,&quot;origItem&quot;:[&quot;Path&quot;,{&quot;applyMatrix&quot;:true,&quot;segments&quot;:[[[409.4867,271.35519],[1.25852,-0.10678],[-3.34423,12.54639]],[[425.63199,302.31001],[-15.95943,-0.20878],[5.91067,0.07732]],[[440.40413,297.31952],[-5.05034,2.67171],[6.7792,-9.20965]],[[438.881,269.93654],[6.27385,8.86861],[-1.59451,-2.25397]],[[434.59405,262.84941],[2.15492,1.72602],[-1.88172,-1.50719]],[[427.3877,262.23225],[2.4102,0.05859],[-5.91515,-0.1438]],[[411.4254,270.0241],[2.76238,-5.31806],[0,0]]],&quot;closed&quot;:true}],&quot;index&quot;:null}" fill="#ffffff" fill-rule="nonzero" stroke="none" stroke-width="0" stroke-linecap="butt"/><path d="M245.01954,209.77561c3.84852,-0.0476 8.09747,0.00512 11.98494,0.05558c0.91883,0.01193 4.11387,0.04633 4.83263,0.08208c1.73039,0.08606 1.55353,0.22664 1.86624,0.32667c0.29339,0.09385 0.87652,0.18522 -0.91547,0.2679c-3.13895,0.14483 -7.87289,0.19683 -12.60766,0.2416c-2.18712,0.00927 -4.14864,0.03359 -6.1682,-0.01897c-1.21965,-0.03174 -2.41076,-0.13767 -2.99129,-0.18395c-1.9755,-0.1575 -5.16204,-0.36407 -3.48967,-0.54423c0.56682,-0.06106 3.45026,-0.13348 4.44459,-0.18826l1.7368,-0.03574c0,0 0.67433,-0.01317 1.30712,-0.00269zM243.49734,209.9073c-0.98323,0.0377 -3.13818,0.11068 -3.25471,0.12881c-1.04127,0.16203 1.64864,0.32802 3.40689,0.46915c0.13897,0.01115 1.4949,0.12638 2.06621,0.14295c0.92941,0.02695 3.15207,0.00474 3.91093,0.00099c4.20496,-0.03997 7.93205,-0.08232 10.87651,-0.20332c1.22934,-0.05052 0.52019,-0.13878 0.34432,-0.19462c-0.24066,-0.07642 0.00429,-0.20542 -1.23263,-0.27323c-0.70184,-0.03847 -2.38357,-0.03517 -3.59544,-0.05088c-3.45236,-0.04476 -8.2376,-0.117 -11.46988,-0.02984c0,0 -0.48436,0.0123 -1.05224,0.00998z" data-paper-data="{&quot;index&quot;:null}" fill="#75dbff" fill-rule="nonzero" stroke="none" stroke-width="0" stroke-linecap="butt"/><path d="M244.52013,209.89556c3.23228,-0.08716 8.07575,-0.01493 11.52812,0.02982c1.21186,0.01571 2.90793,0.01283 3.6098,0.0513c1.2369,0.06781 1.00622,0.19811 1.24689,0.27453c0.17584,0.05584 0.87832,0.1451 -0.35105,0.19562c-2.94446,0.12099 -6.7274,0.16442 -10.93239,0.20439c-0.75885,0.00375 -2.99985,0.02579 -3.92924,-0.00116c-0.5713,-0.01657 -1.94448,-0.13221 -2.0835,-0.14337c-1.75824,-0.14113 -4.45661,-0.30962 -3.41535,-0.47165c0.11653,-0.01813 2.2871,-0.09172 3.27032,-0.12941c0.56787,0.00232 1.05636,-0.01008 1.05636,-0.01008z" data-paper-data="{&quot;noHover&quot;:false,&quot;origItem&quot;:[&quot;Path&quot;,{&quot;applyMatrix&quot;:true,&quot;segments&quot;:[[[465.26223,270.13291],[0.98811,0.11339],[-1.71083,1.84504]],[[459.59907,276.43751],[0.20277,-0.88758],[-1.81178,7.93053]],[[465.52703,299.40029],[-3.05933,-6.90758],[0.24182,0.54599]],[[469.12222,306.39679],[-0.99407,-0.81085],[1.61715,1.31908]],[[475.92722,306.44514],[-1.32039,0.18358],[7.31661,-1.95648]],[[494.85229,296.49376],[-5.12332,5.92193],[2.13908,-2.47252]],[[495.45142,286.96818],[0.30597,2.73324],[-0.41874,-3.7406]],[[493.30665,273.59497],[2.15221,3.31878],[-1.22123,-1.88318]],[[487.05062,271.1046],[2.10865,0.76899],[-6.0071,-2.19068]],[[467.0931,269.64433],[5.62415,-4.26625],[0,0]]],&quot;closed&quot;:true}],&quot;index&quot;:null}" fill="#ffffff" fill-rule="nonzero" stroke="none" stroke-width="0" stroke-linecap="butt"/><path d="M227.49907,210.18032c0,-0.04514 1.02922,-0.08172 2.29886,-0.08172c1.26963,0 2.29886,0.03659 2.29886,0.08172c0,0.04514 -1.02923,0.08172 -2.29886,0.08172c-1.26963,0 -2.29886,-0.03659 -2.29886,-0.08172z" data-paper-data="{&quot;index&quot;:null}" fill="#000000" fill-rule="nonzero" stroke="none" stroke-width="0" stroke-linecap="butt"/><path d="M256.87772,210.25987c0,-0.04514 1.02922,-0.08172 2.29886,-0.08172c1.26963,0 2.29886,0.03659 2.29886,0.08172c0,0.04514 -1.02923,0.08172 -2.29886,0.08172c-1.26963,0 -2.29886,-0.03659 -2.29886,-0.08172z" data-paper-data="{&quot;index&quot;:null}" fill="#000000" fill-rule="nonzero" stroke="none" stroke-width="0" stroke-linecap="butt"/><path d="M184.59694,208.31301c0.63758,-0.034 1.59397,-0.01133 1.59397,-0.01133l0.46863,0.01111c5.08723,0.12057 9.93164,0.24947 14.79435,0.38119c10.70547,0.28997 22.50179,0.54867 32.03877,0.88771c0,0 0.81277,0.0289 0,0.05779c-0.81277,0.0289 -1.62554,0 -1.62554,0c-9.4608,-0.33633 -21.18593,-0.59283 -31.80643,-0.8805c-4.82446,-0.13067 -9.62926,-0.25858 -14.67633,-0.37819l-0.46862,-0.01111c0,0 -0.95639,-0.02267 -0.3188,-0.05667z" data-paper-data="{&quot;index&quot;:null}" fill="#75dbff" fill-rule="nonzero" stroke="none" stroke-width="0" stroke-linecap="butt"/><path d="M293.74984,207.81887c0.9742,0.02168 0.36424,0.05632 0.36424,0.05632l-0.6537,0.03696c-6.33538,0.27571 -13.97532,0.49681 -20.86271,0.7528c-9.46756,0.35189 -18.69518,0.72491 -29.05475,1.04203c0,0 -0.87272,0.02659 -1.62074,-0.00443c-0.74803,-0.03103 0.12467,-0.05762 0.12467,-0.05762c10.33337,-0.31328 19.48516,-0.68693 28.88952,-1.03647c6.81246,-0.2532 14.37909,-0.47169 20.65648,-0.74397l0.57281,-0.03267c0,0 0.60998,-0.03463 1.58423,-0.01295z" data-paper-data="{&quot;index&quot;:null}" fill="#75dbff" fill-rule="nonzero" stroke="none" stroke-width="0" stroke-linecap="butt"/><path d="M201.44566,210.72631c-0.14647,-0.00355 -0.26958,-0.00951 -0.26958,-0.01953c0,-0.02473 0.75,-0.02473 0.75,-0.02473l1.02909,0.02473c0,0.12511 -1.06045,0.22391 -1.8238,0.34454c-0.90828,0.14353 1.29971,0.30866 3.95633,0.41513c2.14412,0.05012 4.37366,0.06066 6.75419,0.09193c6.36138,0.08354 12.10192,0.09068 18.8348,0.11321c9.49173,-0.0002 20.24092,0.00398 28.74321,-0.15632c8.09985,-0.15188 6.6588,-0.46878 5.53708,-0.72674c0,0 -0.10607,-0.02449 0.63639,-0.02799c0.74246,-0.0035 0.84853,0.02099 0.84853,0.02099c1.21306,0.28121 2.44753,0.61149 -6.2778,0.77669c-8.76097,0.16503 -19.77932,0.16298 -29.56275,0.16278c-6.89883,-0.0228 -12.81101,-0.03156 -19.33349,-0.11691c-2.55417,-0.03342 -4.89917,-0.04683 -7.2006,-0.10137c-3.05011,-0.11946 -5.34133,-0.29778 -4.41654,-0.45932c0.64138,-0.11203 1.68468,-0.2037 1.79493,-0.31709z" fill="#75dbff" fill-rule="nonzero" stroke="none" stroke-width="0.5" stroke-linecap="butt"/></g></g></g></svg>