<svg version="1.1" xmlns="http://www.w3.org/2000/svg" xmlns:xlink="http://www.w3.org/1999/xlink" width="2878.25006" height="1619.57958" viewBox="0,0,2878.25006,1619.57958"><g transform="translate(1117.37278,629.80931)"><g data-paper-data="{&quot;isPaintingLayer&quot;:true}" stroke-linejoin="miter" stroke-miterlimit="10" stroke-dasharray="" stroke-dashoffset="0" style="mix-blend-mode: normal"><path d="M-1117.37278,989.77027v-1619.57958h2878.25006v1619.57958z" fill="none" fill-rule="nonzero" stroke="#000000" stroke-width="0" stroke-linecap="butt"/><g><path d="M371.77626,305.01542l-19.76914,-32.81172l93.69715,0.18981l33.57674,32.50623z" data-paper-data="{&quot;index&quot;:null}" fill="#cedce9" fill-rule="nonzero" stroke="#000000" stroke-width="0" stroke-linecap="round"/><path d="M488.1911,303.18388c-2.53537,0.36264 -5.02815,0.5712 -7.49601,0.72236c0.01679,0.05529 0.02551,0.1129 0.02559,0.17314c0.00194,1.46538 -5.1608,1.47092 -5.1608,1.47092c-22.80221,0.02456 -45.60433,0.04909 -68.40647,0.0736c-5.86765,0.0063 -20.46882,-0.64285 -24.79534,0.23829c-2.49217,0.50759 -4.27685,0.45942 -7.47097,0.52915c-0.36051,0.00785 -1.01625,0.02456 -1.59566,0.035c3.08953,0.6225 1.60419,6.4081 1.60635,8.02474c0.00908,6.8386 0.01812,13.67708 0.0272,20.51567c0.0016,1.22112 0.00322,2.44235 0.00485,3.66347c0.00065,0.48851 -0.90552,1.8813 0.00194,1.46538c3.45256,-1.58235 10.19566,-0.74088 18.06866,-0.75209c15.51938,-0.02235 32.13396,-0.51119 47.37744,0.26486c27.83585,1.55011 57.75828,-1.00651 85.37226,0.72419c23.25749,1.62517 51.09544,1.74392 75.05495,1.71816c6.02327,-0.00643 12.04642,-0.01296 18.06966,-0.01946c0.90625,-0.00094 2.32912,-0.0371 3.80233,-0.07667c-1.48298,-0.75018 0.06626,-2.56977 0.06491,-3.59102c-0.00505,-3.81524 4.49192,-10.40135 -1.04401,-13.82317c-4.89362,-4.15706 -7.99102,-8.16124 -15.97006,-12.30373c-5.88716,-3.05654 -15.04909,-5.76162 -19.9208,-8.79879c-2.3623,-1.81078 -4.47318,-0.51256 -12.15878,-0.9239c-17.00624,-0.91024 -34.0612,-0.69601 -51.62851,-0.67716c-6.4034,0.00691 -14.44505,0.38459 -20.65104,0.02221c-1.31004,-0.0765 -3.77221,-0.3634 -5.6178,-0.59852c3.37603,0.73647 -4.32441,1.46076 -7.55991,1.92349zM407.1492,302.69307c17.23319,-0.01852 34.46634,-0.0371 51.69948,-0.0556c0.49704,-0.07114 0.99398,-0.14216 1.49101,-0.2133c6.54685,-0.93635 12.45893,-0.69641 18.06825,-1.11847c7.64435,-0.57516 12.21475,-2.48943 20.10212,-2.9524c4.53093,-0.266 17.08239,0.55959 23.50567,0.55274c17.41699,-0.01868 34.81452,-0.32016 51.62851,0.67716c9.44543,0.56028 17.42579,-0.56037 21.84711,2.82874c0.65281,1.28853 5.86528,2.08864 8.59232,3.07752c4.16756,1.51108 7.65219,3.75207 10.87776,5.4266c7.99617,4.15144 11.5153,8.42636 16.53092,12.68709c4.48318,4.492 1.56901,10.07139 1.5752,14.74945c0.00344,2.58633 1.44189,4.40762 -5.15399,6.5999c-2.30007,0.76446 -23.55962,0.02531 -27.10445,0.02913c-24.71307,0.02663 -53.58879,-0.12799 -77.5594,-1.80297c-26.33426,-2.15631 -57.67394,0.82169 -84.8929,-0.69409c-21.93438,-1.37863 -55.78304,2.39319 -73.75043,-2.37768c-1.77886,-0.4724 -0.00578,-4.348 -0.00681,-5.12898c-0.00908,-6.8386 -0.01812,-13.67708 -0.0272,-20.51567c-0.00301,-2.2864 -3.56112,-7.74139 1.82327,-9.44973c9.39607,-2.98129 26.98922,-2.30454 40.75383,-2.31928z" data-paper-data="{&quot;index&quot;:null}" fill="#000000" fill-rule="nonzero" stroke="none" stroke-width="0" stroke-linecap="butt"/><path d="M480.62287,303.8359c2.46783,-0.15107 4.99065,-0.36165 7.52614,-0.72429c3.23549,-0.46271 10.96657,-1.18791 7.59043,-1.92434c1.84557,0.23513 4.3283,0.52202 5.63821,0.59852c6.206,0.36233 14.31973,-0.01169 20.72296,-0.01858c17.56722,-0.01889 34.73294,-0.2127 51.73914,0.69754c7.68559,0.41141 9.81249,-0.88134 12.17477,0.92944c4.87175,3.03713 14.0724,5.764 19.95963,8.82054c7.97906,4.1425 11.08711,8.17445 15.98073,12.33153c5.53599,3.42186 1.01478,10.03333 1.01984,13.84858c0.00134,1.02125 -1.55753,2.846 -0.07451,3.59619c-1.47309,0.03961 -2.89793,0.07667 -3.80425,0.07765c-6.02325,0.00653 -12.05696,0.01756 -18.0802,0.02404c-23.95963,0.0258 -51.91057,-0.06738 -75.16808,-1.69257c-27.61399,-1.7307 -57.80997,0.812 -85.64586,-0.73809c-15.24347,-0.77607 -31.90507,-0.30378 -47.42446,-0.28153c-7.87299,0.01131 -14.62221,-0.83337 -18.07478,0.74905c-0.90746,0.41594 -0.00517,-0.97911 -0.00583,-1.46759c-0.00162,-1.22112 -0.01208,-2.44833 -0.01371,-3.66943c-0.00904,-6.8386 -0.02892,-13.7177 -0.038,-20.55631c-0.00216,-1.61666 1.49884,-7.41626 -1.59071,-8.03876c0.57949,-0.01045 1.2357,-0.02751 1.59627,-0.0354c3.19401,-0.06959 4.98276,-0.02398 7.47484,-0.53153c4.32652,-0.88113 18.94091,-0.23875 24.80854,-0.24512c22.80227,-0.02456 45.7259,-0.07833 68.52805,-0.10286c0,0 5.18809,-0.00805 5.18615,-1.47353c-0.00008,-0.06012 -0.0082,-0.11781 -0.025,-0.17314z" data-paper-data="{&quot;noHover&quot;:false,&quot;origItem&quot;:[&quot;Path&quot;,{&quot;applyMatrix&quot;:true,&quot;segments&quot;:[[[579.60736,595.76373],[0.95609,-0.20262],[0.00646,0.07548]],[[579.61718,596],[0,-0.08208],[0,2]],[[577.61718,598],[0,0],[-8.83333,0]],[[551.11718,598],[8.83333,0],[-2.27308,0]],[[541.51161,598.28885],[1.67648,-1.19621],[-0.96568,0.68904]],[[538.61718,599],[1.23739,-0.09027],[-0.13966,0.01019]],[[537.99901,599.04541],[0.22447,-0.0134],[1.19653,0.85421]],[[538.61718,610],[0,-2.20646],[0,9.33333]],[[538.61718,638],[0,-9.33333],[0,1.66667]],[[538.61718,643],[0,-1.66667],[0,0.66667]],[[538.61718,645],[-0.35177,0.56631],[1.33831,-2.15456]],[[545.61718,644],[-3.04994,0.00386],[6.01206,-0.00761]],[[563.97058,644.43107],[-5.90478,-1.08158],[10.78253,2.15651]],[[597.04254,645.54479],[-10.6965,-2.40266],[9.00888,2.25222]],[[626.11718,648],[-9.28168,0],[2.33333,0]],[[633.11718,648],[-2.33333,0],[0.35109,0]],[[634.59021,647.90091],[-0.5707,0.05184],[-0.57412,-1.02596]],[[634.61718,643],[0,1.39387],[0,-5.20707]],[[634.21982,624.13246],[2.14282,4.67827],[-1.8936,-5.6808]],[[628.03948,607.31672],[3.08887,5.66543],[-2.2791,-4.1802]],[[620.32688,595.27881],[1.8857,4.15235],[-0.91417,-2.47477]],[[615.61718,594],[2.9771,0.57275],[-6.58756,-1.26734]],[[595.61718,593],[6.8054,0],[-2.48058,0]],[[587.61718,593],[2.40395,0.50364],[-0.50743,-0.10631]],[[585.44122,592.1748],[0.71481,0.32365],[1.30749,1.01011]],[[582.51161,594.78885],[1.25365,-0.62682],[-0.98239,0.4912]]],&quot;closed&quot;:true}],&quot;index&quot;:null}" fill="#c9c9c9" fill-rule="nonzero" stroke="none" stroke-width="0" stroke-linecap="butt"/><path d="M553.00602,309.13039c-0.00023,-0.16993 -0.0721,-0.45436 -0.14082,-0.73388c-0.26581,0.11376 -0.66232,0.21087 -1.17233,0.29372c-1.52905,0.44324 -3.84966,0.44576 -3.84966,0.44576c-19.66498,0.02118 -31.018,3.92356 -37.9644,8.0232c-0.81722,0.4652 -0.74424,1.02445 -0.74355,1.54349c0.00019,0.14772 -0.04928,0.38247 -0.10333,0.62527c0.05187,-0.0782 0.18162,-0.14254 0.44583,-0.18414c1.16745,-0.18347 11.32048,0.92043 12.5653,0.2776c0.37411,-0.19318 -1.83653,-0.22717 -1.71489,-0.44468c1.49592,-2.67435 17.39306,-6.73412 25.20886,-7.85201c2.02712,-0.28996 4.30933,-0.43721 6.5782,-0.50595c-0.88762,-0.39118 0.89142,-0.99327 0.89075,-1.48858zM509.00481,319.4494c-0.11636,0.52108 -0.21964,1.01916 0.1323,0.71883c0.24055,-0.20525 -0.1075,-0.49275 -0.1323,-0.71883zM500.64169,315.85848c7.37339,-3.95625 17.18205,-7.5668 32.47316,-9.00019c1.43576,-0.6388 4.39899,-0.64196 4.39899,-0.64196l2.58133,-0.00277c5.84505,-0.0063 8.93666,-0.58762 15.21502,-0.59431c8.71911,-0.00938 10.7468,4.90957 6.18928,6.35567c-2.87593,0.91246 -7.49058,1.21587 -11.34132,1.76656c-11.39829,1.63027 -15.62223,6.28416 -28.11122,8.61102c-13.23673,2.46614 -27.82001,-2.84277 -21.40526,-6.49399z" data-paper-data="{&quot;index&quot;:null}" fill="#000000" fill-rule="nonzero" stroke="none" stroke-width="0" stroke-linecap="butt"/><path d="M553.05695,308.34725c0.0689,0.27953 0.15272,0.56805 0.15293,0.73793c0.00065,0.4953 -1.75717,1.10637 -0.86956,1.4976c-2.2689,0.06875 -4.56421,0.21003 -6.59138,0.49998c-7.81589,1.11789 -23.78979,5.15725 -25.28565,7.83159c-0.12176,0.21753 1.84386,0.38048 1.46973,0.57364c-1.24485,0.64285 -11.48582,-0.48025 -12.6533,-0.29688c-0.2643,0.0415 -0.39279,0.10623 -0.44459,0.18452c0.05405,-0.2428 0.09394,-0.48092 0.09375,-0.62862c-0.00068,-0.51906 -0.09624,-1.08855 0.72101,-1.55364c6.94633,-4.09963 18.70926,-8.08858 38.37421,-8.10978c0,0 2.33114,0.00057 3.86018,-0.44267c0.51004,-0.0828 0.90682,-0.17994 1.17243,-0.29372z" data-paper-data="{&quot;noHover&quot;:false,&quot;origItem&quot;:[&quot;Path&quot;,{&quot;applyMatrix&quot;:true,&quot;segments&quot;:[[[607.563,601.99816],[0.02649,0.38155],[-0.10299,0.15484]],[[607.10872,602.39727],[0.1976,-0.11227],[-0.59254,0.60273]],[[605.61718,603],[0,0],[-7.618,0]],[[590.90604,613.89443],[2.69308,-5.58508],[-0.31682,0.63364]],[[590.61718,616],[0,-0.70843],[0,0.20156]],[[590.57685,616.85325],[0.02106,-0.33136],[0.02013,-0.10671]],[[590.74964,616.60263],[-0.10238,0.05628],[0.45234,-0.24865]],[[595.61718,617],[-0.48256,0.87548],[0.14503,-0.26312]],[[594.95308,616.3906],[-0.04725,0.29671],[0.58086,-3.64773]],[[604.72276,605.71115],[-3.02833,1.51416],[0.78545,-0.39273]],[[607.27135,605.03032],[-0.87898,0.0905],[-0.34365,-0.53523]],[[607.61718,603],[0,0.6759],[0,-0.23192]]],&quot;closed&quot;:true}],&quot;index&quot;:null}" fill="#ffffff" fill-rule="nonzero" stroke="none" stroke-width="0" stroke-linecap="butt"/><path d="M371.77627,305.01542l-19.76914,-32.81172l93.69715,0.18981l33.57674,32.50623z" data-paper-data="{&quot;index&quot;:null}" fill="#cedce9" fill-rule="nonzero" stroke="#000000" stroke-width="0" stroke-linecap="round"/><path d="M488.1911,303.18388c-2.53537,0.36264 -5.02815,0.5712 -7.49601,0.72236c0.01679,0.05529 0.02551,0.1129 0.02559,0.17314c0.00194,1.46538 -5.1608,1.47092 -5.1608,1.47092c-22.80221,0.02456 -45.60433,0.04909 -68.40647,0.0736c-5.86765,0.0063 -20.46882,-0.64285 -24.79534,0.23829c-2.49217,0.50759 -4.27685,0.45942 -7.47097,0.52915c-0.36051,0.00785 -1.01625,0.02456 -1.59566,0.035c3.08953,0.6225 1.60419,6.4081 1.60635,8.02474c0.00908,6.8386 0.01812,13.67708 0.0272,20.51567c0.0016,1.22112 0.00322,2.44235 0.00485,3.66347c0.00065,0.48851 -0.90552,1.8813 0.00194,1.46538c3.45256,-1.58235 10.19566,-0.74088 18.06866,-0.75209c15.51938,-0.02235 32.13396,-0.51119 47.37744,0.26486c27.83585,1.55011 57.75828,-1.00651 85.37226,0.72419c23.25749,1.62517 51.09544,1.74392 75.05495,1.71816c6.02327,-0.00643 12.04642,-0.01296 18.06966,-0.01946c0.90625,-0.00094 2.32912,-0.0371 3.80233,-0.07667c-1.48298,-0.75018 0.06626,-2.56977 0.06491,-3.59102c-0.00505,-3.81524 4.49192,-10.40135 -1.04401,-13.82317c-4.89362,-4.15706 -7.99102,-8.16124 -15.97006,-12.30373c-5.88716,-3.05654 -15.04909,-5.76162 -19.9208,-8.79879c-2.3623,-1.81078 -4.47318,-0.51256 -12.15878,-0.9239c-17.00624,-0.91024 -34.0612,-0.69601 -51.62851,-0.67716c-6.4034,0.00691 -14.44505,0.38459 -20.65104,0.02221c-1.31004,-0.0765 -3.77221,-0.3634 -5.6178,-0.59852c3.37603,0.73647 -4.32441,1.46076 -7.55991,1.92349zM407.14921,302.69307c17.23319,-0.01852 34.46634,-0.0371 51.69948,-0.0556c0.49704,-0.07114 0.99398,-0.14216 1.49101,-0.2133c6.54685,-0.93635 12.45893,-0.69641 18.06825,-1.11847c7.64435,-0.57516 12.21475,-2.48943 20.10212,-2.9524c4.53093,-0.266 17.08239,0.55959 23.50567,0.55274c17.41699,-0.01868 34.81452,-0.32016 51.62851,0.67716c9.44543,0.56028 17.42579,-0.56037 21.84711,2.82874c0.65281,1.28853 5.86528,2.08864 8.59232,3.07752c4.16756,1.51108 7.65219,3.75207 10.87776,5.4266c7.99617,4.15144 11.5153,8.42636 16.53092,12.68709c4.48318,4.492 1.56901,10.07139 1.5752,14.74945c0.00344,2.58633 1.44189,4.40762 -5.15399,6.5999c-2.30007,0.76446 -23.55962,0.02531 -27.10445,0.02913c-24.71307,0.02663 -53.58879,-0.12799 -77.5594,-1.80297c-26.33426,-2.15631 -57.67394,0.82169 -84.8929,-0.69409c-21.93438,-1.37863 -55.78304,2.39319 -73.75043,-2.37768c-1.77886,-0.4724 -0.00578,-4.348 -0.00681,-5.12898c-0.00908,-6.8386 -0.01812,-13.67708 -0.0272,-20.51567c-0.00301,-2.2864 -3.56112,-7.74139 1.82327,-9.44973c9.39607,-2.98129 26.98922,-2.30454 40.75383,-2.31928z" data-paper-data="{&quot;index&quot;:null}" fill="#000000" fill-rule="nonzero" stroke="none" stroke-width="0" stroke-linecap="butt"/><path d="M480.62287,303.8359c2.46783,-0.15107 4.99065,-0.36165 7.52614,-0.72429c3.23549,-0.46271 10.96657,-1.18791 7.59043,-1.92434c1.84557,0.23513 4.3283,0.52202 5.63821,0.59852c6.206,0.36233 14.31973,-0.01169 20.72296,-0.01858c17.56722,-0.01889 34.73294,-0.2127 51.73914,0.69754c7.68559,0.41141 9.81249,-0.88134 12.17477,0.92944c4.87175,3.03713 14.0724,5.764 19.95963,8.82054c7.97906,4.1425 11.08711,8.17445 15.98073,12.33153c5.53599,3.42186 1.01478,10.03333 1.01984,13.84858c0.00134,1.02125 -1.55753,2.846 -0.07451,3.59619c-1.47309,0.03961 -2.89793,0.07667 -3.80425,0.07765c-6.02325,0.00653 -12.05696,0.01756 -18.0802,0.02404c-23.95963,0.0258 -51.91057,-0.06738 -75.16808,-1.69257c-27.61399,-1.7307 -57.80997,0.812 -85.64586,-0.73809c-15.24347,-0.77607 -31.90507,-0.30378 -47.42446,-0.28153c-7.87299,0.01131 -14.62221,-0.83337 -18.07478,0.74905c-0.90746,0.41594 -0.00517,-0.97911 -0.00583,-1.46759c-0.00162,-1.22112 -0.01208,-2.44833 -0.01371,-3.66943c-0.00904,-6.8386 -0.02892,-13.7177 -0.038,-20.55631c-0.00216,-1.61666 1.49884,-7.41626 -1.59071,-8.03876c0.57949,-0.01045 1.2357,-0.02751 1.59627,-0.0354c3.19401,-0.06959 4.98276,-0.02398 7.47484,-0.53153c4.32652,-0.88113 18.94091,-0.23875 24.80854,-0.24512c22.80227,-0.02456 45.7259,-0.07833 68.52805,-0.10286c0,0 5.18809,-0.00805 5.18615,-1.47353c-0.00008,-0.06012 -0.0082,-0.11781 -0.025,-0.17314z" data-paper-data="{&quot;noHover&quot;:false,&quot;origItem&quot;:[&quot;Path&quot;,{&quot;applyMatrix&quot;:true,&quot;segments&quot;:[[[579.60736,595.76373],[0.95609,-0.20262],[0.00646,0.07548]],[[579.61718,596],[0,-0.08208],[0,2]],[[577.61718,598],[0,0],[-8.83333,0]],[[551.11718,598],[8.83333,0],[-2.27308,0]],[[541.51161,598.28885],[1.67648,-1.19621],[-0.96568,0.68904]],[[538.61718,599],[1.23739,-0.09027],[-0.13966,0.01019]],[[537.99901,599.04541],[0.22447,-0.0134],[1.19653,0.85421]],[[538.61718,610],[0,-2.20646],[0,9.33333]],[[538.61718,638],[0,-9.33333],[0,1.66667]],[[538.61718,643],[0,-1.66667],[0,0.66667]],[[538.61718,645],[-0.35177,0.56631],[1.33831,-2.15456]],[[545.61718,644],[-3.04994,0.00386],[6.01206,-0.00761]],[[563.97058,644.43107],[-5.90478,-1.08158],[10.78253,2.15651]],[[597.04254,645.54479],[-10.6965,-2.40266],[9.00888,2.25222]],[[626.11718,648],[-9.28168,0],[2.33333,0]],[[633.11718,648],[-2.33333,0],[0.35109,0]],[[634.59021,647.90091],[-0.5707,0.05184],[-0.57412,-1.02596]],[[634.61718,643],[0,1.39387],[0,-5.20707]],[[634.21982,624.13246],[2.14282,4.67827],[-1.8936,-5.6808]],[[628.03948,607.31672],[3.08887,5.66543],[-2.2791,-4.1802]],[[620.32688,595.27881],[1.8857,4.15235],[-0.91417,-2.47477]],[[615.61718,594],[2.9771,0.57275],[-6.58756,-1.26734]],[[595.61718,593],[6.8054,0],[-2.48058,0]],[[587.61718,593],[2.40395,0.50364],[-0.50743,-0.10631]],[[585.44122,592.1748],[0.71481,0.32365],[1.30749,1.01011]],[[582.51161,594.78885],[1.25365,-0.62682],[-0.98239,0.4912]]],&quot;closed&quot;:true}],&quot;index&quot;:null}" fill="#c9c9c9" fill-rule="nonzero" stroke="none" stroke-width="0" stroke-linecap="butt"/><path d="M553.00603,309.13039c-0.00023,-0.16993 -0.0721,-0.45436 -0.14082,-0.73388c-0.26581,0.11376 -0.66232,0.21087 -1.17233,0.29372c-1.52905,0.44324 -3.84966,0.44576 -3.84966,0.44576c-19.66498,0.02118 -31.018,3.92356 -37.9644,8.0232c-0.81722,0.4652 -0.74424,1.02445 -0.74355,1.54349c0.00019,0.14772 -0.04928,0.38247 -0.10333,0.62527c0.05187,-0.0782 0.18162,-0.14254 0.44583,-0.18414c1.16745,-0.18347 11.32048,0.92043 12.5653,0.2776c0.37411,-0.19318 -1.83653,-0.22717 -1.71489,-0.44468c1.49592,-2.67435 17.39306,-6.73412 25.20886,-7.85201c2.02712,-0.28996 4.30933,-0.43721 6.5782,-0.50595c-0.88762,-0.39118 0.89142,-0.99327 0.89075,-1.48858zM509.00481,319.4494c-0.11636,0.52108 -0.21964,1.01916 0.1323,0.71883c0.24055,-0.20525 -0.1075,-0.49275 -0.1323,-0.71883zM500.64169,315.85848c7.37339,-3.95625 17.18205,-7.5668 32.47316,-9.00019c1.43576,-0.6388 4.39899,-0.64196 4.39899,-0.64196l2.58133,-0.00277c5.84505,-0.0063 8.93666,-0.58762 15.21502,-0.59431c8.71911,-0.00938 10.7468,4.90957 6.18928,6.35567c-2.87593,0.91246 -7.49058,1.21587 -11.34132,1.76656c-11.39829,1.63027 -15.62223,6.28416 -28.11122,8.61102c-13.23673,2.46614 -27.82001,-2.84277 -21.40526,-6.49399z" data-paper-data="{&quot;index&quot;:null}" fill="#000000" fill-rule="nonzero" stroke="none" stroke-width="0" stroke-linecap="butt"/><path d="M553.05695,308.34725c0.0689,0.27953 0.15272,0.56805 0.15293,0.73793c0.00065,0.4953 -1.75717,1.10637 -0.86956,1.4976c-2.2689,0.06875 -4.56421,0.21003 -6.59138,0.49998c-7.81589,1.11789 -23.78979,5.15725 -25.28565,7.83159c-0.12176,0.21753 1.84386,0.38048 1.46973,0.57364c-1.24485,0.64285 -11.48582,-0.48025 -12.6533,-0.29688c-0.2643,0.0415 -0.39279,0.10623 -0.44459,0.18452c0.05405,-0.2428 0.09394,-0.48092 0.09375,-0.62862c-0.00068,-0.51906 -0.09624,-1.08855 0.72101,-1.55364c6.94633,-4.09963 18.70926,-8.08858 38.37421,-8.10978c0,0 2.33114,0.00057 3.86018,-0.44267c0.51004,-0.0828 0.90682,-0.17994 1.17243,-0.29372z" data-paper-data="{&quot;noHover&quot;:false,&quot;origItem&quot;:[&quot;Path&quot;,{&quot;applyMatrix&quot;:true,&quot;segments&quot;:[[[607.563,601.99816],[0.02649,0.38155],[-0.10299,0.15484]],[[607.10872,602.39727],[0.1976,-0.11227],[-0.59254,0.60273]],[[605.61718,603],[0,0],[-7.618,0]],[[590.90604,613.89443],[2.69308,-5.58508],[-0.31682,0.63364]],[[590.61718,616],[0,-0.70843],[0,0.20156]],[[590.57685,616.85325],[0.02106,-0.33136],[0.02013,-0.10671]],[[590.74964,616.60263],[-0.10238,0.05628],[0.45234,-0.24865]],[[595.61718,617],[-0.48256,0.87548],[0.14503,-0.26312]],[[594.95308,616.3906],[-0.04725,0.29671],[0.58086,-3.64773]],[[604.72276,605.71115],[-3.02833,1.51416],[0.78545,-0.39273]],[[607.27135,605.03032],[-0.87898,0.0905],[-0.34365,-0.53523]],[[607.61718,603],[0,0.6759],[0,-0.23192]]],&quot;closed&quot;:true}],&quot;index&quot;:null}" fill="#ffffff" fill-rule="nonzero" stroke="none" stroke-width="0" stroke-linecap="butt"/><path d="M164.71899,303.09809l33.57675,-32.50623l93.69714,-0.18981l-19.76914,32.81172z" data-paper-data="{&quot;index&quot;:null}" fill="#cedce9" fill-rule="nonzero" stroke="#000000" stroke-width="0" stroke-linecap="round"/><path d="M155.80894,301.38214c-3.2355,-0.46271 -10.93595,-1.18702 -7.55991,-1.92349c-1.84559,0.23513 -4.30777,0.52216 -5.61781,0.59862c-6.20599,0.36233 -14.24765,-0.01536 -20.65104,-0.02221c-17.56731,-0.01889 -34.62226,-0.23313 -51.62851,0.67716c-7.68561,0.41141 -9.79648,-0.88676 -12.15878,0.9239c-4.8717,3.03713 -14.03364,5.74227 -19.92079,8.79879c-7.97904,4.1425 -11.07645,8.14667 -15.97007,12.30373c-5.53593,3.42186 -1.03896,10.00793 -1.04401,13.82317c-0.00135,1.02125 1.54789,2.84084 0.06491,3.59102c1.47321,0.03961 2.89607,0.07574 3.80232,0.07667c6.02324,0.00643 12.04639,0.01296 18.06966,0.01946c23.95951,0.0258 51.79746,-0.09301 75.05494,-1.71816c27.61399,-1.7307 57.53642,0.82591 85.37226,-0.72419c15.24348,-0.77607 31.85806,-0.2872 47.37744,-0.26486c7.87301,0.01131 14.6161,-0.83021 18.06866,0.75209c0.90746,0.41594 0.00129,-0.97691 0.00194,-1.46538c0.00162,-1.22112 0.00325,-2.44235 0.00485,-3.66347c0.00908,-6.8386 0.01812,-13.67708 0.0272,-20.51567c0.00216,-1.61666 -1.48319,-7.40216 1.60635,-8.02474c-0.5794,-0.01045 -1.23515,-0.02714 -1.59566,-0.035c-3.19412,-0.06959 -4.97879,-0.02158 -7.47096,-0.52915c-4.32652,-0.88113 -18.92768,-0.23196 -24.79534,-0.23829c-22.80214,-0.02456 -45.60426,-0.04909 -68.40647,-0.0736c0,0 -5.16274,-0.00554 -5.1608,-1.47092c0.00008,-0.0602 0.0088,-0.11781 0.02559,-0.17314c-2.46787,-0.15117 -4.96064,-0.35977 -7.49601,-0.72236zM236.85053,300.89144c13.76461,0.01474 31.35777,-0.66198 40.75384,2.31928c5.38439,1.7084 1.82628,7.16336 1.82327,9.44973c-0.00907,6.8386 -0.01813,13.67708 -0.0272,20.51567c-0.00103,0.78086 1.77206,4.65658 -0.0068,5.12898c-17.9674,4.77086 -51.81605,0.99914 -73.75043,2.37768c-27.21896,1.51581 -58.55864,-1.46222 -84.8929,0.69409c-23.97061,1.67501 -52.84632,1.82967 -77.55939,1.80297c-3.54483,-0.00384 -24.80439,0.73534 -27.10445,-0.02913c-6.59588,-2.19226 -5.15742,-4.01355 -5.15399,-6.5999c0.00619,-4.67807 -2.90798,-10.25747 1.5752,-14.74945c5.01563,-4.26068 8.53476,-8.53565 16.53093,-12.68709c3.22556,-1.67465 6.71019,-3.91551 10.87776,-5.4266c2.72704,-0.98875 7.9395,-1.78899 8.59231,-3.07752c4.42133,-3.38906 12.40168,-2.26845 21.84711,-2.82874c16.81399,-0.99732 34.21152,-0.69593 51.62851,-0.67716c6.42327,0.00691 18.97474,-0.81863 23.50567,-0.55274c7.88736,0.46302 12.45776,2.37727 20.10211,2.9524c5.60931,0.42204 11.5214,0.18213 18.06825,1.11847c0.49703,0.07114 0.99398,0.14216 1.49101,0.2133c17.23314,0.01852 34.46629,0.0371 51.69948,0.0556z" data-paper-data="{&quot;index&quot;:null}" fill="#000000" fill-rule="nonzero" stroke="none" stroke-width="0" stroke-linecap="butt"/><path d="M163.37679,302.03423c-0.0168,0.05529 -0.02491,0.113 -0.025,0.17314c-0.00194,1.46538 5.18615,1.47353 5.18615,1.47353c22.80215,0.02456 45.72579,0.07833 68.52805,0.10286c5.86764,0.0063 20.48202,-0.63593 24.80854,0.24512c2.49208,0.50759 4.28083,0.46195 7.47484,0.53153c0.36057,0.00785 1.01678,0.02493 1.59627,0.0354c-3.08955,0.62257 -1.58855,6.42211 -1.59071,8.03876c-0.00907,6.8386 -0.02895,13.7177 -0.03799,20.55631c-0.00163,1.22112 -0.0121,2.44833 -0.01371,3.66943c-0.00066,0.48851 0.90163,1.88352 -0.00583,1.46759c-3.45256,-1.58235 -10.20178,-0.73772 -18.07478,-0.74905c-15.51939,-0.02221 -32.18099,-0.49451 -47.42446,0.28153c-27.83589,1.55011 -58.03187,-0.99259 -85.64586,0.73809c-23.25751,1.62517 -51.20845,1.71834 -75.16808,1.69257c-6.02324,-0.00643 -12.05696,-0.01756 -18.0802,-0.02404c-0.90632,-0.00094 -2.33116,-0.03815 -3.80425,-0.07765c1.48302,-0.75018 -0.07586,-2.57494 -0.07452,-3.59619c0.00506,-3.81524 -4.51614,-10.42677 1.01984,-13.84858c4.89361,-4.15706 8.00167,-8.18905 15.98073,-12.33153c5.88724,-3.05654 15.08788,-5.78341 19.95963,-8.82054c2.36227,-1.81078 4.48917,-0.51801 12.17477,-0.92944c17.00621,-0.91024 34.17192,-0.71643 51.73915,-0.69754c6.40323,0.00691 14.51696,0.38092 20.72296,0.01858c1.30991,-0.0765 3.79264,-0.3634 5.63821,-0.59852c-3.37613,0.73647 4.35494,1.46165 7.59043,1.92434c2.5355,0.36264 5.05832,0.5732 7.52615,0.72429z" data-paper-data="{&quot;noHover&quot;:false,&quot;origItem&quot;:[&quot;Path&quot;,{&quot;applyMatrix&quot;:true,&quot;segments&quot;:[[[579.60736,595.76373],[0.95609,-0.20262],[0.00646,0.07548]],[[579.61718,596],[0,-0.08208],[0,2]],[[577.61718,598],[0,0],[-8.83333,0]],[[551.11718,598],[8.83333,0],[-2.27308,0]],[[541.51161,598.28885],[1.67648,-1.19621],[-0.96568,0.68904]],[[538.61718,599],[1.23739,-0.09027],[-0.13966,0.01019]],[[537.99901,599.04541],[0.22447,-0.0134],[1.19653,0.85421]],[[538.61718,610],[0,-2.20646],[0,9.33333]],[[538.61718,638],[0,-9.33333],[0,1.66667]],[[538.61718,643],[0,-1.66667],[0,0.66667]],[[538.61718,645],[-0.35177,0.56631],[1.33831,-2.15456]],[[545.61718,644],[-3.04994,0.00386],[6.01206,-0.00761]],[[563.97058,644.43107],[-5.90478,-1.08158],[10.78253,2.15651]],[[597.04254,645.54479],[-10.6965,-2.40266],[9.00888,2.25222]],[[626.11718,648],[-9.28168,0],[2.33333,0]],[[633.11718,648],[-2.33333,0],[0.35109,0]],[[634.59021,647.90091],[-0.5707,0.05184],[-0.57412,-1.02596]],[[634.61718,643],[0,1.39387],[0,-5.20707]],[[634.21982,624.13246],[2.14282,4.67827],[-1.8936,-5.6808]],[[628.03948,607.31672],[3.08887,5.66543],[-2.2791,-4.1802]],[[620.32688,595.27881],[1.8857,4.15235],[-0.91417,-2.47477]],[[615.61718,594],[2.9771,0.57275],[-6.58756,-1.26734]],[[595.61718,593],[6.8054,0],[-2.48058,0]],[[587.61718,593],[2.40395,0.50364],[-0.50743,-0.10631]],[[585.44122,592.1748],[0.71481,0.32365],[1.30749,1.01011]],[[582.51161,594.78885],[1.25365,-0.62682],[-0.98239,0.4912]]],&quot;closed&quot;:true}],&quot;index&quot;:null}" fill="#c9c9c9" fill-rule="nonzero" stroke="none" stroke-width="0" stroke-linecap="butt"/><path d="M90.99403,307.32875c-0.00067,0.4953 1.77837,1.09736 0.89076,1.48858c2.26887,0.06875 4.55109,0.21597 6.5782,0.50595c7.8158,1.11789 23.71294,5.17767 25.20885,7.85201c0.12164,0.21753 -2.08899,0.25153 -1.71489,0.44468c1.24482,0.64285 11.39785,-0.46105 12.5653,-0.2776c0.26421,0.0415 0.39396,0.10592 0.44583,0.18404c-0.05406,-0.2428 -0.10352,-0.47755 -0.10333,-0.62527c0.00069,-0.51906 0.07367,-1.07839 -0.74355,-1.54349c-6.9464,-4.09963 -18.29942,-8.00211 -37.9644,-8.0232c0,0 -2.32061,-0.00251 -3.84966,-0.44576c-0.51,-0.0828 -0.90652,-0.17994 -1.17233,-0.29372c-0.06872,0.27953 -0.14059,0.56395 -0.14083,0.73388zM134.86289,318.3665c0.35194,0.30041 0.24865,-0.19765 0.13229,-0.71883c-0.0248,0.22603 -0.37284,0.5135 -0.13229,0.71883zM143.35832,314.05685c6.41475,3.65122 -8.16853,8.96001 -21.40526,6.49399c-12.48898,-2.32687 -16.71293,-6.98075 -28.11122,-8.61102c-3.85074,-0.55073 -8.46538,-0.85409 -11.34132,-1.76656c-4.55751,-1.44602 -2.52983,-6.36497 6.18928,-6.35567c6.27836,0.00674 9.36997,0.58808 15.21501,0.59431l2.58133,0.00277c0,0 2.96323,0.00316 4.39899,0.64196c15.29111,1.43346 25.09977,5.04404 32.47316,9.00019z" data-paper-data="{&quot;index&quot;:null}" fill="#000000" fill-rule="nonzero" stroke="none" stroke-width="0" stroke-linecap="butt"/><path d="M90.94327,306.54562c0.26561,0.1137 0.6624,0.21078 1.17244,0.29372c1.52904,0.44324 3.86019,0.44267 3.86019,0.44267c19.66494,0.02118 31.42788,4.01002 38.37421,8.10978c0.81725,0.4652 0.72169,1.0347 0.72101,1.55364c-0.00018,0.14772 0.03971,0.38584 0.09375,0.62862c-0.0518,-0.0782 -0.18028,-0.14294 -0.44458,-0.18452c-1.16748,-0.18347 -11.40845,0.93958 -12.6533,0.29688c-0.37414,-0.19318 1.5915,-0.35611 1.46973,-0.57364c-1.49586,-2.67435 -17.46976,-6.71369 -25.28565,-7.83159c-2.02717,-0.28996 -4.32249,-0.4313 -6.59138,-0.49998c0.88761,-0.39118 -0.87021,-1.00241 -0.86955,-1.4976c0.00022,-0.16993 0.08403,-0.4585 0.15293,-0.73793z" data-paper-data="{&quot;noHover&quot;:false,&quot;origItem&quot;:[&quot;Path&quot;,{&quot;applyMatrix&quot;:true,&quot;segments&quot;:[[[607.563,601.99816],[0.02649,0.38155],[-0.10299,0.15484]],[[607.10872,602.39727],[0.1976,-0.11227],[-0.59254,0.60273]],[[605.61718,603],[0,0],[-7.618,0]],[[590.90604,613.89443],[2.69308,-5.58508],[-0.31682,0.63364]],[[590.61718,616],[0,-0.70843],[0,0.20156]],[[590.57685,616.85325],[0.02106,-0.33136],[0.02013,-0.10671]],[[590.74964,616.60263],[-0.10238,0.05628],[0.45234,-0.24865]],[[595.61718,617],[-0.48256,0.87548],[0.14503,-0.26312]],[[594.95308,616.3906],[-0.04725,0.29671],[0.58086,-3.64773]],[[604.72276,605.71115],[-3.02833,1.51416],[0.78545,-0.39273]],[[607.27135,605.03032],[-0.87898,0.0905],[-0.34365,-0.53523]],[[607.61718,603],[0,0.6759],[0,-0.23192]]],&quot;closed&quot;:true}],&quot;index&quot;:null}" fill="#ffffff" fill-rule="nonzero" stroke="none" stroke-width="0" stroke-linecap="butt"/><path d="M164.71899,303.09809l33.57674,-32.50623l93.69715,-0.18981l-19.76914,32.81172z" data-paper-data="{&quot;index&quot;:null}" fill="#cedce9" fill-rule="nonzero" stroke="#000000" stroke-width="0" stroke-linecap="round"/><path d="M155.80894,301.38214c-3.2355,-0.46271 -10.93595,-1.18702 -7.55991,-1.92349c-1.84559,0.23513 -4.30777,0.52216 -5.61781,0.59862c-6.20599,0.36233 -14.24765,-0.01536 -20.65104,-0.02221c-17.56731,-0.01889 -34.62226,-0.23313 -51.62851,0.67716c-7.68561,0.41141 -9.79648,-0.88676 -12.15878,0.9239c-4.8717,3.03713 -14.03364,5.74227 -19.92079,8.79879c-7.97904,4.1425 -11.07645,8.14667 -15.97007,12.30373c-5.53593,3.42186 -1.03896,10.00793 -1.04401,13.82317c-0.00135,1.02125 1.54789,2.84084 0.06491,3.59102c1.47321,0.03961 2.89607,0.07574 3.80232,0.07667c6.02324,0.00643 12.04639,0.01296 18.06966,0.01946c23.95951,0.0258 51.79746,-0.09301 75.05494,-1.71816c27.61399,-1.7307 57.53642,0.82591 85.37227,-0.72419c15.24348,-0.77607 31.85806,-0.2872 47.37744,-0.26486c7.87301,0.01131 14.6161,-0.83021 18.06866,0.75209c0.90746,0.41594 0.00129,-0.97691 0.00194,-1.46538c0.00162,-1.22112 0.00325,-2.44235 0.00485,-3.66347c0.00908,-6.8386 0.01812,-13.67708 0.0272,-20.51567c0.00216,-1.61666 -1.48319,-7.40216 1.60635,-8.02474c-0.5794,-0.01045 -1.23515,-0.02714 -1.59566,-0.035c-3.19412,-0.06959 -4.97879,-0.02158 -7.47096,-0.52915c-4.32652,-0.88113 -18.92768,-0.23196 -24.79534,-0.23829c-22.80214,-0.02456 -45.60426,-0.04909 -68.40647,-0.0736c0,0 -5.16274,-0.00554 -5.1608,-1.47092c0.00007,-0.0602 0.00879,-0.11781 0.02558,-0.17314c-2.46786,-0.15117 -4.96064,-0.35977 -7.49601,-0.72236zM236.85053,300.89144c13.7646,0.01474 31.35776,-0.66198 40.75383,2.31928c5.38439,1.7084 1.82628,7.16336 1.82328,9.44973c-0.00908,6.8386 -0.01813,13.67708 -0.0272,20.51567c-0.00103,0.78086 1.77206,4.65658 -0.0068,5.12898c-17.9674,4.77086 -51.81605,0.99914 -73.75043,2.37768c-27.21896,1.51581 -58.55864,-1.46222 -84.8929,0.69409c-23.97061,1.67501 -52.84633,1.82967 -77.5594,1.80297c-3.54483,-0.00384 -24.80438,0.73534 -27.10445,-0.02913c-6.59588,-2.19226 -5.15742,-4.01355 -5.15399,-6.5999c0.00619,-4.67807 -2.90798,-10.25747 1.5752,-14.74945c5.01563,-4.26068 8.53476,-8.53565 16.53093,-12.68709c3.22556,-1.67465 6.71019,-3.91551 10.87775,-5.4266c2.72704,-0.98875 7.9395,-1.78899 8.59231,-3.07752c4.42133,-3.38906 12.40169,-2.26845 21.84712,-2.82874c16.81399,-0.99732 34.21151,-0.69593 51.62851,-0.67716c6.42327,0.00691 18.97474,-0.81863 23.50567,-0.55274c7.88736,0.46302 12.45777,2.37727 20.10212,2.9524c5.60932,0.42204 11.5214,0.18213 18.06825,1.11847c0.49703,0.07114 0.99398,0.14216 1.49101,0.2133c17.23314,0.01852 34.46629,0.0371 51.69948,0.0556z" data-paper-data="{&quot;index&quot;:null}" fill="#000000" fill-rule="nonzero" stroke="none" stroke-width="0" stroke-linecap="butt"/><path d="M163.37679,302.03423c-0.0168,0.05529 -0.02491,0.113 -0.025,0.17314c-0.00194,1.46538 5.18615,1.47353 5.18615,1.47353c22.80215,0.02456 45.72579,0.07833 68.52805,0.10286c5.86764,0.0063 20.48202,-0.63593 24.80854,0.24512c2.49208,0.50759 4.28083,0.46195 7.47484,0.53153c0.36057,0.00785 1.01678,0.02493 1.59627,0.0354c-3.08955,0.62257 -1.58855,6.42211 -1.59071,8.03876c-0.00907,6.8386 -0.02895,13.7177 -0.03799,20.55631c-0.00163,1.22112 -0.0121,2.44833 -0.01371,3.66943c-0.00066,0.48851 0.90163,1.88352 -0.00583,1.46759c-3.45256,-1.58235 -10.20178,-0.73772 -18.07478,-0.74905c-15.51939,-0.02221 -32.18099,-0.49451 -47.42446,0.28153c-27.83589,1.55011 -58.03187,-0.99259 -85.64586,0.73809c-23.25751,1.62517 -51.20845,1.71834 -75.16808,1.69257c-6.02324,-0.00643 -12.05696,-0.01756 -18.0802,-0.02404c-0.90632,-0.00094 -2.33116,-0.03815 -3.80425,-0.07765c1.48302,-0.75018 -0.07586,-2.57494 -0.07452,-3.59619c0.00506,-3.81524 -4.51614,-10.42677 1.01984,-13.84858c4.89361,-4.15706 8.00167,-8.18905 15.98073,-12.33153c5.88724,-3.05654 15.08788,-5.78341 19.95963,-8.82054c2.36227,-1.81078 4.48917,-0.51801 12.17477,-0.92944c17.00621,-0.91024 34.17192,-0.71643 51.73915,-0.69754c6.40323,0.00691 14.51696,0.38092 20.72296,0.01858c1.30991,-0.0765 3.79264,-0.3634 5.63821,-0.59852c-3.37613,0.73647 4.35494,1.46165 7.59043,1.92434c2.5355,0.36264 5.05832,0.5732 7.52615,0.72429z" data-paper-data="{&quot;noHover&quot;:false,&quot;origItem&quot;:[&quot;Path&quot;,{&quot;applyMatrix&quot;:true,&quot;segments&quot;:[[[579.60736,595.76373],[0.95609,-0.20262],[0.00646,0.07548]],[[579.61718,596],[0,-0.08208],[0,2]],[[577.61718,598],[0,0],[-8.83333,0]],[[551.11718,598],[8.83333,0],[-2.27308,0]],[[541.51161,598.28885],[1.67648,-1.19621],[-0.96568,0.68904]],[[538.61718,599],[1.23739,-0.09027],[-0.13966,0.01019]],[[537.99901,599.04541],[0.22447,-0.0134],[1.19653,0.85421]],[[538.61718,610],[0,-2.20646],[0,9.33333]],[[538.61718,638],[0,-9.33333],[0,1.66667]],[[538.61718,643],[0,-1.66667],[0,0.66667]],[[538.61718,645],[-0.35177,0.56631],[1.33831,-2.15456]],[[545.61718,644],[-3.04994,0.00386],[6.01206,-0.00761]],[[563.97058,644.43107],[-5.90478,-1.08158],[10.78253,2.15651]],[[597.04254,645.54479],[-10.6965,-2.40266],[9.00888,2.25222]],[[626.11718,648],[-9.28168,0],[2.33333,0]],[[633.11718,648],[-2.33333,0],[0.35109,0]],[[634.59021,647.90091],[-0.5707,0.05184],[-0.57412,-1.02596]],[[634.61718,643],[0,1.39387],[0,-5.20707]],[[634.21982,624.13246],[2.14282,4.67827],[-1.8936,-5.6808]],[[628.03948,607.31672],[3.08887,5.66543],[-2.2791,-4.1802]],[[620.32688,595.27881],[1.8857,4.15235],[-0.91417,-2.47477]],[[615.61718,594],[2.9771,0.57275],[-6.58756,-1.26734]],[[595.61718,593],[6.8054,0],[-2.48058,0]],[[587.61718,593],[2.40395,0.50364],[-0.50743,-0.10631]],[[585.44122,592.1748],[0.71481,0.32365],[1.30749,1.01011]],[[582.51161,594.78885],[1.25365,-0.62682],[-0.98239,0.4912]]],&quot;closed&quot;:true}],&quot;index&quot;:null}" fill="#c9c9c9" fill-rule="nonzero" stroke="none" stroke-width="0" stroke-linecap="butt"/><path d="M90.99402,307.32875c-0.00067,0.4953 1.77837,1.09736 0.89075,1.48858c2.26887,0.06875 4.55109,0.21597 6.5782,0.50595c7.8158,1.11789 23.71294,5.17767 25.20885,7.85201c0.12164,0.21753 -2.08899,0.25153 -1.71489,0.44468c1.24482,0.64285 11.39785,-0.46105 12.5653,-0.2776c0.26421,0.0415 0.39396,0.10592 0.44583,0.18404c-0.05406,-0.2428 -0.10352,-0.47755 -0.10333,-0.62527c0.00069,-0.51906 0.07367,-1.07839 -0.74355,-1.54349c-6.9464,-4.09963 -18.29942,-8.00211 -37.9644,-8.0232c0,0 -2.32061,-0.00251 -3.84966,-0.44576c-0.51,-0.0828 -0.90653,-0.17994 -1.17233,-0.29372c-0.06872,0.27953 -0.14059,0.56395 -0.14082,0.73388zM134.86289,318.3665c0.35194,0.30041 0.24865,-0.19765 0.13229,-0.71883c-0.0248,0.22603 -0.37284,0.5135 -0.13229,0.71883zM143.35832,314.05685c6.41475,3.65122 -8.16853,8.96001 -21.40526,6.49399c-12.48898,-2.32687 -16.71293,-6.98075 -28.11122,-8.61102c-3.85074,-0.55073 -8.46538,-0.85409 -11.34132,-1.76656c-4.55751,-1.44602 -2.52983,-6.36497 6.18928,-6.35567c6.27836,0.00674 9.36997,0.58808 15.21501,0.59431l2.58133,0.00277c0,0 2.96323,0.00316 4.39899,0.64196c15.29111,1.43346 25.09977,5.04404 32.47316,9.00019z" data-paper-data="{&quot;index&quot;:null}" fill="#000000" fill-rule="nonzero" stroke="none" stroke-width="0" stroke-linecap="butt"/><path d="M90.94327,306.54562c0.26561,0.1137 0.6624,0.21078 1.17244,0.29372c1.52904,0.44324 3.86019,0.44267 3.86019,0.44267c19.66494,0.02118 31.42788,4.01002 38.37421,8.10978c0.81725,0.4652 0.72169,1.0347 0.72101,1.55364c-0.00018,0.14772 0.03971,0.38584 0.09375,0.62862c-0.0518,-0.0782 -0.18028,-0.14294 -0.44458,-0.18452c-1.16748,-0.18347 -11.40845,0.93958 -12.6533,0.29688c-0.37414,-0.19318 1.5915,-0.35611 1.46973,-0.57364c-1.49586,-2.67435 -17.46976,-6.71369 -25.28565,-7.83159c-2.02717,-0.28996 -4.32249,-0.4313 -6.59138,-0.49998c0.88761,-0.39118 -0.87021,-1.00241 -0.86955,-1.4976c0.00022,-0.16993 0.08403,-0.4585 0.15293,-0.73793z" data-paper-data="{&quot;noHover&quot;:false,&quot;origItem&quot;:[&quot;Path&quot;,{&quot;applyMatrix&quot;:true,&quot;segments&quot;:[[[607.563,601.99816],[0.02649,0.38155],[-0.10299,0.15484]],[[607.10872,602.39727],[0.1976,-0.11227],[-0.59254,0.60273]],[[605.61718,603],[0,0],[-7.618,0]],[[590.90604,613.89443],[2.69308,-5.58508],[-0.31682,0.63364]],[[590.61718,616],[0,-0.70843],[0,0.20156]],[[590.57685,616.85325],[0.02106,-0.33136],[0.02013,-0.10671]],[[590.74964,616.60263],[-0.10238,0.05628],[0.45234,-0.24865]],[[595.61718,617],[-0.48256,0.87548],[0.14503,-0.26312]],[[594.95308,616.3906],[-0.04725,0.29671],[0.58086,-3.64773]],[[604.72276,605.71115],[-3.02833,1.51416],[0.78545,-0.39273]],[[607.27135,605.03032],[-0.87898,0.0905],[-0.34365,-0.53523]],[[607.61718,603],[0,0.6759],[0,-0.23192]]],&quot;closed&quot;:true}],&quot;index&quot;:null}" fill="#ffffff" fill-rule="nonzero" stroke="none" stroke-width="0" stroke-linecap="butt"/><g><path d="M583.58896,243.52371c0.30548,0.7826 0.40835,1.62497 0.31172,2.5273c-2.54985,0.09155 -5.04361,-0.00222 -7.48125,-0.28075c2.39087,0 4.77864,0 7.16953,0c0,-0.74893 0,-1.4976 0,-2.24642z" data-paper-data="{&quot;index&quot;:null}" fill="#6b6b6b" fill-rule="evenodd" stroke="none" stroke-width="0" stroke-linecap="butt"/><path d="M594.1874,244.92773c0.2899,0.29994 0.39589,0.67418 0.31172,1.12325c-3.17329,0.09186 -6.29048,-0.0017 -9.35156,-0.28075c3.01432,0 6.02552,0 9.03984,0c0,-0.28075 0,-0.56163 0,-0.84241z" data-paper-data="{&quot;index&quot;:null}" fill="#9e9e9e" fill-rule="evenodd" stroke="none" stroke-width="0" stroke-linecap="butt"/><path d="M502.54206,246.05088c2.54674,0 5.04049,0.09374 7.48125,0.28075c-5.01244,-0.08903 -9.99995,0.00452 -14.96252,0.28075c2.38152,-0.37375 4.87528,-0.56105 7.48125,-0.56163z" data-paper-data="{&quot;index&quot;:null}" fill="#484848" fill-rule="evenodd" stroke="none" stroke-width="0" stroke-linecap="butt"/><path d="M83.28014,248.01652c3.79611,-0.09212 7.53673,0.00146 11.22188,0.28075c-3.81888,-0.17246 -7.5595,0.01484 -11.22188,0.56163c0,-0.28075 0,-0.56163 0,-0.84241z" data-paper-data="{&quot;index&quot;:null}" fill="#838383" fill-rule="evenodd" stroke="none" stroke-width="0" stroke-linecap="butt"/><path d="M23.86418,89.73619l1.47565,0.22151l164.59665,1.99393v14.62462l95.364,0.05539v28.24795l49.18839,2.43707l0.49189,-16.6164l91.55189,1.99393v16.6164l29.51303,0.22151v56.66205l15.00246,0.60928l140.2484,1.05234l-1.96753,93.49512l-3.44319,0.11081l-323.98511,3.98799l-0.24594,-8.87326l-257.6242,-0.27691v-4.98487v-189.98109z" fill="#ffe800" fill-rule="nonzero" stroke="#000000" stroke-width="1" stroke-linecap="round"/><path d="M140.93421,197.16697l29.28309,0.54323v68.57793l-30.69432,0.54323l0.35281,-69.63046z" fill="#928b78" fill-rule="nonzero" stroke="#000000" stroke-width="1" stroke-linecap="round"/><path d="M132.35772,267.6588l-50.56643,-1.2288l1.28832,-71.23509l48.95603,1.09221z" fill="#928b78" fill-rule="nonzero" stroke="#000000" stroke-width="1" stroke-linecap="round"/><path d="M74.69809,267.87119l-16.175,-1.34018l-1.4516,-68.68251l16.58974,-1.47419z" fill="#928b78" fill-rule="nonzero" stroke="#000000" stroke-width="1" stroke-linecap="round"/><path d="M189.82375,91.74616l2.01613,97.41398l-168.16349,-2.4766l0.54985,-96.25821z" fill="#38ff00" fill-rule="nonzero" stroke="#000000" stroke-width="1" stroke-linecap="round"/><path d="M189.13717,92.17331l-180.02951,-2.21554l-6.82489,-11.74229l192.94147,6.20344l16.23217,14.40092l104.09493,0.66469l-2.21348,8.64055l-105.01721,-1.99393l-18.69159,0.66469z" fill="#8b8471" fill-rule="nonzero" stroke="#000000" stroke-width="1" stroke-linecap="round"/><path d="M314.07569,120.03342l-2.21348,-4.87417l139.69503,1.10773l-6.64043,6.8681l-129.36547,-2.43707" fill="#8b8471" fill-rule="nonzero" stroke="#000000" stroke-width="1" stroke-linecap="round"/><path d="M283.087,129.78178l52.1397,1.10773l-0.84551,5.76037l-50.16685,-0.8862z" fill="#8b8471" fill-rule="nonzero" stroke="#000000" stroke-width="1" stroke-linecap="round"/><path d="M425.73335,133.99129l63.69896,-2.43707l-5.16478,7.97585l-58.04231,0.44306z" fill="#8b8471" fill-rule="nonzero" stroke="#000000" stroke-width="1" stroke-linecap="round"/><path d="M456.59904,189.93323l-171.91343,-1.50517v-45.15353h51.34039v26.07085l90.70547,1.10026l-1.12111,-22.60193l30.98869,1.29008z" fill="#262626" fill-rule="nonzero" stroke="#000000" stroke-width="1" stroke-linecap="round"/><path d="M279.64481,194.86269l-0.73782,-7.08965l356.43138,1.77242l-3.93507,8.19749l-174.98871,-1.32935z" fill="#8b8471" fill-rule="nonzero" stroke="#000000" stroke-width="1" stroke-linecap="round"/><path d="M426.59513,122.47047l1.22971,48.29842l-92.22823,-1.99393l-0.49189,-47.85528z" fill="#38ff00" fill-rule="nonzero" stroke="#000000" stroke-width="1" stroke-linecap="round"/><path d="M352.51246,129.34878l56.1736,-0.24742l1.09875,34.64263l-57.82173,-0.74232z" fill="#515a61" fill-rule="nonzero" stroke="#000000" stroke-width="1" stroke-linecap="round"/><path d="M212.04412,214.31601h59.05783l0.54937,72.58546l-62.90345,-0.49492l0.27469,-72.71848z" fill="#ff0000" fill-rule="nonzero" stroke="#000000" stroke-width="1" stroke-linecap="round"/><path d="M226.19052,214.09004h32.13844l0.82407,72.74946l-33.78657,-0.12375l0.13735,-73.27537z" fill="#2d0d0e" fill-rule="nonzero" stroke="#000000" stroke-width="1" stroke-linecap="round"/><path d="M271.17061,264.38372h228.86105v27.99252l-218.75429,3.18592l-0.13735,-9.15557l-9.47672,0.12375l-0.27469,-21.40418" fill="#807165" fill-rule="nonzero" stroke="#000000" stroke-width="1" stroke-linecap="round"/><path d="M46.78059,187.76789l0.27469,98.5149l-23.89782,0.74232l0.68672,-100.2161l22.93641,0.12375z" fill="#807165" fill-rule="nonzero" stroke="#000000" stroke-width="1" stroke-linecap="round"/><path d="M173.27421,188.29366h18.02637l0.17168,98.20568l-17.44266,0.15462z" fill="#807165" fill-rule="nonzero" stroke="#000000" stroke-width="1" stroke-linecap="round"/><path d="M298.53173,295.19088v-71.26482l173.05315,0.12375l0.27469,68.91402z" fill="#928b78" fill-rule="nonzero" stroke="#000000" stroke-width="1" stroke-linecap="round"/><path d="M304.54052,295.46935l-0.41203,-67.42937l160.17717,0.12375l0.41203,64.92394z" fill="#38ff00" fill-rule="nonzero" stroke="#000000" stroke-width="1" stroke-linecap="round"/><path d="M500.11805,293.08763l-0.96141,-68.38822l79.96841,0.24742l-0.96141,67.18196z" fill="#928b78" fill-rule="nonzero" stroke="#000000" stroke-width="1" stroke-linecap="round"/><path d="M502.38422,293.58245v-64.64555l68.91224,0.24742l-1.2361,63.06809z" fill="#38ff00" fill-rule="nonzero" stroke="#000000" stroke-width="1" stroke-linecap="round"/><path d="M301.66093,159.44461l-2.33484,3.7117l-4.25766,-0.12375l-11.26219,-19.30089l-126.90565,-1.6084l-4.25766,-6.80476l137.89315,0.6186z" fill="#8b8471" fill-rule="nonzero" stroke="#000000" stroke-width="1" stroke-linecap="round"/><path d="M140.55206,99.73848l1.64812,53.13926l-77.49622,-0.12375l-0.27469,-55.11891z" fill="#515a61" fill-rule="nonzero" stroke="#000000" stroke-width="1" stroke-linecap="round"/><path d="M128.63749,264.26006l-43.12595,-1.11348l1.09875,-64.55278l41.7525,0.98982z" fill="#515a61" fill-rule="nonzero" stroke="#000000" stroke-width="1" stroke-linecap="round"/><path d="M71.7219,265.12613l-10.71282,-1.23723l-0.9614,-63.40834l10.9875,-1.36098z" fill="#515a61" fill-rule="nonzero" stroke="#000000" stroke-width="1" stroke-linecap="round"/><path d="M144.01997,200.26401l22.79906,0.49492v62.48042l-23.89781,0.49492l0.27469,-63.4393z" fill="#515a61" fill-rule="nonzero" stroke="#000000" stroke-width="1" stroke-linecap="round"/></g><path d="M266.7374,153.11626c-0.06886,0.9528 0.00324,1.86397 0.21652,2.73309c-0.01299,0.11415 -0.08508,0.18414 -0.21652,0.21023c-0.28406,-1.01294 -0.28406,-1.99414 0,-2.94333z" data-paper-data="{&quot;index&quot;:null}" fill="#9e9e9e" fill-rule="evenodd" stroke="none" stroke-width="0" stroke-linecap="butt"/><path d="M241.93693,147.64595h5.67459v5.96392l-0.94576,-5.1118z" fill="#736d42" fill-rule="evenodd" stroke="none" stroke-width="0" stroke-linecap="butt"/><path d="M210.38099,158.42369c0.2303,0 0.42369,0.03585 0.58609,0.09607c2.53071,-3.00938 6.76151,-4.54081 10.81448,-4.4918c0.68051,0.00825 5.0493,0.36387 5.75233,0.85803c1.54118,1.08321 2.05379,3.11183 3.14937,4.62215c4.54198,6.26122 5.31977,12.71518 0.40807,19.00028c-3.45876,1.87709 -6.25406,3.5506 -10.36086,3.46527c-11.63946,-0.24184 -14.77262,-13.00532 -11.71253,-21.92634l-0.07372,-0.22853c0,0 0,-1.3951 1.43679,-1.3951zM211.44232,161.90892c-1.92196,7.00153 0.10682,17.15799 9.27893,17.27445c3.39694,0.04314 5.58728,-1.29399 8.48976,-2.78496c3.8961,-5.1395 2.73031,-10.33201 -0.87536,-15.28116c-0.91642,-1.25785 -1.22531,-2.99182 -2.46377,-3.955c-1.08144,-0.84105 -2.75641,-0.31172 -4.14159,-0.34441c-3.39953,-0.08022 -7.58619,1.38055 -9.17377,4.34831c0,0 -0.39092,0.68327 -1.1142,0.74281z" data-paper-data="{&quot;index&quot;:null}" fill="#75dbff" fill-rule="nonzero" stroke="none" stroke-width="0" stroke-linecap="butt"/><path d="M212.51175,161.13103c1.58757,-2.96776 5.82161,-4.44924 9.22113,-4.36903c1.38519,0.03268 3.07981,-0.49244 4.16125,0.34873c1.23847,0.96317 1.56604,2.70942 2.48244,3.96726c3.60566,4.94915 4.76937,10.22201 0.8733,15.3615c-2.9025,1.49101 -5.13411,2.84277 -8.53104,2.79963c-9.17211,-0.11655 -11.24699,-10.35858 -9.32505,-17.36011c0.72328,-0.05962 1.11795,-0.74786 1.11795,-0.74786z" data-paper-data="{&quot;noHover&quot;:false,&quot;origItem&quot;:[&quot;Path&quot;,{&quot;applyMatrix&quot;:true,&quot;segments&quot;:[[[409.4867,271.35519],[1.25852,-0.10678],[-3.34423,12.54639]],[[425.63199,302.31001],[-15.95943,-0.20878],[5.91067,0.07732]],[[440.40413,297.31952],[-5.05034,2.67171],[6.7792,-9.20965]],[[438.881,269.93654],[6.27385,8.86861],[-1.59451,-2.25397]],[[434.59405,262.84941],[2.15492,1.72602],[-1.88172,-1.50719]],[[427.3877,262.23225],[2.4102,0.05859],[-5.91515,-0.1438]],[[411.4254,270.0241],[2.76238,-5.31806],[0,0]]],&quot;closed&quot;:true}],&quot;index&quot;:null}" fill="#ff0000" fill-rule="nonzero" stroke="none" stroke-width="0" stroke-linecap="butt"/><path d="M245.01954,157.62973c3.84852,-1.30021 8.09747,0.13986 11.98494,1.51808c0.91883,0.32571 4.11387,1.26551 4.83263,2.24201c1.73039,2.3508 1.55353,6.1904 1.86624,8.92274c0.29339,2.56363 0.87652,5.05899 -0.91547,7.3174c-3.13895,3.95594 -7.87289,5.37618 -12.60766,6.59914c-2.18712,0.25323 -4.14864,0.91766 -6.1682,-0.51801c-1.21965,-0.86705 -2.41076,-3.76032 -2.99129,-5.02448c-1.9755,-4.3018 -5.16204,-9.94431 -3.48967,-14.86506c0.56682,-1.66774 3.45026,-3.64594 4.44459,-5.14228l1.7368,-0.97611c0,0 0.67433,-0.35964 1.30712,-0.07343zM243.49734,161.22678c-0.98323,1.02961 -3.13818,3.02297 -3.25471,3.5183c-1.04127,4.42565 1.64864,8.95964 3.40689,12.81446c0.13897,0.30472 1.4949,3.45192 2.06621,3.90439c0.92941,0.7361 3.15207,0.12942 3.91093,0.02694c4.20496,-1.09182 7.93205,-2.24862 10.87651,-5.55343c1.22934,-1.37979 0.52019,-3.79048 0.34432,-5.31579c-0.24066,-2.08749 0.00429,-5.61095 -1.23263,-7.46303c-0.70184,-1.05088 -2.38357,-0.9606 -3.59544,-1.38975c-3.45236,-1.22248 -8.2376,-3.19569 -11.46988,-0.8149c0,0 -0.48436,0.33597 -1.05224,0.27263z" data-paper-data="{&quot;index&quot;:null}" fill="#75dbff" fill-rule="nonzero" stroke="none" stroke-width="0" stroke-linecap="butt"/><path d="M244.52013,160.90613c3.23228,-2.38084 8.07575,-0.40796 11.52812,0.81459c1.21186,0.42916 2.90793,0.35035 3.6098,1.40126c1.2369,1.85205 1.00622,5.41118 1.24689,7.49867c0.17584,1.52528 0.87832,3.96332 -0.35105,5.34312c-2.94446,3.30467 -6.7274,4.49094 -10.93239,5.58276c-0.75885,0.10249 -2.99985,0.70454 -3.92924,-0.03162c-0.5713,-0.45257 -1.94448,-3.61124 -2.0835,-3.91596c-1.75824,-3.85482 -4.45661,-8.45708 -3.41535,-12.88273c0.11653,-0.4953 2.2871,-2.50513 3.27032,-3.53474c0.56787,0.06328 1.05636,-0.27532 1.05636,-0.27532z" data-paper-data="{&quot;noHover&quot;:false,&quot;origItem&quot;:[&quot;Path&quot;,{&quot;applyMatrix&quot;:true,&quot;segments&quot;:[[[465.26223,270.13291],[0.98811,0.11339],[-1.71083,1.84504]],[[459.59907,276.43751],[0.20277,-0.88758],[-1.81178,7.93053]],[[465.52703,299.40029],[-3.05933,-6.90758],[0.24182,0.54599]],[[469.12222,306.39679],[-0.99407,-0.81085],[1.61715,1.31908]],[[475.92722,306.44514],[-1.32039,0.18358],[7.31661,-1.95648]],[[494.85229,296.49376],[-5.12332,5.92193],[2.13908,-2.47252]],[[495.45142,286.96818],[0.30597,2.73324],[-0.41874,-3.7406]],[[493.30665,273.59497],[2.15221,3.31878],[-1.22123,-1.88318]],[[487.05062,271.1046],[2.10865,0.76899],[-6.0071,-2.19068]],[[467.0931,269.64433],[5.62415,-4.26625],[0,0]]],&quot;closed&quot;:true}],&quot;index&quot;:null}" fill="#ff0000" fill-rule="nonzero" stroke="none" stroke-width="0" stroke-linecap="butt"/><path d="M227.49907,168.68394c0,-1.23285 1.02922,-2.23226 2.29886,-2.23226c1.26963,0 2.29886,0.99941 2.29886,2.23226c0,1.23285 -1.02923,2.23226 -2.29886,2.23226c-1.26963,0 -2.29886,-0.99941 -2.29886,-2.23226z" data-paper-data="{&quot;index&quot;:null}" fill="#ff0000" fill-rule="nonzero" stroke="none" stroke-width="0" stroke-linecap="butt"/><path d="M256.87772,170.85685c0,-1.23285 1.02922,-2.23226 2.29886,-2.23226c1.26963,0 2.29886,0.99941 2.29886,2.23226c0,1.23285 -1.02923,2.23226 -2.29886,2.23226c-1.26963,0 -2.29886,-0.99941 -2.29886,-2.23226z" data-paper-data="{&quot;index&quot;:null}" fill="#ff0000" fill-rule="nonzero" stroke="none" stroke-width="0" stroke-linecap="butt"/><path d="M184.59694,117.68048c0.63758,-0.92867 1.59397,-0.30953 1.59397,-0.30953l0.46863,0.30341c5.08723,3.2932 9.93164,6.81417 14.79435,10.41172c10.70547,7.92007 22.50179,14.98652 32.03877,24.24704c0,0 0.81277,0.7892 0,1.57837c-0.81277,0.7892 -1.62554,0 -1.62554,0c-9.4608,-9.18655 -21.18593,-16.1926 -31.80643,-24.04986c-4.82446,-3.56926 -9.62926,-7.06281 -14.67633,-10.32992l-0.46862,-0.30341c0,0 -0.95639,-0.61903 -0.3188,-1.54773z" data-paper-data="{&quot;index&quot;:null}" fill="#75dbff" fill-rule="nonzero" stroke="none" stroke-width="0" stroke-linecap="butt"/><path d="M293.74984,104.18352c0.9742,0.5923 0.36424,1.53833 0.36424,1.53833l-0.6537,1.00957c-6.33538,7.53078 -13.97532,13.57 -20.86271,20.56207c-9.46756,9.61148 -18.69518,19.80021 -29.05475,28.462c0,0 -0.87272,0.72632 -1.62074,-0.12107c-0.74803,-0.8474 0.12467,-1.57373 0.12467,-1.57373c10.33337,-8.55685 19.48516,-18.76272 28.88952,-28.31009c6.81246,-6.91604 14.37909,-12.88386 20.65648,-20.3208l0.57281,-0.89255c0,0 0.60998,-0.94595 1.58423,-0.3536z" data-paper-data="{&quot;index&quot;:null}" fill="#75dbff" fill-rule="nonzero" stroke="none" stroke-width="0" stroke-linecap="butt"/><path d="M201.44566,183.59723c-0.14647,-0.09685 -0.26958,-0.25965 -0.26958,-0.53347c0,-0.67559 0.75,-0.67559 0.75,-0.67559l1.02909,0.67559c0,3.41712 -1.06045,6.11585 -1.8238,9.41077c-0.90828,3.92038 1.29971,8.43079 3.95633,11.33892c2.14412,1.36905 4.37366,1.65702 6.75419,2.5109c6.36138,2.28189 12.10192,2.47669 18.8348,3.09219c9.49173,-0.00554 20.24092,0.10879 28.74321,-4.26981c8.09985,-4.14835 6.6588,-12.80431 5.53708,-19.85032c0,0 -0.10607,-0.6688 0.63639,-0.76435c0.74246,-0.09556 0.84853,0.57333 0.84853,0.57333c1.21306,7.68101 2.44753,16.70227 -6.2778,21.21457c-8.76097,4.50773 -19.77932,4.45154 -29.56275,4.44618c-6.89883,-0.62271 -12.81101,-0.86206 -19.33349,-3.19329c-2.55417,-0.91293 -4.89917,-1.27911 -7.2006,-2.76886c-3.05011,-3.26292 -5.34133,-8.13353 -4.41654,-12.54575c0.64138,-3.06007 1.68468,-5.56387 1.79493,-8.66084z" fill="#75dbff" fill-rule="nonzero" stroke="none" stroke-width="0.5" stroke-linecap="butt"/></g></g></g></svg>