<svg version="1.1" xmlns="http://www.w3.org/2000/svg" xmlns:xlink="http://www.w3.org/1999/xlink" width="2878.25006" height="1619.57958" viewBox="0,0,2878.25006,1619.57958"><g transform="translate(1117.37278,629.80931)"><g data-paper-data="{&quot;isPaintingLayer&quot;:true}" stroke-linejoin="miter" stroke-miterlimit="10" stroke-dasharray="" stroke-dashoffset="0" style="mix-blend-mode: normal"><path d="M-1117.37278,989.77027v-1619.57958h2878.25006v1619.57958z" fill="none" fill-rule="nonzero" stroke="#000000" stroke-width="0" stroke-linecap="butt"/><g><path d="M371.77626,266.16456l-19.76914,-19.14253l93.69715,0.11074l33.57674,18.9643z" data-paper-data="{&quot;index&quot;:null}" fill="#cedce9" fill-rule="nonzero" stroke="#000000" stroke-width="0" stroke-linecap="round"/><path d="M488.1911,265.09603c-2.53537,0.21157 -5.02815,0.33324 -7.49601,0.42143c0.01679,0.03226 0.02551,0.06587 0.02559,0.10101c0.00194,0.85491 -5.1608,0.85814 -5.1608,0.85814c-22.80221,0.01433 -45.60433,0.02864 -68.40647,0.04294c-5.86765,0.00368 -20.46882,-0.37504 -24.79534,0.13902c-2.49217,0.29613 -4.27685,0.26803 -7.47097,0.30871c-0.36051,0.00458 -1.01625,0.01433 -1.59566,0.02042c3.08953,0.36317 1.60419,3.73852 1.60635,4.68167c0.00908,3.98967 0.01812,7.97928 0.0272,11.96895c0.0016,0.71241 0.00322,1.42488 0.00485,2.13729c0.00065,0.285 -0.90552,1.09756 0.00194,0.85491c3.45256,-0.92315 10.19566,-0.43223 18.06866,-0.43877c15.51938,-0.01304 32.13396,-0.29823 47.37744,0.15452c27.83585,0.90434 57.75828,-0.5872 85.37226,0.4225c23.25749,0.94813 51.09544,1.01741 75.05495,1.00238c6.02327,-0.00375 12.04642,-0.00756 18.06966,-0.01135c0.90625,-0.00055 2.32912,-0.02164 3.80233,-0.04473c-1.48298,-0.43766 0.06626,-1.49922 0.06491,-2.09502c-0.00505,-2.22583 4.49192,-6.0682 -1.04401,-8.06451c-4.89362,-2.42525 -7.99102,-4.76131 -15.97006,-7.17806c-5.88716,-1.7832 -15.04909,-3.36136 -19.9208,-5.13326c-2.3623,-1.05642 -4.47318,-0.29903 -12.15878,-0.53901c-17.00624,-0.53104 -34.0612,-0.40606 -51.62851,-0.39506c-6.4034,0.00403 -14.44505,0.22437 -20.65104,0.01296c-1.31004,-0.04463 -3.77221,-0.21201 -5.6178,-0.34918c3.37603,0.42966 -4.32441,0.85222 -7.55991,1.12217zM407.1492,264.80969c17.23319,-0.0108 34.46634,-0.02164 51.69948,-0.03244c0.49704,-0.0415 0.99398,-0.08294 1.49101,-0.12444c6.54685,-0.54627 12.45893,-0.40629 18.06825,-0.65252c7.64435,-0.33555 12.21475,-1.45235 20.10212,-1.72245c4.53093,-0.15519 17.08239,0.32647 23.50567,0.32247c17.41699,-0.0109 34.81452,-0.18678 51.62851,0.39506c9.44543,0.32687 17.42579,-0.32692 21.84711,1.6503c0.65281,0.75173 5.86528,1.21852 8.59232,1.79544c4.16756,0.88157 7.65219,2.18898 10.87776,3.16591c7.99617,2.42197 11.5153,4.91598 16.53092,7.40171c4.48318,2.62065 1.56901,5.8757 1.5752,8.60491c0.00344,1.50888 1.44189,2.57143 -5.15399,3.85041c-2.30007,0.44599 -23.55962,0.01476 -27.10445,0.017c-24.71307,0.01554 -53.58879,-0.07467 -77.5594,-1.05186c-26.33426,-1.258 -57.67394,0.47938 -84.8929,-0.40494c-21.93438,-0.8043 -55.78304,1.3962 -73.75043,-1.38715c-1.77886,-0.2756 -0.00578,-2.53665 -0.00681,-2.99227c-0.00908,-3.98967 -0.01812,-7.97928 -0.0272,-11.96895c-0.00301,-1.3339 -3.56112,-4.51637 1.82327,-5.51302c9.39607,-1.7393 26.98922,-1.34448 40.75383,-1.35308z" data-paper-data="{&quot;index&quot;:null}" fill="#000000" fill-rule="nonzero" stroke="none" stroke-width="0" stroke-linecap="butt"/><path d="M480.62287,265.47642c2.46783,-0.08813 4.99065,-0.21099 7.52614,-0.42256c3.23549,-0.26995 10.96657,-0.69303 7.59043,-1.12267c1.84557,0.13718 4.3283,0.30455 5.63821,0.34918c6.206,0.21139 14.31973,-0.00682 20.72296,-0.01084c17.56722,-0.01102 34.73294,-0.12409 51.73914,0.40695c7.68559,0.24002 9.81249,-0.51418 12.17477,0.54224c4.87175,1.77188 14.0724,3.36275 19.95963,5.14595c7.97906,2.41675 11.08711,4.76902 15.98073,7.19428c5.53599,1.99633 1.01478,5.8535 1.01984,8.07933c0.00134,0.5958 -1.55753,1.66037 -0.07451,2.09803c-1.47309,0.02311 -2.89793,0.04473 -3.80425,0.0453c-6.02325,0.00381 -12.05696,0.01025 -18.0802,0.01403c-23.95963,0.01505 -51.91057,-0.03931 -75.16808,-0.98745c-27.61399,-1.0097 -57.80997,0.47373 -85.64586,-0.43061c-15.24347,-0.45276 -31.90507,-0.17723 -47.42446,-0.16425c-7.87299,0.0066 -14.62221,-0.48619 -18.07478,0.437c-0.90746,0.24266 -0.00517,-0.57122 -0.00583,-0.8562c-0.00162,-0.71241 -0.01208,-1.42837 -0.01371,-2.14076c-0.00904,-3.98967 -0.02892,-8.00298 -0.038,-11.99266c-0.00216,-0.94317 1.49884,-4.32668 -1.59071,-4.68985c0.57949,-0.0061 1.2357,-0.01605 1.59627,-0.02065c3.19401,-0.0406 4.98276,-0.01399 7.47484,-0.3101c4.32652,-0.51406 18.94091,-0.13929 24.80854,-0.143c22.80227,-0.01433 45.7259,-0.0457 68.52805,-0.06001c0,0 5.18809,-0.0047 5.18615,-0.85967c-0.00008,-0.03508 -0.0082,-0.06873 -0.025,-0.10101z" data-paper-data="{&quot;noHover&quot;:false,&quot;origItem&quot;:[&quot;Path&quot;,{&quot;applyMatrix&quot;:true,&quot;segments&quot;:[[[579.60736,595.76373],[0.95609,-0.20262],[0.00646,0.07548]],[[579.61718,596],[0,-0.08208],[0,2]],[[577.61718,598],[0,0],[-8.83333,0]],[[551.11718,598],[8.83333,0],[-2.27308,0]],[[541.51161,598.28885],[1.67648,-1.19621],[-0.96568,0.68904]],[[538.61718,599],[1.23739,-0.09027],[-0.13966,0.01019]],[[537.99901,599.04541],[0.22447,-0.0134],[1.19653,0.85421]],[[538.61718,610],[0,-2.20646],[0,9.33333]],[[538.61718,638],[0,-9.33333],[0,1.66667]],[[538.61718,643],[0,-1.66667],[0,0.66667]],[[538.61718,645],[-0.35177,0.56631],[1.33831,-2.15456]],[[545.61718,644],[-3.04994,0.00386],[6.01206,-0.00761]],[[563.97058,644.43107],[-5.90478,-1.08158],[10.78253,2.15651]],[[597.04254,645.54479],[-10.6965,-2.40266],[9.00888,2.25222]],[[626.11718,648],[-9.28168,0],[2.33333,0]],[[633.11718,648],[-2.33333,0],[0.35109,0]],[[634.59021,647.90091],[-0.5707,0.05184],[-0.57412,-1.02596]],[[634.61718,643],[0,1.39387],[0,-5.20707]],[[634.21982,624.13246],[2.14282,4.67827],[-1.8936,-5.6808]],[[628.03948,607.31672],[3.08887,5.66543],[-2.2791,-4.1802]],[[620.32688,595.27881],[1.8857,4.15235],[-0.91417,-2.47477]],[[615.61718,594],[2.9771,0.57275],[-6.58756,-1.26734]],[[595.61718,593],[6.8054,0],[-2.48058,0]],[[587.61718,593],[2.40395,0.50364],[-0.50743,-0.10631]],[[585.44122,592.1748],[0.71481,0.32365],[1.30749,1.01011]],[[582.51161,594.78885],[1.25365,-0.62682],[-0.98239,0.4912]]],&quot;closed&quot;:true}],&quot;index&quot;:null}" fill="#c9c9c9" fill-rule="nonzero" stroke="none" stroke-width="0" stroke-linecap="butt"/><path d="M553.00602,268.56526c-0.00023,-0.09914 -0.0721,-0.26508 -0.14082,-0.42815c-0.26581,0.06637 -0.66232,0.12302 -1.17233,0.17136c-1.52905,0.25859 -3.84966,0.26006 -3.84966,0.26006c-19.66498,0.01236 -31.018,2.28903 -37.9644,4.68078c-0.81722,0.2714 -0.74424,0.59767 -0.74355,0.90048c0.00019,0.08618 -0.04928,0.22314 -0.10333,0.36479c0.05187,-0.04562 0.18162,-0.08316 0.44583,-0.10743c1.16745,-0.10704 11.32048,0.53699 12.5653,0.16195c0.37411,-0.1127 -1.83653,-0.13253 -1.71489,-0.25943c1.49592,-1.56023 17.39306,-3.92872 25.20886,-4.5809c2.02712,-0.16916 4.30933,-0.25507 6.5782,-0.29518c-0.88762,-0.22822 0.89142,-0.57948 0.89075,-0.86845zM509.00481,274.58542c-0.11636,0.304 -0.21964,0.59458 0.1323,0.41937c0.24055,-0.11974 -0.1075,-0.28747 -0.1323,-0.41937zM500.64169,272.49046c7.37339,-2.3081 17.18205,-4.41451 32.47316,-5.25076c1.43576,-0.37268 4.39899,-0.37452 4.39899,-0.37452l2.58133,-0.00162c5.84505,-0.00368 8.93666,-0.34282 15.21502,-0.34672c8.71911,-0.00547 10.7468,2.86427 6.18928,3.70793c-2.87593,0.53233 -7.49058,0.70934 -11.34132,1.03062c-11.39829,0.95111 -15.62223,3.66621 -28.11122,5.02371c-13.23673,1.43876 -27.82001,-1.65849 -21.40526,-3.78863z" data-paper-data="{&quot;index&quot;:null}" fill="#000000" fill-rule="nonzero" stroke="none" stroke-width="0" stroke-linecap="butt"/><path d="M553.05695,268.10837c0.0689,0.16308 0.15272,0.3314 0.15293,0.43051c0.00065,0.28896 -1.75717,0.64546 -0.86956,0.87371c-2.2689,0.04011 -4.56421,0.12253 -6.59138,0.29169c-7.81589,0.65218 -23.78979,3.00877 -25.28565,4.56899c-0.12176,0.12691 1.84386,0.22197 1.46973,0.33466c-1.24485,0.37504 -11.48582,-0.28018 -12.6533,-0.1732c-0.2643,0.02421 -0.39279,0.06197 -0.44459,0.10765c0.05405,-0.14165 0.09394,-0.28057 0.09375,-0.36674c-0.00068,-0.30282 -0.09624,-0.63506 0.72101,-0.9064c6.94633,-2.39174 18.70926,-4.71892 38.37421,-4.73129c0,0 2.33114,0.00033 3.86018,-0.25826c0.51004,-0.04831 0.90682,-0.10498 1.17243,-0.17136z" data-paper-data="{&quot;noHover&quot;:false,&quot;origItem&quot;:[&quot;Path&quot;,{&quot;applyMatrix&quot;:true,&quot;segments&quot;:[[[607.563,601.99816],[0.02649,0.38155],[-0.10299,0.15484]],[[607.10872,602.39727],[0.1976,-0.11227],[-0.59254,0.60273]],[[605.61718,603],[0,0],[-7.618,0]],[[590.90604,613.89443],[2.69308,-5.58508],[-0.31682,0.63364]],[[590.61718,616],[0,-0.70843],[0,0.20156]],[[590.57685,616.85325],[0.02106,-0.33136],[0.02013,-0.10671]],[[590.74964,616.60263],[-0.10238,0.05628],[0.45234,-0.24865]],[[595.61718,617],[-0.48256,0.87548],[0.14503,-0.26312]],[[594.95308,616.3906],[-0.04725,0.29671],[0.58086,-3.64773]],[[604.72276,605.71115],[-3.02833,1.51416],[0.78545,-0.39273]],[[607.27135,605.03032],[-0.87898,0.0905],[-0.34365,-0.53523]],[[607.61718,603],[0,0.6759],[0,-0.23192]]],&quot;closed&quot;:true}],&quot;index&quot;:null}" fill="#ffffff" fill-rule="nonzero" stroke="none" stroke-width="0" stroke-linecap="butt"/><path d="M371.77627,266.16456l-19.76914,-19.14253l93.69715,0.11074l33.57674,18.9643z" data-paper-data="{&quot;index&quot;:null}" fill="#cedce9" fill-rule="nonzero" stroke="#000000" stroke-width="0" stroke-linecap="round"/><path d="M488.1911,265.09603c-2.53537,0.21157 -5.02815,0.33324 -7.49601,0.42143c0.01679,0.03226 0.02551,0.06587 0.02559,0.10101c0.00194,0.85491 -5.1608,0.85814 -5.1608,0.85814c-22.80221,0.01433 -45.60433,0.02864 -68.40647,0.04294c-5.86765,0.00368 -20.46882,-0.37504 -24.79534,0.13902c-2.49217,0.29613 -4.27685,0.26803 -7.47097,0.30871c-0.36051,0.00458 -1.01625,0.01433 -1.59566,0.02042c3.08953,0.36317 1.60419,3.73852 1.60635,4.68167c0.00908,3.98967 0.01812,7.97928 0.0272,11.96895c0.0016,0.71241 0.00322,1.42488 0.00485,2.13729c0.00065,0.285 -0.90552,1.09756 0.00194,0.85491c3.45256,-0.92315 10.19566,-0.43223 18.06866,-0.43877c15.51938,-0.01304 32.13396,-0.29823 47.37744,0.15452c27.83585,0.90434 57.75828,-0.5872 85.37226,0.4225c23.25749,0.94813 51.09544,1.01741 75.05495,1.00238c6.02327,-0.00375 12.04642,-0.00756 18.06966,-0.01135c0.90625,-0.00055 2.32912,-0.02164 3.80233,-0.04473c-1.48298,-0.43766 0.06626,-1.49922 0.06491,-2.09502c-0.00505,-2.22583 4.49192,-6.0682 -1.04401,-8.06451c-4.89362,-2.42525 -7.99102,-4.76131 -15.97006,-7.17806c-5.88716,-1.7832 -15.04909,-3.36136 -19.9208,-5.13326c-2.3623,-1.05642 -4.47318,-0.29903 -12.15878,-0.53901c-17.00624,-0.53104 -34.0612,-0.40606 -51.62851,-0.39506c-6.4034,0.00403 -14.44505,0.22437 -20.65104,0.01296c-1.31004,-0.04463 -3.77221,-0.21201 -5.6178,-0.34918c3.37603,0.42966 -4.32441,0.85222 -7.55991,1.12217zM407.14921,264.80969c17.23319,-0.0108 34.46634,-0.02164 51.69948,-0.03244c0.49704,-0.0415 0.99398,-0.08294 1.49101,-0.12444c6.54685,-0.54627 12.45893,-0.40629 18.06825,-0.65252c7.64435,-0.33555 12.21475,-1.45235 20.10212,-1.72245c4.53093,-0.15519 17.08239,0.32647 23.50567,0.32247c17.41699,-0.0109 34.81452,-0.18678 51.62851,0.39506c9.44543,0.32687 17.42579,-0.32692 21.84711,1.6503c0.65281,0.75173 5.86528,1.21852 8.59232,1.79544c4.16756,0.88157 7.65219,2.18898 10.87776,3.16591c7.99617,2.42197 11.5153,4.91598 16.53092,7.40171c4.48318,2.62065 1.56901,5.8757 1.5752,8.60491c0.00344,1.50888 1.44189,2.57143 -5.15399,3.85041c-2.30007,0.44599 -23.55962,0.01476 -27.10445,0.017c-24.71307,0.01554 -53.58879,-0.07467 -77.5594,-1.05186c-26.33426,-1.258 -57.67394,0.47938 -84.8929,-0.40494c-21.93438,-0.8043 -55.78304,1.3962 -73.75043,-1.38715c-1.77886,-0.2756 -0.00578,-2.53665 -0.00681,-2.99227c-0.00908,-3.98967 -0.01812,-7.97928 -0.0272,-11.96895c-0.00301,-1.3339 -3.56112,-4.51637 1.82327,-5.51302c9.39607,-1.7393 26.98922,-1.34448 40.75383,-1.35308z" data-paper-data="{&quot;index&quot;:null}" fill="#000000" fill-rule="nonzero" stroke="none" stroke-width="0" stroke-linecap="butt"/><path d="M480.62287,265.47642c2.46783,-0.08813 4.99065,-0.21099 7.52614,-0.42256c3.23549,-0.26995 10.96657,-0.69303 7.59043,-1.12267c1.84557,0.13718 4.3283,0.30455 5.63821,0.34918c6.206,0.21139 14.31973,-0.00682 20.72296,-0.01084c17.56722,-0.01102 34.73294,-0.12409 51.73914,0.40695c7.68559,0.24002 9.81249,-0.51418 12.17477,0.54224c4.87175,1.77188 14.0724,3.36275 19.95963,5.14595c7.97906,2.41675 11.08711,4.76902 15.98073,7.19428c5.53599,1.99633 1.01478,5.8535 1.01984,8.07933c0.00134,0.5958 -1.55753,1.66037 -0.07451,2.09803c-1.47309,0.02311 -2.89793,0.04473 -3.80425,0.0453c-6.02325,0.00381 -12.05696,0.01025 -18.0802,0.01403c-23.95963,0.01505 -51.91057,-0.03931 -75.16808,-0.98745c-27.61399,-1.0097 -57.80997,0.47373 -85.64586,-0.43061c-15.24347,-0.45276 -31.90507,-0.17723 -47.42446,-0.16425c-7.87299,0.0066 -14.62221,-0.48619 -18.07478,0.437c-0.90746,0.24266 -0.00517,-0.57122 -0.00583,-0.8562c-0.00162,-0.71241 -0.01208,-1.42837 -0.01371,-2.14076c-0.00904,-3.98967 -0.02892,-8.00298 -0.038,-11.99266c-0.00216,-0.94317 1.49884,-4.32668 -1.59071,-4.68985c0.57949,-0.0061 1.2357,-0.01605 1.59627,-0.02065c3.19401,-0.0406 4.98276,-0.01399 7.47484,-0.3101c4.32652,-0.51406 18.94091,-0.13929 24.80854,-0.143c22.80227,-0.01433 45.7259,-0.0457 68.52805,-0.06001c0,0 5.18809,-0.0047 5.18615,-0.85967c-0.00008,-0.03508 -0.0082,-0.06873 -0.025,-0.10101z" data-paper-data="{&quot;noHover&quot;:false,&quot;origItem&quot;:[&quot;Path&quot;,{&quot;applyMatrix&quot;:true,&quot;segments&quot;:[[[579.60736,595.76373],[0.95609,-0.20262],[0.00646,0.07548]],[[579.61718,596],[0,-0.08208],[0,2]],[[577.61718,598],[0,0],[-8.83333,0]],[[551.11718,598],[8.83333,0],[-2.27308,0]],[[541.51161,598.28885],[1.67648,-1.19621],[-0.96568,0.68904]],[[538.61718,599],[1.23739,-0.09027],[-0.13966,0.01019]],[[537.99901,599.04541],[0.22447,-0.0134],[1.19653,0.85421]],[[538.61718,610],[0,-2.20646],[0,9.33333]],[[538.61718,638],[0,-9.33333],[0,1.66667]],[[538.61718,643],[0,-1.66667],[0,0.66667]],[[538.61718,645],[-0.35177,0.56631],[1.33831,-2.15456]],[[545.61718,644],[-3.04994,0.00386],[6.01206,-0.00761]],[[563.97058,644.43107],[-5.90478,-1.08158],[10.78253,2.15651]],[[597.04254,645.54479],[-10.6965,-2.40266],[9.00888,2.25222]],[[626.11718,648],[-9.28168,0],[2.33333,0]],[[633.11718,648],[-2.33333,0],[0.35109,0]],[[634.59021,647.90091],[-0.5707,0.05184],[-0.57412,-1.02596]],[[634.61718,643],[0,1.39387],[0,-5.20707]],[[634.21982,624.13246],[2.14282,4.67827],[-1.8936,-5.6808]],[[628.03948,607.31672],[3.08887,5.66543],[-2.2791,-4.1802]],[[620.32688,595.27881],[1.8857,4.15235],[-0.91417,-2.47477]],[[615.61718,594],[2.9771,0.57275],[-6.58756,-1.26734]],[[595.61718,593],[6.8054,0],[-2.48058,0]],[[587.61718,593],[2.40395,0.50364],[-0.50743,-0.10631]],[[585.44122,592.1748],[0.71481,0.32365],[1.30749,1.01011]],[[582.51161,594.78885],[1.25365,-0.62682],[-0.98239,0.4912]]],&quot;closed&quot;:true}],&quot;index&quot;:null}" fill="#c9c9c9" fill-rule="nonzero" stroke="none" stroke-width="0" stroke-linecap="butt"/><path d="M553.00603,268.56526c-0.00023,-0.09914 -0.0721,-0.26508 -0.14082,-0.42815c-0.26581,0.06637 -0.66232,0.12302 -1.17233,0.17136c-1.52905,0.25859 -3.84966,0.26006 -3.84966,0.26006c-19.66498,0.01236 -31.018,2.28903 -37.9644,4.68078c-0.81722,0.2714 -0.74424,0.59767 -0.74355,0.90048c0.00019,0.08618 -0.04928,0.22314 -0.10333,0.36479c0.05187,-0.04562 0.18162,-0.08316 0.44583,-0.10743c1.16745,-0.10704 11.32048,0.53699 12.5653,0.16195c0.37411,-0.1127 -1.83653,-0.13253 -1.71489,-0.25943c1.49592,-1.56023 17.39306,-3.92872 25.20886,-4.5809c2.02712,-0.16916 4.30933,-0.25507 6.5782,-0.29518c-0.88762,-0.22822 0.89142,-0.57948 0.89075,-0.86845zM509.00481,274.58542c-0.11636,0.304 -0.21964,0.59458 0.1323,0.41937c0.24055,-0.11974 -0.1075,-0.28747 -0.1323,-0.41937zM500.64169,272.49046c7.37339,-2.3081 17.18205,-4.41451 32.47316,-5.25076c1.43576,-0.37268 4.39899,-0.37452 4.39899,-0.37452l2.58133,-0.00162c5.84505,-0.00368 8.93666,-0.34282 15.21502,-0.34672c8.71911,-0.00547 10.7468,2.86427 6.18928,3.70793c-2.87593,0.53233 -7.49058,0.70934 -11.34132,1.03062c-11.39829,0.95111 -15.62223,3.66621 -28.11122,5.02371c-13.23673,1.43876 -27.82001,-1.65849 -21.40526,-3.78863z" data-paper-data="{&quot;index&quot;:null}" fill="#000000" fill-rule="nonzero" stroke="none" stroke-width="0" stroke-linecap="butt"/><path d="M553.05695,268.10837c0.0689,0.16308 0.15272,0.3314 0.15293,0.43051c0.00065,0.28896 -1.75717,0.64546 -0.86956,0.87371c-2.2689,0.04011 -4.56421,0.12253 -6.59138,0.29169c-7.81589,0.65218 -23.78979,3.00877 -25.28565,4.56899c-0.12176,0.12691 1.84386,0.22197 1.46973,0.33466c-1.24485,0.37504 -11.48582,-0.28018 -12.6533,-0.1732c-0.2643,0.02421 -0.39279,0.06197 -0.44459,0.10765c0.05405,-0.14165 0.09394,-0.28057 0.09375,-0.36674c-0.00068,-0.30282 -0.09624,-0.63506 0.72101,-0.9064c6.94633,-2.39174 18.70926,-4.71892 38.37421,-4.73129c0,0 2.33114,0.00033 3.86018,-0.25826c0.51004,-0.04831 0.90682,-0.10498 1.17243,-0.17136z" data-paper-data="{&quot;noHover&quot;:false,&quot;origItem&quot;:[&quot;Path&quot;,{&quot;applyMatrix&quot;:true,&quot;segments&quot;:[[[607.563,601.99816],[0.02649,0.38155],[-0.10299,0.15484]],[[607.10872,602.39727],[0.1976,-0.11227],[-0.59254,0.60273]],[[605.61718,603],[0,0],[-7.618,0]],[[590.90604,613.89443],[2.69308,-5.58508],[-0.31682,0.63364]],[[590.61718,616],[0,-0.70843],[0,0.20156]],[[590.57685,616.85325],[0.02106,-0.33136],[0.02013,-0.10671]],[[590.74964,616.60263],[-0.10238,0.05628],[0.45234,-0.24865]],[[595.61718,617],[-0.48256,0.87548],[0.14503,-0.26312]],[[594.95308,616.3906],[-0.04725,0.29671],[0.58086,-3.64773]],[[604.72276,605.71115],[-3.02833,1.51416],[0.78545,-0.39273]],[[607.27135,605.03032],[-0.87898,0.0905],[-0.34365,-0.53523]],[[607.61718,603],[0,0.6759],[0,-0.23192]]],&quot;closed&quot;:true}],&quot;index&quot;:null}" fill="#ffffff" fill-rule="nonzero" stroke="none" stroke-width="0" stroke-linecap="butt"/><path d="M164.71899,265.04598l33.57675,-18.9643l93.69714,-0.11074l-19.76914,19.14253z" data-paper-data="{&quot;index&quot;:null}" fill="#cedce9" fill-rule="nonzero" stroke="#000000" stroke-width="0" stroke-linecap="round"/><path d="M155.80894,264.04489c-3.2355,-0.26995 -10.93595,-0.69251 -7.55991,-1.12217c-1.84559,0.13718 -4.30777,0.30463 -5.61781,0.34924c-6.20599,0.21139 -14.24765,-0.00896 -20.65104,-0.01296c-17.56731,-0.01102 -34.62226,-0.13601 -51.62851,0.39506c-7.68561,0.24002 -9.79648,-0.51734 -12.15878,0.53901c-4.8717,1.77188 -14.03364,3.35007 -19.92079,5.13326c-7.97904,2.41675 -11.07645,4.75281 -15.97007,7.17806c-5.53593,1.99633 -1.03896,5.83868 -1.04401,8.06451c-0.00135,0.5958 1.54789,1.65736 0.06491,2.09502c1.47321,0.02311 2.89607,0.04419 3.80232,0.04473c6.02324,0.00375 12.04639,0.00756 18.06966,0.01135c23.95951,0.01505 51.79746,-0.05426 75.05494,-1.00238c27.61399,-1.0097 57.53642,0.48184 85.37226,-0.4225c15.24348,-0.45276 31.85806,-0.16755 47.37744,-0.15452c7.87301,0.0066 14.6161,-0.48435 18.06866,0.43877c0.90746,0.24266 0.00129,-0.56993 0.00194,-0.85491c0.00162,-0.71241 0.00325,-1.42488 0.00485,-2.13729c0.00908,-3.98967 0.01812,-7.97928 0.0272,-11.96895c0.00216,-0.94317 -1.48319,-4.31846 1.60635,-4.68167c-0.5794,-0.0061 -1.23515,-0.01583 -1.59566,-0.02042c-3.19412,-0.0406 -4.97879,-0.01259 -7.47096,-0.30871c-4.32652,-0.51406 -18.92768,-0.13533 -24.79534,-0.13902c-22.80214,-0.01433 -45.60426,-0.02864 -68.40647,-0.04294c0,0 -5.16274,-0.00323 -5.1608,-0.85814c0.00008,-0.03512 0.0088,-0.06873 0.02559,-0.10101c-2.46787,-0.08819 -4.96064,-0.20989 -7.49601,-0.42143zM236.85053,263.75861c13.76461,0.0086 31.35777,-0.3862 40.75384,1.35308c5.38439,0.99669 1.82628,4.17914 1.82327,5.51302c-0.00907,3.98967 -0.01813,7.97928 -0.0272,11.96895c-0.00103,0.45556 1.77206,2.71667 -0.0068,2.99227c-17.9674,2.78334 -51.81605,0.5829 -73.75043,1.38715c-27.21896,0.88433 -58.55864,-0.85307 -84.8929,0.40494c-23.97061,0.97721 -52.84632,1.06744 -77.55939,1.05186c-3.54483,-0.00224 -24.80439,0.429 -27.10445,-0.017c-6.59588,-1.27898 -5.15742,-2.34153 -5.15399,-3.85041c0.00619,-2.72921 -2.90798,-5.98426 1.5752,-8.60491c5.01563,-2.4857 8.53476,-4.97974 16.53093,-7.40171c3.22556,-0.977 6.71019,-2.28433 10.87776,-3.16591c2.72704,-0.57684 7.9395,-1.04371 8.59231,-1.79544c4.42133,-1.97719 12.40168,-1.32343 21.84711,-1.6503c16.81399,-0.58184 34.21152,-0.40601 51.62851,-0.39506c6.42327,0.00403 18.97474,-0.47759 23.50567,-0.32247c7.88736,0.27013 12.45776,1.38691 20.10211,1.72245c5.60931,0.24622 11.5214,0.10626 18.06825,0.65252c0.49703,0.0415 0.99398,0.08294 1.49101,0.12444c17.23314,0.0108 34.46629,0.02164 51.69948,0.03244z" data-paper-data="{&quot;index&quot;:null}" fill="#000000" fill-rule="nonzero" stroke="none" stroke-width="0" stroke-linecap="butt"/><path d="M163.37679,264.42532c-0.0168,0.03226 -0.02491,0.06593 -0.025,0.10101c-0.00194,0.85491 5.18615,0.85967 5.18615,0.85967c22.80215,0.01433 45.72579,0.0457 68.52805,0.06001c5.86764,0.00368 20.48202,-0.371 24.80854,0.143c2.49208,0.29613 4.28083,0.2695 7.47484,0.3101c0.36057,0.00458 1.01678,0.01455 1.59627,0.02065c-3.08955,0.36321 -1.58855,3.74669 -1.59071,4.68985c-0.00907,3.98967 -0.02895,8.00298 -0.03799,11.99266c-0.00163,0.71241 -0.0121,1.42837 -0.01371,2.14076c-0.00066,0.285 0.90163,1.09885 -0.00583,0.8562c-3.45256,-0.92315 -10.20178,-0.43039 -18.07478,-0.437c-15.51939,-0.01296 -32.18099,-0.2885 -47.42446,0.16425c-27.83589,0.90434 -58.03187,-0.57908 -85.64586,0.43061c-23.25751,0.94813 -51.20845,1.00249 -75.16808,0.98745c-6.02324,-0.00375 -12.05696,-0.01025 -18.0802,-0.01403c-0.90632,-0.00055 -2.33116,-0.02226 -3.80425,-0.0453c1.48302,-0.43766 -0.07586,-1.50223 -0.07452,-2.09803c0.00506,-2.22583 -4.51614,-6.08303 1.01984,-8.07933c4.89361,-2.42525 8.00167,-4.77753 15.98073,-7.19428c5.88724,-1.7832 15.08788,-3.37407 19.95963,-5.14595c2.36227,-1.05642 4.48917,-0.30221 12.17477,-0.54224c17.00621,-0.53104 34.17192,-0.41797 51.73915,-0.40695c6.40323,0.00403 14.51696,0.22223 20.72296,0.01084c1.30991,-0.04463 3.79264,-0.21201 5.63821,-0.34918c-3.37613,0.42966 4.35494,0.85274 7.59043,1.12267c2.5355,0.21157 5.05832,0.33441 7.52615,0.42256z" data-paper-data="{&quot;noHover&quot;:false,&quot;origItem&quot;:[&quot;Path&quot;,{&quot;applyMatrix&quot;:true,&quot;segments&quot;:[[[579.60736,595.76373],[0.95609,-0.20262],[0.00646,0.07548]],[[579.61718,596],[0,-0.08208],[0,2]],[[577.61718,598],[0,0],[-8.83333,0]],[[551.11718,598],[8.83333,0],[-2.27308,0]],[[541.51161,598.28885],[1.67648,-1.19621],[-0.96568,0.68904]],[[538.61718,599],[1.23739,-0.09027],[-0.13966,0.01019]],[[537.99901,599.04541],[0.22447,-0.0134],[1.19653,0.85421]],[[538.61718,610],[0,-2.20646],[0,9.33333]],[[538.61718,638],[0,-9.33333],[0,1.66667]],[[538.61718,643],[0,-1.66667],[0,0.66667]],[[538.61718,645],[-0.35177,0.56631],[1.33831,-2.15456]],[[545.61718,644],[-3.04994,0.00386],[6.01206,-0.00761]],[[563.97058,644.43107],[-5.90478,-1.08158],[10.78253,2.15651]],[[597.04254,645.54479],[-10.6965,-2.40266],[9.00888,2.25222]],[[626.11718,648],[-9.28168,0],[2.33333,0]],[[633.11718,648],[-2.33333,0],[0.35109,0]],[[634.59021,647.90091],[-0.5707,0.05184],[-0.57412,-1.02596]],[[634.61718,643],[0,1.39387],[0,-5.20707]],[[634.21982,624.13246],[2.14282,4.67827],[-1.8936,-5.6808]],[[628.03948,607.31672],[3.08887,5.66543],[-2.2791,-4.1802]],[[620.32688,595.27881],[1.8857,4.15235],[-0.91417,-2.47477]],[[615.61718,594],[2.9771,0.57275],[-6.58756,-1.26734]],[[595.61718,593],[6.8054,0],[-2.48058,0]],[[587.61718,593],[2.40395,0.50364],[-0.50743,-0.10631]],[[585.44122,592.1748],[0.71481,0.32365],[1.30749,1.01011]],[[582.51161,594.78885],[1.25365,-0.62682],[-0.98239,0.4912]]],&quot;closed&quot;:true}],&quot;index&quot;:null}" fill="#c9c9c9" fill-rule="nonzero" stroke="none" stroke-width="0" stroke-linecap="butt"/><path d="M90.99403,267.51417c-0.00067,0.28896 1.77837,0.64021 0.89076,0.86845c2.26887,0.04011 4.55109,0.126 6.5782,0.29518c7.8158,0.65218 23.71294,3.02068 25.20885,4.5809c0.12164,0.12691 -2.08899,0.14675 -1.71489,0.25943c1.24482,0.37504 11.39785,-0.26898 12.5653,-0.16195c0.26421,0.02421 0.39396,0.06179 0.44583,0.10737c-0.05406,-0.14165 -0.10352,-0.27861 -0.10333,-0.36479c0.00069,-0.30282 0.07367,-0.62914 -0.74355,-0.90048c-6.9464,-2.39174 -18.29942,-4.66847 -37.9644,-4.68078c0,0 -2.32061,-0.00147 -3.84966,-0.26006c-0.51,-0.04831 -0.90652,-0.10498 -1.17233,-0.17136c-0.06872,0.16308 -0.14059,0.32901 -0.14083,0.42815zM134.86289,273.95365c0.35194,0.17526 0.24865,-0.11531 0.13229,-0.41937c-0.0248,0.13187 -0.37284,0.29958 -0.13229,0.41937zM143.35832,271.43938c6.41475,2.13014 -8.16853,5.22732 -21.40526,3.78863c-12.48898,-1.35751 -16.71293,-4.0726 -28.11122,-5.02371c-3.85074,-0.3213 -8.46538,-0.49828 -11.34132,-1.03062c-4.55751,-0.84362 -2.52983,-3.71336 6.18928,-3.70793c6.27836,0.00393 9.36997,0.34309 15.21501,0.34672l2.58133,0.00162c0,0 2.96323,0.00184 4.39899,0.37452c15.29111,0.83629 25.09977,2.94272 32.47316,5.25076z" data-paper-data="{&quot;index&quot;:null}" fill="#000000" fill-rule="nonzero" stroke="none" stroke-width="0" stroke-linecap="butt"/><path d="M90.94327,267.05729c0.26561,0.06633 0.6624,0.12297 1.17244,0.17136c1.52904,0.25859 3.86019,0.25826 3.86019,0.25826c19.66494,0.01236 31.42788,2.33947 38.37421,4.73129c0.81725,0.2714 0.72169,0.60365 0.72101,0.9064c-0.00018,0.08618 0.03971,0.2251 0.09375,0.36674c-0.0518,-0.04562 -0.18028,-0.08339 -0.44458,-0.10765c-1.16748,-0.10704 -11.40845,0.54816 -12.6533,0.1732c-0.37414,-0.1127 1.5915,-0.20776 1.46973,-0.33466c-1.49586,-1.56023 -17.46976,-3.9168 -25.28565,-4.56899c-2.02717,-0.16916 -4.32249,-0.25162 -6.59138,-0.29169c0.88761,-0.22822 -0.87021,-0.58481 -0.86955,-0.87371c0.00022,-0.09914 0.08403,-0.26749 0.15293,-0.43051z" data-paper-data="{&quot;noHover&quot;:false,&quot;origItem&quot;:[&quot;Path&quot;,{&quot;applyMatrix&quot;:true,&quot;segments&quot;:[[[607.563,601.99816],[0.02649,0.38155],[-0.10299,0.15484]],[[607.10872,602.39727],[0.1976,-0.11227],[-0.59254,0.60273]],[[605.61718,603],[0,0],[-7.618,0]],[[590.90604,613.89443],[2.69308,-5.58508],[-0.31682,0.63364]],[[590.61718,616],[0,-0.70843],[0,0.20156]],[[590.57685,616.85325],[0.02106,-0.33136],[0.02013,-0.10671]],[[590.74964,616.60263],[-0.10238,0.05628],[0.45234,-0.24865]],[[595.61718,617],[-0.48256,0.87548],[0.14503,-0.26312]],[[594.95308,616.3906],[-0.04725,0.29671],[0.58086,-3.64773]],[[604.72276,605.71115],[-3.02833,1.51416],[0.78545,-0.39273]],[[607.27135,605.03032],[-0.87898,0.0905],[-0.34365,-0.53523]],[[607.61718,603],[0,0.6759],[0,-0.23192]]],&quot;closed&quot;:true}],&quot;index&quot;:null}" fill="#ffffff" fill-rule="nonzero" stroke="none" stroke-width="0" stroke-linecap="butt"/><path d="M164.71899,265.04598l33.57674,-18.9643l93.69715,-0.11074l-19.76914,19.14253z" data-paper-data="{&quot;index&quot;:null}" fill="#cedce9" fill-rule="nonzero" stroke="#000000" stroke-width="0" stroke-linecap="round"/><path d="M155.80894,264.04489c-3.2355,-0.26995 -10.93595,-0.69251 -7.55991,-1.12217c-1.84559,0.13718 -4.30777,0.30463 -5.61781,0.34924c-6.20599,0.21139 -14.24765,-0.00896 -20.65104,-0.01296c-17.56731,-0.01102 -34.62226,-0.13601 -51.62851,0.39506c-7.68561,0.24002 -9.79648,-0.51734 -12.15878,0.53901c-4.8717,1.77188 -14.03364,3.35007 -19.92079,5.13326c-7.97904,2.41675 -11.07645,4.75281 -15.97007,7.17806c-5.53593,1.99633 -1.03896,5.83868 -1.04401,8.06451c-0.00135,0.5958 1.54789,1.65736 0.06491,2.09502c1.47321,0.02311 2.89607,0.04419 3.80232,0.04473c6.02324,0.00375 12.04639,0.00756 18.06966,0.01135c23.95951,0.01505 51.79746,-0.05426 75.05494,-1.00238c27.61399,-1.0097 57.53642,0.48184 85.37227,-0.4225c15.24348,-0.45276 31.85806,-0.16755 47.37744,-0.15452c7.87301,0.0066 14.6161,-0.48435 18.06866,0.43877c0.90746,0.24266 0.00129,-0.56993 0.00194,-0.85491c0.00162,-0.71241 0.00325,-1.42488 0.00485,-2.13729c0.00908,-3.98967 0.01812,-7.97928 0.0272,-11.96895c0.00216,-0.94317 -1.48319,-4.31846 1.60635,-4.68167c-0.5794,-0.0061 -1.23515,-0.01583 -1.59566,-0.02042c-3.19412,-0.0406 -4.97879,-0.01259 -7.47096,-0.30871c-4.32652,-0.51406 -18.92768,-0.13533 -24.79534,-0.13902c-22.80214,-0.01433 -45.60426,-0.02864 -68.40647,-0.04294c0,0 -5.16274,-0.00323 -5.1608,-0.85814c0.00007,-0.03512 0.00879,-0.06873 0.02558,-0.10101c-2.46786,-0.08819 -4.96064,-0.20989 -7.49601,-0.42143zM236.85053,263.75861c13.7646,0.0086 31.35776,-0.3862 40.75383,1.35308c5.38439,0.99669 1.82628,4.17914 1.82328,5.51302c-0.00908,3.98967 -0.01813,7.97928 -0.0272,11.96895c-0.00103,0.45556 1.77206,2.71667 -0.0068,2.99227c-17.9674,2.78334 -51.81605,0.5829 -73.75043,1.38715c-27.21896,0.88433 -58.55864,-0.85307 -84.8929,0.40494c-23.97061,0.97721 -52.84633,1.06744 -77.5594,1.05186c-3.54483,-0.00224 -24.80438,0.429 -27.10445,-0.017c-6.59588,-1.27898 -5.15742,-2.34153 -5.15399,-3.85041c0.00619,-2.72921 -2.90798,-5.98426 1.5752,-8.60491c5.01563,-2.4857 8.53476,-4.97974 16.53093,-7.40171c3.22556,-0.977 6.71019,-2.28433 10.87775,-3.16591c2.72704,-0.57684 7.9395,-1.04371 8.59231,-1.79544c4.42133,-1.97719 12.40169,-1.32343 21.84712,-1.6503c16.81399,-0.58184 34.21151,-0.40601 51.62851,-0.39506c6.42327,0.00403 18.97474,-0.47759 23.50567,-0.32247c7.88736,0.27013 12.45777,1.38691 20.10212,1.72245c5.60932,0.24622 11.5214,0.10626 18.06825,0.65252c0.49703,0.0415 0.99398,0.08294 1.49101,0.12444c17.23314,0.0108 34.46629,0.02164 51.69948,0.03244z" data-paper-data="{&quot;index&quot;:null}" fill="#000000" fill-rule="nonzero" stroke="none" stroke-width="0" stroke-linecap="butt"/><path d="M163.37679,264.42532c-0.0168,0.03226 -0.02491,0.06593 -0.025,0.10101c-0.00194,0.85491 5.18615,0.85967 5.18615,0.85967c22.80215,0.01433 45.72579,0.0457 68.52805,0.06001c5.86764,0.00368 20.48202,-0.371 24.80854,0.143c2.49208,0.29613 4.28083,0.2695 7.47484,0.3101c0.36057,0.00458 1.01678,0.01455 1.59627,0.02065c-3.08955,0.36321 -1.58855,3.74669 -1.59071,4.68985c-0.00907,3.98967 -0.02895,8.00298 -0.03799,11.99266c-0.00163,0.71241 -0.0121,1.42837 -0.01371,2.14076c-0.00066,0.285 0.90163,1.09885 -0.00583,0.8562c-3.45256,-0.92315 -10.20178,-0.43039 -18.07478,-0.437c-15.51939,-0.01296 -32.18099,-0.2885 -47.42446,0.16425c-27.83589,0.90434 -58.03187,-0.57908 -85.64586,0.43061c-23.25751,0.94813 -51.20845,1.00249 -75.16808,0.98745c-6.02324,-0.00375 -12.05696,-0.01025 -18.0802,-0.01403c-0.90632,-0.00055 -2.33116,-0.02226 -3.80425,-0.0453c1.48302,-0.43766 -0.07586,-1.50223 -0.07452,-2.09803c0.00506,-2.22583 -4.51614,-6.08303 1.01984,-8.07933c4.89361,-2.42525 8.00167,-4.77753 15.98073,-7.19428c5.88724,-1.7832 15.08788,-3.37407 19.95963,-5.14595c2.36227,-1.05642 4.48917,-0.30221 12.17477,-0.54224c17.00621,-0.53104 34.17192,-0.41797 51.73915,-0.40695c6.40323,0.00403 14.51696,0.22223 20.72296,0.01084c1.30991,-0.04463 3.79264,-0.21201 5.63821,-0.34918c-3.37613,0.42966 4.35494,0.85274 7.59043,1.12267c2.5355,0.21157 5.05832,0.33441 7.52615,0.42256z" data-paper-data="{&quot;noHover&quot;:false,&quot;origItem&quot;:[&quot;Path&quot;,{&quot;applyMatrix&quot;:true,&quot;segments&quot;:[[[579.60736,595.76373],[0.95609,-0.20262],[0.00646,0.07548]],[[579.61718,596],[0,-0.08208],[0,2]],[[577.61718,598],[0,0],[-8.83333,0]],[[551.11718,598],[8.83333,0],[-2.27308,0]],[[541.51161,598.28885],[1.67648,-1.19621],[-0.96568,0.68904]],[[538.61718,599],[1.23739,-0.09027],[-0.13966,0.01019]],[[537.99901,599.04541],[0.22447,-0.0134],[1.19653,0.85421]],[[538.61718,610],[0,-2.20646],[0,9.33333]],[[538.61718,638],[0,-9.33333],[0,1.66667]],[[538.61718,643],[0,-1.66667],[0,0.66667]],[[538.61718,645],[-0.35177,0.56631],[1.33831,-2.15456]],[[545.61718,644],[-3.04994,0.00386],[6.01206,-0.00761]],[[563.97058,644.43107],[-5.90478,-1.08158],[10.78253,2.15651]],[[597.04254,645.54479],[-10.6965,-2.40266],[9.00888,2.25222]],[[626.11718,648],[-9.28168,0],[2.33333,0]],[[633.11718,648],[-2.33333,0],[0.35109,0]],[[634.59021,647.90091],[-0.5707,0.05184],[-0.57412,-1.02596]],[[634.61718,643],[0,1.39387],[0,-5.20707]],[[634.21982,624.13246],[2.14282,4.67827],[-1.8936,-5.6808]],[[628.03948,607.31672],[3.08887,5.66543],[-2.2791,-4.1802]],[[620.32688,595.27881],[1.8857,4.15235],[-0.91417,-2.47477]],[[615.61718,594],[2.9771,0.57275],[-6.58756,-1.26734]],[[595.61718,593],[6.8054,0],[-2.48058,0]],[[587.61718,593],[2.40395,0.50364],[-0.50743,-0.10631]],[[585.44122,592.1748],[0.71481,0.32365],[1.30749,1.01011]],[[582.51161,594.78885],[1.25365,-0.62682],[-0.98239,0.4912]]],&quot;closed&quot;:true}],&quot;index&quot;:null}" fill="#c9c9c9" fill-rule="nonzero" stroke="none" stroke-width="0" stroke-linecap="butt"/><path d="M90.99402,267.51417c-0.00067,0.28896 1.77837,0.64021 0.89075,0.86845c2.26887,0.04011 4.55109,0.126 6.5782,0.29518c7.8158,0.65218 23.71294,3.02068 25.20885,4.5809c0.12164,0.12691 -2.08899,0.14675 -1.71489,0.25943c1.24482,0.37504 11.39785,-0.26898 12.5653,-0.16195c0.26421,0.02421 0.39396,0.06179 0.44583,0.10737c-0.05406,-0.14165 -0.10352,-0.27861 -0.10333,-0.36479c0.00069,-0.30282 0.07367,-0.62914 -0.74355,-0.90048c-6.9464,-2.39174 -18.29942,-4.66847 -37.9644,-4.68078c0,0 -2.32061,-0.00147 -3.84966,-0.26006c-0.51,-0.04831 -0.90653,-0.10498 -1.17233,-0.17136c-0.06872,0.16308 -0.14059,0.32901 -0.14082,0.42815zM134.86289,273.95365c0.35194,0.17526 0.24865,-0.11531 0.13229,-0.41937c-0.0248,0.13187 -0.37284,0.29958 -0.13229,0.41937zM143.35832,271.43938c6.41475,2.13014 -8.16853,5.22732 -21.40526,3.78863c-12.48898,-1.35751 -16.71293,-4.0726 -28.11122,-5.02371c-3.85074,-0.3213 -8.46538,-0.49828 -11.34132,-1.03062c-4.55751,-0.84362 -2.52983,-3.71336 6.18928,-3.70793c6.27836,0.00393 9.36997,0.34309 15.21501,0.34672l2.58133,0.00162c0,0 2.96323,0.00184 4.39899,0.37452c15.29111,0.83629 25.09977,2.94272 32.47316,5.25076z" data-paper-data="{&quot;index&quot;:null}" fill="#000000" fill-rule="nonzero" stroke="none" stroke-width="0" stroke-linecap="butt"/><path d="M90.94327,267.05729c0.26561,0.06633 0.6624,0.12297 1.17244,0.17136c1.52904,0.25859 3.86019,0.25826 3.86019,0.25826c19.66494,0.01236 31.42788,2.33947 38.37421,4.73129c0.81725,0.2714 0.72169,0.60365 0.72101,0.9064c-0.00018,0.08618 0.03971,0.2251 0.09375,0.36674c-0.0518,-0.04562 -0.18028,-0.08339 -0.44458,-0.10765c-1.16748,-0.10704 -11.40845,0.54816 -12.6533,0.1732c-0.37414,-0.1127 1.5915,-0.20776 1.46973,-0.33466c-1.49586,-1.56023 -17.46976,-3.9168 -25.28565,-4.56899c-2.02717,-0.16916 -4.32249,-0.25162 -6.59138,-0.29169c0.88761,-0.22822 -0.87021,-0.58481 -0.86955,-0.87371c0.00022,-0.09914 0.08403,-0.26749 0.15293,-0.43051z" data-paper-data="{&quot;noHover&quot;:false,&quot;origItem&quot;:[&quot;Path&quot;,{&quot;applyMatrix&quot;:true,&quot;segments&quot;:[[[607.563,601.99816],[0.02649,0.38155],[-0.10299,0.15484]],[[607.10872,602.39727],[0.1976,-0.11227],[-0.59254,0.60273]],[[605.61718,603],[0,0],[-7.618,0]],[[590.90604,613.89443],[2.69308,-5.58508],[-0.31682,0.63364]],[[590.61718,616],[0,-0.70843],[0,0.20156]],[[590.57685,616.85325],[0.02106,-0.33136],[0.02013,-0.10671]],[[590.74964,616.60263],[-0.10238,0.05628],[0.45234,-0.24865]],[[595.61718,617],[-0.48256,0.87548],[0.14503,-0.26312]],[[594.95308,616.3906],[-0.04725,0.29671],[0.58086,-3.64773]],[[604.72276,605.71115],[-3.02833,1.51416],[0.78545,-0.39273]],[[607.27135,605.03032],[-0.87898,0.0905],[-0.34365,-0.53523]],[[607.61718,603],[0,0.6759],[0,-0.23192]]],&quot;closed&quot;:true}],&quot;index&quot;:null}" fill="#ffffff" fill-rule="nonzero" stroke="none" stroke-width="0" stroke-linecap="butt"/><g><path d="M583.58896,230.28998c0.30548,0.45657 0.40835,0.94802 0.31172,1.47444c-2.54985,0.05341 -5.04361,-0.00129 -7.48125,-0.16379c2.39087,0 4.77864,0 7.16953,0c0,-0.43693 0,-0.87371 0,-1.31057z" data-paper-data="{&quot;index&quot;:null}" fill="#6b6b6b" fill-rule="evenodd" stroke="none" stroke-width="0" stroke-linecap="butt"/><path d="M594.1874,231.10909c0.2899,0.17499 0.39589,0.39332 0.31172,0.65531c-3.17329,0.05359 -6.29048,-0.00099 -9.35156,-0.16379c3.01432,0 6.02552,0 9.03984,0c0,-0.16379 0,-0.32766 0,-0.49147z" data-paper-data="{&quot;index&quot;:null}" fill="#9e9e9e" fill-rule="evenodd" stroke="none" stroke-width="0" stroke-linecap="butt"/><path d="M502.54206,231.76435c2.54674,0 5.04049,0.05469 7.48125,0.16379c-5.01244,-0.05194 -9.99995,0.00264 -14.96252,0.16379c2.38152,-0.21805 4.87528,-0.32732 7.48125,-0.32766z" data-paper-data="{&quot;index&quot;:null}" fill="#484848" fill-rule="evenodd" stroke="none" stroke-width="0" stroke-linecap="butt"/><path d="M83.28014,232.91111c3.79611,-0.05374 7.53673,0.00085 11.22188,0.16379c-3.81888,-0.10061 -7.5595,0.00866 -11.22188,0.32766c0,-0.16379 0,-0.32766 0,-0.49147z" data-paper-data="{&quot;index&quot;:null}" fill="#838383" fill-rule="evenodd" stroke="none" stroke-width="0" stroke-linecap="butt"/><path d="M23.86418,140.56955l1.47565,0.12923l164.59665,1.16327v8.53208l95.364,0.03232v16.48l49.18839,1.4218l0.49189,-9.69409l91.55189,1.16327v9.69409l29.51303,0.12923v33.05693l15.00246,0.35546l140.2484,0.61394l-1.96753,54.54554l-3.44319,0.06465l-323.98511,2.32661l-0.24594,-5.1767l-257.6242,-0.16155v-2.9082v-110.83595z" fill="#ffe800" fill-rule="nonzero" stroke="#000000" stroke-width="1" stroke-linecap="round"/><path d="M140.93421,203.24522l29.28309,0.31692v40.00872l-30.69432,0.31692l0.35281,-40.62277z" fill="#928b78" fill-rule="nonzero" stroke="#000000" stroke-width="1" stroke-linecap="round"/><path d="M132.35772,244.37052l-50.56643,-0.71689l1.28832,-41.55892l48.95603,0.6372z" fill="#928b78" fill-rule="nonzero" stroke="#000000" stroke-width="1" stroke-linecap="round"/><path d="M74.69809,244.49443l-16.175,-0.78187l-1.4516,-40.06973l16.58974,-0.86005z" fill="#928b78" fill-rule="nonzero" stroke="#000000" stroke-width="1" stroke-linecap="round"/><path d="M189.82375,141.74218l2.01613,56.83182l-168.16349,-1.44486l0.54985,-56.15754z" fill="#38ff00" fill-rule="nonzero" stroke="#000000" stroke-width="1" stroke-linecap="round"/><path d="M189.13717,141.99138l-180.02951,-1.29256l-6.82489,-6.85051l192.94147,3.61912l16.23217,8.40157l104.09493,0.38778l-2.21348,5.04094l-105.01721,-1.16327l-18.69159,0.38778z" fill="#8b8471" fill-rule="nonzero" stroke="#000000" stroke-width="1" stroke-linecap="round"/><path d="M314.07569,158.24511l-2.21348,-2.84362l139.69503,0.64626l-6.64043,4.00689l-129.36547,-1.4218" fill="#8b8471" fill-rule="nonzero" stroke="#000000" stroke-width="1" stroke-linecap="round"/><path d="M283.087,163.93235l52.1397,0.64626l-0.84551,3.36063l-50.16685,-0.51701z" fill="#8b8471" fill-rule="nonzero" stroke="#000000" stroke-width="1" stroke-linecap="round"/><path d="M425.73335,166.3882l63.69896,-1.4218l-5.16478,4.65315l-58.04231,0.25848z" fill="#8b8471" fill-rule="nonzero" stroke="#000000" stroke-width="1" stroke-linecap="round"/><path d="M456.59904,199.02502l-171.91343,-0.87812v-26.3428h51.34039v15.20987l90.70547,0.6419l-1.12111,-13.18608l30.98869,0.75264z" fill="#262626" fill-rule="nonzero" stroke="#000000" stroke-width="1" stroke-linecap="round"/><path d="M279.64481,201.90089l-0.73782,-4.13614l356.43138,1.03404l-3.93507,4.78246l-174.98871,-0.77555z" fill="#8b8471" fill-rule="nonzero" stroke="#000000" stroke-width="1" stroke-linecap="round"/><path d="M426.59513,159.6669l1.22971,28.17755l-92.22823,-1.16327l-0.49189,-27.91902z" fill="#38ff00" fill-rule="nonzero" stroke="#000000" stroke-width="1" stroke-linecap="round"/><path d="M352.51246,163.67974l56.1736,-0.14435l1.09875,20.21069l-57.82173,-0.43307z" fill="#515a61" fill-rule="nonzero" stroke="#000000" stroke-width="1" stroke-linecap="round"/><path d="M212.04412,213.25006h59.05783l0.54937,42.34673l-62.90345,-0.28874l0.27469,-42.42434z" fill="#ff0000" fill-rule="nonzero" stroke="#000000" stroke-width="1" stroke-linecap="round"/><path d="M226.19052,213.11823h32.13844l0.82407,42.44241l-33.78657,-0.0722l0.13735,-42.74923z" fill="#2d0d0e" fill-rule="nonzero" stroke="#000000" stroke-width="1" stroke-linecap="round"/><path d="M271.17061,242.45982h228.86105v16.33098l-218.75429,1.85868l-0.13735,-5.34141l-9.47672,0.0722l-0.27469,-12.48731" fill="#807165" fill-rule="nonzero" stroke="#000000" stroke-width="1" stroke-linecap="round"/><path d="M46.78059,197.76175l0.27469,57.4741l-23.89782,0.43307l0.68672,-58.46659l22.93641,0.0722z" fill="#807165" fill-rule="nonzero" stroke="#000000" stroke-width="1" stroke-linecap="round"/><path d="M173.27421,198.06849h18.02637l0.17168,57.2937l-17.44266,0.09021z" fill="#807165" fill-rule="nonzero" stroke="#000000" stroke-width="1" stroke-linecap="round"/><path d="M298.53173,260.43287v-41.57626l173.05315,0.0722l0.27469,40.20479z" fill="#928b78" fill-rule="nonzero" stroke="#000000" stroke-width="1" stroke-linecap="round"/><path d="M304.54052,260.59534l-0.41203,-39.33864l160.17717,0.0722l0.41203,37.87696z" fill="#38ff00" fill-rule="nonzero" stroke="#000000" stroke-width="1" stroke-linecap="round"/><path d="M500.11805,259.20583l-0.96141,-39.89804l79.96841,0.14435l-0.96141,39.1943z" fill="#928b78" fill-rule="nonzero" stroke="#000000" stroke-width="1" stroke-linecap="round"/><path d="M502.38422,259.49451v-37.71455l68.91224,0.14435l-1.2361,36.79425z" fill="#38ff00" fill-rule="nonzero" stroke="#000000" stroke-width="1" stroke-linecap="round"/><path d="M301.66093,181.2378l-2.33484,2.16543l-4.25766,-0.0722l-11.26219,-11.26024l-126.90565,-0.93835l-4.25766,-3.96993l137.89315,0.36089z" fill="#8b8471" fill-rule="nonzero" stroke="#000000" stroke-width="1" stroke-linecap="round"/><path d="M140.55206,146.40494l1.64812,31.00172l-77.49622,-0.0722l-0.27469,-32.15666z" fill="#515a61" fill-rule="nonzero" stroke="#000000" stroke-width="1" stroke-linecap="round"/><path d="M128.63749,242.38767l-43.12595,-0.64961l1.09875,-37.66043l41.7525,0.57747z" fill="#515a61" fill-rule="nonzero" stroke="#000000" stroke-width="1" stroke-linecap="round"/><path d="M71.7219,242.89294l-10.71282,-0.72181l-0.9614,-36.99275l10.9875,-0.794z" fill="#515a61" fill-rule="nonzero" stroke="#000000" stroke-width="1" stroke-linecap="round"/><path d="M144.01997,205.05205l22.79906,0.28874v36.4514l-23.89781,0.28874l0.27469,-37.01082z" fill="#515a61" fill-rule="nonzero" stroke="#000000" stroke-width="1" stroke-linecap="round"/></g><path d="M266.7374,177.54581c-0.06886,0.55587 0.00324,1.08745 0.21652,1.5945c-0.01299,0.0666 -0.08508,0.10743 -0.21652,0.12265c-0.28406,-0.59095 -0.28406,-1.16339 0,-1.71715z" data-paper-data="{&quot;index&quot;:null}" fill="#9e9e9e" fill-rule="evenodd" stroke="none" stroke-width="0" stroke-linecap="butt"/><path d="M241.93693,174.3544h5.67459v3.47938l-0.94576,-2.98225z" fill="#736d42" fill-rule="evenodd" stroke="none" stroke-width="0" stroke-linecap="butt"/><path d="M210.38099,180.64219c0.2303,0 0.42369,0.02091 0.58609,0.05605c2.53071,-1.75569 6.76151,-2.64913 10.81448,-2.62054c0.68051,0.00481 5.0493,0.21228 5.75233,0.50058c1.54118,0.63195 2.05379,1.81546 3.14937,2.69659c4.54198,3.65283 5.31977,7.4181 0.40807,11.08486c-3.45876,1.0951 -6.25406,2.07144 -10.36086,2.02166c-11.63946,-0.14109 -14.77262,-7.58737 -11.71253,-12.79194l-0.07372,-0.13333c0,0 0,-0.81391 1.43679,-0.81391zM211.44232,182.67549c-1.92196,4.08473 0.10682,10.01006 9.27893,10.078c3.39694,0.02517 5.58728,-0.75492 8.48976,-1.62476c3.8961,-2.99841 2.73031,-6.02775 -0.87536,-8.91511c-0.91642,-0.73383 -1.22531,-1.74544 -2.46377,-2.30737c-1.08144,-0.49067 -2.75641,-0.18186 -4.14159,-0.20093c-3.39953,-0.0468 -7.58619,0.80542 -9.17377,2.53683c0,0 -0.39092,0.39862 -1.1142,0.43336z" data-paper-data="{&quot;index&quot;:null}" fill="#75dbff" fill-rule="nonzero" stroke="none" stroke-width="0" stroke-linecap="butt"/><path d="M212.51175,182.22167c1.58757,-1.73141 5.82161,-2.59571 9.22113,-2.54892c1.38519,0.01906 3.07981,-0.28729 4.16125,0.20345c1.23847,0.56192 1.56604,1.58069 2.48244,2.31452c3.60566,2.88736 4.76937,5.96357 0.8733,8.96198c-2.9025,0.86986 -5.13411,1.65849 -8.53104,1.63332c-9.17211,-0.06799 -11.24699,-6.04325 -9.32505,-10.12798c0.72328,-0.03478 1.11795,-0.43631 1.11795,-0.43631z" data-paper-data="{&quot;noHover&quot;:false,&quot;origItem&quot;:[&quot;Path&quot;,{&quot;applyMatrix&quot;:true,&quot;segments&quot;:[[[409.4867,271.35519],[1.25852,-0.10678],[-3.34423,12.54639]],[[425.63199,302.31001],[-15.95943,-0.20878],[5.91067,0.07732]],[[440.40413,297.31952],[-5.05034,2.67171],[6.7792,-9.20965]],[[438.881,269.93654],[6.27385,8.86861],[-1.59451,-2.25397]],[[434.59405,262.84941],[2.15492,1.72602],[-1.88172,-1.50719]],[[427.3877,262.23225],[2.4102,0.05859],[-5.91515,-0.1438]],[[411.4254,270.0241],[2.76238,-5.31806],[0,0]]],&quot;closed&quot;:true}],&quot;index&quot;:null}" fill="#ff0000" fill-rule="nonzero" stroke="none" stroke-width="0" stroke-linecap="butt"/><path d="M245.01954,180.17899c3.84852,-0.75855 8.09747,0.08159 11.98494,0.88565c0.91883,0.19002 4.11387,0.73831 4.83263,1.308c1.73039,1.37147 1.55353,3.61151 1.86624,5.20557c0.29339,1.49563 0.87652,2.95144 -0.91547,4.26901c-3.13895,2.30792 -7.87289,3.13649 -12.60766,3.84997c-2.18712,0.14774 -4.14864,0.53537 -6.1682,-0.30221c-1.21965,-0.50584 -2.41076,-2.19379 -2.99129,-2.93131c-1.9755,-2.50969 -5.16204,-5.80156 -3.48967,-8.67235c0.56682,-0.97297 3.45026,-2.12706 4.44459,-3.00003l1.7368,-0.56947c0,0 0.67433,-0.20982 1.30712,-0.04284zM243.49734,182.27753c-0.98323,0.60068 -3.13818,1.76362 -3.25471,2.05259c-1.04127,2.58195 1.64864,5.2271 3.40689,7.47602c0.13897,0.17778 1.4949,2.01387 2.06621,2.27784c0.92941,0.42944 3.15207,0.0755 3.91093,0.01572c4.20496,-0.63697 7.93205,-1.31186 10.87651,-3.2399c1.22934,-0.80498 0.52019,-2.21139 0.34432,-3.10126c-0.24066,-1.21785 0.00429,-3.27346 -1.23263,-4.35397c-0.70184,-0.61309 -2.38357,-0.56042 -3.59544,-0.81079c-3.45236,-0.7132 -8.2376,-1.86438 -11.46988,-0.47542c0,0 -0.48436,0.19601 -1.05224,0.15905z" data-paper-data="{&quot;index&quot;:null}" fill="#75dbff" fill-rule="nonzero" stroke="none" stroke-width="0" stroke-linecap="butt"/><path d="M244.52013,182.09046c3.23228,-1.38899 8.07575,-0.23801 11.52812,0.47524c1.21186,0.25037 2.90793,0.2044 3.6098,0.8175c1.2369,1.0805 1.00622,3.15691 1.24689,4.37476c0.17584,0.88986 0.87832,2.31222 -0.35105,3.1172c-2.94446,1.92796 -6.7274,2.62004 -10.93239,3.25701c-0.75885,0.05979 -2.99985,0.41103 -3.92924,-0.01845c-0.5713,-0.26403 -1.94448,-2.10681 -2.0835,-2.28459c-1.75824,-2.24892 -4.45661,-4.9339 -3.41535,-7.51585c0.11653,-0.28896 2.2871,-1.4615 3.27032,-2.06218c0.56787,0.03692 1.05636,-0.16062 1.05636,-0.16062z" data-paper-data="{&quot;noHover&quot;:false,&quot;origItem&quot;:[&quot;Path&quot;,{&quot;applyMatrix&quot;:true,&quot;segments&quot;:[[[465.26223,270.13291],[0.98811,0.11339],[-1.71083,1.84504]],[[459.59907,276.43751],[0.20277,-0.88758],[-1.81178,7.93053]],[[465.52703,299.40029],[-3.05933,-6.90758],[0.24182,0.54599]],[[469.12222,306.39679],[-0.99407,-0.81085],[1.61715,1.31908]],[[475.92722,306.44514],[-1.32039,0.18358],[7.31661,-1.95648]],[[494.85229,296.49376],[-5.12332,5.92193],[2.13908,-2.47252]],[[495.45142,286.96818],[0.30597,2.73324],[-0.41874,-3.7406]],[[493.30665,273.59497],[2.15221,3.31878],[-1.22123,-1.88318]],[[487.05062,271.1046],[2.10865,0.76899],[-6.0071,-2.19068]],[[467.0931,269.64433],[5.62415,-4.26625],[0,0]]],&quot;closed&quot;:true}],&quot;index&quot;:null}" fill="#ff0000" fill-rule="nonzero" stroke="none" stroke-width="0" stroke-linecap="butt"/><path d="M227.49907,186.62807c0,-0.71925 1.02922,-1.30231 2.29886,-1.30231c1.26963,0 2.29886,0.58306 2.29886,1.30231c0,0.71925 -1.02923,1.30231 -2.29886,1.30231c-1.26963,0 -2.29886,-0.58306 -2.29886,-1.30231z" data-paper-data="{&quot;index&quot;:null}" fill="#ff0000" fill-rule="nonzero" stroke="none" stroke-width="0" stroke-linecap="butt"/><path d="M256.87772,187.89576c0,-0.71925 1.02922,-1.30231 2.29886,-1.30231c1.26963,0 2.29886,0.58306 2.29886,1.30231c0,0.71925 -1.02923,1.30231 -2.29886,1.30231c-1.26963,0 -2.29886,-0.58306 -2.29886,-1.30231z" data-paper-data="{&quot;index&quot;:null}" fill="#ff0000" fill-rule="nonzero" stroke="none" stroke-width="0" stroke-linecap="butt"/><path d="M184.59694,156.87239c0.63758,-0.54179 1.59397,-0.18058 1.59397,-0.18058l0.46863,0.17701c5.08723,1.92127 9.93164,3.97542 14.79435,6.07425c10.70547,4.62061 22.50179,8.74321 32.03877,14.14585c0,0 0.81277,0.46042 0,0.92083c-0.81277,0.46042 -1.62554,0 -1.62554,0c-9.4608,-5.35948 -21.18593,-9.44685 -31.80643,-14.03081c-4.82446,-2.08232 -9.62926,-4.12048 -14.67633,-6.02653l-0.46862,-0.17701c0,0 -0.95639,-0.36115 -0.3188,-0.90295z" data-paper-data="{&quot;index&quot;:null}" fill="#75dbff" fill-rule="nonzero" stroke="none" stroke-width="0" stroke-linecap="butt"/><path d="M293.74984,148.9982c0.9742,0.34555 0.36424,0.89747 0.36424,0.89747l-0.6537,0.58899c-6.33538,4.3935 -13.97532,7.91681 -20.86271,11.99602c-9.46756,5.60739 -18.69518,11.55154 -29.05475,16.60488c0,0 -0.87272,0.42374 -1.62074,-0.07063c-0.74803,-0.49438 0.12467,-0.91812 0.12467,-0.91812c10.33337,-4.99211 19.48516,-10.94627 28.88952,-16.51625c6.81246,-4.03485 14.37909,-7.51651 20.65648,-11.85526l0.57281,-0.52072c0,0 0.60998,-0.55187 1.58423,-0.20629z" data-paper-data="{&quot;index&quot;:null}" fill="#75dbff" fill-rule="nonzero" stroke="none" stroke-width="0" stroke-linecap="butt"/><path d="M201.44566,195.32856c-0.14647,-0.0565 -0.26958,-0.15148 -0.26958,-0.31123c0,-0.39414 0.75,-0.39414 0.75,-0.39414l1.02909,0.39414c0,1.99357 -1.06045,3.56802 -1.8238,5.49029c-0.90828,2.28717 1.29971,4.91857 3.95633,6.61518c2.14412,0.79871 4.37366,0.96671 6.75419,1.46487c6.36138,1.33127 12.10192,1.44491 18.8348,1.804c9.49173,-0.00323 20.24092,0.06347 28.74321,-2.49103c8.09985,-2.42017 6.6588,-7.4701 5.53708,-11.58078c0,0 -0.10607,-0.39018 0.63639,-0.44593c0.74246,-0.05575 0.84853,0.33448 0.84853,0.33448c1.21306,4.48114 2.44753,9.74419 -6.2778,12.37669c-8.76097,2.62983 -19.77932,2.59705 -29.56275,2.59392c-6.89883,-0.36329 -12.81101,-0.50293 -19.33349,-1.86298c-2.55417,-0.53261 -4.89917,-0.74624 -7.2006,-1.61537c-3.05011,-1.90361 -5.34133,-4.74514 -4.41654,-7.31926c0.64138,-1.78526 1.68468,-3.24599 1.79493,-5.05278z" fill="#75dbff" fill-rule="nonzero" stroke="none" stroke-width="0.5" stroke-linecap="butt"/></g></g></g></svg>