<svg version="1.1" xmlns="http://www.w3.org/2000/svg" xmlns:xlink="http://www.w3.org/1999/xlink" width="2878.25006" height="1619.57958" viewBox="0,0,2878.25006,1619.57958"><g transform="translate(1117.37278,629.80931)"><g data-paper-data="{&quot;isPaintingLayer&quot;:true}" stroke-linejoin="miter" stroke-miterlimit="10" stroke-dasharray="" stroke-dashoffset="0" style="mix-blend-mode: normal"><path d="M-1117.37278,989.77027v-1619.57958h2878.25006v1619.57958z" fill="none" fill-rule="nonzero" stroke="#000000" stroke-width="0" stroke-linecap="butt"/><g><path d="M371.77626,287.0469l-19.76914,-26.48972l93.69715,0.15324l33.57674,26.24309z" data-paper-data="{&quot;index&quot;:null}" fill="#cedce9" fill-rule="nonzero" stroke="#000000" stroke-width="0" stroke-linecap="round"/><path d="M488.1911,285.56825c-2.53537,0.29277 -5.02815,0.46114 -7.49601,0.58318c0.01679,0.04464 0.02551,0.09115 0.02559,0.13978c0.00194,1.18304 -5.1608,1.18751 -5.1608,1.18751c-22.80221,0.01983 -45.60433,0.03963 -68.40647,0.05942c-5.86765,0.00509 -20.46882,-0.51899 -24.79534,0.19238c-2.49217,0.40979 -4.27685,0.3709 -7.47097,0.4272c-0.36051,0.00634 -1.01625,0.01983 -1.59566,0.02826c3.08953,0.50256 1.60419,5.17342 1.60635,6.47857c0.00908,5.52097 0.01812,11.04185 0.0272,16.56281c0.0016,0.98584 0.00322,1.97177 0.00485,2.95761c0.00065,0.39439 -0.90552,1.51882 0.00194,1.18304c3.45256,-1.27747 10.19566,-0.59813 18.06866,-0.60718c15.51938,-0.01804 32.13396,-0.4127 47.37744,0.21383c27.83585,1.25144 57.75828,-0.81258 85.37226,0.58466c23.25749,1.31204 51.09544,1.40791 75.05495,1.38711c6.02327,-0.00519 12.04642,-0.01046 18.06966,-0.01571c0.90625,-0.00076 2.32912,-0.02995 3.80233,-0.0619c-1.48298,-0.60564 0.06626,-2.07464 0.06491,-2.89912c-0.00505,-3.08014 4.49192,-8.39727 -1.04401,-11.15979c-4.89362,-3.3561 -7.99102,-6.58877 -15.97006,-9.93311c-5.88716,-2.46762 -15.04909,-4.6515 -19.9208,-7.10348c-2.3623,-1.46189 -4.47318,-0.4138 -12.15878,-0.74589c-17.00624,-0.73486 -34.0612,-0.56191 -51.62851,-0.54669c-6.4034,0.00558 -14.44505,0.31049 -20.65104,0.01793c-1.31004,-0.06176 -3.77221,-0.29338 -5.6178,-0.4832c3.37603,0.59457 -4.32441,1.17931 -7.55991,1.55288zM407.1492,285.17201c17.23319,-0.01495 34.46634,-0.02995 51.69948,-0.04489c0.49704,-0.05743 0.99398,-0.11477 1.49101,-0.1722c6.54685,-0.75594 12.45893,-0.56223 18.06825,-0.90297c7.64435,-0.46434 12.21475,-2.00978 20.10212,-2.38355c4.53093,-0.21475 17.08239,0.45177 23.50567,0.44624c17.41699,-0.01508 34.81452,-0.25847 51.62851,0.54669c9.44543,0.45233 17.42579,-0.4524 21.84711,2.28371c0.65281,1.04026 5.86528,1.68621 8.59232,2.48456c4.16756,1.21993 7.65219,3.02914 10.87776,4.38103c7.99617,3.35156 11.5153,6.80281 16.53092,10.2426c4.48318,3.6265 1.56901,8.13088 1.5752,11.9076c0.00344,2.08801 1.44189,3.55838 -5.15399,5.32826c-2.30007,0.61717 -23.55962,0.02043 -27.10445,0.02352c-24.71307,0.0215 -53.58879,-0.10333 -77.5594,-1.45558c-26.33426,-1.74084 -57.67394,0.66337 -84.8929,-0.56036c-21.93438,-1.113 -55.78304,1.93208 -73.75043,-1.91956c-1.77886,-0.38138 -0.00578,-3.51025 -0.00681,-4.14075c-0.00908,-5.52097 -0.01812,-11.04185 -0.0272,-16.56281c-0.00301,-1.84587 -3.56112,-6.24982 1.82327,-7.629c9.39607,-2.40687 26.98922,-1.86051 40.75383,-1.87241z" data-paper-data="{&quot;index&quot;:null}" fill="#000000" fill-rule="nonzero" stroke="none" stroke-width="0" stroke-linecap="butt"/><path d="M480.62287,286.09464c2.46783,-0.12196 4.99065,-0.29197 7.52614,-0.58474c3.23549,-0.37356 10.96657,-0.95903 7.59043,-1.55357c1.84557,0.18983 4.3283,0.42144 5.63821,0.4832c6.206,0.29252 14.31973,-0.00944 20.72296,-0.015c17.56722,-0.01525 34.73294,-0.17172 51.73914,0.56314c7.68559,0.33214 9.81249,-0.71153 12.17477,0.75036c4.87175,2.45195 14.0724,4.65342 19.95963,7.12104c7.97906,3.34434 11.08711,6.59944 15.98073,9.95555c5.53599,2.76255 1.01478,8.10016 1.01984,11.1803c0.00134,0.82448 -1.55753,2.29765 -0.07451,2.90329c-1.47309,0.03198 -2.89793,0.0619 -3.80425,0.06269c-6.02325,0.00527 -12.05696,0.01418 -18.0802,0.01941c-23.95963,0.02083 -51.91057,-0.0544 -75.16808,-1.36645c-27.61399,-1.39724 -57.80997,0.65555 -85.64586,-0.59588c-15.24347,-0.62654 -31.90507,-0.24525 -47.42446,-0.22729c-7.87299,0.00913 -14.62221,-0.6728 -18.07478,0.60473c-0.90746,0.3358 -0.00517,-0.79046 -0.00583,-1.18482c-0.00162,-0.98584 -0.01208,-1.9766 -0.01371,-2.96242c-0.00904,-5.52097 -0.02892,-11.07464 -0.038,-16.59562c-0.00216,-1.30517 1.49884,-5.98733 -1.59071,-6.48989c0.57949,-0.00844 1.2357,-0.02221 1.59627,-0.02858c3.19401,-0.05618 4.98276,-0.01936 7.47484,-0.42912c4.32652,-0.71136 18.94091,-0.19275 24.80854,-0.19789c22.80227,-0.01983 45.7259,-0.06324 68.52805,-0.08304c0,0 5.18809,-0.0065 5.18615,-1.18962c-0.00008,-0.04854 -0.0082,-0.09511 -0.025,-0.13978z" data-paper-data="{&quot;noHover&quot;:false,&quot;origItem&quot;:[&quot;Path&quot;,{&quot;applyMatrix&quot;:true,&quot;segments&quot;:[[[579.60736,595.76373],[0.95609,-0.20262],[0.00646,0.07548]],[[579.61718,596],[0,-0.08208],[0,2]],[[577.61718,598],[0,0],[-8.83333,0]],[[551.11718,598],[8.83333,0],[-2.27308,0]],[[541.51161,598.28885],[1.67648,-1.19621],[-0.96568,0.68904]],[[538.61718,599],[1.23739,-0.09027],[-0.13966,0.01019]],[[537.99901,599.04541],[0.22447,-0.0134],[1.19653,0.85421]],[[538.61718,610],[0,-2.20646],[0,9.33333]],[[538.61718,638],[0,-9.33333],[0,1.66667]],[[538.61718,643],[0,-1.66667],[0,0.66667]],[[538.61718,645],[-0.35177,0.56631],[1.33831,-2.15456]],[[545.61718,644],[-3.04994,0.00386],[6.01206,-0.00761]],[[563.97058,644.43107],[-5.90478,-1.08158],[10.78253,2.15651]],[[597.04254,645.54479],[-10.6965,-2.40266],[9.00888,2.25222]],[[626.11718,648],[-9.28168,0],[2.33333,0]],[[633.11718,648],[-2.33333,0],[0.35109,0]],[[634.59021,647.90091],[-0.5707,0.05184],[-0.57412,-1.02596]],[[634.61718,643],[0,1.39387],[0,-5.20707]],[[634.21982,624.13246],[2.14282,4.67827],[-1.8936,-5.6808]],[[628.03948,607.31672],[3.08887,5.66543],[-2.2791,-4.1802]],[[620.32688,595.27881],[1.8857,4.15235],[-0.91417,-2.47477]],[[615.61718,594],[2.9771,0.57275],[-6.58756,-1.26734]],[[595.61718,593],[6.8054,0],[-2.48058,0]],[[587.61718,593],[2.40395,0.50364],[-0.50743,-0.10631]],[[585.44122,592.1748],[0.71481,0.32365],[1.30749,1.01011]],[[582.51161,594.78885],[1.25365,-0.62682],[-0.98239,0.4912]]],&quot;closed&quot;:true}],&quot;index&quot;:null}" fill="#c9c9c9" fill-rule="nonzero" stroke="none" stroke-width="0" stroke-linecap="butt"/><path d="M553.00602,290.36902c-0.00023,-0.13719 -0.0721,-0.36682 -0.14082,-0.59248c-0.26581,0.09184 -0.66232,0.17024 -1.17233,0.23713c-1.52905,0.35784 -3.84966,0.35987 -3.84966,0.35987c-19.66498,0.0171 -31.018,3.16759 -37.9644,6.47733c-0.81722,0.37557 -0.74424,0.82706 -0.74355,1.2461c0.00019,0.11926 -0.04928,0.30878 -0.10333,0.5048c0.05187,-0.06313 0.18162,-0.11508 0.44583,-0.14866c1.16745,-0.14812 11.32048,0.74309 12.5653,0.22411c0.37411,-0.15596 -1.83653,-0.1834 -1.71489,-0.359c1.49592,-2.15907 17.39306,-5.43662 25.20886,-6.33912c2.02712,-0.23409 4.30933,-0.35297 6.5782,-0.40847c-0.88762,-0.31581 0.89142,-0.80189 0.89075,-1.20177zM509.00481,298.69981c-0.11636,0.42068 -0.21964,0.82279 0.1323,0.58033c0.24055,-0.1657 -0.1075,-0.39781 -0.1323,-0.58033zM500.64169,295.80077c7.37339,-3.19398 17.18205,-6.10887 32.47316,-7.26608c1.43576,-0.51572 4.39899,-0.51827 4.39899,-0.51827l2.58133,-0.00224c5.84505,-0.00509 8.93666,-0.4744 15.21502,-0.4798c8.71911,-0.00757 10.7468,3.96362 6.18928,5.13109c-2.87593,0.73665 -7.49058,0.9816 -11.34132,1.42619c-11.39829,1.31616 -15.62223,5.07336 -28.11122,6.95189c-13.23673,1.99098 -27.82001,-2.29504 -21.40526,-5.24276z" data-paper-data="{&quot;index&quot;:null}" fill="#000000" fill-rule="nonzero" stroke="none" stroke-width="0" stroke-linecap="butt"/><path d="M553.05695,289.73677c0.0689,0.22567 0.15272,0.4586 0.15293,0.59575c0.00065,0.39987 -1.75717,0.8932 -0.86956,1.20905c-2.2689,0.0555 -4.56421,0.16956 -6.59138,0.40365c-7.81589,0.9025 -23.78979,4.16358 -25.28565,6.32264c-0.12176,0.17562 1.84386,0.30717 1.46973,0.46311c-1.24485,0.51899 -11.48582,-0.38772 -12.6533,-0.23968c-0.2643,0.0335 -0.39279,0.08576 -0.44459,0.14897c0.05405,-0.19602 0.09394,-0.38826 0.09375,-0.5075c-0.00068,-0.41905 -0.09624,-0.87881 0.72101,-1.25429c6.94633,-3.30973 18.70926,-6.53011 38.37421,-6.54723c0,0 2.33114,0.00046 3.86018,-0.35738c0.51004,-0.06685 0.90682,-0.14527 1.17243,-0.23713z" data-paper-data="{&quot;noHover&quot;:false,&quot;origItem&quot;:[&quot;Path&quot;,{&quot;applyMatrix&quot;:true,&quot;segments&quot;:[[[607.563,601.99816],[0.02649,0.38155],[-0.10299,0.15484]],[[607.10872,602.39727],[0.1976,-0.11227],[-0.59254,0.60273]],[[605.61718,603],[0,0],[-7.618,0]],[[590.90604,613.89443],[2.69308,-5.58508],[-0.31682,0.63364]],[[590.61718,616],[0,-0.70843],[0,0.20156]],[[590.57685,616.85325],[0.02106,-0.33136],[0.02013,-0.10671]],[[590.74964,616.60263],[-0.10238,0.05628],[0.45234,-0.24865]],[[595.61718,617],[-0.48256,0.87548],[0.14503,-0.26312]],[[594.95308,616.3906],[-0.04725,0.29671],[0.58086,-3.64773]],[[604.72276,605.71115],[-3.02833,1.51416],[0.78545,-0.39273]],[[607.27135,605.03032],[-0.87898,0.0905],[-0.34365,-0.53523]],[[607.61718,603],[0,0.6759],[0,-0.23192]]],&quot;closed&quot;:true}],&quot;index&quot;:null}" fill="#ffffff" fill-rule="nonzero" stroke="none" stroke-width="0" stroke-linecap="butt"/><path d="M371.77627,287.0469l-19.76914,-26.48972l93.69715,0.15324l33.57674,26.24309z" data-paper-data="{&quot;index&quot;:null}" fill="#cedce9" fill-rule="nonzero" stroke="#000000" stroke-width="0" stroke-linecap="round"/><path d="M488.1911,285.56825c-2.53537,0.29277 -5.02815,0.46114 -7.49601,0.58318c0.01679,0.04464 0.02551,0.09115 0.02559,0.13978c0.00194,1.18304 -5.1608,1.18751 -5.1608,1.18751c-22.80221,0.01983 -45.60433,0.03963 -68.40647,0.05942c-5.86765,0.00509 -20.46882,-0.51899 -24.79534,0.19238c-2.49217,0.40979 -4.27685,0.3709 -7.47097,0.4272c-0.36051,0.00634 -1.01625,0.01983 -1.59566,0.02826c3.08953,0.50256 1.60419,5.17342 1.60635,6.47857c0.00908,5.52097 0.01812,11.04185 0.0272,16.56281c0.0016,0.98584 0.00322,1.97177 0.00485,2.95761c0.00065,0.39439 -0.90552,1.51882 0.00194,1.18304c3.45256,-1.27747 10.19566,-0.59813 18.06866,-0.60718c15.51938,-0.01804 32.13396,-0.4127 47.37744,0.21383c27.83585,1.25144 57.75828,-0.81258 85.37226,0.58466c23.25749,1.31204 51.09544,1.40791 75.05495,1.38711c6.02327,-0.00519 12.04642,-0.01046 18.06966,-0.01571c0.90625,-0.00076 2.32912,-0.02995 3.80233,-0.0619c-1.48298,-0.60564 0.06626,-2.07464 0.06491,-2.89912c-0.00505,-3.08014 4.49192,-8.39727 -1.04401,-11.15979c-4.89362,-3.3561 -7.99102,-6.58877 -15.97006,-9.93311c-5.88716,-2.46762 -15.04909,-4.6515 -19.9208,-7.10348c-2.3623,-1.46189 -4.47318,-0.4138 -12.15878,-0.74589c-17.00624,-0.73486 -34.0612,-0.56191 -51.62851,-0.54669c-6.4034,0.00558 -14.44505,0.31049 -20.65104,0.01793c-1.31004,-0.06176 -3.77221,-0.29338 -5.6178,-0.4832c3.37603,0.59457 -4.32441,1.17931 -7.55991,1.55288zM407.14921,285.17201c17.23319,-0.01495 34.46634,-0.02995 51.69948,-0.04489c0.49704,-0.05743 0.99398,-0.11477 1.49101,-0.1722c6.54685,-0.75594 12.45893,-0.56223 18.06825,-0.90297c7.64435,-0.46434 12.21475,-2.00978 20.10212,-2.38355c4.53093,-0.21475 17.08239,0.45177 23.50567,0.44624c17.41699,-0.01508 34.81452,-0.25847 51.62851,0.54669c9.44543,0.45233 17.42579,-0.4524 21.84711,2.28371c0.65281,1.04026 5.86528,1.68621 8.59232,2.48456c4.16756,1.21993 7.65219,3.02914 10.87776,4.38103c7.99617,3.35156 11.5153,6.80281 16.53092,10.2426c4.48318,3.6265 1.56901,8.13088 1.5752,11.9076c0.00344,2.08801 1.44189,3.55838 -5.15399,5.32826c-2.30007,0.61717 -23.55962,0.02043 -27.10445,0.02352c-24.71307,0.0215 -53.58879,-0.10333 -77.5594,-1.45558c-26.33426,-1.74084 -57.67394,0.66337 -84.8929,-0.56036c-21.93438,-1.113 -55.78304,1.93208 -73.75043,-1.91956c-1.77886,-0.38138 -0.00578,-3.51025 -0.00681,-4.14075c-0.00908,-5.52097 -0.01812,-11.04185 -0.0272,-16.56281c-0.00301,-1.84587 -3.56112,-6.24982 1.82327,-7.629c9.39607,-2.40687 26.98922,-1.86051 40.75383,-1.87241z" data-paper-data="{&quot;index&quot;:null}" fill="#000000" fill-rule="nonzero" stroke="none" stroke-width="0" stroke-linecap="butt"/><path d="M480.62287,286.09464c2.46783,-0.12196 4.99065,-0.29197 7.52614,-0.58474c3.23549,-0.37356 10.96657,-0.95903 7.59043,-1.55357c1.84557,0.18983 4.3283,0.42144 5.63821,0.4832c6.206,0.29252 14.31973,-0.00944 20.72296,-0.015c17.56722,-0.01525 34.73294,-0.17172 51.73914,0.56314c7.68559,0.33214 9.81249,-0.71153 12.17477,0.75036c4.87175,2.45195 14.0724,4.65342 19.95963,7.12104c7.97906,3.34434 11.08711,6.59944 15.98073,9.95555c5.53599,2.76255 1.01478,8.10016 1.01984,11.1803c0.00134,0.82448 -1.55753,2.29765 -0.07451,2.90329c-1.47309,0.03198 -2.89793,0.0619 -3.80425,0.06269c-6.02325,0.00527 -12.05696,0.01418 -18.0802,0.01941c-23.95963,0.02083 -51.91057,-0.0544 -75.16808,-1.36645c-27.61399,-1.39724 -57.80997,0.65555 -85.64586,-0.59588c-15.24347,-0.62654 -31.90507,-0.24525 -47.42446,-0.22729c-7.87299,0.00913 -14.62221,-0.6728 -18.07478,0.60473c-0.90746,0.3358 -0.00517,-0.79046 -0.00583,-1.18482c-0.00162,-0.98584 -0.01208,-1.9766 -0.01371,-2.96242c-0.00904,-5.52097 -0.02892,-11.07464 -0.038,-16.59562c-0.00216,-1.30517 1.49884,-5.98733 -1.59071,-6.48989c0.57949,-0.00844 1.2357,-0.02221 1.59627,-0.02858c3.19401,-0.05618 4.98276,-0.01936 7.47484,-0.42912c4.32652,-0.71136 18.94091,-0.19275 24.80854,-0.19789c22.80227,-0.01983 45.7259,-0.06324 68.52805,-0.08304c0,0 5.18809,-0.0065 5.18615,-1.18962c-0.00008,-0.04854 -0.0082,-0.09511 -0.025,-0.13978z" data-paper-data="{&quot;noHover&quot;:false,&quot;origItem&quot;:[&quot;Path&quot;,{&quot;applyMatrix&quot;:true,&quot;segments&quot;:[[[579.60736,595.76373],[0.95609,-0.20262],[0.00646,0.07548]],[[579.61718,596],[0,-0.08208],[0,2]],[[577.61718,598],[0,0],[-8.83333,0]],[[551.11718,598],[8.83333,0],[-2.27308,0]],[[541.51161,598.28885],[1.67648,-1.19621],[-0.96568,0.68904]],[[538.61718,599],[1.23739,-0.09027],[-0.13966,0.01019]],[[537.99901,599.04541],[0.22447,-0.0134],[1.19653,0.85421]],[[538.61718,610],[0,-2.20646],[0,9.33333]],[[538.61718,638],[0,-9.33333],[0,1.66667]],[[538.61718,643],[0,-1.66667],[0,0.66667]],[[538.61718,645],[-0.35177,0.56631],[1.33831,-2.15456]],[[545.61718,644],[-3.04994,0.00386],[6.01206,-0.00761]],[[563.97058,644.43107],[-5.90478,-1.08158],[10.78253,2.15651]],[[597.04254,645.54479],[-10.6965,-2.40266],[9.00888,2.25222]],[[626.11718,648],[-9.28168,0],[2.33333,0]],[[633.11718,648],[-2.33333,0],[0.35109,0]],[[634.59021,647.90091],[-0.5707,0.05184],[-0.57412,-1.02596]],[[634.61718,643],[0,1.39387],[0,-5.20707]],[[634.21982,624.13246],[2.14282,4.67827],[-1.8936,-5.6808]],[[628.03948,607.31672],[3.08887,5.66543],[-2.2791,-4.1802]],[[620.32688,595.27881],[1.8857,4.15235],[-0.91417,-2.47477]],[[615.61718,594],[2.9771,0.57275],[-6.58756,-1.26734]],[[595.61718,593],[6.8054,0],[-2.48058,0]],[[587.61718,593],[2.40395,0.50364],[-0.50743,-0.10631]],[[585.44122,592.1748],[0.71481,0.32365],[1.30749,1.01011]],[[582.51161,594.78885],[1.25365,-0.62682],[-0.98239,0.4912]]],&quot;closed&quot;:true}],&quot;index&quot;:null}" fill="#c9c9c9" fill-rule="nonzero" stroke="none" stroke-width="0" stroke-linecap="butt"/><path d="M553.00603,290.36902c-0.00023,-0.13719 -0.0721,-0.36682 -0.14082,-0.59248c-0.26581,0.09184 -0.66232,0.17024 -1.17233,0.23713c-1.52905,0.35784 -3.84966,0.35987 -3.84966,0.35987c-19.66498,0.0171 -31.018,3.16759 -37.9644,6.47733c-0.81722,0.37557 -0.74424,0.82706 -0.74355,1.2461c0.00019,0.11926 -0.04928,0.30878 -0.10333,0.5048c0.05187,-0.06313 0.18162,-0.11508 0.44583,-0.14866c1.16745,-0.14812 11.32048,0.74309 12.5653,0.22411c0.37411,-0.15596 -1.83653,-0.1834 -1.71489,-0.359c1.49592,-2.15907 17.39306,-5.43662 25.20886,-6.33912c2.02712,-0.23409 4.30933,-0.35297 6.5782,-0.40847c-0.88762,-0.31581 0.89142,-0.80189 0.89075,-1.20177zM509.00481,298.69981c-0.11636,0.42068 -0.21964,0.82279 0.1323,0.58033c0.24055,-0.1657 -0.1075,-0.39781 -0.1323,-0.58033zM500.64169,295.80077c7.37339,-3.19398 17.18205,-6.10887 32.47316,-7.26608c1.43576,-0.51572 4.39899,-0.51827 4.39899,-0.51827l2.58133,-0.00224c5.84505,-0.00509 8.93666,-0.4744 15.21502,-0.4798c8.71911,-0.00757 10.7468,3.96362 6.18928,5.13109c-2.87593,0.73665 -7.49058,0.9816 -11.34132,1.42619c-11.39829,1.31616 -15.62223,5.07336 -28.11122,6.95189c-13.23673,1.99098 -27.82001,-2.29504 -21.40526,-5.24276z" data-paper-data="{&quot;index&quot;:null}" fill="#000000" fill-rule="nonzero" stroke="none" stroke-width="0" stroke-linecap="butt"/><path d="M553.05695,289.73677c0.0689,0.22567 0.15272,0.4586 0.15293,0.59575c0.00065,0.39987 -1.75717,0.8932 -0.86956,1.20905c-2.2689,0.0555 -4.56421,0.16956 -6.59138,0.40365c-7.81589,0.9025 -23.78979,4.16358 -25.28565,6.32264c-0.12176,0.17562 1.84386,0.30717 1.46973,0.46311c-1.24485,0.51899 -11.48582,-0.38772 -12.6533,-0.23968c-0.2643,0.0335 -0.39279,0.08576 -0.44459,0.14897c0.05405,-0.19602 0.09394,-0.38826 0.09375,-0.5075c-0.00068,-0.41905 -0.09624,-0.87881 0.72101,-1.25429c6.94633,-3.30973 18.70926,-6.53011 38.37421,-6.54723c0,0 2.33114,0.00046 3.86018,-0.35738c0.51004,-0.06685 0.90682,-0.14527 1.17243,-0.23713z" data-paper-data="{&quot;noHover&quot;:false,&quot;origItem&quot;:[&quot;Path&quot;,{&quot;applyMatrix&quot;:true,&quot;segments&quot;:[[[607.563,601.99816],[0.02649,0.38155],[-0.10299,0.15484]],[[607.10872,602.39727],[0.1976,-0.11227],[-0.59254,0.60273]],[[605.61718,603],[0,0],[-7.618,0]],[[590.90604,613.89443],[2.69308,-5.58508],[-0.31682,0.63364]],[[590.61718,616],[0,-0.70843],[0,0.20156]],[[590.57685,616.85325],[0.02106,-0.33136],[0.02013,-0.10671]],[[590.74964,616.60263],[-0.10238,0.05628],[0.45234,-0.24865]],[[595.61718,617],[-0.48256,0.87548],[0.14503,-0.26312]],[[594.95308,616.3906],[-0.04725,0.29671],[0.58086,-3.64773]],[[604.72276,605.71115],[-3.02833,1.51416],[0.78545,-0.39273]],[[607.27135,605.03032],[-0.87898,0.0905],[-0.34365,-0.53523]],[[607.61718,603],[0,0.6759],[0,-0.23192]]],&quot;closed&quot;:true}],&quot;index&quot;:null}" fill="#ffffff" fill-rule="nonzero" stroke="none" stroke-width="0" stroke-linecap="butt"/><path d="M164.71899,285.49899l33.57675,-26.24309l93.69714,-0.15324l-19.76914,26.48972z" data-paper-data="{&quot;index&quot;:null}" fill="#cedce9" fill-rule="nonzero" stroke="#000000" stroke-width="0" stroke-linecap="round"/><path d="M155.80894,284.11366c-3.2355,-0.37356 -10.93595,-0.95831 -7.55991,-1.55288c-1.84559,0.18983 -4.30777,0.42155 -5.61781,0.48328c-6.20599,0.29252 -14.24765,-0.0124 -20.65104,-0.01793c-17.56731,-0.01525 -34.62226,-0.18821 -51.62851,0.54669c-7.68561,0.33214 -9.79648,-0.7159 -12.15878,0.74589c-4.8717,2.45195 -14.03364,4.63588 -19.92079,7.10348c-7.97904,3.34434 -11.07645,6.57701 -15.97007,9.93311c-5.53593,2.76255 -1.03896,8.07965 -1.04401,11.15979c-0.00135,0.82448 1.54789,2.29348 0.06491,2.89912c1.47321,0.03198 2.89607,0.06115 3.80232,0.0619c6.02324,0.00519 12.04639,0.01046 18.06966,0.01571c23.95951,0.02083 51.79746,-0.07509 75.05494,-1.38711c27.61399,-1.39724 57.53642,0.66678 85.37226,-0.58466c15.24348,-0.62654 31.85806,-0.23186 47.37744,-0.21383c7.87301,0.00913 14.6161,-0.67025 18.06866,0.60718c0.90746,0.3358 0.00129,-0.78868 0.00194,-1.18304c0.00162,-0.98584 0.00325,-1.97177 0.00485,-2.95761c0.00908,-5.52097 0.01812,-11.04185 0.0272,-16.56281c0.00216,-1.30517 -1.48319,-5.97595 1.60635,-6.47857c-0.5794,-0.00844 -1.23515,-0.02191 -1.59566,-0.02826c-3.19412,-0.05618 -4.97879,-0.01742 -7.47096,-0.4272c-4.32652,-0.71136 -18.92768,-0.18727 -24.79534,-0.19238c-22.80214,-0.01983 -45.60426,-0.03963 -68.40647,-0.05942c0,0 -5.16274,-0.00447 -5.1608,-1.18751c0.00008,-0.0486 0.0088,-0.09511 0.02559,-0.13978c-2.46787,-0.12204 -4.96064,-0.29045 -7.49601,-0.58318zM236.85053,283.71751c13.76461,0.0119 31.35777,-0.53443 40.75384,1.87241c5.38439,1.37923 1.82628,5.78316 1.82327,7.629c-0.00907,5.52097 -0.01813,11.04185 -0.0272,16.56281c-0.00103,0.63041 1.77206,3.75937 -0.0068,4.14075c-17.9674,3.85163 -51.81605,0.80663 -73.75043,1.91956c-27.21896,1.22375 -58.55864,-1.18049 -84.8929,0.56036c-23.97061,1.35228 -52.84632,1.47714 -77.55939,1.45558c-3.54483,-0.0031 -24.80439,0.59366 -27.10445,-0.02352c-6.59588,-1.76987 -5.15742,-3.24024 -5.15399,-5.32826c0.00619,-3.77672 -2.90798,-8.28111 1.5752,-11.9076c5.01563,-3.43975 8.53476,-6.89104 16.53093,-10.2426c3.22556,-1.35199 6.71019,-3.16109 10.87776,-4.38103c2.72704,-0.79824 7.9395,-1.4443 8.59231,-2.48456c4.42133,-2.73607 12.40168,-1.83138 21.84711,-2.28371c16.81399,-0.80516 34.21152,-0.56184 51.62851,-0.54669c6.42327,0.00558 18.97474,-0.6609 23.50567,-0.44624c7.88736,0.37381 12.45776,1.91923 20.10211,2.38355c5.60931,0.34072 11.5214,0.14704 18.06825,0.90297c0.49703,0.05743 0.99398,0.11477 1.49101,0.1722c17.23314,0.01495 34.46629,0.02995 51.69948,0.04489z" data-paper-data="{&quot;index&quot;:null}" fill="#000000" fill-rule="nonzero" stroke="none" stroke-width="0" stroke-linecap="butt"/><path d="M163.37679,284.64011c-0.0168,0.04464 -0.02491,0.09123 -0.025,0.13978c-0.00194,1.18304 5.18615,1.18962 5.18615,1.18962c22.80215,0.01983 45.72579,0.06324 68.52805,0.08304c5.86764,0.00509 20.48202,-0.5134 24.80854,0.19789c2.49208,0.40979 4.28083,0.37294 7.47484,0.42912c0.36057,0.00634 1.01678,0.02013 1.59627,0.02858c-3.08955,0.50262 -1.58855,5.18473 -1.59071,6.48989c-0.00907,5.52097 -0.02895,11.07464 -0.03799,16.59562c-0.00163,0.98584 -0.0121,1.9766 -0.01371,2.96242c-0.00066,0.39439 0.90163,1.52061 -0.00583,1.18482c-3.45256,-1.27747 -10.20178,-0.59558 -18.07478,-0.60473c-15.51939,-0.01793 -32.18099,-0.39923 -47.42446,0.22729c-27.83589,1.25144 -58.03187,-0.80134 -85.64586,0.59588c-23.25751,1.31204 -51.20845,1.38726 -75.16808,1.36645c-6.02324,-0.00519 -12.05696,-0.01418 -18.0802,-0.01941c-0.90632,-0.00076 -2.33116,-0.0308 -3.80425,-0.06269c1.48302,-0.60564 -0.07586,-2.07881 -0.07452,-2.90329c0.00506,-3.08014 -4.51614,-8.41779 1.01984,-11.1803c4.89361,-3.3561 8.00167,-6.61122 15.98073,-9.95555c5.88724,-2.46762 15.08788,-4.66909 19.95963,-7.12104c2.36227,-1.46189 4.48917,-0.4182 12.17477,-0.75036c17.00621,-0.73486 34.17192,-0.57839 51.73915,-0.56314c6.40323,0.00558 14.51696,0.30753 20.72296,0.015c1.30991,-0.06176 3.79264,-0.29338 5.63821,-0.4832c-3.37613,0.59457 4.35494,1.18003 7.59043,1.55357c2.5355,0.29277 5.05832,0.46276 7.52615,0.58474z" data-paper-data="{&quot;noHover&quot;:false,&quot;origItem&quot;:[&quot;Path&quot;,{&quot;applyMatrix&quot;:true,&quot;segments&quot;:[[[579.60736,595.76373],[0.95609,-0.20262],[0.00646,0.07548]],[[579.61718,596],[0,-0.08208],[0,2]],[[577.61718,598],[0,0],[-8.83333,0]],[[551.11718,598],[8.83333,0],[-2.27308,0]],[[541.51161,598.28885],[1.67648,-1.19621],[-0.96568,0.68904]],[[538.61718,599],[1.23739,-0.09027],[-0.13966,0.01019]],[[537.99901,599.04541],[0.22447,-0.0134],[1.19653,0.85421]],[[538.61718,610],[0,-2.20646],[0,9.33333]],[[538.61718,638],[0,-9.33333],[0,1.66667]],[[538.61718,643],[0,-1.66667],[0,0.66667]],[[538.61718,645],[-0.35177,0.56631],[1.33831,-2.15456]],[[545.61718,644],[-3.04994,0.00386],[6.01206,-0.00761]],[[563.97058,644.43107],[-5.90478,-1.08158],[10.78253,2.15651]],[[597.04254,645.54479],[-10.6965,-2.40266],[9.00888,2.25222]],[[626.11718,648],[-9.28168,0],[2.33333,0]],[[633.11718,648],[-2.33333,0],[0.35109,0]],[[634.59021,647.90091],[-0.5707,0.05184],[-0.57412,-1.02596]],[[634.61718,643],[0,1.39387],[0,-5.20707]],[[634.21982,624.13246],[2.14282,4.67827],[-1.8936,-5.6808]],[[628.03948,607.31672],[3.08887,5.66543],[-2.2791,-4.1802]],[[620.32688,595.27881],[1.8857,4.15235],[-0.91417,-2.47477]],[[615.61718,594],[2.9771,0.57275],[-6.58756,-1.26734]],[[595.61718,593],[6.8054,0],[-2.48058,0]],[[587.61718,593],[2.40395,0.50364],[-0.50743,-0.10631]],[[585.44122,592.1748],[0.71481,0.32365],[1.30749,1.01011]],[[582.51161,594.78885],[1.25365,-0.62682],[-0.98239,0.4912]]],&quot;closed&quot;:true}],&quot;index&quot;:null}" fill="#c9c9c9" fill-rule="nonzero" stroke="none" stroke-width="0" stroke-linecap="butt"/><path d="M90.99403,288.91451c-0.00067,0.39987 1.77837,0.88593 0.89076,1.20177c2.26887,0.0555 4.55109,0.17436 6.5782,0.40847c7.8158,0.9025 23.71294,4.18006 25.20885,6.33912c0.12164,0.17562 -2.08899,0.20307 -1.71489,0.359c1.24482,0.51899 11.39785,-0.37222 12.5653,-0.22411c0.26421,0.0335 0.39396,0.08551 0.44583,0.14858c-0.05406,-0.19602 -0.10352,-0.38554 -0.10333,-0.5048c0.00069,-0.41905 0.07367,-0.87061 -0.74355,-1.2461c-6.9464,-3.30973 -18.29942,-6.4603 -37.9644,-6.47733c0,0 -2.32061,-0.00203 -3.84966,-0.35987c-0.51,-0.06685 -0.90652,-0.14527 -1.17233,-0.23713c-0.06872,0.22567 -0.14059,0.45529 -0.14083,0.59248zM134.86289,297.82556c0.35194,0.24253 0.24865,-0.15957 0.13229,-0.58033c-0.0248,0.18248 -0.37284,0.41456 -0.13229,0.58033zM143.35832,294.34627c6.41475,2.94772 -8.16853,7.23364 -21.40526,5.24276c-12.48898,-1.87854 -16.71293,-5.63573 -28.11122,-6.95189c-3.85074,-0.44462 -8.46538,-0.68953 -11.34132,-1.42619c-4.55751,-1.16741 -2.52983,-5.1386 6.18928,-5.13109c6.27836,0.00544 9.36997,0.47477 15.21501,0.4798l2.58133,0.00224c0,0 2.96323,0.00255 4.39899,0.51827c15.29111,1.15727 25.09977,4.07218 32.47316,7.26608z" data-paper-data="{&quot;index&quot;:null}" fill="#000000" fill-rule="nonzero" stroke="none" stroke-width="0" stroke-linecap="butt"/><path d="M90.94327,288.28227c0.26561,0.09179 0.6624,0.17017 1.17244,0.23713c1.52904,0.35784 3.86019,0.35738 3.86019,0.35738c19.66494,0.0171 31.42788,3.23739 38.37421,6.54723c0.81725,0.37557 0.72169,0.83534 0.72101,1.25429c-0.00018,0.11926 0.03971,0.3115 0.09375,0.5075c-0.0518,-0.06313 -0.18028,-0.1154 -0.44458,-0.14897c-1.16748,-0.14812 -11.40845,0.75855 -12.6533,0.23968c-0.37414,-0.15596 1.5915,-0.2875 1.46973,-0.46311c-1.49586,-2.15907 -17.46976,-5.42013 -25.28565,-6.32264c-2.02717,-0.23409 -4.32249,-0.3482 -6.59138,-0.40365c0.88761,-0.31581 -0.87021,-0.80927 -0.86955,-1.20905c0.00022,-0.13719 0.08403,-0.37016 0.15293,-0.59575z" data-paper-data="{&quot;noHover&quot;:false,&quot;origItem&quot;:[&quot;Path&quot;,{&quot;applyMatrix&quot;:true,&quot;segments&quot;:[[[607.563,601.99816],[0.02649,0.38155],[-0.10299,0.15484]],[[607.10872,602.39727],[0.1976,-0.11227],[-0.59254,0.60273]],[[605.61718,603],[0,0],[-7.618,0]],[[590.90604,613.89443],[2.69308,-5.58508],[-0.31682,0.63364]],[[590.61718,616],[0,-0.70843],[0,0.20156]],[[590.57685,616.85325],[0.02106,-0.33136],[0.02013,-0.10671]],[[590.74964,616.60263],[-0.10238,0.05628],[0.45234,-0.24865]],[[595.61718,617],[-0.48256,0.87548],[0.14503,-0.26312]],[[594.95308,616.3906],[-0.04725,0.29671],[0.58086,-3.64773]],[[604.72276,605.71115],[-3.02833,1.51416],[0.78545,-0.39273]],[[607.27135,605.03032],[-0.87898,0.0905],[-0.34365,-0.53523]],[[607.61718,603],[0,0.6759],[0,-0.23192]]],&quot;closed&quot;:true}],&quot;index&quot;:null}" fill="#ffffff" fill-rule="nonzero" stroke="none" stroke-width="0" stroke-linecap="butt"/><path d="M164.71899,285.49899l33.57674,-26.24309l93.69715,-0.15324l-19.76914,26.48972z" data-paper-data="{&quot;index&quot;:null}" fill="#cedce9" fill-rule="nonzero" stroke="#000000" stroke-width="0" stroke-linecap="round"/><path d="M155.80894,284.11366c-3.2355,-0.37356 -10.93595,-0.95831 -7.55991,-1.55288c-1.84559,0.18983 -4.30777,0.42155 -5.61781,0.48328c-6.20599,0.29252 -14.24765,-0.0124 -20.65104,-0.01793c-17.56731,-0.01525 -34.62226,-0.18821 -51.62851,0.54669c-7.68561,0.33214 -9.79648,-0.7159 -12.15878,0.74589c-4.8717,2.45195 -14.03364,4.63588 -19.92079,7.10348c-7.97904,3.34434 -11.07645,6.57701 -15.97007,9.93311c-5.53593,2.76255 -1.03896,8.07965 -1.04401,11.15979c-0.00135,0.82448 1.54789,2.29348 0.06491,2.89912c1.47321,0.03198 2.89607,0.06115 3.80232,0.0619c6.02324,0.00519 12.04639,0.01046 18.06966,0.01571c23.95951,0.02083 51.79746,-0.07509 75.05494,-1.38711c27.61399,-1.39724 57.53642,0.66678 85.37227,-0.58466c15.24348,-0.62654 31.85806,-0.23186 47.37744,-0.21383c7.87301,0.00913 14.6161,-0.67025 18.06866,0.60718c0.90746,0.3358 0.00129,-0.78868 0.00194,-1.18304c0.00162,-0.98584 0.00325,-1.97177 0.00485,-2.95761c0.00908,-5.52097 0.01812,-11.04185 0.0272,-16.56281c0.00216,-1.30517 -1.48319,-5.97595 1.60635,-6.47857c-0.5794,-0.00844 -1.23515,-0.02191 -1.59566,-0.02826c-3.19412,-0.05618 -4.97879,-0.01742 -7.47096,-0.4272c-4.32652,-0.71136 -18.92768,-0.18727 -24.79534,-0.19238c-22.80214,-0.01983 -45.60426,-0.03963 -68.40647,-0.05942c0,0 -5.16274,-0.00447 -5.1608,-1.18751c0.00007,-0.0486 0.00879,-0.09511 0.02558,-0.13978c-2.46786,-0.12204 -4.96064,-0.29045 -7.49601,-0.58318zM236.85053,283.71751c13.7646,0.0119 31.35776,-0.53443 40.75383,1.87241c5.38439,1.37923 1.82628,5.78316 1.82328,7.629c-0.00908,5.52097 -0.01813,11.04185 -0.0272,16.56281c-0.00103,0.63041 1.77206,3.75937 -0.0068,4.14075c-17.9674,3.85163 -51.81605,0.80663 -73.75043,1.91956c-27.21896,1.22375 -58.55864,-1.18049 -84.8929,0.56036c-23.97061,1.35228 -52.84633,1.47714 -77.5594,1.45558c-3.54483,-0.0031 -24.80438,0.59366 -27.10445,-0.02352c-6.59588,-1.76987 -5.15742,-3.24024 -5.15399,-5.32826c0.00619,-3.77672 -2.90798,-8.28111 1.5752,-11.9076c5.01563,-3.43975 8.53476,-6.89104 16.53093,-10.2426c3.22556,-1.35199 6.71019,-3.16109 10.87775,-4.38103c2.72704,-0.79824 7.9395,-1.4443 8.59231,-2.48456c4.42133,-2.73607 12.40169,-1.83138 21.84712,-2.28371c16.81399,-0.80516 34.21151,-0.56184 51.62851,-0.54669c6.42327,0.00558 18.97474,-0.6609 23.50567,-0.44624c7.88736,0.37381 12.45777,1.91923 20.10212,2.38355c5.60932,0.34072 11.5214,0.14704 18.06825,0.90297c0.49703,0.05743 0.99398,0.11477 1.49101,0.1722c17.23314,0.01495 34.46629,0.02995 51.69948,0.04489z" data-paper-data="{&quot;index&quot;:null}" fill="#000000" fill-rule="nonzero" stroke="none" stroke-width="0" stroke-linecap="butt"/><path d="M163.37679,284.64011c-0.0168,0.04464 -0.02491,0.09123 -0.025,0.13978c-0.00194,1.18304 5.18615,1.18962 5.18615,1.18962c22.80215,0.01983 45.72579,0.06324 68.52805,0.08304c5.86764,0.00509 20.48202,-0.5134 24.80854,0.19789c2.49208,0.40979 4.28083,0.37294 7.47484,0.42912c0.36057,0.00634 1.01678,0.02013 1.59627,0.02858c-3.08955,0.50262 -1.58855,5.18473 -1.59071,6.48989c-0.00907,5.52097 -0.02895,11.07464 -0.03799,16.59562c-0.00163,0.98584 -0.0121,1.9766 -0.01371,2.96242c-0.00066,0.39439 0.90163,1.52061 -0.00583,1.18482c-3.45256,-1.27747 -10.20178,-0.59558 -18.07478,-0.60473c-15.51939,-0.01793 -32.18099,-0.39923 -47.42446,0.22729c-27.83589,1.25144 -58.03187,-0.80134 -85.64586,0.59588c-23.25751,1.31204 -51.20845,1.38726 -75.16808,1.36645c-6.02324,-0.00519 -12.05696,-0.01418 -18.0802,-0.01941c-0.90632,-0.00076 -2.33116,-0.0308 -3.80425,-0.06269c1.48302,-0.60564 -0.07586,-2.07881 -0.07452,-2.90329c0.00506,-3.08014 -4.51614,-8.41779 1.01984,-11.1803c4.89361,-3.3561 8.00167,-6.61122 15.98073,-9.95555c5.88724,-2.46762 15.08788,-4.66909 19.95963,-7.12104c2.36227,-1.46189 4.48917,-0.4182 12.17477,-0.75036c17.00621,-0.73486 34.17192,-0.57839 51.73915,-0.56314c6.40323,0.00558 14.51696,0.30753 20.72296,0.015c1.30991,-0.06176 3.79264,-0.29338 5.63821,-0.4832c-3.37613,0.59457 4.35494,1.18003 7.59043,1.55357c2.5355,0.29277 5.05832,0.46276 7.52615,0.58474z" data-paper-data="{&quot;noHover&quot;:false,&quot;origItem&quot;:[&quot;Path&quot;,{&quot;applyMatrix&quot;:true,&quot;segments&quot;:[[[579.60736,595.76373],[0.95609,-0.20262],[0.00646,0.07548]],[[579.61718,596],[0,-0.08208],[0,2]],[[577.61718,598],[0,0],[-8.83333,0]],[[551.11718,598],[8.83333,0],[-2.27308,0]],[[541.51161,598.28885],[1.67648,-1.19621],[-0.96568,0.68904]],[[538.61718,599],[1.23739,-0.09027],[-0.13966,0.01019]],[[537.99901,599.04541],[0.22447,-0.0134],[1.19653,0.85421]],[[538.61718,610],[0,-2.20646],[0,9.33333]],[[538.61718,638],[0,-9.33333],[0,1.66667]],[[538.61718,643],[0,-1.66667],[0,0.66667]],[[538.61718,645],[-0.35177,0.56631],[1.33831,-2.15456]],[[545.61718,644],[-3.04994,0.00386],[6.01206,-0.00761]],[[563.97058,644.43107],[-5.90478,-1.08158],[10.78253,2.15651]],[[597.04254,645.54479],[-10.6965,-2.40266],[9.00888,2.25222]],[[626.11718,648],[-9.28168,0],[2.33333,0]],[[633.11718,648],[-2.33333,0],[0.35109,0]],[[634.59021,647.90091],[-0.5707,0.05184],[-0.57412,-1.02596]],[[634.61718,643],[0,1.39387],[0,-5.20707]],[[634.21982,624.13246],[2.14282,4.67827],[-1.8936,-5.6808]],[[628.03948,607.31672],[3.08887,5.66543],[-2.2791,-4.1802]],[[620.32688,595.27881],[1.8857,4.15235],[-0.91417,-2.47477]],[[615.61718,594],[2.9771,0.57275],[-6.58756,-1.26734]],[[595.61718,593],[6.8054,0],[-2.48058,0]],[[587.61718,593],[2.40395,0.50364],[-0.50743,-0.10631]],[[585.44122,592.1748],[0.71481,0.32365],[1.30749,1.01011]],[[582.51161,594.78885],[1.25365,-0.62682],[-0.98239,0.4912]]],&quot;closed&quot;:true}],&quot;index&quot;:null}" fill="#c9c9c9" fill-rule="nonzero" stroke="none" stroke-width="0" stroke-linecap="butt"/><path d="M90.99402,288.91451c-0.00067,0.39987 1.77837,0.88593 0.89075,1.20177c2.26887,0.0555 4.55109,0.17436 6.5782,0.40847c7.8158,0.9025 23.71294,4.18006 25.20885,6.33912c0.12164,0.17562 -2.08899,0.20307 -1.71489,0.359c1.24482,0.51899 11.39785,-0.37222 12.5653,-0.22411c0.26421,0.0335 0.39396,0.08551 0.44583,0.14858c-0.05406,-0.19602 -0.10352,-0.38554 -0.10333,-0.5048c0.00069,-0.41905 0.07367,-0.87061 -0.74355,-1.2461c-6.9464,-3.30973 -18.29942,-6.4603 -37.9644,-6.47733c0,0 -2.32061,-0.00203 -3.84966,-0.35987c-0.51,-0.06685 -0.90653,-0.14527 -1.17233,-0.23713c-0.06872,0.22567 -0.14059,0.45529 -0.14082,0.59248zM134.86289,297.82556c0.35194,0.24253 0.24865,-0.15957 0.13229,-0.58033c-0.0248,0.18248 -0.37284,0.41456 -0.13229,0.58033zM143.35832,294.34627c6.41475,2.94772 -8.16853,7.23364 -21.40526,5.24276c-12.48898,-1.87854 -16.71293,-5.63573 -28.11122,-6.95189c-3.85074,-0.44462 -8.46538,-0.68953 -11.34132,-1.42619c-4.55751,-1.16741 -2.52983,-5.1386 6.18928,-5.13109c6.27836,0.00544 9.36997,0.47477 15.21501,0.4798l2.58133,0.00224c0,0 2.96323,0.00255 4.39899,0.51827c15.29111,1.15727 25.09977,4.07218 32.47316,7.26608z" data-paper-data="{&quot;index&quot;:null}" fill="#000000" fill-rule="nonzero" stroke="none" stroke-width="0" stroke-linecap="butt"/><path d="M90.94327,288.28227c0.26561,0.09179 0.6624,0.17017 1.17244,0.23713c1.52904,0.35784 3.86019,0.35738 3.86019,0.35738c19.66494,0.0171 31.42788,3.23739 38.37421,6.54723c0.81725,0.37557 0.72169,0.83534 0.72101,1.25429c-0.00018,0.11926 0.03971,0.3115 0.09375,0.5075c-0.0518,-0.06313 -0.18028,-0.1154 -0.44458,-0.14897c-1.16748,-0.14812 -11.40845,0.75855 -12.6533,0.23968c-0.37414,-0.15596 1.5915,-0.2875 1.46973,-0.46311c-1.49586,-2.15907 -17.46976,-5.42013 -25.28565,-6.32264c-2.02717,-0.23409 -4.32249,-0.3482 -6.59138,-0.40365c0.88761,-0.31581 -0.87021,-0.80927 -0.86955,-1.20905c0.00022,-0.13719 0.08403,-0.37016 0.15293,-0.59575z" data-paper-data="{&quot;noHover&quot;:false,&quot;origItem&quot;:[&quot;Path&quot;,{&quot;applyMatrix&quot;:true,&quot;segments&quot;:[[[607.563,601.99816],[0.02649,0.38155],[-0.10299,0.15484]],[[607.10872,602.39727],[0.1976,-0.11227],[-0.59254,0.60273]],[[605.61718,603],[0,0],[-7.618,0]],[[590.90604,613.89443],[2.69308,-5.58508],[-0.31682,0.63364]],[[590.61718,616],[0,-0.70843],[0,0.20156]],[[590.57685,616.85325],[0.02106,-0.33136],[0.02013,-0.10671]],[[590.74964,616.60263],[-0.10238,0.05628],[0.45234,-0.24865]],[[595.61718,617],[-0.48256,0.87548],[0.14503,-0.26312]],[[594.95308,616.3906],[-0.04725,0.29671],[0.58086,-3.64773]],[[604.72276,605.71115],[-3.02833,1.51416],[0.78545,-0.39273]],[[607.27135,605.03032],[-0.87898,0.0905],[-0.34365,-0.53523]],[[607.61718,603],[0,0.6759],[0,-0.23192]]],&quot;closed&quot;:true}],&quot;index&quot;:null}" fill="#ffffff" fill-rule="nonzero" stroke="none" stroke-width="0" stroke-linecap="butt"/><g><path d="M583.58896,237.40311c0.30548,0.63181 0.40835,1.31188 0.31172,2.04035c-2.54985,0.07391 -5.04361,-0.00179 -7.48125,-0.22666c2.39087,0 4.77864,0 7.16953,0c0,-0.60463 0,-1.20905 0,-1.81359z" data-paper-data="{&quot;index&quot;:null}" fill="#6b6b6b" fill-rule="evenodd" stroke="none" stroke-width="0" stroke-linecap="butt"/><path d="M594.1874,238.53661c0.2899,0.24215 0.39589,0.54428 0.31172,0.90683c-3.17329,0.07416 -6.29048,-0.00137 -9.35156,-0.22666c3.01432,0 6.02552,0 9.03984,0c0,-0.22666 0,-0.45342 0,-0.6801z" data-paper-data="{&quot;index&quot;:null}" fill="#9e9e9e" fill-rule="evenodd" stroke="none" stroke-width="0" stroke-linecap="butt"/><path d="M502.54206,239.44336c2.54674,0 5.04049,0.07568 7.48125,0.22666c-5.01244,-0.07188 -9.99995,0.00365 -14.96252,0.22666c2.38152,-0.30174 4.87528,-0.45295 7.48125,-0.45342z" data-paper-data="{&quot;index&quot;:null}" fill="#484848" fill-rule="evenodd" stroke="none" stroke-width="0" stroke-linecap="butt"/><path d="M83.28014,241.03027c3.79611,-0.07437 7.53673,0.00118 11.22188,0.22666c-3.81888,-0.13923 -7.5595,0.01198 -11.22188,0.45342c0,-0.22666 0,-0.45342 0,-0.6801z" data-paper-data="{&quot;index&quot;:null}" fill="#838383" fill-rule="evenodd" stroke="none" stroke-width="0" stroke-linecap="butt"/><path d="M23.86418,113.24662l1.47565,0.17883l164.59665,1.60975v11.80682l95.364,0.04472v22.80527l49.18839,1.96751l0.49189,-13.41483l91.55189,1.60975v13.41483l29.51303,0.17883v45.74468l15.00246,0.49189l140.2484,0.84958l-1.96753,75.48094l-3.44319,0.08946l-323.98511,3.2196l-0.24594,-7.1636l-257.6242,-0.22356v-4.02441v-153.37646z" fill="#ffe800" fill-rule="nonzero" stroke="#000000" stroke-width="1" stroke-linecap="round"/><path d="M140.93421,199.97816l29.28309,0.43856v55.36467l-30.69432,0.43856l0.35281,-56.2144z" fill="#928b78" fill-rule="nonzero" stroke="#000000" stroke-width="1" stroke-linecap="round"/><path d="M132.35772,256.88797l-50.56643,-0.99204l1.28832,-57.50986l48.95603,0.88177z" fill="#928b78" fill-rule="nonzero" stroke="#000000" stroke-width="1" stroke-linecap="round"/><path d="M74.69809,257.05944l-16.175,-1.08196l-1.4516,-55.4491l16.58974,-1.19015z" fill="#928b78" fill-rule="nonzero" stroke="#000000" stroke-width="1" stroke-linecap="round"/><path d="M189.82375,114.86932l2.01613,78.64473l-168.16349,-1.99942l0.54985,-77.71165z" fill="#38ff00" fill-rule="nonzero" stroke="#000000" stroke-width="1" stroke-linecap="round"/><path d="M189.13717,115.21417l-180.02951,-1.78866l-6.82489,-9.47984l192.94147,5.00819l16.23217,11.62622l104.09493,0.53662l-2.21348,6.97573l-105.01721,-1.60975l-18.69159,0.53662z" fill="#8b8471" fill-rule="nonzero" stroke="#000000" stroke-width="1" stroke-linecap="round"/><path d="M314.07569,137.70633l-2.21348,-3.93504l139.69503,0.8943l-6.64043,5.54479l-129.36547,-1.96751" fill="#8b8471" fill-rule="nonzero" stroke="#000000" stroke-width="1" stroke-linecap="round"/><path d="M283.087,145.57642l52.1397,0.8943l-0.84551,4.65049l-50.16685,-0.71545z" fill="#8b8471" fill-rule="nonzero" stroke="#000000" stroke-width="1" stroke-linecap="round"/><path d="M425.73335,148.97486l63.69896,-1.96751l-5.16478,6.4391l-58.04231,0.35769z" fill="#8b8471" fill-rule="nonzero" stroke="#000000" stroke-width="1" stroke-linecap="round"/><path d="M456.59904,194.13818l-171.91343,-1.21516v-36.45357h51.34039v21.04765l90.70547,0.88827l-1.12111,-18.2471l30.98869,1.04151z" fill="#262626" fill-rule="nonzero" stroke="#000000" stroke-width="1" stroke-linecap="round"/><path d="M279.64481,198.11786l-0.73782,-5.72365l356.43138,1.43092l-3.93507,6.61804l-174.98871,-1.07322z" fill="#8b8471" fill-rule="nonzero" stroke="#000000" stroke-width="1" stroke-linecap="round"/><path d="M426.59513,139.67382l1.22971,38.99252l-92.22823,-1.60975l-0.49189,-38.63476z" fill="#38ff00" fill-rule="nonzero" stroke="#000000" stroke-width="1" stroke-linecap="round"/><path d="M352.51246,145.22685l56.1736,-0.19975l1.09875,27.96786l-57.82173,-0.59929z" fill="#515a61" fill-rule="nonzero" stroke="#000000" stroke-width="1" stroke-linecap="round"/><path d="M212.04412,213.82301h59.05783l0.54937,58.60005l-62.90345,-0.39956l0.27469,-58.70744z" fill="#ff0000" fill-rule="nonzero" stroke="#000000" stroke-width="1" stroke-linecap="round"/><path d="M226.19052,213.64058h32.13844l0.82407,58.73245l-33.78657,-0.09991l0.13735,-59.15703z" fill="#2d0d0e" fill-rule="nonzero" stroke="#000000" stroke-width="1" stroke-linecap="round"/><path d="M271.17061,254.24392h228.86105v22.59906l-218.75429,2.57207l-0.13735,-7.39152l-9.47672,0.09991l-0.27469,-17.28013" fill="#807165" fill-rule="nonzero" stroke="#000000" stroke-width="1" stroke-linecap="round"/><path d="M46.78059,192.39005l0.27469,79.53353l-23.89782,0.59929l0.68672,-80.90695l22.93641,0.09991z" fill="#807165" fill-rule="nonzero" stroke="#000000" stroke-width="1" stroke-linecap="round"/><path d="M173.27421,192.81452h18.02637l0.17168,79.28389l-17.44266,0.12483z" fill="#807165" fill-rule="nonzero" stroke="#000000" stroke-width="1" stroke-linecap="round"/><path d="M298.53173,279.1153v-57.53386l173.05315,0.09991l0.27469,55.636z" fill="#928b78" fill-rule="nonzero" stroke="#000000" stroke-width="1" stroke-linecap="round"/><path d="M304.54052,279.34012l-0.41203,-54.43741l160.17717,0.09991l0.41203,52.41471z" fill="#38ff00" fill-rule="nonzero" stroke="#000000" stroke-width="1" stroke-linecap="round"/><path d="M500.11805,277.4173l-0.96141,-55.21151l79.96841,0.19975l-0.96141,54.23767z" fill="#928b78" fill-rule="nonzero" stroke="#000000" stroke-width="1" stroke-linecap="round"/><path d="M502.38422,277.81678v-52.18996l68.91224,0.19975l-1.2361,50.91644z" fill="#38ff00" fill-rule="nonzero" stroke="#000000" stroke-width="1" stroke-linecap="round"/><path d="M301.66093,169.52396l-2.33484,2.99655l-4.25766,-0.09991l-11.26219,-15.58209l-126.90565,-1.2985l-4.25766,-5.49365l137.89315,0.49941z" fill="#8b8471" fill-rule="nonzero" stroke="#000000" stroke-width="1" stroke-linecap="round"/><path d="M140.55206,121.32172l1.64812,42.90065l-77.49622,-0.09991l-0.27469,-44.49887z" fill="#515a61" fill-rule="nonzero" stroke="#000000" stroke-width="1" stroke-linecap="round"/><path d="M128.63749,254.14408l-43.12595,-0.89894l1.09875,-52.11507l41.7525,0.79911z" fill="#515a61" fill-rule="nonzero" stroke="#000000" stroke-width="1" stroke-linecap="round"/><path d="M71.7219,254.84328l-10.71282,-0.99885l-0.9614,-51.19113l10.9875,-1.09875z" fill="#515a61" fill-rule="nonzero" stroke="#000000" stroke-width="1" stroke-linecap="round"/><path d="M144.01997,202.47848l22.79906,0.39956v50.442l-23.89781,0.39956l0.27469,-51.21613z" fill="#515a61" fill-rule="nonzero" stroke="#000000" stroke-width="1" stroke-linecap="round"/></g><path d="M266.7374,164.41493c-0.06886,0.76922 0.00324,1.50483 0.21652,2.20649c-0.01299,0.09216 -0.08508,0.14866 -0.21652,0.16972c-0.28406,-0.81777 -0.28406,-1.60992 0,-2.37622z" data-paper-data="{&quot;index&quot;:null}" fill="#9e9e9e" fill-rule="evenodd" stroke="none" stroke-width="0" stroke-linecap="butt"/><path d="M241.93693,159.99861h5.67459v4.81482l-0.94576,-4.12688z" fill="#736d42" fill-rule="evenodd" stroke="none" stroke-width="0" stroke-linecap="butt"/><path d="M210.38099,168.69975c0.2303,0 0.42369,0.02894 0.58609,0.07756c2.53071,-2.42955 6.76151,-3.66591 10.81448,-3.62634c0.68051,0.00666 5.0493,0.29376 5.75233,0.69271c1.54118,0.8745 2.05379,2.51226 3.14937,3.73158c4.54198,5.05484 5.31977,10.26528 0.40807,15.3394c-3.45876,1.51542 -6.25406,2.86649 -10.36086,2.7976c-11.63946,-0.19524 -14.77262,-10.49952 -11.71253,-17.70168l-0.07372,-0.1845c0,0 0,-1.1263 1.43679,-1.1263zM211.44232,171.51346c-1.92196,5.65251 0.10682,13.85207 9.27893,13.94609c3.39694,0.03483 5.58728,-1.04467 8.48976,-2.24837c3.8961,-4.14925 2.73031,-8.34129 -0.87536,-12.33686c-0.91642,-1.01549 -1.22531,-2.41537 -2.46377,-3.19297c-1.08144,-0.679 -2.75641,-0.25166 -4.14159,-0.27805c-3.39953,-0.06476 -7.58619,1.11455 -9.17377,3.5105c0,0 -0.39092,0.55162 -1.1142,0.59969z" data-paper-data="{&quot;index&quot;:null}" fill="#75dbff" fill-rule="nonzero" stroke="none" stroke-width="0" stroke-linecap="butt"/><path d="M212.51175,170.88545c1.58757,-2.39595 5.82161,-3.59198 9.22113,-3.52723c1.38519,0.02638 3.07981,-0.39756 4.16125,0.28154c1.23847,0.77759 1.56604,2.18738 2.48244,3.20287c3.60566,3.99557 4.76937,8.25248 0.8733,12.40172c-2.9025,1.20373 -5.13411,2.29504 -8.53104,2.26021c-9.17211,-0.09409 -11.24699,-8.36274 -9.32505,-14.01525c0.72328,-0.04813 1.11795,-0.60377 1.11795,-0.60377z" data-paper-data="{&quot;noHover&quot;:false,&quot;origItem&quot;:[&quot;Path&quot;,{&quot;applyMatrix&quot;:true,&quot;segments&quot;:[[[409.4867,271.35519],[1.25852,-0.10678],[-3.34423,12.54639]],[[425.63199,302.31001],[-15.95943,-0.20878],[5.91067,0.07732]],[[440.40413,297.31952],[-5.05034,2.67171],[6.7792,-9.20965]],[[438.881,269.93654],[6.27385,8.86861],[-1.59451,-2.25397]],[[434.59405,262.84941],[2.15492,1.72602],[-1.88172,-1.50719]],[[427.3877,262.23225],[2.4102,0.05859],[-5.91515,-0.1438]],[[411.4254,270.0241],[2.76238,-5.31806],[0,0]]],&quot;closed&quot;:true}],&quot;index&quot;:null}" fill="#ff0000" fill-rule="nonzero" stroke="none" stroke-width="0" stroke-linecap="butt"/><path d="M245.01954,168.05876c3.84852,-1.04969 8.09747,0.11291 11.98494,1.22558c0.91883,0.26295 4.11387,1.02168 4.83263,1.81003c1.73039,1.89786 1.55353,4.99766 1.86624,7.20355c0.29339,2.06968 0.87652,4.08425 -0.91547,5.90752c-3.13895,3.19373 -7.87289,4.34032 -12.60766,5.32765c-2.18712,0.20444 -4.14864,0.74085 -6.1682,-0.4182c-1.21965,-0.69999 -2.41076,-3.0358 -2.99129,-4.05639c-1.9755,-3.47295 -5.16204,-8.02829 -3.48967,-12.00093c0.56682,-1.34641 3.45026,-2.94346 4.44459,-4.15149l1.7368,-0.78804c0,0 0.67433,-0.29035 1.30712,-0.05928zM243.49734,170.96275c-0.98323,0.83123 -3.13818,2.44052 -3.25471,2.84041c-1.04127,3.57294 1.64864,7.23334 3.40689,10.34543c0.13897,0.24601 1.4949,2.78682 2.06621,3.15211c0.92941,0.59427 3.15207,0.10448 3.91093,0.02175c4.20496,-0.88145 7.93205,-1.81537 10.87651,-4.48342c1.22934,-1.11394 0.52019,-3.06015 0.34432,-4.29157c-0.24066,-1.68528 0.00429,-4.52986 -1.23263,-6.02509c-0.70184,-0.8484 -2.38357,-0.77552 -3.59544,-1.12198c-3.45236,-0.98694 -8.2376,-2.57996 -11.46988,-0.65789c0,0 -0.48436,0.27124 -1.05224,0.2201z" data-paper-data="{&quot;index&quot;:null}" fill="#75dbff" fill-rule="nonzero" stroke="none" stroke-width="0" stroke-linecap="butt"/><path d="M244.52013,170.70388c3.23228,-1.92211 8.07575,-0.32936 11.52812,0.65764c1.21186,0.34647 2.90793,0.28285 3.6098,1.13127c1.2369,1.49521 1.00622,4.36858 1.24689,6.05386c0.17584,1.2314 0.87832,3.19969 -0.35105,4.31363c-2.94446,2.66794 -6.7274,3.62565 -10.93239,4.5071c-0.75885,0.08274 -2.99985,0.56879 -3.92924,-0.02553c-0.5713,-0.36537 -1.94448,-2.91544 -2.0835,-3.16145c-1.75824,-3.11209 -4.45661,-6.82761 -3.41535,-10.40055c0.11653,-0.39987 2.2871,-2.02245 3.27032,-2.85368c0.56787,0.05109 1.05636,-0.22227 1.05636,-0.22227z" data-paper-data="{&quot;noHover&quot;:false,&quot;origItem&quot;:[&quot;Path&quot;,{&quot;applyMatrix&quot;:true,&quot;segments&quot;:[[[465.26223,270.13291],[0.98811,0.11339],[-1.71083,1.84504]],[[459.59907,276.43751],[0.20277,-0.88758],[-1.81178,7.93053]],[[465.52703,299.40029],[-3.05933,-6.90758],[0.24182,0.54599]],[[469.12222,306.39679],[-0.99407,-0.81085],[1.61715,1.31908]],[[475.92722,306.44514],[-1.32039,0.18358],[7.31661,-1.95648]],[[494.85229,296.49376],[-5.12332,5.92193],[2.13908,-2.47252]],[[495.45142,286.96818],[0.30597,2.73324],[-0.41874,-3.7406]],[[493.30665,273.59497],[2.15221,3.31878],[-1.22123,-1.88318]],[[487.05062,271.1046],[2.10865,0.76899],[-6.0071,-2.19068]],[[467.0931,269.64433],[5.62415,-4.26625],[0,0]]],&quot;closed&quot;:true}],&quot;index&quot;:null}" fill="#ff0000" fill-rule="nonzero" stroke="none" stroke-width="0" stroke-linecap="butt"/><path d="M227.49907,176.9831c0,-0.99531 1.02922,-1.80216 2.29886,-1.80216c1.26963,0 2.29886,0.80685 2.29886,1.80216c0,0.99531 -1.02923,1.80216 -2.29886,1.80216c-1.26963,0 -2.29886,-0.80685 -2.29886,-1.80216z" data-paper-data="{&quot;index&quot;:null}" fill="#ff0000" fill-rule="nonzero" stroke="none" stroke-width="0" stroke-linecap="butt"/><path d="M256.87772,178.73735c0,-0.99531 1.02922,-1.80216 2.29886,-1.80216c1.26963,0 2.29886,0.80685 2.29886,1.80216c0,0.99531 -1.02923,1.80216 -2.29886,1.80216c-1.26963,0 -2.29886,-0.80685 -2.29886,-1.80216z" data-paper-data="{&quot;index&quot;:null}" fill="#ff0000" fill-rule="nonzero" stroke="none" stroke-width="0" stroke-linecap="butt"/><path d="M184.59694,135.80674c0.63758,-0.74974 1.59397,-0.24989 1.59397,-0.24989l0.46863,0.24495c5.08723,2.65868 9.93164,5.50125 14.79435,8.40564c10.70547,6.39407 22.50179,12.09899 32.03877,19.57524c0,0 0.81277,0.63714 0,1.27426c-0.81277,0.63714 -1.62554,0 -1.62554,0c-9.4608,-7.41653 -21.18593,-13.07269 -31.80643,-19.41605c-4.82446,-2.88155 -9.62926,-5.70198 -14.67633,-8.3396l-0.46862,-0.24495c0,0 -0.95639,-0.49976 -0.3188,-1.24952z" data-paper-data="{&quot;index&quot;:null}" fill="#75dbff" fill-rule="nonzero" stroke="none" stroke-width="0" stroke-linecap="butt"/><path d="M293.74984,124.91031c0.9742,0.47818 0.36424,1.24193 0.36424,1.24193l-0.6537,0.81505c-6.33538,6.07979 -13.97532,10.9554 -20.86271,16.60027c-9.46756,7.75959 -18.69518,15.9852 -29.05475,22.97808c0,0 -0.87272,0.58638 -1.62074,-0.09774c-0.74803,-0.68413 0.12467,-1.27051 0.12467,-1.27051c10.33337,-6.90816 19.48516,-15.14761 28.88952,-22.85544c6.81246,-5.58349 14.37909,-10.40146 20.65648,-16.40549l0.57281,-0.72058c0,0 0.60998,-0.76369 1.58423,-0.28547z" data-paper-data="{&quot;index&quot;:null}" fill="#75dbff" fill-rule="nonzero" stroke="none" stroke-width="0" stroke-linecap="butt"/><path d="M201.44566,189.02297c-0.14647,-0.07819 -0.26958,-0.20962 -0.26958,-0.43068c0,-0.54542 0.75,-0.54542 0.75,-0.54542l1.02909,0.54542c0,2.75873 -1.06045,4.93748 -1.8238,7.59755c-0.90828,3.16502 1.29971,6.80639 3.95633,9.15419c2.14412,1.10527 4.37366,1.33775 6.75419,2.02711c6.36138,1.84223 12.10192,1.99949 18.8348,2.4964c9.49173,-0.00447 20.24092,0.08783 28.74321,-3.44712c8.09985,-3.34907 6.6588,-10.33724 5.53708,-16.02566c0,0 -0.10607,-0.53994 0.63639,-0.61708c0.74246,-0.07715 0.84853,0.46286 0.84853,0.46286c1.21306,6.20107 2.44753,13.48416 -6.2778,17.12705c-8.76097,3.6392 -19.77932,3.59384 -29.56275,3.58951c-6.89883,-0.50273 -12.81101,-0.69596 -19.33349,-2.57802c-2.55417,-0.73703 -4.89917,-1.03266 -7.2006,-2.23537c-3.05011,-2.63424 -5.34133,-6.5664 -4.41654,-10.1285c0.64138,-2.47047 1.68468,-4.49185 1.79493,-6.99211z" fill="#75dbff" fill-rule="nonzero" stroke="none" stroke-width="0.5" stroke-linecap="butt"/></g></g></g></svg>