<svg version="1.1" xmlns="http://www.w3.org/2000/svg" xmlns:xlink="http://www.w3.org/1999/xlink" width="2878.25006" height="1619.57958" viewBox="0,0,2878.25006,1619.57958"><g transform="translate(1117.37278,629.80931)"><g data-paper-data="{&quot;isPaintingLayer&quot;:true}" stroke-linejoin="miter" stroke-miterlimit="10" stroke-dasharray="" stroke-dashoffset="0" style="mix-blend-mode: normal"><path d="M-1117.37278,989.77027v-1619.57958h2878.25006v1619.57958z" fill="none" fill-rule="nonzero" stroke="#000000" stroke-width="0" stroke-linecap="butt"/><g><path d="M371.77626,248.43886l-19.76914,-12.90596l93.69715,0.07466l33.57674,12.7858z" data-paper-data="{&quot;index&quot;:null}" fill="#cedce9" fill-rule="nonzero" stroke="#000000" stroke-width="0" stroke-linecap="round"/><path d="M488.1911,247.71845c-2.53537,0.14264 -5.02815,0.22467 -7.49601,0.28413c0.01679,0.02175 0.02551,0.04441 0.02559,0.0681c0.00194,0.57638 -5.1608,0.57856 -5.1608,0.57856c-22.80221,0.00966 -45.60433,0.01931 -68.40647,0.02895c-5.86765,0.00248 -20.46882,-0.25285 -24.79534,0.09373c-2.49217,0.19965 -4.27685,0.18071 -7.47097,0.20813c-0.36051,0.00309 -1.01625,0.00966 -1.59566,0.01377c3.08953,0.24485 1.60419,2.52052 1.60635,3.1564c0.00908,2.68985 0.01812,5.37966 0.0272,8.06951c0.0016,0.48031 0.00322,0.96066 0.00485,1.44097c0.00065,0.19215 -0.90552,0.73998 0.00194,0.57638c3.45256,-0.62239 10.19566,-0.29141 18.06866,-0.29582c15.51938,-0.00879 32.13396,-0.20107 47.37744,0.10418c27.83585,0.60971 57.75828,-0.39589 85.37226,0.28485c23.25749,0.63923 51.09544,0.68594 75.05495,0.67581c6.02327,-0.00253 12.04642,-0.0051 18.06966,-0.00765c0.90625,-0.00037 2.32912,-0.01459 3.80233,-0.03016c-1.48298,-0.29507 0.06626,-1.01078 0.06491,-1.41247c-0.00505,-1.50066 4.49192,-4.0912 -1.04401,-5.43712c-4.89362,-1.63511 -7.99102,-3.21009 -15.97006,-4.83947c-5.88716,-1.20224 -15.04909,-2.26624 -19.9208,-3.46086c-2.3623,-0.71224 -4.47318,-0.20161 -12.15878,-0.3634c-17.00624,-0.35803 -34.0612,-0.27377 -51.62851,-0.26635c-6.4034,0.00272 -14.44505,0.15127 -20.65104,0.00874c-1.31004,-0.03009 -3.77221,-0.14294 -5.6178,-0.23542c3.37603,0.28968 -4.32441,0.57457 -7.55991,0.75657zM407.1492,247.5254c17.23319,-0.00728 34.46634,-0.01459 51.69948,-0.02187c0.49704,-0.02798 0.99398,-0.05592 1.49101,-0.0839c6.54685,-0.3683 12.45893,-0.27392 18.06825,-0.43993c7.64435,-0.22623 12.21475,-0.97918 20.10212,-1.16128c4.53093,-0.10463 17.08239,0.22011 23.50567,0.21741c17.41699,-0.00735 34.81452,-0.12593 51.62851,0.26635c9.44543,0.22038 17.42579,-0.22041 21.84711,1.11264c0.65281,0.50682 5.86528,0.82153 8.59232,1.21049c4.16756,0.59436 7.65219,1.47582 10.87776,2.13447c7.99617,1.6329 11.5153,3.31437 16.53092,4.99026c4.48318,1.76685 1.56901,3.96142 1.5752,5.80146c0.00344,1.01729 1.44189,1.73367 -5.15399,2.59596c-2.30007,0.30069 -23.55962,0.00995 -27.10445,0.01146c-24.71307,0.01048 -53.58879,-0.05034 -77.5594,-0.70917c-26.33426,-0.84815 -57.67394,0.3232 -84.8929,-0.27301c-21.93438,-0.54226 -55.78304,0.94132 -73.75043,-0.93522c-1.77886,-0.18581 -0.00578,-1.71022 -0.00681,-2.0174c-0.00908,-2.68985 -0.01812,-5.37966 -0.0272,-8.06951c-0.00301,-0.89932 -3.56112,-3.04495 1.82327,-3.7169c9.39607,-1.17264 26.98922,-0.90645 40.75383,-0.91225z" data-paper-data="{&quot;index&quot;:null}" fill="#000000" fill-rule="nonzero" stroke="none" stroke-width="0" stroke-linecap="butt"/><path d="M480.62287,247.97491c2.46783,-0.05942 4.99065,-0.14225 7.52614,-0.28489c3.23549,-0.182 10.96657,-0.46724 7.59043,-0.75691c1.84557,0.09249 4.3283,0.20533 5.63821,0.23542c6.206,0.14252 14.31973,-0.0046 20.72296,-0.00731c17.56722,-0.00743 34.73294,-0.08366 51.73914,0.27437c7.68559,0.16182 9.81249,-0.34666 12.17477,0.36558c4.87175,1.19461 14.0724,2.26718 19.95963,3.46942c7.97906,1.62938 11.08711,3.21529 15.98073,4.85041c5.53599,1.34593 1.01478,3.94645 1.01984,5.44711c0.00134,0.40169 -1.55753,1.11943 -0.07451,1.4145c-1.47309,0.01558 -2.89793,0.03016 -3.80425,0.03054c-6.02325,0.00257 -12.05696,0.00691 -18.0802,0.00946c-23.95963,0.01015 -51.91057,-0.0265 -75.16808,-0.66574c-27.61399,-0.68074 -57.80997,0.31939 -85.64586,-0.29032c-15.24347,-0.30525 -31.90507,-0.11949 -47.42446,-0.11074c-7.87299,0.00445 -14.62221,-0.32779 -18.07478,0.29463c-0.90746,0.1636 -0.00517,-0.38512 -0.00583,-0.57725c-0.00162,-0.48031 -0.01208,-0.96301 -0.01371,-1.44331c-0.00904,-2.68985 -0.02892,-5.39564 -0.038,-8.08549c-0.00216,-0.63589 1.49884,-2.91706 -1.59071,-3.16191c0.57949,-0.00411 1.2357,-0.01082 1.59627,-0.01392c3.19401,-0.02737 4.98276,-0.00943 7.47484,-0.20907c4.32652,-0.34658 18.94091,-0.09391 24.80854,-0.09641c22.80227,-0.00966 45.7259,-0.03081 68.52805,-0.04046c0,0 5.18809,-0.00317 5.18615,-0.57959c-0.00008,-0.02365 -0.0082,-0.04634 -0.025,-0.0681z" data-paper-data="{&quot;noHover&quot;:false,&quot;origItem&quot;:[&quot;Path&quot;,{&quot;applyMatrix&quot;:true,&quot;segments&quot;:[[[579.60736,595.76373],[0.95609,-0.20262],[0.00646,0.07548]],[[579.61718,596],[0,-0.08208],[0,2]],[[577.61718,598],[0,0],[-8.83333,0]],[[551.11718,598],[8.83333,0],[-2.27308,0]],[[541.51161,598.28885],[1.67648,-1.19621],[-0.96568,0.68904]],[[538.61718,599],[1.23739,-0.09027],[-0.13966,0.01019]],[[537.99901,599.04541],[0.22447,-0.0134],[1.19653,0.85421]],[[538.61718,610],[0,-2.20646],[0,9.33333]],[[538.61718,638],[0,-9.33333],[0,1.66667]],[[538.61718,643],[0,-1.66667],[0,0.66667]],[[538.61718,645],[-0.35177,0.56631],[1.33831,-2.15456]],[[545.61718,644],[-3.04994,0.00386],[6.01206,-0.00761]],[[563.97058,644.43107],[-5.90478,-1.08158],[10.78253,2.15651]],[[597.04254,645.54479],[-10.6965,-2.40266],[9.00888,2.25222]],[[626.11718,648],[-9.28168,0],[2.33333,0]],[[633.11718,648],[-2.33333,0],[0.35109,0]],[[634.59021,647.90091],[-0.5707,0.05184],[-0.57412,-1.02596]],[[634.61718,643],[0,1.39387],[0,-5.20707]],[[634.21982,624.13246],[2.14282,4.67827],[-1.8936,-5.6808]],[[628.03948,607.31672],[3.08887,5.66543],[-2.2791,-4.1802]],[[620.32688,595.27881],[1.8857,4.15235],[-0.91417,-2.47477]],[[615.61718,594],[2.9771,0.57275],[-6.58756,-1.26734]],[[595.61718,593],[6.8054,0],[-2.48058,0]],[[587.61718,593],[2.40395,0.50364],[-0.50743,-0.10631]],[[585.44122,592.1748],[0.71481,0.32365],[1.30749,1.01011]],[[582.51161,594.78885],[1.25365,-0.62682],[-0.98239,0.4912]]],&quot;closed&quot;:true}],&quot;index&quot;:null}" fill="#c9c9c9" fill-rule="nonzero" stroke="none" stroke-width="0" stroke-linecap="butt"/><path d="M553.00602,250.05742c-0.00023,-0.06684 -0.0721,-0.17872 -0.14082,-0.28866c-0.26581,0.04475 -0.66232,0.08294 -1.17233,0.11553c-1.52905,0.17434 -3.84966,0.17533 -3.84966,0.17533c-19.66498,0.00833 -31.018,1.54327 -37.9644,3.1558c-0.81722,0.18298 -0.74424,0.40295 -0.74355,0.60711c0.00019,0.0581 -0.04928,0.15044 -0.10333,0.24594c0.05187,-0.03076 0.18162,-0.05607 0.44583,-0.07243c1.16745,-0.07217 11.32048,0.36204 12.5653,0.10919c0.37411,-0.07598 -1.83653,-0.08935 -1.71489,-0.17491c1.49592,-1.05191 17.39306,-2.64876 25.20886,-3.08846c2.02712,-0.11405 4.30933,-0.17197 6.5782,-0.19901c-0.88762,-0.15387 0.89142,-0.39069 0.89075,-0.58551zM509.00481,254.11623c-0.11636,0.20496 -0.21964,0.40087 0.1323,0.28274c0.24055,-0.08073 -0.1075,-0.19381 -0.1323,-0.28274zM500.64169,252.7038c7.37339,-1.55613 17.18205,-2.97628 32.47316,-3.54008c1.43576,-0.25126 4.39899,-0.2525 4.39899,-0.2525l2.58133,-0.00109c5.84505,-0.00248 8.93666,-0.23113 15.21502,-0.23376c8.71911,-0.00369 10.7468,1.9311 6.18928,2.4999c-2.87593,0.3589 -7.49058,0.47824 -11.34132,0.69485c-11.39829,0.64124 -15.62223,2.47177 -28.11122,3.387c-13.23673,0.97002 -27.82001,-1.11816 -21.40526,-2.55431z" data-paper-data="{&quot;index&quot;:null}" fill="#000000" fill-rule="nonzero" stroke="none" stroke-width="0" stroke-linecap="butt"/><path d="M553.05695,249.74938c0.0689,0.10995 0.15272,0.22343 0.15293,0.29025c0.00065,0.19482 -1.75717,0.43517 -0.86956,0.58906c-2.2689,0.02704 -4.56421,0.08261 -6.59138,0.19666c-7.81589,0.4397 -23.78979,2.02852 -25.28565,3.08043c-0.12176,0.08556 1.84386,0.14965 1.46973,0.22563c-1.24485,0.25285 -11.48582,-0.1889 -12.6533,-0.11677c-0.2643,0.01632 -0.39279,0.04178 -0.44459,0.07258c0.05405,-0.0955 0.09394,-0.18916 0.09375,-0.24726c-0.00068,-0.20416 -0.09624,-0.42816 0.72101,-0.6111c6.94633,-1.61252 18.70926,-3.18151 38.37421,-3.18985c0,0 2.33114,0.00022 3.86018,-0.17412c0.51004,-0.03257 0.90682,-0.07078 1.17243,-0.11553z" data-paper-data="{&quot;noHover&quot;:false,&quot;origItem&quot;:[&quot;Path&quot;,{&quot;applyMatrix&quot;:true,&quot;segments&quot;:[[[607.563,601.99816],[0.02649,0.38155],[-0.10299,0.15484]],[[607.10872,602.39727],[0.1976,-0.11227],[-0.59254,0.60273]],[[605.61718,603],[0,0],[-7.618,0]],[[590.90604,613.89443],[2.69308,-5.58508],[-0.31682,0.63364]],[[590.61718,616],[0,-0.70843],[0,0.20156]],[[590.57685,616.85325],[0.02106,-0.33136],[0.02013,-0.10671]],[[590.74964,616.60263],[-0.10238,0.05628],[0.45234,-0.24865]],[[595.61718,617],[-0.48256,0.87548],[0.14503,-0.26312]],[[594.95308,616.3906],[-0.04725,0.29671],[0.58086,-3.64773]],[[604.72276,605.71115],[-3.02833,1.51416],[0.78545,-0.39273]],[[607.27135,605.03032],[-0.87898,0.0905],[-0.34365,-0.53523]],[[607.61718,603],[0,0.6759],[0,-0.23192]]],&quot;closed&quot;:true}],&quot;index&quot;:null}" fill="#ffffff" fill-rule="nonzero" stroke="none" stroke-width="0" stroke-linecap="butt"/><path d="M371.77627,248.43886l-19.76914,-12.90596l93.69715,0.07466l33.57674,12.7858z" data-paper-data="{&quot;index&quot;:null}" fill="#cedce9" fill-rule="nonzero" stroke="#000000" stroke-width="0" stroke-linecap="round"/><path d="M488.1911,247.71845c-2.53537,0.14264 -5.02815,0.22467 -7.49601,0.28413c0.01679,0.02175 0.02551,0.04441 0.02559,0.0681c0.00194,0.57638 -5.1608,0.57856 -5.1608,0.57856c-22.80221,0.00966 -45.60433,0.01931 -68.40647,0.02895c-5.86765,0.00248 -20.46882,-0.25285 -24.79534,0.09373c-2.49217,0.19965 -4.27685,0.18071 -7.47097,0.20813c-0.36051,0.00309 -1.01625,0.00966 -1.59566,0.01377c3.08953,0.24485 1.60419,2.52052 1.60635,3.1564c0.00908,2.68985 0.01812,5.37966 0.0272,8.06951c0.0016,0.48031 0.00322,0.96066 0.00485,1.44097c0.00065,0.19215 -0.90552,0.73998 0.00194,0.57638c3.45256,-0.62239 10.19566,-0.29141 18.06866,-0.29582c15.51938,-0.00879 32.13396,-0.20107 47.37744,0.10418c27.83585,0.60971 57.75828,-0.39589 85.37226,0.28485c23.25749,0.63923 51.09544,0.68594 75.05495,0.67581c6.02327,-0.00253 12.04642,-0.0051 18.06966,-0.00765c0.90625,-0.00037 2.32912,-0.01459 3.80233,-0.03016c-1.48298,-0.29507 0.06626,-1.01078 0.06491,-1.41247c-0.00505,-1.50066 4.49192,-4.0912 -1.04401,-5.43712c-4.89362,-1.63511 -7.99102,-3.21009 -15.97006,-4.83947c-5.88716,-1.20224 -15.04909,-2.26624 -19.9208,-3.46086c-2.3623,-0.71224 -4.47318,-0.20161 -12.15878,-0.3634c-17.00624,-0.35803 -34.0612,-0.27377 -51.62851,-0.26635c-6.4034,0.00272 -14.44505,0.15127 -20.65104,0.00874c-1.31004,-0.03009 -3.77221,-0.14294 -5.6178,-0.23542c3.37603,0.28968 -4.32441,0.57457 -7.55991,0.75657zM407.14921,247.5254c17.23319,-0.00728 34.46634,-0.01459 51.69948,-0.02187c0.49704,-0.02798 0.99398,-0.05592 1.49101,-0.0839c6.54685,-0.3683 12.45893,-0.27392 18.06825,-0.43993c7.64435,-0.22623 12.21475,-0.97918 20.10212,-1.16128c4.53093,-0.10463 17.08239,0.22011 23.50567,0.21741c17.41699,-0.00735 34.81452,-0.12593 51.62851,0.26635c9.44543,0.22038 17.42579,-0.22041 21.84711,1.11264c0.65281,0.50682 5.86528,0.82153 8.59232,1.21049c4.16756,0.59436 7.65219,1.47582 10.87776,2.13447c7.99617,1.6329 11.5153,3.31437 16.53092,4.99026c4.48318,1.76685 1.56901,3.96142 1.5752,5.80146c0.00344,1.01729 1.44189,1.73367 -5.15399,2.59596c-2.30007,0.30069 -23.55962,0.00995 -27.10445,0.01146c-24.71307,0.01048 -53.58879,-0.05034 -77.5594,-0.70917c-26.33426,-0.84815 -57.67394,0.3232 -84.8929,-0.27301c-21.93438,-0.54226 -55.78304,0.94132 -73.75043,-0.93522c-1.77886,-0.18581 -0.00578,-1.71022 -0.00681,-2.0174c-0.00908,-2.68985 -0.01812,-5.37966 -0.0272,-8.06951c-0.00301,-0.89932 -3.56112,-3.04495 1.82327,-3.7169c9.39607,-1.17264 26.98922,-0.90645 40.75383,-0.91225z" data-paper-data="{&quot;index&quot;:null}" fill="#000000" fill-rule="nonzero" stroke="none" stroke-width="0" stroke-linecap="butt"/><path d="M480.62287,247.97491c2.46783,-0.05942 4.99065,-0.14225 7.52614,-0.28489c3.23549,-0.182 10.96657,-0.46724 7.59043,-0.75691c1.84557,0.09249 4.3283,0.20533 5.63821,0.23542c6.206,0.14252 14.31973,-0.0046 20.72296,-0.00731c17.56722,-0.00743 34.73294,-0.08366 51.73914,0.27437c7.68559,0.16182 9.81249,-0.34666 12.17477,0.36558c4.87175,1.19461 14.0724,2.26718 19.95963,3.46942c7.97906,1.62938 11.08711,3.21529 15.98073,4.85041c5.53599,1.34593 1.01478,3.94645 1.01984,5.44711c0.00134,0.40169 -1.55753,1.11943 -0.07451,1.4145c-1.47309,0.01558 -2.89793,0.03016 -3.80425,0.03054c-6.02325,0.00257 -12.05696,0.00691 -18.0802,0.00946c-23.95963,0.01015 -51.91057,-0.0265 -75.16808,-0.66574c-27.61399,-0.68074 -57.80997,0.31939 -85.64586,-0.29032c-15.24347,-0.30525 -31.90507,-0.11949 -47.42446,-0.11074c-7.87299,0.00445 -14.62221,-0.32779 -18.07478,0.29463c-0.90746,0.1636 -0.00517,-0.38512 -0.00583,-0.57725c-0.00162,-0.48031 -0.01208,-0.96301 -0.01371,-1.44331c-0.00904,-2.68985 -0.02892,-5.39564 -0.038,-8.08549c-0.00216,-0.63589 1.49884,-2.91706 -1.59071,-3.16191c0.57949,-0.00411 1.2357,-0.01082 1.59627,-0.01392c3.19401,-0.02737 4.98276,-0.00943 7.47484,-0.20907c4.32652,-0.34658 18.94091,-0.09391 24.80854,-0.09641c22.80227,-0.00966 45.7259,-0.03081 68.52805,-0.04046c0,0 5.18809,-0.00317 5.18615,-0.57959c-0.00008,-0.02365 -0.0082,-0.04634 -0.025,-0.0681z" data-paper-data="{&quot;noHover&quot;:false,&quot;origItem&quot;:[&quot;Path&quot;,{&quot;applyMatrix&quot;:true,&quot;segments&quot;:[[[579.60736,595.76373],[0.95609,-0.20262],[0.00646,0.07548]],[[579.61718,596],[0,-0.08208],[0,2]],[[577.61718,598],[0,0],[-8.83333,0]],[[551.11718,598],[8.83333,0],[-2.27308,0]],[[541.51161,598.28885],[1.67648,-1.19621],[-0.96568,0.68904]],[[538.61718,599],[1.23739,-0.09027],[-0.13966,0.01019]],[[537.99901,599.04541],[0.22447,-0.0134],[1.19653,0.85421]],[[538.61718,610],[0,-2.20646],[0,9.33333]],[[538.61718,638],[0,-9.33333],[0,1.66667]],[[538.61718,643],[0,-1.66667],[0,0.66667]],[[538.61718,645],[-0.35177,0.56631],[1.33831,-2.15456]],[[545.61718,644],[-3.04994,0.00386],[6.01206,-0.00761]],[[563.97058,644.43107],[-5.90478,-1.08158],[10.78253,2.15651]],[[597.04254,645.54479],[-10.6965,-2.40266],[9.00888,2.25222]],[[626.11718,648],[-9.28168,0],[2.33333,0]],[[633.11718,648],[-2.33333,0],[0.35109,0]],[[634.59021,647.90091],[-0.5707,0.05184],[-0.57412,-1.02596]],[[634.61718,643],[0,1.39387],[0,-5.20707]],[[634.21982,624.13246],[2.14282,4.67827],[-1.8936,-5.6808]],[[628.03948,607.31672],[3.08887,5.66543],[-2.2791,-4.1802]],[[620.32688,595.27881],[1.8857,4.15235],[-0.91417,-2.47477]],[[615.61718,594],[2.9771,0.57275],[-6.58756,-1.26734]],[[595.61718,593],[6.8054,0],[-2.48058,0]],[[587.61718,593],[2.40395,0.50364],[-0.50743,-0.10631]],[[585.44122,592.1748],[0.71481,0.32365],[1.30749,1.01011]],[[582.51161,594.78885],[1.25365,-0.62682],[-0.98239,0.4912]]],&quot;closed&quot;:true}],&quot;index&quot;:null}" fill="#c9c9c9" fill-rule="nonzero" stroke="none" stroke-width="0" stroke-linecap="butt"/><path d="M553.00603,250.05742c-0.00023,-0.06684 -0.0721,-0.17872 -0.14082,-0.28866c-0.26581,0.04475 -0.66232,0.08294 -1.17233,0.11553c-1.52905,0.17434 -3.84966,0.17533 -3.84966,0.17533c-19.66498,0.00833 -31.018,1.54327 -37.9644,3.1558c-0.81722,0.18298 -0.74424,0.40295 -0.74355,0.60711c0.00019,0.0581 -0.04928,0.15044 -0.10333,0.24594c0.05187,-0.03076 0.18162,-0.05607 0.44583,-0.07243c1.16745,-0.07217 11.32048,0.36204 12.5653,0.10919c0.37411,-0.07598 -1.83653,-0.08935 -1.71489,-0.17491c1.49592,-1.05191 17.39306,-2.64876 25.20886,-3.08846c2.02712,-0.11405 4.30933,-0.17197 6.5782,-0.19901c-0.88762,-0.15387 0.89142,-0.39069 0.89075,-0.58551zM509.00481,254.11623c-0.11636,0.20496 -0.21964,0.40087 0.1323,0.28274c0.24055,-0.08073 -0.1075,-0.19381 -0.1323,-0.28274zM500.64169,252.7038c7.37339,-1.55613 17.18205,-2.97628 32.47316,-3.54008c1.43576,-0.25126 4.39899,-0.2525 4.39899,-0.2525l2.58133,-0.00109c5.84505,-0.00248 8.93666,-0.23113 15.21502,-0.23376c8.71911,-0.00369 10.7468,1.9311 6.18928,2.4999c-2.87593,0.3589 -7.49058,0.47824 -11.34132,0.69485c-11.39829,0.64124 -15.62223,2.47177 -28.11122,3.387c-13.23673,0.97002 -27.82001,-1.11816 -21.40526,-2.55431z" data-paper-data="{&quot;index&quot;:null}" fill="#000000" fill-rule="nonzero" stroke="none" stroke-width="0" stroke-linecap="butt"/><path d="M553.05695,249.74938c0.0689,0.10995 0.15272,0.22343 0.15293,0.29025c0.00065,0.19482 -1.75717,0.43517 -0.86956,0.58906c-2.2689,0.02704 -4.56421,0.08261 -6.59138,0.19666c-7.81589,0.4397 -23.78979,2.02852 -25.28565,3.08043c-0.12176,0.08556 1.84386,0.14965 1.46973,0.22563c-1.24485,0.25285 -11.48582,-0.1889 -12.6533,-0.11677c-0.2643,0.01632 -0.39279,0.04178 -0.44459,0.07258c0.05405,-0.0955 0.09394,-0.18916 0.09375,-0.24726c-0.00068,-0.20416 -0.09624,-0.42816 0.72101,-0.6111c6.94633,-1.61252 18.70926,-3.18151 38.37421,-3.18985c0,0 2.33114,0.00022 3.86018,-0.17412c0.51004,-0.03257 0.90682,-0.07078 1.17243,-0.11553z" data-paper-data="{&quot;noHover&quot;:false,&quot;origItem&quot;:[&quot;Path&quot;,{&quot;applyMatrix&quot;:true,&quot;segments&quot;:[[[607.563,601.99816],[0.02649,0.38155],[-0.10299,0.15484]],[[607.10872,602.39727],[0.1976,-0.11227],[-0.59254,0.60273]],[[605.61718,603],[0,0],[-7.618,0]],[[590.90604,613.89443],[2.69308,-5.58508],[-0.31682,0.63364]],[[590.61718,616],[0,-0.70843],[0,0.20156]],[[590.57685,616.85325],[0.02106,-0.33136],[0.02013,-0.10671]],[[590.74964,616.60263],[-0.10238,0.05628],[0.45234,-0.24865]],[[595.61718,617],[-0.48256,0.87548],[0.14503,-0.26312]],[[594.95308,616.3906],[-0.04725,0.29671],[0.58086,-3.64773]],[[604.72276,605.71115],[-3.02833,1.51416],[0.78545,-0.39273]],[[607.27135,605.03032],[-0.87898,0.0905],[-0.34365,-0.53523]],[[607.61718,603],[0,0.6759],[0,-0.23192]]],&quot;closed&quot;:true}],&quot;index&quot;:null}" fill="#ffffff" fill-rule="nonzero" stroke="none" stroke-width="0" stroke-linecap="butt"/><path d="M164.71899,247.68471l33.57675,-12.7858l93.69714,-0.07466l-19.76914,12.90596z" data-paper-data="{&quot;index&quot;:null}" fill="#cedce9" fill-rule="nonzero" stroke="#000000" stroke-width="0" stroke-linecap="round"/><path d="M155.80894,247.00977c-3.2355,-0.182 -10.93595,-0.46689 -7.55991,-0.75657c-1.84559,0.09249 -4.30777,0.20538 -5.61781,0.23546c-6.20599,0.14252 -14.24765,-0.00604 -20.65104,-0.00874c-17.56731,-0.00743 -34.62226,-0.0917 -51.62851,0.26635c-7.68561,0.16182 -9.79648,-0.34879 -12.15878,0.3634c-4.8717,1.19461 -14.03364,2.25863 -19.92079,3.46086c-7.97904,1.62938 -11.07645,3.20436 -15.97007,4.83947c-5.53593,1.34593 -1.03896,3.93646 -1.04401,5.43712c-0.00135,0.40169 1.54789,1.1174 0.06491,1.41247c1.47321,0.01558 2.89607,0.02979 3.80232,0.03016c6.02324,0.00253 12.04639,0.0051 18.06966,0.00765c23.95951,0.01015 51.79746,-0.03658 75.05494,-0.67581c27.61399,-0.68074 57.53642,0.32486 85.37226,-0.28485c15.24348,-0.30525 31.85806,-0.11296 47.37744,-0.10418c7.87301,0.00445 14.6161,-0.32655 18.06866,0.29582c0.90746,0.1636 0.00129,-0.38425 0.00194,-0.57638c0.00162,-0.48031 0.00325,-0.96066 0.00485,-1.44097c0.00908,-2.68985 0.01812,-5.37966 0.0272,-8.06951c0.00216,-0.63589 -1.48319,-2.91152 1.60635,-3.1564c-0.5794,-0.00411 -1.23515,-0.01067 -1.59566,-0.01377c-3.19412,-0.02737 -4.97879,-0.00849 -7.47096,-0.20813c-4.32652,-0.34658 -18.92768,-0.09124 -24.79534,-0.09373c-22.80214,-0.00966 -45.60426,-0.01931 -68.40647,-0.02895c0,0 -5.16274,-0.00218 -5.1608,-0.57856c0.00008,-0.02368 0.0088,-0.04634 0.02559,-0.0681c-2.46787,-0.05946 -4.96064,-0.14151 -7.49601,-0.28413zM236.85053,246.81676c13.76461,0.0058 31.35777,-0.26038 40.75384,0.91225c5.38439,0.67197 1.82628,2.81759 1.82327,3.7169c-0.00907,2.68985 -0.01813,5.37966 -0.0272,8.06951c-0.00103,0.30714 1.77206,1.83159 -0.0068,2.0174c-17.9674,1.87654 -51.81605,0.39299 -73.75043,0.93522c-27.21896,0.59622 -58.55864,-0.57514 -84.8929,0.27301c-23.97061,0.65884 -52.84632,0.71967 -77.55939,0.70917c-3.54483,-0.00151 -24.80439,0.28923 -27.10445,-0.01146c-6.59588,-0.86229 -5.15742,-1.57867 -5.15399,-2.59596c0.00619,-1.84004 -2.90798,-4.03461 1.5752,-5.80146c5.01563,-1.67587 8.53476,-3.35736 16.53093,-4.99026c3.22556,-0.6587 6.71019,-1.5401 10.87776,-2.13447c2.72704,-0.38891 7.9395,-0.70367 8.59231,-1.21049c4.42133,-1.33303 12.40168,-0.89226 21.84711,-1.11264c16.81399,-0.39228 34.21152,-0.27373 51.62851,-0.26635c6.42327,0.00272 18.97474,-0.32199 23.50567,-0.21741c7.88736,0.18212 12.45776,0.93506 20.10211,1.16128c5.60931,0.166 11.5214,0.07164 18.06825,0.43993c0.49703,0.02798 0.99398,0.05592 1.49101,0.0839c17.23314,0.00728 34.46629,0.01459 51.69948,0.02187z" data-paper-data="{&quot;index&quot;:null}" fill="#000000" fill-rule="nonzero" stroke="none" stroke-width="0" stroke-linecap="butt"/><path d="M163.37679,247.26626c-0.0168,0.02175 -0.02491,0.04445 -0.025,0.0681c-0.00194,0.57638 5.18615,0.57959 5.18615,0.57959c22.80215,0.00966 45.72579,0.03081 68.52805,0.04046c5.86764,0.00248 20.48202,-0.25013 24.80854,0.09641c2.49208,0.19965 4.28083,0.1817 7.47484,0.20907c0.36057,0.00309 1.01678,0.00981 1.59627,0.01392c-3.08955,0.24488 -1.58855,2.52603 -1.59071,3.16191c-0.00907,2.68985 -0.02895,5.39564 -0.03799,8.08549c-0.00163,0.48031 -0.0121,0.96301 -0.01371,1.44331c-0.00066,0.19215 0.90163,0.74085 -0.00583,0.57725c-3.45256,-0.62239 -10.20178,-0.29017 -18.07478,-0.29463c-15.51939,-0.00874 -32.18099,-0.19451 -47.42446,0.11074c-27.83589,0.60971 -58.03187,-0.39042 -85.64586,0.29032c-23.25751,0.63923 -51.20845,0.67588 -75.16808,0.66574c-6.02324,-0.00253 -12.05696,-0.00691 -18.0802,-0.00946c-0.90632,-0.00037 -2.33116,-0.01501 -3.80425,-0.03054c1.48302,-0.29507 -0.07586,-1.01281 -0.07452,-1.4145c0.00506,-1.50066 -4.51614,-4.1012 1.01984,-5.44711c4.89361,-1.63511 8.00167,-3.22103 15.98073,-4.85041c5.88724,-1.20224 15.08788,-2.27481 19.95963,-3.46942c2.36227,-0.71224 4.48917,-0.20375 12.17477,-0.36558c17.00621,-0.35803 34.17192,-0.2818 51.73915,-0.27437c6.40323,0.00272 14.51696,0.14983 20.72296,0.00731c1.30991,-0.03009 3.79264,-0.14294 5.63821,-0.23542c-3.37613,0.28968 4.35494,0.57492 7.59043,0.75691c2.5355,0.14264 5.05832,0.22546 7.52615,0.28489z" data-paper-data="{&quot;noHover&quot;:false,&quot;origItem&quot;:[&quot;Path&quot;,{&quot;applyMatrix&quot;:true,&quot;segments&quot;:[[[579.60736,595.76373],[0.95609,-0.20262],[0.00646,0.07548]],[[579.61718,596],[0,-0.08208],[0,2]],[[577.61718,598],[0,0],[-8.83333,0]],[[551.11718,598],[8.83333,0],[-2.27308,0]],[[541.51161,598.28885],[1.67648,-1.19621],[-0.96568,0.68904]],[[538.61718,599],[1.23739,-0.09027],[-0.13966,0.01019]],[[537.99901,599.04541],[0.22447,-0.0134],[1.19653,0.85421]],[[538.61718,610],[0,-2.20646],[0,9.33333]],[[538.61718,638],[0,-9.33333],[0,1.66667]],[[538.61718,643],[0,-1.66667],[0,0.66667]],[[538.61718,645],[-0.35177,0.56631],[1.33831,-2.15456]],[[545.61718,644],[-3.04994,0.00386],[6.01206,-0.00761]],[[563.97058,644.43107],[-5.90478,-1.08158],[10.78253,2.15651]],[[597.04254,645.54479],[-10.6965,-2.40266],[9.00888,2.25222]],[[626.11718,648],[-9.28168,0],[2.33333,0]],[[633.11718,648],[-2.33333,0],[0.35109,0]],[[634.59021,647.90091],[-0.5707,0.05184],[-0.57412,-1.02596]],[[634.61718,643],[0,1.39387],[0,-5.20707]],[[634.21982,624.13246],[2.14282,4.67827],[-1.8936,-5.6808]],[[628.03948,607.31672],[3.08887,5.66543],[-2.2791,-4.1802]],[[620.32688,595.27881],[1.8857,4.15235],[-0.91417,-2.47477]],[[615.61718,594],[2.9771,0.57275],[-6.58756,-1.26734]],[[595.61718,593],[6.8054,0],[-2.48058,0]],[[587.61718,593],[2.40395,0.50364],[-0.50743,-0.10631]],[[585.44122,592.1748],[0.71481,0.32365],[1.30749,1.01011]],[[582.51161,594.78885],[1.25365,-0.62682],[-0.98239,0.4912]]],&quot;closed&quot;:true}],&quot;index&quot;:null}" fill="#c9c9c9" fill-rule="nonzero" stroke="none" stroke-width="0" stroke-linecap="butt"/><path d="M90.99403,249.34877c-0.00067,0.19482 1.77837,0.43163 0.89076,0.58551c2.26887,0.02704 4.55109,0.08495 6.5782,0.19901c7.8158,0.4397 23.71294,2.03655 25.20885,3.08846c0.12164,0.08556 -2.08899,0.09894 -1.71489,0.17491c1.24482,0.25285 11.39785,-0.18135 12.5653,-0.10919c0.26421,0.01632 0.39396,0.04166 0.44583,0.07239c-0.05406,-0.0955 -0.10352,-0.18784 -0.10333,-0.24594c0.00069,-0.20416 0.07367,-0.42417 -0.74355,-0.60711c-6.9464,-1.61252 -18.29942,-3.1475 -37.9644,-3.1558c0,0 -2.32061,-0.00099 -3.84966,-0.17533c-0.51,-0.03257 -0.90652,-0.07078 -1.17233,-0.11553c-0.06872,0.10995 -0.14059,0.22182 -0.14083,0.28866zM134.86289,253.69029c0.35194,0.11816 0.24865,-0.07774 0.13229,-0.28274c-0.0248,0.08891 -0.37284,0.20198 -0.13229,0.28274zM143.35832,251.99516c6.41475,1.43615 -8.16853,3.52428 -21.40526,2.55431c-12.48898,-0.91524 -16.71293,-2.74576 -28.11122,-3.387c-3.85074,-0.21662 -8.46538,-0.33594 -11.34132,-0.69485c-4.55751,-0.56877 -2.52983,-2.50356 6.18928,-2.4999c6.27836,0.00265 9.36997,0.23131 15.21501,0.23376l2.58133,0.00109c0,0 2.96323,0.00124 4.39899,0.2525c15.29111,0.56383 25.09977,1.98399 32.47316,3.54008z" data-paper-data="{&quot;index&quot;:null}" fill="#000000" fill-rule="nonzero" stroke="none" stroke-width="0" stroke-linecap="butt"/><path d="M90.94327,249.04074c0.26561,0.04472 0.6624,0.08291 1.17244,0.11553c1.52904,0.17434 3.86019,0.17412 3.86019,0.17412c19.66494,0.00833 31.42788,1.57728 38.37421,3.18985c0.81725,0.18298 0.72169,0.40698 0.72101,0.6111c-0.00018,0.0581 0.03971,0.15176 0.09375,0.24726c-0.0518,-0.03076 -0.18028,-0.05622 -0.44458,-0.07258c-1.16748,-0.07217 -11.40845,0.36957 -12.6533,0.11677c-0.37414,-0.07598 1.5915,-0.14007 1.46973,-0.22563c-1.49586,-1.05191 -17.46976,-2.64072 -25.28565,-3.08043c-2.02717,-0.11405 -4.32249,-0.16964 -6.59138,-0.19666c0.88761,-0.15387 -0.87021,-0.39428 -0.86955,-0.58906c0.00022,-0.06684 0.08403,-0.18034 0.15293,-0.29025z" data-paper-data="{&quot;noHover&quot;:false,&quot;origItem&quot;:[&quot;Path&quot;,{&quot;applyMatrix&quot;:true,&quot;segments&quot;:[[[607.563,601.99816],[0.02649,0.38155],[-0.10299,0.15484]],[[607.10872,602.39727],[0.1976,-0.11227],[-0.59254,0.60273]],[[605.61718,603],[0,0],[-7.618,0]],[[590.90604,613.89443],[2.69308,-5.58508],[-0.31682,0.63364]],[[590.61718,616],[0,-0.70843],[0,0.20156]],[[590.57685,616.85325],[0.02106,-0.33136],[0.02013,-0.10671]],[[590.74964,616.60263],[-0.10238,0.05628],[0.45234,-0.24865]],[[595.61718,617],[-0.48256,0.87548],[0.14503,-0.26312]],[[594.95308,616.3906],[-0.04725,0.29671],[0.58086,-3.64773]],[[604.72276,605.71115],[-3.02833,1.51416],[0.78545,-0.39273]],[[607.27135,605.03032],[-0.87898,0.0905],[-0.34365,-0.53523]],[[607.61718,603],[0,0.6759],[0,-0.23192]]],&quot;closed&quot;:true}],&quot;index&quot;:null}" fill="#ffffff" fill-rule="nonzero" stroke="none" stroke-width="0" stroke-linecap="butt"/><path d="M164.71899,247.68471l33.57674,-12.7858l93.69715,-0.07466l-19.76914,12.90596z" data-paper-data="{&quot;index&quot;:null}" fill="#cedce9" fill-rule="nonzero" stroke="#000000" stroke-width="0" stroke-linecap="round"/><path d="M155.80894,247.00977c-3.2355,-0.182 -10.93595,-0.46689 -7.55991,-0.75657c-1.84559,0.09249 -4.30777,0.20538 -5.61781,0.23546c-6.20599,0.14252 -14.24765,-0.00604 -20.65104,-0.00874c-17.56731,-0.00743 -34.62226,-0.0917 -51.62851,0.26635c-7.68561,0.16182 -9.79648,-0.34879 -12.15878,0.3634c-4.8717,1.19461 -14.03364,2.25863 -19.92079,3.46086c-7.97904,1.62938 -11.07645,3.20436 -15.97007,4.83947c-5.53593,1.34593 -1.03896,3.93646 -1.04401,5.43712c-0.00135,0.40169 1.54789,1.1174 0.06491,1.41247c1.47321,0.01558 2.89607,0.02979 3.80232,0.03016c6.02324,0.00253 12.04639,0.0051 18.06966,0.00765c23.95951,0.01015 51.79746,-0.03658 75.05494,-0.67581c27.61399,-0.68074 57.53642,0.32486 85.37227,-0.28485c15.24348,-0.30525 31.85806,-0.11296 47.37744,-0.10418c7.87301,0.00445 14.6161,-0.32655 18.06866,0.29582c0.90746,0.1636 0.00129,-0.38425 0.00194,-0.57638c0.00162,-0.48031 0.00325,-0.96066 0.00485,-1.44097c0.00908,-2.68985 0.01812,-5.37966 0.0272,-8.06951c0.00216,-0.63589 -1.48319,-2.91152 1.60635,-3.1564c-0.5794,-0.00411 -1.23515,-0.01067 -1.59566,-0.01377c-3.19412,-0.02737 -4.97879,-0.00849 -7.47096,-0.20813c-4.32652,-0.34658 -18.92768,-0.09124 -24.79534,-0.09373c-22.80214,-0.00966 -45.60426,-0.01931 -68.40647,-0.02895c0,0 -5.16274,-0.00218 -5.1608,-0.57856c0.00007,-0.02368 0.00879,-0.04634 0.02558,-0.0681c-2.46786,-0.05946 -4.96064,-0.14151 -7.49601,-0.28413zM236.85053,246.81676c13.7646,0.0058 31.35776,-0.26038 40.75383,0.91225c5.38439,0.67197 1.82628,2.81759 1.82328,3.7169c-0.00908,2.68985 -0.01813,5.37966 -0.0272,8.06951c-0.00103,0.30714 1.77206,1.83159 -0.0068,2.0174c-17.9674,1.87654 -51.81605,0.39299 -73.75043,0.93522c-27.21896,0.59622 -58.55864,-0.57514 -84.8929,0.27301c-23.97061,0.65884 -52.84633,0.71967 -77.5594,0.70917c-3.54483,-0.00151 -24.80438,0.28923 -27.10445,-0.01146c-6.59588,-0.86229 -5.15742,-1.57867 -5.15399,-2.59596c0.00619,-1.84004 -2.90798,-4.03461 1.5752,-5.80146c5.01563,-1.67587 8.53476,-3.35736 16.53093,-4.99026c3.22556,-0.6587 6.71019,-1.5401 10.87775,-2.13447c2.72704,-0.38891 7.9395,-0.70367 8.59231,-1.21049c4.42133,-1.33303 12.40169,-0.89226 21.84712,-1.11264c16.81399,-0.39228 34.21151,-0.27373 51.62851,-0.26635c6.42327,0.00272 18.97474,-0.32199 23.50567,-0.21741c7.88736,0.18212 12.45777,0.93506 20.10212,1.16128c5.60932,0.166 11.5214,0.07164 18.06825,0.43993c0.49703,0.02798 0.99398,0.05592 1.49101,0.0839c17.23314,0.00728 34.46629,0.01459 51.69948,0.02187z" data-paper-data="{&quot;index&quot;:null}" fill="#000000" fill-rule="nonzero" stroke="none" stroke-width="0" stroke-linecap="butt"/><path d="M163.37679,247.26626c-0.0168,0.02175 -0.02491,0.04445 -0.025,0.0681c-0.00194,0.57638 5.18615,0.57959 5.18615,0.57959c22.80215,0.00966 45.72579,0.03081 68.52805,0.04046c5.86764,0.00248 20.48202,-0.25013 24.80854,0.09641c2.49208,0.19965 4.28083,0.1817 7.47484,0.20907c0.36057,0.00309 1.01678,0.00981 1.59627,0.01392c-3.08955,0.24488 -1.58855,2.52603 -1.59071,3.16191c-0.00907,2.68985 -0.02895,5.39564 -0.03799,8.08549c-0.00163,0.48031 -0.0121,0.96301 -0.01371,1.44331c-0.00066,0.19215 0.90163,0.74085 -0.00583,0.57725c-3.45256,-0.62239 -10.20178,-0.29017 -18.07478,-0.29463c-15.51939,-0.00874 -32.18099,-0.19451 -47.42446,0.11074c-27.83589,0.60971 -58.03187,-0.39042 -85.64586,0.29032c-23.25751,0.63923 -51.20845,0.67588 -75.16808,0.66574c-6.02324,-0.00253 -12.05696,-0.00691 -18.0802,-0.00946c-0.90632,-0.00037 -2.33116,-0.01501 -3.80425,-0.03054c1.48302,-0.29507 -0.07586,-1.01281 -0.07452,-1.4145c0.00506,-1.50066 -4.51614,-4.1012 1.01984,-5.44711c4.89361,-1.63511 8.00167,-3.22103 15.98073,-4.85041c5.88724,-1.20224 15.08788,-2.27481 19.95963,-3.46942c2.36227,-0.71224 4.48917,-0.20375 12.17477,-0.36558c17.00621,-0.35803 34.17192,-0.2818 51.73915,-0.27437c6.40323,0.00272 14.51696,0.14983 20.72296,0.00731c1.30991,-0.03009 3.79264,-0.14294 5.63821,-0.23542c-3.37613,0.28968 4.35494,0.57492 7.59043,0.75691c2.5355,0.14264 5.05832,0.22546 7.52615,0.28489z" data-paper-data="{&quot;noHover&quot;:false,&quot;origItem&quot;:[&quot;Path&quot;,{&quot;applyMatrix&quot;:true,&quot;segments&quot;:[[[579.60736,595.76373],[0.95609,-0.20262],[0.00646,0.07548]],[[579.61718,596],[0,-0.08208],[0,2]],[[577.61718,598],[0,0],[-8.83333,0]],[[551.11718,598],[8.83333,0],[-2.27308,0]],[[541.51161,598.28885],[1.67648,-1.19621],[-0.96568,0.68904]],[[538.61718,599],[1.23739,-0.09027],[-0.13966,0.01019]],[[537.99901,599.04541],[0.22447,-0.0134],[1.19653,0.85421]],[[538.61718,610],[0,-2.20646],[0,9.33333]],[[538.61718,638],[0,-9.33333],[0,1.66667]],[[538.61718,643],[0,-1.66667],[0,0.66667]],[[538.61718,645],[-0.35177,0.56631],[1.33831,-2.15456]],[[545.61718,644],[-3.04994,0.00386],[6.01206,-0.00761]],[[563.97058,644.43107],[-5.90478,-1.08158],[10.78253,2.15651]],[[597.04254,645.54479],[-10.6965,-2.40266],[9.00888,2.25222]],[[626.11718,648],[-9.28168,0],[2.33333,0]],[[633.11718,648],[-2.33333,0],[0.35109,0]],[[634.59021,647.90091],[-0.5707,0.05184],[-0.57412,-1.02596]],[[634.61718,643],[0,1.39387],[0,-5.20707]],[[634.21982,624.13246],[2.14282,4.67827],[-1.8936,-5.6808]],[[628.03948,607.31672],[3.08887,5.66543],[-2.2791,-4.1802]],[[620.32688,595.27881],[1.8857,4.15235],[-0.91417,-2.47477]],[[615.61718,594],[2.9771,0.57275],[-6.58756,-1.26734]],[[595.61718,593],[6.8054,0],[-2.48058,0]],[[587.61718,593],[2.40395,0.50364],[-0.50743,-0.10631]],[[585.44122,592.1748],[0.71481,0.32365],[1.30749,1.01011]],[[582.51161,594.78885],[1.25365,-0.62682],[-0.98239,0.4912]]],&quot;closed&quot;:true}],&quot;index&quot;:null}" fill="#c9c9c9" fill-rule="nonzero" stroke="none" stroke-width="0" stroke-linecap="butt"/><path d="M90.99402,249.34877c-0.00067,0.19482 1.77837,0.43163 0.89075,0.58551c2.26887,0.02704 4.55109,0.08495 6.5782,0.19901c7.8158,0.4397 23.71294,2.03655 25.20885,3.08846c0.12164,0.08556 -2.08899,0.09894 -1.71489,0.17491c1.24482,0.25285 11.39785,-0.18135 12.5653,-0.10919c0.26421,0.01632 0.39396,0.04166 0.44583,0.07239c-0.05406,-0.0955 -0.10352,-0.18784 -0.10333,-0.24594c0.00069,-0.20416 0.07367,-0.42417 -0.74355,-0.60711c-6.9464,-1.61252 -18.29942,-3.1475 -37.9644,-3.1558c0,0 -2.32061,-0.00099 -3.84966,-0.17533c-0.51,-0.03257 -0.90653,-0.07078 -1.17233,-0.11553c-0.06872,0.10995 -0.14059,0.22182 -0.14082,0.28866zM134.86289,253.69029c0.35194,0.11816 0.24865,-0.07774 0.13229,-0.28274c-0.0248,0.08891 -0.37284,0.20198 -0.13229,0.28274zM143.35832,251.99516c6.41475,1.43615 -8.16853,3.52428 -21.40526,2.55431c-12.48898,-0.91524 -16.71293,-2.74576 -28.11122,-3.387c-3.85074,-0.21662 -8.46538,-0.33594 -11.34132,-0.69485c-4.55751,-0.56877 -2.52983,-2.50356 6.18928,-2.4999c6.27836,0.00265 9.36997,0.23131 15.21501,0.23376l2.58133,0.00109c0,0 2.96323,0.00124 4.39899,0.2525c15.29111,0.56383 25.09977,1.98399 32.47316,3.54008z" data-paper-data="{&quot;index&quot;:null}" fill="#000000" fill-rule="nonzero" stroke="none" stroke-width="0" stroke-linecap="butt"/><path d="M90.94327,249.04074c0.26561,0.04472 0.6624,0.08291 1.17244,0.11553c1.52904,0.17434 3.86019,0.17412 3.86019,0.17412c19.66494,0.00833 31.42788,1.57728 38.37421,3.18985c0.81725,0.18298 0.72169,0.40698 0.72101,0.6111c-0.00018,0.0581 0.03971,0.15176 0.09375,0.24726c-0.0518,-0.03076 -0.18028,-0.05622 -0.44458,-0.07258c-1.16748,-0.07217 -11.40845,0.36957 -12.6533,0.11677c-0.37414,-0.07598 1.5915,-0.14007 1.46973,-0.22563c-1.49586,-1.05191 -17.46976,-2.64072 -25.28565,-3.08043c-2.02717,-0.11405 -4.32249,-0.16964 -6.59138,-0.19666c0.88761,-0.15387 -0.87021,-0.39428 -0.86955,-0.58906c0.00022,-0.06684 0.08403,-0.18034 0.15293,-0.29025z" data-paper-data="{&quot;noHover&quot;:false,&quot;origItem&quot;:[&quot;Path&quot;,{&quot;applyMatrix&quot;:true,&quot;segments&quot;:[[[607.563,601.99816],[0.02649,0.38155],[-0.10299,0.15484]],[[607.10872,602.39727],[0.1976,-0.11227],[-0.59254,0.60273]],[[605.61718,603],[0,0],[-7.618,0]],[[590.90604,613.89443],[2.69308,-5.58508],[-0.31682,0.63364]],[[590.61718,616],[0,-0.70843],[0,0.20156]],[[590.57685,616.85325],[0.02106,-0.33136],[0.02013,-0.10671]],[[590.74964,616.60263],[-0.10238,0.05628],[0.45234,-0.24865]],[[595.61718,617],[-0.48256,0.87548],[0.14503,-0.26312]],[[594.95308,616.3906],[-0.04725,0.29671],[0.58086,-3.64773]],[[604.72276,605.71115],[-3.02833,1.51416],[0.78545,-0.39273]],[[607.27135,605.03032],[-0.87898,0.0905],[-0.34365,-0.53523]],[[607.61718,603],[0,0.6759],[0,-0.23192]]],&quot;closed&quot;:true}],&quot;index&quot;:null}" fill="#ffffff" fill-rule="nonzero" stroke="none" stroke-width="0" stroke-linecap="butt"/><g><path d="M583.58896,224.25209c0.30548,0.30782 0.40835,0.63916 0.31172,0.99407c-2.54985,0.03601 -5.04361,-0.00087 -7.48125,-0.11043c2.39087,0 4.77864,0 7.16953,0c0,-0.29458 0,-0.58906 0,-0.88359z" data-paper-data="{&quot;index&quot;:null}" fill="#6b6b6b" fill-rule="evenodd" stroke="none" stroke-width="0" stroke-linecap="butt"/><path d="M594.1874,224.80434c0.2899,0.11798 0.39589,0.26518 0.31172,0.44181c-3.17329,0.03613 -6.29048,-0.00067 -9.35156,-0.11043c3.01432,0 6.02552,0 9.03984,0c0,-0.11043 0,-0.22091 0,-0.33135z" data-paper-data="{&quot;index&quot;:null}" fill="#9e9e9e" fill-rule="evenodd" stroke="none" stroke-width="0" stroke-linecap="butt"/><path d="M502.54206,225.24612c2.54674,0 5.04049,0.03687 7.48125,0.11043c-5.01244,-0.03502 -9.99995,0.00178 -14.96252,0.11043c2.38152,-0.14701 4.87528,-0.22068 7.48125,-0.22091z" data-paper-data="{&quot;index&quot;:null}" fill="#484848" fill-rule="evenodd" stroke="none" stroke-width="0" stroke-linecap="butt"/><path d="M83.28014,226.01927c3.79611,-0.03623 7.53673,0.00057 11.22188,0.11043c-3.81888,-0.06783 -7.5595,0.00584 -11.22188,0.22091c0,-0.11043 0,-0.22091 0,-0.33135z" data-paper-data="{&quot;index&quot;:null}" fill="#838383" fill-rule="evenodd" stroke="none" stroke-width="0" stroke-linecap="butt"/><path d="M23.86418,163.76227l1.47565,0.08713l164.59665,0.78428v5.75236l95.364,0.02179v11.11087l49.18839,0.95858l0.49189,-6.53579l91.55189,0.78428v6.53579l29.51303,0.08713v22.2871l15.00246,0.23965l140.2484,0.41392l-1.96753,36.77479l-3.44319,0.04359l-323.98511,1.56861l-0.24594,-3.49015l-257.6242,-0.10892v-1.96072v-74.72598z" fill="#ffe800" fill-rule="nonzero" stroke="#000000" stroke-width="1" stroke-linecap="round"/><path d="M140.93421,206.01842l29.28309,0.21367v26.97402l-30.69432,0.21367l0.35281,-27.38801z" fill="#928b78" fill-rule="nonzero" stroke="#000000" stroke-width="1" stroke-linecap="round"/><path d="M132.35772,233.74524l-50.56643,-0.48333l1.28832,-28.01917l48.95603,0.4296z" fill="#928b78" fill-rule="nonzero" stroke="#000000" stroke-width="1" stroke-linecap="round"/><path d="M74.69809,233.82878l-16.175,-0.52714l-1.4516,-27.01515l16.58974,-0.57985z" fill="#928b78" fill-rule="nonzero" stroke="#000000" stroke-width="1" stroke-linecap="round"/><path d="M189.82375,164.55286l2.01613,38.31621l-168.16349,-0.97413l0.54985,-37.86161z" fill="#38ff00" fill-rule="nonzero" stroke="#000000" stroke-width="1" stroke-linecap="round"/><path d="M189.13717,164.72087l-180.02951,-0.87145l-6.82489,-4.61864l192.94147,2.44002l16.23217,5.66437l104.09493,0.26144l-2.21348,3.39862l-105.01721,-0.78428l-18.69159,0.26144z" fill="#8b8471" fill-rule="nonzero" stroke="#000000" stroke-width="1" stroke-linecap="round"/><path d="M314.07569,175.67919l-2.21348,-1.91718l139.69503,0.43571l-6.64043,2.70146l-129.36547,-0.95858" fill="#8b8471" fill-rule="nonzero" stroke="#000000" stroke-width="1" stroke-linecap="round"/><path d="M283.087,179.51355l52.1397,0.43571l-0.84551,2.26575l-50.16685,-0.34857z" fill="#8b8471" fill-rule="nonzero" stroke="#000000" stroke-width="1" stroke-linecap="round"/><path d="M425.73335,181.16929l63.69896,-0.95858l-5.16478,3.13717l-58.04231,0.17427z" fill="#8b8471" fill-rule="nonzero" stroke="#000000" stroke-width="1" stroke-linecap="round"/><path d="M456.59904,203.17315l-171.91343,-0.59203v-17.76041h51.34039v10.25455l90.70547,0.43277l-1.12111,-8.8901l30.98869,0.50743z" fill="#262626" fill-rule="nonzero" stroke="#000000" stroke-width="1" stroke-linecap="round"/><path d="M279.64481,205.11207l-0.73782,-2.7886l356.43138,0.69715l-3.93507,3.22435l-174.98871,-0.52288z" fill="#8b8471" fill-rule="nonzero" stroke="#000000" stroke-width="1" stroke-linecap="round"/><path d="M426.59513,176.63777l1.22971,18.9974l-92.22823,-0.78428l-0.49189,-18.8231z" fill="#38ff00" fill-rule="nonzero" stroke="#000000" stroke-width="1" stroke-linecap="round"/><path d="M352.51246,179.34324l56.1736,-0.09732l1.09875,13.62612l-57.82173,-0.29198z" fill="#515a61" fill-rule="nonzero" stroke="#000000" stroke-width="1" stroke-linecap="round"/><path d="M212.04412,212.76372h59.05783l0.54937,28.55031l-62.90345,-0.19467l0.27469,-28.60264z" fill="#ff0000" fill-rule="nonzero" stroke="#000000" stroke-width="1" stroke-linecap="round"/><path d="M226.19052,212.67484h32.13844l0.82407,28.61482l-33.78657,-0.04868l0.13735,-28.82168z" fill="#2d0d0e" fill-rule="nonzero" stroke="#000000" stroke-width="1" stroke-linecap="round"/><path d="M271.17061,232.45704h228.86105v11.0104l-218.75429,1.25313l-0.13735,-3.6012l-9.47672,0.04868l-0.27469,-8.41899" fill="#807165" fill-rule="nonzero" stroke="#000000" stroke-width="1" stroke-linecap="round"/><path d="M46.78059,202.32145l0.27469,38.74924l-23.89782,0.29198l0.68672,-39.41838l22.93641,0.04868z" fill="#807165" fill-rule="nonzero" stroke="#000000" stroke-width="1" stroke-linecap="round"/><path d="M173.27421,202.52825h18.02637l0.17168,38.62761l-17.44266,0.06082z" fill="#807165" fill-rule="nonzero" stroke="#000000" stroke-width="1" stroke-linecap="round"/><path d="M298.53173,244.57453v-28.03086l173.05315,0.04868l0.27469,27.10621z" fill="#928b78" fill-rule="nonzero" stroke="#000000" stroke-width="1" stroke-linecap="round"/><path d="M304.54052,244.68407l-0.41203,-26.52225l160.17717,0.04868l0.41203,25.53678z" fill="#38ff00" fill-rule="nonzero" stroke="#000000" stroke-width="1" stroke-linecap="round"/><path d="M500.11805,243.74726l-0.96141,-26.8994l79.96841,0.09732l-0.96141,26.42493z" fill="#928b78" fill-rule="nonzero" stroke="#000000" stroke-width="1" stroke-linecap="round"/><path d="M502.38422,243.94189v-25.42728l68.91224,0.09732l-1.2361,24.80681z" fill="#38ff00" fill-rule="nonzero" stroke="#000000" stroke-width="1" stroke-linecap="round"/><path d="M301.66093,191.18094l-2.33484,1.45994l-4.25766,-0.04868l-11.26219,-7.59169l-126.90565,-0.63264l-4.25766,-2.67654l137.89315,0.24331z" fill="#8b8471" fill-rule="nonzero" stroke="#000000" stroke-width="1" stroke-linecap="round"/><path d="M140.55206,167.69651l1.64812,20.90147l-77.49622,-0.04868l-0.27469,-21.68013z" fill="#515a61" fill-rule="nonzero" stroke="#000000" stroke-width="1" stroke-linecap="round"/><path d="M128.63749,232.4084l-43.12595,-0.43797l1.09875,-25.39079l41.7525,0.38933z" fill="#515a61" fill-rule="nonzero" stroke="#000000" stroke-width="1" stroke-linecap="round"/><path d="M71.7219,232.74905l-10.71282,-0.48665l-0.9614,-24.94064l10.9875,-0.53532z" fill="#515a61" fill-rule="nonzero" stroke="#000000" stroke-width="1" stroke-linecap="round"/><path d="M144.01997,207.23659l22.79906,0.19467v24.57566l-23.89781,0.19467l0.27469,-24.95282z" fill="#515a61" fill-rule="nonzero" stroke="#000000" stroke-width="1" stroke-linecap="round"/></g><path d="M266.7374,188.69179c-0.06886,0.37477 0.00324,0.73316 0.21652,1.07502c-0.01299,0.0449 -0.08508,0.07243 -0.21652,0.08269c-0.28406,-0.39842 -0.28406,-0.78436 0,-1.15771z" data-paper-data="{&quot;index&quot;:null}" fill="#9e9e9e" fill-rule="evenodd" stroke="none" stroke-width="0" stroke-linecap="butt"/><path d="M241.93693,186.54013h5.67459v2.34581l-0.94576,-2.01064z" fill="#736d42" fill-rule="evenodd" stroke="none" stroke-width="0" stroke-linecap="butt"/><path d="M210.38099,190.77938c0.2303,0 0.42369,0.0141 0.58609,0.03779c2.53071,-1.18369 6.76151,-1.78605 10.81448,-1.76678c0.68051,0.00324 5.0493,0.14312 5.75233,0.33749c1.54118,0.42606 2.05379,1.22399 3.14937,1.81805c4.54198,2.46275 5.31977,5.00131 0.40807,7.47345c-3.45876,0.73832 -6.25406,1.39657 -10.36086,1.36301c-11.63946,-0.09512 -14.77262,-5.11543 -11.71253,-8.62437l-0.07372,-0.08989c0,0 0,-0.54874 1.43679,-0.54874zM211.44232,192.15024c-1.92196,2.75394 0.10682,6.74882 9.27893,6.79462c3.39694,0.01697 5.58728,-0.50897 8.48976,-1.09542c3.8961,-2.02154 2.73031,-4.06393 -0.87536,-6.0106c-0.91642,-0.49475 -1.22531,-1.17678 -2.46377,-1.55564c-1.08144,-0.33081 -2.75641,-0.12261 -4.14159,-0.13547c-3.39953,-0.03155 -7.58619,0.54302 -9.17377,1.71034c0,0 -0.39092,0.26875 -1.1142,0.29217z" data-paper-data="{&quot;index&quot;:null}" fill="#75dbff" fill-rule="nonzero" stroke="none" stroke-width="0" stroke-linecap="butt"/><path d="M212.51175,191.84427c1.58757,-1.16732 5.82161,-1.75004 9.22113,-1.71849c1.38519,0.01285 3.07981,-0.19369 4.16125,0.13717c1.23847,0.37885 1.56604,1.06571 2.48244,1.56046c3.60566,1.94667 4.76937,4.02066 0.8733,6.0422c-2.9025,0.58646 -5.13411,1.11816 -8.53104,1.10119c-9.17211,-0.04584 -11.24699,-4.07438 -9.32505,-6.82832c0.72328,-0.02345 1.11795,-0.29416 1.11795,-0.29416z" data-paper-data="{&quot;noHover&quot;:false,&quot;origItem&quot;:[&quot;Path&quot;,{&quot;applyMatrix&quot;:true,&quot;segments&quot;:[[[409.4867,271.35519],[1.25852,-0.10678],[-3.34423,12.54639]],[[425.63199,302.31001],[-15.95943,-0.20878],[5.91067,0.07732]],[[440.40413,297.31952],[-5.05034,2.67171],[6.7792,-9.20965]],[[438.881,269.93654],[6.27385,8.86861],[-1.59451,-2.25397]],[[434.59405,262.84941],[2.15492,1.72602],[-1.88172,-1.50719]],[[427.3877,262.23225],[2.4102,0.05859],[-5.91515,-0.1438]],[[411.4254,270.0241],[2.76238,-5.31806],[0,0]]],&quot;closed&quot;:true}],&quot;index&quot;:null}" fill="#ff0000" fill-rule="nonzero" stroke="none" stroke-width="0" stroke-linecap="butt"/><path d="M245.01954,190.46709c3.84852,-0.51142 8.09747,0.05501 11.98494,0.59711c0.91883,0.12811 4.11387,0.49777 4.83263,0.88186c1.73039,0.92465 1.55353,2.43489 1.86624,3.50961c0.29339,1.00836 0.87652,1.98987 -0.91547,2.87818c-3.13895,1.55601 -7.87289,2.11463 -12.60766,2.59566c-2.18712,0.09961 -4.14864,0.36095 -6.1682,-0.20375c-1.21965,-0.34104 -2.41076,-1.47906 -2.99129,-1.9763c-1.9755,-1.69204 -5.16204,-3.91143 -3.48967,-5.84693c0.56682,-0.65598 3.45026,-1.43407 4.44459,-2.02263l1.7368,-0.38394c0,0 0.67433,-0.14146 1.30712,-0.02888zM243.49734,191.88193c-0.98323,0.40498 -3.13818,1.18904 -3.25471,1.38386c-1.04127,1.74076 1.64864,3.52413 3.40689,5.04036c0.13897,0.11986 1.4949,1.35776 2.06621,1.53573c0.92941,0.28953 3.15207,0.0509 3.91093,0.0106c4.20496,-0.42945 7.93205,-0.88446 10.87651,-2.18435c1.22934,-0.54272 0.52019,-1.49093 0.34432,-2.09088c-0.24066,-0.82108 0.00429,-2.20698 -1.23263,-2.93546c-0.70184,-0.41335 -2.38357,-0.37784 -3.59544,-0.54664c-3.45236,-0.48084 -8.2376,-1.25697 -11.46988,-0.32053c0,0 -0.48436,0.13215 -1.05224,0.10723z" data-paper-data="{&quot;index&quot;:null}" fill="#75dbff" fill-rule="nonzero" stroke="none" stroke-width="0" stroke-linecap="butt"/><path d="M244.52013,191.75581c3.23228,-0.93646 8.07575,-0.16047 11.52812,0.32041c1.21186,0.1688 2.90793,0.13781 3.6098,0.55116c1.2369,0.72848 1.00622,2.1284 1.24689,2.94948c0.17584,0.59995 0.87832,1.55891 -0.35105,2.10163c-2.94446,1.29984 -6.7274,1.76644 -10.93239,2.19589c-0.75885,0.04031 -2.99985,0.27712 -3.92924,-0.01244c-0.5713,-0.17801 -1.94448,-1.42042 -2.0835,-1.54028c-1.75824,-1.51623 -4.45661,-3.32645 -3.41535,-5.06721c0.11653,-0.19482 2.2871,-0.98535 3.27032,-1.39033c0.56787,0.02489 1.05636,-0.10829 1.05636,-0.10829z" data-paper-data="{&quot;noHover&quot;:false,&quot;origItem&quot;:[&quot;Path&quot;,{&quot;applyMatrix&quot;:true,&quot;segments&quot;:[[[465.26223,270.13291],[0.98811,0.11339],[-1.71083,1.84504]],[[459.59907,276.43751],[0.20277,-0.88758],[-1.81178,7.93053]],[[465.52703,299.40029],[-3.05933,-6.90758],[0.24182,0.54599]],[[469.12222,306.39679],[-0.99407,-0.81085],[1.61715,1.31908]],[[475.92722,306.44514],[-1.32039,0.18358],[7.31661,-1.95648]],[[494.85229,296.49376],[-5.12332,5.92193],[2.13908,-2.47252]],[[495.45142,286.96818],[0.30597,2.73324],[-0.41874,-3.7406]],[[493.30665,273.59497],[2.15221,3.31878],[-1.22123,-1.88318]],[[487.05062,271.1046],[2.10865,0.76899],[-6.0071,-2.19068]],[[467.0931,269.64433],[5.62415,-4.26625],[0,0]]],&quot;closed&quot;:true}],&quot;index&quot;:null}" fill="#ff0000" fill-rule="nonzero" stroke="none" stroke-width="0" stroke-linecap="butt"/><path d="M227.49907,194.81508c0,-0.48492 1.02922,-0.87802 2.29886,-0.87802c1.26963,0 2.29886,0.3931 2.29886,0.87802c0,0.48492 -1.02923,0.87802 -2.29886,0.87802c-1.26963,0 -2.29886,-0.3931 -2.29886,-0.87802z" data-paper-data="{&quot;index&quot;:null}" fill="#ff0000" fill-rule="nonzero" stroke="none" stroke-width="0" stroke-linecap="butt"/><path d="M256.87772,195.66976c0,-0.48492 1.02922,-0.87802 2.29886,-0.87802c1.26963,0 2.29886,0.3931 2.29886,0.87802c0,0.48492 -1.02923,0.87802 -2.29886,0.87802c-1.26963,0 -2.29886,-0.3931 -2.29886,-0.87802z" data-paper-data="{&quot;index&quot;:null}" fill="#ff0000" fill-rule="nonzero" stroke="none" stroke-width="0" stroke-linecap="butt"/><path d="M184.59694,174.7537c0.63758,-0.36528 1.59397,-0.12175 1.59397,-0.12175l0.46863,0.11934c5.08723,1.29533 9.93164,2.68024 14.79435,4.09528c10.70547,3.11523 22.50179,5.8947 32.03877,9.53718c0,0 0.81277,0.31042 0,0.62083c-0.81277,0.31042 -1.62554,0 -1.62554,0c-9.4608,-3.61338 -21.18593,-6.3691 -31.80643,-9.45962c-4.82446,-1.40391 -9.62926,-2.77804 -14.67633,-4.06311l-0.46862,-0.11934c0,0 -0.95639,-0.24349 -0.3188,-0.60877z" data-paper-data="{&quot;index&quot;:null}" fill="#75dbff" fill-rule="nonzero" stroke="none" stroke-width="0" stroke-linecap="butt"/><path d="M293.74984,169.44489c0.9742,0.23297 0.36424,0.60508 0.36424,0.60508l-0.6537,0.3971c-6.33538,2.96211 -13.97532,5.33754 -20.86271,8.08776c-9.46756,3.78052 -18.69518,7.78809 -29.05475,11.19507c0,0 -0.87272,0.28569 -1.62074,-0.04762c-0.74803,-0.33331 0.12467,-0.619 0.12467,-0.619c10.33337,-3.3657 19.48516,-7.38001 28.88952,-11.13531c6.81246,-2.72031 14.37909,-5.06766 20.65648,-7.99286l0.57281,-0.35107c0,0 0.60998,-0.37207 1.58423,-0.13908z" data-paper-data="{&quot;index&quot;:null}" fill="#75dbff" fill-rule="nonzero" stroke="none" stroke-width="0" stroke-linecap="butt"/><path d="M201.44566,200.68098c-0.14647,-0.03809 -0.26958,-0.10213 -0.26958,-0.20983c0,-0.26573 0.75,-0.26573 0.75,-0.26573l1.02909,0.26573c0,1.34407 -1.06045,2.40557 -1.8238,3.70157c-0.90828,1.54202 1.29971,3.31612 3.95633,4.45998c2.14412,0.53849 4.37366,0.65176 6.75419,0.98762c6.36138,0.89755 12.10192,0.97416 18.8348,1.21626c9.49173,-0.00218 20.24092,0.04279 28.74321,-1.67946c8.09985,-1.63169 6.6588,-5.03637 5.53708,-7.8078c0,0 -0.10607,-0.26306 0.63639,-0.30065c0.74246,-0.03759 0.84853,0.22551 0.84853,0.22551c1.21306,3.0212 2.44753,6.56957 -6.2778,8.34441c-8.76097,1.77304 -19.77932,1.75094 -29.56275,1.74883c-6.89883,-0.24493 -12.81101,-0.33908 -19.33349,-1.25603c-2.55417,-0.35909 -4.89917,-0.50312 -7.2006,-1.08909c-3.05011,-1.28342 -5.34133,-3.19919 -4.41654,-4.93467c0.64138,-1.20363 1.68468,-2.18846 1.79493,-3.4066z" fill="#75dbff" fill-rule="nonzero" stroke="none" stroke-width="0.5" stroke-linecap="butt"/></g></g></g></svg>