<svg version="1.1" xmlns="http://www.w3.org/2000/svg" xmlns:xlink="http://www.w3.org/1999/xlink" width="2878.25006" height="1619.57958" viewBox="0,0,2878.25006,1619.57958"><g transform="translate(1117.37278,629.80931)"><g data-paper-data="{&quot;isPaintingLayer&quot;:true}" stroke-linejoin="miter" stroke-miterlimit="10" stroke-dasharray="" stroke-dashoffset="0" style="mix-blend-mode: normal"><path d="M-1117.37278,989.77027v-1619.57958h2878.25006v1619.57958z" fill="none" fill-rule="nonzero" stroke="#000000" stroke-width="0" stroke-linecap="butt"/><g><path d="M371.77626,227.30616l-19.76914,-5.47068l93.69715,0.03164l33.57674,5.41975z" data-paper-data="{&quot;index&quot;:null}" fill="#cedce9" fill-rule="nonzero" stroke="#000000" stroke-width="0" stroke-linecap="round"/><path d="M488.1911,227.00079c-2.53537,0.06046 -5.02815,0.09524 -7.49601,0.12044c0.01679,0.00921 0.02551,0.01882 0.02559,0.02886c0.00194,0.24432 -5.1608,0.24525 -5.1608,0.24525c-22.80221,0.00409 -45.60433,0.00818 -68.40647,0.01227c-5.86765,0.00105 -20.46882,-0.10717 -24.79534,0.03973c-2.49217,0.08462 -4.27685,0.07661 -7.47097,0.08821c-0.36051,0.00131 -1.01625,0.0041 -1.59566,0.00583c3.08953,0.10379 1.60419,1.06841 1.60635,1.33796c0.00908,1.14019 0.01812,2.28037 0.0272,3.42056c0.0016,0.20361 0.00322,0.40721 0.00485,0.61082c0.00065,0.08144 -0.90552,0.31368 0.00194,0.24433c3.45256,-0.26383 10.19566,-0.12352 18.06866,-0.1254c15.51938,-0.00372 32.13396,-0.08524 47.37744,0.04416c27.83585,0.25845 57.75828,-0.16782 85.37226,0.12075c23.25749,0.27097 51.09544,0.29077 75.05495,0.28647c6.02327,-0.00108 12.04642,-0.00216 18.06966,-0.00324c0.90625,-0.00016 2.32912,-0.00619 3.80233,-0.01279c-1.48298,-0.12507 0.06626,-0.42845 0.06491,-0.59872c-0.00505,-0.63611 4.49192,-1.73421 -1.04401,-2.30473c-4.89362,-0.6931 -7.99102,-1.36071 -15.97006,-2.05139c-5.88716,-0.50961 -15.04909,-0.96063 -19.9208,-1.46702c-2.3623,-0.3019 -4.47318,-0.08545 -12.15878,-0.15404c-17.00624,-0.15177 -34.0612,-0.11605 -51.62851,-0.1129c-6.4034,0.00115 -14.44505,0.06412 -20.65104,0.0037c-1.31004,-0.01275 -3.77221,-0.06059 -5.6178,-0.0998c3.37603,0.1228 -4.32441,0.24355 -7.55991,0.3207zM407.1492,226.91897c17.23319,-0.00309 34.46634,-0.00618 51.69948,-0.00927c0.49704,-0.01185 0.99398,-0.0237 1.49101,-0.03556c6.54685,-0.15612 12.45893,-0.11612 18.06825,-0.18648c7.64435,-0.0959 12.21475,-0.41507 20.10212,-0.49226c4.53093,-0.04435 17.08239,0.0933 23.50567,0.09215c17.41699,-0.00312 34.81452,-0.05338 51.62851,0.1129c9.44543,0.09341 17.42579,-0.09343 21.84711,0.47163c0.65281,0.21484 5.86528,0.34824 8.59232,0.51311c4.16756,0.25195 7.65219,0.62558 10.87776,0.90478c7.99617,0.69216 11.5153,1.40492 16.53092,2.1153c4.48318,0.74895 1.56901,1.67919 1.5752,2.45916c0.00344,0.43121 1.44189,0.73488 -5.15399,1.10039c-2.30007,0.12746 -23.55962,0.00422 -27.10445,0.00486c-24.71307,0.00444 -53.58879,-0.02134 -77.5594,-0.30061c-26.33426,-0.35952 -57.67394,0.137 -84.8929,-0.11573c-21.93438,-0.22986 -55.78304,0.39901 -73.75043,-0.39643c-1.77886,-0.07876 -0.00578,-0.72494 -0.00681,-0.85514c-0.00908,-1.14019 -0.01812,-2.28037 -0.0272,-3.42056c-0.00301,-0.3812 -3.56112,-1.29072 1.82327,-1.57555c9.39607,-0.49706 26.98922,-0.38423 40.75383,-0.38669z" data-paper-data="{&quot;index&quot;:null}" fill="#000000" fill-rule="nonzero" stroke="none" stroke-width="0" stroke-linecap="butt"/><path d="M480.62287,227.1095c2.46783,-0.02519 4.99065,-0.0603 7.52614,-0.12077c3.23549,-0.07715 10.96657,-0.19806 7.59043,-0.32085c1.84557,0.03921 4.3283,0.08704 5.63821,0.09979c6.206,0.06042 14.31973,-0.00196 20.72296,-0.0031c17.56722,-0.00315 34.73294,-0.03546 51.73914,0.11631c7.68559,0.06859 9.81249,-0.14694 12.17477,0.15497c4.87175,0.50639 14.0724,0.96104 19.95963,1.47065c7.97906,0.69067 11.08711,1.36293 15.98073,2.05603c5.53599,0.57052 1.01478,1.67285 1.01984,2.30896c0.00134,0.17028 -1.55753,0.47452 -0.07451,0.59959c-1.47309,0.0066 -2.89793,0.01278 -3.80425,0.01295c-6.02325,0.00108 -12.05696,0.00293 -18.0802,0.00401c-23.95963,0.0043 -51.91057,-0.01123 -75.16808,-0.2822c-27.61399,-0.28857 -57.80997,0.13538 -85.64586,-0.12307c-15.24347,-0.1294 -31.90507,-0.05065 -47.42446,-0.04694c-7.87299,0.00189 -14.62221,-0.13894 -18.07478,0.12488c-0.90746,0.06934 -0.00517,-0.16324 -0.00583,-0.24469c-0.00162,-0.2036 -0.01208,-0.4082 -0.01371,-0.6118c-0.00904,-1.14019 -0.02892,-2.28715 -0.038,-3.42734c-0.00216,-0.26955 1.49884,-1.2365 -1.59071,-1.3403c0.57949,-0.00174 1.2357,-0.00459 1.59627,-0.0059c3.19401,-0.0116 4.98276,-0.004 7.47484,-0.08862c4.32652,-0.1469 18.94091,-0.03982 24.80854,-0.04087c22.80227,-0.00409 45.7259,-0.01306 68.52805,-0.01715c0,0 5.18809,-0.00135 5.18615,-0.24567c-0.00008,-0.01003 -0.0082,-0.01965 -0.025,-0.02886z" data-paper-data="{&quot;noHover&quot;:false,&quot;origItem&quot;:[&quot;Path&quot;,{&quot;applyMatrix&quot;:true,&quot;segments&quot;:[[[579.60736,595.76373],[0.95609,-0.20262],[0.00646,0.07548]],[[579.61718,596],[0,-0.08208],[0,2]],[[577.61718,598],[0,0],[-8.83333,0]],[[551.11718,598],[8.83333,0],[-2.27308,0]],[[541.51161,598.28885],[1.67648,-1.19621],[-0.96568,0.68904]],[[538.61718,599],[1.23739,-0.09027],[-0.13966,0.01019]],[[537.99901,599.04541],[0.22447,-0.0134],[1.19653,0.85421]],[[538.61718,610],[0,-2.20646],[0,9.33333]],[[538.61718,638],[0,-9.33333],[0,1.66667]],[[538.61718,643],[0,-1.66667],[0,0.66667]],[[538.61718,645],[-0.35177,0.56631],[1.33831,-2.15456]],[[545.61718,644],[-3.04994,0.00386],[6.01206,-0.00761]],[[563.97058,644.43107],[-5.90478,-1.08158],[10.78253,2.15651]],[[597.04254,645.54479],[-10.6965,-2.40266],[9.00888,2.25222]],[[626.11718,648],[-9.28168,0],[2.33333,0]],[[633.11718,648],[-2.33333,0],[0.35109,0]],[[634.59021,647.90091],[-0.5707,0.05184],[-0.57412,-1.02596]],[[634.61718,643],[0,1.39387],[0,-5.20707]],[[634.21982,624.13246],[2.14282,4.67827],[-1.8936,-5.6808]],[[628.03948,607.31672],[3.08887,5.66543],[-2.2791,-4.1802]],[[620.32688,595.27881],[1.8857,4.15235],[-0.91417,-2.47477]],[[615.61718,594],[2.9771,0.57275],[-6.58756,-1.26734]],[[595.61718,593],[6.8054,0],[-2.48058,0]],[[587.61718,593],[2.40395,0.50364],[-0.50743,-0.10631]],[[585.44122,592.1748],[0.71481,0.32365],[1.30749,1.01011]],[[582.51161,594.78885],[1.25365,-0.62682],[-0.98239,0.4912]]],&quot;closed&quot;:true}],&quot;index&quot;:null}" fill="#c9c9c9" fill-rule="nonzero" stroke="none" stroke-width="0" stroke-linecap="butt"/><path d="M553.00602,227.99226c-0.00023,-0.02833 -0.0721,-0.07576 -0.14082,-0.12236c-0.26581,0.01896 -0.66232,0.03516 -1.17233,0.04896c-1.52905,0.07391 -3.84966,0.07432 -3.84966,0.07432c-19.66498,0.00353 -31.018,0.65417 -37.9644,1.33771c-0.81722,0.07756 -0.74424,0.17081 -0.74355,0.25735c0.00019,0.02463 -0.04928,0.06377 -0.10333,0.10425c0.05187,-0.01304 0.18162,-0.02377 0.44583,-0.0307c1.16745,-0.03058 11.32048,0.15347 12.5653,0.04629c0.37411,-0.03221 -1.83653,-0.03787 -1.71489,-0.07414c1.49592,-0.44589 17.39306,-1.12277 25.20886,-1.30916c2.02712,-0.04834 4.30933,-0.07289 6.5782,-0.08435c-0.88762,-0.06522 0.89142,-0.16561 0.89075,-0.24819zM509.00481,229.71273c-0.11636,0.08688 -0.21964,0.16993 0.1323,0.11984c0.24055,-0.03422 -0.1075,-0.08215 -0.1323,-0.11984zM500.64169,229.11402c7.37339,-0.65962 17.18205,-1.26161 32.47316,-1.5006c1.43576,-0.1065 4.39899,-0.10704 4.39899,-0.10704l2.58133,-0.00046c5.84505,-0.00105 8.93666,-0.09797 15.21502,-0.09909c8.71911,-0.00156 10.7468,0.81857 6.18928,1.05967c-2.87593,0.15214 -7.49058,0.20272 -11.34132,0.29455c-11.39829,0.27181 -15.62223,1.04776 -28.11122,1.43571c-13.23673,0.41117 -27.82001,-0.47397 -21.40526,-1.08273z" data-paper-data="{&quot;index&quot;:null}" fill="#000000" fill-rule="nonzero" stroke="none" stroke-width="0" stroke-linecap="butt"/><path d="M553.05695,227.86168c0.0689,0.0466 0.15272,0.0947 0.15293,0.12304c0.00065,0.08257 -1.75717,0.18446 -0.86956,0.2497c-2.2689,0.01147 -4.56421,0.03502 -6.59138,0.08336c-7.81589,0.18638 -23.78979,0.85986 -25.28565,1.30575c-0.12176,0.03627 1.84386,0.06343 1.46973,0.09564c-1.24485,0.10717 -11.48582,-0.08007 -12.6533,-0.04949c-0.2643,0.00692 -0.39279,0.01771 -0.44459,0.03076c0.05405,-0.04049 0.09394,-0.08019 0.09375,-0.10481c-0.00068,-0.08654 -0.09624,-0.18149 0.72101,-0.25905c6.94633,-0.68354 18.70926,-1.3486 38.37421,-1.35213c0,0 2.33114,0.0001 3.86018,-0.0738c0.51004,-0.01381 0.90682,-0.03 1.17243,-0.04896z" data-paper-data="{&quot;noHover&quot;:false,&quot;origItem&quot;:[&quot;Path&quot;,{&quot;applyMatrix&quot;:true,&quot;segments&quot;:[[[607.563,601.99816],[0.02649,0.38155],[-0.10299,0.15484]],[[607.10872,602.39727],[0.1976,-0.11227],[-0.59254,0.60273]],[[605.61718,603],[0,0],[-7.618,0]],[[590.90604,613.89443],[2.69308,-5.58508],[-0.31682,0.63364]],[[590.61718,616],[0,-0.70843],[0,0.20156]],[[590.57685,616.85325],[0.02106,-0.33136],[0.02013,-0.10671]],[[590.74964,616.60263],[-0.10238,0.05628],[0.45234,-0.24865]],[[595.61718,617],[-0.48256,0.87548],[0.14503,-0.26312]],[[594.95308,616.3906],[-0.04725,0.29671],[0.58086,-3.64773]],[[604.72276,605.71115],[-3.02833,1.51416],[0.78545,-0.39273]],[[607.27135,605.03032],[-0.87898,0.0905],[-0.34365,-0.53523]],[[607.61718,603],[0,0.6759],[0,-0.23192]]],&quot;closed&quot;:true}],&quot;index&quot;:null}" fill="#ffffff" fill-rule="nonzero" stroke="none" stroke-width="0" stroke-linecap="butt"/><path d="M371.77627,227.30616l-19.76914,-5.47068l93.69715,0.03164l33.57674,5.41975z" data-paper-data="{&quot;index&quot;:null}" fill="#cedce9" fill-rule="nonzero" stroke="#000000" stroke-width="0" stroke-linecap="round"/><path d="M488.1911,227.00079c-2.53537,0.06046 -5.02815,0.09524 -7.49601,0.12044c0.01679,0.00921 0.02551,0.01882 0.02559,0.02886c0.00194,0.24432 -5.1608,0.24525 -5.1608,0.24525c-22.80221,0.00409 -45.60433,0.00818 -68.40647,0.01227c-5.86765,0.00105 -20.46882,-0.10717 -24.79534,0.03973c-2.49217,0.08462 -4.27685,0.07661 -7.47097,0.08821c-0.36051,0.00131 -1.01625,0.0041 -1.59566,0.00583c3.08953,0.10379 1.60419,1.06841 1.60635,1.33796c0.00908,1.14019 0.01812,2.28037 0.0272,3.42056c0.0016,0.20361 0.00322,0.40721 0.00485,0.61082c0.00065,0.08144 -0.90552,0.31368 0.00194,0.24433c3.45256,-0.26383 10.19566,-0.12352 18.06866,-0.1254c15.51938,-0.00372 32.13396,-0.08524 47.37744,0.04416c27.83585,0.25845 57.75828,-0.16782 85.37226,0.12075c23.25749,0.27097 51.09544,0.29077 75.05495,0.28647c6.02327,-0.00108 12.04642,-0.00216 18.06966,-0.00324c0.90625,-0.00016 2.32912,-0.00619 3.80233,-0.01279c-1.48298,-0.12507 0.06626,-0.42845 0.06491,-0.59872c-0.00505,-0.63611 4.49192,-1.73421 -1.04401,-2.30473c-4.89362,-0.6931 -7.99102,-1.36071 -15.97006,-2.05139c-5.88716,-0.50961 -15.04909,-0.96063 -19.9208,-1.46702c-2.3623,-0.3019 -4.47318,-0.08545 -12.15878,-0.15404c-17.00624,-0.15177 -34.0612,-0.11605 -51.62851,-0.1129c-6.4034,0.00115 -14.44505,0.06412 -20.65104,0.0037c-1.31004,-0.01275 -3.77221,-0.06059 -5.6178,-0.0998c3.37603,0.1228 -4.32441,0.24355 -7.55991,0.3207zM407.14921,226.91897c17.23319,-0.00309 34.46634,-0.00618 51.69948,-0.00927c0.49704,-0.01185 0.99398,-0.0237 1.49101,-0.03556c6.54685,-0.15612 12.45893,-0.11612 18.06825,-0.18648c7.64435,-0.0959 12.21475,-0.41507 20.10212,-0.49226c4.53093,-0.04435 17.08239,0.0933 23.50567,0.09215c17.41699,-0.00312 34.81452,-0.05338 51.62851,0.1129c9.44543,0.09341 17.42579,-0.09343 21.84711,0.47163c0.65281,0.21484 5.86528,0.34824 8.59232,0.51311c4.16756,0.25195 7.65219,0.62558 10.87776,0.90478c7.99617,0.69216 11.5153,1.40492 16.53092,2.1153c4.48318,0.74895 1.56901,1.67919 1.5752,2.45916c0.00344,0.43121 1.44189,0.73488 -5.15399,1.10039c-2.30007,0.12746 -23.55962,0.00422 -27.10445,0.00486c-24.71307,0.00444 -53.58879,-0.02134 -77.5594,-0.30061c-26.33426,-0.35952 -57.67394,0.137 -84.8929,-0.11573c-21.93438,-0.22986 -55.78304,0.39901 -73.75043,-0.39643c-1.77886,-0.07876 -0.00578,-0.72494 -0.00681,-0.85514c-0.00908,-1.14019 -0.01812,-2.28037 -0.0272,-3.42056c-0.00301,-0.3812 -3.56112,-1.29072 1.82327,-1.57555c9.39607,-0.49706 26.98922,-0.38423 40.75383,-0.38669z" data-paper-data="{&quot;index&quot;:null}" fill="#000000" fill-rule="nonzero" stroke="none" stroke-width="0" stroke-linecap="butt"/><path d="M480.62287,227.1095c2.46783,-0.02519 4.99065,-0.0603 7.52614,-0.12077c3.23549,-0.07715 10.96657,-0.19806 7.59043,-0.32085c1.84557,0.03921 4.3283,0.08704 5.63821,0.09979c6.206,0.06042 14.31973,-0.00196 20.72296,-0.0031c17.56722,-0.00315 34.73294,-0.03546 51.73914,0.11631c7.68559,0.06859 9.81249,-0.14694 12.17477,0.15497c4.87175,0.50639 14.0724,0.96104 19.95963,1.47065c7.97906,0.69067 11.08711,1.36293 15.98073,2.05603c5.53599,0.57052 1.01478,1.67285 1.01984,2.30896c0.00134,0.17028 -1.55753,0.47452 -0.07451,0.59959c-1.47309,0.0066 -2.89793,0.01278 -3.80425,0.01295c-6.02325,0.00108 -12.05696,0.00293 -18.0802,0.00401c-23.95963,0.0043 -51.91057,-0.01123 -75.16808,-0.2822c-27.61399,-0.28857 -57.80997,0.13538 -85.64586,-0.12307c-15.24347,-0.1294 -31.90507,-0.05065 -47.42446,-0.04694c-7.87299,0.00189 -14.62221,-0.13894 -18.07478,0.12488c-0.90746,0.06934 -0.00517,-0.16324 -0.00583,-0.24469c-0.00162,-0.2036 -0.01208,-0.4082 -0.01371,-0.6118c-0.00904,-1.14019 -0.02892,-2.28715 -0.038,-3.42734c-0.00216,-0.26955 1.49884,-1.2365 -1.59071,-1.3403c0.57949,-0.00174 1.2357,-0.00459 1.59627,-0.0059c3.19401,-0.0116 4.98276,-0.004 7.47484,-0.08862c4.32652,-0.1469 18.94091,-0.03982 24.80854,-0.04087c22.80227,-0.00409 45.7259,-0.01306 68.52805,-0.01715c0,0 5.18809,-0.00135 5.18615,-0.24567c-0.00008,-0.01003 -0.0082,-0.01965 -0.025,-0.02886z" data-paper-data="{&quot;noHover&quot;:false,&quot;origItem&quot;:[&quot;Path&quot;,{&quot;applyMatrix&quot;:true,&quot;segments&quot;:[[[579.60736,595.76373],[0.95609,-0.20262],[0.00646,0.07548]],[[579.61718,596],[0,-0.08208],[0,2]],[[577.61718,598],[0,0],[-8.83333,0]],[[551.11718,598],[8.83333,0],[-2.27308,0]],[[541.51161,598.28885],[1.67648,-1.19621],[-0.96568,0.68904]],[[538.61718,599],[1.23739,-0.09027],[-0.13966,0.01019]],[[537.99901,599.04541],[0.22447,-0.0134],[1.19653,0.85421]],[[538.61718,610],[0,-2.20646],[0,9.33333]],[[538.61718,638],[0,-9.33333],[0,1.66667]],[[538.61718,643],[0,-1.66667],[0,0.66667]],[[538.61718,645],[-0.35177,0.56631],[1.33831,-2.15456]],[[545.61718,644],[-3.04994,0.00386],[6.01206,-0.00761]],[[563.97058,644.43107],[-5.90478,-1.08158],[10.78253,2.15651]],[[597.04254,645.54479],[-10.6965,-2.40266],[9.00888,2.25222]],[[626.11718,648],[-9.28168,0],[2.33333,0]],[[633.11718,648],[-2.33333,0],[0.35109,0]],[[634.59021,647.90091],[-0.5707,0.05184],[-0.57412,-1.02596]],[[634.61718,643],[0,1.39387],[0,-5.20707]],[[634.21982,624.13246],[2.14282,4.67827],[-1.8936,-5.6808]],[[628.03948,607.31672],[3.08887,5.66543],[-2.2791,-4.1802]],[[620.32688,595.27881],[1.8857,4.15235],[-0.91417,-2.47477]],[[615.61718,594],[2.9771,0.57275],[-6.58756,-1.26734]],[[595.61718,593],[6.8054,0],[-2.48058,0]],[[587.61718,593],[2.40395,0.50364],[-0.50743,-0.10631]],[[585.44122,592.1748],[0.71481,0.32365],[1.30749,1.01011]],[[582.51161,594.78885],[1.25365,-0.62682],[-0.98239,0.4912]]],&quot;closed&quot;:true}],&quot;index&quot;:null}" fill="#c9c9c9" fill-rule="nonzero" stroke="none" stroke-width="0" stroke-linecap="butt"/><path d="M553.00603,227.99226c-0.00023,-0.02833 -0.0721,-0.07576 -0.14082,-0.12236c-0.26581,0.01896 -0.66232,0.03516 -1.17233,0.04896c-1.52905,0.07391 -3.84966,0.07432 -3.84966,0.07432c-19.66498,0.00353 -31.018,0.65417 -37.9644,1.33771c-0.81722,0.07756 -0.74424,0.17081 -0.74355,0.25735c0.00019,0.02463 -0.04928,0.06377 -0.10333,0.10425c0.05187,-0.01304 0.18162,-0.02377 0.44583,-0.0307c1.16745,-0.03058 11.32048,0.15347 12.5653,0.04629c0.37411,-0.03221 -1.83653,-0.03787 -1.71489,-0.07414c1.49592,-0.44589 17.39306,-1.12277 25.20886,-1.30916c2.02712,-0.04834 4.30933,-0.07289 6.5782,-0.08435c-0.88762,-0.06522 0.89142,-0.16561 0.89075,-0.24819zM509.00481,229.71273c-0.11636,0.08688 -0.21964,0.16993 0.1323,0.11984c0.24055,-0.03422 -0.1075,-0.08215 -0.1323,-0.11984zM500.64169,229.11402c7.37339,-0.65962 17.18205,-1.26161 32.47316,-1.5006c1.43576,-0.1065 4.39899,-0.10704 4.39899,-0.10704l2.58133,-0.00046c5.84505,-0.00105 8.93666,-0.09797 15.21502,-0.09909c8.71911,-0.00156 10.7468,0.81857 6.18928,1.05967c-2.87593,0.15214 -7.49058,0.20272 -11.34132,0.29455c-11.39829,0.27181 -15.62223,1.04776 -28.11122,1.43571c-13.23673,0.41117 -27.82001,-0.47397 -21.40526,-1.08273z" data-paper-data="{&quot;index&quot;:null}" fill="#000000" fill-rule="nonzero" stroke="none" stroke-width="0" stroke-linecap="butt"/><path d="M553.05695,227.86168c0.0689,0.0466 0.15272,0.0947 0.15293,0.12304c0.00065,0.08257 -1.75717,0.18446 -0.86956,0.2497c-2.2689,0.01147 -4.56421,0.03502 -6.59138,0.08336c-7.81589,0.18638 -23.78979,0.85986 -25.28565,1.30575c-0.12176,0.03627 1.84386,0.06343 1.46973,0.09564c-1.24485,0.10717 -11.48582,-0.08007 -12.6533,-0.04949c-0.2643,0.00692 -0.39279,0.01771 -0.44459,0.03076c0.05405,-0.04049 0.09394,-0.08019 0.09375,-0.10481c-0.00068,-0.08654 -0.09624,-0.18149 0.72101,-0.25905c6.94633,-0.68354 18.70926,-1.3486 38.37421,-1.35213c0,0 2.33114,0.0001 3.86018,-0.0738c0.51004,-0.01381 0.90682,-0.03 1.17243,-0.04896z" data-paper-data="{&quot;noHover&quot;:false,&quot;origItem&quot;:[&quot;Path&quot;,{&quot;applyMatrix&quot;:true,&quot;segments&quot;:[[[607.563,601.99816],[0.02649,0.38155],[-0.10299,0.15484]],[[607.10872,602.39727],[0.1976,-0.11227],[-0.59254,0.60273]],[[605.61718,603],[0,0],[-7.618,0]],[[590.90604,613.89443],[2.69308,-5.58508],[-0.31682,0.63364]],[[590.61718,616],[0,-0.70843],[0,0.20156]],[[590.57685,616.85325],[0.02106,-0.33136],[0.02013,-0.10671]],[[590.74964,616.60263],[-0.10238,0.05628],[0.45234,-0.24865]],[[595.61718,617],[-0.48256,0.87548],[0.14503,-0.26312]],[[594.95308,616.3906],[-0.04725,0.29671],[0.58086,-3.64773]],[[604.72276,605.71115],[-3.02833,1.51416],[0.78545,-0.39273]],[[607.27135,605.03032],[-0.87898,0.0905],[-0.34365,-0.53523]],[[607.61718,603],[0,0.6759],[0,-0.23192]]],&quot;closed&quot;:true}],&quot;index&quot;:null}" fill="#ffffff" fill-rule="nonzero" stroke="none" stroke-width="0" stroke-linecap="butt"/><path d="M164.71899,226.98648l33.57675,-5.41975l93.69714,-0.03164l-19.76914,5.47068z" data-paper-data="{&quot;index&quot;:null}" fill="#cedce9" fill-rule="nonzero" stroke="#000000" stroke-width="0" stroke-linecap="round"/><path d="M155.80894,226.70039c-3.2355,-0.07715 -10.93595,-0.1979 -7.55991,-0.3207c-1.84559,0.03921 -4.30777,0.08705 -5.61781,0.0998c-6.20599,0.06042 -14.24765,-0.00255 -20.65104,-0.0037c-17.56731,-0.00315 -34.62226,-0.03887 -51.62851,0.1129c-7.68561,0.06859 -9.79648,-0.14786 -12.15878,0.15404c-4.8717,0.50639 -14.03364,0.95741 -19.92079,1.46702c-7.97904,0.69068 -11.07645,1.35829 -15.97007,2.05139c-5.53593,0.57052 -1.03896,1.66862 -1.04401,2.30473c-0.00135,0.17028 1.54789,0.47365 0.06491,0.59872c1.47321,0.0066 2.89607,0.01263 3.80232,0.01279c6.02324,0.00108 12.04639,0.00216 18.06966,0.00324c23.95951,0.0043 51.79746,-0.0155 75.05494,-0.28647c27.61399,-0.28856 57.53642,0.13771 85.37226,-0.12075c15.24348,-0.12939 31.85806,-0.04787 47.37744,-0.04416c7.87301,0.00188 14.6161,-0.13842 18.06866,0.1254c0.90746,0.06935 0.00129,-0.16288 0.00194,-0.24433c0.00162,-0.20361 0.00325,-0.40721 0.00485,-0.61082c0.00908,-1.14019 0.01812,-2.28038 0.0272,-3.42056c0.00216,-0.26954 -1.48319,-1.23416 1.60635,-1.33796c-0.5794,-0.00174 -1.23515,-0.00453 -1.59566,-0.00583c-3.19412,-0.0116 -4.97879,-0.00359 -7.47096,-0.08822c-4.32652,-0.14691 -18.92768,-0.03868 -24.79534,-0.03973c-22.80214,-0.00409 -45.60426,-0.00818 -68.40647,-0.01227c0,0 -5.16274,-0.00093 -5.1608,-0.24525c0.00008,-0.01004 0.0088,-0.01964 0.02559,-0.02886c-2.46787,-0.0252 -4.96064,-0.05998 -7.49601,-0.12044zM236.85053,226.61857c13.76461,0.00247 31.35777,-0.11037 40.75384,0.38669c5.38439,0.28484 1.82628,1.19435 1.82327,1.57555c-0.00907,1.14019 -0.01813,2.28038 -0.0272,3.42057c-0.00103,0.1302 1.77206,0.77639 -0.0068,0.85514c-17.9674,0.79545 -51.81605,0.16657 -73.75043,0.39643c-27.21896,0.25273 -58.55864,-0.24379 -84.8929,0.11573c-23.97061,0.27927 -52.84632,0.30505 -77.55939,0.30061c-3.54483,-0.00064 -24.80439,0.1226 -27.10445,-0.00486c-6.59588,-0.36552 -5.15742,-0.66918 -5.15399,-1.10039c0.00619,-0.77997 -2.90798,-1.71021 1.5752,-2.45916c5.01563,-0.71038 8.53476,-1.42314 16.53093,-2.1153c3.22556,-0.27921 6.71019,-0.65283 10.87776,-0.90478c2.72704,-0.16486 7.9395,-0.29828 8.59231,-0.51311c4.42133,-0.56506 12.40168,-0.37822 21.84711,-0.47163c16.81399,-0.16627 34.21152,-0.11603 51.62851,-0.1129c6.42327,0.00115 18.97474,-0.1365 23.50567,-0.09215c7.88736,0.0772 12.45776,0.39636 20.10211,0.49226c5.60931,0.07037 11.5214,0.03037 18.06825,0.18648c0.49703,0.01185 0.99398,0.0237 1.49101,0.03556c17.23314,0.00309 34.46629,0.00618 51.69948,0.00927z" data-paper-data="{&quot;index&quot;:null}" fill="#000000" fill-rule="nonzero" stroke="none" stroke-width="0" stroke-linecap="butt"/><path d="M163.37679,226.80911c-0.0168,0.00922 -0.02491,0.01884 -0.025,0.02886c-0.00194,0.24433 5.18615,0.24567 5.18615,0.24567c22.80215,0.00409 45.72579,0.01306 68.52805,0.01715c5.86764,0.00105 20.48202,-0.10603 24.80854,0.04087c2.49208,0.08462 4.28083,0.07702 7.47484,0.08862c0.36057,0.00131 1.01678,0.00415 1.59627,0.0059c-3.08955,0.1038 -1.58855,1.07075 -1.59071,1.3403c-0.00907,1.14019 -0.02895,2.28715 -0.03799,3.42734c-0.00163,0.20361 -0.0121,0.4082 -0.01371,0.6118c-0.00066,0.08145 0.90163,0.31403 -0.00583,0.24469c-3.45256,-0.26383 -10.20178,-0.12299 -18.07478,-0.12488c-15.51939,-0.00371 -32.18099,-0.08246 -47.42446,0.04694c-27.83589,0.25845 -58.03187,-0.1655 -85.64586,0.12307c-23.25751,0.27097 -51.20845,0.2865 -75.16808,0.2822c-6.02324,-0.00108 -12.05696,-0.00293 -18.0802,-0.00401c-0.90632,-0.00017 -2.33116,-0.00635 -3.80425,-0.01295c1.48302,-0.12507 -0.07586,-0.42931 -0.07452,-0.59959c0.00506,-0.63611 -4.51614,-1.73844 1.01984,-2.30896c4.89361,-0.6931 8.00167,-1.36536 15.98073,-2.05603c5.88724,-0.50961 15.08788,-0.96426 19.95963,-1.47065c2.36227,-0.3019 4.48917,-0.08638 12.17477,-0.15497c17.00621,-0.15177 34.17192,-0.11946 51.73915,-0.11631c6.40323,0.00115 14.51696,0.06352 20.72296,0.0031c1.30991,-0.01276 3.79264,-0.06058 5.63821,-0.09979c-3.37613,0.1228 4.35494,0.2437 7.59043,0.32085c2.5355,0.06046 5.05832,0.09557 7.52615,0.12077z" data-paper-data="{&quot;noHover&quot;:false,&quot;origItem&quot;:[&quot;Path&quot;,{&quot;applyMatrix&quot;:true,&quot;segments&quot;:[[[579.60736,595.76373],[0.95609,-0.20262],[0.00646,0.07548]],[[579.61718,596],[0,-0.08208],[0,2]],[[577.61718,598],[0,0],[-8.83333,0]],[[551.11718,598],[8.83333,0],[-2.27308,0]],[[541.51161,598.28885],[1.67648,-1.19621],[-0.96568,0.68904]],[[538.61718,599],[1.23739,-0.09027],[-0.13966,0.01019]],[[537.99901,599.04541],[0.22447,-0.0134],[1.19653,0.85421]],[[538.61718,610],[0,-2.20646],[0,9.33333]],[[538.61718,638],[0,-9.33333],[0,1.66667]],[[538.61718,643],[0,-1.66667],[0,0.66667]],[[538.61718,645],[-0.35177,0.56631],[1.33831,-2.15456]],[[545.61718,644],[-3.04994,0.00386],[6.01206,-0.00761]],[[563.97058,644.43107],[-5.90478,-1.08158],[10.78253,2.15651]],[[597.04254,645.54479],[-10.6965,-2.40266],[9.00888,2.25222]],[[626.11718,648],[-9.28168,0],[2.33333,0]],[[633.11718,648],[-2.33333,0],[0.35109,0]],[[634.59021,647.90091],[-0.5707,0.05184],[-0.57412,-1.02596]],[[634.61718,643],[0,1.39387],[0,-5.20707]],[[634.21982,624.13246],[2.14282,4.67827],[-1.8936,-5.6808]],[[628.03948,607.31672],[3.08887,5.66543],[-2.2791,-4.1802]],[[620.32688,595.27881],[1.8857,4.15235],[-0.91417,-2.47477]],[[615.61718,594],[2.9771,0.57275],[-6.58756,-1.26734]],[[595.61718,593],[6.8054,0],[-2.48058,0]],[[587.61718,593],[2.40395,0.50364],[-0.50743,-0.10631]],[[585.44122,592.1748],[0.71481,0.32365],[1.30749,1.01011]],[[582.51161,594.78885],[1.25365,-0.62682],[-0.98239,0.4912]]],&quot;closed&quot;:true}],&quot;index&quot;:null}" fill="#c9c9c9" fill-rule="nonzero" stroke="none" stroke-width="0" stroke-linecap="butt"/><path d="M90.99403,227.69187c-0.00067,0.08257 1.77837,0.18297 0.89076,0.24819c2.26887,0.01146 4.55109,0.03601 6.5782,0.08435c7.8158,0.18638 23.71294,0.86327 25.20885,1.30916c0.12164,0.03627 -2.08899,0.04193 -1.71489,0.07414c1.24482,0.10718 11.39785,-0.07688 12.5653,-0.04629c0.26421,0.00692 0.39396,0.01766 0.44583,0.03069c-0.05406,-0.04049 -0.10352,-0.07963 -0.10333,-0.10425c0.00069,-0.08654 0.07367,-0.1798 -0.74355,-0.25735c-6.9464,-0.68354 -18.29942,-1.33418 -37.9644,-1.33771c0,0 -2.32061,-0.00041 -3.84966,-0.07432c-0.51,-0.01381 -0.90652,-0.03 -1.17233,-0.04896c-0.06872,0.0466 -0.14059,0.09403 -0.14083,0.12236zM134.86289,229.53218c0.35194,0.05009 0.24865,-0.03296 0.13229,-0.11984c-0.0248,0.03769 -0.37284,0.08562 -0.13229,0.11984zM143.35832,228.81363c6.41475,0.60876 -8.16853,1.49391 -21.40526,1.08273c-12.48898,-0.38795 -16.71293,-1.1639 -28.11122,-1.43571c-3.85074,-0.09183 -8.46538,-0.1424 -11.34132,-0.29455c-4.55751,-0.2411 -2.52983,-1.06123 6.18928,-1.05967c6.27836,0.00113 9.36997,0.09805 15.21501,0.09909l2.58133,0.00046c0,0 2.96323,0.00053 4.39899,0.10704c15.29111,0.23899 25.09977,0.84098 32.47316,1.5006z" data-paper-data="{&quot;index&quot;:null}" fill="#000000" fill-rule="nonzero" stroke="none" stroke-width="0" stroke-linecap="butt"/><path d="M90.94327,227.56128c0.26561,0.01896 0.6624,0.03515 1.17244,0.04896c1.52904,0.0739 3.86019,0.0738 3.86019,0.0738c19.66494,0.00353 31.42788,0.66859 38.37421,1.35213c0.81725,0.07756 0.72169,0.17251 0.72101,0.25905c-0.00018,0.02462 0.03971,0.06432 0.09375,0.10481c-0.0518,-0.01305 -0.18028,-0.02384 -0.44458,-0.03076c-1.16748,-0.03058 -11.40845,0.15666 -12.6533,0.04949c-0.37414,-0.03221 1.5915,-0.05937 1.46973,-0.09564c-1.49586,-0.44589 -17.46976,-1.11937 -25.28565,-1.30575c-2.02717,-0.04834 -4.32249,-0.0719 -6.59138,-0.08336c0.88761,-0.06523 -0.87021,-0.16712 -0.86955,-0.2497c0.00022,-0.02833 0.08403,-0.07644 0.15293,-0.12304z" data-paper-data="{&quot;noHover&quot;:false,&quot;origItem&quot;:[&quot;Path&quot;,{&quot;applyMatrix&quot;:true,&quot;segments&quot;:[[[607.563,601.99816],[0.02649,0.38155],[-0.10299,0.15484]],[[607.10872,602.39727],[0.1976,-0.11227],[-0.59254,0.60273]],[[605.61718,603],[0,0],[-7.618,0]],[[590.90604,613.89443],[2.69308,-5.58508],[-0.31682,0.63364]],[[590.61718,616],[0,-0.70843],[0,0.20156]],[[590.57685,616.85325],[0.02106,-0.33136],[0.02013,-0.10671]],[[590.74964,616.60263],[-0.10238,0.05628],[0.45234,-0.24865]],[[595.61718,617],[-0.48256,0.87548],[0.14503,-0.26312]],[[594.95308,616.3906],[-0.04725,0.29671],[0.58086,-3.64773]],[[604.72276,605.71115],[-3.02833,1.51416],[0.78545,-0.39273]],[[607.27135,605.03032],[-0.87898,0.0905],[-0.34365,-0.53523]],[[607.61718,603],[0,0.6759],[0,-0.23192]]],&quot;closed&quot;:true}],&quot;index&quot;:null}" fill="#ffffff" fill-rule="nonzero" stroke="none" stroke-width="0" stroke-linecap="butt"/><path d="M164.71899,226.98648l33.57674,-5.41975l93.69715,-0.03164l-19.76914,5.47068z" data-paper-data="{&quot;index&quot;:null}" fill="#cedce9" fill-rule="nonzero" stroke="#000000" stroke-width="0" stroke-linecap="round"/><path d="M155.80894,226.70039c-3.2355,-0.07715 -10.93595,-0.1979 -7.55991,-0.3207c-1.84559,0.03921 -4.30777,0.08705 -5.61781,0.0998c-6.20599,0.06042 -14.24765,-0.00255 -20.65104,-0.0037c-17.56731,-0.00315 -34.62226,-0.03887 -51.62851,0.1129c-7.68561,0.06859 -9.79648,-0.14786 -12.15878,0.15404c-4.8717,0.50639 -14.03364,0.95741 -19.92079,1.46702c-7.97904,0.69068 -11.07645,1.35829 -15.97007,2.05139c-5.53593,0.57052 -1.03896,1.66862 -1.04401,2.30473c-0.00135,0.17028 1.54789,0.47365 0.06491,0.59872c1.47321,0.0066 2.89607,0.01263 3.80232,0.01279c6.02324,0.00108 12.04639,0.00216 18.06966,0.00324c23.95951,0.0043 51.79746,-0.0155 75.05494,-0.28647c27.61399,-0.28856 57.53642,0.13771 85.37227,-0.12075c15.24348,-0.12939 31.85806,-0.04787 47.37744,-0.04416c7.87301,0.00188 14.6161,-0.13842 18.06866,0.1254c0.90746,0.06935 0.00129,-0.16288 0.00194,-0.24433c0.00162,-0.20361 0.00325,-0.40721 0.00485,-0.61082c0.00908,-1.14019 0.01812,-2.28038 0.0272,-3.42056c0.00216,-0.26954 -1.48319,-1.23416 1.60635,-1.33796c-0.5794,-0.00174 -1.23515,-0.00453 -1.59566,-0.00583c-3.19412,-0.0116 -4.97879,-0.00359 -7.47096,-0.08822c-4.32652,-0.14691 -18.92768,-0.03868 -24.79534,-0.03973c-22.80214,-0.00409 -45.60426,-0.00818 -68.40647,-0.01227c0,0 -5.16274,-0.00093 -5.1608,-0.24525c0.00007,-0.01004 0.00879,-0.01964 0.02558,-0.02886c-2.46786,-0.0252 -4.96064,-0.05998 -7.49601,-0.12044zM236.85053,226.61857c13.7646,0.00247 31.35776,-0.11037 40.75383,0.38669c5.38439,0.28484 1.82628,1.19435 1.82328,1.57555c-0.00908,1.14019 -0.01813,2.28038 -0.0272,3.42057c-0.00103,0.1302 1.77206,0.77639 -0.0068,0.85514c-17.9674,0.79545 -51.81605,0.16657 -73.75043,0.39643c-27.21896,0.25273 -58.55864,-0.24379 -84.8929,0.11573c-23.97061,0.27927 -52.84633,0.30505 -77.5594,0.30061c-3.54483,-0.00064 -24.80438,0.1226 -27.10445,-0.00486c-6.59588,-0.36552 -5.15742,-0.66918 -5.15399,-1.10039c0.00619,-0.77997 -2.90798,-1.71021 1.5752,-2.45916c5.01563,-0.71038 8.53476,-1.42314 16.53093,-2.1153c3.22556,-0.27921 6.71019,-0.65283 10.87775,-0.90478c2.72704,-0.16486 7.9395,-0.29828 8.59231,-0.51311c4.42133,-0.56506 12.40169,-0.37822 21.84712,-0.47163c16.81399,-0.16627 34.21151,-0.11603 51.62851,-0.1129c6.42327,0.00115 18.97474,-0.1365 23.50567,-0.09215c7.88736,0.0772 12.45777,0.39636 20.10212,0.49226c5.60932,0.07037 11.5214,0.03037 18.06825,0.18648c0.49703,0.01185 0.99398,0.0237 1.49101,0.03556c17.23314,0.00309 34.46629,0.00618 51.69948,0.00927z" data-paper-data="{&quot;index&quot;:null}" fill="#000000" fill-rule="nonzero" stroke="none" stroke-width="0" stroke-linecap="butt"/><path d="M163.37679,226.80911c-0.0168,0.00922 -0.02491,0.01884 -0.025,0.02886c-0.00194,0.24433 5.18615,0.24567 5.18615,0.24567c22.80215,0.00409 45.72579,0.01306 68.52805,0.01715c5.86764,0.00105 20.48202,-0.10603 24.80854,0.04087c2.49208,0.08462 4.28083,0.07702 7.47484,0.08862c0.36057,0.00131 1.01678,0.00415 1.59627,0.0059c-3.08955,0.1038 -1.58855,1.07075 -1.59071,1.3403c-0.00907,1.14019 -0.02895,2.28715 -0.03799,3.42734c-0.00163,0.20361 -0.0121,0.4082 -0.01371,0.6118c-0.00066,0.08145 0.90163,0.31403 -0.00583,0.24469c-3.45256,-0.26383 -10.20178,-0.12299 -18.07478,-0.12488c-15.51939,-0.00371 -32.18099,-0.08246 -47.42446,0.04694c-27.83589,0.25845 -58.03187,-0.1655 -85.64586,0.12307c-23.25751,0.27097 -51.20845,0.2865 -75.16808,0.2822c-6.02324,-0.00108 -12.05696,-0.00293 -18.0802,-0.00401c-0.90632,-0.00017 -2.33116,-0.00635 -3.80425,-0.01295c1.48302,-0.12507 -0.07586,-0.42931 -0.07452,-0.59959c0.00506,-0.63611 -4.51614,-1.73844 1.01984,-2.30896c4.89361,-0.6931 8.00167,-1.36536 15.98073,-2.05603c5.88724,-0.50961 15.08788,-0.96426 19.95963,-1.47065c2.36227,-0.3019 4.48917,-0.08638 12.17477,-0.15497c17.00621,-0.15177 34.17192,-0.11946 51.73915,-0.11631c6.40323,0.00115 14.51696,0.06352 20.72296,0.0031c1.30991,-0.01276 3.79264,-0.06058 5.63821,-0.09979c-3.37613,0.1228 4.35494,0.2437 7.59043,0.32085c2.5355,0.06046 5.05832,0.09557 7.52615,0.12077z" data-paper-data="{&quot;noHover&quot;:false,&quot;origItem&quot;:[&quot;Path&quot;,{&quot;applyMatrix&quot;:true,&quot;segments&quot;:[[[579.60736,595.76373],[0.95609,-0.20262],[0.00646,0.07548]],[[579.61718,596],[0,-0.08208],[0,2]],[[577.61718,598],[0,0],[-8.83333,0]],[[551.11718,598],[8.83333,0],[-2.27308,0]],[[541.51161,598.28885],[1.67648,-1.19621],[-0.96568,0.68904]],[[538.61718,599],[1.23739,-0.09027],[-0.13966,0.01019]],[[537.99901,599.04541],[0.22447,-0.0134],[1.19653,0.85421]],[[538.61718,610],[0,-2.20646],[0,9.33333]],[[538.61718,638],[0,-9.33333],[0,1.66667]],[[538.61718,643],[0,-1.66667],[0,0.66667]],[[538.61718,645],[-0.35177,0.56631],[1.33831,-2.15456]],[[545.61718,644],[-3.04994,0.00386],[6.01206,-0.00761]],[[563.97058,644.43107],[-5.90478,-1.08158],[10.78253,2.15651]],[[597.04254,645.54479],[-10.6965,-2.40266],[9.00888,2.25222]],[[626.11718,648],[-9.28168,0],[2.33333,0]],[[633.11718,648],[-2.33333,0],[0.35109,0]],[[634.59021,647.90091],[-0.5707,0.05184],[-0.57412,-1.02596]],[[634.61718,643],[0,1.39387],[0,-5.20707]],[[634.21982,624.13246],[2.14282,4.67827],[-1.8936,-5.6808]],[[628.03948,607.31672],[3.08887,5.66543],[-2.2791,-4.1802]],[[620.32688,595.27881],[1.8857,4.15235],[-0.91417,-2.47477]],[[615.61718,594],[2.9771,0.57275],[-6.58756,-1.26734]],[[595.61718,593],[6.8054,0],[-2.48058,0]],[[587.61718,593],[2.40395,0.50364],[-0.50743,-0.10631]],[[585.44122,592.1748],[0.71481,0.32365],[1.30749,1.01011]],[[582.51161,594.78885],[1.25365,-0.62682],[-0.98239,0.4912]]],&quot;closed&quot;:true}],&quot;index&quot;:null}" fill="#c9c9c9" fill-rule="nonzero" stroke="none" stroke-width="0" stroke-linecap="butt"/><path d="M90.99402,227.69187c-0.00067,0.08257 1.77837,0.18297 0.89075,0.24819c2.26887,0.01146 4.55109,0.03601 6.5782,0.08435c7.8158,0.18638 23.71294,0.86327 25.20885,1.30916c0.12164,0.03627 -2.08899,0.04193 -1.71489,0.07414c1.24482,0.10718 11.39785,-0.07688 12.5653,-0.04629c0.26421,0.00692 0.39396,0.01766 0.44583,0.03069c-0.05406,-0.04049 -0.10352,-0.07963 -0.10333,-0.10425c0.00069,-0.08654 0.07367,-0.1798 -0.74355,-0.25735c-6.9464,-0.68354 -18.29942,-1.33418 -37.9644,-1.33771c0,0 -2.32061,-0.00041 -3.84966,-0.07432c-0.51,-0.01381 -0.90653,-0.03 -1.17233,-0.04896c-0.06872,0.0466 -0.14059,0.09403 -0.14082,0.12236zM134.86289,229.53218c0.35194,0.05009 0.24865,-0.03296 0.13229,-0.11984c-0.0248,0.03769 -0.37284,0.08562 -0.13229,0.11984zM143.35832,228.81363c6.41475,0.60876 -8.16853,1.49391 -21.40526,1.08273c-12.48898,-0.38795 -16.71293,-1.1639 -28.11122,-1.43571c-3.85074,-0.09183 -8.46538,-0.1424 -11.34132,-0.29455c-4.55751,-0.2411 -2.52983,-1.06123 6.18928,-1.05967c6.27836,0.00113 9.36997,0.09805 15.21501,0.09909l2.58133,0.00046c0,0 2.96323,0.00053 4.39899,0.10704c15.29111,0.23899 25.09977,0.84098 32.47316,1.5006z" data-paper-data="{&quot;index&quot;:null}" fill="#000000" fill-rule="nonzero" stroke="none" stroke-width="0" stroke-linecap="butt"/><path d="M90.94327,227.56128c0.26561,0.01896 0.6624,0.03515 1.17244,0.04896c1.52904,0.0739 3.86019,0.0738 3.86019,0.0738c19.66494,0.00353 31.42788,0.66859 38.37421,1.35213c0.81725,0.07756 0.72169,0.17251 0.72101,0.25905c-0.00018,0.02462 0.03971,0.06432 0.09375,0.10481c-0.0518,-0.01305 -0.18028,-0.02384 -0.44458,-0.03076c-1.16748,-0.03058 -11.40845,0.15666 -12.6533,0.04949c-0.37414,-0.03221 1.5915,-0.05937 1.46973,-0.09564c-1.49586,-0.44589 -17.46976,-1.11937 -25.28565,-1.30575c-2.02717,-0.04834 -4.32249,-0.0719 -6.59138,-0.08336c0.88761,-0.06523 -0.87021,-0.16712 -0.86955,-0.2497c0.00022,-0.02833 0.08403,-0.07644 0.15293,-0.12304z" data-paper-data="{&quot;noHover&quot;:false,&quot;origItem&quot;:[&quot;Path&quot;,{&quot;applyMatrix&quot;:true,&quot;segments&quot;:[[[607.563,601.99816],[0.02649,0.38155],[-0.10299,0.15484]],[[607.10872,602.39727],[0.1976,-0.11227],[-0.59254,0.60273]],[[605.61718,603],[0,0],[-7.618,0]],[[590.90604,613.89443],[2.69308,-5.58508],[-0.31682,0.63364]],[[590.61718,616],[0,-0.70843],[0,0.20156]],[[590.57685,616.85325],[0.02106,-0.33136],[0.02013,-0.10671]],[[590.74964,616.60263],[-0.10238,0.05628],[0.45234,-0.24865]],[[595.61718,617],[-0.48256,0.87548],[0.14503,-0.26312]],[[594.95308,616.3906],[-0.04725,0.29671],[0.58086,-3.64773]],[[604.72276,605.71115],[-3.02833,1.51416],[0.78545,-0.39273]],[[607.27135,605.03032],[-0.87898,0.0905],[-0.34365,-0.53523]],[[607.61718,603],[0,0.6759],[0,-0.23192]]],&quot;closed&quot;:true}],&quot;index&quot;:null}" fill="#ffffff" fill-rule="nonzero" stroke="none" stroke-width="0" stroke-linecap="butt"/><g><path d="M583.58896,217.05368c0.30548,0.13048 0.40835,0.27094 0.31172,0.42137c-2.54985,0.01526 -5.04361,-0.00038 -7.48125,-0.04682c2.39087,0 4.77864,0 7.16953,0c0,-0.12486 0,-0.24968 0,-0.37455z" data-paper-data="{&quot;index&quot;:null}" fill="#6b6b6b" fill-rule="evenodd" stroke="none" stroke-width="0" stroke-linecap="butt"/><path d="M594.1874,217.28777c0.2899,0.05 0.39589,0.11241 0.31172,0.18727c-3.17329,0.01531 -6.29048,-0.00028 -9.35156,-0.04682c3.01432,0 6.02552,0 9.03984,0c0,-0.04682 0,-0.09364 0,-0.14046z" data-paper-data="{&quot;index&quot;:null}" fill="#9e9e9e" fill-rule="evenodd" stroke="none" stroke-width="0" stroke-linecap="butt"/><path d="M502.54206,217.47504c2.54674,0 5.04049,0.01564 7.48125,0.04682c-5.01244,-0.01484 -9.99995,0.00075 -14.96252,0.04682c2.38152,-0.06232 4.87528,-0.09354 7.48125,-0.09364z" data-paper-data="{&quot;index&quot;:null}" fill="#484848" fill-rule="evenodd" stroke="none" stroke-width="0" stroke-linecap="butt"/><path d="M83.28014,217.80277c3.79611,-0.01536 7.53673,0.00024 11.22188,0.04682c-3.81888,-0.02874 -7.5595,0.00248 -11.22188,0.09364c0,-0.04682 0,-0.09364 0,-0.14046z" data-paper-data="{&quot;index&quot;:null}" fill="#838383" fill-rule="evenodd" stroke="none" stroke-width="0" stroke-linecap="butt"/><path d="M23.86418,191.41279l1.47565,0.03694l164.59665,0.33245v2.43836l95.364,0.00924v4.70975l49.18839,0.40633l0.49189,-2.77045l91.55189,0.33245v2.77045l29.51303,0.03694v9.44722l15.00246,0.10158l140.2484,0.17546l-1.96753,15.58837l-3.44319,0.01847l-323.98511,0.66491l-0.24594,-1.47943l-257.6242,-0.04618v-0.83113v-31.67543z" fill="#413831" fill-rule="nonzero" stroke="#000000" stroke-width="1" stroke-linecap="round"/><path d="M140.93421,209.32465l29.28309,0.09057v11.43396l-30.69432,0.09057l0.35281,-11.60943z" fill="#928b78" fill-rule="nonzero" stroke="#000000" stroke-width="1" stroke-linecap="round"/><path d="M132.35772,221.07772l-50.56643,-0.20487l1.28832,-11.87699l48.95603,0.18211z" fill="#928b78" fill-rule="nonzero" stroke="#000000" stroke-width="1" stroke-linecap="round"/><path d="M74.69809,221.11313l-16.175,-0.22344l-1.4516,-11.45139l16.58974,-0.24579z" fill="#928b78" fill-rule="nonzero" stroke="#000000" stroke-width="1" stroke-linecap="round"/><path d="M189.82375,191.74791l2.01613,16.24178l-168.16349,-0.41293l0.54985,-16.04907z" fill="#736c59" fill-rule="nonzero" stroke="#000000" stroke-width="1" stroke-linecap="round"/><path d="M189.13717,191.81913l-180.02951,-0.36939l-6.82489,-1.95778l192.94147,1.0343l16.23217,2.40105l104.09493,0.11082l-2.21348,1.44063l-105.01721,-0.33245l-18.69159,0.11082z" fill="#8b8471" fill-rule="nonzero" stroke="#000000" stroke-width="1" stroke-linecap="round"/><path d="M314.07569,196.46424l-2.21348,-0.81266l139.69503,0.18469l-6.64043,1.14512l-129.36547,-0.40633" fill="#8b8471" fill-rule="nonzero" stroke="#000000" stroke-width="1" stroke-linecap="round"/><path d="M283.087,198.08956l52.1397,0.18469l-0.84551,0.96042l-50.16685,-0.14775z" fill="#8b8471" fill-rule="nonzero" stroke="#000000" stroke-width="1" stroke-linecap="round"/><path d="M425.73335,198.79141l63.69896,-0.40633l-5.16478,1.32982l-58.04231,0.07388z" fill="#8b8471" fill-rule="nonzero" stroke="#000000" stroke-width="1" stroke-linecap="round"/><path d="M456.59904,208.11858l-171.91343,-0.25095v-7.52842h51.34039v4.34677l90.70547,0.18344l-1.12111,-3.7684l30.98869,0.2151z" fill="#262626" fill-rule="nonzero" stroke="#000000" stroke-width="1" stroke-linecap="round"/><path d="M279.64481,208.94048l-0.73782,-1.18206l356.43138,0.29551l-3.93507,1.36675l-174.98871,-0.22164z" fill="#8b8471" fill-rule="nonzero" stroke="#000000" stroke-width="1" stroke-linecap="round"/><path d="M426.59513,196.87057l1.22971,8.05277l-92.22823,-0.33245l-0.49189,-7.97888z" fill="#736c59" fill-rule="nonzero" stroke="#000000" stroke-width="1" stroke-linecap="round"/><path d="M352.51246,198.01738l56.1736,-0.04126l1.09875,5.77594l-57.82173,-0.12377z" fill="#515a61" fill-rule="nonzero" stroke="#000000" stroke-width="1" stroke-linecap="round"/><path d="M212.04412,212.1839h59.05783l0.54937,12.10212l-62.90345,-0.08251l0.27469,-12.12432z" fill="#090909" fill-rule="nonzero" stroke="#000000" stroke-width="1" stroke-linecap="round"/><path d="M226.19052,212.14624h32.13844l0.82407,12.12947l-33.78657,-0.02063l0.13735,-12.21715z" fill="#2d0d0e" fill-rule="nonzero" stroke="#000000" stroke-width="1" stroke-linecap="round"/><path d="M271.17061,220.53167h228.86105v4.66717l-218.75429,0.53118l-0.13735,-1.5265l-9.47672,0.02063l-0.27469,-3.56871" fill="#807165" fill-rule="nonzero" stroke="#000000" stroke-width="1" stroke-linecap="round"/><path d="M46.78059,207.75756l0.27469,16.42533l-23.89782,0.12377l0.68672,-16.70897l22.93641,0.02063z" fill="#807165" fill-rule="nonzero" stroke="#000000" stroke-width="1" stroke-linecap="round"/><path d="M173.27421,207.84523h18.02637l0.17168,16.37376l-17.44266,0.02579z" fill="#807165" fill-rule="nonzero" stroke="#000000" stroke-width="1" stroke-linecap="round"/><path d="M298.53173,225.66813v-11.88194l173.05315,0.02063l0.27469,11.49z" fill="#928b78" fill-rule="nonzero" stroke="#000000" stroke-width="1" stroke-linecap="round"/><path d="M304.54052,225.71454l-0.41203,-11.24246l160.17717,0.02063l0.41203,10.82473z" fill="#3c332c" fill-rule="nonzero" stroke="#000000" stroke-width="1" stroke-linecap="round"/><path d="M500.11805,225.31745l-0.96141,-11.40233l79.96841,0.04126l-0.96141,11.2012z" fill="#928b78" fill-rule="nonzero" stroke="#000000" stroke-width="1" stroke-linecap="round"/><path d="M502.38422,225.39996v-10.77832l68.91224,0.04126l-1.2361,10.51531z" fill="#3c332c" fill-rule="nonzero" stroke="#000000" stroke-width="1" stroke-linecap="round"/><path d="M301.66093,203.03523l-2.33484,0.61885l-4.25766,-0.02063l-11.26219,-3.21802l-126.90565,-0.26817l-4.25766,-1.13456l137.89315,0.10314z" fill="#8b8471" fill-rule="nonzero" stroke="#000000" stroke-width="1" stroke-linecap="round"/><path d="M140.55206,193.08048l1.64812,8.85988l-77.49622,-0.02063l-0.27469,-9.18994z" fill="#515a61" fill-rule="nonzero" stroke="#000000" stroke-width="1" stroke-linecap="round"/><path d="M128.63749,220.51104l-43.12595,-0.18565l1.09875,-10.76285l41.7525,0.16503z" fill="#515a61" fill-rule="nonzero" stroke="#000000" stroke-width="1" stroke-linecap="round"/><path d="M71.7219,220.65544l-10.71282,-0.20628l-0.9614,-10.57204l10.9875,-0.22691z" fill="#515a61" fill-rule="nonzero" stroke="#000000" stroke-width="1" stroke-linecap="round"/><path d="M144.01997,209.84102l22.79906,0.08251v10.41732l-23.89781,0.08251l0.27469,-10.57719z" fill="#515a61" fill-rule="nonzero" stroke="#000000" stroke-width="1" stroke-linecap="round"/></g><path d="M266.7374,201.98011c-0.06886,0.15886 0.00324,0.31078 0.21652,0.45568c-0.01299,0.01904 -0.08508,0.0307 -0.21652,0.03505c-0.28406,-0.16889 -0.28406,-0.33247 0,-0.49074z" data-paper-data="{&quot;index&quot;:null}" fill="#9e9e9e" fill-rule="evenodd" stroke="none" stroke-width="0" stroke-linecap="butt"/><path d="M241.93693,201.06805h5.67459v0.99435l-0.94576,-0.8523z" fill="#736d42" fill-rule="evenodd" stroke="none" stroke-width="0" stroke-linecap="butt"/><path d="M210.38099,202.86502c0.2303,0 0.42369,0.00598 0.58609,0.01601c2.53071,-0.50174 6.76151,-0.75708 10.81448,-0.74892c0.68051,0.00137 5.0493,0.06067 5.75233,0.14306c1.54118,0.18061 2.05379,0.51883 3.14937,0.77064c4.54198,1.04393 5.31977,2.11999 0.40807,3.1679c-3.45876,0.31297 -6.25406,0.59199 -10.36086,0.57776c-11.63946,-0.04033 -14.77262,-2.16838 -11.71253,-3.65576l-0.07372,-0.0381c0,0 0,-0.23261 1.43679,-0.23261zM211.44232,203.4461c-1.92196,1.16737 0.10682,2.86074 9.27893,2.88017c3.39694,0.00719 5.58728,-0.21575 8.48976,-0.46434c3.8961,-0.85691 2.73031,-1.72266 -0.87536,-2.54783c-0.91642,-0.20972 -1.22531,-0.49882 -2.46377,-0.65942c-1.08144,-0.14024 -2.75641,-0.05197 -4.14159,-0.05742c-3.39953,-0.01338 -7.58619,0.23017 -9.17377,0.72498c0,0 -0.39092,0.11392 -1.1142,0.12385z" data-paper-data="{&quot;index&quot;:null}" fill="#75dbff" fill-rule="nonzero" stroke="none" stroke-width="0" stroke-linecap="butt"/><path d="M212.51175,203.31641c1.58757,-0.49482 5.82161,-0.74183 9.22113,-0.72845c1.38519,0.00545 3.07981,-0.08209 4.16125,0.05814c1.23847,0.1606 1.56604,0.45175 2.48244,0.66146c3.60566,0.82518 4.76937,1.7043 0.8733,2.56121c-2.9025,0.24858 -5.13411,0.47397 -8.53104,0.46677c-9.17211,-0.01943 -11.24699,-1.72708 -9.32505,-2.89445c0.72328,-0.00993 1.11795,-0.1247 1.11795,-0.1247z" data-paper-data="{&quot;noHover&quot;:false,&quot;origItem&quot;:[&quot;Path&quot;,{&quot;applyMatrix&quot;:true,&quot;segments&quot;:[[[409.4867,271.35519],[1.25852,-0.10678],[-3.34423,12.54639]],[[425.63199,302.31001],[-15.95943,-0.20878],[5.91067,0.07732]],[[440.40413,297.31952],[-5.05034,2.67171],[6.7792,-9.20965]],[[438.881,269.93654],[6.27385,8.86861],[-1.59451,-2.25397]],[[434.59405,262.84941],[2.15492,1.72602],[-1.88172,-1.50719]],[[427.3877,262.23225],[2.4102,0.05859],[-5.91515,-0.1438]],[[411.4254,270.0241],[2.76238,-5.31806],[0,0]]],&quot;closed&quot;:true}],&quot;index&quot;:null}" fill="#ffffff" fill-rule="nonzero" stroke="none" stroke-width="0" stroke-linecap="butt"/><path d="M245.01954,202.73263c3.84852,-0.21678 8.09747,0.02332 11.98494,0.25311c0.91883,0.05431 4.11387,0.211 4.83263,0.37381c1.73039,0.39194 1.55353,1.03212 1.86624,1.48768c0.29339,0.42742 0.87652,0.84348 -0.91547,1.22002c-3.13895,0.65957 -7.87289,0.89636 -12.60766,1.10027c-2.18712,0.04223 -4.14864,0.15299 -6.1682,-0.08637c-1.21965,-0.14456 -2.41076,-0.62695 -2.99129,-0.83772c-1.9755,-0.71725 -5.16204,-1.658 -3.48967,-2.47844c0.56682,-0.27807 3.45026,-0.60789 4.44459,-0.85736l1.7368,-0.16275c0,0 0.67433,-0.05996 1.30712,-0.01224zM243.49734,203.33237c-0.98323,0.17167 -3.13818,0.50403 -3.25471,0.58661c-1.04127,0.73789 1.64864,1.49384 3.40689,2.13655c0.13897,0.0508 1.4949,0.57554 2.06621,0.65098c0.92941,0.12273 3.15207,0.02158 3.91093,0.0045c4.20496,-0.18204 7.93205,-0.37491 10.87651,-0.92591c1.22934,-0.23005 0.52019,-0.63199 0.34432,-0.8863c-0.24066,-0.34804 0.00429,-0.93551 -1.23263,-1.2443c-0.70184,-0.17521 -2.38357,-0.16017 -3.59544,-0.23171c-3.45236,-0.20383 -8.2376,-0.53282 -11.46988,-0.13587c0,0 -0.48436,0.05601 -1.05224,0.04545z" data-paper-data="{&quot;index&quot;:null}" fill="#75dbff" fill-rule="nonzero" stroke="none" stroke-width="0" stroke-linecap="butt"/><path d="M244.52013,203.27892c3.23228,-0.39695 8.07575,-0.06801 11.52812,0.13581c1.21186,0.07155 2.90793,0.05841 3.6098,0.23363c1.2369,0.30879 1.00622,0.9022 1.24689,1.25024c0.17584,0.25431 0.87832,0.66081 -0.35105,0.89086c-2.94446,0.551 -6.7274,0.74878 -10.93239,0.93081c-0.75885,0.01708 -2.99985,0.11746 -3.92924,-0.00527c-0.5713,-0.07545 -1.94448,-0.60211 -2.0835,-0.65291c-1.75824,-0.64271 -4.45661,-1.41004 -3.41535,-2.14793c0.11653,-0.08258 2.2871,-0.41768 3.27032,-0.58934c0.56787,0.01055 1.05636,-0.0459 1.05636,-0.0459z" data-paper-data="{&quot;noHover&quot;:false,&quot;origItem&quot;:[&quot;Path&quot;,{&quot;applyMatrix&quot;:true,&quot;segments&quot;:[[[465.26223,270.13291],[0.98811,0.11339],[-1.71083,1.84504]],[[459.59907,276.43751],[0.20277,-0.88758],[-1.81178,7.93053]],[[465.52703,299.40029],[-3.05933,-6.90758],[0.24182,0.54599]],[[469.12222,306.39679],[-0.99407,-0.81085],[1.61715,1.31908]],[[475.92722,306.44514],[-1.32039,0.18358],[7.31661,-1.95648]],[[494.85229,296.49376],[-5.12332,5.92193],[2.13908,-2.47252]],[[495.45142,286.96818],[0.30597,2.73324],[-0.41874,-3.7406]],[[493.30665,273.59497],[2.15221,3.31878],[-1.22123,-1.88318]],[[487.05062,271.1046],[2.10865,0.76899],[-6.0071,-2.19068]],[[467.0931,269.64433],[5.62415,-4.26625],[0,0]]],&quot;closed&quot;:true}],&quot;index&quot;:null}" fill="#ffffff" fill-rule="nonzero" stroke="none" stroke-width="0" stroke-linecap="butt"/><path d="M227.49907,204.5757c0,-0.20555 1.02922,-0.37217 2.29886,-0.37217c1.26963,0 2.29886,0.16663 2.29886,0.37217c0,0.20555 -1.02923,0.37217 -2.29886,0.37217c-1.26963,0 -2.29886,-0.16663 -2.29886,-0.37217z" data-paper-data="{&quot;index&quot;:null}" fill="#000000" fill-rule="nonzero" stroke="none" stroke-width="0" stroke-linecap="butt"/><path d="M256.87772,204.93799c0,-0.20555 1.02922,-0.37217 2.29886,-0.37217c1.26963,0 2.29886,0.16663 2.29886,0.37217c0,0.20555 -1.02923,0.37217 -2.29886,0.37217c-1.26963,0 -2.29886,-0.16663 -2.29886,-0.37217z" data-paper-data="{&quot;index&quot;:null}" fill="#000000" fill-rule="nonzero" stroke="none" stroke-width="0" stroke-linecap="butt"/><path d="M184.59694,196.07192c0.63758,-0.15484 1.59397,-0.05161 1.59397,-0.05161l0.46863,0.05058c5.08723,0.54907 9.93164,1.13612 14.79435,1.73594c10.70547,1.32052 22.50179,2.49869 32.03877,4.04269c0,0 0.81277,0.13159 0,0.26317c-0.81277,0.13159 -1.62554,0 -1.62554,0c-9.4608,-1.53167 -21.18593,-2.69978 -31.80643,-4.00982c-4.82446,-0.59509 -9.62926,-1.17758 -14.67633,-1.72231l-0.46862,-0.05058c0,0 -0.95639,-0.10322 -0.3188,-0.25806z" data-paper-data="{&quot;index&quot;:null}" fill="#75dbff" fill-rule="nonzero" stroke="none" stroke-width="0" stroke-linecap="butt"/><path d="M293.74984,193.82158c0.9742,0.09875 0.36424,0.25648 0.36424,0.25648l-0.6537,0.16832c-6.33538,1.25561 -13.97532,2.26251 -20.86271,3.4283c-9.46756,1.60252 -18.69518,3.30127 -29.05475,4.74545c0,0 -0.87272,0.12111 -1.62074,-0.02018c-0.74803,-0.14129 0.12467,-0.26239 0.12467,-0.26239c10.33337,-1.42668 19.48516,-3.1283 28.88952,-4.72012c6.81246,-1.1531 14.37909,-2.14812 20.65648,-3.38807l0.57281,-0.1488c0,0 0.60998,-0.15772 1.58423,-0.05896z" data-paper-data="{&quot;index&quot;:null}" fill="#75dbff" fill-rule="nonzero" stroke="none" stroke-width="0" stroke-linecap="butt"/><path d="M201.44566,207.06219c-0.14647,-0.01615 -0.26958,-0.0433 -0.26958,-0.08894c0,-0.11264 0.75,-0.11264 0.75,-0.11264l1.02909,0.11264c0,0.56975 -1.06045,1.0197 -1.8238,1.56904c-0.90828,0.65364 1.29971,1.40567 3.95633,1.89054c2.14412,0.22825 4.37366,0.27627 6.75419,0.41864c6.36138,0.38045 12.10192,0.41294 18.8348,0.51555c9.49173,-0.00092 20.24092,0.01814 28.74321,-0.7119c8.09985,-0.69165 6.6588,-2.13486 5.53708,-3.30962c0,0 -0.10607,-0.11151 0.63639,-0.12745c0.74246,-0.01593 0.84853,0.09559 0.84853,0.09559c1.21306,1.28064 2.44753,2.78476 -6.2778,3.5371c-8.76097,0.75157 -19.77932,0.7422 -29.56275,0.7413c-6.89883,-0.10382 -12.81101,-0.14372 -19.33349,-0.53242c-2.55417,-0.15221 -4.89917,-0.21328 -7.2006,-0.46166c-3.05011,-0.54402 -5.34133,-1.3561 -4.41654,-2.09175c0.64138,-0.5102 1.68468,-0.92766 1.79493,-1.44402z" fill="#75dbff" fill-rule="nonzero" stroke="none" stroke-width="0.5" stroke-linecap="butt"/></g></g></g></svg>