<svg version="1.1" xmlns="http://www.w3.org/2000/svg" xmlns:xlink="http://www.w3.org/1999/xlink" width="2878.25006" height="1619.57958" viewBox="0,0,2878.25006,1619.57958"><g transform="translate(1117.37278,629.80931)"><g data-paper-data="{&quot;isPaintingLayer&quot;:true}" stroke-linejoin="miter" stroke-miterlimit="10" stroke-dasharray="" stroke-dashoffset="0" style="mix-blend-mode: normal"><path d="M-1117.37278,989.77027v-1619.57958h2878.25006v1619.57958z" fill="none" fill-rule="nonzero" stroke="#000000" stroke-width="0" stroke-linecap="butt"/><g><path d="M371.77626,236.29797l-19.76914,-8.63434l93.69715,0.04995l33.57674,8.55395z" data-paper-data="{&quot;index&quot;:null}" fill="#cedce9" fill-rule="nonzero" stroke="#000000" stroke-width="0" stroke-linecap="round"/><path d="M488.1911,235.816c-2.53537,0.09543 -5.02815,0.15031 -7.49601,0.19009c0.01679,0.01455 0.02551,0.02971 0.02559,0.04556c0.00194,0.38561 -5.1608,0.38707 -5.1608,0.38707c-22.80221,0.00646 -45.60433,0.01292 -68.40647,0.01937c-5.86765,0.00166 -20.46882,-0.16916 -24.79534,0.06271c-2.49217,0.13357 -4.27685,0.1209 -7.47097,0.13924c-0.36051,0.00207 -1.01625,0.00646 -1.59566,0.00921c3.08953,0.16381 1.60419,1.68628 1.60635,2.11169c0.00908,1.79956 0.01812,3.5991 0.0272,5.39866c0.0016,0.32134 0.00322,0.6427 0.00485,0.96404c0.00065,0.12855 -0.90552,0.49506 0.00194,0.38561c3.45256,-0.41639 10.19566,-0.19496 18.06866,-0.19791c15.51938,-0.00588 32.13396,-0.13452 47.37744,0.0697c27.83585,0.40791 57.75828,-0.26486 85.37226,0.19057c23.25749,0.42766 51.09544,0.45891 75.05495,0.45213c6.02327,-0.00169 12.04642,-0.00341 18.06966,-0.00512c0.90625,-0.00025 2.32912,-0.00976 3.80233,-0.02018c-1.48298,-0.19741 0.06626,-0.67623 0.06491,-0.94497c-0.00505,-1.00397 4.49192,-2.73709 -1.04401,-3.63754c-4.89362,-1.09392 -7.99102,-2.14761 -15.97006,-3.2377c-5.88716,-0.80432 -15.04909,-1.51616 -19.9208,-2.31538c-2.3623,-0.4765 -4.47318,-0.13488 -12.15878,-0.24312c-17.00624,-0.23953 -34.0612,-0.18316 -51.62851,-0.17819c-6.4034,0.00182 -14.44505,0.1012 -20.65104,0.00585c-1.31004,-0.02013 -3.77221,-0.09563 -5.6178,-0.1575c3.37603,0.1938 -4.32441,0.3844 -7.55991,0.50616zM407.1492,235.68685c17.23319,-0.00487 34.46634,-0.00976 51.69948,-0.01463c0.49704,-0.01872 0.99398,-0.03741 1.49101,-0.05613c6.54685,-0.2464 12.45893,-0.18326 18.06825,-0.29432c7.64435,-0.15135 12.21475,-0.65509 20.10212,-0.77692c4.53093,-0.07 17.08239,0.14726 23.50567,0.14545c17.41699,-0.00492 34.81452,-0.08425 51.62851,0.17819c9.44543,0.14744 17.42579,-0.14746 21.84711,0.74438c0.65281,0.33907 5.86528,0.54962 8.59232,0.80984c4.16756,0.39764 7.65219,0.98735 10.87776,1.428c7.99617,1.09244 11.5153,2.21738 16.53092,3.33858c4.48318,1.18206 1.56901,2.65027 1.5752,3.88129c0.00344,0.68059 1.44189,1.15986 -5.15399,1.73675c-2.30007,0.20117 -23.55962,0.00666 -27.10445,0.00767c-24.71307,0.00701 -53.58879,-0.03368 -77.5594,-0.47445c-26.33426,-0.56743 -57.67394,0.21623 -84.8929,-0.18265c-21.93438,-0.36278 -55.78304,0.62976 -73.75043,-0.62568c-1.77886,-0.12431 -0.00578,-1.14417 -0.00681,-1.34968c-0.00908,-1.79956 -0.01812,-3.5991 -0.0272,-5.39866c-0.00301,-0.60166 -3.56112,-2.03713 1.82327,-2.48668c9.39607,-0.78452 26.98922,-0.60643 40.75383,-0.61031z" data-paper-data="{&quot;index&quot;:null}" fill="#000000" fill-rule="nonzero" stroke="none" stroke-width="0" stroke-linecap="butt"/><path d="M480.62287,235.98758c2.46783,-0.03975 4.99065,-0.09517 7.52614,-0.1906c3.23549,-0.12176 10.96657,-0.31259 7.59043,-0.50639c1.84557,0.06188 4.3283,0.13737 5.63821,0.1575c6.206,0.09535 14.31973,-0.00308 20.72296,-0.00489c17.56722,-0.00497 34.73294,-0.05597 51.73914,0.18356c7.68559,0.10826 9.81249,-0.23192 12.17477,0.24458c4.87175,0.79922 14.0724,1.51679 19.95963,2.32111c7.97906,1.09009 11.08711,2.15109 15.98073,3.24502c5.53599,0.90045 1.01478,2.64025 1.01984,3.64422c0.00134,0.26874 -1.55753,0.74892 -0.07451,0.94633c-1.47309,0.01042 -2.89793,0.02018 -3.80425,0.02043c-6.02325,0.00172 -12.05696,0.00462 -18.0802,0.00633c-23.95963,0.00679 -51.91057,-0.01773 -75.16808,-0.44539c-27.61399,-0.45543 -57.80997,0.21368 -85.64586,-0.19423c-15.24347,-0.20422 -31.90507,-0.07994 -47.42446,-0.07409c-7.87299,0.00298 -14.62221,-0.2193 -18.07478,0.19711c-0.90746,0.10945 -0.00517,-0.25765 -0.00583,-0.38619c-0.00162,-0.32134 -0.01208,-0.64427 -0.01371,-0.9656c-0.00904,-1.79956 -0.02892,-3.60979 -0.038,-5.40935c-0.00216,-0.42542 1.49884,-1.95157 -1.59071,-2.11538c0.57949,-0.00275 1.2357,-0.00724 1.59627,-0.00931c3.19401,-0.01831 4.98276,-0.00631 7.47484,-0.13987c4.32652,-0.23187 18.94091,-0.06283 24.80854,-0.0645c22.80227,-0.00646 45.7259,-0.02061 68.52805,-0.02707c0,0 5.18809,-0.00212 5.18615,-0.38776c-0.00008,-0.01582 -0.0082,-0.031 -0.025,-0.04556z" data-paper-data="{&quot;noHover&quot;:false,&quot;origItem&quot;:[&quot;Path&quot;,{&quot;applyMatrix&quot;:true,&quot;segments&quot;:[[[579.60736,595.76373],[0.95609,-0.20262],[0.00646,0.07548]],[[579.61718,596],[0,-0.08208],[0,2]],[[577.61718,598],[0,0],[-8.83333,0]],[[551.11718,598],[8.83333,0],[-2.27308,0]],[[541.51161,598.28885],[1.67648,-1.19621],[-0.96568,0.68904]],[[538.61718,599],[1.23739,-0.09027],[-0.13966,0.01019]],[[537.99901,599.04541],[0.22447,-0.0134],[1.19653,0.85421]],[[538.61718,610],[0,-2.20646],[0,9.33333]],[[538.61718,638],[0,-9.33333],[0,1.66667]],[[538.61718,643],[0,-1.66667],[0,0.66667]],[[538.61718,645],[-0.35177,0.56631],[1.33831,-2.15456]],[[545.61718,644],[-3.04994,0.00386],[6.01206,-0.00761]],[[563.97058,644.43107],[-5.90478,-1.08158],[10.78253,2.15651]],[[597.04254,645.54479],[-10.6965,-2.40266],[9.00888,2.25222]],[[626.11718,648],[-9.28168,0],[2.33333,0]],[[633.11718,648],[-2.33333,0],[0.35109,0]],[[634.59021,647.90091],[-0.5707,0.05184],[-0.57412,-1.02596]],[[634.61718,643],[0,1.39387],[0,-5.20707]],[[634.21982,624.13246],[2.14282,4.67827],[-1.8936,-5.6808]],[[628.03948,607.31672],[3.08887,5.66543],[-2.2791,-4.1802]],[[620.32688,595.27881],[1.8857,4.15235],[-0.91417,-2.47477]],[[615.61718,594],[2.9771,0.57275],[-6.58756,-1.26734]],[[595.61718,593],[6.8054,0],[-2.48058,0]],[[587.61718,593],[2.40395,0.50364],[-0.50743,-0.10631]],[[585.44122,592.1748],[0.71481,0.32365],[1.30749,1.01011]],[[582.51161,594.78885],[1.25365,-0.62682],[-0.98239,0.4912]]],&quot;closed&quot;:true}],&quot;index&quot;:null}" fill="#c9c9c9" fill-rule="nonzero" stroke="none" stroke-width="0" stroke-linecap="butt"/><path d="M553.00602,237.38082c-0.00023,-0.04472 -0.0721,-0.11957 -0.14082,-0.19312c-0.26581,0.02994 -0.66232,0.05549 -1.17233,0.07729c-1.52905,0.11664 -3.84966,0.1173 -3.84966,0.1173c-19.66498,0.00557 -31.018,1.03248 -37.9644,2.11129c-0.81722,0.12242 -0.74424,0.26958 -0.74355,0.40617c0.00019,0.03887 -0.04928,0.10065 -0.10333,0.16454c0.05187,-0.02058 0.18162,-0.03751 0.44583,-0.04846c1.16745,-0.04828 11.32048,0.24221 12.5653,0.07305c0.37411,-0.05083 -1.83653,-0.05978 -1.71489,-0.11702c1.49592,-0.70375 17.39306,-1.77207 25.20886,-2.06624c2.02712,-0.0763 4.30933,-0.11505 6.5782,-0.13314c-0.88762,-0.10294 0.89142,-0.26138 0.89075,-0.39172zM509.00481,240.09624c-0.11636,0.13712 -0.21964,0.26819 0.1323,0.18916c0.24055,-0.05401 -0.1075,-0.12966 -0.1323,-0.18916zM500.64169,239.1513c7.37339,-1.04108 17.18205,-1.99119 32.47316,-2.36838c1.43576,-0.1681 4.39899,-0.16893 4.39899,-0.16893l2.58133,-0.00073c5.84505,-0.00166 8.93666,-0.15463 15.21502,-0.15639c8.71911,-0.00247 10.7468,1.29194 6.18928,1.67248c-2.87593,0.24011 -7.49058,0.31995 -11.34132,0.46487c-11.39829,0.429 -15.62223,1.65366 -28.11122,2.26597c-13.23673,0.64896 -27.82001,-0.74807 -21.40526,-1.70888z" data-paper-data="{&quot;index&quot;:null}" fill="#000000" fill-rule="nonzero" stroke="none" stroke-width="0" stroke-linecap="butt"/><path d="M553.05695,237.17473c0.0689,0.07356 0.15272,0.14948 0.15293,0.19418c0.00065,0.13034 -1.75717,0.29114 -0.86956,0.39409c-2.2689,0.01809 -4.56421,0.05527 -6.59138,0.13157c-7.81589,0.29417 -23.78979,1.35712 -25.28565,2.06087c-0.12176,0.05724 1.84386,0.10012 1.46973,0.15095c-1.24485,0.16916 -11.48582,-0.12638 -12.6533,-0.07812c-0.2643,0.01092 -0.39279,0.02795 -0.44459,0.04856c0.05405,-0.06389 0.09394,-0.12655 0.09375,-0.16542c-0.00068,-0.13659 -0.09624,-0.28645 0.72101,-0.40884c6.94633,-1.07881 18.70926,-2.12849 38.37421,-2.13407c0,0 2.33114,0.00015 3.86018,-0.11649c0.51004,-0.02179 0.90682,-0.04735 1.17243,-0.07729z" data-paper-data="{&quot;noHover&quot;:false,&quot;origItem&quot;:[&quot;Path&quot;,{&quot;applyMatrix&quot;:true,&quot;segments&quot;:[[[607.563,601.99816],[0.02649,0.38155],[-0.10299,0.15484]],[[607.10872,602.39727],[0.1976,-0.11227],[-0.59254,0.60273]],[[605.61718,603],[0,0],[-7.618,0]],[[590.90604,613.89443],[2.69308,-5.58508],[-0.31682,0.63364]],[[590.61718,616],[0,-0.70843],[0,0.20156]],[[590.57685,616.85325],[0.02106,-0.33136],[0.02013,-0.10671]],[[590.74964,616.60263],[-0.10238,0.05628],[0.45234,-0.24865]],[[595.61718,617],[-0.48256,0.87548],[0.14503,-0.26312]],[[594.95308,616.3906],[-0.04725,0.29671],[0.58086,-3.64773]],[[604.72276,605.71115],[-3.02833,1.51416],[0.78545,-0.39273]],[[607.27135,605.03032],[-0.87898,0.0905],[-0.34365,-0.53523]],[[607.61718,603],[0,0.6759],[0,-0.23192]]],&quot;closed&quot;:true}],&quot;index&quot;:null}" fill="#ffffff" fill-rule="nonzero" stroke="none" stroke-width="0" stroke-linecap="butt"/><path d="M371.77627,236.29797l-19.76914,-8.63434l93.69715,0.04995l33.57674,8.55395z" data-paper-data="{&quot;index&quot;:null}" fill="#cedce9" fill-rule="nonzero" stroke="#000000" stroke-width="0" stroke-linecap="round"/><path d="M488.1911,235.816c-2.53537,0.09543 -5.02815,0.15031 -7.49601,0.19009c0.01679,0.01455 0.02551,0.02971 0.02559,0.04556c0.00194,0.38561 -5.1608,0.38707 -5.1608,0.38707c-22.80221,0.00646 -45.60433,0.01292 -68.40647,0.01937c-5.86765,0.00166 -20.46882,-0.16916 -24.79534,0.06271c-2.49217,0.13357 -4.27685,0.1209 -7.47097,0.13924c-0.36051,0.00207 -1.01625,0.00646 -1.59566,0.00921c3.08953,0.16381 1.60419,1.68628 1.60635,2.11169c0.00908,1.79956 0.01812,3.5991 0.0272,5.39866c0.0016,0.32134 0.00322,0.6427 0.00485,0.96404c0.00065,0.12855 -0.90552,0.49506 0.00194,0.38561c3.45256,-0.41639 10.19566,-0.19496 18.06866,-0.19791c15.51938,-0.00588 32.13396,-0.13452 47.37744,0.0697c27.83585,0.40791 57.75828,-0.26486 85.37226,0.19057c23.25749,0.42766 51.09544,0.45891 75.05495,0.45213c6.02327,-0.00169 12.04642,-0.00341 18.06966,-0.00512c0.90625,-0.00025 2.32912,-0.00976 3.80233,-0.02018c-1.48298,-0.19741 0.06626,-0.67623 0.06491,-0.94497c-0.00505,-1.00397 4.49192,-2.73709 -1.04401,-3.63754c-4.89362,-1.09392 -7.99102,-2.14761 -15.97006,-3.2377c-5.88716,-0.80432 -15.04909,-1.51616 -19.9208,-2.31538c-2.3623,-0.4765 -4.47318,-0.13488 -12.15878,-0.24312c-17.00624,-0.23953 -34.0612,-0.18316 -51.62851,-0.17819c-6.4034,0.00182 -14.44505,0.1012 -20.65104,0.00585c-1.31004,-0.02013 -3.77221,-0.09563 -5.6178,-0.1575c3.37603,0.1938 -4.32441,0.3844 -7.55991,0.50616zM407.14921,235.68685c17.23319,-0.00487 34.46634,-0.00976 51.69948,-0.01463c0.49704,-0.01872 0.99398,-0.03741 1.49101,-0.05613c6.54685,-0.2464 12.45893,-0.18326 18.06825,-0.29432c7.64435,-0.15135 12.21475,-0.65509 20.10212,-0.77692c4.53093,-0.07 17.08239,0.14726 23.50567,0.14545c17.41699,-0.00492 34.81452,-0.08425 51.62851,0.17819c9.44543,0.14744 17.42579,-0.14746 21.84711,0.74438c0.65281,0.33907 5.86528,0.54962 8.59232,0.80984c4.16756,0.39764 7.65219,0.98735 10.87776,1.428c7.99617,1.09244 11.5153,2.21738 16.53092,3.33858c4.48318,1.18206 1.56901,2.65027 1.5752,3.88129c0.00344,0.68059 1.44189,1.15986 -5.15399,1.73675c-2.30007,0.20117 -23.55962,0.00666 -27.10445,0.00767c-24.71307,0.00701 -53.58879,-0.03368 -77.5594,-0.47445c-26.33426,-0.56743 -57.67394,0.21623 -84.8929,-0.18265c-21.93438,-0.36278 -55.78304,0.62976 -73.75043,-0.62568c-1.77886,-0.12431 -0.00578,-1.14417 -0.00681,-1.34968c-0.00908,-1.79956 -0.01812,-3.5991 -0.0272,-5.39866c-0.00301,-0.60166 -3.56112,-2.03713 1.82327,-2.48668c9.39607,-0.78452 26.98922,-0.60643 40.75383,-0.61031z" data-paper-data="{&quot;index&quot;:null}" fill="#000000" fill-rule="nonzero" stroke="none" stroke-width="0" stroke-linecap="butt"/><path d="M480.62287,235.98758c2.46783,-0.03975 4.99065,-0.09517 7.52614,-0.1906c3.23549,-0.12176 10.96657,-0.31259 7.59043,-0.50639c1.84557,0.06188 4.3283,0.13737 5.63821,0.1575c6.206,0.09535 14.31973,-0.00308 20.72296,-0.00489c17.56722,-0.00497 34.73294,-0.05597 51.73914,0.18356c7.68559,0.10826 9.81249,-0.23192 12.17477,0.24458c4.87175,0.79922 14.0724,1.51679 19.95963,2.32111c7.97906,1.09009 11.08711,2.15109 15.98073,3.24502c5.53599,0.90045 1.01478,2.64025 1.01984,3.64422c0.00134,0.26874 -1.55753,0.74892 -0.07451,0.94633c-1.47309,0.01042 -2.89793,0.02018 -3.80425,0.02043c-6.02325,0.00172 -12.05696,0.00462 -18.0802,0.00633c-23.95963,0.00679 -51.91057,-0.01773 -75.16808,-0.44539c-27.61399,-0.45543 -57.80997,0.21368 -85.64586,-0.19423c-15.24347,-0.20422 -31.90507,-0.07994 -47.42446,-0.07409c-7.87299,0.00298 -14.62221,-0.2193 -18.07478,0.19711c-0.90746,0.10945 -0.00517,-0.25765 -0.00583,-0.38619c-0.00162,-0.32134 -0.01208,-0.64427 -0.01371,-0.9656c-0.00904,-1.79956 -0.02892,-3.60979 -0.038,-5.40935c-0.00216,-0.42542 1.49884,-1.95157 -1.59071,-2.11538c0.57949,-0.00275 1.2357,-0.00724 1.59627,-0.00931c3.19401,-0.01831 4.98276,-0.00631 7.47484,-0.13987c4.32652,-0.23187 18.94091,-0.06283 24.80854,-0.0645c22.80227,-0.00646 45.7259,-0.02061 68.52805,-0.02707c0,0 5.18809,-0.00212 5.18615,-0.38776c-0.00008,-0.01582 -0.0082,-0.031 -0.025,-0.04556z" data-paper-data="{&quot;noHover&quot;:false,&quot;origItem&quot;:[&quot;Path&quot;,{&quot;applyMatrix&quot;:true,&quot;segments&quot;:[[[579.60736,595.76373],[0.95609,-0.20262],[0.00646,0.07548]],[[579.61718,596],[0,-0.08208],[0,2]],[[577.61718,598],[0,0],[-8.83333,0]],[[551.11718,598],[8.83333,0],[-2.27308,0]],[[541.51161,598.28885],[1.67648,-1.19621],[-0.96568,0.68904]],[[538.61718,599],[1.23739,-0.09027],[-0.13966,0.01019]],[[537.99901,599.04541],[0.22447,-0.0134],[1.19653,0.85421]],[[538.61718,610],[0,-2.20646],[0,9.33333]],[[538.61718,638],[0,-9.33333],[0,1.66667]],[[538.61718,643],[0,-1.66667],[0,0.66667]],[[538.61718,645],[-0.35177,0.56631],[1.33831,-2.15456]],[[545.61718,644],[-3.04994,0.00386],[6.01206,-0.00761]],[[563.97058,644.43107],[-5.90478,-1.08158],[10.78253,2.15651]],[[597.04254,645.54479],[-10.6965,-2.40266],[9.00888,2.25222]],[[626.11718,648],[-9.28168,0],[2.33333,0]],[[633.11718,648],[-2.33333,0],[0.35109,0]],[[634.59021,647.90091],[-0.5707,0.05184],[-0.57412,-1.02596]],[[634.61718,643],[0,1.39387],[0,-5.20707]],[[634.21982,624.13246],[2.14282,4.67827],[-1.8936,-5.6808]],[[628.03948,607.31672],[3.08887,5.66543],[-2.2791,-4.1802]],[[620.32688,595.27881],[1.8857,4.15235],[-0.91417,-2.47477]],[[615.61718,594],[2.9771,0.57275],[-6.58756,-1.26734]],[[595.61718,593],[6.8054,0],[-2.48058,0]],[[587.61718,593],[2.40395,0.50364],[-0.50743,-0.10631]],[[585.44122,592.1748],[0.71481,0.32365],[1.30749,1.01011]],[[582.51161,594.78885],[1.25365,-0.62682],[-0.98239,0.4912]]],&quot;closed&quot;:true}],&quot;index&quot;:null}" fill="#c9c9c9" fill-rule="nonzero" stroke="none" stroke-width="0" stroke-linecap="butt"/><path d="M553.00603,237.38082c-0.00023,-0.04472 -0.0721,-0.11957 -0.14082,-0.19312c-0.26581,0.02994 -0.66232,0.05549 -1.17233,0.07729c-1.52905,0.11664 -3.84966,0.1173 -3.84966,0.1173c-19.66498,0.00557 -31.018,1.03248 -37.9644,2.11129c-0.81722,0.12242 -0.74424,0.26958 -0.74355,0.40617c0.00019,0.03887 -0.04928,0.10065 -0.10333,0.16454c0.05187,-0.02058 0.18162,-0.03751 0.44583,-0.04846c1.16745,-0.04828 11.32048,0.24221 12.5653,0.07305c0.37411,-0.05083 -1.83653,-0.05978 -1.71489,-0.11702c1.49592,-0.70375 17.39306,-1.77207 25.20886,-2.06624c2.02712,-0.0763 4.30933,-0.11505 6.5782,-0.13314c-0.88762,-0.10294 0.89142,-0.26138 0.89075,-0.39172zM509.00481,240.09624c-0.11636,0.13712 -0.21964,0.26819 0.1323,0.18916c0.24055,-0.05401 -0.1075,-0.12966 -0.1323,-0.18916zM500.64169,239.1513c7.37339,-1.04108 17.18205,-1.99119 32.47316,-2.36838c1.43576,-0.1681 4.39899,-0.16893 4.39899,-0.16893l2.58133,-0.00073c5.84505,-0.00166 8.93666,-0.15463 15.21502,-0.15639c8.71911,-0.00247 10.7468,1.29194 6.18928,1.67248c-2.87593,0.24011 -7.49058,0.31995 -11.34132,0.46487c-11.39829,0.429 -15.62223,1.65366 -28.11122,2.26597c-13.23673,0.64896 -27.82001,-0.74807 -21.40526,-1.70888z" data-paper-data="{&quot;index&quot;:null}" fill="#000000" fill-rule="nonzero" stroke="none" stroke-width="0" stroke-linecap="butt"/><path d="M553.05695,237.17473c0.0689,0.07356 0.15272,0.14948 0.15293,0.19418c0.00065,0.13034 -1.75717,0.29114 -0.86956,0.39409c-2.2689,0.01809 -4.56421,0.05527 -6.59138,0.13157c-7.81589,0.29417 -23.78979,1.35712 -25.28565,2.06087c-0.12176,0.05724 1.84386,0.10012 1.46973,0.15095c-1.24485,0.16916 -11.48582,-0.12638 -12.6533,-0.07812c-0.2643,0.01092 -0.39279,0.02795 -0.44459,0.04856c0.05405,-0.06389 0.09394,-0.12655 0.09375,-0.16542c-0.00068,-0.13659 -0.09624,-0.28645 0.72101,-0.40884c6.94633,-1.07881 18.70926,-2.12849 38.37421,-2.13407c0,0 2.33114,0.00015 3.86018,-0.11649c0.51004,-0.02179 0.90682,-0.04735 1.17243,-0.07729z" data-paper-data="{&quot;noHover&quot;:false,&quot;origItem&quot;:[&quot;Path&quot;,{&quot;applyMatrix&quot;:true,&quot;segments&quot;:[[[607.563,601.99816],[0.02649,0.38155],[-0.10299,0.15484]],[[607.10872,602.39727],[0.1976,-0.11227],[-0.59254,0.60273]],[[605.61718,603],[0,0],[-7.618,0]],[[590.90604,613.89443],[2.69308,-5.58508],[-0.31682,0.63364]],[[590.61718,616],[0,-0.70843],[0,0.20156]],[[590.57685,616.85325],[0.02106,-0.33136],[0.02013,-0.10671]],[[590.74964,616.60263],[-0.10238,0.05628],[0.45234,-0.24865]],[[595.61718,617],[-0.48256,0.87548],[0.14503,-0.26312]],[[594.95308,616.3906],[-0.04725,0.29671],[0.58086,-3.64773]],[[604.72276,605.71115],[-3.02833,1.51416],[0.78545,-0.39273]],[[607.27135,605.03032],[-0.87898,0.0905],[-0.34365,-0.53523]],[[607.61718,603],[0,0.6759],[0,-0.23192]]],&quot;closed&quot;:true}],&quot;index&quot;:null}" fill="#ffffff" fill-rule="nonzero" stroke="none" stroke-width="0" stroke-linecap="butt"/><path d="M164.71899,235.79343l33.57675,-8.55395l93.69714,-0.04995l-19.76914,8.63434z" data-paper-data="{&quot;index&quot;:null}" fill="#cedce9" fill-rule="nonzero" stroke="#000000" stroke-width="0" stroke-linecap="round"/><path d="M155.80894,235.34188c-3.2355,-0.12176 -10.93595,-0.31236 -7.55991,-0.50616c-1.84559,0.06188 -4.30777,0.1374 -5.61781,0.15753c-6.20599,0.09535 -14.24765,-0.00404 -20.65104,-0.00585c-17.56731,-0.00497 -34.62226,-0.06135 -51.62851,0.17819c-7.68561,0.10826 -9.79648,-0.23335 -12.15878,0.24312c-4.8717,0.79922 -14.03364,1.51107 -19.92079,2.31538c-7.97904,1.09009 -11.07645,2.14378 -15.97007,3.2377c-5.53593,0.90045 -1.03896,2.63357 -1.04401,3.63754c-0.00135,0.26874 1.54789,0.74756 0.06491,0.94497c1.47321,0.01042 2.89607,0.01993 3.80232,0.02018c6.02324,0.00169 12.04639,0.00341 18.06966,0.00512c23.95951,0.00679 51.79746,-0.02447 75.05494,-0.45213c27.61399,-0.45543 57.53642,0.21734 85.37226,-0.19057c15.24348,-0.20422 31.85806,-0.07557 47.37744,-0.0697c7.87301,0.00298 14.6161,-0.21847 18.06866,0.19791c0.90746,0.10945 0.00129,-0.25707 0.00194,-0.38561c0.00162,-0.32134 0.00325,-0.6427 0.00485,-0.96404c0.00908,-1.79956 0.01812,-3.5991 0.0272,-5.39866c0.00216,-0.42542 -1.48319,-1.94786 1.60635,-2.11169c-0.5794,-0.00275 -1.23515,-0.00714 -1.59566,-0.00921c-3.19412,-0.01831 -4.97879,-0.00568 -7.47096,-0.13924c-4.32652,-0.23187 -18.92768,-0.06104 -24.79534,-0.06271c-22.80214,-0.00646 -45.60426,-0.01292 -68.40647,-0.01937c0,0 -5.16274,-0.00146 -5.1608,-0.38707c0.00008,-0.01584 0.0088,-0.031 0.02559,-0.04556c-2.46787,-0.03978 -4.96064,-0.09467 -7.49601,-0.19009zM236.85053,235.21275c13.76461,0.00388 31.35777,-0.1742 40.75384,0.61031c5.38439,0.44956 1.82628,1.88502 1.82327,2.48668c-0.00907,1.79956 -0.01813,3.5991 -0.0272,5.39866c-0.00103,0.20548 1.77206,1.22537 -0.0068,1.34968c-17.9674,1.25544 -51.81605,0.26292 -73.75043,0.62568c-27.21896,0.39888 -58.55864,-0.38478 -84.8929,0.18265c-23.97061,0.44078 -52.84632,0.48147 -77.55939,0.47445c-3.54483,-0.00101 -24.80439,0.1935 -27.10445,-0.00767c-6.59588,-0.57689 -5.15742,-1.05616 -5.15399,-1.73675c0.00619,-1.23102 -2.90798,-2.69923 1.5752,-3.88129c5.01563,-1.12119 8.53476,-2.24614 16.53093,-3.33858c3.22556,-0.44068 6.71019,-1.03036 10.87776,-1.428c2.72704,-0.26019 7.9395,-0.47077 8.59231,-0.80984c4.42133,-0.89182 12.40168,-0.59694 21.84711,-0.74438c16.81399,-0.26244 34.21152,-0.18313 51.62851,-0.17819c6.42327,0.00182 18.97474,-0.21542 23.50567,-0.14545c7.88736,0.12184 12.45776,0.62557 20.10211,0.77692c5.60931,0.11106 11.5214,0.04793 18.06825,0.29432c0.49703,0.01872 0.99398,0.03741 1.49101,0.05613c17.23314,0.00487 34.46629,0.00976 51.69948,0.01463z" data-paper-data="{&quot;index&quot;:null}" fill="#000000" fill-rule="nonzero" stroke="none" stroke-width="0" stroke-linecap="butt"/><path d="M163.37679,235.51348c-0.0168,0.01455 -0.02491,0.02974 -0.025,0.04556c-0.00194,0.38561 5.18615,0.38776 5.18615,0.38776c22.80215,0.00646 45.72579,0.02061 68.52805,0.02707c5.86764,0.00166 20.48202,-0.16734 24.80854,0.0645c2.49208,0.13357 4.28083,0.12156 7.47484,0.13987c0.36057,0.00207 1.01678,0.00656 1.59627,0.00931c-3.08955,0.16383 -1.58855,1.68996 -1.59071,2.11538c-0.00907,1.79956 -0.02895,3.60979 -0.03799,5.40935c-0.00163,0.32134 -0.0121,0.64427 -0.01371,0.9656c-0.00066,0.12855 0.90163,0.49564 -0.00583,0.38619c-3.45256,-0.41639 -10.20178,-0.19413 -18.07478,-0.19711c-15.51939,-0.00585 -32.18099,-0.13013 -47.42446,0.07409c-27.83589,0.40791 -58.03187,-0.2612 -85.64586,0.19423c-23.25751,0.42766 -51.20845,0.45218 -75.16808,0.44539c-6.02324,-0.00169 -12.05696,-0.00462 -18.0802,-0.00633c-0.90632,-0.00025 -2.33116,-0.01004 -3.80425,-0.02043c1.48302,-0.19741 -0.07586,-0.67759 -0.07452,-0.94633c0.00506,-1.00397 -4.51614,-2.74378 1.01984,-3.64422c4.89361,-1.09392 8.00167,-2.15493 15.98073,-3.24502c5.88724,-0.80432 15.08788,-1.52189 19.95963,-2.32111c2.36227,-0.4765 4.48917,-0.13631 12.17477,-0.24458c17.00621,-0.23953 34.17192,-0.18853 51.73915,-0.18356c6.40323,0.00182 14.51696,0.10024 20.72296,0.00489c1.30991,-0.02013 3.79264,-0.09563 5.63821,-0.1575c-3.37613,0.1938 4.35494,0.38463 7.59043,0.50639c2.5355,0.09543 5.05832,0.15084 7.52615,0.1906z" data-paper-data="{&quot;noHover&quot;:false,&quot;origItem&quot;:[&quot;Path&quot;,{&quot;applyMatrix&quot;:true,&quot;segments&quot;:[[[579.60736,595.76373],[0.95609,-0.20262],[0.00646,0.07548]],[[579.61718,596],[0,-0.08208],[0,2]],[[577.61718,598],[0,0],[-8.83333,0]],[[551.11718,598],[8.83333,0],[-2.27308,0]],[[541.51161,598.28885],[1.67648,-1.19621],[-0.96568,0.68904]],[[538.61718,599],[1.23739,-0.09027],[-0.13966,0.01019]],[[537.99901,599.04541],[0.22447,-0.0134],[1.19653,0.85421]],[[538.61718,610],[0,-2.20646],[0,9.33333]],[[538.61718,638],[0,-9.33333],[0,1.66667]],[[538.61718,643],[0,-1.66667],[0,0.66667]],[[538.61718,645],[-0.35177,0.56631],[1.33831,-2.15456]],[[545.61718,644],[-3.04994,0.00386],[6.01206,-0.00761]],[[563.97058,644.43107],[-5.90478,-1.08158],[10.78253,2.15651]],[[597.04254,645.54479],[-10.6965,-2.40266],[9.00888,2.25222]],[[626.11718,648],[-9.28168,0],[2.33333,0]],[[633.11718,648],[-2.33333,0],[0.35109,0]],[[634.59021,647.90091],[-0.5707,0.05184],[-0.57412,-1.02596]],[[634.61718,643],[0,1.39387],[0,-5.20707]],[[634.21982,624.13246],[2.14282,4.67827],[-1.8936,-5.6808]],[[628.03948,607.31672],[3.08887,5.66543],[-2.2791,-4.1802]],[[620.32688,595.27881],[1.8857,4.15235],[-0.91417,-2.47477]],[[615.61718,594],[2.9771,0.57275],[-6.58756,-1.26734]],[[595.61718,593],[6.8054,0],[-2.48058,0]],[[587.61718,593],[2.40395,0.50364],[-0.50743,-0.10631]],[[585.44122,592.1748],[0.71481,0.32365],[1.30749,1.01011]],[[582.51161,594.78885],[1.25365,-0.62682],[-0.98239,0.4912]]],&quot;closed&quot;:true}],&quot;index&quot;:null}" fill="#c9c9c9" fill-rule="nonzero" stroke="none" stroke-width="0" stroke-linecap="butt"/><path d="M90.99403,236.90672c-0.00067,0.13034 1.77837,0.28877 0.89076,0.39172c2.26887,0.01809 4.55109,0.05683 6.5782,0.13314c7.8158,0.29417 23.71294,1.36249 25.20885,2.06624c0.12164,0.05724 -2.08899,0.06619 -1.71489,0.11702c1.24482,0.16916 11.39785,-0.12133 12.5653,-0.07305c0.26421,0.01092 0.39396,0.02787 0.44583,0.04843c-0.05406,-0.06389 -0.10352,-0.12567 -0.10333,-0.16454c0.00069,-0.13659 0.07367,-0.28378 -0.74355,-0.40617c-6.9464,-1.07881 -18.29942,-2.10574 -37.9644,-2.11129c0,0 -2.32061,-0.00066 -3.84966,-0.1173c-0.51,-0.02179 -0.90652,-0.04735 -1.17233,-0.07729c-0.06872,0.07356 -0.14059,0.1484 -0.14083,0.19312zM134.86289,239.81128c0.35194,0.07905 0.24865,-0.05201 0.13229,-0.18916c-0.0248,0.05948 -0.37284,0.13513 -0.13229,0.18916zM143.35832,238.6772c6.41475,0.96081 -8.16853,2.35781 -21.40526,1.70888c-12.48898,-0.61231 -16.71293,-1.83697 -28.11122,-2.26597c-3.85074,-0.14492 -8.46538,-0.22475 -11.34132,-0.46487c-4.55751,-0.38052 -2.52983,-1.67493 6.18928,-1.67248c6.27836,0.00177 9.36997,0.15475 15.21501,0.15639l2.58133,0.00073c0,0 2.96323,0.00083 4.39899,0.16893c15.29111,0.37721 25.09977,1.32733 32.47316,2.36838z" data-paper-data="{&quot;index&quot;:null}" fill="#000000" fill-rule="nonzero" stroke="none" stroke-width="0" stroke-linecap="butt"/><path d="M90.94327,236.70064c0.26561,0.02992 0.6624,0.05547 1.17244,0.07729c1.52904,0.11664 3.86019,0.11649 3.86019,0.11649c19.66494,0.00557 31.42788,1.05523 38.37421,2.13407c0.81725,0.12242 0.72169,0.27228 0.72101,0.40884c-0.00018,0.03887 0.03971,0.10153 0.09375,0.16542c-0.0518,-0.02058 -0.18028,-0.03761 -0.44458,-0.04856c-1.16748,-0.04828 -11.40845,0.24725 -12.6533,0.07812c-0.37414,-0.05083 1.5915,-0.09371 1.46973,-0.15095c-1.49586,-0.70375 -17.46976,-1.76669 -25.28565,-2.06087c-2.02717,-0.0763 -4.32249,-0.11349 -6.59138,-0.13157c0.88761,-0.10294 -0.87021,-0.26378 -0.86955,-0.39409c0.00022,-0.04472 0.08403,-0.12065 0.15293,-0.19418z" data-paper-data="{&quot;noHover&quot;:false,&quot;origItem&quot;:[&quot;Path&quot;,{&quot;applyMatrix&quot;:true,&quot;segments&quot;:[[[607.563,601.99816],[0.02649,0.38155],[-0.10299,0.15484]],[[607.10872,602.39727],[0.1976,-0.11227],[-0.59254,0.60273]],[[605.61718,603],[0,0],[-7.618,0]],[[590.90604,613.89443],[2.69308,-5.58508],[-0.31682,0.63364]],[[590.61718,616],[0,-0.70843],[0,0.20156]],[[590.57685,616.85325],[0.02106,-0.33136],[0.02013,-0.10671]],[[590.74964,616.60263],[-0.10238,0.05628],[0.45234,-0.24865]],[[595.61718,617],[-0.48256,0.87548],[0.14503,-0.26312]],[[594.95308,616.3906],[-0.04725,0.29671],[0.58086,-3.64773]],[[604.72276,605.71115],[-3.02833,1.51416],[0.78545,-0.39273]],[[607.27135,605.03032],[-0.87898,0.0905],[-0.34365,-0.53523]],[[607.61718,603],[0,0.6759],[0,-0.23192]]],&quot;closed&quot;:true}],&quot;index&quot;:null}" fill="#ffffff" fill-rule="nonzero" stroke="none" stroke-width="0" stroke-linecap="butt"/><path d="M164.71899,235.79343l33.57674,-8.55395l93.69715,-0.04995l-19.76914,8.63434z" data-paper-data="{&quot;index&quot;:null}" fill="#cedce9" fill-rule="nonzero" stroke="#000000" stroke-width="0" stroke-linecap="round"/><path d="M155.80894,235.34188c-3.2355,-0.12176 -10.93595,-0.31236 -7.55991,-0.50616c-1.84559,0.06188 -4.30777,0.1374 -5.61781,0.15753c-6.20599,0.09535 -14.24765,-0.00404 -20.65104,-0.00585c-17.56731,-0.00497 -34.62226,-0.06135 -51.62851,0.17819c-7.68561,0.10826 -9.79648,-0.23335 -12.15878,0.24312c-4.8717,0.79922 -14.03364,1.51107 -19.92079,2.31538c-7.97904,1.09009 -11.07645,2.14378 -15.97007,3.2377c-5.53593,0.90045 -1.03896,2.63357 -1.04401,3.63754c-0.00135,0.26874 1.54789,0.74756 0.06491,0.94497c1.47321,0.01042 2.89607,0.01993 3.80232,0.02018c6.02324,0.00169 12.04639,0.00341 18.06966,0.00512c23.95951,0.00679 51.79746,-0.02447 75.05494,-0.45213c27.61399,-0.45543 57.53642,0.21734 85.37227,-0.19057c15.24348,-0.20422 31.85806,-0.07557 47.37744,-0.0697c7.87301,0.00298 14.6161,-0.21847 18.06866,0.19791c0.90746,0.10945 0.00129,-0.25707 0.00194,-0.38561c0.00162,-0.32134 0.00325,-0.6427 0.00485,-0.96404c0.00908,-1.79956 0.01812,-3.5991 0.0272,-5.39866c0.00216,-0.42542 -1.48319,-1.94786 1.60635,-2.11169c-0.5794,-0.00275 -1.23515,-0.00714 -1.59566,-0.00921c-3.19412,-0.01831 -4.97879,-0.00568 -7.47096,-0.13924c-4.32652,-0.23187 -18.92768,-0.06104 -24.79534,-0.06271c-22.80214,-0.00646 -45.60426,-0.01292 -68.40647,-0.01937c0,0 -5.16274,-0.00146 -5.1608,-0.38707c0.00007,-0.01584 0.00879,-0.031 0.02558,-0.04556c-2.46786,-0.03978 -4.96064,-0.09467 -7.49601,-0.19009zM236.85053,235.21275c13.7646,0.00388 31.35776,-0.1742 40.75383,0.61031c5.38439,0.44956 1.82628,1.88502 1.82328,2.48668c-0.00908,1.79956 -0.01813,3.5991 -0.0272,5.39866c-0.00103,0.20548 1.77206,1.22537 -0.0068,1.34968c-17.9674,1.25544 -51.81605,0.26292 -73.75043,0.62568c-27.21896,0.39888 -58.55864,-0.38478 -84.8929,0.18265c-23.97061,0.44078 -52.84633,0.48147 -77.5594,0.47445c-3.54483,-0.00101 -24.80438,0.1935 -27.10445,-0.00767c-6.59588,-0.57689 -5.15742,-1.05616 -5.15399,-1.73675c0.00619,-1.23102 -2.90798,-2.69923 1.5752,-3.88129c5.01563,-1.12119 8.53476,-2.24614 16.53093,-3.33858c3.22556,-0.44068 6.71019,-1.03036 10.87775,-1.428c2.72704,-0.26019 7.9395,-0.47077 8.59231,-0.80984c4.42133,-0.89182 12.40169,-0.59694 21.84712,-0.74438c16.81399,-0.26244 34.21151,-0.18313 51.62851,-0.17819c6.42327,0.00182 18.97474,-0.21542 23.50567,-0.14545c7.88736,0.12184 12.45777,0.62557 20.10212,0.77692c5.60932,0.11106 11.5214,0.04793 18.06825,0.29432c0.49703,0.01872 0.99398,0.03741 1.49101,0.05613c17.23314,0.00487 34.46629,0.00976 51.69948,0.01463z" data-paper-data="{&quot;index&quot;:null}" fill="#000000" fill-rule="nonzero" stroke="none" stroke-width="0" stroke-linecap="butt"/><path d="M163.37679,235.51348c-0.0168,0.01455 -0.02491,0.02974 -0.025,0.04556c-0.00194,0.38561 5.18615,0.38776 5.18615,0.38776c22.80215,0.00646 45.72579,0.02061 68.52805,0.02707c5.86764,0.00166 20.48202,-0.16734 24.80854,0.0645c2.49208,0.13357 4.28083,0.12156 7.47484,0.13987c0.36057,0.00207 1.01678,0.00656 1.59627,0.00931c-3.08955,0.16383 -1.58855,1.68996 -1.59071,2.11538c-0.00907,1.79956 -0.02895,3.60979 -0.03799,5.40935c-0.00163,0.32134 -0.0121,0.64427 -0.01371,0.9656c-0.00066,0.12855 0.90163,0.49564 -0.00583,0.38619c-3.45256,-0.41639 -10.20178,-0.19413 -18.07478,-0.19711c-15.51939,-0.00585 -32.18099,-0.13013 -47.42446,0.07409c-27.83589,0.40791 -58.03187,-0.2612 -85.64586,0.19423c-23.25751,0.42766 -51.20845,0.45218 -75.16808,0.44539c-6.02324,-0.00169 -12.05696,-0.00462 -18.0802,-0.00633c-0.90632,-0.00025 -2.33116,-0.01004 -3.80425,-0.02043c1.48302,-0.19741 -0.07586,-0.67759 -0.07452,-0.94633c0.00506,-1.00397 -4.51614,-2.74378 1.01984,-3.64422c4.89361,-1.09392 8.00167,-2.15493 15.98073,-3.24502c5.88724,-0.80432 15.08788,-1.52189 19.95963,-2.32111c2.36227,-0.4765 4.48917,-0.13631 12.17477,-0.24458c17.00621,-0.23953 34.17192,-0.18853 51.73915,-0.18356c6.40323,0.00182 14.51696,0.10024 20.72296,0.00489c1.30991,-0.02013 3.79264,-0.09563 5.63821,-0.1575c-3.37613,0.1938 4.35494,0.38463 7.59043,0.50639c2.5355,0.09543 5.05832,0.15084 7.52615,0.1906z" data-paper-data="{&quot;noHover&quot;:false,&quot;origItem&quot;:[&quot;Path&quot;,{&quot;applyMatrix&quot;:true,&quot;segments&quot;:[[[579.60736,595.76373],[0.95609,-0.20262],[0.00646,0.07548]],[[579.61718,596],[0,-0.08208],[0,2]],[[577.61718,598],[0,0],[-8.83333,0]],[[551.11718,598],[8.83333,0],[-2.27308,0]],[[541.51161,598.28885],[1.67648,-1.19621],[-0.96568,0.68904]],[[538.61718,599],[1.23739,-0.09027],[-0.13966,0.01019]],[[537.99901,599.04541],[0.22447,-0.0134],[1.19653,0.85421]],[[538.61718,610],[0,-2.20646],[0,9.33333]],[[538.61718,638],[0,-9.33333],[0,1.66667]],[[538.61718,643],[0,-1.66667],[0,0.66667]],[[538.61718,645],[-0.35177,0.56631],[1.33831,-2.15456]],[[545.61718,644],[-3.04994,0.00386],[6.01206,-0.00761]],[[563.97058,644.43107],[-5.90478,-1.08158],[10.78253,2.15651]],[[597.04254,645.54479],[-10.6965,-2.40266],[9.00888,2.25222]],[[626.11718,648],[-9.28168,0],[2.33333,0]],[[633.11718,648],[-2.33333,0],[0.35109,0]],[[634.59021,647.90091],[-0.5707,0.05184],[-0.57412,-1.02596]],[[634.61718,643],[0,1.39387],[0,-5.20707]],[[634.21982,624.13246],[2.14282,4.67827],[-1.8936,-5.6808]],[[628.03948,607.31672],[3.08887,5.66543],[-2.2791,-4.1802]],[[620.32688,595.27881],[1.8857,4.15235],[-0.91417,-2.47477]],[[615.61718,594],[2.9771,0.57275],[-6.58756,-1.26734]],[[595.61718,593],[6.8054,0],[-2.48058,0]],[[587.61718,593],[2.40395,0.50364],[-0.50743,-0.10631]],[[585.44122,592.1748],[0.71481,0.32365],[1.30749,1.01011]],[[582.51161,594.78885],[1.25365,-0.62682],[-0.98239,0.4912]]],&quot;closed&quot;:true}],&quot;index&quot;:null}" fill="#c9c9c9" fill-rule="nonzero" stroke="none" stroke-width="0" stroke-linecap="butt"/><path d="M90.99402,236.90672c-0.00067,0.13034 1.77837,0.28877 0.89075,0.39172c2.26887,0.01809 4.55109,0.05683 6.5782,0.13314c7.8158,0.29417 23.71294,1.36249 25.20885,2.06624c0.12164,0.05724 -2.08899,0.06619 -1.71489,0.11702c1.24482,0.16916 11.39785,-0.12133 12.5653,-0.07305c0.26421,0.01092 0.39396,0.02787 0.44583,0.04843c-0.05406,-0.06389 -0.10352,-0.12567 -0.10333,-0.16454c0.00069,-0.13659 0.07367,-0.28378 -0.74355,-0.40617c-6.9464,-1.07881 -18.29942,-2.10574 -37.9644,-2.11129c0,0 -2.32061,-0.00066 -3.84966,-0.1173c-0.51,-0.02179 -0.90653,-0.04735 -1.17233,-0.07729c-0.06872,0.07356 -0.14059,0.1484 -0.14082,0.19312zM134.86289,239.81128c0.35194,0.07905 0.24865,-0.05201 0.13229,-0.18916c-0.0248,0.05948 -0.37284,0.13513 -0.13229,0.18916zM143.35832,238.6772c6.41475,0.96081 -8.16853,2.35781 -21.40526,1.70888c-12.48898,-0.61231 -16.71293,-1.83697 -28.11122,-2.26597c-3.85074,-0.14492 -8.46538,-0.22475 -11.34132,-0.46487c-4.55751,-0.38052 -2.52983,-1.67493 6.18928,-1.67248c6.27836,0.00177 9.36997,0.15475 15.21501,0.15639l2.58133,0.00073c0,0 2.96323,0.00083 4.39899,0.16893c15.29111,0.37721 25.09977,1.32733 32.47316,2.36838z" data-paper-data="{&quot;index&quot;:null}" fill="#000000" fill-rule="nonzero" stroke="none" stroke-width="0" stroke-linecap="butt"/><path d="M90.94327,236.70064c0.26561,0.02992 0.6624,0.05547 1.17244,0.07729c1.52904,0.11664 3.86019,0.11649 3.86019,0.11649c19.66494,0.00557 31.42788,1.05523 38.37421,2.13407c0.81725,0.12242 0.72169,0.27228 0.72101,0.40884c-0.00018,0.03887 0.03971,0.10153 0.09375,0.16542c-0.0518,-0.02058 -0.18028,-0.03761 -0.44458,-0.04856c-1.16748,-0.04828 -11.40845,0.24725 -12.6533,0.07812c-0.37414,-0.05083 1.5915,-0.09371 1.46973,-0.15095c-1.49586,-0.70375 -17.46976,-1.76669 -25.28565,-2.06087c-2.02717,-0.0763 -4.32249,-0.11349 -6.59138,-0.13157c0.88761,-0.10294 -0.87021,-0.26378 -0.86955,-0.39409c0.00022,-0.04472 0.08403,-0.12065 0.15293,-0.19418z" data-paper-data="{&quot;noHover&quot;:false,&quot;origItem&quot;:[&quot;Path&quot;,{&quot;applyMatrix&quot;:true,&quot;segments&quot;:[[[607.563,601.99816],[0.02649,0.38155],[-0.10299,0.15484]],[[607.10872,602.39727],[0.1976,-0.11227],[-0.59254,0.60273]],[[605.61718,603],[0,0],[-7.618,0]],[[590.90604,613.89443],[2.69308,-5.58508],[-0.31682,0.63364]],[[590.61718,616],[0,-0.70843],[0,0.20156]],[[590.57685,616.85325],[0.02106,-0.33136],[0.02013,-0.10671]],[[590.74964,616.60263],[-0.10238,0.05628],[0.45234,-0.24865]],[[595.61718,617],[-0.48256,0.87548],[0.14503,-0.26312]],[[594.95308,616.3906],[-0.04725,0.29671],[0.58086,-3.64773]],[[604.72276,605.71115],[-3.02833,1.51416],[0.78545,-0.39273]],[[607.27135,605.03032],[-0.87898,0.0905],[-0.34365,-0.53523]],[[607.61718,603],[0,0.6759],[0,-0.23192]]],&quot;closed&quot;:true}],&quot;index&quot;:null}" fill="#ffffff" fill-rule="nonzero" stroke="none" stroke-width="0" stroke-linecap="butt"/><g><path d="M583.58896,220.11655c0.30548,0.20594 0.40835,0.42761 0.31172,0.66505c-2.54985,0.02409 -5.04361,-0.00058 -7.48125,-0.07388c2.39087,0 4.77864,0 7.16953,0c0,-0.19708 0,-0.39409 0,-0.59114z" data-paper-data="{&quot;index&quot;:null}" fill="#6b6b6b" fill-rule="evenodd" stroke="none" stroke-width="0" stroke-linecap="butt"/><path d="M594.1874,220.48602c0.2899,0.07893 0.39589,0.17741 0.31172,0.29558c-3.17329,0.02417 -6.29048,-0.00045 -9.35156,-0.07388c3.01432,0 6.02552,0 9.03984,0c0,-0.07388 0,-0.14779 0,-0.22168z" data-paper-data="{&quot;index&quot;:null}" fill="#9e9e9e" fill-rule="evenodd" stroke="none" stroke-width="0" stroke-linecap="butt"/><path d="M502.54206,220.78158c2.54674,0 5.04049,0.02467 7.48125,0.07388c-5.01244,-0.02343 -9.99995,0.00119 -14.96252,0.07388c2.38152,-0.09835 4.87528,-0.14764 7.48125,-0.14779z" data-paper-data="{&quot;index&quot;:null}" fill="#484848" fill-rule="evenodd" stroke="none" stroke-width="0" stroke-linecap="butt"/><path d="M83.28014,221.29883c3.79611,-0.02424 7.53673,0.00038 11.22188,0.07388c-3.81888,-0.04538 -7.5595,0.00391 -11.22188,0.14779c0,-0.07388 0,-0.14779 0,-0.22168z" data-paper-data="{&quot;index&quot;:null}" fill="#838383" fill-rule="evenodd" stroke="none" stroke-width="0" stroke-linecap="butt"/><path d="M23.86418,179.64769l1.47565,0.05829l164.59665,0.5247v3.84844l95.364,0.01458v7.43339l49.18839,0.64131l0.49189,-4.37257l91.55189,0.5247v4.37257l29.51303,0.05829v14.9105l15.00246,0.16033l140.2484,0.27692l-1.96753,24.60305l-3.44319,0.02916l-323.98511,1.04943l-0.24594,-2.33498l-257.6242,-0.07287v-1.31176v-49.99313z" fill="#ffe800" fill-rule="nonzero" stroke="#000000" stroke-width="1" stroke-linecap="round"/><path d="M140.93421,207.91787l29.28309,0.14295v18.04614l-30.69432,0.14295l0.35281,-18.32311z" fill="#928b78" fill-rule="nonzero" stroke="#000000" stroke-width="1" stroke-linecap="round"/><path d="M132.35772,226.46765l-50.56643,-0.32336l1.28832,-18.74537l48.95603,0.28741z" fill="#928b78" fill-rule="nonzero" stroke="#000000" stroke-width="1" stroke-linecap="round"/><path d="M74.69809,226.52354l-16.175,-0.35267l-1.4516,-18.07366l16.58974,-0.38793z" fill="#928b78" fill-rule="nonzero" stroke="#000000" stroke-width="1" stroke-linecap="round"/><path d="M189.82375,180.17661l2.01613,25.63429l-168.16349,-0.65171l0.54985,-25.33015z" fill="#38ff00" fill-rule="nonzero" stroke="#000000" stroke-width="1" stroke-linecap="round"/><path d="M189.13717,180.28901l-180.02951,-0.58302l-6.82489,-3.08996l192.94147,1.63242l16.23217,3.78957l104.09493,0.17491l-2.21348,2.27374l-105.01721,-0.5247l-18.69159,0.17491z" fill="#8b8471" fill-rule="nonzero" stroke="#000000" stroke-width="1" stroke-linecap="round"/><path d="M314.07569,187.62034l-2.21348,-1.28263l139.69503,0.2915l-6.64043,1.80733l-129.36547,-0.64131" fill="#8b8471" fill-rule="nonzero" stroke="#000000" stroke-width="1" stroke-linecap="round"/><path d="M283.087,190.1856l52.1397,0.2915l-0.84551,1.51583l-50.16685,-0.2332z" fill="#8b8471" fill-rule="nonzero" stroke="#000000" stroke-width="1" stroke-linecap="round"/><path d="M425.73335,191.29332l63.69896,-0.64131l-5.16478,2.09883l-58.04231,0.11659z" fill="#8b8471" fill-rule="nonzero" stroke="#000000" stroke-width="1" stroke-linecap="round"/><path d="M456.59904,206.01433l-171.91343,-0.39608v-11.88206h51.34039v6.86049l90.70547,0.28953l-1.12111,-5.94765l30.98869,0.33948z" fill="#262626" fill-rule="nonzero" stroke="#000000" stroke-width="1" stroke-linecap="round"/><path d="M279.64481,207.31151l-0.73782,-1.86563l356.43138,0.46641l-3.93507,2.15715l-174.98871,-0.34982z" fill="#8b8471" fill-rule="nonzero" stroke="#000000" stroke-width="1" stroke-linecap="round"/><path d="M426.59513,188.26165l1.22971,12.70963l-92.22823,-0.5247l-0.49189,-12.59302z" fill="#38ff00" fill-rule="nonzero" stroke="#000000" stroke-width="1" stroke-linecap="round"/><path d="M352.51246,190.07166l56.1736,-0.06511l1.09875,9.11614l-57.82173,-0.19534z" fill="#515a61" fill-rule="nonzero" stroke="#000000" stroke-width="1" stroke-linecap="round"/><path d="M212.04412,212.43061h59.05783l0.54937,19.10071l-62.90345,-0.13024l0.27469,-19.13572z" fill="#ff0000" fill-rule="nonzero" stroke="#000000" stroke-width="1" stroke-linecap="round"/><path d="M226.19052,212.37115h32.13844l0.82407,19.14387l-33.78657,-0.03257l0.13735,-19.28226z" fill="#2d0d0e" fill-rule="nonzero" stroke="#000000" stroke-width="1" stroke-linecap="round"/><path d="M271.17061,225.60582h228.86105v7.36617l-218.75429,0.83837l-0.13735,-2.40927l-9.47672,0.03257l-0.27469,-5.63247" fill="#807165" fill-rule="nonzero" stroke="#000000" stroke-width="1" stroke-linecap="round"/><path d="M46.78059,205.44453l0.27469,25.92399l-23.89782,0.19534l0.68672,-26.37166l22.93641,0.03257z" fill="#807165" fill-rule="nonzero" stroke="#000000" stroke-width="1" stroke-linecap="round"/><path d="M173.27421,205.58288h18.02637l0.17168,25.84262l-17.44266,0.04069z" fill="#807165" fill-rule="nonzero" stroke="#000000" stroke-width="1" stroke-linecap="round"/><path d="M298.53173,233.71266v-18.75319l173.05315,0.03257l0.27469,18.13458z" fill="#928b78" fill-rule="nonzero" stroke="#000000" stroke-width="1" stroke-linecap="round"/><path d="M304.54052,233.78594l-0.41203,-17.7439l160.17717,0.03257l0.41203,17.0846z" fill="#38ff00" fill-rule="nonzero" stroke="#000000" stroke-width="1" stroke-linecap="round"/><path d="M500.11805,233.1592l-0.96141,-17.99622l79.96841,0.06511l-0.96141,17.67879z" fill="#928b78" fill-rule="nonzero" stroke="#000000" stroke-width="1" stroke-linecap="round"/><path d="M502.38422,233.28941v-17.01134l68.91224,0.06511l-1.2361,16.59624z" fill="#38ff00" fill-rule="nonzero" stroke="#000000" stroke-width="1" stroke-linecap="round"/><path d="M301.66093,197.99131l-2.33484,0.97673l-4.25766,-0.03257l-11.26219,-5.07899l-126.90565,-0.42325l-4.25766,-1.79066l137.89315,0.16278z" fill="#8b8471" fill-rule="nonzero" stroke="#000000" stroke-width="1" stroke-linecap="round"/><path d="M140.55206,182.27977l1.64812,13.98349l-77.49622,-0.03257l-0.27469,-14.50443z" fill="#515a61" fill-rule="nonzero" stroke="#000000" stroke-width="1" stroke-linecap="round"/><path d="M128.63749,225.57328l-43.12595,-0.29301l1.09875,-16.98693l41.7525,0.26047z" fill="#515a61" fill-rule="nonzero" stroke="#000000" stroke-width="1" stroke-linecap="round"/><path d="M71.7219,225.80118l-10.71282,-0.32558l-0.9614,-16.68577l10.9875,-0.35814z" fill="#515a61" fill-rule="nonzero" stroke="#000000" stroke-width="1" stroke-linecap="round"/><path d="M144.01997,208.73285l22.79906,0.13024v16.44159l-23.89781,0.13024l0.27469,-16.69392z" fill="#515a61" fill-rule="nonzero" stroke="#000000" stroke-width="1" stroke-linecap="round"/></g><path d="M266.7374,196.32602c-0.06886,0.25073 0.00324,0.4905 0.21652,0.71921c-0.01299,0.03004 -0.08508,0.04846 -0.21652,0.05532c-0.28406,-0.26655 -0.28406,-0.52475 0,-0.77453z" data-paper-data="{&quot;index&quot;:null}" fill="#9e9e9e" fill-rule="evenodd" stroke="none" stroke-width="0" stroke-linecap="butt"/><path d="M241.93693,194.88652h5.67459v1.56939l-0.94576,-1.34516z" fill="#736d42" fill-rule="evenodd" stroke="none" stroke-width="0" stroke-linecap="butt"/><path d="M210.38099,197.72266c0.2303,0 0.42369,0.00943 0.58609,0.02528c2.53071,-0.79191 6.76151,-1.1949 10.81448,-1.18201c0.68051,0.00217 5.0493,0.09575 5.75233,0.22579c1.54118,0.28504 2.05379,0.81887 3.14937,1.21631c4.54198,1.64763 5.31977,3.34597 0.40807,4.99988c-3.45876,0.49395 -6.25406,0.93433 -10.36086,0.91188c-11.63946,-0.06364 -14.77262,-3.42232 -11.71253,-5.76987l-0.07372,-0.06014c0,0 0,-0.36712 1.43679,-0.36712zM211.44232,198.63979c-1.92196,1.84244 0.10682,4.51509 9.27893,4.54573c3.39694,0.01135 5.58728,-0.34051 8.48976,-0.73286c3.8961,-1.35245 2.73031,-2.71885 -0.87536,-4.02121c-0.91642,-0.331 -1.22531,-0.78729 -2.46377,-1.04075c-1.08144,-0.22132 -2.75641,-0.08203 -4.14159,-0.09063c-3.39953,-0.02111 -7.58619,0.36329 -9.17377,1.14425c0,0 -0.39092,0.1798 -1.1142,0.19547z" data-paper-data="{&quot;index&quot;:null}" fill="#75dbff" fill-rule="nonzero" stroke="none" stroke-width="0" stroke-linecap="butt"/><path d="M212.51175,198.43509c1.58757,-0.78096 5.82161,-1.17081 9.22113,-1.1497c1.38519,0.0086 3.07981,-0.12958 4.16125,0.09177c1.23847,0.25346 1.56604,0.71298 2.48244,1.04398c3.60566,1.30236 4.76937,2.6899 0.8733,4.04235c-2.9025,0.39235 -5.13411,0.74807 -8.53104,0.73672c-9.17211,-0.03067 -11.24699,-2.72584 -9.32505,-4.56828c0.72328,-0.01569 1.11795,-0.1968 1.11795,-0.1968z" data-paper-data="{&quot;noHover&quot;:false,&quot;origItem&quot;:[&quot;Path&quot;,{&quot;applyMatrix&quot;:true,&quot;segments&quot;:[[[409.4867,271.35519],[1.25852,-0.10678],[-3.34423,12.54639]],[[425.63199,302.31001],[-15.95943,-0.20878],[5.91067,0.07732]],[[440.40413,297.31952],[-5.05034,2.67171],[6.7792,-9.20965]],[[438.881,269.93654],[6.27385,8.86861],[-1.59451,-2.25397]],[[434.59405,262.84941],[2.15492,1.72602],[-1.88172,-1.50719]],[[427.3877,262.23225],[2.4102,0.05859],[-5.91515,-0.1438]],[[411.4254,270.0241],[2.76238,-5.31806],[0,0]]],&quot;closed&quot;:true}],&quot;index&quot;:null}" fill="#ff0000" fill-rule="nonzero" stroke="none" stroke-width="0" stroke-linecap="butt"/><path d="M245.01954,197.51373c3.84852,-0.34215 8.09747,0.0368 11.98494,0.39948c0.91883,0.08571 4.11387,0.33302 4.83263,0.58998c1.73039,0.61861 1.55353,1.62899 1.86624,2.348c0.29339,0.67461 0.87652,1.33126 -0.91547,1.92556c-3.13895,1.041 -7.87289,1.41473 -12.60766,1.73655c-2.18712,0.06664 -4.14864,0.24148 -6.1682,-0.13631c-1.21965,-0.22816 -2.41076,-0.98952 -2.99129,-1.32218c-1.9755,-1.13201 -5.16204,-2.61682 -3.48967,-3.91171c0.56682,-0.43886 3.45026,-0.95942 4.44459,-1.35318l1.7368,-0.25686c0,0 0.67433,-0.09464 1.30712,-0.01932zM243.49734,198.46029c-0.98323,0.27094 -3.13818,0.79549 -3.25471,0.92583c-1.04127,1.1646 1.64864,2.35771 3.40689,3.3721c0.13897,0.08019 1.4949,0.90837 2.06621,1.02743c0.92941,0.1937 3.15207,0.03405 3.91093,0.00709c4.20496,-0.28731 7.93205,-0.59172 10.87651,-1.46137c1.22934,-0.36309 0.52019,-0.99746 0.34432,-1.39884c-0.24066,-0.54932 0.00429,-1.47651 -1.23263,-1.96388c-0.70184,-0.27654 -2.38357,-0.25278 -3.59544,-0.36571c-3.45236,-0.32169 -8.2376,-0.84094 -11.46988,-0.21444c0,0 -0.48436,0.08841 -1.05224,0.07174z" data-paper-data="{&quot;index&quot;:null}" fill="#75dbff" fill-rule="nonzero" stroke="none" stroke-width="0" stroke-linecap="butt"/><path d="M244.52013,198.37591c3.23228,-0.62651 8.07575,-0.10736 11.52812,0.21436c1.21186,0.11293 2.90793,0.0922 3.6098,0.36874c1.2369,0.48737 1.00622,1.42394 1.24689,1.97326c0.17584,0.40138 0.87832,1.04294 -0.35105,1.40603c-2.94446,0.86962 -6.7274,1.18178 -10.93239,1.46909c-0.75885,0.02697 -2.99985,0.1854 -3.92924,-0.00832c-0.5713,-0.11909 -1.94448,-0.95029 -2.0835,-1.03048c-1.75824,-1.01439 -4.45661,-2.22546 -3.41535,-3.39006c0.11653,-0.13034 2.2871,-0.65922 3.27032,-0.93016c0.56787,0.01665 1.05636,-0.07245 1.05636,-0.07245z" data-paper-data="{&quot;noHover&quot;:false,&quot;origItem&quot;:[&quot;Path&quot;,{&quot;applyMatrix&quot;:true,&quot;segments&quot;:[[[465.26223,270.13291],[0.98811,0.11339],[-1.71083,1.84504]],[[459.59907,276.43751],[0.20277,-0.88758],[-1.81178,7.93053]],[[465.52703,299.40029],[-3.05933,-6.90758],[0.24182,0.54599]],[[469.12222,306.39679],[-0.99407,-0.81085],[1.61715,1.31908]],[[475.92722,306.44514],[-1.32039,0.18358],[7.31661,-1.95648]],[[494.85229,296.49376],[-5.12332,5.92193],[2.13908,-2.47252]],[[495.45142,286.96818],[0.30597,2.73324],[-0.41874,-3.7406]],[[493.30665,273.59497],[2.15221,3.31878],[-1.22123,-1.88318]],[[487.05062,271.1046],[2.10865,0.76899],[-6.0071,-2.19068]],[[467.0931,269.64433],[5.62415,-4.26625],[0,0]]],&quot;closed&quot;:true}],&quot;index&quot;:null}" fill="#ff0000" fill-rule="nonzero" stroke="none" stroke-width="0" stroke-linecap="butt"/><path d="M227.49907,200.42262c0,-0.32442 1.02922,-0.58741 2.29886,-0.58741c1.26963,0 2.29886,0.26299 2.29886,0.58741c0,0.32442 -1.02923,0.58741 -2.29886,0.58741c-1.26963,0 -2.29886,-0.26299 -2.29886,-0.58741z" data-paper-data="{&quot;index&quot;:null}" fill="#ff0000" fill-rule="nonzero" stroke="none" stroke-width="0" stroke-linecap="butt"/><path d="M256.87772,200.99442c0,-0.32442 1.02922,-0.58741 2.29886,-0.58741c1.26963,0 2.29886,0.26299 2.29886,0.58741c0,0.32442 -1.02923,0.58741 -2.29886,0.58741c-1.26963,0 -2.29886,-0.26299 -2.29886,-0.58741z" data-paper-data="{&quot;index&quot;:null}" fill="#ff0000" fill-rule="nonzero" stroke="none" stroke-width="0" stroke-linecap="butt"/><path d="M184.59694,187.00117c0.63758,-0.24438 1.59397,-0.08145 1.59397,-0.08145l0.46863,0.07984c5.08723,0.8666 9.93164,1.79313 14.79435,2.73982c10.70547,2.08415 22.50179,3.94367 32.03877,6.38056c0,0 0.81277,0.20768 0,0.41535c-0.81277,0.20768 -1.62554,0 -1.62554,0c-9.4608,-2.41742 -21.18593,-4.26105 -31.80643,-6.32867c-4.82446,-0.93924 -9.62926,-1.85856 -14.67633,-2.7183l-0.46862,-0.07984c0,0 -0.95639,-0.1629 -0.3188,-0.40728z" data-paper-data="{&quot;index&quot;:null}" fill="#75dbff" fill-rule="nonzero" stroke="none" stroke-width="0" stroke-linecap="butt"/><path d="M293.74984,183.44947c0.9742,0.15586 0.36424,0.40481 0.36424,0.40481l-0.6537,0.26567c-6.33538,1.98171 -13.97532,3.57092 -20.86271,5.41087c-9.46756,2.52924 -18.69518,5.21038 -29.05475,7.48972c0,0 -0.87272,0.19113 -1.62074,-0.03186c-0.74803,-0.22299 0.12467,-0.41412 0.12467,-0.41412c10.33337,-2.25172 19.48516,-4.93737 28.88952,-7.44974c6.81246,-1.81994 14.37909,-3.39036 20.65648,-5.34738l0.57281,-0.23487c0,0 0.60998,-0.24892 1.58423,-0.09305z" data-paper-data="{&quot;index&quot;:null}" fill="#75dbff" fill-rule="nonzero" stroke="none" stroke-width="0" stroke-linecap="butt"/><path d="M201.44566,204.34702c-0.14647,-0.02548 -0.26958,-0.06833 -0.26958,-0.14038c0,-0.17778 0.75,-0.17778 0.75,-0.17778l1.02909,0.17778c0,0.89921 -1.06045,1.60937 -1.8238,2.47642c-0.90828,1.03164 1.29971,2.21855 3.95633,2.98381c2.14412,0.36026 4.37366,0.43604 6.75419,0.66074c6.36138,0.60048 12.10192,0.65173 18.8348,0.8137c9.49173,-0.00146 20.24092,0.02863 28.74321,-1.12359c8.09985,-1.09163 6.6588,-3.36943 5.53708,-5.22357c0,0 -0.10607,-0.17599 0.63639,-0.20114c0.74246,-0.02515 0.84853,0.15087 0.84853,0.15087c1.21306,2.02124 2.44753,4.39517 -6.2778,5.58257c-8.76097,1.1862 -19.77932,1.17141 -29.56275,1.17c-6.89883,-0.16386 -12.81101,-0.22685 -19.33349,-0.84031c-2.55417,-0.24024 -4.89917,-0.3366 -7.2006,-0.72862c-3.05011,-0.85863 -5.34133,-2.14032 -4.41654,-3.30139c0.64138,-0.80525 1.68468,-1.46412 1.79493,-2.27908z" fill="#75dbff" fill-rule="nonzero" stroke="none" stroke-width="0.5" stroke-linecap="butt"/></g></g></g></svg>