<svg version="1.1" xmlns="http://www.w3.org/2000/svg" xmlns:xlink="http://www.w3.org/1999/xlink" width="2878.25006" height="1619.57958" viewBox="0,0,2878.25006,1619.57958"><g transform="translate(1117.37278,629.80931)"><g data-paper-data="{&quot;isPaintingLayer&quot;:true}" stroke-linejoin="miter" stroke-miterlimit="10" stroke-dasharray="" stroke-dashoffset="0" style="mix-blend-mode: normal"><path d="M-1117.37278,989.77027v-1619.57958h2878.25006v1619.57958z" fill="none" fill-rule="nonzero" stroke="#000000" stroke-width="0" stroke-linecap="butt"/><g><path d="M371.77626,210.61918l-19.76914,0.40043l93.69715,-0.00232l33.57674,-0.3967z" data-paper-data="{&quot;index&quot;:null}" fill="#cedce9" fill-rule="nonzero" stroke="#000000" stroke-width="0" stroke-linecap="round"/><path d="M488.1911,210.64153c-2.53537,-0.00443 -5.02815,-0.00697 -7.49601,-0.00882c0.01679,-0.00067 0.02551,-0.00138 0.02559,-0.00211c0.00194,-0.01788 -5.1608,-0.01795 -5.1608,-0.01795c-22.80221,-0.0003 -45.60433,-0.0006 -68.40647,-0.0009c-5.86765,-0.00008 -20.46882,0.00784 -24.79534,-0.00291c-2.49217,-0.00619 -4.27685,-0.00561 -7.47097,-0.00646c-0.36051,-0.0001 -1.01625,-0.0003 -1.59566,-0.00043c3.08953,-0.0076 1.60419,-0.0782 1.60635,-0.09793c0.00908,-0.08346 0.01812,-0.16691 0.0272,-0.25037c0.0016,-0.0149 0.00322,-0.02981 0.00485,-0.04471c0.00065,-0.00596 -0.90552,-0.02296 0.00194,-0.01788c3.45256,0.01931 10.19566,0.00904 18.06866,0.00918c15.51938,0.00027 32.13396,0.00624 47.37744,-0.00323c27.83585,-0.01892 57.75828,0.01228 85.37226,-0.00884c23.25749,-0.01983 51.09544,-0.02128 75.05495,-0.02097c6.02327,0.00008 12.04642,0.00016 18.06966,0.00024c0.90625,0.00001 2.32912,0.00045 3.80233,0.00094c-1.48298,0.00915 0.06626,0.03136 0.06491,0.04382c-0.00505,0.04656 4.49192,0.12694 -1.04401,0.16869c-4.89362,0.05073 -7.99102,0.0996 -15.97006,0.15015c-5.88716,0.0373 -15.04909,0.07031 -19.9208,0.10738c-2.3623,0.0221 -4.47318,0.00625 -12.15878,0.01127c-17.00624,0.01111 -34.0612,0.00849 -51.62851,0.00826c-6.4034,-0.00008 -14.44505,-0.00469 -20.65104,-0.00027c-1.31004,0.00093 -3.77221,0.00443 -5.6178,0.0073c3.37603,-0.00899 -4.32441,-0.01783 -7.55991,-0.02347zM407.1492,210.64752c17.23319,0.00023 34.46634,0.00045 51.69948,0.00068c0.49704,0.00087 0.99398,0.00173 1.49101,0.0026c6.54685,0.01143 12.45893,0.0085 18.06825,0.01365c7.64435,0.00702 12.21475,0.03038 20.10212,0.03603c4.53093,0.00325 17.08239,-0.00683 23.50567,-0.00674c17.41699,0.00023 34.81452,0.00391 51.62851,-0.00826c9.44543,-0.00684 17.42579,0.00684 21.84711,-0.03452c0.65281,-0.01573 5.86528,-0.02549 8.59232,-0.03756c4.16756,-0.01844 7.65219,-0.04579 10.87776,-0.06623c7.99617,-0.05066 11.5153,-0.10283 16.53092,-0.15483c4.48318,-0.05482 1.56901,-0.12291 1.5752,-0.18c0.00344,-0.03156 1.44189,-0.05379 -5.15399,-0.08054c-2.30007,-0.00933 -23.55962,-0.00031 -27.10445,-0.00036c-24.71307,-0.00032 -53.58879,0.00156 -77.5594,0.022c-26.33426,0.02632 -57.67394,-0.01003 -84.8929,0.00847c-21.93438,0.01682 -55.78304,-0.02921 -73.75043,0.02902c-1.77886,0.00576 -0.00578,0.05306 -0.00681,0.06259c-0.00908,0.08346 -0.01812,0.16691 -0.0272,0.25037c-0.00301,0.0279 -3.56112,0.09447 1.82327,0.11532c9.39607,0.03638 26.98922,0.02812 40.75383,0.0283z" data-paper-data="{&quot;index&quot;:null}" fill="#000000" fill-rule="nonzero" stroke="none" stroke-width="0" stroke-linecap="butt"/><path d="M480.62287,210.63357c2.46783,0.00184 4.99065,0.00441 7.52614,0.00884c3.23549,0.00565 10.96657,0.0145 7.59043,0.02348c1.84557,-0.00287 4.3283,-0.00637 5.63821,-0.0073c6.206,-0.00442 14.31973,0.00014 20.72296,0.00023c17.56722,0.00023 34.73294,0.0026 51.73914,-0.00851c7.68559,-0.00502 9.81249,0.01076 12.17477,-0.01134c4.87175,-0.03707 14.0724,-0.07034 19.95963,-0.10764c7.97906,-0.05055 11.08711,-0.09976 15.98073,-0.15049c5.53599,-0.04176 1.01478,-0.12244 1.01984,-0.169c0.00134,-0.01246 -1.55753,-0.03473 -0.07451,-0.04389c-1.47309,-0.00048 -2.89793,-0.00094 -3.80425,-0.00095c-6.02325,-0.00008 -12.05696,-0.00021 -18.0802,-0.00029c-23.95963,-0.00031 -51.91057,0.00082 -75.16808,0.02066c-27.61399,0.02112 -57.80997,-0.00991 -85.64586,0.00901c-15.24347,0.00947 -31.90507,0.00371 -47.42446,0.00344c-7.87299,-0.00014 -14.62221,0.01017 -18.07478,-0.00914c-0.90746,-0.00508 -0.00517,0.01195 -0.00583,0.01791c-0.00162,0.0149 -0.01208,0.02988 -0.01371,0.04478c-0.00904,0.08346 -0.02892,0.16741 -0.038,0.25086c-0.00216,0.01973 1.49884,0.09051 -1.59071,0.0981c0.57949,0.00013 1.2357,0.00034 1.59627,0.00043c3.19401,0.00085 4.98276,0.00029 7.47484,0.00649c4.32652,0.01075 18.94091,0.00291 24.80854,0.00299c22.80227,0.0003 45.7259,0.00096 68.52805,0.00126c0,0 5.18809,0.0001 5.18615,0.01798c-0.00008,0.00073 -0.0082,0.00144 -0.025,0.00211z" data-paper-data="{&quot;noHover&quot;:false,&quot;origItem&quot;:[&quot;Path&quot;,{&quot;applyMatrix&quot;:true,&quot;segments&quot;:[[[579.60736,595.76373],[0.95609,-0.20262],[0.00646,0.07548]],[[579.61718,596],[0,-0.08208],[0,2]],[[577.61718,598],[0,0],[-8.83333,0]],[[551.11718,598],[8.83333,0],[-2.27308,0]],[[541.51161,598.28885],[1.67648,-1.19621],[-0.96568,0.68904]],[[538.61718,599],[1.23739,-0.09027],[-0.13966,0.01019]],[[537.99901,599.04541],[0.22447,-0.0134],[1.19653,0.85421]],[[538.61718,610],[0,-2.20646],[0,9.33333]],[[538.61718,638],[0,-9.33333],[0,1.66667]],[[538.61718,643],[0,-1.66667],[0,0.66667]],[[538.61718,645],[-0.35177,0.56631],[1.33831,-2.15456]],[[545.61718,644],[-3.04994,0.00386],[6.01206,-0.00761]],[[563.97058,644.43107],[-5.90478,-1.08158],[10.78253,2.15651]],[[597.04254,645.54479],[-10.6965,-2.40266],[9.00888,2.25222]],[[626.11718,648],[-9.28168,0],[2.33333,0]],[[633.11718,648],[-2.33333,0],[0.35109,0]],[[634.59021,647.90091],[-0.5707,0.05184],[-0.57412,-1.02596]],[[634.61718,643],[0,1.39387],[0,-5.20707]],[[634.21982,624.13246],[2.14282,4.67827],[-1.8936,-5.6808]],[[628.03948,607.31672],[3.08887,5.66543],[-2.2791,-4.1802]],[[620.32688,595.27881],[1.8857,4.15235],[-0.91417,-2.47477]],[[615.61718,594],[2.9771,0.57275],[-6.58756,-1.26734]],[[595.61718,593],[6.8054,0],[-2.48058,0]],[[587.61718,593],[2.40395,0.50364],[-0.50743,-0.10631]],[[585.44122,592.1748],[0.71481,0.32365],[1.30749,1.01011]],[[582.51161,594.78885],[1.25365,-0.62682],[-0.98239,0.4912]]],&quot;closed&quot;:true}],&quot;index&quot;:null}" fill="#c9c9c9" fill-rule="nonzero" stroke="none" stroke-width="0" stroke-linecap="butt"/><path d="M553.00602,210.56896c-0.00023,0.00207 -0.0721,0.00555 -0.14082,0.00896c-0.26581,-0.00139 -0.66232,-0.00257 -1.17233,-0.00358c-1.52905,-0.00541 -3.84966,-0.00544 -3.84966,-0.00544c-19.66498,-0.00026 -31.018,-0.04788 -37.9644,-0.09791c-0.81722,-0.00568 -0.74424,-0.0125 -0.74355,-0.01884c0.00019,-0.0018 -0.04928,-0.00467 -0.10333,-0.00763c0.05187,0.00095 0.18162,0.00174 0.44583,0.00225c1.16745,0.00224 11.32048,-0.01123 12.5653,-0.00339c0.37411,0.00236 -1.83653,0.00277 -1.71489,0.00543c1.49592,0.03264 17.39306,0.08218 25.20886,0.09582c2.02712,0.00354 4.30933,0.00534 6.5782,0.00617c-0.88762,0.00477 0.89142,0.01212 0.89075,0.01817zM509.00481,210.44303c-0.11636,-0.00636 -0.21964,-0.01244 0.1323,-0.00877c0.24055,0.0025 -0.1075,0.00601 -0.1323,0.00877zM500.64169,210.48685c7.37339,0.04828 17.18205,0.09234 32.47316,0.10984c1.43576,0.0078 4.39899,0.00783 4.39899,0.00783l2.58133,0.00003c5.84505,0.00008 8.93666,0.00717 15.21502,0.00725c8.71911,0.00011 10.7468,-0.05992 6.18928,-0.07756c-2.87593,-0.01114 -7.49058,-0.01484 -11.34132,-0.02156c-11.39829,-0.0199 -15.62223,-0.07669 -28.11122,-0.10509c-13.23673,-0.0301 -27.82001,0.03469 -21.40526,0.07925z" data-paper-data="{&quot;index&quot;:null}" fill="#000000" fill-rule="nonzero" stroke="none" stroke-width="0" stroke-linecap="butt"/><path d="M553.05695,210.57852c0.0689,-0.00341 0.15272,-0.00693 0.15293,-0.00901c0.00065,-0.00604 -1.75717,-0.0135 -0.86956,-0.01828c-2.2689,-0.00084 -4.56421,-0.00256 -6.59138,-0.0061c-7.81589,-0.01364 -23.78979,-0.06294 -25.28565,-0.09557c-0.12176,-0.00265 1.84386,-0.00464 1.46973,-0.007c-1.24485,-0.00784 -11.48582,0.00586 -12.6533,0.00362c-0.2643,-0.00051 -0.39279,-0.0013 -0.44459,-0.00225c0.05405,0.00296 0.09394,0.00587 0.09375,0.00767c-0.00068,0.00633 -0.09624,0.01328 0.72101,0.01896c6.94633,0.05003 18.70926,0.09871 38.37421,0.09897c0,0 2.33114,-0.00001 3.86018,0.0054c0.51004,0.00101 0.90682,0.0022 1.17243,0.00358z" data-paper-data="{&quot;noHover&quot;:false,&quot;origItem&quot;:[&quot;Path&quot;,{&quot;applyMatrix&quot;:true,&quot;segments&quot;:[[[607.563,601.99816],[0.02649,0.38155],[-0.10299,0.15484]],[[607.10872,602.39727],[0.1976,-0.11227],[-0.59254,0.60273]],[[605.61718,603],[0,0],[-7.618,0]],[[590.90604,613.89443],[2.69308,-5.58508],[-0.31682,0.63364]],[[590.61718,616],[0,-0.70843],[0,0.20156]],[[590.57685,616.85325],[0.02106,-0.33136],[0.02013,-0.10671]],[[590.74964,616.60263],[-0.10238,0.05628],[0.45234,-0.24865]],[[595.61718,617],[-0.48256,0.87548],[0.14503,-0.26312]],[[594.95308,616.3906],[-0.04725,0.29671],[0.58086,-3.64773]],[[604.72276,605.71115],[-3.02833,1.51416],[0.78545,-0.39273]],[[607.27135,605.03032],[-0.87898,0.0905],[-0.34365,-0.53523]],[[607.61718,603],[0,0.6759],[0,-0.23192]]],&quot;closed&quot;:true}],&quot;index&quot;:null}" fill="#ffffff" fill-rule="nonzero" stroke="none" stroke-width="0" stroke-linecap="butt"/><path d="M371.77627,210.61918l-19.76914,0.40043l93.69715,-0.00232l33.57674,-0.3967z" data-paper-data="{&quot;index&quot;:null}" fill="#cedce9" fill-rule="nonzero" stroke="#000000" stroke-width="0" stroke-linecap="round"/><path d="M488.1911,210.64153c-2.53537,-0.00443 -5.02815,-0.00697 -7.49601,-0.00882c0.01679,-0.00067 0.02551,-0.00138 0.02559,-0.00211c0.00194,-0.01788 -5.1608,-0.01795 -5.1608,-0.01795c-22.80221,-0.0003 -45.60433,-0.0006 -68.40647,-0.0009c-5.86765,-0.00008 -20.46882,0.00784 -24.79534,-0.00291c-2.49217,-0.00619 -4.27685,-0.00561 -7.47097,-0.00646c-0.36051,-0.0001 -1.01625,-0.0003 -1.59566,-0.00043c3.08953,-0.0076 1.60419,-0.0782 1.60635,-0.09793c0.00908,-0.08346 0.01812,-0.16691 0.0272,-0.25037c0.0016,-0.0149 0.00322,-0.02981 0.00485,-0.04471c0.00065,-0.00596 -0.90552,-0.02296 0.00194,-0.01788c3.45256,0.01931 10.19566,0.00904 18.06866,0.00918c15.51938,0.00027 32.13396,0.00624 47.37744,-0.00323c27.83585,-0.01892 57.75828,0.01228 85.37226,-0.00884c23.25749,-0.01983 51.09544,-0.02128 75.05495,-0.02097c6.02327,0.00008 12.04642,0.00016 18.06966,0.00024c0.90625,0.00001 2.32912,0.00045 3.80233,0.00094c-1.48298,0.00915 0.06626,0.03136 0.06491,0.04382c-0.00505,0.04656 4.49192,0.12694 -1.04401,0.16869c-4.89362,0.05073 -7.99102,0.0996 -15.97006,0.15015c-5.88716,0.0373 -15.04909,0.07031 -19.9208,0.10738c-2.3623,0.0221 -4.47318,0.00625 -12.15878,0.01127c-17.00624,0.01111 -34.0612,0.00849 -51.62851,0.00826c-6.4034,-0.00008 -14.44505,-0.00469 -20.65104,-0.00027c-1.31004,0.00093 -3.77221,0.00443 -5.6178,0.0073c3.37603,-0.00899 -4.32441,-0.01783 -7.55991,-0.02347zM407.14921,210.64752c17.23319,0.00023 34.46634,0.00045 51.69948,0.00068c0.49704,0.00087 0.99398,0.00173 1.49101,0.0026c6.54685,0.01143 12.45893,0.0085 18.06825,0.01365c7.64435,0.00702 12.21475,0.03038 20.10212,0.03603c4.53093,0.00325 17.08239,-0.00683 23.50567,-0.00674c17.41699,0.00023 34.81452,0.00391 51.62851,-0.00826c9.44543,-0.00684 17.42579,0.00684 21.84711,-0.03452c0.65281,-0.01573 5.86528,-0.02549 8.59232,-0.03756c4.16756,-0.01844 7.65219,-0.04579 10.87776,-0.06623c7.99617,-0.05066 11.5153,-0.10283 16.53092,-0.15483c4.48318,-0.05482 1.56901,-0.12291 1.5752,-0.18c0.00344,-0.03156 1.44189,-0.05379 -5.15399,-0.08054c-2.30007,-0.00933 -23.55962,-0.00031 -27.10445,-0.00036c-24.71307,-0.00032 -53.58879,0.00156 -77.5594,0.022c-26.33426,0.02632 -57.67394,-0.01003 -84.8929,0.00847c-21.93438,0.01682 -55.78304,-0.02921 -73.75043,0.02902c-1.77886,0.00576 -0.00578,0.05306 -0.00681,0.06259c-0.00908,0.08346 -0.01812,0.16691 -0.0272,0.25037c-0.00301,0.0279 -3.56112,0.09447 1.82327,0.11532c9.39607,0.03638 26.98922,0.02812 40.75383,0.0283z" data-paper-data="{&quot;index&quot;:null}" fill="#000000" fill-rule="nonzero" stroke="none" stroke-width="0" stroke-linecap="butt"/><path d="M480.62287,210.63357c2.46783,0.00184 4.99065,0.00441 7.52614,0.00884c3.23549,0.00565 10.96657,0.0145 7.59043,0.02348c1.84557,-0.00287 4.3283,-0.00637 5.63821,-0.0073c6.206,-0.00442 14.31973,0.00014 20.72296,0.00023c17.56722,0.00023 34.73294,0.0026 51.73914,-0.00851c7.68559,-0.00502 9.81249,0.01076 12.17477,-0.01134c4.87175,-0.03707 14.0724,-0.07034 19.95963,-0.10764c7.97906,-0.05055 11.08711,-0.09976 15.98073,-0.15049c5.53599,-0.04176 1.01478,-0.12244 1.01984,-0.169c0.00134,-0.01246 -1.55753,-0.03473 -0.07451,-0.04389c-1.47309,-0.00048 -2.89793,-0.00094 -3.80425,-0.00095c-6.02325,-0.00008 -12.05696,-0.00021 -18.0802,-0.00029c-23.95963,-0.00031 -51.91057,0.00082 -75.16808,0.02066c-27.61399,0.02112 -57.80997,-0.00991 -85.64586,0.00901c-15.24347,0.00947 -31.90507,0.00371 -47.42446,0.00344c-7.87299,-0.00014 -14.62221,0.01017 -18.07478,-0.00914c-0.90746,-0.00508 -0.00517,0.01195 -0.00583,0.01791c-0.00162,0.0149 -0.01208,0.02988 -0.01371,0.04478c-0.00904,0.08346 -0.02892,0.16741 -0.038,0.25086c-0.00216,0.01973 1.49884,0.09051 -1.59071,0.0981c0.57949,0.00013 1.2357,0.00034 1.59627,0.00043c3.19401,0.00085 4.98276,0.00029 7.47484,0.00649c4.32652,0.01075 18.94091,0.00291 24.80854,0.00299c22.80227,0.0003 45.7259,0.00096 68.52805,0.00126c0,0 5.18809,0.0001 5.18615,0.01798c-0.00008,0.00073 -0.0082,0.00144 -0.025,0.00211z" data-paper-data="{&quot;noHover&quot;:false,&quot;origItem&quot;:[&quot;Path&quot;,{&quot;applyMatrix&quot;:true,&quot;segments&quot;:[[[579.60736,595.76373],[0.95609,-0.20262],[0.00646,0.07548]],[[579.61718,596],[0,-0.08208],[0,2]],[[577.61718,598],[0,0],[-8.83333,0]],[[551.11718,598],[8.83333,0],[-2.27308,0]],[[541.51161,598.28885],[1.67648,-1.19621],[-0.96568,0.68904]],[[538.61718,599],[1.23739,-0.09027],[-0.13966,0.01019]],[[537.99901,599.04541],[0.22447,-0.0134],[1.19653,0.85421]],[[538.61718,610],[0,-2.20646],[0,9.33333]],[[538.61718,638],[0,-9.33333],[0,1.66667]],[[538.61718,643],[0,-1.66667],[0,0.66667]],[[538.61718,645],[-0.35177,0.56631],[1.33831,-2.15456]],[[545.61718,644],[-3.04994,0.00386],[6.01206,-0.00761]],[[563.97058,644.43107],[-5.90478,-1.08158],[10.78253,2.15651]],[[597.04254,645.54479],[-10.6965,-2.40266],[9.00888,2.25222]],[[626.11718,648],[-9.28168,0],[2.33333,0]],[[633.11718,648],[-2.33333,0],[0.35109,0]],[[634.59021,647.90091],[-0.5707,0.05184],[-0.57412,-1.02596]],[[634.61718,643],[0,1.39387],[0,-5.20707]],[[634.21982,624.13246],[2.14282,4.67827],[-1.8936,-5.6808]],[[628.03948,607.31672],[3.08887,5.66543],[-2.2791,-4.1802]],[[620.32688,595.27881],[1.8857,4.15235],[-0.91417,-2.47477]],[[615.61718,594],[2.9771,0.57275],[-6.58756,-1.26734]],[[595.61718,593],[6.8054,0],[-2.48058,0]],[[587.61718,593],[2.40395,0.50364],[-0.50743,-0.10631]],[[585.44122,592.1748],[0.71481,0.32365],[1.30749,1.01011]],[[582.51161,594.78885],[1.25365,-0.62682],[-0.98239,0.4912]]],&quot;closed&quot;:true}],&quot;index&quot;:null}" fill="#c9c9c9" fill-rule="nonzero" stroke="none" stroke-width="0" stroke-linecap="butt"/><path d="M553.00603,210.56896c-0.00023,0.00207 -0.0721,0.00555 -0.14082,0.00896c-0.26581,-0.00139 -0.66232,-0.00257 -1.17233,-0.00358c-1.52905,-0.00541 -3.84966,-0.00544 -3.84966,-0.00544c-19.66498,-0.00026 -31.018,-0.04788 -37.9644,-0.09791c-0.81722,-0.00568 -0.74424,-0.0125 -0.74355,-0.01884c0.00019,-0.0018 -0.04928,-0.00467 -0.10333,-0.00763c0.05187,0.00095 0.18162,0.00174 0.44583,0.00225c1.16745,0.00224 11.32048,-0.01123 12.5653,-0.00339c0.37411,0.00236 -1.83653,0.00277 -1.71489,0.00543c1.49592,0.03264 17.39306,0.08218 25.20886,0.09582c2.02712,0.00354 4.30933,0.00534 6.5782,0.00617c-0.88762,0.00477 0.89142,0.01212 0.89075,0.01817zM509.00481,210.44303c-0.11636,-0.00636 -0.21964,-0.01244 0.1323,-0.00877c0.24055,0.0025 -0.1075,0.00601 -0.1323,0.00877zM500.64169,210.48685c7.37339,0.04828 17.18205,0.09234 32.47316,0.10984c1.43576,0.0078 4.39899,0.00783 4.39899,0.00783l2.58133,0.00003c5.84505,0.00008 8.93666,0.00717 15.21502,0.00725c8.71911,0.00011 10.7468,-0.05992 6.18928,-0.07756c-2.87593,-0.01114 -7.49058,-0.01484 -11.34132,-0.02156c-11.39829,-0.0199 -15.62223,-0.07669 -28.11122,-0.10509c-13.23673,-0.0301 -27.82001,0.03469 -21.40526,0.07925z" data-paper-data="{&quot;index&quot;:null}" fill="#000000" fill-rule="nonzero" stroke="none" stroke-width="0" stroke-linecap="butt"/><path d="M553.05695,210.57852c0.0689,-0.00341 0.15272,-0.00693 0.15293,-0.00901c0.00065,-0.00604 -1.75717,-0.0135 -0.86956,-0.01828c-2.2689,-0.00084 -4.56421,-0.00256 -6.59138,-0.0061c-7.81589,-0.01364 -23.78979,-0.06294 -25.28565,-0.09557c-0.12176,-0.00265 1.84386,-0.00464 1.46973,-0.007c-1.24485,-0.00784 -11.48582,0.00586 -12.6533,0.00362c-0.2643,-0.00051 -0.39279,-0.0013 -0.44459,-0.00225c0.05405,0.00296 0.09394,0.00587 0.09375,0.00767c-0.00068,0.00633 -0.09624,0.01328 0.72101,0.01896c6.94633,0.05003 18.70926,0.09871 38.37421,0.09897c0,0 2.33114,-0.00001 3.86018,0.0054c0.51004,0.00101 0.90682,0.0022 1.17243,0.00358z" data-paper-data="{&quot;noHover&quot;:false,&quot;origItem&quot;:[&quot;Path&quot;,{&quot;applyMatrix&quot;:true,&quot;segments&quot;:[[[607.563,601.99816],[0.02649,0.38155],[-0.10299,0.15484]],[[607.10872,602.39727],[0.1976,-0.11227],[-0.59254,0.60273]],[[605.61718,603],[0,0],[-7.618,0]],[[590.90604,613.89443],[2.69308,-5.58508],[-0.31682,0.63364]],[[590.61718,616],[0,-0.70843],[0,0.20156]],[[590.57685,616.85325],[0.02106,-0.33136],[0.02013,-0.10671]],[[590.74964,616.60263],[-0.10238,0.05628],[0.45234,-0.24865]],[[595.61718,617],[-0.48256,0.87548],[0.14503,-0.26312]],[[594.95308,616.3906],[-0.04725,0.29671],[0.58086,-3.64773]],[[604.72276,605.71115],[-3.02833,1.51416],[0.78545,-0.39273]],[[607.27135,605.03032],[-0.87898,0.0905],[-0.34365,-0.53523]],[[607.61718,603],[0,0.6759],[0,-0.23192]]],&quot;closed&quot;:true}],&quot;index&quot;:null}" fill="#ffffff" fill-rule="nonzero" stroke="none" stroke-width="0" stroke-linecap="butt"/><path d="M164.71899,210.64258l33.57675,0.3967l93.69714,0.00232l-19.76914,-0.40043z" data-paper-data="{&quot;index&quot;:null}" fill="#cedce9" fill-rule="nonzero" stroke="#000000" stroke-width="0" stroke-linecap="round"/><path d="M155.80894,210.66352c-3.2355,0.00565 -10.93595,0.01449 -7.55991,0.02347c-1.84559,-0.00287 -4.30777,-0.00637 -5.61781,-0.0073c-6.20599,-0.00442 -14.24765,0.00019 -20.65104,0.00027c-17.56731,0.00023 -34.62226,0.00285 -51.62851,-0.00826c-7.68561,-0.00502 -9.79648,0.01082 -12.15878,-0.01127c-4.8717,-0.03707 -14.03364,-0.07008 -19.92079,-0.10738c-7.97904,-0.05055 -11.07645,-0.09942 -15.97007,-0.15015c-5.53593,-0.04176 -1.03896,-0.12213 -1.04401,-0.16869c-0.00135,-0.01246 1.54789,-0.03467 0.06491,-0.04382c1.47321,-0.00048 2.89607,-0.00092 3.80232,-0.00094c6.02324,-0.00008 12.04639,-0.00016 18.06966,-0.00024c23.95951,-0.00031 51.79746,0.00113 75.05494,0.02097c27.61399,0.02112 57.53642,-0.01008 85.37226,0.00884c15.24348,0.00947 31.85806,0.0035 47.37744,0.00323c7.87301,-0.00014 14.6161,0.01013 18.06866,-0.00918c0.90746,-0.00508 0.00129,0.01192 0.00194,0.01788c0.00162,0.0149 0.00325,0.02981 0.00485,0.04471c0.00908,0.08346 0.01812,0.16691 0.0272,0.25037c0.00216,0.01973 -1.48319,0.09033 1.60635,0.09793c-0.5794,0.00013 -1.23515,0.00033 -1.59566,0.00043c-3.19412,0.00085 -4.97879,0.00026 -7.47096,0.00646c-4.32652,0.01075 -18.92768,0.00283 -24.79534,0.00291c-22.80214,0.0003 -45.60426,0.0006 -68.40647,0.0009c0,0 -5.16274,0.00007 -5.1608,0.01795c0.00008,0.00073 0.0088,0.00144 0.02559,0.00211c-2.46787,0.00184 -4.96064,0.00439 -7.49601,0.00882zM236.85053,210.66951c13.76461,-0.00018 31.35777,0.00808 40.75384,-0.0283c5.38439,-0.02085 1.82628,-0.08742 1.82327,-0.11532c-0.00907,-0.08346 -0.01813,-0.16691 -0.0272,-0.25037c-0.00103,-0.00953 1.77206,-0.05683 -0.0068,-0.06259c-17.9674,-0.05822 -51.81605,-0.01219 -73.75043,-0.02902c-27.21896,-0.0185 -58.55864,0.01784 -84.8929,-0.00847c-23.97061,-0.02044 -52.84632,-0.02233 -77.55939,-0.022c-3.54483,0.00005 -24.80439,-0.00897 -27.10445,0.00036c-6.59588,0.02675 -5.15742,0.04898 -5.15399,0.08054c0.00619,0.05709 -2.90798,0.12518 1.5752,0.18c5.01563,0.052 8.53476,0.10417 16.53093,0.15483c3.22556,0.02044 6.71019,0.04778 10.87776,0.06623c2.72704,0.01207 7.9395,0.02183 8.59231,0.03756c4.42133,0.04136 12.40168,0.02768 21.84711,0.03452c16.81399,0.01217 34.21152,0.00849 51.62851,0.00826c6.42327,-0.00008 18.97474,0.00999 23.50567,0.00674c7.88736,-0.00565 12.45776,-0.02901 20.10211,-0.03603c5.60931,-0.00515 11.5214,-0.00222 18.06825,-0.01365c0.49703,-0.00087 0.99398,-0.00173 1.49101,-0.0026c17.23314,-0.00023 34.46629,-0.00045 51.69948,-0.00068z" data-paper-data="{&quot;index&quot;:null}" fill="#000000" fill-rule="nonzero" stroke="none" stroke-width="0" stroke-linecap="butt"/><path d="M163.37679,210.65556c-0.0168,-0.00067 -0.02491,-0.00138 -0.025,-0.00211c-0.00194,-0.01788 5.18615,-0.01798 5.18615,-0.01798c22.80215,-0.0003 45.72579,-0.00096 68.52805,-0.00126c5.86764,-0.00008 20.48202,0.00776 24.80854,-0.00299c2.49208,-0.00619 4.28083,-0.00564 7.47484,-0.00649c0.36057,-0.0001 1.01678,-0.0003 1.59627,-0.00043c-3.08955,-0.0076 -1.58855,-0.07837 -1.59071,-0.0981c-0.00907,-0.08346 -0.02895,-0.16741 -0.03799,-0.25086c-0.00163,-0.0149 -0.0121,-0.02988 -0.01371,-0.04478c-0.00066,-0.00596 0.90163,-0.02299 -0.00583,-0.01791c-3.45256,0.01931 -10.20178,0.009 -18.07478,0.00914c-15.51939,0.00027 -32.18099,0.00604 -47.42446,-0.00344c-27.83589,-0.01892 -58.03187,0.01211 -85.64586,-0.00901c-23.25751,-0.01983 -51.20845,-0.02097 -75.16808,-0.02066c-6.02324,0.00008 -12.05696,0.00021 -18.0802,0.00029c-0.90632,0.00001 -2.33116,0.00046 -3.80425,0.00095c1.48302,0.00915 -0.07586,0.03142 -0.07452,0.04389c0.00506,0.04656 -4.51614,0.12725 1.01984,0.169c4.89361,0.05073 8.00167,0.09994 15.98073,0.15049c5.88724,0.0373 15.08788,0.07058 19.95963,0.10764c2.36227,0.0221 4.48917,0.00632 12.17477,0.01134c17.00621,0.01111 34.17192,0.00874 51.73915,0.00851c6.40323,-0.00008 14.51696,-0.00465 20.72296,-0.00023c1.30991,0.00093 3.79264,0.00443 5.63821,0.0073c-3.37613,-0.00899 4.35494,-0.01784 7.59043,-0.02348c2.5355,-0.00443 5.05832,-0.007 7.52615,-0.00884z" data-paper-data="{&quot;noHover&quot;:false,&quot;origItem&quot;:[&quot;Path&quot;,{&quot;applyMatrix&quot;:true,&quot;segments&quot;:[[[579.60736,595.76373],[0.95609,-0.20262],[0.00646,0.07548]],[[579.61718,596],[0,-0.08208],[0,2]],[[577.61718,598],[0,0],[-8.83333,0]],[[551.11718,598],[8.83333,0],[-2.27308,0]],[[541.51161,598.28885],[1.67648,-1.19621],[-0.96568,0.68904]],[[538.61718,599],[1.23739,-0.09027],[-0.13966,0.01019]],[[537.99901,599.04541],[0.22447,-0.0134],[1.19653,0.85421]],[[538.61718,610],[0,-2.20646],[0,9.33333]],[[538.61718,638],[0,-9.33333],[0,1.66667]],[[538.61718,643],[0,-1.66667],[0,0.66667]],[[538.61718,645],[-0.35177,0.56631],[1.33831,-2.15456]],[[545.61718,644],[-3.04994,0.00386],[6.01206,-0.00761]],[[563.97058,644.43107],[-5.90478,-1.08158],[10.78253,2.15651]],[[597.04254,645.54479],[-10.6965,-2.40266],[9.00888,2.25222]],[[626.11718,648],[-9.28168,0],[2.33333,0]],[[633.11718,648],[-2.33333,0],[0.35109,0]],[[634.59021,647.90091],[-0.5707,0.05184],[-0.57412,-1.02596]],[[634.61718,643],[0,1.39387],[0,-5.20707]],[[634.21982,624.13246],[2.14282,4.67827],[-1.8936,-5.6808]],[[628.03948,607.31672],[3.08887,5.66543],[-2.2791,-4.1802]],[[620.32688,595.27881],[1.8857,4.15235],[-0.91417,-2.47477]],[[615.61718,594],[2.9771,0.57275],[-6.58756,-1.26734]],[[595.61718,593],[6.8054,0],[-2.48058,0]],[[587.61718,593],[2.40395,0.50364],[-0.50743,-0.10631]],[[585.44122,592.1748],[0.71481,0.32365],[1.30749,1.01011]],[[582.51161,594.78885],[1.25365,-0.62682],[-0.98239,0.4912]]],&quot;closed&quot;:true}],&quot;index&quot;:null}" fill="#c9c9c9" fill-rule="nonzero" stroke="none" stroke-width="0" stroke-linecap="butt"/><path d="M90.99403,210.59095c-0.00067,-0.00604 1.77837,-0.01339 0.89076,-0.01817c2.26887,-0.00084 4.55109,-0.00264 6.5782,-0.00617c7.8158,-0.01364 23.71294,-0.06319 25.20885,-0.09582c0.12164,-0.00265 -2.08899,-0.00307 -1.71489,-0.00543c1.24482,-0.00785 11.39785,0.00563 12.5653,0.00339c0.26421,-0.00051 0.39396,-0.00129 0.44583,-0.00225c-0.05406,0.00296 -0.10352,0.00583 -0.10333,0.00763c0.00069,0.00633 0.07367,0.01316 -0.74355,0.01884c-6.9464,0.05003 -18.29942,0.09766 -37.9644,0.09791c0,0 -2.32061,0.00003 -3.84966,0.00544c-0.51,0.00101 -0.90652,0.0022 -1.17233,0.00358c-0.06872,-0.00341 -0.14059,-0.00688 -0.14083,-0.00896zM134.86289,210.45625c0.35194,-0.00367 0.24865,0.00241 0.13229,0.00877c-0.0248,-0.00276 -0.37284,-0.00627 -0.13229,-0.00877zM143.35832,210.50884c6.41475,-0.04456 -8.16853,-0.10935 -21.40526,-0.07925c-12.48898,0.0284 -16.71293,0.08519 -28.11122,0.10509c-3.85074,0.00672 -8.46538,0.01042 -11.34132,0.02156c-4.55751,0.01765 -2.52983,0.07768 6.18928,0.07756c6.27836,-0.00008 9.36997,-0.00718 15.21501,-0.00725l2.58133,-0.00003c0,0 2.96323,-0.00004 4.39899,-0.00783c15.29111,-0.01749 25.09977,-0.06156 32.47316,-0.10984z" data-paper-data="{&quot;index&quot;:null}" fill="#000000" fill-rule="nonzero" stroke="none" stroke-width="0" stroke-linecap="butt"/><path d="M90.94327,210.60051c0.26561,-0.00139 0.6624,-0.00257 1.17244,-0.00358c1.52904,-0.00541 3.86019,-0.0054 3.86019,-0.0054c19.66494,-0.00026 31.42788,-0.04894 38.37421,-0.09897c0.81725,-0.00568 0.72169,-0.01263 0.72101,-0.01896c-0.00018,-0.0018 0.03971,-0.00471 0.09375,-0.00767c-0.0518,0.00096 -0.18028,0.00174 -0.44458,0.00225c-1.16748,0.00224 -11.40845,-0.01147 -12.6533,-0.00362c-0.37414,0.00236 1.5915,0.00435 1.46973,0.007c-1.49586,0.03264 -17.46976,0.08193 -25.28565,0.09557c-2.02717,0.00354 -4.32249,0.00526 -6.59138,0.0061c0.88761,0.00477 -0.87021,0.01223 -0.86955,0.01828c0.00022,0.00207 0.08403,0.0056 0.15293,0.00901z" data-paper-data="{&quot;noHover&quot;:false,&quot;origItem&quot;:[&quot;Path&quot;,{&quot;applyMatrix&quot;:true,&quot;segments&quot;:[[[607.563,601.99816],[0.02649,0.38155],[-0.10299,0.15484]],[[607.10872,602.39727],[0.1976,-0.11227],[-0.59254,0.60273]],[[605.61718,603],[0,0],[-7.618,0]],[[590.90604,613.89443],[2.69308,-5.58508],[-0.31682,0.63364]],[[590.61718,616],[0,-0.70843],[0,0.20156]],[[590.57685,616.85325],[0.02106,-0.33136],[0.02013,-0.10671]],[[590.74964,616.60263],[-0.10238,0.05628],[0.45234,-0.24865]],[[595.61718,617],[-0.48256,0.87548],[0.14503,-0.26312]],[[594.95308,616.3906],[-0.04725,0.29671],[0.58086,-3.64773]],[[604.72276,605.71115],[-3.02833,1.51416],[0.78545,-0.39273]],[[607.27135,605.03032],[-0.87898,0.0905],[-0.34365,-0.53523]],[[607.61718,603],[0,0.6759],[0,-0.23192]]],&quot;closed&quot;:true}],&quot;index&quot;:null}" fill="#ffffff" fill-rule="nonzero" stroke="none" stroke-width="0" stroke-linecap="butt"/><path d="M164.71899,210.64258l33.57674,0.3967l93.69715,0.00232l-19.76914,-0.40043z" data-paper-data="{&quot;index&quot;:null}" fill="#cedce9" fill-rule="nonzero" stroke="#000000" stroke-width="0" stroke-linecap="round"/><path d="M155.80894,210.66352c-3.2355,0.00565 -10.93595,0.01449 -7.55991,0.02347c-1.84559,-0.00287 -4.30777,-0.00637 -5.61781,-0.0073c-6.20599,-0.00442 -14.24765,0.00019 -20.65104,0.00027c-17.56731,0.00023 -34.62226,0.00285 -51.62851,-0.00826c-7.68561,-0.00502 -9.79648,0.01082 -12.15878,-0.01127c-4.8717,-0.03707 -14.03364,-0.07008 -19.92079,-0.10738c-7.97904,-0.05055 -11.07645,-0.09942 -15.97007,-0.15015c-5.53593,-0.04176 -1.03896,-0.12213 -1.04401,-0.16869c-0.00135,-0.01246 1.54789,-0.03467 0.06491,-0.04382c1.47321,-0.00048 2.89607,-0.00092 3.80232,-0.00094c6.02324,-0.00008 12.04639,-0.00016 18.06966,-0.00024c23.95951,-0.00031 51.79746,0.00113 75.05494,0.02097c27.61399,0.02112 57.53642,-0.01008 85.37227,0.00884c15.24348,0.00947 31.85806,0.0035 47.37744,0.00323c7.87301,-0.00014 14.6161,0.01013 18.06866,-0.00918c0.90746,-0.00508 0.00129,0.01192 0.00194,0.01788c0.00162,0.0149 0.00325,0.02981 0.00485,0.04471c0.00908,0.08346 0.01812,0.16691 0.0272,0.25037c0.00216,0.01973 -1.48319,0.09033 1.60635,0.09793c-0.5794,0.00013 -1.23515,0.00033 -1.59566,0.00043c-3.19412,0.00085 -4.97879,0.00026 -7.47096,0.00646c-4.32652,0.01075 -18.92768,0.00283 -24.79534,0.00291c-22.80214,0.0003 -45.60426,0.0006 -68.40647,0.0009c0,0 -5.16274,0.00007 -5.1608,0.01795c0.00007,0.00073 0.00879,0.00144 0.02558,0.00211c-2.46786,0.00184 -4.96064,0.00439 -7.49601,0.00882zM236.85053,210.66951c13.7646,-0.00018 31.35776,0.00808 40.75383,-0.0283c5.38439,-0.02085 1.82628,-0.08742 1.82328,-0.11532c-0.00908,-0.08346 -0.01813,-0.16691 -0.0272,-0.25037c-0.00103,-0.00953 1.77206,-0.05683 -0.0068,-0.06259c-17.9674,-0.05822 -51.81605,-0.01219 -73.75043,-0.02902c-27.21896,-0.0185 -58.55864,0.01784 -84.8929,-0.00847c-23.97061,-0.02044 -52.84633,-0.02233 -77.5594,-0.022c-3.54483,0.00005 -24.80438,-0.00897 -27.10445,0.00036c-6.59588,0.02675 -5.15742,0.04898 -5.15399,0.08054c0.00619,0.05709 -2.90798,0.12518 1.5752,0.18c5.01563,0.052 8.53476,0.10417 16.53093,0.15483c3.22556,0.02044 6.71019,0.04778 10.87775,0.06623c2.72704,0.01207 7.9395,0.02183 8.59231,0.03756c4.42133,0.04136 12.40169,0.02768 21.84712,0.03452c16.81399,0.01217 34.21151,0.00849 51.62851,0.00826c6.42327,-0.00008 18.97474,0.00999 23.50567,0.00674c7.88736,-0.00565 12.45777,-0.02901 20.10212,-0.03603c5.60932,-0.00515 11.5214,-0.00222 18.06825,-0.01365c0.49703,-0.00087 0.99398,-0.00173 1.49101,-0.0026c17.23314,-0.00023 34.46629,-0.00045 51.69948,-0.00068z" data-paper-data="{&quot;index&quot;:null}" fill="#000000" fill-rule="nonzero" stroke="none" stroke-width="0" stroke-linecap="butt"/><path d="M163.37679,210.65556c-0.0168,-0.00067 -0.02491,-0.00138 -0.025,-0.00211c-0.00194,-0.01788 5.18615,-0.01798 5.18615,-0.01798c22.80215,-0.0003 45.72579,-0.00096 68.52805,-0.00126c5.86764,-0.00008 20.48202,0.00776 24.80854,-0.00299c2.49208,-0.00619 4.28083,-0.00564 7.47484,-0.00649c0.36057,-0.0001 1.01678,-0.0003 1.59627,-0.00043c-3.08955,-0.0076 -1.58855,-0.07837 -1.59071,-0.0981c-0.00907,-0.08346 -0.02895,-0.16741 -0.03799,-0.25086c-0.00163,-0.0149 -0.0121,-0.02988 -0.01371,-0.04478c-0.00066,-0.00596 0.90163,-0.02299 -0.00583,-0.01791c-3.45256,0.01931 -10.20178,0.009 -18.07478,0.00914c-15.51939,0.00027 -32.18099,0.00604 -47.42446,-0.00344c-27.83589,-0.01892 -58.03187,0.01211 -85.64586,-0.00901c-23.25751,-0.01983 -51.20845,-0.02097 -75.16808,-0.02066c-6.02324,0.00008 -12.05696,0.00021 -18.0802,0.00029c-0.90632,0.00001 -2.33116,0.00046 -3.80425,0.00095c1.48302,0.00915 -0.07586,0.03142 -0.07452,0.04389c0.00506,0.04656 -4.51614,0.12725 1.01984,0.169c4.89361,0.05073 8.00167,0.09994 15.98073,0.15049c5.88724,0.0373 15.08788,0.07058 19.95963,0.10764c2.36227,0.0221 4.48917,0.00632 12.17477,0.01134c17.00621,0.01111 34.17192,0.00874 51.73915,0.00851c6.40323,-0.00008 14.51696,-0.00465 20.72296,-0.00023c1.30991,0.00093 3.79264,0.00443 5.63821,0.0073c-3.37613,-0.00899 4.35494,-0.01784 7.59043,-0.02348c2.5355,-0.00443 5.05832,-0.007 7.52615,-0.00884z" data-paper-data="{&quot;noHover&quot;:false,&quot;origItem&quot;:[&quot;Path&quot;,{&quot;applyMatrix&quot;:true,&quot;segments&quot;:[[[579.60736,595.76373],[0.95609,-0.20262],[0.00646,0.07548]],[[579.61718,596],[0,-0.08208],[0,2]],[[577.61718,598],[0,0],[-8.83333,0]],[[551.11718,598],[8.83333,0],[-2.27308,0]],[[541.51161,598.28885],[1.67648,-1.19621],[-0.96568,0.68904]],[[538.61718,599],[1.23739,-0.09027],[-0.13966,0.01019]],[[537.99901,599.04541],[0.22447,-0.0134],[1.19653,0.85421]],[[538.61718,610],[0,-2.20646],[0,9.33333]],[[538.61718,638],[0,-9.33333],[0,1.66667]],[[538.61718,643],[0,-1.66667],[0,0.66667]],[[538.61718,645],[-0.35177,0.56631],[1.33831,-2.15456]],[[545.61718,644],[-3.04994,0.00386],[6.01206,-0.00761]],[[563.97058,644.43107],[-5.90478,-1.08158],[10.78253,2.15651]],[[597.04254,645.54479],[-10.6965,-2.40266],[9.00888,2.25222]],[[626.11718,648],[-9.28168,0],[2.33333,0]],[[633.11718,648],[-2.33333,0],[0.35109,0]],[[634.59021,647.90091],[-0.5707,0.05184],[-0.57412,-1.02596]],[[634.61718,643],[0,1.39387],[0,-5.20707]],[[634.21982,624.13246],[2.14282,4.67827],[-1.8936,-5.6808]],[[628.03948,607.31672],[3.08887,5.66543],[-2.2791,-4.1802]],[[620.32688,595.27881],[1.8857,4.15235],[-0.91417,-2.47477]],[[615.61718,594],[2.9771,0.57275],[-6.58756,-1.26734]],[[595.61718,593],[6.8054,0],[-2.48058,0]],[[587.61718,593],[2.40395,0.50364],[-0.50743,-0.10631]],[[585.44122,592.1748],[0.71481,0.32365],[1.30749,1.01011]],[[582.51161,594.78885],[1.25365,-0.62682],[-0.98239,0.4912]]],&quot;closed&quot;:true}],&quot;index&quot;:null}" fill="#c9c9c9" fill-rule="nonzero" stroke="none" stroke-width="0" stroke-linecap="butt"/><path d="M90.99402,210.59095c-0.00067,-0.00604 1.77837,-0.01339 0.89075,-0.01817c2.26887,-0.00084 4.55109,-0.00264 6.5782,-0.00617c7.8158,-0.01364 23.71294,-0.06319 25.20885,-0.09582c0.12164,-0.00265 -2.08899,-0.00307 -1.71489,-0.00543c1.24482,-0.00785 11.39785,0.00563 12.5653,0.00339c0.26421,-0.00051 0.39396,-0.00129 0.44583,-0.00225c-0.05406,0.00296 -0.10352,0.00583 -0.10333,0.00763c0.00069,0.00633 0.07367,0.01316 -0.74355,0.01884c-6.9464,0.05003 -18.29942,0.09766 -37.9644,0.09791c0,0 -2.32061,0.00003 -3.84966,0.00544c-0.51,0.00101 -0.90653,0.0022 -1.17233,0.00358c-0.06872,-0.00341 -0.14059,-0.00688 -0.14082,-0.00896zM134.86289,210.45625c0.35194,-0.00367 0.24865,0.00241 0.13229,0.00877c-0.0248,-0.00276 -0.37284,-0.00627 -0.13229,-0.00877zM143.35832,210.50884c6.41475,-0.04456 -8.16853,-0.10935 -21.40526,-0.07925c-12.48898,0.0284 -16.71293,0.08519 -28.11122,0.10509c-3.85074,0.00672 -8.46538,0.01042 -11.34132,0.02156c-4.55751,0.01765 -2.52983,0.07768 6.18928,0.07756c6.27836,-0.00008 9.36997,-0.00718 15.21501,-0.00725l2.58133,-0.00003c0,0 2.96323,-0.00004 4.39899,-0.00783c15.29111,-0.01749 25.09977,-0.06156 32.47316,-0.10984z" data-paper-data="{&quot;index&quot;:null}" fill="#000000" fill-rule="nonzero" stroke="none" stroke-width="0" stroke-linecap="butt"/><path d="M90.94327,210.60051c0.26561,-0.00139 0.6624,-0.00257 1.17244,-0.00358c1.52904,-0.00541 3.86019,-0.0054 3.86019,-0.0054c19.66494,-0.00026 31.42788,-0.04894 38.37421,-0.09897c0.81725,-0.00568 0.72169,-0.01263 0.72101,-0.01896c-0.00018,-0.0018 0.03971,-0.00471 0.09375,-0.00767c-0.0518,0.00096 -0.18028,0.00174 -0.44458,0.00225c-1.16748,0.00224 -11.40845,-0.01147 -12.6533,-0.00362c-0.37414,0.00236 1.5915,0.00435 1.46973,0.007c-1.49586,0.03264 -17.46976,0.08193 -25.28565,0.09557c-2.02717,0.00354 -4.32249,0.00526 -6.59138,0.0061c0.88761,0.00477 -0.87021,0.01223 -0.86955,0.01828c0.00022,0.00207 0.08403,0.0056 0.15293,0.00901z" data-paper-data="{&quot;noHover&quot;:false,&quot;origItem&quot;:[&quot;Path&quot;,{&quot;applyMatrix&quot;:true,&quot;segments&quot;:[[[607.563,601.99816],[0.02649,0.38155],[-0.10299,0.15484]],[[607.10872,602.39727],[0.1976,-0.11227],[-0.59254,0.60273]],[[605.61718,603],[0,0],[-7.618,0]],[[590.90604,613.89443],[2.69308,-5.58508],[-0.31682,0.63364]],[[590.61718,616],[0,-0.70843],[0,0.20156]],[[590.57685,616.85325],[0.02106,-0.33136],[0.02013,-0.10671]],[[590.74964,616.60263],[-0.10238,0.05628],[0.45234,-0.24865]],[[595.61718,617],[-0.48256,0.87548],[0.14503,-0.26312]],[[594.95308,616.3906],[-0.04725,0.29671],[0.58086,-3.64773]],[[604.72276,605.71115],[-3.02833,1.51416],[0.78545,-0.39273]],[[607.27135,605.03032],[-0.87898,0.0905],[-0.34365,-0.53523]],[[607.61718,603],[0,0.6759],[0,-0.23192]]],&quot;closed&quot;:true}],&quot;index&quot;:null}" fill="#ffffff" fill-rule="nonzero" stroke="none" stroke-width="0" stroke-linecap="butt"/><g><path d="M583.58896,211.36961c0.30548,-0.00955 0.40835,-0.01983 0.31172,-0.03084c-2.54985,-0.00112 -5.04361,0.00003 -7.48125,0.00343c2.39087,0 4.77864,0 7.16953,0c0,0.00914 0,0.01828 0,0.02742z" data-paper-data="{&quot;index&quot;:null}" fill="#6b6b6b" fill-rule="evenodd" stroke="none" stroke-width="0" stroke-linecap="butt"/><path d="M594.1874,211.35247c0.2899,-0.00366 0.39589,-0.00823 0.31172,-0.01371c-3.17329,-0.00112 -6.29048,0.00002 -9.35156,0.00343c3.01432,0 6.02552,0 9.03984,0c0,0.00343 0,0.00685 0,0.01028z" data-paper-data="{&quot;index&quot;:null}" fill="#9e9e9e" fill-rule="evenodd" stroke="none" stroke-width="0" stroke-linecap="butt"/><path d="M502.54206,211.33877c2.54674,0 5.04049,-0.00114 7.48125,-0.00343c-5.01244,0.00109 -9.99995,-0.00005 -14.96252,-0.00343c2.38152,0.00456 4.87528,0.00685 7.48125,0.00685z" data-paper-data="{&quot;index&quot;:null}" fill="#484848" fill-rule="evenodd" stroke="none" stroke-width="0" stroke-linecap="butt"/><path d="M83.28014,211.31478c3.79611,0.00112 7.53673,-0.00002 11.22188,-0.00343c-3.81888,0.0021 -7.5595,-0.00018 -11.22188,-0.00685c0,0.00343 0,0.00685 0,0.01028z" data-paper-data="{&quot;index&quot;:null}" fill="#838383" fill-rule="evenodd" stroke="none" stroke-width="0" stroke-linecap="butt"/><path d="M23.86418,213.24639l1.47565,-0.0027l164.59665,-0.02433v-0.17848l95.364,-0.00068v-0.34473l49.18839,-0.02974l0.49189,0.20278l91.55189,-0.02433v-0.20278l29.51303,-0.0027v-0.69149l15.00246,-0.00744l140.2484,-0.01284l-1.96753,-1.14099l-3.44319,-0.00135l-323.98511,-0.04867l-0.24594,0.10829l-257.6242,0.00338v0.06083v2.31848z" fill="#413831" fill-rule="nonzero" stroke="#000000" stroke-width="1" stroke-linecap="round"/><path d="M140.93421,211.93534l29.28309,-0.00663v-0.83691l-30.69432,-0.00663l0.35281,0.84975z" fill="#928b78" fill-rule="nonzero" stroke="#000000" stroke-width="1" stroke-linecap="round"/><path d="M132.35772,211.07507l-50.56643,0.015l1.28832,0.86934l48.95603,-0.01333z" fill="#928b78" fill-rule="nonzero" stroke="#000000" stroke-width="1" stroke-linecap="round"/><path d="M74.69809,211.07248l-16.175,0.01635l-1.4516,0.83818l16.58974,0.01799z" fill="#928b78" fill-rule="nonzero" stroke="#000000" stroke-width="1" stroke-linecap="round"/><path d="M189.82375,213.22186l2.01613,-1.18882l-168.16349,0.03022l0.54985,1.17471z" fill="#736c59" fill-rule="nonzero" stroke="#000000" stroke-width="1" stroke-linecap="round"/><path d="M189.13717,213.21665l-180.02951,0.02704l-6.82489,0.1433l192.94147,-0.07571l16.23217,-0.17574l104.09493,-0.00811l-2.21348,-0.10545l-105.01721,0.02433l-18.69159,-0.00811z" fill="#8b8471" fill-rule="nonzero" stroke="#000000" stroke-width="1" stroke-linecap="round"/><path d="M314.07569,212.87665l-2.21348,0.05948l139.69503,-0.01352l-6.64043,-0.08382l-129.36547,0.02974" fill="#8b8471" fill-rule="nonzero" stroke="#000000" stroke-width="1" stroke-linecap="round"/><path d="M283.087,212.75769l52.1397,-0.01352l-0.84551,-0.0703l-50.16685,0.01081z" fill="#8b8471" fill-rule="nonzero" stroke="#000000" stroke-width="1" stroke-linecap="round"/><path d="M425.73335,212.70632l63.69896,0.02974l-5.16478,-0.09734l-58.04231,-0.00541z" fill="#8b8471" fill-rule="nonzero" stroke="#000000" stroke-width="1" stroke-linecap="round"/><path d="M456.59904,212.02361l-171.91343,0.01837v0.55104h51.34039v-0.31816l90.70547,-0.01343l-1.12111,0.27583l30.98869,-0.01574z" fill="#262626" fill-rule="nonzero" stroke="#000000" stroke-width="1" stroke-linecap="round"/><path d="M279.64481,211.96345l-0.73782,0.08652l356.43138,-0.02163l-3.93507,-0.10004l-174.98871,0.01622z" fill="#8b8471" fill-rule="nonzero" stroke="#000000" stroke-width="1" stroke-linecap="round"/><path d="M426.59513,212.84691l1.22971,-0.58942l-92.22823,0.02433l-0.49189,0.58401z" fill="#736c59" fill-rule="nonzero" stroke="#000000" stroke-width="1" stroke-linecap="round"/><path d="M352.51246,212.76297l56.1736,0.00302l1.09875,-0.42277l-57.82173,0.00906z" fill="#515a61" fill-rule="nonzero" stroke="#000000" stroke-width="1" stroke-linecap="round"/><path d="M212.04412,211.72605h59.05783l0.54937,-0.88581l-62.90345,0.00604l0.27469,0.88744z" fill="#090909" fill-rule="nonzero" stroke="#000000" stroke-width="1" stroke-linecap="round"/><path d="M226.19052,211.72881h32.13844l0.82407,-0.88782l-33.78657,0.00151l0.13735,0.89423z" fill="#2d0d0e" fill-rule="nonzero" stroke="#000000" stroke-width="1" stroke-linecap="round"/><path d="M271.17061,211.11504h228.86105v-0.34161l-218.75429,-0.03888l-0.13735,0.11173l-9.47672,-0.00151l-0.27469,0.26121" fill="#807165" fill-rule="nonzero" stroke="#000000" stroke-width="1" stroke-linecap="round"/><path d="M46.78059,212.05004l0.27469,-1.20225l-23.89782,-0.00906l0.68672,1.22301l22.93641,-0.00151z" fill="#807165" fill-rule="nonzero" stroke="#000000" stroke-width="1" stroke-linecap="round"/><path d="M173.27421,212.04362h18.02637l0.17168,-1.19848l-17.44266,-0.00189z" fill="#807165" fill-rule="nonzero" stroke="#000000" stroke-width="1" stroke-linecap="round"/><path d="M298.53173,210.73907v0.8697l173.05315,-0.00151l0.27469,-0.84101z" fill="#928b78" fill-rule="nonzero" stroke="#000000" stroke-width="1" stroke-linecap="round"/><path d="M304.54052,210.73568l-0.41203,0.82289l160.17717,-0.00151l0.41203,-0.79232z" fill="#3c332c" fill-rule="nonzero" stroke="#000000" stroke-width="1" stroke-linecap="round"/><path d="M500.11805,210.76474l-0.96141,0.83459l79.96841,-0.00302l-0.96141,-0.81987z" fill="#928b78" fill-rule="nonzero" stroke="#000000" stroke-width="1" stroke-linecap="round"/><path d="M502.38422,210.7587v0.78892l68.91224,-0.00302l-1.2361,-0.76967z" fill="#3c332c" fill-rule="nonzero" stroke="#000000" stroke-width="1" stroke-linecap="round"/><path d="M301.66093,212.39569l-2.33484,-0.0453l-4.25766,0.00151l-11.26219,0.23554l-126.90565,0.01963l-4.25766,0.08304l137.89315,-0.00755z" fill="#8b8471" fill-rule="nonzero" stroke="#000000" stroke-width="1" stroke-linecap="round"/><path d="M140.55206,213.12433l1.64812,-0.6485l-77.49622,0.00151l-0.27469,0.67266z" fill="#515a61" fill-rule="nonzero" stroke="#000000" stroke-width="1" stroke-linecap="round"/><path d="M128.63749,211.11655l-43.12595,0.01359l1.09875,0.78779l41.7525,-0.01208z" fill="#515a61" fill-rule="nonzero" stroke="#000000" stroke-width="1" stroke-linecap="round"/><path d="M71.7219,211.10598l-10.71282,0.0151l-0.9614,0.77382l10.9875,0.01661z" fill="#515a61" fill-rule="nonzero" stroke="#000000" stroke-width="1" stroke-linecap="round"/><path d="M144.01997,211.89754l22.79906,-0.00604v-0.7625l-23.89781,-0.00604l0.27469,0.7742z" fill="#515a61" fill-rule="nonzero" stroke="#000000" stroke-width="1" stroke-linecap="round"/></g><path d="M266.7374,212.47292c-0.06886,-0.01163 0.00324,-0.02275 0.21652,-0.03335c-0.01299,-0.00139 -0.08508,-0.00225 -0.21652,-0.00257c-0.28406,0.01236 -0.28406,0.02434 0,0.03592z" data-paper-data="{&quot;index&quot;:null}" fill="#9e9e9e" fill-rule="evenodd" stroke="none" stroke-width="0" stroke-linecap="butt"/><path d="M241.93693,212.53968h5.67459v-0.07278l-0.94576,0.06238z" fill="#736d42" fill-rule="evenodd" stroke="none" stroke-width="0" stroke-linecap="butt"/><path d="M210.38099,212.40815c0.2303,0 0.42369,-0.00044 0.58609,-0.00117c2.53071,0.03672 6.76151,0.05541 10.81448,0.05482c0.68051,-0.0001 5.0493,-0.00444 5.75233,-0.01047c1.54118,-0.01322 2.05379,-0.03798 3.14937,-0.05641c4.54198,-0.07641 5.31977,-0.15517 0.40807,-0.23187c-3.45876,-0.02291 -6.25406,-0.04333 -10.36086,-0.04229c-11.63946,0.00295 -14.77262,0.15871 -11.71253,0.26758l-0.07372,0.00279c0,0 0,0.01703 1.43679,0.01703zM211.44232,212.36562c-1.92196,-0.08545 0.10682,-0.20939 9.27893,-0.21081c3.39694,-0.00053 5.58728,0.01579 8.48976,0.03399c3.8961,0.06272 2.73031,0.12609 -0.87536,0.18649c-0.91642,0.01535 -1.22531,0.03651 -2.46377,0.04827c-1.08144,0.01026 -2.75641,0.0038 -4.14159,0.0042c-3.39953,0.00098 -7.58619,-0.01685 -9.17377,-0.05306c0,0 -0.39092,-0.00834 -1.1142,-0.00907z" data-paper-data="{&quot;index&quot;:null}" fill="#75dbff" fill-rule="nonzero" stroke="none" stroke-width="0" stroke-linecap="butt"/><path d="M212.51175,212.37511c1.58757,0.03622 5.82161,0.0543 9.22113,0.05332c1.38519,-0.0004 3.07981,0.00601 4.16125,-0.00426c1.23847,-0.01176 1.56604,-0.03307 2.48244,-0.04842c3.60566,-0.0604 4.76937,-0.12475 0.8733,-0.18747c-2.9025,-0.01819 -5.13411,-0.03469 -8.53104,-0.03417c-9.17211,0.00142 -11.24699,0.12641 -9.32505,0.21186c0.72328,0.00073 1.11795,0.00913 1.11795,0.00913z" data-paper-data="{&quot;noHover&quot;:false,&quot;origItem&quot;:[&quot;Path&quot;,{&quot;applyMatrix&quot;:true,&quot;segments&quot;:[[[409.4867,271.35519],[1.25852,-0.10678],[-3.34423,12.54639]],[[425.63199,302.31001],[-15.95943,-0.20878],[5.91067,0.07732]],[[440.40413,297.31952],[-5.05034,2.67171],[6.7792,-9.20965]],[[438.881,269.93654],[6.27385,8.86861],[-1.59451,-2.25397]],[[434.59405,262.84941],[2.15492,1.72602],[-1.88172,-1.50719]],[[427.3877,262.23225],[2.4102,0.05859],[-5.91515,-0.1438]],[[411.4254,270.0241],[2.76238,-5.31806],[0,0]]],&quot;closed&quot;:true}],&quot;index&quot;:null}" fill="#ffffff" fill-rule="nonzero" stroke="none" stroke-width="0" stroke-linecap="butt"/><path d="M245.01954,212.41784c3.84852,0.01587 8.09747,-0.00171 11.98494,-0.01853c0.91883,-0.00398 4.11387,-0.01544 4.83263,-0.02736c1.73039,-0.02869 1.55353,-0.07555 1.86624,-0.10889c0.29339,-0.03128 0.87652,-0.06174 -0.91547,-0.0893c-3.13895,-0.04828 -7.87289,-0.06561 -12.60766,-0.08053c-2.18712,-0.00309 -4.14864,-0.0112 -6.1682,0.00632c-1.21965,0.01058 -2.41076,0.04589 -2.99129,0.06132c-1.9755,0.0525 -5.16204,0.12136 -3.48967,0.18141c0.56682,0.02035 3.45026,0.04449 4.44459,0.06275l1.7368,0.01191c0,0 0.67433,0.00439 1.30712,0.0009zM243.49734,212.37394c-0.98323,-0.01257 -3.13818,-0.03689 -3.25471,-0.04294c-1.04127,-0.05401 1.64864,-0.10934 3.40689,-0.15638c0.13897,-0.00372 1.4949,-0.04213 2.06621,-0.04765c0.92941,-0.00898 3.15207,-0.00158 3.91093,-0.00033c4.20496,0.01332 7.93205,0.02744 10.87651,0.06777c1.22934,0.01684 0.52019,0.04626 0.34432,0.06487c-0.24066,0.02547 0.00429,0.06847 -1.23263,0.09108c-0.70184,0.01282 -2.38357,0.01172 -3.59544,0.01696c-3.45236,0.01492 -8.2376,0.039 -11.46988,0.00995c0,0 -0.48436,-0.0041 -1.05224,-0.00333z" data-paper-data="{&quot;index&quot;:null}" fill="#75dbff" fill-rule="nonzero" stroke="none" stroke-width="0" stroke-linecap="butt"/><path d="M244.52013,212.37785c3.23228,0.02905 8.07575,0.00498 11.52812,-0.00994c1.21186,-0.00524 2.90793,-0.00428 3.6098,-0.0171c1.2369,-0.0226 1.00622,-0.06604 1.24689,-0.09151c0.17584,-0.01861 0.87832,-0.04837 -0.35105,-0.06521c-2.94446,-0.04033 -6.7274,-0.05481 -10.93239,-0.06813c-0.75885,-0.00125 -2.99985,-0.0086 -3.92924,0.00039c-0.5713,0.00552 -1.94448,0.04407 -2.0835,0.04779c-1.75824,0.04704 -4.45661,0.10321 -3.41535,0.15722c0.11653,0.00604 2.2871,0.03057 3.27032,0.04314c0.56787,-0.00077 1.05636,0.00336 1.05636,0.00336z" data-paper-data="{&quot;noHover&quot;:false,&quot;origItem&quot;:[&quot;Path&quot;,{&quot;applyMatrix&quot;:true,&quot;segments&quot;:[[[465.26223,270.13291],[0.98811,0.11339],[-1.71083,1.84504]],[[459.59907,276.43751],[0.20277,-0.88758],[-1.81178,7.93053]],[[465.52703,299.40029],[-3.05933,-6.90758],[0.24182,0.54599]],[[469.12222,306.39679],[-0.99407,-0.81085],[1.61715,1.31908]],[[475.92722,306.44514],[-1.32039,0.18358],[7.31661,-1.95648]],[[494.85229,296.49376],[-5.12332,5.92193],[2.13908,-2.47252]],[[495.45142,286.96818],[0.30597,2.73324],[-0.41874,-3.7406]],[[493.30665,273.59497],[2.15221,3.31878],[-1.22123,-1.88318]],[[487.05062,271.1046],[2.10865,0.76899],[-6.0071,-2.19068]],[[467.0931,269.64433],[5.62415,-4.26625],[0,0]]],&quot;closed&quot;:true}],&quot;index&quot;:null}" fill="#ffffff" fill-rule="nonzero" stroke="none" stroke-width="0" stroke-linecap="butt"/><path d="M227.49907,212.28293c0,0.01505 1.02922,0.02724 2.29886,0.02724c1.26963,0 2.29886,-0.0122 2.29886,-0.02724c0,-0.01505 -1.02923,-0.02724 -2.29886,-0.02724c-1.26963,0 -2.29886,0.0122 -2.29886,0.02724z" data-paper-data="{&quot;index&quot;:null}" fill="#000000" fill-rule="nonzero" stroke="none" stroke-width="0" stroke-linecap="butt"/><path d="M256.87772,212.25642c0,0.01505 1.02922,0.02724 2.29886,0.02724c1.26963,0 2.29886,-0.0122 2.29886,-0.02724c0,-0.01505 -1.02923,-0.02724 -2.29886,-0.02724c-1.26963,0 -2.29886,0.0122 -2.29886,0.02724z" data-paper-data="{&quot;index&quot;:null}" fill="#000000" fill-rule="nonzero" stroke="none" stroke-width="0" stroke-linecap="butt"/><path d="M184.59694,212.90537c0.63758,0.01133 1.59397,0.00378 1.59397,0.00378l0.46863,-0.0037c5.08723,-0.04019 9.93164,-0.08316 14.79435,-0.12706c10.70547,-0.09666 22.50179,-0.18289 32.03877,-0.2959c0,0 0.81277,-0.00963 0,-0.01926c-0.81277,-0.00963 -1.62554,0 -1.62554,0c-9.4608,0.11211 -21.18593,0.19761 -31.80643,0.2935c-4.82446,0.04356 -9.62926,0.08619 -14.67633,0.12606l-0.46862,0.0037c0,0 -0.95639,0.00756 -0.3188,0.01889z" data-paper-data="{&quot;index&quot;:null}" fill="#75dbff" fill-rule="nonzero" stroke="none" stroke-width="0" stroke-linecap="butt"/><path d="M293.74984,213.07008c0.9742,-0.00723 0.36424,-0.01877 0.36424,-0.01877l-0.6537,-0.01232c-6.33538,-0.0919 -13.97532,-0.1656 -20.86271,-0.25093c-9.46756,-0.1173 -18.69518,-0.24164 -29.05475,-0.34734c0,0 -0.87272,-0.00886 -1.62074,0.00148c-0.74803,0.01034 0.12467,0.01921 0.12467,0.01921c10.33337,0.10443 19.48516,0.22898 28.88952,0.34549c6.81246,0.0844 14.37909,0.15723 20.65648,0.24799l0.57281,0.01089c0,0 0.60998,0.01154 1.58423,0.00432z" data-paper-data="{&quot;index&quot;:null}" fill="#75dbff" fill-rule="nonzero" stroke="none" stroke-width="0" stroke-linecap="butt"/><path d="M201.44566,212.10094c-0.14647,0.00118 -0.26958,0.00317 -0.26958,0.00651c0,0.00824 0.75,0.00824 0.75,0.00824l1.02909,-0.00824c0,-0.0417 -1.06045,-0.07464 -1.8238,-0.11485c-0.90828,-0.04784 1.29971,-0.10289 3.95633,-0.13838c2.14412,-0.01671 4.37366,-0.02022 6.75419,-0.03064c6.36138,-0.02785 12.10192,-0.03023 18.8348,-0.03774c9.49173,0.00007 20.24092,-0.00133 28.74321,0.05211c8.09985,0.05063 6.6588,0.15626 5.53708,0.24225c0,0 -0.10607,0.00816 0.63639,0.00933c0.74246,0.00117 0.84853,-0.007 0.84853,-0.007c1.21306,-0.09374 2.44753,-0.20383 -6.2778,-0.2589c-8.76097,-0.05501 -19.77932,-0.05433 -29.56275,-0.05426c-6.89883,0.0076 -12.81101,0.01052 -19.33349,0.03897c-2.55417,0.01114 -4.89917,0.01561 -7.2006,0.03379c-3.05011,0.03982 -5.34133,0.09926 -4.41654,0.15311c0.64138,0.03734 1.68468,0.0679 1.79493,0.1057z" fill="#75dbff" fill-rule="nonzero" stroke="none" stroke-width="0.5" stroke-linecap="butt"/></g></g></g></svg>