<svg version="1.1" xmlns="http://www.w3.org/2000/svg" xmlns:xlink="http://www.w3.org/1999/xlink" width="2878.25006" height="1619.57958" viewBox="0,0,2878.25006,1619.57958"><g transform="translate(1117.37278,629.80931)"><g data-paper-data="{&quot;isPaintingLayer&quot;:true}" stroke-linejoin="miter" stroke-miterlimit="10" stroke-dasharray="" stroke-dashoffset="0" style="mix-blend-mode: normal"><path d="M-1117.37278,989.77027v-1619.57958h2878.25006v1619.57958z" fill="none" fill-rule="nonzero" stroke="#000000" stroke-width="0" stroke-linecap="butt"/><path d="M371.77626,315.28181l-19.76914,-36.42381l93.69715,0.21066l33.57674,36.08476z" data-paper-data="{&quot;index&quot;:null}" fill="#cedce9" fill-rule="nonzero" stroke="#000000" stroke-width="0" stroke-linecap="round"/><path d="M488.1911,313.24866c-2.53537,0.40255 -5.02815,0.63412 -7.49601,0.80189c0.01679,0.06136 0.02551,0.12534 0.02559,0.19213c0.00194,1.62671 -5.1608,1.63287 -5.1608,1.63287c-22.80221,0.02723 -45.60433,0.05446 -68.40647,0.0817c-5.86765,0.00701 -20.46882,-0.71355 -24.79534,0.26456c-2.49217,0.56343 -4.27685,0.51007 -7.47097,0.58734c-0.36051,0.00871 -1.01625,0.02726 -1.59566,0.03884c3.08953,0.69108 1.60419,7.1135 1.60635,8.90813c0.00908,7.59137 0.01812,15.18273 0.0272,22.77413c0.0016,1.35559 0.00322,2.71122 0.00485,4.06681c0.00065,0.54225 -0.90552,2.08845 0.00194,1.62673c3.45256,-1.75656 10.19566,-0.8224 18.06866,-0.83494c15.51938,-0.02475 32.13396,-0.56751 47.37744,0.29401c27.83585,1.72077 57.75828,-1.11733 85.37226,0.80392c23.25749,1.80409 51.09544,1.93593 75.05495,1.90732c6.02327,-0.00717 12.04642,-0.01438 18.06966,-0.02156c0.90625,-0.00107 2.32912,-0.04122 3.80233,-0.08515c-1.48298,-0.83273 0.06626,-2.8526 0.06491,-3.98631c-0.00505,-4.23525 4.49192,-11.54639 -1.04401,-15.3449c-4.89362,-4.61471 -7.99102,-9.05964 -15.97006,-13.65821c-5.88716,-3.393 -15.04909,-6.39587 -19.9208,-9.76742c-2.3623,-2.01007 -4.47318,-0.56894 -12.15878,-1.02562c-17.00624,-1.01051 -34.0612,-0.77269 -51.62851,-0.7517c-6.4034,0.00765 -14.44505,0.42691 -20.65104,0.02466c-1.31004,-0.0849 -3.77221,-0.40342 -5.6178,-0.66447c3.37603,0.8176 -4.32441,1.62154 -7.55991,2.13524zM407.1492,312.70388c17.23319,-0.02059 34.46634,-0.04118 51.69948,-0.06175c0.49704,-0.07891 0.99398,-0.1578 1.49101,-0.23672c6.54685,-1.03943 12.45893,-0.77312 18.06825,-1.24162c7.64435,-0.63849 12.21475,-2.76351 20.10212,-3.27746c4.53093,-0.29524 17.08239,0.62123 23.50567,0.61355c17.41699,-0.0208 34.81452,-0.35537 51.62851,0.7517c9.44543,0.62192 17.42579,-0.62206 21.84711,3.14012c0.65281,1.43036 5.86528,2.3186 8.59232,3.41627c4.16756,1.67749 7.65219,4.16508 10.87776,6.02403c7.99617,4.60841 11.5153,9.35396 16.53092,14.08371c4.48318,4.9865 1.56901,11.1801 1.5752,16.37311c0.00344,2.87102 1.44189,4.89281 -5.15399,7.32643c-2.30007,0.84863 -23.55962,0.02813 -27.10445,0.03236c-24.71307,0.02953 -53.58879,-0.1421 -77.5594,-2.00149c-26.33426,-2.39367 -57.67394,0.91211 -84.8929,-0.77053c-21.93438,-1.53038 -55.78304,2.65665 -73.75043,-2.63945c-1.77886,-0.52437 -0.00578,-4.82668 -0.00681,-5.69354c-0.00908,-7.59137 -0.01812,-15.18273 -0.0272,-22.77413c-0.00301,-2.53807 -3.56112,-8.5936 1.82327,-10.49006c9.39607,-3.30945 26.98922,-2.55817 40.75383,-2.5746z" data-paper-data="{&quot;index&quot;:null}" fill="#000000" fill-rule="nonzero" stroke="none" stroke-width="0" stroke-linecap="butt"/><path d="M480.62287,313.97247c2.46783,-0.16775 4.99065,-0.40151 7.52614,-0.80406c3.23549,-0.51368 10.96657,-1.31866 7.59043,-2.13623c1.84557,0.26106 4.3283,0.57951 5.63821,0.66443c6.206,0.40224 14.31973,-0.01303 20.72296,-0.02067c17.56722,-0.02097 34.73294,-0.23612 51.73914,0.77437c7.68559,0.45668 9.81249,-0.9783 12.17477,1.03176c4.87175,3.37152 14.0724,6.3986 19.95963,9.7916c7.97906,4.59851 11.08711,9.07438 15.98073,13.68907c5.53599,3.79853 1.01478,11.13785 1.01984,15.37309c0.00134,1.1337 -1.55753,3.15934 -0.07451,3.99206c-1.47309,0.04391 -2.89793,0.0851 -3.80425,0.0862c-6.02325,0.00719 -12.05696,0.01951 -18.0802,0.02669c-23.95963,0.02861 -51.91057,-0.07479 -75.16808,-1.87888c-27.61399,-1.92127 -57.80997,0.9014 -85.64586,-0.81937c-15.24347,-0.86152 -31.90507,-0.33724 -47.42446,-0.31253c-7.87299,0.01256 -14.62221,-0.92509 -18.07478,0.83146c-0.90746,0.46168 -0.00517,-1.08688 -0.00583,-1.62915c-0.00162,-1.35557 -0.01208,-2.71778 -0.01371,-4.07337c-0.00904,-7.59139 -0.02892,-15.22787 -0.038,-22.81927c-0.00216,-1.79464 1.49884,-8.23261 -1.59071,-8.92371c0.57949,-0.01163 1.2357,-0.03054 1.59627,-0.03928c3.19401,-0.07722 4.98276,-0.0266 7.47484,-0.59001c4.32652,-0.97809 18.94091,-0.26512 24.80854,-0.27213c22.80227,-0.02723 45.7259,-0.08694 68.52805,-0.11418c0,0 5.18809,-0.00896 5.18615,-1.6357c-0.00008,-0.06676 -0.0082,-0.13079 -0.025,-0.19218z" data-paper-data="{&quot;noHover&quot;:false,&quot;origItem&quot;:[&quot;Path&quot;,{&quot;applyMatrix&quot;:true,&quot;segments&quot;:[[[579.60736,595.76373],[0.95609,-0.20262],[0.00646,0.07548]],[[579.61718,596],[0,-0.08208],[0,2]],[[577.61718,598],[0,0],[-8.83333,0]],[[551.11718,598],[8.83333,0],[-2.27308,0]],[[541.51161,598.28885],[1.67648,-1.19621],[-0.96568,0.68904]],[[538.61718,599],[1.23739,-0.09027],[-0.13966,0.01019]],[[537.99901,599.04541],[0.22447,-0.0134],[1.19653,0.85421]],[[538.61718,610],[0,-2.20646],[0,9.33333]],[[538.61718,638],[0,-9.33333],[0,1.66667]],[[538.61718,643],[0,-1.66667],[0,0.66667]],[[538.61718,645],[-0.35177,0.56631],[1.33831,-2.15456]],[[545.61718,644],[-3.04994,0.00386],[6.01206,-0.00761]],[[563.97058,644.43107],[-5.90478,-1.08158],[10.78253,2.15651]],[[597.04254,645.54479],[-10.6965,-2.40266],[9.00888,2.25222]],[[626.11718,648],[-9.28168,0],[2.33333,0]],[[633.11718,648],[-2.33333,0],[0.35109,0]],[[634.59021,647.90091],[-0.5707,0.05184],[-0.57412,-1.02596]],[[634.61718,643],[0,1.39387],[0,-5.20707]],[[634.21982,624.13246],[2.14282,4.67827],[-1.8936,-5.6808]],[[628.03948,607.31672],[3.08887,5.66543],[-2.2791,-4.1802]],[[620.32688,595.27881],[1.8857,4.15235],[-0.91417,-2.47477]],[[615.61718,594],[2.9771,0.57275],[-6.58756,-1.26734]],[[595.61718,593],[6.8054,0],[-2.48058,0]],[[587.61718,593],[2.40395,0.50364],[-0.50743,-0.10631]],[[585.44122,592.1748],[0.71481,0.32365],[1.30749,1.01011]],[[582.51161,594.78885],[1.25365,-0.62682],[-0.98239,0.4912]]],&quot;closed&quot;:true}],&quot;index&quot;:null}" fill="#c9c9c9" fill-rule="nonzero" stroke="none" stroke-width="0" stroke-linecap="butt"/><path d="M553.00602,319.84984c-0.00023,-0.18862 -0.0721,-0.50443 -0.14082,-0.81468c-0.26581,0.12626 -0.66232,0.23407 -1.17233,0.326c-1.52905,0.49208 -3.84966,0.49484 -3.84966,0.49484c-19.66498,0.02348 -31.018,4.35548 -37.9644,8.90647c-0.81722,0.51637 -0.74424,1.13725 -0.74355,1.71346c0.00019,0.16396 -0.04928,0.42457 -0.10333,0.69414c0.05187,-0.0868 0.18162,-0.15827 0.44583,-0.20437c1.16745,-0.20363 11.32048,1.02179 12.5653,0.30821c0.37411,-0.21444 -1.83653,-0.25214 -1.71489,-0.49361c1.49592,-2.96872 17.39306,-7.47543 25.20886,-8.71637c2.02712,-0.32185 4.30933,-0.48529 6.5782,-0.56161c-0.88762,-0.43424 0.89142,-1.10266 0.89075,-1.65244zM509.00481,331.30476c-0.11636,0.57847 -0.21964,1.1314 0.1323,0.79792c0.24055,-0.22787 -0.1075,-0.54698 -0.1323,-0.79792zM500.64169,327.31852c7.37339,-4.39172 17.18205,-8.39979 32.47316,-9.99099c1.43576,-0.7091 4.39899,-0.71264 4.39899,-0.71264l2.58133,-0.00307c5.84505,-0.00697 8.93666,-0.65229 15.21502,-0.65978c8.71911,-0.01041 10.7468,5.45003 6.18928,7.05528c-2.87593,1.01296 -7.49058,1.34972 -11.34132,1.96108c-11.39829,1.80969 -15.62223,6.97599 -28.11122,9.55897c-13.23673,2.7376 -27.82001,-3.15571 -21.40526,-7.20883z" data-paper-data="{&quot;index&quot;:null}" fill="#000000" fill-rule="nonzero" stroke="none" stroke-width="0" stroke-linecap="butt"/><path d="M553.05695,318.98044c0.0689,0.31025 0.15272,0.63055 0.15293,0.81918c0.00065,0.54977 -1.75717,1.22817 -0.86956,1.66247c-2.2689,0.07633 -4.56421,0.23315 -6.59138,0.55502c-7.81589,1.24095 -23.78979,5.725 -25.28565,8.69371c-0.12176,0.24149 1.84386,0.42234 1.46973,0.63679c-1.24485,0.71355 -11.48582,-0.53314 -12.6533,-0.32952c-0.2643,0.04611 -0.39279,0.11794 -0.44459,0.20482c0.05405,-0.26959 0.09394,-0.53391 0.09375,-0.69786c-0.00068,-0.57619 -0.09624,-1.20838 0.72101,-1.72475c6.94633,-4.551 18.70926,-8.97901 38.37421,-9.00249c0,0 2.33114,0.00069 3.86018,-0.49137c0.51004,-0.09196 0.90682,-0.19975 1.17243,-0.326z" data-paper-data="{&quot;noHover&quot;:false,&quot;origItem&quot;:[&quot;Path&quot;,{&quot;applyMatrix&quot;:true,&quot;segments&quot;:[[[607.563,601.99816],[0.02649,0.38155],[-0.10299,0.15484]],[[607.10872,602.39727],[0.1976,-0.11227],[-0.59254,0.60273]],[[605.61718,603],[0,0],[-7.618,0]],[[590.90604,613.89443],[2.69308,-5.58508],[-0.31682,0.63364]],[[590.61718,616],[0,-0.70843],[0,0.20156]],[[590.57685,616.85325],[0.02106,-0.33136],[0.02013,-0.10671]],[[590.74964,616.60263],[-0.10238,0.05628],[0.45234,-0.24865]],[[595.61718,617],[-0.48256,0.87548],[0.14503,-0.26312]],[[594.95308,616.3906],[-0.04725,0.29671],[0.58086,-3.64773]],[[604.72276,605.71115],[-3.02833,1.51416],[0.78545,-0.39273]],[[607.27135,605.03032],[-0.87898,0.0905],[-0.34365,-0.53523]],[[607.61718,603],[0,0.6759],[0,-0.23192]]],&quot;closed&quot;:true}],&quot;index&quot;:null}" fill="#ffffff" fill-rule="nonzero" stroke="none" stroke-width="0" stroke-linecap="butt"/><path d="M371.77627,315.28181l-19.76914,-36.42381l93.69715,0.21066l33.57674,36.08476z" data-paper-data="{&quot;index&quot;:null}" fill="#cedce9" fill-rule="nonzero" stroke="#000000" stroke-width="0" stroke-linecap="round"/><path d="M488.1911,313.24866c-2.53537,0.40255 -5.02815,0.63412 -7.49601,0.80189c0.01679,0.06136 0.02551,0.12534 0.02559,0.19213c0.00194,1.62671 -5.1608,1.63287 -5.1608,1.63287c-22.80221,0.02723 -45.60433,0.05446 -68.40647,0.0817c-5.86765,0.00701 -20.46882,-0.71355 -24.79534,0.26456c-2.49217,0.56343 -4.27685,0.51007 -7.47097,0.58734c-0.36051,0.00871 -1.01625,0.02726 -1.59566,0.03884c3.08953,0.69108 1.60419,7.1135 1.60635,8.90813c0.00908,7.59137 0.01812,15.18273 0.0272,22.77413c0.0016,1.35559 0.00322,2.71122 0.00485,4.06681c0.00065,0.54225 -0.90552,2.08845 0.00194,1.62673c3.45256,-1.75656 10.19566,-0.8224 18.06866,-0.83494c15.51938,-0.02475 32.13396,-0.56751 47.37744,0.29401c27.83585,1.72077 57.75828,-1.11733 85.37226,0.80392c23.25749,1.80409 51.09544,1.93593 75.05495,1.90732c6.02327,-0.00717 12.04642,-0.01438 18.06966,-0.02156c0.90625,-0.00107 2.32912,-0.04122 3.80233,-0.08515c-1.48298,-0.83273 0.06626,-2.8526 0.06491,-3.98631c-0.00505,-4.23525 4.49192,-11.54639 -1.04401,-15.3449c-4.89362,-4.61471 -7.99102,-9.05964 -15.97006,-13.65821c-5.88716,-3.393 -15.04909,-6.39587 -19.9208,-9.76742c-2.3623,-2.01007 -4.47318,-0.56894 -12.15878,-1.02562c-17.00624,-1.01051 -34.0612,-0.77269 -51.62851,-0.7517c-6.4034,0.00765 -14.44505,0.42691 -20.65104,0.02466c-1.31004,-0.0849 -3.77221,-0.40342 -5.6178,-0.66447c3.37603,0.8176 -4.32441,1.62154 -7.55991,2.13524zM407.14921,312.70388c17.23319,-0.02059 34.46634,-0.04118 51.69948,-0.06175c0.49704,-0.07891 0.99398,-0.1578 1.49101,-0.23672c6.54685,-1.03943 12.45893,-0.77312 18.06825,-1.24162c7.64435,-0.63849 12.21475,-2.76351 20.10212,-3.27746c4.53093,-0.29524 17.08239,0.62123 23.50567,0.61355c17.41699,-0.0208 34.81452,-0.35537 51.62851,0.7517c9.44543,0.62192 17.42579,-0.62206 21.84711,3.14012c0.65281,1.43036 5.86528,2.3186 8.59232,3.41627c4.16756,1.67749 7.65219,4.16508 10.87776,6.02403c7.99617,4.60841 11.5153,9.35396 16.53092,14.08371c4.48318,4.9865 1.56901,11.1801 1.5752,16.37311c0.00344,2.87102 1.44189,4.89281 -5.15399,7.32643c-2.30007,0.84863 -23.55962,0.02813 -27.10445,0.03236c-24.71307,0.02953 -53.58879,-0.1421 -77.5594,-2.00149c-26.33426,-2.39367 -57.67394,0.91211 -84.8929,-0.77053c-21.93438,-1.53038 -55.78304,2.65665 -73.75043,-2.63945c-1.77886,-0.52437 -0.00578,-4.82668 -0.00681,-5.69354c-0.00908,-7.59137 -0.01812,-15.18273 -0.0272,-22.77413c-0.00301,-2.53807 -3.56112,-8.5936 1.82327,-10.49006c9.39607,-3.30945 26.98922,-2.55817 40.75383,-2.5746z" data-paper-data="{&quot;index&quot;:null}" fill="#000000" fill-rule="nonzero" stroke="none" stroke-width="0" stroke-linecap="butt"/><path d="M480.62287,313.97247c2.46783,-0.16775 4.99065,-0.40151 7.52614,-0.80406c3.23549,-0.51368 10.96657,-1.31866 7.59043,-2.13623c1.84557,0.26106 4.3283,0.57951 5.63821,0.66443c6.206,0.40224 14.31973,-0.01303 20.72296,-0.02067c17.56722,-0.02097 34.73294,-0.23612 51.73914,0.77437c7.68559,0.45668 9.81249,-0.9783 12.17477,1.03176c4.87175,3.37152 14.0724,6.3986 19.95963,9.7916c7.97906,4.59851 11.08711,9.07438 15.98073,13.68907c5.53599,3.79853 1.01478,11.13785 1.01984,15.37309c0.00134,1.1337 -1.55753,3.15934 -0.07451,3.99206c-1.47309,0.04391 -2.89793,0.0851 -3.80425,0.0862c-6.02325,0.00719 -12.05696,0.01951 -18.0802,0.02669c-23.95963,0.02861 -51.91057,-0.07479 -75.16808,-1.87888c-27.61399,-1.92127 -57.80997,0.9014 -85.64586,-0.81937c-15.24347,-0.86152 -31.90507,-0.33724 -47.42446,-0.31253c-7.87299,0.01256 -14.62221,-0.92509 -18.07478,0.83146c-0.90746,0.46168 -0.00517,-1.08688 -0.00583,-1.62915c-0.00162,-1.35557 -0.01208,-2.71778 -0.01371,-4.07337c-0.00904,-7.59139 -0.02892,-15.22787 -0.038,-22.81927c-0.00216,-1.79464 1.49884,-8.23261 -1.59071,-8.92371c0.57949,-0.01163 1.2357,-0.03054 1.59627,-0.03928c3.19401,-0.07722 4.98276,-0.0266 7.47484,-0.59001c4.32652,-0.97809 18.94091,-0.26512 24.80854,-0.27213c22.80227,-0.02723 45.7259,-0.08694 68.52805,-0.11418c0,0 5.18809,-0.00896 5.18615,-1.6357c-0.00008,-0.06676 -0.0082,-0.13079 -0.025,-0.19218z" data-paper-data="{&quot;noHover&quot;:false,&quot;origItem&quot;:[&quot;Path&quot;,{&quot;applyMatrix&quot;:true,&quot;segments&quot;:[[[579.60736,595.76373],[0.95609,-0.20262],[0.00646,0.07548]],[[579.61718,596],[0,-0.08208],[0,2]],[[577.61718,598],[0,0],[-8.83333,0]],[[551.11718,598],[8.83333,0],[-2.27308,0]],[[541.51161,598.28885],[1.67648,-1.19621],[-0.96568,0.68904]],[[538.61718,599],[1.23739,-0.09027],[-0.13966,0.01019]],[[537.99901,599.04541],[0.22447,-0.0134],[1.19653,0.85421]],[[538.61718,610],[0,-2.20646],[0,9.33333]],[[538.61718,638],[0,-9.33333],[0,1.66667]],[[538.61718,643],[0,-1.66667],[0,0.66667]],[[538.61718,645],[-0.35177,0.56631],[1.33831,-2.15456]],[[545.61718,644],[-3.04994,0.00386],[6.01206,-0.00761]],[[563.97058,644.43107],[-5.90478,-1.08158],[10.78253,2.15651]],[[597.04254,645.54479],[-10.6965,-2.40266],[9.00888,2.25222]],[[626.11718,648],[-9.28168,0],[2.33333,0]],[[633.11718,648],[-2.33333,0],[0.35109,0]],[[634.59021,647.90091],[-0.5707,0.05184],[-0.57412,-1.02596]],[[634.61718,643],[0,1.39387],[0,-5.20707]],[[634.21982,624.13246],[2.14282,4.67827],[-1.8936,-5.6808]],[[628.03948,607.31672],[3.08887,5.66543],[-2.2791,-4.1802]],[[620.32688,595.27881],[1.8857,4.15235],[-0.91417,-2.47477]],[[615.61718,594],[2.9771,0.57275],[-6.58756,-1.26734]],[[595.61718,593],[6.8054,0],[-2.48058,0]],[[587.61718,593],[2.40395,0.50364],[-0.50743,-0.10631]],[[585.44122,592.1748],[0.71481,0.32365],[1.30749,1.01011]],[[582.51161,594.78885],[1.25365,-0.62682],[-0.98239,0.4912]]],&quot;closed&quot;:true}],&quot;index&quot;:null}" fill="#c9c9c9" fill-rule="nonzero" stroke="none" stroke-width="0" stroke-linecap="butt"/><path d="M553.00603,319.84984c-0.00023,-0.18862 -0.0721,-0.50443 -0.14082,-0.81468c-0.26581,0.12626 -0.66232,0.23407 -1.17233,0.326c-1.52905,0.49208 -3.84966,0.49484 -3.84966,0.49484c-19.66498,0.02348 -31.018,4.35548 -37.9644,8.90647c-0.81722,0.51637 -0.74424,1.13725 -0.74355,1.71346c0.00019,0.16396 -0.04928,0.42457 -0.10333,0.69414c0.05187,-0.0868 0.18162,-0.15827 0.44583,-0.20437c1.16745,-0.20363 11.32048,1.02179 12.5653,0.30821c0.37411,-0.21444 -1.83653,-0.25214 -1.71489,-0.49361c1.49592,-2.96872 17.39306,-7.47543 25.20886,-8.71637c2.02712,-0.32185 4.30933,-0.48529 6.5782,-0.56161c-0.88762,-0.43424 0.89142,-1.10266 0.89075,-1.65244zM509.00481,331.30476c-0.11636,0.57847 -0.21964,1.1314 0.1323,0.79792c0.24055,-0.22787 -0.1075,-0.54698 -0.1323,-0.79792zM500.64169,327.31852c7.37339,-4.39172 17.18205,-8.39979 32.47316,-9.99099c1.43576,-0.7091 4.39899,-0.71264 4.39899,-0.71264l2.58133,-0.00307c5.84505,-0.00697 8.93666,-0.65229 15.21502,-0.65978c8.71911,-0.01041 10.7468,5.45003 6.18928,7.05528c-2.87593,1.01296 -7.49058,1.34972 -11.34132,1.96108c-11.39829,1.80969 -15.62223,6.97599 -28.11122,9.55897c-13.23673,2.7376 -27.82001,-3.15571 -21.40526,-7.20883z" data-paper-data="{&quot;index&quot;:null}" fill="#000000" fill-rule="nonzero" stroke="none" stroke-width="0" stroke-linecap="butt"/><path d="M553.05695,318.98044c0.0689,0.31025 0.15272,0.63055 0.15293,0.81918c0.00065,0.54977 -1.75717,1.22817 -0.86956,1.66247c-2.2689,0.07633 -4.56421,0.23315 -6.59138,0.55502c-7.81589,1.24095 -23.78979,5.725 -25.28565,8.69371c-0.12176,0.24149 1.84386,0.42234 1.46973,0.63679c-1.24485,0.71355 -11.48582,-0.53314 -12.6533,-0.32952c-0.2643,0.04611 -0.39279,0.11794 -0.44459,0.20482c0.05405,-0.26959 0.09394,-0.53391 0.09375,-0.69786c-0.00068,-0.57619 -0.09624,-1.20838 0.72101,-1.72475c6.94633,-4.551 18.70926,-8.97901 38.37421,-9.00249c0,0 2.33114,0.00069 3.86018,-0.49137c0.51004,-0.09196 0.90682,-0.19975 1.17243,-0.326z" data-paper-data="{&quot;noHover&quot;:false,&quot;origItem&quot;:[&quot;Path&quot;,{&quot;applyMatrix&quot;:true,&quot;segments&quot;:[[[607.563,601.99816],[0.02649,0.38155],[-0.10299,0.15484]],[[607.10872,602.39727],[0.1976,-0.11227],[-0.59254,0.60273]],[[605.61718,603],[0,0],[-7.618,0]],[[590.90604,613.89443],[2.69308,-5.58508],[-0.31682,0.63364]],[[590.61718,616],[0,-0.70843],[0,0.20156]],[[590.57685,616.85325],[0.02106,-0.33136],[0.02013,-0.10671]],[[590.74964,616.60263],[-0.10238,0.05628],[0.45234,-0.24865]],[[595.61718,617],[-0.48256,0.87548],[0.14503,-0.26312]],[[594.95308,616.3906],[-0.04725,0.29671],[0.58086,-3.64773]],[[604.72276,605.71115],[-3.02833,1.51416],[0.78545,-0.39273]],[[607.27135,605.03032],[-0.87898,0.0905],[-0.34365,-0.53523]],[[607.61718,603],[0,0.6759],[0,-0.23192]]],&quot;closed&quot;:true}],&quot;index&quot;:null}" fill="#ffffff" fill-rule="nonzero" stroke="none" stroke-width="0" stroke-linecap="butt"/><path d="M164.71899,313.15341l33.57675,-36.08476l93.69714,-0.21066l-19.76914,36.42381z" data-paper-data="{&quot;index&quot;:null}" fill="#cedce9" fill-rule="nonzero" stroke="#000000" stroke-width="0" stroke-linecap="round"/><path d="M155.80894,311.24861c-3.2355,-0.51369 -10.93595,-1.31764 -7.55991,-2.13524c-1.84559,0.26105 -4.30777,0.57958 -5.61781,0.66448c-6.20599,0.40225 -14.24765,-0.01701 -20.65104,-0.02466c-17.56731,-0.02098 -34.62226,-0.2588 -51.62851,0.75171c-7.68561,0.45668 -9.79648,-0.98445 -12.15878,1.02562c-4.8717,3.37155 -14.03364,6.37442 -19.92079,9.76742c-7.97904,4.59857 -11.07645,9.0435 -15.97007,13.65821c-5.53593,3.79852 -1.03896,11.10965 -1.04401,15.3449c-0.00135,1.13371 1.54789,3.15357 0.06491,3.98631c1.47321,0.04393 2.89607,0.08408 3.80232,0.08515c6.02324,0.00718 12.04639,0.01439 18.06966,0.02156c23.95951,0.02861 51.79746,-0.10323 75.05494,-1.90733c27.61399,-1.92125 57.53642,0.91685 85.37226,-0.80392c15.24348,-0.86151 31.85806,-0.31876 47.37744,-0.294c7.87301,0.01254 14.6161,-0.92163 18.06866,0.83494c0.90746,0.46172 0.00129,-1.08448 0.00194,-1.62673c0.00162,-1.35559 0.00325,-2.71121 0.00485,-4.06681c0.00908,-7.59141 0.01812,-15.18276 0.0272,-22.77413c0.00216,-1.79462 -1.48319,-8.21705 1.60635,-8.90812c-0.5794,-0.01158 -1.23515,-0.03012 -1.59566,-0.03884c-3.19412,-0.07727 -4.97879,-0.02392 -7.47096,-0.58735c-4.32652,-0.97811 -18.92768,-0.25754 -24.79534,-0.26455c-22.80214,-0.02724 -45.60426,-0.05447 -68.40647,-0.0817c0,0 -5.16274,-0.00616 -5.1608,-1.63287c0.00008,-0.0668 0.0088,-0.13077 0.02559,-0.19213c-2.46787,-0.16777 -4.96064,-0.39934 -7.49601,-0.80189zM236.85053,310.70381c13.76461,0.01644 31.35777,-0.73484 40.75384,2.5746c5.38439,1.89646 1.82628,7.95199 1.82327,10.49005c-0.00907,7.59141 -0.01813,15.18277 -0.0272,22.77414c-0.00103,0.86686 1.77206,5.16917 -0.0068,5.69354c-17.9674,5.29609 -51.81605,1.10907 -73.75043,2.63944c-27.21896,1.68264 -58.55864,-1.62314 -84.8929,0.77053c-23.97061,1.85939 -52.84632,2.03102 -77.55939,2.0015c-3.54483,-0.00424 -24.80439,0.81626 -27.10445,-0.03237c-6.59588,-2.43361 -5.15742,-4.45541 -5.15399,-7.32643c0.00619,-5.19301 -2.90798,-11.3866 1.5752,-16.3731c5.01563,-4.72974 8.53476,-9.4753 16.53093,-14.08371c3.22556,-1.85895 6.71019,-4.34654 10.87776,-6.02404c2.72704,-1.09767 7.9395,-1.98591 8.59231,-3.41627c4.42133,-3.76218 12.40168,-2.51821 21.84711,-3.14013c16.81399,-1.10707 34.21152,-0.7725 51.62851,-0.7517c6.42327,0.00768 18.97474,-0.90879 23.50567,-0.61355c7.88736,0.51396 12.45776,2.63897 20.10211,3.27747c5.60931,0.4685 11.5214,0.20219 18.06825,1.24162c0.49703,0.07892 0.99398,0.1578 1.49101,0.23672c17.23314,0.02057 34.46629,0.04116 51.69948,0.06175z" data-paper-data="{&quot;index&quot;:null}" fill="#000000" fill-rule="nonzero" stroke="none" stroke-width="0" stroke-linecap="butt"/><path d="M163.37679,311.97247c-0.0168,0.06138 -0.02491,0.12542 -0.025,0.19218c-0.00194,1.62673 5.18615,1.63569 5.18615,1.63569c22.80215,0.02724 45.72579,0.08695 68.52805,0.11418c5.86764,0.00702 20.48202,-0.70596 24.80854,0.27213c2.49208,0.56341 4.28083,0.51279 7.47484,0.59001c0.36057,0.00874 1.01678,0.02765 1.59627,0.03929c-3.08955,0.6911 -1.58855,7.12907 -1.59071,8.92371c-0.00907,7.59141 -0.02895,15.22788 -0.03799,22.81927c-0.00163,1.35559 -0.0121,2.71781 -0.01371,4.07337c-0.00066,0.54227 0.90163,2.09083 -0.00583,1.62915c-3.45256,-1.75655 -10.20178,-0.8189 -18.07478,-0.83146c-15.51939,-0.02471 -32.18099,-0.54898 -47.42446,0.31254c-27.83589,1.72077 -58.03187,-1.10191 -85.64586,0.81937c-23.25751,1.8041 -51.20845,1.90749 -75.16808,1.87888c-6.02324,-0.00718 -12.05696,-0.0195 -18.0802,-0.02668c-0.90632,-0.0011 -2.33116,-0.0423 -3.80425,-0.0862c1.48302,-0.83272 -0.07586,-2.85836 -0.07452,-3.99206c0.00506,-4.23523 -4.51614,-11.57456 1.01984,-15.37309c4.89361,-4.61468 8.00167,-9.09055 15.98073,-13.68906c5.88724,-3.39301 15.08788,-6.42008 19.95963,-9.79161c2.36227,-2.01006 4.48917,-0.57508 12.17477,-1.03176c17.00621,-1.01049 34.17192,-0.79534 51.73915,-0.77437c6.40323,0.00765 14.51696,0.42291 20.72296,0.02067c1.30991,-0.08492 3.79264,-0.40337 5.63821,-0.66444c-3.37613,0.81757 4.35494,1.62256 7.59043,2.13623c2.5355,0.40255 5.05832,0.63631 7.52615,0.80406z" data-paper-data="{&quot;noHover&quot;:false,&quot;origItem&quot;:[&quot;Path&quot;,{&quot;applyMatrix&quot;:true,&quot;segments&quot;:[[[579.60736,595.76373],[0.95609,-0.20262],[0.00646,0.07548]],[[579.61718,596],[0,-0.08208],[0,2]],[[577.61718,598],[0,0],[-8.83333,0]],[[551.11718,598],[8.83333,0],[-2.27308,0]],[[541.51161,598.28885],[1.67648,-1.19621],[-0.96568,0.68904]],[[538.61718,599],[1.23739,-0.09027],[-0.13966,0.01019]],[[537.99901,599.04541],[0.22447,-0.0134],[1.19653,0.85421]],[[538.61718,610],[0,-2.20646],[0,9.33333]],[[538.61718,638],[0,-9.33333],[0,1.66667]],[[538.61718,643],[0,-1.66667],[0,0.66667]],[[538.61718,645],[-0.35177,0.56631],[1.33831,-2.15456]],[[545.61718,644],[-3.04994,0.00386],[6.01206,-0.00761]],[[563.97058,644.43107],[-5.90478,-1.08158],[10.78253,2.15651]],[[597.04254,645.54479],[-10.6965,-2.40266],[9.00888,2.25222]],[[626.11718,648],[-9.28168,0],[2.33333,0]],[[633.11718,648],[-2.33333,0],[0.35109,0]],[[634.59021,647.90091],[-0.5707,0.05184],[-0.57412,-1.02596]],[[634.61718,643],[0,1.39387],[0,-5.20707]],[[634.21982,624.13246],[2.14282,4.67827],[-1.8936,-5.6808]],[[628.03948,607.31672],[3.08887,5.66543],[-2.2791,-4.1802]],[[620.32688,595.27881],[1.8857,4.15235],[-0.91417,-2.47477]],[[615.61718,594],[2.9771,0.57275],[-6.58756,-1.26734]],[[595.61718,593],[6.8054,0],[-2.48058,0]],[[587.61718,593],[2.40395,0.50364],[-0.50743,-0.10631]],[[585.44122,592.1748],[0.71481,0.32365],[1.30749,1.01011]],[[582.51161,594.78885],[1.25365,-0.62682],[-0.98239,0.4912]]],&quot;closed&quot;:true}],&quot;index&quot;:null}" fill="#c9c9c9" fill-rule="nonzero" stroke="none" stroke-width="0" stroke-linecap="butt"/><path d="M90.99403,317.84988c-0.00067,0.54978 1.77837,1.2182 0.89076,1.65244c2.26887,0.07632 4.55109,0.23976 6.5782,0.56161c7.8158,1.24093 23.71294,5.74764 25.20885,8.71636c0.12164,0.24147 -2.08899,0.27917 -1.71489,0.49361c1.24482,0.71358 11.39785,-0.51184 12.5653,-0.30821c0.26421,0.04609 0.39396,0.11756 0.44583,0.20436c-0.05406,-0.26957 -0.10352,-0.53018 -0.10333,-0.69414c0.00069,-0.57621 0.07367,-1.19709 -0.74355,-1.71346c-6.9464,-4.551 -18.29942,-8.883 -37.9644,-8.90647c0,0 -2.32061,-0.00276 -3.84966,-0.49484c-0.51,-0.09193 -0.90652,-0.19975 -1.17233,-0.326c-0.06872,0.31025 -0.14059,0.62606 -0.14083,0.81468zM134.86289,330.10267c0.35194,0.33348 0.24865,-0.21945 0.13229,-0.79792c-0.0248,0.25094 -0.37284,0.57005 -0.13229,0.79792zM143.35832,325.31854c6.41475,4.05312 -8.16853,9.94644 -21.40526,7.20883c-12.48898,-2.58297 -16.71293,-7.74928 -28.11122,-9.55897c-3.85074,-0.61136 -8.46538,-0.94813 -11.34132,-1.96108c-4.55751,-1.60525 -2.52983,-7.06569 6.18928,-7.05528c6.27836,0.0075 9.36997,0.65282 15.21501,0.65978l2.58133,0.00307c0,0 2.96323,0.00354 4.39899,0.71264c15.29111,1.59121 25.09977,5.59927 32.47316,9.99099z" data-paper-data="{&quot;index&quot;:null}" fill="#000000" fill-rule="nonzero" stroke="none" stroke-width="0" stroke-linecap="butt"/><path d="M90.94327,316.98043c0.26561,0.12624 0.6624,0.23404 1.17244,0.326c1.52904,0.49206 3.86019,0.49137 3.86019,0.49137c19.66494,0.02348 31.42788,4.4515 38.37421,9.0025c0.81725,0.51637 0.72169,1.14856 0.72101,1.72475c-0.00018,0.16395 0.03971,0.42827 0.09375,0.69786c-0.0518,-0.08688 -0.18028,-0.15871 -0.44458,-0.20482c-1.16748,-0.20362 -11.40845,1.04307 -12.6533,0.32952c-0.37414,-0.21445 1.5915,-0.3953 1.46973,-0.63679c-1.49586,-2.96871 -17.46976,-7.45277 -25.28565,-8.69371c-2.02717,-0.32186 -4.32249,-0.47869 -6.59138,-0.55501c0.88761,-0.4343 -0.87021,-1.11271 -0.86955,-1.66247c0.00022,-0.18863 0.08403,-0.50893 0.15293,-0.81918z" data-paper-data="{&quot;noHover&quot;:false,&quot;origItem&quot;:[&quot;Path&quot;,{&quot;applyMatrix&quot;:true,&quot;segments&quot;:[[[607.563,601.99816],[0.02649,0.38155],[-0.10299,0.15484]],[[607.10872,602.39727],[0.1976,-0.11227],[-0.59254,0.60273]],[[605.61718,603],[0,0],[-7.618,0]],[[590.90604,613.89443],[2.69308,-5.58508],[-0.31682,0.63364]],[[590.61718,616],[0,-0.70843],[0,0.20156]],[[590.57685,616.85325],[0.02106,-0.33136],[0.02013,-0.10671]],[[590.74964,616.60263],[-0.10238,0.05628],[0.45234,-0.24865]],[[595.61718,617],[-0.48256,0.87548],[0.14503,-0.26312]],[[594.95308,616.3906],[-0.04725,0.29671],[0.58086,-3.64773]],[[604.72276,605.71115],[-3.02833,1.51416],[0.78545,-0.39273]],[[607.27135,605.03032],[-0.87898,0.0905],[-0.34365,-0.53523]],[[607.61718,603],[0,0.6759],[0,-0.23192]]],&quot;closed&quot;:true}],&quot;index&quot;:null}" fill="#ffffff" fill-rule="nonzero" stroke="none" stroke-width="0" stroke-linecap="butt"/><path d="M164.71899,313.15341l33.57674,-36.08476l93.69715,-0.21066l-19.76914,36.42381z" data-paper-data="{&quot;index&quot;:null}" fill="#cedce9" fill-rule="nonzero" stroke="#000000" stroke-width="0" stroke-linecap="round"/><path d="M155.80894,311.24861c-3.2355,-0.51369 -10.93595,-1.31764 -7.55991,-2.13524c-1.84559,0.26105 -4.30777,0.57958 -5.61781,0.66448c-6.20599,0.40225 -14.24765,-0.01701 -20.65104,-0.02466c-17.56731,-0.02098 -34.62226,-0.2588 -51.62851,0.75171c-7.68561,0.45668 -9.79648,-0.98445 -12.15878,1.02562c-4.8717,3.37155 -14.03364,6.37442 -19.92079,9.76742c-7.97904,4.59857 -11.07645,9.0435 -15.97007,13.65821c-5.53593,3.79852 -1.03896,11.10965 -1.04401,15.3449c-0.00135,1.13371 1.54789,3.15357 0.06491,3.98631c1.47321,0.04393 2.89607,0.08408 3.80232,0.08515c6.02324,0.00718 12.04639,0.01439 18.06966,0.02156c23.95951,0.02861 51.79746,-0.10323 75.05494,-1.90733c27.61399,-1.92125 57.53642,0.91685 85.37227,-0.80392c15.24348,-0.86151 31.85806,-0.31876 47.37744,-0.294c7.87301,0.01254 14.6161,-0.92163 18.06866,0.83494c0.90746,0.46172 0.00129,-1.08448 0.00194,-1.62673c0.00162,-1.35559 0.00325,-2.71121 0.00485,-4.06681c0.00908,-7.59141 0.01812,-15.18276 0.0272,-22.77413c0.00216,-1.79462 -1.48319,-8.21705 1.60635,-8.90812c-0.5794,-0.01158 -1.23515,-0.03012 -1.59566,-0.03884c-3.19412,-0.07727 -4.97879,-0.02392 -7.47096,-0.58735c-4.32652,-0.97811 -18.92768,-0.25754 -24.79534,-0.26455c-22.80214,-0.02724 -45.60426,-0.05447 -68.40647,-0.0817c0,0 -5.16274,-0.00616 -5.1608,-1.63287c0.00007,-0.0668 0.00879,-0.13077 0.02558,-0.19213c-2.46786,-0.16777 -4.96064,-0.39934 -7.49601,-0.80189zM236.85053,310.70381c13.7646,0.01644 31.35776,-0.73484 40.75383,2.5746c5.38439,1.89646 1.82628,7.95199 1.82328,10.49005c-0.00908,7.59141 -0.01813,15.18277 -0.0272,22.77414c-0.00103,0.86686 1.77206,5.16917 -0.0068,5.69354c-17.9674,5.29609 -51.81605,1.10907 -73.75043,2.63944c-27.21896,1.68264 -58.55864,-1.62314 -84.8929,0.77053c-23.97061,1.85939 -52.84633,2.03102 -77.5594,2.0015c-3.54483,-0.00424 -24.80438,0.81626 -27.10445,-0.03237c-6.59588,-2.43361 -5.15742,-4.45541 -5.15399,-7.32643c0.00619,-5.19301 -2.90798,-11.3866 1.5752,-16.3731c5.01563,-4.72974 8.53476,-9.4753 16.53093,-14.08371c3.22556,-1.85895 6.71019,-4.34654 10.87775,-6.02404c2.72704,-1.09767 7.9395,-1.98591 8.59231,-3.41627c4.42133,-3.76218 12.40169,-2.51821 21.84712,-3.14013c16.81399,-1.10707 34.21151,-0.7725 51.62851,-0.7517c6.42327,0.00768 18.97474,-0.90879 23.50567,-0.61355c7.88736,0.51396 12.45777,2.63897 20.10212,3.27747c5.60932,0.4685 11.5214,0.20219 18.06825,1.24162c0.49703,0.07892 0.99398,0.1578 1.49101,0.23672c17.23314,0.02057 34.46629,0.04116 51.69948,0.06175z" data-paper-data="{&quot;index&quot;:null}" fill="#000000" fill-rule="nonzero" stroke="none" stroke-width="0" stroke-linecap="butt"/><path d="M163.37679,311.97247c-0.0168,0.06138 -0.02491,0.12542 -0.025,0.19218c-0.00194,1.62673 5.18615,1.63569 5.18615,1.63569c22.80215,0.02724 45.72579,0.08695 68.52805,0.11418c5.86764,0.00702 20.48202,-0.70596 24.80854,0.27213c2.49208,0.56341 4.28083,0.51279 7.47484,0.59001c0.36057,0.00874 1.01678,0.02765 1.59627,0.03929c-3.08955,0.6911 -1.58855,7.12907 -1.59071,8.92371c-0.00907,7.59141 -0.02895,15.22788 -0.03799,22.81927c-0.00163,1.35559 -0.0121,2.71781 -0.01371,4.07337c-0.00066,0.54227 0.90163,2.09083 -0.00583,1.62915c-3.45256,-1.75655 -10.20178,-0.8189 -18.07478,-0.83146c-15.51939,-0.02471 -32.18099,-0.54898 -47.42446,0.31254c-27.83589,1.72077 -58.03187,-1.10191 -85.64586,0.81937c-23.25751,1.8041 -51.20845,1.90749 -75.16808,1.87888c-6.02324,-0.00718 -12.05696,-0.0195 -18.0802,-0.02668c-0.90632,-0.0011 -2.33116,-0.0423 -3.80425,-0.0862c1.48302,-0.83272 -0.07586,-2.85836 -0.07452,-3.99206c0.00506,-4.23523 -4.51614,-11.57456 1.01984,-15.37309c4.89361,-4.61468 8.00167,-9.09055 15.98073,-13.68906c5.88724,-3.39301 15.08788,-6.42008 19.95963,-9.79161c2.36227,-2.01006 4.48917,-0.57508 12.17477,-1.03176c17.00621,-1.01049 34.17192,-0.79534 51.73915,-0.77437c6.40323,0.00765 14.51696,0.42291 20.72296,0.02067c1.30991,-0.08492 3.79264,-0.40337 5.63821,-0.66444c-3.37613,0.81757 4.35494,1.62256 7.59043,2.13623c2.5355,0.40255 5.05832,0.63631 7.52615,0.80406z" data-paper-data="{&quot;noHover&quot;:false,&quot;origItem&quot;:[&quot;Path&quot;,{&quot;applyMatrix&quot;:true,&quot;segments&quot;:[[[579.60736,595.76373],[0.95609,-0.20262],[0.00646,0.07548]],[[579.61718,596],[0,-0.08208],[0,2]],[[577.61718,598],[0,0],[-8.83333,0]],[[551.11718,598],[8.83333,0],[-2.27308,0]],[[541.51161,598.28885],[1.67648,-1.19621],[-0.96568,0.68904]],[[538.61718,599],[1.23739,-0.09027],[-0.13966,0.01019]],[[537.99901,599.04541],[0.22447,-0.0134],[1.19653,0.85421]],[[538.61718,610],[0,-2.20646],[0,9.33333]],[[538.61718,638],[0,-9.33333],[0,1.66667]],[[538.61718,643],[0,-1.66667],[0,0.66667]],[[538.61718,645],[-0.35177,0.56631],[1.33831,-2.15456]],[[545.61718,644],[-3.04994,0.00386],[6.01206,-0.00761]],[[563.97058,644.43107],[-5.90478,-1.08158],[10.78253,2.15651]],[[597.04254,645.54479],[-10.6965,-2.40266],[9.00888,2.25222]],[[626.11718,648],[-9.28168,0],[2.33333,0]],[[633.11718,648],[-2.33333,0],[0.35109,0]],[[634.59021,647.90091],[-0.5707,0.05184],[-0.57412,-1.02596]],[[634.61718,643],[0,1.39387],[0,-5.20707]],[[634.21982,624.13246],[2.14282,4.67827],[-1.8936,-5.6808]],[[628.03948,607.31672],[3.08887,5.66543],[-2.2791,-4.1802]],[[620.32688,595.27881],[1.8857,4.15235],[-0.91417,-2.47477]],[[615.61718,594],[2.9771,0.57275],[-6.58756,-1.26734]],[[595.61718,593],[6.8054,0],[-2.48058,0]],[[587.61718,593],[2.40395,0.50364],[-0.50743,-0.10631]],[[585.44122,592.1748],[0.71481,0.32365],[1.30749,1.01011]],[[582.51161,594.78885],[1.25365,-0.62682],[-0.98239,0.4912]]],&quot;closed&quot;:true}],&quot;index&quot;:null}" fill="#c9c9c9" fill-rule="nonzero" stroke="none" stroke-width="0" stroke-linecap="butt"/><path d="M90.99402,317.84988c-0.00067,0.54978 1.77837,1.2182 0.89075,1.65244c2.26887,0.07632 4.55109,0.23976 6.5782,0.56161c7.8158,1.24093 23.71294,5.74764 25.20885,8.71636c0.12164,0.24147 -2.08899,0.27917 -1.71489,0.49361c1.24482,0.71358 11.39785,-0.51184 12.5653,-0.30821c0.26421,0.04609 0.39396,0.11756 0.44583,0.20436c-0.05406,-0.26957 -0.10352,-0.53018 -0.10333,-0.69414c0.00069,-0.57621 0.07367,-1.19709 -0.74355,-1.71346c-6.9464,-4.551 -18.29942,-8.883 -37.9644,-8.90647c0,0 -2.32061,-0.00276 -3.84966,-0.49484c-0.51,-0.09193 -0.90653,-0.19975 -1.17233,-0.326c-0.06872,0.31025 -0.14059,0.62606 -0.14082,0.81468zM134.86289,330.10267c0.35194,0.33348 0.24865,-0.21945 0.13229,-0.79792c-0.0248,0.25094 -0.37284,0.57005 -0.13229,0.79792zM143.35832,325.31854c6.41475,4.05312 -8.16853,9.94644 -21.40526,7.20883c-12.48898,-2.58297 -16.71293,-7.74928 -28.11122,-9.55897c-3.85074,-0.61136 -8.46538,-0.94813 -11.34132,-1.96108c-4.55751,-1.60525 -2.52983,-7.06569 6.18928,-7.05528c6.27836,0.0075 9.36997,0.65282 15.21501,0.65978l2.58133,0.00307c0,0 2.96323,0.00354 4.39899,0.71264c15.29111,1.59121 25.09977,5.59927 32.47316,9.99099z" data-paper-data="{&quot;index&quot;:null}" fill="#000000" fill-rule="nonzero" stroke="none" stroke-width="0" stroke-linecap="butt"/><path d="M90.94327,316.98043c0.26561,0.12624 0.6624,0.23404 1.17244,0.326c1.52904,0.49206 3.86019,0.49137 3.86019,0.49137c19.66494,0.02348 31.42788,4.4515 38.37421,9.0025c0.81725,0.51637 0.72169,1.14856 0.72101,1.72475c-0.00018,0.16395 0.03971,0.42827 0.09375,0.69786c-0.0518,-0.08688 -0.18028,-0.15871 -0.44458,-0.20482c-1.16748,-0.20362 -11.40845,1.04307 -12.6533,0.32952c-0.37414,-0.21445 1.5915,-0.3953 1.46973,-0.63679c-1.49586,-2.96871 -17.46976,-7.45277 -25.28565,-8.69371c-2.02717,-0.32186 -4.32249,-0.47869 -6.59138,-0.55501c0.88761,-0.4343 -0.87021,-1.11271 -0.86955,-1.66247c0.00022,-0.18863 0.08403,-0.50893 0.15293,-0.81918z" data-paper-data="{&quot;noHover&quot;:false,&quot;origItem&quot;:[&quot;Path&quot;,{&quot;applyMatrix&quot;:true,&quot;segments&quot;:[[[607.563,601.99816],[0.02649,0.38155],[-0.10299,0.15484]],[[607.10872,602.39727],[0.1976,-0.11227],[-0.59254,0.60273]],[[605.61718,603],[0,0],[-7.618,0]],[[590.90604,613.89443],[2.69308,-5.58508],[-0.31682,0.63364]],[[590.61718,616],[0,-0.70843],[0,0.20156]],[[590.57685,616.85325],[0.02106,-0.33136],[0.02013,-0.10671]],[[590.74964,616.60263],[-0.10238,0.05628],[0.45234,-0.24865]],[[595.61718,617],[-0.48256,0.87548],[0.14503,-0.26312]],[[594.95308,616.3906],[-0.04725,0.29671],[0.58086,-3.64773]],[[604.72276,605.71115],[-3.02833,1.51416],[0.78545,-0.39273]],[[607.27135,605.03032],[-0.87898,0.0905],[-0.34365,-0.53523]],[[607.61718,603],[0,0.6759],[0,-0.23192]]],&quot;closed&quot;:true}],&quot;index&quot;:null}" fill="#ffffff" fill-rule="nonzero" stroke="none" stroke-width="0" stroke-linecap="butt"/><g><g><path d="M499.58375,231.03629c0.43952,0.80925 0.68956,1.7162 0.75316,2.72041c-2.50138,0.50513 -4.98004,0.79824 -7.43586,0.87993c2.36055,-0.37956 4.71804,-0.75864 7.07861,-1.13821c-0.13198,-0.82081 -0.26391,-1.64132 -0.3959,-2.46212z" data-paper-data="{&quot;index&quot;:null}" fill="#6b6b6b" fill-rule="evenodd" stroke="none" stroke-width="0" stroke-linecap="butt"/><path d="M510.29522,230.89254c0.33908,0.28268 0.50969,0.67609 0.50571,1.18157c-3.11687,0.60441 -6.211,0.9968 -9.28244,1.17685c2.97609,-0.47854 5.94911,-0.95659 8.92519,-1.43514c-0.04949,-0.30776 -0.09898,-0.61552 -0.14846,-0.92329z" data-paper-data="{&quot;index&quot;:null}" fill="#9e9e9e" fill-rule="evenodd" stroke="none" stroke-width="0" stroke-linecap="butt"/><path d="M420.01009,246.67287c2.51444,-0.40431 4.9931,-0.69742 7.43586,-0.87993c-4.96456,0.6982 -9.87233,1.59248 -14.72328,2.68317c2.28545,-0.78772 4.71457,-1.38891 7.2874,-1.80323z" data-paper-data="{&quot;index&quot;:null}" fill="#484848" fill-rule="evenodd" stroke="none" stroke-width="0" stroke-linecap="butt"/><path d="M6.41176,315.38773c3.73174,-0.7036 7.4414,-1.19497 11.12905,-1.47378c-3.80084,0.41731 -7.46101,1.21644 -10.98059,2.39708c-0.04949,-0.30776 -0.09898,-0.61552 -0.14846,-0.92329z" data-paper-data="{&quot;index&quot;:null}" fill="#838383" fill-rule="evenodd" stroke="none" stroke-width="0" stroke-linecap="butt"/><path d="M-80.14492,151.34403l1.49598,0.00857l162.8606,-23.94536l2.57735,16.02874l94.16434,-15.07893l4.97822,30.95992l48.99407,-5.13793l-2.44272,-18.28981l90.74221,-12.34904l2.92836,18.21171l29.17779,-4.44256l9.98573,62.10196l14.91957,-1.71397l138.6552,-21.11193l14.53435,102.78361l-3.38,0.66804l-319.17346,55.80551l-1.80658,-9.68609l-254.40576,40.59596l-0.87851,-5.46351l-33.48096,-208.22061z" fill="#413831" fill-rule="nonzero" stroke="#000000" stroke-width="1" stroke-linecap="round"/><path d="M54.37326,250.50324l29.00744,-4.05353l12.08572,75.16193l-30.20932,5.46826l-11.92285,-76.37143z" fill="#928b78" fill-rule="nonzero" stroke="#000000" stroke-width="1" stroke-linecap="round"/><path d="M58.32854,329.12443l-50.14169,6.68099l-11.28201,-78.27873l48.52765,-6.57497z" fill="#928b78" fill-rule="nonzero" stroke="#000000" stroke-width="1" stroke-linecap="round"/><path d="M1.43759,338.51104l-16.20604,1.09908l-13.53732,-75.04602l16.11955,-4.24943z" fill="#928b78" fill-rule="nonzero" stroke="#000000" stroke-width="1" stroke-linecap="round"/><path d="M84.06413,127.1998l19.15813,106.44633l-166.46727,23.98263l-16.42101,-105.58698z" fill="#736c59" fill-rule="nonzero" stroke="#000000" stroke-width="1" stroke-linecap="round"/><path d="M83.46154,127.77695l-178.13679,26.1526l-8.80771,-11.78612l191.5878,-23.83165l18.56422,13.20653l102.89191,-15.79726l-0.66266,9.8215l-104.03676,14.48675l-18.3374,3.69589z" fill="#8b8471" fill-rule="nonzero" stroke="#000000" stroke-width="1" stroke-linecap="round"/><path d="M211.72545,138.47713l-3.04439,-4.9907l138.11861,-20.96336l-5.34582,8.58172l-128.15432,17.86655" fill="#8b8471" fill-rule="nonzero" stroke="#000000" stroke-width="1" stroke-linecap="round"/><path d="M182.84773,154.08099l51.67368,-7.0634l0.18038,6.44763l-49.6868,6.99302z" fill="#8b8471" fill-rule="nonzero" stroke="#000000" stroke-width="1" stroke-linecap="round"/><path d="M324.42687,136.04862l62.46163,-12.78368l-3.69366,9.56156l-57.22812,9.70023z" fill="#8b8471" fill-rule="nonzero" stroke="#000000" stroke-width="1" stroke-linecap="round"/><path d="M364.75994,192.46126l-169.99843,25.64273l-7.95756,-49.48861l50.68928,-8.15062l4.59454,28.57377l89.74902,-13.19422l-5.0901,-24.59387l30.82305,-3.5057z" fill="#262626" fill-rule="nonzero" stroke="#000000" stroke-width="1" stroke-linecap="round"/><path d="M190.91863,225.95669l-1.97789,-7.65319l352.22339,-54.64318l-2.44051,9.60916l-173.00374,26.32364z" fill="#8b8471" fill-rule="nonzero" stroke="#000000" stroke-width="1" stroke-linecap="round"/><path d="M323.24739,123.28501l9.72589,52.74016l-91.40997,12.45641l-8.91934,-52.37165z" fill="#736c59" fill-rule="nonzero" stroke="#000000" stroke-width="1" stroke-linecap="round"/><path d="M251.31643,142.58472l55.41758,-9.18912l7.18999,37.79412l-57.21925,8.36595z" fill="#ff0000" fill-rule="nonzero" stroke="#000000" stroke-width="1" stroke-linecap="round"/><path d="M127.60357,258.0096l58.30885,-9.37581l13.33437,79.46694l-62.19291,9.44392l-12.54421,-79.74365z" fill="#ff0000" fill-rule="nonzero" stroke="#000000" stroke-width="1" stroke-linecap="round"/><path d="M141.53075,255.51619l31.73085,-5.10218l13.63449,79.60312l-33.37989,5.22823l-12.77793,-80.33206z" fill="#2d0d0e" fill-rule="nonzero" stroke="#000000" stroke-width="1" stroke-linecap="round"/><path d="M194.8038,303.49747l225.95859,-36.33315l4.9332,30.67994l-215.41854,38.2204l-1.74912,-10.01274l-9.33473,1.64009l-4.04333,-23.41552" fill="#807165" fill-rule="nonzero" stroke="#000000" stroke-width="1" stroke-linecap="round"/><path d="M-40.24271,255.14935l17.6328,107.92943l-23.46391,4.60755l-16.98339,-109.94659l22.66733,-3.5057z" fill="#807165" fill-rule="nonzero" stroke="#000000" stroke-width="1" stroke-linecap="round"/><path d="M84.73936,235.64398l17.79775,-2.8618l17.47659,107.60679l-17.19419,2.93862z" fill="#807165" fill-rule="nonzero" stroke="#000000" stroke-width="1" stroke-linecap="round"/><path d="M227.24717,332.9186l-12.55922,-78.10672l170.88026,-27.33768l12.41615,75.48668z" fill="#928b78" fill-rule="nonzero" stroke="#000000" stroke-width="1" stroke-linecap="round"/><path d="M233.22882,332.2698l-12.29009,-73.83765l158.16757,-25.29354l11.84856,71.09171z" fill="#ff0000" fill-rule="nonzero" stroke="#000000" stroke-width="1" stroke-linecap="round"/><path d="M425.90626,298.61028l-13.00149,-74.80135l78.99784,-12.42429l10.89046,73.78449z" fill="#928b78" fill-rule="nonzero" stroke="#000000" stroke-width="1" stroke-linecap="round"/><path d="M428.23089,298.7929l-11.3927,-70.85202l68.08189,-10.66905l9.89427,69.31934z" fill="#ff0000" fill-rule="nonzero" stroke="#000000" stroke-width="1" stroke-linecap="round"/><path d="M206.41367,183.6429l-1.6511,4.43872l-4.22547,0.54032l-14.52081,-19.36595l-125.57966,18.38426l-5.40289,-6.78217l136.25338,-21.21342z" fill="#8b8471" fill-rule="nonzero" stroke="#000000" stroke-width="1" stroke-linecap="round"/><path d="M36.82584,143.78174l10.99212,57.97939l-76.5352,12.16742l-9.98498,-60.36706z" fill="#ff0000" fill-rule="nonzero" stroke="#000000" stroke-width="1" stroke-linecap="round"/><path d="M54.05651,325.98994l-42.77525,5.62611l-10.29153,-70.92475l41.39742,-5.54366z" fill="#ff0000" fill-rule="nonzero" stroke="#000000" stroke-width="1" stroke-linecap="round"/><path d="M-1.98464,335.97487l-10.795,0.3447l-12.12386,-69.34337l10.60831,-3.23596z" fill="#ff0000" fill-rule="nonzero" stroke="#000000" stroke-width="1" stroke-linecap="round"/><path d="M57.96569,253.40777l22.59714,-3.07709l11.01112,68.47899l-23.50752,4.33634l-10.9089,-69.57351z" fill="#ff0000" fill-rule="nonzero" stroke="#000000" stroke-width="1" stroke-linecap="round"/></g><path d="M170.8178,182.25139c0.09993,1.05522 0.33169,2.04241 0.69544,2.96111c0.0073,0.12719 -0.05154,0.21535 -0.17673,0.26479c-0.45897,-1.06508 -0.63188,-2.14045 -0.51871,-3.22591z" data-paper-data="{&quot;index&quot;:null}" fill="#9e9e9e" fill-rule="evenodd" stroke="none" stroke-width="0" stroke-linecap="butt"/><path d="M145.3678,180.19309l5.60263,-0.90088l1.05103,6.53642l-1.83464,-5.45248z" fill="#736d42" fill-rule="evenodd" stroke="none" stroke-width="0" stroke-linecap="butt"/><path d="M116.11146,197.0153c0.22738,-0.03657 0.42464,-0.02796 0.59558,0.01221c1.96827,-3.70003 5.87553,-6.05014 9.88572,-6.63994c0.67333,-0.09903 5.04939,-0.4028 5.83059,0.02718c1.71254,0.94256 2.57615,3.0845 3.924,4.56591c5.58782,6.14127 7.49313,13.09136 3.75138,20.75967c-3.08409,2.60642 -5.54901,4.88436 -9.61877,5.44281c-11.53447,1.58273 -16.87724,-11.9087 -15.42813,-22.17192l-0.11306,-0.23873c0,0 -0.24587,-1.52909 1.1727,-1.75719zM117.77354,200.66659c-0.66367,7.97888 3.12927,18.7883 12.20559,17.45987c3.36146,-0.49199 5.28837,-2.30527 7.89128,-4.40015c2.94094,-6.25147 0.87483,-11.75746 -3.55731,-16.60934c-1.12646,-1.2331 -1.73702,-3.08449 -3.12953,-3.94358c-1.21595,-0.75016 -2.77639,0.09595 -4.14976,0.28003c-3.37056,0.45174 -7.24669,2.71741 -8.29112,6.22212c0,0 -0.26555,0.81089 -0.96916,0.99104z" data-paper-data="{&quot;index&quot;:null}" fill="#75dbff" fill-rule="nonzero" stroke="none" stroke-width="0" stroke-linecap="butt"/><path d="M118.69232,199.64427c1.04442,-3.50474 4.96367,-5.80064 8.33422,-6.2524c1.37338,-0.18408 2.95397,-1.02858 4.16994,-0.27844c1.39251,0.85906 2.02367,2.72095 3.15012,3.95408c4.43214,4.85191 6.51033,10.44617 3.56942,16.69763c-2.60294,2.09488 -4.56801,3.93077 -7.92946,4.42273c-9.07633,1.32842 -12.92988,-9.56757 -12.26623,-17.54645c0.70361,-0.18013 0.97196,-0.99719 0.97196,-0.99719z" data-paper-data="{&quot;noHover&quot;:false,&quot;origItem&quot;:[&quot;Path&quot;,{&quot;applyMatrix&quot;:true,&quot;segments&quot;:[[[409.4867,271.35519],[1.25852,-0.10678],[-3.34423,12.54639]],[[425.63199,302.31001],[-15.95943,-0.20878],[5.91067,0.07732]],[[440.40413,297.31952],[-5.05034,2.67171],[6.7792,-9.20965]],[[438.881,269.93654],[6.27385,8.86861],[-1.59451,-2.25397]],[[434.59405,262.84941],[2.15492,1.72602],[-1.88172,-1.50719]],[[427.3877,262.23225],[2.4102,0.05859],[-5.91515,-0.1438]],[[411.4254,270.0241],[2.76238,-5.31806],[0,0]]],&quot;closed&quot;:true}],&quot;index&quot;:null}" fill="#ffffff" fill-rule="nonzero" stroke="none" stroke-width="0" stroke-linecap="butt"/><path d="M150.17078,190.64596c3.57058,-2.03601 8.01943,-1.13222 12.10049,-0.23881c0.96458,0.21118 4.28472,0.7339 5.16646,1.69004c2.12273,2.30175 2.62478,6.53807 3.41505,9.4831c0.74146,2.76312 1.75696,5.40551 0.38571,8.16523c-2.40198,4.83406 -6.82558,7.14218 -11.28478,9.23424c-2.11474,0.62483 -3.93431,1.66433 -6.18127,0.41148c-1.35698,-0.75662 -3.04287,-3.73858 -3.83882,-5.03194c-2.70858,-4.40124 -6.84908,-10.07946 -6.06512,-15.73816c0.26571,-1.91789 2.76397,-4.54372 3.48199,-6.34155l1.54275,-1.34556c0,0 0.6024,-0.50123 1.2776,-0.28799zM149.30181,194.83002c-0.7893,1.28456 -2.56563,3.81144 -2.59339,4.3728c-0.24811,5.01586 3.20673,9.55814 5.62202,13.50389c0.1909,0.3119 2.08429,3.54602 2.7281,3.95126c1.04735,0.65925 3.13491,-0.35856 3.86608,-0.59131c3.95921,-1.86422 7.43517,-3.72378 9.75988,-7.8133c0.97059,-1.70742 -0.15442,-4.23702 -0.59687,-5.88083c-0.60548,-2.24966 -0.9846,-6.15031 -2.53222,-7.98381c-0.87815,-1.04037 -2.52263,-0.67445 -3.79477,-0.9524c-3.62403,-0.7918 -8.69632,-2.19475 -11.46803,0.92778c0,0 -0.41901,0.44508 -0.99085,0.46586z" data-paper-data="{&quot;index&quot;:null}" fill="#75dbff" fill-rule="nonzero" stroke="none" stroke-width="0" stroke-linecap="butt"/><path d="M150.25513,194.3163c2.77171,-3.12253 7.90144,-1.7292 11.52548,-0.93738c1.27212,0.27793 2.93279,-0.07769 3.81097,0.96269c1.54761,1.83352 1.94709,5.77093 2.55258,8.02059c0.44242,1.64384 1.56566,4.20444 0.59504,5.91186c-2.32471,4.08947 -5.85063,5.99015 -9.80987,7.85436c-0.73117,0.23277 -2.83765,1.2484 -3.88498,0.58915c-0.6438,-0.40526 -2.55625,-3.6493 -2.74721,-3.96119c-2.41529,-3.94575 -5.89051,-8.56151 -5.64241,-13.57736c0.02776,-0.56135 1.81661,-3.10874 2.60591,-4.39329c0.57182,-0.02081 0.99444,-0.46943 0.99444,-0.46943z" data-paper-data="{&quot;noHover&quot;:false,&quot;origItem&quot;:[&quot;Path&quot;,{&quot;applyMatrix&quot;:true,&quot;segments&quot;:[[[465.26223,270.13291],[0.98811,0.11339],[-1.71083,1.84504]],[[459.59907,276.43751],[0.20277,-0.88758],[-1.81178,7.93053]],[[465.52703,299.40029],[-3.05933,-6.90758],[0.24182,0.54599]],[[469.12222,306.39679],[-0.99407,-0.81085],[1.61715,1.31908]],[[475.92722,306.44514],[-1.32039,0.18358],[7.31661,-1.95648]],[[494.85229,296.49376],[-5.12332,5.92193],[2.13908,-2.47252]],[[495.45142,286.96818],[0.30597,2.73324],[-0.41874,-3.7406]],[[493.30665,273.59497],[2.15221,3.31878],[-1.22123,-1.88318]],[[487.05062,271.1046],[2.10865,0.76899],[-6.0071,-2.19068]],[[467.0931,269.64433],[5.62415,-4.26625],[0,0]]],&quot;closed&quot;:true}],&quot;index&quot;:null}" fill="#ffffff" fill-rule="nonzero" stroke="none" stroke-width="0" stroke-linecap="butt"/><path d="M134.82064,205.54299c-0.21726,-1.35118 0.62277,-2.60992 1.87631,-2.81148c1.25353,-0.20156 2.44583,0.73038 2.66309,2.08157c0.21726,1.35118 -0.62278,2.60993 -1.87631,2.81149c-1.25353,0.20156 -2.44583,-0.73039 -2.6631,-2.08158z" data-paper-data="{&quot;index&quot;:null}" fill="#000000" fill-rule="nonzero" stroke="none" stroke-width="0" stroke-linecap="butt"/><path d="M164.20964,203.26048c-0.21726,-1.35118 0.62277,-2.60993 1.87631,-2.81149c1.25353,-0.20156 2.44583,0.73039 2.6631,2.08158c0.21726,1.35118 -0.62278,2.60992 -1.87631,2.81148c-1.25353,0.20156 -2.44583,-0.73038 -2.66309,-2.08157z" data-paper-data="{&quot;index&quot;:null}" fill="#000000" fill-rule="nonzero" stroke="none" stroke-width="0" stroke-linecap="butt"/><path d="M83.47409,156.45379c0.46583,-1.11906 1.5192,-0.59232 1.5192,-0.59232l0.51615,0.25808c5.60308,2.80173 11.00657,5.89166 16.44161,9.0626c11.96548,6.98093 24.85754,12.85302 35.90558,21.48853c0,0 0.94155,0.73594 0.27817,1.72995c-0.66338,0.99401 -1.60493,0.25806 -1.60493,0.25806c-10.95979,-8.56657 -23.77092,-14.38381 -35.64144,-21.30934c-5.39229,-3.14599 -10.75184,-6.21215 -16.31068,-8.99174l-0.51614,-0.25808c0,0 -1.05336,-0.52669 -0.58752,-1.64575z" data-paper-data="{&quot;index&quot;:null}" fill="#75dbff" fill-rule="nonzero" stroke="none" stroke-width="0" stroke-linecap="butt"/><path d="M188.86408,124.33229c1.06623,0.49452 0.63072,1.62816 0.63072,1.62816l-0.46749,1.21026c-4.92785,9.25961 -11.4066,17.09146 -16.97441,25.84826c-7.65363,12.03728 -14.96863,24.66913 -23.67032,35.80717c0,0 -0.73364,0.93465 -1.62152,0.12461c-0.88789,-0.81002 -0.15426,-1.74463 -0.15426,-1.74463c8.69431,-11.01889 15.93143,-23.65749 23.53396,-35.61445c5.50723,-8.66151 11.92616,-16.4036 16.81331,-25.55109l0.40826,-1.06911c0,0 0.43553,-1.13362 1.50182,-0.63912z" data-paper-data="{&quot;index&quot;:null}" fill="#75dbff" fill-rule="nonzero" stroke="none" stroke-width="0" stroke-linecap="butt"/><path d="M116.30093,254.47699c-0.65464,-3.3768 -2.12596,-5.95536 -3.29849,-9.20738c-1.69065,-4.68904 -0.28686,-10.39107 2.14954,-14.45142c2.0097,-1.99811 4.26042,-2.77181 6.62131,-4.17787c6.02891,-3.5906 11.82393,-4.7915 18.52553,-6.5692c9.6584,-1.55912 20.52711,-3.36993 29.97138,0.17971c9.40989,3.56033 9.78093,13.64373 9.9369,22.25471c0,0 0.01315,0.7499 -0.73674,0.76303c-0.74989,0.01316 -0.76303,-0.73674 -0.76303,-0.73674c-0.13424,-7.90052 -0.23694,-17.61632 -8.96514,-20.87701c-9.16611,-3.44917 -19.75883,-1.61736 -29.13116,-0.11655c-6.53904,1.74341 -12.17242,2.86833 -18.05099,6.37916c-2.19985,1.31382 -4.35036,1.98341 -6.22603,3.82423c-2.11041,3.60909 -3.49551,8.90313 -1.90786,13.05566c1.33432,3.48997 2.85692,6.2794 3.45915,10.02466l-0.89697,0.90386c0,0 -0.74049,0.11907 -0.85956,-0.62142c-0.04824,-0.30001 0.04461,-0.49803 0.17216,-0.62744z" data-paper-data="{&quot;index&quot;:null}" fill="#75dbff" fill-rule="nonzero" stroke="none" stroke-width="0.5" stroke-linecap="butt"/></g></g></g></svg>