<svg version="1.1" xmlns="http://www.w3.org/2000/svg" xmlns:xlink="http://www.w3.org/1999/xlink" width="2878.25006" height="1619.57958" viewBox="0,0,2878.25006,1619.57958"><g transform="translate(1117.37278,629.80931)"><g data-paper-data="{&quot;isPaintingLayer&quot;:true}" stroke-linejoin="miter" stroke-miterlimit="10" stroke-dasharray="" stroke-dashoffset="0" style="mix-blend-mode: normal"><path d="M-1117.37278,989.77027v-1619.57958h2878.25006v1619.57958z" fill="none" fill-rule="nonzero" stroke="#000000" stroke-width="0" stroke-linecap="butt"/><path d="M371.77626,315.28181l-19.76914,-36.42381l93.69715,0.21066l33.57674,36.08476z" data-paper-data="{&quot;index&quot;:null}" fill="#cedce9" fill-rule="nonzero" stroke="#000000" stroke-width="0" stroke-linecap="round"/><path d="M488.1911,313.24866c-2.53537,0.40255 -5.02815,0.63412 -7.49601,0.80189c0.01679,0.06136 0.02551,0.12534 0.02559,0.19213c0.00194,1.62671 -5.1608,1.63287 -5.1608,1.63287c-22.80221,0.02723 -45.60433,0.05446 -68.40647,0.0817c-5.86765,0.00701 -20.46882,-0.71355 -24.79534,0.26456c-2.49217,0.56343 -4.27685,0.51007 -7.47097,0.58734c-0.36051,0.00871 -1.01625,0.02726 -1.59566,0.03884c3.08953,0.69108 1.60419,7.1135 1.60635,8.90813c0.00908,7.59137 0.01812,15.18273 0.0272,22.77413c0.0016,1.35559 0.00322,2.71122 0.00485,4.06681c0.00065,0.54225 -0.90552,2.08845 0.00194,1.62673c3.45256,-1.75656 10.19566,-0.8224 18.06866,-0.83494c15.51938,-0.02475 32.13396,-0.56751 47.37744,0.29401c27.83585,1.72077 57.75828,-1.11733 85.37226,0.80392c23.25749,1.80409 51.09544,1.93593 75.05495,1.90732c6.02327,-0.00717 12.04642,-0.01438 18.06966,-0.02156c0.90625,-0.00107 2.32912,-0.04122 3.80233,-0.08515c-1.48298,-0.83273 0.06626,-2.8526 0.06491,-3.98631c-0.00505,-4.23525 4.49192,-11.54639 -1.04401,-15.3449c-4.89362,-4.61471 -7.99102,-9.05964 -15.97006,-13.65821c-5.88716,-3.393 -15.04909,-6.39587 -19.9208,-9.76742c-2.3623,-2.01007 -4.47318,-0.56894 -12.15878,-1.02562c-17.00624,-1.01051 -34.0612,-0.77269 -51.62851,-0.7517c-6.4034,0.00765 -14.44505,0.42691 -20.65104,0.02466c-1.31004,-0.0849 -3.77221,-0.40342 -5.6178,-0.66447c3.37603,0.8176 -4.32441,1.62154 -7.55991,2.13524zM407.1492,312.70388c17.23319,-0.02059 34.46634,-0.04118 51.69948,-0.06175c0.49704,-0.07891 0.99398,-0.1578 1.49101,-0.23672c6.54685,-1.03943 12.45893,-0.77312 18.06825,-1.24162c7.64435,-0.63849 12.21475,-2.76351 20.10212,-3.27746c4.53093,-0.29524 17.08239,0.62123 23.50567,0.61355c17.41699,-0.0208 34.81452,-0.35537 51.62851,0.7517c9.44543,0.62192 17.42579,-0.62206 21.84711,3.14012c0.65281,1.43036 5.86528,2.3186 8.59232,3.41627c4.16756,1.67749 7.65219,4.16508 10.87776,6.02403c7.99617,4.60841 11.5153,9.35396 16.53092,14.08371c4.48318,4.9865 1.56901,11.1801 1.5752,16.37311c0.00344,2.87102 1.44189,4.89281 -5.15399,7.32643c-2.30007,0.84863 -23.55962,0.02813 -27.10445,0.03236c-24.71307,0.02953 -53.58879,-0.1421 -77.5594,-2.00149c-26.33426,-2.39367 -57.67394,0.91211 -84.8929,-0.77053c-21.93438,-1.53038 -55.78304,2.65665 -73.75043,-2.63945c-1.77886,-0.52437 -0.00578,-4.82668 -0.00681,-5.69354c-0.00908,-7.59137 -0.01812,-15.18273 -0.0272,-22.77413c-0.00301,-2.53807 -3.56112,-8.5936 1.82327,-10.49006c9.39607,-3.30945 26.98922,-2.55817 40.75383,-2.5746z" data-paper-data="{&quot;index&quot;:null}" fill="#000000" fill-rule="nonzero" stroke="none" stroke-width="0" stroke-linecap="butt"/><path d="M480.62287,313.97247c2.46783,-0.16775 4.99065,-0.40151 7.52614,-0.80406c3.23549,-0.51368 10.96657,-1.31866 7.59043,-2.13623c1.84557,0.26106 4.3283,0.57951 5.63821,0.66443c6.206,0.40224 14.31973,-0.01303 20.72296,-0.02067c17.56722,-0.02097 34.73294,-0.23612 51.73914,0.77437c7.68559,0.45668 9.81249,-0.9783 12.17477,1.03176c4.87175,3.37152 14.0724,6.3986 19.95963,9.7916c7.97906,4.59851 11.08711,9.07438 15.98073,13.68907c5.53599,3.79853 1.01478,11.13785 1.01984,15.37309c0.00134,1.1337 -1.55753,3.15934 -0.07451,3.99206c-1.47309,0.04391 -2.89793,0.0851 -3.80425,0.0862c-6.02325,0.00719 -12.05696,0.01951 -18.0802,0.02669c-23.95963,0.02861 -51.91057,-0.07479 -75.16808,-1.87888c-27.61399,-1.92127 -57.80997,0.9014 -85.64586,-0.81937c-15.24347,-0.86152 -31.90507,-0.33724 -47.42446,-0.31253c-7.87299,0.01256 -14.62221,-0.92509 -18.07478,0.83146c-0.90746,0.46168 -0.00517,-1.08688 -0.00583,-1.62915c-0.00162,-1.35557 -0.01208,-2.71778 -0.01371,-4.07337c-0.00904,-7.59139 -0.02892,-15.22787 -0.038,-22.81927c-0.00216,-1.79464 1.49884,-8.23261 -1.59071,-8.92371c0.57949,-0.01163 1.2357,-0.03054 1.59627,-0.03928c3.19401,-0.07722 4.98276,-0.0266 7.47484,-0.59001c4.32652,-0.97809 18.94091,-0.26512 24.80854,-0.27213c22.80227,-0.02723 45.7259,-0.08694 68.52805,-0.11418c0,0 5.18809,-0.00896 5.18615,-1.6357c-0.00008,-0.06676 -0.0082,-0.13079 -0.025,-0.19218z" data-paper-data="{&quot;noHover&quot;:false,&quot;origItem&quot;:[&quot;Path&quot;,{&quot;applyMatrix&quot;:true,&quot;segments&quot;:[[[579.60736,595.76373],[0.95609,-0.20262],[0.00646,0.07548]],[[579.61718,596],[0,-0.08208],[0,2]],[[577.61718,598],[0,0],[-8.83333,0]],[[551.11718,598],[8.83333,0],[-2.27308,0]],[[541.51161,598.28885],[1.67648,-1.19621],[-0.96568,0.68904]],[[538.61718,599],[1.23739,-0.09027],[-0.13966,0.01019]],[[537.99901,599.04541],[0.22447,-0.0134],[1.19653,0.85421]],[[538.61718,610],[0,-2.20646],[0,9.33333]],[[538.61718,638],[0,-9.33333],[0,1.66667]],[[538.61718,643],[0,-1.66667],[0,0.66667]],[[538.61718,645],[-0.35177,0.56631],[1.33831,-2.15456]],[[545.61718,644],[-3.04994,0.00386],[6.01206,-0.00761]],[[563.97058,644.43107],[-5.90478,-1.08158],[10.78253,2.15651]],[[597.04254,645.54479],[-10.6965,-2.40266],[9.00888,2.25222]],[[626.11718,648],[-9.28168,0],[2.33333,0]],[[633.11718,648],[-2.33333,0],[0.35109,0]],[[634.59021,647.90091],[-0.5707,0.05184],[-0.57412,-1.02596]],[[634.61718,643],[0,1.39387],[0,-5.20707]],[[634.21982,624.13246],[2.14282,4.67827],[-1.8936,-5.6808]],[[628.03948,607.31672],[3.08887,5.66543],[-2.2791,-4.1802]],[[620.32688,595.27881],[1.8857,4.15235],[-0.91417,-2.47477]],[[615.61718,594],[2.9771,0.57275],[-6.58756,-1.26734]],[[595.61718,593],[6.8054,0],[-2.48058,0]],[[587.61718,593],[2.40395,0.50364],[-0.50743,-0.10631]],[[585.44122,592.1748],[0.71481,0.32365],[1.30749,1.01011]],[[582.51161,594.78885],[1.25365,-0.62682],[-0.98239,0.4912]]],&quot;closed&quot;:true}],&quot;index&quot;:null}" fill="#c9c9c9" fill-rule="nonzero" stroke="none" stroke-width="0" stroke-linecap="butt"/><path d="M553.00602,319.84984c-0.00023,-0.18862 -0.0721,-0.50443 -0.14082,-0.81468c-0.26581,0.12626 -0.66232,0.23407 -1.17233,0.326c-1.52905,0.49208 -3.84966,0.49484 -3.84966,0.49484c-19.66498,0.02348 -31.018,4.35548 -37.9644,8.90647c-0.81722,0.51637 -0.74424,1.13725 -0.74355,1.71346c0.00019,0.16396 -0.04928,0.42457 -0.10333,0.69414c0.05187,-0.0868 0.18162,-0.15827 0.44583,-0.20437c1.16745,-0.20363 11.32048,1.02179 12.5653,0.30821c0.37411,-0.21444 -1.83653,-0.25214 -1.71489,-0.49361c1.49592,-2.96872 17.39306,-7.47543 25.20886,-8.71637c2.02712,-0.32185 4.30933,-0.48529 6.5782,-0.56161c-0.88762,-0.43424 0.89142,-1.10266 0.89075,-1.65244zM509.00481,331.30476c-0.11636,0.57847 -0.21964,1.1314 0.1323,0.79792c0.24055,-0.22787 -0.1075,-0.54698 -0.1323,-0.79792zM500.64169,327.31852c7.37339,-4.39172 17.18205,-8.39979 32.47316,-9.99099c1.43576,-0.7091 4.39899,-0.71264 4.39899,-0.71264l2.58133,-0.00307c5.84505,-0.00697 8.93666,-0.65229 15.21502,-0.65978c8.71911,-0.01041 10.7468,5.45003 6.18928,7.05528c-2.87593,1.01296 -7.49058,1.34972 -11.34132,1.96108c-11.39829,1.80969 -15.62223,6.97599 -28.11122,9.55897c-13.23673,2.7376 -27.82001,-3.15571 -21.40526,-7.20883z" data-paper-data="{&quot;index&quot;:null}" fill="#000000" fill-rule="nonzero" stroke="none" stroke-width="0" stroke-linecap="butt"/><path d="M553.05695,318.98044c0.0689,0.31025 0.15272,0.63055 0.15293,0.81918c0.00065,0.54977 -1.75717,1.22817 -0.86956,1.66247c-2.2689,0.07633 -4.56421,0.23315 -6.59138,0.55502c-7.81589,1.24095 -23.78979,5.725 -25.28565,8.69371c-0.12176,0.24149 1.84386,0.42234 1.46973,0.63679c-1.24485,0.71355 -11.48582,-0.53314 -12.6533,-0.32952c-0.2643,0.04611 -0.39279,0.11794 -0.44459,0.20482c0.05405,-0.26959 0.09394,-0.53391 0.09375,-0.69786c-0.00068,-0.57619 -0.09624,-1.20838 0.72101,-1.72475c6.94633,-4.551 18.70926,-8.97901 38.37421,-9.00249c0,0 2.33114,0.00069 3.86018,-0.49137c0.51004,-0.09196 0.90682,-0.19975 1.17243,-0.326z" data-paper-data="{&quot;noHover&quot;:false,&quot;origItem&quot;:[&quot;Path&quot;,{&quot;applyMatrix&quot;:true,&quot;segments&quot;:[[[607.563,601.99816],[0.02649,0.38155],[-0.10299,0.15484]],[[607.10872,602.39727],[0.1976,-0.11227],[-0.59254,0.60273]],[[605.61718,603],[0,0],[-7.618,0]],[[590.90604,613.89443],[2.69308,-5.58508],[-0.31682,0.63364]],[[590.61718,616],[0,-0.70843],[0,0.20156]],[[590.57685,616.85325],[0.02106,-0.33136],[0.02013,-0.10671]],[[590.74964,616.60263],[-0.10238,0.05628],[0.45234,-0.24865]],[[595.61718,617],[-0.48256,0.87548],[0.14503,-0.26312]],[[594.95308,616.3906],[-0.04725,0.29671],[0.58086,-3.64773]],[[604.72276,605.71115],[-3.02833,1.51416],[0.78545,-0.39273]],[[607.27135,605.03032],[-0.87898,0.0905],[-0.34365,-0.53523]],[[607.61718,603],[0,0.6759],[0,-0.23192]]],&quot;closed&quot;:true}],&quot;index&quot;:null}" fill="#ffffff" fill-rule="nonzero" stroke="none" stroke-width="0" stroke-linecap="butt"/><path d="M371.77627,315.28181l-19.76914,-36.42381l93.69715,0.21066l33.57674,36.08476z" data-paper-data="{&quot;index&quot;:null}" fill="#cedce9" fill-rule="nonzero" stroke="#000000" stroke-width="0" stroke-linecap="round"/><path d="M488.1911,313.24866c-2.53537,0.40255 -5.02815,0.63412 -7.49601,0.80189c0.01679,0.06136 0.02551,0.12534 0.02559,0.19213c0.00194,1.62671 -5.1608,1.63287 -5.1608,1.63287c-22.80221,0.02723 -45.60433,0.05446 -68.40647,0.0817c-5.86765,0.00701 -20.46882,-0.71355 -24.79534,0.26456c-2.49217,0.56343 -4.27685,0.51007 -7.47097,0.58734c-0.36051,0.00871 -1.01625,0.02726 -1.59566,0.03884c3.08953,0.69108 1.60419,7.1135 1.60635,8.90813c0.00908,7.59137 0.01812,15.18273 0.0272,22.77413c0.0016,1.35559 0.00322,2.71122 0.00485,4.06681c0.00065,0.54225 -0.90552,2.08845 0.00194,1.62673c3.45256,-1.75656 10.19566,-0.8224 18.06866,-0.83494c15.51938,-0.02475 32.13396,-0.56751 47.37744,0.29401c27.83585,1.72077 57.75828,-1.11733 85.37226,0.80392c23.25749,1.80409 51.09544,1.93593 75.05495,1.90732c6.02327,-0.00717 12.04642,-0.01438 18.06966,-0.02156c0.90625,-0.00107 2.32912,-0.04122 3.80233,-0.08515c-1.48298,-0.83273 0.06626,-2.8526 0.06491,-3.98631c-0.00505,-4.23525 4.49192,-11.54639 -1.04401,-15.3449c-4.89362,-4.61471 -7.99102,-9.05964 -15.97006,-13.65821c-5.88716,-3.393 -15.04909,-6.39587 -19.9208,-9.76742c-2.3623,-2.01007 -4.47318,-0.56894 -12.15878,-1.02562c-17.00624,-1.01051 -34.0612,-0.77269 -51.62851,-0.7517c-6.4034,0.00765 -14.44505,0.42691 -20.65104,0.02466c-1.31004,-0.0849 -3.77221,-0.40342 -5.6178,-0.66447c3.37603,0.8176 -4.32441,1.62154 -7.55991,2.13524zM407.14921,312.70388c17.23319,-0.02059 34.46634,-0.04118 51.69948,-0.06175c0.49704,-0.07891 0.99398,-0.1578 1.49101,-0.23672c6.54685,-1.03943 12.45893,-0.77312 18.06825,-1.24162c7.64435,-0.63849 12.21475,-2.76351 20.10212,-3.27746c4.53093,-0.29524 17.08239,0.62123 23.50567,0.61355c17.41699,-0.0208 34.81452,-0.35537 51.62851,0.7517c9.44543,0.62192 17.42579,-0.62206 21.84711,3.14012c0.65281,1.43036 5.86528,2.3186 8.59232,3.41627c4.16756,1.67749 7.65219,4.16508 10.87776,6.02403c7.99617,4.60841 11.5153,9.35396 16.53092,14.08371c4.48318,4.9865 1.56901,11.1801 1.5752,16.37311c0.00344,2.87102 1.44189,4.89281 -5.15399,7.32643c-2.30007,0.84863 -23.55962,0.02813 -27.10445,0.03236c-24.71307,0.02953 -53.58879,-0.1421 -77.5594,-2.00149c-26.33426,-2.39367 -57.67394,0.91211 -84.8929,-0.77053c-21.93438,-1.53038 -55.78304,2.65665 -73.75043,-2.63945c-1.77886,-0.52437 -0.00578,-4.82668 -0.00681,-5.69354c-0.00908,-7.59137 -0.01812,-15.18273 -0.0272,-22.77413c-0.00301,-2.53807 -3.56112,-8.5936 1.82327,-10.49006c9.39607,-3.30945 26.98922,-2.55817 40.75383,-2.5746z" data-paper-data="{&quot;index&quot;:null}" fill="#000000" fill-rule="nonzero" stroke="none" stroke-width="0" stroke-linecap="butt"/><path d="M480.62287,313.97247c2.46783,-0.16775 4.99065,-0.40151 7.52614,-0.80406c3.23549,-0.51368 10.96657,-1.31866 7.59043,-2.13623c1.84557,0.26106 4.3283,0.57951 5.63821,0.66443c6.206,0.40224 14.31973,-0.01303 20.72296,-0.02067c17.56722,-0.02097 34.73294,-0.23612 51.73914,0.77437c7.68559,0.45668 9.81249,-0.9783 12.17477,1.03176c4.87175,3.37152 14.0724,6.3986 19.95963,9.7916c7.97906,4.59851 11.08711,9.07438 15.98073,13.68907c5.53599,3.79853 1.01478,11.13785 1.01984,15.37309c0.00134,1.1337 -1.55753,3.15934 -0.07451,3.99206c-1.47309,0.04391 -2.89793,0.0851 -3.80425,0.0862c-6.02325,0.00719 -12.05696,0.01951 -18.0802,0.02669c-23.95963,0.02861 -51.91057,-0.07479 -75.16808,-1.87888c-27.61399,-1.92127 -57.80997,0.9014 -85.64586,-0.81937c-15.24347,-0.86152 -31.90507,-0.33724 -47.42446,-0.31253c-7.87299,0.01256 -14.62221,-0.92509 -18.07478,0.83146c-0.90746,0.46168 -0.00517,-1.08688 -0.00583,-1.62915c-0.00162,-1.35557 -0.01208,-2.71778 -0.01371,-4.07337c-0.00904,-7.59139 -0.02892,-15.22787 -0.038,-22.81927c-0.00216,-1.79464 1.49884,-8.23261 -1.59071,-8.92371c0.57949,-0.01163 1.2357,-0.03054 1.59627,-0.03928c3.19401,-0.07722 4.98276,-0.0266 7.47484,-0.59001c4.32652,-0.97809 18.94091,-0.26512 24.80854,-0.27213c22.80227,-0.02723 45.7259,-0.08694 68.52805,-0.11418c0,0 5.18809,-0.00896 5.18615,-1.6357c-0.00008,-0.06676 -0.0082,-0.13079 -0.025,-0.19218z" data-paper-data="{&quot;noHover&quot;:false,&quot;origItem&quot;:[&quot;Path&quot;,{&quot;applyMatrix&quot;:true,&quot;segments&quot;:[[[579.60736,595.76373],[0.95609,-0.20262],[0.00646,0.07548]],[[579.61718,596],[0,-0.08208],[0,2]],[[577.61718,598],[0,0],[-8.83333,0]],[[551.11718,598],[8.83333,0],[-2.27308,0]],[[541.51161,598.28885],[1.67648,-1.19621],[-0.96568,0.68904]],[[538.61718,599],[1.23739,-0.09027],[-0.13966,0.01019]],[[537.99901,599.04541],[0.22447,-0.0134],[1.19653,0.85421]],[[538.61718,610],[0,-2.20646],[0,9.33333]],[[538.61718,638],[0,-9.33333],[0,1.66667]],[[538.61718,643],[0,-1.66667],[0,0.66667]],[[538.61718,645],[-0.35177,0.56631],[1.33831,-2.15456]],[[545.61718,644],[-3.04994,0.00386],[6.01206,-0.00761]],[[563.97058,644.43107],[-5.90478,-1.08158],[10.78253,2.15651]],[[597.04254,645.54479],[-10.6965,-2.40266],[9.00888,2.25222]],[[626.11718,648],[-9.28168,0],[2.33333,0]],[[633.11718,648],[-2.33333,0],[0.35109,0]],[[634.59021,647.90091],[-0.5707,0.05184],[-0.57412,-1.02596]],[[634.61718,643],[0,1.39387],[0,-5.20707]],[[634.21982,624.13246],[2.14282,4.67827],[-1.8936,-5.6808]],[[628.03948,607.31672],[3.08887,5.66543],[-2.2791,-4.1802]],[[620.32688,595.27881],[1.8857,4.15235],[-0.91417,-2.47477]],[[615.61718,594],[2.9771,0.57275],[-6.58756,-1.26734]],[[595.61718,593],[6.8054,0],[-2.48058,0]],[[587.61718,593],[2.40395,0.50364],[-0.50743,-0.10631]],[[585.44122,592.1748],[0.71481,0.32365],[1.30749,1.01011]],[[582.51161,594.78885],[1.25365,-0.62682],[-0.98239,0.4912]]],&quot;closed&quot;:true}],&quot;index&quot;:null}" fill="#c9c9c9" fill-rule="nonzero" stroke="none" stroke-width="0" stroke-linecap="butt"/><path d="M553.00603,319.84984c-0.00023,-0.18862 -0.0721,-0.50443 -0.14082,-0.81468c-0.26581,0.12626 -0.66232,0.23407 -1.17233,0.326c-1.52905,0.49208 -3.84966,0.49484 -3.84966,0.49484c-19.66498,0.02348 -31.018,4.35548 -37.9644,8.90647c-0.81722,0.51637 -0.74424,1.13725 -0.74355,1.71346c0.00019,0.16396 -0.04928,0.42457 -0.10333,0.69414c0.05187,-0.0868 0.18162,-0.15827 0.44583,-0.20437c1.16745,-0.20363 11.32048,1.02179 12.5653,0.30821c0.37411,-0.21444 -1.83653,-0.25214 -1.71489,-0.49361c1.49592,-2.96872 17.39306,-7.47543 25.20886,-8.71637c2.02712,-0.32185 4.30933,-0.48529 6.5782,-0.56161c-0.88762,-0.43424 0.89142,-1.10266 0.89075,-1.65244zM509.00481,331.30476c-0.11636,0.57847 -0.21964,1.1314 0.1323,0.79792c0.24055,-0.22787 -0.1075,-0.54698 -0.1323,-0.79792zM500.64169,327.31852c7.37339,-4.39172 17.18205,-8.39979 32.47316,-9.99099c1.43576,-0.7091 4.39899,-0.71264 4.39899,-0.71264l2.58133,-0.00307c5.84505,-0.00697 8.93666,-0.65229 15.21502,-0.65978c8.71911,-0.01041 10.7468,5.45003 6.18928,7.05528c-2.87593,1.01296 -7.49058,1.34972 -11.34132,1.96108c-11.39829,1.80969 -15.62223,6.97599 -28.11122,9.55897c-13.23673,2.7376 -27.82001,-3.15571 -21.40526,-7.20883z" data-paper-data="{&quot;index&quot;:null}" fill="#000000" fill-rule="nonzero" stroke="none" stroke-width="0" stroke-linecap="butt"/><path d="M553.05695,318.98044c0.0689,0.31025 0.15272,0.63055 0.15293,0.81918c0.00065,0.54977 -1.75717,1.22817 -0.86956,1.66247c-2.2689,0.07633 -4.56421,0.23315 -6.59138,0.55502c-7.81589,1.24095 -23.78979,5.725 -25.28565,8.69371c-0.12176,0.24149 1.84386,0.42234 1.46973,0.63679c-1.24485,0.71355 -11.48582,-0.53314 -12.6533,-0.32952c-0.2643,0.04611 -0.39279,0.11794 -0.44459,0.20482c0.05405,-0.26959 0.09394,-0.53391 0.09375,-0.69786c-0.00068,-0.57619 -0.09624,-1.20838 0.72101,-1.72475c6.94633,-4.551 18.70926,-8.97901 38.37421,-9.00249c0,0 2.33114,0.00069 3.86018,-0.49137c0.51004,-0.09196 0.90682,-0.19975 1.17243,-0.326z" data-paper-data="{&quot;noHover&quot;:false,&quot;origItem&quot;:[&quot;Path&quot;,{&quot;applyMatrix&quot;:true,&quot;segments&quot;:[[[607.563,601.99816],[0.02649,0.38155],[-0.10299,0.15484]],[[607.10872,602.39727],[0.1976,-0.11227],[-0.59254,0.60273]],[[605.61718,603],[0,0],[-7.618,0]],[[590.90604,613.89443],[2.69308,-5.58508],[-0.31682,0.63364]],[[590.61718,616],[0,-0.70843],[0,0.20156]],[[590.57685,616.85325],[0.02106,-0.33136],[0.02013,-0.10671]],[[590.74964,616.60263],[-0.10238,0.05628],[0.45234,-0.24865]],[[595.61718,617],[-0.48256,0.87548],[0.14503,-0.26312]],[[594.95308,616.3906],[-0.04725,0.29671],[0.58086,-3.64773]],[[604.72276,605.71115],[-3.02833,1.51416],[0.78545,-0.39273]],[[607.27135,605.03032],[-0.87898,0.0905],[-0.34365,-0.53523]],[[607.61718,603],[0,0.6759],[0,-0.23192]]],&quot;closed&quot;:true}],&quot;index&quot;:null}" fill="#ffffff" fill-rule="nonzero" stroke="none" stroke-width="0" stroke-linecap="butt"/><path d="M164.71899,313.15341l33.57675,-36.08476l93.69714,-0.21066l-19.76914,36.42381z" data-paper-data="{&quot;index&quot;:null}" fill="#cedce9" fill-rule="nonzero" stroke="#000000" stroke-width="0" stroke-linecap="round"/><path d="M155.80894,311.24861c-3.2355,-0.51369 -10.93595,-1.31764 -7.55991,-2.13524c-1.84559,0.26105 -4.30777,0.57958 -5.61781,0.66448c-6.20599,0.40225 -14.24765,-0.01701 -20.65104,-0.02466c-17.56731,-0.02098 -34.62226,-0.2588 -51.62851,0.75171c-7.68561,0.45668 -9.79648,-0.98445 -12.15878,1.02562c-4.8717,3.37155 -14.03364,6.37442 -19.92079,9.76742c-7.97904,4.59857 -11.07645,9.0435 -15.97007,13.65821c-5.53593,3.79852 -1.03896,11.10965 -1.04401,15.3449c-0.00135,1.13371 1.54789,3.15357 0.06491,3.98631c1.47321,0.04393 2.89607,0.08408 3.80232,0.08515c6.02324,0.00718 12.04639,0.01439 18.06966,0.02156c23.95951,0.02861 51.79746,-0.10323 75.05494,-1.90733c27.61399,-1.92125 57.53642,0.91685 85.37226,-0.80392c15.24348,-0.86151 31.85806,-0.31876 47.37744,-0.294c7.87301,0.01254 14.6161,-0.92163 18.06866,0.83494c0.90746,0.46172 0.00129,-1.08448 0.00194,-1.62673c0.00162,-1.35559 0.00325,-2.71121 0.00485,-4.06681c0.00908,-7.59141 0.01812,-15.18276 0.0272,-22.77413c0.00216,-1.79462 -1.48319,-8.21705 1.60635,-8.90812c-0.5794,-0.01158 -1.23515,-0.03012 -1.59566,-0.03884c-3.19412,-0.07727 -4.97879,-0.02392 -7.47096,-0.58735c-4.32652,-0.97811 -18.92768,-0.25754 -24.79534,-0.26455c-22.80214,-0.02724 -45.60426,-0.05447 -68.40647,-0.0817c0,0 -5.16274,-0.00616 -5.1608,-1.63287c0.00008,-0.0668 0.0088,-0.13077 0.02559,-0.19213c-2.46787,-0.16777 -4.96064,-0.39934 -7.49601,-0.80189zM236.85053,310.70381c13.76461,0.01644 31.35777,-0.73484 40.75384,2.5746c5.38439,1.89646 1.82628,7.95199 1.82327,10.49005c-0.00907,7.59141 -0.01813,15.18277 -0.0272,22.77414c-0.00103,0.86686 1.77206,5.16917 -0.0068,5.69354c-17.9674,5.29609 -51.81605,1.10907 -73.75043,2.63944c-27.21896,1.68264 -58.55864,-1.62314 -84.8929,0.77053c-23.97061,1.85939 -52.84632,2.03102 -77.55939,2.0015c-3.54483,-0.00424 -24.80439,0.81626 -27.10445,-0.03237c-6.59588,-2.43361 -5.15742,-4.45541 -5.15399,-7.32643c0.00619,-5.19301 -2.90798,-11.3866 1.5752,-16.3731c5.01563,-4.72974 8.53476,-9.4753 16.53093,-14.08371c3.22556,-1.85895 6.71019,-4.34654 10.87776,-6.02404c2.72704,-1.09767 7.9395,-1.98591 8.59231,-3.41627c4.42133,-3.76218 12.40168,-2.51821 21.84711,-3.14013c16.81399,-1.10707 34.21152,-0.7725 51.62851,-0.7517c6.42327,0.00768 18.97474,-0.90879 23.50567,-0.61355c7.88736,0.51396 12.45776,2.63897 20.10211,3.27747c5.60931,0.4685 11.5214,0.20219 18.06825,1.24162c0.49703,0.07892 0.99398,0.1578 1.49101,0.23672c17.23314,0.02057 34.46629,0.04116 51.69948,0.06175z" data-paper-data="{&quot;index&quot;:null}" fill="#000000" fill-rule="nonzero" stroke="none" stroke-width="0" stroke-linecap="butt"/><path d="M163.37679,311.97247c-0.0168,0.06138 -0.02491,0.12542 -0.025,0.19218c-0.00194,1.62673 5.18615,1.63569 5.18615,1.63569c22.80215,0.02724 45.72579,0.08695 68.52805,0.11418c5.86764,0.00702 20.48202,-0.70596 24.80854,0.27213c2.49208,0.56341 4.28083,0.51279 7.47484,0.59001c0.36057,0.00874 1.01678,0.02765 1.59627,0.03929c-3.08955,0.6911 -1.58855,7.12907 -1.59071,8.92371c-0.00907,7.59141 -0.02895,15.22788 -0.03799,22.81927c-0.00163,1.35559 -0.0121,2.71781 -0.01371,4.07337c-0.00066,0.54227 0.90163,2.09083 -0.00583,1.62915c-3.45256,-1.75655 -10.20178,-0.8189 -18.07478,-0.83146c-15.51939,-0.02471 -32.18099,-0.54898 -47.42446,0.31254c-27.83589,1.72077 -58.03187,-1.10191 -85.64586,0.81937c-23.25751,1.8041 -51.20845,1.90749 -75.16808,1.87888c-6.02324,-0.00718 -12.05696,-0.0195 -18.0802,-0.02668c-0.90632,-0.0011 -2.33116,-0.0423 -3.80425,-0.0862c1.48302,-0.83272 -0.07586,-2.85836 -0.07452,-3.99206c0.00506,-4.23523 -4.51614,-11.57456 1.01984,-15.37309c4.89361,-4.61468 8.00167,-9.09055 15.98073,-13.68906c5.88724,-3.39301 15.08788,-6.42008 19.95963,-9.79161c2.36227,-2.01006 4.48917,-0.57508 12.17477,-1.03176c17.00621,-1.01049 34.17192,-0.79534 51.73915,-0.77437c6.40323,0.00765 14.51696,0.42291 20.72296,0.02067c1.30991,-0.08492 3.79264,-0.40337 5.63821,-0.66444c-3.37613,0.81757 4.35494,1.62256 7.59043,2.13623c2.5355,0.40255 5.05832,0.63631 7.52615,0.80406z" data-paper-data="{&quot;noHover&quot;:false,&quot;origItem&quot;:[&quot;Path&quot;,{&quot;applyMatrix&quot;:true,&quot;segments&quot;:[[[579.60736,595.76373],[0.95609,-0.20262],[0.00646,0.07548]],[[579.61718,596],[0,-0.08208],[0,2]],[[577.61718,598],[0,0],[-8.83333,0]],[[551.11718,598],[8.83333,0],[-2.27308,0]],[[541.51161,598.28885],[1.67648,-1.19621],[-0.96568,0.68904]],[[538.61718,599],[1.23739,-0.09027],[-0.13966,0.01019]],[[537.99901,599.04541],[0.22447,-0.0134],[1.19653,0.85421]],[[538.61718,610],[0,-2.20646],[0,9.33333]],[[538.61718,638],[0,-9.33333],[0,1.66667]],[[538.61718,643],[0,-1.66667],[0,0.66667]],[[538.61718,645],[-0.35177,0.56631],[1.33831,-2.15456]],[[545.61718,644],[-3.04994,0.00386],[6.01206,-0.00761]],[[563.97058,644.43107],[-5.90478,-1.08158],[10.78253,2.15651]],[[597.04254,645.54479],[-10.6965,-2.40266],[9.00888,2.25222]],[[626.11718,648],[-9.28168,0],[2.33333,0]],[[633.11718,648],[-2.33333,0],[0.35109,0]],[[634.59021,647.90091],[-0.5707,0.05184],[-0.57412,-1.02596]],[[634.61718,643],[0,1.39387],[0,-5.20707]],[[634.21982,624.13246],[2.14282,4.67827],[-1.8936,-5.6808]],[[628.03948,607.31672],[3.08887,5.66543],[-2.2791,-4.1802]],[[620.32688,595.27881],[1.8857,4.15235],[-0.91417,-2.47477]],[[615.61718,594],[2.9771,0.57275],[-6.58756,-1.26734]],[[595.61718,593],[6.8054,0],[-2.48058,0]],[[587.61718,593],[2.40395,0.50364],[-0.50743,-0.10631]],[[585.44122,592.1748],[0.71481,0.32365],[1.30749,1.01011]],[[582.51161,594.78885],[1.25365,-0.62682],[-0.98239,0.4912]]],&quot;closed&quot;:true}],&quot;index&quot;:null}" fill="#c9c9c9" fill-rule="nonzero" stroke="none" stroke-width="0" stroke-linecap="butt"/><path d="M90.99403,317.84988c-0.00067,0.54978 1.77837,1.2182 0.89076,1.65244c2.26887,0.07632 4.55109,0.23976 6.5782,0.56161c7.8158,1.24093 23.71294,5.74764 25.20885,8.71636c0.12164,0.24147 -2.08899,0.27917 -1.71489,0.49361c1.24482,0.71358 11.39785,-0.51184 12.5653,-0.30821c0.26421,0.04609 0.39396,0.11756 0.44583,0.20436c-0.05406,-0.26957 -0.10352,-0.53018 -0.10333,-0.69414c0.00069,-0.57621 0.07367,-1.19709 -0.74355,-1.71346c-6.9464,-4.551 -18.29942,-8.883 -37.9644,-8.90647c0,0 -2.32061,-0.00276 -3.84966,-0.49484c-0.51,-0.09193 -0.90652,-0.19975 -1.17233,-0.326c-0.06872,0.31025 -0.14059,0.62606 -0.14083,0.81468zM134.86289,330.10267c0.35194,0.33348 0.24865,-0.21945 0.13229,-0.79792c-0.0248,0.25094 -0.37284,0.57005 -0.13229,0.79792zM143.35832,325.31854c6.41475,4.05312 -8.16853,9.94644 -21.40526,7.20883c-12.48898,-2.58297 -16.71293,-7.74928 -28.11122,-9.55897c-3.85074,-0.61136 -8.46538,-0.94813 -11.34132,-1.96108c-4.55751,-1.60525 -2.52983,-7.06569 6.18928,-7.05528c6.27836,0.0075 9.36997,0.65282 15.21501,0.65978l2.58133,0.00307c0,0 2.96323,0.00354 4.39899,0.71264c15.29111,1.59121 25.09977,5.59927 32.47316,9.99099z" data-paper-data="{&quot;index&quot;:null}" fill="#000000" fill-rule="nonzero" stroke="none" stroke-width="0" stroke-linecap="butt"/><path d="M90.94327,316.98043c0.26561,0.12624 0.6624,0.23404 1.17244,0.326c1.52904,0.49206 3.86019,0.49137 3.86019,0.49137c19.66494,0.02348 31.42788,4.4515 38.37421,9.0025c0.81725,0.51637 0.72169,1.14856 0.72101,1.72475c-0.00018,0.16395 0.03971,0.42827 0.09375,0.69786c-0.0518,-0.08688 -0.18028,-0.15871 -0.44458,-0.20482c-1.16748,-0.20362 -11.40845,1.04307 -12.6533,0.32952c-0.37414,-0.21445 1.5915,-0.3953 1.46973,-0.63679c-1.49586,-2.96871 -17.46976,-7.45277 -25.28565,-8.69371c-2.02717,-0.32186 -4.32249,-0.47869 -6.59138,-0.55501c0.88761,-0.4343 -0.87021,-1.11271 -0.86955,-1.66247c0.00022,-0.18863 0.08403,-0.50893 0.15293,-0.81918z" data-paper-data="{&quot;noHover&quot;:false,&quot;origItem&quot;:[&quot;Path&quot;,{&quot;applyMatrix&quot;:true,&quot;segments&quot;:[[[607.563,601.99816],[0.02649,0.38155],[-0.10299,0.15484]],[[607.10872,602.39727],[0.1976,-0.11227],[-0.59254,0.60273]],[[605.61718,603],[0,0],[-7.618,0]],[[590.90604,613.89443],[2.69308,-5.58508],[-0.31682,0.63364]],[[590.61718,616],[0,-0.70843],[0,0.20156]],[[590.57685,616.85325],[0.02106,-0.33136],[0.02013,-0.10671]],[[590.74964,616.60263],[-0.10238,0.05628],[0.45234,-0.24865]],[[595.61718,617],[-0.48256,0.87548],[0.14503,-0.26312]],[[594.95308,616.3906],[-0.04725,0.29671],[0.58086,-3.64773]],[[604.72276,605.71115],[-3.02833,1.51416],[0.78545,-0.39273]],[[607.27135,605.03032],[-0.87898,0.0905],[-0.34365,-0.53523]],[[607.61718,603],[0,0.6759],[0,-0.23192]]],&quot;closed&quot;:true}],&quot;index&quot;:null}" fill="#ffffff" fill-rule="nonzero" stroke="none" stroke-width="0" stroke-linecap="butt"/><path d="M164.71899,313.15341l33.57674,-36.08476l93.69715,-0.21066l-19.76914,36.42381z" data-paper-data="{&quot;index&quot;:null}" fill="#cedce9" fill-rule="nonzero" stroke="#000000" stroke-width="0" stroke-linecap="round"/><path d="M155.80894,311.24861c-3.2355,-0.51369 -10.93595,-1.31764 -7.55991,-2.13524c-1.84559,0.26105 -4.30777,0.57958 -5.61781,0.66448c-6.20599,0.40225 -14.24765,-0.01701 -20.65104,-0.02466c-17.56731,-0.02098 -34.62226,-0.2588 -51.62851,0.75171c-7.68561,0.45668 -9.79648,-0.98445 -12.15878,1.02562c-4.8717,3.37155 -14.03364,6.37442 -19.92079,9.76742c-7.97904,4.59857 -11.07645,9.0435 -15.97007,13.65821c-5.53593,3.79852 -1.03896,11.10965 -1.04401,15.3449c-0.00135,1.13371 1.54789,3.15357 0.06491,3.98631c1.47321,0.04393 2.89607,0.08408 3.80232,0.08515c6.02324,0.00718 12.04639,0.01439 18.06966,0.02156c23.95951,0.02861 51.79746,-0.10323 75.05494,-1.90733c27.61399,-1.92125 57.53642,0.91685 85.37227,-0.80392c15.24348,-0.86151 31.85806,-0.31876 47.37744,-0.294c7.87301,0.01254 14.6161,-0.92163 18.06866,0.83494c0.90746,0.46172 0.00129,-1.08448 0.00194,-1.62673c0.00162,-1.35559 0.00325,-2.71121 0.00485,-4.06681c0.00908,-7.59141 0.01812,-15.18276 0.0272,-22.77413c0.00216,-1.79462 -1.48319,-8.21705 1.60635,-8.90812c-0.5794,-0.01158 -1.23515,-0.03012 -1.59566,-0.03884c-3.19412,-0.07727 -4.97879,-0.02392 -7.47096,-0.58735c-4.32652,-0.97811 -18.92768,-0.25754 -24.79534,-0.26455c-22.80214,-0.02724 -45.60426,-0.05447 -68.40647,-0.0817c0,0 -5.16274,-0.00616 -5.1608,-1.63287c0.00007,-0.0668 0.00879,-0.13077 0.02558,-0.19213c-2.46786,-0.16777 -4.96064,-0.39934 -7.49601,-0.80189zM236.85053,310.70381c13.7646,0.01644 31.35776,-0.73484 40.75383,2.5746c5.38439,1.89646 1.82628,7.95199 1.82328,10.49005c-0.00908,7.59141 -0.01813,15.18277 -0.0272,22.77414c-0.00103,0.86686 1.77206,5.16917 -0.0068,5.69354c-17.9674,5.29609 -51.81605,1.10907 -73.75043,2.63944c-27.21896,1.68264 -58.55864,-1.62314 -84.8929,0.77053c-23.97061,1.85939 -52.84633,2.03102 -77.5594,2.0015c-3.54483,-0.00424 -24.80438,0.81626 -27.10445,-0.03237c-6.59588,-2.43361 -5.15742,-4.45541 -5.15399,-7.32643c0.00619,-5.19301 -2.90798,-11.3866 1.5752,-16.3731c5.01563,-4.72974 8.53476,-9.4753 16.53093,-14.08371c3.22556,-1.85895 6.71019,-4.34654 10.87775,-6.02404c2.72704,-1.09767 7.9395,-1.98591 8.59231,-3.41627c4.42133,-3.76218 12.40169,-2.51821 21.84712,-3.14013c16.81399,-1.10707 34.21151,-0.7725 51.62851,-0.7517c6.42327,0.00768 18.97474,-0.90879 23.50567,-0.61355c7.88736,0.51396 12.45777,2.63897 20.10212,3.27747c5.60932,0.4685 11.5214,0.20219 18.06825,1.24162c0.49703,0.07892 0.99398,0.1578 1.49101,0.23672c17.23314,0.02057 34.46629,0.04116 51.69948,0.06175z" data-paper-data="{&quot;index&quot;:null}" fill="#000000" fill-rule="nonzero" stroke="none" stroke-width="0" stroke-linecap="butt"/><path d="M163.37679,311.97247c-0.0168,0.06138 -0.02491,0.12542 -0.025,0.19218c-0.00194,1.62673 5.18615,1.63569 5.18615,1.63569c22.80215,0.02724 45.72579,0.08695 68.52805,0.11418c5.86764,0.00702 20.48202,-0.70596 24.80854,0.27213c2.49208,0.56341 4.28083,0.51279 7.47484,0.59001c0.36057,0.00874 1.01678,0.02765 1.59627,0.03929c-3.08955,0.6911 -1.58855,7.12907 -1.59071,8.92371c-0.00907,7.59141 -0.02895,15.22788 -0.03799,22.81927c-0.00163,1.35559 -0.0121,2.71781 -0.01371,4.07337c-0.00066,0.54227 0.90163,2.09083 -0.00583,1.62915c-3.45256,-1.75655 -10.20178,-0.8189 -18.07478,-0.83146c-15.51939,-0.02471 -32.18099,-0.54898 -47.42446,0.31254c-27.83589,1.72077 -58.03187,-1.10191 -85.64586,0.81937c-23.25751,1.8041 -51.20845,1.90749 -75.16808,1.87888c-6.02324,-0.00718 -12.05696,-0.0195 -18.0802,-0.02668c-0.90632,-0.0011 -2.33116,-0.0423 -3.80425,-0.0862c1.48302,-0.83272 -0.07586,-2.85836 -0.07452,-3.99206c0.00506,-4.23523 -4.51614,-11.57456 1.01984,-15.37309c4.89361,-4.61468 8.00167,-9.09055 15.98073,-13.68906c5.88724,-3.39301 15.08788,-6.42008 19.95963,-9.79161c2.36227,-2.01006 4.48917,-0.57508 12.17477,-1.03176c17.00621,-1.01049 34.17192,-0.79534 51.73915,-0.77437c6.40323,0.00765 14.51696,0.42291 20.72296,0.02067c1.30991,-0.08492 3.79264,-0.40337 5.63821,-0.66444c-3.37613,0.81757 4.35494,1.62256 7.59043,2.13623c2.5355,0.40255 5.05832,0.63631 7.52615,0.80406z" data-paper-data="{&quot;noHover&quot;:false,&quot;origItem&quot;:[&quot;Path&quot;,{&quot;applyMatrix&quot;:true,&quot;segments&quot;:[[[579.60736,595.76373],[0.95609,-0.20262],[0.00646,0.07548]],[[579.61718,596],[0,-0.08208],[0,2]],[[577.61718,598],[0,0],[-8.83333,0]],[[551.11718,598],[8.83333,0],[-2.27308,0]],[[541.51161,598.28885],[1.67648,-1.19621],[-0.96568,0.68904]],[[538.61718,599],[1.23739,-0.09027],[-0.13966,0.01019]],[[537.99901,599.04541],[0.22447,-0.0134],[1.19653,0.85421]],[[538.61718,610],[0,-2.20646],[0,9.33333]],[[538.61718,638],[0,-9.33333],[0,1.66667]],[[538.61718,643],[0,-1.66667],[0,0.66667]],[[538.61718,645],[-0.35177,0.56631],[1.33831,-2.15456]],[[545.61718,644],[-3.04994,0.00386],[6.01206,-0.00761]],[[563.97058,644.43107],[-5.90478,-1.08158],[10.78253,2.15651]],[[597.04254,645.54479],[-10.6965,-2.40266],[9.00888,2.25222]],[[626.11718,648],[-9.28168,0],[2.33333,0]],[[633.11718,648],[-2.33333,0],[0.35109,0]],[[634.59021,647.90091],[-0.5707,0.05184],[-0.57412,-1.02596]],[[634.61718,643],[0,1.39387],[0,-5.20707]],[[634.21982,624.13246],[2.14282,4.67827],[-1.8936,-5.6808]],[[628.03948,607.31672],[3.08887,5.66543],[-2.2791,-4.1802]],[[620.32688,595.27881],[1.8857,4.15235],[-0.91417,-2.47477]],[[615.61718,594],[2.9771,0.57275],[-6.58756,-1.26734]],[[595.61718,593],[6.8054,0],[-2.48058,0]],[[587.61718,593],[2.40395,0.50364],[-0.50743,-0.10631]],[[585.44122,592.1748],[0.71481,0.32365],[1.30749,1.01011]],[[582.51161,594.78885],[1.25365,-0.62682],[-0.98239,0.4912]]],&quot;closed&quot;:true}],&quot;index&quot;:null}" fill="#c9c9c9" fill-rule="nonzero" stroke="none" stroke-width="0" stroke-linecap="butt"/><path d="M90.99402,317.84988c-0.00067,0.54978 1.77837,1.2182 0.89075,1.65244c2.26887,0.07632 4.55109,0.23976 6.5782,0.56161c7.8158,1.24093 23.71294,5.74764 25.20885,8.71636c0.12164,0.24147 -2.08899,0.27917 -1.71489,0.49361c1.24482,0.71358 11.39785,-0.51184 12.5653,-0.30821c0.26421,0.04609 0.39396,0.11756 0.44583,0.20436c-0.05406,-0.26957 -0.10352,-0.53018 -0.10333,-0.69414c0.00069,-0.57621 0.07367,-1.19709 -0.74355,-1.71346c-6.9464,-4.551 -18.29942,-8.883 -37.9644,-8.90647c0,0 -2.32061,-0.00276 -3.84966,-0.49484c-0.51,-0.09193 -0.90653,-0.19975 -1.17233,-0.326c-0.06872,0.31025 -0.14059,0.62606 -0.14082,0.81468zM134.86289,330.10267c0.35194,0.33348 0.24865,-0.21945 0.13229,-0.79792c-0.0248,0.25094 -0.37284,0.57005 -0.13229,0.79792zM143.35832,325.31854c6.41475,4.05312 -8.16853,9.94644 -21.40526,7.20883c-12.48898,-2.58297 -16.71293,-7.74928 -28.11122,-9.55897c-3.85074,-0.61136 -8.46538,-0.94813 -11.34132,-1.96108c-4.55751,-1.60525 -2.52983,-7.06569 6.18928,-7.05528c6.27836,0.0075 9.36997,0.65282 15.21501,0.65978l2.58133,0.00307c0,0 2.96323,0.00354 4.39899,0.71264c15.29111,1.59121 25.09977,5.59927 32.47316,9.99099z" data-paper-data="{&quot;index&quot;:null}" fill="#000000" fill-rule="nonzero" stroke="none" stroke-width="0" stroke-linecap="butt"/><path d="M90.94327,316.98043c0.26561,0.12624 0.6624,0.23404 1.17244,0.326c1.52904,0.49206 3.86019,0.49137 3.86019,0.49137c19.66494,0.02348 31.42788,4.4515 38.37421,9.0025c0.81725,0.51637 0.72169,1.14856 0.72101,1.72475c-0.00018,0.16395 0.03971,0.42827 0.09375,0.69786c-0.0518,-0.08688 -0.18028,-0.15871 -0.44458,-0.20482c-1.16748,-0.20362 -11.40845,1.04307 -12.6533,0.32952c-0.37414,-0.21445 1.5915,-0.3953 1.46973,-0.63679c-1.49586,-2.96871 -17.46976,-7.45277 -25.28565,-8.69371c-2.02717,-0.32186 -4.32249,-0.47869 -6.59138,-0.55501c0.88761,-0.4343 -0.87021,-1.11271 -0.86955,-1.66247c0.00022,-0.18863 0.08403,-0.50893 0.15293,-0.81918z" data-paper-data="{&quot;noHover&quot;:false,&quot;origItem&quot;:[&quot;Path&quot;,{&quot;applyMatrix&quot;:true,&quot;segments&quot;:[[[607.563,601.99816],[0.02649,0.38155],[-0.10299,0.15484]],[[607.10872,602.39727],[0.1976,-0.11227],[-0.59254,0.60273]],[[605.61718,603],[0,0],[-7.618,0]],[[590.90604,613.89443],[2.69308,-5.58508],[-0.31682,0.63364]],[[590.61718,616],[0,-0.70843],[0,0.20156]],[[590.57685,616.85325],[0.02106,-0.33136],[0.02013,-0.10671]],[[590.74964,616.60263],[-0.10238,0.05628],[0.45234,-0.24865]],[[595.61718,617],[-0.48256,0.87548],[0.14503,-0.26312]],[[594.95308,616.3906],[-0.04725,0.29671],[0.58086,-3.64773]],[[604.72276,605.71115],[-3.02833,1.51416],[0.78545,-0.39273]],[[607.27135,605.03032],[-0.87898,0.0905],[-0.34365,-0.53523]],[[607.61718,603],[0,0.6759],[0,-0.23192]]],&quot;closed&quot;:true}],&quot;index&quot;:null}" fill="#ffffff" fill-rule="nonzero" stroke="none" stroke-width="0" stroke-linecap="butt"/><g><g><path d="M524.47506,241.76407c0.37015,0.84324 0.54329,1.76796 0.5225,2.77396c-2.53492,0.2937 -5.02942,0.37803 -7.48345,0.2536c2.38406,-0.18038 4.76502,-0.36053 7.1491,-0.54092c-0.06272,-0.82898 -0.12542,-1.65766 -0.18815,-2.48664z" data-paper-data="{&quot;index&quot;:null}" fill="#6b6b6b" fill-rule="evenodd" stroke="none" stroke-width="0" stroke-linecap="butt"/><path d="M535.16089,242.5186c0.31419,0.3101 0.45123,0.71643 0.4049,1.2198c-3.15656,0.34105 -6.27269,0.47272 -9.34842,0.39471c3.00573,-0.22742 6.00835,-0.45461 9.01407,-0.68203c-0.02352,-0.31082 -0.04704,-0.62165 -0.07055,-0.93248z" data-paper-data="{&quot;index&quot;:null}" fill="#9e9e9e" fill-rule="evenodd" stroke="none" stroke-width="0" stroke-linecap="butt"/><path d="M443.87082,250.67625c2.53948,-0.19214 5.03398,-0.27647 7.48345,-0.2536c-5.00561,0.27964 -9.97107,0.75944 -14.89636,1.43971c2.34343,-0.5934 4.81439,-0.98888 7.41289,-1.1861z" data-paper-data="{&quot;index&quot;:null}" fill="#484848" fill-rule="evenodd" stroke="none" stroke-width="0" stroke-linecap="butt"/><path d="M25.9685,284.48401c3.77758,-0.38835 7.51537,-0.56707 11.21341,-0.53582c-3.82244,0.09728 -7.53671,0.58682 -11.14286,1.46832c-0.02352,-0.31082 -0.04704,-0.62165 -0.07055,-0.93248z" data-paper-data="{&quot;index&quot;:null}" fill="#838383" fill-rule="evenodd" stroke="none" stroke-width="0" stroke-linecap="butt"/><path d="M-46.53447,113.76285l1.49,0.13392l164.29452,-10.21111l1.22485,16.18836l95.09684,-7.13359l2.36583,31.26823l49.25231,-1.01346l-0.90118,-18.43019l91.45795,-4.70012l1.39166,18.39307l29.44747,-1.98142l4.74558,62.72039l15.01073,-0.45747l139.93681,-9.4164l5.86851,103.64014l-3.4241,0.3824l-322.7277,28.85796l-0.98839,-9.80343l-256.91312,19.13036l-0.4175,-5.51792l-15.91136,-210.29414z" fill="#413831" fill-rule="nonzero" stroke="#000000" stroke-width="1" stroke-linecap="round"/><path d="M79.19947,223.84766l29.24512,-1.60804l5.74357,75.91042l-30.56134,2.91706l-5.47991,-77.10201z" fill="#928b78" fill-rule="nonzero" stroke="#000000" stroke-width="1" stroke-linecap="round"/><path d="M76.55128,302.52373l-50.52522,2.45491l-4.68146,-78.94889l48.90798,-2.48454z" fill="#928b78" fill-rule="nonzero" stroke="#000000" stroke-width="1" stroke-linecap="round"/><path d="M19.07378,307.10905l-16.24114,-0.26308l-7.19978,-75.91658l16.41899,-2.88343z" fill="#928b78" fill-rule="nonzero" stroke="#000000" stroke-width="1" stroke-linecap="round"/><path d="M119.12043,103.46659l10.16903,107.67751l-167.89162,9.94596l-7.51357,-106.59177z" fill="#736c59" fill-rule="nonzero" stroke="#000000" stroke-width="1" stroke-linecap="round"/><path d="M118.47158,103.9912l-179.70195,11.13023l-7.78888,-12.48286l192.91111,-7.69006l17.39201,14.716l103.85391,-7.1179l-1.48351,9.7314l-104.88489,5.71604l-18.58265,2.14595z" fill="#8b8471" fill-rule="nonzero" stroke="#000000" stroke-width="1" stroke-linecap="round"/><path d="M245.38736,125.40404l-2.61539,-5.2283l139.38965,-9.31333l-6.04628,8.10347l-129.20087,7.06256" fill="#8b8471" fill-rule="nonzero" stroke="#000000" stroke-width="1" stroke-linecap="round"/><path d="M215.30343,138.53264l52.08387,-2.70757l-0.36066,6.44006l-50.09809,2.80397z" fill="#8b8471" fill-rule="nonzero" stroke="#000000" stroke-width="1" stroke-linecap="round"/><path d="M357.89577,132.43003l63.3133,-7.50354l-4.48206,9.21834l-57.83977,4.86958z" fill="#8b8471" fill-rule="nonzero" stroke="#000000" stroke-width="1" stroke-linecap="round"/><path d="M393.35876,192.02465l-171.5495,11.30426l-3.78172,-49.98143l51.19406,-3.87347l2.18349,28.85832l90.53909,-5.62557l-3.01088,-24.93396l31.00842,-0.90996z" fill="#262626" fill-rule="nonzero" stroke="#000000" stroke-width="1" stroke-linecap="round"/><path d="M217.32174,210.83189l-1.32949,-7.79204l355.56393,-24.92967l-3.2373,9.3708l-174.6013,11.73089z" fill="#8b8471" fill-rule="nonzero" stroke="#000000" stroke-width="1" stroke-linecap="round"/><path d="M357.79021,119.61247l5.27131,53.36976l-92.13236,4.75115l-4.49848,-52.93494z" fill="#736c59" fill-rule="nonzero" stroke="#000000" stroke-width="1" stroke-linecap="round"/><path d="M284.49476,132.81545l55.99277,-4.51202l3.99702,38.26376l-57.7191,3.54074z" fill="#ff0000" fill-rule="nonzero" stroke="#000000" stroke-width="1" stroke-linecap="round"/><path d="M151.54298,237.46534l58.88951,-4.45572l6.62701,80.30494l-62.76561,4.19806l-5.81644,-80.51445z" fill="#ff0000" fill-rule="nonzero" stroke="#000000" stroke-width="1" stroke-linecap="round"/><path d="M165.63014,236.14799l32.04684,-2.42474l6.91466,80.46579l-33.70064,2.41213l-6.00002,-81.12037z" fill="#2d0d0e" fill-rule="nonzero" stroke="#000000" stroke-width="1" stroke-linecap="round"/><path d="M214.69424,288.42547l228.20876,-17.26682l2.34443,30.98546l-217.86398,20.03083l-0.90376,-10.12411l-9.43935,0.85194l-2.06656,-23.67202" fill="#807165" fill-rule="nonzero" stroke="#000000" stroke-width="1" stroke-linecap="round"/><path d="M-15.47299,220.54728l8.52476,109.02755l-23.76753,2.62473l-7.70857,-110.98318l22.8814,-1.59353z" fill="#807165" fill-rule="nonzero" stroke="#000000" stroke-width="1" stroke-linecap="round"/><path d="M110.70414,211.58579l17.97499,-1.36003l8.39614,108.69295l-17.37999,1.48717z" fill="#807165" fill-rule="nonzero" stroke="#000000" stroke-width="1" stroke-linecap="round"/><path d="M244.55755,320.46229l-5.96859,-78.88453l172.57028,-12.91934l6.04562,76.26172z" fill="#928b78" fill-rule="nonzero" stroke="#000000" stroke-width="1" stroke-linecap="round"/><path d="M250.57253,320.31712l-6.05822,-74.60793l159.731,-11.94789l5.84839,71.83464z" fill="#ff0000" fill-rule="nonzero" stroke="#000000" stroke-width="1" stroke-linecap="round"/><path d="M445.39316,302.92509l-6.68634,-75.62786l79.76121,-5.75945l4.66797,74.43765z" fill="#928b78" fill-rule="nonzero" stroke="#000000" stroke-width="1" stroke-linecap="round"/><path d="M447.69431,303.30191l-5.41422,-71.55759l68.73655,-4.9253l4.04953,69.90471z" fill="#ff0000" fill-rule="nonzero" stroke="#000000" stroke-width="1" stroke-linecap="round"/><path d="M236.30875,169.96569l-2.01732,4.28472l-4.25589,0.18427l-12.84658,-20.51486l-126.67866,7.79424l-4.81544,-7.21114l137.55194,-9.71884z" fill="#8b8471" fill-rule="nonzero" stroke="#000000" stroke-width="1" stroke-linecap="round"/><path d="M70.65855,116.03095l6.09396,58.69668l-77.2857,5.70989l-4.89024,-60.99153z" fill="#ff0000" fill-rule="nonzero" stroke="#000000" stroke-width="1" stroke-linecap="round"/><path d="M72.557,299.04221l-43.09629,2.02115l-4.31083,-71.53777l41.7164,-2.05447z" fill="#ff0000" fill-rule="nonzero" stroke="#000000" stroke-width="1" stroke-linecap="round"/><path d="M15.87616,304.29497l-10.78591,-0.56128l-6.26926,-70.11553l10.8422,-2.33545z" fill="#ff0000" fill-rule="nonzero" stroke="#000000" stroke-width="1" stroke-linecap="round"/><path d="M82.53582,227.04307l22.77553,-1.17231l5.23288,69.16093l-23.78825,2.35082l-5.03928,-70.24303z" fill="#ff0000" fill-rule="nonzero" stroke="#000000" stroke-width="1" stroke-linecap="round"/></g><path d="M200.95475,165.59564c0.01114,1.05988 0.15934,2.06302 0.44481,3.00898c-0.00339,0.12735 -0.06941,0.21027 -0.1983,0.24905c-0.36809,-1.0998 -0.45026,-2.18588 -0.24651,-3.25803z" data-paper-data="{&quot;index&quot;:null}" fill="#9e9e9e" fill-rule="evenodd" stroke="none" stroke-width="0" stroke-linecap="butt"/><path d="M175.76681,161.41152l5.65842,-0.42813l0.49949,6.60151l-1.37119,-5.58706z" fill="#736d42" fill-rule="evenodd" stroke="none" stroke-width="0" stroke-linecap="butt"/><path d="M145.20348,175.72245c0.22964,-0.01738 0.42549,0.00773 0.59246,0.06208c2.27146,-3.52204 6.36194,-5.5364 10.40746,-5.78801c0.67926,-0.04225 5.06538,0.02183 5.8078,0.51577c1.62751,1.08278 2.30856,3.28956 3.52751,4.87873c5.05343,6.588 6.36953,13.67333 1.99823,21.00104c-3.29169,2.33876 -5.93886,4.40209 -10.04111,4.61747c-11.62654,0.61041 -15.81974,-13.28135 -13.51553,-23.387l-0.09265,-0.24737c0,0 -0.11685,-1.54432 1.31585,-1.65272zM146.55368,179.5002c-1.33008,7.89518 1.54354,18.98447 10.69926,18.42143c3.39087,-0.20852 5.46298,-1.85392 8.23231,-3.72327c3.45455,-5.98298 1.85719,-11.64277 -2.1527,-16.84905c-1.01915,-1.32317 -1.47239,-3.21922 -2.78799,-4.192c-1.1488,-0.84943 -2.77466,-0.13709 -4.15863,-0.06876c-3.39656,0.16765 -7.44895,2.10047 -8.78345,5.50532c0,0 -0.33258,0.78578 -1.04881,0.90632z" data-paper-data="{&quot;index&quot;:null}" fill="#75dbff" fill-rule="nonzero" stroke="none" stroke-width="0" stroke-linecap="butt"/><path d="M147.55491,178.55848c1.33449,-3.40487 5.43238,-5.36421 8.82893,-5.53188c1.38398,-0.06832 3.02979,-0.77738 4.1786,0.07204c1.31561,0.97275 1.7885,2.88099 2.80763,4.20419c4.00989,5.20631 5.61189,10.95507 2.15737,16.93805c-2.76936,1.86935 -4.88139,3.53408 -8.27225,3.74257c-9.15573,0.56302 -12.08249,-10.61761 -10.75243,-18.51279c0.71623,-0.12052 1.05212,-0.91222 1.05212,-0.91222z" data-paper-data="{&quot;noHover&quot;:false,&quot;origItem&quot;:[&quot;Path&quot;,{&quot;applyMatrix&quot;:true,&quot;segments&quot;:[[[409.4867,271.35519],[1.25852,-0.10678],[-3.34423,12.54639]],[[425.63199,302.31001],[-15.95943,-0.20878],[5.91067,0.07732]],[[440.40413,297.31952],[-5.05034,2.67171],[6.7792,-9.20965]],[[438.881,269.93654],[6.27385,8.86861],[-1.59451,-2.25397]],[[434.59405,262.84941],[2.15492,1.72602],[-1.88172,-1.50719]],[[427.3877,262.23225],[2.4102,0.05859],[-5.91515,-0.1438]],[[411.4254,270.0241],[2.76238,-5.31806],[0,0]]],&quot;closed&quot;:true}],&quot;index&quot;:null}" fill="#ffffff" fill-rule="nonzero" stroke="none" stroke-width="0" stroke-linecap="butt"/><path d="M179.6768,172.23017c3.72866,-1.72958 8.08611,-0.4561 12.07793,0.77622c0.94349,0.29128 4.20813,1.09044 5.00663,2.11711c1.92234,2.47157 2.06756,6.73506 2.60822,9.73596c0.50726,2.81554 1.29772,5.53375 -0.30001,8.16883c-2.79869,4.61573 -7.40018,6.54497 -12.01903,8.25593c-2.15967,0.44539 -4.05996,1.32872 -6.19401,-0.10804c-1.28879,-0.86769 -2.71882,-3.98046 -3.40357,-5.33598c-2.33016,-4.61277 -5.98018,-10.61804 -4.7247,-16.19113c0.42552,-1.88887 3.13507,-4.29607 4.00125,-6.0274l1.6501,-1.21152c0,0 0.64229,-0.44898 1.29724,-0.1799zM178.4602,176.32667c-0.89419,1.21389 -2.87605,3.58299 -2.95077,4.14005c-0.66764,4.97742 2.39434,9.79328 4.47042,13.92758c0.16409,0.3268 1.77975,3.70824 2.38733,4.16601c0.98841,0.74471 3.15393,-0.09455 3.90204,-0.2652c4.10153,-1.52582 7.72111,-3.08751 10.3804,-6.96779c1.11028,-1.62006 0.20124,-4.23505 -0.10187,-5.91016c-0.4148,-2.29249 -0.46565,-6.21119 -1.85416,-8.16795c-0.78786,-1.11031 -2.45723,-0.88351 -3.70159,-1.2671c-3.54491,-1.09276 -8.48177,-2.9159 -11.50544,-0.03667c0,0 -0.45484,0.4084 -1.02641,0.38117z" data-paper-data="{&quot;index&quot;:null}" fill="#75dbff" fill-rule="nonzero" stroke="none" stroke-width="0" stroke-linecap="butt"/><path d="M179.45323,175.89466c3.02367,-2.87923 8.01857,-1.06086 11.56349,0.03191c1.24435,0.38357 2.92898,0.16839 3.71687,1.27871c1.38849,1.95678 1.45655,5.91382 1.87136,8.20631c0.30309,1.67514 1.20776,4.32087 0.09745,5.94093c-2.65929,3.88024 -6.3321,5.47871 -10.43366,7.00452c-0.74811,0.17067 -2.9323,1.00617 -3.92069,0.26146c-0.60757,-0.45779 -2.24139,-3.85071 -2.40554,-4.17751c-2.07608,-4.1343 -5.15221,-9.02509 -4.48458,-14.0025c0.07471,-0.55705 2.07077,-2.94554 2.96496,-4.15942c0.57155,0.02719 1.03029,-0.38443 1.03029,-0.38443z" data-paper-data="{&quot;noHover&quot;:false,&quot;origItem&quot;:[&quot;Path&quot;,{&quot;applyMatrix&quot;:true,&quot;segments&quot;:[[[465.26223,270.13291],[0.98811,0.11339],[-1.71083,1.84504]],[[459.59907,276.43751],[0.20277,-0.88758],[-1.81178,7.93053]],[[465.52703,299.40029],[-3.05933,-6.90758],[0.24182,0.54599]],[[469.12222,306.39679],[-0.99407,-0.81085],[1.61715,1.31908]],[[475.92722,306.44514],[-1.32039,0.18358],[7.31661,-1.95648]],[[494.85229,296.49376],[-5.12332,5.92193],[2.13908,-2.47252]],[[495.45142,286.96818],[0.30597,2.73324],[-0.41874,-3.7406]],[[493.30665,273.59497],[2.15221,3.31878],[-1.22123,-1.88318]],[[487.05062,271.1046],[2.10865,0.76899],[-6.0071,-2.19068]],[[467.0931,269.64433],[5.62415,-4.26625],[0,0]]],&quot;closed&quot;:true}],&quot;index&quot;:null}" fill="#ffffff" fill-rule="nonzero" stroke="none" stroke-width="0" stroke-linecap="butt"/><path d="M163.13209,185.78822c-0.10325,-1.36464 0.83933,-2.54854 2.10535,-2.64433c1.26601,-0.09579 2.37601,0.93281 2.47926,2.29745c0.10325,1.36464 -0.83934,2.54855 -2.10535,2.64434c-1.26601,0.09579 -2.37601,-0.93282 -2.47926,-2.29746z" data-paper-data="{&quot;index&quot;:null}" fill="#000000" fill-rule="nonzero" stroke="none" stroke-width="0" stroke-linecap="butt"/><path d="M192.60899,185.97695c-0.10325,-1.36464 0.83933,-2.54855 2.10535,-2.64434c1.26601,-0.09579 2.37601,0.93282 2.47926,2.29746c0.10325,1.36464 -0.83934,2.54854 -2.10535,2.64433c-1.26601,0.09579 -2.37601,-0.93281 -2.47926,-2.29745z" data-paper-data="{&quot;index&quot;:null}" fill="#000000" fill-rule="nonzero" stroke="none" stroke-width="0" stroke-linecap="butt"/><path d="M116.08057,132.56819c0.55798,-1.07608 1.5635,-0.46291 1.5635,-0.46291l0.4927,0.30043c5.34854,3.26149 10.47404,6.79343 15.62419,10.40875c11.33828,7.95924 23.69281,14.8912 33.9782,24.42231c0,0 0.87655,0.81227 0.1322,1.74718c-0.74436,0.93491 -1.62091,0.12264 -1.62091,0.12264c-10.20323,-9.45501 -22.48172,-16.32554 -33.73001,-24.22161c-5.10964,-3.58687 -10.19334,-7.09145 -15.49966,-10.32717l-0.49269,-0.30043c0,0 -1.00551,-0.61312 -0.44752,-1.6892z" data-paper-data="{&quot;index&quot;:null}" fill="#75dbff" fill-rule="nonzero" stroke="none" stroke-width="0" stroke-linecap="butt"/><path d="M223.79197,109.39287c1.02103,0.58214 0.49204,1.67529 0.49204,1.67529l-0.56728,1.16682c-5.6866,8.81401 -12.79897,16.07529 -19.08113,24.33462c-8.63559,11.35344 -16.98358,23.32775 -26.58818,33.69728c0,0 -0.8094,0.86987 -1.62626,-0.01173c-0.81687,-0.88159 -0.00749,-1.75142 -0.00749,-1.75142c9.58726,-10.25141 17.8582,-22.23897 26.43614,-33.51666c6.21381,-8.16945 13.25905,-15.3463 18.89569,-24.052l0.49643,-1.03113c0,0 0.52901,-1.09313 1.5501,-0.511z" data-paper-data="{&quot;index&quot;:null}" fill="#75dbff" fill-rule="nonzero" stroke="none" stroke-width="0" stroke-linecap="butt"/><path d="M140.57619,232.99784c-0.36931,-3.41979 -1.61934,-6.11259 -2.51518,-9.45144c-1.29169,-4.81424 0.58507,-10.37855 3.35321,-14.22041c2.1701,-1.82264 4.47775,-2.40497 6.94818,-3.60821c6.30864,-3.07266 12.18392,-3.78363 19.01094,-4.99339c9.75509,-0.74413 20.73733,-1.63761 29.85086,2.6911c9.07838,4.33648 8.60298,14.4155 8.03668,23.00926c0,0 -0.04975,0.74836 -0.7981,0.6986c-0.74835,-0.04974 -0.6986,-0.7981 -0.6986,-0.7981c0.52841,-7.88397 1.24039,-17.57419 -7.18381,-21.55496c-8.84477,-4.20528 -19.55375,-3.26774 -29.01889,-2.55774c-6.66215,1.18921 -12.37,1.83802 -18.52214,4.84379c-2.30223,1.12482 -4.50129,1.61181 -6.52465,3.28895c-2.40548,3.41951 -4.22942,8.57883 -2.99539,12.84982c1.03712,3.58953 2.32057,6.49676 2.60677,10.27931l-0.96957,0.8255c0,0 -0.74786,0.05659 -0.80445,-0.69128c-0.02293,-0.303 0.0862,-0.49254 0.22414,-0.6108z" data-paper-data="{&quot;index&quot;:null}" fill="#75dbff" fill-rule="nonzero" stroke="none" stroke-width="0.5" stroke-linecap="butt"/></g></g></g></svg>