<svg version="1.1" xmlns="http://www.w3.org/2000/svg" xmlns:xlink="http://www.w3.org/1999/xlink" width="2878.25006" height="1619.57958" viewBox="0,0,2878.25006,1619.57958"><g transform="translate(1117.37278,629.80931)"><g data-paper-data="{&quot;isPaintingLayer&quot;:true}" stroke-linejoin="miter" stroke-miterlimit="10" stroke-dasharray="" stroke-dashoffset="0" style="mix-blend-mode: normal"><path d="M-1117.37278,989.77027v-1619.57958h2878.25006v1619.57958z" fill="none" fill-rule="nonzero" stroke="#000000" stroke-width="0" stroke-linecap="butt"/><path d="M371.77626,315.28181l-19.76914,-36.42381l93.69715,0.21066l33.57674,36.08476z" data-paper-data="{&quot;index&quot;:null}" fill="#cedce9" fill-rule="nonzero" stroke="#000000" stroke-width="0" stroke-linecap="round"/><path d="M488.1911,313.24866c-2.53537,0.40255 -5.02815,0.63412 -7.49601,0.80189c0.01679,0.06136 0.02551,0.12534 0.02559,0.19213c0.00194,1.62671 -5.1608,1.63287 -5.1608,1.63287c-22.80221,0.02723 -45.60433,0.05446 -68.40647,0.0817c-5.86765,0.00701 -20.46882,-0.71355 -24.79534,0.26456c-2.49217,0.56343 -4.27685,0.51007 -7.47097,0.58734c-0.36051,0.00871 -1.01625,0.02726 -1.59566,0.03884c3.08953,0.69108 1.60419,7.1135 1.60635,8.90813c0.00908,7.59137 0.01812,15.18273 0.0272,22.77413c0.0016,1.35559 0.00322,2.71122 0.00485,4.06681c0.00065,0.54225 -0.90552,2.08845 0.00194,1.62673c3.45256,-1.75656 10.19566,-0.8224 18.06866,-0.83494c15.51938,-0.02475 32.13396,-0.56751 47.37744,0.29401c27.83585,1.72077 57.75828,-1.11733 85.37226,0.80392c23.25749,1.80409 51.09544,1.93593 75.05495,1.90732c6.02327,-0.00717 12.04642,-0.01438 18.06966,-0.02156c0.90625,-0.00107 2.32912,-0.04122 3.80233,-0.08515c-1.48298,-0.83273 0.06626,-2.8526 0.06491,-3.98631c-0.00505,-4.23525 4.49192,-11.54639 -1.04401,-15.3449c-4.89362,-4.61471 -7.99102,-9.05964 -15.97006,-13.65821c-5.88716,-3.393 -15.04909,-6.39587 -19.9208,-9.76742c-2.3623,-2.01007 -4.47318,-0.56894 -12.15878,-1.02562c-17.00624,-1.01051 -34.0612,-0.77269 -51.62851,-0.7517c-6.4034,0.00765 -14.44505,0.42691 -20.65104,0.02466c-1.31004,-0.0849 -3.77221,-0.40342 -5.6178,-0.66447c3.37603,0.8176 -4.32441,1.62154 -7.55991,2.13524zM407.1492,312.70388c17.23319,-0.02059 34.46634,-0.04118 51.69948,-0.06175c0.49704,-0.07891 0.99398,-0.1578 1.49101,-0.23672c6.54685,-1.03943 12.45893,-0.77312 18.06825,-1.24162c7.64435,-0.63849 12.21475,-2.76351 20.10212,-3.27746c4.53093,-0.29524 17.08239,0.62123 23.50567,0.61355c17.41699,-0.0208 34.81452,-0.35537 51.62851,0.7517c9.44543,0.62192 17.42579,-0.62206 21.84711,3.14012c0.65281,1.43036 5.86528,2.3186 8.59232,3.41627c4.16756,1.67749 7.65219,4.16508 10.87776,6.02403c7.99617,4.60841 11.5153,9.35396 16.53092,14.08371c4.48318,4.9865 1.56901,11.1801 1.5752,16.37311c0.00344,2.87102 1.44189,4.89281 -5.15399,7.32643c-2.30007,0.84863 -23.55962,0.02813 -27.10445,0.03236c-24.71307,0.02953 -53.58879,-0.1421 -77.5594,-2.00149c-26.33426,-2.39367 -57.67394,0.91211 -84.8929,-0.77053c-21.93438,-1.53038 -55.78304,2.65665 -73.75043,-2.63945c-1.77886,-0.52437 -0.00578,-4.82668 -0.00681,-5.69354c-0.00908,-7.59137 -0.01812,-15.18273 -0.0272,-22.77413c-0.00301,-2.53807 -3.56112,-8.5936 1.82327,-10.49006c9.39607,-3.30945 26.98922,-2.55817 40.75383,-2.5746z" data-paper-data="{&quot;index&quot;:null}" fill="#000000" fill-rule="nonzero" stroke="none" stroke-width="0" stroke-linecap="butt"/><path d="M480.62287,313.97247c2.46783,-0.16775 4.99065,-0.40151 7.52614,-0.80406c3.23549,-0.51368 10.96657,-1.31866 7.59043,-2.13623c1.84557,0.26106 4.3283,0.57951 5.63821,0.66443c6.206,0.40224 14.31973,-0.01303 20.72296,-0.02067c17.56722,-0.02097 34.73294,-0.23612 51.73914,0.77437c7.68559,0.45668 9.81249,-0.9783 12.17477,1.03176c4.87175,3.37152 14.0724,6.3986 19.95963,9.7916c7.97906,4.59851 11.08711,9.07438 15.98073,13.68907c5.53599,3.79853 1.01478,11.13785 1.01984,15.37309c0.00134,1.1337 -1.55753,3.15934 -0.07451,3.99206c-1.47309,0.04391 -2.89793,0.0851 -3.80425,0.0862c-6.02325,0.00719 -12.05696,0.01951 -18.0802,0.02669c-23.95963,0.02861 -51.91057,-0.07479 -75.16808,-1.87888c-27.61399,-1.92127 -57.80997,0.9014 -85.64586,-0.81937c-15.24347,-0.86152 -31.90507,-0.33724 -47.42446,-0.31253c-7.87299,0.01256 -14.62221,-0.92509 -18.07478,0.83146c-0.90746,0.46168 -0.00517,-1.08688 -0.00583,-1.62915c-0.00162,-1.35557 -0.01208,-2.71778 -0.01371,-4.07337c-0.00904,-7.59139 -0.02892,-15.22787 -0.038,-22.81927c-0.00216,-1.79464 1.49884,-8.23261 -1.59071,-8.92371c0.57949,-0.01163 1.2357,-0.03054 1.59627,-0.03928c3.19401,-0.07722 4.98276,-0.0266 7.47484,-0.59001c4.32652,-0.97809 18.94091,-0.26512 24.80854,-0.27213c22.80227,-0.02723 45.7259,-0.08694 68.52805,-0.11418c0,0 5.18809,-0.00896 5.18615,-1.6357c-0.00008,-0.06676 -0.0082,-0.13079 -0.025,-0.19218z" data-paper-data="{&quot;noHover&quot;:false,&quot;origItem&quot;:[&quot;Path&quot;,{&quot;applyMatrix&quot;:true,&quot;segments&quot;:[[[579.60736,595.76373],[0.95609,-0.20262],[0.00646,0.07548]],[[579.61718,596],[0,-0.08208],[0,2]],[[577.61718,598],[0,0],[-8.83333,0]],[[551.11718,598],[8.83333,0],[-2.27308,0]],[[541.51161,598.28885],[1.67648,-1.19621],[-0.96568,0.68904]],[[538.61718,599],[1.23739,-0.09027],[-0.13966,0.01019]],[[537.99901,599.04541],[0.22447,-0.0134],[1.19653,0.85421]],[[538.61718,610],[0,-2.20646],[0,9.33333]],[[538.61718,638],[0,-9.33333],[0,1.66667]],[[538.61718,643],[0,-1.66667],[0,0.66667]],[[538.61718,645],[-0.35177,0.56631],[1.33831,-2.15456]],[[545.61718,644],[-3.04994,0.00386],[6.01206,-0.00761]],[[563.97058,644.43107],[-5.90478,-1.08158],[10.78253,2.15651]],[[597.04254,645.54479],[-10.6965,-2.40266],[9.00888,2.25222]],[[626.11718,648],[-9.28168,0],[2.33333,0]],[[633.11718,648],[-2.33333,0],[0.35109,0]],[[634.59021,647.90091],[-0.5707,0.05184],[-0.57412,-1.02596]],[[634.61718,643],[0,1.39387],[0,-5.20707]],[[634.21982,624.13246],[2.14282,4.67827],[-1.8936,-5.6808]],[[628.03948,607.31672],[3.08887,5.66543],[-2.2791,-4.1802]],[[620.32688,595.27881],[1.8857,4.15235],[-0.91417,-2.47477]],[[615.61718,594],[2.9771,0.57275],[-6.58756,-1.26734]],[[595.61718,593],[6.8054,0],[-2.48058,0]],[[587.61718,593],[2.40395,0.50364],[-0.50743,-0.10631]],[[585.44122,592.1748],[0.71481,0.32365],[1.30749,1.01011]],[[582.51161,594.78885],[1.25365,-0.62682],[-0.98239,0.4912]]],&quot;closed&quot;:true}],&quot;index&quot;:null}" fill="#c9c9c9" fill-rule="nonzero" stroke="none" stroke-width="0" stroke-linecap="butt"/><path d="M553.00602,319.84984c-0.00023,-0.18862 -0.0721,-0.50443 -0.14082,-0.81468c-0.26581,0.12626 -0.66232,0.23407 -1.17233,0.326c-1.52905,0.49208 -3.84966,0.49484 -3.84966,0.49484c-19.66498,0.02348 -31.018,4.35548 -37.9644,8.90647c-0.81722,0.51637 -0.74424,1.13725 -0.74355,1.71346c0.00019,0.16396 -0.04928,0.42457 -0.10333,0.69414c0.05187,-0.0868 0.18162,-0.15827 0.44583,-0.20437c1.16745,-0.20363 11.32048,1.02179 12.5653,0.30821c0.37411,-0.21444 -1.83653,-0.25214 -1.71489,-0.49361c1.49592,-2.96872 17.39306,-7.47543 25.20886,-8.71637c2.02712,-0.32185 4.30933,-0.48529 6.5782,-0.56161c-0.88762,-0.43424 0.89142,-1.10266 0.89075,-1.65244zM509.00481,331.30476c-0.11636,0.57847 -0.21964,1.1314 0.1323,0.79792c0.24055,-0.22787 -0.1075,-0.54698 -0.1323,-0.79792zM500.64169,327.31852c7.37339,-4.39172 17.18205,-8.39979 32.47316,-9.99099c1.43576,-0.7091 4.39899,-0.71264 4.39899,-0.71264l2.58133,-0.00307c5.84505,-0.00697 8.93666,-0.65229 15.21502,-0.65978c8.71911,-0.01041 10.7468,5.45003 6.18928,7.05528c-2.87593,1.01296 -7.49058,1.34972 -11.34132,1.96108c-11.39829,1.80969 -15.62223,6.97599 -28.11122,9.55897c-13.23673,2.7376 -27.82001,-3.15571 -21.40526,-7.20883z" data-paper-data="{&quot;index&quot;:null}" fill="#000000" fill-rule="nonzero" stroke="none" stroke-width="0" stroke-linecap="butt"/><path d="M553.05695,318.98044c0.0689,0.31025 0.15272,0.63055 0.15293,0.81918c0.00065,0.54977 -1.75717,1.22817 -0.86956,1.66247c-2.2689,0.07633 -4.56421,0.23315 -6.59138,0.55502c-7.81589,1.24095 -23.78979,5.725 -25.28565,8.69371c-0.12176,0.24149 1.84386,0.42234 1.46973,0.63679c-1.24485,0.71355 -11.48582,-0.53314 -12.6533,-0.32952c-0.2643,0.04611 -0.39279,0.11794 -0.44459,0.20482c0.05405,-0.26959 0.09394,-0.53391 0.09375,-0.69786c-0.00068,-0.57619 -0.09624,-1.20838 0.72101,-1.72475c6.94633,-4.551 18.70926,-8.97901 38.37421,-9.00249c0,0 2.33114,0.00069 3.86018,-0.49137c0.51004,-0.09196 0.90682,-0.19975 1.17243,-0.326z" data-paper-data="{&quot;noHover&quot;:false,&quot;origItem&quot;:[&quot;Path&quot;,{&quot;applyMatrix&quot;:true,&quot;segments&quot;:[[[607.563,601.99816],[0.02649,0.38155],[-0.10299,0.15484]],[[607.10872,602.39727],[0.1976,-0.11227],[-0.59254,0.60273]],[[605.61718,603],[0,0],[-7.618,0]],[[590.90604,613.89443],[2.69308,-5.58508],[-0.31682,0.63364]],[[590.61718,616],[0,-0.70843],[0,0.20156]],[[590.57685,616.85325],[0.02106,-0.33136],[0.02013,-0.10671]],[[590.74964,616.60263],[-0.10238,0.05628],[0.45234,-0.24865]],[[595.61718,617],[-0.48256,0.87548],[0.14503,-0.26312]],[[594.95308,616.3906],[-0.04725,0.29671],[0.58086,-3.64773]],[[604.72276,605.71115],[-3.02833,1.51416],[0.78545,-0.39273]],[[607.27135,605.03032],[-0.87898,0.0905],[-0.34365,-0.53523]],[[607.61718,603],[0,0.6759],[0,-0.23192]]],&quot;closed&quot;:true}],&quot;index&quot;:null}" fill="#ffffff" fill-rule="nonzero" stroke="none" stroke-width="0" stroke-linecap="butt"/><path d="M371.77627,315.28181l-19.76914,-36.42381l93.69715,0.21066l33.57674,36.08476z" data-paper-data="{&quot;index&quot;:null}" fill="#cedce9" fill-rule="nonzero" stroke="#000000" stroke-width="0" stroke-linecap="round"/><path d="M488.1911,313.24866c-2.53537,0.40255 -5.02815,0.63412 -7.49601,0.80189c0.01679,0.06136 0.02551,0.12534 0.02559,0.19213c0.00194,1.62671 -5.1608,1.63287 -5.1608,1.63287c-22.80221,0.02723 -45.60433,0.05446 -68.40647,0.0817c-5.86765,0.00701 -20.46882,-0.71355 -24.79534,0.26456c-2.49217,0.56343 -4.27685,0.51007 -7.47097,0.58734c-0.36051,0.00871 -1.01625,0.02726 -1.59566,0.03884c3.08953,0.69108 1.60419,7.1135 1.60635,8.90813c0.00908,7.59137 0.01812,15.18273 0.0272,22.77413c0.0016,1.35559 0.00322,2.71122 0.00485,4.06681c0.00065,0.54225 -0.90552,2.08845 0.00194,1.62673c3.45256,-1.75656 10.19566,-0.8224 18.06866,-0.83494c15.51938,-0.02475 32.13396,-0.56751 47.37744,0.29401c27.83585,1.72077 57.75828,-1.11733 85.37226,0.80392c23.25749,1.80409 51.09544,1.93593 75.05495,1.90732c6.02327,-0.00717 12.04642,-0.01438 18.06966,-0.02156c0.90625,-0.00107 2.32912,-0.04122 3.80233,-0.08515c-1.48298,-0.83273 0.06626,-2.8526 0.06491,-3.98631c-0.00505,-4.23525 4.49192,-11.54639 -1.04401,-15.3449c-4.89362,-4.61471 -7.99102,-9.05964 -15.97006,-13.65821c-5.88716,-3.393 -15.04909,-6.39587 -19.9208,-9.76742c-2.3623,-2.01007 -4.47318,-0.56894 -12.15878,-1.02562c-17.00624,-1.01051 -34.0612,-0.77269 -51.62851,-0.7517c-6.4034,0.00765 -14.44505,0.42691 -20.65104,0.02466c-1.31004,-0.0849 -3.77221,-0.40342 -5.6178,-0.66447c3.37603,0.8176 -4.32441,1.62154 -7.55991,2.13524zM407.14921,312.70388c17.23319,-0.02059 34.46634,-0.04118 51.69948,-0.06175c0.49704,-0.07891 0.99398,-0.1578 1.49101,-0.23672c6.54685,-1.03943 12.45893,-0.77312 18.06825,-1.24162c7.64435,-0.63849 12.21475,-2.76351 20.10212,-3.27746c4.53093,-0.29524 17.08239,0.62123 23.50567,0.61355c17.41699,-0.0208 34.81452,-0.35537 51.62851,0.7517c9.44543,0.62192 17.42579,-0.62206 21.84711,3.14012c0.65281,1.43036 5.86528,2.3186 8.59232,3.41627c4.16756,1.67749 7.65219,4.16508 10.87776,6.02403c7.99617,4.60841 11.5153,9.35396 16.53092,14.08371c4.48318,4.9865 1.56901,11.1801 1.5752,16.37311c0.00344,2.87102 1.44189,4.89281 -5.15399,7.32643c-2.30007,0.84863 -23.55962,0.02813 -27.10445,0.03236c-24.71307,0.02953 -53.58879,-0.1421 -77.5594,-2.00149c-26.33426,-2.39367 -57.67394,0.91211 -84.8929,-0.77053c-21.93438,-1.53038 -55.78304,2.65665 -73.75043,-2.63945c-1.77886,-0.52437 -0.00578,-4.82668 -0.00681,-5.69354c-0.00908,-7.59137 -0.01812,-15.18273 -0.0272,-22.77413c-0.00301,-2.53807 -3.56112,-8.5936 1.82327,-10.49006c9.39607,-3.30945 26.98922,-2.55817 40.75383,-2.5746z" data-paper-data="{&quot;index&quot;:null}" fill="#000000" fill-rule="nonzero" stroke="none" stroke-width="0" stroke-linecap="butt"/><path d="M480.62287,313.97247c2.46783,-0.16775 4.99065,-0.40151 7.52614,-0.80406c3.23549,-0.51368 10.96657,-1.31866 7.59043,-2.13623c1.84557,0.26106 4.3283,0.57951 5.63821,0.66443c6.206,0.40224 14.31973,-0.01303 20.72296,-0.02067c17.56722,-0.02097 34.73294,-0.23612 51.73914,0.77437c7.68559,0.45668 9.81249,-0.9783 12.17477,1.03176c4.87175,3.37152 14.0724,6.3986 19.95963,9.7916c7.97906,4.59851 11.08711,9.07438 15.98073,13.68907c5.53599,3.79853 1.01478,11.13785 1.01984,15.37309c0.00134,1.1337 -1.55753,3.15934 -0.07451,3.99206c-1.47309,0.04391 -2.89793,0.0851 -3.80425,0.0862c-6.02325,0.00719 -12.05696,0.01951 -18.0802,0.02669c-23.95963,0.02861 -51.91057,-0.07479 -75.16808,-1.87888c-27.61399,-1.92127 -57.80997,0.9014 -85.64586,-0.81937c-15.24347,-0.86152 -31.90507,-0.33724 -47.42446,-0.31253c-7.87299,0.01256 -14.62221,-0.92509 -18.07478,0.83146c-0.90746,0.46168 -0.00517,-1.08688 -0.00583,-1.62915c-0.00162,-1.35557 -0.01208,-2.71778 -0.01371,-4.07337c-0.00904,-7.59139 -0.02892,-15.22787 -0.038,-22.81927c-0.00216,-1.79464 1.49884,-8.23261 -1.59071,-8.92371c0.57949,-0.01163 1.2357,-0.03054 1.59627,-0.03928c3.19401,-0.07722 4.98276,-0.0266 7.47484,-0.59001c4.32652,-0.97809 18.94091,-0.26512 24.80854,-0.27213c22.80227,-0.02723 45.7259,-0.08694 68.52805,-0.11418c0,0 5.18809,-0.00896 5.18615,-1.6357c-0.00008,-0.06676 -0.0082,-0.13079 -0.025,-0.19218z" data-paper-data="{&quot;noHover&quot;:false,&quot;origItem&quot;:[&quot;Path&quot;,{&quot;applyMatrix&quot;:true,&quot;segments&quot;:[[[579.60736,595.76373],[0.95609,-0.20262],[0.00646,0.07548]],[[579.61718,596],[0,-0.08208],[0,2]],[[577.61718,598],[0,0],[-8.83333,0]],[[551.11718,598],[8.83333,0],[-2.27308,0]],[[541.51161,598.28885],[1.67648,-1.19621],[-0.96568,0.68904]],[[538.61718,599],[1.23739,-0.09027],[-0.13966,0.01019]],[[537.99901,599.04541],[0.22447,-0.0134],[1.19653,0.85421]],[[538.61718,610],[0,-2.20646],[0,9.33333]],[[538.61718,638],[0,-9.33333],[0,1.66667]],[[538.61718,643],[0,-1.66667],[0,0.66667]],[[538.61718,645],[-0.35177,0.56631],[1.33831,-2.15456]],[[545.61718,644],[-3.04994,0.00386],[6.01206,-0.00761]],[[563.97058,644.43107],[-5.90478,-1.08158],[10.78253,2.15651]],[[597.04254,645.54479],[-10.6965,-2.40266],[9.00888,2.25222]],[[626.11718,648],[-9.28168,0],[2.33333,0]],[[633.11718,648],[-2.33333,0],[0.35109,0]],[[634.59021,647.90091],[-0.5707,0.05184],[-0.57412,-1.02596]],[[634.61718,643],[0,1.39387],[0,-5.20707]],[[634.21982,624.13246],[2.14282,4.67827],[-1.8936,-5.6808]],[[628.03948,607.31672],[3.08887,5.66543],[-2.2791,-4.1802]],[[620.32688,595.27881],[1.8857,4.15235],[-0.91417,-2.47477]],[[615.61718,594],[2.9771,0.57275],[-6.58756,-1.26734]],[[595.61718,593],[6.8054,0],[-2.48058,0]],[[587.61718,593],[2.40395,0.50364],[-0.50743,-0.10631]],[[585.44122,592.1748],[0.71481,0.32365],[1.30749,1.01011]],[[582.51161,594.78885],[1.25365,-0.62682],[-0.98239,0.4912]]],&quot;closed&quot;:true}],&quot;index&quot;:null}" fill="#c9c9c9" fill-rule="nonzero" stroke="none" stroke-width="0" stroke-linecap="butt"/><path d="M553.00603,319.84984c-0.00023,-0.18862 -0.0721,-0.50443 -0.14082,-0.81468c-0.26581,0.12626 -0.66232,0.23407 -1.17233,0.326c-1.52905,0.49208 -3.84966,0.49484 -3.84966,0.49484c-19.66498,0.02348 -31.018,4.35548 -37.9644,8.90647c-0.81722,0.51637 -0.74424,1.13725 -0.74355,1.71346c0.00019,0.16396 -0.04928,0.42457 -0.10333,0.69414c0.05187,-0.0868 0.18162,-0.15827 0.44583,-0.20437c1.16745,-0.20363 11.32048,1.02179 12.5653,0.30821c0.37411,-0.21444 -1.83653,-0.25214 -1.71489,-0.49361c1.49592,-2.96872 17.39306,-7.47543 25.20886,-8.71637c2.02712,-0.32185 4.30933,-0.48529 6.5782,-0.56161c-0.88762,-0.43424 0.89142,-1.10266 0.89075,-1.65244zM509.00481,331.30476c-0.11636,0.57847 -0.21964,1.1314 0.1323,0.79792c0.24055,-0.22787 -0.1075,-0.54698 -0.1323,-0.79792zM500.64169,327.31852c7.37339,-4.39172 17.18205,-8.39979 32.47316,-9.99099c1.43576,-0.7091 4.39899,-0.71264 4.39899,-0.71264l2.58133,-0.00307c5.84505,-0.00697 8.93666,-0.65229 15.21502,-0.65978c8.71911,-0.01041 10.7468,5.45003 6.18928,7.05528c-2.87593,1.01296 -7.49058,1.34972 -11.34132,1.96108c-11.39829,1.80969 -15.62223,6.97599 -28.11122,9.55897c-13.23673,2.7376 -27.82001,-3.15571 -21.40526,-7.20883z" data-paper-data="{&quot;index&quot;:null}" fill="#000000" fill-rule="nonzero" stroke="none" stroke-width="0" stroke-linecap="butt"/><path d="M553.05695,318.98044c0.0689,0.31025 0.15272,0.63055 0.15293,0.81918c0.00065,0.54977 -1.75717,1.22817 -0.86956,1.66247c-2.2689,0.07633 -4.56421,0.23315 -6.59138,0.55502c-7.81589,1.24095 -23.78979,5.725 -25.28565,8.69371c-0.12176,0.24149 1.84386,0.42234 1.46973,0.63679c-1.24485,0.71355 -11.48582,-0.53314 -12.6533,-0.32952c-0.2643,0.04611 -0.39279,0.11794 -0.44459,0.20482c0.05405,-0.26959 0.09394,-0.53391 0.09375,-0.69786c-0.00068,-0.57619 -0.09624,-1.20838 0.72101,-1.72475c6.94633,-4.551 18.70926,-8.97901 38.37421,-9.00249c0,0 2.33114,0.00069 3.86018,-0.49137c0.51004,-0.09196 0.90682,-0.19975 1.17243,-0.326z" data-paper-data="{&quot;noHover&quot;:false,&quot;origItem&quot;:[&quot;Path&quot;,{&quot;applyMatrix&quot;:true,&quot;segments&quot;:[[[607.563,601.99816],[0.02649,0.38155],[-0.10299,0.15484]],[[607.10872,602.39727],[0.1976,-0.11227],[-0.59254,0.60273]],[[605.61718,603],[0,0],[-7.618,0]],[[590.90604,613.89443],[2.69308,-5.58508],[-0.31682,0.63364]],[[590.61718,616],[0,-0.70843],[0,0.20156]],[[590.57685,616.85325],[0.02106,-0.33136],[0.02013,-0.10671]],[[590.74964,616.60263],[-0.10238,0.05628],[0.45234,-0.24865]],[[595.61718,617],[-0.48256,0.87548],[0.14503,-0.26312]],[[594.95308,616.3906],[-0.04725,0.29671],[0.58086,-3.64773]],[[604.72276,605.71115],[-3.02833,1.51416],[0.78545,-0.39273]],[[607.27135,605.03032],[-0.87898,0.0905],[-0.34365,-0.53523]],[[607.61718,603],[0,0.6759],[0,-0.23192]]],&quot;closed&quot;:true}],&quot;index&quot;:null}" fill="#ffffff" fill-rule="nonzero" stroke="none" stroke-width="0" stroke-linecap="butt"/><path d="M164.71899,313.15341l33.57675,-36.08476l93.69714,-0.21066l-19.76914,36.42381z" data-paper-data="{&quot;index&quot;:null}" fill="#cedce9" fill-rule="nonzero" stroke="#000000" stroke-width="0" stroke-linecap="round"/><path d="M155.80894,311.24861c-3.2355,-0.51369 -10.93595,-1.31764 -7.55991,-2.13524c-1.84559,0.26105 -4.30777,0.57958 -5.61781,0.66448c-6.20599,0.40225 -14.24765,-0.01701 -20.65104,-0.02466c-17.56731,-0.02098 -34.62226,-0.2588 -51.62851,0.75171c-7.68561,0.45668 -9.79648,-0.98445 -12.15878,1.02562c-4.8717,3.37155 -14.03364,6.37442 -19.92079,9.76742c-7.97904,4.59857 -11.07645,9.0435 -15.97007,13.65821c-5.53593,3.79852 -1.03896,11.10965 -1.04401,15.3449c-0.00135,1.13371 1.54789,3.15357 0.06491,3.98631c1.47321,0.04393 2.89607,0.08408 3.80232,0.08515c6.02324,0.00718 12.04639,0.01439 18.06966,0.02156c23.95951,0.02861 51.79746,-0.10323 75.05494,-1.90733c27.61399,-1.92125 57.53642,0.91685 85.37226,-0.80392c15.24348,-0.86151 31.85806,-0.31876 47.37744,-0.294c7.87301,0.01254 14.6161,-0.92163 18.06866,0.83494c0.90746,0.46172 0.00129,-1.08448 0.00194,-1.62673c0.00162,-1.35559 0.00325,-2.71121 0.00485,-4.06681c0.00908,-7.59141 0.01812,-15.18276 0.0272,-22.77413c0.00216,-1.79462 -1.48319,-8.21705 1.60635,-8.90812c-0.5794,-0.01158 -1.23515,-0.03012 -1.59566,-0.03884c-3.19412,-0.07727 -4.97879,-0.02392 -7.47096,-0.58735c-4.32652,-0.97811 -18.92768,-0.25754 -24.79534,-0.26455c-22.80214,-0.02724 -45.60426,-0.05447 -68.40647,-0.0817c0,0 -5.16274,-0.00616 -5.1608,-1.63287c0.00008,-0.0668 0.0088,-0.13077 0.02559,-0.19213c-2.46787,-0.16777 -4.96064,-0.39934 -7.49601,-0.80189zM236.85053,310.70381c13.76461,0.01644 31.35777,-0.73484 40.75384,2.5746c5.38439,1.89646 1.82628,7.95199 1.82327,10.49005c-0.00907,7.59141 -0.01813,15.18277 -0.0272,22.77414c-0.00103,0.86686 1.77206,5.16917 -0.0068,5.69354c-17.9674,5.29609 -51.81605,1.10907 -73.75043,2.63944c-27.21896,1.68264 -58.55864,-1.62314 -84.8929,0.77053c-23.97061,1.85939 -52.84632,2.03102 -77.55939,2.0015c-3.54483,-0.00424 -24.80439,0.81626 -27.10445,-0.03237c-6.59588,-2.43361 -5.15742,-4.45541 -5.15399,-7.32643c0.00619,-5.19301 -2.90798,-11.3866 1.5752,-16.3731c5.01563,-4.72974 8.53476,-9.4753 16.53093,-14.08371c3.22556,-1.85895 6.71019,-4.34654 10.87776,-6.02404c2.72704,-1.09767 7.9395,-1.98591 8.59231,-3.41627c4.42133,-3.76218 12.40168,-2.51821 21.84711,-3.14013c16.81399,-1.10707 34.21152,-0.7725 51.62851,-0.7517c6.42327,0.00768 18.97474,-0.90879 23.50567,-0.61355c7.88736,0.51396 12.45776,2.63897 20.10211,3.27747c5.60931,0.4685 11.5214,0.20219 18.06825,1.24162c0.49703,0.07892 0.99398,0.1578 1.49101,0.23672c17.23314,0.02057 34.46629,0.04116 51.69948,0.06175z" data-paper-data="{&quot;index&quot;:null}" fill="#000000" fill-rule="nonzero" stroke="none" stroke-width="0" stroke-linecap="butt"/><path d="M163.37679,311.97247c-0.0168,0.06138 -0.02491,0.12542 -0.025,0.19218c-0.00194,1.62673 5.18615,1.63569 5.18615,1.63569c22.80215,0.02724 45.72579,0.08695 68.52805,0.11418c5.86764,0.00702 20.48202,-0.70596 24.80854,0.27213c2.49208,0.56341 4.28083,0.51279 7.47484,0.59001c0.36057,0.00874 1.01678,0.02765 1.59627,0.03929c-3.08955,0.6911 -1.58855,7.12907 -1.59071,8.92371c-0.00907,7.59141 -0.02895,15.22788 -0.03799,22.81927c-0.00163,1.35559 -0.0121,2.71781 -0.01371,4.07337c-0.00066,0.54227 0.90163,2.09083 -0.00583,1.62915c-3.45256,-1.75655 -10.20178,-0.8189 -18.07478,-0.83146c-15.51939,-0.02471 -32.18099,-0.54898 -47.42446,0.31254c-27.83589,1.72077 -58.03187,-1.10191 -85.64586,0.81937c-23.25751,1.8041 -51.20845,1.90749 -75.16808,1.87888c-6.02324,-0.00718 -12.05696,-0.0195 -18.0802,-0.02668c-0.90632,-0.0011 -2.33116,-0.0423 -3.80425,-0.0862c1.48302,-0.83272 -0.07586,-2.85836 -0.07452,-3.99206c0.00506,-4.23523 -4.51614,-11.57456 1.01984,-15.37309c4.89361,-4.61468 8.00167,-9.09055 15.98073,-13.68906c5.88724,-3.39301 15.08788,-6.42008 19.95963,-9.79161c2.36227,-2.01006 4.48917,-0.57508 12.17477,-1.03176c17.00621,-1.01049 34.17192,-0.79534 51.73915,-0.77437c6.40323,0.00765 14.51696,0.42291 20.72296,0.02067c1.30991,-0.08492 3.79264,-0.40337 5.63821,-0.66444c-3.37613,0.81757 4.35494,1.62256 7.59043,2.13623c2.5355,0.40255 5.05832,0.63631 7.52615,0.80406z" data-paper-data="{&quot;noHover&quot;:false,&quot;origItem&quot;:[&quot;Path&quot;,{&quot;applyMatrix&quot;:true,&quot;segments&quot;:[[[579.60736,595.76373],[0.95609,-0.20262],[0.00646,0.07548]],[[579.61718,596],[0,-0.08208],[0,2]],[[577.61718,598],[0,0],[-8.83333,0]],[[551.11718,598],[8.83333,0],[-2.27308,0]],[[541.51161,598.28885],[1.67648,-1.19621],[-0.96568,0.68904]],[[538.61718,599],[1.23739,-0.09027],[-0.13966,0.01019]],[[537.99901,599.04541],[0.22447,-0.0134],[1.19653,0.85421]],[[538.61718,610],[0,-2.20646],[0,9.33333]],[[538.61718,638],[0,-9.33333],[0,1.66667]],[[538.61718,643],[0,-1.66667],[0,0.66667]],[[538.61718,645],[-0.35177,0.56631],[1.33831,-2.15456]],[[545.61718,644],[-3.04994,0.00386],[6.01206,-0.00761]],[[563.97058,644.43107],[-5.90478,-1.08158],[10.78253,2.15651]],[[597.04254,645.54479],[-10.6965,-2.40266],[9.00888,2.25222]],[[626.11718,648],[-9.28168,0],[2.33333,0]],[[633.11718,648],[-2.33333,0],[0.35109,0]],[[634.59021,647.90091],[-0.5707,0.05184],[-0.57412,-1.02596]],[[634.61718,643],[0,1.39387],[0,-5.20707]],[[634.21982,624.13246],[2.14282,4.67827],[-1.8936,-5.6808]],[[628.03948,607.31672],[3.08887,5.66543],[-2.2791,-4.1802]],[[620.32688,595.27881],[1.8857,4.15235],[-0.91417,-2.47477]],[[615.61718,594],[2.9771,0.57275],[-6.58756,-1.26734]],[[595.61718,593],[6.8054,0],[-2.48058,0]],[[587.61718,593],[2.40395,0.50364],[-0.50743,-0.10631]],[[585.44122,592.1748],[0.71481,0.32365],[1.30749,1.01011]],[[582.51161,594.78885],[1.25365,-0.62682],[-0.98239,0.4912]]],&quot;closed&quot;:true}],&quot;index&quot;:null}" fill="#c9c9c9" fill-rule="nonzero" stroke="none" stroke-width="0" stroke-linecap="butt"/><path d="M90.99403,317.84988c-0.00067,0.54978 1.77837,1.2182 0.89076,1.65244c2.26887,0.07632 4.55109,0.23976 6.5782,0.56161c7.8158,1.24093 23.71294,5.74764 25.20885,8.71636c0.12164,0.24147 -2.08899,0.27917 -1.71489,0.49361c1.24482,0.71358 11.39785,-0.51184 12.5653,-0.30821c0.26421,0.04609 0.39396,0.11756 0.44583,0.20436c-0.05406,-0.26957 -0.10352,-0.53018 -0.10333,-0.69414c0.00069,-0.57621 0.07367,-1.19709 -0.74355,-1.71346c-6.9464,-4.551 -18.29942,-8.883 -37.9644,-8.90647c0,0 -2.32061,-0.00276 -3.84966,-0.49484c-0.51,-0.09193 -0.90652,-0.19975 -1.17233,-0.326c-0.06872,0.31025 -0.14059,0.62606 -0.14083,0.81468zM134.86289,330.10267c0.35194,0.33348 0.24865,-0.21945 0.13229,-0.79792c-0.0248,0.25094 -0.37284,0.57005 -0.13229,0.79792zM143.35832,325.31854c6.41475,4.05312 -8.16853,9.94644 -21.40526,7.20883c-12.48898,-2.58297 -16.71293,-7.74928 -28.11122,-9.55897c-3.85074,-0.61136 -8.46538,-0.94813 -11.34132,-1.96108c-4.55751,-1.60525 -2.52983,-7.06569 6.18928,-7.05528c6.27836,0.0075 9.36997,0.65282 15.21501,0.65978l2.58133,0.00307c0,0 2.96323,0.00354 4.39899,0.71264c15.29111,1.59121 25.09977,5.59927 32.47316,9.99099z" data-paper-data="{&quot;index&quot;:null}" fill="#000000" fill-rule="nonzero" stroke="none" stroke-width="0" stroke-linecap="butt"/><path d="M90.94327,316.98043c0.26561,0.12624 0.6624,0.23404 1.17244,0.326c1.52904,0.49206 3.86019,0.49137 3.86019,0.49137c19.66494,0.02348 31.42788,4.4515 38.37421,9.0025c0.81725,0.51637 0.72169,1.14856 0.72101,1.72475c-0.00018,0.16395 0.03971,0.42827 0.09375,0.69786c-0.0518,-0.08688 -0.18028,-0.15871 -0.44458,-0.20482c-1.16748,-0.20362 -11.40845,1.04307 -12.6533,0.32952c-0.37414,-0.21445 1.5915,-0.3953 1.46973,-0.63679c-1.49586,-2.96871 -17.46976,-7.45277 -25.28565,-8.69371c-2.02717,-0.32186 -4.32249,-0.47869 -6.59138,-0.55501c0.88761,-0.4343 -0.87021,-1.11271 -0.86955,-1.66247c0.00022,-0.18863 0.08403,-0.50893 0.15293,-0.81918z" data-paper-data="{&quot;noHover&quot;:false,&quot;origItem&quot;:[&quot;Path&quot;,{&quot;applyMatrix&quot;:true,&quot;segments&quot;:[[[607.563,601.99816],[0.02649,0.38155],[-0.10299,0.15484]],[[607.10872,602.39727],[0.1976,-0.11227],[-0.59254,0.60273]],[[605.61718,603],[0,0],[-7.618,0]],[[590.90604,613.89443],[2.69308,-5.58508],[-0.31682,0.63364]],[[590.61718,616],[0,-0.70843],[0,0.20156]],[[590.57685,616.85325],[0.02106,-0.33136],[0.02013,-0.10671]],[[590.74964,616.60263],[-0.10238,0.05628],[0.45234,-0.24865]],[[595.61718,617],[-0.48256,0.87548],[0.14503,-0.26312]],[[594.95308,616.3906],[-0.04725,0.29671],[0.58086,-3.64773]],[[604.72276,605.71115],[-3.02833,1.51416],[0.78545,-0.39273]],[[607.27135,605.03032],[-0.87898,0.0905],[-0.34365,-0.53523]],[[607.61718,603],[0,0.6759],[0,-0.23192]]],&quot;closed&quot;:true}],&quot;index&quot;:null}" fill="#ffffff" fill-rule="nonzero" stroke="none" stroke-width="0" stroke-linecap="butt"/><path d="M164.71899,313.15341l33.57674,-36.08476l93.69715,-0.21066l-19.76914,36.42381z" data-paper-data="{&quot;index&quot;:null}" fill="#cedce9" fill-rule="nonzero" stroke="#000000" stroke-width="0" stroke-linecap="round"/><path d="M155.80894,311.24861c-3.2355,-0.51369 -10.93595,-1.31764 -7.55991,-2.13524c-1.84559,0.26105 -4.30777,0.57958 -5.61781,0.66448c-6.20599,0.40225 -14.24765,-0.01701 -20.65104,-0.02466c-17.56731,-0.02098 -34.62226,-0.2588 -51.62851,0.75171c-7.68561,0.45668 -9.79648,-0.98445 -12.15878,1.02562c-4.8717,3.37155 -14.03364,6.37442 -19.92079,9.76742c-7.97904,4.59857 -11.07645,9.0435 -15.97007,13.65821c-5.53593,3.79852 -1.03896,11.10965 -1.04401,15.3449c-0.00135,1.13371 1.54789,3.15357 0.06491,3.98631c1.47321,0.04393 2.89607,0.08408 3.80232,0.08515c6.02324,0.00718 12.04639,0.01439 18.06966,0.02156c23.95951,0.02861 51.79746,-0.10323 75.05494,-1.90733c27.61399,-1.92125 57.53642,0.91685 85.37227,-0.80392c15.24348,-0.86151 31.85806,-0.31876 47.37744,-0.294c7.87301,0.01254 14.6161,-0.92163 18.06866,0.83494c0.90746,0.46172 0.00129,-1.08448 0.00194,-1.62673c0.00162,-1.35559 0.00325,-2.71121 0.00485,-4.06681c0.00908,-7.59141 0.01812,-15.18276 0.0272,-22.77413c0.00216,-1.79462 -1.48319,-8.21705 1.60635,-8.90812c-0.5794,-0.01158 -1.23515,-0.03012 -1.59566,-0.03884c-3.19412,-0.07727 -4.97879,-0.02392 -7.47096,-0.58735c-4.32652,-0.97811 -18.92768,-0.25754 -24.79534,-0.26455c-22.80214,-0.02724 -45.60426,-0.05447 -68.40647,-0.0817c0,0 -5.16274,-0.00616 -5.1608,-1.63287c0.00007,-0.0668 0.00879,-0.13077 0.02558,-0.19213c-2.46786,-0.16777 -4.96064,-0.39934 -7.49601,-0.80189zM236.85053,310.70381c13.7646,0.01644 31.35776,-0.73484 40.75383,2.5746c5.38439,1.89646 1.82628,7.95199 1.82328,10.49005c-0.00908,7.59141 -0.01813,15.18277 -0.0272,22.77414c-0.00103,0.86686 1.77206,5.16917 -0.0068,5.69354c-17.9674,5.29609 -51.81605,1.10907 -73.75043,2.63944c-27.21896,1.68264 -58.55864,-1.62314 -84.8929,0.77053c-23.97061,1.85939 -52.84633,2.03102 -77.5594,2.0015c-3.54483,-0.00424 -24.80438,0.81626 -27.10445,-0.03237c-6.59588,-2.43361 -5.15742,-4.45541 -5.15399,-7.32643c0.00619,-5.19301 -2.90798,-11.3866 1.5752,-16.3731c5.01563,-4.72974 8.53476,-9.4753 16.53093,-14.08371c3.22556,-1.85895 6.71019,-4.34654 10.87775,-6.02404c2.72704,-1.09767 7.9395,-1.98591 8.59231,-3.41627c4.42133,-3.76218 12.40169,-2.51821 21.84712,-3.14013c16.81399,-1.10707 34.21151,-0.7725 51.62851,-0.7517c6.42327,0.00768 18.97474,-0.90879 23.50567,-0.61355c7.88736,0.51396 12.45777,2.63897 20.10212,3.27747c5.60932,0.4685 11.5214,0.20219 18.06825,1.24162c0.49703,0.07892 0.99398,0.1578 1.49101,0.23672c17.23314,0.02057 34.46629,0.04116 51.69948,0.06175z" data-paper-data="{&quot;index&quot;:null}" fill="#000000" fill-rule="nonzero" stroke="none" stroke-width="0" stroke-linecap="butt"/><path d="M163.37679,311.97247c-0.0168,0.06138 -0.02491,0.12542 -0.025,0.19218c-0.00194,1.62673 5.18615,1.63569 5.18615,1.63569c22.80215,0.02724 45.72579,0.08695 68.52805,0.11418c5.86764,0.00702 20.48202,-0.70596 24.80854,0.27213c2.49208,0.56341 4.28083,0.51279 7.47484,0.59001c0.36057,0.00874 1.01678,0.02765 1.59627,0.03929c-3.08955,0.6911 -1.58855,7.12907 -1.59071,8.92371c-0.00907,7.59141 -0.02895,15.22788 -0.03799,22.81927c-0.00163,1.35559 -0.0121,2.71781 -0.01371,4.07337c-0.00066,0.54227 0.90163,2.09083 -0.00583,1.62915c-3.45256,-1.75655 -10.20178,-0.8189 -18.07478,-0.83146c-15.51939,-0.02471 -32.18099,-0.54898 -47.42446,0.31254c-27.83589,1.72077 -58.03187,-1.10191 -85.64586,0.81937c-23.25751,1.8041 -51.20845,1.90749 -75.16808,1.87888c-6.02324,-0.00718 -12.05696,-0.0195 -18.0802,-0.02668c-0.90632,-0.0011 -2.33116,-0.0423 -3.80425,-0.0862c1.48302,-0.83272 -0.07586,-2.85836 -0.07452,-3.99206c0.00506,-4.23523 -4.51614,-11.57456 1.01984,-15.37309c4.89361,-4.61468 8.00167,-9.09055 15.98073,-13.68906c5.88724,-3.39301 15.08788,-6.42008 19.95963,-9.79161c2.36227,-2.01006 4.48917,-0.57508 12.17477,-1.03176c17.00621,-1.01049 34.17192,-0.79534 51.73915,-0.77437c6.40323,0.00765 14.51696,0.42291 20.72296,0.02067c1.30991,-0.08492 3.79264,-0.40337 5.63821,-0.66444c-3.37613,0.81757 4.35494,1.62256 7.59043,2.13623c2.5355,0.40255 5.05832,0.63631 7.52615,0.80406z" data-paper-data="{&quot;noHover&quot;:false,&quot;origItem&quot;:[&quot;Path&quot;,{&quot;applyMatrix&quot;:true,&quot;segments&quot;:[[[579.60736,595.76373],[0.95609,-0.20262],[0.00646,0.07548]],[[579.61718,596],[0,-0.08208],[0,2]],[[577.61718,598],[0,0],[-8.83333,0]],[[551.11718,598],[8.83333,0],[-2.27308,0]],[[541.51161,598.28885],[1.67648,-1.19621],[-0.96568,0.68904]],[[538.61718,599],[1.23739,-0.09027],[-0.13966,0.01019]],[[537.99901,599.04541],[0.22447,-0.0134],[1.19653,0.85421]],[[538.61718,610],[0,-2.20646],[0,9.33333]],[[538.61718,638],[0,-9.33333],[0,1.66667]],[[538.61718,643],[0,-1.66667],[0,0.66667]],[[538.61718,645],[-0.35177,0.56631],[1.33831,-2.15456]],[[545.61718,644],[-3.04994,0.00386],[6.01206,-0.00761]],[[563.97058,644.43107],[-5.90478,-1.08158],[10.78253,2.15651]],[[597.04254,645.54479],[-10.6965,-2.40266],[9.00888,2.25222]],[[626.11718,648],[-9.28168,0],[2.33333,0]],[[633.11718,648],[-2.33333,0],[0.35109,0]],[[634.59021,647.90091],[-0.5707,0.05184],[-0.57412,-1.02596]],[[634.61718,643],[0,1.39387],[0,-5.20707]],[[634.21982,624.13246],[2.14282,4.67827],[-1.8936,-5.6808]],[[628.03948,607.31672],[3.08887,5.66543],[-2.2791,-4.1802]],[[620.32688,595.27881],[1.8857,4.15235],[-0.91417,-2.47477]],[[615.61718,594],[2.9771,0.57275],[-6.58756,-1.26734]],[[595.61718,593],[6.8054,0],[-2.48058,0]],[[587.61718,593],[2.40395,0.50364],[-0.50743,-0.10631]],[[585.44122,592.1748],[0.71481,0.32365],[1.30749,1.01011]],[[582.51161,594.78885],[1.25365,-0.62682],[-0.98239,0.4912]]],&quot;closed&quot;:true}],&quot;index&quot;:null}" fill="#c9c9c9" fill-rule="nonzero" stroke="none" stroke-width="0" stroke-linecap="butt"/><path d="M90.99402,317.84988c-0.00067,0.54978 1.77837,1.2182 0.89075,1.65244c2.26887,0.07632 4.55109,0.23976 6.5782,0.56161c7.8158,1.24093 23.71294,5.74764 25.20885,8.71636c0.12164,0.24147 -2.08899,0.27917 -1.71489,0.49361c1.24482,0.71358 11.39785,-0.51184 12.5653,-0.30821c0.26421,0.04609 0.39396,0.11756 0.44583,0.20436c-0.05406,-0.26957 -0.10352,-0.53018 -0.10333,-0.69414c0.00069,-0.57621 0.07367,-1.19709 -0.74355,-1.71346c-6.9464,-4.551 -18.29942,-8.883 -37.9644,-8.90647c0,0 -2.32061,-0.00276 -3.84966,-0.49484c-0.51,-0.09193 -0.90653,-0.19975 -1.17233,-0.326c-0.06872,0.31025 -0.14059,0.62606 -0.14082,0.81468zM134.86289,330.10267c0.35194,0.33348 0.24865,-0.21945 0.13229,-0.79792c-0.0248,0.25094 -0.37284,0.57005 -0.13229,0.79792zM143.35832,325.31854c6.41475,4.05312 -8.16853,9.94644 -21.40526,7.20883c-12.48898,-2.58297 -16.71293,-7.74928 -28.11122,-9.55897c-3.85074,-0.61136 -8.46538,-0.94813 -11.34132,-1.96108c-4.55751,-1.60525 -2.52983,-7.06569 6.18928,-7.05528c6.27836,0.0075 9.36997,0.65282 15.21501,0.65978l2.58133,0.00307c0,0 2.96323,0.00354 4.39899,0.71264c15.29111,1.59121 25.09977,5.59927 32.47316,9.99099z" data-paper-data="{&quot;index&quot;:null}" fill="#000000" fill-rule="nonzero" stroke="none" stroke-width="0" stroke-linecap="butt"/><path d="M90.94327,316.98043c0.26561,0.12624 0.6624,0.23404 1.17244,0.326c1.52904,0.49206 3.86019,0.49137 3.86019,0.49137c19.66494,0.02348 31.42788,4.4515 38.37421,9.0025c0.81725,0.51637 0.72169,1.14856 0.72101,1.72475c-0.00018,0.16395 0.03971,0.42827 0.09375,0.69786c-0.0518,-0.08688 -0.18028,-0.15871 -0.44458,-0.20482c-1.16748,-0.20362 -11.40845,1.04307 -12.6533,0.32952c-0.37414,-0.21445 1.5915,-0.3953 1.46973,-0.63679c-1.49586,-2.96871 -17.46976,-7.45277 -25.28565,-8.69371c-2.02717,-0.32186 -4.32249,-0.47869 -6.59138,-0.55501c0.88761,-0.4343 -0.87021,-1.11271 -0.86955,-1.66247c0.00022,-0.18863 0.08403,-0.50893 0.15293,-0.81918z" data-paper-data="{&quot;noHover&quot;:false,&quot;origItem&quot;:[&quot;Path&quot;,{&quot;applyMatrix&quot;:true,&quot;segments&quot;:[[[607.563,601.99816],[0.02649,0.38155],[-0.10299,0.15484]],[[607.10872,602.39727],[0.1976,-0.11227],[-0.59254,0.60273]],[[605.61718,603],[0,0],[-7.618,0]],[[590.90604,613.89443],[2.69308,-5.58508],[-0.31682,0.63364]],[[590.61718,616],[0,-0.70843],[0,0.20156]],[[590.57685,616.85325],[0.02106,-0.33136],[0.02013,-0.10671]],[[590.74964,616.60263],[-0.10238,0.05628],[0.45234,-0.24865]],[[595.61718,617],[-0.48256,0.87548],[0.14503,-0.26312]],[[594.95308,616.3906],[-0.04725,0.29671],[0.58086,-3.64773]],[[604.72276,605.71115],[-3.02833,1.51416],[0.78545,-0.39273]],[[607.27135,605.03032],[-0.87898,0.0905],[-0.34365,-0.53523]],[[607.61718,603],[0,0.6759],[0,-0.23192]]],&quot;closed&quot;:true}],&quot;index&quot;:null}" fill="#ffffff" fill-rule="nonzero" stroke="none" stroke-width="0" stroke-linecap="butt"/><g><g><path d="M702.33425,180.47878c0.47124,0.7912 0.75703,1.68753 0.86038,2.68843c-2.4794,0.60386 -4.94449,0.99497 -7.39515,1.17391c2.34365,-0.47281 4.68427,-0.94501 7.02794,-1.41783c-0.1644,-0.81494 -0.32875,-1.62957 -0.49316,-2.4445z" data-paper-data="{&quot;index&quot;:null}" fill="#6b6b6b" fill-rule="evenodd" stroke="none" stroke-width="0" stroke-linecap="butt"/><path d="M713.03161,179.91066c0.35002,0.26902 0.53608,0.65536 0.55214,1.1606c-3.09047,0.72745 -6.16662,1.24215 -9.22851,1.54378c2.95479,-0.5961 5.90653,-1.1916 8.86131,-1.78771c-0.06165,-0.30556 -0.12329,-0.61111 -0.18493,-0.91668z" data-paper-data="{&quot;index&quot;:null}" fill="#9e9e9e" fill-rule="evenodd" stroke="none" stroke-width="0" stroke-linecap="butt"/><path d="M623.44276,199.25649c2.49644,-0.50364 4.96154,-0.89474 7.39515,-1.17391c-4.93299,0.89439 -9.80147,1.98246 -14.60538,3.26453c2.25244,-0.87767 4.65583,-1.57465 7.21022,-2.09061z" data-paper-data="{&quot;index&quot;:null}" fill="#484848" fill-rule="evenodd" stroke="none" stroke-width="0" stroke-linecap="butt"/><path d="M212.89242,284.30782c3.70093,-0.85093 7.3882,-1.48893 11.0619,-1.91365c-3.78132,0.56761 -7.40694,1.51116 -10.87697,2.83035c-0.06165,-0.30556 -0.12329,-0.61111 -0.18493,-0.91668z" data-paper-data="{&quot;index&quot;:null}" fill="#838383" fill-rule="evenodd" stroke="none" stroke-width="0" stroke-linecap="butt"/><path d="M119.90286,123.82313l1.49514,-0.05072l161.78374,-30.38054l3.21053,15.91401l93.49281,-18.79871l6.20122,30.73832l48.75197,-7.07548l-3.16561,-18.17864l90.18155,-15.93535l3.64777,18.08136l28.97882,-5.59535l12.43892,61.65745l14.83993,-2.30387l137.70964,-26.5901l18.59613,102.12689l-3.35087,0.80146l-316.71123,68.41017l-2.18901,-9.60689l-252.59714,50.64589l-1.09433,-5.4244l-41.70621,-206.73023z" fill="#413831" fill-rule="nonzero" stroke="#000000" stroke-width="1" stroke-linecap="round"/><path d="M258.24494,217.57364l28.82402,-5.19988l15.05481,74.62394l-29.96889,6.66113l-14.94,-75.83895z" fill="#928b78" fill-rule="nonzero" stroke="#000000" stroke-width="1" stroke-linecap="round"/><path d="M265.31279,295.97633l-49.83754,8.6628l-14.37525,-77.77015l48.22897,-8.4929z" fill="#928b78" fill-rule="nonzero" stroke="#000000" stroke-width="1" stroke-linecap="round"/><path d="M208.83851,307.61009l-16.14975,1.74044l-16.50068,-74.4506l15.93849,-4.88489z" fill="#928b78" fill-rule="nonzero" stroke="#000000" stroke-width="1" stroke-linecap="round"/><path d="M283.02611,93.19044l23.36143,105.6035l-165.3861,30.56071l-20.59241,-104.85329z" fill="#736c59" fill-rule="nonzero" stroke="#000000" stroke-width="1" stroke-linecap="round"/><path d="M282.44687,93.79102l-176.96046,33.19142l-9.26786,-11.42782l190.49288,-31.40534l19.073,12.46048l102.18506,-19.86234l-0.27292,9.84005l-103.38094,18.59823l-18.17653,4.41968z" fill="#8b8471" fill-rule="nonzero" stroke="#000000" stroke-width="1" stroke-linecap="round"/><path d="M411.03406,99.39983l-3.23977,-4.86613l137.17936,-26.42038l-5.00154,8.78683l-127.34562,22.93113" fill="#8b8471" fill-rule="nonzero" stroke="#000000" stroke-width="1" stroke-linecap="round"/><path d="M382.79739,116.13583l51.35317,-9.10562l0.43575,6.43542l-49.37064,8.95656z" fill="#8b8471" fill-rule="nonzero" stroke="#000000" stroke-width="1" stroke-linecap="round"/><path d="M523.55071,92.507l61.90596,-15.24892l-3.31184,9.70042l-56.79876,11.9605z" fill="#8b8471" fill-rule="nonzero" stroke="#000000" stroke-width="1" stroke-linecap="round"/><path d="M566.08767,147.27697l-168.8487,32.35944l-9.91249,-49.13439l50.32646,-10.15298l5.72328,28.36925l89.15565,-16.74051l-6.06073,-24.37284l30.65991,-4.72443z" fill="#262626" fill-rule="nonzero" stroke="#000000" stroke-width="1" stroke-linecap="round"/><path d="M393.7103,187.63523l-2.27962,-7.5688l349.78126,-68.55848l-2.05779,9.69833l-171.82466,33.15891z" fill="#8b8471" fill-rule="nonzero" stroke="#000000" stroke-width="1" stroke-linecap="round"/><path d="M521.86635,79.80016l11.80828,52.3133l-90.84453,16.0691l-10.98776,-51.97705z" fill="#736c59" fill-rule="nonzero" stroke="#000000" stroke-width="1" stroke-linecap="round"/><path d="M450.75672,101.93525l55.00989,-11.37804l8.68208,37.4795l-56.84277,10.62691z" fill="#ff0000" fill-rule="nonzero" stroke="#000000" stroke-width="1" stroke-linecap="round"/><path d="M331.7152,222.17206l57.89149,-11.67916l16.47308,78.87609l-61.7698,11.90114l-15.69451,-79.1839z" fill="#ff0000" fill-rule="nonzero" stroke="#000000" stroke-width="1" stroke-linecap="round"/><path d="M345.53263,219.12869l31.50373,-6.35563l16.77836,79.00027l-33.14648,6.54693l-15.95136,-79.76258z" fill="#2d0d0e" fill-rule="nonzero" stroke="#000000" stroke-width="1" stroke-linecap="round"/><path d="M400.66528,264.96113l224.34125,-45.2591l6.14514,30.46034l-213.73469,46.72718l-2.14454,-9.93556l-9.2624,2.00873l-4.96809,-23.23689" fill="#807165" fill-rule="nonzero" stroke="#000000" stroke-width="1" stroke-linecap="round"/><path d="M163.88742,225.96563l21.89607,107.14588l-23.26289,5.53378l-21.32711,-109.18719l22.5106,-4.40123z" fill="#807165" fill-rule="nonzero" stroke="#000000" stroke-width="1" stroke-linecap="round"/><path d="M287.99834,201.52268l17.67036,-3.56486l21.7272,106.82968l-17.06423,3.6177z" fill="#807165" fill-rule="nonzero" stroke="#000000" stroke-width="1" stroke-linecap="round"/><path d="M434.24909,293.07345l-15.64464,-77.54766l169.66267,-34.088l15.39785,74.93534z" fill="#928b78" fill-rule="nonzero" stroke="#000000" stroke-width="1" stroke-linecap="round"/><path d="M440.20033,292.18812l-15.20654,-73.29261l157.04097,-31.54168l14.65654,70.56632z" fill="#ff0000" fill-rule="nonzero" stroke="#000000" stroke-width="1" stroke-linecap="round"/><path d="M631.39252,250.91944l-15.95557,-74.22736l78.44342,-15.54513l13.8059,73.29495z" fill="#928b78" fill-rule="nonzero" stroke="#000000" stroke-width="1" stroke-linecap="round"/><path d="M633.72256,251.0098l-14.19154,-70.34488l67.60561,-13.35868l12.63355,68.87279z" fill="#ff0000" fill-rule="nonzero" stroke="#000000" stroke-width="1" stroke-linecap="round"/><path d="M407.51632,144.74062l-1.4739,4.50066l-4.20074,0.70735l-15.27685,-18.77529l-124.75246,23.3464l-5.66742,-6.56273l135.30568,-26.59633z" fill="#8b8471" fill-rule="nonzero" stroke="#000000" stroke-width="1" stroke-linecap="round"/><path d="M236.48205,111.63136l13.28114,57.49824l-75.9929,15.19087l-12.36942,-59.92395z" fill="#ff0000" fill-rule="nonzero" stroke="#000000" stroke-width="1" stroke-linecap="round"/><path d="M260.9199,293.01359l-42.51869,7.31683l-13.09412,-70.46119l41.14521,-7.17984z" fill="#ff0000" fill-rule="nonzero" stroke="#000000" stroke-width="1" stroke-linecap="round"/><path d="M205.31846,305.21153l-10.77286,0.77222l-14.86234,-68.80844l10.47174,-3.65381z" fill="#ff0000" fill-rule="nonzero" stroke="#000000" stroke-width="1" stroke-linecap="round"/><path d="M261.94966,220.33352l22.45745,-3.97017l13.71622,67.98884l-23.31721,5.26451l-13.65745,-69.08655z" fill="#ff0000" fill-rule="nonzero" stroke="#000000" stroke-width="1" stroke-linecap="round"/></g><path d="M371.89327,144.76083c0.14167,1.05043 0.41237,2.02766 0.81224,2.93122c0.01233,0.1268 -0.04297,0.21722 -0.1661,0.27159c-0.50082,-1.04605 -0.71621,-2.11373 -0.64614,-3.20282z" data-paper-data="{&quot;index&quot;:null}" fill="#9e9e9e" fill-rule="evenodd" stroke="none" stroke-width="0" stroke-linecap="butt"/><path d="M346.38169,143.71271l5.56253,-1.1222l1.30924,6.48963l-2.04927,-5.37549z" fill="#736d42" fill-rule="evenodd" stroke="none" stroke-width="0" stroke-linecap="butt"/><path d="M317.81498,161.6811c0.22575,-0.04555 0.4232,-0.04477 0.5956,-0.0114c1.8201,-3.77512 5.63115,-6.27823 9.61482,-7.02648c0.66888,-0.12564 5.02946,-0.60259 5.82709,-0.2039c1.74855,0.87395 2.69636,2.97999 4.10186,4.40682c5.8268,5.91501 8.00604,12.78413 4.57112,20.5947c-2.97838,2.72659 -5.35109,5.10042 -9.39552,5.81972c-11.46269,2.03859 -17.33591,-11.23052 -16.29466,-21.5431l-0.12243,-0.23406c0,0 -0.30627,-1.51815 1.10214,-1.80228zM319.62045,165.26365c-0.34695,7.99891 3.87137,18.64953 12.88792,16.96246c3.33932,-0.62481 5.19286,-2.51303 7.71071,-4.70942c2.69089,-6.36311 0.40821,-11.78289 -4.21273,-16.45532c-1.17444,-1.18749 -1.85789,-3.01323 -3.28335,-3.81646c-1.24472,-0.70138 -2.77041,0.2059 -4.1354,0.44426c-3.35001,0.58496 -7.13331,3.00245 -8.03803,6.5458c0,0 -0.23321,0.82078 -0.92912,1.02867z" data-paper-data="{&quot;index&quot;:null}" fill="#75dbff" fill-rule="nonzero" stroke="none" stroke-width="0" stroke-linecap="butt"/><path d="M320.49799,164.20573c0.90471,-3.54338 4.7299,-5.99279 8.0799,-6.57776c1.36501,-0.23836 2.91089,-1.14483 4.15563,-0.44347c1.42546,0.8032 2.12991,2.63862 3.30434,3.82614c4.62093,4.67246 6.91919,10.17997 4.22832,16.54306c-2.51788,2.19639 -4.40865,4.10871 -7.74796,4.73349c-9.01656,1.68706 -13.29888,-9.04766 -12.95194,-17.04657c0.69592,-0.20787 0.93168,-1.03492 0.93168,-1.03492z" data-paper-data="{&quot;noHover&quot;:false,&quot;origItem&quot;:[&quot;Path&quot;,{&quot;applyMatrix&quot;:true,&quot;segments&quot;:[[[409.4867,271.35519],[1.25852,-0.10678],[-3.34423,12.54639]],[[425.63199,302.31001],[-15.95943,-0.20878],[5.91067,0.07732]],[[440.40413,297.31952],[-5.05034,2.67171],[6.7792,-9.20965]],[[438.881,269.93654],[6.27385,8.86861],[-1.59451,-2.25397]],[[434.59405,262.84941],[2.15492,1.72602],[-1.88172,-1.50719]],[[427.3877,262.23225],[2.4102,0.05859],[-5.91515,-0.1438]],[[411.4254,270.0241],[2.76238,-5.31806],[0,0]]],&quot;closed&quot;:true}],&quot;index&quot;:null}" fill="#ffffff" fill-rule="nonzero" stroke="none" stroke-width="0" stroke-linecap="butt"/><path d="M351.59513,153.96703c3.48709,-2.17591 7.96826,-1.44913 12.08152,-0.71815c0.97219,0.17279 4.31044,0.56352 5.22938,1.48397c2.21228,2.21582 2.88181,6.42892 3.78817,9.34032c0.85038,2.73157 1.96979,5.33164 0.70899,8.14353c-2.20852,4.92545 -6.53718,7.40706 -10.90997,9.67419c-2.08832,0.70814 -3.86526,1.81894 -6.16011,0.65611c-1.3859,-0.70225 -3.18864,-3.61506 -4.03521,-4.87586c-2.88087,-4.29044 -7.24314,-9.80012 -6.68404,-15.48544c0.1895,-1.92691 2.58174,-4.64968 3.22795,-6.47456l1.48822,-1.40564c0,0 0.58206,-0.52471 1.26518,-0.33839zM350.89266,158.18224c-0.73777,1.31483 -2.41257,3.91012 -2.41806,4.47214c-0.04914,5.02175 3.58299,9.42355 6.15275,13.27049c0.20311,0.30409 2.22318,3.46064 2.88254,3.84004c1.07265,0.61723 3.11824,-0.48251 3.83961,-0.74405c3.88222,-2.01965 7.28176,-4.0155 9.44258,-8.19394c0.90216,-1.74454 -0.32221,-4.22757 -0.82945,-5.85256c-0.69416,-2.2239 -1.22756,-6.10646 -2.84662,-7.87719c-0.91869,-1.00475 -2.54738,-0.57395 -3.82953,-0.80127c-3.65256,-0.64756 -8.77646,-1.8484 -11.42225,1.38152c0,0 -0.40104,0.46134 -0.97161,0.50476z" data-paper-data="{&quot;index&quot;:null}" fill="#75dbff" fill-rule="nonzero" stroke="none" stroke-width="0" stroke-linecap="butt"/><path d="M351.82487,157.63114c2.64579,-3.22992 7.82671,-2.04097 11.47928,-1.39339c1.28213,0.2273 2.92741,-0.19385 3.84613,0.81091c1.61905,1.77075 2.17426,5.68924 2.86842,7.91313c0.50722,1.62502 1.73105,4.13909 0.82885,5.88364c-2.16082,4.17838 -5.60865,6.2173 -9.4909,8.23694c-0.72137,0.26156 -2.78595,1.35987 -3.85858,0.74264c-0.65935,-0.37943 -2.69886,-3.54513 -2.90203,-3.84921c-2.56976,-3.84694 -6.22517,-8.32135 -6.17603,-13.34309c0.00549,-0.56201 1.69199,-3.17829 2.42976,-4.49311c0.57055,-0.04345 0.97506,-0.50847 0.97506,-0.50847z" data-paper-data="{&quot;noHover&quot;:false,&quot;origItem&quot;:[&quot;Path&quot;,{&quot;applyMatrix&quot;:true,&quot;segments&quot;:[[[465.26223,270.13291],[0.98811,0.11339],[-1.71083,1.84504]],[[459.59907,276.43751],[0.20277,-0.88758],[-1.81178,7.93053]],[[465.52703,299.40029],[-3.05933,-6.90758],[0.24182,0.54599]],[[469.12222,306.39679],[-0.99407,-0.81085],[1.61715,1.31908]],[[475.92722,306.44514],[-1.32039,0.18358],[7.31661,-1.95648]],[[494.85229,296.49376],[-5.12332,5.92193],[2.13908,-2.47252]],[[495.45142,286.96818],[0.30597,2.73324],[-0.41874,-3.7406]],[[493.30665,273.59497],[2.15221,3.31878],[-1.22123,-1.88318]],[[487.05062,271.1046],[2.10865,0.76899],[-6.0071,-2.19068]],[[467.0931,269.64433],[5.62415,-4.26625],[0,0]]],&quot;closed&quot;:true}],&quot;index&quot;:null}" fill="#ffffff" fill-rule="nonzero" stroke="none" stroke-width="0" stroke-linecap="butt"/><path d="M336.84741,169.46066c-0.27064,-1.34151 0.51885,-2.63255 1.76342,-2.88363c1.24456,-0.25108 2.47285,0.63288 2.74349,1.9744c0.27064,1.34151 -0.51886,2.63256 -1.76342,2.88364c-1.24456,0.25108 -2.47285,-0.63289 -2.7435,-1.97441z" data-paper-data="{&quot;index&quot;:null}" fill="#000000" fill-rule="nonzero" stroke="none" stroke-width="0" stroke-linecap="butt"/><path d="M366.12287,166.01529c-0.27064,-1.34151 0.51885,-2.63256 1.76342,-2.88364c1.24456,-0.25108 2.47285,0.63289 2.7435,1.97441c0.27064,1.34151 -0.51886,2.63255 -1.76342,2.88363c-1.24456,0.25108 -2.47285,-0.63288 -2.74349,-1.9744z" data-paper-data="{&quot;index&quot;:null}" fill="#000000" fill-rule="nonzero" stroke="none" stroke-width="0" stroke-linecap="butt"/><path d="M283.59584,122.44483c0.42112,-1.13664 1.49453,-0.65206 1.49453,-0.65206l0.52597,0.23742c5.70971,2.57749 11.2314,5.45085 16.78784,8.40392c12.23273,6.50127 25.34736,11.85785 36.72894,20.04875c0,0 0.96997,0.69805 0.34651,1.71757c-0.62347,1.01952 -1.59344,0.32146 -1.59344,0.32146c-11.29066,-8.12552 -24.32226,-13.4305 -36.45791,-19.88017c-5.51273,-2.92983 -10.98957,-5.78119 -16.6542,-8.3383l-0.52596,-0.23742c0,0 -1.0734,-0.48453 -0.65228,-1.62117z" data-paper-data="{&quot;index&quot;:null}" fill="#75dbff" fill-rule="nonzero" stroke="none" stroke-width="0" stroke-linecap="butt"/><path d="M387.6301,86.17208c1.08499,0.45188 0.69475,1.60189 0.69475,1.60189l-0.41916,1.22784c-4.55703,9.44762 -10.72032,17.53007 -15.93674,26.50063c-7.17059,12.33113 -13.97926,25.24294 -22.23273,36.71707c0,0 -0.69602,0.96299 -1.61531,0.18877c-0.91929,-0.7742 -0.22328,-1.73715 -0.22328,-1.73715c8.25081,-11.35478 14.98139,-24.27025 22.10411,-36.5191c5.15966,-8.87295 11.26673,-16.86334 15.78754,-26.19731l0.36557,-1.08445c0,0 0.39026,-1.14999 1.47531,-0.69813z" data-paper-data="{&quot;index&quot;:null}" fill="#75dbff" fill-rule="nonzero" stroke="none" stroke-width="0" stroke-linecap="butt"/><path d="M320.28144,219.09014c-0.78794,-3.3482 -2.36029,-5.86643 -3.66078,-9.06943c-1.87514,-4.61836 -0.69842,-10.37154 1.57516,-14.52525c1.92894,-2.07618 4.14723,-2.93847 6.45054,-4.43698c5.88188,-3.8267 11.62476,-5.25631 18.25065,-7.29819c9.58903,-1.94065 20.37744,-4.18075 29.95496,-1.00816c9.54359,3.18463 10.31393,13.2454 10.81102,21.84344c0,0 0.04286,0.74879 -0.70592,0.79163c-0.74878,0.04287 -0.79163,-0.70592 -0.79163,-0.70592c-0.44722,-7.88899 -0.93487,-17.59309 -9.78543,-20.50533c-9.2956,-3.08322 -19.8074,-0.83307 -29.1129,1.03798c-6.46481,2.00118 -12.04919,3.34846 -17.78401,7.08949c-2.14606,1.39997 -4.26834,2.15425 -6.06959,4.06796c-1.96573,3.68989 -3.13994,9.03466 -1.38898,13.12101c1.47158,3.43435 3.10352,6.16125 3.8537,9.8797l-0.86045,0.9387c0,0 -0.73519,0.14832 -0.88351,-0.58687c-0.06009,-0.29786 0.02484,-0.49941 0.14716,-0.63377z" data-paper-data="{&quot;index&quot;:null}" fill="#75dbff" fill-rule="nonzero" stroke="none" stroke-width="0.5" stroke-linecap="butt"/></g><path d="M-115.34052,370.32225l-23.70304,-30.41145l49.64222,-46.95886l-38.01431,-60.8229l44.72272,-47.96512l-37.11986,-68.31395l50.53667,-50.76029l-30.41145,-50.08945l42.93381,-54.04293l-22.80859,-25.49195" data-paper-data="{&quot;index&quot;:null}" fill="none" fill-rule="nonzero" stroke="#deff00" stroke-width="9.5" stroke-linecap="round"/><path d="M-68.58175,378.82384l-23.70304,-30.41145l49.64222,-46.95886l-38.01431,-60.8229l44.72272,-47.96512l-37.11986,-68.31395l50.53667,-50.76029l-30.41145,-50.08945l42.93381,-54.04293l-22.80859,-25.49195" data-paper-data="{&quot;index&quot;:null}" fill="none" fill-rule="nonzero" stroke="#deff00" stroke-width="9.5" stroke-linecap="round"/><path d="M384.12813,390.51353l-23.70304,-30.41145l49.64222,-46.95886l-38.01431,-60.8229l44.72271,-47.96511l-37.11986,-68.31395l50.53667,-50.76028l-30.41145,-50.08945l42.93381,-54.04293l-22.80859,-25.49195" data-paper-data="{&quot;index&quot;:null}" fill="none" fill-rule="nonzero" stroke="#deff00" stroke-width="9.5" stroke-linecap="round"/><path d="M430.8869,399.01513l-23.70304,-30.41145l49.64221,-46.95885l-38.01431,-60.8229l44.72272,-47.96512l-37.11986,-68.31395l50.53667,-50.76029l-30.41145,-50.08944l42.93381,-54.04293l-22.80858,-25.49195" data-paper-data="{&quot;index&quot;:null}" fill="none" fill-rule="nonzero" stroke="#deff00" stroke-width="9.5" stroke-linecap="round"/></g></g></svg>