<svg version="1.1" xmlns="http://www.w3.org/2000/svg" xmlns:xlink="http://www.w3.org/1999/xlink" width="684.26836" height="278.07602" viewBox="0,0,684.26836,278.07602"><g transform="translate(1.11169,-84.71835)"><g stroke-miterlimit="10"><g stroke-width="1"><path d="M412.87627,324.72699l-19.58158,-30.15918l93.01263,0.2669l33.28872,29.89229z" fill="#cedce9" stroke="#000000" stroke-linecap="round"/><path d="M528.44331,323.1597c-2.51736,0.33059 -4.99216,0.51974 -7.44223,0.65614c0.01657,0.05078 0.02517,0.10376 0.02517,0.159c0,1.34605 -5.12503,1.34606 -5.12503,1.34606c-22.6357,0 -45.27133,0 -67.90704,0c-5.82482,0 -20.31847,-0.61068 -24.61451,0.19442c-2.4746,0.46373 -4.24621,0.41784 -7.41709,0.47861c-0.35796,0.00687 -1.0089,0.02155 -1.58404,0.03056c3.06613,0.5749 1.58404,5.88778 1.58404,7.37282c0,6.28166 0,12.5633 0,18.84496c0,1.12169 0,2.24348 0,3.36517c0,0.44869 -0.90139,1.72722 0,1.34605c3.42944,-1.45008 10.1222,-0.67042 17.93771,-0.67303c15.40608,-0.00512 31.89996,-0.43784 47.03112,0.2901c27.63052,1.45139 57.33777,-0.8675 84.7478,0.74957c23.0855,1.51582 50.72006,1.65241 74.50455,1.65241c5.97929,0 11.95848,0 17.93776,0c0.89963,0 2.31218,-0.03183 3.77464,-0.06671c-1.47115,-0.69052 0.06919,-2.36037 0.06919,-3.29848c0,-3.50455 4.47275,-9.54987 -1.01823,-12.6985c-4.85239,-3.82337 -7.92195,-7.50453 -15.83727,-11.31757c-5.84015,-2.81341 -14.93159,-5.30724 -19.76373,-8.10193c-2.34262,-1.66562 -4.4398,-0.47521 -12.06871,-0.8607c-16.88085,-0.85298 -33.8115,-0.67303 -51.25057,-0.67303c-6.35667,0 -14.3401,0.33898 -20.5003,0c-1.30035,-0.07155 -3.74421,-0.33754 -5.57598,-0.55539c3.35046,0.67984 -4.29474,1.33749 -7.50723,1.75937zM447.99398,322.62873c17.10732,0 34.21471,0 51.322,0c0.49354,-0.06481 0.9869,-0.1296 1.48038,-0.19442c6.50025,-0.85363 12.36884,-0.62741 17.93775,-1.00955c7.5893,-0.52076 12.12882,-2.27465 19.95918,-2.69214c4.49823,-0.2398 16.95688,0.53093 23.33327,0.53093c17.28983,0 34.5607,-0.25966 51.25055,0.67304c9.37568,0.52396 17.29928,-0.49749 21.68384,2.61997c0.64637,1.18421 5.81971,1.92437 8.52552,2.83535c4.13514,1.39218 7.59135,3.45403 10.79113,4.99544c7.93231,3.82123 11.42007,7.75151 16.39348,11.6702c4.44451,4.13061 1.54425,9.25275 1.54425,13.54984c0,2.37569 1.42556,4.05008 -5.12504,6.05732c-2.28434,0.69995 -23.38758,0 -26.90653,0c-24.53263,0 -53.19724,-0.17052 -76.9906,-1.73283c-26.13912,-2.00671 -57.25385,0.69777 -84.27204,-0.72147c-21.77233,-1.28802 -55.37873,2.14318 -73.20866,-2.25694c-1.76524,-0.43565 0,-3.99394 0,-4.71124c0,-6.28166 0,-12.56328 0,-18.84494c0,-2.10017 -3.52484,-7.1145 1.8224,-8.67842c9.33139,-2.7292 26.79517,-2.09015 40.45923,-2.09015z" fill="#000000" stroke="none" stroke-linecap="butt"/><path d="M520.92963,323.75121c2.44998,-0.13639 4.95466,-0.32733 7.4721,-0.65792c3.21254,-0.42187 10.88806,-1.08033 7.53753,-1.76017c1.83178,0.21785 4.296,0.48381 5.59622,0.55538c6.16019,0.33898 14.21508,0.00337 20.57164,0.00337c17.43895,0 34.47955,-0.16105 51.36036,0.69189c7.62889,0.38548 9.74198,-0.79982 12.08457,0.8658c4.83221,2.79467 13.96197,5.30856 19.80223,8.12198c7.91532,3.81305 10.99536,7.51975 15.84779,11.34313c5.4911,3.14864 0.99422,9.21724 0.99422,12.7218c0,0.93811 -1.54989,2.61271 -0.07871,3.30323c-1.4624,0.03488 -2.87688,0.06756 -3.77659,0.06756c-5.97927,0 -11.96891,0.00423 -17.94819,0.00423c-23.78468,0 -51.5314,-0.11316 -74.6169,-1.62898c-27.41006,-1.61705 -57.38883,0.68878 -85.01938,-0.76262c-15.13112,-0.72796 -31.67166,-0.3106 -47.07775,-0.30549c-7.81545,0.00261 -14.51432,-0.77993 -17.94374,0.67014c-0.90139,0.38113 -0.00387,-0.89941 -0.00387,-1.34808c0,-1.12169 -0.00875,-2.24888 -0.00875,-3.37061c0,-6.28166 -0.01069,-12.60066 -0.01069,-18.88232c0,-1.48501 1.49766,-6.81079 -1.5685,-7.38572c0.57524,-0.00903 1.22674,-0.02404 1.58465,-0.03091c3.17079,-0.06074 4.94641,-0.0171 7.42095,-0.48085c4.29607,-0.80508 18.8029,-0.20068 24.6277,-0.20068c22.63578,0 45.39206,-0.02676 68.02769,-0.02676c0,0 5.15019,-0.0023 5.15019,-1.34837c0,-0.05525 -0.00797,-0.10826 -0.02459,-0.15905z" fill="#484848" stroke="none" stroke-linecap="butt"/><path d="M592.77702,328.68605c0,-0.15608 -0.071,-0.41748 -0.13884,-0.67427c-0.26396,0.1042 -0.65776,0.19308 -1.16413,0.26861c-1.51846,0.40566 -3.82215,0.40566 -3.82215,0.40566c-19.52138,0 -30.7966,3.57338 -37.69769,7.33234c-0.81188,0.42647 -0.74014,0.94029 -0.74014,1.41711c0,0.13567 -0.04938,0.35126 -0.10335,0.57427c0.05163,-0.0718 0.18046,-0.13079 0.44279,-0.16865c1.1592,-0.16734 11.23656,0.85669 12.47315,0.26744c0.37162,-0.17711 -1.82278,-0.21045 -1.70176,-0.41012c1.48853,-2.45506 17.2749,-6.16853 25.0351,-7.18765c2.01265,-0.26434 4.2784,-0.39732 6.53081,-0.4582c-0.88061,-0.36021 0.88619,-0.91155 0.88619,-1.36647zM549.08365,338.12114c-0.11623,0.47855 -0.21938,0.93597 0.13038,0.6604c0.23908,-0.18833 -0.10608,-0.45272 -0.13038,-0.6604zM540.78636,334.81442c7.32479,-3.62674 17.06655,-6.93358 32.24785,-8.23516c1.42606,-0.58533 4.36768,-0.58534 4.36768,-0.58534h2.56251c5.80237,0 8.87214,-0.53092 15.10467,-0.53092c8.65547,0 10.66183,4.52034 6.13572,5.84414c-2.85613,0.83535 -7.43749,1.10942 -11.26081,1.61154c-11.31723,1.4862 -15.51644,5.75698 -27.91725,7.88199c-13.1433,2.25221 -27.61307,-2.63877 -21.24033,-5.98624z" fill="#000000" stroke="none" stroke-linecap="butt"/><path d="M592.82856,327.96667c0.06801,0.25679 0.15082,0.52191 0.15082,0.678c0,0.45491 -1.7458,1.01456 -0.86518,1.37478c-2.25244,0.0609 -4.53116,0.18842 -6.54389,0.45274c-7.76029,1.01909 -23.62281,4.71373 -25.11131,7.16877c-0.12116,0.19972 1.82989,0.35128 1.45824,0.52838c-1.23659,0.58924 -11.40129,-0.45249 -12.5605,-0.28517c-0.26243,0.03789 -0.39004,0.09722 -0.44158,0.16905c0.05396,-0.22303 0.09389,-0.44172 0.09389,-0.57738c0,-0.47679 -0.09407,-1 0.71778,-1.42645c6.90103,-3.75898 18.58327,-7.41138 38.10462,-7.41138c0,0 2.31413,0.0029 3.83259,-0.40276c0.50641,-0.07557 0.90038,-0.16436 1.16423,-0.26858z" fill="#ffffff" stroke="none" stroke-linecap="butt"/></g><path d="M152.43728,321.72698l33.28871,-45.34609l93.01264,-0.40488l-19.58158,45.75095z" fill="#cedce9" stroke="#000000" stroke-width="1" stroke-linecap="round"/><path d="M143.58998,320.1596c-3.21249,-0.42188 -10.85769,-1.07953 -7.50723,-1.75937c-1.83177,0.21785 -4.27563,0.48384 -5.57598,0.55539c-6.16019,0.33898 -14.14363,0 -20.5003,0c-17.43907,0 -34.36972,-0.17995 -51.25057,0.67303c-7.62891,0.38549 -9.72609,-0.80492 -12.06871,0.8607c-4.83214,2.79469 -13.92358,5.28852 -19.76373,8.10193c-7.91532,3.81304 -10.98488,7.49421 -15.83726,11.31757c-5.49098,3.14863 -1.01823,9.19394 -1.01823,12.6985c0,0.93811 1.54034,2.60796 0.06918,3.29848c1.46246,0.03488 2.87502,0.06671 3.77464,0.06671c5.97928,0 11.95847,0 17.93776,0c23.7845,0 51.41905,-0.13659 74.50455,-1.65241c27.41003,-1.61707 57.11728,0.70182 84.74781,-0.74957c15.13116,-0.72794 31.62504,-0.29522 47.03112,-0.2901c7.81551,0.00261 14.50827,-0.77705 17.93771,0.67303c0.90139,0.38116 0,-0.89736 0,-1.34605c0,-1.12169 0,-2.24348 0,-3.36517c0,-6.28166 0,-12.5633 0,-18.84496c0,-1.48504 -1.48209,-6.79792 1.58405,-7.37282c-0.57515,-0.00901 -1.22609,-0.0237 -1.58405,-0.03056c-3.17088,-0.06077 -4.94248,-0.01487 -7.41709,-0.47861c-4.29603,-0.8051 -18.78969,-0.19442 -24.61451,-0.19442c-22.6357,0 -45.27134,0 -67.90704,0c0,0 -5.12503,0 -5.12503,-1.34606c0,-0.05524 0.0086,-0.10822 0.02517,-0.159c-2.45006,-0.13639 -4.92487,-0.32555 -7.44223,-0.65614zM224.03924,319.62868c13.66406,0 31.12784,-0.63904 40.45923,2.09015c5.34724,1.56392 1.8224,6.57824 1.8224,8.67842c0,6.28166 0,12.56329 0,18.84494c0,0.7173 1.76524,4.27558 0,4.71124c-17.82994,4.40012 -51.43633,0.96892 -73.20866,2.25694c-27.01819,1.41924 -58.13292,-1.28523 -84.27204,0.72147c-23.79336,1.56232 -52.45798,1.73283 -76.9906,1.73283c-3.51895,0 -24.62219,0.69995 -26.90653,0c-6.55059,-2.00724 -5.12503,-3.68163 -5.12503,-6.05732c0,-4.29709 -2.90026,-9.41923 1.54425,-13.54984c4.97341,-3.91868 8.46118,-7.84897 16.39348,-11.6702c3.19978,-1.54141 6.65599,-3.60326 10.79113,-4.99544c2.7058,-0.91098 7.87915,-1.65113 8.52552,-2.83535c4.38455,-3.11746 12.30816,-2.09601 21.68384,-2.61997c16.68986,-0.9327 33.96073,-0.67304 51.25056,-0.67304c6.37639,0 18.83503,-0.77073 23.33326,-0.53093c7.83036,0.41749 12.36988,2.17138 19.95918,2.69214c5.56891,0.38214 11.4375,0.15592 17.93775,1.00955c0.49347,0.06482 0.98684,0.12961 1.48038,0.19442c17.10729,0 34.21468,0 51.322,0z" fill="#000000" stroke="none" stroke-width="1" stroke-linecap="butt"/><path d="M151.1035,320.75119c-0.01662,0.05079 -0.02459,0.1038 -0.02459,0.15905c0,1.34607 5.15019,1.34837 5.15019,1.34837c22.63564,0 45.39191,0.02676 68.02769,0.02676c5.82479,0 20.33162,-0.6044 24.62769,0.20068c2.47455,0.46375 4.25017,0.42011 7.42096,0.48085c0.35791,0.00687 1.00941,0.02188 1.58465,0.03091c-3.06616,0.57493 -1.5685,5.9007 -1.5685,7.38572c0,6.28166 -0.01069,12.60067 -0.01069,18.88232c0,1.12173 -0.00875,2.24892 -0.00875,3.37061c0,0.44867 0.89751,1.72922 -0.00387,1.34808c-3.42942,-1.45008 -10.12829,-0.66753 -17.94374,-0.67014c-15.40609,-0.00511 -31.94663,-0.42247 -47.07775,0.30549c-27.63055,1.45141 -57.60933,-0.85443 -85.01939,0.76262c-23.0855,1.51582 -50.83222,1.62898 -74.6169,1.62898c-5.97928,0 -11.96892,-0.00423 -17.94819,-0.00423c-0.89971,0 -2.31419,-0.03267 -3.7766,-0.06756c1.47118,-0.69052 -0.07871,-2.36512 -0.07871,-3.30323c0,-3.50456 -4.49688,-9.57316 0.99422,-12.7218c4.85243,-3.82338 7.93247,-7.53008 15.84779,-11.34313c5.84027,-2.81342 14.97003,-5.32731 19.80223,-8.12198c2.3426,-1.66562 4.45568,-0.48032 12.08457,-0.8658c16.88081,-0.85294 33.9214,-0.69189 51.36035,-0.69189c6.35656,0 14.41145,0.33561 20.57164,-0.00337c1.30022,-0.07157 3.76444,-0.33753 5.59622,-0.55538c-3.35052,0.67984 4.325,1.3383 7.53753,1.76017c2.51745,0.33059 5.02212,0.52153 7.4721,0.65792z" fill="#484848" stroke="none" stroke-width="1" stroke-linecap="butt"/><path d="M79.25629,325.6861c0,0.45492 1.7668,1.00626 0.88619,1.36647c2.25241,0.06088 4.51816,0.19386 6.53082,0.4582c7.76019,1.01911 23.54657,4.73259 25.0351,7.18765c0.12102,0.19968 -2.07339,0.23301 -1.70177,0.41012c1.23659,0.58925 11.31395,-0.43478 12.47316,-0.26744c0.26233,0.03786 0.39116,0.09685 0.44279,0.16865c-0.05397,-0.22301 -0.10335,-0.4386 -0.10335,-0.57427c0,-0.47681 0.07175,-0.99063 -0.74013,-1.41711c-6.90108,-3.75896 -18.17632,-7.33234 -37.69769,-7.33234c0,0 -2.30369,0 -3.82215,-0.40566c-0.50637,-0.07554 -0.90017,-0.16442 -1.16413,-0.26861c-0.06784,0.2568 -0.13884,0.51819 -0.13884,0.67427zM122.81929,335.78153c0.34976,0.27557 0.24661,-0.18185 0.13038,-0.6604c-0.0243,0.20768 -0.36946,0.47207 -0.13038,0.6604zM131.24694,331.81444c6.37274,3.34746 -8.09703,8.23844 -21.24034,5.98624c-12.40081,-2.125 -16.60001,-6.39579 -27.91724,-7.88199c-3.82332,-0.50212 -8.40469,-0.77619 -11.26081,-1.61154c-4.52612,-1.3238 -2.51975,-5.84414 6.13571,-5.84414c6.23252,0 9.3023,0.53092 15.10466,0.53092h2.56251c0,0 2.94163,0.00001 4.36769,0.58534c15.1813,1.30158 24.92306,4.60842 32.24785,8.23516z" fill="#000000" stroke="none" stroke-width="1" stroke-linecap="butt"/><path d="M79.20502,324.96668c0.26385,0.10422 0.65782,0.19301 1.16423,0.26858c1.51846,0.40566 3.83259,0.40276 3.83259,0.40276c19.52135,0 31.20359,3.6524 38.10462,7.41138c0.81185,0.42645 0.71778,0.94966 0.71778,1.42645c0,0.13565 0.03993,0.35435 0.09389,0.57738c-0.05154,-0.07183 -0.17916,-0.13117 -0.44159,-0.16905c-1.15921,-0.16732 -11.3239,0.87441 -12.5605,0.28517c-0.37166,-0.1771 1.57939,-0.32866 1.45824,-0.52838c-1.4885,-2.45504 -17.35102,-6.14968 -25.1113,-7.16877c-2.01273,-0.26433 -4.29144,-0.39184 -6.54389,-0.45274c0.88062,-0.36023 -0.86518,-0.91987 -0.86518,-1.37478c0,-0.15609 0.08281,-0.42121 0.15082,-0.678z" fill="#ffffff" stroke="none" stroke-width="1" stroke-linecap="butt"/><g><path d="M44.74247,284.20227l13.13552,-141.69709l110.96008,22.44601l14.29805,-7.4766l2.8234,-31.76407l54.69809,4.70556l-0.35999,-4.53874l110.39498,1.36066l-2.01592,18.91163l308.67399,-1.76283l-28.84903,217.86418l-269.67773,-25.65274l-31.84317,-20.552z" fill="#7d767e" stroke="#000000" stroke-width="1" stroke-linecap="round"/><path d="M348.80997,138.96832l333.58345,-5.2256l-4.49352,10.49062l-329.72943,2.26117z" fill="#dcdcda" stroke="#000000" stroke-width="1" stroke-linecap="round"/><path d="M366.08537,127.30876l-125.59089,-1.29287l-0.50398,4.72792l-62.97194,-5.58752l-5.08086,-10.38614l62.67546,8.36863l-0.11153,-4.23097l134.30026,-0.59148z" fill="#dcdcda" stroke="#000000" stroke-width="1" stroke-linecap="round"/><path d="M183.22319,157.53113l-15.10275,7.10952l-128.63325,-25.5253l0.14398,-9.26663l124.55263,28.18432l19.71912,-10.83653z" fill="#dcdcda" stroke="#000000" stroke-width="1" stroke-linecap="round"/><path d="M230.85402,128.92607l39.43129,39.08101l-16.39133,140.57653l-87.89474,-11.90074l16.40157,-140.0129z" fill="#ae9d87" stroke="#000000" stroke-width="1" stroke-linecap="round"/><path d="M181.32331,299.37112l13.41403,-122.54089l0.71151,-6.6747l57.68074,10.36766l-15.32445,125.29059z" fill="#414548" stroke="#000000" stroke-width="1" stroke-linecap="round"/><path d="M188.44075,227.98347l35.59835,3.79467l-8.29804,64.6519l-33.62193,-3.86526z" fill="#60646f" stroke="#000000" stroke-width="1" stroke-linecap="round"/><path d="M187.06588,293.65463l8.69475,-65.7347l29.08319,4.22527l-9.99636,64.75214z" fill="#00ffe6" stroke="#000000" stroke-width="1" stroke-linecap="round"/><path d="M188.36312,231.35048l4.44978,0.47433l-4.1956,28.80508l-3.27805,-0.91198z" fill="#00ffe6" stroke="#000000" stroke-width="1" stroke-linecap="round"/><path d="M194.70381,174.50619l33.31416,4.11371l-4.34663,43.41515l-33.53298,-4.6996z" fill="#00ffe6" stroke="#000000" stroke-width="1" stroke-linecap="round"/><path d="M262.24212,230.92818l54.94762,6.98233l-9.26227,63.14277l-53.21965,-7.36067z" fill="#00ffe6" stroke="#000000" stroke-width="1" stroke-linecap="round"/><path d="M357.67646,337.01503l26.5815,-191.31471l274.62899,-1.66542l-30.56959,218.173z" fill="#ae9d87" stroke="#000000" stroke-width="1" stroke-linecap="round"/><path d="M398.05459,340.82697l12.77885,-80.30055l98.94864,11.11013l-12.78028,77.67518z" fill="#f0f0ed" stroke="#000000" stroke-width="1" stroke-linecap="round"/><path d="M398.34259,340.7639l12.10547,-76.62203l87.8538,9.64619l-11.40101,75.29076z" fill="#00ffe6" stroke="#000000" stroke-width="1" stroke-linecap="round"/><path d="M502.80228,349.64879l13.42543,-78.45024l96.07858,11.64801l-12.93981,76.5331z" fill="#f0f0ed" stroke="#000000" stroke-width="1" stroke-linecap="round"/><path d="M515.81267,275.09214l83.87128,10.06548l-13.81508,74.18962l-83.68212,-9.2015z" fill="#00ffe6" stroke="#000000" stroke-width="1" stroke-linecap="round"/><path d="M183.31985,148.04849l49.64647,-25.08525l47.30033,44.42017l-5.43939,6.17071l-43.62559,-44.59102l-48.70062,29.40517z" fill="#dcdcda" stroke="#000000" stroke-width="1" stroke-linecap="round"/><path d="M75.65317,175.15278l88.87729,10.5991l-8.70175,89.54835l-86.46323,-9.49796l8.14799,-89.63082z" fill="#00ffe6" stroke="#000000" stroke-width="1" stroke-linecap="round"/><path d="M242.9037,85.08435c0.46828,-0.67639 1.14466,-0.20811 1.14466,-0.20811l0.91356,0.63246c6.82361,4.72402 13.12885,9.69416 19.42292,15.1023c8.72887,7.50026 16.39225,16.18496 24.96011,23.89025c7.08464,6.37141 13.50154,13.94735 21.51166,19.06276c0,0 0.69268,0.44383 0.24884,1.13651c-0.44383,0.69268 -1.13651,0.24884 -1.13651,0.24884c-8.0825,-5.19793 -14.56216,-12.78369 -21.72421,-19.22472c-8.55844,-7.69684 -16.21325,-16.374 -24.93217,-23.86571c-6.25177,-5.37181 -12.50953,-10.30528 -19.28716,-14.99746l-0.91356,-0.63246c0,0 -0.67639,-0.46828 -0.20811,-1.14466z" fill="#000000" stroke="none" stroke-width="0.5" stroke-linecap="butt"/><path d="M387.11297,107.30032c0.28855,0.77041 -0.48186,1.05896 -0.48186,1.05896l-0.60451,0.22642c-4.06476,1.52153 -8.05159,3.35896 -11.89176,5.37521c-10.17958,5.34473 -20.07712,11.05505 -29.65504,17.42584c-3.20134,2.12938 -6.35681,4.36074 -9.61812,6.3967c-4.63975,2.89648 -9.94761,4.80755 -14.4321,7.89235c0,0 -0.67785,0.46616 -1.14402,-0.21168c-0.46616,-0.67785 0.21168,-1.14402 0.21168,-1.14402c4.51397,-3.10355 9.84395,-5.02562 14.50989,-7.94267c3.24112,-2.02629 6.37858,-4.24355 9.56141,-6.36062c9.62513,-6.40219 19.57161,-12.14156 29.80142,-17.51264c3.90101,-2.04819 7.95097,-3.91204 12.07951,-5.45926l0.60451,-0.22642c0,0 0.77041,-0.28855 1.05896,0.48186z" fill="#000000" stroke="none" stroke-width="0.5" stroke-linecap="butt"/><path d="M282.18241,208.84016c-0.49718,-0.05299 -0.44418,-0.55019 -0.44418,-0.55019l0.02222,-0.17206c-0.01419,-0.783 -0.00322,-1.51657 -0.2029,-2.27532c-1.88895,-7.38886 -1.90512,-12.39977 2.9556,-18.66064c4.48799,-5.08802 11.92529,-4.3082 18.10688,-5.08659c6.05324,-0.93214 14.29004,-0.59867 19.97919,1.80381c6.59096,2.79252 10.4,7.23588 13.95499,13.18597c1.48958,5.47768 1.83591,11.70598 0.00434,17.15758c0,0 -0.15959,0.47384 -0.63345,0.31426c-0.47384,-0.15959 -0.31426,-0.63345 -0.31426,-0.63345c1.76501,-5.22685 1.39809,-11.18674 0.02303,-16.44726c-3.48888,-5.7187 -7.0394,-9.95145 -13.42477,-12.65632c-5.49546,-2.33621 -13.6037,-2.652 -19.45051,-1.73425c-5.84389,0.72045 -13.24132,-0.07782 -17.47494,4.73363c-4.64832,5.99235 -4.60162,10.70491 -2.75787,17.77334c0.21358,0.84164 0.21874,1.64188 0.23447,2.50706l-0.02769,0.2962c0,0 -0.05299,0.49718 -0.55019,0.44418z" fill="#000000" stroke="none" stroke-width="0.5" stroke-linecap="butt"/><path d="M285.33715,169.74918c0.05299,-0.49718 0.55019,-0.44418 0.55019,-0.44418l0.04664,0.03132c3.38337,-0.75298 6.89349,-0.71313 10.34541,-0.87091c0.43877,-0.02006 0.93032,-0.06419 1.4102,-0.05783c-1.01621,-0.95766 -1.90049,-2.18264 -2.6635,-3.19265c-2.1264,-2.81464 -4.32421,-5.56099 -6.5401,-8.30567c-3.56763,-4.419 -7.97876,-7.76108 -11.50263,-12.12584c0,0 -0.31408,-0.38904 0.07495,-0.70312c0.38903,-0.3141 0.70312,0.07495 0.70312,0.07495c3.52135,4.36164 7.93516,7.70708 11.50263,12.12584c2.22263,2.75304 4.42733,5.50769 6.55996,8.33108c1.02183,1.35279 2.39931,3.41627 3.97571,4.09554l0.59204,0.27006c0.1965,0.08415 0.32401,0.28903 0.30016,0.51269c-0.02927,0.27458 -0.27559,0.47345 -0.55019,0.44418c-0.03694,-0.00394 -0.07251,-0.01179 -0.10632,-0.02313l-0.94442,-0.29587l0.0002,-0.00062c-4.3192,-0.0326 -8.68128,-0.25035 -12.93998,0.69744l-0.36986,-0.01307c0,0 -0.49718,-0.05299 -0.44418,-0.55019z" fill="#000000" stroke="none" stroke-width="0.5" stroke-linecap="butt"/><path d="M336.11013,172.96664c-0.17199,0.46949 -0.64148,0.29748 -0.64148,0.29748l-0.78632,-0.28878c-0.63448,-0.16012 -1.26888,-0.32046 -1.90323,-0.48102c-5.84989,-1.48078 -12.82711,-1.86135 -18.48645,-4.11539l-0.01234,0.04727l-0.96026,-0.25041c-0.2398,-0.05833 -0.40528,-0.28663 -0.37839,-0.53875c0.01464,-0.13728 0.08354,-0.25566 0.1831,-0.33603v0l0.46088,-0.37209l0.00927,0.01149l0.03059,-0.04055c1.77223,-0.91431 3.74431,-1.50187 5.57316,-2.45819c5.42042,-2.83437 9.86297,-7.21087 16.35988,-7.10993c0,0 0.49993,0.00777 0.49217,0.5077c-0.00777,0.49993 -0.5077,0.49218 -0.5077,0.49218c-6.27823,-0.09754 -10.63562,4.25338 -15.88096,6.99621c-1.59308,0.83303 -3.36986,1.37816 -4.94558,2.13426c5.12291,-0.55151 13.56487,2.86246 18.30798,4.06277c0.65103,0.16478 1.30202,0.32977 1.95295,0.49497l0.83524,0.30529c0,0 0.46949,0.17198 0.29748,0.64148z" fill="#000000" stroke="none" stroke-width="0.5" stroke-linecap="butt"/></g></g></g></svg>