<svg version="1.1" xmlns="http://www.w3.org/2000/svg" xmlns:xlink="http://www.w3.org/1999/xlink" width="694.69411" height="325.94796" viewBox="0,0,694.69411,325.94796"><g transform="translate(22.51902,-33.0278)"><g stroke-miterlimit="10"><g stroke-width="1"><path d="M411.90633,308.23814l-19.58158,-30.15918l93.01263,0.2669l33.28872,29.89229z" fill="#cedce9" stroke="#000000" stroke-linecap="round"/><path d="M527.47337,306.67085c-2.51736,0.33059 -4.99216,0.51974 -7.44223,0.65614c0.01657,0.05078 0.02517,0.10376 0.02517,0.159c0,1.34605 -5.12503,1.34606 -5.12503,1.34606c-22.6357,0 -45.27133,0 -67.90704,0c-5.82482,0 -20.31847,-0.61068 -24.61451,0.19442c-2.4746,0.46373 -4.24621,0.41784 -7.41709,0.47861c-0.35796,0.00687 -1.0089,0.02155 -1.58404,0.03056c3.06613,0.5749 1.58404,5.88778 1.58404,7.37282c0,6.28166 0,12.5633 0,18.84496c0,1.12169 0,2.24348 0,3.36517c0,0.44869 -0.90139,1.72722 0,1.34605c3.42944,-1.45008 10.1222,-0.67042 17.93771,-0.67303c15.40608,-0.00512 31.89996,-0.43784 47.03112,0.2901c27.63052,1.45139 57.33777,-0.8675 84.7478,0.74957c23.0855,1.51582 50.72006,1.65241 74.50455,1.65241c5.97929,0 11.95848,0 17.93776,0c0.89963,0 2.31218,-0.03183 3.77464,-0.06671c-1.47115,-0.69052 0.06919,-2.36037 0.06919,-3.29848c0,-3.50455 4.47275,-9.54987 -1.01823,-12.6985c-4.85239,-3.82337 -7.92195,-7.50453 -15.83727,-11.31757c-5.84015,-2.81341 -14.93159,-5.30724 -19.76373,-8.10193c-2.34262,-1.66562 -4.4398,-0.47521 -12.06871,-0.8607c-16.88085,-0.85298 -33.8115,-0.67303 -51.25057,-0.67303c-6.35667,0 -14.3401,0.33898 -20.5003,0c-1.30035,-0.07155 -3.74421,-0.33754 -5.57598,-0.55539c3.35046,0.67984 -4.29474,1.33749 -7.50723,1.75937zM447.02404,306.13988c17.10732,0 34.21471,0 51.322,0c0.49354,-0.06481 0.9869,-0.1296 1.48038,-0.19442c6.50025,-0.85363 12.36884,-0.62741 17.93775,-1.00955c7.5893,-0.52076 12.12882,-2.27465 19.95918,-2.69214c4.49823,-0.2398 16.95688,0.53093 23.33327,0.53093c17.28983,0 34.5607,-0.25966 51.25055,0.67304c9.37568,0.52396 17.29928,-0.49749 21.68384,2.61997c0.64637,1.18421 5.81971,1.92437 8.52552,2.83535c4.13514,1.39218 7.59135,3.45403 10.79113,4.99544c7.93231,3.82123 11.42007,7.75151 16.39348,11.6702c4.44451,4.13061 1.54425,9.25275 1.54425,13.54984c0,2.37569 1.42556,4.05008 -5.12504,6.05732c-2.28434,0.69995 -23.38758,0 -26.90653,0c-24.53263,0 -53.19724,-0.17052 -76.9906,-1.73283c-26.13912,-2.00671 -57.25385,0.69777 -84.27204,-0.72147c-21.77233,-1.28802 -55.37873,2.14318 -73.20866,-2.25694c-1.76524,-0.43565 0,-3.99394 0,-4.71124c0,-6.28166 0,-12.56328 0,-18.84494c0,-2.10017 -3.52484,-7.1145 1.8224,-8.67842c9.33139,-2.7292 26.79517,-2.09015 40.45923,-2.09015z" fill="#000000" stroke="none" stroke-linecap="butt"/><path d="M519.95969,307.26236c2.44998,-0.13639 4.95466,-0.32733 7.4721,-0.65792c3.21254,-0.42187 10.88806,-1.08033 7.53753,-1.76017c1.83178,0.21785 4.296,0.48381 5.59622,0.55538c6.16019,0.33898 14.21508,0.00337 20.57164,0.00337c17.43895,0 34.47955,-0.16105 51.36036,0.69189c7.62889,0.38548 9.74198,-0.79982 12.08457,0.8658c4.83221,2.79467 13.96197,5.30856 19.80223,8.12198c7.91532,3.81305 10.99536,7.51975 15.84779,11.34313c5.4911,3.14864 0.99422,9.21724 0.99422,12.7218c0,0.93811 -1.54989,2.61271 -0.07871,3.30323c-1.4624,0.03488 -2.87688,0.06756 -3.77659,0.06756c-5.97927,0 -11.96891,0.00423 -17.94819,0.00423c-23.78468,0 -51.5314,-0.11316 -74.6169,-1.62898c-27.41006,-1.61705 -57.38883,0.68878 -85.01938,-0.76262c-15.13112,-0.72796 -31.67166,-0.3106 -47.07775,-0.30549c-7.81545,0.00261 -14.51432,-0.77993 -17.94374,0.67014c-0.90139,0.38113 -0.00387,-0.89941 -0.00387,-1.34808c0,-1.12169 -0.00875,-2.24888 -0.00875,-3.37061c0,-6.28166 -0.01069,-12.60066 -0.01069,-18.88232c0,-1.48501 1.49766,-6.81079 -1.5685,-7.38572c0.57524,-0.00903 1.22674,-0.02404 1.58465,-0.03091c3.17079,-0.06074 4.94641,-0.0171 7.42095,-0.48085c4.29607,-0.80508 18.8029,-0.20068 24.6277,-0.20068c22.63578,0 45.39206,-0.02676 68.02769,-0.02676c0,0 5.15019,-0.0023 5.15019,-1.34837c0,-0.05525 -0.00797,-0.10826 -0.02459,-0.15905z" fill="#484848" stroke="none" stroke-linecap="butt"/><path d="M591.80708,312.1972c0,-0.15608 -0.071,-0.41748 -0.13884,-0.67427c-0.26396,0.1042 -0.65776,0.19308 -1.16413,0.26861c-1.51846,0.40566 -3.82215,0.40566 -3.82215,0.40566c-19.52138,0 -30.7966,3.57338 -37.69769,7.33234c-0.81188,0.42647 -0.74014,0.94029 -0.74014,1.41711c0,0.13567 -0.04938,0.35126 -0.10335,0.57427c0.05163,-0.0718 0.18046,-0.13079 0.44279,-0.16865c1.1592,-0.16734 11.23656,0.85669 12.47315,0.26744c0.37162,-0.17711 -1.82278,-0.21045 -1.70176,-0.41012c1.48853,-2.45506 17.2749,-6.16853 25.0351,-7.18765c2.01265,-0.26434 4.2784,-0.39732 6.53081,-0.4582c-0.88061,-0.36021 0.88619,-0.91155 0.88619,-1.36647zM548.11371,321.63229c-0.11623,0.47855 -0.21938,0.93597 0.13038,0.6604c0.23908,-0.18833 -0.10608,-0.45272 -0.13038,-0.6604zM539.81642,318.32557c7.32479,-3.62674 17.06655,-6.93358 32.24785,-8.23516c1.42606,-0.58533 4.36768,-0.58534 4.36768,-0.58534h2.56251c5.80237,0 8.87214,-0.53092 15.10467,-0.53092c8.65547,0 10.66183,4.52034 6.13572,5.84414c-2.85613,0.83535 -7.43749,1.10942 -11.26081,1.61154c-11.31723,1.4862 -15.51644,5.75698 -27.91725,7.88199c-13.1433,2.25221 -27.61307,-2.63877 -21.24033,-5.98624z" fill="#000000" stroke="none" stroke-linecap="butt"/><path d="M591.85862,311.47782c0.06801,0.25679 0.15082,0.52191 0.15082,0.678c0,0.45491 -1.7458,1.01456 -0.86518,1.37478c-2.25244,0.0609 -4.53116,0.18842 -6.54389,0.45274c-7.76029,1.01909 -23.62281,4.71373 -25.11131,7.16877c-0.12116,0.19972 1.82989,0.35128 1.45824,0.52838c-1.23659,0.58924 -11.40129,-0.45249 -12.5605,-0.28517c-0.26243,0.03789 -0.39004,0.09722 -0.44158,0.16905c0.05396,-0.22303 0.09389,-0.44172 0.09389,-0.57738c0,-0.47679 -0.09407,-1 0.71778,-1.42645c6.90103,-3.75898 18.58327,-7.41138 38.10462,-7.41138c0,0 2.31413,0.0029 3.83259,-0.40276c0.50641,-0.07557 0.90038,-0.16436 1.16423,-0.26858z" fill="#ffffff" stroke="none" stroke-linecap="butt"/></g><path d="M152.43728,321.72698l33.28871,-45.34609l93.01264,-0.40488l-19.58158,45.75095z" fill="#cedce9" stroke="#000000" stroke-width="1" stroke-linecap="round"/><path d="M143.58998,320.1596c-3.21249,-0.42188 -10.85769,-1.07953 -7.50723,-1.75937c-1.83177,0.21785 -4.27563,0.48384 -5.57598,0.55539c-6.16019,0.33898 -14.14363,0 -20.5003,0c-17.43907,0 -34.36972,-0.17995 -51.25057,0.67303c-7.62891,0.38549 -9.72609,-0.80492 -12.06871,0.8607c-4.83214,2.79469 -13.92358,5.28852 -19.76373,8.10193c-7.91532,3.81304 -10.98488,7.49421 -15.83726,11.31757c-5.49098,3.14863 -1.01823,9.19394 -1.01823,12.6985c0,0.93811 1.54034,2.60796 0.06918,3.29848c1.46246,0.03488 2.87502,0.06671 3.77464,0.06671c5.97928,0 11.95847,0 17.93776,0c23.7845,0 51.41905,-0.13659 74.50455,-1.65241c27.41003,-1.61707 57.11728,0.70182 84.74781,-0.74957c15.13116,-0.72794 31.62504,-0.29522 47.03112,-0.2901c7.81551,0.00261 14.50827,-0.77705 17.93771,0.67303c0.90139,0.38116 0,-0.89736 0,-1.34605c0,-1.12169 0,-2.24348 0,-3.36517c0,-6.28166 0,-12.5633 0,-18.84496c0,-1.48504 -1.48209,-6.79792 1.58405,-7.37282c-0.57515,-0.00901 -1.22609,-0.0237 -1.58405,-0.03056c-3.17088,-0.06077 -4.94248,-0.01487 -7.41709,-0.47861c-4.29603,-0.8051 -18.78969,-0.19442 -24.61451,-0.19442c-22.6357,0 -45.27134,0 -67.90704,0c0,0 -5.12503,0 -5.12503,-1.34606c0,-0.05524 0.0086,-0.10822 0.02517,-0.159c-2.45006,-0.13639 -4.92487,-0.32555 -7.44223,-0.65614zM224.03924,319.62868c13.66406,0 31.12784,-0.63904 40.45923,2.09015c5.34724,1.56392 1.8224,6.57824 1.8224,8.67842c0,6.28166 0,12.56329 0,18.84494c0,0.7173 1.76524,4.27558 0,4.71124c-17.82994,4.40012 -51.43633,0.96892 -73.20866,2.25694c-27.01819,1.41924 -58.13292,-1.28523 -84.27204,0.72147c-23.79336,1.56232 -52.45798,1.73283 -76.9906,1.73283c-3.51895,0 -24.62219,0.69995 -26.90653,0c-6.55059,-2.00724 -5.12503,-3.68163 -5.12503,-6.05732c0,-4.29709 -2.90026,-9.41923 1.54425,-13.54984c4.97341,-3.91868 8.46118,-7.84897 16.39348,-11.6702c3.19978,-1.54141 6.65599,-3.60326 10.79113,-4.99544c2.7058,-0.91098 7.87915,-1.65113 8.52552,-2.83535c4.38455,-3.11746 12.30816,-2.09601 21.68384,-2.61997c16.68986,-0.9327 33.96073,-0.67304 51.25056,-0.67304c6.37639,0 18.83503,-0.77073 23.33326,-0.53093c7.83036,0.41749 12.36988,2.17138 19.95918,2.69214c5.56891,0.38214 11.4375,0.15592 17.93775,1.00955c0.49347,0.06482 0.98684,0.12961 1.48038,0.19442c17.10729,0 34.21468,0 51.322,0z" fill="#000000" stroke="none" stroke-width="1" stroke-linecap="butt"/><path d="M151.1035,320.75119c-0.01662,0.05079 -0.02459,0.1038 -0.02459,0.15905c0,1.34607 5.15019,1.34837 5.15019,1.34837c22.63564,0 45.39191,0.02676 68.02769,0.02676c5.82479,0 20.33162,-0.6044 24.62769,0.20068c2.47455,0.46375 4.25017,0.42011 7.42096,0.48085c0.35791,0.00687 1.00941,0.02188 1.58465,0.03091c-3.06616,0.57493 -1.5685,5.9007 -1.5685,7.38572c0,6.28166 -0.01069,12.60067 -0.01069,18.88232c0,1.12173 -0.00875,2.24892 -0.00875,3.37061c0,0.44867 0.89751,1.72922 -0.00387,1.34808c-3.42942,-1.45008 -10.12829,-0.66753 -17.94374,-0.67014c-15.40609,-0.00511 -31.94663,-0.42247 -47.07775,0.30549c-27.63055,1.45141 -57.60933,-0.85443 -85.01939,0.76262c-23.0855,1.51582 -50.83222,1.62898 -74.6169,1.62898c-5.97928,0 -11.96892,-0.00423 -17.94819,-0.00423c-0.89971,0 -2.31419,-0.03267 -3.7766,-0.06756c1.47118,-0.69052 -0.07871,-2.36512 -0.07871,-3.30323c0,-3.50456 -4.49688,-9.57316 0.99422,-12.7218c4.85243,-3.82338 7.93247,-7.53008 15.84779,-11.34313c5.84027,-2.81342 14.97003,-5.32731 19.80223,-8.12198c2.3426,-1.66562 4.45568,-0.48032 12.08457,-0.8658c16.88081,-0.85294 33.9214,-0.69189 51.36035,-0.69189c6.35656,0 14.41145,0.33561 20.57164,-0.00337c1.30022,-0.07157 3.76444,-0.33753 5.59622,-0.55538c-3.35052,0.67984 4.325,1.3383 7.53753,1.76017c2.51745,0.33059 5.02212,0.52153 7.4721,0.65792z" fill="#484848" stroke="none" stroke-width="1" stroke-linecap="butt"/><path d="M79.25629,325.6861c0,0.45492 1.7668,1.00626 0.88619,1.36647c2.25241,0.06088 4.51816,0.19386 6.53082,0.4582c7.76019,1.01911 23.54657,4.73259 25.0351,7.18765c0.12102,0.19968 -2.07339,0.23301 -1.70177,0.41012c1.23659,0.58925 11.31395,-0.43478 12.47316,-0.26744c0.26233,0.03786 0.39116,0.09685 0.44279,0.16865c-0.05397,-0.22301 -0.10335,-0.4386 -0.10335,-0.57427c0,-0.47681 0.07175,-0.99063 -0.74013,-1.41711c-6.90108,-3.75896 -18.17632,-7.33234 -37.69769,-7.33234c0,0 -2.30369,0 -3.82215,-0.40566c-0.50637,-0.07554 -0.90017,-0.16442 -1.16413,-0.26861c-0.06784,0.2568 -0.13884,0.51819 -0.13884,0.67427zM122.81929,335.78153c0.34976,0.27557 0.24661,-0.18185 0.13038,-0.6604c-0.0243,0.20768 -0.36946,0.47207 -0.13038,0.6604zM131.24694,331.81444c6.37274,3.34746 -8.09703,8.23844 -21.24034,5.98624c-12.40081,-2.125 -16.60001,-6.39579 -27.91724,-7.88199c-3.82332,-0.50212 -8.40469,-0.77619 -11.26081,-1.61154c-4.52612,-1.3238 -2.51975,-5.84414 6.13571,-5.84414c6.23252,0 9.3023,0.53092 15.10466,0.53092h2.56251c0,0 2.94163,0.00001 4.36769,0.58534c15.1813,1.30158 24.92306,4.60842 32.24785,8.23516z" fill="#000000" stroke="none" stroke-width="1" stroke-linecap="butt"/><path d="M79.20502,324.96668c0.26385,0.10422 0.65782,0.19301 1.16423,0.26858c1.51846,0.40566 3.83259,0.40276 3.83259,0.40276c19.52135,0 31.20359,3.6524 38.10462,7.41138c0.81185,0.42645 0.71778,0.94966 0.71778,1.42645c0,0.13565 0.03993,0.35435 0.09389,0.57738c-0.05154,-0.07183 -0.17916,-0.13117 -0.44159,-0.16905c-1.15921,-0.16732 -11.3239,0.87441 -12.5605,0.28517c-0.37166,-0.1771 1.57939,-0.32866 1.45824,-0.52838c-1.4885,-2.45504 -17.35102,-6.14968 -25.1113,-7.16877c-2.01273,-0.26433 -4.29144,-0.39184 -6.54389,-0.45274c0.88062,-0.36023 -0.86518,-0.91987 -0.86518,-1.37478c0,-0.15609 0.08281,-0.42121 0.15082,-0.678z" fill="#ffffff" stroke="none" stroke-width="1" stroke-linecap="butt"/><g><path d="M21.30254,337.45559l-22.37843,-140.53403l113.06183,-5.74331l12.00005,-10.78576l-5.13394,-31.47333l54.15869,-8.9922l-1.47321,-4.30806l107.2906,-26.03134l2.73215,18.8215l298.61459,-78.17969l26.02464,218.21958l-267.62603,41.95773l-35.9421,-12.02238z" fill="#7d767e" stroke="#000000" stroke-width="1" stroke-linecap="round"/><path d="M279.91029,121.4186l321.88964,-87.70565l-1.75447,11.27682l-318.89019,83.87883z" fill="#dcdcda" stroke="#000000" stroke-width="1" stroke-linecap="round"/><path d="M293.75856,105.84266l-121.996,29.86169l0.68304,4.70539l-62.3931,10.18752l-7.49556,-8.80361l62.79488,-7.41966l-1.15625,-4.07144l129.96702,-33.84498z" fill="#dcdcda" stroke="#000000" stroke-width="1" stroke-linecap="round"/><path d="M124.08434,180.42569l-12.8706,10.62949l-130.94693,7.13841l-2.15625,-9.01342l127.65227,-3.55134l16.41972,-15.38398z" fill="#dcdcda" stroke="#000000" stroke-width="1" stroke-linecap="round"/><path d="M163.14363,140.91217l47.8841,28.09387l18.9465,140.255l-88.10302,10.24556l-18.79695,-139.71148z" fill="#ae9d87" stroke="#000000" stroke-width="1" stroke-linecap="round"/><path d="M157.38355,318.31461l-17.36279,-122.044l-0.96428,-6.64289l58.45111,-4.24554l16.19314,125.18128z" fill="#414548" stroke="#000000" stroke-width="1" stroke-linecap="round"/><path d="M146.59333,247.38912l35.42871,-5.14287l7.9777,64.69221l-33.53138,4.58484z" fill="#60646f" stroke="#000000" stroke-width="1" stroke-linecap="round"/><path d="M161.53089,311.35365l-7.86162,-65.83954l29.22333,-3.11161l6.35716,65.21008z" fill="#00ffe6" stroke="#000000" stroke-width="1" stroke-linecap="round"/><path d="M147.35227,250.6704l4.42858,-0.64286l3.07145,28.94654l-3.4018,-0.07144z" fill="#00ffe6" stroke="#000000" stroke-width="1" stroke-linecap="round"/><path d="M139.41252,194.02732l33.29476,-4.26788l6.54467,43.13856l-33.65191,3.75447z" fill="#00ffe6" stroke="#000000" stroke-width="1" stroke-linecap="round"/><path d="M218.82352,231.95827l54.96449,-6.84823l6.66965,63.469l-53.38412,6.05359z" fill="#00ffe6" stroke="#000000" stroke-width="1" stroke-linecap="round"/><path d="M337.56505,311.09474l-21.64403,-191.936l265.65505,-69.6509l24.43422,218.94504z" fill="#ae9d87" stroke="#000000" stroke-width="1" stroke-linecap="round"/><path d="M377.62881,304.78446l-7.51342,-80.96311l98.61646,-13.75005l6.86162,78.41994z" fill="#f0f0ed" stroke="#000000" stroke-width="1" stroke-linecap="round"/><path d="M377.8922,304.652l-7.25448,-77.23244l87.5048,-12.41968l7.60717,75.76815z" fill="#00ffe6" stroke="#000000" stroke-width="1" stroke-linecap="round"/><path d="M481.29662,287.38076l-6.42859,-79.33067l95.96912,-12.5179l6.42412,77.35298z" fill="#f0f0ed" stroke="#000000" stroke-width="1" stroke-linecap="round"/><path d="M475.43053,211.92512l83.75031,-11.02683l4.99555,75.2994l-83.353,11.817z" fill="#00ffe6" stroke="#000000" stroke-width="1" stroke-linecap="round"/><path d="M121.82874,171.21472l41.88409,-36.60281l56.83057,31.31708l-3.74107,7.32592l-53.31271,-32.39299l-39.89749,40.55372z" fill="#dcdcda" stroke="#000000" stroke-width="1" stroke-linecap="round"/><path d="M24.23338,224.14772l88.73247,-11.75004l13.7545,88.91255l-86.12086,12.21879l-14.31143,-88.85525z" fill="#00ffe6" stroke="#000000" stroke-width="1" stroke-linecap="round"/><path d="M163.95619,95.45195c0.28611,-0.77132 1.05742,-0.48521 1.05742,-0.48521l1.04177,0.38642c7.78123,2.88625 15.12123,6.13937 22.55891,9.81961c10.31489,5.10392 19.89095,11.61934 30.10064,16.9618c8.44226,4.41761 16.536,10.16764 25.56372,13.13913c0,0 0.78104,0.25839 0.52265,1.03943c-0.25839,0.78104 -1.03943,0.52265 -1.03943,0.52265c-9.11828,-3.0335 -17.27527,-8.7775 -25.80977,-13.24338c-10.19847,-5.3366 -19.76436,-11.84683 -30.06749,-16.94494c-7.3877,-3.65551 -14.67262,-6.88487 -22.40141,-9.75166l-1.04177,-0.38642c0,0 -0.77132,-0.28611 -0.48521,-1.05742z" fill="#000000" stroke="none" stroke-width="0.5" stroke-linecap="butt"/><path d="M309.1737,81.24853c0.47042,0.67491 -0.20448,1.14533 -0.20448,1.14533l-0.52957,0.36912c-3.5611,2.48111 -6.96843,5.24897 -10.18937,8.15374c-8.53812,7.70003 -16.71242,15.68439 -24.41344,24.22944c-2.574,2.85611 -5.0783,5.79966 -7.73354,8.58011c-3.77753,3.95565 -8.44647,7.12213 -12.02691,11.22176c0,0 -0.54123,0.61956 -1.1608,0.07834c-0.61956,-0.54123 -0.07834,-1.1608 -0.07834,-1.1608c3.60437,-4.1251 8.29201,-7.30772 12.08981,-11.28979c2.63808,-2.76609 5.12842,-5.69151 7.68755,-8.53111c7.73898,-8.58716 15.9535,-16.61178 24.53375,-24.34979c3.27198,-2.95079 6.73393,-5.75988 10.35045,-8.28169l0.52957,-0.36912c0,0 0.67491,-0.47042 1.14533,0.20448z" fill="#000000" stroke="none" stroke-width="0.5" stroke-linecap="butt"/><path d="M232.67004,205.61875c-0.49481,0.07183 -0.56664,-0.42299 -0.56664,-0.42299l-0.0211,-0.1722c-0.20773,-0.75507 -0.37884,-1.4685 -0.76027,-2.15412c-3.6606,-6.69055 -4.91769,-11.54123 -1.75958,-18.81114c3.08756,-6.04128 10.4862,-7.1283 16.28224,-9.41387c5.6336,-2.40273 13.69624,-4.12027 19.80324,-3.20213c7.07732,1.0726 11.86842,4.43379 16.78669,9.31765c2.8002,4.93789 4.67875,10.88622 4.25487,16.62163c0,0 -0.03722,0.49861 -0.53584,0.46139c-0.49861,-0.03722 -0.46139,-0.53584 -0.46139,-0.53584c0.41507,-5.50117 -1.41693,-11.18437 -4.05238,-15.94023c-4.79689,-4.67607 -9.28535,-7.89726 -16.14177,-8.93588c-5.90292,-0.90192 -13.83663,0.80089 -19.2738,3.13855c-5.48322,2.14578 -12.84781,3.20505 -15.75745,8.91536c-3.01885,6.95713 -1.8061,11.51121 1.73133,17.90252c0.41543,0.76249 0.61868,1.5365 0.84826,2.37081l0.04656,0.29383c0,0 0.07183,0.49481 -0.42299,0.56664z" fill="#000000" stroke="none" stroke-width="0.5" stroke-linecap="butt"/><path d="M226.04192,166.96483c-0.07183,-0.49481 0.42299,-0.56664 0.42299,-0.56664l0.05294,0.01879c3.09136,-1.56771 6.50192,-2.39871 9.80714,-3.40676c0.42012,-0.12813 0.88542,-0.29267 1.35191,-0.4054c-1.22178,-0.67605 -2.38198,-1.64377 -3.37143,-2.43326c-2.75742,-2.2001 -5.5671,-4.31634 -8.39389,-6.42648c-4.55119,-3.39738 -9.65278,-5.54245 -14.14813,-8.89813c0,0 -0.40068,-0.2991 -0.10158,-0.69977c0.29909,-0.40068 0.69977,-0.10158 0.69977,-0.10158c4.49214,3.35328 9.59716,5.50094 14.14813,8.89813c2.83539,2.11657 5.6538,4.23915 8.41943,6.44618c1.32512,1.05747 3.17087,2.71536 4.86641,2.98291l0.64049,0.11497c0.21122,0.03284 0.38551,0.19975 0.41782,0.42234c0.03967,0.27328 -0.14971,0.52697 -0.42299,0.56664c-0.03676,0.00534 -0.07317,0.00654 -0.10874,0.00393l-0.98827,-0.05268l0.00004,-0.00065c-4.19263,1.03847 -8.47268,1.90818 -12.3638,3.88148l-0.36156,0.07897c0,0 -0.49481,0.07183 -0.56664,-0.42299z" fill="#000000" stroke="none" stroke-width="0.5" stroke-linecap="butt"/><path d="M276.0292,157.50335c-0.05032,0.49746 -0.54779,0.44713 -0.54779,0.44713l-0.83335,-0.08497c-0.65436,0.00206 -1.30872,0.00388 -1.96307,0.00549c-6.03437,0.01465 -12.88838,1.37451 -18.92971,0.5928l-0.00024,0.04886l-0.99236,-0.0047c-0.24678,0.0029 -0.46365,-0.17729 -0.50007,-0.42821c-0.01983,-0.13663 0.0176,-0.26839 0.09414,-0.37092v0l0.35433,-0.47467l0.01183,0.00883l0.01959,-0.04686c1.49047,-1.32487 3.25551,-2.38268 4.79042,-3.76226c4.54925,-4.08888 7.76906,-9.42956 14.08844,-10.94133c0,0 0.48627,-0.11633 0.6026,0.36994c0.11633,0.48627 -0.36994,0.60261 -0.36994,0.60261c-6.10668,1.46089 -9.25032,6.75568 -13.65262,10.7125c-1.33704,1.20173 -2.92338,2.17005 -4.26266,3.29296c4.82658,-1.80348 13.85114,-0.58738 18.74377,-0.59956c0.67156,-0.00165 1.34313,-0.00307 2.0147,-0.00429l0.88484,0.08885c0,0 0.49746,0.05031 0.44713,0.54779z" fill="#000000" stroke="none" stroke-width="0.5" stroke-linecap="butt"/></g></g></g></svg>