<svg version="1.1" xmlns="http://www.w3.org/2000/svg" xmlns:xlink="http://www.w3.org/1999/xlink" width="693.51722" height="275.75234" viewBox="0,0,693.51722,275.75234"><g transform="translate(20.37219,-86.22345)"><g stroke-miterlimit="10"><g stroke-width="1"><path d="M412.87627,324.72699l-19.58158,-30.15918l93.01263,0.2669l33.28872,29.89229z" fill="#cedce9" stroke="#000000" stroke-linecap="round"/><path d="M528.44331,323.1597c-2.51736,0.33059 -4.99216,0.51974 -7.44223,0.65614c0.01657,0.05078 0.02517,0.10376 0.02517,0.159c0,1.34605 -5.12503,1.34606 -5.12503,1.34606c-22.6357,0 -45.27133,0 -67.90704,0c-5.82482,0 -20.31847,-0.61068 -24.61451,0.19442c-2.4746,0.46373 -4.24621,0.41784 -7.41709,0.47861c-0.35796,0.00687 -1.0089,0.02155 -1.58404,0.03056c3.06613,0.5749 1.58404,5.88778 1.58404,7.37282c0,6.28166 0,12.5633 0,18.84496c0,1.12169 0,2.24348 0,3.36517c0,0.44869 -0.90139,1.72722 0,1.34605c3.42944,-1.45008 10.1222,-0.67042 17.93771,-0.67303c15.40608,-0.00512 31.89996,-0.43784 47.03112,0.2901c27.63052,1.45139 57.33777,-0.8675 84.7478,0.74957c23.0855,1.51582 50.72006,1.65241 74.50455,1.65241c5.97929,0 11.95848,0 17.93776,0c0.89963,0 2.31218,-0.03183 3.77464,-0.06671c-1.47115,-0.69052 0.06919,-2.36037 0.06919,-3.29848c0,-3.50455 4.47275,-9.54987 -1.01823,-12.6985c-4.85239,-3.82337 -7.92195,-7.50453 -15.83727,-11.31757c-5.84015,-2.81341 -14.93159,-5.30724 -19.76373,-8.10193c-2.34262,-1.66562 -4.4398,-0.47521 -12.06871,-0.8607c-16.88085,-0.85298 -33.8115,-0.67303 -51.25057,-0.67303c-6.35667,0 -14.3401,0.33898 -20.5003,0c-1.30035,-0.07155 -3.74421,-0.33754 -5.57598,-0.55539c3.35046,0.67984 -4.29474,1.33749 -7.50723,1.75937zM447.99398,322.62873c17.10732,0 34.21471,0 51.322,0c0.49354,-0.06481 0.9869,-0.1296 1.48038,-0.19442c6.50025,-0.85363 12.36884,-0.62741 17.93775,-1.00955c7.5893,-0.52076 12.12882,-2.27465 19.95918,-2.69214c4.49823,-0.2398 16.95688,0.53093 23.33327,0.53093c17.28983,0 34.5607,-0.25966 51.25055,0.67304c9.37568,0.52396 17.29928,-0.49749 21.68384,2.61997c0.64637,1.18421 5.81971,1.92437 8.52552,2.83535c4.13514,1.39218 7.59135,3.45403 10.79113,4.99544c7.93231,3.82123 11.42007,7.75151 16.39348,11.6702c4.44451,4.13061 1.54425,9.25275 1.54425,13.54984c0,2.37569 1.42556,4.05008 -5.12504,6.05732c-2.28434,0.69995 -23.38758,0 -26.90653,0c-24.53263,0 -53.19724,-0.17052 -76.9906,-1.73283c-26.13912,-2.00671 -57.25385,0.69777 -84.27204,-0.72147c-21.77233,-1.28802 -55.37873,2.14318 -73.20866,-2.25694c-1.76524,-0.43565 0,-3.99394 0,-4.71124c0,-6.28166 0,-12.56328 0,-18.84494c0,-2.10017 -3.52484,-7.1145 1.8224,-8.67842c9.33139,-2.7292 26.79517,-2.09015 40.45923,-2.09015z" fill="#000000" stroke="none" stroke-linecap="butt"/><path d="M520.92963,323.75121c2.44998,-0.13639 4.95466,-0.32733 7.4721,-0.65792c3.21254,-0.42187 10.88806,-1.08033 7.53753,-1.76017c1.83178,0.21785 4.296,0.48381 5.59622,0.55538c6.16019,0.33898 14.21508,0.00337 20.57164,0.00337c17.43895,0 34.47955,-0.16105 51.36036,0.69189c7.62889,0.38548 9.74198,-0.79982 12.08457,0.8658c4.83221,2.79467 13.96197,5.30856 19.80223,8.12198c7.91532,3.81305 10.99536,7.51975 15.84779,11.34313c5.4911,3.14864 0.99422,9.21724 0.99422,12.7218c0,0.93811 -1.54989,2.61271 -0.07871,3.30323c-1.4624,0.03488 -2.87688,0.06756 -3.77659,0.06756c-5.97927,0 -11.96891,0.00423 -17.94819,0.00423c-23.78468,0 -51.5314,-0.11316 -74.6169,-1.62898c-27.41006,-1.61705 -57.38883,0.68878 -85.01938,-0.76262c-15.13112,-0.72796 -31.67166,-0.3106 -47.07775,-0.30549c-7.81545,0.00261 -14.51432,-0.77993 -17.94374,0.67014c-0.90139,0.38113 -0.00387,-0.89941 -0.00387,-1.34808c0,-1.12169 -0.00875,-2.24888 -0.00875,-3.37061c0,-6.28166 -0.01069,-12.60066 -0.01069,-18.88232c0,-1.48501 1.49766,-6.81079 -1.5685,-7.38572c0.57524,-0.00903 1.22674,-0.02404 1.58465,-0.03091c3.17079,-0.06074 4.94641,-0.0171 7.42095,-0.48085c4.29607,-0.80508 18.8029,-0.20068 24.6277,-0.20068c22.63578,0 45.39206,-0.02676 68.02769,-0.02676c0,0 5.15019,-0.0023 5.15019,-1.34837c0,-0.05525 -0.00797,-0.10826 -0.02459,-0.15905z" fill="#484848" stroke="none" stroke-linecap="butt"/><path d="M592.77702,328.68605c0,-0.15608 -0.071,-0.41748 -0.13884,-0.67427c-0.26396,0.1042 -0.65776,0.19308 -1.16413,0.26861c-1.51846,0.40566 -3.82215,0.40566 -3.82215,0.40566c-19.52138,0 -30.7966,3.57338 -37.69769,7.33234c-0.81188,0.42647 -0.74014,0.94029 -0.74014,1.41711c0,0.13567 -0.04938,0.35126 -0.10335,0.57427c0.05163,-0.0718 0.18046,-0.13079 0.44279,-0.16865c1.1592,-0.16734 11.23656,0.85669 12.47315,0.26744c0.37162,-0.17711 -1.82278,-0.21045 -1.70176,-0.41012c1.48853,-2.45506 17.2749,-6.16853 25.0351,-7.18765c2.01265,-0.26434 4.2784,-0.39732 6.53081,-0.4582c-0.88061,-0.36021 0.88619,-0.91155 0.88619,-1.36647zM549.08365,338.12114c-0.11623,0.47855 -0.21938,0.93597 0.13038,0.6604c0.23908,-0.18833 -0.10608,-0.45272 -0.13038,-0.6604zM540.78636,334.81442c7.32479,-3.62674 17.06655,-6.93358 32.24785,-8.23516c1.42606,-0.58533 4.36768,-0.58534 4.36768,-0.58534h2.56251c5.80237,0 8.87214,-0.53092 15.10467,-0.53092c8.65547,0 10.66183,4.52034 6.13572,5.84414c-2.85613,0.83535 -7.43749,1.10942 -11.26081,1.61154c-11.31723,1.4862 -15.51644,5.75698 -27.91725,7.88199c-13.1433,2.25221 -27.61307,-2.63877 -21.24033,-5.98624z" fill="#000000" stroke="none" stroke-linecap="butt"/><path d="M592.82856,327.96667c0.06801,0.25679 0.15082,0.52191 0.15082,0.678c0,0.45491 -1.7458,1.01456 -0.86518,1.37478c-2.25244,0.0609 -4.53116,0.18842 -6.54389,0.45274c-7.76029,1.01909 -23.62281,4.71373 -25.11131,7.16877c-0.12116,0.19972 1.82989,0.35128 1.45824,0.52838c-1.23659,0.58924 -11.40129,-0.45249 -12.5605,-0.28517c-0.26243,0.03789 -0.39004,0.09722 -0.44158,0.16905c0.05396,-0.22303 0.09389,-0.44172 0.09389,-0.57738c0,-0.47679 -0.09407,-1 0.71778,-1.42645c6.90103,-3.75898 18.58327,-7.41138 38.10462,-7.41138c0,0 2.31413,0.0029 3.83259,-0.40276c0.50641,-0.07557 0.90038,-0.16436 1.16423,-0.26858z" fill="#ffffff" stroke="none" stroke-linecap="butt"/></g><path d="M152.43728,321.72698l33.28871,-45.34609l93.01264,-0.40488l-19.58158,45.75095z" fill="#cedce9" stroke="#000000" stroke-width="1" stroke-linecap="round"/><path d="M143.58998,320.1596c-3.21249,-0.42188 -10.85769,-1.07953 -7.50723,-1.75937c-1.83177,0.21785 -4.27563,0.48384 -5.57598,0.55539c-6.16019,0.33898 -14.14363,0 -20.5003,0c-17.43907,0 -34.36972,-0.17995 -51.25057,0.67303c-7.62891,0.38549 -9.72609,-0.80492 -12.06871,0.8607c-4.83214,2.79469 -13.92358,5.28852 -19.76373,8.10193c-7.91532,3.81304 -10.98488,7.49421 -15.83726,11.31757c-5.49098,3.14863 -1.01823,9.19394 -1.01823,12.6985c0,0.93811 1.54034,2.60796 0.06918,3.29848c1.46246,0.03488 2.87502,0.06671 3.77464,0.06671c5.97928,0 11.95847,0 17.93776,0c23.7845,0 51.41905,-0.13659 74.50455,-1.65241c27.41003,-1.61707 57.11728,0.70182 84.74781,-0.74957c15.13116,-0.72794 31.62504,-0.29522 47.03112,-0.2901c7.81551,0.00261 14.50827,-0.77705 17.93771,0.67303c0.90139,0.38116 0,-0.89736 0,-1.34605c0,-1.12169 0,-2.24348 0,-3.36517c0,-6.28166 0,-12.5633 0,-18.84496c0,-1.48504 -1.48209,-6.79792 1.58405,-7.37282c-0.57515,-0.00901 -1.22609,-0.0237 -1.58405,-0.03056c-3.17088,-0.06077 -4.94248,-0.01487 -7.41709,-0.47861c-4.29603,-0.8051 -18.78969,-0.19442 -24.61451,-0.19442c-22.6357,0 -45.27134,0 -67.90704,0c0,0 -5.12503,0 -5.12503,-1.34606c0,-0.05524 0.0086,-0.10822 0.02517,-0.159c-2.45006,-0.13639 -4.92487,-0.32555 -7.44223,-0.65614zM224.03924,319.62868c13.66406,0 31.12784,-0.63904 40.45923,2.09015c5.34724,1.56392 1.8224,6.57824 1.8224,8.67842c0,6.28166 0,12.56329 0,18.84494c0,0.7173 1.76524,4.27558 0,4.71124c-17.82994,4.40012 -51.43633,0.96892 -73.20866,2.25694c-27.01819,1.41924 -58.13292,-1.28523 -84.27204,0.72147c-23.79336,1.56232 -52.45798,1.73283 -76.9906,1.73283c-3.51895,0 -24.62219,0.69995 -26.90653,0c-6.55059,-2.00724 -5.12503,-3.68163 -5.12503,-6.05732c0,-4.29709 -2.90026,-9.41923 1.54425,-13.54984c4.97341,-3.91868 8.46118,-7.84897 16.39348,-11.6702c3.19978,-1.54141 6.65599,-3.60326 10.79113,-4.99544c2.7058,-0.91098 7.87915,-1.65113 8.52552,-2.83535c4.38455,-3.11746 12.30816,-2.09601 21.68384,-2.61997c16.68986,-0.9327 33.96073,-0.67304 51.25056,-0.67304c6.37639,0 18.83503,-0.77073 23.33326,-0.53093c7.83036,0.41749 12.36988,2.17138 19.95918,2.69214c5.56891,0.38214 11.4375,0.15592 17.93775,1.00955c0.49347,0.06482 0.98684,0.12961 1.48038,0.19442c17.10729,0 34.21468,0 51.322,0z" fill="#000000" stroke="none" stroke-width="1" stroke-linecap="butt"/><path d="M151.1035,320.75119c-0.01662,0.05079 -0.02459,0.1038 -0.02459,0.15905c0,1.34607 5.15019,1.34837 5.15019,1.34837c22.63564,0 45.39191,0.02676 68.02769,0.02676c5.82479,0 20.33162,-0.6044 24.62769,0.20068c2.47455,0.46375 4.25017,0.42011 7.42096,0.48085c0.35791,0.00687 1.00941,0.02188 1.58465,0.03091c-3.06616,0.57493 -1.5685,5.9007 -1.5685,7.38572c0,6.28166 -0.01069,12.60067 -0.01069,18.88232c0,1.12173 -0.00875,2.24892 -0.00875,3.37061c0,0.44867 0.89751,1.72922 -0.00387,1.34808c-3.42942,-1.45008 -10.12829,-0.66753 -17.94374,-0.67014c-15.40609,-0.00511 -31.94663,-0.42247 -47.07775,0.30549c-27.63055,1.45141 -57.60933,-0.85443 -85.01939,0.76262c-23.0855,1.51582 -50.83222,1.62898 -74.6169,1.62898c-5.97928,0 -11.96892,-0.00423 -17.94819,-0.00423c-0.89971,0 -2.31419,-0.03267 -3.7766,-0.06756c1.47118,-0.69052 -0.07871,-2.36512 -0.07871,-3.30323c0,-3.50456 -4.49688,-9.57316 0.99422,-12.7218c4.85243,-3.82338 7.93247,-7.53008 15.84779,-11.34313c5.84027,-2.81342 14.97003,-5.32731 19.80223,-8.12198c2.3426,-1.66562 4.45568,-0.48032 12.08457,-0.8658c16.88081,-0.85294 33.9214,-0.69189 51.36035,-0.69189c6.35656,0 14.41145,0.33561 20.57164,-0.00337c1.30022,-0.07157 3.76444,-0.33753 5.59622,-0.55538c-3.35052,0.67984 4.325,1.3383 7.53753,1.76017c2.51745,0.33059 5.02212,0.52153 7.4721,0.65792z" fill="#484848" stroke="none" stroke-width="1" stroke-linecap="butt"/><path d="M79.25629,325.6861c0,0.45492 1.7668,1.00626 0.88619,1.36647c2.25241,0.06088 4.51816,0.19386 6.53082,0.4582c7.76019,1.01911 23.54657,4.73259 25.0351,7.18765c0.12102,0.19968 -2.07339,0.23301 -1.70177,0.41012c1.23659,0.58925 11.31395,-0.43478 12.47316,-0.26744c0.26233,0.03786 0.39116,0.09685 0.44279,0.16865c-0.05397,-0.22301 -0.10335,-0.4386 -0.10335,-0.57427c0,-0.47681 0.07175,-0.99063 -0.74013,-1.41711c-6.90108,-3.75896 -18.17632,-7.33234 -37.69769,-7.33234c0,0 -2.30369,0 -3.82215,-0.40566c-0.50637,-0.07554 -0.90017,-0.16442 -1.16413,-0.26861c-0.06784,0.2568 -0.13884,0.51819 -0.13884,0.67427zM122.81929,335.78153c0.34976,0.27557 0.24661,-0.18185 0.13038,-0.6604c-0.0243,0.20768 -0.36946,0.47207 -0.13038,0.6604zM131.24694,331.81444c6.37274,3.34746 -8.09703,8.23844 -21.24034,5.98624c-12.40081,-2.125 -16.60001,-6.39579 -27.91724,-7.88199c-3.82332,-0.50212 -8.40469,-0.77619 -11.26081,-1.61154c-4.52612,-1.3238 -2.51975,-5.84414 6.13571,-5.84414c6.23252,0 9.3023,0.53092 15.10466,0.53092h2.56251c0,0 2.94163,0.00001 4.36769,0.58534c15.1813,1.30158 24.92306,4.60842 32.24785,8.23516z" fill="#000000" stroke="none" stroke-width="1" stroke-linecap="butt"/><path d="M79.20502,324.96668c0.26385,0.10422 0.65782,0.19301 1.16423,0.26858c1.51846,0.40566 3.83259,0.40276 3.83259,0.40276c19.52135,0 31.20359,3.6524 38.10462,7.41138c0.81185,0.42645 0.71778,0.94966 0.71778,1.42645c0,0.13565 0.03993,0.35435 0.09389,0.57738c-0.05154,-0.07183 -0.17916,-0.13117 -0.44159,-0.16905c-1.15921,-0.16732 -11.3239,0.87441 -12.5605,0.28517c-0.37166,-0.1771 1.57939,-0.32866 1.45824,-0.52838c-1.4885,-2.45504 -17.35102,-6.14968 -25.1113,-7.16877c-2.01273,-0.26433 -4.29144,-0.39184 -6.54389,-0.45274c0.88062,-0.36023 -0.86518,-0.91987 -0.86518,-1.37478c0,-0.15609 0.08281,-0.42121 0.15082,-0.678z" fill="#ffffff" stroke="none" stroke-width="1" stroke-linecap="butt"/><g><path d="M4.22635,314.482l-4.37178,-142.23746l112.8771,8.64429l13.27123,-9.17651l-1.10027,-31.87032l54.86184,-2.04987l-0.91486,-4.46013l109.7259,-12.21191l0.32269,19.01603l306.11921,-39.67076l-1.8654,219.75802l-270.78641,7.67209l-34.12682,-16.48431z" fill="#7d767e" stroke="#000000" stroke-width="1" stroke-linecap="round"/><path d="M288.14822,132.99283l330.41457,-46.16748l-3.17069,10.96319l-326.95393,42.75203z" fill="#dcdcda" stroke="#000000" stroke-width="1" stroke-linecap="round"/><path d="M303.86035,119.29927l-124.79837,14.14604l0.08067,4.75402l-63.18136,2.19105l-6.31833,-9.68327l63.2288,0.60542l-0.63047,-4.18522l133.21027,-17.08608z" fill="#dcdcda" stroke="#000000" stroke-width="1" stroke-linecap="round"/><path d="M126.09624,171.75773l-14.11493,8.91107l-130.79469,-9.52907l-0.99554,-9.21412l127.07165,12.66926l18.23846,-13.17698z" fill="#dcdcda" stroke="#000000" stroke-width="1" stroke-linecap="round"/><path d="M169.85208,137.5178l43.93379,33.94075l1.00297,141.52537l-88.69097,-1.01253l-0.92357,-140.96727z" fill="#ae9d87" stroke="#000000" stroke-width="1" stroke-linecap="round"/><path d="M141.63611,312.75668l-1.742,-123.26058l-0.11388,-6.71155l58.5175,3.20292l0.18386,126.22415z" fill="#414548" stroke="#000000" stroke-width="1" stroke-linecap="round"/><path d="M139.92951,241.0354l35.79488,-0.60741l-0.29255,65.18159l-33.8421,0.29455z" fill="#60646f" stroke="#000000" stroke-width="1" stroke-linecap="round"/><path d="M146.6329,306.37801l0.55323,-66.30493l29.38197,0.62033l-1.96569,65.48972z" fill="#00ffe6" stroke="#000000" stroke-width="1" stroke-linecap="round"/><path d="M140.26611,244.38644l4.47435,-0.07593l-0.62505,29.10232l-3.36526,-0.50236z" fill="#00ffe6" stroke="#000000" stroke-width="1" stroke-linecap="round"/><path d="M139.57532,187.19378l33.56718,-0.01017l1.01994,43.62027l-33.85632,-0.5444z" fill="#00ffe6" stroke="#000000" stroke-width="1" stroke-linecap="round"/><path d="M213.53359,234.89115l55.38918,0.179l-1.43488,63.80235l-53.72078,-0.76676z" fill="#00ffe6" stroke="#000000" stroke-width="1" stroke-linecap="round"/><path d="M321.27802,328.45006l2.87671,-193.13109l272.34407,-35.39158l-3.53499,220.27588z" fill="#ae9d87" stroke="#000000" stroke-width="1" stroke-linecap="round"/><path d="M361.81859,327.27259l2.81695,-81.26218l99.56401,-1.13009l-3.1409,78.65687z" fill="#f0f0ed" stroke="#000000" stroke-width="1" stroke-linecap="round"/><path d="M362.09666,327.17461l2.60058,-77.5288l88.37336,-1.21991l-2.06501,76.12107z" fill="#00ffe6" stroke="#000000" stroke-width="1" stroke-linecap="round"/><path d="M466.8566,323.1591l3.68595,-79.50532l96.78177,-0.24369l-3.43953,77.54304z" fill="#f0f0ed" stroke="#000000" stroke-width="1" stroke-linecap="round"/><path d="M470.60898,247.56886l84.47252,-0.31454l-4.59607,75.32484l-84.17865,1.14873z" fill="#00ffe6" stroke="#000000" stroke-width="1" stroke-linecap="round"/><path d="M125.02721,162.33505l46.18862,-30.99441l52.39915,38.27274l-4.6401,6.79221l-48.77323,-38.89374l-44.71922,35.1654z" fill="#dcdcda" stroke="#000000" stroke-width="1" stroke-linecap="round"/><path d="M21.50593,202.46111l89.50617,-0.39996l2.36538,89.93905l-86.97511,1.19619l-2.92508,-89.95286z" fill="#00ffe6" stroke="#000000" stroke-width="1" stroke-linecap="round"/><path d="M176.42443,92.52785c0.38164,-0.7288 1.11042,-0.34716 1.11042,-0.34716l0.98434,0.51544c7.35228,3.84994 14.22035,8.00782 21.13114,12.60175c9.58417,6.37108 18.25644,14.04853 27.70601,20.64288c7.81372,5.45278 15.11273,12.183 23.69061,16.2756c0,0 0.74196,0.35537 0.38658,1.09733c-0.35537,0.74196 -1.09733,0.38658 -1.09733,0.38658c-8.65985,-4.1656 -16.02236,-10.89786 -23.92145,-16.41022c-9.43918,-6.58711 -18.10202,-14.25813 -27.67526,-20.62195c-6.86435,-4.56307 -13.6808,-8.69039 -20.98353,-12.51438l-0.98434,-0.51544c0,0 -0.7288,-0.38164 -0.34716,-1.11042z" fill="#000000" stroke="none" stroke-width="0.5" stroke-linecap="butt"/><path d="M322.27059,96.85911c0.38101,0.72913 -0.34811,1.11014 -0.34811,1.11014l-0.57211,0.29897c-3.84705,2.00937 -7.57794,4.32267 -11.14132,6.79542c-9.44586,6.55483 -18.5669,13.43783 -27.2896,20.93703c-2.91549,2.50654 -5.77293,5.10866 -8.75941,7.52985c-4.24877,3.44454 -9.28164,5.99322 -13.35318,9.60558c0,0 -0.61545,0.5459 -1.16136,-0.06953c-0.5459,-0.61545 0.06953,-1.16136 0.06953,-1.16136c4.0985,-3.63459 9.15197,-6.1969 13.4242,-9.66508c2.96763,-2.40912 5.80893,-4.99503 8.70757,-7.48708c8.7657,-7.53616 17.93174,-14.454 27.42421,-21.04115c3.61984,-2.51192 7.41014,-4.8592 11.31733,-6.9019l0.57211,-0.29897c0,0 0.72913,-0.38101 1.11014,0.34811z" fill="#000000" stroke="none" stroke-width="0.5" stroke-linecap="butt"/><path d="M230.60927,210.52073c-0.49992,0.00849 -0.50841,-0.49145 -0.50841,-0.49145l0.00091,-0.17349c-0.11028,-0.77532 -0.18951,-1.50469 -0.48089,-2.23316c-2.78238,-7.10083 -3.41403,-12.07179 0.64071,-18.88239c3.82892,-5.60084 11.30568,-5.74061 17.34482,-7.27253c5.89287,-1.66873 14.10824,-2.3497 20.04945,-0.66434c6.8841,1.96165 11.21016,5.90341 15.46921,11.37168c2.15124,5.25319 3.26011,11.39176 2.11215,17.02708c0,0 -0.10017,0.48986 -0.59004,0.3897c-0.48986,-0.10017 -0.3897,-0.59004 -0.3897,-0.59004c1.10951,-5.40409 0.01318,-11.27376 -1.99773,-16.3255c-4.16501,-5.24676 -8.20863,-9.01126 -14.87793,-10.91119c-5.74084,-1.64338 -13.82646,-0.96067 -19.51623,0.66843c-5.71111,1.43293 -13.15058,1.5495 -16.76103,6.84461c-3.87694,6.51801 -3.25164,11.18914 -0.55348,17.97752c0.31536,0.80903 0.41879,1.60257 0.54069,2.45926l0.00891,0.29736c0,0 0.00849,0.49992 -0.49145,0.50841z" fill="#000000" stroke="none" stroke-width="0.5" stroke-linecap="butt"/><path d="M228.9377,171.3383c-0.00849,-0.49992 0.49145,-0.50841 0.49145,-0.50841l0.05013,0.02535c3.26524,-1.16293 6.75366,-1.55461 10.16005,-2.13527c0.43298,-0.07381 0.91539,-0.178 1.39241,-0.23064c-1.12616,-0.82556 -2.15424,-1.93263 -3.03555,-2.84125c-2.45608,-2.53209 -4.97463,-4.98763 -7.51093,-7.43929c-4.08349,-3.94723 -8.87179,-6.72208 -12.90518,-10.62086c0,0 -0.3595,-0.34751 -0.012,-0.707c0.3475,-0.35951 0.707,-0.012 0.707,-0.012c4.03051,3.896 8.82188,6.67385 12.90518,10.62086c2.54401,2.45913 5.07042,4.92206 7.53376,7.46207c1.18028,1.21701 2.80083,3.09563 4.44874,3.57609l0.62073,0.19528c0.20535,0.05937 0.35706,0.24704 0.36087,0.47193c0.00469,0.2761 -0.21534,0.50372 -0.49145,0.50841c-0.03714,0.00063 -0.07341,-0.00279 -0.10836,-0.00989l-0.97361,-0.17761l0.00012,-0.00064c-4.29049,0.49827 -8.64628,0.81806 -12.75628,2.28186l-0.36866,0.03247c0,0 -0.49992,0.00849 -0.50841,-0.49145z" fill="#000000" stroke="none" stroke-width="0.5" stroke-linecap="butt"/><path d="M279.72135,168.29382c-0.11301,0.48706 -0.60008,0.37403 -0.60008,0.37403l-0.81584,-0.18999c-0.64934,-0.08096 -1.29864,-0.16215 -1.94791,-0.24356c-5.98749,-0.75089 -12.95862,-0.27141 -18.852,-1.81311l-0.00644,0.04843l-0.98375,-0.13054c-0.24515,-0.02843 -0.43742,-0.23467 -0.44171,-0.48818c-0.00234,-0.13804 0.0515,-0.26399 0.14043,-0.35598v0l0.41168,-0.42589l0.01061,0.01026l0.02538,-0.044c1.64648,-1.12511 3.53144,-1.95049 5.22895,-3.12424c5.03115,-3.47881 8.90239,-8.36794 15.36248,-9.06592c0,0 0.4971,-0.05371 0.55081,0.44339c0.05371,0.4971 -0.44339,0.55082 -0.44339,0.55082c-6.24266,0.67449 -10.03252,5.52777 -14.90116,8.89422c-1.47867,1.02243 -3.17502,1.78171 -4.64592,2.72567c5.01635,-1.17669 13.81377,1.1743 18.66842,1.78282c0.66634,0.08355 1.33267,0.16732 1.99897,0.2513l0.86642,0.20037c0,0 0.48706,0.113 0.37403,0.60008z" fill="#000000" stroke="none" stroke-width="0.5" stroke-linecap="butt"/></g></g></g></svg>