<svg version="1.1" xmlns="http://www.w3.org/2000/svg" xmlns:xlink="http://www.w3.org/1999/xlink" width="700.26313" height="366.97681" viewBox="0,0,700.26313,366.97681"><g transform="translate(31.96776,8.00105)"><g stroke-miterlimit="10"><g stroke-width="1"><path d="M408.02661,259.74153l-19.58158,-30.15918l93.01263,0.2669l33.28872,29.89229z" fill="#cedce9" stroke="#000000" stroke-linecap="round"/><path d="M523.59365,258.17424c-2.51736,0.33059 -4.99216,0.51974 -7.44223,0.65614c0.01657,0.05078 0.02517,0.10376 0.02517,0.159c0,1.34605 -5.12503,1.34606 -5.12503,1.34606c-22.6357,0 -45.27133,0 -67.90704,0c-5.82482,0 -20.31847,-0.61068 -24.61451,0.19442c-2.4746,0.46373 -4.24621,0.41784 -7.41709,0.47861c-0.35796,0.00687 -1.0089,0.02155 -1.58404,0.03056c3.06613,0.5749 1.58404,5.88778 1.58404,7.37282c0,6.28166 0,12.5633 0,18.84496c0,1.12169 0,2.24348 0,3.36517c0,0.44869 -0.90139,1.72722 0,1.34605c3.42944,-1.45008 10.1222,-0.67042 17.93771,-0.67303c15.40608,-0.00512 31.89996,-0.43784 47.03112,0.2901c27.63052,1.45139 57.33777,-0.8675 84.7478,0.74957c23.0855,1.51582 50.72006,1.65241 74.50455,1.65241c5.97929,0 11.95848,0 17.93776,0c0.89963,0 2.31218,-0.03183 3.77464,-0.06671c-1.47115,-0.69052 0.06919,-2.36037 0.06919,-3.29848c0,-3.50455 4.47275,-9.54987 -1.01823,-12.6985c-4.85239,-3.82337 -7.92195,-7.50453 -15.83727,-11.31757c-5.84015,-2.81341 -14.93159,-5.30724 -19.76373,-8.10193c-2.34262,-1.66562 -4.4398,-0.47521 -12.06871,-0.8607c-16.88085,-0.85298 -33.8115,-0.67303 -51.25057,-0.67303c-6.35667,0 -14.3401,0.33898 -20.5003,0c-1.30035,-0.07155 -3.74421,-0.33754 -5.57598,-0.55539c3.35046,0.67984 -4.29474,1.33749 -7.50723,1.75937zM443.14432,257.64327c17.10732,0 34.21471,0 51.322,0c0.49354,-0.06481 0.9869,-0.1296 1.48038,-0.19442c6.50025,-0.85363 12.36884,-0.62741 17.93775,-1.00955c7.5893,-0.52076 12.12882,-2.27465 19.95918,-2.69214c4.49823,-0.2398 16.95688,0.53093 23.33327,0.53093c17.28983,0 34.5607,-0.25966 51.25055,0.67304c9.37568,0.52396 17.29928,-0.49749 21.68384,2.61997c0.64637,1.18421 5.81971,1.92437 8.52552,2.83535c4.13514,1.39218 7.59135,3.45403 10.79113,4.99544c7.93231,3.82123 11.42007,7.75151 16.39348,11.6702c4.44451,4.13061 1.54425,9.25275 1.54425,13.54984c0,2.37569 1.42556,4.05008 -5.12504,6.05732c-2.28434,0.69995 -23.38758,0 -26.90653,0c-24.53263,0 -53.19724,-0.17052 -76.9906,-1.73283c-26.13912,-2.00671 -57.25385,0.69777 -84.27204,-0.72147c-21.77233,-1.28802 -55.37873,2.14318 -73.20866,-2.25694c-1.76524,-0.43565 0,-3.99394 0,-4.71124c0,-6.28166 0,-12.56328 0,-18.84494c0,-2.10017 -3.52484,-7.1145 1.8224,-8.67842c9.33139,-2.7292 26.79517,-2.09015 40.45923,-2.09015z" fill="#000000" stroke="none" stroke-linecap="butt"/><path d="M516.07997,258.76575c2.44998,-0.13639 4.95466,-0.32733 7.4721,-0.65792c3.21254,-0.42187 10.88806,-1.08033 7.53753,-1.76017c1.83178,0.21785 4.296,0.48381 5.59622,0.55538c6.16019,0.33898 14.21508,0.00337 20.57164,0.00337c17.43895,0 34.47955,-0.16105 51.36036,0.69189c7.62889,0.38548 9.74198,-0.79982 12.08457,0.8658c4.83221,2.79467 13.96197,5.30856 19.80223,8.12198c7.91532,3.81305 10.99536,7.51975 15.84779,11.34313c5.4911,3.14864 0.99422,9.21724 0.99422,12.7218c0,0.93811 -1.54989,2.61271 -0.07871,3.30323c-1.4624,0.03488 -2.87688,0.06756 -3.77659,0.06756c-5.97927,0 -11.96891,0.00423 -17.94819,0.00423c-23.78468,0 -51.5314,-0.11316 -74.6169,-1.62898c-27.41006,-1.61705 -57.38883,0.68878 -85.01938,-0.76262c-15.13112,-0.72796 -31.67166,-0.3106 -47.07775,-0.30549c-7.81545,0.00261 -14.51432,-0.77993 -17.94374,0.67014c-0.90139,0.38113 -0.00387,-0.89941 -0.00387,-1.34808c0,-1.12169 -0.00875,-2.24888 -0.00875,-3.37061c0,-6.28166 -0.01069,-12.60066 -0.01069,-18.88232c0,-1.48501 1.49766,-6.81079 -1.5685,-7.38572c0.57524,-0.00903 1.22674,-0.02404 1.58465,-0.03091c3.17079,-0.06074 4.94641,-0.0171 7.42095,-0.48085c4.29607,-0.80508 18.8029,-0.20068 24.6277,-0.20068c22.63578,0 45.39206,-0.02676 68.02769,-0.02676c0,0 5.15019,-0.0023 5.15019,-1.34837c0,-0.05525 -0.00797,-0.10826 -0.02459,-0.15905z" fill="#484848" stroke="none" stroke-linecap="butt"/><path d="M587.92736,263.70059c0,-0.15608 -0.071,-0.41748 -0.13884,-0.67427c-0.26396,0.1042 -0.65776,0.19308 -1.16413,0.26861c-1.51846,0.40566 -3.82215,0.40566 -3.82215,0.40566c-19.52138,0 -30.7966,3.57338 -37.69769,7.33234c-0.81188,0.42647 -0.74014,0.94029 -0.74014,1.41711c0,0.13567 -0.04938,0.35126 -0.10335,0.57427c0.05163,-0.0718 0.18046,-0.13079 0.44279,-0.16865c1.1592,-0.16734 11.23656,0.85669 12.47315,0.26744c0.37162,-0.17711 -1.82278,-0.21045 -1.70176,-0.41012c1.48853,-2.45506 17.2749,-6.16853 25.0351,-7.18765c2.01265,-0.26434 4.2784,-0.39732 6.53081,-0.4582c-0.88061,-0.36021 0.88619,-0.91155 0.88619,-1.36647zM544.23399,273.13568c-0.11623,0.47855 -0.21938,0.93597 0.13038,0.6604c0.23908,-0.18833 -0.10608,-0.45272 -0.13038,-0.6604zM535.9367,269.82896c7.32479,-3.62674 17.06655,-6.93358 32.24785,-8.23516c1.42606,-0.58533 4.36768,-0.58534 4.36768,-0.58534h2.56251c5.80237,0 8.87214,-0.53092 15.10467,-0.53092c8.65547,0 10.66183,4.52034 6.13572,5.84414c-2.85613,0.83535 -7.43749,1.10942 -11.26081,1.61154c-11.31723,1.4862 -15.51644,5.75698 -27.91725,7.88199c-13.1433,2.25221 -27.61307,-2.63877 -21.24033,-5.98624z" fill="#000000" stroke="none" stroke-linecap="butt"/><path d="M587.9789,262.98121c0.06801,0.25679 0.15082,0.52191 0.15082,0.678c0,0.45491 -1.7458,1.01456 -0.86518,1.37478c-2.25244,0.0609 -4.53116,0.18842 -6.54389,0.45274c-7.76029,1.01909 -23.62281,4.71373 -25.11131,7.16877c-0.12116,0.19972 1.82989,0.35128 1.45824,0.52838c-1.23659,0.58924 -11.40129,-0.45249 -12.5605,-0.28517c-0.26243,0.03789 -0.39004,0.09722 -0.44158,0.16905c0.05396,-0.22303 0.09389,-0.44172 0.09389,-0.57738c0,-0.47679 -0.09407,-1 0.71778,-1.42645c6.90103,-3.75898 18.58327,-7.41138 38.10462,-7.41138c0,0 2.31413,0.0029 3.83259,-0.40276c0.50641,-0.07557 0.90038,-0.16436 1.16423,-0.26858z" fill="#ffffff" stroke="none" stroke-linecap="butt"/></g><path d="M152.43728,321.72698l33.28871,-45.34609l93.01264,-0.40488l-19.58158,45.75095z" fill="#cedce9" stroke="#000000" stroke-width="1" stroke-linecap="round"/><path d="M143.58998,320.1596c-3.21249,-0.42188 -10.85769,-1.07953 -7.50723,-1.75937c-1.83177,0.21785 -4.27563,0.48384 -5.57598,0.55539c-6.16019,0.33898 -14.14363,0 -20.5003,0c-17.43907,0 -34.36972,-0.17995 -51.25057,0.67303c-7.62891,0.38549 -9.72609,-0.80492 -12.06871,0.8607c-4.83214,2.79469 -13.92358,5.28852 -19.76373,8.10193c-7.91532,3.81304 -10.98488,7.49421 -15.83726,11.31757c-5.49098,3.14863 -1.01823,9.19394 -1.01823,12.6985c0,0.93811 1.54034,2.60796 0.06918,3.29848c1.46246,0.03488 2.87502,0.06671 3.77464,0.06671c5.97928,0 11.95847,0 17.93776,0c23.7845,0 51.41905,-0.13659 74.50455,-1.65241c27.41003,-1.61707 57.11728,0.70182 84.74781,-0.74957c15.13116,-0.72794 31.62504,-0.29522 47.03112,-0.2901c7.81551,0.00261 14.50827,-0.77705 17.93771,0.67303c0.90139,0.38116 0,-0.89736 0,-1.34605c0,-1.12169 0,-2.24348 0,-3.36517c0,-6.28166 0,-12.5633 0,-18.84496c0,-1.48504 -1.48209,-6.79792 1.58405,-7.37282c-0.57515,-0.00901 -1.22609,-0.0237 -1.58405,-0.03056c-3.17088,-0.06077 -4.94248,-0.01487 -7.41709,-0.47861c-4.29603,-0.8051 -18.78969,-0.19442 -24.61451,-0.19442c-22.6357,0 -45.27134,0 -67.90704,0c0,0 -5.12503,0 -5.12503,-1.34606c0,-0.05524 0.0086,-0.10822 0.02517,-0.159c-2.45006,-0.13639 -4.92487,-0.32555 -7.44223,-0.65614zM224.03924,319.62868c13.66406,0 31.12784,-0.63904 40.45923,2.09015c5.34724,1.56392 1.8224,6.57824 1.8224,8.67842c0,6.28166 0,12.56329 0,18.84494c0,0.7173 1.76524,4.27558 0,4.71124c-17.82994,4.40012 -51.43633,0.96892 -73.20866,2.25694c-27.01819,1.41924 -58.13292,-1.28523 -84.27204,0.72147c-23.79336,1.56232 -52.45798,1.73283 -76.9906,1.73283c-3.51895,0 -24.62219,0.69995 -26.90653,0c-6.55059,-2.00724 -5.12503,-3.68163 -5.12503,-6.05732c0,-4.29709 -2.90026,-9.41923 1.54425,-13.54984c4.97341,-3.91868 8.46118,-7.84897 16.39348,-11.6702c3.19978,-1.54141 6.65599,-3.60326 10.79113,-4.99544c2.7058,-0.91098 7.87915,-1.65113 8.52552,-2.83535c4.38455,-3.11746 12.30816,-2.09601 21.68384,-2.61997c16.68986,-0.9327 33.96073,-0.67304 51.25056,-0.67304c6.37639,0 18.83503,-0.77073 23.33326,-0.53093c7.83036,0.41749 12.36988,2.17138 19.95918,2.69214c5.56891,0.38214 11.4375,0.15592 17.93775,1.00955c0.49347,0.06482 0.98684,0.12961 1.48038,0.19442c17.10729,0 34.21468,0 51.322,0z" fill="#000000" stroke="none" stroke-width="1" stroke-linecap="butt"/><path d="M151.1035,320.75119c-0.01662,0.05079 -0.02459,0.1038 -0.02459,0.15905c0,1.34607 5.15019,1.34837 5.15019,1.34837c22.63564,0 45.39191,0.02676 68.02769,0.02676c5.82479,0 20.33162,-0.6044 24.62769,0.20068c2.47455,0.46375 4.25017,0.42011 7.42096,0.48085c0.35791,0.00687 1.00941,0.02188 1.58465,0.03091c-3.06616,0.57493 -1.5685,5.9007 -1.5685,7.38572c0,6.28166 -0.01069,12.60067 -0.01069,18.88232c0,1.12173 -0.00875,2.24892 -0.00875,3.37061c0,0.44867 0.89751,1.72922 -0.00387,1.34808c-3.42942,-1.45008 -10.12829,-0.66753 -17.94374,-0.67014c-15.40609,-0.00511 -31.94663,-0.42247 -47.07775,0.30549c-27.63055,1.45141 -57.60933,-0.85443 -85.01939,0.76262c-23.0855,1.51582 -50.83222,1.62898 -74.6169,1.62898c-5.97928,0 -11.96892,-0.00423 -17.94819,-0.00423c-0.89971,0 -2.31419,-0.03267 -3.7766,-0.06756c1.47118,-0.69052 -0.07871,-2.36512 -0.07871,-3.30323c0,-3.50456 -4.49688,-9.57316 0.99422,-12.7218c4.85243,-3.82338 7.93247,-7.53008 15.84779,-11.34313c5.84027,-2.81342 14.97003,-5.32731 19.80223,-8.12198c2.3426,-1.66562 4.45568,-0.48032 12.08457,-0.8658c16.88081,-0.85294 33.9214,-0.69189 51.36035,-0.69189c6.35656,0 14.41145,0.33561 20.57164,-0.00337c1.30022,-0.07157 3.76444,-0.33753 5.59622,-0.55538c-3.35052,0.67984 4.325,1.3383 7.53753,1.76017c2.51745,0.33059 5.02212,0.52153 7.4721,0.65792z" fill="#484848" stroke="none" stroke-width="1" stroke-linecap="butt"/><path d="M79.25629,325.6861c0,0.45492 1.7668,1.00626 0.88619,1.36647c2.25241,0.06088 4.51816,0.19386 6.53082,0.4582c7.76019,1.01911 23.54657,4.73259 25.0351,7.18765c0.12102,0.19968 -2.07339,0.23301 -1.70177,0.41012c1.23659,0.58925 11.31395,-0.43478 12.47316,-0.26744c0.26233,0.03786 0.39116,0.09685 0.44279,0.16865c-0.05397,-0.22301 -0.10335,-0.4386 -0.10335,-0.57427c0,-0.47681 0.07175,-0.99063 -0.74013,-1.41711c-6.90108,-3.75896 -18.17632,-7.33234 -37.69769,-7.33234c0,0 -2.30369,0 -3.82215,-0.40566c-0.50637,-0.07554 -0.90017,-0.16442 -1.16413,-0.26861c-0.06784,0.2568 -0.13884,0.51819 -0.13884,0.67427zM122.81929,335.78153c0.34976,0.27557 0.24661,-0.18185 0.13038,-0.6604c-0.0243,0.20768 -0.36946,0.47207 -0.13038,0.6604zM131.24694,331.81444c6.37274,3.34746 -8.09703,8.23844 -21.24034,5.98624c-12.40081,-2.125 -16.60001,-6.39579 -27.91724,-7.88199c-3.82332,-0.50212 -8.40469,-0.77619 -11.26081,-1.61154c-4.52612,-1.3238 -2.51975,-5.84414 6.13571,-5.84414c6.23252,0 9.3023,0.53092 15.10466,0.53092h2.56251c0,0 2.94163,0.00001 4.36769,0.58534c15.1813,1.30158 24.92306,4.60842 32.24785,8.23516z" fill="#000000" stroke="none" stroke-width="1" stroke-linecap="butt"/><path d="M79.20502,324.96668c0.26385,0.10422 0.65782,0.19301 1.16423,0.26858c1.51846,0.40566 3.83259,0.40276 3.83259,0.40276c19.52135,0 31.20359,3.6524 38.10462,7.41138c0.81185,0.42645 0.71778,0.94966 0.71778,1.42645c0,0.13565 0.03993,0.35435 0.09389,0.57738c-0.05154,-0.07183 -0.17916,-0.13117 -0.44159,-0.16905c-1.15921,-0.16732 -11.3239,0.87441 -12.5605,0.28517c-0.37166,-0.1771 1.57939,-0.32866 1.45824,-0.52838c-1.4885,-2.45504 -17.35102,-6.14968 -25.1113,-7.16877c-2.01273,-0.26433 -4.29144,-0.39184 -6.54389,-0.45274c0.88062,-0.36023 -0.86518,-0.91987 -0.86518,-1.37478c0,-0.15609 0.08281,-0.42121 0.15082,-0.678z" fill="#ffffff" stroke="none" stroke-width="1" stroke-linecap="butt"/><g><path d="M22.8911,339.16741l-32.85914,-138.45896l112.31227,-14.20976l11.15701,-11.65568l-7.48081,-30.99944l53.33139,-13.0302l-1.79228,-4.18539l105.03516,-34.00762l4.13656,18.56347l291.9074,-100.36337l42.32355,215.652l-263.72379,61.91853l-36.7428,-9.29188z" fill="#7d767e" stroke="#000000" stroke-width="1" stroke-linecap="round"/><path d="M264.56146,104.33686l314.40215,-111.60873l-0.90346,11.37667l-311.69827,107.56765z" fill="#dcdcda" stroke="#000000" stroke-width="1" stroke-linecap="round"/><path d="M277.20209,87.76583l-119.41174,38.93047l1.03414,4.64088l-61.45291,14.83995l-8.13494,-8.21643l62.06122,-12.11003l-1.45846,-3.97322l127.06144,-43.50057z" fill="#dcdcda" stroke="#000000" stroke-width="1" stroke-linecap="round"/><path d="M113.6018,174.86873l-12.03683,11.56517l-130.04229,16.94279l-2.82642,-8.82624l127.02604,-13.11864l15.21923,-16.57254z" fill="#dcdcda" stroke="#000000" stroke-width="1" stroke-linecap="round"/><path d="M149.58644,132.53609l49.85693,24.42211l29.41595,138.43821l-87.08602,16.82675l-29.22604,-137.90744z" fill="#ae9d87" stroke="#000000" stroke-width="1" stroke-linecap="round"/><path d="M157.15249,309.87069l-26.47039,-120.39735l-1.45996,-6.55182l57.96784,-8.61896l25.53942,123.61355z" fill="#414548" stroke="#000000" stroke-width="1" stroke-linecap="round"/><path d="M141.07139,239.95465l34.943,-7.78647l12.80885,63.91134l-33.09289,7.08766z" fill="#60646f" stroke="#000000" stroke-width="1" stroke-linecap="round"/><path d="M160.76588,302.61819l-12.77918,-65.06414l28.90751,-5.29537l11.23173,64.54933z" fill="#00ffe6" stroke="#000000" stroke-width="1" stroke-linecap="round"/><path d="M142.07437,243.16974l4.36787,-0.97331l5.23455,28.63452l-3.39757,0.18399z" fill="#00ffe6" stroke="#000000" stroke-width="1" stroke-linecap="round"/><path d="M129.90726,187.282l32.88072,-6.75384l9.76276,42.52595l-33.27538,6.26868z" fill="#00ffe6" stroke="#000000" stroke-width="1" stroke-linecap="round"/><path d="M211.94028,219.14811l54.29578,-10.95273l11.41271,62.78971l-52.77948,10.04175z" fill="#00ffe6" stroke="#000000" stroke-width="1" stroke-linecap="round"/><path d="M336.28447,289.15277l-35.98332,-189.77116l259.68064,-89.38578l40.79205,216.49474z" fill="#ae9d87" stroke="#000000" stroke-width="1" stroke-linecap="round"/><path d="M375.76188,279.85443l-13.56663,-80.17121l97.30689,-21.11015l12.72586,77.68411z" fill="#f0f0ed" stroke="#000000" stroke-width="1" stroke-linecap="round"/><path d="M376.01459,279.70258l-13.02852,-76.47048l86.32636,-18.94986l13.27035,74.98386z" fill="#00ffe6" stroke="#000000" stroke-width="1" stroke-linecap="round"/><path d="M477.83176,254.72194l-12.36238,-78.62476l94.75946,-19.68285l12.20954,76.65298z" fill="#f0f0ed" stroke="#000000" stroke-width="1" stroke-linecap="round"/><path d="M466.32103,179.91908l82.68696,-17.27925l10.63092,74.71237l-82.23148,18.03738z" fill="#00ffe6" stroke="#000000" stroke-width="1" stroke-linecap="round"/><path d="M110.66149,165.85295l39.01986,-39.64207l59.02001,26.96501l-3.18089,7.58595l-55.59278,-28.30182l-36.74243,43.43279z" fill="#dcdcda" stroke="#000000" stroke-width="1" stroke-linecap="round"/><path d="M17.31258,225.959l87.60082,-18.37422l20.38654,87.63l-84.9614,18.6457l-20.9376,-87.53108z" fill="#00ffe6" stroke="#000000" stroke-width="1" stroke-linecap="round"/><path d="M146.98599,87.14303c0.22743,-0.79061 1.01804,-0.56318 1.01804,-0.56318l1.06783,0.30717c7.97584,2.29432 15.53923,4.98757 23.23206,8.09942c10.66875,4.31564 20.70665,10.09424 31.28839,14.65565c8.7499,3.77177 17.25224,8.89834 26.47745,11.18414c0,0 0.79822,0.19906 0.59916,0.99729c-0.19906,0.79822 -0.99729,0.59916 -0.99729,0.59916c-9.32017,-2.34084 -17.88513,-7.45666 -26.73063,-11.26964c-10.57011,-4.5564 -20.59748,-10.33059 -31.25407,-14.64132c-7.64114,-3.09093 -15.14781,-5.76463 -23.06991,-8.04347l-1.06783,-0.30717c0,0 -0.79061,-0.22743 -0.56318,-1.01804z" fill="#000000" stroke="none" stroke-width="0.5" stroke-linecap="butt"/><path d="M290.72857,62.08448c0.51973,0.63771 -0.11797,1.15744 -0.11797,1.15744l-0.50038,0.40781c-3.36491,2.74129 -6.55498,5.75699 -9.5489,8.89523c-7.93635,8.31891 -15.48857,16.89406 -22.52678,25.99281c-2.35246,3.04118 -4.62886,6.16432 -7.06801,9.13615c-3.4701,4.22792 -7.88831,7.73577 -11.15108,12.09247c0,0 -0.49322,0.65842 -1.15165,0.16521c-0.65842,-0.49322 -0.16521,-1.15165 -0.16521,-1.15165c3.28472,-4.3839 7.72037,-7.90924 11.2087,-12.16503c2.42311,-2.95622 4.68695,-6.06024 7.02582,-9.08384c7.0729,-9.14359 14.66221,-17.7619 22.63772,-26.12184c3.04137,-3.18796 6.28281,-6.24887 9.69993,-9.03491l0.50038,-0.40781c0,0 0.63771,-0.51973 1.15744,0.11797z" fill="#000000" stroke="none" stroke-width="0.5" stroke-linecap="butt"/><path d="M223.77161,191.84397c-0.48803,0.10875 -0.59678,-0.37928 -0.59678,-0.37928l-0.03396,-0.17013c-0.2638,-0.73736 -0.48795,-1.43594 -0.91974,-2.09101c-4.15225,-6.39705 -5.76973,-11.13974 -3.16596,-18.62611c2.6256,-6.2559 9.92183,-7.89495 15.53006,-10.60894c5.43745,-2.81863 13.34851,-5.13624 19.50718,-4.67887c7.13785,0.53859 12.16762,3.53085 17.43845,8.03194c3.16278,4.71388 5.48232,10.50451 5.48994,16.25555c0,0 0.00029,0.5 -0.49971,0.50029c-0.5,0.00029 -0.50029,-0.49971 -0.50029,-0.49971c0.00117,-5.51681 -2.25206,-11.04654 -5.2369,-15.59127c-5.1342,-4.303 -9.85168,-7.17835 -16.7667,-7.69963c-5.95395,-0.4565 -13.73754,1.83675 -18.984,4.57575c-5.30678,2.55112 -12.57114,4.15994 -15.04415,10.07246c-2.48837,7.16402 -0.93736,11.61427 3.06961,17.72217c0.47147,0.72917 0.73221,1.48575 1.02374,2.30049l0.06847,0.28951c0,0 0.10875,0.48803 -0.37928,0.59678z" fill="#000000" stroke="none" stroke-width="0.5" stroke-linecap="butt"/><path d="M214.2621,153.79628c-0.10875,-0.48803 0.37928,-0.59678 0.37928,-0.59678l0.0542,0.01477c2.96503,-1.79523 6.30363,-2.87977 9.5239,-4.13295c0.40932,-0.15929 0.86097,-0.35828 1.31768,-0.50569c-1.26906,-0.58248 -2.49859,-1.46043 -3.54449,-2.17345c-2.91471,-1.98702 -5.87525,-3.88649 -8.85239,-5.7786c-4.79326,-3.04634 -10.0414,-4.80261 -14.77585,-7.81157c0,0 -0.42199,-0.2682 -0.1538,-0.69018c0.26819,-0.42199 0.69018,-0.1538 0.69018,-0.1538c4.73106,3.0068 9.98283,4.76539 14.77585,7.81157c2.9862,1.89787 5.95591,3.80302 8.87933,5.79633c1.40072,0.95507 3.36566,2.46981 5.07649,2.60939l0.64731,0.06659c0.21309,0.0169 0.39941,0.17026 0.44833,0.3898c0.06006,0.26953 -0.10975,0.53672 -0.37928,0.59678c-0.03626,0.00808 -0.07247,0.01201 -0.10814,0.01208l-0.98944,0.02162l-0.00001,-0.00065c-4.1029,1.3501 -8.30564,2.53848 -12.03774,4.79815l-0.35462,0.10587c0,0 -0.48803,0.10875 -0.59678,-0.37928z" fill="#000000" stroke="none" stroke-width="0.5" stroke-linecap="butt"/><path d="M263.39863,140.61109c-0.01286,0.49983 -0.5127,0.48697 -0.5127,0.48697l-0.83738,-0.02221c-0.65236,0.05115 -1.30474,0.10206 -1.95713,0.15276c-6.01626,0.46735 -12.74893,2.33761 -18.83188,2.01136l0.00343,0.04874l-0.98992,0.06977c-0.24587,0.02141 -0.47564,-0.142 -0.53079,-0.38948c-0.03003,-0.13476 -0.00259,-0.26895 0.06605,-0.37694v0l0.31772,-0.49992l0.01246,0.00792l0.01602,-0.0482c1.38687,-1.43296 3.06757,-2.62021 4.49465,-4.11107c4.22965,-4.41867 7.0397,-9.98587 13.22784,-11.9675c0,0 0.47617,-0.15249 0.62866,0.32369c0.15249,0.47617 -0.32369,0.62867 -0.32369,0.62867c-5.97986,1.91494 -8.71739,7.43066 -12.81042,11.70662c-1.24311,1.29866 -2.75233,2.38327 -4.00359,3.60349c4.67767,-2.16052 13.76803,-1.62493 18.64596,-2.00415c0.66954,-0.05203 1.33911,-0.10383 2.0087,-0.15543l0.88901,0.02221c0,0 0.49983,0.01285 0.48697,0.5127z" fill="#000000" stroke="none" stroke-width="0.5" stroke-linecap="butt"/></g></g></g></svg>