<svg version="1.1" xmlns="http://www.w3.org/2000/svg" xmlns:xlink="http://www.w3.org/1999/xlink" width="2878.25006" height="1619.57958" viewBox="0,0,2878.25006,1619.57958"><g transform="translate(1119.12503,629.78979)"><g stroke-miterlimit="10"><path d="M-1119.12503,989.78979v-1619.57958h2878.25006v1619.57958z" fill="none" stroke="#000000" stroke-width="0" stroke-linecap="butt"/><path d="M180.5346,318.60727l38.10133,-32.54586l106.45968,-0.29059l-22.41253,32.83645z" fill="#cedce9" stroke="#000000" stroke-width="0" stroke-linecap="round"/><path d="M170.4082,316.90074c-3.67691,-0.45934 -12.42738,-1.17537 -8.59255,-1.91556c-2.0966,0.2372 -4.89375,0.52679 -6.3821,0.60469c-7.0508,0.36907 -16.1884,0 -23.46406,0c-19.96027,0 -39.33862,-0.19591 -58.65997,0.73279c-8.73183,0.4197 -11.13221,-0.87638 -13.81351,0.93709c-5.53074,3.04278 -15.93651,5.75799 -22.621,8.82116c-9.05967,4.15153 -12.57299,8.15948 -18.12689,12.32225c-6.28481,3.42813 -1.16542,10.0101 -1.16542,13.82575c0,1.02138 1.76303,2.83947 0.07919,3.59128c1.67391,0.03799 3.29067,0.07263 4.32036,0.07263c6.8437,0 13.68731,0 20.53104,0c27.22308,0 58.85281,-0.14873 85.27583,-1.7991c31.37277,-1.76062 65.37486,0.76412 96.99999,-0.81611c17.3187,-0.79255 36.19714,-0.32143 53.83052,-0.31585c8.94542,0.00284 16.60575,-0.84603 20.531,0.73278c1.0317,0.41499 0,-0.97703 0,-1.46554c0,-1.22127 0,-2.44263 0,-3.6639c0,-6.83929 0,-13.67856 0,-20.51784c0,-1.61685 -1.69637,-7.40136 1.81305,-8.0273c-0.65829,-0.00982 -1.40335,-0.0258 -1.81305,-0.03328c-3.62931,-0.06616 -5.65702,-0.01618 -8.48939,-0.52109c-4.91714,-0.87657 -21.50617,-0.21168 -28.17309,-0.21168c-25.90817,0 -51.81629,0 -77.72447,0c0,0 -5.86598,0 -5.86598,-1.46554c0,-0.06016 0.00983,-0.11784 0.02881,-0.17313c-2.80427,-0.1485 -5.63687,-0.35444 -8.51816,-0.71438zM262.48819,316.32274c15.6395,0 35.62807,-0.69577 46.30852,2.27569c6.12031,1.70276 2.08584,7.16219 2.08584,9.44881c0,6.83929 0,13.67854 0,20.51783c0,0.78098 2.02045,4.65514 0,5.12947c-20.40761,4.79073 -58.87259,1.05494 -83.79257,2.4573c-30.92426,1.54521 -66.53729,-1.39933 -96.4554,0.78551c-27.2332,1.701 -60.04193,1.88665 -88.12128,1.88665c-4.02767,0 -28.18187,0.76209 -30.79644,0c-7.49764,-2.18542 -5.86598,-4.00845 -5.86598,-6.59503c0,-4.67855 -3.31956,-10.2554 1.76751,-14.75268c5.69241,-4.26656 9.68444,-8.54573 18.76352,-12.70617c3.66239,-1.67824 7.61827,-3.92313 12.35124,-5.4389c3.097,-0.99183 9.01825,-1.7977 9.75808,-3.08704c5.01845,-3.3942 14.08758,-2.28207 24.81872,-2.85253c19.10274,-1.01551 38.87049,-0.73279 58.65996,-0.73279c7.29823,0 21.55804,-0.83916 26.7066,-0.57806c8.96243,0.45455 14.15824,2.36412 22.84473,2.93112c6.374,0.41606 13.09102,0.16976 20.53104,1.09916c0.56481,0.07058 1.12952,0.14112 1.6944,0.21168c19.58053,0 39.16116,0 58.74172,0z" fill="#000000" stroke="none" stroke-width="0" stroke-linecap="butt"/><path d="M179.00797,317.54481c-0.019,0.0553 -0.02813,0.11301 -0.02813,0.17317c0,1.46556 5.89479,1.46806 5.89479,1.46806c25.90813,0 51.95432,0.02913 77.8626,0.02913c6.6669,0 23.27102,-0.65805 28.18817,0.21849c2.83231,0.50493 4.86464,0.45741 8.49383,0.52354c0.40966,0.00747 1.15534,0.02382 1.81374,0.03365c-3.50946,0.62595 -1.79527,6.42449 -1.79527,8.04134c0,6.83929 -0.01224,13.71926 -0.01224,20.55854c0,1.2213 -0.01002,2.44856 -0.01002,3.66983c0,0.48851 1.02727,1.88273 -0.00443,1.46776c-3.92523,-1.5788 -11.59256,-0.72681 -20.5379,-0.72964c-17.63339,-0.00558 -36.56523,-0.45999 -53.88388,0.33259c-31.62517,1.58025 -65.93802,-0.93027 -97.31081,0.83033c-26.42302,1.65039 -58.18114,1.77359 -85.40442,1.77359c-6.84371,0 -13.69931,-0.0046 -20.54301,-0.0046c-1.02978,0 -2.64873,-0.03558 -4.32257,-0.07356c1.68386,-0.75183 -0.09009,-2.57508 -0.09009,-3.59646c0,-3.81565 -5.147,-10.42297 1.13795,-13.85112c5.55396,-4.16279 9.07928,-8.19854 18.13895,-12.35007c6.6846,-3.06318 17.13428,-5.80023 22.66507,-8.84298c2.68128,-1.81346 5.09986,-0.52296 13.83168,-0.94266c19.32129,-0.92866 38.8255,-0.75331 58.78563,-0.75331c7.27553,0 16.49493,0.36539 23.54573,-0.00367c1.48821,-0.07792 4.30869,-0.3675 6.40529,-0.60468c-3.83492,0.74018 4.95027,1.45709 8.62724,1.91641c2.88141,0.35993 5.74819,0.56783 8.55237,0.71632z" fill="#484848" stroke="none" stroke-width="0" stroke-linecap="butt"/><path d="M96.77375,322.91781c0,0.4953 2.02223,1.09559 1.01431,1.48778c2.57805,0.06629 5.17135,0.21108 7.47499,0.49887c8.88211,1.10958 26.95075,5.15272 28.65448,7.8257c0.13853,0.21741 -2.37313,0.25373 -1.94779,0.44655c1.41537,0.64156 12.94964,-0.47337 14.27644,-0.29118c0.30022,0.04121 0.44769,0.10545 0.50678,0.18363c-0.06176,-0.24281 -0.11829,-0.47754 -0.11829,-0.62525c0,-0.51914 0.08211,-1.07858 -0.84714,-1.54291c-7.89879,-4.09265 -20.80407,-7.98324 -43.14772,-7.98324c0,0 -2.63674,-0.00001 -4.37474,-0.44166c-0.57956,-0.08226 -1.03029,-0.17902 -1.33243,-0.29246c-0.07766,0.27959 -0.15892,0.56418 -0.15892,0.73413zM146.63471,333.90945c0.40033,0.30006 0.28227,-0.19799 0.14924,-0.71902c-0.02784,0.22612 -0.4229,0.51398 -0.14924,0.71902zM156.28072,329.59017c7.29402,3.64463 -9.26765,8.96979 -24.31111,6.51765c-14.19361,-2.31364 -18.99989,-6.96356 -31.95329,-8.58168c-4.37607,-0.54668 -9.61975,-0.8451 -12.88881,-1.75459c-5.18045,-1.44132 -2.88401,-6.36294 7.02277,-6.36294c7.13358,0 10.64714,0.57805 17.28837,0.57805h2.93298c0,0 3.36693,0.00002 4.99915,0.63729c17.37609,1.4171 28.52626,5.01751 36.90999,8.96619z" fill="#000000" stroke="none" stroke-width="0" stroke-linecap="butt"/><path d="M96.715,322.13453c0.302,0.11347 0.75292,0.21016 1.33254,0.29243c1.73798,0.44166 4.38667,0.43851 4.38667,0.43851c22.3436,0 35.71477,3.97664 43.61349,8.0693c0.92922,0.46432 0.82155,1.03397 0.82155,1.55308c0,0.1477 0.04571,0.38582 0.10747,0.62863c-0.05897,-0.07822 -0.20506,-0.14281 -0.50542,-0.18407c-1.32679,-0.18217 -12.96102,0.95204 -14.37638,0.31049c-0.42539,-0.19282 1.8077,-0.35785 1.66904,-0.57529c-1.70368,-2.67299 -19.85948,-6.6956 -28.7417,-7.80516c-2.30374,-0.28779 -4.91187,-0.42661 -7.48996,-0.49293c1.00794,-0.39221 -0.99025,-1.00153 -0.99025,-1.49682c0,-0.16995 0.09479,-0.45861 0.17263,-0.7382z" fill="#ffffff" stroke="none" stroke-width="0" stroke-linecap="butt"/><path d="M333.35663,320.54427l-22.41252,-32.83644l106.45962,0.29059l38.10137,32.54585z" fill="#cedce9" stroke="#000000" stroke-width="0" stroke-linecap="round"/><path d="M465.63138,318.83789c-2.88126,0.35993 -5.71393,0.5659 -8.51815,0.71438c0.01897,0.0553 0.02881,0.11296 0.02881,0.17313c0,1.46554 -5.86599,1.46554 -5.86599,1.46554c-25.90822,0 -51.81632,0 -77.72445,0c-6.66686,0 -23.25597,-0.66489 -28.17312,0.21168c-2.83237,0.50491 -4.86007,0.45493 -8.48938,0.52109c-0.40965,0.00747 -1.15474,0.02344 -1.81307,0.03327c3.50941,0.62594 1.81307,6.41045 1.81307,8.0273c0,6.83929 0,13.67857 0,20.51785c0,1.22129 0,2.44262 0,3.6639c0,0.48849 -1.0317,1.88053 0,1.46554c3.92526,-1.57882 11.58554,-0.72996 20.53099,-0.73279c17.63338,-0.00558 36.51178,-0.4767 53.83046,0.31586c31.62515,1.58024 65.62718,-0.94449 96.99997,0.81613c26.42305,1.65036 58.05271,1.79909 85.27583,1.79909c6.84374,0 13.68735,0 20.53104,0c1.02967,0 2.64643,-0.03465 4.32035,-0.07262c-1.68384,-0.75181 0.07915,-2.5699 0.07915,-3.59128c0,-3.81565 5.11945,-10.3976 -1.1654,-13.82575c-5.55395,-4.16279 -9.06722,-8.17071 -18.12688,-12.32224c-6.68447,-3.06317 -17.09029,-5.7784 -22.62103,-8.82115c-2.6813,-1.81347 -5.08168,-0.51739 -13.81354,-0.93709c-19.32137,-0.92868 -38.69974,-0.73279 -58.65997,-0.73279c-7.27568,0 -16.41326,0.36907 -23.46405,0c-1.48835,-0.07791 -4.28548,-0.36749 -6.38211,-0.60469c3.83482,0.74022 -4.91563,1.45623 -8.59255,1.91556zM373.55126,318.25982c19.58059,0 39.16114,0 58.74169,0c0.56489,-0.07056 1.12961,-0.14112 1.69444,-0.21168c7.43996,-0.9294 14.15703,-0.6831 20.53104,-1.09917c8.68646,-0.56701 13.8823,-2.47657 22.84474,-2.93111c5.14851,-0.26112 19.40836,0.57806 26.70658,0.57806c19.78943,0 39.55723,-0.2827 58.65999,0.73279c10.73121,0.57046 19.80027,-0.54166 24.81872,2.85253c0.73986,1.28935 6.66108,2.09521 9.75806,3.08706c4.73291,1.51578 8.68882,3.76065 12.35124,5.43891c9.07908,4.16043 13.07113,8.43963 18.76354,12.70617c5.08713,4.49731 1.76758,10.07411 1.76758,14.75266c0,2.58659 1.63168,4.40961 -5.86597,6.59503c-2.61449,0.76209 -26.76879,0 -30.79647,0c-28.07936,0 -60.88813,-0.18568 -88.12128,-1.88666c-29.91805,-2.18485 -65.5311,0.75968 -96.45536,-0.78553c-24.92003,-1.40238 -63.38497,2.33342 -83.79257,-2.4573c-2.02045,-0.47432 0,-4.34848 0,-5.12946c0,-6.83929 0,-13.67857 0,-20.51785c0,-2.28663 -4.03453,-7.74605 2.08585,-9.44881c10.68043,-2.97147 30.66899,-2.27569 46.30852,-2.27569z" fill="#000000" stroke="none" stroke-width="0" stroke-linecap="butt"/><path d="M457.03147,319.48188c2.8042,-0.14849 5.67098,-0.35637 8.55238,-0.71632c3.67692,-0.45932 12.46212,-1.17624 8.62723,-1.91642c2.09658,0.23718 4.91706,0.52675 6.40528,0.60468c7.05081,0.36907 16.27028,0.00367 23.54573,0.00367c19.96012,0 39.46434,-0.17537 58.78562,0.75332c8.73186,0.41969 11.15044,-0.87083 13.83176,0.94264c5.53076,3.04273 15.98051,5.77981 22.6651,8.84298c9.05966,4.15151 12.58503,8.18726 18.13893,12.35003c6.28493,3.42817 1.13791,10.03548 1.13791,13.85114c0,1.02138 -1.77398,2.84465 -0.09009,3.59647c-1.67382,0.03797 -3.29279,0.07356 -4.32256,0.07356c-6.84369,0 -13.6993,0.0046 -20.54299,0.0046c-27.22327,0 -58.9814,-0.12321 -85.40441,-1.7736c-31.37281,-1.76063 -65.68565,0.7499 -97.31082,-0.83033c-17.31869,-0.79257 -36.25049,-0.33817 -53.88387,-0.3326c-8.94539,0.00283 -16.61266,-0.84917 -20.53789,0.72964c-1.0317,0.41498 -0.00443,-0.97924 -0.00443,-1.46775c0,-1.22129 -0.01006,-2.44855 -0.01006,-3.66982c0,-6.83929 -0.01222,-13.71925 -0.01222,-20.55854c0,-1.61685 1.71418,-7.41539 -1.79528,-8.04134c0.65841,-0.00984 1.40404,-0.02621 1.81374,-0.03368c3.62917,-0.06616 5.66155,-0.01863 8.49383,-0.52354c4.91713,-0.87656 21.52128,-0.21848 28.18817,-0.21848c25.90827,0 51.95447,-0.02915 77.86261,-0.02915c0,0 5.89478,-0.00252 5.89478,-1.46806c0,-0.06016 -0.00912,-0.11786 -0.02815,-0.17317z" fill="#484848" stroke="none" stroke-width="0" stroke-linecap="butt"/><path d="M539.26598,324.85472c0,-0.16995 -0.08119,-0.45454 -0.15886,-0.73413c-0.30215,0.11347 -0.75279,0.21017 -1.33243,0.29245c-1.73803,0.44164 -4.37473,0.44166 -4.37473,0.44166c-22.34366,0 -35.24903,3.89061 -43.14778,7.98324c-0.92922,0.46434 -0.84712,1.02379 -0.84712,1.54291c0,0.1477 -0.0566,0.38244 -0.11835,0.62525c0.05907,-0.07814 0.20659,-0.14238 0.50684,-0.18363c1.32673,-0.1822 12.86107,0.93275 14.27643,0.2912c0.42537,-0.1928 -2.08629,-0.22913 -1.94777,-0.44655c1.70368,-2.673 19.77232,-6.71613 28.65443,-7.82569c2.30372,-0.28778 4.89696,-0.43256 7.47501,-0.49887c-1.00795,-0.39219 1.01431,-0.99248 1.01431,-1.48777zM489.25574,335.12743c-0.13305,0.52103 -0.25114,1.01909 0.14922,0.71902c0.27365,-0.20505 -0.12136,-0.4929 -0.14922,-0.71902zM479.75884,331.52711c8.38373,-3.94869 19.53388,-7.54909 36.91,-8.96619c1.6323,-0.63729 4.99916,-0.63729 4.99916,-0.63729h2.93297c6.64118,0 10.1548,-0.57803 17.28836,-0.57803c9.90681,0 12.20324,4.92165 7.02276,6.36294c-3.26905,0.9095 -8.5127,1.20791 -12.8888,1.75459c-12.95334,1.61813 -17.75968,6.26803 -31.9533,8.58167c-15.04347,2.45217 -31.60518,-2.87298 -24.31118,-6.51765z" fill="#000000" stroke="none" stroke-width="0" stroke-linecap="butt"/><path d="M539.32511,324.07157c0.07784,0.27958 0.17264,0.56824 0.17264,0.73819c0,0.49528 -1.99818,1.10461 -0.99026,1.49683c-2.57808,0.06629 -5.18622,0.20512 -7.48997,0.49292c-8.88221,1.10958 -27.03808,5.13219 -28.74171,7.80517c-0.13869,0.21743 2.09444,0.38246 1.66904,0.57528c-1.41535,0.64153 -13.04956,-0.49268 -14.37637,-0.31049c-0.30038,0.04126 -0.44645,0.10586 -0.50543,0.18406c0.06177,-0.24283 0.10747,-0.48092 0.10747,-0.62862c0,-0.51912 -0.10773,-1.08876 0.82156,-1.5531c7.89869,-4.09265 21.2699,-8.0693 43.6135,-8.0693c0,0 2.64868,0.00313 4.38667,-0.43852c0.57961,-0.08229 1.03058,-0.179 1.33255,-0.29244z" fill="#ffffff" stroke="none" stroke-width="0" stroke-linecap="butt"/><path d="M15.79843,315.01596l1.67983,-98.43791l69.88082,-46.7832l76.26418,53.08255l35.61235,0.33596l150.93251,-101.79755l55.43431,37.62814l77.86001,-55.77029l133.12634,94.40631l1.00789,120.94759l-272.80402,1.67983l-33.26058,-14.44651l-109.52476,1.34387v-5.71142l-44.01148,1.34387l0.33596,8.73511z" fill="#b59c74" stroke="#000000" stroke-width="0" stroke-linecap="round"/><path d="M87.25402,169.55401l-77.93202,54.34428l-7.40007,-6.47505l83.94458,-56.88806l87.529,57.0615l24.51273,0.23125l-5.49224,-2.54378l158.00311,-104.06354l51.33801,36.53787l85.62116,-57.69745l155.20428,107.99482l-9.01883,7.40007l-4.62505,-3.46879l-4.16253,2.54378l-141.29515,-100.53693l-147.30771,103.4854l-27.28777,14.10639l-9.25009,-3.70004l28.21277,-20.11895l68.21942,-46.0192l-46.0192,-30.06279l-150.94993,101.51974l-35.84411,-0.4625z" fill="#895e50" stroke="#000000" stroke-width="0" stroke-linecap="round"/><path d="M126.60092,227.4249l0.23125,65.21314l-74.92573,-0.23125l0.23124,-65.21314z" fill="#0f1304" stroke="#000000" stroke-width="0" stroke-linecap="round"/><path d="M173.54513,303.50691l-0.69377,-62.90063h25.90027l0.69376,60.81936z" fill="#7b6d51" stroke="#000000" stroke-width="0" stroke-linecap="round"/><path d="M162.67627,292.4068l-0.4625,-52.03176l7.86259,0.23125v52.95678z" fill="#0f1304" stroke="#000000" stroke-width="0" stroke-linecap="round"/><path d="M215.17055,274.36911l-0.69377,-48.10047l48.10048,-1.61878l0.69376,48.56299z" fill="#0f1304" stroke="#000000" stroke-width="0" stroke-linecap="round"/><path d="M381.15187,319.92581l-0.46252,-86.02585h201.59418l0.46252,84.86959z" fill="#d0c3b3" stroke="#000000" stroke-width="0" stroke-linecap="round"/><path d="M273.83798,297.56214c-1.00103,0 -1.00103,-1.00103 -1.00103,-1.00103v-0.47066c0,-9.56789 0.83777,-17.33162 6.29067,-25.34923c1.40283,-2.06263 3.90367,-3.44953 5.64653,-5.19982c6.82468,-5.6303 15.23181,-5.68299 23.64978,-5.12132c3.10335,0.20707 6.15501,0.11926 9.00546,1.51514c10.11282,5.07382 13.33898,12.95014 11.36236,23.82293c0,0 -0.17906,0.98488 -1.16396,0.80582c-0.98488,-0.17906 -0.80582,-1.16396 -0.80582,-1.16396c1.81794,-9.9974 -0.94277,-17.01604 -10.28794,-21.67408c-2.54833,-1.30747 -5.45659,-1.1226 -8.25203,-1.30882c-7.81774,-0.52075 -15.81361,-0.64418 -22.16101,4.60562c-1.61074,1.60433 -4.09366,2.92897 -5.33552,4.84091c-5.09618,7.84601 -5.94645,14.92721 -5.94645,24.22682v0.47066c0,0 0,1.00103 -1.00103,1.00103z" fill="#000000" stroke="none" stroke-width="0.5" stroke-linecap="butt"/><path d="M301.10143,230.04603c-0.06679,-0.02854 -0.13575,-0.06577 -0.20675,-0.1131c-0.83291,-0.55528 -0.27763,-1.38818 -0.27763,-1.38818c5.15102,-7.70102 19.72713,-8.11796 27.08374,-3.46621c1.45383,0.91929 2.77532,2.53408 4.03484,3.72184c1.98056,3.63169 4.27219,9.30614 2.65797,13.51164c-3.06457,7.98405 -13.86606,13.8968 -21.83994,14.84803c-5.55573,0.13554 -9.83504,-3.01199 -12.33868,-7.45171c-0.41293,0.63796 -0.84559,1.27507 -1.22496,1.96858c-3.65359,6.67909 -10.39035,13.77994 -18.48131,9.25199c-9.44401,-2.86494 -14.09523,-16.5849 -11.10342,-26.04645c-0.11748,-0.42228 0.13234,-0.82197 0.13234,-0.82197c0.12118,-0.19385 0.24657,-0.38316 0.37601,-0.56796c0.54579,-1.30384 1.25512,-2.50231 2.13668,-3.54939c0.44798,-0.3388 0.89596,-0.67761 1.34395,-1.01641l0.98538,-0.3272c0,0 0.71221,-0.17805 1.06928,0.38073c7.4892,-3.37476 18.1534,-0.88294 23.18349,5.6079c0.66214,-1.49241 1.70785,-2.99629 2.38011,-4.34046c0.02934,-0.0679 0.05898,-0.13511 0.08893,-0.20167zM305.91127,226.3655c0.0364,0.06484 0.069,0.13833 0.09674,0.22155c0.31655,0.94966 -0.63311,1.26621 -0.63311,1.26621l-0.16187,-0.0111c-1.14857,0.90835 -1.81533,1.90805 -2.38429,3.2479c-0.79578,1.59195 -2.41933,3.68102 -2.7471,5.40533c-0.01874,0.09858 -0.03662,0.19743 -0.05368,0.29652c1.30334,2.61567 2.18711,6.32591 1.79031,9.19654c-0.07954,0.57545 -0.23241,1.10061 -0.43345,1.59522c1.98957,4.41344 5.76254,7.702 11.02784,7.57927c7.26025,-0.84037 17.23734,-6.35112 20.10324,-13.54557c1.37952,-3.46309 -0.77265,-8.58994 -2.3624,-11.59017c-1.13255,-1.01662 -2.24666,-2.44966 -3.5227,-3.25652c-5.14382,-3.25254 -14.76955,-3.80981 -20.71954,-0.40518zM271.56398,234.62645c-3.30433,8.44632 1.05323,21.88748 9.72304,24.45786c7.15577,3.94855 12.7307,-2.49904 15.9469,-8.36883c0.57148,-1.04298 1.39846,-2.01975 1.97111,-3.09737c-1.32902,-3.24958 -1.80411,-6.95677 -1.26883,-10.49772c-4.81964,-8.52135 -20.56766,-10.73806 -26.37221,-2.49395z" fill="#000000" stroke="none" stroke-width="0.5" stroke-linecap="butt"/><path d="M326.67216,226.71831c1.27604,0.80686 2.40343,2.25395 3.53598,3.27057c1.58975,3.00023 3.75351,8.17368 2.37398,11.63679c-2.8659,7.19445 -12.92614,12.76147 -20.18639,13.60184c-5.2653,0.12273 -9.08035,-3.19923 -11.06992,-7.61268c0.20103,-0.4946 0.35172,-1.02432 0.43127,-1.59977c0.39678,-2.87063 -0.49155,-6.61873 -1.79489,-9.2344c0.01704,-0.09909 0.03516,-0.19913 0.0539,-0.29771c0.32776,-1.72431 1.96026,-3.83625 2.75604,-5.4282c0.56896,-1.33985 1.24617,-2.3524 2.39474,-3.26076l0.16219,0.01078c0,0 0.95366,-0.32005 0.63711,-1.26971c-0.02774,-0.08322 -0.06014,-0.15687 -0.09654,-0.22171c5.94999,-3.40463 15.65872,-2.8476 20.80255,0.40494z" fill="#ffffff" stroke="none" stroke-width="0.5" stroke-linecap="butt"/><path d="M297.99361,237.08639c-0.53529,3.54094 -0.05205,7.29464 1.27697,10.54421c-0.57266,1.07762 -1.40481,2.07031 -1.97628,3.11329c-3.2162,5.86979 -8.86768,12.35373 -16.02344,8.40517c-8.66979,-2.57038 -13.06401,-16.1171 -9.75968,-24.56342c5.80455,-8.24411 21.66281,-6.0206 26.48244,2.50075z" fill="#ffffff" stroke="none" stroke-width="0.5" stroke-linecap="butt"/><path d="M293.0058,243.20156c0,-1.29 1.04575,-2.33574 2.33574,-2.33574c1.29,0 2.33574,1.04575 2.33574,2.33574c0,1.29 -1.04575,2.33574 -2.33574,2.33574c-1.29,0 -2.33574,-1.04575 -2.33574,-2.33574z" fill="#000000" stroke="none" stroke-width="0.5" stroke-linecap="butt"/><path d="M327.18373,238.54862c0,-1.29 1.04575,-2.33574 2.33574,-2.33574c1.29,0 2.33574,1.04575 2.33574,2.33574c0,1.29 -1.04575,2.33574 -2.33574,2.33574c-1.29,0 -2.33574,-1.04575 -2.33574,-2.33574z" fill="#000000" stroke="none" stroke-width="0.5" stroke-linecap="butt"/><path d="M249.64839,208.77292c0.24567,-0.97043 1.21608,-0.72476 1.21608,-0.72476l1.18063,0.30381c3.21666,0.16904 6.36671,1.04213 9.41034,2.08799c7.24813,2.49261 14.40423,5.16902 21.62223,7.6839c3.16151,1.10152 6.00453,3.07943 9.42975,3.07214c0,0 1.00103,0 1.00103,1.00103c0,1.00103 -1.00103,1.00103 -1.00103,1.00103c-3.70987,-0.00705 -6.67273,-1.99472 -10.08818,-3.18351c-7.21643,-2.51175 -14.36922,-5.19081 -21.61474,-7.68131c-2.93424,-1.0094 -5.95866,-1.83886 -9.05904,-2.00177l-1.37234,-0.34247c0,0 -0.97043,-0.24567 -0.72476,-1.21608z" fill="#000000" stroke="none" stroke-width="0.5" stroke-linecap="butt"/><path d="M327.57337,189.17063c0.70784,0.70784 0,1.41567 0,1.41567l-0.62754,0.62754c-1.52703,1.52529 -2.94179,3.10562 -4.15109,4.89321c-6.66186,9.27797 -13.60869,18.30106 -20.88379,27.19452c0,0 -0.63389,0.77476 -1.40865,0.14087c-0.77476,-0.63389 -0.14087,-1.40865 -0.14087,-1.40865c7.2439,-8.85196 14.19587,-17.8056 20.79057,-27.07116c1.28275,-1.88345 2.76795,-3.55253 4.37815,-5.16446l0.62754,-0.62754c0,0 0.70784,-0.70784 1.41567,0z" fill="#000000" stroke="none" stroke-width="0.5" stroke-linecap="butt"/><g stroke="#000000" stroke-width="0.5" stroke-linecap="round"><path d="M579.68538,197.24704l-105.5545,-10.27827l2.89334,-41.82819l106.27415,11.25636z" fill="#000000"/><path d="M581.02212,161.84064l116.74976,9.95594l-1.14443,5.61601l-10.92527,12.81242l-11.15254,6.69808l-16.46702,3.57297l-80.56839,-7.05368z" fill="#878787"/></g></g></g></svg>