<svg version="1.1" xmlns="http://www.w3.org/2000/svg" xmlns:xlink="http://www.w3.org/1999/xlink" width="2878.25006" height="1619.57958" viewBox="0,0,2878.25006,1619.57958"><g transform="translate(1119.12503,629.78979)"><g data-paper-data="{&quot;isPaintingLayer&quot;:true}" fill-rule="nonzero" stroke-linejoin="miter" stroke-miterlimit="10" stroke-dasharray="" stroke-dashoffset="0" style="mix-blend-mode: normal"><path d="M162.0507,167.59627l-0.42264,-1.09501c2.53509,-0.57257 4.25087,0.60083 6.58764,0.91857c0,-9.41142 0,-18.82283 0,-28.23425c0,0 0,-0.86428 0.75,-0.86428c0.75,0 0.75,0.86428 0.75,0.86428c0,9.45649 0,18.91299 0,28.36948c4.14647,0.36749 8.32118,1.06748 12.45171,1.66315c9.81343,1.4163 20.05998,0.28991 29.95306,0.57697c3.44924,0.10024 6.90367,0.04344 10.35399,0.0442c1.61832,0.00036 3.745,-0.50343 4.99098,1.13951c0.35,0.4615 0.11706,2.76667 0.11706,3.423c0,3.37037 0,6.74075 0,10.11113c0,10.43919 0,20.87837 0,31.31756c0,10.68731 0,21.37462 0,32.06193c0,11.17827 0,22.35654 0,33.53481c0,11.75143 0,23.50286 0,35.25428c0,6.33426 0.00459,12.66854 0,19.00279c-0.00118,1.6385 0.05043,5.5654 -0.90724,6.82706c-0.19624,0.25853 -2.0671,0.20481 -2.40491,0.20481c-1.86897,0 -3.73795,0 -5.60692,0c-9.17272,0 -18.08009,1.11308 -27.25585,1.48705c-4.65547,0.89049 -9.46939,0.41151 -14.15869,0.87714c-5.29319,0.52559 -10.40335,1.56454 -15.74983,1.58927c-9.86928,0.62543 -19.64106,1.70322 -29.55986,1.49532c-10.19031,-1.08945 -20.50714,0.86883 -30.73831,-0.37326c-5.28169,-0.64144 -10.48991,-1.29075 -15.74737,-2.19002c-5.42417,-0.92778 -9.93323,-1.73176 -11.93513,-8.33774c-1.97261,-11.29856 -2.69505,-22.44345 -2.50638,-33.95863c0.08267,-5.04154 0.84761,-10.64574 3.74051,-14.69847c0.86753,-1.21534 2.2944,-1.92462 3.34842,-2.86766c3.5046,-3.13559 6.62332,-5.649 10.86929,-7.46905c10.00282,-4.11692 18.86868,-3.17744 29.14803,-3.17744c9.41115,0 19.22733,-0.42745 28.59097,0.64674c5.42584,0.62526 10.80849,1.46474 16.05675,3.20097c1.44673,0.47861 2.93909,0.81531 4.37604,1.32376c0.44487,0.15741 0.97843,1.00063 1.29336,0.6058c0.41436,-0.51948 -0.21967,-1.396 -0.21967,-2.1016c0,-1.56113 0,-3.12225 0,-4.68338c0,-11.67073 0,-23.34147 0,-35.01221c0,-11.51011 0,-23.02022 0,-34.53033c0,-11.67149 0,-23.34298 0,-35.01448c0,-0.12403 0,-0.24806 0,-0.37209c-1.99529,-0.26162 -3.52887,-1.24819 -5.49613,-1.08652c-0.20413,0.14362 -0.43081,0.14361 -0.43081,0.14361l-0.03274,-0.08482c-0.10976,0.01884 -0.22098,0.04142 -0.33379,0.06804z" data-paper-data="{&quot;index&quot;:null}" fill="#7586a9" stroke="none" stroke-width="0.5" stroke-linecap="butt"/><path d="M504.63417,158.73684c0,0.86428 -0.75,0.86428 -0.75,0.86428l0.06597,-0.04435c-0.05732,0.02193 -0.11465,0.04319 -0.17199,0.06383c0,9.7635 0,19.527 0,29.2905c0,12.08932 0,24.17864 0,36.26796c0,11.49499 0,22.98997 0,34.48495c0,4.35758 0,8.71517 0,13.07274c0,0.3483 -0.29728,5.17324 -0.21967,5.24277c0.2492,0.22326 3.33677,-0.35802 3.76742,-0.40203c3.0222,-0.30881 6.0034,-0.61209 9.03838,-0.63222c6.81698,-0.04024 13.75566,-1.62324 20.54151,-2.29129c3.01089,-0.29641 6.43644,0.08858 9.33285,-0.86506c6.37364,-0.03319 14.56108,-2.13979 20.49876,1.67853c3.14648,2.02339 5.00478,4.66417 7.58015,7.41458c3.18887,3.41872 5.30348,7.75872 8.09794,11.54996c1.58228,2.14668 3.49866,4.11779 4.43066,6.82732c1.27486,3.7063 1.32728,8.36667 1.3333,12.28319c-0.00211,2.21135 0.65047,4.13553 0.3401,6.36444c-0.47776,3.43099 -1.81285,6.32352 -2.88585,9.5139c-1.82283,5.41989 -4.07701,12.07855 -8.16328,15.82584c-8.21755,7.44039 -19.91015,5.02417 -29.71729,5.03544c-4.12172,-0.00799 -8.15642,-1.00793 -12.25643,-1.38382c-5.60631,-0.51398 -11.34855,-0.67411 -16.96861,-0.79126c-5.92525,-1.35155 -12.49301,-2.40497 -18.54273,-1.9697c-3.01361,0.21682 -6.02889,0.78634 -9.04725,0.79038c-9.54555,0.72487 -19.06028,0.39882 -28.64613,0.39432c-4.69739,-0.44121 -9.46857,-0.19657 -14.17933,-0.19657c-0.9386,0 -4.86227,0.30778 -5.39519,-0.68479c-0.25953,-0.48338 0.05078,-3.38614 0.11289,-4.10003c0.24701,-2.83904 0.17834,-5.70366 0.20137,-8.55595c0.09497,-11.75546 0.01001,-23.51627 0.01001,-35.27228c0,-11.17827 0,-22.35654 0,-33.53481c0,-11.34645 0,-22.69291 0,-34.03937c0,-11.09758 0,-22.19515 0,-33.29273c0,-10.68428 0,-21.36857 0,-32.05285c0,-1.35827 -0.71731,-6.76319 0.16866,-7.69782c1.36305,-1.43793 4.81715,-1.00874 6.4918,-1.00874c5.38324,0 10.76648,0 16.14972,0c9.50934,0 19.03125,0.55316 28.51878,0.59608c2.60068,0.59678 5.28484,1.35584 7.90747,0.79151c0,-0.15435 0,-0.3087 0,-0.46304c0,0 0,-0.86428 0.75,-0.86428c0.75,0 0.75,0.86428 0.75,0.86428c0,0.02447 0,0.04895 0,0.07343l0.10602,-0.01152c0,0 0.75,0 0.75,0.86428z" data-paper-data="{&quot;index&quot;:null}" fill="#7586a9" stroke="none" stroke-width="0.5" stroke-linecap="butt"/><path d="M-1119.12503,989.78979v-1619.57958h2878.25006v1619.57958z" fill="none" stroke="#000000" stroke-width="0" stroke-linecap="butt"/><path d="M24.22286,206.1351l4.48557,-125.53676l301.94926,5.90206l1.18042,67.51954l278.28201,4.48557l2.08698,64.23773l-232.20819,-4.92205l-355.68146,-3.29877z" data-paper-data="{&quot;index&quot;:null}" fill="#7586a9" stroke="#000000" stroke-width="1" stroke-linecap="round"/><path d="M154.4296,203.11306l0.46527,-52.65241l46.06115,1.2407l0.15509,52.84628z" data-paper-data="{&quot;index&quot;:null}" fill="#a9bab7" stroke="#000000" stroke-width="1" stroke-linecap="round"/><path d="M166.52648,204.70271l0.77544,-54.74609l22.17759,0.46526l-0.31017,54.43591z" data-paper-data="{&quot;index&quot;:null}" fill="#330802" stroke="#000000" stroke-width="1" stroke-linecap="round"/><path d="M167.76717,178.33773h-8.37475l0.31018,-23.10811l7.90949,-0.31017z" data-paper-data="{&quot;index&quot;:null}" fill="#030510" stroke="#000000" stroke-width="1" stroke-linecap="round"/><path d="M189.32443,155.53979l7.28914,-0.15509v20.93688l-7.28914,-0.31017z" data-paper-data="{&quot;index&quot;:null}" fill="#030510" stroke="#000000" stroke-width="1" stroke-linecap="round"/><path d="M273.14955,191.44269l-39.85764,0.46526l-0.62036,-38.61693l41.40851,1.70597z" data-paper-data="{&quot;index&quot;:null}" fill="#1b1f41" stroke="#000000" stroke-width="1" stroke-linecap="round"/><path d="M263.37899,153.60119l0.93052,37.99658l-20.31653,0.62035l-0.77544,-38.46185z" data-paper-data="{&quot;index&quot;:null}" fill="#030510" stroke="#000000" stroke-width="1" stroke-linecap="round"/><path d="M285.59535,156.39278l40.16781,0.31018v33.8092h-41.40851z" data-paper-data="{&quot;index&quot;:null}" fill="#1b1f41" stroke="#000000" stroke-width="1" stroke-linecap="round"/><path d="M316.30279,156.39278v34.58464h-20.9369l0.1551,-35.20499z" data-paper-data="{&quot;index&quot;:null}" fill="#030510" stroke="#000000" stroke-width="1" stroke-linecap="round"/><path d="M533.8526,222.1889l0.31017,-60.48436l58.93347,-0.46526l0.31018,61.72506z" data-paper-data="{&quot;index&quot;:null}" fill="#d9cbb9" stroke="#000000" stroke-width="1" stroke-linecap="round"/><path d="M537.72981,221.10329l-0.31018,-56.14189l50.55871,-0.93053l1.08561,59.08855z" data-paper-data="{&quot;index&quot;:null}" fill="#535572" stroke="#000000" stroke-width="1" stroke-linecap="round"/><path d="M531.25488,159.99857l-0.31018,61.56997l-61.56997,-2.17123l-0.31018,-59.5926z" data-paper-data="{&quot;index&quot;:null}" fill="#d9cbb9" stroke="#000000" stroke-width="1" stroke-linecap="round"/><path d="M472.94175,219.5524v-56.91733l53.04012,0.77544l0.93054,58.4682z" data-paper-data="{&quot;index&quot;:null}" fill="#535572" stroke="#000000" stroke-width="1" stroke-linecap="round"/><path d="M465.8077,159.22314v60.17418l-65.91243,-0.77545l-1.2407,-60.63944z" data-paper-data="{&quot;index&quot;:null}" fill="#d9cbb9" stroke="#000000" stroke-width="1" stroke-linecap="round"/><path d="M404.23774,218.46678l-0.31018,-57.2275l57.53768,2.17124l0.15509,56.60715z" data-paper-data="{&quot;index&quot;:null}" fill="#535572" stroke="#000000" stroke-width="1" stroke-linecap="round"/><path d="M332.08301,153.87259l46.87538,0.73667l-0.93054,-4.96282l253.10374,1.43456l-3.56703,7.7544l-248.14093,-3.25684z" data-paper-data="{&quot;index&quot;:null}" fill="#beb4b0" stroke="#000000" stroke-width="1" stroke-linecap="round"/><path d="M378.18295,149.37503l1.86105,5.73826l-48.23239,-0.77544l0.46526,-11.01125l-311.88213,-3.56703l-9.46038,-12.71722l359.30031,4.96282l-0.93054,7.7544l57.34383,-0.46526l-17.99022,10.70108z" data-paper-data="{&quot;index&quot;:null}" fill="#beb4b0" stroke="#000000" stroke-width="1" stroke-linecap="round"/><path d="M357.61159,88.13826l-336.67405,-7.58357l-4.65264,-6.04845l347.23578,5.36753z" data-paper-data="{&quot;index&quot;:null}" fill="#beb4b0" stroke="#000000" stroke-width="1" stroke-linecap="round"/><path d="M290.67449,124.9099l-40.01272,-1.39579l-0.93053,-34.11938l40.78817,0.46527z" data-paper-data="{&quot;index&quot;:null}" fill="#1b1f41" stroke="#000000" stroke-width="1" stroke-linecap="round"/><path d="M280.90394,89.23964l-0.31018,36.13552l-22.64286,-1.39579l-0.31018,-35.04991z" data-paper-data="{&quot;index&quot;:null}" fill="#030510" stroke="#000000" stroke-width="1" stroke-linecap="round"/><path d="M208.98184,123.82427l-60.94962,-1.70596l-0.93052,-35.51518l62.81067,0.77545z" data-paper-data="{&quot;index&quot;:null}" fill="#1b1f41" stroke="#000000" stroke-width="1" stroke-linecap="round"/><path d="M199.83164,85.67261l0.15509,38.30675l-43.42466,-1.2407l1.3958,-36.29062l41.40851,0.93054z" data-paper-data="{&quot;index&quot;:null}" fill="#030510" stroke="#000000" stroke-width="1" stroke-linecap="round"/><path d="M106.15844,121.80813l-37.22114,-0.93054l0.77544,-36.44569l40.32291,1.70597z" data-paper-data="{&quot;index&quot;:null}" fill="#1b1f41" stroke="#000000" stroke-width="1" stroke-linecap="round"/><path d="M98.40404,85.36243l0.62035,36.91097l-22.33268,-0.46526l-0.31018,-37.68641z" data-paper-data="{&quot;index&quot;:null}" fill="#030510" stroke="#000000" stroke-width="1" stroke-linecap="round"/><path d="M121.0469,187.33284l-40.16781,-0.31018l0.62035,-36.60079l39.70254,0.62035z" data-paper-data="{&quot;index&quot;:null}" fill="#1b1f41" stroke="#000000" stroke-width="1" stroke-linecap="round"/><path d="M112.05178,149.95662l-1.08561,37.37622l-19.23094,-0.62035l0.46527,-36.44571z" data-paper-data="{&quot;index&quot;:null}" fill="#030510" stroke="#000000" stroke-width="1" stroke-linecap="round"/><path d="M70.75959,185.78198l-2.79159,0.31018l-35.82535,1.39579l1.3958,-36.44571l37.72517,0.31017z" data-paper-data="{&quot;index&quot;:null}" fill="#1b1f41" stroke="#000000" stroke-width="1" stroke-linecap="round"/><path d="M61.91957,150.88715l0.77544,34.42955l-20.62672,1.70596l0.31017,-35.82534z" data-paper-data="{&quot;index&quot;:null}" fill="#030510" stroke="#000000" stroke-width="1" stroke-linecap="round"/><path d="M141.10555,215.52857l13.62515,-12.65958l46.02508,1.18013l9.11919,12.12316l-69.41313,-0.32185z" data-paper-data="{&quot;index&quot;:null}" fill="#586141" stroke="#000000" stroke-width="1" stroke-linecap="round"/><g stroke="none" stroke-linecap="butt"><path d="M334.53126,174.54243c-0.00909,-0.00031 -0.01818,-0.00062 -0.02726,-0.00093c0,0 -0.68097,-0.02318 -0.36667,-0.0734c0.3143,-0.05022 0.99526,-0.02704 0.99526,-0.02704c0.00551,0.00019 0.01103,0.00038 0.01654,0.00056c0.16513,-0.00725 0.39461,-0.01065 0.68845,0.00019c0.25252,0.00931 0.36246,0.02213 0.40137,0.03449c2.35916,0.07034 4.82021,0.11594 7.21582,0.17934c4.4758,0.11845 8.35503,0.30933 13.03397,0.37844c1.56822,0.13832 0.68018,0.29779 0.01234,0.45764c-2.11169,0.50544 -8.3486,0.57496 -14.71612,0.48839c-1.063,-0.00116 -4.58119,-0.04599 -5.44988,-0.1038c-1.14601,-0.07627 -1.36719,-0.19407 -1.75123,-0.2968c-1.24487,-0.33299 -0.99044,-0.7003 -0.05256,-1.03708zM335.9399,174.58641c-0.84772,0.31385 -1.06829,0.65436 0.0898,0.96365c0.24331,0.06498 0.44935,0.18582 1.1796,0.23635c0.6236,0.04315 3.90585,0.08461 4.71033,0.08352c5.64351,0.0747 11.2892,0.04444 13.15191,-0.41172c0.27636,-0.06768 1.42302,-0.26046 0.67107,-0.32816c-4.58591,-0.0392 -8.48703,-0.25662 -12.79389,-0.37027c-2.32753,-0.06142 -4.7101,-0.107 -7.00883,-0.17337z" fill="#000000" stroke-width="0.5"/><path d="M342.92992,174.76164c4.30685,0.11365 8.27621,0.33394 12.86212,0.37314c0.75196,0.0677 -0.39634,0.26212 -0.67271,0.3298c-1.8627,0.45617 -7.57614,0.48871 -13.21965,0.41402c-0.80448,0.00109 -4.10441,-0.04132 -4.72801,-0.08447c-0.73025,-0.05053 -0.94455,-0.17233 -1.18786,-0.23732c-1.15809,-0.30929 -0.92841,-0.65377 -0.08069,-0.96762c2.29872,0.06637 4.69926,0.11104 7.02679,0.17245z" data-paper-data="{&quot;noHover&quot;:false,&quot;origItem&quot;:[&quot;Path&quot;,{&quot;applyMatrix&quot;:true,&quot;segments&quot;:[[[671.73618,315.90456],[4.59745,1.79997],[-1.69544,8.51154]],[[671.91578,342.03839],[-2.31618,-8.38781],[0.48662,1.76225]],[[674.27499,348.4482],[-1.4605,-1.37035],[1.24719,1.17021]],[[683.69566,350.7132],[-1.60896,0.02955],[11.28701,2.02564]],[[709.99947,339.54746],[-3.7254,12.37102],[0.55272,-1.83541]],[[711.34161,330.64792],[1.50391,1.83607],[-9.17182,-1.06311]],[[685.75383,320.60629],[8.61371,3.08214],[-4.65506,-1.66566]]],&quot;closed&quot;:true}]}" fill="#ffffff" stroke-width="0.5"/><path d="M381.6898,174.54435c-6.65053,0.16326 -11.26757,0.58717 -17.656,0.7758c-0.43863,0.01509 -0.8824,0.02939 -1.31588,0.04527c-0.30454,0.01115 -1.24038,0.0082 -0.96963,0.02337c2.28389,0.12797 3.92988,0.30688 6.38824,0.42891c3.24143,0.16091 7.80264,0.08527 11.06119,-0.03468c1.87469,-0.08499 5.07917,-0.24803 5.08732,-0.43825c0.00565,-0.13195 -0.67522,-0.25976 -0.74279,-0.39273c-0.05824,-0.11461 -0.40204,-0.33089 -1.85246,-0.4077zM382.85724,174.4744c1.60724,0.10792 2.1015,0.31926 2.18391,0.47339c0.07291,0.13637 0.78965,0.26862 0.74023,0.40473c-0.0847,0.23321 -3.48386,0.41949 -5.85445,0.52718c-3.76657,0.13911 -8.87939,0.21486 -12.61122,0.0306c-2.08648,-0.10302 -3.76423,-0.22881 -5.4124,-0.36656c-0.37065,-0.03098 -1.64167,-0.13398 -1.65082,-0.16319c-0.02299,-0.07338 2.61987,-0.14244 3.18538,-0.1619c5.97195,-0.17599 10.40413,-0.55359 16.37667,-0.73984c-0.01617,-0.00482 -0.02526,-0.01024 -0.02526,-0.01633c0,-0.05531 0.75,-0.05531 0.75,-0.05531l0.3861,0.00043c0.32205,0.00325 0.61997,0.0093 0.89548,0.01776c0.02328,-0.00051 0.04658,-0.00103 0.0699,-0.00153c0,0 0.71952,-0.01561 0.93115,0.03746c0.01859,0.00466 0.03,0.00903 0.03534,0.01313z" fill="#000000" stroke-width="0.5"/><path d="M383.58941,174.95082c0.06757,0.13297 0.75081,0.26252 0.74516,0.39448c-0.00815,0.19023 -3.23036,0.3556 -5.10505,0.44059c-3.25856,0.11995 -7.87745,0.1959 -11.11888,0.03499c-2.45836,-0.12204 -4.12751,-0.30339 -6.4114,-0.43136c-0.27076,-0.01517 0.66498,-0.01226 0.96952,-0.02342c0.43348,-0.01588 0.87693,-0.03033 1.31556,-0.04542c6.38842,-0.18863 11.08921,-0.61574 17.73974,-0.77901c1.45042,0.0768 1.80713,0.29455 1.86537,0.40915z" data-paper-data="{&quot;noHover&quot;:false,&quot;origItem&quot;:[&quot;Path&quot;,{&quot;applyMatrix&quot;:true,&quot;segments&quot;:[[[763.23598,314.76386],[2.90084,2.08276],[-13.30105,4.4276]],[[727.92399,335.80329],[12.77685,-5.11566],[-0.87725,0.40925]],[[725.29223,337.03102],[0.86696,-0.43061],[-0.60908,0.30253]],[[723.35298,337.66493],[-0.54151,-0.41143],[4.56778,3.47051]],[[736.12946,349.29681],[-4.91672,-3.30955],[6.48286,4.36376]],[[758.25185,348.35625],[-6.51712,3.25298],[3.74939,-2.30478]],[[768.42649,336.47104],[-0.0163,5.15885],[0.01131,-3.57851]],[[766.9409,325.82034],[0.13514,3.60606],[-0.11648,-3.10804]]],&quot;closed&quot;:true}]}" fill="#ffffff" stroke-width="0.5"/><path d="M345.85776,175.38467c0,-0.23079 2.53688,-0.41787 5.66628,-0.41787c3.1294,0 5.66628,0.18709 5.66628,0.41787c0,0.23079 -2.53688,0.41787 -5.66628,0.41787c-3.1294,0 -5.66628,-0.18709 -5.66628,-0.41787z" fill="#000000" stroke-width="0"/><path d="M373.89605,175.26219c0,-0.23079 2.53688,-0.41787 5.66627,-0.41787c3.1294,0 5.66628,0.18709 5.66628,0.41787c0,0.23079 -2.53688,0.41787 -5.66628,0.41787c-3.1294,0 -5.66627,-0.18709 -5.66627,-0.41787z" fill="#000000" stroke-width="0"/></g><path d="M344.73367,190.13797c-0.4932,-0.0822 -0.411,-0.5754 -0.411,-0.5754l0.09066,-0.50676c0.15205,-0.4532 0.26132,-0.92121 0.34644,-1.39159c1.4877,-5.21432 3.09573,-10.99002 9.23193,-11.37286c5.73138,-0.00172 10.72518,1.02608 15.79783,3.56004c1.24734,0.48336 2.02283,1.52932 3.1478,2.18543c2.64069,1.54011 8.63087,3.53508 9.41962,6.70959c0,0 0.10847,0.48809 -0.37963,0.59656c-0.48809,0.10847 -0.59656,-0.37963 -0.59656,-0.37963c-0.21704,-1.18933 -1.81342,-2.07344 -2.79827,-2.63586c-2.04236,-1.16633 -4.14529,-2.23285 -6.16499,-3.4364c-1.07405,-0.64003 -1.8267,-1.691 -3.02769,-2.12306c-4.93617,-2.47009 -9.78035,-3.47542 -15.3669,-3.47716c-5.57596,0.34912 -6.93441,5.86527 -8.28926,10.60043c-0.09143,0.50061 -0.21156,0.99768 -0.37164,1.48074l-0.05295,0.35493c0,0 -0.0822,0.4932 -0.5754,0.411z" fill="#000000" stroke="none" stroke-width="0.5" stroke-linecap="butt"/></g></g></svg>