<svg version="1.1" xmlns="http://www.w3.org/2000/svg" xmlns:xlink="http://www.w3.org/1999/xlink" width="2878.25006" height="1619.57958" viewBox="0,0,2878.25006,1619.57958"><g transform="translate(1119.12503,629.78979)"><g data-paper-data="{&quot;isPaintingLayer&quot;:true}" fill-rule="nonzero" stroke-linejoin="miter" stroke-miterlimit="10" stroke-dasharray="" stroke-dashoffset="0" style="mix-blend-mode: normal"><path d="M162.0507,167.59627l-0.42264,-1.09501c2.53509,-0.57257 4.25087,0.60083 6.58764,0.91857c0,-9.41142 0,-18.82283 0,-28.23425c0,0 0,-0.86428 0.75,-0.86428c0.75,0 0.75,0.86428 0.75,0.86428c0,9.45649 0,18.91299 0,28.36948c4.14647,0.36749 8.32118,1.06748 12.45171,1.66315c9.81343,1.4163 20.05998,0.28991 29.95306,0.57697c3.44924,0.10024 6.90367,0.04344 10.35399,0.0442c1.61832,0.00036 3.745,-0.50343 4.99098,1.13951c0.35,0.4615 0.11706,2.76667 0.11706,3.423c0,3.37037 0,6.74075 0,10.11113c0,10.43919 0,20.87837 0,31.31756c0,10.68731 0,21.37462 0,32.06193c0,11.17827 0,22.35654 0,33.53481c0,11.75143 0,23.50286 0,35.25428c0,6.33426 0.00459,12.66854 0,19.00279c-0.00118,1.6385 0.05043,5.5654 -0.90724,6.82706c-0.19624,0.25853 -2.0671,0.20481 -2.40491,0.20481c-1.86897,0 -3.73795,0 -5.60692,0c-9.17272,0 -18.08009,1.11308 -27.25585,1.48705c-4.65547,0.89049 -9.46939,0.41151 -14.15869,0.87714c-5.29319,0.52559 -10.40335,1.56454 -15.74983,1.58927c-9.86928,0.62543 -19.64106,1.70322 -29.55986,1.49532c-10.19031,-1.08945 -20.50714,0.86883 -30.73831,-0.37326c-5.28169,-0.64144 -10.48991,-1.29075 -15.74737,-2.19002c-5.42417,-0.92778 -9.93323,-1.73176 -11.93513,-8.33774c-1.97261,-11.29856 -2.69505,-22.44345 -2.50638,-33.95863c0.08267,-5.04154 0.84761,-10.64574 3.74051,-14.69847c0.86753,-1.21534 2.2944,-1.92462 3.34842,-2.86766c3.5046,-3.13559 6.62332,-5.649 10.86929,-7.46905c10.00282,-4.11692 18.86868,-3.17744 29.14803,-3.17744c9.41115,0 19.22733,-0.42745 28.59097,0.64674c5.42584,0.62526 10.80849,1.46474 16.05675,3.20097c1.44673,0.47861 2.93909,0.81531 4.37604,1.32376c0.44487,0.15741 0.97843,1.00063 1.29336,0.6058c0.41436,-0.51948 -0.21967,-1.396 -0.21967,-2.1016c0,-1.56113 0,-3.12225 0,-4.68338c0,-11.67073 0,-23.34147 0,-35.01221c0,-11.51011 0,-23.02022 0,-34.53033c0,-11.67149 0,-23.34298 0,-35.01448c0,-0.12403 0,-0.24806 0,-0.37209c-1.99529,-0.26162 -3.52887,-1.24819 -5.49613,-1.08652c-0.20413,0.14362 -0.43081,0.14361 -0.43081,0.14361l-0.03274,-0.08482c-0.10976,0.01884 -0.22098,0.04142 -0.33379,0.06804z" data-paper-data="{&quot;index&quot;:null}" fill="#7586a9" stroke="none" stroke-width="0.5" stroke-linecap="butt"/><path d="M504.63417,158.73684c0,0.86428 -0.75,0.86428 -0.75,0.86428l0.06597,-0.04435c-0.05732,0.02193 -0.11465,0.04319 -0.17199,0.06383c0,9.7635 0,19.527 0,29.2905c0,12.08932 0,24.17864 0,36.26796c0,11.49499 0,22.98997 0,34.48495c0,4.35758 0,8.71517 0,13.07274c0,0.3483 -0.29728,5.17324 -0.21967,5.24277c0.2492,0.22326 3.33677,-0.35802 3.76742,-0.40203c3.0222,-0.30881 6.0034,-0.61209 9.03838,-0.63222c6.81698,-0.04024 13.75566,-1.62324 20.54151,-2.29129c3.01089,-0.29641 6.43644,0.08858 9.33285,-0.86506c6.37364,-0.03319 14.56108,-2.13979 20.49876,1.67853c3.14648,2.02339 5.00478,4.66417 7.58015,7.41458c3.18887,3.41872 5.30348,7.75872 8.09794,11.54996c1.58228,2.14668 3.49866,4.11779 4.43066,6.82732c1.27486,3.7063 1.32728,8.36667 1.3333,12.28319c-0.00211,2.21135 0.65047,4.13553 0.3401,6.36444c-0.47776,3.43099 -1.81285,6.32352 -2.88585,9.5139c-1.82283,5.41989 -4.07701,12.07855 -8.16328,15.82584c-8.21755,7.44039 -19.91015,5.02417 -29.71729,5.03544c-4.12172,-0.00799 -8.15642,-1.00793 -12.25643,-1.38382c-5.60631,-0.51398 -11.34855,-0.67411 -16.96861,-0.79126c-5.92525,-1.35155 -12.49301,-2.40497 -18.54273,-1.9697c-3.01361,0.21682 -6.02889,0.78634 -9.04725,0.79038c-9.54555,0.72487 -19.06028,0.39882 -28.64613,0.39432c-4.69739,-0.44121 -9.46857,-0.19657 -14.17933,-0.19657c-0.9386,0 -4.86227,0.30778 -5.39519,-0.68479c-0.25953,-0.48338 0.05078,-3.38614 0.11289,-4.10003c0.24701,-2.83904 0.17834,-5.70366 0.20137,-8.55595c0.09497,-11.75546 0.01001,-23.51627 0.01001,-35.27228c0,-11.17827 0,-22.35654 0,-33.53481c0,-11.34645 0,-22.69291 0,-34.03937c0,-11.09758 0,-22.19515 0,-33.29273c0,-10.68428 0,-21.36857 0,-32.05285c0,-1.35827 -0.71731,-6.76319 0.16866,-7.69782c1.36305,-1.43793 4.81715,-1.00874 6.4918,-1.00874c5.38324,0 10.76648,0 16.14972,0c9.50934,0 19.03125,0.55316 28.51878,0.59608c2.60068,0.59678 5.28484,1.35584 7.90747,0.79151c0,-0.15435 0,-0.3087 0,-0.46304c0,0 0,-0.86428 0.75,-0.86428c0.75,0 0.75,0.86428 0.75,0.86428c0,0.02447 0,0.04895 0,0.07343l0.10602,-0.01152c0,0 0.75,0 0.75,0.86428z" data-paper-data="{&quot;index&quot;:null}" fill="#7586a9" stroke="none" stroke-width="0.5" stroke-linecap="butt"/><path d="M-1119.12503,989.78979v-1619.57958h2878.25006v1619.57958z" fill="none" stroke="#000000" stroke-width="0" stroke-linecap="butt"/><path d="M24.22286,206.1351l4.48557,-125.53676l301.94926,5.90206l1.18042,67.51954l278.28201,4.48557l2.08698,64.23773l-232.20819,-4.92205l-355.68146,-3.29877z" data-paper-data="{&quot;index&quot;:null}" fill="#7586a9" stroke="#000000" stroke-width="1" stroke-linecap="round"/><path d="M154.4296,203.11306l0.46527,-52.65241l46.06115,1.2407l0.15509,52.84628z" data-paper-data="{&quot;index&quot;:null}" fill="#a9bab7" stroke="#000000" stroke-width="1" stroke-linecap="round"/><path d="M166.52648,204.70271l0.77544,-54.74609l22.17759,0.46526l-0.31017,54.43591z" data-paper-data="{&quot;index&quot;:null}" fill="#330802" stroke="#000000" stroke-width="1" stroke-linecap="round"/><path d="M167.76717,178.33773h-8.37475l0.31018,-23.10811l7.90949,-0.31017z" data-paper-data="{&quot;index&quot;:null}" fill="#030510" stroke="#000000" stroke-width="1" stroke-linecap="round"/><path d="M189.32443,155.53979l7.28914,-0.15509v20.93688l-7.28914,-0.31017z" data-paper-data="{&quot;index&quot;:null}" fill="#030510" stroke="#000000" stroke-width="1" stroke-linecap="round"/><path d="M273.14955,191.44269l-39.85764,0.46526l-0.62036,-38.61693l41.40851,1.70597z" data-paper-data="{&quot;index&quot;:null}" fill="#1b1f41" stroke="#000000" stroke-width="1" stroke-linecap="round"/><path d="M263.37899,153.60119l0.93052,37.99658l-20.31653,0.62035l-0.77544,-38.46185z" data-paper-data="{&quot;index&quot;:null}" fill="#030510" stroke="#000000" stroke-width="1" stroke-linecap="round"/><path d="M285.59535,156.39278l40.16781,0.31018v33.8092h-41.40851z" data-paper-data="{&quot;index&quot;:null}" fill="#1b1f41" stroke="#000000" stroke-width="1" stroke-linecap="round"/><path d="M316.30279,156.39278v34.58464h-20.9369l0.1551,-35.20499z" data-paper-data="{&quot;index&quot;:null}" fill="#030510" stroke="#000000" stroke-width="1" stroke-linecap="round"/><path d="M533.8526,222.1889l0.31017,-60.48436l58.93347,-0.46526l0.31018,61.72506z" data-paper-data="{&quot;index&quot;:null}" fill="#d9cbb9" stroke="#000000" stroke-width="1" stroke-linecap="round"/><path d="M537.72981,221.10329l-0.31018,-56.14189l50.55871,-0.93053l1.08561,59.08855z" data-paper-data="{&quot;index&quot;:null}" fill="#535572" stroke="#000000" stroke-width="1" stroke-linecap="round"/><path d="M531.25488,159.99857l-0.31018,61.56997l-61.56997,-2.17123l-0.31018,-59.5926z" data-paper-data="{&quot;index&quot;:null}" fill="#d9cbb9" stroke="#000000" stroke-width="1" stroke-linecap="round"/><path d="M472.94175,219.5524v-56.91733l53.04012,0.77544l0.93054,58.4682z" data-paper-data="{&quot;index&quot;:null}" fill="#535572" stroke="#000000" stroke-width="1" stroke-linecap="round"/><path d="M465.8077,159.22314v60.17418l-65.91243,-0.77545l-1.2407,-60.63944z" data-paper-data="{&quot;index&quot;:null}" fill="#d9cbb9" stroke="#000000" stroke-width="1" stroke-linecap="round"/><path d="M404.23774,218.46678l-0.31018,-57.2275l57.53768,2.17124l0.15509,56.60715z" data-paper-data="{&quot;index&quot;:null}" fill="#535572" stroke="#000000" stroke-width="1" stroke-linecap="round"/><path d="M332.08301,153.87259l46.87538,0.73667l-0.93054,-4.96282l253.10374,1.43456l-3.56703,7.7544l-248.14093,-3.25684z" data-paper-data="{&quot;index&quot;:null}" fill="#beb4b0" stroke="#000000" stroke-width="1" stroke-linecap="round"/><path d="M378.18295,149.37503l1.86105,5.73826l-48.23239,-0.77544l0.46526,-11.01125l-311.88213,-3.56703l-9.46038,-12.71722l359.30031,4.96282l-0.93054,7.7544l57.34383,-0.46526l-17.99022,10.70108z" data-paper-data="{&quot;index&quot;:null}" fill="#beb4b0" stroke="#000000" stroke-width="1" stroke-linecap="round"/><path d="M357.61159,88.13826l-336.67405,-7.58357l-4.65264,-6.04845l347.23578,5.36753z" data-paper-data="{&quot;index&quot;:null}" fill="#beb4b0" stroke="#000000" stroke-width="1" stroke-linecap="round"/><path d="M290.67449,124.9099l-40.01272,-1.39579l-0.93053,-34.11938l40.78817,0.46527z" data-paper-data="{&quot;index&quot;:null}" fill="#1b1f41" stroke="#000000" stroke-width="1" stroke-linecap="round"/><path d="M280.90394,89.23964l-0.31018,36.13552l-22.64286,-1.39579l-0.31018,-35.04991z" data-paper-data="{&quot;index&quot;:null}" fill="#030510" stroke="#000000" stroke-width="1" stroke-linecap="round"/><path d="M208.98184,123.82427l-60.94962,-1.70596l-0.93052,-35.51518l62.81067,0.77545z" data-paper-data="{&quot;index&quot;:null}" fill="#1b1f41" stroke="#000000" stroke-width="1" stroke-linecap="round"/><path d="M199.83164,85.67261l0.15509,38.30675l-43.42466,-1.2407l1.3958,-36.29062l41.40851,0.93054z" data-paper-data="{&quot;index&quot;:null}" fill="#030510" stroke="#000000" stroke-width="1" stroke-linecap="round"/><path d="M106.15844,121.80813l-37.22114,-0.93054l0.77544,-36.44569l40.32291,1.70597z" data-paper-data="{&quot;index&quot;:null}" fill="#1b1f41" stroke="#000000" stroke-width="1" stroke-linecap="round"/><path d="M98.40404,85.36243l0.62035,36.91097l-22.33268,-0.46526l-0.31018,-37.68641z" data-paper-data="{&quot;index&quot;:null}" fill="#030510" stroke="#000000" stroke-width="1" stroke-linecap="round"/><path d="M121.0469,187.33284l-40.16781,-0.31018l0.62035,-36.60079l39.70254,0.62035z" data-paper-data="{&quot;index&quot;:null}" fill="#1b1f41" stroke="#000000" stroke-width="1" stroke-linecap="round"/><path d="M112.05178,149.95662l-1.08561,37.37622l-19.23094,-0.62035l0.46527,-36.44571z" data-paper-data="{&quot;index&quot;:null}" fill="#030510" stroke="#000000" stroke-width="1" stroke-linecap="round"/><path d="M70.75959,185.78198l-2.79159,0.31018l-35.82535,1.39579l1.3958,-36.44571l37.72517,0.31017z" data-paper-data="{&quot;index&quot;:null}" fill="#1b1f41" stroke="#000000" stroke-width="1" stroke-linecap="round"/><path d="M61.91957,150.88715l0.77544,34.42955l-20.62672,1.70596l0.31017,-35.82534z" data-paper-data="{&quot;index&quot;:null}" fill="#030510" stroke="#000000" stroke-width="1" stroke-linecap="round"/><path d="M141.10555,215.52857l13.62515,-12.65958l46.02508,1.18013l9.11919,12.12316l-69.41313,-0.32185z" data-paper-data="{&quot;index&quot;:null}" fill="#586141" stroke="#000000" stroke-width="1" stroke-linecap="round"/><g stroke="none" stroke-linecap="butt"><path d="M334.53126,176.12124c-0.00909,0.00002 -0.01818,0.00004 -0.02726,0.00006c0,0 -0.68097,0.0016 -0.36667,0.00506c0.3143,0.00346 0.99526,0.00186 0.99526,0.00186c0.00551,-0.00001 0.01103,-0.00003 0.01654,-0.00004c0.16513,0.0005 0.39461,0.00073 0.68845,-0.00001c0.25252,-0.00064 0.36246,-0.00153 0.40137,-0.00238c2.35916,-0.00485 4.82021,-0.00799 7.21582,-0.01236c4.4758,-0.00816 8.35503,-0.02132 13.03397,-0.02608c1.56822,-0.00953 0.68018,-0.02052 0.01234,-0.03154c-2.11169,-0.03484 -8.3486,-0.03963 -14.71612,-0.03366c-1.063,0.00008 -4.58119,0.00317 -5.44988,0.00715c-1.14601,0.00526 -1.36719,0.01338 -1.75123,0.02046c-1.24487,0.02295 -0.99044,0.04827 -0.05256,0.07148zM335.9399,176.11821c-0.84772,-0.02163 -1.06829,-0.0451 0.0898,-0.06642c0.24331,-0.00448 0.44935,-0.01281 1.1796,-0.01629c0.6236,-0.00297 3.90585,-0.00583 4.71033,-0.00576c5.64351,-0.00515 11.2892,-0.00306 13.15191,0.02838c0.27636,0.00466 1.42302,0.01795 0.67107,0.02262c-4.58591,0.0027 -8.48703,0.01769 -12.79389,0.02552c-2.32753,0.00423 -4.7101,0.00737 -7.00883,0.01195z" fill="#000000" stroke-width="0.5"/><path d="M342.92992,176.10613c4.30685,-0.00783 8.27621,-0.02302 12.86212,-0.02572c0.75196,-0.00467 -0.39634,-0.01807 -0.67271,-0.02273c-1.8627,-0.03144 -7.57614,-0.03368 -13.21965,-0.02854c-0.80448,-0.00008 -4.10441,0.00285 -4.72801,0.00582c-0.73025,0.00348 -0.94455,0.01188 -1.18786,0.01636c-1.15809,0.02132 -0.92841,0.04506 -0.08069,0.06669c2.29872,-0.00457 4.69926,-0.00765 7.02679,-0.01189z" data-paper-data="{&quot;noHover&quot;:false,&quot;origItem&quot;:[&quot;Path&quot;,{&quot;applyMatrix&quot;:true,&quot;segments&quot;:[[[671.73618,315.90456],[4.59745,1.79997],[-1.69544,8.51154]],[[671.91578,342.03839],[-2.31618,-8.38781],[0.48662,1.76225]],[[674.27499,348.4482],[-1.4605,-1.37035],[1.24719,1.17021]],[[683.69566,350.7132],[-1.60896,0.02955],[11.28701,2.02564]],[[709.99947,339.54746],[-3.7254,12.37102],[0.55272,-1.83541]],[[711.34161,330.64792],[1.50391,1.83607],[-9.17182,-1.06311]],[[685.75383,320.60629],[8.61371,3.08214],[-4.65506,-1.66566]]],&quot;closed&quot;:true}]}" fill="#ffffff" stroke-width="0.5"/><path d="M381.6898,176.12111c-6.65053,-0.01125 -11.26757,-0.04047 -17.656,-0.05347c-0.43863,-0.00104 -0.8824,-0.00203 -1.31588,-0.00312c-0.30454,-0.00077 -1.24038,-0.00057 -0.96963,-0.00161c2.28389,-0.00882 3.92988,-0.02115 6.38824,-0.02956c3.24143,-0.01109 7.80264,-0.00588 11.06119,0.00239c1.87469,0.00586 5.07917,0.0171 5.08732,0.03021c0.00565,0.00909 -0.67522,0.0179 -0.74279,0.02707c-0.05824,0.0079 -0.40204,0.02281 -1.85246,0.0281zM382.85724,176.12593c1.60724,-0.00744 2.1015,-0.022 2.18391,-0.03263c0.07291,-0.0094 0.78965,-0.01851 0.74023,-0.0279c-0.0847,-0.01607 -3.48386,-0.02891 -5.85445,-0.03634c-3.76657,-0.00959 -8.87939,-0.01481 -12.61122,-0.00211c-2.08648,0.0071 -3.76423,0.01577 -5.4124,0.02526c-0.37065,0.00214 -1.64167,0.00923 -1.65082,0.01125c-0.02299,0.00506 2.61987,0.00982 3.18538,0.01116c5.97195,0.01213 10.40413,0.03816 16.37667,0.05099c-0.01617,0.00033 -0.02526,0.00071 -0.02526,0.00113c0,0.00381 0.75,0.00381 0.75,0.00381l0.3861,-0.00003c0.32205,-0.00022 0.61997,-0.00064 0.89548,-0.00122c0.02328,0.00004 0.04658,0.00007 0.0699,0.00011c0,0 0.71952,0.00108 0.93115,-0.00258c0.01859,-0.00032 0.03,-0.00062 0.03534,-0.0009z" fill="#000000" stroke-width="0.5"/><path d="M383.58941,176.09309c0.06757,-0.00916 0.75081,-0.01809 0.74516,-0.02719c-0.00815,-0.01311 -3.23036,-0.02451 -5.10505,-0.03037c-3.25856,-0.00827 -7.87745,-0.0135 -11.11888,-0.00241c-2.45836,0.00841 -4.12751,0.02091 -6.4114,0.02973c-0.27076,0.00105 0.66498,0.00085 0.96952,0.00161c0.43348,0.00109 0.87693,0.00209 1.31556,0.00313c6.38842,0.013 11.08921,0.04244 17.73974,0.05369c1.45042,-0.00529 1.80713,-0.0203 1.86537,-0.0282z" data-paper-data="{&quot;noHover&quot;:false,&quot;origItem&quot;:[&quot;Path&quot;,{&quot;applyMatrix&quot;:true,&quot;segments&quot;:[[[763.23598,314.76386],[2.90084,2.08276],[-13.30105,4.4276]],[[727.92399,335.80329],[12.77685,-5.11566],[-0.87725,0.40925]],[[725.29223,337.03102],[0.86696,-0.43061],[-0.60908,0.30253]],[[723.35298,337.66493],[-0.54151,-0.41143],[4.56778,3.47051]],[[736.12946,349.29681],[-4.91672,-3.30955],[6.48286,4.36376]],[[758.25185,348.35625],[-6.51712,3.25298],[3.74939,-2.30478]],[[768.42649,336.47104],[-0.0163,5.15885],[0.01131,-3.57851]],[[766.9409,325.82034],[0.13514,3.60606],[-0.11648,-3.10804]]],&quot;closed&quot;:true}]}" fill="#ffffff" stroke-width="0.5"/><path d="M345.85776,176.06319c0,0.01591 2.53688,0.0288 5.66628,0.0288c3.1294,0 5.66628,-0.01289 5.66628,-0.0288c0,-0.01591 -2.53688,-0.0288 -5.66628,-0.0288c-3.1294,0 -5.66628,0.01289 -5.66628,0.0288z" fill="#000000" stroke-width="0"/><path d="M373.89605,176.07163c0,0.01591 2.53688,0.0288 5.66627,0.0288c3.1294,0 5.66628,-0.01289 5.66628,-0.0288c0,-0.01591 -2.53688,-0.0288 -5.66628,-0.0288c-3.1294,0 -5.66627,0.01289 -5.66627,0.0288z" fill="#000000" stroke-width="0"/></g><path d="M345.15854,186.13435c-0.16172,-0.32343 0.02744,-0.52991 0.14453,-0.61943c0.46055,-2.16502 1.99999,-4.31182 3.71928,-5.61679c5.1495,-2.90003 12.83068,-3.66663 18.59975,-2.22929c1.51407,0.33688 3.17343,0.55143 4.59634,1.18359c2.32349,1.03226 3.84809,3.49033 5.75423,5.08945c0.91937,0.77129 1.97614,1.14075 2.48873,2.27456c0,0 0.19696,0.45957 -0.26261,0.65653c-0.45957,0.19696 -0.65653,-0.26261 -0.65653,-0.26261c-0.44453,-1.1297 -2.11757,-1.76422 -2.96637,-2.63329c-2.90764,-2.97706 -5.09217,-4.42696 -9.18355,-5.33498c-5.49415,-1.3785 -12.90808,-0.66177 -17.82107,2.09191c-1.54642,1.17872 -3.02139,3.2229 -3.32872,5.18713l-0.41321,0.43682c0,0 -0.44721,0.22361 -0.67082,-0.22361z" fill="#000000" stroke="none" stroke-width="0.5" stroke-linecap="butt"/></g></g></svg>