<svg version="1.1" xmlns="http://www.w3.org/2000/svg" xmlns:xlink="http://www.w3.org/1999/xlink" width="2878.25006" height="1619.57958" viewBox="0,0,2878.25006,1619.57958"><g transform="translate(1119.12503,629.78979)"><g data-paper-data="{&quot;isPaintingLayer&quot;:true}" fill-rule="nonzero" stroke-linejoin="miter" stroke-miterlimit="10" stroke-dasharray="" stroke-dashoffset="0" style="mix-blend-mode: normal"><path d="M162.0507,167.59627l-0.42264,-1.09501c2.53509,-0.57257 4.25087,0.60083 6.58764,0.91857c0,-9.41142 0,-18.82283 0,-28.23425c0,0 0,-0.86428 0.75,-0.86428c0.75,0 0.75,0.86428 0.75,0.86428c0,9.45649 0,18.91299 0,28.36948c4.14647,0.36749 8.32118,1.06748 12.45171,1.66315c9.81343,1.4163 20.05998,0.28991 29.95306,0.57697c3.44924,0.10024 6.90367,0.04344 10.35399,0.0442c1.61832,0.00036 3.745,-0.50343 4.99098,1.13951c0.35,0.4615 0.11706,2.76667 0.11706,3.423c0,3.37037 0,6.74075 0,10.11113c0,10.43919 0,20.87837 0,31.31756c0,10.68731 0,21.37462 0,32.06193c0,11.17827 0,22.35654 0,33.53481c0,11.75143 0,23.50286 0,35.25428c0,6.33426 0.00459,12.66854 0,19.00279c-0.00118,1.6385 0.05043,5.5654 -0.90724,6.82706c-0.19624,0.25853 -2.0671,0.20481 -2.40491,0.20481c-1.86897,0 -3.73795,0 -5.60692,0c-9.17272,0 -18.08009,1.11308 -27.25585,1.48705c-4.65547,0.89049 -9.46939,0.41151 -14.15869,0.87714c-5.29319,0.52559 -10.40335,1.56454 -15.74983,1.58927c-9.86928,0.62543 -19.64106,1.70322 -29.55986,1.49532c-10.19031,-1.08945 -20.50714,0.86883 -30.73831,-0.37326c-5.28169,-0.64144 -10.48991,-1.29075 -15.74737,-2.19002c-5.42417,-0.92778 -9.93323,-1.73176 -11.93513,-8.33774c-1.97261,-11.29856 -2.69505,-22.44345 -2.50638,-33.95863c0.08267,-5.04154 0.84761,-10.64574 3.74051,-14.69847c0.86753,-1.21534 2.2944,-1.92462 3.34842,-2.86766c3.5046,-3.13559 6.62332,-5.649 10.86929,-7.46905c10.00282,-4.11692 18.86868,-3.17744 29.14803,-3.17744c9.41115,0 19.22733,-0.42745 28.59097,0.64674c5.42584,0.62526 10.80849,1.46474 16.05675,3.20097c1.44673,0.47861 2.93909,0.81531 4.37604,1.32376c0.44487,0.15741 0.97843,1.00063 1.29336,0.6058c0.41436,-0.51948 -0.21967,-1.396 -0.21967,-2.1016c0,-1.56113 0,-3.12225 0,-4.68338c0,-11.67073 0,-23.34147 0,-35.01221c0,-11.51011 0,-23.02022 0,-34.53033c0,-11.67149 0,-23.34298 0,-35.01448c0,-0.12403 0,-0.24806 0,-0.37209c-1.99529,-0.26162 -3.52887,-1.24819 -5.49613,-1.08652c-0.20413,0.14362 -0.43081,0.14361 -0.43081,0.14361l-0.03274,-0.08482c-0.10976,0.01884 -0.22098,0.04142 -0.33379,0.06804z" data-paper-data="{&quot;index&quot;:null}" fill="#7586a9" stroke="none" stroke-width="0.5" stroke-linecap="butt"/><path d="M504.63417,158.73684c0,0.86428 -0.75,0.86428 -0.75,0.86428l0.06597,-0.04435c-0.05732,0.02193 -0.11465,0.04319 -0.17199,0.06383c0,9.7635 0,19.527 0,29.2905c0,12.08932 0,24.17864 0,36.26796c0,11.49499 0,22.98997 0,34.48495c0,4.35758 0,8.71517 0,13.07274c0,0.3483 -0.29728,5.17324 -0.21967,5.24277c0.2492,0.22326 3.33677,-0.35802 3.76742,-0.40203c3.0222,-0.30881 6.0034,-0.61209 9.03838,-0.63222c6.81698,-0.04024 13.75566,-1.62324 20.54151,-2.29129c3.01089,-0.29641 6.43644,0.08858 9.33285,-0.86506c6.37364,-0.03319 14.56108,-2.13979 20.49876,1.67853c3.14648,2.02339 5.00478,4.66417 7.58015,7.41458c3.18887,3.41872 5.30348,7.75872 8.09794,11.54996c1.58228,2.14668 3.49866,4.11779 4.43066,6.82732c1.27486,3.7063 1.32728,8.36667 1.3333,12.28319c-0.00211,2.21135 0.65047,4.13553 0.3401,6.36444c-0.47776,3.43099 -1.81285,6.32352 -2.88585,9.5139c-1.82283,5.41989 -4.07701,12.07855 -8.16328,15.82584c-8.21755,7.44039 -19.91015,5.02417 -29.71729,5.03544c-4.12172,-0.00799 -8.15642,-1.00793 -12.25643,-1.38382c-5.60631,-0.51398 -11.34855,-0.67411 -16.96861,-0.79126c-5.92525,-1.35155 -12.49301,-2.40497 -18.54273,-1.9697c-3.01361,0.21682 -6.02889,0.78634 -9.04725,0.79038c-9.54555,0.72487 -19.06028,0.39882 -28.64613,0.39432c-4.69739,-0.44121 -9.46857,-0.19657 -14.17933,-0.19657c-0.9386,0 -4.86227,0.30778 -5.39519,-0.68479c-0.25953,-0.48338 0.05078,-3.38614 0.11289,-4.10003c0.24701,-2.83904 0.17834,-5.70366 0.20137,-8.55595c0.09497,-11.75546 0.01001,-23.51627 0.01001,-35.27228c0,-11.17827 0,-22.35654 0,-33.53481c0,-11.34645 0,-22.69291 0,-34.03937c0,-11.09758 0,-22.19515 0,-33.29273c0,-10.68428 0,-21.36857 0,-32.05285c0,-1.35827 -0.71731,-6.76319 0.16866,-7.69782c1.36305,-1.43793 4.81715,-1.00874 6.4918,-1.00874c5.38324,0 10.76648,0 16.14972,0c9.50934,0 19.03125,0.55316 28.51878,0.59608c2.60068,0.59678 5.28484,1.35584 7.90747,0.79151c0,-0.15435 0,-0.3087 0,-0.46304c0,0 0,-0.86428 0.75,-0.86428c0.75,0 0.75,0.86428 0.75,0.86428c0,0.02447 0,0.04895 0,0.07343l0.10602,-0.01152c0,0 0.75,0 0.75,0.86428z" data-paper-data="{&quot;index&quot;:null}" fill="#7586a9" stroke="none" stroke-width="0.5" stroke-linecap="butt"/><path d="M-1119.12503,989.78979v-1619.57958h2878.25006v1619.57958z" fill="none" stroke="#000000" stroke-width="0" stroke-linecap="butt"/><g><path d="M23.94316,206.1351l4.48557,-125.53676l301.94926,5.90206l1.18042,67.51954l278.28201,4.48557l2.08698,64.23773l-232.20819,-4.92205l-355.68146,-3.29877z" data-paper-data="{&quot;index&quot;:null}" fill="#7586a9" stroke="#000000" stroke-width="1" stroke-linecap="round"/><path d="M154.4296,203.11306l0.46527,-52.65241l46.06115,1.2407l0.15509,52.84628z" data-paper-data="{&quot;index&quot;:null}" fill="#a9bab7" stroke="#000000" stroke-width="1" stroke-linecap="round"/><path d="M166.52648,204.70271l0.77544,-54.74609l22.17759,0.46526l-0.31017,54.43591z" data-paper-data="{&quot;index&quot;:null}" fill="#330802" stroke="#000000" stroke-width="1" stroke-linecap="round"/><path d="M167.76717,178.33773h-8.37475l0.31018,-23.10811l7.90949,-0.31017z" data-paper-data="{&quot;index&quot;:null}" fill="#030510" stroke="#000000" stroke-width="1" stroke-linecap="round"/><path d="M189.32443,155.53979l7.28914,-0.15509v20.93688l-7.28914,-0.31017z" data-paper-data="{&quot;index&quot;:null}" fill="#030510" stroke="#000000" stroke-width="1" stroke-linecap="round"/><path d="M273.14955,191.44269l-39.85764,0.46526l-0.62036,-38.61693l41.40851,1.70597z" data-paper-data="{&quot;index&quot;:null}" fill="#1b1f41" stroke="#000000" stroke-width="1" stroke-linecap="round"/><path d="M263.37899,153.60119l0.93052,37.99658l-20.31653,0.62035l-0.77544,-38.46185z" data-paper-data="{&quot;index&quot;:null}" fill="#030510" stroke="#000000" stroke-width="1" stroke-linecap="round"/><path d="M285.59535,156.39278l40.16781,0.31018v33.8092h-41.40851z" data-paper-data="{&quot;index&quot;:null}" fill="#1b1f41" stroke="#000000" stroke-width="1" stroke-linecap="round"/><path d="M316.30279,156.39278v34.58464h-20.9369l0.1551,-35.20499z" data-paper-data="{&quot;index&quot;:null}" fill="#030510" stroke="#000000" stroke-width="1" stroke-linecap="round"/><path d="M533.8526,222.1889l0.31017,-60.48436l58.93347,-0.46526l0.31018,61.72506z" data-paper-data="{&quot;index&quot;:null}" fill="#d9cbb9" stroke="#000000" stroke-width="1" stroke-linecap="round"/><path d="M537.72981,221.10329l-0.31018,-56.14189l50.55871,-0.93053l1.08561,59.08855z" data-paper-data="{&quot;index&quot;:null}" fill="#535572" stroke="#000000" stroke-width="1" stroke-linecap="round"/><path d="M531.25488,159.99857l-0.31018,61.56997l-61.56997,-2.17123l-0.31018,-59.5926z" data-paper-data="{&quot;index&quot;:null}" fill="#d9cbb9" stroke="#000000" stroke-width="1" stroke-linecap="round"/><path d="M472.94175,219.5524v-56.91733l53.04012,0.77544l0.93054,58.4682z" data-paper-data="{&quot;index&quot;:null}" fill="#535572" stroke="#000000" stroke-width="1" stroke-linecap="round"/><path d="M465.8077,159.22314v60.17418l-65.91243,-0.77545l-1.2407,-60.63944z" data-paper-data="{&quot;index&quot;:null}" fill="#d9cbb9" stroke="#000000" stroke-width="1" stroke-linecap="round"/><path d="M404.23774,218.46678l-0.31018,-57.2275l57.53768,2.17124l0.15509,56.60715z" data-paper-data="{&quot;index&quot;:null}" fill="#535572" stroke="#000000" stroke-width="1" stroke-linecap="round"/><path d="M332.08301,153.87259l46.87538,0.73667l-0.93054,-4.96282l253.10374,1.43456l-3.56703,7.7544l-248.14093,-3.25684z" data-paper-data="{&quot;index&quot;:null}" fill="#beb4b0" stroke="#000000" stroke-width="1" stroke-linecap="round"/><path d="M378.18295,149.37503l1.86105,5.73826l-48.23239,-0.77544l0.46526,-11.01125l-311.88213,-3.56703l-9.46038,-12.71722l359.30031,4.96282l-0.93054,7.7544l57.34383,-0.46526l-17.99022,10.70108z" data-paper-data="{&quot;index&quot;:null}" fill="#beb4b0" stroke="#000000" stroke-width="1" stroke-linecap="round"/><path d="M357.61159,88.13826l-336.67405,-7.58357l-4.65264,-6.04845l347.23578,5.36753z" data-paper-data="{&quot;index&quot;:null}" fill="#beb4b0" stroke="#000000" stroke-width="1" stroke-linecap="round"/><path d="M290.67449,124.9099l-40.01272,-1.39579l-0.93053,-34.11938l40.78817,0.46527z" data-paper-data="{&quot;index&quot;:null}" fill="#1b1f41" stroke="#000000" stroke-width="1" stroke-linecap="round"/><path d="M280.90394,89.23964l-0.31018,36.13552l-22.64286,-1.39579l-0.31018,-35.04991z" data-paper-data="{&quot;index&quot;:null}" fill="#030510" stroke="#000000" stroke-width="1" stroke-linecap="round"/><path d="M208.98184,123.82427l-60.94962,-1.70596l-0.93052,-35.51518l62.81067,0.77545z" data-paper-data="{&quot;index&quot;:null}" fill="#1b1f41" stroke="#000000" stroke-width="1" stroke-linecap="round"/><path d="M199.83164,85.67261l0.15509,38.30675l-43.42466,-1.2407l1.3958,-36.29062l41.40851,0.93054z" data-paper-data="{&quot;index&quot;:null}" fill="#030510" stroke="#000000" stroke-width="1" stroke-linecap="round"/><path d="M106.15844,121.80813l-37.22114,-0.93054l0.77544,-36.44569l40.32291,1.70597z" data-paper-data="{&quot;index&quot;:null}" fill="#1b1f41" stroke="#000000" stroke-width="1" stroke-linecap="round"/><path d="M98.40404,85.36243l0.62035,36.91097l-22.33268,-0.46526l-0.31018,-37.68641z" data-paper-data="{&quot;index&quot;:null}" fill="#030510" stroke="#000000" stroke-width="1" stroke-linecap="round"/><path d="M121.0469,187.33284l-40.16781,-0.31018l0.62035,-36.60079l39.70254,0.62035z" data-paper-data="{&quot;index&quot;:null}" fill="#1b1f41" stroke="#000000" stroke-width="1" stroke-linecap="round"/><path d="M112.05178,149.95662l-1.08561,37.37622l-19.23094,-0.62035l0.46527,-36.44571z" data-paper-data="{&quot;index&quot;:null}" fill="#030510" stroke="#000000" stroke-width="1" stroke-linecap="round"/><path d="M70.75959,185.78198l-2.79159,0.31018l-35.82535,1.39579l1.3958,-36.44571l37.72517,0.31017z" data-paper-data="{&quot;index&quot;:null}" fill="#1b1f41" stroke="#000000" stroke-width="1" stroke-linecap="round"/><path d="M61.91957,150.88715l0.77544,34.42955l-20.62672,1.70596l0.31017,-35.82534z" data-paper-data="{&quot;index&quot;:null}" fill="#030510" stroke="#000000" stroke-width="1" stroke-linecap="round"/><path d="M141.10555,215.52857l13.62515,-12.65958l46.02508,1.18013l9.11919,12.12316l-69.41313,-0.32185z" data-paper-data="{&quot;index&quot;:null}" fill="#586141" stroke="#000000" stroke-width="1" stroke-linecap="round"/><path d="M367.81793,161.25323c3.69455,-2.30926 8.7465,-2.38797 12.17657,0.41023c3.6548,2.07865 3.4503,9.71957 0.76667,12.52253c-2.87683,2.98984 -10.77731,2.39989 -14.20217,0.90825c-3.32115,-2.89805 -2.2454,-10.31515 0.27849,-13.40268c0.17742,-0.12175 0.36385,-0.24916 0.55283,-0.37555c0.21655,0.06955 0.42761,-0.06278 0.42761,-0.06278z" data-paper-data="{&quot;noHover&quot;:false,&quot;origItem&quot;:[&quot;Path&quot;,{&quot;applyMatrix&quot;:true,&quot;segments&quot;:[[[734.84919,322.70483],[0.4331,0.13909],[-0.37796,0.25279]],[[733.74856,323.45084],[0.35484,-0.2435],[-5.04778,6.17506]],[[733.18821,350.11725],[-6.64229,-5.7961],[6.84973,2.98328]],[[761.44711,348.30611],[-5.75366,5.97968],[5.36726,-5.60592]],[[759.9177,323.39702],[7.3096,4.15731],[-6.86014,-5.59639]],[[735.70143,322.58196],[7.38911,-4.61852],[0,0]]],&quot;closed&quot;:true}]}" fill="#ffffff" stroke="none" stroke-width="0.5" stroke-linecap="butt"/><path d="M360.35146,165.97126c0.8572,4.84137 -2.04579,8.54938 -6.59211,9.84521c-2.92626,0.90903 -6.71816,0.50037 -9.64043,-0.18877c-0.66614,-0.15709 -2.53221,-0.45463 -2.94703,-1.17523c-0.44294,-0.76946 -0.49546,-1.73343 -0.84881,-2.53728c-0.60469,-2.76142 -0.16061,-7.76802 2.14385,-9.63271c1.13641,-0.91954 3.38933,-1.05982 4.72105,-1.52984c0.68442,-0.17661 1.43709,-0.35127 2.14128,-0.34433l0.28144,-0.00018c4.09979,0 10.66472,0.24819 10.74075,5.56313z" data-paper-data="{&quot;noHover&quot;:false,&quot;origItem&quot;:[&quot;Path&quot;,{&quot;applyMatrix&quot;:true,&quot;segments&quot;:[[[699.22989,320.91591],[8.19957,0],[0,0]],[[698.67049,320.91591],[0,0],[-1.40838,-0.01389]],[[694.41365,321.59791],[1.36885,-0.35321],[-2.66345,0.94003]],[[685.01275,324.62642],[2.27281,-1.83908],[-4.60893,3.72938]],[[680.74041,343.79693],[-1.20937,-5.52284],[0.7067,1.60769]],[[682.42701,348.84949],[-0.88588,-1.53892],[0.82963,1.44121]],[[688.30265,351.17924],[-1.33229,-0.31419],[5.84455,1.37829]],[[707.47642,351.54232],[-5.85253,1.81806],[9.09263,-2.59166]],[[720.60566,331.96579],[1.71441,9.68274],[-0.15206,-10.62988]]],&quot;closed&quot;:true}]}" fill="#ffffff" stroke="none" stroke-width="0.5" stroke-linecap="butt"/><path d="M341.00929,166.26541c-0.03095,0.11625 -0.11258,0.23567 -0.29892,0.3102c-0.13279,0.05312 -0.24279,0.05306 -0.33218,0.02589c-0.35475,1.8664 -0.31966,3.87362 -0.00798,5.29696c0.35335,0.80385 0.40036,1.75682 0.8433,2.52628c0.41482,0.7206 2.27168,1.00778 2.93782,1.16488c2.92227,0.68914 6.66062,1.09057 9.58688,0.18154c4.0545,-1.15565 6.78014,-4.18453 6.71437,-8.26034c-2.86922,-0.0532 -5.69724,-0.32094 -8.52783,-0.63308c0.3579,0.27414 0.58869,0.70588 0.58869,1.19153c0,0.82843 -0.67157,1.5 -1.5,1.5c-0.82843,0 -1.5,-0.67157 -1.5,-1.5c0,-0.60554 0.35882,-1.12728 0.87544,-1.36419c-0.68593,-0.07812 -1.37247,-0.15703 -2.06024,-0.23433c-2.44758,0.00352 -4.85919,-0.1772 -7.31935,-0.20535zM361.4323,166.5204c0,0 0.5,0 0.5,0.5c0,0.43181 -0.37291,0.4907 -0.47464,0.49873c0.07568,4.50786 -2.98803,7.93839 -7.43511,9.21075c-3.1036,0.94662 -7.00155,0.56409 -10.10078,-0.16697c-1.02769,-0.24242 -2.87491,-0.57138 -3.52653,-1.56333c-0.54116,-0.8238 -0.57974,-1.90959 -0.97476,-2.78803c-0.70062,-3.11693 -0.20704,-8.62506 2.4789,-10.69305c1.30473,-1.00455 3.52417,-1.13655 5.01465,-1.67573c0.78917,-0.20168 1.60891,-0.37858 2.42121,-0.38483h0.62933c0,0 0.00857,0 0.02346,0.00112c4.60632,0.02848 11.23752,0.64069 11.31037,6.42978c0.03747,0.21246 0.06823,0.42301 0.09244,0.63156c0.01382,0 0.02764,-0.00001 0.04146,-0.00002z" fill="#000000" stroke="none" stroke-width="0.5" stroke-linecap="butt"/><path d="M383.73491,164.22574c0.27735,0.41603 -0.13868,0.69338 -0.13868,0.69338l-0.23629,0.13821c0.86501,3.39361 0.08216,7.68646 -1.92094,9.7944c-3.36354,3.26758 -11.45641,2.8261 -15.37898,1.05233c-3.8813,-3.28233 -2.85879,-11.36975 0.13938,-14.91657c1.39254,-0.97109 3.14627,-2.07708 4.68561,-2.74777l0.26689,-0.04042c0,0 0.5,0 0.5,0.5c0,0.02772 -0.00153,0.0539 -0.00444,0.07863c3.1011,-0.56319 6.3918,0.05614 8.87804,2.09663c1.18112,0.67797 2.01258,1.829 2.5288,3.20466c0.07191,-0.04217 0.43198,-0.22642 0.6806,0.14652zM376.6918,166.18441c-1.10221,0.11124 -2.20158,0.21962 -3.30012,0.31842c0.43655,0.26226 0.72865,0.74039 0.72865,1.28674c0,0.82843 -0.67157,1.5 -1.5,1.5c-0.82843,0 -1.5,-0.67157 -1.5,-1.5c0,-0.45546 0.20299,-0.86351 0.52345,-1.13861c-2.30012,0.18165 -4.60137,0.30557 -6.9224,0.30993c-0.52529,3.04947 -0.11063,6.36704 1.87273,8.09773c3.42487,1.49164 11.25262,2.08427 14.12945,-0.90557c1.76935,-1.84803 2.4619,-5.76953 1.68095,-8.82279c-1.89736,0.39729 -3.81036,0.38262 -5.7127,0.85414z" fill="#000000" stroke="none" stroke-width="0.5" stroke-linecap="butt"/><path d="M336.85279,185.61366c-0.05072,-0.25358 0.05595,-0.40224 0.17077,-0.48667c-0.07751,-1.6812 0.05423,-3.44235 0.31237,-5.26341c0.12215,-1.34547 0.55027,-2.5156 0.7658,-3.81859v-0.52868c0,-0.27614 0.22386,-0.5 0.5,-0.5c0.15304,0 0.29003,0.06876 0.38174,0.17707l0.41744,0.48701l-0.05441,0.04663c1.65856,1.39691 2.78467,3.27427 4.45289,4.70156c2.195,1.87799 5.4455,2.75126 8.21667,3.05212c5.88952,0.74058 12.27817,1.24595 18.12494,0.00114c2.5933,-0.14024 5.88318,-0.652 8.12378,-2.09675c1.51733,-0.97839 2.52028,-2.57964 4.35128,-3.00047l0.17839,-0.01191c0,0 0.5,0 0.5,0.5c0,0.22303 -0.09949,0.34658 -0.20971,0.41501c0.0041,1.91205 0.18503,4.02184 0.06805,6.07462c0.04891,0.05183 0.09104,0.1223 0.12,0.21745c0.08845,0.29063 -0.05342,0.45842 -0.17838,0.54535c-0.18036,1.84938 -0.65563,3.62547 -1.78231,5.13697c-0.79846,1.07118 -1.82791,1.96289 -2.61339,3.05649c-4.94764,5.24529 -11.27766,6.59618 -18.26121,6.59016c-7.07507,-0.84584 -12.82352,-0.99266 -18.5822,-5.72054c-3.13356,-2.57294 -4.45945,-5.7162 -4.77597,-9.23651c-0.09948,-0.05493 -0.19008,-0.15588 -0.22652,-0.33807zM338.16289,184.74393c5.4273,-0.06713 10.72678,2.558 15.61713,4.41856c4.54849,1.0028 9.59343,2.11016 14.27073,0.90475c2.91789,-0.83337 5.9185,-1.25765 8.76514,-2.35519c1.8392,-0.70911 3.51495,-1.67969 5.36218,-2.31258c0.12067,-1.95318 -0.0643,-3.97568 -0.0904,-5.77973c-1.23302,0.5969 -2.13884,1.8736 -3.29442,2.61431c-2.36299,1.51463 -5.78365,2.09842 -8.52072,2.23911c-5.91949,1.27706 -12.40928,0.74196 -18.3737,0.00065c-4.17337,-0.47319 -7.90012,-2.07382 -10.6507,-5.34521c-0.40762,-0.4848 -1.72226,-1.58956 -2.25851,-2.42744c-0.22972,1.09548 -0.55502,2.12038 -0.66044,3.27845c-0.24022,1.66806 -0.37449,3.28103 -0.32728,4.82257c0.05367,-0.01941 0.10733,-0.03882 0.161,-0.05824zM377.17597,188.64497c-2.87991,1.11272 -5.9147,1.54455 -8.86656,2.38823c-4.8986,1.19507 -10.05545,0.15295 -14.81814,-0.91331c-4.75753,-1.85109 -9.87877,-4.30207 -15.14995,-4.39201c-0.09288,0.03651 -0.18575,0.07302 -0.27863,0.10953c0.28849,3.26702 1.50845,6.18164 4.42716,8.57796c5.58717,4.58769 11.139,4.6711 18.0072,5.49518c6.65711,-0.00609 12.69863,-1.23399 17.43058,-6.22869c0.7746,-1.07652 1.77874,-1.95682 2.57322,-3.00445c0.92521,-1.22002 1.3725,-2.66079 1.57283,-4.17923c-1.66774,0.62235 -3.2158,1.49694 -4.89771,2.14679z" fill="#000000" stroke="none" stroke-width="0.5" stroke-linecap="butt"/><path d="M382.12173,186.48438c-0.20033,1.51844 -0.64595,2.96781 -1.57116,4.18783c-0.79448,1.04763 -1.79841,1.93556 -2.57301,3.01208c-4.73195,4.9947 -10.82039,6.27009 -17.4775,6.27618c-6.8682,-0.82408 -12.47284,-0.95288 -18.06001,-5.54057c-2.91871,-2.39632 -4.13653,-5.33058 -4.42502,-8.5976c0.09288,-0.03651 0.18588,-0.07341 0.27876,-0.10993c5.27119,0.08995 10.39369,2.53745 15.15123,4.38854c4.76269,1.06626 10.01466,2.11677 14.91327,0.9217c2.95185,-0.84368 5.88921,-1.25307 8.76912,-2.36579c1.6819,-0.64984 3.3266,-1.55009 4.99434,-2.17245z" data-paper-data="{&quot;noHover&quot;:false,&quot;origItem&quot;:[&quot;Path&quot;,{&quot;applyMatrix&quot;:true,&quot;segments&quot;:[[[377.17597,188.64497],[1.6819,-0.64984],[-2.87991,1.11272]],[[368.30941,191.0332],[2.95185,-0.84368],[-4.8986,1.19507]],[[353.49127,190.11989],[4.76269,1.06626],[-4.75753,-1.85109]],[[338.34132,185.72788],[5.27119,0.08995],[-0.09288,0.03651]],[[338.06269,185.83741],[0.09288,-0.03651],[0.28849,3.26702]],[[342.48985,194.41537],[-2.91871,-2.39632],[5.58717,4.58769]],[[360.49705,199.91056],[-6.8682,-0.82408],[6.65711,-0.00609]],[[377.92762,193.68187],[-4.73195,4.9947],[0.7746,-1.07652]],[[380.50084,190.67741],[-0.79448,1.04763],[0.92521,-1.22002]],[[382.07368,186.49818],[-0.20033,1.51844],[-1.66774,0.62235]]],&quot;closed&quot;:true}]}" fill="#ffffff" stroke="none" stroke-width="0.5" stroke-linecap="butt"/><path d="M337.95196,184.80477c-0.04721,-1.54154 0.08769,-3.16542 0.32791,-4.83348c0.10542,-1.15807 0.43253,-2.19029 0.66225,-3.28577c0.53625,0.83788 1.94701,1.96991 2.35463,2.45472c2.75058,3.27139 6.47845,4.85536 10.65182,5.32855c5.96442,0.74131 12.35463,1.27737 18.27412,0.00031c2.73707,-0.14068 6.15771,-0.71666 8.52069,-2.23129c1.15558,-0.7407 2.16044,-2.03018 3.39346,-2.62709c0.0261,1.80405 0.21173,3.83952 0.09106,5.7927c-1.84722,0.63288 -3.52424,1.61133 -5.36344,2.32044c-2.84664,1.09753 -5.85694,1.54142 -8.77483,2.37479c-4.6773,1.20542 -9.79882,0.09948 -14.34731,-0.90331c-4.89035,-1.86056 -10.20207,-4.51606 -15.62938,-4.44892c-0.05367,0.01941 -0.10732,0.03894 -0.16099,0.05835z" data-paper-data="{&quot;noHover&quot;:false,&quot;origItem&quot;:[&quot;Path&quot;,{&quot;applyMatrix&quot;:true,&quot;segments&quot;:[[[338.16289,184.74393],[-0.05367,0.01941],[5.4273,-0.06713]],[[353.78002,189.16249],[-4.89035,-1.86056],[4.54849,1.0028]],[[368.05075,190.06724],[-4.6773,1.20542],[2.91789,-0.83337]],[[376.81589,187.71205],[-2.84664,1.09753],[1.8392,-0.70911]],[[382.17806,185.39947],[-1.84722,0.63288],[0.12067,-1.95318]],[[382.08766,179.61974],[0.0261,1.80405],[-1.23302,0.5969]],[[378.79324,182.23405],[1.15558,-0.7407],[-2.36299,1.51463]],[[370.27252,184.47315],[2.73707,-0.14068],[-5.91949,1.27706]],[[351.89882,184.4738],[5.96442,0.74131],[-4.17337,-0.47319]],[[341.24812,179.12859],[2.75058,3.27139],[-0.40762,-0.4848]],[[338.98962,176.70115],[0.53625,0.83788],[-0.22972,1.09548]],[[338.32918,179.9796],[0.10542,-1.15807],[-0.24022,1.66806]],[[338.0019,184.80217],[-0.04721,-1.54154],[0.05367,-0.01941]]],&quot;closed&quot;:true}]}" fill="#ffffff" stroke="none" stroke-width="0.5" stroke-linecap="butt"/><path d="M360.49546,155.81149c-0.35355,0.35355 -0.70711,0 -0.70711,0l-0.21903,-0.24395c-1.30281,-0.74672 -3.11819,-1.07329 -4.60473,-1.33683c-3.39583,-1.15198 -11.15372,0.61218 -13.61564,3.12224c0,0 -0.35355,0.35355 -0.70711,0c-0.35355,-0.35355 0,-0.70711 0,-0.70711c2.78105,-2.73709 10.78206,-4.62611 14.56762,-3.38469c1.56804,0.26959 3.47921,0.65358 4.856,1.43814l0.43,0.40509c0,0 0.35355,0.35355 0,0.70711z" fill="#000000" stroke="none" stroke-width="0.5" stroke-linecap="butt"/><path d="M363.69182,158.2579c-0.44721,0.22361 -0.67082,-0.22361 -0.67082,-0.22361l-0.11468,-0.52323c0.20505,-0.69328 -0.02181,-1.55568 0.28248,-2.20637c1.0924,-2.33594 4.73461,-3.35607 7.00136,-3.34371c1.64738,0.46247 3.68621,0.38435 5.14326,1.43808c2.1924,1.58553 4.31917,3.19959 6.89288,4.18834c0,0 0.46667,0.17949 0.28718,0.64616c-0.17949,0.46667 -0.64616,0.28718 -0.64616,0.28718c-2.62865,-1.01214 -4.87041,-2.63644 -7.08762,-4.28897c-1.30266,-0.9709 -3.24889,-0.84974 -4.72825,-1.28045c-1.87781,0.01384 -5.07841,0.88428 -5.97933,2.82212c-0.2273,0.48891 -0.05971,1.32224 -0.18065,1.91362l0.02394,-0.09997c0,0 0.22361,0.44721 -0.22361,0.67082z" fill="#000000" stroke="none" stroke-width="0.5" stroke-linecap="butt"/></g></g></g></svg>