<svg version="1.1" xmlns="http://www.w3.org/2000/svg" xmlns:xlink="http://www.w3.org/1999/xlink" width="2878.25006" height="1619.57958" viewBox="0,0,2878.25006,1619.57958"><g transform="translate(1119.12503,629.78979)"><g data-paper-data="{&quot;isPaintingLayer&quot;:true}" fill-rule="nonzero" stroke-linejoin="miter" stroke-miterlimit="10" stroke-dasharray="" stroke-dashoffset="0" style="mix-blend-mode: normal"><path d="M-1119.12503,989.78979v-1619.57958h2878.25006v1619.57958z" fill="none" stroke="#000000" stroke-width="0" stroke-linecap="butt"/><path d="M162.0507,167.59627l-0.42264,-1.09501c2.53509,-0.57257 4.25087,0.60083 6.58764,0.91857c0,-9.41142 0,-18.82283 0,-28.23425c0,0 0,-0.86428 0.75,-0.86428c0.75,0 0.75,0.86428 0.75,0.86428c0,9.45649 0,18.91299 0,28.36948c4.14647,0.36749 8.32118,1.06748 12.45171,1.66315c9.81343,1.4163 20.05998,0.28991 29.95306,0.57697c3.44924,0.10024 6.90367,0.04344 10.35399,0.0442c1.61832,0.00036 3.745,-0.50343 4.99098,1.13951c0.35,0.4615 0.11706,2.76667 0.11706,3.423c0,3.37037 0,6.74075 0,10.11113c0,10.43919 0,20.87837 0,31.31756c0,10.68731 0,21.37462 0,32.06193c0,11.17827 0,22.35654 0,33.53481c0,11.75143 0,23.50286 0,35.25428c0,6.33426 0.00459,12.66854 0,19.00279c-0.00118,1.6385 0.05043,5.5654 -0.90724,6.82706c-0.19624,0.25853 -2.0671,0.20481 -2.40491,0.20481c-1.86897,0 -3.73795,0 -5.60692,0c-9.17272,0 -18.08009,1.11308 -27.25585,1.48705c-4.65547,0.89049 -9.46939,0.41151 -14.15869,0.87714c-5.29319,0.52559 -10.40335,1.56454 -15.74983,1.58927c-9.86928,0.62543 -19.64106,1.70322 -29.55986,1.49532c-10.19031,-1.08945 -20.50714,0.86883 -30.73831,-0.37326c-5.28169,-0.64144 -10.48991,-1.29075 -15.74737,-2.19002c-5.42417,-0.92778 -9.93323,-1.73176 -11.93513,-8.33774c-1.97261,-11.29856 -2.69505,-22.44345 -2.50638,-33.95863c0.08267,-5.04154 0.84761,-10.64574 3.74051,-14.69847c0.86753,-1.21534 2.2944,-1.92462 3.34842,-2.86766c3.5046,-3.13559 6.62332,-5.649 10.86929,-7.46905c10.00282,-4.11692 18.86868,-3.17744 29.14803,-3.17744c9.41115,0 19.22733,-0.42745 28.59097,0.64674c5.42584,0.62526 10.80849,1.46474 16.05675,3.20097c1.44673,0.47861 2.93909,0.81531 4.37604,1.32376c0.44487,0.15741 0.97843,1.00063 1.29336,0.6058c0.41436,-0.51948 -0.21967,-1.396 -0.21967,-2.1016c0,-1.56113 0,-3.12225 0,-4.68338c0,-11.67073 0,-23.34147 0,-35.01221c0,-11.51011 0,-23.02022 0,-34.53033c0,-11.67149 0,-23.34298 0,-35.01448c0,-0.12403 0,-0.24806 0,-0.37209c-1.99529,-0.26162 -3.52887,-1.24819 -5.49613,-1.08652c-0.20413,0.14362 -0.43081,0.14361 -0.43081,0.14361l-0.03274,-0.08482c-0.10976,0.01884 -0.22098,0.04142 -0.33379,0.06804z" data-paper-data="{&quot;index&quot;:null}" fill="#7586a9" stroke="none" stroke-width="0.5" stroke-linecap="butt"/><path d="M504.63417,158.73684c0,0.86428 -0.75,0.86428 -0.75,0.86428l0.06597,-0.04435c-0.05732,0.02193 -0.11465,0.04319 -0.17199,0.06383c0,9.7635 0,19.527 0,29.2905c0,12.08932 0,24.17864 0,36.26796c0,11.49499 0,22.98997 0,34.48495c0,4.35758 0,8.71517 0,13.07274c0,0.3483 -0.29728,5.17324 -0.21967,5.24277c0.2492,0.22326 3.33677,-0.35802 3.76742,-0.40203c3.0222,-0.30881 6.0034,-0.61209 9.03838,-0.63222c6.81698,-0.04024 13.75566,-1.62324 20.54151,-2.29129c3.01089,-0.29641 6.43644,0.08858 9.33285,-0.86506c6.37364,-0.03319 14.56108,-2.13979 20.49876,1.67853c3.14648,2.02339 5.00478,4.66417 7.58015,7.41458c3.18887,3.41872 5.30348,7.75872 8.09794,11.54996c1.58228,2.14668 3.49866,4.11779 4.43066,6.82732c1.27486,3.7063 1.32728,8.36667 1.3333,12.28319c-0.00211,2.21135 0.65047,4.13553 0.3401,6.36444c-0.47776,3.43099 -1.81285,6.32352 -2.88585,9.5139c-1.82283,5.41989 -4.07701,12.07855 -8.16328,15.82584c-8.21755,7.44039 -19.91015,5.02417 -29.71729,5.03544c-4.12172,-0.00799 -8.15642,-1.00793 -12.25643,-1.38382c-5.60631,-0.51398 -11.34855,-0.67411 -16.96861,-0.79126c-5.92525,-1.35155 -12.49301,-2.40497 -18.54273,-1.9697c-3.01361,0.21682 -6.02889,0.78634 -9.04725,0.79038c-9.54555,0.72487 -19.06028,0.39882 -28.64613,0.39432c-4.69739,-0.44121 -9.46857,-0.19657 -14.17933,-0.19657c-0.9386,0 -4.86227,0.30778 -5.39519,-0.68479c-0.25953,-0.48338 0.05078,-3.38614 0.11289,-4.10003c0.24701,-2.83904 0.17834,-5.70366 0.20137,-8.55595c0.09497,-11.75546 0.01001,-23.51627 0.01001,-35.27228c0,-11.17827 0,-22.35654 0,-33.53481c0,-11.34645 0,-22.69291 0,-34.03937c0,-11.09758 0,-22.19515 0,-33.29273c0,-10.68428 0,-21.36857 0,-32.05285c0,-1.35827 -0.71731,-6.76319 0.16866,-7.69782c1.36305,-1.43793 4.81715,-1.00874 6.4918,-1.00874c5.38324,0 10.76648,0 16.14972,0c9.50934,0 19.03125,0.55316 28.51878,0.59608c2.60068,0.59678 5.28484,1.35584 7.90747,0.79151c0,-0.15435 0,-0.3087 0,-0.46304c0,0 0,-0.86428 0.75,-0.86428c0.75,0 0.75,0.86428 0.75,0.86428c0,0.02447 0,0.04895 0,0.07343l0.10602,-0.01152c0,0 0.75,0 0.75,0.86428z" data-paper-data="{&quot;index&quot;:null}" fill="#7586a9" stroke="none" stroke-width="0.5" stroke-linecap="butt"/><path d="M24.22286,206.1351l4.48557,-125.53676l301.94926,5.90206l1.18042,67.51954l278.28201,4.48557l2.08698,64.23773l-232.20819,-4.92205l-355.68146,-3.29877z" data-paper-data="{&quot;index&quot;:null}" fill="#7586a9" stroke="#000000" stroke-width="1" stroke-linecap="round"/><path d="M154.4296,203.11306l0.46527,-52.65241l46.06115,1.2407l0.15509,52.84628z" data-paper-data="{&quot;index&quot;:null}" fill="#a9bab7" stroke="#000000" stroke-width="1" stroke-linecap="round"/><path d="M166.52648,204.70271l0.77544,-54.74609l22.17759,0.46526l-0.31017,54.43591z" data-paper-data="{&quot;index&quot;:null}" fill="#330802" stroke="#000000" stroke-width="1" stroke-linecap="round"/><path d="M167.76717,178.33773h-8.37475l0.31018,-23.10811l7.90949,-0.31017z" data-paper-data="{&quot;index&quot;:null}" fill="#030510" stroke="#000000" stroke-width="1" stroke-linecap="round"/><path d="M189.32443,155.53979l7.28914,-0.15509v20.93688l-7.28914,-0.31017z" data-paper-data="{&quot;index&quot;:null}" fill="#030510" stroke="#000000" stroke-width="1" stroke-linecap="round"/><path d="M273.14955,191.44269l-39.85764,0.46526l-0.62036,-38.61693l41.40851,1.70597z" data-paper-data="{&quot;index&quot;:null}" fill="#1b1f41" stroke="#000000" stroke-width="1" stroke-linecap="round"/><path d="M263.37899,153.60119l0.93052,37.99658l-20.31653,0.62035l-0.77544,-38.46185z" data-paper-data="{&quot;index&quot;:null}" fill="#030510" stroke="#000000" stroke-width="1" stroke-linecap="round"/><path d="M285.59535,156.39278l40.16781,0.31018v33.8092h-41.40851z" data-paper-data="{&quot;index&quot;:null}" fill="#1b1f41" stroke="#000000" stroke-width="1" stroke-linecap="round"/><path d="M316.30279,156.39278v34.58464h-20.9369l0.1551,-35.20499z" data-paper-data="{&quot;index&quot;:null}" fill="#030510" stroke="#000000" stroke-width="1" stroke-linecap="round"/><path d="M533.8526,222.1889l0.31017,-60.48436l58.93347,-0.46526l0.31018,61.72506z" data-paper-data="{&quot;index&quot;:null}" fill="#d9cbb9" stroke="#000000" stroke-width="1" stroke-linecap="round"/><path d="M537.72981,221.10329l-0.31018,-56.14189l50.55871,-0.93053l1.08561,59.08855z" data-paper-data="{&quot;index&quot;:null}" fill="#535572" stroke="#000000" stroke-width="1" stroke-linecap="round"/><path d="M531.25488,159.99857l-0.31018,61.56997l-61.56997,-2.17123l-0.31018,-59.5926z" data-paper-data="{&quot;index&quot;:null}" fill="#d9cbb9" stroke="#000000" stroke-width="1" stroke-linecap="round"/><path d="M472.94175,219.5524v-56.91733l53.04012,0.77544l0.93054,58.4682z" data-paper-data="{&quot;index&quot;:null}" fill="#535572" stroke="#000000" stroke-width="1" stroke-linecap="round"/><path d="M465.8077,159.22314v60.17418l-65.91243,-0.77545l-1.2407,-60.63944z" data-paper-data="{&quot;index&quot;:null}" fill="#d9cbb9" stroke="#000000" stroke-width="1" stroke-linecap="round"/><path d="M404.23774,218.46678l-0.31018,-57.2275l57.53768,2.17124l0.15509,56.60715z" data-paper-data="{&quot;index&quot;:null}" fill="#535572" stroke="#000000" stroke-width="1" stroke-linecap="round"/><path d="M332.08301,153.87259l46.87538,0.73667l-0.93054,-4.96282l253.10374,1.43456l-3.56703,7.7544l-248.14093,-3.25684z" data-paper-data="{&quot;index&quot;:null}" fill="#beb4b0" stroke="#000000" stroke-width="1" stroke-linecap="round"/><path d="M378.18295,149.37503l1.86105,5.73826l-48.23239,-0.77544l0.46526,-11.01125l-311.88213,-3.56703l-9.46038,-12.71722l359.30031,4.96282l-0.93054,7.7544l57.34383,-0.46526l-17.99022,10.70108z" data-paper-data="{&quot;index&quot;:null}" fill="#beb4b0" stroke="#000000" stroke-width="1" stroke-linecap="round"/><path d="M357.61159,88.13826l-336.67405,-7.58357l-4.65264,-6.04845l347.23578,5.36753z" data-paper-data="{&quot;index&quot;:null}" fill="#beb4b0" stroke="#000000" stroke-width="1" stroke-linecap="round"/><path d="M290.67449,124.9099l-40.01272,-1.39579l-0.93053,-34.11938l40.78817,0.46527z" data-paper-data="{&quot;index&quot;:null}" fill="#1b1f41" stroke="#000000" stroke-width="1" stroke-linecap="round"/><path d="M280.90394,89.23964l-0.31018,36.13552l-22.64286,-1.39579l-0.31018,-35.04991z" data-paper-data="{&quot;index&quot;:null}" fill="#030510" stroke="#000000" stroke-width="1" stroke-linecap="round"/><path d="M208.98184,123.82427l-60.94962,-1.70596l-0.93052,-35.51518l62.81067,0.77545z" data-paper-data="{&quot;index&quot;:null}" fill="#1b1f41" stroke="#000000" stroke-width="1" stroke-linecap="round"/><path d="M199.83164,85.67261l0.15509,38.30675l-43.42466,-1.2407l1.3958,-36.29062l41.40851,0.93054z" data-paper-data="{&quot;index&quot;:null}" fill="#030510" stroke="#000000" stroke-width="1" stroke-linecap="round"/><path d="M106.15844,121.80813l-37.22114,-0.93054l0.77544,-36.44569l40.32291,1.70597z" data-paper-data="{&quot;index&quot;:null}" fill="#1b1f41" stroke="#000000" stroke-width="1" stroke-linecap="round"/><path d="M98.40404,85.36243l0.62035,36.91097l-22.33268,-0.46526l-0.31018,-37.68641z" data-paper-data="{&quot;index&quot;:null}" fill="#030510" stroke="#000000" stroke-width="1" stroke-linecap="round"/><path d="M121.0469,187.33284l-40.16781,-0.31018l0.62035,-36.60079l39.70254,0.62035z" data-paper-data="{&quot;index&quot;:null}" fill="#1b1f41" stroke="#000000" stroke-width="1" stroke-linecap="round"/><path d="M112.05178,149.95662l-1.08561,37.37622l-19.23094,-0.62035l0.46527,-36.44571z" data-paper-data="{&quot;index&quot;:null}" fill="#030510" stroke="#000000" stroke-width="1" stroke-linecap="round"/><path d="M70.75959,185.78198l-2.79159,0.31018l-35.82535,1.39579l1.3958,-36.44571l37.72517,0.31017z" data-paper-data="{&quot;index&quot;:null}" fill="#1b1f41" stroke="#000000" stroke-width="1" stroke-linecap="round"/><path d="M61.91957,150.88715l0.77544,34.42955l-20.62672,1.70596l0.31017,-35.82534z" data-paper-data="{&quot;index&quot;:null}" fill="#030510" stroke="#000000" stroke-width="1" stroke-linecap="round"/><path d="M141.10555,215.52857l13.62515,-12.65958l46.02508,1.18013l9.11919,12.12316l-69.41313,-0.32185z" data-paper-data="{&quot;index&quot;:null}" fill="#586141" stroke="#000000" stroke-width="1" stroke-linecap="round"/><path d="M327.38934,199.39074c-0.04196,0.6811 -0.06442,1.3745 -0.0666,2.08208c-0.0108,3.23848 0.11342,6.43026 0.49558,9.64368c0.52286,-0.95728 1.57015,-1.78642 2.26091,-2.552c3.22217,-3.57119 8.65064,-5.26146 12.96658,-7.09912c6.61331,-2.04869 12.79647,-3.50349 19.68742,-2.02083c6.62989,0.82554 12.57236,3.05489 17.63093,7.48798c1.24442,1.12979 2.4828,2.14354 3.80895,3.168c0.01246,0.00962 1.4887,1.26515 1.5911,1.19017c0.75153,-0.55025 0.71553,-2.188 0.75432,-2.9651c0.11462,-2.29637 0.03495,-4.5775 0.00767,-6.86995c-0.43284,-1.92782 -0.95983,-3.80801 -1.57365,-5.6909c-2.57867,-3.66731 -7.78381,-6.53017 -11.30119,-7.69724c-6.29768,-2.10533 -12.96199,-1.23836 -19.47945,-0.24498c-6.15243,0.93265 -12.74732,2.71649 -18.08209,5.90661c-2.56602,2.16324 -5.78635,4.02231 -8.66337,5.65091zM327.4837,198.19868c2.711,-1.5388 5.62941,-3.27761 8.02545,-5.28368c5.46455,-3.28867 12.20369,-5.11543 18.51214,-6.08106c6.6802,-1.01728 13.49016,-1.87146 19.94699,0.28512c3.11489,1.04755 7.23259,3.23036 10.10785,6.10944c-0.04734,-0.13002 -0.09508,-0.26016 -0.1432,-0.39043c-1.71096,-3.4418 -3.37154,-7.24212 -6.47248,-9.69738c-2.24468,-1.77728 -5.15523,-2.7485 -7.71472,-3.96089c-4.91595,-2.34093 -10.81915,-4.03956 -16.42292,-4.10959c-2.955,2.39576 -7.25174,2.58375 -11.60966,1.78033c-0.36605,-0.00543 -1.02323,-0.08106 -1.7631,-0.20992c-1.50713,0.47212 -2.86075,1.12087 -3.88778,2.03028c-1.17665,1.04189 -2.16235,2.46405 -3.20967,3.6402c-2.85564,5.25528 -4.81363,10.15813 -5.36889,15.88758zM387.51168,209.37668c-0.00198,0.01446 -0.00398,0.02891 -0.00601,0.04336c-0.11844,0.84689 -0.50101,2.41568 -1.39997,2.81053c-0.66621,0.29262 -1.34227,-0.41413 -1.75295,-0.7253c-1.62093,-1.22815 -3.14774,-2.45868 -4.65425,-3.82649c-4.92221,-4.31326 -10.68609,-6.43954 -17.13221,-7.24827c-6.72871,-1.43641 -12.71483,-0.01842 -19.1762,1.97373c-3.28697,1.40474 -6.83506,2.681 -9.85927,4.61309c-2.04549,1.30682 -3.43353,3.25111 -5.19407,4.82463l0.06989,0.06451l-0.67712,0.73355c-0.0914,0.09965 -0.22269,0.16212 -0.36856,0.16212c-0.27614,0 -0.5,-0.22386 -0.5,-0.5v-0.78863c-0.427,-3.34557 -0.54943,-6.67339 -0.5382,-10.04403c0.00263,-0.73414 0.02637,-1.45417 0.07044,-2.16189c-0.02397,-0.04235 -0.04409,-0.09236 -0.05883,-0.15133c-0.05385,-0.21539 0.01186,-0.35905 0.10156,-0.45221c0.48858,-6.15555 2.52883,-11.40183 5.59854,-16.96799c1.09737,-1.24794 2.15449,-2.76886 3.41218,-3.85321c0.77278,-0.66627 1.6983,-1.2007 2.72033,-1.63278c-0.83418,-0.22656 -1.56744,-0.50363 -1.9037,-0.8071c-1.14601,-1.03424 -1.36719,-2.63151 -1.75123,-4.02448c-1.24487,-4.51533 -0.99044,-9.49589 -0.05256,-14.0626h-0.00003c-0.00909,-0.00418 -0.01818,-0.00836 -0.02726,-0.01255c0,0 -0.68097,-0.31429 -0.36667,-0.99526c0.3143,-0.68097 0.99526,-0.36667 0.99526,-0.36667c0.00551,0.00254 0.01103,0.00509 0.01654,0.00763c0.16513,-0.09826 0.39461,-0.1444 0.68845,0.00251c0.25252,0.12626 0.36246,0.30005 0.40137,0.4677c2.35916,0.95381 4.82021,1.57211 7.21582,2.43182c4.4758,1.60621 8.35503,4.19441 13.03397,5.13161c1.56822,1.87564 0.68018,4.03795 0.01234,6.20547c-0.49182,1.59623 -1.20741,2.87182 -2.09629,3.87472c5.44578,0.2478 11.0809,1.90654 15.84176,4.17361c2.63231,1.24688 5.59796,2.25236 7.90647,4.08019c3.23715,2.5631 4.98747,6.4869 6.7698,10.08497c0.36612,0.98682 0.70992,1.96655 1.03047,2.94575c1.01062,1.48991 1.63277,3.10945 1.63652,4.81366c0,0.39356 0.00689,0.7895 0.01796,1.18717c0.23758,1.07206 0.44654,2.15875 0.62574,3.26808c0.24168,1.49607 0.87766,3.47889 -0.38009,4.60666c0,0 -0.11491,0.09193 -0.26992,0.1137zM350.69182,174.15954c0.49025,-0.03963 0.98417,-0.06568 1.48091,-0.07877c1.24712,-0.9392 2.23082,-2.32732 2.827,-4.30705c0.27636,-0.91771 1.42302,-3.53173 0.67107,-4.44977c-4.58591,-0.53155 -8.48703,-3.47975 -12.79389,-5.02081c-2.32753,-0.83283 -4.71009,-1.45088 -7.00882,-2.35086c-0.84772,4.25577 -1.06829,8.87301 0.0898,13.06691c0.24331,0.88112 0.44935,2.51973 1.1796,3.2049c0.50356,0.47247 2.74074,0.92999 4.00696,1.08085c3.24043,-0.76204 6.84146,-0.92451 9.54737,-1.1454zM349.98767,175.21658c-1.6373,0.11996 -3.57812,0.23689 -5.53153,0.49203c1.97437,0.16625 3.87491,0.06744 5.53153,-0.49203z" fill="#000000" stroke="none" stroke-width="0.5" stroke-linecap="butt"/><path d="M327.37646,199.38063c2.87703,-1.62861 6.09889,-3.50058 8.66491,-5.66382c5.33477,-3.19011 11.96608,-5.01016 18.11852,-5.94282c6.51746,-0.99338 13.23559,-1.83926 19.53327,0.26607c3.51738,1.16708 8.73038,4.05158 11.30905,7.71889c0.61382,1.88289 1.14098,3.77295 1.57382,5.70077c0.02728,2.29245 0.10482,4.58449 -0.0098,6.88086c-0.03879,0.7771 -0.00448,2.41943 -0.75601,2.96968c-0.10241,0.07498 -1.67098,-1.21895 -1.68343,-1.22857c-1.32615,-1.02446 -2.56558,-2.03537 -3.81001,-3.16516c-5.05857,-4.43309 -11.00353,-6.65 -17.63343,-7.47554c-6.89096,-1.48266 -12.97499,-0.03292 -19.5883,2.01577c-4.31593,1.83766 -9.74654,3.51983 -12.9687,7.09102c-0.69076,0.76558 -1.83136,1.63059 -2.35422,2.58787c-0.38215,-3.21342 -0.51002,-6.42025 -0.49923,-9.65873c0.00217,-0.70757 0.02447,-1.40448 0.06643,-2.08557z" data-paper-data="{&quot;noHover&quot;:false,&quot;origItem&quot;:[&quot;Path&quot;,{&quot;applyMatrix&quot;:true,&quot;segments&quot;:[[[327.38934,199.39074],[0,0],[-0.04196,0.6811]],[[327.32275,201.47282],[0.00217,-0.70757],[-0.0108,3.23848]],[[327.81833,211.1165],[-0.38215,-3.21342],[0.52286,-0.95728]],[[330.07923,208.5645],[-0.69076,0.76558],[3.22217,-3.57119]],[[343.04581,201.46538],[-4.31593,1.83766],[6.61331,-2.04869]],[[362.73323,199.44455],[-6.89096,-1.48266],[6.62989,0.82554]],[[380.36416,206.93252],[-5.05857,-4.43309],[1.24442,1.12979]],[[384.17311,210.10053],[-1.32615,-1.02446],[0.01246,0.00962]],[[385.76421,211.29069],[-0.10241,0.07498],[0.75153,-0.55025]],[[386.51853,208.3256],[-0.03879,0.7771],[0.11462,-2.29637]],[[386.5262,201.45565],[0.02728,2.29245],[-0.43284,-1.92782]],[[384.95255,195.76475],[0.61382,1.88289],[-2.57867,-3.66731]],[[373.65136,188.06751],[3.51738,1.16708],[-6.29768,-2.10533]],[[354.17191,187.82253],[6.51746,-0.99338],[-6.15243,0.93265]],[[336.08982,193.72913],[5.33477,-3.19011],[-2.56602,2.16324]],[[327.42645,199.38005],[2.87703,-1.62861],[0,0]]],&quot;closed&quot;:true}]}" fill="#ffffff" stroke="none" stroke-width="0.5" stroke-linecap="butt"/><path d="M332.80347,182.30183c1.04732,-1.17614 2.03579,-2.60776 3.21244,-3.64966c1.02703,-0.90941 2.38473,-1.56613 3.89186,-2.03825c0.73987,0.12886 1.39829,0.20263 1.76433,0.20806c4.35792,0.80341 8.68531,0.59507 11.64031,-1.80069c5.60377,0.07003 11.56147,1.79402 16.47742,4.13495c2.55949,1.21239 5.4753,2.1992 7.71998,3.97648c3.10095,2.45526 4.76099,6.27429 6.47195,9.71609c0.04812,0.13027 -0.00166,0.2383 0.04568,0.36832c-2.87526,-2.87907 -6.99425,-5.05187 -10.10914,-6.09942c-6.45683,-2.15658 -13.16712,-1.30671 -19.84732,-0.28943c-6.30845,0.96563 -13.04951,2.78323 -18.51406,6.0719c-2.39604,2.00607 -5.4085,3.7786 -8.1195,5.3174c0.55527,-5.72945 2.5104,-10.66048 5.36604,-15.91576z" data-paper-data="{&quot;noHover&quot;:false,&quot;origItem&quot;:[&quot;Path&quot;,{&quot;applyMatrix&quot;:true,&quot;segments&quot;:[[[327.4837,198.19868],[0.55527,-5.72945],[2.711,-1.5388]],[[335.50916,192.91499],[-2.39604,2.00607],[5.46455,-3.28867]],[[354.0213,186.83393],[-6.30845,0.96563],[6.6802,-1.01728]],[[373.96829,187.11906],[-6.45683,-2.15658],[3.11489,1.04755]],[[384.07613,193.2285],[-2.87526,-2.87907],[-0.04734,-0.13002]],[[383.93293,192.83806],[0.04812,0.13027],[-1.71096,-3.4418]],[[377.46045,183.14069],[3.10095,2.45526],[-2.24468,-1.77728]],[[369.74573,179.17979],[2.55949,1.21239],[-4.91595,-2.34093]],[[353.32281,175.07021],[5.60377,0.07003],[-2.955,2.39576]],[[341.71315,176.85054],[4.35792,0.80341],[-0.36605,-0.00543]],[[339.95005,176.64062],[0.73987,0.12886],[-1.50713,0.47212]],[[336.06227,178.6709],[1.02703,-0.90941],[-1.17665,1.04189]],[[332.8526,182.3111],[1.04732,-1.17614],[-2.85564,5.25528]]],&quot;closed&quot;:true}]}" fill="#ffffff" stroke="none" stroke-width="0.5" stroke-linecap="butt"/><path d="M342.85811,160.32837c4.30685,1.54107 8.27621,4.52806 12.86212,5.05962c0.75196,0.91804 -0.39634,3.55428 -0.67271,4.47199c-1.8627,6.18551 -7.57614,6.62685 -13.21965,5.61402c-0.80448,0.01477 -4.10441,-0.5603 -4.72801,-1.14541c-0.73025,-0.68517 -0.94455,-2.33684 -1.18786,-3.21796c-1.15809,-4.19391 -0.92841,-8.86491 -0.08069,-13.12068c2.29872,0.89998 4.69926,1.50559 7.02679,2.33842z" data-paper-data="{&quot;noHover&quot;:false,&quot;origItem&quot;:[&quot;Path&quot;,{&quot;applyMatrix&quot;:true,&quot;segments&quot;:[[[671.73618,315.90456],[4.59745,1.79997],[-1.69544,8.51154]],[[671.91578,342.03839],[-2.31618,-8.38781],[0.48662,1.76225]],[[674.27499,348.4482],[-1.4605,-1.37035],[1.24719,1.17021]],[[683.69566,350.7132],[-1.60896,0.02955],[11.28701,2.02564]],[[709.99947,339.54746],[-3.7254,12.37102],[0.55272,-1.83541]],[[711.34161,330.64792],[1.50391,1.83607],[-9.17182,-1.06311]],[[685.75383,320.60629],[8.61371,3.08214],[-4.65506,-1.66566]]],&quot;closed&quot;:true}]}" fill="#ffffff" stroke="none" stroke-width="0.5" stroke-linecap="butt"/><path d="M381.61799,157.38193c-6.65053,2.2138 -11.26757,7.96188 -17.656,10.51971c-0.43863,0.20462 -0.8824,0.39856 -1.31588,0.61387c-0.30454,0.15126 -1.24038,0.11124 -0.96963,0.31696c2.28389,1.73525 3.92988,4.16116 6.38824,5.81594c3.24143,2.18188 7.80264,1.15621 11.06119,-0.47028c1.87469,-1.15239 5.07917,-3.36318 5.08732,-5.9426c0.00565,-1.78925 -0.67522,-3.52232 -0.74279,-5.32535c-0.05824,-1.55402 -0.40204,-4.48686 -1.85246,-5.52824zM382.78543,156.43344c1.60724,1.46337 2.1015,4.32906 2.18391,6.41908c0.07291,1.84915 0.78965,3.64244 0.74023,5.48799c-0.0847,3.16234 -3.48386,5.68818 -5.85445,7.14845c-3.76657,1.88632 -8.87939,2.91339 -12.61122,0.41493c-2.08648,-1.39689 -3.76423,-3.10261 -5.4124,-4.97052c-0.37065,-0.42006 -1.64167,-1.8167 -1.65082,-2.21286c-0.02299,-0.99501 2.61987,-1.93141 3.18538,-2.1954c5.97195,-2.38644 10.40413,-7.50657 16.37667,-10.03209c-0.01617,-0.06538 -0.02526,-0.13886 -0.02526,-0.22142c0,-0.75 0.75,-0.75 0.75,-0.75l0.3861,0.0058c0.32205,0.04412 0.61997,0.12614 0.89548,0.24084c0.02328,-0.00697 0.04658,-0.01389 0.0699,-0.02077c0,0 0.71952,-0.21162 0.93115,0.5079c0.01859,0.06321 0.03,0.1225 0.03534,0.17807z" fill="#000000" stroke="none" stroke-width="0.5" stroke-linecap="butt"/><path d="M383.5176,162.89352c0.06757,1.80303 0.75081,3.55975 0.74516,5.34901c-0.00815,2.57942 -3.23036,4.82182 -5.10505,5.97421c-3.25856,1.62649 -7.87745,2.65632 -11.11888,0.47443c-2.45836,-1.65478 -4.12751,-4.11387 -6.4114,-5.84912c-0.27076,-0.20571 0.66498,-0.16628 0.96952,-0.31755c0.43348,-0.21531 0.87693,-0.41125 1.31556,-0.61587c6.38842,-2.55783 11.08921,-8.34933 17.73974,-10.56313c1.45042,1.04138 1.80713,3.994 1.86537,5.54802z" data-paper-data="{&quot;noHover&quot;:false,&quot;origItem&quot;:[&quot;Path&quot;,{&quot;applyMatrix&quot;:true,&quot;segments&quot;:[[[763.23598,314.76386],[2.90084,2.08276],[-13.30105,4.4276]],[[727.92399,335.80329],[12.77685,-5.11566],[-0.87725,0.40925]],[[725.29223,337.03102],[0.86696,-0.43061],[-0.60908,0.30253]],[[723.35298,337.66493],[-0.54151,-0.41143],[4.56778,3.47051]],[[736.12946,349.29681],[-4.91672,-3.30955],[6.48286,4.36376]],[[758.25185,348.35625],[-6.51712,3.25298],[3.74939,-2.30478]],[[768.42649,336.47104],[-0.0163,5.15885],[0.01131,-3.57851]],[[766.9409,325.82034],[0.13514,3.60606],[-0.11648,-3.10804]]],&quot;closed&quot;:true}]}" fill="#ffffff" stroke="none" stroke-width="0.5" stroke-linecap="butt"/><path d="M345.78595,168.77649c0,-3.1294 2.53688,-5.66628 5.66628,-5.66628c3.1294,0 5.66628,2.53688 5.66628,5.66628c0,3.1294 -2.53688,5.66628 -5.66628,5.66628c-3.1294,0 -5.66628,-2.53688 -5.66628,-5.66628z" fill="#000000" stroke="none" stroke-width="0" stroke-linecap="butt"/><path d="M373.82424,167.11568c0,-3.1294 2.53688,-5.66628 5.66627,-5.66628c3.1294,0 5.66628,2.53688 5.66628,5.66628c0,3.1294 -2.53688,5.66628 -5.66628,5.66628c-3.1294,0 -5.66627,-2.53688 -5.66627,-5.66628z" fill="#000000" stroke="none" stroke-width="0" stroke-linecap="butt"/><g stroke="#000000" stroke-width="1" stroke-linecap="round"><path d="M222.24623,-5.97229l239.93407,381.0546l-11.912,24.02786l-21.62055,11.29534l-276.00642,-462.1324l9.54965,-21.37834l12.39498,-9.33001z" fill="#aaa0ff"/><path d="M228.91088,0.64931l-35.52949,19.27552l-40.36141,-71.31441l8.03561,-22.7282l13.19301,-7.93914z" fill="#75ffa0"/><path d="M465.20483,373.02335l-14.23323,27.39328l-24.90385,10.40603l-56.11666,-95.55258l39.33298,-28.11326z" fill="#75ffa0"/></g><path d="M171.9721,35.94149c0.20049,1.48654 -1.28605,1.68703 -1.28605,1.68703l-1.22501,0.10457c-1.50614,1.28521 -3.47799,1.93863 -5.35335,2.57363c-3.52543,1.1937 -7.03915,3.53916 -10.35245,5.2407c-0.82085,0.42125 -4.16166,2.07081 -4.95064,2.71889c-3.53671,2.90514 -5.9101,7.46639 -8.85727,10.90721c-2.70482,3.15788 -6.27321,5.05837 -9.17756,7.89165c-4.7962,4.67883 -7.26986,11.6241 -9.69744,17.69357c0,0 -0.55709,1.39272 -1.9498,0.83563c-1.39272,-0.55709 -0.83563,-1.9498 -0.83563,-1.9498c2.59265,-6.48107 5.2718,-13.73585 10.38799,-18.72684c2.84615,-2.77649 6.34922,-4.60802 8.99398,-7.69578c3.0516,-3.56275 5.51891,-8.21867 9.18424,-11.23417c1.1284,-0.92835 4.20592,-2.42776 5.53166,-3.10903c3.44422,-1.76873 7.08226,-4.16377 10.74733,-5.40897c1.7927,-0.60907 3.66033,-1.26141 5.11084,-2.47826l2.04213,-0.33608c0,0 1.48654,-0.20049 1.68703,1.28605z" fill="#13ff00" stroke="none" stroke-width="0.5" stroke-linecap="butt"/><path d="M133.55643,0.56557c1.24808,0.83205 0.41603,2.08013 0.41603,2.08013l-1.46916,2.18827c-5.94723,5.79452 -12.21278,11.32873 -18.7088,16.50048c-4.69856,3.63231 -7.74591,8.69392 -11.3352,13.37219c-6.78863,8.84829 -13.51675,17.51735 -18.51265,27.50914c0,0 -0.67082,1.34164 -2.01246,0.67082c-1.34164,-0.67082 -0.67082,-2.01246 -0.67082,-2.01246c5.08287,-10.16574 11.90977,-18.99239 18.81575,-27.99364c3.75542,-4.89481 6.95269,-10.08844 11.86195,-13.90504c6.33632,-5.04483 12.41315,-10.45736 18.25814,-16.06274l1.2771,-1.93113c0,0 0.83205,-1.24808 2.08013,-0.41603z" fill="#13ff00" stroke="none" stroke-width="0.5" stroke-linecap="butt"/><path d="M182.1257,61.5607c0.67082,1.34164 -0.67082,2.01246 -0.67082,2.01246l-1.37313,0.68657c-0.98745,0.49182 -1.93737,1.0598 -2.86355,1.65908c-6.35115,4.08764 -12.74878,7.94698 -19.25332,11.8493c-3.29531,1.97698 -6.9876,3.36421 -9.94553,5.59071c-0.9905,0.74557 -3.17911,1.58431 -3.86329,2.51221c-0.65896,0.89369 -0.67039,2.12657 -1.16467,3.12085c0,0 -0.67082,1.34164 -2.01246,0.67082c-1.34164,-0.67082 -0.67082,-2.01246 -0.67082,-2.01246c0.60919,-1.21038 0.76315,-2.66487 1.58159,-3.74482c0.86411,-1.1402 3.2069,-2.10685 4.37552,-2.98033c3.06233,-2.28893 6.77516,-3.70107 10.15629,-5.72954c6.4811,-3.88825 12.85221,-7.70998 19.16998,-11.79742c1.01954,-0.65636 2.06484,-1.27792 3.14862,-1.82169l1.37313,-0.68657c0,0 1.34164,-0.67082 2.01246,0.67082z" fill="#13ff00" stroke="none" stroke-width="0.5" stroke-linecap="butt"/><path d="M409.41082,252.53741c-1.5,0 -1.5,-1.5 -1.5,-1.5l0.15836,-1.35739c0.91857,-1.77877 0.98679,-3.63386 1.31242,-5.62432c1.13515,-17.17682 -0.13193,-34.23522 -3.50135,-51.0823c0,0 -0.29417,-1.47087 1.1767,-1.76505c1.47087,-0.29417 1.76505,1.1767 1.76505,1.1767c3.43031,17.15155 4.71549,34.52663 3.54011,52.01213c-0.38868,2.3928 -0.55312,4.45921 -1.60964,6.62448l0.15836,0.01575c0,0 0,1.5 -1.5,1.5z" fill="#13ff00" stroke="none" stroke-width="0.5" stroke-linecap="butt"/><path d="M452.68028,283.96113c-1.34164,-0.67082 -0.67082,-2.01246 -0.67082,-2.01246l0.81134,-1.57938c2.62823,-2.46666 2.20331,-8.08258 2.51443,-11.56294c0.82783,-9.26055 0.63527,-18.52566 0.63527,-27.81371c0,-3.47005 0.15979,-6.98873 0.00327,-10.45323c-0.24877,-5.50631 -1.68181,-10.98184 -2.06068,-16.49366c-0.06121,-0.89048 0.08099,-4.13911 0.0097,-4.69963c-0.73021,-5.74118 -2.70588,-11.34848 -3.43324,-17.16741c0,0 -0.18605,-1.48842 1.30236,-1.67447c1.48842,-0.18605 1.67447,1.30236 1.67447,1.30236c0.72743,5.81945 2.70152,11.41438 3.43243,17.16093c0.26133,2.05467 -0.12013,3.04944 0.0097,4.91231c0.38349,5.50248 1.8008,10.963 2.05872,16.46155c0.16557,3.52966 0.00327,7.11566 0.00327,10.65124c0,10.40294 0.14286,20.73116 -0.9702,31.09031c-0.38266,3.5614 -0.21496,7.37914 -2.74577,10.04047l-0.56179,1.16689c0,0 -0.67082,1.34164 -2.01246,0.67082z" fill="#13ff00" stroke="none" stroke-width="0.5" stroke-linecap="butt"/><path d="M470.72702,340.34083c-1.42287,-0.47482 -0.94805,-1.89768 -0.94805,-1.89768l0.57642,-1.69912c2.09906,-3.51195 4.80935,-6.37332 7.17851,-9.68359c1.73907,-2.42988 2.9939,-5.28211 4.85608,-7.61838c1.66933,-2.09432 3.74416,-3.54469 5.2289,-5.80931c7.31506,-11.05281 13.39071,-23.45572 18.52887,-35.65884c2.57959,-6.12652 5.71607,-12.44976 6.48279,-19.10295c0.93259,-7.90148 2.35731,-15.80778 3.07472,-23.72616c0.76286,-8.41997 -0.68541,-16.90822 -0.69001,-25.30141c0,0 0,-1.5 1.5,-1.5c1.5,0 1.5,1.5 1.5,1.5c-0.00487,8.46498 1.43616,17.01032 0.68312,25.50454c-0.70635,7.96767 -2.1503,15.92547 -3.08852,23.87467c-0.83878,6.95828 -3.99649,13.50128 -6.6972,19.91548c-5.21161,12.37757 -11.38338,24.93009 -18.79114,36.14902c-1.55163,2.33056 -3.67404,3.87592 -5.39141,6.03215c-1.82331,2.28925 -3.0512,5.10417 -4.75585,7.48609c-2.2507,3.14491 -4.88973,5.86833 -6.89353,9.19271l-0.45601,1.39473c0,0 -0.47482,1.42287 -1.89768,0.94805z" fill="#13ff00" stroke="none" stroke-width="0.5" stroke-linecap="butt"/></g></g></svg>