<svg version="1.1" xmlns="http://www.w3.org/2000/svg" xmlns:xlink="http://www.w3.org/1999/xlink" width="1733.09309" height="836.33634" viewBox="0,0,1733.09309,836.33634"><g transform="translate(546.54655,238.16817)"><g data-paper-data="{&quot;isPaintingLayer&quot;:true}" stroke-linejoin="miter" stroke-miterlimit="10" stroke-dasharray="" stroke-dashoffset="0" style="mix-blend-mode: normal"><path d="M157.11555,303.20215l31.81592,-52.77254l98.56621,-9.80979l-17.2548,51.83316z" data-paper-data="{&quot;index&quot;:null}" fill="#cedce9" fill-rule="nonzero" stroke="#000000" stroke-width="1.5" stroke-linecap="round"/><path d="M155.20029,288.96543c-3.24329,-0.89287 -10.99571,-2.37542 -7.50304,-3.52115c-1.89444,0.34107 -4.41946,0.75037 -5.75608,0.83837c-6.33214,0.41692 -14.46174,-0.48626 -20.96142,-0.70478c-17.83132,-0.59955 -35.12516,-1.51533 -52.46964,-0.51371c-7.83846,0.45267 -9.86569,-1.82724 -12.42488,1.18138c-5.21578,5.01708 -14.75706,9.32979 -21.00539,14.34699c-8.46847,6.79982 -11.96924,13.52164 -17.30694,20.44592c-5.92426,5.65093 -1.94563,17.0168 -2.29041,23.51659c-0.09228,1.7399 1.3184,4.88987 -0.2538,6.11997c1.49195,0.11498 2.93314,0.22256 3.85298,0.25348c6.11377,0.20556 12.22745,0.41112 18.34126,0.61668c24.31953,0.81769 52.5891,1.51437 76.34304,-0.50328c28.18571,-2.0568 58.33307,3.26532 86.72791,1.52335c15.54312,-0.8299 32.36548,0.53965 48.11761,1.07881c7.99104,0.27354 14.91109,-0.94239 18.27499,1.86494c0.88414,0.7379 0.0883,-1.66436 0.13243,-2.49651c0.11034,-2.0804 0.2207,-4.16089 0.33106,-6.2413c0.618,-11.65043 1.23599,-23.30083 1.85399,-34.95125c0.14612,-2.75423 -0.84663,-12.65885 2.34504,-13.61972c-0.58721,-0.03652 -1.25137,-0.08612 -1.61666,-0.11116c-3.23625,-0.2217 -5.05222,-0.19747 -7.53688,-1.14264c-4.31348,-1.64089 -19.19326,-1.00657 -25.1491,-1.20682c-23.14487,-0.77821 -46.28966,-1.5564 -69.43456,-2.33459c0,0 -5.24032,-0.17619 -5.10789,-2.67269c0.00543,-0.10247 0.01944,-0.20044 0.04138,-0.29407c-2.49178,-0.33717 -5.00366,-0.77308 -7.5451,-1.47276zM237.51131,290.7466c13.97145,0.46975 31.89096,-0.11508 41.16376,5.2675c5.31368,3.08441 1.21622,12.26314 1.00959,16.15832c-0.61801,11.65043 -1.23601,23.30084 -1.85401,34.95126c-0.07056,1.33038 1.38435,7.99052 -0.46348,8.73782c-18.6639,7.54781 -52.68871,0.02869 -75.07751,1.66903c-27.76558,1.70333 -59.31417,-4.38226 -86.23869,-1.55911c-24.48225,2.07955 -53.80845,1.41035 -78.89292,0.56694c-3.59812,-0.12097 -25.24496,0.45169 -27.51182,-0.92502c-6.50048,-3.94796 -4.87812,-7.00442 -4.64439,-11.41054c0.42276,-7.96969 -2.03879,-17.56933 2.91204,-25.07746c5.47078,-7.09691 9.42375,-14.2664 17.91038,-21.08084c3.42343,-2.7488 7.16024,-6.45405 11.52537,-8.89393c2.8563,-1.59652 8.21884,-2.79142 8.99624,-4.96556c4.78989,-5.63113 12.79121,-3.46426 22.42934,-4.11371c17.15706,-1.15609 34.79088,-0.08074 52.46964,0.51368c6.51979,0.21922 19.33457,-0.78196 23.91036,-0.18253c7.96544,1.0435 12.43453,4.45244 20.14329,5.67922c5.65655,0.90024 11.67946,0.68238 18.24193,2.48906c0.49821,0.13717 0.9963,0.27433 1.49455,0.41147c17.49212,0.58814 34.98433,1.17626 52.47649,1.7644z" data-paper-data="{&quot;index&quot;:null}" fill="#000000" fill-rule="nonzero" stroke="none" stroke-width="2" stroke-linecap="butt"/><path d="M162.82444,290.32081c-0.02196,0.09366 -0.03536,0.19168 -0.04078,0.29416c-0.13243,2.49651 5.13339,2.67783 5.13339,2.67783c23.14483,0.77821 46.41038,1.61019 69.55535,2.38838c5.9558,0.20026 20.84846,-0.42204 25.16193,1.21883c2.48461,0.94515 4.30444,0.92525 7.54057,1.14692c0.36525,0.02505 1.02997,0.07529 1.61725,0.11183c-3.19172,0.96083 -2.18432,10.88989 -2.3304,13.64411c-0.61799,11.65047 -1.2506,23.36979 -1.86859,35.02022c-0.11036,2.08041 -0.2302,4.17067 -0.34056,6.25109c-0.04414,0.83217 0.74758,3.23803 -0.13658,2.50014c-3.36389,-2.80734 -10.29044,-1.58628 -18.28144,-1.8598c-15.75212,-0.53915 -32.62366,-1.88182 -48.16677,-1.05191c-28.39489,1.74197 -58.82115,-3.56527 -87.00686,-1.50848c-23.75394,2.01772 -52.13594,1.27367 -76.45564,0.45599c-6.11381,-0.20554 -12.23778,-0.41932 -18.35153,-0.62488c-0.91995,-0.03094 -2.363,-0.14015 -3.85488,-0.25515c1.57226,-1.23009 0.15222,-4.38925 0.24451,-6.12916c0.34477,-6.49979 -3.65623,-17.90969 2.26815,-23.56063c5.3377,-6.92433 8.85172,-13.69313 17.32021,-20.49299c6.24838,-5.0172 15.83086,-9.36577 21.0467,-14.38287c2.55918,-3.00864 4.60317,-0.73765 12.44161,-1.19032c17.34446,-1.00158 34.75255,-0.11704 52.58377,0.48248c6.49951,0.21853 14.70259,1.11794 21.03471,0.70102c1.33653,-0.08805 3.88236,-0.49662 5.77675,-0.83765c-3.49276,1.14572 4.29064,2.63081 7.53392,3.52367c2.54155,0.6997 5.0838,1.13992 7.57547,1.47711z" data-paper-data="{&quot;index&quot;:null}" fill="#000000" fill-rule="nonzero" stroke="none" stroke-width="2" stroke-linecap="butt"/><path d="M374.86322,285.02801l-13.71028,-52.88131l97.67724,16.45252l28.17455,54.80318z" data-paper-data="{&quot;index&quot;:null}" fill="#cedce9" fill-rule="nonzero" stroke="#000000" stroke-width="1.5" stroke-linecap="round"/><path d="M489.87844,289.32786c-2.58293,0.52623 -5.11853,0.79129 -7.62741,0.95918c0.01556,0.09489 0.0229,0.19358 0.02139,0.29619c-0.0367,2.49975 -5.27693,2.32117 -5.27693,2.32117c-23.14454,-0.78868 -46.28897,-1.57735 -69.43349,-2.36601c-5.95574,-0.20295 -20.75857,-1.84202 -25.17314,-0.49656c-2.54288,0.77499 -4.35305,0.62802 -7.59689,0.63037c-0.36615,0.00027 -1.03215,0.00484 -1.62048,0.00158c3.11939,1.17449 1.45915,10.98931 1.41869,13.74712c-0.17124,11.66555 -0.34248,23.33107 -0.51371,34.99662c-0.03057,2.08311 -0.06114,4.16631 -0.09174,6.2494c-0.01224,0.83324 -0.96871,3.17617 -0.03669,2.49975c3.54603,-2.57344 10.36802,-0.89235 18.35927,-0.62489c15.75253,0.52726 32.62898,0.29838 48.08041,2.17744c28.21206,3.65807 58.6503,0.38674 86.63241,4.34479c23.56313,3.61931 51.81511,4.83585 76.13426,5.66455c6.11371,0.20833 12.22731,0.41666 18.34097,0.62499c0.91983,0.03134 2.365,0.02148 3.86131,0.00764c-1.48541,-1.3336 0.13504,-4.38097 0.16062,-6.12313c0.09553,-6.50824 4.83363,-17.57905 -0.69495,-23.61765c-4.85725,-7.26938 -7.89546,-14.21254 -15.88473,-21.56944c-5.89476,-5.42823 -15.12257,-10.37627 -19.98715,-15.73456c-2.34989,-3.17479 -4.52665,-1.03718 -12.31655,-2.01886c-17.23706,-2.17218 -34.55323,-2.42793 -52.38428,-3.03553c-6.49958,-0.22148 -14.67165,0.12988 -20.9611,-0.71427c-1.32761,-0.17818 -3.81917,-0.75729 -5.68621,-1.22568c3.40722,1.37928 -4.42773,2.33421 -7.72397,3.00572zM407.6351,285.53887c17.49189,0.59605 34.98384,1.19212 52.47569,1.78817c0.50637,-0.10314 1.0126,-0.20631 1.51894,-0.30947c6.66962,-1.35879 12.66401,-0.73416 18.36849,-1.24982c7.77407,-0.7027 12.46344,-3.80163 20.48122,-4.3041c4.60584,-0.28864 17.32359,1.5768 23.84329,1.79896c17.6785,0.60242 35.34467,0.72195 52.38428,3.03557c9.57216,1.2997 17.70168,-0.32115 22.09983,5.62099c0.6286,2.22172 5.89806,3.77651 8.63987,5.56253c4.19015,2.72949 7.66784,6.67894 10.89756,9.65294c8.00641,7.37271 11.46552,14.7931 16.44388,22.24371c4.4318,7.82573 1.32674,17.23693 1.20961,25.21697c-0.06476,4.41184 1.3472,7.57101 -5.40536,11.07036c-2.35477,1.22027 -23.91334,-0.81487 -27.5114,-0.93748c-25.08408,-0.85476 -54.38841,-2.17016 -78.674,-5.90048c-26.67198,-4.63736 -58.55988,-0.69905 -86.14672,-4.27603c-22.22663,-3.15055 -56.68201,2.05056 -74.7928,-6.74205c-1.79307,-0.87054 0.10888,-7.41705 0.12844,-8.74916c0.17124,-11.66555 0.34247,-23.33107 0.51369,-34.99663c0.05723,-3.90022 -3.41017,-13.33502 2.09993,-16.05306c9.61555,-4.7432 27.45448,-2.94797 41.42573,-2.47189z" data-paper-data="{&quot;index&quot;:null}" fill="#000000" fill-rule="nonzero" stroke="none" stroke-width="2" stroke-linecap="butt"/><path d="M482.17968,290.16447c2.50876,-0.16793 5.07496,-0.43523 7.65801,-0.96146c3.29623,-0.67149 11.16224,-1.62687 7.75495,-3.00615c1.867,0.46835 4.37937,1.04815 5.70689,1.22636c6.28944,0.84415 14.53455,0.50151 21.03396,0.72298c17.83095,0.60762 35.25901,0.90226 52.49604,3.07441c7.78989,0.98168 9.98278,-1.1459 12.33265,2.02891c4.86464,5.35831 14.13114,10.34491 20.02594,15.77315c7.98928,7.35694 11.03755,14.34787 15.89481,21.61729c5.52869,6.03861 0.7653,17.15184 0.66976,23.66007c-0.02558,1.74216 -1.65599,4.79805 -0.17051,6.13166c-1.49624,0.01385 -2.94338,0.02523 -3.86331,-0.00611c-6.11365,-0.20833 -12.23808,-0.40916 -18.35178,-0.61751c-24.31933,-0.82871 -52.68668,-2.00561 -76.24981,-5.62498c-27.98212,-3.95803 -58.69763,-0.72039 -86.90972,-4.37849c-15.45142,-1.87905 -32.37513,-1.68032 -48.12765,-2.2076c-7.99121,-0.26747 -14.81934,-1.95412 -18.36536,0.61933c-0.93203,0.67642 0.02057,-1.67039 0.03279,-2.50365c0.03057,-2.08311 0.05235,-4.1767 0.08293,-6.25981c0.17124,-11.66555 0.33256,-23.40083 0.5038,-35.06642c0.04048,-2.75779 1.717,-12.59601 -1.40244,-13.77047c0.58841,0.00326 1.255,-0.00191 1.62111,-0.00221c3.24372,-0.00233 5.05802,0.14057 7.60087,-0.63439c4.41456,-1.34543 19.23104,0.2825 25.18676,0.48544c23.14463,0.78868 46.41317,1.53185 69.55765,2.32051c0,0 5.26603,0.17518 5.30272,-2.32457c0.00151,-0.10262 -0.00521,-0.20132 -0.0208,-0.29624z" data-paper-data="{&quot;index&quot;:null}" fill="#000000" fill-rule="nonzero" stroke="none" stroke-width="2" stroke-linecap="butt"/><path d="M392.42977,202.11823c0,1.10514 0,2.21063 0,3.31578c1.06437,-0.10279 2.05911,0.00763 2.9842,0.33159c-1.10416,0 -2.21162,0 -3.31578,0c-0.1028,-1.28354 0.00663,-2.49944 0.33158,-3.64737z" data-paper-data="{&quot;index&quot;:null}" fill="#9b9b9b" fill-rule="evenodd" stroke="none" stroke-width="1" stroke-linecap="butt"/><path d="M192.47011,279.94737c-1.88302,3.14402 -4.02802,6.1827 -6.43562,9.11556c-5.50315,-4.02743 -10.78219,-8.22877 -15.83791,-12.60365c5.25337,4.00827 10.50672,8.01652 15.76009,12.02479c2.17124,-2.8457 4.34219,-5.69102 6.51343,-8.53672z" data-paper-data="{&quot;index&quot;:null}" fill="#898989" fill-rule="evenodd" stroke="none" stroke-width="1" stroke-linecap="butt"/><path d="M501.74461,232.72137l-5.24427,0.71512l-16.92469,1.07269l-26.45974,0.35756z" data-paper-data="{&quot;index&quot;:null}" fill="#fdfdfd" fill-rule="evenodd" stroke="none" stroke-width="1" stroke-linecap="butt" opacity="0.168"/><path d="M451.44724,234.86672l-5.95941,0.83432l-83.43162,3.33727l-14.77933,0.95351l-17.63984,0.11918z" data-paper-data="{&quot;index&quot;:null}" fill="#fdfdfd" fill-rule="evenodd" stroke="none" stroke-width="1" stroke-linecap="butt" opacity="0.15"/><path d="M187.68796,269.3075c-0.38991,-0.05821 -0.77702,-0.20399 -1.16168,-0.43765c-28.90624,-19.74896 -57.82735,-39.47336 -86.76475,-59.17129c0.31218,-0.52755 0.71145,-0.91989 1.19882,-1.17916c-0.2409,0.31573 -0.48035,0.62956 -0.72125,0.94529c29.16352,19.9273 58.31356,39.87424 87.44886,59.84283z" data-paper-data="{&quot;index&quot;:null}" fill="#6fe1bc" fill-rule="evenodd" stroke="none" stroke-width="1" stroke-linecap="butt"/><path d="M209.39583,307.15633c6.20216,5.27893 12.54722,10.44854 19.03472,15.50845c-6.57253,-5.01477 -13.14484,-10.02938 -19.71735,-15.04414c0.15526,-0.30548 0.38272,-0.4603 0.68264,-0.4643z" data-paper-data="{&quot;index&quot;:null}" fill="#7a591a" fill-rule="evenodd" stroke="none" stroke-width="1" stroke-linecap="butt"/><g><path d="M303.58377,184.91088l0.24198,13.06696h-0.48396z" data-paper-data="{&quot;index&quot;:null}" fill="#e6387e" fill-rule="evenodd" stroke="none" stroke-width="1" stroke-linecap="butt"/><g data-paper-data="{&quot;index&quot;:null}" fill-rule="nonzero" stroke="#000000" stroke-width="1" stroke-linecap="round"><path d="M117.00467,172.85293l279.65168,14.41928l236.4687,40.97362l17.9285,29.50231l-303.59619,-11.20749l-36.32867,25.30867l-74.31529,-3.50207l-57.73872,14.82687l-151.69048,-11.73254l1.50402,-17.57015z" fill="#322a14"/><path d="M37.29227,125.92028l107.99152,7.8473l0.70244,-16.73826l115.16233,7.12814l1.30157,-24.93759l3.17241,-2.67211l56.84392,3.66064l32.60351,-23.36894l87.31897,3.66445l28.92867,27.73637l12.4955,0.01435l-1.13215,-9.48335l81.89812,5.22212l14.43076,-15.71584l55.13623,3.33395l-0.40971,137.37622l-57.85153,-3.95795l-95.58102,-7.32648l-1.06118,19.20967l-11.59381,-0.23153l-34.76434,-22.37078l-81.9729,-3.4401l-32.64128,16.67301l-63.08099,-3.92239l-0.28044,6.68257l-0.88674,21.12966l-115.52328,-6.1232l1.82994,17.16331l-110.37838,-7.1824l1.65931,-15.23173z" data-paper-data="{&quot;index&quot;:null}" fill="#898b80"/><path d="M50.7278,224.97737l3.0047,-67.41743l55.50129,2.68007l-3.90239,67.90607z" data-paper-data="{&quot;index&quot;:null}" fill="#4f6d78"/><path d="M153.0494,245.93802l8.1794,-119.65615l68.5919,4.28205l-6.07601,119.70056z" data-paper-data="{&quot;index&quot;:null}" fill="#212318"/><path d="M227.25881,187.42981l-3.33716,62.79824l-60.88069,-4.09002l4.08546,-63.90718l61.22177,4.32363z" data-paper-data="{&quot;index&quot;:null}" fill="#4f6d78"/><path d="M315.10454,227.25654l7.1091,-127.59577l32.56691,-23.54544l88.98774,3.20818l27.40506,28.3868l-4.90591,129.44261l-33.40665,-23.33167l-82.46417,-2.9344l-32.30967,17.41592z" data-paper-data="{&quot;index&quot;:null}" fill="#4b5652"/><path d="M321.47591,193.53286l3.67901,-83.48555l20.81602,-15.2667l-3.14754,87.54293z" data-paper-data="{&quot;index&quot;:null}" fill="#4f6d78"/><path d="M357.77225,174.13514l3.47633,-82.83617l69.47551,2.03844l-2.9816,87.76918l-69.07319,-5.35488z" data-paper-data="{&quot;index&quot;:null}" fill="#4f6d78"/><path d="M442.4962,184.88364l3.05073,-81.05578l20.24381,19.27052l-3.35013,75.64851z" data-paper-data="{&quot;index&quot;:null}" fill="#4f6d78"/><path d="M480.14843,218.87588l3.9939,-99.34945l93.05855,6.53689l-3.64547,99.40793z" data-paper-data="{&quot;index&quot;:null}" fill="#383a2f"/><path d="M553.27357,211.28683l-63.07594,-1.94532l3.17228,-42.14737l60.07671,2.34576z" data-paper-data="{&quot;index&quot;:null}" fill="#4f6d78"/><path d="M556.52376,225.80912l1.16395,-61.17893l7.98749,-14.75244l-1.19896,74.55458z" data-paper-data="{&quot;index&quot;:null}" fill="#5d6864"/><path d="M484.75895,108.36563l-13.35109,0.75289l-28.08975,-29.131l-88.22713,-3.13977l-33.23189,22.99318l-55.76678,-3.27832l-3.11419,2.68329l-20.23647,-40.80773l234.10253,12.7791l178.78691,7.69062l-2.44477,3.83696l-5.10611,9.91604l-68.85986,-4.20298l-14.5259,15.33627l-82.20865,-4.62249z" data-paper-data="{&quot;index&quot;:null}" fill="#a3afa1"/><path d="M261.92505,124.3399l-146.2015,-8.57432l-2.96486,-0.87481l-5.20288,-5.6587l-0.06804,-7.3192l154.15222,10.22117z" data-paper-data="{&quot;index&quot;:null}" fill="#a3afa1"/><path d="M146.37786,134.0766l-132.10952,-7.98294l-4.21804,-11.24532l135.98749,8.33327z" data-paper-data="{&quot;index&quot;:null}" fill="#a3afa1"/></g><path d="M251.60133,144.21044c4.69569,-0.67415 7.93461,0.92389 12.27121,4.56436c1.38489,1.16263 2.55094,1.73668 3.57115,2.93411c0.3694,-3.6456 1.59928,-7.16321 4.06048,-9.90632c3.45238,-3.84786 9.66602,-5.73636 15.33714,-6.14859l1.33686,-0.22486c6.65108,-1.08487 11.81102,0.92326 17.05886,4.9891c7.76173,6.01989 13.624,13.58398 9.7553,23.92163c-0.69623,1.86038 -0.7597,3.61855 -2.0737,5.18536c-2.17063,2.5882 -5.60475,4.00398 -8.46789,5.45662c-7.1549,3.03702 -15.86504,3.91315 -23.3305,1.60995c-4.9037,-1.51287 -9.51865,-6.42207 -11.84859,-11.75339c-2.28311,10.32057 -14.86883,17.04416 -24.13316,18.05576c-3.69021,-0.14754 -7.41946,0.6234 -11.05026,-0.57494c-5.27545,-1.74124 -9.76471,-7.24908 -10.48631,-13.27498c-0.47758,-3.98822 0.84579,-8.35082 1.81966,-12.13653c4.01491,-6.1319 11.95374,-9.47163 18.43386,-11.45921c2.5476,-0.78145 4.81708,-1.63202 7.50288,-1.30195c0,0 0.10206,0.01337 0.24308,0.06386zM246.9663,147.14416c-0.80526,0.23568 -1.61017,0.51791 -2.43753,0.77165c-5.76269,1.76754 -13.21518,4.68463 -16.91059,10.07763c-2.04543,8.47867 -2.2369,18.65847 7.18116,21.86972c3.33792,1.1381 6.86211,0.31007 10.26478,0.46341c9.36531,-1.00615 23.80163,-9.00475 21.99644,-20.79701c-0.16933,-1.5325 -0.05576,-3.75269 -0.76432,-5.13427c-0.97649,-1.9041 -2.40514,-2.33298 -3.91516,-3.59494c-4.69818,-3.92641 -7.44202,-5.19542 -13.35827,-3.37161l-1.12487,0.08227c0,0 -0.55925,0.02182 -0.93162,-0.36681zM293.91833,137.81946c-0.38091,0.66338 -1.19129,0.54548 -1.19129,0.54548c-1.59417,-0.23938 -3.47731,-0.30843 -5.45652,-0.18238l-0.32164,0.05411c0,0 -0.16298,0.02737 -0.37821,-0.00169c-5.01092,0.4314 -10.48357,2.10642 -13.38201,5.41433c-3.52167,4.01924 -3.9125,9.80334 -3.06027,14.89691c1.12508,17.12656 21.44865,19.14714 33.34744,14.08411c2.59257,-1.31761 5.63179,-2.55632 7.65177,-4.83565c1.36152,-1.53633 2.04683,-5.14766 2.15794,-7.06594c0.09973,-1.72184 1.05512,-3.89269 0.73991,-5.59989c-0.97611,-5.28665 -6.38895,-9.67201 -10.21976,-12.63692c-3.23166,-2.50398 -6.32395,-4.18878 -9.88734,-4.67252z" data-paper-data="{&quot;index&quot;:null}" fill="#000000" fill-rule="nonzero" stroke="none" stroke-width="0.5" stroke-linecap="butt"/><path d="M244.51923,147.8524c0.82735,-0.25373 1.64206,-0.53674 2.44735,-0.77243c0.37236,0.38863 0.93531,0.36696 0.93531,0.36696l1.12921,-0.08182c5.91622,-1.82381 8.69946,-0.53087 13.39769,3.39553c1.51001,1.26194 2.94625,1.70405 3.9228,3.60815c0.70853,1.38158 0.59928,3.61592 0.76856,5.14849c1.80515,11.79228 -12.69783,19.86694 -22.06308,20.87311c-3.40274,-0.1534 -6.95742,0.66124 -10.29537,-0.47689c-9.41799,-3.2112 -9.24729,-13.45853 -7.20187,-21.93719c3.69545,-5.393 11.19676,-8.35628 16.95939,-10.12385z" data-paper-data="{&quot;index&quot;:null}" fill="#ffffff" fill-rule="nonzero" stroke="none" stroke-width="0.5" stroke-linecap="butt"/><path d="M292.73076,138.30083c0,0 0.81448,0.11824 1.19534,-0.54511c3.56341,0.48372 6.68943,2.18533 9.92109,4.68934c3.8308,2.96492 9.26272,7.39432 10.23885,12.68096c0.31521,1.70717 -0.64128,3.89349 -0.74098,5.61527c-0.11109,1.91829 -0.80312,5.54866 -2.16467,7.085c-2.01998,2.27932 -5.07538,3.5376 -7.66796,4.85519c-11.89878,5.06303 -32.31921,2.99792 -33.44432,-14.12865c-0.85222,-5.0936 -0.45213,-10.91888 3.06949,-14.93806c2.89837,-3.30788 8.4046,-5.00983 13.41548,-5.44124c0.21519,0.02908 0.37937,0.00134 0.37937,0.00134l0.32277,-0.0544c1.9792,-0.12605 3.88128,-0.05902 5.47551,0.18035z" data-paper-data="{&quot;index&quot;:null}" fill="#ffffff" fill-rule="nonzero" stroke="none" stroke-width="0.5" stroke-linecap="butt"/><path d="M311.61842,154.57392c0.46487,1.70336 -0.46162,3.48404 -2.06936,3.97714c-1.60771,0.49311 -3.28792,-0.48796 -3.75277,-2.19137c-0.46486,-1.70334 0.46161,-3.48403 2.06935,-3.97715c1.60773,-0.49314 3.28795,0.48797 3.7528,2.19137z" data-paper-data="{&quot;index&quot;:null}" fill="#000000" fill-rule="nonzero" stroke="none" stroke-width="0.5" stroke-linecap="butt"/><path d="M265.73652,160.21539c0.46488,1.70341 -0.46158,3.48405 -2.06932,3.97717c-1.60774,0.49315 -3.28798,-0.48795 -3.75283,-2.19135c-0.46487,-1.70336 0.46161,-3.48408 2.06935,-3.97718c1.60771,-0.49314 3.28793,0.48797 3.75279,2.19137z" data-paper-data="{&quot;index&quot;:null}" fill="#000000" fill-rule="nonzero" stroke="none" stroke-width="0.5" stroke-linecap="butt"/><path d="M328.03713,80.82758c0.86006,1.32144 -0.38734,2.23317 -0.38734,2.23317l-1.71678,1.25479c-6.32064,4.62397 -11.55242,10.7197 -17.32828,16.07203c-5.39007,4.98797 -11.75978,8.35443 -17.37078,12.95969c-2.85165,2.34057 -5.10249,5.7356 -7.73787,8.35214c-4.80962,4.77518 -10.50407,8.74395 -15.65889,13.09201c0,0 -1.1857,1.00007 -2.12903,-0.25596c-0.94335,-1.25597 0.24232,-2.25597 0.24232,-2.25597c5.10092,-4.30173 10.75619,-8.22663 15.5096,-12.95759c2.67944,-2.66686 4.9643,-6.07236 7.86274,-8.46582c5.56825,-4.59814 11.93346,-7.91856 17.28762,-12.88535c5.86829,-5.43599 11.18148,-11.59593 17.60164,-16.29742l1.71756,-1.2554c0,0 1.24737,-0.91173 2.10744,0.40971z" data-paper-data="{&quot;index&quot;:null}" fill="#000000" fill-rule="nonzero" stroke="none" stroke-width="0.5" stroke-linecap="butt"/><path d="M185.67662,100.75656c0.8848,-1.30362 2.11479,-0.36653 2.11479,-0.36653l0.36667,0.31881c6.94209,3.32429 14.24694,5.40238 21.17447,8.9292c10.70579,5.96448 21.35184,12.20502 32.18839,17.88416c5.42266,2.84186 10.15757,5.10359 14.90417,9.15718c0,0 1.17949,1.00734 0.22842,2.25746c-0.95112,1.25011 -2.1306,0.24274 -2.1306,0.24274c-4.5703,-3.90362 -9.11559,-6.03796 -14.34615,-8.77914c-10.84257,-5.68227 -21.49582,-11.9241 -32.20648,-17.89372c-6.89232,-3.50743 -14.14019,-5.57699 -21.05787,-8.87035l-0.89066,-0.63913c0,0 -1.23,-0.93713 -0.3452,-2.24069z" data-paper-data="{&quot;index&quot;:null}" fill="#000000" fill-rule="nonzero" stroke="none" stroke-width="0.5" stroke-linecap="butt"/><path d="M319.23821,221.77063c-0.69265,-0.22792 -1.35778,-0.48055 -2.00464,-0.7517c0.01653,0.87211 0.02524,1.74395 0.02524,2.61539c0,0 0,0.75 -0.75,0.75c-0.75,0 -0.75,-0.75 -0.75,-0.75c0,-1.09779 -0.01394,-2.19622 -0.04002,-3.29505c-2.2513,-1.07115 -4.3604,-2.31946 -6.76246,-3.45392c-9.72426,-2.9245 -19.68989,-4.958 -29.54952,-7.42307c-2.48708,-0.66316 -5.13845,-1.79886 -7.73751,-1.79734c-4.77064,0.00279 -9.82372,2.51611 -14.02292,4.56905c-1.51272,0.73955 -3.26912,1.34095 -4.55529,2.43491c-1.83382,1.53742 -4.0611,2.99015 -5.67664,4.75077c-2.28048,2.48527 -4.15392,5.68194 -6.24377,8.35965c-2.12014,2.71653 -3.68233,5.79685 -6.1451,8.09551l0.14092,0.14092l-1.06066,1.06066c-0.13572,0.13572 -0.32322,0.21967 -0.53033,0.21967c-0.41142,0 -0.74547,-0.33127 -0.74995,-0.74163l-0.01572,-1.23176c-0.07097,-5.62289 -1.55656,-11.15019 -3.01683,-16.53681c-1.06161,-3.93468 -2.08456,-9.04918 -0.76142,-13.0507c1.2371,-3.74131 4.26744,-6.52325 6.62071,-9.53482c1.10857,-1.41868 1.95776,-3.06839 3.31272,-4.26752c3.79175,-3.31778 7.62355,-7.41379 12.60668,-8.91179c4.33291,-1.30253 9.5425,-1.63382 14.04577,-2.04387c10.01466,-0.90893 19.95572,-2.34642 29.98424,-3.1165c1.9564,0.00396 4.37371,-0.25322 6.2561,0.37096c8.35299,2.76975 12.8281,10.58093 13.65323,18.99726c0.73635,7.51075 1.49427,15.07812 1.69595,22.62841c1.78443,0.528 3.76957,0.8947 4.92019,1.15636l0.07419,0.08772l0.0235,-0.04226l0.7601,0.42259c0.23715,0.12598 0.39865,0.37552 0.39865,0.66278c0,0.41421 -0.33579,0.75 -0.75,0.75c-0.07754,0 -0.15234,-0.01177 -0.2227,-0.03362l-1.09651,-0.31329l-1.41218,-0.15429c0,0 -0.60289,-0.06699 -0.66403,-0.62268zM315.69181,219.34051c-0.22181,-7.3299 -0.95881,-14.67451 -1.67359,-21.96526c-0.77626,-7.91782 -4.86526,-15.05061 -12.65481,-17.72744c-1.67164,-0.57445 -3.96408,-0.28348 -5.70581,-0.28817c-10.00074,0.77218 -19.91656,2.20187 -29.9043,3.11138c-4.41172,0.4004 -9.50906,0.72481 -13.75616,1.98844c-4.74738,1.41248 -8.44037,5.44876 -12.04434,8.60224c-1.28176,1.10576 -2.08031,2.73358 -3.11853,4.06224c-2.23439,2.85944 -5.20359,5.52894 -6.37849,9.08215c-1.22743,3.71205 -0.19722,8.54687 0.78547,12.18904c1.4307,5.32583 2.88878,10.75797 3.05553,16.30635c1.084,-2.28425 3.38549,-4.77087 4.78268,-6.63361c4.0586,-5.41095 7.86227,-10.20094 13.04796,-14.54846c1.41105,-1.16919 3.21846,-1.83039 4.86016,-2.633c4.39031,-2.14637 9.65399,-4.72251 14.64051,-4.7209c2.76261,0.00089 5.5112,1.13966 8.1539,1.84444c9.91294,2.47807 19.94262,4.5072 29.71219,7.47513c1.82656,0.85669 3.10101,1.60115 4.42139,2.84087c0.40653,0.3817 1.03478,0.71792 1.77626,1.01456z" fill="#000000" fill-rule="nonzero" stroke="none" stroke-width="0.5" stroke-linecap="butt"/><path d="M313.86735,218.31267c-1.32037,-1.23972 -2.59533,-1.98217 -4.4219,-2.83886c-9.76957,-2.96793 -19.80002,-4.99297 -29.71296,-7.47104c-2.64269,-0.70478 -5.30108,-1.80736 -8.06369,-1.80825c-4.98652,-0.00161 -10.24237,2.53357 -14.63268,4.67994c-1.6417,0.80261 -3.44998,1.46071 -4.86103,2.6299c-5.18569,4.34752 -8.99464,9.12606 -13.05325,14.53701c-1.39719,1.86274 -3.78166,4.40507 -4.86566,6.68932c-0.16675,-5.54839 -1.63247,-10.9965 -3.06317,-16.32233c-0.98269,-3.64217 -2.01467,-8.49115 -0.78724,-12.2032c1.1749,-3.55321 4.14588,-6.23502 6.38027,-9.09446c1.03822,-1.32866 1.83897,-2.96277 3.12072,-4.06853c3.60398,-3.15348 7.30909,-7.20698 12.05646,-8.61946c4.24709,-1.26363 9.36455,-1.59936 13.77627,-1.99976c9.98774,-0.90951 19.94923,-2.32966 29.94997,-3.10184c1.74173,0.00469 4.03842,-0.28233 5.71006,0.29212c7.78955,2.67683 11.89113,9.83283 12.66738,17.75065c0.71478,7.29075 1.45114,14.66055 1.67295,21.99045c-0.74148,-0.29664 -1.46598,-0.65997 -1.87251,-1.04167z" data-paper-data="{&quot;noHover&quot;:false,&quot;origItem&quot;:[&quot;Path&quot;,{&quot;applyMatrix&quot;:true,&quot;segments&quot;:[[[303.03355,235.61537],[-0.74148,-0.29664],[-0.22181,-7.3299]],[[301.35996,213.65012],[0.71478,7.29075],[-0.77626,-7.91782]],[[288.70515,195.92268],[7.78955,2.67683],[-1.67164,-0.57445]],[[282.99934,195.6345],[1.74173,0.00469],[-10.00074,0.77218]],[[253.09504,198.74588],[9.98774,-0.90951],[-4.41172,0.4004]],[[239.33888,200.73432],[4.24709,-1.26363],[-4.74738,1.41248]],[[227.29454,209.33657],[3.60398,-3.15348],[-1.28176,1.10576]],[[224.17601,213.3988],[1.03822,-1.32866],[-2.23439,2.85944]],[[217.79751,222.48096],[1.1749,-3.55321],[-1.22743,3.71205]],[[218.58298,234.67],[-0.98269,-3.64217],[1.4307,5.32583]],[[221.63851,250.97635],[-0.16675,-5.54839],[1.084,-2.28425]],[[226.42119,244.34274],[-1.39719,1.86274],[4.0586,-5.41095]],[[239.46916,229.79428],[-5.18569,4.34752],[1.41105,-1.16919]],[[244.32932,227.16128],[-1.6417,0.80261],[4.39031,-2.14637]],[[258.96982,222.44037],[-4.98652,-0.00161],[2.76261,0.00089]],[[267.12372,224.28482],[-2.64269,-0.70478],[9.91294,2.47807]],[[296.83591,231.75995],[-9.76957,-2.96793],[1.82656,0.85669]],[[301.2573,234.60082],[-1.32037,-1.23972],[0.40653,0.3817]]],&quot;closed&quot;:true}]}" fill="#710000" fill-rule="nonzero" stroke="none" stroke-width="0.5" stroke-linecap="butt"/></g><path d="M612.73681,108.68425l289.71241,32.83059l-297.33954,44.05356l-0.46185,19.83037l-152.92838,32.00747l-22.02144,-10.23069l-6.46542,-31.44743l2.45228,-48.70572l5.39043,-32.46025l18.07421,-28.60213l21.01236,-12.35666l134.554,13.21367z" fill="#ffffff" fill-rule="nonzero" stroke="#000000" stroke-width="1" stroke-linecap="round"/><path d="M-546.54655,598.16817v-836.33634h1733.09309v836.33634z" fill="none" fill-rule="nonzero" stroke="#f00000" stroke-width="0" stroke-linecap="butt"/></g></g></svg>