<svg version="1.1" xmlns="http://www.w3.org/2000/svg" xmlns:xlink="http://www.w3.org/1999/xlink" width="2878.25006" height="1619.57958" viewBox="0,0,2878.25006,1619.57958"><g transform="translate(1119.12503,629.78979)"><g stroke-miterlimit="10"><path d="M-1119.12503,989.78979v-1619.57958h2878.25006v1619.57958z" fill="none" stroke="#000000" stroke-width="0" stroke-linecap="butt"/><path d="M474.59419,139.4543c-0.18755,-0.08017 -0.41896,-0.12978 -0.70558,-0.12978c-1.5,0 -1.4989,1.35707 -1.4989,1.35707c0,16.23332 0.0172,32.46096 0.0172,48.69428c0,13.40233 -0.00176,26.72587 -0.00176,40.1282c0,2.71444 -0.0056,5.42654 -0.0056,8.14098c0,0.90481 -0.0703,1.81132 -0.00136,2.71398c0.07782,1.01895 -0.32021,2.28064 0.43754,3.03771c0.67798,0.67735 1.99517,0.2632 2.99456,0.39524c0.73534,0.06049 1.4655,0.15538 2.20333,0.18096c1.02191,0.03543 2.04152,0.00069 3.06417,0.00092c2,0.00046 3.99239,-0.00014 5.99239,-0.00014c1,0 1.99624,0.00218 2.99624,0.00032c0.8189,-0.00153 1.6406,-0.09799 2.45367,-0.00973c0.77514,0.08415 1.50399,0.37452 2.26707,0.52376c1.0105,0.19763 2.02353,0.37491 3.04527,0.51762c0.75586,0.10557 1.52083,0.13284 2.27833,0.22826c0.89192,0.11235 3.07635,0.51361 4.11947,0.55594c0.08666,0.00351 6.09315,0.00595 6.1804,0.00254c0.54388,-0.02123 1.0761,-0.15156 1.61953,-0.18072c1.56813,-0.08416 3.1387,0.00457 4.70958,0.00457c2.30435,0 4.57234,-0.02521 6.87323,0.14761c1.27666,0.09589 2.55384,0.33913 3.80986,0.54474c0.36185,0.09861 3.12694,0.83683 3.56749,1.01688c0.84402,0.34496 1.66012,0.74781 2.45009,1.18518c0.7133,0.39492 1.32106,0.93782 2.0507,1.30748c0.48171,0.24405 1.06841,0.28068 1.55348,0.51922c0.33817,0.1663 0.69696,0.47812 0.95385,0.73745c0.46753,0.47198 0.86356,0.99836 1.28331,1.50578c1.44712,1.74942 1.6773,1.90113 2.62782,3.89456c0.3063,0.64237 0.49827,1.32577 0.791,1.9733c0.3058,0.67645 0.69995,1.31869 1.00235,1.9964c0.57605,1.29098 1.07331,2.61035 1.57575,3.92626c0.31213,0.81748 0.67727,1.62196 0.91016,2.46078c0.23885,0.86028 0.29789,1.75477 0.49982,2.62275c0.38086,1.63714 1.01836,3.22381 1.33536,4.87206c0.27634,1.43684 0.40368,3.80234 0.49127,5.24422c0.1072,1.76452 0.1909,3.53101 0.28701,5.29606c0.16737,2.72547 0.37152,5.44437 0.61843,8.16488c0.0213,0.2347 0.37876,4.20287 0.39585,4.30384c0.1439,0.84987 0.4733,1.66974 0.59839,2.52205c0.12763,0.86967 0.08792,1.75327 0.15654,2.62838c0.06268,0.79929 0.00145,1.62198 0.23641,2.39457c0.10401,0.34199 1.11976,0.92133 0.74239,0.82529c-0.5956,-0.15157 -0.92158,-0.77305 -1.48056,-1.01301c-0.86276,-0.37035 -4.86967,-1.36745 -5.77043,-1.60014c-1.88105,-0.48591 -3.75719,-0.9921 -5.64483,-1.45662c-0.97083,-0.2389 -1.94849,-0.45711 -2.92253,-0.68507c-0.86952,-0.20349 -1.72651,-0.46156 -2.60984,-0.60852c-0.5199,-0.0865 -4.16181,-0.43695 -5.09026,-0.55464c-2.61852,-0.33194 -5.23212,-0.72728 -7.84572,-1.0902c-1.02837,-0.08454 -2.05546,-0.2002 -3.0864,-0.25324c-2.98238,-0.15343 -5.98904,-0.11762 -8.97182,-0.03008c-1.02283,0.03002 -2.04974,0.01817 -3.06992,0.09134c-2.98537,0.21412 -5.92053,0.81954 -8.91336,0.9925c-1.21747,0.07036 -4.70697,0.08986 -5.91311,0.09511c-1.55111,0.00675 -3.10706,0.08579 -4.6557,0.00627c-0.60413,-0.03102 -1.20083,-0.15269 -1.80509,-0.18142c-0.67856,-0.03227 -1.36056,0.02309 -2.03953,-0.00135c-0.54183,-0.0195 -4.51499,-0.27006 -5.29097,-0.35439c-0.88054,-0.09569 -1.74864,-0.28573 -2.63114,-0.36531c-1.01162,-0.09121 -2.03287,-0.08337 -3.04708,-0.14672c-0.95437,-0.0596 -1.9056,-0.17488 -2.8608,-0.22245c-0.52445,-0.02612 -1.05296,0.03958 -1.57649,0.00124c-0.95929,-0.07024 -1.91117,-0.21794 -2.86605,-0.32678c-0.91141,-0.12419 -1.83266,-0.20532 -2.73555,-0.37286c-0.75903,-0.14085 -1.483,-0.42136 -2.24442,-0.55132c-0.90873,-0.1551 -4.58577,-0.34888 -5.18017,-0.38265c-0.98951,-0.0562 -1.98204,-0.08953 -2.97059,-0.15825c-0.76099,-0.05289 -1.51735,-0.16672 -2.27927,-0.20725c-0.54239,-0.02885 -1.08784,0.02011 -1.63065,-0.00121c-0.9989,-0.03922 -1.99523,-0.14197 -2.99415,-0.18101c-0.50626,-0.01979 -3.20445,0.01751 -3.60178,-0.00055c-0.65319,-0.02969 -1.30113,-0.12964 -1.9529,-0.17852c-0.90545,-0.06792 -1.81916,-0.06612 -2.72006,-0.17265c-0.62872,-0.07434 -1.2285,-0.30626 -1.85872,-0.36941c-0.62473,-0.06259 -1.25875,0.02553 -1.88631,-0.00635c-0.6044,-0.03071 -1.20077,-0.15909 -1.80559,-0.1818c-0.06736,-0.00253 -4.46508,-0.00299 -5.0983,-0.00299c-1.83682,0 -3.56952,-0.10309 -5.36358,0.3686c-0.29219,0.07682 -0.54131,0.25176 -0.81189,0.37768c0.12359,-0.59267 0.33169,-1.17607 0.37049,-1.77817c0.05787,-0.89798 -0.06723,-1.7985 -0.08299,-2.69789c-0.01575,-0.89939 -0.00872,-1.79942 -0.01279,-2.69891c-0.01573,-3.47931 -0.02541,-6.96034 -0.02541,-10.43969c0,-11.94846 -0.01093,-23.90893 -0.01093,-35.85738c0,-17.76775 -0.0041,-35.57168 -0.0041,-53.33943c0,-17.52359 0.01556,-35.06806 0.01556,-52.59166c0,-5.9928 0.00428,-11.98849 0.00428,-17.98129c0,-0.90482 0.00057,-1.80997 0.00057,-2.71478c0,-0.90482 0.09629,-1.8141 0.00056,-2.71476c-0.03472,-0.32662 -0.70719,-0.76742 -0.38628,-0.92024c0.58294,-0.27761 1.30994,0.1425 1.96814,0.16688c0.51691,0.01914 1.03464,-0.03293 1.55196,-0.03713c1.74793,-0.01417 3.49891,0.0594 5.24562,-0.00146c3.03634,-0.10582 6.0519,-0.50126 9.06975,-0.79684c0.96811,-0.09482 1.93301,-0.23741 2.9053,-0.28584c0.97183,-0.04841 1.94768,-0.00403 2.921,-0.0051c1.6098,-0.00177 4.35744,-0.00294 5.9708,-0.00338c1.69014,0.05985 3.38433,0.08296 5.07247,0.17847c0.81313,0.04601 1.6229,0.14906 2.43678,0.18256c0.66593,0.02741 1.33481,-0.02881 2.00068,-0.00043c1.34902,0.0575 3.96464,0.39319 5.14917,0.47858c0.64673,0.04663 1.30402,-0.02826 1.94624,0.05502c1.81727,0.23564 2.70438,0.64725 4.42233,1.05394c0.97354,0.23047 1.96364,0.40501 2.93989,0.62587c0.6311,0.14277 1.24295,0.3627 1.88366,0.46459c0.29133,0.04633 0.7235,-0.24704 0.8874,-0.02425c0.25204,0.34259 0.01374,0.91313 0.01344,1.32468c-0.0009,1.24558 -0.0056,2.49114 -0.0056,3.73672c0,4.00719 0.0008,8.01431 0.0008,12.0215c0,2.69074 0.00069,5.3814 0.00069,8.07214z" fill="#5b5758" stroke="none" stroke-width="0.5" stroke-linecap="butt"/><path d="M153.86701,130.52984c0,-4.00719 0.0008,-8.01431 0.0008,-12.02151c0,-1.24558 -0.0047,-2.49114 -0.00559,-3.73672c-0.00029,-0.41154 -0.23859,-0.98209 0.01345,-1.32468c0.1639,-0.22279 0.59607,0.07058 0.8874,0.02425c0.6407,-0.10189 1.25256,-0.32182 1.88366,-0.46459c0.97626,-0.22086 1.96635,-0.39541 2.93989,-0.62587c1.71794,-0.40669 2.60506,-0.8183 4.42233,-1.05394c0.64222,-0.08327 1.29952,-0.00839 1.94625,-0.05501c1.18453,-0.0854 3.80015,-0.42108 5.14917,-0.47859c0.66587,-0.02838 1.33476,0.02784 2.00069,0.00043c0.81388,-0.0335 1.62365,-0.13655 2.43678,-0.18256c1.68814,-0.09551 3.38233,-0.11862 5.07247,-0.17847c1.61336,0.00044 4.361,0.00161 5.9708,0.00338c0.97331,0.00107 1.94916,-0.04331 2.921,0.0051c0.97229,0.04843 1.93718,0.19102 2.90529,0.28584c3.01785,0.29558 6.03342,0.69103 9.06976,0.79685c1.7467,0.06087 3.49769,-0.01271 5.24562,0.00146c0.51732,0.0042 1.03505,0.05626 1.55196,0.03713c0.6582,-0.02437 1.3852,-0.44449 1.96814,-0.16688c0.32091,0.15282 -0.35156,0.59363 -0.38628,0.92024c-0.09574,0.90066 0.00055,1.80994 0.00055,2.71476c0,0.90482 0.00057,1.80996 0.00057,2.71478c0,5.9928 0.00427,11.98849 0.00427,17.98129c0,17.5236 0.01557,35.06806 0.01557,52.59166c0,17.76775 -0.0041,35.57169 -0.0041,53.33943c0,11.94846 -0.01093,23.90893 -0.01093,35.85738c0,3.47935 -0.00968,6.96038 -0.02541,10.43969c-0.00406,0.8995 0.00296,1.79953 -0.01279,2.69891c-0.01575,0.89939 -0.14086,1.79991 -0.08299,2.69789c0.0388,0.6021 0.24689,1.18551 0.37049,1.77817c-0.27058,-0.12592 -0.51971,-0.30086 -0.81189,-0.37768c-1.79406,-0.47169 -3.52676,-0.3686 -5.36358,-0.3686c-0.63322,0 -5.03095,0.00046 -5.0983,0.00299c-0.60483,0.02271 -1.20119,0.15109 -1.80559,0.1818c-0.62757,0.03188 -1.26158,-0.05624 -1.88631,0.00635c-0.63022,0.06315 -1.22999,0.29506 -1.85872,0.36941c-0.90089,0.10653 -1.81461,0.10473 -2.72006,0.17265c-0.65177,0.04888 -1.29971,0.14883 -1.9529,0.17852c-0.39732,0.01806 -3.09552,-0.01923 -3.60178,0.00055c-0.99892,0.03904 -1.99524,0.1418 -2.99415,0.18102c-0.54281,0.02132 -1.08826,-0.02765 -1.63065,0.0012c-0.76192,0.04053 -1.51828,0.15436 -2.27928,0.20725c-0.98855,0.06871 -1.98107,0.10204 -2.97058,0.15825c-0.5944,0.03377 -4.27144,0.22755 -5.18017,0.38265c-0.76141,0.12995 -1.48538,0.41047 -2.24442,0.55132c-0.9029,0.16755 -1.82414,0.24867 -2.73555,0.37286c-0.95488,0.10884 -1.90676,0.25654 -2.86606,0.32678c-0.52353,0.03834 -1.05204,-0.02736 -1.57649,-0.00124c-0.9552,0.04757 -1.90643,0.16285 -2.8608,0.22245c-1.01422,0.06335 -2.03546,0.05551 -3.04708,0.14672c-0.8825,0.07957 -1.7506,0.26962 -2.63114,0.3653c-0.77598,0.08432 -4.74914,0.33489 -5.29097,0.35439c-0.67897,0.02443 -1.36096,-0.03093 -2.03952,0.00134c-0.60426,0.02873 -1.20096,0.1504 -1.80509,0.18142c-1.54864,0.07952 -3.10458,0.00049 -4.6557,-0.00627c-1.20614,-0.00525 -4.69564,-0.02475 -5.91311,-0.09511c-2.99282,-0.17296 -5.92798,-0.77838 -8.91335,-0.9925c-1.02017,-0.07317 -2.04709,-0.06132 -3.06992,-0.09134c-2.98279,-0.08754 -5.98945,-0.12335 -8.97182,0.03008c-1.03095,0.05304 -2.05803,0.1687 -3.0864,0.25324c-2.61359,0.36293 -5.2272,0.75826 -7.84571,1.0902c-0.92844,0.1177 -4.57036,0.46815 -5.09026,0.55465c-0.88333,0.14696 -1.74032,0.40502 -2.60984,0.60851c-0.97404,0.22796 -1.9517,0.44616 -2.92253,0.68507c-1.88765,0.46452 -3.76377,0.97071 -5.64483,1.45662c-0.90077,0.23269 -4.90767,1.22979 -5.77044,1.60014c-0.55899,0.23995 -0.88496,0.86143 -1.48056,1.01301c-0.37737,0.09603 0.63838,-0.4833 0.74238,-0.82529c0.23495,-0.77259 0.17373,-1.59528 0.23641,-2.39458c0.06862,-0.87511 0.02891,-1.7587 0.15654,-2.62838c0.12508,-0.85231 0.45449,-1.67217 0.59839,-2.52205c0.01709,-0.10097 0.37456,-4.06914 0.39585,-4.30384c0.24691,-2.72051 0.45105,-5.43941 0.61843,-8.16488c0.09611,-1.76505 0.1798,-3.53154 0.287,-5.29606c0.0876,-1.44188 0.21493,-3.80738 0.49128,-5.24422c0.317,-1.64825 0.9545,-3.23492 1.33536,-4.87206c0.20193,-0.86798 0.26097,-1.76247 0.49982,-2.62275c0.23289,-0.83882 0.59804,-1.6433 0.91016,-2.46078c0.50244,-1.3159 0.9997,-2.63528 1.57574,-3.92626c0.3024,-0.67771 0.69656,-1.31994 1.00236,-1.9964c0.29273,-0.64753 0.4847,-1.33093 0.791,-1.9733c0.95052,-1.99343 1.18071,-2.14514 2.62782,-3.89456c0.41974,-0.50743 0.81577,-1.0338 1.2833,-1.50578c0.25688,-0.25932 0.61568,-0.57115 0.95385,-0.73745c0.48507,-0.23854 1.07177,-0.27517 1.55348,-0.51922c0.72964,-0.36966 1.33741,-0.91256 2.0507,-1.30748c0.78997,-0.43736 1.60607,-0.84021 2.45009,-1.18517c0.44054,-0.18005 3.20564,-0.91827 3.56748,-1.01689c1.25602,-0.20561 2.53321,-0.44885 3.80987,-0.54474c2.30089,-0.17282 4.56888,-0.14761 6.87323,-0.14761c1.57089,0 3.14145,-0.08872 4.70958,-0.00457c0.54343,0.02916 1.07565,0.15949 1.61953,0.18073c0.08725,0.0034 6.09374,0.00097 6.1804,-0.00254c1.04312,-0.04233 3.22755,-0.4436 4.11947,-0.55595c0.7575,-0.09542 1.52247,-0.12268 2.27833,-0.22826c1.02174,-0.14271 2.03476,-0.32 3.04527,-0.51762c0.76308,-0.14923 1.49193,-0.4396 2.26707,-0.52375c0.81307,-0.08826 1.63477,0.0082 2.45368,0.00973c1,0.00187 1.99624,-0.00032 2.99624,-0.00032c2,0 3.99238,0.00059 5.99238,0.00014c1.02265,-0.00023 2.04227,0.03451 3.06417,-0.00092c0.73783,-0.02558 1.46798,-0.12047 2.20332,-0.18096c0.99938,-0.13204 2.31659,0.28211 2.99456,-0.39524c0.75775,-0.75706 0.35971,-2.01875 0.43753,-3.03771c0.06894,-0.90266 -0.00136,-1.80917 -0.00136,-2.71398c0,-2.71444 -0.0056,-5.42654 -0.0056,-8.14098c0,-13.40233 -0.00176,-26.72586 -0.00176,-40.1282c0,-16.23332 0.0172,-32.46096 0.0172,-48.69427c0,0 0.00111,-1.35707 -1.49889,-1.35707c-0.28662,0 -0.51804,0.04961 -0.70559,0.12978c0,-2.69074 0.00069,-5.3814 0.00069,-8.07214z" fill="#5b5758" stroke="none" stroke-width="0.5" stroke-linecap="butt"/><path d="M15.22219,202.27482l0.44744,-74.72282h46.23568l-0.44744,-38.77831l164.88239,-1.15589l0.29829,-6.56249l27.44312,0.29829l6.41333,4.32528l34.30389,-0.59659l0.14914,-5.22016l28.63629,-0.74574l3.28125,5.51846l38.77831,-0.29829l-0.29829,-5.51846l31.47009,-1.04403l0.70845,50.26265l42.24598,0.44745l-0.29829,-5.07101l184.41112,-1.64062l2.53551,73.9398l-179.90899,-0.89489l-6.26419,-5.6676l-255.26568,-0.74573l-9.09799,5.51845z" fill="#5b5758" stroke="#000000" stroke-width="1" stroke-linecap="round"/><path d="M73.20322,89.0347l-22.22295,0.59659l-4.32527,-4.77272l33.7073,-0.74573z" fill="#36362e" stroke="#000000" stroke-width="1" stroke-linecap="round"/><path d="M-1.63146,123.33859l184.82128,-2.8338l12.52837,4.92186l229.35133,-2.98295l2.98295,-4.92186l213.579,-2.08807l-6.56248,6.56248l-195.03787,2.08806l-0.44744,4.92186l-247.65917,0.89489l-9.84372,-3.28125l-179.08867,1.64062z" fill="#36362e" stroke="#000000" stroke-width="1" stroke-linecap="round"/><path d="M2.09723,123.63689l78.60065,-39.22575l-28.18885,0.29829l33.7073,-15.95876l26.9211,-0.14915l7.60652,-4.17612l14.76559,7.90481l91.65105,-1.49148l14.76558,-9.24713l9.69458,6.71163l14.169,0.89489l24.01272,-14.61644l51.79141,-0.29829l21.32807,13.42326l7.15907,-1.04403l10.14202,-7.45737l13.8707,7.45737l109.58601,-1.49148l11.18605,-9.09799l124.83633,59.69623l-211.93838,1.93892l-3.13209,4.77272l-229.61234,2.98295l-10.88775,-4.47442z" fill="#e7e0d8" stroke="#000000" stroke-width="1" stroke-linecap="round"/><path d="M254.75283,81.50275l1.49148,32.51412l-30.42606,0.29829l0.14915,-33.11071z" fill="#6f7685" stroke="#000000" stroke-width="1" stroke-linecap="round"/><path d="M293.97857,79.71299l29.53117,-0.2983l3.57954,5.6676l-0.44745,25.80249l-33.25985,0.2983z" fill="#6f7685" stroke="#000000" stroke-width="1" stroke-linecap="round"/><path d="M365.08458,79.1164l31.47009,-0.89488l0.59659,32.66326l-31.32094,-0.29829z" fill="#6f7685" stroke="#000000" stroke-width="1" stroke-linecap="round"/><path d="M390.88707,107.60354l-17.45024,0.14915l0.14915,-24.31101l16.55535,0.44744z" fill="#6585b6" stroke="#000000" stroke-width="1" stroke-linecap="round"/><path d="M317.39471,109.24417l-15.80961,-0.29829l0.14914,-25.05676h15.21303z" fill="#6585b6" stroke="#000000" stroke-width="1" stroke-linecap="round"/><path d="M248.22763,110.2882l-14.91474,0.14915l0.29829,-24.16187l15.21303,-0.29829z" fill="#6585b6" stroke="#000000" stroke-width="1" stroke-linecap="round"/><path d="M216.04909,77.6995l46.08653,-0.59659l5.6676,9.24714l-12.8326,0.286l-0.88895,-4.46213l-28.338,-0.89488l0.14915,4.92186l-7.45737,-5.81674z" fill="#36362e" stroke="#000000" stroke-width="1" stroke-linecap="round"/><path d="M292.56167,84.85858l-7.30822,-8.5014l45.63908,-1.19318l5.81675,9.54543l-9.84373,0.59659l-3.13209,-5.6676l-29.68032,0.44744l0.14915,5.07101z" fill="#36362e" stroke="#000000" stroke-width="1" stroke-linecap="round"/><path d="M365.23372,84.18741h-4.47442l-2.8338,-10.7386h46.83227l-2.38636,9.24713l-5.6676,0.89488l-0.29829,-5.51845l-30.72435,0.89488z" fill="#36362e" stroke="#000000" stroke-width="1" stroke-linecap="round"/><path d="M243.64135,170.87931l-27.7414,0.14915l-0.29829,-34.00559l28.0397,0.14915z" fill="#7b8ba4" stroke="#000000" stroke-width="1" stroke-linecap="round"/><path d="M330.29596,135.97883l29.38203,-0.29829l0.29829,35.79536l-29.53117,0.14915z" fill="#7b8ba4" stroke="#000000" stroke-width="1" stroke-linecap="round"/><path d="M394.80219,137.4703l0.44744,32.96157l-10.73861,0.29829l-0.89488,-35.04962l12.82667,0.59658z" fill="#7b8ba4" stroke="#000000" stroke-width="1" stroke-linecap="round"/><path d="M425.0791,135.53139l10.88776,-1.04403l1.04403,36.5411l-11.0369,-1.49148z" fill="#7b8ba4" stroke="#000000" stroke-width="1" stroke-linecap="round"/><path d="M400.76808,181.46877l-1.19317,-41.76126l20.28403,0.14915l1.04404,41.16467z" fill="#323139" stroke="#000000" stroke-width="1" stroke-linecap="round"/><path d="M415.98111,148.65634h-11.93178l-0.89489,-5.22016h13.12497z" fill="#7b8ba4" stroke="#000000" stroke-width="1" stroke-linecap="round"/><path d="M512.62859,165.36085l-37.28683,0.29829l-1.49147,-33.11071l38.48001,0.29829z" fill="#7b8ba4" stroke="#000000" stroke-width="1" stroke-linecap="round"/><path d="M552.74922,132.25015l35.94451,0.14915l1.78977,30.42606l-37.88343,-0.59659z" fill="#7b8ba4" stroke="#000000" stroke-width="1" stroke-linecap="round"/><path d="M144.38378,183.25854l-32.51412,-0.59659l1.49148,-28.338l31.47009,0.44745z" fill="#7b8ba4" stroke="#000000" stroke-width="1" stroke-linecap="round"/><path d="M77.45391,183.70598l-33.25986,0.44744l1.49148,-26.69737l31.32094,-1.49148z" fill="#7b8ba4" stroke="#000000" stroke-width="1" stroke-linecap="round"/><path d="M306.69226,132.56356c0.23509,-0.06006 0.46642,-0.1536 0.70747,-0.18133c0.28238,-0.03248 0.57283,0.03205 0.85523,-0.00019c0.33956,-0.03877 0.66879,-0.16094 1.00639,-0.21416c1.20352,-0.18969 2.42325,-0.1697 3.6366,-0.1697c2.30135,0 4.59793,0.02713 6.86892,0.4553c1.02697,0.19362 2.01818,0.57358 3.02142,0.85319c0.3157,0.19027 0.89517,0.47418 1.15138,0.81312c0.14794,0.19572 0.2221,0.44207 0.36319,0.64279c0.47663,0.67807 1.04698,1.28809 1.40484,2.05074c0.40987,0.8735 0.61434,1.83897 0.84685,2.77006c0.19922,0.79779 0.4733,1.67555 0.62396,2.48243c0.17604,0.94274 0.19772,1.95693 0.20421,2.912c0.00452,0.66606 0.08213,1.37341 0.00532,2.03382c-0.09818,0.84413 -0.31132,1.68833 -0.53451,2.50516c-0.18487,0.6087 -0.42286,1.21036 -0.70122,1.78238c-0.22116,0.45446 -0.53552,1.1796 -0.86635,1.58973c-0.56317,0.69816 -1.3109,1.21757 -1.97688,1.7998c-0.25104,0.21947 -0.46604,0.48328 -0.71683,0.70302c-0.70968,0.62181 -1.52223,1.24629 -2.34691,1.70712c-0.54769,0.30605 -1.1592,0.50651 -1.76104,0.68377c-0.7644,0.22514 -1.54756,0.44294 -2.34899,0.48956c-0.57509,0.03346 -1.15857,-0.00062 -1.73463,-0.00062c-0.09323,0 -0.18561,0.00001 -0.27542,-0.00023c-0.70297,-0.18732 -1.41145,-0.38383 -2.10311,-0.60143c-0.11098,-0.03492 -1.84785,-0.65556 -1.92489,-0.67452c-0.04237,-0.01044 -1.31434,-0.19433 -1.82035,-0.2678c-0.34353,-0.25323 -0.6842,-0.51898 -1.00929,-0.79527c-1.26578,-1.07575 -2.67314,-2.27534 -3.53756,-3.71319c-0.34307,-0.57066 -0.5773,-1.21131 -0.91835,-1.78318c-0.17291,-0.28995 -0.39328,-0.55416 -0.57371,-0.83949c-0.52723,-0.8337 -0.99374,-1.73099 -1.47431,-2.59213c-0.15166,-0.27176 -0.33664,-0.53153 -0.45089,-0.82102c-0.20785,-0.52668 -0.27121,-1.26978 -0.34482,-1.82002c-0.00696,-1.00026 0.13701,-1.99232 0.18437,-2.98865c0.03812,-0.80176 -0.18702,-1.81188 0.16092,-2.57357c0.13017,-0.28496 0.34285,-0.52859 0.49878,-0.8003c0.45469,-0.7923 0.87342,-1.61805 1.32511,-2.41284c0.25432,-0.44749 0.51311,-0.89829 0.75107,-1.35469c0.13943,-0.26741 0.33972,-0.79617 0.61955,-0.97903c0.55412,-0.36208 0.7446,-0.24025 1.28059,-0.40431c0.46194,-0.14139 0.93658,-0.27945 1.40181,-0.43042c0.18575,0.22354 0.50205,0.14411 0.50205,0.14411z" fill="#ffffff" stroke="#000000" stroke-width="1" stroke-linecap="butt"/><path d="M279.49073,135.4585c-0.14605,0.26059 -0.21124,0.55643 -0.31807,0.83541c0,0 -0.23134,0.38517 0.23683,0.56072c0.46816,0.17556 0.64629,-0.29423 0.64629,-0.29423c0.08453,-0.23132 0.14416,-0.47557 0.25569,-0.69515c0.23003,-0.4529 0.63143,-0.54719 1.06834,-0.80375c0.23109,-0.1357 0.44133,-0.32107 0.69242,-0.41471c0.47802,-0.17827 1.35774,-0.20392 1.84329,-0.23908c0.33247,-0.02408 0.66918,-0.04642 1.00143,-0.07323c0.15314,-0.01236 0.31035,-0.07682 0.46064,-0.04488c0.29163,0.06198 0.55964,0.215 0.83879,0.31974c0.61475,0.23065 1.2491,0.43228 1.87899,0.61763c0.85985,0.25301 1.71207,0.56037 2.56673,0.8295c0.57076,0.17972 1.16502,0.31038 1.72786,0.51356c0.75475,0.27246 1.04178,0.45212 1.7564,0.82103c0.54687,0.28069 1.12377,0.5189 1.56259,0.97213c0.52179,0.53894 0.94795,1.37718 1.29236,2.02875c0.15942,0.30159 0.70707,1.32257 0.82398,1.60252c0.32545,0.77932 0.51238,1.56449 0.66632,2.38926c0.09365,0.50176 0.19943,1.00727 0.29438,1.50879c0.06171,0.32601 0.14981,0.75382 0.09233,1.08858c-0.10486,0.61072 -0.45241,1.16135 -0.69633,1.73098c-0.20664,0.48259 -0.29019,1.02014 -0.51114,1.49635c-0.305,0.65737 -0.679,1.34088 -1.02621,1.97706c-0.65553,0.95594 -1.49475,1.76133 -2.28276,2.60736c-0.51382,0.55165 -1.08555,1.0638 -1.59446,1.61907c-0.20779,0.22672 -0.37071,0.50167 -0.60408,0.70196c-0.14197,0.12185 -0.33804,0.16569 -0.50553,0.24907c-0.2896,0.14417 -0.57465,0.30733 -0.8713,0.43637c-0.99658,0.43353 -2.23037,0.83809 -3.32957,0.85469c-0.96127,0.01452 -1.88993,-0.29947 -2.80683,-0.54843c-1.28004,-0.34757 -2.51447,-0.76058 -3.74038,-1.26637c-0.60362,-0.24872 -1.20416,-0.5278 -1.78659,-0.82274c-0.16717,-0.08466 -0.35248,-0.14362 -0.50457,-0.25308c-0.50878,-0.36615 -0.92632,-0.85893 -1.33939,-1.32189c-0.54678,-0.61282 -1.13741,-1.24755 -1.6105,-1.92096c-0.36665,-0.5219 -0.69186,-1.0811 -1.04233,-1.61399c-0.6102,-0.92782 -1.22022,-1.92543 -1.52358,-3.00764c-0.16498,-0.58856 -0.12054,-0.81912 -0.12006,-1.42449c0.00128,-1.62416 0.12538,-3.24345 0.63463,-4.79086c0.33945,-1.05556 1.01727,-1.28991 1.69631,-2.14137c1.82618,-2.2899 1.78395,-3.8936 4.80746,-4.91533c-0.25876,0.16596 -0.41399,0.44558 -0.63038,0.83166z" fill="#ffffff" stroke="#000000" stroke-width="1" stroke-linecap="butt"/><path d="M293.10136,146.85132c0,-1.24264 1.00736,-2.25 2.25,-2.25c1.24264,0 2.25,1.00736 2.25,2.25c0,1.24264 -1.00736,2.25 -2.25,2.25c-1.24264,0 -2.25,-1.00736 -2.25,-2.25z" fill="#000000" stroke="none" stroke-width="0.5" stroke-linecap="butt"/><path d="M322.65299,144.08003c0,-1.24264 1.00736,-2.25 2.25,-2.25c1.24264,0 2.25,1.00736 2.25,2.25c0,1.24264 -1.00736,2.25 -2.25,2.25c-1.24264,0 -2.25,-1.00736 -2.25,-2.25z" fill="#000000" stroke="none" stroke-width="0.5" stroke-linecap="butt"/><path d="M254.67816,112.59371c-0.1819,-0.72761 0.5457,-0.9095 0.5457,-0.9095l0.59878,-0.1173c5.60914,0.26166 11.11299,3.19204 16.02539,5.70748c1.33911,0.68588 2.72782,1.32236 4.03474,2.06739c2.17366,1.23914 4.25538,2.68413 6.37167,4.01951c1.27364,0.80367 2.52832,1.63258 3.7848,2.46275c0.04521,0.02987 2.51486,1.66116 2.53704,1.67764c1.82193,1.35398 3.32821,3.06765 5.16045,4.39667c0,0 0.60655,0.44113 0.16542,1.04768c-0.44113,0.60655 -1.04768,0.16542 -1.04768,0.16542c-0.36361,-0.2651 -0.7461,-0.50607 -1.09084,-0.79529c-0.74529,-0.62525 -1.14156,-1.12853 -1.8367,-1.73838c-0.73262,-0.64273 -1.46336,-1.29103 -2.2456,-1.87235c-0.79152,-0.58821 -1.64619,-1.08628 -2.46897,-1.6299c-1.24773,-0.82439 -2.49357,-1.64765 -3.75836,-2.44568c-2.09735,-1.32334 -4.15996,-2.75695 -6.31409,-3.98495c-1.28749,-0.73396 -2.65649,-1.35979 -3.97567,-2.03546c-4.69996,-2.40789 -10.03636,-5.30532 -15.40989,-5.54409l-0.16667,0.07406c0,0 -0.72761,0.1819 -0.90951,-0.5457z" fill="#000000" stroke="none" stroke-width="0.5" stroke-linecap="butt"/><path d="M336.81518,98.82505c0,0.49755 -0.33008,0.66502 -0.55228,0.7214c-3.18221,2.43905 -7.06221,3.97816 -10.54134,5.95738c-3.80566,2.16497 -6.94189,4.76655 -10.2424,7.61884c-0.73868,0.63836 -1.52433,1.22576 -2.21823,1.91252c-0.54249,0.53691 -0.94307,1.20039 -1.41593,1.79953c-1.24041,1.57168 -2.46534,3.15726 -3.72201,4.71596c-1.25303,1.55417 -2.56914,3.05908 -3.80838,4.62422c-0.84074,1.06184 -1.62752,2.17243 -2.43962,3.25625c-0.09393,0.12536 -1.66125,2.21172 -1.76035,2.365c-0.26312,0.40696 -0.47434,0.84521 -0.71151,1.26781c0,0 -0.3677,0.65368 -1.02138,0.28598c-0.65368,-0.36769 -0.28599,-1.02138 -0.28599,-1.02138c0.25309,-0.44897 0.4794,-0.91413 0.75928,-1.34691c0.13482,-0.20847 1.65723,-2.23333 1.81955,-2.44995c0.81898,-1.09302 1.6128,-2.21262 2.46056,-3.28355c1.24299,-1.57019 2.56313,-3.07988 3.82011,-4.63894c1.25341,-1.55464 2.4751,-3.13617 3.71229,-4.70377c0.50225,-0.63637 0.93497,-1.33495 1.50939,-1.90702c0.04472,-0.04454 2.2409,-1.94105 2.32145,-2.01066c3.37084,-2.91307 6.5906,-5.57385 10.4778,-7.78562c3.4734,-1.97633 7.38105,-3.49928 10.53088,-5.96753l0.55814,-0.15955c0,0 0.75,0 0.75,0.75z" fill="#000000" stroke="none" stroke-width="0.5" stroke-linecap="butt"/><path d="M320.77563,190.35407c-0.73543,-0.14709 -0.58835,-0.88252 -0.58835,-0.88252l0.08926,-0.44247c0.93578,-6.06208 2.57371,-11.79713 4.09869,-17.73836c0.10204,-0.53674 0.39738,-2.09093 0.47538,-2.49773c0.08956,-0.46706 0.22183,-0.92777 0.27048,-1.40085c0.03796,-0.36911 -0.00867,-0.74206 -0.01196,-1.1131c-0.00428,-0.4843 0.00259,-2.37588 -0.07667,-2.88456c-0.06563,-0.42123 -0.23519,-0.81962 -0.34445,-1.2317c-0.1102,-0.41561 -0.10829,-0.8735 -0.31389,-1.25114c-0.14727,-0.27048 -0.42692,-0.45866 -0.69729,-0.60613c-0.92953,-0.50701 -2.09871,-0.5481 -3.1182,-0.74186c-1.4341,-0.27256 -2.89573,-0.50307 -4.35663,-0.57977c-1.27199,-0.06678 -2.55431,0.07085 -3.8248,0.09599c-1.44482,0.02859 -2.8952,-0.00997 -4.34026,-0.01543c-0.03854,-0.00276 -3.01495,-0.21549 -3.04944,-0.21944c-1.97428,-0.22624 -3.92136,-0.67961 -5.90891,-0.81705c-0.98545,-0.06814 -1.97521,-0.03903 -2.96281,-0.05901c-2.7564,-0.05577 -5.50889,-0.02239 -8.26433,0.06454c-1.38745,0.04378 -2.77583,0.10247 -4.16127,0.18909c-0.84704,0.05296 -1.70709,0.01056 -2.54026,0.17216c-0.28064,0.05444 -0.52637,0.22326 -0.79086,0.33174c-0.44286,0.18162 -0.88743,0.35902 -1.33114,0.53854c-0.12128,0.07591 -2.30578,1.43903 -2.42032,1.52725c-0.3788,0.29175 -0.70135,0.65005 -1.05367,0.97329c-0.34373,0.31536 -0.7282,0.59062 -1.03445,0.94248c-0.21501,0.24703 -0.34164,0.55883 -0.51441,0.83704c-0.51123,0.82328 -0.97922,1.67555 -1.39262,2.55205c-0.64479,1.36711 -1.33687,2.70325 -2.03256,4.04501c-0.87559,1.68871 -1.53662,3.43965 -2.12177,5.24896c-0.14487,0.44795 -0.34009,0.88235 -0.43709,1.34304c-0.18863,0.89593 -0.10605,1.90598 0.00826,2.80574c0,0 0.09303,0.74421 -0.65118,0.83723c-0.74421,0.09303 -0.83723,-0.65118 -0.83723,-0.65118c-0.13088,-1.06241 -0.20938,-2.22307 0.00826,-3.2808c0.10666,-0.51836 0.31983,-1.00895 0.48094,-1.51305c0.60409,-1.89014 1.30575,-3.71748 2.21791,-5.47989c0.68627,-1.32598 1.37005,-2.64545 2.00805,-3.99546c0.43903,-0.92898 0.93077,-1.83525 1.47653,-2.70582c0.20957,-0.3343 0.37443,-0.70205 0.63244,-1.00056c0.34889,-0.40366 0.78114,-0.72697 1.17334,-1.08868c0.38362,-0.35381 0.74059,-0.73955 1.15412,-1.05789c0.24496,-0.18857 2.39153,-1.51211 2.65367,-1.67486c0.48257,-0.19729 0.96432,-0.39663 1.44772,-0.59188c0.33779,-0.13644 0.65864,-0.33149 1.01582,-0.4032c0.52868,-0.10613 1.07515,-0.08432 1.61288,-0.12452c1.79099,-0.1339 3.58526,-0.2184 5.38031,-0.27505c2.78173,-0.08778 5.56054,-0.12125 8.34324,-0.06502c0.04775,0.00097 3.01176,0.06061 3.03596,0.06229c2.01051,0.13903 3.97935,0.5944 5.9762,0.82322c0.97451,0.11167 1.95677,0.14014 2.93511,0.21076c1.41724,0.00454 2.83951,0.04271 4.25647,0.01461c1.30824,-0.02594 2.6205,-0.16216 3.93032,-0.09421c1.52851,0.07929 3.05759,0.31963 4.55818,0.60405c1.66956,0.31644 3.80232,0.39125 4.81178,2.0331c0.29866,0.48576 0.32779,1.09239 0.4839,1.64084c0.13168,0.46264 0.30567,0.91693 0.3794,1.39226c0.09862,0.63572 0.09154,2.45254 0.09569,3.11162c0.00264,0.41991 0.04832,0.84195 0.00589,1.25972c-0.05299,0.52175 -0.19333,1.03089 -0.29086,1.54617c-0.07797,0.41195 -0.38356,2.01271 -0.48492,2.54384c-1.5138,5.90977 -3.1555,11.61031 -4.0801,17.63967l-0.10095,0.50856c0,0 -0.14709,0.73543 -0.88252,0.58835z" fill="#000000" stroke="none" stroke-width="0.5" stroke-linecap="butt"/><g stroke="#000000" stroke-width="0.5" stroke-linecap="round"><path d="M693.10975,-24.61408l18.08516,190.56406l-166.78543,5.35857l-15.40588,-207.6445l163.10141,4.35383z" fill="#7590ba"/><path d="M690.76539,142.50625l-7.70294,1.67455l-111.19028,0.66983l-14.73607,-162.09668l120.23287,2.00947z" fill="#84ba75"/><path d="M545.74914,170.97365l-29.13721,-1.33964l-13.73133,-194.24808l26.79284,-11.05205z" fill="#7590ba"/></g></g></g></svg>