<svg version="1.1" xmlns="http://www.w3.org/2000/svg" xmlns:xlink="http://www.w3.org/1999/xlink" width="1733.09309" height="836.33634" viewBox="0,0,1733.09309,836.33634"><g transform="translate(546.54655,238.16817)"><g data-paper-data="{&quot;isPaintingLayer&quot;:true}" stroke-linejoin="miter" stroke-miterlimit="10" stroke-dasharray="" stroke-dashoffset="0" style="mix-blend-mode: normal"><path d="M-546.54655,598.16817v-836.33634h1733.09309v836.33634z" fill="none" fill-rule="nonzero" stroke="#f00000" stroke-width="0" stroke-linecap="butt"/><g fill-rule="nonzero" stroke-width="1"><path d="M356.92788,219.99152l-20.89513,-70.16253l99.252,0.62091l35.5218,69.54162z" fill="#cedce9" stroke="#000000" stroke-linecap="round"/><path d="M480.24731,216.34543c-2.68619,0.76907 -5.32708,1.20917 -7.94144,1.52644c0.01769,0.11816 0.02686,0.24136 0.02686,0.36993c0,3.13146 -5.46884,3.13146 -5.46884,3.13146c-24.15416,0 -48.30821,0 -72.46229,0c-6.2155,0 -21.68147,-1.42069 -26.26572,0.4523c-2.64061,1.07886 -4.53103,0.97206 -7.91463,1.11343c-0.38191,0.01596 -1.07656,0.05008 -1.69032,0.07109c3.27182,1.33746 1.69032,13.69739 1.69032,17.15215c0,14.6137 0,29.22738 0,43.84106c0,2.60956 0,5.21921 0,7.82876c0,1.04377 -0.96185,4.01818 0,3.13146c3.65951,-3.37351 10.80116,-1.55973 19.14098,-1.56577c16.43955,-0.01192 34.03983,-1.01858 50.18599,0.67491c29.48404,3.37654 61.18403,-2.01812 90.4328,1.74385c24.63413,3.52637 54.12237,3.84417 79.50241,3.84417c6.3804,0 12.76068,0 19.14103,0c0.95996,0 2.46726,-0.07404 4.02785,-0.15517c-1.56984,-1.60641 0.0738,-5.49118 0.0738,-7.67359c0,-8.153 4.77285,-22.21684 -1.0865,-29.54186c-5.17793,-8.89475 -8.45335,-17.45858 -16.89964,-26.32927c-6.23191,-6.54516 -15.93323,-12.34687 -21.08952,-18.84839c-2.49977,-3.87489 -4.73763,-1.10552 -12.87832,-2.00231c-18.01326,-1.98434 -36.07966,-1.56577 -54.68852,-1.56577c-6.7831,0 -15.30204,0.7886 -21.87547,0c-1.38759,-0.16647 -3.99534,-0.78523 -5.95002,-1.29206c3.57519,1.58165 -4.58283,3.11157 -8.01081,4.09303zM394.40122,215.11027c18.25493,0 36.50982,0 54.76472,0c0.52665,-0.15077 1.05313,-0.30153 1.57972,-0.4523c6.93626,-1.98587 13.19856,-1.4596 19.14103,-2.34863c8.09836,-1.21155 12.94243,-5.29176 21.29808,-6.26298c4.79994,-0.55794 18.09436,1.23516 24.89847,1.23516c18.44963,0 36.8791,-0.60405 54.68854,1.56577c10.00467,1.21892 18.45974,-1.15738 23.13842,6.09508c0.68977,2.75499 6.21011,4.47689 9.09742,6.59621c4.41248,3.23881 8.10056,8.03548 11.51503,11.62147c8.4644,8.88971 12.18617,18.03319 17.49319,27.14962c4.74271,9.60953 1.64791,21.52563 1.64791,31.52242c0,5.52684 1.52121,9.42214 -5.46883,14.09178c-2.43748,1.62838 -24.95647,0 -28.71146,0c-26.17831,0 -56.76583,-0.39675 -82.15522,-4.03128c-27.89252,-4.66843 -61.09446,1.62323 -89.92506,-1.67846c-23.23288,-2.9965 -59.09363,4.98588 -78.11958,-5.25058c-1.88366,-1.01349 0,-9.29152 0,-10.96026c0,-14.6137 0,-29.22738 0,-43.84106c0,-4.88591 -3.76138,-16.5512 1.94463,-20.18953c9.95734,-6.34922 28.59261,-4.86253 43.1733,-4.86253z" data-paper-data="{&quot;index&quot;:null}" fill="#000000" stroke="none" stroke-linecap="butt"/><path d="M472.22959,217.72148c2.61435,-0.31728 5.28704,-0.76147 7.97336,-1.53058c3.42798,-0.98144 11.6184,-2.5133 8.04314,-4.09487c1.95463,0.50679 4.58416,1.12552 5.97162,1.29204c6.57345,0.7886 15.16874,0.00784 21.95162,0.00784c18.60877,0 36.79249,-0.37472 54.80567,1.60964c8.14069,0.89676 10.39553,-1.86073 12.89531,2.01416c5.15631,6.50149 14.89858,12.34988 21.1306,18.89504c8.44629,8.87065 11.73299,17.49394 16.91088,26.38865c5.85942,7.32507 1.06087,21.44309 1.06087,29.59611c0,2.18241 -1.65387,6.07824 -0.08399,7.68468c-1.5605,0.08113 -3.06986,0.15718 -4.02991,0.15718c-6.38035,0 -12.77182,0.00983 -19.15217,0.00983c-25.38018,0 -54.98819,-0.26327 -79.62229,-3.7897c-29.24878,-3.76199 -61.23854,1.60233 -90.7226,-1.77419c-16.14616,-1.69351 -33.79623,-0.72258 -50.23578,-0.71068c-8.33976,0.00605 -15.48793,-1.81444 -19.14742,1.55904c-0.96185,0.8867 -0.00413,-2.09237 -0.00413,-3.13618c0,-2.60956 -0.00938,-5.23188 -0.00938,-7.84141c0,-14.6137 -0.01139,-29.3143 -0.01139,-43.928c0,-3.45477 1.59813,-15.84467 -1.67373,-17.18215c0.61384,-0.02103 1.30898,-0.056 1.69094,-0.07196c3.38347,-0.14137 5.27825,-0.03981 7.91877,-1.11866c4.58423,-1.87297 20.06423,-0.46683 26.27975,-0.46683c24.1542,0 48.43701,-0.06229 72.59109,-0.06229c0,0 5.49569,-0.00538 5.49569,-3.13684c0,-0.12855 -0.00851,-0.25183 -0.02625,-0.37002z" data-paper-data="{&quot;noHover&quot;:false,&quot;origItem&quot;:[&quot;Path&quot;,{&quot;applyMatrix&quot;:true,&quot;segments&quot;:[[[579.60736,595.76373],[0.95609,-0.20262],[0.00646,0.07548]],[[579.61718,596],[0,-0.08208],[0,2]],[[577.61718,598],[0,0],[-8.83333,0]],[[551.11718,598],[8.83333,0],[-2.27308,0]],[[541.51161,598.28885],[1.67648,-1.19621],[-0.96568,0.68904]],[[538.61718,599],[1.23739,-0.09027],[-0.13966,0.01019]],[[537.99901,599.04541],[0.22447,-0.0134],[1.19653,0.85421]],[[538.61718,610],[0,-2.20646],[0,9.33333]],[[538.61718,638],[0,-9.33333],[0,1.66667]],[[538.61718,643],[0,-1.66667],[0,0.66667]],[[538.61718,645],[-0.35177,0.56631],[1.33831,-2.15456]],[[545.61718,644],[-3.04994,0.00386],[6.01206,-0.00761]],[[563.97058,644.43107],[-5.90478,-1.08158],[10.78253,2.15651]],[[597.04254,645.54479],[-10.6965,-2.40266],[9.00888,2.25222]],[[626.11718,648],[-9.28168,0],[2.33333,0]],[[633.11718,648],[-2.33333,0],[0.35109,0]],[[634.59021,647.90091],[-0.5707,0.05184],[-0.57412,-1.02596]],[[634.61718,643],[0,1.39387],[0,-5.20707]],[[634.21982,624.13246],[2.14282,4.67827],[-1.8936,-5.6808]],[[628.03948,607.31672],[3.08887,5.66543],[-2.2791,-4.1802]],[[620.32688,595.27881],[1.8857,4.15235],[-0.91417,-2.47477]],[[615.61718,594],[2.9771,0.57275],[-6.58756,-1.26734]],[[595.61718,593],[6.8054,0],[-2.48058,0]],[[587.61718,593],[2.40395,0.50364],[-0.50743,-0.10631]],[[585.44122,592.1748],[0.71481,0.32365],[1.30749,1.01011]],[[582.51161,594.78885],[1.25365,-0.62682],[-0.98239,0.4912]]],&quot;closed&quot;:true}],&quot;index&quot;:null}" fill="#484848" stroke="none" stroke-linecap="butt"/><path d="M548.89659,229.20177c0,-0.36314 -0.0757,-0.97123 -0.1481,-1.56864c-0.2817,0.24245 -0.70183,0.44908 -1.24222,0.62489c-1.62036,0.94366 -4.07855,0.94371 -4.07855,0.94371c-20.83093,0 -32.86257,8.31317 -40.22655,17.05801c-0.86631,0.99217 -0.78977,2.18756 -0.78977,3.29678c0,0.31559 -0.05277,0.81717 -0.11034,1.33599c0.05507,-0.16696 0.1926,-0.30423 0.47253,-0.39237c1.2369,-0.38931 11.99034,1.99303 13.30987,0.62222c0.39657,-0.41196 -1.94504,-0.48959 -1.8159,-0.95416c1.58834,-5.71147 18.43368,-14.35054 26.71445,-16.72137c2.14775,-0.61491 4.56542,-0.92426 6.96893,-1.06595c-0.93971,-0.838 0.94564,-2.12066 0.94564,-3.17896zM502.2722,251.15174c-0.12404,1.1133 -0.23414,2.17752 0.13912,1.53635c0.25513,-0.43814 -0.11315,-1.05319 -0.13912,-1.53635zM493.41825,243.45885c7.81613,-8.43727 18.21138,-16.13035 34.41109,-19.15831c1.52179,-1.36172 4.6607,-1.36172 4.6607,-1.36172h2.7344c6.19156,0 9.46729,-1.23509 16.11789,-1.23509c9.23609,0 11.37705,10.51623 6.5473,13.59587c-3.04773,1.94335 -7.93637,2.58097 -12.0162,3.74908c-12.07636,3.4575 -16.5573,13.39307 -29.78997,18.33669c-14.02499,5.23962 -29.46542,-6.13878 -22.66524,-13.92644z" data-paper-data="{&quot;index&quot;:null}" fill="#000000" stroke="none" stroke-linecap="butt"/><path d="M548.95174,227.52837c0.07257,0.59739 0.16095,1.21417 0.16095,1.57731c0,1.05828 -1.86289,2.36025 -0.92321,3.19832c-2.40354,0.14164 -4.8351,0.43829 -6.98288,1.05324c-8.28086,2.37087 -25.20752,10.96609 -26.79581,16.67752c-0.1293,0.46459 1.95264,0.81721 1.55604,1.22922c-1.31953,1.37077 -12.16607,-1.05272 -13.40305,-0.66343c-0.28004,0.08816 -0.41622,0.22619 -0.47121,0.39329c0.05759,-0.51886 0.10019,-1.0276 0.10019,-1.34319c0,-1.10922 -0.10043,-2.32638 0.76594,-3.31855c7.36392,-8.74488 19.82986,-17.2419 40.66074,-17.2419c0,0 2.46935,0.00669 4.08968,-0.937c0.54037,-0.17583 0.96081,-0.38247 1.24234,-0.62486z" data-paper-data="{&quot;noHover&quot;:false,&quot;origItem&quot;:[&quot;Path&quot;,{&quot;applyMatrix&quot;:true,&quot;segments&quot;:[[[607.563,601.99816],[0.02649,0.38155],[-0.10299,0.15484]],[[607.10872,602.39727],[0.1976,-0.11227],[-0.59254,0.60273]],[[605.61718,603],[0,0],[-7.618,0]],[[590.90604,613.89443],[2.69308,-5.58508],[-0.31682,0.63364]],[[590.61718,616],[0,-0.70843],[0,0.20156]],[[590.57685,616.85325],[0.02106,-0.33136],[0.02013,-0.10671]],[[590.74964,616.60263],[-0.10238,0.05628],[0.45234,-0.24865]],[[595.61718,617],[-0.48256,0.87548],[0.14503,-0.26312]],[[594.95308,616.3906],[-0.04725,0.29671],[0.58086,-3.64773]],[[604.72276,605.71115],[-3.02833,1.51416],[0.78545,-0.39273]],[[607.27135,605.03032],[-0.87898,0.0905],[-0.34365,-0.53523]],[[607.61718,603],[0,0.6759],[0,-0.23192]]],&quot;closed&quot;:true}],&quot;index&quot;:null}" fill="#ffffff" stroke="none" stroke-linecap="butt"/></g><g fill-rule="nonzero" stroke-width="1"><path d="M143.14927,275.73364l35.52176,-32.54586l99.25206,-0.29059l-20.89514,32.83645z" data-paper-data="{&quot;index&quot;:null}" fill="#cedce9" stroke="#000000" stroke-linecap="round"/><path d="M133.70845,274.02711c-3.42797,-0.45934 -11.58601,-1.17537 -8.01081,-1.91556c-1.95466,0.2372 -4.56243,0.52679 -5.95002,0.60469c-6.57344,0.36907 -15.0924,0 -21.87548,0c-18.6089,0 -36.67528,-0.19591 -54.68853,0.73279c-8.14066,0.4197 -10.37852,-0.87638 -12.87829,0.93709c-5.1563,3.04278 -14.85757,5.75799 -21.0895,8.82116c-8.44631,4.15153 -11.72177,8.15948 -16.89965,12.32225c-5.85931,3.42813 -1.08652,10.0101 -1.08652,13.82575c0,1.02138 1.64367,2.83947 0.07383,3.59128c1.56058,0.03799 3.06788,0.07263 4.02786,0.07263c6.38036,0 12.76064,0 19.14103,0c25.38,0 54.86831,-0.14873 79.50241,-1.7991c29.24874,-1.76062 60.94879,0.76412 90.43281,-0.81611c16.14617,-0.79255 33.74649,-0.32143 50.18604,-0.31585c8.33979,0.00284 15.48149,-0.84603 19.14099,0.73278c0.96185,0.41499 0,-0.97703 0,-1.46554c0,-1.22127 0,-2.44263 0,-3.6639c0,-6.83929 0,-13.67856 0,-20.51784c0,-1.61685 -1.58152,-7.40136 1.6903,-8.0273c-0.61372,-0.00982 -1.30834,-0.0258 -1.6903,-0.03328c-3.38359,-0.06616 -5.27403,-0.01618 -7.91464,-0.52109c-4.58423,-0.87657 -20.05014,-0.21168 -26.26569,-0.21168c-24.15412,0 -48.30818,0 -72.4623,0c0,0 -5.46883,0 -5.46883,-1.46554c0,-0.06016 0.00917,-0.11784 0.02686,-0.17313c-2.61441,-0.1485 -5.25524,-0.35444 -7.94146,-0.71438zM219.5544,273.4491c14.58066,0 33.21595,-0.69577 43.1733,2.27569c5.70595,1.70276 1.94463,7.16219 1.94463,9.44881c0,6.83929 0,13.67854 0,20.51783c0,0.78098 1.88366,4.65514 0,5.12947c-19.02596,4.79073 -54.88675,1.05494 -78.11958,2.4573c-28.8306,1.54521 -62.03253,-1.39933 -89.9251,0.78551c-25.38944,1.701 -55.97692,1.88665 -82.15522,1.88665c-3.75499,0 -26.27388,0.76209 -28.71144,0c-6.99003,-2.18542 -5.46883,-4.00845 -5.46883,-6.59503c0,-4.67855 -3.09481,-10.2554 1.64784,-14.75268c5.30702,-4.26656 9.02877,-8.54573 17.49317,-12.70617c3.41443,-1.67824 7.1025,-3.92313 11.51503,-5.4389c2.88733,-0.99183 8.40769,-1.7977 9.09743,-3.08704c4.67869,-3.3942 13.13381,-2.28207 23.13842,-2.85253c17.80943,-1.01551 36.23885,-0.73279 54.68851,-0.73279c6.80412,0 20.0985,-0.83916 24.89849,-0.57806c8.35565,0.45455 13.19969,2.36412 21.29808,2.93112c5.94246,0.41606 12.20472,0.16976 19.14103,1.09916c0.52657,0.07058 1.05305,0.14112 1.57968,0.21168c18.25487,0 36.50984,0 54.76474,0z" data-paper-data="{&quot;index&quot;:null}" fill="#000000" stroke="none" stroke-linecap="butt"/><path d="M141.726,274.67118c-0.01772,0.0553 -0.02623,0.11301 -0.02623,0.17317c0,1.46556 5.49569,1.46806 5.49569,1.46806c24.15407,0 48.43687,0.02913 72.59108,0.02913c6.21553,0 21.6955,-0.65805 26.27975,0.21849c2.64055,0.50493 4.53529,0.45741 7.91877,0.52354c0.38192,0.00747 1.07712,0.02382 1.69094,0.03365c-3.27186,0.62595 -1.67372,6.42449 -1.67372,8.04134c0,6.83929 -0.01141,13.71926 -0.01141,20.55854c0,1.2213 -0.00934,2.44856 -0.00934,3.66983c0,0.48851 0.95772,1.88273 -0.00413,1.46776c-3.65948,-1.5788 -10.80771,-0.72681 -19.14742,-0.72964c-16.43956,-0.00558 -34.08966,-0.45999 -50.23579,0.33259c-29.48406,1.58025 -61.47383,-0.93027 -90.7226,0.83033c-24.6341,1.65039 -54.24211,1.77359 -79.6223,1.77359c-6.38037,0 -12.77183,-0.0046 -19.15219,-0.0046c-0.96006,0 -2.46941,-0.03558 -4.02992,-0.07356c1.56986,-0.75183 -0.08399,-2.57508 -0.08399,-3.59646c0,-3.81565 -4.79853,-10.42297 1.06091,-13.85112c5.17794,-4.16279 8.46458,-8.19854 16.91089,-12.35007c6.23203,-3.06318 15.97424,-5.80023 21.13058,-8.84298c2.49975,-1.81346 4.75459,-0.52296 12.89524,-0.94266c18.01319,-0.92866 36.1969,-0.75331 54.80567,-0.75331c6.78296,0 15.37818,0.36539 21.95162,-0.00367c1.38746,-0.07792 4.01697,-0.3675 5.97163,-0.60468c-3.57529,0.74018 4.61512,1.45709 8.04315,1.91641c2.68633,0.35993 5.35902,0.56783 7.97335,0.71632z" data-paper-data="{&quot;noHover&quot;:false,&quot;origItem&quot;:[&quot;Path&quot;,{&quot;applyMatrix&quot;:true,&quot;segments&quot;:[[[579.60736,595.76373],[0.95609,-0.20262],[0.00646,0.07548]],[[579.61718,596],[0,-0.08208],[0,2]],[[577.61718,598],[0,0],[-8.83333,0]],[[551.11718,598],[8.83333,0],[-2.27308,0]],[[541.51161,598.28885],[1.67648,-1.19621],[-0.96568,0.68904]],[[538.61718,599],[1.23739,-0.09027],[-0.13966,0.01019]],[[537.99901,599.04541],[0.22447,-0.0134],[1.19653,0.85421]],[[538.61718,610],[0,-2.20646],[0,9.33333]],[[538.61718,638],[0,-9.33333],[0,1.66667]],[[538.61718,643],[0,-1.66667],[0,0.66667]],[[538.61718,645],[-0.35177,0.56631],[1.33831,-2.15456]],[[545.61718,644],[-3.04994,0.00386],[6.01206,-0.00761]],[[563.97058,644.43107],[-5.90478,-1.08158],[10.78253,2.15651]],[[597.04254,645.54479],[-10.6965,-2.40266],[9.00888,2.25222]],[[626.11718,648],[-9.28168,0],[2.33333,0]],[[633.11718,648],[-2.33333,0],[0.35109,0]],[[634.59021,647.90091],[-0.5707,0.05184],[-0.57412,-1.02596]],[[634.61718,643],[0,1.39387],[0,-5.20707]],[[634.21982,624.13246],[2.14282,4.67827],[-1.8936,-5.6808]],[[628.03948,607.31672],[3.08887,5.66543],[-2.2791,-4.1802]],[[620.32688,595.27881],[1.8857,4.15235],[-0.91417,-2.47477]],[[615.61718,594],[2.9771,0.57275],[-6.58756,-1.26734]],[[595.61718,593],[6.8054,0],[-2.48058,0]],[[587.61718,593],[2.40395,0.50364],[-0.50743,-0.10631]],[[585.44122,592.1748],[0.71481,0.32365],[1.30749,1.01011]],[[582.51161,594.78885],[1.25365,-0.62682],[-0.98239,0.4912]]],&quot;closed&quot;:true}],&quot;index&quot;:null}" fill="#484848" stroke="none" stroke-linecap="butt"/><path d="M65.05927,280.04418c0,0.4953 1.88532,1.09559 0.94564,1.48778c2.40351,0.06629 4.82123,0.21108 6.96891,0.49887c8.28077,1.10958 25.12611,5.15272 26.71449,7.8257c0.12915,0.21741 -2.21247,0.25373 -1.81592,0.44655c1.31954,0.64156 12.07291,-0.47337 13.30988,-0.29118c0.2799,0.04121 0.41738,0.10545 0.47247,0.18363c-0.05758,-0.24281 -0.11028,-0.47754 -0.11028,-0.62525c0,-0.51914 0.07655,-1.07858 -0.78979,-1.54291c-7.36402,-4.09265 -19.39558,-7.98324 -40.2265,-7.98324c0,0 -2.45822,-0.00001 -4.07855,-0.44166c-0.54032,-0.08226 -0.96054,-0.17902 -1.24222,-0.29246c-0.0724,0.27959 -0.14816,0.56418 -0.14816,0.73413zM111.5445,291.03582c0.37322,0.30006 0.26316,-0.19799 0.13914,-0.71902c-0.02595,0.22612 -0.39427,0.51398 -0.13914,0.71902zM120.53747,286.71654c6.8002,3.64463 -8.64021,8.96979 -22.66518,6.51765c-13.23266,-2.31364 -17.71354,-6.96356 -29.78996,-8.58168c-4.0798,-0.54668 -8.96846,-0.8451 -12.0162,-1.75459c-4.82972,-1.44132 -2.68876,-6.36294 6.5473,-6.36294c6.65062,0 9.9263,0.57805 16.1179,0.57805h2.73441c0,0 3.13898,0.00002 4.66069,0.63729c16.19968,1.4171 26.59495,5.01751 34.41108,8.96619z" data-paper-data="{&quot;index&quot;:null}" fill="#000000" stroke="none" stroke-linecap="butt"/><path d="M65.0045,279.26091c0.28156,0.11347 0.70195,0.21016 1.24233,0.29243c1.62032,0.44166 4.08968,0.43851 4.08968,0.43851c20.83088,0 33.29678,3.97664 40.66073,8.0693c0.86631,0.46432 0.76593,1.03397 0.76593,1.55308c0,0.1477 0.04261,0.38582 0.10019,0.62863c-0.05498,-0.07822 -0.19117,-0.14281 -0.4712,-0.18407c-1.23696,-0.18217 -12.08353,0.95204 -13.40306,0.31049c-0.39659,-0.19282 1.68532,-0.35785 1.55605,-0.57529c-1.58834,-2.67299 -18.51494,-6.6956 -26.79581,-7.80516c-2.14777,-0.28779 -4.57932,-0.42661 -6.98286,-0.49293c0.9397,-0.39221 -0.92321,-1.00153 -0.92321,-1.49682c0,-0.16995 0.08837,-0.45861 0.16095,-0.7382z" data-paper-data="{&quot;noHover&quot;:false,&quot;origItem&quot;:[&quot;Path&quot;,{&quot;applyMatrix&quot;:true,&quot;segments&quot;:[[[607.563,601.99816],[0.02649,0.38155],[-0.10299,0.15484]],[[607.10872,602.39727],[0.1976,-0.11227],[-0.59254,0.60273]],[[605.61718,603],[0,0],[-7.618,0]],[[590.90604,613.89443],[2.69308,-5.58508],[-0.31682,0.63364]],[[590.61718,616],[0,-0.70843],[0,0.20156]],[[590.57685,616.85325],[0.02106,-0.33136],[0.02013,-0.10671]],[[590.74964,616.60263],[-0.10238,0.05628],[0.45234,-0.24865]],[[595.61718,617],[-0.48256,0.87548],[0.14503,-0.26312]],[[594.95308,616.3906],[-0.04725,0.29671],[0.58086,-3.64773]],[[604.72276,605.71115],[-3.02833,1.51416],[0.78545,-0.39273]],[[607.27135,605.03032],[-0.87898,0.0905],[-0.34365,-0.53523]],[[607.61718,603],[0,0.6759],[0,-0.23192]]],&quot;closed&quot;:true}],&quot;index&quot;:null}" fill="#ffffff" stroke="none" stroke-linecap="butt"/></g><path d="M86.34042,297.93099c2.02733,0.11723 4.13117,0.1563 6.31074,0.1184c-2.17445,0.15629 -4.40965,0.15629 -6.70517,0c0.04891,-0.07222 0.18024,-0.11129 0.39442,-0.1184z" fill="#3f8ac8" fill-rule="evenodd" stroke="none" stroke-width="1" stroke-linecap="butt"/><g><path d="M646.39235,234.07858l-179.90509,5.94553l-189.09143,25.62782l-232.08265,-9.82609l-1.03374,-115.70113l4.31324,1.59267l224.82721,3.28372l80.5625,-57.57566l-0.04697,-30.4766l77.88489,-60.98222l91.68107,42.23746l108.33946,-13.765l13.02117,203.71314z" data-paper-data="{&quot;index&quot;:null}" fill="#7a8a96" fill-rule="nonzero" stroke="#000000" stroke-width="0" stroke-linecap="round"/><path d="M513.44837,147.12866l1.88348,40.97574l-33.34287,-0.31269l-0.37337,-38.93652z" data-paper-data="{&quot;index&quot;:null}" fill="#44535b" fill-rule="nonzero" stroke="#000000" stroke-width="0" stroke-linecap="round"/><path d="M547.87658,236.44566l-4.79355,-90.19449l75.16799,-3.65052l4.5391,92.55906z" data-paper-data="{&quot;index&quot;:null}" fill="#bacedc" fill-rule="nonzero" stroke="#000000" stroke-width="0" stroke-linecap="round"/><path d="M613.20537,226.76856l-24.19481,-0.1747l-3.02014,-72.81864l23.28471,-1.28476z" data-paper-data="{&quot;index&quot;:null}" fill="#44535b" fill-rule="nonzero" stroke="#000000" stroke-width="0" stroke-linecap="round"/><path d="M575.41831,156.61189l5.03406,69.83383l-21.82519,0.37466l-6.20875,-69.51865l20.34549,-0.64427z" data-paper-data="{&quot;index&quot;:null}" fill="#44535b" fill-rule="nonzero" stroke="#000000" stroke-width="0" stroke-linecap="round"/><path d="M473.1908,14.69095l-46.62258,33.84282l-7.81008,-8.12654l42.54414,-30.82258l-29.44162,-13.65566l-86.74651,68.16412l-5.14046,-7.28729l89.19775,-71.45143l101.34248,43.10371l121.52474,-18.60735l-4.80127,12.47334l-123.92471,16.28837z" data-paper-data="{&quot;index&quot;:null}" fill="#bacedc" fill-rule="nonzero" stroke="#000000" stroke-width="0" stroke-linecap="round"/><path d="M382.97065,56.65773l93.14248,81.00732l-4.87719,8.04933l-90.41716,-76.92378l-106.58914,76.61785l-241.17757,-4.12052l-4.58605,-9.36198l244.6662,1.11042z" data-paper-data="{&quot;index&quot;:null}" fill="#bacedc" fill-rule="nonzero" stroke="#000000" stroke-width="0" stroke-linecap="round"/><path d="M386.57694,60.50486l34.1821,-2.35691l0.54679,31.853z" data-paper-data="{&quot;index&quot;:null}" fill="#44535b" fill-rule="nonzero" stroke="#000000" stroke-width="0" stroke-linecap="round"/><path d="M507.921,44.2608l1.60245,58.97693l-55.72758,1.84169l-0.01639,-52.51367z" data-paper-data="{&quot;index&quot;:null}" fill="#44535b" fill-rule="nonzero" stroke="#000000" stroke-width="0" stroke-linecap="round"/><path d="M162.48509,261.13144l-1.15684,-101.76278l94.15017,2.21908l0.6024,103.83747z" data-paper-data="{&quot;index&quot;:null}" fill="#b2cbe4" fill-rule="nonzero" stroke="#000000" stroke-width="0" stroke-linecap="round"/><path d="M63.00586,257.82376l-0.53658,-100.00331l73.46926,0.50895l-1.79252,101.8134z" data-paper-data="{&quot;index&quot;:null}" fill="#b2cbe4" fill-rule="nonzero" stroke="#000000" stroke-width="0" stroke-linecap="round"/><path d="M273.37395,133.01828l-243.88216,-0.44768l86.45056,-59.41146l265.92913,-14.41263z" data-paper-data="{&quot;index&quot;:null}" fill="#7c7980" fill-rule="nonzero" stroke="#000000" stroke-width="0" stroke-linecap="round"/><path d="M370.88466,125.22946c0.42029,2.01796 0.45504,4.04254 0.10426,6.07369c-0.19294,0.00331 -0.29086,-0.0905 -0.29419,-0.28424c0.25446,-1.87911 0.31765,-3.80988 0.18992,-5.78943z" fill="#762280" fill-rule="evenodd" stroke="none" stroke-width="1" stroke-linecap="butt"/><path d="M427.04718,137.75079c9.07802,2.90234 16.54963,5.66484 21.65293,13.95674c-0.02028,10.38368 -3.37372,25.84311 -11.42807,32.65897c-4.95411,4.19233 -13.79805,4.97909 -19.95201,5.18146c-6.01484,-2.53606 -13.3379,-2.7981 -18.87883,-6.41377c-16.26886,-10.6161 -2.59609,-31.46454 3.88303,-43.65874c2.66108,-1.81626 5.25541,-3.95276 8.58669,-4.46383c5.19958,-0.79772 11.28219,1.18726 16.13629,2.73914z" data-paper-data="{&quot;noHover&quot;:false,&quot;origItem&quot;:[&quot;Path&quot;,{&quot;applyMatrix&quot;:true,&quot;segments&quot;:[[[406.14717,159.05569],[5.60953,-9.47503],[0.22451,11.74087]],[[419.66913,195.65088],[-9.2397,-7.55065],[5.68318,4.64428]],[[442.25922,201.10268],[-6.96247,-0.10939],[6.752,-2.98437]],[[463.41992,193.51437],[-6.19515,4.19594],[18.18978,-12.31984]],[[458.19452,144.37231],[7.5629,13.66271],[-3.04423,-2.00207]],[[448.42883,139.50686],[3.77675,0.51324],[-5.89486,-0.80108]],[[430.29576,142.91704],[5.45859,-1.84902],[-10.20854,3.458]]],&quot;closed&quot;:true}],&quot;index&quot;:null}" fill="#ffffff" fill-rule="nonzero" stroke="none" stroke-width="0.5" stroke-linecap="butt"/><path d="M380.17655,125.32761c0,0 0.19231,0.18604 0.49817,0.33817c2.20391,3.15548 3.07848,7.49869 4.62206,10.96899c3.27306,12.27481 -1.88774,24.88431 -11.32959,32.76723c-1.96415,1.63985 -2.84992,4.0507 -5.23727,5.14345c-3.42045,1.56563 -8.88506,1.10065 -12.48972,0.68189c-5.84219,-0.65338 -12.98035,-2.42066 -17.72987,-6.08555c-12.48899,-9.63686 -16.31842,-28.44957 -9.04401,-42.04814c8.22789,-4.50574 16.26854,-10.05801 25.94215,-10.96359c4.25947,-0.39872 9.11749,1.80304 13.1275,2.99276c3.39454,1.00713 6.61882,2.28128 9.41482,4.31965c0.25572,0.71695 0.89691,0.96105 1.311,1.04178c0.31021,0.26821 0.61677,0.55075 0.91476,0.84333z" data-paper-data="{&quot;noHover&quot;:false,&quot;origItem&quot;:[&quot;Path&quot;,{&quot;applyMatrix&quot;:true,&quot;segments&quot;:[[[241.27219,64.15942],[0.17145,-0.08897],[-1.2154,1.8054]],[[238.77424,70.38902],[0.83902,-1.97698],[-1.73136,6.97159]],[[245.47937,88.75007],[-5.41465,-4.36514],[1.12638,0.90806]],[[248.48009,91.60141],[-1.36034,-0.59463],[1.94901,0.85196]],[[255.52803,91.86179],[-2.0339,0.27174],[3.29666,-0.4261]],[[265.46265,88.25978],[-2.64968,2.11811],[6.96736,-5.5696]],[[270.1583,64.46817],[4.24471,7.61762],[-4.69554,-2.46756]],[[255.42503,58.54189],[5.47796,0.4181],[-2.41205,-0.18409]],[[248.0543,60.35629],[2.2556,-0.71156],[-1.9094,0.60234]],[[242.78699,62.88011],[1.56099,-1.17956],[-0.13762,0.40783]],[[242.05771,63.47991],[0.23333,-0.04966],[-0.17278,0.15465]],[[241.54998,63.9641],[0.16564,-0.1683],[0,0]]],&quot;closed&quot;:true}],&quot;index&quot;:null}" fill="#ffffff" fill-rule="nonzero" stroke="none" stroke-width="0.5" stroke-linecap="butt"/><path d="M439.80863,165.40911c-2.19729,0.03772 -4.0091,-1.71295 -4.04682,-3.91022c-0.03772,-2.19729 1.71294,-4.0091 3.91022,-4.04682c2.19729,-0.03772 4.0091,1.71294 4.04682,3.91022c0.03772,2.19729 -1.71294,4.0091 -3.91022,4.04682z" data-paper-data="{&quot;index&quot;:null}" fill="#000000" fill-rule="nonzero" stroke="none" stroke-width="0.5" stroke-linecap="butt"/><path d="M379.70323,151.30509c-2.19729,0.03772 -4.0091,-1.71294 -4.04682,-3.91022c-0.03772,-2.19729 1.71294,-4.0091 3.91022,-4.04682c2.19729,-0.03772 4.0091,1.71295 4.04682,3.91022c0.03772,2.19729 -1.71294,4.0091 -3.91022,4.04682z" data-paper-data="{&quot;index&quot;:null}" fill="#000000" fill-rule="nonzero" stroke="none" stroke-width="0.5" stroke-linecap="butt"/><path d="M507.81039,47.02117c1.2718,1.22885 0.04293,2.50066 0.04293,2.50066l-0.88862,0.78906c-7.18866,3.74992 -12.94577,7.93896 -19.49281,12.6055c-11.76929,8.38883 -25.61127,14.60597 -38.10985,21.88645c-15.66692,13.52152 -31.04731,27.60271 -47.49161,40.1607c0,0 -1.40551,1.07336 -2.47887,-0.33217c-1.07335,-1.40551 0.33218,-2.47885 0.33218,-2.47885c16.4857,-12.58961 31.79692,-26.77239 47.58566,-40.23013c12.48008,-7.33702 26.35353,-13.49779 38.12737,-21.89885c6.65781,-4.7506 12.58148,-9.0351 19.89207,-12.84863l-0.01912,-0.11082c0,0 1.22885,-1.2718 2.50066,-0.04293z" data-paper-data="{&quot;index&quot;:null}" fill="#000000" fill-rule="nonzero" stroke="none" stroke-width="0.5" stroke-linecap="butt"/><path d="M259.80462,37.26775c0.68059,-1.6323 2.31288,-0.95168 2.31288,-0.95168l2.15565,0.90365c2.60589,1.55215 4.92307,2.49374 7.74638,3.63085c21.48268,8.65236 44.81305,18.46059 64.23571,31.12289c16.82052,10.96589 34.43212,21.58279 48.58199,35.98579c0,0 1.23939,1.26155 -0.02218,2.50091c-1.26155,1.23939 -2.50092,-0.02218 -2.50092,-0.02218c-13.96564,-14.2155 -31.3894,-24.67874 -47.99051,-35.50158c-19.23057,-12.53706 -42.35514,-22.2381 -63.6255,-30.80497c-2.88087,-1.1603 -5.35031,-2.16705 -8.01417,-3.75188l-1.92762,-0.79894c0,0 -1.6323,-0.68059 -0.95168,-2.31288z" data-paper-data="{&quot;index&quot;:null}" fill="#000000" fill-rule="nonzero" stroke="none" stroke-width="0.5" stroke-linecap="butt"/><path d="M336.87505,232.88998c0.9991,-0.04228 1.04138,0.95682 1.04138,0.95682l0.0168,0.39713c-0.0231,2.5002 -1.35113,3.96948 -3.45102,1.69826c-1.06857,-1.15577 -0.99909,-2.78863 -0.94502,-4.23923c-0.23735,-5.90179 -2.84961,-10.47617 -5.07701,-15.70259c-2.05191,-4.81468 -0.37036,-12.38105 1.26258,-17.07083c0.52891,-2.56525 1.36119,-6.52168 2.84762,-8.71221c2.86609,-4.22373 7.00048,-6.61304 11.15653,-9.30459c3.89076,-2.51974 7.69851,-4.62082 12.2511,-5.58072c12.63509,-2.27442 26.81391,-3.22146 39.45503,-0.43786c3.95491,0.88122 7.12103,3.28712 10.82683,4.8262c9.15913,3.80393 16.12759,9.80475 21.70107,17.99848c3.18345,5.67715 6.96044,11.23042 9.19325,17.37625c1.47604,4.06279 1.4938,9.138 3.46224,12.89202c0,0 0.45707,0.88943 -0.43236,1.3465c-0.88943,0.45707 -1.3465,-0.43236 -1.3465,-0.43236c-1.98095,-3.91933 -2.04133,-8.93384 -3.56319,-13.12327c-2.18486,-6.01457 -5.90448,-11.44788 -9.01412,-17.00665c-5.34933,-7.84813 -11.99645,-13.55082 -20.766,-17.20331c-3.5756,-1.48922 -6.67927,-3.89084 -10.49165,-4.72073c-12.36991,-2.7282 -26.27685,-1.77828 -38.64104,0.4476c-6.40732,1.3517 -14.27309,5.55313 -18.69725,10.42069c-1.24907,1.37426 -3.21858,2.48627 -3.88114,4.31937c-0.83842,2.31966 -1.63503,4.998 -2.13233,7.42603c-1.44646,4.15018 -3.27107,11.48349 -1.35015,15.75683c2.44138,5.43116 4.96578,10.33388 5.23645,16.48371c-0.03289,0.73335 0.76393,5.06523 0.39782,2.62698l-0.0168,-0.39713c0,0 -0.04228,-0.9991 0.95682,-1.04138z" fill="#000000" fill-rule="nonzero" stroke="none" stroke-width="0.5" stroke-linecap="butt"/></g><g data-paper-data="{&quot;index&quot;:null}" fill-rule="nonzero" stroke="none" stroke-width="0.5" stroke-linecap="butt"><path d="M428.82944,230.8317l0.64495,0.58627c1.86919,1.74164 2.47685,3.85592 3.89565,5.96332c0.00926,0.15701 0.02225,0.31427 0.03878,0.47172c0.0808,0.11386 0.16128,0.22761 0.24148,0.34124c0,0 0.46509,0.65932 0.03628,1.24818c0.95763,4.00099 3.73109,8.07178 5.03102,11.75196c0.70821,2.00497 -0.39066,4.61546 0.09703,6.74936c0.43109,1.88623 1.37835,3.77048 2.18404,5.66766l0.15131,-0.10673l0.91474,1.29676c0.2254,0.30803 0.28467,0.72464 0.11934,1.09886c-0.24636,0.5576 -0.8981,0.80991 -1.4557,0.56356c-0.07501,-0.03314 -0.1445,-0.07361 -0.20798,-0.12021l-1.13054,-0.79593l0.0153,-0.02174l-0.07016,-0.01949c-1.21794,-1.10363 -2.19539,-2.15201 -3.71621,-2.81582c-11.03183,-8.46943 -24.1097,-10.76302 -37.24915,-14.06913c-5.98403,-1.50804 -11.65741,-3.52761 -17.69937,-4.50618c-2.53289,-0.41023 -5.32968,-2.16888 -7.86261,-2.8545c-4.35072,-1.17766 -8.63048,-1.38624 -12.82316,-3.24342c-1.70808,-0.43355 -2.99226,-0.33098 -4.68378,-0.59091c-5.00946,-0.76981 -10.48921,-3.58314 -15.29675,-5.22852c-4.04873,-1.38567 -8.75797,-1.95913 -12.97415,-3.04682c-5.74538,-0.53455 -11.33831,-2.3634 -17.05254,-2.86102c-4.75218,-0.41384 -9.1657,-0.46785 -13.92277,-0.07891c-3.25872,0.26643 -6.38356,-1.2622 -9.47913,-1.9519c-4.61257,-1.64547 -8.38119,-1.45607 -13.05194,-2.18009c-4.04343,-0.62677 -8.01251,-2.08439 -12.12781,-1.99095c-2.37813,0.054 -6.07282,1.03647 -8.31035,0.49572c-0.7885,-0.19056 -1.84935,-0.37594 -2.15718,-1.12646c-0.38221,-0.93186 0.90204,-6.07053 1.0597,-7.28158c5.1523,-11.74261 2.25746,-24.77868 7.31281,-36.35809c0.96025,-3.19157 0.4487,-8.79709 2.70807,-11.37855c0.98093,-1.12077 4.45004,-1.82993 5.81612,-2.34173c2.75439,-1.03192 5.24156,0.29749 8.05145,0.55677c4.05162,0.37387 8.26071,-0.22809 12.22207,0.547c3.77506,0.6265 7.45907,0.61218 11.21846,1.05714c10.07788,1.19282 20.68513,3.78131 30.31936,6.92944c14.07417,4.60086 28.61761,10.84905 41.16031,18.77533c12.68624,8.04084 25.15662,16.40946 38.02862,24.13822c7.23974,3.63457 13.61994,9.83619 19.03285,16.44113c0.52937,-0.11288 0.97149,0.28903 0.97149,0.28903zM407.76055,216.03548c-12.91573,-7.74286 -25.42204,-16.14289 -38.1459,-24.20758c-12.34778,-7.85211 -26.78483,-14.00819 -40.66418,-18.54154c-9.49861,-3.10382 -19.97062,-5.66853 -29.90694,-6.83723c-3.79659,-0.44655 -7.52926,-0.44237 -11.34254,-1.07621c-3.86598,-0.79178 -8.04897,-0.13589 -12.01573,-0.51923c-2.29023,-0.22132 -4.86341,-1.58215 -7.06347,-0.69739c-1.06043,0.42645 -4.35278,1.04714 -5.08897,1.88003c-0.84856,0.96003 -0.47684,1.75525 -0.61097,2.84131c-0.31907,2.5834 -0.80343,5.21293 -1.54984,7.70354c-5.08079,11.4576 -2.06382,24.51453 -7.25681,36.18427c-0.23326,1.95322 -0.94293,3.91916 -1.20416,5.72195c-0.09883,0.68204 1.37803,-0.07643 2.06,-0.17584c0.74926,-0.10922 1.4708,-0.39553 2.22574,-0.45392c1.98337,-0.1534 4.48812,-0.12761 6.47398,0.03755c4.65471,0.38712 9.45291,2.79913 14.13566,2.69913c3.37549,-0.07208 6.01106,0.33503 9.38131,1.54409c2.81234,0.6231 5.75964,2.13824 8.71984,1.87016c4.85762,-0.43991 9.41904,-0.35368 14.26453,0.08263c5.78126,0.52058 11.43065,2.32859 17.23677,2.8852c4.32138,1.1007 9.06905,1.72113 13.2338,3.10845c4.74281,1.57987 10.14185,4.44462 15.06236,5.17143c1.74812,0.25822 3.21429,0.21315 5.00199,0.67517c4.13822,1.82376 8.35887,2.03932 12.65778,3.19329c2.42254,0.65029 5.29947,2.48969 7.70978,2.82038c6.12456,0.84024 11.80291,3.02058 17.8337,4.53556c3.39593,0.85448 6.95915,2.593 10.37187,3.11635c10.06367,1.54332 19.355,4.77867 27.47079,11.19849c0.29327,0.13105 0.56913,0.27514 0.83201,0.43031c-0.42791,-1.02588 -0.74897,-2.05765 -0.90898,-2.7426c-0.42971,-1.8394 0.6531,-4.98508 -0.04415,-6.57144c-1.64962,-3.75319 -4.86494,-8.93645 -5.30299,-13.17764c-6.18011,-8.66325 -14.12063,-17.94028 -23.5663,-22.69868z" fill="#000000"/><path d="M431.38077,238.74597c0.43804,4.24119 3.65149,9.43106 5.30111,13.18424c0.69724,1.58636 -0.38684,4.73532 0.04287,6.57471c0.16002,0.68495 0.48058,1.71783 0.90849,2.74371c-0.26289,-0.15517 -0.63928,-0.34482 -0.93255,-0.47587c-8.11579,-6.41982 -17.30695,-9.60881 -27.37063,-11.15212c-3.41273,-0.52335 -6.97663,-2.26049 -10.37256,-3.11496c-6.03079,-1.51499 -11.71192,-3.69049 -17.83647,-4.53072c-2.41032,-0.33067 -5.289,-2.16752 -7.71153,-2.8178c-4.29891,-1.15397 -8.52853,-1.35985 -12.66675,-3.18361c-1.7877,-0.46202 -3.26295,-0.41068 -5.01107,-0.6689c-4.92051,-0.72682 -10.37807,-3.59486 -15.12087,-5.17473c-4.16475,-1.38732 -8.93297,-2.03559 -13.25435,-3.13629c-5.80612,-0.55661 -11.458,-2.37636 -17.23926,-2.89694c-4.84549,-0.43631 -9.40704,-0.52414 -14.26467,-0.08422c-2.9602,0.26807 -5.90761,-1.24933 -8.71995,-1.87242c-3.37025,-1.20906 -6.00585,-1.6176 -9.38134,-1.54552c-4.68274,0.09998 -9.48092,-2.31383 -14.13563,-2.70094c-1.98587,-0.16516 -4.38027,-0.18776 -6.36365,-0.03436c-0.75493,0.05839 -1.47646,0.34439 -2.22572,0.45362c-0.68195,0.09941 -2.26918,0.85554 -2.17035,0.1735c0.26124,-1.80278 0.97108,-3.7721 1.20433,-5.72533c5.193,-11.66975 2.18183,-24.7472 7.26263,-36.20481c0.74641,-2.49062 1.23283,-5.12384 1.55189,-7.70723c0.13413,-1.08606 -0.23678,-1.88256 0.61178,-2.84259c0.73618,-0.83288 4.02992,-1.45562 5.09035,-1.88208c2.20007,-0.88476 4.77452,0.47434 7.06475,0.69566c3.96676,0.38333 8.15278,-0.27616 12.01876,0.51562c3.81328,0.63386 7.54969,0.62598 11.34628,1.07253c9.93632,1.1687 20.42498,3.72312 29.92359,6.82693c13.87934,4.53335 28.37041,10.69713 40.71819,18.54924c12.72387,8.06469 25.25143,16.50438 38.16717,24.24725c9.44567,4.7584 17.38505,14.0512 23.56516,22.71445z" data-paper-data="{&quot;noHover&quot;:false,&quot;origItem&quot;:[&quot;Path&quot;,{&quot;applyMatrix&quot;:true,&quot;segments&quot;:[[[197.49641,76.13556],[0.53521,-10.56298],[-1.86274,14.94317]],[[190.7697,120.8107],[2.23466,-14.89773],[-2.1922,14.46781]],[[190.24344,165.49947],[-1.46243,-14.52751],[0.99963,9.94274]],[[196.07577,195.61851],[-2.94657,-9.56107],[1.12586,3.65321]],[[199.67524,206.42848],[-0.96128,-3.74417],[0.83813,3.8562]],[[204.05624,217.62911],[-1.25246,-3.78331],[0.72311,2.18432]],[[206.27292,224.3719],[-1.69841,-1.65484],[0.81863,0.79763]],[[210.04919,228.267],[-1.05935,-0.33679],[1.22107,0.3882]],[[212.89505,227.67759],[-1.04763,0.31622],[2.49198,-0.75218]],[[220.56782,225.98198],[-2.57982,0.3238],[12.53359,0.01702]],[[256.59832,217.99657],[-12.77299,-0.03392],[1.88088,-0.576]],[[262.31883,216.78559],[-1.75458,0.48961],[0.6638,-0.18523]],[[261.32548,214.97237],[0.36653,0.58361],[-0.4027,-0.64121]],[[260.01079,213.11994],[0.3585,0.66694],[-0.94186,-1.7522]],[[257.42879,207.18301],[0.65148,1.88322],[-1.52702,-4.41411]],[[254.18502,193.16231],[1.9839,4.2429],[-1.43007,-3.05843]],[[251.80611,183.9572],[0.2561,3.57139],[-0.56661,-2.82426]],[[249.99278,175.22536],[1.44152,2.59936],[-2.36551,-4.26549]],[[244.30361,162.14419],[1.55912,4.6085],[-1.86022,-5.4985]],[[239.97676,145.2117],[1.83731,5.53581],[-0.7396,-4.3976]],[[237.47186,131.85051],[0.41413,4.37016],[-0.47161,-4.97673]],[[236.115,115.98302],[1.32371,4.79453],[-0.47028,-1.70336]],[[234.71111,111.13484],[0.29986,1.82193],[-0.00419,-4.52227]],[[232.5166,98.26625],[0.68179,4.39857],[-0.3842,-2.4787]],[[231.98063,90.07431],[0.67162,2.33836],[-1.70656,-5.94171]],[[228.92214,71.92884],[1.05147,6.12862],[-0.59081,-3.45158]],[[227.58106,61.18227],[0.90048,3.33313],[-2.65538,-9.82895]],[[226.7225,31.52905],[-2.59236,10.01797],[0.00135,-0.32121]],[[226.77986,30.5941],[-0.03569,0.30317],[-0.76544,0.806]],[[224.63856,32.53392],[0.56186,-0.42318],[-1.50884,1.13642]],[[218.6455,35.23003],[1.16927,-1.27887],[-2.76638,3.02569]],[[208.73501,45.40618],[3.70239,-2.11468],[-5.4267,9.15405]]],&quot;closed&quot;:true}]}" fill="#d1e7b5"/></g><g data-paper-data="{&quot;index&quot;:null}" fill-rule="nonzero" stroke="none" stroke-width="0.5" stroke-linecap="butt"><path d="M690.29766,143.85883c-5.97352,6.10262 -12.87504,11.71832 -20.40672,14.70123c-13.50258,6.56523 -26.66148,13.80319 -40.0065,20.69565c-13.19196,6.79099 -28.22912,11.7342 -42.65376,15.07783c-9.87403,2.28751 -20.66803,3.93187 -30.81179,4.23259c-3.78397,0.11218 -7.45241,-0.2265 -11.26797,0.06514c-4.01422,0.42324 -8.15395,-0.54703 -12.22275,-0.5314c-2.82181,0.01084 -5.41638,1.11607 -8.0692,-0.1544c-1.3157,-0.63011 -4.70888,-1.642 -5.58731,-2.8448c-2.02327,-2.77039 -1.02009,-8.30909 -1.69556,-11.57282c-4.01602,-11.97959 0.01552,-24.7101 -4.0827,-36.8608c-0.05041,-1.22023 -0.87716,-6.45203 -0.41438,-7.34661c0.37272,-0.7205 1.44578,-0.81174 2.24799,-0.93212c2.27646,-0.34162 5.87027,0.96239 8.23441,1.2256c4.09108,0.45548 8.1731,-0.64697 12.25602,-0.91524c4.71637,-0.30989 8.45365,0.21063 13.19321,-1.02226c3.14428,-0.41442 6.39159,-1.66195 9.61419,-1.10959c4.70434,0.80634 9.10547,1.14118 13.87563,1.14743c5.73585,0.00752 11.46809,-1.32172 17.23824,-1.34825c4.29558,-0.71219 9.03702,-0.86871 13.19205,-1.89248c4.93376,-1.21563 10.63995,-3.53549 15.69775,-3.86117c1.70784,-0.10998 2.978,0.10528 4.71762,-0.17617c4.33993,-1.48076 8.62143,-1.31165 13.05896,-2.10161c2.58347,-0.4599 5.52426,-1.96544 8.08343,-2.15103c6.10468,-0.44271 11.93386,-1.95484 18.02743,-2.93007c13.37954,-2.1362 26.60858,-3.26925 38.34337,-10.73432c1.57337,-0.5273 2.63933,-1.48555 3.94972,-2.47763l0.0716,-0.01323l-0.01333,-0.023l1.19625,-0.6933c0.06734,-0.04082 0.14013,-0.07502 0.21776,-0.10142c0.57713,-0.1963 1.20412,0.11243 1.40042,0.68956c0.13174,0.38732 0.03602,0.7971 -0.21564,1.08408l-1.02538,1.21117l-0.14133,-0.11965c-0.96963,1.81886 -2.07914,3.61237 -2.67466,5.45333c-0.67371,2.08266 0.19101,4.77978 -0.691,6.71458c-1.61895,3.5514 -4.74012,7.36216 -6.04635,11.26327c0.37529,0.62435 -0.14606,1.24015 -0.14606,1.24015c-0.08989,0.10612 -0.18009,0.21234 -0.27058,0.31864c-0.03034,0.1554 -0.05712,0.31088 -0.08017,0.46647c-1.59886,1.97426 -2.39035,4.02682 -4.40564,5.59711l-0.69407,0.52721c0,0 -0.47581,0.36141 -0.99317,0.20235zM694.47444,136.00464c0.80982,-4.18614 4.46909,-9.06611 6.44282,-12.65947c0.83423,-1.51879 0.03263,-4.74761 0.62266,-6.54202c0.21971,-0.6682 0.63038,-1.66769 1.14696,-2.6519c-0.27552,0.13141 -0.563,0.25066 -0.86668,0.35537c-8.64959,5.68019 -18.18973,8.08481 -28.35021,8.73591c-3.44555,0.2208 -7.14802,1.63878 -10.606,2.19089c-6.14077,0.97803 -11.98907,2.64986 -18.16382,2.9475c-2.43008,0.11714 -5.45782,1.69606 -7.9282,2.1305c-4.38382,0.77093 -8.60707,0.61398 -12.88981,2.06624c-1.82144,0.3028 -3.27793,0.1288 -5.042,0.23207c-4.9654,0.2907 -10.59574,2.66886 -15.45924,3.82495c-4.27074,1.01518 -9.05459,1.21512 -13.45612,1.93101c-5.83259,0.04316 -11.61924,1.34666 -17.42388,1.35612c-4.86509,0.00793 -9.41639,-0.30786 -14.2164,-1.17382c-2.9251,-0.52772 -5.99436,0.722 -8.85065,1.09502c-3.46363,0.90758 -6.12481,1.08101 -9.48084,0.71197c-4.65574,-0.51196 -9.64771,1.46814 -14.31843,1.44386c-1.9927,-0.01036 -4.48997,-0.20523 -6.45214,-0.5327c-0.74686,-0.12464 -1.44037,-0.47337 -2.17712,-0.64815c-0.67055,-0.15908 -2.07489,-1.04465 -2.03651,-0.35657c0.10147,1.81878 0.63526,3.83958 0.6956,5.80576c4.14518,12.08172 -0.00986,24.82223 4.04224,36.68274c0.52418,2.54667 0.77511,5.20863 0.86545,7.8101c0.03798,1.09365 -0.40233,1.85305 0.35839,2.88407c0.65998,0.89447 3.88489,1.80268 4.90364,2.32086c2.11361,1.07506 4.79661,-0.05388 7.09745,-0.07266c3.9851,-0.03254 8.09408,0.98915 12.01477,0.54089c3.85429,-0.29559 7.57208,0.03728 11.39325,-0.07321c10.00064,-0.28917 20.65781,-1.92176 30.39284,-4.17707c14.22463,-3.29352 29.1477,-8.15437 42.13897,-14.88862c13.38461,-6.9129 26.58205,-14.17898 40.12943,-20.7544c9.828,-3.90812 18.5546,-12.44988 25.47359,-20.53526z" fill="#000000"/><path d="M669.05534,156.54869c-13.54739,6.57543 -26.76949,13.87916 -40.1541,20.79206c-12.99126,6.73426 -27.96883,11.59801 -42.19345,14.89154c-9.73503,2.25531 -20.40789,3.87617 -30.40852,4.16534c-3.82116,0.11049 -7.54236,-0.22639 -11.39664,0.06921c-3.92069,0.44827 -8.03238,-0.57728 -12.01748,-0.54475c-2.30083,0.01878 -4.98496,1.1459 -7.09856,0.07084c-1.01875,-0.51818 -4.24486,-1.42855 -4.90484,-2.32302c-0.76073,-1.03102 -0.32111,-1.79177 -0.35908,-2.88542c-0.09034,-2.60146 -0.34298,-5.26728 -0.86716,-7.81394c-4.0521,-11.86051 0.09897,-24.62199 -4.04622,-36.7037c-0.06034,-1.96618 -0.59402,-3.99036 -0.69548,-5.80915c-0.03839,-0.68809 1.4761,0.20488 2.14664,0.36396c0.73673,0.17478 1.43027,0.52321 2.17713,0.64785c1.96217,0.32746 4.34925,0.51579 6.34195,0.52614c4.67071,0.02428 9.66282,-1.95763 14.31856,-1.44566c3.35603,0.36904 6.01736,0.19417 9.48099,-0.7134c2.85628,-0.37302 5.92586,-1.62498 8.85096,-1.09727c4.80002,0.86597 9.35159,1.18018 14.21667,1.17225c5.80464,-0.00946 11.5948,-1.32444 17.42738,-1.3676c4.40153,-0.71588 9.20832,-0.94174 13.47905,-1.95693c4.86351,-1.15608 10.55242,-3.53239 15.51781,-3.82308c1.76407,-0.10327 3.22906,0.07777 5.0505,-0.22503c4.28274,-1.45227 8.51406,-1.28487 12.8979,-2.0558c2.47039,-0.43444 5.49963,-2.01065 7.92971,-2.12778c6.17475,-0.29765 12.02539,-1.96441 18.16615,-2.94244c3.45798,-0.55211 7.16101,-1.96865 10.60655,-2.18945c10.16048,-0.65111 19.59676,-3.01835 28.24635,-8.69854c0.30366,-0.10472 0.6953,-0.26049 0.97083,-0.39189c-0.51658,0.98421 -0.92686,1.98483 -1.14657,2.65303c-0.59001,1.79441 0.21257,5.0266 -0.62166,6.5454c-1.97371,3.59335 -5.63169,8.48007 -6.44152,12.66621c-6.91899,8.08538 -15.64585,16.64294 -25.47385,20.55107z" data-paper-data="{&quot;noHover&quot;:false,&quot;origItem&quot;:[&quot;Path&quot;,{&quot;applyMatrix&quot;:true,&quot;segments&quot;:[[[394.99281,152.27111],[1.07042,-21.12596],[-3.72549,29.88634]],[[381.5394,241.6214],[4.46932,-29.79546],[-4.3844,28.93562]],[[380.48687,330.99895],[-2.92486,-29.05502],[1.99926,19.88548]],[[392.15154,391.23703],[-5.89314,-19.12214],[2.25172,7.30642]],[[399.35048,412.85696],[-1.92257,-7.48834],[1.67625,7.7124]],[[408.11248,435.25821],[-2.50491,-7.56662],[1.44623,4.36864]],[[412.54583,448.7438],[-3.39682,-3.30968],[1.63726,1.59526]],[[420.09839,456.534],[-2.11871,-0.67358],[2.44214,0.77641]],[[425.7901,455.35518],[-2.09526,0.63243],[4.98396,-1.50436]],[[441.13565,451.96396],[-5.15963,0.6476],[25.06718,0.03403]],[[513.19664,435.99314],[-25.54598,-0.06783],[3.76177,-1.15201]],[[524.63766,433.57118],[-3.50916,0.97923],[1.3276,-0.37047]],[[522.65095,429.94475],[0.73306,1.16722],[-0.80541,-1.28243]],[[520.02157,426.23988],[0.71699,1.33387],[-1.88372,-3.50441]],[[514.85758,414.36602],[1.30296,3.76644],[-3.05404,-8.82822]],[[508.37004,386.32462],[3.96781,8.4858],[-2.86014,-6.11687]],[[503.61222,367.9144],[0.51221,7.14278],[-1.13323,-5.64852]],[[499.98555,350.45073],[2.88305,5.19872],[-4.73101,-8.53097]],[[488.60721,324.28838],[3.11823,9.217],[-3.72043,-10.997]],[[479.95353,290.4234],[3.67462,11.07163],[-1.4792,-8.79521]],[[474.94373,263.70103],[0.82825,8.74032],[-0.94321,-9.95346]],[[472.22999,231.96604],[2.64743,9.58905],[-0.94056,-3.40672]],[[469.42222,222.26969],[0.59972,3.64386],[-0.00838,-9.04455]],[[465.0332,196.53251],[1.36357,8.79715],[-0.7684,-4.95739]],[[463.96126,180.14861],[1.34324,4.67672],[-3.41313,-11.88341]],[[457.84428,143.85769],[2.10295,12.25724],[-1.18163,-6.90316]],[[455.16212,122.36454],[1.80095,6.66625],[-5.31077,-19.6579]],[[453.44501,63.0581],[-5.18471,20.03594],[0.00271,-0.64243]],[[453.55973,61.18821],[-0.07138,0.60633],[-1.53088,1.61199]],[[449.27711,65.06784],[1.12372,-0.84636],[-3.01767,2.27283]],[[437.29099,70.46006],[2.33853,-2.55774],[-5.53277,6.05139]],[[417.47002,90.81237],[7.40478,-4.22936],[-10.8534,18.3081]]],&quot;closed&quot;:true}]}" fill="#d1e7b5"/></g></g></g></svg>