<svg version="1.1" xmlns="http://www.w3.org/2000/svg" xmlns:xlink="http://www.w3.org/1999/xlink" width="1733.09309" height="836.33634" viewBox="0,0,1733.09309,836.33634"><g transform="translate(546.54655,238.16817)"><g data-paper-data="{&quot;isPaintingLayer&quot;:true}" stroke-linejoin="miter" stroke-miterlimit="10" stroke-dasharray="" stroke-dashoffset="0" style="mix-blend-mode: normal"><path d="M-546.54655,598.16817v-836.33634h1733.09309v836.33634z" fill="none" fill-rule="nonzero" stroke="#f00000" stroke-width="0" stroke-linecap="butt"/><g fill-rule="nonzero" stroke-width="1"><path d="M356.92788,266.09208l-20.89513,-32.83644l99.252,0.29059l35.5218,32.54585z" fill="#cedce9" stroke="#000000" stroke-linecap="round"/><path d="M480.2473,264.38569c-2.68619,0.35993 -5.32708,0.5659 -7.94144,0.71438c0.01769,0.0553 0.02686,0.11296 0.02686,0.17313c0,1.46554 -5.46884,1.46554 -5.46884,1.46554c-24.15416,0 -48.30821,0 -72.46229,0c-6.2155,0 -21.68147,-0.66489 -26.26572,0.21168c-2.64061,0.50491 -4.53103,0.45493 -7.91463,0.52109c-0.38191,0.00747 -1.07656,0.02344 -1.69032,0.03327c3.27182,0.62594 1.69032,6.41045 1.69032,8.0273c0,6.83929 0,13.67857 0,20.51785c0,1.22129 0,2.44262 0,3.6639c0,0.48849 -0.96185,1.88053 0,1.46554c3.65951,-1.57882 10.80116,-0.72996 19.14098,-0.73279c16.43955,-0.00558 34.03983,-0.4767 50.18599,0.31586c29.48404,1.58024 61.18403,-0.94449 90.4328,0.81613c24.63413,1.65036 54.12237,1.79909 79.50241,1.79909c6.3804,0 12.76068,0 19.14103,0c0.95996,0 2.46726,-0.03465 4.02785,-0.07262c-1.56984,-0.75181 0.0738,-2.5699 0.0738,-3.59128c0,-3.81565 4.77285,-10.3976 -1.0865,-13.82575c-5.17793,-4.16279 -8.45335,-8.17071 -16.89964,-12.32224c-6.23191,-3.06317 -15.93323,-5.7784 -21.08952,-8.82115c-2.49977,-1.81347 -4.73763,-0.51739 -12.87832,-0.93709c-18.01326,-0.92868 -36.07966,-0.73279 -54.68852,-0.73279c-6.7831,0 -15.30204,0.36907 -21.87547,0c-1.38759,-0.07791 -3.99534,-0.36749 -5.95002,-0.60469c3.57519,0.74022 -4.58283,1.45623 -8.01081,1.91556zM394.40122,263.80763c18.25493,0 36.50982,0 54.76472,0c0.52665,-0.07056 1.05313,-0.14112 1.57972,-0.21168c6.93626,-0.9294 13.19856,-0.6831 19.14103,-1.09917c8.09836,-0.56701 12.94243,-2.47657 21.29808,-2.93111c4.79994,-0.26112 18.09436,0.57806 24.89847,0.57806c18.44963,0 36.8791,-0.2827 54.68854,0.73279c10.00467,0.57046 18.45974,-0.54166 23.13842,2.85253c0.68977,1.28935 6.21011,2.09521 9.09742,3.08706c4.41248,1.51578 8.10056,3.76065 11.51503,5.43891c8.4644,4.16043 12.18617,8.43963 17.49319,12.70617c4.74271,4.49731 1.64791,10.07411 1.64791,14.75266c0,2.58659 1.52121,4.40961 -5.46883,6.59503c-2.43748,0.76209 -24.95647,0 -28.71146,0c-26.17831,0 -56.76583,-0.18568 -82.15522,-1.88666c-27.89252,-2.18485 -61.09446,0.75968 -89.92506,-0.78553c-23.23288,-1.40238 -59.09363,2.33342 -78.11958,-2.4573c-1.88366,-0.47432 0,-4.34848 0,-5.12946c0,-6.83929 0,-13.67857 0,-20.51785c0,-2.28663 -3.76138,-7.74605 1.94463,-9.44881c9.95734,-2.97147 28.59261,-2.27569 43.1733,-2.27569z" data-paper-data="{&quot;index&quot;:null}" fill="#000000" stroke="none" stroke-linecap="butt"/><path d="M472.22959,265.02969c2.61435,-0.14849 5.28704,-0.35637 7.97336,-0.71632c3.42798,-0.45932 11.6184,-1.17624 8.04314,-1.91642c1.95463,0.23718 4.58416,0.52675 5.97162,0.60468c6.57345,0.36907 15.16874,0.00367 21.95162,0.00367c18.60877,0 36.79249,-0.17537 54.80567,0.75332c8.14069,0.41969 10.39553,-0.87083 12.89531,0.94264c5.15631,3.04273 14.89858,5.77981 21.1306,8.84298c8.44629,4.15151 11.73299,8.18726 16.91088,12.35003c5.85942,3.42817 1.06087,10.03548 1.06087,13.85114c0,1.02138 -1.65387,2.84465 -0.08399,3.59647c-1.5605,0.03797 -3.06986,0.07356 -4.02991,0.07356c-6.38035,0 -12.77182,0.0046 -19.15217,0.0046c-25.38018,0 -54.98819,-0.12321 -79.62229,-1.7736c-29.24878,-1.76063 -61.23854,0.7499 -90.7226,-0.83033c-16.14616,-0.79257 -33.79623,-0.33817 -50.23578,-0.3326c-8.33976,0.00283 -15.48793,-0.84917 -19.14742,0.72964c-0.96185,0.41498 -0.00413,-0.97924 -0.00413,-1.46775c0,-1.22129 -0.00938,-2.44855 -0.00938,-3.66982c0,-6.83929 -0.01139,-13.71925 -0.01139,-20.55854c0,-1.61685 1.59813,-7.41539 -1.67373,-8.04134c0.61384,-0.00984 1.30898,-0.02621 1.69094,-0.03368c3.38347,-0.06616 5.27825,-0.01863 7.91877,-0.52354c4.58423,-0.87656 20.06423,-0.21848 26.27975,-0.21848c24.1542,0 48.43701,-0.02915 72.59109,-0.02915c0,0 5.49569,-0.00252 5.49569,-1.46806c0,-0.06016 -0.00851,-0.11786 -0.02625,-0.17317z" data-paper-data="{&quot;noHover&quot;:false,&quot;origItem&quot;:[&quot;Path&quot;,{&quot;applyMatrix&quot;:true,&quot;segments&quot;:[[[579.60736,595.76373],[0.95609,-0.20262],[0.00646,0.07548]],[[579.61718,596],[0,-0.08208],[0,2]],[[577.61718,598],[0,0],[-8.83333,0]],[[551.11718,598],[8.83333,0],[-2.27308,0]],[[541.51161,598.28885],[1.67648,-1.19621],[-0.96568,0.68904]],[[538.61718,599],[1.23739,-0.09027],[-0.13966,0.01019]],[[537.99901,599.04541],[0.22447,-0.0134],[1.19653,0.85421]],[[538.61718,610],[0,-2.20646],[0,9.33333]],[[538.61718,638],[0,-9.33333],[0,1.66667]],[[538.61718,643],[0,-1.66667],[0,0.66667]],[[538.61718,645],[-0.35177,0.56631],[1.33831,-2.15456]],[[545.61718,644],[-3.04994,0.00386],[6.01206,-0.00761]],[[563.97058,644.43107],[-5.90478,-1.08158],[10.78253,2.15651]],[[597.04254,645.54479],[-10.6965,-2.40266],[9.00888,2.25222]],[[626.11718,648],[-9.28168,0],[2.33333,0]],[[633.11718,648],[-2.33333,0],[0.35109,0]],[[634.59021,647.90091],[-0.5707,0.05184],[-0.57412,-1.02596]],[[634.61718,643],[0,1.39387],[0,-5.20707]],[[634.21982,624.13246],[2.14282,4.67827],[-1.8936,-5.6808]],[[628.03948,607.31672],[3.08887,5.66543],[-2.2791,-4.1802]],[[620.32688,595.27881],[1.8857,4.15235],[-0.91417,-2.47477]],[[615.61718,594],[2.9771,0.57275],[-6.58756,-1.26734]],[[595.61718,593],[6.8054,0],[-2.48058,0]],[[587.61718,593],[2.40395,0.50364],[-0.50743,-0.10631]],[[585.44122,592.1748],[0.71481,0.32365],[1.30749,1.01011]],[[582.51161,594.78885],[1.25365,-0.62682],[-0.98239,0.4912]]],&quot;closed&quot;:true}],&quot;index&quot;:null}" fill="#484848" stroke="none" stroke-linecap="butt"/><path d="M548.89659,270.40253c0,-0.16995 -0.0757,-0.45454 -0.1481,-0.73413c-0.2817,0.11347 -0.70183,0.21017 -1.24222,0.29245c-1.62036,0.44164 -4.07855,0.44166 -4.07855,0.44166c-20.83093,0 -32.86257,3.89061 -40.22655,7.98324c-0.86631,0.46434 -0.78977,1.02379 -0.78977,1.54291c0,0.1477 -0.05277,0.38244 -0.11034,0.62525c0.05507,-0.07814 0.1926,-0.14238 0.47253,-0.18363c1.2369,-0.1822 11.99034,0.93275 13.30987,0.2912c0.39657,-0.1928 -1.94504,-0.22913 -1.8159,-0.44655c1.58834,-2.673 18.43368,-6.71613 26.71445,-7.82569c2.14775,-0.28778 4.56542,-0.43256 6.96893,-0.49887c-0.93971,-0.39219 0.94564,-0.99248 0.94564,-1.48777zM502.2722,280.67523c-0.12404,0.52103 -0.23414,1.01909 0.13912,0.71902c0.25513,-0.20505 -0.11315,-0.4929 -0.13912,-0.71902zM493.41825,277.07492c7.81613,-3.94869 18.21138,-7.54909 34.41109,-8.96619c1.52179,-0.63729 4.6607,-0.63729 4.6607,-0.63729h2.7344c6.19156,0 9.46729,-0.57803 16.11789,-0.57803c9.23609,0 11.37705,4.92165 6.5473,6.36294c-3.04773,0.9095 -7.93637,1.20791 -12.0162,1.75459c-12.07636,1.61813 -16.5573,6.26803 -29.78997,8.58167c-14.02499,2.45217 -29.46542,-2.87298 -22.66524,-6.51765z" data-paper-data="{&quot;index&quot;:null}" fill="#000000" stroke="none" stroke-linecap="butt"/><path d="M548.95174,269.61937c0.07257,0.27958 0.16095,0.56824 0.16095,0.73819c0,0.49528 -1.86289,1.10461 -0.92321,1.49683c-2.40354,0.06629 -4.8351,0.20512 -6.98288,0.49292c-8.28086,1.10958 -25.20752,5.13219 -26.79581,7.80517c-0.1293,0.21743 1.95264,0.38246 1.55604,0.57528c-1.31953,0.64153 -12.16607,-0.49268 -13.40305,-0.31049c-0.28004,0.04126 -0.41622,0.10586 -0.47121,0.18406c0.05759,-0.24283 0.10019,-0.48092 0.10019,-0.62862c0,-0.51912 -0.10043,-1.08876 0.76594,-1.5531c7.36392,-4.09265 19.82986,-8.0693 40.66074,-8.0693c0,0 2.46935,0.00313 4.08968,-0.43852c0.54037,-0.08229 0.96081,-0.179 1.24234,-0.29244z" data-paper-data="{&quot;noHover&quot;:false,&quot;origItem&quot;:[&quot;Path&quot;,{&quot;applyMatrix&quot;:true,&quot;segments&quot;:[[[607.563,601.99816],[0.02649,0.38155],[-0.10299,0.15484]],[[607.10872,602.39727],[0.1976,-0.11227],[-0.59254,0.60273]],[[605.61718,603],[0,0],[-7.618,0]],[[590.90604,613.89443],[2.69308,-5.58508],[-0.31682,0.63364]],[[590.61718,616],[0,-0.70843],[0,0.20156]],[[590.57685,616.85325],[0.02106,-0.33136],[0.02013,-0.10671]],[[590.74964,616.60263],[-0.10238,0.05628],[0.45234,-0.24865]],[[595.61718,617],[-0.48256,0.87548],[0.14503,-0.26312]],[[594.95308,616.3906],[-0.04725,0.29671],[0.58086,-3.64773]],[[604.72276,605.71115],[-3.02833,1.51416],[0.78545,-0.39273]],[[607.27135,605.03032],[-0.87898,0.0905],[-0.34365,-0.53523]],[[607.61718,603],[0,0.6759],[0,-0.23192]]],&quot;closed&quot;:true}],&quot;index&quot;:null}" fill="#ffffff" stroke="none" stroke-linecap="butt"/></g><g fill-rule="nonzero" stroke-width="1"><path d="M143.14927,275.73364l35.52176,-32.54586l99.25206,-0.29059l-20.89514,32.83645z" data-paper-data="{&quot;index&quot;:null}" fill="#cedce9" stroke="#000000" stroke-linecap="round"/><path d="M133.70845,274.02711c-3.42797,-0.45934 -11.58601,-1.17537 -8.01081,-1.91556c-1.95466,0.2372 -4.56243,0.52679 -5.95002,0.60469c-6.57344,0.36907 -15.0924,0 -21.87548,0c-18.6089,0 -36.67528,-0.19591 -54.68853,0.73279c-8.14066,0.4197 -10.37852,-0.87638 -12.87829,0.93709c-5.1563,3.04278 -14.85757,5.75799 -21.0895,8.82116c-8.44631,4.15153 -11.72177,8.15948 -16.89965,12.32225c-5.85931,3.42813 -1.08652,10.0101 -1.08652,13.82575c0,1.02138 1.64367,2.83947 0.07383,3.59128c1.56058,0.03799 3.06788,0.07263 4.02786,0.07263c6.38036,0 12.76064,0 19.14103,0c25.38,0 54.86831,-0.14873 79.50241,-1.7991c29.24874,-1.76062 60.94879,0.76412 90.43281,-0.81611c16.14617,-0.79255 33.74649,-0.32143 50.18604,-0.31585c8.33979,0.00284 15.48149,-0.84603 19.14099,0.73278c0.96185,0.41499 0,-0.97703 0,-1.46554c0,-1.22127 0,-2.44263 0,-3.6639c0,-6.83929 0,-13.67856 0,-20.51784c0,-1.61685 -1.58152,-7.40136 1.6903,-8.0273c-0.61372,-0.00982 -1.30834,-0.0258 -1.6903,-0.03328c-3.38359,-0.06616 -5.27403,-0.01618 -7.91464,-0.52109c-4.58423,-0.87657 -20.05014,-0.21168 -26.26569,-0.21168c-24.15412,0 -48.30818,0 -72.4623,0c0,0 -5.46883,0 -5.46883,-1.46554c0,-0.06016 0.00917,-0.11784 0.02686,-0.17313c-2.61441,-0.1485 -5.25524,-0.35444 -7.94146,-0.71438zM219.5544,273.4491c14.58066,0 33.21595,-0.69577 43.1733,2.27569c5.70595,1.70276 1.94463,7.16219 1.94463,9.44881c0,6.83929 0,13.67854 0,20.51783c0,0.78098 1.88366,4.65514 0,5.12947c-19.02596,4.79073 -54.88675,1.05494 -78.11958,2.4573c-28.8306,1.54521 -62.03253,-1.39933 -89.9251,0.78551c-25.38944,1.701 -55.97692,1.88665 -82.15522,1.88665c-3.75499,0 -26.27388,0.76209 -28.71144,0c-6.99003,-2.18542 -5.46883,-4.00845 -5.46883,-6.59503c0,-4.67855 -3.09481,-10.2554 1.64784,-14.75268c5.30702,-4.26656 9.02877,-8.54573 17.49317,-12.70617c3.41443,-1.67824 7.1025,-3.92313 11.51503,-5.4389c2.88733,-0.99183 8.40769,-1.7977 9.09743,-3.08704c4.67869,-3.3942 13.13381,-2.28207 23.13842,-2.85253c17.80943,-1.01551 36.23885,-0.73279 54.68851,-0.73279c6.80412,0 20.0985,-0.83916 24.89849,-0.57806c8.35565,0.45455 13.19969,2.36412 21.29808,2.93112c5.94246,0.41606 12.20472,0.16976 19.14103,1.09916c0.52657,0.07058 1.05305,0.14112 1.57968,0.21168c18.25487,0 36.50984,0 54.76474,0z" data-paper-data="{&quot;index&quot;:null}" fill="#000000" stroke="none" stroke-linecap="butt"/><path d="M141.726,274.67118c-0.01772,0.0553 -0.02623,0.11301 -0.02623,0.17317c0,1.46556 5.49569,1.46806 5.49569,1.46806c24.15407,0 48.43687,0.02913 72.59108,0.02913c6.21553,0 21.6955,-0.65805 26.27975,0.21849c2.64055,0.50493 4.53529,0.45741 7.91877,0.52354c0.38192,0.00747 1.07712,0.02382 1.69094,0.03365c-3.27186,0.62595 -1.67372,6.42449 -1.67372,8.04134c0,6.83929 -0.01141,13.71926 -0.01141,20.55854c0,1.2213 -0.00934,2.44856 -0.00934,3.66983c0,0.48851 0.95772,1.88273 -0.00413,1.46776c-3.65948,-1.5788 -10.80771,-0.72681 -19.14742,-0.72964c-16.43956,-0.00558 -34.08966,-0.45999 -50.23579,0.33259c-29.48406,1.58025 -61.47383,-0.93027 -90.7226,0.83033c-24.6341,1.65039 -54.24211,1.77359 -79.6223,1.77359c-6.38037,0 -12.77183,-0.0046 -19.15219,-0.0046c-0.96006,0 -2.46941,-0.03558 -4.02992,-0.07356c1.56986,-0.75183 -0.08399,-2.57508 -0.08399,-3.59646c0,-3.81565 -4.79853,-10.42297 1.06091,-13.85112c5.17794,-4.16279 8.46458,-8.19854 16.91089,-12.35007c6.23203,-3.06318 15.97424,-5.80023 21.13058,-8.84298c2.49975,-1.81346 4.75459,-0.52296 12.89524,-0.94266c18.01319,-0.92866 36.1969,-0.75331 54.80567,-0.75331c6.78296,0 15.37818,0.36539 21.95162,-0.00367c1.38746,-0.07792 4.01697,-0.3675 5.97163,-0.60468c-3.57529,0.74018 4.61512,1.45709 8.04315,1.91641c2.68633,0.35993 5.35902,0.56783 7.97335,0.71632z" data-paper-data="{&quot;noHover&quot;:false,&quot;origItem&quot;:[&quot;Path&quot;,{&quot;applyMatrix&quot;:true,&quot;segments&quot;:[[[579.60736,595.76373],[0.95609,-0.20262],[0.00646,0.07548]],[[579.61718,596],[0,-0.08208],[0,2]],[[577.61718,598],[0,0],[-8.83333,0]],[[551.11718,598],[8.83333,0],[-2.27308,0]],[[541.51161,598.28885],[1.67648,-1.19621],[-0.96568,0.68904]],[[538.61718,599],[1.23739,-0.09027],[-0.13966,0.01019]],[[537.99901,599.04541],[0.22447,-0.0134],[1.19653,0.85421]],[[538.61718,610],[0,-2.20646],[0,9.33333]],[[538.61718,638],[0,-9.33333],[0,1.66667]],[[538.61718,643],[0,-1.66667],[0,0.66667]],[[538.61718,645],[-0.35177,0.56631],[1.33831,-2.15456]],[[545.61718,644],[-3.04994,0.00386],[6.01206,-0.00761]],[[563.97058,644.43107],[-5.90478,-1.08158],[10.78253,2.15651]],[[597.04254,645.54479],[-10.6965,-2.40266],[9.00888,2.25222]],[[626.11718,648],[-9.28168,0],[2.33333,0]],[[633.11718,648],[-2.33333,0],[0.35109,0]],[[634.59021,647.90091],[-0.5707,0.05184],[-0.57412,-1.02596]],[[634.61718,643],[0,1.39387],[0,-5.20707]],[[634.21982,624.13246],[2.14282,4.67827],[-1.8936,-5.6808]],[[628.03948,607.31672],[3.08887,5.66543],[-2.2791,-4.1802]],[[620.32688,595.27881],[1.8857,4.15235],[-0.91417,-2.47477]],[[615.61718,594],[2.9771,0.57275],[-6.58756,-1.26734]],[[595.61718,593],[6.8054,0],[-2.48058,0]],[[587.61718,593],[2.40395,0.50364],[-0.50743,-0.10631]],[[585.44122,592.1748],[0.71481,0.32365],[1.30749,1.01011]],[[582.51161,594.78885],[1.25365,-0.62682],[-0.98239,0.4912]]],&quot;closed&quot;:true}],&quot;index&quot;:null}" fill="#484848" stroke="none" stroke-linecap="butt"/><path d="M65.05927,280.04418c0,0.4953 1.88532,1.09559 0.94564,1.48778c2.40351,0.06629 4.82123,0.21108 6.96891,0.49887c8.28077,1.10958 25.12611,5.15272 26.71449,7.8257c0.12915,0.21741 -2.21247,0.25373 -1.81592,0.44655c1.31954,0.64156 12.07291,-0.47337 13.30988,-0.29118c0.2799,0.04121 0.41738,0.10545 0.47247,0.18363c-0.05758,-0.24281 -0.11028,-0.47754 -0.11028,-0.62525c0,-0.51914 0.07655,-1.07858 -0.78979,-1.54291c-7.36402,-4.09265 -19.39558,-7.98324 -40.2265,-7.98324c0,0 -2.45822,-0.00001 -4.07855,-0.44166c-0.54032,-0.08226 -0.96054,-0.17902 -1.24222,-0.29246c-0.0724,0.27959 -0.14816,0.56418 -0.14816,0.73413zM111.5445,291.03582c0.37322,0.30006 0.26316,-0.19799 0.13914,-0.71902c-0.02595,0.22612 -0.39427,0.51398 -0.13914,0.71902zM120.53747,286.71654c6.8002,3.64463 -8.64021,8.96979 -22.66518,6.51765c-13.23266,-2.31364 -17.71354,-6.96356 -29.78996,-8.58168c-4.0798,-0.54668 -8.96846,-0.8451 -12.0162,-1.75459c-4.82972,-1.44132 -2.68876,-6.36294 6.5473,-6.36294c6.65062,0 9.9263,0.57805 16.1179,0.57805h2.73441c0,0 3.13898,0.00002 4.66069,0.63729c16.19968,1.4171 26.59495,5.01751 34.41108,8.96619z" data-paper-data="{&quot;index&quot;:null}" fill="#000000" stroke="none" stroke-linecap="butt"/><path d="M65.0045,279.26091c0.28156,0.11347 0.70195,0.21016 1.24233,0.29243c1.62032,0.44166 4.08968,0.43851 4.08968,0.43851c20.83088,0 33.29678,3.97664 40.66073,8.0693c0.86631,0.46432 0.76593,1.03397 0.76593,1.55308c0,0.1477 0.04261,0.38582 0.10019,0.62863c-0.05498,-0.07822 -0.19117,-0.14281 -0.4712,-0.18407c-1.23696,-0.18217 -12.08353,0.95204 -13.40306,0.31049c-0.39659,-0.19282 1.68532,-0.35785 1.55605,-0.57529c-1.58834,-2.67299 -18.51494,-6.6956 -26.79581,-7.80516c-2.14777,-0.28779 -4.57932,-0.42661 -6.98286,-0.49293c0.9397,-0.39221 -0.92321,-1.00153 -0.92321,-1.49682c0,-0.16995 0.08837,-0.45861 0.16095,-0.7382z" data-paper-data="{&quot;noHover&quot;:false,&quot;origItem&quot;:[&quot;Path&quot;,{&quot;applyMatrix&quot;:true,&quot;segments&quot;:[[[607.563,601.99816],[0.02649,0.38155],[-0.10299,0.15484]],[[607.10872,602.39727],[0.1976,-0.11227],[-0.59254,0.60273]],[[605.61718,603],[0,0],[-7.618,0]],[[590.90604,613.89443],[2.69308,-5.58508],[-0.31682,0.63364]],[[590.61718,616],[0,-0.70843],[0,0.20156]],[[590.57685,616.85325],[0.02106,-0.33136],[0.02013,-0.10671]],[[590.74964,616.60263],[-0.10238,0.05628],[0.45234,-0.24865]],[[595.61718,617],[-0.48256,0.87548],[0.14503,-0.26312]],[[594.95308,616.3906],[-0.04725,0.29671],[0.58086,-3.64773]],[[604.72276,605.71115],[-3.02833,1.51416],[0.78545,-0.39273]],[[607.27135,605.03032],[-0.87898,0.0905],[-0.34365,-0.53523]],[[607.61718,603],[0,0.6759],[0,-0.23192]]],&quot;closed&quot;:true}],&quot;index&quot;:null}" fill="#ffffff" stroke="none" stroke-linecap="butt"/></g><path d="M86.34042,297.93099c2.02733,0.11723 4.13117,0.1563 6.31074,0.1184c-2.17445,0.15629 -4.40965,0.15629 -6.70517,0c0.04891,-0.07222 0.18024,-0.11129 0.39442,-0.1184z" fill="#3f8ac8" fill-rule="evenodd" stroke="none" stroke-width="1" stroke-linecap="butt"/><g><path d="M569.6185,220.40674l-178.12549,25.93263l-185.06404,46.5151l-231.73428,16.06655l-13.90524,-114.86716l4.46371,1.1027l223.79573,-21.76071l73.65356,-66.18479l-3.43883,-30.282l70.61342,-69.27216l95.81258,31.7706l106.1342,-25.73802l35.61422,200.99806z" data-paper-data="{&quot;index&quot;:null}" fill="#7a8a96" fill-rule="nonzero" stroke="#000000" stroke-width="0" stroke-linecap="round"/><path d="M427.82275,148.7942l6.43252,40.5115l-33.1705,3.40043l-4.70482,-38.65303z" data-paper-data="{&quot;index&quot;:null}" fill="#44535b" fill-rule="nonzero" stroke="#000000" stroke-width="0" stroke-linecap="round"/><path d="M471.97832,233.72425l-14.80272,-89.10053l74.29462,-11.99429l14.81303,91.47872z" data-paper-data="{&quot;index&quot;:null}" fill="#bacedc" fill-rule="nonzero" stroke="#000000" stroke-width="0" stroke-linecap="round"/><path d="M535.82409,216.83597l-24.06392,2.51935l-11.10634,-72.03003l22.99703,-3.86844z" data-paper-data="{&quot;index&quot;:null}" fill="#44535b" fill-rule="nonzero" stroke="#000000" stroke-width="0" stroke-linecap="round"/><path d="M490.46315,151.32105l12.77552,68.83961l-21.64788,2.80155l-13.90783,-68.39564l20.14736,-2.90479z" data-paper-data="{&quot;index&quot;:null}" fill="#44535b" fill-rule="nonzero" stroke="#000000" stroke-width="0" stroke-linecap="round"/><path d="M373.07455,21.6602l-42.56607,38.82179l-8.66606,-7.20676l38.84913,-35.36637l-30.77861,-10.29386l-78.62061,77.39576l-5.91962,-6.66986l80.69073,-80.93548l105.51037,31.55612l118.69858,-32.01785l-3.38311,12.93023l-121.34175,29.9804z" data-paper-data="{&quot;index&quot;:null}" fill="#bacedc" fill-rule="nonzero" stroke="#000000" stroke-width="0" stroke-linecap="round"/><path d="M288.08603,73.40803l101.58013,70.1369l-3.95097,8.54216l-98.41723,-66.38208l-97.39902,88.00552l-240.13764,22.74896l-5.59957,-8.79337l243.26955,-26.12866z" data-paper-data="{&quot;index&quot;:null}" fill="#bacedc" fill-rule="nonzero" stroke="#000000" stroke-width="0" stroke-linecap="round"/><path d="M292.09811,76.82986l33.70738,-6.14685l4.08874,31.59422z" data-paper-data="{&quot;index&quot;:null}" fill="#44535b" fill-rule="nonzero" stroke="#000000" stroke-width="0" stroke-linecap="round"/><path d="M410.88018,47.18073l8.15683,58.43212l-55.17633,8.03292l-5.86124,-52.18555z" data-paper-data="{&quot;index&quot;:null}" fill="#44535b" fill-rule="nonzero" stroke="#000000" stroke-width="0" stroke-linecap="round"/><path d="M91.72908,301.15203l-12.47619,-101.00171l93.81216,-8.27394l12.15612,103.12522z" data-paper-data="{&quot;index&quot;:null}" fill="#b2cbe4" fill-rule="nonzero" stroke="#000000" stroke-width="0" stroke-linecap="round"/><path d="M-7.50019,308.93727l-11.66395,-99.32221l73.0694,-7.67159l9.55079,101.38029z" data-paper-data="{&quot;index&quot;:null}" fill="#b2cbe4" fill-rule="nonzero" stroke="#000000" stroke-width="0" stroke-linecap="round"/><path d="M187.6695,161.4926l-242.41662,26.70001l79.3007,-68.66455l262.6726,-43.92189z" data-paper-data="{&quot;index&quot;:null}" fill="#7c7980" fill-rule="nonzero" stroke="#000000" stroke-width="0" stroke-linecap="round"/><path d="M283.7074,142.8989c0.64228,1.95864 0.90216,3.96677 0.77963,6.02435c-0.19137,0.02476 -0.29913,-0.05756 -0.324,-0.24973c0.04373,-1.89576 -0.10838,-3.82156 -0.45564,-5.7746z" fill="#762280" fill-rule="evenodd" stroke="none" stroke-width="1" stroke-linecap="butt"/><path d="M340.91462,149.09135c9.34465,1.87389 17.07731,3.78761 23.07182,11.45998c1.13558,10.32142 -0.47633,26.05804 -7.72201,33.72803c-4.45671,4.71769 -13.15813,6.48392 -19.25132,7.36999c-6.25974,-1.85083 -13.56646,-1.29616 -19.4754,-4.27264c-17.34938,-8.73936 -6.08207,-30.98008 -1.00046,-43.81966c2.44239,-2.10116 4.7828,-4.51314 8.0365,-5.39182c5.07848,-1.37149 11.34423,-0.07586 16.3409,0.9261z" data-paper-data="{&quot;noHover&quot;:false,&quot;origItem&quot;:[&quot;Path&quot;,{&quot;applyMatrix&quot;:true,&quot;segments&quot;:[[[406.14717,159.05569],[5.60953,-9.47503],[0.22451,11.74087]],[[419.66913,195.65088],[-9.2397,-7.55065],[5.68318,4.64428]],[[442.25922,201.10268],[-6.96247,-0.10939],[6.752,-2.98437]],[[463.41992,193.51437],[-6.19515,4.19594],[18.18978,-12.31984]],[[458.19452,144.37231],[7.5629,13.66271],[-3.04423,-2.00207]],[[448.42883,139.50686],[3.77675,0.51324],[-5.89486,-0.80108]],[[430.29576,142.91704],[5.45859,-1.84902],[-10.20854,3.458]]],&quot;closed&quot;:true}],&quot;index&quot;:null}" fill="#ffffff" fill-rule="nonzero" stroke="none" stroke-width="0.5" stroke-linecap="butt"/><path d="M292.95248,141.96222c0,0 0.21182,0.16348 0.53271,0.28062c2.54143,2.89057 3.89398,7.10945 5.81423,10.38638c4.61895,11.83424 0.8937,24.9398 -7.61209,33.82465c-1.76942,1.84828 -2.38135,4.34274 -4.63224,5.69442c-3.22494,1.93661 -8.70735,2.08275 -12.33622,2.0678c-5.87861,0.00094 -13.16912,-0.96086 -18.29705,-4.07434c-13.484,-8.18691 -19.38356,-26.4565 -13.66791,-40.78024c7.67526,-5.39354 15.04796,-11.80626 24.56067,-13.78292c4.18862,-0.87034 9.26152,0.77703 13.37904,1.51303c3.48555,0.62305 6.83161,1.53041 9.83711,3.24491c0.33393,0.68403 0.99831,0.85525 1.41881,0.88939c0.33814,0.23202 0.67424,0.47868 1.00294,0.73627z" data-paper-data="{&quot;noHover&quot;:false,&quot;origItem&quot;:[&quot;Path&quot;,{&quot;applyMatrix&quot;:true,&quot;segments&quot;:[[[241.27219,64.15942],[0.17145,-0.08897],[-1.2154,1.8054]],[[238.77424,70.38902],[0.83902,-1.97698],[-1.73136,6.97159]],[[245.47937,88.75007],[-5.41465,-4.36514],[1.12638,0.90806]],[[248.48009,91.60141],[-1.36034,-0.59463],[1.94901,0.85196]],[[255.52803,91.86179],[-2.0339,0.27174],[3.29666,-0.4261]],[[265.46265,88.25978],[-2.64968,2.11811],[6.96736,-5.5696]],[[270.1583,64.46817],[4.24471,7.61762],[-4.69554,-2.46756]],[[255.42503,58.54189],[5.47796,0.4181],[-2.41205,-0.18409]],[[248.0543,60.35629],[2.2556,-0.71156],[-1.9094,0.60234]],[[242.78699,62.88011],[1.56099,-1.17956],[-0.13762,0.40783]],[[242.05771,63.47991],[0.23333,-0.04966],[-0.17278,0.15465]],[[241.54998,63.9641],[0.16564,-0.1683],[0,0]]],&quot;closed&quot;:true}],&quot;index&quot;:null}" fill="#ffffff" fill-rule="nonzero" stroke="none" stroke-width="0.5" stroke-linecap="butt"/><path d="M356.67524,175.15742c-2.17944,0.28205 -4.17485,-1.25608 -4.4569,-3.4355c-0.28205,-2.17944 1.25607,-4.17485 3.4355,-4.4569c2.17944,-0.28205 4.17485,1.25607 4.4569,3.4355c0.28205,2.17944 -1.25607,4.17485 -3.4355,4.4569z" data-paper-data="{&quot;index&quot;:null}" fill="#000000" fill-rule="nonzero" stroke="none" stroke-width="0.5" stroke-linecap="butt"/><path d="M295.37349,167.83097c-2.17944,0.28205 -4.17485,-1.25607 -4.4569,-3.4355c-0.28205,-2.17944 1.25607,-4.17485 3.4355,-4.4569c2.17944,-0.28205 4.17485,1.25608 4.4569,3.4355c0.28205,2.17944 -1.25607,4.17485 -3.4355,4.4569z" data-paper-data="{&quot;index&quot;:null}" fill="#000000" fill-rule="nonzero" stroke="none" stroke-width="0.5" stroke-linecap="butt"/><path d="M411.0775,49.93626c1.40067,1.07966 0.32099,2.48034 0.32099,2.48034l-0.79527,0.88306c-6.72661,4.52674 -11.9817,9.33054 -17.96866,14.69679c-10.76246,9.64667 -23.82644,17.36584 -35.43702,25.99221c-14.06458,15.18128 -27.78212,30.88687 -42.7265,45.19714c0,0 -1.27731,1.22313 -2.50044,-0.0542c-1.22312,-1.27731 0.05421,-2.50042 0.05421,-2.50042c14.982,-14.3463 28.61949,-30.14514 42.81224,-45.2766c11.5859,-8.68051 24.68743,-16.34716 35.45305,-26.00649c6.08768,-5.46212 11.49767,-10.37932 18.33837,-14.98285l-0.03134,-0.108c0,0 1.07966,-1.40067 2.48034,-0.32099z" data-paper-data="{&quot;index&quot;:null}" fill="#000000" fill-rule="nonzero" stroke="none" stroke-width="0.5" stroke-linecap="butt"/><path d="M163.52713,67.84733c0.49468,-1.69791 2.19258,-1.2032 2.19258,-1.2032l2.24283,0.6581c2.76246,1.25246 5.17004,1.93029 8.10237,2.74609c22.31223,6.2075 46.58933,13.35804 67.30066,23.77986c17.93655,9.02557 36.62041,17.61627 52.28546,30.35485c0,0 1.3721,1.11576 0.25632,2.48784c-1.11576,1.3721 -2.48785,0.25632 -2.48785,0.25632c-15.4611,-12.57275 -33.94119,-21.03165 -51.64377,-29.93948c-20.5065,-10.31873 -44.56714,-17.38565 -66.65886,-23.53183c-2.99212,-0.83244 -5.55827,-1.55808 -8.38197,-2.83656l-2.00457,-0.57942c0,0 -1.69791,-0.49468 -1.2032,-2.19258z" data-paper-data="{&quot;index&quot;:null}" fill="#000000" fill-rule="nonzero" stroke="none" stroke-width="0.5" stroke-linecap="butt"/><path d="M261.89209,253.67585c0.98819,-0.15322 1.14141,0.83497 1.14141,0.83497l0.0609,0.39279c0.25532,2.48724 -0.90092,4.0952 -3.24055,2.07182c-1.19057,-1.02965 -1.30327,-2.6601 -1.41099,-4.10771c-0.89276,-5.8387 -3.99794,-10.0939 -6.79322,-15.03993c-2.57505,-4.55638 -1.74611,-12.2629 -0.64531,-17.10529c0.2401,-2.60818 0.62685,-6.63266 1.86023,-8.97503c2.37817,-4.51649 6.22093,-7.35113 10.05158,-10.48854c3.58613,-2.93714 7.13636,-5.44898 11.55382,-6.90963c12.30343,-3.66662 26.28874,-6.18592 39.16114,-4.82662c4.02842,0.43555 7.44265,2.4741 11.29673,3.59115c9.52561,2.76085 17.11868,7.94877 23.56952,15.47124c3.79556,5.28755 8.16718,10.38592 11.07016,16.24504c1.91907,3.87326 2.50161,8.91496 4.87565,12.42656c0,0 0.55323,0.83303 -0.2798,1.38626c-0.83303,0.55323 -1.38626,-0.2798 -1.38626,-0.2798c-2.40488,-3.67449 -3.02301,-8.65112 -5.00171,-12.64513c-2.84073,-5.73402 -7.14198,-10.71956 -10.85101,-15.89768c-6.18962,-7.20397 -13.43016,-12.13138 -22.55176,-14.78509c-3.71914,-1.08199 -7.07083,-3.12324 -10.95189,-3.52364c-12.59671,-1.33444 -26.31151,1.15747 -38.35112,4.7457c-6.21706,2.05646 -13.56632,7.10727 -17.42122,12.43701c-1.08835,1.50475 -2.92185,2.82906 -3.37626,4.72452c-0.57502,2.39857 -1.06858,5.14893 -1.29254,7.61722c-0.97554,4.28539 -1.97259,11.77622 0.41203,15.8092c3.03072,5.12568 6.08512,9.71696 7.03861,15.79845c0.04894,0.73245 1.32296,4.94873 0.68774,2.56638l-0.0609,-0.39279c0,0 -0.15322,-0.98819 0.83497,-1.14141z" fill="#000000" fill-rule="nonzero" stroke="none" stroke-width="0.5" stroke-linecap="butt"/></g><g data-paper-data="{&quot;index&quot;:null}" fill-rule="nonzero" stroke="none" stroke-width="0.5" stroke-linecap="butt"><path d="M233.9806,228.03214l0.64495,0.58627c1.86919,1.74164 2.47685,3.85592 3.89565,5.96332c0.00926,0.15701 0.02225,0.31427 0.03878,0.47172c0.0808,0.11386 0.16128,0.22761 0.24148,0.34124c0,0 0.46509,0.65932 0.03628,1.24818c0.95763,4.00099 3.73109,8.07178 5.03102,11.75196c0.70821,2.00497 -0.39066,4.61546 0.09703,6.74936c0.43109,1.88623 1.37835,3.77048 2.18404,5.66766l0.15131,-0.10673l0.91474,1.29676c0.2254,0.30803 0.28467,0.72464 0.11934,1.09886c-0.24636,0.5576 -0.8981,0.80991 -1.4557,0.56356c-0.07501,-0.03314 -0.1445,-0.07361 -0.20798,-0.12021l-1.13054,-0.79593l0.0153,-0.02174l-0.07016,-0.01949c-1.21794,-1.10363 -2.19539,-2.15201 -3.71621,-2.81582c-11.03183,-8.46943 -24.1097,-10.76302 -37.24915,-14.06913c-5.98403,-1.50804 -11.65741,-3.52761 -17.69937,-4.50618c-2.53289,-0.41023 -5.32968,-2.16888 -7.86261,-2.8545c-4.35072,-1.17766 -8.63048,-1.38624 -12.82316,-3.24342c-1.70808,-0.43355 -2.99226,-0.33098 -4.68378,-0.59091c-5.00946,-0.76981 -10.48921,-3.58314 -15.29675,-5.22852c-4.04873,-1.38567 -8.75797,-1.95913 -12.97415,-3.04682c-5.74538,-0.53455 -11.33831,-2.3634 -17.05254,-2.86102c-4.75218,-0.41384 -9.1657,-0.46785 -13.92277,-0.07891c-3.25872,0.26643 -6.38356,-1.2622 -9.47913,-1.9519c-4.61257,-1.64547 -8.38119,-1.45607 -13.05194,-2.18009c-4.04343,-0.62677 -8.01251,-2.08439 -12.12781,-1.99095c-2.37813,0.054 -6.07282,1.03647 -8.31035,0.49572c-0.7885,-0.19056 -1.84935,-0.37594 -2.15718,-1.12646c-0.38221,-0.93186 0.90204,-6.07053 1.0597,-7.28158c5.1523,-11.74261 2.25746,-24.77868 7.31281,-36.35809c0.96025,-3.19157 0.4487,-8.79709 2.70807,-11.37855c0.98093,-1.12077 4.45004,-1.82993 5.81612,-2.34173c2.75439,-1.03192 5.24156,0.29749 8.05145,0.55677c4.05162,0.37387 8.26071,-0.22809 12.22207,0.547c3.77506,0.6265 7.45907,0.61218 11.21846,1.05714c10.07788,1.19282 20.68513,3.78131 30.31936,6.92944c14.07417,4.60086 28.61761,10.84905 41.16031,18.77533c12.68624,8.04084 25.15662,16.40946 38.02862,24.13822c7.23974,3.63457 13.61994,9.83619 19.03285,16.44113c0.52937,-0.11288 0.97149,0.28903 0.97149,0.28903zM212.91171,213.23592c-12.91573,-7.74286 -25.42204,-16.14289 -38.1459,-24.20758c-12.34778,-7.85211 -26.78483,-14.00819 -40.66418,-18.54154c-9.49861,-3.10382 -19.97062,-5.66853 -29.90694,-6.83723c-3.79659,-0.44655 -7.52926,-0.44237 -11.34254,-1.07621c-3.86598,-0.79178 -8.04897,-0.13589 -12.01573,-0.51923c-2.29023,-0.22132 -4.86341,-1.58215 -7.06347,-0.69739c-1.06043,0.42645 -4.35278,1.04714 -5.08897,1.88003c-0.84856,0.96003 -0.47684,1.75525 -0.61097,2.84131c-0.31907,2.5834 -0.80343,5.21293 -1.54984,7.70354c-5.08079,11.4576 -2.06382,24.51453 -7.25681,36.18427c-0.23326,1.95322 -0.94293,3.91916 -1.20416,5.72195c-0.09883,0.68204 1.37803,-0.07643 2.06,-0.17584c0.74926,-0.10922 1.4708,-0.39553 2.22574,-0.45392c1.98337,-0.1534 4.48812,-0.12761 6.47398,0.03755c4.65471,0.38712 9.45291,2.79913 14.13566,2.69913c3.37549,-0.07208 6.01106,0.33503 9.38131,1.54409c2.81234,0.6231 5.75964,2.13824 8.71984,1.87016c4.85762,-0.43991 9.41904,-0.35368 14.26453,0.08263c5.78126,0.52058 11.43065,2.32859 17.23677,2.8852c4.32138,1.1007 9.06905,1.72113 13.2338,3.10845c4.74281,1.57987 10.14185,4.44462 15.06236,5.17143c1.74812,0.25822 3.21429,0.21315 5.00199,0.67517c4.13822,1.82376 8.35887,2.03932 12.65778,3.19329c2.42254,0.65029 5.29947,2.48969 7.70978,2.82038c6.12456,0.84024 11.80291,3.02058 17.8337,4.53556c3.39593,0.85448 6.95915,2.593 10.37187,3.11635c10.06367,1.54332 19.355,4.77867 27.47079,11.19849c0.29327,0.13105 0.56913,0.27514 0.83201,0.43031c-0.42791,-1.02588 -0.74897,-2.05765 -0.90898,-2.7426c-0.42971,-1.8394 0.6531,-4.98508 -0.04415,-6.57144c-1.64962,-3.75319 -4.86494,-8.93645 -5.30299,-13.17764c-6.18011,-8.66325 -14.12063,-17.94028 -23.5663,-22.69868z" fill="#000000"/><path d="M236.53193,235.94641c0.43804,4.24119 3.65149,9.43106 5.30111,13.18424c0.69724,1.58636 -0.38684,4.73532 0.04287,6.57471c0.16002,0.68495 0.48058,1.71783 0.90849,2.74371c-0.26289,-0.15517 -0.63928,-0.34482 -0.93255,-0.47587c-8.11579,-6.41982 -17.30695,-9.60881 -27.37063,-11.15212c-3.41273,-0.52335 -6.97663,-2.26049 -10.37256,-3.11496c-6.03079,-1.51499 -11.71192,-3.69049 -17.83647,-4.53072c-2.41032,-0.33067 -5.289,-2.16752 -7.71153,-2.8178c-4.29891,-1.15397 -8.52853,-1.35985 -12.66675,-3.18361c-1.7877,-0.46202 -3.26295,-0.41068 -5.01107,-0.6689c-4.92051,-0.72682 -10.37807,-3.59486 -15.12087,-5.17473c-4.16475,-1.38732 -8.93297,-2.03559 -13.25435,-3.13629c-5.80612,-0.55661 -11.458,-2.37636 -17.23926,-2.89694c-4.84549,-0.43631 -9.40704,-0.52414 -14.26467,-0.08422c-2.9602,0.26807 -5.90761,-1.24933 -8.71995,-1.87242c-3.37025,-1.20906 -6.00585,-1.6176 -9.38134,-1.54552c-4.68274,0.09998 -9.48092,-2.31383 -14.13563,-2.70094c-1.98587,-0.16516 -4.38027,-0.18776 -6.36365,-0.03436c-0.75493,0.05839 -1.47646,0.34439 -2.22572,0.45362c-0.68195,0.09941 -2.26918,0.85554 -2.17035,0.1735c0.26124,-1.80278 0.97108,-3.7721 1.20433,-5.72533c5.193,-11.66975 2.18183,-24.7472 7.26263,-36.20481c0.74641,-2.49062 1.23283,-5.12384 1.55189,-7.70723c0.13413,-1.08606 -0.23678,-1.88256 0.61178,-2.84259c0.73618,-0.83288 4.02992,-1.45562 5.09035,-1.88208c2.20007,-0.88476 4.77452,0.47434 7.06475,0.69566c3.96676,0.38333 8.15278,-0.27616 12.01876,0.51562c3.81328,0.63386 7.54969,0.62598 11.34628,1.07253c9.93632,1.1687 20.42498,3.72312 29.92359,6.82693c13.87934,4.53335 28.37041,10.69713 40.71819,18.54924c12.72387,8.06469 25.25143,16.50438 38.16717,24.24725c9.44567,4.7584 17.38505,14.0512 23.56516,22.71445z" data-paper-data="{&quot;noHover&quot;:false,&quot;origItem&quot;:[&quot;Path&quot;,{&quot;applyMatrix&quot;:true,&quot;segments&quot;:[[[197.49641,76.13556],[0.53521,-10.56298],[-1.86274,14.94317]],[[190.7697,120.8107],[2.23466,-14.89773],[-2.1922,14.46781]],[[190.24344,165.49947],[-1.46243,-14.52751],[0.99963,9.94274]],[[196.07577,195.61851],[-2.94657,-9.56107],[1.12586,3.65321]],[[199.67524,206.42848],[-0.96128,-3.74417],[0.83813,3.8562]],[[204.05624,217.62911],[-1.25246,-3.78331],[0.72311,2.18432]],[[206.27292,224.3719],[-1.69841,-1.65484],[0.81863,0.79763]],[[210.04919,228.267],[-1.05935,-0.33679],[1.22107,0.3882]],[[212.89505,227.67759],[-1.04763,0.31622],[2.49198,-0.75218]],[[220.56782,225.98198],[-2.57982,0.3238],[12.53359,0.01702]],[[256.59832,217.99657],[-12.77299,-0.03392],[1.88088,-0.576]],[[262.31883,216.78559],[-1.75458,0.48961],[0.6638,-0.18523]],[[261.32548,214.97237],[0.36653,0.58361],[-0.4027,-0.64121]],[[260.01079,213.11994],[0.3585,0.66694],[-0.94186,-1.7522]],[[257.42879,207.18301],[0.65148,1.88322],[-1.52702,-4.41411]],[[254.18502,193.16231],[1.9839,4.2429],[-1.43007,-3.05843]],[[251.80611,183.9572],[0.2561,3.57139],[-0.56661,-2.82426]],[[249.99278,175.22536],[1.44152,2.59936],[-2.36551,-4.26549]],[[244.30361,162.14419],[1.55912,4.6085],[-1.86022,-5.4985]],[[239.97676,145.2117],[1.83731,5.53581],[-0.7396,-4.3976]],[[237.47186,131.85051],[0.41413,4.37016],[-0.47161,-4.97673]],[[236.115,115.98302],[1.32371,4.79453],[-0.47028,-1.70336]],[[234.71111,111.13484],[0.29986,1.82193],[-0.00419,-4.52227]],[[232.5166,98.26625],[0.68179,4.39857],[-0.3842,-2.4787]],[[231.98063,90.07431],[0.67162,2.33836],[-1.70656,-5.94171]],[[228.92214,71.92884],[1.05147,6.12862],[-0.59081,-3.45158]],[[227.58106,61.18227],[0.90048,3.33313],[-2.65538,-9.82895]],[[226.7225,31.52905],[-2.59236,10.01797],[0.00135,-0.32121]],[[226.77986,30.5941],[-0.03569,0.30317],[-0.76544,0.806]],[[224.63856,32.53392],[0.56186,-0.42318],[-1.50884,1.13642]],[[218.6455,35.23003],[1.16927,-1.27887],[-2.76638,3.02569]],[[208.73501,45.40618],[3.70239,-2.11468],[-5.4267,9.15405]]],&quot;closed&quot;:true}]}" fill="#d1e7b5"/></g><g data-paper-data="{&quot;index&quot;:null}" fill-rule="nonzero" stroke="none" stroke-width="0.5" stroke-linecap="butt"><path d="M219.41299,204.32916c-5.97352,6.10262 -12.87504,11.71832 -20.40672,14.70123c-13.50258,6.56523 -26.66148,13.80319 -40.0065,20.69565c-13.19196,6.79099 -28.22912,11.7342 -42.65376,15.07783c-9.87403,2.28751 -20.66803,3.93187 -30.81179,4.23259c-3.78397,0.11218 -7.45241,-0.2265 -11.26797,0.06514c-4.01422,0.42324 -8.15395,-0.54703 -12.22275,-0.5314c-2.82181,0.01084 -5.41638,1.11607 -8.0692,-0.1544c-1.3157,-0.63011 -4.70888,-1.642 -5.58731,-2.8448c-2.02327,-2.77039 -1.02009,-8.30909 -1.69556,-11.57282c-4.01602,-11.97959 0.01552,-24.7101 -4.0827,-36.8608c-0.05041,-1.22023 -0.87716,-6.45203 -0.41438,-7.34661c0.37272,-0.7205 1.44578,-0.81174 2.24799,-0.93212c2.27646,-0.34162 5.87027,0.96239 8.23441,1.2256c4.09108,0.45548 8.1731,-0.64697 12.25602,-0.91524c4.71637,-0.30989 8.45365,0.21063 13.19321,-1.02226c3.14428,-0.41442 6.39159,-1.66195 9.61419,-1.10959c4.70434,0.80634 9.10547,1.14118 13.87563,1.14743c5.73585,0.00752 11.46809,-1.32172 17.23824,-1.34825c4.29558,-0.71219 9.03702,-0.86871 13.19205,-1.89248c4.93376,-1.21563 10.63995,-3.53549 15.69775,-3.86117c1.70784,-0.10998 2.978,0.10528 4.71762,-0.17617c4.33993,-1.48076 8.62143,-1.31165 13.05896,-2.10161c2.58347,-0.4599 5.52426,-1.96544 8.08343,-2.15103c6.10468,-0.44271 11.93386,-1.95484 18.02743,-2.93007c13.37954,-2.1362 26.60858,-3.26925 38.34337,-10.73432c1.57337,-0.5273 2.63933,-1.48555 3.94972,-2.47763l0.0716,-0.01323l-0.01333,-0.023l1.19625,-0.6933c0.06734,-0.04082 0.14013,-0.07502 0.21776,-0.10142c0.57713,-0.1963 1.20412,0.11243 1.40042,0.68956c0.13174,0.38732 0.03602,0.7971 -0.21564,1.08408l-1.02538,1.21117l-0.14133,-0.11965c-0.96963,1.81886 -2.07914,3.61237 -2.67466,5.45333c-0.67371,2.08266 0.19101,4.77978 -0.691,6.71458c-1.61895,3.5514 -4.74012,7.36216 -6.04635,11.26327c0.37529,0.62435 -0.14606,1.24015 -0.14606,1.24015c-0.08989,0.10612 -0.18009,0.21234 -0.27058,0.31864c-0.03034,0.1554 -0.05712,0.31088 -0.08017,0.46647c-1.59886,1.97426 -2.39035,4.02682 -4.40564,5.59711l-0.69407,0.52721c0,0 -0.47581,0.36141 -0.99317,0.20235zM223.58977,196.47497c0.80982,-4.18614 4.46909,-9.06611 6.44282,-12.65947c0.83423,-1.51879 0.03263,-4.74761 0.62266,-6.54202c0.21971,-0.6682 0.63038,-1.66769 1.14696,-2.6519c-0.27552,0.13141 -0.563,0.25066 -0.86668,0.35537c-8.64959,5.68019 -18.18973,8.08481 -28.35021,8.73591c-3.44555,0.2208 -7.14802,1.63878 -10.606,2.19089c-6.14077,0.97803 -11.98907,2.64986 -18.16382,2.9475c-2.43008,0.11714 -5.45782,1.69606 -7.9282,2.1305c-4.38382,0.77093 -8.60707,0.61398 -12.88981,2.06624c-1.82144,0.3028 -3.27793,0.1288 -5.042,0.23207c-4.9654,0.2907 -10.59574,2.66886 -15.45924,3.82495c-4.27074,1.01518 -9.05459,1.21512 -13.45612,1.93101c-5.83259,0.04316 -11.61924,1.34666 -17.42388,1.35612c-4.86509,0.00793 -9.41639,-0.30786 -14.2164,-1.17382c-2.9251,-0.52772 -5.99436,0.722 -8.85065,1.09502c-3.46363,0.90758 -6.12481,1.08101 -9.48084,0.71197c-4.65574,-0.51196 -9.64771,1.46814 -14.31843,1.44386c-1.9927,-0.01036 -4.48997,-0.20523 -6.45214,-0.5327c-0.74686,-0.12464 -1.44037,-0.47337 -2.17712,-0.64815c-0.67055,-0.15908 -2.07489,-1.04465 -2.03651,-0.35657c0.10147,1.81878 0.63526,3.83958 0.6956,5.80576c4.14518,12.08172 -0.00986,24.82223 4.04224,36.68274c0.52418,2.54667 0.77511,5.20863 0.86545,7.8101c0.03798,1.09365 -0.40233,1.85305 0.35839,2.88407c0.65998,0.89447 3.88489,1.80268 4.90364,2.32086c2.11361,1.07506 4.79661,-0.05388 7.09745,-0.07266c3.9851,-0.03254 8.09408,0.98915 12.01477,0.54089c3.85429,-0.29559 7.57208,0.03728 11.39325,-0.07321c10.00064,-0.28917 20.65781,-1.92176 30.39284,-4.17707c14.22463,-3.29352 29.1477,-8.15437 42.13897,-14.88862c13.38461,-6.9129 26.58205,-14.17898 40.12943,-20.7544c9.828,-3.90812 18.5546,-12.44988 25.47359,-20.53526z" fill="#000000"/><path d="M198.17067,217.01902c-13.54739,6.57543 -26.76949,13.87916 -40.1541,20.79206c-12.99126,6.73426 -27.96883,11.59801 -42.19345,14.89154c-9.73503,2.25531 -20.40789,3.87617 -30.40852,4.16534c-3.82116,0.11049 -7.54236,-0.22639 -11.39664,0.06921c-3.92069,0.44827 -8.03238,-0.57728 -12.01748,-0.54475c-2.30083,0.01878 -4.98496,1.1459 -7.09856,0.07084c-1.01875,-0.51818 -4.24486,-1.42855 -4.90484,-2.32302c-0.76073,-1.03102 -0.32111,-1.79177 -0.35908,-2.88542c-0.09034,-2.60146 -0.34298,-5.26728 -0.86716,-7.81394c-4.0521,-11.86051 0.09897,-24.62199 -4.04622,-36.7037c-0.06034,-1.96618 -0.59402,-3.99036 -0.69548,-5.80915c-0.03839,-0.68809 1.4761,0.20488 2.14664,0.36396c0.73673,0.17478 1.43027,0.52321 2.17713,0.64785c1.96217,0.32746 4.34925,0.51579 6.34195,0.52614c4.67071,0.02428 9.66282,-1.95763 14.31856,-1.44566c3.35603,0.36904 6.01736,0.19417 9.48099,-0.7134c2.85628,-0.37302 5.92586,-1.62498 8.85096,-1.09727c4.80002,0.86597 9.35159,1.18018 14.21667,1.17225c5.80464,-0.00946 11.5948,-1.32444 17.42738,-1.3676c4.40153,-0.71588 9.20832,-0.94174 13.47905,-1.95693c4.86351,-1.15608 10.55242,-3.53239 15.51781,-3.82308c1.76407,-0.10327 3.22906,0.07777 5.0505,-0.22503c4.28274,-1.45227 8.51406,-1.28487 12.8979,-2.0558c2.47039,-0.43444 5.49963,-2.01065 7.92971,-2.12778c6.17475,-0.29765 12.02539,-1.96441 18.16615,-2.94244c3.45798,-0.55211 7.16101,-1.96865 10.60655,-2.18945c10.16048,-0.65111 19.59676,-3.01835 28.24635,-8.69854c0.30366,-0.10472 0.6953,-0.26049 0.97083,-0.39189c-0.51658,0.98421 -0.92686,1.98483 -1.14657,2.65303c-0.59001,1.79441 0.21257,5.0266 -0.62166,6.5454c-1.97371,3.59335 -5.63169,8.48007 -6.44152,12.66621c-6.91899,8.08538 -15.64585,16.64294 -25.47385,20.55107z" data-paper-data="{&quot;noHover&quot;:false,&quot;origItem&quot;:[&quot;Path&quot;,{&quot;applyMatrix&quot;:true,&quot;segments&quot;:[[[394.99281,152.27111],[1.07042,-21.12596],[-3.72549,29.88634]],[[381.5394,241.6214],[4.46932,-29.79546],[-4.3844,28.93562]],[[380.48687,330.99895],[-2.92486,-29.05502],[1.99926,19.88548]],[[392.15154,391.23703],[-5.89314,-19.12214],[2.25172,7.30642]],[[399.35048,412.85696],[-1.92257,-7.48834],[1.67625,7.7124]],[[408.11248,435.25821],[-2.50491,-7.56662],[1.44623,4.36864]],[[412.54583,448.7438],[-3.39682,-3.30968],[1.63726,1.59526]],[[420.09839,456.534],[-2.11871,-0.67358],[2.44214,0.77641]],[[425.7901,455.35518],[-2.09526,0.63243],[4.98396,-1.50436]],[[441.13565,451.96396],[-5.15963,0.6476],[25.06718,0.03403]],[[513.19664,435.99314],[-25.54598,-0.06783],[3.76177,-1.15201]],[[524.63766,433.57118],[-3.50916,0.97923],[1.3276,-0.37047]],[[522.65095,429.94475],[0.73306,1.16722],[-0.80541,-1.28243]],[[520.02157,426.23988],[0.71699,1.33387],[-1.88372,-3.50441]],[[514.85758,414.36602],[1.30296,3.76644],[-3.05404,-8.82822]],[[508.37004,386.32462],[3.96781,8.4858],[-2.86014,-6.11687]],[[503.61222,367.9144],[0.51221,7.14278],[-1.13323,-5.64852]],[[499.98555,350.45073],[2.88305,5.19872],[-4.73101,-8.53097]],[[488.60721,324.28838],[3.11823,9.217],[-3.72043,-10.997]],[[479.95353,290.4234],[3.67462,11.07163],[-1.4792,-8.79521]],[[474.94373,263.70103],[0.82825,8.74032],[-0.94321,-9.95346]],[[472.22999,231.96604],[2.64743,9.58905],[-0.94056,-3.40672]],[[469.42222,222.26969],[0.59972,3.64386],[-0.00838,-9.04455]],[[465.0332,196.53251],[1.36357,8.79715],[-0.7684,-4.95739]],[[463.96126,180.14861],[1.34324,4.67672],[-3.41313,-11.88341]],[[457.84428,143.85769],[2.10295,12.25724],[-1.18163,-6.90316]],[[455.16212,122.36454],[1.80095,6.66625],[-5.31077,-19.6579]],[[453.44501,63.0581],[-5.18471,20.03594],[0.00271,-0.64243]],[[453.55973,61.18821],[-0.07138,0.60633],[-1.53088,1.61199]],[[449.27711,65.06784],[1.12372,-0.84636],[-3.01767,2.27283]],[[437.29099,70.46006],[2.33853,-2.55774],[-5.53277,6.05139]],[[417.47002,90.81237],[7.40478,-4.22936],[-10.8534,18.3081]]],&quot;closed&quot;:true}]}" fill="#d1e7b5"/></g></g></g></svg>