<svg version="1.1" xmlns="http://www.w3.org/2000/svg" xmlns:xlink="http://www.w3.org/1999/xlink" width="2878.25006" height="1619.57958" viewBox="0,0,2878.25006,1619.57958"><g transform="translate(1119.12503,629.78979)"><g stroke-miterlimit="10"><path d="M491.48306,93.53797h-0.30741c-0.08889,-0.00011 -0.17777,0.00009 -0.26663,0.00059c0,25.02805 0,50.05611 0,75.08416c0,21.66666 0,43.33334 0,65c0,4.90451 0.45795,10.11936 0,15c-0.10237,1.091 -1.5548,2.43238 -0.76905,3.19617c0.77894,0.75716 2.05823,-0.73765 3.13251,-0.89877c4.86554,-0.72971 9.96069,-0.38521 14.8682,-0.79457c10.5247,-1.12189 20.4714,0.59721 30.95536,0.39831c24.5357,-0.46551 34.48221,-3.40842 48.16321,19.71912c1.86574,8.45683 4.98974,60.18461 -1.91624,63.4491c-6.36393,3.00826 -21.51861,2.09164 -28.73658,2.2853c-19.32411,0.48242 -34.68805,-8.05975 -52.95165,-11.01818c-13.53595,-2.19262 -27.66313,-1.19204 -41.31228,-1.19204c-14.3539,0 -28.16319,-0.61873 -42.26801,2.40373l-1.50636,0.43483c-0.31128,0.14562 -0.69536,0.23547 -1.16929,0.23547c-0.15953,0 -0.30888,-0.01018 -0.4487,-0.02925c-0.35449,-0.0457 -0.74367,-0.1654 -1.09163,-0.42869c-0.34875,-0.26224 -0.57076,-0.60356 -0.71209,-0.93185c-0.05674,-0.1292 -0.10757,-0.27001 -0.15139,-0.42341c-0.1291,-0.45183 -0.149,-0.843 -0.09619,-1.18035c0,-25.83825 0,-51.6765 0,-77.51475c0,-27.2853 3.7463,-72.02806 -0.58304,-97.41328c-1.80721,-11.88103 1.28369,-24.66753 -1.78798,-36.32002c-1.10543,-4.19351 -4.50815,-9.06469 -3.7561,-13.58471c0.23386,-1.40557 0.60134,-2.99002 1.66652,-3.93644c6.52044,-5.79345 25.00997,-4.0807 33.17144,-4.08126c7.8535,0 15.96765,0.71409 23.78263,0.30998c6.23956,-0.32265 12.3469,-1.81835 18.51671,-2.46737c0,-2.75118 0,-5.50236 0,-8.25355c0,0 0,-2.5 2.5,-2.5c2.5,0 2.5,2.5 2.5,2.5c0,2.65095 0,5.30191 0,7.95287c0.08885,-0.00067 0.17773,-0.00105 0.26663,-0.00115h0.30741c0,0 2.5,0 2.5,2.5c0,2.5 -2.5,2.5 -2.5,2.5z" fill="#4b443c" stroke="none" stroke-width="0.5" stroke-linecap="butt"/><path d="M198.00512,108.57138c0,-2.3242 2.5,-2.3242 2.5,-2.3242h0.3074c0.0889,0.00009 0.17778,0.00045 0.26663,0.00107c0,-2.46453 0,-4.92907 0,-7.3936c0,0 0,-2.3242 2.5,-2.3242c2.5,0 2.5,2.3242 2.5,2.3242c0,2.55771 0,5.11543 0,7.67314c6.16981,0.60338 12.27715,1.9939 18.51672,2.29386c7.81498,0.3757 15.92912,-0.28817 23.78263,-0.28817c8.16147,0.00052 26.65099,-1.59179 33.17143,3.79425c1.06518,0.87986 1.43265,2.35289 1.66652,3.65962c0.75205,4.20217 -2.65066,8.7308 -3.75609,12.62941c-3.07166,10.83306 0.01923,22.72038 -1.78798,33.76592c-4.32934,23.60008 -0.58305,65.19645 -0.58305,90.56299c0,24.02125 0,48.0425 0,72.06376c0.05281,0.31363 0.03291,0.67729 -0.09619,1.09735c-0.04383,0.14261 -0.09465,0.27351 -0.15139,0.39363c-0.14133,0.30521 -0.36334,0.62253 -0.71209,0.86632c-0.34795,0.24478 -0.73713,0.35606 -1.09163,0.39855c-0.13982,0.01772 -0.28917,0.02719 -0.44871,0.02719c-0.47393,0 -0.85802,-0.08353 -1.16929,-0.21891l-1.50636,-0.40425c-14.10482,-2.80991 -27.9141,-2.2347 -42.26801,-2.2347c-13.64915,0 -27.77633,-0.93022 -41.31229,1.10821c-18.2636,2.75039 -33.62754,10.69186 -52.95165,10.24335c-7.21796,-0.18004 -22.37265,0.67212 -28.73658,-2.1246c-6.90598,-3.03493 -3.78198,-51.1251 -1.91624,-58.98723c13.68099,-21.50117 23.6275,-18.7652 48.16321,-18.33243c10.48396,0.18492 20.43065,-1.4133 30.95536,-0.3703c4.90751,0.38057 10.00266,0.0603 14.8682,0.73869c1.07429,0.14979 2.35357,1.53949 3.13252,0.83557c0.78575,-0.71007 -0.66668,-1.95712 -0.76905,-2.9714c-0.45795,-4.53742 0,-9.38555 0,-13.94517c0,-20.14302 0,-40.28605 0,-60.42907c0,-23.26803 0,-46.53606 0,-69.8041c-0.08886,-0.00046 -0.17773,-0.00065 -0.26663,-0.00055h-0.3074c0,0 -2.5,0 -2.5,-2.3242z" fill="#4b443c" stroke="none" stroke-width="0.5" stroke-linecap="butt"/><path d="M-1119.12503,989.78979v-1619.57958h2878.25006v1619.57958z" fill="none" stroke="#000000" stroke-width="0" stroke-linecap="butt"/><g><path d="M-31.74124,164.2546l5.11306,-88.72058l64.00626,-37.2223l110.81831,67.88801l170.32805,-0.52398l20.21263,11.23529l12.02567,-2.72369l3.275,-75.54914l216.97422,-0.35331l-11.20453,156.9742l-210.21466,-34.41366l-207.66467,39.91267z" fill="#a39c89" stroke="#000000" stroke-width="1" stroke-linecap="round"/><path d="M140.25669,200.57188l2.62367,-45.52531l208.75671,-21.41728l211.85604,22.63955l-3.70634,39.34873l-209.83554,-34.75146l-206.92191,39.50591z" fill="#565155" stroke="#000000" stroke-width="1" stroke-linecap="round"/><path d="M172.18609,152.41705l3.23948,-47.6214l60.70771,0.1987l-1.37319,41.0053z" fill="#4b443c" stroke="#000000" stroke-width="1" stroke-linecap="round"/><path d="M176.63906,148.15686l2.57508,-38.95605l53.28843,0.10111l-1.70261,32.40643z" fill="#212c0a" stroke="#000000" stroke-width="1" stroke-linecap="round"/><path d="M308.0999,168.93291l3.31046,-63.16834l6.78041,-0.26922l8.97235,4.64203l-3.57022,56.22348z" fill="#3e240d" stroke="#000000" stroke-width="1" stroke-linecap="round"/><path d="M317.72619,162.22779l-6.3155,0.79102l2.67214,-54.95524l7.41928,0.09758l-2.80816,54.45242z" fill="#070000" stroke="#000000" stroke-width="1" stroke-linecap="round"/><path d="M338.31138,116.38977l14.33237,-2.47397l-2.12401,19.67733l-14.63285,1.96165l0.84631,-20.41095z" fill="#4b443c" stroke="#000000" stroke-width="1" stroke-linecap="round"/><path d="M348.51352,114.00779l-0.79277,16.61907l-9.64244,1.25927l0.39753,-15.48688z" fill="#212c0a" stroke="#000000" stroke-width="1" stroke-linecap="round"/><path d="M148.78265,106.86952l-120.22442,-72.59776l-74.24757,46.49909l-3.69094,-4.66765l75.78282,-48.80308l118.5229,71.34472l173.57487,0.76342l19.12762,11.66221l51.11881,-2.33391l-1.92885,4.83878l-33.69976,0.69781l-14.82574,2.44552l-20.93659,-11.76646z" fill="#646056" stroke="#000000" stroke-width="1" stroke-linecap="round"/><path d="M37.37479,38.03857l-64.23159,38.04269l-11.67605,-0.6729l67.56468,-41.48055z" fill="#5c5037" stroke="#000000" stroke-width="1" stroke-linecap="round"/><path d="M338.20356,33.8022l245.7892,-2.58218l-1.73262,7.16005l-243.02056,0.34928z" fill="#646056" stroke="#000000" stroke-width="1" stroke-linecap="round"/><path d="M386.81172,167.36423l3.80767,-51.75485l141.26094,11.77097l-4.19279,63.44749z" fill="#4b443c" stroke="#000000" stroke-width="1" stroke-linecap="round"/><path d="M445.98106,41.086l-2.25565,39.13946l-22.52986,-1.29842l2.22721,-38.64611z" fill="#4b443c" stroke="#000000" stroke-width="1" stroke-linecap="round"/><path d="M425.6526,44.5344l16.657,0.13498l-1.96518,31.23631l-15.49635,-0.23307z" fill="#212c0a" stroke="#000000" stroke-width="1" stroke-linecap="round"/><path d="M473.24825,40.34748l-2.68881,40.92948l-23.0706,-0.5046l1.97414,-39.98067z" fill="#4b443c" stroke="#000000" stroke-width="1" stroke-linecap="round"/><path d="M452.60036,43.61245l15.98023,0.42596l-1.91446,33.21921l-15.44897,-1.05534z" fill="#212c0a" stroke="#000000" stroke-width="1" stroke-linecap="round"/><path d="M248.08912,171.02265c-0.74876,-0.04315 -0.7056,-0.79191 -0.7056,-0.79191l0.01875,-0.32544c0.4506,-7.1564 -1.66031,-14.63455 0.40607,-21.71939c3.70987,-10.00155 11.57519,-10.50484 20.49361,-13.08705c10.0002,-2.9341 17.52864,-0.99942 26.15558,4.50817c6.94509,6.40065 7.6367,13.52661 8.11412,22.51079c0,0 0.0398,0.74894 -0.70915,0.78874c-0.74894,0.0398 -0.78874,-0.70915 -0.78874,-0.70915c-0.45277,-8.52026 -0.95954,-15.3116 -7.53121,-21.40177c-8.25234,-5.21935 -15.2763,-7.05844 -24.82082,-4.25673c-8.3485,2.41722 -16.10542,2.58756 -19.488,12.11413c-2.02275,6.90422 0.03849,14.34337 -0.33396,21.33856l-0.01875,0.32544c0,0 -0.04315,0.74876 -0.79191,0.7056z" fill="#000000" stroke="none" stroke-width="0.5" stroke-linecap="butt"/><path d="M250.17369,106.29785c0.08864,0.09947 0.14385,0.19701 0.17472,0.29019c7.06468,-1.87558 15.71061,-0.95893 17.11026,7.03258c1.90591,10.97831 -2.29964,16.5821 -12.58482,19.5382c-10.61599,-0.19386 -15.66836,-7.14358 -14.46494,-18.01058c0.9155,-4.83292 4.68437,-6.89541 8.75605,-8.92072l-0.05019,0.00932c0,0 0.55996,-0.49894 1.0589,0.06102zM245.73804,109.83279c-1.89507,1.29784 -3.39006,2.95566 -3.84507,5.53355c-1.09751,9.93715 3.20866,15.98629 12.78618,16.30516c9.44422,-2.83792 13.06909,-7.61345 11.30161,-17.79432c-1.51066,-8.78563 -13.55342,-7.39707 -19.74245,-4.12741c0,0 -0.23593,0.12368 -0.50028,0.08303z" fill="#000000" stroke="none" stroke-width="0.5" stroke-linecap="butt"/><path d="M246.20688,109.7109c6.18902,-3.26966 18.30869,-4.64014 19.81936,4.1455c1.76748,10.18088 -1.90016,15.02712 -11.34436,17.86504c-9.57751,-0.31887 -13.9339,-6.43355 -12.83639,-16.37072c0.455,-2.57789 1.9647,-4.25782 3.85977,-5.55567c0.26436,0.04065 0.50162,-0.08415 0.50162,-0.08415z" fill="#ffffff" stroke="none" stroke-width="0.5" stroke-linecap="butt"/><path d="M276.00836,105.60993c0.10239,0.11491 0.16018,0.22725 0.18738,0.33324c5.3179,-0.38779 10.94345,0.34873 15.5763,1.83784c8.72619,6.77441 10.83417,17.28851 0.18182,22.3556c-9.2926,4.6198 -16.91437,-0.41976 -20.38798,-9.87629c-2.00389,-4.05578 -1.92552,-8.95245 0.64936,-12.28897c-0.98074,0.20372 -1.93239,0.45909 -2.84345,0.77045c0,0 -0.71123,0.23802 -0.94924,-0.47321c-0.23802,-0.71123 0.47321,-0.94924 0.47321,-0.94924c1.6362,-0.53782 3.38419,-0.91931 5.18994,-1.15991c0.23979,-0.17366 0.49102,-0.33825 0.7538,-0.49305l0.10995,-0.11748c0,0 0.55996,-0.49894 1.0589,0.06102zM274.7007,107.56958c-3.52221,2.76652 -3.81956,7.98127 -1.75582,12.10047c3.10885,8.73118 9.87133,13.33868 18.35277,9.11772c9.51384,-4.52632 7.50339,-13.44678 -0.22545,-19.68005c-4.83043,-1.453 -10.88363,-2.19004 -16.37149,-1.53815z" fill="#000000" stroke="none" stroke-width="0.5" stroke-linecap="butt"/><path d="M291.09969,109.06599c7.72884,6.23328 9.74004,15.23671 0.22622,19.76304c-8.48144,4.22096 -15.32211,-0.4248 -18.43095,-9.15597c-2.06373,-4.11921 -1.7492,-9.37477 1.77301,-12.14127c5.48786,-0.6519 11.60129,0.08121 16.43172,1.53421z" fill="#ffffff" stroke="none" stroke-width="0.5" stroke-linecap="butt"/><path d="M263.10586,118.93455c0.06355,-1.10274 1.00902,-1.94517 2.11175,-1.88161c1.10274,0.06355 1.94517,1.00902 1.88161,2.11175c-0.06355,1.10274 -1.00902,1.94517 -2.11175,1.88161c-1.10274,-0.06355 -1.94517,-1.00902 -1.88161,-2.11175z" fill="#000000" stroke="none" stroke-width="0.5" stroke-linecap="butt"/><path d="M293.57785,118.04316c0.06355,-1.10274 1.00902,-1.94517 2.11175,-1.88161c1.10274,0.06355 1.94517,1.00902 1.88161,2.11175c-0.06355,1.10274 -1.00902,1.94517 -2.11175,1.88161c-1.10274,-0.06355 -1.94517,-1.00902 -1.88161,-2.11175z" fill="#000000" stroke="none" stroke-width="0.5" stroke-linecap="butt"/><path d="M221.3313,76.48753c0.04315,-0.74876 0.79191,-0.7056 0.79191,-0.7056l0.40191,0.04679c7.10594,2.26994 14.05626,5.22761 20.20609,9.5632c7.29393,5.1488 14.43156,10.44374 20.39403,17.13549c0,0 0.49894,0.55996 -0.06102,1.0589c-0.55996,0.49894 -1.0589,-0.06102 -1.0589,-0.06102c-5.88566,-6.60553 -12.93927,-11.82553 -20.13913,-16.90792c-6.01729,-4.25335 -12.83975,-7.13983 -19.79725,-9.35969l-0.03202,0.02178c0,0 -0.74876,-0.04315 -0.7056,-0.79191z" fill="#000000" stroke="none" stroke-width="0.5" stroke-linecap="butt"/><path d="M318.86676,67.60356c-0.16059,0.02692 -0.29216,0.01312 -0.39974,-0.02497c-1.32521,0.86895 -2.55186,1.85703 -3.85293,2.77355c-8.38499,5.90519 -16.62285,12.20562 -24.83972,18.3776c-6.68347,5.02019 -13.22705,10.16949 -19.80582,15.28864c0,0 -0.59191,0.46059 -1.0525,-0.13133c-0.46059,-0.59191 0.13133,-1.0525 0.13133,-1.0525c6.58527,-5.1242 13.13595,-10.27893 19.82612,-15.30415c8.22901,-6.18109 16.4793,-12.49059 24.87689,-18.40465c1.52734,-1.07536 2.95456,-2.2414 4.54901,-3.21612l1.18305,0.83026c0,0 0.12399,0.73968 -0.61569,0.86367z" fill="#000000" stroke="none" stroke-width="0.5" stroke-linecap="butt"/></g><g stroke="none" stroke-width="0.5" stroke-linecap="butt"><path d="M471.00951,299.53522c0,-0.62295 0.48382,-0.76207 0.69993,-0.79314c-0.07396,-4.02653 -0.33139,-8.27487 -0.33139,-9.20446c0,-11.2291 0,-22.45819 0,-33.68729c0,-11.19519 0,-22.39038 0,-33.58557c0,-10.99834 0,-21.99669 0,-32.99503c0,-10.73084 0,-21.46167 0,-32.19251c0,-2.21908 0.43712,-8.10632 0.50157,-13.8816c-0.22889,0.03163 -0.52401,-0.01968 -0.74819,-0.37837c-0.4251,-0.68016 0.25506,-1.10526 0.25506,-1.10526c0.16468,-0.10293 0.332,-0.20208 0.50027,-0.29986c-0.02344,-6.29888 -0.60193,-11.9863 -2.82153,-11.99236c-8.25507,-0.09069 -23.69713,-2.95734 -30.85267,1.65212c-7.17214,0.1344 -23.82494,-1.48813 -22.14501,7.44224c1.3341,7.1152 1.8151,13.55527 1.9852,20.27213c0.38636,0.21302 0.38636,0.70589 0.38636,0.70589c0,9.30721 0,18.61443 0,27.92164c0,10.81752 0,21.63503 0,32.45255c0,11.2291 0,22.45819 0,33.68729c0,11.2291 0,22.45819 0,33.68729c0,1.00325 -0.27512,4.19916 -0.49028,7.63278c1.26707,6.51472 1.20978,9.76591 4.42727,10.98323c2.73756,-0.16101 5.95787,-0.78455 7.47889,-0.78499c3.47546,0.00181 7.01936,-0.34424 10.58064,-0.75763c2.6472,-0.58666 5.2626,-1.30858 7.86042,-2.3544l0.59271,-0.05737c0,0 0.80208,0 0.80208,0.80208c0,0.28553 -0.10165,0.46942 -0.23257,0.58784c3.93032,-0.36188 7.8292,-0.51662 11.62763,-0.08492c2.49217,0.28963 7.89407,3.99852 9.90281,3.39959c0.59599,-0.1777 0.75405,-2.97988 0.73949,-6.27624c-0.20532,-0.02566 -0.71867,-0.15399 -0.71867,-0.79566zM491.98671,309.17189c0.37663,0.28544 0.7218,0.618 1.12988,0.85631c0.61509,0.35919 1.39057,0.33001 2.054,0.58926c0.59798,0.23367 2.26809,1.18292 2.89269,1.44395c0.90726,0.37915 1.84283,0.70131 2.79843,0.93304c0.53799,0.13046 1.11289,0.09298 1.63984,0.26261c0.54816,0.17646 1.03364,0.50799 1.54944,0.76404c1.23996,0.61554 2.47493,1.24981 3.72887,1.83677c3.92418,1.83688 8.08144,3.35191 12.21946,4.63158c1.97731,0.61154 3.94413,1.45009 5.94952,1.95174c2.06757,0.5172 4.22911,0.67471 6.30403,1.19803c2.57168,0.64861 5.06255,1.64059 7.64164,2.25566c1.99543,0.47587 4.07103,0.70112 6.09924,0.99086c0.11037,0.01577 3.19454,0.45506 3.25521,0.46912c0.92849,0.21517 1.79651,0.63731 2.69408,0.95787c1.97973,0.71003 4.03365,1.01945 6.0732,1.5267c2.00746,0.49927 4.08067,1.13681 6.14838,1.32797c1.01611,0.09394 2.04089,-0.00325 3.06134,-0.00325c1.60404,-0.00001 3.20808,0.00049 4.81212,-0.00022c2.65417,-0.00118 5.33403,0.08996 7.98561,-0.02738c1.50075,-0.06641 3.01036,-0.24896 4.50496,-0.39845c2.12534,-0.21123 4.15439,-0.78428 6.26151,-1.09431c0.05132,-0.00755 3.14018,-0.29912 3.2238,-0.30823c2.63747,-0.28711 5.24145,-0.64125 7.83253,-1.21619c1.01961,-0.22624 2.05434,-0.40387 3.04831,-0.72451c0.6441,-0.20778 2.37396,-1.04627 2.98818,-1.22617c1.91172,-0.55994 3.93229,-0.49173 5.8634,-0.88241c0.91235,-0.18458 1.76529,-0.59125 2.64906,-0.88351c0.91409,-0.1149 1.85067,-0.10693 2.74364,-0.33357c1.01794,-0.25836 1.93284,-0.82851 2.9295,-1.15962c0.09412,-0.03127 2.98329,-0.81116 3.11572,-0.85066c1.76176,-0.52545 3.46105,-1.20996 5.16795,-1.88622c0.47689,-0.18894 0.97143,-0.33803 1.43116,-0.56555c0.45973,-0.22753 0.87819,-0.53034 1.31767,-0.79488c1.80515,-1.08661 3.54774,-2.2013 5.14217,-3.58093c1.08405,-0.93801 2.54152,-1.87427 3.28971,-3.13445c0.51621,-0.86945 0.74188,-1.88131 1.11741,-2.82013c0.74559,-1.85363 1.10482,-3.78285 1.48573,-5.74482c0.2985,-1.53748 0.62847,-3.11579 0.82594,-4.66935c0.1655,-1.302 0.08578,-2.69171 0.12854,-4.0027c0.06935,-2.12599 0.16579,-4.24676 0.12889,-6.37383c-0.0183,-1.05497 0.02115,-2.11245 -0.0535,-3.16493c-0.07465,-1.05248 -0.26289,-2.09382 -0.39376,-3.1408c-0.172,-1.37601 -0.26584,-2.72467 -0.67521,-4.05132c-0.46327,-1.51759 -0.86825,-3.07415 -1.39459,-4.57088c-0.88089,-2.50495 -1.98565,-4.95027 -2.96426,-7.41906c-0.77839,-1.96368 -1.44332,-3.92604 -2.5245,-5.74407c-0.81816,-1.37575 -1.57884,-2.66661 -2.57633,-3.91987c-0.15573,-0.19566 -0.28023,-0.36713 -0.39146,-0.52049c-0.41245,0.17696 -0.82965,0.33789 -1.26701,0.43017c-2.52496,0.53276 -5.18239,0.46506 -7.72682,0.89704c-3.48708,0.59201 -6.89206,1.63484 -10.36325,2.30273c-1.33482,0.25683 -2.7209,0.33198 -4.04509,0.63831c-1.03261,0.23888 -2.04476,0.55886 -3.06731,0.83764c-1.33503,0.31029 -2.67862,0.70001 -4.0293,0.9355c-0.51794,0.0903 -1.04833,0.10772 -1.56164,0.22146c-1.03637,0.22965 -2.01739,0.66688 -3.04611,0.9287c-0.50237,0.12785 -1.02097,0.18462 -1.52386,0.31041c-0.32744,0.0819 -0.62921,0.26435 -0.96339,0.31175c-0.96104,0.1363 -1.94129,0.01203 -2.91195,0.01036c-0.56649,-0.00097 -1.13602,0.05299 -1.69947,-0.00568c-0.43302,-0.04509 -0.84229,-0.22401 -1.27032,-0.30359c-0.53698,-0.09983 -1.09042,-0.10755 -1.62173,-0.2341c-0.96554,-0.22997 -1.85124,-0.7436 -2.82217,-0.94965c-0.46729,-0.09917 -2.04028,-0.1827 -2.61512,-0.28733c-2.06644,-0.37615 -4.11599,-0.9597 -6.15302,-1.46855c-0.44624,0.00188 -0.89248,0.00338 -1.33873,0.00439c-0.37617,0.51719 -0.98743,0.21157 -0.98743,0.21157l-0.21447,-0.21015c-0.0055,0 -0.01099,0 -0.01649,0h-0.58966c0,0 -0.80208,0 -0.80208,-0.80208c0,-0.53137 0.35203,-0.71071 0.58966,-0.77124c0,-0.03775 0,-0.07549 0,-0.11324c0,0 0,-0.80208 0.80208,-0.80208c0.80208,0 0.80208,0.80208 0.80208,0.80208c0,0.02766 0,0.05532 0,0.08299c0.64924,0.00091 1.29847,0.00282 1.94771,0.00523c2.06607,0.49965 4.13817,1.09722 6.22973,1.47972c0.88817,0.16243 1.80871,0.11408 2.69177,0.30232c0.29755,0.06343 2.57891,0.89195 2.84659,0.95525c1.38794,0.3282 2.80297,0.5026 4.22106,0.50001c0.885,-0.00162 1.77904,0.1366 2.65499,0.01036c0.28115,-0.04052 0.53017,-0.20834 0.80558,-0.27791c0.5094,-0.12869 1.03502,-0.1864 1.54426,-0.31572c0.29629,-0.07525 2.84145,-0.88379 3.09247,-0.93972c0.53067,-0.11826 1.0788,-0.13905 1.61443,-0.23226c1.31789,-0.22934 2.62914,-0.61157 3.93189,-0.91411c0.07882,-0.02151 3.07974,-0.84068 3.12322,-0.85069c1.33662,-0.30769 2.73187,-0.38601 4.07871,-0.64515c3.48548,-0.67063 6.90428,-1.71682 10.40605,-2.31036c2.50431,-0.42447 5.11763,-0.36244 7.60421,-0.87193c0.07801,-0.01598 0.15526,-0.03453 0.23187,-0.05526c-0.19257,-0.06725 -0.39457,-0.11097 -0.58888,-0.17389c0,0 -0.76092,-0.25364 -0.50728,-1.01456c0.25364,-0.76092 1.01456,-0.50728 1.01456,-0.50728c0.83312,0.28404 1.27687,0.35113 1.93737,0.94312c0.05031,-0.02057 0.10077,-0.04066 0.15141,-0.06013c0.94168,-0.36215 1.88814,-0.71239 2.84089,-1.04435c0.97955,-0.34122 2.00916,-0.56159 2.94055,-1.01817c0.45126,-0.22121 0.84007,-0.55187 1.26092,-0.82655c0.89557,-0.58451 1.79326,-1.16577 2.68999,-1.74849c2.99354,-1.9453 5.81193,-4.16111 8.5606,-6.43498c2.03558,-1.68396 4.27922,-3.19066 6.23351,-4.9643c1.38488,-1.25687 2.5991,-2.89301 3.74341,-4.36512c0.96808,-1.24467 2.01904,-2.46277 2.92267,-3.75472c0.48349,-0.69126 0.84469,-1.46044 1.26784,-2.19019c0.52837,-0.91123 1.11423,-1.79135 1.58636,-2.73295c0.6706,-1.33741 1.27037,-2.69793 1.96506,-4.02889c0.74225,-1.4221 1.48284,-2.84508 2.22675,-4.26631c0.23613,-0.45113 0.51864,-0.88067 0.71006,-1.35251c0.5945,-1.46535 0.82958,-3.09122 1.36328,-4.58082c0.7207,-2.01153 1.68713,-3.92618 2.39911,-5.94489c0.00731,-0.0207 1.06954,-3.03054 1.07345,-3.04094c0.36626,-0.97398 0.84819,-1.90526 1.16208,-2.89736c0.27432,-0.86704 0.36765,-1.78126 0.55299,-2.67157c0.21448,-1.03035 0.4965,-2.04882 0.64504,-3.09073c0.29635,-2.0786 0.24196,-4.20145 0.24196,-6.29366c0,-1.57435 0.09748,-3.1915 0.00155,-4.76263c-0.09547,-1.56357 -0.42314,-3.1291 -0.58722,-4.68726c-0.14658,-1.39201 -0.21033,-2.79846 -0.31334,-4.19426c-0.45896,-2.05236 -0.83622,-4.14325 -1.37391,-6.17608c-0.36964,-1.39747 -0.86459,-2.75551 -1.22043,-4.15841c-0.52011,-2.05054 -0.94403,-4.15949 -1.56614,-6.18103c-0.31571,-1.02591 -0.78772,-1.99952 -1.09983,-3.02654c-0.26258,-0.86403 -0.33111,-1.77876 -0.58707,-2.64477c-0.57741,-1.95362 -1.62546,-3.76806 -2.2259,-5.71556c-0.0499,-0.16184 -0.64901,-2.82941 -0.7055,-3.07964c-1.11863,-2.04363 -2.22011,-4.03053 -3.51115,-5.9703c-0.29627,-0.44514 -0.59454,-0.88895 -0.88881,-1.33542c-0.26715,-0.40532 -0.45654,-0.87233 -0.79541,-1.21992c-0.72523,-0.7439 -1.75071,-1.12699 -2.55664,-1.7826c-1.24506,-1.01282 -2.38219,-2.23028 -3.5533,-3.32851c-1.68151,-1.57687 -3.47285,-3.03935 -5.31735,-4.42254c-0.82662,-0.61988 -1.5905,-1.33215 -2.4753,-1.86572c-0.71077,-0.42862 -1.5493,-0.59612 -2.32261,-0.89763c-2.97115,-1.15843 -5.92933,-2.28577 -9.00088,-3.1582c-2.94115,-0.83539 -5.97562,-1.34325 -8.91549,-2.18325c-2.04518,-0.58437 -4.01969,-1.45923 -6.07844,-1.99175c-2.56537,-0.66357 -5.24732,-0.97996 -7.83877,-1.54467c-10.88818,-2.37311 -21.83796,-4.35221 -32.84576,-6.09265c-3.18314,-0.50332 -6.35558,-1.00501 -9.51593,-1.63708c-2.59275,-0.51855 -5.20129,-1.18479 -7.81733,-1.56495c-1.44833,-0.21047 -2.95961,-0.2262 -4.41856,-0.33843c-3.65122,-0.28086 -7.30458,-0.42245 -10.96305,-0.58009c-3.50923,-0.20048 -7.01808,-0.42497 -10.52901,-0.59316c-1.53712,-0.07364 -3.18818,-0.31638 -4.72385,-0.23063c-0.50627,0.02827 -1.00067,0.16456 -1.50119,0.24576c-1.58345,0.25686 -3.16763,0.50936 -4.75143,0.76404c-1.02893,0.16545 -2.08078,0.22259 -3.08744,0.49222c-1.00666,0.26964 -1.94625,0.74591 -2.92012,1.11691c-1.25905,0.47964 -2.5323,0.87915 -3.69703,1.56011c-1.84968,1.07401 -3.69935,2.14801 -5.54903,3.22202c-0.90808,0.52727 -1.85765,0.98857 -2.72531,1.58c-0.86422,0.58908 -1.63683,1.30245 -2.4559,1.95285c-1.67501,1.33008 -3.35003,2.66016 -5.02504,3.99025c-3.77248,2.99562 -7.61318,5.90343 -11.43694,8.83322c-2.11411,1.61984 -4.2794,3.19066 -6.35024,4.86525c-2.48615,2.01043 -4.87407,4.15766 -7.30681,6.23264c-1.2116,1.03342 -2.41849,2.06201 -3.59242,3.1382c-0.07517,0.06892 -2.37672,2.18011 -2.42142,2.21507c-0.32248,0.25218 -0.66585,0.47459 -1.0167,0.68633c-0.04405,5.98054 -0.65689,12.14473 -0.65689,14.83449c0,10.73084 0,21.46167 0,32.19251c0,10.99834 0,21.99669 0,32.99503c0,11.19519 0,22.39038 0,33.58557c0,11.2291 0,22.45819 0,33.68729c0,1.47408 0.40116,5.38881 0.48992,9.25398c6.49746,0.70046 12.79597,7.51055 18.51458,10.38029zM635.88998,255.47302c1.04967,1.3061 1.85042,2.66401 2.70314,4.10317c1.12343,1.89605 1.8257,3.92675 2.63632,5.97175c0.98637,2.48836 2.09841,4.95317 2.9863,7.47801c0.53377,1.51784 0.94573,3.09568 1.41554,4.6347c0.42962,1.42086 0.54885,2.84981 0.73271,4.3207c0.00694,0.05548 0.40011,3.1979 0.40213,3.22628c0.15207,2.14393 0.10221,4.3518 0.03237,6.49795c-0.05217,1.60331 -0.1046,3.20661 -0.15689,4.80991c-0.02733,0.83771 0.02001,1.68138 -0.084,2.51306c-0.26716,2.13632 -0.73601,4.2869 -1.18206,6.39186c-0.33395,1.57595 -0.6388,2.95212 -1.23574,4.45212c-0.0465,0.11624 -1.1875,2.97721 -1.22898,3.04585c-0.86404,1.42968 -2.37856,2.45567 -3.6185,3.52654c-1.66541,1.43833 -3.47923,2.61109 -5.36501,3.74237c-0.47721,0.28627 -0.93361,0.61075 -1.43235,0.85759c-0.49875,0.24684 -1.03356,0.41288 -1.55058,0.61871c-1.74726,0.69561 -3.49086,1.39227 -5.29523,1.93068c-1.01794,0.30375 -2.0667,0.50275 -3.07481,0.83767c-0.27533,0.09147 -2.83014,1.13872 -3.04062,1.19214c-0.11445,0.02905 -2.381,0.29554 -2.78537,0.34357c-0.88512,0.29762 -1.74292,0.69855 -2.65784,0.88546c-1.89238,0.3866 -3.88488,0.30685 -5.75662,0.85508c-1.01939,0.29858 -1.93568,0.88727 -2.9466,1.21338c-0.02878,0.00929 -3.13279,0.75047 -3.1933,0.7639c-2.64848,0.58767 -5.31062,0.95139 -8.00642,1.24485c-1.05315,0.11465 -2.11579,0.14635 -3.16389,0.30056c-2.1317,0.31364 -4.18476,0.88711 -6.3354,1.10344c-1.52409,0.15238 -3.06333,0.33712 -4.59366,0.40484c-2.67504,0.11837 -5.3782,0.02776 -8.05582,0.02895c-1.60427,0.00071 -3.20855,0.00021 -4.81282,0.00022c-0.04502,0 -3.15854,0.0011 -3.20541,-0.00323c-2.15111,-0.19843 -4.30314,-0.84925 -6.39158,-1.36893c-2.09326,-0.52088 -4.19063,-0.84883 -6.22547,-1.57271c-0.84702,-0.30251 -1.66312,-0.70988 -2.53969,-0.91133c-1.01611,-0.23352 -2.06481,-0.29088 -3.09693,-0.43832c-2.07736,-0.29677 -4.20075,-0.5311 -6.2445,-1.0185c-2.58616,-0.61675 -5.08335,-1.61029 -7.66182,-2.26061c-2.07405,-0.5231 -4.23368,-0.68013 -6.30101,-1.19727c-2.03437,-0.5089 -4.02844,-1.3552 -6.03416,-1.9754c-4.20794,-1.30128 -8.43516,-2.84336 -12.42561,-4.71126c-1.26529,-0.59227 -2.51867,-1.22625 -3.76619,-1.85483c-0.4408,-0.22211 -0.84959,-0.52175 -1.32016,-0.67076c-0.4918,-0.15573 -1.02886,-0.11 -1.53014,-0.23182c-1.03566,-0.25167 -2.05027,-0.59909 -3.03376,-1.00982c-0.97923,-0.40896 -1.85793,-1.03988 -2.84651,-1.42566c-0.64567,-0.25196 -1.60404,-0.31702 -2.23093,-0.66872c-0.44496,-0.24963 -0.81916,-0.60844 -1.22874,-0.91266c-5.39355,-2.68651 -11.55624,-9.3874 -17.65427,-10.13168c-0.01238,3.71792 -0.41889,7.05526 -1.8865,7.68438c-2.41986,1.03732 -7.93532,-2.96713 -10.70175,-3.28819c-6.45302,-0.76715 -13.24318,0.22578 -19.97077,1.03362c-3.53883,0.79522 -7.13152,1.3566 -10.80586,2.08767c-6.77851,0.43978 -9.61342,-0.03353 -11.11732,-2.2739c0.41961,0.12656 0.92524,0.19784 1.48784,0.22827c-0.70077,-0.19753 -1.28988,-0.43657 -1.7836,-0.72241c-0.42217,-0.78989 -0.72877,-1.7635 -1.00313,-2.94806c0.02458,1.00422 0.093,1.83507 0.22287,2.38984c-1.8394,-1.6331 -1.73667,-4.39695 -1.44861,-8.85976c-0.06415,-0.33524 -0.13119,-0.67874 -0.2016,-1.03065c-1.99802,-10.00006 -1.50949,-20.02273 -1.50949,-30.27226c0,-10.84651 0,-21.69302 0,-32.53952c0,-10.73084 0,-21.46167 0,-32.19251c0,-10.79121 0.52777,-21.02047 1.77032,-31.57577c-0.00083,-10.30452 -0.13202,-19.08333 -2.05061,-29.3158c-1.95027,-10.43399 15.0788,-9.47837 23.25683,-9.27319c6.92236,-4.7966 23.19444,-1.81029 31.33516,-1.72085c3.47685,0.06233 4.44626,5.92392 4.54918,12.50472c0.0176,-0.01351 0.03513,-0.02711 0.05259,-0.04081c0.82219,-0.64495 1.53829,-1.41473 2.30862,-2.1208c1.18811,-1.08902 2.40925,-2.13036 3.63538,-3.17618c2.44341,-2.08409 4.84209,-4.24024 7.33915,-6.2595c2.08175,-1.68342 4.25803,-3.26288 6.38327,-4.89125c3.81641,-2.92416 7.64981,-5.82627 11.41503,-8.81613c1.67501,-1.33008 3.35003,-2.66016 5.02504,-3.99025c0.05264,-0.0418 2.51783,-2.00021 2.54955,-2.02183c0.0319,-0.02174 2.75866,-1.60424 2.82372,-1.64202c1.84968,-1.07401 3.69935,-2.14801 5.54903,-3.22202c1.24722,-0.71985 2.58763,-1.15999 3.93146,-1.67192c0.09761,-0.03718 3.02391,-1.15339 3.07614,-1.16738c1.53971,-0.41241 3.25673,-0.52794 4.83161,-0.78118c1.57429,-0.25315 3.24318,-0.68413 4.83405,-0.77297c1.59087,-0.08884 3.29737,0.15366 4.89006,0.22997c3.5121,0.16827 7.02212,0.3927 10.53252,0.59334c3.67275,0.15817 7.34031,0.30085 11.0058,0.58281c1.49135,0.11472 3.03414,0.1343 4.51474,0.34875c2.64818,0.38356 5.2884,1.05619 7.91272,1.58106c3.13905,0.62781 6.29014,1.12568 9.45186,1.62561c11.03827,1.74547 22.01847,3.73007 32.93684,6.10976c2.61189,0.56938 5.31304,0.89012 7.89888,1.55898c2.07238,0.53605 4.05903,1.41422 6.11744,2.00236c2.9363,0.83898 5.96714,1.34643 8.90499,2.18029c3.12318,0.88646 6.13244,2.03117 9.15338,3.20901c0.84079,0.32782 1.74435,0.52853 2.51968,0.99033c0.07846,0.04673 2.53384,1.89113 2.658,1.98426c1.89134,1.41869 3.72717,2.919 5.452,4.53557c1.14406,1.07225 2.25239,2.26515 3.46845,3.25438c0.28204,0.22943 2.50454,1.71392 2.69297,1.90721c0.06796,0.06971 1.77009,2.63471 1.871,2.78634c1.35807,2.04048 2.52695,4.12841 3.67685,6.29344c0.24855,1.05691 0.41745,2.13512 0.73734,3.17267c0.60108,1.94956 1.64827,3.7654 2.22781,5.72179c0.2582,0.87163 0.32712,1.79257 0.59224,2.66212c0.31073,1.01916 0.77962,1.98541 1.09301,3.00376c0.73963,2.40342 1.16749,4.90479 1.85754,7.32315c0.03572,0.12519 0.92128,2.98202 0.94664,3.07791c0.55283,2.09008 0.94359,4.24039 1.40998,6.35158c0.10851,1.42042 0.17321,2.85253 0.32263,4.26933c0.16648,1.57854 0.49525,3.1631 0.59209,4.74722c0.09807,1.60425 0.00155,3.25469 0.00155,4.86231c0,2.16863 0.04914,4.36569 -0.25801,6.52008c-0.00477,0.03343 -0.64917,3.12649 -0.66265,3.19123c-0.19487,0.93613 -0.30037,1.89574 -0.58763,2.80777c-0.03307,0.10501 -1.13358,2.83174 -1.19654,2.99919c-0.37448,0.99585 -0.70803,2.00661 -1.06213,3.00988c-0.71369,2.02075 -1.68024,3.93851 -2.40166,5.95206c-0.54165,1.51179 -0.78328,3.15484 -1.38696,4.64282c-0.21062,0.51915 -0.51576,0.99474 -0.77444,1.4917c-0.74066,1.42293 -1.48451,2.84421 -2.22675,4.26631c-0.69089,1.3237 -1.28545,2.6766 -1.95346,4.00624c-0.01446,0.02879 -1.60074,2.76355 -1.63232,2.81802c-0.44131,0.76109 -0.82228,1.56071 -1.32553,2.28235c-0.92237,1.32264 -1.99634,2.56972 -2.98647,3.84275c-1.19647,1.53745 -2.46452,3.23138 -3.90952,4.54775c-1.97647,1.80054 -4.24923,3.32701 -6.31111,5.03283c-3.22043,2.66432 -6.54971,5.14049 -10.05389,7.41821c-0.10238,0.06655 -2.71692,1.76818 -2.77406,1.79619c-0.05715,0.02801 -3.00363,1.05248 -3.11895,1.09265c-0.81584,0.28413 -1.62692,0.58209 -2.4343,0.88952c0.03972,0.05179 0.07987,0.10317 0.12067,0.15395zM416.83468,287.45444c0.00018,-0.07093 0.00027,-0.1421 0.00027,-0.21353c0,-11.2291 0,-22.45819 0,-33.68729c0,-11.2291 0,-22.45819 0,-33.68729c0,-10.81752 0,-21.63503 0,-32.45255c0,-1.37939 0,-2.75878 0,-4.13817c-0.31237,5.40548 -0.45964,10.83856 -0.45964,16.42569c0,10.73084 0,21.46167 0,32.19251c0,10.84651 0,21.69302 0,32.53952c0,7.77249 -0.29443,15.42051 0.45936,23.02109zM418.25934,305.29428c-0.1376,-0.10238 -0.24557,-0.34405 -0.32849,-0.69826c0.22889,0.20322 0.48785,0.38893 0.78027,0.55822c0.09272,0.17348 0.19101,0.3381 0.29576,0.49414c-0.2951,-0.08901 -0.54765,-0.20537 -0.74754,-0.3541z" fill="#000000"/><path d="M471.75373,300.40691c0.01457,3.29637 -0.14571,6.09925 -0.7417,6.27695c-2.00875,0.59893 -7.41821,-3.10805 -9.91038,-3.39768c-3.79842,-0.43171 -7.7079,-0.27557 -11.63822,0.08632c0.13092,-0.11842 0.23282,-0.30233 0.23282,-0.58786c0,-0.80208 -0.80279,-0.80203 -0.80279,-0.80203l-0.59328,0.0574c-2.59783,1.04582 -5.22059,1.76778 -7.86779,2.35445c-3.56128,0.41338 -7.11469,0.75848 -10.59015,0.75667c-1.52101,0.00044 -4.74761,0.62271 -7.48517,0.78372c-3.21748,-1.21732 -3.16673,-4.4704 -4.4338,-10.98512c0.21516,-3.43362 0.48828,-6.63023 0.48828,-7.63349c0,-11.2291 -0.0188,-22.46806 -0.0188,-33.69715c0,-11.2291 -0.03354,-22.51644 -0.03354,-33.74553c0,-10.81752 0.02811,-21.70351 0.02811,-32.52103c0,-9.30721 0.01954,-18.62661 0.01954,-27.93383c0,0 -0.00008,-0.49284 -0.38644,-0.70586c-0.1701,-6.71686 -0.64545,-13.15917 -1.97954,-20.27437c-1.67993,-8.93037 14.99425,-7.31222 22.16638,-7.44662c7.15555,-4.60946 22.62489,-1.73991 30.87996,-1.64921c2.2196,0.00606 2.80373,5.69532 2.82718,11.9942c-0.16827,0.09778 -0.39056,0.34764 -0.55524,0.45056c0,0 -0.62541,0.27432 -0.20031,0.95448c0.22418,0.35869 0.52009,0.41029 0.74898,0.37866c-0.06445,5.77527 -0.49664,11.66455 -0.49664,13.88364c0,10.73084 0.0227,21.47715 0.0227,32.20799c0,10.99834 0.0232,22.06778 0.0232,33.06612c0,11.19519 -0.03231,22.44203 -0.03231,33.63722c0,11.2291 -0.01816,22.46795 -0.01816,33.69705c0,0.92959 0.25483,5.17887 0.32878,9.2054c-0.21611,0.03107 -0.70074,0.17047 -0.70074,0.79342c0,0.64167 0.51373,0.76987 0.71905,0.79554z" fill="#949494"/><path d="M473.40938,298.84156c-0.08876,-3.86518 -0.49277,-7.78371 -0.49277,-9.25779c0,-11.2291 -0.00938,-22.47585 -0.00938,-33.70494c0,-11.19519 -0.0051,-22.41427 -0.0051,-33.60946c0,-10.99834 0.00243,-22.02143 0.00243,-33.01977c0,-10.73084 0.00791,-21.48118 0.00791,-32.21202c0,-2.68976 0.61734,-8.86098 0.66139,-14.84152c0.35085,-0.21174 0.69465,-0.43474 1.01712,-0.68692c0.0447,-0.03496 2.34748,-2.14779 2.42265,-2.21671c1.17393,-1.07619 2.3827,-2.10712 3.59429,-3.14054c2.43274,-2.07499 4.82475,-4.22677 7.3109,-6.2372c2.07084,-1.6746 4.23984,-3.249 6.35395,-4.86884c3.82376,-2.92979 7.67179,-5.84351 11.44427,-8.83914c1.67501,-1.33008 3.35348,-2.6625 5.02849,-3.99258c0.81907,-0.6504 1.5934,-1.36483 2.45762,-1.95392c0.86766,-0.59143 1.81899,-1.05376 2.72707,-1.58103c1.84968,-1.07401 3.70301,-2.14997 5.55269,-3.22398c1.16473,-0.68097 2.44031,-1.0816 3.69936,-1.56124c0.97387,-0.371 1.91531,-0.8481 2.92196,-1.11774c1.00666,-0.26964 2.06034,-0.32753 3.08927,-0.49299c1.5838,-0.25468 3.17087,-0.50828 4.75432,-0.76514c0.50051,-0.08119 0.99585,-0.21781 1.50212,-0.24608c1.53567,-0.08575 3.18953,0.15608 4.72665,0.22972c3.51093,0.16819 7.02637,0.39097 10.53561,0.59146c3.65847,0.15764 7.31917,0.29801 10.97039,0.57887c1.45895,0.11223 2.97329,0.12765 4.42162,0.33812c2.61604,0.38017 5.23009,1.04616 7.82284,1.56471c3.16035,0.63207 6.33969,1.13398 9.52284,1.6373c11.0078,1.74044 21.98108,3.72495 32.86926,6.09806c2.59145,0.56471 5.2785,0.88333 7.84387,1.54689c2.05874,0.53252 4.03721,1.40941 6.08239,1.99378c2.93987,0.84 5.97955,1.35099 8.9207,2.18637c3.07154,0.87242 6.03479,2.00336 9.00594,3.16178c0.77331,0.30151 1.61308,0.46999 2.32386,0.89861c0.8848,0.53356 1.65027,1.24714 2.47689,1.86702c1.8445,1.38319 3.63926,2.84873 5.32077,4.4256c1.17111,1.09823 2.31054,2.31795 3.5556,3.33077c0.80593,0.6556 1.8328,1.04016 2.55803,1.78406c0.33887,0.34759 0.5289,0.8153 0.79605,1.22062c0.29427,0.44647 0.59324,0.89106 0.8895,1.3362c1.29104,1.93977 2.39543,3.93016 3.51406,5.97379c0.05649,0.25023 0.65678,2.91933 0.70668,3.08117c0.60044,1.94749 1.65083,3.76524 2.22824,5.71886c0.25596,0.86602 0.32545,1.7822 0.58803,2.64623c0.31211,1.02702 0.78527,2.00248 1.10098,3.02839c0.62211,2.02154 1.04815,4.13423 1.56825,6.18477c0.35584,1.4029 0.85215,2.76361 1.22179,4.16109c0.53769,2.03283 0.91677,4.12774 1.37572,6.18011c0.10301,1.3958 0.16782,2.80495 0.3144,4.19695c0.16408,1.55816 0.49287,3.12686 0.58834,4.69043c0.09593,1.57113 -0.00057,3.19148 -0.00057,4.76584c0,2.09222 0.0555,4.21944 -0.24085,6.29804c-0.14854,1.0419 -0.43011,2.06252 -0.64459,3.09287c-0.18533,0.89032 -0.27832,1.80644 -0.55264,2.67348c-0.31389,0.9921 -0.79549,1.92543 -1.16175,2.89942c-0.00391,0.01039 -1.06586,3.02248 -1.07316,3.04318c-0.71199,2.01871 -1.67802,3.93795 -2.39872,5.94948c-0.5337,1.4896 -0.76866,3.1192 -1.36316,4.58455c-0.19143,0.47184 -0.47393,0.90251 -0.71006,1.35364c-0.74391,1.42123 -1.4846,2.84787 -2.22685,4.26997c-0.69468,1.33096 -1.29471,2.69505 -1.96531,4.03247c-0.47213,0.94159 -1.05827,1.82424 -1.58664,2.73546c-0.42314,0.72976 -0.78464,1.501 -1.26812,2.19225c-0.90363,1.29195 -1.95525,2.51378 -2.92333,3.75846c-1.14431,1.47211 -2.3596,3.11287 -3.74448,4.36974c-1.9543,1.77364 -4.1998,3.28643 -6.23538,4.97039c-2.74867,2.27387 -5.57074,4.49847 -8.56428,6.44377c-0.89673,0.58272 -1.79579,1.16666 -2.69136,1.75117c-0.42086,0.27468 -0.81037,0.60661 -1.26163,0.82783c-0.93139,0.45658 -1.96233,0.67922 -2.94188,1.02045c-0.95275,0.33196 -1.90067,0.68453 -2.84235,1.04668c-0.05064,0.01947 -0.10118,0.03969 -0.15149,0.06026c-0.6605,-0.59199 -1.10444,-0.6588 -1.93756,-0.94284c0,0 -0.76158,-0.25265 -1.01522,0.50827c-0.25364,0.76092 0.37521,0.92351 0.37521,0.92351c0.19431,0.06292 0.39618,0.10683 0.58875,0.17408c-0.07661,0.02073 -0.02202,0.13066 -0.10003,0.14665c-2.48658,0.50949 -5.10385,0.45267 -7.60816,0.87714c-3.50176,0.59354 -6.9289,1.64842 -10.41438,2.31906c-1.34684,0.25914 -2.74604,0.34078 -4.08266,0.64847c-0.04348,0.01001 -3.04803,0.83189 -3.12686,0.85339c-1.30276,0.30254 -2.61891,0.68795 -3.9368,0.91728c-0.53563,0.09321 -1.08582,0.1152 -1.61649,0.23345c-0.25102,0.05594 -2.80067,0.86679 -3.09695,0.94204c-0.50924,0.12933 -1.0371,0.18806 -1.5465,0.31675c-0.2754,0.06957 -0.52568,0.23793 -0.80683,0.27845c-0.87595,0.12625 -1.77373,-0.01051 -2.65873,-0.0089c-1.4181,0.00259 -2.83929,-0.16985 -4.22724,-0.49805c-0.26769,-0.0633 -2.55332,-0.89078 -2.85087,-0.9542c-0.88306,-0.18824 -1.80814,-0.13906 -2.69631,-0.30148c-2.09156,-0.3825 -4.17479,-0.97913 -6.24086,-1.47878c-0.64923,-0.0024 -1.30213,-0.00434 -1.95137,-0.00526c0,-0.02766 0,-0.05532 0,-0.08299c0,0 -0.00158,-0.80214 -0.80366,-0.80214c-0.80208,0 -0.8035,0.80199 -0.8035,0.80199c0,0.03775 0.00001,0.07549 0.00001,0.11324c-0.23763,0.06053 -0.57771,0.0799 -0.57771,0.61127c0,0.80208 0.80052,0.80197 0.80052,0.80197l0.58859,-0.00006c0.0055,0 0.01096,0 0.01646,0l0.21407,0.21013c0,0 0.60948,0.30557 0.98566,-0.21162c0.44624,-0.00101 0.89006,-0.00252 1.3363,-0.0044c2.03704,0.50885 4.07593,1.09322 6.14238,1.46937c0.57484,0.10464 2.14354,0.1889 2.61083,0.28807c0.97093,0.20605 1.85246,0.72063 2.818,0.9506c0.53132,0.12655 1.08237,0.13491 1.61935,0.23475c0.42803,0.07958 0.83554,0.25902 1.26856,0.30412c0.56345,0.05868 1.13053,0.00552 1.69702,0.0065c0.97065,0.00167 1.94689,0.12747 2.90793,-0.00883c0.33418,-0.04739 0.6345,-0.22923 0.96194,-0.31113c0.50289,-0.12579 1.01934,-0.18158 1.52171,-0.30944c1.02872,-0.26181 2.00543,-0.69686 3.0418,-0.92651c0.5133,-0.11374 1.04175,-0.13006 1.55969,-0.22036c1.35068,-0.23548 2.68933,-0.62208 4.02436,-0.93237c1.02255,-0.27878 2.03118,-0.5962 3.06379,-0.83508c1.32419,-0.30633 2.70638,-0.3783 4.0412,-0.63513c3.47119,-0.66788 6.86784,-1.70228 10.35491,-2.29429c2.54443,-0.43198 5.19776,-0.35905 7.72272,-0.8918c0.43736,-0.09228 0.85384,-0.25219 1.26629,-0.42915c0.11123,0.15336 0.36734,0.41655 0.52307,0.61221c0.99749,1.25326 1.75709,2.54565 2.57524,3.92139c1.08118,1.81803 1.7442,3.78288 2.52259,5.74656c0.97861,2.46878 2.08103,4.91691 2.96192,7.42186c0.52634,1.49673 0.92984,3.05494 1.39311,4.57253c0.40937,1.32665 0.50173,2.67686 0.67374,4.05287c0.13087,1.04698 0.31796,2.08947 0.39261,3.14196c0.07465,1.05248 0.03393,2.11119 0.05223,3.16616c0.03689,2.12707 -0.06211,4.25016 -0.13145,6.37614c-0.04276,1.31099 0.0354,2.70201 -0.1301,4.00402c-0.19747,1.55356 -0.5295,3.1335 -0.82799,4.67099c-0.38091,1.96196 -0.7428,3.89314 -1.48839,5.74677c-0.37553,0.93883 -0.60265,1.95168 -1.11887,2.82113c-0.74819,1.26018 -2.20826,2.19812 -3.29231,3.13612c-1.59443,1.37963 -3.34074,2.49648 -5.14589,3.58309c-0.43947,0.26454 -0.85886,0.56786 -1.31859,0.79538c-0.45973,0.22753 -0.95521,0.3771 -1.4321,0.56604c-1.7069,0.67626 -3.40959,1.36241 -5.17135,1.88786c-0.13242,0.0395 -3.02363,0.82027 -3.11774,0.85154c-0.99666,0.33112 -1.91357,0.90208 -2.93152,1.16045c-0.89297,0.22664 -1.8313,0.21934 -2.74538,0.33423c-0.88377,0.29226 -1.73855,0.69957 -2.6509,0.88415c-1.93111,0.39069 -3.9556,0.32368 -5.86732,0.88362c-0.61423,0.17991 -2.34626,1.01897 -2.99036,1.22675c-0.99397,0.32064 -2.03083,0.49878 -3.05044,0.72502c-2.59108,0.57493 -5.20052,0.93008 -7.83799,1.2172c-0.08362,0.0091 -3.17472,0.30098 -3.22605,0.30853c-2.10712,0.31003 -4.14059,0.88349 -6.26593,1.09472c-1.4946,0.14949 -3.00736,0.33218 -4.50811,0.39859c-2.65158,0.11734 -5.33702,0.02615 -7.99118,0.02732c-1.60404,0.00071 -3.21142,-0.00001 -4.81545,0c-1.02045,0 -2.04733,0.09698 -3.06345,0.00305c-2.06771,-0.19115 -4.14523,-0.8293 -6.1527,-1.32857c-2.03955,-0.50725 -4.09775,-0.81751 -6.07748,-1.52754c-0.89757,-0.32056 -1.76752,-0.74316 -2.69601,-0.95833c-0.06067,-0.01406 -3.14704,-0.45394 -3.25742,-0.46971c-2.02821,-0.28974 -4.10788,-0.51625 -6.10331,-0.99212c-2.5791,-0.61506 -5.0751,-1.60899 -7.64678,-2.2576c-2.07492,-0.52332 -4.24036,-0.68258 -6.30793,-1.19978c-2.00539,-0.50165 -3.97593,-1.34212 -5.95324,-1.95366c-4.13802,-1.27966 -8.30256,-2.7992 -12.22675,-4.63609c-1.25394,-0.58696 -2.4911,-1.22281 -3.73106,-1.83835c-0.5158,-0.25606 -1.00217,-0.58826 -1.55033,-0.76472c-0.52695,-0.16963 -1.10261,-0.13273 -1.64059,-0.26319c-0.9556,-0.23173 -1.89257,-0.55502 -2.79982,-0.93417c-0.6246,-0.26102 -2.29625,-1.21158 -2.89423,-1.44525c-0.66343,-0.25925 -1.43984,-0.23089 -2.05493,-0.59008c-0.40808,-0.2383 -0.75392,-0.57148 -1.13055,-0.85691c-5.71862,-2.86974 -12.02569,-9.68901 -18.52314,-10.38947z" fill="#ff0000"/></g></g></g></svg>