<svg version="1.1" xmlns="http://www.w3.org/2000/svg" xmlns:xlink="http://www.w3.org/1999/xlink" width="644.14625" height="399.85556" viewBox="0,0,644.14625,399.85556"><g transform="translate(96.2724,42.55402)"><g data-paper-data="{&quot;isPaintingLayer&quot;:true}" stroke-linejoin="miter" stroke-miterlimit="10" stroke-dasharray="" stroke-dashoffset="0" style="mix-blend-mode: normal"><path d="M133.65021,131.38345c-0.14568,-1.36968 -1.24228,-2.6441 -1.02208,-4.00378c0.23816,-1.4703 1.6095,-2.51194 2.2919,-3.83587c0.31083,-0.60306 1.34791,-1.83365 0.67502,-1.92016c-0.88251,-0.11345 -1.24003,1.3154 -2.01779,1.74754c-1.10095,0.61171 -2.26528,1.16369 -3.46635,1.67619c1.32432,4.02251 0.3633,7.24177 1.10568,11.37587c0.12693,0.70681 0.28813,1.4204 0.47771,2.1387c1.04364,-2.51911 2.25228,-4.39228 1.95591,-7.17854zM138.60287,155.58607c4.89854,12.34832 9.79707,24.69661 14.69562,37.04495c2.1649,5.55392 1.40598,11.00714 3.25166,16.60563c3.53488,10.72232 8.98926,20.89002 12.24649,31.67903c1.634,5.41229 2.08664,11.19198 3.54273,16.65551c1.7852,6.69847 4.62165,13.10511 7.17157,19.53299c2.58049,6.50495 5.72582,13.02916 7.81681,19.70475c0.58834,1.87836 2.36683,3.97237 1.463,5.72089c-0.88033,1.70308 -3.61655,1.2739 -5.41788,1.93015c-3.67548,1.339 -7.32303,2.75232 -10.95882,4.19467c-14.04748,5.57281 -28.75709,10.32227 -41.80638,17.96065c-2.46318,1.10439 -5.28997,1.59156 -7.41475,3.25665c-2.28578,1.79127 -4.0008,4.35832 -6.55705,5.73638c-11.16374,6.01832 -23.68625,10.0429 -35.45348,14.71095c-6.42025,2.54691 -13.7245,6.31083 -20.74729,6.48228c-3.57358,0.08725 -8.54813,-0.84262 -12.22561,-1.15593c-5.25754,-0.48989 -12.59196,-2.74217 -16.90915,-6.07263c-1.25199,-0.96582 -2.08584,-2.38341 -3.00895,-3.6672c-0.44033,-0.61234 -0.32264,-1.85747 -1.06385,-1.99689c-1.19096,-0.22403 -2.38488,1.72661 -3.44959,1.14784c-3.45839,-1.88001 -4.11695,-10.01468 -4.21487,-13.21651c-0.14205,-4.64601 1.42526,-8.23809 1.76029,-12.72589c0.13417,-1.79752 -0.98688,-7.28322 -0.50987,-8.81272c1.50339,-4.82061 7.70975,-8.52036 9.53636,-13.02196c0.47803,-1.17805 -0.21338,-2.65212 0.33468,-3.79929c0.71126,-1.48876 2.17332,-2.48311 3.26,-3.72465c1.25484,-0.47528 2.75247,-0.54485 3.7646,-1.42584c1.04164,-0.90668 1.01801,-2.6696 2.02548,-3.61409c1.93719,-1.81604 4.99985,-2.01108 7.06459,-3.68065c3.19796,-2.58591 5.49181,-6.4906 8.49018,-9.165c4.96951,-4.43255 12.60632,-6.59045 18.68533,-9.00198c11.03467,-4.37742 22.06931,-8.75483 33.10399,-13.13225c2.02164,-0.80198 4.83009,-0.39924 6.17451,-2.10879c0.86539,-1.10047 -1.45041,-5.53176 -1.50726,-5.67216c-1.59112,-3.92931 -3.12689,-7.88233 -4.69009,-11.82284c-6.87879,-17.34017 -13.7576,-34.68037 -20.63639,-52.02054c-2.00221,-5.0472 -3.4484,-12.54355 -6.64649,-16.90837c-1.63626,-2.23321 -3.5856,-4.33327 -4.62274,-6.90019c-0.51352,-1.27095 -3.47591,-8.45152 -3.16503,-9.34079c1.09202,-3.12375 9.09184,-5.29624 11.9298,-6.4511c11.00056,-4.47649 22.08366,-8.76065 33.1233,-13.14004c4.91607,-1.95019 9.90915,-4.42032 14.97563,-5.94079c1.9233,-0.57718 4.24745,-2.57025 5.8641,-1.37917c1.78356,1.31407 1.38223,4.34297 1.14882,6.54602c-0.14094,1.33018 -1.95859,2.04125 -2.19813,3.35723c-0.18985,1.04303 0.94711,1.9495 1.03998,3.00555c0.3498,3.9785 -0.46443,4.69235 -2.00101,8.02366l0.95548,2.94885c0,0 0.57357,2.04078 -1.4672,2.61438c-0.71812,0.20183 -1.25452,0.07998 -1.64825,-0.16277c1.57525,3.84764 3.49755,7.679 4.89513,11.20205z" data-paper-data="{&quot;index&quot;:null}" fill="#a1a8bb" fill-rule="nonzero" stroke="#715f5f" stroke-width="1" stroke-linecap="butt"/><path d="M345.58725,81.88555c-0.32461,-0.59798 -0.66513,-1.17503 -1.02428,-1.72609c-2.10062,-3.22288 -4.76273,-4.76621 -6.40523,-8.28002c-1.12271,0.41234 -2.24573,0.77533 -3.36392,1.05865c-0.78999,0.20018 -1.9255,-0.52818 -2.44275,0.10158c-0.39438,0.48019 1.06983,0.64963 1.65573,0.8566c1.28633,0.45437 2.85478,0.28794 3.93673,1.1189c1.00055,0.7684 1.06945,2.30677 1.8323,3.31158c1.5518,2.04404 3.53383,2.53429 5.81145,3.55884zM347.90008,87.03202c-0.11012,0.40907 -0.39132,0.82712 -0.99688,1.14342c-1.72099,0.89887 -2.61986,-0.82214 -2.61986,-0.82214l-1.21433,-2.56631c-3.11626,-1.25664 -4.10747,-1.22145 -6.37216,-4.09407c-0.60115,-0.76253 -0.41217,-2.08086 -1.19362,-2.65721c-0.98596,-0.72716 -2.64453,-0.06009 -3.57365,-0.8586c-1.53888,-1.32251 -3.70825,-3.09032 -3.34397,-5.08641c0.33019,-1.8093 3.13141,-1.93952 4.77632,-2.76219c4.33311,-2.16716 9.21361,-3.65501 13.71627,-5.4412c10.1113,-4.01112 20.19175,-8.11303 30.33792,-12.03485c2.61752,-1.01177 9.31613,-4.58591 12.00562,-3.18853c0.76564,0.39781 3.29869,7.04603 3.75426,8.21597c0.9201,2.36289 0.93876,4.98719 1.24982,7.50374c0.60795,4.91857 4.35029,10.82541 6.18413,15.44819c6.30034,15.88199 12.60067,31.76398 18.90101,47.64596c1.43174,3.60915 2.88961,7.20944 4.29569,10.82863c0.05023,0.12931 1.28826,4.53828 2.55625,4.72875c1.96993,0.2959 3.58979,-1.73602 5.44143,-2.47056c10.10672,-4.00931 20.21345,-8.01861 30.32017,-12.02792c5.56783,-2.20874 12.01518,-5.56466 18.11208,-5.7291c3.67857,-0.09918 7.65982,1.06432 11.41596,0.7808c2.42512,-0.18307 4.58987,-1.97595 7.02187,-1.98125c1.26485,-0.00276 2.35593,1.18767 3.61984,1.13825c1.22809,-0.04802 2.27039,-0.9419 3.4056,-1.41287c1.50413,0.14562 3.1034,-0.1093 4.51245,0.43687c1.0857,0.42085 1.55021,1.83793 2.60862,2.32335c4.04444,1.85495 10.50603,0.42529 14.53525,2.69589c1.27843,0.72043 3.97515,5.08234 5.19323,6.19674c3.04116,2.78227 6.34165,4.19349 9.16402,7.38082c1.94503,2.19652 6.61339,8.03453 5.48761,11.4596c-0.34659,1.05445 -2.36751,0.50333 -3.02099,1.40049c-0.40672,0.55837 0.45353,1.31477 0.54438,1.99954c0.19049,1.43567 0.5245,2.90454 0.29604,4.33463c-0.78777,4.93151 -4.26447,11.03846 -7.46278,14.66615c-2.25557,2.51789 -4.98891,6.26129 -7.42667,8.44687c-4.79068,4.29506 -12.02465,6.37126 -17.90499,8.70397c-10.77769,4.27545 -21.65507,9.45418 -32.8781,12.45033c-2.56982,0.68606 -5.32523,0.05108 -7.97417,0.29175c-2.46233,0.22373 -4.65317,1.67372 -6.98914,2.48385c-13.4976,3.09974 -26.28847,9.16828 -39.15481,14.27213c-3.33005,1.321 -6.64975,2.66872 -9.94141,4.08353c-1.61321,0.6934 -3.16836,2.69756 -4.82469,2.11463c-1.70056,-0.5985 -1.82938,-3.1115 -2.61639,-4.73346c-2.79705,-5.76436 -4.79599,-12.0898 -7.15948,-18.04772c-2.33549,-5.88734 -4.4666,-11.94039 -7.48191,-17.52804c-2.45941,-4.55748 -5.78641,-8.6958 -8.09504,-13.33081c-4.60205,-9.23961 -7.34887,-19.44439 -11.72389,-28.81381c-2.28434,-4.8921 -6.21433,-8.052 -8.25782,-13.11481c-4.4866,-11.3099 -8.97321,-22.61982 -13.45981,-33.92972c-1.28006,-3.22679 -2.40379,-6.98859 -3.76917,-10.54339z" data-paper-data="{&quot;index&quot;:null}" fill="#a1a8bb" fill-rule="nonzero" stroke="#a1a8bb" stroke-width="1" stroke-linecap="butt"/><path d="M289.89708,43.31776l0.26377,0.66492l-0.66492,0.26377z" data-paper-data="{&quot;index&quot;:null}" fill="#000000" fill-rule="nonzero" stroke="none" stroke-width="1" stroke-linecap="butt" opacity="0.966"/><path d="M323.59597,42.26259l0.66493,-0.26378z" data-paper-data="{&quot;index&quot;:null}" fill="#000000" fill-rule="nonzero" stroke="none" stroke-width="1" stroke-linecap="butt" opacity="0.966"/><path d="M479.46294,240.2302l2.14601,0.47689l-0.47688,1.66912l-1.31145,0.47689l-0.83456,-1.31145z" data-paper-data="{&quot;index&quot;:null}" fill="#fe00ff" fill-rule="evenodd" stroke="none" stroke-width="1" stroke-linecap="butt" opacity="0.004"/><path d="M418.21797,-6.99333l-1.9782,-5.2693c0,0 10.87405,-12.49787 17.05275,-14.94894c6.40178,-2.53957 23.57175,-0.494 23.57175,-0.494l2.38569,4.88342c0,0 -17.30108,-3.00256 -24.20821,-0.26253c-6.71344,2.6632 -16.82379,16.09135 -16.82379,16.09135z" data-paper-data="{&quot;index&quot;:null}" fill="#a5a5a5" fill-rule="nonzero" stroke="#000000" stroke-width="0" stroke-linecap="butt"/><path d="M-44.06625,275.67678l-30.0787,-75.82286l90.28061,-35.81404l-18.86876,-50.00177l-16.65363,6.0115l167.88938,-66.45246l22.59285,-9.03687l-2.40247,-3.80654l173.38253,-66.10304l27.65922,68.97394l27.50186,-10.9099l-7.75333,-18.04497l-2.20757,-4.62754l99.47356,-40.94823l40.38211,92.26126z" data-paper-data="{&quot;index&quot;:null}" fill="#a1a8bb" fill-rule="nonzero" stroke="#000000" stroke-width="1" stroke-linecap="round"/><path d="M-27.76905,270.05236l-22.63743,-57.93943l62.11191,-23.59873l24.15121,57.38229z" data-paper-data="{&quot;index&quot;:null}" fill="#2a333a" fill-rule="nonzero" stroke="#000000" stroke-width="1" stroke-linecap="round"/><path d="M72.35669,233.49877l-23.1924,-57.58916l123.38239,-48.77194l23.91956,59.85952l-123.4849,45.34301z" data-paper-data="{&quot;index&quot;:null}" fill="#2a333a" fill-rule="nonzero" stroke="#000000" stroke-width="1" stroke-linecap="round"/><path d="M219.41754,176.85161l-24.7991,-61.20204l63.0732,-24.67398l24.48198,62.15187z" data-paper-data="{&quot;index&quot;:null}" fill="none" fill-rule="nonzero" stroke="#000000" stroke-width="1" stroke-linecap="round"/><path d="M228.93625,172.85872l-22.31039,-57.11502l41.06769,-15.42403l21.73809,58.29619z" data-paper-data="{&quot;index&quot;:null}" fill="#3d4844" fill-rule="nonzero" stroke="#000000" stroke-width="1" stroke-linecap="round"/><path d="M233.94088,171.48057l-22.35128,-58.53001l22.62861,-7.2419l22.62256,57.90195z" data-paper-data="{&quot;index&quot;:null}" fill="#121212" fill-rule="nonzero" stroke="#000000" stroke-width="1" stroke-linecap="round"/><path d="M268.0044,86.79782l-84.5386,33.5362l-4.02973,-4.47319l83.46489,-32.41635l1.53731,-3.559l130.78001,-51.88003l1.93126,5.30564l-129.20615,51.25568z" data-paper-data="{&quot;index&quot;:null}" fill="#fdfdfd" fill-rule="nonzero" stroke="#000000" stroke-width="1" stroke-linecap="round"/><path d="M373.659,9.40845l126.41365,-51.18878l-0.58593,5.95725l-121.71656,50.01937z" data-paper-data="{&quot;index&quot;:null}" fill="#fdfdfd" fill-rule="nonzero" stroke="#000000" stroke-width="1" stroke-linecap="round"/><path d="M170.80075,43.69283l-0.27376,1.49643l-189.93404,75.17277l-3.72995,-4.59211l187.45186,-73.66766l-3.01796,-4.87455l200.38804,-76.37069l-0.79775,6.7352l-192.14403,73.10032z" data-paper-data="{&quot;index&quot;:null}" fill="#fdfdfd" fill-rule="nonzero" stroke="#000000" stroke-width="1" stroke-linecap="round"/><path d="M142.22915,55.85114l14.05642,37.6202l-77.65011,30.4566l-14.53706,-37.08257z" data-paper-data="{&quot;index&quot;:null}" fill="#273037" fill-rule="nonzero" stroke="#000000" stroke-width="1" stroke-linecap="round"/><path d="M312.61881,-14.69107l13.30945,37.04912l-69.39712,26.66223l-14.53706,-37.08257z" data-paper-data="{&quot;index&quot;:null}" fill="#273037" fill-rule="nonzero" stroke="#000000" stroke-width="1" stroke-linecap="round"/><path d="M368.22951,39.01539l-103.52181,40.89331l-1.35397,2.27191l-34.62988,-16.01413l130.24641,-51.1479z" data-paper-data="{&quot;index&quot;:null}" fill="#10172a" fill-rule="nonzero" stroke="#000000" stroke-width="1" stroke-linecap="round"/><path d="M414.08849,31.40553l19.96401,-7.39923l7.0375,20.80143l-20.50163,6.91858l-7.58009,-19.54531z" data-paper-data="{&quot;index&quot;:null}" fill="#273037" fill-rule="nonzero" stroke="#000000" stroke-width="1" stroke-linecap="round"/><path d="M459.8697,11.68295l6.91363,22.2384l-18.64349,6.35494l-6.65224,-19.39295z" data-paper-data="{&quot;index&quot;:null}" fill="#273037" fill-rule="nonzero" stroke="#000000" stroke-width="1" stroke-linecap="round"/><path d="M485.28678,3.16138l7.2803,19.66423l-19.248,8.32954l-6.50236,-19.45241z" data-paper-data="{&quot;index&quot;:null}" fill="#273037" fill-rule="nonzero" stroke="#000000" stroke-width="1" stroke-linecap="round"/><path d="M376.09045,41.44833l10.63369,30.30402l-20.93272,11.07961l-12.00376,-32.88315z" data-paper-data="{&quot;index&quot;:null}" fill="#273037" fill-rule="nonzero" stroke="#000000" stroke-width="1" stroke-linecap="round"/><path d="M316.78653,64.80053l18.58291,46.4068l-45.80475,17.47668l-17.98582,-45.77625z" data-paper-data="{&quot;index&quot;:null}" fill="#273037" fill-rule="nonzero" stroke="#000000" stroke-width="1" stroke-linecap="round"/><path d="M16.49138,164.06332l-105.97954,41.6948l-5.65004,-3.30998l109.60138,-43.82549z" data-paper-data="{&quot;index&quot;:null}" fill="#fdfdfd" fill-rule="nonzero" stroke="#000000" stroke-width="1" stroke-linecap="round"/><path d="M198.05207,67.97355c-7.24699,-5.24815 -8.22299,-12.25662 -4.15913,-19.64026c0.06091,-0.0579 0.09369,-0.09489 0.09369,-0.09489l0.86309,-1.15968c5.21701,-2.99693 11.49889,-6.58074 17.38569,-7.9967c3.4026,-0.81848 7.51409,-0.3178 11.08447,-0.42667c1.34831,2.80816 4.1315,7.53757 3.69938,9.96819c-0.82701,4.6517 -2.85331,11.71489 -6.09289,15.19133c-4.19499,3.96588 -11.97189,8.43499 -18.16853,7.35155c-2.43136,-0.42511 -2.78645,-1.80289 -4.70572,-3.19282z" data-paper-data="{&quot;noHover&quot;:false,&quot;origItem&quot;:[&quot;Path&quot;,{&quot;applyMatrix&quot;:true,&quot;segments&quot;:[[[289.194,131.60388],[0,0],[0.61847,0.97267]],[[290.73983,133.87831],[-1.02306,-0.6283],[2.60738,1.60128]],[[300.21264,133.80412],[-2.60801,1.0407],[2.08825,-0.99077]],[[305.66653,128.07122],[-1.20826,1.95486],[0.63133,-1.02146]],[[305.78825,122.92616],[0.10594,1.5115],[-1.63383,-0.59116]],[[300.71919,121.15003],[1.68523,0.24023],[-2.91559,-0.41565]],[[291.48142,121.64145],[2.89631,-0.41929],[0,0]],[290.88616,122.00818],[[290.82704,122.03403],[0.03793,-0.01525],[-3.16173,2.6095]],[[289.194,131.60385],[-2.33531,-3.67269],[0,0]]],&quot;closed&quot;:true,&quot;fillColor&quot;:[0,0,0,1]}],&quot;index&quot;:null}" fill="#ffffff" fill-rule="nonzero" stroke="#000000" stroke-width="1.5" stroke-linecap="butt"/><path d="M188.14531,52.05236c-0.02854,0.57967 0.16107,1.05147 0.16107,1.05147l0.33154,0.82992c2.85673,7.2013 5.49907,13.57325 0.62771,20.90229c-5.64033,8.48597 -20.6644,3.01836 -23.69345,-5.01371c-1.43092,-3.60708 -3.60366,-7.04214 -2.45769,-11.01467c2.62272,-9.09164 17.0489,-10.07376 25.0308,-6.75527z" data-paper-data="{&quot;noHover&quot;:false,&quot;origItem&quot;:[&quot;Path&quot;,{&quot;applyMatrix&quot;:true,&quot;segments&quot;:[[[273.13308,120.85315],[0,0],[-3.35674,-3.26583]],[[259.25756,119.26315],[3.13711,-4.05461],[-1.37074,1.77164]],[[258.30818,125.26701],[0,-2.1024],[-0.0792,4.65011]],[[269.16696,132.48038],[-4.53579,3.14676],[3.9174,-2.71774]],[[273.0029,121.89445],[0,4.1973],[0,0]],[273.0029,121.41265],[[273.13308,120.85314],[-0.13018,0.28622],[0,0]]],&quot;closed&quot;:true,&quot;fillColor&quot;:[0,0,0,1]}],&quot;index&quot;:null}" fill="#ffffff" fill-rule="nonzero" stroke="#000000" stroke-width="1.5" stroke-linecap="butt"/><path d="M185.14185,66.90219c-0.57492,-1.44928 0.13388,-3.09022 1.58315,-3.66514c1.44928,-0.57492 3.09022,0.13389 3.66514,1.58316c0.57492,1.44928 -0.13389,3.09022 -1.58316,3.66514c-1.44928,0.57492 -3.09021,-0.13389 -3.66514,-1.58316z" data-paper-data="{&quot;index&quot;:null}" fill="#000000" fill-rule="nonzero" stroke="none" stroke-width="1" stroke-linecap="butt"/><path d="M220.43791,53.78573c-0.57492,-1.44928 0.1339,-3.0902 1.58317,-3.66513c1.44928,-0.57492 3.09021,0.13387 3.66513,1.58314c0.57492,1.44928 -0.13388,3.09022 -1.58315,3.66514c-1.44928,0.57492 -3.09022,-0.13389 -3.66514,-1.58316z" data-paper-data="{&quot;index&quot;:null}" fill="#000000" fill-rule="nonzero" stroke="none" stroke-width="1" stroke-linecap="butt"/><path d="M136.13144,25.40644c0.36466,-1.70789 2.07256,-1.34328 2.07256,-1.34328l0.8719,0.22447c3.55142,0.0355 5.41275,1.98116 8.66953,2.80524c8.85695,2.24123 17.4767,6.1133 25.91658,9.8282c3.59021,1.58028 6.82386,3.90102 10.52671,5.09283c0,0 1.65935,0.54452 1.11483,2.20386c-0.54451,1.65934 -2.20386,1.11483 -2.20386,1.11483c-3.83149,-1.27789 -7.13151,-3.58135 -10.84762,-5.21595c-8.30744,-3.65415 -16.72194,-7.32629 -25.39689,-9.64631c-2.94415,-0.78739 -4.66283,-2.70952 -7.78921,-2.68991l-1.59126,-0.30143c0,0 -1.7079,-0.36465 -1.34326,-2.07254z" data-paper-data="{&quot;index&quot;:null}" fill="#000000" fill-rule="nonzero" stroke="none" stroke-width="1" stroke-linecap="butt"/><path d="M235.91976,-17.88429c1.55361,0.79762 0.75598,2.35123 0.75598,2.35123l-0.10052,0.1958c-1.86407,3.58042 -4.45227,7.32179 -7.18278,10.3599c-3.04041,5.77628 -6.96626,10.97723 -10.80849,16.30696c-1.743,2.41781 -2.40981,5.31427 -4.20278,7.76315c-4.29451,5.86555 -8.72076,12.15654 -12.42587,18.31568c0,0 -0.9123,1.48917 -2.40146,0.57689c-1.48917,-0.91229 -0.5769,-2.40146 -0.5769,-2.40146c3.86212,-6.21539 8.18462,-12.60911 12.58473,-18.55266c1.78113,-2.40591 2.42896,-5.26294 4.14394,-7.68018c3.81037,-5.3707 7.76806,-10.52636 10.81798,-16.32072c2.61436,-2.93913 5.19397,-6.49662 6.94438,-9.96281l0.10053,-0.19582c0,0 0.79762,-1.5536 2.35122,-0.75598z" data-paper-data="{&quot;index&quot;:null}" fill="#000000" fill-rule="nonzero" stroke="none" stroke-width="1" stroke-linecap="butt"/><path d="M436.44932,-6.2207l-90.75076,168.42427l-70.72397,-40.12942l89.59797,-150.03284z" fill="#823923" fill-rule="nonzero" stroke="#000000" stroke-width="1.5" stroke-linecap="round"/><path d="M334.23075,154.72944l-15.8082,20.21998l-76.39742,53.55482l-58.8503,21.60211l-54.5839,3.0547l-80.19921,-20.49368l-42.23289,-36.136l-14.05693,-31.03958l-8.53296,-33.23092l16.00741,-19.71781l13.01109,45.98459l12.29718,14.88272l31.72032,28.6822l32.8699,12.53363l48.35855,-1.16633l50.78227,-6.77745l52.01902,-18.31097l39.41887,-32.49229l12.11033,-25.14631z" fill="#236c82" fill-rule="nonzero" stroke="#000000" stroke-width="1.5" stroke-linecap="round"/><path d="M223.73593,91.25354c-0.02297,-0.12605 -0.02048,-0.23449 -0.00057,-0.32766c-1.21624,-0.91706 -2.55243,-1.5698 -3.78936,-2.48392c-5.29653,-3.91424 -9.9782,-8.28316 -16.01513,-11.12881c-5.49843,-2.6031 -14.63001,-4.3625 -20.12063,-0.80298c-2.09302,1.35689 -3.19665,3.86257 -4.14304,6.04972c-1.81508,4.6926 -0.62402,11.50579 2.90233,15.22889c2.85563,3.01495 7.09469,3.97051 10.66253,5.66554c2.67794,0.74884 5.54336,0.15752 8.21581,-0.30689c4.23351,-0.73569 8.49689,-1.03322 12.34612,-3.15973c2.24378,-1.23958 3.98792,-3.05035 6.4062,-3.99818c1.18441,-0.92736 2.3421,-1.87905 3.51761,-2.82279c0.38682,-0.31056 0.67094,-0.7315 0.98605,-1.11463c0.0562,-0.06833 0.14584,-0.16142 0.24711,-0.25813l-0.34273,0.06297c0,0 -0.73785,0.13446 -0.87231,-0.60338zM225.32727,90.28658c4.38591,0.4499 -2.99092,5.94674 -4.3859,7.00703c-2.41351,0.96811 -4.17104,2.76117 -6.42147,4.00674c-4.00342,2.21582 -8.41051,2.55949 -12.81519,3.32492c-2.97911,0.5177 -6.01557,1.04227 -8.99538,0.23501c-3.79364,-1.80592 -8.22647,-2.84437 -11.2514,-6.06438c-3.93866,-4.19267 -5.16411,-11.53368 -3.18022,-16.80108c1.07263,-2.48152 2.35089,-5.20966 4.71657,-6.74331c5.95589,-3.86115 15.57426,-2.11317 21.57617,0.70481c6.13002,2.88954 10.88718,7.30109 16.26374,11.27685c1.47763,1.09265 3.09056,1.83558 4.49309,3.0534z" fill="#000000" fill-rule="nonzero" stroke="none" stroke-width="0.5" stroke-linecap="butt"/><path d="M224.55901,91.84818l0.44123,-0.04573c-0.10127,0.09671 -0.19101,0.19039 -0.24721,0.25872c-0.31511,0.38312 -0.59978,0.80668 -0.9866,1.11723c-1.1755,0.94374 -2.33581,1.90334 -3.52022,2.8307c-2.41828,0.94783 -4.1718,2.77304 -6.41558,4.01262c-3.84923,2.12651 -8.14598,2.43989 -12.37948,3.17558c-2.67246,0.46441 -5.56176,1.05138 -8.2397,0.30254c-3.56785,-1.69503 -7.82966,-2.6713 -10.68529,-5.68625c-3.52636,-3.7231 -4.72263,-10.57284 -2.90755,-15.26544c0.94638,-2.18715 2.05699,-4.7088 4.15001,-6.06569c5.49062,-3.55952 14.67998,-1.81975 20.17841,0.78335c6.03693,2.84565 10.7524,7.26414 16.04893,11.17838c1.23693,0.91411 2.57266,1.57175 3.7889,2.48881c-0.01992,0.09317 -0.02251,0.20229 0.00046,0.32834c0.13446,0.73785 0.7737,0.58682 0.7737,0.58682z" data-paper-data="{&quot;noHover&quot;:false,&quot;origItem&quot;:[&quot;Path&quot;,{&quot;applyMatrix&quot;:true,&quot;segments&quot;:[[[223.73593,91.25354],[0.13446,0.73785],[-0.02297,-0.12605]],[[223.73537,90.92588],[-0.01992,0.09317],[-1.21624,-0.91706]],[[219.946,88.44196],[1.23693,0.91411],[-5.29653,-3.91424]],[[203.93088,77.31315],[6.03693,2.84565],[-5.49843,-2.6031]],[[183.81025,76.51016],[5.49062,-3.55952],[-2.09302,1.35689]],[[179.66721,82.55988],[0.94638,-2.18715],[-1.81508,4.6926]],[[182.56954,97.78877],[-3.52636,-3.7231],[2.85563,3.01495]],[[193.23208,103.45431],[-3.56785,-1.69503],[2.67794,0.74884]],[[201.44789,103.14742],[-2.67246,0.46441],[4.23351,-0.73569]],[[213.79401,99.98768],[-3.84923,2.12651],[2.24378,-1.23958]],[[220.20021,95.9895],[-2.41828,0.94783],[1.18441,-0.92736]],[[223.71782,93.16671],[-1.1755,0.94374],[0.38682,-0.31056]],[[224.70386,92.05208],[-0.31511,0.38312],[0.0562,-0.06833]],[[224.95097,91.79395],[-0.10127,0.09671],[0,0]],[224.60824,91.85692]],&quot;closed&quot;:true}]}" fill="#600000" fill-rule="nonzero" stroke="none" stroke-width="0.5" stroke-linecap="butt"/></g></g></svg>