<svg version="1.1" xmlns="http://www.w3.org/2000/svg" xmlns:xlink="http://www.w3.org/1999/xlink" width="2878.25006" height="1619.57958" viewBox="0,0,2878.25006,1619.57958"><g transform="translate(1117.37278,629.80931)"><g data-paper-data="{&quot;isPaintingLayer&quot;:true}" stroke-linecap="butt" stroke-linejoin="miter" stroke-miterlimit="10" stroke-dasharray="" stroke-dashoffset="0" style="mix-blend-mode: normal"><path d="M696.84516,25.58914c-0.6075,1.09245 -1.69995,0.48495 -1.69995,0.48495l-2.08696,-1.16054c-2.23995,-1.24734 -4.24316,-2.62628 -6.28973,-4.16761c-3.23319,-1.64184 -5.54145,-4.79211 -8.46681,-6.89448c-2.79914,-2.01166 -5.59968,-2.58091 -7.78713,-5.54998c-0.48439,-0.65747 -0.91024,-1.82374 -1.12313,-3.03934c-0.00139,-0.00104 -0.00278,-0.00208 -0.00417,-0.00313c-4.8519,-3.63756 -9.5309,-6.86805 -13.38919,-11.57116c-1.48539,-1.81063 -3.74346,-3.84995 -4.83924,-5.91111c-0.56464,-1.06209 -1.64328,-2.26712 -1.22413,-3.39458c0.39096,-1.05164 2.02038,-0.97633 3.03057,-1.4645c0,0 1.18585,-0.39528 1.58114,0.79057c0.39528,1.18585 -0.79057,1.58114 -0.79057,1.58114c-0.50381,0.0165 -1.3072,-0.41135 -1.51144,0.0495c-0.19965,0.45048 0.68895,0.70545 1.01194,1.07756c0.51581,0.59425 1.00322,1.21259 1.50328,1.82016c1.58868,1.93022 3.1749,3.86274 4.75689,5.79845c2.55898,3.13114 6.14074,5.30293 9.37012,7.72406c0.18811,0.14103 0.37606,0.28243 0.56388,0.42415c0.06321,-0.19673 0.14223,-0.37706 0.23852,-0.5366c0.38581,-0.63922 1.34518,-0.70255 1.8688,-1.23478c1.70636,-1.7344 2.22322,-3.97153 3.56728,-5.77094c0.32508,-0.43521 1.17002,-0.25234 1.46874,-0.70604c0.86413,-1.31243 0.21345,-3.20232 0.85821,-4.63531c1.08039,-2.40118 1.62255,-2.37614 3.57248,-3.51487c-0.1038,-2.75953 2.015,-3.16943 3.84842,-4.72269c1.77406,-1.50298 3.28518,-3.61496 4.62444,-5.49174c4.14822,-5.81313 8.57701,-11.48784 12.8114,-17.17893c1.31794,-1.77133 1.86874,-4.21152 3.05423,-6.08149c1.38326,-2.18193 2.95429,-3.68926 4.05105,-6.06795c1.35175,-2.90569 2.77939,-5.79699 3.26754,-9.00813c0.15017,-0.98789 -0.45809,-2.22012 0.1758,-2.99256c0.72683,-0.8857 2.11272,-1.3964 3.23448,-1.16315c0.64051,0.13318 0.03806,1.37932 0.40615,1.92015c0.23033,0.33843 0.82412,0.16184 1.16508,0.38842c1.23796,0.82268 2.1314,2.07532 3.26148,3.04085c6.89818,5.89377 13.77286,11.77816 20.33756,18.0762c4.36451,4.19516 10.29034,7.75339 15.63722,10.59893c2.19622,1.1688 4.84461,1.75108 6.93416,3.10147c0.29868,0.19302 2.88169,2.91813 3.04184,3.03764c0.72153,0.53847 3.30764,1.30492 3.89063,1.53935c4.35942,1.75296 9.46581,4.30513 12.83651,7.564c1.08049,1.06402 2.07061,2.24273 3.49551,2.88603c0.89003,0.40182 2.09762,0.18327 2.8,0.86171c0.61126,0.59042 0.09955,1.81526 0.64563,2.46643c0.40296,0.48051 1.22253,0.28553 1.82055,0.47433c1.61528,0.50995 2.94438,1.68003 4.46554,2.42519c0.75607,0.37037 1.69388,0.24572 2.44891,0.61819c2.02266,0.99783 3.57302,3.3089 5.41149,4.60775c1.76409,1.2463 4.15954,1.61457 5.91046,2.89105c2.00812,1.46398 3.2756,3.90961 5.22612,5.44004c2.54507,1.99693 5.68444,3.48771 8.33587,5.41602c2.53876,1.84637 4.63614,4.11153 7.0873,5.98041c2.51366,1.91653 5.81343,2.96241 8.48622,4.66065c5.45369,3.46516 10.28246,7.73163 16.14278,10.59852c3.62323,1.7725 7.61291,2.98958 11.43148,4.25947c4.74141,1.57679 9.68886,2.77483 14.35808,4.53871c11.11151,4.19759 22.25816,10.62799 32.48802,16.63162c2.19711,0.2081 4.56139,0.26053 6.71412,0.72923c3.81083,0.8297 7.43516,2.96034 11.15988,4.12555c10.00621,3.13026 21.04753,5.78526 31.48785,6.77331c4.14786,0.39503 8.45964,0.49701 12.56471,1.20265c5.39307,0.92703 10.49716,3.58939 15.84882,4.7391c3.23623,0.69525 6.62679,0.72045 9.88429,1.31596c3.7498,0.68551 7.36249,1.98561 11.131,2.61182c1.0749,0.185 2.43574,1.11362 3.24914,0.38699c0.52227,-0.46656 0.64719,-1.25024 1.07267,-1.80649c1.92533,-2.51704 3.80871,-3.66636 5.13219,-6.54749c1.39525,-3.03735 3.73864,-5.48947 5.67524,-8.15886c2.85135,-3.93027 4.61225,-8.42728 7.28967,-12.45027c1.79246,-2.69328 4.02359,-4.95181 5.65031,-7.77163c1.69477,-2.91961 4.25532,-5.16658 5.97286,-8.01941c1.03557,-1.72008 0.86298,-2.93093 2.01135,-4.66047c1.71841,-2.58809 4.98225,-4.78784 7.41821,-6.61291c2.66009,-1.99299 4.80696,-4.77098 7.47948,-6.67036c4.31818,-3.06897 10.68745,-5.84854 15.69311,-7.52392c7.83519,-2.60959 15.86838,-6.00402 23.95232,-7.72048c3.77453,-0.80144 7.85008,-0.13346 11.64097,-0.84466c4.67155,-0.87642 9.21844,-2.86615 13.88967,-3.9042c4.67352,-1.03446 9.01876,-3.48051 13.68193,-4.42409c3.24836,-0.6573 6.75324,-0.24151 10.03974,-0.6761c8.73134,-1.15458 17.3281,-3.99967 26.093,-5.3144c9.42493,-1.41374 18.99663,-1.65992 28.40926,-3.01233c2.31118,-0.33207 4.54721,-1.22775 6.86454,-1.52075c4.47685,-0.56605 9.44631,-0.01832 13.96266,0.00868c10.01093,3.26177 19.88346,7.543 28.33928,13.88387c3.34125,2.50554 7.01894,5.21729 9.57362,8.58051c1.28211,1.68789 2.05416,4.24129 2.96754,6.1455c1.43675,2.99532 3.20575,6.00911 4.36863,9.11924c2.02727,5.42196 3.139,11.39569 4.67466,16.97992c1.09389,3.97777 2.69753,8.11857 3.34404,12.18992c0.64208,4.04345 0.37583,8.46226 0.5538,12.55557c0.27372,6.29557 0.69978,12.87342 0.00588,19.14325c-0.06812,0.61547 -0.53831,5.11402 -0.7164,5.46397c-0.79113,1.55456 -4.4661,3.3271 -5.86568,4.32291c-2.08348,1.4824 -3.29662,3.81435 -5.31343,5.23706c-3.1552,2.22576 -8.16071,3.29225 -11.71083,4.94917c-7.36231,3.42996 -13.54403,8.67315 -20.29079,13.10314c-7.65995,5.0296 -15.68537,9.57866 -23.51318,14.34342c-2.02482,1.2325 -4.39957,2.34523 -6.26769,3.8016c-3.07912,2.40045 -5.10742,6.16295 -8.10773,8.67259c-3.15045,2.63524 -7.16608,4.64799 -10.61756,6.8813c-5.38564,3.48483 -10.68827,7.19158 -16.24057,10.4039c-15.05836,8.70763 -30.77146,16.07757 -46.19874,24.11807c-14.60144,9.23303 -29.78454,17.19852 -45.99208,23.33185c-9.95402,3.76491 -19.62938,7.60508 -28.64927,13.30788c-2.82812,1.78807 -5.88025,3.15425 -8.68584,4.9079c-0.78312,0.48949 -1.31793,1.39409 -2.19065,1.69614c-1.89821,0.65697 -4.81566,-0.00332 -6.64952,-0.58104c-1.43302,-0.81389 -2.76363,-1.83546 -4.28906,-2.45917c-3.46952,-1.41858 -7.63327,-1.31242 -11.24111,-2.23314c-4.10674,-1.04805 -8.47235,-2.52678 -12.46743,-3.94876c-2.41037,-0.85792 -4.36389,-2.57984 -6.61152,-3.67538c-1.22042,-0.59486 -2.7267,-0.35247 -3.97589,-0.88426c-1.96533,-0.83665 -4.2043,-2.64773 -6.05482,-3.75881c-2.41239,-1.68712 -4.84268,-3.88287 -7.45154,-5.23103c-2.6618,-1.37552 -5.81758,-1.77565 -8.53376,-3.13137c-9.562,-4.77268 -19.1082,-9.57631 -28.65191,-14.38541c-15.59882,-7.8603 -30.22742,-17.87958 -45.09401,-27.04731c-14.8763,-9.17372 -29.4092,-18.92064 -44.05776,-28.4536c-14.61812,-9.51314 -28.16749,-21.00817 -42.03679,-31.58527c-13.83809,-10.55329 -29.11836,-19.37656 -43.7714,-28.76366c-14.54225,-9.31613 -29.58461,-17.77917 -44.52861,-26.43371c-14.16049,-8.20078 -27.88743,-16.9853 -41.63575,-25.84101c1.09822,0.99185 2.24478,1.90086 3.54119,2.5379c2.02409,1.51218 3.9809,2.88245 6.1904,4.10934l2.08696,1.16054c0,0 1.09245,0.6075 0.48495,1.69995z" fill="#2f2c31" fill-rule="nonzero" stroke="none" stroke-width="0.5"/><path d="M507.58729,129.06677c0.2028,-0.60839 0.61368,-0.80061 0.96576,-0.84355c-0.19079,-1.34617 -0.22513,-2.67914 -0.02925,-3.92818c-0.07344,-0.1368 -0.15398,-0.2687 -0.24611,-0.39248c-0.88968,-1.19526 -3.00347,-2.52254 -3.6874,-3.80319c-0.28169,-0.52745 0.00931,-1.20073 -0.07901,-1.79213c-0.1525,-1.02112 -1.05534,-2.08452 -0.64118,-3.03025c0.341,-0.77866 1.8676,-0.24685 2.37499,-0.92887c0.43729,-0.58779 -0.39874,-1.5534 -0.04926,-2.19728c0.60185,-1.10887 2.40571,-1.17349 3.02801,-2.27101c0.74149,-1.30772 0.81124,-3.02957 1.85638,-4.11013c1.11469,-1.15247 2.56762,-1.97009 3.57701,-3.21582c2.01088,-2.37324 3.8111,-2.64005 6.25835,-4.38903c0.48536,-0.34687 3.50816,-2.71979 3.76647,-2.86282c1.43426,-0.79419 3.19635,-0.88346 4.61044,-1.71304c1.20407,-0.70637 1.84955,-2.1135 2.9495,-2.97308c2.45079,-1.91525 5.83201,-2.66006 8.28401,-4.50789c3.60037,-2.71322 4.39877,-8.24251 8.3944,-10.65017c0.81806,-0.49294 1.86817,-1.32953 2.72066,-0.89887c0.9982,0.50427 0.97996,2.01058 1.46995,3.01587c2.16732,4.32142 5.07293,7.89467 7.5259,12.02451c3.26258,5.49291 5.0517,11.79094 8.26179,17.27918c0.78442,1.3411 1.20609,2.94666 2.29028,4.05949c1.23431,1.26691 3.20616,1.93778 3.9511,3.54204c0.35582,0.76629 0.14743,1.70746 0.45933,2.49266c0.58411,1.4705 1.77649,2.61889 2.65363,3.93577c2.97819,4.47128 5.9622,9.36548 9.7019,13.24815c1.62206,1.68408 2.18186,1.47668 3.83007,3.24653c2.26563,2.43284 3.86556,5.55248 5.95996,8.13605c2.09853,2.58867 4.74275,4.80693 6.7125,7.49388c1.96428,2.6795 3.4807,5.87086 5.17312,8.73203c1.55438,2.90213 3.6454,5.91081 4.80152,8.98977c1.15802,3.08398 1.06917,6.63996 2.23693,9.71401c1.38188,3.63772 4.57497,6.6228 6.15614,10.19015c0.97835,2.2073 1.01579,4.94956 2.10928,7.09089c1.59386,3.12115 5.07974,6.05449 7.13932,8.99887c3.8147,5.46047 7.01082,11.22837 10.92894,16.58476c3.32128,4.54045 7.85872,8.19274 11.084,12.92365c2.89913,4.25251 4.85008,8.88706 6.80566,13.61305c1.90177,4.59594 4.27285,9.22403 5.7729,13.96389c2.24227,7.08514 2.66341,14.73955 4.79483,21.85906c1.4104,4.7111 3.57633,9.32411 5.33662,13.91829c1.48287,3.87073 3.65771,7.73903 4.42229,11.83057c0.20825,1.11439 0.88831,2.31622 0.46723,3.3688c-0.29394,0.73476 -1.46643,0.59691 -2.18572,0.9269c-3.13908,1.44011 -5.88914,1.31862 -9.19869,1.92039c-2.00219,0.36406 -4.0213,2.33195 -5.95567,2.99986c-2.16377,0.74712 -4.67832,0.44172 -6.84796,1.15297c-2.99258,0.98103 -6.00161,2.58709 -8.9647,3.73923c-3.79696,1.89508 -8.28221,2.72523 -11.95461,4.84043c-1.4207,0.81829 -2.39061,2.38657 -3.8939,3.0845c-1.00158,0.465 -3.81015,0.55603 -4.91244,0.93868c-4.58813,1.59269 -8.65202,5.05072 -13.22,6.86706c-3.84158,1.5275 -7.92831,2.06718 -11.48996,4.22736c-7.11084,4.27763 -14.5852,9.38624 -22.9497,10.77723c-3.00364,0.4995 -6.51828,0.01325 -9.56456,0.01325c-5.67129,0 -11.32185,0.02727 -16.98636,-0.26767c-2.84157,-0.17525 -4.58267,-1.15042 -7.23328,-2.03392c-6.60837,-2.20269 -14.73063,-5.82271 -19.56247,-10.98446c-2.09298,-2.23589 -3.21668,-5.61808 -4.98703,-8.11942c-2.55315,-3.60736 -5.24368,-6.65166 -7.40113,-10.56079c-0.05485,-3.09501 -0.47625,-6.67031 0.0151,-9.73174c0.10065,-0.62711 1.3716,-4.11662 1.53862,-4.84412c0.76439,-3.32939 0.80748,-6.63086 2.3336,-9.79486c0.92892,-1.92588 2.86285,-3.75376 4.25432,-5.33875c4.51405,-5.14184 9.11342,-9.17697 15.25248,-12.2465c2.06886,-1.03194 4.59357,-2.3453 6.89811,-2.74624c2.21717,-0.38573 4.69915,-0.2171 6.87589,-0.71684c1.30557,-0.29974 2.07407,-1.72901 3.26388,-2.3444c1.75913,-0.90986 5.29274,-2.51487 7.17455,-2.97433c0.69773,-0.17036 1.44134,0.26794 2.14957,0.14847c0.74945,-0.12642 -0.24218,-1.509 -0.49512,-2.22571c-0.29955,-0.84879 -0.68107,-1.68056 -0.83857,-2.56677c-0.25986,-1.46211 0.30033,-2.99724 0.0173,-4.45505c-0.10754,-0.55389 -0.64333,-0.96134 -0.757,-1.514c-0.63815,-3.10275 0.75457,-3.5724 -1.48866,-6.18268c-1.0169,-6.34985 -4.16793,-11.82497 -5.33921,-18.11382c-0.58516,-3.14181 -0.3439,-6.35626 -0.87399,-9.47669c-0.40494,-2.38373 -1.53349,-4.739 -2.13394,-7.08361c-1.21639,-4.74969 -1.65169,-9.69139 -3.37338,-14.29546c-6.00059,-16.11734 -11.22989,-33.36927 -20.27132,-48.04743c-5.07286,-8.24091 -12.89344,-14.37363 -17.23913,-23.1501c-0.82217,-1.66044 -1.66363,-3.6791 -2.23609,-5.77943l-0.72717,-0.20451c0,0 -1.18585,-0.39528 -0.79057,-1.58114zM511.43157,127.08276c0.02321,0.66239 -0.03946,1.33351 -0.07699,2.00073l0.50156,0.18521c0.79591,1.39947 1.6474,2.7682 2.54016,4.10796c0.18658,0.41918 0.38639,0.83271 0.55975,1.25753c0.06413,0.15715 0.11778,0.65233 0.15177,0.48604c0.51494,-2.51935 -1.78587,-3.96201 -2.85597,-5.75801c-0.37706,-0.63284 -0.16372,-1.5547 -0.64258,-2.11447c-0.0535,-0.06253 -0.11316,-0.11695 -0.1777,-0.16498z" fill="#2f2c31" fill-rule="nonzero" stroke="none" stroke-width="0.5"/><g><path d="M287.93966,231.01965c17.1175,-14.31596 34.23506,-28.63195 51.35257,-42.9479c50.67975,-41.69742 101.31441,-83.58681 151.90358,-125.6678c1.66165,2.84135 3.01705,5.83087 4.06535,8.96918c-2.75111,2.98629 -5.73813,5.71351 -8.96189,8.18232c2.02904,2.42611 4.05807,4.85221 6.0871,7.27832c18.73235,-15.94508 37.48948,-31.86134 56.27096,-47.7485c0.33817,0.40435 0.67634,0.80871 1.01451,1.21306c-0.59204,0.37832 -0.95117,0.90778 -1.07706,1.58795c0.78417,2.11425 1.33895,4.28448 1.66506,6.50998c-2.79329,2.67951 -5.70205,5.22669 -8.72663,7.64197c0.67634,0.80871 2.02904,2.42611 2.02904,2.42611l96.23551,-80.48505c0,0 -2.5242,-2.47012 -3.78607,-3.70534c56.00229,-46.15282 112.00461,-92.3023 168.01143,-138.45218c0.33817,0.40436 0.67635,0.8087 1.01452,1.21305c-0.1455,2.37315 -0.17495,4.8029 -0.08834,7.28924c-6.30056,5.6129 -12.71381,11.09106 -19.23976,16.43446c5.66768,6.97401 11.68764,13.62152 18.0555,19.94555c9.5769,12.13302 19.49685,23.99424 29.75918,35.58287c-1.75084,1.46429 -3.50571,2.93196 -5.25656,4.39625c-93.85762,70.6165 -187.83834,141.1992 -281.94242,211.74694c1.86052,1.62562 3.57381,3.39978 5.13876,5.32274c-63.33154,54.36955 -126.67728,108.72211 -190.03763,163.05803c-19.0412,-23.47169 -38.16016,-46.87984 -57.35696,-70.22469c-2.96522,2.47991 -5.93048,4.95987 -8.89571,7.43979c-1.68065,-1.69371 -3.41563,-3.22044 -5.20494,-4.58022c-0.67634,-0.80871 -1.35269,-1.6174 -2.02904,-2.42611z" fill="#000000" fill-rule="evenodd" stroke="none" stroke-width="1"/><path d="M290.50539,231.62254c7.86046,-7.03206 15.90215,-13.98666 24.12506,-20.86378c58.60055,-48.66374 117.36742,-97.12532 176.30062,-145.38472c1.12314,2.01093 1.74581,4.12432 1.86724,6.3409c-54.22726,45.81025 -108.67957,91.3506 -163.35775,136.62169c-11.77686,8.64669 -23.133,17.80063 -34.06838,27.46178c-1.5925,-1.52974 -3.21477,-2.9217 -4.86678,-4.17586z" fill="#191c24" fill-rule="evenodd" stroke="none" stroke-width="1"/><path d="M305.28241,229.57166c12.27508,-10.30091 24.99126,-20.01967 38.14862,-29.15629c46.76779,-40.46642 93.98604,-80.41481 141.65517,-119.84543c2.47464,2.51934 4.40346,5.37284 5.78566,8.56119c2.95444,2.48006 5.70406,5.21973 8.2485,8.21937c12.739,16.70516 25.80508,33.14985 39.19856,49.33445c-58.94733,50.57026 -117.95823,101.06861 -177.03222,151.49399c-18.50748,-22.99999 -37.1755,-45.86894 -56.00427,-68.60729z" fill="#596476" fill-rule="evenodd" stroke="none" stroke-width="1"/><path d="M520.9629,64.30856c8.5709,-7.28261 17.25324,-14.42949 26.04753,-21.44087c0.36125,1.60362 0.78,3.20039 1.25707,4.78968c-17.04693,14.94403 -34.32127,29.62026 -51.82309,44.02859c-1.01452,-1.21305 -2.02904,-2.42611 -3.04355,-3.63916c9.48189,-7.7027 18.66925,-15.61545 27.56204,-23.73825z" fill="#191c24" fill-rule="evenodd" stroke="none" stroke-width="1"/><path d="M638.64358,-25.8657c54.60234,-45.08981 109.31495,-90.04612 164.13701,-134.86829c0.1138,1.50822 0.23166,3.01309 0.34545,4.52132c-41.38516,34.04519 -82.72097,68.15761 -124.00336,102.33391c-12.40658,9.31883 -24.21106,19.3058 -35.41379,29.96136c0.97614,1.85572 1.6767,3.78947 2.10249,5.80055c-12.19678,10.65344 -36.86211,31.51622 -36.86211,31.51622l-43.26919,34.12597c0,0 -11.3259,11.26913 -17.72162,16.19555c-1.12723,-1.34783 -3.38172,-4.04351 -3.38172,-4.04351l97.85291,-81.83774c0,0 -2.44504,-2.5546 -3.78607,-3.70534z" fill="#191c24" fill-rule="evenodd" stroke="none" stroke-width="1"/><path d="M497.45894,92.89902c14.28693,-11.94865 28.57425,-23.89763 42.86118,-35.84628c2.26698,3.09844 4.74693,6.06371 7.4398,8.89572c6.33497,-5.29815 19.00449,-15.89411 19.00449,-15.89411l55.73424,-45.92528c0,0 17.52608,-14.65787 25.94464,-22.38556c-0.13985,-2.31585 -1.0882,-4.27142 -2.84502,-5.86673c5.12192,-4.28363 10.24341,-8.56692 15.36533,-12.85056c5.56301,7.70337 11.24576,15.31986 17.04827,22.84947c28.16227,-23.45275 56.71706,-46.41808 85.65984,-68.89156c13.05535,-11.37286 26.10497,-22.74437 39.15222,-34.1187c9.40171,11.15119 18.89137,22.22677 28.47267,33.22296c-87.31601,65.08641 -174.35463,130.54969 -261.11472,196.38954c-11.45594,-13.32395 -22.8629,-26.68958 -34.2216,-40.09693c-8.15788,5.85296 -16.29143,11.73913 -24.4007,17.65842c11.38526,13.61328 22.77017,27.22616 34.15542,40.83944c-0.67405,0.56372 -1.3477,1.12714 -2.02175,1.69086c1.58321,1.97848 3.43082,3.63962 5.54312,4.98457c-3.10015,2.59277 -6.19992,5.1852 -9.30007,7.77797c-14.1591,-17.478 -28.31837,-34.95538 -42.47737,-52.43326z" fill="#2f2c31" fill-rule="evenodd" stroke="none" stroke-width="1"/><path d="M350.62066,220.51512c12.75505,-10.36059 25.58251,-20.6305 38.48316,-30.81043c1.93862,-1.6818 3.78013,-3.45097 5.52491,-5.30785c6.87616,8.22179 13.75246,16.44374 20.62853,24.66541c-14.90406,12.03323 -29.82129,24.05068 -44.75059,36.05209c-6.64653,-8.1855 -13.27489,-16.38541 -19.886,-24.59922z" fill="#000000" fill-rule="evenodd" stroke="none" stroke-width="1"/><path d="M436.7474,148.48439c14.15899,-11.57166 28.28897,-23.15994 42.39066,-34.76559c6.67927,8.47359 13.82459,16.46999 21.43722,23.98906c-14.49937,11.69546 -29.01227,23.37474 -43.53753,35.03759c-6.76344,-8.08702 -13.5269,-16.17403 -20.29035,-24.26104z" fill="#000000" fill-rule="evenodd" stroke="none" stroke-width="1"/><path d="M352.84823,220.71366c13.98165,-11.2176 27.95503,-22.44588 41.92014,-33.68489c6.0871,7.27832 12.17422,14.55663 18.26132,21.83495c-14.11659,11.33066 -28.2244,22.67185 -42.32448,34.02306c-5.93267,-7.40671 -11.88514,-14.79763 -17.85696,-22.17312z" fill="#1e272f" fill-rule="evenodd" stroke="none" stroke-width="1"/><path d="M438.97497,148.68292c13.34724,-10.88088 26.66852,-21.79282 39.96457,-32.73656c6.19981,7.41309 12.39976,14.82634 18.59948,22.2393c-13.44728,10.76127 -26.88136,21.53831 -40.30272,32.33221c-6.0871,-7.27832 -12.17422,-14.55663 -18.26132,-21.83495z" fill="#1e272f" fill-rule="evenodd" stroke="none" stroke-width="1"/><path d="M662.17666,-37.9883c40.6148,-33.62127 81.38684,-67.03316 122.31978,-100.23869c5.5224,6.61132 11.17932,13.10412 16.97481,19.47502c-4.41577,3.54463 -8.50464,7.42264 -12.26289,11.63023c-5.44088,-6.90002 -10.94369,-13.75086 -16.50427,-20.55572c-8.79513,7.30536 -17.32791,14.89977 -25.60647,22.78992c-3.18487,2.59256 -6.51168,4.91675 -9.97641,6.96927c5.19896,6.65184 10.3388,13.34803 15.42358,20.08519c-13.5086,10.96238 -26.96399,21.98673 -40.36891,33.07473c-5.19987,-5.98328 -10.13739,-12.16149 -14.81341,-18.53396c-11.05212,9.24327 -22.10465,18.48686 -33.15677,27.73014c-0.67634,-0.80871 -1.35269,-1.6174 -2.02903,-2.4261z" fill="#596476" fill-rule="evenodd" stroke="none" stroke-width="1"/><path d="M514.12534,90.64232c5.13846,-3.70512 10.2161,-7.49365 15.23298,-11.36551c10.62177,13.33306 21.28619,26.6325 31.99403,39.89838c-4.81735,3.54926 -9.62542,7.11207 -14.42429,10.68916c-10.93413,-13.07388 -21.8686,-26.14815 -32.80273,-39.22203z" fill="#0b0e0d" fill-rule="evenodd" stroke="none" stroke-width="1"/><path d="M757.07405,-111.85682c5.25656,-4.39625 10.51312,-8.79249 15.76969,-13.18873c5.0271,6.33132 10.07893,12.6429 15.15159,18.93832c-10.8309,9.23418 -21.63577,18.49947 -32.41426,27.79632c-1.00735,-0.59647 -2.01109,-1.24611 -3.00682,-1.95192c-4.09697,-5.61356 -8.28272,-11.16073 -12.54911,-16.64821c5.97849,-4.77373 11.6601,-9.75455 17.04891,-14.94577z" fill="#1e272f" fill-rule="evenodd" stroke="none" stroke-width="1"/><path d="M530.57137,78.2623c1.71481,-0.92318 3.3099,-2.02809 4.78603,-3.31554c11.15189,12.89795 22.08602,25.97182 32.80274,39.22204c-2.0421,1.06262 -3.90677,2.39327 -5.59474,3.99188c-10.6362,-13.32237 -21.30062,-26.62181 -31.99403,-39.89838z" fill="#171b21" fill-rule="evenodd" stroke="none" stroke-width="1"/><path d="M665.22022,-34.34914c10.51312,-8.79249 21.02624,-17.58496 31.53936,-26.37744c4.62171,5.52615 9.24336,11.05224 13.86507,16.57839c-10.78282,9.01804 -21.56525,18.03575 -32.34807,27.0538c-4.32756,-5.76932 -8.67953,-11.52098 -13.05637,-17.25473z" fill="#1e272f" fill-rule="evenodd" stroke="none" stroke-width="1"/><path d="M625.10312,16.57486c3.86887,3.53023 6.88816,6.78066 8.69844,11.73643c2.87458,7.86958 -7.90054,15.28533 -14.80719,14.92128c-6.36685,0.86361 -16.75138,-4.92912 -19.50127,-11.06725c-0.64959,-1.44995 -0.27499,-3.60772 -0.34482,-5.13726l-0.41747,-1.76091c0,0 -0.07628,-0.29834 -0.29156,-0.60097c5.39112,-9.02706 19.17715,-17.35242 26.66389,-8.09132z" data-paper-data="{&quot;noHover&quot;:false,&quot;origItem&quot;:[&quot;Path&quot;,{&quot;applyMatrix&quot;:true,&quot;segments&quot;:[[[239.73792,188.86733],[5.93491,-2.49547],[-0.00365,0.22738]],[239.6647,189.26861],[[239.23494,190.28525],[0,0],[-0.52064,0.77968]],[[237.54914,192.93162],[0.20586,-0.95085],[-0.87145,4.02522]],[[243.12668,205.40013],[-3.45346,-1.88474],[3.2741,2.68613]],[[255.78171,203.43239],[-1.43833,4.9244],[0.90577,-3.10109]],[[255.74519,194.53085],[0.62688,3.14515],[-0.33131,-7.28453]]],&quot;closed&quot;:true}],&quot;index&quot;:null}" fill="#ffffff" fill-rule="nonzero" stroke="#000000" stroke-width="0"/><path d="M574.6846,41.36435c1.69388,-2.82125 3.45602,-7.12685 6.71323,-8.56605c6.19639,-2.7379 13.51823,3.53438 17.05559,7.72885c1.55558,1.68349 4.61356,4.56808 5.39289,6.77615c0.82155,2.32779 -0.7669,4.94246 -1.72907,6.86402c-3.99749,7.98328 -13.38821,8.6326 -20.24352,3.7771c-5.04701,-2.93149 -7.90963,-6.99579 -9.17728,-12.45217l-0.04608,-0.27888c0.50441,-1.29371 1.23909,-2.52453 2.03431,-3.84904z" data-paper-data="{&quot;noHover&quot;:false,&quot;origItem&quot;:[&quot;Path&quot;,{&quot;applyMatrix&quot;:true,&quot;segments&quot;:[[[219.56657,189.63753],[0.71829,-0.45498],[0,0]],[[219.4887,189.79114],[0,0],[-1.35504,3.15105]],[[219.50428,199.20851],[-1.42521,-3.27742],[1.61878,4.88257]],[[230.79047,204.66873],[-4.86879,2.48645],[1.1719,-0.59848]],[[234.11726,201.92538],[-0.43962,1.44618],[0.41702,-1.37181]],[[233.90684,196.65265],[0.15622,1.39481],[-0.22232,-3.35242]],[[228.33981,186.7038],[4.0496,0.8985],[-2.12871,-0.4723]],[[221.95557,188.48638],[1.85928,-0.77666],[-0.87287,0.36462]]],&quot;closed&quot;:true}],&quot;index&quot;:null}" fill="#ffffff" fill-rule="nonzero" stroke="#000000" stroke-width="0"/><path d="M592.45483,43.36801c-0.9355,-1.2713 -0.66329,-3.06025 0.60798,-3.99574c1.2713,-0.9355 3.06025,-0.66329 3.99574,0.60798c0.9355,1.2713 0.66329,3.06025 -0.60798,3.99574c-1.2713,0.9355 -3.06025,0.66329 -3.99574,-0.60798z" data-paper-data="{&quot;index&quot;:null}" fill="#000000" fill-rule="nonzero" stroke="none" stroke-width="0"/><path d="M621.69248,22.21286c-0.9355,-1.2713 -0.66329,-3.06025 0.60799,-3.99575c1.2713,-0.9355 3.06025,-0.66329 3.99575,0.60798c0.9355,1.2713 0.66329,3.06025 -0.60799,3.99576c-1.2713,0.9355 -3.06026,0.66328 -3.99576,-0.60799z" data-paper-data="{&quot;index&quot;:null}" fill="#000000" fill-rule="nonzero" stroke="none" stroke-width="0"/><path d="M514.91264,24.73095c-0.33773,0.19736 -1.37285,0.66636 -2.17142,-0.41888c-0.96792,-1.31535 0.34744,-2.28328 0.34744,-2.28328l0.90968,-0.45532c8.23284,-1.40569 16.49631,-0.73062 24.73572,-0.39913c6.41636,0.27866 12.76848,-1.23151 19.23193,-0.9679c5.63278,0.22975 11.3127,1.01441 16.97182,1.25786c3.56112,0.15323 7.11667,-0.49447 10.584,0.40487c0,0 1.57751,0.42245 1.15507,1.99998c-0.42245,1.5775 -1.99998,1.15507 -1.99998,1.15507c-3.14423,-0.87652 -6.62821,-0.1589 -9.87841,-0.29664c-5.66048,-0.23987 -11.34304,-1.02776 -16.97609,-1.25805c-6.46276,-0.26421 -12.79382,1.21081 -19.22008,0.96843c-7.88053,-0.31918 -15.8214,-1.0164 -23.68967,0.29309z" data-paper-data="{&quot;index&quot;:null}" fill="#000000" fill-rule="nonzero" stroke="none" stroke-width="0"/><path d="M616.96946,-46.033c1.56353,0.47153 1.09202,2.03509 1.09202,2.03509l-0.34197,1.07712c-0.88529,5.62974 -4.14599,11.0778 -6.22199,16.33819c-2.60508,7.16695 -4.64828,14.52133 -7.38573,21.66076c-3.03958,7.92735 -7.11728,14.94871 -8.96309,23.3104c0,0 -0.35253,1.59463 -1.94715,1.24208c-1.59463,-0.35253 -1.24207,-1.94716 -1.24207,-1.94716c1.88965,-8.53491 6.02796,-15.68821 9.10411,-23.77865c2.71577,-7.14268 4.78031,-14.48328 7.38067,-21.64756c1.98953,-4.9882 5.26659,-10.32966 6.04617,-15.66944l0.4439,-1.52882c0,0 0.47153,-1.56354 2.03509,-1.09202z" data-paper-data="{&quot;index&quot;:null}" fill="#000000" fill-rule="nonzero" stroke="none" stroke-width="0"/><path d="M606.53472,113.92849c-0.80219,0.63845 -1.47007,0.0953 -1.68432,-0.12067c-2.35751,-1.53477 -4.66505,-2.96216 -6.59626,-5.02848c-6.71682,-7.23609 -15.32262,-16.60936 -14.75015,-27.39042c0.29451,-5.54641 4.19982,-10.17895 7.653,-14.12006c6.15085,-6.48519 13.54188,-11.96775 20.85663,-17.09814c5.49893,-3.85681 11.1599,-7.73323 17.53867,-9.86801c14.62619,-4.38536 27.24337,6.70403 35.11366,18.06017c0,0 0.71163,1.02766 -0.31603,1.73929c-1.02766,0.71163 -1.73929,-0.31603 -1.73929,-0.31603c-7.16659,-10.35813 -18.84676,-21.18942 -32.30037,-17.1011c-6.1294,2.05209 -11.57583,5.82477 -16.861,9.53238c-7.1634,5.02522 -14.41964,10.38556 -20.4448,16.73574c-3.0533,3.4861 -6.75278,7.65808 -7.00507,12.58711c-0.51297,10.02209 7.87505,18.84611 14.08702,25.53828c1.80939,1.96464 4.05117,3.27893 6.27981,4.73312l0.36812,0.36037c0,0 0.77841,0.97805 -0.19964,1.75646z" fill="#000000" fill-rule="nonzero" stroke="none" stroke-width="0.5"/></g><path d="M-1117.37278,989.77027v-1619.57958h2878.25006v1619.57958z" fill="none" fill-rule="nonzero" stroke="#000000" stroke-width="0"/></g></g></svg>