<svg version="1.1" xmlns="http://www.w3.org/2000/svg" xmlns:xlink="http://www.w3.org/1999/xlink" width="2878.25006" height="1619.57958" viewBox="0,0,2878.25006,1619.57958"><g transform="translate(1117.37278,629.80931)"><g data-paper-data="{&quot;isPaintingLayer&quot;:true}" stroke-linecap="butt" stroke-linejoin="miter" stroke-miterlimit="10" stroke-dasharray="" stroke-dashoffset="0" style="mix-blend-mode: normal"><path d="M508.71592,25.32641c0.77914,0.97746 -0.19831,1.75661 -0.19831,1.75661l-0.61241,0.4422c0.18511,2.16907 0.08954,4.35399 -0.11116,6.19593c-1.06085,9.73582 -6.29402,18.18481 -8.2219,27.66794c-3.43943,16.89278 -2.41396,34.89064 -2.50304,52.08855c-0.03255,4.91534 1.25892,9.70512 1.75092,14.58335c0.24287,2.40806 -0.00645,5.00782 0.43345,7.38535c0.57586,3.11231 1.90832,6.04752 2.43983,9.19885c1.06391,6.3079 -0.01104,12.53288 1.21881,18.84495c-1.20822,3.22271 0.26106,3.18452 0.72937,6.31741c0.08341,0.55803 -0.27948,1.12494 -0.18989,1.68202c0.23581,1.46619 1.28997,2.71486 1.54901,4.17712c0.15701,0.8863 0.08496,1.79855 0.09573,2.69858c0.00909,0.75998 -0.44633,2.39932 0.30086,2.26018c0.7061,-0.13149 1.25352,-0.79888 1.96726,-0.87897c1.925,-0.21603 5.7951,0.07526 7.75987,0.32435c1.3289,0.16847 2.54223,1.24608 3.87122,1.07834c2.21578,-0.27968 4.48823,-1.29194 6.70276,-1.69257c2.3018,-0.41641 5.12423,-0.05186 7.42184,0.20529c6.82034,0.76999 12.52722,2.97636 18.53475,6.25124c1.85184,1.00949 4.29659,2.06042 5.83139,3.54913c2.52152,2.44578 3.69786,5.53087 5.56106,8.39402c0.40713,0.62562 2.80105,3.46484 3.11131,4.01903c1.51464,2.70549 2.34904,6.2075 3.36239,9.13243c-0.68081,4.41275 -2.15969,8.19688 -3.31586,12.46243c-0.80169,2.95772 -0.69314,6.52004 -1.88909,9.33953c-2.76096,6.50902 -9.1419,12.70251 -14.58899,17.04435c-2.18482,1.74151 -3.48412,3.25617 -6.09193,4.39837c-5.21722,2.22581 -10.53221,4.14428 -15.85727,6.09549c-2.86031,1.04807 -5.99309,2.71385 -8.98522,3.27825c-8.33243,1.57174 -17.10811,-0.65344 -25.25656,-2.22344c-4.08742,-0.80291 -8.11034,0.09639 -12.24293,-0.01616c-4.91402,-0.13384 -9.91955,-1.98258 -14.77555,-1.89949c-1.16664,0.01995 -3.83508,0.90077 -4.9355,0.80875c-1.65164,-0.13812 -3.10191,-1.27695 -4.71741,-1.5565c-4.17594,-0.72258 -8.67298,0.04111 -12.89015,-0.43194c-3.1786,-0.06235 -6.55649,-0.5351 -9.7039,-0.42664c-2.28189,0.07864 -4.53786,1.23052 -6.82658,1.27346c-2.04607,0.03838 -4.61897,-1.11469 -6.62419,-0.76767c-3.31455,0.57362 -5.85492,1.63385 -9.29783,1.36166c-0.78891,-0.06238 -1.8424,0.47046 -2.37119,-0.11832c-0.75752,-0.84345 -0.53246,-2.20588 -0.72033,-3.32388c-0.68979,-4.10481 0.02139,-8.48521 0.082,-12.62982c0.07219,-4.91934 0.5188,-9.99592 0.22223,-14.90467c-0.44817,-7.41818 -2.68624,-14.7502 -3.01851,-22.17425c-0.22228,-4.96659 0.41175,-10.12791 0.61619,-15.09758c0.21021,-5.1103 0.44755,-10.13314 1.7066,-15.12348c1.40071,-5.55175 4.40458,-10.54218 5.96095,-15.94813c1.83605,-6.37742 2.8526,-12.89282 4.55575,-19.33239c0.92083,-3.47323 3.18468,-7.42681 3.60741,-10.90578c0.29001,-2.38682 -0.61832,-4.97455 -0.45911,-7.3837c0.25729,-3.89357 2.22843,-7.795 2.27439,-11.68608c0.03885,-3.28815 -1.26802,-6.59647 -1.24174,-9.8906c0.02623,-3.28876 0.95445,-6.83318 1.41545,-10.09292c0.60471,-3.26878 0.93057,-6.78703 1.85305,-9.97877c0.92505,-3.20061 2.64465,-6.19319 3.72443,-9.34583c1.07766,-3.14642 1.5066,-6.62608 2.7969,-9.68988c0.93867,-2.22887 1.53565,-2.22673 2.47928,-4.36607c2.17556,-4.93228 3.29355,-10.55435 4.55158,-15.7773c0.37052,-1.53827 1.095,-3.02679 1.13752,-4.60848c0.02271,-0.84458 -0.49677,-1.65659 -0.42631,-2.49852c0.14752,-1.76261 1.76818,-3.07095 2.49124,-4.68518c0.63513,-1.41791 0.47866,-3.07053 0.75379,-4.59963c1.12588,-6.25762 0.63894,-12.78671 1.81251,-19.06678c0.88235,-4.72166 2.3812,-9.07645 2.92942,-13.87972c0.1142,-1.1125 -0.42117,-2.52057 0.3426,-3.3375c0.65228,-0.69766 1.92611,-0.27344 2.86382,-0.09205c4.58006,0.88597 7.23207,5.80302 11.54613,7.11189c2.93805,0.89141 6.36911,0.42744 9.32922,1.38257c1.32854,0.42867 2.41874,1.52782 3.79233,1.7768c1.61318,0.29242 3.29841,-0.23001 4.91835,0.02223c0.29175,0.04542 3.94641,1.23349 4.52148,1.3922c2.89959,0.80023 4.6817,0.43138 7.38633,1.96789c1.37636,0.8224 3.02189,1.09022 4.46504,1.78883c1.35311,0.65501 2.011,2.24774 3.15714,3.22052c0.96191,0.81642 2.67788,0.25647 3.62449,1.09057c0.54967,0.48433 0.0969,1.67863 0.70972,2.08009c0.71106,0.46581 1.9615,-0.55876 2.54958,0.05505c0.71426,0.7455 0.2324,2.05461 0.44052,3.06586c0.12054,0.58568 0.62542,1.11774 0.5424,1.7099c-0.20156,1.43777 -1.72967,3.41128 -2.1538,4.83966c-0.04392,0.14793 -0.07417,0.29948 -0.09605,0.45319c0.61365,1.10539 1.04002,2.3688 1.32403,3.69843c0.34536,-0.08081 0.79729,-0.04169 1.19702,0.45978zM504.42378,24.78612c-0.04408,0.06731 -0.08137,0.13893 -0.11009,0.21604c-0.25704,0.69035 0.26045,1.48253 0.12414,2.20646c-0.38685,2.05453 -2.05086,4.20071 -0.70057,6.38909c0.08913,0.14444 -0.03087,-0.33896 -0.02472,-0.50859c0.01662,-0.45853 0.06196,-0.91556 0.09292,-1.37334c0.37731,-1.56512 0.70591,-3.14325 0.97174,-4.73112l0.40722,-0.34646c-0.26479,-0.61358 -0.55454,-1.22217 -0.76064,-1.8521z" data-paper-data="{&quot;index&quot;:null}" fill="#2f2c31" fill-rule="nonzero" stroke="none" stroke-width="0.5"/><path d="M155.73447,44.73199c0.3509,-0.53678 0.79716,-0.61816 1.14858,-0.57012c0.15794,-1.35042 0.46383,-2.64827 0.97101,-3.80639c-0.03622,-0.15098 -0.08056,-0.29903 -0.13817,-0.44218c-0.55635,-1.38226 -2.26295,-3.20361 -2.59859,-4.61611c-0.13824,-0.58176 0.31446,-1.15886 0.37949,-1.75327c0.11228,-1.02632 -0.49034,-2.28441 0.15078,-3.09367c0.52787,-0.6663 1.86895,0.23637 2.53315,-0.29413c0.57243,-0.45721 0.00955,-1.60373 0.51133,-2.13752c0.86414,-0.91928 2.62509,-0.52289 3.50612,-1.426c1.04977,-1.07607 1.55525,-2.72353 2.84089,-3.50266c1.3712,-0.83099 2.98432,-1.2521 4.27741,-2.20006c2.54846,-1.78361 4.35733,-1.58368 7.16899,-2.65256c0.55763,-0.21199 4.08464,-1.73787 4.37084,-1.81048c1.58911,-0.4032 3.31594,-0.04127 4.89455,-0.48383c1.34415,-0.37683 2.32636,-1.57346 3.60879,-2.12494c2.85739,-1.22878 6.31684,-1.08893 9.15825,-2.2522c4.17214,-1.70805 6.35088,-6.85233 10.82755,-8.16433c0.91655,-0.26862 2.14493,-0.81054 2.85982,-0.17719c0.83708,0.74161 0.43625,2.19373 0.65438,3.29059c0.99668,4.7306 2.8977,8.92546 4.21937,13.54345c1.75789,6.14217 1.88599,12.68814 3.59431,18.81245c0.41745,1.49653 0.41681,3.15654 1.18223,4.50857c0.87141,1.53923 2.60773,2.68965 2.92005,4.43064c0.14918,0.8316 -0.29178,1.68879 -0.18989,2.5275c0.19081,1.57072 1.05182,2.98466 1.5651,4.48135c1.74275,5.08181 3.38355,10.5741 6.0125,15.28039c1.14028,2.04131 1.73442,1.98315 2.87818,4.11406c1.5722,2.92916 2.32588,6.35318 3.69414,9.38455c1.37095,3.03735 3.36388,5.8553 4.58529,8.95494c1.21802,3.09104 1.87269,6.56318 2.78158,9.76076c0.76497,3.20207 2.02181,6.64371 2.35663,9.91548c0.33538,3.27711 -0.65515,6.6935 -0.30783,9.96349c0.41101,3.86958 2.73967,7.56875 3.36132,11.42098c0.38464,2.38357 -0.27676,5.04513 0.23602,7.39419c0.74743,3.42393 3.37241,7.14755 4.61521,10.519c2.3001,6.25126 3.92377,12.64247 6.35037,18.81937c2.05696,5.23598 5.51601,9.9224 7.43168,15.31816c1.72195,4.85012 2.42972,9.82851 3.11872,14.8965c0.67004,4.92853 1.78576,10.00755 2.03068,14.97307c0.3661,7.42246 -1.17383,14.93219 -0.92368,22.35969c0.16554,4.9149 1.0867,9.92715 1.62035,14.81799c0.4494,4.12062 1.56863,8.41492 1.2672,12.56635c-0.08209,1.13071 0.26986,2.466 -0.40514,3.37683c-0.47119,0.63581 -1.57004,0.20422 -2.34961,0.34038c-3.40216,0.59418 -6.03084,-0.22291 -9.3846,-0.48286c-2.02893,-0.15726 -4.48223,1.23225 -6.52288,1.3861c-2.28265,0.1721 -4.63678,-0.76294 -6.91598,-0.62703c-3.14369,0.18747 -6.4623,0.97522 -9.621,1.33567c-4.15414,0.86682 -8.70301,0.52865 -12.79268,1.64003c-1.58213,0.42996 -2.91909,1.6999 -4.55047,1.99245c-1.08692,0.19491 -3.82625,-0.43153 -4.98962,-0.34189c-4.84235,0.37311 -9.65224,2.68356 -14.532,3.27808c-4.10378,0.49998 -8.19335,-0.01772 -12.18736,1.16534c-7.9651,2.32796 -16.49315,5.36709 -24.93632,4.58446c-3.03189,-0.28103 -6.30721,-1.64538 -9.25327,-2.42033c-5.48471,-1.44273 -10.95631,-2.85381 -16.35944,-4.58005c-2.7035,-0.89236 -4.13925,-2.27837 -6.4779,-3.80709c-5.83062,-3.81134 -12.76476,-9.3785 -16.12453,-15.59961c-1.45533,-2.69477 -1.68166,-6.25155 -2.75745,-9.12096c-1.55147,-4.13818 -3.37904,-7.76678 -4.47107,-12.09614c0.7343,-3.00714 1.23629,-6.57202 2.49028,-9.40774c0.25687,-0.58087 2.37371,-3.63226 2.72031,-4.29334c1.58621,-3.0254 2.46775,-6.2073 4.74856,-8.87897c1.38829,-1.62621 3.72359,-2.90198 5.47249,-4.08085c5.67358,-3.82434 11.14814,-6.55668 17.8661,-7.9635c2.26331,-0.47169 5.03907,-1.09958 7.36979,-0.90107c2.24235,0.19099 4.59978,0.98547 6.83204,1.05591c1.33887,0.04225 2.44568,-1.1445 3.7529,-1.43697c1.93272,-0.43242 5.75838,-1.08571 7.69516,-1.05133c0.71811,0.01274 1.32576,0.62579 2.04108,0.69042c0.75695,0.06839 0.14966,-1.52096 0.08737,-2.27844c-0.07377,-0.89707 -0.23114,-1.79853 -0.15802,-2.69565c0.12064,-1.48011 1.05292,-2.82223 1.15006,-4.30408c0.0369,-0.56303 -0.37761,-1.09337 -0.34695,-1.65677c0.17216,-3.16301 1.63853,-3.26292 0.13314,-6.35798c0.6319,-6.39964 -1.02264,-12.49623 -0.55555,-18.87615c0.23334,-3.18731 1.28439,-6.23463 1.56555,-9.38725c0.21478,-2.40832 -0.27748,-4.9732 -0.26172,-7.39342c0.03191,-4.90287 0.86806,-9.79273 0.37425,-14.68332c-1.70306,-17.1136 -2.37158,-35.12825 -7.38155,-51.62359c-2.80955,-9.26029 -8.81273,-17.18074 -10.78279,-26.77398c-0.37272,-1.81497 -0.67297,-3.98128 -0.69229,-6.15814l-0.65122,-0.38277c0,0 -1.04628,-0.68395 -0.36233,-1.73024zM159.95699,43.79121c-0.14606,0.6465 -0.3774,1.2796 -0.58343,1.91532l0.43794,0.30671c0.41371,1.5559 0.889,3.09621 1.41156,4.61901c0.07381,0.45285 0.16184,0.90361 0.22143,1.35855c0.02204,0.16829 -0.05204,0.66083 0.02313,0.50866c1.1389,-2.30547 -0.71921,-4.28598 -1.29722,-6.29511c-0.20367,-0.70794 0.23717,-1.5452 -0.08354,-2.20837c-0.03583,-0.07408 -0.07969,-0.14189 -0.12988,-0.20476z" fill="#2f2c31" fill-rule="nonzero" stroke="none" stroke-width="0.5"/><g><path d="M-4.36997,-23.52595c22.31249,-0.32955 44.62503,-0.6591 66.93751,-0.98865c65.6271,-0.44165 131.34016,-1.06078 197.13864,-1.85734c-0.50022,3.25332 -1.33161,6.42872 -2.49521,9.52613c-4.01798,0.5852 -8.05587,0.82057 -12.11476,0.70612c0.04671,3.16241 0.09341,6.3248 0.14013,9.4872c24.59296,-0.57695 49.187,-1.11591 73.78161,-1.61693c0.00779,0.52707 0.01556,1.05414 0.02334,1.5812c-0.6981,-0.07931 -1.31059,0.10551 -1.83695,0.5543c-0.72339,2.13582 -1.66018,4.17054 -2.80934,6.10409c-3.85741,0.32041 -7.72108,0.4653 -11.59158,0.43481c0.01556,1.05414 0.04671,3.16241 0.04671,3.16241l125.44195,-1.85277c0,0 -0.40345,-3.5086 -0.6049,-5.26288c72.56749,-0.5472 145.13289,-1.09181 217.70203,-1.63389c0.00778,0.52707 0.01557,1.05413 0.02336,1.58119c-1.60841,1.75101 -3.16237,3.6191 -4.66186,5.60427c-8.42918,0.38805 -16.86096,0.60045 -25.29533,0.63721c0.0062,8.98662 0.49169,17.94171 1.45115,26.86485c-0.20928,15.45586 0.01908,30.91683 0.68506,46.3819c-2.28221,0.0337 -4.56966,0.0675 -6.85187,0.1012c-117.37697,-4.31154 -234.82823,-8.7269 -352.35324,-13.24716c0.42028,2.43465 0.63264,4.89187 0.63605,7.37114c-83.43621,2.30885 -166.87274,4.59556 -250.31013,6.86014c0.00545,-30.22395 -0.08953,-60.44757 -0.28483,-90.67109c-3.86513,0.05708 -7.73033,0.11419 -11.59547,0.17127c-0.23771,-2.37418 -0.62282,-4.65294 -1.15533,-6.83631c-0.01556,-1.05414 -0.03114,-2.10826 -0.04671,-3.16241z" fill="#000000" fill-rule="evenodd" stroke="none" stroke-width="1"/><path d="M-2.75763,-21.44105c10.5347,-0.50703 21.16129,-0.83971 31.87977,-0.99804c76.16722,-0.85961 152.33618,-1.45745 228.50691,-1.79347c-0.39508,2.26918 -1.24332,4.30256 -2.54581,6.10021c-70.97334,1.39974 -141.95136,2.4481 -212.93508,3.14503c-14.59314,-0.70713 -29.17924,-0.7553 -43.75823,-0.14448c-0.27259,-2.19131 -0.65511,-4.29441 -1.14756,-6.30924z" fill="#191c24" fill-rule="evenodd" stroke="none" stroke-width="1"/><path d="M10.00876,-13.72187c16.02239,-0.26338 32.02044,0.20323 47.99423,1.39987c61.81385,-1.95091 123.65103,-3.21572 185.51204,-3.79435c0.33396,3.5156 0.03353,6.9467 -0.90233,10.29338c0.73127,3.78743 1.1399,7.64738 1.22541,11.5799c-0.63509,20.9986 -0.85207,42.00107 -0.65093,63.00787c-77.63787,2.12146 -155.27978,4.14703 -232.9247,6.07618c0.12263,-29.52137 0.03803,-59.04215 -0.25371,-88.56283z" fill="#596476" fill-rule="evenodd" stroke="none" stroke-width="1"/><path d="M281.61954,-6.13552c11.24421,-0.25389 22.48942,-0.33218 33.73619,-0.2347c-0.73001,1.47282 -1.41105,2.97654 -2.0421,4.51121c-22.65347,0.86171 -45.31475,1.37218 -67.98385,1.53128c-0.02336,-1.58119 -0.04671,-3.16241 -0.07005,-4.7436c12.21629,-0.00604 24.33625,-0.36076 36.35984,-1.06421z" fill="#191c24" fill-rule="evenodd" stroke="none" stroke-width="1"/><path d="M429.81879,-1.99821c70.8106,-0.60398 141.62272,-1.03481 212.43526,-1.29251c-0.86203,1.24281 -1.71879,2.48558 -2.58085,3.72839c-53.58805,0.35679 -107.18014,0.79686 -160.77102,1.32021c-15.50565,-0.58205 -30.96479,-0.2659 -46.37801,0.9486c-0.41142,2.05604 -1.08599,3.99901 -2.02265,5.82887c-16.18373,0.58644 -48.48238,1.24326 -48.48238,1.24326l-55.10187,-0.7677c0,0 -15.89549,1.6133 -23.96598,1.40833c-0.02594,-1.75688 -0.07784,-5.27067 -0.07784,-5.27067l127.55023,-1.8839c0,0 -0.28876,-3.52431 -0.6049,-5.26288z" fill="#191c24" fill-rule="evenodd" stroke="none" stroke-width="1"/><path d="M245.35311,1.2535c18.62285,-0.27506 37.24625,-0.55013 55.8691,-0.82518c-0.19219,3.8344 -0.13512,7.69959 0.17127,11.59548c8.25757,-0.12196 24.77215,-0.36589 24.77215,-0.36589l72.21596,-0.53944c0,0 22.84519,-0.33759 34.25158,-1.03307c1.35072,-1.88633 1.84664,-4.00238 1.48778,-6.34816c6.67636,-0.09861 13.35218,-0.19722 20.02855,-0.29583c-0.53467,9.487 -0.92161,18.98198 -1.16082,28.48499c36.646,-0.46428 73.28964,-0.30276 109.92461,0.48516c17.30374,-0.60404 34.60216,-1.21065 51.90054,-1.82093c0.27338,14.58308 0.6627,29.16289 1.1732,43.73878c-108.8128,-4.48339 -217.6477,-8.49935 -326.50362,-12.04741c-0.49929,-17.56466 -0.93429,-35.1308 -1.30553,-52.69893c-10.02262,-0.59592 -20.04729,-1.15075 -30.07396,-1.66455c0.26209,17.74477 0.52417,35.489 0.78626,53.23378c-0.87861,0.01297 -1.75672,0.02595 -2.63532,0.03893c-0.0174,2.53389 0.37048,4.988 1.16312,7.36337c-4.04102,0.0597 -8.08153,0.11936 -12.12255,0.17905c0.01941,-22.49356 0.03828,-44.98674 0.0577,-67.48015z" fill="#2f2c31" fill-rule="evenodd" stroke="none" stroke-width="1"/><path d="M50.91988,7.81552c16.43268,-0.00727 32.86445,0.10151 49.29634,0.32626c2.56507,-0.08428 5.10979,-0.29758 7.63467,-0.63996c0.15829,10.71701 0.31657,21.43424 0.47486,32.1511c-19.15535,-0.04815 -38.31097,-0.11684 -57.46587,-0.20561c-0.00285,-10.54413 0.01749,-21.08801 0.05998,-31.63181z" fill="#000000" fill-rule="evenodd" stroke="none" stroke-width="1"/><path d="M163.18514,6.15738c18.28596,-0.06296 36.55988,-0.15709 54.82275,-0.28256c-0.15327,10.78846 0.35605,21.50007 1.52899,32.13551c-18.62827,-0.0554 -37.25685,-0.1319 -55.88467,-0.22894c-0.15569,-10.54133 -0.31139,-21.08267 -0.46709,-31.62401z" fill="#000000" fill-rule="evenodd" stroke="none" stroke-width="1"/><path d="M52.52442,9.37337c17.92515,0.10021 35.85061,0.18693 53.77642,0.2601c0.14013,9.4872 0.28026,18.97442 0.42038,28.46162c-18.10117,-0.09746 -36.20216,-0.18121 -54.30347,-0.25231c0.0607,-9.48959 0.09608,-18.97939 0.10669,-28.4694z" fill="#1e272f" fill-rule="evenodd" stroke="none" stroke-width="1"/><path d="M164.78969,7.71522c17.22036,-0.0381 34.44014,-0.11666 51.66036,-0.23582c0.14272,9.66288 0.28542,19.32597 0.42816,28.98868c-17.22266,-0.11782 -34.44503,-0.21507 -51.66814,-0.29122c-0.14013,-9.4872 -0.28026,-18.97442 -0.42038,-28.46162z" fill="#1e272f" fill-rule="evenodd" stroke="none" stroke-width="1"/><path d="M455.73072,3.41807c52.72274,-0.51306 105.43567,-0.76444 158.14346,-0.75422c0.12195,8.61345 0.42303,17.21964 0.90852,25.8185c-5.66238,-0.03024 -11.28101,0.40437 -16.85059,1.30324c0.12328,-8.78626 0.16747,-17.57333 0.13783,-26.36113c-11.43265,0.13027 -22.84375,0.65029 -34.24379,1.56013c-4.10666,0.00614 -8.15444,-0.28553 -12.13811,-0.87508c-0.15473,8.4411 -0.38332,16.87938 -0.68046,25.31479c-17.39702,-0.0003 -34.79176,0.08105 -52.18743,0.24362c-0.26726,-7.92255 -0.20799,-15.83115 0.17676,-23.7258c-14.40633,0.21278 -28.81317,0.42554 -43.2195,0.63834c-0.01556,-1.05414 -0.03114,-2.10826 -0.0467,-3.16239z" fill="#596476" fill-rule="evenodd" stroke="none" stroke-width="1"/><path d="M259.71627,10.00344c6.32466,0.36102 12.65466,0.61895 18.98999,0.77388c-0.15416,17.04607 -0.25402,34.09292 -0.29901,51.14107c-5.97711,-0.27969 -11.95555,-0.54302 -17.93586,-0.78947c-0.25171,-17.04166 -0.50342,-34.08383 -0.75512,-51.12549z" fill="#0b0e0d" fill-rule="evenodd" stroke="none" stroke-width="1"/><path d="M575.96428,5.85969c6.85187,-0.1012 13.70375,-0.20241 20.55562,-0.3036c-0.0862,8.08393 -0.14076,16.16812 -0.16896,24.25287c-14.22882,0.34513 -28.45704,0.7308 -42.68465,1.15763c-0.40633,-1.09792 -0.77633,-2.23485 -1.10475,-3.41035c0.35614,-6.94048 0.60151,-13.88538 0.74664,-20.83472c7.65031,0.06062 15.20059,-0.22667 22.6561,-0.86182z" fill="#1e272f" fill-rule="evenodd" stroke="none" stroke-width="1"/><path d="M280.28745,10.75399c1.91326,0.36374 3.84805,0.51095 5.80551,0.44144c0.53164,17.04227 0.78335,34.08393 0.75512,51.12551c-2.25525,-0.46171 -4.54163,-0.6035 -6.85965,-0.42588c0.13621,-17.04687 0.23608,-34.09372 0.29901,-51.14107z" fill="#171b21" fill-rule="evenodd" stroke="none" stroke-width="1"/><path d="M455.80078,8.16167c13.70375,-0.20241 27.40748,-0.40481 41.11121,-0.6072c0.1064,7.20328 0.21278,14.40647 0.31917,21.60975c-14.05528,0.2076 -28.11006,0.41518 -42.16537,0.62278c0.27524,-7.20674 0.5204,-14.41515 0.73496,-21.62531z" fill="#1e272f" fill-rule="evenodd" stroke="none" stroke-width="1"/><path d="M392.56128,22.42355c0.77954,5.1791 1.07572,9.60556 -0.64148,14.59436c-2.72691,7.92195 -15.76654,6.89027 -20.90002,2.25541c-5.48792,-3.34146 -9.90103,-14.38312 -8.16837,-20.88209c0.40928,-1.5352 2.05985,-2.9746 2.96947,-4.20627l0.78547,-1.63037c0,0 0.12877,-0.27972 0.15231,-0.65037c9.87443,-3.61214 25.82517,-1.38943 25.80264,10.51933z" data-paper-data="{&quot;noHover&quot;:false,&quot;origItem&quot;:[&quot;Path&quot;,{&quot;applyMatrix&quot;:true,&quot;segments&quot;:[[[239.73792,188.86733],[5.93491,-2.49547],[-0.00365,0.22738]],[239.6647,189.26861],[[239.23494,190.28525],[0,0],[-0.52064,0.77968]],[[237.54914,192.93162],[0.20586,-0.95085],[-0.87145,4.02522]],[[243.12668,205.40013],[-3.45346,-1.88474],[3.2741,2.68613]],[[255.78171,203.43239],[-1.43833,4.9244],[0.90577,-3.10109]],[[255.74519,194.53085],[0.62688,3.14515],[-0.33131,-7.28453]]],&quot;closed&quot;:true}],&quot;index&quot;:null}" fill="#ffffff" fill-rule="nonzero" stroke="#000000" stroke-width="0"/><path d="M337.79143,9.90117c3.09305,-1.12326 7.17447,-3.35606 10.61052,-2.42107c6.53664,1.77869 8.26945,11.26279 8.37302,16.74875c0.14703,2.28743 0.70379,6.45422 -0.08248,8.65983c-0.82893,2.32518 -3.70994,3.35446 -5.6679,4.24021c-8.13458,3.67985 -15.83543,-1.73347 -18.09878,-9.82349c-2.07164,-5.45658 -1.73331,-10.41629 0.72069,-15.45185l0.13995,-0.24558c1.20688,-0.68668 2.55294,-1.17944 4.00504,-1.7068z" data-paper-data="{&quot;noHover&quot;:false,&quot;origItem&quot;:[&quot;Path&quot;,{&quot;applyMatrix&quot;:true,&quot;segments&quot;:[[[219.56657,189.63753],[0.71829,-0.45498],[0,0]],[[219.4887,189.79114],[0,0],[-1.35504,3.15105]],[[219.50428,199.20851],[-1.42521,-3.27742],[1.61878,4.88257]],[[230.79047,204.66873],[-4.86879,2.48645],[1.1719,-0.59848]],[[234.11726,201.92538],[-0.43962,1.44618],[0.41702,-1.37181]],[[233.90684,196.65265],[0.15622,1.39481],[-0.22232,-3.35242]],[[228.33981,186.7038],[4.0496,0.8985],[-2.12871,-0.4723]],[[221.95557,188.48638],[1.85928,-0.77666],[-0.87287,0.36462]]],&quot;closed&quot;:true}],&quot;index&quot;:null}" fill="#ffffff" fill-rule="nonzero" stroke="#000000" stroke-width="0"/><path d="M350.32705,22.65475c0.07471,-1.57664 1.41337,-2.79418 2.98998,-2.71949c1.57664,0.07471 2.79418,1.41337 2.71949,2.98998c-0.07471,1.57664 -1.41337,2.79418 -2.98998,2.71949c-1.57664,-0.07471 -2.79418,-1.41337 -2.71949,-2.98998z" data-paper-data="{&quot;index&quot;:null}" fill="#000000" fill-rule="nonzero" stroke="none" stroke-width="0"/><path d="M386.36025,24.65214c0.07471,-1.57664 1.41337,-2.79418 2.98999,-2.7195c1.57664,0.07471 2.79418,1.41337 2.7195,2.98998c-0.07471,1.57664 -1.41337,2.79418 -2.98999,2.71951c-1.57664,-0.07471 -2.79419,-1.41338 -2.71951,-2.98999z" data-paper-data="{&quot;index&quot;:null}" fill="#000000" fill-rule="nonzero" stroke="none" stroke-width="0"/><path d="M301.8612,-40.67922c-0.38661,-0.05957 -1.4859,-0.34767 -1.42211,-1.69355c0.0773,-1.63127 1.70857,-1.55397 1.70857,-1.55397l0.99327,0.21968c7.27841,4.09638 13.26944,9.82773 19.45827,15.27714c4.80656,4.25959 10.69048,7.08974 15.5431,11.36732c4.22897,3.72785 8.14485,7.91629 12.38562,11.67137c2.66858,2.363 5.83754,4.10058 7.96312,6.98381c0,0 0.9587,1.32209 -0.36338,2.2808c-1.32208,0.95869 -2.2808,-0.36338 -2.2808,-0.36338c-1.8891,-2.66192 -5.04653,-4.3001 -7.48345,-6.45515c-4.24409,-3.75316 -8.15999,-7.94577 -12.38882,-11.67422c-4.8517,-4.27761 -10.69711,-7.12178 -15.53424,-11.35944c-5.91793,-5.2137 -11.6445,-10.75896 -18.57922,-14.70031z" data-paper-data="{&quot;index&quot;:null}" fill="#000000" fill-rule="nonzero" stroke="none" stroke-width="0"/><path d="M425.6976,-31.3155c0.91692,1.35138 -0.43448,2.26833 -0.43448,2.26833l-0.94428,0.62087c-4.23495,3.81351 -10.19988,5.98911 -15.12665,8.76552c-6.539,3.92341 -12.75981,8.34643 -19.38424,12.16505c-7.35554,4.24004 -14.94625,7.12245 -21.64855,12.452c0,0 -1.27859,1.01606 -2.29461,-0.26254c-1.01606,-1.27859 0.26255,-2.29461 0.26255,-2.29461c6.8455,-5.43643 14.56641,-8.38308 22.05311,-12.72672c6.60966,-3.83482 12.83836,-8.23368 19.372,-12.15799c4.68811,-2.61955 10.59856,-4.70205 14.56871,-8.35704l1.30805,-0.90738c0,0 1.35139,-0.91692 2.26833,0.43448z" data-paper-data="{&quot;index&quot;:null}" fill="#000000" fill-rule="nonzero" stroke="none" stroke-width="0"/><path d="M316.79657,86.31582c-1.0252,-0.00976 -1.20152,-0.85236 -1.2318,-1.15507c-0.86344,-2.67729 -1.75573,-5.23971 -1.95319,-8.0611c-0.6557,-9.85122 -1.43141,-22.55226 5.80672,-30.56279c3.72371,-4.12109 9.67527,-5.25725 14.84005,-6.14144c8.86261,-1.15969 18.05638,-0.75938 26.96901,-0.13367c6.70014,0.47039 13.53846,1.02765 19.83667,3.38957c14.12033,5.81146 16.9294,22.37277 15.88452,36.14999c0,0 -0.09502,1.24638 -1.34139,1.15138c-1.24638,-0.09502 -1.15138,-1.34139 -1.15138,-1.34139c0.9624,-12.55884 -1.28174,-28.3293 -14.30441,-33.63251c-6.05246,-2.26899 -12.65882,-2.77163 -19.09897,-3.22316c-8.72884,-0.61199 -17.74093,-1.02226 -26.42088,0.1118c-4.56756,0.78286 -10.06908,1.69112 -13.37098,5.35942c-6.71366,7.4587 -5.76094,19.59602 -5.15451,28.70677c0.16695,2.66567 1.07945,5.09883 1.89359,7.63235l0.05876,0.51178c0,0 -0.01189,1.24994 -1.26184,1.23806z" fill="#000000" fill-rule="nonzero" stroke="none" stroke-width="0.5"/></g><path d="M-1117.37278,989.77027v-1619.57958h2878.25006v1619.57958z" fill="none" fill-rule="nonzero" stroke="#000000" stroke-width="0"/></g></g></svg>