<svg version="1.1" xmlns="http://www.w3.org/2000/svg" xmlns:xlink="http://www.w3.org/1999/xlink" width="2878.25006" height="1619.57958" viewBox="0,0,2878.25006,1619.57958"><g transform="translate(1117.37278,629.80931)"><g data-paper-data="{&quot;isPaintingLayer&quot;:true}" stroke-linecap="butt" stroke-linejoin="miter" stroke-miterlimit="10" stroke-dasharray="" stroke-dashoffset="0" style="mix-blend-mode: normal"><path d="M479.59625,43.05638c-0.6075,1.09245 -1.69995,0.48495 -1.69995,0.48495l-2.08696,-1.16054c-2.23995,-1.24734 -4.24316,-2.62628 -6.28973,-4.16761c-3.23319,-1.64184 -5.54145,-4.79211 -8.46681,-6.89448c-2.79914,-2.01166 -5.59968,-2.58091 -7.78713,-5.54998c-0.48439,-0.65747 -0.91024,-1.82374 -1.12313,-3.03934c-0.00139,-0.00104 -0.00278,-0.00208 -0.00417,-0.00313c-4.8519,-3.63756 -9.5309,-6.86805 -13.38919,-11.57116c-1.48539,-1.81063 -3.74346,-3.84995 -4.83924,-5.91111c-0.56464,-1.06209 -1.64328,-2.26712 -1.22413,-3.39458c0.39096,-1.05164 2.02038,-0.97633 3.03057,-1.4645c0,0 1.18585,-0.39528 1.58114,0.79057c0.39528,1.18585 -0.79057,1.58114 -0.79057,1.58114c-0.50381,0.0165 -1.3072,-0.41135 -1.51144,0.0495c-0.19965,0.45048 0.68895,0.70545 1.01194,1.07756c0.51581,0.59425 1.00322,1.21259 1.50328,1.82016c1.58868,1.93022 3.1749,3.86274 4.75689,5.79845c2.55898,3.13114 6.14074,5.30293 9.37012,7.72406c0.18811,0.14103 0.37606,0.28243 0.56388,0.42415c0.06321,-0.19673 0.14223,-0.37706 0.23852,-0.5366c0.38581,-0.63922 1.34518,-0.70255 1.8688,-1.23478c1.70636,-1.7344 2.22322,-3.97153 3.56728,-5.77094c0.32508,-0.43521 1.17002,-0.25234 1.46874,-0.70604c0.86413,-1.31243 0.21345,-3.20232 0.85821,-4.63531c1.08039,-2.40118 1.62255,-2.37614 3.57248,-3.51487c-0.1038,-2.75953 2.015,-3.16943 3.84842,-4.72269c1.77406,-1.50298 3.28518,-3.61496 4.62444,-5.49174c4.14822,-5.81313 8.57701,-11.48784 12.8114,-17.17893c1.31794,-1.77133 1.86874,-4.21152 3.05423,-6.08149c1.38326,-2.18193 2.95429,-3.68926 4.05105,-6.06795c1.35175,-2.90569 2.77939,-5.79699 3.26754,-9.00813c0.15017,-0.98789 -0.45809,-2.22012 0.1758,-2.99256c0.72683,-0.8857 2.11272,-1.3964 3.23448,-1.16315c0.64051,0.13318 0.03806,1.37932 0.40615,1.92015c0.23033,0.33843 0.82412,0.16184 1.16508,0.38842c1.23796,0.82268 2.1314,2.07532 3.26148,3.04085c6.89818,5.89377 13.77286,11.77816 20.33756,18.0762c4.36451,4.19516 10.29034,7.75339 15.63722,10.59893c2.19622,1.1688 4.84461,1.75108 6.93416,3.10147c0.29868,0.19302 2.88169,2.91813 3.04184,3.03764c0.72153,0.53847 3.30764,1.30492 3.89063,1.53935c4.35942,1.75296 9.46581,4.30513 12.83651,7.564c1.08049,1.06402 2.07061,2.24273 3.49551,2.88603c0.89003,0.40182 2.09762,0.18327 2.8,0.86171c0.61126,0.59042 0.09955,1.81526 0.64563,2.46643c0.40296,0.48051 1.22253,0.28553 1.82055,0.47433c1.61528,0.50995 2.94438,1.68003 4.46554,2.42519c0.75607,0.37037 1.69388,0.24572 2.44891,0.61819c2.02266,0.99783 3.57302,3.3089 5.41149,4.60775c1.76409,1.2463 4.15954,1.61457 5.91046,2.89105c2.00812,1.46398 3.2756,3.90961 5.22612,5.44004c2.54507,1.99693 5.68444,3.48771 8.33587,5.41602c2.53876,1.84637 4.63614,4.11153 7.0873,5.98041c2.51366,1.91653 5.81343,2.96241 8.48622,4.66065c5.45369,3.46516 10.28246,7.73163 16.14278,10.59852c3.62323,1.7725 7.61291,2.98958 11.43148,4.25947c4.74141,1.57679 9.68886,2.77483 14.35808,4.53871c11.11151,4.19759 22.25816,10.62799 32.48802,16.63162c2.19711,0.2081 4.56139,0.26053 6.71412,0.72923c3.81083,0.8297 7.43516,2.96034 11.15988,4.12555c10.00621,3.13026 21.04753,5.78526 31.48785,6.77331c4.14786,0.39503 8.45964,0.49701 12.56471,1.20265c5.39307,0.92703 10.49716,3.58939 15.84882,4.7391c3.23623,0.69525 6.62679,0.72045 9.88429,1.31596c3.7498,0.68551 7.36249,1.98561 11.131,2.61182c1.0749,0.185 2.43574,1.11362 3.24914,0.38699c0.52227,-0.46656 0.64719,-1.25024 1.07267,-1.80649c1.92533,-2.51704 3.80871,-3.66636 5.13219,-6.54749c1.39525,-3.03735 3.73864,-5.48947 5.67524,-8.15886c2.85135,-3.93027 4.61225,-8.42728 7.28967,-12.45027c1.79246,-2.69328 4.02359,-4.95181 5.65031,-7.77163c1.69477,-2.91961 4.25532,-5.16658 5.97286,-8.01941c1.03557,-1.72008 0.86298,-2.93093 2.01135,-4.66047c1.71841,-2.58809 4.98225,-4.78784 7.41821,-6.61291c2.66009,-1.99299 4.80696,-4.77098 7.47948,-6.67036c4.31818,-3.06897 10.68745,-5.84854 15.69311,-7.52392c7.83519,-2.60959 15.86838,-6.00402 23.95232,-7.72048c3.77453,-0.80144 7.85008,-0.13346 11.64097,-0.84466c4.67155,-0.87642 9.21844,-2.86615 13.88967,-3.9042c4.67352,-1.03446 9.01876,-3.48051 13.68193,-4.42409c3.24836,-0.6573 6.75324,-0.24151 10.03974,-0.6761c8.73134,-1.15458 17.3281,-3.99967 26.093,-5.3144c9.42493,-1.41374 18.99663,-1.65992 28.40926,-3.01233c2.31118,-0.33207 4.54721,-1.22775 6.86454,-1.52075c4.47685,-0.56605 9.44631,-0.01832 13.96266,0.00868c10.01093,3.26177 19.88346,7.543 28.33928,13.88387c3.34125,2.50554 7.01894,5.21729 9.57362,8.58051c1.28211,1.68789 2.05416,4.24129 2.96754,6.1455c1.43675,2.99532 3.20575,6.00911 4.36863,9.11924c2.02727,5.42196 3.139,11.39569 4.67466,16.97992c1.09389,3.97777 2.69753,8.11857 3.34404,12.18992c0.64208,4.04345 0.37583,8.46226 0.5538,12.55557c0.27372,6.29557 0.69978,12.87342 0.00588,19.14325c-0.06812,0.61547 -0.53831,5.11402 -0.7164,5.46397c-0.79113,1.55456 -4.4661,3.3271 -5.86568,4.32291c-2.08348,1.4824 -3.29662,3.81435 -5.31343,5.23706c-3.1552,2.22576 -8.16071,3.29225 -11.71083,4.94917c-7.36231,3.42996 -13.54403,8.67315 -20.29079,13.10314c-7.65995,5.0296 -15.68537,9.57866 -23.51318,14.34342c-2.02482,1.2325 -4.39957,2.34523 -6.26769,3.8016c-3.07912,2.40045 -5.10742,6.16295 -8.10773,8.67259c-3.15045,2.63524 -7.16608,4.64799 -10.61756,6.8813c-5.38564,3.48483 -10.68827,7.19158 -16.24057,10.4039c-15.05836,8.70763 -30.77146,16.07757 -46.19874,24.11807c-14.60144,9.23303 -29.78454,17.19852 -45.99208,23.33185c-9.95402,3.76491 -19.62938,7.60508 -28.64927,13.30788c-2.82812,1.78807 -5.88025,3.15425 -8.68584,4.9079c-0.78312,0.48949 -1.31793,1.39409 -2.19065,1.69614c-1.89821,0.65697 -4.81566,-0.00332 -6.64952,-0.58104c-1.43302,-0.81389 -2.76363,-1.83546 -4.28906,-2.45917c-3.46952,-1.41858 -7.63327,-1.31242 -11.24111,-2.23314c-4.10674,-1.04805 -8.47235,-2.52678 -12.46743,-3.94876c-2.41037,-0.85792 -4.36389,-2.57984 -6.61152,-3.67538c-1.22042,-0.59486 -2.7267,-0.35247 -3.97589,-0.88426c-1.96533,-0.83665 -4.2043,-2.64773 -6.05482,-3.75881c-2.41239,-1.68712 -4.84268,-3.88287 -7.45154,-5.23103c-2.6618,-1.37552 -5.81758,-1.77565 -8.53376,-3.13137c-9.562,-4.77268 -19.1082,-9.57631 -28.65191,-14.38541c-15.59882,-7.8603 -30.22742,-17.87958 -45.09401,-27.04731c-14.8763,-9.17372 -29.4092,-18.92064 -44.05776,-28.4536c-14.61812,-9.51314 -28.16749,-21.00817 -42.03679,-31.58527c-13.83809,-10.55329 -29.11836,-19.37656 -43.7714,-28.76366c-14.54225,-9.31613 -29.58461,-17.77917 -44.52861,-26.43371c-14.16049,-8.20078 -27.88743,-16.9853 -41.63575,-25.84101c1.09822,0.99185 2.24478,1.90086 3.54119,2.5379c2.02409,1.51218 3.9809,2.88245 6.1904,4.10934l2.08696,1.16054c0,0 1.09245,0.6075 0.48495,1.69995z" fill="#2f2c31" fill-rule="nonzero" stroke="none" stroke-width="0.5"/><path d="M306.71393,84.30694c0.2028,-0.60839 0.61368,-0.80061 0.96576,-0.84355c-0.19079,-1.34617 -0.22513,-2.67914 -0.02925,-3.92818c-0.07344,-0.1368 -0.15398,-0.2687 -0.24611,-0.39248c-0.88968,-1.19526 -3.00347,-2.52254 -3.6874,-3.80319c-0.28169,-0.52745 0.00931,-1.20073 -0.07901,-1.79213c-0.1525,-1.02112 -1.05534,-2.08452 -0.64118,-3.03025c0.341,-0.77866 1.8676,-0.24685 2.37499,-0.92887c0.43729,-0.58779 -0.39874,-1.5534 -0.04926,-2.19728c0.60185,-1.10887 2.40571,-1.17349 3.02801,-2.27101c0.74149,-1.30772 0.81124,-3.02957 1.85638,-4.11013c1.11469,-1.15247 2.56762,-1.97009 3.57701,-3.21582c2.01088,-2.37324 3.8111,-2.64005 6.25835,-4.38903c0.48536,-0.34687 3.50816,-2.71979 3.76647,-2.86282c1.43426,-0.79419 3.19635,-0.88346 4.61044,-1.71304c1.20407,-0.70637 1.84955,-2.1135 2.9495,-2.97308c2.45079,-1.91525 5.83201,-2.66006 8.28401,-4.50789c3.60037,-2.71322 4.39877,-8.24251 8.3944,-10.65017c0.81806,-0.49294 1.86817,-1.32953 2.72066,-0.89887c0.9982,0.50427 0.97996,2.01058 1.46995,3.01587c2.16732,4.32142 5.07293,7.89467 7.5259,12.02451c3.26258,5.49291 5.0517,11.79094 8.26179,17.27918c0.78442,1.3411 1.20609,2.94666 2.29028,4.05949c1.23431,1.26691 3.20616,1.93778 3.9511,3.54204c0.35582,0.76629 0.14743,1.70746 0.45933,2.49266c0.58411,1.4705 1.77649,2.61889 2.65363,3.93577c2.97819,4.47128 5.9622,9.36548 9.7019,13.24815c1.62206,1.68408 2.18186,1.47668 3.83007,3.24653c2.26563,2.43284 3.86556,5.55248 5.95996,8.13605c2.09853,2.58867 4.74275,4.80693 6.7125,7.49388c1.96428,2.6795 3.4807,5.87086 5.17312,8.73203c1.55438,2.90213 3.6454,5.91081 4.80152,8.98977c1.15802,3.08398 1.06917,6.63996 2.23693,9.71401c1.38188,3.63772 4.57497,6.6228 6.15614,10.19015c0.97835,2.2073 1.01579,4.94956 2.10928,7.09089c1.59386,3.12115 5.07974,6.05449 7.13932,8.99887c3.8147,5.46047 7.01082,11.22837 10.92894,16.58476c3.32128,4.54045 7.85872,8.19274 11.084,12.92365c2.89913,4.25251 4.85008,8.88706 6.80566,13.61305c1.90177,4.59594 4.27285,9.22403 5.7729,13.96389c2.24227,7.08514 2.66341,14.73955 4.79483,21.85906c1.4104,4.7111 3.57633,9.32411 5.33662,13.91829c1.48287,3.87073 3.65771,7.73903 4.42229,11.83057c0.20825,1.11439 0.88831,2.31622 0.46723,3.3688c-0.29394,0.73476 -1.46643,0.59691 -2.18572,0.9269c-3.13908,1.44011 -5.88914,1.31862 -9.19869,1.92039c-2.00219,0.36406 -4.0213,2.33195 -5.95567,2.99986c-2.16377,0.74712 -4.67832,0.44172 -6.84796,1.15297c-2.99258,0.98103 -6.00161,2.58709 -8.9647,3.73923c-3.79696,1.89508 -8.28221,2.72523 -11.95461,4.84043c-1.4207,0.81829 -2.39061,2.38657 -3.8939,3.0845c-1.00158,0.465 -3.81015,0.55603 -4.91244,0.93868c-4.58813,1.59269 -8.65202,5.05072 -13.22,6.86706c-3.84158,1.5275 -7.92831,2.06718 -11.48996,4.22736c-7.11084,4.27763 -14.5852,9.38624 -22.9497,10.77723c-3.00364,0.4995 -6.51828,0.01325 -9.56456,0.01325c-5.67129,0 -11.32185,0.02727 -16.98636,-0.26767c-2.84157,-0.17525 -4.58267,-1.15042 -7.23328,-2.03392c-6.60837,-2.20269 -14.73063,-5.82271 -19.56247,-10.98446c-2.09298,-2.23589 -3.21668,-5.61808 -4.98703,-8.11942c-2.55315,-3.60736 -5.24368,-6.65166 -7.40113,-10.56079c-0.05485,-3.09501 -0.47625,-6.67031 0.0151,-9.73174c0.10065,-0.62711 1.3716,-4.11662 1.53862,-4.84412c0.76439,-3.32939 0.80748,-6.63086 2.3336,-9.79486c0.92892,-1.92588 2.86285,-3.75376 4.25432,-5.33875c4.51405,-5.14184 9.11342,-9.17697 15.25248,-12.2465c2.06886,-1.03194 4.59357,-2.3453 6.89811,-2.74624c2.21717,-0.38573 4.69915,-0.2171 6.87589,-0.71684c1.30557,-0.29974 2.07407,-1.72901 3.26388,-2.3444c1.75913,-0.90986 5.29274,-2.51487 7.17455,-2.97433c0.69773,-0.17036 1.44134,0.26794 2.14957,0.14847c0.74945,-0.12642 -0.24218,-1.509 -0.49512,-2.22571c-0.29955,-0.84879 -0.68107,-1.68056 -0.83857,-2.56677c-0.25986,-1.46211 0.30033,-2.99724 0.0173,-4.45505c-0.10754,-0.55389 -0.64333,-0.96134 -0.757,-1.514c-0.63815,-3.10275 0.75457,-3.5724 -1.48866,-6.18268c-1.0169,-6.34985 -4.16793,-11.82497 -5.33921,-18.11382c-0.58516,-3.14181 -0.3439,-6.35626 -0.87399,-9.47669c-0.40494,-2.38373 -1.53349,-4.739 -2.13394,-7.08361c-1.21639,-4.74969 -1.65169,-9.69139 -3.37338,-14.29546c-6.00059,-16.11734 -11.22989,-33.36927 -20.27132,-48.04743c-5.07286,-8.24091 -12.89344,-14.37363 -17.23913,-23.1501c-0.82217,-1.66044 -1.66363,-3.6791 -2.23609,-5.77943l-0.72717,-0.20451c0,0 -1.18585,-0.39528 -0.79057,-1.58114zM310.55821,82.32293c0.02321,0.66239 -0.03946,1.33351 -0.07699,2.00073l0.50156,0.18521c0.79591,1.39947 1.6474,2.7682 2.54016,4.10796c0.18658,0.41918 0.38639,0.83271 0.55975,1.25753c0.06413,0.15715 0.11778,0.65233 0.15177,0.48604c0.51494,-2.51935 -1.78587,-3.96201 -2.85597,-5.75801c-0.37706,-0.63284 -0.16372,-1.5547 -0.64258,-2.11447c-0.0535,-0.06253 -0.11316,-0.11695 -0.1777,-0.16498z" fill="#2f2c31" fill-rule="nonzero" stroke="none" stroke-width="0.5"/><g><path d="M132.81186,125.2307c19.78368,-10.32287 39.56742,-20.64576 59.3511,-30.96862c58.42636,-29.89101 116.84973,-59.9792 175.26966,-90.26428c1.01538,3.13103 1.6999,6.34129 2.0526,9.6312c-3.32624,2.32866 -6.82751,4.35378 -10.50477,6.07583c1.46309,2.80399 2.92617,5.60798 4.38925,8.41197c21.70964,-11.56884 43.43732,-23.10422 65.18256,-34.60598c0.24385,0.46733 0.48769,0.93467 0.73153,1.402c-0.65926,0.24292 -1.12334,0.6833 -1.39182,1.32079c0.31375,2.23306 0.39144,4.47173 0.23393,6.71547c-3.30182,2.01996 -6.68813,3.88594 -10.15936,5.59831c0.48769,0.93467 1.46309,2.80399 1.46309,2.80399l111.22488,-58.03569c0,0 -1.93737,-2.95291 -2.9058,-4.42947c64.57877,-33.1047 129.15686,-66.20614 193.73943,-99.307c0.24384,0.46734 0.4877,0.93466 0.73155,1.40199c-0.64979,2.28709 -1.19832,4.6543 -1.64558,7.10161c-7.3554,4.13518 -14.79207,8.11464 -22.30999,11.93835c4.04463,8.02498 8.50324,15.80638 13.37088,23.34621c6.75977,13.90082 13.91279,27.60951 21.45858,41.12516c-2.02355,1.05586 -4.05175,2.11416 -6.07531,3.17002c-106.791,48.90425 -213.69502,97.74915 -320.71206,146.5335c1.46971,1.98598 2.76382,4.08558 3.88119,6.29879c-73.49605,39.56339 -147.00234,79.10715 -220.51935,118.63153c-13.57947,-27.00158 -27.24849,-53.95773 -41.0071,-80.8687c-3.42707,1.7882 -6.8542,3.57644 -10.28128,5.36464c-1.27944,-2.01402 -2.64766,-3.87655 -4.10468,-5.58762c-0.48769,-0.93467 -0.97539,-1.86932 -1.46309,-2.80399z" fill="#000000" fill-rule="evenodd" stroke="none" stroke-width="1"/><path d="M135.18924,126.36848c9.18278,-5.18781 18.52602,-10.26118 28.02971,-15.2201c67.65401,-35.00169 135.42725,-69.77033 203.31972,-104.30588c0.66697,2.20464 0.82314,4.40231 0.4676,6.59355c-62.77155,33.14977 -125.7052,65.98775 -188.8019,98.51438c-13.35391,5.92728 -26.40536,12.44007 -39.15428,19.53833c-1.2284,-1.83499 -2.51536,-3.54176 -3.86084,-5.12028z" fill="#191c24" fill-rule="evenodd" stroke="none" stroke-width="1"/><path d="M150.06291,127.52612c14.19447,-7.43663 28.69529,-14.21023 43.50255,-20.32079c54.34162,-29.52534 109.01246,-58.44828 164.01298,-86.76898c1.87843,2.99039 3.15219,6.19044 3.82036,9.60066c2.35553,3.05465 4.45544,6.31909 6.29931,9.79359c8.87062,19.04354 18.11647,37.90262 27.73778,56.57765c-68.4006,36.7899 -136.84792,73.49595 -205.34125,110.11723c-13.15901,-26.42663 -26.50287,-52.7596 -40.03171,-78.99937z" fill="#596476" fill-rule="evenodd" stroke="none" stroke-width="1"/><path d="M396.10324,12.22597c9.93037,-5.28058 19.94056,-10.40474 30.03113,-15.37258c0.00985,1.64378 0.07733,3.29316 0.20338,4.94772c-19.84909,10.9515 -39.86305,21.59275 -60.04191,31.92364c-0.73155,-1.40199 -1.46309,-2.80399 -2.19462,-4.20598c10.91013,-5.49607 21.57749,-11.26034 32.00202,-17.2928z" fill="#191c24" fill-rule="evenodd" stroke="none" stroke-width="1"/><path d="M530.34956,-50.68718c62.98383,-32.36577 126.04683,-64.57755 189.18804,-96.63487c-0.21147,1.49765 -0.41825,2.9929 -0.62973,4.49056c-47.70998,24.40418 -95.38614,48.88458 -143.02378,73.43882c-14.11284,6.44916 -27.78044,13.67978 -41.00324,21.69225c0.55658,2.02158 0.82726,4.06042 0.81299,6.11604c-14.19339,7.79775 -42.75065,22.9013 -42.75065,22.9013l-49.56768,24.08006c0,0 -13.47437,8.58548 -20.77589,12.02972c-0.81281,-1.55776 -2.43847,-4.67331 -2.43847,-4.67331l113.09421,-59.01108c0,0 -1.84197,-3.0185 -2.9058,-4.42947z" fill="#191c24" fill-rule="evenodd" stroke="none" stroke-width="1"/><path d="M367.0274,35.12676c16.51222,-8.61586 33.0249,-17.23197 49.53712,-25.84783c1.5517,3.51166 3.33993,6.93879 5.36465,10.28129c7.32169,-3.82036 21.96458,-11.46083 21.96458,-11.46083l64.26825,-32.93977c0,0 20.25594,-10.56947 30.1327,-16.31741c0.35878,-2.29216 -0.14929,-4.40533 -1.52418,-6.33952c5.91969,-3.08881 11.8389,-6.17739 17.75859,-9.26621c3.78637,8.71507 7.70828,17.37088 11.76578,25.96745c32.52729,-16.88551 65.33374,-33.21092 98.41399,-48.97287c15.18598,-8.31686 30.36607,-16.63362 45.54446,-24.95365c6.79866,12.90424 13.69942,25.75343 20.70667,38.54467c-99.21784,44.90152 -198.24533,90.23053 -297.08129,135.98697c-8.34056,-15.46614 -16.62435,-30.96251 -24.85208,-46.48931c-9.22108,3.97238 -18.4255,7.9824 -27.61329,12.02997c8.20962,15.73365 16.41898,31.46683 24.62859,47.20048c-0.77904,0.40648 -1.55762,0.81275 -2.33665,1.21924c1.12333,2.27136 2.57283,4.28928 4.34853,6.05495c-3.58302,1.86958 -7.1656,3.73891 -10.74862,5.60849c-10.09253,-20.10228 -20.18535,-40.20398 -30.27781,-60.30612z" fill="#2f2c31" fill-rule="evenodd" stroke="none" stroke-width="1"/><path d="M196.28902,128.37778c14.67609,-7.39226 29.40352,-14.68044 44.18319,-21.86508c2.25351,-1.22817 4.43084,-2.56246 6.53245,-4.00312c4.95822,9.50239 9.91654,19.00497 14.8747,28.50723c-17.13316,8.56647 -34.27581,17.11471 -51.42682,25.6447c-4.74167,-9.41782 -9.46251,-18.84583 -14.16352,-28.28373z" fill="#000000" fill-rule="evenodd" stroke="none" stroke-width="1"/><path d="M295.83061,76.43828c16.3066,-8.27497 32.58842,-16.57238 48.84631,-24.89281c4.71202,9.70625 9.98139,19.04604 15.80935,28.01952c-16.66558,8.32309 -33.34092,16.62748 -50.02482,24.91318c-4.87694,-9.34663 -9.7539,-18.69325 -14.63085,-28.03987z" fill="#000000" fill-rule="evenodd" stroke="none" stroke-width="1"/><path d="M198.42255,129.04824c16.05763,-7.96704 32.10946,-15.94628 48.15551,-23.93778c4.38925,8.41197 8.77852,16.82393 13.16777,25.2359c-16.21363,8.04862 -32.42093,16.1094 -48.62283,24.18162c-4.21093,-8.50435 -8.44458,-16.99752 -12.70043,-25.47974z" fill="#1e272f" fill-rule="evenodd" stroke="none" stroke-width="1"/><path d="M297.96415,77.10873c15.36587,-7.77382 30.71303,-15.58354 46.04234,-23.42972c4.47052,8.56773 8.94114,17.13565 13.4116,25.70323c-15.43801,7.63558 -30.8665,15.2894 -46.28617,22.9624c-4.38925,-8.41197 -8.77852,-16.82393 -13.16777,-25.2359z" fill="#1e272f" fill-rule="evenodd" stroke="none" stroke-width="1"/><path d="M555.93112,-57.49507c46.86677,-24.15486 93.84236,-48.07155 140.93097,-71.75224c3.9803,7.63961 8.11736,15.19222 12.41586,22.65539c-5.07181,2.51798 -9.8956,5.43154 -14.46692,8.73779c-3.83891,-7.90419 -7.74884,-15.77358 -11.72504,-23.61042c-10.15427,5.25484 -20.1141,10.84816 -29.88886,16.78475c-3.66574,1.85125 -7.41272,3.40999 -11.23631,4.67383c3.65568,7.61 7.24412,15.25068 10.77002,22.91961c-15.54093,7.81892 -31.04314,15.70976 -46.50966,23.67357c-3.79959,-6.95711 -7.3012,-14.04852 -10.5058,-21.27376c-12.77357,6.66508 -25.54761,13.33039 -38.32118,19.99549c-0.48769,-0.93467 -0.97539,-1.86932 -1.46308,-2.80398z" fill="#596476" fill-rule="evenodd" stroke="none" stroke-width="1"/><path d="M383.79075,36.4875c5.8121,-2.52016 11.58263,-5.1348 17.31163,-7.84385c7.52375,15.29659 15.09635,30.56947 22.71854,45.81884c-5.46508,2.43659 -10.924,4.88841 -16.37698,7.35614c-7.88432,-15.11023 -15.76889,-30.22091 -23.6532,-45.33114z" fill="#0b0e0d" fill-rule="evenodd" stroke="none" stroke-width="1"/><path d="M664.43347,-109.35364c6.07531,-3.17002 12.15062,-6.34004 18.22593,-9.51005c3.55636,7.26014 7.14111,14.50629 10.74966,21.7411c-12.55552,6.70353 -25.09228,13.44301 -37.61001,20.21897c-0.85644,-0.79815 -1.69797,-1.64747 -2.51967,-2.54994c-2.8013,-6.36002 -5.70354,-12.67419 -8.69731,-18.94729c6.86128,-3.38433 13.47685,-7.03447 19.8514,-10.95278z" fill="#1e272f" fill-rule="evenodd" stroke="none" stroke-width="1"/><path d="M402.50437,27.91212c1.8726,-0.53499 3.66712,-1.2731 5.38449,-2.21498c8.13467,14.98496 16.01899,30.09518 23.65321,45.33116c-2.22214,0.60119 -4.32829,1.50215 -6.31916,2.70267c-7.54013,-15.28924 -15.11273,-30.56211 -22.71854,-45.81884z" fill="#171b21" fill-rule="evenodd" stroke="none" stroke-width="1"/><path d="M558.12575,-53.28909c12.15062,-6.34004 24.30123,-12.68006 36.45184,-19.02009c3.3326,6.38689 6.66515,12.7737 9.99774,19.16059c-12.46232,6.50268 -24.92419,13.00511 -37.38652,19.5078c-2.99324,-6.56151 -6.0141,-13.11098 -9.06308,-19.64828z" fill="#1e272f" fill-rule="evenodd" stroke="none" stroke-width="1"/><path d="M508.04383,-12.12555c3.02414,4.27613 5.27822,8.09719 5.98648,13.32549c1.12461,8.30233 -10.98743,13.24146 -17.65633,11.40839c-6.40421,-0.51835 -15.3092,-8.39841 -16.6824,-14.9827c-0.32439,-1.55534 0.50312,-3.58303 0.7621,-5.09211l-0.03112,-1.80945c0,0 -0.01069,-0.30775 -0.15625,-0.64943c7.19736,-7.66486 22.4452,-12.84845 27.77754,-2.2002z" data-paper-data="{&quot;noHover&quot;:false,&quot;origItem&quot;:[&quot;Path&quot;,{&quot;applyMatrix&quot;:true,&quot;segments&quot;:[[[239.73792,188.86733],[5.93491,-2.49547],[-0.00365,0.22738]],[239.6647,189.26861],[[239.23494,190.28525],[0,0],[-0.52064,0.77968]],[[237.54914,192.93162],[0.20586,-0.95085],[-0.87145,4.02522]],[[243.12668,205.40013],[-3.45346,-1.88474],[3.2741,2.68613]],[[255.78171,203.43239],[-1.43833,4.9244],[0.90577,-3.10109]],[[255.74519,194.53085],[0.62688,3.14515],[-0.33131,-7.28453]]],&quot;closed&quot;:true}],&quot;index&quot;:null}" fill="#ffffff" fill-rule="nonzero" stroke="#000000" stroke-width="0"/><path d="M453.48953,1.3048c2.25818,-2.3936 4.90057,-6.22258 8.39025,-6.9317c6.63864,-1.34902 12.44925,6.34433 15.00747,11.1984c1.15945,1.97728 3.52958,5.44925 3.81853,7.77292c0.30458,2.44965 -1.80642,4.664 -3.15737,6.33526c-5.61271,6.94336 -14.92495,5.56882 -20.58291,-0.64074c-4.30309,-3.94327 -6.23003,-8.52585 -6.30113,-14.12709l0.01464,-0.28228c0.76948,-1.15586 1.75044,-2.20103 2.81059,-3.32477z" data-paper-data="{&quot;noHover&quot;:false,&quot;origItem&quot;:[&quot;Path&quot;,{&quot;applyMatrix&quot;:true,&quot;segments&quot;:[[[219.56657,189.63753],[0.71829,-0.45498],[0,0]],[[219.4887,189.79114],[0,0],[-1.35504,3.15105]],[[219.50428,199.20851],[-1.42521,-3.27742],[1.61878,4.88257]],[[230.79047,204.66873],[-4.86879,2.48645],[1.1719,-0.59848]],[[234.11726,201.92538],[-0.43962,1.44618],[0.41702,-1.37181]],[[233.90684,196.65265],[0.15622,1.39481],[-0.22232,-3.35242]],[[228.33981,186.7038],[4.0496,0.8985],[-2.12871,-0.4723]],[[221.95557,188.48638],[1.85928,-0.77666],[-0.87287,0.36462]]],&quot;closed&quot;:true}],&quot;index&quot;:null}" fill="#ffffff" fill-rule="nonzero" stroke="#000000" stroke-width="0"/><path d="M470.4198,7.06341c-0.64189,-1.44199 0.0067,-3.1313 1.44866,-3.77319c1.44199,-0.64189 3.1313,0.0067 3.77319,1.44866c0.64189,1.44199 -0.0067,3.1313 -1.44866,3.77319c-1.44199,0.64189 -3.1313,-0.0067 -3.77319,-1.44866z" data-paper-data="{&quot;index&quot;:null}" fill="#000000" fill-rule="nonzero" stroke="none" stroke-width="0"/><path d="M503.50608,-7.34765c-0.64189,-1.44199 0.0067,-3.1313 1.44867,-3.7732c1.44199,-0.64189 3.1313,0.0067 3.7732,1.44866c0.64189,1.44199 -0.0067,3.1313 -1.44867,3.77321c-1.44199,0.64189 -3.13131,-0.00671 -3.77321,-1.44867z" data-paper-data="{&quot;index&quot;:null}" fill="#000000" fill-rule="nonzero" stroke="none" stroke-width="0"/><path d="M398.65931,-27.72974c-0.37213,0.12055 -1.48362,0.35726 -2.03155,-0.87368c-0.66414,-1.49196 0.82783,-2.1561 0.82783,-2.1561l0.98602,-0.25019c8.34297,0.38798 16.27075,2.81511 24.24852,4.90147c6.20822,1.64477 12.73636,1.52838 18.9938,3.16852c5.45325,1.42937 10.83384,3.41089 16.30988,4.85928c3.44591,0.91146 7.05771,1.03934 10.25239,2.65958c0,0 1.45063,0.75013 0.70051,2.20077c-0.75012,1.45062 -2.20077,0.70051 -2.20077,0.70051c-2.88395,-1.52883 -6.44079,-1.5731 -9.58629,-2.40292c-5.47814,-1.44518 -10.86062,-3.43043 -16.31401,-4.86038c-6.25664,-1.64058 -12.75668,-1.55402 -18.98234,-3.16547c-7.62983,-1.99756 -15.23774,-4.37732 -23.204,-4.78129z" data-paper-data="{&quot;index&quot;:null}" fill="#000000" fill-rule="nonzero" stroke="none" stroke-width="0"/><path d="M513.49126,-75.02409c1.42647,0.79508 0.6314,2.22158 0.6314,2.22158l-0.56447,0.97903c-2.06909,5.31005 -6.41974,9.93448 -9.57296,14.62901c-4.0779,6.44378 -7.64702,13.19085 -11.84834,19.57943c-4.66501,7.09363 -10.1503,13.08018 -13.74208,20.85347c0,0 -0.68549,1.48231 -2.16778,0.7968c-1.48231,-0.68549 -0.79679,-2.16779 -0.79679,-2.16779c3.67166,-7.93312 9.24438,-14.03559 13.98,-21.28071c4.18084,-6.3964 7.76786,-13.12544 11.84058,-19.56762c3.01053,-4.44714 7.35436,-8.96394 9.25815,-14.01335l0.76066,-1.39847c0,0 0.79508,-1.42648 2.22158,-0.6314z" data-paper-data="{&quot;index&quot;:null}" fill="#000000" fill-rule="nonzero" stroke="none" stroke-width="0"/><path d="M469.07977,79.00247c-0.9202,0.45207 -1.45643,-0.22138 -1.61952,-0.47818c-1.97463,-2.00355 -3.92341,-3.89152 -5.3679,-6.32313c-5.01343,-8.50542 -11.41493,-19.50264 -8.54947,-29.91168c1.47416,-5.35502 6.28004,-9.04492 10.49635,-12.15611c7.39576,-5.01931 15.7885,-8.7939 24.03141,-12.24079c6.19667,-2.59122 12.55583,-5.16694 19.24361,-5.88779c15.22572,-1.15507 25.17865,12.37663 30.4375,25.15348c0,0 0.47532,1.1561 -0.68078,1.63143c-1.1561,0.47532 -1.63143,-0.68078 -1.63143,-0.68078c-4.78493,-11.65141 -13.87775,-24.73055 -27.89449,-23.61481c-6.42649,0.69341 -12.55388,3.21369 -18.50983,5.70489c-8.07256,3.37653 -16.30749,7.06057 -23.55159,11.97488c-3.72835,2.75225 -8.23465,6.03629 -9.5355,10.79725c-2.64498,9.68037 3.66128,20.09446 8.29789,27.96056c1.34724,2.30622 3.25598,4.06964 5.12196,5.96691l0.28251,0.43077c0,0 0.55117,1.12192 -0.57075,1.6731z" fill="#000000" fill-rule="nonzero" stroke="none" stroke-width="0.5"/></g><path d="M-1117.37278,989.77027v-1619.57958h2878.25006v1619.57958z" fill="none" fill-rule="nonzero" stroke="#000000" stroke-width="0"/></g></g></svg>