<svg version="1.1" xmlns="http://www.w3.org/2000/svg" xmlns:xlink="http://www.w3.org/1999/xlink" width="2878.25006" height="1619.57958" viewBox="0,0,2878.25006,1619.57958"><g transform="translate(1117.37278,629.80931)"><g data-paper-data="{&quot;isPaintingLayer&quot;:true}" stroke-linecap="butt" stroke-linejoin="miter" stroke-miterlimit="10" stroke-dasharray="" stroke-dashoffset="0" style="mix-blend-mode: normal"><path d="M648.03619,-9.73983c1.06394,0.65615 0.4078,1.72009 0.4078,1.72009l-0.42665,0.62335c0.90817,1.97847 1.55759,4.06684 1.99201,5.86803c2.2962,9.52045 0.23077,19.24185 1.62558,28.81791c2.47975,17.06009 9.53496,33.6492 15.27066,49.8627c1.63265,4.63639 4.46873,8.70659 6.58243,13.13055c1.0434,2.18382 1.68851,4.71458 2.90698,6.80299c1.59505,2.73384 3.84214,5.04501 5.40866,7.83058c3.13565,5.57577 4.23057,11.79727 7.52378,17.32081c-0.04642,3.44144 1.32326,2.90832 2.82407,5.69792c0.26732,0.49688 0.11767,1.15315 0.39048,1.64705c0.71804,1.2999 2.13254,2.1182 2.87111,3.40654c0.44766,0.78088 0.68855,1.6637 1.00324,2.50699c0.26572,0.71207 0.3919,2.40881 1.04793,2.02504c0.61995,-0.36267 0.90924,-1.17592 1.55378,-1.49281c1.73834,-0.85468 5.4787,-1.89016 7.41185,-2.32062c1.30751,-0.29115 2.81391,0.31232 4.00774,-0.29524c1.99043,-1.01297 3.78628,-2.73448 5.7346,-3.86084c2.0251,-1.17074 4.80439,-1.78277 7.05347,-2.31827c6.67855,-1.58334 12.79537,-1.43826 19.55667,-0.38944c2.08419,0.3233 4.74034,0.48496 6.68836,1.36649c3.20039,1.44825 5.35128,3.95329 8.07342,6.01705c0.59481,0.45095 3.80826,2.3126 4.28775,2.72911c2.34079,2.03335 4.311,5.04642 6.25432,7.4559c0.85257,4.38281 0.74143,8.44413 1.09687,12.84928c0.24646,3.05452 1.55404,6.36996 1.38272,9.42781c-0.39552,7.05931 -4.30424,15.04665 -7.96078,20.97557c-1.46663,2.37809 -2.17674,4.24306 -4.2442,6.20032c-4.15626,3.85994 -8.50852,7.46375 -12.85918,11.10178c-2.33692,1.95413 -4.72121,4.58173 -7.34584,6.12533c-7.30902,4.2986 -16.31997,5.17425 -24.51899,6.4542c-4.11799,0.62758 -7.59927,2.83513 -11.52616,4.12763c-4.66942,1.53689 -10.00525,1.49102 -14.54666,3.21241c-1.09107,0.41355 -3.30403,2.14537 -4.37067,2.43114c-1.60094,0.42892 -3.35102,-0.15198 -4.96581,0.13163c-4.1741,0.73313 -8.14743,2.9735 -12.27589,3.95539c-3.01218,1.01692 -6.35078,1.71509 -9.27581,2.88219c-2.12067,0.84616 -3.85377,2.69348 -5.99294,3.50836c-1.91238,0.72848 -4.72368,0.51406 -6.49318,1.51915c-2.92491,1.66138 -4.95665,3.51869 -8.28856,4.42759c-0.76348,0.20826 -1.57451,1.06615 -2.27134,0.69104c-0.99824,-0.53736 -1.24749,-1.89557 -1.80259,-2.88405c-2.03811,-3.62924 -2.85115,-7.99188 -4.19659,-11.9125c-1.5967,-4.65356 -2.89429,-9.58179 -4.83441,-14.1006c-2.93194,-6.82891 -7.51904,-12.97106 -10.3439,-19.84471c-1.88979,-4.59838 -3.03968,-9.66977 -4.52897,-14.41544c-1.53144,-4.87996 -3.00777,-9.6868 -3.51165,-14.8088c-0.56056,-5.69822 0.57741,-11.41072 0.21267,-17.02441c-0.43029,-6.62249 -1.67843,-13.09752 -2.25482,-19.73352c-0.30878,-3.57993 0.48368,-8.06634 -0.29577,-11.48312c-0.53477,-2.34415 -2.26516,-4.47186 -2.93057,-6.79276c-1.07542,-3.75094 -0.54075,-8.08922 -1.81419,-11.76631c-1.07611,-3.10732 -3.42537,-5.77825 -4.51533,-8.88694c-1.08819,-3.10362 -1.41411,-6.75304 -2.08335,-9.97648c-0.53707,-3.28057 -1.42097,-6.70154 -1.63294,-10.01714c-0.21256,-3.32482 0.39295,-6.72275 0.34222,-10.05479c-0.05062,-3.32547 -0.82445,-6.745 -0.64702,-10.06468c0.12908,-2.41502 0.69156,-2.61501 0.8556,-4.94746c0.3782,-5.37749 -0.47219,-11.04621 -1.05575,-16.38675c-0.17187,-1.5729 0.00618,-3.21876 -0.48903,-4.72153c-0.26442,-0.80244 -1.02803,-1.39076 -1.24663,-2.20687c-0.45763,-1.70855 0.6247,-3.48811 0.75888,-5.25179c0.11786,-1.54918 -0.5886,-3.05136 -0.84713,-4.58336c-1.05803,-6.26945 -3.7256,-12.2486 -4.74635,-18.55531c-0.76745,-4.74169 -0.83062,-9.34677 -1.9401,-14.05219c-0.26899,-1.08552 -1.24925,-2.22936 -0.80697,-3.25654c0.37772,-0.87723 1.71995,-0.90908 2.66373,-1.0557c4.60967,-0.71612 8.76909,3.01345 13.27156,2.78529c3.06637,-0.15537 6.13802,-1.75299 9.24671,-1.85587c1.39522,-0.04618 2.79304,0.61922 4.16985,0.38871c1.61696,-0.27071 3.02599,-1.33258 4.63573,-1.64338c0.28991,-0.05598 4.131,-0.17469 4.72585,-0.21994c2.99932,-0.22816 4.55149,-1.17829 7.6165,-0.64763c1.57345,0.30814 3.21254,0.00334 4.80695,0.17239c1.49493,0.1585 2.65297,1.43465 4.06067,1.9622c1.18143,0.44276 2.60669,-0.66482 3.77971,-0.20024c0.68114,0.26976 0.65921,1.54681 1.37173,1.71722c0.82674,0.19772 1.65671,-1.18954 2.4178,-0.81094c0.92439,0.45983 0.91394,1.85476 1.45198,2.73593c0.31162,0.51034 0.96675,0.84017 1.08901,1.42549c0.29685,1.42116 -0.4733,3.79533 -0.38907,5.28297c0.00873,0.15406 0.03155,0.30691 0.06297,0.45896c0.9515,0.83253 1.78024,1.87713 2.49742,3.03222c0.29764,-0.19291 0.73615,-0.30902 1.28199,0.0276zM643.81442,-8.79585c-0.0187,0.07825 -0.02956,0.15827 -0.03049,0.24055c-0.00827,0.7366 0.74675,1.30694 0.86345,2.03429c0.33119,2.06423 -0.50841,4.64688 1.50274,6.24924c0.13275,0.10576 -0.14375,-0.30852 -0.19536,-0.47022c-0.13952,-0.4371 -0.25151,-0.88251 -0.37728,-1.32377c-0.17456,-1.60047 -0.39937,-3.19669 -0.68653,-4.78084l0.26596,-0.46382c-0.4568,-0.48778 -0.93539,-0.96242 -1.34249,-1.48545z" data-paper-data="{&quot;index&quot;:null}" fill="#2f2c31" fill-rule="nonzero" stroke="none" stroke-width="0.5"/><path d="M270.68773,70.1148c0.2028,-0.60839 0.61368,-0.80061 0.96576,-0.84355c-0.19079,-1.34617 -0.22513,-2.67914 -0.02925,-3.92818c-0.07344,-0.1368 -0.15398,-0.2687 -0.24611,-0.39248c-0.88968,-1.19526 -3.00347,-2.52254 -3.6874,-3.80319c-0.28169,-0.52745 0.00931,-1.20073 -0.07901,-1.79213c-0.1525,-1.02112 -1.05534,-2.08452 -0.64118,-3.03025c0.341,-0.77866 1.8676,-0.24685 2.37499,-0.92887c0.43729,-0.58779 -0.39874,-1.5534 -0.04926,-2.19728c0.60185,-1.10887 2.40571,-1.17349 3.02801,-2.27101c0.74149,-1.30772 0.81124,-3.02957 1.85638,-4.11013c1.11469,-1.15247 2.56762,-1.97009 3.57701,-3.21582c2.01088,-2.37324 3.8111,-2.64005 6.25835,-4.38903c0.48536,-0.34687 3.50816,-2.71979 3.76647,-2.86282c1.43426,-0.79419 3.19635,-0.88346 4.61044,-1.71304c1.20407,-0.70637 1.84955,-2.1135 2.9495,-2.97308c2.45079,-1.91525 5.83201,-2.66006 8.28401,-4.50789c3.60037,-2.71322 4.39877,-8.24251 8.3944,-10.65017c0.81806,-0.49294 1.86817,-1.32953 2.72066,-0.89887c0.9982,0.50427 0.97996,2.01058 1.46995,3.01587c2.16732,4.32142 5.07293,7.89467 7.5259,12.02451c3.26258,5.49291 5.0517,11.79094 8.26179,17.27918c0.78442,1.3411 1.20609,2.94666 2.29028,4.05949c1.23431,1.26691 3.20616,1.93778 3.9511,3.54204c0.35582,0.76629 0.14743,1.70746 0.45933,2.49266c0.58411,1.4705 1.77649,2.61889 2.65363,3.93577c2.97819,4.47128 5.9622,9.36548 9.7019,13.24815c1.62206,1.68408 2.18186,1.47668 3.83007,3.24653c2.26563,2.43284 3.86556,5.55248 5.95996,8.13605c2.09853,2.58867 4.74275,4.80693 6.7125,7.49388c1.96428,2.6795 3.4807,5.87086 5.17312,8.73203c1.55438,2.90213 3.6454,5.91081 4.80152,8.98977c1.15802,3.08398 1.06917,6.63996 2.23693,9.71401c1.38188,3.63772 4.57497,6.6228 6.15614,10.19015c0.97835,2.2073 1.01579,4.94956 2.10928,7.09089c1.59386,3.12115 5.07974,6.05449 7.13932,8.99887c3.8147,5.46047 7.01082,11.22837 10.92894,16.58476c3.32128,4.54045 7.85872,8.19274 11.084,12.92365c2.89913,4.25251 4.85008,8.88706 6.80566,13.61305c1.90177,4.59594 4.27285,9.22403 5.7729,13.96389c2.24227,7.08514 2.66341,14.73955 4.79483,21.85906c1.4104,4.7111 3.57633,9.32411 5.33662,13.91829c1.48287,3.87073 3.65771,7.73903 4.42229,11.83057c0.20825,1.11439 0.88831,2.31622 0.46723,3.3688c-0.29394,0.73476 -1.46643,0.59691 -2.18572,0.9269c-3.13908,1.44011 -5.88914,1.31862 -9.19869,1.92039c-2.00219,0.36406 -4.0213,2.33195 -5.95567,2.99986c-2.16377,0.74712 -4.67832,0.44172 -6.84796,1.15297c-2.99258,0.98103 -6.00161,2.58709 -8.9647,3.73923c-3.79696,1.89508 -8.28221,2.72523 -11.95461,4.84043c-1.4207,0.81829 -2.39061,2.38657 -3.8939,3.0845c-1.00158,0.465 -3.81015,0.55603 -4.91244,0.93868c-4.58813,1.59269 -8.65202,5.05072 -13.22,6.86706c-3.84158,1.5275 -7.92831,2.06718 -11.48996,4.22736c-7.11084,4.27763 -14.5852,9.38624 -22.9497,10.77723c-3.00364,0.4995 -6.51828,0.01325 -9.56456,0.01325c-5.67129,0 -11.32185,0.02727 -16.98636,-0.26767c-2.84157,-0.17525 -4.58267,-1.15042 -7.23328,-2.03392c-6.60837,-2.20269 -14.73063,-5.82271 -19.56247,-10.98446c-2.09298,-2.23589 -3.21668,-5.61808 -4.98703,-8.11942c-2.55315,-3.60736 -5.24368,-6.65166 -7.40113,-10.56079c-0.05485,-3.09501 -0.47625,-6.67031 0.0151,-9.73174c0.10065,-0.62711 1.3716,-4.11662 1.53862,-4.84412c0.76439,-3.32939 0.80748,-6.63086 2.3336,-9.79486c0.92892,-1.92588 2.86285,-3.75376 4.25432,-5.33875c4.51405,-5.14184 9.11342,-9.17697 15.25248,-12.2465c2.06886,-1.03194 4.59357,-2.3453 6.89811,-2.74624c2.21717,-0.38573 4.69915,-0.2171 6.87589,-0.71684c1.30557,-0.29974 2.07407,-1.72901 3.26388,-2.3444c1.75913,-0.90986 5.29274,-2.51487 7.17455,-2.97433c0.69773,-0.17036 1.44134,0.26794 2.14957,0.14847c0.74945,-0.12642 -0.24218,-1.509 -0.49512,-2.22571c-0.29955,-0.84879 -0.68107,-1.68056 -0.83857,-2.56677c-0.25986,-1.46211 0.30033,-2.99724 0.0173,-4.45505c-0.10754,-0.55389 -0.64333,-0.96134 -0.757,-1.514c-0.63815,-3.10275 0.75457,-3.5724 -1.48866,-6.18268c-1.0169,-6.34985 -4.16793,-11.82497 -5.33921,-18.11382c-0.58516,-3.14181 -0.3439,-6.35626 -0.87399,-9.47669c-0.40494,-2.38373 -1.53349,-4.739 -2.13394,-7.08361c-1.21639,-4.74969 -1.65169,-9.69139 -3.37338,-14.29546c-6.00059,-16.11734 -11.22989,-33.36927 -20.27132,-48.04743c-5.07286,-8.24091 -12.89344,-14.37363 -17.23913,-23.1501c-0.82217,-1.66044 -1.66363,-3.6791 -2.23609,-5.77943l-0.72717,-0.20451c0,0 -1.18585,-0.39528 -0.79057,-1.58114zM274.53201,68.13079c0.02321,0.66239 -0.03946,1.33351 -0.07699,2.00073l0.50156,0.18521c0.79591,1.39947 1.6474,2.7682 2.54016,4.10796c0.18658,0.41918 0.38639,0.83271 0.55975,1.25753c0.06413,0.15715 0.11778,0.65233 0.15177,0.48604c0.51494,-2.51935 -1.78587,-3.96201 -2.85597,-5.75801c-0.37706,-0.63284 -0.16372,-1.5547 -0.64258,-2.11447c-0.0535,-0.06253 -0.11316,-0.11695 -0.1777,-0.16498z" fill="#2f2c31" fill-rule="nonzero" stroke="none" stroke-width="0.5"/><g><path d="M118.9201,55.05542c21.60235,-5.59411 43.20476,-11.18823 64.80711,-16.78234c63.66312,-15.9411 127.36781,-32.07497 191.11357,-48.40144c0.28293,3.27937 0.22565,6.5613 -0.17286,9.84598c-3.7658,1.51833 -7.63364,2.70145 -11.60457,3.54962c0.79287,3.06176 1.58573,6.12351 2.3786,9.18526c23.75973,-6.37352 47.52949,-12.71038 71.30877,-19.01052c0.13215,0.51029 0.26428,1.02059 0.39642,1.53088c-0.69706,0.08795 -1.24852,0.41229 -1.65388,0.97279c-0.19806,2.24628 -0.62736,4.44477 -1.28694,6.59515c-3.67237,1.22309 -7.39232,2.27711 -11.16035,3.16233c0.26428,1.02059 0.79287,3.06176 0.79287,3.06176l121.44953,-31.45038c0,0 -1.22133,-3.31382 -1.83173,-4.97078c70.38189,-17.68413 140.76238,-35.36524 211.1471,-53.04478c0.13214,0.5103 0.26429,1.02058 0.39644,1.53087c-1.14895,2.08157 -2.21733,4.26403 -3.20511,6.54737c-8.09861,2.36941 -16.24127,4.56878 -24.42796,6.59809c2.13015,8.73051 4.71856,17.3171 7.75995,25.76061c3.44987,15.06737 7.3262,30.03627 11.62872,44.90571c-2.20957,0.57218 -4.42422,1.1457 -6.6338,1.71788c-115.07011,23.55446 -230.23694,47.02561 -345.50022,70.41227c0.98384,2.26632 1.77098,4.60373 2.36031,7.01194c-80.52625,21.96485 -161.05805,43.90826 -241.59591,65.83037c-7.1386,-29.36882 -14.3747,-58.71358 -21.70826,-88.03454c-3.74211,0.96905 -7.48429,1.93813 -11.22642,2.90718c-0.79215,-2.25072 -1.70497,-4.37388 -2.73846,-6.36952c-0.26428,-1.02059 -0.52858,-2.04116 -0.79287,-3.06176z" fill="#000000" fill-rule="evenodd" stroke="none" stroke-width="1"/><path d="M120.97955,56.70015c10.11634,-2.9827 20.36319,-5.81771 30.74054,-8.50503c73.80578,-18.83853 147.67514,-37.42313 221.60809,-55.75375c0.15247,2.29827 -0.19112,4.47452 -1.03179,6.52909c-68.63141,18.1357 -137.35042,35.93109 -206.15804,53.38637c-14.34677,2.76221 -28.53095,6.16306 -42.55246,10.20254c-0.78281,-2.06479 -1.6516,-4.01788 -2.60633,-5.85922z" fill="#191c24" fill-rule="evenodd" stroke="none" stroke-width="1"/><path d="M135.20874,61.18307c15.50613,-4.04305 31.16116,-7.37105 46.96516,-9.98397c59.60118,-16.50627 119.38721,-32.3514 179.35857,-47.53544c1.15546,3.33704 1.67454,6.74194 1.55623,10.21499c1.60577,3.50727 2.91518,7.16125 3.92777,10.96213c4.34625,20.5537 9.09967,41.01233 14.26039,61.37635c-74.9365,20.41224 -149.8996,40.73226 -224.88841,60.95931c-6.85867,-28.71385 -13.91856,-57.37814 -21.17969,-85.99337z" fill="#596476" fill-rule="evenodd" stroke="none" stroke-width="1"/><path d="M400.91638,4.3551c10.86559,-2.90444 21.77365,-5.63849 32.72477,-8.20211c-0.3612,1.60363 -0.66752,3.22573 -0.91794,4.86607c-21.80788,6.19179 -43.70639,12.04413 -65.69554,17.55691c-0.39644,-1.53087 -0.79287,-3.06176 -1.18929,-4.59263c11.8687,-2.89337 23.5614,-6.10278 35.07801,-9.62825z" fill="#191c24" fill-rule="evenodd" stroke="none" stroke-width="1"/><path d="M545.89422,-26.65397c68.66137,-17.32403 137.36514,-34.48017 206.11025,-51.4682c-0.54385,1.41135 -1.08259,2.82141 -1.62646,4.23277c-51.98526,13.01303 -103.95476,26.10794 -155.9034,39.28348c-15.20386,3.09944 -30.15023,7.06064 -44.83964,11.88387c0.08622,2.09503 -0.10999,4.14238 -0.58759,6.14179c-15.58654,4.3951 -46.81474,12.66758 -46.81474,12.66758l-53.72197,12.27821c0,0 -15.06375,5.32472 -22.95401,7.03315c-0.44047,-1.70096 -1.32144,-5.10292 -1.32144,-5.10292l123.49071,-31.97895c0,0 -1.1136,-3.3562 -1.83173,-4.97078z" fill="#191c24" fill-rule="evenodd" stroke="none" stroke-width="1"/><path d="M367.4241,20.10688c18.03015,-4.66906 36.06081,-9.33826 54.09096,-14.00731c0.71957,3.77117 1.68863,7.51335 2.90718,11.22643c7.99476,-2.07031 23.98373,-6.21079 23.98373,-6.21079l70.04217,-17.5935c0,0 22.11806,-5.72783 33.03685,-9.09968c0.86659,-2.15215 0.84829,-4.32546 -0.05486,-6.51994c6.46387,-1.67387 12.92722,-3.34762 19.3911,-5.0215c1.72288,9.34456 3.59118,18.66195 5.60493,27.95222c35.49787,-9.11297 71.14136,-17.61731 106.92449,-25.51095c16.67065,-4.67693 33.33553,-9.35509 49.9995,-14.03682c3.71256,14.10525 7.53701,28.1799 11.47828,42.22211c-106.78923,21.36321 -213.48945,43.18583 -320.09949,65.46807c-4.63682,-16.94893 -9.21152,-33.91451 -13.72474,-50.89709c-9.87948,1.78996 -19.75123,3.62034 -29.61524,5.49105c4.44891,17.18001 8.89768,34.3595 13.34659,51.53951c-0.85065,0.22027 -1.70081,0.44044 -2.55145,0.66073c0.58202,2.46621 1.53897,4.75909 2.87061,6.87981c-3.9124,1.01316 -7.82432,2.02617 -11.73672,3.03932c-5.29784,-21.86078 -10.5961,-43.72106 -15.8939,-65.58169z" fill="#2f2c31" fill-rule="evenodd" stroke="none" stroke-width="1"/><path d="M180.0513,72.44021c15.96533,-3.89118 31.9572,-7.66938 47.97661,-11.33493c2.47247,-0.68818 4.89466,-1.49693 7.26708,-2.42639c2.68693,10.37592 5.37391,20.75205 8.06081,31.12784c-18.62395,4.48087 -37.25302,8.94185 -55.88613,13.38315c-2.49504,-10.24468 -4.96748,-20.4946 -7.41838,-30.74967z" fill="#000000" fill-rule="evenodd" stroke="none" stroke-width="1"/><path d="M288.74352,44.29345c17.75293,-4.38334 35.48679,-8.79413 53.20252,-13.23274c2.40109,10.51899 5.42783,20.80669 9.08139,30.86353c-18.11352,4.34924 -36.23232,8.67806 -54.35525,12.98674c-2.64288,-10.20584 -5.28578,-20.41168 -7.92867,-30.61751z" fill="#000000" fill-rule="evenodd" stroke="none" stroke-width="1"/><path d="M181.9786,73.57466c17.44092,-4.13951 34.87894,-8.2922 52.3141,-12.45815c2.3786,9.18526 4.75721,18.37052 7.13581,27.55578c-17.6113,4.18379 -35.21918,8.38086 -52.82438,12.59029c-2.18403,-9.23504 -4.39272,-18.46431 -6.62551,-27.68792z" fill="#1e272f" fill-rule="evenodd" stroke="none" stroke-width="1"/><path d="M290.67083,45.42789c16.7234,-4.10731 33.43668,-8.25381 50.14079,-12.43986c2.42264,9.35534 4.84532,18.71089 7.26794,28.06607c-16.7625,3.95636 -33.51984,7.93263 -50.27292,11.92959c-2.3786,-9.18526 -4.75721,-18.37052 -7.13581,-27.55578z" fill="#1e272f" fill-rule="evenodd" stroke="none" stroke-width="1"/><path d="M572.35213,-27.51585c51.10754,-12.96034 102.26738,-25.66411 153.48408,-38.11246c2.15441,8.34056 4.48117,16.63172 6.98537,24.87217c-5.50908,1.30901 -10.86577,3.05935 -16.06507,5.24921c-1.95698,-8.56643 -3.991,-17.11497 -6.09693,-25.64675c-11.07791,2.82886 -22.04275,6.03133 -32.90471,9.60997c-3.98885,0.97664 -7.99087,1.64998 -12.001,2.01874c1.84484,8.23849 3.61724,16.4917 5.32235,24.75832c-16.90413,4.11176 -33.78675,8.30231 -50.65107,12.57201c-2.13231,-7.63489 -3.94403,-15.3334 -5.4362,-23.09529c-13.94782,3.6119 -27.89614,7.22392 -41.84396,10.83584c-0.26428,-1.02059 -0.52858,-2.04116 -0.79286,-3.06174z" fill="#596476" fill-rule="evenodd" stroke="none" stroke-width="1"/><path d="M383.44845,25.21393c6.23078,-1.14414 12.44238,-2.38971 18.63481,-3.73662c3.87931,16.5995 7.81156,33.18692 11.79743,49.76262c-5.87386,1.14101 -11.74514,2.29824 -17.61424,3.47231c-4.27263,-16.49928 -8.54539,-32.99905 -12.81801,-49.49833z" fill="#0b0e0d" fill-rule="evenodd" stroke="none" stroke-width="1"/><path d="M689.7559,-53.56245c6.6338,-1.71788 13.2676,-3.43576 19.9014,-5.15363c1.827,7.87524 3.68481,15.74326 5.56836,23.60559c-13.74406,3.69855 -27.47795,7.43635 -41.20153,11.21399c-0.65432,-0.97077 -1.28258,-1.98803 -1.87953,-3.05259c-1.29444,-6.828 -2.69756,-13.6341 -4.19912,-20.42083c7.44786,-1.74937 14.71629,-3.81313 21.81042,-6.19251z" fill="#1e272f" fill-rule="evenodd" stroke="none" stroke-width="1"/><path d="M403.61413,21.08089c1.94502,-0.09879 3.85978,-0.41308 5.74535,-0.94329c4.54478,16.43371 8.81741,32.93298 12.81802,49.49835c-2.30048,0.08444 -4.55558,0.48708 -6.76594,1.20757c-3.89693,-16.59603 -7.82918,-33.18345 -11.79743,-49.76262z" fill="#171b21" fill-rule="evenodd" stroke="none" stroke-width="1"/><path d="M573.54143,-22.92322c13.2676,-3.43576 26.53519,-6.87151 39.80277,-10.30726c1.80599,6.97402 3.61194,13.94796 5.41792,20.92198c-13.60795,3.5239 -27.21541,7.04765 -40.82338,10.57156c-1.43598,-7.06759 -2.90159,-14.12968 -4.39734,-21.18626z" fill="#1e272f" fill-rule="evenodd" stroke="none" stroke-width="1"/><path d="M515.46488,5.88216c1.98161,4.84809 3.31566,9.07912 2.82629,14.33244c-0.77717,8.34203 -13.69117,10.42169 -19.7747,7.13153c-6.12222,-1.94962 -13.02015,-11.63531 -12.87271,-18.35966c0.03482,-1.58843 1.29839,-3.37719 1.89111,-4.78896l0.37785,-1.76983c0,0 0.05901,-0.30223 -0.00573,-0.66794c8.74085,-5.84376 24.76498,-7.45423 27.55791,4.12241z" data-paper-data="{&quot;noHover&quot;:false,&quot;origItem&quot;:[&quot;Path&quot;,{&quot;applyMatrix&quot;:true,&quot;segments&quot;:[[[239.73792,188.86733],[5.93491,-2.49547],[-0.00365,0.22738]],[239.6647,189.26861],[[239.23494,190.28525],[0,0],[-0.52064,0.77968]],[[237.54914,192.93162],[0.20586,-0.95085],[-0.87145,4.02522]],[[243.12668,205.40013],[-3.45346,-1.88474],[3.2741,2.68613]],[[255.78171,203.43239],[-1.43833,4.9244],[0.90577,-3.10109]],[[255.74519,194.53085],[0.62688,3.14515],[-0.33131,-7.28453]]],&quot;closed&quot;:true}],&quot;index&quot;:null}" fill="#ffffff" fill-rule="nonzero" stroke="#000000" stroke-width="0"/><path d="M459.28712,6.6603c2.73991,-1.82252 6.17792,-4.95676 9.73761,-4.86042c6.77184,0.18326 10.69726,8.98904 12.09459,14.29507c0.68354,2.18786 2.2094,6.10498 1.96674,8.43394c-0.25585,2.45522 -2.81194,4.13631 -4.50506,5.45975c-7.03429,5.49832 -15.79646,2.0586 -19.90787,-5.26721c-3.30268,-4.8123 -4.14624,-9.71144 -2.95201,-15.18435l0.07794,-0.2717c1.01038,-0.95249 2.20182,-1.74945 3.48813,-2.60508z" data-paper-data="{&quot;noHover&quot;:false,&quot;origItem&quot;:[&quot;Path&quot;,{&quot;applyMatrix&quot;:true,&quot;segments&quot;:[[[219.56657,189.63753],[0.71829,-0.45498],[0,0]],[[219.4887,189.79114],[0,0],[-1.35504,3.15105]],[[219.50428,199.20851],[-1.42521,-3.27742],[1.61878,4.88257]],[[230.79047,204.66873],[-4.86879,2.48645],[1.1719,-0.59848]],[[234.11726,201.92538],[-0.43962,1.44618],[0.41702,-1.37181]],[[233.90684,196.65265],[0.15622,1.39481],[-0.22232,-3.35242]],[[228.33981,186.7038],[4.0496,0.8985],[-2.12871,-0.4723]],[[221.95557,188.48638],[1.85928,-0.77666],[-0.87287,0.36462]]],&quot;closed&quot;:true}],&quot;index&quot;:null}" fill="#ffffff" fill-rule="nonzero" stroke="#000000" stroke-width="0"/><path d="M474.48204,16.08952c-0.30007,-1.54962 0.71287,-3.04908 2.26246,-3.34916c1.54962,-0.30007 3.04908,0.71287 3.34916,2.26246c0.30007,1.54962 -0.71287,3.04908 -2.26246,3.34916c-1.54962,0.30007 -3.04908,-0.71287 -3.34916,-2.26246z" data-paper-data="{&quot;index&quot;:null}" fill="#000000" fill-rule="nonzero" stroke="none" stroke-width="0"/><path d="M509.96632,9.51331c-0.30007,-1.54962 0.71287,-3.04908 2.26247,-3.34917c1.54962,-0.30007 3.04908,0.71287 3.34917,2.26246c0.30007,1.54962 -0.71287,3.04908 -2.26247,3.34918c-1.54962,0.30007 -3.04909,-0.71288 -3.34918,-2.26247z" data-paper-data="{&quot;index&quot;:null}" fill="#000000" fill-rule="nonzero" stroke="none" stroke-width="0"/><path d="M412.41955,-33.9942c-0.38973,0.0335 -1.52597,0.01339 -1.78211,-1.30943c-0.31047,-1.60332 1.29285,-1.91379 1.29285,-1.91379l1.01704,-0.02132c8.04042,2.25994 15.21637,6.41282 22.51789,10.24499c5.67719,3.00279 12.06333,4.36199 17.78951,7.37137c4.99027,2.62264 9.7852,5.76682 14.79338,8.41313c3.15149,1.66528 6.64136,2.60459 9.38821,4.90371c0,0 1.24403,1.05802 0.18602,2.30206c-1.05801,1.24402 -2.30206,0.18602 -2.30206,0.18602c-2.46475,-2.13997 -5.91993,-2.98543 -8.79717,-4.50341c-5.01095,-2.64366 -9.80688,-5.79189 -14.79715,-8.41513c-5.72531,-3.00963 -12.07734,-4.39155 -17.77904,-7.36581c-6.98258,-3.66717 -13.85759,-7.70174 -21.5274,-9.89229z" data-paper-data="{&quot;index&quot;:null}" fill="#000000" fill-rule="nonzero" stroke="none" stroke-width="0"/><path d="M534.96022,-54.16643c1.21035,1.09636 0.11399,2.30675 0.11399,2.30675l-0.77077,0.82647c-3.21357,4.70645 -8.49524,8.2303 -12.62616,12.09255c-5.42635,5.35783 -10.42544,11.1259 -15.95958,16.4021c-6.14492,5.85849 -12.83924,10.4534 -18.0919,17.21613c0,0 -1.00219,1.28948 -2.29165,0.28727c-1.28948,-1.00219 -0.28726,-2.29165 -0.28726,-2.29165c5.36654,-6.90042 12.17219,-11.58854 18.42006,-17.57869c5.51595,-5.28845 10.52842,-11.03491 15.94936,-16.39235c3.9361,-3.65342 9.18684,-7.07395 12.18058,-11.56377l1.05651,-1.19084c0,0 1.09637,-1.21036 2.30675,-0.11399z" data-paper-data="{&quot;index&quot;:null}" fill="#000000" fill-rule="nonzero" stroke="none" stroke-width="0"/><path d="M456.94893,85.87214c-0.99846,0.23284 -1.36895,-0.54421 -1.46991,-0.83118c-1.47179,-2.39734 -2.94446,-4.67624 -3.80321,-7.37102c-2.96561,-9.4171 -6.72142,-21.57489 -1.5818,-31.06928c2.64412,-4.88447 8.15848,-7.39518 12.96792,-9.47509c8.33737,-3.22165 17.36525,-5.00576 26.17323,-6.50442c6.62147,-1.12662 13.39774,-2.20149 20.07576,-1.39517c15.09385,2.30924 21.73784,17.7373 23.97902,31.3711c0,0 0.20228,1.23352 -1.03124,1.43581c-1.23352,0.20228 -1.43581,-1.03124 -1.43581,-1.03124c-2.03334,-12.43046 -7.94148,-27.22361 -21.84864,-29.29845c-6.41727,-0.77411 -12.95524,0.29902 -19.31963,1.38251c-8.62616,1.46854 -17.47986,3.20004 -25.6458,6.3536c-4.25309,1.84029 -9.38404,4.02318 -11.72532,8.368c-4.76045,8.83423 -0.96588,20.40244 1.77683,29.11169c0.79229,2.55068 2.25405,4.69921 3.64396,6.9685l0.17806,0.48339c0,0 0.28389,1.21733 -0.93345,1.50123z" fill="#000000" fill-rule="nonzero" stroke="none" stroke-width="0.5"/></g><path d="M-1117.37278,989.77027v-1619.57958h2878.25006v1619.57958z" fill="none" fill-rule="nonzero" stroke="#000000" stroke-width="0"/></g></g></svg>