<svg version="1.1" xmlns="http://www.w3.org/2000/svg" xmlns:xlink="http://www.w3.org/1999/xlink" width="1733.09309" height="836.33634" viewBox="0,0,1733.09309,836.33634"><g transform="translate(546.54655,238.16817)"><g data-paper-data="{&quot;isPaintingLayer&quot;:true}" stroke-linejoin="miter" stroke-miterlimit="10" stroke-dasharray="" stroke-dashoffset="0" style="mix-blend-mode: normal"><path d="M-546.54655,598.16817v-836.33634h1733.09309v836.33634z" fill="none" fill-rule="nonzero" stroke="#f00000" stroke-width="0" stroke-linecap="butt"/><g><path d="M347.08608,161.95425l41.64135,12.33571l2.74215,41.04583l-41.65511,-6.26263z" data-paper-data="{&quot;index&quot;:null}" fill="#cedce9" fill-rule="nonzero" stroke="#000000" stroke-width="1" stroke-linecap="round"/><path d="M348.99866,157.92417c0.49355,-1.45171 1.19549,-4.87917 2.20888,-3.45361c-0.34411,-0.79157 -0.76956,-1.84954 -0.90043,-2.41802c-0.62006,-2.69307 -0.3616,-6.24469 -0.52411,-9.05128c-0.44585,-7.69969 -0.63318,-15.18911 -2.22869,-22.57497c-0.72105,-3.33786 0.84973,-4.35787 -1.48301,-5.26058c-3.93707,-1.91265 -7.57257,-5.72968 -11.56098,-8.08592c-5.40554,-3.19349 -10.50721,-4.25787 -15.84857,-6.09821c-4.43695,-2.1756 -12.57187,0.2769 -17.3541,0.55381c-1.28011,0.07411 -3.51937,0.88615 -4.49924,0.29117c-0.01023,0.64848 -0.01751,1.27466 0.00549,1.67186c0.15287,2.63996 0.30572,5.27987 0.45859,7.91988c0.60809,10.50134 1.50096,22.69174 4.15962,32.76469c2.90739,11.97432 0.50259,25.27389 3.18953,37.35862c1.38019,6.6232 1.21142,13.93974 1.59828,20.74226c0.19626,3.45093 1.43126,6.34428 -0.45982,7.97302c-0.49705,0.4281 1.22456,-0.07091 1.8368,-0.10636c1.53063,-0.08863 3.06137,-0.17727 4.59201,-0.2659c8.57179,-0.49635 17.1436,-0.99269 25.71538,-1.48904c2.02643,-0.11734 9.23838,-1.19151 10.10127,0.11682c-0.00241,-0.25465 0.00098,-0.54327 0.00119,-0.70182c0.00185,-1.40481 -0.10606,-2.18337 0.46346,-3.31261c0.98878,-1.96041 -0.21508,-8.31141 -0.364,-10.88317c-0.57871,-9.99409 -1.15741,-19.98817 -1.73611,-29.98232c0,0 -0.13103,-2.26281 1.70576,-2.36916c0.07541,-0.00438 0.1479,-0.00475 0.21763,-0.00145c0.12344,-1.0925 0.31832,-2.20018 0.70508,-3.33773zM351.77986,193.40213c0.34934,6.03298 1.66784,13.69307 -1.81781,18.02872c-1.99741,2.48452 -8.92991,1.3244 -11.79579,1.49034c-8.57181,0.49635 -17.1436,0.99268 -25.7154,1.48903c-0.97882,0.05669 -5.78926,1.11722 -6.42884,0.37225c-6.46014,-7.52459 -2.63717,-22.6336 -4.95144,-32.14474c-2.62738,-11.81692 0.26756,-25.7684 -3.13901,-37.15077c-2.74015,-10.3818 -3.70573,-23.02432 -4.33292,-33.85598c-0.08997,-1.55368 -1.58463,-10.81592 -0.68788,-11.87978c2.57155,-3.05083 4.89283,-2.55371 8.13463,-2.74144c5.86374,-0.33954 12.77907,-2.02476 18.52924,-0.3888c5.47449,1.88623 10.92684,3.1156 16.34399,6.31593c2.18521,1.29099 5.08711,2.65407 7.09256,4.36978c1.31227,1.12269 2.45454,3.3483 4.08703,3.54016c4.36611,1.68955 3.17484,5.26865 4.1295,9.36684c1.69942,7.29522 1.78666,14.94118 2.22869,22.57497c0.16302,2.8153 1.5333,8.25514 1.32104,10.26013c-0.36951,3.49025 -2.64673,5.63315 -3.16335,9.02511c-0.3791,2.48896 0.07962,5.06222 -0.91903,7.99965c-0.07582,0.223 -0.15163,0.44596 -0.22744,0.669c0.43737,7.55323 0.87473,15.10647 1.3121,22.65966z" data-paper-data="{&quot;index&quot;:null}" fill="#000000" fill-rule="nonzero" stroke="none" stroke-width="1" stroke-linecap="butt"/><path d="M348.38355,161.28825c-0.06976,-0.00333 -0.14227,-0.00267 -0.21765,0.0017c-1.8368,0.10636 -1.70826,2.38045 -1.70826,2.38045c0.57871,9.99409 1.12395,20.04356 1.70267,30.0377c0.14891,2.57176 1.34457,8.92907 0.35579,10.88946c-0.56956,1.1292 -0.46459,1.90975 -0.46644,3.31452c-0.00022,0.15857 -0.00407,0.4474 -0.00169,0.7021c-0.8629,-1.30836 -8.09203,-0.22628 -10.11846,-0.10894c-8.57181,0.49635 -17.19485,0.99093 -25.76667,1.48727c-1.53062,0.08864 -3.06901,0.17381 -4.59967,0.26246c-0.61226,0.03545 -2.3367,0.53291 -1.83965,0.10482c1.89109,-1.62876 0.65197,-4.52457 0.45573,-7.97546c-0.3869,-6.80251 -0.24026,-14.13843 -1.62043,-20.76163c-2.68695,-12.08477 -0.3069,-25.50317 -3.21429,-37.47749c-2.65868,-10.07293 -3.52247,-22.31473 -4.13054,-32.81615c-0.15287,-2.63996 -0.30021,-5.28484 -0.45308,-7.92481c-0.02301,-0.39724 -0.01454,-1.02433 -0.00435,-1.67276c0.97987,0.59499 3.22539,-0.22164 4.5055,-0.29575c4.78224,-0.27691 12.94833,-2.74189 17.3853,-0.56626c5.34132,1.84033 10.47816,2.90736 15.88368,6.10082c3.98844,2.3563 7.65229,6.18864 11.58933,8.10133c2.33275,0.90271 0.76934,1.92934 1.49041,5.26723c1.59552,7.38583 1.8114,14.92232 2.25724,22.62197c0.1625,2.80651 -0.08953,6.38945 0.53053,9.08254c0.13091,0.56843 0.55685,1.63541 0.90094,2.42696c-1.01335,-1.4256 -1.71562,2.01534 -2.20917,3.46703c-0.38676,1.13763 -0.58328,2.25859 -0.70674,3.35107z" data-paper-data="{&quot;noHover&quot;:false,&quot;origItem&quot;:[&quot;Path&quot;,{&quot;applyMatrix&quot;:true,&quot;segments&quot;:[[[579.60736,595.76373],[0.95609,-0.20262],[0.00646,0.07548]],[[579.61718,596],[0,-0.08208],[0,2]],[[577.61718,598],[0,0],[-8.83333,0]],[[551.11718,598],[8.83333,0],[-2.27308,0]],[[541.51161,598.28885],[1.67648,-1.19621],[-0.96568,0.68904]],[[538.61718,599],[1.23739,-0.09027],[-0.13966,0.01019]],[[537.99901,599.04541],[0.22447,-0.0134],[1.19653,0.85421]],[[538.61718,610],[0,-2.20646],[0,9.33333]],[[538.61718,638],[0,-9.33333],[0,1.66667]],[[538.61718,643],[0,-1.66667],[0,0.66667]],[[538.61718,645],[-0.35177,0.56631],[1.33831,-2.15456]],[[545.61718,644],[-3.04994,0.00386],[6.01206,-0.00761]],[[563.97058,644.43107],[-5.90478,-1.08158],[10.78253,2.15651]],[[597.04254,645.54479],[-10.6965,-2.40266],[9.00888,2.25222]],[[626.11718,648],[-9.28168,0],[2.33333,0]],[[633.11718,648],[-2.33333,0],[0.35109,0]],[[634.59021,647.90091],[-0.5707,0.05184],[-0.57412,-1.02596]],[[634.61718,643],[0,1.39387],[0,-5.20707]],[[634.21982,624.13246],[2.14282,4.67827],[-1.8936,-5.6808]],[[628.03948,607.31672],[3.08887,5.66543],[-2.2791,-4.1802]],[[620.32688,595.27881],[1.8857,4.15235],[-0.91417,-2.47477]],[[615.61718,594],[2.9771,0.57275],[-6.58756,-1.26734]],[[595.61718,593],[6.8054,0],[-2.48058,0]],[[587.61718,593],[2.40395,0.50364],[-0.50743,-0.10631]],[[585.44122,592.1748],[0.71481,0.32365],[1.30749,1.01011]],[[582.51161,594.78885],[1.25365,-0.62682],[-0.98239,0.4912]]],&quot;closed&quot;:true}],&quot;index&quot;:null}" fill="#484848" fill-rule="nonzero" stroke="none" stroke-width="1" stroke-linecap="butt"/><path d="M339.81271,129.95622c-0.62075,0.03595 -1.32796,0.85962 -1.84202,0.49923c-0.02553,0.9993 -0.14908,2.01013 -0.4583,2.91969c-1.19224,3.50682 -5.85598,10.77023 -9.16802,11.62142c-0.2694,0.06923 -0.37104,-0.89703 -0.60318,-0.71895c-0.77247,0.59254 0.88256,4.96101 0.68384,5.48601c-0.045,0.11882 -0.12221,0.18038 -0.21883,0.20884c0.30295,-0.04143 0.59587,-0.08031 0.781,-0.09103c0.65064,-0.03768 1.35363,-0.0466 1.91482,-0.43876c4.95294,-3.34397 9.54084,-8.60458 9.04175,-17.22369c0,0 -0.05887,-1.01713 0.45583,-1.71961c0.09017,-0.22955 0.2013,-0.41043 0.33676,-0.53521c-0.35215,-0.00967 -0.71064,-0.02034 -0.92366,-0.00801zM327.15037,149.98784c-0.36713,0.17621 0.25446,0.09451 0.9045,0.00538c-0.28405,0.00565 -0.65364,-0.12583 -0.9045,-0.00538zM332.77927,153.39542c-4.40502,3.07817 -11.44903,-2.92405 -8.71171,-8.90505c2.58269,-5.64311 8.30313,-7.83462 10.04184,-12.94882c0.58742,-1.72774 0.84429,-3.77216 1.91118,-5.09921c1.69071,-2.10297 7.91038,-1.57432 8.13166,2.24727c0.15934,2.75176 -0.48664,4.14911 -0.33828,6.71094l0.06551,1.1314c0,0 0.07519,1.29877 -0.68706,1.97467c-1.38795,6.80569 -5.65135,11.36816 -10.41302,14.88877z" data-paper-data="{&quot;index&quot;:null}" fill="#000000" fill-rule="nonzero" stroke="none" stroke-width="1" stroke-linecap="butt"/><path d="M340.79303,129.87669c-0.13544,0.12473 -0.24657,0.30572 -0.33675,0.53526c-0.5147,0.70247 -0.45161,1.72398 -0.45161,1.72398c0.49908,8.61907 -4.18626,14.06563 -9.13921,17.40957c-0.56117,0.39217 -1.27756,0.39197 -1.92819,0.42962c-0.18511,0.01072 -0.48247,0.04562 -0.78546,0.08707c0.09669,-0.02843 0.17439,-0.08945 0.21941,-0.20834c0.19871,-0.52506 -1.48269,-4.93066 -0.71026,-5.52317c0.23216,-0.17809 0.48887,0.67136 0.75829,0.60207c3.31204,-0.85116 7.94811,-8.14674 9.14036,-11.65358c0.30925,-0.90956 0.42498,-1.92574 0.45049,-2.92505c0.51408,0.36034 1.23315,-0.45468 1.85388,-0.49063c0.213,-0.01233 0.5769,0.00327 0.92905,0.01302z" data-paper-data="{&quot;noHover&quot;:false,&quot;origItem&quot;:[&quot;Path&quot;,{&quot;applyMatrix&quot;:true,&quot;segments&quot;:[[[607.563,601.99816],[0.02649,0.38155],[-0.10299,0.15484]],[[607.10872,602.39727],[0.1976,-0.11227],[-0.59254,0.60273]],[[605.61718,603],[0,0],[-7.618,0]],[[590.90604,613.89443],[2.69308,-5.58508],[-0.31682,0.63364]],[[590.61718,616],[0,-0.70843],[0,0.20156]],[[590.57685,616.85325],[0.02106,-0.33136],[0.02013,-0.10671]],[[590.74964,616.60263],[-0.10238,0.05628],[0.45234,-0.24865]],[[595.61718,617],[-0.48256,0.87548],[0.14503,-0.26312]],[[594.95308,616.3906],[-0.04725,0.29671],[0.58086,-3.64773]],[[604.72276,605.71115],[-3.02833,1.51416],[0.78545,-0.39273]],[[607.27135,605.03032],[-0.87898,0.0905],[-0.34365,-0.53523]],[[607.61718,603],[0,0.6759],[0,-0.23192]]],&quot;closed&quot;:true}],&quot;index&quot;:null}" fill="#ffffff" fill-rule="nonzero" stroke="none" stroke-width="1" stroke-linecap="butt"/><path d="M353.72799,276.65886l40.65387,-11.02868l2.01376,41.08801l-39.93923,17.05959z" fill="#cedce9" fill-rule="nonzero" stroke="#000000" stroke-width="1" stroke-linecap="round"/><path d="M358.82124,327.56017c-0.51547,-1.08531 -0.83689,-2.16309 -1.08561,-3.23404c-0.06889,0.01132 -0.14092,0.01932 -0.21634,0.02368c-1.8368,0.10636 -1.96781,-2.15645 -1.96781,-2.15645c-0.5787,-9.99412 -1.15741,-19.98822 -1.73611,-29.98232c-0.14891,-2.57176 0.31386,-9.01926 -0.89459,-10.85245c-0.69607,-1.05595 -0.67873,-1.84176 -0.84271,-3.23697c-0.01852,-0.15748 -0.0552,-0.44374 -0.08219,-0.69697c-0.70612,1.3992 -7.99383,1.16461 -10.02028,1.28196c-8.57181,0.49635 -17.14363,0.99269 -25.71538,1.48904c-1.53065,0.08862 -3.06137,0.17728 -4.59201,0.2659c-0.61224,0.03545 -2.37994,-0.2615 -1.8368,0.10636c2.06645,1.39958 1.17364,4.41616 1.37701,7.86667c0.40087,6.80171 1.41302,14.04988 0.80653,20.78808c-1.27413,12.31413 2.64963,25.24721 1.14379,37.47708c-1.47824,10.3125 -0.95813,22.52446 -0.35005,33.02582c0.15287,2.64 0.30573,5.2799 0.45859,7.91988c0.023,0.3972 0.10252,1.01836 0.18752,1.66131c0.90466,-0.7041 3.22267,-0.15597 4.50278,-0.2301c4.78224,-0.27692 13.14585,1.22026 17.30203,-1.45293c5.09324,-2.44453 10.03796,-4.09066 15.03878,-7.88673c3.68981,-2.80084 6.86043,-7.01195 10.55042,-9.36629c2.21296,-1.16592 0.53495,-1.99781 0.86591,-5.3966c0.73236,-7.52063 0.05399,-14.98167 -0.39186,-22.68134c-0.16252,-2.80661 -0.82919,-6.30463 -0.52411,-9.05128c0.0644,-0.57981 0.36487,-1.67981 0.61532,-2.5058c-0.84208,1.533 -1.93494,-1.79054 -2.59274,-3.17558zM357.48894,291.9982c0.43737,7.55323 0.87473,15.10647 1.3121,22.65966c0.10106,0.21276 0.20208,0.42551 0.30314,0.63828c1.331,2.80253 1.17236,5.41153 1.8362,7.8401c0.90468,3.30966 3.41402,5.17537 4.18389,8.59967c0.44227,1.9671 -0.29097,7.52875 -0.12796,10.34404c0.44202,7.63379 1.23788,15.23873 0.39184,22.68132c-0.47527,4.18096 1.12116,7.59867 -3.02076,9.78087c-1.59942,0.37896 -2.47718,2.72157 -3.65111,3.98823c-1.79404,1.93573 -4.51922,3.62465 -6.54081,5.15922c-5.01154,3.80419 -10.28557,5.65469 -15.50575,8.16018c-5.52293,2.28877 -12.58657,1.41295 -18.45028,1.75248c-3.24181,0.18771 -5.49021,0.94944 -8.3967,-1.78419c-1.01354,-0.95326 -0.59793,-10.3261 -0.6879,-11.87977c-0.6272,-10.83164 -1.12733,-23.50113 0.39624,-34.1298c2.07005,-11.69948 -2.41588,-25.22357 -1.16997,-37.26478c1.201,-9.7147 -4.34031,-24.28149 1.20812,-32.50141c0.54934,-0.81382 5.45003,-0.31559 6.42884,-0.37225c8.57181,-0.49635 17.1436,-0.99269 25.7154,-1.48903c2.86588,-0.16595 9.61814,-2.11846 11.88896,0.11889c3.96276,3.90434 3.53723,11.66544 3.88655,17.69841z" data-paper-data="{&quot;index&quot;:null}" fill="#000000" fill-rule="nonzero" stroke="none" stroke-width="1" stroke-linecap="butt"/><path d="M357.82199,324.28946c0.24871,1.07095 0.57332,2.16172 1.0888,3.24711c0.6578,1.38504 1.75255,4.72192 2.59457,3.18889c-0.25043,0.82595 -0.55038,1.93497 -0.61479,2.51473c-0.30507,2.74664 0.35883,6.27654 0.52134,9.08307c0.44585,7.69963 1.10131,15.2107 0.36892,22.7313c-0.33097,3.39879 1.34049,4.2381 -0.87249,5.40403c-3.68999,2.35431 -6.88699,6.58396 -10.5768,9.38485c-5.0008,3.79606 -9.98013,5.44886 -15.07335,7.89339c-4.1562,2.67323 -12.55223,1.16723 -17.33447,1.44415c-1.28011,0.07411 -3.60488,-0.47786 -4.50954,0.22625c-0.08498,-0.64292 -0.16573,-1.26486 -0.18873,-1.66207c-0.15286,-2.63997 -0.31177,-5.2842 -0.46462,-7.92414c-0.60807,-10.50142 -1.16302,-22.76111 0.31522,-33.07359c1.50585,-12.22988 -2.40708,-25.28389 -1.13292,-37.59803c0.6065,-6.73823 -0.38589,-14.00821 -0.78675,-20.8099c-0.20336,-3.4505 0.69322,-6.46997 -1.37322,-7.86956c-0.54315,-0.36787 1.22721,-0.07278 1.83945,-0.10824c1.53065,-0.08862 3.06859,-0.18159 4.59923,-0.27022c8.57181,-0.49635 17.1943,-1.00034 25.76613,-1.49671c2.02642,-0.11734 9.33214,0.1231 10.03825,-1.27612c0.02703,0.25327 0.0642,0.53972 0.08271,0.69721c0.16399,1.39516 0.14982,2.1826 0.84589,3.23851c1.20845,1.83318 0.75455,8.28601 0.90346,10.85776c0.57871,9.99414 1.19701,20.03937 1.77572,30.03348c0,0 0.13483,2.27373 1.97162,2.16739c0.07539,-0.00436 0.14749,-0.01207 0.21641,-0.02345z" data-paper-data="{&quot;noHover&quot;:false,&quot;origItem&quot;:[&quot;Path&quot;,{&quot;applyMatrix&quot;:true,&quot;segments&quot;:[[[579.60736,595.76373],[0.95609,-0.20262],[0.00646,0.07548]],[[579.61718,596],[0,-0.08208],[0,2]],[[577.61718,598],[0,0],[-8.83333,0]],[[551.11718,598],[8.83333,0],[-2.27308,0]],[[541.51161,598.28885],[1.67648,-1.19621],[-0.96568,0.68904]],[[538.61718,599],[1.23739,-0.09027],[-0.13966,0.01019]],[[537.99901,599.04541],[0.22447,-0.0134],[1.19653,0.85421]],[[538.61718,610],[0,-2.20646],[0,9.33333]],[[538.61718,638],[0,-9.33333],[0,1.66667]],[[538.61718,643],[0,-1.66667],[0,0.66667]],[[538.61718,645],[-0.35177,0.56631],[1.33831,-2.15456]],[[545.61718,644],[-3.04994,0.00386],[6.01206,-0.00761]],[[563.97058,644.43107],[-5.90478,-1.08158],[10.78253,2.15651]],[[597.04254,645.54479],[-10.6965,-2.40266],[9.00888,2.25222]],[[626.11718,648],[-9.28168,0],[2.33333,0]],[[633.11718,648],[-2.33333,0],[0.35109,0]],[[634.59021,647.90091],[-0.5707,0.05184],[-0.57412,-1.02596]],[[634.61718,643],[0,1.39387],[0,-5.20707]],[[634.21982,624.13246],[2.14282,4.67827],[-1.8936,-5.6808]],[[628.03948,607.31672],[3.08887,5.66543],[-2.2791,-4.1802]],[[620.32688,595.27881],[1.8857,4.15235],[-0.91417,-2.47477]],[[615.61718,594],[2.9771,0.57275],[-6.58756,-1.26734]],[[595.61718,593],[6.8054,0],[-2.48058,0]],[[587.61718,593],[2.40395,0.50364],[-0.50743,-0.10631]],[[585.44122,592.1748],[0.71481,0.32365],[1.30749,1.01011]],[[582.51161,594.78885],[1.25365,-0.62682],[-0.98239,0.4912]]],&quot;closed&quot;:true}],&quot;index&quot;:null}" fill="#484848" fill-rule="nonzero" stroke="none" stroke-width="1" stroke-linecap="butt"/><path d="M352.92496,356.40147c0.213,-0.01233 0.56789,-0.0643 0.91655,-0.11458c-0.14895,-0.10832 -0.28025,-0.27515 -0.3963,-0.49279c-0.59233,-0.6384 -0.65126,-1.65549 -0.65126,-1.65549c-0.49908,-8.61909 -5.66349,-13.315 -10.96932,-16.06495c-0.60272,-0.32476 -1.30206,-0.25249 -1.95269,-0.21481c-0.18512,0.01072 -0.48058,0.00593 -0.78628,-0.00026c0.09925,0.01712 0.18306,0.06936 0.24148,0.18218c0.258,0.49856 -0.88176,5.02887 -0.04606,5.52827c0.25114,0.1501 0.24057,-0.82141 0.51617,-0.78376c3.38816,0.46322 8.85908,7.13981 10.44812,10.48556c0.41213,0.86778 0.65152,1.85761 0.79222,2.84729c0.46901,-0.41728 1.26657,0.31924 1.88731,0.2833zM338.93294,337.85546c-0.65598,-0.01349 -1.28285,-0.02293 -0.89783,0.10975c0.26311,0.09069 0.61504,-0.08258 0.89783,-0.10975zM343.23313,333.93075c5.13621,2.94747 9.89771,6.98737 12.06192,13.58737c0.83517,0.58342 0.91038,1.88218 0.91038,1.88218l0.06551,1.1314c0.14834,2.56184 0.95127,3.87528 1.1106,6.62706c0.22128,3.82159 -5.89581,5.0646 -7.81793,3.17081c-1.2129,-1.19503 -1.70403,-3.19613 -2.48695,-4.84455c-2.31737,-4.87932 -8.25252,-6.39594 -11.46928,-11.70323c-3.40936,-5.62507 2.89479,-12.40024 7.62565,-9.85107z" data-paper-data="{&quot;index&quot;:null}" fill="#000000" fill-rule="nonzero" stroke="none" stroke-width="1" stroke-linecap="butt"/><path d="M353.90783,356.36745c-0.34864,0.05031 -0.70832,0.10784 -0.92133,0.12016c-0.62075,0.03595 -1.42906,-0.69065 -1.89811,-0.27336c-0.14067,-0.9897 -0.3729,-1.98571 -0.78509,-2.85348c-1.58906,-3.34579 -7.03622,-10.0575 -10.42436,-10.5207c-0.27561,-0.03773 -0.43256,0.83567 -0.68373,0.68558c-0.83566,-0.49943 0.32599,-5.06965 0.06803,-5.56824c-0.05843,-0.11288 -0.14266,-0.16453 -0.24197,-0.18162c0.30574,0.0062 0.60515,0.00654 0.79027,-0.00417c0.65064,-0.03768 1.36218,-0.12058 1.96489,0.2042c5.30583,2.74991 10.58851,7.61927 11.08758,16.23834c0,0 0.05524,1.02196 0.64758,1.66032c0.1161,0.21761 0.24736,0.38456 0.39629,0.4928z" data-paper-data="{&quot;noHover&quot;:false,&quot;origItem&quot;:[&quot;Path&quot;,{&quot;applyMatrix&quot;:true,&quot;segments&quot;:[[[607.563,601.99816],[0.02649,0.38155],[-0.10299,0.15484]],[[607.10872,602.39727],[0.1976,-0.11227],[-0.59254,0.60273]],[[605.61718,603],[0,0],[-7.618,0]],[[590.90604,613.89443],[2.69308,-5.58508],[-0.31682,0.63364]],[[590.61718,616],[0,-0.70843],[0,0.20156]],[[590.57685,616.85325],[0.02106,-0.33136],[0.02013,-0.10671]],[[590.74964,616.60263],[-0.10238,0.05628],[0.45234,-0.24865]],[[595.61718,617],[-0.48256,0.87548],[0.14503,-0.26312]],[[594.95308,616.3906],[-0.04725,0.29671],[0.58086,-3.64773]],[[604.72276,605.71115],[-3.02833,1.51416],[0.78545,-0.39273]],[[607.27135,605.03032],[-0.87898,0.0905],[-0.34365,-0.53523]],[[607.61718,603],[0,0.6759],[0,-0.23192]]],&quot;closed&quot;:true}],&quot;index&quot;:null}" fill="#ffffff" fill-rule="nonzero" stroke="none" stroke-width="1" stroke-linecap="butt"/><path d="M387.76012,164.28417c0.60214,9.80494 1.1357,19.61345 1.60281,29.42583c-0.51793,-4.89416 -0.90454,-9.82523 -1.15988,-14.79324c-0.28597,-4.93874 -0.43293,-9.81635 -0.44291,-14.63258z" fill="#884f38" fill-rule="evenodd" stroke="none" stroke-width="1" stroke-linecap="butt"/><path d="M355.46421,83.75963l267.58093,-15.2362l-4.63132,126.71l32.19662,-3.46355l-0.64402,3.13256l-5.45037,162.45621l-15.38601,0.73616l-231.26288,13.39116l-5.72119,-0.80365l-19.45075,1.74534l-15.83863,-273.53024z" fill="#d5d5d5" fill-rule="nonzero" stroke="#000000" stroke-width="1" stroke-linecap="round"/><path d="M396.70022,80.49489l18.2905,290.92814l-42.11304,3.26393l-17.85834,-290.59204z" fill="#65675c" fill-rule="nonzero" stroke="#000000" stroke-width="1" stroke-linecap="round"/><path d="M360.08094,154.58036l106.72659,-6.38631l1.35571,51.92206l-105.37787,6.51456z" fill="#242424" fill-rule="nonzero" stroke="#000000" stroke-width="1" stroke-linecap="round"/><path d="M369.61398,160.63159l90.29745,-5.02227l1.8037,38.27692l-90.66492,6.69437z" fill="#b57047" fill-rule="nonzero" stroke="#000000" stroke-width="1" stroke-linecap="round"/><path d="M411.82983,101.23414l53.88341,-3.12009l2.87644,42.54819l-57.11877,2.48203z" fill="#242424" fill-rule="nonzero" stroke="#000000" stroke-width="1" stroke-linecap="round"/><path d="M417.32544,110.61443l41.70172,-3.24011l0.90733,26.36045l-40.55111,1.72902z" fill="#593f1e" fill-rule="nonzero" stroke="#000000" stroke-width="1" stroke-linecap="round"/><path d="M489.99916,232.43541l2.5717,97.868l-82.41084,5.80371l-3.84143,-98.41354z" fill="#242424" fill-rule="nonzero" stroke="#000000" stroke-width="1" stroke-linecap="round"/><path d="M480.97933,240.5927l2.98399,83.60588l-66.61061,4.26975l-4.66501,-84.12761z" fill="#593f1e" fill-rule="nonzero" stroke="#000000" stroke-width="1" stroke-linecap="round"/><path d="M555.71226,154.75654l-51.83755,-104.09475l10.35229,-10.0916l55.21698,112.56583l-53.00782,103.76887l1.54239,158.49176l-9.04591,-2.98418l-1.22907,-163.77186z" fill="#838e8a" fill-rule="nonzero" stroke="#000000" stroke-width="1" stroke-linecap="round"/><path d="M615.68448,81.27915l-0.92397,44.6254l-53.09649,2.45548l-4.11324,0.23818l1.2368,-42.78637l0.15804,-0.83455z" fill="#242424" fill-rule="nonzero" stroke="#000000" stroke-width="1" stroke-linecap="round"/><path d="M609.81234,86.77795l-0.01701,31.7791l-43.63604,1.90766l-0.09338,-30.12191z" fill="#593f1e" fill-rule="nonzero" stroke="#000000" stroke-width="1" stroke-linecap="round"/><path d="M619.36692,194.76554l3.63636,-146.5653l12.33423,-7.9365l-6.79102,153.55756z" fill="#838e8a" fill-rule="nonzero" stroke="#000000" stroke-width="1" stroke-linecap="round"/><path d="M659.61474,170.87129l-5.74519,203.69197l-10.00276,-1.69066l7.69416,-198.54288z" fill="#838e8a" fill-rule="nonzero" stroke="#000000" stroke-width="1" stroke-linecap="round"/><path d="M624.89188,227.13374c1.64067,10.1918 -5.55181,22.60123 -14.18496,27.25396c-5.58795,3.01158 -13.00314,4.51464 -19.28609,4.34588c-5.66071,-0.17082 -10.68925,-0.54831 -16.22283,-1.78916c-3.04215,-0.68216 -6.96791,-1.08297 -9.4037,-3.27996c-2.35925,-2.12801 -2.80476,-6.10541 -3.65227,-8.97171c-3.23223,-10.93193 -0.49988,-20.47867 6.05117,-29.59936c2.37986,-3.25467 6.55089,-7.14756 10.47507,-8.61254c6.50623,-2.42888 17.25559,-1.88324 23.74333,0.39384c5.76415,2.02314 7.94072,6.61763 12.43516,10.03863c2.44676,1.86239 5.97829,1.22765 7.96435,3.67432c0.5754,0.70884 0.72098,1.67759 1.08147,2.5164l1.18979,2.06237c0,0 0.64785,1.1276 -0.19049,1.96736zM617.94258,221.69838c-1.54685,-0.58556 -3.40267,-0.83598 -5.10922,-2.10278c-2.4492,-1.81808 -3.79967,-4.74294 -6.13823,-6.60651c-6.19715,-4.93861 -19.39527,-6.10061 -26.78728,-3.39181c-3.30134,1.20978 -7.02926,4.68355 -8.99376,7.45705c-5.97426,8.25939 -8.50528,16.77366 -5.55662,26.68483c0.59984,2.01618 0.98337,5.95702 2.70286,7.45278c1.94142,1.68881 5.50109,1.94902 7.87105,2.4798c5.33213,1.19421 10.13054,1.54473 15.59055,1.7095c5.67035,0.19229 12.48775,-1.21692 17.53727,-3.91477c7.97531,-4.26105 14.45036,-16.1194 12.24142,-25.18372c-0.35915,-1.4738 -1.9864,-2.29365 -2.94802,-3.46683c0,0 -0.40296,-0.49159 -0.41004,-1.11755z" data-paper-data="{&quot;index&quot;:null}" fill="#080000" fill-rule="nonzero" stroke="none" stroke-width="0.5" stroke-linecap="butt"/><path d="M618.40543,222.79758c0.96162,1.17317 2.59096,2.00095 2.95014,3.47476c2.20896,9.06433 -4.28561,20.97633 -12.2609,25.23739c-5.04953,2.69785 -11.90545,4.11963 -17.57581,3.92732c-5.46001,-0.16476 -10.28937,-0.52679 -15.6215,-1.72101c-2.36993,-0.53078 -5.93946,-0.80072 -7.88088,-2.48954c-1.71949,-1.49576 -2.1103,-5.44869 -2.71013,-7.46486c-2.94865,-9.91119 -0.41297,-18.47892 5.56128,-26.7383c1.96449,-2.77352 5.71066,-6.26453 9.012,-7.4743c7.39201,-2.70877 20.65168,-1.54348 26.84884,3.39513c2.33852,1.86362 3.70362,4.80447 6.15279,6.62253c1.70654,1.2668 3.56646,1.52548 5.11333,2.11102c0.0071,0.62594 0.4109,1.11987 0.4109,1.11987z" data-paper-data="{&quot;noHover&quot;:false,&quot;origItem&quot;:[&quot;Path&quot;,{&quot;applyMatrix&quot;:true,&quot;segments&quot;:[[[242.36308,94.44509],[0.55935,0.02605],[-0.60288,1.35103]],[[240.22113,98.89885],[1.21949,-1.45844],[-1.75016,2.09309]],[[234.00416,104.03862],[1.78511,-1.99193],[-4.73058,5.27863]],[[229.59018,127.78406],[-2.0367,-6.74107],[0.90961,3.01063]],[[235.78421,136.201],[-2.37514,-1.89768],[7.06666,5.76203]],[[259.32625,142.54284],[-9.00308,2.12064],[1.83146,-0.43139]],[[266.12128,140.51457],[-1.42462,1.45816],[1.60848,-1.64635]],[[268.74272,133.61401],[-0.59653,2.0889],[1.34214,-4.69981]],[[271.07546,119.78016],[-0.42946,4.86722],[0.46491,-5.05363]],[[268.48641,103.9171],[2.14806,4.64868],[-3.3927,-7.34221]],[[246.63053,91.68342],[8.20857,-1.50389],[-1.33466,0.24452]],[[243.38226,94.13672],[1.09735,-0.79807],[0,0]]],&quot;closed&quot;:true}],&quot;index&quot;:null}" fill="#ffffff" fill-rule="nonzero" stroke="none" stroke-width="0.5" stroke-linecap="butt"/><path d="M631.8013,287.20268c2.8684,7.15216 3.87339,14.62395 4.3222,22.43618c0.25686,4.47119 0.89574,10.27361 -1.77289,14.1895c-3.0861,4.52845 -9.0285,6.73689 -13.55533,9.39927c-6.31672,3.71456 -11.73676,6.9357 -19.22933,7.35761c-1.87396,0.10554 -3.79135,0.6719 -5.62437,0.26827c-5.48451,-1.20779 -10.48754,-4.85305 -15.64515,-6.95746c-8.39769,-3.42641 -16.52691,-6.52823 -17.84009,-16.52069c-1.41324,-11.79135 1.64101,-22.26118 7.89298,-32.16955c2.06233,-3.26848 4.70512,-7.63002 7.69546,-10.11995c6.06657,-5.0514 14.08746,-5.63989 21.57143,-6.07325c6.54875,-0.3792 13.01765,-0.76646 19.57367,-0.33045c2.9952,0.19919 6.53038,-0.59741 8.74333,1.9781c1.81367,2.1108 1.15406,4.66938 1.49018,7.14571c0.30181,2.22334 0.88128,4.47682 1.43944,6.64935l0.79305,1.67525c0,0 0.23757,0.50686 0.1454,1.07215zM627.04509,283.01416c-0.38805,-1.58278 -0.73262,-3.18535 -0.94778,-4.77747c-0.21672,-1.60341 0.34087,-4.01536 -0.73034,-5.41713c-1.03382,-1.35276 -4.86743,-0.68871 -6.39998,-0.79098c-6.41623,-0.42812 -12.74756,-0.03884 -19.15686,0.33228c-6.71118,0.38861 -14.10742,0.74621 -19.57888,5.2682c-2.73661,2.26173 -5.16082,6.37413 -7.04474,9.36536c-5.8282,9.25374 -8.74471,18.952 -7.4005,29.97862c0.9221,8.55561 8.74255,10.94317 15.77826,13.81808c4.92397,2.012 9.72249,5.51255 14.92368,6.75339c1.59013,0.37934 3.26212,-0.22122 4.89455,-0.30803c6.92865,-0.3684 11.87267,-3.46554 17.71271,-6.89982c4.11816,-2.42135 9.60149,-4.40033 12.50539,-8.4281c2.19272,-3.04136 1.37801,-8.59159 1.17463,-12.07577c-0.51442,-8.81265 -1.68997,-17.17881 -5.78866,-25.11197c0,0 -0.48247,-0.93567 0.0585,-1.70658z" data-paper-data="{&quot;index&quot;:null}" fill="#080000" fill-rule="nonzero" stroke="none" stroke-width="0.5" stroke-linecap="butt"/><path d="M627.03192,284.68808c4.0987,7.93317 5.28421,16.33984 5.79862,25.15247c0.2034,3.48414 1.01243,9.05213 -1.18027,12.09349c-2.90387,4.02774 -8.40194,6.02475 -12.5201,8.44611c-5.84006,3.43425 -10.81454,6.54353 -17.74318,6.91196c-1.63243,0.08679 -3.31286,0.68743 -4.90297,0.30808c-5.2012,-1.2408 -10.02684,-4.75064 -14.9508,-6.76267c-7.03576,-2.87493 -14.87769,-5.28989 -15.7998,-13.84553c-1.3442,-11.02665 1.57917,-20.7761 7.40735,-30.02985c1.88391,-2.99121 4.32251,-7.11771 7.05912,-9.37942c5.47146,-4.52198 12.90079,-4.88916 19.61199,-5.27776c6.40932,-0.37114 12.76806,-0.75217 19.18428,-0.32406c1.53257,0.10225 5.37258,-0.55724 6.40638,0.79556c1.07124,1.40181 0.51798,3.81768 0.7347,5.42111c0.21519,1.59213 0.56393,3.19952 0.95199,4.78229c-0.54098,0.77089 -0.05727,1.70827 -0.05727,1.70827z" data-paper-data="{&quot;noHover&quot;:false,&quot;origItem&quot;:[&quot;Path&quot;,{&quot;applyMatrix&quot;:true,&quot;segments&quot;:[[[297.58827,89.48717],[0.66043,0.52295],[-1.43347,0.2647]],[[293.273,90.08651],[1.43289,-0.10983],[-1.44305,0.11061]],[[288.39778,90.45861],[1.30718,-0.88414],[-1.26148,0.85323]],[[287.36052,96.13283],[0.17056,-1.36327],[-0.71408,5.70749]],[[286.66667,113.25695],[0,-5.74266],[0,6.01312]],[[290.35873,131.01313],[-3.75518,-5.11979],[1.8782,2.56072]],[[298.35761,137.78829],[-2.5737,-1.83699],[7.96215,5.68303]],[[324.74561,145.947],[-9.91619,0.63019],[7.68777,-0.38104]],[[337.9009,132.57163],[-2.93108,6.1342],[2.05132,-4.29303]],[[344.70331,119.59411],[-1.37698,4.58048],[0.42097,-1.40035]],[[344.68132,115.2074],[-0.0069,1.46224],[0.02929,-6.20628]],[[339.43573,99.03331],[2.76479,5.39271],[-1.9493,-3.80268]],[[332.55614,87.4303],[3.44661,2.8014],[-2.60252,-2.11533]],[[321.83333,85.75695],[3.12183,-0.00146],[-7.89622,0.00369]],[[299.10921,89.62767],[7.2962,-3.24989],[0,0]]],&quot;closed&quot;:true}],&quot;index&quot;:null}" fill="#ffffff" fill-rule="nonzero" stroke="none" stroke-width="0.5" stroke-linecap="butt"/><path d="M587.80326,276.84895c2.31147,-0.13384 4.29385,1.6315 4.42768,3.94296c0.13384,2.31147 -1.63151,4.29385 -3.943,4.42769c-2.31147,0.13384 -4.29383,-1.63148 -4.42768,-3.94299c-0.13384,-2.31147 1.6315,-4.29382 3.94299,-4.42768z" data-paper-data="{&quot;index&quot;:null}" fill="#000000" fill-rule="nonzero" stroke="none" stroke-width="0.5" stroke-linecap="butt"/><path d="M591.83076,247.67024c2.31147,-0.13384 4.29385,1.6315 4.42769,3.943c0.13384,2.31147 -1.63151,4.29382 -3.94299,4.42768c-2.3115,0.13385 -4.29385,-1.6315 -4.42768,-3.94296c-0.13384,-2.31147 1.6315,-4.29385 3.943,-4.42769z" data-paper-data="{&quot;index&quot;:null}" fill="#000000" fill-rule="nonzero" stroke="none" stroke-width="0.5" stroke-linecap="butt"/><path d="M681.49763,164.41969c0.07112,1.22805 -0.67463,1.72867 -1.23817,1.93114c-7.70297,10.17461 -11.94567,23.20311 -17.05994,34.83609c-6.85182,11.63177 -13.61073,23.305 -20.94292,34.64082c-4.18929,6.47677 -9.75734,13.1061 -12.77269,20.20029c0,0 -0.77232,1.79753 -2.56986,1.02518c-1.79753,-0.7723 -1.02519,-2.56985 -1.02519,-2.56985c3.16805,-7.30582 8.75487,-14.09039 13.0823,-20.78074c7.26177,-11.22691 13.92978,-22.79813 20.74598,-34.29989c5.30091,-12.11694 9.75103,-25.57761 17.91212,-36.05094l1.80217,-0.77216c0,0 1.95314,-0.1131 2.06626,1.84006z" data-paper-data="{&quot;index&quot;:null}" fill="#000000" fill-rule="nonzero" stroke="none" stroke-width="0.5" stroke-linecap="butt"/><path d="M704.6359,378.01667c-1.74435,0.88591 -2.63026,-0.85845 -2.63026,-0.85845l-1.67102,-3.29021c-8.28885,-16.32059 -16.78281,-32.20372 -26.26928,-47.86082c-3.87921,-6.4085 -8.53803,-12.34963 -12.92307,-18.42095c-8.27638,-11.45907 -16.59526,-22.7688 -26.04225,-33.24507c0,0 -1.30846,-1.45451 0.14605,-2.76296c1.45452,-1.30845 2.76296,0.14605 2.76296,0.14605c9.51634,10.6067 17.94435,21.99482 26.30526,33.57096c4.4478,6.15827 9.15752,12.18728 13.09758,18.68432c9.53661,15.73984 18.07894,31.71002 26.41147,48.11662l1.67102,3.29019c0,0 0.88591,1.74435 -0.85845,2.63026z" data-paper-data="{&quot;index&quot;:null}" fill="#000000" fill-rule="nonzero" stroke="none" stroke-width="0.5" stroke-linecap="butt"/><path d="M607.10253,217.3964c-0.19416,-1.52044 -0.40274,-3.06322 0.32124,-4.43158c0.86107,-1.62742 2.26639,-1.27032 3.86819,-1.36307c4.0845,-0.23652 7.81755,1.92257 9.95974,5.45895c4.64612,8.12827 3.30414,17.52722 0.38377,25.95219c-0.65838,3.05061 -0.91288,6.26537 -3.01922,8.71753c-0.76912,0.89539 -1.76667,1.20379 -2.78476,1.51192c-0.6837,0.20693 -1.13321,0.87779 -1.75402,1.23115c-3.106,1.76796 -6.85256,2.63185 -10.37097,2.83558c-0.97854,0.05667 -3.14641,0.56056 -4.05796,0.15334c-1.25013,-0.55847 -1.43622,-3.8598 -1.2273,-5.02542c0.91134,-5.08427 1.84688,-10.10929 3.67286,-14.99586c2.46792,-6.60417 3.79805,-13.2128 5.00842,-20.04473z" fill="#000000" fill-rule="nonzero" stroke="none" stroke-width="0.5" stroke-linecap="butt"/><path d="M596.65343,271.49214c0.23967,-0.01388 0.40061,0.06062 0.5086,0.16358c0.20201,-0.01478 0.40244,-0.03127 0.60144,-0.04944c-0.1056,-0.58316 -0.21069,-1.16644 -0.3152,-1.74988c0,0 -0.12144,-0.67787 0.55644,-0.7993c0.67787,-0.12144 0.79931,0.55642 0.79931,0.55642c0.10989,0.61339 0.2204,1.22664 0.33151,1.83974c2.49073,-0.32696 4.80928,-0.89207 7.30794,-1.4936c4.04085,-0.97282 8.94178,-0.53622 13.10093,-0.77706c1.67199,-0.09678 3.99531,-0.5676 5.61114,-0.06001c1.83983,0.57795 4.45873,3.31459 5.17607,5.03173c0.58902,1.40997 0.46433,3.12418 0.87471,4.55603c0.74734,2.60756 1.55396,5.26022 2.32627,7.88409c2.67478,9.08746 3.89923,18.66689 5.86079,27.94533c0.07509,3.22065 0.59396,6.60405 -1.63897,9.28993c-0.89977,1.08229 -2.86495,1.58125 -4.06654,2.27184c-3.90601,2.24498 -7.90558,4.18202 -11.73719,6.56938c-2.20862,1.37538 -4.57854,2.9498 -7.20721,3.11632c-0.9725,0.06161 -2.39898,0.36735 -3.15948,-0.51376c-0.28955,-0.33546 -0.11991,-0.87826 -0.19334,-1.31526c-0.21847,-1.3004 -0.42232,-2.65929 -0.74297,-3.93784c-0.84576,-3.37234 -2.10819,-6.63058 -2.84435,-10.03891c-1.87838,-8.71718 -3.84229,-17.45529 -5.81551,-26.15919c-1.36313,-6.94659 -2.70606,-13.89272 -3.97701,-20.85555c-0.41599,0.0393 -0.83769,0.07171 -1.26643,0.09655l-0.73867,-0.84386c0,0 -0.0398,-0.68751 0.64769,-0.72733z" fill="#000000" fill-rule="nonzero" stroke="none" stroke-width="0.5" stroke-linecap="butt"/><path d="M515.50546,213.90172c-0.06439,-1.11193 1.04754,-1.17631 1.04754,-1.17631l0.14707,-0.00852c2.73088,-0.15813 5.63381,-0.6245 8.3617,-0.47701c2.86968,0.15514 5.57606,1.7447 8.46341,2.17691c1.57647,0.23599 3.16193,0.01052 4.74751,0.33958c3.09972,0.67089 11.15206,-0.90516 12.94531,2.72848c0.98875,2.00351 -1.07975,5.0205 -2.2328,6.47121c-2.87865,3.62179 -6.80027,8.94049 -11.28379,11.00006l0.06875,0.07256l-0.02874,0.02724l0.03595,0.00667c2.73501,0.48666 7.38661,0.16007 9.72583,1.74357c0.70184,0.47509 1.51749,1.2175 1.48423,2.06438c-0.03882,0.98847 -1.0556,1.67705 -1.66184,2.45875c-1.99392,2.57093 -4.85957,4.59266 -7.13231,6.91352c-0.84104,0.85823 -1.74317,2.18249 -2.87518,2.87496c2.31592,0.34632 6.39009,1.09561 8.40236,1.9108c0.97623,0.39548 2.23481,0.74558 2.65683,1.71064c0.38497,0.88033 -1.33173,4.26389 -1.81857,4.98267c-2.26536,3.3445 -6.09783,5.74957 -9.52253,7.72022c-1.09189,0.6283 -2.01682,1.34452 -3.05075,1.81144c2.92687,0.13092 7.41749,0.39995 7.38927,3.95225c-0.00584,0.73647 -0.69353,1.30094 -1.08632,1.92394c-1.85854,2.94764 -4.47856,5.44409 -6.78714,8.03573c-1.42763,1.45764 -2.72182,2.56349 -4.31879,3.71683c-0.20296,0.14656 0.4718,-0.20741 0.72215,-0.20629c1.23105,0.00551 2.44845,0.32535 3.6795,0.31775c2.58455,-0.01595 6.7751,-1.19063 8.89326,0.84901c1.22219,1.17686 -0.49493,4.6354 -0.97479,5.55871c-2.44122,4.69718 -7.74939,8.72292 -11.52492,12.39382c-0.74579,0.71157 -1.57428,1.34076 -2.27154,2.09912c0.1422,-0.14635 0.38096,-0.36813 0.5293,-0.39038c0.72363,-0.10863 1.46264,0.06207 2.19437,0.06098c1.4692,-0.00219 2.93779,-0.0701 4.40557,-0.13499c4.21236,-0.18628 9.01987,-1.22574 13.20497,-0.74194c5.70681,0.6597 0.40392,5.92538 -1.43647,7.52522c-1.69042,1.46945 -3.51379,2.585 -5.39328,3.78954c-5.46229,3.27729 -11.09842,6.27112 -16.11781,10.19654c-5.40637,4.22804 -8.79278,8.68109 -15.53867,10.92285c0,0 -1.05696,0.35124 -1.40821,-0.70571c-0.35124,-1.05696 0.70571,-1.40821 0.70571,-1.40821c6.45427,-2.14485 9.67603,-6.49599 14.8682,-10.5631c5.08172,-3.98059 10.78378,-7.0166 16.31664,-10.33539c1.15326,-0.73928 2.35698,-1.40496 3.46093,-2.21606c1.74392,-1.28129 3.79824,-3.14193 5.11891,-4.76262c0.19544,-0.23984 -0.58761,-0.23283 -0.89693,-0.23871c-0.6618,-0.01257 -1.32043,0.09566 -1.98105,0.13749c-1.37213,0.08689 -2.74515,0.15897 -4.11774,0.23843c-3.72207,0.21552 -7.45711,0.51869 -11.18743,0.52426c-0.45554,0.00068 -4.45252,0.01376 -4.70112,-0.62844c-0.80023,-2.06698 1.58365,-3.87055 2.6928,-4.96598c3.45119,-3.35554 7.55481,-6.77109 10.32946,-10.68142c0.28517,-0.40189 2.36363,-4.09832 1.96859,-4.30145c-2.32302,-1.19444 -6.91986,0.13232 -9.46406,-0.10526c-0.92225,-0.08612 -4.1087,-0.39892 -4.26175,-1.7963c-0.11553,-1.05484 1.18442,-1.76483 1.856,-2.5864c0.00311,-0.00381 2.95403,-3.01484 3.02036,-3.08251c1.76369,-1.98107 3.72762,-3.89375 5.34272,-5.99696c0.08386,-0.1092 2.62657,-2.76155 1.62603,-3.2866c-1.78006,-0.93413 -4.32147,-0.82125 -6.24862,-0.95167l-0.05398,-0.02267l-0.00247,0.01452l-1.91527,-0.32673c-0.51071,-0.07605 -0.91569,-0.50144 -0.94672,-1.03731c-0.02467,-0.42601 0.19348,-0.80996 0.53443,-1.01704l1.86269,-1.18065l0.12251,0.19327c3.77642,-2.89191 8.08847,-4.91682 11.47068,-8.47708c0.51857,-0.54587 2.93862,-3.25316 2.63695,-4.00637c-0.41677,-1.04063 -2.19071,-0.48544 -3.29954,-0.64994c-2.29959,-0.34117 -4.46171,-0.75501 -6.60039,-1.68892c-0.71569,-0.31253 -2.03111,-0.23082 -2.1153,-1.00723c-0.11642,-1.0735 1.08813,-1.86833 1.70755,-2.7528c0.38153,-0.54478 2.34055,-2.49426 2.60747,-2.76676c2.3571,-2.40496 6.44148,-4.909 8.1579,-7.78958c0.63346,-1.06309 -2.38768,-0.67452 -3.61059,-0.86398c-1.93347,-0.29955 -3.8389,-0.43335 -5.77098,-0.77618l-0.00391,-0.00151l-0.00014,0.00078l-2.16756,-0.40178c-0.50359,-0.0821 -0.90094,-0.50437 -0.93167,-1.03497c-0.01991,-0.34382 0.11834,-0.66022 0.35166,-0.87838l1.61123,-1.52665l0.14426,0.15224c2.98625,-3.23817 6.54945,-5.84478 9.36979,-9.32036c0.78676,-0.96955 4.13824,-4.11307 3.43493,-5.84366c-0.24716,-0.60821 -1.83614,-0.60222 -2.19201,-0.65885c-3.08514,-0.4908 -6.13727,-0.17428 -9.1832,-0.80526c-1.52216,-0.32911 -3.03804,-0.08759 -4.55964,-0.30816c-2.79845,-0.4057 -5.56464,-2.04875 -8.31406,-2.16357c-2.65654,-0.11093 -5.45136,0.32283 -8.10923,0.47672l-0.14707,0.00852c0,0 -1.11193,0.06439 -1.17631,-1.04754z" fill="#080000" fill-rule="nonzero" stroke="none" stroke-width="0.5" stroke-linecap="butt"/></g></g></g></svg>