<svg version="1.1" xmlns="http://www.w3.org/2000/svg" xmlns:xlink="http://www.w3.org/1999/xlink" width="1733.09309" height="836.33634" viewBox="0,0,1733.09309,836.33634"><g transform="translate(546.54655,238.16817)"><g data-paper-data="{&quot;isPaintingLayer&quot;:true}" stroke-linejoin="miter" stroke-miterlimit="10" stroke-dasharray="" stroke-dashoffset="0" style="mix-blend-mode: normal"><path d="M-546.54655,598.16817v-836.33634h1733.09309v836.33634z" fill="none" fill-rule="nonzero" stroke="#f00000" stroke-width="0" stroke-linecap="butt"/><g><path d="M280.1775,165.83471l38.31424,-7.24291l19.03815,31.64954l-35.83234,12.09792z" data-paper-data="{&quot;index&quot;:null}" fill="#cedce9" fill-rule="nonzero" stroke="#000000" stroke-width="1" stroke-linecap="round"/><path d="M280.05042,161.83161c-0.2018,-1.36178 -1.04821,-4.38675 0.34615,-3.66441c-0.5997,-0.49082 -1.3737,-1.16097 -1.71154,-1.56118c-1.60057,-1.8959 -2.85206,-4.83796 -4.13388,-7.01232c-3.51659,-5.9652 -6.74044,-11.86861 -11.04621,-17.1113c-1.94589,-2.36931 -1.11031,-3.82856 -3.34355,-3.59183c-3.92886,0.08884 -8.39863,-1.46676 -12.55057,-1.71105c-5.6272,-0.33113 -10.13779,0.9131 -15.1583,1.63611c-4.43595,0.08406 -9.92499,5.38162 -13.62994,7.56575c-0.99175,0.58464 -2.44647,2.15223 -3.47313,2.07935c0.25802,0.52201 0.50924,1.02501 0.69065,1.33273c1.20572,2.04526 2.41141,4.09049 3.61715,6.13579c4.79616,8.13572 10.51305,17.50326 16.77075,24.45519c7.23679,8.36808 10.77577,19.97492 17.88185,28.52165c3.82078,4.72209 6.68932,10.63363 9.79053,15.90665c1.57326,2.67501 3.74707,4.47841 2.90561,6.55521c-0.22117,0.54587 0.94871,-0.55928 1.42303,-0.8389c1.18583,-0.69907 2.37174,-1.39818 3.55758,-2.09726c6.64084,-3.91489 13.2817,-7.82979 19.92253,-11.74468c1.56994,-0.92551 6.88776,-4.7436 8.11383,-4.0531c-0.10645,-0.20235 -0.22222,-0.4342 -0.28713,-0.56089c-0.57517,-1.1225 -0.98092,-1.69989 -0.98969,-2.83536c-0.01517,-1.97126 -3.58342,-6.54838 -4.75799,-8.54081c-4.56448,-7.74274 -9.12896,-15.48548 -13.69346,-23.22827c0,0 -1.03347,-1.75307 0.38956,-2.59196c0.05842,-0.03445 0.11615,-0.0645 0.17318,-0.09049c-0.34988,-0.92303 -0.64895,-1.88751 -0.80707,-2.9546zM296.83425,189.01917c2.75537,4.67394 6.95252,10.24931 5.94893,15.14213c-0.57509,2.80379 -6.5869,4.72309 -8.80719,6.03199c-6.64086,3.9149 -13.28171,7.82978 -19.92255,11.74468c-0.75832,0.44705 -4.16413,3.26848 -4.98063,2.93616c-8.24713,-3.35663 -11.39645,-16.99044 -17.14854,-23.63513c-6.94859,-8.35733 -10.36379,-20.68592 -17.75619,-28.37642c-6.44955,-7.1651 -12.41008,-16.86381 -17.35708,-25.25545c-0.7096,-1.20368 -5.70506,-7.98606 -5.4257,-9.20365c0.80108,-3.49166 2.85868,-4.04755 5.3702,-5.52815c4.54283,-2.67808 9.37297,-6.86234 14.63602,-7.91636c5.14565,-0.74102 10.00399,-1.99745 15.64326,-1.66562c2.27482,0.13387 5.15151,0.03111 7.45713,0.57791c1.50869,0.35781 3.33437,1.66608 4.71667,1.14917c4.17987,-0.4431 4.69779,2.90381 7.14232,5.78435c4.35154,5.12766 7.55972,11.19716 11.04621,17.1113c1.2858,2.1811 4.61292,5.96235 5.26644,7.65046c1.13763,2.93864 0.19889,5.58451 1.1787,8.50505c0.71896,2.14305 2.14152,4.00951 2.54986,6.76497c0.031,0.20919 0.06198,0.41834 0.093,0.62756c3.4497,5.85173 6.89939,11.70347 10.34908,17.55517z" data-paper-data="{&quot;index&quot;:null}" fill="#000000" fill-rule="nonzero" stroke="none" stroke-width="1" stroke-linecap="butt"/><path d="M280.94015,164.77032c-0.05707,0.02598 -0.1147,0.05627 -0.1731,0.0907c-1.42303,0.8389 -0.38692,2.602 -0.38692,2.602c4.56448,7.74274 9.12498,15.54344 13.68949,23.28622c1.17456,1.99243 4.73885,6.57795 4.75402,8.5492c0.00872,1.13546 0.41294,1.71564 0.98809,2.83811c0.06492,0.12671 0.1804,0.35892 0.28685,0.56132c-1.22608,-0.69052 -6.55438,3.14094 -8.12432,4.06645c-6.64086,3.9149 -13.32335,7.84942 -19.96421,11.76432c-1.18582,0.69907 -2.37926,1.39856 -3.56511,2.09765c-0.47434,0.27963 -1.64711,1.3847 -1.42594,0.83884c0.84146,-2.07682 -1.33665,-3.8805 -2.90987,-6.55548c-3.10124,-5.273 -5.99541,-11.19093 -9.81617,-15.91303c-7.1061,-8.54676 -10.71363,-20.23833 -17.95042,-28.60641c-6.25771,-6.95191 -11.97247,-16.37243 -16.76865,-24.50822c-1.20572,-2.04526 -2.40905,-4.09672 -3.61477,-6.14199c-0.18143,-0.30775 -0.43208,-0.81196 -0.69011,-1.33391c1.02666,0.07288 2.4845,-1.50094 3.47625,-2.08558c3.70496,-2.18413 9.21376,-7.50445 13.64974,-7.5885c5.02047,-0.72301 9.56024,-1.97956 15.18741,-1.64844c4.15199,0.24433 8.65068,1.80052 12.57954,1.71172c2.23325,-0.23674 1.40628,1.22478 3.35219,3.5941c4.30577,5.24266 7.57173,11.17194 11.0883,17.13711c1.28178,2.1743 2.55126,5.13873 4.15184,7.03464c0.33786,0.40016 1.11595,1.0773 1.71562,1.56811c-1.39434,-0.72238 -0.54267,2.31348 -0.34087,3.67525c0.15815,1.06716 0.46136,2.04291 0.81122,2.96594z" data-paper-data="{&quot;noHover&quot;:false,&quot;origItem&quot;:[&quot;Path&quot;,{&quot;applyMatrix&quot;:true,&quot;segments&quot;:[[[579.60736,595.76373],[0.95609,-0.20262],[0.00646,0.07548]],[[579.61718,596],[0,-0.08208],[0,2]],[[577.61718,598],[0,0],[-8.83333,0]],[[551.11718,598],[8.83333,0],[-2.27308,0]],[[541.51161,598.28885],[1.67648,-1.19621],[-0.96568,0.68904]],[[538.61718,599],[1.23739,-0.09027],[-0.13966,0.01019]],[[537.99901,599.04541],[0.22447,-0.0134],[1.19653,0.85421]],[[538.61718,610],[0,-2.20646],[0,9.33333]],[[538.61718,638],[0,-9.33333],[0,1.66667]],[[538.61718,643],[0,-1.66667],[0,0.66667]],[[538.61718,645],[-0.35177,0.56631],[1.33831,-2.15456]],[[545.61718,644],[-3.04994,0.00386],[6.01206,-0.00761]],[[563.97058,644.43107],[-5.90478,-1.08158],[10.78253,2.15651]],[[597.04254,645.54479],[-10.6965,-2.40266],[9.00888,2.25222]],[[626.11718,648],[-9.28168,0],[2.33333,0]],[[633.11718,648],[-2.33333,0],[0.35109,0]],[[634.59021,647.90091],[-0.5707,0.05184],[-0.57412,-1.02596]],[[634.61718,643],[0,1.39387],[0,-5.20707]],[[634.21982,624.13246],[2.14282,4.67827],[-1.8936,-5.6808]],[[628.03948,607.31672],[3.08887,5.66543],[-2.2791,-4.1802]],[[620.32688,595.27881],[1.8857,4.15235],[-0.91417,-2.47477]],[[615.61718,594],[2.9771,0.57275],[-6.58756,-1.26734]],[[595.61718,593],[6.8054,0],[-2.48058,0]],[[587.61718,593],[2.40395,0.50364],[-0.50743,-0.10631]],[[585.44122,592.1748],[0.71481,0.32365],[1.30749,1.01011]],[[582.51161,594.78885],[1.25365,-0.62682],[-0.98239,0.4912]]],&quot;closed&quot;:true}],&quot;index&quot;:null}" fill="#484848" fill-rule="nonzero" stroke="none" stroke-width="1" stroke-linecap="butt"/><path d="M261.23512,143.26983c-0.48091,0.28351 -0.70752,1.23151 -1.26593,1.15475c0.38981,0.80842 0.70608,1.66629 0.83253,2.5195c0.48748,3.28959 -0.25503,11.00381 -2.5503,13.04301c-0.1867,0.16586 -0.66449,-0.56397 -0.77676,-0.32649c-0.37359,0.79023 2.74113,3.5991 2.79795,4.09988c0.01284,0.11335 -0.02354,0.1942 -0.08901,0.25658c0.2249,-0.15744 0.44284,-0.30872 0.58626,-0.39327c0.50407,-0.29716 1.06175,-0.59285 1.34888,-1.13635c2.58229,-4.70325 4.08635,-10.7871 0.14985,-17.4646c0,0 -0.46452,-0.78801 -0.34189,-1.56022c-0.02223,-0.22031 -0.00774,-0.41036 0.04921,-0.5656c-0.28516,0.13683 -0.5758,0.27546 -0.74083,0.37275zM259.34683,164.46275c-0.22082,0.2914 0.24198,-0.02898 0.72445,-0.36698c-0.22449,0.12111 -0.57358,0.16783 -0.72445,0.36698zM265.24026,164.87315c-2.25388,4.2661 -10.34233,2.36475 -10.61166,-3.5347c-0.25411,-5.56617 3.41409,-9.66423 2.70317,-14.46163c-0.24015,-1.62073 -0.87423,-3.35864 -0.56705,-4.85623c0.4868,-2.37323 5.67022,-4.50416 7.4156,-1.54345c1.25678,2.13188 1.31455,3.51282 2.4846,5.49755l0.51673,0.87653c0,0 0.59316,1.0062 0.26195,1.8588c1.68533,6.00408 0.15381,11.39726 -2.20325,16.16305z" data-paper-data="{&quot;index&quot;:null}" fill="#000000" fill-rule="nonzero" stroke="none" stroke-width="1" stroke-linecap="butt"/><path d="M261.98526,142.80392c-0.05695,0.15519 -0.07139,0.34533 -0.04918,0.56563c-0.12264,0.7722 0.34705,1.56198 0.34705,1.56198c3.93648,6.67747 2.43094,12.9498 -0.15137,17.65303c-0.28712,0.5435 -0.85924,0.8374 -1.36331,1.13454c-0.14341,0.08454 -0.36653,0.23447 -0.59145,0.39194c0.06554,-0.06239 0.10253,-0.14301 0.08968,-0.25642c-0.05686,-0.50083 -3.20787,-3.32852 -2.8343,-4.11871c0.11228,-0.2375 0.66594,0.33541 0.85263,0.16949c2.29528,-2.03918 3.00249,-9.76773 2.51501,-13.05734c-0.12642,-0.85323 -0.45113,-1.71215 -0.84096,-2.52057c0.55841,0.07671 0.79803,-0.86925 1.27893,-1.15275c0.16502,-0.09728 0.462,-0.2342 0.74719,-0.37096z" data-paper-data="{&quot;noHover&quot;:false,&quot;origItem&quot;:[&quot;Path&quot;,{&quot;applyMatrix&quot;:true,&quot;segments&quot;:[[[607.563,601.99816],[0.02649,0.38155],[-0.10299,0.15484]],[[607.10872,602.39727],[0.1976,-0.11227],[-0.59254,0.60273]],[[605.61718,603],[0,0],[-7.618,0]],[[590.90604,613.89443],[2.69308,-5.58508],[-0.31682,0.63364]],[[590.61718,616],[0,-0.70843],[0,0.20156]],[[590.57685,616.85325],[0.02106,-0.33136],[0.02013,-0.10671]],[[590.74964,616.60263],[-0.10238,0.05628],[0.45234,-0.24865]],[[595.61718,617],[-0.48256,0.87548],[0.14503,-0.26312]],[[594.95308,616.3906],[-0.04725,0.29671],[0.58086,-3.64773]],[[604.72276,605.71115],[-3.02833,1.51416],[0.78545,-0.39273]],[[607.27135,605.03032],[-0.87898,0.0905],[-0.34365,-0.53523]],[[607.61718,603],[0,0.6759],[0,-0.23192]]],&quot;closed&quot;:true}],&quot;index&quot;:null}" fill="#ffffff" fill-rule="nonzero" stroke="none" stroke-width="1" stroke-linecap="butt"/><path d="M332.56515,254.70008l27.93509,-25.49406l18.47384,31.98221l-24.88888,30.0164z" fill="#cedce9" fill-rule="nonzero" stroke="#000000" stroke-width="1" stroke-linecap="round"/><path d="M357.52614,293.25414c-0.8571,-0.65503 -1.55616,-1.3837 -2.19437,-2.13676c-0.05036,0.03732 -0.1046,0.07327 -0.16303,0.10771c-1.42303,0.8389 -2.45648,-0.91418 -2.45648,-0.91418c-4.56449,-7.74277 -9.12898,-15.48552 -13.69346,-23.22827c-1.17456,-1.99243 -3.45162,-7.33072 -5.16906,-8.29848c-0.98926,-0.55745 -1.29797,-1.19204 -2.00162,-2.23881c-0.07943,-0.11815 -0.22622,-0.33167 -0.35172,-0.52279c0.01051,1.40711 -5.90503,4.21126 -7.47498,5.13678c-6.64086,3.9149 -13.28173,7.8298 -19.92253,11.74468c-1.18585,0.69907 -2.37174,1.39819 -3.55758,2.09726c-0.47432,0.27962 -2.00773,0.76811 -1.42303,0.8389c2.22456,0.26933 2.7499,3.04455 4.32866,5.71631c3.11207,5.26662 6.89551,10.63882 9.17713,16.26824c4.03732,10.35585 12.47924,19.0723 16.29695,29.45598c3.05271,8.84133 8.4808,18.3791 13.27696,26.51484c1.20574,2.04529 2.41143,4.09051 3.61715,6.13579c0.18141,0.30772 0.49988,0.77108 0.83167,1.24959c0.43335,-0.93357 2.50928,-1.44739 3.50102,-2.03204c3.70495,-2.18414 10.99787,-4.42175 13.21929,-8.26232c3.06352,-4.04264 6.33618,-7.38679 8.77113,-12.4707c1.79663,-3.75107 2.59979,-8.41513 4.57984,-11.80974c1.28846,-1.83937 -0.39291,-1.81484 -1.52377,-4.66463c-2.50229,-6.30585 -6.10658,-11.98504 -9.62316,-17.95022c-1.28183,-2.17437 -3.25004,-4.69389 -4.13388,-7.01232c-0.18658,-0.48941 -0.39818,-1.4911 -0.53725,-2.25346c-0.04313,1.56976 -2.28003,-0.63549 -3.37382,-1.47143zM341.86478,265.40476c3.4497,5.85173 6.89939,11.70347 10.34908,17.55517c0.16803,0.12841 0.33602,0.25682 0.50406,0.38523c2.21319,1.69147 3.15746,3.83988 4.68442,5.5066c2.08094,2.27141 4.85049,2.73115 6.87084,5.14944c1.16061,1.38919 2.85807,6.13115 4.14386,8.31225c3.48648,5.91415 7.24366,11.66001 9.62314,17.95021c1.3367,3.53359 4.01436,5.60733 1.60278,9.05c-1.12158,0.95913 -0.86088,3.19001 -1.27832,4.68332c-0.63796,2.2821 -2.12075,4.74934 -3.10508,6.80452c-2.44017,5.09479 -5.89189,8.73731 -9.03176,12.88073c-3.47057,4.09464 -9.4704,6.29479 -14.01321,8.97285c-2.51154,1.48059 -3.99421,3.01176 -7.43715,2.02201c-1.20061,-0.34514 -4.71612,-7.99996 -5.42571,-9.20364c-4.947,-8.39162 -10.54695,-18.30293 -13.69324,-27.41533c-3.14948,-10.19176 -12.28288,-19.14937 -16.23071,-29.27571c-3.0287,-8.25019 -13.43284,-17.60718 -12.37653,-26.44832c0.10459,-0.87533 4.22231,-2.48913 4.98063,-2.93616c6.64086,-3.9149 13.2817,-7.82979 19.92255,-11.74468c2.22029,-1.3089 6.81051,-5.63966 9.54215,-4.78526c4.76693,1.49098 7.61292,7.8629 10.36828,12.53684z" data-paper-data="{&quot;index&quot;:null}" fill="#000000" fill-rule="nonzero" stroke="none" stroke-width="1" stroke-linecap="butt"/><path d="M355.38567,291.05265c0.6382,0.75306 1.34514,1.4908 2.20229,2.14589c1.09379,0.83594 3.33767,3.05107 3.38075,1.48131c0.13907,0.76232 0.35479,1.771 0.54134,2.26037c0.88384,2.31842 2.86293,4.86453 4.14472,7.03884c3.51656,5.96515 7.1231,11.69369 9.62535,17.99953c1.13086,2.84979 2.81004,2.83388 1.52157,4.67326c-1.98006,3.39459 -2.79668,8.08428 -4.59328,11.83539c-2.43493,5.08389 -5.73249,8.44758 -8.796,12.49021c-2.22142,3.84062 -9.54384,6.08449 -13.24879,8.26863c-0.99175,0.58464 -3.07465,1.09816 -3.508,2.03174c-0.33176,-0.47849 -0.65154,-0.94196 -0.83295,-1.24969c-1.20572,-2.04527 -2.41801,-4.09146 -3.62371,-6.13672c-4.79618,-8.13579 -10.27168,-17.69737 -13.32438,-26.53869c-3.81771,-10.3837 -12.30061,-19.20115 -16.33792,-29.55702c-2.28163,-5.62944 -6.05824,-11.02717 -9.17029,-16.29378c-1.57875,-2.67175 -2.10226,-5.45083 -4.32682,-5.72017c-0.58471,-0.07079 0.95005,-0.56186 1.42437,-0.84149c1.18585,-0.69907 2.37573,-1.4046 3.56157,-2.10367c6.64086,-3.9149 13.31904,-7.85671 19.95991,-11.77163c1.56993,-0.9255 7.50225,-3.73237 7.49173,-5.1395c0.12555,0.19114 0.27281,0.40461 0.35223,0.52277c0.70363,1.04672 1.01555,1.68131 2.00479,2.23873c1.71743,0.96775 4.00376,6.30666 5.17832,8.29908c4.56451,7.74278 9.1816,15.51011 13.74609,23.25287c0,0 1.04098,1.76023 2.46401,0.92135c0.05841,-0.03443 0.11282,-0.07018 0.16318,-0.10756z" data-paper-data="{&quot;noHover&quot;:false,&quot;origItem&quot;:[&quot;Path&quot;,{&quot;applyMatrix&quot;:true,&quot;segments&quot;:[[[579.60736,595.76373],[0.95609,-0.20262],[0.00646,0.07548]],[[579.61718,596],[0,-0.08208],[0,2]],[[577.61718,598],[0,0],[-8.83333,0]],[[551.11718,598],[8.83333,0],[-2.27308,0]],[[541.51161,598.28885],[1.67648,-1.19621],[-0.96568,0.68904]],[[538.61718,599],[1.23739,-0.09027],[-0.13966,0.01019]],[[537.99901,599.04541],[0.22447,-0.0134],[1.19653,0.85421]],[[538.61718,610],[0,-2.20646],[0,9.33333]],[[538.61718,638],[0,-9.33333],[0,1.66667]],[[538.61718,643],[0,-1.66667],[0,0.66667]],[[538.61718,645],[-0.35177,0.56631],[1.33831,-2.15456]],[[545.61718,644],[-3.04994,0.00386],[6.01206,-0.00761]],[[563.97058,644.43107],[-5.90478,-1.08158],[10.78253,2.15651]],[[597.04254,645.54479],[-10.6965,-2.40266],[9.00888,2.25222]],[[626.11718,648],[-9.28168,0],[2.33333,0]],[[633.11718,648],[-2.33333,0],[0.35109,0]],[[634.59021,647.90091],[-0.5707,0.05184],[-0.57412,-1.02596]],[[634.61718,643],[0,1.39387],[0,-5.20707]],[[634.21982,624.13246],[2.14282,4.67827],[-1.8936,-5.6808]],[[628.03948,607.31672],[3.08887,5.66543],[-2.2791,-4.1802]],[[620.32688,595.27881],[1.8857,4.15235],[-0.91417,-2.47477]],[[615.61718,594],[2.9771,0.57275],[-6.58756,-1.26734]],[[595.61718,593],[6.8054,0],[-2.48058,0]],[[587.61718,593],[2.40395,0.50364],[-0.50743,-0.10631]],[[585.44122,592.1748],[0.71481,0.32365],[1.30749,1.01011]],[[582.51161,594.78885],[1.25365,-0.62682],[-0.98239,0.4912]]],&quot;closed&quot;:true}],&quot;index&quot;:null}" fill="#484848" fill-rule="nonzero" stroke="none" stroke-width="1" stroke-linecap="butt"/><path d="M364.65676,318.70427c0.16502,-0.09728 0.42707,-0.28445 0.68483,-0.46772c-0.1634,-0.02535 -0.33672,-0.10467 -0.51873,-0.23082c-0.73503,-0.26662 -1.19958,-1.05458 -1.19958,-1.05458c-3.93649,-6.67749 -9.98786,-8.30728 -15.35337,-8.32518c-0.61458,-0.01192 -1.14334,0.33286 -1.6474,0.63002c-0.14342,0.08455 -0.38131,0.202 -0.62795,0.32254c0.08628,-0.02707 0.17464,-0.01976 0.2676,0.04635c0.41066,0.2922 1.36017,4.3775 2.23247,4.43324c0.26215,0.01677 -0.14508,-0.75465 0.09044,-0.83771c2.89559,-1.02089 10.00474,2.06466 12.64696,4.08397c0.68529,0.52375 1.28275,1.21587 1.80135,1.94837c0.20322,-0.52572 1.1424,-0.26499 1.62331,-0.54849zM345.87133,309.63872c-0.52934,0.2585 -1.03377,0.50828 -0.67187,0.45618c0.24732,-0.03559 0.45721,-0.3184 0.67187,-0.45618zM347.69402,304.73968c5.31115,0.24524 10.77152,1.5166 15.20882,5.89834c0.90637,0.12304 1.49954,1.12923 1.49954,1.12923l0.51673,0.87653c1.17004,1.98474 2.35032,2.70394 3.6071,4.83583c1.74538,2.96071 -2.62889,6.46421 -4.94107,5.74101c-1.45904,-0.45636 -2.67262,-1.85264 -3.97443,-2.84753c-3.85329,-2.94491 -9.21506,-1.71966 -13.96219,-4.63712c-5.03136,-3.09215 -2.77857,-11.08986 2.04541,-10.99627z" data-paper-data="{&quot;index&quot;:null}" fill="#000000" fill-rule="nonzero" stroke="none" stroke-width="1" stroke-linecap="butt"/><path d="M365.42762,318.27365c-0.25774,0.18328 -0.52133,0.37686 -0.68636,0.47414c-0.48091,0.28351 -1.4246,0.03512 -1.62785,0.56086c-0.51858,-0.73253 -1.11286,-1.43252 -1.79819,-1.95624c-2.64225,-2.01934 -9.74684,-5.14269 -12.64241,-4.12179c-0.23556,0.083 -0.00237,0.84484 -0.26454,0.82809c-0.87228,-0.05577 -1.82069,-4.18193 -2.23134,-4.47417c-0.09299,-0.06615 -0.18145,-0.07282 -0.26777,-0.0457c0.24668,-0.12055 0.4859,-0.24318 0.62932,-0.32772c0.50407,-0.29716 1.03821,-0.65543 1.65279,-0.6435c5.3655,0.01786 11.5825,1.73761 15.51898,8.41509c0,0 0.4636,0.79336 1.19862,1.05995c0.18203,0.12611 0.35537,0.20554 0.51872,0.23083z" data-paper-data="{&quot;noHover&quot;:false,&quot;origItem&quot;:[&quot;Path&quot;,{&quot;applyMatrix&quot;:true,&quot;segments&quot;:[[[607.563,601.99816],[0.02649,0.38155],[-0.10299,0.15484]],[[607.10872,602.39727],[0.1976,-0.11227],[-0.59254,0.60273]],[[605.61718,603],[0,0],[-7.618,0]],[[590.90604,613.89443],[2.69308,-5.58508],[-0.31682,0.63364]],[[590.61718,616],[0,-0.70843],[0,0.20156]],[[590.57685,616.85325],[0.02106,-0.33136],[0.02013,-0.10671]],[[590.74964,616.60263],[-0.10238,0.05628],[0.45234,-0.24865]],[[595.61718,617],[-0.48256,0.87548],[0.14503,-0.26312]],[[594.95308,616.3906],[-0.04725,0.29671],[0.58086,-3.64773]],[[604.72276,605.71115],[-3.02833,1.51416],[0.78545,-0.39273]],[[607.27135,605.03032],[-0.87898,0.0905],[-0.34365,-0.53523]],[[607.61718,603],[0,0.6759],[0,-0.23192]]],&quot;closed&quot;:true}],&quot;index&quot;:null}" fill="#ffffff" fill-rule="nonzero" stroke="none" stroke-width="1" stroke-linecap="butt"/><path d="M313.61215,150.99923c4.50555,7.58209 8.95781,15.19518 13.35859,22.83863c-2.42253,-3.69539 -4.75535,-7.47416 -6.99851,-11.33631c-2.25561,-3.8262 -4.37512,-7.66066 -6.36006,-11.50232z" fill="#884f38" fill-rule="evenodd" stroke="none" stroke-width="1" stroke-linecap="butt"/><path d="M254.77003,99.95716l207.40947,-122.00304l48.31395,103.07913l24.28731,-15.98175l0.77161,2.76571l62.33308,131.95872l-11.98357,6.90349l-179.16683,105.6219l-4.89826,1.70673l-14.81502,9.37782l-124.92616,-211.91272z" fill="#d5d5d5" fill-rule="nonzero" stroke="#000000" stroke-width="1" stroke-linecap="round"/><path d="M286.35691,80.42366l134.02549,224.79851l-32.28752,19.89286l-133.54245,-224.70753z" fill="#65675c" fill-rule="nonzero" stroke="#000000" stroke-width="1" stroke-linecap="round"/><path d="M287.52707,154.61251l82.59983,-48.90872l22.39556,40.90332l-81.47023,48.45751z" fill="#242424" fill-rule="nonzero" stroke="#000000" stroke-width="1" stroke-linecap="round"/><path d="M297.62312,155.53129l70.04106,-41.07569l17.15221,29.82377l-69.64812,42.5617z" fill="#b57047" fill-rule="nonzero" stroke="#000000" stroke-width="1" stroke-linecap="round"/><path d="M306.95099,90.77355l41.74522,-24.60952l19.76207,32.79405l-44.59057,25.42808z" fill="#242424" fill-rule="nonzero" stroke="#000000" stroke-width="1" stroke-linecap="round"/><path d="M315.18967,96.00788l31.96886,-19.705l11.54497,20.6764l-31.67037,18.02609z" fill="#593f1e" fill-rule="nonzero" stroke="#000000" stroke-width="1" stroke-linecap="round"/><path d="M423.22492,163.45087l42.22647,77.09206l-63.42283,38.46236l-43.46429,-77.00648z" fill="#242424" fill-rule="nonzero" stroke="#000000" stroke-width="1" stroke-linecap="round"/><path d="M419.37099,173.66694l36.70135,65.53451l-51.43599,30.7518l-38.25781,-65.26108z" fill="#593f1e" fill-rule="nonzero" stroke="#000000" stroke-width="1" stroke-linecap="round"/><path d="M443.81119,74.45023l-84.12127,-61.84143l4.1239,-12.30757l90.29696,67.2184l0.26836,104.61826l66.28947,125.92271l-8.44812,1.33031l-68.20667,-130.26749z" fill="#838e8a" fill-rule="nonzero" stroke="#000000" stroke-width="1" stroke-linecap="round"/><path d="M461.53799,-8.83901l17.58009,36.0127l-41.38967,23.75581l-3.18666,1.8786l-16.57541,-34.67264l-0.21637,-0.73126z" fill="#242424" fill-rule="nonzero" stroke="#000000" stroke-width="1" stroke-linecap="round"/><path d="M459.10623,-2.03781l13.03114,25.38263l-34.06036,19.43504l-12.43904,-24.01404z" fill="#593f1e" fill-rule="nonzero" stroke="#000000" stroke-width="1" stroke-linecap="round"/><path d="M511.06244,80.26842l-57.25865,-118.5252l6.59111,-11.40027l57.60984,125.40345z" fill="#838e8a" fill-rule="nonzero" stroke="#000000" stroke-width="1" stroke-linecap="round"/><path d="M533.39223,44.66786l79.02417,165.00654l-8.6812,2.75595l-75.35431,-161.695z" fill="#838e8a" fill-rule="nonzero" stroke="#000000" stroke-width="1" stroke-linecap="round"/><path d="M528.76066,103.84657c5.49362,7.4647 4.84425,20.32602 -0.13947,27.58497c-3.22579,4.6985 -8.52985,8.94249 -13.61606,11.38676c-4.5902,2.18721 -8.76045,3.94991 -13.68836,5.23052c-2.70917,0.70404 -6.00842,1.99544 -8.85523,1.24099c-2.75737,-0.73079 -4.74576,-3.72387 -6.59906,-5.66473c-7.06829,-7.40239 -8.80526,-16.14705 -7.31811,-26.11901c0.56434,-3.57574 2.29695,-8.39635 4.82907,-11.17694c4.19822,-4.61015 13.00557,-8.58686 19.12074,-9.43171c5.43314,-0.7506 9.05709,2.02467 14.05016,2.91146c2.71822,0.48277 5.2776,-1.4737 7.86778,-0.33527c0.75042,0.32982 1.26432,1.04361 1.89649,1.56542l1.79661,1.15842c0,0 0.98017,0.63446 0.65546,1.64913zM520.98053,102.35898c-1.47552,0.16738 -3.06019,0.7292 -4.94287,0.41817c-2.70198,-0.44639 -4.98093,-2.22755 -7.61323,-2.75568c-6.97564,-1.39967 -17.99133,3.09005 -22.78194,8.28731c-2.13953,2.32115 -3.69036,6.6252 -4.12055,9.64623c-1.38013,9.04745 0.0938,16.88504 6.51665,23.58875c1.30658,1.3637 3.23047,4.35303 5.21746,4.84158c2.24345,0.5516 5.19266,-0.7018 7.30295,-1.25079c4.74791,-1.23516 8.72333,-2.92493 13.15079,-5.03459c4.60671,-2.17403 9.47196,-6.0977 12.39659,-10.32467c4.61921,-6.67617 4.92192,-18.80296 -0.56266,-25.1341c-0.89175,-1.02941 -2.52764,-1.0161 -3.77706,-1.55816c0,0 -0.52355,-0.22713 -0.78615,-0.72405z" data-paper-data="{&quot;index&quot;:null}" fill="#080000" fill-rule="nonzero" stroke="none" stroke-width="0.5" stroke-linecap="butt"/><path d="M521.80131,103.0467c1.24942,0.54205 2.89024,0.53422 3.78201,1.56362c5.48459,6.33114 5.18832,18.50878 0.56913,25.18495c-2.92464,4.22697 -7.81548,8.17649 -12.42221,10.35051c-4.42745,2.10967 -8.43231,3.80295 -13.18023,5.0381c-2.11027,0.54898 -5.07135,1.79866 -7.3148,1.24705c-1.987,-0.48855 -3.92166,-3.48455 -5.22823,-4.84824c-6.42286,-6.70373 -7.915,-14.58592 -6.53488,-23.63336c0.43017,-3.02104 1.9885,-7.34635 4.12803,-9.66749c4.79063,-5.19724 15.85682,-9.7096 22.83246,-8.30993c2.63229,0.52818 4.92949,2.31611 7.63143,2.76249c1.88267,0.31104 3.474,-0.24587 4.94953,-0.41327c0.26261,0.4969 0.78779,0.72555 0.78779,0.72555z" data-paper-data="{&quot;noHover&quot;:false,&quot;origItem&quot;:[&quot;Path&quot;,{&quot;applyMatrix&quot;:true,&quot;segments&quot;:[[[242.36308,94.44509],[0.55935,0.02605],[-0.60288,1.35103]],[[240.22113,98.89885],[1.21949,-1.45844],[-1.75016,2.09309]],[[234.00416,104.03862],[1.78511,-1.99193],[-4.73058,5.27863]],[[229.59018,127.78406],[-2.0367,-6.74107],[0.90961,3.01063]],[[235.78421,136.201],[-2.37514,-1.89768],[7.06666,5.76203]],[[259.32625,142.54284],[-9.00308,2.12064],[1.83146,-0.43139]],[[266.12128,140.51457],[-1.42462,1.45816],[1.60848,-1.64635]],[[268.74272,133.61401],[-0.59653,2.0889],[1.34214,-4.69981]],[[271.07546,119.78016],[-0.42946,4.86722],[0.46491,-5.05363]],[[268.48641,103.9171],[2.14806,4.64868],[-3.3927,-7.34221]],[[246.63053,91.68342],[8.20857,-1.50389],[-1.33466,0.24452]],[[243.38226,94.13672],[1.09735,-0.79807],[0,0]]],&quot;closed&quot;:true}],&quot;index&quot;:null}" fill="#ffffff" fill-rule="nonzero" stroke="none" stroke-width="0.5" stroke-linecap="butt"/><path d="M558.93501,148.97549c5.22625,4.53358 9.09576,10.08729 12.66091,16.14113c2.04044,3.46481 4.93237,7.8358 4.40887,12.05807c-0.60541,4.88276 -4.4439,9.08544 -6.96572,13.06953c-3.51915,5.55897 -6.52484,10.35588 -12.33448,13.76834c-1.45304,0.8535 -2.75159,2.09279 -4.38095,2.52291c-4.87516,1.28687 -10.3664,0.42977 -15.34857,0.8665c-8.11204,0.7111 -15.87647,1.57119 -21.02676,-5.86877c-5.9686,-8.8353 -7.82745,-18.44918 -6.90244,-28.92734c0.30512,-3.45643 0.62506,-8.02394 1.99078,-11.23963c2.77066,-6.52376 8.93378,-10.28609 14.73185,-13.70416c5.07353,-2.99093 10.07999,-5.95552 15.49395,-8.29849c2.47343,-1.07042 4.96929,-3.15763 7.79353,-2.00946c2.31466,0.941 2.83821,3.25479 4.12309,5.09417c1.15363,1.65145 2.54135,3.213 3.87883,4.71865l1.32091,1.01216c0,0 0.39776,0.30721 0.5562,0.79643zM553.41786,147.58329c-0.95956,-1.10456 -1.89252,-2.24278 -2.71787,-3.42577c-0.83122,-1.19137 -1.37604,-3.34619 -2.80681,-4.02579c-1.38079,-0.65582 -4.16935,1.44805 -5.43507,1.99547c-5.2991,2.29189 -10.19488,5.20162 -15.16038,8.12886c-5.19937,3.06512 -10.95848,6.38668 -13.47126,12.24342c-1.25679,2.92932 -1.50446,7.20817 -1.78093,10.36998c-0.85534,9.78149 0.79678,18.72273 6.39635,26.97572c4.24821,6.45316 11.4729,5.14948 18.27102,4.55707c4.75768,-0.41461 10.02622,0.41088 14.68871,-0.7333c1.42543,-0.34981 2.514,-1.51568 3.78186,-2.25508c5.38131,-3.13825 8.0578,-7.64074 11.31137,-12.78025c2.29444,-3.62388 5.86055,-7.4549 6.52599,-11.86307c0.50247,-3.3286 -2.42634,-7.42604 -4.01893,-10.12468c-4.02819,-6.82575 -8.40102,-13.0236 -14.93024,-17.6758c0,0 -0.76933,-0.54909 -0.65381,-1.38672z" data-paper-data="{&quot;index&quot;:null}" fill="#080000" fill-rule="nonzero" stroke="none" stroke-width="0.5" stroke-linecap="butt"/><path d="M554.09446,148.92532c6.52923,4.65221 10.92664,10.87831 14.95482,17.70405c1.59259,2.6986 4.52415,6.81255 4.0217,10.14114c-0.66543,4.40814 -4.23591,8.25961 -6.53034,11.88349c-3.2536,5.13949 -5.94943,9.66418 -11.33072,12.80245c-1.26787,0.73938 -2.36315,1.90878 -3.78856,2.25858c-4.66249,1.14422 -9.95649,0.32244 -14.71418,0.73702c-6.79817,0.59241 -14.05125,1.88303 -18.29948,-4.57015c-5.59958,-8.25302 -7.26723,-17.23796 -6.41191,-27.01944c0.27647,-3.16179 0.52984,-7.45781 1.78664,-10.38711c2.51278,-5.85674 8.29439,-9.19953 13.49377,-12.26465c4.9655,-2.92726 9.88656,-5.84166 15.18565,-8.13355c1.26573,-0.54744 4.06127,-2.6503 5.44206,-1.99444c1.4308,0.67962 1.98069,2.8358 2.81192,4.02718c0.82537,1.18299 1.76364,2.32334 2.72321,3.42789c-0.11554,0.83762 0.65548,1.38756 0.65548,1.38756z" data-paper-data="{&quot;noHover&quot;:false,&quot;origItem&quot;:[&quot;Path&quot;,{&quot;applyMatrix&quot;:true,&quot;segments&quot;:[[[297.58827,89.48717],[0.66043,0.52295],[-1.43347,0.2647]],[[293.273,90.08651],[1.43289,-0.10983],[-1.44305,0.11061]],[[288.39778,90.45861],[1.30718,-0.88414],[-1.26148,0.85323]],[[287.36052,96.13283],[0.17056,-1.36327],[-0.71408,5.70749]],[[286.66667,113.25695],[0,-5.74266],[0,6.01312]],[[290.35873,131.01313],[-3.75518,-5.11979],[1.8782,2.56072]],[[298.35761,137.78829],[-2.5737,-1.83699],[7.96215,5.68303]],[[324.74561,145.947],[-9.91619,0.63019],[7.68777,-0.38104]],[[337.9009,132.57163],[-2.93108,6.1342],[2.05132,-4.29303]],[[344.70331,119.59411],[-1.37698,4.58048],[0.42097,-1.40035]],[[344.68132,115.2074],[-0.0069,1.46224],[0.02929,-6.20628]],[[339.43573,99.03331],[2.76479,5.39271],[-1.9493,-3.80268]],[[332.55614,87.4303],[3.44661,2.8014],[-2.60252,-2.11533]],[[321.83333,85.75695],[3.12183,-0.00146],[-7.89622,0.00369]],[[299.10921,89.62767],[7.2962,-3.24989],[0,0]]],&quot;closed&quot;:true}],&quot;index&quot;:null}" fill="#ffffff" fill-rule="nonzero" stroke="none" stroke-width="0.5" stroke-linecap="butt"/><path d="M519.55252,158.76839c1.79077,-1.05569 4.09834,-0.45979 5.15402,1.33098c1.05569,1.79077 0.45978,4.09835 -1.33101,5.15404c-1.79077,1.05569 -4.09832,0.4598 -5.15403,-1.331c-1.05569,-1.79077 -0.45978,-4.09832 1.331,-5.15403z" data-paper-data="{&quot;index&quot;:null}" fill="#000000" fill-rule="nonzero" stroke="none" stroke-width="0.5" stroke-linecap="butt"/><path d="M510.79117,133.81595c1.79077,-1.05569 4.09834,-0.45979 5.15404,1.33101c1.05569,1.79077 0.45977,4.09832 -1.331,5.15403c-1.79079,1.05571 -4.09834,0.45979 -5.15402,-1.33098c-1.05569,-1.79077 -0.45979,-4.09834 1.33101,-5.15404z" data-paper-data="{&quot;index&quot;:null}" fill="#000000" fill-rule="nonzero" stroke="none" stroke-width="0.5" stroke-linecap="butt"/><path d="M548.21748,30.53374c0.56088,0.95141 0.17089,1.65727 -0.19598,2.05026c-1.97434,11.28636 -0.01419,23.43118 0.67718,34.81944c-0.69656,12.10052 -1.30192,24.19601 -2.50354,36.2574c-0.68656,6.89133 -2.41144,14.47044 -1.90717,21.3729c0,0 0.12115,1.75235 -1.63122,1.87349c-1.75234,0.12117 -1.87349,-1.63121 -1.87349,-1.63121c-0.46921,-7.13413 1.20693,-14.8449 1.91613,-21.96348c1.1901,-11.94552 1.76474,-23.92224 2.48623,-35.90433c-0.74099,-11.85131 -2.71292,-24.42636 -0.49538,-36.1393l1.12208,-1.35633c0,0 1.51316,-0.89204 2.40522,0.62113z" data-paper-data="{&quot;index&quot;:null}" fill="#000000" fill-rule="nonzero" stroke="none" stroke-width="0.5" stroke-linecap="butt"/><path d="M654.37094,191.59332c-1.02922,1.42342 -2.45264,0.3942 -2.45264,0.3942l-2.68488,-1.94131c-13.31795,-9.62959 -26.62011,-18.82568 -40.62201,-27.43387c-5.72812,-3.52485 -11.88691,-6.35649 -17.88054,-9.40447c-11.31243,-5.75278 -22.59749,-11.36887 -34.44124,-15.85637c0,0 -1.64186,-0.62433 -1.01752,-2.26618c0.62434,-1.64185 2.26618,-1.01752 2.26618,-1.01752c11.95266,4.56318 23.35704,10.19707 34.78502,16.00863c6.07943,3.09165 12.31494,5.97257 18.12799,9.54314c14.0759,8.65368 27.45242,17.89942 40.84055,27.57976l2.68487,1.9413c0,0 1.42342,1.02922 0.3942,2.45264z" data-paper-data="{&quot;index&quot;:null}" fill="#000000" fill-rule="nonzero" stroke="none" stroke-width="0.5" stroke-linecap="butt"/><path d="M510.55885,103.37348c-0.77915,-1.13437 -1.57898,-2.28067 -1.56257,-3.67048c0.01954,-1.65295 1.28827,-1.94466 2.52924,-2.67623c3.16439,-1.86547 7.0315,-1.67378 10.19366,0.27069c7.04643,4.58329 9.83295,12.63922 10.95932,20.56532c0.7265,2.70617 1.84288,5.37762 1.16753,8.20029c-0.2466,1.03068 -0.91656,1.68641 -1.60302,2.35036c-0.46099,0.44588 -0.54455,1.16608 -0.89522,1.70307c-1.75443,2.68667 -4.39145,4.91438 -7.11728,6.5213c-0.7581,0.44692 -2.28231,1.73915 -3.17734,1.78816c-1.22747,0.06722 -2.7312,-2.49251 -3.04284,-3.50902c-1.35929,-4.43388 -2.67494,-8.83039 -3.22274,-13.48185c-0.74025,-6.28647 -2.39086,-12.10946 -4.22876,-18.0616z" fill="#000000" fill-rule="nonzero" stroke="none" stroke-width="0.5" stroke-linecap="butt"/><path d="M524.42052,150.85814c0.18568,-0.10946 0.34477,-0.11604 0.47327,-0.07815c0.15524,-0.09472 0.30851,-0.19016 0.45996,-0.28636c-0.3237,-0.42231 -0.64704,-0.84492 -0.96998,-1.2679c0,0 -0.37522,-0.49143 0.11622,-0.86665c0.49143,-0.37522 0.86665,0.1162 0.86665,0.1162c0.33953,0.44469 0.6795,0.889 1.01989,1.33296c1.85464,-1.28348 3.47404,-2.68644 5.2223,-4.19241c2.8273,-2.43549 6.91991,-4.0986 10.14214,-5.99817c1.29536,-0.7636 2.95727,-2.09323 4.45587,-2.35119c1.70634,-0.29372 4.92088,0.81648 6.19853,1.89316c1.0491,0.88408 1.65318,2.30406 2.56862,3.27894c1.66711,1.77537 3.40006,3.56242 5.0938,5.34056c5.86605,6.1584 10.77594,13.30497 16.15088,19.90863c1.38198,2.54087 3.18511,5.02953 2.50462,8.09079c-0.27421,1.23355 -1.63859,2.43864 -2.31459,3.48331c-2.19743,3.39596 -4.59597,6.58444 -6.67555,10.06355c-1.19902,2.00484 -2.44513,4.23482 -4.47577,5.44681c-0.75125,0.44839 -1.7648,1.27807 -2.73374,0.88667c-0.36891,-0.14901 -0.45626,-0.65207 -0.69427,-0.97087c-0.70824,-0.94869 -1.42881,-1.95009 -2.20967,-2.83939c-2.05962,-2.34565 -4.40512,-4.42915 -6.392,-6.84853c-5.07813,-6.18964 -10.23314,-12.36088 -15.38154,-18.50098c-3.9399,-4.98732 -7.86349,-9.98256 -11.73646,-15.02069c-0.31604,0.20214 -0.63946,0.40112 -0.97161,0.59694l-0.93622,-0.37061c0,0 -0.31399,-0.53264 0.21863,-0.84664z" fill="#000000" fill-rule="nonzero" stroke="none" stroke-width="0.5" stroke-linecap="butt"/><path d="M435.984,138.18184c-0.50784,-0.86145 0.35361,-1.36928 0.35361,-1.36928l0.11394,-0.06717c2.1157,-1.24724 4.24226,-2.81124 6.48102,-3.81321c2.35512,-1.05407 5.16866,-0.89572 7.65162,-1.7358c1.35568,-0.45867 2.52912,-1.28951 3.93028,-1.67761c2.75052,-0.73667 8.53338,-5.30048 11.45683,-3.13511c1.61192,1.19394 1.19864,4.45209 0.87342,6.08379c-0.81193,4.07364 -1.76012,9.93037 -4.4948,13.41534l0.08468,0.02972l-0.01177,0.03355l0.03144,-0.00943c2.38367,-0.73407 5.96392,-2.90425 8.48179,-2.60003c0.75544,0.09127 1.71148,0.34927 2.03255,1.03916c0.37475,0.80523 -0.1545,1.77243 -0.31771,2.64547c-0.53683,2.87136 -1.99517,5.662 -2.85729,8.44813c-0.31928,1.03053 -0.49605,2.45826 -1.11572,3.47587c1.99142,-0.6741 5.55222,-1.74817 7.49364,-1.92323c0.94186,-0.08493 2.09054,-0.322 2.82367,0.27537c0.66876,0.54492 0.68686,3.95137 0.59316,4.72516c-0.43604,3.60048 -2.50903,7.09408 -4.43475,10.07342c-0.61397,0.9499 -1.05853,1.90147 -1.69247,2.69871c2.39085,-1.09689 6.08704,-2.72538 7.52266,0.12272c0.29764,0.59047 -0.01977,1.32348 -0.07769,1.98218c-0.2741,3.11659 -1.34144,6.18548 -2.12102,9.20253c-0.54163,1.74994 -1.12111,3.1642 -1.92287,4.74067c-0.1019,0.20034 0.2916,-0.35928 0.49196,-0.46115c0.98526,-0.50092 2.08864,-0.74525 3.06852,-1.25664c2.05722,-1.07365 4.92119,-3.73177 7.44978,-2.97258c1.459,0.43804 1.50754,3.90453 1.50338,4.83877c-0.02121,4.75278 -2.6073,10.14624 -4.11523,14.62724c-0.30343,0.87432 -0.70671,1.71681 -0.95218,2.60857c0.05347,-0.17523 0.15309,-0.45033 0.2624,-0.52899c0.53323,-0.38378 1.1934,-0.55082 1.77724,-0.85206c1.17226,-0.60483 2.31705,-1.26188 3.46244,-1.91619c3.28711,-1.87784 6.69923,-4.68124 10.23963,-6.01283c4.82769,-1.81577 2.75479,4.56562 1.94194,6.59854c-0.74662,1.86724 -1.74467,3.50647 -2.75101,5.23979c-3.01638,4.85909 -6.28792,9.56319 -8.6846,14.758c-2.58146,5.59531 -3.45762,10.54113 -7.92402,15.10024c0,0 -0.69981,0.71433 -1.41414,0.01453c-0.71433,-0.69981 -0.01453,-1.41414 -0.01453,-1.41414c4.27332,-4.36202 5.05984,-9.15888 7.53632,-14.53776c2.4238,-5.26445 5.73068,-10.0293 8.78637,-14.95049c0.61742,-1.06371 1.30534,-2.08936 1.85391,-3.19017c0.86658,-1.73896 1.7432,-4.06794 2.13249,-5.90417c0.05761,-0.27174 -0.56478,0.05529 -0.81419,0.17756c-0.53361,0.26162 -1.0151,0.6184 -1.52543,0.92297c-1.05998,0.63262 -2.12675,1.25377 -3.19015,1.88064c-2.88361,1.69993 -5.7416,3.47518 -8.71798,5.01085c-0.36347,0.18753 -3.54969,1.83866 -4.01181,1.42791c-1.48744,-1.32201 -0.32424,-3.7407 0.11176,-5.07068c1.37839,-4.09605 3.25312,-8.50783 3.86356,-12.76917c0.06274,-0.43797 0.20508,-4.24274 -0.19374,-4.24278c-2.34523,-0.00021 -5.4712,2.94613 -7.60027,3.80077c-0.77177,0.3098 -3.44455,1.36801 -4.14036,0.31502c-0.52524,-0.79487 0.22133,-1.8954 0.42035,-2.8271c0.00092,-0.00432 1.12126,-3.61993 1.14645,-3.70119c0.59512,-2.30585 1.3782,-4.63928 1.80453,-6.98167c0.02214,-0.12162 0.96375,-3.28326 -0.0507,-3.29181c-1.80482,-0.01522 -3.78781,1.11811 -5.38017,1.80503l-0.05241,0.00406l0.00399,0.01261l-1.66346,0.52529c-0.43902,0.14891 -0.93701,-0.02453 -1.18175,-0.43968c-0.19457,-0.33004 -0.17798,-0.72617 0.00927,-1.03148l1.00272,-1.70735l0.17716,0.10404c1.8284,-3.85934 4.44039,-7.24625 5.67967,-11.47746c0.19001,-0.64874 1.01113,-3.8039 0.46107,-4.28151c-0.75995,-0.65987 -1.94855,0.51162 -2.90147,0.83542c-1.97627,0.67151 -3.8726,1.22857 -5.96369,1.36073c-0.69977,0.04422 -1.71659,0.64942 -2.10252,0.06402c-0.53361,-0.8094 0.10196,-1.93852 0.23351,-2.89903c0.08103,-0.59162 0.84509,-2.95242 0.94636,-3.27958c0.89496,-2.88791 3.12848,-6.56395 3.31662,-9.56865c0.06944,-1.1089 -2.18344,0.44149 -3.23771,0.79219c-1.66684,0.55446 -3.24325,1.22977 -4.92674,1.7491l-0.00374,0.0004l0.00021,0.00068l-1.89572,0.56892c-0.43582,0.14116 -0.92644,-0.03292 -1.16877,-0.44399c-0.15703,-0.26637 -0.17651,-0.57576 -0.07976,-0.84574l0.65991,-1.88041l0.17768,0.06235c1.05532,-3.81148 2.83057,-7.35549 3.65595,-11.28844c0.23025,-1.09714 1.61605,-4.98296 0.34408,-6.07614c-0.44702,-0.3842 -1.71336,0.27283 -2.02077,0.37369c-2.66495,0.87449 -4.97216,2.38007 -7.66334,3.12653c-1.35054,0.36202 -2.46183,1.17712 -3.76737,1.62558c-2.4011,0.82476 -5.28434,0.64825 -7.52689,1.68515c-2.16679,1.00188 -4.2204,2.49546 -6.27954,3.70935l-0.11394,0.06717c0,0 -0.86145,0.50784 -1.36928,-0.35361z" fill="#080000" fill-rule="nonzero" stroke="none" stroke-width="0.5" stroke-linecap="butt"/></g></g></g></svg>