<svg version="1.1" xmlns="http://www.w3.org/2000/svg" xmlns:xlink="http://www.w3.org/1999/xlink" width="1733.09309" height="836.33634" viewBox="0,0,1733.09309,836.33634"><g transform="translate(546.54655,238.16817)"><g data-paper-data="{&quot;isPaintingLayer&quot;:true}" stroke-linejoin="miter" stroke-miterlimit="10" stroke-dasharray="" stroke-dashoffset="0" style="mix-blend-mode: normal"><path d="M-546.54655,598.16817v-836.33634h1733.09309v836.33634z" fill="none" fill-rule="nonzero" stroke="#f00000" stroke-width="0" stroke-linecap="butt"/><g><path d="M347.08609,254.22464l41.64135,7.84467l2.74215,26.10234l-41.65511,-3.9826z" data-paper-data="{&quot;index&quot;:null}" fill="#cedce9" fill-rule="nonzero" stroke="#000000" stroke-width="1" stroke-linecap="round"/><path d="M348.99866,251.66179c0.49355,-0.92319 1.19549,-3.10282 2.20888,-2.19626c-0.34411,-0.50338 -0.76956,-1.17618 -0.90043,-1.5377c-0.62006,-1.71261 -0.3616,-3.9712 -0.52411,-5.75599c-0.44585,-4.89648 -0.63318,-9.65923 -2.22869,-14.35613c-0.72105,-2.12265 0.84973,-2.77131 -1.48301,-3.34537c-3.93707,-1.21631 -7.57257,-3.64368 -11.56098,-5.14209c-5.40554,-2.03084 -10.50721,-2.70771 -15.84857,-3.87804c-4.43695,-1.38353 -12.57187,0.17609 -17.3541,0.35219c-1.28011,0.04713 -3.51937,0.56353 -4.49924,0.18516c-0.01023,0.41239 -0.01751,0.8106 0.00549,1.06319c0.15287,1.67883 0.30572,3.35764 0.45859,5.0365c0.60809,6.67813 1.50096,14.43039 4.15962,20.8361c2.90739,7.61485 0.50259,16.07246 3.18953,23.75752c1.38019,4.2119 1.21142,8.86472 1.59828,13.19066c0.19626,2.19456 1.43126,4.03453 -0.45982,5.07029c-0.49705,0.27224 1.22456,-0.04509 1.8368,-0.06764c1.53063,-0.05636 3.06137,-0.11273 4.59201,-0.16909c8.57179,-0.31564 17.1436,-0.63128 25.71538,-0.94693c2.02643,-0.07462 9.23838,-0.75772 10.10127,0.07429c-0.00241,-0.16194 0.00098,-0.34548 0.00119,-0.44631c0.00185,-0.89336 -0.10606,-1.38847 0.46346,-2.10659c0.98878,-1.24669 -0.21508,-5.28549 -0.364,-6.92095c-0.57871,-6.35556 -1.15741,-12.71111 -1.73611,-19.0667c0,0 -0.13103,-1.43899 1.70576,-1.50662c0.07541,-0.00279 0.1479,-0.00302 0.21763,-0.00092c0.12344,-0.69476 0.31832,-1.39916 0.70508,-2.12257zM351.77987,274.22334c0.34934,3.83656 1.66784,8.70785 -1.81781,11.46503c-1.99741,1.57998 -8.92991,0.84223 -11.79579,0.94775c-8.57181,0.31564 -17.1436,0.63128 -25.7154,0.94692c-0.97882,0.03605 -5.78926,0.71048 -6.42884,0.23673c-6.46014,-4.78512 -2.63717,-14.39342 -4.95144,-20.44185c-2.62738,-7.51475 0.26756,-16.38694 -3.13901,-23.62535c-2.74015,-6.60211 -3.70573,-14.64189 -4.33292,-21.53008c-0.08997,-0.98803 -1.58463,-6.87818 -0.68788,-7.55473c2.57155,-1.94012 4.89283,-1.62398 8.13463,-1.74337c5.86374,-0.21592 12.77907,-1.28761 18.52924,-0.24725c5.47449,1.19951 10.92684,1.98131 16.34399,4.0165c2.18521,0.82098 5.08711,1.68781 7.09256,2.77888c1.31227,0.71395 2.45454,2.12929 4.08703,2.2513c4.36611,1.07444 3.17484,3.3505 4.1295,5.95667c1.69942,4.63926 1.78666,9.50157 2.22869,14.35613c0.16302,1.79034 1.5333,5.2497 1.32104,6.52474c-0.36951,2.21956 -2.64673,3.5823 -3.16335,5.73935c-0.3791,1.58281 0.07962,3.21923 -0.91903,5.08723c-0.07582,0.14181 -0.15163,0.2836 -0.22744,0.42544c0.43737,4.80334 0.87473,9.60668 1.3121,14.40999z" data-paper-data="{&quot;index&quot;:null}" fill="#000000" fill-rule="nonzero" stroke="none" stroke-width="1" stroke-linecap="butt"/><path d="M348.38356,253.80111c-0.06976,-0.00212 -0.14227,-0.0017 -0.21765,0.00108c-1.8368,0.06764 -1.70826,1.5138 -1.70826,1.5138c0.57871,6.35556 1.12395,12.74633 1.70267,19.10192c0.14891,1.63546 1.34457,5.67828 0.35579,6.92495c-0.56956,0.71809 -0.46459,1.21447 -0.46644,2.10781c-0.00022,0.10084 -0.00407,0.28452 -0.00169,0.44649c-0.8629,-0.83203 -8.09203,-0.1439 -10.11846,-0.06928c-8.57181,0.31564 -17.19485,0.63016 -25.76667,0.9458c-1.53062,0.05637 -3.06901,0.11053 -4.59967,0.16691c-0.61226,0.02254 -2.3367,0.33889 -1.83965,0.06666c1.89109,-1.03578 0.65197,-2.87732 0.45573,-5.07185c-0.3869,-4.32593 -0.24026,-8.99107 -1.62043,-13.20297c-2.68695,-7.68509 -0.3069,-16.21827 -3.21429,-23.83312c-2.65868,-6.40569 -3.52247,-14.19064 -4.13054,-20.86882c-0.15287,-1.67883 -0.30021,-3.3608 -0.45308,-5.03964c-0.02301,-0.25262 -0.01454,-0.6514 -0.00435,-1.06376c0.97987,0.37837 3.22539,-0.14095 4.5055,-0.18808c4.78224,-0.1761 12.94833,-1.74365 17.3853,-0.3601c5.34132,1.17032 10.47816,1.84888 15.88368,3.8797c3.98844,1.49845 7.65229,3.93555 11.58933,5.15189c2.33275,0.57406 0.76934,1.22693 1.49041,3.3496c1.59552,4.69688 1.8114,9.48957 2.25724,14.38602c0.1625,1.78475 -0.08953,4.06325 0.53053,5.77587c0.13091,0.36148 0.55685,1.04001 0.90094,1.54338c-1.01335,-0.90658 -1.71562,1.28162 -2.20917,2.20479c-0.38676,0.72345 -0.58328,1.43631 -0.70674,2.13105z" data-paper-data="{&quot;noHover&quot;:false,&quot;origItem&quot;:[&quot;Path&quot;,{&quot;applyMatrix&quot;:true,&quot;segments&quot;:[[[579.60736,595.76373],[0.95609,-0.20262],[0.00646,0.07548]],[[579.61718,596],[0,-0.08208],[0,2]],[[577.61718,598],[0,0],[-8.83333,0]],[[551.11718,598],[8.83333,0],[-2.27308,0]],[[541.51161,598.28885],[1.67648,-1.19621],[-0.96568,0.68904]],[[538.61718,599],[1.23739,-0.09027],[-0.13966,0.01019]],[[537.99901,599.04541],[0.22447,-0.0134],[1.19653,0.85421]],[[538.61718,610],[0,-2.20646],[0,9.33333]],[[538.61718,638],[0,-9.33333],[0,1.66667]],[[538.61718,643],[0,-1.66667],[0,0.66667]],[[538.61718,645],[-0.35177,0.56631],[1.33831,-2.15456]],[[545.61718,644],[-3.04994,0.00386],[6.01206,-0.00761]],[[563.97058,644.43107],[-5.90478,-1.08158],[10.78253,2.15651]],[[597.04254,645.54479],[-10.6965,-2.40266],[9.00888,2.25222]],[[626.11718,648],[-9.28168,0],[2.33333,0]],[[633.11718,648],[-2.33333,0],[0.35109,0]],[[634.59021,647.90091],[-0.5707,0.05184],[-0.57412,-1.02596]],[[634.61718,643],[0,1.39387],[0,-5.20707]],[[634.21982,624.13246],[2.14282,4.67827],[-1.8936,-5.6808]],[[628.03948,607.31672],[3.08887,5.66543],[-2.2791,-4.1802]],[[620.32688,595.27881],[1.8857,4.15235],[-0.91417,-2.47477]],[[615.61718,594],[2.9771,0.57275],[-6.58756,-1.26734]],[[595.61718,593],[6.8054,0],[-2.48058,0]],[[587.61718,593],[2.40395,0.50364],[-0.50743,-0.10631]],[[585.44122,592.1748],[0.71481,0.32365],[1.30749,1.01011]],[[582.51161,594.78885],[1.25365,-0.62682],[-0.98239,0.4912]]],&quot;closed&quot;:true}],&quot;index&quot;:null}" fill="#484848" fill-rule="nonzero" stroke="none" stroke-width="1" stroke-linecap="butt"/><path d="M339.81271,233.87609c-0.62075,0.02286 -1.32796,0.54666 -1.84202,0.31748c-0.02553,0.63549 -0.14908,1.2783 -0.4583,1.85672c-1.19224,2.2301 -5.85598,6.84913 -9.16802,7.39043c-0.2694,0.04403 -0.37104,-0.57045 -0.60318,-0.4572c-0.77247,0.37681 0.88256,3.15486 0.68384,3.48873c-0.045,0.07556 -0.12221,0.11471 -0.21883,0.13281c0.30295,-0.02635 0.59587,-0.05107 0.781,-0.05789c0.65064,-0.02396 1.35363,-0.02963 1.91482,-0.27902c4.95294,-2.12654 9.54084,-5.47192 9.04175,-10.95309c0,0 -0.05887,-0.64683 0.45583,-1.09355c0.09017,-0.14598 0.2013,-0.26101 0.33676,-0.34036c-0.35215,-0.00615 -0.71064,-0.01293 -0.92366,-0.00509zM327.15038,246.61483c-0.36713,0.11206 0.25446,0.0601 0.9045,0.00342c-0.28405,0.00359 -0.65364,-0.08002 -0.9045,-0.00342zM332.77928,248.78181c-4.40502,1.95751 -11.44903,-1.8595 -8.71171,-5.663c2.58269,-3.58863 8.30313,-4.98228 10.04184,-8.23456c0.58742,-1.09872 0.84429,-2.39884 1.91118,-3.24275c1.69071,-1.33734 7.91038,-1.00116 8.13166,1.42911c0.15934,1.74993 -0.48664,2.63855 -0.33828,4.2677l0.06551,0.71949c0,0 0.07519,0.82593 -0.68706,1.25575c-1.38795,4.32795 -5.65135,7.22937 -10.41302,9.46824z" data-paper-data="{&quot;index&quot;:null}" fill="#000000" fill-rule="nonzero" stroke="none" stroke-width="1" stroke-linecap="butt"/><path d="M340.79304,233.82551c-0.13544,0.07932 -0.24657,0.19442 -0.33675,0.34039c-0.5147,0.44672 -0.45161,1.09633 -0.45161,1.09633c0.49908,5.48114 -4.18626,8.94478 -9.13921,11.07129c-0.56117,0.24939 -1.27756,0.24927 -1.92819,0.27321c-0.18511,0.00682 -0.48247,0.02901 -0.78546,0.05537c0.09669,-0.01808 0.17439,-0.05688 0.21941,-0.13249c0.19871,-0.3339 -1.48269,-3.13556 -0.71026,-3.51236c0.23216,-0.11325 0.48887,0.42694 0.75829,0.38288c3.31204,-0.54128 7.94811,-5.18077 9.14036,-7.41088c0.30925,-0.57842 0.42498,-1.22464 0.45049,-1.86013c0.51408,0.22915 1.23315,-0.28915 1.85388,-0.31201c0.213,-0.00784 0.5769,0.00208 0.92905,0.00828z" data-paper-data="{&quot;noHover&quot;:false,&quot;origItem&quot;:[&quot;Path&quot;,{&quot;applyMatrix&quot;:true,&quot;segments&quot;:[[[607.563,601.99816],[0.02649,0.38155],[-0.10299,0.15484]],[[607.10872,602.39727],[0.1976,-0.11227],[-0.59254,0.60273]],[[605.61718,603],[0,0],[-7.618,0]],[[590.90604,613.89443],[2.69308,-5.58508],[-0.31682,0.63364]],[[590.61718,616],[0,-0.70843],[0,0.20156]],[[590.57685,616.85325],[0.02106,-0.33136],[0.02013,-0.10671]],[[590.74964,616.60263],[-0.10238,0.05628],[0.45234,-0.24865]],[[595.61718,617],[-0.48256,0.87548],[0.14503,-0.26312]],[[594.95308,616.3906],[-0.04725,0.29671],[0.58086,-3.64773]],[[604.72276,605.71115],[-3.02833,1.51416],[0.78545,-0.39273]],[[607.27135,605.03032],[-0.87898,0.0905],[-0.34365,-0.53523]],[[607.61718,603],[0,0.6759],[0,-0.23192]]],&quot;closed&quot;:true}],&quot;index&quot;:null}" fill="#ffffff" fill-rule="nonzero" stroke="none" stroke-width="1" stroke-linecap="butt"/><path d="M353.728,327.16892l40.65387,-7.01349l2.01376,26.12916l-39.93923,10.84873z" fill="#cedce9" fill-rule="nonzero" stroke="#000000" stroke-width="1" stroke-linecap="round"/><path d="M358.82125,359.53867c-0.51547,-0.69018 -0.83689,-1.37558 -1.08561,-2.05663c-0.06889,0.0072 -0.14092,0.01229 -0.21634,0.01506c-1.8368,0.06764 -1.96781,-1.37135 -1.96781,-1.37135c-0.5787,-6.35558 -1.15741,-12.71114 -1.73611,-19.0667c-0.14891,-1.63546 0.31386,-5.73563 -0.89459,-6.90141c-0.69607,-0.67151 -0.67873,-1.17123 -0.84271,-2.05849c-0.01852,-0.10015 -0.0552,-0.28219 -0.08219,-0.44323c-0.70612,0.8898 -7.99383,0.74061 -10.02028,0.81524c-8.57181,0.31564 -17.14363,0.63128 -25.71538,0.94693c-1.53065,0.05636 -3.06137,0.11274 -4.59201,0.16909c-0.61224,0.02254 -2.37994,-0.1663 -1.8368,0.06764c2.06645,0.89004 1.17364,2.80838 1.37701,5.00266c0.40087,4.32542 1.41302,8.93476 0.80653,13.21979c-1.27413,7.83094 2.64963,16.0555 1.14379,23.83286c-1.47824,6.55804 -0.95813,14.32401 -0.35005,21.00216c0.15287,1.67886 0.30573,3.35765 0.45859,5.0365c0.023,0.25259 0.10252,0.64761 0.18752,1.05648c0.90466,-0.44776 3.22267,-0.09919 4.50278,-0.14633c4.78224,-0.1761 13.14585,0.776 17.30203,-0.92396c5.09324,-1.55455 10.03796,-2.60138 15.03878,-5.01542c3.68981,-1.78114 6.86043,-4.45912 10.55042,-5.95632c2.21296,-0.74145 0.53495,-1.27047 0.86591,-3.43187c0.73236,-4.78261 0.05399,-9.52732 -0.39186,-14.42378c-0.16252,-1.78481 -0.82919,-4.00931 -0.52411,-5.75599c0.0644,-0.36872 0.36487,-1.06824 0.61532,-1.59352c-0.84208,0.97488 -1.93494,-1.13866 -2.59274,-2.01945zM357.48894,336.92369c0.43737,4.80334 0.87473,9.60668 1.3121,14.40999c0.10106,0.1353 0.20208,0.2706 0.30314,0.4059c1.331,1.78222 1.17236,3.44136 1.8362,4.98577c0.90468,2.10472 3.41402,3.29118 4.18389,5.4688c0.44227,1.25094 -0.29097,4.78777 -0.12796,6.5781c0.44202,4.85457 1.23788,9.69079 0.39184,14.42377c-0.47527,2.6588 1.12116,4.83223 -3.02076,6.21996c-1.59942,0.24099 -2.47718,1.73073 -3.65111,2.53624c-1.79404,1.23099 -4.51922,2.30503 -6.54081,3.28091c-5.01154,2.4192 -10.28557,3.596 -15.50575,5.18932c-5.52293,1.4555 -12.58657,0.89854 -18.45028,1.11446c-3.24181,0.11937 -5.49021,0.60378 -8.3967,-1.13462c-1.01354,-0.60621 -0.59793,-6.56669 -0.6879,-7.55472c-0.6272,-6.88818 -1.12733,-14.94511 0.39624,-21.70422c2.07005,-7.44007 -2.41588,-16.04046 -1.16997,-23.69785c1.201,-6.17788 -4.34031,-15.44136 1.20812,-20.66867c0.54934,-0.51753 5.45003,-0.20069 6.42884,-0.23673c8.57181,-0.31564 17.1436,-0.63128 25.7154,-0.94692c2.86588,-0.10553 9.61814,-1.3472 11.88896,0.07561c3.96276,2.48289 3.53723,7.41842 3.88655,11.25498z" data-paper-data="{&quot;index&quot;:null}" fill="#000000" fill-rule="nonzero" stroke="none" stroke-width="1" stroke-linecap="butt"/><path d="M357.822,357.45872c0.24871,0.68105 0.57332,1.37471 1.0888,2.06494c0.6578,0.88079 1.75255,3.00282 2.59457,2.02792c-0.25043,0.52525 -0.55038,1.23051 -0.61479,1.5992c-0.30507,1.74667 0.35883,3.99145 0.52134,5.77621c0.44585,4.89644 1.10131,9.67296 0.36892,14.45555c-0.33097,2.1614 1.34049,2.69514 -0.87249,3.43659c-3.68999,1.49718 -6.88699,4.18695 -10.5768,5.96812c-5.0008,2.41403 -9.98013,3.4651 -15.07335,5.01966c-4.1562,1.69999 -12.55223,0.74228 -17.33447,0.91838c-1.28011,0.04713 -3.60488,-0.30389 -4.50954,0.14388c-0.08498,-0.40885 -0.16573,-0.80436 -0.18873,-1.05696c-0.15286,-1.67884 -0.31177,-3.36039 -0.46462,-5.03921c-0.60807,-6.67818 -1.16302,-14.47451 0.31522,-21.03254c1.50585,-7.77737 -2.40708,-16.07882 -1.13292,-23.90977c0.6065,-4.28505 -0.38589,-8.90826 -0.78675,-13.23367c-0.20336,-2.19428 0.69322,-4.11446 -1.37322,-5.0045c-0.54315,-0.23394 1.22721,-0.04628 1.83945,-0.06883c1.53065,-0.05636 3.06859,-0.11548 4.59923,-0.17184c8.57181,-0.31564 17.1943,-0.63615 25.76613,-0.95181c2.02642,-0.07462 9.33214,0.07828 10.03825,-0.81152c0.02703,0.16106 0.0642,0.34322 0.08271,0.44338c0.16399,0.88723 0.14982,1.38798 0.84589,2.05947c1.20845,1.16578 0.75455,5.26933 0.90346,6.90479c0.57871,6.35559 1.19701,12.74367 1.77572,19.09924c0,0 0.13483,1.44594 1.97162,1.37831c0.07539,-0.00277 0.14749,-0.00768 0.21641,-0.01491z" data-paper-data="{&quot;noHover&quot;:false,&quot;origItem&quot;:[&quot;Path&quot;,{&quot;applyMatrix&quot;:true,&quot;segments&quot;:[[[579.60736,595.76373],[0.95609,-0.20262],[0.00646,0.07548]],[[579.61718,596],[0,-0.08208],[0,2]],[[577.61718,598],[0,0],[-8.83333,0]],[[551.11718,598],[8.83333,0],[-2.27308,0]],[[541.51161,598.28885],[1.67648,-1.19621],[-0.96568,0.68904]],[[538.61718,599],[1.23739,-0.09027],[-0.13966,0.01019]],[[537.99901,599.04541],[0.22447,-0.0134],[1.19653,0.85421]],[[538.61718,610],[0,-2.20646],[0,9.33333]],[[538.61718,638],[0,-9.33333],[0,1.66667]],[[538.61718,643],[0,-1.66667],[0,0.66667]],[[538.61718,645],[-0.35177,0.56631],[1.33831,-2.15456]],[[545.61718,644],[-3.04994,0.00386],[6.01206,-0.00761]],[[563.97058,644.43107],[-5.90478,-1.08158],[10.78253,2.15651]],[[597.04254,645.54479],[-10.6965,-2.40266],[9.00888,2.25222]],[[626.11718,648],[-9.28168,0],[2.33333,0]],[[633.11718,648],[-2.33333,0],[0.35109,0]],[[634.59021,647.90091],[-0.5707,0.05184],[-0.57412,-1.02596]],[[634.61718,643],[0,1.39387],[0,-5.20707]],[[634.21982,624.13246],[2.14282,4.67827],[-1.8936,-5.6808]],[[628.03948,607.31672],[3.08887,5.66543],[-2.2791,-4.1802]],[[620.32688,595.27881],[1.8857,4.15235],[-0.91417,-2.47477]],[[615.61718,594],[2.9771,0.57275],[-6.58756,-1.26734]],[[595.61718,593],[6.8054,0],[-2.48058,0]],[[587.61718,593],[2.40395,0.50364],[-0.50743,-0.10631]],[[585.44122,592.1748],[0.71481,0.32365],[1.30749,1.01011]],[[582.51161,594.78885],[1.25365,-0.62682],[-0.98239,0.4912]]],&quot;closed&quot;:true}],&quot;index&quot;:null}" fill="#484848" fill-rule="nonzero" stroke="none" stroke-width="1" stroke-linecap="butt"/><path d="M352.92497,377.87976c0.213,-0.00784 0.56789,-0.04089 0.91655,-0.07287c-0.14895,-0.06888 -0.28025,-0.17498 -0.3963,-0.31338c-0.59233,-0.40598 -0.65126,-1.05278 -0.65126,-1.05278c-0.49908,-5.48115 -5.66349,-8.46743 -10.96932,-10.21621c-0.60272,-0.20653 -1.30206,-0.16057 -1.95269,-0.1366c-0.18512,0.00682 -0.48058,0.00377 -0.78628,-0.00017c0.09925,0.01089 0.18306,0.04411 0.24148,0.11585c0.258,0.31705 -0.88176,3.19802 -0.04606,3.5156c0.25114,0.09545 0.24057,-0.52236 0.51617,-0.49842c3.38816,0.29458 8.85908,4.54043 10.44812,6.6681c0.41213,0.55185 0.65152,1.18131 0.79222,1.81068c0.46901,-0.26536 1.26657,0.20301 1.88731,0.18016zM338.93294,366.08576c-0.65598,-0.00858 -1.28285,-0.01458 -0.89783,0.06979c0.26311,0.05767 0.61504,-0.05252 0.89783,-0.06979zM343.23314,363.58992c5.13621,1.87439 9.89771,4.44349 12.06192,8.64064c0.83517,0.37102 0.91038,1.19694 0.91038,1.19694l0.06551,0.71949c0.14834,1.62915 0.95127,2.46441 1.1106,4.21436c0.22128,2.43027 -5.89581,3.22074 -7.81793,2.01642c-1.2129,-0.75996 -1.70403,-2.03252 -2.48695,-3.0808c-2.31737,-3.10291 -8.25252,-4.06738 -11.46928,-7.44245c-3.40936,-3.57716 2.89479,-7.8857 7.62565,-6.26461z" data-paper-data="{&quot;index&quot;:null}" fill="#000000" fill-rule="nonzero" stroke="none" stroke-width="1" stroke-linecap="butt"/><path d="M353.90784,377.85812c-0.34864,0.03199 -0.70832,0.06858 -0.92133,0.07641c-0.62075,0.02286 -1.42906,-0.43921 -1.89811,-0.17384c-0.14067,-0.62938 -0.3729,-1.26278 -0.78509,-1.81462c-1.58906,-2.12769 -7.03622,-6.39588 -10.42436,-6.69044c-0.27561,-0.02399 -0.43256,0.53143 -0.68373,0.43598c-0.83566,-0.3176 0.32599,-3.22395 0.06803,-3.54102c-0.05843,-0.07178 -0.14266,-0.10463 -0.24197,-0.1155c0.30574,0.00394 0.60515,0.00416 0.79027,-0.00265c0.65064,-0.02396 1.36218,-0.07668 1.96489,0.12986c5.30583,1.74875 10.58851,4.84533 11.08758,10.32647c0,0 0.05524,0.6499 0.64758,1.05585c0.1161,0.13839 0.24736,0.24455 0.39629,0.31339z" data-paper-data="{&quot;noHover&quot;:false,&quot;origItem&quot;:[&quot;Path&quot;,{&quot;applyMatrix&quot;:true,&quot;segments&quot;:[[[607.563,601.99816],[0.02649,0.38155],[-0.10299,0.15484]],[[607.10872,602.39727],[0.1976,-0.11227],[-0.59254,0.60273]],[[605.61718,603],[0,0],[-7.618,0]],[[590.90604,613.89443],[2.69308,-5.58508],[-0.31682,0.63364]],[[590.61718,616],[0,-0.70843],[0,0.20156]],[[590.57685,616.85325],[0.02106,-0.33136],[0.02013,-0.10671]],[[590.74964,616.60263],[-0.10238,0.05628],[0.45234,-0.24865]],[[595.61718,617],[-0.48256,0.87548],[0.14503,-0.26312]],[[594.95308,616.3906],[-0.04725,0.29671],[0.58086,-3.64773]],[[604.72276,605.71115],[-3.02833,1.51416],[0.78545,-0.39273]],[[607.27135,605.03032],[-0.87898,0.0905],[-0.34365,-0.53523]],[[607.61718,603],[0,0.6759],[0,-0.23192]]],&quot;closed&quot;:true}],&quot;index&quot;:null}" fill="#ffffff" fill-rule="nonzero" stroke="none" stroke-width="1" stroke-linecap="butt"/><path d="M387.76012,255.70631c0.60214,6.23527 1.1357,12.47281 1.60281,18.71281c-0.51793,-3.11235 -0.90454,-6.24817 -1.15988,-9.40749c-0.28597,-3.1407 -0.43293,-6.24253 -0.44291,-9.30532z" fill="#884f38" fill-rule="evenodd" stroke="none" stroke-width="1" stroke-linecap="butt"/><path d="M355.46422,204.49822l267.58093,-9.68918l-4.63132,80.57888l32.19662,-2.20258l-0.64402,1.99209l-5.45037,103.31102l-15.38601,0.46815l-231.26288,8.51586l-5.72119,-0.51107l-19.45075,1.10992l-15.83863,-173.9465z" fill="#d5d5d5" fill-rule="nonzero" stroke="#000000" stroke-width="1" stroke-linecap="round"/><path d="M396.70022,202.42207l18.2905,185.01037l-42.11304,2.07564l-17.85834,-184.79663z" fill="#65675c" fill-rule="nonzero" stroke="#000000" stroke-width="1" stroke-linecap="round"/><path d="M360.08095,249.53535l106.72659,-4.06126l1.35571,33.01887l-105.37787,4.14281z" fill="#242424" fill-rule="nonzero" stroke="#000000" stroke-width="1" stroke-linecap="round"/><path d="M369.61399,253.38352l90.29745,-3.19382l1.8037,24.3415l-90.66492,4.25716z" fill="#b57047" fill-rule="nonzero" stroke="#000000" stroke-width="1" stroke-linecap="round"/><path d="M411.82984,215.61081l53.88341,-1.98416l2.87644,27.05773l-57.11877,1.5784z" fill="#242424" fill-rule="nonzero" stroke="#000000" stroke-width="1" stroke-linecap="round"/><path d="M417.32545,221.57603l41.70172,-2.06049l0.90733,16.76344l-40.55111,1.09954z" fill="#593f1e" fill-rule="nonzero" stroke="#000000" stroke-width="1" stroke-linecap="round"/><path d="M489.99917,299.04583l2.5717,62.23734l-82.41084,3.69076l-3.84143,-62.58427z" fill="#242424" fill-rule="nonzero" stroke="#000000" stroke-width="1" stroke-linecap="round"/><path d="M480.97934,304.23331l2.98399,53.16761l-66.61061,2.71527l-4.66501,-53.4994z" fill="#593f1e" fill-rule="nonzero" stroke="#000000" stroke-width="1" stroke-linecap="round"/><path d="M555.71227,249.64739l-51.83755,-66.19713l10.35229,-6.41757l55.21698,71.58416l-53.00782,65.98989l1.54239,100.7899l-9.04591,-1.89773l-1.22907,-104.14769z" fill="#838e8a" fill-rule="nonzero" stroke="#000000" stroke-width="1" stroke-linecap="round"/><path d="M615.68448,202.92081l-0.92397,28.3787l-53.09649,1.56152l-4.11324,0.15147l1.2368,-27.2092l0.15804,-0.53072z" fill="#242424" fill-rule="nonzero" stroke="#000000" stroke-width="1" stroke-linecap="round"/><path d="M609.81234,206.41767l-0.01701,20.20933l-43.63604,1.21314l-0.09338,-19.15547z" fill="#593f1e" fill-rule="nonzero" stroke="#000000" stroke-width="1" stroke-linecap="round"/><path d="M619.36692,275.09038l3.63636,-93.20549l12.33423,-5.04707l-6.79102,97.65209z" fill="#838e8a" fill-rule="nonzero" stroke="#000000" stroke-width="1" stroke-linecap="round"/><path d="M659.61475,259.89527l-5.74519,129.53414l-10.00276,-1.07514l7.69416,-126.25967z" fill="#838e8a" fill-rule="nonzero" stroke="#000000" stroke-width="1" stroke-linecap="round"/><path d="M624.89189,295.67433c1.64067,6.48129 -5.55181,14.37283 -14.18496,17.33165c-5.58795,1.91516 -13.00314,2.871 -19.28609,2.76368c-5.66071,-0.10863 -10.68925,-0.34869 -16.22283,-1.13778c-3.04215,-0.43381 -6.96791,-0.68869 -9.4037,-2.08583c-2.35925,-1.35327 -2.80476,-3.88262 -3.65227,-5.70539c-3.23223,-6.95196 -0.49988,-13.02303 6.05117,-18.82317c2.37986,-2.06975 6.55089,-4.54536 10.47507,-5.47699c6.50623,-1.5446 17.25559,-1.19761 23.74333,0.25046c5.76415,1.28658 7.94072,4.20836 12.43516,6.38388c2.44676,1.18435 5.97829,0.7807 7.96435,2.33662c0.5754,0.45077 0.72098,1.06683 1.08147,1.60026l1.18979,1.31153c0,0 0.64785,0.71708 -0.19049,1.25111zM617.94258,292.21782c-1.54685,-0.37238 -3.40267,-0.53163 -5.10922,-1.33722c-2.4492,-1.15617 -3.79967,-3.01618 -6.13823,-4.20129c-6.19715,-3.14062 -19.39527,-3.87957 -26.78728,-2.15696c-3.30134,0.76934 -7.02926,2.97842 -8.99376,4.74217c-5.97426,5.25241 -8.50528,10.6669 -5.55662,16.96972c0.59984,1.28215 0.98337,3.78826 2.70286,4.73946c1.94142,1.07397 5.50109,1.23944 7.87105,1.57698c5.33213,0.75944 10.13054,0.98234 15.59055,1.08712c5.67035,0.12228 12.48775,-0.77388 17.53727,-2.48953c7.97531,-2.70974 14.45036,-10.25083 12.24142,-16.01512c-0.35915,-0.93724 -1.9864,-1.4586 -2.94802,-2.20467c0,0 -0.40296,-0.31262 -0.41004,-0.71069z" data-paper-data="{&quot;index&quot;:null}" fill="#080000" fill-rule="nonzero" stroke="none" stroke-width="0.5" stroke-linecap="butt"/><path d="M618.40544,292.91683c0.96162,0.74606 2.59096,1.27247 2.95014,2.20971c2.20896,5.76429 -4.28561,13.33951 -12.2609,16.04925c-5.04953,1.71565 -11.90545,2.6198 -17.57581,2.49751c-5.46001,-0.10478 -10.28937,-0.335 -15.6215,-1.09444c-2.36993,-0.33754 -5.93946,-0.5092 -7.88088,-1.58318c-1.71949,-0.9512 -2.1103,-3.46499 -2.71013,-4.74714c-2.94865,-6.30284 -0.41297,-11.75133 5.56128,-17.00373c1.96449,-1.76377 5.71066,-3.98381 9.012,-4.75314c7.39201,-1.72259 20.65168,-0.98155 26.84884,2.15907c2.33852,1.18513 3.70362,3.05531 6.15279,4.21148c1.70654,0.8056 3.56646,0.9701 5.11333,1.34246c0.0071,0.39805 0.4109,0.71216 0.4109,0.71216z" data-paper-data="{&quot;noHover&quot;:false,&quot;origItem&quot;:[&quot;Path&quot;,{&quot;applyMatrix&quot;:true,&quot;segments&quot;:[[[242.36308,94.44509],[0.55935,0.02605],[-0.60288,1.35103]],[[240.22113,98.89885],[1.21949,-1.45844],[-1.75016,2.09309]],[[234.00416,104.03862],[1.78511,-1.99193],[-4.73058,5.27863]],[[229.59018,127.78406],[-2.0367,-6.74107],[0.90961,3.01063]],[[235.78421,136.201],[-2.37514,-1.89768],[7.06666,5.76203]],[[259.32625,142.54284],[-9.00308,2.12064],[1.83146,-0.43139]],[[266.12128,140.51457],[-1.42462,1.45816],[1.60848,-1.64635]],[[268.74272,133.61401],[-0.59653,2.0889],[1.34214,-4.69981]],[[271.07546,119.78016],[-0.42946,4.86722],[0.46491,-5.05363]],[[268.48641,103.9171],[2.14806,4.64868],[-3.3927,-7.34221]],[[246.63053,91.68342],[8.20857,-1.50389],[-1.33466,0.24452]],[[243.38226,94.13672],[1.09735,-0.79807],[0,0]]],&quot;closed&quot;:true}],&quot;index&quot;:null}" fill="#ffffff" fill-rule="nonzero" stroke="none" stroke-width="0.5" stroke-linecap="butt"/><path d="M631.80131,333.87407c2.8684,4.54828 3.87339,9.29983 4.3222,14.26787c0.25686,2.84337 0.89574,6.53331 -1.77289,9.02355c-3.0861,2.87978 -9.0285,4.2842 -13.55533,5.97729c-6.31672,2.36221 -11.73676,4.41063 -19.22933,4.67894c-1.87396,0.06712 -3.79135,0.42728 -5.62437,0.1706c-5.48451,-0.76807 -10.48754,-3.08621 -15.64515,-4.42447c-8.39769,-2.17896 -16.52691,-4.15151 -17.84009,-10.50603c-1.41324,-7.49849 1.64101,-14.15659 7.89298,-20.45763c2.06233,-2.07853 4.70512,-4.85217 7.69546,-6.4356c6.06657,-3.21234 14.08746,-3.58658 21.57143,-3.86217c6.54875,-0.24115 13.01765,-0.48742 19.57367,-0.21014c2.9952,0.12667 6.53038,-0.37991 8.74333,1.25794c1.81367,1.34232 1.15406,2.96941 1.49018,4.54418c0.30181,1.41389 0.88128,2.84695 1.43944,4.22853l0.79305,1.06534c0,0 0.23757,0.32233 0.1454,0.68181zM627.0451,331.21045c-0.38805,-1.00654 -0.73262,-2.02566 -0.94778,-3.03814c-0.21672,-1.01966 0.34087,-2.55349 -0.73034,-3.44492c-1.03382,-0.86026 -4.86743,-0.43797 -6.39998,-0.50301c-6.41623,-0.27225 -12.74756,-0.0247 -19.15686,0.21131c-6.71118,0.24713 -14.10742,0.47454 -19.57888,3.35021c-2.73661,1.43831 -5.16082,4.05351 -7.04474,5.95573c-5.8282,5.88474 -8.74471,12.05217 -7.4005,19.06435c0.9221,5.44078 8.74255,6.95911 15.77826,8.78735c4.92397,1.27949 9.72249,3.5056 14.92368,4.29469c1.59013,0.24123 3.26212,-0.14068 4.89455,-0.19589c6.92865,-0.23428 11.87267,-2.20385 17.71271,-4.38781c4.11816,-1.53981 9.60149,-2.79831 12.50539,-5.35969c2.19272,-1.9341 1.37801,-5.46366 1.17463,-7.67936c-0.51442,-5.60424 -1.68997,-10.92455 -5.78866,-15.96949c0,0 -0.48247,-0.59502 0.0585,-1.08527z" data-paper-data="{&quot;index&quot;:null}" fill="#080000" fill-rule="nonzero" stroke="none" stroke-width="0.5" stroke-linecap="butt"/><path d="M627.03192,332.27495c4.0987,5.04495 5.28421,10.39102 5.79862,15.99525c0.2034,2.21567 1.01243,5.75653 -1.18027,7.69063c-2.90387,2.56137 -8.40194,3.83133 -12.5201,5.37115c-5.84006,2.18395 -10.81454,4.16124 -17.74318,4.39553c-1.63243,0.05519 -3.31286,0.43716 -4.90297,0.19592c-5.2012,-0.78906 -10.02684,-3.02108 -14.9508,-4.30059c-7.03576,-1.82826 -14.87769,-3.36401 -15.7998,-8.80481c-1.3442,-7.01219 1.57917,-13.21218 7.40735,-19.09693c1.88391,-1.9022 4.32251,-4.52638 7.05912,-5.96467c5.47146,-2.87567 12.90079,-3.10917 19.61199,-3.35629c6.40932,-0.23602 12.76806,-0.47833 19.18428,-0.20608c1.53257,0.06502 5.37258,-0.35437 6.40638,0.50592c1.07124,0.89146 0.51798,2.42778 0.7347,3.44745c0.21519,1.01249 0.56393,2.03468 0.95199,3.04121c-0.54098,0.49023 -0.05727,1.08634 -0.05727,1.08634z" data-paper-data="{&quot;noHover&quot;:false,&quot;origItem&quot;:[&quot;Path&quot;,{&quot;applyMatrix&quot;:true,&quot;segments&quot;:[[[297.58827,89.48717],[0.66043,0.52295],[-1.43347,0.2647]],[[293.273,90.08651],[1.43289,-0.10983],[-1.44305,0.11061]],[[288.39778,90.45861],[1.30718,-0.88414],[-1.26148,0.85323]],[[287.36052,96.13283],[0.17056,-1.36327],[-0.71408,5.70749]],[[286.66667,113.25695],[0,-5.74266],[0,6.01312]],[[290.35873,131.01313],[-3.75518,-5.11979],[1.8782,2.56072]],[[298.35761,137.78829],[-2.5737,-1.83699],[7.96215,5.68303]],[[324.74561,145.947],[-9.91619,0.63019],[7.68777,-0.38104]],[[337.9009,132.57163],[-2.93108,6.1342],[2.05132,-4.29303]],[[344.70331,119.59411],[-1.37698,4.58048],[0.42097,-1.40035]],[[344.68132,115.2074],[-0.0069,1.46224],[0.02929,-6.20628]],[[339.43573,99.03331],[2.76479,5.39271],[-1.9493,-3.80268]],[[332.55614,87.4303],[3.44661,2.8014],[-2.60252,-2.11533]],[[321.83333,85.75695],[3.12183,-0.00146],[-7.89622,0.00369]],[[299.10921,89.62767],[7.2962,-3.24989],[0,0]]],&quot;closed&quot;:true}],&quot;index&quot;:null}" fill="#ffffff" fill-rule="nonzero" stroke="none" stroke-width="0.5" stroke-linecap="butt"/><path d="M587.80327,327.2898c2.31147,-0.08511 4.29385,1.03752 4.42768,2.50745c0.13384,1.46994 -1.63151,2.73059 -3.943,2.81571c-2.31147,0.08511 -4.29383,-1.03751 -4.42768,-2.50747c-0.13384,-1.46994 1.6315,-2.73058 3.94299,-2.8157z" data-paper-data="{&quot;index&quot;:null}" fill="#000000" fill-rule="nonzero" stroke="none" stroke-width="0.5" stroke-linecap="butt"/><path d="M591.83077,308.73414c2.31147,-0.08511 4.29385,1.03752 4.42769,2.50748c0.13384,1.46994 -1.63151,2.73058 -3.94299,2.8157c-2.3115,0.08512 -4.29385,-1.03752 -4.42768,-2.50745c-0.13384,-1.46994 1.6315,-2.73059 3.943,-2.81571z" data-paper-data="{&quot;index&quot;:null}" fill="#000000" fill-rule="nonzero" stroke="none" stroke-width="0.5" stroke-linecap="butt"/><path d="M681.49763,255.79249c0.07112,0.78096 -0.67463,1.09932 -1.23817,1.22807c-7.70297,6.47036 -11.94567,14.75559 -17.05994,22.15337c-6.85182,7.39701 -13.61073,14.82038 -20.94292,22.02919c-4.18929,4.11878 -9.75734,8.33458 -12.77269,12.846c0,0 -0.77232,1.14311 -2.56986,0.65194c-1.79753,-0.49113 -1.02519,-1.63425 -1.02519,-1.63425c3.16805,-4.646 8.75487,-8.96052 13.0823,-13.21513c7.26177,-7.13955 13.92978,-14.49805 20.74598,-21.81238c5.30091,-7.70554 9.75103,-16.26561 17.91212,-22.92593l1.80217,-0.49104c0,0 1.95314,-0.07192 2.06626,1.17015z" data-paper-data="{&quot;index&quot;:null}" fill="#000000" fill-rule="nonzero" stroke="none" stroke-width="0.5" stroke-linecap="butt"/><path d="M704.63591,391.62554c-1.74435,0.56338 -2.63026,-0.54592 -2.63026,-0.54592l-1.67102,-2.09235c-8.28885,-10.37878 -16.78281,-20.47936 -26.26928,-30.4362c-3.87921,-4.07537 -8.53803,-7.85352 -12.92307,-11.71446c-8.27638,-7.28718 -16.59526,-14.4794 -26.04225,-21.14159c0,0 -1.30846,-0.92497 0.14605,-1.75705c1.45452,-0.83208 2.76296,0.09288 2.76296,0.09288c9.51634,6.74513 17.94435,13.9872 26.30526,21.34883c4.4478,3.91624 9.15752,7.75028 13.09758,11.88195c9.53661,10.00946 18.07894,20.1654 26.41147,30.59887l1.67102,2.09234c0,0 0.88591,1.10929 -0.85845,1.67267z" data-paper-data="{&quot;index&quot;:null}" fill="#000000" fill-rule="nonzero" stroke="none" stroke-width="0.5" stroke-linecap="butt"/><path d="M607.10254,289.48205c-0.19416,-0.9669 -0.40274,-1.948 0.32124,-2.81818c0.86107,-1.03493 2.26639,-0.80784 3.86819,-0.86682c4.0845,-0.15041 7.81755,1.22262 9.95974,3.47152c4.64612,5.16902 3.30414,11.14611 0.38377,16.50382c-0.65838,1.93998 -0.91288,3.98435 -3.01922,5.54375c-0.76912,0.56941 -1.76667,0.76553 -2.78476,0.96148c-0.6837,0.13159 -1.13321,0.55821 -1.75402,0.78293c-3.106,1.1243 -6.85256,1.67368 -10.37097,1.80323c-0.97854,0.03604 -3.14641,0.35648 -4.05796,0.09751c-1.25013,-0.35515 -1.43622,-2.45457 -1.2273,-3.19582c0.91134,-3.23325 1.84688,-6.42882 3.67286,-9.53634c2.46792,-4.1998 3.79805,-8.40244 5.00842,-12.74708z" fill="#000000" fill-rule="nonzero" stroke="none" stroke-width="0.5" stroke-linecap="butt"/><path d="M596.65343,323.88324c0.23967,-0.00883 0.40061,0.03855 0.5086,0.10403c0.20201,-0.0094 0.40244,-0.01989 0.60144,-0.03144c-0.1056,-0.37085 -0.21069,-0.74178 -0.3152,-1.1128c0,0 -0.12144,-0.43108 0.55644,-0.5083c0.67787,-0.07723 0.79931,0.35385 0.79931,0.35385c0.10989,0.39007 0.2204,0.78006 0.33151,1.16995c2.49073,-0.20792 4.80928,-0.5673 7.30794,-0.94983c4.04085,-0.61865 8.94178,-0.341 13.10093,-0.49416c1.67199,-0.06155 3.99531,-0.36095 5.61114,-0.03816c1.83983,0.36754 4.45873,2.10785 5.17607,3.19984c0.58902,0.89664 0.46433,1.98676 0.87471,2.89732c0.74734,1.65823 1.55396,3.34514 2.32627,5.01374c2.67478,5.779 3.89923,11.87086 5.86079,17.77132c0.07509,2.04811 0.59396,4.19972 -1.63897,5.90776c-0.89977,0.68826 -2.86495,1.00557 -4.06654,1.44473c-3.90601,1.42765 -7.90558,2.65948 -11.73719,4.17768c-2.20862,0.87465 -4.57854,1.87587 -7.20721,1.98177c-0.9725,0.03918 -2.39898,0.23361 -3.15948,-0.32672c-0.28955,-0.21333 -0.11991,-0.55851 -0.19334,-0.83642c-0.21847,-0.82697 -0.42232,-1.69113 -0.74297,-2.5042c-0.84576,-2.14458 -2.10819,-4.21659 -2.84435,-6.38406c-1.87838,-5.54353 -3.84229,-11.10037 -5.81551,-16.63545c-1.36313,-4.41756 -2.70606,-8.83482 -3.97701,-13.2627c-0.41599,0.02499 -0.83769,0.0456 -1.26643,0.0614l-0.73867,-0.53664c0,0 -0.0398,-0.43721 0.64769,-0.46253z" fill="#000000" fill-rule="nonzero" stroke="none" stroke-width="0.5" stroke-linecap="butt"/><path d="M515.50546,287.25968c-0.06439,-0.70711 1.04754,-0.74805 1.04754,-0.74805l0.14707,-0.00542c2.73088,-0.10056 5.63381,-0.39714 8.3617,-0.30335c2.86968,0.09866 5.57606,1.10951 8.46341,1.38437c1.57647,0.15007 3.16193,0.00669 4.74751,0.21595c3.09972,0.42664 11.15206,-0.57562 12.94531,1.73513c0.98875,1.2741 -1.07975,3.19269 -2.2328,4.11525c-2.87865,2.30321 -6.80027,5.68554 -11.28379,6.99528l0.06875,0.04614l-0.02874,0.01732l0.03595,0.00424c2.73501,0.30948 7.38661,0.10179 9.72583,1.10879c0.70184,0.30212 1.51749,0.77425 1.48423,1.3128c-0.03882,0.6286 -1.0556,1.06649 -1.66184,1.5636c-1.99392,1.63494 -4.85957,2.92062 -7.13231,4.39653c-0.84104,0.54578 -1.74317,1.38791 -2.87518,1.82828c2.31592,0.22024 6.39009,0.69673 8.40236,1.21514c0.97623,0.2515 2.23481,0.47414 2.65683,1.08785c0.38497,0.55983 -1.33173,2.71154 -1.81857,3.16864c-2.26536,2.12687 -6.09783,3.65633 -9.52253,4.90953c-1.09189,0.39956 -2.01682,0.85502 -3.05075,1.15195c2.92687,0.08326 7.41749,0.25434 7.38927,2.51336c-0.00584,0.46834 -0.69353,0.82731 -1.08632,1.22349c-1.85854,1.8745 -4.47856,3.46207 -6.78714,5.11017c-1.42763,0.92696 -2.72182,1.6302 -4.31879,2.36365c-0.20296,0.0932 0.4718,-0.1319 0.72215,-0.13119c1.23105,0.0035 2.44845,0.2069 3.6795,0.20207c2.58455,-0.01014 6.7751,-0.75716 8.89326,0.53991c1.22219,0.7484 -0.49493,2.9478 -0.97479,3.53496c-2.44122,2.98708 -7.74939,5.54718 -11.52492,7.88162c-0.74579,0.45251 -1.57428,0.85263 -2.27154,1.3349c0.1422,-0.09307 0.38096,-0.23411 0.5293,-0.24825c0.72363,-0.06908 1.46264,0.03947 2.19437,0.03878c1.4692,-0.00139 2.93779,-0.04458 4.40557,-0.08584c4.21236,-0.11846 9.01987,-0.77949 13.20497,-0.47182c5.70681,0.41952 0.40392,3.76814 -1.43647,4.78552c-1.69042,0.93447 -3.51379,1.64388 -5.39328,2.40989c-5.46229,2.08413 -11.09842,3.988 -16.11781,6.4843c-5.40637,2.68874 -8.79278,5.52058 -15.53867,6.94618c0,0 -1.05696,0.22336 -1.40821,-0.44878c-0.35124,-0.67215 0.70571,-0.89553 0.70571,-0.89553c6.45427,-1.36398 9.67603,-4.131 14.8682,-6.71741c5.08172,-2.53138 10.78378,-4.46208 16.31664,-6.5726c1.15326,-0.47013 2.35698,-0.89346 3.46093,-1.40926c1.74392,-0.81481 3.79824,-1.99805 5.11891,-3.0287c0.19544,-0.15252 -0.58761,-0.14806 -0.89693,-0.1518c-0.6618,-0.00799 -1.32043,0.06083 -1.98105,0.08743c-1.37213,0.05526 -2.74515,0.10109 -4.11774,0.15163c-3.72207,0.13706 -7.45711,0.32985 -11.18743,0.33339c-0.45554,0.00043 -4.45252,0.00875 -4.70112,-0.39964c-0.80023,-1.31446 1.58365,-2.4614 2.6928,-3.15802c3.45119,-2.13389 7.55481,-4.30595 10.32946,-6.79265c0.28517,-0.25557 2.36363,-2.60625 1.96859,-2.73543c-2.32302,-0.75958 -6.91986,0.08415 -9.46406,-0.06694c-0.92225,-0.05477 -4.1087,-0.25369 -4.26175,-1.14232c-0.11553,-0.67081 1.18442,-1.12231 1.856,-1.64477c0.00311,-0.00242 2.95403,-1.91723 3.02036,-1.96027c1.76369,-1.25982 3.72762,-2.47616 5.34272,-3.81366c0.08386,-0.06944 2.62657,-1.75616 1.62603,-2.09005c-1.78006,-0.59404 -4.32147,-0.52226 -6.24862,-0.6052l-0.05398,-0.01442l-0.00247,0.00923l-1.91527,-0.20778c-0.51071,-0.04836 -0.91569,-0.31888 -0.94672,-0.65966c-0.02467,-0.27091 0.19348,-0.51508 0.53443,-0.64677l1.86269,-0.75081l0.12251,0.12291c3.77642,-1.83906 8.08847,-3.12676 11.47068,-5.39084c0.51857,-0.34714 2.93862,-2.06879 2.63695,-2.54778c-0.41677,-0.66177 -2.19071,-0.30871 -3.29954,-0.41332c-2.29959,-0.21696 -4.46171,-0.48013 -6.60039,-1.07404c-0.71569,-0.19875 -2.03111,-0.14679 -2.1153,-0.64053c-0.11642,-0.68267 1.08813,-1.18813 1.70755,-1.75059c0.38153,-0.34644 2.34055,-1.58618 2.60747,-1.75947c2.3571,-1.52939 6.44148,-3.12179 8.1579,-4.95364c0.63346,-0.67605 -2.38768,-0.42895 -3.61059,-0.54943c-1.93347,-0.19049 -3.8389,-0.27558 -5.77098,-0.4936l-0.00391,-0.00096l-0.00014,0.0005l-2.16756,-0.2555c-0.50359,-0.05221 -0.90094,-0.32074 -0.93167,-0.65817c-0.01991,-0.21865 0.11834,-0.41985 0.35166,-0.55859l1.61123,-0.97084l0.14426,0.09681c2.98625,-2.05925 6.54945,-3.71688 9.36979,-5.92711c0.78676,-0.61657 4.13824,-2.61563 3.43493,-3.71617c-0.24716,-0.38678 -1.83614,-0.38297 -2.19201,-0.41898c-3.08514,-0.31212 -6.13727,-0.11083 -9.1832,-0.51209c-1.52216,-0.20929 -3.03804,-0.0557 -4.55964,-0.19597c-2.79845,-0.258 -5.56464,-1.30286 -8.31406,-1.37588c-2.65654,-0.07054 -5.45136,0.2053 -8.10923,0.30316l-0.14707,0.00542c0,0 -1.11193,0.04095 -1.17631,-0.66616z" fill="#080000" fill-rule="nonzero" stroke="none" stroke-width="0.5" stroke-linecap="butt"/></g></g></g></svg>