<svg version="1.1" xmlns="http://www.w3.org/2000/svg" xmlns:xlink="http://www.w3.org/1999/xlink" width="1733.09309" height="836.33634" viewBox="0,0,1733.09309,836.33634"><g transform="translate(546.54655,238.16817)"><g data-paper-data="{&quot;isPaintingLayer&quot;:true}" stroke-linejoin="miter" stroke-miterlimit="10" stroke-dasharray="" stroke-dashoffset="0" style="mix-blend-mode: normal"><path d="M-546.54655,598.16817v-836.33634h1733.09309v836.33634z" fill="none" fill-rule="nonzero" stroke="#f00000" stroke-width="0" stroke-linecap="butt"/><g><path d="M347.0861,294.36487l41.64135,5.89094l2.74215,19.6015l-41.65511,-2.99073z" data-paper-data="{&quot;index&quot;:null}" fill="#cedce9" fill-rule="nonzero" stroke="#000000" stroke-width="1" stroke-linecap="round"/><path d="M348.99866,292.4403c0.49355,-0.69327 1.19549,-2.33006 2.20888,-1.64928c-0.34411,-0.37801 -0.76956,-0.88325 -0.90043,-1.15473c-0.62006,-1.28608 -0.3616,-2.98216 -0.52411,-4.32245c-0.44585,-3.677 -0.63318,-7.25358 -2.22869,-10.78071c-0.72105,-1.594 0.84973,-2.08111 -1.48301,-2.5122c-3.93707,-0.91339 -7.57257,-2.73621 -11.56098,-3.86144c-5.40554,-1.52505 -10.50721,-2.03335 -15.84857,-2.91221c-4.43695,-1.03896 -12.57187,0.13223 -17.3541,0.26448c-1.28011,0.03539 -3.51937,0.42318 -4.49924,0.13905c-0.01023,0.30968 -0.01751,0.60872 0.00549,0.7984c0.15287,1.26071 0.30572,2.52141 0.45859,3.78215c0.60809,5.01493 1.50096,10.83647 4.15962,15.64683c2.90739,5.71836 0.50259,12.06958 3.18953,17.84066c1.38019,3.16292 1.21142,6.65694 1.59828,9.9055c0.19626,1.648 1.43126,3.02972 -0.45982,3.80752c-0.49705,0.20444 1.22456,-0.03386 1.8368,-0.05079c1.53063,-0.04232 3.06137,-0.08465 4.59201,-0.12698c8.57179,-0.23703 17.1436,-0.47406 25.71538,-0.7111c2.02643,-0.05604 9.23838,-0.56901 10.10127,0.05579c-0.00241,-0.12161 0.00098,-0.25944 0.00119,-0.33516c0.00185,-0.67087 -0.10606,-1.04267 0.46346,-1.58194c0.98878,-0.9362 -0.21508,-3.96913 -0.364,-5.19727c-0.57871,-4.77269 -1.15741,-9.54538 -1.73611,-14.3181c0,0 -0.13103,-1.08061 1.70576,-1.13139c0.07541,-0.0021 0.1479,-0.00227 0.21763,-0.00069c0.12344,-0.52173 0.31832,-1.0507 0.70508,-1.59394zM351.77988,309.38285c0.34934,2.88106 1.66784,6.53914 -1.81781,8.60964c-1.99741,1.18648 -8.92991,0.63247 -11.79579,0.71171c-8.57181,0.23703 -17.1436,0.47406 -25.7154,0.71109c-0.97882,0.02707 -5.78926,0.53353 -6.42884,0.17777c-6.46014,-3.59338 -2.63717,-10.80871 -4.95144,-15.35076c-2.62738,-5.64319 0.26756,-12.30574 -3.13901,-17.74141c-2.74015,-4.95784 -3.70573,-10.9953 -4.33292,-16.16797c-0.08997,-0.74196 -1.58463,-5.16515 -0.68788,-5.67321c2.57155,-1.45693 4.89283,-1.21952 8.13463,-1.30918c5.86374,-0.16214 12.77907,-0.96693 18.52924,-0.18567c5.47449,0.90077 10.92684,1.48786 16.34399,3.01618c2.18521,0.61651 5.08711,1.26746 7.09256,2.08679c1.31227,0.53614 2.45454,1.59899 4.08703,1.69061c4.36611,0.80685 3.17484,2.51605 4.1295,4.47315c1.69942,3.48384 1.78666,7.13518 2.22869,10.78071c0.16302,1.34445 1.5333,3.94225 1.32104,4.89974c-0.36951,1.66677 -2.64673,2.69012 -3.16335,4.30995c-0.3791,1.18861 0.07962,2.41747 -0.91903,3.82024c-0.07582,0.10649 -0.15163,0.21297 -0.22744,0.31948c0.43737,3.60706 0.87473,7.21412 1.3121,10.82115z" data-paper-data="{&quot;index&quot;:null}" fill="#000000" fill-rule="nonzero" stroke="none" stroke-width="1" stroke-linecap="butt"/><path d="M348.38357,294.04682c-0.06976,-0.00159 -0.14227,-0.00128 -0.21765,0.00081c-1.8368,0.05079 -1.70826,1.13678 -1.70826,1.13678c0.57871,4.77269 1.12395,9.57183 1.70267,14.34455c0.14891,1.22815 1.34457,4.26409 0.35579,5.20028c-0.56956,0.53925 -0.46459,0.912 -0.46644,1.58286c-0.00022,0.07573 -0.00407,0.21366 -0.00169,0.33529c-0.8629,-0.62481 -8.09203,-0.10806 -10.11846,-0.05203c-8.57181,0.23703 -17.19485,0.47322 -25.76667,0.71025c-1.53062,0.04233 -3.06901,0.083 -4.59967,0.12534c-0.61226,0.01693 -2.3367,0.25449 -1.83965,0.05006c1.89109,-0.77782 0.65197,-2.16072 0.45573,-3.80869c-0.3869,-3.24855 -0.24026,-6.75182 -1.62043,-9.91474c-2.68695,-5.7711 -0.3069,-12.17908 -3.21429,-17.89743c-2.65868,-4.81034 -3.52247,-10.65643 -4.13054,-15.6714c-0.15287,-1.26071 -0.30021,-2.52379 -0.45308,-3.78451c-0.02301,-0.1897 -0.01454,-0.48917 -0.00435,-0.79883c0.97987,0.28414 3.22539,-0.10585 4.5055,-0.14124c4.78224,-0.13224 12.94833,-1.30939 17.3853,-0.27042c5.34132,0.87885 10.47816,1.38841 15.88368,2.91345c3.98844,1.12526 7.65229,2.95539 11.58933,3.8688c2.33275,0.43109 0.76934,0.92136 1.49041,2.51538c1.59552,3.52711 1.8114,7.12617 2.25724,10.80315c0.1625,1.34025 -0.08953,3.05129 0.53053,4.33738c0.13091,0.27145 0.55685,0.78099 0.90094,1.159c-1.01335,-0.68079 -1.71562,0.96243 -2.20917,1.65568c-0.38676,0.54327 -0.58328,1.07859 -0.70674,1.60031z" data-paper-data="{&quot;noHover&quot;:false,&quot;origItem&quot;:[&quot;Path&quot;,{&quot;applyMatrix&quot;:true,&quot;segments&quot;:[[[579.60736,595.76373],[0.95609,-0.20262],[0.00646,0.07548]],[[579.61718,596],[0,-0.08208],[0,2]],[[577.61718,598],[0,0],[-8.83333,0]],[[551.11718,598],[8.83333,0],[-2.27308,0]],[[541.51161,598.28885],[1.67648,-1.19621],[-0.96568,0.68904]],[[538.61718,599],[1.23739,-0.09027],[-0.13966,0.01019]],[[537.99901,599.04541],[0.22447,-0.0134],[1.19653,0.85421]],[[538.61718,610],[0,-2.20646],[0,9.33333]],[[538.61718,638],[0,-9.33333],[0,1.66667]],[[538.61718,643],[0,-1.66667],[0,0.66667]],[[538.61718,645],[-0.35177,0.56631],[1.33831,-2.15456]],[[545.61718,644],[-3.04994,0.00386],[6.01206,-0.00761]],[[563.97058,644.43107],[-5.90478,-1.08158],[10.78253,2.15651]],[[597.04254,645.54479],[-10.6965,-2.40266],[9.00888,2.25222]],[[626.11718,648],[-9.28168,0],[2.33333,0]],[[633.11718,648],[-2.33333,0],[0.35109,0]],[[634.59021,647.90091],[-0.5707,0.05184],[-0.57412,-1.02596]],[[634.61718,643],[0,1.39387],[0,-5.20707]],[[634.21982,624.13246],[2.14282,4.67827],[-1.8936,-5.6808]],[[628.03948,607.31672],[3.08887,5.66543],[-2.2791,-4.1802]],[[620.32688,595.27881],[1.8857,4.15235],[-0.91417,-2.47477]],[[615.61718,594],[2.9771,0.57275],[-6.58756,-1.26734]],[[595.61718,593],[6.8054,0],[-2.48058,0]],[[587.61718,593],[2.40395,0.50364],[-0.50743,-0.10631]],[[585.44122,592.1748],[0.71481,0.32365],[1.30749,1.01011]],[[582.51161,594.78885],[1.25365,-0.62682],[-0.98239,0.4912]]],&quot;closed&quot;:true}],&quot;index&quot;:null}" fill="#484848" fill-rule="nonzero" stroke="none" stroke-width="1" stroke-linecap="butt"/><path d="M339.81271,279.08417c-0.62075,0.01717 -1.32796,0.41051 -1.84202,0.23841c-0.02553,0.47722 -0.14908,0.95994 -0.4583,1.3943c-1.19224,1.67469 -5.85598,5.14334 -9.16802,5.54983c-0.2694,0.03306 -0.37104,-0.42838 -0.60318,-0.34333c-0.77247,0.28296 0.88256,2.36914 0.68384,2.61985c-0.045,0.05674 -0.12221,0.08614 -0.21883,0.09973c0.30295,-0.01979 0.59587,-0.03835 0.781,-0.04347c0.65064,-0.01799 1.35363,-0.02225 1.91482,-0.20953c4.95294,-1.59692 9.54084,-4.10913 9.04175,-8.2252c0,0 -0.05887,-0.48574 0.45583,-0.8212c0.09017,-0.10962 0.2013,-0.196 0.33676,-0.25559c-0.35215,-0.00462 -0.71064,-0.00971 -0.92366,-0.00382zM327.15039,288.6503c-0.36713,0.08415 0.25446,0.04513 0.9045,0.00257c-0.28405,0.0027 -0.65364,-0.06009 -0.9045,-0.00257zM332.77928,290.27759c-4.40502,1.46999 -11.44903,-1.39639 -8.71171,-4.25262c2.58269,-2.69487 8.30313,-3.74143 10.04184,-6.18373c0.58742,-0.82508 0.84429,-1.8014 1.91118,-2.43514c1.69071,-1.00427 7.91038,-0.75182 8.13166,1.07319c0.15934,1.31411 -0.48664,1.98141 -0.33828,3.20482l0.06551,0.5403c0,0 0.07519,0.62023 -0.68706,0.943c-1.38795,3.25006 -5.65135,5.42888 -10.41302,7.11015z" data-paper-data="{&quot;index&quot;:null}" fill="#000000" fill-rule="nonzero" stroke="none" stroke-width="1" stroke-linecap="butt"/><path d="M340.79305,279.04619c-0.13544,0.05957 -0.24657,0.146 -0.33675,0.25562c-0.5147,0.33546 -0.45161,0.82329 -0.45161,0.82329c0.49908,4.11605 -4.18626,6.71706 -9.13921,8.31396c-0.56117,0.18728 -1.27756,0.18719 -1.92819,0.20517c-0.18511,0.00512 -0.48247,0.02178 -0.78546,0.04158c0.09669,-0.01358 0.17439,-0.04271 0.21941,-0.09949c0.19871,-0.25074 -1.48269,-2.35464 -0.71026,-2.6376c0.23216,-0.08504 0.48887,0.32061 0.75829,0.28752c3.31204,-0.40647 7.94811,-3.89049 9.14036,-5.56518c0.30925,-0.43436 0.42498,-0.91964 0.45049,-1.39686c0.51408,0.17208 1.23315,-0.21714 1.85388,-0.2343c0.213,-0.00589 0.5769,0.00156 0.92905,0.00622z" data-paper-data="{&quot;noHover&quot;:false,&quot;origItem&quot;:[&quot;Path&quot;,{&quot;applyMatrix&quot;:true,&quot;segments&quot;:[[[607.563,601.99816],[0.02649,0.38155],[-0.10299,0.15484]],[[607.10872,602.39727],[0.1976,-0.11227],[-0.59254,0.60273]],[[605.61718,603],[0,0],[-7.618,0]],[[590.90604,613.89443],[2.69308,-5.58508],[-0.31682,0.63364]],[[590.61718,616],[0,-0.70843],[0,0.20156]],[[590.57685,616.85325],[0.02106,-0.33136],[0.02013,-0.10671]],[[590.74964,616.60263],[-0.10238,0.05628],[0.45234,-0.24865]],[[595.61718,617],[-0.48256,0.87548],[0.14503,-0.26312]],[[594.95308,616.3906],[-0.04725,0.29671],[0.58086,-3.64773]],[[604.72276,605.71115],[-3.02833,1.51416],[0.78545,-0.39273]],[[607.27135,605.03032],[-0.87898,0.0905],[-0.34365,-0.53523]],[[607.61718,603],[0,0.6759],[0,-0.23192]]],&quot;closed&quot;:true}],&quot;index&quot;:null}" fill="#ffffff" fill-rule="nonzero" stroke="none" stroke-width="1" stroke-linecap="butt"/><path d="M353.72801,349.14222l40.65387,-5.26677l2.01376,19.62164l-39.93923,8.14683z" fill="#cedce9" fill-rule="nonzero" stroke="#000000" stroke-width="1" stroke-linecap="round"/><path d="M358.82125,373.45022c-0.51547,-0.51829 -0.83689,-1.03299 -1.08561,-1.54442c-0.06889,0.00541 -0.14092,0.00923 -0.21634,0.01131c-1.8368,0.05079 -1.96781,-1.02981 -1.96781,-1.02981c-0.5787,-4.77271 -1.15741,-9.5454 -1.73611,-14.3181c-0.14891,-1.22815 0.31386,-4.30716 -0.89459,-5.1826c-0.69607,-0.50427 -0.67873,-0.87953 -0.84271,-1.54582c-0.01852,-0.07521 -0.0552,-0.21191 -0.08219,-0.33284c-0.70612,0.66819 -7.99383,0.55616 -10.02028,0.6122c-8.57181,0.23703 -17.14363,0.47406 -25.71538,0.7111c-1.53065,0.04232 -3.06137,0.08466 -4.59201,0.12698c-0.61224,0.01693 -2.37994,-0.12488 -1.8368,0.05079c2.06645,0.66837 1.17364,2.10895 1.37701,3.75674c0.40087,3.24816 1.41302,6.70954 0.80653,9.92737c-1.27413,5.88063 2.64963,12.05684 1.14379,17.89724c-1.47824,4.92475 -0.95813,10.75658 -0.35005,15.77153c0.15287,1.26074 0.30573,2.52142 0.45859,3.78215c0.023,0.18968 0.10252,0.48632 0.18752,0.79336c0.90466,-0.33624 3.22267,-0.07449 4.50278,-0.10989c4.78224,-0.13224 13.14585,0.58274 17.30203,-0.69385c5.09324,-1.16739 10.03796,-1.9535 15.03878,-3.76632c3.68981,-1.33754 6.86043,-3.34857 10.55042,-4.47289c2.21296,-0.55679 0.53495,-0.95406 0.86591,-2.57716c0.73236,-3.59149 0.05399,-7.15452 -0.39186,-10.83151c-0.16252,-1.3403 -0.82919,-3.01078 -0.52411,-4.32245c0.0644,-0.27689 0.36487,-0.80219 0.61532,-1.19665c-0.84208,0.73208 -1.93494,-0.85507 -2.59274,-1.5165zM357.48894,356.46754c0.43737,3.60706 0.87473,7.21412 1.3121,10.82115c0.10106,0.1016 0.20208,0.20321 0.30314,0.30481c1.331,1.33835 1.17236,2.58428 1.8362,3.74405c0.90468,1.58054 3.41402,2.4715 4.18389,4.10678c0.44227,0.93939 -0.29097,3.59537 -0.12796,4.93981c0.44202,3.64553 1.23788,7.27728 0.39184,10.8315c-0.47527,1.99662 1.12116,3.62875 -3.02076,4.67087c-1.59942,0.18097 -2.47718,1.29969 -3.65111,1.90458c-1.79404,0.92441 -4.51922,1.73096 -6.54081,2.46379c-5.01154,1.81669 -10.28557,2.70041 -15.50575,3.89691c-5.52293,1.093 -12.58657,0.67476 -18.45028,0.8369c-3.24181,0.08964 -5.49021,0.45341 -8.3967,-0.85204c-1.01354,-0.45523 -0.59793,-4.93124 -0.6879,-5.6732c-0.6272,-5.17266 -1.12733,-11.223 0.39624,-16.29874c2.07005,-5.5871 -2.41588,-12.04555 -1.16997,-17.79585c1.201,-4.63927 -4.34031,-11.59566 1.20812,-15.52109c0.54934,-0.38864 5.45003,-0.15071 6.42884,-0.17777c8.57181,-0.23703 17.1436,-0.47406 25.7154,-0.71109c2.86588,-0.07925 9.61814,-1.01168 11.88896,0.05678c3.96276,1.86452 3.53723,5.57085 3.88655,8.4519z" data-paper-data="{&quot;index&quot;:null}" fill="#000000" fill-rule="nonzero" stroke="none" stroke-width="1" stroke-linecap="butt"/><path d="M357.82201,371.88828c0.24871,0.51143 0.57332,1.03234 1.0888,1.55066c0.6578,0.66143 1.75255,2.25496 2.59457,1.52286c-0.25043,0.39444 -0.55038,0.92405 -0.61479,1.20092c-0.30507,1.31166 0.35883,2.99737 0.52134,4.33763c0.44585,3.67697 1.10131,7.26389 0.36892,10.85536c-0.33097,1.6231 1.34049,2.02391 -0.87249,2.5807c-3.68999,1.1243 -6.88699,3.14418 -10.5768,4.48175c-5.0008,1.81281 -9.98013,2.60211 -15.07335,3.7695c-4.1562,1.2766 -12.55223,0.55741 -17.33447,0.68966c-1.28011,0.03539 -3.60488,-0.22821 -4.50954,0.10805c-0.08498,-0.30703 -0.16573,-0.60403 -0.18873,-0.79372c-0.15286,-1.26072 -0.31177,-2.52348 -0.46462,-3.78418c-0.60807,-5.01497 -1.16302,-10.8696 0.31522,-15.79434c1.50585,-5.8404 -2.40708,-12.07436 -1.13292,-17.95499c0.6065,-3.21785 -0.38589,-6.68964 -0.78675,-9.9378c-0.20336,-1.64779 0.69322,-3.08975 -1.37322,-3.75812c-0.54315,-0.17568 1.22721,-0.03475 1.83945,-0.05169c1.53065,-0.04232 3.06859,-0.08672 4.59923,-0.12904c8.57181,-0.23703 17.1943,-0.47772 25.76613,-0.71476c2.02642,-0.05604 9.33214,0.05878 10.03825,-0.60941c0.02703,0.12095 0.0642,0.25774 0.08271,0.33296c0.16399,0.66626 0.14982,1.0423 0.84589,1.54655c1.20845,0.87544 0.75455,3.95699 0.90346,5.18514c0.57871,4.77272 1.19701,9.56983 1.77572,14.34253c0,0 0.13483,1.08583 1.97162,1.03504c0.07539,-0.00208 0.14749,-0.00577 0.21641,-0.0112z" data-paper-data="{&quot;noHover&quot;:false,&quot;origItem&quot;:[&quot;Path&quot;,{&quot;applyMatrix&quot;:true,&quot;segments&quot;:[[[579.60736,595.76373],[0.95609,-0.20262],[0.00646,0.07548]],[[579.61718,596],[0,-0.08208],[0,2]],[[577.61718,598],[0,0],[-8.83333,0]],[[551.11718,598],[8.83333,0],[-2.27308,0]],[[541.51161,598.28885],[1.67648,-1.19621],[-0.96568,0.68904]],[[538.61718,599],[1.23739,-0.09027],[-0.13966,0.01019]],[[537.99901,599.04541],[0.22447,-0.0134],[1.19653,0.85421]],[[538.61718,610],[0,-2.20646],[0,9.33333]],[[538.61718,638],[0,-9.33333],[0,1.66667]],[[538.61718,643],[0,-1.66667],[0,0.66667]],[[538.61718,645],[-0.35177,0.56631],[1.33831,-2.15456]],[[545.61718,644],[-3.04994,0.00386],[6.01206,-0.00761]],[[563.97058,644.43107],[-5.90478,-1.08158],[10.78253,2.15651]],[[597.04254,645.54479],[-10.6965,-2.40266],[9.00888,2.25222]],[[626.11718,648],[-9.28168,0],[2.33333,0]],[[633.11718,648],[-2.33333,0],[0.35109,0]],[[634.59021,647.90091],[-0.5707,0.05184],[-0.57412,-1.02596]],[[634.61718,643],[0,1.39387],[0,-5.20707]],[[634.21982,624.13246],[2.14282,4.67827],[-1.8936,-5.6808]],[[628.03948,607.31672],[3.08887,5.66543],[-2.2791,-4.1802]],[[620.32688,595.27881],[1.8857,4.15235],[-0.91417,-2.47477]],[[615.61718,594],[2.9771,0.57275],[-6.58756,-1.26734]],[[595.61718,593],[6.8054,0],[-2.48058,0]],[[587.61718,593],[2.40395,0.50364],[-0.50743,-0.10631]],[[585.44122,592.1748],[0.71481,0.32365],[1.30749,1.01011]],[[582.51161,594.78885],[1.25365,-0.62682],[-0.98239,0.4912]]],&quot;closed&quot;:true}],&quot;index&quot;:null}" fill="#484848" fill-rule="nonzero" stroke="none" stroke-width="1" stroke-linecap="butt"/><path d="M352.92498,387.22342c0.213,-0.00589 0.56789,-0.03071 0.91655,-0.05472c-0.14895,-0.05173 -0.28025,-0.1314 -0.3963,-0.23533c-0.59233,-0.30487 -0.65126,-0.79058 -0.65126,-0.79058c-0.49908,-4.11606 -5.66349,-6.3586 -10.96932,-7.67184c-0.60272,-0.15509 -1.30206,-0.12058 -1.95269,-0.10258c-0.18512,0.00512 -0.48058,0.00283 -0.78628,-0.00013c0.09925,0.00818 0.18306,0.03312 0.24148,0.087c0.258,0.23809 -0.88176,2.40155 -0.04606,2.64003c0.25114,0.07168 0.24057,-0.39227 0.51617,-0.37429c3.38816,0.22121 8.85908,3.40963 10.44812,5.0074c0.41213,0.41441 0.65152,0.8871 0.79222,1.35973c0.46901,-0.19927 1.26657,0.15245 1.88731,0.13529zM338.93294,378.36674c-0.65598,-0.00644 -1.28285,-0.01095 -0.89783,0.05241c0.26311,0.04331 0.61504,-0.03944 0.89783,-0.05241zM343.23315,376.49249c5.13621,1.40757 9.89771,3.33683 12.06192,6.48867c0.83517,0.27862 0.91038,0.89884 0.91038,0.89884l0.06551,0.5403c0.14834,1.22341 0.95127,1.85064 1.1106,3.16476c0.22128,1.82501 -5.89581,2.41861 -7.81793,1.51423c-1.2129,-0.57069 -1.70403,-1.52632 -2.48695,-2.31352c-2.31737,-2.33012 -8.25252,-3.05439 -11.46928,-5.58889c-3.40936,-2.68626 2.89479,-5.92175 7.62565,-4.7044z" data-paper-data="{&quot;index&quot;:null}" fill="#000000" fill-rule="nonzero" stroke="none" stroke-width="1" stroke-linecap="butt"/><path d="M353.90785,387.20717c-0.34864,0.02402 -0.70832,0.0515 -0.92133,0.05738c-0.62075,0.01717 -1.42906,-0.32982 -1.89811,-0.13054c-0.14067,-0.47263 -0.3729,-0.94828 -0.78509,-1.36269c-1.58906,-1.59778 -7.03622,-4.80297 -10.42436,-5.02417c-0.27561,-0.01802 -0.43256,0.39908 -0.68373,0.3274c-0.83566,-0.2385 0.32599,-2.42102 0.06803,-2.65912c-0.05843,-0.0539 -0.14266,-0.07857 -0.24197,-0.08673c0.30574,0.00296 0.60515,0.00312 0.79027,-0.00199c0.65064,-0.01799 1.36218,-0.05758 1.96489,0.09752c5.30583,1.31322 10.58851,3.63859 11.08758,7.75464c0,0 0.05524,0.48804 0.64758,0.79289c0.1161,0.10392 0.24736,0.18364 0.39629,0.23534z" data-paper-data="{&quot;noHover&quot;:false,&quot;origItem&quot;:[&quot;Path&quot;,{&quot;applyMatrix&quot;:true,&quot;segments&quot;:[[[607.563,601.99816],[0.02649,0.38155],[-0.10299,0.15484]],[[607.10872,602.39727],[0.1976,-0.11227],[-0.59254,0.60273]],[[605.61718,603],[0,0],[-7.618,0]],[[590.90604,613.89443],[2.69308,-5.58508],[-0.31682,0.63364]],[[590.61718,616],[0,-0.70843],[0,0.20156]],[[590.57685,616.85325],[0.02106,-0.33136],[0.02013,-0.10671]],[[590.74964,616.60263],[-0.10238,0.05628],[0.45234,-0.24865]],[[595.61718,617],[-0.48256,0.87548],[0.14503,-0.26312]],[[594.95308,616.3906],[-0.04725,0.29671],[0.58086,-3.64773]],[[604.72276,605.71115],[-3.02833,1.51416],[0.78545,-0.39273]],[[607.27135,605.03032],[-0.87898,0.0905],[-0.34365,-0.53523]],[[607.61718,603],[0,0.6759],[0,-0.23192]]],&quot;closed&quot;:true}],&quot;index&quot;:null}" fill="#ffffff" fill-rule="nonzero" stroke="none" stroke-width="1" stroke-linecap="butt"/><path d="M387.76012,295.47753c0.60214,4.68236 1.1357,9.36643 1.60281,14.05234c-0.51793,-2.33721 -0.90454,-4.69205 -1.15988,-7.06453c-0.28597,-2.3585 -0.43293,-4.68781 -0.44291,-6.98781z" fill="#884f38" fill-rule="evenodd" stroke="none" stroke-width="1" stroke-linecap="butt"/><path d="M355.46423,257.02292l267.58093,-7.27607l-4.63132,60.51054l32.19662,-1.65402l-0.64402,1.49596l-5.45037,77.58119l-15.38601,0.35156l-231.26288,6.39497l-5.72119,-0.38379l-19.45075,0.83349l-15.83863,-130.62476z" fill="#d5d5d5" fill-rule="nonzero" stroke="#000000" stroke-width="1" stroke-linecap="round"/><path d="M396.70022,255.46384l18.2905,138.93314l-42.11304,1.5587l-17.85834,-138.77264z" fill="#65675c" fill-rule="nonzero" stroke="#000000" stroke-width="1" stroke-linecap="round"/><path d="M360.08096,290.84346l106.72659,-3.04979l1.35571,24.79545l-105.37787,3.11103z" fill="#242424" fill-rule="nonzero" stroke="#000000" stroke-width="1" stroke-linecap="round"/><path d="M369.614,293.73323l90.29745,-2.39839l1.8037,18.2792l-90.66492,3.19691z" fill="#b57047" fill-rule="nonzero" stroke="#000000" stroke-width="1" stroke-linecap="round"/><path d="M411.82985,265.36789l53.88341,-1.49l2.87644,20.31894l-57.11877,1.1853z" fill="#242424" fill-rule="nonzero" stroke="#000000" stroke-width="1" stroke-linecap="round"/><path d="M417.32546,269.84746l41.70172,-1.54732l0.90733,12.58847l-40.55111,0.8257z" fill="#593f1e" fill-rule="nonzero" stroke="#000000" stroke-width="1" stroke-linecap="round"/><path d="M489.99918,328.02325l2.5717,46.737l-82.41084,2.77157l-3.84143,-46.99752z" fill="#242424" fill-rule="nonzero" stroke="#000000" stroke-width="1" stroke-linecap="round"/><path d="M480.97934,331.91877l2.98399,39.9261l-66.61061,2.03903l-4.66501,-40.17526z" fill="#593f1e" fill-rule="nonzero" stroke="#000000" stroke-width="1" stroke-linecap="round"/><path d="M555.71228,290.92759l-51.83755,-49.71059l10.35229,-4.81926l55.21698,53.75597l-53.00782,49.55497l1.54239,75.68796l-9.04591,-1.4251l-1.22907,-78.20949z" fill="#838e8a" fill-rule="nonzero" stroke="#000000" stroke-width="1" stroke-linecap="round"/><path d="M615.68448,255.83837l-0.92397,21.31092l-53.09649,1.17262l-4.11324,0.11375l1.2368,-20.43269l0.15804,-0.39854z" fill="#242424" fill-rule="nonzero" stroke="#000000" stroke-width="1" stroke-linecap="round"/><path d="M609.81234,258.46433l-0.01701,15.17615l-43.63604,0.911l-0.09338,-14.38476z" fill="#593f1e" fill-rule="nonzero" stroke="#000000" stroke-width="1" stroke-linecap="round"/><path d="M619.36692,310.03395l3.63636,-69.99246l12.33423,-3.79009l-6.79102,73.33163z" fill="#838e8a" fill-rule="nonzero" stroke="#000000" stroke-width="1" stroke-linecap="round"/><path d="M659.61475,298.62322l-5.74519,97.27339l-10.00276,-0.80737l7.69416,-94.81443z" fill="#838e8a" fill-rule="nonzero" stroke="#000000" stroke-width="1" stroke-linecap="round"/><path d="M624.89189,325.49143c1.64067,4.86711 -5.55181,10.79325 -14.18496,13.01517c-5.58795,1.43819 -13.00314,2.15597 -19.28609,2.07538c-5.66071,-0.08158 -10.68925,-0.26185 -16.22283,-0.85441c-3.04215,-0.32577 -6.96791,-0.51717 -9.4037,-1.56635c-2.35925,-1.01624 -2.80476,-2.91565 -3.65227,-4.28445c-3.23223,-5.22056 -0.49988,-9.77962 6.05117,-14.13522c2.37986,-1.55427 6.55089,-3.41333 10.47507,-4.11293c6.50623,-1.15991 17.25559,-0.89934 23.74333,0.18808c5.76415,0.96615 7.94072,3.16026 12.43516,4.79396c2.44676,0.88939 5.97829,0.58627 7.96435,1.75468c0.5754,0.3385 0.72098,0.80113 1.08147,1.20171l1.18979,0.98489c0,0 0.64785,0.53849 -0.19049,0.93952zM617.94258,322.89577c-1.54685,-0.27964 -3.40267,-0.39923 -5.10922,-1.00418c-2.4492,-0.86822 -3.79967,-2.26499 -6.13823,-3.15495c-6.19715,-2.35844 -19.39527,-2.91335 -26.78728,-1.61976c-3.30134,0.57773 -7.02926,2.23664 -8.99376,3.56112c-5.97426,3.94429 -8.50528,8.01029 -5.55662,12.74338c0.59984,0.96283 0.98337,2.84479 2.70286,3.55909c1.94142,0.8065 5.50109,0.93075 7.87105,1.18423c5.33213,0.5703 10.13054,0.73769 15.59055,0.81637c5.67035,0.09183 12.48775,-0.58114 17.53727,-1.86951c7.97531,-2.03487 14.45036,-7.69784 12.24142,-12.02652c-0.35915,-0.70382 -1.9864,-1.09533 -2.94802,-1.65559c0,0 -0.40296,-0.23476 -0.41004,-0.53369z" data-paper-data="{&quot;index&quot;:null}" fill="#080000" fill-rule="nonzero" stroke="none" stroke-width="0.5" stroke-linecap="butt"/><path d="M618.40545,323.42069c0.96162,0.56025 2.59096,0.95556 2.95014,1.65938c2.20896,4.32868 -4.28561,10.01728 -12.2609,12.05215c-5.04953,1.28836 -11.90545,1.96733 -17.57581,1.8755c-5.46001,-0.07868 -10.28937,-0.25157 -15.6215,-0.82187c-2.36993,-0.25347 -5.93946,-0.38238 -7.88088,-1.18889c-1.71949,-0.7143 -2.1103,-2.60203 -2.71013,-3.56485c-2.94865,-4.7331 -0.41297,-8.82464 5.56128,-12.76891c1.96449,-1.3245 5.71066,-2.99163 9.012,-3.56936c7.39201,-1.29358 20.65168,-0.73709 26.84884,1.62135c2.33852,0.88997 3.70362,2.29438 6.15279,3.1626c1.70654,0.60496 3.56646,0.72849 5.11333,1.00812c0.0071,0.29891 0.4109,0.5348 0.4109,0.5348z" data-paper-data="{&quot;noHover&quot;:false,&quot;origItem&quot;:[&quot;Path&quot;,{&quot;applyMatrix&quot;:true,&quot;segments&quot;:[[[242.36308,94.44509],[0.55935,0.02605],[-0.60288,1.35103]],[[240.22113,98.89885],[1.21949,-1.45844],[-1.75016,2.09309]],[[234.00416,104.03862],[1.78511,-1.99193],[-4.73058,5.27863]],[[229.59018,127.78406],[-2.0367,-6.74107],[0.90961,3.01063]],[[235.78421,136.201],[-2.37514,-1.89768],[7.06666,5.76203]],[[259.32625,142.54284],[-9.00308,2.12064],[1.83146,-0.43139]],[[266.12128,140.51457],[-1.42462,1.45816],[1.60848,-1.64635]],[[268.74272,133.61401],[-0.59653,2.0889],[1.34214,-4.69981]],[[271.07546,119.78016],[-0.42946,4.86722],[0.46491,-5.05363]],[[268.48641,103.9171],[2.14806,4.64868],[-3.3927,-7.34221]],[[246.63053,91.68342],[8.20857,-1.50389],[-1.33466,0.24452]],[[243.38226,94.13672],[1.09735,-0.79807],[0,0]]],&quot;closed&quot;:true}],&quot;index&quot;:null}" fill="#ffffff" fill-rule="nonzero" stroke="none" stroke-width="0.5" stroke-linecap="butt"/><path d="M631.80131,354.17744c2.8684,3.41552 3.87339,6.98369 4.3222,10.71443c0.25686,2.13522 0.89574,4.90618 -1.77289,6.77622c-3.0861,2.16256 -9.0285,3.21721 -13.55533,4.48863c-6.31672,1.7739 -11.73676,3.31215 -19.22933,3.51364c-1.87396,0.0504 -3.79135,0.32087 -5.62437,0.12811c-5.48451,-0.57678 -10.48754,-2.31758 -15.64515,-3.32255c-8.39769,-1.63629 -16.52691,-3.11757 -17.84009,-7.88948c-1.41324,-5.63098 1.64101,-10.63086 7.89298,-15.36261c2.06233,-1.56087 4.70512,-3.64373 7.69546,-4.8328c6.06657,-2.4123 14.08746,-2.69333 21.57143,-2.90029c6.54875,-0.18109 13.01765,-0.36603 19.57367,-0.1578c2.9952,0.09512 6.53038,-0.28529 8.74333,0.94465c1.81367,1.00801 1.15406,2.22987 1.49018,3.41244c0.30181,1.06176 0.88128,2.13791 1.43944,3.17541l0.79305,0.80001c0,0 0.23757,0.24205 0.1454,0.512zM627.04511,352.1772c-0.38805,-0.75586 -0.73262,-1.52117 -0.94778,-2.28148c-0.21672,-0.76571 0.34087,-1.91754 -0.73034,-2.58696c-1.03382,-0.64601 -4.86743,-0.32889 -6.39998,-0.37773c-6.41623,-0.20445 -12.74756,-0.01855 -19.15686,0.15868c-6.71118,0.18558 -14.10742,0.35635 -19.57888,2.51583c-2.73661,1.0801 -5.16082,3.04397 -7.04474,4.47244c-5.8282,4.41913 -8.74471,9.05055 -7.4005,14.31633c0.9221,4.08574 8.74255,5.22593 15.77826,6.59884c4.92397,0.96083 9.72249,2.63252 14.92368,3.22509c1.59013,0.18115 3.26212,-0.10564 4.89455,-0.1471c6.92865,-0.17593 11.87267,-1.65498 17.71271,-3.29502c4.11816,-1.15632 9.60149,-2.10138 12.50539,-4.02485c2.19272,-1.45241 1.37801,-4.10292 1.17463,-5.7668c-0.51442,-4.20849 -1.68997,-8.20377 -5.78866,-11.99225c0,0 -0.48247,-0.44683 0.0585,-0.81498z" data-paper-data="{&quot;index&quot;:null}" fill="#080000" fill-rule="nonzero" stroke="none" stroke-width="0.5" stroke-linecap="butt"/><path d="M627.03192,352.97658c4.0987,3.78849 5.28421,7.80311 5.79862,12.0116c0.2034,1.66385 1.01243,4.32285 -1.18027,5.77526c-2.90387,1.92346 -8.40194,2.87713 -12.5201,4.03345c-5.84006,1.64003 -10.81454,3.12487 -17.74318,3.30081c-1.63243,0.04144 -3.31286,0.32828 -4.90297,0.14713c-5.2012,-0.59254 -10.02684,-2.26867 -14.9508,-3.22952c-7.03576,-1.37293 -14.87769,-2.5262 -15.7998,-6.61195c-1.3442,-5.26579 1.57917,-9.92166 7.40735,-14.3408c1.88391,-1.42845 4.32251,-3.39908 7.05912,-4.47916c5.47146,-2.15948 12.90079,-2.33482 19.61199,-2.5204c6.40932,-0.17724 12.76806,-0.3592 19.18428,-0.15476c1.53257,0.04883 5.37258,-0.26611 6.40638,0.37992c1.07124,0.66944 0.51798,1.82314 0.7347,2.58886c0.21519,0.76033 0.56393,1.52794 0.95199,2.28379c-0.54098,0.36814 -0.05727,0.81578 -0.05727,0.81578z" data-paper-data="{&quot;noHover&quot;:false,&quot;origItem&quot;:[&quot;Path&quot;,{&quot;applyMatrix&quot;:true,&quot;segments&quot;:[[[297.58827,89.48717],[0.66043,0.52295],[-1.43347,0.2647]],[[293.273,90.08651],[1.43289,-0.10983],[-1.44305,0.11061]],[[288.39778,90.45861],[1.30718,-0.88414],[-1.26148,0.85323]],[[287.36052,96.13283],[0.17056,-1.36327],[-0.71408,5.70749]],[[286.66667,113.25695],[0,-5.74266],[0,6.01312]],[[290.35873,131.01313],[-3.75518,-5.11979],[1.8782,2.56072]],[[298.35761,137.78829],[-2.5737,-1.83699],[7.96215,5.68303]],[[324.74561,145.947],[-9.91619,0.63019],[7.68777,-0.38104]],[[337.9009,132.57163],[-2.93108,6.1342],[2.05132,-4.29303]],[[344.70331,119.59411],[-1.37698,4.58048],[0.42097,-1.40035]],[[344.68132,115.2074],[-0.0069,1.46224],[0.02929,-6.20628]],[[339.43573,99.03331],[2.76479,5.39271],[-1.9493,-3.80268]],[[332.55614,87.4303],[3.44661,2.8014],[-2.60252,-2.11533]],[[321.83333,85.75695],[3.12183,-0.00146],[-7.89622,0.00369]],[[299.10921,89.62767],[7.2962,-3.24989],[0,0]]],&quot;closed&quot;:true}],&quot;index&quot;:null}" fill="#ffffff" fill-rule="nonzero" stroke="none" stroke-width="0.5" stroke-linecap="butt"/><path d="M587.80327,349.233c2.31147,-0.06391 4.29385,0.77912 4.42768,1.88296c0.13384,1.10385 -1.63151,2.05053 -3.943,2.11445c-2.31147,0.06391 -4.29383,-0.77912 -4.42768,-1.88298c-0.13384,-1.10385 1.6315,-2.05052 3.94299,-2.11444z" data-paper-data="{&quot;index&quot;:null}" fill="#000000" fill-rule="nonzero" stroke="none" stroke-width="0.5" stroke-linecap="butt"/><path d="M591.83078,335.29866c2.31147,-0.06391 4.29385,0.77912 4.42769,1.88299c0.13384,1.10385 -1.63151,2.05052 -3.94299,2.11444c-2.3115,0.06392 -4.29385,-0.77912 -4.42768,-1.88296c-0.13384,-1.10385 1.6315,-2.05053 3.943,-2.11445z" data-paper-data="{&quot;index&quot;:null}" fill="#000000" fill-rule="nonzero" stroke="none" stroke-width="0.5" stroke-linecap="butt"/><path d="M681.49763,295.54224c0.07112,0.58646 -0.67463,0.82553 -1.23817,0.92222c-7.70297,4.8589 -11.94567,11.08068 -17.05994,16.63603c-6.85182,5.55477 -13.61073,11.12933 -20.94292,16.54277c-4.18929,3.09299 -9.75734,6.25884 -12.77269,9.64668c0,0 -0.77232,0.85842 -2.56986,0.48957c-1.79753,-0.36881 -1.02519,-1.22724 -1.02519,-1.22724c3.16805,-3.4889 8.75487,-6.72888 13.0823,-9.92387c7.26177,-5.36143 13.92978,-10.88728 20.74598,-16.37996c5.30091,-5.78646 9.75103,-12.21463 17.91212,-17.21618l1.80217,-0.36875c0,0 1.95314,-0.05401 2.06626,0.87872z" data-paper-data="{&quot;index&quot;:null}" fill="#000000" fill-rule="nonzero" stroke="none" stroke-width="0.5" stroke-linecap="butt"/><path d="M704.63592,397.54578c-1.74435,0.42307 -2.63026,-0.40996 -2.63026,-0.40996l-1.67102,-1.57125c-8.28885,-7.79392 -16.78281,-15.37893 -26.26928,-22.856c-3.87921,-3.06039 -8.53803,-5.89758 -12.92307,-8.79695c-8.27638,-5.47229 -16.59526,-10.87327 -26.04225,-15.87623c0,0 -1.30846,-0.6946 0.14605,-1.31945c1.45452,-0.62485 2.76296,0.06975 2.76296,0.06975c9.51634,5.06524 17.94435,10.50366 26.30526,16.03186c4.4478,2.94089 9.15752,5.82006 13.09758,8.92273c9.53661,7.51658 18.07894,15.14316 26.41147,22.97816l1.67102,1.57124c0,0 0.88591,0.83302 -0.85845,1.25609z" data-paper-data="{&quot;index&quot;:null}" fill="#000000" fill-rule="nonzero" stroke="none" stroke-width="0.5" stroke-linecap="butt"/><path d="M607.10254,320.84135c-0.19416,-0.72609 -0.40274,-1.46285 0.32124,-2.11631c0.86107,-0.77718 2.26639,-0.60665 3.86819,-0.65094c4.0845,-0.11295 7.81755,0.91812 9.95974,2.60693c4.64612,3.88166 3.30414,8.37015 0.38377,12.39351c-0.65838,1.45682 -0.91288,2.99204 -3.01922,4.16307c-0.76912,0.4276 -1.76667,0.57487 -2.78476,0.72202c-0.6837,0.09882 -1.13321,0.41919 -1.75402,0.58794c-3.106,0.84429 -6.85256,1.25685 -10.37097,1.35413c-0.97854,0.02706 -3.14641,0.2677 -4.05796,0.07322c-1.25013,-0.2667 -1.43622,-1.84325 -1.2273,-2.39989c0.91134,-2.428 1.84688,-4.82771 3.67286,-7.16129c2.46792,-3.15383 3.79805,-6.30979 5.00842,-9.57239z" fill="#000000" fill-rule="nonzero" stroke="none" stroke-width="0.5" stroke-linecap="butt"/><path d="M596.65343,346.67485c0.23967,-0.00663 0.40061,0.02895 0.5086,0.07812c0.20201,-0.00706 0.40244,-0.01494 0.60144,-0.02361c-0.1056,-0.27849 -0.21069,-0.55704 -0.3152,-0.83565c0,0 -0.12144,-0.32372 0.55644,-0.38171c0.67787,-0.058 0.79931,0.26572 0.79931,0.26572c0.10989,0.29292 0.2204,0.58578 0.33151,0.87857c2.49073,-0.15614 4.80928,-0.42601 7.30794,-0.71327c4.04085,-0.46457 8.94178,-0.25607 13.10093,-0.37109c1.67199,-0.04622 3.99531,-0.27105 5.61114,-0.02866c1.83983,0.276 4.45873,1.58289 5.17607,2.40291c0.58902,0.67333 0.46433,1.49195 0.87471,2.17574c0.74734,1.24524 1.55396,2.51203 2.32627,3.76506c2.67478,4.33973 3.89923,8.9144 5.86079,13.34534c0.07509,1.53802 0.59396,3.15377 -1.63897,4.43642c-0.89977,0.51685 -2.86495,0.75513 -4.06654,1.08492c-3.90601,1.07209 -7.90558,1.99713 -11.73719,3.13722c-2.20862,0.65682 -4.57854,1.40868 -7.20721,1.48821c-0.9725,0.02942 -2.39898,0.17543 -3.15948,-0.24535c-0.28955,-0.1602 -0.11991,-0.41941 -0.19334,-0.62811c-0.21847,-0.62101 -0.42232,-1.26995 -0.74297,-1.88052c-0.84576,-1.61047 -2.10819,-3.16644 -2.84435,-4.7941c-1.87838,-4.1629 -3.84229,-8.3358 -5.81551,-12.49236c-1.36313,-3.31736 -2.70606,-6.63449 -3.97701,-9.9596c-0.41599,0.01877 -0.83769,0.03424 -1.26643,0.04611l-0.73867,-0.40299c0,0 -0.0398,-0.32832 0.64769,-0.34734z" fill="#000000" fill-rule="nonzero" stroke="none" stroke-width="0.5" stroke-linecap="butt"/><path d="M515.50546,319.17246c-0.06439,-0.531 1.04754,-0.56175 1.04754,-0.56175l0.14707,-0.00407c2.73088,-0.07552 5.63381,-0.29823 8.3617,-0.2278c2.86968,0.07409 5.57606,0.83318 8.46341,1.03959c1.57647,0.11269 3.16193,0.00502 4.74751,0.16217c3.09972,0.32038 11.15206,-0.43226 12.94531,1.30299c0.98875,0.95678 -1.07975,2.39754 -2.2328,3.09034c-2.87865,1.72959 -6.80027,4.26954 -11.28379,5.25309l0.06875,0.03465l-0.02874,0.01301l0.03595,0.00318c2.73501,0.2324 7.38661,0.07644 9.72583,0.83264c0.70184,0.22688 1.51749,0.58142 1.48423,0.98584c-0.03882,0.47205 -1.0556,0.80088 -1.66184,1.17418c-1.99392,1.22775 -4.85957,2.19323 -7.13231,3.30156c-0.84104,0.40985 -1.74317,1.04225 -2.87518,1.37294c2.31592,0.16539 6.39009,0.52321 8.40236,0.91251c0.97623,0.18886 2.23481,0.35605 2.65683,0.81692c0.38497,0.4204 -1.33173,2.03623 -1.81857,2.37948c-2.26536,1.59717 -6.09783,2.74571 -9.52253,3.6868c-1.09189,0.30005 -2.01682,0.64208 -3.05075,0.86505c2.92687,0.06252 7.41749,0.191 7.38927,1.8874c-0.00584,0.3517 -0.69353,0.62127 -1.08632,0.91878c-1.85854,1.40765 -4.47856,2.59983 -6.78714,3.83747c-1.42763,0.6961 -2.72182,1.2242 -4.31879,1.77498c-0.20296,0.06999 0.4718,-0.09905 0.72215,-0.09852c1.23105,0.00263 2.44845,0.15537 3.6795,0.15174c2.58455,-0.00761 6.7751,-0.56859 8.89326,0.40544c1.22219,0.56201 -0.49493,2.21364 -0.97479,2.65457c-2.44122,2.24314 -7.74939,4.16564 -11.52492,5.91869c-0.74579,0.33981 -1.57428,0.64028 -2.27154,1.00244c0.1422,-0.06989 0.38096,-0.1758 0.5293,-0.18642c0.72363,-0.05188 1.46264,0.02964 2.19437,0.02912c1.4692,-0.00104 2.93779,-0.03348 4.40557,-0.06446c4.21236,-0.08896 9.01987,-0.58536 13.20497,-0.35431c5.70681,0.31504 0.40392,2.82968 -1.43647,3.59368c-1.69042,0.70174 -3.51379,1.23447 -5.39328,1.8097c-5.46229,1.56507 -11.09842,2.99478 -16.11781,4.86937c-5.40637,2.0191 -8.79278,4.14567 -15.53867,5.21622c0,0 -1.05696,0.16773 -1.40821,-0.33701c-0.35124,-0.50475 0.70571,-0.6725 0.70571,-0.6725c6.45427,-1.02428 9.67603,-3.10217 14.8682,-5.04442c5.08172,-1.90093 10.78378,-3.35079 16.31664,-4.93568c1.15326,-0.35304 2.35698,-0.67094 3.46093,-1.05828c1.74392,-0.61188 3.79824,-1.50043 5.11891,-2.2744c0.19544,-0.11453 -0.58761,-0.11119 -0.89693,-0.11399c-0.6618,-0.006 -1.32043,0.04568 -1.98105,0.06566c-1.37213,0.0415 -2.74515,0.07591 -4.11774,0.11387c-3.72207,0.10292 -7.45711,0.2477 -11.18743,0.25036c-0.45554,0.00032 -4.45252,0.00657 -4.70112,-0.30011c-0.80023,-0.98709 1.58365,-1.84838 2.6928,-2.37151c3.45119,-1.60244 7.55481,-3.23354 10.32946,-5.10093c0.28517,-0.19192 2.36363,-1.95716 1.96859,-2.05417c-2.32302,-0.5704 -6.91986,0.06319 -9.46406,-0.05027c-0.92225,-0.04113 -4.1087,-0.19051 -4.26175,-0.85782c-0.11553,-0.50374 1.18442,-0.8428 1.856,-1.23514c0.00311,-0.00182 2.95403,-1.43974 3.02036,-1.47206c1.76369,-0.94606 3.72762,-1.85947 5.34272,-2.86386c0.08386,-0.05215 2.62657,-1.31878 1.62603,-1.56952c-1.78006,-0.44609 -4.32147,-0.39219 -6.24862,-0.45447l-0.05398,-0.01083l-0.00247,0.00693l-1.91527,-0.15603c-0.51071,-0.03632 -0.91569,-0.23946 -0.94672,-0.49537c-0.02467,-0.20344 0.19348,-0.3868 0.53443,-0.48569l1.86269,-0.56382l0.12251,0.0923c3.77642,-1.38104 8.08847,-2.34803 11.47068,-4.04824c0.51857,-0.26068 2.93862,-1.55355 2.63695,-1.91325c-0.41677,-0.49695 -2.19071,-0.23183 -3.29954,-0.31038c-2.29959,-0.16293 -4.46171,-0.36055 -6.60039,-0.80655c-0.71569,-0.14925 -2.03111,-0.11023 -2.1153,-0.481c-0.11642,-0.51265 1.08813,-0.89222 1.70755,-1.3146c0.38153,-0.26016 2.34055,-1.19114 2.60747,-1.32127c2.3571,-1.14849 6.44148,-2.3443 8.1579,-3.71993c0.63346,-0.50768 -2.38768,-0.32212 -3.61059,-0.41259c-1.93347,-0.14305 -3.8389,-0.20695 -5.77098,-0.37067l-0.00391,-0.00072l-0.00014,0.00038l-2.16756,-0.19187c-0.50359,-0.03921 -0.90094,-0.24086 -0.93167,-0.49425c-0.01991,-0.16419 0.11834,-0.31529 0.35166,-0.41947l1.61123,-0.72905l0.14426,0.0727c2.98625,-1.54639 6.54945,-2.79118 9.36979,-4.45095c0.78676,-0.46301 4.13824,-1.9642 3.43493,-2.79065c-0.24716,-0.29045 -1.83614,-0.28759 -2.19201,-0.31463c-3.08514,-0.23439 -6.13727,-0.08323 -9.1832,-0.38455c-1.52216,-0.15717 -3.03804,-0.04183 -4.55964,-0.14716c-2.79845,-0.19374 -5.56464,-0.97838 -8.31406,-1.03321c-2.65654,-0.05297 -5.45136,0.15417 -8.10923,0.22766l-0.14707,0.00407c0,0 -1.11193,0.03075 -1.17631,-0.50025z" fill="#080000" fill-rule="nonzero" stroke="none" stroke-width="0.5" stroke-linecap="butt"/></g></g></g></svg>