<svg version="1.1" xmlns="http://www.w3.org/2000/svg" xmlns:xlink="http://www.w3.org/1999/xlink" width="1733.09309" height="836.33634" viewBox="0,0,1733.09309,836.33634"><g transform="translate(546.54655,238.16817)"><g data-paper-data="{&quot;isPaintingLayer&quot;:true}" stroke-linejoin="miter" stroke-miterlimit="10" stroke-dasharray="" stroke-dashoffset="0" style="mix-blend-mode: normal"><path d="M-546.54655,598.16817v-836.33634h1733.09309v836.33634z" fill="none" fill-rule="nonzero" stroke="#f00000" stroke-width="0" stroke-linecap="butt"/><g><path d="M272.1754,303.48791l5.97331,-38.53259l36.19138,-7.37078l-0.5681,37.81526z" data-paper-data="{&quot;index&quot;:null}" fill="#cedce9" fill-rule="nonzero" stroke="#000000" stroke-width="1" stroke-linecap="round"/><path d="M268.35986,302.27033c-1.35095,-0.26474 -4.48489,-0.47754 -3.33822,-1.55047c-0.66296,0.40127 -1.5532,0.90691 -2.04328,1.09164c-2.32169,0.87522 -5.51282,1.07192 -7.99047,1.55368c-6.79728,1.32168 -13.43855,2.38808 -19.81849,4.69497c-2.88327,1.04255 -3.97952,-0.23253 -4.50248,1.95148c-1.22883,3.73281 -4.18831,7.42606 -5.80565,11.25784c-2.19205,5.19326 -2.52621,9.86037 -3.522,14.83396c-1.40273,4.20916 1.75666,11.15264 2.57755,15.37439c0.21973,1.13008 1.21125,3.02493 0.79957,3.96825c0.57822,-0.06881 1.13625,-0.13755 1.48689,-0.20573c2.33055,-0.45316 4.66108,-0.90631 6.99167,-1.35947c9.27059,-1.8026 20.00981,-4.06151 28.65289,-7.63715c10.30496,-4.02537 22.42722,-3.48339 32.85691,-7.32589c5.72723,-2.02369 12.25744,-2.75248 18.26355,-3.91389c3.04691,-0.58919 5.47292,-2.03563 7.14929,-0.54869c0.44062,0.39083 -0.2102,-1.08105 -0.31529,-1.62153c-0.26274,-1.35125 -0.52549,-2.70257 -0.78824,-4.05383c-1.47138,-7.56718 -2.94275,-15.13437 -4.41413,-22.70155c-0.34785,-1.78893 -2.16998,-8.07677 -1.10954,-9.00171c-0.22629,0.03273 -0.48349,0.06439 -0.62459,0.08325c-1.25016,0.16712 -1.92993,0.35666 -3.00309,-0.01441c-1.86307,-0.64426 -7.36929,1.18984 -9.63965,1.63129c-8.82279,1.71552 -17.64557,3.43104 -26.4684,5.14656c0,0 -1.99761,0.38842 -2.3129,-1.2331c-0.01295,-0.06657 -0.02199,-0.13102 -0.02743,-0.19346c-0.98689,0.02141 -1.99586,-0.01892 -3.05447,-0.22637zM299.59249,295.53368c5.32591,-1.03558 11.98314,-3.12896 16.25955,-0.54843c2.45057,1.47874 2.25116,7.78634 2.7431,10.31634c1.47138,7.5672 2.94275,15.13438 4.41413,22.70156c0.16802,0.8641 1.68953,5.01681 1.10353,5.67538c-5.91898,6.6519 -19.82158,5.06547 -28.00617,8.2672c-10.19855,3.75732 -22.95975,2.85755 -32.67805,7.25596c-8.90809,3.68526 -20.04087,6.06316 -29.60305,7.92244c-1.37159,0.2667 -9.43316,2.70928 -10.48748,2.0392c-3.02342,-1.92155 -2.85997,-4.04664 -3.41644,-6.90851c-1.00653,-5.17651 -3.33673,-11.12701 -2.5719,-16.43981c1.02062,-5.09756 1.45946,-10.09652 3.6562,-15.30092c0.88615,-2.09939 1.75035,-4.84513 3.03599,-6.83561c0.84127,-1.30247 2.68431,-2.58618 2.65889,-4.06175c0.97878,-4.08774 4.30642,-3.45777 7.83812,-4.79951c6.28681,-2.38847 13.07938,-3.38461 19.81849,-4.69497c2.48535,-0.48326 7.16087,-2.35597 8.97032,-2.40798c3.14986,-0.09052 5.33009,1.67822 8.41017,1.7304c2.26012,0.0383 4.49458,-0.67898 7.22814,-0.14331c0.20753,0.04067 0.41501,0.08134 0.62257,0.122c6.66799,-1.29654 13.33599,-2.59307 20.00397,-3.88961z" data-paper-data="{&quot;index&quot;:null}" fill="#000000" fill-rule="nonzero" stroke="none" stroke-width="1" stroke-linecap="butt"/><path d="M271.42695,302.41349c0.00542,0.06247 0.01471,0.12691 0.02766,0.19346c0.31529,1.62153 2.32324,1.23397 2.32324,1.23397c8.82279,-1.71552 17.69887,-3.40793 26.5217,-5.12346c2.27035,-0.44145 7.78317,-2.26901 9.64623,-1.62475c1.07313,0.37111 1.75503,0.18395 3.00514,0.01684c0.14112,-0.01886 0.39857,-0.05012 0.6249,-0.08284c-1.06046,0.92495 0.77078,7.22712 1.11863,9.01606c1.47138,7.5672 2.94735,15.18019 4.41872,22.7474c0.26274,1.35124 0.52334,2.70979 0.78609,4.06106c0.1051,0.5405 0.75487,2.01508 0.31426,1.62425c-1.67638,-1.48694 -4.10409,-0.03655 -7.15097,0.55262c-6.0061,1.16144 -12.5509,1.91226 -18.27813,3.93593c-10.42971,3.8425 -22.65475,3.33682 -32.95971,7.36219c-8.64307,3.57566 -19.43152,5.81486 -28.70217,7.61745c-2.33055,0.45316 -4.66616,0.902 -6.99673,1.35516c-0.35068,0.06819 -0.90966,0.136 -1.48782,0.20483c0.41168,-0.94333 -0.58468,-2.84319 -0.80441,-3.97327c-0.82088,-4.22177 -3.99513,-11.19148 -2.59237,-15.40066c0.99577,-4.97356 1.32807,-9.67228 3.52011,-14.86552c1.61739,-3.8318 4.5871,-7.55212 5.81596,-11.28492c0.52295,-2.18403 1.62422,-0.9163 4.5075,-1.95886c6.37991,-2.30691 13.05962,-3.40435 19.85688,-4.72602c2.47759,-0.48174 5.69581,-0.68792 8.01751,-1.56315c0.49004,-0.18476 1.38822,-0.69192 2.05117,-1.09317c-1.1467,1.07289 1.99926,1.28438 3.35021,1.54912c1.05868,0.20745 2.07966,0.24764 3.06654,0.22625z" data-paper-data="{&quot;noHover&quot;:false,&quot;origItem&quot;:[&quot;Path&quot;,{&quot;applyMatrix&quot;:true,&quot;segments&quot;:[[[579.60736,595.76373],[0.95609,-0.20262],[0.00646,0.07548]],[[579.61718,596],[0,-0.08208],[0,2]],[[577.61718,598],[0,0],[-8.83333,0]],[[551.11718,598],[8.83333,0],[-2.27308,0]],[[541.51161,598.28885],[1.67648,-1.19621],[-0.96568,0.68904]],[[538.61718,599],[1.23739,-0.09027],[-0.13966,0.01019]],[[537.99901,599.04541],[0.22447,-0.0134],[1.19653,0.85421]],[[538.61718,610],[0,-2.20646],[0,9.33333]],[[538.61718,638],[0,-9.33333],[0,1.66667]],[[538.61718,643],[0,-1.66667],[0,0.66667]],[[538.61718,645],[-0.35177,0.56631],[1.33831,-2.15456]],[[545.61718,644],[-3.04994,0.00386],[6.01206,-0.00761]],[[563.97058,644.43107],[-5.90478,-1.08158],[10.78253,2.15651]],[[597.04254,645.54479],[-10.6965,-2.40266],[9.00888,2.25222]],[[626.11718,648],[-9.28168,0],[2.33333,0]],[[633.11718,648],[-2.33333,0],[0.35109,0]],[[634.59021,647.90091],[-0.5707,0.05184],[-0.57412,-1.02596]],[[634.61718,643],[0,1.39387],[0,-5.20707]],[[634.21982,624.13246],[2.14282,4.67827],[-1.8936,-5.6808]],[[628.03948,607.31672],[3.08887,5.66543],[-2.2791,-4.1802]],[[620.32688,595.27881],[1.8857,4.15235],[-0.91417,-2.47477]],[[615.61718,594],[2.9771,0.57275],[-6.58756,-1.26734]],[[595.61718,593],[6.8054,0],[-2.48058,0]],[[587.61718,593],[2.40395,0.50364],[-0.50743,-0.10631]],[[585.44122,592.1748],[0.71481,0.32365],[1.30749,1.01011]],[[582.51161,594.78885],[1.25365,-0.62682],[-0.98239,0.4912]]],&quot;closed&quot;:true}],&quot;index&quot;:null}" fill="#484848" fill-rule="nonzero" stroke="none" stroke-width="1" stroke-linecap="butt"/><path d="M244.57871,313.80344c0.10656,0.548 0.92438,1.0783 0.66548,1.57897c0.8922,-0.09733 1.80645,-0.10884 2.65287,0.05702c3.26344,0.63952 10.28638,3.91654 11.44161,6.7612c0.09395,0.23139 -0.75356,0.4379 -0.56723,0.62305c0.62001,0.61612 4.30807,-1.38124 4.79906,-1.2675c0.11112,0.02577 0.17518,0.08707 0.2121,0.16961c-0.07326,-0.26457 -0.14304,-0.52054 -0.17482,-0.68396c-0.11169,-0.57438 -0.20408,-1.1988 -0.62042,-1.65102c-3.57033,-4.00519 -8.80214,-7.45534 -16.41109,-5.97584c0,0 -0.89792,0.17457 -1.58479,-0.19899c-0.21508,-0.05265 -0.38937,-0.1298 -0.51666,-0.23534c0.03371,0.31449 0.06727,0.63475 0.10383,0.82279zM263.92314,322.66339c0.20089,0.30548 0.05352,-0.23776 -0.10387,-0.80543c0.03916,0.25205 -0.03343,0.5967 0.10387,0.80543zM266.27884,317.24568c3.26801,3.5496 -1.2263,10.53813 -6.87677,8.82109c-5.33125,-1.62005 -7.96838,-6.44657 -12.72764,-7.37922c-1.60784,-0.3151 -3.45773,-0.29806 -4.76665,-1.0879c-2.07425,-1.25168 -2.35105,-6.84918 1.02265,-7.50517c2.42926,-0.47235 3.75015,-0.06546 6.01175,-0.50522l0.9988,-0.19421c0,0 1.14655,-0.22293 1.83952,0.37409c6.22215,0.41735 10.79381,3.66264 14.49833,7.47643z" data-paper-data="{&quot;index&quot;:null}" fill="#000000" fill-rule="nonzero" stroke="none" stroke-width="1" stroke-linecap="butt"/><path d="M244.39018,312.94075c0.12725,0.10552 0.30163,0.18266 0.5167,0.23532c0.68686,0.37357 1.58818,0.19472 1.58818,0.19472c7.60891,-1.47949 13.01789,2.03502 16.58819,6.04022c0.41635,0.4522 0.50223,1.08963 0.6139,1.66401c0.03177,0.16342 0.09854,0.42381 0.17183,0.68841c-0.03691,-0.08262 -0.10054,-0.14442 -0.21172,-0.17019c-0.49105,-0.11373 -4.20896,1.91156 -4.82895,1.29547c-0.18634,-0.18517 0.53862,-0.51562 0.4446,-0.74702c-1.15521,-2.84465 -8.20344,-6.0932 -11.46691,-6.73273c-0.84644,-0.1659 -1.76449,-0.14679 -2.6567,-0.04943c0.25886,-0.5007 -0.5527,-1.04258 -0.65925,-1.59056c-0.03656,-0.18803 -0.06639,-0.51369 -0.10002,-0.82819z" data-paper-data="{&quot;noHover&quot;:false,&quot;origItem&quot;:[&quot;Path&quot;,{&quot;applyMatrix&quot;:true,&quot;segments&quot;:[[[607.563,601.99816],[0.02649,0.38155],[-0.10299,0.15484]],[[607.10872,602.39727],[0.1976,-0.11227],[-0.59254,0.60273]],[[605.61718,603],[0,0],[-7.618,0]],[[590.90604,613.89443],[2.69308,-5.58508],[-0.31682,0.63364]],[[590.61718,616],[0,-0.70843],[0,0.20156]],[[590.57685,616.85325],[0.02106,-0.33136],[0.02013,-0.10671]],[[590.74964,616.60263],[-0.10238,0.05628],[0.45234,-0.24865]],[[595.61718,617],[-0.48256,0.87548],[0.14503,-0.26312]],[[594.95308,616.3906],[-0.04725,0.29671],[0.58086,-3.64773]],[[604.72276,605.71115],[-3.02833,1.51416],[0.78545,-0.39273]],[[607.27135,605.03032],[-0.87898,0.0905],[-0.34365,-0.53523]],[[607.61718,603],[0,0.6759],[0,-0.23192]]],&quot;closed&quot;:true}],&quot;index&quot;:null}" fill="#ffffff" fill-rule="nonzero" stroke="none" stroke-width="1" stroke-linecap="butt"/><path d="M373.43669,283.7985l-14.69669,-34.84714l36.31641,-6.72775l19.97688,33.48679z" fill="#cedce9" fill-rule="nonzero" stroke="#000000" stroke-width="1" stroke-linecap="round"/><path d="M418.1146,273.15186c-0.90374,0.58902 -1.82408,1.00448 -2.74709,1.35444c0.01836,0.05994 0.03412,0.12306 0.04706,0.18965c0.31529,1.62153 -1.68232,2.00994 -1.68232,2.00994c-8.82282,1.71552 -17.64561,3.43104 -26.4684,5.14656c-2.27035,0.44145 -8.06265,0.80425 -9.54856,2.0997c-0.85592,0.74619 -1.55718,0.82516 -2.77888,1.13867c-0.13789,0.03539 -0.38819,0.10241 -0.61026,0.15686c1.32977,0.46018 1.99654,6.97266 2.34439,8.7616c1.47138,7.5672 2.94275,15.1344 4.41413,22.70155c0.26274,1.35127 0.5255,2.70258 0.78824,4.05383c0.10509,0.54048 0.05323,2.14899 0.31529,1.62153c0.99705,-2.00677 3.78831,-1.57478 6.834,-2.17024c6.0037,-1.17378 12.33122,-2.94509 18.39945,-3.21493c11.10964,-0.34565 22.14557,-5.39054 33.20807,-5.5199c9.3532,0.07641 20.15639,-1.85341 29.42699,-3.65601c2.33059,-0.45317 4.6611,-0.90631 6.99167,-1.35947c0.35064,-0.06818 0.89377,-0.21356 1.45564,-0.36642c-0.73516,-0.72034 -0.52592,-2.84865 -0.74566,-3.97873c-0.82089,-4.22176 -0.49351,-11.84321 -3.37129,-15.22005c-2.7869,-4.23807 -4.84558,-8.43992 -8.82391,-12.4334c-2.93533,-2.94657 -7.06309,-5.26175 -9.60116,-8.26212c-1.30324,-1.82893 -1.84183,-0.23597 -4.90568,-0.12214c-6.77951,0.25185 -13.33652,1.75174 -20.13379,3.07342c-2.47767,0.48176 -5.50998,1.49516 -7.99047,1.55368c-0.52362,0.01236 -1.53845,-0.12284 -2.30347,-0.24645c1.46516,0.56508 -1.36069,1.93672 -2.51401,2.6884zM386.63315,278.60942c6.66799,-1.29654 13.33599,-2.59307 20.00397,-3.88961c0.17717,-0.11548 0.35432,-0.23092 0.53149,-0.3464c2.33367,-1.52095 4.6741,-1.69322 6.75519,-2.57562c2.83611,-1.20254 4.19469,-3.65938 7.14899,-4.75574c1.69711,-0.62982 6.73371,-0.64555 9.21905,-1.12881c6.73912,-1.31036 13.41005,-2.93208 20.13378,-3.07341c3.77713,-0.0794 6.62628,-1.9104 9.06549,1.51275c0.52933,1.37757 2.71912,1.87714 3.98717,2.76948c1.93785,1.36371 3.76796,3.58557 5.37621,5.19994c3.98685,4.00204 6.26693,8.47233 9.12332,12.81605c2.69992,4.63911 2.76923,11.02925 3.77575,16.20573c0.55647,2.86187 1.50432,4.77089 -0.57878,7.68536c-0.72641,1.01632 -9.11589,1.77251 -10.48747,2.0392c-9.56218,1.85928 -20.77486,3.8263 -30.41482,3.74753c-10.65837,-0.43635 -22.15261,5.17971 -33.01603,5.5177c-8.788,0.09845 -21.0832,6.77882 -29.06348,2.82953c-0.79009,-0.39102 -0.93552,-4.81128 -1.10353,-5.67538c-1.47138,-7.5672 -2.94275,-15.13437 -4.41413,-22.70156c-0.49194,-2.53 -3.04037,-8.30331 -1.32246,-10.59256c2.99785,-3.99493 9.95447,-4.54867 15.28038,-5.58424z" data-paper-data="{&quot;index&quot;:null}" fill="#000000" fill-rule="nonzero" stroke="none" stroke-width="1" stroke-linecap="butt"/><path d="M415.32451,274.43387c0.923,-0.34995 1.85453,-0.76981 2.75834,-1.35885c1.15333,-0.75167 3.99082,-2.1266 2.52564,-2.69163c0.76499,0.1236 1.78778,0.25725 2.31135,0.24491c2.48049,-0.05852 5.54149,-1.07329 8.01909,-1.55504c6.79724,-1.32167 13.40151,-2.80719 20.181,-3.05901c3.06385,-0.11383 3.60984,-1.70184 4.91309,0.1271c2.53805,3.00036 6.68547,5.3368 9.62085,8.28336c3.97833,3.99346 6.0471,8.2253 8.83399,12.46337c2.87782,3.37687 2.54649,11.0282 3.36738,15.24997c0.21973,1.13008 0.00788,3.26487 0.74304,3.98521c-0.56183,0.15284 -1.1055,0.29942 -1.45617,0.3676c-2.33056,0.45316 -4.66419,0.9122 -6.99475,1.36535c-9.27066,1.8026 -20.11213,3.76915 -29.46531,3.69273c-11.06252,0.12936 -22.20734,5.17912 -33.31699,5.52476c-6.06824,0.26985 -12.41754,2.02619 -18.42124,3.19996c-3.04567,0.59546 -5.83998,0.16045 -6.83702,2.16722c-0.26206,0.52746 -0.21218,-1.08317 -0.31728,-1.62366c-0.26274,-1.35127 -0.53021,-2.70848 -0.79295,-4.05973c-1.47138,-7.5672 -2.95566,-15.17857 -4.42704,-22.74578c-0.34784,-1.78892 -1.01157,-8.31812 -2.34136,-8.7783c0.2221,-0.05448 0.4725,-0.12196 0.61041,-0.15735c1.22165,-0.31351 1.92398,-0.39551 2.77987,-1.14169c1.48591,-1.29544 7.28189,-1.66678 9.55223,-2.10822c8.82283,-1.71553 17.68637,-3.47243 26.50917,-5.18795c0,0 2.00687,-0.39311 1.69159,-2.01463c-0.01294,-0.06655 -0.02846,-0.12979 -0.04686,-0.18973z" data-paper-data="{&quot;noHover&quot;:false,&quot;origItem&quot;:[&quot;Path&quot;,{&quot;applyMatrix&quot;:true,&quot;segments&quot;:[[[579.60736,595.76373],[0.95609,-0.20262],[0.00646,0.07548]],[[579.61718,596],[0,-0.08208],[0,2]],[[577.61718,598],[0,0],[-8.83333,0]],[[551.11718,598],[8.83333,0],[-2.27308,0]],[[541.51161,598.28885],[1.67648,-1.19621],[-0.96568,0.68904]],[[538.61718,599],[1.23739,-0.09027],[-0.13966,0.01019]],[[537.99901,599.04541],[0.22447,-0.0134],[1.19653,0.85421]],[[538.61718,610],[0,-2.20646],[0,9.33333]],[[538.61718,638],[0,-9.33333],[0,1.66667]],[[538.61718,643],[0,-1.66667],[0,0.66667]],[[538.61718,645],[-0.35177,0.56631],[1.33831,-2.15456]],[[545.61718,644],[-3.04994,0.00386],[6.01206,-0.00761]],[[563.97058,644.43107],[-5.90478,-1.08158],[10.78253,2.15651]],[[597.04254,645.54479],[-10.6965,-2.40266],[9.00888,2.25222]],[[626.11718,648],[-9.28168,0],[2.33333,0]],[[633.11718,648],[-2.33333,0],[0.35109,0]],[[634.59021,647.90091],[-0.5707,0.05184],[-0.57412,-1.02596]],[[634.61718,643],[0,1.39387],[0,-5.20707]],[[634.21982,624.13246],[2.14282,4.67827],[-1.8936,-5.6808]],[[628.03948,607.31672],[3.08887,5.66543],[-2.2791,-4.1802]],[[620.32688,595.27881],[1.8857,4.15235],[-0.91417,-2.47477]],[[615.61718,594],[2.9771,0.57275],[-6.58756,-1.26734]],[[595.61718,593],[6.8054,0],[-2.48058,0]],[[587.61718,593],[2.40395,0.50364],[-0.50743,-0.10631]],[[585.44122,592.1748],[0.71481,0.32365],[1.30749,1.01011]],[[582.51161,594.78885],[1.25365,-0.62682],[-0.98239,0.4912]]],&quot;closed&quot;:true}],&quot;index&quot;:null}" fill="#484848" fill-rule="nonzero" stroke="none" stroke-width="1" stroke-linecap="butt"/><path d="M444.48467,274.93334c-0.03656,-0.18803 -0.12543,-0.49756 -0.21205,-0.80174c-0.07848,0.14555 -0.21115,0.28241 -0.39085,0.41181c-0.49686,0.60372 -1.39475,0.77834 -1.39475,0.77834c-7.60893,1.47949 -11.16674,6.6387 -12.97612,11.68994c-0.21655,0.57529 -0.06823,1.18885 0.04345,1.76323c0.03178,0.16343 0.063,0.42689 0.09422,0.69963c0.00331,-0.09036 0.03972,-0.17121 0.13309,-0.23674c0.41261,-0.28945 4.58039,0.18042 4.92435,-0.62314c0.10338,-0.24148 -0.75976,-0.11537 -0.75936,-0.36511c0.00513,-3.07029 5.28843,-8.74015 8.07444,-10.55594c0.7226,-0.47094 1.57456,-0.80285 2.43822,-1.04694c-0.42762,-0.36718 0.13189,-1.16529 0.02534,-1.71328zM429.66414,289.61081c0.0668,0.58529 0.13371,1.14418 0.20551,0.78567c0.04908,-0.245 -0.14736,-0.53732 -0.20551,-0.78567zM425.65549,286.25617c2.00551,-4.92407 5.02802,-9.64597 10.64043,-12.36446c0.41877,-0.81319 1.56531,-1.03613 1.56531,-1.03613l0.9988,-0.19421c2.2616,-0.43975 3.33378,-1.31194 5.76305,-1.7843c3.37369,-0.65598 5.21453,4.63742 3.76043,6.57514c-0.91758,1.22275 -2.63906,1.90013 -4.01171,2.79477c-4.06302,2.64806 -4.69943,8.1111 -9.0352,11.61081c-4.59537,3.70925 -11.38095,-1.08599 -9.68114,-5.60154z" data-paper-data="{&quot;index&quot;:null}" fill="#000000" fill-rule="nonzero" stroke="none" stroke-width="1" stroke-linecap="butt"/><path d="M444.33632,274.06291c0.08665,0.30416 0.18104,0.61728 0.2176,0.80532c0.10656,0.548 -0.44283,1.35448 -0.0152,1.7217c-0.86369,0.24406 -1.722,0.57035 -2.44459,1.04133c-2.78605,1.81581 -8.10345,7.46875 -8.10856,10.53902c-0.00046,0.24975 0.79551,0.28448 0.69213,0.52599c-0.34398,0.80353 -4.54991,0.31897 -4.96255,0.6084c-0.09342,0.06555 -0.12925,0.14669 -0.13253,0.23712c-0.03121,-0.27278 -0.06687,-0.53922 -0.09865,-0.70265c-0.11169,-0.57438 -0.27093,-1.19752 -0.05436,-1.77281c1.80935,-5.05125 5.50728,-10.33651 13.1162,-11.816c0,0 0.90266,-0.17192 1.39949,-0.77564c0.17968,-0.12944 0.31245,-0.26629 0.39087,-0.4118z" data-paper-data="{&quot;noHover&quot;:false,&quot;origItem&quot;:[&quot;Path&quot;,{&quot;applyMatrix&quot;:true,&quot;segments&quot;:[[[607.563,601.99816],[0.02649,0.38155],[-0.10299,0.15484]],[[607.10872,602.39727],[0.1976,-0.11227],[-0.59254,0.60273]],[[605.61718,603],[0,0],[-7.618,0]],[[590.90604,613.89443],[2.69308,-5.58508],[-0.31682,0.63364]],[[590.61718,616],[0,-0.70843],[0,0.20156]],[[590.57685,616.85325],[0.02106,-0.33136],[0.02013,-0.10671]],[[590.74964,616.60263],[-0.10238,0.05628],[0.45234,-0.24865]],[[595.61718,617],[-0.48256,0.87548],[0.14503,-0.26312]],[[594.95308,616.3906],[-0.04725,0.29671],[0.58086,-3.64773]],[[604.72276,605.71115],[-3.02833,1.51416],[0.78545,-0.39273]],[[607.27135,605.03032],[-0.87898,0.0905],[-0.34365,-0.53523]],[[607.61718,603],[0,0.6759],[0,-0.23192]]],&quot;closed&quot;:true}],&quot;index&quot;:null}" fill="#ffffff" fill-rule="nonzero" stroke="none" stroke-width="1" stroke-linecap="butt"/><path d="M269.3622,267.01802c8.65168,-1.71364 17.31476,-3.36671 25.98927,-4.9611c-4.29239,1.04878 -8.6334,1.98515 -13.02305,2.80916c-4.35992,0.84775 -8.68216,1.56446 -12.96622,2.15193z" fill="#884f38" fill-rule="evenodd" stroke="none" stroke-width="1" stroke-linecap="butt"/><path d="M201.59474,305.42711l-45.70163,-236.25154l113.29743,-11.10122l-6.94957,-28.23107l2.86458,0.1967l145.20126,-14.66674l2.50336,13.60137l39.69701,204.15897l-0.02775,5.18702l3.88959,17.09676l-241.47261,46.95234z" fill="#d5d5d5" fill-rule="nonzero" stroke="#000000" stroke-width="1" stroke-linecap="round"/><path d="M193.73614,269.12931l256.65796,-51.22396l7.96324,37.07825l-256.41083,50.79907z" fill="#65675c" fill-rule="nonzero" stroke="#000000" stroke-width="1" stroke-linecap="round"/><path d="M264.05334,292.81149l-18.50356,-94.19348l46.03513,-7.44377l18.45566,92.97805z" fill="#242424" fill-rule="nonzero" stroke="#000000" stroke-width="1" stroke-linecap="round"/><path d="M268.29224,283.60247l-15.31624,-79.73942l33.84046,-6.20315l16.84814,79.8655z" fill="#b57047" fill-rule="nonzero" stroke="#000000" stroke-width="1" stroke-linecap="round"/><path d="M210.37146,253.17618l-9.24926,-47.5683l37.51198,-7.67074l9.07021,50.52364z" fill="#242424" fill-rule="nonzero" stroke="#000000" stroke-width="1" stroke-linecap="round"/><path d="M218.05744,247.15955l-7.89264,-36.71514l23.34538,-3.97404l6.40991,35.8729z" fill="#593f1e" fill-rule="nonzero" stroke="#000000" stroke-width="1" stroke-linecap="round"/><path d="M317.71801,167.863l86.76976,-14.0453l15.06409,72.62838l-87.10262,15.24058z" fill="#242424" fill-rule="nonzero" stroke="#000000" stroke-width="1" stroke-linecap="round"/><path d="M326.05958,174.90849l74.03041,-12.69879l11.80113,58.7543l-74.29268,14.25716z" fill="#593f1e" fill-rule="nonzero" stroke="#000000" stroke-width="1" stroke-linecap="round"/><path d="M240.70846,118.72606l-86.39163,58.62795l-10.22272,-7.99868l93.52285,-62.65247l98.69699,34.69807l140.8338,-20.41233l-1.56848,8.40716l-145.56944,20.76786z" fill="#838e8a" fill-rule="nonzero" stroke="#000000" stroke-width="1" stroke-linecap="round"/><path d="M168.12686,74.19239l39.81675,-4.53884l8.56338,46.94797l0.70605,3.63117l-38.21803,4.03958l-0.76153,-0.04036z" fill="#242424" fill-rule="nonzero" stroke="#000000" stroke-width="1" stroke-linecap="round"/><path d="M173.72489,78.75659l28.27771,-3.80257l6.93945,38.59628l-26.78995,3.7017z" fill="#593f1e" fill-rule="nonzero" stroke="#000000" stroke-width="1" stroke-linecap="round"/><path d="M268.65975,57.28254l-130.84429,14.37175l-8.54329,-10.02103l137.44467,-12.40486z" fill="#838e8a" fill-rule="nonzero" stroke="#000000" stroke-width="1" stroke-linecap="round"/><path d="M242.56461,24.34225l181.92647,-19.35816l-0.30262,9.10313l-177.57916,17.00549z" fill="#838e8a" fill-rule="nonzero" stroke="#000000" stroke-width="1" stroke-linecap="round"/><path d="M296.79585,48.47821c8.87112,-2.68417 20.77654,2.22463 25.95346,9.34708c3.35087,4.61013 5.57903,11.02728 6.18366,16.63785c0.52804,5.05717 0.79626,9.5767 0.35697,14.6493c-0.2415,2.78872 -0.12651,6.32984 -1.78868,8.76103c-1.60999,2.3548 -5.09538,3.22902 -7.54388,4.32743c-9.33846,4.18918 -18.16098,2.90492 -27.06317,-1.82823c-3.18175,-1.7265 -7.14657,-4.97004 -8.92145,-8.28562c-2.94272,-5.49717 -3.74858,-15.12704 -2.50192,-21.17309c1.10764,-5.37173 4.93414,-7.8603 7.43807,-12.27023c1.36314,-2.40076 0.37412,-5.4667 2.31247,-7.52774c0.56157,-0.59712 1.40603,-0.84302 2.10906,-1.26454l1.69208,-1.30637c0,0 0.92546,-0.7119 1.77336,-0.06686zM292.79453,55.31435c-0.33518,1.44666 -0.33505,3.12797 -1.25718,4.79857c-1.32342,2.3976 -3.7636,3.95056 -5.14079,6.25518c-3.64968,6.10724 -3.09806,17.98995 0.20013,24.24162c1.47301,2.79206 5.01166,5.69168 7.7154,7.10643c8.06654,4.32342 15.94623,5.55257 24.41053,1.73833c1.72185,-0.77592 5.18216,-1.5906 6.30646,-3.30021c1.26941,-1.93027 1.07329,-5.12877 1.26085,-7.30122c0.42199,-4.88776 0.15742,-9.19929 -0.35189,-14.07717c-0.5101,-5.06833 -2.58295,-10.96487 -5.58999,-15.13361c-4.74939,-6.58419 -16.0783,-10.92085 -23.87797,-7.8665c-1.26818,0.49661 -1.80216,2.04295 -2.73048,3.0395c0,0 -0.38899,0.41759 -0.94509,0.49909z" data-paper-data="{&quot;index&quot;:null}" fill="#080000" fill-rule="nonzero" stroke="none" stroke-width="0.5" stroke-linecap="butt"/><path d="M293.71694,54.77048c0.92831,-0.99655 1.4691,-2.5457 2.73728,-3.04234c7.79968,-3.05435 19.17867,1.29322 23.92806,7.8774c3.00704,4.16875 5.0957,10.09805 5.60578,15.16639c0.50933,4.87787 0.76737,9.21832 0.34536,14.10608c-0.18757,2.17243 0.00107,5.38087 -1.26834,7.31114c-1.1243,1.70962 -4.5945,2.53221 -6.31634,3.30813c-8.46432,3.81424 -16.39213,2.58736 -24.45867,-1.73605c-2.70376,-1.41473 -6.25994,-4.32852 -7.73294,-7.12057c-3.29817,-6.25168 -3.85426,-18.18956 -0.20458,-24.2968c1.37724,-2.3046 3.82988,-3.87249 5.15329,-6.27006c0.92214,-1.67059 0.92886,-3.35654 1.26402,-4.80322c0.55609,-0.08151 0.94705,-0.50014 0.94705,-0.50014z" data-paper-data="{&quot;noHover&quot;:false,&quot;origItem&quot;:[&quot;Path&quot;,{&quot;applyMatrix&quot;:true,&quot;segments&quot;:[[[242.36308,94.44509],[0.55935,0.02605],[-0.60288,1.35103]],[[240.22113,98.89885],[1.21949,-1.45844],[-1.75016,2.09309]],[[234.00416,104.03862],[1.78511,-1.99193],[-4.73058,5.27863]],[[229.59018,127.78406],[-2.0367,-6.74107],[0.90961,3.01063]],[[235.78421,136.201],[-2.37514,-1.89768],[7.06666,5.76203]],[[259.32625,142.54284],[-9.00308,2.12064],[1.83146,-0.43139]],[[266.12128,140.51457],[-1.42462,1.45816],[1.60848,-1.64635]],[[268.74272,133.61401],[-0.59653,2.0889],[1.34214,-4.69981]],[[271.07546,119.78016],[-0.42946,4.86722],[0.46491,-5.05363]],[[268.48641,103.9171],[2.14806,4.64868],[-3.3927,-7.34221]],[[246.63053,91.68342],[8.20857,-1.50389],[-1.33466,0.24452]],[[243.38226,94.13672],[1.09735,-0.79807],[0,0]]],&quot;closed&quot;:true}],&quot;index&quot;:null}" fill="#ffffff" fill-rule="nonzero" stroke="none" stroke-width="0.5" stroke-linecap="butt"/><path d="M349.41254,35.11428c6.01909,-3.41138 12.54644,-5.20318 19.4435,-6.54102c3.94741,-0.76568 9.03341,-2.03118 12.83818,-0.12718c4.39996,2.20186 7.0788,7.22385 9.99149,10.93178c4.06389,5.1741 7.58104,9.60966 8.85655,16.22554c0.31903,1.6547 1.05329,3.29266 0.91436,4.9721c-0.41577,5.02498 -3.05815,9.91437 -4.31096,14.75619c-2.03984,7.88352 -3.82311,15.48918 -12.55623,17.85801c-10.32166,2.67396 -20.00417,1.21419 -29.57127,-3.15823c-3.1559,-1.44232 -7.3541,-3.2698 -9.92877,-5.63135c-5.2233,-4.79094 -6.71049,-11.85687 -7.99514,-18.46373c-1.12411,-5.78124 -2.2458,-11.49046 -2.64546,-17.37611c-0.18259,-2.68892 -1.31606,-5.73868 0.70967,-8.01707c1.66022,-1.8673 4.01597,-1.58777 6.17893,-2.18433c1.94197,-0.53563 3.87741,-1.32193 5.74338,-2.07955l1.3953,-0.90688c0,0 0.42244,-0.27228 0.93648,-0.25817zM346.25715,39.84933c-1.36167,0.53542 -2.74617,1.03451 -4.13693,1.41723c-1.40061,0.38545 -3.61364,0.17908 -4.73219,1.30061c-1.07943,1.08236 -0.02805,4.41356 0.06506,5.78945c0.38988,5.76031 1.49683,11.34689 2.59701,17.00503c1.152,5.92464 2.3587,12.46252 7.03946,16.78756c2.34114,2.16321 6.29141,3.82614 9.17919,5.14302c8.93373,4.07401 17.91319,5.50391 27.56271,2.98324c7.50163,-1.84825 8.6865,-9.09337 10.39925,-15.69881c1.19866,-4.62283 3.73685,-9.31289 4.21606,-14.08974c0.1465,-1.46039 -0.58872,-2.87591 -0.86207,-4.31795c-1.16014,-6.12055 -4.50978,-10.14747 -8.26703,-14.93111c-2.64914,-3.37328 -5.06868,-8.01438 -9.00126,-10.11426c-2.96948,-1.58562 -7.80997,-0.19397 -10.8856,0.40555c-7.77932,1.51639 -15.08195,3.56739 -21.64814,8.16725c0,0 -0.77456,0.54168 -1.52547,0.15296z" data-paper-data="{&quot;index&quot;:null}" fill="#080000" fill-rule="nonzero" stroke="none" stroke-width="0.5" stroke-linecap="butt"/><path d="M347.74812,39.65995c6.56621,-4.59988 13.90367,-6.6646 21.68298,-8.18099c3.0756,-0.59953 7.93256,-1.98827 10.90205,-0.40267c3.93256,2.09987 6.3699,6.75192 9.01905,10.12518c3.75723,4.78367 7.12133,8.83622 8.28149,14.95677c0.27332,1.44204 1.00962,2.86506 0.86312,4.32544c-0.47917,4.77687 -3.02237,9.49215 -4.22106,14.11499c-1.71277,6.60548 -2.91942,13.87301 -10.42108,15.72127c-9.64955,2.52067 -18.67539,1.09081 -27.60912,-2.98318c-2.88776,-1.31688 -6.85231,-2.99091 -9.19343,-5.15412c-4.68077,-4.32503 -5.89996,-10.89122 -7.05196,-16.81587c-1.10019,-5.65815 -2.20311,-11.27011 -2.59299,-17.03041c-0.09313,-1.37589 -1.14123,-4.71334 -0.06176,-5.79569c1.11857,-1.12155 3.33458,-0.9195 4.73521,-1.30495c1.39076,-0.38274 2.77905,-0.88612 4.14071,-1.42155c0.75089,0.38873 1.52682,-0.15426 1.52682,-0.15426z" data-paper-data="{&quot;noHover&quot;:false,&quot;origItem&quot;:[&quot;Path&quot;,{&quot;applyMatrix&quot;:true,&quot;segments&quot;:[[[297.58827,89.48717],[0.66043,0.52295],[-1.43347,0.2647]],[[293.273,90.08651],[1.43289,-0.10983],[-1.44305,0.11061]],[[288.39778,90.45861],[1.30718,-0.88414],[-1.26148,0.85323]],[[287.36052,96.13283],[0.17056,-1.36327],[-0.71408,5.70749]],[[286.66667,113.25695],[0,-5.74266],[0,6.01312]],[[290.35873,131.01313],[-3.75518,-5.11979],[1.8782,2.56072]],[[298.35761,137.78829],[-2.5737,-1.83699],[7.96215,5.68303]],[[324.74561,145.947],[-9.91619,0.63019],[7.68777,-0.38104]],[[337.9009,132.57163],[-2.93108,6.1342],[2.05132,-4.29303]],[[344.70331,119.59411],[-1.37698,4.58048],[0.42097,-1.40035]],[[344.68132,115.2074],[-0.0069,1.46224],[0.02929,-6.20628]],[[339.43573,99.03331],[2.76479,5.39271],[-1.9493,-3.80268]],[[332.55614,87.4303],[3.44661,2.8014],[-2.60252,-2.11533]],[[321.83333,85.75695],[3.12183,-0.00146],[-7.89622,0.00369]],[[299.10921,89.62767],[7.2962,-3.24989],[0,0]]],&quot;closed&quot;:true}],&quot;index&quot;:null}" fill="#ffffff" fill-rule="nonzero" stroke="none" stroke-width="0.5" stroke-linecap="butt"/><path d="M345.48582,75.50564c-0.39677,-2.04057 0.9358,-4.01647 2.97637,-4.41324c2.04057,-0.39677 4.01648,0.93582 4.41325,2.9764c0.39677,2.04057 -0.9358,4.01646 -2.97639,4.41324c-2.04057,0.39677 -4.01645,-0.93581 -4.41323,-2.97639z" data-paper-data="{&quot;index&quot;:null}" fill="#000000" fill-rule="nonzero" stroke="none" stroke-width="0.5" stroke-linecap="butt"/><path d="M319.04004,75.42746c-0.39677,-2.04057 0.9358,-4.01647 2.9764,-4.41325c2.04057,-0.39677 4.01645,0.93582 4.41323,2.9764c0.39678,2.04059 -0.9358,4.01647 -2.97637,4.41324c-2.04057,0.39677 -4.01647,-0.9358 -4.41325,-2.9764z" data-paper-data="{&quot;index&quot;:null}" fill="#000000" fill-rule="nonzero" stroke="none" stroke-width="0.5" stroke-linecap="butt"/><path d="M234.19542,5.64684c1.08413,-0.2108 1.61914,0.39259 1.86698,0.86967c9.9783,5.63147 22.08018,7.8413 33.04509,10.99426c11.17257,4.6991 22.37086,9.31055 33.33782,14.47262c6.26602,2.94938 12.83341,7.10719 19.50775,8.93788c0,0 1.69214,0.47124 1.22089,2.16339c-0.47122,1.69214 -2.16338,1.2209 -2.16338,1.2209c-6.88099,-1.94113 -13.58876,-6.09699 -20.0614,-9.14363c-10.86159,-5.11249 -21.9582,-9.65533 -33.01081,-14.33835c-11.41794,-3.26089 -23.92927,-5.60334 -34.22838,-11.60655l-0.90354,-1.51073c0,0 -0.33526,-1.72424 1.38898,-2.05951z" data-paper-data="{&quot;index&quot;:null}" fill="#000000" fill-rule="nonzero" stroke="none" stroke-width="0.5" stroke-linecap="butt"/><path d="M421.46509,-40.60049c0.9978,1.44562 -0.44783,2.44342 -0.44783,2.44342l-2.72674,1.88206c-13.52559,9.33569 -26.63732,18.80132 -39.42869,29.12289c-5.23598,4.22142 -9.96246,9.08035 -14.83769,13.71134c-9.20152,8.74057 -18.26506,17.50101 -26.45151,27.16507c0,0 -1.13698,1.33894 -2.47591,0.20196c-1.33893,-1.13698 -0.20196,-2.47591 -0.20196,-2.47591c8.29416,-9.74144 17.41434,-18.60839 26.70987,-27.43824c4.94504,-4.69727 9.74361,-9.61205 15.05106,-13.89825c12.85897,-10.37613 26.04234,-19.89525 39.63921,-29.28014l2.72672,-1.88205c0,0 1.44562,-0.9978 2.44342,0.44783z" data-paper-data="{&quot;index&quot;:null}" fill="#000000" fill-rule="nonzero" stroke="none" stroke-width="0.5" stroke-linecap="butt"/><path d="M290.26905,65.47617c-1.3295,0.35541 -2.67714,0.72633 -3.98162,0.24655c-1.55145,-0.57063 -1.40254,-1.86393 -1.6775,-3.278c-0.70112,-3.6058 0.77148,-7.18668 3.66065,-9.51754c6.67404,-5.11038 15.19803,-5.04546 23.04503,-3.45915c2.7934,0.21932 5.68432,0.05956 8.11919,1.63911c0.88908,0.57676 1.28331,1.4273 1.67978,2.29612c0.26625,0.58346 0.91716,0.90283 1.30614,1.41275c1.94618,2.5512 3.16491,5.78094 3.76886,8.887c0.16797,0.86385 0.87675,2.73219 0.62393,3.59217c-0.34672,1.1794 -3.26174,1.74158 -4.32397,1.69571c-4.63324,-0.20009 -9.21668,-0.42882 -13.78389,-1.46646c-6.17258,-1.40248 -12.21244,-1.79205 -18.43661,-2.04825z" fill="#000000" fill-rule="nonzero" stroke="none" stroke-width="0.5" stroke-linecap="butt"/><path d="M339.65637,68.27467c-0.04114,-0.21158 0.00581,-0.36373 0.08445,-0.47219c-0.03741,-0.17797 -0.07617,-0.35431 -0.11624,-0.5292c-0.50619,0.16402 -1.01254,0.32759 -1.5191,0.49067c0,0 -0.58855,0.18949 -0.77803,-0.39907c-0.18949,-0.58855 0.39906,-0.77803 0.39906,-0.77803c0.53257,-0.17146 1.06493,-0.34346 1.5971,-0.51597c-0.59014,-2.17687 -1.37148,-4.17192 -2.20686,-6.32286c-1.35101,-3.47851 -1.5513,-7.89159 -2.26524,-11.56329c-0.28697,-1.47604 -0.985,-3.48667 -0.72748,-4.98535c0.29321,-1.70642 2.41355,-4.36537 3.8552,-5.20992c1.18376,-0.69347 2.72398,-0.78845 3.94867,-1.3256c2.23032,-0.97821 4.49364,-2.01457 6.73546,-3.01695c7.7643,-3.47161 16.14057,-5.71186 24.16047,-8.57181c2.85658,-0.45372 5.80464,-1.32183 8.46267,0.34227c1.07106,0.67056 1.7511,2.35915 2.50991,3.34531c2.46672,3.2057 4.6707,6.53164 7.25516,9.65405c1.48908,1.7999 3.17463,3.71941 3.63859,6.03828c0.17165,0.85788 0.61505,2.09038 -0.07757,2.87289c-0.26369,0.29793 -0.76703,0.2122 -1.14703,0.33003c-1.13079,0.35061 -2.31539,0.69523 -3.41446,1.13412c-2.89896,1.15764 -5.64634,2.67233 -8.59049,3.73678c-7.53052,2.71852 -15.06938,5.51565 -22.57668,8.31694c-6.01702,2.04736 -12.03605,4.0767 -18.0786,6.044c0.08494,0.36542 0.16445,0.73673 0.23805,1.11522l-0.66209,0.75861c0,0 -0.60694,0.11801 -0.72495,-0.48892z" fill="#000000" fill-rule="nonzero" stroke="none" stroke-width="0.5" stroke-linecap="butt"/><path d="M298.1634,147.39508c-0.98162,0.19087 -1.17248,-0.79075 -1.17248,-0.79075l-0.02524,-0.12983c-0.46876,-2.41082 -1.23246,-4.9377 -1.42893,-7.38257c-0.2067,-2.57195 0.8825,-5.17094 0.9202,-7.79189c0.02059,-1.43102 -0.37049,-2.81461 -0.26819,-4.26492c0.22456,-2.8386 -2.1451,-9.81388 0.87253,-11.84595c1.66385,-1.12043 4.59674,0.35759 6.02603,1.20925c3.56833,2.12621 8.77179,4.97655 11.14293,8.71836l0.0563,-0.06989l0.02769,0.02231l0.00161,-0.03279c0.10445,-2.49196 -0.74495,-6.59151 0.38297,-8.86309c0.33841,-0.68154 0.90098,-1.49646 1.65849,-1.56861c0.88416,-0.08421 1.61898,0.73775 2.38733,1.18325c2.52704,1.46526 4.67014,3.77211 7.00817,5.51549c0.86466,0.64522 2.15129,1.28881 2.90342,2.21284c0.02993,-2.1022 0.20717,-5.81725 0.69076,-7.7056c0.23461,-0.91612 0.39491,-2.07801 1.20289,-2.56944c0.73703,-0.44829 3.95381,0.67269 4.65183,1.01951c3.24794,1.61384 5.84826,4.73487 8.01308,7.5453c0.6902,0.89603 1.43858,1.63295 1.97823,2.49682c-0.23513,-2.61993 -0.53522,-6.64781 2.62885,-7.04944c0.65597,-0.08327 1.24084,0.46079 1.84234,0.73544c2.84595,1.29954 5.38193,3.33082 7.9652,5.07355c1.46845,1.09513 2.60786,2.11379 3.8259,3.39616c0.15479,0.16297 -0.24122,-0.39487 -0.2703,-0.61775c-0.14298,-1.096 -0.00465,-2.21761 -0.1593,-3.31203c-0.32469,-2.2977 -1.87328,-5.88516 -0.31296,-8.01483c0.9003,-1.22883 4.18383,-0.1165 5.063,0.19954c4.47262,1.60781 8.69223,5.84716 12.412,8.76547c0.72272,0.57809 1.38207,1.23966 2.14058,1.76894c-0.1473,-0.10894 -0.37331,-0.29474 -0.41094,-0.42405c-0.18359,-0.63081 -0.12048,-1.30885 -0.20936,-1.95979c-0.17845,-1.30697 -0.41529,-2.60549 -0.64936,-3.90366c-0.67178,-3.72559 -2.17419,-7.87824 -2.24649,-11.66007c-0.0986,-5.15693 5.22362,-1.07123 6.86818,0.37409c1.51053,1.32753 2.72214,2.81587 4.01967,4.34346c3.57219,4.46641 6.91305,9.12153 11.0087,13.11599c4.41142,4.30243 8.78035,6.78056 11.58537,12.51345c0,0 0.4395,0.89825 -0.45874,1.33774c-0.89825,0.4395 -1.33774,-0.45874 -1.33774,-0.45874c-2.68376,-5.48506 -6.94225,-7.82893 -11.18474,-11.96011c-4.15223,-4.04329 -7.53854,-8.75203 -11.15613,-13.27622c-0.79632,-0.93731 -1.53323,-1.92836 -2.38752,-2.81316c-1.34954,-1.39774 -3.25184,-3.00207 -4.85251,-3.98244c-0.23688,-0.14508 -0.13657,0.5508 -0.10464,0.82673c0.06831,0.59036 0.24374,1.16337 0.36032,1.74613c0.24215,1.21043 0.47122,2.42342 0.70682,3.63514c0.6389,3.28585 1.35735,6.5727 1.81043,9.89111c0.05533,0.40524 0.54713,3.96 0.0056,4.25835c-1.74298,0.96032 -3.6341,-0.94408 -4.742,-1.79936c-3.40021,-2.66761 -6.93219,-5.90852 -10.74476,-7.90752c-0.39185,-0.20546 -3.93046,-1.61072 -4.06373,-1.23482c-0.78369,2.21041 0.94903,6.1411 1.04329,8.43335c0.03417,0.83093 0.13865,3.70367 -1.0863,4.00771c-0.92467,0.22951 -1.71255,-0.84183 -2.52424,-1.34068c-0.00376,-0.00231 -3.03735,-2.26619 -3.10552,-2.31707c-1.97455,-1.33127 -3.9123,-2.84892 -5.97768,-4.0333c-0.10724,-0.0615 -2.77265,-2.00526 -3.11962,-1.05194c-0.6173,1.69604 -0.21157,3.94372 -0.09609,5.67408l-0.01369,0.05075l0.01322,0.00046l-0.06062,1.74338c-0.00632,0.46355 -0.33616,0.87498 -0.80922,0.96696c-0.37608,0.07313 -0.7439,-0.07484 -0.96911,-0.35334l-1.27427,-1.5155l0.15725,-0.13222c-3.02676,-3.01268 -5.34646,-6.60611 -8.92054,-9.18775c-0.54799,-0.39583 -3.24754,-2.22385 -3.88148,-1.86495c-0.87584,0.49584 -0.16874,2.00751 -0.1819,3.01387c-0.0273,2.08706 -0.13578,4.06054 -0.70981,6.07563c-0.1921,0.67434 0.03862,1.83492 -0.64207,2.0031c-0.94117,0.23254 -1.79308,-0.74372 -2.65445,-1.1886c-0.53056,-0.27402 -2.50046,-1.78289 -2.77499,-1.98763c-2.42299,-1.80834 -5.14164,-5.14163 -7.91085,-6.32277c-1.02199,-0.43591 -0.31332,2.20548 -0.33499,3.31634c-0.03426,1.7563 0.07561,3.46775 0.00267,5.22801l-0.00087,0.00365l0.00071,0.00003l-0.09709,1.97686c-0.01255,0.45794 -0.34054,0.86221 -0.80895,0.95329c-0.30352,0.05902 -0.60165,-0.02598 -0.82379,-0.20737l-1.5519,-1.25021l0.11813,-0.14664c-3.23992,-2.26803 -5.98724,-5.12527 -9.41847,-7.21715c-0.95718,-0.58356 -4.15676,-3.18792 -5.61208,-2.35424c-0.51146,0.29299 -0.31525,1.70607 -0.32288,2.02951c-0.06607,2.80399 0.58221,5.48162 0.38672,8.26755c-0.10997,1.39389 0.28704,2.71364 0.27357,4.09399c-0.02479,2.53868 -1.15439,5.19729 -0.92626,7.65741c0.22043,2.37701 0.94212,4.8116 1.39835,7.15797l0.02524,0.12983c0,0 0.19087,0.98162 -0.79075,1.17248z" fill="#080000" fill-rule="nonzero" stroke="none" stroke-width="0.5" stroke-linecap="butt"/></g></g></g></svg>