<svg version="1.1" xmlns="http://www.w3.org/2000/svg" xmlns:xlink="http://www.w3.org/1999/xlink" width="1733.09309" height="836.33634" viewBox="0,0,1733.09309,836.33634"><g transform="translate(546.54655,238.16817)"><g data-paper-data="{&quot;isPaintingLayer&quot;:true}" stroke-linejoin="miter" stroke-miterlimit="10" stroke-dasharray="" stroke-dashoffset="0" style="mix-blend-mode: normal"><path d="M-546.54655,598.16817v-836.33634h1733.09309v836.33634z" fill="none" fill-rule="nonzero" stroke="#f00000" stroke-width="0" stroke-linecap="butt"/><g><path d="M239.17228,309.19038l14.58136,-36.16386l36.91927,1.05453l-9.15467,36.6948z" data-paper-data="{&quot;index&quot;:null}" fill="#cedce9" fill-rule="nonzero" stroke="#000000" stroke-width="1" stroke-linecap="round"/><path d="M235.7337,307.13683c-1.25532,-0.56509 -4.25871,-1.48516 -2.89805,-2.26914c-0.73686,0.23995 -1.71877,0.52985 -2.23802,0.59826c-2.45991,0.32419 -5.61213,-0.21012 -8.13442,-0.30456c-6.91974,-0.25908 -13.62948,-0.73125 -20.36691,0.06399c-3.04483,0.35939 -3.82232,-1.13162 -4.82834,0.87619c-2.04568,3.35545 -5.76766,6.27873 -8.21418,9.64219c-3.31585,4.55853 -4.70283,9.02729 -6.80381,13.64401c-2.32338,3.77976 -0.82617,11.25987 -0.98708,15.55768c-0.04308,1.15044 0.49145,3.22115 -0.12401,4.0461c0.57871,0.06452 1.13775,0.12451 1.49471,0.13787c2.37254,0.08883 4.74505,0.17766 7.11763,0.26649c9.4376,0.35334 20.40913,0.59639 29.63897,-0.91957c10.95045,-1.57589 22.63168,1.70922 33.66199,0.33978c6.03741,-0.66793 12.56222,0.10775 18.67507,0.34293c3.10106,0.1193 5.79249,-0.7374 7.08669,1.09187c0.34017,0.48081 0.04121,-1.10052 0.06181,-1.65074c0.0515,-1.37559 0.10301,-2.75126 0.15451,-4.12686c0.28842,-7.7035 0.57685,-15.40702 0.86527,-23.11052c0.06818,-1.82116 -0.27596,-8.35864 0.96707,-9.01813c-0.2278,-0.0196 -0.48546,-0.04727 -0.62715,-0.061c-1.2554,-0.12162 -1.96047,-0.09167 -2.92109,-0.69712c-1.66769,-1.05115 -7.44676,-0.51757 -9.75802,-0.60411c-8.98173,-0.33628 -17.96346,-0.67256 -26.94523,-1.00885c0,0 -2.0336,-0.07614 -1.97179,-1.72687c0.00253,-0.06777 0.00839,-0.13259 0.01729,-0.19463c-0.96589,-0.20363 -1.93924,-0.4724 -2.92291,-0.91521zM267.67997,307.68095c5.42186,0.203 12.38074,-0.32125 15.95809,3.16435c2.04998,1.99739 0.42107,8.09429 0.32464,10.66987c-0.28843,7.70352 -0.57686,15.40703 -0.86528,23.11053c-0.03293,0.87967 0.50412,5.26961 -0.21632,5.77762c-7.27687,5.1312 -20.4542,0.42407 -29.15251,1.68021c-10.78586,1.33907 -23.00789,-2.43978 -33.47191,-0.36719c-9.51284,1.56242 -20.89467,1.34573 -30.62912,0.98126c-1.3963,-0.05227 -9.80215,0.49259 -10.67641,-0.39974c-2.50709,-2.55889 -1.86455,-4.5911 -1.75548,-7.50452c0.1973,-5.26977 -0.71831,-11.59432 1.23492,-16.59388c2.15336,-4.73179 3.71776,-9.49989 7.04071,-14.0682c1.34045,-1.8428 2.80654,-4.31999 4.51124,-5.96586c1.11548,-1.07697 3.2022,-1.90782 3.51308,-3.35049c1.88292,-3.75796 4.98004,-2.38759 8.72436,-2.89084c6.6653,-0.89586 13.5064,-0.32085 20.36691,-0.06399c2.53012,0.09473 7.50905,-0.6654 9.2829,-0.30447c3.08788,0.62832 4.80865,2.84661 7.79612,3.59802c2.19216,0.55138 4.53121,0.36116 7.07127,1.50456c0.19284,0.08681 0.38563,0.17361 0.5785,0.26041c6.78812,0.25415 13.57624,0.50831 20.36434,0.76245z" data-paper-data="{&quot;index&quot;:null}" fill="#000000" fill-rule="nonzero" stroke="none" stroke-width="1" stroke-linecap="butt"/><path d="M238.68784,307.97388c-0.00893,0.06207 -0.01454,0.12693 -0.01707,0.19468c-0.06181,1.65074 1.98166,1.73007 1.98166,1.73007c8.98173,0.33628 18.0101,0.70719 26.99188,1.04347c2.31125,0.08654 8.09526,-0.43917 9.76294,0.61197c0.96059,0.60548 1.66718,0.57833 2.92254,0.69995c0.14171,0.01373 0.39952,0.04185 0.62736,0.06147c-1.24305,0.65949 -0.89331,7.213 -0.96149,9.03417c-0.28843,7.70352 -0.5828,15.45268 -0.87123,23.15621c-0.0515,1.37558 -0.10675,2.7578 -0.15824,4.13341c-0.0206,0.55024 0.27673,2.13396 -0.06343,1.65316c-1.29422,-1.82927 -3.9882,-0.96911 -7.08922,-1.08843c-6.11285,-0.23515 -12.65687,-0.9927 -18.69428,-0.32479c-11.03034,1.36943 -22.8199,-1.9037 -33.77035,-0.32781c-9.22983,1.51598 -20.24482,1.24254 -29.68248,0.88918c-2.37254,-0.08883 -4.74902,-0.18301 -7.12157,-0.27184c-0.357,-0.01336 -0.91675,-0.07448 -1.49541,-0.13896c0.61546,-0.82496 0.07736,-2.90165 0.12044,-4.05209c0.16092,-4.29782 -1.34479,-11.80685 0.97862,-15.58663c2.10096,-4.61669 3.49332,-9.11666 6.80915,-13.67517c2.44658,-3.36347 6.18467,-6.31078 8.23038,-9.66621c1.00602,-2.00783 1.79007,-0.52284 4.83491,-0.88224c6.73741,-0.79526 13.49165,-0.34457 20.41136,-0.08549c2.52222,0.09444 5.70298,0.62568 8.1629,0.30149c0.51922,-0.06845 1.50922,-0.35802 2.24606,-0.59796c-1.36068,0.78394 1.65471,1.70547 2.91003,2.27055c0.98374,0.44282 1.96882,0.71419 2.9347,0.91784z" data-paper-data="{&quot;noHover&quot;:false,&quot;origItem&quot;:[&quot;Path&quot;,{&quot;applyMatrix&quot;:true,&quot;segments&quot;:[[[579.60736,595.76373],[0.95609,-0.20262],[0.00646,0.07548]],[[579.61718,596],[0,-0.08208],[0,2]],[[577.61718,598],[0,0],[-8.83333,0]],[[551.11718,598],[8.83333,0],[-2.27308,0]],[[541.51161,598.28885],[1.67648,-1.19621],[-0.96568,0.68904]],[[538.61718,599],[1.23739,-0.09027],[-0.13966,0.01019]],[[537.99901,599.04541],[0.22447,-0.0134],[1.19653,0.85421]],[[538.61718,610],[0,-2.20646],[0,9.33333]],[[538.61718,638],[0,-9.33333],[0,1.66667]],[[538.61718,643],[0,-1.66667],[0,0.66667]],[[538.61718,645],[-0.35177,0.56631],[1.33831,-2.15456]],[[545.61718,644],[-3.04994,0.00386],[6.01206,-0.00761]],[[563.97058,644.43107],[-5.90478,-1.08158],[10.78253,2.15651]],[[597.04254,645.54479],[-10.6965,-2.40266],[9.00888,2.25222]],[[626.11718,648],[-9.28168,0],[2.33333,0]],[[633.11718,648],[-2.33333,0],[0.35109,0]],[[634.59021,647.90091],[-0.5707,0.05184],[-0.57412,-1.02596]],[[634.61718,643],[0,1.39387],[0,-5.20707]],[[634.21982,624.13246],[2.14282,4.67827],[-1.8936,-5.6808]],[[628.03948,607.31672],[3.08887,5.66543],[-2.2791,-4.1802]],[[620.32688,595.27881],[1.8857,4.15235],[-0.91417,-2.47477]],[[615.61718,594],[2.9771,0.57275],[-6.58756,-1.26734]],[[595.61718,593],[6.8054,0],[-2.48058,0]],[[587.61718,593],[2.40395,0.50364],[-0.50743,-0.10631]],[[585.44122,592.1748],[0.71481,0.32365],[1.30749,1.01011]],[[582.51161,594.78885],[1.25365,-0.62682],[-0.98239,0.4912]]],&quot;closed&quot;:true}],&quot;index&quot;:null}" fill="#484848" fill-rule="nonzero" stroke="none" stroke-width="1" stroke-linecap="butt"/><path d="M209.9526,312.95836c-0.02088,0.55787 0.65488,1.26029 0.28888,1.68895c0.89095,0.10816 1.78385,0.30491 2.57036,0.65895c3.03243,1.36506 9.12589,6.15362 9.60379,9.18648c0.03886,0.24669 -0.83341,0.25502 -0.69408,0.4777c0.46362,0.741 4.50932,-0.36512 4.96157,-0.14268c0.10235,0.05037 0.15078,0.12463 0.16796,0.21341c-0.01116,-0.2743 -0.02089,-0.53943 -0.01466,-0.7058c0.02189,-0.58473 0.07395,-1.2138 -0.22862,-1.74886c-2.56572,-4.71231 -6.87562,-9.26205 -14.62165,-9.55207c0,0 -0.91409,-0.03425 -1.49799,-0.55425c-0.19747,-0.10019 -0.34964,-0.21496 -0.44959,-0.34669c-0.03871,0.31391 -0.07887,0.63341 -0.08604,0.82484zM226.77467,325.98616c0.12614,0.34317 0.1062,-0.21935 0.08206,-0.80794c-0.0192,0.25435 -0.16828,0.57345 -0.08206,0.80794zM230.30094,321.24629c2.37495,4.1999 -3.59116,9.98296 -8.70296,7.02567c-4.82301,-2.79023 -6.29317,-8.09008 -10.71554,-10.08082c-1.49402,-0.67256 -3.2993,-1.07674 -4.39425,-2.14361c-1.73517,-1.69068 -0.73151,-7.20442 2.70297,-7.07583c2.47302,0.09259 3.66674,0.78927 5.96908,0.87546l1.01679,0.03807c0,0 1.1672,0.04371 1.70621,0.7827c5.96412,1.8217 9.67777,6.02179 12.4177,10.57825z" data-paper-data="{&quot;index&quot;:null}" fill="#000000" fill-rule="nonzero" stroke="none" stroke-width="1" stroke-linecap="butt"/><path d="M209.96524,312.0754c0.09991,0.1317 0.25218,0.24648 0.44963,0.34668c0.58388,0.52001 1.50226,0.55086 1.50226,0.55086c7.74599,0.29002 12.21377,4.94273 14.77946,9.65504c0.30258,0.53505 0.24122,1.17531 0.21931,1.76003c-0.00623,0.16636 -0.00044,0.43511 0.01074,0.70945c-0.01715,-0.08885 -0.06505,-0.1635 -0.16746,-0.21389c-0.45231,-0.22244 -4.53344,0.90408 -4.99704,0.16312c-0.13934,-0.2227 0.64178,-0.37959 0.60286,-0.62631c-0.47788,-3.03285 -6.60245,-7.79944 -9.6349,-9.16451c-0.78652,-0.35408 -1.68485,-0.54429 -2.57582,-0.65243c0.36596,-0.4287 -0.30107,-1.14097 -0.28018,-1.69882c0.00717,-0.19142 0.05219,-0.51533 0.09098,-0.82923z" data-paper-data="{&quot;noHover&quot;:false,&quot;origItem&quot;:[&quot;Path&quot;,{&quot;applyMatrix&quot;:true,&quot;segments&quot;:[[[607.563,601.99816],[0.02649,0.38155],[-0.10299,0.15484]],[[607.10872,602.39727],[0.1976,-0.11227],[-0.59254,0.60273]],[[605.61718,603],[0,0],[-7.618,0]],[[590.90604,613.89443],[2.69308,-5.58508],[-0.31682,0.63364]],[[590.61718,616],[0,-0.70843],[0,0.20156]],[[590.57685,616.85325],[0.02106,-0.33136],[0.02013,-0.10671]],[[590.74964,616.60263],[-0.10238,0.05628],[0.45234,-0.24865]],[[595.61718,617],[-0.48256,0.87548],[0.14503,-0.26312]],[[594.95308,616.3906],[-0.04725,0.29671],[0.58086,-3.64773]],[[604.72276,605.71115],[-3.02833,1.51416],[0.78545,-0.39273]],[[607.27135,605.03032],[-0.87898,0.0905],[-0.34365,-0.53523]],[[607.61718,603],[0,0.6759],[0,-0.23192]]],&quot;closed&quot;:true}],&quot;index&quot;:null}" fill="#ffffff" fill-rule="nonzero" stroke="none" stroke-width="1" stroke-linecap="butt"/><path d="M342.2578,313.04999l-6.38511,-37.27662l36.89476,1.70914l11.83632,37.15296z" fill="#cedce9" fill-rule="nonzero" stroke="#000000" stroke-width="1" stroke-linecap="round"/><path d="M388.18627,312.84487c-1.01403,0.36802 -2.00475,0.56324 -2.98316,0.69408c0.00424,0.06254 0.00523,0.1276 0.00269,0.19538c-0.06181,1.65074 -2.0954,1.57459 -2.0954,1.57459c-8.98176,-0.33629 -17.9635,-0.67257 -26.94523,-1.00885c-2.31125,-0.08654 -8.03424,-1.05076 -9.77587,-0.12726c-1.00321,0.53194 -1.70405,0.44933 -2.96504,0.47674c-0.14233,0.0031 -0.40131,0.01143 -0.62994,0.01394c1.19024,0.75059 0.3582,7.24402 0.29002,9.06519c-0.28843,7.70352 -0.57686,15.40705 -0.86527,23.11052c-0.05151,1.37561 -0.103,2.75127 -0.15451,4.12686c-0.0206,0.55022 -0.43697,2.10477 -0.06181,1.65074c1.42737,-1.72738 4.04721,-0.67181 7.14851,-0.55889c6.11332,0.22259 12.67788,-0.06303 18.64842,1.05448c10.89705,2.19041 22.79121,-0.212 33.59316,2.1783c9.09065,2.20189 20.04962,2.77995 29.48723,3.13329c2.37258,0.08883 4.74507,0.17766 7.11763,0.26649c0.35696,0.01336 0.91892,-0.00466 1.50083,-0.02572c-0.55204,-0.86868 0.13582,-2.89361 0.17889,-4.04405c0.16091,-4.29782 2.21328,-11.64502 0.17904,-15.58793c-1.74986,-4.76089 -2.79882,-9.32086 -5.76451,-14.11458c-2.18816,-3.537 -5.68111,-6.7304 -7.47019,-10.22943c-0.85307,-2.07742 -1.73988,-0.64873 -4.74931,-1.23479c-6.65909,-1.29682 -13.38539,-1.3277 -20.30511,-1.58678c-2.52231,-0.09444 -5.70564,0.20267 -8.13442,-0.30456c-0.51271,-0.10707 -1.47018,-0.46956 -2.18703,-0.76394c1.29822,0.88353 -1.76555,1.57645 -3.05962,2.04609zM356.28866,310.9986c6.78812,0.25415 13.57624,0.50831 20.36434,0.76245c0.19879,-0.07215 0.39756,-0.14427 0.59635,-0.21643c2.61845,-0.95026 4.93672,-0.58566 7.16397,-0.97157c3.0353,-0.52592 4.9171,-2.60933 8.04334,-3.00497c1.79588,-0.22729 6.70404,0.90302 9.23415,0.99775c6.86052,0.25687 13.72547,0.19503 20.3051,1.58679c3.69618,0.78183 6.88713,-0.35311 8.48377,3.53513c0.20211,1.46186 2.22087,2.44643 3.25271,3.60381c1.57686,1.76875 2.85362,4.34864 4.05251,6.28651c2.97204,4.80399 4.17554,9.67573 5.96903,14.5553c1.57394,5.13163 0.18793,11.37003 -0.00938,16.63977c-0.10908,2.91343 0.3797,4.98801 -2.31172,7.35226c-0.93854,0.82445 -9.28011,-0.34745 -10.6764,-0.39973c-9.73444,-0.36447 -21.10063,-0.99945 -30.46998,-3.26886c-10.27973,-2.84927 -22.75011,0.0051 -33.40565,-2.13677c-8.58004,-1.90305 -22.07247,1.80554 -28.94526,-3.85542c-0.68044,-0.56048 0.18338,-4.89796 0.21632,-5.77762c0.28843,-7.70352 0.57685,-15.40702 0.86528,-23.11053c0.09643,-2.57558 -1.072,-8.77722 1.12159,-10.61571c3.82796,-3.20832 10.72818,-2.16519 16.15003,-1.96218z" data-paper-data="{&quot;index&quot;:null}" fill="#000000" fill-rule="nonzero" stroke="none" stroke-width="1" stroke-linecap="butt"/><path d="M385.17771,313.45864c0.97841,-0.13083 1.98102,-0.3278 2.99512,-0.69582c1.29407,-0.46963 4.36993,-1.1631 3.07168,-2.04659c0.71682,0.29436 1.6824,0.65716 2.19506,0.76423c2.42878,0.50723 5.64036,0.21531 8.1626,0.30975c6.91969,0.25908 13.68875,0.3147 20.34781,1.61155c3.00943,0.58606 3.90232,-0.83614 4.75539,1.2413c1.78906,3.49902 5.29632,6.71759 7.48453,10.25459c2.96569,4.79369 4.01766,9.38517 5.76751,14.14605c2.03428,3.94294 -0.02874,11.31835 -0.18965,15.61617c-0.04308,1.15044 -0.73495,3.18108 -0.18291,4.04976c-0.58187,0.02104 -1.14463,0.04011 -1.50161,0.02674c-2.37255,-0.08883 -4.74942,-0.17263 -7.12196,-0.26147c-9.43767,-0.35336 -20.44227,-0.90436 -29.5329,-3.10625c-10.80197,-2.39031 -22.80327,-0.00792 -33.70033,-2.19835c-5.97056,-1.11751 -12.55292,-0.85142 -18.66623,-1.07402c-3.10128,-0.11292 -5.72339,-1.17212 -7.15076,0.55526c-0.37517,0.45403 0.03976,-1.10304 0.06035,-1.65327c0.05151,-1.37561 0.09976,-2.75809 0.15126,-4.13368c0.28843,-7.70352 0.57434,-15.45299 0.86276,-23.15653c0.06819,-1.82115 0.90699,-8.33017 -0.28327,-9.08076c0.22867,-0.00253 0.48786,-0.01129 0.6302,-0.01438c1.26094,-0.02742 1.96351,0.05249 2.96669,-0.47945c1.74162,-0.9235 7.47014,0.03325 9.78138,0.11979c8.98178,0.33628 18.0126,0.64154 26.99435,0.97782c0,0 2.04368,0.07368 2.1055,-1.57705c0.00254,-0.06775 0.00181,-0.13286 -0.00248,-0.19542z" data-paper-data="{&quot;noHover&quot;:false,&quot;origItem&quot;:[&quot;Path&quot;,{&quot;applyMatrix&quot;:true,&quot;segments&quot;:[[[579.60736,595.76373],[0.95609,-0.20262],[0.00646,0.07548]],[[579.61718,596],[0,-0.08208],[0,2]],[[577.61718,598],[0,0],[-8.83333,0]],[[551.11718,598],[8.83333,0],[-2.27308,0]],[[541.51161,598.28885],[1.67648,-1.19621],[-0.96568,0.68904]],[[538.61718,599],[1.23739,-0.09027],[-0.13966,0.01019]],[[537.99901,599.04541],[0.22447,-0.0134],[1.19653,0.85421]],[[538.61718,610],[0,-2.20646],[0,9.33333]],[[538.61718,638],[0,-9.33333],[0,1.66667]],[[538.61718,643],[0,-1.66667],[0,0.66667]],[[538.61718,645],[-0.35177,0.56631],[1.33831,-2.15456]],[[545.61718,644],[-3.04994,0.00386],[6.01206,-0.00761]],[[563.97058,644.43107],[-5.90478,-1.08158],[10.78253,2.15651]],[[597.04254,645.54479],[-10.6965,-2.40266],[9.00888,2.25222]],[[626.11718,648],[-9.28168,0],[2.33333,0]],[[633.11718,648],[-2.33333,0],[0.35109,0]],[[634.59021,647.90091],[-0.5707,0.05184],[-0.57412,-1.02596]],[[634.61718,643],[0,1.39387],[0,-5.20707]],[[634.21982,624.13246],[2.14282,4.67827],[-1.8936,-5.6808]],[[628.03948,607.31672],[3.08887,5.66543],[-2.2791,-4.1802]],[[620.32688,595.27881],[1.8857,4.15235],[-0.91417,-2.47477]],[[615.61718,594],[2.9771,0.57275],[-6.58756,-1.26734]],[[595.61718,593],[6.8054,0],[-2.48058,0]],[[587.61718,593],[2.40395,0.50364],[-0.50743,-0.10631]],[[585.44122,592.1748],[0.71481,0.32365],[1.30749,1.01011]],[[582.51161,594.78885],[1.25365,-0.62682],[-0.98239,0.4912]]],&quot;closed&quot;:true}],&quot;index&quot;:null}" fill="#484848" fill-rule="nonzero" stroke="none" stroke-width="1" stroke-linecap="butt"/><path d="M413.4599,320.5778c0.00717,-0.19142 -0.00897,-0.51305 -0.02413,-0.82896c-0.10953,0.12388 -0.26985,0.22698 -0.47428,0.31211c-0.62116,0.47488 -1.53523,0.44069 -1.53523,0.44069c-7.74601,-0.29002 -12.38407,3.92469 -15.29498,8.43197c-0.34173,0.51095 -0.33686,1.14217 -0.35875,1.72689c-0.00623,0.16637 -0.03575,0.43003 -0.06739,0.70272c0.02378,-0.08724 0.07762,-0.15769 0.18345,-0.20026c0.46763,-0.18801 4.41929,1.21755 4.93701,0.51329c0.1556,-0.21164 -0.7136,-0.28516 -0.65641,-0.52826c0.70336,-2.98864 7.13784,-7.30814 10.26384,-8.44263c0.81078,-0.29423 1.7159,-0.42366 2.61245,-0.4649c-0.33289,-0.45482 0.39349,-1.10474 0.41438,-1.66261zM395.68931,331.49945c-0.06808,0.58514 -0.13005,1.1446 0.02141,0.81182c0.10352,-0.22741 -0.02128,-0.55675 -0.02141,-0.81182zM392.54879,327.32094c3.07297,-4.33882 7.0903,-8.24945 13.17394,-9.62008c0.59276,-0.69662 1.75996,-0.65292 1.75996,-0.65292l1.01679,0.03807c2.30234,0.0862 3.54481,-0.51925 6.01784,-0.42666c3.43447,0.1286 4.02302,5.70196 2.16628,7.25814c-1.17165,0.98199 -3.00209,1.25004 -4.54225,1.80901c-4.55885,1.65447 -6.4212,6.82955 -11.43936,9.25131c-5.31862,2.56676 -10.83561,-3.64624 -8.15324,-7.65678z" data-paper-data="{&quot;index&quot;:null}" fill="#000000" fill-rule="nonzero" stroke="none" stroke-width="1" stroke-linecap="butt"/><path d="M413.51343,319.69644c0.01519,0.3159 0.03589,0.64228 0.02872,0.83371c-0.02088,0.55787 -0.73931,1.21825 -0.40642,1.67311c-0.89656,0.04121 -1.80659,0.16371 -2.61737,0.45799c-3.12604,1.1345 -9.58988,5.42976 -10.29322,8.41839c-0.05726,0.2431 0.70995,0.45797 0.55435,0.66963c-0.51773,0.70423 -4.5032,-0.72431 -4.97086,-0.53633c-0.10588,0.04258 -0.15923,0.11345 -0.18299,0.20076c0.03165,-0.27273 0.05753,-0.5403 0.06376,-0.70667c0.02189,-0.58473 0.00856,-1.22776 0.35031,-1.7387c2.91088,-4.50729 7.71406,-8.81288 15.46006,-8.52286c0,0 0.9181,0.03791 1.53923,-0.43698c0.20441,-0.08518 0.36483,-0.18824 0.47429,-0.3121z" data-paper-data="{&quot;noHover&quot;:false,&quot;origItem&quot;:[&quot;Path&quot;,{&quot;applyMatrix&quot;:true,&quot;segments&quot;:[[[607.563,601.99816],[0.02649,0.38155],[-0.10299,0.15484]],[[607.10872,602.39727],[0.1976,-0.11227],[-0.59254,0.60273]],[[605.61718,603],[0,0],[-7.618,0]],[[590.90604,613.89443],[2.69308,-5.58508],[-0.31682,0.63364]],[[590.61718,616],[0,-0.70843],[0,0.20156]],[[590.57685,616.85325],[0.02106,-0.33136],[0.02013,-0.10671]],[[590.74964,616.60263],[-0.10238,0.05628],[0.45234,-0.24865]],[[595.61718,617],[-0.48256,0.87548],[0.14503,-0.26312]],[[594.95308,616.3906],[-0.04725,0.29671],[0.58086,-3.64773]],[[604.72276,605.71115],[-3.02833,1.51416],[0.78545,-0.39273]],[[607.27135,605.03032],[-0.87898,0.0905],[-0.34365,-0.53523]],[[607.61718,603],[0,0.6759],[0,-0.23192]]],&quot;closed&quot;:true}],&quot;index&quot;:null}" fill="#ffffff" fill-rule="nonzero" stroke="none" stroke-width="1" stroke-linecap="butt"/><path d="M244.72827,273.03657c8.81468,0.29919 17.62669,0.65996 26.43648,1.08047c-4.41843,0.04494 -8.85864,-0.03064 -13.32065,-0.2267c-4.43846,-0.16618 -8.81043,-0.45139 -13.11582,-0.85378z" fill="#884f38" fill-rule="evenodd" stroke="none" stroke-width="1" stroke-linecap="butt"/><path d="M170.00063,295.02446l9.23415,-240.45407l112.85269,14.96043l-0.34596,-29.07181l2.74475,0.84312l144.73125,18.74522l-0.65603,13.81426l-7.78159,207.83692l-1.20686,5.04474l-0.1012,17.53334l-245.82277,-9.20381z" fill="#d5d5d5" fill-rule="nonzero" stroke="#000000" stroke-width="1" stroke-linecap="round"/><path d="M170.60433,257.8906l261.58169,8.49822l-0.67932,37.91765l-261.2444,-8.85576z" fill="#65675c" fill-rule="nonzero" stroke="#000000" stroke-width="1" stroke-linecap="round"/><path d="M233.69158,296.94637l3.40673,-95.93325l46.52159,3.22251l-3.17691,94.73878z" fill="#242424" fill-rule="nonzero" stroke="#000000" stroke-width="1" stroke-linecap="round"/><path d="M239.91405,288.94292l3.22278,-81.13308l34.36438,1.65681l-1.75971,81.6043z" fill="#b57047" fill-rule="nonzero" stroke="#000000" stroke-width="1" stroke-linecap="round"/><path d="M190.4323,246.13952l1.81308,-48.42525l38.27348,1.06281l-2.65966,51.26239z" fill="#242424" fill-rule="nonzero" stroke="#000000" stroke-width="1" stroke-linecap="round"/><path d="M199.28535,242.02885l0.66548,-37.548l23.63737,1.44027l-1.91777,36.39058z" fill="#593f1e" fill-rule="nonzero" stroke="#000000" stroke-width="1" stroke-linecap="round"/><path d="M314.37036,187.47968l87.69004,6.05953l-1.85084,74.15108l-88.28606,-4.97129z" fill="#242424" fill-rule="nonzero" stroke="#000000" stroke-width="1" stroke-linecap="round"/><path d="M320.89071,196.23787l74.97835,4.47305l-1.87247,59.89848l-75.58821,-3.01518z" fill="#593f1e" fill-rule="nonzero" stroke="#000000" stroke-width="1" stroke-linecap="round"/><path d="M250.55613,122.11415l-97.4626,37.4405l-8.13537,-10.11428l105.32231,-39.73746l88.21745,56.23818l141.78517,12.15681l-3.43966,7.83002l-146.47755,-12.88777z" fill="#838e8a" fill-rule="nonzero" stroke="#000000" stroke-width="1" stroke-linecap="round"/><path d="M190.00672,62.2384l39.80545,4.63686l-2.33988,47.66517l-0.1384,3.69659l-38.13508,-4.75939l-0.73239,-0.21252z" fill="#242424" fill-rule="nonzero" stroke="#000000" stroke-width="1" stroke-linecap="round"/><path d="M194.41984,67.95628l28.40141,2.72916l-2.02157,39.16302l-26.9297,-2.48898z" fill="#593f1e" fill-rule="nonzero" stroke="#000000" stroke-width="1" stroke-linecap="round"/><path d="M291.7507,68.63903l-130.68352,-15.76684l-6.03996,-11.70161l136.6635,19.18349z" fill="#838e8a" fill-rule="nonzero" stroke="#000000" stroke-width="1" stroke-linecap="round"/><path d="M273.83219,30.62658l181.56091,22.53029l-2.36529,8.79568l-176.79242,-23.83246z" fill="#838e8a" fill-rule="nonzero" stroke="#000000" stroke-width="1" stroke-linecap="round"/><path d="M321.15191,66.46532c9.24913,-0.59598 19.72592,6.89215 23.14706,15.00545c2.21441,5.25148 2.92452,12.00723 2.23712,17.60826c-0.63611,5.04472 -1.40293,9.50679 -2.98452,14.3465c-0.86949,2.66069 -1.56298,6.13514 -3.73458,8.12453c-2.10341,1.92687 -5.69629,1.98538 -8.33045,2.49806c-10.04655,1.95524 -18.34569,-1.30213 -25.93792,-7.9361c-2.70564,-2.40497 -5.82875,-6.46532 -6.80295,-10.09771c-1.6152,-6.02243 -0.20952,-15.58317 2.3797,-21.18718c2.30046,-4.97898 6.59271,-6.53194 10.03409,-10.25673c1.87349,-2.02777 1.60777,-5.23831 3.96412,-6.80442c0.68267,-0.45373 1.56093,-0.50111 2.34141,-0.75167l1.94487,-0.88725c0,0 1.06313,-0.48273 1.74208,0.33826zM315.70053,72.21213c-0.65545,1.3325 -1.03776,2.96977 -2.31571,4.38683c-1.83409,2.03373 -4.56354,2.99094 -6.42884,4.92189c-4.94317,5.117 -7.10885,16.8137 -5.31912,23.65171c0.79932,3.05392 3.58566,6.68244 5.89673,8.6751c6.87169,6.04491 14.26525,9.03415 23.37527,7.24519c1.85321,-0.36393 5.40812,-0.37017 6.89182,-1.77923c1.67519,-1.59093 2.21175,-4.7502 2.88854,-6.82304c1.5227,-4.66365 2.24577,-8.92235 2.85933,-13.78821c0.65611,-5.0515 -0.02117,-11.26497 -2.00117,-16.00842c-3.12726,-7.4919 -13.17279,-14.29176 -21.46275,-13.09159c-1.3479,0.19513 -2.21961,1.57948 -3.35027,2.33875c0,0 -0.47378,0.31816 -1.03384,0.27104z" data-paper-data="{&quot;index&quot;:null}" fill="#080000" fill-rule="nonzero" stroke="none" stroke-width="0.5" stroke-linecap="butt"/><path d="M316.72247,71.89233c1.13065,-0.75927 2.00964,-2.14481 3.35754,-2.33997c8.28997,-1.20017 18.38179,5.6217 21.50905,13.11359c1.97999,4.74346 2.66522,10.99242 2.00909,16.04393c-0.61354,4.86586 -1.34955,9.15123 -2.87226,13.81488c-0.67679,2.07282 -1.22289,5.24007 -2.89809,6.831c-1.4837,1.40907 -5.05004,1.42077 -6.90324,1.7847c-9.11004,1.78896 -16.55097,-1.20902 -23.42266,-7.25392c-2.31109,-1.99264 -5.11128,-5.63895 -5.91059,-8.69286c-1.78971,-6.83801 0.38417,-18.58945 5.32734,-23.70645c1.86534,-1.93092 4.61033,-2.89984 6.4444,-4.93354c1.27796,-1.41705 1.66799,-3.05728 2.32343,-4.3898c0.56005,0.04711 1.03599,-0.27161 1.03599,-0.27161z" data-paper-data="{&quot;noHover&quot;:false,&quot;origItem&quot;:[&quot;Path&quot;,{&quot;applyMatrix&quot;:true,&quot;segments&quot;:[[[242.36308,94.44509],[0.55935,0.02605],[-0.60288,1.35103]],[[240.22113,98.89885],[1.21949,-1.45844],[-1.75016,2.09309]],[[234.00416,104.03862],[1.78511,-1.99193],[-4.73058,5.27863]],[[229.59018,127.78406],[-2.0367,-6.74107],[0.90961,3.01063]],[[235.78421,136.201],[-2.37514,-1.89768],[7.06666,5.76203]],[[259.32625,142.54284],[-9.00308,2.12064],[1.83146,-0.43139]],[[266.12128,140.51457],[-1.42462,1.45816],[1.60848,-1.64635]],[[268.74272,133.61401],[-0.59653,2.0889],[1.34214,-4.69981]],[[271.07546,119.78016],[-0.42946,4.86722],[0.46491,-5.05363]],[[268.48641,103.9171],[2.14806,4.64868],[-3.3927,-7.34221]],[[246.63053,91.68342],[8.20857,-1.50389],[-1.33466,0.24452]],[[243.38226,94.13672],[1.09735,-0.79807],[0,0]]],&quot;closed&quot;:true}],&quot;index&quot;:null}" fill="#ffffff" fill-rule="nonzero" stroke="none" stroke-width="0.5" stroke-linecap="butt"/><path d="M375.42914,65.4199c6.63727,-1.95286 13.40108,-2.21298 20.42166,-1.94694c4.0181,0.15227 9.25863,0.0768 12.53059,2.79633c3.78379,3.14496 5.25011,8.64464 7.24304,12.9179c2.78046,5.96285 5.19651,11.08215 4.93373,17.81474c-0.06571,1.68389 0.27673,3.44593 -0.24056,5.04975c-1.54785,4.79869 -5.23311,8.95888 -7.5544,13.38882c-3.77956,7.21289 -7.24607,14.21356 -16.28908,14.53386c-10.65932,0.2561 -19.75599,-3.36779 -28.07776,-9.80173c-2.74511,-2.12235 -6.41758,-4.85685 -8.3876,-7.74214c-3.99664,-5.85345 -3.83762,-13.07244 -3.5858,-19.79832c0.22036,-5.88539 0.42669,-11.7001 1.37626,-17.52237c0.43382,-2.65997 0.02376,-5.88761 2.51463,-7.6455c2.04144,-1.44072 4.27186,-0.63268 6.51381,-0.72161c2.0129,-0.07987 4.07646,-0.40532 6.06585,-0.71865l1.565,-0.56573c0,0 0.4733,-0.16905 0.97066,-0.03839zM371.27943,69.3131c-1.44776,0.21166 -2.9095,0.38275 -4.35085,0.43909c-1.45157,0.05676 -3.55965,-0.64757 -4.90398,0.19013c-1.29733,0.80846 -1.03122,4.29149 -1.25351,5.65249c-0.93058,5.698 -1.12337,11.38993 -1.33903,17.15c-0.22582,6.03137 -0.53785,12.67236 3.03644,17.94871c1.78773,2.63902 5.2562,5.15689 7.76875,7.09611c7.77288,5.99929 16.19172,9.43418 26.16165,9.17446c7.7254,-0.09348 10.52718,-6.87918 13.69751,-12.92189c2.21875,-4.22901 5.75721,-8.21879 7.3104,-12.76143c0.47484,-1.38879 0.08087,-2.93444 0.14269,-4.40085c0.26245,-6.224 -2.08342,-10.90727 -4.6541,-16.42015c-1.81241,-3.88743 -3.11286,-8.95722 -6.46472,-11.89657c-2.53098,-2.2195 -7.56113,-1.96534 -10.69251,-2.08112c-7.92032,-0.29284 -15.49805,0.04334 -22.93841,3.02908c0,0 -0.87747,0.3513 -1.52028,-0.19803z" data-paper-data="{&quot;index&quot;:null}" fill="#080000" fill-rule="nonzero" stroke="none" stroke-width="0.5" stroke-linecap="butt"/><path d="M372.77439,69.46782c7.44038,-2.98575 15.05515,-3.32737 22.97546,-3.03453c3.13135,0.11576 8.17688,-0.13181 10.70787,2.08767c3.35184,2.93933 4.66714,8.02383 6.47956,11.91125c2.57065,5.5129 4.92477,10.22442 4.66234,16.44842c-0.06185,1.46641 0.33147,3.01961 -0.14337,4.40838c-1.55316,4.54266 -5.10223,8.55587 -7.32101,12.78488c-3.17036,6.04275 -5.99845,12.84531 -13.72388,12.93879c-9.96996,0.25971 -18.43397,-3.18569 -26.20686,-9.18496c-2.51253,-1.93921 -5.99238,-4.47114 -7.78009,-7.11016c-3.5743,-5.27635 -3.26799,-11.94774 -3.04217,-17.97912c0.21565,-5.76008 0.41814,-11.47581 1.34872,-17.1738c0.22227,-1.36101 -0.03922,-4.84938 1.25815,-5.65782c1.34436,-0.83772 3.45632,-0.13691 4.90791,-0.19367c1.44136,-0.05636 2.90776,-0.23077 4.35552,-0.44244c0.64279,0.54934 1.52189,0.19707 1.52189,0.19707z" data-paper-data="{&quot;noHover&quot;:false,&quot;origItem&quot;:[&quot;Path&quot;,{&quot;applyMatrix&quot;:true,&quot;segments&quot;:[[[297.58827,89.48717],[0.66043,0.52295],[-1.43347,0.2647]],[[293.273,90.08651],[1.43289,-0.10983],[-1.44305,0.11061]],[[288.39778,90.45861],[1.30718,-0.88414],[-1.26148,0.85323]],[[287.36052,96.13283],[0.17056,-1.36327],[-0.71408,5.70749]],[[286.66667,113.25695],[0,-5.74266],[0,6.01312]],[[290.35873,131.01313],[-3.75518,-5.11979],[1.8782,2.56072]],[[298.35761,137.78829],[-2.5737,-1.83699],[7.96215,5.68303]],[[324.74561,145.947],[-9.91619,0.63019],[7.68777,-0.38104]],[[337.9009,132.57163],[-2.93108,6.1342],[2.05132,-4.29303]],[[344.70331,119.59411],[-1.37698,4.58048],[0.42097,-1.40035]],[[344.68132,115.2074],[-0.0069,1.46224],[0.02929,-6.20628]],[[339.43573,99.03331],[2.76479,5.39271],[-1.9493,-3.80268]],[[332.55614,87.4303],[3.44661,2.8014],[-2.60252,-2.11533]],[[321.83333,85.75695],[3.12183,-0.00146],[-7.89622,0.00369]],[[299.10921,89.62767],[7.2962,-3.24989],[0,0]]],&quot;closed&quot;:true}],&quot;index&quot;:null}" fill="#ffffff" fill-rule="nonzero" stroke="none" stroke-width="0.5" stroke-linecap="butt"/><path d="M362.41793,103.85932c0.07778,-2.07733 1.82486,-3.69833 3.90219,-3.62055c2.07733,0.07778 3.69834,1.82488 3.62055,3.90222c-0.07778,2.07733 -1.82485,3.69832 -3.90221,3.62055c-2.07733,-0.07778 -3.69831,-1.82486 -3.62054,-3.90221z" data-paper-data="{&quot;index&quot;:null}" fill="#000000" fill-rule="nonzero" stroke="none" stroke-width="0.5" stroke-linecap="butt"/><path d="M336.68314,97.76783c0.07778,-2.07733 1.82486,-3.69833 3.90222,-3.62055c2.07733,0.07778 3.69831,1.82487 3.62054,3.90221c-0.07777,2.07735 -1.82486,3.69833 -3.90219,3.62055c-2.07733,-0.07778 -3.69833,-1.82486 -3.62055,-3.90222z" data-paper-data="{&quot;index&quot;:null}" fill="#000000" fill-rule="nonzero" stroke="none" stroke-width="0.5" stroke-linecap="butt"/><path d="M269.93484,10.51757c1.10366,0.04132 1.4874,0.75059 1.62023,1.27154c8.43581,7.75352 19.71782,12.65812 29.67814,18.22251c9.81085,7.11724 19.66668,14.15498 29.172,21.67628c5.4309,4.29734 10.88041,9.83998 16.96339,13.14083c0,0 1.5406,0.84378 0.6968,2.38439c-0.84376,1.5406 -2.38438,0.69681 -2.38438,0.69681c-6.25909,-3.4554 -11.84574,-9.02807 -17.45573,-13.46712c-9.41399,-7.44906 -19.18642,-14.39685 -28.88411,-21.47115c-10.37692,-5.77254 -22.02748,-10.89942 -30.69114,-19.08791l-0.53622,-1.67665c0,0 0.06572,-1.7553 1.82103,-1.68959z" data-paper-data="{&quot;index&quot;:null}" fill="#000000" fill-rule="nonzero" stroke="none" stroke-width="0.5" stroke-linecap="butt"/><path d="M462.8151,8.0789c0.64282,1.63469 -0.99187,2.27751 -0.99187,2.27751l-3.08336,1.2125c-15.29455,6.01444 -30.21564,12.24956 -45.01946,19.39105c-6.05894,2.91979 -11.76674,6.57627 -17.56754,9.97695c-10.94846,6.41848 -21.76707,12.88769 -31.93712,20.43634c0,0 -1.41173,1.04523 -2.45695,-0.3665c-1.04522,-1.41173 0.3665,-2.45695 0.3665,-2.45695c10.29254,-7.5995 21.19053,-14.15955 32.25084,-20.64358c5.88386,-3.44934 11.67456,-7.14381 17.81783,-10.11042c14.88206,-7.17924 29.88508,-13.45015 45.26023,-19.49629l3.08334,-1.2125c0,0 1.63469,-0.64282 2.27751,0.99187z" data-paper-data="{&quot;index&quot;:null}" fill="#000000" fill-rule="nonzero" stroke="none" stroke-width="0.5" stroke-linecap="butt"/><path d="M310.92984,81.53313c-1.37549,0.04369 -2.77218,0.09835 -3.93333,-0.66557c-1.38099,-0.90857 -0.94181,-2.13409 -0.88791,-3.57364c0.13743,-3.67076 2.38594,-6.82282 5.72956,-8.43541c7.6615,-3.45835 15.94729,-1.45626 23.22778,1.87335c2.67029,0.84896 5.52177,1.35096 7.53353,3.44294c0.73458,0.76387 0.92502,1.68179 1.11347,2.61802c0.12656,0.62873 0.68776,1.08778 0.95056,1.67281c1.31487,2.927 1.76702,6.3493 1.64863,9.51131c-0.03292,0.87941 0.2323,2.86 -0.2095,3.63993c-0.6059,1.06962 -3.57238,0.95401 -4.59633,0.66773c-4.46628,-1.24872 -8.87755,-2.51401 -13.08902,-4.56331c-5.69177,-2.76973 -11.4847,-4.52292 -17.48744,-6.18815z" fill="#000000" fill-rule="nonzero" stroke="none" stroke-width="0.5" stroke-linecap="butt"/><path d="M358.38604,95.49193c0.00806,-0.21539 0.08839,-0.35287 0.18964,-0.4406c0.00405,-0.18181 0.00642,-0.36235 0.00718,-0.54177c-0.53023,0.04458 -1.06051,0.08869 -1.59089,0.13227c0,0 -0.61622,0.05065 -0.66686,-0.56558c-0.05065,-0.61622 0.56557,-0.66687 0.56557,-0.66687c0.55761,-0.04583 1.11514,-0.09223 1.6726,-0.13917c-0.07952,-2.25404 -0.38658,-4.37452 -0.71081,-6.65909c-0.52437,-3.69463 0.28439,-8.03759 0.42433,-11.77544c0.05629,-1.50262 -0.1661,-3.61932 0.42556,-5.02014c0.67367,-1.595 3.34323,-3.70196 4.93919,-4.19645c1.31047,-0.40603 2.83192,-0.14819 4.14669,-0.39269c2.39436,-0.44526 4.83408,-0.93964 7.24514,-1.40582c8.35043,-1.61454 17.0167,-1.8908 25.47691,-2.85158c2.8849,0.20793 5.95315,0.03314 8.16299,2.25822c0.89046,0.89661 1.16859,2.69562 1.68319,3.82853c1.67289,3.68275 3.06258,7.42283 4.86907,11.05125c1.04064,2.09143 2.2454,4.34402 2.16974,6.70764c-0.02798,0.87444 0.12345,2.17549 -0.729,2.77994c-0.32455,0.23014 -0.79519,0.03217 -1.19203,0.06048c-1.1809,0.08421 -2.41283,0.15035 -3.58293,0.32774c-3.08629,0.4679 -6.10618,1.31796 -9.21528,1.68483c-7.95148,0.93437 -15.92896,1.94339 -23.87666,2.96364c-6.32499,0.62506 -12.64784,1.23212 -18.97948,1.77341c-0.0004,0.37516 -0.00744,0.75482 -0.02186,1.14013l-0.81729,0.58813c0,0 -0.61787,-0.02314 -0.59474,-0.641z" fill="#000000" fill-rule="nonzero" stroke="none" stroke-width="0.5" stroke-linecap="butt"/><path d="M299.98397,163.10039c-0.9993,-0.03741 -0.96188,-1.03671 -0.96188,-1.03671l0.00495,-0.13217c0.09189,-2.45425 -0.07702,-5.08861 0.28777,-7.51408c0.38373,-2.55155 2.03555,-4.83466 2.66842,-7.37834c0.34555,-1.38883 0.27943,-2.8251 0.70894,-4.21413c0.86434,-2.71311 0.1434,-10.04456 3.54414,-11.33697c1.87509,-0.7126 4.39491,1.39379 5.59302,2.54823c2.99117,2.88213 7.40989,6.84133 8.86776,11.0244l0.07072,-0.05525l0.02189,0.02802l0.00903,-0.03156c0.66853,-2.40288 0.77388,-6.58818 2.38893,-8.54365c0.48456,-0.5867 1.21775,-1.2523 1.97181,-1.15025c0.88014,0.11911 1.40873,1.08667 2.05561,1.69526c2.12751,2.00165 3.68972,4.7355 5.56991,6.96499c0.69523,0.82498 1.80175,1.74436 2.32398,2.81525c0.50731,-2.04029 1.52493,-5.61764 2.42537,-7.3465c0.43684,-0.83874 0.85722,-1.93371 1.7558,-2.22848c0.81968,-0.26889 3.69716,1.55439 4.298,2.05089c2.79572,2.31031 4.61797,5.941 6.08678,9.17017c0.4683,1.02954 1.02944,1.91737 1.35845,2.88134c0.36696,-2.60474 0.99092,-6.59529 4.16341,-6.2667c0.65772,0.06812 1.1035,0.73095 1.62676,1.13522c2.47576,1.91282 4.48323,4.46769 6.60238,6.75232c1.18086,1.40044 2.0587,2.65157 2.95312,4.17738c0.11366,0.19391 -0.14508,-0.43939 -0.1227,-0.66304c0.11006,-1.09979 0.49989,-2.16054 0.59823,-3.26145c0.20646,-2.31133 -0.48554,-6.15699 1.5183,-7.87593c1.15621,-0.99184 4.10066,0.83821 4.8849,1.34594c3.98967,2.58301 7.13439,7.67103 10.09285,11.35894c0.57228,0.72733 1.06387,1.52153 1.68211,2.20947c-0.11866,-0.13959 -0.29648,-0.37193 -0.30371,-0.50641c-0.03529,-0.65603 0.18039,-1.30195 0.2419,-1.95604c0.12351,-1.3133 0.18824,-2.63166 0.25559,-3.94904c0.19325,-3.78074 -0.32521,-8.16627 0.4646,-11.86542c1.07698,-5.04418 5.33036,0.14502 6.60306,1.92652c1.16897,1.63632 2.01029,3.36124 2.92634,5.14392c2.46262,5.16186 4.65706,10.45487 7.73677,15.27623c3.31715,5.19307 7.00789,8.6 8.43538,14.82065c0,0 0.22366,0.97467 -0.751,1.19833c-0.97467,0.22366 -1.19833,-0.751 -1.19833,-0.751c-1.36578,-5.95173 -4.97951,-9.2028 -8.17111,-14.19069c-3.1237,-4.88177 -5.3502,-10.23733 -7.84389,-15.46579c-0.56225,-1.09387 -1.05441,-2.22656 -1.68505,-3.28249c-0.99623,-1.66807 -2.48375,-3.66304 -3.81947,-4.9818c-0.19767,-0.19516 -0.25828,0.5053 -0.28995,0.78126c-0.06776,0.59042 -0.02727,1.18832 -0.0463,1.78232c-0.03952,1.23378 -0.09236,2.46708 -0.13856,3.70063c-0.12525,3.34504 -0.17326,6.70916 -0.48686,10.04364c-0.0383,0.4072 -0.36795,3.98065 -0.96315,4.148c-1.91573,0.53869 -3.3241,-1.74595 -4.20842,-2.83081c-2.70431,-3.3711 -5.40653,-7.33044 -8.66447,-10.14425c-0.33484,-0.2892 -3.46106,-2.46252 -3.67634,-2.12679c-1.26593,1.97421 -0.4727,6.19599 -0.90231,8.4496c-0.15573,0.81692 -0.70742,3.63812 -1.96942,3.65557c-0.95264,0.01317 -1.47618,-1.2093 -2.15312,-1.8797c-0.00314,-0.0031 -2.44227,-2.89766 -2.49708,-2.96272c-1.61998,-1.74551 -3.16173,-3.66413 -4.90357,-5.28726c-0.09044,-0.08428 -2.24385,-2.58336 -2.79857,-1.73396c-0.9869,1.51117 -1.10306,3.79222 -1.3842,5.50349l-0.02487,0.04631l0.01277,0.00345l-0.45558,1.68389c-0.11159,0.44996 -0.52637,0.77558 -1.00795,0.75755c-0.38286,-0.01433 -0.70738,-0.24209 -0.86334,-0.56451l-0.89615,-1.76562l0.1832,-0.09299c-2.26216,-3.62218 -3.70369,-7.64905 -6.59686,-10.97598c-0.44359,-0.5101 -2.65658,-2.90424 -3.35553,-2.69895c-0.96567,0.28362 -0.62095,1.91651 -0.86267,2.89349c-0.50131,2.02614 -1.05583,3.92322 -2.07317,5.75492c-0.34045,0.61297 -0.37976,1.79561 -1.08087,1.80455c-0.96939,0.01237 -1.57691,-1.13208 -2.31451,-1.76123c-0.45432,-0.38752 -2.02938,-2.30491 -2.25014,-2.56673c-1.94815,-2.31207 -3.83735,-6.17637 -6.26531,-7.95644c-0.89605,-0.65695 -0.80677,2.0764 -1.08054,3.15321c-0.43285,1.70247 -0.71515,3.39405 -1.18656,5.09158l-0.00168,0.00336l0.00068,0.00019l-0.5442,1.90296c-0.11638,0.44308 -0.52773,0.76215 -1.00458,0.7443c-0.30899,-0.01157 -0.57997,-0.16215 -0.75503,-0.38931l-1.22685,-1.57043l0.14839,-0.11593c-2.63911,-2.94553 -4.6645,-6.35278 -7.52997,-9.1703c-0.79935,-0.78598 -3.32268,-4.04985 -4.92948,-3.56905c-0.5647,0.16897 -0.69505,1.58964 -0.77605,1.90287c-0.70213,2.71546 -0.6799,5.47036 -1.50396,8.1388c-0.42414,1.33234 -0.33773,2.7078 -0.66482,4.0489c-0.60159,2.4665 -2.30631,4.79848 -2.64374,7.246c-0.32602,2.36484 -0.17702,4.89977 -0.26646,7.28841l-0.00495,0.13217c0,0 -0.03741,0.9993 -1.03671,0.96188z" fill="#080000" fill-rule="nonzero" stroke="none" stroke-width="0.5" stroke-linecap="butt"/></g></g></g></svg>