<svg version="1.1" xmlns="http://www.w3.org/2000/svg" xmlns:xlink="http://www.w3.org/1999/xlink" width="2878.25006" height="1619.57958" viewBox="0,0,2878.25006,1619.57958"><g transform="translate(1119.12503,629.78979)"><g stroke-miterlimit="10"><path d="M-1119.12503,989.78979v-1619.57958h2878.25006v1619.57958z" fill="none" stroke="#000000" stroke-width="0" stroke-linecap="butt"/><g stroke-width="0"><path d="M168.09143,342.29406l28.83129,-52.41438l80.55789,-0.46797l-16.95954,52.8824z" fill="#cedce9" stroke="#000000" stroke-linecap="round"/><path d="M160.42885,339.54582c-2.78231,-0.73973 -9.40378,-1.89287 -6.50196,-3.08497c-1.58651,0.382 -3.70309,0.84839 -4.82934,0.97385c-5.33531,0.59438 -12.24973,0 -17.75522,0c-15.10386,0 -29.76748,-0.31549 -44.38795,1.18012c-6.60742,0.67592 -8.42377,-1.41139 -10.4527,1.50916c-4.1851,4.90029 -12.05916,9.27311 -17.1173,14.20628c-6.85547,6.68595 -9.51394,13.14062 -13.71662,19.8447c-4.75574,5.52096 -0.88186,16.12106 -0.88186,22.26605c0,1.64493 1.33408,4.5729 0.05991,5.78369c1.26664,0.06115 2.49005,0.11698 3.2692,0.11698c5.1786,0 10.35715,0 15.53583,0c20.59973,0 44.53385,-0.23953 64.52816,-2.89742c23.73975,-2.83542 49.46906,1.23059 73.39979,-1.31435c13.10501,-1.27641 27.39032,-0.51768 40.73346,-0.50868c6.76902,0.00455 12.56555,-1.36253 15.53578,1.18013c0.7807,0.66834 0,-1.57351 0,-2.36021c0,-1.96684 0,-3.93376 0,-5.90064c0,-11.01452 0,-22.029 0,-33.04355c0,-2.60391 -1.28359,-11.91972 1.37196,-12.92779c-0.49817,-0.01583 -1.06199,-0.04155 -1.37196,-0.05358c-2.74629,-0.10655 -4.28068,-0.02607 -6.42391,-0.83921c-3.72081,-1.41167 -16.27375,-0.34091 -21.31857,-0.34091c-19.60468,0 -39.20932,0 -58.81401,0c0,0 -4.43878,0 -4.43878,-2.36021c0,-0.09688 0.00743,-0.18976 0.02181,-0.27882c-2.12195,-0.23913 -4.26541,-0.57084 -6.44565,-1.1505zM230.10548,338.61495c11.83443,0 26.95975,-1.12053 35.04162,3.66498c4.6313,2.74225 1.57836,11.53455 1.57836,15.2171c0,11.01452 0,22.029 0,33.04352c0,1.25777 1.52888,7.49701 0,8.26089c-15.44241,7.71537 -44.54879,1.69892 -63.40575,3.95743c-23.40036,2.48854 -50.34872,-2.25357 -72.98769,1.26509c-20.60729,2.73938 -45.43368,3.03842 -66.68128,3.03842c-3.04774,0 -21.32528,1.22733 -23.30364,0c-5.67346,-3.51959 -4.43879,-6.45553 -4.43879,-10.62116c0,-7.53469 -2.51188,-16.516 1.33754,-23.75882c4.30747,-6.87117 7.32822,-13.76273 14.19836,-20.46301c2.77135,-2.70279 5.7648,-6.31811 9.34617,-8.75924c2.34347,-1.59737 6.82405,-2.89519 7.38392,-4.97164c3.79744,-5.46628 10.66001,-3.67524 18.78029,-4.59396c14.45503,-1.63543 29.4133,-1.18013 44.38795,-1.18013c5.52256,0 16.31299,-1.35148 20.20885,-0.93093c6.78186,0.73205 10.71359,3.80733 17.28661,4.72049c4.82322,0.67005 9.906,0.27341 15.53582,1.7702c0.42742,0.11367 0.85473,0.22724 1.28219,0.34091c14.81659,0 29.63318,0 44.44978,0z" fill="#000000" stroke="none" stroke-linecap="butt"/><path d="M166.93624,340.58304c-0.01439,0.08908 -0.02131,0.182 -0.02131,0.27888c0,2.36021 4.46057,2.36427 4.46057,2.36427c19.60467,0 39.31381,0.04694 58.91856,0.04694c5.04482,0 17.60916,-1.05983 21.32995,0.35187c2.14319,0.81312 3.68107,0.73661 6.42726,0.84316c0.31001,0.01202 0.87424,0.0384 1.37247,0.05424c-2.65561,1.00806 -1.35847,10.3465 -1.35847,12.95042c0,11.01452 -0.00922,22.09452 -0.00922,33.10909c0,1.96684 -0.00761,3.94331 -0.00761,5.91017c0,0.78674 0.77733,3.03207 -0.00337,2.36376c-2.97023,-2.54266 -8.77204,-1.1705 -15.54101,-1.17505c-13.34318,-0.00898 -27.66882,-0.74078 -40.77387,0.53562c-23.93073,2.54494 -49.89523,-1.49822 -73.63498,1.33724c-19.99429,2.65792 -44.02562,2.85636 -64.62544,2.85636c-5.1786,0 -10.36627,-0.00742 -15.54487,-0.00742c-0.77923,0 -2.0043,-0.0573 -3.27087,-0.11845c1.2742,-1.21077 -0.06818,-4.14712 -0.06818,-5.79202c0,-6.14504 -3.89473,-16.78599 0.86108,-22.30698c4.20264,-6.70404 6.87028,-13.20355 13.7257,-19.88945c5.05821,-4.93316 12.96554,-9.34116 17.15065,-14.24143c2.02894,-2.92055 3.85909,-0.84221 10.46648,-1.5181c14.6204,-1.49564 29.37923,-1.21321 44.48304,-1.21321c5.50534,0 12.48168,0.58847 17.81703,-0.00593c1.12613,-0.12549 3.26038,-0.59183 4.84687,-0.97382c-2.90186,1.19207 3.7459,2.34661 6.52821,3.08634c2.18036,0.57966 4.34964,0.91447 6.47158,1.15362z" fill="#484848" stroke="none" stroke-linecap="butt"/><path d="M104.70964,349.23608c0,0.79765 1.53023,1.76442 0.76752,2.39605c1.95083,0.1068 3.9131,0.33996 5.65633,0.80343c6.72107,1.78692 20.3936,8.2983 21.68278,12.60308c0.10483,0.35016 -1.79577,0.40869 -1.47387,0.71916c1.07098,1.03321 9.79901,-0.76239 10.80294,-0.46898c0.22722,0.06642 0.33882,0.16987 0.38353,0.29573c-0.04672,-0.39104 -0.08956,-0.76908 -0.08956,-1.00695c0,-0.83605 0.06214,-1.73701 -0.64101,-2.48483c-5.97697,-6.59109 -15.74243,-12.85685 -32.64987,-12.85685c0,0 -1.9952,-0.00004 -3.31037,-0.71129c-0.43859,-0.13252 -0.7796,-0.28824 -1.00823,-0.47099c-0.05878,0.45027 -0.12022,0.90862 -0.12022,1.18232zM142.43943,366.93791c0.30296,0.48324 0.21358,-0.31885 0.11291,-1.15798c-0.02107,0.36417 -0.31999,0.82773 -0.11291,1.15798zM149.73864,359.98179c5.51937,5.86966 -7.01286,14.44567 -18.39623,10.49653c-10.7403,-3.72609 -14.37725,-11.21464 -24.17904,-13.82058c-3.3114,-0.88041 -7.27922,-1.36098 -9.75295,-2.82572c-3.92006,-2.32117 -2.18236,-10.24738 5.31413,-10.24738c5.39796,0 8.05669,0.93092 13.08207,0.93092h2.21937c0,0 2.54771,0 3.78284,1.02634c13.14851,2.28219 21.58583,8.08058 27.92977,14.43985z" fill="#000000" stroke="none" stroke-linecap="butt"/><path d="M104.66514,347.97464c0.2285,0.18271 0.56976,0.33846 1.00834,0.471c1.31513,0.71127 3.31938,0.70625 3.31938,0.70625c16.90739,0 27.02535,6.40429 33.0023,12.99541c0.70318,0.74779 0.62167,1.66522 0.62167,2.50125c0,0.23787 0.03459,0.6213 0.08133,1.01236c-0.04463,-0.12594 -0.15517,-0.22998 -0.38248,-0.29642c-1.004,-0.29341 -9.80759,1.53319 -10.87857,0.50002c-0.32188,-0.31052 1.36791,-0.57628 1.26297,-0.92647c-1.28917,-4.30477 -15.02765,-10.7831 -21.74882,-12.57009c-1.74326,-0.4635 -3.71684,-0.68708 -5.66766,-0.79385c0.76269,-0.63166 -0.74934,-1.61295 -0.74934,-2.4106c0,-0.27369 0.07173,-0.73859 0.13061,-1.18881z" fill="#ffffff" stroke="none" stroke-linecap="butt"/></g><g stroke-width="0"><path d="M376.07974,242.8486l-18.23399,-53.12161l86.6115,0.4701l30.99784,52.65148z" fill="#cedce9" stroke="#000000" stroke-linecap="round"/><path d="M483.69345,240.08802c-2.34409,0.58229 -4.64862,0.9155 -6.93002,1.15571c0.01545,0.08948 0.02345,0.18278 0.02345,0.2801c0,2.37088 -4.77235,2.37088 -4.77235,2.37088c-21.0779,0 -42.15578,0 -63.23365,0c-5.42392,0 -18.92018,-1.07561 -22.92058,0.34245c-2.30429,0.81682 -3.95398,0.73599 -6.90665,0.84301c-0.33326,0.01209 -0.93946,0.03793 -1.47505,0.05382c2.85512,1.01263 1.47505,10.37059 1.47505,12.98627c0,11.06437 0,22.1287 0,33.19302c0,1.97578 0,3.95159 0,5.92732c0,0.79026 -0.83936,3.04225 0,2.3709c3.19342,-2.55416 9.42554,-1.18092 16.70324,-1.18549c14.34584,-0.00904 29.70463,-0.77121 43.79444,0.51098c25.72904,2.55645 53.3918,-1.52796 78.91549,1.32029c21.4968,2.66989 47.22949,2.91051 69.37721,2.91051c5.56784,0 11.13552,0 16.70329,0c0.8377,0 2.15306,-0.05607 3.51488,-0.1175c-1.36992,-1.21625 0.06441,-4.15749 0.06441,-5.80984c0,-6.1728 4.16498,-16.82085 -0.94813,-22.36678c-4.51849,-6.7344 -7.37674,-13.21827 -14.74737,-19.93447c-5.43824,-4.95547 -13.904,-9.34807 -18.4036,-14.27054c-2.18139,-2.93378 -4.13424,-0.83702 -11.23817,-1.51599c-15.71915,-1.50238 -31.48467,-1.18545 -47.72353,-1.18545c-5.91921,0 -13.35322,0.59706 -19.08946,0c-1.21087,-0.12603 -3.4865,-0.59454 -5.19225,-0.97827c3.1199,1.19751 -3.99917,2.35585 -6.99055,3.09893zM408.78063,239.15292c15.93002,0 31.86002,0 47.79002,0c0.45956,-0.11418 0.91901,-0.22827 1.37854,-0.34244c6.05288,-1.50356 11.51762,-1.10513 16.70328,-1.77819c7.06696,-0.9173 11.29413,-4.00649 18.58562,-4.74185c4.18862,-0.42244 15.78991,0.93515 21.72746,0.93515c16.09994,0 32.18225,-0.45735 47.72353,1.18548c8.7305,0.92289 16.10876,-0.87625 20.19156,4.61476c0.60194,2.08585 5.4192,3.38953 7.93879,4.99414c3.85051,2.45218 7.06889,6.08383 10.0485,8.79886c7.38642,6.73057 10.63418,13.6533 15.26531,20.55556c4.13869,7.27558 1.43806,16.29752 1.43806,23.8663c0,4.18448 1.32745,7.1337 -4.77235,10.6692c-2.12703,1.23287 -21.77806,0 -25.05482,0c-22.84429,0 -49.53628,-0.3004 -71.69214,-3.05217c-24.34021,-3.53457 -53.31363,1.22899 -78.47244,-1.2708c-20.27402,-2.26871 -51.56763,3.77494 -68.17045,-3.97533c-1.64376,-0.76734 0,-7.0348 0,-8.29826c0,-11.06435 0,-22.12867 0,-33.19301c0,-3.69921 -3.28235,-12.53127 1.69697,-15.28593c8.68919,-4.80715 24.95113,-3.68155 37.67487,-3.68155z" fill="#000000" stroke="none" stroke-linecap="butt"/><path d="M476.69687,241.12992c2.28138,-0.24023 4.61368,-0.57655 6.95789,-1.15884c2.99138,-0.74307 10.13871,-1.90284 7.01878,-3.10029c1.70571,0.38373 4.00033,0.85218 5.21109,0.97824c5.73627,0.59708 13.23687,0.00594 19.15591,0.00594c16.23879,0 32.1067,-0.2837 47.82576,1.21869c7.10391,0.67897 9.07159,-1.40879 11.25299,1.52497c4.49961,4.92245 13.00114,9.35037 18.43945,14.30586c7.37059,6.71614 10.23868,13.24505 14.75714,19.97942c5.11318,5.54596 0.92579,16.23504 0.92579,22.40788c0,1.65235 -1.44325,4.60198 -0.0733,5.81822c-1.36175,0.06142 -2.67888,0.11899 -3.51667,0.11899c-5.56774,0 -11.14524,0.00745 -16.71301,0.00745c-22.14782,0 -47.98501,-0.19933 -69.48179,-2.86927c-25.52371,-2.8483 -53.43934,1.21315 -79.16837,-1.3433c-14.08984,-1.28217 -29.49201,-0.54706 -43.83787,-0.53805c-7.27762,0.00457 -13.51542,-1.3738 -16.70885,1.18036c-0.83936,0.67134 -0.00362,-1.58415 -0.00362,-2.37445c0,-1.97575 -0.00818,-3.96117 -0.00818,-5.93691c0,-11.06437 -0.00992,-22.19453 -0.00992,-33.25885c0,-2.61568 1.39461,-11.99637 -1.46056,-13.009c0.53567,-0.01591 1.14229,-0.04243 1.47561,-0.05448c2.95256,-0.10702 4.60601,-0.03017 6.91025,-0.84698c4.00039,-1.41807 17.50889,-0.35346 22.93281,-0.35346c21.07796,0 42.26818,-0.04715 63.34606,-0.04715c0,0 4.79577,-0.00408 4.79577,-2.37496c0,-0.09731 -0.00744,-0.19066 -0.02291,-0.28014z" fill="#484848" stroke="none" stroke-linecap="butt"/><path d="M543.59983,249.82185c0,-0.27494 -0.06607,-0.73535 -0.12926,-1.18766c-0.24581,0.18358 -0.61244,0.33999 -1.08399,0.4731c-1.414,0.71447 -3.55913,0.71451 -3.55913,0.71451c-18.17797,0 -28.67728,6.2941 -35.10339,12.91501c-0.75599,0.75122 -0.68917,1.65623 -0.68917,2.49606c0,0.23895 -0.04606,0.6187 -0.09629,1.01151c0.04807,-0.12642 0.16806,-0.23032 0.41235,-0.29706c1.07939,-0.29474 10.4633,1.50896 11.61475,0.47109c0.34607,-0.31188 -1.69734,-0.37066 -1.58463,-0.7224c1.38606,-4.32425 16.08601,-10.86511 23.31215,-12.66011c1.87423,-0.46555 3.98397,-0.69977 6.08139,-0.80706c-0.82004,-0.63448 0.82521,-1.60564 0.82521,-2.40688zM502.91337,266.44067c-0.10823,0.84293 -0.20433,1.64865 0.1214,1.16322c0.22264,-0.33175 -0.09874,-0.79741 -0.1214,-1.16322zM495.18707,260.61626c6.82067,-6.38803 15.89201,-12.21266 30.02858,-14.50516c1.32796,-1.03098 4.06712,-1.03098 4.06712,-1.03098h2.38616c5.40301,0 8.26154,-0.93513 14.06513,-0.93513c8.05982,0 9.92809,7.96206 5.71346,10.29371c-2.6596,1.47136 -6.92562,1.95411 -10.48585,2.8385c-10.53835,2.61773 -14.44859,10.14016 -25.99598,13.8831c-12.23879,3.96702 -25.71277,-4.64781 -19.77864,-10.54401z" fill="#000000" stroke="none" stroke-linecap="butt"/><path d="M543.64791,248.55488c0.06331,0.45226 0.14043,0.91925 0.14043,1.1942c0,0.80125 -1.62565,1.78699 -0.80565,2.42151c-2.0974,0.10724 -4.21931,0.33183 -6.09355,0.79742c-7.22625,1.79506 -21.99713,8.30271 -23.38317,12.62694c-0.11283,0.35177 1.70396,0.61874 1.35787,0.93066c-1.15146,1.03784 -10.6166,-0.79702 -11.69604,-0.50228c-0.24439,0.06675 -0.36323,0.17127 -0.41122,0.29777c0.05027,-0.39283 0.08744,-0.77801 0.08744,-1.01693c0,-0.8398 -0.08765,-1.76138 0.66838,-2.51255c6.42609,-6.62094 17.30438,-13.05421 35.48229,-13.05421c0,0 2.15486,0.00505 3.56883,-0.70944c0.47154,-0.13315 0.83844,-0.2896 1.08412,-0.47313z" fill="#ffffff" stroke="none" stroke-linecap="butt"/></g><g><path d="M93.74225,352.2291l-47.54557,-182.96876l217.5634,-62.17159l49.8995,171.83089z" fill="#a18c5d" stroke="#000000" stroke-width="1" stroke-linecap="round"/><path d="M129.69627,341.11056l-46.84243,-162.19098l16.28389,-16.9361l38.70433,-17.31724l36.69484,-10.54688l54.3422,-5.72286l9.05703,-0.95381l48.90695,161.23106z" fill="#f6fffe" stroke="#000000" stroke-width="1" stroke-linecap="round"/><path d="M147.07255,335.13502l-45.47286,-147.42337l19.7078,-14.38855l31.46726,-12.5951l34.16971,-9.84783l32.29881,-1.17395l45.27311,146.70191z" fill="#3e433f" stroke="#000000" stroke-width="1" stroke-linecap="round"/><path d="M263.20187,287.45093l-78.86791,30.7663l-44.3132,-144.63738l79.06153,-23.05232z" fill="#5e685f" stroke="#000000" stroke-width="1" stroke-linecap="round"/><path d="M259.54564,275.64664l-67.00247,25.92798l-34.63658,-120.90648l64.49364,-20.96128l33.72149,113.39225z" fill="#d48246" stroke="#000000" stroke-width="1" stroke-linecap="round"/><path d="M275.86397,104.51472l-262.47458,74.60468l-8.60664,-10.04548l273.13554,-76.77927z" fill="#2a3531" stroke="#000000" stroke-width="1" stroke-linecap="round"/><path d="M231.06317,-33.81729l-1.97487,-9.93951l235.97758,-52.12256l0.87381,3.1564l89.28418,287.44204l-242.39533,82.25086l-49.40015,-168.62422l2.78599,-1.15965l9.11818,-2.13587l3.49725,-12.61953l-17.05428,4.33289l-180.06659,51.0143l-37.76499,-140.62449z" fill="#fefefe" stroke="#000000" stroke-width="1" stroke-linecap="round"/><path d="M360.99905,260.52751l-43.88522,-152.9118l156.58026,-46.06593l42.97013,145.39756z" fill="#626f65" stroke="#000000" stroke-width="1" stroke-linecap="round"/><path d="M285.35917,105.14361l207.78795,-64.51429l1.30843,15.94967l-199.50742,57.94977z" fill="#2a3531" stroke="#000000" stroke-width="1" stroke-linecap="round"/><path d="M458.28245,66.20469l30.18752,99.22382l-122.59397,39.76428l-31.64675,-103.09202z" fill="#345367" stroke="#000000" stroke-width="1" stroke-linecap="round"/><path d="M231.5849,-34.7385l-223.864,49.93419l-13.79548,-10.55089l211.05495,-42.89278l-7.16371,-10.44494l296.23925,-68.02849l-8.33147,19.00674l-35.10721,5.05844l-221.33888,49.23515z" fill="#1c1e19" stroke="#000000" stroke-width="1" stroke-linecap="round"/><path d="M204.0709,-29.25767l15.90082,54.63159l-116.07227,28.24936l-13.77514,-56.77357z" fill="#5c6957" stroke="#000000" stroke-width="1" stroke-linecap="round"/><path d="M176.15591,-23.47166l16.178,58.43865l-56.55142,11.77177l-15.35668,-58.27763z" fill="#345367" stroke="#000000" stroke-width="1" stroke-linecap="round"/><path d="M324.80533,23.03436c1.3105,-0.33732 2.5972,-0.77207 3.91008,-1.10094c1.30009,-0.32566 2.63371,-0.5731 3.94557,-0.84763c0.7858,-0.16443 1.62864,-0.40263 2.4245,-0.50807c0.81377,-0.10781 1.65908,-0.04944 2.47671,-0.12248c1.25979,-0.11254 2.4977,-0.42491 3.75678,-0.54499c0.56655,-0.05404 1.13567,-0.07329 1.70492,-0.08204c-0.1624,0.03004 -0.32155,0.06888 -0.46834,0.13998c-0.40858,0.19791 -0.69652,0.59309 -1.09124,0.81737c-0.44181,0.25104 -0.93394,0.40266 -1.40003,0.60512c-1.43882,0.62498 -2.84351,1.38906 -4.30727,1.95316c-0.41121,0.15846 -0.88009,0.25004 -1.30465,0.36813c-0.56414,0.15688 -1.15114,0.37695 -1.7295,0.46856c-1.25643,0.199 -2.31909,0.09878 -3.54474,-0.1467c-0.62355,-0.12488 -1.22708,-0.35608 -1.85121,-0.47802c-0.56424,-0.11023 -1.15684,-0.07373 -1.71057,-0.22835c-0.1865,-0.05208 -0.472,-0.15859 -0.81099,-0.29305z" fill="#ffffff" stroke="none" stroke-width="0.5" stroke-linecap="butt"/><path d="M348.69537,-65.91117c0.66088,-0.35179 1.34276,-0.67174 1.98424,-1.05774c0.61078,-0.36752 1.12882,-0.89387 1.77115,-1.20295c0.69962,-0.33665 1.48043,-0.47704 2.21851,-0.71793c0.7654,-0.24982 1.52057,-0.54271 2.29659,-0.75733c1.58726,-0.43898 3.21821,-0.72817 4.82446,-1.09156c0.01066,-0.00241 4.83892,-1.09545 4.86267,-1.1013c0.52056,-0.12839 1.02655,-0.32336 1.55166,-0.43168c0.60587,-0.12497 1.22914,-0.1634 1.83886,-0.26787c0.7914,-0.13561 1.56958,-0.37819 2.36898,-0.4533c0.79087,-0.07431 1.5918,0.0049 2.38616,0.00625c1.46891,0.0025 2.94364,-0.00534 4.41252,-0.01544c2.33734,0.50931 4.71612,1.0729 6.98228,1.85028c0.76858,0.26366 1.51155,0.60558 2.26598,0.90735c2.0244,0.80975 2.52697,0.93925 4.4388,1.97517c0.71885,0.38951 1.41036,0.8341 2.11415,1.2502c0.71735,0.42411 1.43713,0.85082 2.15519,1.2737c0.36453,0.21469 0.76267,0.38248 1.09702,0.6417c0.62692,0.48604 1.1854,1.05933 1.77779,1.58691c1.17917,1.05018 2.34021,2.13099 3.47529,3.22869c0.50296,0.48641 1.03811,0.94541 1.51165,1.46054c0.54862,0.5968 1.0354,1.25199 1.55422,1.87491c0.50114,0.60171 1.08352,1.14714 1.50951,1.80419c0.80049,1.23476 1.30244,2.89982 1.68201,4.29538c0.42881,1.57657 0.82327,3.17169 1.12892,4.77671c0.23919,1.256 0.36894,2.53587 0.55575,3.8007c0.04168,4.94817 -0.26425,9.92459 -0.45048,14.8692c-0.06205,1.64753 -0.16255,3.30058 -0.29275,4.94412c-0.05993,0.75644 -0.06108,1.52262 -0.17847,2.27228c-0.09472,0.60492 -0.32488,1.18373 -0.45773,1.78143c-0.14407,0.64823 -0.16329,1.32961 -0.37495,1.95902c-0.70445,2.09492 -1.10444,2.0491 -2.50241,3.75464c-0.5065,0.61794 -0.9449,1.29488 -1.4672,1.89952c-0.42473,0.49166 -0.96403,0.88242 -1.37242,1.38771c-0.48006,0.594 -0.8562,1.2685 -1.28549,1.90018c-0.37827,0.55661 -0.83605,1.06866 -1.14122,1.66846c-0.25607,0.50327 -0.2614,1.11373 -0.52922,1.61085c-0.74235,1.37794 -1.90404,2.50059 -3.105,3.53781c-0.36071,0.01885 -0.72254,0.04176 -1.08297,0.05036c-1.46788,0.03499 -2.94629,-0.02334 -4.40804,0.11512c-1.2732,0.1206 -2.527,0.44458 -3.80088,0.55782c-0.84246,0.07489 -1.69772,0.04067 -2.53606,0.15268c-0.85624,0.11442 -1.69537,0.35075 -2.54114,0.52657c-1.3385,0.27822 -2.69415,0.50685 -4.0204,0.83865c-1.45427,0.36383 -2.88231,0.8504 -4.34007,1.1999c-0.97559,0.23388 -1.97198,0.39278 -2.9526,0.60396c-0.6146,-0.26019 -1.24128,-0.50153 -1.8264,-0.8212c-0.56009,-0.30598 -1.0274,-0.76699 -1.58355,-1.08007c-0.28329,-0.15947 -3.6478,-1.69517 -4.00174,-1.87925c-0.72514,-0.37714 -1.4248,-0.808 -2.13622,-1.21041c-0.69781,-0.39471 -1.43195,-0.73663 -2.09754,-1.18355c-0.66559,-0.44691 -1.26086,-0.99577 -1.88986,-1.49286c-0.48019,-0.37697 -0.99558,-0.71664 -1.44275,-1.13226c-0.05708,-0.05305 -2.35151,-2.48538 -2.71919,-2.86404c-1.63576,-1.68465 -3.55338,-3.30124 -4.90016,-5.24244c-0.68099,-0.98153 -1.73991,-3.21574 -2.25851,-4.26088c-0.56479,-1.13822 -1.1167,-2.28916 -1.69728,-3.41942c-0.37221,-0.72461 -0.79727,-1.42704 -1.134,-2.1688c-0.33497,-0.73789 -0.58695,-1.51446 -0.8803,-2.26986c-0.50614,-1.30339 -1.09,-2.58201 -1.59518,-3.88578c-0.27219,-0.70247 -0.60725,-1.39718 -0.73974,-2.13881c-0.26097,-1.46079 0.05446,-2.5283 0.08571,-3.94683c0.0141,-0.64024 -0.08757,-1.28394 -0.04998,-1.92325c0.05012,-0.85256 0.31372,-1.69249 0.31291,-2.54652c-0.00081,-0.87349 -0.23326,-1.73511 -0.31673,-2.60459c-0.0786,-0.81861 -0.11171,-1.644 -0.16794,-2.46445c-0.2954,-4.07733 -1.13873,-9.79364 0.94259,-13.52041c1.07607,-1.92677 3.28597,-2.45862 4.37137,-4.31969c0.58994,-1.01155 0.9755,-1.86381 1.4293,-2.69301c0.12329,-0.06574 0.24694,-0.1318 0.37028,-0.19744z" fill="#ffffff" stroke="#000000" stroke-width="3" stroke-linecap="butt"/><path d="M401.21305,-42.90963c-0.55257,-1.996 0.61756,-4.06201 2.61355,-4.61458c1.996,-0.55257 4.06201,0.61756 4.61458,2.61355c0.55257,1.996 -0.61756,4.06201 -2.61355,4.61458c-1.996,0.55257 -4.06201,-0.61756 -4.61458,-2.61355z" fill="#000000" stroke="none" stroke-width="0.5" stroke-linecap="butt"/><path d="M232.34131,-70.89038c-0.2668,-0.96375 0.69694,-1.23055 0.69694,-1.23055l0.56318,-0.09704c2.38017,0.16496 4.75252,0.53356 7.13431,0.74606c1.92284,0.30434 3.86774,0.5517 5.77979,0.91663c3.27861,0.62575 6.53223,1.45943 9.78987,2.1875c3.07466,0.68719 6.1444,1.39606 9.21545,2.09914c1.95753,0.44815 3.94488,0.83601 5.88644,1.34841c1.12751,0.29756 2.22627,0.69493 3.33929,1.04276c1.90895,0.59656 3.81791,1.19313 5.72686,1.78969c1.90895,0.59656 3.81824,1.1921 5.72686,1.78969c0.61545,0.1927 1.21937,0.4268 1.84604,0.57914c1.25818,0.30584 2.55168,0.4419 3.82733,0.66389c3.25516,0.56648 6.50366,1.11138 9.77544,1.57294c2.5438,0.35887 5.04745,0.8873 7.56659,1.38936c1.17528,0.23424 3.03635,0.5386 4.12515,1.04297c0.50908,0.23582 0.91485,0.64974 1.37229,0.97461c0,0 0.8104,0.58589 0.2245,1.39628c-0.58589,0.8104 -1.39628,0.2245 -1.39628,0.2245c-0.36116,-0.26695 -0.67595,-0.61212 -1.08347,-0.80084c-0.80031,-0.37064 -2.81828,-0.71414 -3.63256,-0.87598c-2.48248,-0.49338 -4.94884,-1.01737 -7.45539,-1.37047c-3.29312,-0.46391 -6.56284,-1.01281 -9.83915,-1.58297c-0.05171,-0.009 -3.91345,-0.68033 -3.95517,-0.69047c-0.66894,-0.16256 -1.31469,-0.40899 -1.97188,-0.614c-1.90926,-0.59556 -3.81791,-1.19313 -5.72686,-1.78969c-1.90895,-0.59656 -3.81791,-1.19313 -5.72686,-1.78969c-1.08827,-0.34009 -2.16206,-0.73036 -3.26457,-1.021c-1.27675,-0.33658 -2.57429,-0.58858 -3.86136,-0.88324c-2.59941,-0.5951 -5.19884,-1.19022 -7.79823,-1.78531c-3.06766,-0.70231 -6.14096,-1.38015 -9.21222,-2.06655c-1.29105,-0.28855 -2.5736,-0.6181 -3.87306,-0.86612c-1.86929,-0.35678 -3.77054,-0.5975 -5.65022,-0.89627c-2.34508,-0.20784 -4.6824,-0.5772 -7.0256,-0.73562l0.10708,0.02922c0,0 -0.96375,0.2668 -1.23055,-0.69694z" fill="#000000" stroke="none" stroke-width="0.5" stroke-linecap="butt"/><path d="M390.77971,-175.34298c0.64702,0.76247 -0.11545,1.4095 -0.11545,1.4095l-0.64217,0.54493c-4.06301,3.44782 -8.11513,6.9019 -12.116,10.42175c-0.48217,0.42292 -0.99037,0.81788 -1.44651,1.26875c-0.75638,0.74764 -1.36365,1.6324 -2.04658,2.44769c-1.28428,1.53317 -2.56856,3.06634 -3.85285,4.59952c-1.71237,2.04423 -3.42476,4.08845 -5.13714,6.13268c-0.84371,1.00723 -1.74793,1.96658 -2.53244,3.02058c-0.37487,0.50365 -0.68764,1.05068 -1.03183,1.57577l-2.19428,3.34442c-2.18922,3.33672 -4.37812,6.67366 -6.56799,10.00995c-0.99465,1.71644 -1.98965,3.43268 -2.98463,5.14891c-0.65534,1.13039 -1.40615,2.21029 -1.96881,3.38957c-0.56266,1.17928 -0.92971,2.44228 -1.39606,3.66284c-0.71495,1.87119 -1.40997,3.75189 -2.14548,5.61509c-1.21707,3.08308 -2.62391,6.10757 -3.75958,9.22118c-0.34938,0.9579 -0.56457,1.95955 -0.84753,2.93913c-0.74003,2.56193 -1.48006,5.12385 -2.22011,7.68578c-3.31601,11.47974 -6.61432,22.96477 -9.96511,34.43441c0,0 -0.28042,0.95988 -1.2403,0.67946c-0.95988,-0.28042 -0.67946,-1.2403 -0.67946,-1.2403c3.35022,-11.46771 6.64796,-22.95079 9.96341,-34.4286c0.74003,-2.56193 1.48006,-5.12385 2.22011,-7.68578c0.29275,-1.01344 0.51912,-2.04856 0.87957,-3.03995c1.14198,-3.14095 2.56142,-6.19082 3.78869,-9.29971c0.73282,-1.85637 1.42518,-3.73021 2.1375,-5.59454c0.03683,-0.09639 1.43645,-3.76242 1.45926,-3.81026c0.02282,-0.04782 1.99187,-3.44217 2.04363,-3.53144c1.00422,-1.73218 2.00844,-3.46435 3.013,-5.19632c2.1987,-3.35254 4.39834,-6.70444 6.59767,-10.05658c0.73143,-1.11481 1.46238,-2.22993 2.19428,-3.34442c0.36597,-0.55728 0.70058,-1.13653 1.09861,-1.67137c0.02339,-0.03144 2.5557,-3.05361 2.6047,-3.11212c1.71237,-2.04423 3.42476,-4.08845 5.13714,-6.13268c1.28428,-1.53317 2.56856,-3.06634 3.85285,-4.59952c0.71543,-0.85408 1.35738,-1.77589 2.14851,-2.56038c0.49135,-0.48723 1.03779,-0.91559 1.55669,-1.37337c4.00979,-3.5277 8.07093,-6.98957 12.14301,-10.44508l0.64217,-0.54493c0,0 0.76247,-0.64702 1.4095,0.11545z" fill="#000000" stroke="none" stroke-width="0.5" stroke-linecap="butt"/><path d="M276.77884,-35.94885c0.66088,-0.35179 1.34276,-0.67174 1.98424,-1.05774c0.61078,-0.36752 1.12882,-0.89387 1.77115,-1.20295c0.69962,-0.33665 1.48043,-0.47704 2.21851,-0.71793c0.7654,-0.24982 1.52057,-0.54271 2.29659,-0.75733c1.58726,-0.43898 3.21821,-0.72817 4.82446,-1.09156c0.01066,-0.00241 4.83892,-1.09545 4.86267,-1.1013c0.52056,-0.12839 1.02655,-0.32336 1.55166,-0.43168c0.60587,-0.12497 1.22914,-0.1634 1.83886,-0.26787c0.7914,-0.13561 1.56958,-0.37819 2.36898,-0.4533c0.79087,-0.07431 1.5918,0.0049 2.38616,0.00625c1.46891,0.0025 2.94364,-0.00534 4.41252,-0.01544c2.33734,0.50931 4.71612,1.0729 6.98228,1.85028c0.76858,0.26366 1.51155,0.60558 2.26598,0.90735c2.0244,0.80975 2.52697,0.93925 4.4388,1.97517c0.71885,0.38951 1.41036,0.8341 2.11415,1.2502c0.71735,0.42411 1.43713,0.85082 2.15519,1.2737c0.36453,0.21469 0.76267,0.38248 1.09702,0.6417c0.62692,0.48604 1.1854,1.05933 1.77779,1.58691c1.17917,1.05018 2.34021,2.13099 3.47529,3.22869c0.50296,0.48641 1.03811,0.94541 1.51165,1.46054c0.54862,0.5968 1.0354,1.25199 1.55422,1.87491c0.50114,0.60171 1.08352,1.14714 1.50951,1.80419c0.80049,1.23476 1.30244,2.89982 1.68201,4.29538c0.42881,1.57657 0.82327,3.17169 1.12892,4.77671c0.23919,1.256 0.36894,2.53587 0.55575,3.8007c0.04168,4.94817 -0.26425,9.92459 -0.45048,14.8692c-0.06205,1.64753 -0.16255,3.30058 -0.29275,4.94412c-0.05993,0.75644 -0.06108,1.52262 -0.17847,2.27228c-0.09472,0.60492 -0.32488,1.18373 -0.45773,1.78143c-0.14407,0.64823 -0.16329,1.32961 -0.37495,1.95902c-0.70445,2.09492 -1.10444,2.0491 -2.50241,3.75464c-0.5065,0.61794 -0.9449,1.29488 -1.4672,1.89952c-0.42473,0.49166 -0.96403,0.88242 -1.37242,1.38771c-0.48006,0.594 -0.8562,1.2685 -1.28549,1.90018c-0.37827,0.55661 -0.83605,1.06866 -1.14122,1.66846c-0.25607,0.50327 -0.2614,1.11373 -0.52922,1.61085c-0.74235,1.37794 -1.90404,2.50059 -3.105,3.53781c-0.36071,0.01885 -0.72254,0.04176 -1.08297,0.05036c-1.46788,0.03499 -2.94629,-0.02334 -4.40804,0.11512c-1.2732,0.1206 -2.527,0.44458 -3.80088,0.55782c-0.84246,0.07489 -1.69772,0.04067 -2.53606,0.15268c-0.85624,0.11442 -1.69537,0.35075 -2.54114,0.52657c-1.3385,0.27822 -2.69415,0.50685 -4.0204,0.83865c-1.45427,0.36383 -2.88231,0.8504 -4.34007,1.1999c-0.97559,0.23388 -1.97198,0.39278 -2.9526,0.60396c-0.6146,-0.26019 -1.24128,-0.50153 -1.8264,-0.8212c-0.56009,-0.30598 -1.0274,-0.76699 -1.58355,-1.08007c-0.28329,-0.15947 -3.6478,-1.69517 -4.00174,-1.87925c-0.72514,-0.37714 -1.4248,-0.808 -2.13622,-1.21041c-0.69781,-0.39471 -1.43195,-0.73663 -2.09754,-1.18355c-0.66559,-0.44691 -1.26086,-0.99577 -1.88986,-1.49286c-0.48019,-0.37697 -0.99558,-0.71664 -1.44275,-1.13226c-0.05708,-0.05305 -2.35151,-2.48538 -2.71919,-2.86404c-1.63576,-1.68465 -3.55338,-3.30124 -4.90016,-5.24244c-0.68099,-0.98153 -1.73991,-3.21574 -2.25851,-4.26088c-0.56479,-1.13822 -1.1167,-2.28916 -1.69728,-3.41942c-0.37221,-0.72461 -0.79727,-1.42704 -1.134,-2.1688c-0.33497,-0.73789 -0.58695,-1.51446 -0.8803,-2.26986c-0.50614,-1.30339 -1.09,-2.58201 -1.59518,-3.88578c-0.27219,-0.70247 -0.60725,-1.39718 -0.73974,-2.13881c-0.26097,-1.46079 0.05446,-2.5283 0.08571,-3.94683c0.0141,-0.64024 -0.08757,-1.28394 -0.04998,-1.92325c0.05012,-0.85256 0.31372,-1.69249 0.31291,-2.54652c-0.00081,-0.87349 -0.23326,-1.73511 -0.31673,-2.60459c-0.0786,-0.81861 -0.11171,-1.644 -0.16794,-2.46445c-0.2954,-4.07733 -1.13873,-9.79364 0.94259,-13.52041c1.07607,-1.92677 3.28597,-2.45862 4.37137,-4.31969c0.58994,-1.01155 0.9755,-1.86381 1.4293,-2.69301c0.12329,-0.06574 0.24694,-0.1318 0.37028,-0.19744z" fill="#ffffff" stroke="#000000" stroke-width="3" stroke-linecap="butt"/><path d="M329.39288,-14.10179c-0.55257,-1.996 0.61756,-4.06201 2.61355,-4.61458c1.996,-0.55257 4.06201,0.61756 4.61458,2.61355c0.55257,1.996 -0.61756,4.06201 -2.61355,4.61458c-1.996,0.55257 -4.06201,-0.61756 -4.61458,-2.61355z" fill="#000000" stroke="none" stroke-width="0.5" stroke-linecap="butt"/><path d="M329.10319,88.97411c-1.44563,0.40021 -1.84583,-1.04542 -1.84583,-1.04542l-0.275,-0.99336c-3.15446,-11.39461 -6.24018,-22.74917 -8.84165,-34.28417c-0.05951,-0.50094 -0.65288,-5.47182 -0.65676,-5.61692c-0.02225,-0.83371 0.1393,-1.6622 0.21152,-2.49308c0.23117,-2.65963 0.21842,-3.54062 0.85334,-6.1601c0.24182,-0.99766 0.58818,-1.96706 0.88406,-2.95004c0.30048,-0.99823 0.52915,-2.02126 0.90502,-2.99359c0.31123,-0.80514 0.76522,-1.54752 1.14925,-2.32059c0.45084,-0.90755 0.87758,-1.82755 1.35534,-2.7212c0.50496,-0.94449 0.97751,-1.91364 1.59164,-2.79105c0.43281,-0.61835 1.01778,-1.11483 1.53014,-1.66906c0.71498,-0.77343 1.3688,-1.60943 2.1518,-2.3139c0.59059,-0.53136 1.29713,-0.91757 1.94732,-1.37409c0.83801,-0.5884 1.65145,-1.21395 2.51722,-1.76066c0.85124,-0.53755 1.76472,-0.97058 2.62806,-1.48848c2.2207,-1.33213 4.27252,-2.94578 6.48849,-4.2861c0.86325,-0.52214 1.77395,-0.96179 2.65014,-1.46188c1.3099,-0.74765 2.57435,-1.57226 3.86172,-2.35807c0.08342,-0.04339 5.37317,-2.79579 5.442,-2.82699c0.04637,-0.02101 5.68539,-2.21882 5.73655,-2.23583c0.03795,-0.01262 5.1041,-1.41539 5.43695,-1.50715c1.00733,-0.27772 1.996,-0.6365 3.02275,-0.83051c0.88579,-0.16737 1.79513,-0.16765 2.69287,-0.24953c2.23005,-0.20334 3.99454,-0.45086 6.24752,-0.26556c0.10898,0.00897 5.82238,0.96438 6.01797,0.99472c1.55856,0.24165 3.13039,0.39218 4.68856,0.63645c2.45897,0.38548 4.90472,0.96216 7.33741,1.4833c1.03294,0.22128 2.09241,0.34424 3.09786,0.66827c0.83253,0.26829 1.58965,0.73032 2.38328,1.09809c0.92577,0.42899 1.86817,0.82428 2.77492,1.29217c0.91698,0.47317 1.79452,1.01918 2.69178,1.52877c0.10534,0.06645 5.09676,3.21408 5.17366,3.26694c0.45636,0.3137 0.86591,0.69056 1.29825,1.03661c0.79729,0.63821 1.61446,1.25242 2.39061,1.91618c0.47419,0.40551 0.90507,0.85909 1.3573,1.28898c1.29052,1.22667 2.57251,2.46258 3.83634,3.71674c0.04066,0.04035 4.26712,4.23435 4.28796,4.25612c2.55188,2.66463 4.95273,5.50926 7.28979,8.3627c0.97381,1.18898 1.88687,2.42646 2.82949,3.64034c1.08476,1.39692 3.03644,3.70995 3.64462,5.37849c0.302,0.82855 0.18491,1.75405 0.27737,2.63108c0,0 0.13515,1.49389 -1.35875,1.62905c-1.49389,0.13515 -1.62905,-1.35875 -1.62905,-1.35875c-0.04598,-0.65322 0.08678,-1.34459 -0.13794,-1.95968c-0.39257,-1.07451 -2.54454,-3.68155 -3.16501,-4.47927c-0.93155,-1.19767 -1.83139,-2.42061 -2.79297,-3.59429c-2.28604,-2.79028 -4.63311,-5.5739 -7.129,-8.1797c-1.37384,-1.43433 -2.81996,-2.79762 -4.2297,-4.19667c-1.24869,-1.23922 -2.51611,-2.45958 -3.79056,-3.67228c-0.42121,-0.40079 -0.82091,-0.82539 -1.263,-1.20303c-0.74419,-0.63571 -1.52892,-1.22235 -2.29275,-1.83432c-0.38837,-0.31116 -0.75337,-0.65367 -1.16383,-0.93504c-1.61696,-1.10842 -3.31705,-2.09044 -4.97482,-3.13683c-0.84156,-0.47858 -1.66408,-0.99231 -2.5247,-1.43575c-0.87086,-0.44872 -1.7777,-0.82385 -2.6653,-1.23846c-0.69036,-0.32248 -1.34299,-0.7401 -2.06855,-0.97278c-0.89857,-0.28817 -1.84767,-0.3846 -2.77102,-0.57924c-2.39084,-0.50398 -4.7889,-1.08034 -7.20404,-1.45809c-1.54392,-0.24149 -3.10135,-0.39033 -4.64561,-0.62966c-0.99557,-0.15429 -1.98782,-0.32918 -2.98152,-0.49506c-0.94626,-0.15796 -1.88241,-0.39553 -2.83833,-0.47648c-1.98864,-0.16838 -3.7521,0.08681 -5.72811,0.26377c-0.80841,0.07239 -1.62812,0.06194 -2.42554,0.21317c-0.93834,0.17797 -1.83958,0.51445 -2.75976,0.7703c-1.76304,0.49019 -3.55473,0.88573 -5.29127,1.46283c-0.9249,0.30735 -1.8155,0.70964 -2.72361,1.06349c-0.90668,0.3533 -1.83446,0.65635 -2.7208,1.05798c-1.78149,0.80725 -3.47001,1.80562 -5.20572,2.70706c-1.27646,0.78017 -2.53062,1.59811 -3.82982,2.33981c-0.86075,0.49137 -1.75609,0.92207 -2.60434,1.43474c-2.21159,1.33669 -4.25857,2.947 -6.4741,4.27733c-0.85151,0.5113 -1.75345,0.93714 -2.59355,1.46701c-0.82555,0.5207 -1.59726,1.12226 -2.3975,1.68104c-0.56403,0.39383 -1.18483,0.71568 -1.69533,1.17678c-0.70256,0.6346 -1.27921,1.39603 -1.92227,2.09087c-0.43436,0.46932 -0.94386,0.87727 -1.30997,1.40158c-0.53186,0.76171 -0.93127,1.60834 -1.36526,2.42975c-0.46093,0.87236 -0.87816,1.76714 -1.31869,2.64998c-0.34749,0.69638 -0.76536,1.36153 -1.04539,2.08764c-0.34455,0.8934 -0.54635,1.83549 -0.82132,2.75268c-0.27955,0.93245 -0.61116,1.85062 -0.84228,2.79624c-0.59299,2.42635 -0.55739,3.22071 -0.77982,5.71378c-0.06502,0.72869 -0.22087,1.45431 -0.2003,2.1856c0.02668,0.94841 0.22909,1.8837 0.3413,2.82584c0.0924,0.77586 0.1817,1.55207 0.27255,2.32811c2.59514,11.43334 5.64839,22.69304 8.77614,33.99118l0.275,0.99336c0,0 0.40021,1.44563 -1.04542,1.84583z" fill="#000000" stroke="none" stroke-width="0.5" stroke-linecap="butt"/></g></g></g></svg>