<svg version="1.1" xmlns="http://www.w3.org/2000/svg" xmlns:xlink="http://www.w3.org/1999/xlink" width="2878.25006" height="1619.57958" viewBox="0,0,2878.25006,1619.57958"><g transform="translate(1119.12503,629.78979)"><g stroke-miterlimit="10"><path d="M-1119.12503,989.78979v-1619.57958h2878.25006v1619.57958z" fill="none" stroke="#000000" stroke-width="0" stroke-linecap="butt"/><g stroke-width="0"><path d="M168.09143,342.29406l28.83129,-52.41438l80.55789,-0.46797l-16.95954,52.8824z" fill="#cedce9" stroke="#000000" stroke-linecap="round"/><path d="M160.42885,339.54582c-2.78231,-0.73973 -9.40378,-1.89287 -6.50196,-3.08497c-1.58651,0.382 -3.70309,0.84839 -4.82934,0.97385c-5.33531,0.59438 -12.24973,0 -17.75522,0c-15.10386,0 -29.76748,-0.31549 -44.38795,1.18012c-6.60742,0.67592 -8.42377,-1.41139 -10.4527,1.50916c-4.1851,4.90029 -12.05916,9.27311 -17.1173,14.20628c-6.85547,6.68595 -9.51394,13.14062 -13.71662,19.8447c-4.75574,5.52096 -0.88186,16.12106 -0.88186,22.26605c0,1.64493 1.33408,4.5729 0.05991,5.78369c1.26664,0.06115 2.49005,0.11698 3.2692,0.11698c5.1786,0 10.35715,0 15.53583,0c20.59973,0 44.53385,-0.23953 64.52816,-2.89742c23.73975,-2.83542 49.46906,1.23059 73.39979,-1.31435c13.10501,-1.27641 27.39032,-0.51768 40.73346,-0.50868c6.76902,0.00455 12.56555,-1.36253 15.53578,1.18013c0.7807,0.66834 0,-1.57351 0,-2.36021c0,-1.96684 0,-3.93376 0,-5.90064c0,-11.01452 0,-22.029 0,-33.04355c0,-2.60391 -1.28359,-11.91972 1.37196,-12.92779c-0.49817,-0.01583 -1.06199,-0.04155 -1.37196,-0.05358c-2.74629,-0.10655 -4.28068,-0.02607 -6.42391,-0.83921c-3.72081,-1.41167 -16.27375,-0.34091 -21.31857,-0.34091c-19.60468,0 -39.20932,0 -58.81401,0c0,0 -4.43878,0 -4.43878,-2.36021c0,-0.09688 0.00743,-0.18976 0.02181,-0.27882c-2.12195,-0.23913 -4.26541,-0.57084 -6.44565,-1.1505zM230.10548,338.61495c11.83443,0 26.95975,-1.12053 35.04162,3.66498c4.6313,2.74225 1.57836,11.53455 1.57836,15.2171c0,11.01452 0,22.029 0,33.04352c0,1.25777 1.52888,7.49701 0,8.26089c-15.44241,7.71537 -44.54879,1.69892 -63.40575,3.95743c-23.40036,2.48854 -50.34872,-2.25357 -72.98769,1.26509c-20.60729,2.73938 -45.43368,3.03842 -66.68128,3.03842c-3.04774,0 -21.32528,1.22733 -23.30364,0c-5.67346,-3.51959 -4.43879,-6.45553 -4.43879,-10.62116c0,-7.53469 -2.51188,-16.516 1.33754,-23.75882c4.30747,-6.87117 7.32822,-13.76273 14.19836,-20.46301c2.77135,-2.70279 5.7648,-6.31811 9.34617,-8.75924c2.34347,-1.59737 6.82405,-2.89519 7.38392,-4.97164c3.79744,-5.46628 10.66001,-3.67524 18.78029,-4.59396c14.45503,-1.63543 29.4133,-1.18013 44.38795,-1.18013c5.52256,0 16.31299,-1.35148 20.20885,-0.93093c6.78186,0.73205 10.71359,3.80733 17.28661,4.72049c4.82322,0.67005 9.906,0.27341 15.53582,1.7702c0.42742,0.11367 0.85473,0.22724 1.28219,0.34091c14.81659,0 29.63318,0 44.44978,0z" fill="#000000" stroke="none" stroke-linecap="butt"/><path d="M166.93624,340.58304c-0.01439,0.08908 -0.02131,0.182 -0.02131,0.27888c0,2.36021 4.46057,2.36427 4.46057,2.36427c19.60467,0 39.31381,0.04694 58.91856,0.04694c5.04482,0 17.60916,-1.05983 21.32995,0.35187c2.14319,0.81312 3.68107,0.73661 6.42726,0.84316c0.31001,0.01202 0.87424,0.0384 1.37247,0.05424c-2.65561,1.00806 -1.35847,10.3465 -1.35847,12.95042c0,11.01452 -0.00922,22.09452 -0.00922,33.10909c0,1.96684 -0.00761,3.94331 -0.00761,5.91017c0,0.78674 0.77733,3.03207 -0.00337,2.36376c-2.97023,-2.54266 -8.77204,-1.1705 -15.54101,-1.17505c-13.34318,-0.00898 -27.66882,-0.74078 -40.77387,0.53562c-23.93073,2.54494 -49.89523,-1.49822 -73.63498,1.33724c-19.99429,2.65792 -44.02562,2.85636 -64.62544,2.85636c-5.1786,0 -10.36627,-0.00742 -15.54487,-0.00742c-0.77923,0 -2.0043,-0.0573 -3.27087,-0.11845c1.2742,-1.21077 -0.06818,-4.14712 -0.06818,-5.79202c0,-6.14504 -3.89473,-16.78599 0.86108,-22.30698c4.20264,-6.70404 6.87028,-13.20355 13.7257,-19.88945c5.05821,-4.93316 12.96554,-9.34116 17.15065,-14.24143c2.02894,-2.92055 3.85909,-0.84221 10.46648,-1.5181c14.6204,-1.49564 29.37923,-1.21321 44.48304,-1.21321c5.50534,0 12.48168,0.58847 17.81703,-0.00593c1.12613,-0.12549 3.26038,-0.59183 4.84687,-0.97382c-2.90186,1.19207 3.7459,2.34661 6.52821,3.08634c2.18036,0.57966 4.34964,0.91447 6.47158,1.15362z" fill="#484848" stroke="none" stroke-linecap="butt"/><path d="M104.70964,349.23608c0,0.79765 1.53023,1.76442 0.76752,2.39605c1.95083,0.1068 3.9131,0.33996 5.65633,0.80343c6.72107,1.78692 20.3936,8.2983 21.68278,12.60308c0.10483,0.35016 -1.79577,0.40869 -1.47387,0.71916c1.07098,1.03321 9.79901,-0.76239 10.80294,-0.46898c0.22722,0.06642 0.33882,0.16987 0.38353,0.29573c-0.04672,-0.39104 -0.08956,-0.76908 -0.08956,-1.00695c0,-0.83605 0.06214,-1.73701 -0.64101,-2.48483c-5.97697,-6.59109 -15.74243,-12.85685 -32.64987,-12.85685c0,0 -1.9952,-0.00004 -3.31037,-0.71129c-0.43859,-0.13252 -0.7796,-0.28824 -1.00823,-0.47099c-0.05878,0.45027 -0.12022,0.90862 -0.12022,1.18232zM142.43943,366.93791c0.30296,0.48324 0.21358,-0.31885 0.11291,-1.15798c-0.02107,0.36417 -0.31999,0.82773 -0.11291,1.15798zM149.73864,359.98179c5.51937,5.86966 -7.01286,14.44567 -18.39623,10.49653c-10.7403,-3.72609 -14.37725,-11.21464 -24.17904,-13.82058c-3.3114,-0.88041 -7.27922,-1.36098 -9.75295,-2.82572c-3.92006,-2.32117 -2.18236,-10.24738 5.31413,-10.24738c5.39796,0 8.05669,0.93092 13.08207,0.93092h2.21937c0,0 2.54771,0 3.78284,1.02634c13.14851,2.28219 21.58583,8.08058 27.92977,14.43985z" fill="#000000" stroke="none" stroke-linecap="butt"/><path d="M104.66514,347.97464c0.2285,0.18271 0.56976,0.33846 1.00834,0.471c1.31513,0.71127 3.31938,0.70625 3.31938,0.70625c16.90739,0 27.02535,6.40429 33.0023,12.99541c0.70318,0.74779 0.62167,1.66522 0.62167,2.50125c0,0.23787 0.03459,0.6213 0.08133,1.01236c-0.04463,-0.12594 -0.15517,-0.22998 -0.38248,-0.29642c-1.004,-0.29341 -9.80759,1.53319 -10.87857,0.50002c-0.32188,-0.31052 1.36791,-0.57628 1.26297,-0.92647c-1.28917,-4.30477 -15.02765,-10.7831 -21.74882,-12.57009c-1.74326,-0.4635 -3.71684,-0.68708 -5.66766,-0.79385c0.76269,-0.63166 -0.74934,-1.61295 -0.74934,-2.4106c0,-0.27369 0.07173,-0.73859 0.13061,-1.18881z" fill="#ffffff" stroke="none" stroke-linecap="butt"/></g><g stroke-width="0"><path d="M292.69531,314.58372l-18.23399,-53.12161l86.6115,0.4701l30.99784,52.65148z" fill="#cedce9" stroke="#000000" stroke-linecap="round"/><path d="M400.30902,311.82314c-2.34409,0.58229 -4.64862,0.9155 -6.93002,1.15571c0.01545,0.08948 0.02345,0.18278 0.02345,0.2801c0,2.37088 -4.77235,2.37088 -4.77235,2.37088c-21.0779,0 -42.15578,0 -63.23365,0c-5.42392,0 -18.92018,-1.07561 -22.92058,0.34245c-2.30429,0.81682 -3.95398,0.73599 -6.90665,0.84301c-0.33326,0.01209 -0.93946,0.03793 -1.47505,0.05382c2.85512,1.01263 1.47505,10.37059 1.47505,12.98627c0,11.06437 0,22.1287 0,33.19302c0,1.97578 0,3.95159 0,5.92732c0,0.79026 -0.83936,3.04225 0,2.3709c3.19342,-2.55416 9.42554,-1.18092 16.70324,-1.18549c14.34584,-0.00904 29.70463,-0.77121 43.79444,0.51098c25.72904,2.55645 53.3918,-1.52796 78.91549,1.32029c21.4968,2.66989 47.22949,2.91051 69.37721,2.91051c5.56784,0 11.13552,0 16.70329,0c0.8377,0 2.15306,-0.05607 3.51488,-0.1175c-1.36992,-1.21625 0.06441,-4.15749 0.06441,-5.80984c0,-6.1728 4.16498,-16.82085 -0.94813,-22.36678c-4.51849,-6.7344 -7.37674,-13.21827 -14.74737,-19.93447c-5.43824,-4.95547 -13.904,-9.34807 -18.4036,-14.27054c-2.18139,-2.93378 -4.13424,-0.83702 -11.23817,-1.51599c-15.71915,-1.50238 -31.48467,-1.18545 -47.72353,-1.18545c-5.91921,0 -13.35322,0.59706 -19.08946,0c-1.21087,-0.12603 -3.4865,-0.59454 -5.19225,-0.97827c3.1199,1.19751 -3.99917,2.35585 -6.99055,3.09893zM325.3962,310.88804c15.93002,0 31.86002,0 47.79002,0c0.45956,-0.11418 0.91901,-0.22827 1.37854,-0.34244c6.05288,-1.50356 11.51762,-1.10513 16.70328,-1.77819c7.06696,-0.9173 11.29413,-4.00649 18.58562,-4.74185c4.18862,-0.42244 15.78991,0.93515 21.72746,0.93515c16.09994,0 32.18225,-0.45735 47.72353,1.18548c8.7305,0.92289 16.10876,-0.87625 20.19156,4.61476c0.60194,2.08585 5.4192,3.38953 7.93879,4.99414c3.85051,2.45218 7.06889,6.08383 10.0485,8.79886c7.38642,6.73057 10.63418,13.6533 15.26531,20.55556c4.13869,7.27558 1.43806,16.29752 1.43806,23.8663c0,4.18448 1.32745,7.1337 -4.77235,10.6692c-2.12703,1.23287 -21.77806,0 -25.05482,0c-22.84429,0 -49.53628,-0.3004 -71.69214,-3.05217c-24.34021,-3.53457 -53.31363,1.22899 -78.47244,-1.2708c-20.27402,-2.26871 -51.56763,3.77494 -68.17045,-3.97533c-1.64376,-0.76734 0,-7.0348 0,-8.29826c0,-11.06435 0,-22.12867 0,-33.19301c0,-3.69921 -3.28235,-12.53127 1.69697,-15.28593c8.68919,-4.80715 24.95113,-3.68155 37.67487,-3.68155z" fill="#000000" stroke="none" stroke-linecap="butt"/><path d="M393.31244,312.86504c2.28138,-0.24023 4.61368,-0.57655 6.95789,-1.15884c2.99138,-0.74307 10.13871,-1.90284 7.01878,-3.10029c1.70571,0.38373 4.00033,0.85218 5.21109,0.97824c5.73627,0.59708 13.23687,0.00594 19.15591,0.00594c16.23879,0 32.1067,-0.2837 47.82576,1.21869c7.10391,0.67897 9.07159,-1.40879 11.25299,1.52497c4.49961,4.92245 13.00114,9.35037 18.43945,14.30586c7.37059,6.71614 10.23868,13.24505 14.75714,19.97942c5.11318,5.54596 0.92579,16.23504 0.92579,22.40788c0,1.65235 -1.44325,4.60198 -0.0733,5.81822c-1.36175,0.06142 -2.67888,0.11899 -3.51667,0.11899c-5.56774,0 -11.14524,0.00745 -16.71301,0.00745c-22.14782,0 -47.98501,-0.19933 -69.48179,-2.86927c-25.52371,-2.8483 -53.43934,1.21315 -79.16837,-1.3433c-14.08984,-1.28217 -29.49201,-0.54706 -43.83787,-0.53805c-7.27762,0.00457 -13.51542,-1.3738 -16.70885,1.18036c-0.83936,0.67134 -0.00362,-1.58415 -0.00362,-2.37445c0,-1.97575 -0.00818,-3.96117 -0.00818,-5.93691c0,-11.06437 -0.00992,-22.19453 -0.00992,-33.25885c0,-2.61568 1.39461,-11.99637 -1.46056,-13.009c0.53567,-0.01591 1.14229,-0.04243 1.47561,-0.05448c2.95256,-0.10702 4.60601,-0.03017 6.91025,-0.84698c4.00039,-1.41807 17.50889,-0.35346 22.93281,-0.35346c21.07796,0 42.26818,-0.04715 63.34606,-0.04715c0,0 4.79577,-0.00408 4.79577,-2.37496c0,-0.09731 -0.00744,-0.19066 -0.02291,-0.28014z" fill="#484848" stroke="none" stroke-linecap="butt"/><path d="M460.2154,321.55697c0,-0.27494 -0.06607,-0.73535 -0.12926,-1.18766c-0.24581,0.18358 -0.61244,0.33999 -1.08399,0.4731c-1.414,0.71447 -3.55913,0.71451 -3.55913,0.71451c-18.17797,0 -28.67728,6.2941 -35.10339,12.91501c-0.75599,0.75122 -0.68917,1.65623 -0.68917,2.49606c0,0.23895 -0.04606,0.6187 -0.09629,1.01151c0.04807,-0.12642 0.16806,-0.23032 0.41235,-0.29706c1.07939,-0.29474 10.4633,1.50896 11.61475,0.47109c0.34607,-0.31188 -1.69734,-0.37066 -1.58463,-0.7224c1.38606,-4.32425 16.08601,-10.86511 23.31215,-12.66011c1.87423,-0.46555 3.98397,-0.69977 6.08139,-0.80706c-0.82004,-0.63448 0.82521,-1.60564 0.82521,-2.40688zM419.52894,338.17579c-0.10823,0.84293 -0.20433,1.64865 0.1214,1.16322c0.22264,-0.33175 -0.09874,-0.79741 -0.1214,-1.16322zM411.80264,332.35138c6.82067,-6.38803 15.89201,-12.21266 30.02858,-14.50516c1.32796,-1.03098 4.06712,-1.03098 4.06712,-1.03098h2.38616c5.40301,0 8.26154,-0.93513 14.06513,-0.93513c8.05982,0 9.92809,7.96206 5.71346,10.29371c-2.6596,1.47136 -6.92562,1.95411 -10.48585,2.8385c-10.53835,2.61773 -14.44859,10.14016 -25.99598,13.8831c-12.23879,3.96702 -25.71277,-4.64781 -19.77864,-10.54401z" fill="#000000" stroke="none" stroke-linecap="butt"/><path d="M460.26348,320.29c0.06331,0.45226 0.14043,0.91925 0.14043,1.1942c0,0.80125 -1.62565,1.78699 -0.80565,2.42151c-2.0974,0.10724 -4.21931,0.33183 -6.09355,0.79742c-7.22625,1.79506 -21.99713,8.30271 -23.38317,12.62694c-0.11283,0.35177 1.70396,0.61874 1.35787,0.93066c-1.15146,1.03784 -10.6166,-0.79702 -11.69604,-0.50228c-0.24439,0.06675 -0.36323,0.17127 -0.41122,0.29777c0.05027,-0.39283 0.08744,-0.77801 0.08744,-1.01693c0,-0.8398 -0.08765,-1.76138 0.66838,-2.51255c6.42609,-6.62094 17.30438,-13.05421 35.48229,-13.05421c0,0 2.15486,0.00505 3.56883,-0.70944c0.47154,-0.13315 0.83844,-0.2896 1.08412,-0.47313z" fill="#ffffff" stroke="none" stroke-linecap="butt"/></g><g><path d="M47.34104,332.02532l2.9944,-189.02164l226.26453,-1.87151l2.2458,178.91554z" fill="#a18c5d" stroke="#000000" stroke-width="1" stroke-linecap="round"/><path d="M84.95822,330.90242l-1.8715,-168.80943l20.21221,-11.97761l41.92163,-6.36311l38.17863,-0.3743l53.89924,8.98321l8.98321,1.4972l4.1173,168.43513z" fill="#f6fffe" stroke="#000000" stroke-width="1" stroke-linecap="round"/><path d="M103.29893,329.77953l-4.49161,-154.21172l22.83232,-8.6089l33.68702,-3.743l35.55853,-0.3743l31.44123,7.486l4.4916,153.46312z" fill="#3e433f" stroke="#000000" stroke-width="1" stroke-linecap="round"/><path d="M227.94093,314.80751l-84.21757,8.60891l-4.1173,-151.21732l82.34606,-1.1229z" fill="#5e685f" stroke="#000000" stroke-width="1" stroke-linecap="round"/><path d="M227.56664,302.45561l-71.49136,7.1117l-1.1229,-125.7649l67.74835,-2.9944l2.2458,118.27889z" fill="#d48246" stroke="#000000" stroke-width="1" stroke-linecap="round"/><path d="M288.95187,141.88078l-272.86491,1.8715l-5.6145,-11.97761l283.71962,-1.1229z" fill="#2a3531" stroke="#000000" stroke-width="1" stroke-linecap="round"/><path d="M282.68235,-3.38983l0.7486,-10.10611l241.33011,12.72621v3.27512l9.35751,300.84386l-255.55353,14.59771l-2.6201,-175.69188l2.9944,-0.3743l9.35751,0.3743l6.7374,-11.22901l-17.59211,-0.3743l-187.15014,1.1229l1.1229,-145.60281z" fill="#fefefe" stroke="#000000" stroke-width="1" stroke-linecap="round"/><path d="M329.37631,314.95255l-1.4972,-159.07762l163.19493,-2.6201l2.6201,151.59162z" fill="#626f65" stroke="#000000" stroke-width="1" stroke-linecap="round"/><path d="M297.93509,145.02021l217.46847,-6.7374l-2.99441,15.72061l-207.73666,2.6201z" fill="#2a3531" stroke="#000000" stroke-width="1" stroke-linecap="round"/><path d="M474.97912,153.62913l2.6201,103.68118l-128.7593,5.61451l-2.9944,-107.79849z" fill="#345367" stroke="#000000" stroke-width="1" stroke-linecap="round"/><path d="M283.43095,-4.13845l-229.07178,-11.60331l-10.48041,-13.84911l214.84837,14.97201l-4.1173,-11.97761l303.65111,13.47481l-13.10051,16.09492l-35.18422,-4.49161l-226.45168,-11.60331z" fill="#1c1e19" stroke="#000000" stroke-width="1" stroke-linecap="round"/><path d="M255.452,-6.19709l0.7486,56.89364l-119.40179,-3.743l1.87151,-58.39085z" fill="#5c6957" stroke="#000000" stroke-width="1" stroke-linecap="round"/><path d="M227.00518,-8.0686v60.63665l-57.64224,-3.743l0.7486,-60.26234z" fill="#345367" stroke="#000000" stroke-width="1" stroke-linecap="round"/><path d="M357.85832,76.41165c1.35299,0.02456 2.70905,-0.05115 4.06208,-0.01782c1.33986,0.03301 2.69115,0.15035 4.02869,0.23578c0.80118,0.05118 1.67703,0.04649 2.47217,0.15721c0.81304,0.11321 1.61213,0.395 2.41961,0.54275c1.24415,0.22765 2.52053,0.25689 3.76601,0.47708c0.56044,0.09908 1.11406,0.23236 1.66501,0.37581c-0.16453,-0.01438 -0.32827,-0.01941 -0.48871,0.00995c-0.44657,0.08172 -0.82951,0.38576 -1.26976,0.4966c-0.49278,0.12407 -1.00752,0.13889 -1.51073,0.20965c-1.55341,0.21844 -3.11103,0.58005 -4.67224,0.73317c-0.43858,0.04301 -0.9149,0.00617 -1.35558,0.0067c-0.58555,0.00069 -1.20999,0.05615 -1.79181,-0.00987c-1.26398,-0.14344 -2.26138,-0.52355 -3.37711,-1.08713c-0.56762,-0.28672 -1.0876,-0.67056 -1.65657,-0.9546c-0.51438,-0.25678 -1.09524,-0.37971 -1.58764,-0.67646c-0.16585,-0.09995 -0.41257,-0.27877 -0.70341,-0.49881z" fill="#ffffff" stroke="none" stroke-width="0.5" stroke-linecap="butt"/><path d="M404.61326,-2.93579c0.73078,-0.16271 1.4733,-0.28914 2.19452,-0.49c0.68669,-0.19124 1.32638,-0.5603 2.0279,-0.6868c0.76408,-0.13778 1.55404,-0.06476 2.32964,-0.1c0.80431,-0.03655 1.61025,-0.11734 2.41539,-0.11714c1.64685,0.00041 3.29583,0.15685 4.94082,0.23518c0.01092,0.00052 4.95578,0.23529 4.98024,0.23599c0.53595,0.01516 1.07561,-0.03776 1.61058,-0.00205c0.61725,0.0412 1.22818,0.17047 1.84368,0.23245c0.7989,0.08045 1.61358,0.05428 2.40406,0.19518c0.78203,0.13939 1.53279,0.42942 2.29799,0.64265c1.415,0.39431 2.83837,0.78023 4.2567,1.16239c2.11673,1.11446 4.25892,2.29228 6.23552,3.6461c0.67038,0.45916 1.29519,0.98691 1.94176,1.47903c1.73498,1.32052 2.18478,1.57941 3.75091,3.08785c0.58887,0.56718 1.13669,1.18016 1.70396,1.76895c0.57819,0.60012 1.15804,1.20341 1.73725,1.80254c0.29405,0.30416 0.63298,0.5721 0.88605,0.91112c0.47451,0.63569 0.8598,1.3372 1.28995,2.00371c0.85624,1.32672 1.68682,2.67812 2.48789,4.03887c0.35496,0.60297 0.74824,1.18812 1.06717,1.8109c0.36951,0.72155 0.66384,1.48286 0.99764,2.22162c0.32243,0.7136 0.73819,1.39464 0.97342,2.14154c0.44204,1.40358 0.48155,3.1422 0.47503,4.58845c-0.00737,1.63384 -0.05279,3.27638 -0.18643,4.90476c-0.10458,1.27428 -0.32102,2.54237 -0.47843,3.81121c-1.28002,4.77993 -2.90258,9.49433 -4.40129,14.21001c-0.49937,1.57126 -1.03726,3.13757 -1.60124,4.6868c-0.25957,0.71302 -0.4651,1.45112 -0.77825,2.14229c-0.25268,0.55772 -0.62893,1.05414 -0.91643,1.59473c-0.3118,0.58629 -0.51212,1.23785 -0.88403,1.78797c-1.23785,1.83103 -1.61111,1.68016 -3.41344,2.95089c-0.653,0.4604 -1.25613,0.99585 -1.92082,1.43921c-0.54051,0.36052 -1.16451,0.59322 -1.69292,0.97125c-0.62114,0.44438 -1.16361,0.99408 -1.74586,1.48832c-0.51306,0.43551 -1.09086,0.80687 -1.545,1.3035c-0.38106,0.41671 -0.54907,1.00362 -0.93981,1.41126c-1.08309,1.12993 -2.50219,1.90194 -3.93634,2.58114c-0.35267,-0.07807 -0.70749,-0.15253 -1.05715,-0.24041c-1.42401,-0.35792 -2.83326,-0.80857 -4.27897,-1.06513c-1.25923,-0.22346 -2.55401,-0.24574 -3.81192,-0.47648c-0.83191,-0.1526 -1.64703,-0.41376 -2.48487,-0.52947c-0.85573,-0.11818 -1.7275,-0.11429 -2.58952,-0.17051c-1.36422,-0.08898 -2.73172,-0.23033 -4.09842,-0.2644c-1.49862,-0.03736 -3.00471,0.05057 -4.50289,-0.00154c-1.00263,-0.03488 -2.00529,-0.14758 -3.00671,-0.20569c-0.5229,-0.41474 -1.06247,-0.81453 -1.5411,-1.27872c-0.45815,-0.44432 -0.78552,-1.0133 -1.23798,-1.46342c-0.23047,-0.22928 -3.0633,-2.60696 -3.35529,-2.8788c-0.59822,-0.55694 -1.15758,-1.15886 -1.73585,-1.73649c-0.5672,-0.56658 -1.18351,-1.09198 -1.70573,-1.70027c-0.52222,-0.60829 -0.94949,-1.29608 -1.42305,-1.94297c-0.36221,-0.49142 -0.76829,-0.95629 -1.08836,-1.47614c-0.04086,-0.06636 -1.60317,-3.02267 -1.85649,-3.48571c-1.12699,-2.06001 -2.54379,-4.12962 -3.32384,-6.35978c-0.39443,-1.12765 -0.81887,-3.56339 -1.03982,-4.709c-0.24063,-1.24765 -0.46547,-2.50413 -0.72345,-3.74831c-0.16539,-0.79765 -0.38764,-1.58802 -0.51425,-2.39274c-0.12595,-0.80051 -0.16161,-1.61616 -0.24278,-2.42244c-0.14005,-1.39118 -0.36161,-2.77923 -0.50062,-4.17052c-0.0749,-0.74963 -0.21246,-1.50855 -0.14228,-2.25864c0.13824,-1.47747 0.72705,-2.42213 1.13563,-3.78089c0.18441,-0.61327 0.25816,-1.26076 0.46495,-1.86686c0.27577,-0.80828 0.7539,-1.54744 0.98098,-2.37072c0.23226,-0.84204 0.23813,-1.73445 0.38966,-2.59469c0.14266,-0.80991 0.33097,-1.61421 0.49567,-2.41993c0.80315,-4.00835 1.51551,-9.74245 4.5157,-12.77882c1.55113,-1.56983 3.82283,-1.4928 5.36542,-2.99682c0.83844,-0.81748 1.43741,-1.53599 2.09599,-2.21405c0.13636,-0.03046 0.27315,-0.06113 0.40954,-0.09149z" fill="#ffffff" stroke="#000000" stroke-width="3" stroke-linecap="butt"/><path d="M449.09037,33.24382c0,-2.07107 1.67893,-3.75 3.75,-3.75c2.07107,0 3.75,1.67893 3.75,3.75c0,2.07107 -1.67893,3.75 -3.75,3.75c-2.07107,0 -3.75,-1.67893 -3.75,-3.75z" fill="#000000" stroke="none" stroke-width="0.5" stroke-linecap="butt"/><path d="M293.80536,-38.77805c0,-1 1,-1 1,-1l0.56866,0.05673c2.24988,0.79402 4.4379,1.7822 6.67665,2.62247c1.77194,0.80633 3.58034,1.56362 5.32572,2.42547c2.99281,1.47781 5.90607,3.14934 8.85137,4.72017c2.77987,1.4826 5.5492,2.98479 8.32135,4.48175c1.767,0.95418 3.57883,1.85821 5.31331,2.87005c1.00724,0.58759 1.96016,1.26372 2.94003,1.8959c1.68059,1.08425 3.36119,2.16851 5.04178,3.25276c1.68059,1.08425 3.36178,2.1676 5.04178,3.25276c0.54173,0.34992 1.0613,0.73666 1.62461,1.05067c1.13098,0.63045 2.34128,1.10667 3.51147,1.66097c2.98603,1.41443 5.9714,2.80628 9.00143,4.12404c2.35585,1.02456 4.62775,2.20181 6.92163,3.35779c1.07018,0.53931 2.78259,1.32918 3.69735,2.10576c0.42771,0.3631 0.70834,0.87027 1.06251,1.30541c0,0 0.6247,0.78087 -0.15617,1.40556c-0.78087,0.6247 -1.40556,-0.15617 -1.40556,-0.15617c-0.27684,-0.35363 -0.48813,-0.77027 -0.83053,-1.06089c-0.67242,-0.57073 -2.52558,-1.44017 -3.26718,-1.8134c-2.26086,-1.13783 -4.49802,-2.30085 -6.8195,-3.30991c-3.04998,-1.32572 -6.05473,-2.72708 -9.06015,-4.1507c-0.04743,-0.02247 -3.59008,-1.69978 -3.62758,-1.72069c-0.60132,-0.33515 -1.15791,-0.74493 -1.73658,-1.11784c-1.68116,-1.08337 -3.36119,-2.16851 -5.04178,-3.25276c-1.68059,-1.08425 -3.36119,-2.16851 -5.04178,-3.25276c-0.95808,-0.61812 -1.88883,-1.28073 -2.87383,-1.85498c-1.14067,-0.66501 -2.32395,-1.25407 -3.48575,-1.88144c-2.34641,-1.26706 -4.69283,-2.53413 -7.03924,-3.80119c-2.76908,-1.49531 -5.55013,-2.96854 -8.32692,-4.44949c-1.16727,-0.62254 -2.3154,-1.28234 -3.50158,-1.86806c-1.70634,-0.84257 -3.47445,-1.58183 -5.20628,-2.37128c-2.20462,-0.82598 -4.35867,-1.80556 -6.57466,-2.5834l0.0954,0.05673c0,0 -1,0 -1,-1z" fill="#000000" stroke="none" stroke-width="0.5" stroke-linecap="butt"/><path d="M474.36876,-97.17263c0.42014,0.90746 -0.48732,1.3276 -0.48732,1.3276l-0.76428,0.35385c-4.83562,2.23882 -9.66241,4.48658 -14.45735,6.81139c-0.57753,0.27894 -1.17268,0.524 -1.73258,0.83683c-0.92843,0.51873 -1.74975,1.20941 -2.62544,1.81293c-1.64678,1.13495 -3.29357,2.26989 -4.94035,3.40484c-2.19571,1.51326 -4.39142,3.02652 -6.58714,4.53978c-1.08186,0.74561 -2.20926,1.42894 -3.24654,2.23542c-0.49566,0.38537 -0.94304,0.82912 -1.41485,1.24336l-3.00704,2.63775c-3.00011,2.63168 -5.99997,5.26365 -9.00059,7.89475c-1.41655,1.38884 -2.83337,2.7774 -4.25018,4.16597c-0.93318,0.91457 -1.94489,1.75501 -2.80179,2.74142c-0.8569,0.98641 -1.54761,2.1057 -2.32271,3.1576c-1.18827,1.61262 -2.35987,3.23971 -3.56583,4.83913c-1.99553,2.6466 -4.15831,5.18611 -6.08353,7.88386c-0.59229,0.82996 -1.06692,1.73789 -1.60098,2.60647c-1.39674,2.27162 -2.79347,4.54323 -4.19021,6.81485c-6.25864,10.17889 -12.50162,20.36761 -18.79107,30.52749c0,0 -0.52635,0.85027 -1.37662,0.32391c-0.85027,-0.52635 -0.32391,-1.37662 -0.32391,-1.37662c6.28839,-10.15817 12.53031,-20.34516 18.78789,-30.52234c1.39674,-2.27162 2.79347,-4.54323 4.19021,-6.81485c0.55252,-0.8986 1.04687,-1.8358 1.65875,-2.69508c1.9386,-2.72242 4.12029,-5.28302 6.13254,-7.95178c1.20154,-1.59355 2.36875,-3.21475 3.55266,-4.82146c0.06121,-0.08307 2.3882,-3.24279 2.42295,-3.2828c0.03475,-0.04 2.83805,-2.78596 2.91174,-2.85818c1.42997,-1.40146 2.85994,-2.80291 4.29018,-4.20409c3.01346,-2.64439 6.02767,-5.28793 9.04163,-7.93176c1.00235,-0.87925 2.00432,-1.75893 3.00704,-2.63775c0.50139,-0.43944 0.97841,-0.90842 1.50472,-1.31767c0.03093,-0.02405 3.27776,-2.26106 3.3406,-2.30437c2.19571,-1.51326 4.39142,-3.02652 6.58714,-4.53978c1.64678,-1.13495 3.29357,-2.26989 4.94035,-3.40484c0.91737,-0.63224 1.78199,-1.34937 2.75374,-1.89434c0.60354,-0.33847 1.24445,-0.60551 1.86668,-0.90826c4.80564,-2.33001 9.6432,-4.58287 14.48961,-6.82668l0.76428,-0.35385c0,0 0.90746,-0.42014 1.3276,0.48732z" fill="#000000" stroke="none" stroke-width="0.5" stroke-linecap="butt"/><path d="M327.30961,6.75293c0.73078,-0.16271 1.4733,-0.28914 2.19452,-0.49c0.68669,-0.19124 1.32638,-0.5603 2.0279,-0.6868c0.76408,-0.13778 1.55404,-0.06476 2.32964,-0.1c0.80431,-0.03655 1.61025,-0.11734 2.41539,-0.11714c1.64685,0.00041 3.29583,0.15685 4.94082,0.23518c0.01092,0.00052 4.95578,0.23529 4.98024,0.23599c0.53595,0.01516 1.07561,-0.03776 1.61058,-0.00205c0.61725,0.0412 1.22818,0.17047 1.84368,0.23245c0.7989,0.08045 1.61358,0.05428 2.40406,0.19518c0.78203,0.13939 1.53279,0.42942 2.29799,0.64265c1.415,0.39431 2.83837,0.78023 4.2567,1.16239c2.11673,1.11446 4.25892,2.29228 6.23552,3.6461c0.67038,0.45916 1.29519,0.98691 1.94176,1.47903c1.73498,1.32052 2.18478,1.57941 3.75091,3.08785c0.58887,0.56718 1.13669,1.18016 1.70396,1.76895c0.57819,0.60012 1.15804,1.20341 1.73725,1.80254c0.29405,0.30416 0.63298,0.5721 0.88605,0.91112c0.47451,0.63569 0.8598,1.3372 1.28995,2.00371c0.85624,1.32672 1.68682,2.67812 2.48789,4.03887c0.35496,0.60297 0.74824,1.18812 1.06717,1.8109c0.36951,0.72155 0.66384,1.48286 0.99764,2.22162c0.32243,0.7136 0.73819,1.39464 0.97342,2.14154c0.44204,1.40358 0.48155,3.1422 0.47503,4.58845c-0.00737,1.63384 -0.05279,3.27638 -0.18643,4.90476c-0.10458,1.27428 -0.32102,2.54237 -0.47843,3.81121c-1.28002,4.77993 -2.90258,9.49433 -4.40129,14.21001c-0.49937,1.57126 -1.03726,3.13757 -1.60124,4.6868c-0.25957,0.71302 -0.4651,1.45112 -0.77825,2.14229c-0.25268,0.55772 -0.62893,1.05414 -0.91643,1.59473c-0.3118,0.58629 -0.51212,1.23785 -0.88403,1.78797c-1.23785,1.83103 -1.61111,1.68016 -3.41344,2.95089c-0.653,0.4604 -1.25613,0.99585 -1.92082,1.43921c-0.54051,0.36052 -1.16451,0.59322 -1.69292,0.97125c-0.62114,0.44438 -1.16361,0.99408 -1.74586,1.48832c-0.51306,0.43551 -1.09086,0.80687 -1.545,1.3035c-0.38106,0.41671 -0.54907,1.00362 -0.93981,1.41126c-1.08309,1.12993 -2.50219,1.90194 -3.93634,2.58114c-0.35267,-0.07807 -0.70749,-0.15253 -1.05715,-0.24041c-1.42401,-0.35792 -2.83326,-0.80857 -4.27897,-1.06513c-1.25923,-0.22346 -2.55401,-0.24574 -3.81192,-0.47648c-0.83191,-0.1526 -1.64703,-0.41376 -2.48487,-0.52947c-0.85573,-0.11818 -1.7275,-0.11429 -2.58952,-0.17051c-1.36422,-0.08898 -2.73172,-0.23033 -4.09842,-0.2644c-1.49862,-0.03736 -3.00471,0.05057 -4.50289,-0.00154c-1.00263,-0.03488 -2.00529,-0.14758 -3.00671,-0.20569c-0.5229,-0.41474 -1.06247,-0.81453 -1.5411,-1.27872c-0.45815,-0.44432 -0.78552,-1.0133 -1.23798,-1.46342c-0.23047,-0.22928 -3.0633,-2.60696 -3.35529,-2.8788c-0.59822,-0.55694 -1.15758,-1.15886 -1.73585,-1.73649c-0.5672,-0.56658 -1.18351,-1.09198 -1.70573,-1.70027c-0.52222,-0.60829 -0.94949,-1.29608 -1.42305,-1.94297c-0.36221,-0.49142 -0.76829,-0.95629 -1.08836,-1.47614c-0.04086,-0.06636 -1.60317,-3.02267 -1.85649,-3.48571c-1.12699,-2.06001 -2.54379,-4.12962 -3.32384,-6.35978c-0.39443,-1.12765 -0.81887,-3.56339 -1.03982,-4.709c-0.24063,-1.24765 -0.46547,-2.50413 -0.72345,-3.74831c-0.16539,-0.79765 -0.38764,-1.58802 -0.51425,-2.39274c-0.12595,-0.80051 -0.16161,-1.61616 -0.24278,-2.42244c-0.14005,-1.39118 -0.36161,-2.77923 -0.50062,-4.17052c-0.0749,-0.74963 -0.21246,-1.50855 -0.14228,-2.25864c0.13824,-1.47747 0.72705,-2.42213 1.13563,-3.78089c0.18441,-0.61327 0.25816,-1.26076 0.46495,-1.86686c0.27577,-0.80828 0.7539,-1.54744 0.98098,-2.37072c0.23226,-0.84204 0.23813,-1.73445 0.38966,-2.59469c0.14266,-0.80991 0.33097,-1.61421 0.49567,-2.41993c0.80315,-4.00835 1.51551,-9.74245 4.5157,-12.77882c1.55113,-1.56983 3.82283,-1.4928 5.36542,-2.99682c0.83844,-0.81748 1.43741,-1.53599 2.09599,-2.21405c0.13636,-0.03046 0.27315,-0.06113 0.40954,-0.09149z" fill="#ffffff" stroke="#000000" stroke-width="3" stroke-linecap="butt"/><path d="M372.18759,41.84562c0,-2.07107 1.67893,-3.75 3.75,-3.75c2.07107,0 3.75,1.67893 3.75,3.75c0,2.07107 -1.67893,3.75 -3.75,3.75c-2.07107,0 -3.75,-1.67893 -3.75,-3.75z" fill="#000000" stroke="none" stroke-width="0.5" stroke-linecap="butt"/><path d="M344.40751,141.10785c-1.5,0 -1.5,-1.5 -1.5,-1.5v-1.03072c0,-11.82319 0.05556,-23.58944 0.62594,-35.40039c0.0763,-0.49866 0.83068,-5.44766 0.86566,-5.58854c0.201,-0.80943 0.57773,-1.56479 0.86901,-2.34628c0.93238,-2.50154 1.15514,-3.354 2.46594,-5.70913c0.49923,-0.89698 1.09167,-1.73883 1.63909,-2.60724c0.55591,-0.88188 1.04924,-1.80681 1.67091,-2.64362c0.51476,-0.69291 1.15037,-1.28727 1.72673,-1.92985c0.67663,-0.75436 1.33336,-1.52716 2.03224,-2.26095c0.73864,-0.77553 1.45264,-1.58346 2.27861,-2.26522c0.58209,-0.48046 1.27833,-0.80287 1.91998,-1.20032c0.89541,-0.55464 1.74858,-1.18589 2.69116,-1.65592c0.71095,-0.35452 1.49493,-0.53823 2.24334,-0.80473c0.96462,-0.34349 1.91547,-0.72933 2.89573,-1.02524c0.96381,-0.29095 1.9597,-0.46456 2.92993,-0.73334c2.49562,-0.69136 4.90359,-1.69908 7.39684,-2.39959c0.97126,-0.27289 1.96625,-0.45363 2.94411,-0.70183c1.46189,-0.37106 2.90051,-0.82843 4.35087,-1.24227c0.09197,-0.01956 5.92431,-1.26087 5.99899,-1.27257c0.05029,-0.00788 6.07129,-0.62152 6.12513,-0.62426c0.03994,-0.00203 5.29671,-0.0023 5.64198,-0.00193c1.04492,0.00111 2.09346,-0.08089 3.13476,0.00607c0.89834,0.07502 1.77479,0.31736 2.66183,0.47799c2.20347,0.39902 3.97003,0.63123 6.09191,1.41091c0.10264,0.03772 5.35402,2.48285 5.53443,2.56427c1.43759,0.64872 2.91228,1.21316 4.34879,1.86429c2.26699,1.02756 4.47022,2.23587 6.67569,3.38717c0.93646,0.48885 1.92471,0.89003 2.80727,1.47056c0.73077,0.48069 1.33718,1.12797 2.00391,1.69414c0.77776,0.66044 1.58054,1.29284 2.32957,1.98569c0.7575,0.70068 1.45755,1.46102 2.18633,2.19152c0.08379,0.09215 4.05448,4.4574 4.11449,4.52886c0.35612,0.42408 0.65028,0.89655 0.97461,1.34541c0.59811,0.82779 1.22179,1.63777 1.79271,2.48454c0.34881,0.51733 0.64305,1.06943 0.96421,1.60438c0.91646,1.52653 1.82224,3.05967 2.70564,4.60556c0.02842,0.04973 2.9827,5.21934 2.99698,5.24588c1.74844,3.24888 3.30332,6.63096 4.79436,10.0045c0.62129,1.4057 1.17109,2.84193 1.75568,4.26329c0.67274,1.6357 1.93655,4.3856 2.07751,6.15592c0.07,0.8791 -0.28978,1.7398 -0.43466,2.60971c0,0 -0.26833,1.4758 -1.74413,1.20748c-1.4758,-0.26833 -1.20748,-1.74413 -1.20748,-1.74413c0.12997,-0.64181 0.44237,-1.2727 0.38991,-1.92544c-0.09165,-1.14029 -1.47005,-4.22698 -1.8552,-5.16134c-0.57824,-1.40279 -1.11918,-2.82148 -1.73277,-4.20918c-1.45872,-3.29905 -2.97804,-6.60798 -4.68822,-9.78523c-0.94135,-1.74888 -1.97132,-3.44858 -2.95669,-5.17304c-0.8728,-1.52745 -1.76868,-3.04172 -2.67339,-4.55049c-0.299,-0.49864 -0.57094,-1.01449 -0.89625,-1.49639c-0.54761,-0.81121 -1.14737,-1.58596 -1.72023,-2.37954c-0.29127,-0.40349 -0.55166,-0.83098 -0.87217,-1.21166c-1.26262,-1.49966 -2.63907,-2.89966 -3.95758,-4.35042c-0.68337,-0.68577 -1.33902,-1.40033 -2.05012,-2.0573c-0.71957,-0.6648 -1.49346,-1.26828 -2.23827,-1.90467c-0.5793,-0.49497 -1.09685,-1.07158 -1.73403,-1.48941c-0.78911,-0.51746 -1.67808,-0.86362 -2.51603,-1.29756c-2.16971,-1.1236 -4.32708,-2.31886 -6.55388,-3.32729c-1.42353,-0.64466 -2.88479,-1.20363 -4.30922,-1.84629c-0.91831,-0.41431 -1.82794,-0.8476 -2.74135,-1.27259c-0.86981,-0.4047 -1.70864,-0.88343 -2.60832,-1.21648c-1.87163,-0.69285 -3.63925,-0.91741 -5.59084,-1.27407c-0.79841,-0.14591 -1.58563,-0.3747 -2.39449,-0.4417c-0.95182,-0.07883 -1.91016,0.005 -2.86524,0.00607c-1.82992,0.00204 -3.66219,-0.09479 -5.48975,-0.00193c-0.97337,0.04945 -1.93902,0.19953 -2.90863,0.29827c-0.96808,0.09859 -1.94308,0.14312 -2.90444,0.29371c-1.93228,0.30269 -3.82597,0.81436 -5.73927,1.22004c-1.43834,0.41133 -2.86527,0.86501 -4.31526,1.23318c-0.96065,0.24392 -1.93845,0.42011 -2.89272,0.68789c-2.48806,0.69818 -4.89047,1.70398 -7.38063,2.39498c-0.95706,0.26558 -1.93992,0.43534 -2.89093,0.72187c-0.93455,0.28157 -1.83877,0.65542 -2.75911,0.98044c-0.64865,0.22907 -1.33283,0.37362 -1.94784,0.68181c-0.84641,0.42415 -1.6053,1.00414 -2.41043,1.50221c-0.54383,0.33643 -1.14371,0.59364 -1.63643,1.00127c-0.71581,0.59219 -1.32661,1.30158 -1.96403,1.97742c-0.67697,0.71777 -1.3178,1.46879 -1.97791,2.20209c-0.52069,0.57842 -1.10087,1.10797 -1.56449,1.73306c-0.57042,0.76909 -1.01625,1.62319 -1.52597,2.43377c-0.51819,0.82406 -1.08276,1.62048 -1.55778,2.47016c-1.21886,2.18019 -1.39648,2.95525 -2.27601,5.2986c-0.25707,0.68493 -0.60088,1.34266 -0.77616,2.05294c-0.22732,0.92115 -0.28179,1.87654 -0.42501,2.81446c-0.11794,0.77239 -0.23898,1.54429 -0.35847,2.31644c-0.54938,11.71129 -0.61092,23.37745 -0.61092,35.10054v1.03072c0,0 0,1.5 -1.5,1.5z" fill="#000000" stroke="none" stroke-width="0.5" stroke-linecap="butt"/></g></g></g></svg>