<svg version="1.1" xmlns="http://www.w3.org/2000/svg" xmlns:xlink="http://www.w3.org/1999/xlink" width="2878.25006" height="1619.57958" viewBox="0,0,2878.25006,1619.57958"><g transform="translate(1119.12503,629.78979)"><g stroke-miterlimit="10"><path d="M-1119.12503,989.78979v-1619.57958h2878.25006v1619.57958z" fill="none" stroke="#000000" stroke-width="0" stroke-linecap="butt"/><g stroke-width="0"><path d="M168.09143,342.29406l28.83129,-52.41438l80.55789,-0.46797l-16.95954,52.8824z" fill="#cedce9" stroke="#000000" stroke-linecap="round"/><path d="M160.42885,339.54582c-2.78231,-0.73973 -9.40378,-1.89287 -6.50196,-3.08497c-1.58651,0.382 -3.70309,0.84839 -4.82934,0.97385c-5.33531,0.59438 -12.24973,0 -17.75522,0c-15.10386,0 -29.76748,-0.31549 -44.38795,1.18012c-6.60742,0.67592 -8.42377,-1.41139 -10.4527,1.50916c-4.1851,4.90029 -12.05916,9.27311 -17.1173,14.20628c-6.85547,6.68595 -9.51394,13.14062 -13.71662,19.8447c-4.75574,5.52096 -0.88186,16.12106 -0.88186,22.26605c0,1.64493 1.33408,4.5729 0.05991,5.78369c1.26664,0.06115 2.49005,0.11698 3.2692,0.11698c5.1786,0 10.35715,0 15.53583,0c20.59973,0 44.53385,-0.23953 64.52816,-2.89742c23.73975,-2.83542 49.46906,1.23059 73.39979,-1.31435c13.10501,-1.27641 27.39032,-0.51768 40.73346,-0.50868c6.76902,0.00455 12.56555,-1.36253 15.53578,1.18013c0.7807,0.66834 0,-1.57351 0,-2.36021c0,-1.96684 0,-3.93376 0,-5.90064c0,-11.01452 0,-22.029 0,-33.04355c0,-2.60391 -1.28359,-11.91972 1.37196,-12.92779c-0.49817,-0.01583 -1.06199,-0.04155 -1.37196,-0.05358c-2.74629,-0.10655 -4.28068,-0.02607 -6.42391,-0.83921c-3.72081,-1.41167 -16.27375,-0.34091 -21.31857,-0.34091c-19.60468,0 -39.20932,0 -58.81401,0c0,0 -4.43878,0 -4.43878,-2.36021c0,-0.09688 0.00743,-0.18976 0.02181,-0.27882c-2.12195,-0.23913 -4.26541,-0.57084 -6.44565,-1.1505zM230.10548,338.61495c11.83443,0 26.95975,-1.12053 35.04162,3.66498c4.6313,2.74225 1.57836,11.53455 1.57836,15.2171c0,11.01452 0,22.029 0,33.04352c0,1.25777 1.52888,7.49701 0,8.26089c-15.44241,7.71537 -44.54879,1.69892 -63.40575,3.95743c-23.40036,2.48854 -50.34872,-2.25357 -72.98769,1.26509c-20.60729,2.73938 -45.43368,3.03842 -66.68128,3.03842c-3.04774,0 -21.32528,1.22733 -23.30364,0c-5.67346,-3.51959 -4.43879,-6.45553 -4.43879,-10.62116c0,-7.53469 -2.51188,-16.516 1.33754,-23.75882c4.30747,-6.87117 7.32822,-13.76273 14.19836,-20.46301c2.77135,-2.70279 5.7648,-6.31811 9.34617,-8.75924c2.34347,-1.59737 6.82405,-2.89519 7.38392,-4.97164c3.79744,-5.46628 10.66001,-3.67524 18.78029,-4.59396c14.45503,-1.63543 29.4133,-1.18013 44.38795,-1.18013c5.52256,0 16.31299,-1.35148 20.20885,-0.93093c6.78186,0.73205 10.71359,3.80733 17.28661,4.72049c4.82322,0.67005 9.906,0.27341 15.53582,1.7702c0.42742,0.11367 0.85473,0.22724 1.28219,0.34091c14.81659,0 29.63318,0 44.44978,0z" fill="#000000" stroke="none" stroke-linecap="butt"/><path d="M166.93624,340.58304c-0.01439,0.08908 -0.02131,0.182 -0.02131,0.27888c0,2.36021 4.46057,2.36427 4.46057,2.36427c19.60467,0 39.31381,0.04694 58.91856,0.04694c5.04482,0 17.60916,-1.05983 21.32995,0.35187c2.14319,0.81312 3.68107,0.73661 6.42726,0.84316c0.31001,0.01202 0.87424,0.0384 1.37247,0.05424c-2.65561,1.00806 -1.35847,10.3465 -1.35847,12.95042c0,11.01452 -0.00922,22.09452 -0.00922,33.10909c0,1.96684 -0.00761,3.94331 -0.00761,5.91017c0,0.78674 0.77733,3.03207 -0.00337,2.36376c-2.97023,-2.54266 -8.77204,-1.1705 -15.54101,-1.17505c-13.34318,-0.00898 -27.66882,-0.74078 -40.77387,0.53562c-23.93073,2.54494 -49.89523,-1.49822 -73.63498,1.33724c-19.99429,2.65792 -44.02562,2.85636 -64.62544,2.85636c-5.1786,0 -10.36627,-0.00742 -15.54487,-0.00742c-0.77923,0 -2.0043,-0.0573 -3.27087,-0.11845c1.2742,-1.21077 -0.06818,-4.14712 -0.06818,-5.79202c0,-6.14504 -3.89473,-16.78599 0.86108,-22.30698c4.20264,-6.70404 6.87028,-13.20355 13.7257,-19.88945c5.05821,-4.93316 12.96554,-9.34116 17.15065,-14.24143c2.02894,-2.92055 3.85909,-0.84221 10.46648,-1.5181c14.6204,-1.49564 29.37923,-1.21321 44.48304,-1.21321c5.50534,0 12.48168,0.58847 17.81703,-0.00593c1.12613,-0.12549 3.26038,-0.59183 4.84687,-0.97382c-2.90186,1.19207 3.7459,2.34661 6.52821,3.08634c2.18036,0.57966 4.34964,0.91447 6.47158,1.15362z" fill="#484848" stroke="none" stroke-linecap="butt"/><path d="M104.70964,349.23608c0,0.79765 1.53023,1.76442 0.76752,2.39605c1.95083,0.1068 3.9131,0.33996 5.65633,0.80343c6.72107,1.78692 20.3936,8.2983 21.68278,12.60308c0.10483,0.35016 -1.79577,0.40869 -1.47387,0.71916c1.07098,1.03321 9.79901,-0.76239 10.80294,-0.46898c0.22722,0.06642 0.33882,0.16987 0.38353,0.29573c-0.04672,-0.39104 -0.08956,-0.76908 -0.08956,-1.00695c0,-0.83605 0.06214,-1.73701 -0.64101,-2.48483c-5.97697,-6.59109 -15.74243,-12.85685 -32.64987,-12.85685c0,0 -1.9952,-0.00004 -3.31037,-0.71129c-0.43859,-0.13252 -0.7796,-0.28824 -1.00823,-0.47099c-0.05878,0.45027 -0.12022,0.90862 -0.12022,1.18232zM142.43943,366.93791c0.30296,0.48324 0.21358,-0.31885 0.11291,-1.15798c-0.02107,0.36417 -0.31999,0.82773 -0.11291,1.15798zM149.73864,359.98179c5.51937,5.86966 -7.01286,14.44567 -18.39623,10.49653c-10.7403,-3.72609 -14.37725,-11.21464 -24.17904,-13.82058c-3.3114,-0.88041 -7.27922,-1.36098 -9.75295,-2.82572c-3.92006,-2.32117 -2.18236,-10.24738 5.31413,-10.24738c5.39796,0 8.05669,0.93092 13.08207,0.93092h2.21937c0,0 2.54771,0 3.78284,1.02634c13.14851,2.28219 21.58583,8.08058 27.92977,14.43985z" fill="#000000" stroke="none" stroke-linecap="butt"/><path d="M104.66514,347.97464c0.2285,0.18271 0.56976,0.33846 1.00834,0.471c1.31513,0.71127 3.31938,0.70625 3.31938,0.70625c16.90739,0 27.02535,6.40429 33.0023,12.99541c0.70318,0.74779 0.62167,1.66522 0.62167,2.50125c0,0.23787 0.03459,0.6213 0.08133,1.01236c-0.04463,-0.12594 -0.15517,-0.22998 -0.38248,-0.29642c-1.004,-0.29341 -9.80759,1.53319 -10.87857,0.50002c-0.32188,-0.31052 1.36791,-0.57628 1.26297,-0.92647c-1.28917,-4.30477 -15.02765,-10.7831 -21.74882,-12.57009c-1.74326,-0.4635 -3.71684,-0.68708 -5.66766,-0.79385c0.76269,-0.63166 -0.74934,-1.61295 -0.74934,-2.4106c0,-0.27369 0.07173,-0.73859 0.13061,-1.18881z" fill="#ffffff" stroke="none" stroke-linecap="butt"/></g><g stroke-width="0"><path d="M303.73149,287.60641l-18.23399,-53.12161l86.6115,0.4701l30.99784,52.65148z" fill="#cedce9" stroke="#000000" stroke-linecap="round"/><path d="M411.3452,284.84583c-2.34409,0.58229 -4.64862,0.9155 -6.93002,1.15571c0.01545,0.08948 0.02345,0.18278 0.02345,0.2801c0,2.37088 -4.77235,2.37088 -4.77235,2.37088c-21.0779,0 -42.15578,0 -63.23365,0c-5.42392,0 -18.92018,-1.07561 -22.92058,0.34245c-2.30429,0.81682 -3.95398,0.73599 -6.90665,0.84301c-0.33326,0.01209 -0.93946,0.03793 -1.47505,0.05382c2.85512,1.01263 1.47505,10.37059 1.47505,12.98627c0,11.06437 0,22.1287 0,33.19302c0,1.97578 0,3.95159 0,5.92732c0,0.79026 -0.83936,3.04225 0,2.3709c3.19342,-2.55416 9.42554,-1.18092 16.70324,-1.18549c14.34584,-0.00904 29.70463,-0.77121 43.79444,0.51098c25.72904,2.55645 53.3918,-1.52796 78.91549,1.32029c21.4968,2.66989 47.22949,2.91051 69.37721,2.91051c5.56784,0 11.13552,0 16.70329,0c0.8377,0 2.15306,-0.05607 3.51488,-0.1175c-1.36992,-1.21625 0.06441,-4.15749 0.06441,-5.80984c0,-6.1728 4.16498,-16.82085 -0.94813,-22.36678c-4.51849,-6.7344 -7.37674,-13.21827 -14.74737,-19.93447c-5.43824,-4.95547 -13.904,-9.34807 -18.4036,-14.27054c-2.18139,-2.93378 -4.13424,-0.83702 -11.23817,-1.51599c-15.71915,-1.50238 -31.48467,-1.18545 -47.72353,-1.18545c-5.91921,0 -13.35322,0.59706 -19.08946,0c-1.21087,-0.12603 -3.4865,-0.59454 -5.19225,-0.97827c3.1199,1.19751 -3.99917,2.35585 -6.99055,3.09893zM336.43238,283.91073c15.93002,0 31.86002,0 47.79002,0c0.45956,-0.11418 0.91901,-0.22827 1.37854,-0.34244c6.05288,-1.50356 11.51762,-1.10513 16.70328,-1.77819c7.06696,-0.9173 11.29413,-4.00649 18.58562,-4.74185c4.18862,-0.42244 15.78991,0.93515 21.72746,0.93515c16.09994,0 32.18225,-0.45735 47.72353,1.18548c8.7305,0.92289 16.10876,-0.87625 20.19156,4.61476c0.60194,2.08585 5.4192,3.38953 7.93879,4.99414c3.85051,2.45218 7.06889,6.08383 10.0485,8.79886c7.38642,6.73057 10.63418,13.6533 15.26531,20.55556c4.13869,7.27558 1.43806,16.29752 1.43806,23.8663c0,4.18448 1.32745,7.1337 -4.77235,10.6692c-2.12703,1.23287 -21.77806,0 -25.05482,0c-22.84429,0 -49.53628,-0.3004 -71.69214,-3.05217c-24.34021,-3.53457 -53.31363,1.22899 -78.47244,-1.2708c-20.27402,-2.26871 -51.56763,3.77494 -68.17045,-3.97533c-1.64376,-0.76734 0,-7.0348 0,-8.29826c0,-11.06435 0,-22.12867 0,-33.19301c0,-3.69921 -3.28235,-12.53127 1.69697,-15.28593c8.68919,-4.80715 24.95113,-3.68155 37.67487,-3.68155z" fill="#000000" stroke="none" stroke-linecap="butt"/><path d="M404.34862,285.88773c2.28138,-0.24023 4.61368,-0.57655 6.95789,-1.15884c2.99138,-0.74307 10.13871,-1.90284 7.01878,-3.10029c1.70571,0.38373 4.00033,0.85218 5.21109,0.97824c5.73627,0.59708 13.23687,0.00594 19.15591,0.00594c16.23879,0 32.1067,-0.2837 47.82576,1.21869c7.10391,0.67897 9.07159,-1.40879 11.25299,1.52497c4.49961,4.92245 13.00114,9.35037 18.43945,14.30586c7.37059,6.71614 10.23868,13.24505 14.75714,19.97942c5.11318,5.54596 0.92579,16.23504 0.92579,22.40788c0,1.65235 -1.44325,4.60198 -0.0733,5.81822c-1.36175,0.06142 -2.67888,0.11899 -3.51667,0.11899c-5.56774,0 -11.14524,0.00745 -16.71301,0.00745c-22.14782,0 -47.98501,-0.19933 -69.48179,-2.86927c-25.52371,-2.8483 -53.43934,1.21315 -79.16837,-1.3433c-14.08984,-1.28217 -29.49201,-0.54706 -43.83787,-0.53805c-7.27762,0.00457 -13.51542,-1.3738 -16.70885,1.18036c-0.83936,0.67134 -0.00362,-1.58415 -0.00362,-2.37445c0,-1.97575 -0.00818,-3.96117 -0.00818,-5.93691c0,-11.06437 -0.00992,-22.19453 -0.00992,-33.25885c0,-2.61568 1.39461,-11.99637 -1.46056,-13.009c0.53567,-0.01591 1.14229,-0.04243 1.47561,-0.05448c2.95256,-0.10702 4.60601,-0.03017 6.91025,-0.84698c4.00039,-1.41807 17.50889,-0.35346 22.93281,-0.35346c21.07796,0 42.26818,-0.04715 63.34606,-0.04715c0,0 4.79577,-0.00408 4.79577,-2.37496c0,-0.09731 -0.00744,-0.19066 -0.02291,-0.28014z" fill="#484848" stroke="none" stroke-linecap="butt"/><path d="M471.25158,294.57966c0,-0.27494 -0.06607,-0.73535 -0.12926,-1.18766c-0.24581,0.18358 -0.61244,0.33999 -1.08399,0.4731c-1.414,0.71447 -3.55913,0.71451 -3.55913,0.71451c-18.17797,0 -28.67728,6.2941 -35.10339,12.91501c-0.75599,0.75122 -0.68917,1.65623 -0.68917,2.49606c0,0.23895 -0.04606,0.6187 -0.09629,1.01151c0.04807,-0.12642 0.16806,-0.23032 0.41235,-0.29706c1.07939,-0.29474 10.4633,1.50896 11.61475,0.47109c0.34607,-0.31188 -1.69734,-0.37066 -1.58463,-0.7224c1.38606,-4.32425 16.08601,-10.86511 23.31215,-12.66011c1.87423,-0.46555 3.98397,-0.69977 6.08139,-0.80706c-0.82004,-0.63448 0.82521,-1.60564 0.82521,-2.40688zM430.56512,311.19848c-0.10823,0.84293 -0.20433,1.64865 0.1214,1.16322c0.22264,-0.33175 -0.09874,-0.79741 -0.1214,-1.16322zM422.83882,305.37407c6.82067,-6.38803 15.89201,-12.21266 30.02858,-14.50516c1.32796,-1.03098 4.06712,-1.03098 4.06712,-1.03098h2.38616c5.40301,0 8.26154,-0.93513 14.06513,-0.93513c8.05982,0 9.92809,7.96206 5.71346,10.29371c-2.6596,1.47136 -6.92562,1.95411 -10.48585,2.8385c-10.53835,2.61773 -14.44859,10.14016 -25.99598,13.8831c-12.23879,3.96702 -25.71277,-4.64781 -19.77864,-10.54401z" fill="#000000" stroke="none" stroke-linecap="butt"/><path d="M471.29966,293.31269c0.06331,0.45226 0.14043,0.91925 0.14043,1.1942c0,0.80125 -1.62565,1.78699 -0.80565,2.42151c-2.0974,0.10724 -4.21931,0.33183 -6.09355,0.79742c-7.22625,1.79506 -21.99713,8.30271 -23.38317,12.62694c-0.11283,0.35177 1.70396,0.61874 1.35787,0.93066c-1.15146,1.03784 -10.6166,-0.79702 -11.69604,-0.50228c-0.24439,0.06675 -0.36323,0.17127 -0.41122,0.29777c0.05027,-0.39283 0.08744,-0.77801 0.08744,-1.01693c0,-0.8398 -0.08765,-1.76138 0.66838,-2.51255c6.42609,-6.62094 17.30438,-13.05421 35.48229,-13.05421c0,0 2.15486,0.00505 3.56883,-0.70944c0.47154,-0.13315 0.83844,-0.2896 1.08412,-0.47313z" fill="#ffffff" stroke="none" stroke-linecap="butt"/></g><g><path d="M65.00673,335.79057l-24.9499,-187.3917l223.50781,-35.26186l28.64037,176.6226z" fill="#a18c5d" stroke="#000000" stroke-width="1" stroke-linecap="round"/><path d="M102.04574,329.12533l-26.77787,-166.68255l18.22199,-14.8309l40.52248,-12.48362l37.70484,-6.00776l54.63487,0.92582l9.10581,0.1543l28.94378,165.98073z" fill="#f6fffe" stroke="#000000" stroke-width="1" stroke-linecap="round"/><path d="M120.01958,325.3065l-27.21372,-151.85797l21.31081,-11.88601l32.76503,-8.67629l35.11345,-5.62087l32.20197,2.76124l27.10316,151.11758z" fill="#3e433f" stroke="#000000" stroke-width="1" stroke-linecap="round"/><path d="M241.08442,292.09361l-82.02314,20.95035l-26.40135,-148.95167l81.27755,-13.27004z" fill="#5e685f" stroke="#000000" stroke-width="1" stroke-linecap="round"/><path d="M238.89032,279.93239l-69.65752,17.59036l-19.6814,-124.22042l66.56351,-12.96549l19.68658,116.65067z" fill="#d48246" stroke="#000000" stroke-width="1" stroke-linecap="round"/><path d="M275.89168,112.0535l-269.59735,42.143l-7.3216,-11.01726l280.4436,-43.00544z" fill="#2a3531" stroke="#000000" stroke-width="1" stroke-linecap="round"/><path d="M248.23982,-30.69884l-0.7519,-10.10587l240.56378,-23.0488l0.48361,3.23922l53.6784,296.16418l-250.59655,52.17345l-28.53455,-173.37901l2.9063,-0.81236l9.3102,-1.01156l5.00543,-12.10078l-17.45453,2.22751l-184.93274,28.74571l-20.38954,-144.17249z" fill="#fefefe" stroke="#000000" stroke-width="1" stroke-linecap="round"/><path d="M341.42926,277.25882l-24.97064,-157.11269l161.01905,-26.68921l24.97583,149.54294z" fill="#626f65" stroke="#000000" stroke-width="1" stroke-linecap="round"/><path d="M285.24,113.83203l214.08966,-38.77556l-0.64023,15.99044l-205.07251,33.26637z" fill="#2a3531" stroke="#000000" stroke-width="1" stroke-linecap="round"/><path d="M461.61445,96.20375l17.90124,102.15771l-126.51875,24.56593l-18.8794,-106.17462z" fill="#345367" stroke="#000000" stroke-width="1" stroke-linecap="round"/><path d="M248.86967,-31.54979l-228.27401,22.34928l-12.41052,-12.14972l214.70396,-16.91725l-5.84081,-11.23834l302.31214,-31.5109l-10.58028,17.85294l-35.46177,0.75303l-225.68264,21.96239z" fill="#1c1e19" stroke="#000000" stroke-width="1" stroke-linecap="round"/><path d="M220.89345,-29.45442l9.14147,56.15942l-118.64558,13.92924l-6.77116,-58.0271z" fill="#5c6957" stroke="#000000" stroke-width="1" stroke-linecap="round"/><path d="M192.48211,-27.10487l8.95378,59.97194l-57.56305,4.80965l-8.15812,-59.71227z" fill="#345367" stroke="#000000" stroke-width="1" stroke-linecap="round"/><path d="M334.37541,37.12714c1.34179,-0.1755 2.6718,-0.45061 4.01492,-0.61744c1.33004,-0.1652 2.68385,-0.24868 4.01935,-0.36169c0.79996,-0.06768 1.66551,-0.20165 2.46828,-0.20956c0.82084,-0.00808 1.65278,0.15262 2.47323,0.17952c1.26413,0.04144 2.53083,-0.11812 3.79517,-0.08425c0.56892,0.01524 1.13616,0.06531 1.70225,0.12583c-0.16485,0.01007 -0.32754,0.02928 -0.48188,0.08201c-0.42961,0.14677 -0.76345,0.50402 -1.18251,0.67865c-0.46905,0.19547 -0.97596,0.28614 -1.46321,0.43043c-1.50413,0.44543 -2.99128,1.03308 -4.51276,1.41505c-0.42742,0.1073 -0.90396,0.1412 -1.33973,0.2068c-0.57903,0.08714 -1.18843,0.23421 -1.77363,0.25483c-1.2713,0.04478 -2.3139,-0.18388 -3.50062,-0.57654c-0.60374,-0.19976 -1.17469,-0.50261 -1.77937,-0.69952c-0.54665,-0.17801 -1.1393,-0.21382 -1.67012,-0.43461c-0.17879,-0.07437 -0.44922,-0.21479 -0.76935,-0.38947z" fill="#ffffff" stroke="none" stroke-width="0.5" stroke-linecap="butt"/><path d="M368.90113,-48.25445c0.69874,-0.26884 1.41446,-0.50352 2.09811,-0.80868c0.65093,-0.29054 1.22911,-0.75001 1.90425,-0.97871c0.73536,-0.2491 1.52744,-0.29353 2.28933,-0.44291c0.79009,-0.15492 1.57527,-0.35383 2.37162,-0.47252c1.62885,-0.24277 3.28286,-0.33154 4.92138,-0.49697c0.01087,-0.0011 4.9362,-0.49907 4.96049,-0.50199c0.53231,-0.06415 1.05825,-0.19617 1.59263,-0.23985c0.61657,-0.05039 1.23989,-0.01276 1.85779,-0.04234c0.80202,-0.0384 1.60391,-0.18458 2.40652,-0.16195c0.79404,0.02239 1.5794,0.19837 2.3677,0.29628c1.45771,0.18105 2.92246,0.35255 4.38167,0.52109c2.25809,0.78968 4.55071,1.63827 6.70556,2.68537c0.73083,0.35514 1.42672,0.78484 2.13887,1.17609c1.91095,1.04985 2.39405,1.23948 4.16576,2.50013c0.66617,0.47401 1.2985,0.99937 1.94649,1.49794c0.66047,0.50817 1.32304,1.01922 1.98437,1.52625c0.33573,0.25741 0.71052,0.47236 1.01087,0.7703c0.56318,0.55865 1.04783,1.19558 1.57169,1.79126c1.04276,1.18574 2.06379,2.39968 3.05701,3.62723c0.4401,0.54395 0.91548,1.0646 1.32288,1.63347c0.472,0.65907 0.87552,1.36858 1.31476,2.04995c0.42427,0.65817 0.93603,1.27035 1.27898,1.97432c0.64445,1.32292 0.94026,3.03665 1.14736,4.468c0.23397,1.61701 0.43159,3.24825 0.53986,4.87852c0.08473,1.27576 0.05792,2.56191 0.08959,3.84007c-0.56017,4.91654 -1.4688,9.81886 -2.25475,14.70415c-0.26188,1.62777 -0.56259,3.25634 -0.89162,4.87186c-0.15144,0.74354 -0.24573,1.5039 -0.45338,2.23373c-0.16756,0.58892 -0.46637,1.13546 -0.6709,1.71257c-0.22181,0.62591 -0.32372,1.2999 -0.61032,1.89891c-0.9539,1.99374 -1.34535,1.89964 -2.94029,3.42258c-0.57786,0.55178 -1.09531,1.17041 -1.68724,1.70707c-0.48135,0.43638 -1.06415,0.75868 -1.53094,1.21058c-0.54871,0.53123 -1.00406,1.15501 -1.50696,1.72981c-0.44313,0.5065 -0.95976,0.9591 -1.33559,1.51735c-0.31535,0.46841 -0.39485,1.07369 -0.72112,1.53457c-0.90436,1.27747 -2.19391,2.25057 -3.51205,3.1341c-0.36033,-0.02514 -0.72226,-0.04639 -1.08106,-0.08167c-1.46125,-0.14372 -2.9216,-0.38134 -4.38934,-0.42161c-1.27842,-0.03507 -2.5623,0.13408 -3.8405,0.09162c-0.84532,-0.02808 -1.69007,-0.16602 -2.53581,-0.15675c-0.8638,0.00948 -1.72544,0.14205 -2.58631,0.21374c-1.3624,0.11344 -2.73578,0.17557 -4.09253,0.34368c-1.48771,0.18434 -2.96431,0.4937 -4.45375,0.66339c-0.99679,0.11355 -2.0051,0.15014 -3.00412,0.24054c-0.57841,-0.33298 -1.1711,-0.64871 -1.71302,-1.03714c-0.51874,-0.3718 -0.92654,-0.8862 -1.4405,-1.26457c-0.2618,-0.19273 -3.41467,-2.12605 -3.7436,-2.35179c-0.67391,-0.4625 -1.31601,-0.97522 -1.97323,-1.46113c-0.64465,-0.47661 -1.33178,-0.90525 -1.9381,-1.42976c-0.60632,-0.52451 -1.13046,-1.14166 -1.69436,-1.71153c-0.4308,-0.43255 -0.90108,-0.83236 -1.2944,-1.29925c-0.05021,-0.0596 -2.03193,-2.75281 -2.35085,-3.17336c-1.41883,-1.87101 -3.1257,-3.70873 -4.22651,-5.79926c-0.55662,-1.05704 -1.33608,-3.40341 -1.72377,-4.50384c-0.42223,-1.19844 -0.83013,-2.40794 -1.269,-3.60039c-0.28136,-0.76448 -0.61788,-1.51338 -0.86193,-2.29057c-0.24278,-0.77314 -0.39849,-1.57458 -0.59783,-2.36004c-0.34394,-1.35525 -0.76803,-2.69537 -1.11096,-4.05088c-0.18477,-0.73035 -0.43289,-1.46064 -0.47424,-2.21287c-0.08145,-1.48168 0.36142,-2.50293 0.56488,-3.90714c0.09183,-0.63378 0.06916,-1.28506 0.18419,-1.91506c0.15339,-0.84014 0.51714,-1.6418 0.62016,-2.48959c0.10538,-0.86711 -0.0206,-1.7506 0.00225,-2.62378c0.0215,-0.82209 0.08898,-1.64539 0.1329,-2.46659c0.20246,-4.083 0.0603,-9.85944 2.57924,-13.30554c1.30232,-1.78166 3.56049,-2.04092 4.86408,-3.75624c0.70854,-0.93233 1.19484,-1.7314 1.74608,-2.49928c0.13037,-0.05026 0.26113,-0.1008 0.39154,-0.15096z" fill="#ffffff" stroke="#000000" stroke-width="3" stroke-linecap="butt"/><path d="M418.23306,-19.03907c-0.30582,-2.04837 1.10679,-3.95681 3.15515,-4.26263c2.04837,-0.30582 3.95681,1.10679 4.26263,3.15515c0.30582,2.04837 -1.10679,3.95681 -3.15515,4.26263c-2.04837,0.30582 -3.95681,-1.10679 -4.26263,-3.15515z" fill="#000000" stroke="none" stroke-width="0.5" stroke-linecap="butt"/><path d="M254.01536,-67.34159c-0.14766,-0.98904 0.84137,-1.1367 0.84137,-1.1367l0.5708,-0.02786c2.34246,0.45309 4.65241,1.10735 6.9907,1.60783c1.87158,0.53584 3.77198,1.0178 5.62549,1.61247c3.17822,1.01968 6.30636,2.24271 9.45133,3.3614c2.96832,1.05587 5.92911,2.13266 8.89191,3.20387c1.88853,0.6828 3.81399,1.30938 5.67886,2.05401c1.08297,0.43242 2.12528,0.96042 3.18776,1.44098c1.82227,0.8242 3.64455,1.64841 5.46682,2.47262c1.82227,0.8242 3.645,1.64743 5.46682,2.47262c0.58746,0.26609 1.15844,0.57187 1.76194,0.79926c1.21167,0.45653 2.47903,0.74882 3.71824,1.12425c3.16215,0.958 6.32032,1.89377 9.51172,2.74965c2.48131,0.66545 4.90215,1.49432 7.34157,2.29891c1.13809,0.37538 2.94835,0.90373 3.96776,1.53672c0.47664,0.29596 0.82908,0.75614 1.24363,1.13421c0,0 0.73316,0.68006 0.05309,1.41322c-0.68006,0.73316 -1.41322,0.05309 -1.41322,0.05309c-0.32603,-0.30888 -0.59652,-0.68975 -0.97808,-0.92662c-0.74932,-0.46518 -2.71056,-1.05145 -3.49913,-1.31108c-2.40409,-0.79151 -4.78846,-1.61144 -7.23349,-2.26664c-3.2123,-0.86081 -6.39104,-1.80313 -9.57374,-2.76735c-0.05023,-0.01522 -3.80172,-1.15103 -3.8419,-1.16617c-0.64422,-0.24268 -1.25522,-0.56578 -1.88261,-0.84916c-1.8227,-0.82325 -3.64455,-1.64841 -5.46682,-2.47262c-1.82227,-0.8242 -3.64455,-1.64841 -5.46682,-2.47262c-1.03885,-0.46987 -2.05724,-0.98778 -3.11624,-1.41029c-1.22636,-0.48929 -2.48365,-0.89716 -3.72535,-1.3461c-2.50779,-0.90669 -5.01559,-1.8134 -7.52336,-2.72008c-2.95953,-1.07003 -5.92763,-2.11645 -8.89267,-3.17113c-1.2464,-0.44336 -2.47937,-0.92638 -3.73904,-1.33053c-1.81205,-0.58138 -3.66994,-1.05144 -5.49936,-1.57651c-2.30242,-0.49138 -4.5775,-1.14215 -6.88406,-1.58425l0.10273,0.04202c0,0 -0.98904,0.14766 -1.1367,-0.84137z" fill="#000000" stroke="none" stroke-width="0.5" stroke-linecap="butt"/><path d="M423.97668,-151.75854c0.54953,0.83547 -0.28594,1.38501 -0.28594,1.38501l-0.70365,0.46282c-4.45202,2.92832 -8.89399,5.86417 -13.29308,8.87154c-0.53001,0.36117 -1.08245,0.69142 -1.59002,1.08349c-0.84166,0.65014 -1.55198,1.45452 -2.32896,2.18074c-1.46114,1.36567 -2.92228,2.73134 -4.38343,4.09702c-1.94818,1.8209 -3.89638,3.64179 -5.84457,5.46269c-0.9599,0.89719 -1.97404,1.7395 -2.88086,2.69031c-0.43332,0.45434 -0.81027,0.95929 -1.21574,1.43865l-2.58458,3.05286c-2.57862,3.04583 -5.15695,6.09193 -7.73616,9.13725c-1.19594,1.58279 -2.39219,3.16534 -3.58843,4.74789c-0.7879,1.04234 -1.66442,2.02295 -2.36627,3.12509c-0.70185,1.10213 -1.21972,2.31114 -1.83099,3.46596c-0.93712,1.7704 -1.85562,3.55266 -2.81218,5.31262c-1.58285,2.91226 -3.34693,5.74329 -4.85269,8.69575c-0.46324,0.90832 -0.7986,1.87638 -1.19855,2.8143c-1.04599,2.45296 -2.09198,4.90592 -3.13798,7.35888c-4.68698,10.99148 -9.35703,21.99036 -14.0773,32.96758c0,0 -0.39503,0.91867 -1.3137,0.52364c-0.91867,-0.39503 -0.52364,-1.3137 -0.52364,-1.3137c4.71947,-10.97538 9.38872,-21.97239 14.07491,-32.96202c1.04599,-2.45296 2.09198,-4.90592 3.13798,-7.35888c0.41378,-0.97033 0.76431,-1.97026 1.24261,-2.91048c1.51535,-2.97883 3.29502,-5.83352 4.89113,-8.77015c0.95306,-1.75351 1.86808,-3.52929 2.80176,-5.2932c0.04828,-0.0912 1.88318,-3.55989 1.91164,-3.6046c0.02846,-0.04469 2.39555,-3.17449 2.45778,-3.25681c1.20735,-1.59725 2.4147,-3.19449 3.62236,-4.7915c2.58995,-3.06038 5.18076,-6.12002 7.77129,-9.17993c0.86153,-1.01762 1.72262,-2.03561 2.58458,-3.05286c0.431,-0.50866 0.83355,-1.04293 1.29365,-1.52542c0.02704,-0.02836 2.90796,-2.72027 2.96371,-2.77239c1.94818,-1.8209 3.89638,-3.64179 5.84457,-5.46269c1.46114,-1.36567 2.92228,-2.73134 4.38343,-4.09702c0.81395,-0.76077 1.5632,-1.59771 2.44383,-2.2802c0.54694,-0.42388 1.1414,-0.78264 1.7121,-1.17394c4.4089,-3.01408 8.86077,-5.95657 13.32273,-8.89142l0.70365,-0.46282c0,0 0.83547,-0.54953 1.38501,0.28594z" fill="#000000" stroke="none" stroke-width="0.5" stroke-linecap="butt"/><path d="M293.87556,-27.25706c0.69874,-0.26884 1.41446,-0.50352 2.09811,-0.80868c0.65093,-0.29054 1.22911,-0.75001 1.90425,-0.97871c0.73536,-0.2491 1.52744,-0.29353 2.28933,-0.44291c0.79009,-0.15492 1.57527,-0.35383 2.37162,-0.47252c1.62885,-0.24277 3.28286,-0.33154 4.92138,-0.49697c0.01087,-0.0011 4.9362,-0.49907 4.96049,-0.50199c0.53231,-0.06415 1.05825,-0.19617 1.59263,-0.23985c0.61657,-0.05039 1.23989,-0.01276 1.85779,-0.04234c0.80202,-0.0384 1.60391,-0.18458 2.40652,-0.16195c0.79404,0.02239 1.5794,0.19837 2.3677,0.29628c1.45771,0.18105 2.92246,0.35255 4.38167,0.52109c2.25809,0.78968 4.55071,1.63827 6.70556,2.68537c0.73083,0.35514 1.42672,0.78484 2.13887,1.17609c1.91095,1.04985 2.39405,1.23948 4.16576,2.50013c0.66617,0.47401 1.2985,0.99937 1.94649,1.49794c0.66047,0.50817 1.32304,1.01922 1.98437,1.52625c0.33573,0.25741 0.71052,0.47236 1.01087,0.7703c0.56318,0.55865 1.04783,1.19558 1.57169,1.79126c1.04276,1.18574 2.06379,2.39968 3.05701,3.62723c0.4401,0.54395 0.91548,1.0646 1.32288,1.63347c0.472,0.65907 0.87552,1.36858 1.31476,2.04995c0.42427,0.65817 0.93603,1.27035 1.27898,1.97432c0.64445,1.32292 0.94026,3.03665 1.14736,4.468c0.23397,1.61701 0.43159,3.24825 0.53986,4.87852c0.08473,1.27576 0.05792,2.56191 0.08959,3.84007c-0.56017,4.91654 -1.4688,9.81886 -2.25475,14.70415c-0.26188,1.62777 -0.56259,3.25634 -0.89162,4.87186c-0.15144,0.74354 -0.24573,1.5039 -0.45338,2.23373c-0.16756,0.58892 -0.46637,1.13546 -0.6709,1.71257c-0.22181,0.62591 -0.32372,1.2999 -0.61032,1.89891c-0.9539,1.99374 -1.34535,1.89964 -2.94029,3.42258c-0.57786,0.55178 -1.09531,1.17041 -1.68724,1.70707c-0.48135,0.43638 -1.06415,0.75868 -1.53094,1.21058c-0.54871,0.53123 -1.00406,1.15501 -1.50696,1.72981c-0.44313,0.5065 -0.95976,0.9591 -1.33559,1.51735c-0.31535,0.46841 -0.39485,1.07369 -0.72112,1.53457c-0.90436,1.27747 -2.19391,2.25057 -3.51205,3.1341c-0.36033,-0.02514 -0.72226,-0.04639 -1.08106,-0.08167c-1.46125,-0.14372 -2.9216,-0.38134 -4.38934,-0.42161c-1.27842,-0.03507 -2.5623,0.13408 -3.8405,0.09162c-0.84532,-0.02808 -1.69007,-0.16602 -2.53581,-0.15675c-0.8638,0.00948 -1.72544,0.14205 -2.58631,0.21374c-1.3624,0.11344 -2.73578,0.17557 -4.09253,0.34368c-1.48771,0.18434 -2.96431,0.4937 -4.45375,0.66339c-0.99679,0.11355 -2.0051,0.15014 -3.00412,0.24054c-0.57841,-0.33298 -1.1711,-0.64871 -1.71302,-1.03714c-0.51874,-0.3718 -0.92654,-0.8862 -1.4405,-1.26457c-0.2618,-0.19273 -3.41467,-2.12605 -3.7436,-2.35179c-0.67391,-0.4625 -1.31601,-0.97522 -1.97323,-1.46113c-0.64465,-0.47661 -1.33178,-0.90525 -1.9381,-1.42976c-0.60632,-0.52451 -1.13046,-1.14166 -1.69436,-1.71153c-0.4308,-0.43255 -0.90108,-0.83236 -1.2944,-1.29925c-0.05021,-0.0596 -2.03193,-2.75281 -2.35085,-3.17336c-1.41883,-1.87101 -3.1257,-3.70873 -4.22651,-5.79926c-0.55662,-1.05704 -1.33608,-3.40341 -1.72377,-4.50384c-0.42223,-1.19844 -0.83013,-2.40794 -1.269,-3.60039c-0.28136,-0.76448 -0.61788,-1.51338 -0.86193,-2.29057c-0.24278,-0.77314 -0.39849,-1.57458 -0.59783,-2.36004c-0.34394,-1.35525 -0.76803,-2.69537 -1.11096,-4.05088c-0.18477,-0.73035 -0.43289,-1.46064 -0.47424,-2.21287c-0.08145,-1.48168 0.36142,-2.50293 0.56488,-3.90714c0.09183,-0.63378 0.06916,-1.28506 0.18419,-1.91506c0.15339,-0.84014 0.51714,-1.6418 0.62016,-2.48959c0.10538,-0.86711 -0.0206,-1.7506 0.00225,-2.62378c0.0215,-0.82209 0.08898,-1.64539 0.1329,-2.46659c0.20246,-4.083 0.0603,-9.85944 2.57924,-13.30554c1.30232,-1.78166 3.56049,-2.04092 4.86408,-3.75624c0.70854,-0.93233 1.19484,-1.7314 1.74608,-2.49928c0.13037,-0.05026 0.26113,-0.1008 0.39154,-0.15096z" fill="#ffffff" stroke="#000000" stroke-width="3" stroke-linecap="butt"/><path d="M343.44348,0.82412c-0.30582,-2.04837 1.10679,-3.95681 3.15515,-4.26263c2.04837,-0.30582 3.95681,1.10679 4.26263,3.15515c0.30582,2.04837 -1.10679,3.95681 -3.15515,4.26263c-2.04837,0.30582 -3.95681,-1.10679 -4.26263,-3.15515z" fill="#000000" stroke="none" stroke-width="0.5" stroke-linecap="butt"/><path d="M330.62527,103.10031c-1.48356,0.2215 -1.70505,-1.26206 -1.70505,-1.26206l-0.1522,-1.01942c-1.74585,-11.69358 -3.42834,-23.33905 -4.60824,-35.10475c0.00183,-0.50446 0.01716,-5.51061 0.03095,-5.6551c0.07927,-0.83023 0.34034,-1.63294 0.51303,-2.44888c0.55278,-2.6118 0.64722,-3.48781 1.59588,-6.01067c0.36131,-0.96086 0.82295,-1.88097 1.23613,-2.82069c0.4196,-0.9543 0.77094,-1.94194 1.26223,-2.86137c0.4068,-0.76133 0.94767,-1.44302 1.42283,-2.16367c0.55782,-0.84601 1.09324,-1.70731 1.6761,-2.53625c0.61603,-0.8761 1.2029,-1.78061 1.91914,-2.57686c0.50477,-0.56115 1.14576,-0.98283 1.72169,-1.47067c0.8037,-0.68078 1.5543,-1.43109 2.41714,-2.03515c0.65081,-0.45562 1.39906,-0.75308 2.09992,-1.12717c0.90332,-0.48216 1.78678,-1.00418 2.71259,-1.44159c0.91028,-0.43008 1.86962,-0.74885 2.78952,-1.15795c2.36617,-1.05229 4.59894,-2.40453 6.96142,-3.46552c0.92032,-0.41332 1.87771,-0.739 2.8082,-1.12887c1.39107,-0.58286 2.74639,-1.24764 4.11974,-1.87112c0.08808,-0.03293 5.67319,-2.12185 5.74531,-2.14445c0.04858,-0.01522 5.91296,-1.51121 5.96581,-1.52187c0.0392,-0.00791 5.23831,-0.7844 5.57985,-0.83502c1.03362,-0.1532 2.05857,-0.38913 3.10129,-0.45688c0.89957,-0.05845 1.8022,0.05182 2.70323,0.07969c2.23823,0.06927 4.01972,0.03809 6.23347,0.4959c0.10708,0.02215 5.66196,1.66504 5.85241,1.71893c1.51762,0.42933 3.0595,0.76983 4.57641,1.2017c2.39387,0.68155 4.75137,1.55128 7.10267,2.36429c0.99838,0.34521 2.03504,0.59606 2.99364,1.03991c0.79374,0.36751 1.48908,0.91815 2.23211,1.37967c0.86675,0.53835 1.75411,1.04528 2.59725,1.61993c0.85266,0.58114 1.65731,1.22978 2.48597,1.84466c0.09648,0.07876 4.66823,3.80984 4.73813,3.87166c0.41484,0.36685 0.77554,0.7907 1.1626,1.18675c0.71379,0.7304 1.45023,1.4394 2.13993,2.19259c0.42138,0.46015 0.79392,0.96275 1.19054,1.44442c1.13183,1.37446 2.25406,2.75705 3.35605,4.15555c0.03545,0.04499 3.72071,4.72169 3.73875,4.74583c2.20902,2.95509 4.24625,6.07049 6.21909,9.18688c0.82205,1.29855 1.5779,2.63785 2.36596,3.95731c0.90689,1.51843 2.56291,4.05157 2.96374,5.78167c0.19904,0.85912 -0.0297,1.76352 -0.04454,2.64528c0,0 -0.04746,1.49924 -1.54671,1.45179c-1.49924,-0.04746 -1.45179,-1.54671 -1.45179,-1.54671c0.03377,-0.65397 0.24959,-1.32407 0.10132,-1.96191c-0.25903,-1.11426 -2.07811,-3.96358 -2.597,-4.83081c-0.77904,-1.30203 -1.52354,-2.62529 -2.33531,-3.90717c-1.92988,-3.04749 -3.92114,-6.09579 -6.08174,-8.98569c-1.18928,-1.59071 -2.45894,-3.11969 -3.68815,-4.67974c-1.08878,-1.38183 -2.19844,-2.74721 -3.31602,-4.10585c-0.36936,-0.44902 -0.71448,-0.91906 -1.10738,-1.34765c-0.66139,-0.72146 -1.36898,-1.39915 -2.05275,-2.09944c-0.34766,-0.35606 -0.66832,-0.74041 -1.04153,-1.06959c-1.47022,-1.29677 -3.03832,-2.47818 -4.55659,-3.71834c-0.77714,-0.57734 -1.53111,-1.18725 -2.33143,-1.73202c-0.80985,-0.55126 -1.66436,-1.03385 -2.49498,-1.55329c-0.64604,-0.40401 -1.24306,-0.89787 -1.93495,-1.21703c-0.85687,-0.39527 -1.78721,-0.60636 -2.68005,-0.91181c-2.31184,-0.79089 -4.62205,-1.6545 -6.97335,-2.32305c-1.50311,-0.42739 -3.0309,-0.76446 -4.53461,-1.18974c-0.96943,-0.27417 -1.93306,-0.56839 -2.89922,-0.85384c-0.92004,-0.27182 -1.82036,-0.62144 -2.75935,-0.81799c-1.95342,-0.40888 -3.73482,-0.36997 -5.71769,-0.43454c-0.81121,-0.02642 -1.62357,-0.13645 -2.43346,-0.08328c-0.95302,0.06258 -1.88848,0.287 -2.83293,0.42909c-1.80956,0.27223 -3.63604,0.44702 -5.42986,0.80873c-0.9554,0.19263 -1.8883,0.48367 -2.8327,0.7245c-0.94291,0.24046 -1.90064,0.42847 -2.82924,0.71937c-1.86641,0.58469 -3.66378,1.37039 -5.4962,2.05414c-1.36184,0.61921 -2.70613,1.27862 -4.08586,1.85687c-0.9141,0.38309 -1.85516,0.70175 -2.75944,1.1075c-2.35769,1.05792 -4.58524,2.40744 -6.94607,3.45857c-0.90735,0.40399 -1.85437,0.71703 -2.75265,1.14084c-0.88273,0.41648 -1.72184,0.91976 -2.58408,1.37711c-0.60772,0.32234 -1.26305,0.56633 -1.82581,0.96196c-0.7745,0.54448 -1.43943,1.23017 -2.16219,1.84168c-0.48819,0.41304 -1.04351,0.75602 -1.47064,1.23194c-0.62051,0.6914 -1.11988,1.4832 -1.65051,2.24576c-0.56356,0.80986 -1.08647,1.64728 -1.63106,2.47002c-0.42957,0.64897 -0.9252,1.25839 -1.29143,1.94507c-0.4506,0.84489 -0.76543,1.75546 -1.14986,2.63242c-0.39083,0.89155 -0.8316,1.7626 -1.17596,2.67311c-0.88356,2.33627 -0.94479,3.12906 -1.46865,5.5766c-0.15312,0.71538 -0.39603,1.41667 -0.46451,2.14504c-0.08881,0.94462 -0.00161,1.89758 -0.00476,2.84637c-0.0026,0.78134 -0.00833,1.56265 -0.01249,2.34398c1.18597,11.66403 2.84776,23.21139 4.57883,34.80597l0.1522,1.01942c0,0 0.2215,1.48356 -1.26206,1.70505z" fill="#000000" stroke="none" stroke-width="0.5" stroke-linecap="butt"/></g></g></g></svg>