<svg version="1.1" xmlns="http://www.w3.org/2000/svg" xmlns:xlink="http://www.w3.org/1999/xlink" width="2878.25006" height="1619.57958" viewBox="0,0,2878.25006,1619.57958"><g transform="translate(1119.12503,629.78979)"><g stroke-miterlimit="10"><path d="M-1119.12503,989.78979v-1619.57958h2878.25006v1619.57958z" fill="none" stroke="#000000" stroke-width="0" stroke-linecap="butt"/><g stroke-width="0"><path d="M168.09143,342.29406l28.83129,-52.41438l80.55789,-0.46797l-16.95954,52.8824z" fill="#cedce9" stroke="#000000" stroke-linecap="round"/><path d="M160.42885,339.54582c-2.78231,-0.73973 -9.40378,-1.89287 -6.50196,-3.08497c-1.58651,0.382 -3.70309,0.84839 -4.82934,0.97385c-5.33531,0.59438 -12.24973,0 -17.75522,0c-15.10386,0 -29.76748,-0.31549 -44.38795,1.18012c-6.60742,0.67592 -8.42377,-1.41139 -10.4527,1.50916c-4.1851,4.90029 -12.05916,9.27311 -17.1173,14.20628c-6.85547,6.68595 -9.51394,13.14062 -13.71662,19.8447c-4.75574,5.52096 -0.88186,16.12106 -0.88186,22.26605c0,1.64493 1.33408,4.5729 0.05991,5.78369c1.26664,0.06115 2.49005,0.11698 3.2692,0.11698c5.1786,0 10.35715,0 15.53583,0c20.59973,0 44.53385,-0.23953 64.52816,-2.89742c23.73975,-2.83542 49.46906,1.23059 73.39979,-1.31435c13.10501,-1.27641 27.39032,-0.51768 40.73346,-0.50868c6.76902,0.00455 12.56555,-1.36253 15.53578,1.18013c0.7807,0.66834 0,-1.57351 0,-2.36021c0,-1.96684 0,-3.93376 0,-5.90064c0,-11.01452 0,-22.029 0,-33.04355c0,-2.60391 -1.28359,-11.91972 1.37196,-12.92779c-0.49817,-0.01583 -1.06199,-0.04155 -1.37196,-0.05358c-2.74629,-0.10655 -4.28068,-0.02607 -6.42391,-0.83921c-3.72081,-1.41167 -16.27375,-0.34091 -21.31857,-0.34091c-19.60468,0 -39.20932,0 -58.81401,0c0,0 -4.43878,0 -4.43878,-2.36021c0,-0.09688 0.00743,-0.18976 0.02181,-0.27882c-2.12195,-0.23913 -4.26541,-0.57084 -6.44565,-1.1505zM230.10548,338.61495c11.83443,0 26.95975,-1.12053 35.04162,3.66498c4.6313,2.74225 1.57836,11.53455 1.57836,15.2171c0,11.01452 0,22.029 0,33.04352c0,1.25777 1.52888,7.49701 0,8.26089c-15.44241,7.71537 -44.54879,1.69892 -63.40575,3.95743c-23.40036,2.48854 -50.34872,-2.25357 -72.98769,1.26509c-20.60729,2.73938 -45.43368,3.03842 -66.68128,3.03842c-3.04774,0 -21.32528,1.22733 -23.30364,0c-5.67346,-3.51959 -4.43879,-6.45553 -4.43879,-10.62116c0,-7.53469 -2.51188,-16.516 1.33754,-23.75882c4.30747,-6.87117 7.32822,-13.76273 14.19836,-20.46301c2.77135,-2.70279 5.7648,-6.31811 9.34617,-8.75924c2.34347,-1.59737 6.82405,-2.89519 7.38392,-4.97164c3.79744,-5.46628 10.66001,-3.67524 18.78029,-4.59396c14.45503,-1.63543 29.4133,-1.18013 44.38795,-1.18013c5.52256,0 16.31299,-1.35148 20.20885,-0.93093c6.78186,0.73205 10.71359,3.80733 17.28661,4.72049c4.82322,0.67005 9.906,0.27341 15.53582,1.7702c0.42742,0.11367 0.85473,0.22724 1.28219,0.34091c14.81659,0 29.63318,0 44.44978,0z" fill="#000000" stroke="none" stroke-linecap="butt"/><path d="M166.93624,340.58304c-0.01439,0.08908 -0.02131,0.182 -0.02131,0.27888c0,2.36021 4.46057,2.36427 4.46057,2.36427c19.60467,0 39.31381,0.04694 58.91856,0.04694c5.04482,0 17.60916,-1.05983 21.32995,0.35187c2.14319,0.81312 3.68107,0.73661 6.42726,0.84316c0.31001,0.01202 0.87424,0.0384 1.37247,0.05424c-2.65561,1.00806 -1.35847,10.3465 -1.35847,12.95042c0,11.01452 -0.00922,22.09452 -0.00922,33.10909c0,1.96684 -0.00761,3.94331 -0.00761,5.91017c0,0.78674 0.77733,3.03207 -0.00337,2.36376c-2.97023,-2.54266 -8.77204,-1.1705 -15.54101,-1.17505c-13.34318,-0.00898 -27.66882,-0.74078 -40.77387,0.53562c-23.93073,2.54494 -49.89523,-1.49822 -73.63498,1.33724c-19.99429,2.65792 -44.02562,2.85636 -64.62544,2.85636c-5.1786,0 -10.36627,-0.00742 -15.54487,-0.00742c-0.77923,0 -2.0043,-0.0573 -3.27087,-0.11845c1.2742,-1.21077 -0.06818,-4.14712 -0.06818,-5.79202c0,-6.14504 -3.89473,-16.78599 0.86108,-22.30698c4.20264,-6.70404 6.87028,-13.20355 13.7257,-19.88945c5.05821,-4.93316 12.96554,-9.34116 17.15065,-14.24143c2.02894,-2.92055 3.85909,-0.84221 10.46648,-1.5181c14.6204,-1.49564 29.37923,-1.21321 44.48304,-1.21321c5.50534,0 12.48168,0.58847 17.81703,-0.00593c1.12613,-0.12549 3.26038,-0.59183 4.84687,-0.97382c-2.90186,1.19207 3.7459,2.34661 6.52821,3.08634c2.18036,0.57966 4.34964,0.91447 6.47158,1.15362z" fill="#484848" stroke="none" stroke-linecap="butt"/><path d="M104.70964,349.23608c0,0.79765 1.53023,1.76442 0.76752,2.39605c1.95083,0.1068 3.9131,0.33996 5.65633,0.80343c6.72107,1.78692 20.3936,8.2983 21.68278,12.60308c0.10483,0.35016 -1.79577,0.40869 -1.47387,0.71916c1.07098,1.03321 9.79901,-0.76239 10.80294,-0.46898c0.22722,0.06642 0.33882,0.16987 0.38353,0.29573c-0.04672,-0.39104 -0.08956,-0.76908 -0.08956,-1.00695c0,-0.83605 0.06214,-1.73701 -0.64101,-2.48483c-5.97697,-6.59109 -15.74243,-12.85685 -32.64987,-12.85685c0,0 -1.9952,-0.00004 -3.31037,-0.71129c-0.43859,-0.13252 -0.7796,-0.28824 -1.00823,-0.47099c-0.05878,0.45027 -0.12022,0.90862 -0.12022,1.18232zM142.43943,366.93791c0.30296,0.48324 0.21358,-0.31885 0.11291,-1.15798c-0.02107,0.36417 -0.31999,0.82773 -0.11291,1.15798zM149.73864,359.98179c5.51937,5.86966 -7.01286,14.44567 -18.39623,10.49653c-10.7403,-3.72609 -14.37725,-11.21464 -24.17904,-13.82058c-3.3114,-0.88041 -7.27922,-1.36098 -9.75295,-2.82572c-3.92006,-2.32117 -2.18236,-10.24738 5.31413,-10.24738c5.39796,0 8.05669,0.93092 13.08207,0.93092h2.21937c0,0 2.54771,0 3.78284,1.02634c13.14851,2.28219 21.58583,8.08058 27.92977,14.43985z" fill="#000000" stroke="none" stroke-linecap="butt"/><path d="M104.66514,347.97464c0.2285,0.18271 0.56976,0.33846 1.00834,0.471c1.31513,0.71127 3.31938,0.70625 3.31938,0.70625c16.90739,0 27.02535,6.40429 33.0023,12.99541c0.70318,0.74779 0.62167,1.66522 0.62167,2.50125c0,0.23787 0.03459,0.6213 0.08133,1.01236c-0.04463,-0.12594 -0.15517,-0.22998 -0.38248,-0.29642c-1.004,-0.29341 -9.80759,1.53319 -10.87857,0.50002c-0.32188,-0.31052 1.36791,-0.57628 1.26297,-0.92647c-1.28917,-4.30477 -15.02765,-10.7831 -21.74882,-12.57009c-1.74326,-0.4635 -3.71684,-0.68708 -5.66766,-0.79385c0.76269,-0.63166 -0.74934,-1.61295 -0.74934,-2.4106c0,-0.27369 0.07173,-0.73859 0.13061,-1.18881z" fill="#ffffff" stroke="none" stroke-linecap="butt"/></g><g stroke-width="0"><path d="M423.29004,217.09753l-18.23399,-53.12161l86.6115,0.4701l30.99784,52.65148z" fill="#cedce9" stroke="#000000" stroke-linecap="round"/><path d="M530.90375,214.33695c-2.34409,0.58229 -4.64862,0.9155 -6.93002,1.15571c0.01545,0.08948 0.02345,0.18278 0.02345,0.2801c0,2.37088 -4.77235,2.37088 -4.77235,2.37088c-21.0779,0 -42.15578,0 -63.23365,0c-5.42392,0 -18.92018,-1.07561 -22.92058,0.34245c-2.30429,0.81682 -3.95398,0.73599 -6.90665,0.84301c-0.33326,0.01209 -0.93946,0.03793 -1.47505,0.05382c2.85512,1.01263 1.47505,10.37059 1.47505,12.98627c0,11.06437 0,22.1287 0,33.19302c0,1.97578 0,3.95159 0,5.92732c0,0.79026 -0.83936,3.04225 0,2.3709c3.19342,-2.55416 9.42554,-1.18092 16.70324,-1.18549c14.34584,-0.00904 29.70463,-0.77121 43.79444,0.51098c25.72904,2.55645 53.3918,-1.52796 78.91549,1.32029c21.4968,2.66989 47.22949,2.91051 69.37721,2.91051c5.56784,0 11.13552,0 16.70329,0c0.8377,0 2.15306,-0.05607 3.51488,-0.1175c-1.36992,-1.21625 0.06441,-4.15749 0.06441,-5.80984c0,-6.1728 4.16498,-16.82085 -0.94813,-22.36678c-4.51849,-6.7344 -7.37674,-13.21827 -14.74737,-19.93447c-5.43824,-4.95547 -13.904,-9.34807 -18.4036,-14.27054c-2.18139,-2.93378 -4.13424,-0.83702 -11.23817,-1.51599c-15.71915,-1.50238 -31.48467,-1.18545 -47.72353,-1.18545c-5.91921,0 -13.35322,0.59706 -19.08946,0c-1.21087,-0.12603 -3.4865,-0.59454 -5.19225,-0.97827c3.1199,1.19751 -3.99917,2.35585 -6.99055,3.09893zM455.99093,213.40185c15.93002,0 31.86002,0 47.79002,0c0.45956,-0.11418 0.91901,-0.22827 1.37854,-0.34244c6.05288,-1.50356 11.51762,-1.10513 16.70328,-1.77819c7.06696,-0.9173 11.29413,-4.00649 18.58562,-4.74185c4.18862,-0.42244 15.78991,0.93515 21.72746,0.93515c16.09994,0 32.18225,-0.45735 47.72353,1.18548c8.7305,0.92289 16.10876,-0.87625 20.19156,4.61476c0.60194,2.08585 5.4192,3.38953 7.93879,4.99414c3.85051,2.45218 7.06889,6.08383 10.0485,8.79886c7.38642,6.73057 10.63418,13.6533 15.26531,20.55556c4.13869,7.27558 1.43806,16.29752 1.43806,23.8663c0,4.18448 1.32745,7.1337 -4.77235,10.6692c-2.12703,1.23287 -21.77806,0 -25.05482,0c-22.84429,0 -49.53628,-0.3004 -71.69214,-3.05217c-24.34021,-3.53457 -53.31363,1.22899 -78.47244,-1.2708c-20.27402,-2.26871 -51.56763,3.77494 -68.17045,-3.97533c-1.64376,-0.76734 0,-7.0348 0,-8.29826c0,-11.06435 0,-22.12867 0,-33.19301c0,-3.69921 -3.28235,-12.53127 1.69697,-15.28593c8.68919,-4.80715 24.95113,-3.68155 37.67487,-3.68155z" fill="#000000" stroke="none" stroke-linecap="butt"/><path d="M523.90717,215.37885c2.28138,-0.24023 4.61368,-0.57655 6.95789,-1.15884c2.99138,-0.74307 10.13871,-1.90284 7.01878,-3.10029c1.70571,0.38373 4.00033,0.85218 5.21109,0.97824c5.73627,0.59708 13.23687,0.00594 19.15591,0.00594c16.23879,0 32.1067,-0.2837 47.82576,1.21869c7.10391,0.67897 9.07159,-1.40879 11.25299,1.52497c4.49961,4.92245 13.00114,9.35037 18.43945,14.30586c7.37059,6.71614 10.23868,13.24505 14.75714,19.97942c5.11318,5.54596 0.92579,16.23504 0.92579,22.40788c0,1.65235 -1.44325,4.60198 -0.0733,5.81822c-1.36175,0.06142 -2.67888,0.11899 -3.51667,0.11899c-5.56774,0 -11.14524,0.00745 -16.71301,0.00745c-22.14782,0 -47.98501,-0.19933 -69.48179,-2.86927c-25.52371,-2.8483 -53.43934,1.21315 -79.16837,-1.3433c-14.08984,-1.28217 -29.49201,-0.54706 -43.83787,-0.53805c-7.27762,0.00457 -13.51542,-1.3738 -16.70885,1.18036c-0.83936,0.67134 -0.00362,-1.58415 -0.00362,-2.37445c0,-1.97575 -0.00818,-3.96117 -0.00818,-5.93691c0,-11.06437 -0.00992,-22.19453 -0.00992,-33.25885c0,-2.61568 1.39461,-11.99637 -1.46056,-13.009c0.53567,-0.01591 1.14229,-0.04243 1.47561,-0.05448c2.95256,-0.10702 4.60601,-0.03017 6.91025,-0.84698c4.00039,-1.41807 17.50889,-0.35346 22.93281,-0.35346c21.07796,0 42.26818,-0.04715 63.34606,-0.04715c0,0 4.79577,-0.00408 4.79577,-2.37496c0,-0.09731 -0.00744,-0.19066 -0.02291,-0.28014z" fill="#484848" stroke="none" stroke-linecap="butt"/><path d="M590.81013,224.07078c0,-0.27494 -0.06607,-0.73535 -0.12926,-1.18766c-0.24581,0.18358 -0.61244,0.33999 -1.08399,0.4731c-1.414,0.71447 -3.55913,0.71451 -3.55913,0.71451c-18.17797,0 -28.67728,6.2941 -35.10339,12.91501c-0.75599,0.75122 -0.68917,1.65623 -0.68917,2.49606c0,0.23895 -0.04606,0.6187 -0.09629,1.01151c0.04807,-0.12642 0.16806,-0.23032 0.41235,-0.29706c1.07939,-0.29474 10.4633,1.50896 11.61475,0.47109c0.34607,-0.31188 -1.69734,-0.37066 -1.58463,-0.7224c1.38606,-4.32425 16.08601,-10.86511 23.31215,-12.66011c1.87423,-0.46555 3.98397,-0.69977 6.08139,-0.80706c-0.82004,-0.63448 0.82521,-1.60564 0.82521,-2.40688zM550.12367,240.6896c-0.10823,0.84293 -0.20433,1.64865 0.1214,1.16322c0.22264,-0.33175 -0.09874,-0.79741 -0.1214,-1.16322zM542.39737,234.86519c6.82067,-6.38803 15.89201,-12.21266 30.02858,-14.50516c1.32796,-1.03098 4.06712,-1.03098 4.06712,-1.03098h2.38616c5.40301,0 8.26154,-0.93513 14.06513,-0.93513c8.05982,0 9.92809,7.96206 5.71346,10.29371c-2.6596,1.47136 -6.92562,1.95411 -10.48585,2.8385c-10.53835,2.61773 -14.44859,10.14016 -25.99598,13.8831c-12.23879,3.96702 -25.71277,-4.64781 -19.77864,-10.54401z" fill="#000000" stroke="none" stroke-linecap="butt"/><path d="M590.85821,222.80381c0.06331,0.45226 0.14043,0.91925 0.14043,1.1942c0,0.80125 -1.62565,1.78699 -0.80565,2.42151c-2.0974,0.10724 -4.21931,0.33183 -6.09355,0.79742c-7.22625,1.79506 -21.99713,8.30271 -23.38317,12.62694c-0.11283,0.35177 1.70396,0.61874 1.35787,0.93066c-1.15146,1.03784 -10.6166,-0.79702 -11.69604,-0.50228c-0.24439,0.06675 -0.36323,0.17127 -0.41122,0.29777c0.05027,-0.39283 0.08744,-0.77801 0.08744,-1.01693c0,-0.8398 -0.08765,-1.76138 0.66838,-2.51255c6.42609,-6.62094 17.30438,-13.05421 35.48229,-13.05421c0,0 2.15486,0.00505 3.56883,-0.70944c0.47154,-0.13315 0.83844,-0.2896 1.08412,-0.47313z" fill="#ffffff" stroke="none" stroke-linecap="butt"/></g><g><path d="M124.24126,370.7132l-67.61171,-176.54123l209.29335,-85.99671l68.71156,165.21058z" fill="#a18c5d" stroke="#000000" stroke-width="1" stroke-linecap="round"/><path d="M158.73464,355.66262l-64.60071,-155.97075l14.29803,-18.64304l36.5368,-21.51684l35.29322,-14.56491l53.3678,-11.73472l8.89463,-1.95579l66.54558,154.78705z" fill="#f6fffe" stroke="#000000" stroke-width="1" stroke-linecap="round"/><path d="M175.33801,347.7905l-61.59625,-141.44728l17.98418,-16.49234l29.87018,-16.01866l32.86157,-13.5892l31.96755,-4.76099l61.31745,140.75253z" fill="#3e433f" stroke="#000000" stroke-width="1" stroke-linecap="round"/><path d="M285.43954,287.47928l-74.95424,39.35192l-60.13376,-138.80765l76.0051,-31.7074z" fill="#5e685f" stroke="#000000" stroke-width="1" stroke-linecap="round"/><path d="M280.4924,276.15519l-63.70093,33.22322l-47.87638,-116.301l61.7604,-28.00818l46.13076,108.93528z" fill="#d48246" stroke="#000000" stroke-width="1" stroke-linecap="round"/><path d="M277.66516,104.27026l-252.54197,103.35046l-9.67108,-9.0253l262.89471,-106.69794z" fill="#2a3531" stroke="#000000" stroke-width="1" stroke-linecap="round"/><path d="M217.74851,-28.21692l-3.06871,-9.658l228.71145,-78.0593l1.21964,3.03955l120.71726,275.72076l-231.73654,108.71465l-67.85846,-162.0794l2.63963,-1.46248l8.82386,-3.13731l2.07118,-12.93033l-16.46617,6.20384l-173.27107,70.73593l-53.17965,-135.54839z" fill="#fefefe" stroke="#000000" stroke-width="1" stroke-linecap="round"/><path d="M379.63313,249.83984l-60.62924,-147.0783l150.48129,-63.20465l58.88362,139.71257z" fill="#626f65" stroke="#000000" stroke-width="1" stroke-linecap="round"/><path d="M287.17136,103.83858l199.31791,-87.23701l3.07524,15.70499l-191.81934,79.79177z" fill="#2a3531" stroke="#000000" stroke-width="1" stroke-linecap="round"/><path d="M454.68729,45.89796l41.04202,95.24812l-117.40738,53.16002l-42.92266,-98.92991z" fill="#345367" stroke="#000000" stroke-width="1" stroke-linecap="round"/><path d="M218.16449,-29.19047l-216.91664,74.53647l-14.88394,-8.95014l204.97074,-66.11336l-8.28157,-9.58286l286.82874,-100.57258l-6.16458,19.81584l-34.32622,8.93388l-214.48499,73.56077z" fill="#1c1e19" stroke="#000000" stroke-width="1" stroke-linecap="round"/><path d="M191.43131,-20.68182l21.88167,52.52275l-112.20761,40.99086l-20.00756,-54.88798z" fill="#5c6957" stroke="#000000" stroke-width="1" stroke-linecap="round"/><path d="M164.3336,-11.82526l22.58079,56.27532l-54.89015,17.99191l-21.74665,-56.2067z" fill="#345367" stroke="#000000" stroke-width="1" stroke-linecap="round"/><path d="M317.23508,17.84962c1.26482,-0.48106 2.49515,-1.0563 3.76328,-1.52923c1.25577,-0.46832 2.55357,-0.86263 3.82674,-1.28144c0.76262,-0.25086 1.57372,-0.58137 2.3529,-0.77472c0.79672,-0.1977 1.64327,-0.23376 2.4477,-0.39734c1.23944,-0.25204 2.4349,-0.70022 3.6728,-0.95967c0.55702,-0.11675 1.12046,-0.19922 1.6852,-0.27126c-0.15805,0.04793 -0.31189,0.10424 -0.44985,0.19123c-0.38402,0.24215 -0.62619,0.66692 -0.9935,0.93373c-0.41113,0.29865 -0.88333,0.50409 -1.32399,0.75716c-1.36033,0.78122 -2.67127,1.69687 -4.06316,2.42036c-0.39102,0.20324 -0.8468,0.34643 -1.25558,0.51103c-0.54318,0.21869 -1.10204,0.50271 -1.66661,0.65811c-1.22648,0.33758 -2.29369,0.35624 -3.53905,0.24868c-0.63357,-0.05471 -1.25908,-0.21731 -1.89291,-0.26904c-0.573,-0.04675 -1.15786,0.05547 -1.72536,-0.03657c-0.19114,-0.031 -0.48672,-0.10508 -0.83856,-0.20098z" fill="#ffffff" stroke="none" stroke-width="0.5" stroke-linecap="butt"/><path d="M331.07853,-73.20202c0.61763,-0.42315 1.25967,-0.817 1.85421,-1.27198c0.56609,-0.43321 1.02234,-1.01394 1.62628,-1.39258c0.65781,-0.41242 1.41815,-0.63882 2.12484,-0.96035c0.73284,-0.33344 1.45073,-0.70855 2.19805,-1.0082c1.52855,-0.61289 3.11719,-1.08178 4.67302,-1.62166c0.01033,-0.00358 4.68696,-1.62714 4.70991,-1.6356c0.50304,-0.18552 0.98419,-0.43559 1.49398,-0.60167c0.5882,-0.19162 1.20332,-0.29917 1.79763,-0.47084c0.77139,-0.22284 1.51774,-0.55051 2.30382,-0.71411c0.77769,-0.16186 1.58246,-0.17227 2.37203,-0.25933c1.46006,-0.16098 2.92476,-0.33289 4.38339,-0.50639c2.3795,0.24604 4.80622,0.54141 7.14482,1.06177c0.79315,0.17649 1.56955,0.43361 2.35288,0.64955c2.10194,0.57944 2.6158,0.65221 4.63103,1.46893c0.75773,0.30709 1.49442,0.67197 2.24015,1.00716c0.76009,0.34165 1.52289,0.68561 2.28355,1.02595c0.38616,0.17279 0.8005,0.29523 1.16162,0.51563c0.67711,0.41325 1.29592,0.92083 1.94334,1.37921c1.28871,0.91243 2.56282,1.85733 3.813,2.82189c0.55397,0.42742 1.13687,0.82401 1.6648,1.28325c0.61163,0.53204 1.1683,1.12899 1.75321,1.6903c0.56499,0.5422 1.20445,1.01944 1.70091,1.625c0.93293,1.13801 1.61705,2.73687 2.14957,4.08152c0.60159,1.51906 1.17111,3.06037 1.65348,4.62141c0.37748,1.22158 0.64885,2.47906 0.97525,3.71525c0.59207,4.9128 0.84184,9.89235 1.20702,14.82697c0.12168,1.6442 0.20576,3.29817 0.25927,4.94599c0.02462,0.75841 0.10874,1.51996 0.07551,2.27803c-0.02681,0.6117 -0.19113,1.21253 -0.25664,1.8213c-0.07104,0.66024 -0.01431,1.33952 -0.15461,1.98858c-0.46694,2.1603 -0.86955,2.15928 -2.06904,4.0098c-0.43459,0.67047 -0.79493,1.39199 -1.2467,2.051c-0.36738,0.53587 -0.85984,0.98422 -1.20947,1.53182c-0.41098,0.64373 -0.70972,1.3559 -1.06605,2.03143c-0.31398,0.59525 -0.71193,1.15506 -0.94846,1.7851c-0.19847,0.52864 -0.13584,1.1359 -0.34667,1.65974c-0.5844,1.45199 -1.61394,2.69695 -2.69201,3.86137c-0.35637,0.05887 -0.7134,0.12191 -1.07064,0.17056c-1.45487,0.19812 -2.93059,0.30468 -4.36785,0.60495c-1.25187,0.26154 -2.46183,0.72303 -3.7152,0.97733c-0.82889,0.16818 -1.68265,0.22935 -2.50332,0.43395c-0.83819,0.20899 -1.64581,0.53724 -2.46676,0.80609c-1.29922,0.42545 -2.62101,0.80352 -3.9021,1.28085c-1.40475,0.52341 -2.76977,1.16587 -4.17958,1.67543c-0.9435,0.34099 -1.91602,0.60979 -2.86705,0.92879c-0.63974,-0.19018 -1.28938,-0.36028 -1.90644,-0.61285c-0.59066,-0.24175 -1.10637,-0.64789 -1.69391,-0.89714c-0.29928,-0.12695 -3.81379,-1.2787 -4.18601,-1.42225c-0.76261,-0.2941 -1.50587,-0.64442 -2.25765,-0.96517c-0.7374,-0.3146 -1.50503,-0.5727 -2.21622,-0.94278c-0.71119,-0.37006 -1.36384,-0.84927 -2.04425,-1.27328c-0.51916,-0.32119 -1.06915,-0.6014 -1.55979,-0.96467c-0.06263,-0.04637 -2.61349,-2.20826 -3.02102,-2.54365c-1.81307,-1.49215 -3.89868,-2.8853 -5.45312,-4.66457c-0.78599,-0.89965 -2.08696,-3.00214 -2.71865,-3.98308c-0.68795,-1.0683 -1.36451,-2.15067 -2.06726,-3.2093c-0.45054,-0.67869 -0.95112,-1.32945 -1.36831,-2.02913c-0.415,-0.69603 -0.75184,-1.43974 -1.12743,-2.1578c-0.64804,-1.23897 -1.37057,-2.44467 -2.0177,-3.68413c-0.34867,-0.66782 -0.75896,-1.32092 -0.97316,-2.0432c-0.42191,-1.42267 -0.22724,-2.51866 -0.35404,-3.93185c-0.05724,-0.63783 -0.22991,-1.26622 -0.2637,-1.90574c-0.04507,-0.85284 0.12342,-1.71689 0.02758,-2.56552c-0.09801,-0.86797 -0.4249,-1.69837 -0.60461,-2.55317c-0.16921,-0.80478 -0.29397,-1.62136 -0.44115,-2.43045c-0.74731,-4.01913 -2.22153,-9.60609 -0.56787,-13.54133c0.85497,-2.03455 2.99196,-2.80902 3.86351,-4.77932c0.47371,-1.07092 0.76203,-1.96079 1.12073,-2.83534c0.11521,-0.07905 0.23074,-0.15846 0.34601,-0.23742z" fill="#ffffff" stroke="#000000" stroke-width="3" stroke-linecap="butt"/><path d="M385.8297,-56.18771c-0.77126,-1.92211 0.16169,-4.1055 2.08379,-4.87676c1.92211,-0.77126 4.1055,0.16169 4.87676,2.08379c0.77126,1.92211 -0.16169,4.1055 -2.08379,4.87676c-1.92211,0.77126 -4.1055,-0.16169 -4.87676,-2.08379z" fill="#000000" stroke="none" stroke-width="0.5" stroke-linecap="butt"/><path d="M214.89308,-65.20197c-0.37239,-0.92807 0.55567,-1.30046 0.55567,-1.30046l0.54888,-0.15911c2.38374,-0.10094 4.78238,0.00137 7.17302,-0.05251c1.94476,0.08847 3.90511,0.11786 5.8459,0.26774c3.32788,0.25701 6.65407,0.72343 9.9725,1.08446c3.13204,0.34076 6.26159,0.70362 9.39181,1.06057c1.99524,0.22752 4.01341,0.39182 5.99993,0.68497c1.15362,0.17024 2.28978,0.44287 3.43459,0.66467c1.96348,0.38042 3.92697,0.76085 5.89045,1.14127c1.96348,0.38042 3.92719,0.75979 5.89045,1.14127c0.63307,0.12301 1.25929,0.28845 1.89902,0.37011c1.2844,0.16393 2.58501,0.15519 3.87744,0.23385c3.29798,0.20071 6.58694,0.38072 9.88976,0.47532c2.56794,0.07356 5.11484,0.32009 7.6742,0.53869c1.19405,0.102 3.07743,0.19736 4.21559,0.57743c0.53216,0.1777 0.98147,0.5439 1.47222,0.81584c0,0 0.87057,0.49207 0.37849,1.36262c-0.49207,0.87057 -1.36262,0.37849 -1.36262,0.37849c-0.38862,-0.2251 -0.73987,-0.5331 -1.16586,-0.67529c-0.83659,-0.27928 -2.88025,-0.39608 -3.70748,-0.46629c-2.52197,-0.21406 -5.03132,-0.46032 -7.56159,-0.53229c-3.32429,-0.09456 -6.63479,-0.27618 -9.95419,-0.4782c-0.05239,-0.00319 -3.96485,-0.2406 -4.00744,-0.24603c-0.68288,-0.08711 -1.35204,-0.26015 -2.02796,-0.39075c-1.96368,-0.37939 -3.92697,-0.76085 -5.89045,-1.14127c-1.96348,-0.38042 -3.92697,-0.76085 -5.89045,-1.14127c-1.11936,-0.21687 -2.22991,-0.48522 -3.35791,-0.65136c-1.30628,-0.19241 -2.6238,-0.29845 -3.93567,-0.44805c-2.64949,-0.30213 -5.299,-0.60428 -7.94847,-0.9064c-3.12676,-0.35657 -6.2564,-0.68819 -9.38497,-1.02854c-1.31514,-0.14308 -2.6264,-0.32786 -3.94539,-0.42973c-1.89738,-0.14654 -3.81361,-0.17419 -5.71486,-0.26192c-2.35364,0.05442 -4.71755,-0.05254 -7.06382,0.05078l0.10967,0.01712c0,0 -0.92807,0.37239 -1.30046,-0.55567z" fill="#000000" stroke="none" stroke-width="0.5" stroke-linecap="butt"/><path d="M360.72348,-186.63741c0.72785,0.68573 0.04212,1.41359 0.04212,1.41359l-0.57754,0.61301c-3.65409,3.87855 -7.29665,7.76211 -10.88097,11.70533c-0.43211,0.47395 -0.8932,0.92301 -1.29633,1.42184c-0.66848,0.82717 -1.17352,1.77401 -1.76148,2.66024c-1.10569,1.66657 -2.21137,3.33313 -3.31707,4.99971c-1.47424,2.22209 -2.94851,4.44418 -4.42276,6.66627c-0.72638,1.09487 -1.51822,2.14888 -2.18057,3.28364c-0.31649,0.54224 -0.56645,1.12068 -0.85006,1.68081l-1.80847,3.56783c-1.8043,3.55962 -3.60826,7.11942 -5.41325,10.67869c-0.79746,1.81647 -1.59529,3.63277 -2.3931,5.44907c-0.52548,1.1963 -1.15145,2.35304 -1.57938,3.58761c-0.42793,1.23457 -0.65215,2.53057 -0.97977,3.79545c-0.50228,1.93913 -0.98369,3.88549 -1.50729,5.81897c-0.86641,3.19937 -1.92794,6.36163 -2.71006,9.58228c-0.24061,0.99083 -0.343,2.01021 -0.51519,3.01519c-0.45033,2.62837 -0.90067,5.25673 -1.35102,7.8851c-2.0179,11.77745 -4.01763,23.55819 -6.07122,35.32948c0,0 -0.17186,0.98512 -1.15698,0.81326c-0.98512,-0.17186 -0.81326,-1.15698 -0.81326,-1.15698c2.05324,-11.76931 4.05262,-23.54805 6.07018,-35.32352c0.45033,-2.62837 0.90067,-5.25673 1.35102,-7.8851c0.17815,-1.03972 0.28792,-2.09361 0.53581,-3.11895c0.78535,-3.24852 1.85657,-6.43741 2.73025,-9.66357c0.52168,-1.92639 1.00122,-3.86564 1.50164,-5.79766c0.02587,-0.09989 1.00883,-3.8989 1.02618,-3.94899c0.01736,-0.05006 1.59644,-3.64245 1.63794,-3.73693c0.80522,-1.83317 1.61044,-3.66634 2.41602,-5.49934c1.81196,-3.5764 3.62492,-7.15226 5.43755,-10.72833c0.60283,-1.18928 1.20514,-2.37882 1.80847,-3.56783c0.30168,-0.59455 0.56975,-1.20743 0.90579,-1.78325c0.01975,-0.03385 2.20001,-3.31905 2.24219,-3.38265c1.47424,-2.22209 2.94851,-4.44418 4.42276,-6.66627c1.10569,-1.66657 2.21137,-3.33313 3.31707,-4.99971c0.61594,-0.92839 1.15132,-1.91591 1.85024,-2.78357c0.43408,-0.53888 0.92945,-1.02539 1.39419,-1.53807c3.59231,-3.95201 7.24297,-7.84432 10.90522,-11.73152l0.57754,-0.61301c0,0 0.68573,-0.72785 1.41359,-0.04212z" fill="#000000" stroke="none" stroke-width="0.5" stroke-linecap="butt"/><path d="M262.94302,-35.42266c0.61763,-0.42315 1.25967,-0.817 1.85421,-1.27198c0.56609,-0.43321 1.02234,-1.01394 1.62628,-1.39258c0.65781,-0.41242 1.41815,-0.63882 2.12484,-0.96035c0.73284,-0.33344 1.45073,-0.70855 2.19805,-1.0082c1.52855,-0.61289 3.11719,-1.08178 4.67302,-1.62166c0.01033,-0.00358 4.68696,-1.62714 4.70991,-1.6356c0.50304,-0.18552 0.98419,-0.43559 1.49398,-0.60167c0.5882,-0.19162 1.20332,-0.29917 1.79763,-0.47084c0.77139,-0.22284 1.51774,-0.55051 2.30382,-0.71411c0.77769,-0.16186 1.58246,-0.17227 2.37203,-0.25933c1.46006,-0.16098 2.92476,-0.33289 4.38339,-0.50639c2.3795,0.24604 4.80622,0.54141 7.14482,1.06177c0.79315,0.17649 1.56955,0.43361 2.35288,0.64955c2.10194,0.57944 2.6158,0.65221 4.63103,1.46893c0.75773,0.30709 1.49442,0.67197 2.24015,1.00716c0.76009,0.34165 1.52289,0.68561 2.28355,1.02595c0.38616,0.17279 0.8005,0.29523 1.16162,0.51563c0.67711,0.41325 1.29592,0.92083 1.94334,1.37921c1.28871,0.91243 2.56282,1.85733 3.813,2.82189c0.55397,0.42742 1.13687,0.82401 1.6648,1.28325c0.61163,0.53204 1.1683,1.12899 1.75321,1.6903c0.56499,0.5422 1.20445,1.01944 1.70091,1.625c0.93293,1.13801 1.61705,2.73687 2.14957,4.08152c0.60159,1.51906 1.17111,3.06037 1.65348,4.62141c0.37748,1.22158 0.64885,2.47906 0.97525,3.71525c0.59207,4.9128 0.84184,9.89235 1.20702,14.82697c0.12168,1.6442 0.20576,3.29817 0.25927,4.94599c0.02462,0.75841 0.10874,1.51996 0.07551,2.27803c-0.02681,0.6117 -0.19113,1.21253 -0.25664,1.8213c-0.07104,0.66024 -0.01431,1.33952 -0.15461,1.98858c-0.46694,2.1603 -0.86955,2.15928 -2.06904,4.0098c-0.43459,0.67047 -0.79493,1.39199 -1.2467,2.051c-0.36738,0.53587 -0.85984,0.98422 -1.20947,1.53182c-0.41098,0.64373 -0.70972,1.3559 -1.06605,2.03143c-0.31398,0.59525 -0.71193,1.15506 -0.94846,1.7851c-0.19847,0.52864 -0.13584,1.1359 -0.34667,1.65974c-0.5844,1.45199 -1.61394,2.69695 -2.69201,3.86137c-0.35637,0.05887 -0.7134,0.12191 -1.07064,0.17056c-1.45487,0.19812 -2.93059,0.30468 -4.36785,0.60495c-1.25187,0.26154 -2.46183,0.72303 -3.7152,0.97733c-0.82889,0.16818 -1.68265,0.22935 -2.50332,0.43395c-0.83819,0.20899 -1.64581,0.53724 -2.46676,0.80609c-1.29922,0.42545 -2.62101,0.80352 -3.9021,1.28085c-1.40475,0.52341 -2.76977,1.16587 -4.17958,1.67543c-0.9435,0.34099 -1.91602,0.60979 -2.86705,0.92879c-0.63974,-0.19018 -1.28938,-0.36028 -1.90644,-0.61285c-0.59066,-0.24175 -1.10637,-0.64789 -1.69391,-0.89714c-0.29928,-0.12695 -3.81379,-1.2787 -4.18601,-1.42225c-0.76261,-0.2941 -1.50587,-0.64442 -2.25765,-0.96517c-0.7374,-0.3146 -1.50503,-0.5727 -2.21622,-0.94278c-0.71119,-0.37006 -1.36384,-0.84927 -2.04425,-1.27328c-0.51916,-0.32119 -1.06915,-0.6014 -1.55979,-0.96467c-0.06263,-0.04637 -2.61349,-2.20826 -3.02102,-2.54365c-1.81307,-1.49215 -3.89868,-2.8853 -5.45312,-4.66457c-0.78599,-0.89965 -2.08696,-3.00214 -2.71865,-3.98308c-0.68795,-1.0683 -1.36451,-2.15067 -2.06726,-3.2093c-0.45054,-0.67869 -0.95112,-1.32945 -1.36831,-2.02913c-0.415,-0.69603 -0.75184,-1.43974 -1.12743,-2.1578c-0.64804,-1.23897 -1.37057,-2.44467 -2.0177,-3.68413c-0.34867,-0.66782 -0.75896,-1.32092 -0.97316,-2.0432c-0.42191,-1.42267 -0.22724,-2.51866 -0.35404,-3.93185c-0.05724,-0.63783 -0.22991,-1.26622 -0.2637,-1.90574c-0.04507,-0.85284 0.12342,-1.71689 0.02758,-2.56552c-0.09801,-0.86797 -0.4249,-1.69837 -0.60461,-2.55317c-0.16921,-0.80478 -0.29397,-1.62136 -0.44115,-2.43045c-0.74731,-4.01913 -2.22153,-9.60609 -0.56787,-13.54133c0.85497,-2.03455 2.99196,-2.80902 3.86351,-4.77932c0.47371,-1.07092 0.76203,-1.96079 1.12073,-2.83534c0.11521,-0.07905 0.23074,-0.15846 0.34601,-0.23742z" fill="#ffffff" stroke="#000000" stroke-width="3" stroke-linecap="butt"/><path d="M317.66148,-19.56639c-0.77126,-1.92211 0.16169,-4.1055 2.08379,-4.87676c1.92211,-0.77126 4.1055,0.16169 4.87676,2.08379c0.77126,1.92211 -0.16169,4.1055 -2.08379,4.87676c-1.92211,0.77126 -4.1055,-0.16169 -4.87676,-2.08379z" fill="#000000" stroke="none" stroke-width="0.5" stroke-linecap="butt"/><path d="M328.84427,82.90151c-1.39211,0.5586 -1.9507,-0.83352 -1.9507,-0.83352l-0.38384,-0.95659c-4.4029,-10.97279 -8.73303,-21.91344 -12.60201,-33.08729c-0.11489,-0.49121 -1.25775,-5.36518 -1.27775,-5.50894c-0.11489,-0.82606 -0.04654,-1.66738 -0.06723,-2.50113c-0.06624,-2.66884 -0.17695,-3.54293 0.16252,-6.2168c0.12929,-1.01837 0.36562,-2.0203 0.55028,-3.0301c0.18753,-1.02547 0.30093,-2.06759 0.56626,-3.07571c0.2197,-0.83477 0.58825,-1.62306 0.88387,-2.43407c0.34704,-0.95208 0.66875,-1.91386 1.0441,-2.85513c0.39672,-0.99482 0.75848,-2.01053 1.27116,-2.95084c0.36131,-0.66267 0.8874,-1.22117 1.3349,-1.82897c0.62447,-0.84819 1.18119,-1.75176 1.88093,-2.53899c0.52779,-0.59378 1.18696,-1.05622 1.78231,-1.58226c0.76733,-0.678 1.5061,-1.39019 2.30565,-2.02985c0.78613,-0.62894 1.64575,-1.16094 2.44609,-1.7717c2.05866,-1.57098 3.91816,-3.40295 5.97121,-4.98154c0.79978,-0.61496 1.6559,-1.15323 2.471,-1.74772c1.21856,-0.88878 2.38339,-1.84898 3.57532,-2.77317c0.07807,-0.0524 5.02867,-3.37637 5.0936,-3.41504c0.04374,-0.02604 5.40316,-2.83773 5.45211,-2.86033c0.03631,-0.01676 4.91489,-1.9746 5.23546,-2.10283c0.97017,-0.38809 1.91277,-0.85467 2.91155,-1.16173c0.86166,-0.2649 1.76532,-0.36638 2.64838,-0.54765c2.19357,-0.45025 3.91956,-0.89259 6.17916,-0.95916c0.1093,-0.00321 5.89354,0.31045 6.09129,0.31884c1.57577,0.06671 3.15459,0.04138 4.73026,0.11074c2.48659,0.10944 4.98133,0.41037 7.4569,0.65755c1.05115,0.10496 2.11772,0.10925 3.15299,0.31938c0.85722,0.17398 1.66105,0.54888 2.49068,0.82605c0.96776,0.3233 1.9483,0.61126 2.90148,0.97534c0.96394,0.36819 1.89679,0.81315 2.84519,1.21972c0.11208,0.05431 5.42278,2.62693 5.50508,2.6709c0.48844,0.26097 0.93738,0.58991 1.40554,0.8857c0.86336,0.54552 1.74381,1.06498 2.589,1.63824c0.51637,0.35022 0.99505,0.75303 1.49231,1.12993c1.41901,1.07544 2.83058,2.16101 4.22612,3.26673c0.0449,0.03557 4.71183,3.73319 4.73496,3.7525c2.83256,2.3641 5.53506,4.92388 8.17514,7.49952c1.10008,1.07323 2.14518,2.20141 3.21703,3.30285c1.23348,1.26753 3.43044,3.349 4.22052,4.9395c0.39233,0.7898 0.37896,1.72258 0.56844,2.58387c0,0 0.30056,1.46957 -1.16902,1.77014c-1.46957,0.30056 -1.77014,-1.16902 -1.77014,-1.16902c-0.11839,-0.64405 -0.06339,-1.3459 -0.35516,-1.93216c-0.50971,-1.02415 -2.93843,-3.37552 -3.64382,-4.09923c-1.05905,-1.08656 -2.08939,-2.20177 -3.17561,-3.26115c-2.58235,-2.51855 -5.22462,-5.02369 -7.99499,-7.33555c-1.52492,-1.27253 -3.11377,-2.46643 -4.67045,-3.69991c-1.37884,-1.09256 -2.77419,-2.1643 -4.17568,-3.22764c-0.4632,-0.35143 -0.90766,-0.72891 -1.38903,-1.05501c-0.81031,-0.54895 -1.65545,-1.04461 -2.48264,-1.56778c-0.42058,-0.26601 -0.82143,-0.56577 -1.26066,-0.79972c-1.73027,-0.92159 -3.52908,-1.70832 -5.293,-2.56373c-0.88959,-0.38196 -1.76417,-0.80096 -2.66879,-1.14587c-0.91539,-0.34902 -1.85834,-0.6209 -2.78657,-0.93416c-0.72196,-0.24365 -1.41701,-0.58605 -2.16396,-0.73654c-0.92506,-0.18638 -1.87899,-0.1766 -2.81827,-0.26727c-2.43207,-0.23479 -4.87938,-0.5407 -7.32156,-0.64734c-1.5612,-0.06818 -3.12552,-0.04278 -4.68683,-0.10877c-1.00656,-0.04254 -2.01211,-0.10592 -3.01809,-0.16019c-0.95796,-0.05168 -1.91473,-0.18359 -2.87372,-0.15766c-1.99503,0.05397 -3.71913,0.50382 -5.66318,0.89958c-0.79533,0.1619 -1.61111,0.24274 -2.38675,0.48177c-0.91271,0.28129 -1.7709,0.71597 -2.6569,1.07263c-1.69754,0.68334 -3.43408,1.27581 -5.09561,2.04258c-0.88495,0.40837 -1.72525,0.90727 -2.58834,1.35998c-0.86173,0.452 -1.75002,0.85642 -2.58616,1.35419c-1.68059,1.00049 -3.24752,2.18056 -4.87213,3.26956c-1.18171,0.91737 -2.33706,1.8698 -3.54565,2.75147c-0.80072,0.58411 -1.64257,1.11177 -2.4285,1.71565c-2.0491,1.5745 -3.90417,3.40261 -5.95789,4.97122c-0.78932,0.60288 -1.63827,1.12645 -2.41419,1.74652c-0.76248,0.60934 -1.46245,1.29304 -2.19554,1.9374c-0.5167,0.45415 -1.09783,0.84309 -1.55384,1.35813c-0.62758,0.70884 -1.11591,1.52971 -1.67765,2.2918c-0.37943,0.51474 -0.84037,0.97686 -1.14586,1.53865c-0.44379,0.81617 -0.7465,1.70199 -1.08639,2.56659c-0.36099,0.91824 -0.67605,1.85389 -1.0156,2.78027c-0.26784,0.73072 -0.60909,1.43825 -0.80658,2.19101c-0.24299,0.92619 -0.3387,1.88489 -0.50989,2.82698c-0.17405,0.95777 -0.40142,1.90714 -0.52587,2.8726c-0.31929,2.47727 -0.19551,3.26273 -0.13912,5.76507c0.01648,0.7314 -0.05766,1.46986 0.04417,2.19431c0.13206,0.93955 0.43729,1.84651 0.65365,2.77031c0.17817,0.76076 0.35329,1.52221 0.52994,2.28332c3.85137,11.07353 8.13867,21.92351 12.5043,32.80341l0.38384,0.95659c0,0 0.5586,1.39211 -0.83352,1.9507z" fill="#000000" stroke="none" stroke-width="0.5" stroke-linecap="butt"/></g></g></g></svg>