<svg version="1.1" xmlns="http://www.w3.org/2000/svg" xmlns:xlink="http://www.w3.org/1999/xlink" width="2878.25006" height="1619.57958" viewBox="0,0,2878.25006,1619.57958"><g transform="translate(1119.12503,629.78979)"><g stroke-miterlimit="10"><path d="M-1119.12503,989.78979v-1619.57958h2878.25006v1619.57958z" fill="none" stroke="#000000" stroke-width="0" stroke-linecap="butt"/><g stroke-width="0"><path d="M168.09143,342.29406l28.83129,-52.41438l80.55789,-0.46797l-16.95954,52.8824z" fill="#cedce9" stroke="#000000" stroke-linecap="round"/><path d="M160.42885,339.54582c-2.78231,-0.73973 -9.40378,-1.89287 -6.50196,-3.08497c-1.58651,0.382 -3.70309,0.84839 -4.82934,0.97385c-5.33531,0.59438 -12.24973,0 -17.75522,0c-15.10386,0 -29.76748,-0.31549 -44.38795,1.18012c-6.60742,0.67592 -8.42377,-1.41139 -10.4527,1.50916c-4.1851,4.90029 -12.05916,9.27311 -17.1173,14.20628c-6.85547,6.68595 -9.51394,13.14062 -13.71662,19.8447c-4.75574,5.52096 -0.88186,16.12106 -0.88186,22.26605c0,1.64493 1.33408,4.5729 0.05991,5.78369c1.26664,0.06115 2.49005,0.11698 3.2692,0.11698c5.1786,0 10.35715,0 15.53583,0c20.59973,0 44.53385,-0.23953 64.52816,-2.89742c23.73975,-2.83542 49.46906,1.23059 73.39979,-1.31435c13.10501,-1.27641 27.39032,-0.51768 40.73346,-0.50868c6.76902,0.00455 12.56555,-1.36253 15.53578,1.18013c0.7807,0.66834 0,-1.57351 0,-2.36021c0,-1.96684 0,-3.93376 0,-5.90064c0,-11.01452 0,-22.029 0,-33.04355c0,-2.60391 -1.28359,-11.91972 1.37196,-12.92779c-0.49817,-0.01583 -1.06199,-0.04155 -1.37196,-0.05358c-2.74629,-0.10655 -4.28068,-0.02607 -6.42391,-0.83921c-3.72081,-1.41167 -16.27375,-0.34091 -21.31857,-0.34091c-19.60468,0 -39.20932,0 -58.81401,0c0,0 -4.43878,0 -4.43878,-2.36021c0,-0.09688 0.00743,-0.18976 0.02181,-0.27882c-2.12195,-0.23913 -4.26541,-0.57084 -6.44565,-1.1505zM230.10548,338.61495c11.83443,0 26.95975,-1.12053 35.04162,3.66498c4.6313,2.74225 1.57836,11.53455 1.57836,15.2171c0,11.01452 0,22.029 0,33.04352c0,1.25777 1.52888,7.49701 0,8.26089c-15.44241,7.71537 -44.54879,1.69892 -63.40575,3.95743c-23.40036,2.48854 -50.34872,-2.25357 -72.98769,1.26509c-20.60729,2.73938 -45.43368,3.03842 -66.68128,3.03842c-3.04774,0 -21.32528,1.22733 -23.30364,0c-5.67346,-3.51959 -4.43879,-6.45553 -4.43879,-10.62116c0,-7.53469 -2.51188,-16.516 1.33754,-23.75882c4.30747,-6.87117 7.32822,-13.76273 14.19836,-20.46301c2.77135,-2.70279 5.7648,-6.31811 9.34617,-8.75924c2.34347,-1.59737 6.82405,-2.89519 7.38392,-4.97164c3.79744,-5.46628 10.66001,-3.67524 18.78029,-4.59396c14.45503,-1.63543 29.4133,-1.18013 44.38795,-1.18013c5.52256,0 16.31299,-1.35148 20.20885,-0.93093c6.78186,0.73205 10.71359,3.80733 17.28661,4.72049c4.82322,0.67005 9.906,0.27341 15.53582,1.7702c0.42742,0.11367 0.85473,0.22724 1.28219,0.34091c14.81659,0 29.63318,0 44.44978,0z" fill="#000000" stroke="none" stroke-linecap="butt"/><path d="M166.93624,340.58304c-0.01439,0.08908 -0.02131,0.182 -0.02131,0.27888c0,2.36021 4.46057,2.36427 4.46057,2.36427c19.60467,0 39.31381,0.04694 58.91856,0.04694c5.04482,0 17.60916,-1.05983 21.32995,0.35187c2.14319,0.81312 3.68107,0.73661 6.42726,0.84316c0.31001,0.01202 0.87424,0.0384 1.37247,0.05424c-2.65561,1.00806 -1.35847,10.3465 -1.35847,12.95042c0,11.01452 -0.00922,22.09452 -0.00922,33.10909c0,1.96684 -0.00761,3.94331 -0.00761,5.91017c0,0.78674 0.77733,3.03207 -0.00337,2.36376c-2.97023,-2.54266 -8.77204,-1.1705 -15.54101,-1.17505c-13.34318,-0.00898 -27.66882,-0.74078 -40.77387,0.53562c-23.93073,2.54494 -49.89523,-1.49822 -73.63498,1.33724c-19.99429,2.65792 -44.02562,2.85636 -64.62544,2.85636c-5.1786,0 -10.36627,-0.00742 -15.54487,-0.00742c-0.77923,0 -2.0043,-0.0573 -3.27087,-0.11845c1.2742,-1.21077 -0.06818,-4.14712 -0.06818,-5.79202c0,-6.14504 -3.89473,-16.78599 0.86108,-22.30698c4.20264,-6.70404 6.87028,-13.20355 13.7257,-19.88945c5.05821,-4.93316 12.96554,-9.34116 17.15065,-14.24143c2.02894,-2.92055 3.85909,-0.84221 10.46648,-1.5181c14.6204,-1.49564 29.37923,-1.21321 44.48304,-1.21321c5.50534,0 12.48168,0.58847 17.81703,-0.00593c1.12613,-0.12549 3.26038,-0.59183 4.84687,-0.97382c-2.90186,1.19207 3.7459,2.34661 6.52821,3.08634c2.18036,0.57966 4.34964,0.91447 6.47158,1.15362z" fill="#484848" stroke="none" stroke-linecap="butt"/><path d="M104.70964,349.23608c0,0.79765 1.53023,1.76442 0.76752,2.39605c1.95083,0.1068 3.9131,0.33996 5.65633,0.80343c6.72107,1.78692 20.3936,8.2983 21.68278,12.60308c0.10483,0.35016 -1.79577,0.40869 -1.47387,0.71916c1.07098,1.03321 9.79901,-0.76239 10.80294,-0.46898c0.22722,0.06642 0.33882,0.16987 0.38353,0.29573c-0.04672,-0.39104 -0.08956,-0.76908 -0.08956,-1.00695c0,-0.83605 0.06214,-1.73701 -0.64101,-2.48483c-5.97697,-6.59109 -15.74243,-12.85685 -32.64987,-12.85685c0,0 -1.9952,-0.00004 -3.31037,-0.71129c-0.43859,-0.13252 -0.7796,-0.28824 -1.00823,-0.47099c-0.05878,0.45027 -0.12022,0.90862 -0.12022,1.18232zM142.43943,366.93791c0.30296,0.48324 0.21358,-0.31885 0.11291,-1.15798c-0.02107,0.36417 -0.31999,0.82773 -0.11291,1.15798zM149.73864,359.98179c5.51937,5.86966 -7.01286,14.44567 -18.39623,10.49653c-10.7403,-3.72609 -14.37725,-11.21464 -24.17904,-13.82058c-3.3114,-0.88041 -7.27922,-1.36098 -9.75295,-2.82572c-3.92006,-2.32117 -2.18236,-10.24738 5.31413,-10.24738c5.39796,0 8.05669,0.93092 13.08207,0.93092h2.21937c0,0 2.54771,0 3.78284,1.02634c13.14851,2.28219 21.58583,8.08058 27.92977,14.43985z" fill="#000000" stroke="none" stroke-linecap="butt"/><path d="M104.66514,347.97464c0.2285,0.18271 0.56976,0.33846 1.00834,0.471c1.31513,0.71127 3.31938,0.70625 3.31938,0.70625c16.90739,0 27.02535,6.40429 33.0023,12.99541c0.70318,0.74779 0.62167,1.66522 0.62167,2.50125c0,0.23787 0.03459,0.6213 0.08133,1.01236c-0.04463,-0.12594 -0.15517,-0.22998 -0.38248,-0.29642c-1.004,-0.29341 -9.80759,1.53319 -10.87857,0.50002c-0.32188,-0.31052 1.36791,-0.57628 1.26297,-0.92647c-1.28917,-4.30477 -15.02765,-10.7831 -21.74882,-12.57009c-1.74326,-0.4635 -3.71684,-0.68708 -5.66766,-0.79385c0.76269,-0.63166 -0.74934,-1.61295 -0.74934,-2.4106c0,-0.27369 0.07173,-0.73859 0.13061,-1.18881z" fill="#ffffff" stroke="none" stroke-linecap="butt"/></g><g stroke-width="0"><path d="M462.52977,376.50893l-18.23399,-53.12161l86.6115,0.4701l30.99784,52.65148z" fill="#cedce9" stroke="#000000" stroke-linecap="round"/><path d="M570.14348,373.74835c-2.34409,0.58229 -4.64862,0.9155 -6.93002,1.15571c0.01545,0.08948 0.02345,0.18278 0.02345,0.2801c0,2.37088 -4.77235,2.37088 -4.77235,2.37088c-21.0779,0 -42.15578,0 -63.23365,0c-5.42392,0 -18.92018,-1.07561 -22.92058,0.34245c-2.30429,0.81682 -3.95398,0.73599 -6.90665,0.84301c-0.33326,0.01209 -0.93946,0.03793 -1.47505,0.05382c2.85512,1.01263 1.47505,10.37059 1.47505,12.98627c0,11.06437 0,22.1287 0,33.19302c0,1.97578 0,3.95159 0,5.92732c0,0.79026 -0.83936,3.04225 0,2.3709c3.19342,-2.55416 9.42554,-1.18092 16.70324,-1.18549c14.34584,-0.00904 29.70463,-0.77121 43.79444,0.51098c25.72904,2.55645 53.3918,-1.52796 78.91549,1.32029c21.4968,2.66989 47.22949,2.91051 69.37721,2.91051c5.56784,0 11.13552,0 16.70329,0c0.8377,0 2.15306,-0.05607 3.51488,-0.1175c-1.36992,-1.21625 0.06441,-4.15749 0.06441,-5.80984c0,-6.1728 4.16498,-16.82085 -0.94813,-22.36678c-4.51849,-6.7344 -7.37674,-13.21827 -14.74737,-19.93447c-5.43824,-4.95547 -13.904,-9.34807 -18.4036,-14.27054c-2.18139,-2.93378 -4.13424,-0.83702 -11.23817,-1.51599c-15.71915,-1.50238 -31.48467,-1.18545 -47.72353,-1.18545c-5.91921,0 -13.35322,0.59706 -19.08946,0c-1.21087,-0.12603 -3.4865,-0.59454 -5.19225,-0.97827c3.1199,1.19751 -3.99917,2.35585 -6.99055,3.09893zM495.23066,372.81325c15.93002,0 31.86002,0 47.79002,0c0.45956,-0.11418 0.91901,-0.22827 1.37854,-0.34244c6.05288,-1.50356 11.51762,-1.10513 16.70328,-1.77819c7.06696,-0.9173 11.29413,-4.00649 18.58562,-4.74185c4.18862,-0.42244 15.78991,0.93515 21.72746,0.93515c16.09994,0 32.18225,-0.45735 47.72353,1.18548c8.7305,0.92289 16.10876,-0.87625 20.19156,4.61476c0.60194,2.08585 5.4192,3.38953 7.93879,4.99414c3.85051,2.45218 7.06889,6.08383 10.0485,8.79886c7.38642,6.73057 10.63418,13.6533 15.26531,20.55556c4.13869,7.27558 1.43806,16.29752 1.43806,23.8663c0,4.18448 1.32745,7.1337 -4.77235,10.6692c-2.12703,1.23287 -21.77806,0 -25.05482,0c-22.84429,0 -49.53628,-0.3004 -71.69214,-3.05217c-24.34021,-3.53457 -53.31363,1.22899 -78.47244,-1.2708c-20.27402,-2.26871 -51.56763,3.77494 -68.17045,-3.97533c-1.64376,-0.76734 0,-7.0348 0,-8.29826c0,-11.06435 0,-22.12867 0,-33.19301c0,-3.69921 -3.28235,-12.53127 1.69697,-15.28593c8.68919,-4.80715 24.95113,-3.68155 37.67487,-3.68155z" fill="#000000" stroke="none" stroke-linecap="butt"/><path d="M563.1469,374.79025c2.28138,-0.24023 4.61368,-0.57655 6.95789,-1.15884c2.99138,-0.74307 10.13871,-1.90284 7.01878,-3.10029c1.70571,0.38373 4.00033,0.85218 5.21109,0.97824c5.73627,0.59708 13.23687,0.00594 19.15591,0.00594c16.23879,0 32.1067,-0.2837 47.82576,1.21869c7.10391,0.67897 9.07159,-1.40879 11.25299,1.52497c4.49961,4.92245 13.00114,9.35037 18.43945,14.30586c7.37059,6.71614 10.23868,13.24505 14.75714,19.97942c5.11318,5.54596 0.92579,16.23504 0.92579,22.40788c0,1.65235 -1.44325,4.60198 -0.0733,5.81822c-1.36175,0.06142 -2.67888,0.11899 -3.51667,0.11899c-5.56774,0 -11.14524,0.00745 -16.71301,0.00745c-22.14782,0 -47.98501,-0.19933 -69.48179,-2.86927c-25.52371,-2.8483 -53.43934,1.21315 -79.16837,-1.3433c-14.08984,-1.28217 -29.49201,-0.54706 -43.83787,-0.53805c-7.27762,0.00457 -13.51542,-1.3738 -16.70885,1.18036c-0.83936,0.67134 -0.00362,-1.58415 -0.00362,-2.37445c0,-1.97575 -0.00818,-3.96117 -0.00818,-5.93691c0,-11.06437 -0.00992,-22.19453 -0.00992,-33.25885c0,-2.61568 1.39461,-11.99637 -1.46056,-13.009c0.53567,-0.01591 1.14229,-0.04243 1.47561,-0.05448c2.95256,-0.10702 4.60601,-0.03017 6.91025,-0.84698c4.00039,-1.41807 17.50889,-0.35346 22.93281,-0.35346c21.07796,0 42.26818,-0.04715 63.34606,-0.04715c0,0 4.79577,-0.00408 4.79577,-2.37496c0,-0.09731 -0.00744,-0.19066 -0.02291,-0.28014z" fill="#484848" stroke="none" stroke-linecap="butt"/><path d="M630.04986,383.48218c0,-0.27494 -0.06607,-0.73535 -0.12926,-1.18766c-0.24581,0.18358 -0.61244,0.33999 -1.08399,0.4731c-1.414,0.71447 -3.55913,0.71451 -3.55913,0.71451c-18.17797,0 -28.67728,6.2941 -35.10339,12.91501c-0.75599,0.75122 -0.68917,1.65623 -0.68917,2.49606c0,0.23895 -0.04606,0.6187 -0.09629,1.01151c0.04807,-0.12642 0.16806,-0.23032 0.41235,-0.29706c1.07939,-0.29474 10.4633,1.50896 11.61475,0.47109c0.34607,-0.31188 -1.69734,-0.37066 -1.58463,-0.7224c1.38606,-4.32425 16.08601,-10.86511 23.31215,-12.66011c1.87423,-0.46555 3.98397,-0.69977 6.08139,-0.80706c-0.82004,-0.63448 0.82521,-1.60564 0.82521,-2.40688zM589.3634,400.101c-0.10823,0.84293 -0.20433,1.64865 0.1214,1.16322c0.22264,-0.33175 -0.09874,-0.79741 -0.1214,-1.16322zM581.6371,394.27659c6.82067,-6.38803 15.89201,-12.21266 30.02858,-14.50516c1.32796,-1.03098 4.06712,-1.03098 4.06712,-1.03098h2.38616c5.40301,0 8.26154,-0.93513 14.06513,-0.93513c8.05982,0 9.92809,7.96206 5.71346,10.29371c-2.6596,1.47136 -6.92562,1.95411 -10.48585,2.8385c-10.53835,2.61773 -14.44859,10.14016 -25.99598,13.8831c-12.23879,3.96702 -25.71277,-4.64781 -19.77864,-10.54401z" fill="#000000" stroke="none" stroke-linecap="butt"/><path d="M630.09794,382.21521c0.06331,0.45226 0.14043,0.91925 0.14043,1.1942c0,0.80125 -1.62565,1.78699 -0.80565,2.42151c-2.0974,0.10724 -4.21931,0.33183 -6.09355,0.79742c-7.22625,1.79506 -21.99713,8.30271 -23.38317,12.62694c-0.11283,0.35177 1.70396,0.61874 1.35787,0.93066c-1.15146,1.03784 -10.6166,-0.79702 -11.69604,-0.50228c-0.24439,0.06675 -0.36323,0.17127 -0.41122,0.29777c0.05027,-0.39283 0.08744,-0.77801 0.08744,-1.01693c0,-0.8398 -0.08765,-1.76138 0.66838,-2.51255c6.42609,-6.62094 17.30438,-13.05421 35.48229,-13.05421c0,0 2.15486,0.00505 3.56883,-0.70944c0.47154,-0.13315 0.83844,-0.2896 1.08412,-0.47313z" fill="#ffffff" stroke="none" stroke-linecap="butt"/></g><g><path d="M148.49935,288.53005l77.37245,-172.48668l208.62554,87.60436l-68.5682,165.27013z" fill="#a18c5d" stroke="#000000" stroke-width="1" stroke-linecap="round"/><path d="M183.50445,302.34873l64.92245,-155.8371l23.299,-3.02545l41.02864,10.70339l35.22542,14.72812l45.97503,29.53171l7.66251,4.92195l-62.71131,156.37978z" fill="#f6fffe" stroke="#000000" stroke-width="1" stroke-linecap="round"/><path d="M200.79876,308.55751l56.75233,-143.45942l24.37641,1.104l32.42851,9.85985l32.81813,13.69377l25.93219,19.29022l-56.45682,142.77161z" fill="#3e433f" stroke="#000000" stroke-width="1" stroke-linecap="round"/><path d="M321.2276,344.00726l-80.77578,-25.33742l55.91412,-140.56046l76.10098,31.47658z" fill="#5e685f" stroke="#000000" stroke-width="1" stroke-linecap="round"/><path d="M325.75996,332.51087l-68.49217,-21.68902l48.61729,-115.99323l63.42776,23.99425l-44.63031,109.55856z" fill="#d48246" stroke="#000000" stroke-width="1" stroke-linecap="round"/><path d="M445.55043,209.21179l-251.44091,-106.00109l-0.43,-13.22123l261.11843,110.97406z" fill="#2a3531" stroke="#000000" stroke-width="1" stroke-linecap="round"/><path d="M497.13953,73.26539l4.67745,-8.98974l216.70463,106.96394l-1.29294,3.0091l-110.16854,280.10264l-240.55961,-87.47442l66.95168,-162.45607l2.89895,0.83821l8.44971,4.03803l10.62312,-7.65719l-16.01547,-7.28884l-172.39259,-72.85074l58.51222,-133.33327z" fill="#fefefe" stroke="#000000" stroke-width="1" stroke-linecap="round"/><path d="M414.36688,384.1848l61.42448,-146.74796l150.97414,62.01818l-57.43749,140.31329z" fill="#626f65" stroke="#000000" stroke-width="1" stroke-linecap="round"/><path d="M452.56464,215.64259l202.46485,79.66121l-8.95732,13.26161l-191.89808,-79.60221z" fill="#2a3531" stroke="#000000" stroke-width="1" stroke-linecap="round"/><path d="M611.83008,293.44504l-38.52357,96.29427l-120.5176,-45.67263l39.8051,-100.22493z" fill="#345367" stroke="#000000" stroke-width="1" stroke-linecap="round"/><path d="M498.12287,72.87311l-205.88523,-101.09296l-4.16187,-16.86166l191.48721,98.57296l0.9456,-12.63018l273.66822,132.25459l-18.39034,9.61587l-30.55328,-18.01668l-203.47795,-100.0586z" fill="#1c1e19" stroke="#000000" stroke-width="1" stroke-linecap="round"/><path d="M473.22914,59.93624l-21.77246,52.56811l-108.22601,-50.57598l24.77082,-52.90935z" fill="#5c6957" stroke="#000000" stroke-width="1" stroke-linecap="round"/><path d="M447.83167,46.98661l-23.93791,55.71158l-51.48273,-26.19476l24.47793,-55.07214z" fill="#345367" stroke="#000000" stroke-width="1" stroke-linecap="round"/><path d="M534.70577,176.26287c1.2334,0.55669 2.5092,1.02248 3.73918,1.58725c1.21799,0.55927 2.4132,1.20054 3.6084,1.80707c0.71591,0.36331 1.52246,0.70477 2.20931,1.12039c0.70231,0.42499 1.32525,0.99935 2.00882,1.45387c1.05323,0.70032 2.21439,1.23107 3.27178,1.92507c0.4758,0.31228 0.93184,0.65329 1.38141,1.00259c-0.14549,-0.07816 -0.29395,-0.14742 -0.45294,-0.18378c-0.44257,-0.10121 -0.91442,0.02696 -1.36267,-0.04501c-0.50173,-0.08055 -0.98051,-0.27014 -1.47078,-0.40377c-1.51348,-0.41254 -3.08735,-0.69523 -4.58219,-1.17087c-0.41994,-0.13363 -0.84303,-0.35551 -1.24812,-0.52899c-0.53826,-0.23053 -1.13387,-0.42608 -1.64239,-0.71643c-1.10469,-0.63077 -1.87102,-1.37376 -2.67364,-2.33203c-0.40833,-0.48751 -0.73454,-1.04545 -1.14517,-1.53104c-0.37123,-0.43898 -0.85638,-0.78123 -1.19164,-1.24828c-0.11292,-0.1573 -0.26902,-0.41901 -0.44936,-0.73597z" fill="#ffffff" stroke="none" stroke-width="0.5" stroke-linecap="butt"/><path d="M608.98764,121.81797c0.73566,0.139 1.46779,0.31597 2.20972,0.41615c0.70642,0.09538 1.43985,0.00884 2.13432,0.16955c0.75642,0.17504 1.45338,0.554 2.1799,0.82781c0.7534,0.28394 1.52578,0.52788 2.26546,0.84592c1.51292,0.65052 2.96621,1.44523 4.44666,2.1666c0.00983,0.00479 4.46038,2.17261 4.48256,2.1829c0.48643,0.2255 1.00315,0.38994 1.48057,0.63394c0.55085,0.28153 1.06113,0.64147 1.60216,0.94141c0.70224,0.3893 1.46109,0.68688 2.13173,1.12839c0.66348,0.4368 1.23877,0.99965 1.85764,1.49765c1.1444,0.9209 2.29981,1.83737 3.45207,2.74841c1.50484,1.85957 3.00805,3.78741 4.28967,5.81159c0.43466,0.68652 0.80038,1.41806 1.20016,2.12546c1.07275,1.89819 1.38381,2.31362 2.22725,4.31782c0.31713,0.75358 0.57847,1.53304 0.86723,2.29795c0.29431,0.77964 0.5889,1.56283 0.88454,2.34196c0.15008,0.39554 0.35572,0.77552 0.45439,1.18691c0.18502,0.77138 0.26207,1.56801 0.39417,2.3502c0.26293,1.55697 0.49256,3.12652 0.69137,4.69298c0.08809,0.69413 0.21843,1.38699 0.2656,2.08513c0.05465,0.80881 0.02452,1.62448 0.03958,2.43501c0.01454,0.78293 0.12765,1.57279 0.04894,2.35188c-0.14796,1.46408 -0.79803,3.07708 -1.37497,4.40328c-0.65177,1.49822 -1.34193,2.98941 -2.10758,4.43278c-0.59915,1.1295 -1.29861,2.20915 -1.94415,3.31277c-3.06305,3.88637 -6.41496,7.57731 -9.65358,11.31832c-1.0791,1.24649 -2.19165,2.47324 -3.32142,3.67399c-0.51998,0.55264 -1.0002,1.14965 -1.56077,1.66106c-0.45233,0.41267 -0.99399,0.72024 -1.47155,1.10342c-0.51793,0.41558 -0.95919,0.93513 -1.51807,1.29376c-1.86015,1.19364 -2.14354,0.90766 -4.30114,1.36366c-0.78173,0.16522 -1.54723,0.41907 -2.33297,0.56403c-0.63893,0.11785 -1.30412,0.08532 -1.93884,0.22403c-0.74612,0.16308 -1.46153,0.45397 -2.19162,0.67821c-0.64332,0.19759 -1.32079,0.31068 -1.93411,0.5877c-0.51461,0.23243 -0.90068,0.70534 -1.42061,0.92562c-1.44118,0.61058 -3.0498,0.75966 -4.6356,0.81753c-0.29319,-0.21096 -0.58981,-0.41944 -0.87638,-0.63822c-1.16705,-0.89101 -2.28394,-1.8614 -3.51093,-2.66785c-1.06873,-0.70242 -2.24955,-1.23405 -3.31421,-1.94265c-0.70409,-0.46861 -1.34992,-1.03036 -2.07401,-1.46745c-0.73957,-0.4464 -1.54207,-0.78699 -2.31188,-1.17893c-1.21828,-0.6203 -2.41891,-1.29004 -3.66116,-1.86088c-1.36216,-0.62595 -2.78063,-1.13973 -4.13654,-1.77904c-0.90741,-0.42787 -1.78415,-0.92724 -2.6813,-1.37596c-0.3167,-0.58748 -0.65462,-1.16781 -0.91112,-1.78325c-0.24553,-0.5891 -0.32169,-1.2411 -0.55971,-1.83328c-0.12125,-0.30163 -1.78532,-3.60454 -1.94628,-3.96957c-0.32978,-0.74787 -0.60607,-1.52171 -0.90933,-2.28071c-0.29747,-0.74448 -0.6563,-1.4705 -0.89596,-2.23556c-0.23967,-0.76504 -0.3607,-1.56563 -0.54043,-2.34694c-0.13879,-0.5945 -0.32837,-1.18192 -0.41722,-1.78591c-0.01134,-0.0771 -0.27967,-3.41006 -0.32962,-3.93549c-0.22222,-2.3376 -0.7069,-4.79843 -0.54318,-7.1554c0.08277,-1.19176 0.65438,-3.59723 0.90363,-4.73703c0.27145,-1.24131 0.56091,-2.48448 0.81506,-3.72946c0.16293,-0.79816 0.27077,-1.61206 0.47211,-2.40141c0.2003,-0.78521 0.48954,-1.5487 0.73326,-2.32154c0.42054,-1.33347 0.76494,-2.69625 1.18646,-4.02942c0.22712,-0.71831 0.40033,-1.46989 0.76093,-2.13136c0.71027,-1.30289 1.62419,-1.93838 2.53599,-3.02548c0.41153,-0.49066 0.73491,-1.05645 1.16419,-1.53168c0.57246,-0.63377 1.30356,-1.12413 1.83721,-1.7909c0.54582,-0.68195 0.9035,-1.49956 1.38234,-2.23011c0.4508,-0.68781 0.94133,-1.35245 1.41074,-2.02769c2.32031,-3.36571 5.23851,-8.35285 9.1937,-9.95821c2.04488,-0.82997 4.10164,0.13762 6.1127,-0.63526c1.09307,-0.42009 1.92703,-0.84377 2.7998,-1.20677c0.13731,0.02585 0.2751,0.05166 0.41239,0.07762z" fill="#ffffff" stroke="#000000" stroke-width="3" stroke-linecap="butt"/><path d="M635.56934,172.61748c0.81761,-1.90286 3.02297,-2.78261 4.92582,-1.96501c1.90286,0.81761 2.78261,3.02297 1.96501,4.92582c-0.81761,1.90286 -3.02297,2.78261 -4.92582,1.96501c-1.90286,-0.81761 -2.78261,-3.02297 -1.96501,-4.92582z" fill="#000000" stroke="none" stroke-width="0.5" stroke-linecap="butt"/><path d="M521.32952,45.14259c0.39478,-0.91877 1.31354,-0.524 1.31354,-0.524l0.50007,0.27662c1.75368,1.61772 3.37386,3.38943 5.09907,5.04524c1.3097,1.44035 2.67225,2.85006 3.93564,4.33093c2.16632,2.53927 4.18308,5.22512 6.26903,7.8311c1.96878,2.45961 3.92015,4.93305 5.87617,7.4028c1.2468,1.57424 2.55457,3.12012 3.74871,4.7345c0.69347,0.93751 1.30207,1.9349 1.95279,2.90255c1.11605,1.65964 2.2321,3.31929 3.34815,4.97893c1.11605,1.65964 2.23301,3.3187 3.34815,4.97893c0.35959,0.53535 0.68428,1.0958 1.07787,1.60669c0.79023,1.02572 1.71424,1.94107 2.57055,2.91231c2.18511,2.47835 4.37853,4.93571 6.64224,7.34261c1.76003,1.87137 3.38265,3.8499 5.03386,5.81754c0.77035,0.918 2.03185,2.31972 2.56573,3.39435c0.24963,0.50245 0.30724,1.07922 0.46087,1.61883c0,0 0.2657,0.96407 -0.69836,1.22975c-0.96407,0.2657 -1.22975,-0.69836 -1.22975,-0.69836c-0.11475,-0.4342 -0.14439,-0.90042 -0.34426,-1.30259c-0.39249,-0.78983 -1.7519,-2.32025 -2.28592,-2.95591c-1.62804,-1.93795 -3.22436,-3.88968 -4.95893,-5.73324c-2.27889,-2.42209 -4.48636,-4.89584 -6.68566,-7.3903c-0.03471,-0.03937 -2.62745,-2.979 -2.65365,-3.01301c-0.42018,-0.54531 -0.76978,-1.14154 -1.15423,-1.71262c-1.11692,-1.65905 -2.2321,-3.31929 -3.34815,-4.97893c-1.11605,-1.65964 -2.2321,-3.31929 -3.34815,-4.97893c-0.63625,-0.94614 -1.22981,-1.92237 -1.9081,-2.83883c-0.78549,-1.06132 -1.6401,-2.06965 -2.45987,-3.10472c-1.65563,-2.09045 -3.31125,-4.18093 -4.96687,-6.27136c-1.95385,-2.46703 -3.92742,-4.91849 -5.89404,-7.37535c-0.82669,-1.03278 -1.6211,-2.09225 -2.47971,-3.09868c-1.23512,-1.44776 -2.56777,-2.82498 -3.84729,-4.23398c-1.69948,-1.62922 -3.29186,-3.3796 -5.02078,-4.96909l0.06526,0.08979c0,0 -0.91877,-0.39478 -0.524,-1.31354z" fill="#000000" stroke="none" stroke-width="0.5" stroke-linecap="butt"/><path d="M710.27987,62.77312c0.02777,0.99961 -0.97185,1.02739 -0.97185,1.02739l-0.84189,0.02339c-5.32669,0.14799 -10.64879,0.30768 -15.97207,0.55073c-0.64074,0.02829 -1.28429,0.01849 -1.92221,0.08488c-1.05781,0.11008 -2.08507,0.42041 -3.1279,0.62922c-1.96108,0.39265 -3.92214,0.7853 -5.88324,1.17796c-2.61476,0.52354 -5.22954,1.04707 -7.84431,1.5706c-1.28834,0.25797 -2.59392,0.44072 -3.86534,0.7722c-0.60753,0.15841 -1.19377,0.3895 -1.79078,0.58382l-3.80412,1.23639c-3.79536,1.23356 -7.5906,2.46748 -11.3862,3.7003c-1.84978,0.71682 -3.69969,1.43327 -5.54959,2.14972c-1.21844,0.47189 -2.47976,0.84466 -3.65647,1.41267c-1.17671,0.56801 -2.25319,1.32371 -3.38059,1.98418c-1.72838,1.01253 -3.44716,2.04494 -5.18658,3.03838c-2.87826,1.64386 -5.86792,3.12328 -8.70177,4.84187c-0.87183,0.52873 -1.66634,1.17554 -2.49991,1.76273c-2.18007,1.53572 -4.36014,3.07142 -6.54022,4.60713c-9.76867,6.88138 -19.52685,13.77795 -29.31634,20.6297c0,0 -0.81927,0.57341 -1.39268,-0.24585c-0.57341,-0.81927 0.24585,-1.39268 0.24585,-1.39268c9.78784,-6.85059 19.54435,-13.74601 29.31138,-20.62623c2.18007,-1.53572 4.36014,-3.07142 6.54022,-4.60713c0.86239,-0.60749 1.68656,-1.27342 2.58798,-1.82135c2.85588,-1.73597 5.87124,-3.22732 8.77361,-4.88493c1.73304,-0.98979 3.44546,-2.01851 5.16749,-3.02734c0.08903,-0.05216 3.4744,-2.03659 3.52213,-2.05965c0.04772,-0.02303 3.70736,-1.43928 3.80359,-1.47655c1.86708,-0.72311 3.73417,-1.44622 5.60139,-2.16896c3.81265,-1.23997 7.62563,-2.47885 11.43852,-3.71811c1.26805,-0.41213 2.53591,-0.82481 3.80412,-1.23639c0.63415,-0.20581 1.25756,-0.44838 1.90268,-0.61663c0.03792,-0.00989 3.90415,-0.78342 3.97898,-0.79841c2.61476,-0.52354 5.22954,-1.04707 7.84431,-1.5706c1.96108,-0.39265 3.92214,-0.7853 5.88324,-1.17796c1.09245,-0.21874 2.16994,-0.53628 3.27792,-0.65336c0.68813,-0.07272 1.38241,-0.06505 2.07362,-0.09756c5.33514,-0.2436 10.66916,-0.40373 16.00774,-0.55203l0.84189,-0.02339c0,0 0.99961,-0.02777 1.02739,0.97185z" fill="#000000" stroke="none" stroke-width="0.5" stroke-linecap="butt"/><path d="M534.13791,100.2021c0.73566,0.139 1.46779,0.31597 2.20972,0.41615c0.70642,0.09538 1.43985,0.00884 2.13432,0.16955c0.75642,0.17504 1.45338,0.554 2.1799,0.82781c0.7534,0.28394 1.52578,0.52788 2.26546,0.84592c1.51292,0.65052 2.96621,1.44523 4.44666,2.1666c0.00983,0.00479 4.46038,2.17261 4.48256,2.1829c0.48643,0.2255 1.00315,0.38994 1.48057,0.63394c0.55085,0.28153 1.06113,0.64147 1.60216,0.94141c0.70224,0.3893 1.46109,0.68688 2.13173,1.12839c0.66348,0.4368 1.23877,0.99965 1.85764,1.49765c1.1444,0.9209 2.29981,1.83737 3.45207,2.74841c1.50484,1.85957 3.00805,3.78741 4.28967,5.81159c0.43466,0.68652 0.80038,1.41806 1.20016,2.12546c1.07275,1.89819 1.38381,2.31362 2.22725,4.31782c0.31713,0.75358 0.57847,1.53304 0.86723,2.29795c0.29431,0.77964 0.5889,1.56283 0.88454,2.34196c0.15008,0.39554 0.35572,0.77552 0.45439,1.18691c0.18502,0.77138 0.26207,1.56801 0.39417,2.3502c0.26293,1.55697 0.49256,3.12652 0.69137,4.69298c0.08809,0.69413 0.21843,1.38699 0.2656,2.08513c0.05465,0.80881 0.02452,1.62448 0.03958,2.43501c0.01454,0.78293 0.12765,1.57279 0.04894,2.35188c-0.14796,1.46408 -0.79803,3.07708 -1.37497,4.40328c-0.65177,1.49822 -1.34193,2.98941 -2.10758,4.43278c-0.59915,1.1295 -1.29861,2.20915 -1.94415,3.31277c-3.06305,3.88637 -6.41496,7.57731 -9.65358,11.31832c-1.0791,1.24649 -2.19165,2.47324 -3.32142,3.67399c-0.51998,0.55264 -1.0002,1.14965 -1.56077,1.66106c-0.45233,0.41267 -0.99399,0.72024 -1.47155,1.10342c-0.51793,0.41558 -0.95919,0.93513 -1.51807,1.29376c-1.86015,1.19364 -2.14354,0.90766 -4.30114,1.36366c-0.78173,0.16522 -1.54723,0.41907 -2.33297,0.56403c-0.63893,0.11785 -1.30412,0.08532 -1.93884,0.22403c-0.74612,0.16308 -1.46153,0.45397 -2.19162,0.67821c-0.64332,0.19759 -1.32079,0.31068 -1.93411,0.5877c-0.51461,0.23243 -0.90068,0.70534 -1.42061,0.92562c-1.44118,0.61058 -3.0498,0.75966 -4.6356,0.81753c-0.29319,-0.21096 -0.58981,-0.41944 -0.87638,-0.63822c-1.16705,-0.89101 -2.28394,-1.8614 -3.51093,-2.66785c-1.06873,-0.70242 -2.24955,-1.23405 -3.31421,-1.94265c-0.70409,-0.46861 -1.34992,-1.03036 -2.07401,-1.46745c-0.73957,-0.4464 -1.54207,-0.78699 -2.31188,-1.17893c-1.21828,-0.6203 -2.41891,-1.29004 -3.66116,-1.86088c-1.36216,-0.62595 -2.78063,-1.13973 -4.13654,-1.77904c-0.90741,-0.42787 -1.78415,-0.92724 -2.6813,-1.37596c-0.3167,-0.58748 -0.65462,-1.16781 -0.91112,-1.78325c-0.24553,-0.5891 -0.32169,-1.2411 -0.55971,-1.83328c-0.12125,-0.30163 -1.78532,-3.60454 -1.94628,-3.96957c-0.32978,-0.74787 -0.60607,-1.52171 -0.90933,-2.28071c-0.29747,-0.74448 -0.6563,-1.4705 -0.89596,-2.23556c-0.23967,-0.76504 -0.3607,-1.56563 -0.54043,-2.34694c-0.13879,-0.5945 -0.32837,-1.18192 -0.41722,-1.78591c-0.01134,-0.0771 -0.27967,-3.41006 -0.32962,-3.93549c-0.22222,-2.3376 -0.7069,-4.79843 -0.54318,-7.1554c0.08277,-1.19176 0.65438,-3.59723 0.90363,-4.73703c0.27145,-1.24131 0.56091,-2.48448 0.81506,-3.72946c0.16293,-0.79816 0.27077,-1.61206 0.47211,-2.40141c0.2003,-0.78521 0.48954,-1.5487 0.73326,-2.32154c0.42054,-1.33347 0.76494,-2.69625 1.18646,-4.02942c0.22712,-0.71831 0.40033,-1.46989 0.76093,-2.13136c0.71027,-1.30289 1.62419,-1.93838 2.53599,-3.02548c0.41153,-0.49066 0.73491,-1.05645 1.16419,-1.53168c0.57246,-0.63377 1.30356,-1.12413 1.83721,-1.7909c0.54582,-0.68195 0.9035,-1.49956 1.38234,-2.23011c0.4508,-0.68781 0.94133,-1.35245 1.41074,-2.02769c2.32031,-3.36571 5.23851,-8.35285 9.1937,-9.95821c2.04488,-0.82997 4.10164,0.13762 6.1127,-0.63526c1.09307,-0.42009 1.92703,-0.84377 2.7998,-1.20677c0.13731,0.02585 0.2751,0.05166 0.41239,0.07762z" fill="#ffffff" stroke="#000000" stroke-width="3" stroke-linecap="butt"/><path d="M561.51704,150.16123c0.81761,-1.90286 3.02297,-2.78261 4.92582,-1.96501c1.90286,0.81761 2.78261,3.02297 1.96501,4.92582c-0.81761,1.90286 -3.02297,2.78261 -4.92582,1.96501c-1.90286,-0.81761 -2.78261,-3.02297 -1.96501,-4.92582z" fill="#000000" stroke="none" stroke-width="0.5" stroke-linecap="butt"/><path d="M496.80695,230.3942c-1.37817,-0.59216 -0.786,-1.97033 -0.786,-1.97033l0.4069,-0.94701c4.66751,-10.86287 9.36359,-21.65151 14.55034,-32.27797c0.26696,-0.42804 2.91382,-4.67726 3.00156,-4.79288c0.50421,-0.66434 1.14855,-1.20961 1.72468,-1.81263c1.84421,-1.93028 2.3854,-2.62555 4.51948,-4.27193c0.81278,-0.62704 1.68945,-1.16663 2.53524,-1.74839c0.85891,-0.59078 1.67731,-1.24584 2.57883,-1.76926c0.7465,-0.43342 1.5651,-0.72857 2.34834,-1.09143c0.91948,-0.42598 1.82795,-0.87674 2.75975,-1.27503c0.98482,-0.42094 1.95977,-0.88139 2.98779,-1.1817c0.72449,-0.21163 1.49146,-0.23301 2.23789,-0.34485c1.04164,-0.1561 2.07472,-0.39928 3.12629,-0.45902c0.79316,-0.04506 1.58598,0.09564 2.37882,0.14625c1.02187,0.06522 2.04782,0.08609 3.06526,0.2012c1.00038,0.11317 1.98393,0.34681 2.98146,0.48287c2.56584,0.35001 5.17606,0.37474 7.74334,0.7154c1.00011,0.1327 1.98563,0.35944 2.98205,0.51744c1.48964,0.23619 2.99197,0.38391 4.48791,0.57625c0.09222,0.01834 5.94089,1.18032 6.01411,1.19904c0.04932,0.01262 5.82352,1.82577 5.87408,1.8445c0.0375,0.0139 4.86741,2.08891 5.18448,2.22555c0.9596,0.41353 1.95536,0.75213 2.87775,1.24311c0.79575,0.42358 1.50534,0.99223 2.25694,1.48999c1.86698,1.23648 3.39839,2.14724 5.04011,3.70126c0.07941,0.07518 3.939,4.39483 4.0726,4.54086c1.06472,1.16356 2.19681,2.26432 3.25959,3.42968c1.6772,1.83905 3.22447,3.81901 4.7963,5.74746c0.66741,0.81884 1.41703,1.57756 1.99871,2.45937c0.48165,0.73014 0.78327,1.56424 1.17234,2.34765c0.45386,0.91383 0.94178,1.81178 1.35646,2.74406c0.41936,0.9428 0.76239,1.91776 1.14359,2.87664c0.04061,0.11774 1.96549,5.69598 1.99242,5.78532c0.15978,0.53024 0.24352,1.08045 0.36432,1.62089c0.22274,0.99668 0.476,1.98708 0.66627,2.99046c0.11625,0.61301 0.16864,1.23642 0.25251,1.85472c0.23939,1.76433 0.46635,3.53053 0.66772,5.2996c0.00648,0.05691 0.67997,5.97291 0.68261,6.00293c0.32385,3.67525 0.41727,7.39644 0.45541,11.0846c0.01589,1.5368 -0.04595,3.07342 -0.06997,4.61012c-0.02764,1.76843 0.04793,4.79389 -0.52144,6.47607c-0.28274,0.83532 -0.95307,1.4841 -1.42961,2.22614c0,0 -0.82913,1.25 -2.07915,0.42087c-1.25,-0.82913 -0.42087,-2.07915 -0.42087,-2.07915c0.37278,-0.53838 0.90888,-0.99469 1.11836,-1.61513c0.36595,-1.08387 0.31806,-4.46401 0.33305,-5.4745c0.02251,-1.51713 0.08558,-3.03414 0.06966,-4.55135c-0.03785,-3.60696 -0.12748,-7.24692 -0.44445,-10.84125c-0.17448,-1.97845 -0.44979,-3.94671 -0.67435,-5.92011c-0.19891,-1.74795 -0.42422,-3.4929 -0.65982,-5.23628c-0.07787,-0.57619 -0.12406,-1.15748 -0.23271,-1.72867c-0.18287,-0.96151 -0.42808,-1.9101 -0.64113,-2.86538c-0.10832,-0.48571 -0.1788,-0.98126 -0.323,-1.45756c-0.56804,-1.8763 -1.28001,-3.70599 -1.91869,-5.55942c-0.35714,-0.89984 -0.67744,-1.81519 -1.07143,-2.69954c-0.39868,-0.89488 -0.87147,-1.75485 -1.30455,-2.63359c-0.33684,-0.68347 -0.58472,-1.41756 -1.0052,-2.05299c-0.52074,-0.78696 -1.20084,-1.45594 -1.79943,-2.18544c-1.54991,-1.88888 -3.06018,-3.83875 -4.70802,-5.64436c-1.0534,-1.15427 -2.17531,-2.24471 -3.23034,-3.39752c-0.68017,-0.7432 -1.34486,-1.50039 -2.01631,-2.25145c-0.6394,-0.71521 -1.22111,-1.4862 -1.91622,-2.14737c-1.44609,-1.37545 -2.98149,-2.27958 -4.63378,-3.37772c-0.67596,-0.44927 -1.30892,-0.97022 -2.02563,-1.35111c-0.84338,-0.44818 -1.75698,-0.74949 -2.63491,-1.12556c-1.68209,-0.72054 -3.32731,-1.53283 -5.0431,-2.16898c-0.91383,-0.33883 -1.8603,-0.58215 -2.79013,-0.8742c-0.92836,-0.29159 -1.84175,-0.63558 -2.78449,-0.87675c-1.89484,-0.48472 -3.8367,-0.76219 -5.75475,-1.14478c-1.48389,-0.18991 -2.97403,-0.33639 -4.4516,-0.57054c-0.97891,-0.15514 -1.94685,-0.37926 -2.92934,-0.50996c-2.56159,-0.34075 -5.16595,-0.36506 -7.72663,-0.71325c-0.98417,-0.13382 -1.95422,-0.36585 -2.94111,-0.47804c-0.9698,-0.11024 -1.94818,-0.12372 -2.92206,-0.18842c-0.6864,-0.04561 -1.37207,-0.18289 -2.05879,-0.14254c-0.94511,0.05556 -1.87132,0.28883 -2.80769,0.42861c-0.63247,0.0944 -1.28517,0.09392 -1.89879,0.27392c-0.89145,0.26152 -1.7327,0.67214 -2.58515,1.04145c-0.90534,0.39221 -1.79061,0.82925 -2.68659,1.2424c-0.70675,0.32588 -1.44887,0.58339 -2.12158,0.97467c-0.82771,0.48143 -1.57451,1.09015 -2.36282,1.63367c-0.80143,0.55256 -1.63454,1.06141 -2.40642,1.65454c-1.98054,1.52194 -2.44971,2.16392 -4.1829,3.96973c-0.50659,0.52781 -1.08213,0.9964 -1.52356,1.57978c-0.57251,0.75659 -0.99972,1.61288 -1.50158,2.41809c-0.41329,0.66309 -0.82922,1.32451 -1.24383,1.98677c-5.12809,10.54319 -9.79016,21.23749 -14.41815,32.00841l-0.4069,0.94701c0,0 -0.59216,1.37817 -1.97033,0.786z" fill="#000000" stroke="none" stroke-width="0.5" stroke-linecap="butt"/></g></g></g></svg>