<svg version="1.1" xmlns="http://www.w3.org/2000/svg" xmlns:xlink="http://www.w3.org/1999/xlink" width="2878.25006" height="1619.57958" viewBox="0,0,2878.25006,1619.57958"><g transform="translate(1119.12503,629.78979)"><g stroke-miterlimit="10"><path d="M-1119.12503,989.78979v-1619.57958h2878.25006v1619.57958z" fill="none" stroke="#000000" stroke-width="0" stroke-linecap="butt"/><g stroke-width="0"><path d="M168.09143,342.29406l28.83129,-52.41438l80.55789,-0.46797l-16.95954,52.8824z" fill="#cedce9" stroke="#000000" stroke-linecap="round"/><path d="M160.42885,339.54582c-2.78231,-0.73973 -9.40378,-1.89287 -6.50196,-3.08497c-1.58651,0.382 -3.70309,0.84839 -4.82934,0.97385c-5.33531,0.59438 -12.24973,0 -17.75522,0c-15.10386,0 -29.76748,-0.31549 -44.38795,1.18012c-6.60742,0.67592 -8.42377,-1.41139 -10.4527,1.50916c-4.1851,4.90029 -12.05916,9.27311 -17.1173,14.20628c-6.85547,6.68595 -9.51394,13.14062 -13.71662,19.8447c-4.75574,5.52096 -0.88186,16.12106 -0.88186,22.26605c0,1.64493 1.33408,4.5729 0.05991,5.78369c1.26664,0.06115 2.49005,0.11698 3.2692,0.11698c5.1786,0 10.35715,0 15.53583,0c20.59973,0 44.53385,-0.23953 64.52816,-2.89742c23.73975,-2.83542 49.46906,1.23059 73.39979,-1.31435c13.10501,-1.27641 27.39032,-0.51768 40.73346,-0.50868c6.76902,0.00455 12.56555,-1.36253 15.53578,1.18013c0.7807,0.66834 0,-1.57351 0,-2.36021c0,-1.96684 0,-3.93376 0,-5.90064c0,-11.01452 0,-22.029 0,-33.04355c0,-2.60391 -1.28359,-11.91972 1.37196,-12.92779c-0.49817,-0.01583 -1.06199,-0.04155 -1.37196,-0.05358c-2.74629,-0.10655 -4.28068,-0.02607 -6.42391,-0.83921c-3.72081,-1.41167 -16.27375,-0.34091 -21.31857,-0.34091c-19.60468,0 -39.20932,0 -58.81401,0c0,0 -4.43878,0 -4.43878,-2.36021c0,-0.09688 0.00743,-0.18976 0.02181,-0.27882c-2.12195,-0.23913 -4.26541,-0.57084 -6.44565,-1.1505zM230.10548,338.61495c11.83443,0 26.95975,-1.12053 35.04162,3.66498c4.6313,2.74225 1.57836,11.53455 1.57836,15.2171c0,11.01452 0,22.029 0,33.04352c0,1.25777 1.52888,7.49701 0,8.26089c-15.44241,7.71537 -44.54879,1.69892 -63.40575,3.95743c-23.40036,2.48854 -50.34872,-2.25357 -72.98769,1.26509c-20.60729,2.73938 -45.43368,3.03842 -66.68128,3.03842c-3.04774,0 -21.32528,1.22733 -23.30364,0c-5.67346,-3.51959 -4.43879,-6.45553 -4.43879,-10.62116c0,-7.53469 -2.51188,-16.516 1.33754,-23.75882c4.30747,-6.87117 7.32822,-13.76273 14.19836,-20.46301c2.77135,-2.70279 5.7648,-6.31811 9.34617,-8.75924c2.34347,-1.59737 6.82405,-2.89519 7.38392,-4.97164c3.79744,-5.46628 10.66001,-3.67524 18.78029,-4.59396c14.45503,-1.63543 29.4133,-1.18013 44.38795,-1.18013c5.52256,0 16.31299,-1.35148 20.20885,-0.93093c6.78186,0.73205 10.71359,3.80733 17.28661,4.72049c4.82322,0.67005 9.906,0.27341 15.53582,1.7702c0.42742,0.11367 0.85473,0.22724 1.28219,0.34091c14.81659,0 29.63318,0 44.44978,0z" fill="#000000" stroke="none" stroke-linecap="butt"/><path d="M166.93624,340.58304c-0.01439,0.08908 -0.02131,0.182 -0.02131,0.27888c0,2.36021 4.46057,2.36427 4.46057,2.36427c19.60467,0 39.31381,0.04694 58.91856,0.04694c5.04482,0 17.60916,-1.05983 21.32995,0.35187c2.14319,0.81312 3.68107,0.73661 6.42726,0.84316c0.31001,0.01202 0.87424,0.0384 1.37247,0.05424c-2.65561,1.00806 -1.35847,10.3465 -1.35847,12.95042c0,11.01452 -0.00922,22.09452 -0.00922,33.10909c0,1.96684 -0.00761,3.94331 -0.00761,5.91017c0,0.78674 0.77733,3.03207 -0.00337,2.36376c-2.97023,-2.54266 -8.77204,-1.1705 -15.54101,-1.17505c-13.34318,-0.00898 -27.66882,-0.74078 -40.77387,0.53562c-23.93073,2.54494 -49.89523,-1.49822 -73.63498,1.33724c-19.99429,2.65792 -44.02562,2.85636 -64.62544,2.85636c-5.1786,0 -10.36627,-0.00742 -15.54487,-0.00742c-0.77923,0 -2.0043,-0.0573 -3.27087,-0.11845c1.2742,-1.21077 -0.06818,-4.14712 -0.06818,-5.79202c0,-6.14504 -3.89473,-16.78599 0.86108,-22.30698c4.20264,-6.70404 6.87028,-13.20355 13.7257,-19.88945c5.05821,-4.93316 12.96554,-9.34116 17.15065,-14.24143c2.02894,-2.92055 3.85909,-0.84221 10.46648,-1.5181c14.6204,-1.49564 29.37923,-1.21321 44.48304,-1.21321c5.50534,0 12.48168,0.58847 17.81703,-0.00593c1.12613,-0.12549 3.26038,-0.59183 4.84687,-0.97382c-2.90186,1.19207 3.7459,2.34661 6.52821,3.08634c2.18036,0.57966 4.34964,0.91447 6.47158,1.15362z" fill="#484848" stroke="none" stroke-linecap="butt"/><path d="M104.70964,349.23608c0,0.79765 1.53023,1.76442 0.76752,2.39605c1.95083,0.1068 3.9131,0.33996 5.65633,0.80343c6.72107,1.78692 20.3936,8.2983 21.68278,12.60308c0.10483,0.35016 -1.79577,0.40869 -1.47387,0.71916c1.07098,1.03321 9.79901,-0.76239 10.80294,-0.46898c0.22722,0.06642 0.33882,0.16987 0.38353,0.29573c-0.04672,-0.39104 -0.08956,-0.76908 -0.08956,-1.00695c0,-0.83605 0.06214,-1.73701 -0.64101,-2.48483c-5.97697,-6.59109 -15.74243,-12.85685 -32.64987,-12.85685c0,0 -1.9952,-0.00004 -3.31037,-0.71129c-0.43859,-0.13252 -0.7796,-0.28824 -1.00823,-0.47099c-0.05878,0.45027 -0.12022,0.90862 -0.12022,1.18232zM142.43943,366.93791c0.30296,0.48324 0.21358,-0.31885 0.11291,-1.15798c-0.02107,0.36417 -0.31999,0.82773 -0.11291,1.15798zM149.73864,359.98179c5.51937,5.86966 -7.01286,14.44567 -18.39623,10.49653c-10.7403,-3.72609 -14.37725,-11.21464 -24.17904,-13.82058c-3.3114,-0.88041 -7.27922,-1.36098 -9.75295,-2.82572c-3.92006,-2.32117 -2.18236,-10.24738 5.31413,-10.24738c5.39796,0 8.05669,0.93092 13.08207,0.93092h2.21937c0,0 2.54771,0 3.78284,1.02634c13.14851,2.28219 21.58583,8.08058 27.92977,14.43985z" fill="#000000" stroke="none" stroke-linecap="butt"/><path d="M104.66514,347.97464c0.2285,0.18271 0.56976,0.33846 1.00834,0.471c1.31513,0.71127 3.31938,0.70625 3.31938,0.70625c16.90739,0 27.02535,6.40429 33.0023,12.99541c0.70318,0.74779 0.62167,1.66522 0.62167,2.50125c0,0.23787 0.03459,0.6213 0.08133,1.01236c-0.04463,-0.12594 -0.15517,-0.22998 -0.38248,-0.29642c-1.004,-0.29341 -9.80759,1.53319 -10.87857,0.50002c-0.32188,-0.31052 1.36791,-0.57628 1.26297,-0.92647c-1.28917,-4.30477 -15.02765,-10.7831 -21.74882,-12.57009c-1.74326,-0.4635 -3.71684,-0.68708 -5.66766,-0.79385c0.76269,-0.63166 -0.74934,-1.61295 -0.74934,-2.4106c0,-0.27369 0.07173,-0.73859 0.13061,-1.18881z" fill="#ffffff" stroke="none" stroke-linecap="butt"/></g><g stroke-width="0"><path d="M289.62971,303.54755l-18.23399,-53.12161l86.6115,0.4701l30.99784,52.65148z" fill="#cedce9" stroke="#000000" stroke-linecap="round"/><path d="M397.24342,300.78697c-2.34409,0.58229 -4.64862,0.9155 -6.93002,1.15571c0.01545,0.08948 0.02345,0.18278 0.02345,0.2801c0,2.37088 -4.77235,2.37088 -4.77235,2.37088c-21.0779,0 -42.15578,0 -63.23365,0c-5.42392,0 -18.92018,-1.07561 -22.92058,0.34245c-2.30429,0.81682 -3.95398,0.73599 -6.90665,0.84301c-0.33326,0.01209 -0.93946,0.03793 -1.47505,0.05382c2.85512,1.01263 1.47505,10.37059 1.47505,12.98627c0,11.06437 0,22.1287 0,33.19302c0,1.97578 0,3.95159 0,5.92732c0,0.79026 -0.83936,3.04225 0,2.3709c3.19342,-2.55416 9.42554,-1.18092 16.70324,-1.18549c14.34584,-0.00904 29.70463,-0.77121 43.79444,0.51098c25.72904,2.55645 53.3918,-1.52796 78.91549,1.32029c21.4968,2.66989 47.22949,2.91051 69.37721,2.91051c5.56784,0 11.13552,0 16.70329,0c0.8377,0 2.15306,-0.05607 3.51488,-0.1175c-1.36992,-1.21625 0.06441,-4.15749 0.06441,-5.80984c0,-6.1728 4.16498,-16.82085 -0.94813,-22.36678c-4.51849,-6.7344 -7.37674,-13.21827 -14.74737,-19.93447c-5.43824,-4.95547 -13.904,-9.34807 -18.4036,-14.27054c-2.18139,-2.93378 -4.13424,-0.83702 -11.23817,-1.51599c-15.71915,-1.50238 -31.48467,-1.18545 -47.72353,-1.18545c-5.91921,0 -13.35322,0.59706 -19.08946,0c-1.21087,-0.12603 -3.4865,-0.59454 -5.19225,-0.97827c3.1199,1.19751 -3.99917,2.35585 -6.99055,3.09893zM322.3306,299.85187c15.93002,0 31.86002,0 47.79002,0c0.45956,-0.11418 0.91901,-0.22827 1.37854,-0.34244c6.05288,-1.50356 11.51762,-1.10513 16.70328,-1.77819c7.06696,-0.9173 11.29413,-4.00649 18.58562,-4.74185c4.18862,-0.42244 15.78991,0.93515 21.72746,0.93515c16.09994,0 32.18225,-0.45735 47.72353,1.18548c8.7305,0.92289 16.10876,-0.87625 20.19156,4.61476c0.60194,2.08585 5.4192,3.38953 7.93879,4.99414c3.85051,2.45218 7.06889,6.08383 10.0485,8.79886c7.38642,6.73057 10.63418,13.6533 15.26531,20.55556c4.13869,7.27558 1.43806,16.29752 1.43806,23.8663c0,4.18448 1.32745,7.1337 -4.77235,10.6692c-2.12703,1.23287 -21.77806,0 -25.05482,0c-22.84429,0 -49.53628,-0.3004 -71.69214,-3.05217c-24.34021,-3.53457 -53.31363,1.22899 -78.47244,-1.2708c-20.27402,-2.26871 -51.56763,3.77494 -68.17045,-3.97533c-1.64376,-0.76734 0,-7.0348 0,-8.29826c0,-11.06435 0,-22.12867 0,-33.19301c0,-3.69921 -3.28235,-12.53127 1.69697,-15.28593c8.68919,-4.80715 24.95113,-3.68155 37.67487,-3.68155z" fill="#000000" stroke="none" stroke-linecap="butt"/><path d="M390.24684,301.82887c2.28138,-0.24023 4.61368,-0.57655 6.95789,-1.15884c2.99138,-0.74307 10.13871,-1.90284 7.01878,-3.10029c1.70571,0.38373 4.00033,0.85218 5.21109,0.97824c5.73627,0.59708 13.23687,0.00594 19.15591,0.00594c16.23879,0 32.1067,-0.2837 47.82576,1.21869c7.10391,0.67897 9.07159,-1.40879 11.25299,1.52497c4.49961,4.92245 13.00114,9.35037 18.43945,14.30586c7.37059,6.71614 10.23868,13.24505 14.75714,19.97942c5.11318,5.54596 0.92579,16.23504 0.92579,22.40788c0,1.65235 -1.44325,4.60198 -0.0733,5.81822c-1.36175,0.06142 -2.67888,0.11899 -3.51667,0.11899c-5.56774,0 -11.14524,0.00745 -16.71301,0.00745c-22.14782,0 -47.98501,-0.19933 -69.48179,-2.86927c-25.52371,-2.8483 -53.43934,1.21315 -79.16837,-1.3433c-14.08984,-1.28217 -29.49201,-0.54706 -43.83787,-0.53805c-7.27762,0.00457 -13.51542,-1.3738 -16.70885,1.18036c-0.83936,0.67134 -0.00362,-1.58415 -0.00362,-2.37445c0,-1.97575 -0.00818,-3.96117 -0.00818,-5.93691c0,-11.06437 -0.00992,-22.19453 -0.00992,-33.25885c0,-2.61568 1.39461,-11.99637 -1.46056,-13.009c0.53567,-0.01591 1.14229,-0.04243 1.47561,-0.05448c2.95256,-0.10702 4.60601,-0.03017 6.91025,-0.84698c4.00039,-1.41807 17.50889,-0.35346 22.93281,-0.35346c21.07796,0 42.26818,-0.04715 63.34606,-0.04715c0,0 4.79577,-0.00408 4.79577,-2.37496c0,-0.09731 -0.00744,-0.19066 -0.02291,-0.28014z" fill="#484848" stroke="none" stroke-linecap="butt"/><path d="M457.1498,310.5208c0,-0.27494 -0.06607,-0.73535 -0.12926,-1.18766c-0.24581,0.18358 -0.61244,0.33999 -1.08399,0.4731c-1.414,0.71447 -3.55913,0.71451 -3.55913,0.71451c-18.17797,0 -28.67728,6.2941 -35.10339,12.91501c-0.75599,0.75122 -0.68917,1.65623 -0.68917,2.49606c0,0.23895 -0.04606,0.6187 -0.09629,1.01151c0.04807,-0.12642 0.16806,-0.23032 0.41235,-0.29706c1.07939,-0.29474 10.4633,1.50896 11.61475,0.47109c0.34607,-0.31188 -1.69734,-0.37066 -1.58463,-0.7224c1.38606,-4.32425 16.08601,-10.86511 23.31215,-12.66011c1.87423,-0.46555 3.98397,-0.69977 6.08139,-0.80706c-0.82004,-0.63448 0.82521,-1.60564 0.82521,-2.40688zM416.46334,327.13962c-0.10823,0.84293 -0.20433,1.64865 0.1214,1.16322c0.22264,-0.33175 -0.09874,-0.79741 -0.1214,-1.16322zM408.73704,321.31521c6.82067,-6.38803 15.89201,-12.21266 30.02858,-14.50516c1.32796,-1.03098 4.06712,-1.03098 4.06712,-1.03098h2.38616c5.40301,0 8.26154,-0.93513 14.06513,-0.93513c8.05982,0 9.92809,7.96206 5.71346,10.29371c-2.6596,1.47136 -6.92562,1.95411 -10.48585,2.8385c-10.53835,2.61773 -14.44859,10.14016 -25.99598,13.8831c-12.23879,3.96702 -25.71277,-4.64781 -19.77864,-10.54401z" fill="#000000" stroke="none" stroke-linecap="butt"/><path d="M457.19788,309.25383c0.06331,0.45226 0.14043,0.91925 0.14043,1.1942c0,0.80125 -1.62565,1.78699 -0.80565,2.42151c-2.0974,0.10724 -4.21931,0.33183 -6.09355,0.79742c-7.22625,1.79506 -21.99713,8.30271 -23.38317,12.62694c-0.11283,0.35177 1.70396,0.61874 1.35787,0.93066c-1.15146,1.03784 -10.6166,-0.79702 -11.69604,-0.50228c-0.24439,0.06675 -0.36323,0.17127 -0.41122,0.29777c0.05027,-0.39283 0.08744,-0.77801 0.08744,-1.01693c0,-0.8398 -0.08765,-1.76138 0.66838,-2.51255c6.42609,-6.62094 17.30438,-13.05421 35.48229,-13.05421c0,0 2.15486,0.00505 3.56883,-0.70944c0.47154,-0.13315 0.83844,-0.2896 1.08412,-0.47313z" fill="#ffffff" stroke="none" stroke-linecap="butt"/></g><g><path d="M66.23391,347.68669l-16.80947,-188.29654l224.82543,-25.54735l20.96294,177.69741z" fill="#a18c5d" stroke="#000000" stroke-width="1" stroke-linecap="round"/><path d="M103.52686,342.63207l-19.53275,-167.68601l18.8473,-14.02768l41.02518,-10.71664l37.92968,-4.36891l54.54349,3.2915l9.09058,0.54858l21.72703,167.07867z" fill="#f6fffe" stroke="#000000" stroke-width="1" stroke-linecap="round"/><path d="M121.64925,339.59538l-20.61033,-152.89422l21.80566,-10.95176l33.1101,-7.2489l35.32397,-4.09463l32.05214,4.1535l20.53195,152.14974z" fill="#3e433f" stroke="#000000" stroke-width="1" stroke-linecap="round"/><path d="M244.0391,311.65768l-82.85364,17.37779l-19.92461,-149.95546l81.77607,-9.73699z" fill="#5e685f" stroke="#000000" stroke-width="1" stroke-linecap="round"/><path d="M242.37383,299.41283l-70.35408,14.55658l-14.28222,-124.95635l67.06265,-10.07007l14.61529,117.39392z" fill="#d48246" stroke="#000000" stroke-width="1" stroke-linecap="round"/><path d="M286.61227,133.29425l-271.16977,30.42563l-6.83751,-11.32406l282.0432,-30.81745z" fill="#2a3531" stroke="#000000" stroke-width="1" stroke-linecap="round"/><path d="M265.16979,-10.52187l-0.31345,-10.12895l241.33637,-12.60696l0.34285,3.25713l40.79944,298.21133l-252.62128,41.2697l-20.99772,-174.45228l2.93876,-0.68571l9.34528,-0.60733l5.52489,-11.87261l-17.53463,1.46936l-186.00431,20.70823l-14.12546,-144.92036z" fill="#fefefe" stroke="#000000" stroke-width="1" stroke-linecap="round"/><path d="M344.93234,301.18333l-18.14175,-158.04685l162.02399,-19.6895l18.47482,150.48443z" fill="#626f65" stroke="#000000" stroke-width="1" stroke-linecap="round"/><path d="M295.87478,135.47604l215.56832,-29.46571l-1.33227,15.9477l-206.32099,24.35227z" fill="#2a3531" stroke="#000000" stroke-width="1" stroke-linecap="round"/><path d="M472.84727,125.5041l13.4594,102.83723l-127.4641,19.06262l-14.26265,-106.89274z" fill="#345367" stroke="#000000" stroke-width="1" stroke-linecap="round"/><path d="M265.83591,-11.34474l-229.02784,12.44044l-11.8726,-12.67589l215.23523,-7.6013l-5.34853,-11.48079l303.39332,-18.38644l-11.34366,17.37789l-35.4611,-0.78373l-226.42214,12.16616z" fill="#1c1e19" stroke="#000000" stroke-width="1" stroke-linecap="round"/><path d="M237.79518,-10.46314l6.7003,56.50268l-119.13758,8.77694l-4.25132,-58.26594z" fill="#5c6957" stroke="#000000" stroke-width="1" stroke-linecap="round"/><path d="M209.30874,-9.34646l6.34765,60.30349l-57.71736,2.31175l-5.56398,-60.0096z" fill="#345367" stroke="#000000" stroke-width="1" stroke-linecap="round"/><path d="M348.2866,60.97148c1.34813,-0.11721 2.68881,-0.33446 4.0379,-0.44295c1.33595,-0.10743 2.6921,-0.13219 4.03124,-0.18725c0.80214,-0.03297 1.67268,-0.12932 2.47504,-0.10245c0.82042,0.02748 1.64462,0.22407 2.46313,0.28648c1.26115,0.09616 2.53357,-0.00838 3.79526,0.08022c0.56773,0.03987 1.13226,0.11446 1.6952,0.19945c-0.16513,0.00292 -0.3285,0.01506 -0.48498,0.06106c-0.43556,0.12802 -0.78457,0.47048 -1.2108,0.62679c-0.47708,0.17497 -0.98744,0.2436 -1.48048,0.36665c-1.52201,0.37986 -3.03322,0.90254 -4.56982,1.21825c-0.43167,0.08869 -0.90923,0.10191 -1.34743,0.14857c-0.58226,0.06198 -1.19746,0.18251 -1.783,0.17776c-1.27205,-0.01033 -2.30376,-0.28394 -3.47236,-0.72763c-0.59452,-0.22572 -1.15182,-0.55302 -1.7474,-0.77594c-0.53843,-0.20152 -1.12897,-0.26297 -1.64973,-0.50654c-0.1754,-0.08204 -0.43949,-0.23405 -0.75176,-0.42243z" fill="#ffffff" stroke="none" stroke-width="0.5" stroke-linecap="butt"/><path d="M386.47829,-22.83446c0.70973,-0.23832 1.43494,-0.44178 2.13117,-0.71704c0.6629,-0.26207 1.26044,-0.69607 1.94486,-0.89531c0.74546,-0.21701 1.53872,-0.22709 2.30637,-0.34333c0.79606,-0.12055 1.58912,-0.28526 2.38986,-0.36935c1.63784,-0.17199 3.29414,-0.18903 4.93829,-0.28333c0.01091,-0.00063 4.95318,-0.28479 4.97758,-0.28665c0.53459,-0.04103 1.06575,-0.15015 1.60152,-0.17064c0.61817,-0.02364 1.23928,0.04096 1.85788,0.03817c0.80293,-0.00362 1.6104,-0.11493 2.41128,-0.05756c0.79233,0.05676 1.56932,0.2666 2.35264,0.39856c1.4485,0.24402 2.90445,0.47881 4.35499,0.7104c2.22177,0.88675 4.47548,1.83385 6.58295,2.97331c0.71476,0.38646 1.39139,0.8459 2.08592,1.26763c1.86368,1.13164 2.33811,1.34202 4.05355,2.67823c0.64501,0.50242 1.25399,1.05468 1.87978,1.58085c0.63784,0.5363 1.27765,1.07557 1.9164,1.61077c0.32427,0.27171 0.68939,0.50269 0.97656,0.81336c0.53845,0.58252 0.99506,1.23985 1.49262,1.85766c0.99042,1.2298 1.95791,2.48682 2.89702,3.75624c0.41613,0.5625 0.86851,1.10326 1.25088,1.68924c0.44301,0.6789 0.81542,1.40522 1.22473,2.10498c0.39536,0.67593 0.88013,1.3097 1.19226,2.02787c0.58654,1.34959 0.80784,3.07453 0.95275,4.51351c0.16371,1.62563 0.29048,3.2639 0.32804,4.89733c0.02939,1.27823 -0.05311,2.56201 -0.07683,3.84035c-0.77261,4.88766 -1.89273,9.74602 -2.88956,14.59268c-0.33214,1.6149 -0.70311,3.22891 -1.10181,4.82867c-0.1835,0.73628 -0.31064,1.49184 -0.54971,2.21199c-0.19291,0.58111 -0.51512,1.11419 -0.74445,1.6819c-0.24871,0.61571 -0.37972,1.28466 -0.692,1.87069c-1.03937,1.95055 -1.42637,1.83958 -3.08578,3.29201c-0.60122,0.52623 -1.14498,1.12187 -1.7596,1.63238c-0.4998,0.41512 -1.09601,0.71187 -1.58194,1.14313c-0.57121,0.50696 -1.05315,1.11043 -1.58047,1.66291c-0.46465,0.48683 -1.0004,0.91663 -1.40006,1.45807c-0.33534,0.45431 -0.44099,1.05558 -0.78691,1.50189c-0.95885,1.2371 -2.28934,2.15343 -3.64451,2.97903c-0.3589,-0.04072 -0.71957,-0.07763 -1.07651,-0.12842c-1.45365,-0.20688 -2.90234,-0.50753 -4.36696,-0.61134c-1.2757,-0.09041 -2.5657,0.02297 -3.84086,-0.07482c-0.84331,-0.06467 -1.68129,-0.23907 -2.52664,-0.26644c-0.8634,-0.02795 -1.72997,0.06718 -2.59314,0.10151c-1.36604,0.05432 -2.74082,0.0569 -4.10358,0.16609c-1.4943,0.11973 -2.98291,0.36484 -4.47831,0.46985c-1.00077,0.07027 -2.00972,0.06315 -3.01172,0.11019c-0.56344,-0.35772 -1.1419,-0.69883 -1.66649,-1.11037c-0.50215,-0.39392 -0.88728,-0.9255 -1.38437,-1.32578c-0.25321,-0.20389 -3.31937,-2.27196 -3.63822,-2.51174c-0.65324,-0.49126 -1.27253,-1.03131 -1.90809,-1.54523c-0.6234,-0.50409 -1.29132,-0.96209 -1.87435,-1.51237c-0.58303,-0.55028 -1.07995,-1.18956 -1.61863,-1.78332c-0.41166,-0.4508 -0.86418,-0.87061 -1.23691,-1.3541c-0.04758,-0.06172 -1.91078,-2.83824 -2.21119,-3.27221c-1.33645,-1.93071 -2.96212,-3.84064 -3.97134,-5.97689c-0.51031,-1.08016 -1.1874,-3.45809 -1.52706,-4.57428c-0.36992,-1.2156 -0.72505,-2.44164 -1.11186,-3.65198c-0.24798,-0.77595 -0.55175,-1.53872 -0.7619,-2.32576c-0.20906,-0.78293 -0.32991,-1.59036 -0.49504,-2.38372c-0.28491,-1.36888 -0.65056,-2.72611 -0.93445,-4.0952c-0.15296,-0.73767 -0.36921,-1.47802 -0.37794,-2.23134c-0.01719,-1.48382 0.4695,-2.48493 0.73359,-3.879c0.1192,-0.62921 0.12476,-1.28086 0.26697,-1.90528c0.18964,-0.83271 0.58777,-1.61786 0.72742,-2.46039c0.14284,-0.86173 0.05525,-1.74985 0.1159,-2.62122c0.05709,-0.82039 0.16017,-1.63999 0.23962,-2.45852c0.37913,-4.0704 0.48731,-9.84757 3.15316,-13.18133c1.37827,-1.72358 3.64555,-1.88478 5.02222,-3.54202c0.74826,-0.90076 1.26872,-1.67802 1.8527,-2.4213c0.13242,-0.04457 0.26525,-0.08939 0.39771,-0.13386z" fill="#ffffff" stroke="#000000" stroke-width="3" stroke-linecap="butt"/><path d="M434.49843,8.49035c-0.21681,-2.05969 1.27714,-3.90515 3.33683,-4.12196c2.05969,-0.21681 3.90515,1.27714 4.12196,3.33683c0.21681,2.05969 -1.27714,3.90515 -3.33683,4.12196c-2.05969,0.21681 -3.90515,-1.27714 -4.12196,-3.33683z" fill="#000000" stroke="none" stroke-width="0.5" stroke-linecap="butt"/><path d="M272.52712,-46.88005c-0.10468,-0.99451 0.88982,-1.09919 0.88982,-1.09919l0.57147,-0.00311c2.32064,0.55413 4.60008,1.30783 6.91449,1.90913c1.84661,0.61641 3.72435,1.18023 5.55036,1.85463c3.13107,1.15639 6.2033,2.51377 9.29686,3.76764c2.9198,1.18345 5.83117,2.38748 8.74479,3.58602c1.85718,0.76396 3.75369,1.47336 5.58456,2.29807c1.06322,0.47892 2.08168,1.05158 3.12235,1.57771c1.78486,0.90236 3.56973,1.80473 5.35459,2.7071c1.78486,0.90236 3.57022,1.80377 5.35459,2.7071c0.57538,0.29129 1.13258,0.62151 1.72567,0.87483c1.19076,0.50859 2.44427,0.8555 3.66605,1.28425c3.11769,1.09407 6.23236,2.16576 9.38369,3.15908c2.45016,0.77231 4.83282,1.70526 7.2351,2.61476c1.12076,0.42432 2.90644,1.03059 3.89747,1.70714c0.46337,0.31633 0.79555,0.79134 1.19333,1.18701c0,0 0.70301,0.71118 -0.00817,1.41419c-0.71118,0.70301 -1.41419,-0.00817 -1.41419,-0.00817c-0.31234,-0.32271 -0.56608,-0.71494 -0.93702,-0.96812c-0.72847,-0.4972 -2.66247,-1.16787 -3.43906,-1.46142c-2.36755,-0.8949 -4.71417,-1.81734 -7.12852,-2.57784c-3.172,-0.99915 -6.30694,-2.07827 -9.44488,-3.17945c-0.04952,-0.01738 -3.74829,-1.31462 -3.78778,-1.33149c-0.6331,-0.27036 -1.22953,-0.61962 -1.84406,-0.92991c-1.78533,-0.90143 -3.56973,-1.80473 -5.35459,-2.7071c-1.78486,-0.90236 -3.56973,-1.80473 -5.35459,-2.7071c-1.01752,-0.51443 -2.01252,-1.07596 -3.05223,-1.54395c-1.20402,-0.54195 -2.44246,-1.0039 -3.66355,-1.5062c-2.46616,-1.01447 -4.93233,-2.02895 -7.39848,-3.04341c-2.9104,-1.19722 -5.83039,-2.37122 -8.74696,-3.55335c-1.22603,-0.49693 -2.43692,-1.03291 -3.6779,-1.49124c-1.78517,-0.65932 -3.62095,-1.20942 -5.42591,-1.81324c-2.27897,-0.59065 -4.52373,-1.33936 -6.80898,-1.88095l0.10081,0.04643c0,0 -0.99451,0.10468 -1.09919,-0.88982z" fill="#000000" stroke="none" stroke-width="0.5" stroke-linecap="butt"/><path d="M445.9855,-123.85577c0.51283,0.85849 -0.34566,1.37132 -0.34566,1.37132l-0.72304,0.43191c-4.57468,2.73273 -9.13965,5.47342 -13.66488,8.28741c-0.54516,0.33787 -1.11138,0.64388 -1.63546,1.0136c-0.86903,0.61307 -1.61353,1.38593 -2.42123,2.07781c-1.51892,1.3011 -3.03785,2.6022 -4.55678,3.9033c-2.02523,1.7348 -4.05047,3.4696 -6.07571,5.2044c-0.99786,0.85477 -2.04754,1.65236 -2.99469,2.563c-0.45259,0.43514 -0.85106,0.92329 -1.27692,1.38464l-2.71439,2.93804c-2.70813,2.93128 -5.41599,5.86283 -8.12469,8.79358c-1.26338,1.5295 -2.52705,3.05875 -3.79072,4.588c-0.83231,1.00723 -1.75048,1.94896 -2.49941,3.01966c-0.74893,1.07069 -1.31868,2.25614 -1.9794,3.3834c-1.01293,1.72815 -2.00776,3.46895 -3.03966,5.18582c-1.70751,2.84096 -3.59256,5.59292 -5.2248,8.47739c-0.50215,0.8874 -0.87913,1.84003 -1.31933,2.75974c-1.15126,2.40535 -2.30252,4.8107 -3.45379,7.21605c-5.15869,10.77814 -10.30078,21.56441 -15.4921,32.32687c0,0 -0.43445,0.9007 -1.33515,0.46624c-0.9007,-0.43445 -0.46624,-1.33515 -0.46624,-1.33515c5.19045,-10.76065 10.33166,-21.54509 15.48948,-32.32142c1.15126,-2.40535 2.30252,-4.8107 3.45379,-7.21605c0.45542,-0.9515 0.84894,-1.9353 1.36751,-2.85392c1.64296,-2.9104 3.54461,-5.68532 5.26643,-8.55006c1.02812,-1.71058 2.0192,-3.44506 3.02841,-5.16687c0.05218,-0.08902 2.03561,-3.47498 2.06598,-3.51841c0.03037,-0.04342 2.53081,-3.06775 2.59654,-3.14729c1.2754,-1.54345 2.55081,-3.0869 3.82651,-4.6301c2.72008,-2.94532 5.44099,-5.88987 8.16163,-8.83469c0.9048,-0.97935 1.80918,-1.95908 2.71439,-2.93804c0.45263,-0.48951 0.87794,-1.00585 1.35851,-1.46795c0.02824,-0.02716 3.02306,-2.59176 3.08102,-2.64141c2.02523,-1.7348 4.05047,-3.4696 6.07571,-5.2044c1.51892,-1.3011 3.03785,-2.6022 4.55678,-3.9033c0.84614,-0.7248 1.63094,-1.5285 2.5403,-2.1722c0.56479,-0.39979 1.17423,-0.73246 1.76134,-1.09868c4.53532,-2.82028 9.11047,-5.56717 13.69536,-8.30599l0.72304,-0.43191c0,0 0.85849,-0.51283 1.37132,0.34566z" fill="#000000" stroke="none" stroke-width="0.5" stroke-linecap="butt"/><path d="M310.61362,-5.10657c0.70973,-0.23832 1.43494,-0.44178 2.13117,-0.71704c0.6629,-0.26207 1.26044,-0.69607 1.94486,-0.89531c0.74546,-0.21701 1.53872,-0.22709 2.30637,-0.34333c0.79606,-0.12055 1.58912,-0.28526 2.38986,-0.36935c1.63784,-0.17199 3.29414,-0.18903 4.93829,-0.28333c0.01091,-0.00063 4.95318,-0.28479 4.97758,-0.28665c0.53459,-0.04103 1.06575,-0.15015 1.60152,-0.17064c0.61817,-0.02364 1.23928,0.04096 1.85788,0.03817c0.80293,-0.00362 1.6104,-0.11493 2.41128,-0.05756c0.79233,0.05676 1.56932,0.2666 2.35264,0.39856c1.4485,0.24402 2.90445,0.47881 4.35499,0.7104c2.22177,0.88675 4.47548,1.83385 6.58295,2.97331c0.71476,0.38646 1.39139,0.8459 2.08592,1.26763c1.86368,1.13164 2.33811,1.34202 4.05355,2.67823c0.64501,0.50242 1.25399,1.05468 1.87978,1.58085c0.63784,0.5363 1.27765,1.07557 1.9164,1.61077c0.32427,0.27171 0.68939,0.50269 0.97656,0.81336c0.53845,0.58252 0.99506,1.23985 1.49262,1.85766c0.99042,1.2298 1.95791,2.48682 2.89702,3.75624c0.41613,0.5625 0.86851,1.10326 1.25088,1.68924c0.44301,0.6789 0.81542,1.40522 1.22473,2.10498c0.39536,0.67593 0.88013,1.3097 1.19226,2.02787c0.58654,1.34959 0.80784,3.07453 0.95275,4.51351c0.16371,1.62563 0.29048,3.2639 0.32804,4.89733c0.02939,1.27823 -0.05311,2.56201 -0.07683,3.84035c-0.77261,4.88766 -1.89273,9.74602 -2.88956,14.59268c-0.33214,1.6149 -0.70311,3.22891 -1.10181,4.82867c-0.1835,0.73628 -0.31064,1.49184 -0.54971,2.21199c-0.19291,0.58111 -0.51512,1.11419 -0.74445,1.6819c-0.24871,0.61571 -0.37972,1.28466 -0.692,1.87069c-1.03937,1.95055 -1.42637,1.83958 -3.08578,3.29201c-0.60122,0.52623 -1.14498,1.12187 -1.7596,1.63238c-0.4998,0.41512 -1.09601,0.71187 -1.58194,1.14313c-0.57121,0.50696 -1.05315,1.11043 -1.58047,1.66291c-0.46465,0.48683 -1.0004,0.91663 -1.40006,1.45807c-0.33534,0.45431 -0.44099,1.05558 -0.78691,1.50189c-0.95885,1.2371 -2.28934,2.15343 -3.64451,2.97903c-0.3589,-0.04072 -0.71957,-0.07763 -1.07651,-0.12842c-1.45365,-0.20688 -2.90234,-0.50753 -4.36696,-0.61134c-1.2757,-0.09041 -2.5657,0.02297 -3.84086,-0.07482c-0.84331,-0.06467 -1.68129,-0.23907 -2.52664,-0.26644c-0.8634,-0.02795 -1.72997,0.06718 -2.59314,0.10151c-1.36604,0.05432 -2.74082,0.0569 -4.10358,0.16609c-1.4943,0.11973 -2.98291,0.36484 -4.47831,0.46985c-1.00077,0.07027 -2.00972,0.06315 -3.01172,0.11019c-0.56344,-0.35772 -1.1419,-0.69883 -1.66649,-1.11037c-0.50215,-0.39392 -0.88728,-0.9255 -1.38437,-1.32578c-0.25321,-0.20389 -3.31937,-2.27196 -3.63822,-2.51174c-0.65324,-0.49126 -1.27253,-1.03131 -1.90809,-1.54523c-0.6234,-0.50409 -1.29132,-0.96209 -1.87435,-1.51237c-0.58303,-0.55028 -1.07995,-1.18956 -1.61863,-1.78332c-0.41166,-0.4508 -0.86418,-0.87061 -1.23691,-1.3541c-0.04758,-0.06172 -1.91078,-2.83824 -2.21119,-3.27221c-1.33645,-1.93071 -2.96212,-3.84064 -3.97134,-5.97689c-0.51031,-1.08016 -1.1874,-3.45809 -1.52706,-4.57428c-0.36992,-1.2156 -0.72505,-2.44164 -1.11186,-3.65198c-0.24798,-0.77595 -0.55175,-1.53872 -0.7619,-2.32576c-0.20906,-0.78293 -0.32991,-1.59036 -0.49504,-2.38372c-0.28491,-1.36888 -0.65056,-2.72611 -0.93445,-4.0952c-0.15296,-0.73767 -0.36921,-1.47802 -0.37794,-2.23134c-0.01719,-1.48382 0.4695,-2.48493 0.73359,-3.879c0.1192,-0.62921 0.12476,-1.28086 0.26697,-1.90528c0.18964,-0.83271 0.58777,-1.61786 0.72742,-2.46039c0.14284,-0.86173 0.05525,-1.74985 0.1159,-2.62122c0.05709,-0.82039 0.16017,-1.63999 0.23962,-2.45852c0.37913,-4.0704 0.48731,-9.84757 3.15316,-13.18133c1.37827,-1.72358 3.64555,-1.88478 5.02222,-3.54202c0.74826,-0.90076 1.26872,-1.67802 1.8527,-2.4213c0.13242,-0.04457 0.26525,-0.08939 0.39771,-0.13386z" fill="#ffffff" stroke="#000000" stroke-width="3" stroke-linecap="butt"/><path d="M358.91865,25.09533c-0.21681,-2.05969 1.27714,-3.90515 3.33683,-4.12196c2.05969,-0.21681 3.90515,1.27714 4.12196,3.33683c0.21681,2.05969 -1.27714,3.90515 -3.33683,4.12196c-2.05969,0.21681 -3.90515,-1.27714 -4.12196,-3.33683z" fill="#000000" stroke="none" stroke-width="0.5" stroke-linecap="butt"/><path d="M341.6823,126.72029c-1.49176,0.15703 -1.64878,-1.33473 -1.64878,-1.33473l-0.1079,-1.02506c-1.23769,-11.75823 -2.41417,-23.46565 -3.08333,-35.27141c0.02368,-0.50391 0.25584,-5.50469 0.27588,-5.64845c0.11516,-0.82602 0.41075,-1.61667 0.61862,-2.42436c0.66539,-2.5854 0.79769,-3.4565 1.85474,-5.9359c0.40259,-0.94431 0.90365,-1.84356 1.35715,-2.7645c0.46054,-0.93523 0.85433,-1.90672 1.38499,-2.80401c0.4394,-0.74299 1.00929,-1.40062 1.51522,-2.10001c0.59394,-0.82105 1.16617,-1.65835 1.78439,-2.46127c0.6534,-0.84859 1.2789,-1.72683 2.02896,-2.49131c0.5286,-0.53876 1.18726,-0.93228 1.78378,-1.39471c0.83243,-0.64533 1.61483,-1.36242 2.50303,-1.92854c0.66993,-0.427 1.43037,-0.69177 2.14677,-1.03515c0.92336,-0.44258 1.8286,-0.92584 2.77249,-1.32274c0.92806,-0.39025 1.9003,-0.66716 2.83706,-1.03603c2.40953,-0.94881 4.69878,-2.20307 7.105,-3.16073c0.93736,-0.37307 1.90796,-0.65697 2.85446,-1.00617c1.41501,-0.52206 2.79785,-1.12751 4.19692,-1.69091c0.08942,-0.02908 5.75977,-1.87412 5.83281,-1.89357c0.04919,-0.0131 5.97287,-1.25367 6.02613,-1.26203c0.03951,-0.0062 5.26737,-0.55676 5.61078,-0.59254c1.03929,-0.10828 2.07349,-0.2996 3.11817,-0.32212c0.90126,-0.01943 1.79826,0.12983 2.69724,0.19671c2.23313,0.16616 4.0143,0.21217 6.20614,0.76544c0.10602,0.02677 5.58452,1.90873 5.77246,1.97082c1.4976,0.49466 3.02328,0.90163 4.52006,1.3988c2.3621,0.7846 4.67972,1.75563 6.99359,2.66973c0.98249,0.38813 2.00731,0.68365 2.94579,1.16861c0.77708,0.40155 1.44791,0.98179 2.17025,1.47506c0.84262,0.57539 1.70719,1.12028 2.52464,1.73091c0.82669,0.61753 1.60249,1.30041 2.40373,1.95061c0.09298,0.08287 4.49882,4.00847 4.56598,4.07326c0.39856,0.38447 0.74056,0.82355 1.1101,1.23599c0.68148,0.76063 1.38652,1.50087 2.04295,2.28322c0.40105,0.47797 0.75147,0.99624 1.12686,1.49463c1.07123,1.4222 2.13252,2.8521 3.1729,4.29702c0.03347,0.04648 3.51269,4.87842 3.52967,4.90332c2.07894,3.048 3.97932,6.24872 5.81532,9.44764c0.76503,1.33294 1.46216,2.70372 2.19233,4.05608c0.84027,1.55629 2.38501,4.15878 2.71052,5.90462c0.16164,0.86694 -0.10606,1.76058 -0.15908,2.64087c0,0 -0.11236,1.49578 -1.60814,1.38343c-1.49578,-0.11236 -1.38343,-1.60814 -1.38343,-1.60814c0.06207,-0.65189 0.30671,-1.31202 0.18621,-1.95568c-0.21052,-1.12443 -1.90447,-4.04987 -2.38531,-4.93877c-0.72191,-1.33455 -1.40839,-2.68882 -2.16388,-4.00466c-1.79606,-3.12822 -3.65342,-6.25992 -5.68681,-9.24069c-1.11926,-1.64073 -2.3215,-3.22327 -3.48198,-4.8351c-1.0279,-1.42769 -2.07738,-2.83986 -3.13506,-4.24563c-0.34956,-0.4646 -0.674,-0.94915 -1.04797,-1.39435c-0.62952,-0.74943 -1.30709,-1.45714 -1.95988,-2.18639c-0.33191,-0.37078 -0.63562,-0.76866 -0.99422,-1.1137c-1.41267,-1.35924 -2.92812,-2.60746 -4.39125,-3.91222c-0.7514,-0.61046 -1.47825,-1.25246 -2.25422,-1.83138c-0.78521,-0.58582 -1.61802,-1.10497 -2.42536,-1.6599c-0.62793,-0.43161 -1.203,-0.95087 -1.88042,-1.2997c-0.83894,-0.43201 -1.75927,-0.68321 -2.63804,-1.02704c-2.27541,-0.89029 -4.54605,-1.85315 -6.86618,-2.62293c-1.48319,-0.4921 -2.99494,-0.89503 -4.47882,-1.38504c-0.95664,-0.3159 -1.90663,-0.65159 -2.85951,-0.97862c-0.9074,-0.31142 -1.79173,-0.69971 -2.72133,-0.93675c-1.93388,-0.49311 -3.71529,-0.5314 -5.6935,-0.6818c-0.8093,-0.06153 -1.61614,-0.20665 -2.42757,-0.18861c-0.95484,0.02124 -1.89914,0.20493 -2.84886,0.30598c-1.81965,0.19359 -3.65199,0.2891 -5.45979,0.57277c-0.96285,0.15107 -1.90748,0.40142 -2.86142,0.60112c-0.95244,0.19939 -1.91742,0.34574 -2.85774,0.59614c-1.88998,0.5033 -3.7197,1.2104 -5.58002,1.81414c-1.38738,0.55964 -2.75897,1.1602 -4.16246,1.67814c-0.92984,0.34314 -1.88382,0.62073 -2.80482,0.98693c-2.4013,0.9548 -4.68522,2.20657 -7.08936,3.15445c-0.924,0.36431 -1.88369,0.63603 -2.79948,1.02054c-0.89994,0.37785 -1.76006,0.84431 -2.64131,1.26389c-0.62111,0.29571 -1.2864,0.51109 -1.86576,0.88197c-0.79736,0.51042 -1.49136,1.16667 -2.23993,1.74629c-0.50562,0.39151 -1.07528,0.71011 -1.52262,1.16708c-0.64988,0.66387 -1.18307,1.4333 -1.74624,2.17216c-0.59811,0.78469 -1.1568,1.59867 -1.73652,2.39705c-0.45728,0.62975 -0.97884,1.21713 -1.37447,1.88731c-0.48677,0.82458 -0.84075,1.72066 -1.26281,2.58014c-0.42908,0.87378 -0.90717,1.72492 -1.29064,2.61966c-0.98393,2.29581 -1.07944,3.0852 -1.70883,5.50775c-0.18396,0.70808 -0.45702,1.39819 -0.55699,2.12291c-0.12964,0.93989 -0.0838,1.89573 -0.12805,2.84349c-0.03644,0.78049 -0.07601,1.56082 -0.11401,2.34124c0.67962,11.70445 1.83967,23.31296 3.06688,34.97164l0.1079,1.02506c0,0 0.15703,1.49176 -1.33473,1.64878z" fill="#000000" stroke="none" stroke-width="0.5" stroke-linecap="butt"/></g></g></g></svg>