<svg version="1.1" xmlns="http://www.w3.org/2000/svg" xmlns:xlink="http://www.w3.org/1999/xlink" width="2878.25006" height="1619.57958" viewBox="0,0,2878.25006,1619.57958"><g transform="translate(1119.12503,629.78979)"><g stroke-miterlimit="10"><path d="M-1119.12503,989.78979v-1619.57958h2878.25006v1619.57958z" fill="none" stroke="#000000" stroke-width="0" stroke-linecap="butt"/><g stroke-width="0"><path d="M168.09143,342.29406l28.83129,-52.41438l80.55789,-0.46797l-16.95954,52.8824z" fill="#cedce9" stroke="#000000" stroke-linecap="round"/><path d="M160.42885,339.54582c-2.78231,-0.73973 -9.40378,-1.89287 -6.50196,-3.08497c-1.58651,0.382 -3.70309,0.84839 -4.82934,0.97385c-5.33531,0.59438 -12.24973,0 -17.75522,0c-15.10386,0 -29.76748,-0.31549 -44.38795,1.18012c-6.60742,0.67592 -8.42377,-1.41139 -10.4527,1.50916c-4.1851,4.90029 -12.05916,9.27311 -17.1173,14.20628c-6.85547,6.68595 -9.51394,13.14062 -13.71662,19.8447c-4.75574,5.52096 -0.88186,16.12106 -0.88186,22.26605c0,1.64493 1.33408,4.5729 0.05991,5.78369c1.26664,0.06115 2.49005,0.11698 3.2692,0.11698c5.1786,0 10.35715,0 15.53583,0c20.59973,0 44.53385,-0.23953 64.52816,-2.89742c23.73975,-2.83542 49.46906,1.23059 73.39979,-1.31435c13.10501,-1.27641 27.39032,-0.51768 40.73346,-0.50868c6.76902,0.00455 12.56555,-1.36253 15.53578,1.18013c0.7807,0.66834 0,-1.57351 0,-2.36021c0,-1.96684 0,-3.93376 0,-5.90064c0,-11.01452 0,-22.029 0,-33.04355c0,-2.60391 -1.28359,-11.91972 1.37196,-12.92779c-0.49817,-0.01583 -1.06199,-0.04155 -1.37196,-0.05358c-2.74629,-0.10655 -4.28068,-0.02607 -6.42391,-0.83921c-3.72081,-1.41167 -16.27375,-0.34091 -21.31857,-0.34091c-19.60468,0 -39.20932,0 -58.81401,0c0,0 -4.43878,0 -4.43878,-2.36021c0,-0.09688 0.00743,-0.18976 0.02181,-0.27882c-2.12195,-0.23913 -4.26541,-0.57084 -6.44565,-1.1505zM230.10548,338.61495c11.83443,0 26.95975,-1.12053 35.04162,3.66498c4.6313,2.74225 1.57836,11.53455 1.57836,15.2171c0,11.01452 0,22.029 0,33.04352c0,1.25777 1.52888,7.49701 0,8.26089c-15.44241,7.71537 -44.54879,1.69892 -63.40575,3.95743c-23.40036,2.48854 -50.34872,-2.25357 -72.98769,1.26509c-20.60729,2.73938 -45.43368,3.03842 -66.68128,3.03842c-3.04774,0 -21.32528,1.22733 -23.30364,0c-5.67346,-3.51959 -4.43879,-6.45553 -4.43879,-10.62116c0,-7.53469 -2.51188,-16.516 1.33754,-23.75882c4.30747,-6.87117 7.32822,-13.76273 14.19836,-20.46301c2.77135,-2.70279 5.7648,-6.31811 9.34617,-8.75924c2.34347,-1.59737 6.82405,-2.89519 7.38392,-4.97164c3.79744,-5.46628 10.66001,-3.67524 18.78029,-4.59396c14.45503,-1.63543 29.4133,-1.18013 44.38795,-1.18013c5.52256,0 16.31299,-1.35148 20.20885,-0.93093c6.78186,0.73205 10.71359,3.80733 17.28661,4.72049c4.82322,0.67005 9.906,0.27341 15.53582,1.7702c0.42742,0.11367 0.85473,0.22724 1.28219,0.34091c14.81659,0 29.63318,0 44.44978,0z" fill="#000000" stroke="none" stroke-linecap="butt"/><path d="M166.93624,340.58304c-0.01439,0.08908 -0.02131,0.182 -0.02131,0.27888c0,2.36021 4.46057,2.36427 4.46057,2.36427c19.60467,0 39.31381,0.04694 58.91856,0.04694c5.04482,0 17.60916,-1.05983 21.32995,0.35187c2.14319,0.81312 3.68107,0.73661 6.42726,0.84316c0.31001,0.01202 0.87424,0.0384 1.37247,0.05424c-2.65561,1.00806 -1.35847,10.3465 -1.35847,12.95042c0,11.01452 -0.00922,22.09452 -0.00922,33.10909c0,1.96684 -0.00761,3.94331 -0.00761,5.91017c0,0.78674 0.77733,3.03207 -0.00337,2.36376c-2.97023,-2.54266 -8.77204,-1.1705 -15.54101,-1.17505c-13.34318,-0.00898 -27.66882,-0.74078 -40.77387,0.53562c-23.93073,2.54494 -49.89523,-1.49822 -73.63498,1.33724c-19.99429,2.65792 -44.02562,2.85636 -64.62544,2.85636c-5.1786,0 -10.36627,-0.00742 -15.54487,-0.00742c-0.77923,0 -2.0043,-0.0573 -3.27087,-0.11845c1.2742,-1.21077 -0.06818,-4.14712 -0.06818,-5.79202c0,-6.14504 -3.89473,-16.78599 0.86108,-22.30698c4.20264,-6.70404 6.87028,-13.20355 13.7257,-19.88945c5.05821,-4.93316 12.96554,-9.34116 17.15065,-14.24143c2.02894,-2.92055 3.85909,-0.84221 10.46648,-1.5181c14.6204,-1.49564 29.37923,-1.21321 44.48304,-1.21321c5.50534,0 12.48168,0.58847 17.81703,-0.00593c1.12613,-0.12549 3.26038,-0.59183 4.84687,-0.97382c-2.90186,1.19207 3.7459,2.34661 6.52821,3.08634c2.18036,0.57966 4.34964,0.91447 6.47158,1.15362z" fill="#484848" stroke="none" stroke-linecap="butt"/><path d="M104.70964,349.23608c0,0.79765 1.53023,1.76442 0.76752,2.39605c1.95083,0.1068 3.9131,0.33996 5.65633,0.80343c6.72107,1.78692 20.3936,8.2983 21.68278,12.60308c0.10483,0.35016 -1.79577,0.40869 -1.47387,0.71916c1.07098,1.03321 9.79901,-0.76239 10.80294,-0.46898c0.22722,0.06642 0.33882,0.16987 0.38353,0.29573c-0.04672,-0.39104 -0.08956,-0.76908 -0.08956,-1.00695c0,-0.83605 0.06214,-1.73701 -0.64101,-2.48483c-5.97697,-6.59109 -15.74243,-12.85685 -32.64987,-12.85685c0,0 -1.9952,-0.00004 -3.31037,-0.71129c-0.43859,-0.13252 -0.7796,-0.28824 -1.00823,-0.47099c-0.05878,0.45027 -0.12022,0.90862 -0.12022,1.18232zM142.43943,366.93791c0.30296,0.48324 0.21358,-0.31885 0.11291,-1.15798c-0.02107,0.36417 -0.31999,0.82773 -0.11291,1.15798zM149.73864,359.98179c5.51937,5.86966 -7.01286,14.44567 -18.39623,10.49653c-10.7403,-3.72609 -14.37725,-11.21464 -24.17904,-13.82058c-3.3114,-0.88041 -7.27922,-1.36098 -9.75295,-2.82572c-3.92006,-2.32117 -2.18236,-10.24738 5.31413,-10.24738c5.39796,0 8.05669,0.93092 13.08207,0.93092h2.21937c0,0 2.54771,0 3.78284,1.02634c13.14851,2.28219 21.58583,8.08058 27.92977,14.43985z" fill="#000000" stroke="none" stroke-linecap="butt"/><path d="M104.66514,347.97464c0.2285,0.18271 0.56976,0.33846 1.00834,0.471c1.31513,0.71127 3.31938,0.70625 3.31938,0.70625c16.90739,0 27.02535,6.40429 33.0023,12.99541c0.70318,0.74779 0.62167,1.66522 0.62167,2.50125c0,0.23787 0.03459,0.6213 0.08133,1.01236c-0.04463,-0.12594 -0.15517,-0.22998 -0.38248,-0.29642c-1.004,-0.29341 -9.80759,1.53319 -10.87857,0.50002c-0.32188,-0.31052 1.36791,-0.57628 1.26297,-0.92647c-1.28917,-4.30477 -15.02765,-10.7831 -21.74882,-12.57009c-1.74326,-0.4635 -3.71684,-0.68708 -5.66766,-0.79385c0.76269,-0.63166 -0.74934,-1.61295 -0.74934,-2.4106c0,-0.27369 0.07173,-0.73859 0.13061,-1.18881z" fill="#ffffff" stroke="none" stroke-linecap="butt"/></g><g stroke-width="0"><path d="M310.47581,340.33479l-18.23399,-53.12161l86.6115,0.4701l30.99784,52.65148z" fill="#cedce9" stroke="#000000" stroke-linecap="round"/><path d="M418.08952,337.57421c-2.34409,0.58229 -4.64862,0.9155 -6.93002,1.15571c0.01545,0.08948 0.02345,0.18278 0.02345,0.2801c0,2.37088 -4.77235,2.37088 -4.77235,2.37088c-21.0779,0 -42.15578,0 -63.23365,0c-5.42392,0 -18.92018,-1.07561 -22.92058,0.34245c-2.30429,0.81682 -3.95398,0.73599 -6.90665,0.84301c-0.33326,0.01209 -0.93946,0.03793 -1.47505,0.05382c2.85512,1.01263 1.47505,10.37059 1.47505,12.98627c0,11.06437 0,22.1287 0,33.19302c0,1.97578 0,3.95159 0,5.92732c0,0.79026 -0.83936,3.04225 0,2.3709c3.19342,-2.55416 9.42554,-1.18092 16.70324,-1.18549c14.34584,-0.00904 29.70463,-0.77121 43.79444,0.51098c25.72904,2.55645 53.3918,-1.52796 78.91549,1.32029c21.4968,2.66989 47.22949,2.91051 69.37721,2.91051c5.56784,0 11.13552,0 16.70329,0c0.8377,0 2.15306,-0.05607 3.51488,-0.1175c-1.36992,-1.21625 0.06441,-4.15749 0.06441,-5.80984c0,-6.1728 4.16498,-16.82085 -0.94813,-22.36678c-4.51849,-6.7344 -7.37674,-13.21827 -14.74737,-19.93447c-5.43824,-4.95547 -13.904,-9.34807 -18.4036,-14.27054c-2.18139,-2.93378 -4.13424,-0.83702 -11.23817,-1.51599c-15.71915,-1.50238 -31.48467,-1.18545 -47.72353,-1.18545c-5.91921,0 -13.35322,0.59706 -19.08946,0c-1.21087,-0.12603 -3.4865,-0.59454 -5.19225,-0.97827c3.1199,1.19751 -3.99917,2.35585 -6.99055,3.09893zM343.1767,336.63911c15.93002,0 31.86002,0 47.79002,0c0.45956,-0.11418 0.91901,-0.22827 1.37854,-0.34244c6.05288,-1.50356 11.51762,-1.10513 16.70328,-1.77819c7.06696,-0.9173 11.29413,-4.00649 18.58562,-4.74185c4.18862,-0.42244 15.78991,0.93515 21.72746,0.93515c16.09994,0 32.18225,-0.45735 47.72353,1.18548c8.7305,0.92289 16.10876,-0.87625 20.19156,4.61476c0.60194,2.08585 5.4192,3.38953 7.93879,4.99414c3.85051,2.45218 7.06889,6.08383 10.0485,8.79886c7.38642,6.73057 10.63418,13.6533 15.26531,20.55556c4.13869,7.27558 1.43806,16.29752 1.43806,23.8663c0,4.18448 1.32745,7.1337 -4.77235,10.6692c-2.12703,1.23287 -21.77806,0 -25.05482,0c-22.84429,0 -49.53628,-0.3004 -71.69214,-3.05217c-24.34021,-3.53457 -53.31363,1.22899 -78.47244,-1.2708c-20.27402,-2.26871 -51.56763,3.77494 -68.17045,-3.97533c-1.64376,-0.76734 0,-7.0348 0,-8.29826c0,-11.06435 0,-22.12867 0,-33.19301c0,-3.69921 -3.28235,-12.53127 1.69697,-15.28593c8.68919,-4.80715 24.95113,-3.68155 37.67487,-3.68155z" fill="#000000" stroke="none" stroke-linecap="butt"/><path d="M411.09294,338.61611c2.28138,-0.24023 4.61368,-0.57655 6.95789,-1.15884c2.99138,-0.74307 10.13871,-1.90284 7.01878,-3.10029c1.70571,0.38373 4.00033,0.85218 5.21109,0.97824c5.73627,0.59708 13.23687,0.00594 19.15591,0.00594c16.23879,0 32.1067,-0.2837 47.82576,1.21869c7.10391,0.67897 9.07159,-1.40879 11.25299,1.52497c4.49961,4.92245 13.00114,9.35037 18.43945,14.30586c7.37059,6.71614 10.23868,13.24505 14.75714,19.97942c5.11318,5.54596 0.92579,16.23504 0.92579,22.40788c0,1.65235 -1.44325,4.60198 -0.0733,5.81822c-1.36175,0.06142 -2.67888,0.11899 -3.51667,0.11899c-5.56774,0 -11.14524,0.00745 -16.71301,0.00745c-22.14782,0 -47.98501,-0.19933 -69.48179,-2.86927c-25.52371,-2.8483 -53.43934,1.21315 -79.16837,-1.3433c-14.08984,-1.28217 -29.49201,-0.54706 -43.83787,-0.53805c-7.27762,0.00457 -13.51542,-1.3738 -16.70885,1.18036c-0.83936,0.67134 -0.00362,-1.58415 -0.00362,-2.37445c0,-1.97575 -0.00818,-3.96117 -0.00818,-5.93691c0,-11.06437 -0.00992,-22.19453 -0.00992,-33.25885c0,-2.61568 1.39461,-11.99637 -1.46056,-13.009c0.53567,-0.01591 1.14229,-0.04243 1.47561,-0.05448c2.95256,-0.10702 4.60601,-0.03017 6.91025,-0.84698c4.00039,-1.41807 17.50889,-0.35346 22.93281,-0.35346c21.07796,0 42.26818,-0.04715 63.34606,-0.04715c0,0 4.79577,-0.00408 4.79577,-2.37496c0,-0.09731 -0.00744,-0.19066 -0.02291,-0.28014z" fill="#484848" stroke="none" stroke-linecap="butt"/><path d="M477.9959,347.30804c0,-0.27494 -0.06607,-0.73535 -0.12926,-1.18766c-0.24581,0.18358 -0.61244,0.33999 -1.08399,0.4731c-1.414,0.71447 -3.55913,0.71451 -3.55913,0.71451c-18.17797,0 -28.67728,6.2941 -35.10339,12.91501c-0.75599,0.75122 -0.68917,1.65623 -0.68917,2.49606c0,0.23895 -0.04606,0.6187 -0.09629,1.01151c0.04807,-0.12642 0.16806,-0.23032 0.41235,-0.29706c1.07939,-0.29474 10.4633,1.50896 11.61475,0.47109c0.34607,-0.31188 -1.69734,-0.37066 -1.58463,-0.7224c1.38606,-4.32425 16.08601,-10.86511 23.31215,-12.66011c1.87423,-0.46555 3.98397,-0.69977 6.08139,-0.80706c-0.82004,-0.63448 0.82521,-1.60564 0.82521,-2.40688zM437.30944,363.92686c-0.10823,0.84293 -0.20433,1.64865 0.1214,1.16322c0.22264,-0.33175 -0.09874,-0.79741 -0.1214,-1.16322zM429.58314,358.10245c6.82067,-6.38803 15.89201,-12.21266 30.02858,-14.50516c1.32796,-1.03098 4.06712,-1.03098 4.06712,-1.03098h2.38616c5.40301,0 8.26154,-0.93513 14.06513,-0.93513c8.05982,0 9.92809,7.96206 5.71346,10.29371c-2.6596,1.47136 -6.92562,1.95411 -10.48585,2.8385c-10.53835,2.61773 -14.44859,10.14016 -25.99598,13.8831c-12.23879,3.96702 -25.71277,-4.64781 -19.77864,-10.54401z" fill="#000000" stroke="none" stroke-linecap="butt"/><path d="M478.04398,346.04107c0.06331,0.45226 0.14043,0.91925 0.14043,1.1942c0,0.80125 -1.62565,1.78699 -0.80565,2.42151c-2.0974,0.10724 -4.21931,0.33183 -6.09355,0.79742c-7.22625,1.79506 -21.99713,8.30271 -23.38317,12.62694c-0.11283,0.35177 1.70396,0.61874 1.35787,0.93066c-1.15146,1.03784 -10.6166,-0.79702 -11.69604,-0.50228c-0.24439,0.06675 -0.36323,0.17127 -0.41122,0.29777c0.05027,-0.39283 0.08744,-0.77801 0.08744,-1.01693c0,-0.8398 -0.08765,-1.76138 0.66838,-2.51255c6.42609,-6.62094 17.30438,-13.05421 35.48229,-13.05421c0,0 2.15486,0.00505 3.56883,-0.70944c0.47154,-0.13315 0.83844,-0.2896 1.08412,-0.47313z" fill="#ffffff" stroke="none" stroke-linecap="butt"/></g><g><path d="M-33.43925,352.24104l2.9944,-189.02164l226.26453,-1.87151l2.2458,178.91554z" fill="#a18c5d" stroke="#000000" stroke-width="1" stroke-linecap="round"/><path d="M4.17793,351.11814l-1.8715,-168.80943l20.21221,-11.97761l41.92163,-6.36311l38.17863,-0.3743l53.89924,8.98321l8.98321,1.4972l4.1173,168.43513z" fill="#f6fffe" stroke="#000000" stroke-width="1" stroke-linecap="round"/><path d="M22.51864,349.99525l-4.49161,-154.21172l22.83232,-8.6089l33.68702,-3.743l35.55853,-0.3743l31.44123,7.486l4.4916,153.46312z" fill="#3e433f" stroke="#000000" stroke-width="1" stroke-linecap="round"/><path d="M147.16064,335.02323l-84.21757,8.60891l-4.1173,-151.21732l82.34606,-1.1229z" fill="#5e685f" stroke="#000000" stroke-width="1" stroke-linecap="round"/><path d="M146.78635,322.67133l-71.49136,7.1117l-1.1229,-125.7649l67.74835,-2.9944l2.2458,118.27889z" fill="#d48246" stroke="#000000" stroke-width="1" stroke-linecap="round"/><path d="M208.17158,162.0965l-272.86491,1.8715l-5.6145,-11.97761l283.71962,-1.1229z" fill="#2a3531" stroke="#000000" stroke-width="1" stroke-linecap="round"/><path d="M201.90206,16.82589l0.7486,-10.10611l241.33011,12.72621v3.27512l9.35751,300.84386l-255.55353,14.59771l-2.6201,-175.69188l2.9944,-0.3743l9.35751,0.3743l6.7374,-11.22901l-17.59211,-0.3743l-187.15014,1.1229l1.1229,-145.60281z" fill="#fefefe" stroke="#000000" stroke-width="1" stroke-linecap="round"/><path d="M248.59602,335.16827l-1.4972,-159.07762l163.19493,-2.6201l2.6201,151.59162z" fill="#626f65" stroke="#000000" stroke-width="1" stroke-linecap="round"/><path d="M217.1548,165.23593l217.46847,-6.7374l-2.99441,15.72061l-207.73666,2.6201z" fill="#2a3531" stroke="#000000" stroke-width="1" stroke-linecap="round"/><path d="M394.19883,173.84485l2.6201,103.68118l-128.7593,5.61451l-2.9944,-107.79849z" fill="#345367" stroke="#000000" stroke-width="1" stroke-linecap="round"/><path d="M202.65066,16.07727l-229.07178,-11.60331l-10.48041,-13.84911l214.84837,14.97201l-4.1173,-11.97761l303.65111,13.47481l-13.10051,16.09492l-35.18422,-4.49161l-226.45168,-11.60331z" fill="#1c1e19" stroke="#000000" stroke-width="1" stroke-linecap="round"/><path d="M174.67171,14.01863l0.7486,56.89364l-119.40179,-3.743l1.87151,-58.39085z" fill="#5c6957" stroke="#000000" stroke-width="1" stroke-linecap="round"/><path d="M146.22489,12.14712v60.63665l-57.64224,-3.743l0.7486,-60.26234z" fill="#345367" stroke="#000000" stroke-width="1" stroke-linecap="round"/><path d="M200.62553,31.6104c0.64312,1.07187 1.71658,0.42796 1.71658,0.42796c0.35412,-0.21537 0.68718,-0.47388 1.06385,-0.64679c0.79333,-0.36416 2.745,-0.77855 3.39128,-0.83988c1.45108,-0.13771 2.92079,0.00462 4.3784,0.00462c1.39389,0 2.79555,-0.07832 4.18741,-0.00323c1.74817,0.09432 2.07223,0.35652 3.87514,0.69067c1.63528,0.30308 3.04506,0.31036 4.58764,0.99349c0.6063,0.2685 1.19311,0.62104 1.67765,1.0737c0.58966,0.55087 0.94352,1.31994 1.50703,1.89754c0.60063,0.61565 1.33589,1.09044 1.97463,1.66644c1.23209,1.11106 2.40389,2.29805 3.61662,3.4302c0.59103,0.55176 1.22045,1.0704 1.77736,1.65658c0.5569,0.58618 1.04431,1.23994 1.56479,1.85868c1.12467,1.32533 1.96322,2.84747 2.83089,4.35078c0.41365,0.71669 0.81315,1.44663 1.21979,2.16732c0.28256,0.50078 0.62535,0.9751 0.85244,1.50336c0.29608,0.68875 0.41255,1.45062 0.71368,2.13718c0.26727,0.60939 0.67467,1.15198 0.98716,1.73947c0.95425,1.79399 1.27597,2.33209 1.70658,4.32099c0.17018,0.78603 0.23195,1.59627 0.3489,2.39197c0.11734,0.79837 0.28841,1.59504 0.35516,2.39922c0.09228,1.11178 0.0105,3.40223 0.04845,4.55964c0.0277,0.84469 0.09805,1.69187 0.14759,2.53556c0.12732,2.16813 0.409,4.34018 0.51766,6.50734c0.0409,0.81577 0.01414,1.63669 0.02278,2.45343c0.00509,0.48069 0.04344,0.96384 0.01584,1.44376c-0.09048,1.57333 -0.31035,3.14208 -0.45079,4.71174c-0.17818,0.73604 -0.2892,1.49457 -0.53643,2.21038c-0.36622,1.06034 -1.3681,2.47818 -1.91529,3.37699c-0.20284,0.33318 -0.32782,0.72227 -0.58626,1.01443c-0.277,0.31314 -0.65418,0.524 -0.99249,0.76962c-0.64365,0.46729 -1.28179,0.95047 -1.95654,1.3716c-0.54158,0.33802 -1.13214,0.5962 -1.69077,0.90523c-0.99694,0.5515 -1.98271,1.13734 -3.01286,1.624c-0.77784,0.36747 -1.59262,0.66711 -2.35103,1.07318c-0.40394,0.21628 -0.70451,0.61357 -1.12781,0.78898c-0.3678,0.15241 -0.79221,0.09802 -1.18398,0.16887c-0.78319,0.14164 -1.55926,0.33901 -2.34433,0.46987c-0.62065,0.10346 -1.25283,0.1448 -1.87566,0.23417c-0.44932,0.06447 -0.89186,0.19323 -1.34444,0.22817c-1.3471,0.10399 -2.70783,-0.00375 -4.05893,-0.00362c-2.83497,0.00028 -5.6637,-0.24095 -8.49715,-0.22992c-0.10204,-0.02304 -3.03077,-0.65419 -3.38434,-0.83106c-0.52249,-0.26137 -0.968,-0.66113 -1.41893,-1.03259c-1.91248,-1.57544 -3.39625,-3.46937 -5.07013,-5.27473c-0.55748,-0.60126 -1.19277,-1.13427 -1.73062,-1.75316c-0.53504,-0.61566 -0.98004,-1.30891 -1.48772,-1.94731c-0.37149,-0.46713 -0.84732,-0.86062 -1.15424,-1.3725c-0.42156,-0.70309 -0.61421,-1.52896 -1.01604,-2.24351c-0.29417,-0.52312 -0.77998,-0.92713 -1.0657,-1.45491c-0.20998,-0.38789 -0.26073,-0.84499 -0.40602,-1.26146c-0.54341,-1.5577 -1.10737,-3.11797 -1.58808,-4.69615c-0.47953,-1.5743 -1.01249,-3.14355 -1.41241,-4.73993c-0.19808,-0.7907 -0.3263,-1.60179 -0.49005,-2.40031c-0.08122,-0.39606 -0.20249,-0.78795 -0.24647,-1.18986c-0.08749,-0.79956 -0.09842,-1.61005 -0.14809,-2.41284c-0.05635,-0.91066 -0.25229,-4.03958 -0.31012,-4.96142c-0.00005,-0.0338 -0.0062,-4.86795 -0.00423,-4.91326c0.1303,-2.98519 0.79875,-5.95352 1.24408,-8.89892c0.1229,-0.81289 0.17506,-1.63945 0.31966,-2.44875c0.14274,-0.79888 0.36347,-1.58501 0.54541,-2.37589c0.13815,-0.60054 0.19635,-1.22812 0.41855,-1.8029c0.3982,-1.03008 1.4739,-2.22014 2.02774,-3.10852c0.45096,-0.72335 0.86229,-1.47562 1.24538,-2.23709c0.39449,-0.78411 0.76392,-1.5851 1.09062,-2.39979c0.16865,-0.42055 0.25017,-0.87249 0.39629,-1.30139c0.35175,-1.03243 0.68152,-1.75821 1.56196,-2.57082c0.12315,-0.11366 0.39209,-0.29767 0.71778,-0.4948c-0.00376,0.20376 0.05198,0.43483 0.20517,0.69014z" fill="#ffffff" stroke="none" stroke-width="0.5" stroke-linecap="butt"/><path d="M277.07803,96.62737c1.35299,0.02456 2.70905,-0.05115 4.06208,-0.01782c1.33986,0.03301 2.69115,0.15035 4.02869,0.23578c0.80118,0.05118 1.67703,0.04649 2.47217,0.15721c0.81304,0.11321 1.61213,0.395 2.41961,0.54275c1.24415,0.22765 2.52053,0.25689 3.76601,0.47708c0.56044,0.09908 1.11406,0.23236 1.66501,0.37581c-0.16453,-0.01438 -0.32827,-0.01941 -0.48871,0.00995c-0.44657,0.08172 -0.82951,0.38576 -1.26976,0.4966c-0.49278,0.12407 -1.00752,0.13889 -1.51073,0.20965c-1.55341,0.21844 -3.11103,0.58005 -4.67224,0.73317c-0.43858,0.04301 -0.9149,0.00617 -1.35558,0.0067c-0.58555,0.00069 -1.20999,0.05615 -1.79181,-0.00987c-1.26398,-0.14344 -2.26138,-0.52355 -3.37711,-1.08713c-0.56762,-0.28672 -1.0876,-0.67056 -1.65657,-0.9546c-0.51438,-0.25678 -1.09524,-0.37971 -1.58764,-0.67646c-0.16585,-0.09995 -0.41257,-0.27877 -0.70341,-0.49881z" fill="#ffffff" stroke="none" stroke-width="0.5" stroke-linecap="butt"/><path d="M323.83297,17.27993c0.73078,-0.16271 1.4733,-0.28914 2.19452,-0.49c0.68669,-0.19124 1.32638,-0.5603 2.0279,-0.6868c0.76408,-0.13778 1.55404,-0.06476 2.32964,-0.1c0.80431,-0.03655 1.61025,-0.11734 2.41539,-0.11714c1.64685,0.00041 3.29583,0.15685 4.94082,0.23518c0.01092,0.00052 4.95578,0.23529 4.98024,0.23599c0.53595,0.01516 1.07561,-0.03776 1.61058,-0.00205c0.61725,0.0412 1.22818,0.17047 1.84368,0.23245c0.7989,0.08045 1.61358,0.05428 2.40406,0.19518c0.78203,0.13939 1.53279,0.42942 2.29799,0.64265c1.415,0.39431 2.83837,0.78023 4.2567,1.16239c2.11673,1.11446 4.25892,2.29228 6.23552,3.6461c0.67038,0.45916 1.29519,0.98691 1.94176,1.47903c1.73498,1.32052 2.18478,1.57941 3.75091,3.08785c0.58887,0.56718 1.13669,1.18016 1.70396,1.76895c0.57819,0.60012 1.15804,1.20341 1.73725,1.80254c0.29405,0.30416 0.63298,0.5721 0.88605,0.91112c0.47451,0.63569 0.8598,1.3372 1.28995,2.00371c0.85624,1.32672 1.68682,2.67812 2.48789,4.03887c0.35496,0.60297 0.74824,1.18812 1.06717,1.8109c0.36951,0.72155 0.66384,1.48286 0.99764,2.22162c0.32243,0.7136 0.73819,1.39464 0.97342,2.14154c0.44204,1.40358 0.48155,3.1422 0.47503,4.58845c-0.00737,1.63384 -0.05279,3.27638 -0.18643,4.90476c-0.10458,1.27428 -0.32102,2.54237 -0.47843,3.81121c-1.28002,4.77993 -2.90258,9.49433 -4.40129,14.21001c-0.49937,1.57126 -1.03726,3.13757 -1.60124,4.6868c-0.25957,0.71302 -0.4651,1.45112 -0.77825,2.14229c-0.25268,0.55772 -0.62893,1.05414 -0.91643,1.59473c-0.3118,0.58629 -0.51212,1.23785 -0.88403,1.78797c-1.23785,1.83103 -1.61111,1.68016 -3.41344,2.95089c-0.653,0.4604 -1.25613,0.99585 -1.92082,1.43921c-0.54051,0.36052 -1.16451,0.59322 -1.69292,0.97125c-0.62114,0.44438 -1.16361,0.99408 -1.74586,1.48832c-0.51306,0.43551 -1.09086,0.80687 -1.545,1.3035c-0.38106,0.41671 -0.54907,1.00362 -0.93981,1.41126c-1.08309,1.12993 -2.50219,1.90194 -3.93634,2.58114c-0.35267,-0.07807 -0.70749,-0.15253 -1.05715,-0.24041c-1.42401,-0.35792 -2.83326,-0.80857 -4.27897,-1.06513c-1.25923,-0.22346 -2.55401,-0.24574 -3.81192,-0.47648c-0.83191,-0.1526 -1.64703,-0.41376 -2.48487,-0.52947c-0.85573,-0.11818 -1.7275,-0.11429 -2.58952,-0.17051c-1.36422,-0.08898 -2.73172,-0.23033 -4.09842,-0.2644c-1.49862,-0.03736 -3.00471,0.05057 -4.50289,-0.00154c-1.00263,-0.03488 -2.00529,-0.14758 -3.00671,-0.20569c-0.5229,-0.41474 -1.06247,-0.81453 -1.5411,-1.27872c-0.45815,-0.44432 -0.78552,-1.0133 -1.23798,-1.46342c-0.23047,-0.22928 -3.0633,-2.60696 -3.35529,-2.8788c-0.59822,-0.55694 -1.15758,-1.15886 -1.73585,-1.73649c-0.5672,-0.56658 -1.18351,-1.09198 -1.70573,-1.70027c-0.52222,-0.60829 -0.94949,-1.29608 -1.42305,-1.94297c-0.36221,-0.49142 -0.76829,-0.95629 -1.08836,-1.47614c-0.04086,-0.06636 -1.60317,-3.02267 -1.85649,-3.48571c-1.12699,-2.06001 -2.54379,-4.12962 -3.32384,-6.35978c-0.39443,-1.12765 -0.81887,-3.56339 -1.03982,-4.709c-0.24063,-1.24765 -0.46547,-2.50413 -0.72345,-3.74831c-0.16539,-0.79765 -0.38764,-1.58802 -0.51425,-2.39274c-0.12595,-0.80051 -0.16161,-1.61616 -0.24278,-2.42244c-0.14005,-1.39118 -0.36161,-2.77923 -0.50062,-4.17052c-0.0749,-0.74963 -0.21246,-1.50855 -0.14228,-2.25864c0.13824,-1.47747 0.72705,-2.42213 1.13563,-3.78089c0.18441,-0.61327 0.25816,-1.26076 0.46495,-1.86686c0.27577,-0.80828 0.7539,-1.54744 0.98098,-2.37072c0.23226,-0.84204 0.23813,-1.73445 0.38966,-2.59469c0.14266,-0.80991 0.33097,-1.61421 0.49567,-2.41993c0.80315,-4.00835 1.51551,-9.74245 4.5157,-12.77882c1.55113,-1.56983 3.82283,-1.4928 5.36542,-2.99682c0.83844,-0.81748 1.43741,-1.53599 2.09599,-2.21405c0.13636,-0.03046 0.27315,-0.06113 0.40954,-0.09149z" fill="#ffffff" stroke="none" stroke-width="0.5" stroke-linecap="butt"/><path d="M399.11207,133.99734c2.80174,3.81576 5.28683,7.85796 7.72149,11.91572c0.844,1.40668 1.75568,2.77801 2.53443,4.22184c0.61467,1.13962 1.04072,2.3738 1.56224,3.55895c0.58076,1.31978 1.14843,2.6484 1.68195,3.98798c0.60639,1.52251 1.31837,3.0097 1.82177,4.56931c0.24742,0.76656 0.38612,1.56545 0.58411,2.34624c0.18809,0.74175 0.51125,1.46143 0.57375,2.22409c0.00717,0.08748 -0.11905,0.41862 -0.16342,0.8826c-1.60687,-0.97434 -3.33025,-1.61589 -4.94092,-2.68967c-0.14811,-0.06007 -2.45897,-1.0018 -2.61148,-1.04355c-0.50244,-0.13754 -1.02757,-0.17203 -1.54031,-0.26397c-0.75401,-0.1352 -1.50871,-0.2672 -2.25989,-0.41732c-0.83412,-0.16669 -1.65544,-0.39978 -2.4956,-0.53276c-0.78577,-0.12437 -1.58795,-0.12032 -2.37476,-0.23797c-0.77103,-0.1153 -1.5302,-0.2996 -2.29314,-0.45994c-0.66059,-0.13883 -3.92001,-0.88213 -4.2913,-0.95246c-2.25019,-0.42624 -4.54628,-0.63293 -6.80388,-1.0246c-0.14588,-0.02531 -4.8747,-0.92471 -4.96571,-0.93655c-0.83967,-0.10924 -1.59095,-0.09539 -2.43419,-0.17225c-1.33801,-0.12196 -2.66452,-0.34981 -4.00045,-0.49271c-2.93415,-0.31385 -5.8796,-0.51632 -8.82271,-0.72221c-1.63621,-0.18675 -3.37725,-0.34176 -5.00812,-0.57048c-0.34193,-0.04796 -4.7323,-0.79989 -5.00255,-0.82911c-0.46038,-0.04979 -0.8266,0.00603 -1.28967,0.00553c-1.29458,-0.00142 -2.58935,0.00174 -3.88393,0.00597c-3.34719,0.01093 -6.69108,0.0839 -10.0368,0.18345c-2.50619,0.07457 -5.0947,0.19959 -7.59936,0.31184c-2.50311,0.11218 -5.02013,0.14703 -7.52078,0.30392c-2.98242,0.18712 -5.98112,0.44769 -8.94983,0.78734c-3.76239,0.43086 -7.52269,0.83988 -11.29997,1.11963c-0.11118,0.00824 -5.00429,0.36942 -5.06523,0.37727c-0.63489,0.08175 -1.15592,0.23968 -1.7832,0.36732c-2.25329,0.45851 -2.89623,0.48821 -5.05978,1.36231c-0.54589,0.22055 -1.04635,0.53966 -1.56896,0.81081c-0.73969,0.38378 -1.47903,0.76775 -2.21818,1.15258c-0.76276,0.39712 -1.5497,0.75051 -2.28782,1.19173c-1.35343,0.80901 -2.59175,1.79547 -3.88632,2.69566c-0.70085,0.48734 -1.42574,0.9413 -2.10231,1.46182c-0.66429,0.51107 -1.25789,1.10863 -1.91601,1.62762c-0.64218,0.50642 -1.32191,0.96292 -1.98264,1.4449c-2.09244,1.52635 -4.18287,3.05242 -6.25883,4.60114c-1.09141,1.91557 -2.15621,3.83599 -3.21594,5.76912c-0.40134,0.73211 -0.80957,1.45973 -1.20442,2.19536c-0.29658,0.55256 -0.72582,1.12645 -0.99055,1.69412c-0.17208,-0.5953 -0.72136,-1.16957 -0.91307,-1.55216c-0.78578,-1.56816 -1.01652,-2.34895 -1.60549,-3.97072c-0.27911,-0.76853 -0.58819,-1.52844 -0.83858,-2.3068c-0.53279,-1.65627 -0.82808,-2.97589 -1.11962,-4.69048c-0.28078,-1.65132 -0.37553,-3.33545 -0.68962,-4.98076c-0.15663,-0.82048 -0.44132,-1.61419 -0.60772,-2.43275c-0.29264,-1.43954 -0.38641,-2.91577 -0.62441,-4.36534c-0.13518,-0.8233 -0.31861,-1.63976 -0.45598,-2.4627c-0.31255,-1.87239 -0.35902,-2.33691 -0.47981,-3.63108c3.65147,-3.91452 5.76249,-9.4921 9.66501,-12.97583c1.3594,-1.21353 3.21814,-2.24953 4.66311,-3.44571c0.03484,-0.03289 3.63417,-3.43245 3.67915,-3.47637c0.5152,-0.50306 0.94874,-1.09749 1.51661,-1.54023c0.35462,-0.27648 0.8032,-0.40651 1.2137,-0.59006c0.71062,-0.31775 1.43192,-0.6134 2.14939,-0.91536c0.10892,-0.04584 3.6292,-1.50383 4.03526,-1.70601c0.57909,-0.28833 1.10339,-0.68312 1.68844,-0.95915c0.78345,-0.36965 1.64586,-0.56818 2.40979,-0.97665c0.43474,-0.23245 0.71199,-0.70685 1.15177,-0.92961c0.58804,-0.29785 1.24988,-0.42382 1.88251,-0.60897c1.2485,-0.3654 2.53782,-0.58794 3.78762,-0.94887c0.71365,-0.2061 1.39931,-0.50774 2.11493,-0.7069c0.55123,-0.15341 3.41744,-0.73911 4.01735,-0.86322c1.60324,-0.33169 3.19509,-0.7457 4.81218,-1.00149c1.22751,-0.19416 2.4851,-0.13187 3.72383,-0.232c0.77717,-0.06282 1.5535,-0.15759 2.32929,-0.23561c2.02841,0.00121 4.03,0.16048 6.05681,0.23396c1.37048,0.04968 2.74786,-0.0127 4.11873,0.02454c3.74736,0.10178 7.48494,0.50354 11.22472,0.71428c1.65738,0.0934 3.32819,0.08497 4.98431,0.19856c1.21404,0.08328 3.3718,0.41479 4.49581,0.47089c0.80498,0.04018 4.26719,-0.04187 5.09503,-0.0593c0.85839,-0.01807 1.72266,0.01567 2.57842,-0.05392c1.33387,-0.10846 2.97557,-0.4899 4.34768,-0.58594c1.29196,-0.09043 2.59381,0.00868 3.88893,0.01055c1.3218,0.00848 3.63002,0.01415 4.95432,0.07124c0.83699,0.03608 1.67237,0.13693 2.50971,0.16372c0.81005,0.02591 1.62402,-0.05624 2.43272,-0.00272c0.49088,0.03249 0.96905,0.17612 1.45342,0.26214c1.23001,0.21846 2.46328,0.43831 3.68051,0.71935c1.60112,0.36968 3.22371,0.66652 4.80609,1.10961c0.54428,0.15241 1.06607,0.37904 1.59901,0.5673c0.77139,0.2725 1.55225,0.52327 2.31558,0.81759c1.28483,0.49539 2.50719,1.14796 3.78609,1.65847c1.44222,0.5757 2.93453,1.02359 4.39031,1.56408c2.33726,0.86776 4.65446,1.80506 6.97952,2.70508c0,0 0.18982,0.07363 0.44587,0.0847z" fill="#ffffff" stroke="none" stroke-width="0.5" stroke-linecap="butt"/><path d="M354.51325,95.91753c0.13153,0.03802 0.26238,0.07974 0.39153,0.12568c0.67276,0.23931 1.28584,0.62678 1.92873,0.93755c1.47869,0.71479 2.94311,1.47208 4.37983,2.26788c0.70443,0.38887 1.43921,0.73144 2.11464,1.16874c0.67543,0.4373 1.2872,0.96978 1.93061,1.45295c1.3243,0.99448 2.67468,1.96213 3.97705,2.98516c1.83485,1.4413 3.53328,3.0703 5.38726,4.48674c1.31739,1.00649 2.77663,1.82514 4.07617,2.85458c1.21751,0.96447 2.30054,2.09141 3.45137,3.13454c1.22289,1.10846 2.49065,2.17278 3.66963,3.32785c1.73823,1.70298 3.35488,3.55879 5.04184,5.31373c1.13703,1.18285 2.35154,2.29807 3.41273,3.54942c0.5222,0.61578 0.96396,1.29673 1.44649,1.94406c0.22113,0.29666 0.34291,0.58246 0.56415,0.87904c-1.27164,-0.49806 -2.54477,-0.99186 -3.8242,-1.46688c-1.43896,-0.53425 -2.91345,-0.97215 -4.33894,-1.54135c-2.63697,-1.05295 -5.17153,-2.34042 -7.92005,-3.11195c-0.05356,-0.01503 -4.84231,-1.11849 -4.94,-1.14102c-1.25961,-0.29054 -2.533,-0.51882 -3.80625,-0.74217c-0.55615,-0.09755 -1.10567,-0.25029 -1.66895,-0.28935c-0.85415,-0.05922 -1.71286,0.02392 -2.5686,-0.00408c-0.82846,-0.02711 -1.65333,-0.12535 -2.48147,-0.16089c-1.38167,-0.0593 -3.66296,-0.06128 -5.04818,-0.07021c-1.34958,-0.00195 -2.60243,-0.09896 -3.94875,-0.00524c-1.47387,0.10259 -2.92005,0.47288 -4.39259,0.59298c-0.80541,0.06569 -1.61586,0.03149 -2.42378,0.04778c-0.68108,0.01372 -4.30333,0.0992 -5.01122,0.0637c-0.39047,-0.01958 -3.86043,-0.42527 -4.43286,-0.46461c-0.14245,-0.00979 -4.83676,-0.18886 -5.01582,-0.19895c-3.76405,-0.2121 -7.41248,-0.60609 -11.18424,-0.70854c-1.36766,-0.03714 -2.73507,0.01496 -4.10234,-0.03482c-2.09528,-0.0763 -4.15553,-0.2396 -6.25303,-0.23847c-0.80174,0.07972 -1.602,0.17289 -2.40509,0.23768c-1.28204,0.10343 -2.58,0.044 -3.85084,0.24226c-0.08306,0.01296 -4.84731,0.99717 -4.98346,1.02534c-0.73922,0.15295 -3.52377,0.71705 -4.17608,0.89791c-0.72636,0.2014 -1.42143,0.50399 -2.14553,0.71336c-1.99095,0.57565 -4.2849,0.82755 -6.16377,1.75663c-0.46357,0.22923 -0.75935,0.71936 -1.21525,0.96346c-0.70563,0.37781 -1.50893,0.54109 -2.23351,0.88115c-0.59479,0.27914 -1.12753,0.67682 -1.71534,0.9704c-1.97721,0.9875 -4.11515,1.65998 -6.12193,2.58654c-0.55258,0.25513 -1.14186,0.46139 -1.62622,0.82995c-0.66979,0.50966 -1.19157,1.18806 -1.79696,1.77276c-1.1847,1.14421 -2.39529,2.25971 -3.59239,3.39093c-1.41996,1.17391 -3.30673,2.21155 -4.63199,3.4141c-3.43051,3.11288 -5.56952,7.68815 -8.45846,11.42836c-0.40648,-4.61822 -0.64812,-9.25881 -0.31052,-13.8905c0.06171,-0.84656 0.24643,-3.91143 0.45073,-4.78598c0.17928,-0.76744 0.52843,-1.4864 0.78968,-2.22994c0.2631,-0.74882 0.45061,-1.52943 0.78296,-2.25019c0.32786,-0.71102 0.77682,-1.36139 1.18797,-2.02772c0.34422,-0.55787 0.71859,-1.09771 1.07726,-1.6464c0.44022,-0.67343 0.83324,-1.38157 1.31931,-2.0227c0.99355,-1.31052 2.18562,-2.46149 3.24729,-3.71746c1.50304,-1.7781 3.03876,-3.61104 4.43933,-5.47093c0.36598,-0.48601 2.36055,-3.39437 2.76135,-3.97613c2.92685,-2.06705 5.84167,-4.1568 8.47883,-6.59254c0.56366,-0.52061 1.04772,-1.12815 1.62702,-1.63129c0.56592,-0.49152 1.19478,-0.90885 1.80161,-1.34887c0.35064,-0.25426 0.68524,-0.54122 1.07182,-0.73656c1.45049,-0.73292 3.00166,-1.25614 4.50012,-1.8852c1.5104,-0.63407 2.98282,-1.37992 4.53314,-1.90895c0.76164,-0.25991 1.55788,-0.41275 2.33543,-0.62025c0.76718,-0.20473 1.51908,-0.4896 2.30231,-0.62019c0.79415,-0.13241 1.60976,-0.09406 2.41141,-0.16866c1.42264,-0.13238 2.83616,-0.38714 4.25726,-0.5352c1.65767,-0.17271 3.3296,-0.25654 4.98833,-0.41867c1.25931,-0.12309 2.51625,-0.31635 3.77174,-0.47371c3.94681,-0.20284 7.91016,-0.31812 11.86351,-0.23723c1.03345,0.85694 2.8954,2.39067 3.75439,2.91116c0.53582,0.32467 1.16802,0.46682 1.72823,0.74735c1.64991,0.8262 1.68582,1.16788 3.49355,1.7294c2.13215,0.66229 2.32691,0.53484 4.41319,0.53698c0.50584,0.00052 1.01594,0.04565 1.51948,-0.00261c0.78781,-0.0755 1.5655,-0.24781 2.34824,-0.36471c0.82118,-0.12264 1.64631,-0.23139 2.46801,-0.3505c0.60106,-0.08713 1.21438,-0.1189 1.80382,-0.26527c0.38393,-0.09533 0.708,-0.3826 1.09729,-0.45291c0.47834,-0.08639 0.98716,0.1086 1.45929,-0.00698c0.59186,-0.14489 1.11009,-0.5036 1.66482,-0.75571c0.42117,-0.20008 0.84526,-0.39653 1.26787,-0.59563z" fill="#ffffff" stroke="none" stroke-width="0.5" stroke-linecap="butt"/><path d="M291.20116,66.59649c0,-2.07107 1.67893,-3.75 3.75,-3.75c2.07107,0 3.75,1.67893 3.75,3.75c0,2.07107 -1.67893,3.75 -3.75,3.75c-2.07107,0 -3.75,-1.67893 -3.75,-3.75z" fill="#000000" stroke="none" stroke-width="0.5" stroke-linecap="butt"/><path d="M367.89779,54.28411c0,-2.07107 1.67893,-3.75 3.75,-3.75c2.07107,0 3.75,1.67893 3.75,3.75c0,2.07107 -1.67893,3.75 -3.75,3.75c-2.07107,0 -3.75,-1.67893 -3.75,-3.75z" fill="#000000" stroke="none" stroke-width="0.5" stroke-linecap="butt"/><path d="M213.02507,-18.56233c0,-1 1,-1 1,-1l0.56866,0.05673c2.24988,0.79402 4.4379,1.7822 6.67665,2.62247c1.77194,0.80633 3.58034,1.56362 5.32572,2.42547c2.99281,1.47781 5.90607,3.14934 8.85137,4.72017c2.77987,1.4826 5.5492,2.98479 8.32135,4.48175c1.767,0.95418 3.57883,1.85821 5.31331,2.87005c1.00724,0.58759 1.96016,1.26372 2.94003,1.8959c1.68059,1.08425 3.36119,2.16851 5.04178,3.25276c1.68059,1.08425 3.36178,2.1676 5.04178,3.25276c0.54173,0.34992 1.0613,0.73666 1.62461,1.05067c1.13098,0.63045 2.34128,1.10667 3.51147,1.66097c2.98603,1.41443 5.9714,2.80628 9.00143,4.12404c2.35585,1.02456 4.62775,2.20181 6.92163,3.35779c1.07018,0.53931 2.78259,1.32918 3.69735,2.10576c0.42771,0.3631 0.70834,0.87027 1.06251,1.30541c0,0 0.6247,0.78087 -0.15617,1.40556c-0.78087,0.6247 -1.40556,-0.15617 -1.40556,-0.15617c-0.27684,-0.35363 -0.48813,-0.77027 -0.83053,-1.06089c-0.67242,-0.57073 -2.52558,-1.44017 -3.26718,-1.8134c-2.26086,-1.13783 -4.49802,-2.30085 -6.8195,-3.30991c-3.04998,-1.32572 -6.05473,-2.72708 -9.06015,-4.1507c-0.04743,-0.02247 -3.59008,-1.69978 -3.62758,-1.72069c-0.60132,-0.33515 -1.15791,-0.74493 -1.73658,-1.11784c-1.68116,-1.08337 -3.36119,-2.16851 -5.04178,-3.25276c-1.68059,-1.08425 -3.36119,-2.16851 -5.04178,-3.25276c-0.95808,-0.61812 -1.88883,-1.28073 -2.87383,-1.85498c-1.14067,-0.66501 -2.32395,-1.25407 -3.48575,-1.88144c-2.34641,-1.26706 -4.69283,-2.53413 -7.03924,-3.80119c-2.76908,-1.49531 -5.55013,-2.96854 -8.32692,-4.44949c-1.16727,-0.62254 -2.3154,-1.28234 -3.50158,-1.86806c-1.70634,-0.84257 -3.47445,-1.58183 -5.20628,-2.37128c-2.20462,-0.82598 -4.35867,-1.80556 -6.57466,-2.5834l0.0954,0.05673c0,0 -1,0 -1,-1z" fill="#000000" stroke="none" stroke-width="0.5" stroke-linecap="butt"/><path d="M393.58847,-76.95691c0.42014,0.90746 -0.48732,1.3276 -0.48732,1.3276l-0.76428,0.35385c-4.83562,2.23882 -9.66241,4.48658 -14.45735,6.81139c-0.57753,0.27894 -1.17268,0.524 -1.73258,0.83683c-0.92843,0.51873 -1.74975,1.20941 -2.62544,1.81293c-1.64678,1.13495 -3.29357,2.26989 -4.94035,3.40484c-2.19571,1.51326 -4.39142,3.02652 -6.58714,4.53978c-1.08186,0.74561 -2.20926,1.42894 -3.24654,2.23542c-0.49566,0.38537 -0.94304,0.82912 -1.41485,1.24336l-3.00704,2.63775c-3.00011,2.63168 -5.99997,5.26365 -9.00059,7.89475c-1.41655,1.38884 -2.83337,2.7774 -4.25018,4.16597c-0.93318,0.91457 -1.94489,1.75501 -2.80179,2.74142c-0.8569,0.98641 -1.54761,2.1057 -2.32271,3.1576c-1.18827,1.61262 -2.35987,3.23971 -3.56583,4.83913c-1.99553,2.6466 -4.15831,5.18611 -6.08353,7.88386c-0.59229,0.82996 -1.06692,1.73789 -1.60098,2.60647c-1.39674,2.27162 -2.79347,4.54323 -4.19021,6.81485c-6.25864,10.17889 -12.50162,20.36761 -18.79107,30.52749c0,0 -0.52635,0.85027 -1.37662,0.32391c-0.85027,-0.52635 -0.32391,-1.37662 -0.32391,-1.37662c6.28839,-10.15817 12.53031,-20.34516 18.78789,-30.52234c1.39674,-2.27162 2.79347,-4.54323 4.19021,-6.81485c0.55252,-0.8986 1.04687,-1.8358 1.65875,-2.69508c1.9386,-2.72242 4.12029,-5.28302 6.13254,-7.95178c1.20154,-1.59355 2.36875,-3.21475 3.55266,-4.82146c0.06121,-0.08307 2.3882,-3.24279 2.42295,-3.2828c0.03475,-0.04 2.83805,-2.78596 2.91174,-2.85818c1.42997,-1.40146 2.85994,-2.80291 4.29018,-4.20409c3.01346,-2.64439 6.02767,-5.28793 9.04163,-7.93176c1.00235,-0.87925 2.00432,-1.75893 3.00704,-2.63775c0.50139,-0.43944 0.97841,-0.90842 1.50472,-1.31767c0.03093,-0.02405 3.27776,-2.26106 3.3406,-2.30437c2.19571,-1.51326 4.39142,-3.02652 6.58714,-4.53978c1.64678,-1.13495 3.29357,-2.26989 4.94035,-3.40484c0.91737,-0.63224 1.78199,-1.34937 2.75374,-1.89434c0.60354,-0.33847 1.24445,-0.60551 1.86668,-0.90826c4.80564,-2.33001 9.6432,-4.58287 14.48961,-6.82668l0.76428,-0.35385c0,0 0.90746,-0.42014 1.3276,0.48732z" fill="#000000" stroke="none" stroke-width="0.5" stroke-linecap="butt"/><path d="M236.71797,59.5316c-0.24254,-0.97014 0.72761,-1.21268 0.72761,-1.21268l0.58906,-0.06649c1.37135,-0.95701 3.17266,-1.25984 5.02943,-1.3535c-0.00136,-1.02471 -0.00169,-1.92237 0.00118,-1.98668c0.13746,-3.07591 0.8045,-6.11376 1.26396,-9.14909c0.1264,-0.83503 0.1797,-1.68092 0.32866,-2.51222c0.15083,-0.84173 0.37361,-1.669 0.56973,-2.50135c0.16939,-0.71891 0.25632,-1.46497 0.52677,-2.15228c0.60845,-1.54627 1.37643,-2.15015 2.23539,-3.52084c0.40982,-0.65397 0.77638,-1.33514 1.12354,-2.02441c0.35488,-0.70459 0.68866,-1.42111 0.98095,-2.15388c0.16077,-0.40304 0.2295,-0.8378 0.37543,-1.24645c0.51951,-1.45485 0.98571,-2.42553 2.2271,-3.58331c0.68836,-0.642 2.51893,-1.66256 3.59897,-1.94342c0.56031,-0.1457 1.1523,-0.13081 1.71852,-0.25154c0.85403,-0.1821 3.10216,-0.96044 3.74547,-1.17378c0.93023,-0.15504 1.85175,-0.38194 2.74559,-0.68261l0.86855,-0.06415c0,0 1.25,0 1.25,1.25c0,1.25 -1.25,1.25 -1.25,1.25l-0.07798,-0.06415c-0.17467,0.05776 -0.35016,0.11347 -0.5264,0.16695c0.53853,0 0.95659,0.00013 1.07763,0.00013c0.36719,0 4.28371,-0.00062 4.33702,0.00242c2.04664,0.11667 2.12676,0.34855 4.17579,0.72896c1.92515,0.35741 3.32536,0.33359 5.15845,1.17603c0.83273,0.3827 1.62574,0.88118 2.31026,1.49054c0.64216,0.57164 1.01894,1.39213 1.6193,2.00752c0.56324,0.57734 1.25551,1.0141 1.85497,1.55373c1.24428,1.12009 2.42012,2.31404 3.6429,3.45757c0.62675,0.58613 1.28845,1.13708 1.8795,1.7592c0.59105,0.62212 1.10712,1.31139 1.66068,1.96709c0.29361,0.35046 0.62435,0.6729 0.88084,1.05138c0.79599,1.17458 1.48401,2.41922 2.19335,3.64807c0.41953,0.72678 0.82384,1.46224 1.23435,2.19415c0.32008,0.57068 0.697,1.11336 0.9574,1.71362c0.29724,0.68519 0.40946,1.44126 0.70817,2.12582c0.24253,0.55582 0.62395,1.04074 0.90748,1.5768c1.0871,2.05532 1.43278,2.66285 1.94168,4.9567c0.0113,0.05095 0.74765,5.05417 0.75238,5.11136c0.11921,1.44127 0.00825,3.21683 0.05621,4.6816c0.02688,0.82108 0.0969,1.64018 0.14523,2.46027c0.12818,2.17528 0.41328,4.34475 0.52216,6.51918c0.0425,0.84881 0.01877,1.69965 0.02738,2.54948c0.00533,0.52651 0.04417,1.05384 0.01446,1.57953c-0.09458,1.67343 -0.32473,3.33646 -0.47869,5.00548c-0.21674,0.88316 -0.35281,1.79013 -0.65023,2.64948c-0.44176,1.27641 -1.43308,2.70493 -2.13006,3.82707c-0.27958,0.45012 -0.48194,0.95746 -0.83466,1.35289c-0.39415,0.44188 -0.9004,0.77062 -1.37513,1.12452c-0.01076,0.00802 -0.02153,0.01605 -0.03229,0.02407c0.83221,-0.22312 1.64929,-0.51701 2.49891,-0.65961c0.84967,-0.14261 1.71999,-0.10837 2.57774,-0.18927c1.41757,-0.13369 2.82231,-0.383 4.2385,-0.53055c0.18344,-0.01911 4.76913,-0.39439 4.98281,-0.41524c1.27234,-0.12414 2.53705,-0.31698 3.80561,-0.47513c3.06974,-0.16021 6.13819,-0.26558 9.21028,-0.27015c-0.24535,-0.31235 -0.47807,-0.63656 -0.75853,-0.91653c-1.01707,-1.01528 -2.22345,-1.82428 -3.27537,-2.80341c-0.05426,-0.0505 -3.606,-3.60507 -3.63465,-3.63845c-0.56343,-0.65629 -1.0259,-1.39291 -1.53885,-2.08936c-0.39584,-0.54083 -0.8357,-1.05204 -1.18752,-1.62248c-0.1449,-0.23493 -1.58267,-2.97731 -1.93296,-3.61756c-1.19617,-2.18635 -2.65331,-4.35424 -3.48269,-6.71976c-0.45889,-1.30881 -0.8688,-3.68759 -1.13283,-5.05509c-0.23926,-1.23923 -0.46198,-2.48176 -0.71736,-3.71777c-0.1724,-0.83442 -0.40158,-1.65806 -0.53379,-2.49978c-0.13287,-0.84594 -0.1738,-1.70378 -0.26028,-2.55571c-0.1417,-1.39591 -0.37517,-2.78185 -0.50236,-4.17916c-0.08251,-0.90643 -0.22892,-1.82067 -0.14298,-2.72677c0.19309,-2.03568 0.71193,-2.54226 1.23192,-4.26991c0.19036,-0.63244 0.26871,-1.29684 0.4824,-1.92179c0.26293,-0.76893 0.72597,-1.46499 0.9434,-2.248c0.21223,-0.76427 0.19914,-1.57441 0.33505,-2.35587c0.14466,-0.8318 0.33753,-1.6545 0.50629,-2.48175c0.89135,-4.44857 1.73299,-10.60768 5.09925,-13.94533c0.24911,-0.24699 0.51668,-0.45673 0.79645,-0.6402c-0.1757,-0.099 -0.34507,-0.26188 -0.48764,-0.51851c-0.60705,-1.0927 0.48564,-1.69975 0.48564,-1.69975c0.7077,-0.39316 1.41637,-0.78458 2.1231,-1.17948c0.6074,-0.3394 1.16566,-0.78487 1.81929,-1.0234c0.08688,-0.03171 2.02538,-0.46466 3.33043,-0.75481c0.54302,-0.50829 1.13767,-0.99675 1.86944,-1.48566l1.63138,-0.42229c0,0 0.95776,-0.19155 1.34937,0.61062c0.18364,-0.05767 0.36951,-0.10658 0.5593,-0.14038c0.87649,-0.15608 1.77805,-0.09464 2.66724,-0.13875c0.84374,-0.04185 1.68675,-0.11933 2.53152,-0.11913c0.03963,0.00001 4.97605,0.23554 5.0538,0.23924c1.63814,0.07801 3.27508,0.18763 4.91442,0.23437c0.56789,0.01619 1.13749,-0.03569 1.70435,0.00206c0.65179,0.0434 1.29496,0.17471 1.94482,0.24094c0.85928,0.08757 1.73161,0.06809 2.5818,0.22039c0.85865,0.15381 1.68237,0.46194 2.52323,0.69407c1.49894,0.41379 2.99734,0.82954 4.49642,1.24283c2.29178,1.19133 4.59093,2.44445 6.72603,3.90683c0.70468,0.48265 1.36032,1.03327 2.0401,1.5504c1.8332,1.39457 2.29283,1.66483 3.965,3.27181c0.6122,0.58833 1.17896,1.22218 1.76828,1.83342c0.5784,0.59992 1.15745,1.1992 1.73488,1.80005c0.34868,0.36283 0.74104,0.68876 1.04343,1.09098c0.52486,0.69812 0.95301,1.46396 1.42831,2.19671c0.8786,1.35452 1.72218,2.73204 2.54031,4.12392c0.37753,0.64229 0.7919,1.26438 1.13164,1.92744c0.39035,0.76182 0.70532,1.55997 1.05551,2.34106c0.36148,0.80629 0.81906,1.57673 1.07948,2.4211c0.53368,1.7304 0.58979,3.54441 0.58655,5.33346c-0.00007,0.03638 -0.19316,5.06527 -0.19557,5.09468c-0.0127,0.1548 -0.43658,3.45693 -0.51644,4.08089c-1.29511,4.87543 -2.93805,9.65998 -4.4664,14.46708c-0.5102,1.60474 -1.05292,3.19959 -1.63166,4.78091c-0.28498,0.77868 -0.51528,1.5798 -0.8572,2.33522c-0.27197,0.60088 -0.66724,1.13832 -0.97824,1.71995c-0.35221,0.65871 -0.58411,1.38686 -1.0108,1.99996c-1.60274,2.30292 -1.85641,2.04618 -4.04064,3.59435c-0.67563,0.47888 -1.30161,1.02707 -1.99054,1.48662c-0.51756,0.34524 -1.11557,0.56199 -1.62211,0.92319c-0.56236,0.401 -1.04153,0.90752 -1.56959,1.35271c-0.4275,0.36041 -0.92209,0.64899 -1.29689,1.06393c-0.38402,0.42515 -0.55307,1.0207 -0.95492,1.42904c-0.80468,0.81766 -1.71274,1.47506 -2.67435,2.04774c0.18368,0.09546 0.36779,0.18986 0.55396,0.27928c1.52304,0.73151 3.02396,1.51046 4.5023,2.32855c0.75369,0.4184 1.53744,0.78672 2.26105,1.25521c0.72361,0.46849 1.38073,1.03247 2.07066,1.54928c0.03458,0.0259 4.00731,3.00535 4.02504,3.01928c1.82392,1.43296 3.50995,3.04766 5.35288,4.45566c0.42836,0.32726 3.74173,2.58616 4.11698,2.88357c1.25829,0.99724 2.38082,2.15471 3.57041,3.23297c0.0471,0.04269 3.71693,3.36868 3.73992,3.39121c0.0294,0.0288 3.41097,3.61074 3.4633,3.66568c1.11594,1.17149 2.24304,2.33229 3.36373,3.49925c0.59519,0.61976 1.22895,1.20476 1.78471,1.86011c0.55576,0.65535 1.02937,1.37617 1.54358,2.0646l2.99019,4.00735c3.01653,4.04444 5.66827,8.33582 8.26243,12.65941c0.06124,0.10207 2.57786,4.29487 2.61082,4.35618c0.638,1.1866 1.08749,2.46528 1.63002,3.69846c0.59255,1.34686 1.17166,2.70008 1.71623,4.06704c0.04,0.10041 1.86162,4.67112 1.87858,4.72366c0.26452,0.81954 0.42329,1.66952 0.63026,2.50545c0.21665,0.87506 0.56805,1.72893 0.6406,2.62748c0.0279,0.34561 -0.09231,1.61367 -0.21747,2.7899c0.23903,0.29706 0.466,0.80461 0.04066,1.44264c-0.07371,0.11057 -0.15134,0.20155 -0.23122,0.27585c-0.01637,0.14411 -0.02996,0.26382 -0.03975,0.35197c0,0 -0.13804,1.24235 -1.3804,1.10431c-1.24235,-0.13804 -1.10431,-1.38039 -1.10431,-1.38039c0.00948,-0.08526 0.03752,-0.33121 0.07519,-0.66611c-1.77949,-1.44664 -3.89616,-2.02368 -5.8038,-3.29543c-0.70877,-0.2787 -1.38619,-0.6495 -2.12118,-0.84904c-0.42334,-0.11493 -0.86725,-0.13311 -1.29926,-0.20925c-0.77326,-0.13628 -1.54642,-0.27389 -2.31633,-0.428c-0.80018,-0.16017 -1.58736,-0.38748 -2.39343,-0.51473c-0.78019,-0.12317 -1.57679,-0.11782 -2.35785,-0.23534c-0.81994,-0.12336 -1.62788,-0.31669 -2.43948,-0.48645c-0.50608,-0.10586 -3.99961,-0.89701 -4.22744,-0.94022c-2.24143,-0.42509 -4.52961,-0.63026 -6.77862,-1.02032c-1.62465,-0.28178 -3.22498,-0.7092 -4.86022,-0.92099c-0.81313,-0.10532 -1.63709,-0.09927 -2.45364,-0.17358c-1.34605,-0.1225 -2.68057,-0.35131 -4.02452,-0.49507c-2.92185,-0.31253 -5.85509,-0.51315 -8.78581,-0.71887c-0.03969,-0.00452 -4.99059,-0.56816 -5.0269,-0.57326c-1.62713,-0.22819 -3.22845,-0.63272 -4.86147,-0.81413c-0.39192,-0.04354 -0.78866,0.0038 -1.18299,0.00426c-1.29186,0.00149 -2.58373,0.00028 -3.87559,0.0045c-3.32515,0.01086 -6.64098,0.06562 -9.96468,0.16445c-2.49366,0.07415 -4.98235,0.19884 -7.47449,0.31052c-5.44259,0.24392 -10.8758,0.47293 -16.29243,1.0938c-3.79557,0.43466 -7.58896,0.84784 -11.39955,1.13015c-1.63578,0.12118 -3.28054,0.15265 -4.90751,0.361c-0.58256,0.0746 -1.15053,0.23671 -1.72603,0.35388c-2.02528,0.41233 -2.67501,0.44012 -4.58328,1.21533c-0.48463,0.19687 -0.92663,0.48566 -1.39049,0.72743c-0.73898,0.38517 -1.47849,0.76931 -2.21804,1.15339c-0.71594,0.37182 -1.45582,0.70061 -2.14841,1.1143c-1.30801,0.78128 -2.50057,1.74137 -3.75197,2.61044c-0.6678,0.46377 -1.35969,0.89456 -2.0038,1.39069c-0.65639,0.50557 -1.24228,1.09795 -1.89302,1.61078c-0.66668,0.5254 -1.37092,1.00129 -2.0565,1.50177c-1.94723,1.42146 -3.89268,2.84351 -5.85861,4.23902c-1.3505,2.51013 -2.72319,5.00806 -4.09555,7.50631c-0.44055,0.80198 -0.67971,1.75471 -1.32354,2.4049c-0.65012,0.65654 -1.50093,1.52437 -2.41137,1.36694c-0.84315,-0.1458 -1.0672,-1.34024 -1.54383,-2.05086c-1.2169,-1.8143 -1.94437,-3.88984 -2.6836,-5.92572c-0.89147,-2.45513 -1.63027,-4.84427 -2.07146,-7.42602c-0.27933,-1.63459 -0.36798,-3.29949 -0.68001,-4.92815c-0.15643,-0.81651 -0.44034,-1.60469 -0.60522,-2.41954c-0.29644,-1.46503 -0.39545,-2.96362 -0.63777,-4.43857c-0.13494,-0.82133 -0.31823,-1.63419 -0.45489,-2.45524c-0.21918,-1.31678 -0.31208,-1.95839 -0.38786,-2.64743c-0.03813,-0.02132 -0.07676,-0.04496 -0.11589,-0.07104c-1.04007,-0.69338 -0.34669,-1.73344 -0.34669,-1.73344l0.25275,-0.36154c-0.00724,-0.07497 -0.01474,-0.15225 -0.02252,-0.23199c-0.53555,-5.49623 -0.92108,-11.01196 -0.52003,-16.52983c0.08331,-1.14622 0.25502,-4.0701 0.50986,-5.16812c0.01806,-0.07784 1.70039,-4.8766 1.73841,-4.95875c0.50817,-1.098 1.73842,-2.91672 2.44315,-3.99209c0.47254,-0.72107 0.89808,-1.47537 1.41892,-2.16237c0.06064,-0.07998 3.22333,-3.69161 3.33018,-3.81801c1.47307,-1.74257 2.97833,-3.53303 4.35099,-5.35587c1.03521,-1.37472 1.97825,-2.81652 2.97402,-4.22008c2.90915,-2.16241 5.89218,-4.20126 8.56122,-6.66694c0.58351,-0.53905 1.08589,-1.1639 1.68672,-1.68358c0.05054,-0.04372 0.10149,-0.08695 0.15279,-0.12974c-0.50557,0.0672 -1.01476,0.10946 -1.51978,0.18131c-0.50062,0.07122 -0.99281,0.20678 -1.49699,0.24544c-1.41568,0.10855 -2.83967,0.0044 -4.25951,0.00426c-2.926,-0.00028 -5.83333,-0.23387 -8.75802,-0.24409c-0.6435,-0.14102 -3.47377,-0.70383 -4.19258,-1.0631c-0.69133,-0.34554 -1.29355,-0.85045 -1.89614,-1.33442c-2.02807,-1.62885 -3.57483,-3.6275 -5.32916,-5.52034c-0.57557,-0.62102 -1.22591,-1.17182 -1.78121,-1.81103c-0.5581,-0.64244 -1.02485,-1.35905 -1.55261,-2.02664c-0.4284,-0.5419 -0.95742,-1.01054 -1.31546,-1.60129c-0.43895,-0.72425 -0.64039,-1.57288 -1.05567,-2.31095c-0.31555,-0.56083 -0.82524,-0.9991 -1.12663,-1.56766c-0.26073,-0.49185 -0.35544,-1.05517 -0.54182,-1.57973c-0.56334,-1.58557 -1.12353,-3.17342 -1.61417,-4.78297c-0.01694,-0.05558 -1.43577,-4.82583 -1.44257,-4.85301c-0.20693,-0.82601 -0.34284,-1.66821 -0.51309,-2.50255c-0.09243,-0.45298 -0.22374,-0.89994 -0.27496,-1.3594c-0.09554,-0.85703 -0.1101,-1.72116 -0.1644,-2.58179c-0.05808,-0.9205 -0.25707,-4.11908 -0.31368,-5.02816c-0.00009,-0.04851 -0.00115,-0.50977 -0.0024,-1.13674c-1.50013,0.06638 -3.01307,0.28754 -3.8328,0.98168l-1.30399,0.40677c0,0 -0.97014,0.24254 -1.21268,-0.72761zM296.9524,60.75385c-1.39229,-0.18845 -2.25832,-0.7205 -3.59869,-0.95422c-0.63036,-0.10992 -1.27366,-0.12465 -1.91042,-0.18779c-1.32683,-0.13158 -2.65346,-0.26504 -3.98015,-0.39801c-2.99295,-0.3 -6.04391,-0.22702 -9.05072,-0.29861c-3.96338,-0.09437 -7.92685,-0.27922 -11.89143,-0.2832c-6.82978,-0.48574 -13.55967,0.12515 -20.37597,0.21605c-0.17871,0.00238 -0.3725,0.0024 -0.57815,0.00149c0.00093,0.62048 0.00164,1.06758 0.00165,1.07779c0.05783,0.92184 0.25375,4.04171 0.3101,4.95237c0.04968,0.80279 0.06,1.60892 0.14749,2.40847c0.04398,0.4019 0.16481,0.79163 0.24603,1.18769c0.16375,0.79851 0.29079,1.60533 0.48887,2.39602c0.39991,1.59638 0.92943,3.15752 1.40895,4.73181c0.48071,1.57818 1.04012,3.13144 1.58354,4.68914c0.14529,0.41646 0.19472,0.87194 0.4047,1.25983c0.28571,0.52779 0.76953,0.92956 1.0637,1.45268c0.40182,0.71455 0.59178,1.53779 1.01334,2.24088c0.30691,0.51188 0.78059,0.90351 1.15207,1.37065c0.50769,0.63841 0.94969,1.32942 1.48473,1.94508c0.53784,0.61889 1.16999,1.14989 1.72747,1.75116c1.67388,1.80536 3.14849,3.6951 5.06098,5.27055c0.45092,0.37146 0.8942,0.77052 1.41669,1.03188c0.35357,0.17687 3.27755,0.80689 3.37959,0.82994c2.83345,-0.01103 5.65026,0.22945 8.48523,0.22917c1.3511,-0.00013 2.70622,0.10825 4.05331,0.00426c0.45258,-0.03494 0.89325,-0.16335 1.34257,-0.22782c0.62283,-0.08936 1.25248,-0.13011 1.87312,-0.23356c0.78506,-0.13086 1.55799,-0.32728 2.34118,-0.46892c0.39177,-0.07085 0.81467,-0.01592 1.18247,-0.16834c0.4233,-0.17541 0.72216,-0.57203 1.1261,-0.78831c0.75841,-0.40607 1.56995,-0.70423 2.34779,-1.0717c1.03015,-0.48666 2.01181,-1.07019 3.00876,-1.62169c0.55863,-0.30903 1.147,-0.56576 1.68859,-0.90378c0.67475,-0.42113 1.31029,-0.90235 1.95393,-1.36963c0.33831,-0.24562 0.71418,-0.45538 0.99118,-0.76852c0.25845,-0.29216 0.38229,-0.68023 0.58512,-1.01341c0.54719,-0.89882 1.5454,-2.31291 1.91162,-3.37325c0.24722,-0.71581 0.35637,-1.47208 0.53455,-2.20812c0.14044,-1.56966 0.35677,-3.13326 0.44725,-4.70659c0.0276,-0.47992 -0.01173,-0.96136 -0.01682,-1.44205c-0.00864,-0.81675 0.01652,-1.63449 -0.02438,-2.45025c-0.10865,-2.16716 -0.39366,-4.32935 -0.52098,-6.49748c-0.04954,-0.84369 -0.12069,-1.6864 -0.14838,-2.5311c-0.03795,-1.15741 0.04346,-3.43937 -0.04882,-4.55116c-0.01901,-0.22897 -0.04644,-0.45696 -0.07866,-0.6844c-0.78054,0.22534 -1.33596,0.31787 -2.53911,0.15501zM373.63883,38.03955c-2.1866,-0.21953 -4.3947,-0.30959 -6.58647,-0.46963c-2.63978,-0.19276 -5.26957,-0.44565 -7.91737,-0.46228c-1.30555,-0.0082 -2.61394,-0.09668 -3.9167,-0.01113c-0.47877,0.03144 -0.94709,0.15463 -1.42147,0.22656c-0.39488,0.05988 -0.8165,0.01779 -1.18622,0.16885c-0.33453,0.13669 -0.53341,0.50229 -0.85582,0.66553c-0.63574,0.32189 -1.32743,0.51867 -1.99181,0.77629c-0.9581,0.37151 -1.90774,0.76498 -2.85228,1.16972c-0.61532,0.23036 -1.24352,0.42885 -1.84595,0.69107c-0.59529,0.25911 -1.16065,0.58219 -1.74223,0.87076c-0.55332,0.27455 -1.15687,0.46374 -1.66244,0.81861c-0.5168,0.36274 -0.89274,0.89459 -1.36897,1.30915c-0.49146,0.42782 -0.97687,0.87257 -1.53102,1.21532c-0.39122,0.24198 -0.85901,0.33098 -1.27756,0.52184c-0.4969,0.22658 -0.95579,0.5373 -1.46692,0.72963c-1.11637,0.42007 -2.28073,0.7045 -3.43974,0.98639c-0.34865,0.0848 -0.72443,0.06572 -1.05817,0.1975c-0.49265,0.19454 -2.60134,1.7657 -2.67899,1.81012c-0.52367,0.29953 -1.14011,0.41391 -1.66183,0.71683c-0.40057,0.23258 -0.71588,0.58807 -1.07957,0.87491c-0.54941,0.43331 -1.07041,0.90794 -1.65958,1.28541c-0.55796,0.35747 -1.20754,0.55562 -1.76737,0.91016c-0.40851,0.25871 -0.72035,0.6502 -1.1219,0.9196c-0.51431,0.34504 -1.12047,0.54544 -1.61587,0.91713c-0.45345,0.34022 -0.74567,0.86805 -1.20544,1.19969c-0.11702,0.0844 -2.20878,1.1158 -2.58849,1.30388c-0.92195,0.26528 -1.8987,0.34595 -2.79392,0.69082c-1.06958,0.41204 -1.87619,2.43177 -2.88436,3.19992l-0.62777,0.42005c0.10587,0.56068 0.21051,1.1216 0.31856,1.68184c0.22095,1.14561 0.64317,3.57479 1.0376,4.70244c0.78005,2.23016 2.19194,4.29076 3.31893,6.35077c0.25332,0.46304 1.81227,3.41499 1.85313,3.48135c0.32007,0.51985 0.72443,0.98284 1.08664,1.47425c0.47357,0.64689 0.89848,1.33237 1.4207,1.94066c0.52222,0.60829 1.13602,1.13154 1.70322,1.69812c0.57827,0.57763 1.13498,1.17756 1.7332,1.7345c0.29198,0.27183 3.1198,2.64644 3.35028,2.87572c0.45246,0.45012 0.77774,1.01804 1.2359,1.46236c0.47864,0.46419 1.01592,0.86296 1.53882,1.27769c1.00142,0.0581 2.00055,0.16949 3.00318,0.20437c1.49818,0.05212 2.99864,-0.03732 4.49726,0.00004c1.36669,0.03407 2.72866,0.17461 4.09288,0.26358c0.86202,0.05622 1.73023,0.05213 2.58596,0.17031c0.83783,0.11571 1.64959,0.37692 2.48149,0.52952c1.25791,0.23074 2.54772,0.25351 3.80694,0.47697c1.44572,0.25656 2.84993,0.70823 4.27394,1.06615c0.34966,0.08789 0.70333,0.16266 1.056,0.24072c1.43415,-0.67921 2.84781,-1.44933 3.9309,-2.57927c0.39074,-0.40764 0.55706,-0.99382 0.93812,-1.41053c0.45414,-0.49663 1.02962,-0.86687 1.54268,-1.30237c0.58225,-0.49424 1.12209,-1.04248 1.74323,-1.48686c0.52841,-0.37803 1.1502,-0.60933 1.69071,-0.96985c0.66469,-0.44336 1.2652,-0.97693 1.9182,-1.43733c1.80233,-1.27073 2.17102,-1.11589 3.40887,-2.94692c0.37191,-0.55013 0.57044,-1.19984 0.88224,-1.78613c0.2875,-0.5406 0.66212,-1.03515 0.9148,-1.59287c0.31315,-0.69117 0.51682,-1.42689 0.77639,-2.13991c0.56398,-1.54924 1.09819,-3.10974 1.59756,-4.68099c1.4987,-4.71568 3.11534,-9.40942 4.39536,-14.18935c0.15741,-1.26884 0.37381,-2.53147 0.47838,-3.80576c0.13363,-1.62838 0.17984,-3.26415 0.18721,-4.89799c0.00652,-1.44625 -0.03146,-3.17877 -0.47349,-4.58235c-0.23522,-0.7469 -0.64992,-1.42491 -0.97235,-2.13851c-0.33379,-0.73875 -0.6268,-1.49699 -0.99631,-2.21854c-0.14078,-0.2749 -0.29579,-0.54197 -0.45557,-0.80642c-0.69643,-0.11985 -1.39262,-0.24161 -2.09533,-0.31216zM353.20968,96.54817c-0.55473,0.25211 -1.07233,0.61145 -1.66419,0.75634c-0.47213,0.11558 -0.97986,-0.07837 -1.4582,0.00803c-0.38929,0.07031 -0.7128,0.35808 -1.09673,0.45342c-0.58944,0.14636 -1.20138,0.17934 -1.80244,0.26647c-0.8217,0.11911 -1.64464,0.22958 -2.46582,0.35223c-0.78274,0.1169 -1.55801,0.2909 -2.34583,0.3664c-0.50353,0.04825 -1.01168,0.00435 -1.51752,0.00383c-2.08628,-0.00214 -2.27401,0.12876 -4.40616,-0.53352c-1.80773,-0.56152 -1.83667,-0.901 -3.48658,-1.72721c-0.5602,-0.28052 -1.18904,-0.422 -1.72486,-0.74668c-0.859,-0.52049 -2.7139,-2.05357 -3.74735,-2.91051c-3.95335,-0.08089 -7.89776,0.03111 -11.84457,0.23395c-1.25549,0.15736 -2.50725,0.3483 -3.76656,0.47139c-1.65873,0.16214 -3.32498,0.24251 -4.98264,0.41522c-1.42109,0.14806 -2.83058,0.39966 -4.25322,0.53204c-0.80165,0.0746 -1.6154,0.03456 -2.40955,0.16696c-0.78323,0.13058 -1.53327,0.41358 -2.30045,0.61831c-0.77756,0.2075 -1.57213,0.35847 -2.33377,0.61838c-1.55032,0.52903 -3.01967,1.27086 -4.53008,1.90494c-1.49845,0.62906 -3.04728,1.14852 -4.49777,1.88143c-0.38658,0.19534 -0.72057,0.48121 -1.07122,0.73547c-0.60683,0.44002 -1.23473,0.85546 -1.80065,1.34698c-0.5793,0.50314 -1.06244,1.10864 -1.6261,1.62925c-2.63716,2.43573 -5.54932,4.51731 -8.47617,6.58436c-0.4008,0.58177 -2.39463,3.48623 -2.7606,3.97224c-1.40056,1.85989 -2.93579,3.68783 -4.43883,5.46593c-1.06167,1.25597 -2.25368,2.40391 -3.24723,3.71443c-0.48606,0.64113 -0.87913,1.34773 -1.31935,2.02116c-0.35868,0.54869 -0.73311,1.08733 -1.07733,1.64519c-0.41115,0.66634 -0.86023,1.31527 -1.18809,2.02629c-0.33235,0.72076 -0.52003,1.4998 -0.78313,2.24862c-0.26124,0.74354 -0.61061,1.46101 -0.78989,2.22844c-0.2043,0.87456 -0.38964,3.9362 -0.45135,4.78276c-0.3376,4.63168 -0.09877,9.26362 0.30771,13.88184c2.88894,-3.74022 4.9341,-8.28143 8.36461,-11.3943c1.32526,-1.20256 3.21157,-2.24181 4.63153,-3.41571c1.19711,-1.13122 2.40717,-2.24886 3.59188,-3.39307c0.60539,-0.5847 1.12691,-1.26439 1.79669,-1.77405c0.48435,-0.36856 1.07355,-0.57532 1.62613,-0.83046c2.00678,-0.92656 4.14445,-1.60071 6.12166,-2.58822c0.58781,-0.29358 1.12043,-0.69211 1.71522,-0.97125c0.72458,-0.34006 1.52779,-0.50409 2.23342,-0.8819c0.4559,-0.2441 0.75158,-0.73531 1.21515,-0.96454c1.87887,-0.92909 4.17269,-1.18288 6.16363,-1.75853c0.72411,-0.20937 1.41913,-0.51299 2.14549,-0.71439c0.65231,-0.18086 3.43685,-0.7465 4.17606,-0.89944c0.13615,-0.02817 4.90047,-1.01492 4.98353,-1.02788c1.27083,-0.19827 2.56889,-0.14017 3.85093,-0.2436c0.80309,-0.06479 1.60349,-0.15946 2.40523,-0.23919c2.09749,-0.00113 4.15813,0.15939 6.25341,0.23568c1.36726,0.04978 2.73676,-0.01051 4.10442,0.02663c3.77176,0.10245 7.51731,0.50932 11.28136,0.72143c0.17906,0.01009 4.87347,0.19133 5.01592,0.20112c0.57243,0.03934 4.04242,0.44674 4.43288,0.46632c0.70789,0.0355 4.23014,-0.05051 4.91123,-0.06424c0.80791,-0.01628 1.61837,0.01803 2.42378,-0.04766c1.47255,-0.1201 2.91873,-0.48936 4.3926,-0.59195c1.34632,-0.09372 2.69916,0.00143 4.04874,0.00338c1.38522,0.00893 3.66651,0.01111 5.04818,0.07041c0.82814,0.03554 1.65301,0.13402 2.48147,0.16113c0.85575,0.028 1.71445,-0.05511 2.5686,0.00411c0.56329,0.03906 1.11281,0.19213 1.66896,0.28968c1.27325,0.22334 2.54663,0.4524 3.80624,0.74294c0.09769,0.02254 4.88642,1.12699 4.93998,1.14203c2.74852,0.77154 5.28294,2.0613 7.91991,3.11426c1.42549,0.5692 2.8999,1.008 4.33886,1.54225c1.27943,0.47502 2.55248,0.96959 3.82412,1.46765c-0.22124,-0.29658 -0.44244,-0.59319 -0.66357,-0.88985c-0.48253,-0.64733 -0.92441,-1.32697 -1.44661,-1.94275c-1.06119,-1.25135 -2.27582,-2.36401 -3.41286,-3.54686c-1.68696,-1.75495 -3.30353,-3.60636 -5.04176,-5.30934c-1.17897,-1.15506 -2.44643,-2.21622 -3.66932,-3.32467c-1.15083,-1.04314 -2.23332,-2.16676 -3.45083,-3.13123c-1.29953,-1.02944 -2.75795,-1.84456 -4.07534,-2.85105c-1.85398,-1.41644 -3.55038,-3.0395 -5.38523,-4.4808c-1.30237,-1.02303 -2.65064,-1.98624 -3.97495,-2.98072c-0.64342,-0.48317 -1.25391,-1.01342 -1.92934,-1.45072c-0.67543,-0.4373 -1.40886,-0.77774 -2.11329,-1.16661c-1.43671,-0.79581 -2.89781,-1.54869 -4.3765,-2.26348c-0.64288,-0.31077 -1.25427,-0.69634 -1.92703,-0.93565c-0.12915,-0.04594 -0.25967,-0.08732 -0.39121,-0.12534c-0.42261,0.1991 -0.84628,0.39598 -1.26745,0.59606zM332.49265,93.58315c0.4924,0.29675 1.07358,0.41632 1.58796,0.67311c0.56897,0.28404 1.08879,0.6598 1.65641,0.94652c1.11573,0.56358 2.10131,0.91612 3.36529,1.05956c0.58182,0.06603 1.17109,-0.00677 1.75665,-0.00746c0.44068,-0.00052 0.88347,0.04684 1.32205,0.00383c1.56121,-0.15312 3.10015,-0.48272 4.65357,-0.70115c0.50321,-0.07076 1.01761,-0.08273 1.51039,-0.20679c0.44025,-0.11084 0.82299,-0.41139 1.26957,-0.49311c0.16044,-0.02936 0.32418,-0.02422 0.48871,-0.00984c-0.55096,-0.14345 -1.10457,-0.27445 -1.665,-0.37353c-1.24548,-0.22019 -2.52109,-0.2419 -3.76523,-0.46955c-0.80748,-0.14775 -1.59448,-0.40491 -2.40752,-0.51812c-0.79514,-0.11072 -1.60247,-0.10064 -2.40365,-0.15181c-1.33754,-0.08543 -2.67254,-0.22668 -4.0124,-0.25969c-1.35303,-0.03333 -2.70753,0.03595 -4.06052,0.01139c0.29084,0.22004 0.53789,0.39672 0.70374,0.49667zM398.61879,133.92851c-2.32506,-0.90002 -4.64084,-1.83356 -6.9781,-2.70132c-1.45578,-0.5405 -2.94691,-0.98583 -4.38913,-1.56153c-1.2789,-0.51051 -2.49987,-1.16048 -3.7847,-1.65587c-0.76333,-0.29431 -1.54328,-0.54356 -2.31467,-0.81605c-0.53294,-0.18826 -1.05403,-0.4138 -1.59832,-0.56621c-1.58238,-0.44309 -3.20281,-0.73689 -4.80393,-1.10657c-1.21723,-0.28105 -2.44854,-0.4985 -3.67855,-0.71695c-0.48437,-0.08603 -0.96168,-0.22868 -1.45256,-0.26117c-0.8087,-0.05352 -1.62134,0.03002 -2.4314,0.00411c-0.83733,-0.02679 -1.67107,-0.12605 -2.50806,-0.16213c-1.3243,-0.05709 -3.62878,-0.05964 -4.95058,-0.06812c-1.29512,-0.00187 -2.59339,-0.09851 -3.88535,-0.00808c-1.37211,0.09604 -3.00936,0.47996 -4.34323,0.58842c-0.85576,0.06959 -1.71677,0.03731 -2.57516,0.05538c-0.82784,0.01743 -4.28269,0.10183 -5.08766,0.06165c-1.12401,-0.0561 -3.27441,-0.38644 -4.48845,-0.46972c-1.65612,-0.1136 -3.3187,-0.10516 -4.97609,-0.19856c-3.73978,-0.21074 -7.46123,-0.6166 -11.20859,-0.71838c-1.37088,-0.03723 -2.74356,0.02277 -4.11404,-0.02692c-2.02681,-0.07348 -4.02296,-0.23637 -6.05137,-0.23758c-0.77579,0.07802 -1.55021,0.17125 -2.32738,0.23407c-1.23874,0.10013 -2.49374,0.0355 -3.72125,0.22966c-1.61708,0.25579 -3.20583,0.66649 -4.80908,0.99818c-0.59992,0.12412 -3.46401,0.70717 -4.01524,0.86058c-0.71562,0.19916 -1.40021,0.49931 -2.11386,0.7054c-1.2498,0.36093 -2.53759,0.58112 -3.78609,0.94652c-0.63263,0.18515 -1.29376,0.30992 -1.8818,0.60777c-0.43978,0.22276 -0.71641,0.69605 -1.15115,0.9285c-0.76392,0.40847 -1.62552,0.60541 -2.40897,0.97505c-0.58505,0.27603 -1.10874,0.66956 -1.68783,0.95788c-0.40605,0.20217 -3.92528,1.65769 -4.0342,1.70353c-0.71747,0.30196 -1.4383,0.59637 -2.14892,0.91412c-0.4105,0.18355 -0.85882,0.31285 -1.21344,0.58933c-0.56787,0.44274 -1.00093,1.03571 -1.51613,1.53878c-0.04498,0.04393 -3.64342,3.44027 -3.67826,3.47316c-1.44497,1.19618 -3.30306,2.22909 -4.66246,3.44261c-3.90251,3.48373 -6.01278,9.05212 -9.66425,12.96664c0.12079,1.29417 0.16717,1.75637 0.47973,3.62876c0.13737,0.82294 0.32069,1.63781 0.45587,2.46111c0.238,1.44957 0.33144,2.923 0.62408,4.36254c0.1664,0.81856 0.45083,1.61068 0.60746,2.43116c0.31409,1.64531 0.40818,3.32629 0.68896,4.97761c0.29154,1.71459 0.586,3.03124 1.11879,4.68751c0.25038,0.77836 0.55898,1.53678 0.83808,2.30531c0.58897,1.62176 0.81874,2.4 1.60452,3.96816c0.19171,0.38259 0.74054,0.9558 0.91262,1.55111c0.26473,-0.56767 0.60205,-1.10217 0.89863,-1.65473c0.39484,-0.73563 0.80268,-1.46422 1.20402,-2.19633c1.05973,-1.93313 2.12351,-3.85639 3.21492,-5.77196c2.07596,-1.54872 4.16582,-3.07666 6.25826,-4.60301c0.66073,-0.48198 1.34026,-0.93916 1.98245,-1.44558c0.65812,-0.51899 1.25149,-1.11745 1.91578,-1.62852c0.67657,-0.52051 1.40127,-0.97528 2.10211,-1.46262c1.29458,-0.90019 2.53254,-1.88833 3.88596,-2.69735c0.73812,-0.44121 1.52492,-0.79535 2.28768,-1.19247c0.73915,-0.38483 1.47835,-0.7696 2.21805,-1.15338c0.5226,-0.27115 1.02297,-0.59087 1.56886,-0.81142c2.16354,-0.8741 2.80638,-0.90456 5.05967,-1.36307c0.62728,-0.12764 1.24743,-0.29881 1.88232,-0.38056c0.06095,-0.00785 4.95399,-0.36948 5.06517,-0.37772c3.77729,-0.27975 7.53742,-0.68989 11.2998,-1.12074c2.96871,-0.33965 5.96688,-0.603 8.9493,-0.79011c2.50065,-0.15689 5.01254,-0.20524 7.51564,-0.31742c2.50466,-0.11225 5.00588,-0.23735 7.51208,-0.31192c3.34572,-0.09955 6.68366,-0.15461 10.03084,-0.16554c1.29458,-0.00423 2.58918,-0.00593 3.88376,-0.00451c0.46306,0.0005 0.92881,-0.04553 1.38918,0.00426c0.27025,0.02922 4.66054,0.78189 5.00248,0.82985c1.63088,0.22872 3.27251,0.37279 4.90873,0.55954c2.94311,0.20589 5.88852,0.40868 8.82268,0.72253c1.33594,0.1429 2.66245,0.37065 4.00046,0.49262c0.84325,0.07686 1.69398,0.07341 2.53365,0.18266c0.09101,0.01184 4.81978,0.91166 4.96566,0.93697c2.25759,0.39167 4.55365,0.59859 6.80385,1.02483c0.37129,0.07033 3.63067,0.81399 4.29126,0.95283c0.76294,0.16034 1.52209,0.34478 2.29312,0.46008c0.78681,0.11766 1.589,0.11356 2.37477,0.23792c0.84016,0.13297 1.66145,0.36623 2.49558,0.53292c0.75118,0.15012 1.50587,0.28221 2.25988,0.41741c0.51274,0.09194 1.03787,0.12646 1.5403,0.26401c0.15251,0.04175 2.46331,0.98394 2.61142,1.04401c1.61067,1.07378 3.33386,1.71655 4.94073,2.69089c0.04437,-0.46398 0.07187,-0.81104 0.0647,-0.89851c-0.06249,-0.76266 -0.38585,-1.48102 -0.57393,-2.22276c-0.19799,-0.78079 -0.33685,-1.57824 -0.58427,-2.3448c-0.5034,-1.5596 -1.21558,-3.04392 -1.82197,-4.56644c-0.53353,-1.33957 -1.10123,-2.66555 -1.68199,-3.98533c-0.52152,-1.18515 -0.94748,-2.41687 -1.56215,-3.55649c-0.77875,-1.44383 -1.69014,-2.81208 -2.53414,-4.21876c-2.43466,-4.05776 -4.9176,-8.0904 -7.71934,-11.90617c-0.25604,-0.01107 -0.44582,-0.08454 -0.44582,-0.08454z" fill="#000000" stroke="none" stroke-width="0.5" stroke-linecap="butt"/></g><g stroke="#000000" stroke-width="1.5" stroke-linecap="round"><path d="M260.81447,45.38626l17.57643,-4.644l9.30093,15.97596l-2.37399,18.7344l-242.44956,287.06843l-17.44812,3.63133l-11.28047,-9.92989l-1.29195,-2.57162l2.60298,-14.15741l227.38254,-268.64834z" fill="#943900"/><path d="M278.49971,81.37887l178.22727,61.80878l-8.40458,43.98127l-34.4579,58.06592l-50.27949,58.436l-53.05043,16.46368l-57.58639,10.76419l-26.57938,-186.05042z" fill="#b0b0b0"/></g></g></g></svg>