<svg version="1.1" xmlns="http://www.w3.org/2000/svg" xmlns:xlink="http://www.w3.org/1999/xlink" width="2878.25006" height="1619.57958" viewBox="0,0,2878.25006,1619.57958"><g transform="translate(1117.37278,629.80931)"><g data-paper-data="{&quot;isPaintingLayer&quot;:true}" stroke-linejoin="miter" stroke-miterlimit="10" stroke-dasharray="" stroke-dashoffset="0" style="mix-blend-mode: normal"><path d="M-1117.37278,989.77027v-1619.57958h2878.25006v1619.57958z" fill="none" fill-rule="nonzero" stroke="#000000" stroke-width="0" stroke-linecap="butt"/><g><path d="M166.60391,320.57407l-20.82944,-32.08111l98.93997,0.28391l35.41008,31.79721z" data-paper-data="{&quot;index&quot;:null}" fill="#cedce9" fill-rule="nonzero" stroke="#000000" stroke-width="1" stroke-linecap="round"/><path d="M289.53556,318.90692c-2.67777,0.35165 -5.31028,0.55286 -7.91648,0.69795c0.01763,0.05401 0.02678,0.11037 0.02678,0.16914c0,1.43183 -5.45163,1.43183 -5.45163,1.43183c-24.07819,0 -48.15629,0 -72.23449,0c-6.19602,0 -21.61328,-0.6496 -26.1831,0.2068c-2.6323,0.49328 -4.5168,0.44446 -7.88975,0.50911c-0.38076,0.0073 -1.07319,0.02292 -1.68499,0.03252c3.26153,0.61154 1.68499,6.26298 1.68499,7.84265c0,6.68196 0,13.36392 0,20.04588c0,1.19317 0,2.38644 0,3.57962c0,0.47728 -0.95883,1.83729 0,1.43184c3.64797,-1.54249 10.76725,-0.71316 19.08082,-0.71593c16.38786,-0.00545 33.93283,-0.46573 50.02823,0.3086c29.3913,1.54388 60.99169,-0.92278 90.14846,0.79734c24.55665,1.61241 53.95223,1.75771 79.25243,1.75771c6.36033,0 12.72054,0 19.08086,0c0.95696,0 2.45952,-0.03385 4.01518,-0.07095c-1.5649,-0.73453 0.07359,-2.51079 0.07359,-3.50869c0,-3.72789 4.75777,-10.15844 -1.08312,-13.50772c-5.16161,-4.06702 -8.42677,-7.98276 -16.84651,-12.03879c-6.21232,-2.9927 -15.88312,-5.64545 -21.0232,-8.61824c-2.4919,-1.77175 -4.72273,-0.5055 -12.83781,-0.91555c-17.95659,-0.90733 -35.96617,-0.71591 -54.51657,-0.71591c-6.76175,0 -15.25394,0.36058 -21.8067,0c-1.38322,-0.0761 -3.98282,-0.35904 -5.93131,-0.59078c3.56396,0.72316 -4.56843,1.42272 -7.98564,1.87149zM203.95952,318.34208c18.1975,0 36.39508,0 54.59255,0c0.525,-0.06894 1.0498,-0.13786 1.57472,-0.2068c6.91449,-0.90803 13.15706,-0.66739 19.08085,-1.07388c8.07293,-0.55395 12.90173,-2.4196 21.23109,-2.8637c4.78489,-0.25509 18.03747,0.56476 24.82021,0.56476c18.39165,0 36.76312,-0.27621 54.51655,0.71594c9.97315,0.55735 18.4017,-0.52921 23.06566,2.78692c0.68757,1.25968 6.19057,2.04701 9.06881,3.01604c4.39866,1.4809 8.07511,3.67415 11.47881,5.31379c8.4378,4.06474 12.14782,8.24547 17.43817,12.41388c4.72775,4.39384 1.64265,9.84238 1.64265,14.41332c0,2.52708 1.5164,4.30818 -5.45164,6.44333c-2.4299,0.74457 -24.87798,0 -28.62118,0c-26.09599,0 -56.58729,-0.18139 -81.89691,-1.84326c-27.80485,-2.13458 -60.90242,0.74224 -89.64238,-0.76745c-23.15979,-1.37011 -58.90779,2.27975 -77.87395,-2.40077c-1.87772,-0.46341 0,-4.24847 0,-5.01148c0,-6.68196 0,-13.36389 0,-20.04586c0,-2.23401 -3.74947,-7.56787 1.93852,-9.23146c9.92604,-2.90312 28.50273,-2.22335 43.03754,-2.22335z" data-paper-data="{&quot;index&quot;:null}" fill="#000000" fill-rule="nonzero" stroke="none" stroke-width="1" stroke-linecap="butt"/><path d="M281.54304,319.53604c2.6061,-0.14508 5.2704,-0.34818 7.94827,-0.69984c3.41726,-0.44876 11.58191,-1.14916 8.01787,-1.87232c1.94851,0.23172 4.56978,0.51464 5.95285,0.59077c6.55277,0.36058 15.12094,0.00359 21.88259,0.00359c18.55027,0 36.6768,-0.17131 54.63336,0.73599c8.11505,0.41004 10.36279,-0.85078 12.85467,0.92097c5.14014,2.97276 14.85171,5.64686 21.06415,8.63957c8.41973,4.05604 11.69606,7.99895 16.85771,12.06599c5.84102,3.34929 1.05759,9.80461 1.05759,13.5325c0,0.9979 -1.64867,2.77922 -0.08373,3.51373c-1.55559,0.0371 -3.06023,0.07186 -4.01727,0.07186c-6.3603,0 -12.73164,0.0045 -19.09196,0.0045c-25.30039,0 -54.8153,-0.12036 -79.37195,-1.73279c-29.15679,-1.7201 -61.046,0.73267 -90.43735,-0.81122c-16.09536,-0.77436 -33.68996,-0.33039 -50.07783,-0.32495c-8.3135,0.00277 -15.43926,-0.82964 -19.08722,0.71284c-0.95883,0.40542 -0.00412,-0.95671 -0.00412,-1.43399c0,-1.19317 -0.00931,-2.3922 -0.00931,-3.58542c0,-6.68196 -0.01137,-13.40364 -0.01137,-20.08562c0,-1.57966 1.59311,-7.24482 -1.66845,-7.85638c0.6119,-0.00961 1.30492,-0.02556 1.68564,-0.03287c3.37284,-0.06461 5.26162,-0.0182 7.89387,-0.5115c4.56984,-0.85638 20.00114,-0.21348 26.19712,-0.21348c24.07827,0 48.28473,-0.02846 72.36283,-0.02846c0,0 5.47839,-0.00245 5.47839,-1.43429c0,-0.05877 -0.00847,-0.11515 -0.02616,-0.16919z" data-paper-data="{&quot;noHover&quot;:false,&quot;origItem&quot;:[&quot;Path&quot;,{&quot;applyMatrix&quot;:true,&quot;segments&quot;:[[[579.60736,595.76373],[0.95609,-0.20262],[0.00646,0.07548]],[[579.61718,596],[0,-0.08208],[0,2]],[[577.61718,598],[0,0],[-8.83333,0]],[[551.11718,598],[8.83333,0],[-2.27308,0]],[[541.51161,598.28885],[1.67648,-1.19621],[-0.96568,0.68904]],[[538.61718,599],[1.23739,-0.09027],[-0.13966,0.01019]],[[537.99901,599.04541],[0.22447,-0.0134],[1.19653,0.85421]],[[538.61718,610],[0,-2.20646],[0,9.33333]],[[538.61718,638],[0,-9.33333],[0,1.66667]],[[538.61718,643],[0,-1.66667],[0,0.66667]],[[538.61718,645],[-0.35177,0.56631],[1.33831,-2.15456]],[[545.61718,644],[-3.04994,0.00386],[6.01206,-0.00761]],[[563.97058,644.43107],[-5.90478,-1.08158],[10.78253,2.15651]],[[597.04254,645.54479],[-10.6965,-2.40266],[9.00888,2.25222]],[[626.11718,648],[-9.28168,0],[2.33333,0]],[[633.11718,648],[-2.33333,0],[0.35109,0]],[[634.59021,647.90091],[-0.5707,0.05184],[-0.57412,-1.02596]],[[634.61718,643],[0,1.39387],[0,-5.20707]],[[634.21982,624.13246],[2.14282,4.67827],[-1.8936,-5.6808]],[[628.03948,607.31672],[3.08887,5.66543],[-2.2791,-4.1802]],[[620.32688,595.27881],[1.8857,4.15235],[-0.91417,-2.47477]],[[615.61718,594],[2.9771,0.57275],[-6.58756,-1.26734]],[[595.61718,593],[6.8054,0],[-2.48058,0]],[[587.61718,593],[2.40395,0.50364],[-0.50743,-0.10631]],[[585.44122,592.1748],[0.71481,0.32365],[1.30749,1.01011]],[[582.51161,594.78885],[1.25365,-0.62682],[-0.98239,0.4912]]],&quot;closed&quot;:true}],&quot;index&quot;:null}" fill="#484848" fill-rule="nonzero" stroke="none" stroke-width="1" stroke-linecap="butt"/><path d="M357.96901,324.78542c0,-0.16603 -0.07552,-0.44408 -0.14769,-0.71724c-0.28079,0.11084 -0.69968,0.20538 -1.23832,0.28573c-1.61523,0.43151 -4.06573,0.4315 -4.06573,0.4315c-20.7654,0 -32.75915,3.8011 -40.10001,7.79961c-0.86363,0.45366 -0.7873,1.00022 -0.7873,1.50742c0,0.14432 -0.05253,0.37363 -0.10994,0.61086c0.05491,-0.07637 0.19196,-0.13913 0.471,-0.1794c1.23309,-0.178 11.95263,0.91129 13.26802,0.28449c0.39531,-0.1884 -1.93894,-0.22387 -1.8102,-0.43627c1.5834,-2.61151 18.37577,-6.56162 26.63049,-7.64568c2.14093,-0.28118 4.55105,-0.42264 6.94699,-0.4874c-0.93673,-0.38317 0.94267,-0.96964 0.94267,-1.45355zM311.49122,334.82178c-0.12363,0.50905 -0.23336,0.99562 0.13869,0.70249c0.25432,-0.20032 -0.11284,-0.48157 -0.13869,-0.70249zM302.66517,331.30431c7.79157,-3.85785 18.15414,-7.37543 34.30287,-8.75995c1.51693,-0.62263 4.64603,-0.62264 4.64603,-0.62264h2.72581c6.17213,0 9.43753,-0.56475 16.06723,-0.56475c9.20705,0 11.34127,4.80841 6.52673,6.21657c-3.03814,0.88857 -7.91145,1.18012 -11.97842,1.71423c-12.03844,1.5809 -16.50525,6.12385 -29.69631,8.38428c-13.98088,2.39574 -29.37274,-2.80694 -22.5939,-6.36773z" data-paper-data="{&quot;index&quot;:null}" fill="#000000" fill-rule="nonzero" stroke="none" stroke-width="1" stroke-linecap="butt"/><path d="M358.02384,324.0202c0.07235,0.27316 0.16043,0.55517 0.16043,0.7212c0,0.4839 -1.85705,1.07921 -0.92031,1.46239c-2.39599,0.06479 -4.81991,0.20042 -6.96091,0.4816c-8.25482,1.08403 -25.12819,5.01413 -26.71154,7.62562c-0.12887,0.21244 1.9465,0.37367 1.55117,0.56205c-1.31541,0.62679 -12.12784,-0.48132 -13.36093,-0.30334c-0.27916,0.0403 -0.41488,0.10341 -0.46972,0.17983c0.05741,-0.23723 0.09986,-0.46987 0.09986,-0.61417c0,-0.50718 -0.10006,-1.06372 0.76353,-1.51736c7.34081,-3.99851 19.76751,-7.88369 40.53288,-7.88369c0,0 2.4616,0.00309 4.07682,-0.42843c0.53868,-0.08038 0.95776,-0.17485 1.23843,-0.2857z" data-paper-data="{&quot;noHover&quot;:false,&quot;origItem&quot;:[&quot;Path&quot;,{&quot;applyMatrix&quot;:true,&quot;segments&quot;:[[[607.563,601.99816],[0.02649,0.38155],[-0.10299,0.15484]],[[607.10872,602.39727],[0.1976,-0.11227],[-0.59254,0.60273]],[[605.61718,603],[0,0],[-7.618,0]],[[590.90604,613.89443],[2.69308,-5.58508],[-0.31682,0.63364]],[[590.61718,616],[0,-0.70843],[0,0.20156]],[[590.57685,616.85325],[0.02106,-0.33136],[0.02013,-0.10671]],[[590.74964,616.60263],[-0.10238,0.05628],[0.45234,-0.24865]],[[595.61718,617],[-0.48256,0.87548],[0.14503,-0.26312]],[[594.95308,616.3906],[-0.04725,0.29671],[0.58086,-3.64773]],[[604.72276,605.71115],[-3.02833,1.51416],[0.78545,-0.39273]],[[607.27135,605.03032],[-0.87898,0.0905],[-0.34365,-0.53523]],[[607.61718,603],[0,0.6759],[0,-0.23192]]],&quot;closed&quot;:true}],&quot;index&quot;:null}" fill="#ffffff" fill-rule="nonzero" stroke="none" stroke-width="1" stroke-linecap="butt"/><path d="M-20.89148,320.57408l35.41008,-31.79721l98.93997,-0.28391l-20.82944,32.08111z" data-paper-data="{&quot;index&quot;:null}" fill="#cedce9" fill-rule="nonzero" stroke="#000000" stroke-width="1" stroke-linecap="round"/><path d="M-30.30257,318.90681c-3.4172,-0.44876 -11.5496,-1.14832 -7.98564,-1.87149c-1.9485,0.23174 -4.54809,0.51468 -5.93131,0.59078c-6.55276,0.36058 -15.04495,0 -21.8067,0c-18.5504,0 -36.55997,-0.19142 -54.51656,0.71591c-8.11507,0.41005 -10.34591,-0.8562 -12.83781,0.91555c-5.14008,2.97279 -14.81088,5.62554 -21.0232,8.61824c-8.41974,4.05604 -11.6849,7.97177 -16.84651,12.03879c-5.84089,3.34928 -1.08312,9.77984 -1.08312,13.50772c0,0.9979 1.6385,2.77416 0.0736,3.50869c1.55566,0.0371 3.05822,0.07095 4.01518,0.07095c6.36032,0 12.72052,0 19.08085,0c25.3002,0 54.69578,-0.14529 79.25243,-1.75771c29.15678,-1.72012 60.75716,0.74654 90.14846,-0.79734c16.09541,-0.77433 33.64038,-0.31405 50.02823,-0.3086c8.31357,0.00277 15.43284,-0.82656 19.08082,0.71593c0.95883,0.40544 0,-0.95457 0,-1.43184c0,-1.19318 0,-2.38645 0,-3.57962c0,-6.68196 0,-13.36392 0,-20.04588c0,-1.57967 -1.57655,-7.23111 1.68499,-7.84265c-0.6118,-0.00959 -1.30422,-0.02522 -1.68499,-0.03252c-3.37295,-0.06464 -5.25745,-0.01583 -7.88975,-0.50911c-4.56982,-0.8564 -19.98708,-0.2068 -26.1831,-0.2068c-24.07819,0 -48.1563,0 -72.23448,0c0,0 -5.45164,0 -5.45164,-1.43183c0,-0.05877 0.00915,-0.11513 0.02678,-0.16914c-2.6062,-0.14508 -5.23871,-0.34629 -7.91648,-0.69795zM55.27341,318.34204c14.53481,0 33.11149,-0.67976 43.03754,2.22335c5.68799,1.66359 1.93853,6.99745 1.93853,9.23146c0,6.68198 0,13.3639 0,20.04586c0,0.76301 1.87772,4.54807 0,5.01148c-18.96616,4.68052 -54.71416,1.03066 -77.87395,2.40077c-28.73996,1.50968 -61.83752,-1.36714 -89.64237,0.76745c-25.30961,1.66187 -55.80092,1.84326 -81.89691,1.84326c-3.7432,0 -26.19127,0.74457 -28.62118,0c-6.96803,-2.13515 -5.45163,-3.91625 -5.45163,-6.44333c0,-4.57094 -3.08509,-10.01948 1.64265,-14.41332c5.29035,-4.16841 9.00037,-8.34915 17.43817,-12.41388c3.4037,-1.63964 7.08015,-3.83289 11.47881,-5.31379c2.87825,-0.96902 8.38125,-1.75635 9.06882,-3.01604c4.66396,-3.31613 13.09251,-2.22957 23.06566,-2.78692c17.75343,-0.99214 36.12491,-0.71594 54.51656,-0.71594c6.78273,0 20.03532,-0.81985 24.82021,-0.56476c8.32936,0.4441 13.15816,2.30974 21.2311,2.8637c5.92379,0.4065 12.16636,0.16585 19.08085,1.07388c0.52492,0.06894 1.04972,0.13786 1.57472,0.2068c18.19747,0 36.39505,0 54.59255,0z" data-paper-data="{&quot;index&quot;:null}" fill="#000000" fill-rule="nonzero" stroke="none" stroke-width="1" stroke-linecap="butt"/><path d="M-22.31021,319.53604c-0.01769,0.05403 -0.02615,0.11042 -0.02615,0.16919c0,1.43184 5.47839,1.43429 5.47839,1.43429c24.0781,0 48.28456,0.02846 72.36283,0.02846c6.19599,0 21.62728,-0.64291 26.19712,0.21348c2.63224,0.4933 4.52102,0.44689 7.89387,0.5115c0.38072,0.00731 1.07374,0.02326 1.68565,0.03287c-3.26155,0.61156 -1.66845,6.27672 -1.66845,7.85638c0,6.68198 -0.01137,13.40366 -0.01137,20.08562c0,1.19322 -0.00931,2.39225 -0.00931,3.58542c0,0.47728 0.95471,1.83941 -0.00412,1.43399c-3.64796,-1.54248 -10.77373,-0.71007 -19.08722,-0.71284c-16.38787,-0.00544 -33.98247,-0.44941 -50.07783,0.32495c-29.39134,1.5439 -61.28055,-0.90888 -90.43734,0.81122c-24.55665,1.61242 -54.07156,1.73279 -79.37195,1.73279c-6.36032,0 -12.73166,-0.0045 -19.09196,-0.0045c-0.95704,0 -2.46168,-0.03475 -4.01727,-0.07186c1.56494,-0.73452 -0.08373,-2.51584 -0.08373,-3.51373c0,-3.72789 -4.78344,-10.18321 1.05758,-13.5325c5.16165,-4.06703 8.43797,-8.00995 16.85771,-12.06599c6.21245,-2.99271 15.92401,-5.6668 21.06416,-8.63957c2.49188,-1.77175 4.73962,-0.51094 12.85467,-0.92097c17.95656,-0.9073 36.08309,-0.73599 54.63336,-0.73599c6.76164,0 15.32983,0.35699 21.88259,-0.00359c1.38307,-0.07613 4.00434,-0.35904 5.95285,-0.59077c-3.56404,0.72316 4.60061,1.42356 8.01787,1.87232c2.67787,0.35166 5.34217,0.55476 7.94827,0.69984z" data-paper-data="{&quot;noHover&quot;:false,&quot;origItem&quot;:[&quot;Path&quot;,{&quot;applyMatrix&quot;:true,&quot;segments&quot;:[[[579.60736,595.76373],[0.95609,-0.20262],[0.00646,0.07548]],[[579.61718,596],[0,-0.08208],[0,2]],[[577.61718,598],[0,0],[-8.83333,0]],[[551.11718,598],[8.83333,0],[-2.27308,0]],[[541.51161,598.28885],[1.67648,-1.19621],[-0.96568,0.68904]],[[538.61718,599],[1.23739,-0.09027],[-0.13966,0.01019]],[[537.99901,599.04541],[0.22447,-0.0134],[1.19653,0.85421]],[[538.61718,610],[0,-2.20646],[0,9.33333]],[[538.61718,638],[0,-9.33333],[0,1.66667]],[[538.61718,643],[0,-1.66667],[0,0.66667]],[[538.61718,645],[-0.35177,0.56631],[1.33831,-2.15456]],[[545.61718,644],[-3.04994,0.00386],[6.01206,-0.00761]],[[563.97058,644.43107],[-5.90478,-1.08158],[10.78253,2.15651]],[[597.04254,645.54479],[-10.6965,-2.40266],[9.00888,2.25222]],[[626.11718,648],[-9.28168,0],[2.33333,0]],[[633.11718,648],[-2.33333,0],[0.35109,0]],[[634.59021,647.90091],[-0.5707,0.05184],[-0.57412,-1.02596]],[[634.61718,643],[0,1.39387],[0,-5.20707]],[[634.21982,624.13246],[2.14282,4.67827],[-1.8936,-5.6808]],[[628.03948,607.31672],[3.08887,5.66543],[-2.2791,-4.1802]],[[620.32688,595.27881],[1.8857,4.15235],[-0.91417,-2.47477]],[[615.61718,594],[2.9771,0.57275],[-6.58756,-1.26734]],[[595.61718,593],[6.8054,0],[-2.48058,0]],[[587.61718,593],[2.40395,0.50364],[-0.50743,-0.10631]],[[585.44122,592.1748],[0.71481,0.32365],[1.30749,1.01011]],[[582.51161,594.78885],[1.25365,-0.62682],[-0.98239,0.4912]]],&quot;closed&quot;:true}],&quot;index&quot;:null}" fill="#484848" fill-rule="nonzero" stroke="none" stroke-width="1" stroke-linecap="butt"/><path d="M-98.73596,324.78549c0,0.4839 1.87939,1.07038 0.94267,1.45355c2.39594,0.06475 4.80607,0.20621 6.94699,0.4874c8.25472,1.08405 25.04709,5.03417 26.63049,7.64568c0.12874,0.2124 -2.20552,0.24788 -1.81021,0.43627c1.31539,0.6268 12.03494,-0.46249 13.26802,-0.28449c0.27904,0.04027 0.41609,0.10303 0.471,0.1794c-0.05741,-0.23723 -0.10994,-0.46654 -0.10994,-0.61086c0,-0.5072 0.07632,-1.05376 -0.7873,-1.50742c-7.34086,-3.99851 -19.33461,-7.79961 -40.10001,-7.79961c0,0 -2.4505,0.00001 -4.06573,-0.4315c-0.53864,-0.08035 -0.95754,-0.17489 -1.23833,-0.28573c-0.07217,0.27317 -0.14769,0.55122 -0.14769,0.71724zM-52.3969,335.52427c0.37205,0.29314 0.26232,-0.19344 0.13869,-0.70249c-0.02585,0.22091 -0.39301,0.50217 -0.13869,0.70249zM-43.43219,331.30433c6.77884,3.56079 -8.61302,8.76346 -22.5939,6.36773c-13.19106,-2.26043 -17.65787,-6.80338 -29.69631,-8.38428c-4.06697,-0.53411 -8.94029,-0.82567 -11.97842,-1.71423c-4.81454,-1.40816 -2.68033,-6.21657 6.52672,-6.21657c6.62971,0 9.8951,0.56475 16.06723,0.56475h2.7258c0,0 3.12909,0.00001 4.64602,0.62264c16.14874,1.38452 26.51131,4.9021 34.30288,8.75995z" data-paper-data="{&quot;index&quot;:null}" fill="#000000" fill-rule="nonzero" stroke="none" stroke-width="1" stroke-linecap="butt"/><path d="M-98.79051,324.0202c0.28066,0.11086 0.69975,0.20532 1.23843,0.2857c1.61522,0.43151 4.07682,0.42843 4.07682,0.42843c20.76537,0 33.19208,3.88517 40.53288,7.88369c0.86359,0.45364 0.76353,1.01018 0.76353,1.51736c0,0.1443 0.04245,0.37694 0.09986,0.61417c-0.05483,-0.07642 -0.19056,-0.13953 -0.46972,-0.17983c-1.23308,-0.17798 -12.04552,0.93013 -13.36092,0.30334c-0.39533,-0.18838 1.68004,-0.3496 1.55117,-0.56205c-1.58335,-2.61149 -18.45672,-6.54159 -26.71155,-7.62562c-2.141,-0.28118 -4.56492,-0.41681 -6.96091,-0.4816c0.93674,-0.38318 -0.92031,-0.97848 -0.92031,-1.46239c0,-0.16604 0.08808,-0.44804 0.16043,-0.7212z" data-paper-data="{&quot;noHover&quot;:false,&quot;origItem&quot;:[&quot;Path&quot;,{&quot;applyMatrix&quot;:true,&quot;segments&quot;:[[[607.563,601.99816],[0.02649,0.38155],[-0.10299,0.15484]],[[607.10872,602.39727],[0.1976,-0.11227],[-0.59254,0.60273]],[[605.61718,603],[0,0],[-7.618,0]],[[590.90604,613.89443],[2.69308,-5.58508],[-0.31682,0.63364]],[[590.61718,616],[0,-0.70843],[0,0.20156]],[[590.57685,616.85325],[0.02106,-0.33136],[0.02013,-0.10671]],[[590.74964,616.60263],[-0.10238,0.05628],[0.45234,-0.24865]],[[595.61718,617],[-0.48256,0.87548],[0.14503,-0.26312]],[[594.95308,616.3906],[-0.04725,0.29671],[0.58086,-3.64773]],[[604.72276,605.71115],[-3.02833,1.51416],[0.78545,-0.39273]],[[607.27135,605.03032],[-0.87898,0.0905],[-0.34365,-0.53523]],[[607.61718,603],[0,0.6759],[0,-0.23192]]],&quot;closed&quot;:true}],&quot;index&quot;:null}" fill="#ffffff" fill-rule="nonzero" stroke="none" stroke-width="1" stroke-linecap="butt"/><path d="M-13.75346,289.77614c1.9423,0.49273 3.9151,0.8042 5.91783,0.93439c-1.97251,0 -3.94532,0 -5.91783,0c0,-0.31146 0,-0.62293 0,-0.93439z" data-paper-data="{&quot;index&quot;:null}" fill="#5a5a5a" fill-rule="evenodd" stroke="#000000" stroke-width="0.5" stroke-linecap="butt"/><path d="M188.38723,291.95641c0,0.41519 0,0.83067 0,1.24586c-3.79364,0.10216 -7.53122,-0.00156 -11.21273,-0.31146c3.63479,0 7.26648,0 10.90127,0c-0.07475,-0.40209 0.03115,-0.71357 0.31146,-0.93439z" data-paper-data="{&quot;index&quot;:null}" fill="#b9b9b9" fill-rule="evenodd" stroke="#000000" stroke-width="0.5" stroke-linecap="butt"/></g><path d="M-150.98816,74.1092l140.59265,-9.39695l45.17758,18.07104l169.14489,-7.58983l36.86492,40.47912l24.93802,-1.44568l-1.44568,-13.01115l121.07594,-4.69846v11.20404v2.16853l32.52787,-2.52995l9.39695,-2.16853l9.75836,187.66769l-204.56411,-8.31266l-35.59994,32.52785l-355.72833,-15.17966z" fill="#cbc7c4" fill-rule="nonzero" stroke="#000000" stroke-width="1" stroke-linecap="round"/><path d="M438.34724,293.59249l-205.41422,-8.59473l-35.11563,33.15113l-357.41827,-15.7161l4.66571,-123.05385l94.05098,0.24556l-2.94677,9.08586l17.18948,-0.24556l0.73669,4.1746l249.75624,-0.18418v-11.78706l1.96451,-0.24556l28.23985,8.8403l198.10869,-0.73669z" fill="#976a5c" fill-rule="nonzero" stroke="#000000" stroke-width="1" stroke-linecap="round"/><path d="M207.41213,157.21681l-19.15398,28.73098l-151.26737,0.24556l-54.51519,-48.37609l-53.77849,50.83173l-8.34917,-9.33143l61.8821,-59.67204l57.70752,58.44421l145.80358,-1.47338l20.87293,-29.46766z" fill="#6e6157" fill-rule="nonzero" stroke="#000000" stroke-width="1" stroke-linecap="round"/><path d="M234.97669,183.49216l213.21085,-3.19233l-3.43789,9.08586h-210.81661l-1.47338,-5.64797z" fill="#6e6157" fill-rule="nonzero" stroke="#000000" stroke-width="1" stroke-linecap="round"/><path d="M383.91124,97.79036l-120.4491,3.43789l1.96451,11.78706l-25.29309,3.68346l-36.83459,-40.7636l-167.10625,8.10361l-47.14827,-18.17174l-156.66977,8.84031l-13.99715,-13.26046l171.83334,-4.66571l44.44707,18.66287l180.79642,-9.82257l29.71324,42.48256h11.29594l-1.47338,-13.75159l140.89229,-5.89353l-3.19233,13.0149l45.92045,-4.42015l-2.7012,7.61248l-17.43503,2.94677l-32.90557,1.96451z" fill="#6e6157" fill-rule="nonzero" stroke="#000000" stroke-width="1" stroke-linecap="round"/><path d="M408.09923,291.54028l-156.91535,-6.8758l-2.45564,-75.87925l158.32733,-1.96451l2.21007,86.19293z" fill="#cbc7c4" fill-rule="nonzero" stroke="#000000" stroke-width="1" stroke-linecap="round"/><path d="M401.22345,224.74689l-145.12827,-1.22782v-12.27821l144.63714,0.49113z" fill="#18140b" fill-rule="nonzero" stroke="#000000" stroke-width="1" stroke-linecap="round"/><path d="M282.73886,165.50461l-3.19233,-55.49744l87.42075,-2.94677l0.73669,55.743z" fill="#6e6157" fill-rule="nonzero" stroke="#000000" stroke-width="1" stroke-linecap="round"/><path d="M288.38684,160.1022l-1.96451,-45.42932l74.16031,-1.22782l1.22782,45.67489z" fill="#5e768b" fill-rule="nonzero" stroke="#000000" stroke-width="1" stroke-linecap="round"/><path d="M207.96466,86.61718l16.69835,16.20723l-0.24556,42.48256l-15.7161,-9.57699z" fill="#5e768b" fill-rule="nonzero" stroke="#000000" stroke-width="1" stroke-linecap="round"/><path d="M210.66587,195.95454l13.99714,0.73669l1.47338,64.33774l-12.52376,4.42015z" fill="#5e768b" fill-rule="nonzero" stroke="#000000" stroke-width="1" stroke-linecap="round"/><path d="M194.0289,191.47298l-0.73669,84.10564l-106.08361,-0.98226l-1.47338,-81.34304l98.71669,-0.73669z" fill="#6e6157" fill-rule="nonzero" stroke="#000000" stroke-width="1" stroke-linecap="round"/><path d="M187.64425,269.31674l-93.06872,-2.7012l-0.73669,-7.85806l0.73669,-60.65428l94.05098,-0.73669z" fill="#5e768b" fill-rule="nonzero" stroke="#000000" stroke-width="1" stroke-linecap="round"/><path d="M7.89146,289.33022l-0.98226,-97.18192l51.07729,0.24556l-0.98226,102.82988l-51.07729,-5.89353z" fill="#6e6157" fill-rule="nonzero" stroke="#000000" stroke-width="1" stroke-linecap="round"/><path d="M14.03055,285.89229l-0.24556,-94.41932l33.64226,0.98226l1.71895,96.99774z" fill="#120e0e" fill-rule="nonzero" stroke="#000000" stroke-width="1" stroke-linecap="round"/><path d="M-120.59984,189.75404l74.897,-1.22782l0.73669,77.10707l-77.10706,2.7012z" fill="#6e6157" fill-rule="nonzero" stroke="#000000" stroke-width="1" stroke-linecap="round"/><path d="M-114.95191,259.24861l3.68346,-63.35548l57.2164,-0.49113l-0.73669,65.56556z" fill="#5e768b" fill-rule="nonzero" stroke="#000000" stroke-width="1" stroke-linecap="round"/><path d="M-63.03287,306.36181l57.95308,-18.41729l61.82072,7.36692l153.723,0.73669l5.89353,3.19233l-18.17172,18.90843z" fill="#252b33" fill-rule="nonzero" stroke="#000000" stroke-width="1" stroke-linecap="round"/><path d="M-49.8952,149.69208l-75.63369,1.47338l3.68346,-70.72241l76.61594,-4.66571z" fill="#6e6157" fill-rule="nonzero" stroke="#000000" stroke-width="1" stroke-linecap="round"/><path d="M-55.05205,143.06184l-63.10992,1.47338l3.92902,-58.68978l62.12766,-3.19233z" fill="#5e768b" fill-rule="nonzero" stroke="#000000" stroke-width="1" stroke-linecap="round"/><path d="M118.14316,107.40413c1.83197,-1.22283 3.31414,-3.04497 5.318,-3.95931c5.43036,-2.47782 11.61151,2.24799 16.04071,4.42618c3.1282,1.53834 7.05137,2.53674 9.95663,4.46837c6.11217,4.06385 8.81161,12.61711 4.48833,18.6608c-3.30011,3.85601 -8.21971,9.10309 -13.32548,10.50798c-2.73675,0.75305 -7.05484,-0.14678 -9.81365,-0.43786c-1.92552,-0.20317 -5.57478,-0.04349 -7.13672,-1.69709c-4.2422,-4.49105 -5.96562,-12.02563 -7.70811,-17.70122c-1.0023,-3.26463 -2.18283,-6.6738 -2.28705,-10.10886c0.44013,-0.75938 1.53033,-2.60787 2.37547,-4.1322c0.9714,0.72174 2.09192,-0.02677 2.09192,-0.02677z" data-paper-data="{&quot;noHover&quot;:false,&quot;origItem&quot;:[&quot;Path&quot;,{&quot;applyMatrix&quot;:true,&quot;segments&quot;:[[[254.6949,186.11405],[0.65028,0.48315],[-0.56576,1.02044]],[[253.11005,188.87188],[0.29463,-0.50835],[0.06978,2.29953]],[[254.64642,195.6181],[-0.67098,-2.18546],[1.16649,3.79941]],[[259.7839,207.42445],[-2.83986,-3.00645],[1.04562,1.10696]],[[264.54461,208.55349],[-1.289,-0.13601],[1.84685,0.19486]],[[271.0893,208.84756],[-1.83206,0.50411],[3.41796,-0.94048]],[[279.97866,201.84029],[-2.20919,2.58133],[2.89415,-4.04583]],[[276.97815,189.39711],[4.09168,2.72046],[-1.94487,-1.2931]],[[270.33889,186.42531],[2.0941,1.02982],[-2.96504,-1.45813]],[[259.64197,183.45745],[3.63526,-1.65872],[-1.34144,0.61208]],[[256.09339,186.09839],[1.22638,-0.8186],[0,0]]],&quot;closed&quot;:true}],&quot;index&quot;:null}" fill="#ffffff" fill-rule="nonzero" stroke="#000000" stroke-width="2.5" stroke-linecap="butt"/><path d="M89.93871,111.02199c2.80739,0.56464 7.16181,1.79239 8.95301,4.50105c1.68594,2.54946 2.4409,5.98266 2.92394,8.91061c0.62716,3.8016 0.9642,6.43597 0.05622,10.19303c-1.35818,3.11782 -2.81332,8.72607 -5.36993,11.05873c-1.3712,1.2511 -3.92279,1.68175 -5.61855,2.19047c-13.83729,4.15118 -20.37949,-9.13232 -21.95189,-21.03651c-0.01164,-3.55105 -0.67004,-11.31782 1.57153,-14.37443c0.53491,-0.72943 1.28591,-1.25991 2.05261,-1.76468c6.10978,-0.88533 11.06107,-0.94983 17.38308,0.32173z" data-paper-data="{&quot;noHover&quot;:false,&quot;origItem&quot;:[&quot;Path&quot;,{&quot;applyMatrix&quot;:true,&quot;segments&quot;:[[[225.56701,188.31268],[4.09007,-0.59268],[-0.51326,0.33791]],[[224.19758,189.49032],[0.35808,-0.48829],[-1.50057,2.0462]],[[223.16164,199.0832],[-0.00778,-2.37718],[1.05261,7.96903]],[[237.79383,213.11015],[-9.26312,2.77893],[1.13518,-0.34055]],[[241.541,211.65026],[-0.91793,0.83753],[1.71147,-1.56155]],[[245.11595,204.27337],[-0.9092,2.08717],[0.60782,-2.51509]],[[245.07802,197.47981],[0.41983,2.54491],[-0.32334,-1.96006]],[[243.13389,191.53633],[1.12861,1.70669],[-1.19909,-1.81326]],[[237.16363,188.53578],[1.87936,0.378],[-4.23215,-0.85123]]],&quot;closed&quot;:true}],&quot;index&quot;:null}" fill="#ffffff" fill-rule="nonzero" stroke="#000000" stroke-width="2.5" stroke-linecap="butt"/><path d="M93.5484,126.75053c0,-2.26876 1.83921,-4.10796 4.10797,-4.10796c2.26876,0 4.10795,1.8392 4.10795,4.10796c0,2.26876 -1.83919,4.10796 -4.10795,4.10796c-2.26876,0 -4.10797,-1.8392 -4.10797,-4.10796z" data-paper-data="{&quot;index&quot;:null}" fill="#000000" fill-rule="nonzero" stroke="none" stroke-width="0.5" stroke-linecap="butt"/><path d="M145.16091,120.69546c0,-2.26876 1.8392,-4.10795 4.10796,-4.10795c2.26876,0 4.10795,1.83919 4.10795,4.10795c0,2.26876 -1.83919,4.10795 -4.10795,4.10795c-2.26876,0 -4.10796,-1.83919 -4.10796,-4.10795z" data-paper-data="{&quot;index&quot;:null}" fill="#000000" fill-rule="nonzero" stroke="none" stroke-width="0.5" stroke-linecap="butt"/><path d="M-12.50401,52.38312c1.10926,-1.94687 3.05612,-0.83762 3.05612,-0.83762l2.03492,1.15941c8.57278,4.93358 19.7885,6.55585 29.27562,9.4632c24.80466,7.60143 48.39203,21.0238 71.31902,33.03316c0,0 1.9849,1.03971 0.94519,3.02459c-1.03972,1.9849 -3.02459,0.94519 -3.02459,0.94519c-22.67714,-11.8785 -46.01872,-25.19975 -70.55268,-32.7182c-9.86861,-3.02426 -21.21623,-4.79137 -30.18108,-9.85419l-2.03491,-1.15941c0,0 -1.94685,-1.10926 -0.83761,-3.05612z" data-paper-data="{&quot;index&quot;:null}" fill="#000000" fill-rule="nonzero" stroke="none" stroke-width="0.5" stroke-linecap="butt"/><path d="M179.24679,36.59648c1.5844,1.5844 0,3.16884 0,3.16884l-1.60269,1.59568c-2.83192,2.477 -5.72494,4.77438 -8.6814,7.10237c-7.48895,6.74376 -15.39627,12.91779 -23.08124,19.42934c-11.86367,10.05218 -22.70029,20.62864 -35.69119,29.29061c0,0 -1.8644,1.24292 -3.10732,-0.62147c-1.24292,-1.8644 0.62148,-3.10732 0.62148,-3.10732c12.84046,-8.5589 23.53902,-19.0303 35.26455,-28.96778c7.69266,-6.51963 15.60587,-12.70378 23.10652,-19.45079c2.93415,-2.313 5.80741,-4.58776 8.61757,-7.04759l1.38491,-1.39193c0,0 1.58441,-1.5844 3.16884,0z" data-paper-data="{&quot;index&quot;:null}" fill="#000000" fill-rule="nonzero" stroke="none" stroke-width="0.5" stroke-linecap="butt"/><path d="M63.58319,140.65979c1.24035,-0.15504 1.39539,1.0853 1.39539,1.0853l0.15574,1.26421c1.82837,7.32597 1.98155,14.46771 4.76057,21.63025c3.49026,6.5596 6.04106,15.39958 12.29371,20.07573c5.38452,4.02691 14.17785,4.60061 20.5863,5.48174c6.193,0.61688 12.84346,1.24725 19.06586,0.66074c10.024,-0.94484 19.1188,-6.32342 26.10083,-13.26597c3.39668,-5.24737 6.35177,-10.10579 7.60671,-16.34287c1.47538,-7.33266 0.90955,-14.96418 2.34573,-22.27131c0,0 0.24515,-1.22573 1.47087,-0.98058c1.22573,0.24515 0.98058,1.47087 0.98058,1.47087c-1.48582,7.28348 -0.86158,14.91724 -2.33968,22.24007c-1.33992,6.63824 -4.46648,11.8894 -8.12287,17.45901c-7.41307,7.45106 -17.09136,13.15719 -27.78136,14.17714c-6.40545,0.61115 -13.24648,-0.0284 -19.62089,-0.66447c-6.8222,-0.93681 -15.99739,-1.61076 -21.71757,-5.91059c-6.67972,-5.02112 -9.41814,-14.04984 -13.14137,-21.08892c-2.86967,-7.36347 -3.05984,-14.68447 -4.94492,-22.21178l-0.17894,-1.41317c0,0 -0.15504,-1.24035 1.0853,-1.39539z" fill="#000000" fill-rule="nonzero" stroke="none" stroke-width="0.5" stroke-linecap="butt"/><g fill-rule="nonzero" stroke="#000000" stroke-width="1.5"><path d="M716.17497,42.52573l50.64751,168.33446l-304.57147,90.77749l-58.18754,-182.46587l0.90739,-19.28852l12.36154,-30.30966l25.94002,-33.40582l31.25111,-25.9552l181.89087,-151.44246l100.89768,118.38731l-45.87137,50.28175z" fill="#000000" stroke-linecap="round"/><path d="M672.06336,-124.61756l-14.18724,1.85125l-16.6941,12.5829l-6.44532,16.66004l10.45798,33.4928l25.11959,34.82833l21.4548,9.77076l20.33821,-0.35638l16.77802,-10.70611l7.08754,-9.71967l3.98469,-7.36851z" fill="#888888" stroke-linecap="round"/><path d="M644.06189,243.64535c-9.27228,-31.10984 8.43055,-63.84602 39.54039,-73.1183c31.10984,-9.27228 63.84602,8.43055 73.1183,39.54039c9.27228,31.10984 -8.43055,63.84602 -39.54039,73.1183c-31.10984,9.27228 -63.84602,-8.43055 -73.1183,-39.54039z" fill="#323232" stroke-linecap="butt"/><path d="M665.45831,237.26815c-5.75025,-19.29292 5.22825,-39.59443 24.52117,-45.34468c19.29292,-5.75025 39.59443,5.22825 45.34468,24.52117c5.75025,19.29292 -5.22825,39.59443 -24.52117,45.34469c-19.29292,5.75025 -39.59443,-5.22825 -45.34468,-24.52118z" fill="#bdbdbd" stroke-linecap="butt"/><path d="M475.40134,293.9146c-9.27228,-31.10984 8.43055,-63.84602 39.54039,-73.1183c31.10984,-9.27228 63.84602,8.43055 73.1183,39.54039c9.27228,31.10984 -8.43055,63.84602 -39.54039,73.11831c-31.10984,9.27228 -63.84602,-8.43056 -73.1183,-39.5404z" fill="#323232" stroke-linecap="butt"/><path d="M496.79776,287.5374c-5.75025,-19.29292 5.22825,-39.59443 24.52117,-45.34468c19.29292,-5.75025 39.59443,5.22825 45.34468,24.52117c5.75025,19.29292 -5.22825,39.59443 -24.52117,45.34469c-19.29292,5.75025 -39.59443,-5.22826 -45.34468,-24.52118z" fill="#bdbdbd" stroke-linecap="butt"/></g></g></g></svg>