<svg version="1.1" xmlns="http://www.w3.org/2000/svg" xmlns:xlink="http://www.w3.org/1999/xlink" width="324.53826" height="277.04486" viewBox="0,0,324.53826,277.04486"><g transform="translate(-156.658,-44.53998)"><g data-paper-data="{&quot;isPaintingLayer&quot;:true}" fill-rule="nonzero" stroke-linecap="butt" stroke-linejoin="miter" stroke-miterlimit="10" stroke-dasharray="" stroke-dashoffset="0" style="mix-blend-mode: normal"><path d="M229.41563,152.9245c0.04586,0.04586 0.08775,0.09171 0.12593,0.13748c3.20336,-2.43783 6.84958,-4.35285 10.70292,-6.13761c3.28686,-1.52238 6.54719,-3.47046 9.94528,-4.71466c5.25175,-1.92291 10.9694,-3.06539 16.42478,-4.27803c4.47261,-0.99177 8.84686,-3.15582 13.34103,-3.89973c3.90175,-0.64585 8.08035,-0.55374 12.03312,-1.03024c10.76417,-1.29761 21.47306,-2.55868 32.31442,-2.55868c6.39919,0.00895 13.69754,2.09179 19.85861,3.87914c2.3953,0.69489 4.67325,2.09778 7.10263,2.65303c1.15202,0.2633 4.86508,0.65672 5.92694,0.93587c8.11686,2.13381 16.27675,5.9949 23.96218,9.30813c1.59181,0.61913 3.2671,1.05808 4.77256,1.86478c1.72786,0.92588 3.11686,2.45941 4.92815,3.20906c1.82158,0.7539 3.92434,0.57559 5.78646,1.22293c1.1358,0.39484 4.15155,2.16537 5.35941,2.63909c1.85889,0.72905 3.87514,1.00125 5.73784,1.72053c3.81315,1.47245 7.20032,3.76021 10.76764,5.69969c5.77383,3.13911 11.73861,6.01015 17.58787,9.00711c9.91581,11.72555 10.44044,27.53657 9.64257,42.10161c-0.28629,5.22623 -0.89524,9.77113 -2.30153,14.83298c-0.63767,2.54918 -1.48234,5.13678 -1.93564,7.72592c-0.31166,1.78011 -0.09697,3.67189 -0.69691,5.37659c-4.76595,13.54205 -13.57918,26.63034 -22.30132,38.07833c-4.21359,4.86543 -11.48636,8.61738 -17.58931,10.33863c-2.75386,0.77669 -5.37358,2.06171 -8.14068,2.80713c-10.39945,2.80146 -21.05038,4.0745 -31.40105,7.02497c-8.93737,1.61357 -18.22611,3.18926 -26.90013,5.92771c-5.09048,1.6071 -10.09639,3.71562 -15.32749,4.88753c-4.74276,1.06251 -9.52631,1.69862 -14.22686,2.99065c-17.83677,4.8982 -37.99001,5.11471 -55.82293,-0.06939c-4.99979,-0.8328 -11.99548,-2.29645 -16.12329,-5.44657c-0.65479,-0.4997 -0.90401,-1.42335 -1.56969,-1.90846c-0.53457,-0.38957 -1.32145,-0.26967 -1.88788,-0.61125c-1.92485,-1.16078 -5.45526,-3.83841 -6.43191,-5.88834c-0.23237,-0.48772 0.20984,-1.12291 0,-1.62075c-0.53546,-1.27036 -2.05935,-1.95317 -2.58701,-3.22678c-0.38129,-0.92031 -0.29168,-1.98719 -0.6483,-2.91734c-0.48284,-1.25938 -1.93385,-1.94267 -2.54731,-3.14385c-0.72132,-1.41237 -1.48251,-3.78915 -2.01962,-5.35682c-1.77678,-4.48965 -1.27539,-9.51427 -2.92722,-13.96624c-2.31252,-6.23261 -6.08915,-11.36693 -6.7274,-18.22113c-0.68919,-7.40129 0.35986,-14.66004 -1.12601,-21.98447c-0.00955,-3.75354 -0.43889,-7.78374 0.34747,-11.47791c0.60474,-2.84099 1.63799,-5.68305 1.92088,-8.59388c0.02891,-0.29746 -0.04979,-5.22923 0.01006,-5.59099c0.56697,-3.42699 1.7825,-8.14705 3.06003,-11.35796c2.46675,-6.19987 5.87128,-11.34317 7.33129,-17.91456c0.52286,-2.33815 1.90824,-4.78259 2.25853,-7.07972c0.48883,-3.20565 0.4215,-6.31353 2.15853,-9.29027c0.98252,-1.68374 3.02566,-3.39563 4.41444,-4.78667l1.2966,-1.2966c0,0 1.06066,-1.06066 2.12132,0zM222.96251,163.92167c-0.28601,1.61975 -0.30979,3.27928 -0.58817,4.92404c-0.40641,2.40121 -1.74347,4.75396 -2.27956,7.18284c-1.50102,6.75321 -4.9101,12.03687 -7.47536,18.38028c-1.22507,3.02938 -2.33589,7.45771 -2.87886,10.69404c-0.29949,1.78508 0.18522,3.62855 0.01006,5.43008c-0.29356,3.0192 -1.325,5.96611 -1.96891,8.91017c-0.73904,3.37899 -0.29112,7.12617 -0.30083,10.56423c1.55344,7.3276 0.46073,14.60638 1.12909,22.01613c0.59211,6.56448 4.38358,11.53407 6.57666,17.51895c1.63442,4.4603 1.10515,9.45718 2.90746,13.91059c0.50254,1.55997 1.18992,3.618 1.87017,5.01595c0.62075,1.27569 2.09606,2.02846 2.63908,3.33913c0.38129,0.92031 0.29168,1.98719 0.6483,2.91734c0.49718,1.29679 2.01676,1.99548 2.59938,3.2562c0.22664,0.49041 -0.20049,1.11908 0,1.62075c1.00444,2.51329 5.34964,3.79806 7.23937,5.16978c0.69932,0.50762 0.99566,1.44322 1.6718,1.98133c1.24926,0.99424 2.95494,1.21112 4.41773,1.85097c3.45349,1.51062 6.85202,2.45398 10.57729,3.07523c17.40267,5.02367 36.95308,4.88318 54.36343,0.10184c4.73346,-1.29875 9.54631,-1.95102 14.32261,-3.01526c5.16971,-1.1519 10.11244,-3.25112 15.14253,-4.83694c8.74137,-2.75586 18.09759,-4.3685 27.10524,-5.98306c10.31094,-2.95318 20.92453,-4.20768 31.28725,-6.99619c2.75905,-0.74244 5.37209,-2.02646 8.11871,-2.80102c5.46166,-1.54021 12.33191,-4.92111 16.07026,-9.33685c8.5501,-11.23994 16.94091,-23.9182 21.78296,-37.12426c0.57742,-1.57483 0.30911,-3.3442 0.59968,-4.99619c0.46813,-2.66151 1.32819,-5.31992 1.98392,-7.94039c3.90372,-14.05563 4.60837,-32.28482 -1.8614,-45.59132c-1.38884,-2.85645 -2.42099,-5.74822 -4.44159,-8.22594c-5.73887,-2.78524 -11.55047,-5.67439 -17.15821,-8.72319c-3.45119,-1.87634 -6.72663,-4.11233 -10.41537,-5.53675c-1.86876,-0.72163 -3.8912,-0.99603 -5.75608,-1.72764c-1.81629,-0.71256 -3.40268,-1.95626 -5.24557,-2.59691c-1.53502,-0.53363 -4.49711,-0.68387 -5.94863,-1.28461c-3.37533,-1.39696 -6.19545,-3.7096 -9.69123,-5.06993c-7.56553,-3.2601 -15.59871,-7.08254 -23.58717,-9.1826c-1.93416,-0.50846 -3.97838,-0.48241 -5.92622,-0.93568c-2.46315,-0.57319 -4.7484,-1.96904 -7.17646,-2.67343c-5.87753,-1.7051 -12.91305,-3.76962 -19.02276,-3.76035c-10.72179,0 -21.30946,1.2537 -31.95537,2.53712c-3.89893,0.47004 -8.01807,0.37574 -11.86565,1.00524c-4.43887,0.72624 -8.79674,2.8906 -13.21676,3.87486c-5.31614,1.18103 -10.89324,2.28696 -16.01257,4.15483c-3.32929,1.21474 -6.52757,3.14009 -9.74743,4.63148c-6.89003,3.19136 -13.18249,6.75186 -17.03438,13.5107c0,0 -0.54128,0.94725 -1.50844,0.76442z" fill="#000000" stroke="none" stroke-width="0.5"/><path d="M222.91946,163.89626c0.96716,0.18283 1.50875,-0.76494 1.50875,-0.76494c3.85189,-6.75884 10.14976,-10.32666 17.03979,-13.51802c3.21986,-1.49139 6.42134,-3.42002 9.75063,-4.63476c5.11933,-1.86787 10.702,-2.9783 16.01814,-4.15933c4.42002,-0.98426 8.7836,-3.15205 13.22247,-3.87829c3.84758,-0.6295 7.97206,-0.53756 11.87099,-1.0076c10.64591,-1.28342 21.25048,-2.54029 31.97227,-2.54029c6.10971,-0.00927 13.1559,2.05627 19.03343,3.76137c2.42806,0.70439 4.71748,2.10128 7.18063,2.67447c1.94784,0.45327 3.99523,0.42827 5.92939,0.93673c7.98846,2.10006 16.03383,5.92906 23.59936,9.18916c3.49578,1.36033 6.32032,3.67662 9.69565,5.07358c1.45152,0.60074 4.41552,0.75285 5.95054,1.28648c1.84289,0.64065 3.43115,1.88638 5.24744,2.59894c1.86488,0.73161 3.88889,1.00791 5.75765,1.72954c3.68874,1.42442 6.96705,3.66447 10.41824,5.54081c5.60774,3.0488 11.42265,5.94406 17.16152,8.7293c2.0206,2.47772 3.05422,5.37307 4.44306,8.22952c6.46977,13.3065 5.76811,31.55469 1.86439,45.61032c-0.65573,2.62047 -1.51605,5.28239 -1.98418,7.9439c-0.29057,1.65199 -0.02255,3.42355 -0.59997,4.99838c-4.84205,13.20606 -13.2394,25.90244 -21.7895,37.14238c-3.73835,4.41574 -10.61345,7.80339 -16.07511,9.3436c-2.74662,0.77456 -5.36233,2.06147 -8.12138,2.80391c-10.36272,2.78851 -20.99005,4.05274 -31.30099,7.00592c-9.00765,1.61456 -18.38039,3.23186 -27.12176,5.98772c-5.03009,1.58582 -9.98205,3.68513 -15.15176,4.83703c-4.7763,1.06424 -9.59687,1.71526 -14.33033,3.01401c-17.41035,4.78134 -36.98167,4.91103 -54.38434,-0.11264c-3.72527,-0.62125 -7.12682,-1.56746 -10.58031,-3.07808c-1.46279,-0.63985 -3.1697,-0.85804 -4.41896,-1.85228c-0.67614,-0.53811 -0.97318,-1.4745 -1.6725,-1.98212c-1.88973,-1.37172 -6.23712,-2.65918 -7.24156,-5.17247c-0.20049,-0.50167 0.22633,-1.13076 -0.00031,-1.62117c-0.58262,-1.26072 -2.10317,-1.96078 -2.60035,-3.25757c-0.35662,-0.93015 -0.26764,-1.99797 -0.64893,-2.91828c-0.54302,-1.31067 -2.01925,-2.06489 -2.64,-3.34058c-0.68025,-1.39795 -1.3687,-3.45784 -1.87124,-5.01781c-1.80231,-4.45341 -1.2755,-9.45545 -2.90992,-13.91575c-2.19308,-5.98488 -5.98694,-10.96191 -6.57905,-17.52639c-0.66836,-7.40975 0.42307,-14.69766 -1.13037,-22.02526c0.00971,-3.43806 -0.43822,-7.18972 0.30082,-10.56871c0.64391,-2.94406 1.67566,-5.89482 1.96922,-8.91402c0.17516,-1.80153 -0.30922,-3.64728 -0.00973,-5.43236c0.54297,-3.23633 1.65479,-7.66928 2.87986,-10.69866c2.56526,-6.34341 5.97722,-11.63509 7.47824,-18.3883c0.53609,-2.42888 1.87458,-4.78449 2.28099,-7.1857c0.27838,-1.64476 0.30311,-3.30598 0.58912,-4.92573z" data-paper-data="{&quot;noHover&quot;:false,&quot;origItem&quot;:[&quot;Path&quot;,{&quot;applyMatrix&quot;:true,&quot;segments&quot;:[[[222.96251,163.92167],[0,0],[-0.28601,1.61975]],[[222.37434,168.84571],[0.27838,-1.64476],[-0.40641,2.40121]],[[220.09478,176.02855],[0.53609,-2.42888],[-1.50102,6.75321]],[[212.61942,194.40883],[2.56526,-6.34341],[-1.22507,3.02938]],[[209.74056,205.10287],[0.54297,-3.23633],[-0.29949,1.78508]],[[209.75062,210.53295],[0.17516,-1.80153],[-0.29356,3.0192]],[[207.78171,219.44312],[0.64391,-2.94406],[-0.73904,3.37899]],[[207.48088,230.00735],[0.00971,-3.43806],[1.55344,7.3276]],[[208.60997,252.02348],[-0.66836,-7.40975],[0.59211,6.56448]],[[215.18663,269.54243],[-2.19308,-5.98488],[1.63442,4.4603]],[[218.09409,283.45302],[-1.80231,-4.45341],[0.50254,1.55997]],[[219.96426,288.46897],[-0.68025,-1.39795],[0.62075,1.27569]],[[222.60334,291.8081],[-0.54302,-1.31067],[0.38129,0.92031]],[[223.25164,294.72544],[-0.35662,-0.93015],[0.49718,1.29679]],[[225.85102,297.98164],[-0.58262,-1.26072],[0.22664,0.49041]],[[225.85102,299.60239],[-0.20049,-0.50167],[1.00444,2.51329]],[[233.09039,304.77217],[-1.88973,-1.37172],[0.69932,0.50762]],[[234.76219,306.7535],[-0.67614,-0.53811],[1.24926,0.99424]],[[239.17992,308.60447],[-1.46279,-0.63985],[3.45349,1.51062]],[[249.75721,311.6797],[-3.72527,-0.62125],[17.40267,5.02367]],[[304.12064,311.78154],[-17.41035,4.78134],[4.73346,-1.29875]],[[318.44325,308.76628],[-4.7763,1.06424],[5.16971,-1.1519]],[[333.58578,303.92934],[-5.03009,1.58582],[8.74137,-2.75586]],[[360.69102,297.94628],[-9.00765,1.61456],[10.31094,-2.95318]],[[391.97827,290.95009],[-10.36272,2.78851],[2.75905,-0.74244]],[[400.09698,288.14907],[-2.74662,0.77456],[5.46166,-1.54021]],[[416.16724,278.81222],[-3.73835,4.41574],[8.5501,-11.23994]],[[437.9502,241.68796],[-4.84205,13.20606],[0.57742,-1.57483]],[[438.54988,236.69177],[-0.29057,1.65199],[0.46813,-2.66151]],[[440.5338,228.75138],[-0.65573,2.62047],[3.90372,-14.05563]],[[438.6724,183.16006],[6.46977,13.3065],[-1.38884,-2.85645]],[[434.23081,174.93412],[2.0206,2.47772],[-5.73887,-2.78524]],[[417.0726,166.21093],[5.60774,3.0488],[-3.45119,-1.87634]],[[406.65723,160.67418],[3.68874,1.42442],[-1.86876,-0.72163]],[[400.90115,158.94654],[1.86488,0.73161],[-1.81629,-0.71256]],[[395.65558,156.34963],[1.84289,0.64065],[-1.53502,-0.53363]],[[389.70695,155.06502],[1.45152,0.60074],[-3.37533,-1.39696]],[[380.01572,149.99509],[3.49578,1.36033],[-7.56553,-3.2601]],[[356.42855,140.81249],[7.98846,2.10006],[-1.93416,-0.50846]],[[350.50233,139.87681],[1.94784,0.45327],[-2.46315,-0.57319]],[[343.32587,137.20338],[2.42806,0.70439],[-5.87753,-1.7051]],[[324.30311,133.44303],[6.10971,-0.00927],[-10.72179,0]],[[292.34774,135.98015],[10.64591,-1.28342],[-3.89893,0.47004]],[[280.48209,136.98539],[3.84758,-0.6295],[-4.43887,0.72624]],[[267.26533,140.86025],[4.42002,-0.98426],[-5.31614,1.18103]],[[251.25276,145.01508],[5.11933,-1.86787],[-3.32929,1.21474]],[[241.50533,149.64656],[3.21986,-1.49139],[-6.89003,3.19136]],[[224.47095,163.15726],[3.85189,-6.75884],[0,0]],[[222.96251,163.92168],[0.96716,0.18283],[0,0]]],&quot;closed&quot;:true,&quot;fillColor&quot;:[0,0,0,1],&quot;strokeWidth&quot;:0.5}]}" fill="#fdfdfd" stroke="none" stroke-width="0.25"/><path d="M156.65801,321.58484v-277.04485h324.53826v277.04486z" fill="none" stroke="#000000" stroke-width="0"/></g></g></svg>