<svg version="1.1" xmlns="http://www.w3.org/2000/svg" xmlns:xlink="http://www.w3.org/1999/xlink" width="324.53826" height="277.04486" viewBox="0,0,324.53826,277.04486"><g transform="translate(-156.658,-44.53998)"><g data-paper-data="{&quot;isPaintingLayer&quot;:true}" fill-rule="nonzero" stroke-linecap="butt" stroke-linejoin="miter" stroke-miterlimit="10" stroke-dasharray="" stroke-dashoffset="0" style="mix-blend-mode: normal"><path d="M350.76097,261.35956c0,-0.6869 0.31456,-1.05925 0.65558,-1.26108c-0.0026,-0.34526 -0.00807,-0.61333 -0.00727,-0.6838c0.03201,-2.83144 -1.9598,-6.4721 -2.99375,-9.22289c-0.51103,-0.64635 -1.47977,-1.11682 -1.5331,-1.93906c-0.15083,-2.32577 3.00301,-4.51701 4.15173,-6.23274c0.26728,-0.39921 2.74385,-4.65637 3.03027,-5.00377c2.7988,-3.39454 7.35898,-5.08558 11.69472,-4.37068c4.55944,0.75179 6.50272,4.48698 9.32746,7.60527c0.6846,0.75574 1.5953,1.32747 2.13007,2.19571c1.49992,2.43525 1.90432,4.80155 3.78045,7.21974c0.99696,2.21799 1.92335,4.47292 3.55309,6.2697c0.12349,0.01641 0.24757,0.03446 0.37227,0.05422c0,0 1.20985,0.20164 1.25917,1.33427c1.92638,1.04041 4.8281,0.64808 6.78126,0.92561c5.10182,0.72493 9.7502,0.24756 14.81146,-0.64017c1.26286,-0.2215 2.58196,0.21997 3.8464,0.0077c0.07144,-0.01199 0.14271,-0.02442 0.21382,-0.03728c0.33748,-0.08859 0.67518,-0.18257 1.01323,-0.2824c0.15285,-0.04514 1.96814,-0.69422 3.48341,-1.2302c1.38897,-0.7154 2.66527,-1.64154 3.79967,-2.77325c2.83529,-4.51966 4.17797,-9.97298 6.27116,-14.87551c1.39236,-3.26111 5.73802,-6.40246 5.72057,-10.09841c-0.00589,-1.24836 -0.71446,-2.39707 -0.94437,-3.62409c-0.9333,-4.98103 -1.327,-10.48186 -7.57518,-9.20488c-2.75307,0.77085 -5.72388,1.13451 -8.55783,0.30496c-2.68742,-0.78666 -2.6396,-1.61471 -4.96339,-2.62702c-2.42012,-1.05427 -5.60326,0.05977 -8.05335,-1.43234c-0.53212,-0.32406 -0.70768,-1.04229 -1.1773,-1.45171c-2.8714,-2.50338 -5.72915,-4.99667 -8.59191,-7.62048c-0.79418,0.13465 -1.59464,0.22201 -2.39701,0.227h-0.32415c0,0 -1.5,0 -1.5,-1.5c0,-0.7666 0.39179,-1.14142 0.7749,-1.32468c-0.60188,-0.4681 -1.13273,-0.93428 -1.47346,-1.37688c-0.35067,-0.45552 -0.06303,-1.19717 -0.36704,-1.68506c-0.30977,-0.49713 -1.1797,-0.54715 -1.36923,-1.10138c-0.36249,-1.06001 -0.10364,-2.23815 -0.15546,-3.35722c0.28699,-2.29589 0.6693,-5.16694 -0.2061,-7.42042c-0.4827,-1.24259 -1.85099,-1.95124 -2.52454,-3.10162c-0.68462,-1.16929 -1.17119,-2.44538 -1.68641,-3.69857c-1.5586,-3.79107 -1.66642,-8.13742 -2.37708,-12.04858c-0.51933,-2.85817 -2.45701,-5.12208 -3.6317,-7.73322c-1.40924,-3.1325 -2.01695,-6.51661 -2.79198,-9.84381c-2.49091,-5.79625 -6.77254,-9.32893 -11.97224,-12.46309c-1.94596,-1.17294 -3.49793,-3.09529 -5.4902,-4.2023c-1.81473,-1.00836 -4.10389,-1.18047 -5.86794,-2.2883c-1.30792,-0.82138 -2.71252,-1.48556 -3.99871,-2.34057c-0.43478,-0.28903 -0.46777,-1.01201 -0.9251,-1.26383c-2.78217,-1.53194 -5.06181,-1.48976 -7.67539,-3.8156c-3.18898,-1.93481 -6.76284,-3.58462 -10.50359,-4.05225c-1.59355,-0.19921 -3.22557,0.21457 -4.81786,0.00554c-4.73302,-0.62132 -9.87356,-2.01502 -14.57905,-0.39827c-3.64714,1.25311 -6.3113,4.06346 -9.30626,6.25812c-2.16906,1.58946 -4.61724,1.95728 -7.08258,2.88655c-8.24484,3.09182 -17.41261,4.18659 -25.37736,7.86963c-4.18332,1.93443 -9.19884,4.71312 -11.55133,8.8839c-1.54237,2.7345 -1.25096,6.34382 -1.42904,9.3578c0.0009,4.0912 0.00065,8.1824 0.00065,12.27361c0,2.49562 -0.25088,5.69165 0.59387,8.02748c2.07345,5.73331 8.9641,9.16754 14.72135,7.69743c4.24183,-1.08315 8.21794,-3.54292 12.32264,-5.06644c5.6437,-3.79812 11.19896,-6.39544 17.21154,-9.41606c2.63941,-1.326 5.93967,-3.103 8.94295,-3.38442c1.6468,-0.15431 3.25099,0.62725 4.89356,0.82148c5.91667,0.69966 11.34506,1.61402 17.0301,3.56854c3.68536,2.92123 7.61619,7.19545 9.9996,11.29492c1.05383,1.8126 1.51756,3.95735 2.57446,5.80143c1.8672,3.2579 4.74309,6.92082 4.08119,10.98479c-0.74504,4.57439 -5.20298,6.32312 -8.15261,9.57132c-0.99461,1.09529 -1.89244,2.34743 -3.14981,3.12714c-3.52456,3.0969 -7.36793,6.6045 -11.53016,8.86719c-2.82661,1.53661 -5.76782,0.79505 -8.55217,2.00318c-2.67815,1.16205 -4.76758,3.3845 -7.74579,3.9769c-2.07925,0.41359 -4.59725,-0.02155 -6.65463,-0.31216l0.23465,0.18087c0,0 -1.34164,0.67082 -2.01246,-0.67082l-0.00002,-0.00006c-0.05187,-0.10375 -0.09171,-0.20348 -0.12107,-0.29921c-3.35848,0.32609 -6.70427,0.75857 -10.04298,1.11943c-3.90287,0.42183 -8.07213,-0.03857 -11.97739,-0.22279c-5.56397,-0.26246 -11.13925,0.23175 -16.7114,0.23175c-3.07594,-0.00937 -6.60952,0.43782 -9.61395,1.23223c-2.19565,0.58057 -2.75359,2.69226 -4.33579,3.92993c-1.95539,1.52959 -4.55552,2.3563 -6.74365,3.41628c-1.01345,0.49094 -1.54698,1.6914 -2.53295,2.23544c-1.50295,0.82929 -4.64117,0.84638 -5.70266,2.5016c-2.05936,3.21122 -1.01177,9.68194 -1.01723,13.27916c0.04178,0.31018 0.07602,0.66481 0.12161,1.03557c1.39765,0.68633 2.90864,0.77582 4.35713,1.68458c3.10199,1.94615 6.15572,3.78854 9.34217,5.61495c0.27209,0.02252 1.13939,0.16307 1.36421,1.0405c1.7373,0.55494 3.50289,1.04711 5.14193,1.22794c0.74363,0.08204 2.88368,-0.78813 3.3995,-0.9259c2.97576,-0.79475 6.52769,-1.55132 9.60205,-1.98391c3.61431,-0.50856 7.76565,-0.05129 11.37283,0.29585c4.83501,1.23531 8.79291,4.38488 13.65383,5.21795c5.35691,0.91808 9.44814,-3.10888 14.555,-3.57284c2.77168,-0.25181 4.82499,1.2704 7.37522,1.99768c1.93065,0.55058 4.02653,0.36745 5.94716,0.95203c2.42496,0.73807 4.76624,1.87747 7.27608,2.59576c5.0724,1.01971 10.05318,1.57727 15.2884,1.57852c3.49953,0.00083 7.06615,0.07581 10.19131,-1.7456c0.70911,-0.41328 3.67366,-1.63497 4.49387,-2.51035c-0.22005,-0.22222 -0.38454,-0.55445 -0.38454,-1.05119zM365.26742,256.96928c2.98093,-0.52301 6.20707,0.4763 9.18497,-0.03049c2.19009,-0.37272 4.22248,-0.86306 6.31853,-1.05486c-0.92538,-1.47555 -1.64811,-3.09022 -2.3469,-4.67519c-1.82691,-2.3429 -2.35011,-4.89363 -3.79299,-7.24085c-1.12465,-1.82954 -3.41234,-3.31006 -4.75727,-5.03108c-1.31866,-1.68742 -2.16608,-2.99241 -4.53075,-3.32028c-6.32818,-0.87742 -8.78116,3.55884 -11.85524,8.1296c-1.17169,1.74216 -4.62888,3.52235 -2.56776,4.79417c1.13884,2.73926 3.35521,6.89626 3.7638,10.61719c3.45324,-1.04906 7.14174,-1.58433 10.5836,-2.18821zM374.94471,259.89811c-2.94641,0.48151 -6.1947,-0.53478 -9.10996,0.01703c-3.70167,0.70068 -7.71884,1.17446 -11.35853,2.4559c-0.13906,0.47927 -0.3352,0.9373 -0.59737,1.36834c-1.23403,2.02892 -2.16931,1.60362 -3.83692,2.51335c-1.4037,0.76576 -2.6552,1.85707 -4.1683,2.37408c-7.80276,2.66608 -17.60284,0.92967 -25.40856,-0.6231c-2.57276,-0.73389 -4.9841,-1.8826 -7.46297,-2.64752c-1.90085,-0.58655 -3.97992,-0.39418 -5.89401,-0.93598c-2.06748,-0.58522 -4.00959,-2.14576 -6.23904,-1.89211c-5.39334,0.6136 -9.50594,4.49593 -15.26672,3.55844c-4.9678,-0.80845 -8.88311,-3.98027 -13.75412,-5.23373c-3.31231,-0.31236 -7.18053,-0.75454 -10.48989,-0.27355c-2.9393,0.42721 -6.37552,1.11795 -9.1986,1.90588c-1.45716,0.4067 -2.79307,1.14374 -4.38007,1.019c-5.18219,-0.40732 -11.02984,-2.97871 -15.59169,-5.19114c-0.60056,-0.29126 -4.95597,-1.86308 -5.42932,-2.34509c-1.01234,-1.03084 -1.44137,-2.06072 -1.68408,-3.16662c-3.89242,-2.63475 -6.91071,-5.86135 -8.67908,-10.2238c-5.69504,-9.7299 1.31723,-19.54254 7.66959,-26.61344c1.82633,-2.03292 4.57137,-3.46754 6.60092,-5.30693c2.94838,-2.67212 6.90627,-5.50536 10.72334,-6.5129c9.08994,-1.8964 17.68185,-6.27722 27.02068,-7.16323c7.69198,-0.72977 15.39913,0.02071 23.11351,-0.0233c3.47279,-0.04207 7.18331,-0.29207 10.65167,-0.62204c2.74743,-0.26139 5.36861,-1.41008 8.15616,-1.62568c6.32477,-0.4892 13.81698,-0.53645 20.11377,0.33695c3.27085,0.45369 6.66561,1.89047 9.95845,2.57297c0.10061,-0.11379 0.19425,-0.2341 0.27939,-0.3624c1.6697,-2.51583 -0.77241,-6.96611 -2.02038,-9.02303c-1.53126,-2.52383 -2.46058,-5.33997 -3.92519,-7.84084c-2.10506,-3.59445 -5.5982,-7.49968 -8.80105,-10.09892c-5.36743,-1.71279 -10.40501,-2.5665 -15.94943,-3.22465c-1.43761,-0.17065 -2.82727,-0.97145 -4.26629,-0.81321c-2.66017,0.29253 -5.5494,1.92222 -7.9128,3.09856c-6.00496,2.98886 -11.48566,5.63915 -17.14826,9.38458c-4.29723,1.62662 -8.50076,4.19329 -12.96099,5.30634c-1.22889,0.30667 -5.22427,0.56113 -6.46749,0.345c-1.40617,-0.24446 -4.5474,-1.81907 -5.66998,-2.56314c-9.42392,-6.24636 -6.90854,-19.00808 -6.90646,-28.77848c0.20909,-3.56991 0.03013,-7.49516 1.81245,-10.73945c1.42535,-2.59453 3.92926,-4.52325 6.22563,-6.28709c9.14439,-7.02379 21.70127,-7.84426 32.26498,-11.80565c1.96227,-0.73235 4.60941,-1.14601 6.31497,-2.46168c3.18184,-2.45448 6.21128,-5.37818 10.14269,-6.70784c5.18664,-1.7542 10.66991,-0.45822 15.89096,0.25003c1.6207,0.21985 3.2837,-0.19731 4.90661,0.00554c4.2539,0.53171 8.26948,2.403 11.87978,4.6175c2.67667,2.43634 4.54793,2.10094 7.54253,3.72211c0.49114,0.26588 0.55554,1.01891 1.01979,1.32936c1.21174,0.81029 2.55624,1.40683 3.78087,2.19751c1.70536,1.10107 4.01438,1.25712 5.80143,2.24979c2.01566,1.11966 3.56565,3.05266 5.53087,4.22558c5.87843,3.50847 10.52811,7.60805 13.31139,14.11713c0.76377,3.21673 1.31869,6.53264 2.68401,9.56381c1.33126,2.95555 3.20705,5.26514 3.85828,8.51556c0.72677,3.62745 0.67159,7.77013 2.16101,11.29015c1.05661,2.49716 3.23395,4.40194 4.21693,6.81407c1.09593,2.6893 0.7891,6.01182 0.4422,8.78703c-0.25897,3.04715 2.30195,4.78616 4.66135,6.7068c0.21544,-0.05164 0.43006,-0.10533 0.64374,-0.15973c4.648,-0.93082 9.40076,-0.79358 13.98077,0.33184c1.03304,0.25384 2.99576,1.10563 4.06041,1.26686c1.65822,0.25112 3.37873,0.00437 5.01887,0.35466c3.47274,0.74167 6.92138,2.52697 10.25559,3.72696c4.03323,1.45157 8.99887,0.98898 12.16092,4.20232c4.99075,1.14918 11.80955,4.00933 15.02997,8.16176c5.88775,7.59171 1.7129,21.35797 -3.55737,28.09163c-1.46136,1.86713 -4.56657,2.93767 -6.59652,3.95057c-7.23579,4.77961 -16.71105,7.19498 -25.0743,8.92144c-0.34925,0.0721 -0.69244,0.16538 -1.0316,0.27287c-1.69588,0.93084 -3.53789,1.59341 -5.52352,1.95335c-4.22158,1.09069 -8.4184,1.40243 -12.78383,1.69346c0,0 -0.87557,0.05837 -1.33198,-0.58386c-1.89232,0.00703 -3.80041,-0.11527 -5.75821,-0.3965c-2.81162,-0.40388 -6.35392,0.00551 -8.80209,-1.89595c-0.22132,-0.1719 -0.43389,-0.35079 -0.6384,-0.53603c-2.83015,-0.18683 -5.39364,0.64209 -8.21114,1.10253zM442.59398,246.77208c1.37657,-0.68964 4.75305,-1.80218 5.72115,-3.18071c4.11558,-5.86038 8.76258,-17.77538 3.57391,-24.42053c-3.01499,-3.86131 -9.57069,-6.17798 -14.14345,-7.3974c-3.05683,-3.01091 -7.84478,-2.6239 -11.73839,-4.00475c-3.24006,-1.14907 -6.56518,-2.90132 -9.92938,-3.62513c-1.53643,-0.33057 -3.15277,-0.0516 -4.70561,-0.29364c-5.55828,-0.86638 -10.0038,-2.58209 -15.52149,-1.87921c2.49246,2.51944 4.99486,5.41694 7.77728,7.22842c2.07694,1.35218 5.25073,0.25323 7.5058,1.16085c1.13887,0.45837 3.52191,2.19273 4.76109,2.55937c2.30905,0.68319 4.77638,0.30682 7.00133,-0.34334c1.49817,-0.29455 2.57371,-0.63121 4.15933,-0.34701c5.5817,1.00043 6.21313,7.3414 7.06613,11.88767c0.22573,1.20309 1.00447,2.86981 1.00053,4.15549c-0.01431,4.66741 -4.24834,7.28251 -5.94879,11.29543c-2.07787,4.90359 -3.53322,10.16812 -6.2049,14.77907c6.81237,-1.59286 13.97825,-3.77174 19.62547,-7.57459zM329.99253,198.01257c-6.09409,-0.8146 -13.31281,-0.77453 -19.43242,-0.31135c-2.75081,0.2082 -5.33342,1.35179 -8.0513,1.61581c-3.56374,0.34619 -7.38651,0.58231 -10.95567,0.6405c-7.63724,0.03947 -15.25227,-0.67054 -22.86747,0.01075c-9.18809,0.82201 -17.6879,5.19473 -26.62275,7.09933c-3.24851,0.75257 -6.88311,3.53318 -9.37391,5.80477c-1.91674,1.74806 -4.66094,3.12389 -6.36504,5.06584c-5.34878,6.09534 -12.49605,14.81639 -7.24127,23.30552c1.22193,3.09963 3.12241,5.43658 5.55907,7.46431c-0.15023,-4.35948 -0.74651,-10.37415 1.60491,-13.83335c1.50685,-2.21674 4.54531,-2.22092 6.615,-3.33308c1.03158,-0.55433 1.61275,-1.7656 2.65343,-2.30265c1.98031,-1.02195 4.42234,-1.67732 6.22231,-3.06671c1.17837,-0.90957 1.80168,-2.42551 3.0014,-3.30673c3.03113,-2.22642 9.29119,-2.54239 12.87058,-2.55218c5.61992,0 11.23998,-0.49204 16.85246,-0.22843c3.74371,0.17584 7.76896,0.65298 11.50899,0.23739c6.38804,-0.70983 12.811,-1.6297 19.28847,-1.6297c0,0 0.9667,0 1.34799,0.77606l0.00003,0.00001c1.66883,-0.90827 3.17026,-2.21632 4.88511,-2.93092c2.79371,-1.16418 5.59897,-0.40534 8.30358,-1.88661c4.03376,-2.20923 7.72575,-5.64317 11.16028,-8.63687c2.34651,-1.35094 4.32707,-4.03603 6.30558,-6.00712c0.02538,-0.02529 0.05109,-0.05025 0.0771,-0.07492c-2.45743,-0.70969 -4.95017,-1.59936 -7.34645,-1.91967z" fill="#000000" stroke="none" stroke-width="0.5"/><path d="M442.62824,246.8085c-5.64722,3.80285 -12.85124,5.99515 -19.66361,7.58801c2.67168,-4.61095 4.11393,-9.97235 6.1918,-14.87594c1.70045,-4.01292 5.90149,-6.58197 5.9158,-11.24938c0.00394,-1.28568 -0.77066,-2.93148 -0.99639,-4.13457c-0.853,-4.54627 -1.44495,-10.85759 -7.02665,-11.85802c-1.58562,-0.2842 -2.648,0.0524 -4.14617,0.34695c-2.22495,0.65016 -4.67328,1.01983 -6.98233,0.33664c-1.23918,-0.36664 -3.61716,-2.10448 -4.75603,-2.56285c-2.25507,-0.90762 -5.42221,0.18506 -7.49915,-1.16712c-2.78242,-1.81148 -5.35957,-4.77541 -7.85203,-7.29485c5.51769,-0.70288 9.97593,1.00261 15.53421,1.86899c1.55284,0.24204 3.17622,-0.0402 4.71265,0.29037c3.3642,0.72381 6.70925,2.47296 9.94931,3.62203c3.89361,1.38085 8.7099,1.00437 11.76673,4.01528c4.57276,1.21942 11.14515,3.55977 14.16014,7.42108c5.18867,6.64515 0.53582,18.6036 -3.57976,24.46398c-0.9681,1.37853 -4.35195,2.49978 -5.72852,3.18942z" data-paper-data="{&quot;noHover&quot;:false,&quot;origItem&quot;:[&quot;Path&quot;,{&quot;applyMatrix&quot;:true,&quot;segments&quot;:[[[442.59398,246.77208],[0,0],[1.37657,-0.68964]],[[448.31513,243.59137],[-0.9681,1.37853],[4.11558,-5.86038]],[[451.88904,219.17084],[5.18867,6.64515],[-3.01499,-3.86131]],[[437.74559,211.77344],[4.57276,1.21942],[-3.05683,-3.01091]],[[426.0072,207.76869],[3.89361,1.38085],[-3.24006,-1.14907]],[[416.07782,204.14356],[3.3642,0.72381],[-1.53643,-0.33057]],[[411.37221,203.84992],[1.55284,0.24204],[-5.55828,-0.86638]],[[395.85072,201.97071],[5.51769,-0.70288],[2.49246,2.51944]],[[403.628,209.19913],[-2.78242,-1.81148],[2.07694,1.35218]],[[411.1338,210.35998],[-2.25507,-0.90762],[1.13887,0.45837]],[[415.89489,212.91935],[-1.23918,-0.36664],[2.30905,0.68319]],[[422.89622,212.57601],[-2.22495,0.65016],[1.49817,-0.29455]],[[427.05555,212.229],[-1.58562,-0.2842],[5.5817,1.00043]],[[434.12168,224.11667],[-0.853,-4.54627],[0.22573,1.20309]],[[435.12221,228.27216],[0.00394,-1.28568],[-0.01431,4.66741]],[[429.17342,239.56759],[1.70045,-4.01292],[-2.07787,4.90359]],[[422.96852,254.34666],[2.67168,-4.61095],[6.81237,-1.59286]],[[442.59399,246.77207],[-5.64722,3.80285],[0,0]]],&quot;closed&quot;:true,&quot;fillColor&quot;:[0,0,0,1],&quot;strokeWidth&quot;:0.5}]}" fill="#f7ee6f" stroke="none" stroke-width="0.25"/><path d="M365.26608,257.01926c-3.44186,0.60388 -7.16281,1.12603 -10.61605,2.17509c-0.40859,-3.72093 -2.641,-7.91066 -3.77984,-10.64992c-2.06112,-1.27182 1.39798,-3.07041 2.56967,-4.81257c3.07408,-4.57076 5.57421,-9.04274 11.90239,-8.16532c2.36467,0.32787 3.23587,1.63846 4.55453,3.32588c1.34493,1.72102 3.65652,3.22861 4.78117,5.05815c1.44288,2.34722 1.96706,4.92967 3.79397,7.27257c0.69879,1.58497 1.41724,3.20971 2.34262,4.68526c-2.09605,0.1918 -4.13801,0.6943 -6.3281,1.06702c-2.9779,0.50679 -6.23941,-0.47916 -9.22034,0.04385z" data-paper-data="{&quot;noHover&quot;:false,&quot;origItem&quot;:[&quot;Path&quot;,{&quot;applyMatrix&quot;:true,&quot;segments&quot;:[[[365.26742,256.96928],[0,0],[2.98093,-0.52301]],[[374.45239,256.93879],[-2.9779,0.50679],[2.19009,-0.37272]],[[380.77092,255.88393],[-2.09605,0.1918],[-0.92538,-1.47555]],[[378.42402,251.20874],[0.69879,1.58497],[-1.82691,-2.3429]],[[374.63103,243.96789],[1.44288,2.34722],[-1.12465,-1.82954]],[[369.87376,238.93681],[1.34493,1.72102],[-1.31866,-1.68742]],[[365.34301,235.61653],[2.36467,0.32787],[-6.32818,-0.87742]],[[353.48777,243.74613],[3.07408,-4.57076],[-1.17169,1.74216]],[[350.92001,248.5403],[-2.06112,-1.27182],[1.13884,2.73926]],[[354.68381,259.15749],[-0.40859,-3.72093],[3.45324,-1.04906]],[[365.26741,256.96928],[-3.44186,0.60388],[0,0]]],&quot;closed&quot;:true,&quot;fillColor&quot;:[0,0,0,1],&quot;strokeWidth&quot;:0.5}]}" fill="#f7ee6f" stroke="none" stroke-width="0.25"/><path d="M330.03771,197.99112c2.39628,0.32031 4.89052,1.21347 7.34795,1.92316c-0.02601,0.02467 -0.05171,0.04966 -0.07709,0.07495c-1.97851,1.97109 -3.95809,4.65899 -6.3046,6.00993c-3.43453,2.9937 -7.12513,6.43308 -11.15889,8.64231c-2.70461,1.48127 -5.5098,0.72277 -8.30351,1.88695c-1.71485,0.7146 -3.21577,2.02594 -4.8846,2.93421l-0.0993,0.01208c-0.38129,-0.77606 -1.34776,-0.77443 -1.34776,-0.77443c-6.47747,0 -12.89874,0.92713 -19.28678,1.63696c-3.74003,0.41559 -7.68298,-0.04038 -11.42669,-0.21622c-5.61248,-0.26361 -11.2176,0.19918 -16.83752,0.19918c-3.57939,0.00979 -9.83898,0.31917 -12.87011,2.54559c-1.19972,0.88122 -1.82322,2.3925 -3.00159,3.30207c-1.79997,1.38939 -4.24235,2.04181 -6.22266,3.06376c-1.04068,0.53705 -1.6222,1.74626 -2.65378,2.30059c-2.06969,1.11216 -5.10855,1.11444 -6.6154,3.33118c-2.35142,3.4592 -1.7589,9.46325 -1.60867,13.82273c-2.43666,-2.02773 -4.4298,-4.32785 -5.65173,-7.42748c-5.25478,-8.48913 1.89046,-17.23008 7.23924,-23.32542c1.7041,-1.94195 4.4493,-3.32391 6.36604,-5.07197c2.4908,-2.27159 6.12861,-5.06173 9.37712,-5.8143c8.93485,-1.9046 17.46272,-6.30352 26.65081,-7.12553c7.6152,-0.68129 15.27399,0.03303 22.91123,-0.00644c3.56916,-0.05819 7.40207,-0.28603 10.96581,-0.63222c2.71788,-0.26402 5.30385,-1.40365 8.05466,-1.61185c6.11961,-0.46318 13.34372,-0.4944 19.43781,0.3202z" data-paper-data="{&quot;noHover&quot;:false,&quot;origItem&quot;:[&quot;Path&quot;,{&quot;applyMatrix&quot;:true,&quot;segments&quot;:[[[329.99253,198.01257],[0,0],[-6.09409,-0.8146]],[[310.56011,197.70122],[6.11961,-0.46318],[-2.75081,0.2082]],[[302.50881,199.31703],[2.71788,-0.26402],[-3.56374,0.34619]],[[291.55314,199.95753],[3.56916,-0.05819],[-7.63724,0.03947]],[[268.68567,199.96828],[7.6152,-0.68129],[-9.18809,0.82201]],[[242.06292,207.06761],[8.93485,-1.9046],[-3.24851,0.75257]],[[232.68901,212.87238],[2.4908,-2.27159],[-1.91674,1.74806]],[[226.32397,217.93822],[1.7041,-1.94195],[-5.34878,6.09534]],[[219.0827,241.24374],[-5.25478,-8.48913],[1.22193,3.09963]],[[224.64177,248.70805],[-2.43666,-2.02773],[-0.15023,-4.35948]],[[226.24668,234.8747],[-2.35142,3.4592],[1.50685,-2.21674]],[[232.86168,231.54162],[-2.06969,1.11216],[1.03158,-0.55433]],[[235.51511,229.23897],[-1.04068,0.53705],[1.98031,-1.02195]],[[241.73742,226.17226],[-1.79997,1.38939],[1.17837,-0.90957]],[[244.73882,222.86553],[-1.19972,0.88122],[3.03113,-2.22642]],[[257.6094,220.31335],[-3.57939,0.00979],[5.61992,0]],[[274.46186,220.08492],[-5.61248,-0.26361],[3.74371,0.17584]],[[285.97085,220.32231],[-3.74003,0.41559],[6.38804,-0.70983]],[[305.25932,218.69261],[-6.47747,0],[0,0]],[[306.60731,219.46867],[-0.38129,-0.77606],[0,0]],[[306.60734,219.46868],[0,0],[1.66883,-0.90827]],[[311.49245,216.53776],[-1.71485,0.7146],[2.79371,-1.16418]],[[319.79603,214.65115],[-2.70461,1.48127],[4.03376,-2.20923]],[[330.95631,206.01428],[-3.43453,2.9937],[2.34651,-1.35094]],[[337.26189,200.00716],[-1.97851,1.97109],[0.02538,-0.02529]],[[337.33899,199.93224],[-0.02601,0.02467],[-2.45743,-0.70969]],[[329.99254,198.01257],[2.39628,0.32031],[0,0]]],&quot;closed&quot;:true,&quot;fillColor&quot;:[0,0,0,1],&quot;strokeWidth&quot;:0.5}]}" fill="#f7ee6f" stroke="none" stroke-width="0.25"/><path d="M350.77547,261.40741c0,0.49674 0.16453,0.82896 0.38458,1.05118c-0.82021,0.87538 -3.788,2.09794 -4.49711,2.51122c-3.12516,1.82141 -6.69859,1.74752 -10.19812,1.74669c-5.23522,-0.00125 -10.22629,-0.55895 -15.29869,-1.57866c-2.50984,-0.71829 -4.85626,-1.85857 -7.28122,-2.59664c-1.92063,-0.58458 -4.02049,-0.40252 -5.95114,-0.9531c-2.55023,-0.72728 -4.6084,-2.2513 -7.38008,-1.99949c-5.10686,0.46396 -9.20445,4.48762 -14.56136,3.56954c-4.86092,-0.83307 -8.82546,-3.98752 -13.66047,-5.22283c-3.60718,-0.34714 -7.76186,-0.8076 -11.37617,-0.29904c-3.07436,0.43259 -6.62798,1.1873 -9.60374,1.98205c-0.51582,0.13777 -2.65633,1.0074 -3.39996,0.92536c-1.63904,-0.18083 -3.40584,-0.6745 -5.14314,-1.22944c-0.22482,-0.87743 -1.09258,-1.01858 -1.36467,-1.0411c-3.18645,-1.82641 -6.24266,-3.67243 -9.34465,-5.61858c-1.44849,-0.90876 -2.9603,-0.99961 -4.35795,-1.68594c-0.04559,-0.37076 -0.08003,-0.72574 -0.12181,-1.03592c0.00546,-3.59722 -1.04438,-10.07241 1.01498,-13.28363c1.06149,-1.65522 4.19971,-1.6723 5.70266,-2.50159c0.98597,-0.54404 1.5193,-1.74496 2.53275,-2.2359c2.18813,-1.05998 4.78816,-1.88692 6.74355,-3.41651c1.5822,-1.23767 2.23259,-3.38745 4.42824,-3.96802c3.00443,-0.79441 6.53742,-1.24302 9.61336,-1.23365c5.57215,0 11.14517,-0.49876 16.70914,-0.2363c3.90526,0.18422 8.07147,0.63985 11.97434,0.21802c3.33871,-0.36086 6.68102,-0.79763 10.0395,-1.12372c0.02936,0.09573 0.06897,0.19521 0.12084,0.29896l0.00002,0.00006c0.67082,1.34164 2.01101,0.6693 2.01101,0.6693l-0.23442,-0.18063c2.05738,0.29061 4.57082,0.72166 6.65007,0.30807c2.97821,-0.5924 5.06308,-2.81807 7.74123,-3.98012c2.78435,-1.20813 5.71505,-0.47154 8.54166,-2.00815c4.16223,-2.26269 7.98081,-5.77213 11.50537,-8.86903c1.25737,-0.77971 2.14328,-2.02813 3.13789,-3.12342c2.94963,-3.2482 7.38002,-4.96444 8.12506,-9.53883c0.6619,-4.06397 -2.20665,-7.68517 -4.07385,-10.94307c-1.0569,-1.84408 -1.50503,-3.97444 -2.55886,-5.78704c-2.38341,-4.09947 -6.28399,-8.36704 -9.96935,-11.28827c-5.68504,-1.95452 -11.08971,-2.87765 -17.00638,-3.57731c-1.64257,-0.19423 -3.24302,-0.97867 -4.88982,-0.82436c-3.00328,0.28142 -6.29608,2.05054 -8.93549,3.37654c-6.01258,3.02062 -11.55996,5.60267 -17.20366,9.40079c-4.1047,1.52352 -8.07924,3.97677 -12.32107,5.05992c-5.75725,1.47011 -12.74582,-1.98415 -14.81927,-7.71746c-0.84475,-2.33583 -0.59258,-5.53633 -0.59258,-8.03195c0,-4.09121 0.00281,-8.18858 0.00191,-12.27978c0.17808,-3.01398 -0.11089,-6.62765 1.43148,-9.36215c2.35249,-4.17078 7.37274,-6.95582 11.55606,-8.89025c7.96475,-3.68304 17.14402,-4.78751 25.38886,-7.87933c2.46534,-0.92927 4.91793,-1.2995 7.08699,-2.88896c2.99496,-2.19466 5.66578,-5.00765 9.31292,-6.26076c4.70549,-1.61675 9.85516,-0.22502 14.58818,0.3963c1.59229,0.20903 3.22754,-0.20503 4.82109,-0.00582c3.74075,0.46763 7.32198,2.11759 10.51096,4.0524c2.61358,2.32584 4.89911,2.28457 7.68128,3.81651c0.45733,0.25182 0.49118,0.97499 0.92596,1.26402c1.28619,0.85501 2.69408,1.52008 4.002,2.34146c1.76405,1.10783 4.05777,1.28159 5.8725,2.28995c1.99227,1.10701 3.54899,3.03165 5.49495,4.20459c5.1997,3.13416 9.49236,6.67503 11.98327,12.47128c0.77503,3.3272 1.38794,6.7173 2.79718,9.8498c1.17469,2.61114 3.11641,4.8815 3.63574,7.73967c0.71066,3.91116 0.82253,8.26792 2.38113,12.05899c0.51522,1.25319 1.00261,2.53291 1.68723,3.7022c0.67355,1.15038 2.04232,1.86214 2.52502,3.10473c0.8754,2.25348 0.49345,5.13117 0.20646,7.42706c0.05182,1.11907 -0.20715,2.30021 0.15534,3.36022c0.18953,0.55423 1.05939,0.60512 1.36916,1.10225c0.30401,0.48789 0.01622,1.23095 0.36689,1.68647c0.34073,0.4426 0.87145,0.90977 1.47333,1.37787c-0.38311,0.18326 -0.77508,0.55927 -0.77508,1.32587c0,1.5 1.49983,1.501 1.49983,1.501l0.22579,-0.01804c0.80237,-0.00499 1.70129,-0.07486 2.49547,-0.20951c2.86276,2.62381 5.71964,5.12113 8.59104,7.62451c0.46962,0.40942 0.64499,1.12837 1.17711,1.45243c2.45009,1.49211 5.63335,0.37763 8.05347,1.4319c2.32379,1.01231 2.17949,1.81407 4.86691,2.60073c2.83395,0.82955 5.80441,0.46719 8.55748,-0.30366c6.24818,-1.27698 6.73794,4.25143 7.67124,9.23246c0.22991,1.22702 0.93801,2.37711 0.9439,3.62547c0.01745,3.69595 -4.33026,6.84223 -5.72262,10.10334c-2.09319,4.90253 -3.43956,10.36226 -6.27485,14.88192c-1.1344,1.13171 -2.41189,2.05953 -3.80086,2.77493c-1.51527,0.53598 -3.33144,1.18621 -3.48429,1.23135c-0.33805,0.09983 -0.676,0.19413 -1.01348,0.28272c-0.07111,0.01286 -0.14243,0.02535 -0.21387,0.03734c-1.26444,0.21227 -2.58429,-0.22829 -3.84715,-0.00679c-5.06126,0.88773 -9.7134,1.36909 -14.81522,0.64416c-1.95316,-0.27753 -4.85671,0.11646 -6.78309,-0.92395c-0.04932,-1.13263 -1.25921,-1.33424 -1.25921,-1.33424c-0.1247,-0.01976 -0.3139,-0.1137 -0.43739,-0.13011c-1.62974,-1.79678 -2.5568,-4.05112 -3.55376,-6.26911c-1.87613,-2.41819 -2.28158,-4.78354 -3.7815,-7.21879c-0.53477,-0.86824 -1.37705,-1.36704 -2.06165,-2.12278c-2.82474,-3.11829 -4.76911,-6.85249 -9.32855,-7.60428c-4.33574,-0.7149 -8.90531,0.98269 -11.70411,4.37723c-0.28642,0.3474 -2.76717,4.60657 -3.03445,5.00578c-1.14872,1.71573 -4.30756,3.90878 -4.15673,6.23455c0.05333,0.82224 0.9923,1.19725 1.50333,1.8436c1.03395,2.75079 3.05626,6.48668 3.02425,9.31812c-0.0008,0.07047 0.00454,0.33858 0.00714,0.68384c-0.34102,0.20183 -0.65624,0.57439 -0.65624,1.26129z" data-paper-data="{&quot;noHover&quot;:false,&quot;origItem&quot;:[&quot;Path&quot;,{&quot;applyMatrix&quot;:true,&quot;segments&quot;:[[[350.76097,261.35956],[0,0],[0,-0.6869]],[[351.41655,260.09848],[-0.34102,0.20183],[-0.0026,-0.34526]],[[351.40928,259.41468],[-0.0008,0.07047],[0.03201,-2.83144]],[[348.41553,250.19179],[1.03395,2.75079],[-0.51103,-0.64635]],[[346.88243,248.25273],[0.05333,0.82224],[-0.15083,-2.32577]],[[351.03416,242.01999],[-1.14872,1.71573],[0.26728,-0.39921]],[[354.06443,237.01622],[-0.28642,0.3474],[2.7988,-3.39454]],[[365.75915,232.64554],[-4.33574,-0.7149],[4.55944,0.75179]],[[375.08661,240.25081],[-2.82474,-3.11829],[0.6846,0.75574]],[[377.21668,242.44652],[-0.53477,-0.86824],[1.49992,2.43525]],[[380.99713,249.66626],[-1.87613,-2.41819],[0.99696,2.21799]],[[384.55022,255.93596],[-1.62974,-1.79678],[0.12349,0.01641]],[[384.92249,255.99018],[-0.1247,-0.01976],[0,0]],[[386.18166,257.32445],[-0.04932,-1.13263],[1.92638,1.04041]],[[392.96292,258.25006],[-1.95316,-0.27753],[5.10182,0.72493]],[[407.77438,257.60989],[-5.06126,0.88773],[1.26286,-0.2215]],[[411.62078,257.61759],[-1.26444,0.21227],[0.07144,-0.01199]],[[411.8346,257.58031],[-0.07111,0.01286],[0.33748,-0.08859]],[[412.84783,257.29791],[-0.33805,0.09983],[0.15285,-0.04514]],[[416.33124,256.06771],[-1.51527,0.53598],[1.38897,-0.7154]],[[420.13091,253.29446],[-1.1344,1.13171],[2.83529,-4.51966]],[[426.40207,238.41895],[-2.09319,4.90253],[1.39236,-3.26111]],[[432.12264,228.32054],[0.01745,3.69595],[-0.00589,-1.24836]],[[431.17827,224.69645],[0.22991,1.22702],[-0.9333,-4.98103]],[[423.60309,215.49157],[6.24818,-1.27698],[-2.75307,0.77085]],[[415.04526,215.79653],[2.83395,0.82955],[-2.68742,-0.78666]],[[410.08187,213.16951],[2.32379,1.01231],[-2.42012,-1.05427]],[[402.02852,211.73717],[2.45009,1.49211],[-0.53212,-0.32406]],[[400.85122,210.28546],[0.46962,0.40942],[-2.8714,-2.50338]],[[392.25931,202.66498],[2.86276,2.62381],[-0.79418,0.13465]],[[389.8623,202.89198],[0.80237,-0.00499],[0,0]],[389.53815,202.89198],[[388.03815,201.39198],[0,1.5],[0,-0.7666]],[[388.81305,200.0673],[-0.38311,0.18326],[-0.60188,-0.4681]],[[387.33959,198.69042],[0.34073,0.4426],[-0.35067,-0.45552]],[[386.97255,197.00536],[0.30401,0.48789],[-0.30977,-0.49713]],[[385.60332,195.90398],[0.18953,0.55423],[-0.36249,-1.06001]],[[385.44786,192.54676],[0.05182,1.11907],[0.28699,-2.29589]],[[385.24176,185.12634],[0.8754,2.25348],[-0.4827,-1.24259]],[[382.71722,182.02472],[0.67355,1.15038],[-0.68462,-1.16929]],[[381.03081,178.32615],[0.51522,1.25319],[-1.5586,-3.79107]],[[378.65373,166.27757],[0.71066,3.91116],[-0.51933,-2.85817]],[[375.02203,158.54435],[1.17469,2.61114],[-1.40924,-3.1325]],[[372.23005,148.70054],[0.77503,3.3272],[-2.49091,-5.79625]],[[360.25781,136.23745],[5.1997,3.13416],[-1.94596,-1.17294]],[[354.76761,132.03515],[1.99227,1.10701],[-1.81473,-1.00836]],[[348.89967,129.74685],[1.76405,1.10783],[-1.30792,-0.82138]],[[344.90096,127.40628],[1.28619,0.85501],[-0.43478,-0.28903]],[[343.97586,126.14245],[0.45733,0.25182],[-2.78217,-1.53194]],[[336.30047,122.32685],[2.61358,2.32584],[-3.18898,-1.93481]],[[325.79688,118.2746],[3.74075,0.46763],[-1.59355,-0.19921]],[[320.97902,118.28014],[1.59229,0.20903],[-4.73302,-0.62132]],[[306.39997,117.88187],[4.70549,-1.61675],[-3.64714,1.25311]],[[297.09371,124.13999],[2.99496,-2.19466],[-2.16906,1.58946]],[[290.01113,127.02654],[2.46534,-0.92927],[-8.24484,3.09182]],[[264.63377,134.89617],[7.96475,-3.68304],[-4.18332,1.93443]],[[253.08244,143.78007],[2.35249,-4.17078],[-1.54237,2.7345]],[[251.6534,153.13787],[0.17808,-3.01398],[0.0009,4.0912]],[[251.65405,165.41148],[0,-4.09121],[0,2.49562]],[[252.24792,173.43896],[-0.84475,-2.33583],[2.07345,5.73331]],[[266.96927,181.13639],[-5.75725,1.47011],[4.24183,-1.08315]],[[279.29191,176.06995],[-4.1047,1.52352],[5.6437,-3.79812]],[[296.50345,166.65389],[-6.01258,3.02062],[2.63941,-1.326]],[[305.4464,163.26947],[-3.00328,0.28142],[1.6468,-0.15431]],[[310.33996,164.09095],[-1.64257,-0.19423],[5.91667,0.69966]],[[327.37006,167.65949],[-5.68504,-1.95452],[3.68536,2.92123]],[[337.36966,178.95441],[-2.38341,-4.09947],[1.05383,1.8126]],[[339.94412,184.75584],[-1.0569,-1.84408],[1.8672,3.2579]],[[344.02531,195.74063],[0.6619,-4.06397],[-0.74504,4.57439]],[[335.8727,205.31195],[2.94963,-3.2482],[-0.99461,1.09529]],[[332.72289,208.43909],[1.25737,-0.77971],[-3.52456,3.0969]],[[321.19273,217.30628],[4.16223,-2.26269],[-2.82661,1.53661]],[[312.64056,219.30946],[2.78435,-1.20813],[-2.67815,1.16205]],[[304.89477,223.28636],[2.97821,-0.5924],[-2.07925,0.41359]],[[298.24014,222.9742],[2.05738,0.29061],[0,0]],[298.47479,223.15507],[[296.46233,222.48425],[0.67082,1.34164],[0,0]],[[296.46231,222.48419],[0,0],[-0.05187,-0.10375]],[[296.34124,222.18498],[0.02936,0.09573],[-3.35848,0.32609]],[[286.29826,223.30441],[3.33871,-0.36086],[-3.90287,0.42183]],[[274.32087,223.08162],[3.90526,0.18422],[-5.56397,-0.26246]],[[257.60947,223.31337],[5.57215,0],[-3.07594,-0.00937]],[[247.99552,224.5456],[3.00443,-0.79441],[-2.19565,0.58057]],[[243.65973,228.47553],[1.5822,-1.23767],[-1.95539,1.52959]],[[236.91608,231.89181],[2.18813,-1.05998],[-1.01345,0.49094]],[[234.38313,234.12725],[0.98597,-0.54404],[-1.50295,0.82929]],[[228.68047,236.62885],[1.06149,-1.65522],[-2.05936,3.21122]],[[227.66324,249.90801],[0.00546,-3.59722],[0.04178,0.31018]],[[227.78485,250.94358],[-0.04559,-0.37076],[1.39765,0.68633]],[[232.14198,252.62816],[-1.44849,-0.90876],[3.10199,1.94615]],[[241.48415,258.24311],[-3.18645,-1.82641],[0.27209,0.02252]],[[242.84836,259.28361],[-0.22482,-0.87743],[1.7373,0.55494]],[[247.99029,260.51155],[-1.63904,-0.18083],[0.74363,0.08204]],[[251.38979,259.58565],[-0.51582,0.13777],[2.97576,-0.79475]],[[260.99184,257.60174],[-3.07436,0.43259],[3.61431,-0.50856]],[[272.36467,257.89759],[-3.60718,-0.34714],[4.83501,1.23531]],[[286.0185,263.11554],[-4.86092,-0.83307],[5.35691,0.91808]],[[300.5735,259.5427],[-5.10686,0.46396],[2.77168,-0.25181]],[[307.94872,261.54038],[-2.55023,-0.72728],[1.93065,0.55058]],[[313.89588,262.49241],[-1.92063,-0.58458],[2.42496,0.73807]],[[321.17196,265.08817],[-2.50984,-0.71829],[5.0724,1.01971]],[[336.46036,266.66669],[-5.23522,-0.00125],[3.49953,0.00083]],[[346.65167,264.92109],[-3.12516,1.82141],[0.70911,-0.41328]],[[351.14554,262.41074],[-0.82021,0.87538],[-0.22005,-0.22222]],[[350.761,261.35955],[0,0.49674],[0,0]]],&quot;closed&quot;:true,&quot;fillColor&quot;:[0,0,0,1],&quot;strokeWidth&quot;:0.5}]}" fill="#f56529" stroke="none" stroke-width="0.25"/><path d="M156.65801,321.58484v-277.04485h324.53826v277.04486z" fill="none" stroke="#000000" stroke-width="0"/></g></g></svg>