<svg version="1.1" xmlns="http://www.w3.org/2000/svg" xmlns:xlink="http://www.w3.org/1999/xlink" width="324.53826" height="277.04486" viewBox="0,0,324.53826,277.04486"><g transform="translate(-156.658,-44.53998)"><g data-paper-data="{&quot;isPaintingLayer&quot;:true}" fill-rule="nonzero" stroke-linecap="butt" stroke-linejoin="miter" stroke-miterlimit="10" stroke-dasharray="" stroke-dashoffset="0" style="mix-blend-mode: normal"><path d="M270.16303,180.73464c-0.26907,-0.26907 -0.40163,-0.53815 -0.44961,-0.7899c-6.10997,0.13995 -12.47837,-1.18656 -17.48525,-4.54071c-1.32158,-0.88533 -2.85978,-1.67881 -3.67429,-3.04518c-1.2849,-2.15548 -3.11573,-6.09495 -2.09195,-8.71837c0.42881,-1.09883 1.37479,-1.91708 2.06217,-2.87562c8.55688,-9.6061 21.16111,-15.46036 32.43879,-21.02426c4.3747,-2.15828 9.46899,-2.7895 13.85467,-5.14412c7.25258,-4.0171 12.30315,-10.90651 18.947,-15.76959c1.00101,-0.7327 1.58195,-1.9741 2.63788,-2.62517c2.25059,-1.38768 4.89225,-2.14637 7.32268,-3.35334c0.76833,-0.38156 1.35511,-1.1144 2.16924,-1.38476c2.13608,-0.70935 4.50299,0.59734 6.53023,0.93095c1.57156,0.25862 3.17759,0.22772 4.76279,0.38206c2.46495,1.59816 5.06491,1.71063 7.56615,2.96019c2.47828,1.23808 4.42937,3.29327 6.32351,5.20299c1.96073,1.97687 4.80646,3.66349 6.10573,6.22937c2.45727,4.85277 -2.61482,11.98541 -7.3648,13.08504c-3.24257,0.75066 -7.24284,-0.25053 -10.52296,-0.24717c-2.95247,-0.0103 -5.87359,-1.90895 -8.62831,-1.62586c-3.03033,0.31141 -5.85248,2.07479 -8.52907,3.4124c-6.96949,3.48293 -13.05685,8.04965 -19.19665,12.80663c-2.15913,1.67284 -4.11904,2.52237 -6.01866,4.6025c-1.88383,2.03114 -4.28941,3.36281 -6.04164,5.51064c-1.72911,2.11948 -2.813,4.71765 -4.53626,6.80758c-1.32288,1.60435 -3.0227,3.03 -4.89509,4.28766c0.34829,0.19917 0.67469,0.57248 0.67469,1.2722c0,1.5 -1.5,1.5 -1.5,1.5c-1.92561,-0.00657 -3.79271,0.39978 -5.66676,0.76404c-0.85733,0.38613 -1.70538,0.74371 -2.52818,1.07357l-0.14472,0.31625c0,0 -1.06066,1.06066 -2.12132,0zM273.94619,176.51504c3.70795,-1.68139 7.58131,-3.93366 10.03361,-6.84035c1.71459,-2.0323 2.80936,-4.72765 4.53268,-6.80298c1.85234,-2.23071 4.26515,-3.58536 6.20427,-5.70259c2.02998,-2.18327 4.10661,-3.15909 6.37799,-4.93352c6.27568,-4.90263 12.5576,-9.55159 19.70124,-13.1253c3.0292,-1.5154 6.17841,-3.43335 9.62327,-3.71888c3.07101,-0.25455 5.73488,1.62839 8.87575,1.61563c2.88041,0.00278 6.72236,1.02576 9.57428,0.40112c2.89767,-0.63466 7.37381,-5.71461 5.60116,-8.9571c-0.41213,-0.75387 -2.96004,-3.10817 -3.25624,-3.38267c-2.3804,-2.20601 -4.6927,-5.09693 -7.65326,-6.57881c-2.40486,-1.20373 -4.99986,-1.26145 -7.34471,-2.8745c-1.35099,-0.03872 -3.12252,-0.07191 -4.31338,-0.26624c-1.13908,-0.18587 -3.85133,-1.54574 -5.13914,-1.01395c-2.31739,0.95695 -4.36728,2.59586 -6.48111,3.74696c-0.66103,0.35997 -1.52817,0.21356 -2.17931,0.59112c-1.0419,0.60412 -1.58219,1.84237 -2.54851,2.56122c-6.72787,5.00488 -11.91462,11.88118 -19.30259,15.99702c-4.43162,2.35124 -9.65978,3.01123 -14.02215,5.22865c-10.83089,5.50537 -23.08533,10.90523 -31.38422,20.20492c-3.09544,3.87352 -0.54984,7.85896 3.0687,10.25808c4.92573,3.2658 11.22533,4.34075 17.18545,3.95964c0.95867,-0.0613 1.90458,-0.20115 2.84622,-0.36746z" fill="#000000" stroke="none" stroke-width="0.5"/><path d="M273.91249,176.55199c-0.94164,0.16631 -1.88907,0.30471 -2.84774,0.36601c-5.96012,0.38111 -12.268,-0.70467 -17.19373,-3.97047c-3.61854,-2.39912 -6.16808,-6.39342 -3.07264,-10.26694c8.29889,-9.29969 20.55138,-14.72308 31.38227,-20.22845c4.36237,-2.21742 9.61103,-2.91048 14.04265,-5.26172c7.38797,-4.11584 12.6277,-10.99515 19.35557,-16.00003c0.96632,-0.71885 1.508,-1.95631 2.5499,-2.56043c0.65114,-0.37756 1.52031,-0.22988 2.18134,-0.58985c2.11383,-1.1511 4.16714,-2.78754 6.48453,-3.7445c1.28781,-0.53179 4.00419,0.83173 5.14327,1.0176c1.19086,0.19433 2.96486,0.23013 4.31585,0.26885c2.34485,1.61305 4.94415,1.67643 7.34901,2.88016c2.96056,1.48188 5.27715,4.38088 7.65756,6.58689c0.2962,0.2745 2.84549,2.63253 3.25762,3.3864c1.77265,3.24249 -2.70175,8.32939 -5.59942,8.96404c-2.85192,0.62464 -6.79183,-0.37847 -9.67224,-0.38125c-3.14087,0.01276 -5.80306,-1.86447 -8.87407,-1.60992c-3.44486,0.28553 -6.4998,2.1701 -9.529,3.6855c-7.14364,3.57371 -13.48073,8.28845 -19.75642,13.19108c-2.27138,1.77443 -4.3671,2.74294 -6.39709,4.92621c-1.93912,2.11723 -4.35588,3.46907 -6.20822,5.69978c-1.72332,2.07533 -2.81723,4.77134 -4.53181,6.80364c-2.4523,2.90669 -6.32924,5.15599 -10.03719,6.83738z" data-paper-data="{&quot;noHover&quot;:false,&quot;origItem&quot;:[&quot;Path&quot;,{&quot;applyMatrix&quot;:true,&quot;segments&quot;:[[[547.89238,353.03008],[0,0],[7.4159,-3.36278]],[[567.9596,339.34938],[-4.9046,5.81338],[3.42918,-4.0646]],[[577.02496,325.74342],[-3.44664,4.15066],[3.70468,-4.46142]],[[589.4335,314.33824],[-3.87824,4.23446],[4.05996,-4.36654]],[[602.18948,304.4712],[-4.54276,3.54886],[12.55136,-9.80526]],[[641.59196,278.2206],[-14.28728,7.14742],[6.0584,-3.0308]],[[660.8385,270.78284],[-6.88972,0.57106],[6.14202,-0.5091]],[[678.59,274.0141],[-6.28174,0.02552],[5.76082,0.00556]],[[697.73856,274.81634],[-5.70384,1.24928],[5.79534,-1.26932]],[[708.94088,256.90214],[3.5453,6.48498],[-0.82426,-1.50774]],[[702.4284,250.1368],[0.5924,0.549],[-4.7608,-4.41202]],[[687.12188,236.97918],[5.92112,2.96376],[-4.80972,-2.40746]],[[672.43246,231.23018],[4.6897,3.2261],[-2.70198,-0.07744]],[[663.8057,230.6977],[2.38172,0.38866],[-2.27816,-0.37174]],[[653.52742,228.6698],[2.57562,-1.06358],[-4.63478,1.9139]],[[640.5652,236.16372],[4.22766,-2.3022],[-1.32206,0.71994]],[[636.20658,237.34596],[1.30228,-0.75512],[-2.0838,1.20824]],[[631.10956,242.4684],[1.93264,-1.4377],[-13.45574,10.00976]],[[592.50438,274.46244],[14.77594,-8.23168],[-8.86324,4.70248]],[[564.46008,284.91974],[8.72474,-4.43484],[-21.66178,11.01074]],[[501.69164,325.32958],[16.59778,-18.59938],[-6.19088,7.74704]],[[507.82904,345.84574],[-7.23708,-4.79824],[9.85146,6.5316]],[[542.19994,353.76502],[-11.92024,0.76222],[1.91734,-0.1226]],[[547.89238,353.0301],[-1.88328,0.33262],[0,0]]],&quot;closed&quot;:true,&quot;fillColor&quot;:[0,0,0,1],&quot;strokeWidth&quot;:0.5}]}" fill="#ff9564" stroke="none" stroke-width="0.25"/><path d="M293.4495,224.56313c-2.41278,0.45348 -4.65512,1.52305 -7.03129,1.96465c-1.50621,0.27993 -3.11914,-0.21402 -4.59081,-0.29998c-7.11314,-0.41547 -15.45747,-0.8474 -22.47351,0.32194c-4.24464,0.01244 -8.8823,0.47498 -13.0492,-0.3461c-1.11324,-0.21936 -2.62828,-1.24086 -3.87079,-0.47457c-1.97613,1.21874 -3.68684,2.39457 -5.99869,3.31694c-1.22783,0.48988 -2.77246,0.26122 -3.81913,1.0687c-1.49028,1.1497 -2.08232,4.58041 -2.69361,6.13515c-1.1158,2.83788 -2.56866,5.27649 -3.47117,8.21445c-3.24792,8.19016 0.80255,15.84477 8.40175,19.07855c2.44131,1.03888 4.34715,3.31109 7.2377,2.82674c1.75025,-0.29328 1.31707,-1.34346 3.25201,-2.17206c0.86596,-0.37083 1.88868,-0.15057 2.79816,-0.39598c3.07865,-0.83074 6.16205,-1.95629 9.22822,-2.95019c5.91013,-0.05345 12.11666,1.5258 17.6291,3.64419c2.67036,1.0262 6.78259,3.07506 9.75858,2.22691c1.96917,-0.56121 3.75974,-1.94829 5.77536,-2.57522c2.09606,-0.65194 4.87215,-0.36461 6.92709,-1.00608c3.59444,-1.12205 6.68669,-2.74886 10.58965,-2.94455c2.33849,0.76856 4.73036,2.57461 7.14293,2.91893c4.61975,0.65931 9.7037,0.30965 14.37866,0.30965c2.09334,0 3.80457,0.49275 5.73274,0.66485c2.60529,0.23253 5.98871,-0.38074 8.60052,-0.6504c2.53831,-0.26207 4.72361,-0.61893 7.1125,-1.51652c1.30779,-0.49139 3.16277,-0.28947 3.92971,-1.45719c0.28996,-0.44149 0.02223,-1.05615 0.03335,-1.58422c-0.24691,-0.82137 -1.24516,-3.69876 -0.88629,-4.51854c1.73243,-3.95749 7.44218,-2.97675 10.53283,-4.42655c1.73749,-0.81504 3.14623,-2.27889 4.94411,-2.95031c5.03246,-1.87938 10.43072,-3.43743 15.86896,-3.00566c6.07349,0.48221 10.98288,4.88174 17.12764,5.1286c3.61876,-0.81057 7.03304,-1.99337 10.62176,-2.82565c2.01613,-0.46757 4.92925,-0.57618 6.67618,-1.75713c1.32302,-0.89438 4.1472,-2.73248 5.02108,-4.04399c0.38912,-0.58399 0.05815,-1.63104 0.65451,-2.00092c1.35064,-0.8377 3.3083,0.21279 4.74508,-0.46663c2.45636,-1.16154 0.76347,-6.08573 -0.78869,-7.21042c-1.40328,-1.01682 -4.44816,-1.0855 -6.16303,-1.67582c-0.60122,-0.00278 -5.82143,-0.57762 -5.8509,-0.60838c-0.88761,-0.92672 -0.52535,-2.51421 -0.87436,-3.74906c-0.74651,-2.64123 -0.88846,-3.86392 0.03349,-6.67824c0.26214,-0.8002 0.67812,-1.54184 0.99187,-2.32324c0.30309,-0.75483 1.29225,-1.93681 0.60075,-2.36511c-1.43184,-0.88686 -4.4025,-0.46312 -6.00579,-0.46405c-5.64184,-0.00327 -11.31244,-0.0052 -16.94896,-0.0029c-2.78646,-0.3453 -5.10492,-0.9314 -7.70685,-1.65797c-3.27653,-0.91495 -6.91059,-0.79685 -10.21993,-1.99629c-3.68341,-1.33502 -6.4157,-3.83575 -10.38118,-4.39695c-6.43149,-0.9102 -13.43878,0.35811 -19.79183,1.24329c-7.55913,-0.01019 -15.5367,0.88575 -21.48442,6.11613c-1.72874,1.52024 -2.3372,3.93744 -3.71038,5.64825c-4.17446,5.20087 -10.61397,7.70567 -16.902,8.97756c-3.19755,-0.021 -6.425,-1.07948 -9.21788,-2.68095c-0.36678,0.04791 -0.73375,0.09835 -1.10102,0.1533l-0.29289,0.15863c0,0 -0.50068,0.20027 -1.02172,0.06046zM301.52072,223.38312c1.08976,0.31574 2.18651,0.51404 3.26667,0.50318c5.4618,-1.07368 11.25804,-3.35144 14.86461,-7.87819c1.47982,-1.85738 2.20205,-4.3474 4.0692,-6.02112c6.37441,-5.71404 15.08135,-6.83916 23.24816,-6.84984c6.27998,-0.90173 13.21413,-2.08845 19.61417,-1.32715c-5.38441,-1.11036 -11.43374,-4.18134 -8.86291,-10.47739c0.31998,-0.78365 1.25576,-1.15258 1.75135,-1.83879c0.45266,-0.62677 0.54317,-1.48988 1.0648,-2.06053c2.11278,-2.31134 4.60424,-2.8751 7.25779,-3.35013c1.06742,-1.10121 2.09192,-2.24526 3.33125,-3.26884c6.26328,-5.1729 14.46885,-6.29683 22.17837,-6.84918c3.81341,-0.27321 7.21833,-0.72849 10.88917,0.50141c0.72842,0.61147 1.65826,1.04272 2.18527,1.8344c0.76288,1.14602 0.55447,4.37322 0.5428,5.40058c-0.05901,5.1941 -4.6738,9.66897 -7.65092,13.789c-1.521,2.1049 -3.1411,4.73876 -5.54152,5.96833c-2.72471,1.39569 -6.43255,1.10896 -9.37726,1.10896c-4.51276,0 -9.02425,0.12566 -13.52226,-0.25652c-0.69849,-0.01493 -1.48717,-0.07322 -2.32456,-0.18051c3.65523,0.85845 6.30939,3.03244 9.87978,4.33568c3.19674,1.16685 6.68631,1.04102 9.87732,1.8935c2.48215,0.66311 4.5509,1.24883 7.20401,1.58352c5.56688,0.00279 11.18976,0.00042 16.76255,-0.0029c2.41421,-0.00144 6.3698,-0.39035 8.25677,1.48084c2.42803,2.40773 -1.14616,7.40887 -1.58162,9.92691c-0.15693,0.90745 0.51246,1.77829 0.61453,2.69354c0.0775,0.69497 -0.61328,1.50334 -0.22606,2.08563c0.24945,0.37511 0.75089,-0.62635 1.20132,-0.61907c1.12829,0.01824 2.19213,0.66449 3.32056,0.65898c2.09095,0.67803 5.70055,0.93792 7.45124,2.21397c3.46409,2.52493 4.7481,9.77736 0.50791,12.23852c-0.85117,0.49405 -1.9234,0.47664 -2.9067,0.51788c-0.48742,0.02045 -1.01306,-0.59851 -1.42439,-0.33621c-0.34867,0.22234 0.23568,0.89655 0.00621,1.24057c-1.07325,1.60901 -4.38462,3.992 -5.99999,5.03218c-2.14753,1.38285 -5.14637,1.57013 -7.58638,2.13266c-3.72229,0.85816 -7.2673,2.07992 -11.03384,2.89083c-6.39679,-0.27081 -11.41848,-4.6592 -17.6187,-5.12597c-5.03527,-0.37908 -9.93717,1.12973 -14.60106,2.82903c-1.7486,0.6371 -3.08727,2.11177 -4.78036,2.88437c-1.82757,0.83396 -7.91602,0.57015 -8.91612,2.70473c-0.48487,1.0349 0.75695,2.15872 1.0586,3.26104c-0.20498,1.20072 0.03067,2.56925 -0.61495,3.60216c-0.49037,0.78454 -1.61318,0.90992 -2.45084,1.30271c-3.47308,1.62859 -6.89979,2.47628 -10.69278,2.86789c-2.86475,0.29577 -6.49595,0.87409 -9.35303,0.63316c-1.89722,-0.15998 -3.21463,-0.63175 -5.28833,-0.63175c-4.77543,0 -10.08365,0.42505 -14.79476,-0.33865c-2.66044,-0.43127 -4.60367,-2.06084 -7.11963,-2.91576c-3.4753,0.2601 -6.29241,1.91323 -9.50759,2.89013c-3.40474,1.0345 -7.32178,1.04853 -10.60687,2.24481c-0.74129,0.26994 -1.20843,1.11594 -1.97431,1.30517c-3.79283,0.93717 -8.21557,-0.99479 -11.63526,-2.31118c-5.01509,-1.93052 -10.70542,-3.415 -16.08241,-3.48709c-2.94081,1.01549 -5.94687,2.10062 -8.92413,2.8845c-0.77412,0.20382 -1.65255,-0.06327 -2.38822,0.25231c-2.63536,1.1305 -2.91866,2.68501 -6.25563,2.38579c-2.63803,-0.23655 -4.27536,-2.02747 -6.59339,-3.02771c-3.30965,-1.42813 -8.07044,-4.6221 -9.82248,-8.14161c-2.09104,-4.20049 -1.83829,-10.49046 -0.24851,-14.68581c0.91884,-2.96768 2.3897,-5.46106 3.51258,-8.32644c0.86244,-2.20078 1.57526,-5.79027 3.60899,-7.3791c0.85164,-0.66534 3.58794,-1.11507 4.60874,-1.5245c2.61735,-1.04977 5.12817,-3.35506 7.85141,-3.66038c2.30365,-0.25827 4.74686,0.75412 7.07866,0.97026c2.88809,0.2677 5.9227,-0.00992 8.82873,0c6.36971,-1.06162 13.35819,-0.33304 19.81416,-0.32926c1.99486,0.00117 4.97751,0.77667 6.93028,0.35121c2.27481,-0.49563 4.58001,-0.96315 6.89745,-1.43197c0.2753,-0.29935 0.60871,-0.43271 0.60871,-0.43271l2.24017,-0.75429c0.30548,0.13495 0.61595,0.27526 0.93071,0.41817c1.61434,-0.33243 3.22983,-0.67317 4.84039,-1.03204c0,0 1.46428,-0.3254 1.78968,1.13888c0.3254,1.46428 -1.13888,1.78968 -1.13888,1.78968c-0.16622,0.03684 -0.33234,0.07194 -0.49838,0.10548zM378.28111,181.85481c1.06066,1.06066 0,2.12132 0,2.12132l-1.54187,1.07831c-1.68249,0.17904 -3.26577,0.88792 -4.90907,1.2909c-0.83997,0.20598 -1.706,0.32736 -2.56991,0.44657c-1.0699,1.06399 -2.19683,2.08022 -3.58573,2.92034c0,0 -1.28624,0.77175 -2.05798,-0.51449c-0.08688,-0.1448 -0.14768,-0.28309 -0.18717,-0.41449c-0.22214,0.1904 -0.43698,0.4013 -0.64356,0.63545c-0.88387,1.00181 -1.72128,2.06419 -2.37024,3.23197c-0.79649,1.43327 0.14429,2.26738 0.87858,3.37951c2.01236,3.04786 6.40163,3.23356 9.69061,3.28514c4.44608,0.37935 8.90605,0.2525 13.36696,0.2525c2.54339,0 5.75898,0.30725 8.1268,-0.83593c3.24626,-1.56729 5.8569,-7.08637 7.82837,-9.87533c1.98405,-2.80677 6.64299,-8.74447 2.45281,-11.75474c-2.95456,-0.97651 -6.16818,-0.36336 -9.20808,-0.1469c-6.86665,0.48896 -14.3353,1.35292 -20.0241,5.7777c0.9472,-0.28437 1.89861,-0.54507 2.87753,-0.65953l-0.24527,-0.2183c0,0 1.06066,-1.06066 2.12132,0z" fill="#000000" stroke="none" stroke-width="0.5"/><path d="M293.40185,224.54795c0.52104,0.13981 1.02188,-0.06095 1.02188,-0.06095l0.293,-0.15895c0.36727,-0.05495 0.73448,-0.10607 1.10126,-0.15398c2.79288,1.60147 6.02071,2.6589 9.21826,2.6799c6.28803,-1.27189 12.75731,-3.80595 16.93177,-9.00682c1.37318,-1.71081 1.99284,-4.13064 3.72158,-5.65088c5.94772,-5.23038 13.95781,-6.1189 21.51694,-6.10871c6.35305,-0.88518 13.37262,-2.1425 19.80411,-1.2323c3.96548,0.5612 6.70272,3.06939 10.38613,4.40441c3.30934,1.19944 6.94562,1.08601 10.22215,2.00096c2.60193,0.72657 4.92151,1.31564 7.70797,1.66094c5.63652,-0.0023 11.30804,0.00265 16.94988,0.00592c1.60329,0.00093 4.57423,-0.42175 6.00607,0.46511c0.6915,0.4283 -0.29739,1.61142 -0.60048,2.36625c-0.31375,0.7814 -0.72949,1.52415 -0.99163,2.32435c-0.92195,2.81432 -0.77941,4.04065 -0.0329,6.68188c0.34901,1.23485 -0.01303,2.82447 0.87458,3.75119c0.02947,0.03076 5.24972,0.60617 5.85094,0.60895c1.71487,0.59032 4.75981,0.66004 6.16309,1.67686c1.55216,1.12469 3.2451,6.05244 0.78874,7.21398c-1.43678,0.67942 -3.39445,-0.37078 -4.74509,0.46692c-0.59636,0.36988 -0.26543,1.41797 -0.65455,2.00196c-0.87388,1.31151 -3.69823,3.15194 -5.02125,4.04632c-1.74693,1.18095 -4.6602,1.29095 -6.67633,1.75852c-3.58872,0.83228 -7.00341,2.01778 -10.62217,2.82835c-6.14476,-0.24686 -11.05387,-4.64811 -17.12736,-5.13032c-5.43824,-0.43177 -10.83775,1.13231 -15.87021,3.01169c-1.79788,0.67142 -3.2083,2.14034 -4.94579,2.95538c-3.09065,1.4498 -8.80648,0.48017 -10.53891,4.43766c-0.35887,0.81978 0.6366,3.70066 0.88351,4.52203c-0.01112,0.52807 0.25549,1.14398 -0.03447,1.58547c-0.76694,1.16772 -2.62583,0.96956 -3.93362,1.46095c-2.38889,0.89759 -4.58246,1.26024 -7.12077,1.52231c-2.61181,0.26966 -6.00783,0.88788 -8.61312,0.65535c-1.92817,-0.1721 -3.64912,-0.66348 -5.74246,-0.66348c-4.67496,0 -9.78274,0.34472 -14.40249,-0.31459c-2.41257,-0.34432 -4.81469,-2.15697 -7.15318,-2.92553c-3.90296,0.19569 -7.00065,1.81722 -10.59509,2.93927c-2.05494,0.64147 -4.83359,0.351 -6.92965,1.00294c-2.01562,0.62693 -3.80696,2.01295 -5.77613,2.57416c-2.97599,0.84815 -7.09147,-1.20595 -9.76183,-2.23215c-5.51244,-2.11839 -11.72208,-3.70468 -17.63221,-3.65123c-3.06617,0.9939 -6.14963,2.11929 -9.22828,2.95003c-0.90948,0.24541 -1.8377,-0.00754 -2.70366,0.36329c-1.93494,0.8286 -1.59619,1.91169 -3.34644,2.20497c-2.89055,0.48435 -4.7972,-1.79034 -7.23851,-2.82922c-7.5992,-3.23378 -11.65156,-10.89837 -8.40364,-19.08853c0.90251,-2.93796 2.35519,-5.38057 3.47099,-8.21845c0.61129,-1.55474 1.20342,-4.98864 2.6937,-6.13834c1.04667,-0.80748 2.59135,-0.57952 3.81918,-1.0694c2.31185,-0.92237 4.02276,-2.10035 5.99889,-3.31909c1.24251,-0.76629 2.75755,0.25522 3.87079,0.47458c4.1669,0.82108 8.80466,0.35771 13.0493,0.34527c7.01604,-1.16934 15.36094,-0.74082 22.47408,-0.32535c1.47167,0.08596 3.08475,0.5792 4.59096,0.29927c2.37617,-0.4416 4.61972,-1.51568 7.0325,-1.96916z" data-paper-data="{&quot;noHover&quot;:false,&quot;origItem&quot;:[&quot;Path&quot;,{&quot;applyMatrix&quot;:true,&quot;segments&quot;:[[[293.4495,224.56313],[0,0],[-2.41278,0.45348]],[[286.41821,226.52778],[2.37617,-0.4416],[-1.50621,0.27993]],[[281.8274,226.2278],[1.47167,0.08596],[-7.11314,-0.41547]],[[259.35389,226.54974],[7.01604,-1.16934],[-4.24464,0.01244]],[[246.30469,226.20364],[4.1669,0.82108],[-1.11324,-0.21936]],[[242.4339,225.72907],[1.24251,-0.76629],[-1.97613,1.21874]],[[236.43521,229.04601],[2.31185,-0.92237],[-1.22783,0.48988]],[[232.61608,230.11471],[1.04667,-0.80748],[-1.49028,1.1497]],[[229.92247,236.24986],[0.61129,-1.55474],[-1.1158,2.83788]],[[226.4513,244.46431],[0.90251,-2.93796],[-3.24792,8.19016]],[[234.85305,263.54286],[-7.5992,-3.23378],[2.44131,1.03888]],[[242.09075,266.3696],[-2.89055,0.48435],[1.75025,-0.29328]],[[245.34276,264.19754],[-1.93494,0.8286],[0.86596,-0.37083]],[[248.14092,263.80156],[-0.90948,0.24541],[3.07865,-0.83074]],[[257.36914,260.85137],[-3.06617,0.9939],[5.91013,-0.05345]],[[274.99824,264.49556],[-5.51244,-2.11839],[2.67036,1.0262]],[[284.75682,266.72247],[-2.97599,0.84815],[1.96917,-0.56121]],[[290.53218,264.14725],[-2.01562,0.62693],[2.09606,-0.65194]],[[297.45927,263.14117],[-2.05494,0.64147],[3.59444,-1.12205]],[[308.04892,260.19662],[-3.90296,0.19569],[2.33849,0.76856]],[[315.19185,263.11555],[-2.41257,-0.34432],[4.61975,0.65931]],[[329.57051,263.4252],[-4.67496,0],[2.09334,0]],[[335.30325,264.09005],[-1.92817,-0.1721],[2.60529,0.23253]],[[343.90377,263.43965],[-2.61181,0.26966],[2.53831,-0.26207]],[[351.01627,261.92313],[-2.38889,0.89759],[1.30779,-0.49139]],[[354.94598,260.46594],[-0.76694,1.16772],[0.28996,-0.44149]],[[354.97933,258.88172],[-0.01112,0.52807],[-0.24691,-0.82137]],[[354.09304,254.36318],[-0.35887,0.81978],[1.73243,-3.95749]],[[364.62587,249.93663],[-3.09065,1.4498],[1.73749,-0.81504]],[[369.56998,246.98632],[-1.79788,0.67142],[5.03246,-1.87938]],[[385.43894,243.98066],[-5.43824,-0.43177],[6.07349,0.48221]],[[402.56658,249.10926],[-6.14476,-0.24686],[3.61876,-0.81057]],[[413.18834,246.28361],[-3.58872,0.83228],[2.01613,-0.46757]],[[419.86452,244.52648],[-1.74693,1.18095],[1.32302,-0.89438]],[[424.8856,240.48249],[-0.87388,1.31151],[0.38912,-0.58399]],[[425.54011,238.48157],[-0.59636,0.36988],[1.35064,-0.8377]],[[430.28519,238.01494],[-1.43678,0.67942],[2.45636,-1.16154]],[[429.4965,230.80452],[1.55216,1.12469],[-1.40328,-1.01682]],[[423.33347,229.1287],[1.71487,0.59032],[-0.60122,-0.00278]],[[417.48257,228.52032],[0.02947,0.03076],[-0.88761,-0.92672]],[[416.60821,224.77126],[0.34901,1.23485],[-0.74651,-2.64123]],[[416.6417,218.09302],[-0.92195,2.81432],[0.26214,-0.8002]],[[417.63357,215.76978],[-0.31375,0.7814],[0.30309,-0.75483]],[[418.23432,213.40467],[0.6915,0.4283],[-1.43184,-0.88686]],[[412.22853,212.94062],[1.60329,0.00093],[-5.64184,-0.00327]],[[395.27957,212.93772],[5.63652,-0.0023],[-2.78646,-0.3453]],[[387.57272,211.27975],[2.60193,0.72657],[-3.27653,-0.91495]],[[377.35279,209.28346],[3.30934,1.19944],[-3.68341,-1.33502]],[[366.97161,204.88651],[3.96548,0.5612],[-6.43149,-0.9102]],[[347.17978,206.1298],[6.35305,-0.88518],[-7.55913,-0.01019]],[[325.69536,212.24593],[5.94772,-5.23038],[-1.72874,1.52024]],[[321.98498,217.89418],[1.37318,-1.71081],[-4.17446,5.20087]],[[305.08298,226.87174],[6.28803,-1.27189],[-3.19755,-0.021]],[[295.8651,224.19079],[2.79288,1.60147],[-0.36678,0.04791]],[[294.76408,224.34409],[0.36727,-0.05495],[0,0]],[294.47119,224.50272],[[293.44947,224.56318],[0.52104,0.13981],[0,0]]],&quot;closed&quot;:true,&quot;fillColor&quot;:[0,0,0,1],&quot;strokeWidth&quot;:0.5}]}" fill="#f7ee6f" stroke="none" stroke-width="0.25"/><path d="M376.19484,181.89047l0.24518,0.2184c-0.97892,0.11446 -2.00795,0.31332 -2.95515,0.59769c5.6888,-4.42478 13.23568,-5.2978 20.10233,-5.78675c3.0399,-0.21646 6.262,-0.81811 9.21657,0.1584c4.19018,3.01027 -0.46286,8.97374 -2.44691,11.78051c-1.97147,2.78896 -4.59749,8.34202 -7.84375,9.90931c-2.36782,1.14318 -5.60913,0.84903 -8.15251,0.84903c-4.46091,0 -8.9652,0.11289 -13.41128,-0.26646c-3.28898,-0.05158 -7.68955,-0.25483 -9.70191,-3.30269c-0.73429,-1.11213 -1.67726,-1.95372 -0.88077,-3.38699c0.64896,-1.16778 1.48543,-2.23697 2.3693,-3.23878c0.20658,-0.23415 0.42134,-0.44661 0.64348,-0.63701c0.03949,0.1314 0.20016,0.26486 0.28704,0.40966c0.77174,1.28624 1.95831,0.52234 1.95831,0.52234c1.3889,-0.84012 2.51583,-1.86617 3.58573,-2.93016c0.86391,-0.11921 1.73037,-0.24386 2.57034,-0.44984c1.6433,-0.40298 3.23203,-1.12764 4.91452,-1.30668l1.55085,-1.09014c0,0 1.12257,-0.98277 0.06191,-2.04343c-1.06066,-1.06066 -2.11329,-0.00641 -2.11329,-0.00641z" data-paper-data="{&quot;noHover&quot;:false,&quot;origItem&quot;:[&quot;Path&quot;,{&quot;applyMatrix&quot;:true,&quot;segments&quot;:[[[756.56222,363.70962],[-2.12132,-2.12132],[2.12132,2.12132]],[756.56222,367.95226],[[753.47848,370.10888],[0,0],[-3.36498,0.35808]],[[743.66034,372.69068],[3.2866,-0.80596],[-1.67994,0.41196]],[[738.52052,373.58382],[1.72782,-0.23842],[-2.1398,2.12798]],[[731.34906,379.4245],[2.7778,-1.68024],[0,0]],[[727.2331,378.39552],[1.54348,2.57248],[-0.17376,-0.2896]],[[726.85876,377.56654],[0.07898,0.2628],[-0.44428,0.3808]],[[725.57164,378.83744],[0.41316,-0.4683],[-1.76774,2.00362]],[[720.83116,385.30138],[1.29792,-2.33556],[-1.59298,2.86654]],[[722.58832,392.0604],[-1.46858,-2.22426],[4.02472,6.09572]],[[741.96954,398.63068],[-6.57796,-0.10316],[8.89216,0.7587]],[[768.70346,399.13568],[-8.92182,0],[5.08678,0]],[[784.95706,397.46382],[-4.73564,2.28636],[6.49252,-3.13458]],[[800.6138,377.71316],[-3.94294,5.57792],[3.9681,-5.61354]],[[805.51942,354.20368],[8.38036,6.02054],[-5.90912,-1.95302]],[[787.10326,353.90988],[6.0798,-0.43292],[-13.7333,0.97792]],[[747.05506,365.46528],[11.3776,-8.84956],[1.8944,-0.56874]],[[752.81012,364.14622],[-1.95784,0.22892],[0,0]],[752.31958,363.70962]],&quot;closed&quot;:true,&quot;fillColor&quot;:[0,0,0,1],&quot;strokeWidth&quot;:0.5}]}" fill="#ff9564" stroke="none" stroke-width="0.25"/><path d="M156.65801,321.58484v-277.04485h324.53826v277.04486z" fill="none" stroke="#000000" stroke-width="0"/></g></g></svg>