<svg version="1.1" xmlns="http://www.w3.org/2000/svg" xmlns:xlink="http://www.w3.org/1999/xlink" width="324.53826" height="277.04486" viewBox="0,0,324.53826,277.04486"><g transform="translate(-156.658,-44.53998)"><g data-paper-data="{&quot;isPaintingLayer&quot;:true}" fill-rule="nonzero" stroke-linecap="butt" stroke-linejoin="miter" stroke-miterlimit="10" stroke-dasharray="" stroke-dashoffset="0" style="mix-blend-mode: normal"><path d="M280.18266,128.30896c-0.20641,0.13669 -0.3809,0.19485 -0.3809,0.19485c-1.0805,0.33214 -1.91676,1.19932 -2.8901,1.77413c-0.87223,0.5151 -1.95692,0.60328 -2.81878,1.13554c-5.13683,3.17234 -9.48846,8.75241 -12.04644,14.16639c-0.78288,1.65698 -3.02268,5.84357 -2.63062,7.85102c0.53428,2.73565 3.0075,5.51823 4.85403,7.40574c1.36421,0.51747 2.54834,1.45134 3.92146,1.94469c5.68484,2.04252 12.34623,1.28444 18.14454,0.60263c2.20822,-0.25966 4.84021,-0.20129 6.86145,-1.31609c2.19719,-1.21185 2.71548,-2.6451 3.98377,-4.66511c0.92849,-1.47881 2.38553,-2.60247 3.2015,-4.14622c0.35213,-0.66621 1.61004,-4.73577 2.02696,-5.31762c0.9221,-1.28686 2.38885,-2.21977 3.00442,-3.67832c3.3486,-2.15799 5.73137,-5.59088 9.04615,-7.72026c6.23528,-4.00549 12.68276,-8.66057 19.83668,-10.88722c4.71343,-1.46705 9.70934,-1.05723 14.57488,-1.03746c0.97282,-0.19529 1.93409,-0.46132 2.91847,-0.58586c0.64698,-0.08186 1.97442,0.66246 1.9564,0.01056c-0.02471,-0.89394 -1.44589,-1.06147 -2.22978,-1.49188c-2.71282,-1.48952 -6.33713,-2.45404 -9.47637,-2.7296c-5.23155,-0.45922 -10.38357,-0.44784 -15.5033,0.31954c-4.56787,0.68466 -9.12581,0.21379 -13.73254,1.22562c-7.54549,1.64855 -15.38602,1.54242 -22.86409,2.98345c-3.56207,0.68642 -6.46846,2.90066 -9.75781,3.96148zM273.03996,128.52095c-0.46772,-1.41787 0.95088,-1.89074 0.95088,-1.89074l2.17896,-0.7059c4.81204,-0.03949 8.54043,-3.57496 13.29011,-4.53809c7.40779,-1.50213 15.21201,-1.31189 22.70352,-2.95289c4.67229,-1.01821 9.34231,-0.53571 13.95755,-1.26592c5.8427,-0.92441 12.49463,-1.20941 18.33225,0.14503c3.32032,0.77038 8.99097,1.16987 11.23679,4.27927c1.82018,2.5201 1.24761,4.09753 -1.31183,5.28378c-1.59114,0.73746 -3.491,0.38282 -5.21092,0.72555c-4.61736,0.01611 -9.48065,-0.49547 -13.95024,0.90743c-6.89738,2.16492 -13.01538,6.69694 -19.06121,10.50662c-3.13688,1.97665 -5.14146,5.4012 -8.45791,7.1906c-0.52265,1.39343 -1.9385,2.2615 -2.83026,3.45296c-1.07607,1.43772 -1.01846,3.47022 -1.86282,5.05515c-0.84547,1.58701 -2.32333,2.76003 -3.28148,4.28166c-1.51434,2.40489 -2.44693,4.27657 -5.0924,5.70766c-2.40532,1.30118 -5.32493,1.35191 -7.95387,1.66135c-6.2704,0.73807 -13.35082,1.42 -19.49374,-0.75756c-1.60116,-0.56758 -2.99678,-1.6126 -4.56497,-2.26577c-2.44268,-2.40374 -5.5828,-5.84241 -6.16704,-9.45001c-0.37623,-2.32316 0.9212,-4.6494 1.74047,-6.71544c2.89585,-7.30283 8.12944,-14.34786 14.84815,-18.65475z" fill="#000000" stroke="none" stroke-width="0.5"/><path d="M280.13813,128.28618c3.28935,-1.06082 6.20578,-3.2885 9.76785,-3.97492c7.47807,-1.44103 15.36768,-1.3465 22.91317,-2.99505c4.60673,-1.01183 9.18395,-0.5299 13.75182,-1.21456c5.11973,-0.76738 10.28036,-0.76834 15.51191,-0.30912c3.13924,0.27556 6.76701,1.24673 9.47983,2.73625c0.78389,0.43041 2.2059,0.60001 2.23061,1.49395c0.01802,0.6519 -1.40275,-0.05651 -2.04973,0.02535c-0.98438,0.12454 -1.94544,0.3911 -2.91826,0.58639c-4.86554,-0.01977 -9.85833,-0.42325 -14.57176,1.0438c-7.15392,2.22665 -13.51659,6.82883 -19.75187,10.83432c-3.31478,2.12938 -5.76029,5.63531 -9.10889,7.7933c-0.61557,1.45855 -2.03316,2.30474 -2.95526,3.5916c-0.41692,0.58185 -1.67911,4.64881 -2.03124,5.31502c-0.81597,1.54375 -2.32251,2.75427 -3.251,4.23308c-1.26829,2.02001 -1.78834,3.45215 -3.98553,4.664c-2.02124,1.1148 -4.6599,1.05117 -6.86812,1.31083c-5.79831,0.68181 -12.46938,1.42739 -18.15422,-0.61513c-1.37312,-0.49335 -2.55897,-1.43069 -3.92318,-1.94816c-1.84653,-1.88751 -4.3227,-4.67864 -4.85698,-7.41429c-0.39206,-2.00745 1.84646,-6.20179 2.62934,-7.85877c2.55798,-5.41398 6.91181,-11.01352 12.04864,-14.18586c0.86186,-0.53226 1.94757,-0.62332 2.8198,-1.13842c0.97334,-0.57481 1.81143,-1.44613 2.89193,-1.77827c0,0 0.17475,-0.05868 0.38116,-0.19537z" data-paper-data="{&quot;noHover&quot;:false,&quot;origItem&quot;:[&quot;Path&quot;,{&quot;applyMatrix&quot;:true,&quot;segments&quot;:[[[280.18266,128.30896],[0,0],[-0.20641,0.13669]],[[279.80176,128.50381],[0,0],[-1.0805,0.33214]],[[276.91166,130.27794],[0.97334,-0.57481],[-0.87223,0.5151]],[[274.09288,131.41348],[0.86186,-0.53226],[-5.13683,3.17234]],[[262.04644,145.57987],[2.55798,-5.41398],[-0.78288,1.65698]],[[259.41582,153.43089],[-0.39206,-2.00745],[0.53428,2.73565]],[[264.26985,160.83663],[-1.84653,-1.88751],[1.36421,0.51747]],[[268.19131,162.78132],[-1.37312,-0.49335],[5.68484,2.04252]],[[286.33585,163.38395],[-5.79831,0.68181],[2.20822,-0.25966]],[[293.1973,162.06786],[-2.02124,1.1148],[2.19719,-1.21185]],[[297.18107,157.40275],[-1.26829,2.02001],[0.92849,-1.47881]],[[300.38257,153.25653],[-0.81597,1.54375],[0.35213,-0.66621]],[[302.40953,147.93891],[-0.41692,0.58185],[0.9221,-1.28686]],[[305.41395,144.26059],[-0.61557,1.45855],[3.3486,-2.15799]],[[314.4601,136.54033],[-3.31478,2.12938],[6.23528,-4.00549]],[[334.29678,125.65311],[-7.15392,2.22665],[4.71343,-1.46705]],[[348.87166,124.61565],[-4.86554,-0.01977],[0.97282,-0.19529]],[[351.79013,124.02979],[-0.98438,0.12454],[0.64698,-0.08186]],[[353.74653,124.04035],[0.01802,0.6519],[-0.02471,-0.89394]],[[351.51675,122.54847],[0.78389,0.43041],[-2.71282,-1.48952]],[[342.04038,119.81887],[3.13924,0.27556],[-5.23155,-0.45922]],[[326.53708,120.13841],[5.11973,-0.76738],[-4.56787,0.68466]],[[312.80454,121.36403],[4.60673,-1.01183],[-7.54549,1.64855]],[[289.94045,124.34748],[7.47807,-1.44103],[-3.56207,0.68642]],[[280.18264,128.30896],[3.28935,-1.06082],[0,0]]],&quot;closed&quot;:true,&quot;fillColor&quot;:[0,0,0,1],&quot;strokeWidth&quot;:0.5}]}" fill="#fb7f5d" stroke="none" stroke-width="0.25"/><path d="M388.44492,173.75826c0,1.5 -1.5,1.5 -1.5,1.5l-0.06086,-0.11981c-2.60175,1.10642 -4.37046,2.36099 -7.24932,2.21339c0.80213,1.68448 -0.27819,3.7235 -0.50581,5.54967c-0.07297,0.58545 -0.14462,1.16512 -0.2126,1.74104c2.38753,-2.68191 4.29834,-5.90807 7.52198,-7.95432c3.48826,-2.21422 13.24617,-5.83299 15.83084,-0.58665c0.75327,1.52898 0.11418,3.40765 0.11418,5.11211c0,4.36148 -0.89775,6.58608 -2.73455,10.57376c-1.7711,3.80466 -6.04084,10.16554 -10.28462,11.59481c-2.07591,0.69914 -4.75785,-0.06221 -6.72841,-0.63114c-1.8539,-0.53525 -5.63763,-1.66293 -6.7206,-3.61847c-0.90707,-1.63791 -0.3498,-3.72947 -0.44201,-5.59951c-0.3065,-6.21617 1.00037,-12.08807 1.92621,-18.18206c3.17057,-0.66951 5.38127,-1.72554 8.30984,-2.973l1.23573,-0.11981c0,0 1.5,0 1.5,1.5zM378.49658,189.17991c-0.07793,1.38216 -0.09804,2.77417 -0.0271,4.20508c0.04971,1.00268 0.23644,1.99754 0.24967,3.00137c0.00563,0.42758 -0.40224,0.89503 -0.1934,1.26818c0.63159,1.12853 3.9144,1.92442 4.94877,2.21621c1.39637,0.3939 3.45835,1.14973 4.94096,0.66545c1.11347,-0.3637 1.83863,-1.45684 2.68841,-2.26305c2.28221,-2.16523 4.51408,-4.87015 5.82015,-7.74099c0.7954,-1.72623 1.90926,-3.31829 2.49943,-5.12502c0.43405,-1.32879 -0.04013,-2.79557 -0.04013,-4.19346c0,-1.3219 0.51279,-2.70369 0.11418,-3.96406c-0.30985,-0.97972 -2.4131,-0.74578 -3.05329,-0.69804c-2.49949,0.18638 -6.27301,1.30336 -8.42839,2.68839c-4.05251,2.6041 -5.96789,7.0315 -9.51926,9.93993z" fill="#000000" stroke="none" stroke-width="0.5"/><path d="M378.44666,189.18268c3.55137,-2.90843 5.51124,-7.38831 9.56375,-9.99241c2.15538,-1.38503 5.96053,-2.49489 8.46002,-2.68127c0.64019,-0.04774 2.75114,-0.27585 3.06099,0.70387c0.39861,1.26037 -0.10737,2.64988 -0.10737,3.97178c0,1.39789 0.48128,2.87904 0.04723,4.20783c-0.59017,1.80673 -1.70328,3.42539 -2.49868,5.15162c-1.30607,2.87084 -3.57606,5.61272 -5.85827,7.77795c-0.84978,0.80621 -1.58798,1.90038 -2.70145,2.26408c-1.48261,0.48428 -3.56411,-0.27664 -4.96048,-0.67054c-1.03437,-0.29179 -4.33293,-1.09988 -4.96452,-2.22841c-0.20884,-0.37315 0.197,-0.84311 0.19137,-1.27069c-0.01323,-1.00383 -0.2056,-2.00818 -0.25531,-3.01086c-0.07094,-1.43091 -0.05522,-2.84079 0.02271,-4.22295z" data-paper-data="{&quot;noHover&quot;:false,&quot;origItem&quot;:[&quot;Path&quot;,{&quot;applyMatrix&quot;:true,&quot;segments&quot;:[[[378.49658,189.17991],[0,0],[-0.07793,1.38216]],[[378.46948,193.38499],[-0.07094,-1.43091],[0.04971,1.00268]],[[378.71915,196.38636],[-0.01323,-1.00383],[0.00563,0.42758]],[[378.52575,197.65454],[-0.20884,-0.37315],[0.63159,1.12853]],[[383.47452,199.87075],[-1.03437,-0.29179],[1.39637,0.3939]],[[388.41548,200.5362],[-1.48261,0.48428],[1.11347,-0.3637]],[[391.10389,198.27315],[-0.84978,0.80621],[2.28221,-2.16523]],[[396.92404,190.53216],[-1.30607,2.87084],[0.7954,-1.72623]],[[399.42347,185.40714],[-0.59017,1.80673],[0.43405,-1.32879]],[[399.38334,181.21368],[0,1.39789],[0,-1.3219]],[[399.49752,177.24962],[0.39861,1.26037],[-0.30985,-0.97972]],[[396.44423,176.55158],[0.64019,-0.04774],[-2.49949,0.18638]],[[388.01584,179.23997],[2.15538,-1.38503],[-4.05251,2.6041]],[[378.49658,189.1799],[3.55137,-2.90843],[0,0]]],&quot;closed&quot;:true,&quot;fillColor&quot;:[0,0,0,1],&quot;strokeWidth&quot;:0.5}]}" fill="#fb7f5d" stroke="none" stroke-width="0.25"/><path d="M347.76793,202.90916c0.14074,0.28149 0.1929,0.53345 0.18745,0.75588c9.94172,0.5272 20.11965,-1.51339 30.0371,-0.6075c1.72699,0.15775 3.28198,1.12192 4.91623,1.70208c1.82617,0.64829 3.78578,0.82982 5.67745,1.25027c2.60979,0.66474 4.56235,0.40999 7.21713,0.61195c3.57115,0.27167 7.0374,1.26084 10.55643,1.84074c3.15114,0.51928 3.47442,0.0102 6.29509,1.93921c2.38727,1.63263 3.84846,4.01072 6.42435,5.46148c1.11689,0.62905 2.82982,0.68447 3.37403,1.84506c1.62873,3.47346 -1.42908,5.08013 -3.5545,6.34545c-2.64739,1.57607 -4.90881,1.99831 -7.69978,2.07956l-0.01485,0.013c0.97152,0.79639 1.38335,1.63841 3.24337,2.17444c6.07084,1.74953 13.46513,-0.06838 19.72718,1.00221c5.02614,0.85929 9.55581,3.27613 14.70281,3.22699c1.84822,0 4.05445,-0.33239 5.79864,0.45479c1.58712,0.7163 1.83794,1.46909 2.83334,2.70796c0.29506,0.36723 2.74174,3.14411 2.86971,3.79966c0.6793,3.47982 -2.12658,7.70093 -4.32142,10.08376c-3.92465,4.26082 -12.47018,6.23022 -17.95805,4.69876c-1.7572,-0.49037 -3.44297,-1.23705 -5.22407,-1.63185c-5.28228,-2.09682 -10.59906,-4.13897 -15.53544,-7.09486c-1.50931,-0.90377 -2.73876,-2.28007 -4.34732,-2.99236c-2.31076,-1.02323 -4.81569,0.17662 -7.27509,-1.03838c-4.39077,-2.16914 -6.46718,-7.35154 -9.74759,-10.62382c-0.96934,-0.96694 -2.23853,-1.59796 -3.20958,-2.56318c-2.13621,-1.80351 -3.67657,-3.90559 -5.59012,-5.91299c-0.25957,-0.2723 -0.21235,-0.82291 -0.55218,-0.98429c-0.3788,-0.17989 -0.84376,0.22557 -1.25152,0.12773c-3.42486,-0.82176 -8.87316,-1.82535 -12.28073,0.17729c-1.13344,0.66613 -2.05332,1.83248 -3.34147,2.09532c-3.05938,0.62425 -6.87057,0.02707 -10.00813,0.02707c-0.83667,0 -1.84239,-0.70884 -2.50244,-0.1947c-0.4626,0.36033 -0.56495,1.02771 -0.84742,1.54157c-0.23079,0.0597 -0.46085,0.12344 -0.68987,0.19134c3.72382,0.00402 7.4354,0.05159 11.15358,-0.19662c1.02233,-0.06825 4.49005,-0.44201 5.0358,0.38426c1.67745,2.53969 -0.97268,6.89086 -1.84424,9.03769c-0.78329,1.92941 -0.44946,3.55192 -2.13868,5.0292c-4.66737,4.08178 -11.0004,2.09771 -15.85809,4.83761c-0.97441,1.72683 -2.11418,2.88471 -2.47485,4.95052c-0.25926,1.48497 0.42576,3.37583 -0.52088,4.77449c-2.71337,4.00903 -7.57431,2.99687 -11.54322,4.25627c-5.20956,1.65308 -9.02733,5.44533 -13.68171,7.99368c-2.6505,1.45119 -4.93833,3.07127 -7.41629,5.0477c-0.57671,0.31379 -4.39526,2.66652 -5.41482,2.19845c-1.19942,-0.55065 -1.67644,-2.03999 -2.46726,-3.0966c-0.99589,-1.3306 -1.38467,-3.0258 -1.95312,-4.58758c-1.22756,-3.37265 -2.81399,-6.46986 -2.12587,-10.19605c0.39449,-2.13618 1.83705,-6.60741 3.2074,-8.45174c1.26156,-1.6979 3.5024,-2.97245 4.93074,-4.62113c2.88071,-3.32508 5.36948,-6.87307 7.55086,-10.67781c0.83335,-2.0893 2.59411,-3.99385 1.13744,-5.88458c-0.41101,-0.53348 -0.66032,-1.58595 -1.5762,-1.37159c-2.37938,0.55687 -1.79043,2.91466 -4.33808,3.53101c-1.15019,0.27826 -2.42783,-1.19909 -3.48632,-0.66996c-0.52406,0.26197 -0.76554,0.8815 -1.12892,1.34678l-1.38179,2.48722c-0.25189,0.47454 -0.75109,0.79773 -1.32579,0.79773c-0.71518,0 -1.31346,-0.50051 -1.46367,-1.17037l-0.48048,-1.94388l0.36142,-0.08933c-0.24994,-0.83143 -0.40349,-1.6827 -0.40525,-2.53964c-0.004,-1.9527 -0.37939,-4.78329 0.41939,-6.68482c2.52757,-6.01694 10.37105,-7.698 15.68307,-10.23445c1.11411,-0.53198 2.47227,-0.4166 3.57296,-0.97583c0.71839,-0.36499 1.14019,-1.16848 1.84016,-1.56766c1.55837,-0.88872 3.49889,-0.89275 5.16261,-1.35589c1.79109,-0.4986 3.3472,-1.71615 5.14164,-2.32237c2.74865,-0.91209 5.04633,-1.04942 7.92977,-1.04942l-0.02252,-0.16579c0,0 1.34164,-0.67082 2.01246,0.67082zM341.20986,205.68827c-0.77706,0.13319 -1.56643,0.32776 -2.41297,0.61133c-6.35222,2.08395 -11.97069,5.00455 -18.09917,7.52972c-3.2754,1.34959 -8.04105,2.41029 -10.42407,5.33007c-1.53508,1.88086 -0.91236,4.6961 -0.93808,7.02012c0.48718,-0.54393 0.99286,-1.05936 1.64793,-1.34474c1.94626,-0.84789 2.05284,0.77879 3.64496,0.62664c0.92777,-0.08866 0.88647,-1.71473 1.63799,-2.26594c0.90718,-0.66537 1.98616,-1.17686 3.10011,-1.33434c3.27028,-0.46232 6.07444,3.81997 5.50855,6.68343c-0.34113,1.72613 -1.40252,3.22799 -2.05753,4.86104c-2.30926,4.05359 -4.94149,7.83022 -8.00829,11.36433c-1.38236,1.593 -3.57364,2.85175 -4.79373,4.45505c-1.09515,1.43913 -2.31353,5.42452 -2.62729,7.10742c-0.59268,3.17893 0.94879,5.82746 1.98473,8.69232c0.48665,1.34582 1.30401,4.72184 2.49009,5.84236c0.19064,0.1801 0.31752,-0.43235 0.53846,-0.57365c0.74312,-0.47527 1.55165,-0.83954 2.32747,-1.25931c2.53545,-2.03474 4.89047,-3.68868 7.64169,-5.18346c4.82358,-2.62072 8.77524,-6.54235 14.19511,-8.21378c2.55626,-0.78832 8.20086,-0.32544 9.85062,-2.87501c0.68813,-1.06345 -0.07092,-2.55339 0.17495,-3.79597c0.55393,-2.79939 1.88033,-4.29261 3.31231,-6.57626c4.83991,-3.00571 11.31511,-1.18059 15.90852,-4.88686c0.81779,-0.65985 1.31543,-3.70589 1.43044,-3.98842c0.60552,-1.48739 2.38234,-4.1543 2.36622,-5.93173c-0.00279,-0.30703 -0.46814,0.4379 -0.76634,0.51108c-0.58807,0.14433 -1.20831,0.0815 -1.81249,0.12183c-1.0144,0.06772 -2.02717,0.16844 -3.04327,0.20232c-4.10053,0.13671 -8.30341,0.47638 -12.22909,-0.42451l-0.06749,0.40493l-1.92057,-0.3201c-0.72302,-0.1074 -1.27772,-0.73074 -1.27772,-1.48364c0,-0.52892 0.27376,-0.9939 0.68731,-1.26098l1.92554,-1.28369l0.01439,0.02158l0.06477,-0.07087c1.09508,-0.5418 2.23945,-1.0969 3.45446,-1.22535c2.5397,-3.93385 10.33131,-1.25536 14.51882,-1.86756c1.01318,-0.14812 1.58972,-1.31263 2.49322,-1.79447c4.13103,-2.20314 10.15724,-1.54102 14.2995,-0.471c0.64356,0.16624 1.39865,-0.17585 1.98997,0.12773c2.81775,1.4466 4.39853,5.37427 6.82367,7.36529c0.98547,0.99197 2.28575,1.63341 3.27341,2.6232c3.03578,3.04236 5.03425,8.07402 9.05306,10.12173c2.2005,1.12122 4.69599,-0.04597 6.98747,0.90652c0.60831,0.25285 4.26124,2.89243 4.78786,3.21013c4.73859,2.85866 9.82767,4.76303 14.87557,6.7999c6.51642,1.45171 14.72007,3.77674 20.16715,-2.31356c1.38468,-1.54819 3.90324,-4.90033 3.54487,-7.2262c-0.17995,-1.16789 -1.58061,-1.75889 -2.31667,-2.68332c-1.88617,-2.36886 -3.323,-2.02364 -6.27888,-2.02364c-6.67142,-0.0515 -12.99193,-2.9311 -19.61262,-3.89875c-5.06464,-0.74022 -10.72471,1.17677 -15.67712,-0.45629c-2.59391,-0.85535 -3.71527,-2.01628 -4.697,-3.65951l-1.65598,-1.89255c-0.23393,-0.26455 -0.37592,-0.61231 -0.37592,-0.99323c0,-0.82843 0.67157,-1.5 1.5,-1.5h1.62075c3.00054,0 4.71275,-0.25968 7.46236,-1.7072c0.98202,-0.51698 3.15978,-1.53329 2.38258,-2.3255c-0.98315,-1.00214 -2.70733,-0.87073 -3.8748,-1.65041c-1.92184,-1.28348 -3.14592,-3.29013 -4.9978,-4.60886c-2.07831,-1.47998 -2.57872,-1.03566 -5.05454,-1.43416c-3.43041,-0.55215 -6.80775,-1.54321 -10.28671,-1.80925c-2.77716,-0.21237 -4.93756,-0.00707 -7.69373,-0.68465c-0.24207,-0.05378 -5.87321,-1.30125 -5.99192,-1.34292c-1.39511,-0.48966 -2.68533,-1.43153 -4.15994,-1.53941c-11.84235,-0.86633 -24.03292,1.91299 -35.77928,-0.0153c0,0 -0.40498,-0.0675 -0.75588,-0.34374z" fill="#000000" stroke="none" stroke-width="0.5"/><path d="M341.17066,205.6572c0.3509,0.27624 0.756,0.34359 0.756,0.34359c11.74636,1.92829 23.9689,-0.86933 35.81125,-0.003c1.47461,0.10788 2.77117,1.04925 4.16628,1.53891c0.11871,0.04167 5.75986,1.29 6.00193,1.34378c2.75617,0.67758 4.92825,0.47601 7.70541,0.68838c3.47896,0.26604 6.86829,1.26488 10.2987,1.81703c2.47582,0.3985 2.98065,-0.04144 5.05896,1.43854c1.85188,1.31873 3.0811,3.33227 5.00294,4.61575c1.16747,0.77968 2.89367,0.65184 3.87682,1.65398c0.7772,0.79221 -1.49012,1.85298 -2.47214,2.36996c-2.74961,1.44752 -4.46059,1.7096 -7.46113,1.7096l-1.62011,0.00113c-0.82843,0 -1.41314,0.62203 -1.41314,1.45046c0,0.38092 0.14288,0.73034 0.37681,0.99489l1.65775,1.89643c0.98173,1.64323 2.10552,2.81187 4.69943,3.66722c4.95241,1.63306 10.61323,-0.27985 15.67787,0.46037c6.62069,0.96765 12.94165,3.8522 19.61307,3.9037c2.95588,0 4.39275,-0.34365 6.27892,2.02521c0.73606,0.92443 2.13671,1.51723 2.31666,2.68512c0.35837,2.32587 -2.16058,5.68307 -3.54526,7.23126c-5.44708,6.0903 -13.74911,3.74797 -20.26553,2.29626c-5.0479,-2.03687 -10.13778,-3.9367 -14.87637,-6.79536c-0.52662,-0.3177 -4.1799,-2.95324 -4.78821,-3.20609c-2.29148,-0.95249 -4.78701,0.21587 -6.98751,-0.90535c-4.01881,-2.04771 -6.01,-7.05219 -9.04578,-10.09455c-0.98766,-0.98979 -2.28092,-1.62221 -3.26639,-2.61418c-2.42514,-1.99102 -3.98394,-5.90563 -6.80169,-7.35223c-0.59132,-0.30358 -1.34165,0.03962 -1.98521,-0.12662c-4.14226,-1.07002 -10.13512,-1.73769 -14.26615,0.46545c-0.9035,0.48184 -1.47418,1.64251 -2.48736,1.79063c-4.18751,0.6122 -11.96574,-2.08168 -14.50544,1.85217c-1.21501,0.12845 -2.35756,0.67997 -3.45264,1.22177l-0.06471,0.07075l-0.0144,-0.02156l-1.92447,1.28115c-0.41355,0.26708 -0.68662,0.73019 -0.68662,1.25911c0,0.7529 0.55515,1.37487 1.27817,1.48227l1.82527,0.2898l0.06769,-0.40553c3.92568,0.90089 8.1319,0.5535 12.23243,0.41679c1.0161,-0.03388 2.03113,-0.13839 3.04553,-0.20611c0.60418,-0.04033 1.22628,0.01985 1.81435,-0.12448c0.2982,-0.07318 0.84177,-0.75587 0.84456,-0.44884c0.01612,1.77743 -1.75132,4.42726 -2.35684,5.91465c-0.11501,0.28253 -0.61038,3.31589 -1.42817,3.97574c-4.59341,3.70627 -11.06895,1.87251 -15.90886,4.87822c-1.43198,2.28365 -2.76007,3.76884 -3.314,6.56823c-0.24587,1.24258 0.51165,2.72815 -0.17648,3.7916c-1.64976,2.54957 -7.29398,2.08765 -9.85024,2.87597c-5.41987,1.67143 -9.37229,5.59117 -14.19587,8.21189c-2.75122,1.49478 -5.10672,3.14763 -7.64217,5.18237c-0.77582,0.41977 -1.5844,0.78393 -2.32752,1.2592c-0.22094,0.1413 -0.43868,0.79551 -0.62932,0.61541c-1.18608,-1.12052 -2.005,-4.50032 -2.49165,-5.84614c-1.03594,-2.86486 -2.57907,-5.51889 -1.98639,-8.69782c0.31376,-1.6829 1.53131,-5.67252 2.62646,-7.11165c1.22009,-1.6033 3.41104,-2.86475 4.7934,-4.45775c3.0668,-3.53411 5.69897,-7.3196 8.00823,-11.37319c0.65501,-1.63305 1.71694,-3.13918 2.05807,-4.86531c0.56589,-2.86346 -2.23736,-7.15001 -5.50764,-6.68769c-1.11395,0.15748 -2.0958,0.69272 -3.00298,1.35809c-0.75152,0.55121 -0.70984,2.17545 -1.63761,2.26411c-1.59212,0.15215 -1.69869,-1.47457 -3.64495,-0.62668c-0.65507,0.28538 -1.25921,0.78336 -1.74639,1.32729c0.02572,-2.32402 -0.596,-5.1439 0.93908,-7.02476c2.38302,-2.91978 7.15052,-3.98609 10.42592,-5.33568c6.12848,-2.52517 11.75312,-5.45693 18.10534,-7.54088c0.84654,-0.28357 1.63702,-0.47959 2.41408,-0.61278z" data-paper-data="{&quot;noHover&quot;:false,&quot;origItem&quot;:[&quot;Path&quot;,{&quot;applyMatrix&quot;:true,&quot;segments&quot;:[[[341.20986,205.68827],[0,0],[-0.77706,0.13319]],[[338.79689,206.2996],[0.84654,-0.28357],[-6.35222,2.08395]],[[320.69772,213.82932],[6.12848,-2.52517],[-3.2754,1.34959]],[[310.27365,219.15939],[2.38302,-2.91978],[-1.53508,1.88086]],[[309.33557,226.17951],[0.02572,-2.32402],[0.48718,-0.54393]],[[310.9835,224.83477],[-0.65507,0.28538],[1.94626,-0.84789]],[[314.62846,225.46141],[-1.59212,0.15215],[0.92777,-0.08866]],[[316.26645,223.19547],[-0.75152,0.55121],[0.90718,-0.66537]],[[319.36656,221.86113],[-1.11395,0.15748],[3.27028,-0.46232]],[[324.87511,228.54456],[0.56589,-2.86346],[-0.34113,1.72613]],[[322.81758,233.4056],[0.65501,-1.63305],[-2.30926,4.05359]],[[314.80929,244.76993],[3.0668,-3.53411],[-1.38236,1.593]],[[310.01556,249.22498],[1.22009,-1.6033],[-1.09515,1.43913]],[[307.38827,256.3324],[0.31376,-1.6829],[-0.59268,3.17893]],[[309.373,265.02472],[-1.03594,-2.86486],[0.48665,1.34582]],[[311.86309,270.86708],[-1.18608,-1.12052],[0.19064,0.1801]],[[312.40155,270.29343],[-0.22094,0.1413],[0.74312,-0.47527]],[[314.72902,269.03412],[-0.77582,0.41977],[2.53545,-2.03474]],[[322.37071,263.85066],[-2.75122,1.49478],[4.82358,-2.62072]],[[336.56582,255.63688],[-5.41987,1.67143],[2.55626,-0.78832]],[[346.41644,252.76187],[-1.64976,2.54957],[0.68813,-1.06345]],[[346.59139,248.9659],[-0.24587,1.24258],[0.55393,-2.79939]],[[349.9037,242.38964],[-1.43198,2.28365],[4.83991,-3.00571]],[[365.81222,237.50278],[-4.59341,3.70627],[0.81779,-0.65985]],[[367.24266,233.51436],[-0.11501,0.28253],[0.60552,-1.48739]],[[369.60888,227.58263],[0.01612,1.77743],[-0.00279,-0.30703]],[[368.84254,228.09371],[0.2982,-0.07318],[-0.58807,0.14433]],[[367.03005,228.21554],[0.60418,-0.04033],[-1.0144,0.06772]],[[363.98678,228.41786],[1.0161,-0.03388],[-4.10053,0.13671]],[[351.75769,227.99335],[3.92568,0.90089],[0,0]],[351.6902,228.39828],[[349.76963,228.07818],[0,0],[-0.72302,-0.1074]],[[348.49191,226.59454],[0,0.7529],[0,-0.52892]],[[349.17922,225.33356],[-0.41355,0.26708],[0,0]],[351.10476,224.04987],[351.11915,224.07145],[[351.18392,224.00058],[0,0],[1.09508,-0.5418]],[[354.63838,222.77523],[-1.21501,0.12845],[2.5397,-3.93385]],[[369.1572,220.90767],[-4.18751,0.6122],[1.01318,-0.14812]],[[371.65042,219.1132],[-0.9035,0.48184],[4.13103,-2.20314]],[[385.94992,218.6422],[-4.14226,-1.07002],[0.64356,0.16624]],[[387.93989,218.76993],[-0.59132,-0.30358],[2.81775,1.4466]],[[394.76356,226.13522],[-2.42514,-1.99102],[0.98547,0.99197]],[[398.03697,228.75842],[-0.98766,-0.98979],[3.03578,3.04236]],[[407.09003,238.88015],[-4.01881,-2.04771],[2.2005,1.12122]],[[414.0775,239.78667],[-2.29148,-0.95249],[0.60831,0.25285]],[[418.86536,242.9968],[-0.52662,-0.3177],[4.73859,2.85866]],[[433.74093,249.7967],[-5.0479,-2.03687],[6.51642,1.45171]],[[453.90808,247.48314],[-5.44708,6.0903],[1.38468,-1.54819]],[[457.45295,240.25694],[0.35837,2.32587],[-0.17995,-1.16789]],[[455.13628,237.57362],[0.73606,0.92443],[-1.88617,-2.36886]],[[448.8574,235.54998],[2.95588,0],[-6.67142,-0.0515]],[[429.24478,231.65123],[6.62069,0.96765],[-5.06464,-0.74022]],[[413.56766,231.19494],[4.95241,1.63306],[-2.59391,-0.85535]],[[408.87066,227.53543],[0.98173,1.64323],[0,0]],[[407.21468,225.64288],[0,0],[-0.23393,-0.26455]],[[406.83876,224.64965],[0,0.38092],[0,-0.82843]],[[408.33876,223.14965],[-0.82843,0],[0,0]],[[409.95951,223.14965],[0,0],[3.00054,0]],[[417.42187,221.44245],[-2.74961,1.44752],[0.98202,-0.51698]],[[419.80445,219.11695],[0.7772,0.79221],[-0.98315,-1.00214]],[[415.92965,217.46654],[1.16747,0.77968],[-1.92184,-1.28348]],[[410.93185,212.85768],[1.85188,1.31873],[-2.07831,-1.47998]],[[405.87731,211.42352],[2.47582,0.3985],[-3.43041,-0.55215]],[[395.5906,209.61427],[3.47896,0.26604],[-2.77716,-0.21237]],[[387.89687,208.92962],[2.75617,0.67758],[-0.24207,-0.05378]],[[381.90495,207.5867],[0.11871,0.04167],[-1.39511,-0.48966]],[[377.74501,206.04729],[1.47461,0.10788],[-11.84235,-0.86633]],[[341.96573,206.03199],[11.74636,1.92829],[0,0]],[[341.20985,205.68825],[0.3509,0.27624],[0,0]]],&quot;closed&quot;:true,&quot;fillColor&quot;:[0,0,0,1],&quot;strokeWidth&quot;:0.5}]}" fill="#ffef7f" stroke="none" stroke-width="0.25"/><path d="M262.62154,225.59214c-0.01258,-0.0629 -0.02193,-0.12365 -0.02831,-0.18232c-5.37453,-1.69016 -10.80912,-2.65285 -16.51229,-3.48533c-1.31612,-0.19211 -2.68017,0.21434 -3.99018,-0.01583c-2.19944,-0.38644 -4.85533,-0.75287 -7.21226,-0.32415c-2.15321,0.39166 -3.17238,2.8599 -4.74419,4.13637c-0.46079,0.55451 -3.53875,3.72998 -1.8298,4.81797c0.62636,0.39877 1.46762,-0.2319 2.21357,-0.25021l1.48318,-0.29664c0.10451,-0.02305 0.21311,-0.0352 0.32455,-0.0352c0.82843,0 1.5,0.67157 1.5,1.5c0,0.51041 -0.25493,0.96128 -0.64441,1.23222l-2.25278,1.60913l-0.02376,-0.03327c-0.07145,0.05987 -0.14447,0.11809 -0.21923,0.17448c-0.70676,0.53314 -1.75633,0.30986 -2.5774,0.6409c-1.72491,0.69543 -3.1208,2.79964 -4.33482,3.93831c-0.10674,0.10012 0.30267,-0.01866 0.43734,0.03864c0.67788,0.28838 1.26706,0.79061 1.9767,0.98835c2.0921,0.58296 5.56244,-0.69935 7.57582,-1.00134c6.60765,-0.99108 13.0438,-0.59896 19.62729,-2.24374c0.82977,-0.16603 6.08673,-1.47048 6.70601,-0.42146c0.74577,1.26328 -0.65299,2.86324 -1.08578,4.26493c-1.23674,4.00545 -4.10516,7.69758 -6.17784,11.30464c-0.83625,1.45532 -1.23474,3.12166 -1.83716,4.6883c-0.24098,0.62669 -1.74308,1.35573 -1.14362,1.65813c3.79626,1.91507 9.15587,4.29226 12.40963,0.11549c0.98898,-1.26952 1.1449,-2.39409 1.67074,-3.98795c1.41696,-4.92997 1.69516,-10.01477 3.10738,-14.91719c0.65195,-2.26317 -0.05692,-4.08628 1.85634,-5.89675c2.87623,-2.72172 4.93285,-1.58265 8.20259,-2.32815c1.55311,-0.35411 3.01878,-1.08883 4.59677,-1.30669c0.71411,-0.09859 4.2697,-1.30972 2.94626,-2.76283c-0.74389,-0.81678 -2.15781,-0.47692 -3.22871,-0.74836c-4.18313,0.01356 -8.33202,0.02459 -12.51113,0.01489c-0.62243,1.00883 -1.8011,0.53737 -1.8011,0.53737c-0.45223,-0.18104 -0.90447,-0.35571 -1.35685,-0.52435l-1.35753,0.27836c0,0 -1.47087,0.29417 -1.76505,-1.1767zM266.24425,223.47849c5.19463,-0.01873 10.35405,-0.00685 15.53549,0.00656c3.28798,0.81279 8.64725,2.84095 4.87132,7.29611c-3.80653,4.49126 -11.39953,1.59955 -15.69314,5.0068c-1.04541,0.8296 -0.66435,3.23952 -1.03342,4.54156c-1.39588,4.9245 -1.70549,10.02887 -3.12656,14.98158c-1.70186,5.06002 -4.93977,9.48806 -11.05558,8.4195c-1.95606,-0.34176 -3.33043,-1.34568 -5.06107,-2.24911c-1.14859,-0.59959 -2.72416,-0.69596 -3.46696,-1.75756c-1.10744,-1.58273 0.55108,-3.03993 1.02209,-4.26428c1.64834,-4.28475 3.90874,-7.906 6.05679,-11.97165c0.52169,-0.9874 1.10718,-2.87752 2.04115,-4.13975c-0.74229,0.19072 -1.5312,0.22832 -2.28564,0.37914c-6.68515,1.67243 -13.22941,1.23705 -19.9189,2.29435c-3.78559,0.59833 -8.50507,2.28043 -11.84132,-0.66128c-2.75051,-2.42525 -1.39286,-2.58747 0.12526,-4.6958c1.12623,-1.56409 2.36373,-3.02244 3.87194,-3.90832c-3.20783,-2.75437 -0.1094,-6.95332 1.74861,-9.17787c2.24861,-1.76888 3.16058,-4.28099 6.27688,-4.93981c2.64903,-0.56004 5.85985,-0.14509 8.3469,0.32415c1.24125,0.23419 2.53848,-0.1911 3.7894,-0.01583c6.84955,0.95975 13.35654,2.19529 19.79676,4.53152z" fill="#000000" stroke="none" stroke-width="0.5"/><path d="M262.6451,225.54807c0.29418,1.47087 1.77021,1.17988 1.77021,1.17988l1.35959,-0.27683c0.45238,0.16864 0.90743,0.34568 1.35966,0.52672c0,0 1.18038,0.47309 1.80281,-0.53574c4.17911,0.0097 8.33668,0.01032 12.51981,-0.00324c1.0709,0.27144 2.48629,-0.06547 3.23018,0.75131c1.32344,1.45311 -2.32396,2.70381 -3.03807,2.8024c-1.57799,0.21786 -3.04326,0.95354 -4.59637,1.30765c-3.26974,0.7455 -5.23592,-0.4361 -8.11215,2.28562c-1.91326,1.81047 -1.19927,3.65029 -1.85122,5.91346c-1.41222,4.90242 -1.7109,10.03392 -3.12786,14.96389c-0.52584,1.59386 -0.69015,2.72329 -1.67913,3.99281c-3.25376,4.17677 -8.64674,1.80247 -12.443,-0.1126c-0.59946,-0.3024 0.92576,-1.12871 1.16674,-1.7554c0.60242,-1.56664 0.99728,-3.23362 1.83353,-4.68894c2.07268,-3.60706 4.88442,-7.24523 6.12116,-11.25068c0.43279,-1.40169 1.84257,-2.97452 1.0968,-4.2378c-0.61928,-1.04902 -5.82652,0.27266 -6.65629,0.43869c-6.58349,1.64478 -12.98081,1.20874 -19.58846,2.19982c-2.01338,0.30199 -5.58345,1.57763 -7.67555,0.99467c-0.70964,-0.19774 -1.29874,-0.70149 -1.97662,-0.98987c-0.13467,-0.0573 -0.54408,0.06146 -0.43734,-0.03866c1.21402,-1.13867 2.61105,-3.25066 4.33596,-3.94609c0.82107,-0.33104 1.87124,-0.11012 2.578,-0.64326c0.07476,-0.05639 0.14791,-0.11506 0.21936,-0.17493l0.02375,0.03332l2.25432,-1.61365c0.38948,-0.27094 0.64562,-0.72461 0.64562,-1.23502c0,-0.82843 -0.58164,-1.4563 -1.41007,-1.4563c-0.11144,0 -0.21988,0.01183 -0.32439,0.03488l-1.48242,0.29504c-0.74595,0.01831 -1.67913,0.60966 -2.30549,0.21089c-1.70895,-1.08799 1.37313,-4.27149 1.83392,-4.826c1.57181,-1.27647 2.59787,-3.75331 4.75108,-4.14497c2.35693,-0.42872 5.02122,-0.06904 7.22066,0.3174c1.31001,0.23017 2.68118,-0.18007 3.9973,0.01204c5.70317,0.83248 11.1809,1.79684 16.55543,3.487c0.00638,0.05867 0.01601,0.11957 0.02859,0.18247z" data-paper-data="{&quot;noHover&quot;:false,&quot;origItem&quot;:[&quot;Path&quot;,{&quot;applyMatrix&quot;:true,&quot;segments&quot;:[[[262.62154,225.59214],[0,0],[-0.01258,-0.0629]],[[262.59323,225.40982],[0.00638,0.05867],[-5.37453,-1.69016]],[[246.08094,221.92449],[5.70317,0.83248],[-1.31612,-0.19211]],[[242.09076,221.90866],[1.31001,0.23017],[-2.19944,-0.38644]],[[234.8785,221.58451],[2.35693,-0.42872],[-2.15321,0.39166]],[[230.13431,225.72088],[1.57181,-1.27647],[-0.46079,0.55451]],[[228.30451,230.53885],[-1.70895,-1.08799],[0.62636,0.39877]],[[230.51808,230.28864],[-0.74595,0.01831],[0,0]],[[232.00126,229.992],[0,0],[0.10451,-0.02305]],[[232.32581,229.9568],[-0.11144,0],[0.82843,0]],[[233.82581,231.4568],[0,-0.82843],[0,0.51041]],[[233.1814,232.68902],[0.38948,-0.27094],[0,0]],[230.92862,234.29815],[[230.90486,234.26488],[0,0],[-0.07145,0.05987]],[[230.68563,234.43936],[0.07476,-0.05639],[-0.70676,0.53314]],[[228.10823,235.08026],[0.82107,-0.33104],[-1.72491,0.69543]],[[223.77341,239.01857],[1.21402,-1.13867],[-0.10674,0.10012]],[[224.21075,239.05721],[-0.13467,-0.0573],[0.67788,0.28838]],[[226.18745,240.04556],[-0.70964,-0.19774],[2.0921,0.58296]],[[233.76327,239.04422],[-2.01338,0.30199],[6.60765,-0.99108]],[[253.39056,236.80048],[-6.58349,1.64478],[0.82977,-0.16603]],[[260.09657,236.37902],[-0.61928,-1.04902],[0.74577,1.26328]],[[259.01079,240.64395],[0.43279,-1.40169],[-1.23674,4.00545]],[[252.83295,251.94859],[2.07268,-3.60706],[-0.83625,1.45532]],[[250.99579,256.63689],[0.60242,-1.56664],[-0.24098,0.62669]],[[249.85217,258.29502],[-0.59946,-0.3024],[3.79626,1.91507]],[[262.2618,258.41051],[-3.25376,4.17677],[0.98898,-1.26952]],[[263.93254,254.42256],[-0.52584,1.59386],[1.41696,-4.92997]],[[267.03992,239.50537],[-1.41222,4.90242],[0.65195,-2.26317]],[[268.89626,233.60862],[-1.91326,1.81047],[2.87623,-2.72172]],[[277.09885,231.28047],[-3.26974,0.7455],[1.55311,-0.35411]],[[281.69562,229.97378],[-1.57799,0.21786],[0.71411,-0.09859]],[[284.64188,227.21095],[1.32344,1.45311],[-0.74389,-0.81678]],[[281.41317,226.46259],[1.0709,0.27144],[-4.18313,0.01356]],[[268.90204,226.47748],[4.17911,0.0097],[-0.62243,1.00883]],[[267.10094,227.01485],[0,0],[-0.45223,-0.18104]],[[265.74409,226.4905],[0.45238,0.16864],[0,0]],[264.38656,226.76886],[[262.62151,225.59216],[0.29418,1.47087],[0,0]]],&quot;closed&quot;:true,&quot;fillColor&quot;:[0,0,0,1],&quot;strokeWidth&quot;:0.5}]}" fill="#ffef7f" stroke="none" stroke-width="0.25"/><path d="M156.65801,321.58484v-277.04485h324.53826v277.04486z" fill="none" stroke="#000000" stroke-width="0"/></g></g></svg>