<svg version="1.1" xmlns="http://www.w3.org/2000/svg" xmlns:xlink="http://www.w3.org/1999/xlink" width="324.53826" height="277.04486" viewBox="0,0,324.53826,277.04486"><g transform="translate(-156.658,-44.53998)"><g data-paper-data="{&quot;isPaintingLayer&quot;:true}" fill-rule="nonzero" stroke-linecap="butt" stroke-linejoin="miter" stroke-miterlimit="10" stroke-dasharray="" stroke-dashoffset="0" style="mix-blend-mode: normal"><path d="M312.74753,119.00259c0.06532,-0.03766 0.13048,-0.0751 0.19548,-0.11234c0,0 1.30236,-0.74421 2.04657,0.55816c0.74421,1.30236 -0.55816,2.04657 -0.55816,2.04657c-3.80788,2.17013 -7.90894,5.02524 -10.52315,8.61471c-0.71612,0.98328 -0.30156,2.45181 -0.80417,3.55953c-1.04353,2.29989 -3.20212,3.92444 -4.96141,5.48105c-1.35038,1.19481 -1.99139,2.57416 -3.89294,2.55548c0.31855,0.05372 0.655,0.13608 0.81425,0.2492c0.74745,0.53094 1.17504,1.447 1.94489,1.94489c1.47261,0.95239 3.222,1.54991 4.45803,2.79405c0.66218,0.74583 1.62642,1.3074 1.98655,2.23748c0.80213,2.07159 -0.67724,4.75114 -2.19002,5.87312c-3.77945,2.80311 -9.50991,2.66922 -13.95008,4.27001c-0.19839,0.07153 -5.51913,2.07681 -5.6694,2.11753c-2.52449,0.68405 -5.95291,1.58412 -8.47401,0.22426c-0.97447,-0.52562 -1.64525,-1.48507 -2.51926,-2.16476c-1.63947,-1.27496 -5.38365,-3.41552 -4.79835,-6.23042c0.07329,-0.35245 2.6125,-3.50523 3.16229,-4.19736c1.92614,-0.77045 6.15835,-4.61784 6.22483,-7.03874c0.06194,-2.25574 -0.77252,-4.68134 -0.30235,-6.96521c0.37794,-1.83589 2.11413,-4.81629 3.25039,-6.20189c2.52028,-3.07332 7.13191,-6.50309 10.62399,-8.32322c3.22739,-1.68217 7.27399,-1.85015 10.27075,-3.7149c1.85688,-0.74814 3.59628,-1.34025 5.25845,-2.43522c0.85634,-0.56412 1.59825,-1.66143 2.62233,-1.6085c1.00248,0.05181 1.52232,1.31845 2.36353,1.86619c0.6044,0.39354 1.47937,0.39326 1.9482,0.94132c0.60091,0.70246 1.11395,2.24781 1.47276,3.65901zM310.07948,120.62086c-0.23713,-1.21087 -0.65789,-2.83193 -1.11108,-3.35878c-0.29154,-0.33893 -0.94369,-0.07663 -1.29329,-0.35528c-0.42531,-0.33899 -0.3517,-1.23799 -0.87796,-1.3753c-0.37517,-0.09788 -0.34325,0.71228 -0.61916,0.98469c-0.4405,0.43491 -0.9422,0.82283 -1.4946,1.10221c-1.361,0.68833 -2.8503,1.08667 -4.26803,1.64896c-3.13186,1.82315 -7.052,2.01606 -10.32203,3.73973c-3.12372,1.64656 -7.3883,4.81812 -9.62602,7.56088c-3.33238,4.08447 -1.82349,6.73979 -2.23834,11.46823c-0.28152,3.20876 -4.59199,8.04974 -7.38943,9.16872c-0.57421,0.84021 -1.60361,1.35887 -2.0241,2.28562c-0.33286,0.73361 0.87293,1.38254 1.48397,1.90752c1.77074,1.52136 4.35569,4.11809 6.94599,3.81949c5.02392,-0.57915 9.99094,-3.51481 14.98083,-4.67004c2.29116,-0.53044 11.82675,-1.97002 7.10107,-5.7508c-1.05209,-1.13142 -2.67247,-1.5534 -3.96984,-2.39234c-0.76989,-0.49785 -1.20839,-1.39887 -1.94489,-1.94489c-1.58025,-1.17154 -3.94734,-0.61704 -2.43808,-4.23576c0.75956,-1.82118 2.83456,-0.95627 4.02661,-1.81255c0.99482,-0.71461 1.87129,-1.58502 2.74017,-2.44837c0.98774,-0.98146 1.96467,-2.04774 2.54206,-3.31483c0.60423,-1.32599 0.33201,-3.0079 1.14072,-4.22005c2.06431,-3.09412 5.36911,-5.69945 8.65545,-7.80704z" fill="#000000" stroke="none" stroke-width="0.5"/><path d="M310.04067,120.65238c-3.28634,2.10759 -6.51223,4.65152 -8.57654,7.74564c-0.80871,1.21215 -0.53073,2.90398 -1.13496,4.22997c-0.57739,1.26709 -1.55087,2.34494 -2.53861,3.3264c-0.86888,0.86335 -1.74547,1.75123 -2.74029,2.46584c-1.19205,0.85628 -3.29221,0.02616 -4.05177,1.84734c-1.50926,3.61872 0.80925,2.97682 2.3895,4.14836c0.7365,0.54602 1.17208,1.44882 1.94197,1.94667c1.29737,0.83894 2.97802,1.34044 4.03011,2.47186c4.72568,3.78078 -4.83462,5.23195 -7.12578,5.76239c-4.98989,1.15523 -9.98933,4.08522 -15.01325,4.66437c-2.5903,0.2986 -5.18729,-2.30751 -6.95803,-3.82887c-0.61104,-0.52498 -1.81983,-1.1774 -1.48697,-1.91101c0.42049,-0.92675 1.44916,-1.44636 2.02337,-2.28657c2.79744,-1.11898 7.10186,-5.9706 7.38338,-9.17936c0.41485,-4.72844 -1.08766,-7.43325 2.24472,-11.51772c2.23772,-2.74276 6.54443,-5.93398 9.66815,-7.58054c3.27003,-1.72367 7.21377,-1.90938 10.34563,-3.73253c1.41773,-0.56229 2.91165,-0.95746 4.27265,-1.64579c0.5524,-0.27938 1.05485,-0.66671 1.49535,-1.10162c0.27591,-0.27241 0.2438,-1.08272 0.61897,-0.98484c0.52626,0.13731 0.4548,1.03812 0.88011,1.37711c0.3496,0.27865 1.00332,0.01781 1.29486,0.35674c0.45319,0.52685 0.87794,2.15227 1.11507,3.36314z" data-paper-data="{&quot;noHover&quot;:false,&quot;origItem&quot;:[&quot;Path&quot;,{&quot;applyMatrix&quot;:true,&quot;segments&quot;:[[[310.07948,120.62086],[0,0],[-0.23713,-1.21087]],[[308.9684,117.26208],[0.45319,0.52685],[-0.29154,-0.33893]],[[307.67511,116.9068],[0.3496,0.27865],[-0.42531,-0.33899]],[[306.79715,115.5315],[0.52626,0.13731],[-0.37517,-0.09788]],[[306.17799,116.51619],[0.27591,-0.27241],[-0.4405,0.43491]],[[304.68339,117.6184],[0.5524,-0.27938],[-1.361,0.68833]],[[300.41536,119.26736],[1.41773,-0.56229],[-3.13186,1.82315]],[[290.09333,123.00709],[3.27003,-1.72367],[-3.12372,1.64656]],[[280.46731,130.56797],[2.23772,-2.74276],[-3.33238,4.08447]],[[278.22897,142.0362],[0.41485,-4.72844],[-0.28152,3.20876]],[[270.83954,151.20492],[2.79744,-1.11898],[-0.57421,0.84021]],[[268.81544,153.49054],[0.42049,-0.92675],[-0.33286,0.73361]],[[270.29941,155.39806],[-0.61104,-0.52498],[1.77074,1.52136]],[[277.2454,159.21755],[-2.5903,0.2986],[5.02392,-0.57915]],[[292.22623,154.54751],[-4.98989,1.15523],[2.29116,-0.53044]],[[299.3273,148.79671],[4.72568,3.78078],[-1.05209,-1.13142]],[[295.35746,146.40437],[1.29737,0.83894],[-0.76989,-0.49785]],[[293.41257,144.45948],[0.7365,0.54602],[-1.58025,-1.17154]],[[290.97449,140.22372],[-1.50926,3.61872],[0.75956,-1.82118]],[[295.0011,138.41117],[-1.19205,0.85628],[0.99482,-0.71461]],[[297.74127,135.9628],[-0.86888,0.86335],[0.98774,-0.98146]],[[300.28333,132.64797],[-0.57739,1.26709],[0.60423,-1.32599]],[[301.42405,128.42792],[-0.80871,1.21215],[2.06431,-3.09412]],[[310.0795,120.62088],[-3.28634,2.10759],[0,0]]],&quot;closed&quot;:true,&quot;fillColor&quot;:[0,0,0,1],&quot;strokeWidth&quot;:0.5}]}" fill="#f69167" stroke="none" stroke-width="0.25"/><path d="M374.80843,185.25344c0.08931,-0.27304 0.21897,-0.45456 0.21897,-0.45456c0.64267,-0.86236 1.07546,-1.93146 1.92801,-2.58707c2.22648,-1.71216 5.89877,-1.89037 8.42305,-2.93145c2.72729,-1.12481 5.82765,-3.51553 9.08274,-2.5148c0.90834,0.27926 1.63513,0.97516 2.4963,1.37699c0.73228,0.34169 1.67516,0.30199 2.27123,0.84759c4.34617,3.9782 -1.42883,8.35395 -4.01867,10.72527c-2.19257,2.00758 -2.35955,3.48187 -5.67195,3.61416c-4.88886,-0.00948 -9.03192,1.05698 -13.75988,-0.72376c-2.49337,-0.9391 -4.9712,-1.24013 -3.80939,-4.97075c0.37144,-1.1927 1.66836,-1.73785 2.83958,-2.38162zM379.34031,184.64591c0.31105,0.99089 -0.63951,1.6246 -0.63951,1.6246l-0.84422,0.55255c-0.96955,0.8052 -2.14914,1.3226 -3.16411,2.06973c-0.59108,0.4351 1.31763,0.66925 2.0253,0.86393c0.74952,0.20619 1.50144,0.40536 2.2426,0.63985c3.24787,1.02756 7.13956,-0.06089 10.57775,-0.06701c2.25042,0.16926 2.04208,-1.35399 3.59831,-2.78211c1.70599,-1.56555 4.44402,-2.77462 4.63512,-5.60283c0.0607,-0.89837 -4.41935,-2.32495 -5.19237,-2.23443c-2.52621,0.29582 -3.72587,1.38581 -6.05879,2.34433c-2.61648,1.07502 -5.14535,1.21333 -7.18007,2.59138z" fill="#000000" stroke="none" stroke-width="0.5"/><path d="M379.29053,184.64134c2.03472,-1.37805 4.6187,-1.56152 7.23518,-2.63654c2.33292,-0.95852 3.56501,-2.03158 6.09122,-2.3274c0.77302,-0.09052 5.26338,1.35506 5.20268,2.25343c-0.1911,2.82821 -2.92967,4.06661 -4.63566,5.63216c-1.55623,1.42812 -1.36774,2.97747 -3.61816,2.80821c-3.43819,0.00612 -7.39832,1.08188 -10.64619,0.05432c-0.74116,-0.23449 -1.49749,-0.44119 -2.24701,-0.64738c-0.70767,-0.19468 -2.61889,-0.43522 -2.02781,-0.87032c1.01497,-0.74713 2.19309,-1.2704 3.16264,-2.0756l0.84381,-0.55509c0,0 0.95033,-0.64489 0.63928,-1.63578z" data-paper-data="{&quot;noHover&quot;:false,&quot;origItem&quot;:[&quot;Path&quot;,{&quot;applyMatrix&quot;:true,&quot;segments&quot;:[[[379.34031,184.64591],[0,0],[0.31105,0.99089]],[378.7008,186.27051],[[377.85658,186.82306],[0,0],[-0.96955,0.8052]],[[374.69247,188.89279],[1.01497,-0.74713],[-0.59108,0.4351]],[[376.71777,189.75672],[-0.70767,-0.19468],[0.74952,0.20619]],[[378.96037,190.39657],[-0.74116,-0.23449],[3.24787,1.02756]],[[389.53812,190.32956],[-3.43819,0.00612],[2.25042,0.16926]],[[393.13643,187.54745],[-1.55623,1.42812],[1.70599,-1.56555]],[[397.77155,181.94462],[-0.1911,2.82821],[0.0607,-0.89837]],[[392.57918,179.71019],[0.77302,-0.09052],[-2.52621,0.29582]],[[386.52039,182.05452],[2.33292,-0.95852],[-2.61648,1.07502]],[[379.34032,184.6459],[2.03472,-1.37805],[0,0]]],&quot;closed&quot;:true,&quot;fillColor&quot;:[0,0,0,1],&quot;strokeWidth&quot;:0.5}]}" fill="#f69167" stroke="none" stroke-width="0.25"/><path d="M379.14282,208.88339c0.31929,-0.15965 0.60059,-0.20531 0.8439,-0.18221c6.86455,-5.03463 15.1121,-2.08321 22.75763,-0.92923c1.45023,0.21889 3.03065,0.10766 4.32825,0.79127c1.69845,0.89479 2.84576,2.63348 4.52706,3.5601c1.63226,0.89959 4.99748,1.13861 6.87535,1.84572c1.2003,0.27805 4.65292,1.7093 5.30568,2.78454c1.62289,2.67324 -0.15198,5.87881 -0.94648,8.43057c-0.32517,1.0444 -0.36123,2.23164 -0.98494,3.13025c-0.25324,0.36485 -1.30108,-0.25477 -1.31889,0.18899c-0.01817,0.45255 0.84428,0.36522 1.29477,0.41206c1.28706,0.13383 2.59339,0.24966 3.83087,0.62789c3.95933,1.21012 6.97223,3.31007 10.70518,4.86493c1.06544,0.44378 2.72607,0.35686 3.15397,1.42878c0.48292,1.20974 -0.45802,2.61233 -1.08503,3.75405c-0.50213,0.91432 -1.54115,1.41695 -2.19926,2.22628c-1.17752,1.44808 -2.03887,3.12683 -3.06507,4.68581c-2.2284,2.23763 -5.04615,5.69099 -8.33593,6.36171c-5.86897,1.19657 -10.22456,-3.99792 -13.00584,-8.08025c-0.47477,-0.69687 -1.33176,-1.14046 -1.6416,-1.9247c-0.35774,-0.90549 0.60615,-5.81068 -0.12755,-6.13443c-4.96253,-2.18976 -9.66091,-3.46085 -14.32666,-6.45392c-0.88097,-0.566 -1.59003,-1.43306 -2.56628,-1.81176c-2.0268,-0.78624 -4.99771,-0.80361 -6.6294,-2.58744c-1.83814,-2.00953 -2.96099,-6.10869 -3.91116,-8.64223c-0.83567,-2.22823 -0.10572,-4.49685 -2.77778,-4.88597l-1.37162,-1.44835c0,0 -0.67082,-1.34164 0.67082,-2.01246zM382.7297,210.46851c3.60296,2.81693 2.68306,9.57984 5.92418,13.28257c1.22062,1.39447 4.15375,1.32269 5.68827,1.95065c1.12168,0.45902 1.98589,1.39105 3.00629,2.04501c2.49978,1.60464 4.81991,3.04668 7.61647,4.0844c1.98381,0.73613 5.18884,1.16911 6.84411,2.46066c3.19175,2.4904 -0.05293,4.71934 1.16905,7.47984c0.2421,0.54692 0.93457,0.76942 1.27923,1.25823c2.17974,3.09147 5.26145,7.8053 10.00526,6.88917c2.45694,-0.47449 4.92836,-3.66893 6.57493,-5.30765c0.31973,-0.49229 2.92833,-4.5174 3.06507,-4.68581c0.60315,-0.74289 1.35465,-1.35203 2.04338,-2.01636c0.27917,-0.26928 1.10295,-0.48178 0.85986,-0.78404c-0.29047,-0.36116 -0.93206,0.2344 -1.38412,0.13218c-0.99681,-0.22539 -1.96331,-0.61094 -2.86452,-1.09285c-1.82806,-0.97752 -3.14766,-2.48659 -5.23095,-3.11839c-1.34788,-0.40878 -2.64737,-1.01572 -4.0361,-1.2509c-0.82383,-0.13951 -1.79452,0.37234 -2.5058,-0.06611c-1.34937,-0.83177 -2.85547,-1.94078 -3.24332,-3.47773c-0.21236,-0.84154 1.46674,-1.01734 1.9226,-1.7559c0.3872,-0.62732 0.29736,-1.44513 0.49204,-2.15615c0.09288,-0.33922 2.11876,-4.94992 1.46634,-5.73198c-0.27922,-0.3347 -0.8989,-0.08967 -1.26712,-0.32292c-0.81192,-0.51431 -1.55349,-1.28415 -2.50337,-1.43063c-2.01292,-0.75187 -5.58816,-1.08924 -7.38721,-2.04407c-1.70283,-0.90377 -2.86134,-2.6396 -4.54912,-3.57118c-1.01794,-0.56186 -2.30262,-0.32546 -3.45133,-0.50532c-6.25172,-0.97887 -13.69646,-3.74262 -19.5341,-0.26471z" fill="#000000" stroke="none" stroke-width="0.5"/><path d="M382.68875,210.43986c5.83764,-3.47791 13.30465,-0.73187 19.55637,0.247c1.14871,0.17986 2.44114,-0.05895 3.45908,0.50291c1.68778,0.93158 2.85886,2.66622 4.56169,3.56999c1.79905,0.95483 5.39921,1.2998 7.41213,2.05167c0.94988,0.14648 1.699,0.92212 2.51092,1.43643c0.36822,0.23325 0.99045,-0.00922 1.26967,0.32548c0.65242,0.78206 -1.36535,5.40449 -1.45823,5.74371c-0.19468,0.71102 -0.10171,1.53673 -0.48891,2.16405c-0.45586,0.73856 -2.13339,0.92141 -1.92103,1.76295c0.38785,1.53695 1.8934,2.66365 3.24277,3.49542c0.71128,0.43845 1.58382,-0.0925 2.40765,0.04701c1.38873,0.23518 2.7864,0.86103 4.13428,1.26981c2.08329,0.6318 3.40187,2.14493 5.22993,3.12245c0.90121,0.48191 1.77198,0.83856 2.76879,1.06395c0.45206,0.10222 1.18953,-0.46494 1.48,-0.10378c0.24309,0.30226 -0.58122,0.51648 -0.86039,0.78576c-0.68873,0.66433 -1.44195,1.278 -2.0451,2.02089c-0.13674,0.16841 -2.75064,4.2028 -3.07037,4.69509c-1.64657,1.63872 -4.1297,4.84473 -6.58664,5.31922c-4.74381,0.91613 -7.83877,-3.79105 -10.01851,-6.88252c-0.34466,-0.48881 -1.06518,-0.80724 -1.30728,-1.35416c-1.22198,-2.7605 2.05425,-4.8948 -1.1375,-7.3852c-1.65527,-1.29155 -4.92403,-1.74825 -6.90784,-2.48438c-2.79656,-1.03772 -5.1216,-2.50885 -7.62138,-4.11349c-1.0204,-0.65396 -1.88367,-1.59105 -3.00535,-2.05007c-1.53452,-0.62796 -4.46733,-0.55745 -5.68795,-1.95192c-3.24112,-3.70273 -2.31388,-10.48139 -5.91684,-13.29832z" data-paper-data="{&quot;noHover&quot;:false,&quot;origItem&quot;:[&quot;Path&quot;,{&quot;applyMatrix&quot;:true,&quot;segments&quot;:[[[382.7297,210.46851],[0,0],[3.60296,2.81693]],[[388.65388,223.75108],[-3.24112,-3.70273],[1.22062,1.39447]],[[394.34215,225.70173],[-1.53452,-0.62796],[1.12168,0.45902]],[[397.34844,227.74674],[-1.0204,-0.65396],[2.49978,1.60464]],[[404.96491,231.83114],[-2.79656,-1.03772],[1.98381,0.73613]],[[411.80902,234.2918],[-1.65527,-1.29155],[3.19175,2.4904]],[[412.97807,241.77164],[-1.22198,-2.7605],[0.2421,0.54692]],[[414.2573,243.02987],[-0.34466,-0.48881],[2.17974,3.09147]],[[424.26256,249.91904],[-4.74381,0.91613],[2.45694,-0.47449]],[[430.83749,244.61139],[-1.64657,1.63872],[0.31973,-0.49229]],[[433.90256,239.92558],[-0.13674,0.16841],[0.60315,-0.74289]],[[435.94594,237.90922],[-0.68873,0.66433],[0.27917,-0.26928]],[[436.8058,237.12518],[0.24309,0.30226],[-0.29047,-0.36116]],[[435.42168,237.25736],[0.45206,0.10222],[-0.99681,-0.22539]],[[432.55716,236.16451],[0.90121,0.48191],[-1.82806,-0.97752]],[[427.32621,233.04612],[2.08329,0.6318],[-1.34788,-0.40878]],[[423.29011,231.79522],[1.38873,0.23518],[-0.82383,-0.13951]],[[420.78431,231.72911],[0.71128,0.43845],[-1.34937,-0.83177]],[[417.54099,228.25138],[0.38785,1.53695],[-0.21236,-0.84154]],[[419.46359,226.49548],[-0.45586,0.73856],[0.3872,-0.62732]],[[419.95563,224.33933],[-0.19468,0.71102],[0.09288,-0.33922]],[[421.42197,218.60735],[0.65242,0.78206],[-0.27922,-0.3347]],[[420.15485,218.28443],[0.36822,0.23325],[-0.81192,-0.51431]],[[417.65148,216.8538],[0.94988,0.14648],[-2.01292,-0.75187]],[[410.26427,214.80973],[1.79905,0.95483],[-1.70283,-0.90377]],[[405.71515,211.23855],[1.68778,0.93158],[-1.01794,-0.56186]],[[402.26382,210.73323],[1.14871,0.17986],[-6.25172,-0.97887]],[[382.72972,210.46852],[5.83764,-3.47791],[0,0]]],&quot;closed&quot;:true,&quot;fillColor&quot;:[0,0,0,1],&quot;strokeWidth&quot;:0.5}]}" fill="#f8f76b" stroke="none" stroke-width="0.25"/><path d="M370.15832,208.56864c-0.25664,0.08549 -0.51225,0.17198 -0.76701,0.25941c-0.30977,0.39665 -0.77272,0.55097 -0.77272,0.55097c-0.90832,0.30197 -1.84146,0.53505 -2.78526,0.73653c-0.6736,0.25373 -1.34727,0.51157 -2.02453,0.77205l-0.28366,-0.09201v0.11907h-1.62075c-0.0629,0 -0.1249,-0.00387 -0.18577,-0.01139c-1.3008,0.2587 -2.58299,0.55955 -3.8096,0.99977c-2.51167,0.90141 -2.34789,2.05211 -5.02026,1.40261c-2.29064,-0.55672 -2.59223,-1.65435 -4.58894,-2.73696c-6.25129,-3.38945 -12.77635,-5.13808 -19.64091,-2.78369c-2.07597,-0.21478 0.24777,2.83439 0.83186,3.83202c0.47437,0.81021 1.74545,0.72415 2.52622,1.24555c1.93493,1.29216 3.02432,2.99077 5.49199,3.60171c2.02904,0.50235 4.85284,-0.1592 6.88246,0.04802c7.72582,0.78878 15.47028,3.56963 22.84103,5.82823c2.48595,-0.15374 2.43569,-5.04602 2.67058,-6.59067c0.29384,-1.93227 1.01775,-3.79412 1.19367,-5.74068c0.06486,-0.71769 0.49792,-1.60901 0.03534,-2.16156c-0.01782,-0.02129 -0.03601,-0.04243 -0.05455,-0.06343c-0.27816,0.57077 -0.9192,0.78445 -0.9192,0.78445zM357.40231,207.00606c-0.67082,-1.34164 0.67082,-2.01246 0.67082,-2.01246l1.03037,-0.47796c3.49222,-2.61032 11.58806,-2.42092 14.48083,1.60383c1.14797,1.59719 0.49857,5.68748 0.16884,7.2983c-0.96767,4.72722 -1.11286,10.61054 -6.64201,11.9203c-7.5527,-2.03466 -15.18453,-5.0498 -23.02283,-5.84113c-3.89872,-0.3936 -6.67729,0.49178 -10.37881,-1.47479c-1.25691,-0.66778 -2.15903,-1.86665 -3.34399,-2.65506c-1.07231,-0.71345 -2.55556,-0.95096 -3.30847,-1.99594c-0.4354,-0.6043 -0.39652,-1.44905 -0.74907,-2.10513c-1.21587,-2.26268 -3.05483,-2.22771 -0.74449,-5.63744c0.45646,-0.67367 1.55028,-0.49538 2.32542,-0.74308c7.64055,-2.48337 14.89116,-0.70727 21.85018,3.05099c1.39707,0.7545 2.31834,1.94732 3.83893,2.44942c1.20558,0.39808 2.49885,-1.01497 3.31316,-1.30492c0.72696,-0.25885 1.47136,-0.46984 2.22635,-0.65265c-0.18334,-0.12314 -0.35381,-0.30907 -0.48809,-0.58405c-0.41292,-0.00813 -0.89987,-0.18367 -1.22715,-0.83822z" fill="#000000" stroke="none" stroke-width="0.5"/><path d="M370.11028,208.58254c0,0 0.64136,-0.21262 0.91952,-0.78339c0.01854,0.021 0.1322,0.0124 0.15002,0.03369c0.46258,0.55255 0.03069,1.4484 -0.03417,2.16609c-0.17592,1.94656 -0.89886,3.82169 -1.1927,5.75396c-0.23489,1.54465 -0.18882,6.45416 -2.67477,6.6079c-7.37075,-2.2586 -15.20761,-5.04179 -22.93343,-5.83057c-2.02962,-0.20722 -4.8561,0.44436 -6.88514,-0.05799c-2.46767,-0.61094 -3.55747,-2.3222 -5.4924,-3.61436c-0.78077,-0.5214 -2.05156,-0.43779 -2.52593,-1.248c-0.58409,-0.99763 -2.90594,-4.05497 -0.82997,-3.84019c6.86456,-2.35439 13.42183,-0.63801 19.67312,2.75144c1.99671,1.08261 2.36061,2.21057 4.65125,2.76729c2.67237,0.6495 2.41396,-0.46895 4.92563,-1.37036c1.22661,-0.44022 2.60441,-0.77035 3.90521,-1.02905c0.06087,0.00752 0.12294,0.01163 0.18584,0.01163l1.62117,0.00152l-0.0001,-0.11946l0.18691,0.11729c0.67726,-0.26048 1.35112,-0.51761 2.02472,-0.77134c0.9438,-0.20148 1.87693,-0.4346 2.78525,-0.73657c0,0 0.46317,-0.15355 0.77294,-0.5502c0.25476,-0.08743 0.51039,-0.17384 0.76703,-0.25933z" data-paper-data="{&quot;noHover&quot;:false,&quot;origItem&quot;:[&quot;Path&quot;,{&quot;applyMatrix&quot;:true,&quot;segments&quot;:[[[370.15832,208.56864],[0,0],[-0.25664,0.08549]],[[369.39131,208.82805],[0.25476,-0.08743],[-0.30977,0.39665]],[[368.61859,209.37902],[0,0],[-0.90832,0.30197]],[[365.83333,210.11555],[0.9438,-0.20148],[-0.6736,0.25373]],[[363.8088,210.8876],[0.67726,-0.26048],[0,0]],[363.52514,210.79559],[363.52514,210.91466],[[361.90439,210.91466],[0,0],[-0.0629,0]],[[361.71862,210.90327],[0.06087,0.00752],[-1.3008,0.2587]],[[357.90902,211.90304],[1.22661,-0.44022],[-2.51167,0.90141]],[[352.88876,213.30565],[2.67237,0.6495],[-2.29064,-0.55672]],[[348.29982,210.56869],[1.99671,1.08261],[-6.25129,-3.38945]],[[328.65891,207.785],[6.86456,-2.35439],[-2.07597,-0.21478]],[[329.49077,211.61702],[-0.58409,-0.99763],[0.47437,0.81021]],[[332.01699,212.86257],[-0.78077,-0.5214],[1.93493,1.29216]],[[337.50898,216.46428],[-2.46767,-0.61094],[2.02904,0.50235]],[[344.39144,216.5123],[-2.02962,-0.20722],[7.72582,0.78878]],[[367.23247,222.34053],[-7.37075,-2.2586],[2.48595,-0.15374]],[[369.90305,215.74986],[-0.23489,1.54465],[0.29384,-1.93227]],[[371.09672,210.00918],[-0.17592,1.94656],[0.06486,-0.71769]],[[371.13206,207.84762],[0.46258,0.55255],[-0.01782,-0.02129]],[[371.07751,207.78419],[0.01854,0.021],[-0.27816,0.57077]],[370.15831,208.56864]],&quot;closed&quot;:true,&quot;fillColor&quot;:[0,0,0,1],&quot;strokeWidth&quot;:0.5}]}" fill="#f8f76b" stroke="none" stroke-width="0.25"/><path d="M323.20124,220.71855c1.73073,-0.75393 3.40456,-1.72469 5.37429,-1.26596c3.61873,0.84276 5.83852,3.73075 6.94989,7.13558c0.11954,0.36622 -0.17734,0.8511 0.06054,1.15412c0.85255,1.08598 3.93931,0.91171 5.18892,1.09123c1.57873,0.2268 4.17013,1.48618 5.89931,1.01564c1.71234,-0.46597 3.75197,-1.57347 5.48351,-2.26129c0.82761,-0.10732 1.70901,-0.63446 2.48284,-0.32197c3.54362,1.43101 3.47845,5.81227 3.33437,8.89107c-0.05501,1.17559 0.4321,2.6092 -0.31769,3.51631c-0.80526,0.97421 -2.34895,0.98635 -3.59223,1.21394c-2.35893,0.43182 -5.5676,0.129 -7.9248,-0.34045c-1.6202,-0.32267 -4.43568,-1.22615 -6.1764,-0.66089c-0.91918,0.29848 -1.66389,1.0313 -2.59319,1.2966c-0.57489,0.16412 -1.22318,-0.22531 -1.79301,-0.04443c-2.87803,0.91357 -1.94745,4.69806 -6.24077,3.5426c-1.85282,-0.49865 -4.04649,-4.63749 -4.37712,-6.29068c-2.41115,-3.17906 -4.17968,-6.29491 -6.8951,-9.35393c-0.4719,-0.53161 -0.55114,-2.01277 -1.21314,-1.75384c-1.88279,0.73643 -3.97899,2.68524 -5.77892,3.75455l-0.17143,0.0033l0.01898,0.05695l-1.91168,0.63723c-0.15852,0.05699 -0.32941,0.08805 -0.50756,0.08805c-0.82843,0 -1.5,-0.67157 -1.5,-1.5c0,-0.41421 0.16789,-0.78921 0.43934,-1.06066l1.94489,-1.94489l0.29473,0.29473c3.21449,-3.85801 7.68255,-6.87519 12.75945,-6.8929zM320.49175,224.05177c-0.6705,0.21611 -1.32529,0.51465 -1.96038,0.82613c0.73126,0.63132 1.28601,1.61554 1.79956,2.19253c2.91478,3.27485 4.81296,6.65253 7.36746,10.09502c0.18899,0.94496 2.37457,5.5127 3.39507,4.49736c1.5179,-1.51022 1.18498,-2.44571 3.49109,-3.35565c0.65029,-0.25659 1.42463,0.14776 2.09678,-0.04443c2.85952,-0.81764 3.84149,-1.71676 6.99129,-1.32777c3.51367,0.43393 6.42668,1.03412 10.02582,0.97473c0.53203,-0.00878 1.28091,0.34747 1.59416,-0.08266c0.3336,-0.45807 -0.27824,-1.10478 -0.31769,-1.67007c-0.08275,-1.18567 0.6091,-6.79956 -1.96237,-5.69347c-1.66994,0.67295 -3.86931,1.88478 -5.53755,2.2768c-2.55673,0.6008 -4.63567,-0.58398 -7.06666,-0.92926c-2.12741,-0.30216 -5.51211,-0.3299 -7.12875,-2.15026c-1.61595,-1.81959 -0.84979,-5.0593 -3.48737,-6.46779c-1.7554,-0.93739 -3.07156,-0.67287 -4.44357,-0.14308c-0.41333,0.66864 -1.28863,0.66864 -1.28863,0.66864h-0.32975c-0.60484,0.24255 -1.25014,0.46998 -1.96926,0.61917c0,0 -0.7345,0.1469 -1.26922,-0.28595z" fill="#000000" stroke="none" stroke-width="0.5"/><path d="M320.44695,224.02961c0.53472,0.43285 1.26962,0.28515 1.26962,0.28515c0.71912,-0.14919 1.36673,-0.38063 1.97157,-0.62318l0.33006,-0.00048c0,0 0.87781,-0.00348 1.29114,-0.67212c1.37201,-0.52979 2.6963,-0.80249 4.4517,0.1349c2.63758,1.40849 1.9438,4.71561 3.55975,6.5352c1.61664,1.82036 5.00983,1.81433 7.13724,2.11649c2.43099,0.34528 4.4103,1.53291 6.96703,0.93211c1.66824,-0.39202 3.96725,-1.60658 5.63719,-2.27953c2.57147,-1.10609 1.87874,4.5239 1.96149,5.70957c0.03945,0.56529 0.65025,1.21594 0.31665,1.67401c-0.31325,0.43013 -1.06261,0.07535 -1.59464,0.08413c-3.59914,0.05939 -6.51864,-0.5281 -10.03231,-0.96203c-3.1498,-0.38899 -4.1749,0.53121 -7.03442,1.34885c-0.67215,0.19219 -1.46229,-0.2155 -2.11258,0.04109c-2.30611,0.90994 -1.98141,1.84133 -3.49931,3.35155c-1.0205,1.01534 -3.2238,-3.57125 -3.41279,-4.51621c-2.5545,-3.44249 -4.45642,-6.85854 -7.3712,-10.13339c-0.51355,-0.57699 -1.06699,-1.56494 -1.79825,-2.19626c0.63509,-0.31148 1.29153,-0.61373 1.96203,-0.82984z" data-paper-data="{&quot;noHover&quot;:false,&quot;origItem&quot;:[&quot;Path&quot;,{&quot;applyMatrix&quot;:true,&quot;segments&quot;:[[[320.49175,224.05177],[0,0],[-0.6705,0.21611]],[[318.53137,224.8779],[0.63509,-0.31148],[0.73126,0.63132]],[[320.33093,227.07043],[-0.51355,-0.57699],[2.91478,3.27485]],[[327.69839,237.16545],[-2.5545,-3.44249],[0.18899,0.94496]],[[331.09346,241.66281],[-1.0205,1.01534],[1.5179,-1.51022]],[[334.58455,238.30716],[-2.30611,0.90994],[0.65029,-0.25659]],[[336.68133,238.26273],[-0.67215,0.19219],[2.85952,-0.81764]],[[343.67262,236.93496],[-3.1498,-0.38899],[3.51367,0.43393]],[[353.69844,237.90969],[-3.59914,0.05939],[0.53203,-0.00878]],[[355.2926,237.82703],[-0.31325,0.43013],[0.3336,-0.45807]],[[354.97491,236.15696],[0.03945,0.56529],[-0.08275,-1.18567]],[[353.01254,230.46349],[2.57147,-1.10609],[-1.66994,0.67295]],[[347.47499,232.74029],[1.66824,-0.39202],[-2.55673,0.6008]],[[340.40833,231.81103],[2.43099,0.34528],[-2.12741,-0.30216]],[[333.27958,229.66077],[1.61664,1.82036],[-1.61595,-1.81959]],[[329.79221,223.19298],[2.63758,1.40849],[-1.7554,-0.93739]],[[325.34864,223.0499],[1.37201,-0.52979],[-0.41333,0.66864]],[324.06001,223.71854],[[323.73026,223.71854],[0,0],[-0.60484,0.24255]],[[321.761,224.33771],[0.71912,-0.14919],[0,0]],[[320.49178,224.05176],[0.53472,0.43285],[0,0]]],&quot;closed&quot;:true,&quot;fillColor&quot;:[0,0,0,1],&quot;strokeWidth&quot;:0.5}]}" fill="#f8f76b" stroke="none" stroke-width="0.25"/><path d="M307.52839,239.19505c1.5,0 1.5,1.5 1.5,1.5v0.7807c1.74098,-1.069 3.75511,-2.0559 5.6108,-2.56472c1.97631,-0.54189 2.01001,0.25652 3.70222,-0.02563c0.6026,-0.10047 4.32403,-1.40637 4.67187,-1.19691c1.09608,0.66002 1.47733,2.13485 1.86779,3.35326c0.1854,0.57854 -0.07137,5.3974 -0.22727,5.68063c-0.20321,0.3692 -3.59109,1.37847 -3.30904,2.66236c0.12901,0.58724 0.73398,0.98372 0.90551,1.55998c1.26463,4.24851 -0.67408,8.26469 -4.82722,9.48384c-1.6049,2.02638 -5.79696,6.98377 -8.86026,4.47314c-0.06336,-0.05193 -2.53936,-4.50612 -2.78503,-5.26628c-0.30118,-0.93193 0.16644,-4.29415 -0.23932,-4.97943c-0.27525,-0.46487 -1.09908,-0.4696 -1.2966,-0.97245c-0.33226,-0.8459 -0.20246,-1.8145 -0.15459,-2.72205c0.08088,-1.53313 1.15787,-2.84419 1.70153,-4.27997c0.38557,-1.01826 0.24531,-3.53558 0.23959,-4.68988v-1.2966c0,0 0,-1.5 1.5,-1.5zM308.9903,245.02672c-0.04629,1.0234 -0.14807,2.01554 -0.37062,2.64782c-0.38489,1.09353 -2.54216,3.07889 -1.69455,4.66735c0.25433,0.47664 1.07664,0.479 1.2966,0.97245c0.95429,2.14084 0.17904,4.71032 1.25155,7.04119c0.35713,0.77614 0.56159,2.66363 1.28893,2.21541c1.15717,-0.71309 2.19152,-1.61804 3.18846,-2.54198c0.68453,-0.63441 1.2236,-1.40961 1.8354,-2.11442c0.74094,-0.20565 1.58815,-0.1828 2.22281,-0.61695c3.33341,-2.28027 0.413,-5.29504 0.33847,-7.78818c-0.04815,-1.61075 1.37919,-3.40259 2.61786,-4.23194c0.33999,-0.22764 1.00219,0.11873 1.20438,-0.23698c0.23905,-0.42054 -0.22559,-0.94545 -0.2579,-1.4281c-0.07018,-1.04852 0.77908,-2.50204 -0.04647,-3.15227c-0.2313,-0.18218 -0.29294,0.56117 -0.5615,0.68183c-0.80408,0.36127 -1.67668,0.56957 -2.54621,0.71445c-1.12751,0.18786 -2.33422,-0.35409 -3.42906,-0.02563c-2.00358,0.60108 -4.28869,1.77713 -5.95575,3.00222c0,0 -0.15,0.10714 -0.38239,0.19373z" fill="#000000" stroke="none" stroke-width="0.5"/><path d="M308.95806,244.98851c0.23239,-0.08659 0.38432,-0.19528 0.38432,-0.19528c1.66706,-1.22509 3.98683,-2.41119 5.99041,-3.01227c1.09484,-0.32846 2.31741,0.21756 3.44492,0.0297c0.86953,-0.14488 1.74936,-0.34924 2.55344,-0.71051c0.26856,-0.12066 0.3305,-0.86381 0.5618,-0.68163c0.82555,0.65023 -0.01724,2.10888 0.05294,3.1574c0.03231,0.48265 0.50094,1.01176 0.26189,1.4323c-0.20219,0.35571 -0.93855,0.07634 -1.27854,0.30398c-1.23867,0.82935 -2.58576,2.56324 -2.53761,4.17399c0.07453,2.49314 2.97675,5.57378 -0.35666,7.85405c-0.63466,0.43415 -1.49796,0.41764 -2.2389,0.62329c-0.6118,0.70481 -1.164,1.48092 -1.84853,2.11533c-0.99694,0.92394 -2.04414,1.82637 -3.20131,2.53946c-0.72734,0.44822 -0.94052,-1.44317 -1.29765,-2.21931c-1.07251,-2.33087 -0.32066,-4.93016 -1.27495,-7.071c-0.21996,-0.49345 -1.04389,-0.50417 -1.29822,-0.98081c-0.84761,-1.58846 1.31762,-3.60662 1.70251,-4.70015c0.22255,-0.63228 0.33384,-1.63513 0.38013,-2.65853z" data-paper-data="{&quot;noHover&quot;:false,&quot;origItem&quot;:[&quot;Path&quot;,{&quot;applyMatrix&quot;:true,&quot;segments&quot;:[[[308.9903,245.02672],[0,0],[-0.04629,1.0234]],[[308.61968,247.67454],[0.22255,-0.63228],[-0.38489,1.09353]],[[306.92513,252.34189],[-0.84761,-1.58846],[0.25433,0.47664]],[[308.22173,253.31434],[-0.21996,-0.49345],[0.95429,2.14084]],[[309.47328,260.35553],[-1.07251,-2.33087],[0.35713,0.77614]],[[310.76221,262.57094],[-0.72734,0.44822],[1.15717,-0.71309]],[[313.95067,260.02896],[-0.99694,0.92394],[0.68453,-0.63441]],[[315.78607,257.91454],[-0.6118,0.70481],[0.74094,-0.20565]],[[318.00888,257.29759],[-0.63466,0.43415],[3.33341,-2.28027]],[[318.34735,249.50941],[0.07453,2.49314],[-0.04815,-1.61075]],[[320.96521,245.27747],[-1.23867,0.82935],[0.33999,-0.22764]],[[322.16959,245.04049],[-0.20219,0.35571],[0.23905,-0.42054]],[[321.91169,243.61239],[0.03231,0.48265],[-0.07018,-1.04852]],[[321.86522,240.46012],[0.82555,0.65023],[-0.2313,-0.18218]],[[321.30372,241.14195],[0.26856,-0.12066],[-0.80408,0.36127]],[[318.75751,241.8564],[0.86953,-0.14488],[-1.12751,0.18786]],[[315.32845,241.83077],[1.09484,-0.32846],[-2.00358,0.60108]],[[309.3727,244.83299],[1.66706,-1.22509],[0,0]],[[308.99031,245.02672],[0.23239,-0.08659],[0,0]]],&quot;closed&quot;:true,&quot;fillColor&quot;:[0,0,0,1],&quot;strokeWidth&quot;:0.5}]}" fill="#f8f76b" stroke="none" stroke-width="0.25"/><path d="M275.5681,240.50021c-0.36586,-0.08007 -0.77058,-0.17598 -1.22209,-0.31706c-1.82104,-0.56904 -3.6386,-1.21368 -5.52644,-1.48941c-0.76443,-0.11165 -3.92767,-0.03608 -4.20568,-0.13372c-1.63718,-0.575 -3.26372,-1.40526 -4.4917,-2.63125c-0.41415,-0.41348 -0.25356,-1.20367 -0.65609,-1.62848c-1.07254,-1.1319 -2.98172,-1.14418 -4.12728,-2.20211c-1.45167,-1.34062 -1.94131,-3.45334 -3.10984,-5.04681c-1.6671,-2.27335 -4.43368,-2.37376 -6.93723,-2.36036c-2.95745,0 -6.20717,0.33955 -9.14135,-0.00667c-3.57265,-0.42156 -2.90131,-4.24963 -6.8549,-2.68531c-3.8769,1.53398 -4.89333,5.19693 -6.66827,8.38275c-0.27499,0.49358 -1.02404,0.63799 -1.23329,1.16283c-0.22298,0.55927 0.24097,1.23462 0.04982,1.80555c-1.09063,3.25747 -3.15963,4.73043 -0.57399,8.04701c0.72495,0.90602 1.16757,2.06317 2.05718,2.80817c0.82807,0.69346 1.88424,-1.05651 2.83242,-1.57376c2.46777,-1.34621 6.57346,-2.41926 9.30981,-1.41465c2.69666,0.99003 2.41359,2.32422 2.31714,4.78824c-0.03975,1.0155 -0.86598,1.85696 0.21407,2.70541c1.11722,0.87764 3.74895,1.38485 4.9176,1.80924c5.3338,1.93694 9.98181,4.71914 15.56339,5.86245c2.53277,0.12044 2.4444,-1.13959 4.5832,-2.38203c3.82739,-2.22336 7.63859,-4.04181 11.22475,-6.72559c1.28297,-0.96014 2.68541,-1.75385 4.08362,-2.53671c0.73947,-0.41403 1.4868,-0.81462 2.21749,-1.24387c-1.03758,0.20599 -1.55637,-0.83159 -1.55637,-0.83159c-0.02076,-0.05015 -0.04161,-0.09894 -0.06255,-0.1464c-0.07131,0.00129 -0.14345,0.00239 -0.21655,0.00314l-1.6604,-0.36894c0,0 -1.34145,-0.33536 -1.12647,-1.65005zM280.53855,239.62831c2.15102,0.25499 4.14286,1.11704 3.466,4.09461c-0.56594,2.48958 -5.26094,3.89886 -7.10249,5.03781c-4.26764,2.63939 -8.3335,5.318 -12.67842,7.80257c-2.83975,1.62387 -2.81648,2.70832 -6.43787,2.80436c-5.87733,-1.15104 -10.69941,-4.0009 -16.29095,-6.02773c-1.87439,-0.67943 -4.50096,-1.02129 -6.01574,-2.50804c-1.98579,-1.94904 -1.35319,-2.88589 -1.08253,-5.07417c0.05494,-0.44416 0.63032,-1.63636 -0.27605,-1.69475c-2.50073,-0.16109 -4.76494,0.05335 -6.99604,1.24004c-1.81407,0.96487 -3.16215,2.7086 -5.49707,1.60624c-0.3833,-0.18097 -2.71169,-3.15283 -3.12921,-3.67481c-2.01332,-2.75793 -2.59485,-5.78309 -1.14812,-9.00366c0.29157,-0.64907 0.99834,-1.07463 1.22243,-1.74997c0.21886,-0.65958 -0.20889,-1.43925 0.04982,-2.08424c0.24491,-0.61059 1.04109,-0.85489 1.3599,-1.43036c2.11812,-3.82323 3.58845,-8.01643 8.24259,-9.7696c2.29197,-0.86337 5.22818,-0.84855 6.91231,1.13708c0.30966,0.3651 0.08222,1.02879 0.41197,1.37585c0.85933,0.90443 2.4951,-0.0171 3.74267,-0.01852c2,-0.00228 4,0 6,0c3.46288,0.01606 6.97575,0.46919 9.27023,3.47433c1.5552,2.03689 0.99102,3.04892 2.82324,4.73916c1.17069,1.07997 3.0534,1.17125 4.2022,2.27448c0.41726,0.40071 0.25244,1.18397 0.64051,1.61301c0.84987,0.9396 2.10394,1.45582 3.28788,1.90683c1.14351,0.43561 2.46005,-0.1588 3.67095,0.01749c2.63231,0.38323 8.69293,1.34501 10.7993,3.19728c0.22948,0.2018 0.40458,0.44733 0.55248,0.71474z" fill="#000000" stroke="none" stroke-width="0.5"/><path d="M275.61802,240.50313c-0.21498,1.31469 1.12621,1.65297 1.12621,1.65297l1.66036,0.36924c0.0731,-0.00075 0.14525,-0.0019 0.21656,-0.00319c0.02094,0.04746 0.04176,0.09649 0.06252,0.14664c0,0 0.51865,1.0386 1.55623,0.83261c-0.73069,0.42925 -1.47849,0.83251 -2.21796,1.24654c-1.39821,0.78286 -2.80237,1.58286 -4.08534,2.543c-3.58616,2.68378 -7.41223,4.52402 -11.23962,6.74738c-2.1388,1.24244 -2.06155,2.50963 -4.59432,2.38919c-5.58158,-1.14331 -10.27788,-3.92868 -15.61168,-5.86562c-1.16865,-0.42439 -3.81264,-0.94272 -4.92986,-1.82036c-1.08005,-0.84845 -0.2582,-1.69647 -0.21845,-2.71197c0.09645,-2.46402 0.37371,-3.81524 -2.32295,-4.80527c-2.73635,-1.00461 -6.74314,0.05366 -9.21091,1.39987c-0.94818,0.51725 -2.10289,2.2841 -2.93096,1.59064c-0.88961,-0.745 -1.33296,-1.90751 -2.05791,-2.81353c-2.58564,-3.31658 -0.51585,-4.80339 0.57478,-8.06086c0.19115,-0.57093 -0.27213,-1.24919 -0.04915,-1.80846c0.20925,-0.52484 0.959,-0.67166 1.23399,-1.16524c1.77494,-3.18582 2.80048,-6.86552 6.67738,-8.3995c3.95359,-1.56432 3.28618,2.25951 6.85883,2.68107c2.93418,0.34622 6.20319,-0.00486 9.16064,-0.00486c2.50355,-0.0134 5.295,0.08552 6.9621,2.35887c1.16853,1.59347 1.67954,3.71596 3.13121,5.05658c1.14556,1.05793 3.0687,1.08743 4.14124,2.21933c0.40253,0.42481 0.24496,1.22266 0.65911,1.63614c1.22798,1.22599 2.85662,2.06916 4.4938,2.64416c0.27801,0.09764 3.44127,0.02276 4.2057,0.13441c1.88784,0.27573 3.70535,0.9236 5.52639,1.49264c0.45151,0.14108 0.8562,0.23749 1.22206,0.31756z" data-paper-data="{&quot;noHover&quot;:false,&quot;origItem&quot;:[&quot;Path&quot;,{&quot;applyMatrix&quot;:true,&quot;segments&quot;:[[[275.5681,240.50021],[0,0],[-0.36586,-0.08007]],[[274.34601,240.18315],[0.45151,0.14108],[-1.82104,-0.56904]],[[268.81957,238.69374],[1.88784,0.27573],[-0.76443,-0.11165]],[[264.61389,238.56002],[0.27801,0.09764],[-1.63718,-0.575]],[[260.12219,235.92877],[1.22798,1.22599],[-0.41415,-0.41348]],[[259.4661,234.30029],[0.40253,0.42481],[-1.07254,-1.1319]],[[255.33882,232.09818],[1.14556,1.05793],[-1.45167,-1.34062]],[[252.22898,227.05137],[1.16853,1.59347],[-1.6671,-2.27335]],[[245.29175,224.69101],[2.50355,-0.0134],[-2.95745,0]],[[236.1504,224.68434],[2.93418,0.34622],[-3.57265,-0.42156]],[[229.2955,221.99903],[3.95359,-1.56432],[-3.8769,1.53398]],[[222.62723,230.38178],[1.77494,-3.18582],[-0.27499,0.49358]],[[221.39394,231.54461],[0.20925,-0.52484],[-0.22298,0.55927]],[[221.44376,233.35016],[0.19115,-0.57093],[-1.09063,3.25747]],[[220.86977,241.39717],[-2.58564,-3.31658],[0.72495,0.90602]],[[222.92695,244.20534],[-0.88961,-0.745],[0.82807,0.69346]],[[225.75937,242.63158],[-0.94818,0.51725],[2.46777,-1.34621]],[[235.06918,241.21693],[-2.73635,-1.00461],[2.69666,0.99003]],[[237.38632,246.00517],[0.09645,-2.46402],[-0.03975,1.0155]],[[237.60039,248.71058],[-1.08005,-0.84845],[1.11722,0.87764]],[[242.51799,250.51982],[-1.16865,-0.42439],[5.3338,1.93694]],[[258.08138,256.38227],[-5.58158,-1.14331],[2.53277,0.12044]],[[262.66458,254.00024],[-2.1388,1.24244],[3.82739,-2.22336]],[[273.88933,247.27465],[-3.58616,2.68378],[1.28297,-0.96014]],[[277.97295,244.73794],[-1.39821,0.78286],[0.73947,-0.41403]],[[280.19044,243.49407],[-0.73069,0.42925],[-1.03758,0.20599]],[[278.63407,242.66248],[0,0],[-0.02076,-0.05015]],[[278.57152,242.51608],[0.02094,0.04746],[-0.07131,0.00129]],[[278.35497,242.51922],[0.0731,-0.00075],[0,0]],[276.69457,242.15028],[[275.5681,240.50023],[-0.21498,1.31469],[0,0]]],&quot;closed&quot;:true,&quot;fillColor&quot;:[0,0,0,1],&quot;strokeWidth&quot;:0.5}]}" fill="#f8f76b" stroke="none" stroke-width="0.25"/><path d="M156.65801,321.58484v-277.04485h324.53826v277.04486z" fill="none" stroke="#000000" stroke-width="0"/></g></g></svg>