<svg version="1.1" xmlns="http://www.w3.org/2000/svg" xmlns:xlink="http://www.w3.org/1999/xlink" width="324.53826" height="277.04486" viewBox="0,0,324.53826,277.04486"><g transform="translate(-156.658,-44.53998)"><g data-paper-data="{&quot;isPaintingLayer&quot;:true}" fill-rule="nonzero" stroke-linecap="butt" stroke-linejoin="miter" stroke-miterlimit="10" stroke-dasharray="" stroke-dashoffset="0" style="mix-blend-mode: normal"><path d="M266.61645,145.76475c-0.04465,-0.01488 -0.08742,-0.0307 -0.12841,-0.04737c-0.40568,1.2399 -0.66944,2.5974 -0.28048,3.56086c0.69008,1.70933 3.73214,3.61841 5.17791,4.63426c4.11575,2.89186 8.4621,5.76033 13.2973,7.13929c1.79364,0.51247 4.16614,1.69535 6.09345,1.26952c4.69752,-1.03791 8.17636,-5.99978 5.80459,-10.43136c-1.34144,-2.50643 -6.1523,-3.68793 -6.94157,-6.47509c-0.26923,-0.95073 0.39428,-1.93928 0.6784,-2.88566c0.83556,-2.78321 2.90369,-5.98862 4.76077,-8.18228c0.51061,-0.60316 0.83645,-1.50812 1.58422,-1.76378c0.9327,-0.31889 1.96627,0.14249 2.9494,0.21374c2.16817,0.0135 4.77498,0.49058 6.74053,1.45993c1.56852,0.77355 2.43095,2.00701 4.45023,1.82472c1.09354,-0.09872 1.51714,-1.6399 1.96934,-2.64044c0.60122,-1.33025 1.79789,-5.94639 0.25961,-7.16349c-2.6499,-2.09663 -6.3202,-3.92903 -9.40615,-5.13067c-2.08113,-0.81037 -6.53974,0.06465 -8.89826,0.0401c-4.18424,-1.3661 -11.69687,-3.14935 -15.87643,-0.49948c-0.84759,0.53738 -1.40788,1.47532 -2.2889,1.95594c-1.59473,0.86996 -4.58158,0.95024 -5.57273,2.98834c-0.89879,1.84819 -0.36088,3.60881 -0.01643,5.42175c0.26688,-0.3342 0.54129,-0.66418 0.82376,-0.98972c0,0 0.98776,-1.12887 2.11662,-0.14111c1.12887,0.98776 0.14111,2.11662 0.14111,2.11662c-1.15386,1.30614 -2.15472,2.70569 -3.05091,4.16985c-0.39877,2.59231 -1.30686,5.04137 -2.16452,7.63156l-0.32509,0.97528c0,0 -0.47434,1.42302 -1.89737,0.94868zM268.23856,135.01381c0.24478,-3.74266 -1.74732,-7.1465 0.14012,-10.86007c1.40963,-2.77347 4.43871,-2.8834 6.74494,-4.14294c0.86777,-0.47393 1.40116,-1.42546 2.24919,-1.93385c4.88291,-2.9273 12.88704,-1.53824 17.83508,0.14882c2.68429,-0.03766 6.76967,-0.80719 9.25409,0.0401c0.87242,0.29753 1.5196,1.06276 2.36026,1.44084c2.77855,1.24963 6.03456,2.23771 8.33084,4.44956c3.36484,3.24114 1.20519,13.75726 -3.60573,14.8314c-2.75015,0.61403 -4.47842,-1.00284 -6.57084,-2.06507c-1.58069,-0.80245 -3.82992,-1.1456 -5.57713,-1.13326c-0.52956,-0.14485 -1.0506,-0.54355 -1.58869,-0.43456c-0.29548,0.05985 -0.192,0.57953 -0.36068,0.82941c-1.30635,1.93522 -2.61359,3.87924 -3.74805,5.93852c-0.43669,0.79267 -1.48527,1.58856 -1.18555,2.44248c0.14658,0.41761 0.83935,0.32429 1.18255,0.60374c1.71237,1.39431 4.41875,3.25712 5.49014,5.23884c3.33854,6.17514 -1.11834,13.44765 -7.80967,14.85228c-2.5593,0.53724 -5.12421,-0.63893 -7.52081,-1.32368c-5.15753,-1.47614 -9.82374,-4.47335 -14.20222,-7.57228c-1.89822,-1.3435 -5.30465,-3.63711 -6.22046,-5.93779c-0.9854,-2.4755 0.216,-5.89035 1.16594,-8.11313c1.08047,-2.52821 2.24622,-4.98168 3.63669,-7.29935z" fill="#000000" stroke="none" stroke-width="0.5"/><path d="M266.56751,145.77503c1.42303,0.47434 1.89713,-0.94989 1.89713,-0.94989l0.32475,-0.97737c0.85766,-2.59019 1.76671,-5.05821 2.16548,-7.65052c0.89619,-1.46416 1.90192,-2.87608 3.05578,-4.18222c0,0 0.99018,-1.13277 -0.13869,-2.12053c-1.12886,-0.98776 -2.03242,0.19497 -2.03242,0.19497c-0.28247,0.32554 -0.64421,0.60689 -0.91109,0.94109c-0.34445,-1.81294 -0.87691,-3.58191 0.02188,-5.4301c0.99115,-2.0381 3.9874,-2.12736 5.58213,-2.99732c0.88102,-0.48062 1.44683,-1.42207 2.29442,-1.95945c4.17956,-2.64987 11.72811,-0.87133 15.91235,0.49477c2.35852,0.02455 6.83378,-0.84295 8.91491,-0.03258c3.08595,1.20164 6.76998,3.04841 9.41988,5.14504c1.53828,1.2171 0.34688,5.84447 -0.25434,7.17472c-0.4522,1.00054 -0.9721,2.56832 -2.06564,2.66704c-2.01928,0.18229 -2.87937,-1.04369 -4.44789,-1.81724c-1.96555,-0.96935 -4.56442,-1.43311 -6.73259,-1.44661c-0.98313,-0.07125 -2.00986,-0.52585 -2.94256,-0.20696c-0.74777,0.25566 -1.0109,1.08273 -1.52151,1.68589c-1.85708,2.19366 -3.94415,5.48673 -4.77971,8.26994c-0.28412,0.94638 -0.95691,1.83651 -0.68768,2.78724c0.78927,2.78716 5.62317,4.06134 6.96461,6.56777c2.37177,4.43158 -1.13094,9.40065 -5.82846,10.43856c-1.92731,0.42583 -4.31436,-0.7586 -6.108,-1.27107c-4.8352,-1.37896 -9.20991,-4.26704 -13.32566,-7.1589c-1.44577,-1.01585 -4.49408,-2.937 -5.18416,-4.64633c-0.38896,-0.96346 -0.12704,-2.32754 0.27864,-3.56744c0.04099,0.01667 0.18165,0.01205 0.2263,0.02693z" data-paper-data="{&quot;noHover&quot;:false,&quot;origItem&quot;:[&quot;Path&quot;,{&quot;applyMatrix&quot;:true,&quot;segments&quot;:[[[266.61645,145.76475],[0,0],[-0.04465,-0.01488]],[[266.48804,145.71738],[0.04099,0.01667],[-0.40568,1.2399]],[[266.20756,149.27824],[-0.38896,-0.96346],[0.69008,1.70933]],[[271.38547,153.9125],[-1.44577,-1.01585],[4.11575,2.89186]],[[284.68277,161.05179],[-4.8352,-1.37896],[1.79364,0.51247]],[[290.77622,162.32131],[-1.92731,0.42583],[4.69752,-1.03791]],[[296.58081,151.88995],[2.37177,4.43158],[-1.34144,-2.50643]],[[289.63924,145.41486],[0.78927,2.78716],[-0.26923,-0.95073]],[[290.31764,142.5292],[-0.28412,0.94638],[0.83556,-2.78321]],[[295.07841,134.34692],[-1.85708,2.19366],[0.51061,-0.60316]],[[296.66263,132.58314],[-0.74777,0.25566],[0.9327,-0.31889]],[[299.61203,132.79688],[-0.98313,-0.07125],[2.16817,0.0135]],[[306.35256,134.25681],[-1.96555,-0.96935],[1.56852,0.77355]],[[310.80279,136.08153],[-2.01928,0.18229],[1.09354,-0.09872]],[[312.77213,133.44109],[-0.4522,1.00054],[0.60122,-1.33025]],[[313.03174,126.2776],[1.53828,1.2171],[-2.6499,-2.09663]],[[303.62559,121.14693],[3.08595,1.20164],[-2.08113,-0.81037]],[[294.72733,121.18703],[2.35852,0.02455],[-4.18424,-1.3661]],[[278.8509,120.68755],[4.17956,-2.64987],[-0.84759,0.53738]],[[276.562,122.64349],[0.88102,-0.48062],[-1.59473,0.86996]],[[270.98927,125.63183],[0.99115,-2.0381],[-0.89879,1.84819]],[[270.97284,131.05358],[-0.34445,-1.81294],[0.26688,-0.3342]],[[271.7966,130.06386],[-0.28247,0.32554],[0,0]],[[273.91322,129.92275],[-1.12886,-0.98776],[1.12887,0.98776]],[[274.05433,132.03937],[0,0],[-1.15386,1.30614]],[[271.00342,136.20922],[0.89619,-1.46416],[-0.39877,2.59231]],[[268.8389,143.84078],[0.85766,-2.59019],[0,0]],[268.51381,144.81606],[[266.61644,145.76474],[1.42303,0.47434],[0,0]]],&quot;closed&quot;:true,&quot;fillColor&quot;:[0,0,0,1],&quot;strokeWidth&quot;:0.5}]}" fill="#eb8753" stroke="none" stroke-width="0.25"/><path d="M410.37658,207.58645l1.44679,-0.40112c0.43317,0 3.45732,-0.01691 3.67617,0.06436c3.20187,1.18903 4.81221,4.76016 6.37822,7.49856c0,0 0.74421,1.30236 -0.55816,2.04657c-0.01367,0.00781 -0.02728,0.0154 -0.04083,0.02276c-0.01199,0.28323 -0.02167,0.5663 -0.02105,0.84861c-0.25518,0.84762 -0.06429,2.00264 -0.76553,2.54286c-2.12707,1.63865 -6.54877,1.05828 -9.09474,1.67657c-2.55752,0.62109 -5.72566,1.22563 -8.4477,0.67134c-4.79743,-0.97691 -8.93517,-5.01939 -13.92202,-5.83162c-0.98134,-0.15983 -1.99821,0.14132 -2.98281,0.00301c-2.74073,-0.38501 -5.29749,-2.24318 -7.73494,-3.35114c-1.05106,-0.47776 -2.36576,-0.46242 -3.24527,-1.21038c-0.71921,-0.61164 -0.79777,-1.71144 -1.19666,-2.56715c0.25435,-1.73904 0.35543,-4.16663 1.76948,-5.50278c1.76921,-1.67174 3.3842,-0.87826 5.33594,-0.71655c0.7517,0.06228 1.49884,0.03092 2.24378,-0.05514c0.6131,-0.92485 1.74221,-0.50143 1.74221,-0.50143c0.12757,0.04802 0.25525,0.09471 0.38304,0.14015c1.84527,-0.3849 3.69092,-0.87844 5.57326,-0.88395l-0.41236,-0.20896c0,0 1.06066,-1.06066 2.12132,0h-0.00002c1.06066,1.06066 0,2.12132 0,2.12132l-0.7173,0.45651c2.77722,0.38869 5.58244,0.62339 8.38996,1.22819c2.60495,0.56116 5.11957,2.19045 7.71441,2.58113c0.45832,0.069 0.93603,0.11738 1.42646,0.15388c0.26658,-0.60168 0.93834,-0.8256 0.93834,-0.8256zM384.98973,206.00878c-1.39371,0.27961 -2.79393,0.48429 -4.22894,0.36402c-0.15634,-0.0131 -2.55223,-0.68582 -3.09194,-0.06825c-0.36963,0.42295 -0.70259,2.3359 -0.82372,2.9251c0.43464,1.29373 4.98863,2.71796 6.52397,3.33039c3.03361,1.21007 5.84749,1.07235 8.90005,2.20124c4.65744,1.72239 9.18012,4.79131 14.12309,4.82276c3.35246,0.02133 6.47185,-1.03363 9.85971,-1.38935c0.72335,-0.07595 2.14073,-0.1068 2.02036,-0.8241c0.00184,-0.65615 0.11572,-2.04423 -0.0587,-3.14049c-0.34022,-0.63929 -0.71583,-1.30442 -1.13365,-1.91371c-2.36115,-1.7473 -7.32122,-0.74853 -9.54874,-1.09694c-2.68242,-0.41957 -5.16329,-2.03403 -7.84475,-2.60525c-4.96699,-1.0581 -9.87465,-1.05576 -14.69675,-2.60541z" fill="#000000" stroke="none" stroke-width="0.5"/><path d="M384.94571,205.98506c4.8221,1.54965 9.79628,1.52639 14.76327,2.58449c2.68146,0.57122 5.1892,2.2225 7.87162,2.64207c2.22752,0.34841 7.18819,-0.64377 9.54934,1.10353c0.41782,0.60929 0.79332,1.27912 1.13354,1.91841c0.17442,1.09626 0.05948,2.49167 0.05764,3.14782c0.12037,0.7173 -1.2978,0.75124 -2.02115,0.82719c-3.38786,0.35572 -6.51567,1.4273 -9.86813,1.40597c-4.94297,-0.03145 -9.55216,-3.11352 -14.2096,-4.83591c-3.05256,-1.12889 -5.86954,-1.00936 -8.90315,-2.21943c-1.53534,-0.61243 -6.08861,-2.04431 -6.52325,-3.33804c0.12113,-0.5892 0.45583,-2.50917 0.82546,-2.93212c0.53971,-0.61757 2.93643,0.05281 3.09277,0.06591c1.43501,0.12027 2.83793,-0.0903 4.23164,-0.36991z" data-paper-data="{&quot;noHover&quot;:false,&quot;origItem&quot;:[&quot;Path&quot;,{&quot;applyMatrix&quot;:true,&quot;segments&quot;:[[[384.98973,206.00878],[0,0],[-1.39371,0.27961]],[[380.76079,206.3728],[1.43501,0.12027],[-0.15634,-0.0131]],[[377.66885,206.30455],[0.53971,-0.61757],[-0.36963,0.42295]],[[376.84513,209.22965],[0.12113,-0.5892],[0.43464,1.29373]],[[383.3691,212.56004],[-1.53534,-0.61243],[3.03361,1.21007]],[[392.26915,214.76128],[-3.05256,-1.12889],[4.65744,1.72239]],[[406.39224,219.58404],[-4.94297,-0.03145],[3.35246,0.02133]],[[416.25195,218.19469],[-3.38786,0.35572],[0.72335,-0.07595]],[[418.27231,217.37059],[0.12037,0.7173],[0.00184,-0.65615]],[[418.21361,214.2301],[0.17442,1.09626],[-0.34022,-0.63929]],[[417.07996,212.31639],[0.41782,0.60929],[-2.36115,-1.7473]],[[407.53122,211.21945],[2.22752,0.34841],[-2.68242,-0.41957]],[[399.68647,208.6142],[2.68146,0.57122],[-4.96699,-1.0581]],[[384.98972,206.00879],[4.8221,1.54965],[0,0]]],&quot;closed&quot;:true,&quot;fillColor&quot;:[0,0,0,1],&quot;strokeWidth&quot;:0.5}]}" fill="#f49f3c" stroke="none" stroke-width="0.25"/><path d="M229.73979,223.91317c0,0 1.06066,1.06066 0,2.12132c-0.01395,0.01395 -0.02791,0.02754 -0.04186,0.04076v0.00001c1.71976,0.84553 3.09335,2.16734 3.39743,4.14253c0.14074,0.91418 -1.10602,1.48287 -1.66231,2.22183c-1.88762,2.50747 -4.58591,4.53489 -6.93993,6.61787c-2.5195,2.22941 -3.09013,5.47379 -5.958,7.5546c-3.64392,2.64388 -10.89293,1.57833 -13.98038,-1.50433c-0.59449,-0.59357 -1.60252,-3.25731 -1.96999,-4.16484c-1.45638,-3.3021 -1.84626,-6.67147 -3.09335,-10.03585c-0.54794,-1.47824 -1.98843,-4.92981 -1.79143,-6.49164c0.37312,-2.95822 2.36623,-2.69555 4.42954,-3.73329c0.97298,-0.48936 1.76582,-1.33886 2.79736,-1.68827c0.22662,-0.07676 4.34967,-0.05813 4.62746,-0.05813c0.94903,0 1.9346,0.00313 2.94148,0.02224c0.23885,-0.16965 0.47806,-0.33906 0.71743,-0.50844c1.41749,0.77052 3.04211,1.20823 4.76896,1.20823c0.57936,0 1.14722,-0.04927 1.69961,-0.14385c3.81034,0.60809 7.42482,1.85313 10.05798,4.39924zM220.11367,225.6195c-0.36267,-0.19328 -0.71413,-0.5679 -0.71413,-1.29398c0,-1.5 1.5,-1.5 1.5,-1.5l1.71686,0.94291c0.09835,0.46909 0.54493,1.01838 1.02414,1.00928c0.86163,0.00094 1.85931,0.08365 2.87775,0.27634c-4.89488,-3.72665 -13.4271,-3.02953 -19.23302,-3.11833c-1.36051,-0.02081 -2.6032,0.82864 -3.822,1.43359c-0.95052,0.4718 -2.86331,0.45531 -2.80014,1.5146c0.15214,2.55084 1.88458,5.03456 2.55481,7.46065c0.7783,2.81729 0.92579,4.7431 2.12852,7.42666c0.06225,0.15418 1.22308,3.1102 1.42786,3.31826c1.9357,1.96668 7.73438,2.87684 10.00665,1.08886c2.60659,-2.05105 3.2922,-5.14698 5.71137,-7.35626c1.88334,-1.71995 3.97916,-3.33411 5.77441,-5.12935c0.35709,-0.35709 0.51866,-0.8876 0.89993,-1.21874c0.25222,-0.21906 1.02628,-0.05119 0.93088,-0.37136c-0.58723,-1.97081 -5.1056,-2.34136 -6.75264,-2.33952c-0.81073,-0.22122 -1.78227,-0.1309 -2.43218,-0.66366c-0.4371,-0.35831 -0.61404,-0.92233 -0.79907,-1.47996z" fill="#000000" stroke="none" stroke-width="0.5"/><path d="M220.13931,225.57657c0.18503,0.55763 0.3689,1.12664 0.806,1.48495c0.64991,0.53276 1.62935,0.45102 2.44008,0.67224c1.64704,-0.00184 6.17362,0.3867 6.76085,2.35751c0.0954,0.32017 -0.67854,0.15282 -0.93076,0.37188c-0.38127,0.33114 -0.54215,0.86541 -0.89924,1.2225c-1.79525,1.79524 -3.89518,3.43746 -5.77852,5.15741c-2.41917,2.20928 -3.14366,5.33381 -5.75025,7.38486c-2.27227,1.78798 -8.11093,0.86539 -10.04663,-1.10129c-0.20478,-0.20806 -1.37461,-3.17484 -1.43686,-3.32902c-1.20273,-2.68356 -1.35751,-4.64063 -2.13581,-7.45792c-0.67023,-2.42609 -2.39601,-4.93027 -2.54815,-7.48111c-0.06317,-1.05929 1.85468,-1.04991 2.8052,-1.52171c1.2188,-0.60495 2.47091,-1.46295 3.83142,-1.44214c5.80592,0.0888 14.40653,-0.59762 19.30141,3.12903c-1.01844,-0.19269 -2.09019,-0.20872 -2.95182,-0.20966c-0.47921,0.0091 -0.92125,-0.53639 -1.0196,-1.00548l-1.71,-0.93864c0,0 -1.45713,-0.09029 -1.45713,1.40971c0,0.72608 0.35712,1.10361 0.71979,1.29689z" data-paper-data="{&quot;noHover&quot;:false,&quot;origItem&quot;:[&quot;Path&quot;,{&quot;applyMatrix&quot;:true,&quot;segments&quot;:[[[220.11367,225.6195],[0,0],[-0.36267,-0.19328]],[[219.39954,224.32552],[0,0.72608],[0,-1.5]],[220.89954,222.82552],[[222.6164,223.76843],[0,0],[0.09835,0.46909]],[[223.64054,224.77771],[-0.47921,0.0091],[0.86163,0.00094]],[[226.51829,225.05405],[-1.01844,-0.19269],[-4.89488,-3.72665]],[[207.28527,221.93572],[5.80592,0.0888],[-1.36051,-0.02081]],[[203.46327,223.36931],[1.2188,-0.60495],[-0.95052,0.4718]],[[200.66313,224.88391],[-0.06317,-1.05929],[0.15214,2.55084]],[[203.21794,232.34456],[-0.67023,-2.42609],[0.7783,2.81729]],[[205.34646,239.77122],[-1.20273,-2.68356],[0.06225,0.15418]],[[206.77432,243.08948],[-0.20478,-0.20806],[1.9357,1.96668]],[[216.78097,244.17834],[-2.27227,1.78798],[2.60659,-2.05105]],[[222.49234,236.82208],[-2.41917,2.20928],[1.88334,-1.71995]],[[228.26675,231.69273],[-1.79525,1.79524],[0.35709,-0.35709]],[[229.16668,230.47399],[-0.38127,0.33114],[0.25222,-0.21906]],[[230.09756,230.10263],[0.0954,0.32017],[-0.58723,-1.97081]],[[223.34492,227.76311],[1.64704,-0.00184],[-0.81073,-0.22122]],[[220.91274,227.09945],[0.64991,0.53276],[-0.4371,-0.35831]],[[220.11367,225.61949],[0.18503,0.55763],[0,0]]],&quot;closed&quot;:true,&quot;fillColor&quot;:[0,0,0,1],&quot;strokeWidth&quot;:0.5}]}" fill="#f49f3c" stroke="none" stroke-width="0.25"/><path d="M442.47527,226.42847c0.0085,0.00285 0.01691,0.0058 0.02522,0.00884c3.55348,1.30058 4.70985,5.16805 2.38475,7.9472c-3.37916,4.03905 -7.51604,7.3216 -12.24963,9.63438c-2.30204,2.35198 -5.11597,4.57545 -7.86805,6.21795c-1.28671,0.76793 -2.91163,0.93796 -4.09204,1.86098c-1.08161,0.84576 -2.23083,2.67224 -3.67764,3.14831c-1.55799,0.51265 -5.68656,-0.24088 -6.78524,-1.40277c-1.40025,-1.48079 -0.3708,-2.45948 -0.67257,-3.95053c-0.36075,-1.78248 -1.57424,-1.97959 -0.517,-4.19597c0.63757,-1.3366 2.67972,-1.84097 3.7747,-2.53758c1.77191,-1.12725 3.57611,-2.36276 5.27418,-3.61769c0.9531,-0.36233 1.86843,-0.75548 2.75829,-1.17359l-0.00001,-0.00001c-0.02269,-0.60973 0.39912,-1.0918 0.39912,-1.0918c4.15055,-4.68618 10.84266,-6.88402 16.47284,-9.49502c0.36838,-0.17084 1.08757,-0.51361 1.87908,-0.81966c-0.11553,-0.3963 -0.26621,-0.78644 -0.43932,-1.16979c1.08035,-0.28089 1.97937,-0.6267 2.72477,-1.09719c0.24162,0.56281 0.44909,1.13754 0.60854,1.73394zM440.02434,230.28257c0,0 -0.31154,0 -0.65066,-0.14198c-1.34847,0.67767 -2.78328,1.54975 -3.05456,1.68542c-0.78379,0.392 -1.58236,0.75507 -2.38449,1.10788c0.07517,0.73836 -0.54435,1.27628 -0.54435,1.27628l-1.55837,1.34584c-4.09054,2.48094 -7.79468,4.9458 -12.31871,6.61668c-1.61848,1.23467 -3.38818,2.42484 -5.09859,3.51359c-0.85121,0.54183 -2.19401,0.48407 -2.70828,1.35221c-0.41049,0.69295 0.6233,1.49691 0.77959,2.28701c0.16381,0.82814 -0.67298,1.99224 -0.02427,2.53245c0.39236,0.32674 3.05819,0.72371 3.58753,0.54213c1.22466,-0.42011 1.77383,-1.9039 2.80534,-2.68638c1.27129,-0.96436 2.96975,-1.2042 4.33583,-2.02881c2.70901,-1.63524 5.37103,-3.82052 7.69111,-6.09972c2.02754,-1.03348 3.55101,-2.07948 5.39825,-3.37956c1.53745,-1.08205 2.97386,-2.32667 4.25298,-3.7045c0.86828,-0.93529 2.60887,-1.42168 2.72147,-2.69291c0.07308,-0.82509 -0.65899,-2.16058 -1.48597,-2.46097z" fill="#000000" stroke="none" stroke-width="0.5"/><path d="M441.80712,229.31586c0.82698,0.30039 1.56347,1.64234 1.49039,2.46743c-0.1126,1.27123 -1.85161,1.76059 -2.71989,2.69588c-1.27912,1.37783 -2.71262,2.62984 -4.25007,3.71189c-1.84724,1.30008 -3.36951,2.37043 -5.39705,3.40391c-2.32008,2.2792 -5.05764,4.49708 -7.76665,6.13232c-1.36608,0.82461 -3.0729,1.05789 -4.34419,2.02225c-1.03151,0.78248 -1.58098,2.26597 -2.80564,2.68608c-0.52934,0.18158 -3.20034,-0.22139 -3.5927,-0.54813c-0.64871,-0.54021 0.18487,-1.70929 0.02106,-2.53743c-0.15629,-0.7901 -1.1931,-1.60043 -0.78261,-2.29338c0.51427,-0.86814 1.85672,-0.8113 2.70793,-1.35313c1.71041,-1.08875 3.47767,-2.28823 5.09615,-3.5229c4.52403,-1.67088 8.30931,-4.18229 12.39985,-6.66323l1.55984,-1.34458c0,0 0.61788,-0.53932 0.54271,-1.27768c0.80213,-0.35281 1.60407,-0.71287 2.38786,-1.10487c0.27128,-0.13567 1.70825,-1.0055 3.05672,-1.68317c0.33912,0.14198 0.65174,0.14322 0.65174,0.14322z" data-paper-data="{&quot;noHover&quot;:false,&quot;origItem&quot;:[&quot;Path&quot;,{&quot;applyMatrix&quot;:true,&quot;segments&quot;:[[440.02434,230.28257],[[439.37368,230.14059],[0.33912,0.14198],[-1.34847,0.67767]],[[436.31912,231.82601],[0.27128,-0.13567],[-0.78379,0.392]],[[433.93463,232.93389],[0.80213,-0.35281],[0.07517,0.73836]],[433.39028,234.21017],[[431.83191,235.55601],[0,0],[-4.09054,2.48094]],[[419.5132,242.17269],[4.52403,-1.67088],[-1.61848,1.23467]],[[414.41461,245.68628],[1.71041,-1.08875],[-0.85121,0.54183]],[[411.70633,247.03849],[0.51427,-0.86814],[-0.41049,0.69295]],[[412.48592,249.3255],[-0.15629,-0.7901],[0.16381,0.82814]],[[412.46165,251.85795],[-0.64871,-0.54021],[0.39236,0.32674]],[[416.04918,252.40008],[-0.52934,0.18158],[1.22466,-0.42011]],[[418.85452,249.7137],[-1.03151,0.78248],[1.27129,-0.96436]],[[423.19035,247.68489],[-1.36608,0.82461],[2.70901,-1.63524]],[[430.88146,241.58517],[-2.32008,2.2792],[2.02754,-1.03348]],[[436.27971,238.20561],[-1.84724,1.30008],[1.53745,-1.08205]],[[440.53269,234.50111],[-1.27912,1.37783],[0.86828,-0.93529]],[[443.25416,231.8082],[-0.1126,1.27123],[0.07308,-0.82509]],[[441.76819,229.34723],[0.82698,0.30039],[0,0]]],&quot;closed&quot;:true,&quot;fillColor&quot;:[0,0,0,1],&quot;strokeWidth&quot;:0.5}]}" fill="#f49f3c" stroke="none" stroke-width="0.25"/><path d="M406.45371,200.77377c-2.19905,-0.33459 -4.38539,-0.6457 -6.57089,-0.91629c2.02247,0.00555 4.04494,0.01431 6.06739,0.0272c0.79002,0.00504 1.67129,0.47017 2.53208,1.13289c-0.68792,-0.06451 -1.36553,-0.14292 -2.02858,-0.2438z" fill="#000000" stroke="none" stroke-width="0.5"/><path d="M322.86611,221.13255c0.41966,0.27977 0.60414,0.60658 0.66415,0.91716c4.66623,1.06625 8.66112,3.49943 13.47788,4.71648c2.45365,0.61996 5.50663,0.60012 8.04051,0.59742c2.19704,-0.00234 4.00668,-0.67586 6.1539,-0.9359c0.95995,-0.11626 2.20642,-0.69364 2.90081,-0.02071c0.81071,0.78567 0.3531,2.23012 0.52965,3.34518c-1.25849,3.56227 -3.61157,4.89048 -6.80669,6.84273c-2.2059,1.34783 -4.11829,4.00554 -6.60245,4.73841c-3.04983,0.89975 -9.72557,0.40374 -12.25118,-1.17898c-2.90605,-1.82113 -3.96,-5.89811 -6.80713,-7.77958c-1.28814,-0.85124 -3.19466,-0.62677 -4.31159,-1.69278c-0.7754,-0.74006 -1.02229,-1.88433 -1.53343,-2.82649c0.75751,-1.33777 1.40095,-2.42088 2.17467,-3.45664c-0.41252,-0.1638 -0.8785,-0.53387 -0.8785,-1.36991c0,-1.5 1.5,-1.5 1.5,-1.5c0.5571,0.00168 1.10137,0.02791 1.63465,0.07552l0.03461,-0.05587c0,0 0.83205,-1.24808 2.08013,-0.41603zM322.07569,224.79329c-0.9662,1.01558 -1.80151,2.09247 -2.75599,3.13356c1.0555,1.06457 3.26547,1.11678 4.52775,1.96371c2.85754,1.91725 3.99086,5.9435 6.80713,7.77958c1.86209,1.214 7.57465,1.33411 9.79096,0.76591c1.76449,-0.45236 4.18281,-3.39763 5.81361,-4.39926c1.99215,-1.22356 4.73089,-2.44613 5.41258,-4.76514c1.03712,-1.06642 -3.29825,0.95354 -4.89602,1.0882c-2.61146,0.22009 -5.39816,-0.13717 -7.99225,-0.32415c-5.9791,-0.43096 -10.87454,-4.20259 -16.70779,-5.2424z" fill="#000000" stroke="none" stroke-width="0.5"/><path d="M322.03126,224.77032c5.83325,1.03981 10.81703,4.81055 16.79613,5.24151c2.59409,0.18698 5.38646,0.56182 7.99792,0.34173c1.59777,-0.13466 5.93294,-2.15603 4.89582,-1.08961c-0.68169,2.31901 -3.42092,3.55961 -5.41307,4.78317c-1.6308,1.00163 -4.06852,3.97691 -5.83301,4.42927c-2.21631,0.5682 -7.99044,0.44611 -9.85253,-0.76789c-2.81627,-1.83608 -3.9669,-5.90865 -6.82444,-7.8259c-1.26228,-0.84693 -3.47154,-0.90272 -4.52704,-1.96729c0.95448,-1.04109 1.79404,-2.12943 2.76024,-3.14501z" data-paper-data="{&quot;noHover&quot;:false,&quot;origItem&quot;:[&quot;Path&quot;,{&quot;applyMatrix&quot;:true,&quot;segments&quot;:[[[322.07569,224.79329],[0,0],[-0.9662,1.01558]],[[319.3197,227.92685],[0.95448,-1.04109],[1.0555,1.06457]],[[323.84745,229.89056],[-1.26228,-0.84693],[2.85754,1.91725]],[[330.65458,237.67014],[-2.81627,-1.83608],[1.86209,1.214]],[[340.44554,238.43605],[-2.21631,0.5682],[1.76449,-0.45236]],[[346.25915,234.03679],[-1.6308,1.00163],[1.99215,-1.22356]],[[351.67173,229.27165],[-0.68169,2.31901],[1.03712,-1.06642]],[[346.77571,230.35985],[1.59777,-0.13466],[-2.61146,0.22009]],[[338.78346,230.0357],[2.59409,0.18698],[-5.9791,-0.43096]],[[322.07567,224.7933],[5.83325,1.03981],[0,0]]],&quot;closed&quot;:true,&quot;fillColor&quot;:[0,0,0,1],&quot;strokeWidth&quot;:0.5}]}" fill="#f49f3c" stroke="none" stroke-width="0.25"/><path d="M156.65801,321.58484v-277.04485h324.53826v277.04486z" fill="none" stroke="#000000" stroke-width="0"/></g></g></svg>