<svg version="1.1" xmlns="http://www.w3.org/2000/svg" xmlns:xlink="http://www.w3.org/1999/xlink" width="324.53826" height="277.04486" viewBox="0,0,324.53826,277.04486"><g transform="translate(-156.658,-44.53998)"><g data-paper-data="{&quot;isPaintingLayer&quot;:true}" fill-rule="nonzero" stroke-linecap="butt" stroke-linejoin="miter" stroke-miterlimit="10" stroke-dasharray="" stroke-dashoffset="0" style="mix-blend-mode: normal"><path d="M419.16035,212.03916c-0.10806,1.91003 -0.57011,3.78166 -2.24598,4.91328c-2.96514,2.00218 -6.63077,0.97523 -8.7793,-1.48248c-0.32094,0.31473 -0.67897,0.64406 -1.06422,0.99274c-0.44191,0.39997 -1.21073,0.12558 -1.7452,0.3894c-2.1201,1.04652 -3.62087,3.16673 -5.99391,3.95319c-2.94795,0.97699 -6.98013,0.40142 -10.05027,0.42459c-6.25925,0.62532 -11.93308,-0.18857 -18.1033,-0.95954c-2.83628,-0.35439 -6.29858,-1.44932 -8.8918,0.40488c-0.18937,0.1354 0.45378,0.12698 0.68658,0.12795c1.08017,0.00453 2.1631,0.14854 3.21816,0.38012c1.00177,0.21988 1.93237,0.69379 2.92083,0.96734c5.39594,1.49331 10.78873,3.6853 16.30148,4.56749c0.99716,0.6119 2.31529,0.88097 2.99148,1.8357c3.03054,4.27886 -4.41638,6.20419 -7.13542,6.57164c-6.18457,0.83577 -12.99094,-0.81652 -18.95705,-1.94489c-2.08564,-0.39446 -4.56238,0.08988 -6.68897,-0.14472c-4.31615,-0.47615 -8.52963,-0.48393 -12.88792,-0.48486c-6.76232,-0.39607 -13.7321,0.01379 -20.40816,-1.33856c-2.39332,-0.48481 -4.46084,-1.84808 -6.93998,-2.23539c-1.06225,-0.16595 -2.10355,0.44749 -3.16169,0.63789c-3.70984,0.66753 -7.67478,0.78403 -11.40222,1.30473c-3.30138,0.46118 -6.60822,-0.22696 -9.92419,0.40513c-11.27432,2.11193 -25.09722,2.73965 -35.74039,-2.04607c-2.17825,-0.97945 -5.01377,-3.04076 -6.86415,-4.60933c-0.99596,-0.84428 -2.50189,-1.38166 -2.91004,-2.62188c-1.47692,-4.48784 5.10822,-4.16523 7.28142,-4.16523c2.28679,0 3.66464,-0.18512 5.83705,-0.61338c1.53931,-0.30345 3.23316,0.28213 4.69857,-0.27834c4.11299,-1.57309 7.12287,-6.06762 11.70695,-6.5586c4.41481,-0.47284 8.32881,1.07669 12.3551,1.98194l0.00001,-0.00003c0.43241,-0.0959 0.82252,0.01556 0.82252,0.01556l1.33111,0.39004c0.76205,0.11067 1.53178,0.18249 2.31317,0.19815c5.29266,-0.05737 10.61352,-0.10648 15.86454,0.33385c1.47805,0.12394 2.7137,1.21358 4.12698,1.6637c4.10113,1.30616 10.22694,0.56458 14.13385,-0.7865c6.78759,-2.70422 14.20488,-3.28453 21.29825,-4.11706c3.75615,-0.44085 7.33185,-1.99471 11.07819,-2.2742c6.32255,-0.47169 12.54543,-0.67083 18.99755,-0.64128c7.32825,0.03451 14.64298,0.14229 21.84478,1.54366c1.76052,0.34257 5.20982,0.37682 7.38096,1.02218c0.81402,-3.21568 5.27325,-3.6399 8.30546,-2.9417c1.43559,0.33056 3.19059,-0.31884 4.3861,0.54192c0.70316,0.50627 0.80005,1.53717 1.20007,2.30576l0.10728,0.88124c0,0 0,1.35952 -1.2943,1.48997zM416.23307,210.07702c-1.72767,-0.17752 -3.30559,-1.19986 -4.95473,-0.68322c-0.9636,0.30188 -2.4305,0.68962 -1.89919,2.05157c0.89423,2.29224 3.12347,4.796 5.78109,3.07333c1.16639,-0.75606 1.16018,-2.8429 1.07283,-4.44168zM286.74318,215.05014c-2.57489,-0.74199 -5.11215,-1.63653 -7.82094,-1.62332c-1.21829,0.00594 -4.04045,-0.41796 -5.24459,0.2032c-3.17672,1.63875 -6.12591,4.96941 -9.50497,6.19905c-1.57856,0.57444 -3.37967,0.03567 -5.0259,0.36995c-2.32471,0.47205 -4.05623,0.68322 -6.48062,0.68322c-1.09403,0 -2.19174,-0.11801 -3.28198,-0.02707c-0.39066,0.03259 -1.41838,0.16311 -1.10597,0.39992c4.0894,3.09977 8.70243,5.6675 13.58178,7.13457c8.67882,2.60944 19.69318,1.63682 28.48646,-0.01352c3.38244,-0.62488 6.76318,0.05564 10.11051,-0.43403c3.68941,-0.53972 7.62194,-0.6145 11.28822,-1.28847c1.31919,-0.2425 2.64,-0.83547 3.96959,-0.65871c2.65389,0.35281 4.79224,1.80936 7.32258,2.30269c6.48035,1.26345 13.22868,0.86717 19.78633,1.25464c4.43789,-0.00097 8.73044,0.00937 13.12769,0.50154c2.22109,0.2486 4.65519,-0.21808 6.84162,0.16548c2.85021,0.50001 5.75552,1.22089 8.67543,1.61033c3.48671,0.46505 7.69274,0.79216 11.05296,-0.26315c2.51008,-0.78832 4.94984,-0.52385 1.9032,-2.01602c-6.45483,-0.94941 -12.51334,-4.00134 -18.8847,-5.43871c-1.72678,-0.38956 -4.22324,0.75051 -5.26692,-0.67927c-0.80693,-1.10545 -1.23421,-2.78847 -0.6954,-4.04657c0.87533,-2.04387 4.66897,-2.74918 6.53293,-2.80022c4.17211,-0.11423 8.38829,1.50177 12.4892,1.95383c3.38379,0.37301 7.13966,0.0331 10.52024,-0.30529c2.69041,-0.0231 6.66441,0.59791 9.26313,-0.27499c2.18404,-0.73361 3.68964,-2.82178 5.67546,-3.82639c0.85146,-0.43074 2.02323,-0.40777 2.64762,-1.11307c-0.01322,-0.03833 -0.02612,-0.0768 -0.03869,-0.11541c-0.11287,0.00981 -0.28732,0.04762 -0.37714,0.03996c-0.61004,-0.05206 -1.22139,-0.09762 -1.8276,-0.18343c-2.09571,-0.29666 -3.88539,-0.67221 -5.96113,-1.07637c-7.01502,-1.36586 -14.14617,-1.45664 -21.28535,-1.48842c-6.39401,-0.0293 -12.50199,0.20915 -18.77114,0.63376c-3.67789,0.2491 -7.26392,1.82758 -10.96395,2.26389c-6.83756,0.80628 -14.03577,1.31833 -20.57731,3.94597c-4.49389,1.55564 -11.20174,2.29475 -15.9517,0.87495c-1.27072,-0.37983 -2.32844,-1.50287 -3.65259,-1.5778c-5.84111,-0.33051 -11.69193,-0.28479 -17.5643,-0.33135l-2.47307,-0.69151c0,0 -0.25441,-0.07269 -0.519,-0.26386z" fill="#000000" stroke="none" stroke-width="0.5"/><path d="M415.19593,214.55372c-2.65762,1.72267 -4.97144,-0.82657 -5.86567,-3.11881c-0.53131,-1.36195 0.96086,-1.7833 1.92446,-2.08518c1.64914,-0.51664 3.29349,0.52392 5.02116,0.70144c0.08735,1.59878 0.08644,3.74649 -1.07995,4.50255z" data-paper-data="{&quot;noHover&quot;:false,&quot;origItem&quot;:[&quot;Path&quot;,{&quot;applyMatrix&quot;:true,&quot;segments&quot;:[[[416.23307,210.07702],[0.08735,1.59878],[-1.72767,-0.17752]],[[411.27834,209.3938],[1.64914,-0.51664],[-0.9636,0.30188]],[[409.37915,211.44537],[-0.53131,-1.36195],[0.89423,2.29224]],[[415.16024,214.5187],[-2.65762,1.72267],[1.16639,-0.75606]]],&quot;closed&quot;:true,&quot;fillColor&quot;:[0,0,0,1],&quot;strokeWidth&quot;:0.5}]}" fill="#ff9449" stroke="none" stroke-width="0.25"/><path d="M286.7926,215.05764c0.26459,0.19117 0.51903,0.26364 0.51903,0.26364l2.37408,0.67737c5.87237,0.04656 11.72413,-0.00409 17.56524,0.32642c1.32415,0.07493 2.38144,1.19992 3.65216,1.57975c4.74996,1.4198 11.50022,0.64098 15.99411,-0.91466c6.54154,-2.62764 13.79268,-3.10896 20.63024,-3.91524c3.70003,-0.43631 7.28714,-2.01187 10.96503,-2.26097c6.26915,-0.42461 12.37854,-0.65797 18.77255,-0.62867c7.13918,0.03178 14.27107,0.12673 21.28609,1.49259c2.07574,0.40416 3.86557,0.7809 5.96128,1.07756c0.60621,0.08581 1.21759,0.13161 1.82763,0.18367c0.08982,0.00766 0.26427,-0.03015 0.37714,-0.03996c0.01257,0.03861 0.02548,0.07715 0.0387,0.11548c-0.62439,0.7053 -1.79611,0.68287 -2.64757,1.11361c-1.98582,1.00461 -3.49126,3.09509 -5.6753,3.8287c-2.59872,0.8729 -6.67261,0.25662 -9.36302,0.27972c-3.38058,0.33839 -7.13644,0.6785 -10.52023,0.30549c-4.10091,-0.45206 -8.3168,-2.06472 -12.48891,-1.95049c-1.86396,0.05104 -5.55804,0.74751 -6.43337,2.79138c-0.53881,1.2581 -0.11156,2.94734 0.69537,4.05279c1.04368,1.42978 3.54011,0.29013 5.26689,0.67969c6.37136,1.43737 12.42949,4.49275 18.88432,5.44216c3.04664,1.49217 0.60655,1.2297 -1.90353,2.01802c-3.36022,1.05531 -7.56678,0.73068 -11.05349,0.26563c-2.91991,-0.38944 -5.82537,-1.1097 -8.67558,-1.60971c-2.18643,-0.38356 -4.62122,0.08558 -6.84231,-0.16302c-4.39725,-0.49217 -8.6936,-0.49349 -13.13149,-0.49252c-6.55765,-0.38747 -13.37648,0.02737 -19.85683,-1.23608c-2.53034,-0.49333 -4.68849,-1.97347 -7.34238,-2.32628c-1.32959,-0.17676 -2.65133,0.41373 -3.97052,0.65623c-3.66628,0.67397 -7.60007,0.7445 -11.28948,1.28422c-3.34733,0.48967 -6.72864,-0.19346 -10.11108,0.43142c-8.79328,1.65034 -19.80825,2.61893 -28.48707,0.00949c-4.87935,-1.46707 -9.49268,-4.04021 -13.58208,-7.13998c-0.31241,-0.23681 0.71531,-0.36759 1.10597,-0.40018c1.09024,-0.09094 2.18795,0.02708 3.28198,0.02708c2.42439,0 4.15592,-0.21169 6.48063,-0.68374c1.64623,-0.33428 3.44735,0.20414 5.02591,-0.3703c3.37906,-1.22964 6.32873,-4.56619 9.50545,-6.20494c1.20414,-0.62116 4.02644,-0.1982 5.24473,-0.20414c2.70879,-0.01321 5.34485,0.89677 7.91974,1.63876z" data-paper-data="{&quot;noHover&quot;:false,&quot;origItem&quot;:[&quot;Path&quot;,{&quot;applyMatrix&quot;:true,&quot;segments&quot;:[[[286.74318,215.05014],[0,0],[-2.57489,-0.74199]],[[278.92224,213.42682],[2.70879,-0.01321],[-1.21829,0.00594]],[[273.67765,213.63002],[1.20414,-0.62116],[-3.17672,1.63875]],[[264.17268,219.82907],[3.37906,-1.22964],[-1.57856,0.57444]],[[259.14678,220.19902],[1.64623,-0.33428],[-2.32471,0.47205]],[[252.66616,220.88224],[2.42439,0],[-1.09403,0]],[[249.38418,220.85517],[1.09024,-0.09094],[-0.39066,0.03259]],[[248.27821,221.25509],[-0.31241,-0.23681],[4.0894,3.09977]],[[261.85999,228.38966],[-4.87935,-1.46707],[8.67882,2.60944]],[[290.34645,228.37614],[-8.79328,1.65034],[3.38244,-0.62488]],[[300.45696,227.94211],[-3.34733,0.48967],[3.68941,-0.53972]],[[311.74518,226.65364],[-3.66628,0.67397],[1.31919,-0.2425]],[[315.71477,225.99493],[-1.32959,-0.17676],[2.65389,0.35281]],[[323.03735,228.29762],[-2.53034,-0.49333],[6.48035,1.26345]],[[342.82368,229.55226],[-6.55765,-0.38747],[4.43789,-0.00097]],[[355.95137,230.0538],[-4.39725,-0.49217],[2.22109,0.2486]],[[362.79299,230.21928],[-2.18643,-0.38356],[2.85021,0.50001]],[[371.46842,231.82961],[-2.91991,-0.38944],[3.48671,0.46505]],[[382.52138,231.56646],[-3.36022,1.05531],[2.51008,-0.78832]],[[384.42458,229.55044],[3.04664,1.49217],[-6.45483,-0.94941]],[[365.53988,224.11173],[6.37136,1.43737],[-1.72678,-0.38956]],[[360.27296,223.43246],[1.04368,1.42978],[-0.80693,-1.10545]],[[359.57756,219.38589],[-0.53881,1.2581],[0.87533,-2.04387]],[[366.11049,216.58567],[-1.86396,0.05104],[4.17211,-0.11423]],[[378.59969,218.5395],[-4.10091,-0.45206],[3.38379,0.37301]],[[389.11993,218.23421],[-3.38058,0.33839],[2.69041,-0.0231]],[[398.38306,217.95922],[-2.59872,0.8729],[2.18404,-0.73361]],[[404.05852,214.13283],[-1.98582,1.00461],[0.85146,-0.43074]],[[406.70614,213.01976],[-0.62439,0.7053],[-0.01322,-0.03833]],[[406.66745,212.90435],[0.01257,0.03861],[-0.11287,0.00981]],[[406.29031,212.94431],[0.08982,0.00766],[-0.61004,-0.05206]],[[404.46271,212.76088],[0.60621,0.08581],[-2.09571,-0.29666]],[[398.50158,211.68451],[2.07574,0.40416],[-7.01502,-1.36586]],[[377.21623,210.19609],[7.13918,0.03178],[-6.39401,-0.0293]],[[358.44509,210.82985],[6.26915,-0.42461],[-3.67789,0.2491]],[[347.48114,213.09374],[3.70003,-0.43631],[-6.83756,0.80628]],[[326.90383,217.03971],[6.54154,-2.62764],[-4.49389,1.55564]],[[310.95213,217.91466],[4.74996,1.4198],[-1.27072,-0.37983]],[[307.29954,216.33686],[1.32415,0.07493],[-5.84111,-0.33051]],[[289.73524,216.00551],[5.87237,0.04656],[0,0]],[287.26217,215.314],[[286.74317,215.05014],[0.26459,0.19117],[0,0]]],&quot;closed&quot;:true,&quot;fillColor&quot;:[0,0,0,1],&quot;strokeWidth&quot;:0.5}]}" fill="#ff9449" stroke="none" stroke-width="0.25"/><path d="M425.79532,235.9717c3.1638,-1.28772 6.94224,-2.01166 10.16289,-1.63159c3.32468,0.39235 5.611,2.30509 3.3328,5.94272c-0.54622,0.87215 -1.60469,1.31695 -2.52685,1.77369c-3.24376,1.60659 -14.37083,3.57837 -14.76942,-2.08705c-0.03524,-0.50084 0.2872,-0.91608 0.64027,-1.32399c-0.19417,-0.97556 0.76182,-1.52184 0.76182,-1.52184c0.22479,-0.12697 0.4558,-0.25113 0.69239,-0.3722l0.14841,-0.19788c0,0 0.63883,-0.85178 1.55769,-0.58186zM426.07007,239.11031l-0.40488,0.53984c-1.82655,1.28337 1.70928,0.84109 2.36564,0.84149c2.41926,0.00146 5.19913,-0.22548 7.47413,-1.15807c0.52413,-0.21486 1.84529,-0.83446 1.80108,-1.72592c-0.01504,-0.30323 -3.0643,-0.27463 -3.11637,-0.27485c-2.68145,-0.01134 -5.62693,0.60843 -8.11959,1.7775z" fill="#000000" stroke="none" stroke-width="0.5"/><path d="M426.0201,239.11187c2.49266,-1.16907 5.53201,-1.81435 8.21346,-1.80301c0.05207,0.00022 3.10626,-0.01521 3.1213,0.28802c0.04421,0.89146 -1.27598,1.52631 -1.80011,1.74117c-2.275,0.93259 -5.1497,1.17679 -7.56896,1.17533c-0.65636,-0.0004 -4.19677,0.4264 -2.37022,-0.85697l0.40451,-0.54453z" data-paper-data="{&quot;noHover&quot;:false,&quot;origItem&quot;:[&quot;Path&quot;,{&quot;applyMatrix&quot;:true,&quot;segments&quot;:[[426.07007,239.11031],[[425.66519,239.65015],[0,0],[-1.82655,1.28337]],[[428.03083,240.49164],[-0.65636,-0.0004],[2.41926,0.00146]],[[435.50496,239.33357],[-2.275,0.93259],[0.52413,-0.21486]],[[437.30604,237.60765],[0.04421,0.89146],[-0.01504,-0.30323]],[[434.18967,237.3328],[0.05207,0.00022],[-2.68145,-0.01134]],[[426.07008,239.1103],[2.49266,-1.16907],[0,0]]],&quot;closed&quot;:true,&quot;fillColor&quot;:[0,0,0,1],&quot;strokeWidth&quot;:0.5}]}" fill="#ff9449" stroke="none" stroke-width="0.25"/><path d="M205.94897,220.5978c0,0.20341 -0.02758,0.37924 -0.07527,0.53123c3.87494,1.46847 6.81334,5.01756 5.18813,9.65711c-0.95128,2.71567 -5.37717,6.7684 -8.6485,5.05537c-2.3125,-1.21094 -3.37637,-5.12156 -4.20564,-7.19818c-1.0407,-2.60604 -1.34696,-3.41676 -0.19736,-6.27807c1.78229,-1.81236 3.00212,-2.70954 5.49617,-3.23833l0.94247,-0.02913c0,0 1.5,0 1.5,1.5zM201.42476,223.2043c-0.28894,0.22734 -0.58313,0.49491 -0.90991,0.81243c-0.42698,1.07704 0.02002,2.37093 0.45094,3.4464c0.82848,2.0677 1.2796,4.09437 2.92564,5.76778c0.32262,0.32798 3.47207,-1.76874 3.64697,-1.95645c3.65846,-3.92624 -1.84447,-8.02983 -5.35846,-7.88007c0,0 -0.37845,0 -0.75517,-0.1901z" fill="#000000" stroke="none" stroke-width="0.5"/><path d="M201.39843,223.16179c0.37672,0.1901 0.75958,0.18767 0.75958,0.18767c3.51399,-0.14976 9.07395,4.03438 5.41549,7.96062c-0.1749,0.18771 -3.36591,2.29839 -3.68853,1.97041c-1.64604,-1.67341 -2.13957,-3.7602 -2.96805,-5.8279c-0.43092,-1.07547 -0.86358,-2.39497 -0.4366,-3.47201c0.32678,-0.31752 0.62916,-0.59143 0.9181,-0.81877z" data-paper-data="{&quot;noHover&quot;:false,&quot;origItem&quot;:[&quot;Path&quot;,{&quot;applyMatrix&quot;:true,&quot;segments&quot;:[[[201.42476,223.2043],[0,0],[-0.28894,0.22734]],[[200.51485,224.01673],[0.32678,-0.31752],[-0.42698,1.07704]],[[200.96579,227.46313],[-0.43092,-1.07547],[0.82848,2.0677]],[[203.89143,233.23091],[-1.64604,-1.67341],[0.32262,0.32798]],[[207.5384,231.27446],[-0.1749,0.18771],[3.65846,-3.92624]],[[202.17994,223.39439],[3.51399,-0.14976],[0,0]],[[201.42477,223.20429],[0.37672,0.1901],[0,0]]],&quot;closed&quot;:true,&quot;fillColor&quot;:[0,0,0,1],&quot;strokeWidth&quot;:0.5}]}" fill="#ff9449" stroke="none" stroke-width="0.25"/><path d="M268.45261,128.31219c2.39039,-6.33037 8.79053,-10.35603 15.44869,-11.61753c2.63493,-0.49923 6.69004,0.28173 9.05921,1.74929c0.84522,0.52356 1.95956,1.12169 2.11439,2.10379c0.44289,2.80923 -3.8459,4.2459 -5.66143,4.58524c-2.4987,0.83714 -5.29149,2.12122 -7.87106,2.61291c-0.53812,0.10257 -1.11915,-0.25639 -1.64097,-0.08966c-1.47633,0.4717 -1.08297,2.59774 -1.3832,3.4969c-0.90446,2.70882 -1.4019,3.17973 -4.13694,3.72919c-2.86802,0.57618 -10.69428,2.34328 -9.08152,-3.35125c0.21894,-0.77306 1.08117,-1.18882 1.62176,-1.78323l0.46088,-0.74384c0,0 0.40358,-0.60536 1.07019,-0.69182zM268.67204,132.19045c-1.76665,1.60752 1.72813,-0.07992 2.95968,-0.26939c0.20837,-0.03206 2.8866,0.2011 3.47141,-0.30085c1.13181,-0.97144 0.61511,-3.57175 1.74539,-4.97632c0.95014,-1.18072 2.66729,-1.55324 4.1537,-1.84896c2.51782,-0.50092 5.24152,-1.76184 7.6881,-2.57348c0.56497,-0.07935 1.16969,-0.01527 1.69491,-0.23805c0.33714,-0.14301 0.70612,-0.59847 1.03482,-0.88901c-0.63949,-0.12311 -1.26207,-0.33204 -1.88092,-0.53591c-2.04802,-0.67468 -2.84308,-1.39276 -5.06112,-0.91978c-6.07188,1.29479 -12.53519,4.96767 -13.72834,11.46397c0,0 -0.29417,1.47087 -1.76505,1.1767c-0.11458,-0.02292 -0.21845,-0.05297 -0.31259,-0.08892z" fill="#000000" stroke="none" stroke-width="0.5"/><path d="M268.71603,132.1667c0.09414,0.03595 0.19757,0.0652 0.31215,0.08812c1.47088,0.29417 1.67756,-1.12827 1.67756,-1.12827c1.19315,-6.4963 7.72946,-10.23374 13.80134,-11.52853c2.21804,-0.47298 3.02733,0.26077 5.07535,0.93545c0.61885,0.20387 1.24393,0.41775 1.88342,0.54086c-0.3287,0.29054 -0.697,0.74762 -1.03414,0.89063c-0.52522,0.22278 -1.22209,0.19749 -1.78706,0.27684c-2.44658,0.81164 -5.15733,2.09002 -7.67515,2.59094c-1.48641,0.29572 -3.12144,0.62271 -4.07158,1.80343c-1.13028,1.40457 -0.69567,4.05043 -1.82748,5.02187c-0.58481,0.50195 -3.27127,0.2597 -3.47964,0.29176c-1.23155,0.18947 -4.72941,1.87192 -2.96276,0.2644z" data-paper-data="{&quot;noHover&quot;:false,&quot;origItem&quot;:[&quot;Path&quot;,{&quot;applyMatrix&quot;:true,&quot;segments&quot;:[[[268.67204,132.19045],[0,0],[-1.76665,1.60752]],[[271.63172,131.92106],[-1.23155,0.18947],[0.20837,-0.03206]],[[275.10313,131.62021],[-0.58481,0.50195],[1.13181,-0.97144]],[[276.84852,126.64389],[-1.13028,1.40457],[0.95014,-1.18072]],[[281.00222,124.79493],[-1.48641,0.29572],[2.51782,-0.50092]],[[288.69032,122.22145],[-2.44658,0.81164],[0.56497,-0.07935]],[[290.38523,121.9834],[-0.52522,0.22278],[0.33714,-0.14301]],[[291.42005,121.09439],[-0.3287,0.29054],[-0.63949,-0.12311]],[[289.53913,120.55848],[0.61885,0.20387],[-2.04802,-0.67468]],[[284.47801,119.6387],[2.21804,-0.47298],[-6.07188,1.29479]],[[270.74967,131.10267],[1.19315,-6.4963],[0,0]],[[268.98462,132.27937],[1.47088,0.29417],[-0.11458,-0.02292]],[[268.67203,132.19045],[0.09414,0.03595],[0,0]]],&quot;closed&quot;:true,&quot;fillColor&quot;:[0,0,0,1]}]}" fill="#eb8753" stroke="none" stroke-width="0.5"/><path d="M156.65801,321.58484v-277.04485h324.53826v277.04486z" fill="none" stroke="#000000" stroke-width="0"/></g></g></svg>