<svg version="1.1" xmlns="http://www.w3.org/2000/svg" xmlns:xlink="http://www.w3.org/1999/xlink" width="324.53826" height="277.04486" viewBox="0,0,324.53826,277.04486"><g transform="translate(-156.658,-44.53998)"><g data-paper-data="{&quot;isPaintingLayer&quot;:true}" fill-rule="nonzero" stroke-linecap="butt" stroke-linejoin="miter" stroke-miterlimit="10" stroke-dasharray="" stroke-dashoffset="0" style="mix-blend-mode: normal"><path d="M277.56191,218.59367c-1.69484,1.21609 -3.46385,2.32414 -5.29344,3.23865c-1.23454,0.61708 -4.13318,1.42134 -5.38055,2.08767c-1.4771,0.78905 -2.94901,1.82889 -4.61669,1.98145c-3.42243,0.31309 -6.2681,-0.74022 -9.48356,-1.31855c-0.90304,-0.16242 -3.7571,-0.52325 -3.25606,1.06077c6.76317,6.52087 19.72995,5.46422 28.21554,4.09709c3.0962,-0.49884 6.00824,-2.61586 9.07795,-3.24183c3.54084,-0.72205 8.19661,-0.09066 11.71005,0.29972c3.51205,0.0078 6.63866,0.68985 10.15511,0.32791c3.32046,-0.34177 7.2201,-0.57978 10.41701,-1.56836c2.80256,-0.86664 5.7094,-2.05304 8.69469,-2.32019c4.28054,-0.38305 8.70359,0.20818 12.96596,-0.32415c2.32181,-0.28997 4.11963,-0.65863 6.44751,-0.64436c9.65393,-2.41348 20.64728,-1.26856 30.53856,-1.83175c3.4804,-0.19817 7.40012,0.57726 10.85214,-0.09732c1.57428,-0.30764 2.69553,-1.75495 4.13847,-2.4556c2.40393,-1.16727 5.4526,-1.60554 7.97063,-2.67479c2.7084,-0.74028 5.56085,-1.70051 8.41961,-1.37236c3.65943,0.42006 7.74457,2.45358 11.41829,1.35148c1.38223,-0.41466 2.46265,-1.12801 3.61117,-2.04899c0.76647,-0.61463 1.37868,-1.40652 2.14448,-2.02199c0.36072,-0.28991 1.53519,-0.79627 1.07894,-0.87371c-3.55489,-0.60334 -7.854,-0.5317 -11.34981,-1.5734c-2.83108,-0.84362 -3.82588,-1.59091 -6.72673,-1.56516c-4.911,0 -8.96709,1.43826 -13.65475,2.24198c-3.15911,0.54165 -6.56916,0.36287 -9.72447,0.97245c-1.37328,0.2653 -2.49676,1.36145 -3.87185,1.61718c-6.96476,1.29523 -14.20121,-0.62318 -21.25275,0.93627c-6.46946,2.59411 -12.1168,4.46666 -19.10954,4.92307c-2.64512,0.17265 -5.25621,-0.54336 -7.79728,-0.98097c-1.38427,-0.23839 -2.82136,0.18373 -4.21394,0c-5.68195,-0.74965 -11.21634,-2.25455 -16.97185,-2.25455c-4.21466,-0.00283 -7.77832,-0.14946 -11.87742,-0.6628c-1.95483,-0.24481 -3.9599,0.26538 -5.91029,-0.01257c-3.27424,-0.46661 -7.21553,-1.28452 -10.58722,-0.37406c-1.67091,0.4512 -3.15129,3.17076 -4.54798,4.06689c-0.68457,0.43922 -1.49161,0.67176 -2.22995,1.01487zM281.12772,212.19604c0.66684,-0.66955 1.38758,-1.25181 2.26345,-1.53017c3.74613,-1.19059 8.43474,-0.27205 12.10322,0.27424c1.89876,0.28275 3.85328,-0.24319 5.75907,-0.01257c3.96756,0.48012 7.37145,0.63641 11.46132,0.6338c5.90618,0 11.56671,1.49805 17.38795,2.28354c1.39203,0.18783 2.8273,-0.22422 4.21394,0c2.31323,0.37406 4.70543,1.12775 7.11358,0.96393c6.82122,-0.46405 12.17347,-2.27946 18.49175,-4.8014c4.62528,-1.03218 9.02513,-1.03926 13.7328,-1.03926c2.32258,0 5.51621,0.44851 7.80213,0.03063c1.38763,-0.25366 2.52588,-1.34083 3.90773,-1.62431c3.14231,-0.64464 6.57742,-0.46532 9.72447,-0.97245c1.3339,-0.21495 2.52421,-0.99582 3.84358,-1.28694c3.47627,-0.76703 6.83917,-1.00917 10.37849,-1.00917c3.32753,0.02437 5.70553,1.70948 8.90017,1.95223c1.81084,0.1376 3.6612,-0.01241 5.43515,0.37635c0.98314,0.21546 1.89715,0.67712 2.86506,0.95304c0.97981,0.27931 2.31176,-0.0643 2.97267,0.7111c3.18049,3.73146 -3.67908,7.81146 -6.18462,9.20758c-4.6354,2.58292 -9.67751,0.12416 -14.46039,-0.48313c-2.38634,-0.303 -4.88509,0.6075 -7.13955,1.22083c-2.38823,1.01914 -5.33079,1.39596 -7.58853,2.5116c-1.68621,0.83322 -3.09923,2.3338 -4.9377,2.73079c-3.55348,0.76732 -7.68431,-0.06448 -11.2699,0.14772c-9.82168,0.58126 -20.73135,-0.58455 -30.32157,1.813c-6.39571,0.03342 -13.07777,0.49166 -19.48441,0.97639c-2.78464,0.21069 -5.55202,1.41812 -8.16106,2.2179c-3.38924,1.03894 -7.46005,1.31207 -10.97683,1.67313c-3.66284,0.37605 -6.9471,-0.32894 -10.59043,-0.32038c-3.25026,-0.36114 -7.71181,-1.03926 -10.98038,-0.34858c-3.05977,0.64656 -5.96756,2.70879 -9.0744,3.24115c-10.08862,1.72869 -23.74863,2.229 -31.42789,-5.62738c-0.39119,-2.24057 -1.23974,-3.31671 1.19162,-4.90687c2.14249,-1.40124 4.80112,-0.24821 6.89754,0.13295c2.3064,0.41935 4.64137,0.7654 7.04805,0.62634c1.26204,-0.07292 2.3109,-1.03073 3.42671,-1.62489c1.69678,-0.90351 3.65743,-1.22563 5.3767,-2.08557c0.75645,-0.37836 1.50214,-0.7915 2.23592,-1.2328c0.23912,-0.49212 0.73124,-0.73818 0.73124,-0.73818l1.06742,-0.50666c0.28317,-0.20781 0.58784,-0.37998 0.90306,-0.53489c1.57839,-1.12741 3.08931,-2.35514 4.51972,-3.60792c0,0 0.35603,-0.31153 0.84316,-0.38473z" fill="#000000" stroke="none" stroke-width="0.5"/><path d="M277.51189,218.59338c0.73834,-0.34311 1.54539,-0.57652 2.22996,-1.01574c1.39669,-0.89613 2.87731,-3.61952 4.54822,-4.07072c3.37169,-0.91046 7.31306,-0.09332 10.5873,0.37329c1.95039,0.27795 3.95557,-0.23311 5.9104,0.0117c4.0991,0.51334 7.66302,0.65823 11.87768,0.66106c5.75551,0 11.29059,1.50155 16.97254,2.2512c1.39258,0.18373 2.8329,-0.24767 4.21717,-0.00928c2.54107,0.43761 5.24466,1.15792 7.88978,0.98527c6.99274,-0.45641 12.6412,-2.32536 19.11066,-4.91947c7.05154,-1.55945 14.2891,0.36413 21.25386,-0.9311c1.37509,-0.25573 2.40001,-1.33502 3.77329,-1.60032c3.15531,-0.60958 6.66387,-0.448 9.82298,-0.98965c4.68766,-0.80372 8.74376,-2.24195 13.65476,-2.24195c2.90085,-0.02575 3.8959,0.72322 6.72698,1.56684c3.49581,1.0417 7.79512,0.97176 11.35001,1.5751c0.45625,0.07744 -0.71818,0.58423 -1.0789,0.87414c-0.7658,0.61547 -1.37793,1.40842 -2.1444,2.02305c-1.14852,0.92098 -2.22888,1.63542 -3.61111,2.05008c-3.67372,1.1021 -7.85868,-0.92554 -11.51811,-1.3456c-2.85876,-0.32815 -5.61143,0.62549 -8.31983,1.36577c-2.51803,1.06925 -5.56662,1.50954 -7.97055,2.67681c-1.44294,0.70065 -2.5642,2.15033 -4.13848,2.45797c-3.45202,0.67458 -7.37176,-0.10034 -10.85216,0.09783c-9.89128,0.56319 -20.88788,-0.56581 -30.54181,1.84767c-2.32788,-0.01427 -4.1475,0.37991 -6.46931,0.66988c-4.26237,0.53233 -8.75671,-0.08357 -13.03725,0.29948c-2.98529,0.26715 -5.89306,1.45104 -8.69562,2.31768c-3.19691,0.98858 -7.09745,1.22367 -10.41791,1.56544c-3.51645,0.36194 -6.64391,-0.32371 -10.15596,-0.33151c-3.51344,-0.39038 -8.07068,-1.03867 -11.61152,-0.31662c-3.06971,0.62597 -6.08045,2.75899 -9.17665,3.25783c-8.48559,1.36713 -21.453,2.41878 -28.21617,-4.10209c-0.50104,-1.58402 2.45277,-1.23024 3.35581,-1.06782c3.21546,0.57833 6.06103,1.63038 9.48346,1.31729c1.66768,-0.15256 3.03992,-1.18438 4.51702,-1.97343c1.24737,-0.66633 4.14594,-1.47188 5.38048,-2.08896c1.82959,-0.91451 3.59855,-2.02503 5.29339,-3.24112z" data-paper-data="{&quot;noHover&quot;:false,&quot;origItem&quot;:[&quot;Path&quot;,{&quot;applyMatrix&quot;:true,&quot;segments&quot;:[[[277.56191,218.59367],[0,0],[-1.69484,1.21609]],[[272.26847,221.83232],[1.82959,-0.91451],[-1.23454,0.61708]],[[266.88792,223.91999],[1.24737,-0.66633],[-1.4771,0.78905]],[[262.27123,225.90144],[1.66768,-0.15256],[-3.42243,0.31309]],[[252.78767,224.58289],[3.21546,0.57833],[-0.90304,-0.16242]],[[249.53161,225.64366],[-0.50104,-1.58402],[6.76317,6.52087]],[[277.74715,229.74075],[-8.48559,1.36713],[3.0962,-0.49884]],[[286.8251,226.49892],[-3.06971,0.62597],[3.54084,-0.72205]],[[298.53515,226.79864],[-3.51344,-0.39038],[3.51205,0.0078]],[[308.69026,227.12655],[-3.51645,0.36194],[3.32046,-0.34177]],[[319.10727,225.55819],[-3.19691,0.98858],[2.80256,-0.86664]],[[327.80196,223.238],[-2.98529,0.26715],[4.28054,-0.38305]],[[340.76792,222.91385],[-4.26237,0.53233],[2.32181,-0.28997]],[[347.21543,222.26949],[-2.32788,-0.01427],[9.65393,-2.41348]],[[377.75399,220.43774],[-9.89128,0.56319],[3.4804,-0.19817]],[[388.60613,220.34042],[-3.45202,0.67458],[1.57428,-0.30764]],[[392.7446,217.88482],[-1.44294,0.70065],[2.40393,-1.16727]],[[400.71523,215.21003],[-2.51803,1.06925],[2.7084,-0.74028]],[[409.13484,213.83767],[-2.85876,-0.32815],[3.65943,0.42006]],[[420.55313,215.18915],[-3.67372,1.1021],[1.38223,-0.41466]],[[424.1643,213.14016],[-1.14852,0.92098],[0.76647,-0.61463]],[[426.30878,211.11817],[-0.7658,0.61547],[0.36072,-0.28991]],[[427.38772,210.24446],[0.45625,0.07744],[-3.55489,-0.60334]],[[416.03791,208.67106],[3.49581,1.0417],[-2.83108,-0.84362]],[[409.31118,207.1059],[2.90085,-0.02575],[-4.911,0]],[[395.65643,209.34788],[4.68766,-0.80372],[-3.15911,0.54165]],[[385.93196,210.32033],[3.15531,-0.60958],[-1.37328,0.2653]],[[382.06011,211.93751],[1.37509,-0.25573],[-6.96476,1.29523]],[[360.80736,212.87378],[7.05154,-1.55945],[-6.46946,2.59411]],[[341.69782,217.79685],[6.99274,-0.45641],[-2.64512,0.17265]],[[333.90054,216.81588],[2.54107,0.43761],[-1.38427,-0.23839]],[[329.6866,216.81588],[1.39258,0.18373],[-5.68195,-0.74965]],[[312.71475,214.56133],[5.75551,0],[-4.21466,-0.00283]],[[300.83733,213.89853],[4.0991,0.51334],[-1.95483,-0.24481]],[[294.92704,213.88596],[1.95039,0.27795],[-3.27424,-0.46661]],[[284.33982,213.5119],[3.37169,-0.91046],[-1.67091,0.4512]],[[279.79184,217.57879],[1.39669,-0.89613],[-0.68457,0.43922]],[[277.56189,218.59366],[0.73834,-0.34311],[0,0]]],&quot;closed&quot;:true,&quot;fillColor&quot;:[0,0,0,1],&quot;strokeWidth&quot;:0.5}]}" fill="#f37b1a" stroke="none" stroke-width="0.25"/><path d="M156.65801,321.58484v-277.04485h324.53826v277.04486z" fill="none" stroke="#000000" stroke-width="0"/></g></g></svg>