<svg version="1.1" xmlns="http://www.w3.org/2000/svg" xmlns:xlink="http://www.w3.org/1999/xlink" width="324.53826" height="277.04486" viewBox="0,0,324.53826,277.04486"><g transform="translate(-156.658,-44.53998)"><g data-paper-data="{&quot;isPaintingLayer&quot;:true}" fill-rule="nonzero" stroke-linecap="butt" stroke-linejoin="miter" stroke-miterlimit="10" stroke-dasharray="" stroke-dashoffset="0" style="mix-blend-mode: normal"><path d="M255.06128,220.49425c0.05644,0.11288 0.09864,0.22102 0.12858,0.3244c2.63432,0.63096 6.01108,0.80916 8.10406,0.21999c1.27434,-0.35872 2.34914,-1.26104 3.61842,-1.63726c8.78038,-2.60258 18.19539,-7.27833 27.62754,-7.1611c5.69508,2.3753 11.18999,1.33126 17.18411,0.76901c10.6492,-0.9989 21.56379,-0.50549 32.25691,-0.46819c6.46242,1.26526 12.20856,2.01133 18.81332,1.29825c2.90043,-0.31314 6.65225,-1.29346 9.42664,-2.20524c2.21875,-0.72917 4.37187,-2.27121 6.70421,-2.64658c0.69918,-0.11253 1.44381,0.22693 2.12432,0.03088c0.83708,-0.24116 1.42231,-1.0919 2.26904,-1.2966c2.97378,-0.71889 6.32311,0.27801 9.3203,0.28514c3.01747,0.75437 5.96275,1.16785 8.97293,1.98914c1.99438,0.54413 4.96228,0.8173 6.60345,2.15267c4.49233,3.65528 0.37945,8.62802 -3.9401,10.1152c-6.42048,2.21051 -13.85165,1.63416 -20.43398,3.26231c-2.30593,0.57037 -4.55922,1.90801 -6.72546,2.87161c-5.72914,1.87777 -12.20694,1.07434 -18.21279,1.07434c-11.45788,0 -22.49462,-0.75291 -33.77993,-2.27177c-4.20283,1.09024 -8.87533,2.69319 -13.17247,3.22972c-5.49667,0.6863 -11.07585,1.11499 -16.58826,1.88911c-2.02299,0.28409 -4.11388,-0.19655 -6.12695,0.05905c-6.05078,0.76827 -12.46509,1.20883 -18.5189,-0.32415c-4.01243,0.01274 -7.71579,-1.27604 -11.68652,-0.96632c-1.20333,0.09386 -5.23112,1.10148 -6.24109,0.52518c-2.6897,-1.53477 -2.2609,-6.16794 -1.53822,-9.17422c-0.28755,-0.31851 -0.51372,-0.82273 -0.20612,-1.54046c0.44463,-1.03747 1.33537,-0.95968 1.74906,-0.85761l0.25543,-0.2173c0,0 1.34164,-0.67082 2.01246,0.67082zM254.0746,223.59915c-0.17415,1.07632 -0.12825,2.04494 -0.15156,3.4006c-0.01072,0.62371 -0.53189,1.74484 0.07928,1.86972c0.93457,0.19097 3.65379,-0.68593 4.77998,-0.77142c4.20026,-0.31883 8.08194,0.96607 12.30051,0.97858c5.86908,1.4495 11.92934,1.04517 17.7858,0.32415c2.01997,-0.24869 4.12154,0.2331 6.14191,-0.06085c5.49351,-0.79927 11.04077,-1.21717 16.52375,-1.88078c4.37366,-0.52935 9.10921,-2.21335 13.40775,-3.25326c2.4755,0.28891 4.89513,0.12093 7.35773,0.38998c2.37029,0.25896 4.44696,1.37103 6.79482,1.5573c6.52689,0.51782 13.25386,0.31904 19.80821,0.31904c5.53194,0 11.87243,0.91675 17.12594,-0.87055c7.90015,-3.53688 16.4277,-4.69579 24.96239,-5.92089c1.76655,-0.25358 6.84358,-1.47893 6.52995,-4.35697c-0.12506,-1.14763 -5.10942,-1.79415 -5.12025,-1.79708c-3.40882,-0.92291 -6.71124,-1.6879 -10.12863,-2.54225c-2.56474,0.00637 -5.67164,-1.01526 -8.18375,-0.36316c-0.84318,0.21887 -1.43094,1.05901 -2.26904,1.2966c-0.77415,0.21946 -1.61757,-0.08547 -2.41377,0.03088c-2.08069,0.30407 -4.30638,1.90074 -6.26175,2.5398c-2.94366,0.96206 -6.9527,1.98309 -10.0223,2.33285c-6.75858,0.7701 -12.82581,0.06053 -19.43628,-1.29494c-10.50793,0.04268 -21.21401,-0.52656 -31.67912,0.46949c-6.13579,0.58399 -12.24505,1.7575 -18.06948,-0.81697c-8.9302,0.16402 -17.82659,4.67421 -26.18122,7.10146c-1.23616,0.35914 -2.26906,1.27248 -3.51286,1.60423c-2.83872,0.75715 -6.9398,0.53669 -10.168,-0.28553z" fill="#000000" stroke="none" stroke-width="0.5"/><path d="M254.12456,223.59698c3.2282,0.82222 7.2294,1.04763 10.06812,0.29048c1.2438,-0.33175 2.27665,-1.24621 3.51281,-1.60535c8.35463,-2.42725 17.25146,-6.94589 26.18166,-7.10991c5.82443,2.57447 11.93447,1.39669 18.07026,0.8127c10.46511,-0.99605 21.26699,-0.43266 31.77492,-0.47534c6.61047,1.35547 12.68038,2.07676 19.43896,1.30666c3.0696,-0.34976 6.97936,-1.35889 9.92302,-2.32095c1.95537,-0.63906 4.18132,-2.23405 6.26201,-2.53812c0.7962,-0.11635 1.63956,0.18822 2.41371,-0.03124c0.8381,-0.23759 1.52443,-1.09458 2.36761,-1.31345c2.51211,-0.6521 5.61925,0.37096 8.18399,0.36459c3.41739,0.85435 6.72015,1.62211 10.12897,2.54502c0.01083,0.00293 4.99531,0.65092 5.12037,1.79855c0.31363,2.87804 -4.7633,4.10618 -6.52985,4.35976c-8.53469,1.2251 -17.06258,2.39027 -24.96273,5.92715c-5.25351,1.7873 -11.59483,0.87545 -17.12677,0.87545c-6.55435,0 -13.28917,0.21665 -19.81606,-0.30117c-2.34786,-0.18627 -4.44756,-1.28032 -6.81785,-1.53928c-2.4626,-0.26905 -4.94113,-0.11905 -7.41663,-0.40796c-4.29854,1.03991 -9.03989,2.71294 -13.41355,3.24229c-5.48298,0.66361 -11.03192,1.07619 -16.52543,1.87546c-2.02037,0.29395 -4.12234,-0.18951 -6.14231,0.05918c-5.85646,0.72102 -11.91734,1.12197 -17.78642,-0.32753c-4.21857,-0.01251 -8.1005,-1.29932 -12.30076,-0.98049c-1.12619,0.08549 -3.84539,0.96255 -4.77996,0.77158c-0.61117,-0.12488 -0.09012,-1.24722 -0.0794,-1.87093c0.02331,-1.35566 -0.02274,-2.32648 0.15141,-3.4028z" data-paper-data="{&quot;noHover&quot;:false,&quot;origItem&quot;:[&quot;Path&quot;,{&quot;applyMatrix&quot;:true,&quot;segments&quot;:[[[254.0746,223.59915],[0,0],[-0.17415,1.07632]],[[253.92304,226.99975],[0.02331,-1.35566],[-0.01072,0.62371]],[[254.00232,228.86947],[-0.61117,-0.12488],[0.93457,0.19097]],[[258.7823,228.09805],[-1.12619,0.08549],[4.20026,-0.31883]],[[271.08281,229.07663],[-4.21857,-0.01251],[5.86908,1.4495]],[[288.86861,229.40078],[-5.85646,0.72102],[2.01997,-0.24869]],[[295.01052,229.33993],[-2.02037,0.29395],[5.49351,-0.79927]],[[311.53427,227.45915],[-5.48298,0.66361],[4.37366,-0.52935]],[[324.94202,224.20589],[-4.29854,1.03991],[2.4755,0.28891]],[[332.29975,224.59587],[-2.4626,-0.26905],[2.37029,0.25896]],[[339.09457,226.15317],[-2.34786,-0.18627],[6.52689,0.51782]],[[358.90278,226.47221],[-6.55435,0],[5.53194,0]],[[376.02872,225.60166],[-5.25351,1.7873],[7.90015,-3.53688]],[[400.99111,219.68077],[-8.53469,1.2251],[1.76655,-0.25358]],[[407.52106,215.3238],[0.31363,2.87804],[-0.12506,-1.14763]],[[402.40081,213.52672],[0.01083,0.00293],[-3.40882,-0.92291]],[[392.27218,210.98447],[3.41739,0.85435],[-2.56474,0.00637]],[[384.08843,210.62131],[2.51211,-0.6521],[-0.84318,0.21887]],[[381.81939,211.91791],[0.8381,-0.23759],[-0.77415,0.21946]],[[379.40562,211.94879],[0.7962,-0.11635],[-2.08069,0.30407]],[[373.14387,214.48859],[1.95537,-0.63906],[-2.94366,0.96206]],[[363.12157,216.82144],[3.0696,-0.34976],[-6.75858,0.7701]],[[343.68529,215.5265],[6.61047,1.35547],[-10.50793,0.04268]],[[312.00617,215.99599],[10.46511,-0.99605],[-6.13579,0.58399]],[[293.93669,215.17902],[5.82443,2.57447],[-8.9302,0.16402]],[[267.75547,222.28048],[8.35463,-2.42725],[-1.23616,0.35914]],[[264.24261,223.88471],[1.2438,-0.33175],[-2.83872,0.75715]],[[254.07461,223.59918],[3.2282,0.82222],[0,0]]],&quot;closed&quot;:true,&quot;fillColor&quot;:[0,0,0,1],&quot;strokeWidth&quot;:0.5}]}" fill="#ff6e1a" stroke="none" stroke-width="0.25"/><path d="M156.65801,321.58484v-277.04485h324.53826v277.04486z" fill="none" stroke="#000000" stroke-width="0"/></g></g></svg>