<svg version="1.1" xmlns="http://www.w3.org/2000/svg" xmlns:xlink="http://www.w3.org/1999/xlink" width="324.53826" height="277.04486" viewBox="0,0,324.53826,277.04486"><g transform="translate(-156.658,-44.53998)"><g data-paper-data="{&quot;isPaintingLayer&quot;:true}" fill-rule="nonzero" stroke-linecap="butt" stroke-linejoin="miter" stroke-miterlimit="10" stroke-dasharray="" stroke-dashoffset="0" style="mix-blend-mode: normal"><path d="M249.32835,226.02807c-0.24264,0.09343 -0.49822,0.21435 -0.77257,0.36843c0,0 -1.34164,0.67082 -2.01246,-0.67082c-0.67082,-1.34164 0.67082,-2.01246 0.67082,-2.01246c3.01733,-1.39533 4.02318,-0.71469 7.30017,-0.55569c3.56046,0.17275 7.15324,0.07318 10.71587,0.07318c1.08368,0 2.22968,0.44172 3.25013,0.07698c2.43625,-0.87081 6.20273,-2.57457 8.40063,-4.04318c0.58417,-0.39034 0.89148,-1.18076 1.54831,-1.43015c1.73085,-0.65721 4.8662,-0.11418 6.73286,-0.11418c2.92762,0 5.07615,-0.30761 7.94005,-0.63934c2.97526,-0.34463 5.95066,0.31792 8.9157,0.31519c7.33012,-0.00673 14.34839,-0.32347 21.55752,0.65725c3.52877,0.48005 6.84633,0.07678 10.39237,0.97473c2.05061,0.00339 3.8232,0.82961 5.85184,0.64217c4.40506,-0.40701 8.84115,-1.224 13.13017,-1.92294c2.11709,-0.345 4.61331,-0.02707 6.76664,-0.02707c7.01845,0 14.09487,0.35017 21.06969,0.32415c1.37777,0.00301 2.7596,0.11856 4.11917,0.34179c4.82242,0.79181 6.35027,4.00183 2.78351,7.72201c-2.66304,2.77759 -6.36432,5.30868 -10.02341,6.53806c-1.40853,0.47324 -2.84903,1.06586 -4.33471,1.03995c-4.22125,-0.07363 -7.45862,-4.51082 -11.17126,-5.91166c-1.66152,-0.62691 -5.41691,0.75442 -7.18152,1.04431c-0.52693,-0.00128 -1.05812,-0.07071 -1.58079,-0.00385c-0.31167,0.03987 -0.61757,0.1217 -0.92238,0.20889c0.91726,0.2731 1.8048,0.66266 1.98548,0.70186c2.0102,0.43605 6.30803,0.33652 8.13751,1.41523c2.25786,1.3313 3.4828,2.97028 0.57597,5.18868c-1.55027,1.18311 -4.89298,0.75318 -6.67892,0.9034c-8.00639,0.67343 -15.64568,3.3591 -23.71782,2.12376c-5.07103,-0.22938 -11.1434,-0.42621 -16.02676,-1.81964c-3.88166,-1.1076 -5.38689,-5.71242 -9.3323,-6.83269c-1.71251,-0.48626 -3.46635,-0.11946 -5.19958,-0.2649c-4.53422,-0.38048 -9.20732,-0.19433 -13.72476,-0.65086c-2.71905,-0.27479 -5.06831,-0.96584 -7.82902,-0.99184c-2.98747,-1.19499 -6.4782,-0.81855 -9.66413,-1.28625c-6.12057,-0.89851 -12.07394,-0.31788 -18.25318,-0.30743h-1.94489c0,0 -1.27471,0 -1.47395,-1.17509zM271.91371,224.6067c3.09728,0.37886 6.43274,0.09011 9.31811,1.24426c2.65836,-0.02917 4.95488,0.68658 7.56482,0.95306c4.49462,0.45891 9.15564,0.26687 13.66908,0.64573c2.58242,0.21677 3.25646,-0.35288 5.82149,0.3834c3.91609,1.12409 5.72454,5.95827 9.33281,6.83285c4.859,1.17773 10.45108,1.47638 15.45415,1.70552c6.70014,1.04136 13.45926,-0.63422 20.10006,-1.65716c1.99517,-0.30733 4.02052,-0.37228 6.03423,-0.51405c0.75155,-0.05291 1.49368,-0.20031 2.23705,-0.32296c0.12487,-0.0206 0.49099,-0.11028 0.3645,-0.10627c-3.22963,0.10223 -8.32946,-0.54734 -11.13375,-2.16048c-1.17602,-0.6765 -2.89121,-1.24171 -3.15389,-2.57275c-0.58602,-2.96947 5.72487,-3.20541 7.20806,-3.20884c2.50648,-0.42469 5.88428,-1.66909 8.37764,-0.90058c2.0732,0.639 4.57405,2.4875 6.31915,3.71756c0.78553,0.55369 2.62091,2.07489 3.90343,2.04015c3.55697,-0.09635 7.45718,-2.75393 10.08248,-4.85645c0.73221,-0.5864 1.45786,-1.18375 2.13964,-1.8281c0.55541,-0.52492 1.81147,-1.26366 1.33679,-1.86259c-1.07773,-1.35983 -4.58215,-1.09847 -6.10347,-1.09468c-6.12512,-0.01948 -12.31126,-0.32415 -18.4765,-0.32415c-2.7515,0 -6.08774,-0.48997 -8.79251,-0.02707c-4.3566,0.7456 -8.96493,1.62504 -13.45005,1.96685c-2.29797,0.17513 -4.18718,-0.65829 -6.46583,-0.65443c-3.54945,-0.87662 -6.81467,-0.50702 -10.35317,-0.97017c-7.10691,-0.9302 -14.00103,-0.63303 -21.23017,-0.63934c-2.84024,-0.00248 -5.74501,-0.67309 -8.58835,-0.33311c-2.92441,0.34968 -5.27951,0.65725 -8.2674,0.65725c-1.35944,0 -4.39702,-0.62989 -5.58481,-0.11418c-0.47804,0.20755 -0.61096,0.8744 -1.04489,1.16304c-1.91947,1.27677 -4.45812,1.864 -6.6187,2.83767z" fill="#000000" stroke="none" stroke-width="0.5"/><path d="M271.86381,224.60345c2.16058,-0.97367 4.69954,-1.56406 6.61901,-2.84083c0.43393,-0.28864 0.56703,-0.95675 1.04507,-1.1643c1.18779,-0.51571 4.2255,0.11337 5.58494,0.11337c2.98789,0 5.34354,-0.31029 8.26795,-0.65997c2.84334,-0.33998 5.74881,0.32792 8.58905,0.3304c7.22914,0.00631 14.1389,-0.31505 21.24581,0.61515c3.5385,0.46315 6.86352,0.08982 10.41297,0.96644c2.27865,-0.00386 4.18455,0.84781 6.48252,0.67268c4.48512,-0.34181 9.09701,-1.21281 13.45361,-1.95841c2.70477,-0.4629 6.04206,0.03091 8.79356,0.03091c6.16524,0 12.35217,0.30893 18.47729,0.32841c1.52132,-0.00379 5.02595,-0.26348 6.10368,1.09635c0.47468,0.59893 -0.78124,1.33918 -1.33665,1.8641c-0.68178,0.64435 -1.40734,1.24323 -2.13955,1.82963c-2.6253,2.10252 -6.52553,4.76509 -10.0825,4.86144c-1.28252,0.03474 -3.21783,-1.48953 -4.00336,-2.04322c-1.7451,-1.23006 -4.2457,-3.07314 -6.3189,-3.71214c-2.49336,-0.76851 -5.77166,0.46593 -8.27814,0.89062c-1.48319,0.00343 -7.79387,0.24625 -7.20785,3.21572c0.26268,1.33104 1.97732,1.90193 3.15334,2.57843c2.80429,1.61314 7.8054,2.24679 11.03503,2.14456c0.12649,-0.00401 -0.14106,0.10249 -0.26593,0.12309c-0.74337,0.12265 -1.48571,0.27119 -2.23726,0.3241c-2.01371,0.14177 -4.03983,0.21004 -6.035,0.51737c-6.6408,1.02294 -13.42767,2.73112 -20.12781,1.68976c-5.00307,-0.22914 -10.65977,-0.54979 -15.51877,-1.72752c-3.60827,-0.87458 -5.42262,-5.73353 -9.33871,-6.85762c-2.56503,-0.73628 -3.23906,-0.16708 -5.82148,-0.38385c-4.51344,-0.37886 -9.17445,-0.18706 -13.66907,-0.64597c-2.60994,-0.26648 -4.90643,-0.98292 -7.56479,-0.95375c-2.88537,-1.15415 -6.22079,-0.86606 -9.31807,-1.24492z" data-paper-data="{&quot;noHover&quot;:false,&quot;origItem&quot;:[&quot;Path&quot;,{&quot;applyMatrix&quot;:true,&quot;segments&quot;:[[[271.91371,224.6067],[0,0],[3.09728,0.37886]],[[281.23182,225.85096],[-2.88537,-1.15415],[2.65836,-0.02917]],[[288.79664,226.80402],[-2.60994,-0.26648],[4.49462,0.45891]],[[302.46572,227.44975],[-4.51344,-0.37886],[2.58242,0.21677]],[[308.28721,227.83315],[-2.56503,-0.73628],[3.91609,1.12409]],[[317.62002,234.666],[-3.60827,-0.87458],[4.859,1.17773]],[[333.07417,236.37152],[-5.00307,-0.22914],[6.70014,1.04136]],[[353.17423,234.71436],[-6.6408,1.02294],[1.99517,-0.30733]],[[359.20846,234.20031],[-2.01371,0.14177],[0.75155,-0.05291]],[[361.44551,233.87735],[-0.74337,0.12265],[0.12487,-0.0206]],[[361.81001,233.77108],[0.12649,-0.00401],[-3.22963,0.10223]],[[350.67626,231.6106],[2.80429,1.61314],[-1.17602,-0.6765]],[[347.52237,229.03785],[0.26268,1.33104],[-0.58602,-2.96947]],[[354.73043,225.82901],[-1.48319,0.00343],[2.50648,-0.42469]],[[363.10807,224.92843],[-2.49336,-0.76851],[2.0732,0.639]],[[369.42722,228.64599],[-1.7451,-1.23006],[0.78553,0.55369]],[[373.33065,230.68614],[-1.28252,0.03474],[3.55697,-0.09635]],[[383.41313,225.82969],[-2.6253,2.10252],[0.73221,-0.5864]],[[385.55277,224.00159],[-0.68178,0.64435],[0.55541,-0.52492]],[[386.88956,222.139],[0.47468,0.59893],[-1.07773,-1.35983]],[[380.78609,221.04432],[1.52132,-0.00379],[-6.12512,-0.01948]],[[362.30959,220.72017],[6.16524,0],[-2.7515,0]],[[353.51708,220.6931],[2.70477,-0.4629],[-4.3566,0.7456]],[[340.06703,222.65995],[4.48512,-0.34181],[-2.29797,0.17513]],[[333.6012,222.00552],[2.27865,-0.00386],[-3.54945,-0.87662]],[[323.24803,221.03535],[3.5385,0.46315],[-7.10691,-0.9302]],[[302.01786,220.39601],[7.22914,0.00631],[-2.84024,-0.00248]],[[293.42951,220.0629],[2.84334,-0.33998],[-2.92441,0.34968]],[[285.16211,220.72015],[2.98789,0],[-1.35944,0]],[[279.5773,220.60597],[1.18779,-0.51571],[-0.47804,0.20755]],[[278.53241,221.76901],[0.43393,-0.28864],[-1.91947,1.27677]],[[271.91371,224.60668],[2.16058,-0.97367],[0,0]]],&quot;closed&quot;:true,&quot;fillColor&quot;:[0,0,0,1],&quot;strokeWidth&quot;:0.5}]}" fill="#db7743" stroke="none" stroke-width="0.25"/><path d="M156.65801,321.58484v-277.04485h324.53826v277.04486z" fill="none" stroke="#000000" stroke-width="0"/></g></g></svg>