<svg version="1.1" xmlns="http://www.w3.org/2000/svg" xmlns:xlink="http://www.w3.org/1999/xlink" width="324.53826" height="277.04486" viewBox="0,0,324.53826,277.04486"><g transform="translate(-156.658,-44.53998)"><g data-paper-data="{&quot;isPaintingLayer&quot;:true}" fill-rule="nonzero" stroke-linecap="butt" stroke-linejoin="miter" stroke-miterlimit="10" stroke-dasharray="" stroke-dashoffset="0" style="mix-blend-mode: normal"><path d="M262.76855,230.06484c4.76916,0.107 9.54168,0.48636 14.31377,0.29829c10.13183,-0.3993 20.09053,-1.34045 30.3052,-1.28651c6.67773,1.64167 13.9352,4.82517 20.74846,5.5109c6.49319,0.65351 13.37172,0.30236 19.91105,0.31255c3.74857,0.00584 7.11142,0.75187 10.89535,0.44194c1.18311,-0.85044 2.52913,-1.50904 3.55423,-2.5445c1.40518,-1.41939 1.06301,-3.1587 -0.08248,-4.56312c-2.29987,-2.81972 -6.21784,-4.02461 -9.61714,-4.96119c-3.80845,-1.04931 -8.02358,0.36291 -11.88124,0.36432c-6.40342,0.00233 -11.65717,-0.98889 -17.72702,-2.83086c-14.81395,-0.91006 -29.47261,1.84183 -44.02498,-1.39203c-1.33431,0.0023 -2.6589,-0.40279 -3.99041,-0.31639c-3.67651,0.23857 -8.56751,2.9479 -11.69977,4.70158c-1.1872,0.66469 -4.17427,2.15127 -4.82866,3.50936c-0.25145,0.52183 -1.0205,1.35897 -0.52376,1.65694c0.28447,0.17065 0.67461,-0.24205 0.98672,-0.12962c1.21091,0.43618 2.42006,0.88594 3.66069,1.22836zM259.25088,232.38937c-1.43794,-0.3284 -2.90571,-0.78591 -3.44976,-1.52129c-2.4822,-3.35518 1.75221,-6.71291 3.95194,-8.07073c4.37665,-2.70154 10.00483,-6.29175 15.30056,-6.69673c1.47897,-0.1131 2.95418,0.32944 4.43747,0.33191c14.6317,3.25149 29.33799,0.3691 44.2313,1.42197c4.9746,1.47665 9.14129,2.56403 14.33835,2.78431c4.35982,0.18479 8.69624,-0.99877 13.01517,-0.64544c2.79646,0.22878 5.7826,1.33038 8.33983,2.44255c4.66453,2.02866 9.74215,7.39461 5.30002,12.38034c-0.52778,0.59236 -4.49448,3.17797 -4.7381,3.34146c-3.72908,0.42294 -6.15783,0.15426 -9.80939,-0.26494c-7.35748,-0.84463 -15.02944,0.43853 -22.40468,-0.32845c-6.82794,-0.71007 -14.06723,-3.80989 -20.74262,-5.51017c-10.04935,0.06411 -19.848,0.91835 -29.82122,1.30669c-0.75375,0.02935 -1.50746,0.04478 -2.26113,0.04954c0.21689,0.22218 0.37827,0.5528 0.37827,1.04481c0,1.5 -1.5,1.5 -1.5,1.5l-0.73623,-0.05771c-1.43656,-0.42015 -2.97413,-0.35835 -4.44509,-0.63496c-2.24657,-0.42245 -4.19413,-1.59383 -6.30554,-2.20768c-0.60112,-0.01091 -1.20221,-0.01712 -1.80326,-0.01699c0,0 -0.85761,0 -1.27589,-0.64847z" fill="#000000" stroke="none" stroke-width="0.5"/><path d="M262.71865,230.06779c-1.24063,-0.34242 -2.44984,-0.79357 -3.66075,-1.22975c-0.31211,-0.11243 -0.70225,0.30036 -0.98672,0.12971c-0.49674,-0.29797 0.27228,-1.13668 0.52373,-1.65851c0.65439,-1.35809 3.64159,-2.84837 4.82879,-3.51306c3.13226,-1.75368 8.02439,-4.47055 11.7009,-4.70912c1.33151,-0.0864 2.65631,0.31781 3.99062,0.31551c14.55237,3.23386 29.30399,0.47112 44.11794,1.38118c6.06985,1.84197 11.32881,2.85017 17.73223,2.84784c3.85766,-0.00141 8.07292,-1.4124 11.88137,-0.36309c3.3993,0.93658 7.31748,2.14712 9.61735,4.96684c1.14549,1.40442 1.48739,3.1481 0.08221,4.56749c-1.0251,1.03546 -2.37152,1.69701 -3.55463,2.54745c-3.78393,0.30993 -7.14711,-0.43434 -10.89568,-0.44018c-6.53933,-0.01019 -13.42075,0.35031 -19.91394,-0.3032c-6.81326,-0.68573 -14.16058,-3.86441 -20.83831,-5.50608c-10.21467,-0.05394 -20.1794,0.86763 -30.31123,1.26693c-4.77209,0.18807 -9.54474,-0.19297 -14.3139,-0.29997z" data-paper-data="{&quot;noHover&quot;:false,&quot;origItem&quot;:[&quot;Path&quot;,{&quot;applyMatrix&quot;:true,&quot;segments&quot;:[[[262.76855,230.06484],[0,0],[4.76916,0.107]],[[277.08232,230.36313],[-4.77209,0.18807],[10.13183,-0.3993]],[[307.38752,229.07662],[-10.21467,-0.05394],[6.67773,1.64167]],[[328.13598,234.58752],[-6.81326,-0.68573],[6.49319,0.65351]],[[348.04703,234.90007],[-6.53933,-0.01019],[3.74857,0.00584]],[[358.94238,235.34201],[-3.78393,0.30993],[1.18311,-0.85044]],[[362.49661,232.79751],[-1.0251,1.03546],[1.40518,-1.41939]],[[362.41413,228.23439],[1.14549,1.40442],[-2.29987,-2.81972]],[[352.79699,223.2732],[3.3993,0.93658],[-3.80845,-1.04931]],[[340.91575,223.63752],[3.85766,-0.00141],[-6.40342,0.00233]],[[323.18873,220.80666],[6.06985,1.84197],[-14.81395,-0.91006]],[[279.16375,219.41463],[14.55237,3.23386],[-1.33431,0.0023]],[[275.17334,219.09824],[1.33151,-0.0864],[-3.67651,0.23857]],[[263.47357,223.79982],[3.13226,-1.75368],[-1.1872,0.66469]],[[258.64491,227.30918],[0.65439,-1.35809],[-0.25145,0.52183]],[[258.12115,228.96612],[-0.49674,-0.29797],[0.28447,0.17065]],[[259.10787,228.8365],[-0.31211,-0.11243],[1.21091,0.43618]],[[262.76856,230.06486],[-1.24063,-0.34242],[0,0]]],&quot;closed&quot;:true,&quot;fillColor&quot;:[0,0,0,1],&quot;strokeWidth&quot;:0.5}]}" fill="#c47242" stroke="none" stroke-width="0.25"/><path d="M156.65801,321.58484v-277.04485h324.53826v277.04486z" fill="none" stroke="#000000" stroke-width="0"/></g></g></svg>