<svg version="1.1" xmlns="http://www.w3.org/2000/svg" xmlns:xlink="http://www.w3.org/1999/xlink" width="324.53826" height="277.04486" viewBox="0,0,324.53826,277.04486"><g transform="translate(-156.658,-44.53998)"><g data-paper-data="{&quot;isPaintingLayer&quot;:true}" fill-rule="nonzero" stroke-linecap="butt" stroke-linejoin="miter" stroke-miterlimit="10" stroke-dasharray="" stroke-dashoffset="0" style="mix-blend-mode: normal"><path d="M359.09841,300.28221c2.53372,0.29226 4.98857,0.56237 7.5824,1.28493c1.76833,0.4926 3.14827,1.46335 5.07375,0.96259c2.65637,-0.69084 4.36408,-3.74233 6.35014,-5.35282c3.56239,-2.88873 7.53496,-3.89248 11.47471,-5.86986c2.42724,-1.21825 4.69125,-2.75839 7.41476,-3.35301c6.96977,-2.53802 15.0156,-2.97272 21.69241,-6.35029c5.017,-2.53793 9.55801,-9.18413 11.48314,-14.313c0.68923,-1.83623 1.55218,-4.39248 0.296,-6.30502c-1.3152,-2.00239 -4.26159,-4.12226 -6.0173,-5.67666c0.72332,-1.23978 1.12515,-2.73517 2.16996,-3.71935c0.84452,-0.79551 2.12074,-0.94576 3.20912,-1.3476c0.12323,-0.0455 4.84237,-0.91829 4.64561,-2.05466c-0.58808,-3.39644 -1.72657,-6.0968 -1.62109,-9.71035c0.10192,-3.49185 1.14753,-7.89781 0.35448,-11.33783c-0.67333,-2.92074 -3.37275,-6.25105 -5.97245,-7.69452c-0.74499,-0.41365 -1.9553,-0.02328 -2.45474,-0.7137c-1.51026,-2.08774 -0.05932,-3.38007 0.93118,-4.80554c2.20786,-2.68967 1.62651,-5.26859 1.63069,-8.64701c0.00397,-3.20586 1.63223,-8.70797 -0.35909,-11.55322c-0.82104,-1.17312 -3.32082,-2.18374 -4.44388,-2.73897c-3.16817,-1.5663 -6.43998,-3.70295 -9.7638,-4.87653c-2.47917,-0.87535 -6.382,-0.71592 -7.65148,-3.67906c-0.77461,-1.80804 -0.52313,-4.5763 -0.35801,-6.55874c-3.66533,-3.10142 -3.62977,-8.5303 -5.30507,-12.88422c-0.38568,-1.00234 -0.18504,-2.24458 -0.80899,-3.11873c-0.5739,-0.80403 -2.07699,0.06563 -2.93238,-0.42847c-1.90222,-1.0988 -3.19402,-2.95363 -5.3793,-3.82753c-6.80852,-2.72275 -13.61851,-3.16002 -20.88687,-2.58418c-4.10807,1.29003 -7.00981,-0.0459 -10.68439,-2.01487c-0.03803,-0.02038 -2.99999,-1.89263 -3.62321,-1.78342c-2.83182,0.49625 -1.57957,4.69435 -4.30037,5.13286c-4.97322,0.80154 -9.32114,-5.68881 -12.91406,-7.94088c-2.33832,-1.46568 -7.63768,-3.84876 -10.5273,-3.05209c-1.60527,0.44257 -3.11217,1.2222 -4.73723,1.58546c-2.27424,1.01786 -4.86261,2.58063 -7.36064,2.97339c-2.34,0.36792 -4.83123,-0.3103 -7.17245,0.0061c-2.82212,0.38138 -5.55877,1.6925 -8.38797,2.19906c-5.09989,0.91313 -10.24614,0.79369 -15.38887,1.35308c-1.98766,0.2162 -2.55673,1.319 -4.25059,2.12416c-2.85828,1.35866 -6.18233,1.69306 -9.2799,1.78287c-6.46893,1.22064 -11.49435,7.45452 -18.30016,7.72848c-3.79793,0.15288 -4.29697,-2.8278 -6.80593,-4.78102c-4.40527,-3.42949 -12.60252,-4.13935 -18.03276,-4.39862c-1.4145,-0.06753 -4.89719,-0.42196 -5.93744,0.64321c-0.33933,3.51008 0.26317,7.12662 -0.17184,10.61025c-0.2288,1.83228 -1.35417,3.43582 -2.04109,5.1498c-0.55924,1.39539 -0.66933,2.96035 -1.33766,4.3069c-1.39215,2.80493 -3.0969,5.3051 -4.15654,8.2924c-1.56758,4.4193 -2.2135,8.29101 -5.90354,11.6086c-2.97384,2.67368 -7.0938,4.4418 -10.53654,6.4315c-0.02034,0.01085 -5.30561,2.82884 -5.3317,2.84228c-0.8199,0.42248 -1.61592,0.90372 -2.47864,1.22997c-0.19474,0.07365 -0.80368,-0.15903 -0.62196,-0.05742c1.51122,0.84501 3.27442,1.42671 4.42462,2.72087c6.3474,7.14186 -1.42691,16.98156 -3.45089,24.54733c-1.26797,4.73975 -0.74633,8.71266 0.13303,13.42087c2.14719,2.704 4.29834,5.33693 6.73133,7.79912c0.79694,0.80651 1.9724,1.32775 2.4561,2.35323c0.74415,1.57764 -0.33493,3.47293 -0.45841,5.21289c-0.28789,4.05667 -0.02449,8.07731 0.14015,12.12344c0.02726,0.66993 -0.28265,1.38381 -0.04547,2.01095c0.65339,1.72763 2.61874,1.27784 3.91882,1.63029c4.31132,1.16878 10.63644,2.44757 11.63257,7.42821c5.56532,7.34119 14.73719,1.01374 22.23966,2.3783c5.28256,0.9608 4.75073,6.87589 7.06356,10.26752c0.82581,1.21101 2.6458,0.84995 3.73772,1.10068c3.98574,0.91523 7.56521,3.21983 11.12086,5.16032c3.31862,2.08323 6.79031,3.24779 10.24487,4.99905c4.83536,2.45125 11.16395,5.90563 16.90151,4.72596c0.08377,-0.01722 3.83033,-1.42047 4.35057,-1.57568c7.13453,-2.12855 14.40661,-3.63271 21.83737,-3.63271c3.01388,0 5.98615,-0.07798 8.8432,-1.23942c0.06916,-0.02811 3.93187,-2.19203 4.42254,-2.28517c4.42099,-0.83924 9.67401,0.41961 13.97058,-0.65561c3.48376,-0.87181 5.27819,-4.84321 8.62283,-5.80072c3.47481,-0.99478 8.32402,0.3759 11.09175,2.59159zM354.40842,301.30644c-1.72601,-0.53788 -3.74733,-1.20835 -5.51065,-0.75121c-3.27857,0.84995 -5.27208,4.92703 -8.88123,5.86864c-4.25215,1.10936 -9.52874,-0.06236 -13.90625,0.64099c-1.49305,0.23989 -2.59243,1.58459 -3.99547,2.14871c-3.22761,1.29772 -6.55997,1.45798 -9.96731,1.45798c-7.13087,0 -14.10037,1.45911 -20.95031,3.49857c-1.28791,0.38345 -3.67156,1.46331 -4.72561,1.66581c-6.44907,1.23894 -13.28035,-2.21024 -18.75489,-4.99852c-3.50309,-1.78418 -7.04752,-2.97924 -10.41968,-5.0938c-3.31147,-1.80525 -6.64772,-3.98462 -10.35397,-4.84407c-2.46688,-0.57205 -3.47095,0.21782 -5.33845,-2.14081c-1.66581,-2.10389 -1.62102,-8.79625 -5.25411,-9.18142c-6.23769,-0.66132 -13.05292,2.9575 -19.22908,0.69983c-2.98745,-1.09205 -3.42473,-2.40875 -5.20874,-4.80452c-1.36792,-6.83958 -12.65334,-3.19737 -15.56693,-9.09386c-0.44848,-0.90763 -0.12102,-2.02121 -0.1955,-3.03085c-0.26805,-3.63394 -0.34012,-7.25968 -0.25057,-10.90731c0.03843,-1.5654 0.09863,-3.13787 0.33671,-4.68554c0.05104,-0.33182 0.57099,-0.64169 0.39393,-0.92692c-0.90024,-1.45025 -2.63826,-2.18204 -3.79997,-3.43268c-1.94689,-2.09593 -3.56455,-4.17475 -5.28486,-6.46342c-0.66757,-3.18553 -1.61113,-6.94824 -1.36367,-10.19628c0.28511,-3.74218 1.73975,-7.56498 3.00145,-11.06276c1.33402,-3.69827 4.54632,-8.42644 4.1472,-12.50134c-0.39326,-4.01502 -6.45267,-4.64095 -7.15151,-7.93322c-0.2199,-1.03597 1.03182,-1.9024 1.83283,-2.59519c2.03301,-1.75835 5.7373,-3.00275 8.13356,-4.27988c4.61092,-2.66575 11.44325,-5.35384 13.63317,-10.73242c1.37973,-3.3887 1.79638,-7.03547 3.46456,-10.42267c1.35972,-2.76088 2.37921,-5.14954 3.50934,-7.9801c0.59095,-1.48013 1.67636,-2.82496 1.8487,-4.40936c0.42303,-3.88918 -0.1881,-7.69575 0.47646,-11.59721c0.70419,-0.66869 1.20547,-1.65933 2.11256,-2.00606c2.06922,-0.79095 4.42761,-0.37552 6.64027,-0.26868c5.32474,0.25711 12.08814,1.12486 16.80699,3.5185c0.97699,0.49558 2.05447,0.83607 2.9209,1.50645c1.46763,1.13553 2.61954,4.39881 4.87588,4.15262c6.56643,-0.71646 11.63415,-6.38057 18.05334,-7.71078c2.67894,-0.07398 5.74631,-0.25394 8.22415,-1.45863c1.90068,-0.92408 2.92988,-2.16161 5.22385,-2.43789c5.10671,-0.61503 10.21469,-0.43568 15.28238,-1.33605c2.88154,-0.51196 5.6361,-1.8262 8.51658,-2.21913c2.31267,-0.31548 4.7874,0.35031 7.09011,0.0061c2.274,-0.33992 4.8481,-1.9543 6.90192,-2.8613c1.71044,-0.3778 3.28077,-1.26072 4.98724,-1.65603c3.82649,-0.88643 9.67307,1.46336 12.81144,3.4309c3.07313,1.92663 6.55028,7.12629 10.42468,7.61828c0.21055,0.02674 0.0446,-0.42815 0.12608,-0.62413c0.35668,-0.85795 0.52334,-1.86946 1.18275,-2.52406c0.95787,-0.95088 2.14486,-1.82024 3.46698,-2.09172c1.70962,-0.35106 4.10187,1.38545 5.45297,2.10637c3.09569,1.6518 5.26316,2.87897 8.68226,1.72138c7.83725,-0.66759 15.28885,-0.22763 22.63141,2.75576c2.25891,0.91783 3.72449,2.73773 5.64177,3.95205c1.02931,0.65192 2.71292,-0.01663 3.5506,0.86812c1.03814,1.09647 1.03339,2.83777 1.57523,4.24716c1.21158,3.15146 1.46951,6.84549 2.67435,9.87419c0.48366,1.21582 1.72263,1.97027 2.60233,2.93892c0.07969,1.75794 -0.23255,4.70234 0.29028,6.40722c0.47357,1.54422 5.00089,1.81253 5.96279,2.15563c3.43312,1.22454 6.81266,3.3831 10.08245,5.01238c1.86586,0.92973 4.32919,1.89427 5.57911,3.72216c2.52392,3.69098 0.88464,9.15522 0.88998,13.25719c0.00538,4.13166 0.37722,7.12057 -2.2591,10.48427c-0.31452,0.36461 -1.49301,0.98296 -1.01371,1.02915c4.19139,0.40388 8.13214,5.65337 9.07686,9.74414c1.23073,5.32922 -1.0537,11.23841 -0.20156,16.64257c0.41034,2.60233 2.85754,5.23251 0.4531,7.72219c-2.17136,2.24833 -6.4722,1.93786 -8.99752,3.86739c1.28398,0.3679 2.36055,1.32403 3.2986,2.27483c4.74867,4.8132 3.69271,10.50338 0.00846,15.83318c-2.84875,4.12114 -6.04123,9.01832 -10.65377,11.39849c-6.82752,3.52315 -15.09786,3.97123 -22.24928,6.56815c-2.49105,0.43912 -4.64088,2.03046 -6.8478,3.12997c-3.76172,1.87412 -7.57602,2.7862 -10.96067,5.53377c-2.47001,2.00509 -4.1638,5.08605 -7.49661,5.9295c-3.92498,0.99331 -7.73631,-1.72206 -11.52331,-2.22313c0.05818,0.43238 -0.03884,0.99551 -0.72987,1.41013c-1.28624,0.77174 -2.05798,-0.5145 -2.05798,-0.5145l-0.63937,-1.08169c-0.61998,-0.02419 -1.23843,-0.06333 -1.85217,-0.15002c0,0 -1.39964,-0.19995 -1.28709,-1.57045z" fill="#000000" stroke="none" stroke-width="0.5"/><path d="M359.12582,300.32403c-2.76773,-2.21569 -7.62127,-3.58383 -11.09608,-2.58905c-3.34464,0.95751 -5.14497,4.93151 -8.62873,5.80332c-4.29657,1.07522 -9.55797,-0.18137 -13.97896,0.65787c-0.49067,0.09314 -4.35637,2.2575 -4.42553,2.28561c-2.85705,1.16144 -5.83493,1.23976 -8.84881,1.23976c-7.43076,0 -14.71557,1.50257 -21.8501,3.63112c-0.52024,0.15521 -4.26887,1.55788 -4.35264,1.5751c-5.73756,1.17967 -12.07513,-2.27844 -16.91049,-4.72969c-3.45456,-1.75126 -6.93154,-2.91908 -10.25016,-5.00231c-3.55565,-1.94049 -7.14008,-4.24909 -11.12582,-5.16432c-1.09192,-0.25073 -2.91322,0.10908 -3.73903,-1.10193c-2.31283,-3.39163 -1.78529,-9.31154 -7.06785,-10.27234c-7.50247,-1.36456 -16.67822,4.95713 -22.24354,-2.38406c-0.99613,-4.98064 -7.32359,-6.26401 -11.63491,-7.43279c-1.30008,-0.35245 -3.26593,0.09618 -3.91932,-1.63145c-0.23718,-0.62714 0.07244,-1.34172 0.04518,-2.01165c-0.16464,-4.04613 -0.42961,-8.07133 -0.14172,-12.128c0.12348,-1.73996 1.20201,-3.63729 0.45786,-5.21493c-0.4837,-1.02548 -1.65944,-1.54791 -2.45638,-2.35442c-2.43299,-2.46219 -4.5848,-5.09875 -6.73199,-7.80275c-0.87936,-4.70821 -1.40148,-8.68657 -0.13351,-13.42632c2.02398,-7.56577 9.79899,-17.41568 3.45159,-24.55754c-1.1502,-1.29416 -2.91326,-1.87662 -4.42448,-2.72163c-0.18172,-0.10161 0.42722,0.13105 0.62196,0.0574c0.86272,-0.32625 1.65887,-0.80816 2.47877,-1.23064c0.02609,-0.01344 5.31171,-2.83303 5.33205,-2.84388c3.44274,-1.9897 7.56378,-3.76166 10.53762,-6.43534c3.69004,-3.31759 4.33814,-7.19487 5.90572,-11.61417c1.05964,-2.9873 2.76636,-5.49129 4.15851,-8.29622c0.66833,-1.34655 0.77946,-2.91324 1.3387,-4.30863c0.68692,-1.71398 1.81366,-3.31959 2.04246,-5.15187c0.43501,-3.48363 -0.16521,-7.10319 0.17412,-10.61327c1.04025,-1.06517 4.52417,-0.71219 5.93867,-0.64466c5.43024,0.25927 13.63061,0.9659 18.03588,4.39539c2.50896,1.95322 3.00869,4.93326 6.80662,4.78038c6.80581,-0.27396 11.84038,-6.51445 18.30931,-7.73509c3.09757,-0.08981 6.42659,-0.42666 9.28487,-1.78532c1.69386,-0.80516 2.26564,-1.90902 4.2533,-2.12522c5.14273,-0.55939 10.29819,-0.44229 15.39808,-1.35542c2.8292,-0.50656 5.5712,-1.81821 8.39332,-2.19959c2.34122,-0.3164 4.83692,0.36182 7.17692,-0.0061c2.49803,-0.39276 5.09069,-1.95516 7.36493,-2.97302c1.62506,-0.36326 3.13453,-1.14249 4.7398,-1.58506c2.88962,-0.79667 8.19516,1.58796 10.53348,3.05364c3.59292,2.25207 7.949,8.74585 12.92222,7.94431c2.7208,-0.43851 1.46924,-4.63624 4.30106,-5.13249c0.62322,-0.10921 3.58711,1.76416 3.62514,1.78454c3.67458,1.96897 6.58076,3.30794 10.68883,2.01791c7.26836,-0.57584 14.08464,-0.13283 20.89316,2.58992c2.18528,0.8739 3.47904,2.73098 5.38126,3.82978c0.85539,0.4941 2.3591,-0.37479 2.933,0.42924c0.62395,0.87415 0.42413,2.11746 0.80981,3.1198c1.6753,4.35392 1.64319,9.78812 5.30852,12.88954c-0.16512,1.98244 -0.41528,4.75321 0.35933,6.56125c1.26948,2.96314 5.17357,2.80649 7.65274,3.68184c3.32382,1.17358 6.59687,3.31354 9.76504,4.87984c1.12306,0.55523 3.62334,1.56744 4.44438,2.74056c1.99132,2.84525 0.3642,8.35197 0.36023,11.55783c-0.00418,3.37842 0.57774,5.96085 -1.63012,8.65052c-0.9905,1.42547 -2.44123,2.71984 -0.93097,4.80758c0.49944,0.69042 1.70978,0.30044 2.45477,0.71409c2.5997,1.44347 5.29926,4.77712 5.97259,7.69786c0.79305,3.44002 -0.25274,7.85065 -0.35466,11.3425c-0.10548,3.61355 1.03254,6.31772 1.62062,9.71416c0.19676,1.13637 -4.52258,2.0103 -4.64581,2.0558c-1.08838,0.40184 -2.36476,0.55289 -3.20928,1.3484c-1.04481,0.98418 -1.44702,2.48129 -2.17034,3.72107c1.75571,1.5544 4.70168,3.67589 6.01688,5.67828c1.25618,1.91254 0.39251,4.47115 -0.29672,6.30738c-1.92513,5.12887 -6.46889,11.78174 -11.48589,14.31967c-6.67681,3.37757 -14.72644,3.81863 -21.69621,6.35665c-2.72351,0.59462 -4.98963,2.13755 -7.41687,3.3558c-3.93975,1.97738 -7.9165,2.98567 -11.47889,5.8744c-1.98606,1.61049 -3.69703,4.66485 -6.3534,5.35569c-1.92548,0.50076 -3.30686,-0.46887 -5.07519,-0.96147c-2.59383,-0.72256 -5.0512,-0.9909 -7.58492,-1.28316z" data-paper-data="{&quot;noHover&quot;:false,&quot;origItem&quot;:[&quot;Path&quot;,{&quot;applyMatrix&quot;:true,&quot;segments&quot;:[[[359.09841,300.28221],[0,0],[2.53372,0.29226]],[[366.68081,301.56714],[-2.59383,-0.72256],[1.76833,0.4926]],[[371.75456,302.52973],[-1.92548,0.50076],[2.65637,-0.69084]],[[378.1047,297.17691],[-1.98606,1.61049],[3.56239,-2.88873]],[[389.57941,291.30705],[-3.93975,1.97738],[2.42724,-1.21825]],[[396.99417,287.95404],[-2.72351,0.59462],[6.96977,-2.53802]],[[418.68658,281.60375],[-6.67681,3.37757],[5.017,-2.53793]],[[430.16972,267.29075],[-1.92513,5.12887],[0.68923,-1.83623]],[[430.46572,260.98573],[1.25618,1.91254],[-1.3152,-2.00239]],[[424.44842,255.30907],[1.75571,1.5544],[0.72332,-1.23978]],[[426.61838,251.58972],[-1.04481,0.98418],[0.84452,-0.79551]],[[429.8275,250.24212],[-1.08838,0.40184],[0.12323,-0.0455]],[[434.47311,248.18746],[0.19676,1.13637],[-0.58808,-3.39644]],[[432.85202,238.47711],[-0.10548,3.61355],[0.10192,-3.49185]],[[433.2065,227.13928],[0.79305,3.44002],[-0.67333,-2.92074]],[[427.23405,219.44476],[2.5997,1.44347],[-0.74499,-0.41365]],[[424.77931,218.73106],[0.49944,0.69042],[-1.51026,-2.08774]],[[425.71049,213.92552],[-0.9905,1.42547],[2.20786,-2.68967]],[[427.34118,205.27851],[-0.00418,3.37842],[0.00397,-3.20586]],[[426.98209,193.72529],[1.99132,2.84525],[-0.82104,-1.17312]],[[422.53821,190.98632],[1.12306,0.55523],[-3.16817,-1.5663]],[[412.77441,186.10979],[3.32382,1.17358],[-2.47917,-0.87535]],[[405.12293,182.43073],[1.26948,2.96314],[-0.77461,-1.80804]],[[404.76492,175.87199],[-0.16512,1.98244],[-3.66533,-3.10142]],[[399.45985,162.98777],[1.6753,4.35392],[-0.38568,-1.00234]],[[398.65086,159.86904],[0.62395,0.87415],[-0.5739,-0.80403]],[[395.71848,159.44057],[0.85539,0.4941],[-1.90222,-1.0988]],[[390.33918,155.61304],[2.18528,0.8739],[-6.80852,-2.72275]],[[369.45231,153.02886],[7.26836,-0.57584],[-4.10807,1.29003]],[[358.76792,151.01399],[3.67458,1.96897],[-0.03803,-0.02038]],[[355.14471,149.23057],[0.62322,-0.10921],[-2.83182,0.49625]],[[350.84434,154.36343],[2.7208,-0.43851],[-4.97322,0.80154]],[[337.93028,146.42255],[3.59292,2.25207],[-2.33832,-1.46568]],[[327.40298,143.37046],[2.88962,-0.79667],[-1.60527,0.44257]],[[322.66575,144.95592],[1.62506,-0.36326],[-2.27424,1.01786]],[[315.30511,147.92931],[2.49803,-0.39276],[-2.34,0.36792]],[[308.13266,147.93541],[2.34122,-0.3164],[-2.82212,0.38138]],[[299.74469,150.13447],[2.8292,-0.50656],[-5.09989,0.91313]],[[284.35582,151.48755],[5.14273,-0.55939],[-1.98766,0.2162]],[[280.10523,153.61171],[1.69386,-0.80516],[-2.85828,1.35866]],[[270.82533,155.39458],[3.09757,-0.08981],[-6.46893,1.22064]],[[252.52517,163.12306],[6.80581,-0.27396],[-3.79793,0.15288]],[[245.71924,158.34204],[2.50896,1.95322],[-4.40527,-3.42949]],[[227.68648,153.94342],[5.43024,0.25927],[-1.4145,-0.06753]],[[221.74904,154.58663],[1.04025,-1.06517],[-0.33933,3.51008]],[[221.5772,165.19688],[0.43501,-3.48363],[-0.2288,1.83228]],[[219.53611,170.34668],[0.68692,-1.71398],[-0.55924,1.39539]],[[218.19845,174.65358],[0.66833,-1.34655],[-1.39215,2.80493]],[[214.04191,182.94598],[1.05964,-2.9873],[-1.56758,4.4193]],[[208.13837,194.55458],[3.69004,-3.31759],[-2.97384,2.67368]],[[197.60183,200.98608],[3.44274,-1.9897],[-0.02034,0.01085]],[[192.27013,203.82836],[0.02609,-0.01344],[-0.8199,0.42248]],[[189.79149,205.05833],[0.86272,-0.32625],[-0.19474,0.07365]],[[189.16953,205.00091],[-0.18172,-0.10161],[1.51122,0.84501]],[[193.59415,207.72178],[-1.1502,-1.29416],[6.3474,7.14186]],[[190.14326,232.26911],[2.02398,-7.56577],[-1.26797,4.73975]],[[190.27629,245.68998],[-0.87936,-4.70821],[2.14719,2.704]],[[197.00762,253.4891],[-2.43299,-2.46219],[0.79694,0.80651]],[[199.46372,255.84233],[-0.4837,-1.02548],[0.74415,1.57764]],[[199.00531,261.05522],[0.12348,-1.73996],[-0.28789,4.05667]],[[199.14546,273.17866],[-0.16464,-4.04613],[0.02726,0.66993]],[[199.09999,275.18961],[-0.23718,-0.62714],[0.65339,1.72763]],[[203.01881,276.8199],[-1.30008,-0.35245],[4.31132,1.16878]],[[214.65138,284.24811],[-0.99613,-4.98064],[5.56532,7.34119]],[[236.89104,286.62641],[-7.50247,-1.36456],[5.28256,0.9608]],[[243.9546,296.89393],[-2.31283,-3.39163],[0.82581,1.21101]],[[247.69232,297.99461],[-1.09192,-0.25073],[3.98574,0.91523]],[[258.81318,303.15493],[-3.55565,-1.94049],[3.31862,2.08323]],[[269.05805,308.15398],[-3.45456,-1.75126],[4.83536,2.45125]],[[285.95956,312.87994],[-5.73756,1.17967],[0.08377,-0.01722]],[[290.31013,311.30426],[-0.52024,0.15521],[7.13453,-2.12855]],[[312.1475,307.67155],[-7.43076,0],[3.01388,0]],[[320.9907,306.43213],[-2.85705,1.16144],[0.06916,-0.02811]],[[325.41324,304.14696],[-0.49067,0.09314],[4.42099,-0.83924]],[[339.38382,303.49135],[-4.29657,1.07522],[3.48376,-0.87181]],[[348.00665,297.69063],[-3.34464,0.95751],[3.47481,-0.99478]],[[359.0984,300.28222],[-2.76773,-2.21569],[0,0]]],&quot;closed&quot;:true,&quot;fillColor&quot;:[0,0,0,1],&quot;strokeWidth&quot;:0.5}]}" fill="#f8eab9" stroke="none" stroke-width="0.25"/><path d="M268.91494,173.67722c0,1.5 -1.5,1.5 -1.5,1.5l-0.11202,-0.01508c-3.96824,0.56052 -6.70886,-0.3862 -10.50103,-0.97674c-0.62825,-0.09783 -1.25787,-0.14504 -1.88812,-0.15421c-4.35935,0.93109 -8.40009,2.62044 -12.54953,4.28023c0,0 -1.39272,0.55709 -1.9498,-0.83563c-0.55709,-1.39272 0.83563,-1.9498 0.83563,-1.9498c0.32509,-0.13003 0.64957,-0.26013 0.97362,-0.38996c-1.80134,-0.06152 -3.63767,-0.00657 -5.01464,1.02835c-1.43899,1.08154 -2.93787,4.22289 -3.99319,5.62691c-3.93739,3.94367 -5.0468,9.35469 -5.31804,14.8149c-0.28327,5.7023 -0.05339,11.34661 0.17313,17.04029c0.15519,3.90067 -0.32094,7.88166 -0.00391,11.77087c0.31312,3.84129 1.55316,7.21548 2.8789,10.78596c0.56326,4.4767 2.5555,8.58548 3.57247,12.99493c1.21603,5.27253 2.40701,10.62564 3.56744,15.89139c0.62914,2.85488 0.93034,4.6737 2.65748,7.20837c2.70929,3.97602 8.68523,7.27399 12.77048,9.60746c10.12107,4.63548 20.46685,8.98495 31.18456,11.88994c1.40394,0.38053 2.6846,1.28122 4.10091,1.59186c6.18667,1.3569 12.92492,-0.34709 19.11017,-0.35733c18.69907,-0.60368 37.2064,-7.19511 53.66799,-15.67996c6.3069,-3.4622 12.89679,-6.00668 19.1855,-9.5922c1.9576,-1.11613 3.10283,-1.36518 4.68867,-2.99664c5.17429,-5.32313 8.18867,-11.82396 11.97403,-18.03172c1.45065,-2.37897 3.22114,-4.17351 4.48525,-6.71622c2.66225,-4.63008 4.61486,-10.5758 5.0118,-15.91702c0.1811,-2.4369 -0.75251,-4.65955 -0.96928,-7.06212c-0.31751,-3.51909 0.3088,-6.8167 -0.94267,-10.23946c-1.97765,-5.40887 -5.64787,-9.78903 -9.04153,-14.33378c-4.82491,-4.81202 -9.59154,-10.15606 -15.26274,-14.00988c-3.79819,-2.58103 -8.42741,-3.25418 -12.67658,-4.65105c-2.8541,-0.93826 -5.58963,-2.27623 -8.41328,-3.3034c-4.11581,-1.49722 -8.41581,-2.16262 -12.53725,-3.53251c-6.16151,-1.38562 -12.81723,-0.39682 -19.11088,-0.59517c-12.59864,-0.39704 -25.86433,-2.17804 -38.24168,0.96203c-7.62146,0.02171 -15.14479,1.33602 -22.56733,2.85358l0.25546,-0.00718c0,0 1.5,0 1.5,1.5zM254.48329,171.05642c0.42812,-0.08944 0.85919,-0.17197 1.29356,-0.24693c2.45599,-0.42384 5.03379,-0.35788 7.4709,-0.87543c8.53557,-1.81264 17.3003,-3.6065 26.10492,-3.5798c12.50962,-3.21765 26.00127,-1.3775 38.7405,-0.98286c6.56633,0.20341 13.34911,-0.71465 19.78701,0.70143c3.50535,1.17189 7.15986,1.79354 10.69991,2.93711c3.52828,1.13977 6.87046,2.78406 10.38672,3.94c4.50254,1.48017 9.32692,2.2569 13.35757,4.97466c5.92136,3.99262 10.90147,9.54865 15.91298,14.57265c3.61449,4.83428 7.49939,9.50486 9.59225,15.27064c1.3467,3.71013 0.76846,7.1924 1.11169,10.9966c0.23272,2.5794 1.15699,4.88944 0.97562,7.51811c-0.39779,5.76511 -2.51522,12.13742 -5.36098,17.14619c-1.30245,2.59111 -3.1164,4.47082 -4.59092,6.89805c-3.86972,6.36997 -7.02226,13.12106 -12.37151,18.53489c-2.01954,2.04392 -2.9452,2.13248 -5.34392,3.50183c-6.31188,3.60324 -12.93637,6.15908 -19.26375,9.63531c-16.90894,8.68343 -35.83434,15.41514 -55.02811,16.0307c-6.44334,-0.01142 -13.33736,1.70109 -19.78772,0.29097c-1.50798,-0.32966 -2.83606,-1.24982 -4.32697,-1.64964c-10.89576,-2.92194 -21.42816,-7.37469 -31.70037,-12.0971c-4.52559,-2.587 -10.78482,-6.11366 -13.80975,-10.48978c-4.71217,-6.81703 -4.91247,-16.307 -6.74104,-24.22601c-1.01349,-4.38916 -3.00479,-8.47514 -3.55881,-12.937c-2.99265,-7.89282 -2.6273,-14.8771 -2.9597,-23.15468c-0.23221,-5.7827 -0.47029,-11.52051 -0.17168,-17.31184c0.31401,-6.09002 1.63472,-12.22284 6.04784,-16.62876c1.28673,-1.71978 2.69135,-4.7365 4.43469,-6.04246c2.92627,-2.1921 6.5675,-1.29915 9.86488,-1.60091c3.05803,-0.27985 6.13469,-1.0606 9.23421,-1.12592z" fill="#000000" stroke="none" stroke-width="0.5"/><path d="M268.88289,173.63885c0,-1.5 -1.43582,-1.42331 -1.43582,-1.42331l-0.31983,-0.06935c7.42254,-1.51756 14.95785,-2.83936 22.57931,-2.86107c12.37735,-3.14007 25.67155,-1.36267 38.27019,-0.96563c6.29365,0.19835 12.96251,-0.78632 19.12402,0.5993c4.12144,1.36989 8.42908,2.03978 12.54489,3.537c2.82365,1.02717 5.56371,2.36879 8.41781,3.30705c4.24917,1.39687 8.88368,2.07562 12.68187,4.65665c5.6712,3.85382 10.44414,9.2079 15.26905,14.01992c3.39366,4.54475 7.06707,8.93367 9.04472,14.34254c1.25147,3.42276 0.62628,6.72593 0.94379,10.24502c0.21677,2.40257 1.15079,4.62917 0.96969,7.06607c-0.39694,5.34122 -2.34982,11.29612 -5.01207,15.9262c-1.26411,2.54271 -3.03533,4.3416 -4.48598,6.72057c-3.78536,6.20776 -6.80419,12.72108 -11.97848,18.04421c-1.58584,1.63146 -2.73265,1.88335 -4.69025,2.99948c-6.28871,3.58552 -12.88746,6.14092 -19.19436,9.60312c-16.46159,8.48485 -35.01031,15.08909 -53.70938,15.69277c-6.18525,0.01024 -12.93658,1.7104 -19.12325,0.3535c-1.41631,-0.31064 -2.69979,-1.2127 -4.10373,-1.59323c-10.71771,-2.90499 -21.07952,-7.26781 -31.20059,-11.90329c-4.08525,-2.33347 -10.06607,-5.63894 -12.77536,-9.61496c-1.72714,-2.53467 -2.03024,-4.35749 -2.65938,-7.21237c-1.16043,-5.26575 -2.35425,-10.62794 -3.57028,-15.90047c-1.01697,-4.40945 -3.01022,-8.52596 -3.57348,-13.00266c-1.32574,-3.57048 -2.56572,-6.95078 -2.87884,-10.79207c-0.31703,-3.88921 0.15997,-7.8766 0.00478,-11.77727c-0.22652,-5.69368 -0.45394,-11.34634 -0.17067,-17.04864c0.27124,-5.46021 1.38419,-10.87848 5.32158,-14.82215c1.05532,-1.40402 2.55611,-4.54834 3.9951,-5.62988c1.37697,-1.03492 3.21445,-1.09147 5.01579,-1.02995c-0.32405,0.12983 -0.56836,0.3197 -0.89345,0.44973c0,0 -1.39208,0.55619 -0.83499,1.94891c0.55708,1.39272 1.8682,0.77782 1.8682,0.77782c4.14944,-1.65979 8.19418,-3.35406 12.55353,-4.28515c0.63025,0.00917 1.26035,0.05587 1.8886,0.1537c3.79217,0.59054 6.5359,1.53426 10.50414,0.97374l0.11206,0.01505c0,0 1.50106,-0.00091 1.50106,-1.50091z" data-paper-data="{&quot;noHover&quot;:false,&quot;origItem&quot;:[&quot;Path&quot;,{&quot;applyMatrix&quot;:true,&quot;segments&quot;:[[[268.91494,173.67722],[0,0],[0,1.5]],[267.41494,175.17722],[[267.30292,175.16214],[0,0],[-3.96824,0.56052]],[[256.80189,174.1854],[3.79217,0.59054],[-0.62825,-0.09783]],[[254.91377,174.03119],[0.63025,0.00917],[-4.35935,0.93109]],[[242.36424,178.31142],[4.14944,-1.65979],[0,0]],[[240.41444,177.47579],[0.55708,1.39272],[-0.55709,-1.39272]],[[241.25007,175.52599],[0,0],[0.32509,-0.13003]],[[242.22369,175.13603],[-0.32405,0.12983],[-1.80134,-0.06152]],[[237.20905,176.16438],[1.37697,-1.03492],[-1.43899,1.08154]],[[233.21586,181.79129],[1.05532,-1.40402],[-3.93739,3.94367]],[[227.89782,196.60619],[0.27124,-5.46021],[-0.28327,5.7023]],[[228.07095,213.64648],[-0.22652,-5.69368],[0.15519,3.90067]],[[228.06704,225.41735],[-0.31703,-3.88921],[0.31312,3.84129]],[[230.94594,236.20331],[-1.32574,-3.57048],[0.56326,4.4767]],[[234.51841,249.19824],[-1.01697,-4.40945],[1.21603,5.27253]],[[238.08585,265.08963],[-1.16043,-5.26575],[0.62914,2.85488]],[[240.74333,272.298],[-1.72714,-2.53467],[2.70929,3.97602]],[[253.51381,281.90546],[-4.08525,-2.33347],[10.12107,4.63548]],[[284.69837,293.7954],[-10.71771,-2.90499],[1.40394,0.38053]],[[288.79928,295.38726],[-1.41631,-0.31064],[6.18667,1.3569]],[[307.90945,295.02993],[-6.18525,0.01024],[18.69907,-0.60368]],[[361.57744,279.34997],[-16.46159,8.48485],[6.3069,-3.4622]],[[380.76294,269.75777],[-6.28871,3.58552],[1.9576,-1.11613]],[[385.45161,266.76113],[-1.58584,1.63146],[5.17429,-5.32313]],[[397.42564,248.72941],[-3.78536,6.20776],[1.45065,-2.37897]],[[401.91089,242.01319],[-1.26411,2.54271],[2.66225,-4.63008]],[[406.92269,226.09617],[-0.39694,5.34122],[0.1811,-2.4369]],[[405.95341,219.03405],[0.21677,2.40257],[-0.31751,-3.51909]],[[405.01074,208.79459],[1.25147,3.42276],[-1.97765,-5.40887]],[[395.96921,194.46081],[3.39366,4.54475],[-4.82491,-4.81202]],[[380.70647,180.45093],[5.6712,3.85382],[-3.79819,-2.58103]],[[368.02989,175.79988],[4.24917,1.39687],[-2.8541,-0.93826]],[[359.61661,172.49648],[2.82365,1.02717],[-4.11581,-1.49722]],[[347.07936,168.96397],[4.12144,1.36989],[-6.16151,-1.38562]],[[327.96848,168.3688],[6.29365,0.19835],[-12.59864,-0.39704]],[[289.7268,169.33083],[12.37735,-3.14007],[-7.62146,0.02171]],[[267.15947,172.18441],[7.42254,-1.51756],[0,0]],[267.41493,172.17723],[[268.91493,173.67723],[0,-1.5],[0,0]]],&quot;closed&quot;:true,&quot;fillColor&quot;:[0,0,0,1],&quot;strokeWidth&quot;:0.5}]}" fill="#fdfdfd" stroke="none" stroke-width="0.25"/><path d="M156.65801,321.58484v-277.04485h324.53826v277.04486z" fill="none" stroke="#000000" stroke-width="0"/></g></g></svg>