<svg version="1.1" xmlns="http://www.w3.org/2000/svg" xmlns:xlink="http://www.w3.org/1999/xlink" width="324.53826" height="277.04486" viewBox="0,0,324.53826,277.04486"><g transform="translate(-156.658,-44.53998)"><g data-paper-data="{&quot;isPaintingLayer&quot;:true}" fill-rule="nonzero" stroke-linecap="butt" stroke-linejoin="miter" stroke-miterlimit="10" stroke-dasharray="" stroke-dashoffset="0" style="mix-blend-mode: normal"><path d="M252.25451,222.40946c0.44375,-0.47535 1.14098,-0.47535 1.14098,-0.47535c2.2129,0.03105 4.11054,-0.93441 6.35895,-1.17658c1.17559,-0.12662 4.94332,-0.10872 6.1521,-0.11253c1.36247,-0.00429 4.88901,0.63616 6.12694,0.0737c1.78351,-0.81034 4.79089,-3.30012 6.14792,-4.73539c0.57865,-0.61201 0.74896,-1.66732 1.51163,-2.02471c1.16307,-0.54502 2.56389,0.19895 3.84832,0.19592c3.28592,-0.00775 6.57198,-0.00007 9.85791,0.00086c9.84156,0.66466 19.74247,0.25524 29.60441,0.34266l0.20704,0.13868l0.02702,-0.08107l1.91208,0.63736c0.61294,0.1885 1.05847,0.7592 1.05847,1.43396c0,0.68676 -0.46152,1.26572 -1.09132,1.44365l-2.83489,0.87227l-0.07544,-0.24517c-5.76077,2.60146 -12.50893,4.28821 -18.48509,4.61334c-3.67056,0.1997 -6.99832,0.16852 -10.6162,0.64164c-1.25764,0.16447 -2.67148,-0.6771 -3.80359,-0.10522c-1.38908,0.70169 -1.97543,2.44992 -3.22917,3.37188c-3.12187,2.29571 -5.76567,2.26076 -9.45446,2.23834c-7.37974,2.1085 -14.7761,-0.77295 -22.17351,-1.4704c-1.2188,-0.11491 -6.09958,0.17507 -6.56836,-0.8968c-1.18544,-2.71049 1.64736,-4.05838 4.37826,-4.68104zM258.23991,224.28114c-0.41721,0.65297 -1.27878,0.65297 -1.27878,0.65297h-0.97245c-0.06281,-0.00102 -0.17506,0.01093 -0.32545,0.03257c1.04745,0.1379 1.89415,0.29413 2.0995,0.32046c6.26398,0.80323 12.14177,2.99885 18.43929,1.19956c3.15273,-0.01632 5.40094,0.31268 8.04959,-1.65145c1.55595,-1.15383 1.96119,-2.84764 3.90211,-3.7594c0.8561,-0.40216 3.5099,0.04641 4.62429,-0.10522c5.09778,-0.69366 10.75222,0.12567 15.74538,-0.95077c2.17277,-0.46841 4.51573,-1.58179 6.88437,-2.47103c-7.37595,0.08623 -14.77702,0.10432 -22.11005,-0.39515c-3.25209,0.00095 -6.50428,0.00786 -9.75635,0.00086c-0.58952,-0.00127 -1.18753,0.09246 -1.76855,-0.0073c-0.31991,-0.05493 -0.58703,-0.61083 -0.86611,-0.44508c-0.37018,0.21985 -0.15085,0.89182 -0.43327,1.21679c-1.4376,1.65419 -5.45044,4.81311 -7.46634,5.63738c-2.45723,1.00473 -7.44454,0.05478 -10.06981,0.09781c-1.62252,0.02659 -3.16577,0.32497 -4.69737,0.62701z" fill="#000000" stroke="none" stroke-width="0.5"/><path d="M258.1901,224.28545c1.5316,-0.30204 3.17452,-0.60854 4.79704,-0.63513c2.62527,-0.04303 7.51314,0.9172 9.97037,-0.08753c2.0159,-0.82427 6.03911,-4.02067 7.47671,-5.67486c0.28242,-0.32497 0.06913,-1.00333 0.43931,-1.22318c0.27908,-0.16575 0.54843,0.38829 0.86834,0.44322c0.58102,0.09976 1.19068,-0.00082 1.7802,0.00045c3.25207,0.007 6.56615,0.02004 9.81824,0.01909c7.33303,0.49947 14.74097,0.50031 22.11692,0.41408c-2.36864,0.88924 -4.71124,2.00574 -6.88401,2.47415c-4.99316,1.07644 -10.747,0.26776 -15.84478,0.96142c-1.11439,0.15163 -3.67105,-0.31888 -4.52715,0.08328c-1.94092,0.91176 -2.4139,2.66673 -3.96985,3.82056c-2.64865,1.96413 -4.9216,1.61134 -8.07433,1.62766c-6.29752,1.79929 -12.18003,-0.41228 -18.44401,-1.21551c-0.20535,-0.02633 -1.05216,-0.1835 -2.09961,-0.3214c0.15039,-0.02164 0.36213,-0.04372 0.42494,-0.0427l0.87298,0.01031c0,0 0.86148,-0.00094 1.27869,-0.65391z" data-paper-data="{&quot;noHover&quot;:false,&quot;origItem&quot;:[&quot;Path&quot;,{&quot;applyMatrix&quot;:true,&quot;segments&quot;:[[[258.23991,224.28114],[0,0],[-0.41721,0.65297]],[256.96113,224.93411],[[255.98868,224.93411],[0,0],[-0.06281,-0.00102]],[[255.66323,224.96668],[0.15039,-0.02164],[1.04745,0.1379]],[[257.76273,225.28714],[-0.20535,-0.02633],[6.26398,0.80323]],[[276.20202,226.4867],[-6.29752,1.79929],[3.15273,-0.01632]],[[284.25161,224.83525],[-2.64865,1.96413],[1.55595,-1.15383]],[[288.15372,221.07585],[-1.94092,0.91176],[0.8561,-0.40216]],[[292.77801,220.97063],[-1.11439,0.15163],[5.09778,-0.69366]],[[308.52339,220.01986],[-4.99316,1.07644],[2.17277,-0.46841]],[[315.40776,217.54883],[-2.36864,0.88924],[-7.37595,0.08623]],[[293.29771,217.15368],[7.33303,0.49947],[-3.25209,0.00095]],[[283.54136,217.15454],[3.25207,0.007],[-0.58952,-0.00127]],[[281.77281,217.14724],[0.58102,0.09976],[-0.31991,-0.05493]],[[280.9067,216.70216],[0.27908,-0.16575],[-0.37018,0.21985]],[[280.47343,217.91895],[0.28242,-0.32497],[-1.4376,1.65419]],[[273.00709,223.55633],[2.0159,-0.82427],[-2.45723,1.00473]],[[262.93728,223.65414],[2.62527,-0.04303],[-1.62252,0.02659]],[[258.23991,224.28115],[1.5316,-0.30204],[0,0]]],&quot;closed&quot;:true,&quot;fillColor&quot;:[0,0,0,1],&quot;strokeWidth&quot;:0.5}]}" fill="#a3682e" stroke="none" stroke-width="0.25"/><path d="M323.27584,222.59002c-0.44467,-1.27998 0.84157,-1.83122 0.84157,-1.83122c4.94718,-2.08502 10.35223,-2.56705 15.52222,-1.37775c1.39722,0.32142 4.79224,0.27595 5.54019,1.77179c1.63804,3.27592 -2.60896,3.89179 -3.89991,4.74476c-2.29945,1.5193 -2.42301,4.62655 -4.76052,5.94289c-2.87497,1.61902 -7.07331,1.01081 -10.19036,0.54906c-2.17591,0.32233 -6.00795,1.01292 -8.17998,0.26972c-3.11187,-1.06479 -4.48874,-4.16199 -1.94551,-6.73139c1.89565,-1.91516 4.64131,-2.4073 7.0723,-3.33785zM329.77751,222.07125c0.10705,1.27384 -1.2094,1.53713 -1.2094,1.53713l-1.28135,0.21291c-0.5529,0.43788 -1.00775,1.04219 -1.65871,1.31365c-0.71214,0.29697 -1.56473,0.07172 -2.29062,0.33328c-1.64807,0.59385 -8.80499,4.35347 -3.16722,4.24546c0.54015,-0.01035 1.0805,-0.00054 1.62075,0c1.51655,0.00151 3.03579,-0.11676 4.53809,-0.32415c2.44535,0.33758 6.32069,1.10783 8.61029,-0.09924c1.20456,-0.63504 1.30799,-2.40341 2.15005,-3.47353c0.71827,-0.9128 1.55808,-1.75447 2.51742,-2.4093c0.52511,-0.35844 1.12968,-0.5785 1.74114,-0.77472c-1.46378,0.00939 -2.78129,-0.68442 -4.23811,-0.95949c-2.17307,-0.41031 -4.84783,-0.16671 -7.33232,0.398z" fill="#000000" stroke="none" stroke-width="0.5"/><path d="M329.77866,222.02126c2.48449,-0.56471 5.20203,-0.78221 7.3751,-0.3719c1.45682,0.27507 2.77875,0.98002 4.24253,0.97063c-0.61146,0.19622 -1.21567,0.41774 -1.74078,0.77618c-0.95934,0.65483 -1.79786,1.50854 -2.51613,2.42134c-0.84206,1.07012 -0.9542,2.86595 -2.15876,3.50099c-2.2896,1.20707 -6.23995,0.44552 -8.6853,0.10794c-1.5023,0.20739 -3.03241,0.31136 -4.54896,0.30985c-0.54025,-0.00054 -1.08209,-0.01357 -1.62224,-0.00322c-5.63777,0.10801 1.51527,-3.67287 3.16334,-4.26672c0.72589,-0.26156 1.57893,-0.0414 2.29107,-0.33837c0.65096,-0.27146 1.11595,-0.89964 1.66885,-1.33752l1.29707,-0.22614c0,0 1.34124,-0.26923 1.23419,-1.54307z" data-paper-data="{&quot;noHover&quot;:false,&quot;origItem&quot;:[&quot;Path&quot;,{&quot;applyMatrix&quot;:true,&quot;segments&quot;:[[[329.77751,222.07125],[0,0],[0.10705,1.27384]],[328.56811,223.60838],[[327.28676,223.82129],[0,0],[-0.5529,0.43788]],[[325.62805,225.13494],[0.65096,-0.27146],[-0.71214,0.29697]],[[323.33743,225.46822],[0.72589,-0.26156],[-1.64807,0.59385]],[[320.17021,229.71368],[-5.63777,0.10801],[0.54015,-0.01035]],[[321.79096,229.71368],[-0.54025,-0.00054],[1.51655,0.00151]],[[326.32905,229.38953],[-1.5023,0.20739],[2.44535,0.33758]],[[334.93934,229.29029],[-2.2896,1.20707],[1.20456,-0.63504]],[[337.08939,225.81676],[-0.84206,1.07012],[0.71827,-0.9128]],[[339.60681,223.40746],[-0.95934,0.65483],[0.52511,-0.35844]],[[341.34795,222.63274],[-0.61146,0.19622],[-1.46378,0.00939]],[[337.10984,221.67325],[1.45682,0.27507],[-2.17307,-0.41031]],[[329.77752,222.07125],[2.48449,-0.56471],[0,0]]],&quot;closed&quot;:true,&quot;fillColor&quot;:[0,0,0,1],&quot;strokeWidth&quot;:0.5}]}" fill="#a3682e" stroke="none" stroke-width="0.25"/><path d="M156.65801,321.58484v-277.04485h324.53826v277.04486z" fill="none" stroke="#000000" stroke-width="0"/></g></g></svg>