<svg version="1.1" xmlns="http://www.w3.org/2000/svg" xmlns:xlink="http://www.w3.org/1999/xlink" width="324.53826" height="277.04486" viewBox="0,0,324.53826,277.04486"><g transform="translate(-156.658,-44.53998)"><g data-paper-data="{&quot;isPaintingLayer&quot;:true}" fill-rule="nonzero" stroke-linecap="butt" stroke-linejoin="miter" stroke-miterlimit="10" stroke-dasharray="" stroke-dashoffset="0" style="mix-blend-mode: normal"><path d="M255.10445,223.99419c0.81245,0.81245 0.38025,1.62491 0.13347,1.96066c2.39216,-0.65039 4.87506,-1.49442 7.26088,-1.94393c2.4365,-0.45906 5.54656,-0.15499 7.88247,-1.01199c3.92622,-1.44045 2.20014,-4.98622 5.54087,-7.30897c3.94131,-2.74032 8.46562,-1.55663 12.82608,-1.49531c2.25353,1.12677 5.38057,1.59694 7.92277,1.91372c1.64488,0.20497 3.43642,-0.50183 4.78677,1.07868c3.69188,4.32113 -3.36668,6.73624 -6.2418,7.79515c-3.22689,1.18846 -5.74699,4.45736 -9.28824,4.80954c-1.65511,0.1646 -3.3163,-0.3189 -4.97957,-0.31955c-3.40085,-0.00134 -6.73956,0.33824 -10.16472,0.30965c-4.39279,1.25508 -9.02358,1.00949 -13.58082,0.98695c-1.36243,-0.00674 -4.14243,0.30309 -5.04923,-1.30736c-0.6161,-1.09418 -0.17193,-2.50552 -0.2579,-3.75829l1.08764,-1.70896c0,0 1.06066,-1.06066 2.12132,0zM259.70925,227.77621c3.6007,0.02371 7.18116,0.02804 10.65809,-0.96537c5.04316,-0.03396 10.37208,0.284 15.32573,-0.0099c2.20372,-0.13075 3.75176,-2.60598 5.41831,-3.55553c2.22412,-1.26724 6.79425,-1.44981 8.46467,-3.67854c0.23807,-0.31764 -0.68743,-0.46568 -1.08334,-0.49451c-0.71449,-0.05202 -1.43825,0.10723 -2.14906,0.01811c-2.60609,-0.32676 -5.96996,-0.8187 -8.28468,-1.97606c-3.81036,0.06514 -6.96371,-0.91252 -10.51266,1.09788c-0.95731,0.5423 -0.98429,1.97854 -1.3114,3.02903c-0.6388,2.05146 -2.84242,3.85907 -4.81709,4.57286c-2.54399,0.91959 -5.77933,0.6625 -8.41271,1.15371c-1.08406,0.20221 -2.18899,0.49206 -3.29585,0.80832zM254.83469,226.06279c0.07131,-0.01877 0.14272,-0.03774 0.21421,-0.0569l-0.15341,-0.30274c-0.01487,0.1197 -0.03626,0.23961 -0.0608,0.35963z" fill="#000000" stroke="none" stroke-width="0.5"/><path d="M259.75751,227.76311c1.10686,-0.31626 2.21173,-0.60634 3.29579,-0.80855c2.63338,-0.49121 5.86664,-0.24012 8.41063,-1.15971c1.97467,-0.71379 4.08464,-2.51755 4.72344,-4.56901c0.32711,-1.05049 0.3789,-2.51578 1.33621,-3.05808c3.54895,-2.0104 6.76744,-1.01469 10.5778,-1.07983c2.31472,1.15736 5.68525,1.66617 8.29134,1.99293c0.71081,0.08912 1.43476,-0.06911 2.14925,-0.01709c0.39591,0.02883 1.32167,0.17852 1.0836,0.49616c-1.67042,2.22873 -6.24022,2.4221 -8.46434,3.68934c-1.66655,0.94955 -3.22419,3.45057 -5.42791,3.58132c-4.95365,0.2939 -10.36792,-0.03211 -15.41108,0.00185c-3.47693,0.99341 -7.06055,0.98058 -10.66125,0.95687z" data-paper-data="{&quot;noHover&quot;:false,&quot;origItem&quot;:[&quot;Path&quot;,{&quot;applyMatrix&quot;:true,&quot;segments&quot;:[[[259.70925,227.77621],[0,0],[3.6007,0.02371]],[[270.36734,226.81084],[-3.47693,0.99341],[5.04316,-0.03396]],[[285.69307,226.80094],[-4.95365,0.2939],[2.20372,-0.13075]],[[291.11138,223.24541],[-1.66655,0.94955],[2.22412,-1.26724]],[[299.57605,219.56687],[-1.67042,2.22873],[0.23807,-0.31764]],[[298.49271,219.07236],[0.39591,0.02883],[-0.71449,-0.05202]],[[296.34365,219.09047],[0.71081,0.08912],[-2.60609,-0.32676]],[[288.05897,217.11441],[2.31472,1.15736],[-3.81036,0.06514]],[[277.54631,218.21229],[3.54895,-2.0104],[-0.95731,0.5423]],[[276.23491,221.24132],[0.32711,-1.05049],[-0.6388,2.05146]],[[271.41782,225.81418],[1.97467,-0.71379],[-2.54399,0.91959]],[[263.00511,226.96789],[2.63338,-0.49121],[-1.08406,0.20221]],[[259.70926,227.77621],[1.10686,-0.31626],[0,0]]],&quot;closed&quot;:true,&quot;fillColor&quot;:[0,0,0,1],&quot;strokeWidth&quot;:0.5}]}" fill="#a3682e" stroke="none" stroke-width="0.25"/><path d="M327.49303,218.34878c0.69437,0.01076 1.3873,0.01969 2.0775,0.01969c0.4391,0 3.82684,-0.03368 4.13967,0.11418c3.50989,1.65903 4.80572,8.27658 2.05133,10.92759c-3.81143,3.66838 -8.3133,5.64223 -13.53199,6.20606c-2.04438,-0.84328 -3.43196,-2.22328 -5.31966,-3.05913c-2.35971,-1.04486 -4.84208,-1.17654 -5.9347,-4.08846c-1.03015,-2.74544 1.26181,-5.0444 2.94798,-6.74356c3.1334,-3.15754 7.04388,-4.65328 11.43343,-4.65328h0.6483c0,0 1.34732,0 1.48814,1.27691zM318.94,221.64832c-1.02487,0.57015 -1.98936,1.30009 -2.89552,2.19815c-0.60822,0.60279 -2.83404,2.35135 -2.23841,3.62922c0.82311,1.7659 2.9706,1.71294 4.43808,2.39452c1.58386,0.73564 2.76556,2.03013 4.40482,2.77555c4.55697,-0.67936 7.50146,-2.77719 11.10334,-5.46331c1.25616,-0.93679 0.19875,-5.40905 -1.19016,-5.92816c-0.93477,-0.34938 -1.99368,0.11418 -2.99162,0.11418c-3.51584,0 -7.15414,-0.28498 -10.63053,0.27985z" fill="#000000" stroke="none" stroke-width="0.5"/><path d="M329.60603,221.33326c0.99794,0 2.06311,-0.45584 2.99788,-0.10646c1.38891,0.51911 2.45453,5.02039 1.19837,5.95718c-3.60188,2.68612 -6.60784,4.83109 -11.16481,5.51045c-1.63926,-0.74542 -2.85387,-2.06558 -4.43773,-2.80122c-1.46748,-0.68158 -3.62049,-0.64872 -4.4436,-2.41462c-0.59563,-1.27787 1.63339,-3.04714 2.24161,-3.64993c0.90616,-0.89806 1.88259,-1.6461 2.90746,-2.21625c3.47639,-0.56483 7.18497,-0.27914 10.70081,-0.27914z" data-paper-data="{&quot;noHover&quot;:false,&quot;origItem&quot;:[&quot;Path&quot;,{&quot;applyMatrix&quot;:true,&quot;segments&quot;:[[[318.94,221.64832],[3.47639,-0.56483],[-1.02487,0.57015]],[[316.04448,223.84647],[0.90616,-0.89806],[-0.60822,0.60279]],[[313.80607,227.47569],[-0.59563,-1.27787],[0.82311,1.7659]],[[318.24415,229.87021],[-1.46748,-0.68158],[1.58386,0.73564]],[[322.64897,232.64576],[-1.63926,-0.74542],[4.55697,-0.67936]],[[333.75231,227.18245],[-3.60188,2.68612],[1.25616,-0.93679]],[[332.56215,221.25429],[1.38891,0.51911],[-0.93477,-0.34938]],[[329.57053,221.36847],[0.99794,0],[-3.51584,0]]],&quot;closed&quot;:true,&quot;fillColor&quot;:[0,0,0,1],&quot;strokeWidth&quot;:0.5}]}" fill="#a3682e" stroke="none" stroke-width="0.25"/><path d="M156.65801,321.58484v-277.04485h324.53826v277.04486z" fill="none" stroke="#000000" stroke-width="0"/></g></g></svg>