<svg version="1.1" xmlns="http://www.w3.org/2000/svg" xmlns:xlink="http://www.w3.org/1999/xlink" width="324.53826" height="277.04486" viewBox="0,0,324.53826,277.04486"><g transform="translate(-156.658,-44.53998)"><g data-paper-data="{&quot;isPaintingLayer&quot;:true}" fill-rule="nonzero" stroke-linecap="butt" stroke-linejoin="miter" stroke-miterlimit="10" stroke-dasharray="" stroke-dashoffset="0" style="mix-blend-mode: normal"><path d="M264.48924,225.23444c0.09743,-0.00971 0.19476,-0.02029 0.29196,-0.03178c2.78253,-0.32896 3.85181,-4.29509 7.56513,-2.54328c4.19721,1.98009 2.07361,2.84089 0.05783,4.59947c-2.97417,2.59469 -6.48647,2.47769 -10.0486,3.49544c-2.20714,0.00885 -3.59759,-0.09242 -5.75285,0.31037c-2.2924,0.42842 -3.82645,1.69172 -6.27237,1.31757c-0.8782,-0.13434 -2.02285,-0.05873 -2.55056,-0.77343c-1.58253,-2.14327 -1.06681,-3.42886 0.23763,-4.50663c0.14,-1.27828 1.48829,-1.27828 1.48829,-1.27828c0.29205,0.00332 0.58168,-0.02118 0.86991,-0.06263c0.28473,-0.08082 0.56462,-0.13077 0.84273,-0.16017c0.64396,-0.14444 1.28578,-0.32093 1.93688,-0.40613c1.586,-0.20753 3.20296,-0.16337 4.82498,-0.07323c1.55389,-0.17473 3.0822,-0.27029 4.81562,-0.27029h0.6483c0,0 0.6037,0 1.04513,0.38299zM268.17533,226.47485c0.35441,-0.13058 0.70037,-0.28432 1.03494,-0.46859c0.07199,-0.03965 0.16612,-0.12512 0.27734,-0.23423c-0.3283,0.07429 -0.58772,0.14418 -0.67967,0.21093c-0.21296,0.15459 -0.42286,0.32149 -0.63261,0.49189zM254.92068,228.4411c-0.61135,0.03735 -1.2267,0.05989 -1.84934,0.05865c-0.39001,-0.00078 -3.52061,0.90233 -3.13632,1.02222c1.43076,0.44635 3.40128,-0.51701 4.98565,-1.08087z" fill="#000000" stroke="none" stroke-width="0.5"/><path d="M283.55698,214.86296c2.66936,0.10908 5.34963,-0.05615 8.04881,-0.06003c0.4601,-0.00066 4.47675,-0.03436 4.82726,0.11409c1.48577,0.62922 2.91277,3.26968 3.54116,4.46488c0.46939,0.89279 1.63612,1.83446 1.23792,2.76119c-0.59046,1.37419 -2.21619,2.09481 -3.58423,2.69938c-0.20544,0.09079 -4.68353,0.11602 -5.09331,0.08935c-2.6861,-0.17477 -4.34009,-0.99747 -6.80421,-1.67393c-2.16463,-0.59424 -4.33584,-0.5871 -6.49818,-1.30094c-2.25324,-0.56537 -3.9426,-1.08452 -5.90159,-2.27678l-1.40138,-0.28028c-0.70108,-0.12592 -1.23307,-0.73899 -1.23307,-1.47632c0,-0.51041 0.25493,-0.96128 0.64441,-1.23222l2.25278,-1.60913l0.00941,0.01318c0.04184,-0.03374 0.0841,-0.06702 0.12682,-0.09981c2.3185,-1.77954 5.8458,-1.32871 8.48523,-0.81194l0.02997,-0.02913c0,0 0.90969,0 1.31222,0.70842zM278.52334,217.00328c-1.02118,0.11083 -1.99005,0.32932 -3.02998,0.4713c1.4669,0.74832 2.73628,1.14341 4.57759,1.602c2.1517,0.7248 4.29785,0.70375 6.46778,1.29226c3.43735,0.93224 6.54238,2.08447 10.24301,1.59542c0.5217,-0.06894 1.21985,-0.03754 1.50376,-0.48061c0.18112,-0.28267 -0.65487,-0.25712 -0.86149,-0.52173c-0.80218,-1.02731 -0.9086,-2.84322 -2.13901,-3.27327c-1.15708,-0.40442 -2.44967,0.11252 -3.67538,0.11427c-4.11464,0.0059 -8.14119,0.32176 -12.20464,-0.34465c0,0 -0.51034,-0.08506 -0.88163,-0.45499z" fill="#000000" stroke="none" stroke-width="0.5"/><path d="M278.5712,217.01778c0.37129,0.36993 0.7856,0.4271 0.7856,0.4271c4.06345,0.66641 8.18508,0.34661 12.29972,0.34071c1.22571,-0.00175 2.52022,-0.51216 3.6773,-0.10774c1.23041,0.43005 1.33756,2.26344 2.13974,3.29075c0.20662,0.26461 1.04235,0.24078 0.86123,0.52345c-0.28391,0.44307 -0.98279,0.41517 -1.50449,0.48411c-3.70063,0.48905 -6.87434,-0.62931 -10.31169,-1.56155c-2.16993,-0.58851 -4.34584,-0.61663 -6.49754,-1.34143c-1.84131,-0.45859 -3.11,-0.8592 -4.5769,-1.60752c1.03993,-0.14198 2.01015,-0.36605 3.03133,-0.47688z" data-paper-data="{&quot;noHover&quot;:false,&quot;origItem&quot;:[&quot;Path&quot;,{&quot;applyMatrix&quot;:true,&quot;segments&quot;:[[[278.52334,217.00328],[0,0],[-1.02118,0.11083]],[[275.49336,217.47458],[1.03993,-0.14198],[1.4669,0.74832]],[[280.07095,219.07658],[-1.84131,-0.45859],[2.1517,0.7248]],[[286.53873,220.36884],[-2.16993,-0.58851],[3.43735,0.93224]],[[296.78174,221.96426],[-3.70063,0.48905],[0.5217,-0.06894]],[[298.2855,221.48365],[-0.28391,0.44307],[0.18112,-0.28267]],[[297.42401,220.96192],[0.20662,0.26461],[-0.80218,-1.02731]],[[295.285,217.68865],[1.23041,0.43005],[-1.15708,-0.40442]],[[291.60962,217.80292],[1.22571,-0.00175],[-4.11464,0.0059]],[[279.40498,217.45827],[4.06345,0.66641],[0,0]],[[278.52335,217.00328],[0.37129,0.36993],[0,0]]],&quot;closed&quot;:true,&quot;fillColor&quot;:[0,0,0,1],&quot;strokeWidth&quot;:0.5}]}" fill="#a3682e" stroke="none" stroke-width="0.25"/><path d="M308.62573,223.62449c0.08642,-1.36623 1.49586,-1.36623 1.49586,-1.36623c0.57457,0.00174 1.15492,0.00643 1.73889,0.01601c0.18062,-0.03091 0.3973,-0.04069 0.61904,0.01203c3.14109,0.07098 6.36365,0.30121 9.33192,0.98454c1.18438,0.27266 4.19021,0.21387 4.85239,1.69669c1.25128,2.80202 -1.02202,4.45504 -3.02467,5.37201c-1.86418,0.85357 -5.19828,0.42926 -7.11725,0.42926c-4.21217,0 -8.19211,0.30296 -12.26092,-0.79221c1.2409,-3.1312 2.06452,-5.04681 4.36474,-6.35209zM312.19032,225.35607l-0.36006,0.16863c-1.61896,0.42051 -2.30813,1.3403 -3.23727,2.10276c0.62179,0.00962 1.31325,0.14134 1.92892,0.14134c3.46548,0 7.04168,0.25623 10.49702,0.00511c0.50982,-0.03705 1.03327,-0.05898 1.51701,-0.22415c0.59223,-0.20222 2.00764,-0.72707 1.51342,-1.11097c-0.77333,-0.60071 -1.97316,-0.02747 -2.92719,-0.2482c-0.63151,-0.14611 -1.20168,-0.51794 -1.84054,-0.62754c-1.19901,-0.20569 -2.433,0.02176 -3.64952,0.01937c-1.18444,-0.00233 -2.30373,-0.13174 -3.4418,-0.22634z" fill="#000000" stroke="none" stroke-width="0.5"/><path d="M312.14245,225.34161c1.13807,0.0946 2.27618,0.19778 3.46062,0.20011c1.21652,0.00239 2.52655,-0.20144 3.72556,0.00425c0.63886,0.1096 1.21183,0.494 1.84334,0.64011c0.95403,0.22073 2.15405,-0.34919 2.92738,0.25152c0.49422,0.3839 -0.92174,0.91739 -1.51397,1.11961c-0.48374,0.16517 -1.0081,0.19169 -1.51792,0.22874c-3.45534,0.25112 -7.12913,-0.00753 -10.59461,-0.00753c-0.61567,0 -1.30765,-0.13493 -1.92944,-0.14455c0.92914,-0.76246 1.61929,-1.70039 3.23825,-2.1209l0.3608,-0.17137z" data-paper-data="{&quot;noHover&quot;:false,&quot;origItem&quot;:[&quot;Path&quot;,{&quot;applyMatrix&quot;:true,&quot;segments&quot;:[[312.19032,225.35607],[[311.83026,225.5247],[0,0],[-1.61896,0.42051]],[[308.59299,227.62746],[0.92914,-0.76246],[0.62179,0.00962]],[[310.52191,227.7688],[-0.61567,0],[3.46548,0]],[[321.01893,227.77391],[-3.45534,0.25112],[0.50982,-0.03705]],[[322.53594,227.54976],[-0.48374,0.16517],[0.59223,-0.20222]],[[324.04936,226.43879],[0.49422,0.3839],[-0.77333,-0.60071]],[[321.12217,226.19059],[0.95403,0.22073],[-0.63151,-0.14611]],[[319.28163,225.56305],[0.63886,0.1096],[-1.19901,-0.20569]],[[315.63211,225.58242],[1.21652,0.00239],[-1.18444,-0.00233]],[[312.19031,225.35608],[1.13807,0.0946],[0,0]]],&quot;closed&quot;:true,&quot;fillColor&quot;:[0,0,0,1],&quot;strokeWidth&quot;:0.5}]}" fill="#a3682e" stroke="none" stroke-width="0.25"/><path d="M156.65801,321.58484v-277.04485h324.53826v277.04486z" fill="none" stroke="#000000" stroke-width="0"/></g></g></svg>