<svg version="1.1" xmlns="http://www.w3.org/2000/svg" xmlns:xlink="http://www.w3.org/1999/xlink" width="324.53826" height="277.04486" viewBox="0,0,324.53826,277.04486"><g transform="translate(-156.658,-44.53998)"><g data-paper-data="{&quot;isPaintingLayer&quot;:true}" fill-rule="nonzero" stroke-linecap="butt" stroke-linejoin="miter" stroke-miterlimit="10" stroke-dasharray="" stroke-dashoffset="0" style="mix-blend-mode: normal"><path d="M257.24117,221.57517c3.09202,-0.3855 6.27039,-0.28936 9.44443,-0.28936c3.44051,0 6.87607,0.1595 9.81106,1.8131c0.82629,0.46554 4.42714,1.46535 4.44526,1.51525c1.57535,4.34014 -4.3946,6.19396 -7.15885,7.31959c-2.775,1.36957 -4.65548,0.8117 -7.4621,1.40117c-5.14271,1.08012 -11.43859,2.16945 -16.77478,0.97245c-5.66814,-1.27146 -5.75875,-7.36092 -1.60122,-10.44309c1.69494,-1.25653 4.13398,-1.57518 5.97537,-2.68886l2.06834,-0.21376c0,0 0.8265,0 1.25249,0.61351zM251.05163,225.5145c-0.46956,0.20797 -0.90575,0.44371 -1.2818,0.73093c-0.3505,0.2677 -0.46018,0.75788 -0.7517,1.08882c-0.33194,0.37683 -0.81897,0.6104 -1.10727,1.02158c-2.17296,3.09923 5.94974,3.27004 6.54002,3.30504c3.80557,0.22567 7.65573,-0.57311 11.30276,-1.27183c2.68614,-0.51462 4.2307,0.11179 6.80046,-1.19202c0.99908,-0.39127 1.84254,-1.10647 2.81119,-1.56794c0.7116,-0.33901 1.54696,-0.36745 2.25317,-0.71755c0.31901,-0.15815 1.04076,-0.57283 0.74275,-0.76769c-0.39413,-0.25771 -0.89901,0.42031 -1.36605,0.36013c-0.70114,-0.09035 -1.34836,-0.44996 -1.96827,-0.78977c-4.88072,-2.6754 -13.08323,-1.62657 -18.50601,-0.79459c-1.29409,0.19854 -2.63515,0.33297 -3.83111,0.86566c0,0 -0.97655,0.41852 -1.63814,-0.27077z" fill="#000000" stroke="none" stroke-width="0.5"/><path d="M252.64075,225.77544c1.19596,-0.53269 2.5405,-0.67793 3.83459,-0.87647c5.42278,-0.83198 13.72006,-1.8689 18.60078,0.8065c0.61991,0.33981 1.26767,0.70337 1.96881,0.79372c0.46704,0.06018 0.97184,-0.61857 1.36597,-0.36086c0.29801,0.19486 -0.42354,0.61185 -0.74255,0.77c-0.70621,0.3501 -1.54148,0.38085 -2.25308,0.71986c-0.96865,0.46147 -1.81259,1.18453 -2.81167,1.5758c-2.56976,1.30381 -4.12699,0.70424 -6.81313,1.21886c-3.64703,0.69872 -7.57968,1.48407 -11.38525,1.2584c-0.59028,-0.035 -8.7173,-0.22452 -6.54434,-3.32375c0.2883,-0.41118 0.77534,-0.64827 1.10728,-1.0251c0.29152,-0.33094 0.40153,-0.8253 0.75203,-1.093c0.37605,-0.28722 0.81281,-0.52654 1.28237,-0.73451c0.66159,0.68929 1.63819,0.27054 1.63819,0.27054z" data-paper-data="{&quot;noHover&quot;:false,&quot;origItem&quot;:[&quot;Path&quot;,{&quot;applyMatrix&quot;:true,&quot;segments&quot;:[[[251.05163,225.5145],[0.66159,0.68929],[-0.46956,0.20797]],[[249.76983,226.24543],[0.37605,-0.28722],[-0.3505,0.2677]],[[249.01813,227.33425],[0.29152,-0.33094],[-0.33194,0.37683]],[[247.91086,228.35583],[0.2883,-0.41118],[-2.17296,3.09923]],[[254.45088,231.66087],[-0.59028,-0.035],[3.80557,0.22567]],[[265.75364,230.38904],[-3.64703,0.69872],[2.68614,-0.51462]],[[272.5541,229.19702],[-2.56976,1.30381],[0.99908,-0.39127]],[[275.36529,227.62908],[-0.96865,0.46147],[0.7116,-0.33901]],[[277.61846,226.91153],[-0.70621,0.3501],[0.31901,-0.15815]],[[278.36121,226.14384],[0.29801,0.19486],[-0.39413,-0.25771]],[[276.99516,226.50397],[0.46704,0.06018],[-0.70114,-0.09035]],[[275.02689,225.7142],[0.61991,0.33981],[-4.88072,-2.6754]],[[256.52088,224.91961],[5.42278,-0.83198],[-1.29409,0.19854]],[[252.68977,225.78527],[1.19596,-0.53269],[0,0]]],&quot;closed&quot;:true,&quot;fillColor&quot;:[0,0,0,1],&quot;strokeWidth&quot;:0.5}]}" fill="#a3682e" stroke="none" stroke-width="0.25"/><path d="M156.658,321.58484v-277.04485h324.53826v277.04485z" fill="none" stroke="#000000" stroke-width="0"/><path d="M156.65801,321.58484v-277.04485h324.53826v277.04486z" fill="none" stroke="#000000" stroke-width="0"/></g></g></svg>