<svg version="1.1" xmlns="http://www.w3.org/2000/svg" xmlns:xlink="http://www.w3.org/1999/xlink" width="324.53826" height="277.04486" viewBox="0,0,324.53826,277.04486"><g transform="translate(-156.658,-44.53998)"><g data-paper-data="{&quot;isPaintingLayer&quot;:true}" fill-rule="nonzero" stroke-linecap="butt" stroke-linejoin="miter" stroke-miterlimit="10" stroke-dasharray="" stroke-dashoffset="0" style="mix-blend-mode: normal"><path d="M216.68432,187.77787c-2.41258,-3.07572 -4.43381,-6.66642 -6.14528,-9.87208c-1.46574,-2.74538 -2.51406,-5.32456 1.4869,-6.3498c4.11541,-1.05457 9.29336,2.58289 13.02249,4.0672c2.51218,0.99992 3.92464,0.54276 3.91582,-2.02891c0.06158,-1.09445 -0.92188,-1.99737 -1.23453,-3.04801c-0.45481,-1.52834 -0.91067,-6.19804 -0.30395,-7.73832c2.27187,-5.76764 8.87328,-4.24595 13.64404,-3.98831c1.32606,0.07161 2.82736,0.87789 3.97815,0.21514c0.92902,-0.53503 1.06851,-1.89971 1.85738,-2.62567c0.58479,-0.53815 3.84003,-2.98831 4.86577,-3.29989c2.00357,-0.60861 2.59639,0.33424 4.50667,0.60601c2.66343,0.37891 3.43717,-0.24162 5.48918,-1.82594c1.85602,-1.4718 3.84586,-4.31812 6.03258,-5.19985c2.93703,-1.18427 6.49901,0.56481 9.27903,-0.39389c2.16792,-0.74762 4.1385,-2.74927 6.03354,-4.01066c2.89662,-1.92807 6.33519,-3.62392 8.88889,-6.01057c0.72601,-0.67852 1.1357,-1.72588 2.00625,-2.20507c0.66037,-0.3635 1.50334,-0.1258 2.25698,-0.14162c4.26631,-0.08954 7.1274,1.89869 11.13193,2.98181c4.78413,1.64888 8.59395,-1.26276 13.05132,-2.51257c7.11728,-1.99564 15.65786,-3.06787 22.8558,-1.39745c1.93941,0.45008 4.43857,0.46497 6.23001,1.45734c2.95838,1.63879 5.01302,7.26738 5.43908,10.33313c2.82201,2.61958 5.93612,2.77816 9.12561,4.56511c0.83113,0.46565 2.67192,2.03478 3.13428,2.78809c0.308,0.50181 0.03332,1.30261 0.46368,1.70444c2.25048,2.10126 7.40473,1.05086 10.13952,1.48869c2.27765,0.36465 6.8889,1.99315 8.6049,3.64115c0.98121,0.94234 1.49346,2.32573 2.54087,3.1939c2.51882,2.0878 4.1457,3.386 5.44568,6.45107c1.08649,1.06291 2.01668,2.30442 3.23403,3.21452c1.68626,1.26067 3.40648,1.443 4.96918,3.024c2.61492,2.64554 3.51168,6.88703 5.41105,9.96893c1.44674,2.34747 4.02676,1.59325 5.86856,4.26628c1.32658,1.9253 1.40877,5.11039 2.34034,7.24009c0.76924,1.7586 2.19956,3.18939 2.89164,4.97976c1.65449,4.28004 1.84139,9.60677 2.12259,14.12972c-0.1462,0.31035 -0.74396,0.77468 -0.43861,0.93104c0.62227,0.31865 5.38517,-1.43352 5.70741,-1.57982c3.8171,-1.73306 7.96289,-3.54667 11.53236,-5.71983c1.5071,-0.91755 3.5686,-2.51691 5.58051,-1.29207c2.10831,1.28353 0.37082,5.07556 -0.10425,6.26334c-0.90149,2.25391 -2.62323,6.0975 -4.18196,7.95446c-0.57738,0.68784 -2.66299,1.50423 -3.43661,2.12743c-2.23058,1.79686 -4.39663,3.30131 -6.85379,4.85094c-4.56424,2.86431 -10.39616,3.09618 -15.00748,5.62087c-1.12325,0.61498 -0.8148,2.6398 -0.85027,3.40887c-0.11827,2.56383 0.59096,4.46618 1.19499,6.91439c0.20791,0.84268 0.87345,1.66288 0.68909,2.51103c-0.37647,1.73189 -2.18417,2.79484 -3.18452,4.25787c-0.98746,1.44417 -0.79992,3.56194 -1.03015,5.14851c-0.37879,2.61031 -1.29986,4.49723 -1.29986,7.15606c-1.2257,4.38 -3.33924,8.13224 -4.93468,12.28873c-0.2521,0.65676 -0.04107,1.45881 -0.37809,2.07631c-1.73171,3.17283 -5.3526,5.77254 -8.29012,7.73351c-2.1107,1.40902 -4.40945,2.54478 -6.63539,3.6574c-1.6017,0.8006 -2.4592,0.45617 -3.86078,1.68811c-1.05869,0.93055 -1.17718,2.56422 -1.67064,3.88454c-1.36939,3.66399 -2.96734,7.11035 -4.42633,10.72764c-0.42986,0.70671 -0.59088,1.67736 -1.28957,2.12013c-1.66534,1.05536 -5.46589,-0.20593 -7.08388,-0.31236c-2.45465,-0.16147 -5.35398,0.00632 -7.82047,0.20788c-3.14753,0.25722 -5.29342,2.99208 -8.46479,3.2448c-2.72602,0.21723 -5.94683,-0.47152 -8.69176,-0.6204c-6.28381,-0.34081 -13.27165,-0.12732 -19.40101,1.23006c-4.13739,0.88127 -8.37653,-0.08182 -12.55103,0.35914c-4.34134,0.45859 -10.27771,2.5366 -14.65315,1.25025c-3.0082,-0.88439 -5.3413,-3.97477 -8.25951,-4.91473c-4.68624,-1.50946 -10.09346,-2.84068 -15.00297,-2.81042c-2.18803,0 -6.0578,0.36133 -7.78993,-1.33927c-2.9626,-2.90865 -2.43538,-7.28497 -3.08674,-10.91648c-0.5496,-3.06417 -1.79249,-6.40299 -4.117,-8.55883c-3.30094,-3.06143 -7.80137,-2.46712 -12.06743,-1.89685c-0.71071,0.095 -1.32804,0.68662 -2.04482,0.66777c-3.06003,-0.08045 -3.35548,-0.8221 -5.42661,-2.51217c-3.51608,-1.7437 -6.92201,-2.84725 -10.70209,-3.83085c-0.88779,-0.23101 -1.73458,-0.61444 -2.63244,-0.80255c-0.71842,-0.15051 -1.62017,0.25174 -2.1922,-0.20822c-2.69388,-2.16615 -1.34414,-6.39258 -2.1475,-9.27584c-0.70943,-2.54615 -3.54538,-3.5733 -4.31981,-6.10711c-1.29349,-4.23211 0.36579,-11.11282 -2.9565,-14.45357c-3.5927,-1.31226 -5.90661,-3.71633 -9.07854,-5.67438c-0.86737,-0.53543 -2.18116,-0.48283 -2.7563,-1.3244c-0.86038,-1.25895 0.19592,-3.04951 0.12715,-4.57282c-0.08095,-1.7931 -0.61253,-3.56187 -1.26451,-5.2342c-0.45506,-1.16723 -1.49199,-2.28537 -1.3058,-3.52426c0.16872,-1.12262 1.56571,-1.65449 2.22319,-2.57994c0.6093,-0.85764 0.88228,-1.93874 1.5592,-2.74408c2.36867,-2.81804 6.90716,-3.56592 10.32069,-3.65941c0.61873,-0.01695 1.27373,0.4088 1.84828,0.17857c2.92107,-1.17051 -2.7979,-5.65609 -3.50221,-6.14479c0.17603,-1.19492 -0.13327,-2.57411 0.5281,-3.58475c0.8279,-1.26511 4.91964,-0.68046 4.83827,-2.77669c-0.17266,-4.44853 -2.78437,-7.03665 -4.82016,-10.82095c-0.64751,-1.20365 -2.19764,-2.2281 -1.99848,-3.58027c0.36117,-2.45217 1.72423,-2.97997 3.28153,-2.75511zM222.61542,192.06822c-0.58396,0.90942 -1.70399,0.53608 -1.70399,0.53608l-1.16893,-0.40553c-0.79541,-0.40392 -1.58024,-0.8294 -2.38624,-1.21176c-0.31804,-0.15088 -1.26106,-0.62523 -0.95348,-0.45403c1.51282,0.84203 2.20549,3.36687 3.02048,4.72683c1.99727,3.33281 4.24021,5.79018 3.77514,10.04537c-0.29594,2.70766 -1.8417,3.13899 -4.15595,4.11767c-0.48929,0.20692 -1.30398,0.04771 -1.49874,0.54196c3.92627,0.85154 6.11031,7.44633 2.33248,10.06267c-0.87987,0.60935 -2.13613,0.13939 -3.20257,0.22985c-2.61899,0.22214 -6.46492,0.40016 -8.29484,2.71374c-0.58814,0.74359 -0.76566,1.75796 -1.35466,2.50086c-0.43897,0.55367 -1.54185,0.61437 -1.6666,1.30985c-0.1244,0.69353 0.80252,1.16509 1.10885,1.79962c0.47188,0.97744 0.96522,1.96425 1.21785,3.01983c0.16001,0.66856 0.44426,4.76708 0.28337,5.75704c-0.04767,0.29331 -0.74182,0.53541 -0.51515,0.72757c0.40523,0.34354 1.11172,-0.06539 1.58376,0.17835c3.36315,1.73653 5.62291,4.388 9.27184,5.78884c4.41982,4.40771 2.73073,10.43668 4.17478,16.01644c0.60835,2.35065 3.58827,3.58882 4.33135,6.14202c0.67878,2.33225 0.63175,3.18358 0.60967,5.35878c-0.00249,0.24513 -0.20169,2.01372 0.26104,2.28966c0.30626,0.18263 0.69745,-0.26616 1.04929,-0.20822c2.0068,0.33045 3.95127,0.96924 5.90919,1.51965c3.02332,0.84992 5.84115,2.16574 8.6331,3.57142c4.55701,3.88886 9.98631,-0.3072 15.42521,1.09652c1.29281,0.33366 3.78078,2.26749 4.52088,2.96444c2.79683,2.63377 4.34364,6.48916 5.02042,10.21919c0.50552,2.78616 -0.04793,6.87507 2.09965,9.18076c0.98098,1.05321 4.57567,0.60563 5.82433,0.60563c5.27699,0.02737 11.10211,1.30562 16.11534,3.02427c2.83017,0.97025 5.08245,3.92251 7.94794,4.80974c3.86168,1.19567 9.68753,-0.94638 13.54134,-1.34294c4.03059,-0.41476 8.24962,0.58654 12.22231,-0.30631c6.4209,-1.38304 13.62795,-1.64723 20.20227,-1.29471c2.66822,0.14307 5.64723,0.75593 8.29953,0.62493c2.9579,-0.1461 5.30604,-2.9344 8.39096,-3.23818c3.77386,-0.37163 7.58976,-0.12079 11.30804,0.32246c1.22063,0.14551 2.25187,0.57333 2.45049,-0.57542c1.44037,-3.56149 3.00135,-6.95482 4.35726,-10.55919c0.44399,-1.18025 1.27903,-3.96859 2.38099,-4.97493c2.89978,-2.64815 7.63406,-3.47382 10.89768,-5.67556c2.42805,-1.63804 5.8585,-3.86306 7.26903,-6.52905c0.28582,-0.54021 0.05043,-1.24319 0.2702,-1.81348c1.52747,-3.96359 3.57267,-7.54356 4.78979,-11.6983c0,-2.60828 0.93726,-4.57118 1.29334,-7.1065c0.30466,-2.16919 0.27563,-4.55118 1.56304,-6.52086c0.9584,-1.4663 2.24666,-0.80772 2.65016,-2.87341c0.20552,-1.05211 -0.66342,-2.03934 -0.95542,-3.0708c-1.02715,-3.62825 -2.40794,-9.24917 1.34093,-11.97174c1.05435,-0.76571 2.51659,-0.69396 3.73166,-1.16469c3.75267,-1.45381 7.84339,-2.28035 11.23526,-4.43105c2.38601,-1.50456 4.43644,-2.9519 6.60779,-4.67799c0.91833,-0.73002 2.31783,-0.84286 3.04638,-1.76236c0.44153,-0.55726 0.49785,-1.33589 0.82704,-1.96606c0.90374,-1.73005 2.04963,-3.33868 2.81811,-5.13291c0.32957,-0.76947 0.50838,-1.59787 0.83822,-2.36722c0.05662,-0.13207 0.44207,-0.35093 0.30659,-0.30303c-1.71392,0.60607 -3.38176,2.25394 -4.95714,3.04008c-0.16371,0.0817 -5.14747,1.92853 -5.2046,1.95366c-2.50508,1.10191 -4.34661,2.61509 -7.08682,3.34125c-1.42421,0.37742 -4.90196,0.78076 -5.96033,-0.07096c-0.77674,-0.62509 -0.29241,-1.9725 -0.43861,-2.95875c-0.26284,-4.18263 -0.38825,-9.18644 -1.92171,-13.14023c-0.67677,-1.74495 -2.08578,-3.13125 -2.83605,-4.84587c-0.87228,-1.99344 -0.98397,-5.034 -2.15022,-6.87989c-1.5284,-2.41909 -4.02018,-1.62827 -5.80081,-4.16159c-1.97316,-2.80724 -2.58473,-7.03911 -5.06012,-9.54151c-0.27373,-0.27672 -4.4231,-2.57336 -4.65689,-2.74918c-0.26777,-0.20137 -3.89553,-3.91501 -3.89725,-3.91676c-1.29196,-2.9848 -2.47536,-3.79277 -4.92709,-5.8666c-1.07424,-0.90866 -1.67932,-2.26629 -2.64552,-3.28908c-1.13219,-1.1985 -5.30471,-2.61772 -6.95426,-2.84183c-2.83935,-0.38575 -5.64388,0.02623 -8.44712,-0.87635c-1.19839,-0.38586 -2.50338,-0.70103 -3.4555,-1.52475c-1.39668,-1.20833 -0.94485,-2.87008 -2.88502,-3.93534c-3.84031,-2.10854 -7.05763,-2.40042 -10.32334,-5.80766c-0.44059,-2.32389 -1.8684,-7.86531 -4.28539,-9.11582c-1.05274,-0.54467 -4.46594,-0.90858 -5.43936,-1.13585c-6.69124,-1.56229 -14.70466,-0.45089 -21.32849,1.37613c-5.1527,1.42124 -9.15057,4.3001 -14.72549,2.49343c-2.52498,-0.69624 -5.04515,-2.52238 -7.62823,-2.87994c-1.19527,-0.16546 -2.62741,-0.80331 -3.61819,-0.11455c-0.57177,0.39747 -0.74045,1.19474 -1.23524,1.68472c-2.57255,2.54749 -6.26717,4.3129 -9.26346,6.3071c-2.18282,1.45279 -4.40665,3.59446 -6.93243,4.41721c-2.72212,0.88671 -6.148,-0.8228 -8.87332,0.25441c-1.85946,0.73497 -3.78132,3.54559 -5.37488,4.81441c-2.7465,2.01289 -4.23153,2.86293 -7.73869,2.42236c-1.1063,-0.13897 -2.22581,-1.07372 -3.27291,-0.69059c-3.81927,1.39745 -4.4195,5.83081 -8.61809,5.88939c-3.55524,0.0496 -11.8989,-2.48269 -13.71403,1.91594c-1.26622,3.06845 1.61922,7.07249 1.70301,9.95921c-0.21845,1.25914 0.07211,2.72673 -0.65535,3.77741c-0.56965,0.82274 -1.80162,0.90079 -2.76676,1.16516c-3.26562,0.89448 -6.10096,-0.77082 -9.01295,-2.10971c-1.45625,-0.66956 -3.57066,-1.75478 -5.18622,-2.08347c-0.76574,-0.15579 -2.15022,-0.85416 -2.34229,-0.0967c-0.19544,0.77075 0.80455,1.37208 1.18437,2.07064c0.46506,0.85533 0.87765,1.74041 1.38289,2.57264c1.0021,1.65068 2.1814,3.18705 3.27109,4.78127c1.48951,2.17915 2.73419,4.20722 4.81253,5.84843c0,0 1.1713,0.93704 0.23426,2.10835c-0.08696,0.1087 -0.17593,0.19924 -0.2658,0.27406z" fill="#000000" stroke="none" stroke-width="0.5"/><path d="M222.5676,192.05364c0.08987,-0.07482 0.17889,-0.16551 0.26585,-0.27421c0.93704,-1.17131 -0.23398,-2.10922 -0.23398,-2.10922c-2.07834,-1.64121 -3.32243,-3.67097 -4.81194,-5.85012c-1.08969,-1.59422 -2.26848,-3.13192 -3.27058,-4.7826c-0.50524,-0.83223 -0.91753,-1.71803 -1.38259,-2.57336c-0.37982,-0.69856 -1.37958,-1.30044 -1.18414,-2.07119c0.19207,-0.75746 1.57669,-0.05941 2.34243,0.09638c1.61556,0.32869 3.73001,1.41383 5.18626,2.08339c2.91199,1.33889 5.74768,3.00343 9.0133,2.10895c0.96514,-0.26437 2.19758,-0.34339 2.76723,-1.16613c0.72746,-1.05068 0.43771,-2.51984 0.65616,-3.77898c-0.08379,-2.88672 -2.96741,-6.89387 -1.70119,-9.96232c1.81513,-4.39863 10.16135,-1.87 13.71659,-1.9196c4.19859,-0.05858 4.80212,-4.49581 8.62139,-5.89326c1.0471,-0.38313 2.16725,0.55096 3.27355,0.68993c3.50716,0.44057 4.99504,-0.41216 7.74154,-2.42505c1.59356,-1.26882 3.51849,-4.08191 5.37795,-4.81688c2.72532,-1.07721 6.15466,0.62995 8.87678,-0.25676c2.52578,-0.82275 4.75372,-2.96671 6.93654,-4.4195c2.99629,-1.9942 6.69663,-3.76202 9.26918,-6.30951c0.49479,-0.48998 0.66437,-1.28755 1.23614,-1.68502c0.99078,-0.68876 2.42473,-0.05147 3.62,0.11399c2.58308,0.35756 5.10698,2.18278 7.63196,2.87902c5.57492,1.80667 9.58146,-1.07319 14.73416,-2.49443c6.62383,-1.82702 14.64926,-2.9373 21.3405,-1.37501c0.97342,0.22727 4.38964,0.59193 5.44238,1.1366c2.41699,1.25051 3.84863,6.79318 4.28922,9.11707c3.26571,3.40724 6.48961,3.70213 10.32992,5.81067c1.94017,1.06526 1.49075,2.72842 2.88743,3.93675c0.95212,0.82372 2.25907,1.14018 3.45746,1.52604c2.80324,0.90258 5.6113,0.49327 8.45065,0.87902c1.64955,0.22411 5.82514,1.6461 6.95733,2.8446c0.9662,1.02279 1.57297,2.38216 2.64721,3.29082c2.45173,2.07383 3.638,2.88519 4.92996,5.86999c0.00172,0.00175 3.63132,3.71794 3.89909,3.91931c0.23379,0.17582 4.38463,2.47476 4.65836,2.75148c2.47539,2.5024 3.08974,6.73961 5.0629,9.54685c1.78063,2.53332 4.27365,1.74555 5.80205,4.16464c1.16625,1.84589 1.27914,4.89012 2.15142,6.88356c0.75027,1.71462 2.15998,3.1037 2.83675,4.84865c1.53346,3.95379 1.65991,8.96451 1.92275,13.14714c0.1462,0.98625 -0.33803,2.33522 0.43871,2.96031c1.05837,0.85172 4.43623,0.45302 5.86044,0.0756c2.74021,-0.72616 4.58182,-2.23795 7.0869,-3.33986c0.05713,-0.02513 5.04094,-1.87127 5.20465,-1.95297c1.57538,-0.78614 3.24333,-2.43292 4.95725,-3.03899c0.13548,-0.0479 -0.15054,0.16027 -0.20716,0.29234c-0.32984,0.76935 -0.50856,1.59871 -0.83813,2.36818c-0.76848,1.79423 -1.91423,3.40498 -2.81797,5.13503c-0.32919,0.63017 -0.38548,1.40965 -0.82701,1.96691c-0.72855,0.9195 -2.12804,1.0331 -3.04637,1.76312c-2.17135,1.72609 -4.2218,3.17564 -6.60781,4.6802c-3.39187,2.1507 -7.48274,2.97982 -11.23541,4.43363c-1.21507,0.47073 -2.67739,0.3998 -3.73174,1.16551c-3.74887,2.72257 -2.3692,8.3501 -1.34205,11.97835c0.292,1.03146 1.16057,2.02015 0.95505,3.07226c-0.4035,2.06569 -1.6923,1.40896 -2.6507,2.87526c-1.28741,1.96968 -1.25961,4.35515 -1.56427,6.52434c-0.35608,2.53532 -1.29489,4.50173 -1.29489,7.11001c-1.21712,4.15474 -3.26567,7.74054 -4.79314,11.70413c-0.21977,0.57029 0.01513,1.27399 -0.27069,1.8142c-1.41053,2.66599 -4.84411,4.89506 -7.27216,6.5331c-3.26362,2.20174 -8.00237,3.032 -10.90215,5.68015c-1.10196,1.00634 -1.93912,3.79649 -2.38311,4.97674c-1.35591,3.60437 -2.92106,7.00072 -4.36143,10.56221c-0.19862,1.14875 -1.2309,0.72158 -2.45153,0.57607c-3.71828,-0.44325 -7.53876,-0.6916 -11.31262,-0.31997c-3.08492,0.30378 -5.43763,3.09399 -8.39553,3.24009c-2.6523,0.131 -5.63545,-0.48056 -8.30367,-0.62363c-6.57432,-0.35252 -13.79288,-0.08666 -20.21378,1.29638c-3.97269,0.89285 -8.19878,-0.10876 -12.22937,0.306c-3.85381,0.39656 -9.68689,2.53724 -13.54857,1.34157c-2.86549,-0.88723 -5.12257,-3.84104 -7.95274,-4.81129c-5.01323,-1.71865 -10.84621,-3.0007 -16.1232,-3.02807c-1.24866,0 -4.8457,0.44609 -5.82668,-0.60712c-2.14758,-2.30569 -1.59724,-6.39687 -2.10276,-9.18303c-0.67678,-3.73003 -2.2281,-7.58947 -5.02493,-10.22324c-0.7401,-0.69695 -3.23016,-2.63303 -4.52297,-2.96669c-5.4389,-1.40372 -10.87166,2.7879 -15.42867,-1.10096c-2.79195,-1.40568 -5.61183,-2.72471 -8.63515,-3.57463c-1.95792,-0.55041 -3.90336,-1.19094 -5.91016,-1.52139c-0.35184,-0.05794 -0.7431,0.39072 -1.04936,0.20809c-0.46273,-0.27594 -0.26399,-2.04541 -0.2615,-2.29054c0.02208,-2.1752 0.06809,-3.02869 -0.61069,-5.36094c-0.74308,-2.5532 -3.72429,-3.79454 -4.33264,-6.14519c-1.44405,-5.57976 0.24296,-11.61614 -4.17686,-16.02385c-3.64893,-1.40084 -5.90922,-4.05551 -9.27237,-5.79204c-0.47204,-0.24374 -1.17855,0.16503 -1.58378,-0.17851c-0.22667,-0.19216 0.46744,-0.43454 0.51511,-0.72785c0.16089,-0.98996 -0.1236,-5.09094 -0.28361,-5.7595c-0.25263,-1.05558 -0.74605,-2.04371 -1.21793,-3.02115c-0.30633,-0.63453 -1.23328,-1.10687 -1.10888,-1.8004c0.12475,-0.69548 1.22762,-0.75672 1.66659,-1.31039c0.589,-0.7429 0.76651,-1.75834 1.35465,-2.50193c1.82992,-2.31358 5.67587,-2.49287 8.29486,-2.71501c1.06644,-0.09046 2.3227,0.37935 3.20257,-0.23c3.77783,-2.61634 1.59415,-9.21579 -2.33212,-10.06733c0.19476,-0.49425 1.00949,-0.33538 1.49878,-0.5423c2.31425,-0.97868 3.86035,-1.41225 4.15629,-4.11991c0.46507,-4.25519 -1.77694,-6.71674 -3.77421,-10.04955c-0.81499,-1.35996 -1.5072,-3.88643 -3.02002,-4.72846c-0.30758,-0.1712 0.73115,0.33213 1.04919,0.48301c0.806,0.38236 1.59089,0.80763 2.3863,1.21155l1.07307,0.37706c0,0 1.12017,0.37289 1.70413,-0.53653z" data-paper-data="{&quot;noHover&quot;:false,&quot;origItem&quot;:[&quot;Path&quot;,{&quot;applyMatrix&quot;:true,&quot;segments&quot;:[[[222.61542,192.06822],[0,0],[-0.58396,0.90942]],[220.91143,192.6043],[[219.7425,192.19877],[0,0],[-0.79541,-0.40392]],[[217.35626,190.98701],[0.806,0.38236],[-0.31804,-0.15088]],[[216.40278,190.53298],[-0.30758,-0.1712],[1.51282,0.84203]],[[219.42326,195.25981],[-0.81499,-1.35996],[1.99727,3.33281]],[[223.1984,205.30518],[0.46507,-4.25519],[-0.29594,2.70766]],[[219.04245,209.42285],[2.31425,-0.97868],[-0.48929,0.20692]],[[217.54371,209.96481],[0.19476,-0.49425],[3.92627,0.85154]],[[219.87619,220.02748],[3.77783,-2.61634],[-0.87987,0.60935]],[[216.67362,220.25733],[1.06644,-0.09046],[-2.61899,0.22214]],[[208.37878,222.97107],[1.82992,-2.31358],[-0.58814,0.74359]],[[207.02412,225.47193],[0.589,-0.7429],[-0.43897,0.55367]],[[205.35752,226.78178],[0.12475,-0.69548],[-0.1244,0.69353]],[[206.46637,228.5814],[-0.30633,-0.63453],[0.47188,0.97744]],[[207.68422,231.60123],[-0.25263,-1.05558],[0.16001,0.66856]],[[207.96759,237.35827],[0.16089,-0.98996],[-0.04767,0.29331]],[[207.45244,238.08584],[-0.22667,-0.19216],[0.40523,0.34354]],[[209.0362,238.26419],[-0.47204,-0.24374],[3.36315,1.73653]],[[218.30804,244.05303],[-3.64893,-1.40084],[4.41982,4.40771]],[[222.48282,260.06947],[-1.44405,-5.57976],[0.60835,2.35065]],[[226.81417,266.21149],[-0.74308,-2.5532],[0.67878,2.33225]],[[227.42384,271.57027],[0.02208,-2.1752],[-0.00249,0.24513]],[[227.68488,273.85993],[-0.46273,-0.27594],[0.30626,0.18263]],[[228.73417,273.65171],[-0.35184,-0.05794],[2.0068,0.33045]],[[234.64336,275.17136],[-1.95792,-0.55041],[3.02332,0.84992]],[[243.27646,278.74278],[-2.79195,-1.40568],[4.55701,3.88886]],[[258.70167,279.8393],[-5.4389,-1.40372],[1.29281,0.33366]],[[263.22255,282.80374],[-0.7401,-0.69695],[2.79683,2.63377]],[[268.24297,293.02293],[-0.67678,-3.73003],[0.50552,2.78616]],[[270.34262,302.20369],[-2.14758,-2.30569],[0.98098,1.05321]],[[276.16695,302.80932],[-1.24866,0],[5.27699,0.02737]],[[292.28229,305.83359],[-5.01323,-1.71865],[2.83017,0.97025]],[[300.23023,310.64333],[-2.86549,-0.88723],[3.86168,1.19567]],[[313.77157,309.30039],[-3.85381,0.39656],[4.03059,-0.41476]],[[325.99388,308.99408],[-3.97269,0.89285],[6.4209,-1.38304]],[[346.19615,307.69937],[-6.57432,-0.35252],[2.66822,0.14307]],[[354.49568,308.3243],[-2.6523,0.131],[2.9579,-0.1461]],[[362.88664,305.08612],[-3.08492,0.30378],[3.77386,-0.37163]],[[374.19468,305.40858],[-3.71828,-0.44325],[1.22063,0.14551]],[[376.64517,304.83316],[-0.19862,1.14875],[1.44037,-3.56149]],[[381.00243,294.27397],[-1.35591,3.60437],[0.44399,-1.18025]],[[383.38342,289.29904],[-1.10196,1.00634],[2.89978,-2.64815]],[[394.2811,283.62348],[-3.26362,2.20174],[2.42805,-1.63804]],[[401.55013,277.09443],[-1.41053,2.66599],[0.28582,-0.54021]],[[401.82033,275.28095],[-0.21977,0.57029],[1.52747,-3.96359]],[[406.61012,263.58265],[-1.21712,4.15474],[0,-2.60828]],[[407.90346,256.47615],[-0.35608,2.53532],[0.30466,-2.16919]],[[409.4665,249.95529],[-1.28741,1.96968],[0.9584,-1.4663]],[[412.11666,247.08188],[-0.4035,2.06569],[0.20552,-1.05211]],[[411.16124,244.01108],[0.292,1.03146],[-1.02715,-3.62825]],[[412.50217,232.03934],[-3.74887,2.72257],[1.05435,-0.76571]],[[416.23383,230.87465],[-1.21507,0.47073],[3.75267,-1.45381]],[[427.46909,226.4436],[-3.39187,2.1507],[2.38601,-1.50456]],[[434.07688,221.76561],[-2.17135,1.72609],[0.91833,-0.73002]],[[437.12326,220.00325],[-0.72855,0.9195],[0.44153,-0.55726]],[[437.9503,218.03719],[-0.32919,0.63017],[0.90374,-1.73005]],[[440.76841,212.90428],[-0.76848,1.79423],[0.32957,-0.76947]],[[441.60663,210.53706],[-0.32984,0.76935],[0.05662,-0.13207]],[[441.91322,210.23403],[0.13548,-0.0479],[-1.71392,0.60607]],[[436.95608,213.27411],[1.57538,-0.78614],[-0.16371,0.0817]],[[431.75148,215.22777],[0.05713,-0.02513],[-2.50508,1.10191]],[[424.66466,218.56902],[2.74021,-0.72616],[-1.42421,0.37742]],[[418.70433,218.49806],[1.05837,0.85172],[-0.77674,-0.62509]],[[418.26572,215.53931],[0.1462,0.98625],[-0.26284,-4.18263]],[[416.34401,202.39908],[1.53346,3.95379],[-0.67677,-1.74495]],[[413.50796,197.55321],[0.75027,1.71462],[-0.87228,-1.99344]],[[411.35774,190.67332],[1.16625,1.84589],[-1.5284,-2.41909]],[[405.55693,186.51173],[1.78063,2.53332],[-1.97316,-2.80724]],[[400.49681,176.97022],[2.47539,2.5024],[-0.27373,-0.27672]],[[395.83992,174.22104],[0.23379,0.17582],[-0.26777,-0.20137]],[[391.94267,170.30428],[0.00172,0.00175],[-1.29196,-2.9848]],[[387.01558,164.43768],[2.45173,2.07383],[-1.07424,-0.90866]],[[384.37006,161.1486],[0.9662,1.02279],[-1.13219,-1.1985]],[[377.4158,158.30677],[1.64955,0.22411],[-2.83935,-0.38575]],[[368.96868,157.43042],[2.80324,0.90258],[-1.19839,-0.38586]],[[365.51318,155.90567],[0.95212,0.82372],[-1.39668,-1.20833]],[[362.62816,151.97033],[1.94017,1.06526],[-3.84031,-2.10854]],[[352.30482,146.16267],[3.26571,3.40724],[-0.44059,-2.32389]],[[348.01943,137.04685],[2.41699,1.25051],[-1.05274,-0.54467]],[[342.58007,135.911],[0.97342,0.22727],[-6.69124,-1.56229]],[[321.25158,137.28713],[6.62383,-1.82702],[-5.1527,1.42124]],[[306.52609,139.78056],[5.57492,1.80667],[-2.52498,-0.69624]],[[298.89786,136.90062],[2.58308,0.35756],[-1.19527,-0.16546]],[[295.27967,136.78607],[0.99078,-0.68876],[-0.57177,0.39747]],[[294.04443,138.47079],[0.49479,-0.48998],[-2.57255,2.54749]],[[284.78097,144.77789],[2.99629,-1.9942],[-2.18282,1.45279]],[[277.84854,149.1951],[2.52578,-0.82275],[-2.72212,0.88671]],[[268.97522,149.44951],[2.72532,-1.07721],[-1.85946,0.73497]],[[263.60034,154.26392],[1.59356,-1.26882],[-2.7465,2.01289]],[[255.86165,156.68628],[3.50716,0.44057],[-1.1063,-0.13897]],[[252.58874,155.99569],[1.0471,-0.38313],[-3.81927,1.39745]],[[243.97065,161.88508],[4.19859,-0.05858],[-3.55524,0.0496]],[[230.25662,163.80102],[1.81513,-4.39863],[-1.26622,3.06845]],[[231.95963,173.76023],[-0.08379,-2.88672],[-0.21845,1.25914]],[[231.30428,177.53764],[0.72746,-1.05068],[-0.56965,0.82274]],[[228.53752,178.7028],[0.96514,-0.26437],[-3.26562,0.89448]],[[219.52457,176.59309],[2.91199,1.33889],[-1.45625,-0.66956]],[[214.33835,174.50962],[1.61556,0.32869],[-0.76574,-0.15579]],[[211.99606,174.41292],[0.19207,-0.75746],[-0.19544,0.77075]],[[213.18043,176.48356],[-0.37982,-0.69856],[0.46506,0.85533]],[[214.56332,179.0562],[-0.50524,-0.83223],[1.0021,1.65068]],[[217.83441,183.83747],[-1.08969,-1.59422],[1.48951,2.17915]],[[222.64694,189.6859],[-2.07834,-1.64121],[0,0]],[[222.8812,191.79425],[0.93704,-1.17131],[-0.08696,0.1087]],[[222.6154,192.06831],[0.08987,-0.07482],[0,0]]],&quot;closed&quot;:true,&quot;fillColor&quot;:[0,0,0,1],&quot;strokeWidth&quot;:0.5}]}" fill="#fdf795" stroke="none" stroke-width="0.25"/><path d="M276.90348,166.45773c0.00767,0.00767 0.01522,0.01533 0.02267,0.023c0.65225,-0.42921 1.32281,-0.83544 2.01787,-1.21076c5.30139,-2.86267 12.06945,-4.15858 17.79846,-5.87911c4.80485,-1.58354 9.94398,-3.12645 14.99049,-3.41836c8.04806,-0.46553 16.08395,4.24958 23.95298,5.19701c5.50355,0.66263 11.02771,1.93962 16.39282,3.50729c5.51207,1.58242 10.27014,4.14046 14.29816,8.31452c1.05728,1.09561 2.52725,3.39417 3.78979,4.37371c6.53179,5.06766 14.95471,7.83391 21.14899,13.39164c2.24796,2.01695 4.17028,4.88501 5.96207,7.29954c1.98498,5.44679 4.68052,11.13519 5.4995,16.92884c0.8887,6.28688 -0.18142,13.33642 -0.78489,19.5808c-0.35494,3.67272 -0.05159,7.66814 -1.22757,11.22812c-1.22586,3.711 -4.62961,5.92758 -6.70701,9.03546c-2.9073,4.30709 -6.59606,8.5687 -8.93642,13.20707c-1.79752,3.56252 -3.2624,7.05755 -6.12614,10.02321c-6.36027,6.58663 -16.38937,10.68441 -25.0727,12.42263c-12.13584,2.64251 -24.65842,1.21774 -36.78651,-0.12947c-6.51929,-0.72418 -13.23268,-1.03657 -19.48763,-3.21009c-8.23252,-2.87436 -16.52138,-5.42052 -22.02521,-12.71712c-2.99283,-3.96769 -4.71635,-9.11055 -7.21542,-13.41528c-0.69068,-1.18972 -0.76916,-2.69928 -1.57361,-3.81523c-0.60961,-0.84567 -1.769,-1.19974 -2.3464,-2.06772c-0.36637,-0.55075 0.02688,-1.40021 -0.33074,-1.95669c-0.46826,-0.72865 -1.33061,-1.10917 -1.99591,-1.66376c-1.78751,-2.07084 -2.65087,-4.08626 -4.113,-6.35616c-1.44714,-2.24663 -3.41964,-4.53108 -4.34993,-7.0753c-0.83914,-2.29495 -2.01163,-5.20973 -2.63424,-7.57677c-0.20054,-0.76243 0.07215,-1.62618 -0.23149,-2.35372c-0.22873,-0.54806 -0.98637,-0.72697 -1.27164,-1.24784c-0.78508,-1.43347 -1.34121,-2.99678 -1.75811,-4.5771c-0.20882,-0.79154 0.0669,-1.643 -0.03178,-2.45565c-0.79328,-6.53284 -1.36586,-12.60282 -1.31889,-19.25681c0.09058,-6.7779 3.17038,-14.20523 8.64811,-18.6746c1.39147,-1.13532 3.21407,-1.61133 4.75282,-2.538c-0.0068,-0.01867 -0.01344,-0.03769 -0.01989,-0.05706c-0.47434,-1.42302 0.94868,-1.89737 0.94868,-1.89737c2.94589,-0.98091 5.41363,-2.58243 7.73824,-4.37479c2.21341,-1.90278 4.47633,-4.07449 5.74685,-6.04968l0.5153,-0.55839c0,0 1.06066,-1.06066 2.12132,0zM271.34908,174.55829c-1.48799,1.34139 -3.00891,2.58777 -4.32271,3.61557c-1.24754,0.97597 -2.95045,1.24344 -4.20954,2.20447c-0.4336,0.33096 -0.52532,1.01346 -0.98544,1.30644c-0.84212,0.53622 -1.90504,0.62872 -2.78734,1.09587c-3.36335,1.78081 -4.91878,5.26935 -6.92013,8.27136c-0.55071,0.82606 -1.84017,1.96734 -2.04976,3.06709c-0.37286,1.95645 -0.62358,4.48708 -0.6222,6.50969c-0.04622,6.54897 0.52961,12.49219 1.30227,18.91958c0.08286,0.68927 -0.2127,1.4122 -0.03178,2.08244c0.35848,1.328 0.80726,2.65288 1.48338,3.85078c0.30899,0.54744 1.08007,0.76497 1.32156,1.34536c0.36663,0.88116 0.16943,1.91089 0.41681,2.83267c0.62616,2.33314 1.73654,5.04694 2.55215,7.33409c0.83592,2.34411 2.75358,4.47488 4.07795,6.53896c1.33938,2.08746 2.08287,3.99505 3.72021,5.86512c0.82951,0.77414 1.86393,1.37519 2.48854,2.32242c0.35947,0.54515 -0.04524,1.39015 0.31756,1.9331c0.52784,0.78993 1.64266,1.04671 2.19168,1.82207c0.85055,1.20119 0.98494,2.79306 1.72938,4.06274c2.44995,4.17851 4.09935,9.19137 6.98564,13.06655c5.07847,6.81844 12.98534,9.04307 20.62891,11.7054c6.02383,2.10854 12.5432,2.3623 18.827,3.06069c11.77983,1.30922 24.05744,2.80121 35.84262,0.17565c2.3177,-0.46314 5.02949,-0.59607 7.2444,-1.49079c2.84118,-1.14771 5.26883,-2.94156 7.90681,-4.44449c2.87473,-1.63781 6.04948,-3.21387 8.37854,-5.6337c2.66077,-2.76447 3.93207,-5.99913 5.61195,-9.30127c2.41648,-4.75008 6.14343,-9.10839 9.1236,-13.52496c1.88529,-2.77005 5.2945,-5.01162 6.35129,-8.31679c1.06803,-3.34032 0.75396,-7.11418 1.08376,-10.55593c0.57632,-6.0144 1.66905,-12.87308 0.79357,-18.92689c-0.78602,-5.43521 -3.3522,-10.74106 -5.16306,-15.87246c-1.65016,-2.17295 -3.39457,-4.74918 -5.41751,-6.57663c-6.07405,-5.48709 -14.50132,-8.13346 -20.90076,-13.17446c-2.06986,-1.63048 -2.34371,-2.82675 -4.10205,-4.65536c-3.65666,-3.8028 -7.9663,-6.08189 -12.97192,-7.51422c-5.2337,-1.53162 -10.60054,-2.72447 -15.9579,-3.41565c-7.57273,-0.97699 -15.65174,-5.70001 -23.37279,-5.17576c-4.81743,0.32709 -9.67282,1.76986 -14.27066,3.28543c-5.46404,1.63755 -12.084,2.82674 -17.12192,5.56945c-3.39519,1.84839 -6.22416,4.36911 -9.17212,6.73638z" fill="#000000" stroke="none" stroke-width="0.5"/><path d="M271.31236,174.52436c2.94796,-2.36727 5.78269,-4.89331 9.17788,-6.7417c5.03792,-2.74271 11.66871,-3.93841 17.13275,-5.57596c4.59784,-1.51557 9.46365,-2.96162 14.28108,-3.28871c7.72105,-0.52425 15.81842,4.19857 23.39115,5.17556c5.35736,0.69118 10.73679,1.88801 15.97049,3.41963c5.00562,1.43233 9.32542,3.71777 12.98208,7.52057c1.75834,1.82861 2.03587,3.02816 4.10573,4.65864c6.39944,5.041 14.83668,7.7013 20.91073,13.18839c2.02294,1.82745 3.7695,4.40885 5.41966,6.5818c1.81086,5.1314 4.37953,10.44809 5.16555,15.8833c0.87548,6.05381 -0.2174,12.92508 -0.79372,18.93948c-0.3298,3.44175 -0.01717,7.22245 -1.0852,10.56277c-1.05679,3.30517 -4.46827,5.55304 -6.35356,8.32309c-2.98017,4.41657 -6.71276,8.78462 -9.12924,13.5347c-1.67988,3.30214 -2.95599,6.54238 -5.61676,9.30685c-2.32906,2.41983 -5.50899,4.0004 -8.38372,5.63821c-2.63798,1.50293 -5.07087,3.30025 -7.91205,4.44796c-2.21491,0.89472 -4.93119,1.02994 -7.24889,1.49308c-11.78518,2.62556 -24.08899,1.13762 -35.86882,-0.1716c-6.2838,-0.69839 -12.81731,-0.95594 -18.84114,-3.06448c-7.64357,-2.66233 -15.56522,-4.8968 -20.64369,-11.71524c-2.88629,-3.87518 -4.54273,-8.89649 -6.99268,-13.075c-0.74444,-1.26968 -0.88061,-2.86445 -1.73116,-4.06564c-0.54902,-0.77536 -1.66482,-1.03395 -2.19266,-1.82388c-0.3628,-0.54295 0.04127,-1.38925 -0.3182,-1.9344c-0.62461,-0.94723 -1.66002,-1.55048 -2.48953,-2.32462c-1.63734,-1.87007 -2.38257,-3.78246 -3.72195,-5.86992c-1.32437,-2.06408 -3.24332,-4.20005 -4.07924,-6.54416c-0.81561,-2.28715 -1.92672,-5.00631 -2.55288,-7.33945c-0.24738,-0.92178 -0.0503,-1.95351 -0.41693,-2.83467c-0.24149,-0.58039 -1.0126,-0.79888 -1.32159,-1.34632c-0.67612,-1.1979 -1.12489,-2.5254 -1.48337,-3.8534c-0.18092,-0.67024 0.1147,-1.39457 0.03184,-2.08384c-0.77266,-6.42739 -1.34634,-12.38243 -1.30012,-18.9314c-0.00138,-2.02261 0.25067,-4.55699 0.62353,-6.51344c0.20959,-1.09975 1.49994,-2.24311 2.05065,-3.06917c2.00135,-3.00201 3.55995,-6.49646 6.9233,-8.27727c0.8823,-0.46715 1.94608,-0.56098 2.7882,-1.0972c0.46012,-0.29298 0.55245,-0.97637 0.98605,-1.30733c1.25909,-0.96103 2.96372,-1.2308 4.21126,-2.20677c1.3138,-1.0278 2.83719,-2.27706 4.32518,-3.61845z" data-paper-data="{&quot;noHover&quot;:false,&quot;origItem&quot;:[&quot;Path&quot;,{&quot;applyMatrix&quot;:true,&quot;segments&quot;:[[[271.34908,174.55829],[0,0],[-1.48799,1.34139]],[[267.02637,178.17386],[1.3138,-1.0278],[-1.24754,0.97597]],[[262.81683,180.37833],[1.25909,-0.96103],[-0.4336,0.33096]],[[261.83139,181.68477],[0.46012,-0.29298],[-0.84212,0.53622]],[[259.04405,182.78064],[0.8823,-0.46715],[-3.36335,1.78081]],[[252.12392,191.052],[2.00135,-3.00201],[-0.55071,0.82606]],[[250.07416,194.11909],[0.20959,-1.09975],[-0.37286,1.95645]],[[249.45196,200.62878],[-0.00138,-2.02261],[-0.04622,6.54897]],[[250.75423,219.54836],[-0.77266,-6.42739],[0.08286,0.68927]],[[250.72245,221.6308],[-0.18092,-0.67024],[0.35848,1.328]],[[252.20583,225.48158],[-0.67612,-1.1979],[0.30899,0.54744]],[[253.52739,226.82694],[-0.24149,-0.58039],[0.36663,0.88116]],[[253.9442,229.65961],[-0.24738,-0.92178],[0.62616,2.33314]],[[256.49635,236.9937],[-0.81561,-2.28715],[0.83592,2.34411]],[[260.5743,243.53266],[-1.32437,-2.06408],[1.33938,2.08746]],[[264.29451,249.39778],[-1.63734,-1.87007],[0.82951,0.77414]],[[266.78305,251.7202],[-0.62461,-0.94723],[0.35947,0.54515]],[[267.10061,253.6533],[-0.3628,-0.54295],[0.52784,0.78993]],[[269.29229,255.47537],[-0.54902,-0.77536],[0.85055,1.20119]],[[271.02167,259.53811],[-0.74444,-1.26968],[2.44995,4.17851]],[[278.00731,272.60466],[-2.88629,-3.87518],[5.07847,6.81844]],[[298.63622,284.31006],[-7.64357,-2.66233],[6.02383,2.10854]],[[317.46322,287.37075],[-6.2838,-0.69839],[11.77983,1.30922]],[[353.30584,287.5464],[-11.78518,2.62556],[2.3177,-0.46314]],[[360.55024,286.05561],[-2.21491,0.89472],[2.84118,-1.14771]],[[368.45705,281.61112],[-2.63798,1.50293],[2.87473,-1.63781]],[[376.83559,275.97742],[-2.32906,2.41983],[2.66077,-2.76447]],[[382.44754,266.67615],[-1.67988,3.30214],[2.41648,-4.75008]],[[391.57114,253.15119],[-2.98017,4.41657],[1.88529,-2.77005]],[[397.92243,244.8344],[-1.05679,3.30517],[1.06803,-3.34032]],[[399.00619,234.27847],[-0.3298,3.44175],[0.57632,-6.0144]],[[399.79976,215.35158],[0.87548,6.05381],[-0.78602,-5.43521]],[[394.6367,199.47912],[1.81086,5.1314],[-1.65016,-2.17295]],[[389.21919,192.90249],[2.02294,1.82745],[-6.07405,-5.48709]],[[368.31843,179.72803],[6.39944,5.041],[-2.06986,-1.63048]],[[364.21638,175.07267],[1.75834,1.82861],[-3.65666,-3.8028]],[[351.24446,167.55845],[5.00562,1.43233],[-5.2337,-1.53162]],[[335.28656,164.1428],[5.35736,0.69118],[-7.57273,-0.97699]],[[311.91377,158.96704],[7.72105,-0.52425],[-4.81743,0.32709]],[[297.64311,162.25247],[4.59784,-1.51557],[-5.46404,1.63755]],[[280.52119,167.82192],[5.03792,-2.74271],[-3.39519,1.84839]],[[271.34907,174.5583],[2.94796,-2.36727],[0,0]]],&quot;closed&quot;:true,&quot;fillColor&quot;:[0,0,0,1],&quot;strokeWidth&quot;:0.5}]}" fill="#fdfdfd" stroke="none" stroke-width="0.25"/><path d="M156.65801,321.58484v-277.04485h324.53826v277.04486z" fill="none" stroke="#000000" stroke-width="0"/></g></g></svg>