<svg version="1.1" xmlns="http://www.w3.org/2000/svg" xmlns:xlink="http://www.w3.org/1999/xlink" width="324.53826" height="277.04486" viewBox="0,0,324.53826,277.04486"><g transform="translate(-156.658,-44.53998)"><g data-paper-data="{&quot;isPaintingLayer&quot;:true}" fill-rule="nonzero" stroke-linecap="butt" stroke-linejoin="miter" stroke-miterlimit="10" stroke-dasharray="" stroke-dashoffset="0" style="mix-blend-mode: normal"><path d="M394.71733,200.49338c0.0873,-0.0873 0.1746,-0.16023 0.2613,-0.22056c-1.01378,-0.343 -2.09854,-0.62076 -2.75496,-1.13279c-2.71434,-2.1173 -2.83536,-5.88515 -4.51012,-8.43732c-0.84085,-1.28137 -2.33311,-2.13897 -2.9123,-3.55794c-1.77804,-1.73745 -4.10342,-3.77826 -5.60442,-5.71716c-1.77169,-2.28856 -2.471,-4.45753 -5.00408,-6.1833c-4.06028,-2.76623 -10.93701,-1.34962 -15.65142,-2.03905c-2.79922,-0.40936 -8.51937,-2.38532 -10.47594,-4.27713c-2.36432,-2.28606 -3.36776,-4.04746 -6.52489,-5.62291c-1.01602,-0.74986 -1.63163,-1.73971 -3.03231,-0.97245c-0.92716,0.50788 -1.24354,1.73287 -2.03913,2.42901c-2.19919,1.92429 -5.17162,3.43022 -7.88115,4.47347c-1.52798,0.58832 -3.72602,1.78247 -5.26726,-0.099c-0.75494,-0.9216 -0.29097,-2.36669 -0.35547,-3.55627c-0.24517,-4.52192 0.46143,-9.13691 -0.28979,-13.61462c-0.12727,-0.75861 0.13082,-6.0912 -1.79412,-5.34478c-1.4917,0.57843 -2.44518,2.06588 -3.71519,3.03894c-3.19069,1.66038 -6.71153,2.94951 -9.80991,4.5885c-1.21511,0.64277 -1.89187,1.99567 -2.8732,2.95829c-0.5333,0.52313 -1.35409,0.75914 -1.76191,1.38504c-1.15497,1.7726 -0.29465,5.817 -0.42254,7.73677c-0.24669,3.7031 -1.34733,7.1959 -2.34397,10.73995c-0.38564,1.37134 -1.46332,4.87746 -2.7057,5.84445c-4.38364,3.41194 -6.55611,-4.4947 -8.09092,-7.32157c-1.91539,-2.95774 -3.42126,-5.78165 -6.8276,-7.25531c-1.38643,-0.5998 -1.22494,0.74992 -1.59884,1.51029c-1.46163,2.97243 -2.09997,3.96826 -2.34327,7.24621c-0.046,0.61977 -0.57729,1.21376 -0.42308,1.8158c0.08847,0.34538 0.3461,-0.69342 0.67584,-0.82903c0.95103,-0.39113 2.02373,-0.98454 3.00775,-0.68593c1.18349,0.35914 2.41906,1.26573 2.79044,2.44544c0.31381,0.99686 -0.68028,1.9786 -1.09588,2.9375c-2.08866,4.81901 -6.03119,7.7901 -9.99566,10.9927c0.40175,0.20875 0.8633,0.64183 0.73862,1.51458c-0.21213,1.48492 -1.69706,1.27279 -1.69706,1.27279c-0.64948,-0.09444 -1.31944,-0.19248 -2.00592,-0.29c-0.84404,0.68496 -1.67032,1.38257 -2.23081,2.29645c-0.56675,0.92407 0.12161,2.18463 -0.07164,3.2513c-0.35279,1.94733 -1.16834,3.79884 -1.44617,5.75828c-0.80001,5.64215 1.2631,11.9344 5.3927,15.92226c3.28433,3.1716 8.19104,5.80952 12.06589,8.23024c0,0 1.02858,0.64287 0.65777,1.69736c1.90499,0.04035 3.82443,0.26507 5.41385,1.16947c2.53359,1.44165 3.86678,4.74611 5.86341,6.74483c1.68252,1.68429 3.39682,2.8308 5.00615,4.70653c1.63476,2.22471 3.21571,4.47789 5.83199,5.65694c0.57679,0.25993 1.31781,0.09019 1.84699,0.43691c2.02274,1.32532 2.12458,2.4136 4.78894,3.0724c1.87037,0.46247 3.8955,0.32302 5.68739,1.03104c4.84726,1.91529 8.88973,4.7069 14.34223,5.07826c1.67636,0.11417 2.42189,-1.49288 3.71751,-2.34269c2.35589,-1.54527 4.61723,-2.41876 7.39154,-2.78418c3.82827,-0.47721 8.04308,-1.15534 11.65278,-2.54124c5.99585,-2.30203 10.07039,-7.29356 14.44569,-11.67479c0.35627,-0.35675 3.41121,-3.06516 3.4296,-3.08814c1.15825,-1.44765 1.77066,-3.3029 3.02774,-4.66562c2.52108,-2.73294 6.27842,-4.64972 9.19658,-6.96487c2.80891,-3.08405 5.70502,-7.177 7.35394,-11.05002c0.68911,-1.6186 0.90404,-3.42542 1.68753,-5.00051c1.27923,-2.57173 2.71357,-4.50366 2.47165,-7.1208c-0.75737,-0.26784 -1.51664,-0.53024 -2.27874,-0.78417l-0.91047,-0.68651c0,0 -1.06066,-1.06066 0,-2.12132zM400.90786,202.02301c2.90564,-0.05169 5.08534,0.97356 7.9217,1.282c1.03834,0.11291 2.1069,-0.17212 3.13333,0.02117c1.50678,0.28374 2.81792,1.23765 4.29734,1.64036c2.77835,0.75629 6.29432,0.98545 9.1562,0.60929c6.38333,-0.83902 11.89667,-7.08593 18.89526,-4.11688c1.41949,0.6022 2.53722,1.75297 3.80583,2.62946c-5.17016,4.68299 -11.87733,8.06965 -18.34031,10.72753c-2.60309,1.07051 -5.77459,1.46073 -8.21401,2.90124c-0.03534,0.02087 -3.36352,2.73218 -2.35573,2.95297c1.28704,0.28197 4.38078,-0.26421 5.52612,-0.19093c3.01386,0.19283 6.31611,1.12426 9.21027,1.96052c1.98558,0.07725 7.6139,0.14615 8.84175,1.70927c0.65638,0.83561 -0.24246,2.14048 -0.6549,3.11975c-1.21793,2.89182 -4.84939,6.46602 -7.00777,8.69743c-0.57015,0.58944 -1.05813,1.34908 -1.81794,1.65764c-3.18056,1.29163 -6.95198,-3.1712 -10.04862,-1.62075c-1.45954,0.73078 -3.5326,3.17106 -4.95134,4.09122c-2.85057,1.84879 -5.93327,3.25292 -9.00878,4.66961c-4.99525,1.67106 -9.40613,4.4663 -14.2501,6.47798c-2.93049,1.21702 -6.4524,1.91552 -9.20613,3.46985c-2.30403,1.3005 -3.7118,3.86522 -5.71202,5.43027c-4.57198,3.57731 -11.71442,3.83538 -17.00348,5.69416c-7.70319,2.67729 -13.06068,8.8742 -20.24198,12.29993c-9.01963,4.30267 -19.76797,-1.04562 -29.16713,0.41996c-6.18145,1.32719 -12.427,1.33743 -18.7478,1.32134c-3.12534,-0.00796 -6.50473,-0.32017 -9.12606,-2.34725c-0.54375,-0.42048 -0.65131,-1.21338 -1.03664,-1.78257c-1.41187,-2.08559 -3.13661,-4.29135 -4.90069,-6.09402c-3.47125,-3.54718 -8.13565,-6.17604 -12.73916,-7.71854c-3.48575,-1.77401 -7.52868,-1.24216 -10.90669,-3.34838c-1.82246,-1.13632 -3.25129,-2.68271 -3.90745,-4.78372c-0.25996,-0.83241 0.65606,-2.41229 -0.19352,-2.609c-1.10588,-0.25605 -2.27668,0.29425 -3.40224,0.14712c-6.24988,-0.81697 -13.66276,-1.69735 -19.17223,-5.13554c-0.39435,-0.2461 -0.85091,-0.8212 -1.29956,-1.50937l-1.89288,-2.31352c-0.21601,-0.25988 -0.3459,-0.59388 -0.3459,-0.95821c0,-0.81469 0.64949,-1.47769 1.45893,-1.49945l1.82079,-0.05684c2.54631,-0.51517 5.0625,-1.18527 7.60863,-1.69041c0.60082,-0.1192 1.31369,-0.40959 2.00212,-0.61832c-0.13533,-0.06726 -0.27085,-0.13386 -0.40921,-0.19034c-2.88472,-0.30709 -5.25135,-1.23394 -7.88092,-2.43646c-0.00191,-0.00087 -5.4479,-2.51215 -5.45216,-2.51411c-2.74559,-1.26616 -8.64067,-2.59098 -6.72669,-7.30344c0.60694,-1.49437 2.96365,-1.2747 4.42943,-1.94775c3.71548,-1.70607 6.45707,-4.86464 10.35687,-6.18806c0.36554,-0.12405 5.35902,-1.01704 5.39713,-1.02249c0.66752,-0.09552 2.18017,0.31152 1.99471,-0.33679c-0.37409,-1.30772 -1.14205,-2.47234 -1.60963,-3.74962c-0.00526,-2.38381 0.56516,-4.2798 1.45447,-6.50226c0.89855,-2.24555 1.28333,-5.76869 2.98453,-7.54998c6.27392,-6.56924 17.24662,-5.83014 26.027,-4.68571c0.23497,-0.23355 0.41105,-0.40818 0.49755,-0.4946c4.11731,-3.42954 9.61274,-6.90897 11.51084,-12.15577c0.23073,-0.6378 -1.32001,0.3126 -1.98139,0.46291c-1.05567,0.23992 -2.40676,1.18899 -3.21395,0.46757c-0.78904,-0.7052 -1.20565,-6.36364 -0.95576,-7.54959c0.23378,-1.10949 0.8921,-2.08641 1.401,-3.09964c0.05821,-0.11591 2.71425,-4.76684 2.74492,-4.78586c5.26883,-3.26628 10.06937,4.73447 12.23331,8.08137c1.2384,2.27697 2.24068,4.68898 3.40069,6.95431c0.0593,0.11581 0.08368,-0.24725 0.14173,-0.36369c0.29344,-0.5886 0.66397,-1.14054 0.91188,-1.74972c0.34891,-0.85733 0.62732,-1.74361 0.87298,-2.63602c1.17486,-4.26795 2.24197,-8.17435 2.23787,-12.63503c-0.00199,-2.17127 -0.29247,-4.65308 0.87783,-6.63212c0.47913,-0.81023 1.46789,-1.1853 2.12788,-1.85645c3.75403,-3.81749 8.43497,-5.54876 13.24882,-8.01236c0.3067,-0.23695 4.33056,-3.40891 4.71269,-3.44404c4.68898,-0.43109 4.18841,1.47724 4.87186,4.82936c0.95768,4.69716 0.82381,9.29459 0.82381,14.067c0,1.5436 -0.65797,3.10347 -0.35547,4.61715c0.13118,0.65643 1.2469,-0.48792 1.86402,-0.7473c1.27254,-0.53487 2.50426,-1.16952 3.70267,-1.85454c3.0894,-1.76594 5.70076,-5.95787 9.51671,-5.34389c0.91122,0.14661 1.56877,0.97274 2.35316,1.4591c3.26556,1.63593 4.71462,3.55911 7.08937,6.04646c1.35745,1.42182 6.91961,3.22895 8.97301,3.50245c5.37191,0.71549 12.05877,-0.60341 16.76349,2.49903c2.81877,1.85878 3.76936,4.33247 5.69868,6.83502c1.54458,2.0035 3.94774,4.07747 5.73495,5.89985c0.56075,1.43291 2.08909,2.27978 2.92239,3.57334c1.46583,2.27547 1.51805,5.91194 3.91775,7.77013c2.05696,1.59279 4.58333,1.02118 5.89289,3.72599c0.22021,0.45483 0.3975,0.89842 0.53627,1.33236c0.11099,0.04248 0.22191,0.08511 0.33278,0.12788zM245.71346,199.81385c-1.19496,1.12225 -1.81862,5.11688 -2.43188,6.65056c-0.62334,1.55891 -1.28798,3.18852 -1.29509,4.87062c0.12244,0.31718 1.71169,4.2827 1.63187,4.67825c-0.68392,3.38891 -4.89949,2.97079 -7.40243,3.43479c-4.03696,0.74839 -5.84383,3.04981 -9.16661,5.09199c-1.40651,0.86444 -2.88605,1.70625 -4.49337,2.08315c-0.48421,0.11354 -1.12635,-0.34489 -1.49201,-0.00778c-0.2556,0.23564 0.23239,0.70827 0.51944,0.90439c0.64776,0.44256 1.44652,0.6081 2.16277,0.92817c2.72995,1.21994 5.43006,2.5104 8.14795,3.75701c2.49479,1.14428 4.63262,1.94408 7.35966,2.25367c0.63634,0.2509 1.34466,0.36618 1.90901,0.75269c1.13198,0.77527 3.24659,1.32319 3.11625,2.689c-0.14288,1.49719 -2.27094,2.03464 -3.62875,2.68145c-2.62608,1.25097 -6.95982,1.58271 -10.12869,2.11234l0.08365,0.10224l-0.27816,0.22759c0.32537,0.27024 0.65236,0.53894 1.01386,0.75058c3.25114,1.9033 7.51064,2.79463 11.12023,3.64197c2.10939,0.49518 4.52279,0.6559 6.66054,0.94697c0.64262,0.0875 3.82466,-0.17245 4.37733,0.14712c1.39942,0.80917 1.35533,2.95502 1.75138,4.52228c0.30517,1.20765 1.57609,2.39211 2.57554,2.99586c3.19815,1.93194 7.12101,1.47833 10.48715,3.1346c4.97852,1.64962 10.0016,4.61959 13.75884,8.41631c1.8889,1.90874 3.79713,4.31956 5.26451,6.55817c0.2407,0.36721 0.19938,0.93238 0.54975,1.197c1.94364,1.46799 4.81987,1.54874 7.08139,1.54254c6.15032,-0.01684 12.18988,0.01475 18.20519,-1.27186c4.73077,-0.7191 9.7509,-0.52951 14.44999,0.31878c4.22342,0.76242 9.978,1.45804 14.08142,-0.54712c7.21962,-3.52791 12.64414,-9.63042 20.42927,-12.37261c4.17662,-1.45622 8.36948,-1.99354 12.43688,-3.77499c1.24745,-0.54636 2.74333,-0.64874 3.79438,-1.51471c2.04521,-1.68507 3.54734,-4.22135 5.95735,-5.5908c3.5948,-2.04268 8.03516,-2.54467 11.67756,-4.54286c3.91793,-2.14935 7.93074,-4.19167 12.19198,-5.60656c2.89781,-1.34022 5.80755,-2.66343 8.49527,-4.40657c1.36865,-0.88764 4.02032,-3.73487 5.42143,-4.33666c2.19746,-0.94383 5.82781,0.16271 7.91322,0.9558c0.69682,0.265 1.4826,1.02499 2.13541,0.66495c1.6438,-0.90662 3.37756,-4.00987 4.5024,-5.45778c0.56686,-0.72968 1.12723,-1.46447 1.70085,-2.18885c0.38622,-0.48773 0.70727,-1.04106 1.1785,-1.44724c0.03148,-0.02713 0.08219,-0.04937 0.14213,-0.06739c-2.11786,0.18659 -4.06241,-0.18653 -6.21784,-0.28998c-2.80266,-0.79227 -6.02607,-1.75797 -8.94208,-1.92927c-0.96202,-0.05652 -5.84531,0.50363 -6.79155,-0.19093c-3.65504,-2.68285 -0.49793,-6.48502 2.18236,-8.0681c2.64568,-1.56264 5.90879,-2.01332 8.72446,-3.17125c5.29377,-2.17705 10.82719,-7.12791 16.48668,-7.77381c-2.34137,0.11361 -4.66974,-0.50379 -7.00405,-0.24265c-4.39669,0.49185 -7.87962,3.92723 -12.33584,4.52842c-3.22684,0.43533 -7.16479,0.16717 -10.29275,-0.68731c-1.42447,-0.38913 -2.67729,-1.33918 -4.13054,-1.60113c-0.94043,-0.16951 -1.91717,0.12883 -2.86667,0.02117c-2.76113,-0.3131 -4.83809,-1.15015 -7.53022,-1.29187c-0.17556,2.6491 -1.58333,5.04214 -2.89682,7.65325c-0.74493,1.48086 -0.89782,3.20169 -1.55397,4.72397c-1.84106,4.27133 -4.96973,8.67517 -8.06933,12.0763c-2.8637,2.28477 -6.60869,4.18885 -9.09166,6.8618c-1.18604,1.27679 -1.71383,3.05336 -2.80694,4.41056c-0.5928,0.73602 -2.8003,2.4914 -3.70168,3.39485c-4.68681,4.69753 -9.05984,9.85922 -15.47041,12.33477c-3.8297,1.47891 -8.29646,2.20937 -12.35886,2.71852c-2.3164,0.27062 -4.14052,1.02679 -6.10374,2.30629c-2.07733,1.35388 -2.49271,2.84232 -5.35867,2.84369c-5.78676,0.00277 -10.40865,-3.23677 -15.47949,-5.29451c-1.67142,-0.67826 -3.58474,-0.47237 -5.33368,-0.91385c-1.54505,-0.39002 -3.1324,-0.90231 -4.40112,-1.8665c-0.51618,-0.39229 -0.64688,-1.1791 -1.18271,-1.54408c-1.31289,-0.89427 -3.06583,-1.04021 -4.31638,-2.01976c-1.95643,-1.53247 -2.71232,-2.82107 -4.15225,-4.77112c-1.53169,-1.79845 -3.16078,-2.83485 -4.77816,-4.45087c-1.69984,-1.69842 -3.01817,-5.07882 -5.15766,-6.22113c-2.13611,-1.1405 -5.04492,-0.79496 -7.39594,-0.79496h-0.32415c0,0 -1.5,0 -1.5,-1.5c0,-1.5 1.5,-1.5 1.5,-1.5h0.13264c-3.78621,-2.30996 -8.15706,-4.83243 -11.22804,-7.79841c-4.79619,-4.63219 -7.19037,-11.88015 -6.27667,-18.43754c0.10609,-0.76141 1.30227,-5.01242 1.46426,-5.88343c0.23869,-1.28341 -0.36084,-2.759 0.25943,-3.90764c0.09421,-0.17447 0.7106,-0.83316 1.46668,-1.61081c-7.41253,-0.85726 -15.84518,-0.95677 -21.13404,4.01028z" fill="#000000" stroke="none" stroke-width="0.5"/><path d="M245.66725,199.79468c5.28886,-4.96705 13.72497,-4.87435 21.1375,-4.01709c-0.75608,0.77765 -1.28636,1.48716 -1.38057,1.66163c-0.62027,1.14864 -0.01964,2.6222 -0.25833,3.90561c-0.16199,0.87101 -1.35652,5.11845 -1.46261,5.87986c-0.9137,6.55739 1.48365,13.79431 6.27984,18.4265c3.07098,2.96598 7.44244,5.48284 11.22865,7.7928l-0.13264,-0.00001c0,0 -1.49995,-0.00147 -1.49995,1.49853c0,1.5 1.50001,1.49859 1.50001,1.49859h0.32415c2.35102,0 5.25981,-0.34649 7.39592,0.79401c2.13949,1.14231 3.45698,4.51476 5.15682,6.21318c1.61738,1.61602 3.24462,2.64541 4.77631,4.44386c1.43993,1.95005 2.19237,3.23084 4.1488,4.76331c1.25055,0.97955 3.00027,1.12038 4.31316,2.01465c0.53583,0.36498 0.66468,1.14937 1.18086,1.54166c1.26872,0.96419 2.85123,1.47132 4.39628,1.86134c1.74894,0.44148 3.6557,0.23047 5.32712,0.90873c5.07084,2.05774 9.66448,5.28913 15.45124,5.28636c2.86596,-0.00137 3.27097,-1.48854 5.3483,-2.84242c1.96322,-1.2795 3.77556,-2.03134 6.09196,-2.30196c4.0624,-0.50915 8.51382,-1.2273 12.34352,-2.70621c6.41057,-2.47555 10.77294,-7.61502 15.45975,-12.31255c0.90138,-0.90345 3.10818,-2.65424 3.70098,-3.39026c1.09311,-1.3572 1.62062,-3.12871 2.80666,-4.4055c2.48297,-2.67295 6.22832,-4.57084 9.09202,-6.85561c3.0996,-3.40113 6.22996,-7.79678 8.07102,-12.06811c0.65615,-1.52228 0.80996,-3.2403 1.55489,-4.72116c1.31349,-2.61111 2.72284,-5.0003 2.8984,-7.6494c2.69213,0.14172 4.86104,0.93955 7.62217,1.25265c0.9495,0.10766 1.92646,-0.1901 2.86689,-0.02059c1.45325,0.26195 2.70665,1.2136 4.13112,1.60273c3.12796,0.85448 7.06654,1.1246 10.29338,0.68927c4.45622,-0.60119 7.93904,-4.03693 12.33573,-4.52878c2.33431,-0.26114 4.66296,0.3572 7.00433,0.24359c-5.65949,0.6459 -11.19252,5.59822 -16.48629,7.77527c-2.81567,1.15793 -6.07865,1.60912 -8.72433,3.17176c-2.68029,1.58308 -5.83658,5.38946 -2.18154,8.07231c0.94624,0.69456 5.82962,0.13506 6.79164,0.19158c2.91601,0.1713 6.13961,1.13854 8.94227,1.93081c2.15543,0.10345 4.10003,0.47701 6.21789,0.29042c-0.05994,0.01802 -0.11065,0.04028 -0.14213,0.06741c-0.47123,0.40618 -0.79222,0.96013 -1.17844,1.44786c-0.57362,0.72438 -1.13392,1.46015 -1.70078,2.18983c-1.12484,1.44791 -2.8585,4.55376 -4.5023,5.46038c-0.65281,0.36004 -1.53858,-0.39832 -2.2354,-0.66332c-2.08541,-0.79309 -5.6158,-1.90224 -7.81326,-0.95841c-1.40111,0.60179 -4.05276,3.45151 -5.42141,4.33915c-2.68772,1.74314 -5.5976,3.06937 -8.49541,4.40959c-4.26124,1.41489 -8.27471,3.46228 -12.19264,5.61163c-3.6424,1.99819 -8.08422,2.50612 -11.67902,4.5488c-2.41001,1.36945 -3.91473,3.91234 -5.95994,5.59741c-1.05105,0.86597 -2.54838,0.97116 -3.79583,1.51752c-4.0674,1.78145 -8.26724,2.32839 -12.44386,3.78461c-7.78513,2.74219 -13.2356,8.85958 -20.45522,12.38749c-4.10342,2.00516 -9.87552,1.31025 -14.09894,0.54783c-4.69909,-0.84829 -9.73494,-1.04276 -14.46571,-0.32366c-6.01531,1.28661 -12.06652,1.24689 -18.21684,1.26373c-2.26152,0.0062 -5.14137,-0.0783 -7.08501,-1.54629c-0.35037,-0.26462 -0.30974,-0.8306 -0.55044,-1.19781c-1.46738,-2.23861 -3.37972,-4.65514 -5.26862,-6.56388c-3.75724,-3.79672 -8.78487,-6.77618 -13.76339,-8.4258c-3.36614,-1.65627 -7.29023,-1.20663 -10.48838,-3.13857c-0.99945,-0.60375 -2.27089,-1.79038 -2.57606,-2.99803c-0.39605,-1.56726 -0.35251,-3.71604 -1.75193,-4.52521c-0.55267,-0.31957 -3.73478,-0.0601 -4.3774,-0.1476c-2.13775,-0.29107 -4.55129,-0.45282 -6.66068,-0.948c-3.60959,-0.84734 -7.86933,-1.7411 -11.12047,-3.6444c-0.3615,-0.21164 -0.68852,-0.48074 -1.01389,-0.75098l0.27815,-0.22769l-0.08365,-0.10229c3.16887,-0.52963 7.50257,-0.86216 10.12865,-2.11313c1.35781,-0.64681 3.48582,-1.18567 3.6287,-2.68286c0.13034,-1.36581 -1.98428,-1.91523 -3.11626,-2.6905c-0.56435,-0.38651 -1.27266,-0.50218 -1.909,-0.75308c-2.72704,-0.30959 -4.86484,-1.11044 -7.35963,-2.25472c-2.71789,-1.24661 -5.41791,-2.53864 -8.14786,-3.75858c-0.71625,-0.32007 -1.51498,-0.48596 -2.16274,-0.92852c-0.28705,-0.19612 -0.77501,-0.66913 -0.51941,-0.90477c0.36566,-0.33711 1.0078,0.12127 1.49201,0.00773c1.60732,-0.3769 3.08697,-1.21986 4.49348,-2.0843c3.32278,-2.04218 5.13008,-4.34665 9.16704,-5.09504c2.50294,-0.464 6.719,-0.04836 7.40292,-3.43727c0.07982,-0.39555 -1.50889,-4.36323 -1.63133,-4.68041c0.00711,-1.6821 0.67252,-3.31426 1.29586,-4.87317c0.61326,-1.53368 1.23823,-5.53182 2.43319,-6.65407z" data-paper-data="{&quot;noHover&quot;:false,&quot;origItem&quot;:[&quot;Path&quot;,{&quot;applyMatrix&quot;:true,&quot;segments&quot;:[[[245.71346,199.81385],[0,0],[-1.19496,1.12225]],[[243.28158,206.46441],[0.61326,-1.53368],[-0.62334,1.55891]],[[241.98649,211.33503],[0.00711,-1.6821],[0.12244,0.31718]],[[243.61836,216.01328],[0.07982,-0.39555],[-0.68392,3.38891]],[[236.21593,219.44807],[2.50294,-0.464],[-4.03696,0.74839]],[[227.04932,224.54006],[3.32278,-2.04218],[-1.40651,0.86444]],[[222.55595,226.62321],[1.60732,-0.3769],[-0.48421,0.11354]],[[221.06394,226.61543],[0.36566,-0.33711],[-0.2556,0.23564]],[[221.58338,227.51982],[-0.28705,-0.19612],[0.64776,0.44256]],[[223.74615,228.44799],[-0.71625,-0.32007],[2.72995,1.21994]],[[231.8941,232.205],[-2.71789,-1.24661],[2.49479,1.14428]],[[239.25376,234.45867],[-2.72704,-0.30959],[0.63634,0.2509]],[[241.16277,235.21136],[-0.56435,-0.38651],[1.13198,0.77527]],[[244.27902,237.90036],[0.13034,-1.36581],[-0.14288,1.49719]],[[240.65027,240.58181],[1.35781,-0.64681],[-2.62608,1.25097]],[[230.52158,242.69415],[3.16887,-0.52963],[0,0]],[230.60523,242.79639],[[230.32707,243.02398],[0,0],[0.32537,0.27024]],[[231.34093,243.77456],[-0.3615,-0.21164],[3.25114,1.9033]],[[242.46116,247.41653],[-3.60959,-0.84734],[2.10939,0.49518]],[[249.1217,248.3635],[-2.13775,-0.29107],[0.64262,0.0875]],[[253.49903,248.51062],[-0.55267,-0.31957],[1.39942,0.80917]],[[255.25041,253.0329],[-0.39605,-1.56726],[0.30517,1.20765]],[[257.82595,256.02876],[-0.99945,-0.60375],[3.19815,1.93194]],[[268.3131,259.16336],[-3.36614,-1.65627],[4.97852,1.64962]],[[282.07194,267.57967],[-3.75724,-3.79672],[1.8889,1.90874]],[[287.33645,274.13784],[-1.46738,-2.23861],[0.2407,0.36721]],[[287.8862,275.33484],[-0.35037,-0.26462],[1.94364,1.46799]],[[294.96759,276.87738],[-2.26152,0.0062],[6.15032,-0.01684]],[[313.17278,275.60552],[-6.01531,1.28661],[4.73077,-0.7191]],[[327.62277,275.9243],[-4.69909,-0.84829],[4.22342,0.76242]],[[341.70419,275.37718],[-4.10342,2.00516],[7.21962,-3.52791]],[[362.13346,263.00457],[-7.78513,2.74219],[4.17662,-1.45622]],[[374.57034,259.22958],[-4.0674,1.78145],[1.24745,-0.54636]],[[378.36472,257.71487],[-1.05105,0.86597],[2.04521,-1.68507]],[[384.32207,252.12407],[-2.41001,1.36945],[3.5948,-2.04268]],[[395.99963,247.58121],[-3.6424,1.99819],[3.91793,-2.14935]],[[408.19161,241.97465],[-4.26124,1.41489],[2.89781,-1.34022]],[[416.68688,237.56808],[-2.68772,1.74314],[1.36865,-0.88764]],[[422.10831,233.23142],[-1.40111,0.60179],[2.19746,-0.94383]],[[430.02153,234.18722],[-2.08541,-0.79309],[0.69682,0.265]],[[432.15694,234.85217],[-0.65281,0.36004],[1.6438,-0.90662]],[[436.65934,229.39439],[-1.12484,1.44791],[0.56686,-0.72968]],[[438.36019,227.20554],[-0.57362,0.72438],[0.38622,-0.48773]],[[439.53869,225.7583],[-0.47123,0.40618],[0.03148,-0.02713]],[[439.68082,225.69091],[-0.05994,0.01802],[-2.11786,0.18659]],[[433.46298,225.40093],[2.15543,0.10345],[-2.80266,-0.79227]],[[424.5209,223.47166],[2.91601,0.1713],[-0.96202,-0.05652]],[[417.72935,223.28073],[0.94624,0.69456],[-3.65504,-2.68285]],[[419.91171,215.21263],[-2.68029,1.58308],[2.64568,-1.56264]],[[428.63617,212.04138],[-2.81567,1.15793],[5.29377,-2.17705]],[[445.12285,204.26757],[-5.65949,0.6459],[-2.34137,0.11361]],[[438.1188,204.02492],[2.33431,-0.26114],[-4.39669,0.49185]],[[425.78296,208.55334],[4.45622,-0.60119],[-3.22684,0.43533]],[[415.49021,207.86603],[3.12796,0.85448],[-1.42447,-0.38913]],[[411.35967,206.2649],[1.45325,0.26195],[-0.94043,-0.16951]],[[408.493,206.28607],[0.9495,0.10766],[-2.76113,-0.3131]],[[400.96278,204.9942],[2.69213,0.14172],[-0.17556,2.6491]],[[398.06596,212.64745],[1.31349,-2.61111],[-0.74493,1.48086]],[[396.51199,217.37142],[0.65615,-1.52228],[-1.84106,4.27133]],[[388.44266,229.44772],[3.0996,-3.40113],[-2.8637,2.28477]],[[379.351,236.30952],[2.48297,-2.67295],[-1.18604,1.27679]],[[376.54406,240.72008],[1.09311,-1.3572],[-0.5928,0.73602]],[[372.84238,244.11493],[0.90138,-0.90345],[-4.68681,4.69753]],[[357.37197,256.4497],[6.41057,-2.47555],[-3.8297,1.47891]],[[345.01311,259.16822],[4.0624,-0.50915],[-2.3164,0.27062]],[[338.90937,261.47451],[1.96322,-1.2795],[-2.07733,1.35388]],[[333.5507,264.3182],[2.86596,-0.00137],[-5.78676,0.00277]],[[318.07121,259.02369],[5.07084,2.05774],[-1.67142,-0.67826]],[[312.73753,258.10984],[1.74894,0.44148],[-1.54505,-0.39002]],[[308.33641,256.24334],[1.26872,0.96419],[-0.51618,-0.39229]],[[307.1537,254.69926],[0.53583,0.36498],[-1.31289,-0.89427]],[[302.83732,252.6795],[1.25055,0.97955],[-1.95643,-1.53247]],[[298.68507,247.90838],[1.43993,1.95005],[-1.53169,-1.79845]],[[293.90691,243.45751],[1.61738,1.61602],[-1.69984,-1.69842]],[[288.74925,237.23638],[2.13949,1.14231],[-2.13611,-1.1405]],[[281.35331,236.44142],[2.35102,0],[0,0]],[281.02916,236.44142],[[279.52916,234.94142],[0,1.5],[0,-1.5]],[281.02916,233.44142],[[281.1618,233.44142],[0,0],[-3.78621,-2.30996]],[[269.93376,225.64301],[3.07098,2.96598],[-4.79619,-4.63219]],[[263.65709,207.20547],[-0.9137,6.55739],[0.10609,-0.76141]],[[265.12135,201.32204],[-0.16199,0.87101],[0.23869,-1.28341]],[[265.38078,197.4144],[-0.62027,1.14864],[0.09421,-0.17447]],[[266.84746,195.80359],[-0.75608,0.77765],[-7.41253,-0.85726]],[[245.71342,199.81387],[5.28886,-4.96705],[0,0]]],&quot;closed&quot;:true,&quot;fillColor&quot;:[0,0,0,1],&quot;strokeWidth&quot;:0.5}]}" fill="#f8f499" stroke="none" stroke-width="0.25"/><path d="M394.76723,200.49065c-1.06066,1.06066 0.00006,2.12301 0.00006,2.12301l0.91048,0.68707c0.7621,0.25393 1.52137,0.51694 2.27874,0.78478c0.24192,2.61714 -1.19275,4.55467 -2.47198,7.1264c-0.78349,1.57509 -0.99906,3.38598 -1.68817,5.00458c-1.64892,3.87302 -4.54814,7.97596 -7.35705,11.06001c-2.91816,2.31515 -6.67995,4.24008 -9.20103,6.97302c-1.25708,1.36272 -1.87255,3.22205 -3.0308,4.6697c-0.01839,0.02298 -3.07617,2.73452 -3.43244,3.09127c-4.3753,4.38123 -8.46362,9.38263 -14.45947,11.68466c-3.6097,1.3859 -7.83474,2.06768 -11.66301,2.54489c-2.77431,0.36542 -5.04266,1.24006 -7.39855,2.78533c-1.29562,0.84981 -2.04456,2.45706 -3.72092,2.34289c-5.4525,-0.37136 -9.5082,-3.16443 -14.35546,-5.07972c-1.79189,-0.70802 -3.82208,-0.57012 -5.69245,-1.03259c-2.66436,-0.6588 -2.77097,-1.74911 -4.79371,-3.07443c-0.52918,-0.34672 -1.27173,-0.17776 -1.84852,-0.43769c-2.61628,-1.17905 -4.20355,-3.43621 -5.83831,-5.66092c-1.60933,-1.87573 -3.32864,-3.02649 -5.01116,-4.71078c-1.99663,-1.99872 -3.33546,-5.30966 -5.86905,-6.75131c-1.58942,-0.9044 -3.51093,-1.13219 -5.41592,-1.17254c0.37081,-1.05449 -0.6586,-1.69874 -0.6586,-1.69874c-3.87485,-2.42072 -8.78582,-5.06819 -12.07015,-8.23979c-4.1296,-3.98786 -6.19508,-10.2928 -5.39507,-15.93495c0.27783,-1.95944 1.09333,-3.81537 1.44612,-5.7627c0.19325,-1.06667 -0.49496,-2.32976 0.07179,-3.25383c0.56049,-0.91388 1.38698,-1.61347 2.23102,-2.29843c0.68648,0.09752 1.35644,0.19559 2.00592,0.29003c0,0 1.4851,0.21089 1.69723,-1.27403c0.12468,-0.87275 -0.33669,-1.30698 -0.73844,-1.51573c3.96447,-3.2026 7.91039,-6.18505 9.99905,-11.00406c0.4156,-0.9589 1.41093,-1.94329 1.09712,-2.94015c-0.37138,-1.17971 -1.51804,-2.04053 -2.70153,-2.39967c-0.98402,-0.29861 -2.05596,0.29329 -3.00699,0.68442c-0.32974,0.13561 -0.6778,1.13172 -0.76627,0.78634c-0.15421,-0.60204 0.37774,-1.1974 0.42374,-1.81717c0.2433,-3.27795 0.8847,-4.27907 2.34633,-7.2515c0.3739,-0.76037 0.2134,-2.11153 1.59983,-1.51173c3.40634,1.47366 4.99466,4.35412 6.91005,7.31186c1.53481,2.82687 3.62268,10.68024 8.00632,7.2683c1.24238,-0.96699 2.32449,-4.47934 2.71013,-5.85068c0.99664,-3.54405 2.10458,-7.04398 2.35127,-10.74708c0.12789,-1.91977 -0.72857,-5.96695 0.4264,-7.73955c0.40782,-0.6259 1.23036,-0.86299 1.76366,-1.38612c0.98133,-0.96262 1.66124,-2.31724 2.87635,-2.96001c3.09838,-1.63899 6.62823,-2.93158 9.81892,-4.59196c1.27001,-0.97306 2.22715,-2.46138 3.71885,-3.03981c1.92494,-0.74642 1.68555,4.6844 1.81282,5.44301c0.75122,4.47771 0.04731,9.09213 0.29248,13.61405c0.0645,1.18958 -0.42353,2.53761 0.33141,3.45921c1.54124,1.88147 3.74647,0.68604 5.27445,0.09772c2.70953,-1.04325 5.69255,-2.54915 7.89174,-4.47344c0.79559,-0.69614 1.11405,-1.92086 2.04121,-2.42874c1.40068,-0.76726 2.02,0.2233 3.03602,0.97316c3.15713,1.57545 4.17001,3.34004 6.53433,5.6261c1.95657,1.89181 7.68862,3.87535 10.48784,4.28471c4.71441,0.68943 11.59988,-0.71743 15.66016,2.0488c2.53308,1.72577 3.2362,3.90135 5.00789,6.18991c1.501,1.9389 3.82892,3.9861 5.60696,5.72355c0.57919,1.41897 2.07246,2.28018 2.91331,3.56155c1.67476,2.55217 1.79698,6.32763 4.51132,8.44493c0.65642,0.51203 1.74125,0.79086 2.75503,1.13386c-0.0867,0.06033 -0.17399,0.13342 -0.26129,0.22072z" data-paper-data="{&quot;noHover&quot;:false,&quot;origItem&quot;:[&quot;Path&quot;,{&quot;applyMatrix&quot;:true,&quot;segments&quot;:[[[394.71733,200.49338],[0,0],[0.0873,-0.0873]],[[394.97863,200.27282],[-0.0867,0.06033],[-1.01378,-0.343]],[[392.22367,199.14003],[0.65642,0.51203],[-2.71434,-2.1173]],[[387.71355,190.70271],[1.67476,2.55217],[-0.84085,-1.28137]],[[384.80125,187.14477],[0.57919,1.41897],[-1.77804,-1.73745]],[[379.19683,181.42761],[1.501,1.9389],[-1.77169,-2.28856]],[[374.19275,175.24431],[2.53308,1.72577],[-4.06028,-2.76623]],[[358.54133,173.20526],[4.71441,0.68943],[-2.79922,-0.40936]],[[348.06539,168.92813],[1.95657,1.89181],[-2.36432,-2.28606]],[[341.5405,163.30522],[3.15713,1.57545],[-1.01602,-0.74986]],[[338.50819,162.33277],[1.40068,-0.76726],[-0.92716,0.50788]],[[336.46906,164.76178],[0.79559,-0.69614],[-2.19919,1.92429]],[[328.58791,169.23525],[2.70953,-1.04325],[-1.52798,0.58832]],[[323.32065,169.13625],[1.54124,1.88147],[-0.75494,-0.9216]],[[322.96518,165.57998],[0.0645,1.18958],[-0.24517,-4.52192]],[[322.67539,151.96536],[0.75122,4.47771],[-0.12727,-0.75861]],[[320.88127,146.62058],[1.92494,-0.74642],[-1.4917,0.57843]],[[317.16608,149.65952],[1.27001,-0.97306],[-3.19069,1.66038]],[[307.35617,154.24802],[3.09838,-1.63899],[-1.21511,0.64277]],[[304.48297,157.20631],[0.98133,-0.96262],[-0.5333,0.52313]],[[302.72106,158.59135],[0.40782,-0.6259],[-1.15497,1.7726]],[[302.29852,166.32812],[0.12789,-1.91977],[-0.24669,3.7031]],[[299.95455,177.06807],[0.99664,-3.54405],[-0.38564,1.37134]],[[297.24885,182.91252],[1.24238,-0.96699],[-4.38364,3.41194]],[[289.15793,175.59095],[1.53481,2.82687],[-1.91539,-2.95774]],[[282.33033,168.33564],[3.40634,1.47366],[-1.38643,-0.5998]],[[280.73149,169.84593],[0.3739,-0.76037],[-1.46163,2.97243]],[[278.38822,177.09214],[0.2433,-3.27795],[-0.046,0.61977]],[[277.96514,178.90794],[-0.15421,-0.60204],[0.08847,0.34538]],[[278.64098,178.07891],[-0.32974,0.13561],[0.95103,-0.39113]],[[281.64873,177.39298],[-0.98402,-0.29861],[1.18349,0.35914]],[[284.43917,179.83842],[-0.37138,-1.17971],[0.31381,0.99686]],[[283.34329,182.77592],[0.4156,-0.9589],[-2.08866,4.81901]],[[273.34763,193.76862],[3.96447,-3.2026],[0.40175,0.20875]],[[274.08625,195.2832],[0.12468,-0.87275],[-0.21213,1.48492]],[[272.38919,196.55599],[0,0],[-0.64948,-0.09444]],[[270.38327,196.26599],[0.68648,0.09752],[-0.84404,0.68496]],[[268.15246,198.56244],[0.56049,-0.91388],[-0.56675,0.92407]],[[268.08082,201.81374],[0.19325,-1.06667],[-0.35279,1.94733]],[[266.63465,207.57202],[0.27783,-1.95944],[-0.80001,5.64215]],[[272.02735,223.49428],[-4.1296,-3.98786],[3.28433,3.1716]],[[284.09324,231.72452],[-3.87485,-2.42072],[0,0]],[[284.75101,233.42188],[0.37081,-1.05449],[1.90499,0.04035]],[[290.16486,234.59135],[-1.58942,-0.9044],[2.53359,1.44165]],[[296.02827,241.33618],[-1.99663,-1.99872],[1.68252,1.68429]],[[301.03442,246.04271],[-1.60933,-1.87573],[1.63476,2.22471]],[[306.86641,251.69965],[-2.61628,-1.17905],[0.57679,0.25993]],[[308.7134,252.13656],[-0.52918,-0.34672],[2.02274,1.32532]],[[313.50234,255.20896],[-2.66436,-0.6588],[1.87037,0.46247]],[[319.18973,256.24],[-1.79189,-0.70802],[4.84726,1.91529]],[[333.53196,261.31826],[-5.4525,-0.37136],[1.67636,0.11417]],[[337.24947,258.97557],[-1.29562,0.84981],[2.35589,-1.54527]],[[344.64101,256.19139],[-2.77431,0.36542],[3.82827,-0.47721]],[[356.29379,253.65015],[-3.6097,1.3859],[5.99585,-2.30203]],[[370.73948,241.97536],[-4.3753,4.38123],[0.35627,-0.35675]],[[374.16908,238.88722],[-0.01839,0.02298],[1.15825,-1.44765]],[[377.19682,234.2216],[-1.25708,1.36272],[2.52108,-2.73294]],[[386.3934,227.25673],[-2.91816,2.31515],[2.80891,-3.08405]],[[393.74734,216.20671],[-1.64892,3.87302],[0.68911,-1.6186]],[[395.43487,211.2062],[-0.78349,1.57509],[1.27923,-2.57173]],[[397.90652,204.0854],[0.24192,2.61714],[-0.75737,-0.26784]],[[395.62778,203.30123],[0.7621,0.25393],[0,0]],[394.71731,202.61472],[[394.71731,200.4934],[-1.06066,1.06066],[0,0]]],&quot;closed&quot;:true,&quot;fillColor&quot;:[0,0,0,1],&quot;strokeWidth&quot;:0.5}]}" fill="#fdfdfd" stroke="none" stroke-width="0.25"/><path d="M156.65801,321.58484v-277.04485h324.53826v277.04486z" fill="none" stroke="#000000" stroke-width="0"/></g></g></svg>