<svg version="1.1" xmlns="http://www.w3.org/2000/svg" xmlns:xlink="http://www.w3.org/1999/xlink" width="324.53826" height="277.04486" viewBox="0,0,324.53826,277.04486"><g transform="translate(-156.658,-44.53998)"><g data-paper-data="{&quot;isPaintingLayer&quot;:true}" fill-rule="nonzero" stroke-linecap="butt" stroke-linejoin="miter" stroke-miterlimit="10" stroke-dasharray="" stroke-dashoffset="0" style="mix-blend-mode: normal"><path d="M386.25123,205.91818c-0.47434,-1.42302 0.94868,-1.89737 0.94868,-1.89737l1.37885,-0.45912c-0.00019,-1.52845 0.35534,-3.05452 1.03284,-4.36948c0.51621,-1.00191 1.99276,-1.54055 2.08214,-2.66407c0.09246,-1.16216 -1.06865,-2.0753 -1.51552,-3.15209c-1.28416,-3.09433 -3.08719,-6.18825 -5.50952,-8.58954c-0.81587,-0.87139 -2.11527,-1.10704 -3.17211,-1.66208c-2.12631,-1.11671 -4.95033,-3.28723 -6.49629,-5.09769c-1.20395,-1.40994 -2.98042,-3.92789 -3.87868,-5.57758c-0.61332,-1.12638 -0.04376,-1.84803 -1.23952,-2.26481c-1.51373,-0.52762 -3.62455,-1.29861 -5.18194,-1.51717c-4.01526,-0.56349 -7.78105,1.33276 -11.80306,0.99661c-3.1316,-0.26173 -5.32896,-1.58471 -8.15488,-2.81684c-1.25182,-1.06868 -3.52516,-3.20874 -5.19222,-3.74022c-3.88853,-1.23972 -8.39062,-1.98841 -12.01141,-4.37858c-2.83862,-1.87385 -4.0283,-6.97069 -5.12637,-10.13658c-0.03931,-0.11333 -0.32132,-2.42954 -1.11425,-2.70194c-3.87273,-1.33042 -9.79175,2.20501 -12.95379,3.92806c-2.51313,1.67303 -6.82281,3.78538 -8.61886,6.29353c-1.53412,2.14236 -1.88925,5.38173 -3.69704,7.28145c-1.98774,2.08881 -5.58564,0.78415 -7.32551,3.09326c-0.94595,1.25544 -0.53809,3.29033 -0.66813,4.72182c-0.46677,5.1383 0.95702,9.33267 -1.72938,13.87817c-1.21161,2.31392 -2.565,4.79332 -4.57736,6.54425c-0.06375,0.05547 -0.56437,0.56609 -1.2044,1.04293c0.00255,0.00083 0.00509,0.00166 0.00761,0.0025c2.39086,0.79614 4.62743,3.67856 3.47081,6.28675c-0.80244,1.8095 -3.7819,2.55369 -5.29463,3.08716c-3.64603,1.28577 -7.14105,1.32818 -10.96818,1.3287c-0.63391,0.00009 -3.67711,0.0443 -3.98054,-0.1947c-0.54948,-0.43281 -0.85534,-1.07564 -1.13753,-1.73887c-0.78289,0.63907 -1.8405,1.20195 -2.41709,1.95893c-2.40641,3.15924 -1.44884,7.84857 0.73041,10.7938c3.82114,5.1642 10.74685,4.27768 16.28802,4.65963c1.13406,0.07817 2.38304,-0.37883 3.40842,0.11189c3.35607,1.60612 3.48477,4.30743 1.88547,7.02383c0.88669,0.71948 5.19951,0.44255 6.08448,0.33192c4.22502,-0.52816 7.55416,-2.31403 11.97063,-1.95649c1.32382,0.10717 4.52652,0.3871 5.5694,1.47684c0.84282,0.88069 0.69494,3.09847 0.69963,4.23419l-1.2248,1.07098c0.54358,4.35919 0.14245,9.37912 1.18744,13.50719c0.96946,3.8297 3.94427,11.02799 7.43827,13.32462c3.89799,2.56217 9.01085,1.56499 12.69334,-0.48188c1.64971,-1.17511 3.75021,-1.87837 5.25174,-3.22696c4.37074,-3.92554 7.61414,-8.82839 11.19866,-13.45397c2.37299,-3.06219 5.02473,-8.21551 8.57332,-10.11759c1.3337,-0.71488 3.96238,-0.49988 5.24587,-0.50164c2.87785,-0.00394 5.6655,-0.09874 8.50791,0.37963c7.87299,3.25307 16.17028,-3.33515 23.3161,-5.63579c3.46706,-1.11624 9.46591,-1.78007 11.66166,-5.09871c1.62116,-2.45021 2.85097,-5.41436 3.85257,-8.19312c0.46943,-0.89702 0.83681,-1.85536 1.4083,-2.69107c0.18552,-0.27129 1.11484,-0.42696 0.81322,-0.55751c-0.53717,-0.23252 -1.16443,0.13092 -1.74937,0.15229c-2.73024,0.09978 -5.08786,0.76575 -7.72032,1.59592c-2.37829,0.75001 -3.20132,1.92048 -5.63488,0.0748c-1.25683,-0.95322 -2.11109,-2.24215 -2.59544,-3.66492l-0.91539,0.30544c0,0 -1.42302,0.47434 -1.89737,-0.94868zM395.26119,199.98779c0.59965,-0.37755 0.91219,-1.16121 1.56351,-1.44031c1.32337,-0.5671 4.60365,-0.43642 6.0019,-0.43833c3.27797,-0.00449 7.50134,-0.63717 10.72203,0.13631c3.03804,0.72962 5.62526,2.61261 8.44296,3.88126c1.97349,0.88856 5.82822,0.75636 7.00213,2.92975c0.40265,0.74547 -0.78808,1.5079 -1.0588,2.31074c-0.25597,0.75911 -0.34145,1.56541 -0.51217,2.34812c0.49388,3.83137 2.14635,1.68677 5.25736,3.10463c2.75825,1.25709 6.66712,6.075 5.6672,9.36361c-0.18031,0.59301 -0.86199,0.90685 -1.17211,1.44351c-1.39862,2.42035 -0.87553,3.3453 -3.35307,5.14797c-0.49427,0.35963 -1.24064,0.13646 -1.78742,0.40971c-1.72655,0.8628 -3.17828,2.25829 -4.97574,2.96152c-1.32647,0.51896 -1.76645,0.07032 -2.93258,0.82519c-1.2985,0.84056 -2.21735,2.16358 -3.41929,3.13721c-2.11603,1.7141 -4.14647,2.85246 -6.07405,4.79961c-2.67057,1.09839 -3.97575,2.10301 -6.28707,3.50157c-4.7662,2.88399 -10.47501,4.27973 -15.75122,5.59625c-2.48443,0.61991 -4.37191,1.73602 -7.04696,1.98766c-2.79639,0.26306 -5.10434,-1.16222 -7.59799,-1.28981c-1.52008,-0.07778 -3.74305,2.98654 -4.49057,3.6306c-2.36577,2.03832 -4.98337,3.57603 -7.87584,4.67164c-11.39815,4.26055 -23.08563,7.83347 -34.89182,10.77052c-4.09605,1.01898 -8.02134,3.02932 -12.33109,3.29256c-1.44087,0.08801 -2.87497,-0.32626 -4.31852,-0.32402c-3.42621,-0.2326 -8.27453,0.00078 -11.38549,-1.49045c-0.55988,-0.26838 -0.77804,-1.01325 -1.32253,-1.31162c-3.4724,-1.90283 -7.76769,-3.2565 -11.64429,-4.38713c-2.42857,-0.7083 -7.26924,-2.13575 -8.20045,-5.11889c-0.28025,-0.8978 0.7813,-1.72351 1.32419,-2.49153c1.34949,-1.90911 4.16591,-2.42255 5.36774,-4.34388c0.42105,-0.67313 0.24231,-1.58025 0.51745,-2.32502c0.98844,-2.67557 1.47391,-4.00095 1.67142,-6.87795c-2.91819,-1.56332 -5.96139,-0.45167 -9.19989,-0.83734c-1.49263,-0.17776 -2.83189,-1.06355 -4.31432,-1.31242c-7.99815,-1.34272 -16.46828,1.20393 -24.46702,0.67092c-4.7078,-0.31371 -9.25501,-2.49866 -13.72196,-3.90202c-5.1306,0.03406 -10.20647,1.62163 -15.3373,1.63742c-0.28782,0.00089 -5.52676,-0.63334 -5.83497,-0.65066c-1.73245,-0.09732 -3.55565,0.49999 -5.20539,-0.03777c-5.27363,-1.71901 -3.70987,-9.86574 -0.29224,-12.98436c1.20807,-1.10238 4.10424,-1.29224 5.48263,-1.60569c2.86315,-0.65109 5.76118,-0.84564 8.56044,-1.64543c3.28965,-0.02215 5.50115,-0.54154 7.77777,-3.32741c1.28826,-1.57643 1.0303,-4.27181 3.10468,-5.28076c1.92026,-0.93398 5.75995,0.32018 7.63093,0.60553c5.02168,0.76588 9.98623,1.24199 15.00989,1.42257c-0.37868,-0.36309 -0.70936,-0.72748 -0.97502,-1.08434c-3.88014,-5.21218 -3.71752,-12.34872 1.37419,-16.62995c0.82333,-0.69227 1.60056,-1.58452 2.64231,-1.8526c0.10241,-0.02635 0.20536,-0.04646 0.30879,-0.06116l-0.00667,-0.03333l1.59037,-0.31807c0.10451,-0.02305 0.21311,-0.0352 0.32455,-0.0352c0.82843,0 1.5,0.67157 1.5,1.5c0,0.35883 -0.126,0.68823 -0.33616,0.94637l-0.7013,0.87662c0.66306,0.11745 2.22267,-0.08154 2.4548,-0.0815c3.48391,0.00048 6.66061,0.0012 9.97328,-1.15893c1.22973,-0.43066 2.82916,-0.49561 3.58562,-1.5565c0.47882,-0.67151 -0.70018,-1.26663 -0.92744,-1.45853c-1.17886,-0.99543 -5.24256,-0.14512 -5.37137,-2.59858c-0.06515,-1.24096 1.65669,-1.86006 2.58476,-2.68644c2.64116,-2.35174 4.40485,-4.0141 6.10331,-7.29828c2.96929,-4.86416 0.18629,-11.15143 1.72751,-16.81406c0.66898,-2.4579 2.5015,-3.84798 4.89166,-4.61005c0.61321,-0.19551 2.93546,-0.13557 3.60053,-0.92549c1.58881,-1.88706 1.92899,-4.93523 3.43424,-6.98111c2.09686,-2.84997 6.55908,-5.1179 9.4525,-7.04081c3.9556,-2.15959 14.20376,-7.7654 17.66711,-2.21071c1.89012,3.03146 2.11846,7.42295 3.81443,10.58155c1.15649,2.15386 6.10929,2.62587 8.05558,3.36003c3.77362,1.42344 6.79631,2.56518 9.99671,5.31975c2.33819,0.98202 4.17972,2.19246 6.75598,2.36955c6.18914,0.42544 11.95489,-2.23705 18.0231,0.77604c2.89517,1.43756 4.10626,6.16047 6.19832,8.66051c2.64278,3.15818 6.67969,3.87281 9.4851,6.55905c2.68533,2.70533 4.71,6.09616 6.15984,9.56281c0.53704,1.28409 1.86665,3.1584 1.72597,4.62749c-0.16624,1.73597 -1.6948,2.48558 -2.45595,3.81891c-0.26577,0.46556 -0.452,0.96697 -0.56335,1.48525c1.26614,-0.69725 2.5221,-1.49026 3.60465,-2.17185zM247.14641,219.02931c-2.21841,-0.2433 -6.68388,-1.93802 -8.88237,-1.22276c-0.40502,0.13177 -1.70617,3.98512 -2.08171,4.44371c-2.65992,3.24824 -5.72744,4.48555 -9.72628,4.45217c-2.71813,0.77661 -5.51756,0.96682 -8.29531,1.59606c-1.41588,0.32074 -3.21354,-0.03729 -4.24184,0.9875c-1.81896,1.81274 -1.63421,3.36746 -1.73006,5.65541c-0.02537,0.60562 -0.43682,1.23703 -0.22402,1.8046c0.3074,0.81987 1.73824,0.2681 2.61381,0.26104c1.02801,-0.00829 2.05771,-0.0553 3.08413,0.00236c1.89893,0.10667 3.76717,0.6527 5.66908,0.64594c5.2793,-0.01876 10.48692,-1.62827 15.78102,-1.60407c4.38437,1.3253 8.91189,3.57108 13.50656,3.87756c8.11847,0.54152 16.65924,-1.97529 24.80365,-0.62567c1.41679,0.23478 2.68639,1.12071 4.11355,1.28077c2.29896,0.25784 5.86041,-0.85169 8.00983,0.04689c1.27124,0.53145 2.29162,1.53051 3.43743,2.29576c0.25106,4.13539 -0.05901,5.67205 -1.47168,9.391c-0.35102,0.92409 -0.23711,2.03472 -0.77915,2.86137c-1.20752,1.84156 -2.94687,2.35559 -4.53893,3.61291c-0.41319,0.32632 -0.68382,0.81637 -1.1144,1.11939c-0.17146,0.12066 -0.78722,-0.02573 -0.6207,0.10166c3.87181,2.96204 8.9647,3.08269 13.36423,4.99042c2.24843,0.97497 4.27245,2.56454 6.31128,3.64088c1.47406,0.77819 3.48121,0.33225 4.9805,0.45893c1.68364,0.14226 3.34198,0.53106 5.02785,0.64382c1.37404,0.00201 2.73771,0.40547 4.10935,0.32428c4.05301,-0.23991 7.80164,-2.22377 11.65594,-3.19043c11.71393,-2.93785 23.31006,-6.45324 34.62457,-10.68462c4.54283,-1.67293 6.97088,-5.618 11.10149,-7.6733c2.8225,-1.40441 4.12781,0.09853 7.0413,0.42664c2.24594,0.25293 4.67857,-0.12166 6.81305,-0.85082c3.13955,-1.0725 6.50689,-1.33068 9.52862,-2.8395c2.45145,-1.22407 5.37258,-1.93202 7.69083,-3.36275c2.19582,-1.35516 3.73331,-2.50529 6.25578,-3.4809c1.81188,-1.9031 3.83374,-2.99835 5.85915,-4.64142c1.29363,-1.04943 2.29622,-2.46806 3.71199,-3.34577c1.05469,-0.65385 2.39121,-0.67679 3.5504,-1.11971c1.72823,-0.66034 3.09414,-2.04542 4.74873,-2.87317c0.43927,-0.21976 1.04376,0.0314 1.45407,-0.23859c1.41279,-0.92963 2.50287,-3.68043 3.2544,-5.07789c0.44159,-0.82114 -2.14255,-3.79027 -2.29729,-3.96547c-2.42578,-2.74672 -6.83923,-0.75768 -8.38307,-4.65268c-0.36029,-0.909 -0.29148,-1.93376 -0.43722,-2.90063c0.26147,-1.16219 0.30173,-2.3975 0.78442,-3.48656c0.12562,-0.28342 1.13596,-0.09895 0.8861,-0.28245c-0.73735,-0.54149 -1.85582,0.33563 -2.74227,0.10956c-0.90009,-0.22955 -1.72189,-0.6981 -2.57327,-1.0696c-2.61201,-1.13974 -5.0456,-3.01529 -7.83614,-3.6873c-3.01137,-0.72519 -7.05522,-0.07027 -10.11719,-0.07471c-0.98604,-0.00143 -3.94356,-0.21812 -4.85385,0.20997c-0.46627,0.21927 -0.59645,0.87396 -1.02968,1.15288c-1.49956,0.96544 -3.31452,2.06432 -5.06314,2.93607c0.31429,0.90005 0.83416,1.73024 1.53362,2.38455c1.01687,0.95122 1.97207,-0.16083 2.93471,-0.488c2.643,-0.89828 6.15108,-2.31092 8.99372,-1.73108c1.41573,0.28878 3.24657,0.27238 4.08531,1.44889c0.63909,0.89645 -0.38242,2.18016 -0.76116,3.2139c-0.33974,0.92729 -0.91825,1.7487 -1.37738,2.62305c-1.20303,3.34404 -2.92078,8.06102 -5.81197,10.35417c-3.25465,2.58143 -7.63866,3.33759 -11.53056,4.5863c-7.95592,2.55265 -16.24724,9.08683 -25.04244,5.66873c-2.54836,-0.41917 -5.11985,-0.26493 -7.69954,-0.26867c-1.2777,-0.00185 -2.73126,-0.50498 -3.8303,0.14666c-1.4419,0.85493 -3.03552,3.39616 -3.98003,4.58314c-2.87611,3.61442 -5.72867,7.16208 -8.25968,10.99275c-3.24667,4.91381 -7.97445,7.80536 -12.59696,11.11368c-4.63321,2.57284 -11.04423,3.72451 -15.89034,0.48708c-4.1809,-2.79305 -7.60164,-10.50178 -8.76918,-15.20051c-1.1039,-4.4426 -0.62767,-9.77481 -1.31736,-14.37273c0,0 -0.14846,-0.98972 0.60558,-1.47358c0.3076,-0.35609 0.72763,-0.49611 0.72763,-0.49611l-0.01238,0.25562c0.03824,-0.00466 0.07562,-0.00816 0.11215,-0.01057c0.13749,-0.54199 0.26669,-1.07786 -0.10165,-1.39496c-1.06578,-0.91753 -6.43067,-0.65188 -7.71138,-0.48452c-4.20155,0.54906 -10.69203,4.11653 -14.94293,1.43083c-0.82588,-0.52179 -1.13017,-1.59375 -1.69526,-2.39063c0.37226,-1.19604 1.40245,-2.41415 1.03647,-3.61213c-0.52002,-1.7022 -5.21864,-1.17328 -6.4395,-1.24568c-2.08381,-0.12357 -5.06141,0.4642 -7.06881,-0.03783c-0.89328,-0.2234 -1.98261,-0.67235 -3.09467,-1.25669c-5.73332,-0.01281 -11.13463,-0.57989 -16.82923,-1.20442z" fill="#000000" stroke="none" stroke-width="0.5"/><path d="M247.09754,219.01884c5.6946,0.62453 11.09635,1.18975 16.82967,1.20256c1.11206,0.58434 2.2013,1.03367 3.09458,1.25707c2.0074,0.50203 4.98541,-0.08729 7.06922,0.03628c1.22086,0.0724 6.01559,-0.4289 6.53561,1.2733c0.36598,1.19798 -0.6632,2.41205 -1.03546,3.60809c0.56509,0.79688 0.86979,1.86655 1.69567,2.38834c4.2509,2.6857 10.64402,-0.90366 14.84557,-1.45272c1.28071,-0.16736 6.64689,-0.43683 7.71267,0.4807c0.36834,0.3171 0.33349,0.88596 0.196,1.42795c-0.03653,0.00241 -0.1693,-0.02409 -0.20754,-0.01943l0.10762,-0.22515c0,0 -0.41955,0.13847 -0.72715,0.49456c-0.75404,0.48386 -0.60469,1.47003 -0.60469,1.47003c0.68969,4.59792 0.20935,9.89749 1.31325,14.34009c1.16754,4.69873 4.56374,12.38397 8.74464,15.17702c4.84611,3.23743 11.22732,2.0824 15.86053,-0.49044c4.62251,-3.30832 9.32032,-6.1814 12.56699,-11.09521c2.53101,-3.83067 5.37334,-7.35251 8.24945,-10.96693c0.94451,-1.18698 2.53803,-3.71986 3.97993,-4.57479c1.09904,-0.65164 2.65236,-0.15544 3.93006,-0.15359c2.57969,0.00374 5.15124,-0.14955 7.6996,0.26962c8.7952,3.4181 16.98691,-3.10791 24.94283,-5.66056c3.8919,-1.24871 8.27619,-2.00284 11.53084,-4.58427c2.89119,-2.29315 4.61007,-7.00485 5.8131,-10.34889c0.45913,-0.87435 1.03797,-1.69458 1.37771,-2.62187c0.37874,-1.03374 1.40073,-2.31594 0.76164,-3.21239c-0.83874,-1.17651 -2.66908,-1.15866 -4.08481,-1.44744c-2.84264,-0.57984 -6.35039,0.83368 -8.99339,1.73196c-0.96264,0.32717 -1.91769,1.4396 -2.93456,0.48838c-0.69946,-0.65431 -1.21861,-1.48278 -1.5329,-2.38283c1.74862,-0.87175 3.56374,-1.97026 5.0633,-2.9357c0.43323,-0.27892 0.65442,-0.97505 1.12069,-1.19432c0.91029,-0.42809 3.86825,-0.21043 4.85429,-0.209c3.06197,0.00444 7.10663,-0.64849 10.118,0.0767c2.79054,0.67201 5.22514,2.55046 7.83715,3.6902c0.85138,0.3715 1.67343,0.84088 2.57352,1.07043c0.88645,0.22607 2.00501,-0.65075 2.74236,-0.10926c0.24986,0.1835 -0.76048,-0.00096 -0.8861,0.28246c-0.48269,1.08906 -0.52255,2.32582 -0.78402,3.48801c0.14574,0.96687 0.07726,1.993 0.43755,2.902c1.54384,3.895 5.95785,1.90879 8.38363,4.65551c0.15474,0.1752 2.73916,3.14621 2.29757,3.96735c-0.75153,1.39746 -1.84138,4.15037 -3.25417,5.08c-0.41031,0.26999 -1.0148,0.01888 -1.45407,0.23864c-1.65459,0.82775 -3.02041,2.21403 -4.74864,2.87437c-1.15919,0.44292 -2.49568,0.46632 -3.55037,1.12017c-1.41577,0.87771 -2.4183,2.298 -3.71193,3.34743c-2.02541,1.64307 -4.04729,2.74086 -5.85917,4.64396c-2.52247,0.97561 -4.06008,2.12795 -6.2559,3.48311c-2.31825,1.43073 -5.23965,2.14127 -7.6911,3.36534c-3.02173,1.50882 -6.38955,1.76998 -9.5291,2.84248c-2.13448,0.72916 -4.56747,1.10547 -6.81341,0.85254c-2.91349,-0.32811 -4.21905,-1.83 -7.04155,-0.42559c-4.13061,2.0553 -6.56258,6.01082 -11.10541,7.68375c-11.31451,4.23138 -22.94559,7.77318 -34.65952,10.71103c-3.8543,0.96666 -7.62039,2.95084 -11.6734,3.19075c-1.37164,0.08119 -2.74096,-0.32351 -4.115,-0.32552c-1.68587,-0.11276 -3.35067,-0.50386 -5.03431,-0.64612c-1.49929,-0.12668 -3.51194,0.31645 -4.986,-0.46174c-2.03883,-1.07634 -4.07039,-2.67137 -6.31882,-3.64634c-4.39953,-1.90773 -9.50184,-2.03946 -13.37365,-5.0015c-0.16652,-0.12739 0.5339,-0.03422 0.70536,-0.15488c0.43058,-0.30302 0.61648,-0.73996 1.02967,-1.06628c1.59206,-1.25732 3.33095,-1.7721 4.53847,-3.61366c0.54204,-0.82665 0.42675,-1.93975 0.77777,-2.86384c1.41267,-3.71895 1.71846,-5.26699 1.4674,-9.40238c-1.14581,-0.76525 -2.16704,-1.76863 -3.43828,-2.30008c-2.14942,-0.89858 -5.71107,0.2095 -8.01003,-0.04834c-1.42716,-0.16006 -2.69695,-1.04788 -4.11374,-1.28266c-8.14441,-1.34962 -16.68525,1.16619 -24.80372,0.62467c-4.59467,-0.30648 -9.12229,-2.55505 -13.50666,-3.88035c-5.2941,-0.0242 -10.40173,1.58387 -15.68103,1.60263c-1.90191,0.00676 -3.87013,-0.53745 -5.76906,-0.64412c-1.02642,-0.05766 -1.95613,-0.01209 -2.98414,-0.0038c-0.87557,0.00706 -2.4064,0.56011 -2.7138,-0.25976c-0.2128,-0.56757 0.19865,-1.19979 0.22402,-1.80541c0.09585,-2.28795 -0.08882,-3.84524 1.73014,-5.65798c1.0283,-1.02479 2.826,-0.66734 4.24188,-0.98808c2.77775,-0.62924 5.57727,-0.82055 8.2954,-1.59716c3.99884,0.03338 7.06672,-1.20691 9.72664,-4.45515c0.37554,-0.45859 1.67716,-4.31459 2.08218,-4.44636c2.19849,-0.71526 6.66404,0.97909 8.88245,1.22239z" data-paper-data="{&quot;noHover&quot;:false,&quot;origItem&quot;:[&quot;Path&quot;,{&quot;applyMatrix&quot;:true,&quot;segments&quot;:[[[247.14641,219.02931],[0,0],[-2.21841,-0.2433]],[[238.26404,217.80655],[2.19849,-0.71526],[-0.40502,0.13177]],[[236.18233,222.25026],[0.37554,-0.45859],[-2.65992,3.24824]],[[226.45605,226.70243],[3.99884,0.03338],[-2.71813,0.77661]],[[218.16074,228.29849],[2.77775,-0.62924],[-1.41588,0.32074]],[[213.9189,229.28599],[1.0283,-1.02479],[-1.81896,1.81274]],[[212.18884,234.9414],[0.09585,-2.28795],[-0.02537,0.60562]],[[211.96482,236.746],[-0.2128,-0.56757],[0.3074,0.81987]],[[214.57863,237.00704],[-0.87557,0.00706],[1.02801,-0.00829]],[[217.66276,237.0094],[-1.02642,-0.05766],[1.89893,0.10667]],[[223.33184,237.65534],[-1.90191,0.00676],[5.2793,-0.01876]],[[239.11286,236.05127],[-5.2941,-0.0242],[4.38437,1.3253]],[[252.61942,239.92883],[-4.59467,-0.30648],[8.11847,0.54152]],[[277.42307,239.30316],[-8.14441,-1.34962],[1.41679,0.23478]],[[281.53662,240.58393],[-1.42716,-0.16006],[2.29896,0.25784]],[[289.54645,240.63082],[-2.14942,-0.89858],[1.27124,0.53145]],[[292.98388,242.92658],[-1.14581,-0.76525],[0.25106,4.13539]],[[291.5122,252.31758],[1.41267,-3.71895],[-0.35102,0.92409]],[[290.73305,255.17895],[0.54204,-0.82665],[-1.20752,1.84156]],[[286.19412,258.79186],[1.59206,-1.25732],[-0.41319,0.32632]],[[285.07972,259.91125],[0.43058,-0.30302],[-0.17146,0.12066]],[[284.45902,260.01291],[-0.16652,-0.12739],[3.87181,2.96204]],[[297.82325,265.00333],[-4.39953,-1.90773],[2.24843,0.97497]],[[304.13453,268.64421],[-2.03883,-1.07634],[1.47406,0.77819]],[[309.11503,269.10314],[-1.49929,-0.12668],[1.68364,0.14226]],[[314.14288,269.74696],[-1.68587,-0.11276],[1.37404,0.00201]],[[318.25223,270.07124],[-1.37164,0.08119],[4.05301,-0.23991]],[[329.90817,266.88081],[-3.8543,0.96666],[11.71393,-2.93785]],[[364.53274,256.19619],[-11.31451,4.23138],[4.54283,-1.67293]],[[375.63423,248.52289],[-4.13061,2.0553],[2.8225,-1.40441]],[[382.67553,248.94953],[-2.91349,-0.32811],[2.24594,0.25293]],[[389.48858,248.09871],[-2.13448,0.72916],[3.13955,-1.0725]],[[399.0172,245.25921],[-3.02173,1.50882],[2.45145,-1.22407]],[[406.70803,241.89646],[-2.31825,1.43073],[2.19582,-1.35516]],[[412.96381,238.41556],[-2.52247,0.97561],[1.81188,-1.9031]],[[418.82296,233.77414],[-2.02541,1.64307],[1.29363,-1.04943]],[[422.53495,230.42837],[-1.41577,0.87771],[1.05469,-0.65385]],[[426.08535,229.30866],[-1.15919,0.44292],[1.72823,-0.66034]],[[430.83408,226.43549],[-1.65459,0.82775],[0.43927,-0.21976]],[[432.28815,226.1969],[-0.41031,0.26999],[1.41279,-0.92963]],[[435.54255,221.11901],[-0.75153,1.39746],[0.44159,-0.82114]],[[433.24526,217.15354],[0.15474,0.1752],[-2.42578,-2.74672]],[[424.86219,212.50086],[1.54384,3.895],[-0.36029,-0.909]],[[424.42497,209.60023],[0.14574,0.96687],[0.26147,-1.16219]],[[425.20939,206.11367],[-0.48269,1.08906],[0.12562,-0.28342]],[[426.09549,205.83122],[0.24986,0.1835],[-0.73735,-0.54149]],[[423.35322,205.94078],[0.88645,0.22607],[-0.90009,-0.22955]],[[420.77995,204.87118],[0.85138,0.3715],[-2.61201,-1.13974]],[[412.94381,201.18388],[2.79054,0.67201],[-3.01137,-0.72519]],[[402.82662,201.10917],[3.06197,0.00444],[-0.98604,-0.00143]],[[397.97277,201.31914],[0.91029,-0.42809],[-0.46627,0.21927]],[[396.94309,202.47202],[0.43323,-0.27892],[-1.49956,0.96544]],[[391.87995,205.40809],[1.74862,-0.87175],[0.31429,0.90005]],[[393.41357,207.79264],[-0.69946,-0.65431],[1.01687,0.95122]],[[396.34828,207.30464],[-0.96264,0.32717],[2.643,-0.89828]],[[405.342,205.57356],[-2.84264,-0.57984],[1.41573,0.28878]],[[409.42731,207.02245],[-0.83874,-1.17651],[0.63909,0.89645]],[[408.66615,210.23635],[0.37874,-1.03374],[-0.33974,0.92729]],[[407.28877,212.8594],[0.45913,-0.87435],[-1.20303,3.34404]],[[401.4768,223.21357],[2.89119,-2.29315],[-3.25465,2.58143]],[[389.94624,227.79987],[3.8919,-1.24871],[-7.95592,2.55265]],[[364.9038,233.4686],[8.7952,3.4181],[-2.54836,-0.41917]],[[357.20426,233.19993],[2.57969,0.00374],[-1.2777,-0.00185]],[[353.37396,233.34659],[1.09904,-0.65164],[-1.4419,0.85493]],[[349.39393,237.92973],[0.94451,-1.18698],[-2.87611,3.61442]],[[341.13425,248.92248],[2.53101,-3.83067],[-3.24667,4.91381]],[[328.53729,260.03616],[4.62251,-3.30832],[-4.63321,2.57284]],[[312.64695,260.52324],[4.84611,3.23743],[-4.1809,-2.79305]],[[303.87777,245.32273],[1.16754,4.69873],[-1.1039,-4.4426]],[[302.56041,230.95],[0.68969,4.59792],[0,0]],[[303.16599,229.47642],[-0.75404,0.48386],[0.3076,-0.35609]],[303.89362,228.98031],[[303.88124,229.23593],[0,0],[0.03824,-0.00466]],[[303.99339,229.22536],[-0.03653,0.00241],[0.13749,-0.54199]],[[303.89174,227.8304],[0.36834,0.3171],[-1.06578,-0.91753]],[[296.18036,227.34588],[1.28071,-0.16736],[-4.20155,0.54906]],[[281.23743,228.77671],[4.2509,2.6857],[-0.82588,-0.52179]],[[279.54217,226.38608],[0.56509,0.79688],[0.37226,-1.19604]],[[280.57864,222.77395],[0.36598,1.19798],[-0.52002,-1.7022]],[[274.13914,221.52827],[1.22086,0.0724],[-2.08381,-0.12357]],[[267.07033,221.49044],[2.0074,0.50203],[-0.89328,-0.2234]],[[263.97566,220.23375],[1.11206,0.58434],[-5.73332,-0.01281]],[[247.14643,219.02933],[5.6946,0.62453],[0,0]]],&quot;closed&quot;:true,&quot;fillColor&quot;:[0,0,0,1],&quot;strokeWidth&quot;:0.5}]}" fill="#f7ee6f" stroke="none" stroke-width="0.25"/><path d="M386.30114,205.92135c0.47435,1.42302 1.79762,0.94166 1.79762,0.94166l1.01511,-0.298c0.48435,1.42277 1.33832,2.71461 2.59515,3.66783c2.43356,1.84568 3.15735,0.6629 5.53564,-0.08711c2.63246,-0.83017 4.98991,-1.49443 7.72015,-1.59421c0.58494,-0.02137 1.31187,-0.37673 1.84904,-0.14421c0.30162,0.13055 -0.62774,0.28664 -0.81326,0.55793c-0.57149,0.83571 -0.93908,1.79598 -1.40851,2.693c-1.0016,2.77876 -2.23256,5.74896 -3.85372,8.19917c-2.19575,3.31864 -8.1966,3.98863 -11.66366,5.10487c-7.14582,2.30064 -15.4515,8.90278 -23.32449,5.64971c-2.84241,-0.47837 -5.63504,-0.3785 -8.51289,-0.37456c-1.28349,0.00176 -3.91713,-0.20939 -5.25083,0.50549c-3.54859,1.90208 -6.21513,7.06225 -8.58812,10.12444c-3.58452,4.62558 -6.84184,9.53023 -11.21258,13.45577c-1.50153,1.34859 -3.60674,2.05157 -5.25645,3.22668c-3.68249,2.04687 -8.80592,3.04174 -12.70391,0.47957c-3.494,-2.29663 -6.4792,-9.49979 -7.44866,-13.32949c-1.04499,-4.12807 -0.65204,-9.15431 -1.19562,-13.5135l1.22494,-1.07084c-0.00469,-1.13572 0.13984,-3.35698 -0.70298,-4.23767c-1.04288,-1.08974 -4.24933,-1.37454 -5.57315,-1.48171c-4.41647,-0.35754 -7.74824,1.42399 -11.97326,1.95215c-0.88497,0.11063 -5.19907,0.385 -6.08576,-0.33448c1.5993,-2.7164 1.46822,-5.42383 -1.88785,-7.02995c-1.02538,-0.49072 -2.27464,-0.03465 -3.4087,-0.11282c-5.54117,-0.38195 -12.46826,0.49849 -16.2894,-4.66571c-2.17925,-2.94523 -3.13746,-7.64197 -0.73105,-10.80121c0.57659,-0.75698 1.6342,-1.32124 2.41709,-1.96031c0.28219,0.66323 0.68804,1.3064 1.23752,1.73921c0.30343,0.239 3.24664,0.19588 3.88055,0.19579c3.82713,-0.00052 7.32215,-0.04403 10.96818,-1.3298c1.51273,-0.53347 4.49232,-1.28086 5.29476,-3.09036c1.15662,-2.60819 -1.07922,-5.49622 -3.47008,-6.29236c-0.00252,-0.00084 -0.00506,-0.00167 -0.00761,-0.0025c0.64003,-0.47684 1.14089,-0.98863 1.20464,-1.0441c2.01236,-1.75093 3.36784,-4.23746 4.57945,-6.55138c2.6864,-4.5455 1.26846,-8.75096 1.73523,-13.88926c0.13004,-1.43149 -0.27557,-3.46936 0.67038,-4.7248c1.73987,-2.30911 5.34225,-1.00924 7.32999,-3.09805c1.80779,-1.89972 2.16814,-5.14337 3.70226,-7.28573c1.79605,-2.50815 6.1137,-4.62513 8.62683,-6.29816c3.16204,-1.72305 9.09215,-5.26212 12.96488,-3.9317c0.79293,0.2724 1.07543,2.58851 1.11474,2.70184c1.09807,3.16589 2.29124,8.26218 5.12986,10.13603c3.62079,2.39017 8.13727,3.13922 12.0258,4.37894c1.66706,0.53148 3.94783,2.6734 5.19965,3.74208c2.82592,1.23213 5.03349,2.55986 8.16509,2.82159c4.02201,0.33615 7.79601,-1.55384 11.81127,-0.99035c1.55739,0.21856 3.67161,0.99308 5.18534,1.5207c1.19576,0.41678 0.62785,1.14042 1.24117,2.2668c0.89826,1.64969 2.67864,4.1734 3.88259,5.58334c1.54596,1.81046 4.37319,3.98758 6.4995,5.10429c1.05684,0.55504 2.3571,0.79302 3.17297,1.66441c2.42233,2.40129 4.22743,5.50352 5.51159,8.59785c0.44687,1.07679 1.60835,1.99274 1.51589,3.1549c-0.08938,1.12352 -1.56576,1.6643 -2.08197,2.66621c-0.6775,1.31496 -1.03295,2.84489 -1.03276,4.37334l-1.37886,0.45956c0,0 -1.4231,0.47614 -0.94876,1.89916z" data-paper-data="{&quot;noHover&quot;:false,&quot;origItem&quot;:[&quot;Path&quot;,{&quot;applyMatrix&quot;:true,&quot;segments&quot;:[[[386.25123,205.91818],[0,0],[-0.47434,-1.42302]],[387.19991,204.02081],[[388.57876,203.56169],[0,0],[-0.00019,-1.52845]],[[389.6116,199.19221],[-0.6775,1.31496],[0.51621,-1.00191]],[[391.69374,196.52814],[-0.08938,1.12352],[0.09246,-1.16216]],[[390.17822,193.37605],[0.44687,1.07679],[-1.28416,-3.09433]],[[384.6687,184.78651],[2.42233,2.40129],[-0.81587,-0.87139]],[[381.49659,183.12443],[1.05684,0.55504],[-2.12631,-1.11671]],[[375.0003,178.02674],[1.54596,1.81046],[-1.20395,-1.40994]],[[371.12162,172.44916],[0.89826,1.64969],[-0.61332,-1.12638]],[[369.8821,170.18435],[1.19576,0.41678],[-1.51373,-0.52762]],[[364.70016,168.66718],[1.55739,0.21856],[-4.01526,-0.56349]],[[352.8971,169.66379],[4.02201,0.33615],[-3.1316,-0.26173]],[[344.74222,166.84695],[2.82592,1.23213],[-1.25182,-1.06868]],[[339.55,163.10673],[1.66706,0.53148],[-3.88853,-1.23972]],[[327.53859,158.72815],[3.62079,2.39017],[-2.83862,-1.87385]],[[322.41222,148.59157],[1.09807,3.16589],[-0.03931,-0.11333]],[[321.29797,145.88963],[0.79293,0.2724],[-3.87273,-1.33042]],[[308.34418,149.81769],[3.16204,-1.72305],[-2.51313,1.67303]],[[299.72532,156.11122],[1.79605,-2.50815],[-1.53412,2.14236]],[[296.02828,163.39267],[1.80779,-1.89972],[-1.98774,2.08881]],[[288.70277,166.48593],[1.73987,-2.30911],[-0.94595,1.25544]],[[288.03464,171.20775],[0.13004,-1.43149],[-0.46677,5.1383]],[[286.30526,185.08592],[2.6864,-4.5455],[-1.21161,2.31392]],[[281.7279,191.63017],[2.01236,-1.75093],[-0.06375,0.05547]],[[280.5235,192.6731],[0.64003,-0.47684],[0.00255,0.00083]],[[280.53111,192.6756],[-0.00252,-0.00084],[2.39086,0.79614]],[[284.00192,198.96235],[1.15662,-2.60819],[-0.80244,1.8095]],[[278.70729,202.04951],[1.51273,-0.53347],[-3.64603,1.28577]],[[267.73911,203.37821],[3.82713,-0.00052],[-0.63391,0.00009]],[[263.75857,203.18351],[0.30343,0.239],[-0.54948,-0.43281]],[[262.62104,201.44464],[0.28219,0.66323],[-0.78289,0.63907]],[[260.20395,203.40357],[0.57659,-0.75698],[-2.40641,3.15924]],[[260.93436,214.19737],[-2.17925,-2.94523],[3.82114,5.1642]],[[277.22238,218.857],[-5.54117,-0.38195],[1.13406,0.07817]],[[280.6308,218.96889],[-1.02538,-0.49072],[3.35607,1.60612]],[[282.51627,225.99272],[1.5993,-2.7164],[0.88669,0.71948]],[[288.60075,226.32464],[-0.88497,0.11063],[4.22502,-0.52816]],[[300.57138,224.36815],[-4.41647,-0.35754],[1.32382,0.10717]],[[306.14078,225.84499],[-1.04288,-1.08974],[0.84282,0.88069]],[[306.84041,230.07918],[-0.00469,-1.13572],[0,0]],[[305.61561,231.15016],[0,0],[0.54358,4.35919]],[[306.80305,244.65735],[-1.04499,-4.12807],[0.96946,3.8297]],[[314.24132,257.98197],[-3.494,-2.29663],[3.89799,2.56217]],[[326.93466,257.50009],[-3.68249,2.04687],[1.64971,-1.17511]],[[332.1864,254.27313],[-1.50153,1.34859],[4.37074,-3.92554]],[[343.38506,240.81916],[-3.58452,4.62558],[2.37299,-3.06219]],[[351.95838,230.70157],[-3.54859,1.90208],[1.3337,-0.71488]],[[357.20425,230.19993],[-1.28349,0.00176],[2.87785,-0.00394]],[[365.71216,230.57956],[-2.84241,-0.47837],[7.87299,3.25307]],[[389.02826,224.94377],[-7.14582,2.30064],[3.46706,-1.11624]],[[400.68992,219.84506],[-2.19575,3.31864],[1.62116,-2.45021]],[[404.54249,211.65194],[-1.0016,2.77876],[0.46943,-0.89702]],[[405.95079,208.96087],[-0.57149,0.83571],[0.18552,-0.27129]],[[406.76401,208.40336],[0.30162,0.13055],[-0.53717,-0.23252]],[[405.01464,208.55565],[0.58494,-0.02137],[-2.73024,0.09978]],[[397.29432,210.15157],[2.63246,-0.83017],[-2.37829,0.75001]],[[391.65944,210.22637],[2.43356,1.84568],[-1.25683,-0.95322]],[[389.064,206.56145],[0.48435,1.42277],[0,0]],[388.14861,206.86689],[[386.25124,205.91821],[0.47435,1.42302],[0,0]]],&quot;closed&quot;:true,&quot;fillColor&quot;:[0,0,0,1],&quot;strokeWidth&quot;:0.5}]}" fill="#fff4ff" stroke="none" stroke-width="0.25"/><path d="M156.65801,321.58484v-277.04485h324.53826v277.04486z" fill="none" stroke="#000000" stroke-width="0"/></g></g></svg>