<svg version="1.1" xmlns="http://www.w3.org/2000/svg" xmlns:xlink="http://www.w3.org/1999/xlink" width="324.53826" height="277.04486" viewBox="0,0,324.53826,277.04486"><g transform="translate(-156.658,-44.53998)"><g data-paper-data="{&quot;isPaintingLayer&quot;:true}" fill-rule="nonzero" stroke-linecap="butt" stroke-linejoin="miter" stroke-miterlimit="10" stroke-dasharray="" stroke-dashoffset="0" style="mix-blend-mode: normal"><path d="M400.43682,210.63022c0,-1.5 1.5,-1.5 1.5,-1.5l-0.02252,0.15836c0.52766,-0.26274 1.02906,-0.47357 1.51236,-0.64402c-0.01971,-0.00296 -0.03934,-0.00609 -0.0589,-0.00942c-2.86249,-1.44225 -5.77006,-2.08757 -8.44609,-3.90465c-0.9538,-0.64765 -1.359,-2.00409 -2.40769,-2.4831c-0.95215,-0.43491 -2.08954,0.15848 -3.13631,0.15836c-1.9194,-0.00023 -3.83965,0.04896 -5.7561,0.15543c-6.88717,0.38262 -13.93538,-0.80293 -20.62007,-2.46871c-1.43877,-0.35853 -5.00956,-1.69558 -5.56233,-2.82664c-0.49665,-1.01623 0.50543,-2.20501 0.75814,-3.30752c1.78983,-1.80418 1.76514,-2.82453 2.81264,-5.30821c1.03292,-2.44912 2.9014,-5.01404 3.55719,-7.57756c0.47282,-1.84829 0.22175,-3.8092 0.34585,-5.71296c0.11559,-1.77325 0.69173,-3.58768 0.30576,-5.32228c-0.20551,-0.92358 -1.59161,-1.03028 -2.4364,-1.45638c-3.21979,-1.62401 -6.40902,-1.14024 -9.85289,-2.20598c-0.73913,-0.22873 -1.67385,-0.10989 -2.22845,-0.64938c-0.97955,-0.95288 -0.6414,-2.7597 -1.51745,-3.80852c-1.07771,-1.29025 -2.36041,-2.46204 -3.12259,-3.96047c-0.26316,-1.26836 -0.01934,-2.64885 -0.49223,-3.85483c-0.07878,-0.20091 -0.35051,0.27297 -0.55997,0.32495c-0.70037,0.1738 -1.44972,0.1253 -2.13726,0.3444c-0.89537,0.28533 -1.70877,0.78295 -2.57125,1.15608c-2.55747,1.10642 -6.06464,2.21257 -8.3353,-0.54901c-1.00343,-1.22037 -0.47874,-5.38968 -0.85591,-6.96409c-0.5437,-2.26955 -2.51444,-3.28053 -3.64424,-4.97459c-0.19086,-0.28618 -1.51954,-5.37022 -3.10714,-4.90684c-0.58144,0.16971 -0.78003,0.93536 -1.24482,1.32376c-2.08769,1.74457 -4.61125,3.13922 -6.89036,4.60859c-5.58861,2.79714 -11.61815,5.51176 -16.89541,8.76697c-2.35677,1.45374 -4.53037,2.09823 -5.96916,4.64854c-1.49801,2.65528 -1.54504,6.19817 -2.69055,9.03029c-0.41268,1.02028 -0.69791,2.10469 -1.25463,3.05408c-0.4949,0.84397 -1.58269,1.40719 -1.72422,2.37527c-0.16709,1.14295 0.02302,2.31018 0.01583,3.46525c-0.29581,1.07988 -0.33116,2.26794 -0.88743,3.23964c-0.70429,1.23025 -2.66512,1.76181 -3.79045,2.32213c-1.52989,0.76176 -2.74172,2.1049 -4.319,2.76293c-3.53326,1.47404 -10.46278,2.09683 -14.29145,0.61874c0.28185,0.45866 0.44153,0.9947 0.56161,1.51973c0.31241,1.36603 0.8233,2.6799 1.29387,3.99982c1.73552,4.86801 2.36921,8.8297 5.93569,12.8374c1.72215,1.94061 5.01937,5.30464 5.74382,7.82812c0.2688,0.93631 -0.01743,1.86814 -0.47303,2.78739c0.33633,0.29364 0.84615,0.93849 0.31552,1.86709c-0.51511,0.90144 -1.29762,0.82241 -1.73059,0.68832c-0.54176,1.11199 -0.78016,2.19225 0.04123,3.22486c2.12171,2.66732 8.34727,7.10979 11.97155,6.81098c0.31382,-0.02587 0.61756,-0.07806 0.91282,-0.15199c0.16037,-0.17877 0.36303,-0.31881 0.59225,-0.4044l1.5883,-0.63532l0.02884,0.07211c1.14629,-0.6904 2.20941,-1.56447 3.32214,-2.23468c0,0 1.28624,-0.77174 2.05798,0.5145c0.64118,1.06863 -0.13818,1.78212 -0.42024,1.99296c-0.09398,0.59598 -0.5986,0.94821 -0.77917,1.05667c3.44071,0.98005 7.16664,2.67686 7.23719,6.32852c0.01547,0.80098 -0.85066,1.3578 -1.27599,2.0367c-1.41769,1.36253 -0.35427,3.45558 -0.33184,5.63901c0.03978,3.87244 2.13241,11.39154 6.43839,12.76854c2.7032,0.86445 6.22727,1.85114 9.07437,1.54919c3.26196,-0.34595 5.79729,-2.81219 8.51614,-4.36037c2.40056,-1.36694 5.0389,-2.39321 7.47994,-3.70449c3.82043,-0.06294 5.98073,-1.60324 9.26498,-3.32334c1.81114,-0.94856 3.60949,-1.92674 5.46855,-2.77756c0.4317,-0.19758 1.01638,0.05022 1.40735,-0.21912c1.75431,-1.20856 3.22611,-4.42208 4.28546,-6.1846c0.46731,-0.77749 0.57549,-1.95729 1.40119,-2.33292c0.7785,-0.35416 1.65613,0.45043 2.50487,0.55596c2.71238,0.33725 5.35831,0.45546 8.0809,0.96808c0.92539,0.17424 1.94474,0.78091 2.79871,0.38413c2.42561,-1.12702 5.09768,-2.89251 7.50618,-4.23073c2.75788,-0.27214 5.24542,-1.17859 7.96001,-1.66486c2.58955,-0.46387 5.98306,0.1836 8.44332,-0.55777c1.62323,-0.48914 0.1194,-1.41643 0.39695,-2.45963c0.251,-0.94344 0.77144,-1.86971 1.50753,-2.511c2.03724,-1.77488 5.83604,-1.45066 8.04961,-3.19595c1.58999,-1.25362 2.63219,-6.09103 3.51413,-7.91784c0.00468,-0.0097 0.0205,-0.04007 0.04441,-0.08695c-0.59254,0.16785 -1.21613,0.40548 -1.89502,0.74648l-1.31912,0.15836c0,0 -1.5,0 -1.5,-1.5zM411.42102,207.52884c1.20669,-0.189 2.14997,-1.19593 3.31646,-1.55801c1.77843,-0.55203 5.36283,-1.47709 7.19449,-1.69222c2.94826,-0.34628 6.20691,-0.01063 9.17827,-0.01063c3.89432,0 7.31563,-0.085 10.83314,0.58677l0.06854,-0.41126l2.93486,0.48914c0.72302,0.1074 1.27772,0.73074 1.27772,1.48364c0,0.49013 -0.23508,0.92536 -0.59863,1.19908l-1.19373,0.91758l-0.02994,-0.03895l-0.08807,0.12098c-6.0309,3.03057 -11.82153,5.65699 -17.03141,9.9063c-0.16645,0.16666 -4.09184,4.09824 -4.21353,4.21561c-0.44493,0.42915 -0.89543,0.854 -1.37194,1.24779c-0.60565,0.50052 -2.62929,1.44204 -1.84402,1.46819c1.98739,0.0662 3.68589,0.98886 5.72699,1.21379c3.10799,0.34251 5.96766,0.33855 9.05546,1.03205c1.50348,0.33767 5.90386,0.43878 5.01341,3.87131c-0.38313,1.47692 -4.91103,1.47594 -5.68845,1.60768c-1.38388,0.23451 -2.85719,0.65422 -4.32838,0.95012c1.22504,0.45976 2.2437,0.95655 2.62686,1.46993c0.75436,1.01074 0.27318,2.50758 0.40977,3.76136c-3.49553,1.2174 -3.83399,5.94771 -7.9014,6.77678c-7.03005,1.43295 -14.51452,1.83949 -21.51868,3.23255c-1.50864,0.30005 -2.79536,1.39093 -4.3132,1.64031c-2.58993,0.42553 -2.931,0.08215 -5.0113,-0.73621c-0.76708,-0.30176 -2.91719,-1.39577 -3.83467,-0.94086c-0.73301,0.36345 -1.28442,1.01382 -1.92663,1.52074c-5.56907,3.34484 -11.44625,8.93143 -18.41015,8.27653c-0.33794,-0.03178 -4.41811,-1.4064 -4.67365,-1.57683c-0.86177,-0.57475 -0.9541,-2.13889 -1.95154,-2.41834c-1.57341,-0.44081 -3.25037,0.36416 -4.883,0.43089c-1.67175,0.06832 -3.31271,-0.48051 -4.9775,-0.6475c-2.47448,-0.24821 -6.35381,2.40343 -8.31443,3.70946c-7.19693,3.09407 -13.81592,6.4601 -20.38507,10.35244c-2.68779,1.59257 -5.41615,2.42911 -7.92398,4.41598c-5.24035,4.15176 -10.72149,9.9446 -17.85481,7.59658c-2.41747,-1.91172 -5.10182,-4.11086 -6.73899,-6.72292c-1.73415,-2.76679 -2.53883,-5.68853 -4.9311,-8.10213c-0.96788,-0.97651 -2.66072,-0.91216 -3.71217,-1.79806c-2.27788,-1.91925 -1.83478,-5.67626 -1.93142,-8.29984c-0.02012,-0.54617 0.39455,-1.54229 -0.14437,-1.63327c-2.09715,-0.35403 -9.23331,0.29462 -10.45274,-2.09734c-0.02505,-0.04914 1.77125,-4.09486 2.11485,-4.87176c-0.01533,-0.5468 0.19344,-1.14857 -0.046,-1.6404c-0.09899,-0.20333 -0.36197,0.31865 -0.5871,0.33999c-0.99554,0.09436 -2,0.00147 -3,0c-2.06598,-0.00304 -4.1428,-0.2381 -6.16008,-0.68402c-3.76755,-0.83281 -8.28845,-3.19087 -12.2316,-2.88402c-4.62653,0.36003 -8.66258,3.6907 -13.55346,3.23323c-1.34965,-0.12624 -2.43786,-1.18715 -3.67521,-1.74072c-1.80289,-0.80658 -4.12871,-1.3524 -6.06215,-1.90532c-2.79627,-0.95333 -4.33998,-0.4954 -7.14791,-0.89588c-3.90828,-0.55741 -7.53446,-2.2554 -10.69689,-4.46789c-1.92307,-1.34541 -4.4311,-2.04182 -3.84801,-5.129c0.3309,-1.75198 2.05378,-2.46175 3.32148,-3.24694c2.81019,-1.74058 5.90984,-2.90823 9.10418,-3.70637c0.74547,-0.18627 2.40027,-0.63456 3.71216,-0.6601c0.41077,-0.99731 0.60957,-2.18205 1.47405,-2.77818c0.9422,-0.64972 2.28288,-0.17891 3.41827,-0.32303c2.32968,-0.29573 4.78161,-0.72504 7.05341,-1.12342c1.65274,-0.28982 2.82969,-1.60054 4.12721,-1.97772c-0.46602,-0.44358 -0.93204,-0.88715 -1.39805,-1.33073c0.32959,-1.0138 0.31895,-2.21209 0.98876,-3.04141c1.88672,-2.33605 7.40298,-2.24722 9.98214,-2.53192c2.31328,-0.25535 4.98458,-0.74382 7.20837,-1.45055c0.91786,-0.2917 1.73557,-0.96405 2.69567,-1.03984c1.44984,-0.11445 4.77354,0.98356 6.20639,1.33871c3.54225,0.878 7.65436,1.38239 11.12856,2.69897c0.10395,-0.33769 0.127,-0.64475 0.02412,-0.89657c-0.892,-2.18338 -3.50723,-4.77689 -5.06535,-6.52322c-4.5309,-5.09334 -6.39902,-11.66261 -7.8932,-18.0821c-0.25611,-1.10034 -2.00588,-3.55559 -0.63119,-4.62372c0.35722,-0.27756 6.13749,-0.17347 7.10261,-0.16965c2.78953,0.01104 6.33713,0.24838 8.97214,-0.84774c1.53462,-0.63838 2.70443,-1.95767 4.18986,-2.70338c0.86742,-0.43546 2.18173,-0.41751 2.61154,-1.28774c0.29365,-0.59453 0.27277,-1.29783 0.40916,-1.94675c-0.00468,-0.59847 -0.03623,-3.41089 0.01583,-3.66603c0.45634,-2.23647 2.29282,-3.8315 3.13929,-5.9762c1.18194,-2.9947 1.30078,-6.54675 2.86069,-9.38589c1.67686,-3.052 4.19778,-3.99156 6.99681,-5.72423c5.30147,-3.28174 11.37654,-6.02021 16.99628,-8.82717c2.21071,-1.42999 4.40673,-2.83884 6.54373,-4.3775c0.88377,-0.63632 1.56145,-1.80845 2.64497,-1.91773c4.3712,-0.44086 4.37072,3.71572 5.96904,6.11423c1.3421,2.01403 3.44554,3.37239 4.13534,6.04648c0.39532,1.53249 0.51081,3.12555 0.67719,4.69944c0.04638,0.4388 -0.48038,0.93471 -0.2365,1.30243c0.23679,0.35703 2.36195,0.40783 2.66008,0.32882c2.70516,-0.71693 4.67252,-2.54508 7.63484,-2.61884c0.9001,-0.02241 2.06463,-0.33089 2.68152,0.32495c0.64422,0.6849 1.1825,3.80452 1.45267,5.22135c0.60816,1.25081 1.86167,2.07028 2.71209,3.17081c0.71184,0.9212 0.28162,2.47147 1.07574,3.32276c0.55267,0.59245 5.07978,0.814 5.6472,0.84849c2.83211,0.17217 5.51968,0.82062 7.85143,2.6248c2.91644,2.25659 1.93162,5.3699 1.72163,8.6045c-0.02205,0.33972 -0.38805,6.08557 -0.43312,6.26173c-0.69669,2.72339 -2.60653,5.40794 -3.70223,8.0066c-0.98496,2.33601 -1.24437,3.94983 -3.02205,5.71286c-1.15446,1.2484 2.00017,1.40062 2.97539,1.64542c3.47127,0.87136 7.08576,0.73183 10.52713,1.99219c4.46418,1.63494 10.40164,0.23318 15.12588,0.23263c0.75362,-0.00009 4.03182,-0.03739 4.47795,0.15836c1.18334,0.51921 1.7077,1.98021 2.7787,2.70329c2.45093,1.65474 5.18203,2.24067 7.81465,3.56935c1.15888,0.40329 2.65791,0.29592 3.47664,1.20988c0.20542,0.22931 0.35149,0.4953 0.45492,0.78409c0.94132,-0.06056 1.93146,-0.12817 3.0405,-0.30187zM263.17173,212.73629c-1.35496,-0.34186 -2.77128,-0.37251 -4.14418,-0.63313c-0.47742,-0.09063 -0.8348,-0.66478 -1.3188,-0.62134c-0.6815,0.06116 -1.19687,0.67822 -1.84241,0.90506c-2.33245,0.81958 -5.33123,1.29484 -7.77102,1.56766c-2.67848,0.29951 -6.03461,0.23763 -8.40951,1.78123c0.20283,0.03904 0.40567,0.07808 0.6085,0.11713l0.01555,-0.02592l1.59717,0.9583c0.44936,0.2591 0.75183,0.74442 0.75183,1.30038c0,0.67476 -0.44554,1.24546 -1.05847,1.43396l-0.93416,0.31139c-0.62431,0.53468 -1.25534,1.05881 -1.96026,1.47552c-2.4533,1.45028 -5.55308,1.54802 -8.23831,2.1322c-0.64591,0.14052 -2.308,0.62244 -3.69845,0.66689c0.0042,0.04573 0.00634,0.09205 0.00634,0.13887c0,0.49699 -0.2417,0.93752 -0.61397,1.21047l-1.28263,0.96197l-0.01968,-0.02624c-0.06845,0.05928 -0.1394,0.11597 -0.21319,0.16972c-1.40639,1.02449 -3.94561,0.69781 -5.47112,1.07941c-1.43265,0.35837 -2.79951,0.9541 -4.23475,1.30193c-1.44333,0.34978 -5.44705,1.89075 -6.03002,3.41413c-0.23203,0.60633 3.77009,2.98498 4.20783,3.26692c4.73867,3.05214 10.39614,2.04616 15.44786,3.69683c2.04058,0.58829 4.47545,1.18224 6.3981,2.032c0.97065,0.429 1.74859,1.43482 2.80777,1.50077c4.59939,0.28638 8.59092,-2.91142 13.02676,-3.24975c5.35037,-0.40809 10.57623,2.99051 15.80765,3.5722c1.90614,0.21194 3.83944,-0.12752 5.75367,-0.00896c0.83579,0.05177 1.97005,-0.31716 2.48907,0.33999c0.90722,1.14866 0.75379,2.82872 1.13069,4.24309c-0.36009,0.93512 -0.53019,1.96778 -1.08026,2.80536c-0.25804,0.39291 -1.39139,0.26305 -1.22308,0.70196c0.16823,0.43871 0.90914,-0.2606 1.37738,-0.29957c0.74723,-0.06219 1.50542,-0.09531 2.24944,-0.00228c2.62951,0.32877 5.88758,0.14641 7.09403,2.9616c0.83656,1.95207 0.03396,5.06547 0.33897,7.17832c0.12532,0.86807 4.04309,2.51143 4.46608,2.91365c2.66271,2.53193 3.63327,5.72839 5.44168,8.75362c1.26732,2.12007 3.65188,4.02601 5.57868,5.59474c5.29136,1.80328 10.74687,-4.30593 14.5601,-7.31428c3.97757,-3.13801 8.80979,-4.86589 13.11435,-7.23474c1.16317,-0.64011 1.94129,-1.92207 3.18121,-2.39672c4.19449,-1.60568 8.25159,-3.63018 12.44563,-5.42183c2.54153,-1.69574 6.62968,-4.21928 9.83792,-4.07012c1.59533,0.07417 3.15206,0.73158 4.74698,0.64909c1.16789,-0.0604 5.00692,-0.61247 6.13807,-0.21741c1.19219,0.41638 1.5356,2.06789 2.58654,2.76805c0.90656,0.60398 2.02065,0.92253 3.10593,1.01636c6.17209,0.5336 11.59685,-4.8037 16.55653,-7.7764c0.88429,-0.62509 1.64649,-1.47541 2.65288,-1.87527c3.22869,-1.28283 6.12183,2.16403 9.30638,1.56442c1.44633,-0.27233 2.67315,-1.30447 4.11467,-1.60118c1.6155,-0.33252 3.31372,-0.04417 4.93645,-0.33943c5.55241,-1.01026 10.99396,-2.08509 16.57451,-2.89131c3.25388,-0.47008 2.89219,-5.66442 6.1192,-5.56058c-2.0851,-1.12262 -4.86136,-1.53126 -7.10133,-2.51017c-0.44811,0 -1.38864,0 -1.38864,0c-0.82843,0 -1.5,-0.67157 -1.5,-1.5c0,-0.73733 0.53199,-1.3504 1.23307,-1.47632l2.91449,-0.5829l0.09354,0.46772c2.59254,-0.80585 5.18348,-1.19863 8.04247,-1.67166c-0.71461,-0.19673 -1.25077,-0.36595 -1.32697,-0.37788c-3.87691,-0.60725 -7.36548,-0.4594 -11.15378,-1.72057c-0.7554,-0.25148 -1.79534,-0.07801 -2.28084,-0.70901c-0.65542,-0.85185 -1.02998,-2.13103 -0.68838,-3.15011c0.39666,-1.18333 1.74232,-1.78775 2.6357,-2.65922c1.86594,-1.82017 3.74538,-3.62502 5.59145,-5.46883c4.48585,-3.66823 9.34701,-6.19905 14.45443,-8.73799c-3.77372,0.36702 -8.13,-0.29005 -11.61488,-0.29005c-4.27761,0 -8.31496,0.29607 -12.39386,1.53864c-1.32959,0.40504 -2.44545,1.44532 -3.81482,1.68348c-1.25317,0.21795 -2.31418,0.25389 -3.31787,0.29454c-0.10674,0.61382 -0.48442,1.18042 -0.74043,1.75666c-1.10529,2.48779 -2.1945,7.17496 -4.26545,8.93791c-2.41571,2.05645 -5.62015,1.79747 -8.15784,3.28704c-1.03277,0.60621 0.10098,2.30152 -0.15845,2.85334c-0.50386,1.07176 -1.45278,1.95108 -2.47516,2.5488c-1.22741,0.71759 -4.941,0.35215 -6.32576,0.43603c-3.5499,0.21505 -6.8023,1.64237 -10.33412,1.87943c-2.6442,1.56368 -6.60635,4.46191 -9.64565,4.27659c-3.05237,-0.18611 -7.29587,-0.57464 -10.21815,-1.32043c-0.33738,-0.0861 -0.4001,-0.83005 -0.73662,-0.74064c-0.29463,0.07829 0.22287,0.62759 0.10459,0.90857c-0.41293,0.98098 -1.05092,1.85323 -1.64022,2.73954c-0.52528,0.79002 -3.03062,4.14664 -3.7988,4.69013c-0.51258,0.36265 -1.26403,0.16608 -1.83414,0.42918c-1.76164,0.81294 -3.46514,1.74671 -5.18382,2.6469c-3.355,1.75724 -5.94233,3.64842 -9.90436,3.56986c-2.20332,1.27526 -4.58481,2.17206 -6.78262,3.42679c-3.81339,2.17708 -7.16111,5.20688 -11.8807,4.71883c-2.98359,-0.30853 -7.51419,-0.77934 -10.09135,-2.51072c-3.20023,-2.14997 -5.59444,-7.84274 -6.39404,-11.44337c-0.47386,-2.13381 0.15801,-3.97019 -0.09565,-6.08939c-0.10076,-0.84184 -0.80965,-1.62915 -0.64402,-2.46067c0.18062,-0.90677 1.05818,-1.51647 1.58726,-2.2747c2.37523,-1.97607 -5.88093,-4.04366 -7.30405,-4.37271l-0.80082,-0.00807c-0.80497,0.33441 -1.66428,0.56837 -2.61803,0.63818c-4.47771,0.32772 -9.24776,-3.52131 -12.38583,-6.2163c-0.73678,-0.63275 -1.66481,-1.08871 -2.22285,-1.88358c-0.76609,-1.09123 -1.22477,-3.47244 -0.86012,-4.81919c0.08365,-0.30895 0.37638,-0.76255 0.72715,-1.27828c-3.20962,-1.16801 -7.15921,-1.57361 -10.33191,-2.37408z" fill="#000000" stroke="none" stroke-width="0.5"/><path d="M263.12686,212.71417c3.1727,0.80047 7.12327,1.20419 10.33289,2.3722c-0.35077,0.51573 -0.55522,1.0163 -0.63887,1.32525c-0.36465,1.34675 0.09554,3.72477 0.86163,4.816c0.55804,0.79487 1.48639,1.25008 2.22317,1.88283c3.13807,2.69499 7.81511,6.50732 12.29282,6.1796c0.95375,-0.06981 1.81384,-0.30571 2.61881,-0.64012l0.80099,0.00767c1.42312,0.32905 9.77164,2.43493 7.39641,4.411c-0.52908,0.75823 -1.4051,1.36336 -1.58572,2.27013c-0.16563,0.83152 0.54422,1.61485 0.64498,2.45669c0.25366,2.1192 -0.37729,3.94418 0.09657,6.07799c0.7996,3.60063 3.18627,9.26866 6.3865,11.41863c2.57716,1.73138 7.09268,2.18679 10.07627,2.49532c4.71959,0.48805 8.02947,-2.54878 11.84286,-4.72586c2.19781,-1.25473 4.54977,-2.13262 6.75309,-3.40788c3.96203,0.07856 6.54006,-1.79085 9.89506,-3.54809c1.71868,-0.90019 3.42151,-1.82677 5.18315,-2.63971c0.57011,-0.2631 1.32155,-0.06563 1.83413,-0.42828c0.76818,-0.54349 3.27412,-3.89229 3.7994,-4.68231c0.5893,-0.88631 1.22802,-1.75481 1.64095,-2.73579c0.11828,-0.28098 -0.30222,-0.85454 -0.00759,-0.93283c0.33652,-0.08941 0.39957,0.65588 0.73695,0.74198c2.92228,0.74579 7.16658,1.13851 10.21895,1.32462c3.0393,0.18532 6.90298,-2.6957 9.54718,-4.25938c3.53182,-0.23706 6.88226,-1.68406 10.43216,-1.89911c1.38476,-0.08388 5.00016,0.30051 6.22757,-0.41708c1.02238,-0.59772 1.97158,-1.47566 2.47544,-2.54742c0.25943,-0.55182 -0.87389,-2.2453 0.15888,-2.85151c2.53769,-1.48957 5.74231,-1.22991 8.15802,-3.28636c2.07095,-1.76295 3.16144,-6.44609 4.26673,-8.93388c0.25601,-0.57624 0.63396,-1.14211 0.7407,-1.75593c1.00369,-0.04065 2.15829,-0.11182 3.41146,-0.32977c1.36937,-0.23816 2.48518,-1.27856 3.81477,-1.6836c4.0789,-1.24257 8.1167,-1.5374 12.39431,-1.5374c3.48488,0 7.84168,0.65867 11.6154,0.29165c-5.10742,2.53894 -9.96804,5.07165 -14.45389,8.73988c-1.84607,1.84381 -3.72504,3.65058 -5.59098,5.47075c-0.89338,0.87147 -2.23882,1.47694 -2.63548,2.66027c-0.3416,1.01908 0.03327,2.29994 0.68869,3.15179c0.4855,0.631 1.52553,0.45808 2.28093,0.70956c3.7883,1.26117 7.27708,1.11488 11.15399,1.72213c0.0762,0.01193 0.61239,0.18139 1.327,0.37812c-2.85899,0.47303 -5.44989,0.86617 -8.04243,1.67202l-0.19292,-0.45664l-2.81512,0.57172c-0.70108,0.12592 -1.233,0.73968 -1.233,1.47701c0,0.82843 0.67164,1.50084 1.50007,1.50084c0,0 0.94053,0.00006 1.38864,0.00006c2.23997,0.97891 5.01632,1.38899 7.10142,2.51161c-3.22701,-0.10384 -2.86526,5.09313 -6.11914,5.56321c-5.58055,0.80622 -11.02214,1.88281 -16.57455,2.89307c-1.62273,0.29526 -3.32096,0.00724 -4.93646,0.33976c-1.44152,0.29671 -2.66841,1.33005 -4.11474,1.60238c-3.18455,0.59961 -6.07765,-2.84796 -9.30634,-1.56513c-1.00639,0.39986 -1.7687,1.25179 -2.65299,1.87688c-4.95968,2.9727 -10.38621,8.31954 -16.5583,7.78594c-1.08528,-0.09383 -2.29549,-0.43997 -3.20205,-1.04395c-1.05094,-0.70016 -1.39495,-2.34937 -2.58714,-2.76575c-1.13115,-0.39506 -4.8734,0.18209 -6.04129,0.24249c-1.59492,0.08249 -3.15196,-0.57386 -4.74729,-0.64803c-3.20824,-0.14916 -7.30278,2.38771 -9.84431,4.08345c-4.19404,1.79165 -8.27531,3.83505 -12.4698,5.44073c-1.23992,0.47465 -2.02679,1.75895 -3.18996,2.39906c-4.30456,2.36885 -9.16133,4.0948 -13.1389,7.23281c-3.81323,3.00835 -9.2808,9.11154 -14.57216,7.30826c-1.9268,-1.56873 -4.31851,-3.48057 -5.58583,-5.60064c-1.80841,-3.02523 -2.78658,-6.23142 -5.44929,-8.76335c-0.42299,-0.40222 -4.34333,-2.05046 -4.46865,-2.91853c-0.30501,-2.11285 0.49483,-5.23385 -0.34173,-7.18592c-1.20645,-2.81519 -4.46559,-2.63768 -7.0951,-2.96645c-0.74402,-0.09303 -1.40356,-0.07627 -2.15079,-0.01408c-0.46824,0.03897 -1.30785,0.75435 -1.47608,0.31564c-0.16831,-0.43891 0.96496,-0.30954 1.223,-0.70245c0.55007,-0.83758 0.71983,-1.87291 1.07992,-2.80803c-0.3769,-1.41437 -0.22371,-3.09881 -1.13093,-4.24747c-0.51902,-0.65715 -1.55328,-0.28894 -2.38907,-0.34071c-1.91423,-0.11856 -3.94753,0.22126 -5.85367,0.00932c-5.23142,-0.58169 -10.35733,-3.97817 -15.7077,-3.57008c-4.43584,0.33833 -8.42732,3.53391 -13.02671,3.24753c-1.05918,-0.06595 -1.93711,-1.07275 -2.90776,-1.50175c-1.92265,-0.84976 -4.35749,-1.44471 -6.39807,-2.033c-5.05172,-1.65067 -10.70912,-0.64608 -15.44779,-3.69822c-0.43774,-0.28194 -4.43976,-2.66187 -4.20773,-3.2682c0.58297,-1.52338 4.58689,-3.06613 6.03022,-3.41591c1.43524,-0.34783 2.80222,-0.94441 4.23487,-1.30278c1.52551,-0.3816 4.06487,-0.05583 5.47126,-1.08032c0.07379,-0.05375 0.14476,-0.11054 0.21321,-0.16982l0.01968,0.02625l1.28273,-0.96254c0.37227,-0.27295 0.61409,-0.71412 0.61409,-1.21111c0,-0.04682 -0.00213,-0.09321 -0.00633,-0.13894c1.39045,-0.04445 3.05268,-0.52706 3.69859,-0.66758c2.68523,-0.58418 5.78549,-0.684 8.23879,-2.13428c0.70492,-0.41671 1.33623,-0.9419 1.96054,-1.47658l0.93425,-0.3117c0.61293,-0.1885 1.05875,-0.76014 1.05875,-1.4349c0,-0.55596 -0.30229,-1.04185 -0.75165,-1.30095l-1.5971,-0.95853l0.07961,0.05666c-0.20283,-0.03905 -0.50085,-0.10877 -0.70368,-0.14781c2.3749,-1.5436 5.7319,-1.48419 8.41038,-1.7837c2.43979,-0.27282 5.43965,-0.75069 7.7721,-1.57027c0.64554,-0.22684 1.16136,-0.84487 1.84286,-0.90603c0.484,-0.04344 0.84138,0.53071 1.3188,0.62134c1.3729,0.26062 2.7896,0.29048 4.14456,0.63234z" data-paper-data="{&quot;noHover&quot;:false,&quot;origItem&quot;:[&quot;Path&quot;,{&quot;applyMatrix&quot;:true,&quot;segments&quot;:[[[263.17173,212.73629],[0,0],[-1.35496,-0.34186]],[[259.02755,212.10316],[1.3729,0.26062],[-0.47742,-0.09063]],[[257.70875,211.48182],[0.484,-0.04344],[-0.6815,0.06116]],[[255.86634,212.38688],[0.64554,-0.22684],[-2.33245,0.81958]],[[248.09532,213.95454],[2.43979,-0.27282],[-2.67848,0.29951]],[[239.68581,215.73577],[2.3749,-1.5436],[0.20283,0.03904]],[[240.29431,215.8529],[-0.20283,-0.03905],[0,0]],[240.30986,215.82698],[[241.90703,216.78528],[0,0],[0.44936,0.2591]],[[242.65886,218.08566],[0,-0.55596],[0,0.67476]],[[241.60039,219.51962],[0.61293,-0.1885],[0,0]],[[240.66623,219.83101],[0,0],[-0.62431,0.53468]],[[238.70597,221.30653],[0.70492,-0.41671],[-2.4533,1.45028]],[[230.46766,223.43873],[2.68523,-0.58418],[-0.64591,0.14052]],[[226.76921,224.10562],[1.39045,-0.04445],[0.0042,0.04573]],[[226.77555,224.24449],[0,-0.04682],[0,0.49699]],[[226.16158,225.45496],[0.37227,-0.27295],[0,0]],[224.87895,226.41693],[[224.85927,226.39069],[0,0],[-0.06845,0.05928]],[[224.64608,226.56041],[0.07379,-0.05375],[-1.40639,1.02449]],[[219.17496,227.63982],[1.52551,-0.3816],[-1.43265,0.35837]],[[214.94021,228.94175],[1.43524,-0.34783],[-1.44333,0.34978]],[[208.91019,232.35588],[0.58297,-1.52338],[-0.23203,0.60633]],[[213.11802,235.6228],[-0.43774,-0.28194],[4.73867,3.05214]],[[228.56588,239.31963],[-5.05172,-1.65067],[2.04058,0.58829]],[[234.96398,241.35163],[-1.92265,-0.84976],[0.97065,0.429]],[[237.77175,242.8524],[-1.05918,-0.06595],[4.59939,0.28638]],[[250.79851,239.60265],[-4.43584,0.33833],[5.35037,-0.40809]],[[266.60616,243.17485],[-5.23142,-0.58169],[1.90614,0.21194]],[[272.35983,243.16589],[-1.91423,-0.11856],[0.83579,0.05177]],[[274.8489,243.50588],[-0.51902,-0.65715],[0.90722,1.14866]],[[275.97959,247.74897],[-0.3769,-1.41437],[-0.36009,0.93512]],[[274.89933,250.55433],[0.55007,-0.83758],[-0.25804,0.39291]],[[273.67625,251.25629],[-0.16831,-0.43891],[0.16823,0.43871]],[[275.05363,250.95672],[-0.46824,0.03897],[0.74723,-0.06219]],[[277.30307,250.95444],[-0.74402,-0.09303],[2.62951,0.32877]],[[284.3971,253.91604],[-1.20645,-2.81519],[0.83656,1.95207]],[[284.73607,261.09436],[-0.30501,-2.11285],[0.12532,0.86807]],[[289.20215,264.00801],[-0.42299,-0.40222],[2.66271,2.53193]],[[294.64383,272.76163],[-1.80841,-3.02523],[1.26732,2.12007]],[[300.22251,278.35637],[-1.9268,-1.56873],[5.29136,1.80328]],[[314.78261,271.04209],[-3.81323,3.00835],[3.97757,-3.13801]],[[327.89696,263.80735],[-4.30456,2.36885],[1.16317,-0.64011]],[[331.07817,261.41063],[-1.23992,0.47465],[4.19449,-1.60568]],[[343.5238,255.9888],[-4.19404,1.79165],[2.54153,-1.69574]],[[353.36172,251.91868],[-3.20824,-0.14916],[1.59533,0.07417]],[[358.1087,252.56777],[-1.59492,0.08249],[1.16789,-0.0604]],[[364.24677,252.35036],[-1.13115,-0.39506],[1.19219,0.41638]],[[366.83331,255.11841],[-1.05094,-0.70016],[0.90656,0.60398]],[[369.93924,256.13477],[-1.08528,-0.09383],[6.17209,0.5336]],[[386.49577,248.35837],[-4.95968,2.9727],[0.88429,-0.62509]],[[389.14865,246.4831],[-1.00639,0.39986],[3.22869,-1.28283]],[[398.45503,248.04752],[-3.18455,0.59961],[1.44633,-0.27233]],[[402.5697,246.44634],[-1.44152,0.29671],[1.6155,-0.33252]],[[407.50615,246.10691],[-1.62273,0.29526],[5.55241,-1.01026]],[[424.08066,243.2156],[-5.58055,0.80622],[3.25388,-0.47008]],[[430.19986,237.65502],[-3.22701,-0.10384],[-2.0851,-1.12262]],[[423.09853,235.14485],[2.23997,0.97891],[-0.44811,0]],[[421.70989,235.14485],[0,0],[-0.82843,0]],[[420.20989,233.64485],[0,0.82843],[0,-0.73733]],[[421.44296,232.16853],[-0.70108,0.12592],[0,0]],[424.35745,231.58563],[[424.45099,232.05335],[0,0],[2.59254,-0.80585]],[[432.49346,230.38169],[-2.85899,0.47303],[-0.71461,-0.19673]],[[431.16649,230.00381],[0.0762,0.01193],[-3.87691,-0.60725]],[[420.01271,228.28324],[3.7883,1.26117],[-0.7554,-0.25148]],[[417.73187,227.57423],[0.4855,0.631],[-0.65542,-0.85185]],[[417.04349,224.42412],[-0.3416,1.01908],[0.39666,-1.18333]],[[419.67919,221.7649],[-0.89338,0.87147],[1.86594,-1.82017]],[[425.27064,216.29607],[-1.84607,1.84381],[4.48585,-3.66823]],[[439.72507,207.55808],[-5.10742,2.53894],[-3.77372,0.36702]],[[428.11019,207.26803],[3.48488,0],[-4.27761,0]],[[415.71633,208.80667],[4.0789,-1.24257],[-1.32959,0.40504]],[[411.90151,210.49015],[1.36937,-0.23816],[-1.25317,0.21795]],[[408.58364,210.78469],[1.00369,-0.04065],[-0.10674,0.61382]],[[407.84321,212.54135],[0.25601,-0.57624],[-1.10529,2.48779]],[[403.57776,221.47926],[2.07095,-1.76295],[-2.41571,2.05645]],[[395.41992,224.7663],[2.53769,-1.48957],[-1.03277,0.60621]],[[395.26147,227.61964],[0.25943,-0.55182],[-0.50386,1.07176]],[[392.78631,230.16844],[1.02238,-0.59772],[-1.22741,0.71759]],[[386.46055,230.60447],[1.38476,-0.08388],[-3.5499,0.21505]],[[376.12643,232.4839],[3.53182,-0.23706],[-2.6442,1.56368]],[[366.48078,236.76049],[3.0393,0.18532],[-3.05237,-0.18611]],[[356.26263,235.44006],[2.92228,0.74579],[-0.33738,-0.0861]],[[355.52601,234.69942],[0.33652,-0.08941],[-0.29463,0.07829]],[[355.6306,235.60799],[0.11828,-0.28098],[-0.41293,0.98098]],[[353.99038,238.34753],[0.5893,-0.88631],[-0.52528,0.79002]],[[350.19158,243.03766],[0.76818,-0.54349],[-0.51258,0.36265]],[[348.35744,243.46684],[0.57011,-0.2631],[-1.76164,0.81294]],[[343.17362,246.11374],[1.71868,-0.90019],[-3.355,1.75724]],[[333.26926,249.6836],[3.96203,0.07856],[-2.20332,1.27526]],[[326.48664,253.11039],[2.19781,-1.25473],[-3.81339,2.17708]],[[314.60594,257.82922],[4.71959,0.48805],[-2.98359,-0.30853]],[[304.51459,255.3185],[2.57716,1.73138],[-3.20023,-2.14997]],[[298.12055,243.87513],[0.7996,3.60063],[-0.47386,-2.13381]],[[298.0249,237.78574],[0.25366,2.1192],[-0.10076,-0.84184]],[[297.38088,235.32507],[-0.16563,0.83152],[0.18062,-0.90677]],[[298.96814,233.05037],[-0.52908,0.75823],[2.37523,-1.97607]],[[291.66409,228.67766],[1.42312,0.32905],[0,0]],[[290.86327,228.66959],[0,0],[-0.80497,0.33441]],[[288.24524,229.30777],[0.95375,-0.06981],[-4.47771,0.32772]],[[275.85941,223.09147],[3.13807,2.69499],[-0.73678,-0.63275]],[[273.63656,221.20789],[0.55804,0.79487],[-0.76609,-1.09123]],[[272.77644,216.3887],[-0.36465,1.34675],[0.08365,-0.30895]],[[273.50359,215.11042],[-0.35077,0.51573],[-3.20962,-1.16801]],[[263.17168,212.73634],[3.1727,0.80047],[0,0]]],&quot;closed&quot;:true,&quot;fillColor&quot;:[0,0,0,1],&quot;strokeWidth&quot;:0.5}]}" fill="#f7ee6f" stroke="none" stroke-width="0.25"/><path d="M400.48573,210.64061c0,1.5 1.40236,1.47843 1.40236,1.47843l1.31905,-0.15805c0.67889,-0.341 1.30231,-0.57785 1.89485,-0.7457c-0.02391,0.04688 0.05819,0.09753 0.05351,0.10723c-0.88194,1.82681 -1.92572,6.67003 -3.51571,7.92365c-2.21357,1.74529 -6.01395,1.42515 -8.05119,3.20003c-0.73609,0.64129 -1.25749,1.56962 -1.50849,2.51306c-0.27755,1.0432 1.22543,1.97213 -0.3978,2.46127c-2.46026,0.74137 -5.85576,0.09726 -8.44531,0.56113c-2.71459,0.48627 -5.20536,1.39716 -7.96324,1.6693c-2.4085,1.33822 -5.08618,3.10956 -7.51179,4.23658c-0.85397,0.39678 -1.87479,-0.20863 -2.80018,-0.38287c-2.72259,-0.51262 -5.37399,-0.62693 -8.08637,-0.96418c-0.84874,-0.10553 -1.72834,-0.90897 -2.50684,-0.55481c-0.8257,0.37563 -0.93639,1.55673 -1.4037,2.33422c-1.05935,1.76252 -2.5378,4.97868 -4.29211,6.18724c-0.39097,0.26934 -0.97713,0.02198 -1.40883,0.21956c-1.85906,0.85082 -3.66365,1.83034 -5.47479,2.7789c-3.28425,1.7201 -5.45421,3.2609 -9.27464,3.32384c-2.44104,1.31128 -5.08604,2.3368 -7.4866,3.70374c-2.71885,1.54818 -5.26025,4.01292 -8.52221,4.35887c-2.8471,0.30195 -6.37793,-0.68742 -9.08113,-1.55187c-4.30598,-1.377 -6.40738,-8.90152 -6.44716,-12.77396c-0.02243,-2.18343 -1.08827,-4.27847 0.32942,-5.641c0.42533,-0.6789 1.29116,-1.23598 1.27569,-2.03696c-0.07055,-3.65166 -3.80311,-5.35565 -7.24382,-6.3357c0.18057,-0.10846 0.68496,-0.461 0.77894,-1.05698c0.28206,-0.21084 1.06057,-0.9255 0.41939,-1.99413c-0.77174,-1.28624 -2.05891,-0.51588 -2.05891,-0.51588c-1.11273,0.67021 -2.17582,1.54433 -3.32211,2.23473l-0.02888,-0.07217l-1.58847,0.63506c-0.22922,0.08559 -0.43187,0.22565 -0.59224,0.40442c-0.29526,0.07393 -0.59918,0.12584 -0.913,0.15171c-3.62428,0.29881 -9.85422,-4.15232 -11.97593,-6.81964c-0.82139,-1.03261 -0.58382,-2.11517 -0.04206,-3.22716c0.43297,0.13409 1.21545,0.21304 1.73056,-0.6884c0.53063,-0.9286 0.02034,-1.57494 -0.31599,-1.86858c0.4556,-0.91925 0.74126,-1.85317 0.47246,-2.78948c-0.72445,-2.52348 -4.02291,-5.89457 -5.74506,-7.83518c-3.56648,-4.0077 -4.20021,-7.97915 -5.93573,-12.84716c-0.47057,-1.31992 -0.98113,-2.63651 -1.29354,-4.00254c-0.12008,-0.52503 -0.2796,-1.06205 -0.56145,-1.52071c3.82867,1.47809 10.75869,0.85274 14.29195,-0.6213c1.57728,-0.65803 2.78996,-2.00444 4.31985,-2.7662c1.12533,-0.56032 3.08718,-1.09495 3.79147,-2.3252c0.55627,-0.9717 0.59284,-2.16277 0.88865,-3.24265c0.00719,-1.15507 -0.18163,-2.32499 -0.01454,-3.46794c0.14153,-0.96808 1.23065,-1.53371 1.72555,-2.37768c0.55672,-0.94939 0.84359,-2.0364 1.25627,-3.05668c1.14551,-2.83212 1.19749,-6.38122 2.6955,-9.0365c1.43879,-2.55031 3.61727,-3.19936 5.97404,-4.6531c5.27726,-3.25521 11.32166,-5.9782 16.91027,-8.77534c2.27911,-1.46937 4.80936,-2.86588 6.89705,-4.61045c0.46479,-0.3884 0.66461,-1.15429 1.24605,-1.324c1.5876,-0.46338 2.91829,4.62034 3.10915,4.90652c1.1298,1.69406 3.10355,2.70472 3.64725,4.97427c0.37717,1.57441 -0.14713,5.74369 0.8563,6.96406c2.27066,2.76158 5.78794,1.65577 8.34541,0.54935c0.86248,-0.37313 1.67865,-0.8703 2.57402,-1.15563c0.68754,-0.2191 1.43917,-0.1701 2.13954,-0.3439c0.20946,-0.05198 0.48171,-0.52573 0.56049,-0.32482c0.47289,1.20598 0.23077,2.58693 0.49393,3.85529c0.76218,1.49843 2.05003,2.67203 3.12774,3.96228c0.87605,1.04882 0.54163,2.85737 1.52118,3.81025c0.5546,0.53949 1.49214,0.42222 2.23127,0.65095c3.44387,1.06574 6.64271,0.58944 9.8625,2.21345c0.84479,0.4261 2.23322,0.53528 2.43873,1.45886c0.38597,1.7346 -0.18698,3.55308 -0.30257,5.32633c-0.1241,1.90376 0.13044,3.87034 -0.34238,5.71863c-0.65579,2.56352 -2.52075,5.137 -3.55367,7.58612c-1.0475,2.48368 -1.02095,3.51289 -2.81078,5.31707c-0.25271,1.10251 -1.25447,2.29835 -0.75782,3.31458c0.55277,1.13106 4.12322,2.47283 5.56199,2.83136c6.68469,1.66578 13.63361,2.83941 20.52078,2.45679c1.91645,-0.10647 3.83661,-0.1549 5.75601,-0.15467c1.04677,0.00012 2.28366,-0.58329 3.23581,-0.14838c1.04869,0.47901 1.45368,1.83729 2.40748,2.48494c2.67603,1.81708 5.5833,2.46435 8.44579,3.9066c0.01956,0.00333 0.03919,0.00646 0.0589,0.00942c-0.4833,0.17045 -0.98482,0.38192 -1.51248,0.64466l0.02254,-0.15848c0,0 -1.50025,0.00128 -1.50025,1.50128z" data-paper-data="{&quot;noHover&quot;:false,&quot;origItem&quot;:[&quot;Path&quot;,{&quot;applyMatrix&quot;:true,&quot;segments&quot;:[[[400.43682,210.63022],[0,0],[0,-1.5]],[401.93682,209.13022],[[401.9143,209.28858],[0,0],[0.52766,-0.26274]],[[403.42666,208.64456],[-0.4833,0.17045],[-0.01971,-0.00296]],[[403.36776,208.63514],[0.01956,0.00333],[-2.86249,-1.44225]],[[394.92167,204.73049],[2.67603,1.81708],[-0.9538,-0.64765]],[[392.51398,202.24739],[1.04869,0.47901],[-0.95215,-0.43491]],[[389.37767,202.40575],[1.04677,0.00012],[-1.9194,-0.00023]],[[383.62157,202.56118],[1.91645,-0.10647],[-6.88717,0.38262]],[[363.0015,200.09247],[6.68469,1.66578],[-1.43877,-0.35853]],[[357.43917,197.26583],[0.55277,1.13106],[-0.49665,-1.01623]],[[358.19731,193.95831],[-0.25271,1.10251],[1.78983,-1.80418]],[[361.00995,188.6501],[-1.0475,2.48368],[1.03292,-2.44912]],[[364.56714,181.07254],[-0.65579,2.56352],[0.47282,-1.84829]],[[364.91299,175.35958],[-0.1241,1.90376],[0.11559,-1.77325]],[[365.21875,170.0373],[0.38597,1.7346],[-0.20551,-0.92358]],[[362.78235,168.58092],[0.84479,0.4261],[-3.21979,-1.62401]],[[352.92946,166.37494],[3.44387,1.06574],[-0.73913,-0.22873]],[[350.70101,165.72556],[0.5546,0.53949],[-0.97955,-0.95288]],[[349.18356,161.91704],[0.87605,1.04882],[-1.07771,-1.29025]],[[346.06097,157.95657],[0.76218,1.49843],[-0.26316,-1.26836]],[[345.56874,154.10174],[0.47289,1.20598],[-0.07878,-0.20091]],[[345.00877,154.42669],[0.20946,-0.05198],[-0.70037,0.1738]],[[342.87151,154.77109],[0.68754,-0.2191],[-0.89537,0.28533]],[[340.30026,155.92717],[0.86248,-0.37313],[-2.55747,1.10642]],[[331.96496,155.37816],[2.27066,2.76158],[-1.00343,-1.22037]],[[331.10905,148.41407],[0.37717,1.57441],[-0.5437,-2.26955]],[[327.46481,143.43948],[1.1298,1.69406],[-0.19086,-0.28618]],[[324.35767,138.53264],[1.5876,-0.46338],[-0.58144,0.16971]],[[323.11285,139.8564],[0.46479,-0.3884],[-2.08769,1.74457]],[[316.22249,144.46499],[2.27911,-1.46937],[-5.58861,2.79714]],[[299.32708,153.23196],[5.27726,-3.25521],[-2.35677,1.45374]],[[293.35792,157.8805],[1.43879,-2.55031],[-1.49801,2.65528]],[[290.66737,166.91079],[1.14551,-2.83212],[-0.41268,1.02028]],[[289.41274,169.96487],[0.55672,-0.94939],[-0.4949,0.84397]],[[287.68852,172.34014],[0.14153,-0.96808],[-0.16709,1.14295]],[[287.70435,175.80539],[0.00719,-1.15507],[-0.29581,1.07988]],[[286.81692,179.04503],[0.55627,-0.9717],[-0.70429,1.23025]],[[283.02647,181.36716],[1.12533,-0.56032],[-1.52989,0.76176]],[[278.70747,184.13009],[1.57728,-0.65803],[-3.53326,1.47404]],[[264.41602,184.74883],[3.82867,1.47809],[0.28185,0.45866]],[[264.97763,186.26856],[-0.12008,-0.52503],[0.31241,1.36603]],[[266.2715,190.26838],[-0.47057,-1.31992],[1.73552,4.86801]],[[272.20719,203.10578],[-3.56648,-4.0077],[1.72215,1.94061]],[[277.95101,210.9339],[-0.72445,-2.52348],[0.2688,0.93631]],[[277.47798,213.72129],[0.4556,-0.91925],[0.33633,0.29364]],[[277.7935,215.58838],[0.53063,-0.9286],[-0.51511,0.90144]],[[276.06291,216.2767],[0.43297,0.13409],[-0.54176,1.11199]],[[276.10414,219.50156],[-0.82139,-1.03261],[2.12171,2.66732]],[[288.07569,226.31254],[-3.62428,0.29881],[0.31382,-0.02587]],[[288.98851,226.16055],[-0.29526,0.07393],[0.16037,-0.17877]],[[289.58076,225.75615],[-0.22922,0.08559],[0,0]],[291.16906,225.12083],[[291.1979,225.19294],[0,0],[1.14629,-0.6904]],[[294.52004,222.95826],[-1.11273,0.67021],[0,0]],[[296.57802,223.47276],[-0.77174,-1.28624],[0.64118,1.06863]],[[296.15778,225.46572],[0.28206,-0.21084],[-0.09398,0.59598]],[[295.37861,226.52239],[0.18057,-0.10846],[3.44071,0.98005]],[[302.6158,232.85091],[-0.07055,-3.65166],[0.01547,0.80098]],[[301.33981,234.88761],[0.42533,-0.6789],[-1.41769,1.36253]],[[301.00797,240.52662],[-0.02243,-2.18343],[0.03978,3.87244]],[[307.44636,253.29516],[-4.30598,-1.377],[2.7032,0.86445]],[[316.52073,254.84435],[-2.8471,0.30195],[3.26196,-0.34595]],[[325.03687,250.48398],[-2.71885,1.54818],[2.40056,-1.36694]],[[332.51681,246.77949],[-2.44104,1.31128],[3.82043,-0.06294]],[[341.78179,243.45615],[-3.28425,1.7201],[1.81114,-0.94856]],[[347.25034,240.67859],[-1.85906,0.85082],[0.4317,-0.19758]],[[348.65769,240.45947],[-0.39097,0.26934],[1.75431,-1.20856]],[[352.94315,234.27487],[-1.05935,1.76252],[0.46731,-0.77749]],[[354.34434,231.94195],[-0.8257,0.37563],[0.7785,-0.35416]],[[356.84921,232.49791],[-0.84874,-0.10553],[2.71238,0.33725]],[[364.93011,233.46599],[-2.72259,-0.51262],[0.92539,0.17424]],[[367.72882,233.85012],[-0.85397,0.39678],[2.42561,-1.12702]],[[375.235,229.61939],[-2.4085,1.33822],[2.75788,-0.27214]],[[383.19501,227.95453],[-2.71459,0.48627],[2.58955,-0.46387]],[[391.63833,227.39676],[-2.46026,0.74137],[1.62323,-0.48914]],[[392.03528,224.93713],[-0.27755,1.0432],[0.251,-0.94344]],[[393.54281,222.42613],[-0.73609,0.64129],[2.03724,-1.77488]],[[401.59242,219.23018],[-2.21357,1.74529],[1.58999,-1.25362]],[[405.10655,211.31234],[-0.88194,1.82681],[0.00468,-0.0097]],[[405.15096,211.22539],[-0.02391,0.04688],[-0.59254,0.16785]],[[403.25594,211.97187],[0.67889,-0.341],[0,0]],[401.93682,212.13023],[[400.43682,210.63023],[0,1.5],[0,0]]],&quot;closed&quot;:true,&quot;fillColor&quot;:[0,0,0,1],&quot;strokeWidth&quot;:0.5}]}" fill="#ffffe7" stroke="none" stroke-width="0.25"/><path d="M156.65801,321.58484v-277.04485h324.53826v277.04486z" fill="none" stroke="#000000" stroke-width="0"/></g></g></svg>