<svg version="1.1" xmlns="http://www.w3.org/2000/svg" xmlns:xlink="http://www.w3.org/1999/xlink" width="324.53826" height="277.04486" viewBox="0,0,324.53826,277.04486"><g transform="translate(-156.658,-44.53998)"><g data-paper-data="{&quot;isPaintingLayer&quot;:true}" fill-rule="nonzero" stroke-linecap="butt" stroke-linejoin="miter" stroke-miterlimit="10" stroke-dasharray="" stroke-dashoffset="0" style="mix-blend-mode: normal"><path d="M266.59598,225.15145l1.27796,-0.95824c0.05541,-0.0417 0.11011,-0.08428 0.1641,-0.12771c0.13551,-1.17222 0.13575,-2.30458 -0.12579,-3.3176c-0.34384,-1.33174 -1.01808,-2.52891 -1.81442,-3.67444l-0.62779,0.00003c-3.93038,-0.05586 -7.74559,-0.91268 -11.84571,-0.6556c-2.68349,0.16826 -5.86295,1.79258 -8.48775,2.54278c-0.4448,-0.04448 -0.94382,-0.35089 -1.33439,-0.13345c-0.25144,0.13998 0.59542,0.21602 0.72092,0.47499c0.37095,0.76546 0.53193,1.6202 0.69865,2.45431c0.62184,3.11115 1.44096,8.05918 -1.68146,10.02064c-4.66347,2.92952 -10.37255,3.12454 -15.67155,3.12454c-1.00545,0 -5.36934,-0.69974 -5.87902,0.29818c-0.98142,1.92157 1.64564,5.27684 2.46136,6.60483c1.01233,0.8046 2.6395,0.91908 3.30851,2.02571c1.02893,1.70198 -0.40308,7.43828 2.52839,8.2455c2.13435,0.58772 5.32122,-0.07856 7.54673,-0.07698c5.09624,0.00362 10.52199,0.50615 15.21629,2.37231c2.38438,0.94788 6.78016,2.20958 6.88704,5.09896c3.68747,-1.0148 6.8975,1.05365 10.57704,0.05822c2.6204,-0.7089 4.64282,-3.1766 7.74697,-2.26613c2.01988,0.59245 4.22827,2.39354 6.21047,3.25976c0.8978,0.39234 3.03579,0.22992 3.68796,0.22891c4.87383,-0.00755 9.75576,-0.7938 14.30305,-2.56613c1.29242,-0.01052 5.40745,-0.24257 6.44601,0.658c0.89312,0.77446 0.99605,2.17836 1.17111,3.34746c0.44314,2.95934 -2.03109,7.75525 -2.61064,10.70322c-0.21363,1.08668 -2.10993,5.59698 -0.72844,6.53657c0.31932,0.21718 4.17215,-1.09397 4.48722,-1.1505c1.05684,-0.18963 2.05682,-0.63133 3.04376,-1.0542c1.47175,-0.63059 2.96326,-1.27005 4.27904,-2.18243c2.33401,-1.61843 3.97869,-3.24385 6.0029,-5.24579c1.78575,-1.11529 3.06839,-2.22899 5.18094,-2.54386c3.65917,-0.54539 7.39559,1.61444 10.94083,0.12622c4.23646,-1.77838 5.01957,-5.49437 6.35291,-9.49271c0.76278,-2.28736 1.29151,-4.91898 3.76634,-6.09786c1.0582,-0.50408 6.03624,-0.33861 7.13996,-0.11189c0.02722,0.00559 0.0544,0.0113 0.08156,0.01712l0.00114,-0.01024l2.89935,0.32215c0.75912,0.07417 1.35234,0.71422 1.35234,1.49282c0,0.49699 -0.2417,0.93752 -0.61397,1.21047l-1.28263,0.96197c-1.08378,0.79156 -1.89786,1.91533 -2.67281,3.01105c-1.89036,1.43205 0.39214,2.44133 1.81751,3.76266c1.67455,1.55233 3.77798,4.18785 5.61526,5.3427c0.77635,0.48799 1.8349,0.30974 2.65514,0.71968c1.50836,0.75385 2.75138,1.97454 4.25914,2.72956c0.84538,0.42333 1.6529,0.93077 2.53288,1.27645c0.6838,0.26862 1.42118,0.37311 2.13263,0.55632c0.25133,0.06472 0.66233,0.42964 0.75567,0.18748c0.17357,-0.45031 -0.35863,-0.94415 -0.28044,-1.42038c0.45871,-2.79397 1.89269,-5.98257 2.73895,-8.70709c0.37736,-1.21489 0.3806,-2.66619 1.23079,-3.61252c0.75384,-0.83908 5.46262,-1.52125 6.72671,-1.94252c5.58696,-1.54281 10.99373,-1.15307 16.62973,-1.91753c1.0243,-0.13894 2.04193,-0.34518 3.07335,-0.41343c1.15997,-0.07675 2.93781,1.0202 3.48753,-0.00412c0.12916,-0.24067 -0.24336,-0.5124 -0.23376,-0.78537c0.11364,-3.23139 0.15411,-6.79848 3.54294,-8.19771c1.86795,-0.77127 3.77524,-0.16931 5.67726,-0.43673c4.485,-0.63056 8.95834,0.16932 12.65177,-2.74131c5.74957,-1.50141 10.77584,-3.19635 16.10745,-5.99485c1.21403,-0.63723 3.25417,-1.4583 3.89967,-2.91304c0.21348,-0.48111 -0.08482,-1.0499 -0.09585,-1.57614c-0.02538,-1.21166 0.76473,-5.9098 -0.23966,-6.91585c-0.76731,-0.76858 -2.08219,-0.80346 -2.85913,-1.56231c-1.71921,-1.67918 -2.85184,-3.74115 -5.07369,-4.89748c-1.8104,-0.9422 -5.90751,-0.08325 -7.74863,0.12132c-1.22815,-0.00246 -3.49134,0.1756 -4.68053,-0.49934c-1.40408,-0.7969 -2.20832,-2.41488 -3.58782,-3.2536c-1.50757,-0.91659 -3.31916,-0.23118 -4.94796,-0.68487c-3.48056,-0.96948 -6.3893,-3.25925 -9.70728,-4.38889c-4.22296,-1.43775 -9.64768,1.5397 -13.84864,2.2712c-0.07736,0.1021 -0.13587,0.21901 -0.17061,0.35489c-0.33139,1.29613 0.7733,2.71103 0.3943,3.99405c-0.31586,1.06928 -0.97324,2.00632 -1.45987,3.00948c-1.31902,2.62584 -3.44702,7.2234 -5.94799,8.89655c-3.12034,2.0875 -9.35533,0.95846 -13.02661,1.49004c-1.46724,0.21245 0.01371,3.7141 0.02955,3.82219c0.17828,1.21653 0.65821,2.51481 0.26325,3.67917c-0.37764,1.11333 -1.51396,1.80978 -2.39078,2.59292c-4.93437,4.40723 -11.02038,2.7127 -16.95335,3.77134c-4.51797,0.78752 -10.11314,1.04149 -14.69428,0.45942c-1.1429,-0.14522 -4.28458,-2.01324 -5.544,-1.14809c-0.60727,0.41717 -0.79809,1.2617 -1.34911,1.75076c-0.7337,0.65121 -1.74969,0.94174 -2.45395,1.62468c-0.74394,0.72141 -1.07171,1.80363 -1.82033,2.52017c-0.38552,0.369 -1.1057,0.24211 -1.47154,0.63063c-0.39502,0.4195 -0.222,1.20655 -0.63591,1.60744c-3.81691,3.6969 -10.43089,5.06912 -13.85993,0.63248c-0.70353,-0.91026 -1.38664,-3.43517 -1.70526,-4.44816c0.07421,-0.50305 0.5071,-3.92199 0.85462,-4.44996c0.49929,-0.75856 1.48358,-1.08177 2.05811,-1.78507c0.13918,-0.17037 2.02745,-2.81635 1.36865,-3.23941c-2.53812,-1.62992 -5.79102,-1.13451 -8.62065,-1.13641c-1.10996,-0.00075 -4.96128,0.19388 -6.03263,-0.58566c-1.18374,-0.86132 -1.88909,-3.16395 -2.48062,-4.54503c-0.09413,-0.21976 -1.92599,-4.21378 -2.03533,-4.83492c-0.56183,-3.1915 3.09952,-7.99065 5.54492,-10.64943c-0.11903,0.038 -0.23792,0.07689 -0.35668,0.11667c0,0 -1.42303,0.47434 -1.89737,-0.94868c-0.24606,-0.73817 0.01843,-1.22106 0.33001,-1.51489c-0.38004,0.04926 -0.68003,0.11064 -0.79605,0.14977c-3.41436,1.15136 -6.87802,4.11479 -9.89263,6.05527c-3.80567,2.44968 -7.4844,5.12355 -11.04437,7.91707c-1.86879,1.46645 -4.96112,4.13744 -7.36269,4.59929c-2.93957,0.56531 -4.93335,-1.34811 -7.01845,-2.74201c-0.0786,0.39839 -0.14942,0.78983 -0.20813,1.17255c0,0 -0.22809,1.48255 -1.71064,1.25447c-1.48256,-0.22808 -1.25447,-1.71064 -1.25447,-1.71064c0.0894,-0.57956 0.22152,-1.20117 0.37149,-1.84925c-0.27794,0.0039 -0.55589,0.0078 -0.83383,0.0117l-1.31912,-0.48251c0,0 -1.34164,-0.67082 -0.67082,-2.01246c0.5338,-1.06761 1.49238,-0.8609 1.86169,-0.73192c0.12394,-0.57025 0.60593,-0.93175 0.60593,-0.93175zM271.22737,219.17964c0.49221,-4.50494 2.18513,-9.02691 3.96245,-13.18365c0.59665,-1.39543 1.63573,-2.66019 1.84173,-4.16378c0.43152,-3.14962 -0.0145,-6.65366 -0.0145,-9.84057c0,-0.87586 0.4816,-3.54084 0.11418,-4.28821c-0.68887,-1.40123 -2.11609,-2.36109 -2.76441,-3.78154c-1.57164,-3.4434 -2.56179,-5.60396 -5.73501,-7.84706c-2.76926,-1.59072 -6.05222,-1.96575 -8.76833,-3.57623c-2.00223,-1.1872 -3.94931,-4.48926 -4.79332,-6.5612c-0.98224,-2.41128 -0.08225,-4.44661 0.23786,-6.84849c0.69006,-5.17779 1.80275,-9.63003 4.02007,-14.40586c0.71754,-1.5455 1.27316,-2.93333 2.81773,-3.87153c2.07842,-1.26247 4.98328,-1.72471 7.31376,-2.36935c2.46495,-1.67381 4.78581,-3.18685 7.69762,-3.97743c5.43051,-1.47443 11.18309,-0.20163 16.69352,-1.00629c2.17551,-0.31768 3.8282,-1.39648 5.481,-2.52752c-0.03098,-0.04202 -0.06489,-0.08538 -0.10158,-0.13c0.11235,-0.01027 0.22469,-0.02068 0.337,-0.03135c0.05139,-0.03525 0.10281,-0.07052 0.15427,-0.10578c-0.20796,-0.15388 -0.42831,-0.29859 -0.66331,-0.43289l-0.83746,-0.41527c-0.31197,-0.26612 -0.66508,-0.5464 -1.04453,-0.83108c-0.18924,-0.32887 -0.27307,-0.78187 0.01549,-1.35901c0.67082,-1.34164 2.01246,-0.67082 2.01246,-0.67082l1.39752,0.7037c0.64631,0.40122 1.22444,0.86204 1.75098,1.36786c0.52091,-0.26918 1.06663,-0.50894 1.64916,-0.70304c1.20426,-0.40126 2.33284,-0.37071 3.45661,-0.4264c1.02218,-0.75695 2.01173,-1.56121 2.96383,-2.19443c2.42321,-1.21369 3.8154,-1.19422 6.27618,-1.79071c4.42591,-1.07282 8.22361,-2.65557 12.85999,-2.94712c1.51001,-0.09495 3.81655,-0.69957 5.34044,-0.2768c1.01256,0.28091 3.66,2.21154 4.74453,2.66447c2.93853,1.2272 5.33774,2.47665 8.13557,4.0801c2.69581,1.54497 6.46108,2.46539 8.77903,4.58588c1.15956,1.06078 2.52924,3.68986 3.31226,5.06621c1.07191,3.41627 4.3833,5.04569 6.34536,7.85993c0.87788,1.25917 1.11961,2.9364 2.155,4.06961c1.8757,2.05292 4.70677,3.27527 6.48749,5.21652c0.52224,0.56932 0.41611,1.51053 0.82547,2.16573c2.02254,3.23716 4.66632,8.11823 7.51171,10.68144c1.31991,1.18901 3.16385,1.68949 4.48889,2.87277c2.65685,2.3726 5.24198,5.52132 7.62259,8.19209c3.27577,3.46851 5.99088,7.91516 8.67869,11.89978c1.04484,1.54896 2.98721,2.41643 3.85029,4.07355c0.45668,0.87683 -0.04511,4.07147 -0.22507,4.86548c-0.52191,2.30282 -1.5236,3.93534 -2.32771,6.02541c-0.45916,1.19347 -0.68,2.43031 -1.07815,3.61991c3.4965,-1.03425 7.07539,-2.08966 10.52405,-0.95916l0.00006,-0.00002c3.2469,1.06435 6.11164,3.33136 9.47785,4.32244c2.0674,0.60868 3.59791,-0.20853 5.68864,0.97657c3.2862,1.86274 2.77267,3.38784 6.64251,3.37834c2.5689,-0.28543 6.6497,-1.07468 9.10712,0.12132c2.63241,1.28117 4.00504,3.47447 5.94738,5.47529c0.79329,0.81717 2.25153,0.80006 2.97556,1.67918c1.84332,2.23817 1.10159,6.3506 1.05694,8.97394c-0.01494,0.87756 0.26981,1.83343 -0.09585,2.63132c-1.17376,2.56123 -3.04567,3.29764 -5.30114,4.50754c-5.2992,2.84265 -10.39768,4.67402 -16.18282,6.03351c-5.2737,4.28808 -12.47475,1.64289 -18.62397,3.30494c-1.55857,0.42126 -1.00309,0.88182 -1.24607,2.74275c-0.38976,2.98508 0.46701,5.57449 -3.20247,6.39874c-1.03511,0.23251 -2.12422,-0.04918 -3.18263,0.02366c-6.32113,0.43501 -12.89585,0.49622 -19.02949,2.20713c-1.00282,0.33435 -3.36816,1.15481 -4.32191,1.3252c-0.41651,0.07441 -1.01473,-0.36437 -1.26905,-0.02623c-0.44154,0.58705 -0.18678,1.45939 -0.34792,2.17607c-0.65183,2.89908 -1.99195,5.58102 -2.68086,8.45013c-0.22507,0.93736 0.25412,2.16665 -0.4132,2.86235c-0.74846,0.78028 -2.05303,0.81909 -3.13412,0.83578c-4.00519,0.06181 -6.90096,-3.25317 -10.13791,-4.87235c-0.90736,-0.45388 -2.06336,-0.31941 -2.91763,-0.8667c-1.94946,-1.24893 -4.27163,-4.02641 -6.05411,-5.67837c-1.62684,-1.50771 -4.32819,-3.40649 -3.65998,-6.07522c0.19624,-0.78376 1.05847,-1.22099 1.5877,-1.83148c0.58667,-0.81387 1.2095,-1.62004 1.90847,-2.34447c-1.8605,0.11116 -3.74761,-0.50459 -5.3763,0.16176c-1.72778,0.7069 -2.57298,5.79436 -3.01703,7.12096c-1.22668,3.66474 -3.19046,6.84382 -6.96096,8.40679c-4.13224,1.71291 -7.62364,-0.42761 -11.7496,0.12622c-1.38866,0.1864 -2.70335,1.24867 -3.79684,1.93273c-5.0552,5.06296 -9.68388,7.52603 -16.46065,9.37638c-3.07843,0.84055 -5.8779,1.78718 -6.75235,-2.86028c-0.21713,-1.15398 0.51046,-2.2924 0.74953,-3.44203c0.66942,-3.21912 1.25114,-6.37823 2.22075,-9.52393c0.05054,-0.16396 1.53432,-4.10191 0.78118,-4.57644c-1.10744,-0.69776 -2.61792,0.02398 -3.92677,0.0097c-4.64093,1.91042 -9.8655,2.62755 -14.87037,2.62026c-1.51634,-0.00221 -3.26459,0.17204 -4.73992,-0.41939c-2.0717,-0.83051 -4.11015,-2.39909 -6.10719,-3.22322c-1.7415,-0.71867 -4.40203,1.87707 -5.8673,2.27196c-4.12813,1.11254 -9.25816,-0.14016 -13.40999,-0.59008c-0.90075,-2.88085 -3.32092,-3.51053 -6.07892,-4.62551c-4.31667,-1.7451 -9.41408,-2.16927 -14.12245,-2.16578c-2.3765,0.00176 -6.21497,0.74347 -8.49541,-0.07698c-2.3682,-0.85202 -3.6653,-3.50179 -3.9357,-5.81331c-0.01196,-0.10221 0.00652,-3.40218 -0.0189,-3.44525c-0.20642,-0.34982 -0.83827,-0.06311 -1.18852,-0.26879c-0.73221,-0.42996 -1.32397,-1.06353 -1.98595,-1.59529c-0.04919,-0.07758 -2.74456,-4.23248 -2.91823,-4.81046c-1.01363,-3.37352 -0.24191,-6.12181 3.41291,-7.05654c4.79152,-1.22545 9.93254,0.93259 14.72565,-0.92189c0.30282,-0.11716 5.13549,-1.81734 5.25982,-2.39671c0.54953,-2.56085 -0.41363,-5.89308 -1.00598,-8.34108c-0.22152,-0.9155 -1.0756,-1.96819 -0.57568,-2.7665c0.62069,-0.99115 2.1358,-0.95337 3.2037,-1.43005c2.84995,-0.814 6.08696,-2.41337 9.0163,-2.64361c0.87766,-0.06898 1.88634,-0.14108 2.93955,-0.18998c0.09839,0.04695 0.19168,0.08345 0.27945,0.10881c0.79222,0.22884 1.60647,0.72464 2.41312,1.14071c0.95419,0.30242 1.97035,0.46557 3.02462,0.46557c1.85472,0 3.59151,-0.50493 5.0804,-1.38483c0.12828,0.16739 0.25716,0.3346 0.38599,0.50194c0.23047,0.01188 1.46312,0.139 1.46312,1.49877h-0.00001c0,0.15294 -0.01559,0.2903 -0.0436,0.41364c0.84955,1.228 1.57285,2.51778 1.93603,3.97432c0.01111,0.04457 0.02185,0.08925 0.03223,0.13403c0.13677,-0.30432 0.26554,-0.61071 0.38777,-0.91584zM311.16489,130.17528c-0.85787,0.32995 -1.69436,0.44332 -2.52386,0.50615c-1.11898,0.79863 -2.27386,1.53653 -3.48874,2.01077c0.65924,1.08675 1.26923,2.21576 1.91475,3.31248c-1.33546,-0.7335 -2.66252,-1.41779 -2.94222,-1.3388c-0.32829,0.09271 -0.65563,0.19365 -0.98134,0.30269c-0.31203,-0.47016 -0.60624,-0.93944 -0.90425,-1.39597c-0.84501,0.20447 -1.69542,0.37436 -2.54895,0.52746c0.00001,-0.00048 0.00002,-0.00096 0.00003,-0.00144c-1.56882,1.03518 -3.19204,1.981 -5.38862,2.32574c-5.37827,0.8441 -11.08199,-0.51911 -16.36969,0.9386c-2.74031,0.75544 -4.86394,2.25955 -7.21324,3.80215c-2.18533,0.64079 -4.93482,1.06548 -6.9488,2.16873c-1.50127,0.8224 -2.32835,4.03134 -2.88416,5.32864c-1.51912,3.54569 -2.09237,6.98046 -2.59571,10.75377c-0.2281,1.70995 -1.17383,3.69342 -0.41044,5.46917c2.54349,5.9165 7.3771,5.82253 12.37027,8.66321c3.62651,2.61241 5.08466,5.12722 6.85239,9.14161c0.64119,1.4561 2.18462,2.39816 2.80053,3.86513c0.53729,1.27972 0.11418,4.01748 0.11418,5.43626c0,3.3081 0.48197,6.99139 -0.0145,10.25667c-0.26667,1.75392 -1.34778,3.28238 -2.04806,4.9124c-1.72927,4.0252 -3.32448,8.38499 -3.81713,12.74828c-0.86559,2.16597 -1.83812,4.05669 -3.36951,5.66699c-0.0925,0.53555 -0.19938,1.07099 -0.31199,1.6028c0.03539,0.02024 0.07047,0.04114 0.10519,0.06276c1.44738,0.90119 3.39329,3.55314 5.6488,2.98496c2.98897,-0.75295 6.07928,-4.09333 8.45791,-5.88579c3.68698,-2.77838 7.5308,-5.33312 11.41015,-7.8302c2.35109,-1.51335 5.4049,-3.96757 8.09353,-4.77047c2.41279,-0.72053 5.20842,-0.47217 6.81887,1.21061c0.34098,-0.06088 0.68256,-0.11745 1.02467,-0.17031c0.2374,0.35483 0.4969,0.69362 0.77654,1.0144c0.14629,0.73143 0.37314,1.3069 0.66293,1.75776c-0.39875,0.05676 -0.79681,0.11827 -1.19403,0.18548c0.03055,0.22854 0.04997,0.46701 0.05751,0.71561c0.02553,0.84193 -1.1872,1.1952 -1.78081,1.7928c-1.91157,1.88117 -4.29685,5.2419 -5.38184,7.72937c-0.46641,1.0693 1.66526,4.61241 1.89121,5.14091c0.14457,0.33815 1.16146,3.04129 1.40918,3.23454c1.14078,0.88997 2.89328,0.06366 4.34015,0.06265c3.03852,-0.00213 8.48878,-0.67461 10.82829,2.10508c2.99803,3.56212 -1.25551,6.23031 -3.05623,8.58978c-0.54956,0.72009 -0.26831,1.79229 -0.44197,2.68132c0.68053,1.87607 1.08604,3.34194 2.77802,4.62951c0.51662,0.39313 3.13779,-0.3895 3.67496,-0.5963c1.36924,-0.52714 2.89814,-0.9553 3.91375,-2.0142c0.40668,-0.42401 0.25532,-1.20878 0.66069,-1.63405c0.4459,-0.4678 1.26389,-0.42722 1.73041,-0.87447c0.6957,-0.66699 0.96358,-1.69935 1.65479,-2.371c0.7308,-0.71013 1.76853,-1.03589 2.53836,-1.70352c0.7192,-0.62373 1.05006,-1.69546 1.89239,-2.13904c2.90754,-1.53111 4.71335,0.46486 7.42196,0.79682c4.28094,0.52465 9.53519,0.31233 13.75682,-0.44277c4.29525,-0.75025 9.62956,0.47225 13.51646,-1.65688c0.05204,-0.0285 3.38951,-2.34743 3.51813,-2.74605c1.06876,-3.3123 -3.6828,-7.15302 1.5894,-9.35439c2.09661,-0.87542 5.95535,-0.73415 8.17126,-0.72528c0.69596,0.00278 3.14506,0.29331 4.08576,-0.37788c2.03367,-1.45104 3.87666,-5.55491 4.98299,-7.77903c0.4078,-0.7857 0.94216,-1.51773 1.22341,-2.35709c0.47034,-1.40366 -0.76956,-3.04614 -0.25399,-4.43383c0.16775,-0.45151 0.49398,-0.77962 0.89193,-1.05474c0.20769,-0.93117 1.25811,-1.08123 1.25811,-1.08123h-0.00003c0.29473,-0.04203 0.59088,-0.09255 0.88834,-0.15007c0.18107,-0.13104 0.34783,-0.27476 0.49225,-0.43766c1.37027,-1.54552 1.29683,-3.60424 1.96841,-5.35086c0.78178,-2.03321 1.68678,-3.4199 2.21038,-5.64396c0.22494,-0.95543 0.98406,-2.10854 0.42323,-2.9141c-0.9772,-1.40364 -2.64066,-2.23745 -3.60862,-3.64747c-2.61997,-3.81649 -5.18455,-8.28052 -8.40134,-11.55114c-2.30964,-2.606 -4.80633,-5.64721 -7.38466,-7.96173c-1.35446,-1.21587 -3.24078,-1.73723 -4.58728,-2.96192c-3.06656,-2.78913 -5.87523,-7.85018 -8.04745,-11.36069c-0.32687,-0.52826 -0.13757,-1.32149 -0.55912,-1.77778c-1.30615,-1.41377 -3.26464,-2.07891 -4.67681,-3.3868c-2.17116,-2.01082 -2.5382,-3.8223 -4.09675,-6.074c-2.08645,-3.0144 -5.34332,-4.69443 -6.62061,-8.34752c-0.38632,-0.67253 -1.91433,-3.4618 -2.52243,-4.00996c-2.17325,-1.95907 -5.79038,-2.81662 -8.3204,-4.26296c-2.72271,-1.5565 -4.98281,-2.72661 -7.8282,-3.92682c-1.53942,-0.64934 -2.73035,-2.04514 -4.33164,-2.52192c-0.64547,-0.19219 -4.13948,0.35631 -4.38403,0.3715c-4.48374,0.27846 -8.1335,1.84122 -12.42363,2.88756c-2.39384,0.58384 -3.04252,0.29289 -5.30891,1.40901c0.52547,1.37082 -0.84732,1.91994 -0.84732,1.91994z" fill="#000000" stroke="none" stroke-width="0.5"/><path d="M266.64415,225.16483c0,0 -0.4818,0.36081 -0.60574,0.93106c-0.36931,-0.12898 -1.3277,-0.33645 -1.8615,0.73116c-0.67082,1.34164 0.67109,2.01128 0.67109,2.01128l1.31915,0.48238c0.27794,-0.0039 0.55586,-0.00767 0.8338,-0.01157c-0.14997,0.64808 -0.28183,1.26841 -0.37123,1.84797c0,0 -0.32646,1.46463 1.1561,1.69271c1.48255,0.22808 1.71084,-1.25556 1.71084,-1.25556c0.05871,-0.38272 0.22752,-0.75422 0.30612,-1.15261c2.0851,1.3939 3.98087,3.28751 6.92044,2.7222c2.40157,-0.46185 5.49518,-3.138 7.36397,-4.60445c3.55997,-2.79352 7.24314,-5.47765 11.04881,-7.92733c3.01461,-1.94048 6.48515,-4.91323 9.89951,-6.06459c0.11602,-0.03913 0.48851,-0.03164 0.86855,-0.0809c-0.31158,0.29383 -0.57502,0.7756 -0.32896,1.51377c0.47434,1.42302 1.82375,0.881 1.82375,0.881c0.11876,-0.03978 0.31052,-0.01018 0.42955,-0.04818c-2.4454,2.65878 -6.09822,7.44569 -5.53639,10.63719c0.10934,0.62114 1.94314,4.6107 2.03727,4.83046c0.59153,1.38108 1.2985,3.67862 2.48224,4.53994c1.07135,0.77954 4.8264,0.55791 5.93636,0.55866c2.82963,0.0019 6.17696,-0.46087 8.71508,1.16905c0.6588,0.42306 -1.22676,3.05934 -1.36594,3.22971c-0.57453,0.7033 -1.55818,1.02109 -2.05747,1.77965c-0.34752,0.52797 -0.78094,3.93587 -0.85515,4.43892c0.31862,1.01299 0.99853,3.52662 1.70206,4.43688c3.42904,4.43664 10.02431,3.04182 13.84122,-0.65508c0.41391,-0.40089 0.24303,-1.18645 0.63805,-1.60595c0.36584,-0.38852 1.07966,-0.2656 1.46518,-0.6346c0.74862,-0.71654 1.06788,-1.80227 1.81182,-2.52368c0.70426,-0.68294 1.6588,-0.94352 2.3925,-1.59473c0.55102,-0.48906 0.83574,-1.33228 1.44301,-1.74945c1.25942,-0.86515 4.40391,1.01976 5.54681,1.16498c4.58114,0.58207 10.07632,0.32857 14.59429,-0.45895c5.93297,-1.05864 12.01924,0.64019 16.95361,-3.76704c0.87682,-0.78314 2.01349,-1.47691 2.39113,-2.59024c0.39496,-1.16436 -0.08414,-2.45851 -0.26242,-3.67504c-0.01584,-0.10809 -1.40085,-3.63763 0.06639,-3.85008c3.67128,-0.53158 9.81079,0.62707 12.93113,-1.46043c2.50097,-1.67315 4.63067,-6.26574 5.94969,-8.89158c0.48663,-1.00316 1.14465,-1.93869 1.46051,-3.00797c0.379,-1.28302 -0.72452,-2.69546 -0.39313,-3.99159c0.03474,-0.13588 0.18236,-0.29816 0.25972,-0.40026c4.20096,-0.7315 9.62679,-3.70664 13.84975,-2.26889c3.31798,1.12964 6.22833,3.42348 9.70889,4.39296c1.6288,0.45369 3.44077,-0.2306 4.94834,0.68599c1.3795,0.83872 2.18435,2.45875 3.58843,3.25565c1.18919,0.67494 3.45259,0.49769 4.68074,0.50015c1.84112,-0.20457 5.93843,-1.06272 7.74883,-0.12052c2.22185,1.15633 3.35502,3.22085 5.07423,4.90003c0.77694,0.75885 2.09197,0.7946 2.85928,1.56318c1.00439,1.00605 0.21468,5.70712 0.24006,6.91878c0.01103,0.52624 0.3094,1.09571 0.09592,1.57682c-0.6455,1.45474 -2.68555,2.27694 -3.89958,2.91417c-5.33161,2.7985 -10.35777,4.49599 -16.10734,5.9974c-3.69343,2.91063 -8.16677,2.11227 -12.65177,2.74283c-1.90202,0.26742 -3.80932,-0.33421 -5.67727,0.43706c-3.38883,1.39923 -3.42972,4.97189 -3.54336,8.20328c-0.0096,0.27297 0.36285,0.5452 0.23369,0.78587c-0.54972,1.02432 -2.32761,-0.07229 -3.48758,0.00446c-1.03142,0.06825 -2.04915,0.27512 -3.07345,0.41406c-5.636,0.76446 -11.04365,0.379 -16.63061,1.92181c-1.26409,0.42127 -5.97395,1.10711 -6.72779,1.94619c-0.85019,0.94633 -0.8549,2.40148 -1.23226,3.61637c-0.84626,2.72452 -2.28479,5.92142 -2.7435,8.71539c-0.07819,0.47623 0.45342,0.97092 0.27985,1.42123c-0.09334,0.24216 -0.50451,-0.12252 -0.75584,-0.18724c-0.71145,-0.18321 -1.44933,-0.28701 -2.13313,-0.55563c-0.87998,-0.34568 -1.68784,-0.85267 -2.53322,-1.276c-1.50776,-0.75502 -2.7511,-1.97529 -4.25946,-2.72914c-0.82024,-0.40994 -1.87971,-0.23054 -2.65606,-0.71853c-1.83728,-1.15485 -4.01836,-3.85338 -5.69291,-5.40571c-1.42537,-1.32133 -3.71005,-2.32765 -1.81969,-3.7597c0.77495,-1.09572 1.58512,-2.21267 2.6689,-3.00423l1.28154,-0.9595c0.37227,-0.27295 0.61306,-0.71108 0.61306,-1.20807c0,-0.7786 -0.4982,-1.38753 -1.25732,-1.4617l-2.89973,-0.32097l-0.00115,0.01026c-0.02716,-0.00582 -0.05435,-0.01151 -0.08157,-0.0171c-1.10372,-0.22672 -6.08482,-0.38498 -7.14302,0.1191c-2.47483,1.17888 -3.01817,3.82762 -3.78095,6.11498c-1.33334,3.99834 -2.13888,7.7236 -6.37534,9.50198c-3.54524,1.48822 -7.305,-0.67371 -10.96417,-0.12832c-2.11255,0.31487 -3.40192,1.42573 -5.18767,2.54102c-2.02421,2.00194 -3.67251,3.62532 -6.00652,5.24375c-1.31578,0.91238 -2.80989,1.55011 -4.28164,2.1807c-0.98694,0.42287 -1.98869,0.86325 -3.04553,1.05288c-0.31507,0.05653 -4.17026,1.36572 -4.48958,1.14854c-1.38149,-0.93959 0.5115,-5.4531 0.72513,-6.53978c0.57955,-2.94797 3.04805,-7.75124 2.60491,-10.71058c-0.17506,-1.1691 -0.28067,-2.57775 -1.17379,-3.35221c-1.03856,-0.90057 -5.15544,-0.67275 -6.44786,-0.66223c-4.54729,1.77233 -9.4301,2.55609 -14.30393,2.56364c-0.65217,0.00101 -2.79053,0.16226 -3.68833,-0.23008c-1.9822,-0.86622 -4.19159,-2.67124 -6.21147,-3.26369c-3.10415,-0.91047 -5.12647,1.55767 -7.74687,2.26657c-3.67954,0.99543 -6.88987,-1.07447 -10.57734,-0.05967c-0.10688,-2.88938 -4.50322,-4.15475 -6.8876,-5.10263c-4.6943,-1.86616 -10.12024,-2.37072 -15.21648,-2.37434c-2.22551,-0.00158 -5.4124,0.66448 -7.54675,0.07676c-2.93147,-0.80722 -1.49957,-6.54735 -2.5285,-8.24933c-0.66901,-1.10663 -2.29616,-1.22199 -3.30849,-2.02659c-0.81572,-1.32799 -3.44263,-4.68608 -2.46121,-6.60765c0.50968,-0.99792 4.8736,-0.29854 5.87905,-0.29854c5.299,0 11.00835,-0.19739 15.67182,-3.12691c3.12242,-1.96146 2.30432,-6.91475 1.68248,-10.0259c-0.16672,-0.83411 -0.32741,-1.68996 -0.69836,-2.45542c-0.1255,-0.25897 -0.97232,-0.33514 -0.72088,-0.47512c0.39057,-0.21744 0.88962,0.08886 1.33442,0.13334c2.6248,-0.7502 5.80505,-2.37708 8.48854,-2.54534c4.10012,-0.25708 7.91603,0.5978 11.84641,0.65366l0.72104,0.03609c0.79634,1.14553 1.47123,2.34093 1.81507,3.67267c0.26154,1.01302 0.26196,2.14334 0.12645,3.31556c-0.05399,0.04343 -0.10866,0.0859 -0.16407,0.1276l-1.27772,0.9574z" data-paper-data="{&quot;noHover&quot;:false,&quot;origItem&quot;:[&quot;Path&quot;,{&quot;applyMatrix&quot;:true,&quot;segments&quot;:[[266.59598,225.15145],[[267.87394,224.19321],[0,0],[0.05541,-0.0417]],[[268.03804,224.0655],[-0.05399,0.04343],[0.13551,-1.17222]],[[267.91225,220.7479],[0.26154,1.01302],[-0.34384,-1.33174]],[[266.09783,217.07346],[0.79634,1.14553],[0,0]],[[265.47004,217.07349],[0,0],[-3.93038,-0.05586]],[[253.62433,216.41789],[4.10012,-0.25708],[-2.68349,0.16826]],[[245.13658,218.96067],[2.6248,-0.7502],[-0.4448,-0.04448]],[[243.80219,218.82722],[0.39057,-0.21744],[-0.25144,0.13998]],[[244.52311,219.30221],[-0.1255,-0.25897],[0.37095,0.76546]],[[245.22176,221.75652],[-0.16672,-0.83411],[0.62184,3.11115]],[[243.5403,231.77716],[3.12242,-1.96146],[-4.66347,2.92952]],[[227.86875,234.9017],[5.299,0],[-1.00545,0]],[[221.98973,235.19988],[0.50968,-0.99792],[-0.98142,1.92157]],[[224.45109,241.80471],[-0.81572,-1.32799],[1.01233,0.8046]],[[227.7596,243.83042],[-0.66901,-1.10663],[1.02893,1.70198]],[[230.28799,252.07592],[-2.93147,-0.80722],[2.13435,0.58772]],[[237.83472,251.99894],[-2.22551,-0.00158],[5.09624,0.00362]],[[253.05101,254.37125],[-4.6943,-1.86616],[2.38438,0.94788]],[[259.93805,259.47021],[-0.10688,-2.88938],[3.68747,-1.0148]],[[270.51509,259.52843],[-3.67954,0.99543],[2.6204,-0.7089]],[[278.26206,257.2623],[-3.10415,-0.91047],[2.01988,0.59245]],[[284.47253,260.52206],[-1.9822,-0.86622],[0.8978,0.39234]],[[288.16049,260.75097],[-0.65217,0.00101],[4.87383,-0.00755]],[[302.46354,258.18484],[-4.54729,1.77233],[1.29242,-0.01052]],[[308.90955,258.84284],[-1.03856,-0.90057],[0.89312,0.77446]],[[310.08066,262.1903],[-0.17506,-1.1691],[0.44314,2.95934]],[[307.47002,272.89352],[0.57955,-2.94797],[-0.21363,1.08668]],[[306.74158,279.43009],[-1.38149,-0.93959],[0.31932,0.21718]],[[311.2288,278.27959],[-0.31507,0.05653],[1.05684,-0.18963]],[[314.27256,277.22539],[-0.98694,0.42287],[1.47175,-0.63059]],[[318.5516,275.04296],[-1.31578,0.91238],[2.33401,-1.61843]],[[324.5545,269.79717],[-2.02421,2.00194],[1.78575,-1.11529]],[[329.73544,267.25331],[-2.11255,0.31487],[3.65917,-0.54539]],[[340.67627,267.37953],[-3.54524,1.48822],[4.23646,-1.77838]],[[347.02918,257.88682],[-1.33334,3.99834],[0.76278,-2.28736]],[[350.79552,251.78896],[-2.47483,1.17888],[1.0582,-0.50408]],[[357.93548,251.67707],[-1.10372,-0.22672],[0.02722,0.00559]],[[358.01704,251.69419],[-0.02716,-0.00582],[0,0]],[358.01818,251.68395],[[360.91753,252.0061],[0,0],[0.75912,0.07417]],[[362.26987,253.49892],[0,-0.7786],[0,0.49699]],[[361.6559,254.70939],[0.37227,-0.27295],[0,0]],[[360.37327,255.67136],[0,0],[-1.08378,0.79156]],[[357.70046,258.68241],[0.77495,-1.09572],[-1.89036,1.43205]],[[359.51797,262.44507],[-1.42537,-1.32133],[1.67455,1.55233]],[[365.13323,267.78777],[-1.83728,-1.15485],[0.77635,0.48799]],[[367.78837,268.50745],[-0.82024,-0.40994],[1.50836,0.75385]],[[372.04751,271.23701],[-1.50776,-0.75502],[0.84538,0.42333]],[[374.58039,272.51346],[-0.87998,-0.34568],[0.6838,0.26862]],[[376.71302,273.06978],[-0.71145,-0.18321],[0.25133,0.06472]],[[377.46869,273.25726],[-0.09334,0.24216],[0.17357,-0.45031]],[[377.18825,271.83688],[-0.07819,0.47623],[0.45871,-2.79397]],[[379.9272,263.12979],[-0.84626,2.72452],[0.37736,-1.21489]],[[381.15799,259.51727],[-0.85019,0.94633],[0.75384,-0.83908]],[[387.8847,257.57475],[-1.26409,0.42127],[5.58696,-1.54281]],[[404.51443,255.65722],[-5.636,0.76446],[1.0243,-0.13894]],[[407.58778,255.24379],[-1.03142,0.06825],[1.15997,-0.07675]],[[411.07531,255.23967],[-0.54972,1.02432],[0.12916,-0.24067]],[[410.84155,254.4543],[-0.0096,0.27297],[0.11364,-3.23139]],[[414.38449,246.25659],[-3.38883,1.39923],[1.86795,-0.77127]],[[420.06175,245.81986],[-1.90202,0.26742],[4.485,-0.63056]],[[432.71352,243.07855],[-3.69343,2.91063],[5.74957,-1.50141]],[[448.82097,237.0837],[-5.33161,2.7985],[1.21403,-0.63723]],[[452.72064,234.17066],[-0.6455,1.45474],[0.21348,-0.48111]],[[452.62479,232.59452],[0.01103,0.52624],[-0.02538,-1.21166]],[[452.38513,225.67867],[1.00439,1.00605],[-0.76731,-0.76858]],[[449.526,224.11636],[0.77694,0.75885],[-1.71921,-1.67918]],[[444.45231,219.21888],[2.22185,1.15633],[-1.8104,-0.9422]],[[436.70368,219.3402],[1.84112,-0.20457],[-1.22815,-0.00246]],[[432.02315,218.84086],[1.18919,0.67494],[-1.40408,-0.7969]],[[428.43533,215.58726],[1.3795,0.83872],[-1.50757,-0.91659]],[[423.48737,214.90239],[1.6288,0.45369],[-3.48056,-0.96948]],[[413.78009,210.5135],[3.31798,1.12964],[-4.22296,-1.43775]],[[399.93145,212.7847],[4.20096,-0.7315],[-0.07736,0.1021]],[[399.76084,213.13959],[0.03474,-0.13588],[-0.33139,1.29613]],[[400.15514,217.13364],[0.379,-1.28302],[-0.31586,1.06928]],[[398.69527,220.14312],[0.48663,-1.00316],[-1.31902,2.62584]],[[392.74728,229.03967],[2.50097,-1.67315],[-3.12034,2.0875]],[[379.72067,230.52971],[3.67128,-0.53158],[-1.46724,0.21245]],[[379.75022,234.3519],[-0.01584,-0.10809],[0.17828,1.21653]],[[380.01347,238.03107],[0.39496,-1.16436],[-0.37764,1.11333]],[[377.62269,240.62399],[0.87682,-0.78314],[-4.93437,4.40723]],[[360.66934,244.39533],[5.93297,-1.05864],[-4.51797,0.78752]],[[345.97506,244.85475],[4.58114,0.58207],[-1.1429,-0.14522]],[[340.43106,243.70666],[1.25942,-0.86515],[-0.60727,0.41717]],[[339.08195,245.45742],[0.55102,-0.48906],[-0.7337,0.65121]],[[336.628,247.0821],[0.70426,-0.68294],[-0.74394,0.72141]],[[334.80767,249.60227],[0.74862,-0.71654],[-0.38552,0.369]],[[333.33613,250.2329],[0.36584,-0.38852],[-0.39502,0.4195]],[[332.70022,251.84034],[0.41391,-0.40089],[-3.81691,3.6969]],[[318.84029,252.47282],[3.42904,4.43664],[-0.70353,-0.91026]],[[317.13503,248.02466],[0.31862,1.01299],[0.07421,-0.50305]],[[317.98965,243.5747],[-0.34752,0.52797],[0.49929,-0.75856]],[[320.04776,241.78963],[-0.57453,0.7033],[0.13918,-0.17037]],[[321.41641,238.55022],[0.6588,0.42306],[-2.53812,-1.62992]],[[312.79576,237.41381],[2.82963,0.0019],[-1.10996,-0.00075]],[[306.76313,236.82815],[1.07135,0.77954],[-1.18374,-0.86132]],[[304.28251,232.28312],[0.59153,1.38108],[-0.09413,-0.21976]],[[302.24718,227.4482],[0.10934,0.62114],[-0.56183,-3.1915]],[[307.7921,216.79877],[-2.4454,2.65878],[-0.11903,0.038]],[[307.43542,216.91544],[0.11876,-0.03978],[0,0]],[[305.53805,215.96676],[0.47434,1.42302],[-0.24606,-0.73817]],[[305.86806,214.45187],[-0.31158,0.29383],[-0.38004,0.04926]],[[305.07201,214.60164],[0.11602,-0.03913],[-3.41436,1.15136]],[[295.17938,220.65691],[3.01461,-1.94048],[-3.80567,2.44968]],[[284.13501,228.57398],[3.55997,-2.79352],[-1.86879,1.46645]],[[276.77232,233.17327],[2.40157,-0.46185],[-2.93957,0.56531]],[[269.75387,230.43126],[2.0851,1.3939],[-0.0786,0.39839]],[[269.54574,231.60381],[0.05871,-0.38272],[0,0]],[[267.8351,232.85828],[1.48255,0.22808],[-1.48256,-0.22808]],[[266.58063,231.14764],[0,0],[0.0894,-0.57956]],[[266.95212,229.29839],[-0.14997,0.64808],[-0.27794,0.0039]],[[266.11829,229.31009],[0.27794,-0.0039],[0,0]],[264.79917,228.82758],[[264.12835,226.81512],[-0.67082,1.34164],[0.5338,-1.06761]],[[265.99004,226.0832],[-0.36931,-0.12898],[0.12394,-0.57025]],[266.59597,225.15145]],&quot;closed&quot;:true,&quot;fillColor&quot;:[0,0,0,1],&quot;strokeWidth&quot;:0.5}]}" fill="#f7ee6f" stroke="none" stroke-width="0.25"/><path d="M311.14833,130.12808c0,0 1.37387,-0.54949 0.8484,-1.92031c2.26639,-1.11612 2.91928,-0.82634 5.31312,-1.41018c4.29013,-1.04634 7.94981,-2.61036 12.43355,-2.88882c0.24455,-0.01519 3.74197,-0.56366 4.38744,-0.37147c1.60129,0.47678 2.79577,1.87285 4.33519,2.52219c2.84539,1.20021 5.11226,2.37156 7.83497,3.92806c2.53002,1.44634 6.15455,2.30641 8.3278,4.26548c0.6081,0.54816 2.13926,3.33892 2.52558,4.01145c1.27729,3.65309 4.54198,5.33813 6.62843,8.35253c1.55855,2.2517 1.93071,4.06778 4.10187,6.0786c1.41217,1.30789 3.37425,1.97716 4.6804,3.39093c0.42155,0.45629 0.23327,1.25088 0.56014,1.77914c2.17222,3.51051 4.98716,8.5832 8.05372,11.37233c1.3465,1.22469 3.23405,1.74974 4.58851,2.96561c2.57833,2.31452 5.07662,5.3634 7.38626,7.9694c3.21679,3.27062 5.7817,7.7436 8.40167,11.56009c0.96796,1.41002 2.63124,2.24616 3.60844,3.6498c0.56083,0.80556 -0.19853,1.96065 -0.42347,2.91608c-0.5236,2.22406 -1.42932,3.61474 -2.2111,5.64795c-0.67158,1.74662 -0.59914,3.80912 -1.96941,5.35464c-0.14442,0.1629 -0.3113,0.30699 -0.49237,0.43803c-0.29746,0.05752 -0.5937,0.10832 -0.88843,0.15035h0.00003c0,0 -1.05074,0.15102 -1.25843,1.08219c-0.39795,0.27512 -0.72449,0.6041 -0.89224,1.05561c-0.51557,1.38769 0.72328,3.03281 0.25294,4.43647c-0.28125,0.83936 -0.81638,1.57308 -1.22418,2.35878c-1.10633,2.22412 -2.95248,6.33364 -4.98615,7.78468c-0.9407,0.67119 -3.39085,0.38221 -4.08681,0.37943c-2.21591,-0.00887 -6.07726,-0.14674 -8.17387,0.72868c-5.2722,2.20137 -0.52485,6.04653 -1.59361,9.35883c-0.12862,0.39862 -3.4686,2.71974 -3.52064,2.74824c-3.8869,2.12913 -9.22915,0.91193 -13.5244,1.66218c-4.22163,0.7551 -9.48618,0.97156 -13.76712,0.44691c-2.70861,-0.33196 -4.52077,-2.3266 -7.42831,-0.79549c-0.84233,0.44358 -1.17514,1.51555 -1.89434,2.13928c-0.76983,0.66763 -1.80992,0.99357 -2.54072,1.7037c-0.69121,0.67165 -0.96059,1.70407 -1.65629,2.37106c-0.46652,0.44725 -1.28597,0.40668 -1.73187,0.87448c-0.40537,0.42527 -0.25454,1.21003 -0.66122,1.63404c-1.01561,1.0589 -2.54754,1.48692 -3.91678,2.01406c-0.53717,0.2068 -3.16111,0.98914 -3.67773,0.59601c-1.69198,-1.28757 -2.10022,-2.75388 -2.78075,-4.62995c0.17366,-0.88903 -0.08891,-2.05947 0.46065,-2.77956c1.80072,-2.35947 6.03692,-4.92918 3.03889,-8.4913c-2.33951,-2.77969 -7.80046,-2.11018 -10.83898,-2.10805c-1.44687,0.00101 -3.20295,0.82572 -4.34373,-0.06425c-0.24772,-0.19325 -1.26702,-2.89767 -1.41159,-3.23582c-0.22595,-0.5285 -2.36146,-4.07402 -1.89505,-5.14332c1.08499,-2.48747 3.52721,-5.9304 5.43878,-7.81157c0.59361,-0.5976 1.74995,-0.86829 1.72442,-1.71022c-0.00754,-0.2486 0.02944,-0.56964 -0.00111,-0.79818c0.39722,-0.06721 0.73944,-0.04578 1.13819,-0.10254c-0.28979,-0.45086 -0.5186,-1.02768 -0.66489,-1.75911c-0.27964,-0.32078 -0.54069,-0.66074 -0.77809,-1.01557c-0.34211,0.05286 -0.68454,0.10875 -1.02552,0.16963c-1.61045,-1.68278 -4.41209,-1.93698 -6.82488,-1.21645c-2.68863,0.8029 -5.74365,3.25568 -8.09474,4.76903c-3.87935,2.49708 -7.72372,5.05112 -11.4107,7.8295c-2.37863,1.79246 -5.46917,5.13253 -8.45814,5.88548c-2.25551,0.56818 -4.20372,-2.08705 -5.6511,-2.98824c-0.03472,-0.02162 -0.06984,-0.04258 -0.10523,-0.06282c0.11261,-0.53181 0.21905,-1.06795 0.31155,-1.6035c1.53139,-1.6103 2.50274,-3.50302 3.36833,-5.66899c0.49265,-4.36329 2.08448,-8.73055 3.81375,-12.75575c0.70028,-1.63002 1.78028,-3.162 2.04695,-4.91592c0.49647,-3.26528 0.01284,-6.95805 0.01284,-10.26615c0,-1.41878 0.42298,-4.16181 -0.11431,-5.44153c-0.61591,-1.46697 -2.15912,-2.41249 -2.80031,-3.86859c-1.76773,-4.01439 -3.22478,-6.53582 -6.85129,-9.14823c-4.99317,-2.84068 -9.82582,-2.7502 -12.36931,-8.6667c-0.76339,-1.77575 0.18347,-3.76243 0.41157,-5.47238c0.50334,-3.77331 1.07949,-7.21423 2.59861,-10.75992c0.55581,-1.2973 1.38483,-4.50943 2.8861,-5.33183c2.01398,-1.10325 4.76561,-1.53093 6.95094,-2.17172c2.3493,-1.5426 4.47621,-3.05054 7.21652,-3.80598c5.2877,-1.45771 10.99852,-0.1007 16.37679,-0.9448c2.19658,-0.34474 3.82364,-1.29306 5.39246,-2.32824c-0.00001,0.00048 -0.00002,0.00096 -0.00003,0.00144c0.85353,-0.1531 1.70568,-0.32397 2.55069,-0.52844c0.29801,0.45653 0.59232,0.92576 0.90435,1.39592c0.32571,-0.10904 0.6538,-0.21037 0.98209,-0.30308c0.2797,-0.07899 1.60833,0.60453 2.94379,1.33803c-0.64552,-1.09672 -1.25575,-2.22562 -1.91499,-3.31237c1.21488,-0.47424 2.37274,-1.21344 3.49172,-2.01207c0.8295,-0.06283 1.66792,-0.17692 2.52579,-0.50687z" data-paper-data="{&quot;noHover&quot;:false,&quot;origItem&quot;:[&quot;Path&quot;,{&quot;applyMatrix&quot;:true,&quot;segments&quot;:[[[311.16489,130.17528],[0,0],[-0.85787,0.32995]],[[308.64103,130.68143],[0.8295,-0.06283],[-1.11898,0.79863]],[[305.15229,132.6922],[1.21488,-0.47424],[0.65924,1.08675]],[[307.06704,136.00468],[-0.64552,-1.09672],[-1.33546,-0.7335]],[[304.12482,134.66588],[0.2797,-0.07899],[-0.32829,0.09271]],[[303.14348,134.96857],[0.32571,-0.10904],[-0.31203,-0.47016]],[[302.23923,133.5726],[0.29801,0.45653],[-0.84501,0.20447]],[[299.69028,134.10006],[0.85353,-0.1531],[0.00001,-0.00048]],[[299.69031,134.09862],[-0.00001,0.00048],[-1.56882,1.03518]],[[294.30169,136.42436],[2.19658,-0.34474],[-5.37827,0.8441]],[[277.932,137.36296],[5.2877,-1.45771],[-2.74031,0.75544]],[[270.71876,141.16511],[2.3493,-1.5426],[-2.18533,0.64079]],[[263.76996,143.33384],[2.01398,-1.10325],[-1.50127,0.8224]],[[260.8858,148.66248],[0.55581,-1.2973],[-1.51912,3.54569]],[[258.29009,159.41625],[0.50334,-3.77331],[-0.2281,1.70995]],[[257.87965,164.88542],[-0.76339,-1.77575],[2.54349,5.9165]],[[270.24992,173.54863],[-4.99317,-2.84068],[3.62651,2.61241]],[[277.10231,182.69024],[-1.76773,-4.01439],[0.64119,1.4561]],[[279.90284,186.55537],[-0.61591,-1.46697],[0.53729,1.27972]],[[280.01702,191.99163],[0,-1.41878],[0,3.3081]],[[280.00252,202.2483],[0.49647,-3.26528],[-0.26667,1.75392]],[[277.95446,207.1607],[0.70028,-1.63002],[-1.72927,4.0252]],[[274.13733,219.90898],[0.49265,-4.36329],[-0.86559,2.16597]],[[270.76782,225.57597],[1.53139,-1.6103],[-0.0925,0.53555]],[[270.45583,227.17877],[0.11261,-0.53181],[0.03539,0.02024]],[[270.56102,227.24153],[-0.03472,-0.02162],[1.44738,0.90119]],[[276.20982,230.22649],[-2.25551,0.56818],[2.98897,-0.75295]],[[284.66773,224.3407],[-2.37863,1.79246],[3.68698,-2.77838]],[[296.07788,216.5105],[-3.87935,2.49708],[2.35109,-1.51335]],[[304.17141,211.74003],[-2.68863,0.8029],[2.41279,-0.72053]],[[310.99028,212.95064],[-1.61045,-1.68278],[0.34098,-0.06088]],[[312.01495,212.78033],[-0.34211,0.05286],[0.2374,0.35483]],[[312.79149,213.79473],[-0.27964,-0.32078],[0.14629,0.73143]],[[313.45442,215.55249],[-0.28979,-0.45086],[-0.39875,0.05676]],[[312.26039,215.73797],[0.39722,-0.06721],[0.03055,0.22854]],[[312.3179,216.45358],[-0.00754,-0.2486],[0.02553,0.84193]],[[310.53709,218.24638],[0.59361,-0.5976],[-1.91157,1.88117]],[[305.15525,225.97575],[1.08499,-2.48747],[-0.46641,1.0693]],[[307.04646,231.11666],[-0.22595,-0.5285],[0.14457,0.33815]],[[308.45564,234.3512],[-0.24772,-0.19325],[1.14078,0.88997]],[[312.79579,234.41385],[-1.44687,0.00101],[3.03852,-0.00213]],[[323.62408,236.51893],[-2.33951,-2.77969],[2.99803,3.56212]],[[320.56785,245.10871],[1.80072,-2.35947],[-0.54956,0.72009]],[[320.12588,247.79003],[0.17366,-0.88903],[0.68053,1.87607]],[[322.9039,252.41954],[-1.69198,-1.28757],[0.51662,0.39313]],[[326.57886,251.82324],[-0.53717,0.2068],[1.36924,-0.52714]],[[330.49261,249.80904],[-1.01561,1.0589],[0.40668,-0.42401]],[[331.1533,248.17499],[-0.40537,0.42527],[0.4459,-0.4678]],[[332.88371,247.30052],[-0.46652,0.44725],[0.6957,-0.66699]],[[334.5385,244.92952],[-0.69121,0.67165],[0.7308,-0.71013]],[[337.07686,243.226],[-0.76983,0.66763],[0.7192,-0.62373]],[[338.96925,241.08696],[-0.84233,0.44358],[2.90754,-1.53111]],[[346.39121,241.88378],[-2.70861,-0.33196],[4.28094,0.52465]],[[360.14803,241.44101],[-4.22163,0.7551],[4.29525,-0.75025]],[[373.66449,239.78413],[-3.8869,2.12913],[0.05204,-0.0285]],[[377.18262,237.03808],[-0.12862,0.39862],[1.06876,-3.3123]],[[378.77202,227.68369],[-5.2722,2.20137],[2.09661,-0.87542]],[[386.94328,226.95841],[-2.21591,-0.00887],[0.69596,0.00278]],[[391.02904,226.58053],[-0.9407,0.67119],[2.03367,-1.45104]],[[396.01203,218.8015],[-1.10633,2.22412],[0.4078,-0.7857]],[[397.23544,216.44441],[-0.28125,0.83936],[0.47034,-1.40366]],[[396.98145,212.01058],[-0.51557,1.38769],[0.16775,-0.45151]],[[397.87338,210.95584],[-0.39795,0.27512],[0.20769,-0.93117]],[399.13149,209.87461],[[399.13146,209.87461],[0,0],[0.29473,-0.04203]],[[400.0198,209.72454],[-0.29746,0.05752],[0.18107,-0.13104]],[[400.51205,209.28688],[-0.14442,0.1629],[1.37027,-1.54552]],[[402.48046,203.93602],[-0.67158,1.74662],[0.78178,-2.03321]],[[404.69084,198.29206],[-0.5236,2.22406],[0.22494,-0.95543]],[[405.11407,195.37796],[0.56083,0.80556],[-0.9772,-1.40364]],[[401.50545,191.73049],[0.96796,1.41002],[-2.61997,-3.81649]],[[393.10411,180.17935],[3.21679,3.27062],[-2.30964,-2.606]],[[385.71945,172.21762],[2.57833,2.31452],[-1.35446,-1.21587]],[[381.13217,169.2557],[1.3465,1.22469],[-3.06656,-2.78913]],[[373.08472,157.89501],[2.17222,3.51051],[-0.32687,-0.52826]],[[372.5256,156.11723],[0.42155,0.45629],[-1.30615,-1.41377]],[[367.84879,152.73043],[1.41217,1.30789],[-2.17116,-2.01082]],[[363.75204,146.65643],[1.55855,2.2517],[-2.08645,-3.0144]],[[357.13143,138.30891],[1.27729,3.65309],[-0.38632,-0.67253]],[[354.609,134.29895],[0.6081,0.54816],[-2.17325,-1.95907]],[[346.2886,130.03599],[2.53002,1.44634],[-2.72271,-1.5565]],[[338.4604,126.10917],[2.84539,1.20021],[-1.53942,-0.64934]],[[334.12876,123.58725],[1.60129,0.47678],[-0.64547,-0.19219]],[[329.74473,123.95875],[0.24455,-0.01519],[-4.48374,0.27846]],[[317.3211,126.84631],[4.29013,-1.04634],[-2.39384,0.58384]],[[312.01219,128.25532],[2.26639,-1.11612],[0.52547,1.37082]],[311.16487,130.17526]],&quot;closed&quot;:true,&quot;fillColor&quot;:[0,0,0,1],&quot;strokeWidth&quot;:0.5}]}" fill="#fcf8d2" stroke="none" stroke-width="0.25"/><path d="M299.8456,155.17484c-0.17589,0.44409 -0.38836,0.90537 -0.6296,1.38189c-0.04807,-0.71178 0.01518,-1.3954 0.16921,-2.04987c0.31123,0.32771 0.49739,0.57457 0.4604,0.66797z" fill="#000000" stroke="none" stroke-width="0.5"/><path d="M156.65801,321.58484v-277.04485h324.53826v277.04486z" fill="none" stroke="#000000" stroke-width="0"/></g></g></svg>