<svg version="1.1" xmlns="http://www.w3.org/2000/svg" xmlns:xlink="http://www.w3.org/1999/xlink" width="324.53826" height="277.04486" viewBox="0,0,324.53826,277.04486"><g transform="translate(-156.658,-44.53998)"><g data-paper-data="{&quot;isPaintingLayer&quot;:true}" fill-rule="nonzero" stroke-linecap="butt" stroke-linejoin="miter" stroke-miterlimit="10" stroke-dasharray="" stroke-dashoffset="0" style="mix-blend-mode: normal"><path d="M249.14022,229.59294c0,-1.0425 0.72454,-1.36046 1.16651,-1.45744c1.05637,-1.02561 2.16687,-1.99578 3.28469,-2.95411c1.15417,-0.84822 2.42458,-1.55295 3.7721,-2.14631c0.21365,-0.35948 0.4231,-0.71677 0.62704,-1.07324c0.10119,0.22888 0.2032,0.45723 0.30952,0.68307c4.88924,-1.92656 10.63326,-2.54885 15.4956,-3.29276c3.98259,-0.60932 7.88832,-1.81498 11.84873,-2.47352c2.87826,-1.23303 5.66446,-2.28637 8.91645,-2.71516c4.03073,-0.53147 8.15962,-0.2881 12.28193,-0.1476c0.44145,-0.50965 1.17182,-0.50965 1.17182,-0.50965c1.85738,0 3.70307,-0.15014 5.47901,-0.50285c0.6312,-0.57833 1.25689,-1.16321 1.89643,-1.73624c0.99491,0.06923 1.99045,0.11217 2.98684,0.1076c2.42557,-1.20885 4.55788,-3.0082 6.18994,-5.58498c0.41712,-0.65858 0.31212,-1.60526 0.83292,-2.18534c0.47775,-0.53214 1.34075,-0.52351 1.94396,-0.90764c1.76548,-1.12429 3.32906,-2.89652 4.593,-4.71821c-0.01249,-0.05144 -0.02531,-0.1025 -0.03845,-0.15321c0.70352,-1.82131 1.07997,-4.12519 0.91087,-6.27861c-2.106,0 -4.21201,0 -6.31801,0c-9.12622,0 -18.10206,0.76457 -27.02047,1.9304c-7.53351,0.98479 -15.24772,0.3635 -22.80528,1.3082c-7.71984,0.00833 -16.65587,5.00232 -22.42391,9.98647c-1.16119,1.00338 -2.50293,1.69462 -3.86223,2.35011c0.00906,0.16913 0.02232,0.33713 0.03968,0.50392c-0.5713,0.03532 -1.14178,0.07245 -1.65861,0.27811c-0.7238,0.36029 -1.43396,0.74196 -2.10524,1.18785c-1.44905,0.96253 -2.76384,2.47816 -4.191,3.54878c0,0 -1.10346,0.8276 -1.98771,-0.16258c-0.99938,0.79308 -2.01557,1.57632 -3.07613,2.32909c-3.38793,4.10117 -7.05338,7.98204 -10.68322,11.8786c-1.06197,1.14 -5.2987,3.84549 -5.38455,5.70221c-0.07023,1.51896 0.7928,2.95808 1.47711,4.31598c3.44423,6.83446 8.72621,9.97669 14.48191,14.59024c3.23246,1.81963 6.49568,3.47332 9.78705,5.149c0.69294,0.35279 1.24603,1.01491 2.00183,1.19763c0.90187,0.21804 1.86079,-0.14054 2.78327,-0.04078c6.23396,0.67413 12.43489,1.64509 18.79092,1.28942c5.06421,-0.28338 10.40072,-0.83734 15.44168,0.00282c1.40298,0.00134 2.91491,0.10098 4.43894,0.29436c-1.85569,-6.43014 -1.59898,-14.37602 3.93806,-18.01316c3.4802,-2.28605 8.19889,-2.97627 12.06874,-4.5632c0.87599,-0.35922 1.82449,-0.52096 2.70077,-0.87947c0.41381,-0.1693 1.41883,-0.60902 1.04021,-0.84682c-2.30683,-1.44886 -6.46358,-0.54949 -9.07541,-0.54949c-1.98033,0 -4.14095,-0.26445 -6.0788,0.26867c-1.80716,0.49716 -3.34784,1.71063 -5.10665,2.33901c-2.04584,0.73093 -4.02403,0.89335 -5.90824,1.9181c-4.03226,2.19298 -8.34841,5.62183 -12.66719,7.09334c-0.45219,0.15407 -0.99602,-0.25983 -1.43172,-0.06393c-0.50603,0.22752 -0.64512,0.95666 -1.13464,1.21781c-0.3071,0.16383 -5.06938,1.28986 -5.12138,1.30706c-3.07589,1.01736 -5.74715,1.6751 -8.97423,2.21052c-1.18374,0.0641 -2.40126,0.48025 -3.55123,0.19229c-2.84788,-0.71312 -2.59209,-1.93731 -3.82314,-3.91904c-1.87358,-3.01607 -5.37691,-6.7847 -3.99055,-10.74806c0.84169,-2.40624 3.55494,-4.18132 6.01099,-5.61257c-0.17126,-0.21806 -0.29052,-0.52175 -0.29052,-0.9447zM292.01056,217.92357c0,1.5 -1.5,1.5 -1.5,1.5c-1.66086,-0.01202 -3.1564,0.27317 -4.64543,0.62788c-0.35029,0.15346 -0.7035,0.30879 -1.06095,0.465c-1.45153,0.63438 -2.71711,1.7621 -4.26602,2.09419c-2.6017,0.55781 -5.78287,0.29661 -8.68703,0.12831c0.00127,-0.00094 0.00254,-0.00187 0.00381,-0.00281c-0.37443,0.07115 -0.7478,0.14376 -1.11985,0.21814c-3.18487,0.6367 -6.84761,1.01881 -10.1582,2.04929c-0.49899,0.50953 -0.62915,1.34291 -1.16442,1.82409c-0.56089,0.50422 -1.43474,0.54781 -2.01448,1.03024c-1.32752,1.10471 -2.22775,2.71265 -3.68033,3.64684c-2.25621,1.45102 -6.4383,3.0314 -7.52634,5.7935c-0.96773,2.4567 2.70756,6.27689 3.78903,8.05259c0.53374,0.87637 0.66343,2.35224 2.01155,2.56394c0.8054,0.12648 1.62073,-0.17859 2.43109,-0.26789c3.04782,-0.50872 5.49173,-1.12461 8.39549,-2.08121c1.49224,-0.49159 3.22077,-0.30143 4.58978,-1.07231c0.58229,-0.32788 0.84698,-1.10606 1.45855,-1.37538c0.55244,-0.24328 1.23573,0.12275 1.80977,-0.06393c4.05014,-1.31714 8.22362,-4.81216 12.02671,-6.84158c2.0565,-1.0974 4.06575,-1.29407 6.26315,-2.07852c1.84642,-0.65916 3.44542,-1.90285 5.35385,-2.41989c2.23884,-0.60656 4.59891,-0.37963 6.88717,-0.37963c2.39095,0 6.23875,-0.70643 8.48873,0.05025c2.36277,0.79461 4.50614,2.13888 3.236,5.01687c-0.90015,2.03964 -3.58302,2.29445 -5.2472,2.98234c-4.17723,1.72666 -9.16392,2.35734 -12.62783,5.28222c-1.11015,0.9374 -2.24855,1.33035 -2.41126,2.9517c-0.22602,2.2522 0.11372,5.63517 0.33045,7.93128c0.13284,1.40735 0.40245,2.84031 0.84106,4.20096c1.43473,0.314 2.81594,0.71176 4.05735,1.18922l0.41536,-0.10728c0,0 1.5,0 1.5,1.5c0,1.5 -1.5,1.5 -1.5,1.5l-0.6489,-0.04552c4.53699,2.39849 9.41083,2.23189 14.91147,2.23189c10.16254,0 23.31914,1.39227 31.73868,-5.45238c0.57767,-0.57806 1.29618,-1.22413 2.00825,-1.9186l-1.36201,0.29324c0,0 -1.47087,0.29417 -1.76505,-1.1767l0.00001,0.00001c-0.29417,-1.47087 1.1767,-1.76505 1.1767,-1.76505l1.34089,-0.2391c1.12385,-0.72601 2.35503,-1.19976 3.64626,-1.50788c1.12115,-3.45814 0.9401,-6.80837 0.67388,-10.42545c-0.16903,-2.29646 -0.24798,-3.81021 -0.92487,-5.89687c-0.27316,-0.84207 -1.02204,-1.73329 -0.70602,-2.56023c1.26918,-3.32119 5.02139,-2.4142 7.60927,-2.4142c1.79645,0 4.96037,-0.37901 6.78458,0.03063c3.52063,0.79059 7.26725,2.61988 10.36901,4.39943c2.13835,1.22485 4.89532,2.20049 6.40476,4.26317c2.57112,3.51349 2.52192,8.10565 4.02389,12.05233c0.42234,0 0.84468,0 1.26701,0c0,0 1.5,0 1.5,1.5c0,1.07376 -0.76864,1.37888 -1.20547,1.46558c2.81101,4.08426 6.70167,5.13453 11.69901,5.13813c0.47735,0.00034 3.18886,0.04194 3.47246,-0.12807c2.45476,-1.47159 3.22854,-7.42074 3.80523,-9.89457c0.80971,-5.45187 -4.41139,-4.41884 -7.62209,-7.45009c-2.16965,-2.04839 -1.52371,-2.82901 -2.44492,-5.4776c-0.46158,-1.3271 -1.40927,-2.43156 -2.08396,-3.66405c-1.3926,-2.54391 -1.73815,-5.57047 -2.97046,-8.20749c-0.28039,-0.60001 -3.17938,-5.5911 -2.97829,-5.97161c0.6006,-1.13645 2.25029,-1.29034 3.48271,-1.65555c2.21401,-0.65609 5.10373,-0.12716 7.46848,-0.67557c4.06472,-0.17824 8.19461,-0.49273 12.26415,-0.30742c3.71152,0.169 6.47794,0.60712 10.04726,-0.86222c0.17656,-0.07268 0.35093,-0.15171 0.52235,-0.23658c-0.17613,-0.37857 -0.43838,-1.25832 0.51619,-1.89471c0.84784,-0.56523 1.5037,-0.17053 1.83715,0.14074c1.68307,-1.86936 1.95655,-4.35891 -1.37306,-5.98979c-4.3521,-2.13171 -10.64432,-1.12136 -15.33897,-1.13466c-5.43055,-1.08611 -10.70307,1.6228 -15.95514,-0.41889c-2.21801,-0.86223 -4.45155,-2.63635 -6.26046,-4.14322c-0.52825,-0.44005 -1.74152,-2.02927 -2.67233,-2.29215c-1.54686,-0.43687 -3.62794,0.22858 -5.25794,0.04713c-5.58416,-0.62162 -8.33687,-4.99335 -9.73784,-9.89131c-0.21167,-1.07662 -0.88973,-3.56217 -0.0639,-4.4982c1.67247,-1.89565 6.30792,-1.58031 8.57037,-2.16125c3.79662,-0.97488 7.30305,-3.21151 10.61463,-5.19846c1.53871,-0.92323 3.41632,-1.65887 4.71896,-2.89084c0.5053,-0.47789 -3.7294,-3.4365 -3.90743,-3.58878c-2.96719,-2.53804 -5.39734,-4.73473 -7.53683,-8.00738c-1.09806,-4.76654 -2.06515,-9.80863 -2.69419,-14.61102c-0.22047,-1.68315 0.47369,-3.5265 -0.18965,-5.08905c-1.54382,-3.63656 -6.43681,-4.17397 -9.73435,-5.04631c-4.51363,-1.19405 -8.65379,-2.28684 -13.20465,-2.88302c-2.50216,-0.32779 -4.8354,-1.72607 -7.29059,-2.32493c-3.66382,-1.47184 -7.35895,-0.05048 -11.21028,-0.93608c-8.60116,-1.97779 -15.39281,-7.49905 -24.45536,-7.8707c-3.99278,-0.16374 -7.40577,-0.76899 -10.05708,2.51179c-3.72125,4.25995 -9.47015,3.81182 -14.65353,4.40958c-0.72093,0.08314 -4.11256,1.18567 -4.76056,1.29406c-1.36826,0.22886 -1.95414,-0.28044 -3.27895,0.25471c-2.31846,0.93653 -2.08086,1.50369 -4.21607,2.26979c-3.48064,1.24882 -9.27378,3.2828 -11.19013,6.79385c-1.04436,1.91344 -1.08279,3.04268 -1.48447,5.15843c-0.23311,4.42439 -0.05927,9.14075 -0.59613,13.50925c-0.24745,2.01355 -1.39692,4.81786 -0.74693,6.90745c0.49481,1.5907 4.7669,3.05776 6.06292,3.52024c2.6359,0.94061 5.36354,1.3281 8.10807,1.35269c1.34563,-0.3814 2.79543,-0.38856 4.28235,-0.22902c1.742,-0.19139 3.47511,-0.48935 5.18011,-0.84511c2.58364,-0.53908 4.93725,-1.46846 7.59607,-1.47817c3.35893,-0.56864 7.24636,-1.27311 10.59976,-0.26708c0.34735,0.10421 0.67376,0.25738 0.98983,0.43512c1.00108,0.05236 1.99963,0.15098 2.79668,0.15098h0.00001c2.64126,0.00774 4.42073,0.8539 6.39314,1.78146c3.3709,-0.37997 6.85768,-1.12241 9.9037,-0.10259c3.43001,1.14839 5.50903,4.2399 8.03671,6.47804c1.14124,1.01052 2.55424,1.73227 3.5399,2.89505c1.50962,0.94615 2.56336,2.36741 3.23243,4.02954c0.75345,0.66475 1.37781,1.33795 1.67822,1.95513c0.98652,2.02677 -0.15556,5.6404 -0.58518,7.67979c-0.51301,0.90953 -1.03432,1.74176 -1.58705,2.52732c-0.14512,0.326 -0.3,0.63969 -0.46399,0.93896c-0.45573,0.83164 -1.05992,1.51032 -1.73961,2.1097c0.01083,-0.11793 0.0204,-0.23762 0.02868,-0.35911c-0.34707,0.37621 -0.71042,0.74973 -1.0934,1.12498c-1.00497,0.98469 -2.65598,1.18832 -3.56176,2.26495c-0.37906,0.45055 -0.14653,1.20836 -0.46368,1.70444c-1.233,1.92866 -4.37031,4.83811 -6.21694,6.25077c-1.09133,0.83486 -2.31316,1.42906 -3.60578,1.85176c-0.05442,1.20931 -1.33625,1.35173 -1.33625,1.35173c-0.83999,0.09269 -1.6839,0.15413 -2.53069,0.19217c-0.73443,0.61656 -1.49594,1.20661 -2.31004,1.7463c-0.05718,0.40254 -0.31564,1.3122 -1.48375,1.3122c-1.5,0 -1.5,-1.5 -1.5,-1.5l0.57894,-1.53788c-4.63767,-0.11781 -9.30266,-0.49919 -13.82612,0.11158c-1.00739,0.13602 -1.96211,0.33784 -2.88599,0.5892c0.00551,0.06013 0.0084,0.12301 0.0084,0.18878zM252.22539,202.55021c0.98598,-0.86731 1.68379,-2.08747 2.81262,-2.75837c3.50069,-2.08056 7.54554,-3.16168 11.0387,-5.19711c3.50588,-2.04285 6.25123,-2.8084 10.40223,-2.80359c7.47154,-0.93394 15.13888,-0.27228 22.57559,-1.285c9.04305,-1.23147 18.1832,-1.95939 27.43658,-1.95939c1.5655,0 3.131,0 4.6965,0c-1.1632,-1.13347 -2.35502,-2.27961 -3.77193,-3.00601c-1.1765,-0.60315 -2.54892,-0.72697 -3.76765,-1.23945c-2.93839,-1.23559 -6.4711,-3.19141 -9.05507,-5.03119c-0.4081,-0.29056 -0.5346,-0.92683 -0.99356,-1.12764c-0.4423,-0.19352 -0.99433,0.22728 -1.44712,0.05975c-1.02103,-0.37776 -1.88997,-0.81247 -2.71711,-1.22718c-2.31898,0.25021 -4.60614,0.33873 -6.71751,-0.40348c-0.90283,-0.31737 -1.66232,-0.96475 -2.4884,-1.45349c-0.59958,-0.00448 -1.15617,0.03967 -1.59452,0.18111c-1.86167,0.6007 -3.41161,2.01895 -5.30571,2.50788c-2.14372,0.55336 -6.14297,0.94967 -8.43537,0.76996c-3.01482,-0.23633 -5.94665,-0.96867 -8.96984,-0.96867c-0.3996,0 -0.81878,-0.05391 -1.23735,-0.10063c-0.61726,0.03397 -1.23463,0.05353 -1.85147,0.05702c-0.08476,0.02745 -0.16785,0.06023 -0.24903,0.09907c-1.60212,-0.4929 -3.11826,-0.60912 -4.56341,-0.43013c-1.61395,-0.24287 -3.21211,-0.62865 -4.78226,-1.18803c-2.34762,-0.83636 -6.82215,-2.58212 -7.82708,-5.19796c-0.99594,-2.59243 0.22702,-5.95159 0.54967,-8.48639c0.55137,-4.33163 0.34548,-9.04677 0.58709,-13.44151c0.5129,-2.66773 0.53091,-3.86211 1.87039,-6.30573c1.72071,-3.13909 4.48669,-3.86417 7.38868,-5.42593c5.85188,-3.14932 11.53422,-5.84449 18.27097,-6.6521c4.07365,-0.48836 9.99484,0.15517 12.74031,-3.37c0.7692,-0.86008 1.37195,-1.90498 2.30759,-2.58024c2.52433,-1.82186 7.2854,-1.11427 10.16565,-0.99243c2.85583,0.12081 5.80859,0.36832 8.57692,1.1669c5.62601,1.62292 10.63468,5.43695 16.3985,6.77135c3.95674,0.91604 7.61467,-0.53096 11.48015,1.00882c2.28025,0.5562 4.49368,1.93944 6.80666,2.21315c4.68631,0.55456 8.91647,1.72789 13.54089,2.95166c4.20503,1.11279 9.70293,2.03489 11.65949,6.62306c0.97371,2.28336 0.15645,3.62926 0.45864,5.93202c0.59978,4.57031 1.52394,9.35444 2.4922,13.9141c2.32839,3.40291 5.41331,5.91689 8.62698,8.48836c0.89115,0.71306 2.80748,1.9044 3.09839,3.01092c0.86097,3.27485 -2.80912,4.69164 -4.87783,5.93485c-3.9964,2.40168 -8.10931,5.11998 -12.68267,6.3164c-1.84031,0.48143 -5.41949,0.15236 -6.98879,1.08024c-0.59367,0.35102 0.4463,1.30907 0.5844,1.98478c1.02122,3.57873 2.8439,7.25246 7.11791,7.61274c1.79456,0.15127 4.04089,-0.4864 5.76313,0.04713c3.54263,1.09746 5.66817,5.18287 9.21956,6.53059c4.82938,1.83271 10.05762,-0.7917 15.16318,0.22941c5.05696,-0.01619 11.80499,-1.02264 16.42765,1.45853c5.0159,2.69223 5.27902,8.10828 1.52767,11.47756c0.28339,1.02989 0.38985,2.13004 0.54969,3.18379c0.55878,3.68358 2.25835,6.80332 1.27943,10.69386c-0.66681,2.65012 -2.05376,3.26952 -3.57274,5.16921c-1.05623,1.32096 -1.49409,3.10348 -2.68258,4.30683c-3.15464,3.19405 -7.5019,6.74134 -11.22415,9.23866c0,0 -0.36916,0.24611 -0.83979,0.26985c-0.04595,0.33871 -0.09313,0.70077 -0.13271,1.09348c-0.67083,2.88301 -1.324,6.47107 -2.8695,9.04658c-2.07694,3.46113 -3.73282,3.45382 -7.36282,3.45628c-6.50393,0.00441 -11.67925,-1.88091 -15.04085,-7.83526c-0.05028,-0.08905 -0.09943,-0.17855 -0.14751,-0.26848c-7.7719,0 -15.5438,0 -23.3157,0l0.00003,-0.00001c-2.19155,0 -4.58478,-0.12069 -6.82826,0.18461c-1.19285,2.24378 -3.51497,4.22509 -5.207,5.91607c-8.52091,6.7354 -20.4217,6.21699 -30.73944,6.21699c-5.08584,0 -11.00433,0.68514 -15.9241,-0.78959c-3.01491,-0.90374 -5.06893,-2.63717 -7.383,-4.64953c-0.1994,-0.39282 -0.39156,-0.80168 -0.57522,-1.22425c-1.99515,-0.32604 -4.0489,-0.47476 -5.82165,-0.47303c-4.91176,-0.81863 -10.09375,-0.2694 -15.02834,0.00282c-6.51873,0.3596 -12.89892,-0.57563 -19.29336,-1.30377c-1.06544,-0.12132 -2.17634,0.21897 -3.21673,-0.04078c-4.27215,-1.06662 -8.88367,-4.59683 -12.69932,-6.76095c-6.165,-4.92266 -11.84072,-8.39409 -15.48693,-15.73815c-1.34953,-2.71817 -2.06343,-2.55768 -1.76438,-6.05679c0.21822,-2.55334 2.53071,-3.72545 4.16012,-5.25812c4.58046,-4.30852 8.79748,-9.30692 12.83531,-14.11406c1.2401,-0.90416 2.47407,-1.95887 3.72444,-3.05492c0.12184,-0.71937 0.84122,-1.07906 0.84122,-1.07906h0.00001c0.28627,-0.14293 0.573,-0.28163 0.86005,-0.41685c0.93275,-0.81625 1.87982,-1.62826 2.85014,-2.39272c-0.00086,-0.0208 -0.00129,-0.04171 -0.00129,-0.06273c0,-0.41421 0.16789,-0.78921 0.43934,-1.06066l1.2966,-1.2966l0.18784,0.18784l0.29879,-0.513c2.29765,-0.07826 4.12249,-1.21134 6.18163,-1.87857c-0.51498,0.77377 -0.92503,1.62339 -1.20983,2.52852c0.49348,-0.30397 0.96487,-0.63928 1.40134,-1.02322zM417.19018,239.52842c1.14565,-1.1274 1.49944,-2.86613 2.5038,-4.12105c1.5321,-1.91431 3.22152,-2.61317 3.19026,-5.50772c-0.03022,-2.7979 -1.17953,-5.14608 -1.59378,-7.80263c-0.10267,-0.6584 -0.12328,-1.35919 -0.21988,-2.03033c-3.79207,1.85126 -7.79582,1.49609 -11.98324,1.30258c-3.8899,-0.17976 -7.83847,0.12982 -11.72504,0.28357c-1.87079,0.42963 -3.79771,0.69016 -5.7172,0.68808c-0.10557,-0.00011 -0.87569,0.05197 -1.58786,-0.00159c0.75859,0.95183 1.28741,2.5987 1.65203,3.381c2.24532,4.81737 3.97014,9.98389 5.84569,14.93515c1.35386,3.57405 5.86081,2.73264 8.08515,5.02601c0.82405,0.84962 1.28585,1.55239 1.52504,2.22407c3.41486,-2.35939 7.15752,-5.55531 10.02504,-8.37715zM358.32742,253.70072c7.36327,0 14.72653,0 22.0898,0c-0.85513,-2.73685 -1.23839,-5.65773 -2.1704,-8.34677c-1.03486,-2.98581 -4.10515,-3.93944 -6.59803,-5.36686c-2.85124,-1.64533 -6.25953,-3.29423 -9.47872,-4.06253c-1.58771,-0.37892 -4.68662,0.03063 -6.18138,0.03063c-0.10177,0 -4.66685,-0.33583 -4.70839,0.17899c-0.05406,0.66993 1.38842,3.37114 1.48067,4.47162c0.3735,4.45573 0.90124,8.86027 -0.16025,13.17496c1.9105,-0.13379 3.86329,-0.08003 5.7267,-0.08003zM316.34711,176.83637c2.09443,1.4436 4.5492,2.51608 6.71866,3.83068c0.63194,0.38293 1.27989,0.68374 1.93352,0.94939c-1.68367,-1.77584 -3.4274,-3.96821 -5.72884,-4.71451c-1.09455,-0.35493 -2.23665,-0.49258 -3.40619,-0.50643c0.14858,0.16369 0.30446,0.31791 0.48285,0.44087zM286.47297,175.58809c1.82856,-0.19573 4.38984,-0.24652 6.109,-0.68652c0.32803,-0.08396 0.80375,-0.28973 1.34255,-0.55027c-1.47087,0.15983 -2.92884,0.43964 -4.26269,0.65876c-1.42521,-0.0056 -2.75601,0.28393 -4.08687,0.62974c0.30452,-0.00378 0.6041,-0.02024 0.89801,-0.0517z" fill="#000000" stroke="none" stroke-width="0.5"/><path d="M417.2346,239.55137c-2.86752,2.82184 -6.6521,6.04473 -10.06696,8.40412c-0.23919,-0.67168 -0.70702,-1.37451 -1.53107,-2.22413c-2.22434,-2.29337 -6.76778,-1.47189 -8.12164,-5.04594c-1.87555,-4.95126 -3.60396,-10.17216 -5.84928,-14.98953c-0.36462,-0.7823 -0.89059,-2.43368 -1.64918,-3.38551c0.71217,0.05356 1.48375,-0.00047 1.58932,-0.00036c1.91949,0.00208 3.85603,-0.26779 5.72682,-0.69742c3.88657,-0.15375 7.875,-0.47207 11.7649,-0.29231c4.18742,0.19351 8.21721,0.56314 12.00928,-1.28812c0.0966,0.67114 0.12002,1.37514 0.22269,2.03354c0.41425,2.65655 1.57308,5.02394 1.6033,7.82184c0.03126,2.89455 -1.65697,3.61083 -3.18907,5.52514c-1.00436,1.25492 -1.36345,3.01127 -2.5091,4.13867z" data-paper-data="{&quot;noHover&quot;:false,&quot;origItem&quot;:[&quot;Path&quot;,{&quot;applyMatrix&quot;:true,&quot;segments&quot;:[[[417.19018,239.52842],[0,0],[1.14565,-1.1274]],[[419.69398,235.40737],[-1.00436,1.25492],[1.5321,-1.91431]],[[422.88424,229.89965],[0.03126,2.89455],[-0.03022,-2.7979]],[[421.29046,222.09702],[0.41425,2.65655],[-0.10267,-0.6584]],[[421.07058,220.06669],[0.0966,0.67114],[-3.79207,1.85126]],[[409.08734,221.36927],[4.18742,0.19351],[-3.8899,-0.17976]],[[397.3623,221.65284],[3.88657,-0.15375],[-1.87079,0.42963]],[[391.6451,222.34092],[1.91949,0.00208],[-0.10557,-0.00011]],[[390.05724,222.33933],[0.71217,0.05356],[0.75859,0.95183]],[[391.70927,225.72033],[-0.36462,-0.7823],[2.24532,4.81737]],[[397.55496,240.65548],[-1.87555,-4.95126],[1.35386,3.57405]],[[405.64011,245.68149],[-2.22434,-2.29337],[0.82405,0.84962]],[[407.16515,247.90556],[-0.23919,-0.67168],[3.41486,-2.35939]],[[417.19019,239.52841],[-2.86752,2.82184],[0,0]]],&quot;closed&quot;:true,&quot;fillColor&quot;:[0,0,0,1]}]}" fill="#fce36c" stroke="none" stroke-width="0.5"/><path d="M358.29521,253.73897c-1.86341,0 -3.82533,-0.06389 -5.73583,0.0699c1.06149,-4.31469 0.52745,-8.76251 0.15395,-13.21824c-0.09225,-1.10048 -1.53009,-3.81202 -1.47603,-4.48195c0.04154,-0.51482 4.61236,-0.18682 4.71413,-0.18682c1.49476,0 4.61175,-0.42239 6.19946,-0.04347c3.21919,0.7683 6.68524,2.43155 9.53648,4.07688c2.49288,1.42742 5.57454,2.41521 6.6094,5.40102c0.93201,2.68904 1.30796,5.6337 2.16309,8.37055c-7.36327,0 -14.80137,0.01212 -22.16464,0.01212z" data-paper-data="{&quot;noHover&quot;:false,&quot;origItem&quot;:[&quot;Path&quot;,{&quot;applyMatrix&quot;:true,&quot;segments&quot;:[[[358.32742,253.70072],[0,0],[7.36327,0]],[[380.41722,253.70072],[-7.36327,0],[-0.85513,-2.73685]],[[378.24682,245.35395],[0.93201,2.68904],[-1.03486,-2.98581]],[[371.64879,239.98709],[2.49288,1.42742],[-2.85124,-1.64533]],[[362.17007,235.92456],[3.21919,0.7683],[-1.58771,-0.37892]],[[355.98869,235.95519],[1.49476,0],[-0.10177,0]],[[351.2803,236.13418],[0.04154,-0.51482],[-0.05406,0.66993]],[[352.76097,240.6058],[-0.09225,-1.10048],[0.3735,4.45573]],[[352.60072,253.78076],[1.06149,-4.31469],[1.9105,-0.13379]],[[358.32742,253.70073],[-1.86341,0],[0,0]]],&quot;closed&quot;:true,&quot;fillColor&quot;:[0,0,0,1]}]}" fill="#fce36c" stroke="none" stroke-width="0.5"/><path d="M249.18967,229.58545c0,0.42295 0.11897,0.72493 0.29023,0.94299c-2.45605,1.43125 -5.17083,3.20027 -6.01252,5.60651c-1.38636,3.96336 2.10982,7.71788 3.9834,10.73395c1.23105,1.98173 0.97042,3.20021 3.8183,3.91333c1.14997,0.28796 2.36495,-0.13059 3.54869,-0.19469c3.22708,-0.53542 5.89028,-1.19896 8.96617,-2.21632c0.052,-0.0172 4.80691,-1.14672 5.11401,-1.31055c0.48952,-0.26115 0.62724,-0.99078 1.13327,-1.2183c0.4357,-0.1959 0.97645,0.21705 1.42864,0.06298c4.31878,-1.47151 8.59862,-4.89649 12.63088,-7.08947c1.88421,-1.02475 3.84823,-1.17617 5.89407,-1.9071c1.75881,-0.62838 3.29224,-1.83129 5.0994,-2.32845c1.93785,-0.53312 4.09611,-0.26331 6.07644,-0.26331c2.61183,0 6.76738,-0.89573 9.07421,0.55313c0.37862,0.2378 -0.53075,0.70664 -0.94456,0.87594c-0.87628,0.35851 -1.82566,0.52274 -2.70165,0.88196c-3.86985,1.58693 -8.59826,2.29295 -12.07846,4.579c-5.53704,3.63714 -5.81227,11.59585 -3.95658,18.02599c-1.52403,-0.19338 -3.04146,-0.29119 -4.44444,-0.29253c-5.04096,-0.84016 -10.39987,-0.28538 -15.46408,-0.002c-6.35603,0.35567 -12.57835,-0.62502 -18.81231,-1.29915c-0.92248,-0.09976 -1.88336,0.25721 -2.78523,0.03917c-0.7558,-0.18272 -1.31085,-0.84664 -2.00379,-1.19943c-3.29137,-1.67568 -6.56175,-3.33804 -9.79421,-5.15767c-5.7557,-4.61355 -11.04473,-7.77285 -14.48896,-14.60731c-0.68431,-1.3579 -1.548,-2.801 -1.47777,-4.31996c0.08585,-1.85672 4.32221,-4.56715 5.38418,-5.70715c3.62984,-3.89656 7.29695,-7.79159 10.68488,-11.89276c1.06056,-0.75277 2.07791,-1.53976 3.07729,-2.33284c0.88425,0.99018 1.98794,0.16193 1.98794,0.16193c1.42716,-1.07062 2.74479,-2.59258 4.19384,-3.55511c0.67128,-0.44589 1.38297,-0.83022 2.10677,-1.19051c0.51683,-0.20566 1.08824,-0.24425 1.65954,-0.27957c-0.01736,-0.16679 -0.03028,-0.3353 -0.03934,-0.50443c1.3593,-0.65549 2.70519,-1.352 3.86638,-2.35538c5.76804,-4.98415 14.74052,-9.99466 22.46036,-10.00299c7.55756,-0.9447 15.30119,-0.31434 22.8347,-1.29913c8.91841,-1.16583 17.90678,-1.91772 27.033,-1.91772c2.106,0 4.21349,0.0023 6.31949,0.0023c0.1691,2.15342 -0.20542,4.46079 -0.90894,6.2821c0.01314,0.05071 0.02602,0.10188 0.03851,0.15332c-1.26394,1.82169 -2.82668,3.5957 -4.59216,4.71999c-0.60321,0.38413 -1.4662,0.37552 -1.94395,0.90766c-0.5208,0.58008 -0.41516,1.52824 -0.83228,2.18682c-1.63206,2.57678 -3.76324,4.37914 -6.18881,5.58799c-0.99639,0.00457 -2.08621,-0.00505 -3.08112,-0.07428c-0.63954,0.57303 -1.26565,1.15672 -1.89685,1.73505c-1.77594,0.35271 -3.62097,0.50468 -5.47835,0.50468c0,0 -0.7304,-0.00008 -1.17185,0.50957c-4.12231,-0.1405 -8.24657,-0.3747 -12.2773,0.15677c-3.25199,0.42879 -6.03159,1.49036 -8.90985,2.72339c-3.96041,0.65854 -7.80663,1.87284 -11.78922,2.48216c-4.86234,0.74391 -10.58089,1.32951 -15.47013,3.25607c-0.10632,-0.22584 -0.20859,-0.45258 -0.30978,-0.68146c-0.20394,0.35647 -0.41296,0.71085 -0.62661,1.07033c-1.34752,0.59336 -2.61759,1.29261 -3.77176,2.14083c-1.11782,0.95833 -2.22858,1.92296 -3.28495,2.94857c-0.44197,0.09698 -1.16681,0.41261 -1.16681,1.45511z" data-paper-data="{&quot;noHover&quot;:false,&quot;origItem&quot;:[&quot;Path&quot;,{&quot;applyMatrix&quot;:true,&quot;segments&quot;:[[[249.14022,229.59294],[0,0],[0,-1.0425]],[[250.30673,228.1355],[-0.44197,0.09698],[1.05637,-1.02561]],[[253.59142,225.18139],[-1.11782,0.95833],[1.15417,-0.84822]],[[257.36352,223.03508],[-1.34752,0.59336],[0.21365,-0.35948]],[[257.99056,221.96184],[-0.20394,0.35647],[0.10119,0.22888]],[[258.30008,222.64491],[-0.10632,-0.22584],[4.88924,-1.92656]],[[273.79568,219.35215],[-4.86234,0.74391],[3.98259,-0.60932]],[[285.64441,216.87863],[-3.96041,0.65854],[2.87826,-1.23303]],[[294.56086,214.16347],[-3.25199,0.42879],[4.03073,-0.53147]],[[306.84279,214.01587],[-4.12231,-0.1405],[0.44145,-0.50965]],[[308.01461,213.50622],[0,0],[1.85738,0]],[[313.49362,213.00337],[-1.77594,0.35271],[0.6312,-0.57833]],[[315.39005,211.26713],[-0.63954,0.57303],[0.99491,0.06923]],[[318.37689,211.37473],[-0.99639,0.00457],[2.42557,-1.20885]],[[324.56683,205.78975],[-1.63206,2.57678],[0.41712,-0.65858]],[[325.39975,203.60441],[-0.5208,0.58008],[0.47775,-0.53214]],[[327.34371,202.69677],[-0.60321,0.38413],[1.76548,-1.12429]],[[331.93671,197.97856],[-1.26394,1.82169],[-0.01249,-0.05144]],[[331.89826,197.82535],[0.01314,0.05071],[0.70352,-1.82131]],[[332.80913,191.54674],[0.1691,2.15342],[-2.106,0]],[[326.49112,191.54674],[2.106,0],[-9.12622,0]],[[299.47065,193.47714],[8.91841,-1.16583],[-7.53351,0.98479]],[[276.66537,194.78534],[7.55756,-0.9447],[-7.71984,0.00833]],[[254.24146,204.77181],[5.76804,-4.98415],[-1.16119,1.00338]],[[250.37923,207.12192],[1.3593,-0.65549],[0.00906,0.16913]],[[250.41891,207.62584],[-0.01736,-0.16679],[-0.5713,0.03532]],[[248.7603,207.90395],[0.51683,-0.20566],[-0.7238,0.36029]],[[246.65506,209.0918],[0.67128,-0.44589],[-1.44905,0.96253]],[[242.46406,212.64058],[1.42716,-1.07062],[0,0]],[[240.47635,212.478],[0.88425,0.99018],[-0.99938,0.79308]],[[237.40022,214.80709],[1.06056,-0.75277],[-3.38793,4.10117]],[[226.717,226.68569],[3.62984,-3.89656],[-1.06197,1.14]],[[221.33245,232.3879],[0.08585,-1.85672],[-0.07023,1.51896]],[[222.80956,236.70388],[-0.68431,-1.3579],[3.44423,6.83446]],[[237.29147,251.29412],[-5.7557,-4.61355],[3.23246,1.81963]],[[247.07852,256.44312],[-3.29137,-1.67568],[0.69294,0.35279]],[[249.08035,257.64075],[-0.7558,-0.18272],[0.90187,0.21804]],[[251.86362,257.59997],[-0.92248,-0.09976],[6.23396,0.67413]],[[270.65454,258.88939],[-6.35603,0.35567],[5.06421,-0.28338]],[[286.09622,258.89221],[-5.04096,-0.84016],[1.40298,0.00134]],[[290.53516,259.18657],[-1.52403,-0.19338],[-1.85569,-6.43014]],[[294.47322,241.17341],[-5.53704,3.63714],[3.4802,-2.28605]],[[306.54196,236.61021],[-3.86985,1.58693],[0.87599,-0.35922]],[[309.24273,235.73074],[-0.87628,0.35851],[0.41381,-0.1693]],[[310.28294,234.88392],[0.37862,0.2378],[-2.30683,-1.44886]],[[301.20753,234.33443],[2.61183,0],[-1.98033,0]],[[295.12873,234.6031],[1.93785,-0.53312],[-1.80716,0.49716]],[[290.02208,236.94211],[1.75881,-0.62838],[-2.04584,0.73093]],[[284.11384,238.86021],[1.88421,-1.02475],[-4.03226,2.19298]],[[271.44665,245.95355],[4.31878,-1.47151],[-0.45219,0.15407]],[[270.01493,245.88962],[0.4357,-0.1959],[-0.50603,0.22752]],[[268.88029,247.10743],[0.48952,-0.26115],[-0.3071,0.16383]],[[263.75891,248.41449],[0.052,-0.0172],[-3.07589,1.01736]],[[254.78468,250.62501],[3.22708,-0.53542],[-1.18374,0.0641]],[[251.23345,250.8173],[1.14997,0.28796],[-2.84788,-0.71312]],[[247.41031,246.89826],[1.23105,1.98173],[-1.87358,-3.01607]],[[243.41976,236.1502],[-1.38636,3.96336],[0.84169,-2.40624]],[[249.43075,230.53763],[-2.45605,1.43125],[-0.17126,-0.21806]],[[249.14023,229.59293],[0,0.42295],[0,0]]],&quot;closed&quot;:true,&quot;fillColor&quot;:[0,0,0,1]}]}" fill="#fce36c" stroke="none" stroke-width="0.5"/><path d="M291.96596,217.94616c0,-0.06577 0.08639,-0.1737 0.08088,-0.23383c0.92388,-0.25136 1.87821,-0.45394 2.8856,-0.58996c4.52346,-0.61077 9.18323,-0.23738 13.8209,-0.11957l-0.57971,1.53694c0,0 -0.00204,1.49772 1.49796,1.49772c1.16811,0 1.35411,-0.84074 1.41129,-1.24328c0.8141,-0.53969 1.64761,-1.19913 2.38204,-1.81569c0.84679,-0.03804 1.68859,-0.10152 2.52858,-0.19421c0,0 1.28172,-0.14252 1.33614,-1.35183c1.29262,-0.4227 2.512,-1.01899 3.60333,-1.85385c1.84663,-1.41266 4.98103,-4.32426 6.21403,-6.25292c0.31715,-0.49608 0.08662,-1.25245 0.46568,-1.703c0.90578,-1.07663 2.54891,-1.28516 3.55388,-2.26985c0.38298,-0.37525 0.74299,-0.75029 1.09006,-1.1265c-0.00828,0.12149 -0.0186,0.24088 -0.02943,0.35881c0.67969,-0.59938 1.27433,-1.28075 1.73006,-2.11239c0.16399,-0.29927 0.31447,-0.61354 0.45959,-0.93954c0.55273,-0.78556 1.02667,-1.59339 1.53968,-2.50292c0.42962,-2.03939 1.60159,-5.57938 0.61507,-7.60615c-0.30041,-0.61718 -0.91278,-1.28863 -1.66623,-1.95338c-0.66907,-1.66213 -1.71022,-3.0847 -3.21984,-4.03085c-0.98566,-1.16278 -2.39088,-1.88704 -3.53212,-2.89756c-2.52768,-2.23814 -4.59848,-5.33401 -8.02849,-6.4824c-3.04602,-1.01982 -6.52313,-0.28565 -9.89403,0.09432c-1.97241,-0.92756 -3.74944,-1.77663 -6.3907,-1.78437h-0.00001c-0.79705,0 -1.79445,-0.10016 -2.79553,-0.15252c-0.31607,-0.17774 -0.64233,-0.33112 -0.98968,-0.43533c-3.3534,-1.00603 -7.23758,-0.30682 -10.59651,0.26182c-2.65882,0.00971 -5.01058,0.93526 -7.59422,1.47434c-1.705,0.35576 -3.43726,0.65161 -5.17926,0.843c-1.48692,-0.15954 -2.93627,-0.15361 -4.2819,0.22779c-2.74453,-0.02459 -5.47187,-0.41297 -8.10777,-1.35358c-1.29602,-0.46248 -5.66286,-1.96151 -6.15767,-3.55221c-0.64999,-2.08959 0.50098,-4.8977 0.74843,-6.91125c0.53686,-4.3685 0.36636,-9.09115 0.59947,-13.51554c0.40168,-2.11575 0.44169,-3.24737 1.48605,-5.16081c1.91635,-3.51105 7.71393,-5.55045 11.19457,-6.79927c2.13521,-0.7661 1.89951,-1.33517 4.21797,-2.2717c1.32481,-0.53515 1.91183,-0.0269 3.28009,-0.25576c0.648,-0.10839 4.04172,-1.21269 4.76265,-1.29583c5.18338,-0.59776 10.94012,-0.15478 14.66137,-4.41473c2.65131,-3.28078 6.07051,-2.67829 10.06329,-2.51455c9.06255,0.37165 15.87053,5.88987 24.47169,7.86766c3.85133,0.8856 7.55554,-0.53509 11.21936,0.93675c2.45519,0.59886 4.79448,1.99854 7.29664,2.32633c4.55086,0.59618 8.70086,1.69308 13.21449,2.88713c3.29754,0.87234 8.1976,1.41446 9.74142,5.05102c0.66334,1.56255 -0.02874,3.40766 0.19173,5.09081c0.62904,4.80239 1.60355,9.85273 2.70161,14.61927c2.13949,3.27265 4.57454,5.47785 7.54173,8.01589c0.17803,0.15228 4.4143,3.1148 3.909,3.59269c-1.30264,1.23197 -3.1799,1.96865 -4.71861,2.89188c-3.31158,1.98695 -6.81743,4.22547 -10.61405,5.20035c-2.26245,0.58094 -6.89802,0.26519 -8.57049,2.16084c-0.82583,0.93603 -0.14627,3.42838 0.0654,4.505c1.40097,4.89796 4.1538,9.28352 9.73796,9.90514c1.63,0.18145 3.71118,-0.48478 5.25804,-0.04791c0.93081,0.26288 2.14381,1.85409 2.67206,2.29414c1.80891,1.50687 3.94414,3.26287 6.16215,4.1251c5.25207,2.04169 10.52421,-0.66522 15.95476,0.42089c4.69465,0.0133 11.08557,-0.98101 15.43767,1.1507c3.32961,1.63088 3.05554,4.12357 1.37247,5.99293c-0.33345,-0.31127 -0.98934,-0.70583 -1.83718,-0.1406c-0.95457,0.63639 -0.69258,1.51723 -0.51645,1.8958c-0.17142,0.08487 -0.34584,0.1641 -0.5224,0.23678c-3.56932,1.46934 -6.3363,1.03326 -10.04782,0.86426c-4.06954,-0.18531 -8.20032,0.13189 -12.26504,0.31013c-2.36475,0.54841 -5.25544,0.02196 -7.46945,0.67805c-1.23242,0.36521 -2.88315,0.5214 -3.48375,1.65785c-0.20109,0.38051 2.69638,5.37451 2.97677,5.97452c1.23231,2.63702 1.57569,5.66707 2.96829,8.21098c0.67469,1.23249 1.62165,2.33799 2.08323,3.66509c0.92121,2.64859 0.27411,3.43076 2.44376,5.47915c3.2107,3.03125 8.43138,1.99875 7.62167,7.45062c-0.57669,2.47383 -1.35411,8.42705 -3.80887,9.89864c-0.2836,0.17001 -2.99612,0.12939 -3.47347,0.12905c-4.99734,-0.0036 -8.89035,-1.05178 -11.70136,-5.13604c0.43683,-0.0867 1.14046,-0.46779 1.14046,-1.54155c0,-1.5 -1.43415,-1.42474 -1.43415,-1.42474c-0.42233,0 -0.90997,-0.07573 -1.33231,-0.07573c-1.50197,-3.94668 -1.45551,-8.53632 -4.02663,-12.04981c-1.50944,-2.06268 -4.1971,-2.96625 -6.33545,-4.1911c-3.10176,-1.77955 -6.85216,-3.60564 -10.37279,-4.39623c-1.82421,-0.40964 -4.9934,-0.0271 -6.78985,-0.0271c-2.58788,0 -6.34868,-0.90304 -7.61786,2.41815c-0.31602,0.82694 0.43267,1.71823 0.70583,2.5603c0.67689,2.08666 0.75484,3.60074 0.92387,5.8972c0.26622,3.61708 0.44418,6.9682 -0.67697,10.42634c-1.29123,0.30812 -2.52557,0.78256 -3.64942,1.50857l-1.342,0.23929c0,0 -1.47202,0.29435 -1.17785,1.76522l-0.01367,-0.09907c0.29418,1.47087 1.76381,1.17689 1.76381,1.17689l1.37922,-0.19474c-0.71207,0.69447 -1.43234,1.34084 -2.01001,1.9189c-8.41954,6.84465 -21.59865,5.45058 -31.76119,5.45058c-5.50064,0 -10.38341,0.16277 -14.9204,-2.23572l0.69669,-0.04232c0,0 1.45291,0.08822 1.45291,-1.41178c0,-1.5 -1.5012,-1.50066 -1.5012,-1.50066l-0.41554,0.10718c-1.24141,-0.47746 -2.62495,-0.87663 -4.05968,-1.19063c-0.43861,-1.36065 -0.70993,-2.79476 -0.84277,-4.20211c-0.21673,-2.29611 -0.55937,-5.68129 -0.33335,-7.93349c0.16271,-1.62135 1.36449,-2.09165 2.47464,-3.02905c3.46391,-2.92488 8.44546,-3.55925 12.62269,-5.28591c1.66418,-0.68789 4.29665,-0.85639 5.1968,-2.89603c1.27014,-2.87799 -0.87839,-4.22548 -3.24116,-5.02009c-2.24998,-0.75668 -6.10331,-0.05482 -8.49426,-0.05482c-2.28826,0 -4.65137,-0.2301 -6.89021,0.37646c-1.90843,0.51704 -3.50837,1.75963 -5.35479,2.41879c-2.1974,0.78445 -4.20779,0.97969 -6.26429,2.07709c-3.80309,2.02942 -7.97729,5.52348 -12.02743,6.84062c-0.57404,0.18668 -1.2577,-0.17986 -1.81014,0.06342c-0.61157,0.26932 -0.87616,1.04764 -1.45845,1.37552c-1.36901,0.77088 -3.09813,0.57987 -4.59037,1.07146c-2.90376,0.9566 -5.34855,1.57116 -8.39637,2.07988c-0.81036,0.0893 -1.62599,0.3939 -2.43139,0.26742c-1.34812,-0.2117 -1.47866,-1.68899 -2.0124,-2.56536c-1.08147,-1.7757 -4.75886,-5.59993 -3.79113,-8.05663c1.08804,-2.7621 5.26964,-4.34356 7.52585,-5.79458c1.45258,-0.93419 2.35237,-2.54317 3.67989,-3.64788c0.57974,-0.48243 1.45355,-0.52613 2.01444,-1.03035c0.53527,-0.48118 0.75839,-1.35142 1.25738,-1.86095c3.31059,-1.03048 6.97286,-1.41377 10.15773,-2.05047c0.37205,-0.07438 0.74535,-0.14715 1.11978,-0.2183c-0.00127,0.00094 -0.00254,0.00187 -0.00381,0.00281c2.90416,0.1683 6.08422,0.42704 8.68592,-0.13077c1.54891,-0.33209 2.72454,-1.41611 4.17607,-2.05049c0.35745,-0.15621 0.8006,-0.35526 1.15089,-0.50872c1.48903,-0.35471 2.98391,-0.64121 4.64477,-0.62919c0,0 1.41111,0.0458 1.41111,-1.4542z" data-paper-data="{&quot;noHover&quot;:false,&quot;origItem&quot;:[&quot;Path&quot;,{&quot;applyMatrix&quot;:true,&quot;segments&quot;:[[[292.01056,217.92357],[0,0],[0,1.5]],[[290.51056,219.42357],[0,0],[-1.66086,-0.01202]],[[285.86513,220.05145],[1.48903,-0.35471],[-0.35029,0.15346]],[[284.80418,220.51645],[0.35745,-0.15621],[-1.45153,0.63438]],[[280.53816,222.61064],[1.54891,-0.33209],[-2.6017,0.55781]],[[271.85113,222.73895],[2.90416,0.1683],[0.00127,-0.00094]],[[271.85494,222.73614],[-0.00127,0.00094],[-0.37443,0.07115]],[[270.73509,222.95428],[0.37205,-0.07438],[-3.18487,0.6367]],[[260.57689,225.00357],[3.31059,-1.03048],[-0.49899,0.50953]],[[259.41247,226.82766],[0.53527,-0.48118],[-0.56089,0.50422]],[[257.39799,227.8579],[0.57974,-0.48243],[-1.32752,1.10471]],[[253.71766,231.50474],[1.45258,-0.93419],[-2.25621,1.45102]],[[246.19132,237.29824],[1.08804,-2.7621],[-0.96773,2.4567]],[[249.98035,245.35083],[-1.08147,-1.7757],[0.53374,0.87637]],[[251.9919,247.91477],[-1.34812,-0.2117],[0.8054,0.12648]],[[254.42299,247.64688],[-0.81036,0.0893],[3.04782,-0.50872]],[[262.81848,245.56567],[-2.90376,0.9566],[1.49224,-0.49159]],[[267.40826,244.49336],[-1.36901,0.77088],[0.58229,-0.32788]],[[268.86681,243.11798],[-0.61157,0.26932],[0.55244,-0.24328]],[[270.67658,243.05405],[-0.57404,0.18668],[4.05014,-1.31714]],[[282.70329,236.21247],[-3.80309,2.02942],[2.0565,-1.0974]],[[288.96644,234.13395],[-2.1974,0.78445],[1.84642,-0.65916]],[[294.32029,231.71406],[-1.90843,0.51704],[2.23884,-0.60656]],[[301.20746,231.33443],[-2.28826,0],[2.39095,0]],[[309.69619,231.38468],[-2.24998,-0.75668],[2.36277,0.79461]],[[312.93219,236.40155],[1.27014,-2.87799],[-0.90015,2.03964]],[[307.68499,239.38389],[1.66418,-0.68789],[-4.17723,1.72666]],[[295.05716,244.66611],[3.46391,-2.92488],[-1.11015,0.9374]],[[292.6459,247.61781],[0.16271,-1.62135],[-0.22602,2.2522]],[[292.97635,255.54909],[-0.21673,-2.29611],[0.13284,1.40735]],[[293.81741,259.75005],[-0.43861,-1.36065],[1.43473,0.314]],[[297.87476,260.93927],[-1.24141,-0.47746],[0,0]],[298.29012,260.83199],[[299.79012,262.33199],[0,-1.5],[0,1.5]],[298.29012,263.83199],[[297.64122,263.78647],[0,0],[4.53699,2.39849]],[[312.55269,266.01836],[-5.50064,0],[10.16254,0]],[[344.29137,260.56598],[-8.41954,6.84465],[0.57767,-0.57806]],[[346.29962,258.64738],[-0.71207,0.69447],[0,0]],[344.93761,258.94062],[[343.17256,257.76392],[0.29418,1.47087],[0,0]],[[343.17257,257.76393],[0,0],[-0.29417,-1.47087]],[344.34927,255.99888],[[345.69016,255.75978],[0,0],[1.12385,-0.72601]],[[349.33642,254.2519],[-1.29123,0.30812],[1.12115,-3.45814]],[[350.0103,243.82645],[0.26622,3.61708],[-0.16903,-2.29646]],[[349.08543,237.92958],[0.67689,2.08666],[-0.27316,-0.84207]],[[348.37941,235.36935],[-0.31602,0.82694],[1.26918,-3.32119]],[[355.98868,232.95515],[-2.58788,0],[1.79645,0]],[[362.77326,232.98578],[-1.82421,-0.40964],[3.52063,0.79059]],[[373.14227,237.38521],[-3.10176,-1.77955],[2.13835,1.22485]],[[379.54703,241.64838],[-1.50944,-2.06268],[2.57112,3.51349]],[[383.57092,253.70071],[-1.50197,-3.94668],[0.42234,0]],[[384.83793,253.70071],[-0.42233,0],[0,0]],[[386.33793,255.20071],[0,-1.5],[0,1.07376]],[[385.13246,256.66629],[0.43683,-0.0867],[2.81101,4.08426]],[[396.83147,261.80442],[-4.99734,-0.0036],[0.47735,0.00034]],[[400.30393,261.67635],[-0.2836,0.17001],[2.45476,-1.47159]],[[404.10916,251.78178],[-0.57669,2.47383],[0.80971,-5.45187]],[[396.48707,244.33169],[3.2107,3.03125],[-2.16965,-2.04839]],[[394.04215,238.85409],[0.92121,2.64859],[-0.46158,-1.3271]],[[391.95819,235.19004],[0.67469,1.23249],[-1.3926,-2.54391]],[[388.98773,226.98255],[1.23231,2.63702],[-0.28039,-0.60001]],[[386.00944,221.01094],[-0.20109,0.38051],[0.6006,-1.13645]],[[389.49215,219.35539],[-1.23242,0.36521],[2.21401,-0.65609]],[[396.96063,218.67982],[-2.36475,0.54841],[4.06472,-0.17824]],[[409.22478,218.3724],[-4.06954,-0.18531],[3.71152,0.169]],[[419.27204,217.51018],[-3.56932,1.46934],[0.17656,-0.07268]],[[419.79439,217.2736],[-0.17142,0.08487],[-0.17613,-0.37857]],[[420.31058,215.37889],[-0.95457,0.63639],[0.84784,-0.56523]],[[422.14773,215.51963],[-0.33345,-0.31127],[1.68307,-1.86936]],[[420.77467,209.52984],[3.32961,1.63088],[-4.3521,-2.13171]],[[405.4357,208.39518],[4.69465,0.0133],[-5.43055,-1.08611]],[[389.48056,207.97629],[5.25207,2.04169],[-2.21801,-0.86223]],[[383.2201,203.83307],[1.80891,1.50687],[-0.52825,-0.44005]],[[380.54777,201.54092],[0.93081,0.26288],[-1.54686,-0.43687]],[[375.28983,201.58805],[1.63,0.18145],[-5.58416,-0.62162]],[[365.55199,191.69674],[1.40097,4.89796],[-0.21167,-1.07662]],[[365.48809,187.19854],[-0.82583,0.93603],[1.67247,-1.89565]],[[374.05846,185.03729],[-2.26245,0.58094],[3.79662,-0.97488]],[[384.67309,179.83883],[-3.31158,1.98695],[1.53871,-0.92323]],[[389.39205,176.94799],[-1.30264,1.23197],[0.5053,-0.47789]],[[385.48462,173.35921],[0.17803,0.15228],[-2.96719,-2.53804]],[[377.94779,165.35183],[2.13949,3.27265],[-1.09806,-4.76654]],[[375.2536,150.74081],[0.62904,4.80239],[-0.22047,-1.68315]],[[375.06395,145.65176],[0.66334,1.56255],[-1.54382,-3.63656]],[[365.3296,140.60545],[3.29754,0.87234],[-4.51363,-1.19405]],[[352.12495,137.72243],[4.55086,0.59618],[-2.50216,-0.32779]],[[344.83436,135.3975],[2.45519,0.59886],[-3.66382,-1.47184]],[[333.62408,134.46142],[3.85133,0.8856],[-8.60116,-1.97779]],[[309.16872,126.59072],[9.06255,0.37165],[-3.99278,-0.16374]],[[299.11164,129.10251],[2.65131,-3.28078],[-3.72125,4.25995]],[[284.45811,133.51209],[5.18338,-0.59776],[-0.72093,0.08314]],[[279.69755,134.80615],[0.648,-0.10839],[-1.36826,0.22886]],[[276.4186,135.06086],[1.32481,-0.53515],[-2.31846,0.93653]],[[272.20253,137.33065],[2.13521,-0.7661],[-3.48064,1.24882]],[[261.0124,144.1245],[1.91635,-3.51105],[-1.04436,1.91344]],[[259.52793,149.28293],[0.40168,-2.11575],[-0.23311,4.42439]],[[258.9318,162.79218],[0.53686,-4.3685],[-0.24745,2.01355]],[[258.18487,169.69963],[-0.64999,-2.08959],[0.49481,1.5907]],[[264.24779,173.21987],[-1.29602,-0.46248],[2.6359,0.94061]],[[272.35586,174.57256],[-2.74453,-0.02459],[1.34563,-0.3814]],[[276.63821,174.34354],[-1.48692,-0.15954],[1.742,-0.19139]],[[281.81832,173.49843],[-1.705,0.35576],[2.58364,-0.53908]],[[289.41439,172.02026],[-2.65882,0.00971],[3.35893,-0.56864]],[[300.01415,171.75318],[-3.3534,-1.00603],[0.34735,0.10421]],[[301.00398,172.1883],[-0.31607,-0.17774],[1.00108,0.05236]],[[303.80066,172.33928],[-0.79705,0],[0,0]],[[303.80067,172.33928],[0,0],[2.64126,0.00774]],[[310.19381,174.12074],[-1.97241,-0.92756],[3.3709,-0.37997]],[[320.09751,174.01815],[-3.04602,-1.01982],[3.43001,1.14839]],[[328.13422,180.49619],[-2.52768,-2.23814],[1.14124,1.01052]],[[331.67412,183.39124],[-0.98566,-1.16278],[1.50962,0.94615]],[[334.90655,187.42078],[-0.66907,-1.66213],[0.75345,0.66475]],[[336.58477,189.37591],[-0.30041,-0.61718],[0.98652,2.02677]],[[335.99959,197.0557],[0.42962,-2.03939],[-0.51301,0.90953]],[[334.41254,199.58302],[0.55273,-0.78556],[-0.14512,0.326]],[[333.94855,200.52198],[0.16399,-0.29927],[-0.45573,0.83164]],[[332.20894,202.63168],[0.67969,-0.59938],[0.01083,-0.11793]],[[332.23762,202.27257],[-0.00828,0.12149],[-0.34707,0.37621]],[[331.14422,203.39755],[0.38298,-0.37525],[-1.00497,0.98469]],[[327.58246,205.6625],[0.90578,-1.07663],[-0.37906,0.45055]],[[327.11878,207.36694],[0.31715,-0.49608],[-1.233,1.92866]],[[320.90184,213.61771],[1.84663,-1.41266],[-1.09133,0.83486]],[[317.29606,215.46947],[1.29262,-0.4227],[-0.05442,1.20931]],[[315.95981,216.8212],[0,0],[-0.83999,0.09269]],[[313.42912,217.01337],[0.84679,-0.03804],[-0.73443,0.61656]],[[311.11908,218.75967],[0.8141,-0.53969],[-0.05718,0.40254]],[[309.63533,220.07187],[1.16811,0],[-1.5,0]],[308.13533,218.57187],[[308.71427,217.03399],[0,0],[-4.63767,-0.11781]],[[294.88815,217.14557],[4.52346,-0.61077],[-1.00739,0.13602]],[[292.00216,217.73477],[0.92388,-0.25136],[0.00551,0.06013]],[[292.01056,217.92355],[0,-0.06577],[0,0]]],&quot;closed&quot;:true,&quot;fillColor&quot;:[0,0,0,1],&quot;strokeWidth&quot;:0.5}]}" fill="#e79947" stroke="none" stroke-width="0.25"/><path d="M156.65801,321.58484v-277.04485h324.53826v277.04486z" fill="none" stroke="#000000" stroke-width="0"/></g></g></svg>