<svg version="1.1" xmlns="http://www.w3.org/2000/svg" xmlns:xlink="http://www.w3.org/1999/xlink" width="324.53826" height="277.04486" viewBox="0,0,324.53826,277.04486"><g transform="translate(-156.658,-44.53998)"><g data-paper-data="{&quot;isPaintingLayer&quot;:true}" fill-rule="nonzero" stroke-linecap="butt" stroke-linejoin="miter" stroke-miterlimit="10" stroke-dasharray="" stroke-dashoffset="0" style="mix-blend-mode: normal"><path d="M413.55486,204.84573c4.79232,1.68486 8.38265,5.88243 10.43727,10.5447c0.67579,1.53347 0.89983,3.26006 1.70692,4.72867c1.48874,2.70894 3.69221,6.73424 3.75054,9.82217c0.07469,3.95431 -1.53065,7.76712 -2.29798,11.61521c0,0 -0.2109,1.05451 -1.16843,1.19921c0.5886,0.50779 1.18998,1.00386 1.82259,1.47008c1.2219,0.9005 2.82786,1.13369 4.13904,1.89838c2.38184,1.38911 6.38978,4.34534 4.29626,7.7585c-0.73729,1.20204 -2.57642,1.20689 -3.95601,1.49877c-6.31938,1.33695 -11.48961,-1.34634 -17.45226,-2.29807c-1.39624,-0.22836 -2.79576,-0.45723 -4.1975,-0.68788c-0.28161,0.09131 -0.51372,0.09131 -0.51372,0.09131l-0.35412,-0.02913c-5.53209,1.08259 -11.06492,2.57095 -16.70206,2.61721c-13.20977,2.22649 -26.7413,5.10445 -39.54681,9.01306c-4.57632,1.39682 -9.14005,3.4866 -13.75824,4.96986c-4.08992,2.24165 -8.12973,1.64443 -12.54469,2.82352c-4.52366,1.20811 -8.47374,3.58359 -13.27316,3.94132c-9.00398,0.67112 -17.727,-2.3796 -26.47972,-3.83301c-6.41107,-1.07009 -12.40001,-2.68069 -18.63546,-4.34618c-7.76765,-2.07475 -15.85407,-2.58506 -23.19316,-6.13218c-1.3696,-0.66195 -2.61952,-1.44591 -3.82635,-2.27729c-1.55585,-0.24118 -3.10761,-0.54216 -4.64571,-0.78711c-1.06511,-0.16962 -4.94981,-0.444 -5.66834,-1.88213c-0.47256,-0.94583 0.12959,-2.11263 0.27321,-3.16013c0.019,-0.13856 0.03773,-0.27702 0.05624,-0.41538c-0.24759,-0.12136 -0.49296,-0.24689 -0.73443,-0.37969c-2.2868,-1.25769 -3.96906,-3.55516 -6.17114,-4.86943c-1.36199,-0.81288 -3.1455,-1.03544 -4.21639,-2.20547c-4.23337,-4.62528 -2.82692,-9.30376 -1.80257,-14.86119c0.55931,-3.03443 0.528,-6.39698 1.88806,-9.23271c1.27028,-2.64853 4.10699,-4.70868 5.74919,-7.14117c1.84327,-1.41594 3.02201,-3.31795 4.7507,-4.72413c0.55671,-0.45285 1.41655,-0.34062 2.03336,-0.70741c4.05281,-2.41002 7.77645,-5.63166 12.24122,-7.57854c3.01917,-1.31651 7.39738,-1.07232 10.58952,-1.07336c6.45488,-0.00211 12.95053,0.21233 19.38661,-0.32285c5.37959,-0.00414 9.71404,-2.0468 14.88619,-3.35171c2.91199,-0.73468 5.71427,-0.34017 8.62971,-0.76854c5.1609,-0.7583 10.41864,-0.02858 15.56043,-0.72878c1.37104,-0.18671 2.71419,-0.65183 4.09784,-0.6628c0,0 1.05986,0 1.39779,0.8909c1.80218,-1.50954 3.80692,-2.32065 5.94286,-3.59964c2.56951,-1.53861 3.44792,-2.82542 6.4367,-3.6936c1.89674,-0.76128 6.6173,-2.52658 7.13737,-4.7934c0.29837,-1.30048 -0.03426,-3.00471 -1.58187,-2.67451c-3.67307,0.78369 -6.91351,3.25577 -10.18316,5.01579c-4.07314,2.19254 -8.19116,3.69336 -12.43649,5.35121c-4.48776,1.3005 -8.24965,2.97936 -13.06847,2.60616c-4.47258,-0.34639 -9.21193,-2.31146 -13.68427,-1.94137c-3.83893,0.31767 -6.99641,0.2331 -10.71938,-0.33974c-3.12729,-0.48119 -5.86839,-0.30555 -8.24709,-2.75131c-5.01369,-0.72309 -12.19605,-0.29319 -16.3813,-3.67459c-2.52785,-2.04233 -3.39633,-5.33573 -4.14178,-8.31557c-1.60918,-6.43253 -2.87937,-13.42911 -0.87277,-19.94572c0.8425,-8.24312 6.31131,-12.33687 12.86733,-16.35516c2.60691,-1.59782 5.17632,-3.59081 8.06049,-4.7719c0.83815,-0.34323 1.85136,-0.24467 2.61811,-0.72673c0.68695,-0.43188 0.88876,-1.40041 1.53848,-1.88649c2.10986,-1.57846 4.97304,-2.53698 7.19935,-3.9387c0.59965,-0.37755 0.90871,-1.16948 1.56351,-1.44031c2.58454,-1.06901 7.57916,-0.11418 10.2985,-0.11418c4.08141,0.01017 7.83411,-1.40467 11.82984,-1.93594c4.10124,-0.5453 8.45042,-0.09645 12.56522,-0.63789c2.93427,-0.3861 6.7185,-1.47779 9.75112,-0.60331c2.2157,0.63892 3.84722,3.05438 5.95162,3.93053c1.66517,0.69329 3.95385,0.82978 5.75503,1.19879c0.23641,-0.00038 2.41369,0.03742 2.65875,-0.1252c0.60821,-0.40361 0.75059,-1.35739 1.40589,-1.67895c0.50002,-0.24536 3.52963,-0.14957 4.19805,-0.02688c4.44292,0.81546 8.18706,2.34635 11.46288,5.51678c1.45331,1.40656 2.35079,3.50733 3.84788,4.821c6.01864,5.28124 10.26975,12.56179 13.90595,19.83084c0.47461,0.86394 1.13133,1.6505 1.42383,2.59183c0.34802,1.11996 -0.1505,2.49385 0.47452,3.48619c0.71287,1.13181 2.05898,1.74542 2.85309,2.82179c1.30966,1.77514 3.53526,5.58423 4.12364,7.61503c0.85707,2.95819 -1.11182,5.63042 -2.49936,7.98943c-0.26414,0.44908 -2.78924,3.58476 -2.3587,4.66779c0.80409,2.02273 1.45112,1.94842 3.13507,3.49836c2.81774,2.5935 4.55616,4.95582 8.00767,6.72541c0.97724,1.12272 1.73294,2.60006 3.08011,3.23303c0.88945,0.41791 1.9218,0.48591 2.7962,0.93445c0.0355,0.01821 0.07092,0.03656 0.10627,0.05506c6.00893,0.06108 11.0107,1.42458 16.62482,3.65502zM424.20987,240.96814c0.7487,-3.73289 2.1362,-7.27259 2.24011,-11.07523c0.04916,-1.79911 -0.7723,-1.8481 -1.5257,-3.66377c-0.69302,-1.67016 -0.96367,-3.0207 -1.85505,-4.66641c-2.89382,-5.34274 -4.01753,-11.881 -10.54625,-13.90005c-3.75791,-1.51431 -7.16971,-2.59364 -10.84921,-3.11679c1.42681,1.17598 2.83497,2.37383 4.35371,3.33726c1.99782,1.26733 4.26572,2.41635 6.06911,4.06245c1.40141,1.27918 6.62848,6.59225 3.77117,8.81058c-0.47743,0.37066 -5.44843,-0.91947 -6.02702,-1.03499c-3.80184,-0.75908 -7.57319,-0.89494 -11.42902,-0.97299c-3.17644,1.3311 -5.98961,1.34329 -9.35984,1.32366c-0.53152,-0.0031 -1.05381,0.11164 -1.57576,0.23322c1.80464,1.01031 4.30641,3.03919 5.59046,3.95664c6.1111,4.36638 12.23311,8.7401 19.59149,10.56879c2.40175,0.95798 5.01391,1.93 7.28367,3.1844c1.58828,0.87778 2.93305,1.9997 4.24637,3.15703c0.00598,-0.12491 0.02176,-0.20382 0.02176,-0.20382zM395.85902,204.18857c0,0 -1.0454,0 -1.39074,-0.87272c-2.40527,-1.17116 -3.2441,-1.46325 -5.36706,-3.98306c-3.51624,-1.70683 -5.38719,-4.28531 -8.19978,-6.88886c-2.12086,-1.96323 -4.86634,-3.95051 -3.99204,-7.33567c0.75991,-2.94225 6.07473,-6.88593 4.86224,-10.22027c-0.71004,-1.95262 -2.40108,-4.95111 -3.65594,-6.64753c-0.49693,-0.67179 -2.56923,-2.30463 -2.98159,-3.0129c-1.32806,-2.28106 -0.62782,-3.97008 -1.99143,-6.23964c-2.64011,-5.28268 -6.02646,-10.17538 -8.9305,-15.2695c-0.97381,-1.7082 -3.01722,-2.56207 -4.39207,-3.79756c-1.52598,-1.37129 -2.45022,-3.46202 -3.9317,-4.90347c-2.7967,-2.72112 -5.99647,-3.93431 -9.78671,-4.65061c-0.79927,-0.15105 -1.75336,-0.68494 -2.42918,-0.23227c-0.5435,0.36404 -0.61513,1.24547 -1.1873,1.56254c-1.17917,0.65345 -3.15355,0.52462 -4.47253,0.5231c-2.03962,-0.39999 -4.66533,-0.60339 -6.56263,-1.3944c-1.94758,-0.81197 -3.72111,-3.28622 -5.71775,-3.84905c-2.57886,-0.72694 -5.91211,0.36808 -8.40123,0.69329c-4.16151,0.54372 -8.58082,0.08562 -12.71841,0.65871c-4.10848,0.56906 -7.94035,1.94464 -12.15719,1.95385c-2,0 -4,0 -6,0c-1.05084,0 -2.21064,-0.58431 -3.15045,-0.11418c-0.46081,0.23052 -0.59645,0.87396 -1.02968,1.15288c-2.16496,1.39383 -5.01191,2.29845 -7.06321,3.84088c-0.70051,0.52673 -0.95845,1.54092 -1.70301,2.0033c-0.92992,0.5775 -2.11743,0.57866 -3.12884,0.99736c-2.71781,1.12511 -5.12964,3.01903 -7.58639,4.52508c-5.87828,3.60353 -10.84709,6.98598 -11.54399,14.42416c-1.92611,6.0975 -0.6559,12.62284 0.84812,18.64287c0.54492,2.1811 1.10339,5.10993 2.9895,6.59529c4.07293,3.20751 11.25284,2.35068 16.03361,3.45669c2.2932,2.23614 4.32235,1.97518 7.31207,2.43507c3.49743,0.53799 6.40766,0.56821 10.02616,0.30855c4.68863,-0.33645 9.53171,1.52807 14.19255,1.94842c4.35265,0.39255 7.76334,-1.27356 11.80926,-2.46179c4.09097,-1.57736 8.03659,-3.02862 11.95645,-5.13999c3.49078,-1.88026 7.19792,-4.79463 11.21068,-5.35698c3.63241,-0.50905 5.8977,3.01859 4.90111,6.40166c-1.03707,3.5205 -6.03379,5.66523 -9.07008,6.87597c-2.99831,0.8409 -3.19238,1.82147 -5.88097,3.43768c-2.48895,1.4962 -4.78502,2.13618 -6.73435,4.52182c-1.60567,1.96506 -1.87252,4.24179 -3.14034,6.34408c-0.59764,0.99101 -1.5638,1.82613 -2.59216,2.61601c-1.74762,3.51074 -2.03602,8.44546 -5.54914,10.7383c-2.09576,1.36779 -3.12695,0.97749 -5.21789,1.81829c-8.17424,3.28696 -17.31134,4.406 -26.13179,4.64c-4.63006,0.00021 -9.93295,0.72276 -14.49038,-0.01437c-2.08005,-0.33643 -4.18466,-1.21912 -6.3492,-0.42383c-3.58608,1.31759 -6.18809,5.1375 -8.99155,7.52694c-4.76038,4.05737 -9.19921,7.96718 -12.47303,13.32696c-0.3584,1.83163 -0.40061,3.71119 -0.61291,5.56544c-0.01442,0.12598 -0.03636,0.25097 -0.0643,0.37516c0.42701,0.20847 0.84828,0.42743 1.25609,0.67117c2.4659,1.41592 4.56045,3.13038 6.81338,4.67675c0.0491,0.0064 0.09824,0.01257 0.14742,0.01849c4.19891,0.50541 8.31789,-0.47899 11.31777,-3.48907c1.58409,-1.58947 2.54948,-3.34747 4.38861,-4.68781c3.70803,-2.70239 8.11473,-4.04318 11.99085,-6.51427c2.76047,-1.89011 5.75291,-3.53985 8.45331,-5.49558c3.87364,-2.80543 7.79328,-6.65319 12.53082,-8.03906c2.21991,-0.64939 4.37764,0.12783 6.52524,-0.31088c2.51318,-0.51339 5.59812,-2.49279 8.31312,-1.20948c3.32489,1.57159 4.14631,7.64427 4.16747,10.78614c-0.00841,4.47317 -1.27271,8.7708 -3.42658,12.71533c-0.6591,1.20704 -3.32898,3.82042 -2.78668,5.36077c0.73246,2.08049 3.30953,3.45152 4.97279,4.58642c5.65833,3.86088 12.62732,4.29268 19.0315,2.49728c2.85025,-1.12452 4.86794,-2.95111 7.62173,-4.30206c1.49732,-0.73455 4.75788,-1.69088 6.04938,-2.78059c1.10139,-0.92931 1.12501,-2.6582 1.81005,-3.92604c2.19875,-4.06936 1.31745,-9.59028 1.32911,-14.15111c0.00695,-2.72055 -0.11747,-6.84183 3.47366,-7.62946c1.37837,-0.30231 4.80214,1.49963 5.9169,2.01416c1.45663,0.67232 2.81293,1.55116 4.14888,2.43943c4.69514,2.70733 9.79068,6.15486 15.09248,7.53993c13.31494,3.47847 27.25994,5.82327 40.94845,8.06196c2.30018,0.38408 4.28246,1.56662 6.50475,1.99989c4.06301,0.79215 7.30603,0.50969 11.19037,-0.29824c0.30098,-0.0626 0.63355,0.29305 0.90891,0.15635c0.70509,-0.35005 -0.88422,-1.32621 -1.48116,-1.83939c-1.90461,-1.63736 -4.33215,-1.99811 -6.29099,-3.41458c-1.33648,-0.96643 -2.36243,-2.31345 -3.67065,-3.3178c-3.31566,-2.54551 -6.88609,-4.17657 -10.73954,-5.72275c-8.70431,-2.14115 -15.50031,-7.76296 -22.87574,-12.59364c-1.09541,-0.71746 -6.7121,-3.89098 -6.81817,-4.79834c-0.13485,-1.15359 1.52306,-1.79415 2.49052,-2.43678c2.71905,-1.80612 6.50664,-0.3161 9.49491,-0.77103c1.04363,-0.15888 2.82662,-0.90366 3.81418,-1.28403c4.2331,-0.06016 8.3914,0.13625 12.55802,0.97191c0.10105,0.02027 1.10998,0.05759 2.04945,0.30919c-0.30002,-0.37586 -0.5959,-0.75509 -0.89897,-1.12849c-1.47744,-1.82027 -3.49064,-3.54642 -5.44988,-4.85206c-3.15891,-2.10511 -6.50993,-5.02571 -9.92495,-6.91431zM234.97135,254.5502c-0.25005,-0.15066 -0.50565,-0.29115 -0.76479,-0.42516c-0.07878,0.3311 -0.11437,0.66605 -0.07629,1.00828c0.026,0.23366 0.46657,-0.10564 0.70051,-0.08223c0.42408,0.04244 0.84562,0.10495 1.2663,0.17418c-0.36797,-0.23164 -0.74259,-0.45728 -1.12573,-0.67506zM315.0298,198.01523c-5.15504,0.67388 -10.38848,-0.01843 -15.54406,0.72644c-2.80164,0.40477 -5.54191,-0.00449 -8.32356,0.70753c-5.37753,1.37649 -9.87829,3.44615 -15.50014,3.44147c-6.47595,0.54084 -13.01612,0.32762 -19.51128,0.32545c-2.7666,-0.00093 -6.90243,-0.31961 -9.50773,0.87153c-4.27451,1.9543 -7.83826,4.96806 -11.74582,7.33232c-0.55547,0.33608 -1.35308,0.17914 -1.85643,0.58919c-1.57341,1.28175 -2.57514,3.08056 -4.32547,4.35205c-1.47112,2.23746 -4.11658,4.07241 -5.27188,6.4731c-1.19723,2.48783 -1.10246,5.71689 -1.5945,8.38324c-0.87726,4.75389 -2.33065,8.30552 1.03169,12.25544c0.88999,1.04552 2.50038,1.04356 3.56319,1.68432c2.06698,1.24618 3.69072,3.38261 5.78748,4.64951c0.23807,-1.84988 0.49629,-3.69146 0.88024,-5.54202c3.47191,-5.87506 8.12612,-10.11124 13.30438,-14.50843c3.06633,-2.60381 5.87128,-6.61005 9.8091,-8.03222c2.75502,-0.99499 5.23507,-0.23659 7.91336,0.22447c4.35975,0.75052 9.59045,-0.01457 14.03474,-0.01437c8.47161,-0.22192 17.23816,-1.28594 25.08376,-4.43618c0.78928,-0.31692 3.72221,-0.94358 4.50658,-1.4232c1.78968,-1.09435 2.52244,-3.33547 3.09784,-5.55181l-0.57765,0.1485c0,0 -1.5,0 -1.5,-1.5c0,-1.5 1.5,-1.5 1.5,-1.5l-0.41236,0.43934c0.57454,-0.5725 1.41205,-1.16555 2.26547,-1.78343c0.00825,-0.01682 0.01655,-0.03355 0.0249,-0.05018c0.43738,-0.87129 1.22127,-1.51996 1.8319,-2.27994c0,0 0.50773,-0.60928 1.22784,-0.57258c1.11858,-2.03823 1.54099,-4.10062 2.89526,-6.01456c-1.03588,0.10547 -2.04971,0.46946 -3.08687,0.60504zM269.59916,264.74442c6.14519,1.63109 12.04002,3.23796 18.35606,4.28589c8.5207,1.42076 17.03748,4.41781 25.80086,3.79811c4.53953,-0.32101 8.35557,-2.69242 12.65877,-3.83826c4.24668,-1.13079 8.29708,-0.51195 12.1492,-2.68353c4.71387,-1.5385 9.37789,-3.6316 14.06003,-5.08224c6.40997,-1.98597 13.31307,-2.65988 19.72608,-4.65058c6.57591,-2.04127 13.60805,-3.35728 20.46779,-4.48872c3.16601,0.03001 6.32053,-0.46158 9.45523,-1.09355c-9.66923,-1.6688 -19.3425,-3.54102 -28.67084,-6.0303c-5.60935,-1.49686 -10.9343,-5.01991 -15.90877,-7.89178c-1.79462,-1.19973 -5.64389,-4.11665 -7.89249,-4.06099c-1.4686,0.03635 -1.06629,4.02102 -1.06443,4.68821c0.01126,4.04003 0.68972,9.15691 -0.38531,13.06578c-0.05814,0.21139 -2.60408,4.93543 -2.67187,5.0707c-0.33459,0.66764 -0.38454,1.53124 -0.93494,2.03596c-1.43295,1.31403 -5.12851,2.52988 -6.8832,3.3826c-2.87414,1.39674 -4.97768,3.23484 -7.97081,4.4456c-7.32269,2.06085 -15.21172,1.51621 -21.68063,-2.85604c-2.25925,-1.527 -5.38382,-3.39946 -6.17893,-6.26771c-0.84286,-3.04051 1.74982,-5.22228 3.04801,-7.6052c1.90778,-3.50186 3.06461,-7.30444 3.0564,-11.2717c0.01071,-1.28244 -0.23477,-2.56972 -0.59058,-3.80186c-0.18586,-0.64362 -0.67507,-3.82026 -1.72493,-4.21265c-2.15527,-0.80554 -4.61,0.99233 -6.59774,1.38371c-2.04252,0.40216 -4.21295,-0.35901 -6.26055,0.24733c-4.38511,1.29853 -8.04645,5.01558 -11.63639,7.61018c-2.7277,1.97143 -5.74092,3.63875 -8.52686,5.54573c-4.06567,2.58289 -9.58444,3.82365 -13.01039,7.27062c-2.36033,2.37481 -3.96931,5.37015 -7.2397,6.77563c-1.31493,0.5651 -2.64325,0.88616 -3.97884,1.03764c6.69391,2.82795 14.03478,3.33476 21.02979,5.19142z" fill="#000000" stroke="none" stroke-width="0.5"/><path d="M396.22763,204.19574c3.41502,1.8886 6.76537,4.81285 9.92428,6.91796c1.95924,1.30564 3.97191,3.03396 5.44935,4.85423c0.30307,0.3734 0.59881,0.75314 0.89883,1.129c-0.93947,-0.2516 -1.94844,-0.28876 -2.04949,-0.30903c-4.16662,-0.83566 -8.32547,-1.03028 -12.55857,-0.97012c-0.98756,0.38037 -2.77117,1.12694 -3.8148,1.28582c-2.98827,0.45493 -6.77724,-1.03171 -9.49629,0.77441c-0.96746,0.64263 -2.6267,1.28591 -2.49185,2.4395c0.10607,0.90736 5.72235,4.08164 6.81776,4.7991c7.37543,4.83068 14.0838,10.40431 22.78811,12.54546c3.85345,1.54618 7.51154,3.22536 10.8272,5.77087c1.30822,1.00435 2.33391,2.35185 3.67039,3.31828c1.95884,1.41647 4.3864,1.77718 6.29101,3.41454c0.59694,0.51318 2.18606,1.48967 1.48097,1.83972c-0.27536,0.1367 -0.608,-0.21883 -0.90898,-0.15623c-3.88434,0.80793 -7.12883,1.09278 -11.19184,0.30063c-2.22229,-0.43327 -4.2051,-1.61501 -6.50528,-1.99909c-13.68851,-2.23869 -27.6425,-4.57348 -40.95744,-8.05195c-5.3018,-1.38507 -10.40313,-4.82836 -15.09827,-7.53569c-1.33595,-0.88827 -2.69452,-1.76577 -4.15115,-2.43809c-1.11476,-0.51453 -4.54354,-2.31404 -5.92191,-2.01173c-3.59113,0.78763 -3.47337,4.91116 -3.48032,7.63171c-0.01166,4.56083 0.8655,10.08265 -1.33325,14.15201c-0.68504,1.26784 -0.71065,2.99703 -1.81204,3.92634c-1.2915,1.08971 -4.55708,2.04644 -6.0544,2.78099c-2.75379,1.35095 -4.7772,3.17738 -7.62745,4.3019c-6.40418,1.7954 -13.38673,1.36051 -19.04506,-2.50037c-1.66326,-1.1349 -4.24461,-2.50779 -4.97707,-4.58828c-0.5423,-1.54035 2.12768,-4.15368 2.78678,-5.36072c2.15387,-3.94453 3.41588,-8.24336 3.42429,-12.71653c-0.02116,-3.14187 -0.85127,-9.22066 -4.17616,-10.79225c-2.715,-1.28331 -5.80394,0.69216 -8.31712,1.20555c-2.1476,0.43871 -4.30782,-0.34147 -6.52773,0.30792c-4.73754,1.38587 -8.65778,5.23285 -12.53142,8.03828c-2.7004,1.95573 -5.69309,3.60513 -8.45356,5.49524c-3.87612,2.47109 -8.2834,3.81107 -11.99143,6.51346c-1.83913,1.34034 -2.80414,3.09888 -4.38823,4.68835c-2.99988,3.01008 -7.11985,3.99306 -11.31876,3.48765c-0.04918,-0.00592 -0.09834,-0.01213 -0.14744,-0.01853c-2.25293,-1.54637 -4.34927,-3.26371 -6.81517,-4.67963c-0.40781,-0.24374 -0.82934,-0.46316 -1.25635,-0.67163c0.02794,-0.12419 0.04982,-0.24929 0.06424,-0.37527c0.2123,-1.85425 0.25354,-3.73563 0.61194,-5.56726c3.27382,-5.35978 7.71124,-9.27261 12.47162,-13.32998c2.80346,-2.38944 5.4047,-6.21126 8.99078,-7.52885c2.16454,-0.79529 4.36207,0.05047 6.44212,0.3869c4.55743,0.73713 9.85845,0.0106 14.48851,0.01039c8.82045,-0.234 17.95186,-1.3616 26.1261,-4.64856c2.09094,-0.8408 3.04681,-0.38478 5.14257,-1.75257c3.51312,-2.29284 3.79607,-7.23464 5.54369,-10.74538c1.02836,-0.78988 1.99344,-1.62678 2.59108,-2.61779c1.26782,-2.10229 1.52945,-4.39188 3.13512,-6.35694c1.94933,-2.38564 4.24443,-3.04512 6.73338,-4.54132c2.68859,-1.61621 2.91915,-2.63775 5.91746,-3.47865c3.03629,-1.21074 8.01753,-3.26607 9.0546,-6.78657c0.99659,-3.38307 -1.24847,-6.9025 -4.88088,-6.39345c-4.01276,0.56235 -7.68399,3.46904 -11.17477,5.3493c-3.91986,2.11137 -7.84611,3.53791 -11.93708,5.11527c-4.04592,1.18823 -7.45421,2.84484 -11.80686,2.45229c-4.66084,-0.42035 -9.50389,-2.28506 -14.19252,-1.94861c-3.6185,0.25966 -6.52859,0.22844 -10.02602,-0.30955c-2.98972,-0.45989 -5.11793,-0.21255 -7.41113,-2.44869c-4.78077,-1.10601 -11.96058,-0.24982 -16.03351,-3.45733c-1.88611,-1.48536 -2.44388,-4.41768 -2.9888,-6.59878c-1.50402,-6.02003 -2.77104,-12.55467 -0.84493,-18.65217c0.6969,-7.43818 5.67083,-10.82935 11.54911,-14.43288c2.45675,-1.50605 4.87155,-3.40365 7.58936,-4.52876c1.01141,-0.4187 2.20005,-0.42109 3.12997,-0.99859c0.74456,-0.46238 1.00359,-1.47768 1.7041,-2.00441c2.0513,-1.54243 4.90172,-2.45018 7.06668,-3.84401c0.43323,-0.27892 0.56959,-0.92294 1.0304,-1.15346c0.93981,-0.47013 2.10079,0.11328 3.15163,0.11328c2,0 4.00255,-0.00177 6.00255,-0.00177c4.21684,-0.00921 8.05547,-1.38847 12.16395,-1.95753c4.13759,-0.57309 8.56496,-0.11781 12.72647,-0.66153c2.48912,-0.32521 5.8283,-1.42137 8.40716,-0.69443c1.99664,0.56283 3.77416,3.03672 5.72174,3.84869c1.8973,0.79101 4.52815,0.99442 6.56777,1.39441c1.31898,0.00152 3.29681,0.13065 4.47598,-0.5228c0.57217,-0.31707 0.64454,-1.1984 1.18804,-1.56244c0.67582,-0.45267 1.63174,0.08151 2.43101,0.23256c3.79024,0.7163 6.99794,1.93157 9.79464,4.65269c1.48148,1.44145 2.40979,3.53382 3.93577,4.90511c1.37485,1.23549 3.42243,2.0915 4.39624,3.7997c2.90404,5.09412 6.3019,9.99589 8.94201,15.27857c1.36361,2.26956 0.66714,3.96307 1.9952,6.24413c0.41236,0.70827 2.48697,2.3445 2.9839,3.01629c1.25486,1.69642 2.94934,4.70146 3.65938,6.65408c1.21249,3.33434 -4.0996,7.28617 -4.85951,10.22842c-0.8743,3.38516 1.87248,5.38108 3.99334,7.34431c2.81259,2.60355 4.6835,5.18881 8.19974,6.89564c2.12296,2.51981 2.96148,2.81485 5.36675,3.98601c0.34534,0.87272 1.39066,0.87326 1.39066,0.87326z" data-paper-data="{&quot;noHover&quot;:false,&quot;origItem&quot;:[&quot;Path&quot;,{&quot;applyMatrix&quot;:true,&quot;segments&quot;:[[395.85902,204.18857],[[394.46828,203.31585],[0.34534,0.87272],[-2.40527,-1.17116]],[[389.10122,199.33279],[2.12296,2.51981],[-3.51624,-1.70683]],[[380.90144,192.44393],[2.81259,2.60355],[-2.12086,-1.96323]],[[376.9094,185.10826],[-0.8743,3.38516],[0.75991,-2.94225]],[[381.77164,174.88799],[1.21249,3.33434],[-0.71004,-1.95262]],[[378.1157,168.24046],[1.25486,1.69642],[-0.49693,-0.67179]],[[375.13411,165.22756],[0.41236,0.70827],[-1.32806,-2.28106]],[[373.14268,158.98792],[1.36361,2.26956],[-2.64011,-5.28268]],[[364.21218,143.71842],[2.90404,5.09412],[-0.97381,-1.7082]],[[359.82011,139.92086],[1.37485,1.23549],[-1.52598,-1.37129]],[[355.88841,135.01739],[1.48148,1.44145],[-2.7967,-2.72112]],[[346.1017,130.36678],[3.79024,0.7163],[-0.79927,-0.15105]],[[343.67252,130.13451],[0.67582,-0.45267],[-0.5435,0.36404]],[[342.48522,131.69705],[0.57217,-0.31707],[-1.17917,0.65345]],[[338.01269,132.22015],[1.31898,0.00152],[-2.03962,-0.39999]],[[331.45006,130.82575],[1.8973,0.79101],[-1.94758,-0.81197]],[[325.73231,126.9767],[1.99664,0.56283],[-2.57886,-0.72694]],[[317.33108,127.66999],[2.48912,-0.32521],[-4.16151,0.54372]],[[304.61267,128.3287],[4.13759,-0.57309],[-4.10848,0.56906]],[[292.45548,130.28255],[4.21684,-0.00921],[-2,0]],[[286.45548,130.28255],[2,0],[-1.05084,0]],[[283.30503,130.16837],[0.93981,-0.47013],[-0.46081,0.23052]],[[282.27535,131.32125],[0.43323,-0.27892],[-2.16496,1.39383]],[[275.21214,135.16213],[2.0513,-1.54243],[-0.70051,0.52673]],[[273.50913,137.16543],[0.74456,-0.46238],[-0.92992,0.5775]],[[270.38029,138.16279],[1.01141,-0.4187],[-2.71781,1.12511]],[[262.7939,142.68787],[2.45675,-1.50605],[-5.87828,3.60353]],[[251.24991,157.11203],[0.6969,-7.43818],[-1.92611,6.0975]],[[252.09803,175.7549],[-1.50402,-6.02003],[0.54492,2.1811]],[[255.08753,182.35019],[-1.88611,-1.48536],[4.07293,3.20751]],[[271.12114,185.80688],[-4.78077,-1.10601],[2.2932,2.23614]],[[278.43321,188.24195],[-2.98972,-0.45989],[3.49743,0.53799]],[[288.45937,188.5505],[-3.6185,0.25966],[4.68863,-0.33645]],[[302.65192,190.49892],[-4.66084,-0.42035],[4.35265,0.39255]],[[314.46118,188.03713],[-4.04592,1.18823],[4.09097,-1.57736]],[[326.41763,182.89714],[-3.91986,2.11137],[3.49078,-1.88026]],[[337.62831,177.54016],[-4.01276,0.56235],[3.63241,-0.50905]],[[342.52942,183.94182],[0.99659,-3.38307],[-1.03707,3.5205]],[[333.45934,190.81779],[3.03629,-1.21074],[-2.99831,0.8409]],[[327.57837,194.25547],[2.68859,-1.61621],[-2.48895,1.4962]],[[320.84402,198.77729],[1.94933,-2.38564],[-1.60567,1.96506]],[[317.70368,205.12137],[1.26782,-2.10229],[-0.59764,0.99101]],[[315.11152,207.73738],[1.02836,-0.78988],[-1.74762,3.51074]],[[309.56238,218.47568],[3.51312,-2.29284],[-2.09576,1.36779]],[[304.34449,220.29397],[2.09094,-0.8408],[-8.17424,3.28696]],[[278.2127,224.93397],[8.82045,-0.234],[-4.63006,0.00021]],[[263.72232,224.9196],[4.55743,0.73713],[-2.08005,-0.33643]],[[257.37312,224.49577],[2.16454,-0.79529],[-3.58608,1.31759]],[[248.38157,232.02271],[2.80346,-2.38944],[-4.76038,4.05737]],[[235.90854,245.34967],[3.27382,-5.35978],[-0.3584,1.83163]],[[235.29563,250.91511],[0.2123,-1.85425],[-0.01442,0.12598]],[[235.23133,251.29027],[0.02794,-0.12419],[0.42701,0.20847]],[[236.48742,251.96144],[-0.40781,-0.24374],[2.4659,1.41592]],[[243.3008,256.63819],[-2.25293,-1.54637],[0.0491,0.0064]],[[243.44822,256.65668],[-0.04918,-0.00592],[4.19891,0.50541]],[[254.76599,253.16761],[-2.99988,3.01008],[1.58409,-1.58947]],[[259.1546,248.4798],[-1.83913,1.34034],[3.70803,-2.70239]],[[271.14545,241.96553],[-3.87612,2.47109],[2.76047,-1.89011]],[[279.59876,236.46995],[-2.7004,1.95573],[3.87364,-2.80543]],[[292.12958,228.43089],[-4.73754,1.38587],[2.21991,-0.64939]],[[298.65482,228.12001],[-2.1476,0.43871],[2.51318,-0.51339]],[[306.96794,226.91053],[-2.715,-1.28331],[3.32489,1.57159]],[[311.13541,237.69667],[-0.02116,-3.14187],[-0.00841,4.47317]],[[307.70883,250.412],[2.15387,-3.94453],[-0.6591,1.20704]],[[304.92215,255.77277],[-0.5423,-1.54035],[0.73246,2.08049]],[[309.89494,260.35919],[-1.66326,-1.1349],[5.65833,3.86088]],[[328.92644,262.85647],[-6.40418,1.7954],[2.85025,-1.12452]],[[336.54817,258.55441],[-2.75379,1.35095],[1.49732,-0.73455]],[[342.59755,255.77382],[-1.2915,1.08971],[1.10139,-0.92931]],[[344.4076,251.84778],[-0.68504,1.26784],[2.19875,-4.06936]],[[345.73671,237.69667],[-0.01166,4.56083],[0.00695,-2.72055]],[[349.21037,230.06721],[-3.59113,0.78763],[1.37837,-0.30231]],[[355.12727,232.08137],[-1.11476,-0.51453],[1.45663,0.67232]],[[359.27615,234.5208],[-1.33595,-0.88827],[4.69514,2.70733]],[[374.36863,242.06073],[-5.3018,-1.38507],[13.31494,3.47847]],[[415.31708,250.12269],[-13.68851,-2.23869],[2.30018,0.38408]],[[421.82183,252.12258],[-2.22229,-0.43327],[4.06301,0.79215]],[[433.0122,251.82434],[-3.88434,0.80793],[0.30098,-0.0626]],[[433.92111,251.98069],[-0.27536,0.1367],[0.70509,-0.35005]],[[432.43995,250.1413],[0.59694,0.51318],[-1.90461,-1.63736]],[[426.14896,246.72672],[1.95884,1.41647],[-1.33648,-0.96643]],[[422.47831,243.40892],[1.30822,1.00435],[-3.31566,-2.54551]],[[411.73877,237.68617],[3.85345,1.54618],[-8.70431,-2.14115]],[[388.86303,225.09253],[7.37543,4.83068],[-1.09541,-0.71746]],[[382.04486,220.29419],[0.10607,0.90736],[-0.13485,-1.15359]],[[384.53538,217.85741],[-0.96746,0.64263],[2.71905,-1.80612]],[[394.03029,217.08638],[-2.98827,0.45493],[1.04363,-0.15888]],[[397.84447,215.80235],[-0.98756,0.38037],[4.2331,-0.06016]],[[410.40249,216.77426],[-4.16662,-0.83566],[0.10105,0.02027]],[[412.45194,217.08345],[-0.93947,-0.2516],[-0.30002,-0.37586]],[[411.55297,215.95496],[0.30307,0.3734],[-1.47744,-1.82027]],[[406.10309,211.1029],[1.95924,1.30564],[-3.15891,-2.10511]],[[396.17814,204.18859],[3.41502,1.8886],[0,0]]],&quot;closed&quot;:true,&quot;fillColor&quot;:[0,0,0,1]}]}" fill="#f29353" stroke="none" stroke-width="0.5"/><path d="M424.24435,241.00433c0,0 -0.01601,0.07912 -0.02199,0.20403c-1.31332,-1.15733 -2.65983,-2.27769 -4.24811,-3.15547c-2.26976,-1.2544 -4.89296,-2.21925 -7.29471,-3.17723c-7.35838,-1.82869 -13.55161,-6.24254 -19.66271,-10.60892c-1.28405,-0.91745 -3.78565,-2.95785 -5.59029,-3.96816c0.52195,-0.12158 1.04441,-0.23751 1.57593,-0.23441c3.37023,0.01963 6.18774,-0.00653 9.36418,-1.33763c3.85583,0.07805 7.70603,0.19871 11.50787,0.95779c0.57859,0.11552 5.46714,1.454 5.94457,1.08334c2.85731,-2.21833 -2.34238,-7.49765 -3.74379,-8.77683c-1.80339,-1.6461 -4.04689,-2.79046 -6.04471,-4.05779c-1.51874,-0.96343 -2.9439,-2.25922 -4.37071,-3.4352c3.6795,0.52315 7.12235,1.60356 10.88026,3.11787c6.52872,2.01905 7.68509,8.60026 10.57891,13.943c0.89138,1.64571 1.16133,3.00948 1.85435,4.67964c0.7534,1.81567 1.57275,1.87242 1.52359,3.67153c-0.10391,3.80264 -1.50396,7.36157 -2.25266,11.09446z" data-paper-data="{&quot;noHover&quot;:false,&quot;origItem&quot;:[&quot;Path&quot;,{&quot;applyMatrix&quot;:true,&quot;segments&quot;:[[[424.20987,240.96814],[0,0],[0.7487,-3.73289]],[[426.44998,229.89291],[-0.10391,3.80264],[0.04916,-1.79911]],[[424.92428,226.22914],[0.7534,1.81567],[-0.69302,-1.67016]],[[423.06923,221.56273],[0.89138,1.64571],[-2.89382,-5.34274]],[[412.52298,207.66268],[6.52872,2.01905],[-3.75791,-1.51431]],[[401.67377,204.54589],[3.6795,0.52315],[1.42681,1.17598]],[[406.02748,207.88315],[-1.51874,-0.96343],[1.99782,1.26733]],[[412.09659,211.9456],[-1.80339,-1.6461],[1.40141,1.27918]],[[415.86776,220.75618],[2.85731,-2.21833],[-0.47743,0.37066]],[[409.84074,219.72119],[0.57859,0.11552],[-3.80184,-0.75908]],[[398.41172,218.7482],[3.85583,0.07805],[-3.17644,1.3311]],[[389.05188,220.07186],[3.37023,0.01963],[-0.53152,-0.0031]],[[387.47612,220.30508],[0.52195,-0.12158],[1.80464,1.01031]],[[393.06658,224.26172],[-1.28405,-0.91745],[6.1111,4.36638]],[[412.65807,234.83051],[-7.35838,-1.82869],[2.40175,0.95798]],[[419.94174,238.01491],[-2.26976,-1.2544],[1.58828,0.87778]],[[424.18811,241.17194],[-1.31332,-1.15733],[0.00598,-0.12491]],[424.20987,240.96812]],&quot;closed&quot;:true,&quot;fillColor&quot;:[0,0,0,1],&quot;strokeWidth&quot;:0.5}]}" fill="#f7ee6f" stroke="none" stroke-width="0.25"/><path d="M315.07338,197.99077c1.03716,-0.13558 2.05142,-0.49879 3.0873,-0.60426c-1.35427,1.91394 -1.77496,3.97986 -2.89354,6.01809c-0.72011,-0.0367 -1.22783,0.57261 -1.22783,0.57261c-0.61063,0.75998 -1.39395,1.41 -1.83133,2.28129c-0.00835,0.01663 -0.01663,0.0334 -0.02488,0.05022c-0.85342,0.61788 -1.69059,1.21179 -2.26513,1.78429l0.31909,-0.40327c0,0 -1.40648,-0.0354 -1.40648,1.4646c0,1.5 1.50073,1.50213 1.50073,1.50213l0.57766,-0.14846c-0.5754,2.21634 -1.30678,4.46288 -3.09646,5.55723c-0.78437,0.47962 -3.71716,1.10703 -4.50644,1.42395c-7.8456,3.15024 -16.71046,4.23257 -25.18207,4.45449c-4.44429,-0.0002 -9.57817,0.7704 -13.93792,0.01988c-2.67829,-0.46106 -5.15656,-1.22733 -7.91158,-0.23234c-3.93782,1.42217 -6.74396,5.40846 -9.81029,8.01227c-5.17826,4.39719 -9.83731,8.62155 -13.30922,14.49661c-0.38395,1.85056 -0.72652,3.74564 -0.96459,5.59552c-2.09676,-1.2669 -3.72432,-3.40971 -5.7913,-4.65589c-1.06281,-0.64076 -2.67449,-0.64158 -3.56448,-1.6871c-3.36234,-3.94992 -1.91233,-7.51328 -1.03507,-12.26717c0.49204,-2.66635 0.39665,-5.90414 1.59388,-8.39197c1.1553,-2.40069 3.80153,-4.24356 5.27265,-6.48102c1.75033,-1.27149 2.75365,-3.07672 4.32706,-4.35847c0.50335,-0.41005 1.30145,-0.25457 1.85692,-0.59065c3.90756,-2.36426 7.48048,-5.3939 11.75499,-7.3482c2.6053,-1.19114 6.75181,-0.88183 9.51841,-0.8809c6.49516,0.00217 13.07701,0.20939 19.55296,-0.33145c5.62185,0.00468 10.14166,-2.05427 15.51919,-3.43076c2.78165,-0.71202 5.52701,-0.29746 8.32865,-0.70223c5.15558,-0.74487 10.3941,-0.04516 15.54914,-0.71904z" data-paper-data="{&quot;noHover&quot;:false,&quot;origItem&quot;:[&quot;Path&quot;,{&quot;applyMatrix&quot;:true,&quot;segments&quot;:[[[315.0298,198.01523],[0,0],[-5.15504,0.67388]],[[299.48574,198.74167],[5.15558,-0.74487],[-2.80164,0.40477]],[[291.16218,199.4492],[2.78165,-0.71202],[-5.37753,1.37649]],[[275.66204,202.89067],[5.62185,0.00468],[-6.47595,0.54084]],[[256.15076,203.21612],[6.49516,0.00217],[-2.7666,-0.00093]],[[246.64303,204.08765],[2.6053,-1.19114],[-4.27451,1.9543]],[[234.89721,211.41997],[3.90756,-2.36426],[-0.55547,0.33608]],[[233.04078,212.00916],[0.50335,-0.41005],[-1.57341,1.28175]],[[228.71531,216.36121],[1.75033,-1.27149],[-1.47112,2.23746]],[[223.44343,222.83431],[1.1553,-2.40069],[-1.19723,2.48783]],[[221.84893,231.21755],[0.49204,-2.66635],[-0.87726,4.75389]],[[222.88062,243.47299],[-3.36234,-3.94992],[0.88999,1.04552]],[[226.44381,245.15731],[-1.06281,-0.64076],[2.06698,1.24618]],[[232.23129,249.80682],[-2.09676,-1.2669],[0.23807,-1.84988]],[[233.11153,244.2648],[-0.38395,1.85056],[3.47191,-5.87506]],[[246.41591,229.75637],[-5.17826,4.39719],[3.06633,-2.60381]],[[256.22501,221.72415],[-3.93782,1.42217],[2.75502,-0.99499]],[[264.13837,221.94862],[-2.67829,-0.46106],[4.35975,0.75052]],[[278.17311,221.93425],[-4.44429,-0.0002],[8.47161,-0.22192]],[[303.25687,217.49807],[-7.8456,3.15024],[0.78928,-0.31692]],[[307.76345,216.07487],[-0.78437,0.47962],[1.78968,-1.09435]],[[310.86129,210.52306],[-0.5754,2.21634],[0,0]],[310.28364,210.67156],[[308.78364,209.17156],[0,1.5],[0,-1.5]],[310.28364,207.67156],[[309.87128,208.1109],[0,0],[0.57454,-0.5725]],[[312.13675,206.32747],[-0.85342,0.61788],[0.00825,-0.01682]],[[312.16165,206.27729],[-0.00835,0.01663],[0.43738,-0.87129]],[[313.99355,203.99735],[-0.61063,0.75998],[0,0]],[[315.22139,203.42477],[-0.72011,-0.0367],[1.11858,-2.03823]],[[318.11665,197.41021],[-1.35427,1.91394],[-1.03588,0.10547]],[[315.02978,198.01525],[1.03716,-0.13558],[0,0]]],&quot;closed&quot;:true,&quot;fillColor&quot;:[0,0,0,1],&quot;strokeWidth&quot;:0.5}]}" fill="#f7ee6f" stroke="none" stroke-width="0.25"/><path d="M269.55059,264.75621c-6.99501,-1.85666 -14.337,-2.36986 -21.03091,-5.19781c1.33559,-0.15148 2.66387,-0.47295 3.9788,-1.03805c3.27039,-1.40548 4.87912,-4.4054 7.23945,-6.78021c3.42595,-3.44697 8.94512,-4.69448 13.01079,-7.27737c2.78594,-1.90698 5.80059,-3.58137 8.52829,-5.5528c3.58994,-2.5946 7.25681,-6.32436 11.64192,-7.62289c2.0476,-0.60634 4.22102,0.15048 6.26354,-0.25168c1.98774,-0.39138 4.44844,-2.19575 6.60371,-1.39021c1.04986,0.39239 1.60868,3.64076 1.79454,4.28438c0.35581,1.23214 0.60477,2.51542 0.59406,3.79786c0.00821,3.96726 -1.13833,7.74451 -3.04611,11.24637c-1.29819,2.38292 -3.89185,4.54804 -3.04899,7.58855c0.79511,2.86825 3.91236,4.72389 6.17161,6.25089c6.46891,4.37225 14.30181,4.89713 21.6245,2.83628c2.99313,-1.21076 5.07251,-3.03251 7.94665,-4.42925c1.75469,-0.85272 5.44187,-2.05346 6.87482,-3.36749c0.5504,-0.50472 0.59887,-1.36316 0.93346,-2.0308c0.06779,-0.13527 2.61248,-4.84721 2.67062,-5.0586c1.07503,-3.90887 0.40329,-9.00164 0.39203,-13.04167c-0.00186,-0.66719 -0.32082,-4.70681 1.14778,-4.74316c2.2486,-0.05566 6.1036,2.87111 7.89822,4.07084c4.97447,2.87187 10.3032,6.40855 15.91255,7.90541c9.32834,2.48928 19.00202,4.36778 28.67125,6.03658c-3.1347,0.63197 -6.28922,1.12435 -9.45523,1.09434c-6.85974,1.13144 -13.8922,2.45248 -20.46811,4.49375c-6.41301,1.9907 -13.31887,2.67621 -19.72884,4.66218c-4.68214,1.45064 -9.36026,3.56417 -14.07413,5.10267c-3.85212,2.17158 -7.93254,1.56493 -12.17922,2.69572c-4.3032,1.14584 -8.14576,3.51134 -12.68529,3.83235c-8.76338,0.6197 -17.30158,-2.39987 -25.82228,-3.82063c-6.31604,-1.04793 -12.21431,-2.6645 -18.3595,-4.29559z" data-paper-data="{&quot;noHover&quot;:false,&quot;origItem&quot;:[&quot;Path&quot;,{&quot;applyMatrix&quot;:true,&quot;segments&quot;:[[[269.59916,264.74442],[0,0],[6.14519,1.63109]],[[287.95522,269.03031],[-6.31604,-1.04793],[8.5207,1.42076]],[[313.75608,272.82842],[-8.76338,0.6197],[4.53953,-0.32101]],[[326.41485,268.99016],[-4.3032,1.14584],[4.24668,-1.13079]],[[338.56405,266.30663],[-3.85212,2.17158],[4.71387,-1.5385]],[[352.62408,261.22439],[-4.68214,1.45064],[6.40997,-1.98597]],[[372.35016,256.57381],[-6.41301,1.9907],[6.57591,-2.04127]],[[392.81795,252.08509],[-6.85974,1.13144],[3.16601,0.03001]],[[402.27318,250.99154],[-3.1347,0.63197],[-9.66923,-1.6688]],[[373.60234,244.96124],[9.32834,2.48928],[-5.60935,-1.49686]],[[357.69357,237.06946],[4.97447,2.87187],[-1.79462,-1.19973]],[[349.80108,233.00847],[2.2486,-0.05566],[-1.4686,0.03635]],[[348.73665,237.69668],[-0.00186,-0.66719],[0.01126,4.04003]],[[348.35134,250.76246],[1.07503,-3.90887],[-0.05814,0.21139]],[[345.67947,255.83316],[0.06779,-0.13527],[-0.33459,0.66764]],[[344.74453,257.86912],[0.5504,-0.50472],[-1.43295,1.31403]],[[337.86133,261.25172],[1.75469,-0.85272],[-2.87414,1.39674]],[[329.89052,265.69732],[2.99313,-1.21076],[-7.32269,2.06085]],[[308.20989,262.84128],[6.46891,4.37225],[-2.25925,-1.527]],[[302.03096,256.57357],[0.79511,2.86825],[-0.84286,-3.04051]],[[305.07897,248.96837],[-1.29819,2.38292],[1.90778,-3.50186]],[[308.13537,237.69667],[0.00821,3.96726],[0.01071,-1.28244]],[[307.54479,233.89481],[0.35581,1.23214],[-0.18586,-0.64362]],[[305.81986,229.68216],[1.04986,0.39239],[-2.15527,-0.80554]],[[299.22212,231.06587],[1.98774,-0.39138],[-2.04252,0.40216]],[[292.96157,231.3132],[2.0476,-0.60634],[-4.38511,1.29853]],[[281.32518,238.92338],[3.58994,-2.5946],[-2.7277,1.97143]],[[272.79832,244.46911],[2.78594,-1.90698],[-4.06567,2.58289]],[[259.78793,251.73973],[3.42595,-3.44697],[-2.36033,2.37481]],[[252.54823,258.51536],[3.27039,-1.40548],[-1.31493,0.5651]],[[248.56939,259.553],[1.33559,-0.15148],[6.69391,2.82795]],[[269.59918,264.74442],[-6.99501,-1.85666],[0,0]]],&quot;closed&quot;:true,&quot;fillColor&quot;:[0,0,0,1],&quot;strokeWidth&quot;:0.5}]}" fill="#f7ee6f" stroke="none" stroke-width="0.25"/><path d="M156.65801,321.58484v-277.04485h324.53826v277.04486z" fill="none" stroke="#000000" stroke-width="0"/></g></g></svg>