<svg version="1.1" xmlns="http://www.w3.org/2000/svg" xmlns:xlink="http://www.w3.org/1999/xlink" width="1733.09309" height="836.33634" viewBox="0,0,1733.09309,836.33634"><g transform="translate(546.54655,238.16817)"><g data-paper-data="{&quot;isPaintingLayer&quot;:true}" stroke-linejoin="miter" stroke-miterlimit="10" stroke-dasharray="" stroke-dashoffset="0" style="mix-blend-mode: normal"><path d="M-546.54655,598.16817v-836.33634h1733.09309v836.33634z" fill="none" fill-rule="nonzero" stroke="#f00000" stroke-width="0" stroke-linecap="butt"/><path d="M164.31223,322.94222l33.51062,-26.20201l93.63269,-0.23395l-19.71212,26.43595z" fill="#cedce9" fill-rule="nonzero" stroke="#000000" stroke-width="0" stroke-linecap="round"/><path d="M155.40589,321.56833c-3.23389,-0.36981 -10.93005,-0.94626 -7.55727,-1.54218c-1.844,0.19096 -4.30412,0.42411 -5.61315,0.48683c-6.20127,0.29713 -14.23792,0 -20.63695,0c-17.55532,0 -34.59883,-0.15772 -51.59221,0.58996c-7.67977,0.33789 -9.79093,-0.70555 -12.14916,0.75443c-4.86436,2.44969 -14.01637,4.63565 -19.89547,7.10174c-7.9681,3.34232 -11.05811,6.56903 -15.94283,9.92039c-5.52757,2.75992 -1.025,8.05892 -1.025,11.13083c0,0.82229 1.55061,2.286 0.06965,2.89127c1.47223,0.03058 2.89418,0.05848 3.79981,0.05848c6.01912,0 12.03817,0 18.05732,0c23.94306,0 51.76182,-0.11974 75.00121,-1.44842c27.59276,-1.41743 57.49806,0.61518 85.31277,-0.65703c15.23203,-0.63807 31.83586,-0.25878 47.34465,-0.25428c7.86761,0.00228 14.60498,-0.68112 18.05729,0.58995c0.90739,0.33409 0,-0.78659 0,-1.17988c0,-0.98322 0,-1.96652 0,-2.94974c0,-5.50617 0,-11.01233 0,-16.5185c0,-1.3017 -1.49199,-5.95868 1.5946,-6.46262c-0.57897,-0.00791 -1.23426,-0.02077 -1.5946,-0.0268c-3.19203,-0.05326 -4.97543,-0.01302 -7.46653,-0.41952c-4.32469,-0.70571 -18.91496,-0.17042 -24.77861,-0.17042c-22.78658,0 -45.57311,0 -68.3597,0c0,0 -5.15921,0 -5.15921,-1.17988c0,-0.04844 0.00864,-0.09486 0.02534,-0.13939c-2.46639,-0.11956 -4.9577,-0.28536 -7.49184,-0.57513zM236.39149,321.103c13.75515,0 31.33537,-0.56015 40.72895,1.83212c5.3829,1.37085 1.83453,5.76613 1.83453,7.60704c0,5.50617 0,11.01232 0,16.51849c0,0.62876 1.77701,3.74776 0,4.12963c-17.94876,3.85692 -51.77923,0.84931 -73.69667,1.97832c-27.19829,1.24402 -58.52042,-1.12657 -84.83379,0.6324c-23.95197,1.36944 -52.80767,1.5189 -77.50383,1.5189c-3.54239,0 -24.78633,0.61354 -27.08588,0c-6.59428,-1.75943 -5.15921,-3.22712 -5.15921,-5.30953c0,-3.76661 -2.9196,-8.25642 1.55455,-11.87708c5.00655,-3.43492 8.51759,-6.87999 16.50277,-10.22948c3.22112,-1.35111 6.70037,-3.15843 10.86308,-4.37875c2.72386,-0.7985 7.93168,-1.44729 8.58236,-2.48531c4.41379,-2.7326 12.39022,-1.83725 21.82839,-2.29652c16.80111,-0.81757 34.18712,-0.58996 51.59221,-0.58996c6.41889,0 18.96058,-0.67558 23.48881,-0.46538c7.88258,0.36595 12.45236,1.90331 20.09224,2.35979c5.60602,0.33496 11.51373,0.13667 18.05732,0.88492c0.49676,0.05683 0.99342,0.11361 1.49024,0.17042c17.22133,0 34.44276,0 51.66413,0z" fill="#000000" fill-rule="nonzero" stroke="none" stroke-width="0" stroke-linecap="butt"/><path d="M162.96956,322.08685c-0.01671,0.04452 -0.02475,0.09098 -0.02475,0.13942c0,1.17989 5.18455,1.1819 5.18455,1.1819c22.78654,0 45.69452,0.02346 68.48118,0.02346c5.86362,0 20.46717,-0.52978 24.79186,0.1759c2.49105,0.40651 4.27852,0.36825 7.47043,0.42149c0.3603,0.00602 1.01613,0.01917 1.5952,0.02709c-3.08662,0.50394 -1.57896,5.17222 -1.57896,6.47392c0,5.50617 -0.01076,11.0451 -0.01076,16.55127c0,0.98325 -0.0088,1.97128 -0.0088,2.9545c0,0.39329 0.9035,1.51575 -0.0039,1.18167c-3.45229,-1.27106 -10.19581,-0.58514 -18.06335,-0.58741c-15.5088,-0.00449 -32.1596,-0.37033 -47.39158,0.26777c-27.81475,1.27222 -57.99335,-0.74894 -85.58613,0.66848c-23.23939,1.32869 -51.17108,1.42788 -75.11432,1.42788c-6.01914,0 -12.04873,-0.00371 -18.06785,-0.00371c-0.90571,0 -2.3296,-0.02864 -3.80175,-0.05922c1.48098,-0.60528 -0.07924,-2.07314 -0.07924,-2.89544c0,-3.0719 -4.52684,-8.39132 1.00085,-11.15126c4.88478,-3.35137 7.98535,-6.60048 15.95345,-9.94279c5.87919,-2.46611 15.06982,-4.66964 19.93423,-7.1193c2.35822,-1.45998 4.4854,-0.42102 12.16514,-0.75891c16.99333,-0.74765 34.14754,-0.60647 51.70273,-0.60647c6.39893,0 14.50751,0.29417 20.70878,-0.00295c1.3089,-0.06273 3.78955,-0.29586 5.63354,-0.48682c-3.37287,0.5959 4.35383,1.17308 7.58778,1.54286c2.53424,0.28977 5.05561,0.45714 7.52193,0.5767z" fill="#484848" fill-rule="nonzero" stroke="none" stroke-width="0" stroke-linecap="butt"/><path d="M90.64347,326.41255c0,0.39875 1.77858,0.88204 0.8921,1.19778c2.26744,0.05337 4.54827,0.16994 6.57435,0.40163c7.81194,0.8933 23.70353,4.14835 25.20199,6.30031c0.12184,0.17503 -2.0872,0.20428 -1.71311,0.35951c1.24483,0.51651 11.38938,-0.3811 12.55632,-0.23443c0.26405,0.03318 0.39375,0.08489 0.44572,0.14784c-0.05432,-0.19549 -0.10404,-0.38446 -0.10404,-0.50337c0,-0.41795 0.07221,-0.86834 -0.74507,-1.24217c-6.94709,-3.29491 -18.29746,-6.42715 -37.94899,-6.42715c0,0 -2.31904,-0.00001 -3.84764,-0.35557c-0.50973,-0.06622 -0.90615,-0.14412 -1.17189,-0.23545c-0.0683,0.22509 -0.13978,0.45421 -0.13978,0.59104zM134.49678,335.26169c0.3521,0.24157 0.24826,-0.1594 0.13126,-0.57887c-0.02449,0.18204 -0.37195,0.41379 -0.13126,0.57887zM142.98057,331.78433c6.41519,2.93422 -8.15102,7.2214 -21.38194,5.24723c-12.48347,-1.86267 -16.71065,-5.60622 -28.10334,-6.90894c-3.84882,-0.44012 -8.46069,-0.68038 -11.33588,-1.41259c-4.55627,-1.16038 -2.53653,-5.12267 6.17661,-5.12267c6.27407,0 9.3643,0.46538 15.20535,0.46538h2.5796c0,0 2.96127,0.00002 4.39682,0.51307c15.2825,1.14088 25.08922,4.0395 32.46283,7.21849z" fill="#000000" fill-rule="nonzero" stroke="none" stroke-width="0" stroke-linecap="butt"/><path d="M90.59181,325.78196c0.26562,0.09135 0.6622,0.16919 1.17199,0.23543c1.52857,0.35557 3.85813,0.35303 3.85813,0.35303c19.6515,0 31.41162,3.20151 38.35865,6.49643c0.81726,0.37381 0.72256,0.83243 0.72256,1.25035c0,0.11891 0.0402,0.31061 0.09452,0.5061c-0.05186,-0.06298 -0.18035,-0.11497 -0.44453,-0.14819c-1.16692,-0.14666 -11.39939,0.76647 -12.64422,0.24997c-0.37414,-0.15523 1.5899,-0.28809 1.46794,-0.46316c-1.49841,-2.15197 -17.46667,-5.39049 -25.27871,-6.28377c-2.02616,-0.23169 -4.32006,-0.34346 -6.58752,-0.39684c0.8865,-0.31576 -0.87094,-0.80631 -0.87094,-1.20506c0,-0.13683 0.08337,-0.36922 0.15184,-0.5943z" fill="#ffffff" fill-rule="nonzero" stroke="none" stroke-width="0" stroke-linecap="butt"/><path d="M367.45187,315.94222l-19.71212,-26.43596l93.63269,0.23395l33.51063,26.20201z" data-paper-data="{&quot;index&quot;:null}" fill="#cedce9" fill-rule="nonzero" stroke="#000000" stroke-width="0" stroke-linecap="round"/><path d="M483.78923,314.56843c-2.53413,0.28978 -5.02545,0.45558 -7.49183,0.57513c0.01671,0.04453 0.02535,0.09095 0.02535,0.13939c0,1.17987 -5.15921,1.17987 -5.15921,1.17987c-22.78659,0 -45.57312,0 -68.35969,0c-5.86365,0 -20.45392,-0.53529 -24.77862,0.17041c-2.4911,0.4065 -4.2745,0.36626 -7.46652,0.41953c-0.36034,0.00603 -1.01563,0.01889 -1.5946,0.02679c3.08659,0.50394 1.5946,5.16093 1.5946,6.46263c0,5.50617 0,11.01233 0,16.5185c0,0.98321 0,1.96652 0,2.94974c0,0.39329 -0.90739,1.51397 0,1.17987c3.45231,-1.27107 10.18967,-0.58767 18.05729,-0.58995c15.50879,-0.0045 32.11262,-0.38379 47.34465,0.25428c27.81472,1.27222 57.72001,-0.7604 85.31277,0.65703c23.23938,1.32867 51.05815,1.44842 75.00121,1.44842c6.01915,0 12.03819,0 18.05732,0c0.90563,0 2.32758,-0.0279 3.79981,-0.05848c-1.48096,-0.60526 0.06965,-2.06898 0.06965,-2.89127c0,-3.07191 4.50257,-8.37092 -1.02501,-11.13083c-4.88473,-3.35136 -7.97473,-6.57808 -15.94283,-9.92039c-5.8791,-2.46609 -15.03111,-4.65206 -19.89548,-7.10174c-2.35823,-1.45999 -4.46939,-0.41654 -12.14915,-0.75443c-16.99338,-0.74768 -34.0369,-0.58996 -51.59222,-0.58996c-6.39904,0 -14.43568,0.29714 -20.63695,0c-1.30903,-0.06272 -3.76915,-0.29586 -5.61315,-0.48683c3.37279,0.59591 -4.32338,1.17237 -7.55727,1.54218zM402.80355,314.10302c17.22136,0 34.4428,0 51.66413,0c0.49682,-0.0568 0.99348,-0.11359 1.49024,-0.17042c6.5436,-0.74824 12.45131,-0.54995 18.05732,-0.88492c7.63988,-0.45648 12.20966,-1.99384 20.09225,-2.35978c4.52823,-0.2102 17.06992,0.46538 23.48881,0.46538c17.4051,0 34.7911,-0.22762 51.59221,0.58995c9.43817,0.45927 17.4146,-0.43608 21.82839,2.29651c0.65069,1.03801 5.85851,1.68681 8.58236,2.48531c4.16271,1.22032 7.64196,3.02763 10.86308,4.37875c7.98518,3.34948 11.49622,6.79456 16.50277,10.22948c4.47415,3.62067 1.55455,8.11047 1.55455,11.87708c0,2.08241 1.43507,3.55009 -5.1592,5.30953c-2.29956,0.61354 -23.5435,0 -27.08589,0c-24.69616,0 -53.55186,-0.14946 -77.50383,-1.5189c-26.31336,-1.75896 -57.63549,0.61162 -84.83378,-0.6324c-21.91744,-1.12901 -55.7479,1.8786 -73.69666,-1.97832c-1.77701,-0.38187 0,-3.50088 0,-4.12964c0,-5.50617 0,-11.01232 0,-16.51848c0,-1.84091 -3.54837,-6.23619 1.83453,-7.60704c9.39358,-2.39227 26.9738,-1.83211 40.72896,-1.83211z" data-paper-data="{&quot;index&quot;:null}" fill="#000000" fill-rule="nonzero" stroke="none" stroke-width="0" stroke-linecap="butt"/><path d="M476.22547,315.08687c2.46632,-0.11955 4.98769,-0.28694 7.52193,-0.5767c3.23394,-0.36978 10.96065,-0.94696 7.58778,-1.54286c1.84399,0.19096 4.32464,0.42409 5.63354,0.48682c6.20128,0.29712 14.30986,0.00295 20.70879,0.00295c17.55519,0 34.70941,-0.14117 51.70274,0.60648c7.67974,0.33788 9.80691,-0.70107 12.16514,0.7589c4.86441,2.44966 14.05504,4.65319 19.93423,7.1193c7.9681,3.34231 11.06867,6.59143 15.95345,9.94279c5.52769,2.75993 1.00085,8.07935 1.00085,11.15125c0,0.8223 -1.56022,2.29016 -0.07924,2.89544c-1.47215,0.03058 -2.89604,0.05923 -3.80175,0.05923c-6.01912,0 -12.04871,0.00371 -18.06785,0.00371c-23.94324,0 -51.87493,-0.09918 -75.11432,-1.42788c-27.59278,-1.41742 -57.77139,0.60374 -85.58613,-0.66848c-15.23199,-0.6381 -31.88278,-0.27227 -47.39158,-0.26777c-7.86754,0.00227 -14.61106,-0.68364 -18.06335,0.58742c-0.9074,0.33408 -0.0039,-0.78838 -0.0039,-1.18167c0,-0.98321 -0.0088,-1.97125 -0.0088,-2.9545c0,-5.50617 -0.01076,-11.0451 -0.01076,-16.55127c0,-1.30169 1.50765,-5.96999 -1.57897,-6.47392c0.57907,-0.00793 1.23491,-0.02107 1.5952,-0.02709c3.19191,-0.05325 4.97939,-0.01498 7.47044,-0.42149c4.32468,-0.70568 18.92824,-0.1759 24.79186,-0.1759c22.78667,0 45.69464,-0.02346 68.48118,-0.02346c0,0 5.18455,-0.00201 5.18455,-1.1819c0,-0.04844 -0.00804,-0.09489 -0.02475,-0.13941z" data-paper-data="{&quot;index&quot;:null}" fill="#484848" fill-rule="nonzero" stroke="none" stroke-width="0" stroke-linecap="butt"/><path d="M548.5518,319.41253c0,-0.13682 -0.07147,-0.36595 -0.13978,-0.59104c-0.26574,0.09133 -0.66216,0.16924 -1.17189,0.23546c-1.5286,0.35557 -3.84764,0.35557 -3.84764,0.35557c-19.65152,0 -31.0019,3.13224 -37.94899,6.42715c-0.81729,0.37383 -0.74507,0.82422 -0.74507,1.24217c0,0.11891 -0.04972,0.30789 -0.10404,0.50338c0.05197,-0.06295 0.18168,-0.11466 0.44572,-0.14783c1.16694,-0.14667 11.31149,0.75093 12.55632,0.23442c0.37409,-0.15524 -1.83495,-0.18448 -1.71311,-0.35951c1.49847,-2.15197 17.39006,-5.40701 25.202,-6.30032c2.02609,-0.23169 4.30692,-0.34826 6.57436,-0.40163c-0.88648,-0.31574 0.89209,-0.79903 0.89209,-1.19779zM504.56721,327.68282c-0.117,0.41947 -0.22084,0.82044 0.13126,0.57887c0.24069,-0.16507 -0.10677,-0.39683 -0.13126,-0.57887zM496.21458,324.78431c7.37361,-3.17899 17.18033,-6.07762 32.46283,-7.2185c1.43555,-0.51306 4.39681,-0.51308 4.39681,-0.51308h2.57961c5.84105,0 8.93128,-0.46537 15.20535,-0.46537c8.71315,0 10.73289,3.9623 6.17662,5.12268c-2.87519,0.73221 -7.48707,0.97246 -11.33588,1.41258c-11.39268,1.30271 -15.61987,5.04627 -28.10334,6.90894c-13.23092,1.97417 -27.79713,-2.31302 -21.38194,-5.24723z" data-paper-data="{&quot;index&quot;:null}" fill="#000000" fill-rule="nonzero" stroke="none" stroke-width="0" stroke-linecap="butt"/><path d="M548.60376,318.78192c0.06847,0.22508 0.15184,0.45748 0.15184,0.59431c0,0.39875 -1.75744,0.8893 -0.87094,1.20506c-2.26746,0.05338 -4.56135,0.16515 -6.58751,0.39684c-7.81203,0.89328 -23.7803,4.1318 -25.27871,6.28377c-0.12196,0.17507 1.84208,0.30792 1.46794,0.46315c-1.24482,0.5165 -11.4773,-0.39663 -12.64422,-0.24996c-0.26417,0.03322 -0.39267,0.08522 -0.44453,0.14819c0.05432,-0.19549 0.09452,-0.38719 0.09452,-0.5061c0,-0.41793 -0.0947,-0.87654 0.72256,-1.25035c6.94703,-3.29492 18.70715,-6.49643 38.35865,-6.49643c0,0 2.32956,0.00254 3.85813,-0.35303c0.50979,-0.06624 0.90637,-0.14408 1.172,-0.23543z" data-paper-data="{&quot;index&quot;:null}" fill="#ffffff" fill-rule="nonzero" stroke="none" stroke-width="0" stroke-linecap="butt"/><g stroke="none" stroke-linecap="butt"><path d="M396.01124,-5.4259c0.49705,-0.09085 0.99409,-0.1817 1.49114,-0.27254c16.10507,10.76623 32.26437,21.4245 48.4774,31.97488c4.07399,1.80257 7.77036,4.20888 11.07917,7.22074c0.52732,0.07481 1.05467,0.14969 1.582,0.2245c2.61889,2.2442 5.39435,4.30518 8.3214,6.18384c0.72168,0.21071 1.44822,0.42 2.16989,0.6307c3.30881,3.01187 7.00519,5.41816 11.07918,7.22074c34.32356,22.77045 68.91608,45.2981 103.78243,67.58154c0.09085,0.49705 0.1817,0.99409 0.27254,1.49114c-1.38692,2.13552 -2.98772,4.14062 -4.80756,6.01523c-1.7651,-0.49564 -3.43794,-1.21718 -5.01852,-2.16465c8.90885,47.16816 17.95695,94.31138 27.13438,141.43146c-98.20215,18.0589 -196.36956,36.00153 -294.50075,53.82762c-5.39536,0.98665 -10.55377,2.2721 -15.47531,3.85581c-0.49705,0.09085 -0.9941,0.1817 -1.49115,0.27255c-0.83589,-4.07869 -1.59293,-8.22058 -2.27121,-12.42619c-96.36547,17.96256 -192.73212,35.91867 -289.10005,53.8678c-1.98505,-11.88523 -3.81886,-23.79194 -5.50156,-35.72061c-0.32267,-1.04846 -0.83574,-1.98198 -1.53918,-2.80059c0.13947,-2.78072 -0.02882,-5.57505 -0.50491,-8.38298c-3.15117,-20.31224 -6.34864,-40.61652 -9.59235,-60.91236c-3.79495,0.86365 -7.63603,1.39415 -11.52295,1.59247c-1.0672,-1.97513 -2.25901,-3.81191 -3.57542,-5.51033c-0.1211,-0.66256 -0.24229,-1.32563 -0.36339,-1.98819c38.43834,-7.0256 76.87688,-14.05124 115.31506,-21.07681c-5.36005,-29.32581 -10.7201,-58.65163 -16.08015,-87.97744c-0.50935,0.16963 -1.02149,0.17797 -1.53657,0.02402c-6.00589,-2.8651 -12.00442,-5.70689 -17.99503,-8.52495c-0.56059,-0.59405 -0.86288,-1.30928 -0.90586,-2.14587c84.13632,-15.54913 168.27305,-31.09886 252.40937,-46.64798c0.44996,1.66932 1.08429,3.26538 1.90257,4.78878c12.13187,-1.98729 24.18112,-4.44643 36.14821,-7.3775c19.97004,-28.38246 40.17611,-56.47413 60.61718,-84.27484z" fill="#000000" fill-rule="evenodd" stroke-width="1"/><path d="M396.8717,-3.52858c19.96989,12.56538 39.7918,25.46493 59.46572,38.69858c18.38881,11.69104 36.65641,23.59018 54.80798,35.6975c0.72168,0.21071 1.44822,0.42 2.16989,0.6307c2.61889,2.2442 5.39435,4.30518 8.3214,6.18384c0.5273,0.07467 1.0547,0.14984 1.582,0.2245c10.41828,7.34256 20.97006,14.48814 31.65553,21.43772c4.07399,1.80257 7.77037,4.20888 11.07918,7.22074c3.47361,1.38427 6.57712,3.38529 9.31549,6.00214c2.51087,0.8663 4.80186,2.15956 6.87305,3.8803c-0.93638,1.50921 -1.95187,2.97896 -3.04649,4.40921c-0.83662,-0.86771 -1.85224,-1.28152 -3.05173,-1.24c-0.94244,-0.94083 -1.88479,-1.88117 -2.82723,-2.82199c-4.86058,-3.01485 -9.76685,-5.97049 -14.7188,-8.86694c-2.5269,-2.47162 -5.43614,-4.33709 -8.72759,-5.59595c-9.43003,-6.51644 -19.1088,-12.62322 -29.03141,-18.32178c-25.9264,-16.64976 -51.90993,-33.30297 -77.96043,-49.95729c-2.78442,-1.48616 -5.49731,-3.21611 -8.1397,-5.18975c-0.52732,-0.07481 -1.05466,-0.14969 -1.58199,-0.2245c-4.55223,-3.51136 -9.25539,-6.76095 -14.1095,-9.74878c-7.08888,-4.39508 -14.20366,-8.65928 -21.34333,-12.79266c-0.31639,0.14346 -0.63229,0.28676 -0.94868,0.43022c-25.25223,36.54757 -50.50398,73.09486 -75.75618,109.6426c-0.21044,0.72316 -0.08924,1.38623 0.36339,1.98819c3.79216,1.89621 7.15402,4.36367 10.08508,7.40244c8.88217,5.41308 17.33932,11.40106 25.37037,17.96362c5.01805,3.03333 9.88674,6.25267 14.60655,9.65793c1.04053,1.00816 2.08064,2.01692 3.12118,3.02509c5.65285,3.76071 11.30528,7.52202 16.95814,11.28273c0.25637,0.46679 0.51324,0.9335 0.76959,1.4003c5.75409,4.01393 11.60279,7.91042 17.54603,11.68894c0.84426,0.87299 1.68902,1.7459 2.53328,2.61889c3.3081,1.7068 6.34576,3.80564 9.11239,6.29609c-2.06195,2.35701 -3.92011,4.83701 -5.57454,7.43955c-30.90879,-23.09358 -62.11381,-45.81252 -93.61435,-68.15589c-2.01353,-2.54901 -4.56097,-4.30956 -7.64265,-5.28059c-15.41974,22.31712 -30.85531,44.65717 -46.30672,67.02013c-1.21548,2.30348 -1.37164,4.72873 -0.46779,7.27664c-98.77803,18.81445 -197.5845,37.47332 -296.41949,55.97611c-0.96553,-1.53552 -1.93115,-3.07156 -2.89668,-4.60708c97.17939,-18.19146 194.38978,-36.216 291.63071,-54.07352c-0.77983,-1.91156 -1.39175,-3.85433 -1.83575,-5.8283c24.01463,-33.58942 48.09426,-67.183 72.23928,-100.78135c0.42732,-0.3262 0.9093,-0.49956 1.44572,-0.52107c-0.26312,-1.611 0.39893,-2.67353 1.98557,-3.188c3.23715,-5.15907 6.59166,-10.22402 10.06414,-15.19445c0.73774,-0.64849 1.47496,-1.29689 2.21269,-1.94538c3.03333,-5.01805 6.25267,-9.88674 9.65793,-14.60655c1.00819,-1.04037 2.0169,-2.0808 3.02509,-3.12118c2.76241,-4.62578 5.71076,-9.10269 8.84554,-13.43076c1.14393,-1.23638 2.28736,-2.47269 3.43129,-3.70907c8.68708,-12.04951 17.26269,-24.1468 25.72683,-36.29188z" fill="#524950" fill-rule="evenodd" stroke-width="1"/><path d="M397.47008,8.17607c9.04295,5.30357 17.95121,10.9521 26.72525,16.9455c0.52732,0.07481 1.05466,0.14969 1.58199,0.22451c2.52893,2.47144 5.43813,4.33678 8.72759,5.59595c7.56403,4.79426 14.98213,9.77369 22.24921,14.93853c2.9163,1.39831 5.76493,2.93226 8.5459,4.60184c7.26707,5.16484 14.68519,10.14438 22.2492,14.93853c3.29145,1.25884 6.20068,3.12433 8.72759,5.59595c0.5273,0.07467 1.05469,0.14984 1.58199,0.2245c8.6779,5.99849 17.56951,11.56446 26.67982,16.69698c6.63089,4.43821 13.26673,8.87552 19.89761,13.31374c5.10321,2.65614 9.94006,5.70974 14.5157,9.16088c0.72168,0.21071 1.44822,0.42 2.16989,0.6307c3.38438,2.91945 7.01133,5.42373 10.87608,7.51469c9.42645,47.41461 18.69919,94.85939 27.81312,142.33472c-73.89608,13.50642 -147.78867,27.0122 -221.68326,40.51834c-7.60748,-35.94798 -15.08999,-71.73489 -22.44784,-107.35969c-0.49866,-1.79242 -0.99773,-3.58424 -1.49638,-5.37668c-2.90087,-2.35086 -5.59966,-4.9395 -8.0969,-7.76583c-2.88552,-0.72694 -5.57588,-1.86142 -8.07025,-3.40465c-1.08494,-0.31535 -2.16989,-0.6307 -3.25483,-0.94605c-4.97177,0.38993 -9.93491,0.86919 -14.89003,1.4374c-1.3105,0.22104 -2.5077,0.69668 -3.59158,1.42694c-2.24281,2.60682 -4.72645,4.94434 -7.45048,7.01194c-1.67942,4.57643 -3.70156,8.96947 -6.06635,13.17961c6.40784,37.35172 12.97294,74.67572 19.69529,111.972c-10.438,1.90781 -20.876,3.81563 -31.314,5.72344c-7.4769,-41.29532 -14.93431,-82.56545 -22.3727,-123.81029c15.76832,-22.40242 31.1433,-45.07398 46.12502,-68.01423c33.5959,24.22713 67.08457,48.66854 100.46601,73.32422c0.72316,0.21044 1.38623,0.08924 1.98819,-0.36339c1.63213,-2.7808 3.46003,-5.42632 5.48369,-7.9366c4.56125,23.14002 9.21492,46.26006 13.96139,69.35956c35.12487,-6.41998 70.24775,-12.83959 105.3741,-19.25984c-5.77318,-35.23949 -12.19306,-70.36386 -19.25984,-105.3741c-9.12973,-1.69779 -18.20039,-3.55019 -27.21182,-5.55621c-5.92472,0.2965 -11.84638,0.69414 -17.76007,1.1915c-15.53212,3.40442 -30.86433,7.57669 -45.9957,12.51612c-4.9784,4.43976 -10.10396,8.71531 -15.37661,12.82669c1.677,10.65894 3.61506,21.26246 5.81429,31.81105c-32.97016,-23.85558 -66.0066,-47.69445 -99.10851,-71.51773c24.51446,-35.89924 49.22479,-71.66271 74.13139,-107.29102c0.17663,-0.3376 0.19907,-0.68415 0.06683,-1.03952z" fill="#3b3d50" fill-rule="evenodd" stroke-width="1"/><path d="M401.80892,57.20733c7.4846,-2.24172 14.98634,-2.414 22.50603,-0.51799c2.39744,9.30888 4.45509,18.69218 6.17246,28.15002c-10.93505,1.99866 -21.8701,3.99733 -32.80515,5.99599c-1.77914,-9.26471 -3.39191,-18.55778 -4.83897,-27.8801c1.18801,-1.22287 2.43011,-2.39143 3.72524,-3.50597c1.93141,-0.47732 3.67841,-1.2245 5.2404,-2.24195z" fill="#000000" fill-rule="evenodd" stroke-width="1"/><path d="M403.57261,58.42593c6.53669,-1.9 13.04475,-1.89115 19.52375,0.0271c2.16761,8.32409 4.04357,16.7133 5.62736,25.16774c-9.94096,1.81697 -19.8819,3.63393 -29.82286,5.4509c-1.71112,-8.42602 -3.08953,-16.90617 -4.13622,-25.44028c1.02334,-0.95752 2.04718,-1.91513 3.07051,-2.87265c2.07507,-0.55135 3.98758,-1.32878 5.73745,-2.3328z" fill="#587cac" fill-rule="evenodd" stroke-width="1"/><path d="M172.45064,106.31962c41.22619,-7.7062 82.5114,-15.08109 123.85571,-22.12418c0.72651,1.38095 1.33008,2.81157 1.81174,4.29173c11.87015,-2.52554 23.75388,-4.95442 35.65116,-7.28665c-1.75846,1.49664 -3.14257,3.29058 -4.15284,5.38192c-11.69143,2.56478 -23.46973,4.63179 -35.3358,6.20171c-0.54349,-1.09901 -1.08655,-2.19862 -1.63004,-3.29763c-9.72269,1.60602 -19.44545,3.21155 -29.16814,4.81758c-66.44616,12.57005 -132.90695,25.06008 -199.38295,37.46969c0.46776,1.6599 0.60513,3.34731 0.41144,5.06133c-4.80318,-2.9565 -9.86713,-5.36968 -15.19183,-7.23953c41.15727,-7.60833 82.20129,-15.36702 123.13155,-23.27595z" fill="#524950" fill-rule="evenodd" stroke-width="1"/><path d="M235.67176,100.92815c18.52901,-3.5577 37.11605,-6.78392 55.76019,-9.67797c0.72395,1.20112 1.29767,2.46565 1.72088,3.79468c11.58393,-2.20304 23.19672,-4.2398 34.83877,-6.11086c-20.22799,28.85692 -40.85541,57.45348 -61.8812,85.79001c-58.07198,11.97482 -116.22556,23.54541 -174.46112,34.71237c-3.76636,0.68429 -7.52447,1.20013 -11.27442,1.54704c-4.97254,-25.80056 -9.77967,-51.63187 -14.42086,-77.49402c56.83107,-10.38941 113.40366,-21.24315 169.71776,-32.56126z" fill="#6f6a69" fill-rule="evenodd" stroke-width="1"/><path d="M241.45991,104.49309c1.16375,-0.23429 1.93233,0.22467 2.30616,1.37627c3.15371,20.03954 6.6368,40.03479 10.45017,59.98509c-45.00477,8.57097 -90.00959,17.13885 -135.01527,25.70483c-3.63393,-19.88191 -7.26786,-39.76381 -10.9018,-59.64572c38.9961,-7.71927 77.99091,-15.44551 116.98528,-23.17987c5.66936,-0.9602 11.0612,-2.37357 16.17546,-4.24061z" fill="#000000" fill-rule="evenodd" stroke-width="1"/><path d="M227.00267,109.70379c4.97048,-0.90848 9.94096,-1.81697 14.91143,-2.72545c3.51283,19.21935 7.02557,38.43819 10.5384,57.65754c-6.95867,1.27188 -13.91733,2.54375 -20.876,3.81563c-3.30007,-19.08667 -6.61655,-38.17035 -9.95051,-57.25133c1.95268,-0.19511 3.74511,-0.69377 5.37667,-1.49639z" fill="#524950" fill-rule="evenodd" stroke-width="1"/><path d="M193.29428,116.37852c8.94685,-1.63527 17.89372,-3.27054 26.84058,-4.90581c3.31101,19.08467 6.62806,38.16875 9.95051,57.25133c-28.93695,5.61875 -57.87073,11.24922 -86.80165,16.89255c-3.45224,-18.88781 -6.90447,-37.77563 -10.35671,-56.66344c20.24543,-3.99726 40.36802,-8.18884 60.36727,-12.57463z" fill="#587cac" fill-rule="evenodd" stroke-width="1"/><path d="M126.46542,130.13418c1.65666,-0.3028 3.31382,-0.60569 4.97048,-0.90848c3.45224,18.88781 6.90447,37.77563 10.35671,56.66344c-7.12418,1.30213 -14.24887,2.60435 -21.37305,3.90648c-3.42198,-18.7223 -6.84387,-37.44409 -10.26586,-56.16639c5.5863,-0.85255 11.02357,-2.01741 16.31173,-3.49504z" fill="#524950" fill-rule="evenodd" stroke-width="1"/><path d="M472.69794,133.11242c7.40578,-0.82094 14.82877,-1.40721 22.27891,-1.76061c7.53824,1.95528 15.18065,3.4688 22.91747,4.54334c1.49783,0.21369 2.87672,0.73215 4.13667,1.55535c6.60658,33.89755 12.73497,67.87685 18.37538,101.94021c-34.13227,6.23855 -68.26105,12.47647 -102.39183,18.71475c-5.6745,-29.69724 -11.44174,-59.3765 -17.30136,-89.03836c-0.57644,-4.08964 -1.15229,-8.17888 -1.72874,-12.26852c4.88961,-4.47592 10.03024,-8.66897 15.42203,-12.57818c12.79798,-3.85393 25.56004,-7.55592 38.29146,-11.10797z" fill="#587cac" fill-rule="evenodd" stroke-width="1"/><path d="M243.65505,181.13976c6.94549,-1.35524 13.91933,-2.54412 20.92143,-3.56711c-3.35638,3.60189 -6.3282,7.48381 -8.91498,11.64566c0.18256,1.82503 0.89998,3.40642 2.15111,4.74336c-58.33939,10.56236 -116.62924,21.38737 -174.86994,32.47565c-0.81764,-4.47343 -1.63527,-8.94686 -2.4529,-13.42029c54.5017,-10.47627 108.89034,-21.1019 163.16529,-31.87729z" fill="#3f4366" fill-rule="evenodd" stroke-width="1"/><path d="M318.90144,179.7142c5.12602,-0.68419 10.27034,-1.1108 15.4325,-1.27974c3.25989,1.53583 6.64267,2.71533 10.14929,3.53831c2.89812,3.04686 5.8386,6.0192 8.82106,8.9176c-0.02241,0.34671 -0.04442,0.69282 -0.06683,1.03952c-2.22786,-1.3947 -4.31575,-2.98191 -6.26376,-4.76214c-2.95625,-0.47311 -5.88679,-1.05004 -8.7918,-1.73181c-3.32588,-0.02801 -6.60212,0.31398 -9.8287,1.02597c-3.04703,2.2227 -6.28408,4.18427 -9.71122,5.88419c-1.96159,3.56372 -3.41152,7.33852 -4.35071,11.32508c5.23254,30.03331 10.63076,60.03736 16.19502,90.01106c14.22447,-2.74063 28.44258,-5.51041 42.65526,-8.31c1.11005,5.44935 2.27539,10.88652 3.49504,16.31172c-17.56218,3.20994 -35.12487,6.41998 -52.68705,9.62992c-6.62852,-36.79978 -13.10277,-73.62673 -19.42275,-110.48085c2.20003,-4.04082 3.98874,-8.30593 5.36621,-12.79482c3.29974,-2.52058 6.30234,-5.29556 9.00845,-8.32402z" fill="#6e685f" fill-rule="evenodd" stroke-width="1"/><path d="M329.66522,188.01989c5.19902,-0.72322 10.36637,-0.55461 15.50195,0.50536c3.01034,1.93534 5.88199,4.06452 8.61534,6.38694c6.57946,29.60683 12.94193,59.26308 19.08646,88.96891c-13.56168,2.61795 -27.11764,5.2672 -40.66706,7.94661c-5.41289,-29.14562 -10.6596,-58.32059 -15.74078,-87.52582c0.8304,-3.60096 1.99472,-7.06673 3.49288,-10.39781c3.28461,-1.98515 6.52174,-3.94622 9.71122,-5.88419z" fill="#413142" fill-rule="evenodd" stroke-width="1"/><path d="M219.41152,208.68525c16.23706,-2.96774 32.47361,-5.93539 48.71067,-8.90313c0.3028,1.65666 0.60569,3.31382 0.90848,4.97048c-89.87442,16.94259 -179.7492,33.88317 -269.62435,50.82178c0.13216,1.08277 0.56238,2.03143 1.29066,2.84601c1.23638,1.14393 2.47269,2.28736 3.70907,3.43129c3.41692,18.89529 6.62064,37.82852 9.61114,56.79971c-6.65754,1.04579 -13.31523,2.09109 -19.97275,3.13689c-3.56336,-22.80773 -7.04943,-45.62753 -10.45802,-68.45892c78.71383,-14.77274 157.32203,-29.65406 235.82511,-44.64408z" fill="#6e685f" fill-rule="evenodd" stroke-width="1"/><path d="M225.56297,214.2384c14.5799,-2.66485 29.1603,-5.3298 43.7402,-7.99465c0.63594,3.47933 1.27188,6.95866 1.90781,10.438c-55.82032,10.29044 -111.60975,20.74422 -167.36879,31.36146c2.53708,17.39649 5.7016,34.71017 9.49365,51.94148c-2.81678,0.51484 -5.63304,1.02958 -8.44982,1.54442c-2.72845,-17.474 -5.74263,-34.90093 -9.04203,-52.28085c-28.30356,5.33244 -56.60492,10.6768 -84.9043,16.0321c5.12688,29.88208 10.24644,59.7655 15.3586,89.65027c-1.49114,0.27254 -2.98229,0.54509 -4.47343,0.81764c-5.17814,-31.75577 -10.54798,-63.477 -16.1094,-95.16323c-1.13836,-1.07606 -2.27676,-2.15213 -3.41512,-3.22819c59.45489,-11.47097 118.94192,-22.77163 178.46152,-33.90258c15.16343,-2.77151 30.09727,-5.84367 44.80112,-9.21586z" fill="#564b4e" fill-rule="evenodd" stroke-width="1"/><path d="M188.97363,233.25371c27.50314,-5.02691 55.00677,-10.05391 82.50992,-15.08082c0.27254,1.49114 0.54509,2.98228 0.81764,4.47343c-54.04439,9.69875 -108.08691,19.40486 -162.12839,29.1195c0.44496,3.6822 0.94564,7.35731 1.50162,11.02589c54.14976,-10.05804 108.29762,-20.12652 162.44374,-30.20444c4.45157,24.35533 8.90313,48.71067 13.3547,73.06601c-55.24806,10.59985 -110.52527,21.04579 -165.83223,31.33743c-5.52209,-29.29619 -11.04765,-58.59175 -16.5772,-87.88659c28.11435,-4.96809 56.08478,-10.25145 83.91021,-15.85041z" fill="#6f6a69" fill-rule="evenodd" stroke-width="1"/><path d="M53.86749,258.4615c13.5858,-2.48316 27.17211,-4.9664 40.75791,-7.44956c2.71779,14.4002 5.26938,28.82976 7.65528,43.28858c0.52121,2.82073 0.60634,5.63026 0.25638,8.42841c3.19329,11.93764 5.75011,24.05481 7.67144,36.35131c-27.46598,5.23019 -54.93887,10.42263 -82.41907,15.57787c-5.01763,-29.3884 -10.0463,-58.77478 -15.08606,-88.15914c13.86688,-2.36451 27.58846,-5.04353 41.16411,-8.03746z" fill="#6f6a69" fill-rule="evenodd" stroke-width="1"/><path d="M78.99244,255.41023c4.47343,-0.81764 8.94685,-1.63527 13.42029,-2.4529c0.61242,3.99985 1.1732,8.00658 1.68331,12.02c-24.70023,4.52898 -49.32651,9.37268 -73.8784,14.53049c-0.70856,-3.12603 -1.44961,-6.24354 -2.22316,-9.35306c-0.49705,0.09085 -0.9941,0.1817 -1.49115,0.27255c-0.09085,-0.49705 -0.1817,-0.99409 -0.27254,-1.49114c20.96255,-4.68822 41.88297,-9.19667 62.76167,-13.52593z" fill="#000000" fill-rule="evenodd" stroke-width="1"/><path d="M80.34993,257.21672c3.64485,-0.66619 7.2902,-1.33247 10.93505,-1.99866c0.24904,2.85764 0.59837,5.70466 1.04737,8.54066c-23.66498,4.48257 -47.32749,8.97854 -70.98697,13.48835c-0.57959,-2.46593 -1.19955,-4.92087 -1.85977,-7.36487c20.39678,-4.09941 40.68489,-8.32124 60.86433,-12.66548z" fill="#151b20" fill-rule="evenodd" stroke-width="1"/><path d="M111.93644,252.98442c53.54707,-9.60939 107.09245,-19.22513 160.63724,-28.84695c0.42399,2.31972 0.84789,4.63894 1.27188,6.95866c-53.65163,9.97316 -107.30252,19.9503 -160.9526,29.93191c-0.24491,-2.68889 -0.56389,-5.36991 -0.95652,-8.04361z" fill="#151b20" fill-rule="evenodd" stroke-width="1"/><path d="M-5.68308,323.27942c6.6707,-0.95882 13.32825,-2.00461 19.97275,-3.13688c2.09573,11.94616 4.11043,23.90557 6.04403,35.87828c-6.793,1.2416 -13.58596,2.48319 -20.37896,3.72478c-1.93485,-12.14763 -3.81413,-24.30286 -5.63782,-36.46618z" fill="#3b3d50" fill-rule="evenodd" stroke-width="1"/><path d="M105.15858,303.02024c2.81678,-0.51484 5.63304,-1.02958 8.44982,-1.54442c2.18036,11.92914 4.36072,23.85829 6.54108,35.78744c-2.81678,0.51484 -5.63304,1.02958 -8.44982,1.54442c-2.18036,-11.92914 -4.36072,-23.85829 -6.54108,-35.78744z" fill="#3b3d50" fill-rule="evenodd" stroke-width="1"/><path d="M338.74927,134.71796c3.53769,1.548 8.04571,3.82864 9.20876,7.81566c0.64471,2.21011 0.16584,4.66055 -0.03148,6.9009c-0.11067,6.98567 -8.65182,10.31662 -14.3836,11.35486c-6.40269,0.17088 -11.55801,-3.677 -12.80126,-10.09455c-1.09186,-6.00936 -1.71258,-14.37981 5.83061,-15.78174c3.89973,-0.71278 8.4089,-1.92524 12.27368,-0.68694zM332.36643,134.92337c-1.8819,0.25852 -3.81159,0.73512 -5.59821,1.06167c-6.80733,1.22554 -5.93844,9.16045 -4.95458,14.51386c0.96427,5.7136 5.89356,9.53253 11.60985,9.20733c5.12803,-0.94651 13.42789,-3.94079 13.41457,-10.32347c0.18337,-2.09947 0.66915,-4.45219 0.07913,-6.5264c-1.02211,-3.59322 -5.23869,-5.67044 -8.45487,-7.07553c-0.10529,0.1231 -0.28917,0.24193 -0.5789,0.13998c-0.32111,-0.11301 -0.371,-0.35603 -0.36323,-0.52249c-1.09729,-0.31177 -2.21061,0.10576 -3.36032,0.31589c-3.30187,0.6035 -8.74906,1.17464 -10.74409,4.08188c0,0 -0.30972,0.44827 -0.75799,0.13854c-0.44826,-0.30973 -0.13854,-0.75799 -0.13854,-0.75799c1.92055,-2.76268 6.328,-3.63666 9.8472,-4.25327z" fill="#00ffd7" fill-rule="nonzero" stroke-width="0.5"/><path d="M322.56477,139.20657c0,0 -0.30855,0.4464 0.13971,0.75611c0.44826,0.30973 0.6657,-0.19646 0.6657,-0.19646c1.99503,-2.90724 7.48644,-3.503 10.78831,-4.1065c1.14971,-0.21014 2.27836,-0.62586 3.37565,-0.31409c-0.00777,0.16647 0.04431,0.41011 0.36541,0.52312c0.28971,0.10196 0.47581,-0.01613 0.58111,-0.13923c3.2162,1.40511 7.46611,3.51638 8.48822,7.1096c0.59001,2.07421 0.10606,4.45438 -0.07731,6.55385c0.01334,6.38269 -8.3444,9.42107 -13.47244,10.36758c-5.71629,0.3252 -10.69375,-3.53357 -11.65802,-9.24717c-0.98386,-5.35342 -1.83133,-13.34753 4.97599,-14.57306c1.78662,-0.32655 3.75664,-0.70474 5.63854,-0.96326c-3.51919,0.61662 -7.89034,1.46683 -9.81089,4.22951z" fill="#ffffff" fill-rule="nonzero" stroke-width="0.5"/><path d="M301.56917,137.14075c3.56551,-0.34208 6.8294,1.16569 9.916,3.74055c2.45576,2.04871 5.54633,4.00929 6.34089,7.3289c0.45901,1.91772 -0.02755,3.94695 -0.21345,5.84652c-0.12749,1.30255 -0.30983,2.06621 -1.28319,3.00775c-2.7851,5.62379 -8.11293,8.83546 -13.98705,9.9091c-4.03147,0.73686 -6.45713,-1.60737 -9.98128,-3.12757c-1.55715,-0.67169 -3.45917,-0.97863 -4.74728,-2.03112c-0.96183,-0.78589 -1.89971,-2.39575 -2.13236,-3.59515c-0.29185,-1.59675 -0.96686,-3.51133 -0.91794,-5.1294c0.12839,-4.2466 4.8834,-8.4783 7.50447,-11.43678c1.08498,-3.06626 3.84223,-3.13668 6.43991,-3.77604c0.50779,-0.19485 1.00938,-0.35165 1.50511,-0.47237c0.17163,-0.06987 0.34074,-0.1459 0.50669,-0.22932l0.60802,-0.13245c0,0 0.25153,-0.04597 0.44146,0.09737zM296.44079,139.36962c-1.50571,0.40403 -2.81566,1.07361 -3.4309,2.83182c-2.41208,2.8251 -7.28055,6.96939 -7.36074,10.98242c-0.03035,1.51861 0.6294,3.3364 0.90421,4.83993c0.53476,3.18116 3.75206,3.74913 6.2179,4.81265c3.29832,1.42257 5.63609,3.74856 9.37514,3.06516c5.66765,-1.03591 10.58953,-4.07746 13.30398,-9.48124c1.09632,-1.06047 1.01327,-1.96177 1.28369,-3.38961c1.0559,-5.57543 -2.09386,-8.09823 -5.947,-11.3127c-3.26738,-2.72594 -6.66209,-4.21215 -10.52241,-3.26048c-0.30308,0.10607 -0.61494,0.19524 -0.93145,0.2744c-0.68764,0.2354 -1.39031,0.5481 -2.10982,0.94447c0,0 -0.4775,0.26243 -0.73992,-0.21507c-0.01733,-0.03154 -0.03143,-0.06213 -0.04266,-0.09176z" fill="#00ffd7" fill-rule="nonzero" stroke-width="0.5"/><path d="M296.4641,139.41046c0.26244,0.4775 0.74233,0.21421 0.74233,0.21421c0.7195,-0.39637 1.43119,-0.71119 2.11882,-0.94659c0.31649,-0.07917 0.63218,-0.16875 0.93525,-0.27482c3.86032,-0.95166 7.29582,0.54853 10.5632,3.27447c3.85314,3.21447 7.02067,5.78073 5.96478,11.35614c-0.27041,1.42785 -0.18961,2.34179 -1.28592,3.40226c-2.71445,5.40376 -7.68521,8.48395 -13.35286,9.51986c-3.73904,0.68341 -6.11414,-1.65441 -9.41244,-3.07699c-2.46585,-1.06354 -5.69974,-1.65389 -6.2345,-4.83506c-0.27481,-1.50354 -0.9383,-3.33787 -0.90795,-4.85649c0.08019,-4.01304 4.9681,-8.20275 7.38019,-11.02783c0.61523,-1.75821 1.9407,-2.43688 3.44641,-2.8409c0.01123,0.02964 0.02535,0.06022 0.04268,0.09176z" fill="#ffffff" fill-rule="nonzero" stroke-width="0.5"/><path d="M300.93124,152.7264c-0.18936,-1.03605 0.497,-2.02943 1.53305,-2.2188c1.03605,-0.18936 2.02943,0.497 2.2188,1.53305c0.18936,1.03605 -0.497,2.02943 -1.53305,2.2188c-1.03605,0.18936 -2.02943,-0.497 -2.2188,-1.53305z" fill="#000000" fill-rule="nonzero" stroke-width="0.5"/><path d="M330.18318,148.00262c-0.18936,-1.03605 0.497,-2.02943 1.53305,-2.2188c1.03605,-0.18936 2.02943,0.497 2.2188,1.53305c0.18936,1.03605 -0.497,2.02943 -1.53305,2.2188c-1.03605,0.18936 -2.02943,-0.497 -2.2188,-1.53305z" fill="#000000" fill-rule="nonzero" stroke-width="0.5"/><path d="M316.98528,135.52398c-0.50828,0.64001 -1.14829,0.13173 -1.14829,0.13173l-0.85077,-0.6789c-2.4258,-1.36295 -5.00094,-2.29168 -7.50053,-3.51581c-2.30261,-1.12765 -4.73828,-3.16444 -7.16648,-3.84338c-3.05882,-1.70534 -6.6668,-2.20486 -9.70071,-4.07356c-2.63629,-1.62379 -6.58056,-4.80574 -9.76927,-4.93306c0,0 -0.81561,-0.05243 -0.76318,-0.86804c0.05243,-0.81561 0.86804,-0.76318 0.86804,-0.76318c4.33767,0.35114 7.85035,4.16844 11.68539,5.80723c2.68653,1.148 5.78768,1.87702 8.31386,3.32406c2.4797,0.74509 4.89502,2.72601 7.25226,3.88244c2.56773,1.25969 5.20305,2.21503 7.69351,3.6274l0.95444,0.75477c0,0 0.64001,0.50828 0.13173,1.14829z" fill="#00ffd7" fill-rule="nonzero" stroke-width="0.5"/><path d="M321.51937,134.2211c-0.49098,-0.65337 0.16239,-1.14436 0.16239,-1.14436l0.16694,-0.03973c1.20602,-2.10724 3.14687,-3.69415 4.19632,-5.93589c1.92095,-3.12571 3.8661,-6.31076 6.23167,-9.13108c3.57996,-4.26813 7.47723,-7.51814 10.34519,-12.43723c0,0 0.41164,-0.70605 1.1177,-0.29441c0.70605,0.41164 0.29441,1.1177 0.29441,1.1177c-4.61806,7.92084 -11.71066,13.68182 -16.55117,21.52256c-1.0618,2.24939 -3.0325,3.83876 -4.21071,5.96194l-0.60839,0.54288c0,0 -0.65337,0.49098 -1.14436,-0.16239z" fill="#00ffd7" fill-rule="nonzero" stroke-width="0.5"/><path d="M301.65255,195.92217c-0.49185,0.0899 -0.58175,-0.40195 -0.58175,-0.40195l0.02144,-0.0087c-1.14659,-2.18815 -1.96392,-4.21679 -2.40893,-6.65154c-1.20723,-6.623 -2.32366,-12.86283 3.93657,-17.28797c5.15302,-3.68342 9.54674,-6.67222 15.92866,-7.83868c6.10271,-1.09655 12.25942,1.35287 18.38616,0.85487c6.81601,-0.48148 12.76353,0.50512 15.74636,7.48951c2.1447,2.23502 2.54131,7.83915 3.33697,10.78319c0.35446,1.31157 1.02322,2.70733 0.48104,3.99398c0,0 -0.21273,0.45249 -0.66522,0.23976c-0.45249,-0.21273 -0.23976,-0.66522 -0.23976,-0.66522c0.47874,-0.85393 -0.29545,-2.39724 -0.54158,-3.3082c-0.76168,-2.81906 -1.13344,-8.36655 -3.2034,-10.48866c-2.9065,-6.66275 -8.27737,-7.51062 -14.83867,-7.04722c-6.07867,0.49418 -12.24459,-1.99272 -18.2821,-0.86829c-6.23622,1.13983 -10.49259,4.0695 -15.52908,7.67003c-5.89145,4.16449 -4.67108,10.0786 -3.53225,16.29312c0.42727,2.33767 1.20826,4.26531 2.31087,6.36698l0.07663,0.29326c0,0 0.0899,0.49185 -0.40195,0.58175z" fill="#00ffd7" fill-rule="nonzero" stroke-width="0.5"/></g><path d="M-46.87015,15.25746c-0.718,-0.12204 -1.42863,-0.24245 -2.11646,-0.37918c-3.95054,-0.78524 -7.82803,-1.89186 -11.78596,-2.641c-3.13155,-0.59272 -6.31454,-0.42689 -9.43739,-0.94458c-3.36338,-0.16676 -7.4031,-0.19721 -10.68811,0.72491c-1.96075,0.5504 -3.72178,1.51444 -5.74661,1.89863c-1.07167,0.20334 -3.67164,0.08155 -4.40516,1.31147c-1.97884,3.31797 -2.60439,7.43015 -3.34549,11.18012c-0.17852,1.01117 -0.67956,1.9444 -0.88634,2.95017c-0.10142,0.49329 0.1391,1.01856 0.03132,1.51051c-0.03818,0.17429 -0.59988,0.37589 -0.43161,0.31657c4.53508,-1.59895 10.02286,-1.29983 14.85668,-1.82906c3.90219,-0.42723 9.16089,-1.1475 12.89546,0.2919c1.56585,0.78697 2.92143,2.02813 4.65541,2.45911c4.54862,1.13056 8.85694,-0.73982 13.14238,-1.88392c1.4177,-0.37849 2.82421,-0.07482 4.23725,-0.52599c3.55617,-1.13544 7.06801,-2.892 10.09672,-5.02502c1.33913,-0.70068 2.83872,-1.66718 4.27211,-2.19169c0.17028,-0.0623 1.20129,-0.07014 1.3929,-0.46576c1.09345,-2.25762 -0.3045,-2.16737 -2.00381,-3.18697c-2.72182,-1.63311 -4.95408,-2.31497 -7.36223,-2.59792c-0.00485,0.01222 -0.00993,0.02454 -0.01525,0.03695c-0.39392,0.91915 -1.31306,0.52522 -1.31306,0.52522c-0.6882,-0.30692 -1.42071,-0.55027 -2.17755,-0.75326c-0.83862,-0.01009 -1.7234,-0.00636 -2.67402,-0.00516h-0.20982c0,0 -0.84449,0 -0.98136,-0.77606zM-42.84188,14.05238c4.25933,0.07909 7.49178,0.51502 11.73663,3.06191c2.53376,1.52024 4.61351,2.66087 2.61221,6.04509c-0.77947,1.31809 -4.88338,2.50193 -6.26336,3.22006c-3.12373,2.21039 -6.85109,4.07896 -10.53793,5.22544c-1.49549,0.46505 -2.87519,0.14625 -4.32436,0.55125c-4.59197,1.28332 -9.26642,3.11543 -14.13416,1.89285c-1.91909,-0.482 -3.27963,-1.72357 -4.99628,-2.57656c-1.40998,-0.59548 -2.77289,-0.23521 -4.28885,-0.33529c-5.14099,-0.3394 -10.3079,0.07475 -15.40517,0.91992c-1.77635,0.29454 -3.37705,0.10016 -5.1243,0.32949c-1.30324,0.17106 -2.14509,1.4071 -3.66118,0.06654c-0.44491,-0.39339 -0.01514,-1.18774 -0.01197,-1.78162c0.00999,-1.87326 0.5866,-2.78771 0.87835,-4.62581c0.80555,-3.9765 1.43313,-8.60297 3.73356,-12.0456c1.18856,-1.77871 3.83753,-1.71773 5.61844,-2.05009c1.97813,-0.36917 3.71037,-1.34276 5.63139,-1.87368c3.52412,-0.97397 7.77928,-0.95603 11.38394,-0.77196c3.17907,0.53275 6.4241,0.36908 9.61518,0.97194c3.9571,0.74759 7.83448,1.85569 11.783,2.64041c1.88692,0.375 3.86415,0.66368 5.75485,1.13572z" fill="#000000" fill-rule="nonzero" stroke="none" stroke-width="0.5" stroke-linecap="butt"/><path d="M-46.82395,15.23831c0.13687,0.77606 0.98245,0.77893 0.98245,0.77893l0.20988,0.00018c0.95062,-0.0012 1.83604,-0.00292 2.67466,0.00717c0.75684,0.20299 1.4901,0.44922 2.1783,0.75614c0,0 0.82179,0.41679 1.21571,-0.50236c0.00532,-0.01241 0.10763,-0.0481 0.11248,-0.06032c2.40815,0.28295 4.64156,0.97164 7.36338,2.60475c1.69931,1.0196 3.0975,0.93452 2.00405,3.19214c-0.19161,0.39562 -1.22263,0.40422 -1.39291,0.46652c-1.43339,0.52451 -2.93325,1.49522 -4.27238,2.1959c-3.02871,2.13302 -6.54498,3.9055 -10.10115,5.04094c-1.41304,0.45117 -2.82324,0.15405 -4.24094,0.53254c-4.28544,1.1441 -8.63802,3.03669 -13.18664,1.90613c-1.73398,-0.43098 -3.1146,-1.68044 -4.68045,-2.46741c-3.73457,-1.4394 -9.01175,-0.74156 -12.91394,-0.31433c-4.83382,0.52923 -10.32353,0.22456 -14.85861,1.82351c-0.16827,0.05932 0.39336,-0.14255 0.43154,-0.31684c0.10778,-0.49195 -0.13328,-1.01934 -0.03186,-1.51263c0.20678,-1.00577 0.70705,-1.94311 0.88557,-2.95428c0.7411,-3.74997 1.36744,-7.88066 3.34628,-11.19863c0.73352,-1.22992 3.33472,-1.11249 4.40639,-1.31583c2.02483,-0.38419 3.78933,-1.35628 5.75008,-1.90668c3.28501,-0.92212 7.33978,-0.90868 10.70316,-0.74192c3.12285,0.51769 6.34478,0.34364 9.47633,0.93636c3.95793,0.74914 7.87004,1.88218 11.82058,2.66742c0.68783,0.13673 1.40003,0.26057 2.11803,0.38261z" data-paper-data="{&quot;noHover&quot;:false,&quot;origItem&quot;:[&quot;Path&quot;,{&quot;applyMatrix&quot;:true,&quot;segments&quot;:[[[-46.87015,15.25746],[0,0],[-0.718,-0.12204]],[[-48.9866,14.87828],[0.68783,0.13673],[-3.95054,-0.78524]],[[-60.77256,12.23728],[3.95793,0.74914],[-3.13155,-0.59272]],[[-70.20996,11.2927],[3.12285,0.51769],[-3.36338,-0.16676]],[[-80.89806,12.01761],[3.28501,-0.92212],[-1.96075,0.5504]],[[-86.64467,13.91624],[2.02483,-0.38419],[-1.07167,0.20334]],[[-91.04984,15.22771],[0.73352,-1.22992],[-1.97884,3.31797]],[[-94.39533,26.40783],[0.7411,-3.74997],[-0.17852,1.01117]],[[-95.28166,29.358],[0.20678,-1.00577],[-0.10142,0.49329]],[[-95.25035,30.86851],[0.10778,-0.49195],[-0.03818,0.17429]],[[-95.68196,31.18508],[-0.16827,0.05932],[4.53508,-1.59895]],[[-80.82528,29.35602],[-4.83382,0.52923],[3.90219,-0.42723]],[[-67.92982,29.64792],[-3.73457,-1.4394],[1.56585,0.78697]],[[-63.2744,32.10703],[-1.73398,-0.43098],[4.54862,1.13056]],[[-50.13202,30.22311],[-4.28544,1.1441],[1.4177,-0.37849]],[[-45.89477,29.69712],[-1.41304,0.45117],[3.55617,-1.13544]],[[-35.79806,24.6721],[-3.02871,2.13302],[1.33913,-0.70068]],[[-31.52594,22.48041],[-1.43339,0.52451],[0.17028,-0.0623]],[[-30.13305,22.01465],[-0.19161,0.39562],[1.09345,-2.25762]],[[-32.13685,18.82768],[1.69931,1.0196],[-2.72182,-1.63311]],[[-39.49909,16.22976],[2.40815,0.28295],[-0.00485,0.01222]],[[-39.51434,16.26671],[0.00532,-0.01241],[-0.39392,0.91915]],[[-40.8274,16.79193],[0,0],[-0.6882,-0.30692]],[[-43.00495,16.03867],[0.75684,0.20299],[-0.83862,-0.01009]],[[-45.67897,16.03351],[0.95062,-0.0012],[0,0]],[-45.88878,16.03351],[[-46.87014,15.25745],[0.13687,0.77606],[0,0]]],&quot;closed&quot;:true,&quot;fillColor&quot;:[0,0,0,1]}]}" fill="#ffffff" fill-rule="nonzero" stroke="none" stroke-width="0.5" stroke-linecap="butt"/><path d="M21.82512,42.89233c-3.97386,0.15568 -8.07581,0.9414 -11.55749,1.34654c-3.66882,0.42692 -7.25829,-0.6607 -10.8694,-0.1445c-1.32047,-0.26794 -0.61309,0.60971 -0.3134,1.7656c0.6803,2.62383 1.88867,4.97064 2.39808,7.64075c0.54927,2.87907 2.17059,5.27528 3.72511,7.73536c0.37901,0.5998 0.08214,1.72433 0.73726,1.99676c0.74843,0.31123 1.59375,-0.36325 2.4043,-0.36381c2.86846,-0.00198 5.4744,-0.08698 8.29714,-0.62487c3.32535,-0.00365 6.61098,-0.42422 9.95716,-0.42422c2.50643,0 5.46074,0.39978 7.93194,0.01174c2.83008,-0.44439 5.65022,-1.65451 8.48362,-2.09703c1.81506,-0.28348 3.80514,-0.14934 5.57102,-0.73797c0.90548,-0.3404 -0.01459,-2.09064 -0.26373,-2.75323c-1.0241,-2.72359 -3.34894,-6.99387 -5.44276,-9.0906c-3.98502,-3.99059 -11.27024,-1.312 -16.18394,-2.69008c-1.13272,-0.45309 -2.24326,-0.77647 -3.43957,-1.01475l-0.8857,-0.22026c0,0 -0.32299,-0.08075 -0.54964,-0.33542zM31.60614,43.07873c3.2267,0.00394 6.57023,-0.50374 9.60364,0.54581c3.48824,1.20692 5.47467,5.60455 7.25364,8.57312c1.54986,2.58623 3.7987,6.20467 1.05524,8.57057c-2.03437,0.67812 -4.10134,0.62611 -6.17887,0.94058c-2.83358,0.42892 -5.66302,1.66692 -8.49834,2.09936c-2.5846,0.39421 -5.618,0.01175 -8.23759,0.01175c-3.2818,0 -6.50497,0.41874 -9.76589,0.41506c-2.87829,0.56956 -5.56355,0.63617 -8.48842,0.63405c-1.15703,-0.00084 -2.44871,0.59839 -3.47064,0.05582c-0.86902,-0.46139 -0.82981,-1.79103 -1.36093,-2.61928c-1.25122,-1.95117 -2.80671,-4.12463 -3.58224,-6.31874c-0.29917,-0.84641 -0.49562,-3.06536 -0.76974,-3.97181c-0.82827,-2.7388 -5.09053,-9.46729 0.09043,-9.91562c3.60249,-0.51432 7.14827,0.58509 10.7931,0.15139c6.47689,-0.77067 14.65895,-2.56983 20.9123,-0.08239c0,0 0.66484,0.26593 0.64431,0.91033z" fill="#000000" fill-rule="nonzero" stroke="none" stroke-width="0.5" stroke-linecap="butt"/><path d="M21.81562,42.84325c0.22665,0.25467 0.55199,0.33502 0.55199,0.33502l0.89005,0.21982c1.19631,0.23828 2.32555,0.56417 3.45827,1.01726c4.9137,1.37808 12.23076,-1.26799 16.21578,2.7226c2.09382,2.09673 4.42052,6.38825 5.44462,9.11184c0.24914,0.66259 1.16826,2.41805 0.26278,2.75845c-1.76588,0.58863 -3.75734,0.45924 -5.5724,0.74272c-2.8334,0.44252 -5.66201,1.66788 -8.49209,2.11227c-2.4712,0.38804 -5.44901,0.00432 -7.95544,0.00432c-3.34618,0 -6.67793,0.41234 -10.00328,0.41599c-2.82274,0.53789 -5.44012,0.61023 -8.30858,0.61221c-0.81055,0.00056 -1.65709,0.673 -2.40552,0.36177c-0.65512,-0.27243 -0.36057,-1.40159 -0.73958,-2.00139c-1.55452,-2.46008 -3.18002,-4.87544 -3.72929,-7.75451c-0.50941,-2.67011 -1.71577,-5.03187 -2.39607,-7.6557c-0.29969,-1.15589 -1.00599,-2.03679 0.31448,-1.76885c3.61111,-0.5162 7.20566,0.56134 10.87448,0.13442c3.48168,-0.40514 7.61595,-1.21255 11.58981,-1.36823z" data-paper-data="{&quot;noHover&quot;:false,&quot;origItem&quot;:[&quot;Path&quot;,{&quot;applyMatrix&quot;:true,&quot;segments&quot;:[[[21.82512,42.89233],[0,0],[-3.97386,0.15568]],[[10.26764,44.23887],[3.48168,-0.40514],[-3.66882,0.42692]],[[-0.60177,44.09437],[3.61111,-0.5162],[-1.32047,-0.26794]],[[-0.91517,45.85997],[-0.29969,-1.15589],[0.6803,2.62383]],[[1.48291,53.50072],[-0.50941,-2.67011],[0.54927,2.87907]],[[5.20803,61.23608],[-1.55452,-2.46008],[0.37901,0.5998]],[[5.94529,63.23284],[-0.65512,-0.27243],[0.74843,0.31123]],[[8.34958,62.86903],[-0.81055,0.00056],[2.86846,-0.00198]],[[16.64672,62.24416],[-2.82274,0.53789],[3.32535,-0.00365]],[[26.60388,61.81994],[-3.34618,0],[2.50643,0]],[[34.53582,61.83168],[-2.4712,0.38804],[2.83008,-0.44439]],[[43.01945,59.73465],[-2.8334,0.44252],[1.81506,-0.28348]],[[48.59046,58.99668],[-1.76588,0.58863],[0.90548,-0.3404]],[[48.32673,56.24345],[0.24914,0.66259],[-1.0241,-2.72359]],[[42.88397,47.15285],[2.09382,2.09673],[-3.98502,-3.99059]],[[26.70003,44.46277],[4.9137,1.37808],[-1.13272,-0.45309]],[[23.26046,43.44802],[1.19631,0.23828],[0,0]],[22.37477,43.22776],[[21.82512,42.89234],[0.22665,0.25467],[0,0]]],&quot;closed&quot;:true,&quot;fillColor&quot;:[0,0,0,1]}]}" fill="#ffffff" fill-rule="nonzero" stroke="none" stroke-width="0.5" stroke-linecap="butt"/><path d="M-15.23594,-36.52116c-7.91443,-0.13232 -16.07096,-0.54458 -23.8061,-1.72993c-4.14594,-0.14285 -8.3052,-0.47014 -12.39058,-1.1791c-1.04192,-0.18081 -2.0162,-0.6761 -3.06296,-0.82636c-4.46192,-0.6405 -6.58181,2.26461 -7.29069,6.25819c-0.17456,0.98342 1.21494,2.85171 1.62807,3.74379c0.43568,1.73987 0.98032,3.81051 1.76325,5.42324c0.85596,1.76318 4.99944,0.47509 6.33644,0.8618c2.63649,0.76255 6.17741,2.7211 8.64091,4.0814c0.81303,0.44893 1.80182,2.16428 2.78843,2.19355c2.18418,0.0648 4.8444,-0.64941 6.88941,-1.34327c11.57977,-3.8875 23.98328,0.15888 35.73299,-2.1422c0.36725,-0.20715 0.69786,-0.50038 1.10174,-0.62145c0.17821,-0.05342 0.59834,0.30606 0.54315,0.1284c-0.61589,-1.98242 -3.80473,-4.20516 -4.95985,-6.05611c-1.2813,-2.05316 -2.56244,-6.38497 -4.85844,-7.60403c-1.89018,-1.00359 -5.73834,-0.94094 -7.80965,-0.93564l-1.14668,-0.22437c0,0 -0.0388,-0.00776 -0.09942,-0.02792zM-10.21558,-38.18001c1.84761,0.11283 3.76426,0.39112 4.97909,1.08343c2.21699,1.26342 3.57983,4.64104 4.62921,6.75016c1.09197,2.19473 2.68713,3.82691 4.26098,5.65046c0.77579,0.89888 2.07145,2.49767 1.85383,3.73362c-0.02961,0.16819 -2.5475,1.50844 -2.82557,1.65996c-11.72504,2.38291 -24.25877,-1.73212 -35.78357,2.15999c-2.18831,0.73156 -5.41727,1.70118 -7.76561,1.4336c-1.72677,-0.19675 -2.15114,-1.69546 -3.50616,-2.42248c-2.36172,-1.26716 -5.63741,-3.14122 -8.14465,-3.89174c-2.3175,-0.69373 -5.80582,1.10873 -7.51165,-1.65604c-0.95623,-1.54983 -1.57194,-4.13782 -2.0135,-5.90701c-0.64943,-1.37964 -1.89305,-3.04497 -1.72904,-4.64899c0.11134,-1.08888 0.77247,-2.05039 1.08237,-3.10016c2.35597,-7.9806 11.64649,-3.71738 17.4081,-3.23338c2.1255,0.17855 4.28663,0.2489 6.42741,0.32635c9.02501,1.39402 18.79235,1.83463 27.90052,1.76844c0,0 0.44196,0 0.73826,0.29381z" fill="#000000" fill-rule="nonzero" stroke="none" stroke-width="0.5" stroke-linecap="butt"/><path d="M-15.19196,-36.545c0.06062,0.02016 0.09953,0.02812 0.09953,0.02812l1.14768,0.22634c2.07131,-0.0053 5.9226,-0.05959 7.81278,0.944c2.296,1.21906 3.57889,5.56648 4.86019,7.61964c1.15512,1.85095 4.3428,4.08232 4.95869,6.06474c0.05519,0.17766 -0.36494,-0.18183 -0.54315,-0.12841c-0.40388,0.12107 -0.7348,0.41559 -1.10205,0.62274c-11.74971,2.30108 -24.22286,-1.71223 -35.80263,2.17527c-2.04501,0.69386 -4.71978,1.39777 -6.90396,1.33297c-0.98661,-0.02927 -1.98187,-1.75277 -2.7949,-2.2017c-2.4635,-1.3603 -6.01108,-3.33498 -8.64757,-4.09753c-1.337,-0.38671 -5.48114,0.89772 -6.3371,-0.86546c-0.78293,-1.61273 -1.32803,-3.69243 -1.76371,-5.4323c-0.41313,-0.89208 -1.8021,-2.76591 -1.62754,-3.74933c0.70888,-3.99358 2.83247,-6.91138 7.29439,-6.27088c1.04676,0.15026 2.02144,0.64466 3.06336,0.82547c4.08538,0.70896 8.25329,1.02338 12.39923,1.16623c7.73514,1.18535 15.9723,1.60777 23.88673,1.74009z" data-paper-data="{&quot;noHover&quot;:false,&quot;origItem&quot;:[&quot;Path&quot;,{&quot;applyMatrix&quot;:true,&quot;segments&quot;:[[[-15.23594,-36.52116],[0,0],[-7.91443,-0.13232]],[[-39.04203,-38.25109],[7.73514,1.18535],[-4.14594,-0.14285]],[[-51.43261,-39.43019],[4.08538,0.70896],[-1.04192,-0.18081]],[[-54.49558,-40.25655],[1.04676,0.15026],[-4.46192,-0.6405]],[[-61.78627,-33.99836],[0.70888,-3.99358],[-0.17456,0.98342]],[[-60.15819,-30.25457],[-0.41313,-0.89208],[0.43568,1.73987]],[[-58.39495,-24.83133],[-0.78293,-1.61273],[0.85596,1.76318]],[[-52.05851,-23.96953],[-1.337,-0.38671],[2.63649,0.76255]],[[-43.4176,-19.88813],[-2.4635,-1.3603],[0.81303,0.44893]],[[-40.62916,-17.69458],[-0.98661,-0.02927],[2.18418,0.0648]],[[-33.73976,-19.03785],[-2.04501,0.69386],[11.57977,-3.8875]],[[1.99324,-21.18005],[-11.74971,2.30108],[0.36725,-0.20715]],[[3.09497,-21.8015],[-0.40388,0.12107],[0.17821,-0.05342]],[[3.63812,-21.6731],[0.05519,0.17766],[-0.61589,-1.98242]],[[-1.32173,-27.72921],[1.15512,1.85095],[-1.2813,-2.05316]],[[-6.18016,-35.33324],[2.296,1.21906],[-1.89018,-1.00359]],[[-13.98982,-36.26888],[2.07131,-0.0053],[0,0]],[-15.13649,-36.49325],[[-15.23591,-36.52117],[0.06062,0.02016],[0,0]]],&quot;closed&quot;:true,&quot;fillColor&quot;:[0,0,0,1]}]}" fill="#ffffff" fill-rule="nonzero" stroke="none" stroke-width="0.5" stroke-linecap="butt"/><path d="M83.79022,5.59195c-3.13708,-0.20572 -6.34879,1.04438 -9.48612,1.20697c-7.06332,0.36604 -13.03804,-1.03408 -19.85135,-2.55158c-0.89431,-0.30758 -4.30406,-1.24534 -4.65933,0.19179c-0.52736,2.13329 1.66137,4.47942 2.44253,6.25277c0.53942,1.22457 0.67938,2.59836 1.20236,3.83004c0.88332,2.08035 2.33361,3.39493 3.41249,5.26792c0.35701,0.61979 1.80318,3.75889 2.34816,4.02517c0.85666,0.41857 1.88784,-0.26889 2.83154,-0.40488c7.56378,-0.81716 15.28792,-0.15186 22.80677,-0.97779c3.48719,-0.38306 6.82579,-1.13369 10.30059,-1.38673c-0.56556,-0.30881 -1.12036,-0.68491 -1.69788,-1.01392c-2.08663,-1.18873 -4.51507,-2.30854 -5.7915,-4.47492c-1.79772,-3.05112 -1.92639,-6.8701 -3.75443,-9.8268zM86.206,5.94395c1.28577,3.12132 1.50264,7.00422 3.86081,9.4519c2.17722,2.25987 5.19585,3.28127 7.794,4.92125l0.15822,-0.27688l1.45188,0.82965c0.31029,0.16976 0.52072,0.49925 0.52072,0.87787c0,0.50931 -0.38075,0.92969 -0.87313,0.99203l-1.45418,0.20774l-0.00305,-0.02138l-0.06748,0.02891c-4.30201,0.00814 -8.30318,1.01293 -12.53676,1.4652c-7.51911,0.80326 -15.21935,0.15891 -22.77771,0.97436c-0.83274,0.11798 -3.20703,0.59397 -4.06573,0.16081c-0.23509,-0.11859 -1.9923,-3.00133 -2.03386,-3.06786c-1.52048,-2.43423 -3.4481,-4.51274 -4.58232,-7.18397c-0.51924,-1.22289 -0.65275,-2.58891 -1.19091,-3.80359c-0.98757,-2.22907 -3.48894,-5.01905 -2.51043,-7.69333c1.02161,-2.79206 4.92597,-2.18894 7.09056,-1.48677c6.60592,1.46457 12.32849,2.82604 19.17509,2.48409c3.13035,-0.15635 6.15858,-1.2072 9.23067,-1.18699c0.03116,-0.02845 0.06511,-0.05658 0.10205,-0.08428c0.73642,-0.55232 1.30337,0.08169 1.38883,0.18595c0.45646,0.06159 0.91439,0.15348 1.37426,0.28199c0,0 0.96152,0.27472 0.6868,1.23625c-0.14023,0.49082 -0.45943,0.65951 -0.73834,0.70705z" fill="#000000" fill-rule="nonzero" stroke="none" stroke-width="0.5" stroke-linecap="butt"/><path d="M83.93494,5.7012c1.82804,2.9567 1.9655,6.81018 3.76322,9.8613c1.27643,2.16638 3.70314,3.29468 5.78977,4.48341c0.57752,0.32901 1.13202,0.70609 1.69758,1.0149c-3.4748,0.25304 -6.81998,1.01702 -10.30717,1.40008c-7.51885,0.82593 -15.32077,0.16603 -22.88455,0.98319c-0.9437,0.13599 -1.97803,0.81969 -2.83469,0.40112c-0.54498,-0.26628 -1.99795,-3.41762 -2.35496,-4.03741c-1.07888,-1.87299 -2.53246,-3.20362 -3.41578,-5.28397c-0.52298,-1.23168 -0.66239,-2.61498 -1.20181,-3.83955c-0.78116,-1.77335 -2.96667,-4.13098 -2.43931,-6.26427c0.35527,-1.43713 3.76707,-0.50373 4.66138,-0.19615c6.81331,1.5175 12.84513,2.8928 19.90845,2.52676c3.13733,-0.16259 6.37661,-1.39368 9.51369,-1.18796z" data-paper-data="{&quot;noHover&quot;:false,&quot;origItem&quot;:[&quot;Path&quot;,{&quot;applyMatrix&quot;:true,&quot;segments&quot;:[[[83.79022,5.59195],[0,0],[-3.13708,-0.20572]],[[74.30411,6.79892],[3.13733,-0.16259],[-7.06332,0.36604]],[[54.45276,4.24734],[6.81331,1.5175],[-0.89431,-0.30758]],[[49.79342,4.43913],[0.35527,-1.43713],[-0.52736,2.13329]],[[52.23595,10.6919],[-0.78116,-1.77335],[0.53942,1.22457]],[[53.43831,14.52194],[-0.52298,-1.23168],[0.88332,2.08035]],[[56.85081,19.78986],[-1.07888,-1.87299],[0.35701,0.61979]],[[59.19897,23.81503],[-0.54498,-0.26628],[0.85666,0.41857]],[[62.0305,23.41015],[-0.9437,0.13599],[7.56378,-0.81716]],[[84.83727,22.43236],[-7.51885,0.82593],[3.48719,-0.38306]],[[95.13787,21.04563],[-3.4748,0.25304],[-0.56556,-0.30881]],[[93.43998,20.03171],[0.57752,0.32901],[-2.08663,-1.18873]],[[87.64849,15.55679],[1.27643,2.16638],[-1.79772,-3.05112]],[[83.89405,5.72999],[1.82804,2.9567],[0,0]]],&quot;closed&quot;:true,&quot;fillColor&quot;:[0,0,0,1]}]}" fill="#ffffff" fill-rule="nonzero" stroke="none" stroke-width="0.5" stroke-linecap="butt"/></g></g></svg>