<svg version="1.1" xmlns="http://www.w3.org/2000/svg" xmlns:xlink="http://www.w3.org/1999/xlink" width="1733.09309" height="836.33634" viewBox="0,0,1733.09309,836.33634"><g transform="translate(546.54655,238.16817)"><g data-paper-data="{&quot;isPaintingLayer&quot;:true}" stroke-linejoin="miter" stroke-miterlimit="10" stroke-dasharray="" stroke-dashoffset="0" style="mix-blend-mode: normal"><path d="M-546.54655,598.16817v-836.33634h1733.09309v836.33634z" fill="none" fill-rule="nonzero" stroke="#f00000" stroke-width="0" stroke-linecap="butt"/><path d="M164.31223,322.94222l33.51062,-26.20201l93.63269,-0.23395l-19.71212,26.43595z" fill="#cedce9" fill-rule="nonzero" stroke="#000000" stroke-width="0" stroke-linecap="round"/><path d="M155.40589,321.56833c-3.23389,-0.36981 -10.93005,-0.94626 -7.55727,-1.54218c-1.844,0.19096 -4.30412,0.42411 -5.61315,0.48683c-6.20127,0.29713 -14.23792,0 -20.63695,0c-17.55532,0 -34.59883,-0.15772 -51.59221,0.58996c-7.67977,0.33789 -9.79093,-0.70555 -12.14916,0.75443c-4.86436,2.44969 -14.01637,4.63565 -19.89547,7.10174c-7.9681,3.34232 -11.05811,6.56903 -15.94283,9.92039c-5.52757,2.75992 -1.025,8.05892 -1.025,11.13083c0,0.82229 1.55061,2.286 0.06965,2.89127c1.47223,0.03058 2.89418,0.05848 3.79981,0.05848c6.01912,0 12.03817,0 18.05732,0c23.94306,0 51.76182,-0.11974 75.00121,-1.44842c27.59276,-1.41743 57.49806,0.61518 85.31277,-0.65703c15.23203,-0.63807 31.83586,-0.25878 47.34465,-0.25428c7.86761,0.00228 14.60498,-0.68112 18.05729,0.58995c0.90739,0.33409 0,-0.78659 0,-1.17988c0,-0.98322 0,-1.96652 0,-2.94974c0,-5.50617 0,-11.01233 0,-16.5185c0,-1.3017 -1.49199,-5.95868 1.5946,-6.46262c-0.57897,-0.00791 -1.23426,-0.02077 -1.5946,-0.0268c-3.19203,-0.05326 -4.97543,-0.01302 -7.46653,-0.41952c-4.32469,-0.70571 -18.91496,-0.17042 -24.77861,-0.17042c-22.78658,0 -45.57311,0 -68.3597,0c0,0 -5.15921,0 -5.15921,-1.17988c0,-0.04844 0.00864,-0.09486 0.02534,-0.13939c-2.46639,-0.11956 -4.9577,-0.28536 -7.49184,-0.57513zM236.39149,321.103c13.75515,0 31.33537,-0.56015 40.72895,1.83212c5.3829,1.37085 1.83453,5.76613 1.83453,7.60704c0,5.50617 0,11.01232 0,16.51849c0,0.62876 1.77701,3.74776 0,4.12963c-17.94876,3.85692 -51.77923,0.84931 -73.69667,1.97832c-27.19829,1.24402 -58.52042,-1.12657 -84.83379,0.6324c-23.95197,1.36944 -52.80767,1.5189 -77.50383,1.5189c-3.54239,0 -24.78633,0.61354 -27.08588,0c-6.59428,-1.75943 -5.15921,-3.22712 -5.15921,-5.30953c0,-3.76661 -2.9196,-8.25642 1.55455,-11.87708c5.00655,-3.43492 8.51759,-6.87999 16.50277,-10.22948c3.22112,-1.35111 6.70037,-3.15843 10.86308,-4.37875c2.72386,-0.7985 7.93168,-1.44729 8.58236,-2.48531c4.41379,-2.7326 12.39022,-1.83725 21.82839,-2.29652c16.80111,-0.81757 34.18712,-0.58996 51.59221,-0.58996c6.41889,0 18.96058,-0.67558 23.48881,-0.46538c7.88258,0.36595 12.45236,1.90331 20.09224,2.35979c5.60602,0.33496 11.51373,0.13667 18.05732,0.88492c0.49676,0.05683 0.99342,0.11361 1.49024,0.17042c17.22133,0 34.44276,0 51.66413,0z" fill="#000000" fill-rule="nonzero" stroke="none" stroke-width="0" stroke-linecap="butt"/><path d="M162.96956,322.08685c-0.01671,0.04452 -0.02475,0.09098 -0.02475,0.13942c0,1.17989 5.18455,1.1819 5.18455,1.1819c22.78654,0 45.69452,0.02346 68.48118,0.02346c5.86362,0 20.46717,-0.52978 24.79186,0.1759c2.49105,0.40651 4.27852,0.36825 7.47043,0.42149c0.3603,0.00602 1.01613,0.01917 1.5952,0.02709c-3.08662,0.50394 -1.57896,5.17222 -1.57896,6.47392c0,5.50617 -0.01076,11.0451 -0.01076,16.55127c0,0.98325 -0.0088,1.97128 -0.0088,2.9545c0,0.39329 0.9035,1.51575 -0.0039,1.18167c-3.45229,-1.27106 -10.19581,-0.58514 -18.06335,-0.58741c-15.5088,-0.00449 -32.1596,-0.37033 -47.39158,0.26777c-27.81475,1.27222 -57.99335,-0.74894 -85.58613,0.66848c-23.23939,1.32869 -51.17108,1.42788 -75.11432,1.42788c-6.01914,0 -12.04873,-0.00371 -18.06785,-0.00371c-0.90571,0 -2.3296,-0.02864 -3.80175,-0.05922c1.48098,-0.60528 -0.07924,-2.07314 -0.07924,-2.89544c0,-3.0719 -4.52684,-8.39132 1.00085,-11.15126c4.88478,-3.35137 7.98535,-6.60048 15.95345,-9.94279c5.87919,-2.46611 15.06982,-4.66964 19.93423,-7.1193c2.35822,-1.45998 4.4854,-0.42102 12.16514,-0.75891c16.99333,-0.74765 34.14754,-0.60647 51.70273,-0.60647c6.39893,0 14.50751,0.29417 20.70878,-0.00295c1.3089,-0.06273 3.78955,-0.29586 5.63354,-0.48682c-3.37287,0.5959 4.35383,1.17308 7.58778,1.54286c2.53424,0.28977 5.05561,0.45714 7.52193,0.5767z" fill="#484848" fill-rule="nonzero" stroke="none" stroke-width="0" stroke-linecap="butt"/><path d="M90.64347,326.41255c0,0.39875 1.77858,0.88204 0.8921,1.19778c2.26744,0.05337 4.54827,0.16994 6.57435,0.40163c7.81194,0.8933 23.70353,4.14835 25.20199,6.30031c0.12184,0.17503 -2.0872,0.20428 -1.71311,0.35951c1.24483,0.51651 11.38938,-0.3811 12.55632,-0.23443c0.26405,0.03318 0.39375,0.08489 0.44572,0.14784c-0.05432,-0.19549 -0.10404,-0.38446 -0.10404,-0.50337c0,-0.41795 0.07221,-0.86834 -0.74507,-1.24217c-6.94709,-3.29491 -18.29746,-6.42715 -37.94899,-6.42715c0,0 -2.31904,-0.00001 -3.84764,-0.35557c-0.50973,-0.06622 -0.90615,-0.14412 -1.17189,-0.23545c-0.0683,0.22509 -0.13978,0.45421 -0.13978,0.59104zM134.49678,335.26169c0.3521,0.24157 0.24826,-0.1594 0.13126,-0.57887c-0.02449,0.18204 -0.37195,0.41379 -0.13126,0.57887zM142.98057,331.78433c6.41519,2.93422 -8.15102,7.2214 -21.38194,5.24723c-12.48347,-1.86267 -16.71065,-5.60622 -28.10334,-6.90894c-3.84882,-0.44012 -8.46069,-0.68038 -11.33588,-1.41259c-4.55627,-1.16038 -2.53653,-5.12267 6.17661,-5.12267c6.27407,0 9.3643,0.46538 15.20535,0.46538h2.5796c0,0 2.96127,0.00002 4.39682,0.51307c15.2825,1.14088 25.08922,4.0395 32.46283,7.21849z" fill="#000000" fill-rule="nonzero" stroke="none" stroke-width="0" stroke-linecap="butt"/><path d="M90.59179,325.78196c0.26562,0.09135 0.6622,0.16919 1.17199,0.23543c1.52857,0.35557 3.85813,0.35303 3.85813,0.35303c19.6515,0 31.41162,3.20151 38.35865,6.49643c0.81726,0.37381 0.72256,0.83243 0.72256,1.25035c0,0.11891 0.0402,0.31061 0.09452,0.5061c-0.05186,-0.06298 -0.18035,-0.11497 -0.44453,-0.14819c-1.16692,-0.14666 -11.39939,0.76647 -12.64422,0.24997c-0.37414,-0.15523 1.5899,-0.28809 1.46794,-0.46316c-1.49841,-2.15197 -17.46667,-5.39049 -25.27871,-6.28377c-2.02616,-0.23169 -4.32006,-0.34346 -6.58752,-0.39684c0.8865,-0.31576 -0.87094,-0.80631 -0.87094,-1.20506c0,-0.13683 0.08337,-0.36922 0.15184,-0.5943z" fill="#ffffff" fill-rule="nonzero" stroke="none" stroke-width="0" stroke-linecap="butt"/><path d="M367.45185,315.94222l-19.71212,-26.43596l93.63269,0.23395l33.51063,26.20201z" data-paper-data="{&quot;index&quot;:null}" fill="#cedce9" fill-rule="nonzero" stroke="#000000" stroke-width="0" stroke-linecap="round"/><path d="M483.78921,314.56843c-2.53413,0.28978 -5.02545,0.45558 -7.49183,0.57513c0.01671,0.04453 0.02535,0.09095 0.02535,0.13939c0,1.17987 -5.15921,1.17987 -5.15921,1.17987c-22.78659,0 -45.57312,0 -68.35969,0c-5.86365,0 -20.45392,-0.53529 -24.77862,0.17041c-2.4911,0.4065 -4.2745,0.36626 -7.46652,0.41953c-0.36034,0.00603 -1.01563,0.01889 -1.5946,0.02679c3.08659,0.50394 1.5946,5.16093 1.5946,6.46263c0,5.50617 0,11.01233 0,16.5185c0,0.98321 0,1.96652 0,2.94974c0,0.39329 -0.90739,1.51397 0,1.17987c3.45231,-1.27107 10.18967,-0.58767 18.05729,-0.58995c15.50879,-0.0045 32.11262,-0.38379 47.34465,0.25428c27.81472,1.27222 57.72001,-0.7604 85.31277,0.65703c23.23938,1.32867 51.05815,1.44842 75.00121,1.44842c6.01915,0 12.03819,0 18.05732,0c0.90563,0 2.32758,-0.0279 3.79981,-0.05848c-1.48096,-0.60526 0.06965,-2.06898 0.06965,-2.89127c0,-3.07191 4.50257,-8.37092 -1.02501,-11.13083c-4.88473,-3.35136 -7.97473,-6.57808 -15.94283,-9.92039c-5.8791,-2.46609 -15.03111,-4.65206 -19.89548,-7.10174c-2.35823,-1.45999 -4.46939,-0.41654 -12.14915,-0.75443c-16.99338,-0.74768 -34.0369,-0.58996 -51.59222,-0.58996c-6.39904,0 -14.43568,0.29714 -20.63695,0c-1.30903,-0.06272 -3.76915,-0.29586 -5.61315,-0.48683c3.37279,0.59591 -4.32338,1.17237 -7.55727,1.54218zM402.80355,314.10302c17.22136,0 34.4428,0 51.66413,0c0.49682,-0.0568 0.99348,-0.11359 1.49024,-0.17042c6.5436,-0.74824 12.45131,-0.54995 18.05732,-0.88492c7.63988,-0.45648 12.20966,-1.99384 20.09225,-2.35978c4.52823,-0.2102 17.06992,0.46538 23.48881,0.46538c17.4051,0 34.7911,-0.22762 51.59221,0.58995c9.43817,0.45927 17.4146,-0.43608 21.82839,2.29651c0.65069,1.03801 5.85851,1.68681 8.58236,2.48531c4.16271,1.22032 7.64196,3.02763 10.86308,4.37875c7.98518,3.34948 11.49622,6.79456 16.50277,10.22948c4.47415,3.62067 1.55455,8.11047 1.55455,11.87708c0,2.08241 1.43507,3.55009 -5.1592,5.30953c-2.29956,0.61354 -23.5435,0 -27.08589,0c-24.69616,0 -53.55186,-0.14946 -77.50383,-1.5189c-26.31336,-1.75896 -57.63549,0.61162 -84.83378,-0.6324c-21.91744,-1.12901 -55.7479,1.8786 -73.69666,-1.97832c-1.77701,-0.38187 0,-3.50088 0,-4.12964c0,-5.50617 0,-11.01232 0,-16.51848c0,-1.84091 -3.54837,-6.23619 1.83453,-7.60704c9.39358,-2.39227 26.9738,-1.83211 40.72896,-1.83211z" data-paper-data="{&quot;index&quot;:null}" fill="#000000" fill-rule="nonzero" stroke="none" stroke-width="0" stroke-linecap="butt"/><path d="M476.22547,315.08687c2.46632,-0.11955 4.98769,-0.28694 7.52193,-0.5767c3.23394,-0.36978 10.96065,-0.94696 7.58778,-1.54286c1.84399,0.19096 4.32464,0.42409 5.63354,0.48682c6.20128,0.29712 14.30986,0.00295 20.70879,0.00295c17.55519,0 34.70941,-0.14117 51.70274,0.60648c7.67974,0.33788 9.80691,-0.70107 12.16514,0.7589c4.86441,2.44966 14.05504,4.65319 19.93423,7.1193c7.9681,3.34231 11.06867,6.59143 15.95345,9.94279c5.52769,2.75993 1.00085,8.07935 1.00085,11.15125c0,0.8223 -1.56022,2.29016 -0.07924,2.89544c-1.47215,0.03058 -2.89604,0.05923 -3.80175,0.05923c-6.01912,0 -12.04871,0.00371 -18.06785,0.00371c-23.94324,0 -51.87493,-0.09918 -75.11432,-1.42788c-27.59278,-1.41742 -57.77139,0.60374 -85.58613,-0.66848c-15.23199,-0.6381 -31.88278,-0.27227 -47.39158,-0.26777c-7.86754,0.00227 -14.61106,-0.68364 -18.06335,0.58742c-0.9074,0.33408 -0.0039,-0.78838 -0.0039,-1.18167c0,-0.98321 -0.0088,-1.97125 -0.0088,-2.9545c0,-5.50617 -0.01076,-11.0451 -0.01076,-16.55127c0,-1.30169 1.50765,-5.96999 -1.57897,-6.47392c0.57907,-0.00793 1.23491,-0.02107 1.5952,-0.02709c3.19191,-0.05325 4.97939,-0.01498 7.47044,-0.42149c4.32468,-0.70568 18.92824,-0.1759 24.79186,-0.1759c22.78667,0 45.69464,-0.02346 68.48118,-0.02346c0,0 5.18455,-0.00201 5.18455,-1.1819c0,-0.04844 -0.00804,-0.09489 -0.02475,-0.13941z" data-paper-data="{&quot;index&quot;:null}" fill="#484848" fill-rule="nonzero" stroke="none" stroke-width="0" stroke-linecap="butt"/><path d="M548.5518,319.41253c0,-0.13682 -0.07147,-0.36595 -0.13978,-0.59104c-0.26574,0.09133 -0.66216,0.16924 -1.17189,0.23546c-1.5286,0.35557 -3.84764,0.35557 -3.84764,0.35557c-19.65152,0 -31.0019,3.13224 -37.94899,6.42715c-0.81729,0.37383 -0.74507,0.82422 -0.74507,1.24217c0,0.11891 -0.04972,0.30789 -0.10404,0.50338c0.05197,-0.06295 0.18168,-0.11466 0.44572,-0.14783c1.16694,-0.14667 11.31149,0.75093 12.55632,0.23442c0.37409,-0.15524 -1.83495,-0.18448 -1.71311,-0.35951c1.49847,-2.15197 17.39006,-5.40701 25.202,-6.30032c2.02609,-0.23169 4.30692,-0.34826 6.57436,-0.40163c-0.88648,-0.31574 0.89209,-0.79903 0.89209,-1.19779zM504.5672,327.68282c-0.117,0.41947 -0.22084,0.82044 0.13126,0.57887c0.24069,-0.16507 -0.10677,-0.39683 -0.13126,-0.57887zM496.21456,324.78431c7.37361,-3.17899 17.18033,-6.07762 32.46283,-7.2185c1.43555,-0.51306 4.39681,-0.51308 4.39681,-0.51308h2.57961c5.84105,0 8.93128,-0.46537 15.20535,-0.46537c8.71315,0 10.73289,3.9623 6.17662,5.12268c-2.87519,0.73221 -7.48707,0.97246 -11.33588,1.41258c-11.39268,1.30271 -15.61987,5.04627 -28.10334,6.90894c-13.23092,1.97417 -27.79713,-2.31302 -21.38194,-5.24723z" data-paper-data="{&quot;index&quot;:null}" fill="#000000" fill-rule="nonzero" stroke="none" stroke-width="0" stroke-linecap="butt"/><path d="M548.60376,318.78192c0.06847,0.22508 0.15184,0.45748 0.15184,0.59431c0,0.39875 -1.75744,0.8893 -0.87094,1.20506c-2.26746,0.05338 -4.56135,0.16515 -6.58751,0.39684c-7.81203,0.89328 -23.7803,4.1318 -25.27871,6.28377c-0.12196,0.17507 1.84208,0.30792 1.46794,0.46315c-1.24482,0.5165 -11.4773,-0.39663 -12.64422,-0.24996c-0.26417,0.03322 -0.39267,0.08522 -0.44453,0.14819c0.05432,-0.19549 0.09452,-0.38719 0.09452,-0.5061c0,-0.41793 -0.0947,-0.87654 0.72256,-1.25035c6.94703,-3.29492 18.70715,-6.49643 38.35865,-6.49643c0,0 2.32956,0.00254 3.85813,-0.35303c0.50979,-0.06624 0.90637,-0.14408 1.172,-0.23543z" data-paper-data="{&quot;index&quot;:null}" fill="#ffffff" fill-rule="nonzero" stroke="none" stroke-width="0" stroke-linecap="butt"/><g stroke="none" stroke-linecap="butt"><path d="M396.01124,-5.4259c0.49705,-0.09085 0.99409,-0.1817 1.49114,-0.27254c16.10507,10.76623 32.26437,21.4245 48.4774,31.97488c4.07399,1.80257 7.77036,4.20888 11.07917,7.22074c0.52732,0.07481 1.05467,0.14969 1.582,0.2245c2.61889,2.2442 5.39435,4.30518 8.3214,6.18384c0.72168,0.21071 1.44822,0.42 2.16989,0.6307c3.30881,3.01187 7.00519,5.41816 11.07918,7.22074c34.32356,22.77045 68.91608,45.2981 103.78243,67.58154c0.09085,0.49705 0.1817,0.99409 0.27254,1.49114c-1.38692,2.13552 -2.98772,4.14062 -4.80756,6.01523c-1.7651,-0.49564 -3.43794,-1.21718 -5.01852,-2.16465c8.90885,47.16816 17.95695,94.31138 27.13438,141.43146c-98.20215,18.0589 -196.36956,36.00153 -294.50075,53.82762c-5.39536,0.98665 -10.55377,2.2721 -15.47531,3.85581c-0.49705,0.09085 -0.9941,0.1817 -1.49115,0.27255c-0.83589,-4.07869 -1.59293,-8.22058 -2.27121,-12.42619c-96.36547,17.96256 -192.73212,35.91867 -289.10005,53.8678c-1.98505,-11.88523 -3.81886,-23.79194 -5.50156,-35.72061c-0.32267,-1.04846 -0.83574,-1.98198 -1.53918,-2.80059c0.13947,-2.78072 -0.02882,-5.57505 -0.50491,-8.38298c-3.15117,-20.31224 -6.34864,-40.61652 -9.59235,-60.91236c-3.79495,0.86365 -7.63603,1.39415 -11.52295,1.59247c-1.0672,-1.97513 -2.25901,-3.81191 -3.57542,-5.51033c-0.1211,-0.66256 -0.24229,-1.32563 -0.36339,-1.98819c38.43834,-7.0256 76.87688,-14.05124 115.31506,-21.07681c-5.36005,-29.32581 -10.7201,-58.65163 -16.08015,-87.97744c-0.50935,0.16963 -1.02149,0.17797 -1.53657,0.02402c-6.00589,-2.8651 -12.00442,-5.70689 -17.99503,-8.52495c-0.56059,-0.59405 -0.86288,-1.30928 -0.90586,-2.14587c84.13632,-15.54913 168.27305,-31.09886 252.40937,-46.64798c0.44996,1.66932 1.08429,3.26538 1.90257,4.78878c12.13187,-1.98729 24.18112,-4.44643 36.14821,-7.3775c19.97004,-28.38246 40.17611,-56.47413 60.61718,-84.27484z" fill="#000000" fill-rule="evenodd" stroke-width="1"/><path d="M396.87169,-3.52858c19.96989,12.56538 39.7918,25.46493 59.46572,38.69858c18.38881,11.69104 36.65641,23.59018 54.80798,35.6975c0.72168,0.21071 1.44822,0.42 2.16989,0.6307c2.61889,2.2442 5.39435,4.30518 8.3214,6.18384c0.5273,0.07467 1.0547,0.14984 1.582,0.2245c10.41828,7.34256 20.97006,14.48814 31.65553,21.43772c4.07399,1.80257 7.77037,4.20888 11.07918,7.22074c3.47361,1.38427 6.57712,3.38529 9.31549,6.00214c2.51087,0.8663 4.80186,2.15956 6.87305,3.8803c-0.93638,1.50921 -1.95187,2.97896 -3.04649,4.40921c-0.83662,-0.86771 -1.85224,-1.28152 -3.05173,-1.24c-0.94244,-0.94083 -1.88479,-1.88117 -2.82723,-2.82199c-4.86058,-3.01485 -9.76685,-5.97049 -14.7188,-8.86694c-2.5269,-2.47162 -5.43614,-4.33709 -8.72759,-5.59595c-9.43003,-6.51644 -19.1088,-12.62322 -29.03141,-18.32178c-25.9264,-16.64976 -51.90993,-33.30297 -77.96043,-49.95729c-2.78442,-1.48616 -5.49731,-3.21611 -8.1397,-5.18975c-0.52732,-0.07481 -1.05466,-0.14969 -1.58199,-0.2245c-4.55223,-3.51136 -9.25539,-6.76095 -14.1095,-9.74878c-7.08888,-4.39508 -14.20366,-8.65928 -21.34333,-12.79266c-0.31639,0.14346 -0.63229,0.28676 -0.94868,0.43022c-25.25223,36.54757 -50.50398,73.09486 -75.75618,109.6426c-0.21044,0.72316 -0.08924,1.38623 0.36339,1.98819c3.79216,1.89621 7.15402,4.36367 10.08508,7.40244c8.88217,5.41308 17.33932,11.40106 25.37037,17.96362c5.01805,3.03333 9.88674,6.25267 14.60655,9.65793c1.04053,1.00816 2.08064,2.01692 3.12118,3.02509c5.65285,3.76071 11.30528,7.52202 16.95814,11.28273c0.25637,0.46679 0.51324,0.9335 0.76959,1.4003c5.75409,4.01393 11.60279,7.91042 17.54603,11.68894c0.84426,0.87299 1.68902,1.7459 2.53328,2.61889c3.3081,1.7068 6.34576,3.80564 9.11239,6.29609c-2.06195,2.35701 -3.92011,4.83701 -5.57454,7.43955c-30.90879,-23.09358 -62.11381,-45.81252 -93.61435,-68.15589c-2.01353,-2.54901 -4.56097,-4.30956 -7.64265,-5.28059c-15.41974,22.31712 -30.85531,44.65717 -46.30672,67.02013c-1.21548,2.30348 -1.37164,4.72873 -0.46779,7.27664c-98.77803,18.81445 -197.5845,37.47332 -296.41949,55.97611c-0.96553,-1.53552 -1.93115,-3.07156 -2.89668,-4.60708c97.17939,-18.19146 194.38978,-36.216 291.63071,-54.07352c-0.77983,-1.91156 -1.39175,-3.85433 -1.83575,-5.8283c24.01463,-33.58942 48.09426,-67.183 72.23928,-100.78135c0.42732,-0.3262 0.9093,-0.49956 1.44572,-0.52107c-0.26312,-1.611 0.39893,-2.67353 1.98557,-3.188c3.23715,-5.15907 6.59166,-10.22402 10.06414,-15.19445c0.73774,-0.64849 1.47496,-1.29689 2.21269,-1.94538c3.03333,-5.01805 6.25267,-9.88674 9.65793,-14.60655c1.00819,-1.04037 2.0169,-2.0808 3.02509,-3.12118c2.76241,-4.62578 5.71076,-9.10269 8.84554,-13.43076c1.14393,-1.23638 2.28736,-2.47269 3.43129,-3.70907c8.68708,-12.04951 17.26269,-24.1468 25.72683,-36.29188z" fill="#524950" fill-rule="evenodd" stroke-width="1"/><path d="M397.47008,8.17607c9.04295,5.30357 17.95121,10.9521 26.72525,16.9455c0.52732,0.07481 1.05466,0.14969 1.58199,0.22451c2.52893,2.47144 5.43813,4.33678 8.72759,5.59595c7.56403,4.79426 14.98213,9.77369 22.24921,14.93853c2.9163,1.39831 5.76493,2.93226 8.5459,4.60184c7.26707,5.16484 14.68519,10.14438 22.2492,14.93853c3.29145,1.25884 6.20068,3.12433 8.72759,5.59595c0.5273,0.07467 1.05469,0.14984 1.58199,0.2245c8.6779,5.99849 17.56951,11.56446 26.67982,16.69698c6.63089,4.43821 13.26673,8.87552 19.89761,13.31374c5.10321,2.65614 9.94006,5.70974 14.5157,9.16088c0.72168,0.21071 1.44822,0.42 2.16989,0.6307c3.38438,2.91945 7.01133,5.42373 10.87608,7.51469c9.42645,47.41461 18.69919,94.85939 27.81312,142.33472c-73.89608,13.50642 -147.78867,27.0122 -221.68326,40.51834c-7.60748,-35.94798 -15.08999,-71.73489 -22.44784,-107.35969c-0.49866,-1.79242 -0.99773,-3.58424 -1.49638,-5.37668c-2.90087,-2.35086 -5.59966,-4.9395 -8.0969,-7.76583c-2.88552,-0.72694 -5.57588,-1.86142 -8.07025,-3.40465c-1.08494,-0.31535 -2.16989,-0.6307 -3.25483,-0.94605c-4.97177,0.38993 -9.93491,0.86919 -14.89003,1.4374c-1.3105,0.22104 -2.5077,0.69668 -3.59158,1.42694c-2.24281,2.60682 -4.72645,4.94434 -7.45048,7.01194c-1.67942,4.57643 -3.70156,8.96947 -6.06635,13.17961c6.40784,37.35172 12.97294,74.67572 19.69529,111.972c-10.438,1.90781 -20.876,3.81563 -31.314,5.72344c-7.4769,-41.29532 -14.93431,-82.56545 -22.3727,-123.81029c15.76832,-22.40242 31.1433,-45.07398 46.12502,-68.01423c33.5959,24.22713 67.08457,48.66854 100.46601,73.32422c0.72316,0.21044 1.38623,0.08924 1.98819,-0.36339c1.63213,-2.7808 3.46003,-5.42632 5.48369,-7.9366c4.56125,23.14002 9.21492,46.26006 13.96139,69.35956c35.12487,-6.41998 70.24775,-12.83959 105.3741,-19.25984c-5.77318,-35.23949 -12.19306,-70.36386 -19.25984,-105.3741c-9.12973,-1.69779 -18.20039,-3.55019 -27.21182,-5.55621c-5.92472,0.2965 -11.84638,0.69414 -17.76007,1.1915c-15.53212,3.40442 -30.86433,7.57669 -45.9957,12.51612c-4.9784,4.43976 -10.10396,8.71531 -15.37661,12.82669c1.677,10.65894 3.61506,21.26246 5.81429,31.81105c-32.97016,-23.85558 -66.0066,-47.69445 -99.10851,-71.51773c24.51446,-35.89924 49.22479,-71.66271 74.13139,-107.29102c0.17663,-0.3376 0.19907,-0.68415 0.06683,-1.03952z" fill="#3b3d50" fill-rule="evenodd" stroke-width="1"/><path d="M401.80891,57.20733c7.4846,-2.24172 14.98634,-2.414 22.50603,-0.51799c2.39744,9.30888 4.45509,18.69218 6.17246,28.15002c-10.93505,1.99866 -21.8701,3.99733 -32.80515,5.99599c-1.77914,-9.26471 -3.39191,-18.55778 -4.83897,-27.8801c1.18801,-1.22287 2.43011,-2.39143 3.72524,-3.50597c1.93141,-0.47732 3.67841,-1.2245 5.2404,-2.24195z" fill="#000000" fill-rule="evenodd" stroke-width="1"/><path d="M403.5726,58.42593c6.53669,-1.9 13.04475,-1.89115 19.52375,0.0271c2.16761,8.32409 4.04357,16.7133 5.62736,25.16774c-9.94096,1.81697 -19.8819,3.63393 -29.82286,5.4509c-1.71112,-8.42602 -3.08953,-16.90617 -4.13622,-25.44028c1.02334,-0.95752 2.04718,-1.91513 3.07051,-2.87265c2.07507,-0.55135 3.98758,-1.32878 5.73745,-2.3328z" fill="#587cac" fill-rule="evenodd" stroke-width="1"/><path d="M172.45062,106.31962c41.22619,-7.7062 82.5114,-15.08109 123.85571,-22.12418c0.72651,1.38095 1.33008,2.81157 1.81174,4.29173c11.87015,-2.52554 23.75388,-4.95442 35.65116,-7.28665c-1.75846,1.49664 -3.14257,3.29058 -4.15284,5.38192c-11.69143,2.56478 -23.46973,4.63179 -35.3358,6.20171c-0.54349,-1.09901 -1.08655,-2.19862 -1.63004,-3.29763c-9.72269,1.60602 -19.44545,3.21155 -29.16814,4.81758c-66.44616,12.57005 -132.90695,25.06008 -199.38295,37.46969c0.46776,1.6599 0.60513,3.34731 0.41144,5.06133c-4.80318,-2.9565 -9.86713,-5.36968 -15.19183,-7.23953c41.15727,-7.60833 82.20129,-15.36702 123.13155,-23.27595z" fill="#524950" fill-rule="evenodd" stroke-width="1"/><path d="M235.67175,100.92815c18.52901,-3.5577 37.11605,-6.78392 55.76019,-9.67797c0.72395,1.20112 1.29767,2.46565 1.72088,3.79468c11.58393,-2.20304 23.19672,-4.2398 34.83877,-6.11086c-20.22799,28.85692 -40.85541,57.45348 -61.8812,85.79001c-58.07198,11.97482 -116.22556,23.54541 -174.46112,34.71237c-3.76636,0.68429 -7.52447,1.20013 -11.27442,1.54704c-4.97254,-25.80056 -9.77967,-51.63187 -14.42086,-77.49402c56.83107,-10.38941 113.40366,-21.24315 169.71776,-32.56126z" fill="#6f6a69" fill-rule="evenodd" stroke-width="1"/><path d="M241.45989,104.49309c1.16375,-0.23429 1.93233,0.22467 2.30616,1.37627c3.15371,20.03954 6.6368,40.03479 10.45017,59.98509c-45.00477,8.57097 -90.00959,17.13885 -135.01527,25.70483c-3.63393,-19.88191 -7.26786,-39.76381 -10.9018,-59.64572c38.9961,-7.71927 77.99091,-15.44551 116.98528,-23.17987c5.66936,-0.9602 11.0612,-2.37357 16.17546,-4.24061z" fill="#000000" fill-rule="evenodd" stroke-width="1"/><path d="M227.00266,109.70379c4.97048,-0.90848 9.94096,-1.81697 14.91143,-2.72545c3.51283,19.21935 7.02557,38.43819 10.5384,57.65754c-6.95867,1.27188 -13.91733,2.54375 -20.876,3.81563c-3.30007,-19.08667 -6.61655,-38.17035 -9.95051,-57.25133c1.95268,-0.19511 3.74511,-0.69377 5.37667,-1.49639z" fill="#524950" fill-rule="evenodd" stroke-width="1"/><path d="M193.29427,116.37852c8.94685,-1.63527 17.89372,-3.27054 26.84058,-4.90581c3.31101,19.08467 6.62806,38.16875 9.95051,57.25133c-28.93695,5.61875 -57.87073,11.24922 -86.80165,16.89255c-3.45224,-18.88781 -6.90447,-37.77563 -10.35671,-56.66344c20.24543,-3.99726 40.36802,-8.18884 60.36727,-12.57463z" fill="#587cac" fill-rule="evenodd" stroke-width="1"/><path d="M126.46542,130.13418c1.65666,-0.3028 3.31382,-0.60569 4.97048,-0.90848c3.45224,18.88781 6.90447,37.77563 10.35671,56.66344c-7.12418,1.30213 -14.24887,2.60435 -21.37305,3.90648c-3.42198,-18.7223 -6.84387,-37.44409 -10.26586,-56.16639c5.5863,-0.85255 11.02357,-2.01741 16.31173,-3.49504z" fill="#524950" fill-rule="evenodd" stroke-width="1"/><path d="M472.69794,133.11242c7.40578,-0.82094 14.82877,-1.40721 22.27891,-1.76061c7.53824,1.95528 15.18065,3.4688 22.91747,4.54334c1.49783,0.21369 2.87672,0.73215 4.13667,1.55535c6.60658,33.89755 12.73497,67.87685 18.37538,101.94021c-34.13227,6.23855 -68.26105,12.47647 -102.39183,18.71475c-5.6745,-29.69724 -11.44174,-59.3765 -17.30136,-89.03836c-0.57644,-4.08964 -1.15229,-8.17888 -1.72874,-12.26852c4.88961,-4.47592 10.03024,-8.66897 15.42203,-12.57818c12.79798,-3.85393 25.56004,-7.55592 38.29146,-11.10797z" fill="#587cac" fill-rule="evenodd" stroke-width="1"/><path d="M243.65504,181.13976c6.94549,-1.35524 13.91933,-2.54412 20.92143,-3.56711c-3.35638,3.60189 -6.3282,7.48381 -8.91498,11.64566c0.18256,1.82503 0.89998,3.40642 2.15111,4.74336c-58.33939,10.56236 -116.62924,21.38737 -174.86994,32.47565c-0.81764,-4.47343 -1.63527,-8.94686 -2.4529,-13.42029c54.5017,-10.47627 108.89034,-21.1019 163.16529,-31.87729z" fill="#3f4366" fill-rule="evenodd" stroke-width="1"/><path d="M318.90142,179.7142c5.12602,-0.68419 10.27034,-1.1108 15.4325,-1.27974c3.25989,1.53583 6.64267,2.71533 10.14929,3.53831c2.89812,3.04686 5.8386,6.0192 8.82106,8.9176c-0.02241,0.34671 -0.04442,0.69282 -0.06683,1.03952c-2.22786,-1.3947 -4.31575,-2.98191 -6.26376,-4.76214c-2.95625,-0.47311 -5.88679,-1.05004 -8.7918,-1.73181c-3.32588,-0.02801 -6.60212,0.31398 -9.8287,1.02597c-3.04703,2.2227 -6.28408,4.18427 -9.71122,5.88419c-1.96159,3.56372 -3.41152,7.33852 -4.35071,11.32508c5.23254,30.03331 10.63076,60.03736 16.19502,90.01106c14.22447,-2.74063 28.44258,-5.51041 42.65526,-8.31c1.11005,5.44935 2.27539,10.88652 3.49504,16.31172c-17.56218,3.20994 -35.12487,6.41998 -52.68705,9.62992c-6.62852,-36.79978 -13.10277,-73.62673 -19.42275,-110.48085c2.20003,-4.04082 3.98874,-8.30593 5.36621,-12.79482c3.29974,-2.52058 6.30234,-5.29556 9.00845,-8.32402z" fill="#6e685f" fill-rule="evenodd" stroke-width="1"/><path d="M329.66522,188.01989c5.19902,-0.72322 10.36637,-0.55461 15.50195,0.50536c3.01034,1.93534 5.88199,4.06452 8.61534,6.38694c6.57946,29.60683 12.94193,59.26308 19.08646,88.96891c-13.56168,2.61795 -27.11764,5.2672 -40.66706,7.94661c-5.41289,-29.14562 -10.6596,-58.32059 -15.74078,-87.52582c0.8304,-3.60096 1.99472,-7.06673 3.49288,-10.39781c3.28461,-1.98515 6.52174,-3.94622 9.71122,-5.88419z" fill="#413142" fill-rule="evenodd" stroke-width="1"/><path d="M219.4115,208.68525c16.23706,-2.96774 32.47361,-5.93539 48.71067,-8.90313c0.3028,1.65666 0.60569,3.31382 0.90848,4.97048c-89.87442,16.94259 -179.7492,33.88317 -269.62435,50.82178c0.13216,1.08277 0.56238,2.03143 1.29066,2.84601c1.23638,1.14393 2.47269,2.28736 3.70907,3.43129c3.41692,18.89529 6.62064,37.82852 9.61114,56.79971c-6.65754,1.04579 -13.31523,2.09109 -19.97275,3.13689c-3.56336,-22.80773 -7.04943,-45.62753 -10.45802,-68.45892c78.71383,-14.77274 157.32203,-29.65406 235.82511,-44.64408z" fill="#6e685f" fill-rule="evenodd" stroke-width="1"/><path d="M225.56296,214.2384c14.5799,-2.66485 29.1603,-5.3298 43.7402,-7.99465c0.63594,3.47933 1.27188,6.95866 1.90781,10.438c-55.82032,10.29044 -111.60975,20.74422 -167.36879,31.36146c2.53708,17.39649 5.7016,34.71017 9.49365,51.94148c-2.81678,0.51484 -5.63304,1.02958 -8.44982,1.54442c-2.72845,-17.474 -5.74263,-34.90093 -9.04203,-52.28085c-28.30356,5.33244 -56.60492,10.6768 -84.9043,16.0321c5.12688,29.88208 10.24644,59.7655 15.3586,89.65027c-1.49114,0.27254 -2.98229,0.54509 -4.47343,0.81764c-5.17814,-31.75577 -10.54798,-63.477 -16.1094,-95.16323c-1.13836,-1.07606 -2.27676,-2.15213 -3.41512,-3.22819c59.45489,-11.47097 118.94192,-22.77163 178.46152,-33.90258c15.16343,-2.77151 30.09727,-5.84367 44.80112,-9.21586z" fill="#564b4e" fill-rule="evenodd" stroke-width="1"/><path d="M188.97362,233.25371c27.50314,-5.02691 55.00677,-10.05391 82.50992,-15.08082c0.27254,1.49114 0.54509,2.98228 0.81764,4.47343c-54.04439,9.69875 -108.08691,19.40486 -162.12839,29.1195c0.44496,3.6822 0.94564,7.35731 1.50162,11.02589c54.14976,-10.05804 108.29762,-20.12652 162.44374,-30.20444c4.45157,24.35533 8.90313,48.71067 13.3547,73.06601c-55.24806,10.59985 -110.52527,21.04579 -165.83223,31.33743c-5.52209,-29.29619 -11.04765,-58.59175 -16.5772,-87.88659c28.11435,-4.96809 56.08478,-10.25145 83.91021,-15.85041z" fill="#6f6a69" fill-rule="evenodd" stroke-width="1"/><path d="M53.86748,258.4615c13.5858,-2.48316 27.17211,-4.9664 40.75791,-7.44956c2.71779,14.4002 5.26938,28.82976 7.65528,43.28858c0.52121,2.82073 0.60634,5.63026 0.25638,8.42841c3.19329,11.93764 5.75011,24.05481 7.67144,36.35131c-27.46598,5.23019 -54.93887,10.42263 -82.41907,15.57787c-5.01763,-29.3884 -10.0463,-58.77478 -15.08606,-88.15914c13.86688,-2.36451 27.58846,-5.04353 41.16411,-8.03746z" fill="#6f6a69" fill-rule="evenodd" stroke-width="1"/><path d="M78.99244,255.41023c4.47343,-0.81764 8.94685,-1.63527 13.42029,-2.4529c0.61242,3.99985 1.1732,8.00658 1.68331,12.02c-24.70023,4.52898 -49.32651,9.37268 -73.8784,14.53049c-0.70856,-3.12603 -1.44961,-6.24354 -2.22316,-9.35306c-0.49705,0.09085 -0.9941,0.1817 -1.49115,0.27255c-0.09085,-0.49705 -0.1817,-0.99409 -0.27254,-1.49114c20.96255,-4.68822 41.88297,-9.19667 62.76167,-13.52593z" fill="#000000" fill-rule="evenodd" stroke-width="1"/><path d="M80.34992,257.21672c3.64485,-0.66619 7.2902,-1.33247 10.93505,-1.99866c0.24904,2.85764 0.59837,5.70466 1.04737,8.54066c-23.66498,4.48257 -47.32749,8.97854 -70.98697,13.48835c-0.57959,-2.46593 -1.19955,-4.92087 -1.85977,-7.36487c20.39678,-4.09941 40.68489,-8.32124 60.86433,-12.66548z" fill="#151b20" fill-rule="evenodd" stroke-width="1"/><path d="M111.93643,252.98442c53.54707,-9.60939 107.09245,-19.22513 160.63724,-28.84695c0.42399,2.31972 0.84789,4.63894 1.27188,6.95866c-53.65163,9.97316 -107.30252,19.9503 -160.9526,29.93191c-0.24491,-2.68889 -0.56389,-5.36991 -0.95652,-8.04361z" fill="#151b20" fill-rule="evenodd" stroke-width="1"/><path d="M-5.68309,323.27942c6.6707,-0.95882 13.32825,-2.00461 19.97275,-3.13688c2.09573,11.94616 4.11043,23.90557 6.04403,35.87828c-6.793,1.2416 -13.58596,2.48319 -20.37896,3.72478c-1.93485,-12.14763 -3.81413,-24.30286 -5.63782,-36.46618z" fill="#3b3d50" fill-rule="evenodd" stroke-width="1"/><path d="M105.15856,303.02024c2.81678,-0.51484 5.63304,-1.02958 8.44982,-1.54442c2.18036,11.92914 4.36072,23.85829 6.54108,35.78744c-2.81678,0.51484 -5.63304,1.02958 -8.44982,1.54442c-2.18036,-11.92914 -4.36072,-23.85829 -6.54108,-35.78744z" fill="#3b3d50" fill-rule="evenodd" stroke-width="1"/><path d="M338.74927,134.71796c3.53769,1.548 8.04571,3.82864 9.20876,7.81566c0.64471,2.21011 0.16584,4.66055 -0.03148,6.9009c-0.11067,6.98567 -8.65182,10.31662 -14.3836,11.35486c-6.40269,0.17088 -11.55801,-3.677 -12.80126,-10.09455c-1.09186,-6.00936 -1.71258,-14.37981 5.83061,-15.78174c3.89973,-0.71278 8.4089,-1.92524 12.27368,-0.68694zM332.36641,134.92337c-1.8819,0.25852 -3.81159,0.73512 -5.59821,1.06167c-6.80733,1.22554 -5.93844,9.16045 -4.95458,14.51386c0.96427,5.7136 5.89356,9.53253 11.60985,9.20733c5.12803,-0.94651 13.42789,-3.94079 13.41457,-10.32347c0.18337,-2.09947 0.66915,-4.45219 0.07913,-6.5264c-1.02211,-3.59322 -5.23869,-5.67044 -8.45487,-7.07553c-0.10529,0.1231 -0.28917,0.24193 -0.5789,0.13998c-0.32111,-0.11301 -0.371,-0.35603 -0.36323,-0.52249c-1.09729,-0.31177 -2.21061,0.10576 -3.36032,0.31589c-3.30187,0.6035 -8.74906,1.17464 -10.74409,4.08188c0,0 -0.30972,0.44827 -0.75799,0.13854c-0.44826,-0.30973 -0.13854,-0.75799 -0.13854,-0.75799c1.92055,-2.76268 6.328,-3.63666 9.8472,-4.25327z" fill="#00ffd7" fill-rule="nonzero" stroke-width="0.5"/><path d="M322.56476,139.20657c0,0 -0.30855,0.4464 0.13971,0.75611c0.44826,0.30973 0.6657,-0.19646 0.6657,-0.19646c1.99503,-2.90724 7.48644,-3.503 10.78831,-4.1065c1.14971,-0.21014 2.27836,-0.62586 3.37565,-0.31409c-0.00777,0.16647 0.04431,0.41011 0.36541,0.52312c0.28971,0.10196 0.47581,-0.01613 0.58111,-0.13923c3.2162,1.40511 7.46611,3.51638 8.48822,7.1096c0.59001,2.07421 0.10606,4.45438 -0.07731,6.55385c0.01334,6.38269 -8.3444,9.42107 -13.47244,10.36758c-5.71629,0.3252 -10.69375,-3.53357 -11.65802,-9.24717c-0.98386,-5.35342 -1.83133,-13.34753 4.97599,-14.57306c1.78662,-0.32655 3.75664,-0.70474 5.63854,-0.96326c-3.51919,0.61662 -7.89034,1.46683 -9.81089,4.22951z" fill="#ffffff" fill-rule="nonzero" stroke-width="0.5"/><path d="M301.56917,137.14075c3.56551,-0.34208 6.8294,1.16569 9.916,3.74055c2.45576,2.04871 5.54633,4.00929 6.34089,7.3289c0.45901,1.91772 -0.02755,3.94695 -0.21345,5.84652c-0.12749,1.30255 -0.30983,2.06621 -1.28319,3.00775c-2.7851,5.62379 -8.11293,8.83546 -13.98705,9.9091c-4.03147,0.73686 -6.45713,-1.60737 -9.98128,-3.12757c-1.55715,-0.67169 -3.45917,-0.97863 -4.74728,-2.03112c-0.96183,-0.78589 -1.89971,-2.39575 -2.13236,-3.59515c-0.29185,-1.59675 -0.96686,-3.51133 -0.91794,-5.1294c0.12839,-4.2466 4.8834,-8.4783 7.50447,-11.43678c1.08498,-3.06626 3.84223,-3.13668 6.43991,-3.77604c0.50779,-0.19485 1.00938,-0.35165 1.50511,-0.47237c0.17163,-0.06987 0.34074,-0.1459 0.50669,-0.22932l0.60802,-0.13245c0,0 0.25153,-0.04597 0.44146,0.09737zM296.44079,139.36962c-1.50571,0.40403 -2.81566,1.07361 -3.4309,2.83182c-2.41208,2.8251 -7.28055,6.96939 -7.36074,10.98242c-0.03035,1.51861 0.6294,3.3364 0.90421,4.83993c0.53476,3.18116 3.75206,3.74913 6.2179,4.81265c3.29832,1.42257 5.63609,3.74856 9.37514,3.06516c5.66765,-1.03591 10.58953,-4.07746 13.30398,-9.48124c1.09632,-1.06047 1.01327,-1.96177 1.28369,-3.38961c1.0559,-5.57543 -2.09386,-8.09823 -5.947,-11.3127c-3.26738,-2.72594 -6.66209,-4.21215 -10.52241,-3.26048c-0.30308,0.10607 -0.61494,0.19524 -0.93145,0.2744c-0.68764,0.2354 -1.39031,0.5481 -2.10982,0.94447c0,0 -0.4775,0.26243 -0.73992,-0.21507c-0.01733,-0.03154 -0.03143,-0.06213 -0.04266,-0.09176z" fill="#00ffd7" fill-rule="nonzero" stroke-width="0.5"/><path d="M296.46409,139.41046c0.26244,0.4775 0.74233,0.21421 0.74233,0.21421c0.7195,-0.39637 1.43119,-0.71119 2.11882,-0.94659c0.31649,-0.07917 0.63218,-0.16875 0.93525,-0.27482c3.86032,-0.95166 7.29582,0.54853 10.5632,3.27447c3.85314,3.21447 7.02067,5.78073 5.96478,11.35614c-0.27041,1.42785 -0.18961,2.34179 -1.28592,3.40226c-2.71445,5.40376 -7.68521,8.48395 -13.35286,9.51986c-3.73904,0.68341 -6.11414,-1.65441 -9.41244,-3.07699c-2.46585,-1.06354 -5.69974,-1.65389 -6.2345,-4.83506c-0.27481,-1.50354 -0.9383,-3.33787 -0.90795,-4.85649c0.08019,-4.01304 4.9681,-8.20275 7.38019,-11.02783c0.61523,-1.75821 1.9407,-2.43688 3.44641,-2.8409c0.01123,0.02964 0.02535,0.06022 0.04268,0.09176z" fill="#ffffff" fill-rule="nonzero" stroke-width="0.5"/><path d="M300.93122,152.7264c-0.18936,-1.03605 0.497,-2.02943 1.53305,-2.2188c1.03605,-0.18936 2.02943,0.497 2.2188,1.53305c0.18936,1.03605 -0.497,2.02943 -1.53305,2.2188c-1.03605,0.18936 -2.02943,-0.497 -2.2188,-1.53305z" fill="#000000" fill-rule="nonzero" stroke-width="0.5"/><path d="M330.18318,148.00262c-0.18936,-1.03605 0.497,-2.02943 1.53305,-2.2188c1.03605,-0.18936 2.02943,0.497 2.2188,1.53305c0.18936,1.03605 -0.497,2.02943 -1.53305,2.2188c-1.03605,0.18936 -2.02943,-0.497 -2.2188,-1.53305z" fill="#000000" fill-rule="nonzero" stroke-width="0.5"/><path d="M316.98528,135.52398c-0.50828,0.64001 -1.14829,0.13173 -1.14829,0.13173l-0.85077,-0.6789c-2.4258,-1.36295 -5.00094,-2.29168 -7.50053,-3.51581c-2.30261,-1.12765 -4.73828,-3.16444 -7.16648,-3.84338c-3.05882,-1.70534 -6.6668,-2.20486 -9.70071,-4.07356c-2.63629,-1.62379 -6.58056,-4.80574 -9.76927,-4.93306c0,0 -0.81561,-0.05243 -0.76318,-0.86804c0.05243,-0.81561 0.86804,-0.76318 0.86804,-0.76318c4.33767,0.35114 7.85035,4.16844 11.68539,5.80723c2.68653,1.148 5.78768,1.87702 8.31386,3.32406c2.4797,0.74509 4.89502,2.72601 7.25226,3.88244c2.56773,1.25969 5.20305,2.21503 7.69351,3.6274l0.95444,0.75477c0,0 0.64001,0.50828 0.13173,1.14829z" fill="#00ffd7" fill-rule="nonzero" stroke-width="0.5"/><path d="M321.51937,134.2211c-0.49098,-0.65337 0.16239,-1.14436 0.16239,-1.14436l0.16694,-0.03973c1.20602,-2.10724 3.14687,-3.69415 4.19632,-5.93589c1.92095,-3.12571 3.8661,-6.31076 6.23167,-9.13108c3.57996,-4.26813 7.47723,-7.51814 10.34519,-12.43723c0,0 0.41164,-0.70605 1.1177,-0.29441c0.70605,0.41164 0.29441,1.1177 0.29441,1.1177c-4.61806,7.92084 -11.71066,13.68182 -16.55117,21.52256c-1.0618,2.24939 -3.0325,3.83876 -4.21071,5.96194l-0.60839,0.54288c0,0 -0.65337,0.49098 -1.14436,-0.16239z" fill="#00ffd7" fill-rule="nonzero" stroke-width="0.5"/><path d="M301.65256,195.92217c-0.49185,0.0899 -0.58175,-0.40195 -0.58175,-0.40195l0.02144,-0.0087c-1.14659,-2.18815 -1.96392,-4.21679 -2.40893,-6.65154c-1.20723,-6.623 -2.32366,-12.86283 3.93657,-17.28797c5.15302,-3.68342 9.54674,-6.67222 15.92866,-7.83868c6.10271,-1.09655 12.25942,1.35287 18.38616,0.85487c6.81601,-0.48148 12.76353,0.50512 15.74636,7.48951c2.1447,2.23502 2.54131,7.83915 3.33697,10.78319c0.35446,1.31157 1.02322,2.70733 0.48104,3.99398c0,0 -0.21273,0.45249 -0.66522,0.23976c-0.45249,-0.21273 -0.23976,-0.66522 -0.23976,-0.66522c0.47874,-0.85393 -0.29545,-2.39724 -0.54158,-3.3082c-0.76168,-2.81906 -1.13344,-8.36655 -3.2034,-10.48866c-2.9065,-6.66275 -8.27737,-7.51062 -14.83867,-7.04722c-6.07867,0.49418 -12.24459,-1.99272 -18.2821,-0.86829c-6.23622,1.13983 -10.49259,4.0695 -15.52908,7.67003c-5.89145,4.16449 -4.67108,10.0786 -3.53225,16.29312c0.42727,2.33767 1.20826,4.26531 2.31087,6.36698l0.07663,0.29326c0,0 0.0899,0.49185 -0.40195,0.58175z" fill="#00ffd7" fill-rule="nonzero" stroke-width="0.5"/></g><path d="M-39.32891,-45.16947c-0.21763,0.11949 -0.42805,0.14053 -0.42805,0.14053c-5.0002,0.49086 -9.73569,2.20392 -14.88541,1.67865c-5.48172,-0.55913 -9.90837,-3.66554 -15.44515,-3.76445c-4.86662,-0.02731 -6.47361,1.41934 -8.23682,5.69817c-0.43771,1.06221 -2.01792,2.09805 -1.47943,3.11289c0.84758,1.59736 3.06487,3.70837 4.26187,5.07401c0.3515,0.40102 0.62563,1.17111 1.15501,1.10691c2.2803,-0.27652 5.65612,-2.3208 7.86356,-3.25943c3.3722,-1.86324 8.7463,-2.29804 12.57756,-1.55441c2.4116,0.46808 5.17587,1.59711 7.71186,0.86702c3.54404,-1.02029 6.51412,-3.49443 10.0895,-4.83122c2.04183,-0.24345 -0.17008,-1.70698 -0.97626,-2.44324c-0.71045,-0.64883 -1.42496,-1.31412 -2.20825,-1.82544zM-42.53091,-46.66062l0.36642,-1.41245c2.91793,0.03116 6.34487,2.38432 7.94511,4.8215c1.5109,2.30111 1.13095,3.65017 -1.37601,4.27395c-3.53684,1.33088 -6.51238,3.85873 -10.05317,4.82048c-2.9267,0.79495 -5.88028,-0.23843 -8.65407,-0.81154c-3.40171,-0.70284 -8.34243,-0.29293 -11.34187,1.38306c-1.8551,0.79204 -3.66364,1.50102 -5.57198,2.1464c-1.13564,0.38406 -2.15226,1.35872 -3.35003,1.30839c-2.03092,-0.08534 -3.78477,-3.69784 -4.85626,-4.95019c-0.76317,-0.89199 -1.88887,-1.54935 -2.31603,-2.71698c-0.48372,-1.32225 1.13646,-3.33828 1.56757,-4.38606c2.06989,-5.03074 4.46752,-6.94036 10.1054,-6.93057c5.64071,0.10361 10.08344,3.21056 15.62053,3.77407c4.12244,0.41954 7.96911,-0.65099 11.9144,-1.32007z" fill="#000000" fill-rule="nonzero" stroke="none" stroke-width="0.5" stroke-linecap="butt"/><path d="M-39.28108,-45.18401c0.78329,0.51132 1.49915,1.18219 2.2096,1.83102c0.80618,0.73626 3.01881,2.20575 0.97698,2.4492c-3.57538,1.33679 -6.54764,3.8288 -10.09168,4.84909c-2.53599,0.73009 -5.30764,-0.3843 -7.71924,-0.85238c-3.83126,-0.74363 -9.29087,-0.3169 -12.66307,1.54634c-2.20744,0.93863 -5.58375,2.98185 -7.86405,3.25837c-0.52938,0.0642 -0.80496,-0.70951 -1.15646,-1.11053c-1.197,-1.36564 -3.4171,-3.49047 -4.26468,-5.08783c-0.53849,-1.01484 1.04182,-2.05796 1.47953,-3.12017c1.76321,-4.27883 3.37715,-5.7469 8.24377,-5.71959c5.53678,0.09891 10.03739,3.19192 15.51911,3.75105c5.14972,0.52527 9.90196,-1.16315 14.90216,-1.65401c0,0 0.11473,0.008 0.33236,-0.11149z" data-paper-data="{&quot;noHover&quot;:false,&quot;origItem&quot;:[&quot;Path&quot;,{&quot;applyMatrix&quot;:true,&quot;segments&quot;:[[[-39.32891,-45.16947],[0,0],[-0.21763,0.11949]],[[-39.75697,-45.02894],[0,0],[-5.0002,0.49086]],[[-54.64238,-43.35029],[5.14972,0.52527],[-5.48172,-0.55913]],[[-70.08753,-47.11474],[5.53678,0.09891],[-4.86662,-0.02731]],[[-78.32434,-41.41657],[1.76321,-4.27883],[-0.43771,1.06221]],[[-79.80377,-38.30368],[-0.53849,-1.01484],[0.84758,1.59736]],[[-75.5419,-33.22967],[-1.197,-1.36564],[0.3515,0.40102]],[[-74.38689,-32.12276],[-0.52938,0.0642],[2.2803,-0.27652]],[[-66.52333,-35.38219],[-2.20744,0.93863],[3.3722,-1.86324]],[[-53.94578,-36.9366],[-3.83126,-0.74363],[2.4116,0.46808]],[[-46.23392,-36.06958],[-2.53599,0.73009],[3.54404,-1.02029]],[[-36.14441,-40.9008],[-3.57538,1.33679],[2.04183,-0.24345]],[[-37.12068,-43.34404],[0.80618,0.73626],[-0.71045,-0.64883]],[[-39.32893,-45.16948],[0.78329,0.51132],[0,0]]],&quot;closed&quot;:true,&quot;fillColor&quot;:[0,0,0,1]}]}" fill="#ffffff" fill-rule="nonzero" stroke="none" stroke-width="0.5" stroke-linecap="butt"/><path d="M-70.66723,2.31348c0.97014,0.24254 0.72761,1.21268 0.72761,1.21268l-0.17996,0.59674c-0.03135,0.96242 -0.25909,2.01238 -0.874,2.7534c-0.08211,0.09895 -1.09947,0.8736 -1.02728,1.28281c0.40573,2.29995 4.19751,3.08731 5.93618,3.5733c3.54409,0.99064 7.86556,1.88075 10.17962,4.79413l0.27286,-0.20464l0.6234,0.8312c0.12924,0.16849 0.20606,0.37932 0.20606,0.60808c0,0.55228 -0.44772,1 -1,1h-1.0491c-6.86423,0 -12.98065,0.83074 -19.6311,2.5982c-2.62519,0.69769 -4.72787,0.77881 -6.96469,2.38843c-2.38085,0.72392 -4.31276,1.95527 -6.48753,3.16127c-0.78721,0.43654 -3.33075,1.94977 -4.16297,1.91757c-2.51963,-0.09748 -2.69963,-6.03991 -3.32898,-7.73459c-0.82635,-2.22518 -5.09222,-5.57718 -4.32533,-8.282c0.16213,-0.57183 1.1562,-0.27788 1.72741,-0.44217c1.39797,-0.4021 2.4319,-1.18624 3.87785,-1.48964c5.05846,-1.00278 7.27682,-5.60093 12.20868,-6.88931c3.52741,-0.92149 8.11884,0.46006 11.79959,0.59274c0.02091,-0.142 0.02829,-0.29416 0.01933,-0.45877l0.23968,-1.08181c0,0 0.24254,-0.97014 1.21268,-0.72761zM-73.38871,6.56357c-2.26813,-0.05832 -4.67323,-0.2021 -6.85166,-0.39644c-0.96031,-0.08567 -2.27091,-0.49664 -3.23864,-0.2317c-2.95351,0.80859 -4.9364,3.16369 -7.11352,5.01484c-1.4354,1.22048 -3.39246,1.53226 -5.16244,1.88913c-0.86593,0.16213 -1.63906,0.64815 -2.44282,1.00883c-0.43421,0.19485 -0.87979,0.42738 -1.34994,0.48238c1.29747,1.19606 1.74081,2.73911 2.4604,4.2319c0.33271,0.69022 1.20282,1.03604 1.49894,1.74274c0.57629,1.37532 0.94486,3.27919 1.30574,4.7516c0.1449,0.5912 -0.16405,2.00802 0.40095,1.78154c3.34679,-1.34156 6.04774,-3.84824 9.54673,-4.88298c2.31371,-1.69504 4.63136,-1.80453 7.33668,-2.5285c6.13672,-1.64226 11.86108,-2.48919 18.07782,-2.64081c-0.94999,-0.60939 -1.93483,-1.42852 -2.53399,-1.67808c-3.21283,-1.33818 -12.16281,-1.67432 -12.5406,-6.62855c-0.06666,-0.87417 0.23009,-1.43603 0.60635,-1.91591z" fill="#000000" fill-rule="nonzero" stroke="none" stroke-width="0.5" stroke-linecap="butt"/><path d="M-73.36308,6.52063c-0.37626,0.47988 -0.67095,1.04304 -0.60429,1.91721c0.37779,4.95423 9.34995,5.3285 12.56278,6.66668c0.59916,0.24956 1.58411,1.07325 2.5341,1.68264c-6.21674,0.15162 -11.96166,1.03792 -18.09838,2.68018c-2.70532,0.72397 -5.08606,0.83 -7.39977,2.52504c-3.49899,1.03474 -6.20693,3.53355 -9.55372,4.87511c-0.565,0.22648 -0.25868,-1.19441 -0.40358,-1.78561c-0.36088,-1.47241 -0.73477,-3.38957 -1.31106,-4.76489c-0.29612,-0.7067 -1.16725,-1.05812 -1.49996,-1.74834c-0.71959,-1.49279 -1.16306,-3.04693 -2.46053,-4.24299c0.47015,-0.055 0.91591,-0.28912 1.35012,-0.48397c0.80376,-0.36068 1.57755,-0.85055 2.44348,-1.01268c1.76998,-0.35687 3.7308,-0.67973 5.1662,-1.90021c2.17712,-1.85115 4.18629,-4.23107 7.1398,-5.03966c0.96773,-0.26494 2.29228,0.14258 3.25259,0.22825c2.17843,0.19434 4.61407,0.34495 6.8822,0.40327z" data-paper-data="{&quot;noHover&quot;:false,&quot;origItem&quot;:[&quot;Path&quot;,{&quot;applyMatrix&quot;:true,&quot;segments&quot;:[[[-73.38871,6.56357],[0,0],[-2.26813,-0.05832]],[[-80.24036,6.16713],[2.17843,0.19434],[-0.96031,-0.08567]],[[-83.47901,5.93543],[0.96773,-0.26494],[-2.95351,0.80859]],[[-90.59253,10.95027],[2.17712,-1.85115],[-1.4354,1.22048]],[[-95.75497,12.8394],[1.76998,-0.35687],[-0.86593,0.16213]],[[-98.19779,13.84823],[0.80376,-0.36068],[-0.43421,0.19485]],[[-99.54773,14.33061],[0.47015,-0.055],[1.29747,1.19606]],[[-97.08733,18.56251],[-0.71959,-1.49279],[0.33271,0.69022]],[[-95.58839,20.30525],[-0.29612,-0.7067],[0.57629,1.37532]],[[-94.28264,25.05685],[-0.36088,-1.47241],[0.1449,0.5912]],[[-93.8817,26.83839],[-0.565,0.22648],[3.34679,-1.34156]],[[-84.33497,21.95541],[-3.49899,1.03474],[2.31371,-1.69504]],[[-76.99829,19.42691],[-2.70532,0.72397],[6.13672,-1.64226]],[[-58.92047,16.7861],[-6.21674,0.15162],[-0.94999,-0.60939]],[[-61.45446,15.10802],[0.59916,0.24956],[-3.21283,-1.33818]],[[-73.99506,8.47947],[0.37779,4.95423],[-0.06666,-0.87417]],[[-73.38871,6.56356],[-0.37626,0.47988],[0,0]]],&quot;closed&quot;:true,&quot;fillColor&quot;:[0,0,0,1]}]}" fill="#ffffff" fill-rule="nonzero" stroke="none" stroke-width="0.5" stroke-linecap="butt"/><path d="M22.7474,34.46909c0.48068,0.48068 0.30785,0.96135 0.14787,1.21991c0.40399,0.78908 0.27325,1.38172 0.98233,2.2289c1.11992,1.33804 2.23927,2.41008 3.2224,3.8875c0.51029,1.00119 1.3118,1.88863 1.57345,2.98148c0.14481,0.60485 0.15388,1.31242 -0.13996,1.86057c-0.20036,0.37377 -0.87027,0.22593 -1.14959,0.54504c-0.25787,0.2946 -0.07261,0.82529 -0.31736,1.13087c-1.46283,1.82644 -2.72199,1.91518 -4.81642,1.91075c-6.84738,-0.0145 -15.54186,-5.08449 -22.02094,-1.35145c-1.72324,1.01308 -4.11634,3.61943 -6.09485,4.05683c-1.8721,0.41388 -2.25413,-0.52131 -2.99313,-1.79119c-0.68372,-1.17488 -0.98796,-2.53309 -1.51127,-3.78766c-0.9772,-2.34269 -3.22136,-4.25176 -5.00379,-6.01084c-0.95454,-0.94204 -2.37068,-1.48379 -2.16589,-3.25606c0.12093,-1.0465 1.58554,-1.10061 2.05208,-1.82604c1.61971,-2.51853 1.23322,-3.41741 4.65719,-2.92827c4.32769,0.09282 8.82728,3.09187 13.27558,3.57262c6.05519,0.65442 12.09968,-1.5215 17.9943,-2.30745c0,0 0.4748,-0.06331 0.811,0.22632l0.0828,-0.36183c0,0 0.70711,-0.70711 1.41421,0zM21.08311,36.4572c-0.19753,0.10561 -0.37938,0.12986 -0.37938,0.12986c-6.07809,0.81041 -12.26833,2.98932 -18.5143,2.30858c-3.29178,-0.35877 -7.66848,-1.57799 -10.73565,-2.79142c-0.78892,-0.31211 -1.57798,-0.79431 -2.42604,-0.76983c-0.65439,-0.09348 -1.40957,-0.71166 -1.95425,-0.3371c-0.71954,0.49481 -0.44887,1.72386 -0.94207,2.44451c-0.38627,0.5644 -1.66989,0.42971 -1.72468,1.11144c-0.05629,0.70047 1.10871,0.86837 1.61086,1.35997c1.5769,1.54376 2.98521,3.05164 4.24325,4.66459c1.40794,1.80513 1.36919,4.78339 2.96843,6.34819c0.48106,0.4707 1.25464,-0.51768 1.80458,-0.90568c1.40437,-0.99083 2.70382,-1.9879 4.19066,-2.86702c6.36652,-3.62159 15.18516,0.01913 21.90201,1.09001c3.30933,0.52762 3.61795,-1.31428 5.75081,-2.71712c0.86351,-0.56795 -1.03729,-1.78928 -1.50399,-2.71146c-0.92026,-1.37755 -2.10744,-2.36398 -3.07218,-3.666c-0.83618,-1.12851 -0.45309,-1.92143 -1.21808,-2.69152z" fill="#000000" fill-rule="nonzero" stroke="none" stroke-width="0.5" stroke-linecap="butt"/><path d="M21.12911,36.43767c0.76499,0.77009 0.3846,1.57131 1.22078,2.69982c0.96474,1.30202 2.1532,2.2993 3.07346,3.67685c0.4667,0.92218 2.36714,2.14991 1.50363,2.71786c-2.13286,1.40284 -2.44383,3.25496 -5.75316,2.72734c-6.71685,-1.07088 -15.62486,-4.70083 -21.99138,-1.07924c-1.48684,0.87912 -2.70245,1.82169 -4.10682,2.81252c-0.54994,0.388 -1.40748,1.4307 -1.88854,0.96c-1.59924,-1.5648 -1.56803,-4.56471 -2.97597,-6.36984c-1.25804,-1.61295 -2.66603,-3.13365 -4.24293,-4.67741c-0.50215,-0.4916 -1.6667,-0.66198 -1.61041,-1.36245c0.05479,-0.68173 1.33925,-0.55047 1.72552,-1.11487c0.4932,-0.72065 0.22467,-1.95577 0.94421,-2.45058c0.54468,-0.37456 1.30036,0.24248 1.95475,0.33596c0.84806,-0.02448 1.63753,0.45684 2.42645,0.76895c3.06717,1.21343 7.45601,2.41666 10.74779,2.77543c6.24597,0.68074 12.51514,-1.48017 18.59323,-2.29058c0,0 0.18188,-0.02417 0.37941,-0.12978z" data-paper-data="{&quot;noHover&quot;:false,&quot;origItem&quot;:[&quot;Path&quot;,{&quot;applyMatrix&quot;:true,&quot;segments&quot;:[[[21.08311,36.4572],[0,0],[-0.19753,0.10561]],[[20.70372,36.58706],[0,0],[-6.07809,0.81041]],[[2.18943,38.89564],[6.24597,0.68074],[-3.29178,-0.35877]],[[-8.54623,36.10422],[3.06717,1.21343],[-0.78892,-0.31211]],[[-10.97226,35.33439],[0.84806,-0.02448],[-0.65439,-0.09348]],[[-12.92651,34.99729],[0.54468,-0.37456],[-0.71954,0.49481]],[[-13.86859,37.4418],[0.4932,-0.72065],[-0.38627,0.5644]],[[-15.59326,38.55324],[0.05479,-0.68173],[-0.05629,0.70047]],[[-13.9824,39.91321],[-0.50215,-0.4916],[1.5769,1.54376]],[[-9.73915,44.5778],[-1.25804,-1.61295],[1.40794,1.80513]],[[-6.77072,50.92599],[-1.59924,-1.5648],[0.48106,0.4707]],[[-4.96614,50.02031],[-0.54994,0.388],[1.40437,-0.99083]],[[-0.77549,47.15329],[-1.48684,0.87912],[6.36652,-3.62159]],[[21.12653,48.2433],[-6.71685,-1.07088],[3.30933,0.52762]],[[26.87734,45.52618],[-2.13286,1.40284],[0.86351,-0.56795]],[[25.37334,42.81472],[0.4667,0.92218],[-0.92026,-1.37755]],[[22.30116,39.14872],[0.96474,1.30202],[-0.83618,-1.12851]],[[21.08308,36.4572],[0.76499,0.77009],[0,0]]],&quot;closed&quot;:true,&quot;fillColor&quot;:[0,0,0,1]}]}" fill="#ffffff" fill-rule="nonzero" stroke="none" stroke-width="0.5" stroke-linecap="butt"/><path d="M62.77284,-2.3264c-1.60571,0.10339 -3.16738,0.22954 -4.8813,0.1029c-3.0531,-0.2256 -6.27991,-1.27731 -9.25661,-1.2562c-2.13379,0.01513 -5.54152,-1.48936 -5.51038,0.98908c0.5601,2.48639 1.28565,4.98915 2.1451,7.39095c0.2058,0.57511 0.81411,2.95796 1.45573,3.46453c0.871,0.68767 3.72123,-0.07288 4.90232,0.00507c5.48905,0.36224 10.64476,1.67724 16.21243,1.67703c0.51976,0 2.92638,0.43918 3.389,-0.47325c0.21301,-0.42012 -0.80621,-3.45168 -0.87606,-3.64748c-0.77824,-2.18141 -2.91178,-8.6143 -5.67332,-7.94205l-1.14764,0.00487c0,0 -0.46338,0 -0.75927,-0.31543zM66.35453,-3.83085c3.52327,1.31422 5.50319,7.9587 6.32426,11.04393c0.25585,0.96138 0.94855,2.15891 0.36151,3.20892c-1.19787,2.1426 -3.23589,1.62494 -5.20018,1.62494c-5.60862,-0.00021 -10.80225,-1.30818 -16.32303,-1.68009c-1.93564,-0.13039 -4.33377,0.81607 -6.0083,-0.41457c-0.9474,-0.69626 -0.99977,-1.54434 -1.37893,-2.5456c-1.19919,-3.16674 -2.26587,-6.36645 -2.99338,-9.67908c0.00833,-1.07386 -0.20894,-2.43919 0.85304,-3.2452c1.02464,-0.77767 4.31791,-0.04851 5.45737,0.0404c4.38013,0.34178 9.25927,1.89474 13.66973,1.47201c1.41399,-0.13552 2.78099,-0.42543 4.30386,-0.42543c0,0 0.71118,0 0.93404,0.59975z" fill="#000000" fill-rule="nonzero" stroke="none" stroke-width="0.5" stroke-linecap="butt"/><path d="M62.80864,-2.36129c0.29589,0.31543 0.76235,0.3189 0.76235,0.3189l1.15,-0.0017c2.76154,-0.67225 4.90274,5.79935 5.68098,7.98076c0.06985,0.1958 1.0856,3.23782 0.87259,3.65794c-0.46262,0.91243 -2.87276,0.47963 -3.39252,0.47963c-5.56767,0.00021 -10.80164,-1.30774 -16.29069,-1.66998c-1.18109,-0.07795 -4.03966,0.67069 -4.91066,-0.01698c-0.64162,-0.50657 -1.25468,-2.90443 -1.46048,-3.47954c-0.85945,-2.4018 -1.582,-4.93047 -2.1421,-7.41686c-0.03114,-2.47844 3.38344,-0.98596 5.51723,-1.00109c2.9767,-0.02111 6.24961,1.01155 9.30271,1.23715c1.71392,0.12664 3.30489,0.01516 4.9106,-0.08823z" data-paper-data="{&quot;noHover&quot;:false,&quot;origItem&quot;:[&quot;Path&quot;,{&quot;applyMatrix&quot;:true,&quot;segments&quot;:[[[62.77284,-2.3264],[0,0],[-1.60571,0.10339]],[[57.89154,-2.2235],[1.71392,0.12664],[-3.0531,-0.2256]],[[48.63493,-3.4797],[2.9767,-0.02111],[-2.13379,0.01513]],[[43.12455,-2.49062],[-0.03114,-2.47844],[0.5601,2.48639]],[[45.26965,4.90033],[-0.85945,-2.4018],[0.2058,0.57511]],[[46.72538,8.36486],[-0.64162,-0.50657],[0.871,0.68767]],[[51.6277,8.36993],[-1.18109,-0.07795],[5.48905,0.36224]],[[67.84014,10.04696],[-5.56767,0.00021],[0.51976,0]],[[71.22913,9.57371],[-0.46262,0.91243],[0.21301,-0.42012]],[[70.35307,5.92623],[0.06985,0.1958],[-0.77824,-2.18141]],[[64.67976,-2.01582],[2.76154,-0.67225],[0,0]],[63.53211,-2.01095],[[62.77284,-2.32638],[0.29589,0.31543],[0,0]]],&quot;closed&quot;:true,&quot;fillColor&quot;:[0,0,0,1]}]}" fill="#ffffff" fill-rule="nonzero" stroke="none" stroke-width="0.5" stroke-linecap="butt"/></g></g></svg>