<svg version="1.1" xmlns="http://www.w3.org/2000/svg" xmlns:xlink="http://www.w3.org/1999/xlink" width="1733.09309" height="836.33634" viewBox="0,0,1733.09309,836.33634"><g transform="translate(546.54655,238.16817)"><g data-paper-data="{&quot;isPaintingLayer&quot;:true}" stroke-linejoin="miter" stroke-miterlimit="10" stroke-dasharray="" stroke-dashoffset="0" style="mix-blend-mode: normal"><path d="M-546.54655,598.16817v-836.33634h1733.09309v836.33634z" fill="none" fill-rule="nonzero" stroke="#f00000" stroke-width="0" stroke-linecap="butt"/><path d="M164.31223,322.94222l33.51062,-26.20201l93.63269,-0.23395l-19.71212,26.43595z" fill="#cedce9" fill-rule="nonzero" stroke="#000000" stroke-width="0" stroke-linecap="round"/><path d="M155.40589,321.56833c-3.23389,-0.36981 -10.93005,-0.94626 -7.55727,-1.54218c-1.844,0.19096 -4.30412,0.42411 -5.61315,0.48683c-6.20127,0.29713 -14.23792,0 -20.63695,0c-17.55532,0 -34.59883,-0.15772 -51.59221,0.58996c-7.67977,0.33789 -9.79093,-0.70555 -12.14916,0.75443c-4.86436,2.44969 -14.01637,4.63565 -19.89547,7.10174c-7.9681,3.34232 -11.05811,6.56903 -15.94283,9.92039c-5.52757,2.75992 -1.025,8.05892 -1.025,11.13083c0,0.82229 1.55061,2.286 0.06965,2.89127c1.47223,0.03058 2.89418,0.05848 3.79981,0.05848c6.01912,0 12.03817,0 18.05732,0c23.94306,0 51.76182,-0.11974 75.00121,-1.44842c27.59276,-1.41743 57.49806,0.61518 85.31277,-0.65703c15.23203,-0.63807 31.83586,-0.25878 47.34465,-0.25428c7.86761,0.00228 14.60498,-0.68112 18.05729,0.58995c0.90739,0.33409 0,-0.78659 0,-1.17988c0,-0.98322 0,-1.96652 0,-2.94974c0,-5.50617 0,-11.01233 0,-16.5185c0,-1.3017 -1.49199,-5.95868 1.5946,-6.46262c-0.57897,-0.00791 -1.23426,-0.02077 -1.5946,-0.0268c-3.19203,-0.05326 -4.97543,-0.01302 -7.46653,-0.41952c-4.32469,-0.70571 -18.91496,-0.17042 -24.77861,-0.17042c-22.78658,0 -45.57311,0 -68.3597,0c0,0 -5.15921,0 -5.15921,-1.17988c0,-0.04844 0.00864,-0.09486 0.02534,-0.13939c-2.46639,-0.11956 -4.9577,-0.28536 -7.49184,-0.57513zM236.39149,321.103c13.75515,0 31.33537,-0.56015 40.72895,1.83212c5.3829,1.37085 1.83453,5.76613 1.83453,7.60704c0,5.50617 0,11.01232 0,16.51849c0,0.62876 1.77701,3.74776 0,4.12963c-17.94876,3.85692 -51.77923,0.84931 -73.69667,1.97832c-27.19829,1.24402 -58.52042,-1.12657 -84.83379,0.6324c-23.95197,1.36944 -52.80767,1.5189 -77.50383,1.5189c-3.54239,0 -24.78633,0.61354 -27.08588,0c-6.59428,-1.75943 -5.15921,-3.22712 -5.15921,-5.30953c0,-3.76661 -2.9196,-8.25642 1.55455,-11.87708c5.00655,-3.43492 8.51759,-6.87999 16.50277,-10.22948c3.22112,-1.35111 6.70037,-3.15843 10.86308,-4.37875c2.72386,-0.7985 7.93168,-1.44729 8.58236,-2.48531c4.41379,-2.7326 12.39022,-1.83725 21.82839,-2.29652c16.80111,-0.81757 34.18712,-0.58996 51.59221,-0.58996c6.41889,0 18.96058,-0.67558 23.48881,-0.46538c7.88258,0.36595 12.45236,1.90331 20.09224,2.35979c5.60602,0.33496 11.51373,0.13667 18.05732,0.88492c0.49676,0.05683 0.99342,0.11361 1.49024,0.17042c17.22133,0 34.44276,0 51.66413,0z" fill="#000000" fill-rule="nonzero" stroke="none" stroke-width="0" stroke-linecap="butt"/><path d="M162.96956,322.08685c-0.01671,0.04452 -0.02475,0.09098 -0.02475,0.13942c0,1.17989 5.18455,1.1819 5.18455,1.1819c22.78654,0 45.69452,0.02346 68.48118,0.02346c5.86362,0 20.46717,-0.52978 24.79186,0.1759c2.49105,0.40651 4.27852,0.36825 7.47043,0.42149c0.3603,0.00602 1.01613,0.01917 1.5952,0.02709c-3.08662,0.50394 -1.57896,5.17222 -1.57896,6.47392c0,5.50617 -0.01076,11.0451 -0.01076,16.55127c0,0.98325 -0.0088,1.97128 -0.0088,2.9545c0,0.39329 0.9035,1.51575 -0.0039,1.18167c-3.45229,-1.27106 -10.19581,-0.58514 -18.06335,-0.58741c-15.5088,-0.00449 -32.1596,-0.37033 -47.39158,0.26777c-27.81475,1.27222 -57.99335,-0.74894 -85.58613,0.66848c-23.23939,1.32869 -51.17108,1.42788 -75.11432,1.42788c-6.01914,0 -12.04873,-0.00371 -18.06785,-0.00371c-0.90571,0 -2.3296,-0.02864 -3.80175,-0.05922c1.48098,-0.60528 -0.07924,-2.07314 -0.07924,-2.89544c0,-3.0719 -4.52684,-8.39132 1.00085,-11.15126c4.88478,-3.35137 7.98535,-6.60048 15.95345,-9.94279c5.87919,-2.46611 15.06982,-4.66964 19.93423,-7.1193c2.35822,-1.45998 4.4854,-0.42102 12.16514,-0.75891c16.99333,-0.74765 34.14754,-0.60647 51.70273,-0.60647c6.39893,0 14.50751,0.29417 20.70878,-0.00295c1.3089,-0.06273 3.78955,-0.29586 5.63354,-0.48682c-3.37287,0.5959 4.35383,1.17308 7.58778,1.54286c2.53424,0.28977 5.05561,0.45714 7.52193,0.5767z" fill="#484848" fill-rule="nonzero" stroke="none" stroke-width="0" stroke-linecap="butt"/><path d="M90.64347,326.41255c0,0.39875 1.77858,0.88204 0.8921,1.19778c2.26744,0.05337 4.54827,0.16994 6.57435,0.40163c7.81194,0.8933 23.70353,4.14835 25.20199,6.30031c0.12184,0.17503 -2.0872,0.20428 -1.71311,0.35951c1.24483,0.51651 11.38938,-0.3811 12.55632,-0.23443c0.26405,0.03318 0.39375,0.08489 0.44572,0.14784c-0.05432,-0.19549 -0.10404,-0.38446 -0.10404,-0.50337c0,-0.41795 0.07221,-0.86834 -0.74507,-1.24217c-6.94709,-3.29491 -18.29746,-6.42715 -37.94899,-6.42715c0,0 -2.31904,-0.00001 -3.84764,-0.35557c-0.50973,-0.06622 -0.90615,-0.14412 -1.17189,-0.23545c-0.0683,0.22509 -0.13978,0.45421 -0.13978,0.59104zM134.49678,335.26169c0.3521,0.24157 0.24826,-0.1594 0.13126,-0.57887c-0.02449,0.18204 -0.37195,0.41379 -0.13126,0.57887zM142.98057,331.78433c6.41519,2.93422 -8.15102,7.2214 -21.38194,5.24723c-12.48347,-1.86267 -16.71065,-5.60622 -28.10334,-6.90894c-3.84882,-0.44012 -8.46069,-0.68038 -11.33588,-1.41259c-4.55627,-1.16038 -2.53653,-5.12267 6.17661,-5.12267c6.27407,0 9.3643,0.46538 15.20535,0.46538h2.5796c0,0 2.96127,0.00002 4.39682,0.51307c15.2825,1.14088 25.08922,4.0395 32.46283,7.21849z" fill="#000000" fill-rule="nonzero" stroke="none" stroke-width="0" stroke-linecap="butt"/><path d="M90.59181,325.78196c0.26562,0.09135 0.6622,0.16919 1.17199,0.23543c1.52857,0.35557 3.85813,0.35303 3.85813,0.35303c19.6515,0 31.41162,3.20151 38.35865,6.49643c0.81726,0.37381 0.72256,0.83243 0.72256,1.25035c0,0.11891 0.0402,0.31061 0.09452,0.5061c-0.05186,-0.06298 -0.18035,-0.11497 -0.44453,-0.14819c-1.16692,-0.14666 -11.39939,0.76647 -12.64422,0.24997c-0.37414,-0.15523 1.5899,-0.28809 1.46794,-0.46316c-1.49841,-2.15197 -17.46667,-5.39049 -25.27871,-6.28377c-2.02616,-0.23169 -4.32006,-0.34346 -6.58752,-0.39684c0.8865,-0.31576 -0.87094,-0.80631 -0.87094,-1.20506c0,-0.13683 0.08337,-0.36922 0.15184,-0.5943z" fill="#ffffff" fill-rule="nonzero" stroke="none" stroke-width="0" stroke-linecap="butt"/><path d="M367.45187,315.94222l-19.71212,-26.43596l93.63269,0.23395l33.51063,26.20201z" data-paper-data="{&quot;index&quot;:null}" fill="#cedce9" fill-rule="nonzero" stroke="#000000" stroke-width="0" stroke-linecap="round"/><path d="M483.78923,314.56843c-2.53413,0.28978 -5.02545,0.45558 -7.49183,0.57513c0.01671,0.04453 0.02535,0.09095 0.02535,0.13939c0,1.17987 -5.15921,1.17987 -5.15921,1.17987c-22.78659,0 -45.57312,0 -68.35969,0c-5.86365,0 -20.45392,-0.53529 -24.77862,0.17041c-2.4911,0.4065 -4.2745,0.36626 -7.46652,0.41953c-0.36034,0.00603 -1.01563,0.01889 -1.5946,0.02679c3.08659,0.50394 1.5946,5.16093 1.5946,6.46263c0,5.50617 0,11.01233 0,16.5185c0,0.98321 0,1.96652 0,2.94974c0,0.39329 -0.90739,1.51397 0,1.17987c3.45231,-1.27107 10.18967,-0.58767 18.05729,-0.58995c15.50879,-0.0045 32.11262,-0.38379 47.34465,0.25428c27.81472,1.27222 57.72001,-0.7604 85.31277,0.65703c23.23938,1.32867 51.05815,1.44842 75.00121,1.44842c6.01915,0 12.03819,0 18.05732,0c0.90563,0 2.32758,-0.0279 3.79981,-0.05848c-1.48096,-0.60526 0.06965,-2.06898 0.06965,-2.89127c0,-3.07191 4.50257,-8.37092 -1.02501,-11.13083c-4.88473,-3.35136 -7.97473,-6.57808 -15.94283,-9.92039c-5.8791,-2.46609 -15.03111,-4.65206 -19.89548,-7.10174c-2.35823,-1.45999 -4.46939,-0.41654 -12.14915,-0.75443c-16.99338,-0.74768 -34.0369,-0.58996 -51.59222,-0.58996c-6.39904,0 -14.43568,0.29714 -20.63695,0c-1.30903,-0.06272 -3.76915,-0.29586 -5.61315,-0.48683c3.37279,0.59591 -4.32338,1.17237 -7.55727,1.54218zM402.80355,314.10302c17.22136,0 34.4428,0 51.66413,0c0.49682,-0.0568 0.99348,-0.11359 1.49024,-0.17042c6.5436,-0.74824 12.45131,-0.54995 18.05732,-0.88492c7.63988,-0.45648 12.20966,-1.99384 20.09225,-2.35978c4.52823,-0.2102 17.06992,0.46538 23.48881,0.46538c17.4051,0 34.7911,-0.22762 51.59221,0.58995c9.43817,0.45927 17.4146,-0.43608 21.82839,2.29651c0.65069,1.03801 5.85851,1.68681 8.58236,2.48531c4.16271,1.22032 7.64196,3.02763 10.86308,4.37875c7.98518,3.34948 11.49622,6.79456 16.50277,10.22948c4.47415,3.62067 1.55455,8.11047 1.55455,11.87708c0,2.08241 1.43507,3.55009 -5.1592,5.30953c-2.29956,0.61354 -23.5435,0 -27.08589,0c-24.69616,0 -53.55186,-0.14946 -77.50383,-1.5189c-26.31336,-1.75896 -57.63549,0.61162 -84.83378,-0.6324c-21.91744,-1.12901 -55.7479,1.8786 -73.69666,-1.97832c-1.77701,-0.38187 0,-3.50088 0,-4.12964c0,-5.50617 0,-11.01232 0,-16.51848c0,-1.84091 -3.54837,-6.23619 1.83453,-7.60704c9.39358,-2.39227 26.9738,-1.83211 40.72896,-1.83211z" data-paper-data="{&quot;index&quot;:null}" fill="#000000" fill-rule="nonzero" stroke="none" stroke-width="0" stroke-linecap="butt"/><path d="M476.22547,315.08687c2.46632,-0.11955 4.98769,-0.28694 7.52193,-0.5767c3.23394,-0.36978 10.96065,-0.94696 7.58778,-1.54286c1.84399,0.19096 4.32464,0.42409 5.63354,0.48682c6.20128,0.29712 14.30986,0.00295 20.70879,0.00295c17.55519,0 34.70941,-0.14117 51.70274,0.60648c7.67974,0.33788 9.80691,-0.70107 12.16514,0.7589c4.86441,2.44966 14.05504,4.65319 19.93423,7.1193c7.9681,3.34231 11.06867,6.59143 15.95345,9.94279c5.52769,2.75993 1.00085,8.07935 1.00085,11.15125c0,0.8223 -1.56022,2.29016 -0.07924,2.89544c-1.47215,0.03058 -2.89604,0.05923 -3.80175,0.05923c-6.01912,0 -12.04871,0.00371 -18.06785,0.00371c-23.94324,0 -51.87493,-0.09918 -75.11432,-1.42788c-27.59278,-1.41742 -57.77139,0.60374 -85.58613,-0.66848c-15.23199,-0.6381 -31.88278,-0.27227 -47.39158,-0.26777c-7.86754,0.00227 -14.61106,-0.68364 -18.06335,0.58742c-0.9074,0.33408 -0.0039,-0.78838 -0.0039,-1.18167c0,-0.98321 -0.0088,-1.97125 -0.0088,-2.9545c0,-5.50617 -0.01076,-11.0451 -0.01076,-16.55127c0,-1.30169 1.50765,-5.96999 -1.57897,-6.47392c0.57907,-0.00793 1.23491,-0.02107 1.5952,-0.02709c3.19191,-0.05325 4.97939,-0.01498 7.47044,-0.42149c4.32468,-0.70568 18.92824,-0.1759 24.79186,-0.1759c22.78667,0 45.69464,-0.02346 68.48118,-0.02346c0,0 5.18455,-0.00201 5.18455,-1.1819c0,-0.04844 -0.00804,-0.09489 -0.02475,-0.13941z" data-paper-data="{&quot;index&quot;:null}" fill="#484848" fill-rule="nonzero" stroke="none" stroke-width="0" stroke-linecap="butt"/><path d="M548.5518,319.41253c0,-0.13682 -0.07147,-0.36595 -0.13978,-0.59104c-0.26574,0.09133 -0.66216,0.16924 -1.17189,0.23546c-1.5286,0.35557 -3.84764,0.35557 -3.84764,0.35557c-19.65152,0 -31.0019,3.13224 -37.94899,6.42715c-0.81729,0.37383 -0.74507,0.82422 -0.74507,1.24217c0,0.11891 -0.04972,0.30789 -0.10404,0.50338c0.05197,-0.06295 0.18168,-0.11466 0.44572,-0.14783c1.16694,-0.14667 11.31149,0.75093 12.55632,0.23442c0.37409,-0.15524 -1.83495,-0.18448 -1.71311,-0.35951c1.49847,-2.15197 17.39006,-5.40701 25.202,-6.30032c2.02609,-0.23169 4.30692,-0.34826 6.57436,-0.40163c-0.88648,-0.31574 0.89209,-0.79903 0.89209,-1.19779zM504.56721,327.68282c-0.117,0.41947 -0.22084,0.82044 0.13126,0.57887c0.24069,-0.16507 -0.10677,-0.39683 -0.13126,-0.57887zM496.21458,324.78431c7.37361,-3.17899 17.18033,-6.07762 32.46283,-7.2185c1.43555,-0.51306 4.39681,-0.51308 4.39681,-0.51308h2.57961c5.84105,0 8.93128,-0.46537 15.20535,-0.46537c8.71315,0 10.73289,3.9623 6.17662,5.12268c-2.87519,0.73221 -7.48707,0.97246 -11.33588,1.41258c-11.39268,1.30271 -15.61987,5.04627 -28.10334,6.90894c-13.23092,1.97417 -27.79713,-2.31302 -21.38194,-5.24723z" data-paper-data="{&quot;index&quot;:null}" fill="#000000" fill-rule="nonzero" stroke="none" stroke-width="0" stroke-linecap="butt"/><path d="M548.60376,318.78192c0.06847,0.22508 0.15184,0.45748 0.15184,0.59431c0,0.39875 -1.75744,0.8893 -0.87094,1.20506c-2.26746,0.05338 -4.56135,0.16515 -6.58751,0.39684c-7.81203,0.89328 -23.7803,4.1318 -25.27871,6.28377c-0.12196,0.17507 1.84208,0.30792 1.46794,0.46315c-1.24482,0.5165 -11.4773,-0.39663 -12.64422,-0.24996c-0.26417,0.03322 -0.39267,0.08522 -0.44453,0.14819c0.05432,-0.19549 0.09452,-0.38719 0.09452,-0.5061c0,-0.41793 -0.0947,-0.87654 0.72256,-1.25035c6.94703,-3.29492 18.70715,-6.49643 38.35865,-6.49643c0,0 2.32956,0.00254 3.85813,-0.35303c0.50979,-0.06624 0.90637,-0.14408 1.172,-0.23543z" data-paper-data="{&quot;index&quot;:null}" fill="#ffffff" fill-rule="nonzero" stroke="none" stroke-width="0" stroke-linecap="butt"/><g stroke="none" stroke-linecap="butt"><path d="M396.01124,-5.4259c0.49705,-0.09085 0.99409,-0.1817 1.49114,-0.27254c16.10507,10.76623 32.26437,21.4245 48.4774,31.97488c4.07399,1.80257 7.77036,4.20888 11.07917,7.22074c0.52732,0.07481 1.05467,0.14969 1.582,0.2245c2.61889,2.2442 5.39435,4.30518 8.3214,6.18384c0.72168,0.21071 1.44822,0.42 2.16989,0.6307c3.30881,3.01187 7.00519,5.41816 11.07918,7.22074c34.32356,22.77045 68.91608,45.2981 103.78243,67.58154c0.09085,0.49705 0.1817,0.99409 0.27254,1.49114c-1.38692,2.13552 -2.98772,4.14062 -4.80756,6.01523c-1.7651,-0.49564 -3.43794,-1.21718 -5.01852,-2.16465c8.90885,47.16816 17.95695,94.31138 27.13438,141.43146c-98.20215,18.0589 -196.36956,36.00153 -294.50075,53.82762c-5.39536,0.98665 -10.55377,2.2721 -15.47531,3.85581c-0.49705,0.09085 -0.9941,0.1817 -1.49115,0.27255c-0.83589,-4.07869 -1.59293,-8.22058 -2.27121,-12.42619c-96.36547,17.96256 -192.73212,35.91867 -289.10005,53.8678c-1.98505,-11.88523 -3.81886,-23.79194 -5.50156,-35.72061c-0.32267,-1.04846 -0.83574,-1.98198 -1.53918,-2.80059c0.13947,-2.78072 -0.02882,-5.57505 -0.50491,-8.38298c-3.15117,-20.31224 -6.34864,-40.61652 -9.59235,-60.91236c-3.79495,0.86365 -7.63603,1.39415 -11.52295,1.59247c-1.0672,-1.97513 -2.25901,-3.81191 -3.57542,-5.51033c-0.1211,-0.66256 -0.24229,-1.32563 -0.36339,-1.98819c38.43834,-7.0256 76.87688,-14.05124 115.31506,-21.07681c-5.36005,-29.32581 -10.7201,-58.65163 -16.08015,-87.97744c-0.50935,0.16963 -1.02149,0.17797 -1.53657,0.02402c-6.00589,-2.8651 -12.00442,-5.70689 -17.99503,-8.52495c-0.56059,-0.59405 -0.86288,-1.30928 -0.90586,-2.14587c84.13632,-15.54913 168.27305,-31.09886 252.40937,-46.64798c0.44996,1.66932 1.08429,3.26538 1.90257,4.78878c12.13187,-1.98729 24.18112,-4.44643 36.14821,-7.3775c19.97004,-28.38246 40.17611,-56.47413 60.61718,-84.27484z" fill="#000000" fill-rule="evenodd" stroke-width="1"/><path d="M396.8717,-3.52858c19.96989,12.56538 39.7918,25.46493 59.46572,38.69858c18.38881,11.69104 36.65641,23.59018 54.80798,35.6975c0.72168,0.21071 1.44822,0.42 2.16989,0.6307c2.61889,2.2442 5.39435,4.30518 8.3214,6.18384c0.5273,0.07467 1.0547,0.14984 1.582,0.2245c10.41828,7.34256 20.97006,14.48814 31.65553,21.43772c4.07399,1.80257 7.77037,4.20888 11.07918,7.22074c3.47361,1.38427 6.57712,3.38529 9.31549,6.00214c2.51087,0.8663 4.80186,2.15956 6.87305,3.8803c-0.93638,1.50921 -1.95187,2.97896 -3.04649,4.40921c-0.83662,-0.86771 -1.85224,-1.28152 -3.05173,-1.24c-0.94244,-0.94083 -1.88479,-1.88117 -2.82723,-2.82199c-4.86058,-3.01485 -9.76685,-5.97049 -14.7188,-8.86694c-2.5269,-2.47162 -5.43614,-4.33709 -8.72759,-5.59595c-9.43003,-6.51644 -19.1088,-12.62322 -29.03141,-18.32178c-25.9264,-16.64976 -51.90993,-33.30297 -77.96043,-49.95729c-2.78442,-1.48616 -5.49731,-3.21611 -8.1397,-5.18975c-0.52732,-0.07481 -1.05466,-0.14969 -1.58199,-0.2245c-4.55223,-3.51136 -9.25539,-6.76095 -14.1095,-9.74878c-7.08888,-4.39508 -14.20366,-8.65928 -21.34333,-12.79266c-0.31639,0.14346 -0.63229,0.28676 -0.94868,0.43022c-25.25223,36.54757 -50.50398,73.09486 -75.75618,109.6426c-0.21044,0.72316 -0.08924,1.38623 0.36339,1.98819c3.79216,1.89621 7.15402,4.36367 10.08508,7.40244c8.88217,5.41308 17.33932,11.40106 25.37037,17.96362c5.01805,3.03333 9.88674,6.25267 14.60655,9.65793c1.04053,1.00816 2.08064,2.01692 3.12118,3.02509c5.65285,3.76071 11.30528,7.52202 16.95814,11.28273c0.25637,0.46679 0.51324,0.9335 0.76959,1.4003c5.75409,4.01393 11.60279,7.91042 17.54603,11.68894c0.84426,0.87299 1.68902,1.7459 2.53328,2.61889c3.3081,1.7068 6.34576,3.80564 9.11239,6.29609c-2.06195,2.35701 -3.92011,4.83701 -5.57454,7.43955c-30.90879,-23.09358 -62.11381,-45.81252 -93.61435,-68.15589c-2.01353,-2.54901 -4.56097,-4.30956 -7.64265,-5.28059c-15.41974,22.31712 -30.85531,44.65717 -46.30672,67.02013c-1.21548,2.30348 -1.37164,4.72873 -0.46779,7.27664c-98.77803,18.81445 -197.5845,37.47332 -296.41949,55.97611c-0.96553,-1.53552 -1.93115,-3.07156 -2.89668,-4.60708c97.17939,-18.19146 194.38978,-36.216 291.63071,-54.07352c-0.77983,-1.91156 -1.39175,-3.85433 -1.83575,-5.8283c24.01463,-33.58942 48.09426,-67.183 72.23928,-100.78135c0.42732,-0.3262 0.9093,-0.49956 1.44572,-0.52107c-0.26312,-1.611 0.39893,-2.67353 1.98557,-3.188c3.23715,-5.15907 6.59166,-10.22402 10.06414,-15.19445c0.73774,-0.64849 1.47496,-1.29689 2.21269,-1.94538c3.03333,-5.01805 6.25267,-9.88674 9.65793,-14.60655c1.00819,-1.04037 2.0169,-2.0808 3.02509,-3.12118c2.76241,-4.62578 5.71076,-9.10269 8.84554,-13.43076c1.14393,-1.23638 2.28736,-2.47269 3.43129,-3.70907c8.68708,-12.04951 17.26269,-24.1468 25.72683,-36.29188z" fill="#524950" fill-rule="evenodd" stroke-width="1"/><path d="M397.47008,8.17607c9.04295,5.30357 17.95121,10.9521 26.72525,16.9455c0.52732,0.07481 1.05466,0.14969 1.58199,0.22451c2.52893,2.47144 5.43813,4.33678 8.72759,5.59595c7.56403,4.79426 14.98213,9.77369 22.24921,14.93853c2.9163,1.39831 5.76493,2.93226 8.5459,4.60184c7.26707,5.16484 14.68519,10.14438 22.2492,14.93853c3.29145,1.25884 6.20068,3.12433 8.72759,5.59595c0.5273,0.07467 1.05469,0.14984 1.58199,0.2245c8.6779,5.99849 17.56951,11.56446 26.67982,16.69698c6.63089,4.43821 13.26673,8.87552 19.89761,13.31374c5.10321,2.65614 9.94006,5.70974 14.5157,9.16088c0.72168,0.21071 1.44822,0.42 2.16989,0.6307c3.38438,2.91945 7.01133,5.42373 10.87608,7.51469c9.42645,47.41461 18.69919,94.85939 27.81312,142.33472c-73.89608,13.50642 -147.78867,27.0122 -221.68326,40.51834c-7.60748,-35.94798 -15.08999,-71.73489 -22.44784,-107.35969c-0.49866,-1.79242 -0.99773,-3.58424 -1.49638,-5.37668c-2.90087,-2.35086 -5.59966,-4.9395 -8.0969,-7.76583c-2.88552,-0.72694 -5.57588,-1.86142 -8.07025,-3.40465c-1.08494,-0.31535 -2.16989,-0.6307 -3.25483,-0.94605c-4.97177,0.38993 -9.93491,0.86919 -14.89003,1.4374c-1.3105,0.22104 -2.5077,0.69668 -3.59158,1.42694c-2.24281,2.60682 -4.72645,4.94434 -7.45048,7.01194c-1.67942,4.57643 -3.70156,8.96947 -6.06635,13.17961c6.40784,37.35172 12.97294,74.67572 19.69529,111.972c-10.438,1.90781 -20.876,3.81563 -31.314,5.72344c-7.4769,-41.29532 -14.93431,-82.56545 -22.3727,-123.81029c15.76832,-22.40242 31.1433,-45.07398 46.12502,-68.01423c33.5959,24.22713 67.08457,48.66854 100.46601,73.32422c0.72316,0.21044 1.38623,0.08924 1.98819,-0.36339c1.63213,-2.7808 3.46003,-5.42632 5.48369,-7.9366c4.56125,23.14002 9.21492,46.26006 13.96139,69.35956c35.12487,-6.41998 70.24775,-12.83959 105.3741,-19.25984c-5.77318,-35.23949 -12.19306,-70.36386 -19.25984,-105.3741c-9.12973,-1.69779 -18.20039,-3.55019 -27.21182,-5.55621c-5.92472,0.2965 -11.84638,0.69414 -17.76007,1.1915c-15.53212,3.40442 -30.86433,7.57669 -45.9957,12.51612c-4.9784,4.43976 -10.10396,8.71531 -15.37661,12.82669c1.677,10.65894 3.61506,21.26246 5.81429,31.81105c-32.97016,-23.85558 -66.0066,-47.69445 -99.10851,-71.51773c24.51446,-35.89924 49.22479,-71.66271 74.13139,-107.29102c0.17663,-0.3376 0.19907,-0.68415 0.06683,-1.03952z" fill="#3b3d50" fill-rule="evenodd" stroke-width="1"/><path d="M401.80892,57.20733c7.4846,-2.24172 14.98634,-2.414 22.50603,-0.51799c2.39744,9.30888 4.45509,18.69218 6.17246,28.15002c-10.93505,1.99866 -21.8701,3.99733 -32.80515,5.99599c-1.77914,-9.26471 -3.39191,-18.55778 -4.83897,-27.8801c1.18801,-1.22287 2.43011,-2.39143 3.72524,-3.50597c1.93141,-0.47732 3.67841,-1.2245 5.2404,-2.24195z" fill="#000000" fill-rule="evenodd" stroke-width="1"/><path d="M403.57261,58.42593c6.53669,-1.9 13.04475,-1.89115 19.52375,0.0271c2.16761,8.32409 4.04357,16.7133 5.62736,25.16774c-9.94096,1.81697 -19.8819,3.63393 -29.82286,5.4509c-1.71112,-8.42602 -3.08953,-16.90617 -4.13622,-25.44028c1.02334,-0.95752 2.04718,-1.91513 3.07051,-2.87265c2.07507,-0.55135 3.98758,-1.32878 5.73745,-2.3328z" fill="#587cac" fill-rule="evenodd" stroke-width="1"/><path d="M172.45064,106.31962c41.22619,-7.7062 82.5114,-15.08109 123.85571,-22.12418c0.72651,1.38095 1.33008,2.81157 1.81174,4.29173c11.87015,-2.52554 23.75388,-4.95442 35.65116,-7.28665c-1.75846,1.49664 -3.14257,3.29058 -4.15284,5.38192c-11.69143,2.56478 -23.46973,4.63179 -35.3358,6.20171c-0.54349,-1.09901 -1.08655,-2.19862 -1.63004,-3.29763c-9.72269,1.60602 -19.44545,3.21155 -29.16814,4.81758c-66.44616,12.57005 -132.90695,25.06008 -199.38295,37.46969c0.46776,1.6599 0.60513,3.34731 0.41144,5.06133c-4.80318,-2.9565 -9.86713,-5.36968 -15.19183,-7.23953c41.15727,-7.60833 82.20129,-15.36702 123.13155,-23.27595z" fill="#524950" fill-rule="evenodd" stroke-width="1"/><path d="M235.67176,100.92815c18.52901,-3.5577 37.11605,-6.78392 55.76019,-9.67797c0.72395,1.20112 1.29767,2.46565 1.72088,3.79468c11.58393,-2.20304 23.19672,-4.2398 34.83877,-6.11086c-20.22799,28.85692 -40.85541,57.45348 -61.8812,85.79001c-58.07198,11.97482 -116.22556,23.54541 -174.46112,34.71237c-3.76636,0.68429 -7.52447,1.20013 -11.27442,1.54704c-4.97254,-25.80056 -9.77967,-51.63187 -14.42086,-77.49402c56.83107,-10.38941 113.40366,-21.24315 169.71776,-32.56126z" fill="#6f6a69" fill-rule="evenodd" stroke-width="1"/><path d="M241.45991,104.49309c1.16375,-0.23429 1.93233,0.22467 2.30616,1.37627c3.15371,20.03954 6.6368,40.03479 10.45017,59.98509c-45.00477,8.57097 -90.00959,17.13885 -135.01527,25.70483c-3.63393,-19.88191 -7.26786,-39.76381 -10.9018,-59.64572c38.9961,-7.71927 77.99091,-15.44551 116.98528,-23.17987c5.66936,-0.9602 11.0612,-2.37357 16.17546,-4.24061z" fill="#000000" fill-rule="evenodd" stroke-width="1"/><path d="M227.00267,109.70379c4.97048,-0.90848 9.94096,-1.81697 14.91143,-2.72545c3.51283,19.21935 7.02557,38.43819 10.5384,57.65754c-6.95867,1.27188 -13.91733,2.54375 -20.876,3.81563c-3.30007,-19.08667 -6.61655,-38.17035 -9.95051,-57.25133c1.95268,-0.19511 3.74511,-0.69377 5.37667,-1.49639z" fill="#524950" fill-rule="evenodd" stroke-width="1"/><path d="M193.29428,116.37852c8.94685,-1.63527 17.89372,-3.27054 26.84058,-4.90581c3.31101,19.08467 6.62806,38.16875 9.95051,57.25133c-28.93695,5.61875 -57.87073,11.24922 -86.80165,16.89255c-3.45224,-18.88781 -6.90447,-37.77563 -10.35671,-56.66344c20.24543,-3.99726 40.36802,-8.18884 60.36727,-12.57463z" fill="#587cac" fill-rule="evenodd" stroke-width="1"/><path d="M126.46542,130.13418c1.65666,-0.3028 3.31382,-0.60569 4.97048,-0.90848c3.45224,18.88781 6.90447,37.77563 10.35671,56.66344c-7.12418,1.30213 -14.24887,2.60435 -21.37305,3.90648c-3.42198,-18.7223 -6.84387,-37.44409 -10.26586,-56.16639c5.5863,-0.85255 11.02357,-2.01741 16.31173,-3.49504z" fill="#524950" fill-rule="evenodd" stroke-width="1"/><path d="M472.69794,133.11242c7.40578,-0.82094 14.82877,-1.40721 22.27891,-1.76061c7.53824,1.95528 15.18065,3.4688 22.91747,4.54334c1.49783,0.21369 2.87672,0.73215 4.13667,1.55535c6.60658,33.89755 12.73497,67.87685 18.37538,101.94021c-34.13227,6.23855 -68.26105,12.47647 -102.39183,18.71475c-5.6745,-29.69724 -11.44174,-59.3765 -17.30136,-89.03836c-0.57644,-4.08964 -1.15229,-8.17888 -1.72874,-12.26852c4.88961,-4.47592 10.03024,-8.66897 15.42203,-12.57818c12.79798,-3.85393 25.56004,-7.55592 38.29146,-11.10797z" fill="#587cac" fill-rule="evenodd" stroke-width="1"/><path d="M243.65505,181.13976c6.94549,-1.35524 13.91933,-2.54412 20.92143,-3.56711c-3.35638,3.60189 -6.3282,7.48381 -8.91498,11.64566c0.18256,1.82503 0.89998,3.40642 2.15111,4.74336c-58.33939,10.56236 -116.62924,21.38737 -174.86994,32.47565c-0.81764,-4.47343 -1.63527,-8.94686 -2.4529,-13.42029c54.5017,-10.47627 108.89034,-21.1019 163.16529,-31.87729z" fill="#3f4366" fill-rule="evenodd" stroke-width="1"/><path d="M318.90144,179.7142c5.12602,-0.68419 10.27034,-1.1108 15.4325,-1.27974c3.25989,1.53583 6.64267,2.71533 10.14929,3.53831c2.89812,3.04686 5.8386,6.0192 8.82106,8.9176c-0.02241,0.34671 -0.04442,0.69282 -0.06683,1.03952c-2.22786,-1.3947 -4.31575,-2.98191 -6.26376,-4.76214c-2.95625,-0.47311 -5.88679,-1.05004 -8.7918,-1.73181c-3.32588,-0.02801 -6.60212,0.31398 -9.8287,1.02597c-3.04703,2.2227 -6.28408,4.18427 -9.71122,5.88419c-1.96159,3.56372 -3.41152,7.33852 -4.35071,11.32508c5.23254,30.03331 10.63076,60.03736 16.19502,90.01106c14.22447,-2.74063 28.44258,-5.51041 42.65526,-8.31c1.11005,5.44935 2.27539,10.88652 3.49504,16.31172c-17.56218,3.20994 -35.12487,6.41998 -52.68705,9.62992c-6.62852,-36.79978 -13.10277,-73.62673 -19.42275,-110.48085c2.20003,-4.04082 3.98874,-8.30593 5.36621,-12.79482c3.29974,-2.52058 6.30234,-5.29556 9.00845,-8.32402z" fill="#6e685f" fill-rule="evenodd" stroke-width="1"/><path d="M329.66522,188.01989c5.19902,-0.72322 10.36637,-0.55461 15.50195,0.50536c3.01034,1.93534 5.88199,4.06452 8.61534,6.38694c6.57946,29.60683 12.94193,59.26308 19.08646,88.96891c-13.56168,2.61795 -27.11764,5.2672 -40.66706,7.94661c-5.41289,-29.14562 -10.6596,-58.32059 -15.74078,-87.52582c0.8304,-3.60096 1.99472,-7.06673 3.49288,-10.39781c3.28461,-1.98515 6.52174,-3.94622 9.71122,-5.88419z" fill="#413142" fill-rule="evenodd" stroke-width="1"/><path d="M219.41152,208.68525c16.23706,-2.96774 32.47361,-5.93539 48.71067,-8.90313c0.3028,1.65666 0.60569,3.31382 0.90848,4.97048c-89.87442,16.94259 -179.7492,33.88317 -269.62435,50.82178c0.13216,1.08277 0.56238,2.03143 1.29066,2.84601c1.23638,1.14393 2.47269,2.28736 3.70907,3.43129c3.41692,18.89529 6.62064,37.82852 9.61114,56.79971c-6.65754,1.04579 -13.31523,2.09109 -19.97275,3.13689c-3.56336,-22.80773 -7.04943,-45.62753 -10.45802,-68.45892c78.71383,-14.77274 157.32203,-29.65406 235.82511,-44.64408z" fill="#6e685f" fill-rule="evenodd" stroke-width="1"/><path d="M225.56297,214.2384c14.5799,-2.66485 29.1603,-5.3298 43.7402,-7.99465c0.63594,3.47933 1.27188,6.95866 1.90781,10.438c-55.82032,10.29044 -111.60975,20.74422 -167.36879,31.36146c2.53708,17.39649 5.7016,34.71017 9.49365,51.94148c-2.81678,0.51484 -5.63304,1.02958 -8.44982,1.54442c-2.72845,-17.474 -5.74263,-34.90093 -9.04203,-52.28085c-28.30356,5.33244 -56.60492,10.6768 -84.9043,16.0321c5.12688,29.88208 10.24644,59.7655 15.3586,89.65027c-1.49114,0.27254 -2.98229,0.54509 -4.47343,0.81764c-5.17814,-31.75577 -10.54798,-63.477 -16.1094,-95.16323c-1.13836,-1.07606 -2.27676,-2.15213 -3.41512,-3.22819c59.45489,-11.47097 118.94192,-22.77163 178.46152,-33.90258c15.16343,-2.77151 30.09727,-5.84367 44.80112,-9.21586z" fill="#564b4e" fill-rule="evenodd" stroke-width="1"/><path d="M188.97363,233.25371c27.50314,-5.02691 55.00677,-10.05391 82.50992,-15.08082c0.27254,1.49114 0.54509,2.98228 0.81764,4.47343c-54.04439,9.69875 -108.08691,19.40486 -162.12839,29.1195c0.44496,3.6822 0.94564,7.35731 1.50162,11.02589c54.14976,-10.05804 108.29762,-20.12652 162.44374,-30.20444c4.45157,24.35533 8.90313,48.71067 13.3547,73.06601c-55.24806,10.59985 -110.52527,21.04579 -165.83223,31.33743c-5.52209,-29.29619 -11.04765,-58.59175 -16.5772,-87.88659c28.11435,-4.96809 56.08478,-10.25145 83.91021,-15.85041z" fill="#6f6a69" fill-rule="evenodd" stroke-width="1"/><path d="M53.86749,258.4615c13.5858,-2.48316 27.17211,-4.9664 40.75791,-7.44956c2.71779,14.4002 5.26938,28.82976 7.65528,43.28858c0.52121,2.82073 0.60634,5.63026 0.25638,8.42841c3.19329,11.93764 5.75011,24.05481 7.67144,36.35131c-27.46598,5.23019 -54.93887,10.42263 -82.41907,15.57787c-5.01763,-29.3884 -10.0463,-58.77478 -15.08606,-88.15914c13.86688,-2.36451 27.58846,-5.04353 41.16411,-8.03746z" fill="#6f6a69" fill-rule="evenodd" stroke-width="1"/><path d="M78.99244,255.41023c4.47343,-0.81764 8.94685,-1.63527 13.42029,-2.4529c0.61242,3.99985 1.1732,8.00658 1.68331,12.02c-24.70023,4.52898 -49.32651,9.37268 -73.8784,14.53049c-0.70856,-3.12603 -1.44961,-6.24354 -2.22316,-9.35306c-0.49705,0.09085 -0.9941,0.1817 -1.49115,0.27255c-0.09085,-0.49705 -0.1817,-0.99409 -0.27254,-1.49114c20.96255,-4.68822 41.88297,-9.19667 62.76167,-13.52593z" fill="#000000" fill-rule="evenodd" stroke-width="1"/><path d="M80.34993,257.21672c3.64485,-0.66619 7.2902,-1.33247 10.93505,-1.99866c0.24904,2.85764 0.59837,5.70466 1.04737,8.54066c-23.66498,4.48257 -47.32749,8.97854 -70.98697,13.48835c-0.57959,-2.46593 -1.19955,-4.92087 -1.85977,-7.36487c20.39678,-4.09941 40.68489,-8.32124 60.86433,-12.66548z" fill="#151b20" fill-rule="evenodd" stroke-width="1"/><path d="M111.93644,252.98442c53.54707,-9.60939 107.09245,-19.22513 160.63724,-28.84695c0.42399,2.31972 0.84789,4.63894 1.27188,6.95866c-53.65163,9.97316 -107.30252,19.9503 -160.9526,29.93191c-0.24491,-2.68889 -0.56389,-5.36991 -0.95652,-8.04361z" fill="#151b20" fill-rule="evenodd" stroke-width="1"/><path d="M-5.68308,323.27942c6.6707,-0.95882 13.32825,-2.00461 19.97275,-3.13688c2.09573,11.94616 4.11043,23.90557 6.04403,35.87828c-6.793,1.2416 -13.58596,2.48319 -20.37896,3.72478c-1.93485,-12.14763 -3.81413,-24.30286 -5.63782,-36.46618z" fill="#3b3d50" fill-rule="evenodd" stroke-width="1"/><path d="M105.15858,303.02024c2.81678,-0.51484 5.63304,-1.02958 8.44982,-1.54442c2.18036,11.92914 4.36072,23.85829 6.54108,35.78744c-2.81678,0.51484 -5.63304,1.02958 -8.44982,1.54442c-2.18036,-11.92914 -4.36072,-23.85829 -6.54108,-35.78744z" fill="#3b3d50" fill-rule="evenodd" stroke-width="1"/><path d="M338.74927,134.71796c3.53769,1.548 8.04571,3.82864 9.20876,7.81566c0.64471,2.21011 0.16584,4.66055 -0.03148,6.9009c-0.11067,6.98567 -8.65182,10.31662 -14.3836,11.35486c-6.40269,0.17088 -11.55801,-3.677 -12.80126,-10.09455c-1.09186,-6.00936 -1.71258,-14.37981 5.83061,-15.78174c3.89973,-0.71278 8.4089,-1.92524 12.27368,-0.68694zM332.36643,134.92337c-1.8819,0.25852 -3.81159,0.73512 -5.59821,1.06167c-6.80733,1.22554 -5.93844,9.16045 -4.95458,14.51386c0.96427,5.7136 5.89356,9.53253 11.60985,9.20733c5.12803,-0.94651 13.42789,-3.94079 13.41457,-10.32347c0.18337,-2.09947 0.66915,-4.45219 0.07913,-6.5264c-1.02211,-3.59322 -5.23869,-5.67044 -8.45487,-7.07553c-0.10529,0.1231 -0.28917,0.24193 -0.5789,0.13998c-0.32111,-0.11301 -0.371,-0.35603 -0.36323,-0.52249c-1.09729,-0.31177 -2.21061,0.10576 -3.36032,0.31589c-3.30187,0.6035 -8.74906,1.17464 -10.74409,4.08188c0,0 -0.30972,0.44827 -0.75799,0.13854c-0.44826,-0.30973 -0.13854,-0.75799 -0.13854,-0.75799c1.92055,-2.76268 6.328,-3.63666 9.8472,-4.25327z" fill="#00ffd7" fill-rule="nonzero" stroke-width="0.5"/><path d="M322.56477,139.20657c0,0 -0.30855,0.4464 0.13971,0.75611c0.44826,0.30973 0.6657,-0.19646 0.6657,-0.19646c1.99503,-2.90724 7.48644,-3.503 10.78831,-4.1065c1.14971,-0.21014 2.27836,-0.62586 3.37565,-0.31409c-0.00777,0.16647 0.04431,0.41011 0.36541,0.52312c0.28971,0.10196 0.47581,-0.01613 0.58111,-0.13923c3.2162,1.40511 7.46611,3.51638 8.48822,7.1096c0.59001,2.07421 0.10606,4.45438 -0.07731,6.55385c0.01334,6.38269 -8.3444,9.42107 -13.47244,10.36758c-5.71629,0.3252 -10.69375,-3.53357 -11.65802,-9.24717c-0.98386,-5.35342 -1.83133,-13.34753 4.97599,-14.57306c1.78662,-0.32655 3.75664,-0.70474 5.63854,-0.96326c-3.51919,0.61662 -7.89034,1.46683 -9.81089,4.22951z" fill="#ffffff" fill-rule="nonzero" stroke-width="0.5"/><path d="M301.56917,137.14075c3.56551,-0.34208 6.8294,1.16569 9.916,3.74055c2.45576,2.04871 5.54633,4.00929 6.34089,7.3289c0.45901,1.91772 -0.02755,3.94695 -0.21345,5.84652c-0.12749,1.30255 -0.30983,2.06621 -1.28319,3.00775c-2.7851,5.62379 -8.11293,8.83546 -13.98705,9.9091c-4.03147,0.73686 -6.45713,-1.60737 -9.98128,-3.12757c-1.55715,-0.67169 -3.45917,-0.97863 -4.74728,-2.03112c-0.96183,-0.78589 -1.89971,-2.39575 -2.13236,-3.59515c-0.29185,-1.59675 -0.96686,-3.51133 -0.91794,-5.1294c0.12839,-4.2466 4.8834,-8.4783 7.50447,-11.43678c1.08498,-3.06626 3.84223,-3.13668 6.43991,-3.77604c0.50779,-0.19485 1.00938,-0.35165 1.50511,-0.47237c0.17163,-0.06987 0.34074,-0.1459 0.50669,-0.22932l0.60802,-0.13245c0,0 0.25153,-0.04597 0.44146,0.09737zM296.44079,139.36962c-1.50571,0.40403 -2.81566,1.07361 -3.4309,2.83182c-2.41208,2.8251 -7.28055,6.96939 -7.36074,10.98242c-0.03035,1.51861 0.6294,3.3364 0.90421,4.83993c0.53476,3.18116 3.75206,3.74913 6.2179,4.81265c3.29832,1.42257 5.63609,3.74856 9.37514,3.06516c5.66765,-1.03591 10.58953,-4.07746 13.30398,-9.48124c1.09632,-1.06047 1.01327,-1.96177 1.28369,-3.38961c1.0559,-5.57543 -2.09386,-8.09823 -5.947,-11.3127c-3.26738,-2.72594 -6.66209,-4.21215 -10.52241,-3.26048c-0.30308,0.10607 -0.61494,0.19524 -0.93145,0.2744c-0.68764,0.2354 -1.39031,0.5481 -2.10982,0.94447c0,0 -0.4775,0.26243 -0.73992,-0.21507c-0.01733,-0.03154 -0.03143,-0.06213 -0.04266,-0.09176z" fill="#00ffd7" fill-rule="nonzero" stroke-width="0.5"/><path d="M296.4641,139.41046c0.26244,0.4775 0.74233,0.21421 0.74233,0.21421c0.7195,-0.39637 1.43119,-0.71119 2.11882,-0.94659c0.31649,-0.07917 0.63218,-0.16875 0.93525,-0.27482c3.86032,-0.95166 7.29582,0.54853 10.5632,3.27447c3.85314,3.21447 7.02067,5.78073 5.96478,11.35614c-0.27041,1.42785 -0.18961,2.34179 -1.28592,3.40226c-2.71445,5.40376 -7.68521,8.48395 -13.35286,9.51986c-3.73904,0.68341 -6.11414,-1.65441 -9.41244,-3.07699c-2.46585,-1.06354 -5.69974,-1.65389 -6.2345,-4.83506c-0.27481,-1.50354 -0.9383,-3.33787 -0.90795,-4.85649c0.08019,-4.01304 4.9681,-8.20275 7.38019,-11.02783c0.61523,-1.75821 1.9407,-2.43688 3.44641,-2.8409c0.01123,0.02964 0.02535,0.06022 0.04268,0.09176z" fill="#ffffff" fill-rule="nonzero" stroke-width="0.5"/><path d="M300.93124,152.7264c-0.18936,-1.03605 0.497,-2.02943 1.53305,-2.2188c1.03605,-0.18936 2.02943,0.497 2.2188,1.53305c0.18936,1.03605 -0.497,2.02943 -1.53305,2.2188c-1.03605,0.18936 -2.02943,-0.497 -2.2188,-1.53305z" fill="#000000" fill-rule="nonzero" stroke-width="0.5"/><path d="M330.18318,148.00262c-0.18936,-1.03605 0.497,-2.02943 1.53305,-2.2188c1.03605,-0.18936 2.02943,0.497 2.2188,1.53305c0.18936,1.03605 -0.497,2.02943 -1.53305,2.2188c-1.03605,0.18936 -2.02943,-0.497 -2.2188,-1.53305z" fill="#000000" fill-rule="nonzero" stroke-width="0.5"/><path d="M316.98528,135.52398c-0.50828,0.64001 -1.14829,0.13173 -1.14829,0.13173l-0.85077,-0.6789c-2.4258,-1.36295 -5.00094,-2.29168 -7.50053,-3.51581c-2.30261,-1.12765 -4.73828,-3.16444 -7.16648,-3.84338c-3.05882,-1.70534 -6.6668,-2.20486 -9.70071,-4.07356c-2.63629,-1.62379 -6.58056,-4.80574 -9.76927,-4.93306c0,0 -0.81561,-0.05243 -0.76318,-0.86804c0.05243,-0.81561 0.86804,-0.76318 0.86804,-0.76318c4.33767,0.35114 7.85035,4.16844 11.68539,5.80723c2.68653,1.148 5.78768,1.87702 8.31386,3.32406c2.4797,0.74509 4.89502,2.72601 7.25226,3.88244c2.56773,1.25969 5.20305,2.21503 7.69351,3.6274l0.95444,0.75477c0,0 0.64001,0.50828 0.13173,1.14829z" fill="#00ffd7" fill-rule="nonzero" stroke-width="0.5"/><path d="M321.51937,134.2211c-0.49098,-0.65337 0.16239,-1.14436 0.16239,-1.14436l0.16694,-0.03973c1.20602,-2.10724 3.14687,-3.69415 4.19632,-5.93589c1.92095,-3.12571 3.8661,-6.31076 6.23167,-9.13108c3.57996,-4.26813 7.47723,-7.51814 10.34519,-12.43723c0,0 0.41164,-0.70605 1.1177,-0.29441c0.70605,0.41164 0.29441,1.1177 0.29441,1.1177c-4.61806,7.92084 -11.71066,13.68182 -16.55117,21.52256c-1.0618,2.24939 -3.0325,3.83876 -4.21071,5.96194l-0.60839,0.54288c0,0 -0.65337,0.49098 -1.14436,-0.16239z" fill="#00ffd7" fill-rule="nonzero" stroke-width="0.5"/><path d="M301.65255,195.92217c-0.49185,0.0899 -0.58175,-0.40195 -0.58175,-0.40195l0.02144,-0.0087c-1.14659,-2.18815 -1.96392,-4.21679 -2.40893,-6.65154c-1.20723,-6.623 -2.32366,-12.86283 3.93657,-17.28797c5.15302,-3.68342 9.54674,-6.67222 15.92866,-7.83868c6.10271,-1.09655 12.25942,1.35287 18.38616,0.85487c6.81601,-0.48148 12.76353,0.50512 15.74636,7.48951c2.1447,2.23502 2.54131,7.83915 3.33697,10.78319c0.35446,1.31157 1.02322,2.70733 0.48104,3.99398c0,0 -0.21273,0.45249 -0.66522,0.23976c-0.45249,-0.21273 -0.23976,-0.66522 -0.23976,-0.66522c0.47874,-0.85393 -0.29545,-2.39724 -0.54158,-3.3082c-0.76168,-2.81906 -1.13344,-8.36655 -3.2034,-10.48866c-2.9065,-6.66275 -8.27737,-7.51062 -14.83867,-7.04722c-6.07867,0.49418 -12.24459,-1.99272 -18.2821,-0.86829c-6.23622,1.13983 -10.49259,4.0695 -15.52908,7.67003c-5.89145,4.16449 -4.67108,10.0786 -3.53225,16.29312c0.42727,2.33767 1.20826,4.26531 2.31087,6.36698l0.07663,0.29326c0,0 0.0899,0.49185 -0.40195,0.58175z" fill="#00ffd7" fill-rule="nonzero" stroke-width="0.5"/></g><path d="M5.41359,31.65722c0.94868,0.31623 0.63246,1.26491 0.63246,1.26491l-0.17792,0.11711c0.02195,0.11217 0.04129,0.22212 0.05813,0.32993c0.27625,0.10818 0.59075,0.35448 0.59075,0.91528c0,0.53451 -0.28571,0.78332 -0.55169,0.89914c-0.42712,3.11307 -3.53789,4.06272 -4.96335,7.20461c-1.93648,4.26823 0.57189,10.61688 3.01383,14.2861c5.13145,7.78608 7.25505,16.20043 10.61201,24.86623c1.51016,3.89839 4.34957,7.09116 5.81064,10.94817c0.89102,2.37627 3.61908,7.20099 2.50494,9.67356c-0.47761,1.05995 -4.84197,1.62603 -6.01366,1.72978c-5.97066,0.52869 -12.0454,-0.3648 -18.04036,-0.11207c-3.17859,0.12442 -6.14745,1.29885 -9.27351,1.85089c-1.37025,0.24198 -3.78083,1.0332 -5.18723,0.52129c-1.90621,-0.69382 -2.99298,-3.97513 -4.00945,-5.61553c-3.17439,-5.12289 -6.47336,-9.83021 -10.42568,-14.40581c-2.23424,-2.51534 -3.3019,-5.38563 -4.625,-8.42368c-2.59116,-5.94974 -4.77961,-12.18834 -6.76431,-18.39204c-0.81472,-2.54662 -0.92634,-5.45749 -1.69325,-8.07343c-1.1868,-4.05088 -2.17609,-8.144 -3.31364,-12.20625c-0.31939,-1.14055 -1.85124,-4.46582 -1.50844,-5.61016c0.62102,-2.07311 2.58745,-1.60953 4.12054,-1.60953c5.02562,0 9.96881,0.39853 14.99292,0.44247c10.91967,0.10091 21.78364,0.94366 32.73695,1.02064l0.2094,-0.98916c0,0 0.31623,-0.94868 1.26491,-0.63246zM3.93544,35.27874c-10.95666,-0.07806 -21.8287,-0.93066 -32.75061,-1.02063c-3.71966,-0.03256 -7.40219,-0.44446 -11.10047,-0.44239c-1.70542,0.00095 -3.4294,0.06739 -5.13386,0c-0.30567,-0.01209 -0.96771,-0.23232 -0.91513,0.06903c0.95804,5.49024 3.21152,11.39018 4.79491,16.79458c0.763,2.60593 0.87158,5.56637 1.69857,8.09191c2.00087,6.11045 4.10276,12.24452 6.66415,18.11657c1.23953,2.84166 2.19485,5.58439 4.30267,7.92257c4.02362,4.65779 7.39141,9.45762 10.62356,14.67272c0.55029,0.8879 2.03594,4.5413 2.94188,4.77168c1.09035,0.27728 3.18098,-0.41252 4.20721,-0.59349c3.22458,-0.56863 6.25377,-1.73278 9.53701,-1.87955c5.6056,-0.23535 11.17724,0.10587 16.78302,0.11371c0.63084,0.00088 5.64882,-0.74349 5.65376,-0.78465c0.26097,-2.17697 -1.90184,-5.85482 -2.6763,-7.91985c-1.42099,-3.83373 -4.28904,-7.03055 -5.79368,-10.9045c-3.31288,-8.52958 -5.34533,-16.85977 -10.42444,-24.50881c-2.7602,-4.19558 -5.44368,-11.19819 -3.22626,-16.0703c1.2297,-2.70187 4.27677,-3.81655 4.81402,-6.42862z" fill="#000000" fill-rule="nonzero" stroke="none" stroke-width="0.5" stroke-linecap="butt"/><path d="M3.91372,35.32375c-0.53725,2.61207 -3.54322,3.63562 -4.77292,6.33749c-2.21742,4.87211 0.48641,11.89044 3.24661,16.08602c5.07911,7.64904 7.11607,16.03295 10.42895,24.56253c1.50464,3.87395 4.36787,7.07822 5.78886,10.91195c0.77446,2.06503 2.93403,5.74662 2.67306,7.92359c-0.00494,0.04116 -5.0267,0.78909 -5.65754,0.78821c-5.60578,-0.00784 -11.19368,-0.33983 -16.79928,-0.10448c-3.28324,0.14677 -6.32621,1.31354 -9.55079,1.88217c-1.02623,0.18097 -3.12286,0.87069 -4.21321,0.59341c-0.90594,-0.23038 -2.39686,-3.88445 -2.94715,-4.77235c-3.23215,-5.2151 -6.62677,-10.02918 -10.65039,-14.68697c-2.10782,-2.33818 -3.07405,-5.09792 -4.31358,-7.93958c-2.56139,-5.87205 -4.66338,-12.04174 -6.66425,-18.15219c-0.82699,-2.52554 -0.93098,-5.49515 -1.69398,-8.10108c-1.58339,-5.4044 -3.82925,-11.31362 -4.78729,-16.80386c-0.05258,-0.30135 0.61,-0.08163 0.91567,-0.06954c1.70446,0.06739 3.43164,-0.00178 5.13706,-0.00273c3.69828,-0.00207 7.39023,0.40401 11.10989,0.43657c10.92191,0.08997 21.83708,0.94273 32.79374,1.02079z" data-paper-data="{&quot;noHover&quot;:false,&quot;origItem&quot;:[&quot;Path&quot;,{&quot;applyMatrix&quot;:true,&quot;segments&quot;:[[[3.93544,35.27874],[0,0],[-10.95666,-0.07806]],[[-28.81516,34.25811],[10.92191,0.08997],[-3.71966,-0.03256]],[[-39.91564,33.81572],[3.69828,-0.00207],[-1.70542,0.00095]],[[-45.0495,33.81572],[1.70446,0.06739],[-0.30567,-0.01209]],[[-45.96463,33.88475],[-0.05258,-0.30135],[0.95804,5.49024]],[[-41.16971,50.67933],[-1.58339,-5.4044],[0.763,2.60593]],[[-39.47115,58.77124],[-0.82699,-2.52554],[2.00087,6.11045]],[[-32.807,76.88781],[-2.56139,-5.87205],[1.23953,2.84166]],[[-28.50432,84.81038],[-2.10782,-2.33818],[4.02362,4.65779]],[[-17.88076,99.4831],[-3.23215,-5.2151],[0.55029,0.8879]],[[-14.93889,104.25478],[-0.90594,-0.23038],[1.09035,0.27728]],[[-10.73167,103.66129],[-1.02623,0.18097],[3.22458,-0.56863]],[[-1.19466,101.78174],[-3.28324,0.14677],[5.6056,-0.23535]],[[15.58835,101.89545],[-5.60578,-0.00784],[0.63084,0.00088]],[[21.24212,101.1108],[-0.00494,0.04116],[0.26097,-2.17697]],[[18.56581,93.19095],[0.77446,2.06503],[-1.42099,-3.83373]],[[12.77213,82.28645],[1.50464,3.87395],[-3.31288,-8.52958]],[[2.34769,57.77764],[5.07911,7.64904],[-2.7602,-4.19558]],[[-0.87856,41.70734],[-2.21742,4.87211],[1.2297,-2.70187]],[[3.93545,35.27872],[-0.53725,2.61207],[0,0]]],&quot;closed&quot;:true,&quot;fillColor&quot;:[0,0,0,1]}]}" fill="#ffffff" fill-rule="nonzero" stroke="none" stroke-width="0.5" stroke-linecap="butt"/><path d="M74.88796,55.58462c-3.15773,1.14219 -6.3406,2.24194 -9.56255,2.96539c-5.43117,1.21951 -11.17399,1.48352 -16.70728,1.90891c-5.29808,0.52998 -10.62823,1.04295 -15.91956,1.46387c-1.75954,0.13997 -3.59286,0.01552 -5.36014,0.00876c-0.21193,-0.00081 -0.42591,0.01832 -0.63844,0.02246c1.03443,0.65059 2.00554,2.02468 2.72469,2.62124c2.29818,1.90643 4.69928,3.74613 7.10158,5.51827c3.93595,2.44816 7.87819,4.75445 11.83517,7.15759c1.80256,1.09473 3.60392,2.69883 5.66753,3.27541c3.19439,0.89252 6.32841,-2.51434 9.10435,-3.3456c3.31427,-0.99246 5.44471,0.20486 8.03767,2.10724c1.7099,1.35875 4.68657,5.13884 7.03504,5.40629c0.84273,0.09597 1.56023,-0.66625 2.33185,-1.0184c2.42902,-1.10857 4.64094,-2.56843 7.10075,-3.64902c4.79026,-2.10435 10.01768,-1.6736 14.84289,-3.53722c0.59487,-0.24469 1.19003,-0.4887 1.78462,-0.73408c0.28622,-0.11812 1.0089,-0.25035 0.79738,-0.47648c-3.23292,-3.45632 -8.30914,-4.12362 -12.18121,-6.58791c-3.57974,-2.27824 -2.35291,-5.45339 -3.54564,-8.9087c-0.55644,-1.612 -1.32759,-2.95703 -1.83583,-4.60763c-0.22454,-0.50201 -1.06131,-3.19337 -1.67512,-3.64294c-0.52053,-0.38126 -2.52772,0.33755 -3.0142,0.61351c-0.26598,0.15088 -0.52394,0.30681 -0.77641,0.46592c-0.13382,0.48848 -0.66679,0.66614 -0.66679,0.66614c-0.22758,0.07583 -0.45525,0.15264 -0.683,0.23032c-1.11784,0.76374 -2.21674,1.52224 -3.54844,2.08867l-1.3757,0.23656c0,0 -0.52538,0.08756 -0.87319,-0.24855zM79.64945,51.74948c2.34387,-1.60784 5.0478,-3.31227 7.11995,-1.98077c1.24344,0.79899 2.0506,3.46045 2.60385,4.70348c0.70418,2.29025 1.99351,4.38038 2.32453,6.76988c0.1673,1.20763 -0.00778,3.54993 0.67776,4.59077c2.01383,3.05757 8.20554,3.92212 11.10214,5.8121c1.04074,0.67906 3.04569,1.79618 3.49999,3.05473c0.84415,2.33854 -2.40494,3.0898 -3.75596,3.64811c-4.81061,1.84313 -10.03518,1.41791 -14.77737,3.50976c-2.89016,1.27489 -7.14764,5.13531 -10.4212,4.82853c-2.95383,-0.27681 -5.90617,-4.09418 -8.06655,-5.80879c-0.56279,-0.41449 -2.27016,-1.76151 -3.02309,-1.98761c-4.71808,-1.41683 -8.44452,4.82246 -13.41145,3.57155c-2.26119,-0.56948 -4.24685,-2.3152 -6.19882,-3.50067c-3.98705,-2.42141 -7.95297,-4.7464 -11.91928,-7.21159c-2.98517,-2.19941 -6.09738,-4.4587 -8.80424,-6.99515c-0.51459,-0.48219 -3.11288,-2.97794 -2.95716,-3.65346c0.41195,-1.78709 5.80748,-1.16942 6.97541,-1.17001c5.84898,-0.00296 11.97696,-0.87913 17.82394,-1.46363c5.44379,-0.419 11.10067,-0.66824 16.44421,-1.86785c4.99827,-1.12209 9.90189,-3.16853 14.76332,-4.84937z" fill="#000000" fill-rule="nonzero" stroke="none" stroke-width="0.5" stroke-linecap="butt"/><path d="M74.9172,55.54407c0.34781,0.33611 0.87535,0.2502 0.87535,0.2502l1.37779,-0.23478c1.3317,-0.56643 2.43276,-1.32287 3.5506,-2.08661c0.22775,-0.07768 0.45593,-0.15396 0.68351,-0.22979c0,0 0.53294,-0.17769 0.66676,-0.66617c0.25247,-0.15911 0.51073,-0.31473 0.77671,-0.46561c0.48648,-0.27596 2.49574,-0.99243 3.01627,-0.61117c0.61381,0.44957 1.45504,3.14724 1.67958,3.64925c0.50824,1.6506 1.2836,3.00459 1.84004,4.61659c1.19273,3.45531 -0.03126,6.64828 3.54848,8.92652c3.87207,2.46429 8.94748,3.13949 12.1804,6.59581c0.21152,0.22613 -0.51131,0.35913 -0.79753,0.47725c-0.59459,0.24538 -1.19005,0.49078 -1.78492,0.73547c-4.82521,1.86362 -10.05755,1.44575 -14.84781,3.5501c-2.45981,1.08059 -4.68134,2.55282 -7.11036,3.66139c-0.77162,0.35215 -1.49358,1.11809 -2.33631,1.02212c-2.34847,-0.26745 -5.33363,-4.04247 -7.04353,-5.40122c-2.59296,-1.90238 -4.75917,-3.09712 -8.07344,-2.10466c-2.77594,0.83126 -5.92992,4.22648 -9.12431,3.33396c-2.06361,-0.57658 -3.87478,-2.19368 -5.67734,-3.28841c-3.95698,-2.40314 -7.90481,-4.72918 -11.84076,-7.17734c-2.4023,-1.77214 -4.80329,-3.62005 -7.10147,-5.52648c-0.71915,-0.59656 -1.68989,-1.97359 -2.72432,-2.62418c0.21253,-0.00414 0.42653,-0.02342 0.63846,-0.02261c1.76728,0.00676 3.60081,0.12997 5.36035,-0.01c5.29133,-0.42092 10.62488,-0.94493 15.92296,-1.47491c5.53329,-0.42539 11.31886,-0.71917 16.75003,-1.93868c3.22195,-0.72345 6.43706,-1.81386 9.59479,-2.95605z" data-paper-data="{&quot;noHover&quot;:false,&quot;origItem&quot;:[&quot;Path&quot;,{&quot;applyMatrix&quot;:true,&quot;segments&quot;:[[[74.88796,55.58462],[0,0],[-3.15773,1.14219]],[[65.3254,58.55001],[3.22195,-0.72345],[-5.43117,1.21951]],[[48.61812,60.45892],[5.53329,-0.42539],[-5.29808,0.52998]],[[32.69857,61.92279],[5.29133,-0.42092],[-1.75954,0.13997]],[[27.33843,61.93155],[1.76728,0.00676],[-0.21193,-0.00081]],[[26.69998,61.95401],[0.21253,-0.00414],[1.03443,0.65059]],[[29.42467,64.57525],[-0.71915,-0.59656],[2.29818,1.90643]],[[36.52625,70.09352],[-2.4023,-1.77214],[3.93595,2.44816]],[[48.36142,77.25111],[-3.95698,-2.40314],[1.80256,1.09473]],[[54.02896,80.52652],[-2.06361,-0.57658],[3.19439,0.89252]],[[63.1333,77.18092],[-2.77594,0.83126],[3.31427,-0.99246]],[[71.17098,79.28816],[-2.59296,-1.90238],[1.7099,1.35875]],[[78.20601,84.69445],[-2.34847,-0.26745],[0.84273,0.09597]],[[80.53787,83.67605],[-0.77162,0.35215],[2.42902,-1.10857]],[[87.63861,80.02703],[-2.45981,1.08059],[4.79026,-2.10435]],[[102.4815,76.48981],[-4.82521,1.86362],[0.59487,-0.24469]],[[104.26612,75.75573],[-0.59459,0.24538],[0.28622,-0.11812]],[[105.0635,75.27925],[0.21152,0.22613],[-3.23292,-3.45632]],[[92.8823,68.69134],[3.87207,2.46429],[-3.57974,-2.27824]],[[89.33665,59.78264],[1.19273,3.45531],[-0.55644,-1.612]],[[87.50082,55.17501],[0.50824,1.6506],[-0.22454,-0.50201]],[[85.8257,51.53207],[0.61381,0.44957],[-0.52053,-0.38126]],[[82.81151,52.14558],[0.48648,-0.27596],[-0.26598,0.15088]],[[82.03509,52.6115],[0.25247,-0.15911],[-0.13382,0.48848]],[[81.3683,53.27764],[0,0],[-0.22758,0.07583]],[[80.6853,53.50796],[0.22775,-0.07768],[-1.11784,0.76374]],[[77.13686,55.59663],[1.3317,-0.56643],[0,0]],[75.76117,55.83319],[[74.88797,55.58464],[0.34781,0.33611],[0,0]]],&quot;closed&quot;:true,&quot;fillColor&quot;:[0,0,0,1]}]}" fill="#ffffff" fill-rule="nonzero" stroke="none" stroke-width="0.5" stroke-linecap="butt"/><path d="M128.54634,3.04834c-4.54777,1.201 -9.07826,2.65995 -13.40882,4.34369c-4.6375,1.80308 -8.14251,5.95453 -12.06122,8.84362c-2.71685,2.33032 -5.72471,5.35809 -9.03052,6.84624c-2.72033,1.2246 -5.78969,1.85329 -8.57384,2.75477c-0.46122,0.14934 0.83896,0.49063 1.22534,0.78345c0.02504,0.01898 3.00934,2.65136 3.05957,2.69667c2.48925,2.24521 4.99685,4.49798 7.31825,6.91589c4.50305,4.69243 9.73843,11.62129 16.02031,13.95708c4.42646,1.64589 9.72192,2.32667 14.41066,2.45408c3.10476,0.44192 6.61046,0.18617 9.6206,1.08067c5.67441,1.68622 9.75963,6.89615 14.21845,10.47188c2.95922,2.37313 6.13261,4.00763 8.83535,6.73355c0.88455,0.66156 2.67547,2.61406 3.67162,2.91079c0.719,0.21417 1.1886,-0.9224 1.7178,-1.45416c1.32925,-1.33568 2.41255,-3.01528 3.35692,-4.63875c3.7635,-6.46988 8.63819,-11.84385 12.25915,-18.26233c-0.36932,-0.67824 -1.32613,-0.79189 -1.99335,-1.18077c-2.16852,-1.26389 -4.31112,-3.14641 -6.40827,-4.57685c-1.61489,-1.10149 -3.09116,-2.48442 -4.75916,-3.50211c-3.83645,-2.34073 -8.3617,-3.27401 -12.33038,-5.42723c-2.90484,-1.57603 -5.58451,-3.4624 -8.67784,-4.6607c-2.87138,-1.11958 -6.88381,-2.59781 -8.65613,-5.28753c-1.53459,-2.32895 -2.33494,-5.77834 -3.27408,-8.42113c-0.84711,-2.38381 -1.56629,-4.86572 -2.15333,-7.32413c-0.1682,-0.70438 -0.57007,-3.91859 -1.07346,-4.39255c-0.76632,-0.72152 -2.13295,-1.29414 -3.31362,-1.66414zM131.11823,1.93269c0.92554,0.44086 1.78725,0.98039 2.35714,1.60062c1.23176,1.34059 1.3962,5.28634 1.87569,7.01312c0.77962,2.80758 1.88362,5.41655 2.87457,8.13786c0.61087,1.67756 0.74801,3.46827 1.75768,4.99657c1.53836,2.32855 5.28071,3.63204 7.75853,4.59294c3.17119,1.23769 5.9186,3.14475 8.89827,4.76222c4.00481,2.17396 8.55019,3.11681 12.42833,5.48339c1.69789,1.03611 3.19931,2.43516 4.84286,3.5562c3.02002,2.05991 7.72352,4.1461 9.27291,7.32675c-1.40699,4.09188 -4.01059,6.38547 -6.49611,9.66697c-2.74875,3.62903 -4.68127,7.62571 -7.15606,11.40229c-1.0968,1.67374 -3.44497,5.65165 -5.9422,5.35183c-1.36867,-0.16433 -3.66067,-2.58637 -4.72116,-3.3838c-2.69685,-2.69499 -5.84248,-4.33382 -8.78949,-6.6949c-4.2067,-3.37031 -8.13185,-8.49583 -13.47774,-10.09044c-2.88286,-0.85992 -6.28548,-0.59056 -9.26316,-1.01753c-4.84884,-0.12078 -10.39315,-0.85503 -14.96408,-2.58159c-6.60034,-2.49312 -11.99372,-9.48958 -16.74215,-14.43773c-3.156,-3.2903 -6.6027,-6.54671 -10.15388,-9.41185c-1.13089,-0.91242 -2.67855,-1.28175 -1.71214,-3.41294c0.76603,-1.68928 5.16187,-1.69618 6.56998,-2.29631c4.32254,-1.84226 7.88823,-4.73626 11.49498,-7.82571c4.10493,-3.03062 7.72771,-7.22609 12.57668,-9.1407c3.51053,-1.38613 7.16963,-2.59582 10.85786,-3.65018c-0.06299,-0.12742 -0.10227,-0.28633 -0.10227,-0.48453c0,-1 1,-1 1,-1l1.00085,0.07152c0.32846,0.13221 0.65692,0.26441 0.98538,0.39662c0.1349,0.03464 0.27518,0.07272 0.41972,0.11414c0.44619,-0.11636 0.89229,-0.23055 1.33809,-0.34261c0,0 0.97014,-0.24254 1.21268,0.72761c0.05705,0.22821 0.047,0.41616 -0.00174,0.57016z" fill="#000000" fill-rule="nonzero" stroke="none" stroke-width="0.5" stroke-linecap="butt"/><path d="M131.85785,4.66252c0.50339,0.47396 0.90677,3.68813 1.07497,4.39251c0.58704,2.45841 1.3109,4.94048 2.15801,7.32429c0.93914,2.64279 1.75289,6.09517 3.28748,8.42412c1.77232,2.68972 5.81003,4.18889 8.68141,5.30847c3.09333,1.1983 5.77958,3.10252 8.68442,4.67855c3.96868,2.15322 8.49452,3.0971 12.33097,5.43783c1.668,1.01769 3.1439,2.40469 4.75879,3.50618c2.09715,1.43044 4.23908,3.31683 6.4076,4.58072c0.66722,0.38888 1.62387,0.50326 1.99319,1.1815c-3.62096,6.41848 -8.50574,11.81298 -12.26924,18.28286c-0.94437,1.62347 -2.03183,3.30755 -3.36108,4.64323c-0.5292,0.53176 -1.00058,1.66994 -1.71958,1.45577c-0.99615,-0.29673 -2.78786,-2.24856 -3.67241,-2.91012c-2.70274,-2.72592 -5.8793,-4.358 -8.83852,-6.73113c-4.45882,-3.57573 -8.56055,-8.7781 -14.23496,-10.46432c-3.01014,-0.8945 -6.54691,-0.64092 -9.65167,-1.08284c-4.68874,-0.12741 -10.00858,-0.82938 -14.43504,-2.47527c-6.28188,-2.33579 -11.52394,-9.29284 -16.02699,-13.98527c-2.3214,-2.41791 -4.82803,-4.67789 -7.31728,-6.9231c-0.05023,-0.04531 -3.03406,-2.67973 -3.0591,-2.69871c-0.38638,-0.29282 -1.68644,-0.63456 -1.22522,-0.7839c2.78415,-0.90148 5.8553,-1.53565 8.57563,-2.76025c3.30581,-1.48815 6.31995,-4.52731 9.0368,-6.85763c3.91871,-2.88909 7.43878,-7.05409 12.07628,-8.85717c4.33056,-1.68374 8.87964,-3.14907 13.42741,-4.35007c1.18067,0.37 2.55182,0.94222 3.31814,1.66374z" data-paper-data="{&quot;noHover&quot;:false,&quot;origItem&quot;:[&quot;Path&quot;,{&quot;applyMatrix&quot;:true,&quot;segments&quot;:[[[128.54634,3.04834],[1.18067,0.37],[-4.54777,1.201]],[[115.13752,7.39203],[4.33056,-1.68374],[-4.6375,1.80308]],[[103.07629,16.23565],[3.91871,-2.88909],[-2.71685,2.33032]],[[94.04577,23.08189],[3.30581,-1.48815],[-2.72033,1.2246]],[[85.47194,25.83666],[2.78415,-0.90148],[-0.46122,0.14934]],[[86.69727,26.62011],[-0.38638,-0.29282],[0.02504,0.01898]],[[89.75685,29.31678],[-0.05023,-0.04531],[2.48925,2.24521]],[[97.0751,36.23267],[-2.3214,-2.41791],[4.50305,4.69243]],[[113.09541,50.18975],[-6.28188,-2.33579],[4.42646,1.64589]],[[127.50606,52.64383],[-4.68874,-0.12741],[3.10476,0.44192]],[[137.12667,53.7245],[-3.01014,-0.8945],[5.67441,1.68622]],[[151.34511,64.19638],[-4.45882,-3.57573],[2.95922,2.37313]],[[160.18047,70.92993],[-2.70274,-2.72592],[0.88455,0.66156]],[[163.85208,73.84072],[-0.99615,-0.29673],[0.719,0.21417]],[[165.56989,72.38656],[-0.5292,0.53176],[1.32925,-1.33568]],[[168.9268,67.74781],[-0.94437,1.62347],[3.7635,-6.46988]],[[181.18596,49.48548],[-3.62096,6.41848],[-0.36932,-0.67824]],[[179.1926,48.30471],[0.66722,0.38888],[-2.16852,-1.26389]],[[172.78433,43.72786],[2.09715,1.43044],[-1.61489,-1.10149]],[[168.02518,40.22575],[1.668,1.01769],[-3.83645,-2.34073]],[[155.6948,34.79852],[3.96868,2.15322],[-2.90484,-1.57603]],[[147.01695,30.13782],[3.09333,1.1983],[-2.87138,-1.11958]],[[138.36082,24.85029],[1.77232,2.68972],[-1.53459,-2.32895]],[[135.08674,16.42916],[0.93914,2.64279],[-0.84711,-2.38381]],[[132.93341,9.10503],[0.58704,2.45841],[-0.1682,-0.70438]],[[131.85996,4.71248],[0.50339,0.47396],[-0.76632,-0.72152]]],&quot;closed&quot;:true,&quot;fillColor&quot;:[0,0,0,1]}]}" fill="#ffffff" fill-rule="nonzero" stroke="none" stroke-width="0.5" stroke-linecap="butt"/><path d="M38.40622,-28.92704c1,0 1,1 1,1l-0.01361,0.46506c0.0097,0.05911 0.01934,0.11804 0.02894,0.17679c0.19099,0.12615 0.35676,0.34359 0.39819,0.71646c0.03514,0.31629 -0.04155,0.54311 -0.16247,0.70537c0.31122,1.79937 0.67738,3.43059 1.49181,4.97036c0.34635,0.6548 -0.18678,1.6758 0.34056,2.19603c0.88321,0.87129 2.72545,1.19213 3.53715,2.46413c1.16309,1.82265 1.97718,4.29474 3.75761,5.72591c2.17784,1.75062 5.60723,2.70895 8.18173,3.65879c3.1096,0.85227 6.12413,1.61218 8.9462,3.24001c1.73817,1.00262 3.54941,1.69949 2.19411,4.46383c-0.26778,0.54618 -1.19013,0.26174 -1.79423,0.33308c-1.42612,0.16841 -2.99391,0.29384 -4.41818,0.41591c-5.74946,0.49279 -11.72213,-0.01696 -17.49794,0.01642c-5.25038,0.12537 -10.52048,0.8819 -15.75286,1.24136c-3.08892,0.21221 -7.27685,0.59891 -10.16997,-0.71694c-3.13533,-1.42601 -5.42534,-4.90923 -8.25577,-6.85944c-2.08739,-1.65176 -4.47263,-3.09777 -6.46634,-4.84195c-0.98297,-0.85995 -1.62821,-2.07514 -2.65732,-2.87931c-1.84951,-1.44524 -4.50167,-1.40449 -6.05434,-3.3178c-1.45228,-1.78961 -3.21717,-7.41945 -0.38216,-8.50672c0.18455,-0.07078 3.74508,-0.04984 3.87012,-0.05123c2.28935,-0.0254 4.45246,-0.30018 6.71687,-0.58357c4.17248,-0.51212 8.41695,0.19511 12.62948,-0.17885c6.50241,-0.57725 13.04653,-1.48597 19.54306,-2.23196l-0.01066,-0.62173c0,0 0,-1 1,-1zM37.7169,-25.32697c-6.53768,0.7478 -13.12232,1.66538 -19.66631,2.24579c-4.18369,0.37107 -8.42177,-0.35612 -12.55818,0.17124c-2.33747,0.29182 -4.57549,0.57256 -6.93886,0.59885c-0.67097,0.00746 -1.34211,0.01062 -2.01304,0.00009c-0.48944,-0.00768 -1.55356,-0.50562 -1.46833,-0.0236c0.31449,1.77857 0.22763,4.8624 2.13639,5.95603c1.56398,0.89609 3.62468,1.21475 5.07318,2.3344c0.68086,0.52629 2.09265,2.37621 2.78629,2.98304c1.95308,1.70864 4.29478,3.12007 6.33975,4.73998c2.7038,1.87772 4.93741,5.25361 7.90495,6.65138c2.51295,1.18364 6.42284,0.7288 9.13343,0.54197c5.28919,-0.36455 10.61286,-1.12102 15.91996,-1.25087c4.80188,-0.02794 9.60408,-0.01292 14.40602,-0.01292c1.69875,0 3.21191,-0.13494 4.89426,-0.33736c0.00119,-0.00014 2.36348,-0.15043 2.64582,-0.08228c0.14611,0.03527 0.30498,0.48339 0.30397,0.33308c-0.00851,-1.26407 -4.1754,-2.69981 -5.13113,-3.05931c-1.63302,-0.61427 -3.4453,-0.94222 -5.13016,-1.40638c-2.8039,-1.03161 -6.45252,-2.09423 -8.82444,-4.00501c-1.92684,-1.55224 -2.93573,-4.10388 -4.1379,-6.13105c-0.73312,-1.23622 -2.65658,-1.38555 -3.45375,-2.35417c-0.52338,-0.63594 -0.07818,-1.71184 -0.49872,-2.42c-1.01355,-1.70677 -1.39334,-3.50528 -1.72321,-5.47289z" fill="#000000" fill-rule="nonzero" stroke="none" stroke-width="0.5" stroke-linecap="butt"/><path d="M37.73995,-25.37132c0.32987,1.96761 0.72374,3.77701 1.73729,5.48378c0.42054,0.70816 -0.01866,1.79226 0.50472,2.4282c0.79717,0.96862 2.72614,1.13169 3.45926,2.36791c1.20217,2.02717 2.21154,4.59963 4.13838,6.15187c2.37192,1.91078 6.01955,2.97762 8.82345,4.00923c1.68486,0.46416 3.49715,0.79206 5.13017,1.40633c0.95573,0.3595 5.12202,1.79723 5.13053,3.0613c0.00101,0.15031 -0.15777,-0.29809 -0.30388,-0.33336c-0.28234,-0.06815 -2.64503,0.08334 -2.64622,0.08348c-1.68235,0.20242 -3.19664,0.34032 -4.89539,0.34032c-4.80194,0 -9.61247,-0.0016 -14.41435,0.02634c-5.3071,0.12985 -10.67762,0.90273 -15.96681,1.26728c-2.71059,0.18683 -6.6454,0.62917 -9.15835,-0.55447c-2.96754,-1.39777 -5.21508,-4.79606 -7.91888,-6.67378c-2.04497,-1.61991 -4.38871,-3.04358 -6.34179,-4.75222c-0.69364,-0.60683 -2.10536,-2.46216 -2.78622,-2.98845c-1.4485,-1.11965 -3.50892,-1.44123 -5.0729,-2.33732c-1.90876,-1.09363 -1.82037,-4.18491 -2.13486,-5.96348c-0.08523,-0.48202 0.97904,0.01541 1.46848,0.02309c0.67093,0.01053 1.34232,0.00656 2.01329,-0.0009c2.36337,-0.02629 4.60307,-0.31157 6.94054,-0.60339c4.13641,-0.52736 8.38254,0.18687 12.56623,-0.1842c6.54399,-0.58041 13.18964,-1.50979 19.72732,-2.25759z" data-paper-data="{&quot;noHover&quot;:false,&quot;origItem&quot;:[&quot;Path&quot;,{&quot;applyMatrix&quot;:true,&quot;segments&quot;:[[[37.7169,-25.32697],[0,0],[-6.53768,0.7478]],[[18.05058,-23.08118],[6.54399,-0.58041],[-4.18369,0.37107]],[[5.4924,-22.90994],[4.13641,-0.52736],[-2.33747,0.29182]],[[-1.44646,-22.31109],[2.36337,-0.02629],[-0.67097,0.00746]],[[-3.4595,-22.311],[0.67093,0.01053],[-0.48944,-0.00768]],[[-4.92782,-22.3346],[-0.08523,-0.48202],[0.31449,1.77857]],[[-2.79143,-16.37857],[-1.90876,-1.09363],[1.56398,0.89609]],[[2.28175,-14.04417],[-1.4485,-1.11965],[0.68086,0.52629]],[[5.06804,-11.06113],[-0.69364,-0.60683],[1.95308,1.70864]],[[11.40778,-6.32115],[-2.04497,-1.61991],[2.7038,1.87772]],[[19.31273,0.33023],[-2.96754,-1.39777],[2.51295,1.18364]],[[28.44616,0.8722],[-2.71059,0.18683],[5.28919,-0.36455]],[[44.36613,-0.37867],[-5.3071,0.12985],[4.80188,-0.02794]],[[58.77215,-0.39159],[-4.80194,0],[1.69875,0]],[[63.6664,-0.72895],[-1.68235,0.20242],[0.00119,-0.00014]],[[66.31223,-0.81123],[-0.28234,-0.06815],[0.14611,0.03527]],[[66.61619,-0.47815],[0.00101,0.15031],[-0.00851,-1.26407]],[[61.48506,-3.53746],[0.95573,0.3595],[-1.63302,-0.61427]],[[56.35491,-4.94384],[1.68486,0.46416],[-2.8039,-1.03161]],[[47.53046,-8.94885],[2.37192,1.91078],[-1.92684,-1.55224]],[[43.39256,-15.0799],[1.20217,2.02717],[-0.73312,-1.23622]],[[39.93881,-17.43407],[0.79717,0.96862],[-0.52338,-0.63594]],[[39.4401,-19.85407],[0.42054,0.70816],[-1.01355,-1.70677]],[[37.71688,-25.32696],[0.32987,1.96761],[0,0]]],&quot;closed&quot;:true,&quot;fillColor&quot;:[0,0,0,1]}]}" fill="#ffffff" fill-rule="nonzero" stroke="none" stroke-width="0.5" stroke-linecap="butt"/></g></g></svg>