<svg version="1.1" xmlns="http://www.w3.org/2000/svg" xmlns:xlink="http://www.w3.org/1999/xlink" width="1733.09309" height="836.33634" viewBox="0,0,1733.09309,836.33634"><g transform="translate(546.54655,238.16817)"><g data-paper-data="{&quot;isPaintingLayer&quot;:true}" stroke-linejoin="miter" stroke-miterlimit="10" stroke-dasharray="" stroke-dashoffset="0" style="mix-blend-mode: normal"><path d="M-546.54655,598.16817v-836.33634h1733.09309v836.33634z" fill="none" fill-rule="nonzero" stroke="#f00000" stroke-width="0" stroke-linecap="butt"/><path d="M164.31223,322.94222l33.51062,-26.20201l93.63269,-0.23395l-19.71212,26.43595z" fill="#cedce9" fill-rule="nonzero" stroke="#000000" stroke-width="0" stroke-linecap="round"/><path d="M155.40589,321.56833c-3.23389,-0.36981 -10.93005,-0.94626 -7.55727,-1.54218c-1.844,0.19096 -4.30412,0.42411 -5.61315,0.48683c-6.20127,0.29713 -14.23792,0 -20.63695,0c-17.55532,0 -34.59883,-0.15772 -51.59221,0.58996c-7.67977,0.33789 -9.79093,-0.70555 -12.14916,0.75443c-4.86436,2.44969 -14.01637,4.63565 -19.89547,7.10174c-7.9681,3.34232 -11.05811,6.56903 -15.94283,9.92039c-5.52757,2.75992 -1.025,8.05892 -1.025,11.13083c0,0.82229 1.55061,2.286 0.06965,2.89127c1.47223,0.03058 2.89418,0.05848 3.79981,0.05848c6.01912,0 12.03817,0 18.05732,0c23.94306,0 51.76182,-0.11974 75.00121,-1.44842c27.59276,-1.41743 57.49806,0.61518 85.31277,-0.65703c15.23203,-0.63807 31.83586,-0.25878 47.34465,-0.25428c7.86761,0.00228 14.60498,-0.68112 18.05729,0.58995c0.90739,0.33409 0,-0.78659 0,-1.17988c0,-0.98322 0,-1.96652 0,-2.94974c0,-5.50617 0,-11.01233 0,-16.5185c0,-1.3017 -1.49199,-5.95868 1.5946,-6.46262c-0.57897,-0.00791 -1.23426,-0.02077 -1.5946,-0.0268c-3.19203,-0.05326 -4.97543,-0.01302 -7.46653,-0.41952c-4.32469,-0.70571 -18.91496,-0.17042 -24.77861,-0.17042c-22.78658,0 -45.57311,0 -68.3597,0c0,0 -5.15921,0 -5.15921,-1.17988c0,-0.04844 0.00864,-0.09486 0.02534,-0.13939c-2.46639,-0.11956 -4.9577,-0.28536 -7.49184,-0.57513zM236.39149,321.103c13.75515,0 31.33537,-0.56015 40.72895,1.83212c5.3829,1.37085 1.83453,5.76613 1.83453,7.60704c0,5.50617 0,11.01232 0,16.51849c0,0.62876 1.77701,3.74776 0,4.12963c-17.94876,3.85692 -51.77923,0.84931 -73.69667,1.97832c-27.19829,1.24402 -58.52042,-1.12657 -84.83379,0.6324c-23.95197,1.36944 -52.80767,1.5189 -77.50383,1.5189c-3.54239,0 -24.78633,0.61354 -27.08588,0c-6.59428,-1.75943 -5.15921,-3.22712 -5.15921,-5.30953c0,-3.76661 -2.9196,-8.25642 1.55455,-11.87708c5.00655,-3.43492 8.51759,-6.87999 16.50277,-10.22948c3.22112,-1.35111 6.70037,-3.15843 10.86308,-4.37875c2.72386,-0.7985 7.93168,-1.44729 8.58236,-2.48531c4.41379,-2.7326 12.39022,-1.83725 21.82839,-2.29652c16.80111,-0.81757 34.18712,-0.58996 51.59221,-0.58996c6.41889,0 18.96058,-0.67558 23.48881,-0.46538c7.88258,0.36595 12.45236,1.90331 20.09224,2.35979c5.60602,0.33496 11.51373,0.13667 18.05732,0.88492c0.49676,0.05683 0.99342,0.11361 1.49024,0.17042c17.22133,0 34.44276,0 51.66413,0z" fill="#000000" fill-rule="nonzero" stroke="none" stroke-width="0" stroke-linecap="butt"/><path d="M162.96956,322.08685c-0.01671,0.04452 -0.02475,0.09098 -0.02475,0.13942c0,1.17989 5.18455,1.1819 5.18455,1.1819c22.78654,0 45.69452,0.02346 68.48118,0.02346c5.86362,0 20.46717,-0.52978 24.79186,0.1759c2.49105,0.40651 4.27852,0.36825 7.47043,0.42149c0.3603,0.00602 1.01613,0.01917 1.5952,0.02709c-3.08662,0.50394 -1.57896,5.17222 -1.57896,6.47392c0,5.50617 -0.01076,11.0451 -0.01076,16.55127c0,0.98325 -0.0088,1.97128 -0.0088,2.9545c0,0.39329 0.9035,1.51575 -0.0039,1.18167c-3.45229,-1.27106 -10.19581,-0.58514 -18.06335,-0.58741c-15.5088,-0.00449 -32.1596,-0.37033 -47.39158,0.26777c-27.81475,1.27222 -57.99335,-0.74894 -85.58613,0.66848c-23.23939,1.32869 -51.17108,1.42788 -75.11432,1.42788c-6.01914,0 -12.04873,-0.00371 -18.06785,-0.00371c-0.90571,0 -2.3296,-0.02864 -3.80175,-0.05922c1.48098,-0.60528 -0.07924,-2.07314 -0.07924,-2.89544c0,-3.0719 -4.52684,-8.39132 1.00085,-11.15126c4.88478,-3.35137 7.98535,-6.60048 15.95345,-9.94279c5.87919,-2.46611 15.06982,-4.66964 19.93423,-7.1193c2.35822,-1.45998 4.4854,-0.42102 12.16514,-0.75891c16.99333,-0.74765 34.14754,-0.60647 51.70273,-0.60647c6.39893,0 14.50751,0.29417 20.70878,-0.00295c1.3089,-0.06273 3.78955,-0.29586 5.63354,-0.48682c-3.37287,0.5959 4.35383,1.17308 7.58778,1.54286c2.53424,0.28977 5.05561,0.45714 7.52193,0.5767z" fill="#484848" fill-rule="nonzero" stroke="none" stroke-width="0" stroke-linecap="butt"/><path d="M90.64347,326.41255c0,0.39875 1.77858,0.88204 0.8921,1.19778c2.26744,0.05337 4.54827,0.16994 6.57435,0.40163c7.81194,0.8933 23.70353,4.14835 25.20199,6.30031c0.12184,0.17503 -2.0872,0.20428 -1.71311,0.35951c1.24483,0.51651 11.38938,-0.3811 12.55632,-0.23443c0.26405,0.03318 0.39375,0.08489 0.44572,0.14784c-0.05432,-0.19549 -0.10404,-0.38446 -0.10404,-0.50337c0,-0.41795 0.07221,-0.86834 -0.74507,-1.24217c-6.94709,-3.29491 -18.29746,-6.42715 -37.94899,-6.42715c0,0 -2.31904,-0.00001 -3.84764,-0.35557c-0.50973,-0.06622 -0.90615,-0.14412 -1.17189,-0.23545c-0.0683,0.22509 -0.13978,0.45421 -0.13978,0.59104zM134.49678,335.26169c0.3521,0.24157 0.24826,-0.1594 0.13126,-0.57887c-0.02449,0.18204 -0.37195,0.41379 -0.13126,0.57887zM142.98057,331.78433c6.41519,2.93422 -8.15102,7.2214 -21.38194,5.24723c-12.48347,-1.86267 -16.71065,-5.60622 -28.10334,-6.90894c-3.84882,-0.44012 -8.46069,-0.68038 -11.33588,-1.41259c-4.55627,-1.16038 -2.53653,-5.12267 6.17661,-5.12267c6.27407,0 9.3643,0.46538 15.20535,0.46538h2.5796c0,0 2.96127,0.00002 4.39682,0.51307c15.2825,1.14088 25.08922,4.0395 32.46283,7.21849z" fill="#000000" fill-rule="nonzero" stroke="none" stroke-width="0" stroke-linecap="butt"/><path d="M90.59181,325.78196c0.26562,0.09135 0.6622,0.16919 1.17199,0.23543c1.52857,0.35557 3.85813,0.35303 3.85813,0.35303c19.6515,0 31.41162,3.20151 38.35865,6.49643c0.81726,0.37381 0.72256,0.83243 0.72256,1.25035c0,0.11891 0.0402,0.31061 0.09452,0.5061c-0.05186,-0.06298 -0.18035,-0.11497 -0.44453,-0.14819c-1.16692,-0.14666 -11.39939,0.76647 -12.64422,0.24997c-0.37414,-0.15523 1.5899,-0.28809 1.46794,-0.46316c-1.49841,-2.15197 -17.46667,-5.39049 -25.27871,-6.28377c-2.02616,-0.23169 -4.32006,-0.34346 -6.58752,-0.39684c0.8865,-0.31576 -0.87094,-0.80631 -0.87094,-1.20506c0,-0.13683 0.08337,-0.36922 0.15184,-0.5943z" fill="#ffffff" fill-rule="nonzero" stroke="none" stroke-width="0" stroke-linecap="butt"/><path d="M367.45187,315.94222l-19.71212,-26.43596l93.63269,0.23395l33.51063,26.20201z" data-paper-data="{&quot;index&quot;:null}" fill="#cedce9" fill-rule="nonzero" stroke="#000000" stroke-width="0" stroke-linecap="round"/><path d="M483.78923,314.56843c-2.53413,0.28978 -5.02545,0.45558 -7.49183,0.57513c0.01671,0.04453 0.02535,0.09095 0.02535,0.13939c0,1.17987 -5.15921,1.17987 -5.15921,1.17987c-22.78659,0 -45.57312,0 -68.35969,0c-5.86365,0 -20.45392,-0.53529 -24.77862,0.17041c-2.4911,0.4065 -4.2745,0.36626 -7.46652,0.41953c-0.36034,0.00603 -1.01563,0.01889 -1.5946,0.02679c3.08659,0.50394 1.5946,5.16093 1.5946,6.46263c0,5.50617 0,11.01233 0,16.5185c0,0.98321 0,1.96652 0,2.94974c0,0.39329 -0.90739,1.51397 0,1.17987c3.45231,-1.27107 10.18967,-0.58767 18.05729,-0.58995c15.50879,-0.0045 32.11262,-0.38379 47.34465,0.25428c27.81472,1.27222 57.72001,-0.7604 85.31277,0.65703c23.23938,1.32867 51.05815,1.44842 75.00121,1.44842c6.01915,0 12.03819,0 18.05732,0c0.90563,0 2.32758,-0.0279 3.79981,-0.05848c-1.48096,-0.60526 0.06965,-2.06898 0.06965,-2.89127c0,-3.07191 4.50257,-8.37092 -1.02501,-11.13083c-4.88473,-3.35136 -7.97473,-6.57808 -15.94283,-9.92039c-5.8791,-2.46609 -15.03111,-4.65206 -19.89548,-7.10174c-2.35823,-1.45999 -4.46939,-0.41654 -12.14915,-0.75443c-16.99338,-0.74768 -34.0369,-0.58996 -51.59222,-0.58996c-6.39904,0 -14.43568,0.29714 -20.63695,0c-1.30903,-0.06272 -3.76915,-0.29586 -5.61315,-0.48683c3.37279,0.59591 -4.32338,1.17237 -7.55727,1.54218zM402.80357,314.10302c17.22136,0 34.4428,0 51.66413,0c0.49682,-0.0568 0.99348,-0.11359 1.49024,-0.17042c6.5436,-0.74824 12.45131,-0.54995 18.05732,-0.88492c7.63988,-0.45648 12.20966,-1.99384 20.09225,-2.35978c4.52823,-0.2102 17.06992,0.46538 23.48881,0.46538c17.4051,0 34.7911,-0.22762 51.59221,0.58995c9.43817,0.45927 17.4146,-0.43608 21.82839,2.29651c0.65069,1.03801 5.85851,1.68681 8.58236,2.48531c4.16271,1.22032 7.64196,3.02763 10.86308,4.37875c7.98518,3.34948 11.49622,6.79456 16.50277,10.22948c4.47415,3.62067 1.55455,8.11047 1.55455,11.87708c0,2.08241 1.43507,3.55009 -5.1592,5.30953c-2.29956,0.61354 -23.5435,0 -27.08589,0c-24.69616,0 -53.55186,-0.14946 -77.50383,-1.5189c-26.31336,-1.75896 -57.63549,0.61162 -84.83378,-0.6324c-21.91744,-1.12901 -55.7479,1.8786 -73.69666,-1.97832c-1.77701,-0.38187 0,-3.50088 0,-4.12964c0,-5.50617 0,-11.01232 0,-16.51848c0,-1.84091 -3.54837,-6.23619 1.83453,-7.60704c9.39358,-2.39227 26.9738,-1.83211 40.72896,-1.83211z" data-paper-data="{&quot;index&quot;:null}" fill="#000000" fill-rule="nonzero" stroke="none" stroke-width="0" stroke-linecap="butt"/><path d="M476.22549,315.08687c2.46632,-0.11955 4.98769,-0.28694 7.52193,-0.5767c3.23394,-0.36978 10.96065,-0.94696 7.58778,-1.54286c1.84399,0.19096 4.32464,0.42409 5.63354,0.48682c6.20128,0.29712 14.30986,0.00295 20.70879,0.00295c17.55519,0 34.70941,-0.14117 51.70274,0.60648c7.67974,0.33788 9.80691,-0.70107 12.16514,0.7589c4.86441,2.44966 14.05504,4.65319 19.93423,7.1193c7.9681,3.34231 11.06867,6.59143 15.95345,9.94279c5.52769,2.75993 1.00085,8.07935 1.00085,11.15125c0,0.8223 -1.56022,2.29016 -0.07924,2.89544c-1.47215,0.03058 -2.89604,0.05923 -3.80175,0.05923c-6.01912,0 -12.04871,0.00371 -18.06785,0.00371c-23.94324,0 -51.87493,-0.09918 -75.11432,-1.42788c-27.59278,-1.41742 -57.77139,0.60374 -85.58613,-0.66848c-15.23199,-0.6381 -31.88278,-0.27227 -47.39158,-0.26777c-7.86754,0.00227 -14.61106,-0.68364 -18.06335,0.58742c-0.9074,0.33408 -0.0039,-0.78838 -0.0039,-1.18167c0,-0.98321 -0.0088,-1.97125 -0.0088,-2.9545c0,-5.50617 -0.01076,-11.0451 -0.01076,-16.55127c0,-1.30169 1.50765,-5.96999 -1.57897,-6.47392c0.57907,-0.00793 1.23491,-0.02107 1.5952,-0.02709c3.19191,-0.05325 4.97939,-0.01498 7.47044,-0.42149c4.32468,-0.70568 18.92824,-0.1759 24.79186,-0.1759c22.78667,0 45.69464,-0.02346 68.48118,-0.02346c0,0 5.18455,-0.00201 5.18455,-1.1819c0,-0.04844 -0.00804,-0.09489 -0.02475,-0.13941z" data-paper-data="{&quot;index&quot;:null}" fill="#484848" fill-rule="nonzero" stroke="none" stroke-width="0" stroke-linecap="butt"/><path d="M548.5518,319.41253c0,-0.13682 -0.07147,-0.36595 -0.13978,-0.59104c-0.26574,0.09133 -0.66216,0.16924 -1.17189,0.23546c-1.5286,0.35557 -3.84764,0.35557 -3.84764,0.35557c-19.65152,0 -31.0019,3.13224 -37.94899,6.42715c-0.81729,0.37383 -0.74507,0.82422 -0.74507,1.24217c0,0.11891 -0.04972,0.30789 -0.10404,0.50338c0.05197,-0.06295 0.18168,-0.11466 0.44572,-0.14783c1.16694,-0.14667 11.31149,0.75093 12.55632,0.23442c0.37409,-0.15524 -1.83495,-0.18448 -1.71311,-0.35951c1.49847,-2.15197 17.39006,-5.40701 25.202,-6.30032c2.02609,-0.23169 4.30692,-0.34826 6.57436,-0.40163c-0.88648,-0.31574 0.89209,-0.79903 0.89209,-1.19779zM504.56721,327.68282c-0.117,0.41947 -0.22084,0.82044 0.13126,0.57887c0.24069,-0.16507 -0.10677,-0.39683 -0.13126,-0.57887zM496.21458,324.78431c7.37361,-3.17899 17.18033,-6.07762 32.46283,-7.2185c1.43555,-0.51306 4.39681,-0.51308 4.39681,-0.51308h2.57961c5.84105,0 8.93128,-0.46537 15.20535,-0.46537c8.71315,0 10.73289,3.9623 6.17662,5.12268c-2.87519,0.73221 -7.48707,0.97246 -11.33588,1.41258c-11.39268,1.30271 -15.61987,5.04627 -28.10334,6.90894c-13.23092,1.97417 -27.79713,-2.31302 -21.38194,-5.24723z" data-paper-data="{&quot;index&quot;:null}" fill="#000000" fill-rule="nonzero" stroke="none" stroke-width="0" stroke-linecap="butt"/><path d="M548.60376,318.78192c0.06847,0.22508 0.15184,0.45748 0.15184,0.59431c0,0.39875 -1.75744,0.8893 -0.87094,1.20506c-2.26746,0.05338 -4.56135,0.16515 -6.58751,0.39684c-7.81203,0.89328 -23.7803,4.1318 -25.27871,6.28377c-0.12196,0.17507 1.84208,0.30792 1.46794,0.46315c-1.24482,0.5165 -11.4773,-0.39663 -12.64422,-0.24996c-0.26417,0.03322 -0.39267,0.08522 -0.44453,0.14819c0.05432,-0.19549 0.09452,-0.38719 0.09452,-0.5061c0,-0.41793 -0.0947,-0.87654 0.72256,-1.25035c6.94703,-3.29492 18.70715,-6.49643 38.35865,-6.49643c0,0 2.32956,0.00254 3.85813,-0.35303c0.50979,-0.06624 0.90637,-0.14408 1.172,-0.23543z" data-paper-data="{&quot;index&quot;:null}" fill="#ffffff" fill-rule="nonzero" stroke="none" stroke-width="0" stroke-linecap="butt"/><g stroke="none" stroke-linecap="butt"><path d="M426.70645,17.33489c0.50528,-0.00139 1.01056,-0.00277 1.51584,-0.00415c13.94379,13.44826 27.96007,26.79988 42.04834,40.05482c3.69036,2.49558 6.90214,5.51848 9.62524,9.06873c0.50574,0.16702 1.01149,0.33411 1.51723,0.50112c2.18004,2.67253 4.54663,5.19247 7.0947,7.55982c0.67296,0.33519 1.35095,0.66984 2.02389,1.00502c2.7231,3.55025 5.9349,6.57314 9.62525,9.06873c29.74834,28.48923 59.80439,56.78714 90.17319,84.89319c0.00139,0.50528 0.00277,1.01056 0.00415,1.51584c-1.7432,1.85614 -3.6738,3.54604 -5.79687,5.06872c-1.64942,-0.80041 -3.16803,-1.8068 -4.55583,-3.01922c0.41452,48.00032 0.9705,96.00076 1.65787,144.00133c-99.84809,0.38178 -199.64139,0.65529 -299.37841,0.82051c-5.48481,0.01553 -10.78933,0.36711 -15.91355,1.05417c-0.50528,0.00139 -1.01057,0.00277 -1.51585,0.00416c-0.10034,-4.16225 -0.11188,-8.37274 -0.03462,-12.632c-98.02338,0.61224 -196.04677,1.21793 -294.07019,1.81652c0.15121,-12.04891 0.45507,-24.09218 0.91154,-36.1303c-0.13189,-1.08903 -0.47152,-2.09866 -1.01886,-3.02891c0.62973,-2.71206 0.95898,-5.49203 0.9877,-8.33989c0.49595,-20.54923 0.94492,-41.09883 1.34689,-61.64831c-3.88792,0.17791 -7.76223,0.01977 -11.62283,-0.47342c-0.70053,-2.13291 -1.54821,-4.15173 -2.54302,-6.05644c-0.00185,-0.67353 -0.00369,-1.34759 -0.00554,-2.02112c39.07497,-0.10709 78.15015,-0.21419 117.22496,-0.32128c-0.08171,-29.81152 -0.16341,-59.62305 -0.24511,-89.43456c-0.53134,0.07674 -1.03686,-0.00575 -1.51654,-0.24849c-5.40354,-3.88346 -10.80397,-7.74267 -16.2008,-11.57712c-0.44652,-0.68394 -0.61737,-1.4414 -0.51151,-2.27238c85.56012,-0.40275 171.12074,-0.80602 256.68086,-1.20876c0.14721,1.72262 0.48885,3.40579 1.0244,5.05003c12.29205,0.19268 24.58635,-0.09365 36.88337,-0.85901c24.68092,-24.39711 49.54264,-48.46622 74.58411,-72.20735z" fill="#000000" fill-rule="evenodd" stroke-width="1"/><path d="M427.21729,19.35461c17.42889,15.90343 34.65295,32.10955 51.67219,48.61827c16.02764,14.76291 31.89914,29.70915 47.61957,44.83974c0.67296,0.33519 1.35095,0.66984 2.02389,1.00502c2.18004,2.67253 4.54663,5.19247 7.0947,7.55982c0.50574,0.16687 1.01149,0.33426 1.51723,0.50112c8.95322,9.07158 18.07272,17.97293 27.35851,26.70506c3.69036,2.49558 6.90215,5.51849 9.62525,9.06873c3.17355,1.97757 5.87362,4.49659 8.10526,7.55704c2.31776,1.29728 4.3435,2.97584 6.0772,5.03618c-1.18886,1.31952 -2.44859,2.58619 -3.77921,3.79998c-0.66972,-1.00216 -1.596,-1.5893 -2.78389,-1.76086c-0.76092,-1.09286 -1.52184,-2.18523 -2.28276,-3.27809c-4.24982,-3.828 -8.55509,-7.60583 -12.9158,-11.33349c-2.04923,-2.88007 -4.58211,-5.23128 -7.59859,-7.05315c-8.1269,-8.0835 -16.57116,-15.80786 -25.32771,-23.17364c-22.56789,-20.97815 -45.1914,-41.96982 -67.88063,-62.97444c-2.47721,-1.95579 -4.84084,-4.13885 -7.09193,-6.54926c-0.50574,-0.16702 -1.01148,-0.3341 -1.51722,-0.50112c-3.85841,-4.26206 -7.91172,-8.29321 -12.15995,-12.09348c-6.19845,-5.58105 -12.44558,-11.03788 -18.74036,-16.37036c-0.3368,0.08516 -0.67308,0.17025 -1.00988,0.25541c-31.32566,31.49767 -62.65079,62.99515 -93.97645,94.49299c-0.33519,0.67446 -0.33333,1.34851 0.00554,2.02112c3.3964,2.53783 6.26813,5.56167 8.61469,9.0715c7.78311,6.90055 15.0461,14.29164 21.78797,22.17277c4.40152,3.87408 8.62311,7.90478 12.66524,12.09209c0.84554,1.1765 1.69055,2.35352 2.5361,3.53003c4.89747,4.70239 9.79442,9.40529 14.6919,14.10768c0.16965,0.50481 0.3398,1.00964 0.50943,1.51446c4.95226,4.96953 10.01844,9.84024 15.19856,14.61158c0.67631,1.00871 1.35312,2.01743 2.02943,3.02614c2.95353,2.26569 5.57147,4.86932 7.85331,7.81038c-2.44678,1.95458 -4.71478,4.0663 -6.80397,6.3347c-26.33032,-28.2025 -53.01854,-56.08874 -80.06412,-83.65769c-1.53027,-2.86531 -3.72565,-5.04919 -6.58665,-6.55064c-19.12837,19.2335 -38.27638,38.48677 -57.44404,57.75978c-1.60421,2.05181 -2.18742,4.41106 -1.74909,7.07877c-100.54867,1.0234 -201.09778,1.88865 -301.64732,2.59523c-0.67833,-1.68224 -1.35665,-3.36501 -2.03498,-5.04726c98.86497,-0.69338 197.73089,-1.21699 296.59728,-1.57081c-0.42896,-2.01945 -0.68715,-4.03988 -0.77454,-6.06128c29.58373,-28.80546 59.23217,-57.6035 88.94581,-86.39466c0.47834,-0.24537 0.9834,-0.33063 1.51515,-0.2568c0.02635,-1.63213 0.86611,-2.56062 2.51878,-2.78596c4.09965,-4.50422 8.29814,-8.89502 12.596,-13.1719c0.84093,-0.50759 1.68132,-1.01517 2.52224,-1.52276c3.87408,-4.40152 7.90478,-8.62311 12.09209,-12.66524c1.1765,-0.84537 2.35353,-1.69071 3.53003,-2.5361c3.53797,-4.06343 7.23258,-7.94742 11.08431,-11.65191c1.34481,-1.01425 2.68912,-2.02851 4.03393,-3.04276c10.68374,-10.32055 21.26623,-20.70787 31.74747,-31.16197z" fill="#524950" fill-rule="evenodd" stroke-width="1"/><path d="M425.73331,30.98021c7.96074,6.82125 15.72783,13.95815 23.30174,21.4107c0.50574,0.16702 1.01148,0.3341 1.51722,0.50113c2.05126,2.88025 4.58412,5.23132 7.59859,7.05315c6.5954,6.05807 13.01438,12.27254 19.25189,18.64274c2.62256,1.89268 5.1545,3.90688 7.59582,6.04258c6.2375,6.3702 12.65648,12.58478 19.25188,18.64274c3.01648,1.82186 5.54934,4.17309 7.59859,7.05315c0.50574,0.16687 1.01148,0.33426 1.51722,0.50112c7.47839,7.44053 15.24371,14.49323 23.30104,21.15806c5.74006,5.54239 11.48516,11.08477 17.22521,16.62716c4.55214,3.51794 8.77174,7.37987 12.66385,11.58681c0.67296,0.33519 1.35095,0.66984 2.02389,1.00502c2.81385,3.47268 5.93995,6.57971 9.3733,9.32206c0.88029,48.33455 1.60396,96.67156 2.16591,145.01052c-75.11998,0.20588 -150.23641,0.41176 -225.35488,0.61763c-1.12082,-36.72703 -2.14717,-73.27341 -3.07954,-109.63815c-0.17334,-1.8524 -0.34719,-3.70428 -0.52051,-5.5567c-2.43868,-2.82745 -4.63636,-5.85312 -6.59358,-9.07704c-2.71117,-1.22648 -5.15808,-2.81949 -7.33972,-4.78008c-1.01194,-0.50251 -2.02389,-1.00502 -3.03583,-1.50753c-4.96224,-0.49674 -9.9318,-0.90403 -14.90922,-1.22235c-1.32893,-0.01454 -2.59144,0.24155 -3.78752,0.76831c-2.66903,2.16841 -5.52738,4.02913 -8.57453,5.58162c-2.46336,4.20666 -5.23155,8.17214 -8.30457,11.89692c-0.30846,37.89612 -0.45724,75.79282 -0.44634,113.69008c-10.61088,0.02908 -21.22176,0.05816 -31.83264,0.08724c-0.04529,-41.96672 -0.07585,-83.90519 -0.09218,-125.81541c19.48655,-19.25572 38.63364,-38.84599 57.44127,-58.77035c28.7742,29.79402 57.40492,59.77994 85.89216,89.95775c0.67446,0.33519 1.34851,0.33333 2.02112,-0.00554c2.09881,-2.44779 4.36634,-4.72777 6.80258,-6.83998c0.39104,23.58204 0.87658,47.16078 1.45708,70.73575c35.70662,-0.09786 71.41123,-0.19572 107.11935,-0.29358c0.55901,-35.70488 0.46116,-71.411 -0.29358,-107.11935c-8.68473,-3.28783 -17.28395,-6.71737 -25.79767,-10.28761c-5.88358,-0.75746 -11.78205,-1.41483 -17.69035,-1.97265c-15.88952,0.59986 -31.71829,1.99083 -47.48525,4.17241c-5.68599,3.4879 -11.48773,6.78813 -17.40516,9.90073c-0.23721,10.78745 -0.20768,21.56659 0.08863,32.33792c-28.22416,-29.31752 -56.5165,-58.63034 -84.87605,-87.9394c30.48473,-30.99025 61.13819,-61.81218 91.96088,-92.46634c0.23363,-0.30098 0.31709,-0.63808 0.24987,-1.01125z" fill="#3b3d50" fill-rule="evenodd" stroke-width="1"/><path d="M421.32011,80.00484c7.7633,-0.88076 15.17697,0.27825 22.24201,3.47603c0.71094,9.58632 1.07427,19.18571 1.08951,28.79819c-11.11616,0.03046 -22.23232,0.06094 -33.34848,0.0914c-0.11023,-9.43335 -0.0517,-18.86514 0.1751,-28.29638c1.3858,-0.99314 2.81522,-1.92325 4.28726,-2.79081c1.98541,-0.12772 3.83712,-0.5537 5.55461,-1.27843z" fill="#000000" fill-rule="evenodd" stroke-width="1"/><path d="M422.8401,81.51652c6.76985,-0.71231 13.17347,0.44898 19.21033,3.48434c0.65915,8.57639 1.01972,17.16523 1.08119,25.76652c-10.10561,0.0277 -20.21119,0.05539 -30.3168,0.08309c-0.19182,-8.59587 -0.0466,-17.18609 0.43465,-25.77067c1.17674,-0.76115 2.35399,-1.5223 3.53072,-2.28345c2.13991,-0.17514 4.15988,-0.60157 6.0599,-1.27982z" fill="#587cac" fill-rule="evenodd" stroke-width="1"/><path d="M186.88952,87.72132c41.93929,-0.28321 83.87799,-0.22988 125.8161,0.16046c0.47046,1.48779 0.81112,3.00268 1.02303,4.54475c12.12979,-0.38341 24.25583,-0.66928 36.37808,-0.85763c-1.99572,1.16156 -3.67566,2.68201 -5.04034,4.56138c-11.96084,0.45368 -23.91903,0.40207 -35.87556,-0.15431c-0.34026,-1.17789 -0.68,-2.35629 -1.02026,-3.53418c-9.85343,-0.14126 -19.70684,-0.28302 -29.56027,-0.42427c-67.62199,0.6037 -135.24421,1.12605 -202.86716,1.56657c0.1664,1.7165 0.00275,3.40157 -0.49143,5.05419c-4.20366,-3.76041 -8.76018,-7.03227 -13.66956,-9.81557c41.85413,-0.19909 83.62342,-0.56622 125.30736,-1.10136z" fill="#524950" fill-rule="evenodd" stroke-width="1"/><path d="M250.06613,93.61157c18.86619,-0.21996 37.73078,-0.10341 56.59275,0.35017c0.49979,1.31035 0.84049,2.65649 1.02164,4.03947c11.79098,-0.1167 23.58091,-0.06463 35.3703,0.1557c-25.01882,24.81838 -50.38464,49.30978 -76.09649,73.47471c-59.27477,1.50095 -118.55826,2.58961 -177.85095,3.2665c-3.82801,0.00645 -7.61807,-0.15143 -11.37018,-0.47412c-0.32464,-26.27336 -0.48105,-52.5477 -0.46867,-78.823c57.7727,-0.16037 115.37324,-0.8235 172.80161,-1.98945z" fill="#6f6a69" fill-rule="evenodd" stroke-width="1"/><path d="M255.13143,98.14524c1.18685,-0.02449 1.862,0.56334 2.02597,1.76294c-0.44516,20.28129 -0.55829,40.57733 -0.33841,60.88762c-45.81129,0.46512 -91.62209,0.92718 -137.43339,1.38723c-0.05539,-20.2112 -0.11078,-40.4224 -0.16618,-60.6336c39.74677,-0.69102 79.4935,-1.38913 119.24123,-2.0953c5.7498,0.05902 11.30671,-0.37711 16.67079,-1.30889z" fill="#000000" fill-rule="evenodd" stroke-width="1"/><path d="M239.97991,100.71319c5.0528,-0.01384 10.10561,-0.0277 15.1584,-0.04155c0.05354,19.53767 0.10709,39.07482 0.16063,58.61249c-7.07392,0.01939 -14.14783,0.03877 -21.22176,0.05816c0.13235,-19.36941 0.24803,-38.73878 0.34602,-58.10859c1.95637,0.15379 3.80878,-0.01954 5.55669,-0.52052z" fill="#524950" fill-rule="evenodd" stroke-width="1"/><path d="M205.62226,101.31263c9.09503,-0.02493 18.19008,-0.04985 27.28513,-0.07478c-0.12123,19.36938 -0.23642,38.73924 -0.34602,58.10859c-29.47462,0.40518 -58.9482,0.82246 -88.42124,1.25291c-0.05263,-19.20064 -0.10524,-38.40129 -0.15787,-57.60193c20.63332,-0.3486 41.18016,-0.9102 61.64,-1.68478z" fill="#587cac" fill-rule="evenodd" stroke-width="1"/><path d="M137.41365,103.01543c1.6841,-0.00462 3.36871,-0.00924 5.0528,-0.01384c0.05263,19.20064 0.10524,38.40129 0.15787,57.60193c-7.24217,0.01985 -14.48487,0.0397 -21.72704,0.05955c-0.05216,-19.03239 -0.10432,-38.06426 -0.15649,-57.09664c5.64898,0.15026 11.2066,-0.03324 16.67286,-0.55098z" fill="#524950" fill-rule="evenodd" stroke-width="1"/><path d="M477.64573,167.26456c7.4341,0.5036 14.84359,1.24122 22.23855,2.21283c7.0728,3.2594 14.32636,6.10247 21.75058,8.53022c1.43631,0.47558 2.70158,1.23005 3.79583,2.26337c0.49887,34.53175 0.51264,69.05927 0.03125,103.58311c-34.69758,0.09509 -69.39162,0.19018 -104.08769,0.28527c-0.3254,-30.23277 -0.74527,-60.46426 -1.25913,-90.69499c0.15695,-4.12708 0.31441,-8.25367 0.47135,-12.38075c5.60501,-3.53922 11.40697,-6.75558 17.40585,-9.6481c13.27821,-1.52648 26.49416,-2.90978 39.65341,-4.15094z" fill="#587cac" fill-rule="evenodd" stroke-width="1"/><path d="M243.71771,173.9691c7.07571,-0.10377 14.14987,-0.03878 21.22246,0.19447c-3.94122,2.95054 -7.55356,6.24478 -10.83651,9.88273c-0.14354,1.82851 0.28247,3.51196 1.27706,5.04934c-59.28781,0.06346 -118.57337,0.39419 -177.85718,0.99274c-0.01247,-4.54752 -0.02493,-9.09504 -0.03739,-13.64256c55.49553,-0.65839 110.90624,-1.4838 166.23158,-2.47673z" fill="#3f4366" fill-rule="evenodd" stroke-width="1"/><path d="M318.02712,185.89225c5.16616,0.23445 10.30472,0.72564 15.4152,1.47359c2.93636,2.08888 6.05678,3.84883 9.36222,5.27982c2.31271,3.51196 4.6803,6.95807 7.10231,10.33885c-0.08346,0.33726 -0.16642,0.674 -0.24987,1.01125c-1.94564,-1.76721 -3.71943,-3.6991 -5.32137,-5.79618c-2.82573,-0.98918 -5.60777,-2.076 -8.34612,-3.26147c-3.26835,-0.61658 -6.55336,-0.86022 -9.85504,-0.73092c-3.39251,1.64793 -6.92578,3.00521 -10.59981,4.07131c-2.56172,3.15999 -4.65725,6.61834 -6.28762,10.37555c-0.16909,30.48525 -0.16993,60.97105 -0.00199,91.45638c14.48499,-0.17815 28.96888,-0.38611 43.4527,-0.62437c0.12742,5.5598 0.31141,11.11741 0.55098,16.67285c-17.85305,0.04893 -35.70662,0.09786 -53.55968,0.14679c-0.00648,-37.39199 0.14368,-74.7834 0.45049,-112.17423c2.88089,-3.58732 5.39667,-7.46823 7.54735,-11.64221c3.69398,-1.89635 7.14056,-4.0957 10.34024,-6.59704z" fill="#6e685f" fill-rule="evenodd" stroke-width="1"/><path d="M327.14983,195.97292c5.24492,0.20896 10.30073,1.29005 15.16741,3.24278c2.62001,2.43788 5.06918,5.04197 7.34802,7.81176c1.23207,30.30405 2.24183,60.61832 3.02831,90.94278c-13.81095,0.17479 -27.62181,0.38139 -41.43158,0.61884c-0.16562,-29.64353 -0.16249,-59.28652 0.00891,-88.92998c1.45501,-3.39697 3.21471,-6.60176 5.27913,-9.61486c3.58426,-1.37206 7.11753,-2.72884 10.59981,-4.07131z" fill="#413142" fill-rule="evenodd" stroke-width="1"/><path d="M214.97907,196.78563c16.50599,-0.04524 33.01145,-0.09047 49.51744,-0.13571c0.00462,1.6841 0.00924,3.36871 0.01384,5.0528c-91.4543,0.75796 -182.90859,1.51389 -274.3629,2.26781c-0.06169,1.08906 0.19372,2.09892 0.76623,3.0296c1.01425,1.34481 2.02851,2.68912 3.04276,4.03393c0.01654,19.20175 -0.18347,38.40307 -0.60005,57.604c-6.73751,-0.1498 -13.47509,-0.3001 -20.21258,-0.44988c0.53223,-23.07828 1.14266,-46.15474 1.83141,-69.22889c80.08584,-0.59896 160.08695,-1.32349 240.00386,-2.17362z" fill="#6e685f" fill-rule="evenodd" stroke-width="1"/><path d="M220.04983,203.34042c14.82138,-0.04062 29.64327,-0.08125 44.46465,-0.12186c0.0097,3.53696 0.01939,7.07391 0.02908,10.61088c-56.7604,0.24197 -113.51932,0.65016 -170.27728,1.22462c-0.58395,17.57082 -0.53572,35.17125 0.14472,52.80176c-2.86343,0.00785 -5.72634,0.01569 -8.58977,0.02354c0.40933,-17.68099 0.52912,-35.36627 0.35987,-53.05578c-28.80054,0.23557 -57.60102,0.48327 -86.40149,0.74208c-0.24629,30.3177 -0.50003,60.63542 -0.76129,90.95316c-1.51584,0.00415 -3.03168,0.00831 -4.54752,0.01247c0.52768,-32.17085 0.86057,-64.34166 0.99871,-96.51195c-0.92979,-1.26065 -1.85963,-2.52133 -2.78942,-3.78198c60.54659,-0.76015 121.09465,-1.34699 181.6447,-1.76104c15.41457,-0.04225 30.65643,-0.42105 45.72507,-1.13588z" fill="#564b4e" fill-rule="evenodd" stroke-width="1"/><path d="M180.67124,215.57516c27.95866,-0.07663 55.91782,-0.15326 83.87649,-0.22988c0.00415,1.51584 0.00831,3.03167 0.01247,4.54752c-54.90775,-0.02585 -109.81497,-0.04413 -164.72267,-0.05383c-0.21419,3.7028 -0.37229,7.40848 -0.47481,11.11754c55.07509,-0.3091 110.15015,-0.62881 165.22518,-0.95811c0.06786,24.75872 0.13571,49.51744 0.20357,74.27616c-56.25198,0.64783 -112.50539,1.13903 -168.76076,1.47309c-0.24643,-29.81106 -0.49639,-59.62212 -0.7504,-89.43318c28.54979,0.08951 57.01377,-0.15676 85.39094,-0.73931z" fill="#6f6a69" fill-rule="evenodd" stroke-width="1"/><path d="M43.23644,216.45711c13.81082,-0.03786 27.62215,-0.0757 41.43296,-0.11355c0.12455,14.65389 0.08032,29.30725 -0.13216,43.96006c0.01342,2.86845 -0.40037,5.64864 -1.24035,8.34059c1.02865,12.31447 1.3991,24.69292 1.11234,37.13531c-27.95809,0.28327 -55.91629,0.52817 -83.8751,0.73516c0.26639,-29.81248 0.52155,-59.62492 0.76544,-89.43734c14.06644,0.1287 28.04557,-0.07787 41.93686,-0.62022z" fill="#6f6a69" fill-rule="evenodd" stroke-width="1"/><path d="M68.50462,217.90372c4.54752,-0.01247 9.09503,-0.02493 13.64256,-0.03739c-0.10564,4.04508 -0.26331,8.08779 -0.47205,12.12811c-25.11187,0.08296 -50.2067,0.48877 -75.28394,1.2169c-0.14374,-3.2021 -0.32096,-6.40157 -0.53159,-9.59894c-0.50528,0.00139 -1.01057,0.00277 -1.51585,0.00416c-0.00139,-0.50528 -0.00277,-1.01056 -0.00415,-1.51584c21.46148,-0.90163 42.84965,-1.6338 64.16503,-2.197z" fill="#000000" fill-rule="evenodd" stroke-width="1"/><path d="M69.52072,219.92206c3.70522,-0.01015 7.41094,-0.02031 11.11616,-0.03046c-0.26099,2.85657 -0.42139,5.72046 -0.48174,8.59115c-24.08477,0.22063 -48.16948,0.45489 -72.25366,0.7033c-0.13371,-2.5296 -0.3091,-5.05553 -0.52605,-7.57782c20.80037,-0.42233 41.51547,-0.98439 62.1453,-1.68617z" fill="#151b20" fill-rule="evenodd" stroke-width="1"/><path d="M101.35748,221.35065c54.40247,0.02572 108.8044,0.0449 163.20682,0.05798c0.00646,2.35814 0.01293,4.71577 0.01939,7.07391c-54.5698,0.31378 -109.13957,0.63161 -163.70934,0.95397c0.23517,-2.68976 0.39604,-5.38489 0.48313,-8.08586z" fill="#151b20" fill-rule="evenodd" stroke-width="1"/><path d="M-26.85209,269.704c6.73506,0.23772 13.47258,0.38752 20.21258,0.44989c-0.05307,12.12848 -0.18823,24.25565 -0.40557,36.38154c-6.90551,0.01893 -13.81098,0.03786 -20.71649,0.05678c0.24709,-12.29827 0.55021,-24.59418 0.90948,-36.88821z" fill="#3b3d50" fill-rule="evenodd" stroke-width="1"/><path d="M85.82538,269.39518c2.86343,-0.00785 5.72634,-0.01569 8.58977,-0.02354c0.03324,12.12672 0.06647,24.25344 0.09971,36.38017c-2.86343,0.00785 -5.72634,0.01569 -8.58977,0.02354c-0.03324,-12.12672 -0.06647,-24.25344 -0.09971,-36.38017z" fill="#3b3d50" fill-rule="evenodd" stroke-width="1"/><path d="M345.53008,145.12234c3.20762,2.15006 7.24048,5.19302 7.67904,9.32299c0.24311,2.28935 -0.66217,4.61625 -1.25314,6.78624c-1.34609,6.85565 -10.34214,8.6213 -16.16719,8.62803c-6.33174,-0.96574 -10.72411,-5.66581 -10.81116,-12.20209c-0.01034,-6.10774 0.86116,-14.4558 8.5334,-14.49967c3.96432,-0.01087 8.61694,-0.40559 12.20132,1.49759zM339.21175,144.19409c-1.89794,-0.07885 -3.88153,0.04847 -5.69774,0.05344c-6.91677,0.00059 -7.46689,7.96395 -7.44667,13.40698c-0.06285,5.79406 4.11218,10.4256 9.79571,11.1179c5.2146,-0.02337 13.91355,-1.50041 15.03081,-7.78456c0.55229,-2.03381 1.44706,-4.26331 1.23371,-6.40922c-0.36959,-3.71744 -4.15164,-6.50858 -7.06814,-8.46105c-0.12543,0.10251 -0.32744,0.18689 -0.59454,0.03524c-0.29602,-0.16809 -0.30208,-0.41611 -0.26496,-0.57856c-1.02473,-0.50117 -2.1944,-0.28741 -3.36315,-0.28422c-3.35656,0.0092 -8.81879,-0.39339 -11.29716,2.11457c0,0 -0.38421,0.38633 -0.77054,0.00211c-0.38632,-0.38422 -0.00211,-0.77054 -0.00211,-0.77054c2.37946,-2.37888 6.87203,-2.45848 10.4448,-2.44209z" fill="#00ffd7" fill-rule="nonzero" stroke-width="0.5"/><path d="M328.80648,146.67371c0,0 -0.38273,0.3847 0.00359,0.7689c0.38632,0.38422 0.68997,-0.07546 0.68997,-0.07546c2.47837,-2.50796 7.98848,-2.12177 11.34504,-2.13097c1.16875,-0.0032 2.35319,-0.21247 3.37792,0.2887c-0.03713,0.16246 -0.02902,0.41147 0.26699,0.57957c0.26707,0.15166 0.47115,0.06839 0.59658,-0.03411c2.91652,1.95249 6.72534,4.78305 7.09493,8.50049c0.21334,2.14591 -0.68449,4.40275 -1.23678,6.43656c-1.11725,6.28416 -9.88097,7.79435 -15.09558,7.81772c-5.68352,-0.6923 -9.89891,-5.37158 -9.83606,-11.16564c-0.02021,-5.44304 0.56147,-13.46087 7.47823,-13.46145c1.81621,-0.00498 3.82207,-0.0283 5.72,0.05056c-3.57277,-0.01638 -8.02539,0.04626 -10.40486,2.42514z" fill="#ffffff" fill-rule="nonzero" stroke-width="0.5"/><path d="M308.50862,140.92221c3.56973,0.29478 6.515,2.35675 9.0968,5.43755c2.05411,2.45124 4.74861,4.92817 4.94271,8.33603c0.11213,1.9687 -0.72612,3.87968 -1.2455,5.7163c-0.35616,1.25938 -0.67086,1.97868 -1.79558,2.73295c-3.73705,5.04165 -9.54945,7.25899 -15.52086,7.27535c-4.09824,0.01124 -6.07039,-2.72552 -9.26961,-4.84582c-1.41358,-0.93684 -3.23117,-1.57578 -4.31253,-2.83976c-0.80744,-0.94381 -1.44539,-2.69432 -1.46195,-3.91596c-0.00445,-1.6232 -0.32972,-3.62706 0.00499,-5.21089c0.87844,-4.15674 6.30772,-7.47943 9.41131,-9.92695c1.61087,-2.82564 4.337,-2.40664 7.00685,-2.57584c0.53427,-0.10184 1.0557,-0.16733 1.56498,-0.19835c0.18129,-0.03837 0.36119,-0.08325 0.53929,-0.13596l0.62187,-0.02268c0,0 0.2557,-0.0007 0.41724,0.17401zM303.06657,142.20761c-1.55346,0.13098 -2.96129,0.55798 -3.87818,2.17944c-2.87428,2.35326 -8.39975,5.56983 -9.18938,9.50523c-0.29882,1.48923 0.02857,3.39513 0.03276,4.92356c-0.03708,3.22558 3.02878,4.35436 5.26729,5.83777c2.99424,1.98422 4.88313,4.68746 8.6841,4.67705c5.76152,-0.01579 11.14426,-2.13759 14.77281,-6.97523c1.2668,-0.84955 1.34468,-1.75131 1.8637,-3.10869c2.02662,-5.3003 -0.62656,-8.34104 -3.84951,-12.18709c-2.73297,-3.26151 -5.81081,-5.32543 -9.77865,-5.07247c-0.31707,0.05072 -0.6398,0.08325 -0.96532,0.1051c-0.71846,0.1099 -1.4654,0.29321 -2.24374,0.55589c0,0 -0.51643,0.17372 -0.69013,-0.34271c-0.01147,-0.03411 -0.01993,-0.06671 -0.02573,-0.09786z" fill="#00ffd7" fill-rule="nonzero" stroke-width="0.5"/><path d="M303.08228,142.25194c0.17373,0.51643 0.69266,0.34229 0.69266,0.34229c0.77832,-0.26268 1.53452,-0.44648 2.25297,-0.55638c0.32551,-0.02187 0.65207,-0.05412 0.96914,-0.10484c3.96784,-0.25295 7.08335,1.83195 9.81631,5.09346c3.22295,3.84605 5.88592,6.93272 3.85931,12.233c-0.51901,1.35739 -0.60135,2.27119 -1.86814,3.12074c-3.62855,4.83761 -9.06624,6.98879 -14.82776,7.00458c-3.80097,0.01042 -5.7245,-2.71108 -8.71872,-4.6953c-2.23852,-1.48343 -5.31674,-2.63717 -5.27966,-5.86276c-0.00419,-1.52844 -0.33233,-3.45128 -0.03351,-4.94052c0.78963,-3.9354 6.34228,-7.19323 9.21656,-9.54647c0.91688,-1.62146 2.3416,-2.05466 3.89506,-2.18563c0.0058,0.03116 0.01428,0.06376 0.02575,0.09787z" fill="#ffffff" fill-rule="nonzero" stroke-width="0.5"/><path d="M305.12053,156.14852c-0.00288,-1.05321 0.84856,-1.90933 1.90177,-1.91222c1.05321,-0.00288 1.90933,0.84856 1.91222,1.90177c0.00288,1.05321 -0.84856,1.90933 -1.90177,1.91222c-1.05321,0.00288 -1.90933,-0.84856 -1.91222,-1.90177z" fill="#000000" fill-rule="nonzero" stroke-width="0.5"/><path d="M334.74668,156.67995c-0.00288,-1.05321 0.84856,-1.90933 1.90177,-1.91222c1.05321,-0.00288 1.90933,0.84856 1.91222,1.90177c0.00288,1.05321 -0.84856,1.90933 -1.90177,1.91222c-1.05321,0.00288 -1.90933,-0.84856 -1.91222,-1.90177z" fill="#000000" fill-rule="nonzero" stroke-width="0.5"/><path d="M323.96737,142.0612c-0.61359,0.53988 -1.15347,-0.07372 -1.15347,-0.07372l-0.71709,-0.81884c-2.14608,-1.77102 -4.51603,-3.14112 -6.75932,-4.78858c-2.0665,-1.51762 -4.10296,-3.95357 -6.37253,-5.05181c-2.70845,-2.2201 -6.17093,-3.3507 -8.82594,-5.72717c-2.30704,-2.06501 -5.62544,-5.8952 -8.7412,-6.58523c0,0 -0.79343,-0.19605 -0.59739,-0.98948c0.19605,-0.79343 0.98948,-0.59739 0.98948,-0.59739c4.20692,1.11379 6.98802,5.49285 10.47221,7.78492c2.44075,1.60564 5.36377,2.87235 7.59375,4.74391c2.30855,1.17247 4.33487,3.54983 6.45004,5.10545c2.30405,1.69452 4.72852,3.10148 6.92948,4.93259l0.80568,0.91187c0,0 0.53988,0.61359 -0.07372,1.15347z" fill="#00ffd7" fill-rule="nonzero" stroke-width="0.5"/><path d="M328.66054,141.58191c-0.36751,-0.72999 0.36249,-1.09751 0.36249,-1.09751l0.17134,-0.00954c1.56015,-1.86034 3.75136,-3.07844 5.18124,-5.09889c2.44415,-2.7361 4.92263,-5.52632 7.75028,-7.88311c4.27926,-3.56665 8.6905,-6.07508 12.3843,-10.40849c0,0 0.53017,-0.62199 1.15217,-0.09181c0.62199,0.53017 0.09181,1.15217 0.09181,1.15217c-5.94785,6.97777 -13.9486,11.39158 -20.1012,18.25113c-1.44338,2.02579 -3.66441,3.24102 -5.20001,5.12198l-0.69492,0.42655c0,0 -0.72999,0.36751 -1.09751,-0.36249z" fill="#00ffd7" fill-rule="nonzero" stroke-width="0.5"/><path d="M298.18047,198.78923c-0.5,0.00137 -0.50137,-0.49862 -0.50137,-0.49862l0.02264,-0.00477c-0.74094,-2.35662 -1.18608,-4.49795 -1.19286,-6.97302c-0.01521,-6.73211 -0.00892,-13.07103 6.93605,-16.31753c5.7239,-2.71259 10.57749,-4.87602 17.06511,-4.8938c6.20044,0.00158 11.82604,3.50263 17.94413,4.09756c6.79354,0.73325 12.47232,2.75756 14.17106,10.15981c1.71497,2.57952 1.11282,8.1653 1.37451,11.20372c0.11658,1.35361 0.52758,2.84575 -0.2339,4.01604c0,0 -0.2895,0.40766 -0.69717,0.11816c-0.40766,-0.2895 -0.11816,-0.69717 -0.11816,-0.69717c0.6224,-0.75565 0.13377,-2.41167 0.05286,-3.35182c-0.25038,-2.90939 0.3662,-8.43503 -1.29522,-10.89019c-1.68058,-7.07217 -6.81639,-8.85782 -13.35605,-9.56376c-6.0701,-0.59017 -11.69813,-4.12974 -17.83934,-4.09233c-6.33951,0.01737 -11.04744,2.14693 -16.64197,4.79858c-6.53586,3.05528 -6.38217,9.09203 -6.36194,15.41001c0.00651,2.37639 0.43377,4.41187 1.14675,6.67559l0.02348,0.3022c0,0 0.00137,0.5 -0.49862,0.50137z" fill="#00ffd7" fill-rule="nonzero" stroke-width="0.5"/></g></g></g></svg>