<svg version="1.1" xmlns="http://www.w3.org/2000/svg" xmlns:xlink="http://www.w3.org/1999/xlink" width="1733.09309" height="836.33634" viewBox="0,0,1733.09309,836.33634"><g transform="translate(546.54655,238.16817)"><g data-paper-data="{&quot;isPaintingLayer&quot;:true}" stroke-linejoin="miter" stroke-miterlimit="10" stroke-dasharray="" stroke-dashoffset="0" style="mix-blend-mode: normal"><path d="M-546.54655,598.16817v-836.33634h1733.09309v836.33634z" fill="none" fill-rule="nonzero" stroke="#f00000" stroke-width="0" stroke-linecap="butt"/><path d="M164.31222,322.94222l33.51062,-26.20201l93.63269,-0.23395l-19.71212,26.43595z" fill="#cedce9" fill-rule="nonzero" stroke="#000000" stroke-width="0" stroke-linecap="round"/><path d="M155.40589,321.56833c-3.23389,-0.36981 -10.93005,-0.94626 -7.55727,-1.54218c-1.844,0.19096 -4.30412,0.42411 -5.61315,0.48683c-6.20127,0.29713 -14.23792,0 -20.63695,0c-17.55532,0 -34.59883,-0.15772 -51.59221,0.58996c-7.67977,0.33789 -9.79093,-0.70555 -12.14916,0.75443c-4.86436,2.44969 -14.01637,4.63565 -19.89547,7.10174c-7.9681,3.34232 -11.05811,6.56903 -15.94283,9.92039c-5.52757,2.75992 -1.025,8.05892 -1.025,11.13083c0,0.82229 1.55061,2.286 0.06965,2.89127c1.47223,0.03058 2.89418,0.05848 3.79981,0.05848c6.01912,0 12.03817,0 18.05732,0c23.94306,0 51.76182,-0.11974 75.00121,-1.44842c27.59276,-1.41743 57.49806,0.61518 85.31277,-0.65703c15.23203,-0.63807 31.83586,-0.25878 47.34465,-0.25428c7.86761,0.00228 14.60498,-0.68112 18.05729,0.58995c0.90739,0.33409 0,-0.78659 0,-1.17988c0,-0.98322 0,-1.96652 0,-2.94974c0,-5.50617 0,-11.01233 0,-16.5185c0,-1.3017 -1.49199,-5.95868 1.5946,-6.46262c-0.57897,-0.00791 -1.23426,-0.02077 -1.5946,-0.0268c-3.19203,-0.05326 -4.97543,-0.01302 -7.46653,-0.41952c-4.32469,-0.70571 -18.91496,-0.17042 -24.77861,-0.17042c-22.78658,0 -45.57311,0 -68.3597,0c0,0 -5.15921,0 -5.15921,-1.17988c0,-0.04844 0.00864,-0.09486 0.02534,-0.13939c-2.46639,-0.11956 -4.9577,-0.28536 -7.49184,-0.57513zM236.39147,321.103c13.75515,0 31.33537,-0.56015 40.72895,1.83212c5.3829,1.37085 1.83453,5.76613 1.83453,7.60704c0,5.50617 0,11.01232 0,16.51849c0,0.62876 1.77701,3.74776 0,4.12963c-17.94876,3.85692 -51.77923,0.84931 -73.69667,1.97832c-27.19829,1.24402 -58.52042,-1.12657 -84.83379,0.6324c-23.95197,1.36944 -52.80767,1.5189 -77.50383,1.5189c-3.54239,0 -24.78633,0.61354 -27.08588,0c-6.59428,-1.75943 -5.15921,-3.22712 -5.15921,-5.30953c0,-3.76661 -2.9196,-8.25642 1.55455,-11.87708c5.00655,-3.43492 8.51759,-6.87999 16.50277,-10.22948c3.22112,-1.35111 6.70037,-3.15843 10.86308,-4.37875c2.72386,-0.7985 7.93168,-1.44729 8.58236,-2.48531c4.41379,-2.7326 12.39022,-1.83725 21.82839,-2.29652c16.80111,-0.81757 34.18712,-0.58996 51.59221,-0.58996c6.41889,0 18.96058,-0.67558 23.48881,-0.46538c7.88258,0.36595 12.45236,1.90331 20.09224,2.35979c5.60602,0.33496 11.51373,0.13667 18.05732,0.88492c0.49676,0.05683 0.99342,0.11361 1.49024,0.17042c17.22133,0 34.44276,0 51.66413,0z" fill="#000000" fill-rule="nonzero" stroke="none" stroke-width="0" stroke-linecap="butt"/><path d="M162.96955,322.08685c-0.01671,0.04452 -0.02475,0.09098 -0.02475,0.13942c0,1.17989 5.18455,1.1819 5.18455,1.1819c22.78654,0 45.69452,0.02346 68.48118,0.02346c5.86362,0 20.46717,-0.52978 24.79186,0.1759c2.49105,0.40651 4.27852,0.36825 7.47043,0.42149c0.3603,0.00602 1.01613,0.01917 1.5952,0.02709c-3.08662,0.50394 -1.57896,5.17222 -1.57896,6.47392c0,5.50617 -0.01076,11.0451 -0.01076,16.55127c0,0.98325 -0.0088,1.97128 -0.0088,2.9545c0,0.39329 0.9035,1.51575 -0.0039,1.18167c-3.45229,-1.27106 -10.19581,-0.58514 -18.06335,-0.58741c-15.5088,-0.00449 -32.1596,-0.37033 -47.39158,0.26777c-27.81475,1.27222 -57.99335,-0.74894 -85.58613,0.66848c-23.23939,1.32869 -51.17108,1.42788 -75.11432,1.42788c-6.01914,0 -12.04873,-0.00371 -18.06785,-0.00371c-0.90571,0 -2.3296,-0.02864 -3.80175,-0.05922c1.48098,-0.60528 -0.07924,-2.07314 -0.07924,-2.89544c0,-3.0719 -4.52684,-8.39132 1.00085,-11.15126c4.88478,-3.35137 7.98535,-6.60048 15.95345,-9.94279c5.87919,-2.46611 15.06982,-4.66964 19.93423,-7.1193c2.35822,-1.45998 4.4854,-0.42102 12.16514,-0.75891c16.99333,-0.74765 34.14754,-0.60647 51.70273,-0.60647c6.39893,0 14.50751,0.29417 20.70878,-0.00295c1.3089,-0.06273 3.78955,-0.29586 5.63354,-0.48682c-3.37287,0.5959 4.35383,1.17308 7.58778,1.54286c2.53424,0.28977 5.05561,0.45714 7.52193,0.5767z" fill="#484848" fill-rule="nonzero" stroke="none" stroke-width="0" stroke-linecap="butt"/><path d="M90.64345,326.41255c0,0.39875 1.77858,0.88204 0.8921,1.19778c2.26744,0.05337 4.54827,0.16994 6.57435,0.40163c7.81194,0.8933 23.70353,4.14835 25.20199,6.30031c0.12184,0.17503 -2.0872,0.20428 -1.71311,0.35951c1.24483,0.51651 11.38938,-0.3811 12.55632,-0.23443c0.26405,0.03318 0.39375,0.08489 0.44572,0.14784c-0.05432,-0.19549 -0.10404,-0.38446 -0.10404,-0.50337c0,-0.41795 0.07221,-0.86834 -0.74507,-1.24217c-6.94709,-3.29491 -18.29746,-6.42715 -37.94899,-6.42715c0,0 -2.31904,-0.00001 -3.84764,-0.35557c-0.50973,-0.06622 -0.90615,-0.14412 -1.17189,-0.23545c-0.0683,0.22509 -0.13978,0.45421 -0.13978,0.59104zM134.49678,335.26169c0.3521,0.24157 0.24826,-0.1594 0.13126,-0.57887c-0.02449,0.18204 -0.37195,0.41379 -0.13126,0.57887zM142.98057,331.78433c6.41519,2.93422 -8.15102,7.2214 -21.38194,5.24723c-12.48347,-1.86267 -16.71065,-5.60622 -28.10334,-6.90894c-3.84882,-0.44012 -8.46069,-0.68038 -11.33588,-1.41259c-4.55627,-1.16038 -2.53653,-5.12267 6.17661,-5.12267c6.27407,0 9.3643,0.46538 15.20535,0.46538h2.5796c0,0 2.96127,0.00002 4.39682,0.51307c15.2825,1.14088 25.08922,4.0395 32.46283,7.21849z" fill="#000000" fill-rule="nonzero" stroke="none" stroke-width="0" stroke-linecap="butt"/><path d="M90.59179,325.78196c0.26562,0.09135 0.6622,0.16919 1.17199,0.23543c1.52857,0.35557 3.85813,0.35303 3.85813,0.35303c19.6515,0 31.41162,3.20151 38.35865,6.49643c0.81726,0.37381 0.72256,0.83243 0.72256,1.25035c0,0.11891 0.0402,0.31061 0.09452,0.5061c-0.05186,-0.06298 -0.18035,-0.11497 -0.44453,-0.14819c-1.16692,-0.14666 -11.39939,0.76647 -12.64422,0.24997c-0.37414,-0.15523 1.5899,-0.28809 1.46794,-0.46316c-1.49841,-2.15197 -17.46667,-5.39049 -25.27871,-6.28377c-2.02616,-0.23169 -4.32006,-0.34346 -6.58752,-0.39684c0.8865,-0.31576 -0.87094,-0.80631 -0.87094,-1.20506c0,-0.13683 0.08337,-0.36922 0.15184,-0.5943z" fill="#ffffff" fill-rule="nonzero" stroke="none" stroke-width="0" stroke-linecap="butt"/><path d="M367.45185,315.94222l-19.71212,-26.43596l93.63269,0.23395l33.51063,26.20201z" data-paper-data="{&quot;index&quot;:null}" fill="#cedce9" fill-rule="nonzero" stroke="#000000" stroke-width="0" stroke-linecap="round"/><path d="M483.78921,314.56843c-2.53413,0.28978 -5.02545,0.45558 -7.49183,0.57513c0.01671,0.04453 0.02535,0.09095 0.02535,0.13939c0,1.17987 -5.15921,1.17987 -5.15921,1.17987c-22.78659,0 -45.57312,0 -68.35969,0c-5.86365,0 -20.45392,-0.53529 -24.77862,0.17041c-2.4911,0.4065 -4.2745,0.36626 -7.46652,0.41953c-0.36034,0.00603 -1.01563,0.01889 -1.5946,0.02679c3.08659,0.50394 1.5946,5.16093 1.5946,6.46263c0,5.50617 0,11.01233 0,16.5185c0,0.98321 0,1.96652 0,2.94974c0,0.39329 -0.90739,1.51397 0,1.17987c3.45231,-1.27107 10.18967,-0.58767 18.05729,-0.58995c15.50879,-0.0045 32.11262,-0.38379 47.34465,0.25428c27.81472,1.27222 57.72001,-0.7604 85.31277,0.65703c23.23938,1.32867 51.05815,1.44842 75.00121,1.44842c6.01915,0 12.03819,0 18.05732,0c0.90563,0 2.32758,-0.0279 3.79981,-0.05848c-1.48096,-0.60526 0.06965,-2.06898 0.06965,-2.89127c0,-3.07191 4.50257,-8.37092 -1.02501,-11.13083c-4.88473,-3.35136 -7.97473,-6.57808 -15.94283,-9.92039c-5.8791,-2.46609 -15.03111,-4.65206 -19.89548,-7.10174c-2.35823,-1.45999 -4.46939,-0.41654 -12.14915,-0.75443c-16.99338,-0.74768 -34.0369,-0.58996 -51.59222,-0.58996c-6.39904,0 -14.43568,0.29714 -20.63695,0c-1.30903,-0.06272 -3.76915,-0.29586 -5.61315,-0.48683c3.37279,0.59591 -4.32338,1.17237 -7.55727,1.54218zM402.80354,314.10302c17.22136,0 34.4428,0 51.66413,0c0.49682,-0.0568 0.99348,-0.11359 1.49024,-0.17042c6.5436,-0.74824 12.45131,-0.54995 18.05732,-0.88492c7.63988,-0.45648 12.20966,-1.99384 20.09225,-2.35978c4.52823,-0.2102 17.06992,0.46538 23.48881,0.46538c17.4051,0 34.7911,-0.22762 51.59221,0.58995c9.43817,0.45927 17.4146,-0.43608 21.82839,2.29651c0.65069,1.03801 5.85851,1.68681 8.58236,2.48531c4.16271,1.22032 7.64196,3.02763 10.86308,4.37875c7.98518,3.34948 11.49622,6.79456 16.50277,10.22948c4.47415,3.62067 1.55455,8.11047 1.55455,11.87708c0,2.08241 1.43507,3.55009 -5.1592,5.30953c-2.29956,0.61354 -23.5435,0 -27.08589,0c-24.69616,0 -53.55186,-0.14946 -77.50383,-1.5189c-26.31336,-1.75896 -57.63549,0.61162 -84.83378,-0.6324c-21.91744,-1.12901 -55.7479,1.8786 -73.69666,-1.97832c-1.77701,-0.38187 0,-3.50088 0,-4.12964c0,-5.50617 0,-11.01232 0,-16.51848c0,-1.84091 -3.54837,-6.23619 1.83453,-7.60704c9.39358,-2.39227 26.9738,-1.83211 40.72896,-1.83211z" data-paper-data="{&quot;index&quot;:null}" fill="#000000" fill-rule="nonzero" stroke="none" stroke-width="0" stroke-linecap="butt"/><path d="M476.22546,315.08687c2.46632,-0.11955 4.98769,-0.28694 7.52193,-0.5767c3.23394,-0.36978 10.96065,-0.94696 7.58778,-1.54286c1.84399,0.19096 4.32464,0.42409 5.63354,0.48682c6.20128,0.29712 14.30986,0.00295 20.70879,0.00295c17.55519,0 34.70941,-0.14117 51.70274,0.60648c7.67974,0.33788 9.80691,-0.70107 12.16514,0.7589c4.86441,2.44966 14.05504,4.65319 19.93423,7.1193c7.9681,3.34231 11.06867,6.59143 15.95345,9.94279c5.52769,2.75993 1.00085,8.07935 1.00085,11.15125c0,0.8223 -1.56022,2.29016 -0.07924,2.89544c-1.47215,0.03058 -2.89604,0.05923 -3.80175,0.05923c-6.01912,0 -12.04871,0.00371 -18.06785,0.00371c-23.94324,0 -51.87493,-0.09918 -75.11432,-1.42788c-27.59278,-1.41742 -57.77139,0.60374 -85.58613,-0.66848c-15.23199,-0.6381 -31.88278,-0.27227 -47.39158,-0.26777c-7.86754,0.00227 -14.61106,-0.68364 -18.06335,0.58742c-0.9074,0.33408 -0.0039,-0.78838 -0.0039,-1.18167c0,-0.98321 -0.0088,-1.97125 -0.0088,-2.9545c0,-5.50617 -0.01076,-11.0451 -0.01076,-16.55127c0,-1.30169 1.50765,-5.96999 -1.57897,-6.47392c0.57907,-0.00793 1.23491,-0.02107 1.5952,-0.02709c3.19191,-0.05325 4.97939,-0.01498 7.47044,-0.42149c4.32468,-0.70568 18.92824,-0.1759 24.79186,-0.1759c22.78667,0 45.69464,-0.02346 68.48118,-0.02346c0,0 5.18455,-0.00201 5.18455,-1.1819c0,-0.04844 -0.00804,-0.09489 -0.02475,-0.13941z" data-paper-data="{&quot;index&quot;:null}" fill="#484848" fill-rule="nonzero" stroke="none" stroke-width="0" stroke-linecap="butt"/><path d="M548.5518,319.41253c0,-0.13682 -0.07147,-0.36595 -0.13978,-0.59104c-0.26574,0.09133 -0.66216,0.16924 -1.17189,0.23546c-1.5286,0.35557 -3.84764,0.35557 -3.84764,0.35557c-19.65152,0 -31.0019,3.13224 -37.94899,6.42715c-0.81729,0.37383 -0.74507,0.82422 -0.74507,1.24217c0,0.11891 -0.04972,0.30789 -0.10404,0.50338c0.05197,-0.06295 0.18168,-0.11466 0.44572,-0.14783c1.16694,-0.14667 11.31149,0.75093 12.55632,0.23442c0.37409,-0.15524 -1.83495,-0.18448 -1.71311,-0.35951c1.49847,-2.15197 17.39006,-5.40701 25.202,-6.30032c2.02609,-0.23169 4.30692,-0.34826 6.57436,-0.40163c-0.88648,-0.31574 0.89209,-0.79903 0.89209,-1.19779zM504.5672,327.68282c-0.117,0.41947 -0.22084,0.82044 0.13126,0.57887c0.24069,-0.16507 -0.10677,-0.39683 -0.13126,-0.57887zM496.21456,324.78431c7.37361,-3.17899 17.18033,-6.07762 32.46283,-7.2185c1.43555,-0.51306 4.39681,-0.51308 4.39681,-0.51308h2.57961c5.84105,0 8.93128,-0.46537 15.20535,-0.46537c8.71315,0 10.73289,3.9623 6.17662,5.12268c-2.87519,0.73221 -7.48707,0.97246 -11.33588,1.41258c-11.39268,1.30271 -15.61987,5.04627 -28.10334,6.90894c-13.23092,1.97417 -27.79713,-2.31302 -21.38194,-5.24723z" data-paper-data="{&quot;index&quot;:null}" fill="#000000" fill-rule="nonzero" stroke="none" stroke-width="0" stroke-linecap="butt"/><path d="M548.60376,318.78192c0.06847,0.22508 0.15184,0.45748 0.15184,0.59431c0,0.39875 -1.75744,0.8893 -0.87094,1.20506c-2.26746,0.05338 -4.56135,0.16515 -6.58751,0.39684c-7.81203,0.89328 -23.7803,4.1318 -25.27871,6.28377c-0.12196,0.17507 1.84208,0.30792 1.46794,0.46315c-1.24482,0.5165 -11.4773,-0.39663 -12.64422,-0.24996c-0.26417,0.03322 -0.39267,0.08522 -0.44453,0.14819c0.05432,-0.19549 0.09452,-0.38719 0.09452,-0.5061c0,-0.41793 -0.0947,-0.87654 0.72256,-1.25035c6.94703,-3.29492 18.70715,-6.49643 38.35865,-6.49643c0,0 2.32956,0.00254 3.85813,-0.35303c0.50979,-0.06624 0.90637,-0.14408 1.172,-0.23543z" data-paper-data="{&quot;index&quot;:null}" fill="#ffffff" fill-rule="nonzero" stroke="none" stroke-width="0" stroke-linecap="butt"/><g stroke="none" stroke-linecap="butt"><path d="M396.01122,-5.4259c0.49705,-0.09085 0.99409,-0.1817 1.49114,-0.27254c16.10507,10.76623 32.26437,21.4245 48.4774,31.97488c4.07399,1.80257 7.77036,4.20888 11.07917,7.22074c0.52732,0.07481 1.05467,0.14969 1.582,0.2245c2.61889,2.2442 5.39435,4.30518 8.3214,6.18384c0.72168,0.21071 1.44822,0.42 2.16989,0.6307c3.30881,3.01187 7.00519,5.41816 11.07918,7.22074c34.32356,22.77045 68.91608,45.2981 103.78243,67.58154c0.09085,0.49705 0.1817,0.99409 0.27254,1.49114c-1.38692,2.13552 -2.98772,4.14062 -4.80756,6.01523c-1.7651,-0.49564 -3.43794,-1.21718 -5.01852,-2.16465c8.90885,47.16816 17.95695,94.31138 27.13438,141.43146c-98.20215,18.0589 -196.36956,36.00153 -294.50075,53.82762c-5.39536,0.98665 -10.55377,2.2721 -15.47531,3.85581c-0.49705,0.09085 -0.9941,0.1817 -1.49115,0.27255c-0.83589,-4.07869 -1.59293,-8.22058 -2.27121,-12.42619c-96.36547,17.96256 -192.73212,35.91867 -289.10005,53.8678c-1.98505,-11.88523 -3.81886,-23.79194 -5.50156,-35.72061c-0.32267,-1.04846 -0.83574,-1.98198 -1.53918,-2.80059c0.13947,-2.78072 -0.02882,-5.57505 -0.50491,-8.38298c-3.15117,-20.31224 -6.34864,-40.61652 -9.59235,-60.91236c-3.79495,0.86365 -7.63603,1.39415 -11.52295,1.59247c-1.0672,-1.97513 -2.25901,-3.81191 -3.57542,-5.51033c-0.1211,-0.66256 -0.24229,-1.32563 -0.36339,-1.98819c38.43834,-7.0256 76.87688,-14.05124 115.31506,-21.07681c-5.36005,-29.32581 -10.7201,-58.65163 -16.08015,-87.97744c-0.50935,0.16963 -1.02149,0.17797 -1.53657,0.02402c-6.00589,-2.8651 -12.00442,-5.70689 -17.99503,-8.52495c-0.56059,-0.59405 -0.86288,-1.30928 -0.90586,-2.14587c84.13632,-15.54913 168.27305,-31.09886 252.40937,-46.64798c0.44996,1.66932 1.08429,3.26538 1.90257,4.78878c12.13187,-1.98729 24.18112,-4.44643 36.14821,-7.3775c19.97004,-28.38246 40.17611,-56.47413 60.61718,-84.27484z" fill="#000000" fill-rule="evenodd" stroke-width="1"/><path d="M396.87169,-3.52858c19.96989,12.56538 39.7918,25.46493 59.46572,38.69858c18.38881,11.69104 36.65641,23.59018 54.80798,35.6975c0.72168,0.21071 1.44822,0.42 2.16989,0.6307c2.61889,2.2442 5.39435,4.30518 8.3214,6.18384c0.5273,0.07467 1.0547,0.14984 1.582,0.2245c10.41828,7.34256 20.97006,14.48814 31.65553,21.43772c4.07399,1.80257 7.77037,4.20888 11.07918,7.22074c3.47361,1.38427 6.57712,3.38529 9.31549,6.00214c2.51087,0.8663 4.80186,2.15956 6.87305,3.8803c-0.93638,1.50921 -1.95187,2.97896 -3.04649,4.40921c-0.83662,-0.86771 -1.85224,-1.28152 -3.05173,-1.24c-0.94244,-0.94083 -1.88479,-1.88117 -2.82723,-2.82199c-4.86058,-3.01485 -9.76685,-5.97049 -14.7188,-8.86694c-2.5269,-2.47162 -5.43614,-4.33709 -8.72759,-5.59595c-9.43003,-6.51644 -19.1088,-12.62322 -29.03141,-18.32178c-25.9264,-16.64976 -51.90993,-33.30297 -77.96043,-49.95729c-2.78442,-1.48616 -5.49731,-3.21611 -8.1397,-5.18975c-0.52732,-0.07481 -1.05466,-0.14969 -1.58199,-0.2245c-4.55223,-3.51136 -9.25539,-6.76095 -14.1095,-9.74878c-7.08888,-4.39508 -14.20366,-8.65928 -21.34333,-12.79266c-0.31639,0.14346 -0.63229,0.28676 -0.94868,0.43022c-25.25223,36.54757 -50.50398,73.09486 -75.75618,109.6426c-0.21044,0.72316 -0.08924,1.38623 0.36339,1.98819c3.79216,1.89621 7.15402,4.36367 10.08508,7.40244c8.88217,5.41308 17.33932,11.40106 25.37037,17.96362c5.01805,3.03333 9.88674,6.25267 14.60655,9.65793c1.04053,1.00816 2.08064,2.01692 3.12118,3.02509c5.65285,3.76071 11.30528,7.52202 16.95814,11.28273c0.25637,0.46679 0.51324,0.9335 0.76959,1.4003c5.75409,4.01393 11.60279,7.91042 17.54603,11.68894c0.84426,0.87299 1.68902,1.7459 2.53328,2.61889c3.3081,1.7068 6.34576,3.80564 9.11239,6.29609c-2.06195,2.35701 -3.92011,4.83701 -5.57454,7.43955c-30.90879,-23.09358 -62.11381,-45.81252 -93.61435,-68.15589c-2.01353,-2.54901 -4.56097,-4.30956 -7.64265,-5.28059c-15.41974,22.31712 -30.85531,44.65717 -46.30672,67.02013c-1.21548,2.30348 -1.37164,4.72873 -0.46779,7.27664c-98.77803,18.81445 -197.5845,37.47332 -296.41949,55.97611c-0.96553,-1.53552 -1.93115,-3.07156 -2.89668,-4.60708c97.17939,-18.19146 194.38978,-36.216 291.63071,-54.07352c-0.77983,-1.91156 -1.39175,-3.85433 -1.83575,-5.8283c24.01463,-33.58942 48.09426,-67.183 72.23928,-100.78135c0.42732,-0.3262 0.9093,-0.49956 1.44572,-0.52107c-0.26312,-1.611 0.39893,-2.67353 1.98557,-3.188c3.23715,-5.15907 6.59166,-10.22402 10.06414,-15.19445c0.73774,-0.64849 1.47496,-1.29689 2.21269,-1.94538c3.03333,-5.01805 6.25267,-9.88674 9.65793,-14.60655c1.00819,-1.04037 2.0169,-2.0808 3.02509,-3.12118c2.76241,-4.62578 5.71076,-9.10269 8.84554,-13.43076c1.14393,-1.23638 2.28736,-2.47269 3.43129,-3.70907c8.68708,-12.04951 17.26269,-24.1468 25.72683,-36.29188z" fill="#524950" fill-rule="evenodd" stroke-width="1"/><path d="M397.47006,8.17607c9.04295,5.30357 17.95121,10.9521 26.72525,16.9455c0.52732,0.07481 1.05466,0.14969 1.58199,0.22451c2.52893,2.47144 5.43813,4.33678 8.72759,5.59595c7.56403,4.79426 14.98213,9.77369 22.24921,14.93853c2.9163,1.39831 5.76493,2.93226 8.5459,4.60184c7.26707,5.16484 14.68519,10.14438 22.2492,14.93853c3.29145,1.25884 6.20068,3.12433 8.72759,5.59595c0.5273,0.07467 1.05469,0.14984 1.58199,0.2245c8.6779,5.99849 17.56951,11.56446 26.67982,16.69698c6.63089,4.43821 13.26673,8.87552 19.89761,13.31374c5.10321,2.65614 9.94006,5.70974 14.5157,9.16088c0.72168,0.21071 1.44822,0.42 2.16989,0.6307c3.38438,2.91945 7.01133,5.42373 10.87608,7.51469c9.42645,47.41461 18.69919,94.85939 27.81312,142.33472c-73.89608,13.50642 -147.78867,27.0122 -221.68326,40.51834c-7.60748,-35.94798 -15.08999,-71.73489 -22.44784,-107.35969c-0.49866,-1.79242 -0.99773,-3.58424 -1.49638,-5.37668c-2.90087,-2.35086 -5.59966,-4.9395 -8.0969,-7.76583c-2.88552,-0.72694 -5.57588,-1.86142 -8.07025,-3.40465c-1.08494,-0.31535 -2.16989,-0.6307 -3.25483,-0.94605c-4.97177,0.38993 -9.93491,0.86919 -14.89003,1.4374c-1.3105,0.22104 -2.5077,0.69668 -3.59158,1.42694c-2.24281,2.60682 -4.72645,4.94434 -7.45048,7.01194c-1.67942,4.57643 -3.70156,8.96947 -6.06635,13.17961c6.40784,37.35172 12.97294,74.67572 19.69529,111.972c-10.438,1.90781 -20.876,3.81563 -31.314,5.72344c-7.4769,-41.29532 -14.93431,-82.56545 -22.3727,-123.81029c15.76832,-22.40242 31.1433,-45.07398 46.12502,-68.01423c33.5959,24.22713 67.08457,48.66854 100.46601,73.32422c0.72316,0.21044 1.38623,0.08924 1.98819,-0.36339c1.63213,-2.7808 3.46003,-5.42632 5.48369,-7.9366c4.56125,23.14002 9.21492,46.26006 13.96139,69.35956c35.12487,-6.41998 70.24775,-12.83959 105.3741,-19.25984c-5.77318,-35.23949 -12.19306,-70.36386 -19.25984,-105.3741c-9.12973,-1.69779 -18.20039,-3.55019 -27.21182,-5.55621c-5.92472,0.2965 -11.84638,0.69414 -17.76007,1.1915c-15.53212,3.40442 -30.86433,7.57669 -45.9957,12.51612c-4.9784,4.43976 -10.10396,8.71531 -15.37661,12.82669c1.677,10.65894 3.61506,21.26246 5.81429,31.81105c-32.97016,-23.85558 -66.0066,-47.69445 -99.10851,-71.51773c24.51446,-35.89924 49.22479,-71.66271 74.13139,-107.29102c0.17663,-0.3376 0.19907,-0.68415 0.06683,-1.03952z" fill="#3b3d50" fill-rule="evenodd" stroke-width="1"/><path d="M401.80891,57.20733c7.4846,-2.24172 14.98634,-2.414 22.50603,-0.51799c2.39744,9.30888 4.45509,18.69218 6.17246,28.15002c-10.93505,1.99866 -21.8701,3.99733 -32.80515,5.99599c-1.77914,-9.26471 -3.39191,-18.55778 -4.83897,-27.8801c1.18801,-1.22287 2.43011,-2.39143 3.72524,-3.50597c1.93141,-0.47732 3.67841,-1.2245 5.2404,-2.24195z" fill="#000000" fill-rule="evenodd" stroke-width="1"/><path d="M403.5726,58.42593c6.53669,-1.9 13.04475,-1.89115 19.52375,0.0271c2.16761,8.32409 4.04357,16.7133 5.62736,25.16774c-9.94096,1.81697 -19.8819,3.63393 -29.82286,5.4509c-1.71112,-8.42602 -3.08953,-16.90617 -4.13622,-25.44028c1.02334,-0.95752 2.04718,-1.91513 3.07051,-2.87265c2.07507,-0.55135 3.98758,-1.32878 5.73745,-2.3328z" fill="#587cac" fill-rule="evenodd" stroke-width="1"/><path d="M172.45062,106.31962c41.22619,-7.7062 82.5114,-15.08109 123.85571,-22.12418c0.72651,1.38095 1.33008,2.81157 1.81174,4.29173c11.87015,-2.52554 23.75388,-4.95442 35.65116,-7.28665c-1.75846,1.49664 -3.14257,3.29058 -4.15284,5.38192c-11.69143,2.56478 -23.46973,4.63179 -35.3358,6.20171c-0.54349,-1.09901 -1.08655,-2.19862 -1.63004,-3.29763c-9.72269,1.60602 -19.44545,3.21155 -29.16814,4.81758c-66.44616,12.57005 -132.90695,25.06008 -199.38295,37.46969c0.46776,1.6599 0.60513,3.34731 0.41144,5.06133c-4.80318,-2.9565 -9.86713,-5.36968 -15.19183,-7.23953c41.15727,-7.60833 82.20129,-15.36702 123.13155,-23.27595z" fill="#524950" fill-rule="evenodd" stroke-width="1"/><path d="M235.67175,100.92815c18.52901,-3.5577 37.11605,-6.78392 55.76019,-9.67797c0.72395,1.20112 1.29767,2.46565 1.72088,3.79468c11.58393,-2.20304 23.19672,-4.2398 34.83877,-6.11086c-20.22799,28.85692 -40.85541,57.45348 -61.8812,85.79001c-58.07198,11.97482 -116.22556,23.54541 -174.46112,34.71237c-3.76636,0.68429 -7.52447,1.20013 -11.27442,1.54704c-4.97254,-25.80056 -9.77967,-51.63187 -14.42086,-77.49402c56.83107,-10.38941 113.40366,-21.24315 169.71776,-32.56126z" fill="#6f6a69" fill-rule="evenodd" stroke-width="1"/><path d="M241.45989,104.49309c1.16375,-0.23429 1.93233,0.22467 2.30616,1.37627c3.15371,20.03954 6.6368,40.03479 10.45017,59.98509c-45.00477,8.57097 -90.00959,17.13885 -135.01527,25.70483c-3.63393,-19.88191 -7.26786,-39.76381 -10.9018,-59.64572c38.9961,-7.71927 77.99091,-15.44551 116.98528,-23.17987c5.66936,-0.9602 11.0612,-2.37357 16.17546,-4.24061z" fill="#000000" fill-rule="evenodd" stroke-width="1"/><path d="M227.00266,109.70379c4.97048,-0.90848 9.94096,-1.81697 14.91143,-2.72545c3.51283,19.21935 7.02557,38.43819 10.5384,57.65754c-6.95867,1.27188 -13.91733,2.54375 -20.876,3.81563c-3.30007,-19.08667 -6.61655,-38.17035 -9.95051,-57.25133c1.95268,-0.19511 3.74511,-0.69377 5.37667,-1.49639z" fill="#524950" fill-rule="evenodd" stroke-width="1"/><path d="M193.29427,116.37852c8.94685,-1.63527 17.89372,-3.27054 26.84058,-4.90581c3.31101,19.08467 6.62806,38.16875 9.95051,57.25133c-28.93695,5.61875 -57.87073,11.24922 -86.80165,16.89255c-3.45224,-18.88781 -6.90447,-37.77563 -10.35671,-56.66344c20.24543,-3.99726 40.36802,-8.18884 60.36727,-12.57463z" fill="#587cac" fill-rule="evenodd" stroke-width="1"/><path d="M126.46541,130.13418c1.65666,-0.3028 3.31382,-0.60569 4.97048,-0.90848c3.45224,18.88781 6.90447,37.77563 10.35671,56.66344c-7.12418,1.30213 -14.24887,2.60435 -21.37305,3.90648c-3.42198,-18.7223 -6.84387,-37.44409 -10.26586,-56.16639c5.5863,-0.85255 11.02357,-2.01741 16.31173,-3.49504z" fill="#524950" fill-rule="evenodd" stroke-width="1"/><path d="M472.69792,133.11242c7.40578,-0.82094 14.82877,-1.40721 22.27891,-1.76061c7.53824,1.95528 15.18065,3.4688 22.91747,4.54334c1.49783,0.21369 2.87672,0.73215 4.13667,1.55535c6.60658,33.89755 12.73497,67.87685 18.37538,101.94021c-34.13227,6.23855 -68.26105,12.47647 -102.39183,18.71475c-5.6745,-29.69724 -11.44174,-59.3765 -17.30136,-89.03836c-0.57644,-4.08964 -1.15229,-8.17888 -1.72874,-12.26852c4.88961,-4.47592 10.03024,-8.66897 15.42203,-12.57818c12.79798,-3.85393 25.56004,-7.55592 38.29146,-11.10797z" fill="#587cac" fill-rule="evenodd" stroke-width="1"/><path d="M243.65504,181.13976c6.94549,-1.35524 13.91933,-2.54412 20.92143,-3.56711c-3.35638,3.60189 -6.3282,7.48381 -8.91498,11.64566c0.18256,1.82503 0.89998,3.40642 2.15111,4.74336c-58.33939,10.56236 -116.62924,21.38737 -174.86994,32.47565c-0.81764,-4.47343 -1.63527,-8.94686 -2.4529,-13.42029c54.5017,-10.47627 108.89034,-21.1019 163.16529,-31.87729z" fill="#3f4366" fill-rule="evenodd" stroke-width="1"/><path d="M318.90142,179.7142c5.12602,-0.68419 10.27034,-1.1108 15.4325,-1.27974c3.25989,1.53583 6.64267,2.71533 10.14929,3.53831c2.89812,3.04686 5.8386,6.0192 8.82106,8.9176c-0.02241,0.34671 -0.04442,0.69282 -0.06683,1.03952c-2.22786,-1.3947 -4.31575,-2.98191 -6.26376,-4.76214c-2.95625,-0.47311 -5.88679,-1.05004 -8.7918,-1.73181c-3.32588,-0.02801 -6.60212,0.31398 -9.8287,1.02597c-3.04703,2.2227 -6.28408,4.18427 -9.71122,5.88419c-1.96159,3.56372 -3.41152,7.33852 -4.35071,11.32508c5.23254,30.03331 10.63076,60.03736 16.19502,90.01106c14.22447,-2.74063 28.44258,-5.51041 42.65526,-8.31c1.11005,5.44935 2.27539,10.88652 3.49504,16.31172c-17.56218,3.20994 -35.12487,6.41998 -52.68705,9.62992c-6.62852,-36.79978 -13.10277,-73.62673 -19.42275,-110.48085c2.20003,-4.04082 3.98874,-8.30593 5.36621,-12.79482c3.29974,-2.52058 6.30234,-5.29556 9.00845,-8.32402z" fill="#6e685f" fill-rule="evenodd" stroke-width="1"/><path d="M329.66521,188.01989c5.19902,-0.72322 10.36637,-0.55461 15.50195,0.50536c3.01034,1.93534 5.88199,4.06452 8.61534,6.38694c6.57946,29.60683 12.94193,59.26308 19.08646,88.96891c-13.56168,2.61795 -27.11764,5.2672 -40.66706,7.94661c-5.41289,-29.14562 -10.6596,-58.32059 -15.74078,-87.52582c0.8304,-3.60096 1.99472,-7.06673 3.49288,-10.39781c3.28461,-1.98515 6.52174,-3.94622 9.71122,-5.88419z" fill="#413142" fill-rule="evenodd" stroke-width="1"/><path d="M219.4115,208.68525c16.23706,-2.96774 32.47361,-5.93539 48.71067,-8.90313c0.3028,1.65666 0.60569,3.31382 0.90848,4.97048c-89.87442,16.94259 -179.7492,33.88317 -269.62435,50.82178c0.13216,1.08277 0.56238,2.03143 1.29066,2.84601c1.23638,1.14393 2.47269,2.28736 3.70907,3.43129c3.41692,18.89529 6.62064,37.82852 9.61114,56.79971c-6.65754,1.04579 -13.31523,2.09109 -19.97275,3.13689c-3.56336,-22.80773 -7.04943,-45.62753 -10.45802,-68.45892c78.71383,-14.77274 157.32203,-29.65406 235.82511,-44.64408z" fill="#6e685f" fill-rule="evenodd" stroke-width="1"/><path d="M225.56296,214.2384c14.5799,-2.66485 29.1603,-5.3298 43.7402,-7.99465c0.63594,3.47933 1.27188,6.95866 1.90781,10.438c-55.82032,10.29044 -111.60975,20.74422 -167.36879,31.36146c2.53708,17.39649 5.7016,34.71017 9.49365,51.94148c-2.81678,0.51484 -5.63304,1.02958 -8.44982,1.54442c-2.72845,-17.474 -5.74263,-34.90093 -9.04203,-52.28085c-28.30356,5.33244 -56.60492,10.6768 -84.9043,16.0321c5.12688,29.88208 10.24644,59.7655 15.3586,89.65027c-1.49114,0.27254 -2.98229,0.54509 -4.47343,0.81764c-5.17814,-31.75577 -10.54798,-63.477 -16.1094,-95.16323c-1.13836,-1.07606 -2.27676,-2.15213 -3.41512,-3.22819c59.45489,-11.47097 118.94192,-22.77163 178.46152,-33.90258c15.16343,-2.77151 30.09727,-5.84367 44.80112,-9.21586z" fill="#564b4e" fill-rule="evenodd" stroke-width="1"/><path d="M188.97362,233.25371c27.50314,-5.02691 55.00677,-10.05391 82.50992,-15.08082c0.27254,1.49114 0.54509,2.98228 0.81764,4.47343c-54.04439,9.69875 -108.08691,19.40486 -162.12839,29.1195c0.44496,3.6822 0.94564,7.35731 1.50162,11.02589c54.14976,-10.05804 108.29762,-20.12652 162.44374,-30.20444c4.45157,24.35533 8.90313,48.71067 13.3547,73.06601c-55.24806,10.59985 -110.52527,21.04579 -165.83223,31.33743c-5.52209,-29.29619 -11.04765,-58.59175 -16.5772,-87.88659c28.11435,-4.96809 56.08478,-10.25145 83.91021,-15.85041z" fill="#6f6a69" fill-rule="evenodd" stroke-width="1"/><path d="M53.86748,258.4615c13.5858,-2.48316 27.17211,-4.9664 40.75791,-7.44956c2.71779,14.4002 5.26938,28.82976 7.65528,43.28858c0.52121,2.82073 0.60634,5.63026 0.25638,8.42841c3.19329,11.93764 5.75011,24.05481 7.67144,36.35131c-27.46598,5.23019 -54.93887,10.42263 -82.41907,15.57787c-5.01763,-29.3884 -10.0463,-58.77478 -15.08606,-88.15914c13.86688,-2.36451 27.58846,-5.04353 41.16411,-8.03746z" fill="#6f6a69" fill-rule="evenodd" stroke-width="1"/><path d="M78.99242,255.41023c4.47343,-0.81764 8.94685,-1.63527 13.42029,-2.4529c0.61242,3.99985 1.1732,8.00658 1.68331,12.02c-24.70023,4.52898 -49.32651,9.37268 -73.8784,14.53049c-0.70856,-3.12603 -1.44961,-6.24354 -2.22316,-9.35306c-0.49705,0.09085 -0.9941,0.1817 -1.49115,0.27255c-0.09085,-0.49705 -0.1817,-0.99409 -0.27254,-1.49114c20.96255,-4.68822 41.88297,-9.19667 62.76167,-13.52593z" fill="#000000" fill-rule="evenodd" stroke-width="1"/><path d="M80.34992,257.21672c3.64485,-0.66619 7.2902,-1.33247 10.93505,-1.99866c0.24904,2.85764 0.59837,5.70466 1.04737,8.54066c-23.66498,4.48257 -47.32749,8.97854 -70.98697,13.48835c-0.57959,-2.46593 -1.19955,-4.92087 -1.85977,-7.36487c20.39678,-4.09941 40.68489,-8.32124 60.86433,-12.66548z" fill="#151b20" fill-rule="evenodd" stroke-width="1"/><path d="M111.93643,252.98442c53.54707,-9.60939 107.09245,-19.22513 160.63724,-28.84695c0.42399,2.31972 0.84789,4.63894 1.27188,6.95866c-53.65163,9.97316 -107.30252,19.9503 -160.9526,29.93191c-0.24491,-2.68889 -0.56389,-5.36991 -0.95652,-8.04361z" fill="#151b20" fill-rule="evenodd" stroke-width="1"/><path d="M-5.68309,323.27942c6.6707,-0.95882 13.32825,-2.00461 19.97275,-3.13688c2.09573,11.94616 4.11043,23.90557 6.04403,35.87828c-6.793,1.2416 -13.58596,2.48319 -20.37896,3.72478c-1.93485,-12.14763 -3.81413,-24.30286 -5.63782,-36.46618z" fill="#3b3d50" fill-rule="evenodd" stroke-width="1"/><path d="M105.15856,303.02024c2.81678,-0.51484 5.63304,-1.02958 8.44982,-1.54442c2.18036,11.92914 4.36072,23.85829 6.54108,35.78744c-2.81678,0.51484 -5.63304,1.02958 -8.44982,1.54442c-2.18036,-11.92914 -4.36072,-23.85829 -6.54108,-35.78744z" fill="#3b3d50" fill-rule="evenodd" stroke-width="1"/><path d="M338.74925,134.71796c3.53769,1.548 8.04571,3.82864 9.20876,7.81566c0.64471,2.21011 0.16584,4.66055 -0.03148,6.9009c-0.11067,6.98567 -8.65182,10.31662 -14.3836,11.35486c-6.40269,0.17088 -11.55801,-3.677 -12.80126,-10.09455c-1.09186,-6.00936 -1.71258,-14.37981 5.83061,-15.78174c3.89973,-0.71278 8.4089,-1.92524 12.27368,-0.68694zM332.36641,134.92337c-1.8819,0.25852 -3.81159,0.73512 -5.59821,1.06167c-6.80733,1.22554 -5.93844,9.16045 -4.95458,14.51386c0.96427,5.7136 5.89356,9.53253 11.60985,9.20733c5.12803,-0.94651 13.42789,-3.94079 13.41457,-10.32347c0.18337,-2.09947 0.66915,-4.45219 0.07913,-6.5264c-1.02211,-3.59322 -5.23869,-5.67044 -8.45487,-7.07553c-0.10529,0.1231 -0.28917,0.24193 -0.5789,0.13998c-0.32111,-0.11301 -0.371,-0.35603 -0.36323,-0.52249c-1.09729,-0.31177 -2.21061,0.10576 -3.36032,0.31589c-3.30187,0.6035 -8.74906,1.17464 -10.74409,4.08188c0,0 -0.30972,0.44827 -0.75799,0.13854c-0.44826,-0.30973 -0.13854,-0.75799 -0.13854,-0.75799c1.92055,-2.76268 6.328,-3.63666 9.8472,-4.25327z" fill="#00ffd7" fill-rule="nonzero" stroke-width="0.5"/><path d="M322.56476,139.20657c0,0 -0.30855,0.4464 0.13971,0.75611c0.44826,0.30973 0.6657,-0.19646 0.6657,-0.19646c1.99503,-2.90724 7.48644,-3.503 10.78831,-4.1065c1.14971,-0.21014 2.27836,-0.62586 3.37565,-0.31409c-0.00777,0.16647 0.04431,0.41011 0.36541,0.52312c0.28971,0.10196 0.47581,-0.01613 0.58111,-0.13923c3.2162,1.40511 7.46611,3.51638 8.48822,7.1096c0.59001,2.07421 0.10606,4.45438 -0.07731,6.55385c0.01334,6.38269 -8.3444,9.42107 -13.47244,10.36758c-5.71629,0.3252 -10.69375,-3.53357 -11.65802,-9.24717c-0.98386,-5.35342 -1.83133,-13.34753 4.97599,-14.57306c1.78662,-0.32655 3.75664,-0.70474 5.63854,-0.96326c-3.51919,0.61662 -7.89034,1.46683 -9.81089,4.22951z" fill="#ffffff" fill-rule="nonzero" stroke-width="0.5"/><path d="M301.56915,137.14075c3.56551,-0.34208 6.8294,1.16569 9.916,3.74055c2.45576,2.04871 5.54633,4.00929 6.34089,7.3289c0.45901,1.91772 -0.02755,3.94695 -0.21345,5.84652c-0.12749,1.30255 -0.30983,2.06621 -1.28319,3.00775c-2.7851,5.62379 -8.11293,8.83546 -13.98705,9.9091c-4.03147,0.73686 -6.45713,-1.60737 -9.98128,-3.12757c-1.55715,-0.67169 -3.45917,-0.97863 -4.74728,-2.03112c-0.96183,-0.78589 -1.89971,-2.39575 -2.13236,-3.59515c-0.29185,-1.59675 -0.96686,-3.51133 -0.91794,-5.1294c0.12839,-4.2466 4.8834,-8.4783 7.50447,-11.43678c1.08498,-3.06626 3.84223,-3.13668 6.43991,-3.77604c0.50779,-0.19485 1.00938,-0.35165 1.50511,-0.47237c0.17163,-0.06987 0.34074,-0.1459 0.50669,-0.22932l0.60802,-0.13245c0,0 0.25153,-0.04597 0.44146,0.09737zM296.44079,139.36962c-1.50571,0.40403 -2.81566,1.07361 -3.4309,2.83182c-2.41208,2.8251 -7.28055,6.96939 -7.36074,10.98242c-0.03035,1.51861 0.6294,3.3364 0.90421,4.83993c0.53476,3.18116 3.75206,3.74913 6.2179,4.81265c3.29832,1.42257 5.63609,3.74856 9.37514,3.06516c5.66765,-1.03591 10.58953,-4.07746 13.30398,-9.48124c1.09632,-1.06047 1.01327,-1.96177 1.28369,-3.38961c1.0559,-5.57543 -2.09386,-8.09823 -5.947,-11.3127c-3.26738,-2.72594 -6.66209,-4.21215 -10.52241,-3.26048c-0.30308,0.10607 -0.61494,0.19524 -0.93145,0.2744c-0.68764,0.2354 -1.39031,0.5481 -2.10982,0.94447c0,0 -0.4775,0.26243 -0.73992,-0.21507c-0.01733,-0.03154 -0.03143,-0.06213 -0.04266,-0.09176z" fill="#00ffd7" fill-rule="nonzero" stroke-width="0.5"/><path d="M296.46409,139.41046c0.26244,0.4775 0.74233,0.21421 0.74233,0.21421c0.7195,-0.39637 1.43119,-0.71119 2.11882,-0.94659c0.31649,-0.07917 0.63218,-0.16875 0.93525,-0.27482c3.86032,-0.95166 7.29582,0.54853 10.5632,3.27447c3.85314,3.21447 7.02067,5.78073 5.96478,11.35614c-0.27041,1.42785 -0.18961,2.34179 -1.28592,3.40226c-2.71445,5.40376 -7.68521,8.48395 -13.35286,9.51986c-3.73904,0.68341 -6.11414,-1.65441 -9.41244,-3.07699c-2.46585,-1.06354 -5.69974,-1.65389 -6.2345,-4.83506c-0.27481,-1.50354 -0.9383,-3.33787 -0.90795,-4.85649c0.08019,-4.01304 4.9681,-8.20275 7.38019,-11.02783c0.61523,-1.75821 1.9407,-2.43688 3.44641,-2.8409c0.01123,0.02964 0.02535,0.06022 0.04268,0.09176z" fill="#ffffff" fill-rule="nonzero" stroke-width="0.5"/><path d="M300.93122,152.7264c-0.18936,-1.03605 0.497,-2.02943 1.53305,-2.2188c1.03605,-0.18936 2.02943,0.497 2.2188,1.53305c0.18936,1.03605 -0.497,2.02943 -1.53305,2.2188c-1.03605,0.18936 -2.02943,-0.497 -2.2188,-1.53305z" fill="#000000" fill-rule="nonzero" stroke-width="0.5"/><path d="M330.18317,148.00262c-0.18936,-1.03605 0.497,-2.02943 1.53305,-2.2188c1.03605,-0.18936 2.02943,0.497 2.2188,1.53305c0.18936,1.03605 -0.497,2.02943 -1.53305,2.2188c-1.03605,0.18936 -2.02943,-0.497 -2.2188,-1.53305z" fill="#000000" fill-rule="nonzero" stroke-width="0.5"/><path d="M316.98528,135.52398c-0.50828,0.64001 -1.14829,0.13173 -1.14829,0.13173l-0.85077,-0.6789c-2.4258,-1.36295 -5.00094,-2.29168 -7.50053,-3.51581c-2.30261,-1.12765 -4.73828,-3.16444 -7.16648,-3.84338c-3.05882,-1.70534 -6.6668,-2.20486 -9.70071,-4.07356c-2.63629,-1.62379 -6.58056,-4.80574 -9.76927,-4.93306c0,0 -0.81561,-0.05243 -0.76318,-0.86804c0.05243,-0.81561 0.86804,-0.76318 0.86804,-0.76318c4.33767,0.35114 7.85035,4.16844 11.68539,5.80723c2.68653,1.148 5.78768,1.87702 8.31386,3.32406c2.4797,0.74509 4.89502,2.72601 7.25226,3.88244c2.56773,1.25969 5.20305,2.21503 7.69351,3.6274l0.95444,0.75477c0,0 0.64001,0.50828 0.13173,1.14829z" fill="#00ffd7" fill-rule="nonzero" stroke-width="0.5"/><path d="M321.51936,134.2211c-0.49098,-0.65337 0.16239,-1.14436 0.16239,-1.14436l0.16694,-0.03973c1.20602,-2.10724 3.14687,-3.69415 4.19632,-5.93589c1.92095,-3.12571 3.8661,-6.31076 6.23167,-9.13108c3.57996,-4.26813 7.47723,-7.51814 10.34519,-12.43723c0,0 0.41164,-0.70605 1.1177,-0.29441c0.70605,0.41164 0.29441,1.1177 0.29441,1.1177c-4.61806,7.92084 -11.71066,13.68182 -16.55117,21.52256c-1.0618,2.24939 -3.0325,3.83876 -4.21071,5.96194l-0.60839,0.54288c0,0 -0.65337,0.49098 -1.14436,-0.16239z" fill="#00ffd7" fill-rule="nonzero" stroke-width="0.5"/><path d="M301.65254,195.92217c-0.49185,0.0899 -0.58175,-0.40195 -0.58175,-0.40195l0.02144,-0.0087c-1.14659,-2.18815 -1.96392,-4.21679 -2.40893,-6.65154c-1.20723,-6.623 -2.32366,-12.86283 3.93657,-17.28797c5.15302,-3.68342 9.54674,-6.67222 15.92866,-7.83868c6.10271,-1.09655 12.25942,1.35287 18.38616,0.85487c6.81601,-0.48148 12.76353,0.50512 15.74636,7.48951c2.1447,2.23502 2.54131,7.83915 3.33697,10.78319c0.35446,1.31157 1.02322,2.70733 0.48104,3.99398c0,0 -0.21273,0.45249 -0.66522,0.23976c-0.45249,-0.21273 -0.23976,-0.66522 -0.23976,-0.66522c0.47874,-0.85393 -0.29545,-2.39724 -0.54158,-3.3082c-0.76168,-2.81906 -1.13344,-8.36655 -3.2034,-10.48866c-2.9065,-6.66275 -8.27737,-7.51062 -14.83867,-7.04722c-6.07867,0.49418 -12.24459,-1.99272 -18.2821,-0.86829c-6.23622,1.13983 -10.49259,4.0695 -15.52908,7.67003c-5.89145,4.16449 -4.67108,10.0786 -3.53225,16.29312c0.42727,2.33767 1.20826,4.26531 2.31087,6.36698l0.07663,0.29326c0,0 0.0899,0.49185 -0.40195,0.58175z" fill="#00ffd7" fill-rule="nonzero" stroke-width="0.5"/></g><path d="M262.27664,22.42334c0.17023,-0.02371 0.3697,0.00292 0.59841,0.11728c0.89443,0.44721 0.44721,1.34164 0.44721,1.34164c-5.07889,10.15161 -10.87005,19.96203 -15.57227,30.32186c-2.8532,6.48469 -6.44115,12.57482 -9.27766,19.05706c-0.85086,1.94445 -2.10306,5.99086 -4.03451,7.13587c-0.70268,0.41657 -2.65995,-0.08905 -3.31916,-0.17148c-2.32081,-0.29021 -4.63489,-0.50471 -6.9534,-0.84234c-6.75147,-2.43567 -13.49544,-4.01679 -20.40176,-5.86912c-6.2282,-1.67045 -12.07541,-4.35611 -18.20824,-6.29279c-3.46729,-1.11879 -6.32729,-3.6472 -9.88188,-4.81955c-3.28615,-1.08381 -6.79086,-1.41945 -10.07908,-2.4487c-5.85469,-1.83258 -11.25643,-3.1845 -17.37084,-4.00192c-6.73881,-1.60415 -13.11776,-4.14385 -19.79429,-5.83564c-6.31921,-1.60125 -12.13069,-2.91227 -18.18523,-5.51421c-2.7074,-1.05264 -5.96957,-1.74478 -8.53968,-3.03586c-0.99792,-0.5013 -1.74754,-1.41889 -2.74564,-1.91983c-0.61675,-0.30954 -1.4433,-0.26705 -1.92533,-0.76086c-1.26522,-1.29613 -0.13949,-4.2414 0.33023,-5.63996c2.11095,-6.28515 7.72294,-10.17588 13.05449,-13.65298c6.37298,-4.15629 12.03085,-9.1731 15.97039,-15.73576c2.5244,-4.20526 3.62976,-10.01444 7.29359,-13.09896c1.31557,-2.00103 2.69138,-4.48244 5.05598,-5.46478c2.33101,-0.96838 6.21296,0.97321 8.53133,1.55265c7.73861,1.93415 15.05701,5.21739 22.40782,8.28022c7.7435,3.23347 14.39848,8.79636 21.71899,12.86096c4.35999,2.42082 9.09317,3.93964 13.45485,6.33114c3.50508,1.25575 7.16207,2.30213 10.58767,3.74195c1.5912,0.6688 3.36266,1.84595 5.05833,2.20618c6.72898,1.4295 13.89569,2.3687 20.80575,3.18626c3.0396,0.04592 5.97772,0.7713 8.94033,0.86241c3.69145,0.11353 7.57562,-0.94302 11.15366,-1.05308c0.02845,-0.05676 0.05688,-0.11354 0.08529,-0.17032l-0.15973,-0.21032c0,0 0.3681,-0.55215 0.95438,-0.45701zM260.38043,25.26706c-3.27565,0.14833 -6.87785,1.14821 -10.19888,1.04608c-2.99556,-0.09213 -5.9438,-0.81559 -9.01163,-0.86588c-6.97216,-0.81583 -14.28505,-1.70111 -21.0563,-3.21893c-1.85191,-0.41512 -3.70975,-1.59163 -5.45096,-2.32576c-3.43779,-1.44944 -7.11568,-2.48969 -10.63171,-3.76112c-4.41988,-2.39959 -9.19677,-3.95876 -13.60571,-6.40676c-7.2477,-4.02418 -13.8474,-9.57488 -21.51737,-12.76336c-7.25776,-3.02407 -14.48358,-6.27558 -22.12366,-8.18609c-1.64442,-0.41121 -5.82282,-2.37828 -7.38425,-1.60568c-1.96211,0.97086 -3.08619,3.2132 -4.2438,4.92909c-3.54204,2.65749 -4.69815,8.85389 -7.05302,12.77675c-4.09079,6.81462 -9.97422,12.06527 -16.59262,16.38162c-4.25324,2.77385 -9.43701,6.01977 -11.48951,10.84401c-0.18417,0.43288 -2.10894,5.0882 -1.52031,5.41481c3.91355,2.17149 8.23952,3.56695 12.50051,5.22437c5.97952,2.56821 11.67449,3.8409 17.9198,5.42671c6.63474,1.6847 12.97326,4.20508 19.66697,5.80772c6.17634,0.81751 11.65414,2.18646 17.56615,4.04837c3.31255,1.04325 6.84876,1.37977 10.16162,2.47471c3.51767,1.16263 6.41681,3.75335 9.84175,4.80641c6.10502,1.9279 11.92491,4.60556 18.12408,6.26823c6.89487,1.84926 13.63978,3.39211 20.36941,5.86074c2.24086,0.3132 4.48085,0.51807 6.72275,0.79879c0.72231,0.09044 1.56769,0.81066 2.1513,0.37557c1.87077,-1.39471 2.96242,-5.94884 3.9275,-8.01433c2.71648,-5.81382 5.88312,-11.33257 8.47148,-17.21507c4.36144,-9.60972 9.65956,-18.74574 14.45639,-28.12102z" fill="#000000" fill-rule="nonzero" stroke="none" stroke-width="0.5" stroke-linecap="butt"/><path d="M260.4302,25.26236c-4.79683,9.37528 -10.09695,18.53071 -14.45839,28.14043c-2.58836,5.8825 -5.76085,11.41376 -8.47733,17.22758c-0.96508,2.06549 -2.06046,6.62465 -3.93123,8.01936c-0.58361,0.43509 -1.42951,-0.28452 -2.15182,-0.37496c-2.2419,-0.28072 -4.48393,-0.48338 -6.72479,-0.79658c-6.72963,-2.46863 -13.48312,-4.00451 -20.37799,-5.85377c-6.19917,-1.66267 -12.03589,-4.33344 -18.14091,-6.26134c-3.42494,-1.05306 -6.33982,-3.64303 -9.85749,-4.80566c-3.31286,-1.09494 -6.86683,-1.4369 -10.17938,-2.48015c-5.91201,-1.86191 -11.40778,-3.24685 -17.58412,-4.06436c-6.69371,-1.60264 -13.03884,-4.13678 -19.67358,-5.82148c-6.24531,-1.58581 -11.94192,-2.86586 -17.92144,-5.43407c-4.26099,-1.65742 -8.58739,-3.05716 -12.50094,-5.22865c-0.58863,-0.32661 1.33606,-4.98528 1.52023,-5.41816c2.0525,-4.82424 7.23698,-8.07811 11.49022,-10.85196c6.6184,-4.31635 12.50723,-9.58253 16.59802,-16.39715c2.35487,-3.92286 3.5181,-10.12919 7.06014,-12.78668c1.15761,-1.71589 2.28553,-3.96197 4.24764,-4.93283c1.56143,-0.7726 5.74303,1.1919 7.38745,1.60311c7.64008,1.91051 14.88162,5.15423 22.13938,8.1783c7.66997,3.18848 14.3052,8.74205 21.5529,12.76623c4.40894,2.448 9.20567,4.02421 13.62555,6.4238c3.51603,1.27143 7.19948,2.32251 10.63727,3.77195c1.74121,0.73413 3.6005,1.91525 5.45241,2.33037c6.77125,1.51782 14.08541,2.40978 21.05757,3.22561c3.06783,0.05029 6.01621,0.7751 9.01177,0.86723c3.32103,0.10213 6.82366,-0.88845 10.09931,-1.03678z" data-paper-data="{&quot;noHover&quot;:false,&quot;origItem&quot;:[&quot;Path&quot;,{&quot;applyMatrix&quot;:true,&quot;segments&quot;:[[[260.38043,25.26706],[0,0],[-3.27565,0.14833]],[[250.18156,26.31314],[3.32103,0.10213],[-2.99556,-0.09213]],[[241.16993,25.44726],[3.06783,0.05029],[-6.97216,-0.81583]],[[220.11362,22.22833],[6.77125,1.51782],[-1.85191,-0.41512]],[[214.66266,19.90257],[1.74121,0.73413],[-3.43779,-1.44944]],[[204.03095,16.14145],[3.51603,1.27143],[-4.41988,-2.39959]],[[190.42525,9.73469],[4.40894,2.448],[-7.2477,-4.02418]],[[168.90788,-3.02867],[7.66997,3.18848],[-7.25776,-3.02407]],[[146.78422,-11.21476],[7.64008,1.91051],[-1.64442,-0.41121]],[[139.39996,-12.82044],[1.56143,-0.7726],[-1.96211,0.97086]],[[135.15616,-7.89135],[1.15761,-1.71589],[-3.54204,2.65749]],[[128.10314,4.8854],[2.35487,-3.92286],[-4.09079,6.81462]],[[111.51053,21.26702],[6.6184,-4.31635],[-4.25324,2.77385]],[[100.02102,32.11103],[2.0525,-4.82424],[-0.18417,0.43288]],[[98.50071,37.52584],[-0.58863,-0.32661],[3.91355,2.17149]],[[111.00122,42.75021],[-4.26099,-1.65742],[5.97952,2.56821]],[[128.92102,48.17692],[-6.24531,-1.58581],[6.63474,1.6847]],[[148.58799,53.98464],[-6.69371,-1.60264],[6.17634,0.81751]],[[166.15414,58.03301],[-5.91201,-1.86191],[3.31255,1.04325]],[[176.31575,60.50772],[-3.31286,-1.09494],[3.51767,1.16263]],[[186.15751,65.31413],[-3.42494,-1.05306],[6.10502,1.9279]],[[204.28158,71.58236],[-6.19917,-1.66267],[6.89487,1.84926]],[[224.65099,77.4431],[-6.72963,-2.46863],[2.24086,0.3132]],[[231.37375,78.24189],[-2.2419,-0.28072],[0.72231,0.09044]],[[233.52504,78.61746],[-0.58361,0.43509],[1.87077,-1.39471]],[[237.45255,70.60313],[-0.96508,2.06549],[2.71648,-5.81382]],[[245.92402,53.38806],[-2.58836,5.8825],[4.36144,-9.60972]],[[260.38041,25.26704],[-4.79683,9.37528],[0,0]]],&quot;closed&quot;:true,&quot;fillColor&quot;:[0,0,0,1]}]}" fill="#ffffff" fill-rule="nonzero" stroke="none" stroke-width="0.5" stroke-linecap="butt"/><path d="M97.4973,58.78812c-9.07364,0.39415 -18.03215,1.44673 -27.10129,2.51648c-3.70809,0.43651 -7.34749,1.52691 -11.04489,1.92885c-1.05973,0.1152 -2.12106,0.2159 -3.18297,0.30893c-0.80757,0.07075 -1.84184,-0.85967 -2.41506,-0.28644c-0.3419,0.3419 0.82595,4.80698 0.99276,5.4022c1.20649,4.30494 2.61642,8.47982 3.65659,12.83878c0.74568,4.46593 2.17498,8.44413 3.26895,12.79847c1.58922,6.32556 2.85089,13.45378 7.09862,18.723c1.22542,1.52011 2.74139,2.88231 3.99896,4.40139c3.73438,3.95705 7.93228,8.05447 10.70641,12.44806c0.22692,0.35939 0.81874,-0.23924 1.20553,-0.41544c1.23515,-0.56267 2.46013,-1.17696 3.76482,-1.5511c3.70512,-1.06252 7.25564,-2.08472 11.0649,-2.68619c5.01169,-0.79089 9.97101,-2.36037 14.97858,-3.02668c7.47754,-0.99496 14.90143,-1.18519 22.22469,-2.72551c-0.54227,-5.29844 -5.38825,-8.15477 -8.17958,-12.31109c-2.45156,-3.6504 -3.82492,-7.44538 -5.55923,-11.37298c-1.10953,-2.51269 -2.59696,-4.68725 -3.46568,-7.34422c-1.12424,-3.55083 -2.80576,-7.83963 -4.46474,-11.25144c-0.951,-1.95579 -2.54372,-3.56355 -3.50915,-5.3797c-0.66889,-1.25831 -1.07076,-3.73447 -1.49961,-5.12815c-1.11001,-3.60731 -2.33022,-6.92157 -3.66726,-10.41409c-0.1268,-0.40666 -0.77904,0.19618 -1.18622,0.46173c0.26813,0.11436 0.55935,0.36279 0.55935,0.90244c0,1 -1,1 -1,1c-1.36407,0 -2.72425,0.01841 -4.08129,0.0531c-0.50477,0.20375 -1.00378,0.41928 -1.489,0.66189l-0.72074,0.10557c0,0 -0.75641,0 -0.9535,-0.65787zM100.15933,56.69148c1.34055,-0.56909 2.69598,-1.08095 4.03227,-1.69955c0.77688,-0.35964 1.46885,-1.13031 2.32411,-1.09288c0.65843,0.02881 1.01512,0.84082 1.52268,1.26123c1.51206,3.65264 2.74038,7.12823 3.90913,10.9269c0.36771,1.19514 0.71735,3.60308 1.31787,4.71247c1.0079,1.86199 2.62731,3.54107 3.60245,5.56121c1.70294,3.52791 3.32598,7.79541 4.54342,11.45478c0.83897,2.5903 2.31321,4.69702 3.39049,7.14868c1.68027,3.82392 2.99799,7.49981 5.38169,11.0559c3.38389,5.04822 8.55754,7.79013 8.2318,14.49416c-2.22918,1.29276 -4.21698,1.20839 -6.72946,1.5587c-1.52445,0.21255 -2.01383,0.80005 -3.51855,1.08816c-4.32982,0.82903 -9.03962,0.42765 -13.4142,1.00973c-4.98959,0.66391 -9.9358,2.23064 -14.93045,3.01968c-4.16382,0.65745 -8.73363,1.5188 -12.6437,3.1446c-1.29824,0.5398 -3.33107,2.19181 -4.93431,1.10902c-0.41066,-0.27735 -0.27519,-0.96358 -0.52831,-1.3896c-0.66029,-1.11132 -2.06395,-2.1004 -2.91293,-3.14225c-2.35038,-2.88434 -4.98411,-5.46494 -7.53272,-8.16791c-1.27567,-1.53969 -2.82284,-2.9276 -4.06008,-4.47392c-4.41827,-5.52199 -5.81506,-12.8395 -7.47268,-19.46394c-1.09799,-4.38795 -2.54676,-8.41115 -3.2956,-12.91269c-1.17894,-4.92707 -3.25386,-9.74882 -4.18003,-14.70849c-0.15205,-0.81425 -0.69232,-4.57477 0.07665,-5.34375c0.44192,-0.44192 3.11959,-0.2431 3.60244,-0.28644c4.75933,-0.42722 9.44824,-1.67311 14.22044,-2.23692c10.03163,-1.18287 19.93263,-2.34245 29.99756,-2.62689z" fill="#000000" fill-rule="nonzero" stroke="none" stroke-width="0.5" stroke-linecap="butt"/><path d="M97.5006,58.73822c0.19709,0.65787 0.95497,0.65799 0.95497,0.65799l0.72178,-0.10546c0.48522,-0.24261 0.98622,-0.45786 1.49099,-0.66161c1.35704,-0.03469 2.72273,-0.0519 4.0868,-0.0519c0,0 0.97239,0.09611 0.97239,-0.90389c0,-0.53965 -0.26372,-0.88422 -0.53185,-0.99858c0.40718,-0.26555 1.0607,-0.86802 1.1875,-0.46136c1.33704,3.49252 2.56724,6.81104 3.67725,10.41835c0.42885,1.39368 0.83668,3.87378 1.50557,5.13209c0.96543,1.81615 2.56673,3.43232 3.51773,5.38811c1.65898,3.41181 3.35057,7.72251 4.47481,11.27334c0.86872,2.65697 2.35679,4.84575 3.46632,7.35844c1.73431,3.9276 3.10396,7.73717 5.55552,11.38757c2.79133,4.15632 7.63345,7.02001 8.17572,12.31845c-7.32326,1.54032 -14.76174,1.7454 -22.23928,2.74036c-5.00757,0.66631 -9.98785,2.24365 -14.99954,3.03454c-3.80926,0.60147 -7.37594,1.6232 -11.08106,2.68572c-1.30469,0.37414 -2.53404,0.98738 -3.76919,1.55005c-0.38679,0.1762 -0.9799,0.77444 -1.20682,0.41505c-2.77413,-4.39359 -6.99072,-8.50187 -10.7251,-12.45892c-1.25757,-1.51908 -2.77957,-2.88793 -4.00499,-4.40804c-4.24773,-5.26922 -5.51947,-12.42572 -7.10869,-18.75128c-1.09397,-4.35434 -2.52101,-8.34937 -3.26669,-12.8153c-1.04017,-4.35896 -2.44521,-8.54468 -3.6517,-12.84962c-0.16681,-0.59522 -1.33244,-5.06367 -0.99054,-5.40557c0.57322,-0.57323 1.6082,0.35622 2.41577,0.28547c1.06191,-0.09303 2.12468,-0.19555 3.18441,-0.31075c3.6974,-0.40194 7.34446,-1.49977 11.05255,-1.93628c9.06914,-1.06975 18.06178,-2.13282 27.13542,-2.52697z" data-paper-data="{&quot;noHover&quot;:false,&quot;origItem&quot;:[&quot;Path&quot;,{&quot;applyMatrix&quot;:true,&quot;segments&quot;:[[[97.4973,58.78812],[0,0],[-9.07364,0.39415]],[[70.39601,61.3046],[9.06914,-1.06975],[-3.70809,0.43651]],[[59.35113,63.23345],[3.6974,-0.40194],[-1.05973,0.1152]],[[56.16815,63.54238],[1.06191,-0.09303],[-0.80757,0.07075]],[[53.7531,63.25594],[0.57322,-0.57323],[-0.3419,0.3419]],[[54.74586,68.65814],[-0.16681,-0.59522],[1.20649,4.30494]],[[58.40244,81.49692],[-1.04017,-4.35896],[0.74568,4.46593]],[[61.67139,94.29539],[-1.09397,-4.35434],[1.58922,6.32556]],[[68.77001,113.01839],[-4.24773,-5.26922],[1.22542,1.52011]],[[72.76897,117.41978],[-1.25757,-1.51908],[3.73438,3.95705]],[[83.47538,129.86784],[-2.77413,-4.39359],[0.22692,0.35939]],[[84.68092,129.4524],[-0.38679,0.1762],[1.23515,-0.56267]],[[88.44574,127.9013],[-1.30469,0.37414],[3.70512,-1.06252]],[[99.51063,125.21511],[-3.80926,0.60147],[5.01169,-0.79089]],[[114.48921,122.18843],[-5.00757,0.66631],[7.47754,-0.99496]],[[136.7139,119.46292],[-7.32326,1.54032],[-0.54227,-5.29844]],[[128.53432,107.15183],[2.79133,4.15632],[-2.45156,-3.6504]],[[122.9751,95.77885],[1.73431,3.9276],[-1.10953,-2.51269]],[[119.50941,88.43463],[0.86872,2.65697],[-1.12424,-3.55083]],[[115.04467,77.18319],[1.65898,3.41181],[-0.951,-1.95579]],[[111.53552,71.80349],[0.96543,1.81615],[-0.66889,-1.25831]],[[110.03591,66.67534],[0.42885,1.39368],[-1.11001,-3.60731]],[[106.36865,56.26125],[1.33704,3.49252],[-0.1268,-0.40666]],[[105.18243,56.72298],[0.40718,-0.26555],[0.26813,0.11436]],[[105.74178,57.62542],[0,-0.53965],[0,1]],[[104.74178,58.62542],[0,0],[-1.36407,0]],[[100.66049,58.67852],[1.35704,-0.03469],[-0.50477,0.20375]],[[99.17149,59.34041],[0.48522,-0.24261],[0,0]],[98.45075,59.44598],[[97.49725,58.78811],[0.19709,0.65787],[0,0]]],&quot;closed&quot;:true,&quot;fillColor&quot;:[0,0,0,1]}]}" fill="#ffffff" fill-rule="nonzero" stroke="none" stroke-width="0.5" stroke-linecap="butt"/><path d="M18.30858,41.85518c1,0 1,1 1,1l-0.00749,1.24543c0.0152,0.07275 0.03278,0.14481 0.05252,0.21628c1.47515,0 2.95029,0 4.42544,0c0,0 1,0 1,1c0,1 -1,1 -1,1c-1.14149,0 -2.28299,0 -3.42448,0c0.44184,0.71404 0.89498,1.45124 1.11125,2.30892c0.97404,3.86289 1.36616,7.91556 2.20002,11.81376c0.35973,1.68169 0.29396,4.81766 1.56535,6.02022c6.43645,6.87615 9.69722,16.12643 13.14675,24.69705c1.63553,4.0636 3.70488,7.57886 4.66877,11.88832c0.6063,2.71072 1.29642,4.72049 2.66314,7.14984c0.86714,1.54135 2.32453,3.19823 2.8322,4.8871c0.2104,0.69993 0.03683,2.94662 -0.59171,3.47975c-0.82342,0.69842 -3.8564,0.80013 -5.00473,1.10238c-5.71769,1.505 -11.52161,2.60305 -17.25405,4.07711c-6.33326,1.62855 -12.52603,3.02954 -19.03217,3.80554c-1.73674,0.20714 -4.43795,1.19893 -6.01251,0.45631c-1.94727,-0.91841 -1.7148,-2.37605 -2.87571,-3.89638c-1.44191,-1.88831 -3.37753,-3.27111 -4.80784,-5.26071c-4.83967,-6.7331 -10.26918,-13.78965 -13.59879,-21.45186c-1.96089,-4.51247 -3.13874,-10.18683 -4.39022,-14.96185c-3.17439,-12.12479 -7.65409,-23.6897 -9.72427,-36.01187l-0.04761,0.01587l-0.62507,-1.87522c-0.03799,-0.10568 -0.0587,-0.21961 -0.0587,-0.33837c0,-0.55228 0.44772,-1 1,-1c0.11777,0 0.23078,0.02036 0.33571,0.05775l1.68746,0.55719c6.44452,1.77635 14.72488,0.47915 21.41447,0.47915c9.45322,0 18.90643,0 28.35965,0l-0.00735,-1.46171c0,0 0,-1 1,-1zM18.20159,46.31689c-9.74843,0 -19.49687,0 -29.2453,0c-6.902,0 -15.17426,1.20981 -21.86223,-0.53016l0.00574,0.01721l-0.14736,0.04912c1.83199,2.94626 1.39878,8.0239 2.26692,11.23832c2.25553,8.35143 5.49181,16.4393 7.68975,24.83447c1.22455,4.68241 2.37029,10.2909 4.30416,14.70537c3.29229,7.51538 8.61884,14.4339 13.37398,21.04747c1.42469,1.98178 3.32984,3.32375 4.77349,5.21435c0.88156,1.15449 0.84956,2.57054 2.14569,3.30429c0.44245,0.25048 0.9929,-0.21954 1.48841,-0.33345c1.65219,-0.3798 3.69691,-0.34129 5.39075,-0.58346c5.74221,-0.82095 11.1919,-2.03194 16.80789,-3.47606c5.72877,-1.47311 11.52915,-2.57092 17.24315,-4.07427c1.20519,-0.31708 3.26116,-0.26332 4.2171,-0.69099c0.94127,-0.42111 -1.79804,-4.37669 -1.95539,-4.63973c-1.77071,-2.96021 -2.85164,-5.55658 -3.6034,-8.91765c-0.93597,-4.18465 -2.96932,-7.60345 -4.56248,-11.55403c-3.34621,-8.29763 -6.45334,-17.48075 -12.75572,-24.0951c-1.61212,-1.82211 -1.57173,-4.66758 -2.07266,-7.00382c-0.82895,-3.86602 -1.22823,-7.87325 -2.17635,-11.70921c-0.27855,-1.12698 -0.82363,-1.94548 -1.32613,-2.80267z" fill="#000000" fill-rule="nonzero" stroke="none" stroke-width="0.5" stroke-linecap="butt"/><path d="M18.21528,46.2688c0.5025,0.85719 1.05008,1.67647 1.32863,2.80345c0.94812,3.83596 1.35654,7.84739 2.18549,11.71341c0.50093,2.33624 0.46922,5.18816 2.08134,7.01027c6.30238,6.61435 9.42455,15.84389 12.77076,24.14152c1.59316,3.95058 3.62201,7.38235 4.55798,11.567c0.75176,3.36107 1.82916,5.96332 3.59987,8.92353c0.15735,0.26304 2.89508,4.22076 1.95381,4.64187c-0.95594,0.42767 -3.01402,0.37644 -4.21921,0.69352c-5.714,1.50335 -11.52893,2.61239 -17.2577,4.0855c-5.61599,1.44412 -11.08655,2.66056 -16.82876,3.48151c-1.69384,0.24217 -3.74533,0.20346 -5.39752,0.58326c-0.49551,0.11391 -1.04774,0.58372 -1.49019,0.33324c-1.29613,-0.73375 -1.26749,-2.15037 -2.14905,-3.30486c-1.44365,-1.8906 -3.35691,-3.23496 -4.7816,-5.21674c-4.75514,-6.61357 -10.10978,-13.55961 -13.40207,-21.07499c-1.93387,-4.41447 -3.08293,-10.04881 -4.30748,-14.73122c-2.19794,-8.39517 -5.42434,-16.50672 -7.67987,-24.85815c-0.86814,-3.21442 -0.43053,-8.29706 -2.26252,-11.24332l0.14745,-0.04921l-0.00573,-0.01721c6.68797,1.73997 14.9748,0.52014 21.8768,0.52014c9.74843,0 19.53114,-0.00253 29.27957,-0.00253z" data-paper-data="{&quot;noHover&quot;:false,&quot;origItem&quot;:[&quot;Path&quot;,{&quot;applyMatrix&quot;:true,&quot;segments&quot;:[[[18.20159,46.31689],[0,0],[-9.74843,0]],[[-11.04372,46.31689],[9.74843,0],[-6.902,0]],[[-32.90594,45.78673],[6.68797,1.73997],[0,0]],[-32.90021,45.80394],[[-33.04756,45.85306],[0,0],[1.83199,2.94626]],[[-30.78065,57.09138],[-0.86814,-3.21442],[2.25553,8.35143]],[[-23.0909,81.92585],[-2.19794,-8.39517],[1.22455,4.68241]],[[-18.78674,96.63122],[-1.93387,-4.41447],[3.29229,7.51538]],[[-5.41276,117.67869],[-4.75514,-6.61357],[1.42469,1.98178]],[[-0.63927,122.89304],[-1.44365,-1.8906],[0.88156,1.15449]],[[1.50643,126.19733],[-1.29613,-0.73375],[0.44245,0.25048]],[[2.99483,125.86388],[-0.49551,0.11391],[1.65219,-0.3798]],[[8.38558,125.28042],[-1.69384,0.24217],[5.74221,-0.82095]],[[25.19348,121.80436],[-5.61599,1.44412],[5.72877,-1.47311]],[[42.43662,117.73009],[-5.714,1.50335],[1.20519,-0.31708]],[[46.65373,117.0391],[-0.95594,0.42767],[0.94127,-0.42111]],[[44.69833,112.39937],[0.15735,0.26304],[-1.77071,-2.96021]],[[41.09493,103.48172],[0.75176,3.36107],[-0.93597,-4.18465]],[[36.53246,91.92769],[1.59316,3.95058],[-3.34621,-8.29763]],[[23.77674,67.83259],[6.30238,6.61435],[-1.61212,-1.82211]],[[21.70407,60.82877],[0.50093,2.33624],[-0.82895,-3.86602]],[[19.52773,49.11956],[0.94812,3.83596],[-0.27855,-1.12698]],[[18.20159,46.31689],[0.5025,0.85719],[0,0]]],&quot;closed&quot;:true,&quot;fillColor&quot;:[0,0,0,1]}]}" fill="#ffffff" fill-rule="nonzero" stroke="none" stroke-width="0.5" stroke-linecap="butt"/><path d="M49.64264,-15.46992c-2.27547,0.05637 -4.55231,0.10718 -6.81436,0.27435c-6.29929,0.46553 -12.35318,1.47251 -18.7072,1.47416c-1.97999,-0.00163 -3.9089,0.23907 -5.88939,0.26486c-0.67014,0.00873 -1.34052,0.02057 -2.01058,0.00673c-0.59268,-0.01224 -2.27152,-0.50734 -1.76771,-0.19493c1.80534,1.11947 2.94381,2.86144 4.57319,4.18058c5.41749,4.38598 10.16908,9.35636 15.72316,13.62912c3.61579,2.93802 7.9608,5.56998 12.57688,6.39858c2.78216,0.49941 5.95287,-0.2149 8.75145,-0.29926c5.04509,-0.15208 10.46885,0.5454 15.44316,1.36987c4.19072,-0.00346 8.15694,0.64157 12.18981,1.66602c0.69862,0.17747 1.41136,0.32513 2.07707,0.60152c0.57499,0.23873 1.15039,1.13973 1.681,0.81407c5.85443,-3.59323 10.47611,-9.02429 15.53184,-13.62486c2.89843,-0.23002 3.71716,-2.42597 5.79082,-4.24763c0.69446,-0.61007 2.20865,-0.81144 2.16355,-1.73471c-0.01481,-0.30309 -0.60113,-0.09325 -0.90439,-0.10399c-1.84454,-0.06531 -3.57505,-0.35393 -5.41841,-0.52457c-2.87035,-0.2657 -5.78132,-0.9079 -8.65752,-1.09322c-3.41065,-0.21976 -6.53449,-0.07583 -9.75786,-1.40052c-7.68337,-1.15319 -14.25854,-4.90453 -21.42302,-7.66511c-2.19201,-0.84462 -4.37879,-1.85192 -6.56395,-2.12883c0.24108,0.1085 0.47735,0.33205 0.52797,0.78765c0.11043,0.99388 -0.88345,1.10432 -0.88345,1.10432c-2.22681,0.24624 -4.47414,0.34221 -6.72629,0.40635l-1.04278,0.14681c0,0 -0.22591,0 -0.46299,-0.10738zM50.77953,-17.49394c0.68873,-0.49193 1.40175,-0.95075 2.12717,-1.38634c4.30447,-2.15538 8.30708,-0.32095 12.60644,1.33515c7.12083,2.74293 13.6185,6.4063 21.23808,7.60402c3.1185,1.26767 6.08736,1.11233 9.38875,1.33471c2.88508,0.19433 5.79892,0.82743 8.67728,1.09496c1.63452,0.15192 4.16717,-0.00755 5.69319,0.56952c0.88281,0.33384 2.14339,0.62292 2.37788,1.53715c0.23967,0.93441 -0.75029,1.79771 -1.32349,2.57359c-1.57192,2.12775 -5.1381,5.79204 -7.77841,5.76139c-3.64226,3.78479 -7.22393,7.46154 -11.54983,10.45454c-1.06666,0.738 -2.81452,2.74554 -4.0021,3.17877c-1.68985,0.61647 -3.41125,-0.93083 -4.99466,-1.31965c-3.95303,-0.97069 -7.77458,-1.61295 -11.88021,-1.61626c-4.90326,-0.7894 -10.22256,-1.5221 -15.19142,-1.36536c-3.00059,0.09465 -6.30908,0.77011 -9.30107,0.24779c-4.88418,-0.85265 -9.54186,-3.67501 -13.35784,-6.77625c-4.62803,-3.55969 -8.39646,-7.70249 -12.77319,-11.48927c-1.22521,-1.06005 -2.63728,-1.81466 -3.7936,-2.9687c-0.91804,-0.91623 -4.39023,-3.6085 -4.48878,-4.88573c-0.05703,-0.73918 0.70016,-1.42944 1.3662,-1.75508c0.71826,-0.35117 1.59769,-0.06817 2.39702,-0.08483c2.64083,-0.05503 5.26828,-0.26956 7.9039,-0.2716c6.30503,-0.00163 12.30809,-1.00456 18.55972,-1.4687c2.68673,-0.19947 5.39622,-0.23053 8.09899,-0.30384zM57.40089,-17.87589c-0.63707,-0.02269 -1.27404,0.02634 -1.911,0.16921c0.63848,-0.04613 1.27561,-0.10159 1.911,-0.16921z" fill="#000000" fill-rule="nonzero" stroke="none" stroke-width="0.5" stroke-linecap="butt"/><path d="M49.60854,-15.50651c0.23708,0.10738 0.46351,0.1069 0.46351,0.1069l1.0446,-0.14838c2.25215,-0.06414 4.51548,-0.16894 6.74229,-0.41518c0,0 0.99744,-0.11148 0.88701,-1.10536c-0.05062,-0.4556 -0.28781,-0.67891 -0.52889,-0.78741c2.18516,0.27691 4.3925,1.28302 6.58451,2.12764c7.16448,2.76058 13.78039,6.54806 21.46376,7.70125c3.22337,1.32469 6.34844,1.18649 9.75909,1.40625c2.8762,0.18532 5.78752,0.83034 8.65787,1.09604c1.84336,0.17064 3.57396,0.46035 5.4185,0.52566c0.30326,0.01074 0.88959,-0.19892 0.9044,0.10417c0.0451,0.92327 -1.469,1.12635 -2.16346,1.73642c-2.07366,1.82166 -2.89246,4.02261 -5.79089,4.25263c-5.05573,4.60057 -9.68546,10.05578 -15.53989,13.64901c-0.53061,0.32566 -1.10625,-0.57498 -1.68124,-0.81371c-0.66571,-0.27639 -1.37916,-0.42301 -2.07778,-0.60048c-4.03287,-1.02445 -8.01203,-1.65679 -12.20275,-1.65333c-4.97431,-0.82447 -10.45041,-1.51976 -15.4955,-1.36768c-2.79858,0.08436 -5.98418,0.78596 -8.76634,0.28655c-4.61608,-0.8286 -8.97081,-3.48153 -12.5866,-6.41955c-5.55408,-4.27276 -10.30586,-9.26207 -15.72335,-13.64805c-1.62938,-1.31914 -2.76715,-3.06435 -4.57249,-4.18382c-0.50381,-0.31241 1.17509,0.18244 1.76777,0.19468c0.67006,0.01384 1.34058,0.00147 2.01072,-0.00726c1.98049,-0.02579 3.91002,-0.26861 5.89001,-0.26698c6.35402,-0.00165 12.41442,-1.02193 18.71371,-1.48746c2.26205,-0.16717 4.54594,-0.22615 6.82141,-0.28252z" data-paper-data="{&quot;noHover&quot;:false,&quot;origItem&quot;:[&quot;Path&quot;,{&quot;applyMatrix&quot;:true,&quot;segments&quot;:[[[49.64264,-15.46992],[0,0],[-2.27547,0.05637]],[[42.82827,-15.19557],[2.26205,-0.16717],[-6.29929,0.46553]],[[24.12108,-13.72141],[6.35402,-0.00165],[-1.97999,-0.00163]],[[18.23168,-13.45655],[1.98049,-0.02579],[-0.67014,0.00873]],[[16.2211,-13.44982],[0.67006,0.01384],[-0.59268,-0.01224]],[[14.4534,-13.64475],[-0.50381,-0.31241],[1.80534,1.11947]],[[19.02658,-9.46417],[-1.62938,-1.31914],[5.41749,4.38598]],[[34.74974,4.16495],[-5.55408,-4.27276],[3.61579,2.93802]],[[47.32663,10.56353],[-4.61608,-0.8286],[2.78216,0.49941]],[[56.07808,10.26427],[-2.79858,0.08436],[5.04509,-0.15208]],[[71.52123,11.63414],[-4.97431,-0.82447],[4.19072,-0.00346]],[[83.71105,13.30016],[-4.03287,-1.02445],[0.69862,0.17747]],[[85.78811,13.90168],[-0.66571,-0.27639],[0.57499,0.23873]],[[87.46911,14.71575],[-0.53061,0.32566],[5.85443,-3.59323]],[[103.00095,1.09089],[-5.05573,4.60057],[2.89843,-0.23002]],[[108.79178,-3.15674],[-2.07366,1.82166],[0.69446,-0.61007]],[[110.95533,-4.89145],[0.0451,0.92327],[-0.01481,-0.30309]],[[110.05093,-4.99544],[0.30326,0.01074],[-1.84454,-0.06531]],[[104.63252,-5.52001],[1.84336,0.17064],[-2.87035,-0.2657]],[[95.97501,-6.61323],[2.8762,0.18532],[-3.41065,-0.21976]],[[86.21714,-8.01375],[3.22337,1.32469],[-7.68337,-1.15319]],[[64.79413,-15.67886],[7.16448,2.76058],[-2.19201,-0.84462]],[[58.23017,-17.80769],[2.18516,0.27691],[0.24108,0.1085]],[[58.75814,-17.02004],[-0.05062,-0.4556],[0.11043,0.99388]],[[57.87469,-15.91572],[0,0],[-2.22681,0.24624]],[[51.1484,-15.50937],[2.25215,-0.06414],[0,0]],[50.10562,-15.36256],[[49.64263,-15.46994],[0.23708,0.10738],[0,0]]],&quot;closed&quot;:true,&quot;fillColor&quot;:[0,0,0,1]}]}" fill="#ffffff" fill-rule="nonzero" stroke="none" stroke-width="0.5" stroke-linecap="butt"/></g></g></svg>