<svg version="1.1" xmlns="http://www.w3.org/2000/svg" xmlns:xlink="http://www.w3.org/1999/xlink" width="1733.09309" height="836.33634" viewBox="0,0,1733.09309,836.33634"><g transform="translate(546.54655,238.16817)"><g data-paper-data="{&quot;isPaintingLayer&quot;:true}" stroke-linejoin="miter" stroke-miterlimit="10" stroke-dasharray="" stroke-dashoffset="0" style="mix-blend-mode: normal"><path d="M164.31222,307.36386l33.51062,-38.70368l93.63269,-0.34557l-19.71212,39.04924z" fill="#cedce9" fill-rule="nonzero" stroke="#000000" stroke-width="0" stroke-linecap="round"/><path d="M155.40589,305.33446c-3.23389,-0.54626 -10.93005,-1.39775 -7.55727,-2.27799c-1.844,0.28207 -4.30412,0.62646 -5.61315,0.71911c-6.20127,0.4389 -14.23792,0 -20.63695,0c-17.55532,0 -34.59883,-0.23297 -51.59221,0.87145c-7.67977,0.49911 -9.79093,-1.04219 -12.14916,1.11439c-4.86436,3.6185 -14.01637,6.84744 -19.89547,10.49017c-7.9681,4.93703 -11.05811,9.70329 -15.94283,14.65367c-5.52757,4.07675 -1.025,11.90404 -1.025,16.44164c0,1.21463 1.55061,3.37671 0.06965,4.27077c1.47223,0.04517 2.89418,0.08638 3.79981,0.08638c6.01912,0 12.03817,0 18.05732,0c23.94306,0 51.76182,-0.17687 75.00121,-2.1395c27.59276,-2.09372 57.49806,0.9087 85.31277,-0.97052c15.23203,-0.94251 31.83586,-0.38225 47.34465,-0.3756c7.86761,0.00337 14.60498,-1.0061 18.05729,0.87143c0.90739,0.49349 0,-1.16189 0,-1.74283c0,-1.45234 0,-2.9048 0,-4.35714c0,-8.13331 0,-16.2666 0,-24.39991c0,-1.92278 -1.49199,-8.80172 1.5946,-9.54611c-0.57897,-0.01168 -1.23426,-0.03068 -1.5946,-0.03959c-3.19203,-0.07867 -4.97543,-0.01923 -7.46653,-0.61968c-4.32469,-1.04242 -18.91496,-0.25173 -24.77861,-0.25173c-22.78658,0 -45.57311,0 -68.3597,0c0,0 -5.15921,0 -5.15921,-1.74283c0,-0.07155 0.00864,-0.14012 0.02534,-0.2059c-2.46639,-0.17661 -4.9577,-0.42151 -7.49184,-0.84954zM236.39147,304.64711c13.75515,0 31.33537,-0.82741 40.72895,2.70627c5.3829,2.02492 1.83453,8.5173 1.83453,11.23656c0,8.13331 0,16.26659 0,24.3999c0,0.92876 1.77701,5.53592 0,6.09999c-17.94876,5.69716 -51.77923,1.25454 -73.69667,2.92223c-27.19829,1.83757 -58.52042,-1.66409 -84.83379,0.93413c-23.95197,2.02284 -52.80767,2.24361 -77.50383,2.24361c-3.54239,0 -24.78633,0.90628 -27.08588,0c-6.59428,-2.5989 -5.15921,-4.76686 -5.15921,-7.84285c0,-5.56376 -2.9196,-12.19578 1.55455,-17.54395c5.00655,-5.07381 8.51759,-10.16262 16.50277,-15.11024c3.22112,-1.99576 6.70037,-4.6654 10.86308,-6.46797c2.72386,-1.17949 7.93168,-2.13783 8.58236,-3.67112c4.41379,-4.0364 12.39022,-2.71385 21.82839,-3.39225c16.80111,-1.20765 34.18712,-0.87145 51.59221,-0.87145c6.41889,0 18.96058,-0.99792 23.48881,-0.68743c7.88258,0.54055 12.45236,2.81143 20.09224,3.48571c5.60602,0.49478 11.51373,0.20188 18.05732,1.30714c0.49676,0.08395 0.99342,0.16782 1.49024,0.25173c17.22133,0 34.44276,0 51.66413,0z" fill="#000000" fill-rule="nonzero" stroke="none" stroke-width="0" stroke-linecap="butt"/><path d="M162.96954,306.10038c-0.01671,0.06576 -0.02475,0.13439 -0.02475,0.20594c0,1.74285 5.18455,1.74582 5.18455,1.74582c22.78654,0 45.69452,0.03465 68.48118,0.03465c5.86362,0 20.46717,-0.78255 24.79186,0.25983c2.49105,0.60047 4.27852,0.54395 7.47043,0.62259c0.3603,0.00889 1.01613,0.02832 1.5952,0.04002c-3.08662,0.74438 -1.57896,7.64002 -1.57896,9.5628c0,8.13331 -0.01076,16.31501 -0.01076,24.44832c0,1.45238 -0.0088,2.91183 -0.0088,4.36417c0,0.58094 0.9035,2.23895 -0.0039,1.74548c-3.45229,-1.87752 -10.19581,-0.86433 -18.06335,-0.86768c-15.5088,-0.00663 -32.1596,-0.54702 -47.39158,0.39553c-27.81475,1.87923 -57.99335,-1.10628 -85.58613,0.98743c-23.23939,1.96264 -51.17108,2.10916 -75.11432,2.10916c-6.01914,0 -12.04873,-0.00548 -18.06785,-0.00548c-0.90571,0 -2.3296,-0.0423 -3.80175,-0.08748c1.48098,-0.89408 -0.07924,-3.06229 -0.07924,-4.27693c0,-4.53758 -4.52684,-12.39504 1.00085,-16.47182c4.88478,-4.9504 7.98535,-9.74974 15.95345,-14.68676c5.87919,-3.64276 15.06982,-6.89765 19.93423,-10.51611c2.35822,-2.15658 4.4854,-0.6219 12.16514,-1.12101c16.99333,-1.10437 34.14754,-0.89583 51.70273,-0.89583c6.39893,0 14.50751,0.43453 20.70878,-0.00436c1.3089,-0.09266 3.78955,-0.43702 5.63354,-0.71909c-3.37287,0.88022 4.35383,1.73279 7.58778,2.279c2.53424,0.42803 5.05561,0.67525 7.52193,0.85186z" fill="#484848" fill-rule="nonzero" stroke="none" stroke-width="0" stroke-linecap="butt"/><path d="M90.64345,312.48998c0,0.589 1.77858,1.30288 0.8921,1.76927c2.26744,0.07883 4.54827,0.25102 6.57435,0.59326c7.81194,1.31952 23.70353,6.12764 25.20199,9.30635c0.12184,0.25854 -2.0872,0.30175 -1.71311,0.53104c1.24483,0.76295 11.38938,-0.56293 12.55632,-0.34628c0.26405,0.04901 0.39375,0.12539 0.44572,0.21838c-0.05432,-0.28876 -0.10404,-0.5679 -0.10404,-0.74354c0,-0.61736 0.07221,-1.28265 -0.74507,-1.83484c-6.94709,-4.867 -18.29746,-9.49371 -37.94899,-9.49371c0,0 -2.31904,-0.00001 -3.84764,-0.52522c-0.50973,-0.09782 -0.90615,-0.21288 -1.17189,-0.34779c-0.0683,0.33249 -0.13978,0.67093 -0.13978,0.87304zM134.49678,325.56128c0.3521,0.35683 0.24826,-0.23545 0.13126,-0.85506c-0.02449,0.2689 -0.37195,0.61122 -0.13126,0.85506zM142.98057,320.42478c6.41519,4.33421 -8.15102,10.66692 -21.38194,7.75082c-12.48347,-2.7514 -16.71065,-8.2811 -28.10334,-10.20538c-3.84882,-0.65011 -8.46069,-1.00501 -11.33588,-2.08657c-4.55627,-1.71403 -2.53653,-7.56683 6.17661,-7.56683c6.27407,0 9.3643,0.68743 15.20535,0.68743h2.5796c0,0 2.96127,0.00003 4.39682,0.75787c15.2825,1.68522 25.08922,5.96685 32.46283,10.66262z" fill="#000000" fill-rule="nonzero" stroke="none" stroke-width="0" stroke-linecap="butt"/><path d="M90.59179,311.55852c0.26562,0.13494 0.6622,0.24992 1.17199,0.34776c1.52857,0.52522 3.85813,0.52147 3.85813,0.52147c19.6515,0 31.41162,4.72904 38.35865,9.59605c0.81726,0.55216 0.72256,1.2296 0.72256,1.84693c0,0.17565 0.0402,0.45881 0.09452,0.74757c-0.05186,-0.09303 -0.18035,-0.16983 -0.44453,-0.2189c-1.16692,-0.21664 -11.39939,1.13217 -12.64422,0.36924c-0.37414,-0.22929 1.5899,-0.42555 1.46794,-0.68415c-1.49841,-3.17873 -17.46667,-7.96244 -25.27871,-9.28192c-2.02616,-0.34224 -4.32006,-0.50733 -6.58752,-0.58618c0.8865,-0.46642 -0.87094,-1.19102 -0.87094,-1.78003c0,-0.20212 0.08337,-0.54538 0.15184,-0.87786z" fill="#ffffff" fill-rule="nonzero" stroke="none" stroke-width="0" stroke-linecap="butt"/><path d="M367.45182,297.02398l-19.71212,-39.04926l93.63269,0.34557l33.51063,38.70368z" data-paper-data="{&quot;index&quot;:null}" fill="#cedce9" fill-rule="nonzero" stroke="#000000" stroke-width="0" stroke-linecap="round"/><path d="M483.78919,294.99472c-2.53413,0.42804 -5.02545,0.67295 -7.49183,0.84954c0.01671,0.06578 0.02535,0.13434 0.02535,0.2059c0,1.74282 -5.15921,1.74282 -5.15921,1.74282c-22.78659,0 -45.57312,0 -68.35969,0c-5.86365,0 -20.45392,-0.79069 -24.77862,0.25172c-2.4911,0.60045 -4.2745,0.54101 -7.46652,0.6197c-0.36034,0.00891 -1.01563,0.0279 -1.5946,0.03957c3.08659,0.74438 1.5946,7.62335 1.5946,9.54612c0,8.13331 0,16.2666 0,24.39991c0,1.45233 0,2.9048 0,4.35714c0,0.58094 -0.90739,2.23633 0,1.74282c3.45231,-1.87753 10.18967,-0.86806 18.05729,-0.87143c15.50879,-0.00665 32.11262,-0.56691 47.34465,0.3756c27.81472,1.87923 57.72001,-1.12321 85.31277,0.97052c23.23938,1.96261 51.05815,2.1395 75.00121,2.1395c6.01915,0 12.03819,0 18.05732,0c0.90563,0 2.32758,-0.04121 3.79981,-0.08638c-1.48096,-0.89405 0.06965,-3.05615 0.06965,-4.27077c0,-4.5376 4.50257,-12.36491 -1.02501,-16.44164c-4.88473,-4.95038 -7.97473,-9.71666 -15.94283,-14.65367c-5.8791,-3.64273 -15.03111,-6.87168 -19.89548,-10.49017c-2.35823,-2.15659 -4.46939,-0.61528 -12.14915,-1.11439c-16.99338,-1.10442 -34.0369,-0.87145 -51.59222,-0.87145c-6.39904,0 -14.43568,0.43891 -20.63695,0c-1.30903,-0.09265 -3.76915,-0.43702 -5.61315,-0.71911c3.37279,0.88023 -4.32338,1.73174 -7.55727,2.27799zM402.80354,294.30725c17.22136,0 34.4428,0 51.66413,0c0.49682,-0.0839 0.99348,-0.16779 1.49024,-0.25173c6.5436,-1.10525 12.45131,-0.81235 18.05732,-1.30714c7.63988,-0.67428 12.20966,-2.94515 20.09225,-3.48569c4.52823,-0.31049 17.06992,0.68743 23.48881,0.68743c17.4051,0 34.7911,-0.33622 51.59221,0.87143c9.43817,0.6784 17.4146,-0.64415 21.82839,3.39224c0.65069,1.53327 5.85851,2.49163 8.58236,3.67112c4.16271,1.80257 7.64196,4.47219 10.86308,6.46797c7.98518,4.94761 11.49622,10.03642 16.50277,15.11024c4.47415,5.34819 1.55455,11.98019 1.55455,17.54395c0,3.07598 1.43507,5.24393 -5.1592,7.84285c-2.29956,0.90628 -23.5435,0 -27.08589,0c-24.69616,0 -53.55186,-0.22077 -77.50383,-2.24361c-26.31336,-2.59821 -57.63549,0.90344 -84.83378,-0.93413c-21.91744,-1.66769 -55.7479,2.77493 -73.69666,-2.92223c-1.77701,-0.56407 0,-5.17124 0,-6.1c0,-8.13331 0,-16.26659 0,-24.39988c0,-2.71926 -3.54837,-9.21164 1.83453,-11.23656c9.39358,-3.53369 26.9738,-2.70626 40.72896,-2.70626z" data-paper-data="{&quot;index&quot;:null}" fill="#000000" fill-rule="nonzero" stroke="none" stroke-width="0" stroke-linecap="butt"/><path d="M476.22544,295.76052c2.46632,-0.17659 4.98769,-0.42385 7.52193,-0.85186c3.23394,-0.54621 10.96065,-1.39878 7.58778,-2.279c1.84399,0.28207 4.32464,0.62643 5.63354,0.71909c6.20128,0.43888 14.30986,0.00436 20.70879,0.00436c17.55519,0 34.70941,-0.20853 51.70274,0.89585c7.67974,0.49909 9.80691,-1.03557 12.16514,1.12099c4.86441,3.61846 14.05504,6.87335 19.93423,10.51611c7.9681,4.93701 11.06867,9.73638 15.95345,14.68676c5.52769,4.07677 1.00085,11.93422 1.00085,16.47181c0,1.21464 -1.56022,3.38286 -0.07924,4.27693c-1.47215,0.04517 -2.89604,0.08749 -3.80175,0.08749c-6.01912,0 -12.04871,0.00548 -18.06785,0.00548c-23.94324,0 -51.87493,-0.1465 -75.11432,-2.10916c-27.59278,-2.09371 -57.77139,0.8918 -85.58613,-0.98743c-15.23199,-0.94255 -31.88278,-0.40218 -47.39158,-0.39553c-7.86754,0.00335 -14.61106,-1.00982 -18.06335,0.86769c-0.9074,0.49348 -0.0039,-1.16454 -0.0039,-1.74548c0,-1.45233 -0.0088,-2.91179 -0.0088,-4.36417c0,-8.13331 -0.01076,-16.31501 -0.01076,-24.44832c0,-1.92276 1.50765,-8.81843 -1.57897,-9.5628c0.57907,-0.01171 1.23491,-0.03112 1.5952,-0.04002c3.19191,-0.07866 4.97939,-0.02213 7.47044,-0.62259c4.32468,-1.04238 18.92824,-0.25983 24.79186,-0.25983c22.78667,0 45.69464,-0.03465 68.48118,-0.03465c0,0 5.18455,-0.00297 5.18455,-1.74582c0,-0.07155 -0.00804,-0.14016 -0.02475,-0.20593z" data-paper-data="{&quot;index&quot;:null}" fill="#484848" fill-rule="nonzero" stroke="none" stroke-width="0" stroke-linecap="butt"/><path d="M548.5518,302.15007c0,-0.2021 -0.07147,-0.54055 -0.13978,-0.87304c-0.26574,0.13491 -0.66216,0.24999 -1.17189,0.3478c-1.5286,0.52522 -3.84764,0.52522 -3.84764,0.52522c-19.65152,0 -31.0019,4.62671 -37.94899,9.49371c-0.81729,0.55219 -0.74507,1.21748 -0.74507,1.83484c0,0.17565 -0.04972,0.45479 -0.10404,0.74356c0.05197,-0.09299 0.18168,-0.16937 0.44572,-0.21836c1.16694,-0.21665 11.31149,1.10922 12.55632,0.34627c0.37409,-0.22931 -1.83495,-0.2725 -1.71311,-0.53104c1.49847,-3.17873 17.39006,-7.98684 25.202,-9.30637c2.02609,-0.34224 4.30692,-0.51442 6.57436,-0.59326c-0.88648,-0.46639 0.89209,-1.18027 0.89209,-1.76929zM504.56716,314.36633c-0.117,0.61961 -0.22084,1.21189 0.13126,0.85506c0.24069,-0.24383 -0.10677,-0.58617 -0.13126,-0.85506zM496.21457,310.08486c7.37361,-4.69577 17.18033,-8.97741 32.46283,-10.66264c1.43555,-0.75785 4.39681,-0.75788 4.39681,-0.75788h2.57961c5.84105,0 8.93128,-0.68741 15.20535,-0.68741c8.71315,0 10.73289,5.85282 6.17662,7.56685c-2.87519,1.08157 -7.48707,1.43645 -11.33588,2.08656c-11.39268,1.92427 -15.61987,7.45398 -28.10334,10.20538c-13.23092,2.9161 -27.79713,-3.41662 -21.38194,-7.75082z" data-paper-data="{&quot;index&quot;:null}" fill="#000000" fill-rule="nonzero" stroke="none" stroke-width="0" stroke-linecap="butt"/><path d="M548.60374,301.21858c0.06847,0.33247 0.15184,0.67576 0.15184,0.87787c0,0.589 -1.75744,1.31361 -0.87094,1.78003c-2.26746,0.07885 -4.56135,0.24395 -6.58751,0.58618c-7.81203,1.31949 -23.7803,6.10319 -25.27871,9.28192c-0.12196,0.2586 1.84208,0.45484 1.46794,0.68413c-1.24482,0.76294 -11.4773,-0.58587 -12.64422,-0.36922c-0.26417,0.04907 -0.39267,0.12588 -0.44453,0.2189c0.05432,-0.28876 0.09452,-0.57193 0.09452,-0.74757c0,-0.61734 -0.0947,-1.29476 0.72256,-1.84693c6.94703,-4.86701 18.70715,-9.59605 38.35865,-9.59605c0,0 2.32956,0.00375 3.85813,-0.52147c0.50979,-0.09784 0.90637,-0.21282 1.172,-0.34776z" data-paper-data="{&quot;index&quot;:null}" fill="#ffffff" fill-rule="nonzero" stroke="none" stroke-width="0" stroke-linecap="butt"/><g stroke="none" stroke-linecap="butt"><path d="M496.61672,-0.97316c0.50528,-0.00142 1.01055,-0.00285 1.51583,-0.00427c13.94486,13.44717 27.96217,26.79766 42.05149,40.0515c3.69055,2.49529 6.90258,5.51794 9.62596,9.06797c0.50576,0.16697 1.01151,0.33403 1.51727,0.501c2.18025,2.67237 4.54704,5.1921 7.09529,7.55925c0.67297,0.33513 1.35099,0.66974 2.02397,1.00486c2.72338,3.55004 5.93541,6.57267 9.62597,9.06796c29.75059,28.48689 59.80887,56.78242 90.17988,84.88609c0.00142,0.50527 0.00285,1.01056 0.00427,1.51583c-1.74305,1.85627 -3.67351,3.54633 -5.79647,5.06918c-1.64948,-0.80027 -3.16818,-1.80655 -4.55607,-3.01885c0.4183,48.0003 0.97807,96.00069 1.66921,144.00121c-99.84805,0.38966 -199.64133,0.67102 -299.37834,0.8441c-5.48481,0.01597 -10.78932,0.36796 -15.91347,1.05543c-0.50528,0.00143 -1.01056,0.00284 -1.51584,0.00427c-0.10067,-4.16225 -0.11254,-8.37273 -0.03562,-12.632c-98.02333,0.61998 -196.04669,1.23338 -294.07006,1.8397c0.15026,-12.04892 0.45318,-24.09222 0.9087,-36.13037c-0.13198,-1.08902 -0.4717,-2.09862 -1.0191,-3.02883c0.62952,-2.71212 0.95856,-5.4921 0.98705,-8.33997c0.49433,-20.54928 0.94169,-41.09891 1.34204,-61.64842c-3.8879,0.17821 -7.76222,0.02038 -11.62286,-0.4725c-0.70071,-2.13285 -1.54854,-4.1516 -2.5435,-6.05623c-0.0019,-0.67354 -0.00379,-1.34758 -0.00569,-2.02112c39.07496,-0.11017 78.15014,-0.22035 117.22493,-0.33052c-0.08405,-29.81151 -0.16811,-59.62303 -0.25216,-89.43454c-0.53134,0.07679 -1.03686,-0.00566 -1.51655,-0.24836c-5.40385,-3.88303 -10.80458,-7.74182 -16.20172,-11.57585c-0.44658,-0.6839 -0.61748,-1.44135 -0.51168,-2.27233c85.56009,-0.40951 171.12068,-0.81951 256.68077,-1.229c0.14734,1.72261 0.48911,3.40577 1.02479,5.04996c12.29207,0.19171 24.58635,-0.09559 36.88329,-0.86192c24.679,-24.39905 49.53881,-48.47012 74.57843,-72.21322z" fill="#000000" fill-rule="evenodd" stroke-width="1"/><path d="M497.1277,1.04652c17.43013,15.90206 34.65548,32.10682 51.67602,48.61421c16.0288,14.76165 31.90149,29.70664 47.62311,44.83599c0.67297,0.33513 1.35099,0.66974 2.02396,1.00486c2.18025,2.67236 4.54705,5.19211 7.0953,7.55925c0.50576,0.16683 1.01151,0.33418 1.51726,0.501c8.95394,9.07087 18.07415,17.97152 27.36062,26.70291c3.69055,2.49529 6.90259,5.51794 9.62597,9.06797c3.1737,1.97732 5.87397,4.49613 8.10584,7.55641c2.31786,1.2971 4.34373,2.9755 6.07761,5.03571c-1.18875,1.31962 -2.44838,2.58639 -3.77891,3.80028c-0.66979,-1.0021 -1.59612,-1.58917 -2.78403,-1.76065c-0.761,-1.09281 -1.52202,-2.18511 -2.28303,-3.27791c-4.25012,-3.82767 -8.55568,-7.60516 -12.91669,-11.33247c-2.04946,-2.8799 -4.58252,-5.23091 -7.59915,-7.05255c-8.12754,-8.08285 -16.57242,-15.80656 -25.32954,-23.17164c-22.56955,-20.97637 -45.19471,-41.96626 -67.88559,-62.96909c-2.47736,-1.95559 -4.84117,-4.13847 -7.09245,-6.5487c-0.50576,-0.16697 -1.0115,-0.33403 -1.51726,-0.501c-3.85874,-4.26176 -7.91236,-8.29259 -12.1609,-12.09253c-6.19889,-5.58057 -12.44646,-11.03689 -18.74166,-16.36888c-0.33679,0.08519 -0.67307,0.1703 -1.00985,0.25549c-31.32318,31.50014 -62.64583,63.00009 -93.969,94.5004c-0.33513,0.67449 -0.33323,1.34853 0.0057,2.02112c3.3966,2.53756 6.26856,5.56118 8.61539,9.07082c7.78365,6.89994 15.04723,14.29046 21.78972,22.17105c4.40183,3.87373 8.62373,7.9041 12.66618,12.0911c0.84563,1.17644 1.69075,2.35339 2.53638,3.52984c4.89784,4.702 9.79517,9.40452 14.69301,14.10652c0.16968,0.5048 0.33988,1.00962 0.50955,1.51442c4.95266,4.96914 10.01922,9.83945 15.19972,14.61038c0.67638,1.00866 1.35328,2.01732 2.02967,3.02597c2.95371,2.26545 5.57185,4.86888 7.85392,7.80976c-2.44663,1.95477 -4.71446,4.06666 -6.80347,6.33523c-26.33254,-28.20043 -53.02296,-56.08456 -80.07072,-83.65137c-1.53049,-2.8652 -3.72605,-5.04889 -6.58717,-6.55011c-19.12685,19.23502 -38.27335,38.48978 -57.4395,57.7643c-1.60405,2.05193 -2.18707,4.41124 -1.74854,7.07892c-100.54859,1.03132 -201.09763,1.90449 -301.64711,2.61899c-0.67845,-1.6822 -1.35691,-3.36491 -2.03537,-5.0471c98.86492,-0.70117 197.73079,-1.23256 296.59716,-1.59418c-0.42913,-2.01942 -0.68746,-4.03983 -0.77501,-6.06122c29.58146,-28.80779 59.22763,-57.60817 88.93901,-86.40166c0.47832,-0.2454 0.98337,-0.33071 1.51513,-0.25691c0.02622,-1.63215 0.8659,-2.56069 2.51856,-2.78616c4.09929,-4.50454 8.29744,-8.89567 12.59496,-13.17289c0.84089,-0.50765 1.68125,-1.01531 2.52212,-1.52296c3.87373,-4.40183 7.9041,-8.62373 12.0911,-12.66618c1.17644,-0.84548 2.35338,-1.6909 3.52983,-2.53637c3.53766,-4.0637 7.23195,-7.94799 11.08339,-11.65277c1.34474,-1.01435 2.68896,-2.02872 4.03369,-3.04308c10.68292,-10.3214 21.2646,-20.70954 31.74503,-31.16447z" fill="#524950" fill-rule="evenodd" stroke-width="1"/><path d="M495.64463,12.67225c7.96129,6.82062 15.72893,13.95691 23.30343,21.40886c0.50576,0.16697 1.0115,0.33404 1.51726,0.50102c2.05149,2.88009 4.58454,5.23096 7.59915,7.05255c6.59587,6.05755 13.01534,12.27151 19.25335,18.64122c2.6227,1.89247 5.15481,3.90647 7.5963,6.04199c6.238,6.3697 12.65747,12.58379 19.25334,18.64122c3.01664,1.82162 5.54968,4.17265 7.59915,7.05255c0.50576,0.16683 1.01151,0.33418 1.51725,0.501c7.47897,7.43994 15.24485,14.49202 23.30272,21.15622c5.7405,5.54194 11.48604,11.08386 17.22652,16.62581c4.55241,3.51758 8.77232,7.37919 12.66476,11.58582c0.67297,0.33513 1.35099,0.66973 2.02397,1.00486c2.81412,3.47246 5.94048,6.57923 9.37404,9.32133c0.88411,48.33448 1.61157,96.67143 2.17734,145.01035c-75.11996,0.21179 -150.23639,0.42359 -225.35484,0.63538c-1.12372,-36.72694 -2.15294,-73.27322 -3.08819,-109.6379c-0.17349,-1.85239 -0.34748,-3.70426 -0.52095,-5.55666c-2.4389,-2.82725 -4.63682,-5.85276 -6.59429,-9.07652c-2.71127,-1.22626 -5.15831,-2.81908 -7.3401,-4.77951c-1.01198,-0.50243 -2.02397,-1.00485 -3.03595,-1.50728c-4.96228,-0.49635 -9.93188,-0.90324 -14.90932,-1.22118c-1.32894,-0.01445 -2.59143,0.24176 -3.78746,0.76861c-2.66886,2.16862 -5.52707,4.02956 -8.57408,5.5823c-2.46303,4.20686 -5.23089,8.17255 -8.30364,11.89758c-0.30548,37.89615 -0.45126,75.79285 -0.43738,113.69011c-10.61087,0.02992 -21.22176,0.05983 -31.83263,0.08975c-0.0486,-41.96672 -0.08247,-83.90519 -0.1021,-125.8154c19.48503,-19.25725 38.63058,-38.84903 57.43664,-58.77488c28.77655,29.79176 57.40964,59.77541 85.89925,89.95099c0.67449,0.33513 1.34853,0.33323 2.02112,-0.0057c2.09862,-2.44796 4.36597,-4.72812 6.80206,-6.84052c0.3929,23.582 0.88029,47.16072 1.46265,70.73563c35.70662,-0.10067 71.4112,-0.20135 107.11934,-0.30203c0.5562,-35.70493 0.45552,-71.41104 -0.30203,-107.11933c-8.68499,-3.28714 -17.28449,-6.71602 -25.79849,-10.28559c-5.88363,-0.757 -11.78216,-1.41391 -17.6905,-1.97126c-15.88948,0.60112 -31.71812,1.99334 -47.48491,4.17615c-5.68572,3.48835 -11.48719,6.78904 -17.40438,9.90211c-0.23636,10.78747 -0.20598,21.5666 0.09118,32.33791c-28.22647,-29.3153 -56.52112,-58.62589 -84.88299,-87.93272c30.48229,-30.99265 61.13332,-61.817 91.95359,-92.47358c0.2336,-0.301 0.31703,-0.63811 0.24979,-1.01127z" fill="#3b3d50" fill-rule="evenodd" stroke-width="1"/><path d="M491.2353,61.69721c7.76323,-0.88137 15.17699,0.27705 22.24229,3.47427c0.71169,9.58626 1.07579,19.18562 1.09177,28.7981c-11.11616,0.03135 -22.23232,0.06268 -33.34848,0.09402c-0.11097,-9.43334 -0.05319,-18.86512 0.17287,-28.29639c1.38573,-0.99325 2.81507,-1.92347 4.28705,-2.79115c1.9854,-0.12788 3.83709,-0.554 5.55452,-1.27887z" fill="#000000" fill-rule="evenodd" stroke-width="1"/><path d="M492.75542,63.20878c6.76979,-0.71285 13.17351,0.44793 19.21061,3.48283c0.65982,8.57635 1.02107,17.16515 1.08322,25.76643c-10.1056,0.02849 -20.21118,0.05699 -30.31678,0.08548c-0.1925,-8.59586 -0.04796,-17.18609 0.43261,-25.7707c1.17667,-0.76124 2.35386,-1.52249 3.53055,-2.28374c2.13989,-0.1753 4.15983,-0.6019 6.05979,-1.2803z" fill="#587cac" fill-rule="evenodd" stroke-width="1"/><path d="M256.80536,69.43217c41.93927,-0.28651 83.87797,-0.2365 125.81612,0.15054c0.47058,1.48775 0.81137,3.00263 1.02339,4.54467c12.12977,-0.38436 24.25577,-0.67119 36.37801,-0.86049c-1.99563,1.16171 -3.67546,2.6823 -5.03998,4.56176c-11.9608,0.45462 -23.91899,0.40397 -35.87558,-0.15149c-0.34036,-1.17786 -0.68019,-2.35624 -1.02054,-3.53411c-9.85344,-0.14048 -19.70686,-0.28147 -29.56029,-0.42194c-67.62194,0.60904 -135.24413,1.13672 -202.86703,1.58255c0.16653,1.71649 0.00302,3.40157 -0.49103,5.05422c-4.20395,-3.76009 -8.76074,-7.03158 -13.67034,-9.8145c41.85412,-0.20239 83.62337,-0.57281 125.30727,-1.11123z" fill="#524950" fill-rule="evenodd" stroke-width="1"/><path d="M319.98245,75.31745c18.86617,-0.22145 37.73077,-0.10639 56.59278,0.34572c0.49988,1.31031 0.8407,2.65643 1.02195,4.03939c11.79098,-0.11762 23.58091,-0.06649 35.37031,0.15291c-25.01685,24.82035 -50.38075,49.31376 -76.0907,73.48071c-59.27464,1.50563 -118.55805,2.59896 -177.85069,3.28051c-3.82802,0.00675 -7.61808,-0.15084 -11.37022,-0.47322c-0.32671,-26.27334 -0.48519,-52.54765 -0.47488,-78.82295c57.77269,-0.16492 115.37317,-0.8326 172.80145,-2.00306z" fill="#6f6a69" fill-rule="evenodd" stroke-width="1"/><path d="M325.04807,79.85071c1.18684,-0.02458 1.86204,0.56319 2.02611,1.76277c-0.44357,20.28133 -0.55509,40.57737 -0.33361,60.88765c-45.81125,0.46873 -91.622,0.93441 -137.43328,1.39806c-0.05698,-20.2112 -0.11398,-40.42239 -0.17096,-60.63359c39.74671,-0.69415 79.49339,-1.39539 119.24107,-2.1047c5.7498,0.05856 11.30669,-0.37799 16.67068,-1.3102z" fill="#000000" fill-rule="evenodd" stroke-width="1"/><path d="M309.8968,82.41986c5.0528,-0.01425 10.1056,-0.02849 15.1584,-0.04274c0.05509,19.53767 0.11016,39.07481 0.16526,58.61248c-7.07392,0.01994 -14.14783,0.03989 -21.22175,0.05983c0.13083,-19.36942 0.24497,-38.73879 0.34144,-58.10861c1.95638,0.15364 3.80877,-0.01984 5.55665,-0.52096z" fill="#524950" fill-rule="evenodd" stroke-width="1"/><path d="M275.53918,83.022c9.09504,-0.02564 18.19008,-0.05128 27.28512,-0.07693c-0.11971,19.36938 -0.23337,38.73926 -0.34144,58.10862c-29.47459,0.4075 -58.94813,0.82711 -88.42114,1.25987c-0.05413,-19.20064 -0.10827,-38.40128 -0.16241,-57.60191c20.63329,-0.35023 41.18009,-0.91345 61.63987,-1.68964z" fill="#587cac" fill-rule="evenodd" stroke-width="1"/><path d="M207.33068,84.73019c1.6841,-0.00475 3.3687,-0.0095 5.0528,-0.01425c0.05413,19.20064 0.10827,38.40128 0.16241,57.60192c-7.24217,0.02042 -14.48486,0.04084 -21.72703,0.06125c-0.05366,-19.03239 -0.10731,-38.06424 -0.16098,-57.09663c5.649,0.14982 11.2066,-0.03413 16.67282,-0.55229z" fill="#524950" fill-rule="evenodd" stroke-width="1"/><path d="M547.56781,148.95249c7.43415,0.50302 14.84368,1.24005 22.23873,2.21108c7.07305,3.25884 14.32685,6.10134 21.75126,8.52851c1.43635,0.47546 2.70167,1.22983 3.79601,2.26307c0.50159,34.53171 0.51809,69.05924 0.03941,103.5831c-34.69757,0.09783 -69.3916,0.19564 -104.08767,0.29348c-0.32778,-30.23274 -0.75003,-60.4642 -1.26628,-90.69488c0.15662,-4.12709 0.31375,-8.25369 0.47037,-12.38079c5.60474,-3.53965 11.40644,-6.75648 17.40509,-9.64947c13.2781,-1.52753 26.49393,-2.91187 39.65307,-4.15407z" fill="#587cac" fill-rule="evenodd" stroke-width="1"/><path d="M313.64032,155.67547c7.07571,-0.10433 14.14986,-0.0399 21.22247,0.1928c-3.94099,2.95085 -7.55306,6.24538 -10.83574,9.88359c-0.1434,1.82852 0.28275,3.51194 1.27745,5.04924c-59.2878,0.06814 -118.57333,0.40354 -177.8571,1.00675c-0.01282,-4.54753 -0.02565,-9.09504 -0.03847,-13.64256c55.49548,-0.66276 110.90613,-1.49253 166.2314,-2.48983z" fill="#3f4366" fill-rule="evenodd" stroke-width="1"/><path d="M387.95067,167.59276c5.16618,0.23404 10.30477,0.72483 15.41531,1.47238c2.93653,2.08865 6.05708,3.84834 9.36264,5.27909c2.31298,3.51178 4.68085,6.9577 7.10313,10.3383c-0.08344,0.33727 -0.16635,0.67401 -0.24979,1.01126c-1.94578,-1.76705 -3.71973,-3.69881 -5.32182,-5.79576c-2.82581,-0.98897 -5.60793,-2.07555 -8.34638,-3.26081c-3.26839,-0.61633 -6.55343,-0.85971 -9.8551,-0.73014c-3.39238,1.6482 -6.92555,3.00576 -10.59948,4.07216c-2.56147,3.1602 -4.65673,6.6187 -6.2868,10.37604c-0.16669,30.48525 -0.16512,60.97106 0.00522,91.45639c14.48497,-0.17929 28.96885,-0.38839 43.45266,-0.6278c0.12785,5.55979 0.31228,11.11739 0.55229,16.6728c-17.85305,0.05033 -35.70662,0.10068 -53.55967,0.15101c-0.00943,-37.39199 0.13779,-74.78342 0.44165,-112.17427c2.88061,-3.58755 5.39609,-7.46866 7.54644,-11.64281c3.69382,-1.89665 7.14025,-4.09627 10.33973,-6.59785z" fill="#6e685f" fill-rule="evenodd" stroke-width="1"/><path d="M397.07419,177.67273c5.24493,0.20855 10.30083,1.28923 15.16766,3.24158c2.6202,2.43767 5.06958,5.04158 7.34864,7.81118c1.23446,30.30396 2.24661,60.61814 3.03547,90.94254c-13.81092,0.17587 -27.62178,0.38357 -41.43153,0.6221c-0.16796,-29.64353 -0.16716,-59.2865 0.0019,-88.92997c1.45474,-3.39709 3.21419,-6.60201 5.27837,-9.61527c3.58416,-1.37234 7.11731,-2.7294 10.59948,-4.07215z" fill="#413142" fill-rule="evenodd" stroke-width="1"/><path d="M284.90349,178.49427c16.50598,-0.04653 33.01145,-0.09308 49.51742,-0.13961c0.00475,1.6841 0.00949,3.3687 0.01424,5.0528c-91.45423,0.76516 -182.90847,1.5283 -274.36272,2.28943c-0.06161,1.08906 0.19389,2.0989 0.76646,3.02954c1.01435,1.34473 2.02871,2.68896 3.04307,4.03369c0.01806,19.20174 -0.18044,38.40309 -0.59551,57.60405c-6.73753,-0.14926 -13.47511,-0.29904 -20.21261,-0.44829c0.53042,-23.07831 1.13903,-46.15483 1.82595,-69.22904c80.08579,-0.60527 160.08684,-1.33612 240.00369,-2.19253z" fill="#6e685f" fill-rule="evenodd" stroke-width="1"/><path d="M289.97481,185.04867c14.82137,-0.04179 29.64326,-0.08358 44.46463,-0.12537c0.00997,3.53696 0.01995,7.07392 0.02993,10.61088c-56.76038,0.24644 -113.51927,0.6591 -170.27719,1.23803c-0.58258,17.57086 -0.53295,35.17129 0.14887,52.80175c-2.86342,0.00807 -5.72633,0.01614 -8.58977,0.02421c0.40794,-17.68104 0.52633,-35.3663 0.35569,-53.05581c-28.80051,0.23785 -57.60099,0.4878 -86.40143,0.74889c-0.24391,30.31772 -0.49525,60.63548 -0.75411,90.95324c-1.51583,0.00427 -3.03169,0.00854 -4.54752,0.01282c0.52513,-32.17089 0.85549,-64.34173 0.9911,-96.51203c-0.9299,-1.26058 -1.85983,-2.52117 -2.78973,-3.78176c60.54652,-0.76493 121.09454,-1.35654 181.64457,-1.77536c15.41457,-0.04346 30.6564,-0.42347 45.72498,-1.13948z" fill="#564b4e" fill-rule="evenodd" stroke-width="1"/><path d="M250.59717,197.2865c27.95865,-0.07884 55.91781,-0.15766 83.87647,-0.23649c0.00427,1.51583 0.00854,3.03168 0.01282,4.54752c-54.90775,-0.02153 -109.81496,-0.03548 -164.72266,-0.04085c-0.21391,3.70281 -0.37171,7.40851 -0.47393,11.11758c55.07507,-0.31344 110.1501,-0.63749 165.22509,-0.97114c0.06981,24.75871 0.13962,49.51743 0.20943,74.27615c-56.25192,0.65226 -112.5053,1.1479 -168.76063,1.48639c-0.24877,-29.81105 -0.5011,-59.62208 -0.75745,-89.43312c28.54979,0.08725 57.01377,-0.16126 85.39088,-0.74604z" fill="#6f6a69" fill-rule="evenodd" stroke-width="1"/><path d="M113.16246,198.1793c13.81082,-0.03895 27.62213,-0.07788 41.43295,-0.11683c0.1257,14.65388 0.08263,29.30724 -0.12869,43.96007c0.01365,2.86845 -0.39993,5.64868 -1.2397,8.34068c1.02963,12.31439 1.40105,24.6928 1.11527,37.13522c-27.95807,0.28548 -55.91625,0.53258 -83.87504,0.74178c0.26403,-29.81249 0.51685,-59.62496 0.75839,-89.43739c14.06645,0.1276 28.04557,-0.08009 41.93681,-0.62352z" fill="#6f6a69" fill-rule="evenodd" stroke-width="1"/><path d="M138.43072,199.62389c4.54752,-0.01282 9.09504,-0.02564 13.64256,-0.03846c-0.10532,4.04509 -0.26268,8.08781 -0.47108,12.12815c-25.11187,0.08495 -50.20666,0.49273 -75.28385,1.22283c-0.14398,-3.20209 -0.32147,-6.40155 -0.53235,-9.59889c-0.50527,0.00142 -1.01057,0.00285 -1.51584,0.00427c-0.00143,-0.50527 -0.00284,-1.01056 -0.00427,-1.51583c21.46141,-0.90333 42.84953,-1.63717 64.16486,-2.20205z" fill="#000000" fill-rule="evenodd" stroke-width="1"/><path d="M139.44698,201.64217c3.70521,-0.01045 7.41094,-0.0209 11.11616,-0.03134c-0.26076,2.8566 -0.42093,5.72048 -0.48106,8.59118c-24.08475,0.22253 -48.16943,0.45869 -72.2536,0.709c-0.13391,-2.52959 -0.3095,-5.0555 -0.52665,-7.57777c20.80033,-0.42397 41.51539,-0.98765 62.14516,-1.69106z" fill="#151b20" fill-rule="evenodd" stroke-width="1"/><path d="M171.28388,203.06825c54.40246,0.02143 108.8044,0.03633 163.20683,0.04513c0.00664,2.35814 0.0133,4.71576 0.01995,7.0739c-54.56976,0.31808 -109.13953,0.6402 -163.70927,0.96687c0.23495,-2.68977 0.39562,-5.38493 0.4825,-8.08591z" fill="#151b20" fill-rule="evenodd" stroke-width="1"/><path d="M43.07812,251.4317c6.73509,0.23719 13.47262,0.38644 20.21262,0.4483c-0.05211,12.12849 -0.18633,24.25567 -0.40271,36.38158c-6.9055,0.01947 -13.81098,0.03894 -20.71647,0.05841c0.24612,-12.29829 0.54827,-24.59423 0.90657,-36.88828z" fill="#3b3d50" fill-rule="evenodd" stroke-width="1"/><path d="M155.75555,251.11401c2.86342,-0.00807 5.72633,-0.01614 8.58976,-0.02422c0.03419,12.1267 0.06839,24.25344 0.10258,36.38015c-2.86342,0.00807 -5.72634,0.01614 -8.58977,0.02421c-0.03419,-12.1267 -0.06839,-24.25344 -0.10257,-36.38015z" fill="#3b3d50" fill-rule="evenodd" stroke-width="1"/><path d="M415.4504,126.82069c3.20778,2.1498 7.24089,5.19244 7.67978,9.32238c0.24329,2.28933 -0.66181,4.6163 -1.25259,6.78634c-1.34554,6.85575 -10.34146,8.62212 -16.1665,8.62931c-6.33182,-0.96525 -10.72455,-5.66497 -10.81211,-12.20125c-0.01082,-6.10774 0.86002,-14.45587 8.53226,-14.50034c3.96432,-0.01118 8.61691,-0.40626 12.20144,1.49664zM409.13201,125.89295c-1.89794,-0.0787 -3.88152,0.04878 -5.69774,0.05389c-6.91676,0.00113 -7.46626,7.96453 -7.44561,13.40756c-0.0624,5.79406 4.113,10.42527 9.79658,11.11713c5.21459,-0.02379 13.91343,-1.5015 15.03021,-7.78573c0.55213,-2.03385 1.44672,-4.26342 1.2332,-6.40933c-0.36988,-3.7174 -4.15215,-6.50826 -7.06881,-8.4605c-0.12543,0.10251 -0.32743,0.18692 -0.59454,0.03529c-0.29604,-0.16806 -0.30212,-0.41608 -0.26501,-0.57854c-1.02476,-0.5011 -2.19442,-0.28724 -3.36317,-0.28395c-3.35656,0.00946 -8.81882,-0.39269 -11.29699,2.11547c0,0 -0.38418,0.38636 -0.77054,0.00217c-0.38636,-0.3842 -0.00217,-0.77054 -0.00217,-0.77054c2.37927,-2.37907 6.87183,-2.45903 10.4446,-2.44292z" fill="#00ffd7" fill-rule="nonzero" stroke-width="0.5"/><path d="M398.72692,128.37339c0,0 -0.38269,0.38473 0.00366,0.7689c0.38636,0.3842 0.68997,-0.07551 0.68997,-0.07551c2.47817,-2.50816 7.98831,-2.1224 11.34487,-2.13187c1.16876,-0.00329 2.35318,-0.21266 3.37794,0.28843c-0.03711,0.16247 -0.02899,0.41147 0.26703,0.57953c0.26709,0.15164 0.47115,0.06835 0.59658,-0.03416c2.91667,1.95226 6.72571,4.78252 7.0956,8.49993c0.21351,2.1459 -0.68413,4.4028 -1.23627,6.43666c-1.11676,6.28424 -9.88037,7.79513 -15.09497,7.81891c-5.68358,-0.69185 -9.89934,-5.3708 -9.83693,-11.16486c-0.02065,-5.44303 0.56041,-13.46091 7.47717,-13.46203c1.81621,-0.00512 3.82206,-0.0286 5.72,0.0501c-3.57277,-0.0161 -8.0254,0.04689 -10.40466,2.42595z" fill="#ffffff" fill-rule="nonzero" stroke-width="0.5"/><path d="M378.42862,122.62348c3.56976,0.29449 6.5152,2.35623 9.09723,5.43683c2.05431,2.45108 4.74899,4.9278 4.94336,8.33564c0.11228,1.96869 -0.72582,3.87973 -1.24505,5.7164c-0.35606,1.25941 -0.67071,1.97873 -1.79536,2.73309c-3.73666,5.04194 -9.54888,7.25974 -15.52028,7.27657c-4.09824,0.01156 -6.07061,-2.72504 -9.26999,-4.84509c-1.41365,-0.93674 -3.2313,-1.57552 -4.31276,-2.83942c-0.80751,-0.94375 -1.4456,-2.69421 -1.46225,-3.91585c-0.00458,-1.62319 -0.33001,-3.62703 0.00457,-5.21088c0.8781,-4.1568 6.30712,-7.47992 9.41052,-9.92769c1.61064,-2.82577 4.33681,-2.40698 7.00665,-2.5764c0.53426,-0.10189 1.0557,-0.16742 1.56496,-0.19848c0.18128,-0.03838 0.36119,-0.08328 0.53928,-0.13601l0.62187,-0.02272c0,0 0.2557,-0.00073 0.41726,0.17398zM372.98672,123.90931c-1.55346,0.1311 -2.96125,0.55822 -3.878,2.17975c-2.87409,2.35349 -8.3993,5.57049 -9.18863,9.50595c-0.2987,1.48926 0.02885,3.39512 0.03315,4.92356c-0.03683,3.22559 3.02912,4.35412 5.26775,5.83736c2.9944,1.98398 4.88349,4.68707 8.68447,4.67636c5.76152,-0.01625 11.1441,-2.13847 14.77226,-6.97638c1.26674,-0.84965 1.34454,-1.75141 1.86344,-3.10883c2.0262,-5.30045 -0.62721,-8.341 -3.85046,-12.18679c-2.73322,-3.26128 -5.81123,-5.32497 -9.77904,-5.0717c-0.31707,0.05075 -0.63979,0.08329 -0.96532,0.10518c-0.71845,0.10995 -1.46539,0.29333 -2.24369,0.55607c0,0 -0.51641,0.17375 -0.69016,-0.34266c-0.01148,-0.0341 -0.01994,-0.06671 -0.02574,-0.09787z" fill="#00ffd7" fill-rule="nonzero" stroke-width="0.5"/><path d="M373.0024,123.95363c0.17376,0.51641 0.69269,0.34224 0.69269,0.34224c0.7783,-0.26275 1.53449,-0.44662 2.25293,-0.55657c0.3255,-0.0219 0.65207,-0.05418 0.96913,-0.10492c3.96782,-0.25327 7.08349,1.8314 9.81672,5.09268c3.22325,3.84579 5.88646,6.93224 3.86027,12.23269c-0.5189,1.35743 -0.60117,2.27125 -1.86789,3.12089c-3.62818,4.83789 -9.06569,6.9895 -14.82721,7.00574c-3.80097,0.01072 -5.7247,-2.71062 -8.71908,-4.69462c-2.23863,-1.48325 -5.31694,-2.63676 -5.28012,-5.86234c-0.00431,-1.52845 -0.3326,-3.45125 -0.0339,-4.94051c0.78933,-3.93546 6.34171,-7.19373 9.21581,-9.5472c0.91676,-1.62153 2.34143,-2.05484 3.89488,-2.18594c0.00581,0.03117 0.01429,0.06377 0.02576,0.09787z" fill="#ffffff" fill-rule="nonzero" stroke-width="0.5"/><path d="M386.95138,138.17565c-0.00297,-1.05321 0.84841,-1.9094 1.90162,-1.91237c1.05321,-0.00297 1.9094,0.84841 1.91237,1.90162c0.00297,1.05321 -0.84841,1.90939 -1.90162,1.91236c-1.05321,0.00297 -1.9094,-0.84841 -1.91237,-1.90161z" fill="#000000" fill-rule="nonzero" stroke-width="0.5"/><path d="M417.30956,137.57058c-0.00297,-1.05321 0.84841,-1.9094 1.90162,-1.91237c1.05321,-0.00297 1.90939,0.84841 1.91236,1.90162c0.00297,1.05321 -0.84841,1.90939 -1.90161,1.91236c-1.05321,0.00297 -1.9094,-0.84841 -1.91237,-1.90161z" fill="#000000" fill-rule="nonzero" stroke-width="0.5"/><path d="M393.88749,123.76126c-0.61355,0.53993 -1.15347,-0.07363 -1.15347,-0.07363l-0.71716,-0.81878c-2.14622,-1.77084 -4.51628,-3.14077 -6.7597,-4.78805c-2.06663,-1.51746 -4.10327,-3.95324 -6.37292,-5.05131c-2.70863,-2.21989 -6.17121,-3.35021 -8.82639,-5.72647c-2.30721,-2.06484 -5.62591,-5.89475 -8.74172,-6.58454c0,0 -0.79344,-0.19599 -0.59746,-0.98944c0.19599,-0.79344 0.98943,-0.59746 0.98943,-0.59746c4.20701,1.11347 6.98845,5.4923 10.47282,7.7841c2.44087,1.60545 5.36401,2.87193 7.59413,4.74331c2.30864,1.17228 4.33514,3.54949 6.45044,5.10495c2.30419,1.69434 4.72876,3.10111 6.92987,4.93204l0.80575,0.9118c0,0 0.53993,0.61355 -0.07363,1.15348z" fill="#00ffd7" fill-rule="nonzero" stroke-width="0.5"/><path d="M398.58059,123.28158c-0.36756,-0.72997 0.36241,-1.09753 0.36241,-1.09753l0.17134,-0.00955c1.56001,-1.86046 3.75113,-3.07874 5.18084,-5.0993c2.44394,-2.73628 4.92219,-5.52669 7.74966,-7.88372c4.27898,-3.56699 8.69002,-6.07577 12.38348,-10.40947c0,0 0.53013,-0.62202 1.15216,-0.0919c0.62203,0.53013 0.0919,1.15216 0.0919,1.15216c-5.94729,6.97824 -13.94771,11.39268 -20.09976,18.25271c-1.44323,2.02589 -3.66416,3.24131 -5.19961,5.12239l-0.69488,0.42661c0,0 -0.72996,0.36756 -1.09753,-0.36241z" fill="#00ffd7" fill-rule="nonzero" stroke-width="0.5"/><path d="M368.10502,180.49131c-0.5,0.00141 -0.50141,-0.49859 -0.50141,-0.49859l0.02264,-0.00477c-0.74112,-2.35657 -1.18644,-4.49786 -1.19342,-6.97292c-0.01574,-6.73211 -0.00994,-13.07102 6.93477,-16.31807c5.72368,-2.71304 10.5771,-4.87685 17.06471,-4.89514c6.20045,0.00108 11.82631,3.50169 17.94445,4.09614c6.7936,0.73272 12.47253,2.75659 14.17185,10.15869c1.71517,2.57938 1.11347,8.16521 1.3754,11.2036c0.11669,1.35361 0.5278,2.84571 -0.23359,4.01605c0,0 -0.28947,0.40769 -0.69716,0.11822c-0.40769,-0.28947 -0.11822,-0.69716 -0.11822,-0.69716c0.62234,-0.7557 0.13358,-2.41169 0.0526,-3.35182c-0.25061,-2.90938 0.36552,-8.43506 -1.29608,-10.89009c-1.68114,-7.07204 -6.81709,-8.85729 -13.35679,-9.56271c-6.07015,-0.58969 -11.69845,-4.12882 -17.83965,-4.09092c-6.3395,0.01787 -11.04726,2.14779 -16.64159,4.79989c-6.53562,3.0558 -6.38145,9.09254 -6.36073,15.41051c0.0067,2.37639 0.43412,4.41184 1.14728,6.6755l0.02351,0.30219c0,0 0.0014,0.5 -0.49859,0.5014z" fill="#00ffd7" fill-rule="nonzero" stroke-width="0.5"/></g><path d="M-546.54655,598.16817v-836.33634h1733.09309v836.33634z" fill="none" fill-rule="nonzero" stroke="#f00000" stroke-width="0" stroke-linecap="butt"/><g fill-rule="nonzero" stroke="#000000" stroke-linecap="round"><path d="M169.66589,-54.65999l32.02394,-7.56294l18.07338,-0.59594l43.58254,222.01549l-15.30408,3.32337l-39.43645,2.31633l-18.58985,-5.28636l-41.03858,-209.05621z" fill="#7d3500" stroke-width="1"/><path d="M203.6391,-62.04712l-42.22476,9.24629l-6.45444,-32.8798l40.562,-7.96248l6.10759,31.11288z" fill="#a7a7a7" stroke-width="1.5"/><path d="M156.55669,-85.67496l-22.34898,-1.67627l-17.57573,3.13107l-13.22473,5.78737l-19.54792,22.34683l-6.43954,-19.79843l26.76458,-31.10348l34.55391,-10.93176l35.03081,-6.87669l14.06924,-1.48533l30.06525,-9.41235l9.87863,-14.7044l2.94302,-15.89593l-6.5978,-27.10734l61.02396,-11.02187l30.82661,139.15245l-60.46972,10.59393l-7.07469,-31.1624l-12.49874,-8.39685l-16.94411,-1.77987l-11.17733,-0.03975l-12.90608,2.53352z" fill="#a7a7a7" stroke-width="1.5"/></g></g></g></svg>