<svg version="1.1" xmlns="http://www.w3.org/2000/svg" xmlns:xlink="http://www.w3.org/1999/xlink" width="1733.09309" height="836.33634" viewBox="0,0,1733.09309,836.33634"><g transform="translate(546.54655,238.16817)"><g data-paper-data="{&quot;isPaintingLayer&quot;:true}" stroke-linejoin="miter" stroke-miterlimit="10" stroke-dasharray="" stroke-dashoffset="0" style="mix-blend-mode: normal"><path d="M-546.54655,598.16817v-836.33634h1733.09309v836.33634z" fill="none" fill-rule="nonzero" stroke="#f00000" stroke-width="0" stroke-linecap="butt"/><path d="M164.3122,322.94222l33.51062,-26.20201l93.63269,-0.23395l-19.71212,26.43595z" fill="#cedce9" fill-rule="nonzero" stroke="#000000" stroke-width="0" stroke-linecap="round"/><path d="M155.40589,321.56833c-3.23389,-0.36981 -10.93005,-0.94626 -7.55727,-1.54218c-1.844,0.19096 -4.30412,0.42411 -5.61315,0.48683c-6.20127,0.29713 -14.23792,0 -20.63695,0c-17.55532,0 -34.59883,-0.15772 -51.59221,0.58996c-7.67977,0.33789 -9.79093,-0.70555 -12.14916,0.75443c-4.86436,2.44969 -14.01637,4.63565 -19.89547,7.10174c-7.9681,3.34232 -11.05811,6.56903 -15.94283,9.92039c-5.52757,2.75992 -1.025,8.05892 -1.025,11.13083c0,0.82229 1.55061,2.286 0.06965,2.89127c1.47223,0.03058 2.89418,0.05848 3.79981,0.05848c6.01912,0 12.03817,0 18.05732,0c23.94306,0 51.76182,-0.11974 75.00121,-1.44842c27.59276,-1.41743 57.49806,0.61518 85.31277,-0.65703c15.23203,-0.63807 31.83586,-0.25878 47.34465,-0.25428c7.86761,0.00228 14.60498,-0.68112 18.05729,0.58995c0.90739,0.33409 0,-0.78659 0,-1.17988c0,-0.98322 0,-1.96652 0,-2.94974c0,-5.50617 0,-11.01233 0,-16.5185c0,-1.3017 -1.49199,-5.95868 1.5946,-6.46262c-0.57897,-0.00791 -1.23426,-0.02077 -1.5946,-0.0268c-3.19203,-0.05326 -4.97543,-0.01302 -7.46653,-0.41952c-4.32469,-0.70571 -18.91496,-0.17042 -24.77861,-0.17042c-22.78658,0 -45.57311,0 -68.3597,0c0,0 -5.15921,0 -5.15921,-1.17988c0,-0.04844 0.00864,-0.09486 0.02534,-0.13939c-2.46639,-0.11956 -4.9577,-0.28536 -7.49184,-0.57513zM236.39145,321.103c13.75515,0 31.33537,-0.56015 40.72895,1.83212c5.3829,1.37085 1.83453,5.76613 1.83453,7.60704c0,5.50617 0,11.01232 0,16.51849c0,0.62876 1.77701,3.74776 0,4.12963c-17.94876,3.85692 -51.77923,0.84931 -73.69667,1.97832c-27.19829,1.24402 -58.52042,-1.12657 -84.83379,0.6324c-23.95197,1.36944 -52.80767,1.5189 -77.50383,1.5189c-3.54239,0 -24.78633,0.61354 -27.08588,0c-6.59428,-1.75943 -5.15921,-3.22712 -5.15921,-5.30953c0,-3.76661 -2.9196,-8.25642 1.55455,-11.87708c5.00655,-3.43492 8.51759,-6.87999 16.50277,-10.22948c3.22112,-1.35111 6.70037,-3.15843 10.86308,-4.37875c2.72386,-0.7985 7.93168,-1.44729 8.58236,-2.48531c4.41379,-2.7326 12.39022,-1.83725 21.82839,-2.29652c16.80111,-0.81757 34.18712,-0.58996 51.59221,-0.58996c6.41889,0 18.96058,-0.67558 23.48881,-0.46538c7.88258,0.36595 12.45236,1.90331 20.09224,2.35979c5.60602,0.33496 11.51373,0.13667 18.05732,0.88492c0.49676,0.05683 0.99342,0.11361 1.49024,0.17042c17.22133,0 34.44276,0 51.66413,0z" fill="#000000" fill-rule="nonzero" stroke="none" stroke-width="0" stroke-linecap="butt"/><path d="M162.96952,322.08685c-0.01671,0.04452 -0.02475,0.09098 -0.02475,0.13942c0,1.17989 5.18455,1.1819 5.18455,1.1819c22.78654,0 45.69452,0.02346 68.48118,0.02346c5.86362,0 20.46717,-0.52978 24.79186,0.1759c2.49105,0.40651 4.27852,0.36825 7.47043,0.42149c0.3603,0.00602 1.01613,0.01917 1.5952,0.02709c-3.08662,0.50394 -1.57896,5.17222 -1.57896,6.47392c0,5.50617 -0.01076,11.0451 -0.01076,16.55127c0,0.98325 -0.0088,1.97128 -0.0088,2.9545c0,0.39329 0.9035,1.51575 -0.0039,1.18167c-3.45229,-1.27106 -10.19581,-0.58514 -18.06335,-0.58741c-15.5088,-0.00449 -32.1596,-0.37033 -47.39158,0.26777c-27.81475,1.27222 -57.99335,-0.74894 -85.58613,0.66848c-23.23939,1.32869 -51.17108,1.42788 -75.11432,1.42788c-6.01914,0 -12.04873,-0.00371 -18.06785,-0.00371c-0.90571,0 -2.3296,-0.02864 -3.80175,-0.05922c1.48098,-0.60528 -0.07924,-2.07314 -0.07924,-2.89544c0,-3.0719 -4.52684,-8.39132 1.00085,-11.15126c4.88478,-3.35137 7.98535,-6.60048 15.95345,-9.94279c5.87919,-2.46611 15.06982,-4.66964 19.93423,-7.1193c2.35822,-1.45998 4.4854,-0.42102 12.16514,-0.75891c16.99333,-0.74765 34.14754,-0.60647 51.70273,-0.60647c6.39893,0 14.50751,0.29417 20.70878,-0.00295c1.3089,-0.06273 3.78955,-0.29586 5.63354,-0.48682c-3.37287,0.5959 4.35383,1.17308 7.58778,1.54286c2.53424,0.28977 5.05561,0.45714 7.52193,0.5767z" fill="#484848" fill-rule="nonzero" stroke="none" stroke-width="0" stroke-linecap="butt"/><path d="M90.64343,326.41255c0,0.39875 1.77858,0.88204 0.8921,1.19778c2.26744,0.05337 4.54827,0.16994 6.57435,0.40163c7.81194,0.8933 23.70353,4.14835 25.20199,6.30031c0.12184,0.17503 -2.0872,0.20428 -1.71311,0.35951c1.24483,0.51651 11.38938,-0.3811 12.55632,-0.23443c0.26405,0.03318 0.39375,0.08489 0.44572,0.14784c-0.05432,-0.19549 -0.10404,-0.38446 -0.10404,-0.50337c0,-0.41795 0.07221,-0.86834 -0.74507,-1.24217c-6.94709,-3.29491 -18.29746,-6.42715 -37.94899,-6.42715c0,0 -2.31904,-0.00001 -3.84764,-0.35557c-0.50973,-0.06622 -0.90615,-0.14412 -1.17189,-0.23545c-0.0683,0.22509 -0.13978,0.45421 -0.13978,0.59104zM134.49678,335.26169c0.3521,0.24157 0.24826,-0.1594 0.13126,-0.57887c-0.02449,0.18204 -0.37195,0.41379 -0.13126,0.57887zM142.98057,331.78433c6.41519,2.93422 -8.15102,7.2214 -21.38194,5.24723c-12.48347,-1.86267 -16.71065,-5.60622 -28.10334,-6.90894c-3.84882,-0.44012 -8.46069,-0.68038 -11.33588,-1.41259c-4.55627,-1.16038 -2.53653,-5.12267 6.17661,-5.12267c6.27407,0 9.3643,0.46538 15.20535,0.46538h2.5796c0,0 2.96127,0.00002 4.39682,0.51307c15.2825,1.14088 25.08922,4.0395 32.46283,7.21849z" fill="#000000" fill-rule="nonzero" stroke="none" stroke-width="0" stroke-linecap="butt"/><path d="M90.59177,325.78196c0.26562,0.09135 0.6622,0.16919 1.17199,0.23543c1.52857,0.35557 3.85813,0.35303 3.85813,0.35303c19.6515,0 31.41162,3.20151 38.35865,6.49643c0.81726,0.37381 0.72256,0.83243 0.72256,1.25035c0,0.11891 0.0402,0.31061 0.09452,0.5061c-0.05186,-0.06298 -0.18035,-0.11497 -0.44453,-0.14819c-1.16692,-0.14666 -11.39939,0.76647 -12.64422,0.24997c-0.37414,-0.15523 1.5899,-0.28809 1.46794,-0.46316c-1.49841,-2.15197 -17.46667,-5.39049 -25.27871,-6.28377c-2.02616,-0.23169 -4.32006,-0.34346 -6.58752,-0.39684c0.8865,-0.31576 -0.87094,-0.80631 -0.87094,-1.20506c0,-0.13683 0.08337,-0.36922 0.15184,-0.5943z" fill="#ffffff" fill-rule="nonzero" stroke="none" stroke-width="0" stroke-linecap="butt"/><path d="M367.4518,315.94222l-19.71212,-26.43596l93.63269,0.23395l33.51063,26.20201z" data-paper-data="{&quot;index&quot;:null}" fill="#cedce9" fill-rule="nonzero" stroke="#000000" stroke-width="0" stroke-linecap="round"/><path d="M483.78917,314.56843c-2.53413,0.28978 -5.02545,0.45558 -7.49183,0.57513c0.01671,0.04453 0.02535,0.09095 0.02535,0.13939c0,1.17987 -5.15921,1.17987 -5.15921,1.17987c-22.78659,0 -45.57312,0 -68.35969,0c-5.86365,0 -20.45392,-0.53529 -24.77862,0.17041c-2.4911,0.4065 -4.2745,0.36626 -7.46652,0.41953c-0.36034,0.00603 -1.01563,0.01889 -1.5946,0.02679c3.08659,0.50394 1.5946,5.16093 1.5946,6.46263c0,5.50617 0,11.01233 0,16.5185c0,0.98321 0,1.96652 0,2.94974c0,0.39329 -0.90739,1.51397 0,1.17987c3.45231,-1.27107 10.18967,-0.58767 18.05729,-0.58995c15.50879,-0.0045 32.11262,-0.38379 47.34465,0.25428c27.81472,1.27222 57.72001,-0.7604 85.31277,0.65703c23.23938,1.32867 51.05815,1.44842 75.00121,1.44842c6.01915,0 12.03819,0 18.05732,0c0.90563,0 2.32758,-0.0279 3.79981,-0.05848c-1.48096,-0.60526 0.06965,-2.06898 0.06965,-2.89127c0,-3.07191 4.50257,-8.37092 -1.02501,-11.13083c-4.88473,-3.35136 -7.97473,-6.57808 -15.94283,-9.92039c-5.8791,-2.46609 -15.03111,-4.65206 -19.89548,-7.10174c-2.35823,-1.45999 -4.46939,-0.41654 -12.14915,-0.75443c-16.99338,-0.74768 -34.0369,-0.58996 -51.59222,-0.58996c-6.39904,0 -14.43568,0.29714 -20.63695,0c-1.30903,-0.06272 -3.76915,-0.29586 -5.61315,-0.48683c3.37279,0.59591 -4.32338,1.17237 -7.55727,1.54218zM402.80352,314.10302c17.22136,0 34.4428,0 51.66413,0c0.49682,-0.0568 0.99348,-0.11359 1.49024,-0.17042c6.5436,-0.74824 12.45131,-0.54995 18.05732,-0.88492c7.63988,-0.45648 12.20966,-1.99384 20.09225,-2.35978c4.52823,-0.2102 17.06992,0.46538 23.48881,0.46538c17.4051,0 34.7911,-0.22762 51.59221,0.58995c9.43817,0.45927 17.4146,-0.43608 21.82839,2.29651c0.65069,1.03801 5.85851,1.68681 8.58236,2.48531c4.16271,1.22032 7.64196,3.02763 10.86308,4.37875c7.98518,3.34948 11.49622,6.79456 16.50277,10.22948c4.47415,3.62067 1.55455,8.11047 1.55455,11.87708c0,2.08241 1.43507,3.55009 -5.1592,5.30953c-2.29956,0.61354 -23.5435,0 -27.08589,0c-24.69616,0 -53.55186,-0.14946 -77.50383,-1.5189c-26.31336,-1.75896 -57.63549,0.61162 -84.83378,-0.6324c-21.91744,-1.12901 -55.7479,1.8786 -73.69666,-1.97832c-1.77701,-0.38187 0,-3.50088 0,-4.12964c0,-5.50617 0,-11.01232 0,-16.51848c0,-1.84091 -3.54837,-6.23619 1.83453,-7.60704c9.39358,-2.39227 26.9738,-1.83211 40.72896,-1.83211z" data-paper-data="{&quot;index&quot;:null}" fill="#000000" fill-rule="nonzero" stroke="none" stroke-width="0" stroke-linecap="butt"/><path d="M476.22542,315.08687c2.46632,-0.11955 4.98769,-0.28694 7.52193,-0.5767c3.23394,-0.36978 10.96065,-0.94696 7.58778,-1.54286c1.84399,0.19096 4.32464,0.42409 5.63354,0.48682c6.20128,0.29712 14.30986,0.00295 20.70879,0.00295c17.55519,0 34.70941,-0.14117 51.70274,0.60648c7.67974,0.33788 9.80691,-0.70107 12.16514,0.7589c4.86441,2.44966 14.05504,4.65319 19.93423,7.1193c7.9681,3.34231 11.06867,6.59143 15.95345,9.94279c5.52769,2.75993 1.00085,8.07935 1.00085,11.15125c0,0.8223 -1.56022,2.29016 -0.07924,2.89544c-1.47215,0.03058 -2.89604,0.05923 -3.80175,0.05923c-6.01912,0 -12.04871,0.00371 -18.06785,0.00371c-23.94324,0 -51.87493,-0.09918 -75.11432,-1.42788c-27.59278,-1.41742 -57.77139,0.60374 -85.58613,-0.66848c-15.23199,-0.6381 -31.88278,-0.27227 -47.39158,-0.26777c-7.86754,0.00227 -14.61106,-0.68364 -18.06335,0.58742c-0.9074,0.33408 -0.0039,-0.78838 -0.0039,-1.18167c0,-0.98321 -0.0088,-1.97125 -0.0088,-2.9545c0,-5.50617 -0.01076,-11.0451 -0.01076,-16.55127c0,-1.30169 1.50765,-5.96999 -1.57897,-6.47392c0.57907,-0.00793 1.23491,-0.02107 1.5952,-0.02709c3.19191,-0.05325 4.97939,-0.01498 7.47044,-0.42149c4.32468,-0.70568 18.92824,-0.1759 24.79186,-0.1759c22.78667,0 45.69464,-0.02346 68.48118,-0.02346c0,0 5.18455,-0.00201 5.18455,-1.1819c0,-0.04844 -0.00804,-0.09489 -0.02475,-0.13941z" data-paper-data="{&quot;index&quot;:null}" fill="#484848" fill-rule="nonzero" stroke="none" stroke-width="0" stroke-linecap="butt"/><path d="M548.55179,319.41253c0,-0.13682 -0.07147,-0.36595 -0.13978,-0.59104c-0.26574,0.09133 -0.66216,0.16924 -1.17189,0.23546c-1.5286,0.35557 -3.84764,0.35557 -3.84764,0.35557c-19.65152,0 -31.0019,3.13224 -37.94899,6.42715c-0.81729,0.37383 -0.74507,0.82422 -0.74507,1.24217c0,0.11891 -0.04972,0.30789 -0.10404,0.50338c0.05197,-0.06295 0.18168,-0.11466 0.44572,-0.14783c1.16694,-0.14667 11.31149,0.75093 12.55632,0.23442c0.37409,-0.15524 -1.83495,-0.18448 -1.71311,-0.35951c1.49847,-2.15197 17.39006,-5.40701 25.202,-6.30032c2.02609,-0.23169 4.30692,-0.34826 6.57436,-0.40163c-0.88648,-0.31574 0.89209,-0.79903 0.89209,-1.19779zM504.56714,327.68282c-0.117,0.41947 -0.22084,0.82044 0.13126,0.57887c0.24069,-0.16507 -0.10677,-0.39683 -0.13126,-0.57887zM496.21455,324.78431c7.37361,-3.17899 17.18033,-6.07762 32.46283,-7.2185c1.43555,-0.51306 4.39681,-0.51308 4.39681,-0.51308h2.57961c5.84105,0 8.93128,-0.46537 15.20535,-0.46537c8.71315,0 10.73289,3.9623 6.17662,5.12268c-2.87519,0.73221 -7.48707,0.97246 -11.33588,1.41258c-11.39268,1.30271 -15.61987,5.04627 -28.10334,6.90894c-13.23092,1.97417 -27.79713,-2.31302 -21.38194,-5.24723z" data-paper-data="{&quot;index&quot;:null}" fill="#000000" fill-rule="nonzero" stroke="none" stroke-width="0" stroke-linecap="butt"/><path d="M548.60372,318.78192c0.06847,0.22508 0.15184,0.45748 0.15184,0.59431c0,0.39875 -1.75744,0.8893 -0.87094,1.20506c-2.26746,0.05338 -4.56135,0.16515 -6.58751,0.39684c-7.81203,0.89328 -23.7803,4.1318 -25.27871,6.28377c-0.12196,0.17507 1.84208,0.30792 1.46794,0.46315c-1.24482,0.5165 -11.4773,-0.39663 -12.64422,-0.24996c-0.26417,0.03322 -0.39267,0.08522 -0.44453,0.14819c0.05432,-0.19549 0.09452,-0.38719 0.09452,-0.5061c0,-0.41793 -0.0947,-0.87654 0.72256,-1.25035c6.94703,-3.29492 18.70715,-6.49643 38.35865,-6.49643c0,0 2.32956,0.00254 3.85813,-0.35303c0.50979,-0.06624 0.90637,-0.14408 1.172,-0.23543z" data-paper-data="{&quot;index&quot;:null}" fill="#ffffff" fill-rule="nonzero" stroke="none" stroke-width="0" stroke-linecap="butt"/><g fill-rule="nonzero" stroke="#000000" stroke-linecap="round"><path d="M-191.30851,102.78118l5.41331,-32.45654l6.44161,-16.89698l221.59132,45.69029l-2.85526,15.39828l-13.11881,37.26253l-12.06578,15.09785l-208.6568,-43.0233z" fill="#7d3500" stroke-width="1"/><path d="M-184.97905,68.59511l-7.8069,42.51443l-32.81698,-6.76659l8.34757,-40.4845l31.05345,6.40296z" fill="#a7a7a7" stroke-width="1.5"/><path d="M-224.98002,102.87267l-10.19082,19.96081l-3.91133,17.41871l0.22125,14.43393l13.04571,26.67043l-20.74817,-1.72018l-18.32913,-36.71255l3.28539,-36.0927l7.20926,-34.96389l4.07257,-13.54858l2.95021,-31.36571l-9.73847,-14.7976l-13.52009,-8.86279l-27.54933,-4.40148l13.44145,-60.53704l140.24449,25.40011l-13.62168,59.8604l-31.4732,-5.53029l-12.57796,8.2777l-8.19565,14.93661l-4.36028,10.29185l-2.65604,12.88143z" fill="#a7a7a7" stroke-width="1.5"/></g><g stroke="none" stroke-linecap="butt"><path d="M455.83606,-0.48571c0.50398,-0.03626 1.00795,-0.07253 1.51193,-0.10879c14.83895,12.45355 29.74352,24.80566 44.71326,37.05638c3.85384,2.23486 7.26665,5.02882 10.22835,8.3826c0.51607,0.1317 1.03214,0.26348 1.54821,0.39518c2.35934,2.51566 4.89425,4.86619 7.59967,7.05198c0.69448,0.28793 1.39396,0.57498 2.08845,0.8629c2.9617,3.35379 6.37452,6.14773 10.22836,8.38259c31.64417,26.36754 63.5821,52.52296 95.81878,78.4654c0.03626,0.50397 0.07253,1.00796 0.10879,1.51193c-1.6109,1.97205 -3.42022,3.79121 -5.43311,5.45683c-1.70074,-0.68462 -3.28521,-1.58378 -4.7534,-2.69749c3.72731,47.85719 7.59575,95.70472 11.59527,143.54332c-99.5835,7.27405 -199.11983,14.43628 -298.60748,21.48661c-5.47065,0.39415 -10.73826,1.11109 -15.80281,2.15028c-0.50398,0.03627 -1.00796,0.07252 -1.51194,0.10879c-0.38745,-4.1454 -0.68964,-8.34504 -0.90661,-12.59947c-97.74724,7.37799 -195.49496,14.74942 -293.24318,22.11379c-0.68097,-12.0306 -1.20925,-24.06612 -1.58494,-36.10703c-0.20676,-1.07733 -0.61529,-2.0611 -1.22554,-2.95134c0.441,-2.74907 0.57755,-5.54513 0.40959,-8.38818c-0.92388,-20.53445 -1.89465,-41.06601 -2.9123,-61.59421c-3.86636,0.44589 -7.74234,0.5556 -11.62778,0.33011c-0.84612,-2.07945 -1.83114,-4.03493 -2.95507,-5.86642c-0.04834,-0.67181 -0.09671,-1.34411 -0.14505,-2.01592c38.97435,-2.80444 77.94891,-5.6089 116.92309,-8.41333c-2.13959,-29.73475 -4.27919,-59.46951 -6.41878,-89.20426c-0.52478,0.11325 -1.03478,0.06585 -1.53007,-0.14319c-5.65875,-3.50115 -11.31272,-6.97833 -16.9614,-10.43106c-0.49268,-0.65148 -0.7154,-1.39534 -0.66716,-2.23164c85.32818,-6.30858 170.65683,-12.61769 255.98501,-18.92626c0.26578,1.70835 0.7228,3.36393 1.37059,4.96727c12.27603,-0.65638 24.52123,-1.79079 36.73606,-3.40327c22.93774,-26.04278 46.07849,-51.77084 69.42122,-77.1841z" fill="#000000" fill-rule="evenodd" stroke-width="1"/><path d="M456.48509,1.49393c18.48521,14.66226 36.78701,29.64062 54.90535,44.93501c17.00858,13.6212 33.87406,27.43606 50.60154,41.44527c0.69448,0.28793 1.39396,0.57498 2.08844,0.8629c2.35934,2.51565 4.89426,4.8662 7.59968,7.05198c0.51606,0.13156 1.03215,0.26363 1.5482,0.39518c9.55813,8.43183 19.2704,16.68238 29.13687,24.75261c3.85384,2.23486 7.26666,5.02882 10.22836,8.3826c3.3025,1.75376 6.17003,4.08037 8.60762,6.97946c2.40179,1.13418 4.53857,2.66888 6.41039,4.60462c-1.09492,1.39845 -2.2642,2.74907 -3.50785,4.05182c-0.7373,-0.95353 -1.70191,-1.47532 -2.89881,-1.56448c-0.83455,-1.03773 -1.66908,-2.07495 -2.50363,-3.11267c-4.50395,-3.52548 -9.05975,-6.99707 -13.66741,-10.41478c-2.24317,-2.73172 -4.93232,-4.90246 -8.06739,-6.51174c-8.66557,-7.50315 -17.62296,-14.62613 -26.86711,-21.36981c-23.96231,-19.37009 -47.98103,-38.74983 -72.06621,-58.13794c-2.60632,-1.7801 -5.11503,-3.79478 -7.52715,-6.04403c-0.51607,-0.1317 -1.03213,-0.26348 -1.5482,-0.39518c-4.14344,-3.98552 -8.46537,-7.72723 -12.96583,-11.22515c-6.56896,-5.13982 -13.17791,-10.15234 -19.82581,-15.03753c-0.33011,0.10821 -0.65972,0.21631 -0.98983,0.32452c-29.07643,33.58514 -58.15235,67.17005 -87.22876,100.75536c-0.28782,0.69599 -0.23944,1.3683 0.14506,2.01592c3.5635,2.2973 6.63713,5.11567 9.22039,8.45513c8.24093,6.34677 15.99685,13.21882 23.26672,20.6157c4.65848,3.56097 9.14825,7.29061 13.46981,11.18888c0.92474,1.11533 1.84901,2.2312 2.77375,3.34653c5.21042,4.35306 10.42037,8.70668 15.63079,13.05974c0.20409,0.4919 0.40869,0.98378 0.61277,1.47568c5.28353,4.61579 10.67388,9.12512 16.17104,13.52746c0.74433,0.95962 1.48917,1.9192 2.2335,2.87881c3.1029,2.05638 5.89433,4.47307 8.37377,7.24958c-2.30601,2.11883 -4.42281,4.38208 -6.35041,6.7893c-28.2145,-26.31746 -56.76422,-52.2947 -85.64854,-77.93073c-1.72443,-2.75284 -4.06534,-4.77993 -7.02317,-6.08028c-17.75491,20.50818 -35.52807,41.03741 -53.31946,61.58771c-1.45873,2.15766 -1.87767,4.55155 -1.25623,7.18264c-100.23812,7.96249 -200.4876,15.76724 -300.74846,23.41373c-0.79284,-1.63141 -1.58572,-3.26333 -2.37856,-4.89473c98.58123,-7.51702 197.17511,-14.86474 295.7812,-22.04312c-0.56736,-1.98502 -0.9644,-3.98281 -1.19113,-5.99335c27.52452,-30.77909 55.1141,-61.55525 82.76921,-92.32904c0.46026,-0.2778 0.95822,-0.39773 1.49381,-0.36078c-0.08639,-1.63007 0.68726,-2.61431 2.32044,-2.9532c3.77891,-4.7765 7.66426,-9.44667 11.6566,-14.01006c0.80388,-0.56443 1.60723,-1.12883 2.4111,-1.69326c3.56097,-4.65848 7.29061,-9.14825 11.18888,-13.46981c1.11534,-0.92459 2.23118,-1.84916 3.34652,-2.77374c3.24901,-4.29798 6.66666,-8.42777 10.25346,-12.38932c1.27159,-1.10467 2.54266,-2.20932 3.81424,-3.31399c9.94575,-11.0335 19.78589,-22.12661 29.52042,-33.27936z" fill="#524950" fill-rule="evenodd" stroke-width="1"/><path d="M455.80724,13.19425c8.41267,6.25539 16.65393,12.83905 24.72427,19.75094c0.51607,0.1317 1.03213,0.26349 1.5482,0.3952c2.24521,2.73177 4.93434,4.90237 8.06739,6.51174c6.99789,5.58829 13.83058,11.34479 20.49298,17.26917c2.74696,1.70711 5.41192,3.54171 7.99486,5.50378c6.66239,5.92438 13.49509,11.681 20.49297,17.26917c3.13507,1.60926 5.82421,3.78002 8.06739,6.51174c0.51606,0.13156 1.03215,0.26363 1.54819,0.39518c7.97421,6.9065 16.2079,13.40627 24.70614,19.49895c6.109,5.13289 12.22302,10.26542 18.332,15.39833c4.78414,3.19528 9.26029,6.7567 13.43355,10.6849c0.69448,0.28793 1.39396,0.57497 2.08845,0.8629c3.04688,3.27014 6.38003,6.15393 9.99451,8.65273c4.21505,48.15846 8.274,96.33018 12.17178,144.51502c-74.92654,5.39141 -149.84955,10.78258 -224.77458,16.17388c-3.65366,-36.56202 -7.20059,-72.95034 -10.64124,-109.16396c-0.30081,-1.83602 -0.60209,-3.67148 -0.90289,-5.50751c-2.62806,-2.65234 -5.02938,-5.51908 -7.20449,-8.60019c-2.78938,-1.03638 -5.34043,-2.45666 -7.65221,-4.26197c-1.04422,-0.43145 -2.08844,-0.86289 -3.13266,-1.29434c-4.98469,-0.15298 -9.97052,-0.21621 -14.95804,-0.19016c-1.32677,0.07723 -2.56859,0.41988 -3.72544,1.02796c-2.51296,2.3475 -5.23604,4.4011 -8.16873,6.16026c-2.16707,4.36669 -4.65488,8.51381 -7.46344,12.44186c2.30849,37.82701 4.77633,75.64355 7.4035,113.44964c-10.58355,0.76155 -21.16712,1.5231 -31.75067,2.28465c-2.94242,-41.86347 -5.8682,-83.69977 -8.77783,-125.50886c18.11071,-20.55506 35.85967,-41.42044 53.24692,-62.59568c30.76243,27.73647 61.39497,55.67427 91.89761,83.81343c0.69599,0.28782 1.3683,0.23944 2.01592,-0.14506c1.92482,-2.58685 4.02954,-5.01793 6.31416,-7.29329c2.01813,23.49877 4.1303,46.98775 6.33695,70.46639c35.61468,-2.56269 71.22733,-5.12524 106.84352,-7.68804c-1.90726,-35.65829 -4.46992,-71.27246 -7.68804,-106.84351c-8.89099,-2.68042 -17.70647,-5.50813 -26.44635,-8.48209c-5.92183,-0.34947 -11.85161,-0.59807 -17.78432,-0.74667c-15.8102,1.69539 -31.50516,4.17581 -47.0839,7.44067c-5.43164,3.87212 -10.99169,7.56501 -16.68012,11.07871c0.50808,10.77809 1.2817,21.52947 2.32092,32.25464c-30.1808,-27.29908 -60.4293,-54.58875 -90.74459,-81.87004c28.27254,-33.02087 56.72502,-65.88548 85.35791,-98.59438c0.21229,-0.31639 0.27227,-0.65845 0.17946,-1.02609z" fill="#3b3d50" fill-rule="evenodd" stroke-width="1"/><path d="M454.78907,62.40657c7.68397,-1.41461 15.15997,-0.77018 22.42892,1.93222c1.37104,9.51436 2.39623,19.06577 3.07503,28.65426c-11.08754,0.79782 -22.17507,1.59563 -33.26261,2.39344c-0.76121,-9.40323 -1.35396,-18.81655 -1.7788,-28.24095c1.31394,-1.08644 2.67573,-2.11301 4.08437,-3.08013c1.97186,-0.26449 3.78975,-0.81728 5.45311,-1.65885z" fill="#000000" fill-rule="evenodd" stroke-width="1"/><path d="M456.4098,63.80972c6.70452,-1.17798 13.17304,-0.46155 19.40505,2.14981c1.24966,8.51043 2.20231,17.05388 2.85744,25.6304c-10.07958,0.72528 -20.15914,1.45058 -30.23872,2.17586c-0.78479,-8.56212 -1.23296,-17.14187 -1.34551,-25.73919c1.12138,-0.84057 2.24327,-1.68118 3.36466,-2.52176c2.12271,-0.32245 4.10842,-0.88732 5.95708,-1.69512z" fill="#587cac" fill-rule="evenodd" stroke-width="1"/><path d="M221.45056,86.28893c41.81968,-3.17787 83.662,-6.01999 125.527,-8.52584c0.57205,1.45176 1.01649,2.93953 1.33435,4.46328c12.07439,-1.21989 24.15175,-2.34222 36.23208,-3.367c-1.91077,1.29656 -3.48174,2.92937 -4.71341,4.89845c-11.90098,1.27833 -23.8342,2.05241 -35.80063,2.32278c-0.42077,-1.15159 -0.84105,-2.30373 -1.26182,-3.45532c-9.83967,0.53933 -19.67936,1.07814 -29.51902,1.61748c-67.41897,5.27066 -134.8438,10.46017 -202.27499,15.56808c0.2845,1.70092 0.23758,3.39326 -0.14133,5.07605c-4.45323,-3.46124 -9.22477,-6.41072 -14.31459,-8.84846c41.74053,-3.08808 83.38481,-6.33794 124.93236,-9.74952z" fill="#524950" fill-rule="evenodd" stroke-width="1"/><path d="M284.8831,87.80363c18.80599,-1.5219 37.63362,-2.70797 56.4819,-3.55763c0.58905,1.27272 1.02188,2.59213 1.29807,3.9593c11.7548,-0.93042 23.52019,-1.69242 35.29666,-2.28652c-23.24574,26.48638 -46.86025,52.67053 -70.84249,78.55285c-59.02972,5.5895 -118.09661,10.76829 -177.20111,15.53692c-3.81844,0.27071 -7.61035,0.37485 -11.37579,0.31197c-2.13769,-26.18827 -4.10761,-52.38911 -5.90922,-78.60257c57.62379,-4.14841 115.04112,-8.78652 172.25198,-13.91433z" fill="#6f6a69" fill-rule="evenodd" stroke-width="1"/><path d="M290.24926,91.9768c1.18232,-0.10636 1.89644,0.43345 2.14284,1.61886c0.95605,20.26364 2.24436,40.51906 3.86587,60.76572c-45.66988,3.62666 -91.33947,7.25025 -137.00972,10.87185c-1.45057,-20.15916 -2.90115,-40.31831 -4.35172,-60.47747c39.60423,-3.43335 79.20794,-6.87377 118.81209,-10.32231c5.74015,-0.33807 11.25371,-1.15678 16.54065,-2.45666z" fill="#000000" fill-rule="evenodd" stroke-width="1"/><path d="M275.31122,95.58462c5.03979,-0.36265 10.07958,-0.72528 15.11937,-1.08793c1.40224,19.48736 2.80442,38.9742 4.20666,58.46156c-7.05571,0.5077 -14.1114,1.0154 -21.16711,1.5231c-1.20516,-19.33233 -2.42696,-38.66347 -3.66642,-57.99383c1.96232,0.01837 3.79834,-0.28244 5.5075,-0.9029z" fill="#524950" fill-rule="evenodd" stroke-width="1"/><path d="M241.07691,98.55457c9.07162,-0.65275 18.14324,-1.30551 27.21486,-1.95827c1.21625,19.33153 2.43857,38.66314 3.66642,57.99384c-29.37633,2.43904 -58.75077,4.89008 -88.12378,7.35421c-1.37804,-19.1512 -2.75609,-38.3024 -4.13413,-57.45359c20.56002,-1.77223 41.01907,-3.75097 61.37663,-5.93618z" fill="#587cac" fill-rule="evenodd" stroke-width="1"/><path d="M173.14857,104.9622c1.67976,-0.12087 3.36003,-0.24178 5.03979,-0.36265c1.37804,19.1512 2.75609,38.3024 4.13413,57.4536c-7.22352,0.51978 -14.44756,1.03959 -21.67109,1.55936c-1.36597,-18.98338 -2.73189,-37.96623 -4.09786,-56.94961c5.64588,-0.24008 11.17757,-0.80683 16.59505,-1.7007z" fill="#524950" fill-rule="evenodd" stroke-width="1"/><path d="M517.00443,145.56957c7.45114,-0.01082 14.89386,0.21351 22.33826,0.67228c7.28094,2.76334 14.71348,5.09887 22.28759,7.00829c1.46572,0.37528 2.78005,1.0406 3.94303,1.99592c2.88163,34.41492 5.27904,68.85912 7.1822,103.33381c-34.60823,2.49027 -69.21293,4.98028 -103.81966,7.47045c-2.41179,-30.13817 -4.91773,-60.26855 -7.5174,-90.39167c-0.12835,-4.12807 -0.25615,-8.25568 -0.3845,-12.38375c5.34731,-3.91772 10.91337,-7.52696 16.69825,-10.82672c13.14116,-2.43952 26.23007,-4.73191 39.27222,-6.87858z" fill="#587cac" fill-rule="evenodd" stroke-width="1"/><path d="M284.09739,168.40771c7.05167,-0.59201 14.11343,-1.01555 21.18525,-1.27112c-3.72812,3.21559 -7.10441,6.75136 -10.12839,10.60727c-0.01697,1.83406 0.52425,3.48408 1.62259,4.94913c-59.14197,4.15634 -118.26325,8.57915 -177.3643,13.26902c-0.32638,-4.53582 -0.65276,-9.07162 -0.97914,-13.60743c55.31767,-4.48804 110.5392,-9.13684 165.664,-13.94688z" fill="#3f4366" fill-rule="evenodd" stroke-width="1"/><path d="M359.05264,175.17234c5.17002,-0.12277 10.33022,0.01251 15.48015,0.40587c3.07357,1.88118 6.30804,3.4215 9.70439,4.62089c2.54964,3.34392 5.1495,6.61836 7.79913,9.82387c-0.05998,0.34222 -0.11948,0.68388 -0.17946,1.02608c-2.063,-1.62867 -3.96594,-3.4335 -5.70882,-5.41498c-2.88728,-0.79175 -5.73771,-1.6839 -8.55137,-2.6775c-3.30311,-0.38948 -6.59711,-0.40575 -9.88199,-0.04881c-3.27065,1.87821 -6.70179,3.47618 -10.29344,4.79338c-2.33745,3.32931 -4.18923,6.92406 -5.55632,10.78487c1.93591,30.42418 4.03971,60.83731 6.31185,91.23832c14.43813,-1.17772 28.87311,-2.3851 43.30593,-3.62271c0.51094,5.53774 1.07817,11.06939 1.7007,16.59503c-17.80708,1.28132 -35.61468,2.5627 -53.42176,3.84402c-2.58788,-37.30233 -5.01945,-74.6149 -7.29471,-111.9377c2.62636,-3.77765 4.86822,-7.82298 6.72561,-12.13548c3.55424,-2.14685 6.84078,-4.5789 9.86014,-7.29515z" fill="#6e685f" fill-rule="evenodd" stroke-width="1"/><path d="M368.84954,184.59917c5.24683,-0.15363 10.36521,0.57584 15.35509,2.18793c2.78206,2.25118 5.40517,4.67999 7.86979,7.28584c3.32122,30.1467 6.42137,60.31892 9.29946,90.51674c-13.76592,1.12782 -27.52958,2.2874 -41.29001,3.47765c-2.21172,-29.56138 -4.25504,-59.13385 -6.13053,-88.71841c1.21702,-3.48932 2.75128,-6.80794 4.60276,-9.95637c3.48099,-1.61623 6.91215,-3.2137 10.29344,-4.79337z" fill="#413142" fill-rule="evenodd" stroke-width="1"/><path d="M257.0025,193.15382c16.46348,-1.18464 32.92645,-2.36926 49.38992,-3.5539c0.12087,1.67976 0.24177,3.36003 0.36264,5.03979c-91.18377,7.06984 -182.36768,14.13766 -273.55174,21.20347c0.01364,1.09072 0.33816,2.08053 0.97355,2.96947c1.10467,1.27158 2.20931,2.54266 3.31398,3.81424c1.34213,19.15479 2.46819,38.32412 3.37817,57.50799c-6.73178,0.3157 -13.46365,0.63089 -20.19541,0.9466c-1.06228,-23.05995 -2.04642,-46.12351 -2.95229,-69.19016c79.85341,-6.12638 159.61363,-12.3722 239.28118,-18.73748z" fill="#6e685f" fill-rule="evenodd" stroke-width="1"/><path d="M262.51373,199.34291c14.78321,-1.06374 29.56693,-2.12752 44.35014,-3.19126c0.25385,3.52785 0.50771,7.0557 0.76156,10.58356c-56.60827,4.15993 -113.20359,8.48559 -169.78648,12.97705c0.63046,17.56921 1.89366,35.12432 3.78962,52.66579c-2.85605,0.20551 -5.71159,0.41098 -8.56765,0.61649c-0.81228,-17.66708 -1.91371,-35.31841 -3.30378,-52.95404c-28.71555,2.22331 -57.43024,4.45869 -86.14412,6.70517c1.84732,30.26237 3.68723,60.52529 5.51963,90.78873c-1.51193,0.10879 -3.02388,0.21758 -4.53581,0.32638c-1.69456,-32.13052 -3.58342,-64.24756 -5.66653,-96.35063c-1.01461,-1.19346 -2.02926,-2.38692 -3.04387,-3.58038c60.34965,-4.93827 120.71274,-9.70374 181.08975,-14.29697c15.37488,-1.10631 30.55422,-2.53646 45.53756,-4.28987z" fill="#564b4e" fill-rule="evenodd" stroke-width="1"/><path d="M224.07372,214.26701c27.88666,-2.00662 55.77383,-4.01326 83.6605,-6.01988c0.10879,1.51193 0.21758,3.02387 0.32638,4.53581c-54.77853,3.76485 -109.556,7.53722 -164.33337,11.31819c0.04194,3.70875 0.14005,7.41651 0.29384,11.1238c54.92235,-4.11056 109.84393,-8.2317 164.76482,-12.36241c1.77695,24.69496 3.55391,49.38993 5.33086,74.0849c-56.07304,4.52973 -112.15833,8.9033 -168.25641,13.12024c-2.30389,-29.72293 -4.61132,-59.4456 -6.92277,-89.168c28.48785,-1.88169 56.86693,-4.09243 85.13617,-6.63265z" fill="#6f6a69" fill-rule="evenodd" stroke-width="1"/><path d="M87.02773,224.6349c13.77526,-0.99122 27.55101,-1.98246 41.32627,-2.97368c1.1359,14.61033 2.1034,29.23178 2.90301,43.8643c0.21142,2.86068 -0.00946,5.66281 -0.66159,8.40631c1.87635,12.21408 3.10048,24.53741 3.67338,36.96992c-27.87183,2.21273 -55.74642,4.38718 -83.62423,6.52387c-1.79241,-29.75973 -3.596,-59.51867 -5.41084,-89.27679c14.04176,-0.8427 27.97329,-2.01386 41.79399,-3.51391z" fill="#6f6a69" fill-rule="evenodd" stroke-width="1"/><path d="M112.33546,224.33361c4.53581,-0.32638 9.07162,-0.65275 13.60743,-0.97913c0.17387,4.04272 0.29566,8.08667 0.36637,12.13176c-25.04623,1.81641 -50.05317,3.95371 -75.02032,6.41134c-0.36445,-3.18454 -0.76214,-6.36414 -1.193,-9.53933c-0.50397,0.03626 -1.00797,0.07253 -1.51194,0.10879c-0.03627,-0.50397 -0.07252,-1.00796 -0.10879,-1.51193c21.34803,-2.38111 42.63463,-4.58809 63.86027,-6.62149z" fill="#000000" fill-rule="evenodd" stroke-width="1"/><path d="M113.48848,226.277c3.69567,-0.26593 7.39186,-0.53189 11.08754,-0.79781c-0.06315,2.86778 -0.02546,5.73589 0.11252,8.6039c-24.01207,1.88284 -48.02314,3.77926 -72.03271,5.68977c-0.30803,-2.51433 -0.65738,-5.02212 -1.04794,-7.52342c20.72158,-1.85731 41.34846,-3.84812 61.88062,-5.97244z" fill="#151b20" fill-rule="evenodd" stroke-width="1"/><path d="M145.34793,225.50428c54.27444,-3.7301 108.5479,-7.46669 162.82144,-11.20939c0.16924,2.35207 0.33846,4.70362 0.5077,7.05569c-54.41793,4.08034 -108.83558,8.16472 -163.2529,12.25363c0.04891,-2.69957 0.02334,-5.39939 -0.07624,-8.09993z" fill="#151b20" fill-rule="evenodd" stroke-width="1"/><path d="M20.7824,282.59341c6.73541,-0.22781 13.4672,-0.54352 20.19542,-0.94659c0.78437,12.10321 1.48674,24.21078 2.10705,36.32275c-6.88772,0.49561 -13.77542,0.99122 -20.66313,1.48684c-0.60253,-12.28599 -1.149,-24.57349 -1.63933,-36.86299z" fill="#3b3d50" fill-rule="evenodd" stroke-width="1"/><path d="M133.16971,274.50647c2.85605,-0.20551 5.71159,-0.41098 8.56764,-0.61649c0.87034,12.09548 1.74069,24.19099 2.61104,36.28648c-2.85605,0.20551 -5.7116,0.41098 -8.56765,0.61649c-0.87034,-12.09548 -1.74069,-24.19099 -2.61103,-36.28648z" fill="#3b3d50" fill-rule="evenodd" stroke-width="1"/><path d="M383.67535,132.601c3.34839,1.92348 7.58171,4.68076 8.30435,8.77061c0.40058,2.2671 -0.3419,4.65095 -0.78164,6.85656c-0.86958,6.93222 -9.72228,9.31472 -15.53296,9.72358c-6.38331,-0.52632 -11.08967,-4.91194 -11.62775,-11.42662c-0.43197,-6.09245 -0.13887,-14.48076 7.51204,-15.05419c3.95411,-0.28452 8.56838,-0.9995 12.2756,0.65169zM377.30803,132.11117c-1.89885,0.05237 -3.86892,0.31633 -5.68046,0.44667c-6.90022,0.47809 -6.89927,8.46043 -6.50333,13.88908c0.3373,5.78457 4.82211,10.11683 10.53987,10.41511c5.20054,-0.38332 13.77677,-2.45737 14.45754,-8.80365c0.41057,-2.06708 1.14928,-4.35303 0.78829,-6.47911c-0.62534,-3.68305 -4.59106,-6.20644 -7.6354,-7.95291c-0.11806,0.11092 -0.31376,0.20905 -0.59069,0.0762c-0.30692,-0.14725 -0.33009,-0.39426 -0.30427,-0.55889c-1.05688,-0.42924 -2.209,-0.13523 -3.37475,-0.05136c-3.34792,0.2409 -8.82491,0.21637 -11.12422,2.88945c0,0 -0.35662,0.41193 -0.76856,0.0553c-0.41193,-0.35664 -0.0553,-0.76856 -0.0553,-0.76856c2.20955,-2.53748 6.6859,-2.92704 10.25128,-3.15734z" fill="#00ffd7" fill-rule="nonzero" stroke-width="0.5"/><path d="M367.09875,135.30322c0,0 -0.35525,0.4102 0.05667,0.76682c0.41193,0.35664 0.68312,-0.12291 0.68312,-0.12291c2.29931,-2.67308 7.82294,-2.66821 11.17086,-2.90911c1.16575,-0.08388 2.33291,-0.37442 3.38979,0.05481c-0.02582,0.16464 -0.00055,0.41249 0.30636,0.55974c0.27691,0.13286 0.47474,0.0357 0.5928,-0.07522c3.04435,1.74649 7.03949,4.30734 7.66485,7.9904c0.36098,2.12607 -0.37889,4.4395 -0.78947,6.50659c-0.68075,6.34629 -9.31931,8.4579 -14.51986,8.84122c-5.71776,-0.29827 -10.24613,-4.67538 -10.58342,-10.45995c-0.39594,-5.42865 -0.36916,-13.46751 6.53106,-13.9456c1.81153,-0.13035 3.81099,-0.29209 5.70984,-0.34446c-3.56538,0.23031 -8.00306,0.60019 -10.2126,3.13766z" fill="#ffffff" fill-rule="nonzero" stroke-width="0.5"/><path d="M346.45227,130.96673c3.58157,0.04763 6.66217,1.90135 9.45049,4.79656c2.21844,2.30358 5.0775,4.58859 5.5064,7.97491c0.24777,1.95626 -0.45655,3.92055 -0.84789,5.78865c-0.26837,1.28097 -0.53266,2.02027 -1.60262,2.85039c-3.38008,5.28761 -9.02553,7.90093 -14.98156,8.3295c-4.08769,0.29414 -6.24407,-2.29994 -9.58203,-4.19432c-1.47488,-0.83703 -3.33225,-1.34895 -4.49829,-2.53526c-0.87067,-0.88582 -1.62795,-2.58811 -1.7288,-3.80569c-0.1165,-1.61901 -0.57934,-3.59564 -0.35477,-5.19879c0.58937,-4.20746 5.77631,-7.89704 8.70353,-10.55299c1.41195,-2.93011 4.16051,-2.70031 6.81231,-3.05343c0.52596,-0.13849 1.04164,-0.23982 1.54755,-0.30592c0.1782,-0.05079 0.35459,-0.10799 0.52862,-0.17287l0.61882,-0.06555c0,0 0.25504,-0.01836 0.42826,0.14479zM341.11199,132.62476c-1.54072,0.23791 -2.91571,0.76109 -3.71846,2.44198c-2.70496,2.54608 -7.99518,6.13643 -8.51125,10.11695c-0.19529,1.50631 0.2629,3.38505 0.37259,4.90955c0.18569,3.22045 3.32216,4.13487 5.65774,5.46021c3.12408,1.77277 5.19508,4.33916 8.98627,4.06636c5.74668,-0.41351 10.97011,-2.90185 14.25602,-7.97844c1.20513,-0.93498 1.22057,-1.83996 1.64463,-3.22993c1.65587,-5.42756 -1.2009,-8.27789 -4.68167,-11.89226c-2.95161,-3.06504 -6.1646,-4.91156 -10.1055,-4.38528c-0.31282,0.07249 -0.63252,0.12721 -0.95577,0.1715c-0.70916,0.15923 -1.44167,0.39368 -2.2,0.70947c0,0 -0.5032,0.20895 -0.71215,-0.29425c-0.0138,-0.03323 -0.02449,-0.06518 -0.03243,-0.09586z" fill="#00ffd7" fill-rule="nonzero" stroke-width="0.5"/><path d="M341.13069,132.66789c0.20896,0.5032 0.71464,0.29366 0.71464,0.29366c0.75833,-0.31579 1.50004,-0.55137 2.20919,-0.7106c0.32322,-0.04429 0.64678,-0.09902 0.95959,-0.1715c3.94091,-0.52628 7.19292,1.33858 10.14453,4.40362c3.48078,3.61437 6.35048,6.50982 4.69462,11.93737c-0.42406,1.38998 -0.44312,2.3073 -1.64823,3.24227c-3.28593,5.07657 -8.56213,7.59801 -14.30881,8.01152c-3.79118,0.2728 -5.89799,-2.3094 -9.02206,-4.08219c-2.33558,-1.32535 -5.48611,-2.26384 -5.67181,-5.48428c-0.1097,-1.52451 -0.5698,-3.4201 -0.37451,-4.92641c0.51607,-3.98052 5.83055,-7.61392 8.53552,-10.15998c0.80276,-1.68089 2.19416,-2.21141 3.73487,-2.44932c0.00795,0.03069 0.01865,0.06263 0.03245,0.09586z" fill="#ffffff" fill-rule="nonzero" stroke-width="0.5"/><path d="M356.02719,145.89416c-0.07559,-1.0505 0.71472,-1.96336 1.76522,-2.03895c1.0505,-0.07559 1.96336,0.71472 2.03895,1.76522c0.07559,1.0505 -0.71472,1.96335 -1.76522,2.03894c-1.0505,0.07559 -1.96336,-0.71472 -2.03895,-1.76521z" fill="#000000" fill-rule="nonzero" stroke-width="0.5"/><path d="M386.27138,143.19709c-0.07559,-1.0505 0.71472,-1.96336 1.76522,-2.03895c1.0505,-0.07559 1.96335,0.71472 2.03894,1.76522c0.07559,1.0505 -0.71472,1.96335 -1.76521,2.03894c-1.0505,0.07559 -1.96336,-0.71472 -2.03895,-1.76521z" fill="#000000" fill-rule="nonzero" stroke-width="0.5"/><path d="M361.9528,131.03578c-0.57486,0.58095 -1.1558,0.00609 -1.1558,0.00609l-0.77191,-0.76738c-2.26322,-1.61863 -4.72211,-2.82186 -7.07378,-4.31052c-2.16635,-1.37134 -4.36611,-3.66088 -6.70608,-4.59982c-2.85526,-2.02782 -6.38754,-2.91668 -9.20027,-5.10419c-2.4441,-1.90082 -6.01901,-5.49277 -9.17497,-5.96605c0,0 -0.80507,-0.14081 -0.66427,-0.94588c0.14081,-0.80507 0.94587,-0.66427 0.94587,-0.66427c4.27378,0.82071 7.35055,4.99732 10.98467,7.04339c2.54577,1.43331 5.54928,2.4952 7.90314,4.20834c2.38398,1.01029 4.56959,3.2421 6.78711,4.64799c2.41554,1.53141 4.93135,2.76764 7.25348,4.44243l0.86671,0.85407c0,0 0.58095,0.57486 0.00609,1.15581z" fill="#00ffd7" fill-rule="nonzero" stroke-width="0.5"/><path d="M366.60165,130.23362c-0.41702,-0.70289 0.28586,-1.11991 0.28586,-1.11991l0.17027,-0.02134c1.428,-1.96361 3.5299,-3.33008 4.81687,-5.44442c2.24943,-2.8983 4.52936,-5.85296 7.18757,-8.39935c4.02282,-3.85357 8.25036,-6.66055 11.63619,-11.23863c0,0 0.48597,-0.6571 1.14308,-0.17113c0.65711,0.48597 0.17113,1.14308 0.17113,1.14308c-5.45193,7.37174 -13.12889,12.32737 -18.79324,19.5953c-1.30009,2.12059 -3.43192,3.48627 -4.834,5.46875l-0.66381,0.47351c0,0 -0.70288,0.41702 -1.11991,-0.28586z" fill="#00ffd7" fill-rule="nonzero" stroke-width="0.5"/><path d="M340.14369,189.4087c-0.49871,0.03589 -0.5346,-0.46283 -0.5346,-0.46283l0.02226,-0.00632c-0.90186,-2.29985 -1.49378,-4.40534 -1.67142,-6.87403c-0.47994,-6.715 -0.91127,-13.03922 5.793,-16.75743c5.52297,-3.10128 10.21562,-5.59462 16.68653,-6.06024c6.18576,-0.42649 12.03963,2.67784 18.1842,2.84898c6.82795,0.2625 12.63293,1.88995 14.83864,9.15725c1.88896,2.45497 1.67388,8.06899 2.1447,11.08209c0.20975,1.34234 0.72278,2.80254 0.0439,4.0226c0,0 -0.26067,0.42668 -0.68735,0.16601c-0.42668,-0.26067 -0.16601,-0.68735 -0.16601,-0.68735c0.56875,-0.79682 -0.03304,-2.41516 -0.17866,-3.34747c-0.45064,-2.88517 -0.21701,-8.44019 -2.04395,-10.77479c-2.16481,-6.93928 -7.41164,-8.36611 -13.98442,-8.61889c-6.09636,-0.1697 -11.95532,-3.31229 -18.07929,-2.851c-6.32318,0.45499 -10.87286,2.90447 -16.27099,5.93603c-6.30934,3.49921 -5.73926,9.51095 -5.28291,15.81245c0.17055,2.37027 0.73732,4.3714 1.60488,6.5805l0.04429,0.29985c0,0 0.03588,0.49871 -0.46283,0.53459z" fill="#00ffd7" fill-rule="nonzero" stroke-width="0.5"/></g></g></g></svg>