<svg version="1.1" xmlns="http://www.w3.org/2000/svg" xmlns:xlink="http://www.w3.org/1999/xlink" width="1733.09309" height="836.33634" viewBox="0,0,1733.09309,836.33634"><g transform="translate(546.54655,238.16817)"><g data-paper-data="{&quot;isPaintingLayer&quot;:true}" stroke-linejoin="miter" stroke-miterlimit="10" stroke-dasharray="" stroke-dashoffset="0" style="mix-blend-mode: normal"><path d="M-546.54655,598.16817v-836.33634h1733.09309v836.33634z" fill="none" fill-rule="nonzero" stroke="#f00000" stroke-width="0" stroke-linecap="butt"/><path d="M164.31219,322.94222l33.51062,-26.20201l93.63269,-0.23395l-19.71212,26.43595z" fill="#cedce9" fill-rule="nonzero" stroke="#000000" stroke-width="0" stroke-linecap="round"/><path d="M155.40589,321.56833c-3.23389,-0.36981 -10.93005,-0.94626 -7.55727,-1.54218c-1.844,0.19096 -4.30412,0.42411 -5.61315,0.48683c-6.20127,0.29713 -14.23792,0 -20.63695,0c-17.55532,0 -34.59883,-0.15772 -51.59221,0.58996c-7.67977,0.33789 -9.79093,-0.70555 -12.14916,0.75443c-4.86436,2.44969 -14.01637,4.63565 -19.89547,7.10174c-7.9681,3.34232 -11.05811,6.56903 -15.94283,9.92039c-5.52757,2.75992 -1.025,8.05892 -1.025,11.13083c0,0.82229 1.55061,2.286 0.06965,2.89127c1.47223,0.03058 2.89418,0.05848 3.79981,0.05848c6.01912,0 12.03817,0 18.05732,0c23.94306,0 51.76182,-0.11974 75.00121,-1.44842c27.59276,-1.41743 57.49806,0.61518 85.31277,-0.65703c15.23203,-0.63807 31.83586,-0.25878 47.34465,-0.25428c7.86761,0.00228 14.60498,-0.68112 18.05729,0.58995c0.90739,0.33409 0,-0.78659 0,-1.17988c0,-0.98322 0,-1.96652 0,-2.94974c0,-5.50617 0,-11.01233 0,-16.5185c0,-1.3017 -1.49199,-5.95868 1.5946,-6.46262c-0.57897,-0.00791 -1.23426,-0.02077 -1.5946,-0.0268c-3.19203,-0.05326 -4.97543,-0.01302 -7.46653,-0.41952c-4.32469,-0.70571 -18.91496,-0.17042 -24.77861,-0.17042c-22.78658,0 -45.57311,0 -68.3597,0c0,0 -5.15921,0 -5.15921,-1.17988c0,-0.04844 0.00864,-0.09486 0.02534,-0.13939c-2.46639,-0.11956 -4.9577,-0.28536 -7.49184,-0.57513zM236.39144,321.103c13.75515,0 31.33537,-0.56015 40.72895,1.83212c5.3829,1.37085 1.83453,5.76613 1.83453,7.60704c0,5.50617 0,11.01232 0,16.51849c0,0.62876 1.77701,3.74776 0,4.12963c-17.94876,3.85692 -51.77923,0.84931 -73.69667,1.97832c-27.19829,1.24402 -58.52042,-1.12657 -84.83379,0.6324c-23.95197,1.36944 -52.80767,1.5189 -77.50383,1.5189c-3.54239,0 -24.78633,0.61354 -27.08588,0c-6.59428,-1.75943 -5.15921,-3.22712 -5.15921,-5.30953c0,-3.76661 -2.9196,-8.25642 1.55455,-11.87708c5.00655,-3.43492 8.51759,-6.87999 16.50277,-10.22948c3.22112,-1.35111 6.70037,-3.15843 10.86308,-4.37875c2.72386,-0.7985 7.93168,-1.44729 8.58236,-2.48531c4.41379,-2.7326 12.39022,-1.83725 21.82839,-2.29652c16.80111,-0.81757 34.18712,-0.58996 51.59221,-0.58996c6.41889,0 18.96058,-0.67558 23.48881,-0.46538c7.88258,0.36595 12.45236,1.90331 20.09224,2.35979c5.60602,0.33496 11.51373,0.13667 18.05732,0.88492c0.49676,0.05683 0.99342,0.11361 1.49024,0.17042c17.22133,0 34.44276,0 51.66413,0z" fill="#000000" fill-rule="nonzero" stroke="none" stroke-width="0" stroke-linecap="butt"/><path d="M162.96952,322.08685c-0.01671,0.04452 -0.02475,0.09098 -0.02475,0.13942c0,1.17989 5.18455,1.1819 5.18455,1.1819c22.78654,0 45.69452,0.02346 68.48118,0.02346c5.86362,0 20.46717,-0.52978 24.79186,0.1759c2.49105,0.40651 4.27852,0.36825 7.47043,0.42149c0.3603,0.00602 1.01613,0.01917 1.5952,0.02709c-3.08662,0.50394 -1.57896,5.17222 -1.57896,6.47392c0,5.50617 -0.01076,11.0451 -0.01076,16.55127c0,0.98325 -0.0088,1.97128 -0.0088,2.9545c0,0.39329 0.9035,1.51575 -0.0039,1.18167c-3.45229,-1.27106 -10.19581,-0.58514 -18.06335,-0.58741c-15.5088,-0.00449 -32.1596,-0.37033 -47.39158,0.26777c-27.81475,1.27222 -57.99335,-0.74894 -85.58613,0.66848c-23.23939,1.32869 -51.17108,1.42788 -75.11432,1.42788c-6.01914,0 -12.04873,-0.00371 -18.06785,-0.00371c-0.90571,0 -2.3296,-0.02864 -3.80175,-0.05922c1.48098,-0.60528 -0.07924,-2.07314 -0.07924,-2.89544c0,-3.0719 -4.52684,-8.39132 1.00085,-11.15126c4.88478,-3.35137 7.98535,-6.60048 15.95345,-9.94279c5.87919,-2.46611 15.06982,-4.66964 19.93423,-7.1193c2.35822,-1.45998 4.4854,-0.42102 12.16514,-0.75891c16.99333,-0.74765 34.14754,-0.60647 51.70273,-0.60647c6.39893,0 14.50751,0.29417 20.70878,-0.00295c1.3089,-0.06273 3.78955,-0.29586 5.63354,-0.48682c-3.37287,0.5959 4.35383,1.17308 7.58778,1.54286c2.53424,0.28977 5.05561,0.45714 7.52193,0.5767z" fill="#484848" fill-rule="nonzero" stroke="none" stroke-width="0" stroke-linecap="butt"/><path d="M90.64342,326.41255c0,0.39875 1.77858,0.88204 0.8921,1.19778c2.26744,0.05337 4.54827,0.16994 6.57435,0.40163c7.81194,0.8933 23.70353,4.14835 25.20199,6.30031c0.12184,0.17503 -2.0872,0.20428 -1.71311,0.35951c1.24483,0.51651 11.38938,-0.3811 12.55632,-0.23443c0.26405,0.03318 0.39375,0.08489 0.44572,0.14784c-0.05432,-0.19549 -0.10404,-0.38446 -0.10404,-0.50337c0,-0.41795 0.07221,-0.86834 -0.74507,-1.24217c-6.94709,-3.29491 -18.29746,-6.42715 -37.94899,-6.42715c0,0 -2.31904,-0.00001 -3.84764,-0.35557c-0.50973,-0.06622 -0.90615,-0.14412 -1.17189,-0.23545c-0.0683,0.22509 -0.13978,0.45421 -0.13978,0.59104zM134.49678,335.26169c0.3521,0.24157 0.24826,-0.1594 0.13126,-0.57887c-0.02449,0.18204 -0.37195,0.41379 -0.13126,0.57887zM142.98057,331.78433c6.41519,2.93422 -8.15102,7.2214 -21.38194,5.24723c-12.48347,-1.86267 -16.71065,-5.60622 -28.10334,-6.90894c-3.84882,-0.44012 -8.46069,-0.68038 -11.33588,-1.41259c-4.55627,-1.16038 -2.53653,-5.12267 6.17661,-5.12267c6.27407,0 9.3643,0.46538 15.20535,0.46538h2.5796c0,0 2.96127,0.00002 4.39682,0.51307c15.2825,1.14088 25.08922,4.0395 32.46283,7.21849z" fill="#000000" fill-rule="nonzero" stroke="none" stroke-width="0" stroke-linecap="butt"/><path d="M90.59177,325.78196c0.26562,0.09135 0.6622,0.16919 1.17199,0.23543c1.52857,0.35557 3.85813,0.35303 3.85813,0.35303c19.6515,0 31.41162,3.20151 38.35865,6.49643c0.81726,0.37381 0.72256,0.83243 0.72256,1.25035c0,0.11891 0.0402,0.31061 0.09452,0.5061c-0.05186,-0.06298 -0.18035,-0.11497 -0.44453,-0.14819c-1.16692,-0.14666 -11.39939,0.76647 -12.64422,0.24997c-0.37414,-0.15523 1.5899,-0.28809 1.46794,-0.46316c-1.49841,-2.15197 -17.46667,-5.39049 -25.27871,-6.28377c-2.02616,-0.23169 -4.32006,-0.34346 -6.58752,-0.39684c0.8865,-0.31576 -0.87094,-0.80631 -0.87094,-1.20506c0,-0.13683 0.08337,-0.36922 0.15184,-0.5943z" fill="#ffffff" fill-rule="nonzero" stroke="none" stroke-width="0" stroke-linecap="butt"/><path d="M367.45183,315.94222l-19.71212,-26.43596l93.63269,0.23395l33.51063,26.20201z" data-paper-data="{&quot;index&quot;:null}" fill="#cedce9" fill-rule="nonzero" stroke="#000000" stroke-width="0" stroke-linecap="round"/><path d="M483.78919,314.56843c-2.53413,0.28978 -5.02545,0.45558 -7.49183,0.57513c0.01671,0.04453 0.02535,0.09095 0.02535,0.13939c0,1.17987 -5.15921,1.17987 -5.15921,1.17987c-22.78659,0 -45.57312,0 -68.35969,0c-5.86365,0 -20.45392,-0.53529 -24.77862,0.17041c-2.4911,0.4065 -4.2745,0.36626 -7.46652,0.41953c-0.36034,0.00603 -1.01563,0.01889 -1.5946,0.02679c3.08659,0.50394 1.5946,5.16093 1.5946,6.46263c0,5.50617 0,11.01233 0,16.5185c0,0.98321 0,1.96652 0,2.94974c0,0.39329 -0.90739,1.51397 0,1.17987c3.45231,-1.27107 10.18967,-0.58767 18.05729,-0.58995c15.50879,-0.0045 32.11262,-0.38379 47.34465,0.25428c27.81472,1.27222 57.72001,-0.7604 85.31277,0.65703c23.23938,1.32867 51.05815,1.44842 75.00121,1.44842c6.01915,0 12.03819,0 18.05732,0c0.90563,0 2.32758,-0.0279 3.79981,-0.05848c-1.48096,-0.60526 0.06965,-2.06898 0.06965,-2.89127c0,-3.07191 4.50257,-8.37092 -1.02501,-11.13083c-4.88473,-3.35136 -7.97473,-6.57808 -15.94283,-9.92039c-5.8791,-2.46609 -15.03111,-4.65206 -19.89548,-7.10174c-2.35823,-1.45999 -4.46939,-0.41654 -12.14915,-0.75443c-16.99338,-0.74768 -34.0369,-0.58996 -51.59222,-0.58996c-6.39904,0 -14.43568,0.29714 -20.63695,0c-1.30903,-0.06272 -3.76915,-0.29586 -5.61315,-0.48683c3.37279,0.59591 -4.32338,1.17237 -7.55727,1.54218zM402.80351,314.10302c17.22136,0 34.4428,0 51.66413,0c0.49682,-0.0568 0.99348,-0.11359 1.49024,-0.17042c6.5436,-0.74824 12.45131,-0.54995 18.05732,-0.88492c7.63988,-0.45648 12.20966,-1.99384 20.09225,-2.35978c4.52823,-0.2102 17.06992,0.46538 23.48881,0.46538c17.4051,0 34.7911,-0.22762 51.59221,0.58995c9.43817,0.45927 17.4146,-0.43608 21.82839,2.29651c0.65069,1.03801 5.85851,1.68681 8.58236,2.48531c4.16271,1.22032 7.64196,3.02763 10.86308,4.37875c7.98518,3.34948 11.49622,6.79456 16.50277,10.22948c4.47415,3.62067 1.55455,8.11047 1.55455,11.87708c0,2.08241 1.43507,3.55009 -5.1592,5.30953c-2.29956,0.61354 -23.5435,0 -27.08589,0c-24.69616,0 -53.55186,-0.14946 -77.50383,-1.5189c-26.31336,-1.75896 -57.63549,0.61162 -84.83378,-0.6324c-21.91744,-1.12901 -55.7479,1.8786 -73.69666,-1.97832c-1.77701,-0.38187 0,-3.50088 0,-4.12964c0,-5.50617 0,-11.01232 0,-16.51848c0,-1.84091 -3.54837,-6.23619 1.83453,-7.60704c9.39358,-2.39227 26.9738,-1.83211 40.72896,-1.83211z" data-paper-data="{&quot;index&quot;:null}" fill="#000000" fill-rule="nonzero" stroke="none" stroke-width="0" stroke-linecap="butt"/><path d="M476.22543,315.08687c2.46632,-0.11955 4.98769,-0.28694 7.52193,-0.5767c3.23394,-0.36978 10.96065,-0.94696 7.58778,-1.54286c1.84399,0.19096 4.32464,0.42409 5.63354,0.48682c6.20128,0.29712 14.30986,0.00295 20.70879,0.00295c17.55519,0 34.70941,-0.14117 51.70274,0.60648c7.67974,0.33788 9.80691,-0.70107 12.16514,0.7589c4.86441,2.44966 14.05504,4.65319 19.93423,7.1193c7.9681,3.34231 11.06867,6.59143 15.95345,9.94279c5.52769,2.75993 1.00085,8.07935 1.00085,11.15125c0,0.8223 -1.56022,2.29016 -0.07924,2.89544c-1.47215,0.03058 -2.89604,0.05923 -3.80175,0.05923c-6.01912,0 -12.04871,0.00371 -18.06785,0.00371c-23.94324,0 -51.87493,-0.09918 -75.11432,-1.42788c-27.59278,-1.41742 -57.77139,0.60374 -85.58613,-0.66848c-15.23199,-0.6381 -31.88278,-0.27227 -47.39158,-0.26777c-7.86754,0.00227 -14.61106,-0.68364 -18.06335,0.58742c-0.9074,0.33408 -0.0039,-0.78838 -0.0039,-1.18167c0,-0.98321 -0.0088,-1.97125 -0.0088,-2.9545c0,-5.50617 -0.01076,-11.0451 -0.01076,-16.55127c0,-1.30169 1.50765,-5.96999 -1.57897,-6.47392c0.57907,-0.00793 1.23491,-0.02107 1.5952,-0.02709c3.19191,-0.05325 4.97939,-0.01498 7.47044,-0.42149c4.32468,-0.70568 18.92824,-0.1759 24.79186,-0.1759c22.78667,0 45.69464,-0.02346 68.48118,-0.02346c0,0 5.18455,-0.00201 5.18455,-1.1819c0,-0.04844 -0.00804,-0.09489 -0.02475,-0.13941z" data-paper-data="{&quot;index&quot;:null}" fill="#484848" fill-rule="nonzero" stroke="none" stroke-width="0" stroke-linecap="butt"/><path d="M548.5518,319.41253c0,-0.13682 -0.07147,-0.36595 -0.13978,-0.59104c-0.26574,0.09133 -0.66216,0.16924 -1.17189,0.23546c-1.5286,0.35557 -3.84764,0.35557 -3.84764,0.35557c-19.65152,0 -31.0019,3.13224 -37.94899,6.42715c-0.81729,0.37383 -0.74507,0.82422 -0.74507,1.24217c0,0.11891 -0.04972,0.30789 -0.10404,0.50338c0.05197,-0.06295 0.18168,-0.11466 0.44572,-0.14783c1.16694,-0.14667 11.31149,0.75093 12.55632,0.23442c0.37409,-0.15524 -1.83495,-0.18448 -1.71311,-0.35951c1.49847,-2.15197 17.39006,-5.40701 25.202,-6.30032c2.02609,-0.23169 4.30692,-0.34826 6.57436,-0.40163c-0.88648,-0.31574 0.89209,-0.79903 0.89209,-1.19779zM504.56713,327.68282c-0.117,0.41947 -0.22084,0.82044 0.13126,0.57887c0.24069,-0.16507 -0.10677,-0.39683 -0.13126,-0.57887zM496.21454,324.78431c7.37361,-3.17899 17.18033,-6.07762 32.46283,-7.2185c1.43555,-0.51306 4.39681,-0.51308 4.39681,-0.51308h2.57961c5.84105,0 8.93128,-0.46537 15.20535,-0.46537c8.71315,0 10.73289,3.9623 6.17662,5.12268c-2.87519,0.73221 -7.48707,0.97246 -11.33588,1.41258c-11.39268,1.30271 -15.61987,5.04627 -28.10334,6.90894c-13.23092,1.97417 -27.79713,-2.31302 -21.38194,-5.24723z" data-paper-data="{&quot;index&quot;:null}" fill="#000000" fill-rule="nonzero" stroke="none" stroke-width="0" stroke-linecap="butt"/><path d="M548.60371,318.78192c0.06847,0.22508 0.15184,0.45748 0.15184,0.59431c0,0.39875 -1.75744,0.8893 -0.87094,1.20506c-2.26746,0.05338 -4.56135,0.16515 -6.58751,0.39684c-7.81203,0.89328 -23.7803,4.1318 -25.27871,6.28377c-0.12196,0.17507 1.84208,0.30792 1.46794,0.46315c-1.24482,0.5165 -11.4773,-0.39663 -12.64422,-0.24996c-0.26417,0.03322 -0.39267,0.08522 -0.44453,0.14819c0.05432,-0.19549 0.09452,-0.38719 0.09452,-0.5061c0,-0.41793 -0.0947,-0.87654 0.72256,-1.25035c6.94703,-3.29492 18.70715,-6.49643 38.35865,-6.49643c0,0 2.32956,0.00254 3.85813,-0.35303c0.50979,-0.06624 0.90637,-0.14408 1.172,-0.23543z" data-paper-data="{&quot;index&quot;:null}" fill="#ffffff" fill-rule="nonzero" stroke="none" stroke-width="0" stroke-linecap="butt"/><path d="M474.54387,10.07781c0.50528,0 1.01056,0 1.51584,0c13.90688,13.48643 27.88651,26.8764 41.9384,40.16991c3.6835,2.50569 6.88699,5.53738 9.60035,9.09507c0.50528,0.1684 1.01057,0.33688 1.51585,0.50528c2.17271,2.6785 4.53238,5.20491 7.07395,7.57923c0.67203,0.33703 1.3491,0.67354 2.02113,1.01056c2.71336,3.5577 5.91686,6.58938 9.60036,9.09507c29.67015,28.57066 59.64853,56.95083 89.94018,85.14001c0,0.50528 0,1.01056 0,1.51584c-1.74828,1.85135 -3.6835,3.53596 -5.81074,5.05282c-1.64722,-0.80492 -3.16307,-1.81548 -4.54754,-3.03169c0.28296,48.00128 0.70739,96.00306 1.2632,144.00534c-99.84876,0.10813 -199.64244,0.10813 -299.37953,0c-5.48483,0.0005 -10.7903,0.33753 -15.91638,1.01056c-0.50528,0 -1.01057,0 -1.51585,0c-0.08893,-4.16251 -0.08893,-8.37302 0,-12.63205c-98.02469,0.34359 -196.04938,0.68062 -294.07407,1.01056c0.18423,-12.04845 0.5211,-24.09084 1.01056,-36.12766c-0.1289,-1.08939 -0.46577,-2.09995 -1.01056,-3.03169c0.63716,-2.71033 0.97403,-5.48938 1.01056,-8.33715c0.55227,-20.5478 1.05756,-41.09609 1.51585,-61.64439c-3.88839,0.16725 -7.76225,-0.00151 -11.62149,-0.50528c-0.69469,-2.13482 -1.53683,-4.15595 -2.52641,-6.06338c0,-0.67354 0,-1.34759 0,-2.02113c39.07512,0 78.15044,0 117.2254,0c0,-29.81163 0,-59.62327 0,-89.4349c-0.53155,0.07529 -1.03684,-0.00859 -1.51585,-0.25264c-5.39288,-3.89825 -10.78271,-7.77225 -16.16902,-11.62148c-0.44465,-0.68516 -0.61341,-1.44309 -0.50528,-2.27377c85.5609,-0.16826 171.12231,-0.33703 256.68321,-0.50528c0.14249,1.72302 0.47951,3.40712 1.01056,5.05282c12.29148,0.22637 24.58651,-0.02627 36.88558,-0.75792c24.74769,-24.32937 49.67528,-48.33026 74.78173,-72.00267z" fill="#000000" fill-rule="evenodd" stroke="none" stroke-width="1" stroke-linecap="butt"/><path d="M475.04919,12.09893c17.38523,15.95114 34.56482,32.2044 51.53875,48.75971c15.98712,14.80678 31.8176,29.79647 47.4965,44.97009c0.67203,0.33703 1.3491,0.67354 2.02113,1.01056c2.17271,2.6785 4.53238,5.20491 7.07395,7.57923c0.50528,0.16826 1.01057,0.33703 1.51585,0.50528c8.92833,9.09608 18.0234,18.0224 27.28522,26.77994c3.6835,2.50569 6.887,5.53738 9.60036,9.09507c3.16811,1.98626 5.86127,4.51267 8.08451,7.57923c2.31419,1.30363 4.33532,2.98773 6.06338,5.05282c-1.19247,1.31626 -2.45567,2.57947 -3.78961,3.78961c-0.66697,-1.00399 -1.59164,-1.59366 -2.77905,-1.76849c-0.75792,-1.09495 -1.51585,-2.18939 -2.27377,-3.28433c-4.23931,-3.83964 -8.53421,-7.62925 -12.88469,-11.36884c-2.04133,-2.88567 -4.56775,-5.24381 -7.57923,-7.07395c-8.10472,-8.10574 -16.52778,-15.85322 -25.2641,-23.24297c-22.51031,-21.03993 -45.07621,-42.09352 -67.70778,-63.16024c-2.47184,-1.96257 -4.82948,-4.1521 -7.07395,-6.56867c-0.50528,-0.1684 -1.01056,-0.33688 -1.51584,-0.50528c-3.84671,-4.27262 -7.88896,-8.31487 -12.12676,-12.12676c-6.18313,-5.59802 -12.41528,-11.07195 -18.69543,-16.42166c-0.33703,0.08424 -0.67354,0.1684 -1.01057,0.25264c-31.41187,31.4117 -62.82321,62.82321 -94.23507,94.23508c-0.33703,0.67354 -0.33703,1.34759 0,2.02113c3.38943,2.54713 6.25286,5.57883 8.58979,9.09508c7.76417,6.92186 15.00687,14.33283 21.72712,22.2324c4.39089,3.88613 8.60141,7.92838 12.63205,12.12676c0.84231,1.17882 1.6841,2.35815 2.52641,3.53697c4.88456,4.71579 9.76861,9.4321 14.65318,14.14789c0.16826,0.50528 0.33703,1.01057 0.50528,1.51585c4.93863,4.98309 9.99144,9.86766 15.15846,14.65318c0.67354,1.01056 1.34759,2.02113 2.02113,3.03169c2.94731,2.27377 5.5581,4.88457 7.83187,7.83187c-2.45213,1.94787 -4.72591,4.05336 -6.82131,6.31602c-26.25293,-28.27456 -52.86462,-56.23384 -79.83454,-83.8768c-1.52241,-2.8695 -3.7118,-5.05938 -6.56867,-6.56866c-19.18101,19.18101 -38.38172,38.38172 -57.60213,57.60213c-1.60983,2.0474 -2.1995,4.40505 -1.76849,7.07395c-100.5511,0.74782 -201.1022,1.33749 -301.6533,1.76849c-0.67371,-1.6841 -1.34742,-3.36872 -2.02113,-5.05282c98.8665,-0.42242 197.73348,-0.67506 296.60048,-0.75792c-0.42343,-2.02062 -0.67607,-4.04175 -0.75792,-6.06338c29.66257,-28.72427 59.38982,-57.44095 89.18226,-86.15056c0.47901,-0.24405 0.9843,-0.32793 1.51585,-0.25264c0.03082,-1.63206 0.87312,-2.55824 2.52641,-2.77905c4.11198,-4.49297 8.32249,-8.87224 12.63205,-13.13733c0.84231,-0.50528 1.6841,-1.01056 2.52641,-1.51584c3.88613,-4.39089 7.92838,-8.60141 12.12676,-12.63205c1.17882,-0.84215 2.35815,-1.68426 3.53697,-2.52641c3.5491,-4.05372 7.25433,-7.92757 11.1162,-11.62148c1.34759,-1.01056 2.69467,-2.02113 4.04225,-3.03169c10.71198,-10.29123 21.3229,-20.64951 31.83276,-31.07484z" fill="#524950" fill-rule="evenodd" stroke="none" stroke-width="1" stroke-linecap="butt"/><path d="M473.53334,23.72042c7.94202,6.84304 15.68951,14.0012 23.24297,21.47448c0.50528,0.1684 1.01056,0.33688 1.51584,0.50529c2.04336,2.88586 4.56977,5.24387 7.57923,7.07395c6.57877,6.07612 12.98069,12.30816 19.20072,18.69543c2.61736,1.89986 5.14377,3.92099 7.57923,6.06338c6.22002,6.38727 12.62194,12.61942 19.20071,18.69543c3.01148,1.83012 5.53789,4.18828 7.57923,7.07395c0.50528,0.16826 1.01056,0.33703 1.51584,0.50528c7.45797,7.461 15.20393,14.53495 23.24297,21.22184c5.72485,5.5581 11.45474,11.1162 17.17958,16.67431c4.54248,3.5304 8.75148,7.40389 12.63205,11.62148c0.67203,0.33703 1.3491,0.67354 2.02113,1.01056c2.80432,3.48038 5.9219,6.59596 9.34772,9.34772c0.74782,48.33678 1.339,96.67559 1.76848,145.01591c-75.12026,0 -150.23698,0 -225.35573,0c-1.02016,-36.72996 -1.94634,-73.27901 -2.77905,-109.64618c-0.16826,-1.85287 -0.33703,-3.70522 -0.50528,-5.5581c-2.43092,-2.83412 -4.6203,-5.86581 -6.56867,-9.09508c-2.7078,-1.2339 -5.15034,-2.83361 -7.32659,-4.80018c-1.01056,-0.50528 -2.02113,-1.01056 -3.03169,-1.51584c-4.96086,-0.51034 -9.92929,-0.93124 -14.90582,-1.26321c-1.32889,-0.01819 -2.5921,0.23445 -3.78961,0.75793c-2.67496,2.16109 -5.5384,4.01396 -8.58979,5.5581c-2.47488,4.1999 -5.25392,8.15777 -8.33715,11.87412c-0.41232,37.89514 -0.66496,75.79128 -0.75793,113.68843c-10.61092,0 -21.22184,0 -31.83276,0c0.06973,-41.96669 0.15411,-83.90509 0.25264,-125.81519c19.53925,-19.20224 38.73996,-38.73996 57.60213,-58.6127c28.69244,29.87277 57.24087,59.93704 85.64529,90.19282c0.67354,0.33703 1.34759,0.33703 2.02113,0c2.10551,-2.44203 4.37928,-4.71579 6.82131,-6.82131c0.32641,23.58302 0.74732,47.16301 1.26321,70.73947c35.70676,0 71.41149,0 107.11976,0c0.65687,-35.70322 0.65687,-71.40947 0,-107.11976c-8.67569,-3.31162 -17.26548,-6.76472 -25.76938,-10.35828c-5.88148,-0.77358 -11.77813,-1.44712 -17.68487,-2.02113c-15.89111,0.55631 -31.72362,1.9039 -47.4965,4.04225c-5.69553,3.4723 -11.50629,6.75662 -17.43223,9.85299c-0.26678,10.78676 -0.26678,21.56594 0,32.33804c-28.1437,-29.39477 -56.3556,-58.78501 -84.63472,-88.17169c30.56955,-30.90658 61.30737,-61.64439 92.21395,-92.21395c0.23445,-0.30034 0.31883,-0.63721 0.25264,-1.01056z" fill="#3b3d50" fill-rule="evenodd" stroke="none" stroke-width="1" stroke-linecap="butt"/><path d="M468.98579,72.73276c7.76568,-0.85948 15.17615,0.31984 22.2324,3.53697c0.68466,9.58823 1.02169,19.18858 1.01057,28.80107c-11.1162,0 -22.23241,0 -33.34861,0c-0.08438,-9.43361 0,-18.86521 0.25265,-28.29579c1.38852,-0.98934 2.82048,-1.91553 4.2949,-2.77905c1.98576,-0.12228 3.83863,-0.54318 5.5581,-1.2632z" fill="#000000" fill-rule="evenodd" stroke="none" stroke-width="1" stroke-linecap="butt"/><path d="M470.50164,74.24861c6.77178,-0.69376 13.17219,0.48508 19.20071,3.53697c0.63564,8.57817 0.97267,17.16796 1.01056,25.76938c-10.10564,0 -20.21127,0 -30.31691,0c-0.16826,-8.59636 0.0005,-17.18615 0.50528,-25.76938c1.17882,-0.75792 2.35815,-1.51584 3.53697,-2.27377c2.14038,-0.16927 4.16151,-0.59017 6.06338,-1.26321z" fill="#587cac" fill-rule="evenodd" stroke="none" stroke-width="1" stroke-linecap="butt"/><path d="M234.53495,79.80671c41.93991,-0.16826 83.87831,0 125.81519,0.50528c0.46638,1.48907 0.80289,3.0049 1.01057,4.54754c12.1308,-0.35016 24.25757,-0.6028 36.3803,-0.75792c-1.99889,1.15608 -3.683,2.67193 -5.05282,4.54754c-11.96204,0.4209 -23.92004,0.33652 -35.87501,-0.25264c-0.33703,-1.17882 -0.67354,-2.35815 -1.01057,-3.53697c-9.853,-0.16826 -19.70599,-0.33703 -29.55899,-0.50528c-67.62339,0.41837 -135.24679,0.75539 -202.87069,1.01056c0.16169,1.71695 -0.00657,3.40156 -0.50528,5.05282c-4.19333,-3.77192 -8.74088,-7.05626 -13.64261,-9.853c41.85452,-0.08438 83.62466,-0.33703 125.30991,-0.75792z" fill="#524950" fill-rule="evenodd" stroke="none" stroke-width="1" stroke-linecap="butt"/><path d="M297.69517,85.87009c18.86672,-0.16826 37.73092,0 56.59158,0.50528c0.49619,1.31171 0.83321,2.65879 1.01056,4.04225c11.79126,-0.08438 23.581,0 35.36974,0.25264c-25.08674,24.74972 -50.5196,49.17151 -76.29757,73.26588c-59.27866,1.33849 -118.56491,2.26467 -177.85924,2.77905c-3.82802,-0.00404 -7.61763,-0.17231 -11.36884,-0.50528c-0.25264,-26.27416 -0.33703,-52.54882 -0.25264,-78.82398c57.77292,-0.00203 115.37506,-0.5073 172.80641,-1.51584z" fill="#6f6a69" fill-rule="evenodd" stroke="none" stroke-width="1" stroke-linecap="butt"/><path d="M302.74803,90.41763c1.18691,-0.02123 1.86044,0.56844 2.02113,1.76848c-0.50074,20.28 -0.6695,40.57565 -0.50528,60.88647c-45.8124,0.33956 -91.62428,0.67607 -137.43668,1.01056c0,-20.21128 0,-40.42255 0,-60.63383c39.74851,-0.58208 79.49701,-1.17125 119.24653,-1.76849c5.74961,0.07478 11.30771,-0.34612 16.67431,-1.2632z" fill="#000000" fill-rule="evenodd" stroke="none" stroke-width="1" stroke-linecap="butt"/><path d="M287.58953,92.94404c5.05282,0 10.10564,0 15.15846,0c0,19.53774 0,39.07497 0,58.61271c-7.07395,0 -14.14789,0 -21.22184,0c0.18544,-19.36897 0.3542,-38.73795 0.50528,-58.10742c1.95594,0.15916 3.80882,-0.0091 5.5581,-0.50529z" fill="#524950" fill-rule="evenodd" stroke="none" stroke-width="1" stroke-linecap="butt"/><path d="M253.23037,93.44932c9.09507,0 18.19015,0 27.28523,0c-0.17432,19.36897 -0.34259,38.73845 -0.50528,58.10742c-29.47562,0.3244 -58.95023,0.6609 -88.42434,1.01056c0,-19.20071 0,-38.40143 0,-57.60214c20.6342,-0.29205 41.1825,-0.79733 61.64439,-1.51584z" fill="#587cac" fill-rule="evenodd" stroke="none" stroke-width="1" stroke-linecap="butt"/><path d="M185.01731,94.96517c1.6841,0 3.36872,0 5.05282,0c0,19.20071 0,38.40143 0,57.60214c-7.2422,0 -14.48492,0 -21.72712,0c0,-19.03246 0,-38.0644 0,-57.09686c5.64855,0.16574 11.20665,-0.00253 16.67431,-0.50528z" fill="#524950" fill-rule="evenodd" stroke="none" stroke-width="1" stroke-linecap="butt"/><path d="M525.07206,160.14653c7.4327,0.52398 14.84013,1.2819 22.2324,2.27377c7.06384,3.27877 14.30958,6.14171 21.72712,8.5898c1.435,0.47951 2.6982,1.23744 3.78961,2.27377c0.40423,34.53299 0.32337,69.06042 -0.25264,103.5828c-34.69771,0 -69.39188,0 -104.08808,0c-0.24254,-30.23354 -0.57955,-60.46608 -1.01056,-90.6981c0.16826,-4.12664 0.33703,-8.25277 0.50528,-12.37941c5.61469,-3.52384 11.42544,-6.72429 17.43223,-9.60036c13.28235,-1.49008 26.50204,-2.83716 39.66463,-4.04225z" fill="#587cac" fill-rule="evenodd" stroke="none" stroke-width="1" stroke-linecap="butt"/><path d="M291.12654,166.20992c7.07597,-0.08438 14.14992,0 21.22184,0.25264c-3.94929,2.93973 -7.57064,6.22406 -10.86356,9.85299c-0.14855,1.82811 0.27285,3.51272 1.26321,5.05282c-59.28776,-0.09903 -118.574,0.06922 -177.85924,0.50528c0,-4.54754 0,-9.09508 0,-13.64261c55.49713,-0.50629 110.90989,-1.17983 166.23775,-2.02113z" fill="#3f4366" fill-rule="evenodd" stroke="none" stroke-width="1" stroke-linecap="butt"/><path d="M365.40295,178.33668c5.1655,0.2486 10.30269,0.75388 15.4111,1.51584c2.93063,2.09692 6.04621,3.86541 9.34772,5.30546c2.30307,3.51828 4.66122,6.97087 7.07395,10.35828c-0.08438,0.33703 -0.16826,0.67354 -0.25264,1.01056c-1.94079,-1.77253 -3.70928,-3.70928 -5.30546,-5.81074c-2.82301,-0.99693 -5.60206,-2.09136 -8.33715,-3.28433c-3.26664,-0.62554 -6.55098,-0.87818 -9.853,-0.75792c-3.39701,1.63863 -6.93399,2.98622 -10.61092,4.04225c-2.57037,3.15296 -4.67537,6.60555 -6.31603,10.35828c-0.25264,30.48467 -0.33703,60.97035 -0.25264,91.45603c14.48542,-0.13845 28.96983,-0.30671 43.45425,-0.50528c0.11218,5.56013 0.28094,11.11822 0.50528,16.6743c-17.85312,0 -35.70676,0 -53.55988,0c0.096,-37.39187 0.34864,-74.78273 0.75792,-112.17258c2.89071,-3.57941 5.41712,-7.45341 7.57923,-11.62148c3.69916,-1.88622 7.15176,-4.07612 10.35828,-6.56867z" fill="#6e685f" fill-rule="evenodd" stroke="none" stroke-width="1" stroke-linecap="butt"/><path d="M374.49803,188.44232c5.24433,0.22334 10.29715,1.31827 15.15846,3.28433c2.61331,2.44505 5.05535,5.05585 7.32659,7.83187c1.14901,30.30732 2.07569,60.62423 2.77905,90.95074c-13.81137,0.13693 -27.62275,0.30569 -41.43312,0.50528c-0.08438,-29.64388 0,-59.28675 0.25264,-88.92962c1.46431,-3.39297 3.23279,-6.59292 5.30546,-9.60035c3.58801,-1.36223 7.12498,-2.70932 10.61092,-4.04225z" fill="#413142" fill-rule="evenodd" stroke="none" stroke-width="1" stroke-linecap="butt"/><path d="M262.32548,188.9476c16.50605,0 33.01158,0 49.51762,0c0,1.6841 0,3.36872 0,5.05282c-91.45603,0.50731 -182.91205,1.01259 -274.36808,1.51585c-0.06467,1.08889 0.18797,2.09944 0.75792,3.03169c1.01056,1.34759 2.02113,2.69467 3.03169,4.04225c-0.03608,19.20172 -0.28872,38.40243 -0.75792,57.60214c-6.73708,-0.16826 -13.47421,-0.33703 -20.21127,-0.50528c0.59548,-23.07673 1.26916,-46.15144 2.02113,-69.22362c80.08718,-0.37947 160.08998,-0.88474 240.00891,-1.51584z" fill="#6e685f" fill-rule="evenodd" stroke="none" stroke-width="1" stroke-linecap="butt"/><path d="M267.37826,195.51627c14.82143,0 29.64338,0 44.46481,0c0,3.53697 0,7.07394 0,10.61092c-56.76085,0.0864 -113.52068,0.33904 -170.28,0.75793c-0.63211,17.56915 -0.63211,35.16965 0,52.80196c-2.86344,0 -5.72636,0 -8.5898,0c0.45779,-17.67981 0.62604,-35.36468 0.50528,-53.0546c-28.80107,0.15664 -57.60213,0.3254 -86.4032,0.50528c-0.32939,30.31691 -0.66621,60.63383 -1.01056,90.95074c-1.51584,0 -3.0317,0 -4.54754,0c0.61584,-32.16928 1.0369,-64.33906 1.26321,-96.50885c-0.92634,-1.2632 -1.85271,-2.52641 -2.77905,-3.78961c60.54844,-0.59421 121.09788,-1.0151 181.64885,-1.2632c15.41463,0 30.65747,-0.33703 45.72801,-1.01056z" fill="#564b4e" fill-rule="evenodd" stroke="none" stroke-width="1" stroke-linecap="butt"/><path d="M227.96628,207.64303c27.95876,0 55.91803,0 83.8768,0c0,1.51584 0,3.03169 0,4.54754c-54.90747,-0.17634 -109.81443,-0.3451 -164.7219,-0.50528c-0.22434,3.7022 -0.3926,7.40744 -0.50528,11.1162c55.07573,-0.15815 110.15146,-0.32692 165.22718,-0.50528c0,24.75881 0,49.51762 0,74.27644c-56.25354,0.49366 -112.50809,0.83068 -168.76416,1.01056c-0.16472,-29.81163 -0.33298,-59.62326 -0.50528,-89.4349c28.54944,0.16775 57.01399,-0.0005 85.39264,-0.50528z" fill="#6f6a69" fill-rule="evenodd" stroke="none" stroke-width="1" stroke-linecap="butt"/><path d="M90.52959,208.14832c13.81087,0 27.62225,0 41.43312,0c0.08438,14.65418 0,29.30736 -0.25264,43.95953c0.00556,2.86848 -0.41585,5.64753 -1.2632,8.33715c0.9949,12.31725 1.33142,24.69666 1.01056,37.13822c-27.95876,0.20665 -55.91753,0.37492 -83.8768,0.50529c0.34809,-29.81163 0.68496,-59.62327 1.01056,-89.4349c14.06603,0.16725 28.04568,-0.00101 41.9384,-0.50528z" fill="#6f6a69" fill-rule="evenodd" stroke="none" stroke-width="1" stroke-linecap="butt"/><path d="M115.79368,209.66416c4.54754,0 9.09507,0 13.64261,0c-0.11672,4.04478 -0.28548,8.08704 -0.50528,12.12677c-25.11201,0.01414 -50.20785,0.35117 -75.287,1.01056c-0.13496,-3.20248 -0.30342,-6.40243 -0.50528,-9.60036c-0.50528,0 -1.01057,0 -1.51585,0c0,-0.50528 0,-1.01056 0,-1.51584c21.46387,-0.84281 42.85397,-1.51635 64.17081,-2.02113z" fill="#000000" fill-rule="evenodd" stroke="none" stroke-width="1" stroke-linecap="butt"/><path d="M116.80426,211.68529c3.70523,0 7.41097,0 11.1162,0c-0.26881,2.85585 -0.43706,5.71928 -0.50528,8.58979c-24.08528,0.15462 -48.17054,0.32287 -72.25531,0.50528c-0.12678,-2.52995 -0.29524,-5.05635 -0.50528,-7.57923c20.80145,-0.36532 41.51801,-0.8706 62.14968,-1.51584z" fill="#151b20" fill-rule="evenodd" stroke="none" stroke-width="1" stroke-linecap="butt"/><path d="M148.637,213.20113c54.40219,0.17482 108.80386,0.3431 163.20605,0.50529c0,2.35815 0,4.71579 0,7.07394c-54.57045,0.16422 -109.14089,0.33248 -163.71134,0.50529c0.24254,-2.6891 0.4108,-5.38379 0.50529,-8.08451z" fill="#151b20" fill-rule="evenodd" stroke="none" stroke-width="1" stroke-linecap="butt"/><path d="M20.29539,261.20291c6.73439,0.25618 13.47147,0.42444 20.21127,0.50529c-0.08631,12.12829 -0.25471,24.25504 -0.50528,36.3803c-6.90553,0 -13.81103,0 -20.71656,0c0.28079,-12.29755 0.61761,-24.59258 1.01057,-36.88558z" fill="#3b3d50" fill-rule="evenodd" stroke="none" stroke-width="1" stroke-linecap="butt"/><path d="M132.97327,261.20291c2.86344,0 5.72636,0 8.5898,0c0,12.12676 0,24.25353 0,36.3803c-2.86344,0 -5.72636,0 -8.5898,0c0,-12.12676 0,-24.25353 0,-36.3803z" fill="#3b3d50" fill-rule="evenodd" stroke="none" stroke-width="1" stroke-linecap="butt"/><path d="M393.01758,137.6423c3.20171,2.15884 7.22622,5.21284 7.65346,9.344c0.23683,2.29001 -0.67482,4.61442 -1.27173,6.78278c-1.36487,6.85193 -10.36573,8.59292 -16.19077,8.58369c-6.32907,-0.98309 -10.70854,-5.69518 -10.77767,-12.23168c0.0064,-6.10774 0.90078,-14.45339 8.57311,-14.47623c3.96433,0 8.61802,-0.38197 12.19717,1.53103zM386.70183,136.69675c-1.89771,-0.08405 -3.88165,0.03783 -5.69787,0.03783c-6.91674,-0.01837 -7.48869,7.94345 -7.48339,13.38652c-0.07873,5.79386 4.08359,10.43683 9.7652,11.1447c5.21464,-0.00908 13.91761,-1.46227 15.05209,-7.74333c0.55786,-2.03229 1.45874,-4.25932 1.25127,-6.40582c-0.3594,-3.71844 -4.13379,-6.51993 -7.04493,-8.48039c-0.12571,0.10216 -0.32796,0.18599 -0.59463,0.03361c-0.29556,-0.1689 -0.30094,-0.41693 -0.26337,-0.57928c-1.02335,-0.50398 -2.1936,-0.29343 -3.36236,-0.29343c-3.35657,0 -8.81768,-0.41756 -11.30291,2.0836c0,0 -0.38527,0.38528 -0.77055,0c-0.38527,-0.38528 0,-0.77055 0,-0.77055c2.38597,-2.37235 6.87874,-2.43964 10.45145,-2.41346z" fill="#00ffd7" fill-rule="nonzero" stroke="none" stroke-width="0.5" stroke-linecap="butt"/><path d="M376.28974,139.14784c0,0 -0.38378,0.38365 0.00149,0.76891c0.38527,0.38528 0.69018,-0.07357 0.69018,-0.07357c2.48523,-2.50116 7.99427,-2.09987 11.35084,-2.09987c1.16876,0 2.35376,-0.20602 3.37711,0.29796c-0.03757,0.16236 -0.03015,0.41139 0.2654,0.58029c0.26666,0.15239 0.47096,0.06968 0.59667,-0.03248c2.91115,1.96048 6.7122,4.80146 7.07161,8.5199c0.20746,2.14649 -0.69655,4.40086 -1.25442,6.43315c-1.13447,6.28107 -9.9023,7.76724 -15.11695,7.77632c-5.68161,-0.70787 -9.88416,-5.39869 -9.80542,-11.19255c-0.0053,-5.44307 0.59836,-13.45928 7.5151,-13.4409c1.81622,0 3.82213,-0.01782 5.71984,0.06623c-3.57271,-0.02617 -8.02549,0.02426 -10.41146,2.39661z" fill="#ffffff" fill-rule="nonzero" stroke="none" stroke-width="0.5" stroke-linecap="butt"/><path d="M356.00776,133.34073c3.56891,0.30456 6.50852,2.3746 9.08187,5.46246c2.04739,2.45686 4.73509,4.94117 4.91984,8.34954c0.10673,1.969 -0.73675,3.87768 -1.26116,5.71287c-0.35961,1.2584 -0.67628,1.97683 -1.80306,2.72802c-3.75086,5.03139 -9.56931,7.23279 -15.54074,7.23279c-4.09826,0 -6.0629,-2.74215 -9.25629,-4.87121c-1.41101,-0.94072 -3.22684,-1.58463 -4.30473,-2.85157c-0.80485,-0.94602 -1.438,-2.69827 -1.45121,-3.91995c0,-1.6232 -0.31978,-3.62795 0.01927,-5.21085c0.88982,-4.15431 6.32819,-7.46211 9.43848,-9.90112c1.6186,-2.82122 4.34358,-2.39474 7.01389,-2.55663c0.53455,-0.10038 1.05616,-0.16444 1.56551,-0.19406c0.18139,-0.03787 0.36142,-0.08226 0.53966,-0.13448l0.62193,-0.02097c0,0 0.2557,0 0.41676,0.17516zM350.56224,134.61121c-1.55382,0.12672 -2.96281,0.54987 -3.88414,2.16881c-2.88072,2.34538 -8.41498,5.54679 -9.2154,9.48001c-0.3029,1.48841 0.01927,3.39519 0.01927,4.92363c-0.04592,3.22547 3.01683,4.36264 5.25127,5.85218c2.98879,1.99242 4.87026,4.70083 8.67125,4.70083c5.76154,0 11.15008,-2.10704 14.79187,-6.93471c1.26912,-0.84607 1.34948,-1.74762 1.87221,-3.10357c2.04114,-5.29472 -0.6037,-8.34273 -3.81609,-12.1976c-2.72402,-3.26898 -5.79619,-5.34133 -9.76471,-5.09925c-0.31721,0.04985 -0.64002,0.08149 -0.96561,0.10246c-0.71876,0.10793 -1.4662,0.28919 -2.24525,0.54974c0,0 -0.5169,0.1723 -0.68919,-0.3446c-0.01138,-0.03414 -0.01975,-0.06677 -0.02547,-0.09794z" fill="#00ffd7" fill-rule="nonzero" stroke="none" stroke-width="0.5" stroke-linecap="butt"/><path d="M350.57782,134.65558c0.17231,0.5169 0.69172,0.34419 0.69172,0.34419c0.77904,-0.26055 1.53574,-0.44228 2.25449,-0.55021c0.32557,-0.02098 0.65222,-0.05234 0.96942,-0.10219c3.96852,-0.24208 7.0783,1.85136 9.80232,5.12034c3.2124,3.85487 5.8669,6.94882 3.82577,12.24353c-0.52273,1.35596 -0.60757,2.26954 -1.87668,3.11561c-3.6418,4.82765 -9.08536,6.96391 -14.8469,6.96391c-3.80098,0 -5.71704,-2.72675 -8.70582,-4.71918c-2.23444,-1.48956 -5.30949,-2.65174 -5.26357,-5.87721c0,-1.52845 -0.32287,-3.45218 -0.01997,-4.94059c0.80042,-3.93322 6.36197,-7.17582 9.24269,-9.52118c0.92133,-1.61894 2.34722,-2.04823 3.90103,-2.17495c0.00572,0.03118 0.01411,0.0638 0.02549,0.09794z" fill="#ffffff" fill-rule="nonzero" stroke="none" stroke-width="0.5" stroke-linecap="butt"/><path d="M364.48661,148.91686c0,-1.05321 0.85379,-1.907 1.907,-1.907c1.05321,0 1.907,0.85379 1.907,1.907c0,1.05321 -0.85379,1.907 -1.907,1.907c-1.05321,0 -1.907,-0.85379 -1.907,-1.907z" fill="#000000" fill-rule="nonzero" stroke="none" stroke-width="0.5" stroke-linecap="butt"/><path d="M394.84638,148.39739c0,-1.05321 0.85379,-1.907 1.907,-1.907c1.05321,0 1.907,0.85379 1.907,1.907c0,1.05321 -0.85379,1.907 -1.907,1.907c-1.05321,0 -1.907,-0.85379 -1.907,-1.907z" fill="#000000" fill-rule="nonzero" stroke="none" stroke-width="0.5" stroke-linecap="butt"/><path d="M371.46336,134.52208c-0.61507,0.53819 -1.15326,-0.07688 -1.15326,-0.07688l-0.71484,-0.8208c-2.14121,-1.77689 -4.50741,-3.15349 -6.74617,-4.80709c-2.06234,-1.52328 -4.09211,-3.9648 -6.35866,-5.06926c-2.70236,-2.22752 -6.16173,-3.3676 -8.81021,-5.75134c-2.30137,-2.07133 -5.60926,-5.91059 -8.72312,-6.60916c0,0 -0.79289,-0.19822 -0.59467,-0.99111c0.19822,-0.79289 0.99111,-0.59467 0.99111,-0.59467c4.20385,1.12532 6.97294,5.51198 10.45084,7.8136c2.43634,1.61232 5.35588,2.88704 7.58072,4.7647c2.30533,1.17879 4.32512,3.5617 6.43602,5.12311c2.2994,1.70083 4.72,3.11443 6.91594,4.95156l0.80318,0.91408c0,0 0.53819,0.61507 -0.07688,1.15326z" fill="#00ffd7" fill-rule="nonzero" stroke="none" stroke-width="0.5" stroke-linecap="butt"/><path d="M376.1578,134.05565c-0.3655,-0.731 0.3655,-1.09651 0.3655,-1.09651l0.17136,-0.00907c1.56524,-1.85606 3.75979,-3.06815 5.19519,-5.08467c2.45164,-2.72939 4.93775,-5.5128 7.77186,-7.86184c4.28902,-3.55491 8.70712,-6.05124 12.41278,-10.37451c0,0 0.53188,-0.62053 1.15242,-0.08865c0.62053,0.53188 0.08865,1.15242 0.08865,1.15242c-5.96695,6.96144 -13.97977,11.35331 -20.15114,18.19597c-1.44893,2.02182 -3.67328,3.23097 -5.21403,5.10771l-0.69608,0.42465c0,0 -0.731,0.3655 -1.09651,-0.3655z" fill="#00ffd7" fill-rule="nonzero" stroke="none" stroke-width="0.5" stroke-linecap="butt"/><path d="M345.52101,191.17922c-0.5,0 -0.5,-0.5 -0.5,-0.5l0.02265,-0.0047c-0.73448,-2.35864 -1.17375,-4.50118 -1.17375,-6.97626c0.00324,-6.73213 0.02691,-13.071 6.98075,-16.29845c5.73131,-2.6969 10.59081,-4.84701 17.07845,-4.84701c6.20041,0.01857 11.81639,3.53503 17.93283,4.14672c6.7915,0.75187 12.46471,2.79174 14.14316,10.19861c1.7079,2.58421 1.09044,8.16832 1.3438,11.20744c0.11287,1.35393 0.51978,2.84718 -0.24491,4.01538c0,0 -0.29062,0.40687 -0.69749,0.11625c-0.40687,-0.29062 -0.11625,-0.69749 -0.11625,-0.69749c0.62447,-0.75394 0.14038,-2.4113 0.06205,-3.35166c-0.24241,-2.91007 0.38931,-8.434 -1.26536,-10.8937c-1.66119,-7.07675 -6.79209,-8.87647 -13.32978,-9.60033c-6.06846,-0.6068 -11.68676,-4.16179 -17.82805,-4.14121c-6.33953,0 -11.05328,2.11664 -16.65506,4.75295c-6.54421,3.03736 -6.40706,9.07451 -6.40415,15.39251c0,2.3764 0.42168,4.41304 1.12845,6.67871l0.02265,0.30226c0,0 0,0.5 -0.5,0.5z" fill="#00ffd7" fill-rule="nonzero" stroke="none" stroke-width="0.5" stroke-linecap="butt"/><g fill-rule="nonzero" stroke="#000000" stroke-linecap="round"><path d="M597.00673,-57.32416l29.90958,13.7167l14.62299,10.63816l-102.07605,201.91779l-14.11483,-6.78463l-32.53208,-22.41123l-11.41502,-15.59568l96.11777,-190.13164z" fill="#7d3500" stroke-width="1"/><path d="M628.34589,-42.27071l-38.99085,-18.65846l15.11715,-29.90339l36.89017,18.64919l-14.30476,28.29643z" fill="#a7a7a7" stroke-width="1.5"/><path d="M605.72828,-89.84667l-16.59914,-15.0584l-15.78857,-8.33252l-13.98901,-3.56296l-29.15466,5.61319l7.08883,-19.57534l40.22934,-8.08515l33.97582,12.61427l31.85969,16.10611l12.01106,7.47557l29.5012,11.054l16.83011,-5.52759l12.09148,-10.73025l11.45619,-25.43805l54.91141,28.81219l-61.20901,128.7134l-54.21119,-28.80911l13.57232,-28.92988l-4.69844,-14.3056l-12.27197,-11.81818l-8.79252,-6.90116l-11.73777,-5.93383z" fill="#a7a7a7" stroke-width="1.5"/></g></g></g></svg>