<svg version="1.1" xmlns="http://www.w3.org/2000/svg" xmlns:xlink="http://www.w3.org/1999/xlink" width="641.77593" height="224.78942" viewBox="0,0,641.77593,224.78942"><g transform="translate(-0.27101,-134.10371)"><g data-paper-data="{&quot;isPaintingLayer&quot;:true}" fill-rule="nonzero" stroke-linejoin="miter" stroke-miterlimit="10" stroke-dasharray="" stroke-dashoffset="0" style="mix-blend-mode: normal"><path d="M439.61901,159.84641c0.25493,0.06741 0.50997,0.13469 0.76504,0.20192l0.1252,-0.28782c0,0 1.22542,0 1.98893,0.84366c0.30088,0.07908 0.6018,0.15823 0.9027,0.23749c-0.18896,-2.76199 -0.30631,-5.53312 -0.30631,-8.32001c0,0 0,-2.58532 2.58532,-2.58532c2.58531,0 2.58532,2.58532 2.58532,2.58532c0,3.26384 0.16214,6.50664 0.41211,9.7389c4.67166,1.29605 9.30096,2.72401 13.78106,4.55329c5.33562,4.0017 10.82068,2.55221 17.08536,1.82937c12.77429,-1.47397 25.55151,-3.37814 38.39088,-4.13449c0.07619,-0.00449 10.37279,-0.61053 10.39927,-0.61061c3.9943,-0.01206 8.42937,-1.18168 9.37261,4.42026c0.23498,1.39557 -1.34501,2.53836 -1.60991,3.92854c-0.43046,2.25924 0.02982,4.60601 -0.16455,6.89765c-0.46329,5.40574 -0.75075,10.97686 -1.86792,16.1903c-0.34259,1.59879 -1.24112,3.04813 -1.55118,4.65356c-1.21723,6.30256 0.55381,13.54465 0.02461,19.96402c-1.12378,13.63218 -4.37835,27.01291 -5.55894,40.62529c-0.41199,4.675 -0.3708,5.96529 -1.40762,10.58276c-0.3611,1.60818 -0.8665,3.18061 -1.32052,4.76507c-0.27572,0.96219 -1.20098,1.9303 -0.86854,2.87439c0.20577,0.58435 0.91161,-0.8878 1.48906,-1.11217c0.87604,-0.34039 1.83102,-0.45689 2.76705,-0.54158c3.30264,-0.29885 6.68199,0.12516 9.99585,-0.01125c3.25668,-0.13405 6.4787,-0.72561 9.72398,-1.02895c5.27241,-0.49283 10.69439,0.54314 15.95866,0.00595c6.20515,-0.63321 11.61272,-2.59795 17.8579,-2.59766c5.54431,0.10726 12.66223,0.49291 17.77985,2.91198c2.40138,1.1351 3.83201,3.67984 5.70385,5.5643c1.31193,1.32079 2.79974,2.48991 3.9254,3.97262c5.0404,6.6392 4.58439,15.67771 4.10245,23.38891c-0.21748,3.4797 0.441,5.44853 -0.65357,8.95594c-1.23947,3.97173 -5.28158,7.64558 -7.48557,11.07925c-2.5175,3.92208 -4.12737,8.07767 -5.96679,12.33862c-1.8298,3.90837 -2.27684,6.855 -6.72559,8.67611c-1.39634,0.57161 -3.01513,0.13314 -4.5238,0.15431c-4.09581,0.05743 -7.77462,-1.04093 -11.70969,-1.57608c-3.07079,-0.4176 -6.6094,-0.26198 -9.72034,-0.50466c-4.67834,-0.36495 -9.16665,0.5839 -13.82639,0.49674c-3.49365,-0.06535 -6.95191,-0.71886 -10.43402,-1.01004c-9.39004,-0.78517 -18.70592,-0.00919 -28.13336,-1.06943c-5.06696,-0.57014 -10.1925,-1.66981 -15.26987,-2.03065c-10.69698,-0.76021 -21.6828,0.08808 -32.41195,0.00642c-6.4553,-0.04913 -15.75788,0.93651 -21.57516,-2.4997c-1.2249,-0.72354 -2.0944,-2.06505 -2.57378,-3.40447c-0.8689,-2.42784 0.19235,-4.86773 0.39319,-7.23553c0.33727,-3.97595 -0.00881,-8.21085 -0.00881,-12.19624c0.01121,-5.66594 0.85303,-11.25295 0.51776,-16.95902c-0.50095,-8.52578 -2.24635,-17.0702 -1.54308,-25.65331c1.08997,-13.30245 2.57274,-26.79393 2.57794,-40.20383c0.98529,-14.81912 2.91307,-29.45008 2.5372,-44.32648c-0.2219,-8.78286 -1.46316,-17.40732 -2.29381,-26.0794c-1.85354,-0.49313 -3.70902,-0.97615 -5.55931,-1.46542l1.56658,-3.60093z" data-paper-data="{&quot;index&quot;:null}" fill="#b2aa87" stroke="none" stroke-width="0.5" stroke-linecap="butt"/><path d="M234.38479,169.44027l1.56658,3.60094c-1.85029,0.48928 -3.70577,0.97227 -5.5593,1.46542c-0.83067,8.67208 -2.07193,17.29655 -2.29381,26.07941c-0.37587,14.8764 1.55192,29.50735 2.53721,44.32647c0.00519,13.4099 1.48795,26.90139 2.57793,40.20384c0.70327,8.58312 -1.04211,17.12753 -1.54306,25.65331c-0.33527,5.70607 0.50655,11.29308 0.51776,16.95902c0,3.98539 -0.3461,8.22028 -0.00882,12.19624c0.20085,2.3678 1.2621,4.80769 0.39319,7.23552c-0.47937,1.33943 -1.34887,2.68094 -2.57377,3.40447c-5.81728,3.43621 -15.11985,2.45058 -21.57516,2.49971c-10.72915,0.08165 -21.71498,-0.76662 -32.41195,-0.00642c-5.07737,0.36084 -10.20292,1.46051 -15.26987,2.03064c-9.42745,1.06023 -18.74332,0.28427 -28.13336,1.06943c-3.48211,0.29116 -6.94038,0.94467 -10.43403,1.01002c-4.65975,0.08717 -9.14803,-0.86169 -13.82639,-0.49674c-3.11095,0.24268 -6.64956,0.08705 -9.72035,0.50466c-3.93506,0.53515 -7.61387,1.6335 -11.70967,1.57607c-1.50866,-0.02116 -3.12745,0.4173 -4.5238,-0.1543c-4.44875,-1.82111 -4.89578,-4.76774 -6.72559,-8.67611c-1.83943,-4.26094 -3.4493,-8.41654 -5.96679,-12.33862c-2.20399,-3.43369 -6.2461,-7.10753 -7.48557,-11.07926c-1.09457,-3.50739 -0.43609,-5.47624 -0.65358,-8.95594c-0.48195,-7.7112 -0.93796,-16.7497 4.10245,-23.3889c1.12566,-1.48271 2.61347,-2.65184 3.9254,-3.97262c1.87183,-1.88448 3.30246,-4.4292 5.70385,-5.56431c5.11763,-2.41906 12.23555,-2.80472 17.77985,-2.91197c6.24519,-0.00029 11.65276,1.96444 17.85791,2.59765c5.26426,0.53719 10.68624,-0.49878 15.95866,-0.00595c3.24527,0.30334 6.46732,0.8949 9.72398,1.02895c3.31387,0.13641 6.6932,-0.28761 9.99585,0.01124c0.93602,0.08471 1.89102,0.2012 2.76704,0.54158c0.57745,0.22438 1.28329,1.69652 1.48906,1.11217c0.33244,-0.94409 -0.59282,-1.9122 -0.86854,-2.87439c-0.45401,-1.58446 -0.95943,-3.15689 -1.32052,-4.76508c-1.03682,-4.61747 -0.99564,-5.90777 -1.40763,-10.58276c-1.1806,-13.61238 -4.43517,-26.9931 -5.55894,-40.62529c-0.52919,-6.41938 1.24185,-13.66146 0.02462,-19.96402c-0.31006,-1.60543 -1.2086,-3.05476 -1.55119,-4.65355c-1.11717,-5.21344 -1.40463,-10.78456 -1.86792,-16.19031c-0.19439,-2.29164 0.2659,-4.63841 -0.16456,-6.89765c-0.26489,-1.39017 -1.84489,-2.53297 -1.6099,-3.92854c0.94324,-5.60195 5.37831,-4.43233 9.37261,-4.42028c0.02649,0.00008 10.32307,0.60612 10.39928,0.61061c12.83937,0.75635 25.61659,2.66053 38.39088,4.1345c6.26469,0.72284 11.74976,2.17233 17.08537,-1.82938c4.4801,-1.82928 9.1094,-3.25723 13.78106,-4.55329c0.24997,-3.23226 0.41211,-6.47507 0.41211,-9.73891c0,0 0,-2.58532 2.58532,-2.58532c2.58532,0 2.58532,2.58532 2.58532,2.58532c0,2.78689 -0.11736,5.55803 -0.30631,8.32002c0.30091,-0.07926 0.60181,-0.15841 0.90269,-0.23749c0.76352,-0.84366 1.98893,-0.84366 1.98893,-0.84366l0.12521,0.28784c0.25509,-0.06723 0.51011,-0.13452 0.76504,-0.20193z" data-paper-data="{&quot;index&quot;:null}" fill="#b2aa87" stroke="none" stroke-width="0.5" stroke-linecap="butt"/><path d="M430.24749,225.29157l-16.48187,-0.98106l-7.84852,-1.76592l-26.24346,-1.76592v-3.53182l-2.55077,0.19622l-54.54717,-0.78485l-57.53943,3.72803l-64.16158,7.45609l-6.47504,-2.15834l-2.69792,1.3735l-40.02741,9.41822l-49.05319,-3.53183l-32.37512,9.02579l-41.98955,-3.92425l0.1962,-1.96214l-20.40614,-1.37349l0.39243,-36.69179l20.01371,-3.53182v-11.18414l41.84238,-12.95006l30.95259,14.12734l21.82866,-4.90533l32.57133,-8.82958l5.8864,2.15834l31.0507,10.59549l8.04472,-0.58863l63.71031,2.59982l-0.58863,8.43715l56.95078,0.78485l30.80543,-0.19621l0.19621,-7.4561l26.24347,-0.78484l-0.39244,-7.6523l30.85447,-1.56972l-0.58864,9.81066h-2.15834l6.13166,-0.39241h18.24781l17.31579,-0.14718l-0.19623,4.90533h15.69703l2.9432,0.39243l-0.19622,2.74697l1.37349,-0.19621l62.24853,-0.19623v1.3735h18.44401v-6.27881l46.84582,0.14717l-0.39243,5.69017l40.02742,-0.19622l0.19619,28.45086l-11.38033,-0.78485l0.19621,3.1394l-29.43193,-0.78484v3.13941l-0.04904,1.17727l-45.32517,-1.17727l-18.05157,-0.98107l-65.92751,-3.53184l-3.33562,1.76592l-13.9311,-0.19621z" fill="#b2aa87" stroke="#000000" stroke-width="0" stroke-linecap="round"/><path d="M461.15086,190.99659l4.34196,0.84037l-0.70033,32.07449l-3.64163,1.54069l-13.44608,-0.14006l-0.14006,-34.45556z" fill="#817361" stroke="#000000" stroke-width="0" stroke-linecap="round"/><path d="M379.38896,220.97012l-1.9609,-42.57922l30.67385,-1.40062v9.80443l-1.82082,0.28013l-0.14006,35.71613z" fill="#817361" stroke="#000000" stroke-width="0" stroke-linecap="round"/><path d="M383.0306,221.53036l0.84037,-35.85618l3.64164,-2.38107l6.30284,-1.82082l6.02272,0.98043l3.78171,1.1205l3.22145,2.80125l-0.70032,36.9767z" fill="#5a4627" stroke="#000000" stroke-width="0" stroke-linecap="round"/><path d="M406.42115,217.88873l-12.88582,-0.56025l0.42019,-26.61202l3.78171,-1.54071l4.34197,-0.70031l3.78169,0.14006h1.12051z" fill="#19231a" stroke="#000000" stroke-width="0" stroke-linecap="round"/><path d="M397.59717,217.60861l-0.14006,-23.81075l2.10094,-1.82082h1.54071l2.94131,-0.42018l2.66121,1.26056l-0.14007,25.49151z" fill="#926d46" stroke="#000000" stroke-width="0" stroke-linecap="round"/><path d="M549.70586,194.91836l-0.4202,32.7748l-19.88898,-0.56026l-0.14006,-32.21454z" fill="#817361" stroke="#000000" stroke-width="0" stroke-linecap="round"/><path d="M594.03613,195.05842l40.33823,-0.42019v28.57289l-11.34513,-0.70031v3.50158l-29.13315,-0.84037z" fill="#817361" stroke="#000000" stroke-width="0" stroke-linecap="round"/><path d="M351.48164,194.91836l0.56025,22.55019l-5.74259,0.28014l-0.42021,-22.97038z" fill="#817361" stroke="#000000" stroke-width="0" stroke-linecap="round"/><path d="M319.93239,194.21804l0.42019,22.83031l-55.99027,3.50159l-63.44865,7.42333l-6.72304,-1.54069l-0.56026,-43.27954l5.18234,-0.42019l65.79472,3.0814l-0.70031,8.12367z" fill="#817361" stroke="#000000" stroke-width="0" stroke-linecap="round"/><path d="M344.32566,196.87347v9.98145l-21.30059,-0.4116l0.2058,-9.46694h19.24255z" fill="#676e5a" stroke="#000000" stroke-width="0" stroke-linecap="round"/><path d="M340.92991,196.77057l0.3087,10.18724l-15.12651,-0.30871l0.41161,-9.77563z" fill="#19231a" stroke="#000000" stroke-width="0" stroke-linecap="round"/><path d="M357.93435,212.51448l-0.10291,-21.91799l2.57256,-1.44061l3.18993,-0.61741l4.21897,-0.61741h2.88124l2.77832,1.02902l2.57252,1.23482l1.23483,0.7203l0.41161,24.59342l-19.44836,-0.82322z" fill="#19231a" stroke="#000000" stroke-width="0" stroke-linecap="round"/><path d="M431.68893,221.46692l0.7203,-27.57756l2.05803,-3.18995l2.88124,-1.33772l2.67544,-0.2058l1.02902,0.41161l2.77832,2.88126l1.23481,2.57252l-0.82322,24.90213z" fill="#19231a" stroke="#000000" stroke-width="0" stroke-linecap="round"/><path d="M414.60731,220.43788l0.72032,-26.44565l2.16093,-3.39575l4.52766,-0.9261l2.88123,0.82322l1.85222,1.02901l1.44061,3.18993l-0.10291,26.44566z" fill="#19231a" stroke="#000000" stroke-width="0" stroke-linecap="round"/><path d="M407.30129,217.55664l-0.10291,-23.97602l0.82322,-2.77833l1.13191,-0.82321l1.02901,-0.30871l2.05803,1.85223l0.2058,3.29285l-0.4116,24.69635z" fill="#19231a" stroke="#000000" stroke-width="0" stroke-linecap="round"/><path d="M520.69862,214.98413l-40.95476,0.5145l0.10291,-17.59614h40.33735z" fill="#676e5a" stroke="#000000" stroke-width="0" stroke-linecap="round"/><path d="M512.67231,197.69669l0.41161,17.90483l-26.34276,0.30871l-0.2058,-18.83095z" fill="#ff0000" stroke="#000000" stroke-width="0" stroke-linecap="round"/><path d="M552.00637,218.48276l-0.2058,-25.31374l40.85185,0.72032v31.79652l-40.23444,-1.85223z" fill="#676e5a" stroke="#000000" stroke-width="0" stroke-linecap="round"/><path d="M560.65008,224.65687l-0.20581,-31.38492l22.7412,0.30871l0.10291,32.41395z" fill="#ff0000" stroke="#000000" stroke-width="0" stroke-linecap="round"/><path d="M305.19738,218.37988l-0.10291,-19.24255l2.57253,-1.23482l2.98414,-0.41161l4.01317,0.51451l2.46963,1.02902v18.52224z" fill="#aba787" stroke="#000000" stroke-width="0" stroke-linecap="round"/><path d="M286.67513,218.89437l-0.72032,-18.62516l2.26384,-1.33772l3.80736,-0.92612l3.29285,0.1029l3.60155,0.51451l2.57252,1.54352l0.6174,18.41936z" fill="#aba787" stroke="#000000" stroke-width="0" stroke-linecap="round"/><path d="M263.93394,220.54079l-0.10289,-19.96286l1.64641,-1.13192l5.04218,-2.05802h2.46963l4.93926,0.30872l4.21897,2.46963l0.10289,19.55127z" fill="#aba787" stroke="#000000" stroke-width="0" stroke-linecap="round"/><path d="M263.93395,214.26382l-0.2058,-13.48008l3.39574,-2.26384l2.98413,-1.23481l0.30871,16.36133l-7.30599,0.51451z" fill="#19231a" stroke="#000000" stroke-width="0" stroke-linecap="round"/><path d="M285.74902,200.16633l1.44062,-1.33772l2.67544,-0.41161l0.30872,10.90753l-4.01315,-0.1029z" fill="#19231a" stroke="#000000" stroke-width="0" stroke-linecap="round"/><path d="M305.09449,198.93152l1.74932,-0.82322v9.87854l-2.05802,-0.10291z" fill="#19231a" stroke="#000000" stroke-width="0" stroke-linecap="round"/><path d="M301.90455,207.98684l-3.91026,0.2058v-9.98143l1.64643,0.10289l1.95513,1.95513z" fill="#19231a" stroke="#000000" stroke-width="0" stroke-linecap="round"/><path d="M208.75307,227.10076l0.2058,-33.52012l7.2031,-2.36674l7.40889,-1.74932l9.05533,-1.13191l9.87853,0.61742l6.277,0.82321l9.36403,1.85224l-0.41161,29.73848z" fill="#4b3c24" stroke="#000000" stroke-width="0" stroke-linecap="round"/><path d="M208.75307,193.5549l4.32185,-1.44062l4.63058,1.74932l-0.2058,23.35861l-8.84952,1.33773z" fill="#d8ccbd" stroke="#000000" stroke-width="0" stroke-linecap="round"/><path d="M158.4343,219.17735l-0.30871,-43.11567l30.04721,9.67273l-0.10289,28.81238z" fill="#676e5a" stroke="#000000" stroke-width="0" stroke-linecap="round"/><path d="M166.76931,218.04544l-0.5145,-39.41123l16.15553,5.04217l-0.2058,31.89944z" fill="#19231a" stroke="#000000" stroke-width="0" stroke-linecap="round"/><path d="M138.20625,179.50888l5.24798,-1.13192l0.7203,43.83599l-31.89942,-0.92612l0.41161,-36.32419l26.75436,-5.76247z" fill="#676e5a" stroke="#000000" stroke-width="0" stroke-linecap="round"/><path d="M134.29599,180.12629l1.44062,41.67507h-18.31644l0.30869,-37.55902z" fill="#19231a" stroke="#000000" stroke-width="0" stroke-linecap="round"/><path d="M68.02749,232.27156l-33.13424,-2.26384l1.02902,-42.57544l30.253,-7.92339z" fill="#676e5a" stroke="#000000" stroke-width="0" stroke-linecap="round"/><path d="M58.56058,181.54117l1.64641,50.52458l-19.55125,-1.23483l1.33771,-45.27661z" fill="#19231a" stroke="#000000" stroke-width="0" stroke-linecap="round"/><path d="M27.97315,229.39032l-14.40619,-0.82322l0.33443,-24.49053l13.78879,-2.26383z" fill="#676e5a" stroke="#000000" stroke-width="0" stroke-linecap="round"/><path d="M27.56151,202.43016l0.3087,27.26887l-10.39305,-0.82322l0.72032,-25.51955z" fill="#19231a" stroke="#000000" stroke-width="0" stroke-linecap="round"/><path d="M594.30069,192.44874l47.74625,-0.82322l-1.02902,2.98413l-47.21174,0.6174z" fill="#b8afa7" stroke="#000000" stroke-width="0" stroke-linecap="round"/><path d="M543.21016,189.46459l-1.54352,-2.67542l62.0238,-0.61741l-2.46965,3.18994l-53.81742,0.10289z" fill="#b8afa7" stroke="#000000" stroke-width="0" stroke-linecap="round"/><path d="M547.58348,195.12417l-18.57371,0.1029l0.20581,-1.33773l-61.02052,0.41161l-3.08704,0.41161l-0.10289,-3.08705l68.12072,0.5145l3.49865,0.51451l11.01045,-0.41161z" fill="#b8afa7" stroke="#000000" stroke-width="0" stroke-linecap="round"/><path d="M447.20317,186.27464l-14.09749,0.2058l-21.09478,0.3087l-4.42478,0.41161l0.10291,-3.39574h45.35377l-2.67543,4.52766h19.34547l0.10289,3.29285l-4.11605,0.2058l-3.18995,-0.61742l-15.84679,0.1029z" fill="#b8afa7" stroke="#000000" stroke-width="0" stroke-linecap="round"/><path d="M373.037,176.03596l40.44025,-1.54352l-0.82321,2.36674l-38.17643,2.05802z" fill="#b8afa7" stroke="#000000" stroke-width="0" stroke-linecap="round"/><path d="M378.07917,186.53191l-30.15011,1.02902l-0.92612,-2.77833l30.56171,-1.02902z" fill="#b8afa7" stroke="#000000" stroke-width="0" stroke-linecap="round"/><path d="M351.29908,194.9698l-31.07622,-0.5145l-56.75012,-0.2058l0.41161,-3.29284l57.4447,0.92611l30.15012,-0.2058z" fill="#b8afa7" stroke="#000000" stroke-width="0" stroke-linecap="round"/><path d="M192.9024,183.3934l-37.45609,-12.03945l-54.53772,13.17137l-30.56172,-13.99457l-49.18686,15.7439l-3.08704,-3.60154l52.8358,-17.28743l30.89614,15.07504l52.20652,-13.99459l39.23116,14.30331l8.54081,-0.92611l68.22363,3.29284l-1.74935,2.57253l-68.94391,-2.98413l-5.65958,1.02902z" fill="#b8afa7" stroke="#000000" stroke-width="0" stroke-linecap="round"/><path d="M28.7747,194.50675l-26.54856,5.24799l-1.95513,-2.67543l28.2979,-5.86539z" fill="#b8afa7" stroke="#000000" stroke-width="0" stroke-linecap="round"/><path d="M594.53867,192.68027l0.1029,-3.39575l6.89438,-0.3087l1.95515,-2.77833l-61.74083,0.51451l1.23481,2.77833l4.52765,-0.3087v2.98413l-10.80464,0.61741l-3.49865,-0.61741l-63.25862,-0.61741l0.1029,-2.98413l-19.65416,-0.41161l2.26382,-4.32184l-44.55629,0.1029l-0.20581,-6.8944l4.73345,-0.2058l0.92612,-2.46965l-40.28588,1.85223l1.13192,2.88125l2.98413,-0.5145l0.10289,5.35086l-30.56171,1.2348l1.13192,2.26384h3.39576l0.41161,4.63058l-42.90989,-0.6174l-45.22515,-0.2058l0.51451,-5.55667l3.60154,0.10289l2.36675,-2.67543l-68.53232,-3.2414l-8.23212,0.92611l-39.35978,-14.40618l-51.99092,14.30329l-30.97333,-14.94643l-52.9942,16.87584l56.54432,-48.51799l44.14468,20.01431l36.42709,-12.03944l33.64874,15.74391l14.09749,0.5145l4.32187,-8.74663l113.34587,16.56712l9.00386,-6.48278l10.90754,2.57253l1.02901,-0.72031l31.28202,-2.46964l7.2031,-6.17408l21.60929,-2.05801l1.2348,-0.61741l8.7466,-6.48279l13.27429,-1.44062l3.29285,2.67543l36.34991,-5.04217l15.0236,10.80465l42.60118,-4.21895l10.18724,5.45377l23.46151,-1.74932l18.31644,9.05532l12.45105,-0.7203l55.25806,33.13423z" fill="#80715f" stroke="#b8afa7" stroke-width="0" stroke-linecap="round"/><path d="M0.52549,197.388l42.47256,-43.34722l16.59284,-6.74004l-41.16057,35.19229l2.88124,4.39903l7.10019,-3.08703v7.20309z" fill="#80715f" stroke="#000000" stroke-width="0" stroke-linecap="round"/><path d="M352.22024,167.41061c0.70559,-0.63155 1.49138,-1.00187 2.30924,-1.70915c2.52042,-2.17962 5.40859,-3.84595 8.51411,-4.91182c-0.0177,0.08128 -0.01955,0.17635 -0.00006,0.28644c0.1144,0.64628 0.7654,0.53504 0.7654,0.53504l0.47939,-0.1312c0.51433,-0.32261 3.40496,-1.24892 4.49475,-2.28029c0.42497,4.52438 -1.66623,9.32495 -4.58299,12.55153c-2.93163,0.87847 -7.36455,3.33891 -10.58656,2.35522c-1.50329,-0.45897 -3.82611,-2.29389 -4.42806,-3.75196c-0.13188,-0.31945 1.67284,-1.61262 2.19293,-2.02129c0.09305,0.03055 0.20598,0.04071 0.34267,0.01652c0.64628,-0.11441 0.5315,-0.76483 0.5315,-0.76483c-0.01036,-0.05761 -0.02115,-0.1164 -0.03227,-0.17419z" data-paper-data="{&quot;noHover&quot;:false,&quot;origItem&quot;:[&quot;Path&quot;,{&quot;applyMatrix&quot;:true,&quot;segments&quot;:[[[740.42457,285.73333],[-0.00037,-0.13379],[0,0]],[[738.92457,287.23333],[1.5,0],[-0.31723,0]],[[738.15996,287.06044],[0.19724,0.1058],[-1.33324,0.71246]],[[732.41901,290.71952],[-0.16953,-0.77143],[0.77381,3.52117]],[[740.86734,300.87526],[-3.20027,-1.63178],[6.8592,3.49742]],[[765.4934,299.77608],[-6.94757,0.80904],[7.84953,-6.09934]],[[780.78185,273.48613],[-0.84609,10.35137],[-2.86344,1.88692]],[[769.76737,276.84033],[1.28599,-0.5211],[0,0]],[768.63886,276.94762],[[767.13886,275.44762],[0,1.5],[0,-0.2555]],[[767.25459,274.80426],[-0.07222,0.17587],[-7.41354,1.16151]],[[746.2883,282.43558],[6.54047,-3.90111],[-2.12234,1.26589]],[[740.42095,285.33087],[1.83951,-1.14022],[0.00203,0.13451]]],&quot;closed&quot;:true}],&quot;index&quot;:null}" fill="#ffffff" stroke="#000000" stroke-width="0" stroke-linecap="butt"/><path d="M337.71854,166.04028c1.60273,1.07729 3.40502,1.53883 5.05403,2.69181c0.57956,0.40524 1.15862,0.81735 1.73817,1.22257c0.35192,0.24607 1.5368,0.31234 1.1712,0.53759c-1.6379,1.00904 -2.85704,2.50078 -4.45028,3.55479c-3.46643,2.29324 -7.49627,1.99884 -10.21915,-1.02213c-2.21173,-2.03528 -3.33332,-5.59168 -3.61437,-8.60155c3.54935,-2.97067 6.8766,-0.69786 10.32038,1.61692z" data-paper-data="{&quot;noHover&quot;:false,&quot;origItem&quot;:[&quot;Path&quot;,{&quot;applyMatrix&quot;:true,&quot;segments&quot;:[[[685.73262,268.76059],[9.17126,-5.27144],[-0.56664,6.88563]],[[690.4474,289.4565],[-4.16662,-5.46149],[4.92425,7.88341]],[[712.89857,295.78601],[-8.71477,3.77991],[4.00547,-1.73732]],[[724.28682,289.60961],[-4.08805,1.61826],[0.91252,-0.36122]],[[721.86391,287.93685],[0.69397,0.69397],[-1.14286,-1.14286]],[[718.43534,284.50828],[1.14286,1.14286],[-3.25175,-3.25175]],[[708.18367,276.54126],[3.17772,3.06293],[-6.82799,-6.58135]]],&quot;closed&quot;:true}],&quot;index&quot;:null}" fill="#ffffff" stroke="#000000" stroke-width="0" stroke-linecap="butt"/><path d="M364.11021,168.30678c-0.69295,-1.02009 -0.54135,-2.56495 0.3665,-3.07008c0.2235,-0.28105 0.52985,-0.3759 0.92742,-0.14708c0.18372,0.02664 0.38162,0.08183 0.59344,0.16976c3.01371,1.25093 -0.25286,5.0539 -1.55362,3.79304c-0.14636,-0.14186 -0.25882,-0.41071 -0.33373,-0.74563z" data-paper-data="{&quot;index&quot;:null}" fill="#000000" stroke="none" stroke-width="0" stroke-linecap="butt"/><path d="M341.06542,171.73694c-0.69295,-1.02009 -0.54135,-2.56495 0.36649,-3.07008c0.2235,-0.28105 0.52985,-0.3759 0.92742,-0.14707c0.18372,0.02664 0.38162,0.08181 0.59343,0.16975c3.01371,1.25093 -0.25286,5.05391 -1.55362,3.79304c-0.14636,-0.14186 -0.25882,-0.41071 -0.33373,-0.74563z" data-paper-data="{&quot;index&quot;:null}" fill="#000000" stroke="none" stroke-width="0" stroke-linecap="butt"/><path d="M345.00163,163.61855c0.10359,0.1438 0.23401,0.27619 0.37765,0.39298l0.20703,0.02588c0.25005,0.02758 0.44456,0.23956 0.44456,0.49696c0,0.15574 -0.07121,0.29486 -0.18284,0.38656l-0.47303,0.39419l-0.00871,-0.01045l-0.0262,0.03704c-0.52065,0.29923 -2.009,1.46582 -2.54077,1.51517c-1.04935,0.09738 -2.59475,-3.13112 -3.3713,-3.91509c-1.09993,-1.76995 -3.4391,-2.77742 -5.12267,-3.94162c-2.79635,-1.93369 -4.7572,-4.62645 -7.41046,-6.63595c-5.29178,-1.68422 -9.95817,-4.64932 -11.86712,-9.98887l-0.07283,0.03361l-0.4146,-0.8983c-0.03233,-0.06618 -0.05048,-0.14057 -0.05048,-0.21919c0,-0.27614 0.22386,-0.5 0.5,-0.5c0.04574,0 0.09005,0.00614 0.13215,0.01765l0.62374,0.15594l-0.00711,0.02842l0.0933,0.00172c0.47768,0.32898 2.22673,1.54052 3.52301,2.59838c-1.02581,-1.71864 -1.98306,-3.49296 -2.85595,-5.27823c-0.29232,-0.59787 -1.17512,-2.51542 -0.45293,-3.14106c0.62705,-0.54322 3.67916,1.36173 4.24464,1.62443c2.98378,1.60505 6.44715,2.55271 9.32639,4.22994c2.6284,1.53111 4.47819,4.83637 6.23836,7.2178c3.38182,4.57544 6.08683,8.79336 8.48404,13.80909c0.42213,0.04901 0.42213,0.49565 0.42213,0.49565v0.39664c0,0.00206 0,0.00412 0.00001,0.00618c0.0646,0.13986 0.12898,0.28036 0.19315,0.42154c0,0 0.04917,0.10816 0.04684,0.24301z" fill="#000000" stroke="none" stroke-width="0.5" stroke-linecap="butt"/><path d="M363.55139,141.69211c-0.00556,-0.00687 -0.01109,-0.01396 -0.01659,-0.02129c-0.3,-0.4 0.1,-0.7 0.1,-0.7l0.3937,-0.2852c0.81149,-0.39988 3.18169,-3.18608 4.06128,-2.45098c0.3472,0.29016 -0.1728,2.17448 -0.08851,2.62295c0.06871,0.36554 0.43033,0.38471 0.87243,0.31421l-0.03846,-0.34615l0.98666,-0.10963c0.02045,-0.00255 0.04129,-0.00386 0.06244,-0.00386c0.27614,0 0.5,0.22386 0.5,0.5c0,0.10506 -0.03241,0.20256 -0.08777,0.28304l-0.31352,0.47028l-0.00829,-0.00552l-0.01073,0.03213c-0.13558,0.15495 -0.28107,0.31258 -0.441,0.4489c1.16259,-0.08281 3.24026,-0.37856 3.39901,1.01999c0.05782,0.50936 -2.68001,2.56985 -3.09325,2.88258c-2.35224,1.77419 -4.89541,3.46355 -7.14965,5.31801c-2.19493,1.80568 -3.51863,5.0153 -5.22514,7.21914c-1.55098,1.69825 -3.42853,3.05789 -5.05871,4.73186c-0.34812,0.35747 -1.17938,1.34544 -1.54175,1.33735c-0.79222,-0.01768 -0.67188,-2.09721 -0.32927,-2.95941c-0.16614,0.19046 -0.37132,0.40209 -0.50039,0.49299c-0.16404,0.11553 -0.3328,0.22405 -0.50472,0.32764l0.01431,0.01431l-0.55529,0.55529c-0.09048,0.09048 -0.21548,0.14645 -0.35355,0.14645c-0.27614,0 -0.5,-0.22386 -0.5,-0.5c0,-0.06704 0.01319,-0.131 0.03713,-0.18942l0.23575,-0.61603l0.01089,0.00417l0.00155,-0.03377c1.78877,-3.32957 3.45991,-6.43647 4.66091,-10.03889c1.57577,-4.31993 6.53571,-7.54436 10.48054,-10.46112z" fill="#000000" stroke="none" stroke-width="0.5" stroke-linecap="butt"/><path d="M382.75851,181.20367c0.17556,0.46816 -0.2926,0.64373 -0.2926,0.64373l-0.51708,0.19381c-0.22391,0.07387 -0.44635,0.15202 -0.66747,0.23401c-0.15622,0.98324 -0.41343,1.98234 -0.77897,2.9953c-2.13274,5.90632 -4.30366,13.73468 -11.58117,14.58219c-5.89739,1.8115 -12.01075,3.31564 -18.22282,3.31521c-6.83347,-0.22726 -13.34229,-1.01111 -19.88769,-3.14152c-7.11121,-2.31574 -9.40085,-8.40471 -11.49745,-14.85075c-0.05166,-0.06627 -0.1024,-0.13335 -0.15219,-0.20128c0,0 -0.16965,-0.23751 -0.06824,-0.47922c-0.0316,-0.09785 -0.0632,-0.19575 -0.09481,-0.2937c-1.62202,-5.03316 0.57792,-9.05548 3.63258,-12.71953c-0.15514,-0.52814 -0.28028,-1.01459 -0.37333,-1.43297l-0.01191,-0.17201c0,0 0,-0.5 0.5,-0.5c0.5,0 0.5,0.5 0.5,0.5l-0.01191,-0.04492c0.05266,0.23717 0.11249,0.48403 0.17921,0.73833c0.28599,-0.32488 0.57691,-0.6473 0.87057,-0.96773c0,0 0.33786,-0.36858 0.70644,-0.03071c0.36858,0.33786 0.03071,0.70644 0.03071,0.70644c-0.43284,0.47209 -0.86139,0.94831 -1.27715,1.43058c0.76396,2.40558 2.04246,5.14089 3.65599,6.6279c1.03744,0.95609 3.4784,0.74562 4.80555,0.89309c6.03577,0.64668 12.25599,1.0249 18.22543,2.03231c5.25499,-0.01687 13.07503,-0.39194 17.03442,-4.31339c1.22067,-2.27948 2.68573,-5.26096 3.0318,-7.82295c0.11292,-0.83595 -0.08582,-3.00779 0.7278,-3.55072c1.24633,-0.83169 3.64969,1.36324 4.47279,2.02277c3.88609,3.88195 6.14106,8.49912 5.71862,13.56892c0.06635,-0.02312 0.13284,-0.04589 0.19946,-0.0683l0.49969,-0.18748c0,0 0.46816,-0.17556 0.64373,0.2926zM371.11611,187.42935c-5.35804,2.29219 -11.12154,1.98939 -16.81465,2.55702c-6.49432,0.64224 -12.99064,2.3601 -19.50327,0.97305c-4.21211,-0.55492 -10.19979,-1.255 -13.9151,-4.21154c1.84308,5.42087 4.16386,10.34991 10.23724,12.32768c6.45209,2.10217 12.85936,2.86748 19.59471,3.09252c6.13125,-0.00043 12.18052,-1.5002 17.99985,-3.29384c6.87312,-0.81655 8.83321,-8.36665 10.84692,-13.94333c0.27013,-0.74762 0.47731,-1.48647 0.62494,-2.21585c-3.10702,1.34019 -5.99151,3.32463 -9.07065,4.7143zM334.96806,189.97395c6.40261,1.38073 12.84712,-0.34397 19.23444,-0.98267c5.5791,-0.55345 11.26434,-0.23126 16.5117,-2.4776c3.28218,-1.47232 6.32803,-3.59533 9.65781,-4.95182c0.58773,-4.95054 -1.56161,-9.4341 -5.34191,-13.21879c-0.41264,-0.32956 -2.64787,-2.33599 -3.28014,-1.91724c-0.32482,0.21513 -0.3044,3.34991 -0.42342,3.86749c-0.53898,2.34383 -1.89314,5.15018 -3.06152,7.25503c-4.19472,4.22666 -12.27978,4.72616 -17.91728,4.7105c-5.98722,-0.98621 -12.20169,-1.38661 -18.25144,-2.0348c-1.38479,-0.15386 -3.13825,-0.0725 -4.43495,-0.59802c-2.07889,-0.84252 -3.71805,-4.21258 -4.67263,-7.01518c-2.63405,3.25643 -4.47389,6.83131 -3.03892,11.2839c0.08891,0.27624 0.1776,0.55233 0.26647,0.82794c3.08364,3.96229 10.34006,4.67607 14.75178,5.25128z" fill="#000000" stroke="none" stroke-width="0.5" stroke-linecap="butt"/><path d="M380.23427,182.69946c-0.14763,0.72938 -0.35392,1.47129 -0.62405,2.21891c-2.01371,5.57668 -3.97507,13.15599 -10.84819,13.97254c-5.81933,1.79364 -11.91482,3.32672 -18.04606,3.32715c-6.73535,-0.22503 -13.19086,-1.02417 -19.64295,-3.12634c-6.07338,-1.97777 -8.39595,-6.93241 -10.23903,-12.35328c3.71531,2.95654 9.70231,3.66136 13.91442,4.21628c6.51263,1.38705 13.10061,-0.35343 19.59493,-0.99567c5.69311,-0.56763 11.36615,-0.22569 16.72418,-2.51788c3.07914,-1.38967 6.05972,-3.40152 9.16674,-4.74171z" data-paper-data="{&quot;noHover&quot;:false,&quot;origItem&quot;:[&quot;Path&quot;,{&quot;applyMatrix&quot;:true,&quot;segments&quot;:[[[371.11611,187.42934],[3.07914,-1.38967],[-5.35804,2.29219]],[[354.30146,189.98636],[5.69311,-0.56763],[-6.49432,0.64224]],[[334.79819,190.95941],[6.51263,1.38705],[-4.21211,-0.55492]],[[320.88309,186.74787],[3.71531,2.95654],[1.84308,5.42087]],[[331.12034,199.07555],[-6.07338,-1.97777],[6.45209,2.10217]],[[350.71504,202.16807],[-6.73535,-0.22503],[6.13125,-0.00043]],[[368.7149,198.87423],[-5.81933,1.79364],[6.87312,-0.81655]],[[379.56182,184.93089],[-2.01371,5.57668],[0.27013,-0.74762]],[[380.18676,182.71505],[-0.14763,0.72938],[-3.10702,1.34019]]],&quot;closed&quot;:true}]}" fill="#ffffff" stroke="none" stroke-width="0.5" stroke-linecap="butt"/><path d="M320.16735,184.73301c-0.08887,-0.27561 -0.17783,-0.55308 -0.26675,-0.82933c-1.43497,-4.45259 0.40519,-8.04698 3.03924,-11.3034c0.95458,2.8026 2.69253,6.18053 4.77143,7.02306c1.2967,0.52552 3.04999,0.44183 4.43477,0.5957c6.04974,0.64819 12.2094,1.00384 18.19662,1.99005c5.63751,0.01566 13.67769,-0.43168 17.87241,-4.65835c1.16838,-2.10485 2.52576,-4.89581 3.06474,-7.23964c0.11902,-0.51757 0.10153,-3.64603 0.42635,-3.86115c0.63226,-0.41874 2.95768,1.54489 3.37031,1.87445c3.7803,3.7847 5.93299,8.29203 5.34526,13.24258c-3.32978,1.35649 -6.37877,3.49253 -9.66095,4.96484c-5.24736,2.24634 -10.96055,1.9524 -16.53965,2.50585c-6.38732,0.6387 -12.89009,2.34751 -19.2927,0.96678c-4.41172,-0.57522 -11.67744,-1.30916 -14.76108,-5.27144z" data-paper-data="{&quot;noHover&quot;:false,&quot;origItem&quot;:[&quot;Path&quot;,{&quot;applyMatrix&quot;:true,&quot;segments&quot;:[[[334.96806,189.97394],[-4.41172,-0.57522],[6.40261,1.38073]],[[354.20249,188.99127],[-6.38732,0.6387],[5.5791,-0.55345]],[[370.7142,186.51367],[-5.24736,2.24634],[3.28218,-1.47232]],[[380.372,181.56185],[-3.32978,1.35649],[0.58773,-4.95054]],[[375.03009,168.34305],[3.7803,3.7847],[-0.41264,-0.32956]],[[371.74996,166.42581],[0.63226,-0.41874],[-0.32482,0.21513]],[[371.32653,170.2933],[0.11902,-0.51757],[-0.53898,2.34383]],[[368.26501,177.54832],[1.16838,-2.10485],[-4.19472,4.22666]],[[350.34773,182.25882],[5.63751,0.01566],[-5.98722,-0.98621]],[[332.0963,180.22402],[6.04974,0.64819],[-1.38479,-0.15386]],[[327.66135,179.626],[1.2967,0.52552],[-2.07889,-0.84252]],[[322.98872,172.61082],[0.95458,2.8026],[-2.63405,3.25643]],[[319.9498,183.89472],[-1.43497,-4.45259],[0.08891,0.27624]],[[320.21627,184.72266],[-0.08887,-0.27561],[3.08364,3.96229]]],&quot;closed&quot;:true}]}" fill="#ffffff" stroke="none" stroke-width="0.5" stroke-linecap="butt"/></g></g></svg>