<svg version="1.1" xmlns="http://www.w3.org/2000/svg" xmlns:xlink="http://www.w3.org/1999/xlink" width="246.48409" height="167.28349" viewBox="0,0,246.48409,167.28349"><g transform="translate(-196.75797,-96.35827)"><g data-paper-data="{&quot;isPaintingLayer&quot;:true}" fill-rule="nonzero" stroke-linecap="butt" stroke-linejoin="miter" stroke-miterlimit="10" stroke-dasharray="" stroke-dashoffset="0" style="mix-blend-mode: normal"><path d="M196.75798,263.64176v-167.28349h246.48409v167.28349z" fill="none" stroke="#000000" stroke-width="0"/><path d="M334.32984,198.14018c2.8617,2.76052 4.74425,8.07894 2.13428,11.80991c-1.57881,2.25691 -5.19733,3.87873 -7.2604,5.72201c-5.39373,4.81912 -8.91226,9.99269 -15.76924,12.89741c-4.76451,0.81675 -9.41528,2.93212 -14.20735,3.89288c-3.82984,0.76784 -7.65361,0.31083 -11.49913,0.65059c-6.38702,0.5643 -12.61947,0.13028 -18.71465,-1.89603c-7.42295,-2.5144 -14.02829,-8.39782 -16.52636,-16.07613c-0.73042,-2.24508 0.32977,-4.70634 0.81749,-7.08858c-1.1882,-0.42116 -2.29666,-0.98694 -3.27574,-1.74514c-2.05844,-1.59407 -1.30769,-3.26338 -0.90552,-5.25178c0.49462,-2.44546 1.38267,-4.67537 2.83618,-6.1673c-0.52788,-0.11892 -1.05948,-0.22389 -1.59573,-0.31148l-0.01955,0.01645c0,0 -1.25,0 -1.25,-1.25c0,-1.25 1.25,-1.25 1.25,-1.25l0.42381,0.01645c1.46649,0.24102 2.89742,0.6073 4.31198,1.03207c1.02688,-0.22022 2.20338,-0.20641 3.54787,0.0972c0,0 1.11988,0.27997 0.93824,1.37801c1.92415,0.65026 3.85603,1.27678 5.84537,1.70677c3.75395,0.8114 8.07221,1.0749 11.92943,1.10191c5.92734,1.69352 11.48425,-0.10848 17.33176,-1.09927c8.32465,-1.41051 16.38018,-3.65087 24.90922,-3.50039c2.44242,0.37367 7.19107,0.64156 7.18058,4.18814c2.62351,-0.35934 4.83158,0.28247 7.56747,1.1263zM254.77774,204.83961c1.07302,0 1.22494,0.9211 1.24645,1.18193c3.49259,0.81653 7.15229,0.69691 10.81923,0.71744c3.81349,1.22216 5.30873,2.40202 6.43819,6.32897c0.31584,1.09814 0.35212,4.16215 1.55933,5.01079c1.89788,1.33418 4.92137,1.31477 7.08491,1.50687c6.87264,0.61022 13.14432,2.16562 19.88382,-0.49931c3.65975,-2.94874 6.62603,-7.06367 9.03584,-11.07873c1.22184,-2.03575 2.51355,-5.98528 4.35727,-7.45579c0.90668,-0.72315 2.63024,-0.68233 3.6332,-1.05924c1.0389,-0.39042 1.95611,-1.10209 3.03128,-1.37732c0.18645,-0.04773 1.06802,-0.09786 1.70489,-0.31403c0.17516,-0.24437 0.42714,-0.369 0.63861,-0.43256c0.02575,-0.05305 0.03993,-0.11019 0.04048,-0.17179c0.01612,-1.81399 -3.99444,-1.74283 -4.88113,-1.88008c-8.30001,-0.13376 -16.13034,2.13988 -24.23892,3.46695c-6.10631,0.99937 -11.94501,2.8867 -18.1371,1.11753c-3.86724,0.0339 -8.23369,-0.32366 -12.01205,-1.11489c-3.42952,-0.71818 -6.68711,-2.0553 -10.02466,-3.08604l-0.00001,-0.00001c-2.03036,0.83961 -2.90731,3.43513 -3.39233,5.89134c-0.13051,0.6609 -1.05985,2.15016 -0.0188,2.72871c0.72575,0.40332 1.46285,0.73921 2.20964,1.01895c0.17406,-0.26559 0.48091,-0.49969 1.02186,-0.49969zM254.69261,213.29564c-0.20315,1.76938 1.89611,4.70708 2.86723,6.02151c3.42242,4.63233 6.69544,7.71482 12.24409,9.52808c5.77028,1.92819 11.65765,2.30318 17.70582,1.77729c3.75129,-0.32618 7.49533,0.1332 11.22697,-0.61156c4.71966,-0.94194 9.29735,-3.02529 13.98813,-3.83862c6.39007,-2.77415 9.75141,-7.82363 14.81129,-12.3628c2.00668,-1.80018 5.30278,-3.27115 6.9385,-5.37336c1.75079,-2.25009 0.21508,-6.40941 -1.41261,-8.14132c-2.62519,-0.66592 -4.54127,-1.33162 -7.22486,-0.54047l-0.9201,0.03597c-1.62179,0.98946 -3.9209,1.56288 -5.1796,2.03398c-0.96795,0.36228 -2.21211,0.06614 -3.01721,0.7142c-1.42956,1.15072 -2.7552,5.13194 -3.73165,6.75631c-2.65038,4.40903 -5.88588,8.74196 -9.92024,11.95146c-3.91839,1.58137 -8.86382,2.3933 -13.11093,2.16329c-2.75837,-0.14939 -5.47285,-1.09275 -8.2378,-1.33252c-2.59348,-0.2249 -6.23072,-0.32922 -8.43271,-2.04001c-2.89208,-2.24695 -1.40784,-6.92224 -3.71024,-9.46619c-0.70128,-0.77486 -2.29572,-1.09596 -3.12044,-1.36208c-3.22226,0.02107 -7.17488,0.20731 -10.75117,-0.50626c-0.33365,1.53269 -0.83069,3.00984 -1.01247,4.5931z" fill="#000000" stroke="none" stroke-width="0.5"/><path d="M255.65573,208.69448c3.57629,0.71357 7.5293,0.52525 10.75156,0.50418c0.82472,0.26612 2.51734,0.60618 3.21862,1.38104c2.3024,2.54395 0.8177,7.19936 3.70978,9.44631c2.20199,1.71079 5.83473,1.80292 8.42821,2.02782c2.76495,0.23977 5.46101,1.16359 8.21938,1.31298c4.24711,0.23001 9.12682,-0.56928 13.04521,-2.15065c4.03436,-3.2095 7.26216,-7.4969 9.91254,-11.90593c0.97645,-1.62437 2.30638,-5.59593 3.73594,-6.74665c0.8051,-0.64806 2.1366,-0.40059 3.10455,-0.76287c1.2587,-0.4711 3.55826,-1.04366 5.18005,-2.03312l0.92035,-0.03547c2.68359,-0.79115 4.6015,-0.1213 7.22669,0.54462c1.62769,1.73191 3.1661,5.90102 1.41531,8.15111c-1.63572,2.10221 -4.93116,3.57951 -6.93784,5.37969c-5.05988,4.53917 -8.42873,9.61708 -14.8188,12.39123c-4.69078,0.81333 -9.29864,2.91873 -14.0183,3.86067c-3.73164,0.74476 -7.50962,0.28197 -11.26091,0.60815c-6.04817,0.52589 -11.95777,0.12979 -17.72805,-1.7984c-5.54865,-1.81326 -8.82747,-4.91412 -12.24989,-9.54645c-0.97112,-1.31443 -3.07064,-4.25997 -2.86749,-6.02935c0.18178,-1.58326 0.67942,-3.06621 1.01307,-4.5989z" data-paper-data="{&quot;noHover&quot;:false,&quot;origItem&quot;:[&quot;Path&quot;,{&quot;applyMatrix&quot;:true,&quot;segments&quot;:[[[254.69261,213.29564],[0.18178,-1.58326],[-0.20315,1.76938]],[[257.55984,219.31716],[-0.97112,-1.31443],[3.42242,4.63233]],[[269.80392,228.84524],[-5.54865,-1.81326],[5.77028,1.92819]],[[287.50974,230.62253],[-6.04817,0.52589],[3.75129,-0.32618]],[[298.73672,230.01097],[-3.73164,0.74476],[4.71966,-0.94194]],[[312.72484,226.17235],[-4.69078,0.81333],[6.39007,-2.77415]],[[327.53613,213.80955],[-5.05988,4.53917],[2.00668,-1.80018]],[[334.47463,208.43619],[-1.63572,2.10221],[1.75079,-2.25009]],[[333.06202,200.29487],[1.62769,1.73191],[-2.62519,-0.66592]],[[325.83717,199.7544],[2.68359,-0.79115],[0,0]],[[324.91706,199.79037],[0,0],[-1.62179,0.98946]],[[319.73747,201.82435],[1.2587,-0.4711],[-0.96795,0.36228]],[[316.72026,202.53855],[0.8051,-0.64806],[-1.42956,1.15072]],[[312.98861,209.29486],[0.97645,-1.62437],[-2.65038,4.40903]],[[303.06837,221.24632],[4.03436,-3.2095],[-3.91839,1.58137]],[[289.95744,223.40961],[4.24711,0.23001],[-2.75837,-0.14939]],[[281.71964,222.07709],[2.76495,0.23977],[-2.59348,-0.2249]],[[273.28693,220.03708],[2.20199,1.71079],[-2.89208,-2.24695]],[[269.57669,210.57089],[2.3024,2.54395],[-0.70128,-0.77486]],[[266.45625,209.20881],[0.82472,0.26612],[-3.22226,0.02107]],[[255.70508,208.70255],[3.57629,0.71357],[-0.33365,1.53269]]],&quot;closed&quot;:true,&quot;fillColor&quot;:[0,0,0,1]}]}" fill="#fff69c" stroke="none" stroke-width="0.5"/><path d="M253.70603,205.33547c-0.74679,-0.27974 -1.48379,-0.61679 -2.20954,-1.02011c-1.04105,-0.57855 -0.1112,-2.07148 0.01931,-2.73238c0.48502,-2.45621 1.36439,-5.0606 3.39475,-5.90021l0.00001,0.00001c3.33755,1.03074 6.59561,2.36666 10.02513,3.08484c3.77836,0.79123 8.15127,1.1374 12.01851,1.1035c6.19209,1.76917 12.10229,-0.12678 18.2086,-1.12615c8.10858,-1.32707 15.95376,-3.58047 24.25377,-3.44671c0.88669,0.13725 4.89877,0.0705 4.88265,1.88449c-0.00055,0.0616 -0.01467,0.11893 -0.04042,0.17198c-0.21147,0.06356 -0.46336,0.1885 -0.63852,0.43287c-0.63687,0.21617 -1.5185,0.26608 -1.70495,0.31381c-1.07517,0.27523 -1.99218,0.98762 -3.03108,1.37804c-1.00296,0.37691 -2.72649,0.33621 -3.63317,1.05936c-1.84372,1.47051 -3.13372,5.43313 -4.35556,7.46888c-2.40981,4.01506 -5.38679,8.16078 -9.04654,11.10952c-6.7395,2.66493 -13.07257,1.12347 -19.94521,0.51325c-2.16354,-0.1921 -5.20417,-0.18654 -7.10205,-1.52072c-1.20721,-0.84864 -1.25137,-3.92689 -1.56721,-5.02503c-1.12946,-3.92695 -2.62751,-5.12649 -6.441,-6.34865c-3.66694,-0.02053 -7.32663,0.09895 -10.81922,-0.71758c-0.02151,-0.26083 -0.1733,-1.1836 -1.24632,-1.1836c-0.54095,0 -0.84787,0.23497 -1.02193,0.50056z" data-paper-data="{&quot;noHover&quot;:false,&quot;origItem&quot;:[&quot;Path&quot;,{&quot;applyMatrix&quot;:true,&quot;segments&quot;:[[[254.77772,204.8396],[-0.54095,0],[1.07302,0]],[[256.02417,206.02153],[-0.02151,-0.26083],[3.49259,0.81653]],[[266.8434,206.73897],[-3.66694,-0.02053],[3.81349,1.22216]],[[273.28159,213.06794],[-1.12946,-3.92695],[0.31584,1.09814]],[[274.84092,218.07873],[-1.20721,-0.84864],[1.89788,1.33418]],[[281.92583,219.5856],[-2.16354,-0.1921],[6.87264,0.61022]],[[301.80965,219.08629],[-6.7395,2.66493],[3.65975,-2.94874]],[[310.84549,208.00756],[-2.40981,4.01506],[1.22184,-2.03575]],[[315.20276,200.55177],[-1.84372,1.47051],[0.90668,-0.72315]],[[318.83596,199.49253],[-1.00296,0.37691],[1.0389,-0.39042]],[[321.86724,198.11521],[-1.07517,0.27523],[0.18645,-0.04773]],[[323.57213,197.80118],[-0.63687,0.21617],[0.17516,-0.24437]],[[324.21074,197.36862],[-0.21147,0.06356],[0.02575,-0.05305]],[[324.25122,197.19683],[-0.00055,0.0616],[0.01612,-1.81399]],[[319.37009,195.31675],[0.88669,0.13725],[-8.30001,-0.13376]],[[295.13117,198.7837],[8.10858,-1.32707],[-6.10631,0.99937]],[[276.99407,199.90123],[6.19209,1.76917],[-3.86724,0.0339]],[[264.98202,198.78634],[3.77836,0.79123],[-3.42952,-0.71818]],[[254.95736,195.7003],[3.33755,1.03074],[0,0]],[[254.95735,195.70029],[0,0],[-2.03036,0.83961]],[[251.56502,201.59163],[0.48502,-2.45621],[-0.13051,0.6609]],[[251.54622,204.32034],[-1.04105,-0.57855],[0.72575,0.40332]],[[253.75586,205.33929],[-0.74679,-0.27974],[0.17406,-0.26559]]],&quot;closed&quot;:true,&quot;fillColor&quot;:[0,0,0,1],&quot;strokeWidth&quot;:0.5}]}" fill="#fdfff4" stroke="none" stroke-width="0.25"/><path d="M318.62168,182.11737c0.12111,0 0.23049,0.01173 0.32927,0.03293c0.50942,-1.71793 1.19359,-3.33721 1.47759,-5.14993c0.13474,-0.86002 0.29179,-1.76263 0.09202,-2.6099c-0.14122,-0.59894 -0.95941,-1.16806 -0.67994,-1.7163c0.52116,-1.02237 1.70667,-1.54823 2.66548,-2.17874c0.407,-0.26764 1.36486,-0.1579 1.31265,-0.64221c-0.53772,-4.98793 -2.25502,-12.18402 0.63496,-16.6627c0.57624,-0.84017 2.12477,-3.68978 3.78118,-2.65815c0.38907,0.24232 1.52663,5.85217 1.91446,6.77863c1.51042,3.60811 2.39453,6.67786 3.41346,10.40016c0.45189,1.65082 1.55638,2.8672 1.81441,4.62051c0.71918,4.88687 -4.16675,9.57275 -8.19514,11.04452c-2.96547,1.45787 -5.64906,3.75268 -8.93272,4.31111l-1.47332,0.42095c-0.11726,0.03641 -0.24192,0.05603 -0.37116,0.05603c-0.69036,0 -1.25,-0.55964 -1.25,-1.25c0,-0.18469 0.04006,-0.36003 0.11195,-0.5178l0.65416,-1.52636l0.46275,0.19832c0.38313,-0.71852 0.87888,-1.35972 1.5114,-1.83149l-0.52345,0.13045c0,0 0,-1.25 1.25,-1.25zM321.1477,183.53575c0.41977,-0.32738 0.89746,-0.68109 1.53715,-1.04756c1.09563,-0.62767 2.38396,-0.85059 3.51539,-1.41114c2.95499,-1.06927 7.31955,-4.63323 6.70112,-8.39863c-0.25543,-1.55523 -1.31041,-2.74766 -1.73248,-4.2467c-0.75118,-2.6679 -1.0426,-5.3877 -2.23039,-7.84719c-0.8069,-1.67079 -2.35833,-4.14912 -2.20086,-6.29794c-0.0708,0.09547 -0.14031,0.19159 -0.20383,0.29068c-2.13209,3.05817 -1.05504,9.61789 -0.68287,13.14931c0.09047,0.8584 0.5629,1.70029 0.4311,2.55332c-0.48791,3.15793 -2.82699,1.23199 -4.00236,2.94274c-0.15487,0.22542 0.5672,0.23989 0.65014,0.5005c0.11134,0.34984 0.00941,3.40446 -0.02539,3.6234c-0.3491,2.19675 -1.26028,4.07325 -1.75674,6.18921z" fill="#000000" stroke="none" stroke-width="0.5"/><path d="M321.12897,183.58209c0.49646,-2.11596 1.40429,-3.99396 1.75339,-6.19071c0.0348,-0.21894 0.12626,-3.28046 0.01492,-3.6303c-0.08294,-0.26061 -0.73536,-0.34655 -0.58049,-0.57197c1.17537,-1.71075 3.45278,0.29225 3.94069,-2.86568c0.1318,-0.85303 -0.35169,-1.77355 -0.44216,-2.63195c-0.37217,-3.53142 -1.4154,-10.10603 0.71669,-13.1642c0.06352,-0.09909 0.13376,-0.19523 0.20456,-0.2907c-0.15747,2.14882 1.40608,4.62837 2.21298,6.29916c1.18779,2.45949 1.51784,5.22227 2.26902,7.89017c0.42207,1.49904 1.46942,2.72434 1.72485,4.27957c0.61843,3.7654 -3.79166,7.35216 -6.74665,8.42143c-1.13143,0.56055 -2.43158,0.78119 -3.52721,1.40886c-0.63969,0.36647 -1.12079,0.71895 -1.54056,1.04633z" data-paper-data="{&quot;noHover&quot;:false,&quot;origItem&quot;:[&quot;Path&quot;,{&quot;applyMatrix&quot;:true,&quot;segments&quot;:[[[321.1477,183.53573],[0,0],[0.41977,-0.32738]],[[322.68485,182.48817],[-0.63969,0.36647],[1.09563,-0.62767]],[[326.20024,181.07703],[-1.13143,0.56055],[2.95499,-1.06927]],[[332.90136,172.6784],[0.61843,3.7654],[-0.25543,-1.55523]],[[331.16888,168.4317],[0.42207,1.49904],[-0.75118,-2.6679]],[[328.93849,160.58451],[1.18779,2.45949],[-0.8069,-1.67079]],[[326.73763,154.28657],[-0.15747,2.14882],[-0.0708,0.09547]],[[326.5338,154.57725],[0.06352,-0.09909],[-2.13209,3.05817]],[[325.85093,167.72656],[-0.37217,-3.53142],[0.09047,0.8584]],[[326.28203,170.27988],[0.1318,-0.85303],[-0.48791,3.15793]],[[322.27967,173.22262],[1.17537,-1.71075],[-0.15487,0.22542]],[[322.92981,173.72312],[-0.08294,-0.26061],[0.11134,0.34984]],[[322.90442,177.34652],[0.0348,-0.21894],[-0.3491,2.19675]],[[321.14768,183.53573],[0.49646,-2.11596],[0,0]]],&quot;closed&quot;:true,&quot;fillColor&quot;:[0,0,0,1],&quot;strokeWidth&quot;:0.5}]}" fill="#fdfff4" stroke="none" stroke-width="0.25"/><path d="M292.44033,164.01635c-2.64765,-2.57508 -5.73443,-5.29228 -7.5673,-8.57074c-0.76194,-1.36288 -1.2488,-2.87712 -2.09319,-4.19051c-1.52038,-2.36483 -4.09475,-3.97715 -5.20694,-6.63694c-1.92718,-4.6088 -4.10399,-9.58165 -4.08645,-14.59045c1.54822,-6.94026 6.08067,-12.80038 13.08093,-15.02828c1.24724,-0.39695 2.5923,-0.5304 3.8994,-0.46191c1.6054,0.08412 3.28818,0.11891 4.76263,0.75951c4.49821,1.95434 3.99002,10.13636 2.90553,13.93205c0.03411,3.89152 -0.63409,8.39761 0.35002,12.18165c0.23897,0.91888 3.13624,1.07134 3.74727,1.33273c2.14224,0.91639 2.8133,1.07501 3.77984,3.07865c0.82393,1.70801 1.05362,3.93702 1.06206,6.23326c0.34012,-0.15371 0.84377,-0.22404 1.34743,0.27961c0.88388,0.88388 0,1.76777 0,1.76777l-0.41219,0.37786c-0.44425,0.28164 -0.78125,0.68521 -1.04923,1.15005c-0.02191,0.40677 -0.04471,0.80799 -0.06618,1.20095c0.98387,-0.00895 1.90969,0.07059 2.60923,0.30637c1.69668,0.57187 3.25072,3.29958 4.4547,4.5019c1.40572,1.40379 4.06174,3.66846 3.67765,5.98558c-0.17157,1.03504 -1.29538,1.65097 -1.9616,2.46146c-3.48608,4.241 -8.14777,4.68851 -12.84012,1.89266c-1.17846,-0.93915 -3.3958,-2.24703 -3.81415,-3.78867c-0.21914,-0.80755 -0.12452,-1.45107 0.12338,-2.02456c-2.29906,-0.33048 -4.44823,-1.225 -6.70272,-2.15zM306.79254,159.64759c0,0 0,1.25 -1.25,1.25c-0.19807,0 -0.36475,-0.03138 -0.50502,-0.08421c-0.58652,1.32628 -1.27553,2.6178 -1.9461,3.86933c-0.25242,0.47111 -1.92819,2.19054 -1.66665,2.82591c0.36606,0.88932 2.11975,1.84269 2.83626,2.41838c3.84357,2.32885 6.66236,1.51894 9.52998,-1.48464c0.42991,-0.4503 1.23215,-0.65105 1.38322,-1.25501c0.24763,-0.99002 -2.46545,-3.26035 -2.98411,-3.7797c-0.43651,-0.43709 -2.74297,-3.7167 -3.51445,-3.9106c-0.53583,-0.13468 -1.1883,-0.18205 -1.88102,-0.1751c-0.00138,0.11006 -0.00211,0.21864 -0.00211,0.32565zM304.29382,150.39366c-0.05812,-1.02605 -0.02806,-3.62738 -1.1303,-4.43987c-2.31426,-1.70592 -5.66294,-0.60991 -6.96773,-3.53819c-1.62513,-3.64717 -0.56444,-9.57194 -0.5367,-13.53327c0.71699,-2.50947 1.73938,-10.07808 -1.52807,-11.33951c-1.16627,-0.45025 -2.46825,-0.43187 -3.71622,-0.50584c-1.05147,-0.06232 -2.13405,0.04576 -3.13937,0.36009c-5.98035,1.86983 -9.99582,6.98675 -11.30391,12.90344c0.01815,4.51964 2.1846,9.09863 3.87955,13.28812c1.00663,2.48814 3.57639,4.05146 5.00485,6.27367c0.87828,1.36632 1.40804,2.92938 2.19262,4.35157c1.63147,2.95729 4.46739,5.33022 6.76803,7.71538c2.13107,0.82406 4.42777,1.72598 6.6765,2.1726l0.20905,-0.66377c0,0 0.15684,-0.26141 0.44471,-0.44858c0.47955,-1.00049 0.86723,-2.09668 1.24769,-3.20536c-0.37161,-0.01216 -1.0418,-0.15935 -1.18849,-1.03945c-0.2055,-1.23299 1.02749,-1.43849 1.02749,-1.43849c0.32571,-0.0533 0.69986,-0.1121 1.10568,-0.16964c0.29956,-0.76095 0.62949,-1.49474 1.01979,-2.17189c0.02123,-1.52926 0.02053,-3.05792 -0.06517,-4.57101z" fill="#000000" stroke="none" stroke-width="0.5"/><path d="M304.39408,155.00027c-0.3903,0.67715 -0.72422,1.41447 -1.02378,2.17542c-0.40582,0.05754 -0.78185,0.11776 -1.10756,0.17106c0,0 -1.23627,0.20767 -1.03077,1.44066c0.14669,0.8801 0.81777,1.02674 1.18938,1.0389c-0.38046,1.10868 -0.77299,2.20759 -1.25254,3.20808c-0.28787,0.18717 -0.44578,0.44909 -0.44578,0.44909l-0.20988,0.66414c-2.24873,-0.44662 -4.5571,-1.34504 -6.68817,-2.1691c-2.30064,-2.38516 -5.15612,-4.75864 -6.78759,-7.71593c-0.78458,-1.42219 -1.328,-2.99058 -2.20628,-4.3569c-1.42846,-2.22221 -4.02139,-3.81487 -5.02802,-6.30301c-1.69495,-4.18949 -3.85395,-8.81184 -3.8721,-13.33148c1.30809,-5.91669 5.35788,-11.05394 11.33823,-12.92377c1.00532,-0.31433 2.09462,-0.42279 3.14609,-0.36047c1.24797,0.07397 2.55791,0.05631 3.72418,0.50656c3.26745,1.26143 2.25785,8.83406 1.54086,11.34353c-0.02774,3.96133 -1.06191,9.94606 0.56322,13.59323c1.30479,2.92828 4.65186,1.83673 6.96612,3.54265c1.10224,0.81249 1.06703,3.42322 1.12515,4.44927c0.0857,1.51309 0.08045,3.0488 0.05922,4.57806z" data-paper-data="{&quot;noHover&quot;:false,&quot;origItem&quot;:[&quot;Path&quot;,{&quot;applyMatrix&quot;:true,&quot;segments&quot;:[[[304.2938,150.39364],[0.0857,1.51309],[-0.05812,-1.02605]],[[303.1635,145.95377],[1.10224,0.81249],[-2.31426,-1.70592]],[[296.19577,142.41558],[1.30479,2.92828],[-1.62513,-3.64717]],[[295.65907,128.88231],[-0.02774,3.96133],[0.71699,-2.50947]],[[294.131,117.5428],[3.26745,1.26143],[-1.16627,-0.45025]],[[290.41478,117.03696],[1.24797,0.07397],[-1.05147,-0.06232]],[[287.27541,117.39705],[1.00532,-0.31433],[-5.98035,1.86983]],[[275.9715,130.30049],[1.30809,-5.91669],[0.01815,4.51964]],[[279.85105,143.58861],[-1.69495,-4.18949],[1.00663,2.48814]],[[284.8559,149.86228],[-1.42846,-2.22221],[0.87828,1.36632]],[[287.04852,154.21385],[-0.78458,-1.42219],[1.63147,2.95729]],[[293.81655,161.92923],[-2.30064,-2.38516],[2.13107,0.82406]],[[300.49305,164.10183],[-2.24873,-0.44662],[0,0]],[300.7021,163.43806],[[301.14681,162.98948],[-0.28787,0.18717],[0.47955,-1.00049]],[[302.3945,159.78412],[-0.38046,1.10868],[-0.37161,-0.01216]],[[301.20601,158.74467],[0.14669,0.8801],[-0.2055,-1.23299]],[[302.2335,157.30618],[0,0],[0.32571,-0.0533]],[[303.33918,157.13654],[-0.40582,0.05754],[0.29956,-0.76095]],[[304.35897,154.96465],[-0.3903,0.67715],[0.02123,-1.52926]]],&quot;closed&quot;:true,&quot;fillColor&quot;:[0,0,0,1],&quot;strokeWidth&quot;:0.5}]}" fill="#fdfff4" stroke="none" stroke-width="0.25"/><path d="M306.77968,159.59927c0,-0.10701 0.0014,-0.21576 0.00278,-0.32582c0.69272,-0.00695 1.36064,0.03903 1.89647,0.17371c0.77148,0.1939 3.11964,3.50157 3.55615,3.93866c0.51866,0.51935 3.23497,2.82475 2.98734,3.81477c-0.15107,0.60396 -0.95812,0.8163 -1.38803,1.2666c-2.86762,3.00358 -5.76266,3.82637 -9.60623,1.49752c-0.71651,-0.57569 -2.48495,-1.55144 -2.85101,-2.44076c-0.26154,-0.63537 1.41217,-2.37599 1.66459,-2.8471c0.67057,-1.25153 1.37986,-2.57763 1.96638,-3.90391c0.14027,0.05283 0.30982,0.08227 0.50789,0.08227c1.25,0 1.26367,-1.25593 1.26367,-1.25593z" data-paper-data="{&quot;noHover&quot;:false,&quot;origItem&quot;:[&quot;Path&quot;,{&quot;applyMatrix&quot;:true,&quot;segments&quot;:[[306.79252,159.64757],[[305.54252,160.89757],[1.25,0],[-0.19807,0]],[[305.0375,160.81336],[0.14027,0.05283],[-0.58652,1.32628]],[[303.0914,164.68269],[0.67057,-1.25153],[-0.25242,0.47111]],[[301.42475,167.5086],[-0.26154,-0.63537],[0.36606,0.88932]],[[304.26101,169.92698],[-0.71651,-0.57569],[3.84357,2.32885]],[[313.79099,168.44234],[-2.86762,3.00358],[0.42991,-0.4503]],[[315.17421,167.18733],[-0.15107,0.60396],[0.24763,-0.99002]],[[312.1901,163.40763],[0.51866,0.51935],[-0.43651,-0.43709]],[[308.67565,159.49703],[0.77148,0.1939],[-0.53583,-0.13468]],[[306.79463,159.32193],[0.69272,-0.00695],[-0.00138,0.11006]],[[306.79252,159.64758],[0,-0.10701],[0,0]]],&quot;closed&quot;:true,&quot;fillColor&quot;:[0,0,0,1],&quot;strokeWidth&quot;:0.5}]}" fill="#fdfff4" stroke="none" stroke-width="0.25"/></g></g></svg>