<svg version="1.1" xmlns="http://www.w3.org/2000/svg" xmlns:xlink="http://www.w3.org/1999/xlink" width="246.48409" height="167.28349" viewBox="0,0,246.48409,167.28349"><g transform="translate(-196.75798,-96.35827)"><g data-paper-data="{&quot;isPaintingLayer&quot;:true}" fill-rule="nonzero" stroke-linecap="butt" stroke-linejoin="miter" stroke-miterlimit="10" stroke-dasharray="" stroke-dashoffset="0" style="mix-blend-mode: normal"><path d="M373.00132,226.22273c-0.26017,-0.17551 -0.48667,-0.48111 -0.48667,-1.0132c0,-1.25 1.25,-1.25 1.25,-1.25c4.44775,0 9.12193,-0.41248 13.53522,0.22086c0.56858,0.0816 3.9068,0.68619 4.32654,1.40665c0.49621,0.8517 0.21209,1.96227 0.23595,2.94769c0.16385,6.76707 -9.09461,3.72391 -13.15847,4.13029c-1.23409,0.00104 -4.0003,0.37601 -5.14309,-0.07311c-2.13747,-0.84003 -4.11714,-3.41433 -1.97554,-5.4177c0.44291,-0.41432 0.91853,-0.71963 1.41607,-0.95149zM381.86117,226.32294c-0.09699,0.05007 -0.16411,0.07245 -0.16411,0.07245l-0.44015,0.12113c-2.1348,1.18229 -3.94971,0.91292 -6.19987,1.6488c-2.9458,0.96337 -1.741,2.06881 0.48105,2.00127c0.44316,-0.01347 0.88672,-0.00023 1.33008,0c0.57039,0.00029 1.14078,0.00103 1.71118,0.00155c3.1723,-0.31723 5.96958,0.53507 9.0389,0.44686c1.7079,-0.04908 2.37173,-2.16882 1.98005,-3.56617c-0.05796,-0.20678 -0.43103,0.06363 -0.64346,0.03211c-0.68012,-0.10092 -1.33729,-0.33028 -2.01801,-0.42703c-1.66206,-0.23622 -3.36346,-0.31864 -5.07565,-0.33096z" fill="#000000" stroke="none" stroke-width="0.5"/><path d="M381.86928,226.27361c1.71219,0.01232 3.4529,0.1282 5.11496,0.36442c0.68072,0.09675 1.33963,0.33281 2.01975,0.43373c0.21243,0.03152 0.58559,-0.23837 0.64355,-0.03159c0.39168,1.39735 -0.27421,3.5423 -1.98211,3.59138c-3.06932,0.08821 -5.95705,-0.75558 -9.12935,-0.43835c-0.5704,-0.00052 -1.14449,-0.00916 -1.71488,-0.00945c-0.44336,-0.00023 -0.88805,-0.01697 -1.33121,-0.0035c-2.22205,0.06754 -3.42869,-1.05393 -0.48289,-2.0173c2.25016,-0.73588 4.10863,-0.51373 6.24343,-1.69602l0.45105,-0.12133c0,0 0.0707,-0.02193 0.16769,-0.072z" data-paper-data="{&quot;noHover&quot;:false,&quot;origItem&quot;:[&quot;Path&quot;,{&quot;applyMatrix&quot;:true,&quot;segments&quot;:[[[381.86117,226.32294],[0,0],[-0.09699,0.05007]],[381.69706,226.39539],[[381.25691,226.51652],[0,0],[-2.1348,1.18229]],[[375.05704,228.16532],[2.25016,-0.73588],[-2.9458,0.96337]],[[375.53809,230.16659],[-2.22205,0.06754],[0.44316,-0.01347]],[[376.86817,230.16659],[-0.44336,-0.00023],[0.57039,0.00029]],[[378.57935,230.16814],[-0.5704,-0.00052],[3.1723,-0.31723]],[[387.61825,230.615],[-3.06932,0.08821],[1.7079,-0.04908]],[[389.5983,227.04883],[0.39168,1.39735],[-0.05796,-0.20678]],[[388.95484,227.08094],[0.21243,0.03152],[-0.68012,-0.10092]],[[386.93683,226.65391],[0.68072,0.09675],[-1.66206,-0.23622]],[[381.86118,226.32295],[1.71219,0.01232],[0,0]]],&quot;closed&quot;:true,&quot;fillColor&quot;:[0,0,0,1],&quot;strokeWidth&quot;:0.5}]}" fill="#fff69c" stroke="none" stroke-width="0.25"/><path d="M394.8154,195.82091c-2.20359,-0.18461 -4.4173,-0.39663 -6.64154,-0.39663c0,0 -1.25,0 -1.25,-1.25c0,-1.25 1.25,-1.25 1.25,-1.25c5.13088,0 10.20163,0.39734 15.21582,1.11592c0.09766,-0.06349 0.21328,-0.11952 0.34988,-0.16505c0.52334,-0.17445 0.8927,-0.04095 1.14207,0.16267c0.66782,-0.02782 1.33897,-0.00617 1.8809,0.38842c2.25023,1.63845 1.59552,2.54317 0.43075,4.61714c-1.7828,3.17442 -5.58539,5.92083 -8.67814,7.69534c-1.32729,0.52637 -4.27549,2.16483 -5.69664,2.41181c-2.60748,0.45315 -6.46165,-1.46505 -8.65121,-2.50813c-0.59521,-0.28355 -1.56644,-0.05301 -1.87255,-0.63695c-1.25843,-2.40062 1.76706,-6.08981 3.24306,-7.63717c2.14213,-2.2457 5.69778,-2.54499 9.27759,-2.54736zM405.60015,196.53066l0.06995,0.46683c0.03704,-0.08368 0.0716,-0.16802 0.10354,-0.25303c0.04672,-0.12437 -0.03408,-0.18569 -0.17349,-0.21379zM405.66916,196.99964c-0.76651,0.32099 -1.53302,0.64198 -2.29954,0.96297c-3.6876,0.7957 -7.33495,0.37316 -11.06049,0.77844c-1.47693,0.16067 -3.9211,0.14196 -5.0461,1.43654c-0.74466,0.85691 -1.39005,1.79551 -2.06536,2.70807c-0.36828,0.49767 -1.28245,1.1397 -0.89864,1.62549c0.1676,0.21213 0.53077,-0.27797 0.78762,-0.19359c1.09214,0.35878 2.08741,0.99559 3.1992,1.28785c1.12918,0.29683 2.90647,1.33227 4.11058,1.08099c1.39054,-0.29019 3.73577,-1.68931 5.03641,-2.20127c1.02229,-0.5813 2.04627,-1.19707 2.90875,-1.99653c1.66306,-1.54154 4.35187,-3.28748 5.32757,-5.48897z" fill="#000000" stroke="none" stroke-width="0.5"/><path d="M405.7147,196.97899c-0.9757,2.20149 -3.66038,3.97382 -5.32344,5.51536c-0.86248,0.79946 -1.90167,1.4457 -2.92396,2.027c-1.30064,0.51196 -3.70364,1.91909 -5.09418,2.20928c-1.20411,0.25128 -3.00167,-0.80388 -4.13085,-1.10071c-1.11179,-0.29226 -2.112,-0.9415 -3.20414,-1.30028c-0.25685,-0.08438 -0.62002,0.40571 -0.78762,0.19358c-0.38381,-0.48579 0.52915,-1.13468 0.89743,-1.63235c0.67531,-0.91256 1.32159,-1.8671 2.06625,-2.72401c1.125,-1.29458 3.5858,-1.30339 5.06273,-1.46406c3.72554,-0.40528 7.45048,0.03451 11.13808,-0.76119c0.76652,-0.32099 1.53319,-0.64163 2.2997,-0.96262z" data-paper-data="{&quot;noHover&quot;:false,&quot;origItem&quot;:[&quot;Path&quot;,{&quot;applyMatrix&quot;:true,&quot;segments&quot;:[[[405.66916,196.99964],[0,0],[-0.76651,0.32099]],[[403.36962,197.96261],[0.76652,-0.32099],[-3.6876,0.7957]],[[392.30913,198.74105],[3.72554,-0.40528],[-1.47693,0.16067]],[[387.26303,200.17759],[1.125,-1.29458],[-0.74466,0.85691]],[[385.19767,202.88566],[0.67531,-0.91256],[-0.36828,0.49767]],[[384.29903,204.51115],[-0.38381,-0.48579],[0.1676,0.21213]],[[385.08665,204.31756],[-0.25685,-0.08438],[1.09214,0.35878]],[[388.28585,205.60541],[-1.11179,-0.29226],[1.12918,0.29683]],[[392.39643,206.6864],[-1.20411,0.25128],[1.39054,-0.29019]],[[397.43284,204.48513],[-1.30064,0.51196],[1.02229,-0.5813]],[[400.34159,202.4886],[-0.86248,0.79946],[1.66306,-1.54154]],[[405.66916,196.99963],[-0.9757,2.20149],[0,0]]],&quot;closed&quot;:true,&quot;fillColor&quot;:[0,0,0,1],&quot;strokeWidth&quot;:0.5}]}" fill="#fff69c" stroke="none" stroke-width="0.25"/><path d="M196.75799,263.64177v-167.28349h246.48409v167.28349z" fill="none" stroke="#000000" stroke-width="0"/></g></g></svg>