<svg version="1.1" xmlns="http://www.w3.org/2000/svg" xmlns:xlink="http://www.w3.org/1999/xlink" width="246.48409" height="167.28349" viewBox="0,0,246.48409,167.28349"><g transform="translate(-196.75798,-96.35827)"><g data-paper-data="{&quot;isPaintingLayer&quot;:true}" fill-rule="nonzero" stroke-linecap="butt" stroke-linejoin="miter" stroke-miterlimit="10" stroke-dasharray="" stroke-dashoffset="0" style="mix-blend-mode: normal"><path d="M382.32964,222.30369c1.18356,-0.01115 2.32299,0.11639 3.35513,0.56856c5.50301,2.41085 5.97902,9.65108 -0.18887,11.84423c-1.67325,0.59496 -4.59515,0.05606 -6.35552,0.05606c-0.71386,-0.0493 -1.54327,0.24458 -2.14158,-0.14791c-1.75742,-1.15284 -3.98831,-5.51659 -3.24988,-7.7229c0.24726,-0.73878 0.63456,-1.3562 1.11749,-1.87854c-0.04827,-0.00665 -0.09609,-0.01384 -0.14345,-0.02159c0,0 -1.23299,-0.2055 -1.02749,-1.43849c0.2055,-1.23299 1.43849,-1.02749 1.43849,-1.02749c1.38013,0.23488 2.89084,0.09905 4.40869,-0.04406c0.42561,-0.13221 0.84566,-0.25284 1.24946,-0.36821l0.78676,-0.0481c0,0 0.40255,0 0.75077,0.22844zM380.92041,224.68273c-1.86394,0.51236 -3.96473,1.08227 -4.81242,3.04652c-0.63941,1.48162 1.82755,4.72855 3.03239,4.54329c1.49059,0 4.22351,0.56245 5.61522,0.05606c4.31018,-1.56829 3.09253,-5.63385 -0.18887,-7.22028c-0.97492,-0.47133 -2.26573,-0.51621 -3.64633,-0.42559z" fill="#000000" stroke="none" stroke-width="0.5"/><path d="M380.90981,224.63387c1.3806,-0.09062 2.71332,-0.03586 3.68824,0.43547c3.2814,1.58643 4.49896,5.73002 0.18878,7.29831c-1.39171,0.50639 -4.18491,-0.05442 -5.6755,-0.05442c-1.20484,0.18526 -3.69217,-3.1099 -3.05276,-4.59152c0.84769,-1.96425 2.98731,-2.57549 4.85125,-3.08785z" data-paper-data="{&quot;noHover&quot;:false,&quot;origItem&quot;:[&quot;Path&quot;,{&quot;applyMatrix&quot;:true,&quot;segments&quot;:[[[380.92041,224.68273],[0,0],[-1.86394,0.51236]],[[376.10799,227.72925],[0.84769,-1.96425],[-0.63941,1.48162]],[[379.14038,232.27254],[-1.20484,0.18526],[1.49059,0]],[[384.7556,232.3286],[-1.39171,0.50639],[4.31018,-1.56829]],[[384.56673,225.10832],[3.2814,1.58643],[-0.97492,-0.47133]],[[380.9204,224.68273],[1.3806,-0.09062],[0,0]]],&quot;closed&quot;:true,&quot;fillColor&quot;:[0,0,0,1],&quot;strokeWidth&quot;:0.5}]}" fill="#fff69c" stroke="none" stroke-width="0.25"/><path d="M386.72248,198.85786c-0.16271,0.00116 -0.32548,0.00198 -0.48832,0.00247c0,0 -1.25,0 -1.25,-1.25c0,-1.25 1.25,-1.25 1.25,-1.25c12.02316,0.04174 23.63514,-1.97766 35.6094,-0.38973c1.08085,0.53914 3.09721,1.26277 3.31011,2.76958c0.12532,0.88695 -0.64865,1.67005 -0.98661,2.49961c-1.27846,3.13812 -2.17919,4.97466 -5.64871,5.99076c-3.2226,0.94379 -5.29069,-2.20941 -8.20965,-2.38799c-2.50109,-0.15301 -4.99112,0.82591 -7.42277,1.30849c-2.66721,0.52934 -5.2513,0.38944 -7.93712,0.68786c-3.68804,-0.01035 -11.53173,-2.35392 -8.42593,-7.70321c0.0581,-0.10007 0.12527,-0.1921 0.19959,-0.27784zM390.54902,198.77582l-0.10577,0.38343c-0.54233,0.53516 -1.42433,0.71925 -1.83765,1.35931c-1.75575,2.71894 4.64574,3.82969 6.20497,3.82417c2.56306,-0.28478 5.04257,-0.13044 7.58051,-0.64222c2.66773,-0.53796 5.3438,-1.54616 8.09485,-1.35167c2.04457,0.14455 5.42553,3.2457 7.30797,2.48897c3.11537,-1.25236 2.55948,-1.86194 4.10523,-4.6499c0.21173,-0.38187 0.72834,-0.61457 0.78683,-1.04728c0.07811,-0.57777 -1.04582,-0.5157 -1.56685,-0.77731c-10.27157,-1.19519 -20.31866,0.06229 -30.57009,0.41249z" fill="#000000" stroke="none" stroke-width="0.5"/><path d="M390.49978,198.76714c10.25143,-0.3502 20.39684,-1.60857 30.66841,-0.41338c0.52103,0.26161 1.64545,0.20257 1.56734,0.78034c-0.05849,0.43271 -0.57481,0.66824 -0.78654,1.05011c-1.54575,2.78796 -0.99156,3.41468 -4.10693,4.66704c-1.88244,0.75673 -5.26243,-2.34859 -7.307,-2.49314c-2.75105,-0.19449 -5.51648,0.83414 -8.18421,1.3721c-2.53794,0.51178 -5.02544,0.34098 -7.5885,0.62576c-1.55923,0.00552 -7.96244,-1.1211 -6.20669,-3.84004c0.41332,-0.64006 1.2958,-0.82891 1.83813,-1.36407l0.10598,-0.38471z" data-paper-data="{&quot;noHover&quot;:false,&quot;origItem&quot;:[&quot;Path&quot;,{&quot;applyMatrix&quot;:true,&quot;segments&quot;:[[390.54902,198.77582],[[390.44325,199.15925],[0,0],[-0.54233,0.53516]],[[388.6056,200.51856],[0.41332,-0.64006],[-1.75575,2.71894]],[[394.81057,204.34273],[-1.55923,0.00552],[2.56306,-0.28478]],[[402.39108,203.70051],[-2.53794,0.51178],[2.66773,-0.53796]],[[410.48593,202.34884],[-2.75105,-0.19449],[2.04457,0.14455]],[[417.7939,204.83781],[-1.88244,0.75673],[3.11537,-1.25236]],[[421.89913,200.18791],[-1.54575,2.78796],[0.21173,-0.38187]],[[422.68596,199.14063],[-0.05849,0.43271],[0.07811,-0.57777]],[[421.11911,198.36332],[0.52103,0.26161],[-10.27157,-1.19519]],[[390.54902,198.77581],[10.25143,-0.3502],[0,0]]],&quot;closed&quot;:true,&quot;fillColor&quot;:[0,0,0,1],&quot;strokeWidth&quot;:0.5}]}" fill="#fff69c" stroke="none" stroke-width="0.25"/><path d="M196.75799,263.64177v-167.28349h246.48409v167.28349z" fill="none" stroke="#000000" stroke-width="0"/></g></g></svg>