<svg version="1.1" xmlns="http://www.w3.org/2000/svg" xmlns:xlink="http://www.w3.org/1999/xlink" width="246.48409" height="167.28349" viewBox="0,0,246.48409,167.28349"><g transform="translate(-196.75798,-96.35827)"><g data-paper-data="{&quot;isPaintingLayer&quot;:true}" fill-rule="nonzero" stroke-linecap="butt" stroke-linejoin="miter" stroke-miterlimit="10" stroke-dasharray="" stroke-dashoffset="0" style="mix-blend-mode: normal"><path d="M387.70584,226.20709c0,0.31009 -0.07693,0.54326 -0.19261,0.71858c2.20547,0.73056 4.28585,1.67393 6.585,2.28685c1.93199,0.51505 4.26909,0.63826 5.06453,3.00953c1.51262,4.50923 -4.0153,7.29776 -7.80849,6.96795c-2.51764,-0.21891 -4.29534,-3.08397 -5.88937,-4.68221c-2.48875,-1.55357 -3.61007,-4.62831 -2.69667,-6.99389c-0.01253,-0.12057 -0.00872,-0.25472 0.01614,-0.40392c0.10863,-0.65181 0.50441,-0.90161 0.85338,-0.9923c0.38125,-0.41255 0.85884,-0.77264 1.43898,-1.05954l1.37912,-0.10107c0,0 1.25,0 1.25,1.25zM384.8683,228.7582c-0.13256,1.32834 0.99851,3.13053 2.13513,3.77909c1.08575,1.08364 3.0348,4.11348 4.75129,4.185c2.07305,0.08639 5.67477,-1.14901 5.04897,-3.67271c-0.32664,-1.31724 -2.53033,-1.20294 -3.35932,-1.42407c-2.98811,-0.79706 -5.57248,-2.17592 -8.57606,-2.86731z" fill="#000000" stroke="none" stroke-width="0.5"/><path d="M384.82666,228.73054c3.00358,0.69139 5.67548,2.07804 8.66359,2.8751c0.82899,0.22113 3.03673,0.12929 3.36337,1.44653c0.6258,2.5237 -3.01496,3.80532 -5.08801,3.71893c-1.71649,-0.07152 -3.72636,-3.15281 -4.81211,-4.23645c-1.13662,-0.64856 -2.25941,-2.47576 -2.12685,-3.8041z" data-paper-data="{&quot;noHover&quot;:false,&quot;origItem&quot;:[&quot;Path&quot;,{&quot;applyMatrix&quot;:true,&quot;segments&quot;:[[[384.8683,228.7582],[0,0],[-0.13256,1.32834]],[[387.00343,232.53729],[-1.13662,-0.64856],[1.08575,1.08364]],[[391.75472,236.72229],[-1.71649,-0.07152],[2.07305,0.08639]],[[396.80369,233.04958],[0.6258,2.5237],[-0.32664,-1.31724]],[[393.44437,231.62551],[0.82899,0.22113],[-2.98811,-0.79706]],[[384.86831,228.7582],[3.00358,0.69139],[0,0]]],&quot;closed&quot;:true,&quot;fillColor&quot;:[0,0,0,1],&quot;strokeWidth&quot;:0.5}]}" fill="#fff69c" stroke="none" stroke-width="0.25"/><path d="M387.91272,201.53323c-0.15666,-0.18366 -0.26839,-0.44565 -0.26839,-0.81937c0,-0.5366 0.23035,-0.84284 0.49328,-1.01763c0.20163,-0.27838 0.55269,-0.52756 1.15518,-0.44149c0.2438,0.03483 0.4327,0.11083 0.57888,0.21042c7.87324,0.01493 16.15736,0.12578 23.98393,-0.44152c2.95215,-0.21399 6.4172,-0.78622 8.70301,1.4996c2.78108,0.87623 4.62656,5.38846 0.6127,6.48634c-4.14442,1.13359 -9.87035,-1.60869 -13.88373,-2.40561c-4.99362,-0.99156 -10.2358,0.29716 -15.24629,-0.43538c-1.3169,-0.19253 -2.57457,-0.7118 -3.89517,-0.87709c-0.73203,-0.14285 -1.46407,-0.2857 -2.1961,-0.42854zM395.95369,201.86682c4.55394,0.3393 9.26511,-0.63126 13.77993,0.27726c4.16894,0.83891 8.33731,2.5286 12.71791,2.47135c0.589,-0.0077 0.72564,-1.37196 0.26413,-1.57968c-0.44656,-0.20099 -0.94992,-0.23856 -1.42488,-0.35784c-2.28511,-2.28511 -5.97237,-1.1603 -8.89834,-1.15742c-5.4838,0.0054 -10.96441,0.21747 -16.43875,0.34633z" fill="#000000" stroke="none" stroke-width="0.5"/><path d="M412.43747,201.49877c2.92597,-0.00288 6.61819,-1.10703 8.9033,1.17808c0.47496,0.11928 0.97833,0.15832 1.42489,0.35931c0.46151,0.20772 0.32445,1.57802 -0.26455,1.58572c-4.3806,0.05725 -8.61432,-1.59144 -12.78326,-2.43035c-4.51482,-0.90852 -9.26007,0.01068 -13.81401,-0.32862c5.47434,-0.12886 11.04983,-0.35874 16.53363,-0.36414z" data-paper-data="{&quot;noHover&quot;:false,&quot;origItem&quot;:[&quot;Path&quot;,{&quot;applyMatrix&quot;:true,&quot;segments&quot;:[[[395.95369,201.86682],[5.47434,-0.12886],[4.55394,0.3393]],[[409.73362,202.14408],[-4.51482,-0.90852],[4.16894,0.83891]],[[422.45153,204.61543],[-4.3806,0.05725],[0.589,-0.0077]],[[422.71566,203.03575],[0.46151,0.20772],[-0.44656,-0.20099]],[[421.29078,202.67791],[0.47496,0.11928],[-2.28511,-2.28511]],[[412.39244,201.52049],[2.92597,-0.00288],[-5.4838,0.0054]]],&quot;closed&quot;:true,&quot;fillColor&quot;:[0,0,0,1],&quot;strokeWidth&quot;:0.5}]}" fill="#fff69c" stroke="none" stroke-width="0.25"/><path d="M196.75799,263.64177v-167.28349h246.48409v167.28349z" fill="none" stroke="#000000" stroke-width="0"/></g></g></svg>