<svg version="1.1" xmlns="http://www.w3.org/2000/svg" xmlns:xlink="http://www.w3.org/1999/xlink" width="246.48409" height="167.28349" viewBox="0,0,246.48409,167.28349"><g transform="translate(-196.75798,-96.35827)"><g data-paper-data="{&quot;isPaintingLayer&quot;:true}" fill-rule="nonzero" stroke-linecap="butt" stroke-linejoin="miter" stroke-miterlimit="10" stroke-dasharray="" stroke-dashoffset="0" style="mix-blend-mode: normal"><path d="M389.51428,228.13356c0.6032,-0.24773 1.17383,-0.44347 1.5711,-0.49157c1.34447,-0.16279 2.57788,0.84593 3.81585,1.39502c1.33985,0.59427 3.63364,0.81685 5.04587,1.31031c0.80274,0.28049 3.86019,1.02113 4.47822,1.64282c1.92485,1.93626 0.30929,4.81335 -1.31101,6.11661c-2.49164,2.00411 -5.45263,3.73555 -8.76659,3.75643c-4.11095,-0.61668 -7.52794,-3.79443 -8.85605,-7.72366c-1.17547,-3.47764 -1.55159,-6.09954 2.73762,-6.30057h0.44336c0,0 0.47696,0 0.84163,0.29462zM386.98994,231.56173c0.12474,0.93959 0.80963,2.19364 1.23817,2.93244c1.34345,2.3161 3.56953,4.51391 6.29684,4.87529c2.81339,0.02463 4.99053,-1.86115 7.19439,-3.33734c0.14983,-0.10036 1.69056,-1.78687 0.9058,-2.30724c-1.01317,-0.67183 -2.35506,-0.61513 -3.50227,-1.01735c-1.50098,-0.52624 -3.71754,-0.75332 -5.15142,-1.34986c-0.41325,-0.17193 -1.54046,-1.48517 -2.3912,-1.26515c-1.04085,0.26918 -2.4554,0.9303 -3.45698,1.44453c0,0 -0.59457,0.29728 -1.13332,0.02468z" fill="#000000" stroke="none" stroke-width="0.5"/><path d="M386.9435,231.54323c0.53875,0.2726 1.13449,-0.02739 1.13449,-0.02739c1.00158,-0.51423 2.43216,-1.19469 3.47301,-1.46387c0.85074,-0.22002 1.99365,1.08564 2.4069,1.25757c1.43388,0.59654 3.7091,0.85017 5.21008,1.37641c1.14721,0.40222 2.49358,0.3607 3.50675,1.03253c0.78476,0.52037 -0.75647,2.22276 -0.9063,2.32312c-2.20386,1.47619 -4.43431,3.40231 -7.2477,3.37768c-2.72731,-0.36138 -4.99915,-2.61069 -6.3426,-4.92679c-0.42854,-0.7388 -1.10991,-2.00967 -1.23465,-2.94926z" data-paper-data="{&quot;noHover&quot;:false,&quot;origItem&quot;:[&quot;Path&quot;,{&quot;applyMatrix&quot;:true,&quot;segments&quot;:[[[386.98994,231.56173],[0,0],[0.12474,0.93959]],[[388.22811,234.49417],[-0.42854,-0.7388],[1.34345,2.3161]],[[394.52495,239.36946],[-2.72731,-0.36138],[2.81339,0.02463]],[[401.71934,236.03212],[-2.20386,1.47619],[0.14983,-0.10036]],[[402.62514,233.72488],[0.78476,0.52037],[-1.01317,-0.67183]],[[399.12287,232.70753],[1.14721,0.40222],[-1.50098,-0.52624]],[[393.97145,231.35767],[1.43388,0.59654],[-0.41325,-0.17193]],[[391.58025,230.09252],[0.85074,-0.22002],[-1.04085,0.26918]],[[388.12327,231.53705],[1.00158,-0.51423],[0,0]],[[386.98995,231.56173],[0.53875,0.2726],[0,0]]],&quot;closed&quot;:true,&quot;fillColor&quot;:[0,0,0,1],&quot;strokeWidth&quot;:0.5}]}" fill="#fff69c" stroke="none" stroke-width="0.25"/><path d="M390.49828,203.13146c0.08972,0.22429 0.11875,0.42258 0.1072,0.59653c3.3598,0.44571 6.60232,1.25921 10.18191,1.05861c2.45207,-0.13742 4.40245,-1.0145 6.81337,-1.32503c3.20103,-0.4123 6.39441,-0.08579 9.55007,0.44016c1.61762,-0.00326 3.03515,0.18156 4.55132,-0.36602c0.46368,-0.16746 1.90778,-0.15399 1.44381,-0.32065c-3.76455,-1.35223 -6.86846,-3.75067 -10.83086,-4.83437c-2.05275,-0.56142 -4.37379,1.10731 -6.38138,1.47076c-3.62353,0.65601 -6.42187,1.57005 -10.22395,1.22441c-2.23752,0.00192 -4.27119,0.52497 -6.28845,1.26774c0.36576,0.00598 0.82441,0.15648 1.07696,0.78787zM383.79568,205.51074c0,0 -0.77561,0 -1.10492,-0.61096c-0.11553,-0.07905 -0.22962,-0.1873 -0.33844,-0.3324c-0.75,-1 0.25,-1.75 0.25,-1.75l1.14432,-0.81397c4.03932,-1.72817 7.72009,-3.42847 12.07642,-3.42499c3.93396,0.35763 8.16059,-0.45662 11.93445,-1.70098c2.06147,-0.67973 2.78069,-1.4765 5.15564,-0.92418c3.50193,0.81441 7.08357,2.46726 10.01186,4.56693c0.92148,0.66073 2.27358,1.05841 2.65539,2.12608c0.28779,0.80475 -0.47933,1.70762 -1.06026,2.33449c-1.70177,1.83635 -5.42891,1.41638 -7.57552,1.41244c-3.01367,-0.50228 -6.01577,-0.81488 -9.07108,-0.44657c-2.41172,0.29073 -4.45498,1.19874 -6.93081,1.33513c-4.9246,0.27129 -9.25386,-1.32767 -14.04353,-1.32767c0,0 -0.64147,0 -1.00536,-0.45953c-0.69178,0.0196 -1.38677,0.01617 -2.09816,0.01617z" fill="#000000" stroke="none" stroke-width="0.5"/><path d="M390.44853,203.13646c-0.25255,-0.63139 -0.71139,-0.78452 -1.07715,-0.7905c2.01726,-0.74277 4.05092,-1.27038 6.28844,-1.2723c3.80208,0.34564 6.63899,-0.61489 10.26252,-1.2709c2.00759,-0.36345 4.38423,-2.00684 6.43698,-1.44542c3.9624,1.0837 7.07185,3.51044 10.8364,4.86267c0.46397,0.16666 -0.9803,0.15467 -1.44398,0.32213c-1.51617,0.54758 -2.93443,0.36698 -4.55205,0.37024c-3.15566,-0.52595 -6.37028,-0.82143 -9.57131,-0.40913c-2.41092,0.31053 -4.43206,1.17119 -6.88413,1.30861c-3.57959,0.2006 -6.82849,-0.63128 -10.18829,-1.07699c0.01155,-0.17395 -0.01771,-0.37413 -0.10743,-0.59842z" data-paper-data="{&quot;noHover&quot;:false,&quot;origItem&quot;:[&quot;Path&quot;,{&quot;applyMatrix&quot;:true,&quot;segments&quot;:[[[390.49828,203.13146],[0,0],[0.08972,0.22429]],[[390.60548,203.72799],[0.01155,-0.17395],[3.3598,0.44571]],[[400.78739,204.7866],[-3.57959,0.2006],[2.45207,-0.13742]],[[407.60076,203.46157],[-2.41092,0.31053],[3.20103,-0.4123]],[[417.15083,203.90173],[-3.15566,-0.52595],[1.61762,-0.00326]],[[421.70215,203.53571],[-1.51617,0.54758],[0.46368,-0.16746]],[[423.14596,203.21506],[0.46397,0.16666],[-3.76455,-1.35223]],[[412.3151,198.38069],[3.9624,1.0837],[-2.05275,-0.56142]],[[405.93372,199.85145],[2.00759,-0.36345],[-3.62353,0.65601]],[[395.70977,201.07586],[3.80208,0.34564],[-2.23752,0.00192]],[[389.42132,202.3436],[2.01726,-0.74277],[0.36576,0.00598]],[[390.49828,203.13147],[-0.25255,-0.63139],[0,0]]],&quot;closed&quot;:true,&quot;fillColor&quot;:[0,0,0,1],&quot;strokeWidth&quot;:0.5}]}" fill="#fff69c" stroke="none" stroke-width="0.25"/><path d="M196.75799,263.64177v-167.28349h246.48409v167.28349z" fill="none" stroke="#000000" stroke-width="0"/></g></g></svg>