<svg version="1.1" xmlns="http://www.w3.org/2000/svg" xmlns:xlink="http://www.w3.org/1999/xlink" width="246.48409" height="167.28349" viewBox="0,0,246.48409,167.28349"><g transform="translate(-196.75798,-96.35827)"><g data-paper-data="{&quot;isPaintingLayer&quot;:true}" fill-rule="nonzero" stroke-linecap="butt" stroke-linejoin="miter" stroke-miterlimit="10" stroke-dasharray="" stroke-dashoffset="0" style="mix-blend-mode: normal"><path d="M402.79435,198.37936c-0.3691,-0.0833 -0.96249,-0.35116 -0.96249,-1.2124c0,-0.49703 0.19763,-0.79643 0.43573,-0.97678c0.00536,-0.34524 0.15032,-0.75383 0.69861,-1.02797c1.11803,-0.55902 1.67705,0.55902 1.67705,0.55902l0.09864,0.2796c3.53732,0.35073 6.20447,1.73245 9.7608,2.84422c2.22369,0.69516 4.8631,0.51198 6.84886,1.98246c1.38335,1.02438 1.50517,2.73786 2.85564,3.73499h1.26438v0c0.69036,0 1.25,0.55964 1.25,1.25c0,0.55054 -0.35592,1.01796 -0.85021,1.1847l-2.30491,0.83815c-0.73842,0.43305 -1.53741,0.77733 -2.51452,0.97818c-3.35499,0.68963 -5.71666,-1.26927 -8.40018,-2.80661c-3.58122,-2.05163 -8.57293,-3.53411 -9.8574,-7.62755zM405.95151,198.67624c0.24794,0.223 0.5201,0.48233 0.78752,0.84026c1.89345,2.53428 4.4875,2.80027 7.16754,4.32814c1.59782,0.9109 3.09821,2.36573 5.0177,2.49556c1.4182,0.09592 2.32081,-0.36239 3.35721,-0.50724c-0.84116,-1.04502 -1.31204,-2.21747 -2.44382,-3.01596c-1.6959,-1.19649 -4.1252,-0.97605 -6.00859,-1.56442c-2.94076,-0.91869 -5.16499,-2.0699 -7.87756,-2.57633z" fill="#000000" stroke="none" stroke-width="0.5"/><path d="M405.90626,198.65498c2.71257,0.50643 4.97095,1.63016 7.91171,2.54885c1.88339,0.58837 4.37372,0.41932 6.06962,1.61581c1.13178,0.79849 1.59905,1.98713 2.44021,3.03215c-1.0364,0.14485 -1.94621,0.61547 -3.36441,0.51955c-1.91949,-0.12983 -3.4668,-1.5664 -5.06462,-2.4773c-2.68004,-1.52787 -5.31261,-1.86207 -7.20606,-4.39635c-0.26742,-0.35793 -0.53851,-0.61971 -0.78645,-0.84271z" data-paper-data="{&quot;noHover&quot;:false,&quot;origItem&quot;:[&quot;Path&quot;,{&quot;applyMatrix&quot;:true,&quot;segments&quot;:[[[405.95151,198.67624],[0,0],[0.24794,0.223]],[[406.73903,199.5165],[-0.26742,-0.35793],[1.89345,2.53428]],[[413.90657,203.84464],[-2.68004,-1.52787],[1.59782,0.9109]],[[418.92427,206.3402],[-1.91949,-0.12983],[1.4182,0.09592]],[[422.28148,205.83296],[-1.0364,0.14485],[-0.84116,-1.04502]],[[419.83766,202.817],[1.13178,0.79849],[-1.6959,-1.19649]],[[413.82907,201.25258],[1.88339,0.58837],[-2.94076,-0.91869]],[[405.95151,198.67625],[2.71257,0.50643],[0,0]]],&quot;closed&quot;:true,&quot;fillColor&quot;:[0,0,0,1],&quot;strokeWidth&quot;:0.5}]}" fill="#fff69c" stroke="none" stroke-width="0.25"/><path d="M383.82782,231.27653c-0.00303,-0.00518 -0.00604,-0.0104 -0.00905,-0.01566c-0.62017,-1.0853 0.46513,-1.70548 0.46513,-1.70548c5.02974,-2.87238 12.30252,-4.20309 14.64305,2.62842c0.31197,0.91058 1.17225,1.79701 0.9387,2.73078c-0.68353,2.73292 -2.85161,1.83077 -4.56405,2.05861c-3.62993,0.48295 -6.50194,0.54509 -10.07588,-0.47532c-0.61409,-0.18931 -1.31911,-0.19477 -1.84227,-0.56793c-2.44144,-1.7414 -1.48762,-3.3788 0.44437,-4.65344zM392.13396,229.46539c0.1655,0.64634 -0.36063,1.17247 -0.36063,1.17247l-0.92879,0.57523c-1.91345,0.2567 -5.14001,1.11235 -6.47327,2.60008c-0.34852,0.3889 1.03496,0.15294 1.54125,0.28091c3.22785,0.92287 5.7138,0.79083 8.98863,0.41141c0.83927,-0.09724 2.69611,0.67015 2.52972,-0.1582c-0.09919,-0.4938 -0.61104,-0.80821 -0.83475,-1.25946c-0.60444,-1.21926 -0.15218,-1.72237 -1.38503,-2.79804c-0.78996,-0.68925 -1.88624,-0.89806 -3.07714,-0.82439z" fill="#000000" stroke="none" stroke-width="0.5"/><path d="M392.15531,229.42019c1.1909,-0.07367 2.31187,0.16087 3.10183,0.85012c1.23285,1.07567 0.78384,1.60658 1.38828,2.82584c0.22371,0.45125 0.7336,0.77341 0.83279,1.26721c0.16639,0.82835 -1.69478,0.07037 -2.53405,0.16761c-3.27483,0.37942 -5.85027,0.50443 -9.07812,-0.41844c-0.50629,-0.12797 -1.89169,0.10211 -1.54317,-0.28679c1.33326,-1.48773 4.60635,-2.40592 6.5198,-2.66262l0.95646,-0.56809c0,0 0.47896,-0.4381 0.31346,-1.08444z" data-paper-data="{&quot;noHover&quot;:false,&quot;origItem&quot;:[&quot;Path&quot;,{&quot;applyMatrix&quot;:true,&quot;segments&quot;:[[[392.13396,229.46539],[0,0],[0.1655,0.64634]],[391.77333,230.63786],[[390.84454,231.21309],[0,0],[-1.91345,0.2567]],[[384.37127,233.81317],[1.33326,-1.48773],[-0.34852,0.3889]],[[385.91252,234.09408],[-0.50629,-0.12797],[3.22785,0.92287]],[[394.90115,234.50549],[-3.27483,0.37942],[0.83927,-0.09724]],[[397.43087,234.34729],[0.16639,0.82835],[-0.09919,-0.4938]],[[396.59612,233.08783],[0.22371,0.45125],[-0.60444,-1.21926]],[[395.21109,230.28979],[1.23285,1.07567],[-0.78996,-0.68925]],[[392.13395,229.4654],[1.1909,-0.07367],[0,0]]],&quot;closed&quot;:true,&quot;fillColor&quot;:[0,0,0,1],&quot;strokeWidth&quot;:0.5}]}" fill="#fff69c" stroke="none" stroke-width="0.25"/><path d="M196.75799,263.64177v-167.28349h246.48409v167.28349z" fill="none" stroke="#000000" stroke-width="0"/></g></g></svg>