<svg version="1.1" xmlns="http://www.w3.org/2000/svg" xmlns:xlink="http://www.w3.org/1999/xlink" width="246.48412" height="167.2835" viewBox="0,0,246.48412,167.2835"><g transform="translate(-196.75796,-96.35826)"><g data-paper-data="{&quot;isPaintingLayer&quot;:true}" fill-rule="nonzero" stroke-linecap="butt" stroke-linejoin="miter" stroke-miterlimit="10" stroke-dasharray="" stroke-dashoffset="0" style="mix-blend-mode: normal"><path d="M384.79573,233.01547c-0.24342,-0.68725 0.33287,-1.26353 0.33287,-1.26353c3.53313,-3.26859 10.45313,-2.26963 13.86879,0.58225c0.50874,0.42477 1.29315,0.59696 1.5951,1.18693c1.33533,2.609 -0.46806,4.3479 -2.8524,4.78217c-2.63235,0.47943 -5.06574,-0.22368 -7.63885,-0.21162c-2.61597,-0.51671 -7.38161,-0.0073 -6.1021,-4.22389c0.11508,-0.37925 0.44588,-0.62207 0.7966,-0.85231zM388.41255,232.6206c0.06725,0.11906 0.12122,0.26251 0.15574,0.43512c0.24515,1.22573 -0.98058,1.47087 -0.98058,1.47087l-0.57268,-0.02796c-2.12963,1.26252 2.03996,0.84322 3.33255,1.1052c1.47664,0.00642 2.73689,0.57107 4.20733,0.44154c0.62975,-0.05547 3.71944,0.09243 4.01589,-0.70131c0.20368,-0.54533 -2.70286,-2.4561 -3.21006,-2.6343c-1.56915,-0.55129 -4.84622,-0.77384 -6.9482,-0.08916z" fill="#000000" stroke="none" stroke-width="0.5"/><path d="M388.36563,232.60329c2.10198,-0.68468 5.47074,-0.46705 7.03989,0.08424c0.5072,0.1782 3.41798,2.12101 3.2143,2.66634c-0.29645,0.79374 -3.3986,0.67013 -4.02835,0.7256c-1.47044,0.12953 -2.80851,-0.44097 -4.28515,-0.44739c-1.29259,-0.26198 -5.47081,0.13243 -3.34118,-1.13009l0.57273,0.02863c0,0 1.22733,-0.26234 0.98218,-1.48807c-0.03452,-0.17261 -0.08716,-0.3202 -0.15441,-0.43926z" data-paper-data="{&quot;noHover&quot;:false,&quot;origItem&quot;:[&quot;Path&quot;,{&quot;applyMatrix&quot;:true,&quot;segments&quot;:[[[388.41255,232.6206],[0,0],[0.06725,0.11906]],[[388.56829,233.05572],[-0.03452,-0.17261],[0.24515,1.22573]],[387.58771,234.52659],[[387.01503,234.49863],[0,0],[-2.12963,1.26252]],[[390.34758,235.60383],[-1.29259,-0.26198],[1.47664,0.00642]],[[394.55491,236.04537],[-1.47044,0.12953],[0.62975,-0.05547]],[[398.5708,235.34406],[-0.29645,0.79374],[0.20368,-0.54533]],[[395.36074,232.70976],[0.5072,0.1782],[-1.56915,-0.55129]],[[388.41254,232.6206],[2.10198,-0.68468],[0,0]]],&quot;closed&quot;:true,&quot;fillColor&quot;:[0,0,0,1],&quot;strokeWidth&quot;:0.5}]}" fill="#fff69c" stroke="none" stroke-width="0.25"/><path d="M414.22066,202.50821c-0.58688,-0.81321 0.16975,-1.56984 0.16975,-1.56984c2.82765,-2.5332 8.75989,-1.74438 12.41126,-1.6962c1.27092,0.01677 2.64752,-0.19384 3.47984,1.22361c1.0281,1.75086 0.45358,3.20583 -0.94944,4.34634c-2.44471,1.9873 -7.29145,1.84228 -10.07732,1.05694c-1.54679,-0.78507 -3.08757,-1.08343 -4.70981,-1.79615zM416.71748,202.25124c1.16033,0.41713 2.28594,0.71698 3.44357,1.28789c1.51303,0.4406 2.34475,0.26746 3.87735,0.14091c0.53237,-0.04396 5.13545,-0.37672 4.16039,-1.83139c-0.25172,-0.37553 -3.13967,-0.10647 -3.17057,-0.10647c-1.77944,0 -6.41918,-0.53186 -8.31074,0.50907z" fill="#000000" stroke="none" stroke-width="0.5"/><path d="M416.66764,202.24728c1.89156,-1.04093 6.62775,-0.5232 8.40719,-0.5232c0.0309,0 2.92167,-0.2585 3.17339,0.11703c0.97506,1.45467 -3.6353,1.82188 -4.16767,1.86584c-1.5326,0.12655 -2.45368,0.28925 -3.96671,-0.15135c-1.15763,-0.57091 -2.28587,-0.8912 -3.4462,-1.30833z" data-paper-data="{&quot;noHover&quot;:false,&quot;origItem&quot;:[&quot;Path&quot;,{&quot;applyMatrix&quot;:true,&quot;segments&quot;:[[[416.71748,202.25124],[0,0],[1.16033,0.41713]],[[420.16105,203.53913],[-1.15763,-0.57091],[1.51303,0.4406]],[[424.0384,203.68004],[-1.5326,0.12655],[0.53237,-0.04396]],[[428.19879,201.84865],[0.97506,1.45467],[-0.25172,-0.37553]],[[425.02822,201.74218],[0.0309,0],[-1.77944,0]],[[416.71748,202.25125],[1.89156,-1.04093],[0,0]]],&quot;closed&quot;:true,&quot;fillColor&quot;:[0,0,0,1],&quot;strokeWidth&quot;:0.5}]}" fill="#fff69c" stroke="none" stroke-width="0.25"/><path d="M196.75796,263.64175v-167.28349h246.48409v167.28349z" fill="none" stroke="#000000" stroke-width="0"/><path d="M196.75799,263.64177v-167.28349h246.48409v167.28349z" fill="none" stroke="#000000" stroke-width="0"/></g></g></svg>