<svg version="1.1" xmlns="http://www.w3.org/2000/svg" xmlns:xlink="http://www.w3.org/1999/xlink" width="246.48409" height="167.28349" viewBox="0,0,246.48409,167.28349"><g transform="translate(-196.75798,-96.35827)"><g data-paper-data="{&quot;isPaintingLayer&quot;:true}" fill-rule="nonzero" stroke-linecap="butt" stroke-linejoin="miter" stroke-miterlimit="10" stroke-dasharray="" stroke-dashoffset="0" style="mix-blend-mode: normal"><path d="M339.8261,193.4392c9.18641,3.06214 18.94398,0.36154 27.83145,-2.18485c3.00872,-0.85133 6.60607,-1.56328 9.74471,-1.37488c2.11581,0.12701 4.51106,1.13635 6.60152,1.57656c2.93568,0.61819 6.0364,0.57925 8.49515,2.46049c1.75346,1.3416 1.66877,3.28243 2.3819,5.18036c0.91643,2.43898 2.78765,4.54904 3.85515,6.97231c2.26707,5.2628 0.00571,9.13221 -1.60957,14.2462c-0.89786,2.84264 -1.2536,5.92524 -2.8265,8.5434c-3.25231,5.41359 -9.60807,10.33855 -15.74549,11.5702c-2.28464,0.91143 -4.1397,1.10874 -6.5349,1.57833c-3.47151,0.6806 -6.1377,2.4784 -9.75713,1.2833c-2.9558,-0.97598 -4.42855,-3.6374 -7.77898,-3.92379c-5.1901,-0.44364 -10.83383,-0.14046 -15.99329,0.44691c-12.36508,0.00979 -24.15369,2.46557 -36.41095,3.5763c-3.79085,0.34352 -7.36494,1.69371 -11.15987,1.79936c-6.24467,0.1494 -12.74177,0.92819 -18.91825,1.92416c-4.47603,0.72177 -8.9168,2.0528 -13.52641,1.44125c-5.51398,-0.73153 -12.24597,-4.64663 -15.37656,-9.17579c-2.51415,-3.70337 -3.67761,-6.58614 -4.29931,-10.96316c-0.27939,-1.96704 -0.97917,-4.82079 -0.35814,-6.79968c0.58951,-1.87845 1.67639,-2.45737 3.13738,-3.68775c4.82588,-4.06415 11.48249,-5.57989 17.65129,-5.21702c0,0 0.28707,0.01689 0.57774,0.17215c-0.06637,-0.09636 -0.16658,-0.18509 -0.30634,-0.26477c-1.19317,-0.3759 -3.57486,-0.64351 -4.46096,-1.50826c-0.43117,-0.42078 -1.7398,-3.95071 -1.89371,-4.34422c-1.62484,-4.15454 -2.64739,-7.47034 -2.05679,-11.93333v-1.26833c0,-0.69036 0.55964,-1.25 1.25,-1.25c0.52567,0 0.97555,0.32448 1.16028,0.78408l0.4684,1.09294c0.3918,0.08805 0.84935,-0.09565 1.30041,-0.22114l-0.00001,0.00001c0.08387,-0.07198 0.28071,-0.22246 0.54055,-0.30152c2.56902,-1.56652 5.42861,-2.21001 8.20728,-3.59979c2.11519,-1.05793 3.62118,-2.87082 6.24034,-1.89924c0.7528,0.27926 1.46093,0.61641 2.13508,0.99621c0.21902,-1.01477 0.43954,-1.9402 0.44239,-3.08461c1.13785,-3.10121 2.92433,-7.56348 2.43051,-10.90929c-0.49237,-3.33592 -2.43269,-6.25651 -3.18788,-9.51612c-0.57677,-2.4895 -0.26794,-4.9711 -0.78809,-7.47129c-0.68639,-3.29927 -2.33596,-6.29824 -4.1507,-9.10625c-1.20036,-6.6378 4.6416,-10.30233 8.15765,-14.97312c1.56873,-2.08393 1.17722,-3.55286 1.52065,-5.83189c0.47085,-3.1246 2.1558,-5.71638 2.76563,-8.74508c0.50885,-2.52718 0.66293,-4.96085 1.36354,-7.47604c0.22483,-0.67388 1.19375,-3.98576 1.89053,-4.54982c0.55389,-0.44839 1.3921,-0.30569 2.08799,-0.45928c2.70922,-0.59795 7.03921,-1.79612 9.60056,-0.22767c2.26765,1.3886 1.06884,4.75592 2.14058,6.62375c1.97687,3.44526 5.11865,7.1926 4.80526,11.53037c-0.10657,1.47504 -0.87396,3.11104 -1.18707,4.57652c-1.76657,8.22668 1.09032,15.95213 1.85635,24.16c0.20511,2.19776 0.3965,4.39711 0.69084,6.57853c1.02577,0.29245 0.84168,1.39703 0.84168,1.39703l-0.00001,-0.00001c-0.14526,0.77269 -0.18924,1.65335 -0.15742,2.59018c0.26718,1.23817 0.59211,2.46645 0.997,3.68113c0,0 0.27002,0.81005 -0.30578,1.31431c0.40153,1.82164 0.91627,3.53366 1.37988,4.80177c0.49653,1.35815 0.2456,2.67093 0.55253,4.01165c6.09267,-0.87906 6.13284,-10.11111 2.47731,-13.83676l-1.1693,-0.58465c-0.42281,-0.20043 -0.7152,-0.63114 -0.7152,-1.13014c0,-0.58089 0.39623,-1.06923 0.93317,-1.2095l1.52519,-0.43577l0.10204,0.35714c8.99123,-3.0241 21.00948,3.34992 23.59949,12.43319c1.18611,4.15972 -0.26129,8.43156 1.48061,12.4609c1.39885,2.44358 3.08689,4.8581 4.65598,7.2954zM243.18753,219.84141c-0.62764,0.52749 -2.04914,1.3906 -2.33209,2.4219c-1.41357,5.15223 1.55276,11.65149 4.31081,15.71118c2.63373,3.96312 8.88685,7.47182 13.63719,8.10204c4.34676,0.57668 8.55996,-0.74577 12.77889,-1.42765c6.29492,-1.01741 12.91036,-1.79839 19.27557,-1.95873c3.71842,-0.0776 7.27342,-1.45047 10.99837,-1.79016c12.27955,-1.1198 24.09977,-3.59258 36.49126,-3.58219c5.24282,-0.60552 11.10002,-0.95462 16.37204,-0.43981c3.68684,0.36002 5.22776,2.99169 8.3793,4.0567c2.32685,0.78632 4.22869,-0.17551 6.43951,-0.87078c2.79641,-0.87943 5.5657,-0.93312 8.3037,-2.03128c5.68424,-1.13294 11.34901,-5.63939 14.40304,-10.59783c1.43064,-2.32275 1.68801,-5.31738 2.49382,-7.86094c1.39605,-4.40665 3.70107,-8.0249 1.70667,-12.50262c-1.07925,-2.48659 -2.91795,-4.57447 -3.89469,-7.06805c-0.45253,-1.15528 -0.50141,-2.45199 -1.01658,-3.58074c-0.79389,-1.73945 -4.11923,-1.79313 -5.58997,-2.07332c-2.7216,-0.51849 -5.97578,-1.83851 -8.72357,-1.97625c-2.84876,-0.1428 -6.14974,0.49764 -8.87643,1.28528c-8.75933,2.49517 -18.43224,5.14981 -27.54396,2.66484c0.34862,0.6081 0.6802,1.21884 0.9886,1.83299c1.41617,2.82018 1.68399,7.1248 4.35077,9.22213c0.78465,0.6171 3.25338,0.16579 3.92075,0.03845c2.90884,-0.55503 5.67282,-1.33378 8.61978,-1.98933c1.87615,-0.46902 4.84248,-0.67135 6.3668,-1.96692c3.34046,-2.83916 5.04177,-8.74703 9.40303,-10.38547c3.06066,-1.14983 3.62677,0.88052 4.52561,3.14133c1.91312,4.81197 2.95142,10.91349 0.60142,15.67421c-1.75565,3.31555 -4.47639,5.98364 -6.2315,9.1315c-1.59891,2.86769 0.1864,7.12828 -1.28079,9.88319c-0.37975,0.71305 -1.09473,1.31602 -1.87065,1.54095c-1.98189,0.57453 -8.45655,0.06078 -9.80229,-1.79491c-1.53978,-2.12327 0.74934,-5.56945 -1.01606,-7.33485c-6.08264,0.33807 -11.96856,-0.44732 -18.05132,-0.52964c-0.52667,-0.00713 -5.03088,-0.40917 -5.38749,0.23066c-1.06479,1.91046 -1.48138,4.53842 -2.58112,6.52109c-2.95905,5.33476 -9.26128,3.0154 -13.08827,0.46897c-2.89737,-2.04762 -5.83836,-4.74 -8.73816,-6.56484c-1.83099,-1.15225 -6.33204,-0.2514 -8.42546,-0.25277c-4.04376,-0.00266 -7.79602,-0.93448 -11.85353,-0.26986c-3.56735,0.58433 -6.6416,2.16695 -10.07812,2.90747c-1.16311,0.25063 -2.42939,0.27709 -3.46243,0.8674c-4.89826,0.09542 -7.35708,3.53672 -11.62376,5.0582c-2.55955,0.91272 -6.21862,-0.61081 -7.68562,-2.90149c-1.71468,-2.67742 -2.14515,-9.26415 -1.02387,-12.22977c0.15543,-0.41108 0.65026,-0.91827 1.16193,-1.44129c-5.39686,-0.21245 -11.14165,1.12328 -15.35111,4.66101zM305.62401,181.08858c-0.74148,0.18537 -1.14294,-0.19598 -1.34296,-0.52031c-1.74126,-0.12525 -3.51017,-0.4734 -5.0859,-1.22349c-1.53787,-0.73206 -3.62189,-3.61389 -5.65388,-2.99969c-1.27149,0.38433 -3.55302,3.28156 -4.47239,4.25688c-0.86781,0.92062 -1.98854,1.67782 -2.54924,2.81195c-0.91484,1.85048 2.84255,4.60314 3.81296,5.81884c2.65946,3.3317 2.34962,8.2409 0.16471,11.57858c-7.97897,1.77693 -12.01398,-4.23578 -17.54499,-8.22201c-0.24326,-0.07723 -0.41287,-0.21642 -0.53113,-0.37297c-0.93672,-0.64003 -1.91961,-1.21538 -2.97371,-1.68086c-1.58206,-0.69863 -3.15013,1.19273 -4.31667,1.77153c-3.14566,1.56078 -6.62557,2.06659 -9.31791,4.42354c0,0 -0.94907,0.81349 -1.76256,-0.13558c-0.02442,-0.02849 -0.04725,-0.05686 -0.06857,-0.08509l-0.00001,-0.00003c-0.19103,0.01118 -0.37002,0.01352 -0.53282,-0.00022c-0.15577,3.3469 0.71017,5.98686 2.0252,9.34567c0.44234,1.12981 0.4239,2.53472 1.25837,3.41552c0.4951,0.52259 3.23321,0.89924 3.9629,1.15191c0.54589,0.48109 1.35881,0.77119 1.63767,1.44326c1.34206,3.23442 -1.77871,3.36023 -2.6172,5.63785c-0.80208,2.17872 -0.54108,7.94235 0.74957,9.93827c0.79326,1.22674 3.30388,2.59213 4.72848,1.97548c4.11273,-1.78024 7.0069,-5.25611 11.87435,-5.1391c1.08318,-0.61896 2.40924,-0.65531 3.63134,-0.90604c0.51814,-0.1063 3.68104,-1.61712 4.09397,-1.74472c1.83187,-0.56607 4.1156,-0.85918 6.01098,-1.16776c4.22985,-0.68865 8.09967,0.23264 12.29947,0.22977c2.86699,-0.00196 7.14894,-0.82043 9.75233,0.63395c2.94714,1.64641 5.97013,4.60376 8.82627,6.62264c1.08078,0.72201 2.66777,1.89525 3.94347,2.32685c6.9886,2.36441 5.80664,-8.779 10.45952,-9.8222c4.01348,-0.89984 8.80715,-0.04213 12.84652,0.31666c3.85392,0.34232 7.5704,0.11452 11.40042,0.23893c0.66886,0.66886 1.56975,1.16758 2.00658,2.00658c0.83602,1.60571 -0.83486,4.71199 0.08088,6.1762c0.60944,0.97445 5.96431,0.85267 7.04542,0.86526c0.53464,0.00623 0.18026,-1.05516 0.22887,-1.58762c0.20235,-2.2166 0.38152,-4.65099 0.91583,-6.82175c0.55855,-2.26926 2.06357,-3.54057 3.46903,-5.32109c1.35627,-1.7182 2.25668,-3.65481 3.27513,-5.57783c1.43321,-2.82388 1.22837,-3.79043 0.6596,-6.89094c-0.45232,-2.46571 -0.43682,-4.42103 -1.369,-6.73518c-0.25948,-0.64416 -0.07951,-1.61353 -0.67488,-1.97104c-0.6894,-0.41397 -1.39305,0.82287 -1.99599,1.35495c-1.86282,1.64389 -2.8838,3.76265 -4.3692,5.70135c-2.9517,3.85248 -5.85437,4.53092 -10.35015,5.65491c-2.55527,0.56724 -4.85097,1.23078 -7.40241,1.56906c-2.19844,0.29148 -4.97549,1.5523 -7.10205,0.02695c-3.24579,-2.32815 -3.55828,-6.90797 -5.19602,-10.17982c-0.60859,-1.21583 -1.3099,-2.41837 -2.05522,-3.61376c-0.18913,-0.1376 -0.3555,-0.34795 -0.42218,-0.66952c-1.64916,-2.58837 -3.46269,-5.14856 -4.94317,-7.74349c-1.81873,-4.27292 -0.42894,-8.47924 -1.62292,-12.81066c-0.89052,-3.23055 -4.32288,-7.4641 -7.27977,-9.08439c-3.0121,-1.65054 -6.33586,-2.02055 -9.70792,-2.01867c-0.75362,0.00042 -1.59399,0.1644 -2.36428,0.15801c4.14728,5.74235 3.08914,15.66619 -4.74791,17.04611c-0.13256,0.23277 -0.37026,0.44423 -0.78683,0.54838zM303.28257,175.04183c-1.06679,-2.61045 -2.0163,-6.65704 -2.20268,-10.21078c-0.773,-3.57998 -1.0932,-7.24075 -1.42974,-10.89379c-0.78398,-8.50984 -3.63835,-16.36835 -1.81156,-24.91458c0.28896,-1.34535 1.02245,-2.8455 1.1356,-4.19418c0.32116,-3.8279 -2.89928,-7.13753 -4.50531,-10.1943c-0.65435,-1.24542 -0.12993,-5.13179 -1.4063,-5.79035c-1.99622,-1.02998 -5.62633,0.36655 -7.69051,0.65905c-0.33521,0.0475 -0.74811,-0.22353 -1.01554,-0.01591c-0.90878,0.70553 -0.65718,2.20555 -1.02069,3.29712c-0.68209,2.438 -0.79495,4.79812 -1.30506,7.24664c-0.62423,2.9963 -2.25326,5.52236 -2.73857,8.58776c-0.42514,2.68529 -0.198,4.58067 -2.02624,7.02556c-2.73701,3.66019 -8.54239,7.31488 -7.80334,12.51524c1.97323,2.84758 3.56572,6.11313 4.27315,9.51489c0.51567,2.47968 0.19715,4.96168 0.77526,7.41326c0.78497,3.3288 2.75195,6.30987 3.22926,9.7381c0.5126,3.68164 -1.13599,8.29004 -2.44646,11.7021c0.00386,1.50678 -0.40568,2.66818 -0.65099,4.12807c4.53863,3.42001 7.88671,8.2147 14.46628,8.07639c0.90257,-1.61983 0.84237,-4.92287 0.19166,-6.71586c-1.31529,-3.62424 -6.73771,-4.90884 -5.0812,-9.58213c0.92202,-2.60116 4.77141,-5.3018 6.80039,-6.99718c0.57095,-0.47707 0.97335,-1.27293 1.6956,-1.45161c1.07755,-0.26658 2.26391,-0.121 3.32348,0.2099c1.16492,0.3638 3.07282,2.34065 4.23091,2.89238c1.03278,0.49204 2.22147,0.78227 3.40416,0.92653c-0.08028,-1.0316 -0.03634,-2.10308 -0.39157,-2.97232z" fill="#000000" stroke="none" stroke-width="0.5"/><path d="M243.13755,219.84178c4.20946,-3.53773 9.95436,-4.87722 15.35122,-4.66477c-0.51167,0.52302 -0.90666,1.03577 -1.06209,1.44685c-1.12128,2.96562 -0.69138,9.54237 1.0233,12.21979c1.467,2.29068 5.02802,3.83352 7.58757,2.9208c4.26668,-1.52148 6.72495,-4.96542 11.62321,-5.06084c1.03304,-0.59031 2.29927,-0.61708 3.46238,-0.86771c3.43652,-0.74052 6.51046,-2.32517 10.07781,-2.9095c4.05751,-0.66462 7.90787,0.24865 11.95163,0.25131c2.09342,0.00137 6.58943,-0.91212 8.42042,0.24013c2.8998,1.82484 5.79078,4.49232 8.68815,6.53994c3.82699,2.54643 10.09492,4.88649 13.05397,-0.44827c1.09974,-1.98267 1.50831,-4.59243 2.5731,-6.50289c0.35661,-0.63983 4.86026,-0.23482 5.38693,-0.22769c6.08276,0.08232 12.06784,0.88036 18.15048,0.54229c1.7654,1.7654 -0.52525,5.21983 1.01453,7.3431c1.34574,1.85569 7.72374,2.34383 9.70563,1.7693c0.77592,-0.22493 1.49049,-0.82615 1.87024,-1.5392c1.46719,-2.75491 -0.31925,-7.00642 1.27966,-9.87411c1.75511,-3.14786 4.47619,-5.80831 6.23184,-9.12386c2.35,-4.76072 1.31465,-10.85037 -0.59847,-15.66234c-0.89884,-2.26081 -1.37304,-4.3304 -4.4337,-3.18057c-4.36126,1.63844 -6.06049,7.55143 -9.40095,10.39059c-1.52432,1.29557 -4.58517,1.53054 -6.46132,1.99956c-2.94696,0.65555 -5.71045,1.43564 -8.61929,1.99067c-0.66737,0.12734 -3.13519,0.58087 -3.91984,-0.03623c-2.66678,-2.09733 -2.92555,-6.38807 -4.34172,-9.20825c-0.3084,-0.61415 -0.56867,-1.29492 -0.91729,-1.90302c9.11172,2.48497 18.79449,-0.15651 27.55382,-2.65168c2.72669,-0.78764 6.02868,-1.42602 8.87744,-1.28322c2.74779,0.13774 6.00343,1.46128 8.72503,1.97977c1.47074,0.28019 4.79691,0.33629 5.5908,2.07574c0.51517,1.12875 0.56473,2.42781 1.01726,3.58309c0.97674,2.49358 2.81646,4.58634 3.89571,7.07293c1.9944,4.47772 -0.31001,8.10394 -1.70606,12.51059c-0.80581,2.54356 -1.06349,5.54352 -2.49413,7.86627c-3.05403,4.95844 -8.72084,9.47452 -14.40508,10.60746c-2.738,1.09816 -5.50868,1.15567 -8.30509,2.0351c-2.21082,0.69527 -4.11401,1.66011 -6.44086,0.87379c-3.15154,-1.06501 -4.69248,-3.69664 -8.37932,-4.05666c-5.27202,-0.51481 -11.13741,-0.15377 -16.38023,0.45175c-12.39149,-0.01039 -24.27932,2.46773 -36.55887,3.58753c-3.72495,0.33969 -7.2874,1.70533 -11.00582,1.78293c-6.36521,0.16034 -12.98635,0.93289 -19.28127,1.9503c-4.21893,0.68188 -8.43373,2.00106 -12.78049,1.42438c-4.75034,-0.63022 -11.00626,-4.147 -13.63999,-8.11012c-2.75805,-4.05969 -5.72588,-10.56933 -4.31231,-15.72156c0.28295,-1.0313 1.70441,-1.89595 2.33205,-2.42344z" data-paper-data="{&quot;noHover&quot;:false,&quot;origItem&quot;:[&quot;Path&quot;,{&quot;applyMatrix&quot;:true,&quot;segments&quot;:[[[243.18753,219.84141],[0,0],[-0.62764,0.52749]],[[240.85544,222.26331],[0.28295,-1.0313],[-1.41357,5.15223]],[[245.16625,237.97449],[-2.75805,-4.05969],[2.63373,3.96312]],[[258.80344,246.07653],[-4.75034,-0.63022],[4.34676,0.57668]],[[271.58233,244.64888],[-4.21893,0.68188],[6.29492,-1.01741]],[[290.8579,242.69015],[-6.36521,0.16034],[3.71842,-0.0776]],[[301.85627,240.89999],[-3.72495,0.33969],[12.27955,-1.1198]],[[338.34753,237.3178],[-12.39149,-0.01039],[5.24282,-0.60552]],[[354.71957,236.87799],[-5.27202,-0.51481],[3.68684,0.36002]],[[363.09887,240.93469],[-3.15154,-1.06501],[2.32685,0.78632]],[[369.53838,240.06391],[-2.21082,0.69527],[2.79641,-0.87943]],[[377.84208,238.03263],[-2.738,1.09816],[5.68424,-1.13294]],[[392.24512,227.4348],[-3.05403,4.95844],[1.43064,-2.32275]],[[394.73894,219.57386],[-0.80581,2.54356],[1.39605,-4.40665]],[[396.44561,207.07124],[1.9944,4.47772],[-1.07925,-2.48659]],[[392.55092,200.00319],[0.97674,2.49358],[-0.45253,-1.15528]],[[391.53434,196.42245],[0.51517,1.12875],[-0.79389,-1.73945]],[[385.94437,194.34913],[1.47074,0.28019],[-2.7216,-0.51849]],[[377.2208,192.37288],[2.74779,0.13774],[-2.84876,-0.1428]],[[368.34437,193.65816],[2.72669,-0.78764],[-8.75933,2.49517]],[[340.80041,196.323],[9.11172,2.48497],[0.34862,0.6081]],[[341.78901,198.15599],[-0.3084,-0.61415],[1.41617,2.82018]],[[346.13978,207.37812],[-2.66678,-2.09733],[0.78465,0.6171]],[[350.06053,207.41657],[-0.66737,0.12734],[2.90884,-0.55503]],[[358.68031,205.42724],[-2.94696,0.65555],[1.87615,-0.46902]],[[365.04711,203.46032],[-1.52432,1.29557],[3.34046,-2.83916]],[[374.45014,193.07485],[-4.36126,1.63844],[3.06066,-1.14983]],[[378.97575,196.21618],[-0.89884,-2.26081],[1.91312,4.81197]],[[379.57717,211.89039],[2.35,-4.76072],[-1.75565,3.31555]],[[373.34567,221.02189],[1.75511,-3.14786],[-1.59891,2.86769]],[[372.06488,230.90508],[1.46719,-2.75491],[-0.37975,0.71305]],[[370.19423,232.44603],[0.77592,-0.22493],[-1.98189,0.57453]],[[360.39194,230.65112],[1.34574,1.85569],[-1.53978,-2.12327]],[[359.37588,223.31627],[1.7654,1.7654],[-6.08264,0.33807]],[[341.32456,222.78663],[6.08276,0.08232],[-0.52667,-0.00713]],[[335.93707,223.01729],[0.35661,-0.63983],[-1.06479,1.91046]],[[333.35595,229.53838],[1.09974,-1.98267],[-2.95905,5.33476]],[[320.26768,230.00735],[3.82699,2.54643],[-2.89737,-2.04762]],[[311.52952,223.44251],[2.8998,1.82484],[-1.83099,-1.15225]],[[303.10406,223.18974],[2.09342,0.00137],[-4.04376,-0.00266]],[[291.25053,222.91988],[4.05751,-0.66462],[-3.56735,0.58433]],[[281.17241,225.82735],[3.43652,-0.74052],[-1.16311,0.25063]],[[277.70998,226.69475],[1.03304,-0.59031],[-4.89826,0.09542]],[[266.08622,231.75295],[4.26668,-1.52148],[-2.55955,0.91272]],[[258.4006,228.85146],[1.467,2.29068],[-1.71468,-2.67742]],[[257.37673,216.62169],[-1.12128,2.96562],[0.15543,-0.41108]],[[258.53866,215.1804],[-0.51167,0.52302],[-5.39686,-0.21245]],[[243.18755,219.84141],[4.20946,-3.53773],[0,0]]],&quot;closed&quot;:true,&quot;fillColor&quot;:[0,0,0,1]}]}" fill="#fff69c" stroke="none" stroke-width="0.5"/><path d="M303.31334,175.08123c0.35523,0.86924 0.30924,1.94224 0.38952,2.97384c-1.18269,-0.14426 -2.37487,-0.43225 -3.40765,-0.92429c-1.15809,-0.55173 -3.07028,-2.52634 -4.2352,-2.89014c-1.05957,-0.3309 -2.25237,-0.47403 -3.32992,-0.20745c-0.72225,0.17868 -1.1291,0.97567 -1.70005,1.45274c-2.02898,1.69538 -5.89243,4.39688 -6.81445,6.99804c-1.65651,4.67329 3.76633,5.85818 5.08162,9.48242c0.65071,1.79299 0.71735,5.19582 -0.18522,6.81565c-6.57957,0.13831 -9.94578,-4.65869 -14.48441,-8.0787c0.24531,-1.45989 0.65397,-2.62158 0.65011,-4.12836c1.31047,-3.41206 2.95607,-8.02159 2.44347,-11.70323c-0.47731,-3.42823 -2.4613,-6.42096 -3.24627,-9.74976c-0.57811,-2.45158 -0.27108,-4.95296 -0.78675,-7.43264c-0.70743,-3.40176 -2.29991,-6.69765 -4.27314,-9.54523c-0.73905,-5.20036 5.09103,-8.88429 7.82804,-12.54448c1.82824,-2.44489 1.61011,-4.34386 2.03525,-7.02915c0.48531,-3.0654 2.12161,-5.59299 2.74584,-8.58929c0.51011,-2.44852 0.62571,-4.80893 1.3078,-7.24693c0.36351,-1.09157 0.11335,-2.59168 1.02213,-3.29721c0.26743,-0.20762 0.68148,0.06337 1.01669,0.01587c2.06418,-0.2925 5.70282,-1.68852 7.69904,-0.65854c1.27637,0.65856 0.75471,4.54541 1.40906,5.79083c1.60603,3.05677 4.83634,6.3695 4.51518,10.1974c-0.11315,1.34868 -0.84559,2.8493 -1.13455,4.19465c-1.82679,8.54623 1.05668,16.45144 1.84066,24.96128c0.33654,3.65304 0.64633,7.34309 1.41933,10.92307c0.18638,3.55374 1.12709,7.60918 2.19388,10.21963z" data-paper-data="{&quot;noHover&quot;:false,&quot;origItem&quot;:[&quot;Path&quot;,{&quot;applyMatrix&quot;:true,&quot;segments&quot;:[[[303.28257,175.04183],[0,0],[-1.06679,-2.61045]],[[301.07989,164.83105],[0.18638,3.55374],[-0.773,-3.57998]],[[299.65015,153.93726],[0.33654,3.65304],[-0.78398,-8.50984]],[[297.83859,129.02268],[-1.82679,8.54623],[0.28896,-1.34535]],[[298.97419,124.8285],[-0.11315,1.34868],[0.32116,-3.8279]],[[294.46888,114.6342],[1.60603,3.05677],[-0.65435,-1.24542]],[[293.06258,108.84385],[1.27637,0.65856],[-1.99622,-1.02998]],[[285.37207,109.5029],[2.06418,-0.2925],[-0.33521,0.0475]],[[284.35653,109.48699],[0.26743,-0.20762],[-0.90878,0.70553]],[[283.33584,112.78411],[0.36351,-1.09157],[-0.68209,2.438]],[[282.03078,120.03075],[0.51011,-2.44852],[-0.62423,2.9963]],[[279.29221,128.61851],[0.48531,-3.0654],[-0.42514,2.68529]],[[277.26597,135.64407],[1.82824,-2.44489],[-2.73701,3.66019]],[[269.46263,148.15931],[-0.73905,-5.20036],[1.97323,2.84758]],[[273.73578,157.6742],[-0.70743,-3.40176],[0.51567,2.47968]],[[274.51104,165.08746],[-0.57811,-2.45158],[0.78497,3.3288]],[[277.7403,174.82556],[-0.47731,-3.42823],[0.5126,3.68164]],[[275.29384,186.52766],[1.31047,-3.41206],[0.00386,1.50678]],[[274.64285,190.65573],[0.24531,-1.45989],[4.53863,3.42001]],[[289.10913,198.73212],[-6.57957,0.13831],[0.90257,-1.61983]],[[289.30079,192.01626],[0.65071,1.79299],[-1.31529,-3.62424]],[[284.21959,182.43413],[-1.65651,4.67329],[0.92202,-2.60116]],[[291.01998,175.43695],[-2.02898,1.69538],[0.57095,-0.47707]],[[292.71558,173.98534],[-0.72225,0.17868],[1.07755,-0.26658]],[[296.03906,174.19524],[-1.05957,-0.3309],[1.16492,0.3638]],[[300.26997,177.08762],[-1.15809,-0.55173],[1.03278,0.49204]],[[303.67413,178.01415],[-1.18269,-0.14426],[-0.08028,-1.0316]],[[303.28256,175.04183],[0.35523,0.86924],[0,0]]],&quot;closed&quot;:true,&quot;fillColor&quot;:[0,0,0,1],&quot;strokeWidth&quot;:0.5}]}" fill="#fdfff4" stroke="none" stroke-width="0.25"/><path d="M305.59678,181.04666c0.41657,-0.10415 0.65642,-0.31693 0.78898,-0.5497c7.83705,-1.37992 8.91321,-11.31 4.76593,-17.05235c0.77029,0.00639 1.61415,-0.15796 2.36777,-0.15838c3.37206,-0.00188 6.71064,0.36928 9.72274,2.01982c2.95689,1.62029 6.40517,5.86058 7.29569,9.09113c1.19398,4.33142 -0.18009,8.554 1.63864,12.82692c1.48048,2.59493 3.30092,5.1762 4.95008,7.76457c0.06668,0.32157 0.23318,0.53355 0.42231,0.67115c0.74532,1.19539 1.44648,2.40582 2.05507,3.62165c1.63774,3.27185 1.94634,7.86669 5.19213,10.19484c2.12656,1.52535 4.8105,0.22826 7.00894,-0.06322c2.55144,-0.33828 4.84589,-0.99762 7.40116,-1.56486c4.49578,-1.12399 7.39718,-1.79509 10.34888,-5.64757c1.4854,-1.9387 2.50615,-4.0522 4.36897,-5.69609c0.60294,-0.53208 1.40657,-1.77084 2.09597,-1.35687c0.59537,0.35751 0.41542,1.32852 0.6749,1.97268c0.93218,2.31415 0.91638,4.27486 1.3687,6.74057c0.56877,3.10051 0.7727,4.07249 -0.66051,6.89637c-1.01845,1.92302 -1.92021,3.86448 -3.27648,5.58268c-1.40546,1.78052 -2.91235,3.05661 -3.4709,5.32587c-0.53431,2.17076 -0.71591,4.60986 -0.91826,6.82646c-0.04861,0.53246 0.30516,1.59486 -0.22948,1.58863c-1.08111,-0.01259 -6.5196,0.05442 -7.12904,-0.92003c-0.91574,-1.46421 0.75263,-4.56648 -0.08339,-6.17219c-0.43683,-0.839 -1.25015,-1.28944 -1.91901,-1.9583c-3.83002,-0.12441 -7.54992,0.10883 -11.40384,-0.23349c-4.03937,-0.35879 -8.84103,-1.2078 -12.85451,-0.30796c-4.65288,1.0432 -3.48951,12.19667 -10.47811,9.83226c-1.2757,-0.4316 -2.86754,-1.60369 -3.94832,-2.3257c-2.85614,-2.01888 -5.89452,-4.97579 -8.84166,-6.6222c-2.60339,-1.45438 -6.90286,-0.64154 -9.76985,-0.63958c-4.1998,0.00287 -8.08236,-0.92825 -12.31221,-0.2396c-1.89538,0.30858 -4.18178,0.59859 -6.01365,1.16466c-0.41293,0.1276 -3.57664,1.63736 -4.09478,1.74366c-1.2221,0.25073 -2.54906,0.28584 -3.63224,0.9048c-4.86745,-0.11701 -7.76283,3.35705 -11.87556,5.13729c-1.4246,0.61665 -3.93692,-0.7516 -4.73018,-1.97834c-1.29065,-1.99592 -1.55479,-7.76647 -0.75271,-9.94519c0.83849,-2.27762 3.95805,-2.4072 2.61599,-5.64162c-0.27886,-0.67207 -1.09219,-0.96373 -1.63808,-1.44482c-0.72969,-0.25267 -3.46817,-0.63098 -3.96327,-1.15357c-0.83447,-0.8808 -0.81654,-2.28861 -1.25888,-3.41842c-1.31503,-3.35881 -2.1815,-6.00641 -2.02573,-9.35331c0.1628,0.01374 0.34179,0.0114 0.53282,0.00022l0.10001,0.00077c0.02132,0.02823 0.04415,0.05653 0.06857,0.08502c0.81349,0.94907 1.66256,0.13508 1.66256,0.13508c2.69234,-2.35695 6.17246,-2.86713 9.31812,-4.42791c1.16654,-0.5788 2.73487,-2.47245 4.31693,-1.77382c1.0541,0.46548 2.13622,1.05311 3.07294,1.69314c0.11826,0.15655 0.28791,0.29538 0.53117,0.37261c5.53101,3.98623 9.46684,10.00134 17.44581,8.22441c2.18491,-3.33768 2.49633,-8.26881 -0.16313,-11.60051c-0.97041,-1.2157 -4.72535,-3.97482 -3.81051,-5.8253c0.5607,-1.13413 1.68414,-1.89642 2.55195,-2.81704c0.91937,-0.97532 3.20682,-3.88041 4.47831,-4.26474c2.03199,-0.6142 4.11835,2.26525 5.65622,2.99731c1.57573,0.75009 3.35011,1.09374 5.09137,1.21899c0.20002,0.32433 0.60321,0.7045 1.34469,0.51913z" data-paper-data="{&quot;noHover&quot;:false,&quot;origItem&quot;:[&quot;Path&quot;,{&quot;applyMatrix&quot;:true,&quot;segments&quot;:[[[305.62401,181.08858],[0,0],[-0.74148,0.18537]],[[304.28105,180.56827],[0.20002,0.32433],[-1.74126,-0.12525]],[[299.19515,179.34478],[1.57573,0.75009],[-1.53787,-0.73206]],[[293.54127,176.34509],[2.03199,-0.6142],[-1.27149,0.38433]],[[289.06888,180.60197],[0.91937,-0.97532],[-0.86781,0.92062]],[[286.51964,183.41392],[0.5607,-1.13413],[-0.91484,1.85048]],[[290.3326,189.23276],[-0.97041,-1.2157],[2.65946,3.3317]],[[290.49731,200.81134],[2.18491,-3.33768],[-7.97897,1.77693]],[[272.95232,192.58933],[5.53101,3.98623],[-0.24326,-0.07723]],[[272.42119,192.21636],[0.11826,0.15655],[-0.93672,-0.64003]],[[269.44748,190.5355],[1.0541,0.46548],[-1.58206,-0.69863]],[[265.13081,192.30703],[1.16654,-0.5788],[-3.14566,1.56078]],[[255.8129,196.73057],[2.69234,-2.35695],[0,0]],[[254.05034,196.59499],[0.81349,0.94907],[-0.02442,-0.02849]],[[253.98177,196.5099],[0.02132,0.02823],[0,0]],[[253.98176,196.50987],[0,0],[-0.19103,0.01118]],[[253.44894,196.50965],[0.1628,0.01374],[-0.15577,3.3469]],[[255.47414,205.85532],[-1.31503,-3.35881],[0.44234,1.12981]],[[256.73251,209.27084],[-0.83447,-0.8808],[0.4951,0.52259]],[[260.69541,210.42275],[-0.72969,-0.25267],[0.54589,0.48109]],[[262.33308,211.86601],[-0.27886,-0.67207],[1.34206,3.23442]],[[259.71588,217.50386],[0.83849,-2.27762],[-0.80208,2.17872]],[[260.46545,227.44213],[-1.29065,-1.99592],[0.79326,1.22674]],[[265.19393,229.41761],[-1.4246,0.61665],[4.11273,-1.78024]],[[277.06828,224.27851],[-4.86745,-0.11701],[1.08318,-0.61896]],[[280.69962,223.37247],[-1.2221,0.25073],[0.51814,-0.1063]],[[284.79359,221.62775],[-0.41293,0.1276],[1.83187,-0.56607]],[[290.80457,220.45999],[-1.89538,0.30858],[4.22985,-0.68865]],[[303.10404,220.68976],[-4.1998,0.00287],[2.86699,-0.00196]],[[312.85637,221.32371],[-2.60339,-1.45438],[2.94714,1.64641]],[[321.68264,227.94635],[-2.85614,-2.01888],[1.08078,0.72201]],[[325.62611,230.2732],[-1.2757,-0.4316],[6.9886,2.36441]],[[336.08563,220.451],[-4.65288,1.0432],[4.01348,-0.89984]],[[348.93215,220.76766],[-4.03937,-0.35879],[3.85392,0.34232]],[[360.33257,221.00659],[-3.83002,-0.12441],[0.66886,0.66886]],[[362.33915,223.01317],[-0.43683,-0.839],[0.83602,1.60571]],[[362.42003,229.18937],[-0.91574,-1.46421],[0.60944,0.97445]],[[369.46545,230.05463],[-1.08111,-0.01259],[0.53464,0.00623]],[[369.69432,228.46701],[-0.04861,0.53246],[0.20235,-2.2166]],[[370.61015,221.64526],[-0.53431,2.17076],[0.55855,-2.26926]],[[374.07918,216.32417],[-1.40546,1.78052],[1.35627,-1.7182]],[[377.35431,210.74634],[-1.01845,1.92302],[1.43321,-2.82388]],[[378.01391,203.8554],[0.56877,3.10051],[-0.45232,-2.46571]],[[376.64491,197.12022],[0.93218,2.31415],[-0.25948,-0.64416]],[[375.97003,195.14918],[0.59537,0.35751],[-0.6894,-0.41397]],[[373.97404,196.50413],[0.60294,-0.53208],[-1.86282,1.64389]],[[369.60484,202.20548],[1.4854,-1.9387],[-2.9517,3.85248]],[[359.25469,207.86039],[4.49578,-1.12399],[-2.55527,0.56724]],[[351.85228,209.42945],[2.55144,-0.33828],[-2.19844,0.29148]],[[344.75023,209.4564],[2.12656,1.52535],[-3.24579,-2.32815]],[[339.55421,199.27658],[1.63774,3.27185],[-0.60859,-1.21583]],[[337.49899,195.66282],[0.74532,1.19539],[-0.18913,-0.1376]],[[337.07681,194.9933],[0.06668,0.32157],[-1.64916,-2.58837]],[[332.13364,187.24981],[1.48048,2.59493],[-1.81873,-4.27292]],[[330.51072,174.43915],[1.19398,4.33142],[-0.89052,-3.23055]],[[323.23095,165.35476],[2.95689,1.62029],[-3.0121,-1.65054]],[[313.52303,163.33609],[3.37206,-0.00188],[-0.75362,0.00042]],[[311.15875,163.4941],[0.77029,0.00639],[4.14728,5.74235]],[[306.41084,180.54021],[7.83705,-1.37992],[-0.13256,0.23277]],[[305.62401,181.08859],[0.41657,-0.10415],[0,0]]],&quot;closed&quot;:true,&quot;fillColor&quot;:[0,0,0,1],&quot;strokeWidth&quot;:0.5}]}" fill="#fdfff4" stroke="none" stroke-width="0.25"/><path d="M196.75799,263.64177v-167.28349h246.48409v167.28349z" fill="none" stroke="#000000" stroke-width="0"/></g></g></svg>