<svg version="1.1" xmlns="http://www.w3.org/2000/svg" xmlns:xlink="http://www.w3.org/1999/xlink" width="246.48409" height="167.28349" viewBox="0,0,246.48409,167.28349"><g transform="translate(-196.75798,-96.35827)"><g data-paper-data="{&quot;isPaintingLayer&quot;:true}" fill-rule="nonzero" stroke-linecap="butt" stroke-linejoin="miter" stroke-miterlimit="10" stroke-dasharray="" stroke-dashoffset="0" style="mix-blend-mode: normal"><path d="M311.11855,183.15922c0.02015,-4.09746 1.02997,-8.14334 0.66073,-12.37079c-0.10578,-1.21112 0.2523,-2.78762 -0.66439,-3.58617c-0.37478,-0.32648 -1.0769,0.12109 -1.48172,-0.16732c-0.70488,-0.50218 -0.97753,-1.49349 -1.71099,-1.95291c-0.5636,-0.35302 -1.17053,-0.65706 -1.69133,-1.06735c-0.06883,0.52781 -0.38125,1.1095 -0.44463,1.29309c-0.41056,1.18938 -1.53801,3.585 -3.02075,3.89847c-2.51919,0.53259 -3.00586,-0.81487 -4.48001,-2.36512c-0.8413,-0.62112 -1.96097,-0.70052 -2.97005,-1.0127c0.34855,2.12081 -0.39063,6.22688 -0.81919,7.63084c-0.86245,2.82541 -2.63585,2.92138 -3.07123,5.61931c-0.41367,2.56343 0.50932,3.82526 1.27604,5.47094c0.69149,-1.22341 1.47811,-2.44947 2.20854,-3.71431c1.0405,-1.80177 0.36298,-2.86819 3.11894,-2.87414c1.85769,-0.00401 4.04047,1.87761 5.73323,2.51679c2.88321,1.0887 5.18593,2.17425 7.0639,3.7775c0.10198,-0.36424 0.19929,-0.72979 0.2929,-1.09613zM290.95329,187.06433c-0.18067,-1.73841 -1.62635,-1.99875 -1.9866,-3.94441c-0.32788,-1.77087 -0.25837,-5.93254 0.83982,-7.58046c0.66388,-0.99619 1.98565,-1.61073 2.28661,-2.76941c0.45232,-1.74138 0.56163,-3.97257 0.84333,-5.75302c0.14731,-0.93101 -1.47873,-1.7593 -1.08001,-2.61342c1.52694,-3.27091 6.56384,-0.46384 8.08074,0.56083c0.48467,0.5633 0.90211,1.19231 1.45402,1.68991c1.36427,1.23002 3.17225,-5.57226 3.63685,-5.78638c1.04054,-0.47955 4.8855,2.19379 5.58813,2.97351c0.28113,0.31197 0.1325,0.92774 0.47878,1.16534c0.45216,0.31027 1.24979,-0.12685 1.62181,0.27604c0.83598,0.90536 1.44543,4.11714 1.55242,5.28104c0.40425,4.3978 -0.69186,8.64013 -0.66936,12.90077c-0.23827,0.97025 -0.49374,1.93764 -0.79404,2.89056c0.37886,0.49934 0.7366,1.04016 1.0754,1.62971c0.5457,0.11368 1.02278,0.27421 2.11532,0.7117c0.81952,0.32816 1.34429,1.29213 2.21155,1.45697c0.23942,0.0455 3.02566,-1.86098 3.76028,-1.97934c1.78839,-0.28814 4.36338,0.02132 6.11479,0.21468c4.5295,0.50005 8.07677,2.43399 12.31943,0.05233c3.96668,-0.46882 7.06301,-3.28859 10.87508,-3.82067c0.78009,-0.10888 1.60583,-0.11517 2.45707,-0.03778c-1.90404,-1.63603 -3.28138,-4.57309 -2.28369,-6.43123c0.84179,-1.56778 2.40975,-1.26697 3.74791,-1.29916l0.3277,-0.3114c0,0 0.44802,-0.22401 0.91865,-0.10482v0.00002c0.21043,-0.14504 0.40537,-0.20074 0.40537,-0.20074c2.59647,-0.7229 7.23747,-1.12035 8.36273,2.25733c0.27756,0.83315 0.5917,1.85167 0.18167,2.62823c-0.42395,0.80291 -1.53072,0.97873 -2.32165,1.42463c-1.19932,0.67613 -3.52013,2.25811 -5.27535,2.92862c2.94446,0.97251 5.82515,2.55171 7.89175,4.03412c1.42921,1.0252 1.47683,1.89333 2.91578,2.54539c1.44802,0.65617 2.81554,1.1526 4.09945,1.70682c-0.58449,-1.4455 -0.91481,-2.86826 -0.46133,-3.99374c0.51691,-1.28291 3.28622,-1.95743 4.28832,-2.29469c2.56183,-0.8622 5.51407,-1.55495 8.13522,-0.24025c0.94259,0.47278 1.39968,1.57876 2.13763,2.33202c0.15629,0.30662 0.51159,0.83598 0.70722,1.37495c0.31235,-0.93059 0.86745,-1.52478 1.52242,-2.32137c1.92656,-2.34312 5.39832,-4.03354 8.55525,-3.78362c2.31572,0.18332 5.84701,2.03467 6.47509,4.46222c0.00171,0.00663 -0.32131,3.50144 0.68679,3.56431c2.82609,0.17623 3.82178,-0.37391 6.0951,1.87981c2.58087,2.70648 5.94899,7.51384 6.55221,11.3422c0.82462,5.23353 -2.56993,13.61484 -7.55099,16.144c-1.57657,0.80051 -3.58171,1.21815 -5.64442,1.51621c0.2571,0.41193 0.44573,0.82851 0.32625,1.26605c-0.27284,0.99916 -1.57057,1.35832 -2.2672,2.12479c-1.49235,1.64199 -3.00522,3.04228 -4.91776,4.32743c-1.28516,0.86357 -2.88484,1.12649 -4.31379,1.72274c-1.66896,0.6964 -3.50778,2.58024 -5.26294,3.17677c-2.48625,0.84501 -5.61343,-0.26641 -7.93381,-0.79725c-2.30952,-0.52836 -4.95407,-0.50716 -7.3122,-0.75285c-8.28897,-0.86705 -16.9081,0.64323 -25.10613,-0.76886c-5.69031,-0.98014 -11.75559,-5.03352 -17.40075,-3.11235c-7.62691,3.53921 -12.7156,11.52074 -20.09776,15.54634c-1.51528,0.8263 -2.89015,0.80983 -4.50887,1.22642c-5.34513,1.3756 -9.17364,3.1445 -14.83239,2.74126c-3.68073,-0.08208 -6.75927,-0.70965 -10.34,-1.39886c-5.65188,-1.08786 -12.17163,-0.73719 -16.7718,-4.9581c-2.08102,-1.90945 -3.79767,-4.45639 -5.47866,-6.70255c-1.88325,-2.51643 -2.89217,-4.65463 -2.89417,-7.91392c1.48536,-5.19876 1.10567,-11.02825 1.77101,-16.38601l0.22056,-0.59771c-3.42298,-2.08149 -7.91394,-6.58277 -6.8122,-10.40663c0.89173,-3.095 4.27067,-4.91424 6.79569,-6.37082c2.85575,-1.5171 5.25074,-4.39189 8.62174,-4.8782c4.55361,-0.65692 7.49183,3.75334 11.73429,3.75693c0.64752,0.00055 1.25747,-0.38512 1.90498,-0.38036c2.63869,0.01943 4.27609,1.24418 6.61768,1.98286c1.09492,0.3454 2.29174,-0.15049 3.43413,-0.26494c1.12047,-0.11225 2.45999,0.75519 3.37671,0.10122c0.58109,-0.41454 -0.77301,-1.20171 -1.11451,-1.82851c-1.18147,-2.351 -1.09456,-4.46748 -0.40596,-6.50853c-0.22682,-0.29121 -0.2824,-0.62473 -0.2824,-0.62473zM257.5674,229.81651c-0.00336,3.44866 2.17033,6.57123 4.52861,8.92403c1.09779,1.09524 1.93091,2.44106 3.05954,3.5045c3.37943,3.18421 8.7673,3.41579 13.0289,3.99956c4.29875,0.58886 8.12353,1.60221 12.50889,1.70134c5.38395,0.38549 8.98582,-1.3413 14.09638,-2.6662c0.92497,-0.23979 2.98304,-0.4646 3.91499,-0.99038c7.4259,-4.18951 12.65204,-12.00865 20.38161,-15.68121c6.46271,-2.11813 12.33845,1.8513 18.75639,2.97008c8.12024,1.41552 16.71884,-0.10748 24.93843,0.74562c2.46145,0.25645 5.19536,0.2572 7.60705,0.80152c1.69869,0.3834 4.66422,1.59751 6.52884,0.88443c1.6532,-0.63222 3.31567,-2.32124 4.93436,-3.03028c1.33975,-0.58685 2.88688,-0.75688 4.09056,-1.58783c1.71265,-1.18231 2.99533,-2.64656 4.4558,-3.92319c0.48364,-0.42277 1.36083,-0.38719 1.67956,-0.94491c0.10844,-0.18974 -0.13046,-0.32596 -0.38028,-0.4605c-1.47629,0.17612 -2.90456,0.34544 -4.14598,0.60648c-4.60197,0.96759 -10.25572,2.18779 -14.94599,0.97658c-0.01405,-0.00363 -2.96091,-1.24172 -3.58325,-1.30562c-9.58449,-0.98406 -17.52629,-4.90857 -25.34463,-10.59491c-0.81704,-0.59657 -3.57254,-3.58652 -4.62615,-3.5902c-2.79854,-0.00977 -5.89376,0.78515 -8.69518,1.21719c-2.2487,0.3468 -4.71356,-0.08721 -6.90306,0.32904c-3.61248,0.68678 -8.60125,2.24862 -11.76459,4.05883c-2.31501,1.32476 -4.20926,3.64915 -6.14768,5.44955c-5.08559,4.70019 -13.15882,8.26603 -20.28603,7.79552c-3.18,-0.20993 -6.34798,-2.53917 -9.0813,-3.96852c-4.25428,-2.22472 -8.05407,-4.9779 -12.20298,-7.36882c-1.40184,-1.39132 -2.72013,-3.533 -4.90185,-3.74667c-3.14596,-0.30811 -6.63834,0.5457 -9.74198,-0.39151c-0.65282,5.3387 -0.28044,11.1116 -1.75898,16.28648zM356.84088,178.64977c-0.11132,0.08491 -0.19623,0.12736 -0.19623,0.12736l-1.44574,0.57533c-0.52387,-0.01951 -1.4167,-0.46967 -1.57241,0.03091c-0.30208,0.97116 1.70616,4.04058 2.85055,3.8989c0.72595,-0.08988 1.54568,-1.07065 2.06964,-1.3751c1.24856,-0.72551 3.59428,-1.05718 4.6339,-1.94636c0.26904,-0.23011 -1.29072,-1.50678 -1.50936,-1.56073c-1.47221,-0.36325 -2.7314,-0.17419 -4.13379,0.23924c0,0 -0.33181,0.0948 -0.69656,0.01044zM309.39117,188.9648c0,-0.63756 0.32519,-0.94993 0.64384,-1.10298c-0.34739,-0.39593 -0.29825,-0.84188 -0.20112,-1.13869c-1.75415,-1.76128 -3.97555,-2.76952 -6.94422,-3.9023c-1.65783,-0.6326 -3.19663,-1.90554 -4.90742,-2.36018c-0.82758,-0.21993 -0.77181,1.37706 -0.87131,1.55947c-0.40355,0.73985 -1.06724,1.31438 -1.48421,2.04675c-1.66479,2.92409 -3.4855,5.94595 -1.77563,8.96102c0.54354,1.0504 1.91758,3.08032 0.97966,4.3932c-0.91421,1.2797 -5.71661,1.37844 -7.17268,1.43717c-2.44094,0.09846 -3.88276,-1.26782 -6.12909,-1.80639c-2.32153,-0.55659 -4.00278,0.27439 -6.29791,-0.469c-2.91647,-0.94464 -5.95848,-3.73226 -9.19597,-3.27665c-2.82418,0.39745 -5.34629,3.27572 -7.75136,4.58607c-1.91235,1.10213 -6.24417,3.28302 -5.82087,6.15739c0.21569,1.46456 2.82566,3.34668 3.75833,4.29847c0.99511,1.0155 1.56499,1.74925 2.9173,2.4256c3.73341,1.86724 8.32005,-0.45504 12.09173,1.2049c1.91444,0.84256 2.83311,2.26512 4.25743,3.7028c4.03955,2.28714 7.72024,4.98049 11.84469,7.14057c2.35028,1.23091 5.36251,3.57753 8.10358,3.69012c6.50652,0.26726 13.74988,-2.79047 18.40343,-7.13411c2.08006,-1.93099 4.1077,-4.3524 6.5927,-5.77909c3.39609,-1.94977 8.73021,-3.64372 12.62025,-4.36502c2.22181,-0.41198 4.64856,0.02278 6.92029,-0.33178c2.86783,-0.44759 6.53651,-1.5137 9.40344,-1.22552c2.07478,0.20856 4.18284,2.89066 5.77393,4.04887c5.22586,3.82011 11.71119,7.999 18.08081,9.49893c2.23611,0.52657 3.91011,0.37691 6.15121,0.64218c1.54739,0.18315 2.31348,0.94646 3.83085,1.35455c4.27166,1.14884 9.63351,-0.11707 13.8238,-0.9981c3.45123,-0.72554 8.51507,-0.67809 11.69324,-2.23265c0.7155,-0.34998 2.39268,-2.4516 2.74973,-2.83947c5.94121,-6.45409 3.02342,-15.04123 -2.41844,-20.66082c-0.31902,-0.32247 -1.21138,-1.30898 -1.68627,-1.45199c-2.15255,-0.64823 -3.32387,1.36228 -5.11201,-1.16889c-1.17086,-1.65739 -0.35793,-2.19324 -0.60737,-3.90573c-0.18068,-1.24044 -3.02083,-2.56365 -4.16557,-2.63155c-2.81419,-0.16694 -5.906,1.4053 -7.30172,3.82708c-0.5226,0.9068 -0.9982,3.44415 -2.65807,3.26723c-1.32541,-0.14127 -2.22123,-2.31199 -2.75344,-3.4005c-2.37446,-2.31504 -4.12047,-2.31275 -7.44468,-1.18503c-0.94331,0.32001 -2.51199,0.03559 -2.82235,0.98212c-0.52404,1.59822 1.63461,3.09565 2.07608,4.75433l0.02961,-0.03553l1.32275,1.10229c0.27909,0.22925 0.4571,0.57703 0.4571,0.96639c0,0.62742 -0.46226,1.14687 -1.06477,1.23637l-1.30981,0.2183l-0.07585,-0.45505l-0.8562,0.23923c-0.16187,-0.46475 -0.40625,-0.99349 -0.68769,-1.56263c-1.27141,-0.32438 -2.62144,-1.26989 -3.64938,-1.74496c-4.86422,-2.24802 -8.95675,-6.18515 -14.1745,-7.82942c-6.02096,-1.89739 -9.64829,2.51136 -15.40022,3.1062c-5.31921,3.09885 -11.73442,0.04012 -17.4894,-0.16064c-2.11696,-0.07385 -3.72624,2.10265 -5.53889,1.9952c-0.98552,-0.05842 -2.18048,-0.73485 -3.38535,-1.36739c-0.11626,0.14443 -0.28507,0.27664 -0.52612,0.37995c-1.14893,0.4924 -1.64133,-0.65654 -1.64133,-0.65654c-0.11363,-0.26605 -0.22956,-0.52205 -0.34799,-0.76858c-0.05295,-0.01112 -0.1056,-0.02109 -0.15794,-0.02984l-1.44867,0.00426c0,0 -1.25,0 -1.25,-1.25z" fill="#000000" stroke="none" stroke-width="0.5"/><path d="M259.27755,213.51926c3.10364,0.93721 6.59633,0.08207 9.74229,0.39018c2.18172,0.21367 3.59751,2.37746 4.99935,3.76878c4.14891,2.39092 7.9495,5.1387 12.20378,7.36342c2.73332,1.42935 5.80151,3.75388 8.98151,3.96381c7.12721,0.47051 15.20664,-3.11933 20.29223,-7.81952c1.93842,-1.8004 3.85038,-4.14333 6.16539,-5.46809c3.16334,-1.81021 8.18839,-3.37835 11.80087,-4.06513c2.1895,-0.41625 4.66971,0.02373 6.91841,-0.32307c2.80142,-0.43204 5.90673,-1.21906 8.70527,-1.20929c1.05361,0.00368 3.81554,3.00167 4.63258,3.59824c7.81834,5.68634 15.76786,9.6331 25.35235,10.61716c0.62234,0.0639 3.56932,1.30354 3.58337,1.30717c4.69027,1.21121 10.24423,-0.0025 14.8462,-0.97009c1.24142,-0.26104 2.76946,-0.43709 4.24575,-0.61321c0.24982,0.13454 0.48874,0.27109 0.3803,0.46083c-0.31873,0.55772 -1.19589,0.52273 -1.67953,0.9455c-1.46047,1.27663 -2.74309,2.74367 -4.45574,3.92598c-1.20368,0.83095 -2.75083,1.00228 -4.09058,1.58913c-1.61869,0.70904 -3.28132,2.40083 -4.93452,3.03305c-1.86462,0.71308 -4.9298,-0.50932 -6.62849,-0.89272c-2.41169,-0.54432 -5.0459,-0.53731 -7.50735,-0.79376c-8.21959,-0.8531 -16.81852,0.67301 -24.93876,-0.74251c-6.41794,-1.11878 -12.30084,-5.06853 -18.76355,-2.9504c-7.72957,3.67256 -13.03865,11.49435 -20.46455,15.68386c-0.93195,0.52578 -2.99142,0.74854 -3.91639,0.98833c-5.11056,1.3249 -8.71549,3.04624 -14.09944,2.66075c-4.38536,-0.09913 -8.21255,-1.11842 -12.5113,-1.70728c-4.2616,-0.58377 -9.65102,-0.82115 -13.03045,-4.00536c-1.12863,-1.06344 -1.96225,-2.41217 -3.06004,-3.50741c-2.35828,-2.3528 -4.53247,-5.48192 -4.52911,-8.93058c1.47854,-5.17488 1.10733,-10.95906 1.76015,-16.29776z" data-paper-data="{&quot;noHover&quot;:false,&quot;origItem&quot;:[&quot;Path&quot;,{&quot;applyMatrix&quot;:true,&quot;segments&quot;:[[[257.5674,229.81651],[1.47854,-5.17488],[-0.00336,3.44866]],[[262.09601,238.74054],[-2.35828,-2.3528],[1.09779,1.09524]],[[265.15555,242.24504],[-1.12863,-1.06344],[3.37943,3.18421]],[[278.18445,246.2446],[-4.2616,-0.58377],[4.29875,0.58886]],[[290.69334,247.94594],[-4.38536,-0.09913],[5.38395,0.38549]],[[304.78972,245.27974],[-5.11056,1.3249],[0.92497,-0.23979]],[[308.70471,244.28936],[-0.93195,0.52578],[7.4259,-4.18951]],[[329.08632,228.60815],[-7.72957,3.67256],[6.46271,-2.11813]],[[347.84271,231.57823],[-6.41794,-1.11878],[8.12024,1.41552]],[[372.78114,232.32385],[-8.21959,-0.8531],[2.46145,0.25645]],[[380.38819,233.12537],[-2.41169,-0.54432],[1.69869,0.3834]],[[386.91703,234.0098],[-1.86462,0.71308],[1.6532,-0.63222]],[[391.85139,230.97952],[-1.61869,0.70904],[1.33975,-0.58685]],[[395.94195,229.39169],[-1.20368,0.83095],[1.71265,-1.18231]],[[400.39775,225.4685],[-1.46047,1.27663],[0.48364,-0.42277]],[[402.07731,224.52359],[-0.31873,0.55772],[0.10844,-0.18974]],[[401.69703,224.06309],[0.24982,0.13454],[-1.47629,0.17612]],[[397.55105,224.66957],[1.24142,-0.26104],[-4.60197,0.96759]],[[382.60506,225.64615],[4.69027,1.21121],[-0.01405,-0.00363]],[[379.02181,224.34053],[0.62234,0.0639],[-9.58449,-0.98406]],[[353.67718,213.74562],[7.81834,5.68634],[-0.81704,-0.59657]],[[349.05103,210.15542],[1.05361,0.00368],[-2.79854,-0.00977]],[[340.35585,211.37261],[2.80142,-0.43204],[-2.2487,0.3468]],[[333.45279,211.70165],[2.1895,-0.41625],[-3.61248,0.68678]],[[321.6882,215.76048],[3.16334,-1.81021],[-2.31501,1.32476]],[[315.54052,221.21003],[1.93842,-1.8004],[-5.08559,4.70019]],[[295.25449,229.00555],[7.12721,0.47051],[-3.18,-0.20993]],[[286.17319,225.03703],[2.73332,1.42935],[-4.25428,-2.22472]],[[273.97021,217.66821],[4.14891,2.39092],[-1.40184,-1.39132]],[[269.06836,213.92154],[2.18172,0.21367],[-3.14596,-0.30811]],[[259.32638,213.53003],[3.10364,0.93721],[-0.65282,5.3387]]],&quot;closed&quot;:true,&quot;fillColor&quot;:[0,0,0,1]}]}" fill="#fff69c" stroke="none" stroke-width="0.5"/><path d="M356.811,178.60967c0.36475,0.08436 0.70743,-0.01659 0.70743,-0.01659c1.40239,-0.41343 2.7212,-0.58541 4.19341,-0.22216c0.21864,0.05395 1.78713,1.35167 1.51809,1.58178c-1.03962,0.88918 -3.42856,1.2786 -4.67712,2.00411c-0.52396,0.30445 -1.38006,1.2754 -2.10601,1.36528c-1.14439,0.14168 -3.17046,-2.98127 -2.86838,-3.95243c0.15571,-0.50058 1.05077,-0.05665 1.57464,-0.03714l1.45828,-0.59267c0,0 0.08834,-0.04525 0.19966,-0.13016z" data-paper-data="{&quot;noHover&quot;:false,&quot;origItem&quot;:[&quot;Path&quot;,{&quot;applyMatrix&quot;:true,&quot;segments&quot;:[[[356.84088,178.64977],[0,0],[-0.11132,0.08491]],[356.64465,178.77713],[[355.19891,179.35246],[0,0],[-0.52387,-0.01951]],[[353.6265,179.38337],[0.15571,-0.50058],[-0.30208,0.97116]],[[356.47705,183.28227],[-1.14439,0.14168],[0.72595,-0.08988]],[[358.54669,181.90717],[-0.52396,0.30445],[1.24856,-0.72551]],[[363.18059,179.96081],[-1.03962,0.88918],[0.26904,-0.23011]],[[361.67123,178.40008],[0.21864,0.05395],[-1.47221,-0.36325]],[[357.53744,178.63932],[1.40239,-0.41343],[0,0]],[[356.84088,178.64976],[0.36475,0.08436],[0,0]]],&quot;closed&quot;:true,&quot;fillColor&quot;:[0,0,0,1],&quot;strokeWidth&quot;:0.5}]}" fill="#fdfff4" stroke="none" stroke-width="0.25"/><path d="M311.15512,183.19331c-0.09361,0.36634 -0.19353,0.73449 -0.29551,1.09873c-1.87797,-1.60325 -4.19813,-2.6783 -7.08134,-3.767c-1.69276,-0.63918 -3.92685,-2.53207 -5.78454,-2.52806c-2.75596,0.00595 -2.00796,1.00144 -3.04846,2.80321c-0.73043,1.26484 -1.58548,2.56371 -2.27697,3.78712c-0.76672,-1.64568 -1.7022,-2.92397 -1.28853,-5.4874c0.43538,-2.69793 2.20433,-2.82099 3.06678,-5.6464c0.42856,-1.40396 1.1876,-5.54442 0.83905,-7.66523c1.00908,0.31218 2.13825,0.38603 2.97955,1.00715c1.47415,1.55025 1.99239,2.89469 4.51158,2.3621c1.48274,-0.31347 2.6201,-2.70567 3.03066,-3.89505c0.06338,-0.18359 0.37522,-0.76555 0.44405,-1.29336c0.5208,0.41029 1.13549,0.7187 1.69909,1.07172c0.73346,0.45942 1.01491,1.45845 1.71979,1.96063c0.40482,0.28841 1.10992,-0.15552 1.4847,0.17096c0.91669,0.79855 0.56578,2.38866 0.67156,3.59978c0.36924,4.22745 -0.6513,8.32363 -0.67145,12.42109z" data-paper-data="{&quot;noHover&quot;:false,&quot;origItem&quot;:[&quot;Path&quot;,{&quot;applyMatrix&quot;:true,&quot;segments&quot;:[[[311.11855,183.15922],[0,0],[0.02015,-4.09746]],[[311.77928,170.78843],[0.36924,4.22745],[-0.10578,-1.21112]],[[311.11489,167.20226],[0.91669,0.79855],[-0.37478,-0.32648]],[[309.63317,167.03494],[0.40482,0.28841],[-0.70488,-0.50218]],[[307.92218,165.08203],[0.73346,0.45942],[-0.5636,-0.35302]],[[306.23085,164.01468],[0.5208,0.41029],[-0.06883,0.52781]],[[305.78622,165.30777],[0.06338,-0.18359],[-0.41056,1.18938]],[[302.76547,169.20624],[1.48274,-0.31347],[-2.51919,0.53259]],[[298.28546,166.84112],[1.47415,1.55025],[-0.8413,-0.62112]],[[295.31541,165.82842],[1.00908,0.31218],[0.34855,2.12081]],[[294.49622,173.45926],[0.42856,-1.40396],[-0.86245,2.82541]],[[291.42499,179.07857],[0.43538,-2.69793],[-0.41367,2.56343]],[[292.70103,184.54951],[-0.76672,-1.64568],[0.69149,-1.22341]],[[294.90957,180.8352],[-0.73043,1.26484],[1.0405,-1.80177]],[[298.02851,177.96106],[-2.75596,0.00595],[1.85769,-0.00401]],[[303.76174,180.47785],[-1.69276,-0.63918],[2.88321,1.0887]],[[310.82564,184.25535],[-1.87797,-1.60325],[0.10198,-0.36424]],[[311.11854,183.15922],[-0.09361,0.36634],[0,0]]],&quot;closed&quot;:true,&quot;fillColor&quot;:[0,0,0,1],&quot;strokeWidth&quot;:0.5}]}" fill="#fdfff4" stroke="none" stroke-width="0.25"/><path d="M309.43401,188.99051c0,1.25 1.16383,1.19926 1.16383,1.19926l1.44941,-0.0055c0.05234,0.00875 0.19003,0.07133 0.24298,0.08245c0.11843,0.24653 0.23486,0.50171 0.34849,0.76776c0,0 0.40673,1.09736 1.55566,0.60496c0.24105,-0.10331 0.41057,-0.23665 0.52683,-0.38108c1.20487,0.63254 2.40086,1.30745 3.38638,1.36587c1.81265,0.10745 3.4323,-2.07991 5.54926,-2.00606c5.75498,0.20076 12.22643,3.25615 17.54564,0.1573c5.75193,-0.59484 9.39481,-4.98898 15.41577,-3.09159c5.21775,1.64427 9.31795,5.59924 14.18217,7.84726c1.02794,0.47507 2.37851,1.42352 3.64992,1.7479c0.28144,0.56914 0.52608,1.09984 0.68795,1.56459l0.85618,-0.2394l0.07591,0.45559l1.21036,-0.20785c0.60251,-0.0895 1.06492,-0.60772 1.06492,-1.23514c0,-0.38936 -0.17785,-0.73602 -0.45694,-0.96527l-1.3225,-1.10083l-0.02962,0.0355c-0.44147,-1.65868 -2.59871,-3.15037 -2.07467,-4.74859c0.31036,-0.94653 1.97454,-0.69178 2.91785,-1.01179c3.32421,-1.12772 5.07107,-1.12695 7.44553,1.18809c0.53221,1.08851 1.42876,3.26277 2.75417,3.40404c1.65987,0.17692 2.03731,-2.34151 2.55991,-3.24831c1.39572,-2.42178 4.58486,-4.01692 7.39905,-3.84998c1.14474,0.0679 3.98546,1.39362 4.16614,2.63406c0.24944,1.71249 -0.56301,2.25115 0.60785,3.90854c1.78814,2.53117 2.95962,0.52191 5.11217,1.17014c0.47489,0.14301 1.36736,1.13059 1.68638,1.45306c5.44186,5.61959 8.35911,14.21999 2.4179,20.67408c-0.35705,0.38787 -2.03464,2.49158 -2.75014,2.84156c-3.17817,1.55456 -8.24289,1.51055 -11.69412,2.23609c-4.19029,0.88103 -9.55363,2.15126 -13.82529,1.00242c-1.51737,-0.40809 -2.28352,-1.17125 -3.83091,-1.3544c-2.2411,-0.26527 -3.91586,-0.11381 -6.15197,-0.64038c-6.36962,-1.49993 -12.94729,-5.71711 -18.17315,-9.53722c-1.59109,-1.15821 -3.60413,-3.80961 -5.67891,-4.01817c-2.86693,-0.28818 -6.54584,0.79747 -9.41367,1.24506c-2.27173,0.35456 -4.74131,-0.06281 -6.96312,0.34917c-3.89004,0.7213 -9.25908,2.39593 -12.65517,4.3457c-2.485,1.42669 -4.51195,3.84898 -6.59201,5.77997c-4.65355,4.34364 -11.90076,7.39586 -18.40728,7.1286c-2.74107,-0.11259 -5.75662,-2.46576 -8.1069,-3.69667c-4.12445,-2.16008 -7.80794,-4.86244 -11.84749,-7.14958c-1.42432,-1.43768 -2.3436,-2.86376 -4.25804,-3.70632c-3.77168,-1.65994 -8.35854,0.66046 -12.09195,-1.20678c-1.35231,-0.67635 -1.92233,-1.41183 -2.91744,-2.42733c-0.93267,-0.95179 -3.54274,-2.8367 -3.75843,-4.30126c-0.4233,-2.87437 3.90866,-5.05931 5.82101,-6.16144c2.40507,-1.31035 4.9276,-4.19237 7.75178,-4.58982c3.23749,-0.45561 6.3786,2.34533 9.29507,3.28997c2.29513,0.74339 3.97635,-0.08733 6.29788,0.46926c2.24633,0.53857 3.58878,1.89371 6.02972,1.79525c1.45607,-0.05873 6.25882,-0.16019 7.17303,-1.43989c0.93792,-1.31288 -0.43508,-3.34779 -0.97862,-4.39819c-1.70987,-3.01507 0.11468,-6.04697 1.77947,-8.97106c0.41697,-0.73237 1.08208,-1.30949 1.48563,-2.04934c0.0995,-0.18241 0.04484,-1.78119 0.87242,-1.56126c1.71079,0.45464 3.2501,1.72681 4.90793,2.35941c2.96867,1.13278 5.27241,2.19775 7.02656,3.95903c-0.09713,0.29681 -0.14546,0.74157 0.20193,1.1375c-0.31865,0.15305 -0.64263,0.46351 -0.64263,1.10107z" data-paper-data="{&quot;noHover&quot;:false,&quot;origItem&quot;:[&quot;Path&quot;,{&quot;applyMatrix&quot;:true,&quot;segments&quot;:[[[309.39117,188.9648],[0,0],[0,-0.63756]],[[310.03501,187.86182],[-0.31865,0.15305],[-0.34739,-0.39593]],[[309.83389,186.72313],[-0.09713,0.29681],[-1.75415,-1.76128]],[[302.88967,182.82083],[2.96867,1.13278],[-1.65783,-0.6326]],[[297.98225,180.46065],[1.71079,0.45464],[-0.82758,-0.21993]],[[297.11094,182.02012],[0.0995,-0.18241],[-0.40355,0.73985]],[[295.62673,184.06687],[0.41697,-0.73237],[-1.66479,2.92409]],[[293.8511,193.02789],[-1.70987,-3.01507],[0.54354,1.0504]],[[294.83076,197.42109],[0.93792,-1.31288],[-0.91421,1.2797]],[[287.65808,198.85826],[1.45607,-0.05873],[-2.44094,0.09846]],[[281.52899,197.05187],[2.24633,0.53857],[-2.32153,-0.55659]],[[275.23108,196.58287],[2.29513,0.74339],[-2.91647,-0.94464]],[[266.03511,193.30622],[3.23749,-0.45561],[-2.82418,0.39745]],[[258.28375,197.89229],[2.40507,-1.31035],[-1.91235,1.10213]],[[252.46288,204.04968],[-0.4233,-2.87437],[0.21569,1.46456]],[[256.22121,208.34815],[-0.93267,-0.95179],[0.99511,1.0155]],[[259.13851,210.77375],[-1.35231,-0.67635],[3.73341,1.86724]],[[271.23024,211.97865],[-3.77168,-1.65994],[1.91444,0.84256]],[[275.48767,215.68145],[-1.42432,-1.43768],[4.03955,2.28714]],[[287.33236,222.82202],[-4.12445,-2.16008],[2.35028,1.23091]],[[295.43594,226.51214],[-2.74107,-0.11259],[6.50652,0.26726]],[[313.83937,219.37803],[-4.65355,4.34364],[2.08006,-1.93099]],[[320.43207,213.59894],[-2.485,1.42669],[3.39609,-1.94977]],[[333.05232,209.23392],[-3.89004,0.7213],[2.22181,-0.41198]],[[339.97261,208.90214],[-2.27173,0.35456],[2.86783,-0.44759]],[[349.37605,207.67662],[-2.86693,-0.28818],[2.07478,0.20856]],[[355.14998,211.72549],[-1.59109,-1.15821],[5.22586,3.82011]],[[373.23079,221.22442],[-6.36962,-1.49993],[2.23611,0.52657]],[[379.382,221.8666],[-2.2411,-0.26527],[1.54739,0.18315]],[[383.21285,223.22115],[-1.51737,-0.40809],[4.27166,1.14884]],[[397.03665,222.22305],[-4.19029,0.88103],[3.45123,-0.72554]],[[408.72989,219.9904],[-3.17817,1.55456],[0.7155,-0.34998]],[[411.47962,217.15093],[-0.35705,0.38787],[5.94121,-6.45409]],[[409.06118,196.49011],[5.44186,5.61959],[-0.31902,-0.32247]],[[407.37491,195.03812],[0.47489,0.14301],[-2.15255,-0.64823]],[[402.2629,193.86923],[1.78814,2.53117],[-1.17086,-1.65739]],[[401.65553,189.9635],[0.24944,1.71249],[-0.18068,-1.24044]],[[397.48996,187.33195],[1.14474,0.0679],[-2.81419,-0.16694]],[[390.18824,191.15903],[1.39572,-2.42178],[-0.5226,0.9068]],[[387.53017,194.42626],[1.65987,0.17692],[-1.32541,-0.14127]],[[384.77673,191.02576],[0.53221,1.08851],[-2.37446,-2.31504]],[[377.33205,189.84073],[3.32421,-1.12772],[-0.94331,0.32001]],[[374.5097,190.82285],[0.31036,-0.94653],[-0.52404,1.59822]],[[376.58578,195.57718],[-0.44147,-1.65868],[0,0]],[376.61539,195.54165],[[377.93814,196.64394],[0,0],[0.27909,0.22925]],[[378.39524,197.61033],[0,-0.38936],[0,0.62742]],[[377.33047,198.8467],[0.60251,-0.0895],[0,0]],[376.02066,199.065],[375.94481,198.60995],[[375.08861,198.84918],[0,0],[-0.16187,-0.46475]],[[374.40092,197.28655],[0.28144,0.56914],[-1.27141,-0.32438]],[[370.75154,195.54159],[1.02794,0.47507],[-4.86422,-2.24802]],[[356.57704,187.71217],[5.21775,1.64427],[-6.02096,-1.89739]],[[341.17682,190.81837],[5.75193,-0.59484],[-5.31921,3.09885]],[[323.68742,190.65773],[5.75498,0.20076],[-2.11696,-0.07385]],[[318.14853,192.65293],[1.81265,0.10745],[-0.98552,-0.05842]],[[314.76318,191.28554],[1.20487,0.63254],[-0.11626,0.14443]],[[314.23706,191.66549],[0.24105,-0.10331],[-1.14893,0.4924]],[[312.59573,191.00895],[0,0],[-0.11363,-0.26605]],[[312.24774,190.24037],[0.11843,0.24653],[-0.05295,-0.01112]],[[312.0898,190.21053],[0.05234,0.00875],[0,0]],[310.64113,190.21479],[[309.39113,188.96479],[0,1.25],[0,0]]],&quot;closed&quot;:true,&quot;fillColor&quot;:[0,0,0,1],&quot;strokeWidth&quot;:0.5}]}" fill="#fdfff4" stroke="none" stroke-width="0.25"/><path d="M322.71642,184.2623c-0.07605,0.26116 -0.26189,0.52589 -0.65389,0.72189c-1.11804,0.55901 -1.67705,-0.55902 -1.67705,-0.55902c-2.05365,-4.30839 -1.01393,-11.78965 -0.54062,-16.49674c0.13525,-1.34512 -0.48104,-3.00557 0.39342,-4.03658c1.67319,-1.97275 3.98379,-1.00187 5.69097,0.06816c3.57889,2.24321 4.56351,8.18801 4.577,12.02416c0.46112,2.30562 1.45421,7.31199 -1.72496,8.39929c-1.02429,0.35031 -4.61849,-0.0599 -5.8233,0.06145zM322.05358,181.31719c0.83886,-0.28128 1.37671,0.52551 1.37671,0.52551l-0.72108,0.11462c3.65576,-0.36308 6.29304,1.29319 5.75256,-3.51c-0.08427,-0.74884 -0.29558,-1.47786 -0.44336,-2.2168c0.00886,-2.37313 -0.41376,-5.57254 -1.53528,-7.69629c-1.07425,-2.03425 -1.37157,-1.9803 -3.06345,-2.81862c-0.35312,-0.17497 -1.01261,-0.83306 -1.09429,-0.44753c-0.81433,3.84386 -0.23692,8.78285 -0.23692,12.77287c0,1.14165 -0.13126,2.2275 -0.03488,3.27624z" fill="#000000" stroke="none" stroke-width="0.5"/><path d="M322.03475,181.36351c-0.09638,-1.04874 0.02516,-2.13986 0.02516,-3.28151c0,-3.99002 -0.5653,-9.01727 0.24903,-12.86113c0.08168,-0.38553 0.74648,0.27103 1.0996,0.446c1.69188,0.83832 2.01263,0.78465 3.08688,2.8189c1.12152,2.12375 1.56804,5.40613 1.55918,7.77926c0.14778,0.73894 0.35057,1.4751 0.43484,2.22394c0.54048,4.80319 -2.13873,3.15319 -5.79449,3.51627l0.72484,-0.11366c0,0 -0.54618,-0.80936 -1.38504,-0.52808z" data-paper-data="{&quot;noHover&quot;:false,&quot;origItem&quot;:[&quot;Path&quot;,{&quot;applyMatrix&quot;:true,&quot;segments&quot;:[[[322.05358,181.31719],[0,0],[0.83886,-0.28128]],[323.43029,181.8427],[[322.70921,181.95732],[0,0],[3.65576,-0.36308]],[[328.46177,178.44732],[0.54048,4.80319],[-0.08427,-0.74884]],[[328.01841,176.23052],[0.14778,0.73894],[0.00886,-2.37313]],[[326.48313,168.53423],[1.12152,2.12375],[-1.07425,-2.03425]],[[323.41968,165.71561],[1.69188,0.83832],[-0.35312,-0.17497]],[[322.32539,165.26808],[0.08168,-0.38553],[-0.81433,3.84386]],[[322.08847,178.04095],[0,-3.99002],[0,1.14165]],[[322.05359,181.31719],[-0.09638,-1.04874],[0,0]]],&quot;closed&quot;:true,&quot;fillColor&quot;:[0,0,0,1],&quot;strokeWidth&quot;:0.5}]}" fill="#fdfff4" stroke="none" stroke-width="0.25"/><path d="M334.38311,177.73468c-0.07175,-0.02938 -0.14575,-0.06642 -0.22191,-0.11212c-1.07187,-0.64312 -0.42875,-1.71498 -0.42875,-1.71498c1.35433,-2.10938 6.53571,-4.20495 8.97361,-2.30578c0.89619,0.69816 1.67928,5.41953 1.25117,6.48594c-1.11275,2.77185 -5.89814,2.65016 -8.13025,1.88649c-0.82034,-0.28066 -2.00318,-0.30242 -2.36057,-1.09236c-0.39042,-0.86292 0.40724,-1.84997 0.61086,-2.77496zM336.09371,176.89415c0.15677,0.05952 0.31899,0.16219 0.48122,0.32442c0.88389,0.88388 0,1.76777 0,1.76777l-0.15684,-0.00162c-1.40294,1.50574 2.11813,0.99293 3.48546,0.76929c0.58889,-0.09632 1.60647,0.05455 1.70884,-0.53331c0.18151,-1.04235 -0.59401,-2.041 -0.71869,-3.09165c-0.02553,-0.21519 0.38298,-0.50945 0.19642,-0.6197c-0.99905,-0.59042 -4.00915,0.30851 -4.99642,1.3848z" fill="#000000" stroke="none" stroke-width="0.5"/><path d="M336.04556,176.88065c0.98727,-1.07629 4.08136,-1.99658 5.08041,-1.40616c0.18656,0.11025 -0.21801,0.40909 -0.19248,0.62428c0.12468,1.05065 0.90396,2.10415 0.72245,3.1465c-0.10237,0.58786 -1.14121,0.45718 -1.7301,0.5535c-1.36733,0.22364 -4.95475,0.71532 -3.55181,-0.79042l0.15753,0.00287c0,0 0.87821,-0.91847 -0.00568,-1.80235c-0.16223,-0.16223 -0.32354,-0.2687 -0.48031,-0.32822z" data-paper-data="{&quot;noHover&quot;:false,&quot;origItem&quot;:[&quot;Path&quot;,{&quot;applyMatrix&quot;:true,&quot;segments&quot;:[[[336.09371,176.89415],[0,0],[0.15677,0.05952]],[[336.57493,177.21857],[-0.16223,-0.16223],[0.88389,0.88388]],[336.57493,178.98634],[[336.41809,178.98472],[0,0],[-1.40294,1.50574]],[[339.90355,179.75401],[-1.36733,0.22364],[0.58889,-0.09632]],[[341.61239,179.2207],[-0.10237,0.58786],[0.18151,-1.04235]],[[340.8937,176.12905],[0.12468,1.05065],[-0.02553,-0.21519]],[[341.09012,175.50935],[0.18656,0.11025],[-0.99905,-0.59042]],[[336.0937,176.89415],[0.98727,-1.07629],[0,0]]],&quot;closed&quot;:true,&quot;fillColor&quot;:[0,0,0,1],&quot;strokeWidth&quot;:0.5}]}" fill="#fdfff4" stroke="none" stroke-width="0.25"/><path d="M378.6891,177.49312c-0.22686,-3.11106 -0.85071,-5.92047 -1.37911,-9.12396c-0.31968,-1.93806 -0.16875,-3.56425 -0.70158,-5.44092c-0.64436,-2.2695 -1.4976,-5.76562 0.66878,-7.54683c1.62358,-1.33492 4.66524,-0.81611 6.53995,-1.1242c2.60394,-0.42793 3.08362,-1.46969 5.7046,-0.29064c4.98507,3.42789 3.48105,10.67902 3.94312,15.94876c0.2041,2.32767 0.93386,4.7142 1.10958,6.98534c0.13546,1.75076 -1.39123,4.69544 -3.20664,5.23848c-3.28962,0.98401 -8.91796,0.2163 -12.33051,-0.35246c-0.83733,-0.19619 -2.1295,0.18169 -2.51198,-0.58858c-0.43737,-0.88081 0.5408,-1.89104 0.8112,-2.83656zM381.27638,179.60882c2.98266,0.41921 6.56798,0.7258 9.13472,0.22064c2.48449,-0.48897 1.19592,-3.67028 1.01557,-4.86718c-0.59544,-3.95156 -0.45706,-8.06109 -0.89441,-12.03259c-0.28908,-2.62509 0.27269,-5.19006 -2.26534,-6.80085c-1.49592,-0.9168 -2.31727,0.30385 -4.04933,0.59609c-1.56251,0.26363 -3.97653,-0.2195 -5.43079,0.64924c-1.39968,0.83614 0.50174,5.45064 0.69778,6.54476c0.92796,5.17918 1.7636,10.3977 1.7918,15.68989z" fill="#000000" stroke="none" stroke-width="0.5"/><path d="M379.44394,163.8898c-0.19604,-1.09412 -2.08246,-5.72242 -0.68278,-6.55856c1.45426,-0.86874 3.89,-0.39253 5.45251,-0.65616c1.73206,-0.29224 2.57028,-1.51134 4.0662,-0.59454c2.53803,1.61079 2.00006,4.19015 2.28914,6.81524c0.43735,3.9715 0.2957,8.15207 0.89114,12.10363c0.18035,1.1969 1.45584,4.38672 -1.02865,4.87569c-2.56674,0.50516 -6.18803,0.20044 -9.17069,-0.21877c-0.0282,-5.29219 -0.88891,-10.58735 -1.81687,-15.76653z" data-paper-data="{&quot;noHover&quot;:false,&quot;origItem&quot;:[&quot;Path&quot;,{&quot;applyMatrix&quot;:true,&quot;segments&quot;:[[[381.27638,179.60882],[-0.0282,-5.29219],[2.98266,0.41921]],[[390.4111,179.82946],[-2.56674,0.50516],[2.48449,-0.48897]],[[391.42667,174.96228],[0.18035,1.1969],[-0.59544,-3.95156]],[[390.53226,162.92969],[0.43735,3.9715],[-0.28908,-2.62509]],[[388.26692,156.12884],[2.53803,1.61079],[-1.49592,-0.9168]],[[384.21759,156.72493],[1.73206,-0.29224],[-1.56251,0.26363]],[[378.7868,157.37417],[1.45426,-0.86874],[-1.39968,0.83614]],[[379.48458,163.91893],[-0.19604,-1.09412],[0.92796,5.17918]]],&quot;closed&quot;:true,&quot;fillColor&quot;:[0,0,0,1],&quot;strokeWidth&quot;:0.5}]}" fill="#fdfff4" stroke="none" stroke-width="0.25"/><path d="M341.4182,154.62626c0.156,0.26001 0.21109,0.4948 0.20505,0.70129c0.91834,-0.21545 1.82129,-0.24791 2.64577,0.07975c3.72659,1.48096 6.90829,6.65651 5.70852,10.60478c-0.98385,3.2377 -5.91192,6.13304 -9.3033,4.19956c-1.22674,-0.69938 -1.319,-2.50649 -2.13506,-3.6589c-0.3054,-0.47788 -1.42341,-2.41106 -2.10613,-3.01565c-0.40899,-0.36218 -1.10442,-0.44504 -1.34602,-0.93502c-1.62779,-3.30134 1.10555,-6.08689 3.48247,-7.72391l1.13371,-0.68064c0,0 1.07187,-0.64312 1.71499,0.42874zM337.12833,159.79878c-0.21879,0.4975 -0.25101,0.99612 0.05345,1.43874c0.83063,1.20754 2.51006,2.48366 3.43448,3.92392c0.5039,0.72727 1.10184,1.39768 1.51169,2.18182c0.14234,0.27233 -0.15388,0.75365 0.10727,0.91561c1.62081,1.00517 4.95554,-1.43887 5.32761,-2.89422c0.7156,-2.79907 -1.48898,-6.36007 -4.04541,-7.573c-1.5808,-0.75002 -4.91138,1.50728 -6.32269,1.9888c0,0 -0.02403,0.00801 -0.0664,0.01833z" fill="#000000" stroke="none" stroke-width="0.5"/><path d="M337.15262,159.75349c1.41131,-0.48152 4.79499,-2.76064 6.37579,-2.01062c2.55643,1.21293 4.79581,4.8428 4.08021,7.64187c-0.37207,1.45535 -3.75349,3.92929 -5.3743,2.92412c-0.26115,-0.16196 0.03362,-0.64333 -0.10872,-0.91566c-0.40985,-0.78414 -1.0371,-1.46579 -1.541,-2.19306c-0.92442,-1.44026 -2.6193,-2.77183 -3.44993,-3.97937c-0.30446,-0.44262 -0.26746,-0.9511 -0.04867,-1.4486c0.04237,-0.01032 0.06662,-0.01868 0.06662,-0.01868z" data-paper-data="{&quot;noHover&quot;:false,&quot;origItem&quot;:[&quot;Path&quot;,{&quot;applyMatrix&quot;:true,&quot;segments&quot;:[[[337.12833,159.79878],[0.04237,-0.01032],[-0.21879,0.4975]],[[337.18178,161.23752],[-0.30446,-0.44262],[0.83063,1.20754]],[[340.61626,165.16144],[-0.92442,-1.44026],[0.5039,0.72727]],[[342.12795,167.34326],[-0.40985,-0.78414],[0.14234,0.27233]],[[342.23522,168.25887],[-0.26115,-0.16196],[1.62081,1.00517]],[[347.56283,165.36465],[-0.37207,1.45535],[0.7156,-2.79907]],[[343.51742,157.79165],[2.55643,1.21293],[-1.5808,-0.75002]],[[337.19473,159.78045],[1.41131,-0.48152],[0,0]]],&quot;closed&quot;:true,&quot;fillColor&quot;:[0,0,0,1],&quot;strokeWidth&quot;:0.5}]}" fill="#fdfff4" stroke="none" stroke-width="0.25"/><path d="M278.19513,154.06482c1.75006,-0.15927 3.48315,-0.43664 5.24085,-0.8724c0.79297,-0.19659 1.64698,-1.04088 2.36358,-0.64853c2.21909,1.21499 2.8415,6.07365 2.80102,8.25654c-0.01344,0.72465 0.21472,1.63256 -0.28738,2.15524c-0.75289,0.78373 -4.01519,0.74362 -4.89041,0.6454c-3.47602,-0.39007 -6.80733,-1.03555 -10.36813,-1.13819c-1.94396,1.18662 -3.72261,2.45512 -5.20411,4.03698c-0.5641,0.60231 0.99065,1.32057 1.45998,1.99933c0.91861,1.32852 1.70139,2.84434 -0.39444,4.04061c-0.82139,0.46884 -1.88739,0.13196 -2.83268,0.16225c-3.6103,0.11568 -5.36092,-1.26136 -8.10588,-3.526c-1.307,-1.07829 -3.02078,-1.84274 -3.84781,-3.32159c-0.9598,-1.71626 -0.11028,-3.50384 0.35457,-5.13012c1.0816,-3.78399 3.58693,-5.94807 6.51118,-8.46067c5.49539,-0.76962 10.15492,1.17731 15.53859,1.31275l0.63336,-0.0004c0,0 0.66843,0 1.0277,0.4888zM272.83582,155.76298c-3.59136,-0.48533 -7.02357,-1.3374 -10.82672,-1.21401c-2.24806,2.1325 -4.25965,3.84593 -5.12099,6.86217c-0.0166,0.05811 -1.03517,2.56823 -0.57568,3.22438c1.25524,1.79247 4.97819,4.39966 6.92906,5.44204c1.0632,0.56808 3.23579,0.18199 4.44285,0.28673c0.18491,0.01604 -0.27222,-0.25332 -0.39444,-0.393c-0.58955,-0.67376 -1.41329,-1.22571 -1.71158,-2.06984c-0.28677,-0.81154 -0.27109,-1.79015 0.06804,-2.58124c0.25454,-0.59379 1.10072,-0.70235 1.54188,-1.17433c1.66361,-1.77978 2.99744,-2.88327 5.22475,-4.09926c3.3147,-0.06628 6.5477,0.13607 9.80479,0.63525c0.89307,0.13687 3.44024,1.07237 4.19849,0.6454c0.15318,-0.08625 -0.28362,-0.2508 -0.31357,-0.42402c-0.13252,-0.76643 -0.02925,-1.56142 -0.16222,-2.32777c-0.21755,-1.25382 0.02106,-2.92573 -1.00081,-3.68413c-0.26928,-0.19985 -0.42788,0.55881 -0.73995,0.68155c-0.72368,0.28464 -1.51505,0.35256 -2.27755,0.5053c-2.63679,0.52819 -5.18497,0.66286 -7.85825,0.66286c0,0 -1.06142,0 -1.22809,-0.97808z" fill="#000000" stroke="none" stroke-width="0.5"/><path d="M272.84685,155.71421c0.16667,0.97808 1.23867,0.98176 1.23867,0.98176c2.67328,0 5.24268,-0.11538 7.87947,-0.64357c0.7625,-0.15274 1.55513,-0.21845 2.27881,-0.50309c0.31207,-0.12274 0.47028,-0.88211 0.73956,-0.68226c1.02187,0.7584 0.78788,2.44175 1.00543,3.69557c0.13297,0.76635 0.0311,1.56894 0.16362,2.33537c0.02995,0.17322 0.36717,0.34679 0.21399,0.43304c-0.75825,0.42697 -3.3049,-0.50421 -4.19797,-0.64108c-3.25709,-0.49918 -6.46131,-0.66404 -9.77601,-0.59776c-2.22731,1.21599 -3.49425,2.25508 -5.15786,4.03486c-0.44116,0.47198 -1.28899,0.5769 -1.54353,1.17069c-0.33913,0.79109 -0.36316,1.75779 -0.07639,2.56933c0.29829,0.84413 1.10937,1.3864 1.69892,2.06016c0.12222,0.13968 0.53478,0.4985 0.34987,0.48246c-1.20706,-0.10474 -3.39513,0.27022 -4.45833,-0.29786c-1.95087,-1.04238 -5.68691,-3.6767 -6.94215,-5.46917c-0.45949,-0.65615 0.5587,-3.17707 0.5753,-3.23518c0.86134,-3.01624 2.8847,-4.75841 5.13276,-6.89091c3.80315,-0.12339 7.28447,0.7123 10.87583,1.19763z" data-paper-data="{&quot;noHover&quot;:false,&quot;origItem&quot;:[&quot;Path&quot;,{&quot;applyMatrix&quot;:true,&quot;segments&quot;:[[[272.83582,155.76298],[0,0],[-3.59136,-0.48533]],[[262.0091,154.54897],[3.80315,-0.12339],[-2.24806,2.1325]],[[256.88811,161.41114],[0.86134,-3.01624],[-0.0166,0.05811]],[[256.31243,164.63552],[-0.45949,-0.65615],[1.25524,1.79247]],[[263.24149,170.07756],[-1.95087,-1.04238],[1.0632,0.56808]],[[267.68434,170.36429],[-1.20706,-0.10474],[0.18491,0.01604]],[[267.2899,169.97129],[0.12222,0.13968],[-0.58955,-0.67376]],[[265.57832,167.90145],[0.29829,0.84413],[-0.28677,-0.81154]],[[265.64636,165.32021],[-0.33913,0.79109],[0.25454,-0.59379]],[[267.18824,164.14588],[-0.44116,0.47198],[1.66361,-1.77978]],[[272.41299,160.04662],[-2.22731,1.21599],[3.3147,-0.06628]],[[282.21778,160.68187],[-3.25709,-0.49918],[0.89307,0.13687]],[[286.41627,161.32727],[-0.75825,0.42697],[0.15318,-0.08625]],[[286.1027,160.90325],[0.02995,0.17322],[-0.13252,-0.76643]],[[285.94048,158.57548],[0.13297,0.76635],[-0.21755,-1.25382]],[[284.93967,154.89135],[1.02187,0.7584],[-0.26928,-0.19985]],[[284.19972,155.5729],[0.31207,-0.12274],[-0.72368,0.28464]],[[281.92217,156.0782],[0.7625,-0.15274],[-2.63679,0.52819]],[[274.06392,156.74106],[2.67328,0],[0,0]],[[272.83583,155.76298],[0.16667,0.97808],[0,0]]],&quot;closed&quot;:true,&quot;fillColor&quot;:[0,0,0,1],&quot;strokeWidth&quot;:0.5}]}" fill="#fdfff4" stroke="none" stroke-width="0.25"/><path d="M196.75799,263.64177v-167.28349h246.48409v167.28349z" fill="none" stroke="#000000" stroke-width="0"/></g></g></svg>