<svg version="1.1" xmlns="http://www.w3.org/2000/svg" xmlns:xlink="http://www.w3.org/1999/xlink" width="246.48409" height="167.28349" viewBox="0,0,246.48409,167.28349"><g transform="translate(-196.75798,-96.35827)"><g data-paper-data="{&quot;isPaintingLayer&quot;:true}" fill-rule="nonzero" stroke-linecap="butt" stroke-linejoin="miter" stroke-miterlimit="10" stroke-dasharray="" stroke-dashoffset="0" style="mix-blend-mode: normal"><path d="M355.88742,194.56871c-1.22573,0.24515 -1.47087,-0.98058 -1.47087,-0.98058l-0.01972,-0.12933c-1.55832,0.22129 -3.12368,0.42459 -4.70467,0.67447c-3.94084,0.62286 -7.2033,2.3992 -11.3519,2.57582c-3.4177,0.1455 -6.52853,-0.95005 -9.92911,-0.97851c-3.87613,-0.03244 -8.62341,1.55826 -11.98855,3.45003c-3.34702,0.5196 -6.6101,1.85334 -9.94706,2.27503c-5.83253,0.73706 -11.82952,-0.31 -17.65465,-0.42237c-0.70561,-0.01361 -1.41688,-0.0064 -2.13193,0.01714c-0.02697,0.03754 -0.0538,0.07517 -0.08049,0.11289c0,0 -0.72655,1.01717 -1.74371,0.29062c-0.12992,-0.0928 -0.2314,-0.19035 -0.30957,-0.28991c-1.46723,0.10478 -2.94237,0.25876 -4.40948,0.424c-0.01822,0.04652 -0.03136,0.0728 -0.03136,0.0728l-1.16294,1.12178c-0.10306,0.01147 -2.19479,0.12918 -2.27576,0.55696c-0.06758,0.35708 0.59657,0.43641 0.80793,0.73205c0.45015,0.62965 0.88768,1.27462 1.36958,1.88076c0.37357,0.03066 0.74993,0.06918 1.12949,0.11613c0,0 1.24035,0.15504 1.0853,1.39539c-0.03532,0.28259 -0.12698,0.49275 -0.24748,0.64882c2.30077,2.62128 3.83489,5.50777 3.15252,9.04923c-0.42878,1.20887 -1.1439,2.38712 -2.13491,3.20144c-0.28457,0.23383 -0.66603,0.60504 -1.05272,0.92627c0.273,0.02627 0.5295,0.0553 0.71855,0.06705c1.66032,0.10322 4.48063,0.51525 6.07241,0.03153c7.02284,-2.13416 16.15623,-3.49305 23.3762,-1.11536c8.43868,0.74047 15.99176,-5.39252 23.75487,-7.83012c6.23166,-1.95673 13.31331,-1.29764 19.72789,-1.27989c4.63472,0.04945 10.39553,0.09343 14.69765,2.1313c3.96457,1.87798 6.85494,6.45539 11.69929,6.9551c2.25767,0.23288 4.57446,-0.70362 7.03035,-0.20072c1.93987,0.39723 3.06054,1.51534 4.88861,1.77581c3.50699,0.8748 7.07984,0.49517 10.5577,1.36737c3.21879,0.80722 7.18889,0.83544 10.56753,-0.19903c1.42643,-0.43674 5.0628,-0.53915 5.95894,-1.97349c0.76107,-1.21815 0.49229,-2.83727 0.90618,-4.2127c0.42738,-1.42025 0.8804,-2.84029 1.34028,-4.26066c-0.25596,-0.02044 -1.18543,-0.16885 -1.18543,-1.24674c0,-1.25 1.25,-1.25 1.25,-1.25h0.74696c0.35178,-1.08316 0.70116,-2.16668 1.03983,-3.2508c2.43716,-7.80089 3.66904,-15.25342 3.66904,-23.43092c0,-3.05596 0.63884,-6.84897 -0.87439,-9.67548c-0.27317,-0.51025 -1.09195,0.41378 -1.66563,0.49036c-1.97699,0.26391 -4.36041,0.21659 -6.32615,0.18419c-0.67251,-0.46812 -1.53196,-0.74436 -2.01754,-1.40437c-1.66443,-2.26233 -0.33036,-8.21794 0.55413,-10.45353c0.01149,-0.02905 0.78789,-2.43259 1.32142,-3.63023c-0.49824,0.22136 -1.20387,0.41355 -1.59345,0.53586c-2.27095,0.71297 -4.20003,1.41848 -6.43588,1.8814c-1.30021,0.26921 -3.39065,2.16168 -4.35017,2.90654c-2.34686,1.82182 -4.74088,3.61773 -7.47588,4.80248c-1.37439,0.53624 -2.84369,1.07316 -4.31605,0.97996c-9.10033,-0.57603 -7.40324,-10.60131 -8.69146,-16.95281c-0.3322,-1.63792 -1.16216,-3.15192 -1.43969,-4.80191c-0.44651,0.971 -1.22913,1.77801 -1.98477,2.53735c-1.26075,1.26692 -2.47715,2.64518 -3.27902,4.24255c-1.36504,4.27552 2.19602,8.24584 1.85834,12.70694c-0.22384,2.95713 -2.19844,4.33574 -3.49205,6.74779c-2.28339,4.25757 -3.25031,8.90296 -6.89992,12.44728c-2.163,2.10061 -5.44436,3.59196 -8.12851,4.93303c-1.83992,0.55613 -3.66923,0.93358 -5.50202,1.23844l0.00447,0.01461c0,0 0.24515,1.22573 -0.98058,1.47087zM354.15823,190.29705c-2.58622,-0.55927 -5.26395,0.16826 -7.86361,0.08345c-3.13646,-0.10232 -5.74243,-1.56174 -8.89926,-1.77481c-1.74233,-0.1176 -2.71751,0.35045 -4.33085,0.6406c-4.82024,0.8669 -10.81451,0.68216 -15.71142,0.69139c-1.84519,0 -4.02925,0.33782 -5.84536,0.22152c-4.71952,-0.30225 -8.59128,-3.04969 -13.44002,-0.99342c-2.16349,0.9175 -3.89263,3.3312 -5.329,5.03543c-1.25544,1.48955 -2.66667,2.88031 -3.98044,4.33075c0.03607,0.00052 0.07214,0.00109 0.10819,0.00171c5.70437,0.0985 11.58474,1.16387 17.29553,0.44169c3.18521,-0.40279 6.23795,-1.751 9.44926,-2.15945c3.55399,-2.06733 8.71487,-3.60504 12.81761,-3.58528c2.56832,0.01237 4.93726,0.90055 7.45368,1.09297c4.97271,0.38024 8.74577,-1.86519 13.40661,-2.65764c1.67939,-0.28553 3.3462,-0.49534 5.00741,-0.72662c-0.01123,-0.22274 -0.05189,-0.43988 -0.13831,-0.6423zM290.8276,192.5895c1.70878,-2.02502 3.6898,-4.61345 6.22874,-5.70999c2.64637,-1.14295 6.16731,-1.3 8.9638,-0.74542c1.86885,0.37062 3.58499,1.40776 5.52791,1.52544c1.80763,0.10949 3.96097,-0.22184 5.80505,-0.22184c4.68772,0.00973 10.59237,0.21854 15.2008,-0.63869c2.80018,-0.52087 5.78738,-1.11765 8.74467,-0.43627c1.27551,0.29388 2.37384,1.15966 3.65134,1.44479c3.67314,0.81983 7.14907,-0.78953 10.84633,0.60089c0.35275,0.67753 0.62862,1.42567 0.7763,2.1909c1.62391,-0.26574 3.24552,-0.59476 4.8714,-1.07847c2.37623,-1.18916 5.40305,-2.52827 7.30322,-4.39749c3.4353,-3.37935 4.33439,-7.86226 6.48681,-11.9176c1.05135,-1.98084 3.00388,-3.30932 3.15836,-5.66631c0.32159,-4.90682 -3.11905,-8.46168 -1.68855,-13.45134c0.11642,-0.23366 1.48853,-3.16912 2.00716,-3.70157c1.2091,-1.24133 2.45488,-2.73558 3.72073,-3.93394c0.60747,-0.57509 1.15567,-1.82274 1.95439,-1.57417c1.91002,0.59442 2.61661,3.85477 3.10568,5.4206c1.15992,3.71368 0.81934,7.41053 1.62768,11.15446c0.23736,1.09939 0.01796,2.39322 0.67523,3.3059c1.27334,1.76818 3.74416,3.30841 6.0125,2.74963c0.69135,-0.17031 1.31656,-0.54275 1.97483,-0.81413c3.36817,-1.42502 5.97824,-3.99727 8.98791,-6.01211c2.33872,-1.56567 4.48704,-1.84505 7.00197,-2.86868c0.7749,-0.3154 5.87055,-2.31996 6.72236,-1.61907c0.70791,0.58248 0.50792,1.78548 0.51165,2.70221c0.00972,2.3881 -1.72935,4.30631 -2.23189,6.52872c-0.25969,1.14842 0.02384,2.35476 0.02255,3.53218c-0.00143,1.30173 -0.45565,2.37253 0.66399,3.01556c1.63361,-0.03941 3.58709,-0.04421 5.20123,-0.25917c1.31217,-0.17475 2.22305,-1.34087 3.6547,0.047c2.23992,2.17141 1.78577,6.52706 1.78577,9.22887c0,9.2769 -1.00971,17.67544 -3.78277,26.55333c-0.26772,0.85701 -0.54197,1.71364 -0.81877,2.57c2.56448,0.14505 5.40944,0.60365 7.2279,2.0226c4.7485,3.70527 1.20464,12.15914 -0.84601,16.11053c-1.31099,1.58179 -2.69959,3.92497 -4.15591,5.34724c-4.10126,4.00533 -9.75338,6.43461 -14.77794,8.95507c-3.1001,1.5551 -5.93702,3.58002 -9.47329,4.12683c-3.73572,0.57765 -9.06465,-1.21981 -12.7322,-2.03863c-4.94159,-1.95035 -8.93398,-4.6425 -13.53494,-7.19293c-3.97092,-2.20119 -8.05263,-4.08525 -12.01939,-6.31748c-3.46069,-1.94744 -7.56854,-2.88188 -10.81387,-5.0613c-2.02794,-1.36188 -3.86483,-3.17308 -5.72123,-4.75723c-4.14609,-1.98402 -9.43874,5.65192 -12.36184,8.22294c-6.17264,5.42915 -17.17608,5.42089 -24.8971,5.40429c-4.16758,0.58638 -8.59994,-0.58722 -12.79756,-0.88572c-4.98582,-0.35455 -10.17493,-0.0215 -15.16185,0.22234c-1.99149,0.09738 -4.26791,0.53228 -6.24654,0.20703c-3.38434,-0.55633 -6.32915,-3.15751 -9.17148,-4.88497c-3.55268,-4.48207 -8.68211,-9.1115 -8.50379,-15.22796c0.04043,-1.38676 0.15003,-4.56955 0.99116,-5.6833c0.59881,-0.79289 3.93883,-1.11696 4.64319,-1.26456c3.58716,-0.75167 6.95375,-1.44407 10.4739,-1.54743c-0.10182,-0.17418 -0.19945,-0.35096 -0.29236,-0.53063c-0.41667,-0.80571 -1.36637,-1.61719 -1.10632,-2.48619c0.09354,-0.31259 0.2632,-0.58491 0.48068,-0.82783c-0.3232,-0.12642 -0.65842,-0.40692 -0.71993,-1.02196c-0.12438,-1.2438 1.11942,-1.36818 1.11942,-1.36818c3.37296,-0.33499 6.86802,-0.82974 10.31118,-1.0249c1.68488,-2.08677 3.67206,-3.95871 5.41307,-6.02192zM265.68878,209.85933c-1.10114,0.23191 -2.76757,-0.46152 -3.3373,0.50889c-0.68936,1.17417 -0.29115,2.7099 -0.33892,4.07064c-0.18376,5.23474 4.69152,9.40209 7.65947,13.28139c2.46343,1.43923 5.0217,3.79962 7.91731,4.29134c1.77744,0.30184 3.92745,-0.14848 5.7242,-0.23633c5.07721,-0.24826 10.35319,-0.57772 15.43003,-0.22102c4.08044,0.28669 8.43156,1.47463 12.474,0.88773c6.29209,-0.01207 13.56064,-0.08864 19.28693,-2.76648c1.32294,-0.61866 3.01647,-1.01157 4.14228,-2.02652c3.03953,-2.74022 5.90182,-6.42584 9.56248,-8.43174c0.87795,-0.48108 1.75762,-1.17973 2.75871,-1.1873c1.06618,-0.00805 1.9914,0.7626 2.9871,1.1439c7.81429,6.51183 17.48864,10.58117 26.61152,15.15358c5.12116,2.56674 9.55226,5.76542 14.91244,7.92072c3.26823,0.72228 8.32451,2.50589 11.65263,1.95162c3.23476,-0.53872 5.84486,-2.45225 8.69523,-3.88475c4.79797,-2.4113 10.22586,-4.6987 14.15568,-8.51205c1.3592,-1.31892 2.58908,-3.47342 3.81606,-4.93713c1.5743,-3.07882 3.54579,-7.1574 2.25396,-10.71436c-0.26813,-0.73829 -0.33699,-1.69241 -0.98057,-2.1427c-1.57851,-1.10442 -4.17878,-1.37949 -6.36772,-1.44269c-0.53736,1.65437 -1.07001,3.30806 -1.56914,4.9618c-0.2658,0.88065 -0.69322,4.1388 -1.22711,4.8891c-1.65286,2.32285 -4.85241,2.22289 -7.3025,2.96702c-3.87556,1.17708 -8.36154,1.14072 -12.08323,0.18078c-3.34564,-0.86294 -6.87271,-0.4389 -10.28025,-1.2928c-1.85702,-0.34242 -2.98409,-1.40594 -4.86533,-1.77108c-2.3329,-0.45281 -4.55011,0.49535 -6.71383,0.24264c-2.15308,-0.25147 -6.86458,-2.40129 -8.66512,-3.80876c-1.29099,-1.00916 -2.52238,-2.71991 -4.02043,-3.42368c-3.9265,-1.84465 -9.34207,-1.80373 -13.56017,-1.84828c-6.12768,-0.02957 -13.01066,-0.72764 -18.95675,1.16383c-8.28372,2.63508 -15.97701,8.73963 -25.01981,7.89328c-4.17185,-1.40832 -10.50895,-1.37769 -14.88749,-0.86958c-3.70987,0.43051 -6.85172,2.00446 -10.5715,2.00446c-1.79561,0 -3.95884,0.24258 -5.71384,-0.23355c-0.8037,-0.21804 -2.05281,-0.16933 -2.30524,-0.9629c-0.87071,-2.73728 3.93428,-3.91545 4.59415,-6.13807c0.1828,-0.87208 0.76599,-1.88365 0.31835,-2.65407c-1.17354,-2.01976 -2.91703,-3.69137 -4.44145,-5.49904c-4.01845,-0.14891 -7.73353,0.64737 -11.74485,1.49217z" fill="#000000" stroke="none" stroke-width="0.5"/><path d="M354.20796,190.29168c0.08642,0.20242 0.12718,0.42055 0.13841,0.64329c-1.66121,0.23128 -3.32798,0.4416 -5.00737,0.72713c-4.66084,0.79245 -8.43378,3.04351 -13.40649,2.66327c-2.51642,-0.19242 -4.98515,-1.07814 -7.55347,-1.09051c-4.10274,-0.01976 -9.2584,1.53633 -12.81239,3.60366c-3.21131,0.40845 -6.26685,1.74996 -9.45206,2.15275c-5.71079,0.72218 -11.59325,-0.35196 -17.29762,-0.45046c-0.03605,-0.00062 -0.07212,-0.00122 -0.10819,-0.00174c1.31377,-1.45044 2.72449,-2.84765 3.97993,-4.3372c1.43637,-1.70423 3.16646,-4.12832 5.32995,-5.04582c4.84874,-2.05627 8.72258,0.68375 13.4421,0.986c1.81611,0.1163 4.01051,-0.23841 5.8557,-0.23841c4.89691,-0.00923 10.97429,0.19113 15.79453,-0.67577c1.61334,-0.29015 2.58954,-0.75539 4.33187,-0.63779c3.15683,0.21307 5.76482,1.68122 8.90128,1.78354c2.59966,0.08481 5.27758,-0.64121 7.8638,-0.08194z" data-paper-data="{&quot;noHover&quot;:false,&quot;origItem&quot;:[&quot;Path&quot;,{&quot;applyMatrix&quot;:true,&quot;segments&quot;:[[[354.15823,190.29705],[0,0],[-2.58622,-0.55927]],[[346.29462,190.3805],[2.59966,0.08481],[-3.13646,-0.10232]],[[337.39536,188.60569],[3.15683,0.21307],[-1.74233,-0.1176]],[[333.06451,189.24629],[1.61334,-0.29015],[-4.82024,0.8669]],[[317.35309,189.93768],[4.89691,-0.00923],[-1.84519,0]],[[311.50773,190.1592],[1.81611,0.1163],[-4.71952,-0.30225]],[[298.06771,189.16578],[4.84874,-2.05627],[-2.16349,0.9175]],[[292.73871,194.20121],[1.43637,-1.70423],[-1.25544,1.48955]],[[288.75827,198.53196],[1.31377,-1.45044],[0.03607,0.00052]],[[288.86646,198.53367],[-0.03605,-0.00062],[5.70437,0.0985]],[[306.16199,198.97536],[-5.71079,0.72218],[3.18521,-0.40279]],[[315.61125,196.81591],[-3.21131,0.40845],[3.55399,-2.06733]],[[328.42886,193.23063],[-4.10274,-0.01976],[2.56832,0.01237]],[[335.88254,194.3236],[-2.51642,-0.19242],[4.97271,0.38024]],[[349.28915,191.66596],[-4.66084,0.79245],[1.67939,-0.28553]],[[354.29656,190.93934],[-1.66121,0.23128],[-0.01123,-0.22274]],[[354.15825,190.29704],[0.08642,0.20242],[0,0]]],&quot;closed&quot;:true,&quot;fillColor&quot;:[0,0,0,1]}]}" fill="#fff69c" stroke="none" stroke-width="0.5"/><path d="M265.63975,209.84944c4.01132,-0.8448 7.82383,-1.61872 11.84228,-1.46981c1.52442,1.80767 3.2686,3.47618 4.44214,5.49594c0.44764,0.77042 -0.13521,1.78001 -0.31801,2.65209c-0.65987,2.22262 -5.46438,3.39601 -4.59367,6.13329c0.25243,0.79357 1.50157,0.74424 2.30527,0.96228c1.755,0.47613 3.81831,0.22958 5.61392,0.22958c3.71978,0 6.86178,-1.57628 10.57165,-2.00679c4.37854,-0.50811 10.71569,-0.5393 14.88754,0.86902c9.0428,0.84635 16.75013,-5.2883 25.03385,-7.92338c5.94609,-1.89147 12.88954,-1.20187 19.01722,-1.1723c4.2181,0.04455 9.65328,0.02399 13.57978,1.86864c1.49805,0.70377 2.73301,2.42333 4.024,3.43249c1.80054,1.40747 6.51384,3.56625 8.66692,3.81772c2.16372,0.25271 4.38099,-0.69487 6.71389,-0.24206c1.88124,0.36514 3.00848,1.43112 4.8655,1.77354c3.40754,0.8539 6.93466,0.43145 10.2803,1.29439c3.72169,0.95994 8.10768,0.99769 11.98324,-0.17939c2.45009,-0.74413 5.6497,-0.64226 7.30256,-2.96511c0.53389,-0.7503 0.96157,-4.00531 1.22737,-4.88596c0.49913,-1.65374 1.03222,-3.30444 1.56958,-4.95881c2.18894,0.0632 4.88791,0.32226 6.46642,1.42668c0.64358,0.45029 0.71262,1.40572 0.98075,2.14401c1.29183,3.55696 -0.67931,7.64182 -2.25361,10.72064c-1.22698,1.46371 -2.45698,3.62135 -3.81618,4.94027c-3.92982,3.81335 -9.35872,6.10786 -14.15669,8.51916c-2.85037,1.4325 -5.46171,3.35067 -8.69647,3.88939c-3.32812,0.55427 -8.47908,-1.26148 -11.74731,-1.98376c-5.36018,-2.1553 -9.79247,-5.35021 -14.91363,-7.91695c-9.12288,-4.57241 -18.76693,-8.58193 -26.58122,-15.09376c-0.9957,-0.3813 -1.90155,-1.14864 -2.96773,-1.14059c-1.00109,0.00757 -1.86277,0.70232 -2.74072,1.1834c-3.66066,2.0059 -6.49264,5.64021 -9.53217,8.38043c-1.12581,1.01495 -2.82004,1.40327 -4.14298,2.02193c-5.72629,2.67784 -13.09316,2.77261 -19.38525,2.78468c-4.04244,0.5869 -8.39398,-0.60405 -12.47442,-0.89074c-5.07684,-0.3567 -10.35293,-0.02835 -15.43014,0.21991c-1.79675,0.08785 -3.94677,0.53799 -5.72421,0.23615c-2.89561,-0.49172 -5.45404,-2.85528 -7.91747,-4.29451c-2.96795,-3.8793 -7.84276,-8.05446 -7.659,-13.2892c0.04777,-1.36074 -0.35006,-2.8988 0.3393,-4.07297c0.56973,-0.97041 2.23629,-0.27764 3.33743,-0.50955z" data-paper-data="{&quot;noHover&quot;:false,&quot;origItem&quot;:[&quot;Path&quot;,{&quot;applyMatrix&quot;:true,&quot;segments&quot;:[[[265.68878,209.85933],[0,0],[-1.10114,0.23191]],[[262.35148,210.36822],[0.56973,-0.97041],[-0.68936,1.17417]],[[262.01256,214.43886],[0.04777,-1.36074],[-0.18376,5.23474]],[[269.67203,227.72025],[-2.96795,-3.8793],[2.46343,1.43923]],[[277.58934,232.01159],[-2.89561,-0.49172],[1.77744,0.30184]],[[283.31354,231.77526],[-1.79675,0.08785],[5.07721,-0.24826]],[[298.74357,231.55424],[-5.07684,-0.3567],[4.08044,0.28669]],[[311.21757,232.44197],[-4.04244,0.5869],[6.29209,-0.01207]],[[330.5045,229.67549],[-5.72629,2.67784],[1.32294,-0.61866]],[[334.64678,227.64897],[-1.12581,1.01495],[3.03953,-2.74022]],[[344.20926,219.21723],[-3.66066,2.0059],[0.87795,-0.48108]],[[346.96797,218.02993],[-1.00109,0.00757],[1.06618,-0.00805]],[[349.95507,219.17383],[-0.9957,-0.3813],[7.81429,6.51183]],[[376.56659,234.32741],[-9.12288,-4.57241],[5.12116,2.56674]],[[391.47903,242.24813],[-5.36018,-2.1553],[3.26823,0.72228]],[[403.13166,244.19975],[-3.32812,0.55427],[3.23476,-0.53872]],[[411.82689,240.315],[-2.85037,1.4325],[4.79797,-2.4113]],[[425.98257,231.80295],[-3.92982,3.81335],[1.3592,-1.31892]],[[429.79863,226.86582],[-1.22698,1.46371],[1.5743,-3.07882]],[[432.05259,216.15146],[1.29183,3.55696],[-0.26813,-0.73829]],[[431.07202,214.00876],[0.64358,0.45029],[-1.57851,-1.10442]],[[424.7043,212.56607],[2.18894,0.0632],[-0.53736,1.65437]],[[423.13516,217.52787],[0.49913,-1.65374],[-0.2658,0.88065]],[[421.90805,222.41697],[0.53389,-0.7503],[-1.65286,2.32285]],[[414.60555,225.38399],[2.45009,-0.74413],[-3.87556,1.17708]],[[402.52232,225.56477],[3.72169,0.95994],[-3.34564,-0.86294]],[[392.24207,224.27197],[3.40754,0.8539],[-1.85702,-0.34242]],[[387.37674,222.50089],[1.88124,0.36514],[-2.3329,-0.45281]],[[380.66291,222.74353],[2.16372,0.25271],[-2.15308,-0.25147]],[[371.99779,218.93477],[1.80054,1.40747],[-1.29099,-1.00916]],[[367.97736,215.51109],[1.49805,0.70377],[-3.9265,-1.84465]],[[354.41719,213.66281],[4.2181,0.04455],[-6.12768,-0.02957]],[[335.46044,214.82664],[5.94609,-1.89147],[-8.28372,2.63508]],[[310.44063,222.71992],[9.0428,0.84635],[-4.17185,-1.40832]],[[295.55314,221.85034],[4.37854,-0.50811],[-3.70987,0.43051]],[[284.98164,223.8548],[3.71978,0],[-1.79561,0]],[[279.2678,223.62125],[1.755,0.47613],[-0.8037,-0.21804]],[[276.96256,222.65835],[0.25243,0.79357],[-0.87071,-2.73728]],[[281.55671,216.52028],[-0.65987,2.22262],[0.1828,-0.87208]],[[281.87506,213.86621],[0.44764,0.77042],[-1.17354,-2.01976]],[[277.43361,208.36717],[1.52442,1.80767],[-4.01845,-0.14891]],[[265.68876,209.85934],[4.01132,-0.8448],[0,0]]],&quot;closed&quot;:true,&quot;fillColor&quot;:[0,0,0,1]}]}" fill="#fff69c" stroke="none" stroke-width="0.5"/><path d="M355.86765,194.52276c1.22573,-0.24514 0.97286,-1.46671 0.97286,-1.46671l-0.00449,-0.0146c1.83279,-0.30486 3.64624,-0.66546 5.48616,-1.22159c2.68415,-1.34107 5.95893,-2.80998 8.12193,-4.91059c3.64961,-3.54432 4.62101,-8.16641 6.9044,-12.42398c1.29361,-2.41205 3.27151,-3.7846 3.49535,-6.74173c0.33768,-4.4611 -3.21394,-8.42049 -1.8489,-12.69601c0.80187,-1.59737 2.08346,-3.05146 3.34421,-4.31838c0.75564,-0.75934 1.53815,-1.56644 1.98466,-2.53744c0.27753,1.64999 1.11077,3.16704 1.44297,4.80496c1.28822,6.3515 -0.39777,16.3941 8.70256,16.97013c1.47236,0.0932 2.84795,-0.40882 4.22234,-0.94506c2.735,-1.18475 5.12962,-2.9791 7.47648,-4.80092c0.95952,-0.74486 3.14237,-2.67554 4.44258,-2.94475c2.23585,-0.46292 4.16514,-1.16792 6.43609,-1.88089c0.38958,-0.12231 1.09524,-0.31443 1.59348,-0.53579c-0.53353,1.19764 -1.30919,3.60311 -1.32068,3.63216c-0.88449,2.23559 -2.21658,8.19827 -0.55215,10.4606c0.48558,0.66001 1.34527,0.93754 2.01778,1.40566c1.96574,0.0324 4.34926,0.08033 6.32625,-0.18358c0.57368,-0.07658 1.39244,-1.00075 1.66561,-0.4905c1.51323,2.82651 0.87503,6.62592 0.87503,9.68188c0,8.1775 -1.23383,15.6457 -3.67099,23.44659c-0.33867,1.08412 -0.68874,2.16982 -1.04052,3.25298l-0.74701,0.00015c0,0 -1.25036,0.00102 -1.25036,1.25102c0,1.07789 0.92929,1.22678 1.18525,1.24722c-0.45988,1.42037 -0.91404,2.84315 -1.34142,4.2634c-0.41389,1.37543 -0.14631,2.99704 -0.90738,4.21519c-0.89614,1.43434 -4.53403,1.53948 -5.96046,1.97622c-3.37864,1.03447 -7.35119,1.00995 -10.56998,0.20273c-3.47786,-0.8722 -7.05367,-0.48889 -10.56066,-1.36369c-1.82807,-0.26047 -2.95005,-1.37716 -4.88992,-1.77439c-2.45589,-0.5029 -4.77678,0.43743 -7.03445,0.20455c-4.84435,-0.49971 -7.74043,-5.07299 -11.705,-6.95097c-4.30212,-2.03787 -10.08487,-2.07453 -14.71959,-2.12398c-6.41458,-0.01775 -13.52824,-0.68495 -19.7599,1.27178c-7.76311,2.4376 -15.32706,8.56084 -23.76574,7.82037c-7.21997,-2.37769 -16.35876,-1.02674 -23.3816,1.10742c-1.59178,0.48372 -4.41295,0.07004 -6.07327,-0.03318c-0.18905,-0.01175 -0.44566,-0.04099 -0.71866,-0.06726c0.38669,-0.32123 0.76805,-0.69265 1.05262,-0.92648c0.99101,-0.81432 1.70558,-1.99374 2.13436,-3.20261c0.68237,-3.54146 -0.85403,-6.43393 -3.1548,-9.05521c0.1205,-0.15607 0.21205,-0.36658 0.24737,-0.64917c0.15505,-1.24035 -1.08561,-1.39645 -1.08561,-1.39645c-0.37956,-0.04695 -0.75599,-0.08573 -1.12956,-0.11639c-0.4819,-0.60614 -0.91978,-1.25248 -1.36993,-1.88213c-0.21136,-0.29564 -0.87564,-0.37554 -0.80806,-0.73262c0.08097,-0.42778 2.17269,-0.54551 2.27575,-0.55698l1.16282,-1.12233c0,0 0.11087,-0.04746 0.12909,-0.09398c1.46711,-0.16524 2.94217,-0.31958 4.4094,-0.42436c0.07817,0.09956 0.17959,0.19686 0.30951,0.28966c1.01716,0.72655 1.64626,-0.26818 1.64626,-0.26818c0.02669,-0.03772 0.15097,-0.0978 0.17794,-0.13534c0.71505,-0.02354 1.42624,-0.03109 2.13185,-0.01748c5.82513,0.11237 11.82084,1.15496 17.65337,0.4179c3.33696,-0.42169 6.59959,-1.7567 9.94661,-2.2763c3.36514,-1.89177 8.11178,-3.48411 11.98791,-3.45167c3.40058,0.02846 6.5047,1.11237 9.9224,0.96687c4.1486,-0.17662 7.38624,-1.97018 11.32708,-2.59304c1.58099,-0.24988 3.11747,-0.45337 4.67579,-0.67466l0.01983,0.1293c0,0 0.23939,1.2278 1.46512,0.98265z" data-paper-data="{&quot;noHover&quot;:false,&quot;origItem&quot;:[&quot;Path&quot;,{&quot;applyMatrix&quot;:true,&quot;segments&quot;:[[[355.88742,194.56871],[0,0],[-1.22573,0.24515]],[354.41655,193.58813],[[354.39683,193.4588],[0,0],[-1.55832,0.22129]],[[349.69216,194.13327],[1.58099,-0.24988],[-3.94084,0.62286]],[[338.34026,196.70909],[4.1486,-0.17662],[-3.4177,0.1455]],[[328.41115,195.73058],[3.40058,0.02846],[-3.87613,-0.03244]],[[316.4226,199.18061],[3.36514,-1.89177],[-3.34702,0.5196]],[[306.47554,201.45564],[3.33696,-0.42169],[-5.83253,0.73706]],[[288.82089,201.03327],[5.82513,0.11237],[-0.70561,-0.01361]],[[286.68896,201.05041],[0.71505,-0.02354],[-0.02697,0.03754]],[[286.60847,201.1633],[0.02669,-0.03772],[0,0]],[[284.86476,201.45392],[1.01716,0.72655],[-0.12992,-0.0928]],[[284.55519,201.16401],[0.07817,0.09956],[-1.46723,0.10478]],[[280.14571,201.58801],[1.46711,-0.16524],[-0.01822,0.04652]],[280.11435,201.66081],[[278.95141,202.78259],[0,0],[-0.10306,0.01147]],[[276.67565,203.33955],[0.08097,-0.42778],[-0.06758,0.35708]],[[277.48358,204.0716],[-0.21136,-0.29564],[0.45015,0.62965]],[[278.85316,205.95236],[-0.4819,-0.60614],[0.37357,0.03066]],[[279.98265,206.06849],[-0.37956,-0.04695],[0,0]],[[281.06795,207.46388],[0.15505,-1.24035],[-0.03532,0.28259]],[[280.82047,208.1127],[0.1205,-0.15607],[2.30077,2.62128]],[[283.97299,217.16193],[0.68237,-3.54146],[-0.42878,1.20887]],[[281.83808,220.36337],[0.99101,-0.81432],[-0.28457,0.23383]],[[280.78536,221.28964],[0.38669,-0.32123],[0.273,0.02627]],[[281.50391,221.35669],[-0.18905,-0.01175],[1.66032,0.10322]],[[287.57632,221.38822],[-1.59178,0.48372],[7.02284,-2.13416]],[[310.95252,220.27286],[-7.21997,-2.37769],[8.43868,0.74047]],[[334.70739,212.44274],[-7.76311,2.4376],[6.23166,-1.95673]],[[354.43528,211.16285],[-6.41458,-0.01775],[4.63472,0.04945]],[[369.13293,213.29415],[-4.30212,-2.03787],[3.96457,1.87798]],[[380.83222,220.24925],[-4.84435,-0.49971],[2.25767,0.23288]],[[387.86257,220.04853],[-2.45589,-0.5029],[1.93987,0.39723]],[[392.75118,221.82434],[-1.82807,-0.26047],[3.50699,0.8748]],[[403.30888,223.19171],[-3.47786,-0.8722],[3.21879,0.80722]],[[413.87641,222.99268],[-3.37864,1.03447],[1.42643,-0.43674]],[[419.83535,221.01919],[-0.89614,1.43434],[0.76107,-1.21815]],[[420.74153,216.80649],[-0.41389,1.37543],[0.42738,-1.42025]],[[422.08181,212.54583],[-0.45988,1.42037],[-0.25596,-0.02044]],[[420.89638,211.29909],[0,1.07789],[0,-1.25]],[422.14638,210.04909],[[422.89334,210.04909],[0,0],[0.35178,-1.08316]],[[423.93317,206.79829],[-0.33867,1.08412],[2.43716,-7.80089]],[[427.60221,183.36737],[0,8.1775],[0,-3.05596]],[[426.72782,173.69189],[1.51323,2.82651],[-0.27317,-0.51025]],[[425.06219,174.18225],[0.57368,-0.07658],[-1.97699,0.26391]],[[418.73604,174.36644],[1.96574,0.0324],[-0.67251,-0.46812]],[[416.7185,172.96207],[0.48558,0.66001],[-1.66443,-2.26233]],[[417.27263,162.50854],[-0.88449,2.23559],[0.01149,-0.02905]],[[418.59405,158.87831],[-0.53353,1.19764],[-0.49824,0.22136]],[[417.0006,159.41417],[0.38958,-0.12231],[-2.27095,0.71297]],[[410.56472,161.29557],[2.23585,-0.46292],[-1.30021,0.26921]],[[406.21455,164.20211],[0.95952,-0.74486],[-2.34686,1.82182]],[[398.73867,169.00459],[2.735,-1.18475],[-1.37439,0.53624]],[[394.42262,169.98455],[1.47236,0.0932],[-9.10033,-0.57603]],[[385.73116,153.03174],[1.28822,6.3515],[-0.3322,-1.63792]],[[384.29147,148.22983],[0.27753,1.64999],[-0.44651,0.971]],[[382.3067,150.76718],[0.75564,-0.75934],[-1.26075,1.26692]],[[379.02768,155.00973],[0.80187,-1.59737],[-1.36504,4.27552]],[[380.88602,167.71667],[0.33768,-4.4611],[-0.22384,2.95713]],[[377.39397,174.46446],[1.29361,-2.41205],[-2.28339,4.25757]],[[370.49405,186.91174],[3.64961,-3.54432],[-2.163,2.10061]],[[362.36554,191.84477],[2.68415,-1.34107],[-1.83992,0.55613]],[[356.86352,193.08321],[1.83279,-0.30486],[0,0]],[356.86799,193.09782],[[355.88741,194.56869],[1.22573,-0.24514],[0,0]]],&quot;closed&quot;:true,&quot;fillColor&quot;:[0,0,0,1],&quot;strokeWidth&quot;:0.5}]}" fill="#fdfff4" stroke="none" stroke-width="0.25"/><path d="M332.42126,177.68376c0.12483,0 0.2372,0.01247 0.33834,0.03491c2.54507,-6.80309 1.56732,-14.41887 3.57255,-21.34248c0.43519,-1.50263 1.02086,-3.11591 2.19745,-4.14689c0.58475,-0.51238 1.53009,-0.28027 2.28723,-0.45689c3.13685,-0.73176 6.85926,-1.27919 9.29377,1.01095c1.87424,5.6551 -3.30874,10.02683 -3.9772,15.43789c-0.39332,3.18382 -0.00114,6.71322 -1.78614,9.59567c-2.40799,3.88847 -9.65556,6.25368 -12.90208,2.56275l-0.27391,-1.44591c0,0 0,-1.25 1.25,-1.25zM334.64554,179.71461c2.37364,0.70798 6.50461,-1.43199 7.5744,-3.21089c1.54102,-2.5625 1.04765,-5.81032 1.43479,-8.60837c0.28845,-2.08479 1.29809,-4.48094 1.98762,-6.41935c0.85321,-2.39856 3.26728,-4.63979 2.34162,-7.37831c-0.98503,-1.26992 -5.19847,-0.09954 -6.66722,0.12423c-0.41512,0.06324 -0.96206,-0.30978 -1.25966,-0.01353c-1.00161,0.99706 -1.19623,3.65008 -1.40017,4.87916c-1.10799,6.67729 -1.29779,14.29497 -3.97833,20.5603c0,0 -0.01084,0.02529 -0.03306,0.06677z" fill="#000000" stroke="none" stroke-width="0.5"/><path d="M334.62247,179.75898c0.02222,-0.04148 0.03306,-0.06677 0.03306,-0.06677c2.68054,-6.26533 2.87632,-13.97436 3.98431,-20.65165c0.20394,-1.22908 0.41022,-3.88481 1.41183,-4.88187c0.2976,-0.29625 0.84956,0.07648 1.26468,0.01324c1.46875,-0.22377 5.70572,-1.38848 6.69075,-0.11856c0.92566,2.73852 -1.48004,4.98525 -2.33325,7.38381c-0.68953,1.93841 -1.68669,4.3972 -1.97514,6.48199c-0.38714,2.79805 0.06633,6.0719 -1.47469,8.6344c-1.06979,1.7789 -5.22789,3.9134 -7.60153,3.20542z" data-paper-data="{&quot;noHover&quot;:false,&quot;origItem&quot;:[&quot;Path&quot;,{&quot;applyMatrix&quot;:true,&quot;segments&quot;:[[[334.64554,179.71461],[0,0],[2.37364,0.70798]],[[342.21994,176.50372],[-1.06979,1.7789],[1.54102,-2.5625]],[[343.65473,167.89535],[-0.38714,2.79805],[0.28845,-2.08479]],[[345.64235,161.476],[-0.68953,1.93841],[0.85321,-2.39856]],[[347.98397,154.09769],[0.92566,2.73852],[-0.98503,-1.26992]],[[341.31675,154.22192],[1.46875,-0.22377],[-0.41512,0.06324]],[[340.05709,154.20839],[0.2976,-0.29625],[-1.00161,0.99706]],[[338.65692,159.08755],[0.20394,-1.22908],[-1.10799,6.67729]],[[334.67859,179.64785],[2.68054,-6.26533],[0,0]],[[334.64553,179.71462],[0.02222,-0.04148],[0,0]]],&quot;closed&quot;:true,&quot;fillColor&quot;:[0,0,0,1],&quot;strokeWidth&quot;:0.5}]}" fill="#fdfff4" stroke="none" stroke-width="0.25"/><path d="M362.70285,175.97046c1.60173,-0.05134 3.25367,0.0759 4.09502,0.99042c2.58389,2.8086 -0.45111,7.43031 -3.45105,8.27617c-1.55706,0.43902 -5.17971,0.51461 -6.0767,-1.25381c-0.41227,-0.8128 -0.05873,-1.82362 -0.15799,-2.72958c-0.21512,-1.96341 -1.52128,-5.72571 1.13991,-6.98968c2.32042,-1.10212 2.91279,0.44836 3.78761,1.73663c0.02547,-0.00145 0.05099,-0.00287 0.07654,-0.00426l0.09174,-0.27039c0,0 0.25023,0.06256 0.49493,0.2445zM359.11095,178.49856c0.14088,1.05763 0.46969,2.17097 0.49265,2.5489c0.12885,2.12108 0.38124,2.46976 3.07588,1.7803c1.28618,-0.32908 3.39615,-2.76152 2.31264,-4.13793c-0.4803,-0.61013 -4.47512,-0.05783 -5.30417,-0.05783c0,0 -0.28129,0 -0.57699,-0.13344z" fill="#000000" stroke="none" stroke-width="0.5"/><path d="M359.07071,178.4689c0.2957,0.13344 0.5792,0.13065 0.5792,0.13065c0.82905,0 4.90196,-0.54979 5.38226,0.06034c1.08351,1.37641 -1.05516,3.88748 -2.34134,4.21656c-2.69464,0.68946 -3.00811,0.29729 -3.13696,-1.82379c-0.02296,-0.37793 -0.3423,-1.52614 -0.48318,-2.58377z" data-paper-data="{&quot;noHover&quot;:false,&quot;origItem&quot;:[&quot;Path&quot;,{&quot;applyMatrix&quot;:true,&quot;segments&quot;:[[[359.11095,178.49856],[0,0],[0.14088,1.05763]],[[359.6036,181.04746],[-0.02296,-0.37793],[0.12885,2.12108]],[[362.67948,182.82776],[-2.69464,0.68946],[1.28618,-0.32908]],[[364.99212,178.68983],[1.08351,1.37641],[-0.4803,-0.61013]],[[359.68795,178.632],[0.82905,0],[0,0]],[[359.11096,178.49856],[0.2957,0.13344],[0,0]]],&quot;closed&quot;:true,&quot;fillColor&quot;:[0,0,0,1],&quot;strokeWidth&quot;:0.5}]}" fill="#fdfff4" stroke="none" stroke-width="0.25"/><path d="M271.15945,126.05534c0.0852,-0.77214 0.27832,-1.51081 0.7109,-2.059c2.23305,-2.82988 7.57286,0.21627 9.02905,2.33656c3.25819,4.7441 0.15497,11.44357 -1.11859,16.27224c-0.69226,2.62468 -0.76765,4.7497 -2.74463,6.6699c-0.87426,0.04157 -3.09913,0.32254 -3.88115,-0.37104c-1.77342,-1.57288 -1.38125,-3.24824 -1.39409,-5.27893c-0.02953,-4.66938 -0.22906,-9.42127 0.02774,-14.08979c-0.69278,-0.30124 -0.69278,-1.14464 -0.69278,-1.14464c0.00045,-0.10766 0.00017,-0.21863 -0.0003,-0.33228l-0.21023,-0.27126c0,0 -0.71862,-1.00607 0.27409,-1.73177zM273.58903,127.32466l0.61227,0.90619c0.14955,4.29253 0.05963,8.59949 0.05963,12.89422c0,2.55334 -1.0904,5.4871 1.81853,5.84027c0.77216,-0.90921 0.96769,-3.80031 1.2832,-4.99468c1.02068,-3.86389 4.16728,-10.31456 1.50399,-14.18245c-0.50856,-0.73857 -4.24087,-3.49564 -5.15849,-2.09704c-0.09402,0.14331 -0.11666,0.93503 -0.11913,1.63348z" fill="#000000" stroke="none" stroke-width="0.5"/><path d="M273.57214,127.27759c0.00247,-0.69845 0.02801,-1.49111 0.12203,-1.63442c0.91762,-1.3986 4.67621,1.35801 5.18477,2.09658c2.66329,3.86789 -0.49038,10.41675 -1.51106,14.28064c-0.31551,1.19437 -0.51935,4.08565 -1.29151,4.99486c-2.90893,-0.35317 -1.83775,-3.29209 -1.83775,-5.84543c0,-4.29473 0.09688,-8.69402 -0.05267,-12.98655l-0.58003,-0.81154z" data-paper-data="{&quot;noHover&quot;:false,&quot;origItem&quot;:[&quot;Path&quot;,{&quot;applyMatrix&quot;:true,&quot;segments&quot;:[[273.58903,127.32466],[[274.2013,128.23085],[0,0],[0.14955,4.29253]],[[274.26093,141.12507],[0,-4.29473],[0,2.55334]],[[276.07946,146.96534],[-2.90893,-0.35317],[0.77216,-0.90921]],[[277.36266,141.97066],[-0.31551,1.19437],[1.02068,-3.86389]],[[278.86665,127.78821],[2.66329,3.86789],[-0.50856,-0.73857]],[[273.70816,125.69117],[0.91762,-1.3986],[-0.09402,0.14331]],[[273.58903,127.32465],[0.00247,-0.69845],[0,0]]],&quot;closed&quot;:true,&quot;fillColor&quot;:[0,0,0,1],&quot;strokeWidth&quot;:0.5}]}" fill="#fdfff4" stroke="none" stroke-width="0.25"/><path d="M196.75799,263.64177v-167.28349h246.48409v167.28349z" fill="none" stroke="#000000" stroke-width="0"/></g></g></svg>