<svg version="1.1" xmlns="http://www.w3.org/2000/svg" xmlns:xlink="http://www.w3.org/1999/xlink" width="246.48409" height="167.28349" viewBox="0,0,246.48409,167.28349"><g transform="translate(-196.75798,-96.35827)"><g data-paper-data="{&quot;isPaintingLayer&quot;:true}" fill-rule="nonzero" stroke-linecap="butt" stroke-linejoin="miter" stroke-miterlimit="10" stroke-dasharray="" stroke-dashoffset="0" style="mix-blend-mode: normal"><path d="M376.17846,185.14081c0,0.63513 -0.32271,0.94755 -0.6402,1.10123c-0.18123,2.82443 0.04752,5.6428 0.19492,8.58358c0.0709,1.41453 0.14095,3.71783 -1.26635,4.68567c-1.04685,0.71995 -5.13313,-0.19197 -6.34151,-0.49407c-0.03666,-0.00079 -0.07338,-0.00105 -0.11013,-0.00077c-2.35597,1.44964 -3.4602,6.14209 -2.27244,8.3115c0.96059,1.7545 2.70193,3.51463 4.03568,4.97451c4.05423,4.43763 7.58149,8.74107 13.64069,10.24544c2.2573,0.58398 4.18098,2.11347 6.5353,2.36585c2.99297,0.32084 6.05743,-0.20744 9.03166,-0.45098c2.16226,-0.17705 3.78818,0.05477 5.73989,-0.97395c6.23834,-3.28815 11.23829,-10.84015 15.5583,-16.24112c0.89971,-1.11658 1.96657,-1.72226 3.12681,-2.16142c0.31675,-0.96096 1.37928,-0.78387 1.37928,-0.78387c0.19189,0.04836 0.37369,0.10552 0.54594,0.17095c0.75778,-0.21991 1.53577,-0.44625 2.31709,-0.75785c1.65466,-0.65989 3.19404,-0.922 3.04396,-3.0538c-0.45082,-6.40346 -4.92248,-11.41084 -9.69367,-15.19836c-1.26038,-1.00053 -2.52761,-2.00648 -3.90508,-2.83847c-0.6006,-0.36276 -3.01522,-1.19006 -3.35541,-1.96685c-0.65746,-1.50122 -0.29289,-3.29448 -0.81115,-4.84925c-0.01597,-2.04388 -0.26163,-3.17877 -0.96751,-5.14282c-0.37755,-1.05049 -1.48666,-2.09125 -1.13491,-3.15066c0.61502,-1.85236 2.45969,-0.46348 3.49951,-1.03209c0.89839,-0.49127 1.66642,-1.20433 2.57886,-1.66898c0.15201,-0.07741 -0.33333,0.16778 -0.4973,0.12076c-0.73713,-0.21142 -1.41366,-0.5953 -2.12817,-0.87377c-1.52806,-0.59554 -3.09333,-1.09204 -4.65422,-1.59528c-4.0133,-1.2939 -10.48552,-4.91024 -11.5292,1.335c-0.06453,1.43317 -0.14149,2.86581 -0.19628,4.29939c-0.01876,0.49084 0.58394,5.5595 -2.37277,4.52375c-1.15064,-0.40308 -1.41326,-2.00314 -1.92699,-3.10882c-1.17167,-2.52174 -1.66598,-6.27292 -2.34191,-8.99433c-0.35892,-1.44508 -0.79358,-3.52193 -2.72176,-3.62072c-4.0263,-0.20627 -4.99145,4.30773 -6.26811,7.03803c-0.72795,1.5568 -1.80048,2.49658 -2.42843,4.18948c-1.40119,2.47772 1.44936,4.89126 0.47058,7.69105c-0.7196,2.05843 -3.11417,2.8265 -3.76833,4.87634c-0.37351,1.17039 -0.62714,2.32606 -0.79365,3.47558c0.2342,0.18103 0.42704,0.47916 0.42704,0.97013zM366.36406,187.00222c-3.52235,-1.72631 -7.83452,-1.73493 -11.6641,-2.63767c-1.98862,-0.46877 -3.82895,-1.56089 -5.88141,-1.74896c-0.35335,-0.03238 -4.52255,0.06134 -4.81622,0.07129c-0.62993,0.02132 -1.25901,0.10446 -1.88864,0.10896c0.41054,0.3821 0.84368,0.92286 1.07162,1.25453c0.52018,0.7569 1.02836,1.53157 1.41125,2.36635c1.52611,3.32724 -0.10026,4.93974 -3.00771,6.32775c-1.86576,0.87735 -4.11497,1.51401 -5.92031,2.48388c-1.47067,0.79008 -2.76243,2.00254 -4.3733,2.44093c-2.78041,0.75667 -6.74364,-0.90297 -9.23697,0.34073c-1.31507,0.65597 -2.65402,1.23573 -4.01197,1.76897c0.05425,0.16787 0.07405,0.36992 0.03934,0.61286c-0.11622,0.81353 -0.69087,1.01581 -1.07094,1.05894c0.03295,0.5543 -0.39101,0.97825 -0.39101,0.97825l-1.27776,1.00139c-0.8734,0.18608 -1.84854,0.19236 -2.55211,0.82938c-0.6973,0.63134 -0.80647,1.71432 -1.37207,2.46593c-2.72481,3.62091 -6.00607,6.68467 -8.58055,10.54443c-2.07359,3.65362 -4.69347,3.99673 -8.39656,5.60193c-3.56369,1.54477 -7.21531,3.11791 -11.06254,3.84333c-1.43374,0.27034 -4.75386,0.97225 -6.66046,0.21798l-0.42143,0.06233c0.66384,0.19699 2.60661,0.78396 3.31488,0.78782c3.20341,0.01743 6.3467,0.67435 9.52308,0.66501c7.97695,0.02053 15.82118,-0.74042 23.72382,-0.34496c3.44416,0.17235 9.01413,1.27761 11.95144,-0.89373c4.29759,-1.94373 10.67575,-3.75919 15.45018,-3.40885c6.44469,0.47291 12.26618,3.03478 18.25546,5.17027c3.44029,1.22664 7.30201,1.7845 10.84029,2.87382c1.23599,0.49757 2.33575,1.29947 3.57674,1.78442c2.76937,1.0822 6.0843,1.14583 8.95765,2.22298c1.6085,0.60299 4.27663,2.25237 6.06836,2.12913c8.18423,-0.56291 16.41331,-3.71672 23.80834,-7.08295c4.34795,-1.09142 7.50259,-3.29326 10.99964,-5.9963c1.30177,-1.0062 2.58963,-1.46771 3.64922,-2.7582c0.59788,-0.72816 0.29203,-2.60584 0.24288,-3.4565c-0.15573,-2.69538 -0.61053,-5.41343 -0.86392,-8.10503c-0.09572,-1.01679 0.1726,-3.25399 -0.89383,-3.72715c-1.04846,0.40215 -1.98492,0.97376 -2.64947,1.93046c-4.5289,5.66014 -9.80001,13.55988 -16.38362,16.92503c-4.11633,2.10402 -11.74243,2.18187 -16.2637,1.67859c-2.48621,-0.27675 -4.43749,-1.83741 -6.80122,-2.41792c-6.58381,-1.69038 -10.45993,-6.14593 -14.87423,-10.98353c-1.43692,-1.57472 -3.43548,-3.58018 -4.40494,-5.50188c-1.27128,-2.51998 -0.8782,-6.11266 0.67495,-8.78359c-0.542,-0.58417 -0.14573,-1.37671 -0.14573,-1.37671l0.7807,-1.00238c0.80183,-0.3822 1.68416,-0.61619 2.57569,-0.72178c0.67415,-0.31424 1.40882,-0.49864 2.19525,-0.51858c0,0 1.10948,0 1.23792,1.04526c1.01935,0.22214 2.02223,0.38567 2.32723,0.24348c0.72778,-0.33929 0.11899,-1.60702 0.06373,-2.4081c-0.12757,-1.84918 -0.36085,-3.69606 -0.44372,-5.54887c-0.03561,-0.79606 -0.02191,-1.65061 0.03607,-2.52926c-2.12555,0.44499 -4.11731,0.42782 -6.46531,0.11647zM308.81965,202.95269c0,0 -1.09509,0.36503 -1.53136,-0.65883c-2.85252,0.76098 -5.67635,1.78266 -8.67246,2.47454c-2.37134,0.54761 -4.77259,0.43446 -7.16623,1.03426c-2.05555,0.51508 -4.25704,1.06668 -6.18747,1.95991c-0.57604,0.26654 -1.4858,0.42361 -1.5885,1.04996c-0.18683,1.13946 0.39732,2.2773 0.50636,3.42681c-0.58517,3.12542 -1.67363,5.69156 -3.57706,8.23759c-0.59922,0.80151 -1.19429,1.61466 -1.66835,2.496c-0.27826,0.51733 -0.48871,1.07207 -0.80009,1.57018c-0.07925,0.12677 -0.48473,0.20352 -0.35379,0.27566c0.50563,0.27855 4.51452,-0.44233 5.14281,-0.56092c3.66295,-0.69139 7.13454,-2.20999 10.52711,-3.67963c3.17631,-1.37596 5.57908,-1.51278 7.25608,-4.60954c2.61691,-3.92722 5.96179,-7.05708 8.71052,-10.73688c1.37388,-1.83925 1.78719,-2.83038 3.22654,-3.53681c-1.26555,0.41825 -2.54146,0.83016 -3.82412,1.25771zM320.94872,195.76972c3.04606,-1.32968 6.65556,0.27617 9.82754,-0.54599c1.75753,-0.45554 2.05526,-1.31658 3.7131,-2.19983c1.84944,-0.98532 4.12427,-1.64163 6.035,-2.54149c0.17997,-0.08322 1.99684,-0.83602 2.23686,-1.21652c0.77463,-1.228 -1.98475,-4.20468 -2.62807,-5.00902c-0.49661,-0.62091 -1.66888,-1.10196 -1.4764,-1.87338c0.73032,-2.92709 5.78693,-2.22639 7.77615,-2.24933c3.32987,-0.03841 5.66534,1.05518 8.8216,1.79266c3.83753,0.89667 8.32899,0.89036 11.83402,2.68266c2.20442,0.25238 4.0125,0.18706 6.03701,-0.36204c0.24604,-1.56342 0.61271,-3.09663 1.07305,-4.41486c0.74309,-2.12792 3.00231,-2.9256 3.7688,-4.8776c0.9952,-2.53445 -1.77485,-4.86961 -0.41614,-7.82657c0.61802,-1.63171 1.78341,-2.74849 2.44853,-4.23437c1.70712,-3.81367 3.41719,-8.92929 8.80615,-8.4796c5.04071,0.42063 5.83112,8.33657 6.53021,12.06717c0.01888,0.10075 0.05119,0.22391 0.09207,0.364c0.0437,-1.11161 0.13489,-2.22214 0.18763,-3.33353c0.19264,-0.95294 0.13834,-1.99166 0.57793,-2.85881c3.02732,-5.97179 12.20892,-1.31553 16.60742,0.19409c1.35476,0.46497 6.63007,1.71149 6.6031,3.83085c-0.01473,1.15696 -3.27839,3.68109 -4.07155,4.09471c-0.49363,0.25742 -1.08516,0.3478 -1.64074,0.31213c-0.12068,-0.00775 -0.30545,-0.14903 -0.44879,-0.27804c1.79906,1.90022 2.1803,3.96837 2.15654,6.60132c0.42705,1.28114 0.24138,2.69635 0.51893,4.01796c0.1825,0.86898 1.69059,0.5854 2.45013,1.04533c0.04848,0.02936 4.113,2.97317 4.18923,3.03368c4.99453,3.96481 10.81067,10.17628 10.6391,17.12393c-0.10369,4.19891 -2.9431,4.83066 -5.82929,5.52059c1.39914,2.24706 1.05226,5.89786 1.34174,8.56292c0.25771,2.37259 1.36783,6.64396 -0.1955,8.796c-1.3277,1.82767 -2.53567,2.07412 -4.2153,3.37181c-3.68856,2.84982 -7.10583,5.23333 -11.70147,6.37744c-3.55212,1.63518 -7.28888,3.42757 -10.98685,4.65374c-2.89803,0.96092 -6.46464,1.10013 -9.48286,1.6031c-1.37677,0.22943 -2.67992,0.90824 -4.07452,0.96516c-2.70995,0.1106 -5.70044,-1.88866 -8.21033,-2.72712c-2.49286,-0.83278 -5.38624,-0.87156 -7.79891,-1.78798c-1.22586,-0.46563 -2.29826,-1.27859 -3.51703,-1.76247c-3.56411,-1.09598 -7.40465,-1.67232 -10.88438,-2.88986c-5.8232,-2.03751 -11.40583,-4.5432 -17.65675,-5.02703c-2.88429,-0.22325 -5.27032,0.90646 -8.00198,1.52708c-2.37045,0.53855 -3.72158,0.55758 -5.92787,1.5667c-1.68751,1.14381 -2.69803,0.88988 -4.63762,1.11843c-4.79173,0.56465 -9.45483,-0.01732 -14.20003,-0.43973c-3.02543,-0.26932 -6.32308,0.81462 -9.3312,1.10796c-2.9144,0.2842 -5.85268,-0.22592 -8.74881,-0.21741c-2.64879,-0.00682 -5.23831,-0.55692 -7.89653,-0.64103c-1.79621,-0.05683 -3.59152,0.19763 -5.29403,-0.59723c-0.90833,-0.42408 -2.80104,-2.28475 -2.67063,-3.33637c0.0933,-0.75235 1.13038,-1.01054 1.69557,-1.5158l0.50457,-0.14911c0.21086,-1.09822 0.94332,-2.33047 1.25326,-2.91574c1.80268,-3.40399 4.21,-5.71183 4.95189,-9.66101c-0.24331,-2.29128 -1.03328,-3.87198 0.89973,-5.56843c4.12543,-3.62056 10.53779,-3.0707 15.46655,-4.23024c5.25941,-1.23732 9.95252,-3.30458 15.17302,-3.53526c2.62152,-0.93572 5.19666,-1.92401 7.72716,-3.02863z" fill="#000000" stroke="none" stroke-width="0.5"/><path d="M366.39088,186.96001c2.348,0.31135 4.34656,0.33371 6.47211,-0.11128c-0.05798,0.87865 -0.06965,1.73515 -0.03404,2.53121c0.08287,1.85281 0.32132,3.70588 0.44889,5.55506c0.05526,0.80108 0.66614,2.07202 -0.06164,2.41131c-0.305,0.14219 -1.3921,0.03249 -2.41145,-0.18965c-0.12844,-1.04526 -1.23591,-1.04252 -1.23591,-1.04252c-0.78643,0.01994 -1.51966,0.20609 -2.19381,0.52033c-0.89153,0.10559 -1.77179,0.34183 -2.57362,0.72403l-0.70879,0.93289c0,0 -0.39406,0.79501 0.14794,1.37918c-1.55315,2.67093 -1.93513,6.28823 -0.66385,8.80821c0.96946,1.9217 2.96736,3.94562 4.40428,5.52034c4.4143,4.8376 8.2869,9.30341 14.87071,10.99379c2.36373,0.58051 4.22413,2.09945 6.71034,2.3762c4.52127,0.50328 12.14488,0.43226 16.26121,-1.67176c6.58361,-3.36515 11.85283,-11.25017 16.38173,-16.91031c0.66455,-0.9567 1.70094,-1.53172 2.7494,-1.93387c1.06643,0.47316 0.79816,2.7129 0.89388,3.72969c0.25339,2.6916 0.70788,5.41501 0.86361,8.11039c0.04915,0.85066 0.35469,2.7306 -0.24319,3.45876c-1.05959,1.29049 -2.34785,1.75423 -3.64962,2.76043c-3.49705,2.70304 -6.65336,4.91102 -11.00131,6.00244c-7.39503,3.36623 -15.63161,6.53412 -23.81584,7.09703c-1.79173,0.12324 -4.46142,-1.52419 -6.06992,-2.12718c-2.87335,-1.07715 -6.19274,-1.13613 -8.96211,-2.21833c-1.24099,-0.48495 -2.34268,-1.28517 -3.57867,-1.78274c-3.53828,-1.08932 -7.41436,-1.63888 -10.85465,-2.86552c-5.98928,-2.13549 -11.86032,-4.70582 -18.30501,-5.17873c-4.77443,-0.35034 -11.16279,1.45348 -15.46038,3.39721c-2.93731,2.17134 -8.51045,1.06025 -11.95461,0.8879c-7.90264,-0.39546 -15.74946,0.35855 -23.72641,0.33802c-3.17638,0.00934 -6.32024,-0.64973 -9.52365,-0.66716c-0.70827,-0.00386 -2.65127,-0.59181 -3.31511,-0.7888l0.51905,-0.08401c1.9066,0.75427 5.22652,0.0515 6.66026,-0.21884c3.84723,-0.72542 7.40141,-2.2761 10.9651,-3.82087c3.70309,-1.6052 6.3223,-1.95198 8.39589,-5.6056c2.57448,-3.85976 5.85543,-6.93504 8.58024,-10.55595c0.5656,-0.75161 0.67517,-1.83785 1.37247,-2.46919c0.70357,-0.63702 1.67899,-0.64492 2.55239,-0.831l1.27811,-1.00306c0,0 0.4243,-0.42537 0.39135,-0.97967c0.38007,-0.04313 0.95521,-0.24719 1.07143,-1.06072c0.03471,-0.24294 0.01515,-0.44578 -0.0391,-0.61365c1.35795,-0.53324 2.69845,-1.11725 4.01352,-1.77322c2.49333,-1.2437 6.46029,0.40871 9.2407,-0.34796c1.61087,-0.43839 2.90879,-1.65881 4.37946,-2.44889c1.80534,-0.96987 4.06615,-1.6156 5.93191,-2.49295c2.90745,-1.38801 4.54452,-3.00503 3.01841,-6.33227c-0.38289,-0.83478 -0.86194,-1.5138 -1.38212,-2.2707c-0.22794,-0.33167 -0.69246,-0.96737 -1.103,-1.34947c0.62963,-0.0045 1.26175,-0.08858 1.89168,-0.1099c0.29367,-0.00995 4.47115,-0.1052 4.8245,-0.07282c2.05246,0.18807 3.90373,1.28032 5.89235,1.74909c3.82958,0.90274 8.16255,0.91881 11.6849,2.64512z" data-paper-data="{&quot;noHover&quot;:false,&quot;origItem&quot;:[&quot;Path&quot;,{&quot;applyMatrix&quot;:true,&quot;segments&quot;:[[[366.36406,187.00222],[0,0],[-3.52235,-1.72631]],[[354.69996,184.36455],[3.82958,0.90274],[-1.98862,-0.46877]],[[348.81855,182.61559],[2.05246,0.18807],[-0.35335,-0.03238]],[[344.00233,182.68688],[0.29367,-0.00995],[-0.62993,0.02132]],[[342.11369,182.79584],[0.62963,-0.0045],[0.41054,0.3821]],[[343.18531,184.05037],[-0.22794,-0.33167],[0.52018,0.7569]],[[344.59656,186.41672],[-0.38289,-0.83478],[1.52611,3.32724]],[[341.58885,192.74447],[2.90745,-1.38801],[-1.86576,0.87735]],[[335.66854,195.22835],[1.80534,-0.96987],[-1.47067,0.79008]],[[331.29524,197.66928],[1.61087,-0.43839],[-2.78041,0.75667]],[[322.05827,198.01001],[2.49333,-1.2437],[-1.31507,0.65597]],[[318.0463,199.77898],[1.35795,-0.53324],[0.05425,0.16787]],[[318.08564,200.39184],[0.03471,-0.24294],[-0.11622,0.81353]],[[317.0147,201.45078],[0.38007,-0.04313],[0.03295,0.5543]],[316.62369,202.42903],[[315.34593,203.43042],[0,0],[-0.8734,0.18608]],[[312.79382,204.2598],[0.70357,-0.63702],[-0.6973,0.63134]],[[311.42175,206.72573],[0.5656,-0.75161],[-2.72481,3.62091]],[[302.8412,217.27016],[2.57448,-3.85976],[-2.07359,3.65362]],[[294.44464,222.87209],[3.70309,-1.6052],[-3.56369,1.54477]],[[283.3821,226.71542],[3.84723,-0.72542],[-1.43374,0.27034]],[[276.72164,226.9334],[1.9066,0.75427],[0,0]],[[276.30021,226.99573],[0,0],[0.66384,0.19699]],[[279.61509,227.78355],[-0.70827,-0.00386],[3.20341,0.01743]],[[289.13817,228.44856],[-3.17638,0.00934],[7.97695,0.02053]],[[312.86199,228.1036],[-7.90264,-0.39546],[3.44416,0.17235]],[[324.81343,227.20987],[-2.93731,2.17134],[4.29759,-1.94373]],[[340.26361,223.80102],[-4.77443,-0.35034],[6.44469,0.47291]],[[358.51907,228.97129],[-5.98928,-2.13549],[3.44029,1.22664]],[[369.35936,231.84511],[-3.53828,-1.08932],[1.23599,0.49757]],[[372.9361,233.62953],[-1.24099,-0.48495],[2.76937,1.0822]],[[381.89375,235.85251],[-2.87335,-1.07715],[1.6085,0.60299]],[[387.96211,237.98164],[-1.79173,0.12324],[8.18423,-0.56291]],[[411.77045,230.89869],[-7.39503,3.36623],[4.34795,-1.09142]],[[422.77009,224.90239],[-3.49705,2.70304],[1.30177,-1.0062]],[[426.41931,222.14419],[-1.05959,1.29049],[0.59788,-0.72816]],[[426.66219,218.68769],[0.04915,0.85066],[-0.15573,-2.69538]],[[425.79827,210.58266],[0.25339,2.6916],[-0.09572,-1.01679]],[[424.90444,206.85551],[1.06643,0.47316],[-1.04846,0.40215]],[[422.25497,208.78597],[0.66455,-0.9567],[-4.5289,5.66014]],[[405.87135,225.711],[6.58361,-3.36515],[-4.11633,2.10402]],[[389.60765,227.38959],[4.52127,0.50328],[-2.48621,-0.27675]],[[382.80643,224.97167],[2.36373,0.58051],[-6.58381,-1.69038]],[[367.9322,213.98814],[4.4143,4.8376],[-1.43692,-1.57472]],[[363.52726,208.48626],[0.96946,1.9217],[-1.27128,-2.51998]],[[364.20221,199.70267],[-1.55315,2.67093],[-0.542,-0.58417]],[364.05648,198.32596],[[364.83718,197.32358],[0,0],[0.80183,-0.3822]],[[367.41287,196.6018],[-0.89153,0.10559],[0.67415,-0.31424]],[[369.60812,196.08322],[-0.78643,0.01994],[0,0]],[[370.84604,197.12848],[-0.12844,-1.04526],[1.01935,0.22214]],[[373.17327,197.37196],[-0.305,0.14219],[0.72778,-0.33929]],[[373.237,194.96386],[0.05526,0.80108],[-0.12757,-1.84918]],[[372.79328,189.41499],[0.08287,1.85281],[-0.03561,-0.79606]],[[372.82935,186.88573],[-0.05798,0.87865],[-2.12555,0.44499]],[[366.36404,187.0022],[2.348,0.31135],[0,0]]],&quot;closed&quot;:true,&quot;fillColor&quot;:[0,0,0,1]}]}" fill="#fff69c" stroke="none" stroke-width="0.5"/><path d="M308.85947,202.92247c1.28266,-0.42755 2.56038,-0.83691 3.82593,-1.25516c-1.43935,0.70643 -1.8508,1.70058 -3.22468,3.53983c-2.74873,3.6798 -6.09215,6.85619 -8.70906,10.78341c-1.677,3.09676 -4.13639,3.26032 -7.3127,4.63628c-3.39257,1.46964 -6.88978,2.97293 -10.55273,3.66432c-0.62829,0.11859 -4.64159,0.83375 -5.14722,0.5552c-0.13094,-0.07214 0.27449,-0.14896 0.35374,-0.27573c0.31138,-0.49811 0.52061,-1.0548 0.79887,-1.57213c0.47406,-0.88134 1.06724,-1.69798 1.66646,-2.49949c1.90343,-2.54603 2.98697,-5.139 3.57214,-8.26442c-0.10904,-1.14951 -0.69002,-2.30071 -0.50319,-3.44017c0.1027,-0.62635 1.01537,-0.78962 1.59141,-1.05616c1.93043,-0.89323 4.15322,-1.46523 6.20877,-1.98031c2.39364,-0.5998 4.83589,-0.48835 7.20723,-1.03596c2.99611,-0.69188 5.83832,-1.70079 8.69084,-2.46177c0.43627,1.02386 1.5342,0.66225 1.5342,0.66225z" data-paper-data="{&quot;noHover&quot;:false,&quot;origItem&quot;:[&quot;Path&quot;,{&quot;applyMatrix&quot;:true,&quot;segments&quot;:[[308.81965,202.95269],[[307.28829,202.29386],[0.43627,1.02386],[-2.85252,0.76098]],[[298.61583,204.7684],[2.99611,-0.69188],[-2.37134,0.54761]],[[291.4496,205.80266],[2.39364,-0.5998],[-2.05555,0.51508]],[[285.26213,207.76257],[1.93043,-0.89323],[-0.57604,0.26654]],[[283.67363,208.81253],[0.1027,-0.62635],[-0.18683,1.13946]],[[284.17999,212.23934],[-0.10904,-1.14951],[-0.58517,3.12542]],[[280.60293,220.47693],[1.90343,-2.54603],[-0.59922,0.80151]],[[278.93458,222.97293],[0.47406,-0.88134],[-0.27826,0.51733]],[[278.13449,224.54311],[0.31138,-0.49811],[-0.07925,0.12677]],[[277.7807,224.81877],[-0.13094,-0.07214],[0.50563,0.27855]],[[282.92351,224.25785],[-0.62829,0.11859],[3.66295,-0.69139]],[[293.45062,220.57822],[-3.39257,1.46964],[3.17631,-1.37596]],[[300.7067,215.96868],[-1.677,3.09676],[2.61691,-3.92722]],[[309.41722,205.2318],[-2.74873,3.6798],[1.37388,-1.83925]],[[312.64376,201.69499],[-1.43935,0.70643],[-1.26555,0.41825]],[[308.81964,202.9527],[1.28266,-0.42755],[0,0]]],&quot;closed&quot;:true,&quot;fillColor&quot;:[0,0,0,1],&quot;strokeWidth&quot;:0.5}]}" fill="#fdfff4" stroke="none" stroke-width="0.25"/><path d="M376.13018,185.12794c0,-0.49097 -0.19235,-0.79081 -0.42655,-0.97184c0.16651,-1.14952 0.42286,-2.31218 0.79637,-3.48257c0.65416,-2.04984 3.05586,-2.82885 3.77546,-4.88728c0.97878,-2.79979 -1.8649,-5.21995 -0.46371,-7.69767c0.62795,-1.6929 1.70645,-2.63676 2.4344,-4.19356c1.27666,-2.7303 2.25359,-7.24926 6.27989,-7.04299c1.92818,0.09879 2.36542,2.175 2.72434,3.62008c0.67593,2.72141 1.17101,6.47243 2.34268,8.99417c0.51373,1.10568 0.77973,2.70517 1.93037,3.10825c2.95671,1.03575 2.36047,-4.03335 2.37923,-4.52419c0.05479,-1.43358 0.13214,-2.86622 0.19667,-4.29939c1.04368,-6.24524 7.53461,-2.62518 11.54791,-1.33128c1.56089,0.50324 3.13316,1.00326 4.66122,1.5988c0.71451,0.27847 1.39402,0.66431 2.13115,0.87573c0.16397,0.04702 0.59109,-0.11687 0.43908,-0.03946c-0.91244,0.46465 -1.67892,1.17879 -2.57731,1.67006c-1.03982,0.56861 -2.83269,-0.9057 -3.44771,0.94666c-0.35175,1.05941 0.7617,2.10285 1.13925,3.15334c0.70588,1.96405 0.95829,3.10453 0.97426,5.14841c0.51826,1.55477 0.16043,3.35627 0.81789,4.85749c0.34019,0.77679 2.75879,1.61146 3.35939,1.97422c1.37747,0.83199 2.6475,1.84631 3.90788,2.84684c4.77119,3.78752 9.24215,8.82073 9.69297,15.22419c0.15008,2.1318 -1.3913,2.39944 -3.04596,3.05933c-0.78132,0.3116 -1.56042,0.54034 -2.3182,0.76025c-0.17225,-0.06543 -0.35412,-0.12246 -0.54601,-0.17082c0,0 -1.06358,-0.17509 -1.38033,0.78587c-1.16024,0.43916 -2.23043,1.05005 -3.13014,2.16663c-4.32001,5.40097 -9.35019,12.97243 -15.58853,16.26058c-1.95171,1.02872 -3.58628,0.79792 -5.74854,0.97497c-2.97423,0.24354 -6.05169,0.7705 -9.04466,0.44966c-2.35432,-0.25238 -4.28743,-1.78512 -6.54473,-2.3691c-6.0592,-1.50437 -9.60539,-5.82304 -13.65962,-10.26067c-1.33375,-1.45988 -3.0798,-3.22754 -4.04039,-4.98204c-1.18776,-2.16941 -0.08723,-6.87151 2.26874,-8.32115c0.03675,-0.00028 0.17002,-0.02605 0.20668,-0.02526c1.20838,0.3021 5.1994,1.24415 6.24625,0.5242c1.4073,-0.96784 1.33498,-3.27967 1.26408,-4.6942c-0.1474,-2.94078 -0.37582,-5.77799 -0.19459,-8.60242c0.31749,-0.15368 0.64082,-0.46871 0.64082,-1.10384z" data-paper-data="{&quot;noHover&quot;:false,&quot;origItem&quot;:[&quot;Path&quot;,{&quot;applyMatrix&quot;:true,&quot;segments&quot;:[[[376.17846,185.14081],[0,0],[0,0.63513]],[[375.53826,186.24204],[0.31749,-0.15368],[-0.18123,2.82443]],[[375.73318,194.82562],[-0.1474,-2.94078],[0.0709,1.41453]],[[374.46683,199.51129],[1.4073,-0.96784],[-1.04685,0.71995]],[[368.12532,199.01722],[1.20838,0.3021],[-0.03666,-0.00079]],[[368.01519,199.01645],[0.03675,-0.00028],[-2.35597,1.44964]],[[365.74275,207.32795],[-1.18776,-2.16941],[0.96059,1.7545]],[[369.77843,212.30246],[-1.33375,-1.45988],[4.05423,4.43763]],[[383.41912,222.5479],[-6.0592,-1.50437],[2.2573,0.58398]],[[389.95442,224.91375],[-2.35432,-0.25238],[2.99297,0.32084]],[[398.98608,224.46277],[-2.97423,0.24354],[2.16226,-0.17705]],[[404.72597,223.48882],[-1.95171,1.02872],[6.23834,-3.28815]],[[420.28427,207.2477],[-4.32001,5.40097],[0.89971,-1.11658]],[[423.41108,205.08628],[-1.16024,0.43916],[0.31675,-0.96096]],[[424.79036,204.30241],[0,0],[0.19189,0.04836]],[[425.3363,204.47336],[-0.17225,-0.06543],[0.75778,-0.21991]],[[427.65339,203.71551],[-0.78132,0.3116],[1.65466,-0.65989]],[[430.69735,200.66171],[0.15008,2.1318],[-0.45082,-6.40346]],[[421.00368,185.46335],[4.77119,3.78752],[-1.26038,-1.00053]],[[417.0986,182.62488],[1.37747,0.83199],[-0.6006,-0.36276]],[[413.74319,180.65803],[0.34019,0.77679],[-0.65746,-1.50122]],[[412.93204,175.80878],[0.51826,1.55477],[-0.01597,-2.04388]],[[411.96453,170.66596],[0.70588,1.96405],[-0.37755,-1.05049]],[[410.82962,167.5153],[-0.35175,1.05941],[0.61502,-1.85236]],[[414.32913,166.48321],[-1.03982,0.56861],[0.89839,-0.49127]],[[416.90799,164.81423],[-0.91244,0.46465],[0.15201,-0.07741]],[[416.41069,164.93499],[0.16397,0.04702],[-0.73713,-0.21142]],[[414.28252,164.06122],[0.71451,0.27847],[-1.52806,-0.59554]],[[409.6283,162.46594],[1.56089,0.50324],[-4.0133,-1.2939]],[[398.0991,163.80094],[1.04368,-6.24524],[-0.06453,1.43317]],[[397.90282,168.10033],[0.05479,-1.43358],[-0.01876,0.49084]],[[395.53005,172.62408],[2.95671,1.03575],[-1.15064,-0.40308]],[[393.60306,169.51526],[0.51373,1.10568],[-1.17167,-2.52174]],[[391.26115,160.52093],[0.67593,2.72141],[-0.35892,-1.44508]],[[388.53939,156.90021],[1.92818,0.09879],[-4.0263,-0.20627]],[[382.27128,163.93824],[1.27666,-2.7303],[-0.72795,1.5568]],[[379.84285,168.12772],[0.62795,-1.6929],[-1.40119,2.47772]],[[380.31343,175.81877],[0.97878,-2.79979],[-0.7196,2.05843]],[[376.5451,180.69511],[0.65416,-2.04984],[-0.37351,1.17039]],[[375.75145,184.17069],[0.16651,-1.14952],[0.2342,0.18103]],[[376.17849,185.14082],[0,-0.49097],[0,0]]],&quot;closed&quot;:true,&quot;fillColor&quot;:[0,0,0,1],&quot;strokeWidth&quot;:0.5}]}" fill="#fdfff4" stroke="none" stroke-width="0.25"/><path d="M196.75799,263.64177v-167.28349h246.48409v167.28349z" fill="none" stroke="#000000" stroke-width="0"/></g></g></svg>