<svg version="1.1" xmlns="http://www.w3.org/2000/svg" xmlns:xlink="http://www.w3.org/1999/xlink" width="246.48409" height="167.28349" viewBox="0,0,246.48409,167.28349"><g transform="translate(-196.75798,-96.35827)"><g data-paper-data="{&quot;isPaintingLayer&quot;:true}" fill-rule="nonzero" stroke-linecap="butt" stroke-linejoin="miter" stroke-miterlimit="10" stroke-dasharray="" stroke-dashoffset="0" style="mix-blend-mode: normal"><path d="M422.17957,199.02364c4.59523,0.71016 6.52565,4.31025 7.46777,8.5372c1.11661,5.00978 1.9528,10.42406 -0.99878,15.16308c-1.07246,1.72192 -4.36125,3.10129 -5.91155,4.33696c-2.0028,1.59633 -3.53095,3.64092 -5.49348,5.34006c-2.86426,4.79818 -6.12149,5.25346 -11.33524,5.25346c-9.77312,0 -20.9226,-2.07124 -30.44452,-4.33191c-4.15911,-1.00521 -7.98048,-3.25253 -11.33692,-5.90948c-2.27812,-1.80335 -3.57896,-4.0774 -6.37964,-5.38051c-1.85359,-0.86245 -4.63272,-0.56136 -6.59396,-0.56077c-5.16399,0.00155 -9.6383,1.19882 -14.65479,1.97938c-5.37144,0.88665 -10.23542,3.88297 -15.78999,4.66235c-4.84024,0.67915 -9.61917,-0.77402 -14.21956,-2.03031c-2.22138,-0.60662 -4.51737,-1.10675 -6.68587,-1.90743c-2.18609,2.57046 -4.78818,4.66285 -8.62998,5.66546c-3.51093,0.91626 -4.41918,1.88097 -7.56632,-0.28407c-0.37031,-1.43792 -1.70017,-4.61353 -1.25636,-6.16996c0.83702,-2.93541 4.85095,-4.45944 7.0902,-5.62809c3.15235,-1.64518 4.86007,-5.38309 7.50508,-7.67238c-0.01554,-0.08664 -0.02401,-0.18105 -0.02401,-0.28392c0,-0.71225 0.40584,-1.01866 0.75502,-1.15048c-0.18346,-0.25971 -0.34316,-0.55861 -0.41899,-0.76569c-0.68591,-1.87321 -1.01934,-2.56573 0.92184,-3.80244c1.99513,-1.27109 4.73342,-1.78401 6.82194,-3.07228c2.48436,-1.53244 4.11007,-4.4555 6.52444,-5.82177c2.57983,-1.45991 7.47931,-2.27508 10.3549,-1.91534c4.1032,0.82321 9.22432,1.77303 13.40677,1.14727c0.16246,-0.02431 0.32413,-0.05091 0.48511,-0.07958c0.29016,-1.03168 1.39852,-0.84695 1.39852,-0.84695c0.33193,0.05649 0.78866,0.1481 1.24925,0.21194c0.73395,-0.21078 1.4623,-0.43935 2.19347,-0.66191c0.3069,-0.38417 0.56891,-0.80115 0.75108,-0.90486c2.4669,-1.40441 7.10204,-2.4615 9.93933,-2.1999c1.1655,0.10746 2.11636,1.02541 3.23963,1.35436c2.72233,0.79722 6.19516,0.91805 9.00414,1.31314c1.90379,0.26778 2.20479,0.92581 4.21128,0.6721c3.27638,-0.90772 6.54962,-2.62023 10.01696,-3.11095c1.9195,-0.27166 4.22694,-0.01032 6.1856,-0.01614h0.25348c0.3421,-0.65503 0.63664,-1.32771 0.95578,-1.85883c-0.99001,-4.89918 -2.28038,-10.4249 -4.33164,-14.97214c-1.02777,-2.27835 -2.94457,-3.43671 -3.21998,-6.17859c-0.8283,-8.24623 7.5852,-12.94581 14.75279,-10.60959c0.84907,0.3561 1.87302,0.44125 2.54722,1.06831c5.22866,4.8631 -2.92713,5.11801 -5.54151,6.64767c-0.21226,0.12419 0.50608,0.09556 0.69152,0.25707c0.36425,0.31726 0.62697,0.73689 0.90399,1.13261c1.72912,2.47009 3.96463,3.51023 5.89049,5.64364c1.54591,1.71251 5.32882,4.31154 4.96077,6.99954c-0.27164,1.98395 -3.48353,3.52602 -4.55358,5.03601c-0.61547,1.67063 0.87079,4.47914 2.21963,5.58984c0.71008,0.58472 1.6977,-0.73458 2.59399,-0.94139c0.64573,-0.149 1.31121,-0.20386 1.97228,-0.25023c3.86818,-0.27134 7.46178,0.52816 9.94126,3.81798c2.1563,2.86102 0.40426,5.16875 -0.90938,7.69134c2.90336,-0.60622 6.16284,-0.20851 9.0905,-0.20289zM297.27529,221.65783c0.55902,-1.11803 1.67705,-0.55902 1.67705,-0.55902c0.06954,0.03516 0.13936,0.06976 0.20946,0.10382c1.2353,-1.87591 2.29109,-3.90071 3.52664,-5.6863c1.41175,-2.04022 3.01599,-4.00308 4.48614,-6.02883c-2.60496,0.42733 -5.64151,0.5976 -7.68074,1.82193c-1.35195,0.8117 -2.04463,2.53528 -3.09849,3.58914c-1.16127,1.16127 -2.80134,2.46588 -4.02482,3.58015c-1.98077,1.80399 -6.67006,2.83864 -7.63943,5.67137c-0.2156,0.63002 0.82821,3.24516 0.96044,4.02734c1.44155,1.16031 7.49045,-1.28256 9.12849,-2.34664c1.10315,-0.71661 2.03118,-1.60729 2.8538,-2.59674c-0.287,-0.20693 -0.82049,-0.73233 -0.39855,-1.57621zM307.14545,223.67088c4.27782,1.16818 8.76339,2.60384 13.2688,1.95993c5.52279,-0.7893 10.32687,-3.74697 15.68862,-4.64823c5.14041,-0.7811 9.75567,-2.01241 15.05037,-2.01087c2.3739,0.00069 5.35521,-0.22854 7.59358,0.76931c3.02787,1.34981 4.47609,3.82139 6.92118,5.7035c3.10999,2.39393 6.54265,4.549 10.37482,5.44592c6.3247,1.51041 13.29784,2.61045 19.77127,3.15978c2.61087,0.22156 5.03335,1.10952 7.65571,1.10414c5.37528,-0.01102 8.81742,0.68093 11.85351,-4.35433c2.05839,-1.83337 3.72486,-3.97004 5.84781,-5.68804c1.18188,-0.95644 4.64617,-2.47061 5.44624,-3.8456c2.45984,-4.22742 1.56352,-8.78014 0.58967,-13.16248c-0.65699,-2.95645 -1.80356,-6.16197 -5.2047,-6.58659c-2.93241,0.0063 -6.49385,-0.58465 -9.27004,0.38236l-0.61697,0.06415c0,0 -0.01951,0 -0.05364,-0.00244c-0.01649,0.09369 -0.03074,0.18792 -0.04258,0.28275c-0.19082,1.5276 0.22536,2.9133 0.63864,4.35341c1.73036,7.46757 -4.68858,13.12269 -11.64346,13.99225c-1.8815,0.23524 -6.74275,0.56853 -8.25221,-0.89021c-0.96228,-0.92995 0.70739,-5.8366 -0.9255,-6.33548c-1.20624,-0.36854 -1.92957,0.20046 -3.18467,0.35253c-2.40387,0.29126 -4.92805,0.43672 -7.35016,0.43961c-3.16332,0 -6.5074,0.44582 -9.43709,-1.02418c-3.08116,-1.54601 -3.33582,-4.19084 -3.34029,-7.31959c-0.00193,-1.3554 -0.3017,-3.42255 0.03344,-4.7208c0.50179,-1.94382 1.57667,-3.77506 2.71466,-5.53844c-0.22877,-0.25064 -0.32002,-0.49969 -0.3343,-0.72697c-0.89774,0.3289 -1.79405,0.64393 -2.69567,0.90694c-2.36303,0.23775 -2.99138,-0.3896 -5.09929,-0.65798c-2.86757,-0.36509 -6.36924,-0.5613 -9.17365,-1.34702c-1.0406,-0.29155 -1.88959,-1.22739 -2.96742,-1.30581c-1.38805,-0.10098 -3.4231,0.16881 -5.24429,0.65149c0.12828,0.95931 -0.85975,1.28865 -0.85975,1.28865l-1.37588,0.45766c-2.64251,0.65891 -5.15161,1.68289 -7.8716,2.07528c-4.4588,0.64325 -9.81427,-0.2838 -14.19192,-1.15666c-2.23568,-0.37997 -6.70872,0.5205 -8.70961,1.63154c-2.29673,1.27532 -4.0281,4.28447 -6.43516,5.76923c-0.05317,0.0328 -4.56154,2.3447 -4.62137,2.36968c-0.81622,0.34067 -2.57518,-0.07103 -2.52605,0.81206c0.04362,0.78396 0.77816,1.28643 1.28846,1.88968c2.69328,-0.81344 5.91553,-0.93116 8.40262,-1.64093c0.1132,-0.00094 0.2264,-0.00188 0.3396,-0.00282c0.40399,-0.53584 0.85429,-1.02622 1.41046,-1.38332c0,0 1.07187,-0.64312 1.71499,0.42875c0.30464,0.50774 0.22446,0.91927 0.05568,1.21181c0.53663,1.10516 -0.56853,1.65774 -0.56853,1.65774l-1.44574,0.57533c-0.11909,-0.00129 -0.23817,-0.00258 -0.35726,-0.00387c-1.41345,1.85573 -2.47512,4.50127 -3.73108,6.14033c-1.76526,2.30371 -3.24647,4.71163 -4.85674,6.91694c1.87344,0.62869 3.84437,1.0459 5.72646,1.55986zM386.32034,191.40328c0,0.6755 -0.36505,0.98596 -0.70059,1.12865c-0.91209,1.35013 -2.10478,2.40681 -3.98404,2.55478c-3.2087,0.25265 -4.00182,-2.02992 -6.38742,-1.06726c-2.85386,4.74219 -5.97287,9.84907 -3.90764,15.67747c1.02325,2.88777 7.94331,1.95935 9.96112,1.95935c2.31746,0.00298 4.73578,-0.14398 7.03564,-0.41975c1.87068,-0.2243 2.67216,-1.00518 4.59756,-0.11819c1.59947,0.73685 1.82534,2.34628 2.02343,3.86834c0.0917,0.70457 0.07343,1.42408 0.00746,2.13152c-0.03125,0.33518 -0.57451,0.77605 -0.29623,0.96547c0.93193,0.63436 5.01266,0.14716 6.0411,0.02464c5.20997,-0.62065 11.16277,-4.96534 9.5321,-10.86408c-0.66651,-2.34252 -1.2007,-4.69983 -0.15535,-7.04059c0.54754,-1.22605 0.80589,-2.5672 1.34353,-3.79763c0.67303,-1.54028 2.07339,-1.60326 0.57467,-3.36121c-2.37144,-2.78162 -5.88276,-3.47717 -9.36777,-2.6393c-0.75916,0.18252 -3.16706,1.30518 -4.05642,0.83205c-3.035,-1.61458 -4.43589,-6.07825 -3.54406,-9.04106c0.61687,-0.85926 4.10617,-3.26948 4.31363,-4.27457c0.20942,-1.01457 -1.15674,-1.73078 -1.8688,-2.48322c-2.82411,-2.98424 -6.17346,-4.96048 -8.56125,-8.37172c-0.53661,-0.76661 -2.35264,-2.56358 -1.95137,-3.48728c0.25593,-0.58912 3.4329,-2.13923 4.47432,-2.58457c0.70345,-0.30081 1.40011,-0.62824 2.13333,-0.84669c0.21724,-0.06472 0.74858,0.22455 0.67996,0.00851c-0.30541,-0.96154 -1.79977,-0.92214 -2.74478,-1.27539c-5.53413,-1.89626 -11.9605,1.70227 -11.40549,8.01156c0.19804,2.25129 2.1109,3.44141 2.98707,5.34879c2.23108,4.85696 3.94472,11.18587 4.53557,16.50647c-0.43384,0.82799 -0.84216,1.74107 -1.30983,2.61064c0.00035,0.01456 0.00053,0.0293 0.00053,0.04421zM381.4112,192.59681c0.07791,-0.00571 0.15393,-0.01469 0.22812,-0.02676c-0.31675,-0.01423 -0.63483,-0.02707 -0.95122,-0.03533c0.22404,0.05605 0.46286,0.08118 0.7231,0.06209z" fill="#000000" stroke="none" stroke-width="0.5"/><path d="M307.09617,223.67944c-1.88209,-0.51396 -3.85333,-0.93315 -5.72677,-1.56184c1.61027,-2.20531 3.09105,-4.61863 4.85631,-6.92234c1.25596,-1.63906 2.31781,-4.29022 3.73126,-6.14595c0.11909,0.00129 0.23817,0.00255 0.35726,0.00384l1.4458,-0.576c0,0 1.10535,-0.55422 0.56872,-1.65938c0.16878,-0.29254 0.24913,-0.70521 -0.05551,-1.21295c-0.64312,-1.07187 -1.61626,-0.41288 -1.61626,-0.41288c-0.55617,0.3571 -1.00626,0.84605 -1.41025,1.38189c-0.1132,0.00094 -0.22639,0.00184 -0.33959,0.00278c-2.48709,0.70977 -5.70911,0.82536 -8.40239,1.6388c-0.5103,-0.60325 -1.34431,-1.11587 -1.38793,-1.89983c-0.04913,-0.88309 1.70994,-0.47226 2.52616,-0.81293c0.05983,-0.02498 4.5686,-2.33939 4.62177,-2.37219c2.40706,-1.48476 4.14,-4.50012 6.43673,-5.77544c2.00089,-1.11104 6.47554,-2.01582 8.71122,-1.63585c4.37765,0.87286 9.73627,1.79376 14.19507,1.15051c2.71999,-0.39239 5.2355,-1.42482 7.87801,-2.08373l1.37754,-0.45934c0,0 0.99007,-0.33121 0.86179,-1.29052c1.82119,-0.48268 3.86344,-0.75766 5.25149,-0.65668c1.07783,0.07842 1.93055,1.01226 2.97115,1.30381c2.80441,0.78572 6.32643,0.97695 9.194,1.34204c2.10791,0.26838 2.74994,0.89723 5.11297,0.65948c0.90162,-0.26301 1.80356,-0.57626 2.7013,-0.90516c0.01428,0.22728 0.06846,0.56919 0.29723,0.81983c-1.13799,1.76338 -2.17575,3.50178 -2.67754,5.4456c-0.33514,1.29825 -0.02735,3.36933 -0.02542,4.72473c0.00447,3.12875 0.28303,5.81231 3.36419,7.35832c2.92969,1.47 6.17394,1.02716 9.33726,1.02716c2.42211,-0.00289 4.94628,-0.14716 7.35015,-0.43842c1.2551,-0.15207 2.07842,-0.72198 3.28466,-0.35344c1.63289,0.49888 -0.03778,5.41624 0.9245,6.34619c1.50946,1.45874 6.27252,1.10654 8.15402,0.8713c6.95488,-0.86956 13.37354,-6.50845 11.64318,-13.97602c-0.41328,-1.44011 -0.82862,-2.82146 -0.6378,-4.34906c0.01184,-0.09483 0.02615,-0.1888 0.04264,-0.28249c0.03413,0.00244 0.15078,-0.0213 0.15078,-0.0213l0.61699,-0.06407c2.77619,-0.96701 6.33797,-0.37458 9.27038,-0.38088c3.40114,0.42462 4.54858,3.63598 5.20557,6.59243c0.97385,4.38234 1.87002,8.94542 -0.58982,13.17284c-0.80007,1.37499 -4.26495,2.89292 -5.44683,3.84936c-2.12295,1.718 -3.79099,3.86065 -5.84938,5.69402c-3.03609,5.03526 -6.48167,4.35132 -11.85695,4.36234c-2.62236,0.00538 -5.0466,-0.87957 -7.65747,-1.10113c-6.47343,-0.54933 -13.45958,-1.63551 -19.78428,-3.14592c-3.83217,-0.89692 -7.28573,-3.04322 -10.39572,-5.43715c-2.44509,-1.88211 -3.93363,-4.3645 -6.9615,-5.71431c-2.23837,-0.99785 -5.23396,-0.78799 -7.60786,-0.78868c-5.2947,-0.00154 -9.91214,1.22328 -15.05255,2.00438c-5.36175,0.90126 -10.16567,3.85951 -15.68846,4.64881c-4.50541,0.64391 -8.99201,-0.79634 -13.26983,-1.96452z" data-paper-data="{&quot;noHover&quot;:false,&quot;origItem&quot;:[&quot;Path&quot;,{&quot;applyMatrix&quot;:true,&quot;segments&quot;:[[[307.14545,223.67088],[0,0],[4.27782,1.16818]],[[320.41425,225.63081],[-4.50541,0.64391],[5.52279,-0.7893]],[[336.10287,220.98258],[-5.36175,0.90126],[5.14041,-0.7811]],[[351.15324,218.97171],[-5.2947,-0.00154],[2.3739,0.00069]],[[358.74682,219.74102],[-2.23837,-0.99785],[3.02787,1.34981]],[[365.668,225.44452],[-2.44509,-1.88211],[3.10999,2.39393]],[[376.04282,230.89044],[-3.83217,-0.89692],[6.3247,1.51041]],[[395.81409,234.05022],[-6.47343,-0.54933],[2.61087,0.22156]],[[403.4698,235.15436],[-2.62236,0.00538],[5.37528,-0.01102]],[[415.32331,230.80003],[-3.03609,5.03526],[2.05839,-1.83337]],[[421.17112,225.11199],[-2.12295,1.718],[1.18188,-0.95644]],[[426.61736,221.26639],[-0.80007,1.37499],[2.45984,-4.22742]],[[427.20703,208.10391],[0.97385,4.38234],[-0.65699,-2.95645]],[[422.00233,201.51732],[3.40114,0.42462],[-2.93241,0.0063]],[[412.73229,201.89968],[2.77619,-0.96701],[0,0]],[412.11532,201.96383],[[412.06168,201.96139],[0.03413,0.00244],[-0.01649,0.09369]],[[412.0191,202.24414],[0.01184,-0.09483],[-0.19082,1.5276]],[[412.65774,206.59755],[-0.41328,-1.44011],[1.73036,7.46757]],[[401.01428,220.5898],[6.95488,-0.86956],[-1.8815,0.23524]],[[392.76207,219.69959],[1.50946,1.45874],[-0.96228,-0.92995]],[[391.83657,213.36411],[1.63289,0.49888],[-1.20624,-0.36854]],[[388.6519,213.71664],[1.2551,-0.15207],[-2.40387,0.29126]],[[381.30174,214.15625],[2.42211,-0.00289],[-3.16332,0]],[[371.86465,213.13207],[2.92969,1.47],[-3.08116,-1.54601]],[[368.52436,205.81248],[0.00447,3.12875],[-0.00193,-1.3554]],[[368.5578,201.09168],[-0.33514,1.29825],[0.50179,-1.94382]],[[371.27246,195.55324],[-1.13799,1.76338],[-0.22877,-0.25064]],[[370.93816,194.82627],[0.01428,0.22728],[-0.89774,0.3289]],[[368.24249,195.73321],[0.90162,-0.26301],[-2.36303,0.23775]],[[363.1432,195.07523],[2.10791,0.26838],[-2.86757,-0.36509]],[[353.96955,193.72821],[2.80441,0.78572],[-1.0406,-0.29155]],[[351.00213,192.4224],[1.07783,0.07842],[-1.38805,-0.10098]],[[345.75784,193.07389],[1.82119,-0.48268],[0.12828,0.95931]],[344.89809,194.36254],[[343.52221,194.8202],[0,0],[-2.64251,0.65891]],[[335.65061,196.89548],[2.71999,-0.39239],[-4.4588,0.64325]],[[321.45869,195.73882],[4.37765,0.87286],[-2.23568,-0.37997]],[[312.74908,197.37036],[2.00089,-1.11104],[-2.29673,1.27532]],[[306.31392,203.13959],[2.40706,-1.48476],[-0.05317,0.0328]],[[301.69255,205.50927],[0.05983,-0.02498],[-0.81622,0.34067]],[[299.1665,206.32133],[-0.04913,-0.88309],[0.04362,0.78396]],[[300.45496,208.21101],[-0.5103,-0.60325],[2.69328,-0.81344]],[[308.85758,206.57008],[-2.48709,0.70977],[0.1132,-0.00094]],[[309.19718,206.56726],[-0.1132,0.00094],[0.40399,-0.53584]],[[310.60764,205.18394],[-0.55617,0.3571],[0,0]],[[312.32263,205.61269],[-0.64312,-1.07187],[0.30464,0.50774]],[[312.37831,206.8245],[0.16878,-0.29254],[0.53663,1.10516]],[311.80978,208.48224],[[310.36404,209.05757],[0,0],[-0.11909,-0.00129]],[[310.00678,209.0537],[0.11909,0.00129],[-1.41345,1.85573]],[[306.2757,215.19403],[1.25596,-1.63906],[-1.76526,2.30371]],[[301.41896,222.11097],[1.61027,-2.20531],[1.87344,0.62869]],[[307.14542,223.67083],[-1.88209,-0.51396],[0,0]]],&quot;closed&quot;:true,&quot;fillColor&quot;:[0,0,0,1]}]}" fill="#fff69c" stroke="none" stroke-width="0.5"/><path d="M386.27675,191.42776c0,-0.01491 -0.00033,-0.02993 -0.00068,-0.04449c0.46767,-0.86957 0.86991,-1.80248 1.30375,-2.63047c-0.59085,-5.3206 -2.27814,-11.69809 -4.50922,-16.55505c-0.87617,-1.90738 -2.78926,-3.09738 -2.9873,-5.34867c-0.55501,-6.30929 5.89478,-9.91379 11.42891,-8.01753c0.94501,0.35325 2.4442,0.31406 2.74961,1.2756c0.06862,0.21604 -0.47064,0.02645 -0.68788,0.09117c-0.73322,0.21845 -1.4261,0.54599 -2.12955,0.8468c-1.04142,0.44534 -4.20949,1.99458 -4.46542,2.5837c-0.40127,0.9237 1.39905,2.62196 1.93566,3.38857c2.38779,3.41124 5.76401,5.39145 8.58812,8.37569c0.71206,0.75244 2.08733,1.47395 1.87791,2.48852c-0.20746,1.00509 -3.70246,3.41169 -4.31933,4.27095c-0.89183,2.96281 0.53141,7.48947 3.56641,9.10405c0.88936,0.47313 3.20186,-0.67763 3.96102,-0.86015c3.48501,-0.83787 7.09424,-0.12212 9.46568,2.6595c1.49872,1.75795 0.09595,1.82857 -0.57708,3.36885c-0.53764,1.23043 -0.80024,2.57978 -1.34778,3.80583c-1.04535,2.34076 -0.51816,4.70669 0.14835,7.04921c1.63067,5.89874 -4.34267,10.25564 -9.55264,10.87629c-1.02844,0.12252 -5.1187,0.61163 -6.05063,-0.02273c-0.27828,-0.18942 0.25426,-0.72971 0.28551,-1.06489c0.06597,-0.70744 0.09607,-1.32765 0.00437,-2.03222c-0.19809,-1.52206 -0.42732,-3.13119 -2.02679,-3.86804c-1.9254,-0.88699 -2.73687,-0.10656 -4.60755,0.11774c-2.29986,0.27577 -4.73131,0.41892 -7.04877,0.41594c-2.01781,0 -8.95203,0.91893 -9.97528,-1.96884c-2.06523,-5.8284 1.041,-10.95524 3.89486,-15.69743c2.3856,-0.96266 3.26761,1.27594 6.47631,1.02329c1.87926,-0.14797 2.9891,-1.14865 3.90119,-2.49878c0.33554,-0.14269 0.69828,-0.45686 0.69828,-1.13236z" data-paper-data="{&quot;noHover&quot;:false,&quot;origItem&quot;:[&quot;Path&quot;,{&quot;applyMatrix&quot;:true,&quot;segments&quot;:[[[386.32034,191.40328],[0,0],[0,0.6755]],[[385.61975,192.53193],[0.33554,-0.14269],[-0.91209,1.35013]],[[381.63571,195.08671],[1.87926,-0.14797],[-3.2087,0.25265]],[[375.24829,194.01945],[2.3856,-0.96266],[-2.85386,4.74219]],[[371.34065,209.69692],[-2.06523,-5.8284],[1.02325,2.88777]],[[381.30177,211.65627],[-2.01781,0],[2.31746,0.00298]],[[388.33741,211.23652],[-2.29986,0.27577],[1.87068,-0.2243]],[[392.93497,211.11833],[-1.9254,-0.88699],[1.59947,0.73685]],[[394.9584,214.98667],[-0.19809,-1.52206],[0.0917,0.70457]],[[394.96586,217.11819],[0.06597,-0.70744],[-0.03125,0.33518]],[[394.66963,218.08366],[-0.27828,-0.18942],[0.93193,0.63436]],[[400.71073,218.1083],[-1.02844,0.12252],[5.20997,-0.62065]],[[410.24283,207.24422],[1.63067,5.89874],[-0.66651,-2.34252]],[[410.08748,200.20363],[-1.04535,2.34076],[0.54754,-1.22605]],[[411.43101,196.406],[-0.53764,1.23043],[0.67303,-1.54028]],[[412.00568,193.04479],[1.49872,1.75795],[-2.37144,-2.78162]],[[402.63791,190.40549],[3.48501,-0.83787],[-0.75916,0.18252]],[[398.58149,191.23754],[0.88936,0.47313],[-3.035,-1.61458]],[[395.03743,182.19648],[-0.89183,2.96281],[0.61687,-0.85926]],[[399.35106,177.92191],[-0.20746,1.00509],[0.20942,-1.01457]],[[397.48226,175.43869],[0.71206,0.75244],[-2.82411,-2.98424]],[[388.92101,167.06697],[2.38779,3.41124],[-0.53661,-0.76661]],[[386.96964,163.57969],[-0.40127,0.9237],[0.25593,-0.58912]],[[391.44396,160.99512],[-1.04142,0.44534],[0.70345,-0.30081]],[[393.57729,160.14843],[-0.73322,0.21845],[0.21724,-0.06472]],[[394.25725,160.15694],[0.06862,0.21604],[-0.30541,-0.96154]],[[391.51247,158.88155],[0.94501,0.35325],[-5.53413,-1.89626]],[[380.10698,166.89311],[-0.55501,-6.30929],[0.19804,2.25129]],[[383.09405,172.2419],[-0.87617,-1.90738],[2.23108,4.85696]],[[387.62962,188.74837],[-0.59085,-5.3206],[-0.43384,0.82799]],[[386.31979,191.35901],[0.46767,-0.86957],[0.00035,0.01456]],[[386.32032,191.40322],[0,-0.01491],[0,0]]],&quot;closed&quot;:true,&quot;fillColor&quot;:[0,0,0,1],&quot;strokeWidth&quot;:0.5}]}" fill="#fdfff4" stroke="none" stroke-width="0.25"/><path d="M297.29765,221.70256c-0.42194,0.84388 0.10809,1.37085 0.39509,1.57778c-0.82262,0.98945 -1.77762,1.88319 -2.88077,2.5998c-1.63804,1.06408 -7.7161,3.49099 -9.15765,2.33068c-0.13223,-0.78218 -1.18423,-3.40978 -0.96863,-4.0398c0.96937,-2.83273 5.65457,-3.89534 7.63534,-5.69933c1.22348,-1.11427 2.91861,-2.46154 4.07988,-3.62281c1.05386,-1.05386 1.762,-2.77312 3.11395,-3.58482c2.03923,-1.22433 5.09295,-1.38151 7.69791,-1.80884c-1.47015,2.02575 -3.0681,3.99803 -4.47985,6.03825c-1.23555,1.78559 -2.29462,3.86158 -3.52992,5.73749c-0.0701,-0.03406 -0.14018,-0.06829 -0.20972,-0.10345c0,0 -1.1366,-0.543 -1.69562,0.57503z" data-paper-data="{&quot;noHover&quot;:false,&quot;origItem&quot;:[&quot;Path&quot;,{&quot;applyMatrix&quot;:true,&quot;segments&quot;:[[[297.27529,221.65783],[0,0],[0.55902,-1.11803]],[[298.95234,221.09881],[0,0],[0.06954,0.03516]],[[299.1618,221.20263],[-0.0701,-0.03406],[1.2353,-1.87591]],[[302.68844,215.51633],[-1.23555,1.78559],[1.41175,-2.04022]],[[307.17458,209.4875],[-1.47015,2.02575],[-2.60496,0.42733]],[[299.49384,211.30943],[2.03923,-1.22433],[-1.35195,0.8117]],[[296.39535,214.89857],[1.05386,-1.05386],[-1.16127,1.16127]],[[292.37053,218.47872],[1.22348,-1.11427],[-1.98077,1.80399]],[[284.7311,224.15009],[0.96937,-2.83273],[-0.2156,0.63002]],[[285.69154,228.17743],[-0.13223,-0.78218],[1.44155,1.16031]],[[294.82003,225.83079],[-1.63804,1.06408],[1.10315,-0.71661]],[[297.67383,223.23405],[-0.82262,0.98945],[-0.287,-0.20693]],[[297.27528,221.65784],[-0.42194,0.84388],[0,0]]],&quot;closed&quot;:true,&quot;fillColor&quot;:[0,0,0,1],&quot;strokeWidth&quot;:0.5}]}" fill="#fdfff4" stroke="none" stroke-width="0.25"/><path d="M196.75799,263.64177v-167.28349h246.48409v167.28349z" fill="none" stroke="#000000" stroke-width="0"/></g></g></svg>