<svg version="1.1" xmlns="http://www.w3.org/2000/svg" xmlns:xlink="http://www.w3.org/1999/xlink" width="246.48409" height="167.28349" viewBox="0,0,246.48409,167.28349"><g transform="translate(-196.75798,-96.35827)"><g data-paper-data="{&quot;isPaintingLayer&quot;:true}" fill-rule="nonzero" stroke-linecap="butt" stroke-linejoin="miter" stroke-miterlimit="10" stroke-dasharray="" stroke-dashoffset="0" style="mix-blend-mode: normal"><path d="M383.12741,191.16072c0.46424,1.1606 -0.69636,1.62483 -0.69636,1.62483l-0.37798,0.12805c0.83526,2.9483 1.63693,6.05183 1.82399,9.02109c0.34545,5.48339 -2.98322,16.61085 4.58398,18.40055c0.98554,0.23309 2.02528,-0.03344 3.03801,-0.03344c5.21898,0 9.65442,-2.18385 14.28587,-4.51944c0.92668,-0.46732 4.85298,-2.21558 5.15087,-3.51153c0.2153,-0.93667 -0.48891,-1.85967 -0.69015,-2.79946c-0.13941,-0.65105 -0.14707,-1.34806 0,-1.99742c0.18019,-0.79559 1.6859,-1.3405 1.31225,-2.06563c-0.89876,-1.74417 -4.42335,-2.78141 -6.02286,-3.5015c-1.79703,-0.33577 -4.69117,-0.3685 -6.34158,-1.15916c-3.32018,-1.59058 -5.43051,-6.43348 -5.39704,-9.8218c0.01673,-1.69406 1.52916,-3.13355 1.14138,-4.7774c-0.46185,-1.9578 -2.09328,-0.76495 -2.94359,-2.27949c-0.40149,-0.71512 -0.10399,-1.66753 0.11589,-2.45762c0.78561,-2.82288 3.75979,-6.20237 5.11526,-8.90719c0.426,-1.13843 2.22012,-4.50604 1.03383,-5.84238c-0.57261,-0.64504 -3.06395,-1.3059 -3.54175,-1.46486c-3.07517,-1.02309 -6.20792,-1.39913 -9.31057,-2.43848c-1.71349,-0.574 -4.15118,-1.39118 -5.97705,-1.14649c-0.80266,0.10757 -1.57227,0.44635 -2.38136,0.48134c-0.26178,0.01132 -0.7113,-0.6098 -0.70491,-0.34786c0.03776,1.54884 2.78302,3.49709 3.76332,4.31273c1.10525,0.92463 2.66811,2.10477 3.30984,3.38029c1.67617,3.33158 1.66775,8.76236 2.43507,12.40462c0.3298,1.56549 1.4221,5.24071 0.15099,6.62413c-0.91515,0.996 -4.39196,0.39379 -4.93137,1.16559c-0.06156,0.08808 -0.11699,0.17901 -0.16718,0.27238c0.2706,0.20108 0.40972,0.4945 0.46368,0.63318l0.13465,-0.07399c0,0 1.1606,-0.46424 1.62483,0.69636zM370.61281,192.41952c-4.36661,0.54698 -8.15688,2.01008 -12.64412,2.00592c-3.48124,-0.31976 -7.25302,-1.18275 -10.75509,-0.88646c-4.95162,0.41892 -9.775,1.19617 -14.80645,1.33061c-3.57789,0.0956 -8.98063,-0.08803 -11.35775,2.90935c-2.42424,2.39899 -6.79481,5.32049 -10.18487,5.93933c-1.30571,0.23835 -2.68246,-0.28515 -3.98185,-0.01441c-1.64317,0.34237 -4.12695,2.75249 -5.51857,3.77068c-2.97872,2.1794 -4.15553,5.94641 -6.73283,8.52771c2.13689,0.02709 4.18917,0.31701 5.99516,1.06194c3.01291,1.24277 5.16844,3.9588 1.83906,6.59828c-1.46651,1.16263 -4.05206,1.19906 -5.79306,1.54736c-1.19414,0.29268 -2.4058,0.49375 -3.6279,0.63146c0.70963,2.56771 2.13114,3.70033 3.88894,6.02146c5.98933,2.38448 13.49549,1.96155 19.95796,1.96155c2.5627,0 5.8235,0.4016 8.33694,-0.36648c3.09191,-0.94485 1.14863,-5.56136 2.25225,-7.6896c0.77892,-1.50207 2.37664,-1.22184 3.63277,-1.25135c3.96558,-0.56651 7.53387,-0.63653 11.32029,-2.32953c4.25529,-1.90265 7.66035,-5.27881 12.6731,-4.53194c4.55,0.67793 4.69308,3.23255 7.02493,6.47544c1.29558,1.80175 3.77614,3.40576 5.64748,4.56468c2.23069,1.40918 4.44763,3.55396 6.89871,4.55543c2.05874,0.84116 4.39677,0.24434 6.54313,0.63489c3.61465,0.65772 7.00479,2.87812 10.80667,2.3844c7.195,-0.93435 14.2404,-2.23359 21.53277,-2.21971c1.91477,-0.33673 6.05033,-0.04562 7.53616,-1.28894c1.74733,-1.46214 2.39222,-5.22184 3.05552,-7.27011c1.10721,-3.41906 2.45164,-7.0482 2.2351,-10.70815c-0.13624,-2.30264 -1.10141,-4.64132 -1.7279,-6.84791c-0.74611,-2.62793 -0.85713,-5.37741 -1.39547,-8.05341c-0.67939,-3.38464 -1.03542,-9.11778 -3.45217,-11.87725c-1.47541,-1.68464 -5.32033,-1.06087 -7.22075,-1.35129c-5.27807,-0.80656 -10.45815,-1.72065 -15.69792,-2.61112c1.66727,2.78562 -1.56687,7.00533 -0.28086,10.13694c1.80192,4.38789 5.60395,4.55406 9.66933,5.34158c2.29299,1.00785 6.86209,2.53461 7.72132,5.36571c0.53963,1.77803 -1.87649,2.50972 -1.34791,3.91745c0.83421,2.22167 1.36679,4.01014 -0.58159,5.91033c-4.87921,4.75852 -13.91647,8.08744 -20.57428,8.08744c-0.60195,0 -3.44202,0.0065 -3.6124,-0.03344c-9.52697,-2.23298 -6.08332,-13.67279 -6.50003,-20.61519c-0.17256,-2.87479 -0.97519,-5.90141 -1.7932,-8.75963l-1.1735,0.58981c0,0 -1.10163,0 -1.23652,-1.03419c-2.17277,-0.35952 -4.30535,-0.81341 -6.5706,-0.52965zM290.63897,215.72611c4.62479,-1.64317 5.60862,-7.48628 9.21717,-10.24556c1.71682,-1.31277 4.36024,-3.69832 6.45217,-4.20981c0.28687,-0.07014 4.09655,-0.01017 4.12168,-0.01441c2.80418,-0.47363 6.77117,-3.13192 8.7566,-5.14469c2.92744,-3.63055 8.78655,-3.61189 13.15012,-3.74106c5.01734,-0.14852 9.83232,-0.95096 14.77569,-1.32955c3.5975,-0.27552 7.40097,0.56638 10.96958,0.88698c4.31828,-0.00435 7.96782,-1.45823 12.18408,-1.98432c2.76136,-0.34456 5.27463,0.31423 7.89001,0.66924c0.23577,-1.01103 0.48446,-2.01312 1.15925,-2.75949c1.3075,-1.44619 3.55059,-0.18214 4.82257,-1.05121c0.70914,-0.48451 -0.38815,-1.67465 -0.52443,-2.52262c-0.10307,-0.64135 -0.07757,-1.30159 -0.2113,-1.93726c-1.04263,-4.95589 -0.79674,-10.96254 -4.89574,-14.36362c-1.91507,-1.59822 -5.57991,-4.52785 -4.21717,-7.65801c0.32905,-0.75582 1.57192,-0.50158 2.37268,-0.69736c3.32363,-0.8126 6.33373,-0.29888 9.53551,0.76338c4.00562,1.32895 11.29291,1.34692 14.05913,4.77156c1.94196,2.40419 0.1405,6.00296 -0.73961,8.34516c-0.94583,1.89568 -1.84967,3.78189 -2.97273,5.57999c-0.4447,0.71199 -0.87757,1.43153 -1.33485,2.13551c-0.00074,0.00114 -0.00149,0.00229 -0.00225,0.00343c5.94702,0.99851 11.79369,2.04351 17.76265,2.95996c2.91949,0.44824 6.47854,-0.20759 8.74023,2.1956c2.80239,2.97771 3.25162,9.2589 4.005,13.01206c0.41231,2.05841 0.53356,4.14773 0.93072,6.19743c0.58169,3.00204 2.04239,5.90261 2.23293,8.98866c0.24772,4.01212 -1.13338,7.93256 -2.34803,11.68542c-0.84903,2.62321 -1.6092,6.65123 -3.88872,8.46533c-2.08145,1.65647 -6.31479,1.38166 -8.86819,1.81459c-4.9525,0.00865 -9.85522,0.48625 -14.77812,1.06396c-2.77906,0.32613 -5.64138,1.30871 -8.43989,1.15611c-3.48881,-0.19023 -6.40815,-1.79738 -9.78377,-2.41633c-2.37584,-0.43563 -4.72216,0.14372 -7.03384,-0.7776c-2.60233,-1.03716 -4.93154,-3.26699 -7.28883,-4.75515c-2.13824,-1.34712 -4.80893,-3.1376 -6.32326,-5.18925c-1.98553,-2.69004 -1.7885,-4.9504 -5.38917,-5.4953c-4.29406,-0.64982 -7.59367,2.69091 -11.26838,4.33527c-4.04948,1.81207 -7.92854,1.9404 -12.17783,2.54744c-2.95775,-0.09555 -1.42148,2.48554 -1.96833,4.77137c-0.57628,2.40884 -0.49,2.92477 -3.23067,4.0221c-2.57995,1.03298 -6.5182,0.52024 -9.20019,0.52024c-7.025,0 -15.03582,0.43144 -21.47187,-2.47206c-2.31643,-2.7785 -4.07945,-4.42902 -4.89639,-7.80821c-2.32343,0.121 -4.66671,0.08566 -6.98244,0.08297c-1.04047,-0.00121 -2.12074,0.50633 -3.11501,0.19974c-2.46033,-0.75866 -2.8538,-2.38222 -1.62994,-4.8904c0.28138,-0.57666 1.19293,-0.48043 1.75728,-0.78576c0.46229,-0.25012 0.91815,-0.53248 1.37122,-0.82504c-0.31815,-0.11903 -0.6449,-0.38741 -0.72939,-0.97881c-0.17678,-1.23744 1.06066,-1.41421 1.06066,-1.41421c2.30904,-0.32912 4.98518,-0.83988 7.71041,-1.15427c0.2406,-0.39 0.673,-0.55215 0.673,-0.55215zM290.19399,223.32809c0.88388,-0.88388 1.76777,0 1.76777,0l0.08354,0.11941c1.37979,-0.12687 2.74452,-0.33571 4.07867,-0.67675c2.14189,-0.42826 8.44029,-1.33096 3.58313,-3.38173c-0.34894,-0.14733 -0.75425,-0.0825 -1.12495,-0.16028c-0.56281,-0.1181 -1.10264,-0.34322 -1.67163,-0.42654c-3.39117,-0.49656 -7.06693,-0.01775 -10.58273,0.52939c0.0096,0.07012 0.01472,0.14505 0.01472,0.2251c0,1.25 -1.25,1.25 -1.25,1.25l0.19976,-0.17813c-1.14091,0.68455 -3.7905,1.62135 -4.5437,2.36879c-0.20801,0.20641 -0.12851,0.58622 -0.08099,0.87539c0.06713,0.40852 0.80604,-0.20354 1.2183,-0.24146c0.5493,-0.05052 1.10324,-0.00365 1.65486,-0.00426c2.12778,-0.00234 4.29532,0.04442 6.44527,-0.04523c0.05461,-0.08404 0.12315,-0.16887 0.20798,-0.25369z" fill="#000000" stroke="none" stroke-width="0.5"/><path d="M370.63893,192.37687c2.26525,-0.28376 4.40729,0.17763 6.58006,0.53715c0.13489,1.03419 1.23872,1.03657 1.23872,1.03657l1.1739,-0.58934c0.81801,2.85822 1.62934,5.89973 1.8019,8.77452c0.41671,6.9424 -3.02816,18.42 6.49881,20.65298c0.17038,0.03994 2.91832,-0.0054 3.52027,-0.0054c6.65781,0 15.69173,-3.31478 20.57094,-8.0733c1.94838,-1.90019 1.41563,-3.68305 0.58142,-5.90472c-0.52858,-1.40773 1.88776,-2.13587 1.34813,-3.9139c-0.85923,-2.8311 -5.4273,-4.35155 -7.72029,-5.3594c-4.06538,-0.78752 -7.86454,-0.94495 -9.66646,-5.33284c-1.28601,-3.13161 2.03489,-7.4 0.36762,-10.18562c5.23977,0.89047 10.42463,1.81299 15.7027,2.61955c1.90042,0.29042 5.74657,-0.33033 7.22198,1.35431c2.41675,2.75947 2.77523,8.50192 3.45462,11.88656c0.53834,2.676 0.64998,5.43175 1.39609,8.05968c0.62649,2.20659 1.59157,4.55044 1.72781,6.85308c0.21654,3.65995 -1.12912,7.29721 -2.23633,10.71627c-0.6633,2.04827 -1.30991,5.81368 -3.05724,7.27582c-1.48583,1.24332 -5.62261,0.95521 -7.53738,1.29194c-7.29237,-0.01388 -14.34458,1.29651 -21.53958,2.23086c-3.80188,0.49372 -7.19733,-1.72106 -10.81198,-2.37878c-2.14636,-0.39055 -4.49078,0.21119 -6.54952,-0.62997c-2.45108,-1.00147 -4.67527,-3.14236 -6.90596,-4.55154c-1.87134,-1.15892 -4.36335,-2.75951 -5.65893,-4.56126c-2.33185,-3.24289 -2.50975,-5.80427 -7.05975,-6.4822c-5.01275,-0.74687 -8.43257,2.61527 -12.68786,4.51792c-3.78642,1.693 -7.35834,1.75691 -11.32392,2.32342c-1.25613,0.02951 -2.76412,-0.29485 -3.54304,1.20722c-1.10362,2.12824 0.75318,6.79445 -2.33873,7.7393c-2.51344,0.76808 -5.77657,0.36268 -8.33927,0.36268c-6.46247,0 -13.97212,0.41509 -19.96145,-1.96939c-1.7578,-2.32113 -3.18072,-3.45864 -3.89035,-6.02635c1.2221,-0.13771 2.53108,-0.36179 3.72522,-0.65447c1.741,-0.3483 4.22924,-0.3617 5.69575,-1.52433c3.32938,-2.63948 1.17286,-5.36118 -1.84005,-6.60395c-1.80599,-0.74493 -3.85841,-1.03618 -5.9953,-1.06327c2.5773,-2.5813 3.75397,-6.35508 6.73269,-8.53448c1.39162,-1.01819 3.87572,-3.43208 5.51889,-3.77445c1.29939,-0.27074 2.6762,0.25229 3.98191,0.01394c3.39006,-0.61884 7.76259,-3.54905 10.18683,-5.94804c2.37712,-2.99738 7.78386,-2.82293 11.36175,-2.91853c5.03145,-0.13444 9.8684,-0.9272 14.82002,-1.34612c3.50207,-0.29629 7.29834,0.55698 10.77958,0.87674c4.48724,0.00416 8.30917,-1.45189 12.67578,-1.99887z" data-paper-data="{&quot;noHover&quot;:false,&quot;origItem&quot;:[&quot;Path&quot;,{&quot;applyMatrix&quot;:true,&quot;segments&quot;:[[[370.61281,192.41952],[0,0],[-4.36661,0.54698]],[[357.96869,194.42544],[4.48724,0.00416],[-3.48124,-0.31976]],[[347.2136,193.53898],[3.50207,-0.29629],[-4.95162,0.41892]],[[332.40715,194.86959],[5.03145,-0.13444],[-3.57789,0.0956]],[[321.0494,197.77894],[2.37712,-2.99738],[-2.42424,2.39899]],[[310.86453,203.71827],[3.39006,-0.61884],[-1.30571,0.23835]],[[306.88268,203.70386],[1.29939,-0.27074],[-1.64317,0.34237]],[[301.36411,207.47454],[1.39162,-1.01819],[-2.97872,2.1794]],[[294.63128,216.00225],[2.5773,-2.5813],[2.13689,0.02709]],[[300.62644,217.06419],[-1.80599,-0.74493],[3.01291,1.24277]],[[302.4655,223.66247],[3.32938,-2.63948],[-1.46651,1.16263]],[[296.67244,225.20983],[1.741,-0.3483],[-1.19414,0.29268]],[[293.04454,225.84129],[1.2221,-0.13771],[0.70963,2.56771]],[[296.93348,231.86275],[-1.7578,-2.32113],[5.98933,2.38448]],[[316.89144,233.8243],[-6.46247,0],[2.5627,0]],[[325.22838,233.45782],[-2.51344,0.76808],[3.09191,-0.94485]],[[327.48063,225.76822],[-1.10362,2.12824],[0.77892,-1.50207]],[[331.1134,224.51687],[-1.25613,0.02951],[3.96558,-0.56651]],[[342.43369,222.18734],[-3.78642,1.693],[4.25529,-1.90265]],[[355.10679,217.6554],[-5.01275,-0.74687],[4.55,0.67793]],[[362.13172,224.13084],[-2.33185,-3.24289],[1.29558,1.80175]],[[367.7792,228.69552],[-1.87134,-1.15892],[2.23069,1.40918]],[[374.67791,233.25095],[-2.45108,-1.00147],[2.05874,0.84116]],[[381.22104,233.88584],[-2.14636,-0.39055],[3.61465,0.65772]],[[392.02771,236.27024],[-3.80188,0.49372],[7.195,-0.93435]],[[413.56048,234.05053],[-7.29237,-0.01388],[1.91477,-0.33673]],[[421.09664,232.76159],[-1.48583,1.24332],[1.74733,-1.46214]],[[424.15216,225.49148],[-0.6633,2.04827],[1.10721,-3.41906]],[[426.38726,214.78333],[0.21654,3.65995],[-0.13624,-2.30264]],[[424.65936,207.93542],[0.62649,2.20659],[-0.74611,-2.62793]],[[423.26389,199.88201],[0.53834,2.676],[-0.67939,-3.38464]],[[419.81172,188.00476],[2.41675,2.75947],[-1.47541,-1.68464]],[[412.59097,186.65347],[1.90042,0.29042],[-5.27807,-0.80656]],[[396.89305,184.04235],[5.23977,0.89047],[1.66727,2.78562]],[[396.61219,194.17929],[-1.28601,-3.13161],[1.80192,4.38789]],[[406.28152,199.52087],[-4.06538,-0.78752],[2.29299,1.00785]],[[414.00284,204.88658],[-0.85923,-2.8311],[0.53963,1.77803]],[[412.65493,208.80403],[-0.52858,-1.40773],[0.83421,2.22167]],[[412.07334,214.71436],[1.94838,-1.90019],[-4.87921,4.75852]],[[391.49906,222.8018],[6.65781,0],[-0.60195,0]],[[387.88666,222.76836],[0.17038,0.03994],[-9.52697,-2.23298]],[[381.38663,202.15317],[0.41671,6.9424],[-0.17256,-2.87479]],[[379.59343,193.39354],[0.81801,2.85822],[0,0]],[378.41993,193.98335],[[377.18341,192.94916],[0.13489,1.03419],[-2.17277,-0.35952]],[[370.61281,192.41951],[2.26525,-0.28376],[0,0]]],&quot;closed&quot;:true,&quot;fillColor&quot;:[0,0,0,1]}]}" fill="#fff69c" stroke="none" stroke-width="0.5"/><path d="M383.07738,191.16146c-0.46423,-1.1606 -1.52488,-0.69496 -1.52488,-0.69496l-0.23457,0.07002c-0.05396,-0.13868 -0.19294,-0.43444 -0.46354,-0.63552c0.05019,-0.09337 0.10572,-0.18539 0.16728,-0.27347c0.53941,-0.7718 4.01828,-0.17945 4.93343,-1.17545c1.27111,-1.38342 0.19327,-5.08091 -0.13653,-6.6464c-0.76732,-3.64226 -0.7477,-9.08055 -2.42387,-12.41213c-0.64173,-1.27552 -2.15829,-2.36706 -3.26354,-3.29169c-0.9803,-0.81564 -3.77568,-2.8504 -3.81344,-4.39924c-0.00639,-0.26194 0.44367,0.35886 0.70545,0.34754c0.80909,-0.03499 1.58179,-0.37543 2.38445,-0.483c1.82587,-0.24469 4.27122,0.56945 5.98471,1.14345c3.10265,1.03935 6.25135,1.41325 9.32652,2.43634c0.4778,0.15896 2.97637,0.82055 3.54898,1.46559c1.18629,1.33634 -0.62513,4.80244 -1.05113,5.94087c-1.35547,2.70482 -4.31144,6.08414 -5.09705,8.90702c-0.21988,0.79009 -0.54037,1.64526 -0.13888,2.36038c0.85031,1.51454 2.50484,0.3208 2.96669,2.2786c0.38778,1.64385 -1.08788,3.15089 -1.10461,4.84495c-0.03347,3.38832 2.00683,8.16863 5.32701,9.75921c1.65041,0.79066 4.53177,0.83316 6.3288,1.16893c1.59951,0.72009 5.19913,1.82335 6.09789,3.56752c0.37365,0.72513 -1.1356,1.27392 -1.31579,2.06951c-0.14707,0.64936 -0.1415,1.34832 -0.00209,1.99937c0.20124,0.93979 0.90357,1.86436 0.68827,2.80103c-0.29789,1.29595 -4.23385,3.05025 -5.16053,3.51757c-4.63145,2.33559 -9.09261,4.52412 -14.31159,4.52412c-1.01273,0 -2.0575,0.26585 -3.04304,0.03276c-7.5672,-1.7897 -4.26322,-12.92957 -4.60867,-18.41296c-0.18706,-2.96926 -1.00417,-6.10159 -1.83943,-9.04989l0.37794,-0.12833c0,0 1.16002,-0.47113 0.69578,-1.63173z" data-paper-data="{&quot;noHover&quot;:false,&quot;origItem&quot;:[&quot;Path&quot;,{&quot;applyMatrix&quot;:true,&quot;segments&quot;:[[[383.12741,191.16072],[0,0],[0.46424,1.1606]],[382.43105,192.78555],[[382.05307,192.9136],[0,0],[0.83526,2.9483]],[[383.87706,201.93469],[-0.18706,-2.96926],[0.34545,5.48339]],[[388.46104,220.33524],[-7.5672,-1.7897],[0.98554,0.23309]],[[391.49905,220.3018],[-1.01273,0],[5.21898,0]],[[405.78492,215.78236],[-4.63145,2.33559],[0.92668,-0.46732]],[[410.93579,212.27083],[-0.29789,1.29595],[0.2153,-0.93667]],[[410.24564,209.47137],[0.20124,0.93979],[-0.13941,-0.65105]],[[410.24564,207.47395],[-0.14707,0.64936],[0.18019,-0.79559]],[[411.55789,205.40832],[0.37365,0.72513],[-0.89876,-1.74417]],[[405.53503,201.90682],[1.59951,0.72009],[-1.79703,-0.33577]],[[399.19345,200.74766],[1.65041,0.79066],[-3.32018,-1.59058]],[[393.79641,190.92586],[-0.03347,3.38832],[0.01673,-1.69406]],[[394.93779,186.14846],[0.38778,1.64385],[-0.46185,-1.9578]],[[391.9942,183.86897],[0.85031,1.51454],[-0.40149,-0.71512]],[[392.11009,181.41135],[-0.21988,0.79009],[0.78561,-2.82288]],[[397.22535,172.50416],[-1.35547,2.70482],[0.426,-1.13843]],[[398.25918,166.66178],[1.18629,1.33634],[-0.57261,-0.64504]],[[394.71743,165.19692],[0.4778,0.15896],[-3.07517,-1.02309]],[[385.40686,162.75844],[3.10265,1.03935],[-1.71349,-0.574]],[[379.42981,161.61195],[1.82587,-0.24469],[-0.80266,0.10757]],[[377.04845,162.09329],[0.80909,-0.03499],[-0.26178,0.01132]],[[376.34354,161.74543],[-0.00639,-0.26194],[0.03776,1.54884]],[[380.10686,166.05816],[-0.9803,-0.81564],[1.10525,0.92463]],[[383.4167,169.43845],[-0.64173,-1.27552],[1.67617,3.33158]],[[385.85177,181.84307],[-0.76732,-3.64226],[0.3298,1.56549]],[[386.00276,188.4672],[1.27111,-1.38342],[-0.91515,0.996]],[[381.07139,189.63279],[0.53941,-0.7718],[-0.06156,0.08808]],[[380.90421,189.90517],[0.05019,-0.09337],[0.2706,0.20108]],[[381.36789,190.53835],[-0.05396,-0.13868],[0,0]],[381.50254,190.46436],[[383.12737,191.16072],[-0.46423,-1.1606],[0,0]]],&quot;closed&quot;:true,&quot;fillColor&quot;:[0,0,0,1],&quot;strokeWidth&quot;:0.5}]}" fill="#fdfff4" stroke="none" stroke-width="0.25"/><path d="M290.17437,223.37409c-0.08483,0.08482 -0.15503,0.1689 -0.20964,0.25294c-2.14995,0.08965 -4.34398,0.01241 -6.47176,0.01475c-0.55162,0.00061 -1.10625,-0.04873 -1.65555,0.00179c-0.41226,0.03792 -1.15124,0.64968 -1.21837,0.24116c-0.04752,-0.28917 -0.12782,-0.67288 0.08019,-0.87929c0.7532,-0.74744 3.40247,-1.69816 4.54338,-2.38271l-0.19993,0.17979c0,0 1.25294,-0.01322 1.25294,-1.26322c0,-0.08005 -0.00438,-0.15685 -0.01398,-0.22697c3.5158,-0.54714 7.28369,-1.02636 10.67486,-0.5298c0.56899,0.08332 1.11104,0.3148 1.67385,0.4329c0.3707,0.07778 0.77663,0.01544 1.12557,0.16277c4.85716,2.05077 -1.44203,2.97819 -3.58392,3.40645c-1.33415,0.34104 -2.72599,0.58138 -4.10578,0.70825l-0.08407,-0.11917c0,0 -0.92389,-0.88355 -1.80777,0.00033z" data-paper-data="{&quot;noHover&quot;:false,&quot;origItem&quot;:[&quot;Path&quot;,{&quot;applyMatrix&quot;:true,&quot;segments&quot;:[[[290.19399,223.32809],[0,0],[0.88388,-0.88388]],[291.96176,223.32809],[[292.0453,223.4475],[0,0],[1.37979,-0.12687]],[[296.12397,222.77075],[-1.33415,0.34104],[2.14189,-0.42826]],[[299.7071,219.38902],[4.85716,2.05077],[-0.34894,-0.14733]],[[298.58215,219.22874],[0.3707,0.07778],[-0.56281,-0.1181]],[[296.91052,218.8022],[0.56899,0.08332],[-3.39117,-0.49656]],[[286.32779,219.33159],[3.5158,-0.54714],[0.0096,0.07012]],[[286.34251,219.55669],[0,-0.08005],[0,1.25]],[285.09251,220.80669],[[285.29227,220.62856],[0,0],[-1.14091,0.68455]],[[280.74857,222.99735],[0.7532,-0.74744],[-0.20801,0.20641]],[[280.66758,223.87274],[-0.04752,-0.28917],[0.06713,0.40852]],[[281.88588,223.63128],[-0.41226,0.03792],[0.5493,-0.05052]],[[283.54074,223.62702],[-0.55162,0.00061],[2.12778,-0.00234]],[[289.98601,223.58179],[-2.14995,0.08965],[0.05461,-0.08404]],[[290.19399,223.3281],[-0.08483,0.08482],[0,0]]],&quot;closed&quot;:true,&quot;fillColor&quot;:[0,0,0,1],&quot;strokeWidth&quot;:0.5}]}" fill="#fdfff4" stroke="none" stroke-width="0.25"/><path d="M196.75799,263.64177v-167.28349h246.48409v167.28349z" fill="none" stroke="#000000" stroke-width="0"/></g></g></svg>