<svg version="1.1" xmlns="http://www.w3.org/2000/svg" xmlns:xlink="http://www.w3.org/1999/xlink" width="246.48409" height="167.28349" viewBox="0,0,246.48409,167.28349"><g transform="translate(-196.75798,-96.35827)"><g data-paper-data="{&quot;isPaintingLayer&quot;:true}" fill-rule="nonzero" stroke-linecap="butt" stroke-linejoin="miter" stroke-miterlimit="10" stroke-dasharray="" stroke-dashoffset="0" style="mix-blend-mode: normal"><path d="M332.31326,219.11616l0.98991,-0.89919c0.68641,-0.3156 1.44793,-0.52101 2.2132,-0.5838c0.73192,-0.75836 1.34507,-1.63211 1.80949,-2.59129c0.43247,0.26436 0.82845,0.48684 1.13599,0.60369c0.12414,0.00943 0.25509,0.03771 0.38322,0.09652c1.83001,0.26852 3.46945,-0.75205 4.93976,-1.32289c1.98051,-0.76893 5.09418,-0.27693 7.14717,-0.10168c3.05464,0.26075 5.94382,1.39163 8.84923,1.6248c0.99773,0.94871 2.19114,1.69354 3.51345,2.16775l-0.47206,0.17593c0.03483,2.78602 2.25521,5.46528 3.6409,7.70951c1.04157,1.653 2.04785,4.66494 3.73679,5.79281c1.55029,1.03527 4.30572,0.5625 6.0555,0.95807c6.97329,1.57642 15.71461,3.64781 22.42197,0.1123c1.92512,-1.01475 3.85033,-2.85956 5.63377,-4.13345c6.18953,-4.11531 13.87458,-8.60508 15.44271,-16.49409c0.51033,-2.5674 -1.00691,-6.1254 -1.44552,-8.59939c-0.49575,-2.79624 -0.28528,-5.67398 -0.9816,-8.39611c-0.51673,-2.35624 -0.60628,-5.77711 -2.20678,-7.71839c-1.34148,-1.62711 -2.16422,-1.52871 -4.13084,-2.26747c-1.61118,-0.60524 -3.02096,-1.80762 -4.51279,-2.4731c-4.11134,-1.83399 -7.78111,1.08883 -10.38177,3.89576c0.29748,0.67267 0.52315,1.37352 0.63231,2.11898c0.47677,3.25598 -0.09096,6.67435 0.4393,9.94877c0.69544,4.29438 2.3558,6.0525 -0.47053,10.0583c-2.6798,3.41197 -9.58256,7.10008 -13.07209,3.59977c-0.79097,-0.03446 -1.06953,-0.87014 -1.06953,-0.87014c-0.67166,-2.35719 0.28207,-2.64491 0.86793,-4.7192c0.37406,-1.32441 0.07876,-2.97862 0.43766,-4.41228c0.20179,-0.80609 0.35859,-1.623 0.56039,-2.42909c0.0236,-0.09427 0.04552,-0.18924 0.06662,-0.28456c-0.94352,-1.78027 -2.2298,-3.02835 -3.71516,-3.831c0.33346,-0.17688 0.63233,-0.34616 0.82944,-0.47383c-0.01927,-0.19861 -0.03622,-0.39834 -0.05102,-0.59906c-0.13713,-0.10085 -0.28496,-0.19677 -0.35396,-0.31399c-1.01197,0.20277 -2.02222,0.34188 -3.04612,0.44944c-2.20238,-0.44627 -4.61499,-0.19423 -6.90324,0.55407c-5.77793,0.47798 -12.08416,0.99748 -17.68947,-0.18165c-3.65099,-0.76802 -6.92895,-2.75475 -10.72822,-2.86131c-3.68714,-0.75132 -7.41978,3.87979 -10.28276,6.17833c0.36229,0.06974 1.01392,0.32063 1.01392,1.22315c0,1.10576 -0.97816,1.23336 -1.20391,1.24808c-3.71354,1.62637 -7.64481,2.82148 -11.19364,4.72465c-0.86591,0.46437 -1.58311,1.03576 -2.28385,1.58519c-0.20677,0.59081 -0.35965,1.20693 -0.45275,1.84247c-0.43101,0.03289 -0.87139,0.04979 -1.32319,0.04865c-2.08618,0.30026 -4.18912,0.71519 -6.18883,1.36523c-0.87173,0.28337 -2.29258,0.17367 -2.53878,1.05662c-0.57405,2.05864 -1.5246,4.49949 -1.86283,6.61187c-0.16163,1.00944 0.78232,3.10197 0.95799,4.06993c0.44588,2.45686 0.79674,4.91458 1.13403,7.38837c0.23523,1.72523 0.39285,2.70525 0.54182,4.37294c0.03513,0.3932 -0.29429,1.03381 0.07155,1.18214c0.46367,0.188 0.89558,-0.46289 1.37835,-0.59428c1.14236,-0.3109 2.15182,-0.2374 3.31457,-0.23962c3.59957,0 7.20143,-0.03745 10.80082,0c1.04372,0.01086 2.79711,0.66818 3.11429,-0.32624c0.11751,-0.36842 -0.39178,-0.67442 -0.50647,-1.04373c-0.50741,-1.63383 -1.7443,-4.24679 -1.29367,-5.97748c0.339,-1.30197 1.68193,-2.10168 2.4706,-3.19165c0.95411,-1.3186 2.08052,-2.6574 3.32647,-3.89143c0.03258,-0.01218 0.06507,-0.02453 0.09749,-0.03705c0.00544,-0.51826 0.39278,-0.9056 0.39278,-0.9056zM337.75534,219.09714c-0.2055,1.23299 -1.43849,1.02749 -1.43849,1.02749c-0.26539,-0.06179 -0.54698,-0.06924 -0.82579,-0.03295c-1.9226,1.53613 -3.65483,3.50081 -4.96776,5.32218c-0.6424,0.89117 -1.80441,1.46805 -2.12567,2.5186c-0.56869,1.85965 2.80534,5.08278 1.74674,7.16632c-1.18771,2.33765 -3.4753,1.87283 -5.43259,1.89056c-3.5996,0.03262 -7.20108,0 -10.80082,0c-1.15012,-0.00247 -5.3457,0.84727 -5.94774,0.49618c-1.65041,-0.96246 -1.61768,-5.78145 -1.83563,-7.37957c-0.40317,-2.95618 -0.68793,-6.00871 -1.40817,-8.90958c-0.25228,-1.01611 -0.83779,-1.94333 -0.70122,-3.05306c0.22626,-1.83841 1.373,-5.90231 2.12741,-7.57567c0.98357,-2.18164 5.08287,-3.00512 8.21449,-3.44725c0.30166,-0.26179 0.67544,-0.32408 0.67544,-0.32408c1.66508,-0.1232 3.28343,-2.31703 4.92432,-3.18797c1.89951,-1.00821 3.89173,-1.826 5.90136,-2.6143c-0.67163,0.16981 -1.31621,0.40758 -1.92598,0.70557c0.88914,-0.64774 1.82294,-1.19206 2.33103,-1.5615c3.67235,-2.67026 7.07265,-6.0038 10.95092,-8.18559c2.22491,-1.25166 3.18728,-2.39127 5.85572,-2.01498c3.91552,0.12537 7.24381,2.11235 10.99645,2.90238c6.01057,1.26538 12.88986,0.44984 18.93889,-0.02314c2.9956,-0.23423 5.70217,-0.28705 8.45738,-0.95315c0.02465,-3.1812 0.35745,-6.44846 0.35959,-9.32758c0.00317,-4.2619 -1.387,-8.24051 -1.77005,-12.46962c-0.2311,-2.5515 -0.02402,-4.8346 -0.51788,-7.37785c-0.38749,-3.55258 -2.36889,-6.86023 -2.14568,-10.52274c0.04653,-0.76352 -0.19088,-1.64787 0.23594,-2.28265c0.38715,-0.57579 1.25438,-0.59376 1.88809,-0.87631c2.86507,-1.27742 6.72494,-1.06301 9.10451,1.39416c1.7663,1.82389 3.10635,6.34152 3.24127,8.8106c0.05798,1.06116 -0.76776,2.06048 -0.66456,3.11821c0.31196,3.19736 0.88716,6.08151 0.88716,9.34386c0,2.06009 -0.49761,4.61001 -0.25191,6.59884c0.28271,2.28849 1.73389,4.16476 2.99534,6.12809c3.33676,-3.34682 7.68909,-5.97551 12.72923,-3.87866l0.00002,0.00001c1.45351,0.60471 2.80037,1.82212 4.35442,2.40387c2.29175,0.85789 3.56133,1.06443 5.17974,3.05286c1.88586,2.31703 2.05535,5.88161 2.67019,8.68596c0.6853,2.79706 0.50308,5.67378 1.0093,8.53077c0.50912,2.87332 1.98733,6.52467 1.44054,9.49923c-1.58733,8.63511 -9.77187,13.60295 -16.47926,18.08805c-1.86715,1.33368 -3.88393,3.22258 -5.89361,4.2904c-7.22121,3.83691 -16.59322,1.88811 -24.1309,0.1123c-2.10668,-0.49631 -4.90333,0.02599 -6.80196,-1.25874c-2.17643,-1.47271 -3.21364,-4.47082 -4.56257,-6.60764c-1.64389,-2.66235 -3.91765,-5.59178 -4.01694,-8.86406c-3.19967,-0.14892 -6.2407,-1.35781 -9.6068,-1.64659c-1.40286,-0.12035 -4.60892,-0.70241 -5.94135,-0.09474c-1.85893,0.84778 -4.02988,1.72453 -6.27744,1.4616c-0.25134,0.11761 -0.50155,0.24591 -0.75021,0.38386c0.03395,0.15297 0.03999,0.33101 0.00549,0.53801zM385.83162,207.47625c-0.28582,1.07172 -0.93028,1.44425 -1.08659,2.09052c2.18534,4.14388 8.02119,0.24181 9.94712,-2.26315c2.35933,-3.24418 0.6069,-4.64156 0.00665,-8.16298c-0.56187,-3.2963 0.00556,-6.72422 -0.44742,-10.00247c-0.04204,-0.30422 -0.10535,-0.60154 -0.18653,-0.8931c-0.22139,-0.01735 -0.46541,-0.10886 -0.71913,-0.32633c-0.86196,-0.73882 -0.27006,-1.58949 -0.15415,-1.73941c-1.32786,-2.41728 -3.41149,-4.59825 -3.79902,-7.36026c-0.30109,-2.14599 0.19145,-4.93347 0.19145,-7.14533c0,-3.23136 -0.65641,-6.1092 -0.88628,-9.27729c-0.07623,-1.05048 0.73333,-2.03779 0.66552,-3.08884c-0.12218,-1.8939 -1.21912,-4.50736 -2.02305,-6.21881c-1.2761,-2.71664 -4.60668,-2.51694 -6.91248,-1.75422c-0.24436,0.08083 -0.63258,-0.20589 -0.77208,0.01041c-0.36629,0.56795 0.13756,1.34488 0.22848,2.01456c0.42331,3.11787 1.756,5.8384 2.12437,8.95082c0.49422,2.58555 0.30304,4.94369 0.5365,7.53098c0.45218,5.01128 1.7802,9.61133 1.7802,14.68985c0,1.98696 -0.22265,4.26153 -0.31599,6.5295c0.11929,-0.04719 0.23885,-0.09591 0.3587,-0.14622c0,0 0.08314,-0.03464 0.21408,-0.06301c0.09403,-0.19084 0.25931,-0.37697 0.53321,-0.53348c1.08531,-0.62017 1.70548,0.46513 1.70548,0.46513c0.12522,0.2296 0.2394,0.46477 0.34313,0.70492c0.21539,0.15183 0.40053,0.40375 0.4696,0.81816l0.00002,-0.00001c0.03422,0.20533 0.02855,0.38217 -0.00468,0.53431c1.02288,3.8672 -0.0895,8.62215 -1.3073,12.21964c-0.00198,0.00586 -0.1885,0.32868 -0.44171,0.7897c0.04192,0.57262 0.07926,1.14891 -0.04809,1.62642zM384.95259,198.03238c0.02621,-0.05515 0.07228,-0.12509 0.12829,-0.19835c-0.16882,-0.01526 -0.36673,-0.0722 -0.57697,-0.15484c0.06051,0.21877 0.12719,0.43366 0.20055,0.64425l0.02414,0.31569c0.05969,-0.20788 0.13115,-0.41138 0.22399,-0.60675zM385.8649,204.43411c-0.06107,0.42222 -0.02199,0.91344 0.01424,1.40775c0.11029,-0.3641 0.15324,-0.74158 0.10231,-1.13776c-0.02291,-0.1782 -0.04788,-0.35368 -0.07486,-0.52646c-0.01538,0.08552 -0.02933,0.17101 -0.04169,0.25647zM385.38919,193.94704l-0.08043,0.01337c-0.03053,0.00468 -0.06328,0.00823 -0.09787,0.01083c0.09333,0.06896 0.16809,0.14523 0.22762,0.22547c-0.01522,-0.08388 -0.03165,-0.16712 -0.04933,-0.24967z" fill="#000000" stroke="none" stroke-width="0.5"/><path d="M332.36068,219.10033c0,0 -0.3877,0.3863 -0.39314,0.90456c-0.03242,0.01252 -0.06491,0.02487 -0.09749,0.03705c-1.24595,1.23403 -2.3736,2.56972 -3.32771,3.88832c-0.78867,1.08997 -2.13259,1.88756 -2.47159,3.18953c-0.45063,1.73069 0.78281,4.33772 1.29022,5.97155c0.11469,0.36931 0.62322,0.67423 0.50571,1.04265c-0.31718,0.99442 -2.15275,0.39405 -3.19647,0.38319c-3.59939,-0.03745 -7.20401,-0.00465 -10.80358,-0.00465c-1.16275,0.00222 -2.17272,-0.07228 -3.31508,0.23862c-0.48277,0.13139 -0.91471,0.78222 -1.37838,0.59422c-0.36584,-0.14833 -0.03682,-0.78976 -0.07195,-1.18296c-0.14897,-1.66769 -0.308,-2.65101 -0.54323,-4.37624c-0.33729,-2.47379 -0.69006,-4.9376 -1.13594,-7.39446c-0.17567,-0.96796 -1.12035,-3.06406 -0.95872,-4.0735c0.33823,-2.11238 1.28816,-4.55886 1.86221,-6.6175c0.2462,-0.88295 1.66701,-0.77413 2.53874,-1.0575c1.99971,-0.65004 4.10262,-1.06621 6.1888,-1.36647c0.4518,0.00114 0.89218,-0.0158 1.32319,-0.04869c0.0931,-0.63554 0.246,-1.25373 0.45277,-1.84454c0.70074,-0.54943 1.41804,-1.12278 2.28395,-1.58715c3.54883,-1.90317 7.48147,-3.10687 11.19501,-4.73324c0.22575,-0.01472 1.20456,-0.14466 1.20456,-1.25042c0,-0.90252 -0.65122,-1.15471 -1.01351,-1.22445c2.86298,-2.29854 6.6041,-6.94521 10.29124,-6.19389c3.79927,0.10656 7.08718,2.0839 10.73817,2.85192c5.60531,1.17913 11.96648,0.65759 17.74441,0.17961c2.28825,-0.7483 4.71162,-0.99156 6.914,-0.54529c1.0239,-0.10756 2.03661,-0.2438 3.04858,-0.44657c0.069,0.11722 0.21745,0.21394 0.35458,0.31479c0.0148,0.20072 0.03242,0.40134 0.05169,0.59995c-0.19711,0.12767 -0.49612,0.29676 -0.82958,0.47364c1.48536,0.80265 2.77733,2.0607 3.72085,3.84097c-0.0211,0.09532 -0.04282,0.19076 -0.06642,0.28503c-0.2018,0.80609 -0.35701,1.62741 -0.5588,2.4335c-0.3589,1.43366 -0.06161,3.09777 -0.43567,4.42218c-0.58586,2.07429 -1.53985,2.37388 -0.86819,4.73107c0,0 0.17982,0.81995 0.97079,0.85441c3.48953,3.50031 10.39153,-0.17912 13.07133,-3.59109c2.82633,-4.0058 1.16802,-5.74973 0.47258,-10.04411c-0.53026,-3.27442 0.04247,-6.68136 -0.4343,-9.93734c-0.10916,-0.74546 -0.33338,-1.44402 -0.63086,-2.11669c2.60066,-2.80693 6.3548,-5.78337 10.46614,-3.94938c1.49183,0.66548 2.90361,1.87152 4.51479,2.47676c1.96662,0.73876 2.79077,0.6435 4.13225,2.27061c1.6005,1.94128 1.69228,5.36896 2.20901,7.7252c0.69632,2.72213 0.48713,5.60735 0.98288,8.40359c0.43861,2.47399 1.95597,6.03968 1.44564,8.60708c-1.56813,7.88901 -9.2581,12.39755 -15.44763,16.51286c-1.78344,1.27389 -3.71226,3.12495 -5.63738,4.1397c-6.70736,3.53551 -15.46611,1.47994 -22.4394,-0.09648c-1.74978,-0.39557 -4.51456,0.08113 -6.06485,-0.95414c-1.68894,-1.12787 -2.70044,-4.13852 -3.74201,-5.79152c-1.38569,-2.24423 -3.61731,-4.92264 -3.65214,-7.70866l0.47455,-0.1759c-1.32231,-0.47421 -2.53777,-1.22386 -3.5355,-2.17257c-2.90541,-0.23317 -5.81873,-1.38863 -8.87337,-1.64938c-2.05299,-0.17525 -5.16911,-0.67389 -7.14962,0.09504c-1.47031,0.57084 -3.10981,1.5912 -4.93982,1.32268c-0.12813,-0.05881 -0.25918,-0.08746 -0.38332,-0.09689c-0.30754,-0.11685 -0.60675,-0.36448 -1.03922,-0.62884c-0.46442,0.95918 -1.07854,1.82946 -1.81046,2.58782c-0.76527,0.06279 -1.52673,0.26838 -2.21314,0.58398l-0.99018,0.89837z" data-paper-data="{&quot;noHover&quot;:false,&quot;origItem&quot;:[&quot;Path&quot;,{&quot;applyMatrix&quot;:true,&quot;segments&quot;:[[332.31326,219.11616],[[333.30317,218.21697],[0,0],[0.68641,-0.3156]],[[335.51637,217.63317],[-0.76527,0.06279],[0.73192,-0.75836]],[[337.32586,215.04188],[-0.46442,0.95918],[0.43247,0.26436]],[[338.46185,215.64557],[-0.30754,-0.11685],[0.12414,0.00943]],[[338.84507,215.74209],[-0.12813,-0.05881],[1.83001,0.26852]],[[343.78483,214.4192],[-1.47031,0.57084],[1.98051,-0.76893]],[[350.932,214.31752],[-2.05299,-0.17525],[3.05464,0.26075]],[[359.78123,215.94232],[-2.90541,-0.23317],[0.99773,0.94871]],[[363.29468,218.11007],[-1.32231,-0.47421],[0,0]],[[362.82262,218.286],[0,0],[0.03483,2.78602]],[[366.46352,225.99551],[-1.38569,-2.24423],[1.04157,1.653]],[[370.20031,231.78832],[-1.68894,-1.12787],[1.55029,1.03527]],[[376.25581,232.74639],[-1.74978,-0.39557],[6.97329,1.57642]],[[398.67778,232.85869],[-6.70736,3.53551],[1.92512,-1.01475]],[[404.31155,228.72524],[-1.78344,1.27389],[6.18953,-4.11531]],[[419.75426,212.23115],[-1.56813,7.88901],[0.51033,-2.5674]],[[418.30874,203.63176],[0.43861,2.47399],[-0.49575,-2.79624]],[[417.32714,195.23565],[0.69632,2.72213],[-0.51673,-2.35624]],[[415.12036,187.51726],[1.6005,1.94128],[-1.34148,-1.62711]],[[410.98952,185.24979],[1.96662,0.73876],[-1.61118,-0.60524]],[[406.47673,182.77669],[1.49183,0.66548],[-4.11134,-1.83399]],[[396.09496,186.67245],[2.60066,-2.80693],[0.29748,0.67267]],[[396.72727,188.79143],[-0.10916,-0.74546],[0.47677,3.25598]],[[397.16657,198.7402],[-0.53026,-3.27442],[0.69544,4.29438]],[[396.69604,208.7985],[2.82633,-4.0058],[-2.6798,3.41197]],[[383.62395,212.39827],[3.48953,3.50031],[-0.79097,-0.03446]],[[382.55442,211.52813],[0,0],[-0.67166,-2.35719]],[[383.42235,206.80893],[-0.58586,2.07429],[0.37406,-1.32441]],[[383.86001,202.39665],[-0.3589,1.43366],[0.20179,-0.80609]],[[384.4204,199.96756],[-0.2018,0.80609],[0.0236,-0.09427]],[[384.48702,199.683],[-0.0211,0.09532],[-0.94352,-1.78027]],[[380.77186,195.852],[1.48536,0.80265],[0.33346,-0.17688]],[[381.6013,195.37817],[-0.19711,0.12767],[-0.01927,-0.19861]],[[381.55028,194.77911],[0.0148,0.20072],[-0.13713,-0.10085]],[[381.19632,194.46512],[0.069,0.11722],[-1.01197,0.20277]],[[378.1502,194.91456],[1.0239,-0.10756],[-2.20238,-0.44627]],[[371.24696,195.46863],[2.28825,-0.7483],[-5.77793,0.47798]],[[353.55749,195.28698],[5.60531,1.17913],[-3.65099,-0.76802]],[[342.82927,192.42567],[3.79927,0.10656],[-3.68714,-0.75132]],[[332.54651,198.604],[2.86298,-2.29854],[0.36229,0.06974]],[[333.56043,199.82715],[0,-0.90252],[0,1.10576]],[[332.35652,201.07523],[0.22575,-0.01472],[-3.71354,1.62637]],[[321.16288,205.79988],[3.54883,-1.90317],[-0.86591,0.46437]],[[318.87903,207.38507],[0.70074,-0.54943],[-0.20677,0.59081]],[[318.42628,209.22754],[0.0931,-0.63554],[-0.43101,0.03289]],[[317.10309,209.27619],[0.4518,0.00114],[-2.08618,0.30026]],[[310.91426,210.64142],[1.99971,-0.65004],[-0.87173,0.28337]],[[308.37548,211.69804],[0.2462,-0.88295],[-0.57405,2.05864]],[[306.51265,218.30991],[0.33823,-2.11238],[-0.16163,1.00944]],[[307.47064,222.37984],[-0.17567,-0.96796],[0.44588,2.45686]],[[308.60467,229.76821],[-0.33729,-2.47379],[0.23523,1.72523]],[[309.14649,234.14115],[-0.14897,-1.66769],[0.03513,0.3932]],[[309.21804,235.32329],[-0.36584,-0.14833],[0.46367,0.188]],[[310.59639,234.72901],[-0.48277,0.13139],[1.14236,-0.3109]],[[313.91096,234.48939],[-1.16275,0.00222],[3.59957,0]],[[324.71178,234.48939],[-3.59939,-0.03745],[1.04372,0.01086]],[[327.82607,234.16315],[-0.31718,0.99442],[0.11751,-0.36842]],[[327.3196,233.11942],[0.11469,0.36931],[-0.50741,-1.63383]],[[326.02593,227.14194],[-0.45063,1.73069],[0.339,-1.30197]],[[328.49653,223.95029],[-0.78867,1.08997],[0.95411,-1.3186]],[[331.823,220.05886],[-1.24595,1.23403],[0.03258,-0.01218]],[[331.92049,220.02181],[-0.03242,0.01252],[0.00544,-0.51826]],[332.31327,219.11621]],&quot;closed&quot;:true,&quot;fillColor&quot;:[0,0,0,1]}]}" fill="#fff69c" stroke="none" stroke-width="0.5"/><path d="M385.83518,207.42639c0.12735,-0.47751 0.09015,-1.05379 0.04823,-1.62641c0.25321,-0.46102 0.43893,-0.78389 0.44091,-0.78975c1.2178,-3.59749 2.32696,-8.25252 1.30408,-12.11972c0.03323,-0.15214 0.03891,-0.32898 0.00469,-0.53431l-0.00002,0.00001c-0.06907,-0.41441 -0.25649,-0.6664 -0.47188,-0.81823c-0.10373,-0.24015 -0.21986,-0.47546 -0.34508,-0.70506c0,0 -0.62916,-1.08696 -1.71447,-0.46679c-0.2739,0.15651 -0.44091,0.34212 -0.53494,0.53296c-0.13094,0.02837 -0.21493,0.06273 -0.21493,0.06273c-0.11985,0.05031 -0.24071,0.09857 -0.36,0.14576c0.09334,-2.26797 0.29826,-4.55385 0.29826,-6.54081c0,-5.07852 -1.31369,-9.75959 -1.76587,-14.77087c-0.23346,-2.58729 -0.03596,-4.94782 -0.53018,-7.53337c-0.36837,-3.11242 -1.70012,-5.83322 -2.12343,-8.95109c-0.09092,-0.66968 -0.59426,-1.44675 -0.22797,-2.0147c0.1395,-0.2163 0.5289,0.07012 0.77326,-0.01071c2.3058,-0.76272 5.6476,-0.96385 6.9237,1.75279c0.80393,1.71145 1.90531,4.32505 2.02749,6.21895c0.06781,1.05105 -0.74289,2.03829 -0.66666,3.08877c0.22987,3.16809 0.89339,6.04682 0.89339,9.27818c0,2.21186 -0.47266,5.00811 -0.17157,7.1541c0.38753,2.76201 2.47825,5.01719 3.80611,7.43447c-0.11591,0.14992 -0.71264,1.00516 0.14932,1.74398c0.25372,0.21747 0.49911,0.3078 0.7205,0.32515c0.08118,0.29156 0.14282,0.59031 0.18486,0.89453c0.45298,3.27825 -0.12797,6.71403 0.4339,10.01033c0.60025,3.52142 2.34749,4.92049 -0.01184,8.16467c-1.92593,2.50496 -7.77984,6.40845 -9.96518,2.26457c0.15631,-0.64627 0.80949,-1.11841 1.09531,-2.19013z" data-paper-data="{&quot;noHover&quot;:false,&quot;origItem&quot;:[&quot;Path&quot;,{&quot;applyMatrix&quot;:true,&quot;segments&quot;:[[[385.83162,207.47625],[0,0],[-0.28582,1.07172]],[[384.74503,209.56677],[0.15631,-0.64627],[2.18534,4.14388]],[[394.69215,207.30362],[-1.92593,2.50496],[2.35933,-3.24418]],[[394.6988,199.14064],[0.60025,3.52142],[-0.56187,-3.2963]],[[394.25138,189.13817],[0.45298,3.27825],[-0.04204,-0.30422]],[[394.06485,188.24507],[0.08118,0.29156],[-0.22139,-0.01735]],[[393.34572,187.91874],[0.25372,0.21747],[-0.86196,-0.73882]],[[393.19157,186.17933],[-0.11591,0.14992],[-1.32786,-2.41728]],[[389.39255,178.81907],[0.38753,2.76201],[-0.30109,-2.14599]],[[389.584,171.67374],[0,2.21186],[0,-3.23136]],[[388.69772,162.39645],[0.22987,3.16809],[-0.07623,-1.05048]],[[389.36324,159.30761],[0.06781,1.05105],[-0.12218,-1.8939]],[[387.34019,153.0888],[0.80393,1.71145],[-1.2761,-2.71664]],[[380.42771,151.33458],[2.3058,-0.76272],[-0.24436,0.08083]],[[379.65563,151.34499],[0.1395,-0.2163],[-0.36629,0.56795]],[[379.88411,153.35955],[-0.09092,-0.66968],[0.42331,3.11787]],[[382.00848,162.31037],[-0.36837,-3.11242],[0.49422,2.58555]],[[382.54498,169.84135],[-0.23346,-2.58729],[0.45218,5.01128]],[[384.32518,184.5312],[0,-5.07852],[0,1.98696]],[[384.00919,191.0607],[0.09334,-2.26797],[0.11929,-0.04719]],[[384.36789,190.91448],[-0.11985,0.05031],[0,0]],[[384.58197,190.85147],[-0.13094,0.02837],[0.09403,-0.19084]],[[385.11518,190.31799],[-0.2739,0.15651],[1.08531,-0.62017]],[[386.82066,190.78312],[0,0],[0.12522,0.2296]],[[387.16379,191.48804],[-0.10373,-0.24015],[0.21539,0.15183]],[[387.63339,192.3062],[-0.06907,-0.41441],[0,0]],[[387.63341,192.30619],[0,0],[0.03422,0.20533]],[[387.62873,192.8405],[0.03323,-0.15214],[1.02288,3.8672]],[[386.32143,205.06014],[1.2178,-3.59749],[-0.00198,0.00586]],[[385.87972,205.84984],[0.25321,-0.46102],[0.04192,0.57262]],[[385.83163,207.47626],[0.12735,-0.47751],[0,0]]],&quot;closed&quot;:true,&quot;fillColor&quot;:[0,0,0,1],&quot;strokeWidth&quot;:0.5}]}" fill="#fdfff4" stroke="none" stroke-width="0.25"/><path d="M196.75799,263.64177v-167.28349h246.48409v167.28349z" fill="none" stroke="#000000" stroke-width="0"/></g></g></svg>