<svg version="1.1" xmlns="http://www.w3.org/2000/svg" xmlns:xlink="http://www.w3.org/1999/xlink" width="246.48409" height="167.28349" viewBox="0,0,246.48409,167.28349"><g transform="translate(-196.75798,-96.35827)"><g data-paper-data="{&quot;isPaintingLayer&quot;:true}" fill-rule="nonzero" stroke-linecap="butt" stroke-linejoin="miter" stroke-miterlimit="10" stroke-dasharray="" stroke-dashoffset="0" style="mix-blend-mode: normal"><path d="M382.19446,156.34262c0.16151,-0.02058 0.34694,-0.00812 0.55912,0.0525c1.2019,0.3434 0.8585,1.54531 0.8585,1.54531c-0.66529,2.14197 0.24841,3.78053 0.48553,5.96376c0.38523,3.54689 1.45653,6.56017 2.19578,10.06069c0.13417,0.63533 0.40847,3.69008 1.11087,4.16008c1.5719,1.0518 5.05087,2.79579 6.94622,1.6775c0.94308,-2.06453 2.37244,-8.24142 1.39079,-10.48886c-0.3225,-0.73835 -2.88791,-0.21629 -3.45155,-0.7494c-2.13186,-2.01638 -3.02745,-6.69581 -4.06281,-9.34011c-0.2879,-0.73529 -1.61745,-0.62513 -1.95382,-1.33954c-0.92269,-1.95965 0.019,-3.16599 -0.03669,-4.99229c-0.0109,-0.35738 -0.67629,0.25415 -0.96977,0.45838c-0.94545,0.65792 -1.89352,1.3247 -2.73818,2.10783c-0.16246,0.31312 -0.26733,0.60246 -0.334,0.88415zM380.80945,160.0741c-0.0427,-0.01696 -0.06669,-0.02895 -0.06669,-0.02895l-1.13434,-1.33971c0,-1.97398 0.01361,-2.90695 0.91004,-4.73353c1.45311,-1.40742 5.81191,-5.79039 7.81943,-2.43379c0.83577,1.39741 -0.69544,3.39561 -0.03669,4.88467c0.14621,0.3305 0.78439,-0.0449 1.06966,0.17698c0.48868,0.3801 0.818,0.94751 1.09064,1.50334c1.24908,2.54649 1.63377,6.18464 3.35044,8.47797c0.46204,0.61724 1.60693,-0.27645 2.31281,0.03371c0.69578,0.30573 1.35568,0.79839 1.77277,1.43369c0.51268,0.78091 0.44315,3.61173 0.3892,4.28369c-0.24273,3.02321 -0.71236,6.49774 -2.10194,9.16892c-3.10765,1.87421 -7.54747,0.89529 -10.34485,-1.42602c-1.46278,-1.21384 -1.63682,-3.89822 -1.99265,-5.59385c-0.94597,-4.50778 -3.17955,-9.62386 -3.03784,-14.40712z" fill="#000000" stroke="none" stroke-width="0.5"/><path d="M382.1662,156.30137c0.06667,-0.28169 0.17408,-0.57266 0.33654,-0.88578c0.84466,-0.78313 1.80431,-1.45499 2.74976,-2.11291c0.29348,-0.20423 0.98343,-0.7189 0.99433,-0.36152c0.05569,1.8263 -0.91223,2.9363 0.01046,4.89595c0.33637,0.71441 1.67552,0.60207 1.96342,1.33736c1.03536,2.6443 1.97883,7.40096 4.11069,9.41734c0.56364,0.53311 3.1333,0.00318 3.4558,0.74153c0.98165,2.24744 -0.47542,8.45114 -1.4185,10.51567c-1.89535,1.11829 -5.39988,-0.6228 -6.97178,-1.6746c-0.7024,-0.47 -0.98708,-3.52745 -1.12125,-4.16278c-0.73925,-3.50052 -1.83737,-6.58327 -2.2226,-10.13016c-0.23712,-2.18323 -1.13344,-3.84105 -0.46815,-5.98302c0,0 0.39731,-1.11768 -0.80459,-1.46108c-0.21218,-0.06062 -0.3961,-0.07408 -0.55761,-0.0535z" data-paper-data="{&quot;noHover&quot;:false,&quot;origItem&quot;:[&quot;Path&quot;,{&quot;applyMatrix&quot;:true,&quot;segments&quot;:[[[382.19446,156.34262],[0,0],[0.16151,-0.02058]],[[382.75358,156.39512],[-0.21218,-0.06062],[1.2019,0.3434]],[[383.61208,157.94043],[0,0],[-0.66529,2.14197]],[[384.09761,163.90419],[-0.23712,-2.18323],[0.38523,3.54689]],[[386.29339,173.96488],[-0.73925,-3.50052],[0.13417,0.63533]],[[387.40426,178.12496],[-0.7024,-0.47],[1.5719,1.0518]],[[394.35048,179.80246],[-1.89535,1.11829],[0.94308,-2.06453]],[[395.74127,169.3136],[0.98165,2.24744],[-0.3225,-0.73835]],[[392.28972,168.5642],[0.56364,0.53311],[-2.13186,-2.01638]],[[388.22691,159.22409],[1.03536,2.6443],[-0.2879,-0.73529]],[[386.27309,157.88455],[0.33637,0.71441],[-0.92269,-1.95965]],[[386.2364,152.89226],[0.05569,1.8263],[-0.0109,-0.35738]],[[385.26663,153.35064],[0.29348,-0.20423],[-0.94545,0.65792]],[[382.52845,155.45847],[0.84466,-0.78313],[-0.16246,0.31312]],[[382.19445,156.34262],[0.06667,-0.28169],[0,0]]],&quot;closed&quot;:true,&quot;fillColor&quot;:[0,0,0,1],&quot;strokeWidth&quot;:0.5}]}" fill="#fdfff4" stroke="none" stroke-width="0.25"/><path d="M385.84539,192.52349c5.23166,-0.02712 10.55407,-0.75634 15.69157,-0.48438c1.63214,0.0864 3.17376,0.78332 4.76673,1.14907c3.24995,0.74621 6.68185,0.61679 10.00213,0.63896c1.74103,0.56985 4.45674,1.22405 5.50257,2.99027c1.46949,2.48171 1.92493,9.40967 -1.67755,10.70414c-1.85608,0.66694 -4.48287,0.46203 -6.50781,1.13807c-6.37819,2.1294 -12.6633,4.72077 -19.46378,4.72077c-4.12365,0 -8.87337,1.12344 -12.92649,0.18741c-3.612,-0.83416 -7.57316,-2.02551 -10.92687,-3.56691c-2.23818,-1.02869 -5.01723,-2.80405 -7.47046,-3.12961l-0.60099,0.60099c-0.22621,0.22621 -0.53871,0.36612 -0.88388,0.36612c-0.65803,0 -1.19731,-0.50847 -1.24636,-1.15394l-0.21551,-2.47838l0.2069,-0.01799c-0.51584,-3.1312 -0.46636,-6.56942 1.31587,-9.14411c1.4166,-2.04649 5.06918,-2.77594 7.35306,-3.00032c2.10713,-0.20702 4.00463,0.38786 5.92185,1.19747c0.87965,0.37146 1.03154,0.84211 1.96493,0.58885c0.40369,-0.10954 0.7962,-0.23923 1.18115,-0.38228c-0.00811,-0.11051 -0.00273,-0.23203 0.01953,-0.36562c0.2055,-1.23299 1.43849,-1.02749 1.43849,-1.02749c0.4347,0.07398 0.87091,0.13766 1.30845,0.19209c1.21624,-0.55126 2.44742,-1.06546 3.82256,-1.30049zM380.97609,194.79283c-1.25215,0.59671 -2.49848,1.21135 -3.89104,1.49922c-2.29103,0.4736 -4.22044,-1.38914 -6.40248,-1.77063c-1.1527,-0.20153 -2.64194,0.16881 -3.71718,0.42431c-0.93051,0.22111 -2.87383,0.51935 -3.45893,1.46239c-1.3777,2.22052 -0.87283,5.13646 -1.32315,7.59841l0.19597,-0.01704l0.04873,0.56036c4.01903,0.16488 7.27498,2.92129 11.06236,4.17638c3.05922,1.01378 6.86442,2.40758 10.09734,2.59943c3.46884,0.20585 7.07117,-0.44527 10.57153,-0.44527c8.5933,0 16.66087,-4.40462 25.01488,-5.66854c0.76551,-0.11582 1.22484,-2.55154 1.22418,-3.32061c-0.00311,-3.62198 -1.3644,-4.52858 -4.49294,-5.59638c-3.38069,0.02706 -6.84933,0.08532 -10.15934,-0.66967c-1.45216,-0.33123 -2.84575,-1.01993 -4.3336,-1.08918c-6.7172,-0.31266 -13.6981,0.91876 -20.43633,0.25682z" fill="#000000" stroke="none" stroke-width="0.5"/><path d="M401.45094,194.50413c1.48785,0.06925 2.88757,0.76732 4.33973,1.09855c3.31001,0.75499 6.78229,0.70626 10.16298,0.6792c3.12854,1.0678 4.49151,1.98563 4.49462,5.60761c0.00066,0.76907 -0.45881,3.21065 -1.22432,3.32647c-8.35401,1.26392 -16.45447,5.71148 -25.04777,5.71148c-3.50036,0 -7.1534,0.64095 -10.62224,0.4351c-3.23292,-0.19185 -7.05188,-1.607 -10.1111,-2.62078c-3.78738,-1.25509 -7.04572,-4.02419 -11.06475,-4.18907l-0.04878,-0.56133l-0.19597,0.01706c0.45032,-2.46195 -0.05327,-5.39116 1.32443,-7.61168c0.5851,-0.94304 2.52959,-1.24545 3.4601,-1.46656c1.07524,-0.2555 2.56569,-0.62913 3.71839,-0.4276c2.18204,0.38149 4.11244,2.24196 6.40347,1.76836c1.39256,-0.28787 2.64492,-0.91232 3.89707,-1.50903c6.73823,0.66194 13.79693,-0.57043 20.51413,-0.25777z" data-paper-data="{&quot;noHover&quot;:false,&quot;origItem&quot;:[&quot;Path&quot;,{&quot;applyMatrix&quot;:true,&quot;segments&quot;:[[[380.97609,194.79283],[6.73823,0.66194],[-1.25215,0.59671]],[[377.08505,196.29205],[1.39256,-0.28787],[-2.29103,0.4736]],[[370.68257,194.52142],[2.18204,0.38149],[-1.1527,-0.20153]],[[366.96539,194.94573],[1.07524,-0.2555],[-0.93051,0.22111]],[[363.50646,196.40812],[0.5851,-0.94304],[-1.3777,2.22052]],[[362.18331,204.00653],[0.45032,-2.46195],[0,0]],[362.37928,203.98949],[[362.42801,204.54985],[0,0],[4.01903,0.16488]],[[373.49037,208.72623],[-3.78738,-1.25509],[3.05922,1.01378]],[[383.58771,211.32566],[-3.23292,-0.19185],[3.46884,0.20585]],[[394.15924,210.88039],[-3.50036,0],[8.5933,0]],[[419.17412,205.21185],[-8.35401,1.26392],[0.76551,-0.11582]],[[420.3983,201.89124],[0.00066,0.76907],[-0.00311,-3.62198]],[[415.90536,196.29486],[3.12854,1.0678],[-3.38069,0.02706]],[[405.74602,195.62519],[3.31001,0.75499],[-1.45216,-0.33123]],[[401.41242,194.53601],[1.48785,0.06925],[-6.7172,-0.31266]]],&quot;closed&quot;:true,&quot;fillColor&quot;:[0,0,0,1]}]}" fill="#fff69c" stroke="none" stroke-width="0.5"/><path d="M396.67517,224.92509c0.23774,0.71321 -0.09645,1.14045 -0.40061,1.36773c3.49349,0.66056 6.80993,1.83184 10.34353,3.61359c2.0089,1.01295 5.07348,1.887 3.75105,5.02519c-1.49116,3.53858 -7.54294,4.01209 -10.61049,4.90805c-7.08606,1.17143 -12.73843,-1.0883 -19.27751,-3.13027c-2.17649,-0.67966 -6.09979,-1.33117 -7.82206,-2.96799c-4.14595,-3.94025 -1.17023,-9.49347 3.61798,-11.16694c3.30696,-0.89782 7.45379,0.53546 10.71775,1.55278c1.04503,0.32572 1.85333,1.2491 2.91669,1.5088c0.00409,0.001 0.0082,0.00198 0.01232,0.00294c0.20073,0.00526 0.40034,0.01176 0.59889,0.01951c1.03274,-0.11277 2.46045,-0.81975 3.24124,-1.0806l1.33008,-0.44336c0,0 1.18585,-0.39528 1.58114,0.79057zM387.51062,227.50803c-3.38923,-1.26763 -7.00267,-3.61387 -10.4947,-2.54526c-3.12438,0.96735 -5.98615,5.94706 -1.68972,7.3948c7.78832,2.62438 15.46057,6.4623 23.87428,5.04517c3.01273,-0.88694 6.71238,-1.07576 8.89738,-3.5158c0.55977,-0.62511 -4.39433,-2.7739 -4.71988,-2.91121c-4.4517,-1.8776 -8.38631,-2.67035 -12.98201,-2.82475c-0.24844,0.0167 -0.48761,0.01241 -0.71273,-0.01878c-0.35109,-0.00678 -0.70625,-0.01007 -1.06601,-0.01007c0,0 -0.77827,0 -1.10661,-0.6141z" fill="#000000" stroke="none" stroke-width="0.5"/><path d="M388.58972,228.08038c0.35976,0 0.72747,-0.00267 1.07856,0.00411c0.22512,0.03119 0.47518,0.03336 0.72362,0.01666c4.5957,0.1544 8.58437,0.99611 13.03607,2.87371c0.32555,0.13731 5.27908,2.29459 4.71931,2.9197c-2.185,2.44004 -5.89359,2.6506 -8.90632,3.53754c-8.41371,1.41713 -16.1763,-2.44637 -23.96462,-5.07075c-4.29643,-1.44774 -1.43027,-6.45203 1.69411,-7.41938c3.49203,-1.06861 7.11858,1.26032 10.50781,2.52795c0.32834,0.6141 1.11146,0.61046 1.11146,0.61046z" data-paper-data="{&quot;noHover&quot;:false,&quot;origItem&quot;:[&quot;Path&quot;,{&quot;applyMatrix&quot;:true,&quot;segments&quot;:[[[387.51062,227.50803],[0.32834,0.6141],[-3.38923,-1.26763]],[[377.01592,224.96277],[3.49203,-1.06861],[-3.12438,0.96735]],[[375.3262,232.35757],[-4.29643,-1.44774],[7.78832,2.62438]],[[399.20048,237.40274],[-8.41371,1.41713],[3.01273,-0.88694]],[[408.09786,233.88694],[-2.185,2.44004],[0.55977,-0.62511]],[[403.37798,230.97573],[0.32555,0.13731],[-4.4517,-1.8776]],[[390.39597,228.15098],[4.5957,0.1544],[-0.24844,0.0167]],[[389.68324,228.1322],[0.22512,0.03119],[-0.35109,-0.00678]],[[388.61723,228.12213],[0.35976,0],[0,0]]],&quot;closed&quot;:true,&quot;fillColor&quot;:[0,0,0,1]}]}" fill="#fff69c" stroke="none" stroke-width="0.5"/><path d="M196.75799,263.64177v-167.28349h246.48409v167.28349z" fill="none" stroke="#000000" stroke-width="0"/></g></g></svg>