<svg version="1.1" xmlns="http://www.w3.org/2000/svg" xmlns:xlink="http://www.w3.org/1999/xlink" width="2878.25006" height="1619.57958" viewBox="0,0,2878.25006,1619.57958"><g transform="translate(1117.37278,629.80931)"><g data-paper-data="{&quot;isPaintingLayer&quot;:true}" fill-rule="nonzero" stroke-linejoin="miter" stroke-miterlimit="10" stroke-dasharray="" stroke-dashoffset="0" style="mix-blend-mode: normal"><path d="M390.44366,188.01796c0.92316,1.5386 -0.61544,2.46176 -0.61544,2.46176l-3.16803,1.11764c-3.15421,-5.48353 -5.14204,-10.67052 -6.84862,-16.75016c-1.28362,-1.37461 -2.54421,-2.76996 -3.6983,-4.29753c0,0 -1.07658,-1.43544 0.35887,-2.51203c1.43544,-1.07658 2.51203,0.35887 2.51203,0.35887c0.1176,0.15813 0.2366,0.31477 0.35686,0.47008c0.136,-0.23467 0.3071,-0.46003 0.51926,-0.67333c0.87153,-0.87627 2.40219,-0.58621 3.61516,-0.82305c3.49961,-0.68333 7.022,-0.80232 10.57393,-0.98867c11.19641,-0.00352 22.75713,-0.30784 33.80081,-2.24396c1.97112,-0.34557 3.97352,-0.58727 5.88934,-1.16552c3.22272,-0.97272 4.45584,-3.01927 7.9596,-2.01913c5.14573,1.46884 8.19536,4.97183 12.37591,7.95638c7.80186,3.97539 14.13693,10.35029 19.8886,16.863c4.7285,5.35417 9.94932,10.45847 14.47095,16.01656c2.97979,3.66284 5.12759,8.00416 8.42751,11.42907c1.27132,1.31948 2.73909,2.4528 3.91829,3.85521c1.54365,1.84551 3.21146,3.58695 4.71302,5.46687c1.32244,1.65567 1.031,2.552 3.382,2.91031c1.77485,0.27049 3.47685,-0.90146 5.23257,-1.27659c3.51145,-0.75027 7.20346,-1.32796 10.73612,-1.95253c10.87808,-1.92322 21.70251,-3.29637 31.93113,1.76386c3.92768,1.7678 7.8932,3.6676 12.07375,4.76462c1.85142,0.48584 4.08317,0.45482 5.835,1.43174c4.86783,2.71459 9.58227,6.47211 12.95261,10.92315c1.46487,1.93457 1.32962,4.1068 2.16987,6.25585c2.94941,7.54341 4.70661,15.32595 4.62981,23.42203c-0.46861,5.64473 -0.16583,12.18588 -2.80977,17.3728c-1.42657,2.79867 -5.21652,5.50303 -7.73068,7.10494c-3.68787,2.34976 -7.60796,4.61458 -11.87899,5.73693c-7.40289,1.94534 -15.56013,1.03051 -23.13008,1.03051c-9.31971,0 -18.67996,-0.74415 -28.00493,-1.29971c-4.53258,-0.27004 -9.11172,0.25684 -13.64554,-0.0009c-4.35352,-0.24749 -8.57052,-1.41787 -12.96076,-1.62144c-3.99783,-0.18539 -8.17135,0.20071 -12.16688,0.4408c-4.46921,0.26251 -8.82018,1.22746 -13.29534,1.5056c-5.0582,0.31439 -10.23344,0.00223 -15.3004,0.00223c-3.12512,0 -8.21591,1.15641 -10.56734,-1.70171c-1.41225,-1.71654 -0.78337,-5.71447 -1.28244,-7.81852c-1.16088,-4.89433 -2.27192,-9.75717 -3.51183,-14.64021c-1.50525,-7.55731 -4.07595,-14.80484 -6.18199,-22.19805c-1.39391,-4.89333 -4.30107,-9.43582 -6.1284,-14.17169c-2.37127,-6.14555 -3.57461,-12.96925 -6.09709,-18.98876c-0.98904,-2.3602 -3.46982,-5.09522 -4.9581,-7.20047c-5.73541,-8.28473 -13.15213,-15.13745 -20.3452,-22.18773c-3.48732,-3.4181 -6.20052,-7.44807 -9.22227,-11.22863c0.30984,1.057 0.65956,2.0904 1.09887,3.05485c0.60982,1.33881 1.74471,2.11136 1.74891,3.38444c0.33357,-0.16504 1.58337,-0.6635 2.37761,0.66023z" data-paper-data="{&quot;index&quot;:null}" fill="#5c5e02" stroke="none" stroke-width="0.5" stroke-linecap="butt"/><path d="M238.55583,186.13347c0.79424,-1.32373 2.04404,-0.82527 2.37761,-0.66023c0.0042,-1.27308 1.13908,-2.04563 1.74891,-3.38444c0.43931,-0.96445 0.78903,-1.99785 1.09887,-3.05485c-3.02175,3.78056 -5.73495,7.81053 -9.22227,11.22863c-7.19307,7.05028 -14.60979,13.903 -20.3452,22.18773c-1.48828,2.10525 -3.96907,4.84027 -4.95811,7.20047c-2.52248,6.01951 -3.72583,12.84321 -6.09709,18.98876c-1.82733,4.73587 -4.73449,9.27836 -6.1284,14.17169c-2.10604,7.39321 -4.67673,14.64075 -6.18199,22.19805c-1.23991,4.88304 -2.35095,9.74588 -3.51183,14.64021c-0.49907,2.10405 0.12981,6.10197 -1.28244,7.81852c-2.35143,2.85812 -7.44221,1.70171 -10.56733,1.70171c-5.06696,0 -10.2422,0.31216 -15.3004,-0.00223c-4.47516,-0.27815 -8.82612,-1.24309 -13.29533,-1.5056c-3.99553,-0.24009 -8.16905,-0.62619 -12.16688,-0.4408c-4.39024,0.20357 -8.60724,1.37395 -12.96076,1.62144c-4.53381,0.25775 -9.11296,-0.26913 -13.64553,0.00091c-9.32497,0.55556 -18.68523,1.29971 -28.00493,1.29971c-7.56995,0 -15.72719,0.91484 -23.13008,-1.03051c-4.27103,-1.12235 -8.19112,-3.38717 -11.87899,-5.73693c-2.51416,-1.60191 -6.30411,-4.30627 -7.73068,-7.10493c-2.64395,-5.18692 -2.34116,-11.72807 -2.80977,-17.3728c-0.0768,-8.09608 1.6804,-15.87861 4.62981,-23.42203c0.84025,-2.14905 0.705,-4.32128 2.16987,-6.25585c3.37035,-4.45104 8.08479,-8.20856 12.95261,-10.92315c1.75183,-0.97692 3.98357,-0.94591 5.835,-1.43175c4.18055,-1.09701 8.14607,-2.99681 12.07375,-4.76461c10.22863,-5.06024 21.05305,-3.68708 31.93113,-1.76387c3.53267,0.62457 7.22467,1.20227 10.73612,1.95253c1.75572,0.37513 3.45772,1.54708 5.23257,1.27659c2.351,-0.35831 2.05956,-1.25464 3.382,-2.91031c1.50156,-1.87992 3.16936,-3.62136 4.71301,-5.46687c1.1792,-1.40241 2.64697,-2.53573 3.91829,-3.85521c3.29992,-3.42491 5.44772,-7.76623 8.42751,-11.42907c4.52163,-5.55809 9.74245,-10.66239 14.47095,-16.01656c5.75167,-6.51271 12.08675,-12.88761 19.8886,-16.863c4.18055,-2.98455 7.23017,-6.48753 12.37591,-7.95637c3.50376,-1.00013 4.73688,1.04641 7.9596,2.01913c1.91583,0.57825 3.91823,0.81995 5.88935,1.16552c11.04368,1.93612 22.6044,2.24044 33.80081,2.24396c3.55193,0.18635 7.07432,0.30533 10.57393,0.98867c1.21297,0.23684 2.74363,-0.05321 3.61516,0.82305c0.21216,0.21331 0.38327,0.43867 0.51927,0.67333c0.12025,-0.15531 0.23925,-0.31195 0.35685,-0.47008c0,0 1.07659,-1.43544 2.51203,-0.35887c1.43544,1.07659 0.35887,2.51203 0.35887,2.51203c-1.15408,1.52757 -2.41467,2.92292 -3.69829,4.29753c-1.70659,6.07964 -3.69441,11.26663 -6.84863,16.75016l-3.16803,-1.11764c0,0 -1.5386,-0.92316 -0.61544,-2.46176z" fill="#5c5e02" stroke="none" stroke-width="0.5" stroke-linecap="butt"/><path d="M-1117.37278,989.77027v-1619.57958h2878.25006v1619.57958z" fill="none" stroke="#000000" stroke-width="0" stroke-linecap="butt"/><g><path d="M172.09422,89.04277l402.27275,-38.91122l-2.97461,6.59075l-395.19213,36.95834z" data-paper-data="{&quot;index&quot;:null}" fill="#9c938b" stroke="#000000" stroke-width="0" stroke-linecap="round"/><g><path d="M-33.26996,230.59784l-4.05056,-59.79991l229.89234,-16.25006l-2.68679,-61.64804l365.42866,-35.43517l8.96625,137.80154l-361.69928,17.43734l-13.4777,5.36057z" data-paper-data="{&quot;index&quot;:null}" fill="#5c5e02" stroke="#000000" stroke-width="0" stroke-linecap="round"/><path d="M-20.92269,230.29622l-3.7009,-52.99879l108.31145,-7.90851l3.79149,54.43666z" data-paper-data="{&quot;index&quot;:null}" fill="#7d8096" stroke="#000000" stroke-width="0" stroke-linecap="round"/><path d="M84.95349,183.74498l-99.26962,5.35376l-0.70077,-8.25642l99.7069,-7.00535z" data-paper-data="{&quot;index&quot;:null}" fill="#ff0000" stroke="#000000" stroke-width="0" stroke-linecap="round"/><path d="M171.55504,155.13248l2.08425,25.84216l-45.66127,3.33325l-1.04429,-26.21147z" data-paper-data="{&quot;index&quot;:null}" fill="#b3b2ad" stroke="#000000" stroke-width="0" stroke-linecap="round"/><path d="M169.52458,178.34799l-38.70189,2.89468l-0.6343,-19.70596l38.5792,-2.43127z" data-paper-data="{&quot;index&quot;:null}" fill="#ff0000" stroke="#000000" stroke-width="0" stroke-linecap="round"/><path d="M171.08334,157.28867l9.78623,-1.37619l1.16573,23.31789l-8.79395,0.25041z" data-paper-data="{&quot;index&quot;:null}" fill="#121a31" stroke="#000000" stroke-width="0" stroke-linecap="round"/><path d="M128.05303,183.08803l-8.16971,0.51485l-1.44922,-22.99623l8.63312,-0.39217z" data-paper-data="{&quot;index&quot;:null}" fill="#121a31" stroke="#000000" stroke-width="0" stroke-linecap="round"/><path d="M192.00791,218.16971l-2.97724,-52.06317l9.31455,0.78002l2.77577,46.45587z" data-paper-data="{&quot;index&quot;:null}" fill="#ff0000" stroke="#000000" stroke-width="0" stroke-linecap="round"/><path d="M262.32491,151.69051l2.47756,30.44484l-56.00807,4.06651l-1.20103,-30.88319z" data-paper-data="{&quot;index&quot;:null}" fill="#b3b2ad" stroke="#000000" stroke-width="0" stroke-linecap="round"/><path d="M259.8894,179.92115l-48.36644,3.61999l-0.79935,-24.73245l48.21327,-3.03841z" data-paper-data="{&quot;index&quot;:null}" fill="#ff0000" stroke="#000000" stroke-width="0" stroke-linecap="round"/><path d="M261.76447,154.23117l11.77785,-1.637l1.36576,27.47269l-10.58206,0.30897z" data-paper-data="{&quot;index&quot;:null}" fill="#121a31" stroke="#000000" stroke-width="0" stroke-linecap="round"/><path d="M208.65569,184.77895l-8.5414,0.53829l-1.70743,-27.09327l9.02714,-0.38994z" data-paper-data="{&quot;index&quot;:null}" fill="#121a31" stroke="#000000" stroke-width="0" stroke-linecap="round"/><path d="M349.27124,146.26618l80.63468,-5.51937l2.32281,29.912l-82.23339,5.62011l-1.11552,-31.59312z" data-paper-data="{&quot;index&quot;:null}" fill="#121a31" stroke="#000000" stroke-width="0" stroke-linecap="round"/><path d="M420.8767,141.024l1.36955,30.99346l-63.48489,4.43858l-1.38787,-31.28414z" data-paper-data="{&quot;index&quot;:null}" fill="#b3b2ad" stroke="#000000" stroke-width="0" stroke-linecap="round"/><path d="M359.70925,147.50526l58.90736,-2.98278l-0.15949,25.25324l-56.99051,3.29972z" data-paper-data="{&quot;index&quot;:null}" fill="#ff0000" stroke="#000000" stroke-width="0" stroke-linecap="round"/><path d="M461.57444,138.45922l85.90765,-5.85167l2.3513,29.91021l-87.61086,5.959l-1.05851,-31.59671z" data-paper-data="{&quot;index&quot;:null}" fill="#121a31" stroke="#000000" stroke-width="0" stroke-linecap="round"/><path d="M537.86383,132.92188l1.33155,30.99586l-67.63673,4.70023l-1.34989,-31.28653z" data-paper-data="{&quot;index&quot;:null}" fill="#b3b2ad" stroke="#000000" stroke-width="0" stroke-linecap="round"/><path d="M472.68701,139.65579l62.75521,-3.22527l-0.27353,25.26043l-60.71483,3.53444z" data-paper-data="{&quot;index&quot;:null}" fill="#ff0000" stroke="#000000" stroke-width="0" stroke-linecap="round"/><path d="M457.92302,68.94224l85.90765,-5.85167l2.35131,29.91018l-87.61088,5.95901l-1.0585,-31.59673z" data-paper-data="{&quot;index&quot;:null}" fill="#121a31" stroke="#000000" stroke-width="0" stroke-linecap="round"/><path d="M534.21241,63.40489l1.33155,30.99586l-67.63674,4.70024l-1.34989,-31.28653z" data-paper-data="{&quot;index&quot;:null}" fill="#b3b2ad" stroke="#000000" stroke-width="0" stroke-linecap="round"/><path d="M469.03559,70.1388l62.7552,-3.22528l-0.27351,25.26043l-60.71484,3.53444z" data-paper-data="{&quot;index&quot;:null}" fill="#ff0000" stroke="#000000" stroke-width="0" stroke-linecap="round"/><path d="M344.51642,78.92068l80.63616,-5.4958l2.22082,28.29363l-82.23488,5.59654l-1.00808,-29.88837z" data-paper-data="{&quot;index&quot;:null}" fill="#121a31" stroke="#000000" stroke-width="0" stroke-linecap="round"/><path d="M416.12436,73.71779l1.26409,29.32012l-63.48636,4.41501l-1.28144,-29.59507z" data-paper-data="{&quot;index&quot;:null}" fill="#b3b2ad" stroke="#000000" stroke-width="0" stroke-linecap="round"/><path d="M354.94799,80.05762l58.9049,-3.02208l-0.24514,23.89416l-56.98953,3.31544z" data-paper-data="{&quot;index&quot;:null}" fill="#ff0000" stroke="#000000" stroke-width="0" stroke-linecap="round"/><path d="M195.86756,93.99182l73.08443,-4.99688l2.08085,26.72312l-74.53343,5.0882l-0.98532,-28.22615z" data-paper-data="{&quot;index&quot;:null}" fill="#121a31" stroke="#000000" stroke-width="0" stroke-linecap="round"/><path d="M260.76847,89.24996l1.21604,27.69017l-57.54055,4.0173l-1.23241,-27.94983z" data-paper-data="{&quot;index&quot;:null}" fill="#b3b2ad" stroke="#000000" stroke-width="0" stroke-linecap="round"/><path d="M205.32661,95.09041l53.39072,-2.7129l-0.16511,22.56278l-51.65369,2.99451z" data-paper-data="{&quot;index&quot;:null}" fill="#ff0000" stroke="#000000" stroke-width="0" stroke-linecap="round"/><path d="M307.63748,207.43812l-4.39037,-58.08908l26.85991,-2.13047l4.27251,58.53426z" data-paper-data="{&quot;index&quot;:null}" fill="#b3b2ad" stroke="#000000" stroke-width="0" stroke-linecap="round"/><path d="M310.62425,203.89385l-3.15076,-49.99601l18.01266,-1.28108l3.82249,49.07818z" data-paper-data="{&quot;index&quot;:null}" fill="#ff0000" stroke="#000000" stroke-width="0" stroke-linecap="round"/><path d="M192.73099,154.50585l-247.41097,17.85189l-4.83309,-4.9687l511.04228,-37.29098l-0.61876,5.12396z" data-paper-data="{&quot;index&quot;:null}" fill="#b3b2ad" stroke="#000000" stroke-width="0" stroke-linecap="round"/><path d="M313.31295,86.48898c1.60904,-1.22979 3.1492,-3.70891 5.0736,-4.4577c5.18748,-2.01843 11.45686,-1.98434 16.90019,-1.31509c1.82268,0.22386 4.61349,0.51999 5.92333,2.02054c3.92907,4.50116 1.65834,12.34394 -1.34558,16.52984c-4.163,3.09802 -8.31823,4.39375 -13.25852,5.73007c-3.31791,0.89747 -5.41091,2.23916 -8.58083,0.27669c-4.60228,-4.07108 -8.81333,-8.17684 -7.60739,-15.06493c0.19867,-1.13473 1.15277,-2.48724 2.0165,-3.66798c0.42381,0.29585 0.8787,-0.05145 0.8787,-0.05145z" data-paper-data="{&quot;noHover&quot;:false,&quot;origItem&quot;:[&quot;Path&quot;,{&quot;applyMatrix&quot;:true,&quot;segments&quot;:[[[381.093,111.23071],[0.39438,0.31397],[-0.91317,1.09632]],[[378.90966,114.66562],[0.26298,-1.09233],[-1.59636,6.63075]],[[385.37387,129.74591],[-4.23004,-4.24502],[2.96515,2.1047]],[[393.71564,129.99155],[-3.28464,0.67005],[4.89075,-0.9977]],[[406.92449,125.25297],[-4.24222,2.76018],[3.18072,-3.8902]],[[409.24982,109.29671],[3.54836,4.62235],[-1.18292,-1.54095]],[[403.61982,106.9794],[1.76042,0.32971],[-5.25735,-0.98533]],[[387.14724,107.22467],[5.1732,-1.64649],[-1.91912,0.6108]],[[381.95082,111.23571],[1.64165,-1.09836],[0,0]]],&quot;closed&quot;:true}]}" fill="#00898e" stroke="#000000" stroke-width="1.5" stroke-linecap="butt"/><path d="M276.31511,87.48026c5.86981,-2.91228 14.35361,-1.9762 20.57783,-0.85153c2.66465,0.97586 5.29687,2.17599 7.15579,4.38627c3.03947,3.61397 0.11816,11.18519 -2.31163,14.38747c-0.84328,1.11052 -1.9823,2.65354 -3.24327,3.7757c-2.16434,0.37198 -4.33116,0.82432 -6.48003,1.34902c-0.92041,-0.1726 -1.81875,-0.39728 -2.58788,-0.57612c-3.30284,-0.76792 -6.7433,-1.48781 -9.92165,-2.69899c-4.97227,-1.62023 -9.06598,-7.09223 -7.83504,-12.52625c0.47969,-2.11765 2.03892,-4.54294 3.23806,-6.32461c0.2471,-0.29868 0.46298,-0.61647 0.67602,-0.92735c0.33865,0.20071 0.73181,0.00639 0.73181,0.00639z" data-paper-data="{&quot;noHover&quot;:false,&quot;origItem&quot;:[&quot;Path&quot;,{&quot;applyMatrix&quot;:true,&quot;segments&quot;:[[[345.15843,109.88918],[0.31731,0.21614],[-0.22644,0.28953]],[[344.44577,110.74777],[0.25884,-0.27557],[-1.27651,1.66068]],[[340.91537,116.6867],[0.59683,-2.03185],[-1.5315,5.21386]],[[347.76223,129.31396],[-4.74051,-1.8821],[3.01944,1.3739]],[[357.21644,132.53317],[-3.1678,-0.95008],[0.73768,0.22124]],[[359.69031,133.25378],[-0.88532,-0.22447],[2.12386,-0.37892]],[[366.06004,132.34779],[-2.12954,0.22931],[1.29624,-1.01493]],[[369.43745,128.88379],[-0.88895,1.02923],[2.56154,-2.96797]],[[372.56538,115.0659],[2.73686,3.70421],[-1.67385,-2.26548]],[[365.88388,110.37813],[2.53385,1.11335],[-5.98953,-1.47655]],[[345.86937,109.9413],[5.8922,-2.47469],[0,0]]],&quot;closed&quot;:true}]}" fill="#00898e" stroke="#000000" stroke-width="1.5" stroke-linecap="butt"/><path d="M299.00198,97.21831c-0.08013,-1.27156 0.88573,-2.36736 2.1573,-2.44749c1.27157,-0.08013 2.36735,0.88573 2.44749,2.1573c0.08013,1.27156 -0.88573,2.36736 -2.15729,2.44749c-1.27157,0.08013 -2.36736,-0.88573 -2.44749,-2.1573z" fill="#0bf6ff" stroke="none" stroke-width="0.5" stroke-linecap="butt"/><path d="M336.82901,90.90168c-0.08013,-1.27156 0.88573,-2.36736 2.15729,-2.44749c1.27157,-0.08013 2.36736,0.88573 2.44749,2.15729c0.08013,1.27156 -0.88573,2.36736 -2.1573,2.44749c-1.27157,0.08013 -2.36735,-0.88573 -2.44749,-2.15729z" fill="#0bf6ff" stroke="none" stroke-width="0.5" stroke-linecap="butt"/><path d="M265.88845,67.61908c0.19681,-0.74337 0.94018,-0.54657 0.94018,-0.54657l0.63448,0.16835c5.06671,1.18606 9.24495,3.48651 14.03968,5.5177c3.07445,1.30254 6.32662,2.20725 9.36541,3.5786c4.10946,1.85452 7.62214,4.85173 12.02989,6.01552c0,0 0.74336,0.1968 0.54656,0.94017c-0.1968,0.74337 -0.94017,0.54657 -0.94017,0.54657c-4.50463,-1.19566 -8.06952,-4.21152 -12.26808,-6.10004c-3.02983,-1.36283 -6.2695,-2.26676 -9.33353,-3.56467c-4.71533,-1.99755 -8.80819,-4.28445 -13.78816,-5.43585l-0.67971,-0.17959c0,0 -0.74337,-0.19681 -0.54657,-0.94018z" fill="#000000" stroke="none" stroke-width="0.5" stroke-linecap="butt"/><path d="M342.96302,59.31577c0.28857,0.71278 -0.42421,1.00136 -0.42421,1.00136l-0.40566,0.15782c-4.88871,1.30118 -7.87995,3.56756 -11.30993,7.27997c-4.72692,5.3599 -10.49058,8.91826 -16.676,12.30064c-1.73179,0.947 -3.15159,1.94169 -5.10062,2.42945c0,0 -0.74644,0.18488 -0.93132,-0.56157c-0.18487,-0.74644 0.56157,-0.93131 0.56157,-0.93131c1.81308,-0.44383 3.11524,-1.40103 4.72519,-2.28195c6.03472,-3.30205 11.66778,-6.75078 16.2794,-11.98563c3.62183,-3.9206 6.89259,-6.3593 12.05584,-7.73575l0.2244,-0.09726c0,0 0.71278,-0.28857 1.00135,0.42421z" fill="#000000" stroke="none" stroke-width="0.5" stroke-linecap="butt"/><path d="M285.61573,148.83899c-0.72474,0.19305 -0.91778,-0.53168 -0.91778,-0.53168l-0.1384,-0.54573c-0.61817,-4.88621 -1.51027,-9.51501 -1.82308,-14.4787c-0.37128,-5.89141 -4.88037,-14.7085 0.82323,-19.29871c1.39121,-1.11962 3.1298,-1.29144 4.78776,-1.78647c9.0871,-2.87736 19.86003,-0.33541 29.25023,-0.59121c4.39445,-0.25456 9.21663,-0.14878 13.57574,0.33565c1.77749,0.19754 3.51246,0.0097 5.1473,0.88342c3.43676,1.83675 5.20831,4.90499 6.84463,8.25194c2.6446,5.06558 3.28307,9.64786 3.9552,15.24482c0.2733,2.27593 1.02772,4.95749 0.3471,7.1609c0,0 -0.23419,0.7125 -0.94669,0.4783c-0.7125,-0.23419 -0.4783,-0.94669 -0.4783,-0.94669c0.66556,-1.86142 -0.17644,-4.55614 -0.41141,-6.51371c-0.65256,-5.43633 -1.23857,-9.83216 -3.80462,-14.74701c-1.50916,-3.0862 -3.05919,-5.87276 -6.20958,-7.60384c-1.40875,-0.77409 -3.04271,-0.54312 -4.58774,-0.71506c-4.28792,-0.47723 -9.04358,-0.58747 -13.36717,-0.33009c-9.21657,0.25219 -19.96368,-2.32053 -28.87306,0.52613c-1.43417,0.42695 -3.08006,0.54881 -4.2775,1.51223c-5.00344,4.02563 -0.60435,12.8675 -0.27806,18.04507c0.31108,4.9363 1.19613,9.52548 1.81413,14.38427l0.09978,0.34839c0,0 0.19306,0.72473 -0.53168,0.91778z" fill="#000000" stroke="none" stroke-width="0.5" stroke-linecap="butt"/><path d="M273.31277,93.59268c-0.48335,-0.12797 -0.35538,-0.61132 -0.35538,-0.61132l0.05777,-0.11795c-0.00277,-0.04395 -0.00538,-0.08756 -0.00781,-0.13081c-0.19536,0.0096 -0.39144,0.02058 -0.58832,0.03298c0,0 -0.49901,0.03144 -0.53046,-0.46757c-0.03145,-0.49901 0.46756,-0.53045 0.46756,-0.53045c0.20933,-0.01319 0.41778,-0.02478 0.62543,-0.03485c0.02557,-2.77017 0.95989,-4.02278 3.00128,-6.33878c3.37637,-3.82667 11.49178,-2.85384 15.99402,-2.02237c2.97492,0.90215 7.96391,1.96371 10.31147,4.22443c1.1966,1.15233 1.91367,3.86362 2.70024,5.34215c0.16703,0.4112 0.6689,1.55109 0.49122,1.83349c-0.29602,0.47047 -4.03663,0.22379 -4.53736,0.17497c-4.43563,-0.43245 -8.85031,-1.0562 -13.27884,-1.51037c-4.70175,-0.26703 -8.99098,-0.86567 -13.65679,-0.74139c0.00202,0.03495 0.00415,0.07018 0.00639,0.10568l-0.0891,0.43678c0,0 -0.12797,0.48334 -0.61132,0.35538z" fill="#000000" stroke="none" stroke-width="0.5" stroke-linecap="butt"/><path d="M312.96659,98.0699c0.5882,1.01226 1.29769,2.95835 -0.73621,2.09264c-1.36002,-0.57888 -1.49639,-2.68481 -1.72586,-3.90312c-0.39085,-6.17404 1.48706,-11.85672 7.41833,-14.5169c4.30405,-1.74018 10.39132,-5.24734 15.15976,-3.30608c2.72937,0.83859 6.21398,1.73645 8.57783,3.33208c0.94387,0.63714 2.66431,1.95754 1.24624,3.12224c-0.70184,0.57644 -2.31379,0.44843 -3.15452,0.79319c-4.70666,1.49666 -8.62235,5.8012 -13.52734,6.86462c-3.0168,0.86513 -6.27777,2.34314 -9.13648,3.64195c-1.34755,0.61223 -2.68673,1.47349 -4.12178,1.87938z" fill="#000000" stroke="none" stroke-width="0.5" stroke-linecap="butt"/></g></g><path d="M259.64464,88.27427l975.40642,265.11046" fill="none" stroke="#ff0000" stroke-width="15.5" stroke-linecap="round"/><path d="M298.41079,83.27219l938.51605,215.71488" fill="none" stroke="#ff0000" stroke-width="15.5" stroke-linecap="round"/></g></g></svg>