<svg version="1.1" xmlns="http://www.w3.org/2000/svg" xmlns:xlink="http://www.w3.org/1999/xlink" width="2878.25006" height="1619.57958" viewBox="0,0,2878.25006,1619.57958"><g transform="translate(1119.12503,629.78979)"><g stroke-miterlimit="10"><path d="M161.97012,191.37576c0,-0.75 0.75,-0.75 0.75,-0.75h0.67325c0.91663,0 1.83325,0 2.74988,0c1.61664,-2.29749 3.16625,-4.65393 4.69637,-7.0584c0,0 0.40265,-0.63275 1.0354,-0.23009c0.63275,0.40265 0.23009,1.0354 0.23009,1.0354c-1.35192,2.12444 -2.71934,4.21111 -4.13373,6.25309c2.53713,0 5.07426,0 7.61139,0c10.40107,0.00017 20.71649,-1.52893 30.95658,-3.29446c6.25502,-1.07845 12.69412,-1.31454 19.0054,-2.11997c2.83053,-0.36122 5.59913,-1.15783 8.38631,-1.06769v-0.25037h1.5c0.41421,0 0.75,0.33579 0.75,0.75c0,0.26446 -0.13687,0.49695 -0.34365,0.63049l-0.61731,0.41154c-1.36461,1.3616 -2.96159,2.49011 -4.39425,3.79712c-3.33943,2.50567 -7.24685,5.21274 -9.57187,8.80146c-3.00507,4.63838 -5.41644,9.81428 -8.58192,14.35213c-5.78769,8.2956 -6.96964,17.7684 -9.71443,27.3323c-2.72087,9.4779 -3.76856,18.88281 -4.92867,28.63909c0.00421,4.73586 -0.58199,9.53 -0.22561,14.26922c0.40738,5.41743 1.75735,10.59491 3.12759,15.83711c1.65456,9.7674 2.53977,19.46284 5.27261,29.08387c0.41615,0.72234 1.99258,2.65808 1.31777,3.62679c-0.53776,0.77197 -4.48438,0.28844 -5.3039,0.28844c-6.07859,0 -12.159,-0.22442 -18.24865,-0.22442c-10.23561,0 -20.46835,0.44883 -30.67415,0.44883c-9.79563,0 -19.59126,0 -29.38689,0c-10.10263,0 -20.20527,0 -30.3079,0c-6.63016,0 -13.26032,0 -19.89048,0c-3.46765,0 -6.48517,0.47842 -9.3964,-1.69756c-5.60198,-7.75211 -10.97501,-15.96056 -10.9568,-25.83161c1.44746,-7.37739 3.28424,-15.27194 11.00608,-18.34785c2.06172,-0.82126 4.72774,-1.04975 6.94506,-1.26019c9.83532,-0.91974 19.85021,0.97497 29.72866,0.97894c4.78292,0.38607 9.66358,0.13721 14.42392,0.67825c2.01939,0.22951 4.20424,0.90743 6.20051,1.34534c0.51158,0.11222 1.03568,0.1782 1.53444,0.33802c0.54969,0.17614 1.31624,1.24194 1.57269,0.72481c0.32032,-0.64591 -0.04555,-2.85523 -0.04177,-3.57395c1.02075,-9.63274 1.42464,-19.78604 3.36172,-29.36337c0.06962,-5.52585 0.63433,-11.86656 2.83457,-16.98634c1.76151,-4.0989 4.36405,-7.99472 6.51363,-11.90445c2.04676,-3.77866 4.01848,-7.74144 6.51067,-11.25428c3.33352,-4.69871 7.74631,-8.62575 11.81894,-12.66449c3.48115,-3.45137 6.50552,-7.1335 9.30632,-10.99277c-0.55941,0 -1.79207,0 -2.35148,0c0,0 -0.75,0 -0.75,-0.75z" fill="#ffffff" stroke="none" stroke-width="0.5" stroke-linecap="butt"/><path d="M-1119.12503,989.78979v-1619.57958h2878.25006v1619.57958z" fill="none" stroke="#000000" stroke-width="0" stroke-linecap="butt"/><path d="M483.11072,189.96332c0,0.75 -0.75,0.75 -0.75,0.75c-0.55941,0 -1.79207,0 -2.35148,0c2.8008,3.85927 5.82517,7.5414 9.30632,10.99277c4.07263,4.03874 8.48542,7.96578 11.81894,12.66449c2.49219,3.51284 4.46391,7.47562 6.51067,11.25428c2.14958,3.90973 4.75212,7.80555 6.51363,11.90445c2.20024,5.11978 2.76495,11.46049 2.83457,16.98634c1.93708,9.57733 2.34097,19.73063 3.36172,29.36337c0.00378,0.71872 -0.36209,2.92804 -0.04177,3.57395c0.25645,0.51713 1.023,-0.54867 1.57269,-0.72481c0.49876,-0.15982 1.02286,-0.2258 1.53444,-0.33802c1.99627,-0.43791 4.18112,-1.11583 6.20051,-1.34534c4.76034,-0.54104 9.641,-0.29218 14.42392,-0.67825c9.87845,-0.00397 19.89334,-1.89868 29.72866,-0.97894c2.21732,0.21044 4.88334,0.43893 6.94506,1.26019c7.72184,3.07591 9.55862,10.97046 11.00608,18.34785c0.01821,9.87105 -5.35482,18.0795 -10.9568,25.83161c-2.91123,2.17598 -5.92875,1.69756 -9.3964,1.69756c-6.63016,0 -13.26032,0 -19.89048,0c-10.10263,0 -20.20527,0 -30.3079,0c-9.79563,0 -19.59126,0 -29.38689,0c-10.2058,0 -20.43854,-0.44883 -30.67415,-0.44883c-6.08965,0 -12.17006,0.22442 -18.24865,0.22442c-0.81952,0 -4.76614,0.48353 -5.3039,-0.28844c-0.67481,-0.96871 0.90162,-2.90445 1.31777,-3.62679c2.73284,-9.62103 3.61805,-19.31647 5.27261,-29.08387c1.37024,-5.2422 2.72021,-10.41968 3.12759,-15.83711c0.35638,-4.73922 -0.22982,-9.53336 -0.22561,-14.26922c-1.16011,-9.75628 -2.2078,-19.16119 -4.92867,-28.63909c-2.74479,-9.5639 -3.92674,-19.0367 -9.71443,-27.3323c-3.16548,-4.53785 -5.57685,-9.71375 -8.58192,-14.35213c-2.32502,-3.58872 -6.23244,-6.29579 -9.57187,-8.80146c-1.43266,-1.30701 -3.02964,-2.43552 -4.39425,-3.79712l-0.61731,-0.41154c-0.20678,-0.13354 -0.34365,-0.36603 -0.34365,-0.63049c0,-0.41421 0.33579,-0.75 0.75,-0.75h1.5v0.25037c2.78718,-0.09014 5.55578,0.70647 8.38631,1.06769c6.31128,0.80543 12.75038,1.04152 19.0054,2.11997c10.24009,1.76553 20.55551,3.29463 30.95658,3.29446c2.53713,0 5.07426,0 7.61139,0c-1.41439,-2.04198 -2.78181,-4.12865 -4.13373,-6.25309c0,0 -0.40266,-0.63275 0.23009,-1.0354c0.63275,-0.40266 1.0354,0.23009 1.0354,0.23009c1.53012,2.40447 3.07973,4.76091 4.69637,7.0584c0.91663,0 1.83325,0 2.74988,0h0.67325c0,0 0.75,0 0.75,0.75z" fill="#ffffff" stroke="none" stroke-width="0.5" stroke-linecap="butt"/><g><path d="M230.98749,143.08871l0.00918,4.37239l3.5374,2.43653l289.24692,-40.86166l10.95779,80.88553l-257.91091,36.68938l-3.19827,-18.22754l-317.36541,41.53652l-9.07013,-66.95169z" fill="#ffffff" stroke="#000000" stroke-width="0" stroke-linecap="round"/><path d="M228.55551,214.37781l-8.15209,-58.84226l26.90279,-4.00571l7.95077,58.68899z" fill="#50371e" stroke="#000000" stroke-width="0" stroke-linecap="round"/><path d="M260.58315,150.90481l5.44917,44.22178l-8.55884,0.79837l-6.08633,-43.59378z" fill="#1a2316" stroke="#000000" stroke-width="0" stroke-linecap="round"/><path d="M330.75085,139.05169l121.63504,-17.01992l5.80979,44.21806l-126.53509,18.94768l-6.29051,-45.1009z" fill="#1a2316" stroke="#000000" stroke-width="0" stroke-linecap="round"/><path d="M229.25665,144.94694l-305.01426,41.32114l-4.81356,-6.20926l320.14118,-45.53718l-1.63591,9.24973l307.3745,-44.89103l-3.62518,7.89417l-312.79725,44.18115z" fill="#211104" stroke="#000000" stroke-width="0" stroke-linecap="round"/><path d="M58.86825,236.37274l-8.61986,-67.62645l67.11854,-8.37049l8.06391,67.52122z" fill="#1a2316" stroke="#000000" stroke-width="0" stroke-linecap="round"/><path d="M160.10324,154.04452l3.56293,35.62976l-31.35951,4.42891l-4.62679,-35.48564z" fill="#1a2316" stroke="#000000" stroke-width="0" stroke-linecap="round"/><path d="M192.94629,166.09829c0.18102,0.33081 0.55272,0.53267 0.9487,0.47903c0.51313,-0.06951 0.87547,-0.54626 0.80596,-1.05939c-0.03328,-0.24563 -0.15822,-0.45698 -0.33641,-0.60202c0.73138,-1.79625 3.72879,-2.51819 5.39239,-2.74357c5.14045,-0.69639 8.28191,1.76184 11.46612,5.62919c0.65712,1.99581 1.9476,4.52957 1.47062,6.72706c-1.02792,4.73577 -5.6299,5.65043 -9.9004,5.36487c-2.26252,-0.8553 -4.57261,-1.43403 -6.73508,-1.619c-0.16593,-0.01419 -0.33315,-0.02587 -0.4994,-0.03315c-0.56163,-0.49079 -0.9914,-1.17111 -1.32545,-1.89788c-1.53153,-3.33215 -2.88614,-6.98243 -1.28708,-10.24515z" fill="#ffffff" stroke="#000000" stroke-width="2" stroke-linecap="butt"/><path d="M173.75011,169.32578c1.10815,-0.82033 2.66003,-1.94387 4.13353,-1.90881c0.51906,0.01235 1.45002,0.63434 1.92985,0.88134c3.57509,1.84029 5.85903,6.06505 6.47395,9.952c-0.81332,3.11216 -5.36064,5.21198 -7.97768,6.43577c-0.96312,0.45038 -2.65812,1.02318 -3.75263,0.57413c-2.86089,-1.17376 -3.97888,-6.35181 -4.76512,-9.06023c-0.73683,-1.0561 -1.15291,-2.21693 -0.70855,-3.42408c1.5507,-1.14301 3.1183,-2.30393 4.66662,-3.45012z" fill="#ffffff" stroke="#000000" stroke-width="2" stroke-linecap="butt"/><path d="M181.58002,176.40857c-0.12512,-0.92363 0.52219,-1.77382 1.44582,-1.89895c0.92363,-0.12512 1.77382,0.52219 1.89895,1.44582c0.12512,0.92363 -0.52219,1.77382 -1.44582,1.89895c-0.92363,0.12512 -1.77382,-0.52219 -1.89895,-1.44582z" fill="#000000" stroke="none" stroke-width="0.5" stroke-linecap="butt"/><path d="M208.12407,171.49342c-0.12512,-0.92363 0.52219,-1.77382 1.44582,-1.89895c0.92363,-0.12512 1.77382,0.52219 1.89895,1.44582c0.12512,0.92363 -0.52219,1.77382 -1.44582,1.89895c-0.92363,0.12512 -1.77382,-0.52219 -1.89895,-1.44582z" fill="#000000" stroke="none" stroke-width="0.5" stroke-linecap="butt"/><path d="M150.24202,150.18684c0.30293,-0.8873 1.19023,-0.58439 1.19023,-0.58439l0.4535,0.15482c1.82329,0.62248 3.67969,1.04724 5.52748,1.58913c3.42626,0.54659 6.15709,2.43798 9.31865,3.78583c6.0382,2.57425 12.07906,5.0906 17.98912,7.96941c0,0 0.84288,0.41066 0.43224,1.25353c-0.41066,0.84288 -1.25353,0.43224 -1.25353,0.43224c-5.88112,-2.86578 -11.89393,-5.366 -17.90196,-7.92966c-3.05177,-1.3022 -5.69121,-3.16415 -8.99408,-3.68143c-1.91487,-0.55479 -3.83603,-0.99996 -5.72377,-1.64443l-0.4535,-0.15482c0,0 -0.8873,-0.30293 -0.58439,-1.19023z" fill="#000000" stroke="none" stroke-width="0.5" stroke-linecap="butt"/><path d="M214.65761,136.19163c0.59916,0.72117 -0.122,1.32033 -0.122,1.32033l-0.767,0.6371c-1.22922,1.08287 -2.15834,2.24408 -3.14858,3.54467c-1.46055,1.91829 -2.9859,3.77082 -4.84597,5.32724c-2.22026,1.8578 -4.84949,3.28458 -6.85124,5.40108c-3.06028,3.23569 -5.54849,6.94453 -8.72592,10.07627c0,0 -0.66776,0.65815 -1.32592,-0.00961c-0.65815,-0.66776 0.00961,-1.32592 0.00961,-1.32592c3.15487,-3.10949 5.61985,-6.80562 8.66502,-10.01338c3.68319,-3.87983 8.28107,-6.25557 11.58247,-10.59163c1.06966,-1.40489 2.09349,-2.66156 3.42114,-3.83327l0.78808,-0.65489c0,0 0.72117,-0.59916 1.32033,0.122z" fill="#000000" stroke="none" stroke-width="0.5" stroke-linecap="butt"/><path d="M178.89294,207.80954c-0.74321,0.10069 -0.8439,-0.64252 -0.8439,-0.64252l-0.06025,-0.44473c-0.33454,-2.46941 -1.34774,-4.68342 -2.12875,-7.04021c-0.38302,-1.11076 -0.77831,-2.19201 -1.02993,-3.33999c-0.09063,-0.41353 -0.23947,-0.817 -0.28295,-1.2381c-0.09676,-0.93702 0.07782,-1.33729 0.24572,-2.22538c0.05012,-0.26515 0.06648,-0.53716 0.13442,-0.79834c0.32325,-1.24264 0.98709,-2.31282 1.62674,-3.40602c0.66205,-1.13149 1.33694,-2.25122 1.95302,-3.40886c0.17424,-0.32739 0.27667,-0.697 0.49657,-0.99565c0.42054,-0.57112 1.09528,-0.91208 1.55585,-1.45144c0.23969,-0.28068 0.36783,-0.64472 0.6056,-0.92704c0.36177,-0.42958 1.13071,-0.93506 1.5675,-1.24845c1.47209,-0.69442 2.97895,-1.24834 4.47855,-1.88379c0.98969,-0.41937 1.99257,-0.91887 3.0253,-1.21927c1.10516,-0.32147 2.24974,-0.42843 3.38478,-0.58192c0.95749,-0.12948 1.97739,-0.26438 2.94091,-0.27962c1.50334,-0.02378 3.01321,0.21748 4.44427,0.64998c0.41548,0.12557 1.80271,0.51311 2.23368,0.71439c0.29297,0.13682 0.54962,0.34074 0.82443,0.51112c0.65435,0.42821 1.32138,0.83674 1.97992,1.25848c0.4394,0.2814 0.9101,0.52244 1.30792,0.8601c0.40159,0.34086 0.71081,0.77764 1.07265,1.16047c0.84522,0.89423 1.74755,1.77184 2.39356,2.83201c0.2718,0.44606 0.44743,0.94405 0.67798,1.41276c0.49236,1.00098 1.02835,2.00191 1.59894,2.96121c0.16464,0.27678 1.05572,1.58661 1.25677,2.05466c0.2042,0.47535 0.33774,0.97813 0.51835,1.46292c0.43194,1.15942 0.84281,2.32683 0.89625,3.58809c0.01643,0.38751 -0.09949,0.76932 -0.14923,1.15398c0,0 -0.1019,0.74305 -0.84494,0.64114c-0.74305,-0.10191 -0.64113,-0.84495 -0.64113,-0.84495c0.0452,-0.30753 0.14986,-0.61207 0.13557,-0.92257c-0.04994,-1.0848 -0.43001,-2.09247 -0.80079,-3.08846c-0.16839,-0.45232 -0.2904,-0.9221 -0.47835,-1.36667c-0.29357,-0.69447 -0.80381,-1.27603 -1.18916,-1.92407c-0.58817,-0.98912 -1.14253,-2.02161 -1.64869,-3.05414c-0.21026,-0.42891 -0.36608,-0.88643 -0.61348,-1.29504c-0.58598,-0.96785 -1.4321,-1.75968 -2.19858,-2.57721c-0.32369,-0.34524 -0.59549,-0.74298 -0.95566,-1.04997c-0.34509,-0.29412 -0.75942,-0.49575 -1.14251,-0.73833c-0.66222,-0.41931 -1.32862,-0.83223 -1.98451,-1.26141c-0.22011,-0.13997 -0.42393,-0.30969 -0.66034,-0.41995c-0.2906,-0.13553 -1.85217,-0.58101 -2.02485,-0.63344c-1.28224,-0.38933 -2.63993,-0.60759 -3.98818,-0.58528c-0.39542,0.00655 -0.78735,0.07567 -1.18151,0.10784c-1.56004,0.12731 -3.21518,0.24729 -4.7226,0.68741c-0.98302,0.28702 -1.936,0.76618 -2.87873,1.16564c-0.70951,0.30065 -1.40153,0.64359 -2.12106,0.91941c-0.24611,0.09434 -0.51327,0.12492 -0.76072,0.21569c-0.49174,0.18041 -0.94978,0.44198 -1.42507,0.66214c-0.21363,0.15492 -0.99048,0.68813 -1.19337,0.9371c-0.23577,0.28934 -0.36997,0.65391 -0.61382,0.93646c-0.51556,0.59737 -0.99642,0.69261 -1.46326,1.3352c-0.17831,0.24545 -0.24873,0.55382 -0.3893,0.82266c-0.61725,1.18053 -1.31187,2.31567 -1.98426,3.46489c-0.56483,0.96537 -1.18592,1.91342 -1.46629,3.01368c-0.05897,0.23142 -0.07001,0.47261 -0.1145,0.70724c-0.12372,0.65247 -0.30642,1.13042 -0.22774,1.80148c0.04257,0.3631 0.17589,0.70978 0.25571,1.06655c0.24436,1.09233 0.62054,2.12149 0.98558,3.1802c0.81231,2.45126 1.84585,4.7479 2.19419,7.31926l0.06025,0.44473c0,0 0.10069,0.74321 -0.64252,0.8439z" fill="#000000" stroke="none" stroke-width="0.5" stroke-linecap="butt"/><path d="M198.46237,161.30741c0.27794,0.6966 -0.41866,0.97453 -0.41866,0.97453l-0.23859,0.09474c-2.71989,0.97809 -3.12829,1.05078 -4.57806,3.51792c0,0 -0.38,0.64661 -1.02661,0.2666c-0.64661,-0.38 -0.2666,-1.02661 -0.2666,-1.02661c1.56436,-2.66168 2.48601,-3.13096 5.36294,-4.16916l0.19107,-0.07669c0,0 0.6966,-0.27794 0.97454,0.41866z" fill="#000000" stroke="none" stroke-width="0.5" stroke-linecap="butt"/></g></g></g></svg>