<svg version="1.1" xmlns="http://www.w3.org/2000/svg" xmlns:xlink="http://www.w3.org/1999/xlink" width="2878.25006" height="1619.57958" viewBox="0,0,2878.25006,1619.57958"><g transform="translate(1119.12503,629.78979)"><g stroke-miterlimit="10"><path d="M161.97012,191.37576c0,-0.75 0.75,-0.75 0.75,-0.75h0.67325c0.91663,0 1.83325,0 2.74988,0c1.61664,-2.29749 3.16625,-4.65393 4.69637,-7.0584c0,0 0.40265,-0.63275 1.0354,-0.23009c0.63275,0.40265 0.23009,1.0354 0.23009,1.0354c-1.35192,2.12444 -2.71934,4.21111 -4.13373,6.25309c2.53713,0 5.07426,0 7.61139,0c10.40107,0.00017 20.71649,-1.52893 30.95658,-3.29446c6.25502,-1.07845 12.69412,-1.31454 19.0054,-2.11997c2.83053,-0.36122 5.59913,-1.15783 8.38631,-1.06769v-0.25037h1.5c0.41421,0 0.75,0.33579 0.75,0.75c0,0.26446 -0.13687,0.49695 -0.34365,0.63049l-0.61731,0.41154c-1.36461,1.3616 -2.96159,2.49011 -4.39425,3.79712c-3.33943,2.50567 -7.24685,5.21274 -9.57187,8.80146c-3.00507,4.63838 -5.41644,9.81428 -8.58192,14.35213c-5.78769,8.2956 -6.96964,17.7684 -9.71443,27.3323c-2.72087,9.4779 -3.76856,18.88281 -4.92867,28.63909c0.00421,4.73586 -0.58199,9.53 -0.22561,14.26922c0.40738,5.41743 1.75735,10.59491 3.12759,15.83711c1.65456,9.7674 2.53977,19.46284 5.27261,29.08387c0.41615,0.72234 1.99258,2.65808 1.31777,3.62679c-0.53776,0.77197 -4.48438,0.28844 -5.3039,0.28844c-6.07859,0 -12.159,-0.22442 -18.24865,-0.22442c-10.23561,0 -20.46835,0.44883 -30.67415,0.44883c-9.79563,0 -19.59126,0 -29.38689,0c-10.10263,0 -20.20527,0 -30.3079,0c-6.63016,0 -13.26032,0 -19.89048,0c-3.46765,0 -6.48517,0.47842 -9.3964,-1.69756c-5.60198,-7.75211 -10.97501,-15.96056 -10.9568,-25.83161c1.44746,-7.37739 3.28424,-15.27194 11.00608,-18.34785c2.06172,-0.82126 4.72774,-1.04975 6.94506,-1.26019c9.83532,-0.91974 19.85021,0.97497 29.72866,0.97894c4.78292,0.38607 9.66358,0.13721 14.42392,0.67825c2.01939,0.22951 4.20424,0.90743 6.20051,1.34534c0.51158,0.11222 1.03568,0.1782 1.53444,0.33802c0.54969,0.17614 1.31624,1.24194 1.57269,0.72481c0.32032,-0.64591 -0.04555,-2.85523 -0.04177,-3.57395c1.02075,-9.63274 1.42464,-19.78604 3.36172,-29.36337c0.06962,-5.52585 0.63433,-11.86656 2.83457,-16.98634c1.76151,-4.0989 4.36405,-7.99472 6.51363,-11.90445c2.04676,-3.77866 4.01848,-7.74144 6.51067,-11.25428c3.33352,-4.69871 7.74631,-8.62575 11.81894,-12.66449c3.48115,-3.45137 6.50552,-7.1335 9.30632,-10.99277c-0.55941,0 -1.79207,0 -2.35148,0c0,0 -0.75,0 -0.75,-0.75z" fill="#ffffff" stroke="none" stroke-width="0.5" stroke-linecap="butt"/><path d="M-1119.12503,989.78979v-1619.57958h2878.25006v1619.57958z" fill="none" stroke="#000000" stroke-width="0" stroke-linecap="butt"/><path d="M483.11072,189.96332c0,0.75 -0.75,0.75 -0.75,0.75c-0.55941,0 -1.79207,0 -2.35148,0c2.8008,3.85927 5.82517,7.5414 9.30632,10.99277c4.07263,4.03874 8.48542,7.96578 11.81894,12.66449c2.49219,3.51284 4.46391,7.47562 6.51067,11.25428c2.14958,3.90973 4.75212,7.80555 6.51363,11.90445c2.20024,5.11978 2.76495,11.46049 2.83457,16.98634c1.93708,9.57733 2.34097,19.73063 3.36172,29.36337c0.00378,0.71872 -0.36209,2.92804 -0.04177,3.57395c0.25645,0.51713 1.023,-0.54867 1.57269,-0.72481c0.49876,-0.15982 1.02286,-0.2258 1.53444,-0.33802c1.99627,-0.43791 4.18112,-1.11583 6.20051,-1.34534c4.76034,-0.54104 9.641,-0.29218 14.42392,-0.67825c9.87845,-0.00397 19.89334,-1.89868 29.72866,-0.97894c2.21732,0.21044 4.88334,0.43893 6.94506,1.26019c7.72184,3.07591 9.55862,10.97046 11.00608,18.34785c0.01821,9.87105 -5.35482,18.0795 -10.9568,25.83161c-2.91123,2.17598 -5.92875,1.69756 -9.3964,1.69756c-6.63016,0 -13.26032,0 -19.89048,0c-10.10263,0 -20.20527,0 -30.3079,0c-9.79563,0 -19.59126,0 -29.38689,0c-10.2058,0 -20.43854,-0.44883 -30.67415,-0.44883c-6.08965,0 -12.17006,0.22442 -18.24865,0.22442c-0.81952,0 -4.76614,0.48353 -5.3039,-0.28844c-0.67481,-0.96871 0.90162,-2.90445 1.31777,-3.62679c2.73284,-9.62103 3.61805,-19.31647 5.27261,-29.08387c1.37024,-5.2422 2.72021,-10.41968 3.12759,-15.83711c0.35638,-4.73922 -0.22982,-9.53336 -0.22561,-14.26922c-1.16011,-9.75628 -2.2078,-19.16119 -4.92867,-28.63909c-2.74479,-9.5639 -3.92674,-19.0367 -9.71443,-27.3323c-3.16548,-4.53785 -5.57685,-9.71375 -8.58192,-14.35213c-2.32502,-3.58872 -6.23244,-6.29579 -9.57187,-8.80146c-1.43266,-1.30701 -3.02964,-2.43552 -4.39425,-3.79712l-0.61731,-0.41154c-0.20678,-0.13354 -0.34365,-0.36603 -0.34365,-0.63049c0,-0.41421 0.33579,-0.75 0.75,-0.75h1.5v0.25037c2.78718,-0.09014 5.55578,0.70647 8.38631,1.06769c6.31128,0.80543 12.75038,1.04152 19.0054,2.11997c10.24009,1.76553 20.55551,3.29463 30.95658,3.29446c2.53713,0 5.07426,0 7.61139,0c-1.41439,-2.04198 -2.78181,-4.12865 -4.13373,-6.25309c0,0 -0.40266,-0.63275 0.23009,-1.0354c0.63275,-0.40266 1.0354,0.23009 1.0354,0.23009c1.53012,2.40447 3.07973,4.76091 4.69637,7.0584c0.91663,0 1.83325,0 2.74988,0h0.67325c0,0 0.75,0 0.75,0.75z" fill="#ffffff" stroke="none" stroke-width="0.5" stroke-linecap="butt"/><path d="M340.14522,156.97925l-0.49529,4.34426l3.2327,2.82835l292.02966,-7.22044l1.55343,81.60961l-260.42154,6.69103l-1.07413,-18.4748l-320.03827,4.64696l-1.28582,-67.55104z" fill="#ffffff" stroke="#000000" stroke-width="0" stroke-linecap="round"/><path d="M329.50535,227.51182l-1.30944,-59.38984l27.18528,-0.87538l1.12715,59.21437z" fill="#50371e" stroke="#000000" stroke-width="0" stroke-linecap="round"/><path d="M368.64159,168.15741l0.31123,44.55516l-8.5938,-0.19433l-1.01658,-44.00486z" fill="#ff00ed" stroke="#000000" stroke-width="0" stroke-linecap="round"/><path d="M439.70822,164.47819l122.7864,-2.8741l0.66987,44.59307l-127.87613,4.2237l-1.04553,-45.52547z" fill="#ff00ed" stroke="#000000" stroke-width="0" stroke-linecap="round"/><path d="M338.21157,158.6254l-307.74473,5.85788l-4.0651,-6.72311l323.25703,-8.30069l-2.69206,8.99925l310.50105,-9.13165l-4.51167,7.42325l-315.8057,7.80093z" fill="#211104" stroke="#000000" stroke-width="0" stroke-linecap="round"/><path d="M158.41362,229.78426l-0.76072,-68.16935l67.63606,-0.5716l0.22062,68.00068z" fill="#ff00ed" stroke="#000000" stroke-width="0" stroke-linecap="round"/><path d="M268.47034,159.68449l-0.57122,35.8029l-31.66107,0.78161l-0.50217,-35.78248z" fill="#ff00ed" stroke="#000000" stroke-width="0" stroke-linecap="round"/><path d="M303.95081,171.39015c0,-3.40428 2.75971,-6.16399 6.16399,-6.16399c3.40428,0 6.16399,2.75971 6.16399,6.16399c0,3.40428 -2.75971,6.16399 -6.16399,6.16399c-3.40428,0 -6.16399,-2.75971 -6.16399,-6.16399z" fill="#ff0000" stroke="#000000" stroke-width="0" stroke-linecap="butt"/><path d="M285.74553,171.67685c0,-3.40428 2.75971,-6.16399 6.16399,-6.16399c3.40428,0 6.16399,2.75971 6.16399,6.16399c0,3.40428 -2.75971,6.16399 -6.16399,6.16399c-3.40428,0 -6.16399,-2.75971 -6.16399,-6.16399z" fill="#00ff12" stroke="#000000" stroke-width="0" stroke-linecap="butt"/><path d="M296.49668,185.86836c0,-3.40428 2.75971,-6.16399 6.16399,-6.16399c3.40428,0 6.16399,2.75971 6.16399,6.16399c0,3.40428 -2.75971,6.16399 -6.16399,6.16399c-3.40428,0 -6.16399,-2.75971 -6.16399,-6.16399z" fill="#0e00ff" stroke="#000000" stroke-width="0" stroke-linecap="butt"/></g></g></svg>