<svg version="1.1" xmlns="http://www.w3.org/2000/svg" xmlns:xlink="http://www.w3.org/1999/xlink" width="2878.25006" height="1619.57958" viewBox="0,0,2878.25006,1619.57958"><g transform="translate(1119.12503,629.78979)"><g stroke-miterlimit="10"><path d="M161.97012,191.37576c0,-0.75 0.75,-0.75 0.75,-0.75h0.67325c0.91663,0 1.83325,0 2.74988,0c1.61664,-2.29749 3.16625,-4.65393 4.69637,-7.0584c0,0 0.40265,-0.63275 1.0354,-0.23009c0.63275,0.40265 0.23009,1.0354 0.23009,1.0354c-1.35192,2.12444 -2.71934,4.21111 -4.13373,6.25309c2.53713,0 5.07426,0 7.61139,0c10.40107,0.00017 20.71649,-1.52893 30.95658,-3.29446c6.25502,-1.07845 12.69412,-1.31454 19.0054,-2.11997c2.83053,-0.36122 5.59913,-1.15783 8.38631,-1.06769v-0.25037h1.5c0.41421,0 0.75,0.33579 0.75,0.75c0,0.26446 -0.13687,0.49695 -0.34365,0.63049l-0.61731,0.41154c-1.36461,1.3616 -2.96159,2.49011 -4.39425,3.79712c-3.33943,2.50567 -7.24685,5.21274 -9.57187,8.80146c-3.00507,4.63838 -5.41644,9.81428 -8.58192,14.35213c-5.78769,8.2956 -6.96964,17.7684 -9.71443,27.3323c-2.72087,9.4779 -3.76856,18.88281 -4.92867,28.63909c0.00421,4.73586 -0.58199,9.53 -0.22561,14.26922c0.40738,5.41743 1.75735,10.59491 3.12759,15.83711c1.65456,9.7674 2.53977,19.46284 5.27261,29.08387c0.41615,0.72234 1.99258,2.65808 1.31777,3.62679c-0.53776,0.77197 -4.48438,0.28844 -5.3039,0.28844c-6.07859,0 -12.159,-0.22442 -18.24865,-0.22442c-10.23561,0 -20.46835,0.44883 -30.67415,0.44883c-9.79563,0 -19.59126,0 -29.38689,0c-10.10263,0 -20.20527,0 -30.3079,0c-6.63016,0 -13.26032,0 -19.89048,0c-3.46765,0 -6.48517,0.47842 -9.3964,-1.69756c-5.60198,-7.75211 -10.97501,-15.96056 -10.9568,-25.83161c1.44746,-7.37739 3.28424,-15.27194 11.00608,-18.34785c2.06172,-0.82126 4.72774,-1.04975 6.94506,-1.26019c9.83532,-0.91974 19.85021,0.97497 29.72866,0.97894c4.78292,0.38607 9.66358,0.13721 14.42392,0.67825c2.01939,0.22951 4.20424,0.90743 6.20051,1.34534c0.51158,0.11222 1.03568,0.1782 1.53444,0.33802c0.54969,0.17614 1.31624,1.24194 1.57269,0.72481c0.32032,-0.64591 -0.04555,-2.85523 -0.04177,-3.57395c1.02075,-9.63274 1.42464,-19.78604 3.36172,-29.36337c0.06962,-5.52585 0.63433,-11.86656 2.83457,-16.98634c1.76151,-4.0989 4.36405,-7.99472 6.51363,-11.90445c2.04676,-3.77866 4.01848,-7.74144 6.51067,-11.25428c3.33352,-4.69871 7.74631,-8.62575 11.81894,-12.66449c3.48115,-3.45137 6.50552,-7.1335 9.30632,-10.99277c-0.55941,0 -1.79207,0 -2.35148,0c0,0 -0.75,0 -0.75,-0.75z" fill="#ffffff" stroke="none" stroke-width="0.5" stroke-linecap="butt"/><path d="M-1119.12503,989.78979v-1619.57958h2878.25006v1619.57958z" fill="none" stroke="#000000" stroke-width="0" stroke-linecap="butt"/><path d="M483.11072,189.96332c0,0.75 -0.75,0.75 -0.75,0.75c-0.55941,0 -1.79207,0 -2.35148,0c2.8008,3.85927 5.82517,7.5414 9.30632,10.99277c4.07263,4.03874 8.48542,7.96578 11.81894,12.66449c2.49219,3.51284 4.46391,7.47562 6.51067,11.25428c2.14958,3.90973 4.75212,7.80555 6.51363,11.90445c2.20024,5.11978 2.76495,11.46049 2.83457,16.98634c1.93708,9.57733 2.34097,19.73063 3.36172,29.36337c0.00378,0.71872 -0.36209,2.92804 -0.04177,3.57395c0.25645,0.51713 1.023,-0.54867 1.57269,-0.72481c0.49876,-0.15982 1.02286,-0.2258 1.53444,-0.33802c1.99627,-0.43791 4.18112,-1.11583 6.20051,-1.34534c4.76034,-0.54104 9.641,-0.29218 14.42392,-0.67825c9.87845,-0.00397 19.89334,-1.89868 29.72866,-0.97894c2.21732,0.21044 4.88334,0.43893 6.94506,1.26019c7.72184,3.07591 9.55862,10.97046 11.00608,18.34785c0.01821,9.87105 -5.35482,18.0795 -10.9568,25.83161c-2.91123,2.17598 -5.92875,1.69756 -9.3964,1.69756c-6.63016,0 -13.26032,0 -19.89048,0c-10.10263,0 -20.20527,0 -30.3079,0c-9.79563,0 -19.59126,0 -29.38689,0c-10.2058,0 -20.43854,-0.44883 -30.67415,-0.44883c-6.08965,0 -12.17006,0.22442 -18.24865,0.22442c-0.81952,0 -4.76614,0.48353 -5.3039,-0.28844c-0.67481,-0.96871 0.90162,-2.90445 1.31777,-3.62679c2.73284,-9.62103 3.61805,-19.31647 5.27261,-29.08387c1.37024,-5.2422 2.72021,-10.41968 3.12759,-15.83711c0.35638,-4.73922 -0.22982,-9.53336 -0.22561,-14.26922c-1.16011,-9.75628 -2.2078,-19.16119 -4.92867,-28.63909c-2.74479,-9.5639 -3.92674,-19.0367 -9.71443,-27.3323c-3.16548,-4.53785 -5.57685,-9.71375 -8.58192,-14.35213c-2.32502,-3.58872 -6.23244,-6.29579 -9.57187,-8.80146c-1.43266,-1.30701 -3.02964,-2.43552 -4.39425,-3.79712l-0.61731,-0.41154c-0.20678,-0.13354 -0.34365,-0.36603 -0.34365,-0.63049c0,-0.41421 0.33579,-0.75 0.75,-0.75h1.5v0.25037c2.78718,-0.09014 5.55578,0.70647 8.38631,1.06769c6.31128,0.80543 12.75038,1.04152 19.0054,2.11997c10.24009,1.76553 20.55551,3.29463 30.95658,3.29446c2.53713,0 5.07426,0 7.61139,0c-1.41439,-2.04198 -2.78181,-4.12865 -4.13373,-6.25309c0,0 -0.40266,-0.63275 0.23009,-1.0354c0.63275,-0.40266 1.0354,0.23009 1.0354,0.23009c1.53012,2.40447 3.07973,4.76091 4.69637,7.0584c0.91663,0 1.83325,0 2.74988,0h0.67325c0,0 0.75,0 0.75,0.75z" fill="#ffffff" stroke="none" stroke-width="0.5" stroke-linecap="butt"/><g><path d="M340.14522,156.97925l-0.49529,4.34426l3.2327,2.82835l292.02966,-7.22044l1.55343,81.60961l-260.42154,6.69103l-1.07413,-18.4748l-320.03827,4.64696l-1.28582,-67.55104z" fill="#ffffff" stroke="#000000" stroke-width="0" stroke-linecap="round"/><path d="M329.50535,227.51182l-1.30944,-59.38984l27.18528,-0.87538l1.12715,59.21437z" fill="#50371e" stroke="#000000" stroke-width="0" stroke-linecap="round"/><path d="M368.64159,168.15741l0.31123,44.55516l-8.5938,-0.19433l-1.01658,-44.00486z" fill="#1a2316" stroke="#000000" stroke-width="0" stroke-linecap="round"/><path d="M439.70822,164.47819l122.7864,-2.8741l0.66987,44.59307l-127.87613,4.2237l-1.04553,-45.52547z" fill="#1a2316" stroke="#000000" stroke-width="0" stroke-linecap="round"/><path d="M338.21157,158.6254l-307.74473,5.85788l-4.0651,-6.72311l323.25703,-8.30069l-2.69206,8.99925l310.50105,-9.13165l-4.51167,7.42325l-315.8057,7.80093z" fill="#211104" stroke="#000000" stroke-width="0" stroke-linecap="round"/><path d="M158.41362,229.78426l-0.76072,-68.16935l67.63606,-0.5716l0.22062,68.00068z" fill="#1a2316" stroke="#000000" stroke-width="0" stroke-linecap="round"/><path d="M268.47034,159.68449l-0.57122,35.8029l-31.66107,0.78161l-0.50217,-35.78248z" fill="#1a2316" stroke="#000000" stroke-width="0" stroke-linecap="round"/><path d="M299.70355,175.44666c0.14165,0.34948 0.48758,0.59288 0.8871,0.58528c0.51772,-0.00985 0.93264,-0.44162 0.92279,-0.95934c-0.00472,-0.24783 -0.10445,-0.47218 -0.26471,-0.63681c0.93372,-1.69988 3.9944,-2.07121 5.67289,-2.10317c5.18647,-0.09872 8.02336,2.7055 10.74016,6.91437c0.42249,2.05829 1.41205,4.72401 0.68475,6.8518c-1.56739,4.58557 -6.24416,4.96322 -10.45321,4.18691c-2.14874,-1.1106 -4.37665,-1.95197 -6.50334,-2.38517c-0.16319,-0.03324 -0.32794,-0.06413 -0.49224,-0.09054c-0.50126,-0.5523 -0.84968,-1.27766 -1.09766,-2.03812c-1.1369,-3.48658 -2.06136,-7.26876 -0.09658,-10.32523z" fill="#ffffff" stroke="#000000" stroke-width="2" stroke-linecap="butt"/><path d="M280.2632,176.43807c1.19539,-0.68701 2.86652,-1.62402 4.32614,-1.41921c0.51417,0.07215 1.36716,0.79738 1.81529,1.09809c3.33892,2.24044 5.12023,6.70047 5.28263,10.63241c-1.16692,2.99755 -5.92612,4.55876 -8.66687,5.47247c-1.00865,0.33626 -2.75841,0.7097 -3.79381,0.13738c-2.70638,-1.49596 -3.21955,-6.76842 -3.68809,-9.54946c-0.61008,-1.13405 -0.88946,-2.33513 -0.30881,-3.48296c1.67221,-0.95649 3.36327,-1.92881 5.03348,-2.88873z" fill="#ffffff" stroke="#000000" stroke-width="2" stroke-linecap="butt"/><path d="M287.22374,184.37685c-0.01773,-0.9319 0.72334,-1.70174 1.65524,-1.71948c0.9319,-0.01773 1.70174,0.72334 1.71948,1.65524c0.01773,0.9319 -0.72334,1.70174 -1.65524,1.71948c-0.9319,0.01773 -1.70174,-0.72334 -1.71948,-1.65524z" fill="#000000" stroke="none" stroke-width="0.5" stroke-linecap="butt"/><path d="M314.1576,182.55672c-0.01773,-0.9319 0.72334,-1.70174 1.65524,-1.71948c0.9319,-0.01773 1.70174,0.72334 1.71948,1.65524c0.01773,0.9319 -0.72334,1.70174 -1.65524,1.71948c-0.9319,0.01773 -1.70174,-0.72334 -1.71948,-1.65524z" fill="#000000" stroke="none" stroke-width="0.5" stroke-linecap="butt"/><path d="M259.11999,154.71495c0.40327,-0.84643 1.2497,-0.44318 1.2497,-0.44318l0.43261,0.2061c1.73931,0.82866 3.53431,1.46475 5.30725,2.21619c3.34033,0.9382 5.83473,3.132 8.81969,4.83558c5.70091,3.25365 11.41115,6.45009 16.94964,9.99148c0,0 0.78988,0.50516 0.28474,1.29503c-0.50516,0.78988 -1.29503,0.28474 -1.29503,0.28474c-5.51125,-3.52511 -11.19548,-6.70229 -16.86765,-9.94194c-2.88117,-1.64557 -5.28819,-3.79958 -8.50933,-4.69443c-1.83808,-0.77199 -3.69506,-1.43582 -5.49585,-2.29376l-0.43261,-0.2061c0,0 -0.84643,-0.40327 -0.44318,-1.2497z" fill="#000000" stroke="none" stroke-width="0.5" stroke-linecap="butt"/><path d="M324.72004,148.24436c0.51196,0.78548 -0.2735,1.29744 -0.2735,1.29744l-0.83538,0.54436c-1.34594,0.93383 -2.40281,1.9801 -3.53648,3.15777c-1.6721,1.73699 -3.40098,3.40118 -5.42818,4.73263c-2.41976,1.58926 -5.19603,2.7032 -7.42858,4.57464c-3.41313,2.86104 -6.31259,6.25807 -9.83009,9.00235c0,0 -0.73923,0.57672 -1.31596,-0.16251c-0.57672,-0.73923 0.16251,-1.31596 0.16251,-1.31596c3.49253,-2.72477 6.36745,-6.11186 9.76234,-8.9469c4.10619,-3.42902 8.94744,-5.25847 12.72702,-9.18472c1.22459,-1.27211 2.38656,-2.40228 3.84052,-3.413l0.85837,-0.5596c0,0 0.78548,-0.51196 1.29744,0.2735z" fill="#000000" stroke="none" stroke-width="0.5" stroke-linecap="butt"/><path d="M280.93209,215.25818c-0.74986,0.01428 -0.76414,-0.73559 -0.76414,-0.73559l-0.00854,-0.44871c-0.04743,-2.49152 -0.79845,-4.80763 -1.30236,-7.23878c-0.25232,-1.14753 -0.52024,-2.26716 -0.63774,-3.43651c-0.04232,-0.42122 -0.14362,-0.83917 -0.13823,-1.26248c0.01198,-0.94193 0.23157,-1.31938 0.50081,-2.18218c0.08037,-0.2576 0.128,-0.5259 0.22562,-0.7775c0.46445,-1.19705 1.24731,-2.1835 2.00881,-3.19561c0.78816,-1.04756 1.58772,-2.08196 2.33324,-3.16079c0.21085,-0.3051 0.35523,-0.66043 0.60812,-0.93172c0.48362,-0.51879 1.19319,-0.77964 1.7129,-1.26226c0.27047,-0.25115 0.43975,-0.59798 0.7085,-0.85099c0.40891,-0.38498 1.23103,-0.79837 1.70106,-1.05928c1.54237,-0.51996 3.10307,-0.89634 4.66597,-1.35455c1.03146,-0.3024 2.08527,-0.68287 3.14576,-0.86212c1.13487,-0.19183 2.28414,-0.16603 3.42931,-0.18756c0.96603,-0.01816 1.99469,-0.0345 2.95353,0.06152c1.49605,0.14981 2.968,0.56364 4.33961,1.15834c0.39822,0.17266 1.73148,0.71765 2.13635,0.9673c0.27523,0.1697 0.50664,0.40187 0.75996,0.60282c0.60058,0.50084 1.21603,0.98359 1.82152,1.47849c0.404,0.33021 0.84375,0.62394 1.19996,1.00524c0.35959,0.38491 0.61635,0.85445 0.93161,1.27647c0.73642,0.98577 1.53148,1.96161 2.05087,3.08923c0.21853,0.47444 0.33553,0.98936 0.51047,1.48154c0.3736,1.0511 0.79054,2.10718 1.24665,3.1259c0.13161,0.29393 0.86564,1.69781 1.01135,2.18593c0.148,0.49573 0.22264,1.01056 0.34612,1.51295c0.2953,1.20151 0.56875,2.40852 0.47633,3.66753c-0.02838,0.38682 -0.18758,0.75271 -0.28136,1.12906c0,0 -0.18694,0.72633 -0.91326,0.53938c-0.72633,-0.18695 -0.53937,-0.91327 -0.53937,-0.91327c0.08038,-0.30026 0.21947,-0.5907 0.2411,-0.90077c0.07554,-1.08332 -0.18575,-2.12811 -0.43915,-3.16022c-0.11508,-0.46873 -0.18208,-0.94944 -0.31749,-1.41273c-0.21149,-0.7237 -0.65124,-1.36024 -0.95925,-2.04841c-0.47014,-1.05037 -0.90168,-2.13992 -1.28535,-3.22395c-0.15938,-0.4503 -0.26137,-0.92274 -0.45998,-1.35717c-0.47041,-1.02899 -1.21954,-1.91314 -1.88659,-2.81364c-0.2817,-0.38028 -0.5058,-0.80672 -0.82815,-1.15321c-0.30886,-0.33197 -0.69716,-0.58005 -1.04971,-0.8652c-0.60943,-0.49291 -1.22374,-0.97995 -1.82574,-1.48193c-0.20249,-0.16443 -0.38537,-0.35653 -0.60748,-0.49332c-0.27302,-0.16815 -1.77278,-0.7908 -1.93826,-0.8628c-1.22876,-0.53465 -2.55221,-0.90808 -3.89403,-1.04146c-0.39354,-0.03911 -0.79082,-0.01567 -1.18606,-0.02918c-1.56431,-0.05351 -3.22224,-0.12527 -4.77037,0.13801c-1.00957,0.1717 -2.01146,0.53772 -2.99398,0.82576c-0.73946,0.21679 -1.46642,0.47761 -2.21296,0.66858c-0.25535,0.06532 -0.52425,0.06487 -0.78052,0.12649c-0.50927,0.12248 -0.99443,0.32946 -1.49194,0.49332c-0.23008,0.12924 -1.06325,0.56927 -1.29351,0.79317c-0.26757,0.26021 -0.44294,0.60686 -0.71775,0.8594c-0.58103,0.53391 -1.06967,0.57304 -1.60752,1.15748c-0.20544,0.22324 -0.31096,0.52143 -0.48161,0.77226c-0.74932,1.10144 -1.57025,2.14887 -2.37073,3.21285c-0.67243,0.89376 -1.39874,1.76383 -1.80417,2.8244c-0.08527,0.22307 -0.12406,0.46138 -0.19532,0.68931c-0.19816,0.63384 -0.43478,1.08752 -0.43404,1.76318c0.0004,0.36559 0.09283,0.72533 0.13096,1.08893c0.11671,1.11323 0.37166,2.17891 0.61212,3.27267c0.5241,2.5286 1.28579,4.92914 1.33517,7.52352l0.00854,0.44871c0,0 0.01428,0.74986 -0.73559,0.76414z" fill="#000000" stroke="none" stroke-width="0.5" stroke-linecap="butt"/><path d="M305.73549,171.32412c0.19572,0.72401 -0.52829,0.91973 -0.52829,0.91973l-0.24793,0.06658c-2.81457,0.65778 -3.22862,0.68288 -4.95333,2.96629c0,0 -0.45206,0.59845 -1.05051,0.14639c-0.59845,-0.45206 -0.14639,-1.05051 -0.14639,-1.05051c1.86097,-2.46344 2.83061,-2.82326 5.8081,-3.52264l0.19864,-0.05414c0,0 0.72401,-0.19572 0.91974,0.52829z" fill="#000000" stroke="none" stroke-width="0.5" stroke-linecap="butt"/></g></g></g></svg>