<svg version="1.1" xmlns="http://www.w3.org/2000/svg" xmlns:xlink="http://www.w3.org/1999/xlink" width="2878.25006" height="1619.57958" viewBox="0,0,2878.25006,1619.57958"><g transform="translate(1119.12503,629.78979)"><g stroke-miterlimit="10"><path d="M161.97012,191.37576c0,-0.75 0.75,-0.75 0.75,-0.75h0.67325c0.91663,0 1.83325,0 2.74988,0c1.61664,-2.29749 3.16625,-4.65393 4.69637,-7.0584c0,0 0.40265,-0.63275 1.0354,-0.23009c0.63275,0.40265 0.23009,1.0354 0.23009,1.0354c-1.35192,2.12444 -2.71934,4.21111 -4.13373,6.25309c2.53713,0 5.07426,0 7.61139,0c10.40107,0.00017 20.71649,-1.52893 30.95658,-3.29446c6.25502,-1.07845 12.69412,-1.31454 19.0054,-2.11997c2.83053,-0.36122 5.59913,-1.15783 8.38631,-1.06769v-0.25037h1.5c0.41421,0 0.75,0.33579 0.75,0.75c0,0.26446 -0.13687,0.49695 -0.34365,0.63049l-0.61731,0.41154c-1.36461,1.3616 -2.96159,2.49011 -4.39425,3.79712c-3.33943,2.50567 -7.24685,5.21274 -9.57187,8.80146c-3.00507,4.63838 -5.41644,9.81428 -8.58192,14.35213c-5.78769,8.2956 -6.96964,17.7684 -9.71443,27.3323c-2.72087,9.4779 -3.76856,18.88281 -4.92867,28.63909c0.00421,4.73586 -0.58199,9.53 -0.22561,14.26922c0.40738,5.41743 1.75735,10.59491 3.12759,15.83711c1.65456,9.7674 2.53977,19.46284 5.27261,29.08387c0.41615,0.72234 1.99258,2.65808 1.31777,3.62679c-0.53776,0.77197 -4.48438,0.28844 -5.3039,0.28844c-6.07859,0 -12.159,-0.22442 -18.24865,-0.22442c-10.23561,0 -20.46835,0.44883 -30.67415,0.44883c-9.79563,0 -19.59126,0 -29.38689,0c-10.10263,0 -20.20527,0 -30.3079,0c-6.63016,0 -13.26032,0 -19.89048,0c-3.46765,0 -6.48517,0.47842 -9.3964,-1.69756c-5.60198,-7.75211 -10.97501,-15.96056 -10.9568,-25.83161c1.44746,-7.37739 3.28424,-15.27194 11.00608,-18.34785c2.06172,-0.82126 4.72774,-1.04975 6.94506,-1.26019c9.83532,-0.91974 19.85021,0.97497 29.72866,0.97894c4.78292,0.38607 9.66358,0.13721 14.42392,0.67825c2.01939,0.22951 4.20424,0.90743 6.20051,1.34534c0.51158,0.11222 1.03568,0.1782 1.53444,0.33802c0.54969,0.17614 1.31624,1.24194 1.57269,0.72481c0.32032,-0.64591 -0.04555,-2.85523 -0.04177,-3.57395c1.02075,-9.63274 1.42464,-19.78604 3.36172,-29.36337c0.06962,-5.52585 0.63433,-11.86656 2.83457,-16.98634c1.76151,-4.0989 4.36405,-7.99472 6.51363,-11.90445c2.04676,-3.77866 4.01848,-7.74144 6.51067,-11.25428c3.33352,-4.69871 7.74631,-8.62575 11.81894,-12.66449c3.48115,-3.45137 6.50552,-7.1335 9.30632,-10.99277c-0.55941,0 -1.79207,0 -2.35148,0c0,0 -0.75,0 -0.75,-0.75z" fill="#ffffff" stroke="none" stroke-width="0.5" stroke-linecap="butt"/><path d="M-1119.12503,989.78979v-1619.57958h2878.25006v1619.57958z" fill="none" stroke="#000000" stroke-width="0" stroke-linecap="butt"/><path d="M483.11072,189.96332c0,0.75 -0.75,0.75 -0.75,0.75c-0.55941,0 -1.79207,0 -2.35148,0c2.8008,3.85927 5.82517,7.5414 9.30632,10.99277c4.07263,4.03874 8.48542,7.96578 11.81894,12.66449c2.49219,3.51284 4.46391,7.47562 6.51067,11.25428c2.14958,3.90973 4.75212,7.80555 6.51363,11.90445c2.20024,5.11978 2.76495,11.46049 2.83457,16.98634c1.93708,9.57733 2.34097,19.73063 3.36172,29.36337c0.00378,0.71872 -0.36209,2.92804 -0.04177,3.57395c0.25645,0.51713 1.023,-0.54867 1.57269,-0.72481c0.49876,-0.15982 1.02286,-0.2258 1.53444,-0.33802c1.99627,-0.43791 4.18112,-1.11583 6.20051,-1.34534c4.76034,-0.54104 9.641,-0.29218 14.42392,-0.67825c9.87845,-0.00397 19.89334,-1.89868 29.72866,-0.97894c2.21732,0.21044 4.88334,0.43893 6.94506,1.26019c7.72184,3.07591 9.55862,10.97046 11.00608,18.34785c0.01821,9.87105 -5.35482,18.0795 -10.9568,25.83161c-2.91123,2.17598 -5.92875,1.69756 -9.3964,1.69756c-6.63016,0 -13.26032,0 -19.89048,0c-10.10263,0 -20.20527,0 -30.3079,0c-9.79563,0 -19.59126,0 -29.38689,0c-10.2058,0 -20.43854,-0.44883 -30.67415,-0.44883c-6.08965,0 -12.17006,0.22442 -18.24865,0.22442c-0.81952,0 -4.76614,0.48353 -5.3039,-0.28844c-0.67481,-0.96871 0.90162,-2.90445 1.31777,-3.62679c2.73284,-9.62103 3.61805,-19.31647 5.27261,-29.08387c1.37024,-5.2422 2.72021,-10.41968 3.12759,-15.83711c0.35638,-4.73922 -0.22982,-9.53336 -0.22561,-14.26922c-1.16011,-9.75628 -2.2078,-19.16119 -4.92867,-28.63909c-2.74479,-9.5639 -3.92674,-19.0367 -9.71443,-27.3323c-3.16548,-4.53785 -5.57685,-9.71375 -8.58192,-14.35213c-2.32502,-3.58872 -6.23244,-6.29579 -9.57187,-8.80146c-1.43266,-1.30701 -3.02964,-2.43552 -4.39425,-3.79712l-0.61731,-0.41154c-0.20678,-0.13354 -0.34365,-0.36603 -0.34365,-0.63049c0,-0.41421 0.33579,-0.75 0.75,-0.75h1.5v0.25037c2.78718,-0.09014 5.55578,0.70647 8.38631,1.06769c6.31128,0.80543 12.75038,1.04152 19.0054,2.11997c10.24009,1.76553 20.55551,3.29463 30.95658,3.29446c2.53713,0 5.07426,0 7.61139,0c-1.41439,-2.04198 -2.78181,-4.12865 -4.13373,-6.25309c0,0 -0.40266,-0.63275 0.23009,-1.0354c0.63275,-0.40266 1.0354,0.23009 1.0354,0.23009c1.53012,2.40447 3.07973,4.76091 4.69637,7.0584c0.91663,0 1.83325,0 2.74988,0h0.67325c0,0 0.75,0 0.75,0.75z" fill="#ffffff" stroke="none" stroke-width="0.5" stroke-linecap="butt"/><g><path d="M290.46378,133.15327l-0.57788,4.33404l3.17829,2.88936l292.11419,-1.66138v81.62439l-260.50171,1.73362l-0.72234,-18.4919l-320.06874,-1.44468v-67.56327z" fill="#ffffff" stroke="#000000" stroke-width="0" stroke-linecap="round"/><path d="M278.4835,203.47058l-0.17893,-59.40401l27.19702,-0.35785v59.22509z" fill="#50371e" stroke="#000000" stroke-width="0" stroke-linecap="round"/><path d="M318.74225,144.87174l-0.53678,44.55301l-8.58854,-0.35785l-0.17893,-44.01623z" fill="#1a2316" stroke="#000000" stroke-width="0" stroke-linecap="round"/><path d="M389.86603,142.54568l122.81886,-0.53678l-0.17892,44.59774l-127.93335,1.78927l-0.17893,-45.53712z" fill="#1a2316" stroke="#000000" stroke-width="0" stroke-linecap="round"/><path d="M288.49915,134.76232l-307.80048,-0.00001l-3.93642,-6.79925l323.35646,-2.14713l-2.86285,8.94639l310.6186,-3.22071l-4.65213,7.33604l-315.89696,1.78927z" fill="#211104" stroke="#000000" stroke-width="0" stroke-linecap="round"/><path d="M107.3795,202.48648l0.53678,-68.17148l67.63469,0.71571l-1.07357,67.99256z" fill="#1a2316" stroke="#000000" stroke-width="0" stroke-linecap="round"/><path d="M218.75039,134.49394l-1.25249,35.78555l-31.67021,0.17892l0.17892,-35.78555z" fill="#1a2316" stroke="#000000" stroke-width="0" stroke-linecap="round"/><path d="M249.67797,150.84766c0.13497,0.35211 0.47621,0.60205 0.87581,0.60205c0.51782,0 0.94088,-0.42378 0.94088,-0.9416c0,-0.24788 -0.09544,-0.47408 -0.25254,-0.64173c0.9659,-1.6818 4.0331,-1.99482 5.7119,-1.99482c5.1874,0 7.97042,2.85771 10.60663,7.11752c0.38324,2.06596 1.32189,4.75002 0.55423,6.8636c-1.65437,4.55491 -6.33749,4.84348 -10.53099,3.98722c-2.12721,-1.1513 -4.3387,-2.0349 -6.45676,-2.5085c-0.16252,-0.03634 -0.32666,-0.07036 -0.49043,-0.09989c-0.49066,-0.56174 -0.82521,-1.2936 -1.05867,-2.05864c-1.07033,-3.50759 -1.92265,-7.30667 0.09995,-10.3252z" fill="#ffffff" stroke="#000000" stroke-width="2" stroke-linecap="butt"/><path d="M230.22227,151.46892c1.20825,-0.66414 2.89691,-1.56917 4.35236,-1.33662c0.5127,0.08192 1.35174,0.82326 1.79406,1.13244c3.29567,2.30358 4.99178,6.79671 5.07933,10.73102c-1.22376,2.9748 -6.0118,4.44515 -8.76944,5.30654c-1.01486,0.31701 -2.77141,0.65707 -3.79573,0.06515c-2.67742,-1.5472 -3.09016,-6.82846 -3.50568,-9.61792c-0.58839,-1.14546 -0.84486,-2.35164 -0.24246,-3.4882c1.6901,-0.92449 3.39937,-1.86445 5.08755,-2.79241z" fill="#ffffff" stroke="#000000" stroke-width="2" stroke-linecap="butt"/><path d="M237.03047,159.53873c0,-0.93207 0.75559,-1.68766 1.68766,-1.68766c0.93207,0 1.68766,0.75559 1.68766,1.68766c0,0.93207 -0.75559,1.68766 -1.68766,1.68766c-0.93207,0 -1.68766,-0.75559 -1.68766,-1.68766z" fill="#000000" stroke="none" stroke-width="0.5" stroke-linecap="butt"/><path d="M263.99408,158.23153c0,-0.93207 0.75559,-1.68766 1.68766,-1.68766c0.93207,0 1.68766,0.75559 1.68766,1.68766c0,0.93207 -0.75559,1.68766 -1.68766,1.68766c-0.93207,0 -1.68766,-0.75559 -1.68766,-1.68766z" fill="#000000" stroke="none" stroke-width="0.5" stroke-linecap="butt"/><path d="M209.49632,129.34735c0.41931,-0.8386 1.25791,-0.41931 1.25791,-0.41931l0.42861,0.2143c1.72322,0.86161 3.50579,1.53175 5.26411,2.31679c3.32187,1.00161 5.77407,3.24248 8.72606,5.00256c5.63796,3.36155 11.28632,6.66609 16.75641,10.31225c0,0 0.78012,0.52009 0.26004,1.30021c-0.52009,0.78012 -1.30021,0.26004 -1.30021,0.26004c-5.44316,-3.62935 -11.0659,-6.91415 -16.67538,-10.26116c-2.84933,-1.70011 -5.21492,-3.89953 -8.41844,-4.85553c-1.82305,-0.80683 -3.66707,-1.50588 -5.4512,-2.39794l-0.42861,-0.2143c0,0 -0.8386,-0.41931 -0.41931,-1.25791z" fill="#000000" stroke="none" stroke-width="0.5" stroke-linecap="butt"/><path d="M275.20762,124.12639c0.49692,0.79508 -0.29815,1.292 -0.29815,1.292l-0.84559,0.52837c-1.36346,0.90805 -2.44006,1.93401 -3.59594,3.08989c-1.70485,1.70485 -3.46509,3.33584 -5.51727,4.62846c-2.44956,1.54292 -5.24654,2.60382 -7.5143,4.43243c-3.46696,2.79557 -6.43054,6.13681 -9.99964,8.81364c0,0 -0.75007,0.56255 -1.31263,-0.18752c-0.56255,-0.75007 0.18752,-1.31263 0.18752,-1.31263c3.54375,-2.65781 6.48261,-5.98957 9.93085,-8.75949c4.1707,-3.35026 9.0459,-5.08724 12.89951,-8.94085c1.24858,-1.24858 2.43185,-2.35642 3.90478,-3.3393l0.86886,-0.54316c0,0 0.79508,-0.49692 1.292,0.29815z" fill="#000000" stroke="none" stroke-width="0.5" stroke-linecap="butt"/><path d="M230.15224,190.29473c-0.75,0 -0.75,-0.75 -0.75,-0.75v-0.44879c0,-2.49197 -0.70681,-4.82196 -1.16436,-7.26226c-0.23044,-1.15213 -0.47699,-2.27665 -0.57223,-3.44802c-0.0343,-0.42195 -0.12762,-0.84175 -0.11418,-1.26488c0.02991,-0.94152 0.25664,-1.31473 0.54224,-2.17225c0.08527,-0.25603 0.13799,-0.52338 0.24038,-0.77307c0.48715,-1.188 1.28864,-2.15937 2.06926,-3.15681c0.80795,-1.03237 1.62705,-2.05137 2.39297,-3.11582c0.21661,-0.30104 0.36773,-0.65355 0.62574,-0.91997c0.4934,-0.5095 1.20781,-0.75679 1.73662,-1.22944c0.2752,-0.24597 0.45106,-0.5895 0.72457,-0.83735c0.41617,-0.37713 1.246,-0.7748 1.72091,-1.02672c1.55199,-0.49051 3.11957,-0.83713 4.6909,-1.26551c1.03703,-0.28271 2.09788,-0.64306 3.1616,-0.8021c1.13831,-0.1702 2.28689,-0.12253 3.43226,-0.12226c0.96621,0.00023 1.99498,0.00347 2.95183,0.11772c1.49293,0.17826 2.95673,0.62003 4.31678,1.24073c0.39486,0.18021 1.71751,0.75048 2.11756,1.00779c0.27195,0.17491 0.4989,0.41144 0.74836,0.61717c0.59094,0.51218 1.19709,1.00655 1.79305,1.51288c0.39765,0.33784 0.83172,0.63989 1.18061,1.0279c0.3522,0.39169 0.59998,0.86603 0.90715,1.29396c0.71752,0.99961 1.49387,1.9904 1.9917,3.12771c0.20945,0.47851 0.31664,0.99557 0.48219,1.49099c0.35353,1.05802 0.75029,2.12184 1.18693,3.14906c0.12599,0.29638 0.83316,1.71398 0.96957,2.20478c0.13854,0.49846 0.20337,1.01461 0.31727,1.51927c0.27238,1.20691 0.52281,2.41891 0.40645,3.67593c-0.03575,0.38621 -0.20186,0.749 -0.30279,1.1235c0,0 -0.20073,0.72264 -0.92337,0.52191c-0.72264,-0.20074 -0.5219,-0.92337 -0.5219,-0.92337c0.08607,-0.29868 0.23067,-0.58641 0.25819,-0.89602c0.09615,-1.08168 -0.14521,-2.13126 -0.37893,-3.16801c-0.10614,-0.47083 -0.16399,-0.95274 -0.29055,-1.41851c-0.19768,-0.72759 -0.62523,-1.37238 -0.9201,-2.06629c-0.45006,-1.05912 -0.8608,-2.15669 -1.22376,-3.24783c-0.15077,-0.45325 -0.24377,-0.92755 -0.43407,-1.36567c-0.45074,-1.03775 -1.1829,-1.93601 -1.8327,-2.84903c-0.27441,-0.38557 -0.49035,-0.8162 -0.80605,-1.16876c-0.30249,-0.33779 -0.68599,-0.59321 -1.03305,-0.88502c-0.59994,-0.50442 -1.20487,-1.00306 -1.79721,-1.5164c-0.19933,-0.16826 -0.37852,-0.3638 -0.59799,-0.5048c-0.26977,-0.17332 -1.7574,-0.82439 -1.92149,-0.89953c-1.21836,-0.55794 -2.53447,-0.95649 -3.8735,-1.11538c-0.39272,-0.0466 -0.79038,-0.03071 -1.18529,-0.05175c-1.56301,-0.08328 -3.21928,-0.18658 -4.77214,0.0472c-1.01266,0.15246 -2.02134,0.49934 -3.00916,0.76863c-0.74345,0.20268 -1.47525,0.44961 -2.22529,0.62635c-0.25655,0.06045 -0.5254,0.05488 -0.78279,0.11162c-0.51151,0.11276 -1.00052,0.31048 -1.50106,0.46483c-0.23249,0.12483 -1.0739,0.54894 -1.30837,0.76842c-0.27248,0.25507 -0.4544,0.59832 -0.73398,0.84558c-0.59108,0.52275 -1.08038,0.55257 -1.62926,1.12667c-0.20965,0.21929 -0.32082,0.51542 -0.49621,0.76296c-0.77015,1.08698 -1.61086,2.1186 -2.43145,3.16714c-0.68931,0.8808 -1.43205,1.7369 -1.85759,2.78956c-0.0895,0.22141 -0.13282,0.45893 -0.20841,0.68547c-0.21019,0.62996 -0.4554,1.07906 -0.46752,1.7546c-0.00656,0.36553 0.07901,0.72697 0.11021,1.09123c0.0955,1.11524 0.33012,2.18559 0.54973,3.28372c0.47589,2.53812 1.19175,4.95272 1.19175,7.54757v0.44879c0,0 0,0.75 -0.75,0.75z" fill="#000000" stroke="none" stroke-width="0.5" stroke-linecap="butt"/><path d="M255.78728,146.84067c0.1819,0.72761 -0.5457,0.9095 -0.5457,0.9095l-0.24915,0.06185c-2.82657,0.6041 -3.24103,0.62131 -5.00889,2.87149c0,0 -0.46337,0.58974 -1.05311,0.12637c-0.58974,-0.46337 -0.12637,-1.05311 -0.12637,-1.05311c1.90753,-2.42758 2.88382,-2.76888 5.87409,-3.41146l0.19964,-0.05035c0,0 0.72761,-0.1819 0.90951,0.5457z" fill="#000000" stroke="none" stroke-width="0.5" stroke-linecap="butt"/></g></g></g></svg>