<svg version="1.1" xmlns="http://www.w3.org/2000/svg" xmlns:xlink="http://www.w3.org/1999/xlink" width="2878.25006" height="1619.57958" viewBox="0,0,2878.25006,1619.57958"><g transform="translate(1119.12503,629.78979)"><g stroke-miterlimit="10"><path d="M161.97012,191.37576c0,-0.75 0.75,-0.75 0.75,-0.75h0.67325c0.91663,0 1.83325,0 2.74988,0c1.61664,-2.29749 3.16625,-4.65393 4.69637,-7.0584c0,0 0.40265,-0.63275 1.0354,-0.23009c0.63275,0.40265 0.23009,1.0354 0.23009,1.0354c-1.35192,2.12444 -2.71934,4.21111 -4.13373,6.25309c2.53713,0 5.07426,0 7.61139,0c10.40107,0.00017 20.71649,-1.52893 30.95658,-3.29446c6.25502,-1.07845 12.69412,-1.31454 19.0054,-2.11997c2.83053,-0.36122 5.59913,-1.15783 8.38631,-1.06769v-0.25037h1.5c0.41421,0 0.75,0.33579 0.75,0.75c0,0.26446 -0.13687,0.49695 -0.34365,0.63049l-0.61731,0.41154c-1.36461,1.3616 -2.96159,2.49011 -4.39425,3.79712c-3.33943,2.50567 -7.24685,5.21274 -9.57187,8.80146c-3.00507,4.63838 -5.41644,9.81428 -8.58192,14.35213c-5.78769,8.2956 -6.96964,17.7684 -9.71443,27.3323c-2.72087,9.4779 -3.76856,18.88281 -4.92867,28.63909c0.00421,4.73586 -0.58199,9.53 -0.22561,14.26922c0.40738,5.41743 1.75735,10.59491 3.12759,15.83711c1.65456,9.7674 2.53977,19.46284 5.27261,29.08387c0.41615,0.72234 1.99258,2.65808 1.31777,3.62679c-0.53776,0.77197 -4.48438,0.28844 -5.3039,0.28844c-6.07859,0 -12.159,-0.22442 -18.24865,-0.22442c-10.23561,0 -20.46835,0.44883 -30.67415,0.44883c-9.79563,0 -19.59126,0 -29.38689,0c-10.10263,0 -20.20527,0 -30.3079,0c-6.63016,0 -13.26032,0 -19.89048,0c-3.46765,0 -6.48517,0.47842 -9.3964,-1.69756c-5.60198,-7.75211 -10.97501,-15.96056 -10.9568,-25.83161c1.44746,-7.37739 3.28424,-15.27194 11.00608,-18.34785c2.06172,-0.82126 4.72774,-1.04975 6.94506,-1.26019c9.83532,-0.91974 19.85021,0.97497 29.72866,0.97894c4.78292,0.38607 9.66358,0.13721 14.42392,0.67825c2.01939,0.22951 4.20424,0.90743 6.20051,1.34534c0.51158,0.11222 1.03568,0.1782 1.53444,0.33802c0.54969,0.17614 1.31624,1.24194 1.57269,0.72481c0.32032,-0.64591 -0.04555,-2.85523 -0.04177,-3.57395c1.02075,-9.63274 1.42464,-19.78604 3.36172,-29.36337c0.06962,-5.52585 0.63433,-11.86656 2.83457,-16.98634c1.76151,-4.0989 4.36405,-7.99472 6.51363,-11.90445c2.04676,-3.77866 4.01848,-7.74144 6.51067,-11.25428c3.33352,-4.69871 7.74631,-8.62575 11.81894,-12.66449c3.48115,-3.45137 6.50552,-7.1335 9.30632,-10.99277c-0.55941,0 -1.79207,0 -2.35148,0c0,0 -0.75,0 -0.75,-0.75z" fill="#ffffff" stroke="none" stroke-width="0.5" stroke-linecap="butt"/><path d="M-1119.12503,989.78979v-1619.57958h2878.25006v1619.57958z" fill="none" stroke="#000000" stroke-width="0" stroke-linecap="butt"/><path d="M483.11072,189.96332c0,0.75 -0.75,0.75 -0.75,0.75c-0.55941,0 -1.79207,0 -2.35148,0c2.8008,3.85927 5.82517,7.5414 9.30632,10.99277c4.07263,4.03874 8.48542,7.96578 11.81894,12.66449c2.49219,3.51284 4.46391,7.47562 6.51067,11.25428c2.14958,3.90973 4.75212,7.80555 6.51363,11.90445c2.20024,5.11978 2.76495,11.46049 2.83457,16.98634c1.93708,9.57733 2.34097,19.73063 3.36172,29.36337c0.00378,0.71872 -0.36209,2.92804 -0.04177,3.57395c0.25645,0.51713 1.023,-0.54867 1.57269,-0.72481c0.49876,-0.15982 1.02286,-0.2258 1.53444,-0.33802c1.99627,-0.43791 4.18112,-1.11583 6.20051,-1.34534c4.76034,-0.54104 9.641,-0.29218 14.42392,-0.67825c9.87845,-0.00397 19.89334,-1.89868 29.72866,-0.97894c2.21732,0.21044 4.88334,0.43893 6.94506,1.26019c7.72184,3.07591 9.55862,10.97046 11.00608,18.34785c0.01821,9.87105 -5.35482,18.0795 -10.9568,25.83161c-2.91123,2.17598 -5.92875,1.69756 -9.3964,1.69756c-6.63016,0 -13.26032,0 -19.89048,0c-10.10263,0 -20.20527,0 -30.3079,0c-9.79563,0 -19.59126,0 -29.38689,0c-10.2058,0 -20.43854,-0.44883 -30.67415,-0.44883c-6.08965,0 -12.17006,0.22442 -18.24865,0.22442c-0.81952,0 -4.76614,0.48353 -5.3039,-0.28844c-0.67481,-0.96871 0.90162,-2.90445 1.31777,-3.62679c2.73284,-9.62103 3.61805,-19.31647 5.27261,-29.08387c1.37024,-5.2422 2.72021,-10.41968 3.12759,-15.83711c0.35638,-4.73922 -0.22982,-9.53336 -0.22561,-14.26922c-1.16011,-9.75628 -2.2078,-19.16119 -4.92867,-28.63909c-2.74479,-9.5639 -3.92674,-19.0367 -9.71443,-27.3323c-3.16548,-4.53785 -5.57685,-9.71375 -8.58192,-14.35213c-2.32502,-3.58872 -6.23244,-6.29579 -9.57187,-8.80146c-1.43266,-1.30701 -3.02964,-2.43552 -4.39425,-3.79712l-0.61731,-0.41154c-0.20678,-0.13354 -0.34365,-0.36603 -0.34365,-0.63049c0,-0.41421 0.33579,-0.75 0.75,-0.75h1.5v0.25037c2.78718,-0.09014 5.55578,0.70647 8.38631,1.06769c6.31128,0.80543 12.75038,1.04152 19.0054,2.11997c10.24009,1.76553 20.55551,3.29463 30.95658,3.29446c2.53713,0 5.07426,0 7.61139,0c-1.41439,-2.04198 -2.78181,-4.12865 -4.13373,-6.25309c0,0 -0.40266,-0.63275 0.23009,-1.0354c0.63275,-0.40266 1.0354,0.23009 1.0354,0.23009c1.53012,2.40447 3.07973,4.76091 4.69637,7.0584c0.91663,0 1.83325,0 2.74988,0h0.67325c0,0 0.75,0 0.75,0.75z" fill="#ffffff" stroke="none" stroke-width="0.5" stroke-linecap="butt"/><g><path d="M286.09533,130.68068l-0.38361,4.35554l3.30424,2.74443l291.74808,-14.71448l3.64784,81.54284l-260.16396,13.37387l-1.54803,-18.44114l-319.81352,12.86083l-3.01944,-67.49577z" fill="#ffffff" stroke="#000000" stroke-width="0" stroke-linecap="round"/><path d="M277.26954,201.46314l-2.83355,-59.33666l27.15385,-1.57294l2.64681,59.16592z" fill="#50371e" stroke="#000000" stroke-width="0" stroke-linecap="round"/><path d="M314.86925,141.12366l1.45486,44.53249l-8.59595,0.02633l-2.14586,-43.96426z" fill="#1a2316" stroke="#000000" stroke-width="0" stroke-linecap="round"/><path d="M385.81802,135.62136l122.67216,-6.02509l1.81436,44.56118l-127.72557,7.5049l-2.21383,-45.48363z" fill="#1a2316" stroke="#000000" stroke-width="0" stroke-linecap="round"/><path d="M284.20457,132.37593l-307.49295,13.75578l-4.23635,-6.61654l322.93743,-16.59598l-2.46017,9.06539l310.16432,-17.09923l-4.31963,7.53662l-315.50138,15.90511z" fill="#211104" stroke="#000000" stroke-width="0" stroke-linecap="round"/><path d="M106.29252,208.12677l-2.51038,-68.12736l67.5991,-2.30764l1.96613,67.97261z" fill="#1a2316" stroke="#000000" stroke-width="0" stroke-linecap="round"/><path d="M214.51351,135.22493l0.34804,35.80577l-31.63057,1.5941l-1.42054,-35.75779z" fill="#1a2316" stroke="#000000" stroke-width="0" stroke-linecap="round"/><path d="M246.14104,150.18014c0.15057,0.34573 0.50264,0.58017 0.90184,0.56231c0.5173,-0.02314 0.921,-0.46541 0.89786,-0.98271c-0.01108,-0.24763 -0.11653,-0.46934 -0.28097,-0.6298c0.88977,-1.72329 3.93992,-2.17307 5.61704,-2.2481c5.18222,-0.23183 8.09017,2.49865 10.91412,6.63639c0.47519,2.04677 1.53285,4.6862 0.86041,6.83197c-1.44916,4.62429 -6.1147,5.12187 -10.34228,4.45387c-2.17654,-1.05508 -4.42531,-1.83897 -6.56242,-2.21744c-0.16398,-0.02904 -0.32948,-0.05569 -0.4944,-0.07787c-0.51527,-0.53925 -0.8822,-1.25543 -1.14961,-2.00927c-1.22602,-3.45625 -2.24727,-7.21345 -0.36159,-10.31935z" fill="#ffffff" stroke="#000000" stroke-width="2" stroke-linecap="butt"/><path d="M226.73255,151.67026c1.17736,-0.71747 2.82389,-1.69707 4.28828,-1.52979c0.51585,0.05893 1.38718,0.76203 1.84288,1.05113c3.39533,2.15399 5.29054,6.56683 5.55383,10.4933c-1.08959,3.02652 -5.80714,4.70938 -8.52353,5.69315c-0.99968,0.36205 -2.73928,0.78027 -3.78903,0.23472c-2.74389,-1.426 -3.39224,-6.68354 -3.93201,-9.45164c-0.63899,-1.11802 -0.94911,-2.31153 -0.39811,-3.47388c1.6471,-0.9991 3.31265,-2.01451 4.95767,-3.01699z" fill="#ffffff" stroke="#000000" stroke-width="2" stroke-linecap="butt"/><path d="M233.89459,159.42775c-0.04165,-0.93114 0.67941,-1.71974 1.61055,-1.7614c0.93114,-0.04165 1.71974,0.67941 1.7614,1.61055c0.04165,0.93114 -0.67941,1.71974 -1.61055,1.7614c-0.93114,0.04165 -1.71974,-0.67941 -1.7614,-1.61055z" fill="#000000" stroke="none" stroke-width="0.5" stroke-linecap="butt"/><path d="M260.77284,156.91683c-0.04165,-0.93114 0.67941,-1.71974 1.61055,-1.7614c0.93114,-0.04165 1.71974,0.67941 1.7614,1.61055c0.04165,0.93114 -0.67941,1.71974 -1.61055,1.7614c-0.93114,0.04165 -1.71974,-0.67941 -1.7614,-1.61055z" fill="#000000" stroke="none" stroke-width="0.5" stroke-linecap="butt"/><path d="M205.03868,130.49705c0.38141,-0.8565 1.23791,-0.47511 1.23791,-0.47511l0.43776,0.19493c1.76,0.78374 3.57074,1.37354 5.36239,2.07922c3.36331,0.85215 5.91321,2.98119 8.94091,4.60759c5.78256,3.10623 11.57296,6.15504 17.20053,9.55309c0,0 0.80258,0.48471 0.31789,1.28729c-0.48471,0.80258 -1.28729,0.31789 -1.28729,0.31789c-5.59992,-3.38247 -11.36384,-6.4127 -17.1173,-9.50567c-2.92246,-1.57107 -5.38398,-3.66258 -8.62703,-4.47445c-1.85729,-0.72455 -3.7307,-1.34049 -5.55292,-2.15193l-0.43776,-0.19493c0,0 -0.8565,-0.38141 -0.47511,-1.23791z" fill="#000000" stroke="none" stroke-width="0.5" stroke-linecap="butt"/><path d="M270.451,122.34463c0.53196,0.77208 -0.24011,1.30403 -0.24011,1.30403l-0.82113,0.56563c-1.32152,0.96808 -2.35119,2.04113 -3.45426,3.24751c-1.62696,1.77934 -3.31255,3.48736 -5.30491,4.87041c-2.37816,1.65085 -5.12493,2.83569 -7.3087,4.76382c-3.33856,2.94772 -6.14986,6.41806 -9.59576,9.25172c0,0 -0.72418,0.59551 -1.3197,-0.12867c-0.59551,-0.72418 0.12867,-1.3197 0.12867,-1.3197c3.42143,-2.81353 6.20846,-6.2733 9.52946,-9.19455c4.01681,-3.5333 8.80951,-5.48642 12.48705,-9.5084c1.19153,-1.30313 2.32411,-2.46275 3.75164,-3.51047l0.84372,-0.58145c0,0 0.77208,-0.53196 1.30403,0.24011z" fill="#000000" stroke="none" stroke-width="0.5" stroke-linecap="butt"/><path d="M228.39774,190.46041c-0.74925,0.03352 -0.78277,-0.71573 -0.78277,-0.71573l-0.02006,-0.44834c-0.11137,-2.48948 -0.9216,-4.78555 -1.48775,-7.20297c-0.2817,-1.14068 -0.57826,-2.25306 -0.72575,-3.419c-0.05312,-0.42 -0.16511,-0.83521 -0.17059,-1.25851c-0.0122,-0.94192 0.19763,-1.32489 0.44462,-2.19431c0.07374,-0.25958 0.11446,-0.52902 0.20559,-0.78304c0.43357,-1.20858 1.19085,-2.2148 1.92611,-3.24613c0.76101,-1.06745 1.53375,-2.12203 2.25133,-3.21965c0.20294,-0.31042 0.33816,-0.66933 0.584,-0.94702c0.47014,-0.53104 1.17278,-0.81001 1.67994,-1.30582c0.26393,-0.25802 0.42426,-0.60907 0.68642,-0.86889c0.3989,-0.39535 1.21013,-0.82971 1.67331,-1.1026c1.52852,-0.55938 3.07904,-0.97571 4.62966,-1.47388c1.02336,-0.32877 2.06705,-0.73617 3.12259,-0.94259c1.12957,-0.2209 2.27913,-0.22461 3.42337,-0.27553c0.96525,-0.04295 1.99314,-0.08569 2.95414,-0.01432c1.4994,0.11136 2.98149,0.48727 4.36792,1.04657c0.40252,0.16238 1.74933,0.67297 2.16048,0.91215c0.2795,0.16258 0.51679,0.38873 0.77519,0.58311c0.61324,0.48526 1.24088,0.95205 1.85887,1.43124c0.41235,0.31973 0.85949,0.60208 1.22537,0.97411c0.36935,0.37556 0.63808,0.83835 0.96407,1.25213c0.76148,0.96654 1.58133,1.92165 2.12949,3.03557c0.23063,0.46867 0.36082,0.98042 0.54834,1.46795c0.40046,1.04116 0.84437,2.08619 1.32648,3.09287c0.13911,0.29045 0.90893,1.67503 1.06713,2.15925c0.16068,0.49177 0.24851,1.00451 0.38485,1.50357c0.32605,1.19353 0.63039,2.39313 0.57032,3.65409c-0.01845,0.38742 -0.16819,0.75727 -0.25228,1.13591c0,0 -0.16823,0.73089 -0.89912,0.56265c-0.73089,-0.16824 -0.56264,-0.89912 -0.56264,-0.89912c0.07264,-0.30223 0.20423,-0.59613 0.21789,-0.90666c0.04771,-1.0849 -0.24031,-2.12264 -0.52013,-3.14791c-0.12708,-0.46562 -0.2064,-0.94446 -0.35365,-1.40411c-0.23,-0.71803 -0.68594,-1.34307 -1.01152,-2.02311c-0.49694,-1.03795 -0.95632,-2.11607 -1.36768,-3.18989c-0.17088,-0.44606 -0.28498,-0.91573 -0.49467,-1.34491c-0.49667,-1.01657 -1.26824,-1.88121 -1.95819,-2.76428c-0.29137,-0.37292 -0.52634,-0.79347 -0.85748,-1.13157c-0.31728,-0.32393 -0.71182,-0.56196 -1.07157,-0.83797c-0.62188,-0.4771 -1.24849,-0.94821 -1.86318,-1.43457c-0.20665,-0.15918 -0.3944,-0.34652 -0.61995,-0.47757c-0.27725,-0.16109 -1.79249,-0.74503 -1.95977,-0.81276c-1.24208,-0.50293 -2.57468,-0.84227 -3.91948,-0.94116c-0.39441,-0.029 -0.79096,0.00464 -1.18642,0.00127c-1.56517,-0.01334 -3.2244,-0.04252 -4.76526,0.26042c-1.00483,0.19756 -1.997,0.58918 -2.9718,0.90234c-0.73365,0.2357 -1.45368,0.51509 -2.19507,0.72517c-0.25359,0.07185 -0.52242,0.07831 -0.77702,0.14649c-0.50596,0.13551 -0.98564,0.35488 -1.47879,0.53145c-0.22668,0.1351 -1.04829,0.59638 -1.27272,0.82612c-0.26081,0.26699 -0.42721,0.61803 -0.69546,0.87754c-0.56713,0.54864 -1.05461,0.6003 -1.57728,1.19836c-0.19964,0.22844 -0.29747,0.52924 -0.46162,0.78437c-0.7208,1.12031 -1.51457,2.18847 -2.28748,3.27264c-0.64926,0.91073 -1.353,1.79916 -1.73107,2.86979c-0.07952,0.22519 -0.11218,0.46441 -0.17757,0.6941c-0.18183,0.63872 -0.40672,1.09833 -0.38864,1.77374c0.00978,0.36546 0.11142,0.72271 0.15887,1.08521c0.14525,1.10986 0.42747,2.16865 0.69593,3.25587c0.58884,2.51432 1.4119,4.89451 1.52786,7.48677l0.02006,0.44834c0,0 0.03352,0.74925 -0.71573,0.78277z" fill="#000000" stroke="none" stroke-width="0.5" stroke-linecap="butt"/><path d="M252.06517,145.90412c0.21424,0.71875 -0.50451,0.93298 -0.50451,0.93298l-0.24614,0.07292c-2.79675,0.72982 -3.21003,0.76553 -4.87556,3.09247c0,0 -0.43655,0.60986 -1.04641,0.17331c-0.60986,-0.43655 -0.17331,-1.04641 -0.17331,-1.04641c1.79713,-2.5104 2.7572,-2.89499 5.71576,-3.67057l0.19719,-0.05922c0,0 0.71875,-0.21424 0.93299,0.50451z" fill="#000000" stroke="none" stroke-width="0.5" stroke-linecap="butt"/></g></g></g></svg>