<svg version="1.1" xmlns="http://www.w3.org/2000/svg" xmlns:xlink="http://www.w3.org/1999/xlink" width="375" height="345.09202" viewBox="0,0,375,345.09202"><g transform="translate(-132.5,-7.45399)"><g stroke-miterlimit="10"><path d="M326.71244,171.13753c-0.46679,-0.45344 -0.47475,-0.90688 -0.36213,-1.25079c-0.66708,-0.37079 -1.6018,-0.87341 -1.96745,-1.00896c-0.46692,-0.1731 -0.96523,-0.25284 -1.44308,-0.39505c-0.05509,-0.0164 -0.14486,-0.04504 -0.25891,-0.08204c-0.02745,0.08569 -0.05393,0.17157 -0.0786,0.25783c0,0 -0.36897,1.25454 -1.66036,0.8961c-1.29139,-0.35844 -0.92242,-1.61299 -0.92242,-1.61299c0.02919,-0.0959 0.06159,-0.19114 0.09508,-0.28614c-1.37032,-0.13724 -2.73857,0.18967 -4.01841,0.60582c-0.90788,0.29522 -1.51509,0.42077 -2.32896,0.92504c-0.45458,0.28165 -0.93679,0.65146 -1.37225,1.07033c-0.08034,0.31084 -0.24822,0.52831 -0.24822,0.52831l-0.71174,0.9173c-0.12973,0.14409 -0.25602,0.29268 -0.37878,0.44547c-0.28531,0.74129 -0.18288,1.20737 -0.17393,2.10956c0,0 0,1.30474 -1.34307,1.30474c-0.14432,0 -0.27313,-0.01506 -0.38809,-0.04196c-1.64993,4.29914 -1.32139,9.68619 1.83044,12.78465c0.63055,0.3021 1.23965,0.65075 1.89166,0.90628c0.44753,0.17539 0.92746,0.25968 1.39355,0.38115c0.52141,0.13589 1.03304,0.32621 1.56878,0.39089c0.52529,0.06342 1.05863,-0.01106 1.58794,-0.00978c0.43935,0.00108 0.8838,0.08245 1.31793,0.01685c0.40237,-0.0608 0.76161,-0.28341 1.15367,-0.39034c0.5043,-0.13754 1.05644,-0.12756 1.53148,-0.34199c0.392,-0.17694 0.62746,-0.58945 1.00081,-0.80106c0.51016,-0.28915 1.09612,-0.43095 1.62469,-0.68702c0.90805,-0.43989 2.01135,-1.12536 2.79668,-1.74244c0.30686,-0.24112 0.63674,-0.47773 0.85101,-0.79972c0.26305,-0.3953 0.34998,-0.87843 0.55076,-1.30681c0.21353,-0.45559 0.44611,-0.90295 0.69128,-1.34324c0.25684,-0.46126 0.61245,-0.87359 0.81396,-1.36011c0.1997,-0.48211 0.25537,-1.00933 0.37709,-1.51538c0.14069,-0.58492 0.32992,-1.16184 0.41011,-1.75744c0.12206,-0.90666 -0.08735,-1.76182 -0.21353,-2.65174c-0.06066,-0.42781 -0.04381,-0.87112 -0.17142,-1.2848c-0.11202,-0.36313 -0.35778,-0.6738 -0.53668,-1.0107c-0.1567,-0.22789 -0.77752,-1.16868 -1.20626,-1.70746c-0.32703,0.21609 -1.01482,0.51576 -1.70263,-0.15239zM338.48777,157.00472c0.63709,-0.77601 1.28446,-1.54412 1.94005,-2.30545c0.3947,-0.45837 0.75242,-0.94975 1.18666,-1.37304c0.32683,-0.3186 0.75786,-0.52405 1.0855,-0.84186c0.31332,-0.30393 0.52463,-0.6953 0.82496,-1.01136c0.55198,-0.58087 1.17093,-1.09903 1.72803,-1.67527c0.29141,-0.30142 0.67642,-0.56407 0.81499,-0.95506c0.13245,-0.37375 -0.68309,-1.71312 -0.75534,-1.84111c-0.52837,-0.9361 -1.17654,-1.80409 -1.72956,-2.72663c-0.26044,-0.43447 -0.46562,-0.89805 -0.69666,-1.34794c-0.31,-0.60362 -0.66778,-1.18656 -0.92646,-1.81258c-0.19338,-0.468 -0.21974,-0.99213 -0.42401,-1.45575c-0.2205,-0.50044 -0.58955,-0.92759 -0.84058,-1.41428c-0.24906,-0.48288 -0.40839,-1.00623 -0.65702,-1.48932c-0.26322,-0.51141 -0.61317,-0.97773 -0.87603,-1.48931c-0.02094,-0.04075 -1.35853,-3.07179 -1.37427,-3.11506c-0.24963,-0.68608 -0.38013,-1.41036 -0.64301,-2.09176c-0.16949,-0.43934 -0.43293,-0.83884 -0.6494,-1.25825c-0.146,-0.42552 -0.26059,-0.86246 -0.438,-1.27655c-0.40165,-0.93745 -0.91635,-1.82683 -1.31407,-2.76586c-0.28945,-0.68341 -0.5208,-1.39089 -0.84464,-2.05958c-0.24253,-0.50077 -0.57998,-0.95305 -0.8503,-1.4402c-0.66043,-1.19016 -1.26212,-2.41143 -1.95298,-3.58517c-0.77141,-1.3106 -1.70153,-2.53177 -2.4295,-3.86561c-0.3368,-0.61711 -0.53968,-1.29749 -0.87602,-1.91483c-0.31743,-0.58262 -0.74375,-1.10373 -1.08043,-1.67606c-0.88219,-1.49967 -1.60374,-3.10295 -2.49463,-4.59749c-0.44475,-0.74611 -0.97423,-1.44197 -1.43018,-2.18167c-0.38371,-0.62247 -0.71078,-1.27655 -1.08767,-1.90293c-0.09986,-0.16597 -0.21458,-0.3235 -0.32758,-0.4819c-0.01572,0.14791 -0.02974,0.29553 -0.02974,0.44093c0,0.49644 0,0.99288 0,1.48932c0,1.52031 -0.10088,3.09078 -0.00206,4.60854c0.07719,1.18552 0.2974,2.37194 0.21847,3.55737c-0.07156,1.07476 -0.36988,2.12786 -0.43878,3.20279c-0.10595,1.65299 0.00338,3.3562 0.00338,5.01374c0,1.56023 0.0017,3.12047 0,4.6807c-0.00058,0.53653 -0.04012,1.07424 -0.00338,1.60958c0.03249,0.47341 0.14556,0.93836 0.21049,1.40861c0.14634,1.0599 0.28071,2.1214 0.4364,3.18005c0.00348,0.02364 0.43949,2.98838 0.44083,2.99882c0.07765,0.60793 0.08783,1.22498 0.20437,1.82701c0.09694,0.50075 0.2892,0.97956 0.4338,1.46934c0.08172,0.55631 0.20232,1.10853 0.24517,1.66894c0.05154,0.67411 -0.03873,2.30627 0.002,3.012c0.04514,0.7821 0.17698,1.55807 0.21903,2.34034c0.06692,1.24531 0.06662,2.49571 -0.00029,3.74103c-0.03825,0.71176 -0.17794,1.41597 -0.21903,2.12759c-0.03145,0.54483 0.00143,1.09138 0.00167,1.63708c0.00075,1.70207 0.00097,3.40415 0,5.10622c-0.00027,0.47477 -0.03068,0.95039 -0.00167,1.42432c0.04354,0.71147 0.18166,1.41577 0.21903,2.12759c0.07301,1.39082 -0.13395,2.78227 -0.21903,4.17244c-0.01601,0.26152 -0.00008,1.1311 0.00637,1.88911c0.24207,0.07955 0.46126,0.15081 0.63699,0.20355c0.53807,0.1615 1.09782,0.25846 1.623,0.45599c0.62895,0.23656 2.2122,1.09523 2.90601,1.50032c3.72473,-3.3326 6.64009,-7.45871 10.22512,-10.94141zM320.40749,163.76715c0.07816,-1.30387 0.29203,-2.60829 0.21903,-3.91244c-0.03984,-0.71168 -0.17637,-1.41605 -0.21903,-2.12759c-0.03101,-0.51722 -0.00138,-1.03621 -0.00167,-1.55432c-0.00093,-1.70207 -0.00073,-3.40415 0,-5.10622c0.00025,-0.58902 -0.03166,-1.17894 0.00167,-1.76707c0.04032,-0.71165 0.18012,-1.41586 0.21903,-2.12759c0.06353,-1.16262 0.06323,-2.33016 -0.00029,-3.49278c-0.04274,-0.78223 -0.1747,-1.5582 -0.21903,-2.34035c-0.05556,-0.98027 0.07057,-1.96577 0.002,-2.94527c-0.0308,-0.43999 -0.12857,-0.87312 -0.19285,-1.30969c-0.14741,-0.5031 -0.34329,-0.99511 -0.44223,-1.50928c-0.12709,-0.66039 -0.14725,-1.33609 -0.23362,-2.00265c-0.12806,-0.98837 -0.29023,-1.97228 -0.43523,-2.95843c-0.15677,-1.06621 -0.29394,-2.13504 -0.43963,-3.20272c-0.07149,-0.52391 -0.19131,-1.04268 -0.22749,-1.57c-0.04096,-0.59686 -0.00276,-1.19637 -0.00337,-1.79456c-0.0016,-1.56023 0,-3.12047 0,-4.6807c0,-1.71915 -0.10726,-3.48446 0.00337,-5.1987c0.06888,-1.06731 0.36147,-2.11311 0.43722,-3.17998c0.07693,-1.0834 -0.15063,-2.16701 -0.21955,-3.25091c-0.09961,-1.5665 -0.00205,-3.18362 -0.00205,-4.75285c0,-0.49644 0,-0.99288 0,-1.48932c0,-0.49644 -0.0801,-0.99902 0,-1.48932c0.15783,-0.96606 -0.24813,-2.5497 0.70932,-2.85242c1.22894,-0.38855 2.48219,0.80352 3.55451,1.50432c0.52471,0.34291 0.74248,0.99618 1.07304,1.51991c0.39538,0.6264 0.71388,1.29628 1.10241,1.92671c0.46399,0.75287 1.00155,1.46195 1.45403,2.2214c0.89426,1.50089 1.61976,3.1102 2.50543,4.61603c0.3467,0.58947 0.78262,1.12809 1.10966,1.72808c0.33646,0.61727 0.54003,1.29732 0.87603,1.91483c0.71309,1.31055 1.63139,2.50676 2.38867,3.79371c0.70307,1.19482 1.31785,2.43671 1.98917,3.64864c0.28786,0.51966 0.64309,1.0045 0.9018,1.53844c0.34573,0.71356 0.59809,1.46643 0.90739,2.1956c0.39822,0.93883 0.91169,1.8287 1.31407,2.76586c0.17774,0.41397 0.292,0.85104 0.438,1.27655c0.22156,0.43162 0.49027,0.8433 0.66468,1.29487c0.27235,0.70517 0.41334,1.45307 0.67102,2.16342c0.35262,0.97213 0.77867,1.92058 1.25382,2.84218c0.26358,0.51123 0.61282,0.97791 0.87603,1.48932c0.24864,0.48309 0.40879,1.00602 0.65702,1.48931c0.27539,0.53616 0.6683,1.01371 0.9115,1.56437c0.21443,0.4855 0.25068,1.0321 0.452,1.52287c0.22639,0.55188 0.55157,1.06046 0.8256,1.59157c0.20697,0.40114 0.38432,0.81775 0.61738,1.20517c0.57003,0.94755 1.24513,1.83559 1.77458,2.8051c0.26895,0.49249 0.60924,0.96392 0.75487,1.50318c0.19156,0.70933 0.43279,1.47795 0.24185,2.18744c-0.3587,1.33289 -2.27637,2.83171 -3.15118,3.75244c-0.33379,0.35132 -0.57934,0.77794 -0.92709,1.11623c-0.33345,0.32439 -0.77029,0.53666 -1.10459,0.86021c-0.37205,0.3601 -0.66803,0.78744 -1.00341,1.18006c-0.67269,0.78748 -1.34293,1.57702 -2.00207,2.37523c-3.54023,3.43919 -6.46534,7.44183 -10.07498,10.79807c0.55774,0.66743 1.16734,1.61473 1.53027,2.14451c0.25913,0.51412 0.60116,0.99614 0.77737,1.54239c0.17582,0.54503 0.18107,1.12873 0.2666,1.69383c0.17852,1.17944 0.37423,2.09743 0.22449,3.30552c-0.08701,0.70196 -0.29832,1.3842 -0.46591,2.07223c-0.15407,0.63252 -0.25148,1.28486 -0.49891,1.88877c-0.2357,0.57526 -0.63699,1.07283 -0.93814,1.61851c-0.21931,0.39739 -0.42629,0.80136 -0.62276,1.20986c-0.26565,0.5523 -0.4101,1.1679 -0.76326,1.67183c-0.35896,0.51219 -0.85345,0.92615 -1.33907,1.32786c-0.86221,0.71325 -2.3135,1.58947 -3.33556,2.08724c-0.46603,0.22696 -0.99111,0.33439 -1.44142,0.58954c-0.43426,0.24605 -0.73238,0.69729 -1.18927,0.90104c-0.61832,0.27574 -1.31914,0.32517 -1.97264,0.50902c-0.49589,0.1395 -0.96404,0.38508 -1.4744,0.4607c-0.5761,0.08537 -1.16545,0.01572 -1.74821,0.01685c-0.63873,0.00123 -1.2824,0.06754 -1.91615,-0.00978c-0.31527,-0.03846 -3.2056,-0.76649 -3.60791,-0.93001c-0.85734,-0.34845 -1.659,-0.81421 -2.4885,-1.22131c-5.1761,-4.98541 -4.93704,-13.83473 -0.72695,-19.52955c0.02361,-0.05241 0.04832,-0.10607 0.07419,-0.16107c0.69179,-1.47024 2.16759,-2.88257 3.56129,-3.74277c1.07992,-0.66655 1.75274,-0.82355 2.92724,-1.20255c1.66658,-0.53778 3.41608,-0.89768 5.18927,-0.71998c-0.02593,-0.43342 -0.05436,-0.86734 -0.02849,-1.29862z" fill="#00ff2b" stroke="none" stroke-width="0.5"/><path d="M317.66706,178.09899c0.15081,-0.37244 0.4505,-0.60533 0.4505,-0.60533c1.34206,-0.92636 2.48391,-2.27585 4.42507,-0.5339c0.85019,0.76294 0.97322,5.50894 0.10804,6.38882c-3.11956,3.17255 -5.98457,-0.80386 -5.51544,-3.77667c0.07482,-0.47413 0.24964,-1.02717 0.53184,-1.47291z" fill="#00ff2b" stroke="none" stroke-width="0.5"/><path d="M325.60353,185.72662c0,0 -0.63675,-1.14879 0.54578,-1.76736c1.18253,-0.61858 1.81927,0.53021 1.81927,0.53021c3.06625,5.54648 8.0365,9.64697 10.92027,15.26434l0.83094,1.21084c0.1487,0.21 0.23576,0.46442 0.23576,0.73859c0,0.32558 -0.12276,0.62331 -0.32576,0.85189c0.81369,0.9646 1.61207,1.81283 1.98464,1.89449c0.8064,0.17674 1.34077,-0.94518 2.05852,-1.34362c0.42455,-0.20547 0.86397,-0.38421 1.27366,-0.61641c0.46602,-0.26414 0.87328,-0.62153 1.34847,-0.86979c0.91854,-0.4799 1.93247,-0.77588 2.84105,-1.27335c0.75155,-0.41149 1.47106,-0.8764 2.22011,-1.29217c0.768,-0.4263 1.56784,-0.79754 2.33007,-1.23352c0.98916,-0.56577 1.90913,-1.24957 2.93517,-1.74952c1.32344,-0.64485 1.82302,-0.75614 2.7016,-1.17178c-0.04136,-0.00119 -0.08264,-0.00296 -0.12384,-0.00531v0.02898h-2.40909v0c-0.74176,0 -1.34307,-0.58415 -1.34307,-1.30474c0,-0.54243 0.34073,-1.00754 0.82561,-1.20438l1.89648,-0.81885c5.00212,-2.78077 10.07014,-5.36991 15.40862,-7.47981c2.80367,-1.10808 5.86293,-1.49907 8.73744,-2.54366c0.37192,-0.17808 0.77241,-0.30842 1.11577,-0.53425c0.46191,-0.30381 0.82456,-0.73505 1.28314,-1.04356c0.48754,-0.32798 1.04994,-0.53996 1.54413,-0.85843c0.30253,-0.19496 0.94213,-0.73926 1.48204,-1.17727c-0.39337,-0.00026 -0.76738,-0.0557 -0.94608,-0.05578c-0.63472,-0.0003 -1.27034,-0.0343 -1.90418,-0.00162c-0.73264,0.03777 -1.45723,0.17907 -2.19008,0.21275c-1.449,0.06657 -2.90401,-0.08888 -4.35184,-0.00166c-0.68872,0.04149 -2.52579,0.42689 -3.14954,0.42875c-0.62017,0.00185 -1.22829,-0.17821 -1.8473,-0.21523c-0.57986,-0.03467 -1.16292,0.03366 -1.74288,0.00052c-0.65993,-0.03771 -1.31133,-0.17222 -1.97107,-0.21276c-1.75181,-0.10765 -3.52464,0.1039 -5.27712,-0.00128c-0.51522,-0.03093 -1.02204,-0.14183 -1.53305,-0.21275c-0.57258,0.00065 -1.14597,0.0316 -1.71773,0.00194c-0.77748,-0.04032 -1.54701,-0.21139 -2.3256,-0.21162c-0.56834,-0.00017 -1.12411,0.17393 -1.69122,0.21044c-0.53767,0.03461 -1.07769,0.00209 -1.61652,0.00253c-1.75206,0.0014 -3.50413,0 -5.25619,0c-1.28232,0 -2.56754,-0.08729 -3.84694,-0.00328c-0.51503,0.03382 -1.01816,0.17703 -1.53305,0.21275c-0.51363,0.03562 -1.03101,-0.03251 -1.5448,0.00076c-0.58726,0.03804 -1.1648,0.17472 -1.75207,0.21276c-0.50988,0.03303 -1.02317,-0.03303 -1.53305,0c-0.58726,0.03804 -1.16477,0.17522 -1.75207,0.21276c-1.12044,0.0716 -2.24572,0.00792 -3.36857,0.00253c-0.58275,-0.00281 -1.1723,0.06983 -1.74819,-0.01685c-0.52716,-0.07935 -1.01575,-0.31708 -1.52363,-0.47563c0,0 -1.27414,-0.41259 -0.84943,-1.65039c0.42471,-1.23778 1.69886,-0.82519 1.69886,-0.82519c0.36816,0.12514 0.71887,0.31834 1.10447,0.37541c0.43434,0.06429 0.87858,-0.01444 1.31792,-0.01685c1.0672,-0.00586 2.13687,0.07244 3.20166,0.00253c0.58723,-0.03856 1.1648,-0.17472 1.75207,-0.21276c0.50988,-0.03303 1.02317,0.03303 1.53305,0c0.58726,-0.03804 1.1648,-0.17472 1.75207,-0.21276c0.50598,-0.03276 1.0155,0.03586 1.52131,0.00076c0.51489,-0.03574 1.01796,-0.17983 1.53305,-0.21275c0.61443,-0.03927 1.23151,-0.00278 1.84726,-0.00328c1.97106,-0.00161 3.94214,0 5.91322,0c0.99422,0 1.99067,0.06716 2.98266,0.00253c0.60742,-0.03958 1.2041,-0.21494 1.81288,-0.21511c0.8341,-0.00023 1.65961,0.1719 2.49258,0.21393c0.59467,0.03 1.19093,0.00129 1.78641,0.00194c0.51102,0.07092 1.01788,0.18109 1.53305,0.21275c1.73786,0.10678 3.49671,-0.10562 5.23526,-0.00128c0.65981,0.0396 1.31114,0.17504 1.97107,0.21276c0.58607,0.0335 1.17534,-0.03561 1.76124,0.00052c0.55585,0.03428 1.09986,0.20833 1.65683,0.21028c1.00472,0.00354 1.97994,-0.36098 2.98268,-0.42229c1.46658,-0.08967 2.94067,0.06671 4.40847,-0.00166c0.73282,-0.03413 1.45741,-0.1756 2.19008,-0.21275c0.6784,-0.03439 1.35864,-0.00132 2.03797,-0.00162c0.51102,-0.00023 1.02583,-0.06041 1.53305,0c0.95101,0.11328 2.28616,-0.25107 2.82429,0.51904c0.57856,0.82795 0.05557,2.07237 -0.37969,2.97935c-0.34214,0.71292 -1.19231,1.06504 -1.80696,1.57709c-0.38701,0.32242 -0.77313,0.64965 -1.19674,0.92525c-0.48531,0.31576 -1.0417,0.52071 -1.52198,0.84365c-0.47899,0.32206 -0.85832,0.77297 -1.34495,1.08403c-0.47182,0.30158 -1.00821,0.49487 -1.51232,0.74231c-1.10868,0.40485 -2.25572,0.711 -3.40612,0.9991c0.03334,0.11376 0.0512,0.23387 0.0512,0.35803c0,0.52085 -0.31417,0.97043 -0.76845,1.17964l-2.09871,1.01941c-0.63239,0.52503 -1.41347,0.85707 -2.07804,1.34335c-0.46966,0.34366 -0.82835,0.8223 -1.31698,1.14003c-0.76097,0.49483 -1.6348,0.80765 -2.40895,1.28278c-0.65116,0.39965 -1.19643,0.95109 -1.85721,1.33556c-0.48686,0.28328 -1.06379,0.39329 -1.56342,0.65474c-0.46347,0.24253 -0.85035,0.6089 -1.31403,0.85103c-0.51418,0.26851 -1.07931,0.43357 -1.60767,0.67469c-0.70167,0.32021 -1.40577,0.63876 -2.08105,1.00865c-0.45855,0.25118 -0.85668,0.59779 -1.31404,0.85102c-1.21382,0.67207 -2.5401,1.13228 -3.79057,1.73763c-0.96736,0.46829 -1.82772,1.12186 -2.75903,1.65466c-0.78089,0.44673 -1.59941,0.82877 -2.38622,1.26559c-0.76287,0.42352 -1.49562,0.89729 -2.26193,1.31492c-0.9136,0.49789 -1.93111,0.79681 -2.85317,1.27977c-0.45183,0.23666 -0.83621,0.58105 -1.27963,0.83228c-0.43632,0.24722 -0.90296,0.44011 -1.35443,0.66017c-0.64544,0.35829 -2.94714,1.73617 -3.63568,1.63498c-1.84925,-0.27175 -3.10431,-2.67578 -4.16893,-3.87299c-0.79807,-0.89748 -1.61444,-1.77726 -2.44138,-2.64671c-0.30047,-0.17538 -0.47324,-0.41913 -0.47324,-0.41913l-0.20565,-0.29019c-3.53401,-3.67084 -7.22075,-7.1913 -10.46831,-11.12371l-0.37152,-0.65709c0,0 -0.60064,-1.16699 0.60064,-1.7505c1.20127,-0.5835 1.80191,0.5835 1.80191,0.5835l0.06649,0.19395c0.09963,0.12138 0.19973,0.24241 0.30026,0.36311c-0.04155,-0.12579 -0.06398,-0.25988 -0.06398,-0.39907c0,-0.20667 0.04946,-0.40211 0.13751,-0.57577c-0.14166,-0.23762 -0.2801,-0.47769 -0.41499,-0.72047z" fill="#00ff2b" stroke="none" stroke-width="0.5"/><path d="M248.37554,178.39459l0.00307,0.00855c0.21151,-0.02823 0.42299,-0.05681 0.63501,-0.08489c-0.20946,0.00983 -0.41894,0.02703 -0.62843,0.04785zM243.22683,181.84138l0.03188,0.30975l-2.1721,0.211c-0.04977,0.00543 -0.10035,0.00823 -0.15161,0.00823c-0.74176,0 -1.34307,-0.58415 -1.34307,-1.30474c0,-0.52085 0.31417,-0.97043 0.76845,-1.17964l1.04363,-0.50692c-0.65275,-0.08883 -1.15506,-0.63346 -1.15506,-1.29206c0,-0.46007 0.24511,-0.86452 0.6154,-1.09684l1.29672,-0.83981l0.01866,0.0272l0.05222,-0.07008c6.76124,-3.29451 14.33409,-5.65569 20.58672,-9.78691c0.85801,-0.41851 1.76962,-0.74447 2.57836,-1.2471c0.40476,-0.25155 0.71357,-0.63595 1.12858,-0.87121c0.49686,-0.28166 1.07676,-0.40205 1.58366,-0.6663c0.89166,-0.46482 1.67962,-1.0969 2.52279,-1.64044c0.40189,-0.25907 0.83743,-0.47401 1.20757,-0.77444c0.49655,-0.40304 0.8617,-0.95 1.38023,-1.32601c0.42764,-0.31009 0.96482,-0.44621 1.42523,-0.7083c0.45419,-0.25855 0.85909,-0.59374 1.31404,-0.85104c1.36086,-0.7696 2.84403,-1.33379 4.27017,-1.96997c0.40781,-0.18191 0.82038,-0.35859 1.20502,-0.58314c0.70393,-0.41095 1.32952,-0.94645 2.05512,-1.32013c0.44401,-0.22866 0.95808,-0.29703 1.42683,-0.47303c0.95807,-0.35971 1.90876,-0.73888 2.87617,-1.07416c1.70424,-0.59065 3.33439,-1.33365 5.00264,-2.0101c0.4269,-0.34776 0.81698,-0.74329 1.28069,-1.04328c0.42742,-0.27651 0.92442,-0.43563 1.37505,-0.67482c0.61143,-0.32455 1.11615,-0.95315 1.8099,-1.01575c2.53271,-0.22853 3.27084,1.94937 4.35516,3.53841c0.2336,0.34233 0.52163,0.64679 0.79525,0.95988c0.8881,1.01625 1.87233,1.94939 2.80253,2.92945c0.43948,0.46305 0.80351,0.99248 1.26208,1.43771c0.33597,0.32619 0.77615,0.53952 1.11127,0.86654c0.36151,0.35278 0.64152,0.77642 0.96664,1.16117c0.37407,0.44269 0.78258,0.85903 1.13088,1.32114c1.29684,1.72054 2.19707,3.61467 3.35143,5.41366c0.39409,0.61416 0.78496,1.23309 1.23799,1.80761c0.45411,0.5759 0.98493,1.0907 1.47739,1.63606c0,0 0.88441,0.98192 -0.12636,1.8411c-1.01076,0.85918 -1.89517,-0.12275 -1.89517,-0.12275c-0.52957,-0.58936 -1.09999,-1.1463 -1.58869,-1.76809c-0.50631,-0.64421 -0.94718,-1.33519 -1.39013,-2.02204c-1.1154,-1.72958 -1.96846,-3.57068 -3.2188,-5.2243c-0.32605,-0.43122 -0.71121,-0.81724 -1.0592,-1.23197c-0.26694,-0.31814 -0.4859,-0.67692 -0.78539,-0.96642c-0.32601,-0.31512 -0.7537,-0.51953 -1.0788,-0.83553c-0.49326,-0.47946 -0.89247,-1.04304 -1.36604,-1.54088c-0.41886,-0.44034 -0.88961,-0.83218 -1.30938,-1.2717c-0.32413,-0.33939 -2.10386,-2.29286 -2.53911,-2.92382c-0.32765,-0.47498 -0.56669,-1.00289 -0.87603,-1.48931c-0.16101,-0.25317 -0.32343,-0.51031 -0.53343,-0.72696c-0.09657,-0.09963 -0.2377,-0.25556 -0.36759,-0.20257c-0.33222,0.13554 -0.51472,0.4976 -0.8182,0.68632c-0.39241,0.24403 -0.8655,0.35048 -1.25304,0.60174c-0.48509,0.31452 -0.89825,0.72286 -1.34737,1.08429c-1.82807,0.7771 -3.62912,1.59188 -5.50976,2.24508c-0.94773,0.32917 -1.87799,0.70404 -2.81803,1.05343c-0.39312,0.14611 -0.83043,0.18458 -1.20127,0.37802c-0.66785,0.34838 -1.23674,0.85451 -1.88703,1.23296c-0.45525,0.26495 -0.94164,0.47656 -1.42308,0.69344c-1.34822,0.60735 -2.76428,1.12828 -4.05212,1.85967c-0.45447,0.2581 -0.85876,0.5943 -1.31404,0.85104c-0.3856,0.21744 -0.84688,0.30747 -1.20286,0.56825c-0.47255,0.34619 -0.79271,0.85957 -1.24786,1.22711c-0.43876,0.35431 -0.94644,0.61926 -1.42053,0.92763c-0.12426,0.08082 -2.66614,1.7284 -2.7334,1.7637c-0.47219,0.24781 -1.01883,0.34762 -1.48245,0.61026c-0.39253,0.22236 -0.67759,0.5947 -1.06149,0.83085c-0.11124,0.06843 -2.45203,1.19685 -2.67783,1.30601c-4.47233,2.84709 -9.49106,4.90906 -14.4429,7.02926c-0.02588,0.03616 -0.05197,0.06951 -0.07732,0.09983c0.12095,0.00218 0.24188,0.00705 0.36281,0.0151c1.12292,0.07484 2.22952,0.3035 3.34737,0.43123c0.84479,0.09653 2.70531,0.26698 3.60484,0.44086c0.59042,0.11413 1.16186,0.31034 1.75207,0.42552c1.08655,0.21204 2.2086,0.21726 3.29551,0.42755c0.48413,0.09367 0.94224,0.29138 1.42227,0.40175c1.569,-0.0714 3.13857,-0.19621 4.71024,-0.41772c0.68865,-0.07372 1.37433,-0.18152 2.06594,-0.22116c3.05831,-0.17535 6.14659,0.15738 9.2057,-0.00038c0.73264,-0.03779 1.45724,-0.17885 2.19008,-0.21276c0.80212,-0.03711 1.60694,0.03663 2.40908,0c1.31517,-0.06005 2.61185,-0.34012 3.92561,-0.42462c0.53766,-0.03458 1.07766,-0.00333 1.61649,-0.00253c0.63288,0.00095 1.26994,-0.06282 1.89863,0.00779c0.1001,0.01124 0.19955,0.02614 0.29852,0.0437c0.06688,-0.01075 0.13377,-0.02148 0.20065,-0.03218c4.50422,-0.72027 9.25532,-0.44484 13.80878,-0.44484h1.53305c0.74176,0 1.34307,0.58415 1.34307,1.30474c0,0.54869 -0.34864,1.01827 -0.84246,1.2111l-1.50461,0.62643l-0.00716,-0.01621c-0.02385,0.01563 -0.04785,0.03107 -0.07199,0.04632c-0.81972,0.51764 -3.26903,0.63176 -4.0394,0.7072c-1.70304,0.16679 -3.14717,0.37513 -4.87936,0.21143c-0.69201,-0.0654 -1.35058,-0.32911 -2.03739,-0.43422c-0.72473,-0.11091 -1.46543,-0.10134 -2.19008,-0.21276c-0.45366,-0.06975 -0.89382,-0.21115 -1.34072,-0.31479c-4.69661,0.77706 -9.42932,1.60317 -14.21497,1.60783c-2.04407,0 -4.08815,0.00069 -6.13222,0c-0.6043,-0.0002 -1.20944,0.02926 -1.81292,-0.00134c-0.80525,-0.04083 -1.60366,-0.17547 -2.40908,-0.21276c-0.73672,-0.0341 -1.47639,0.041 -2.21267,-0.00118c-0.59048,-0.03383 -1.18031,-0.10096 -1.76236,-0.20439c-3.80801,0.15295 -7.6127,0.03626 -11.43939,0.20491c-1.02561,0.0452 -2.009,0.1732 -2.99081,0.30298c-2.00764,0.61284 -3.69527,0.90369 -5.52302,0.87212zM246.60611,178.54299c-0.03118,0.02624 -0.06265,0.05211 -0.09447,0.0776c0.10886,-0.00956 0.21732,-0.01984 0.32544,-0.03073c0.01472,-0.02219 0.02989,-0.04348 0.04546,-0.06391c-0.05662,0.00449 -0.11326,0.00859 -0.16989,0.01222c-0.03548,0.00228 -0.071,0.00385 -0.10654,0.00483z" fill="#00ff2b" stroke="none" stroke-width="0.5"/><path d="M307.86081,193.9027c-0.82054,0.79713 -1.60062,1.63574 -2.46307,2.38996c-0.17819,0.15582 -0.36579,0.30084 -0.55532,0.44368c-0.12997,0.30226 -0.3933,0.63007 -0.92688,0.71746c-1.12855,0.90096 -2.25004,1.81035 -3.38225,2.70696c-0.33092,0.26207 -0.70313,0.47824 -1.00434,0.77218c-0.40225,0.39255 -0.69171,0.88503 -1.09504,1.27655c-0.31391,0.30472 -0.74784,0.48101 -1.04522,0.801c-0.31977,0.34408 -0.50141,0.78989 -0.78186,1.16495c-0.65232,0.87241 -1.48106,1.60658 -2.23557,2.39741c-0.22004,0.23063 -0.53614,0.4307 -0.60488,0.73797c-0.07108,0.31765 0.14801,0.63406 0.22725,0.9499c0.13302,0.5302 0.25822,1.06253 0.4095,1.58809c0.10371,0.36032 0.18025,0.73471 0.35501,1.06811c0.22454,0.42838 0.58172,0.77975 0.83116,1.19492c0.4901,0.81571 0.79243,1.73124 1.30303,2.53498c0.33669,0.53 0.79918,0.9804 1.11489,1.52244c0.30666,0.52649 0.49463,1.11034 0.74195,1.6655c0.13734,0.40495 0.22637,0.82851 0.412,1.21486c0.62239,1.29537 1.45621,2.48496 2.14865,3.74633c0.22502,0.4099 0.40339,0.84361 0.64049,1.24702c0.51699,0.87963 1.32309,2.02744 1.91716,2.89312c0.28801,0.41968 0.56975,0.84348 0.86388,1.25913c0.38939,0.55027 0.87737,1.04201 1.18653,1.63841c0.32161,0.62039 0.39965,1.33797 0.68627,1.97434c0.2273,0.50466 0.59517,0.93951 0.84817,1.43249c0.3405,0.6635 0.65238,1.34181 0.92998,2.03241c0.24823,0.61753 0.38691,1.27389 0.64567,1.88733c0.51173,1.21313 1.06994,1.92646 1.69538,3.07503c0.39222,0.72028 0.76648,1.44997 1.1255,2.1864c0.58016,1.19005 1.00673,2.44566 1.54955,3.65222c0.92072,2.04653 2.08336,3.99403 3.27881,5.89968c0.00932,-0.30195 0.06023,-0.60949 0.06023,-0.91019c0,-0.49644 0,-0.99288 0,-1.48933c0,-1.70207 -0.00186,-3.40415 0,-5.10622c0.0005,-0.46561 0.03807,-0.93243 0.00337,-1.39683c-0.03737,-0.50016 -0.18435,-0.98895 -0.21899,-1.4893c-0.03855,-0.55684 -0.03855,-1.11746 0,-1.6743c0.03464,-0.50034 0.18463,-0.98894 0.21899,-1.48931c0.03922,-0.57113 -0.05739,-1.14763 0.00119,-1.7172c0.0883,-0.8585 0.3495,-1.69463 0.43801,-2.5531c0.0573,-0.55573 -0.03822,-1.11813 -0.00198,-1.67553c0.00459,-0.07064 0.42959,-3.35128 0.44469,-3.47604c0.38729,-3.19804 0.86966,-6.41231 0.86676,-9.63395c0,-1.63115 -0.00179,-3.26231 0,-4.89346c0.00058,-0.52727 -0.0347,-1.05584 0.00338,-1.58181c0.03623,-0.50024 0.18222,-0.98911 0.21902,-1.48931c0.03594,-0.48841 -0.03276,-0.98026 -0.00132,-1.46896c0.08336,-1.29582 0.29518,-2.59293 0.21953,-3.8892c-0.03844,-0.65881 -0.35403,-2.44389 -0.43154,-3.12107c-0.08912,-0.77854 -0.13017,-1.56179 -0.21901,-2.34036c-0.05911,-0.51799 -0.18922,-1.02816 -0.2247,-1.54818c-0.04072,-0.59688 -0.00324,-1.19639 -0.00337,-1.79458c-0.00012,-0.52346 -0.03277,-1.04805 0.0026,-1.57039c0.03864,-0.57054 0.17932,-1.1316 0.21901,-1.70208c0.03886,-0.55857 -0.05865,-2.64638 0.01475,-3.10655c0.08168,-0.51213 0.32641,-0.98677 0.48961,-1.48015c0,0 0.42473,-1.23778 1.69887,-0.82517c1.27414,0.41261 0.84941,1.6504 0.84941,1.6504c-0.12882,0.35765 -0.3277,0.69836 -0.38645,1.07295c-0.14734,0.93941 0.07896,1.90251 0.01475,2.8507c-0.03864,0.57054 -0.17932,1.1316 -0.21901,1.70208c-0.03259,0.46834 0.00272,0.93882 0.0026,1.40824c-0.00014,0.53653 -0.04035,1.07426 -0.00337,1.6096c0.0332,0.4807 0.15842,0.9516 0.21332,1.43042c0.08925,0.77851 0.13002,1.5618 0.21901,2.34035c0.10817,0.94635 0.39274,2.3401 0.44449,3.26169c0.04262,0.75914 0.04008,1.52151 0.00054,2.28081c-0.03339,0.64138 -0.17776,1.27388 -0.21899,1.91483c-0.03231,0.50224 0.03555,1.00772 -0.00132,1.50966c-0.03676,0.50021 -0.18165,0.98915 -0.21902,1.48931c-0.03469,0.46438 0.00284,0.93121 0.00338,1.39682c0.00191,1.63115 0,3.26231 0,4.89346c-0.0028,3.32627 -0.48542,6.63802 -0.88528,9.93988c-0.13465,1.11183 -0.36024,2.21489 -0.43136,3.33225c-0.03661,0.57511 0.05694,1.15526 -0.00198,1.72861c-0.08822,0.85851 -0.34957,1.69462 -0.43801,2.5531c-0.05764,0.55952 0.03967,1.12587 0.00119,1.68694c-0.03431,0.50036 -0.1798,0.98929 -0.21899,1.48931c-0.073,0.93122 0.15154,1.86204 0.21899,2.79366c0.07907,1.09192 0.00337,2.18925 0.00337,3.28387c0,1.63116 0,3.26231 0,4.89347c0,0.49643 0.06798,0.99727 0,1.4893c-0.11889,0.86054 0.25092,2.17806 -0.55776,2.54778c-1.09651,0.50131 -2.38107,-0.4399 -3.57161,-0.65986c-0.5471,-0.75526 -1.12328,-1.49141 -1.64129,-2.26578c-0.67327,-1.00646 -1.2622,-2.22694 -1.81086,-3.29383c-0.30231,-0.58784 -0.63452,-1.16211 -0.90586,-1.76404c-0.53305,-1.18251 -0.9476,-2.41497 -1.51656,-3.58159c-0.88642,-1.81759 -2.0821,-3.51802 -2.87333,-5.37652c-0.26857,-0.63084 -0.41464,-1.30573 -0.66837,-1.94234c-0.24365,-0.61134 -0.51956,-1.21125 -0.82208,-1.79726c-0.2735,-0.5298 -0.65938,-1.00312 -0.90389,-1.54613c-0.26856,-0.59642 -0.33002,-1.27212 -0.62774,-1.85533c-0.25265,-0.49492 -0.67817,-0.88715 -1.00355,-1.34021c-0.00654,-0.00911 -1.76822,-2.57619 -1.77507,-2.58657c-0.6572,-0.99447 -1.23919,-2.03488 -1.81168,-3.0776c-0.12738,-0.23199 -2.15375,-3.75113 -2.23151,-3.91301c-0.20488,-0.42657 -0.30936,-0.89216 -0.46403,-1.33825c-0.19069,-0.43771 -0.3273,-0.90159 -0.57209,-1.31313c-0.30766,-0.51721 -0.75356,-0.94707 -1.07518,-1.45619c-0.41543,-0.6576 -0.91393,-1.8861 -1.32507,-2.5712c-0.28106,-0.46835 -0.67427,-0.8719 -0.9209,-1.35822c-0.23792,-0.46912 -0.37079,-0.98282 -0.52102,-1.48501c-0.21705,-0.72553 -0.85834,-3.10169 -0.67731,-3.84479c0.1683,-0.6909 0.69966,-1.25382 1.14717,-1.81513c0.39115,-0.49064 0.92136,-0.8611 1.35194,-1.31952c0.2853,-0.30375 0.54348,-0.63135 0.79264,-0.96377c0.33889,-0.45213 0.58565,-0.97191 0.97021,-1.38813c0.32807,-0.35508 0.79769,-0.56358 1.14486,-0.90109c0.40302,-0.39181 0.69102,-0.8857 1.09504,-1.27655c0.35993,-0.3482 0.79313,-0.61678 1.18573,-0.92991c1.24265,-0.99107 2.47835,-1.99011 3.72314,-2.97864c0.00636,-0.00505 0.01274,-0.0101 0.01913,-0.01514l0.00059,-0.00205c2.23938,-2.71913 4.05867,-4.90785 6.76906,-6.37446c0.08035,-0.07806 0.16068,-0.1561 0.24103,-0.23415l-0.17173,-0.23357l1.52033,-1.05497c0.22229,-0.15834 0.49659,-0.25186 0.79336,-0.25186c0.74176,0 1.34307,0.58415 1.34307,1.30474c0,0.3603 -0.15033,0.68648 -0.39338,0.92259l-1.09504,1.06379c-1.24105,1.20564 -2.48208,2.41126 -3.72312,3.61691z" fill="#00ff2b" stroke="none" stroke-width="0.5"/><path d="M132.5,352.54601v-345.09202h375v345.09202z" fill="none" stroke="#000000" stroke-width="0"/></g></g></svg>