<svg version="1.1" xmlns="http://www.w3.org/2000/svg" xmlns:xlink="http://www.w3.org/1999/xlink" width="375" height="345.09202" viewBox="0,0,375,345.09202"><g transform="translate(-132.5,-7.45399)"><g stroke-miterlimit="10"><path d="M321.99822,256.12033c-0.39438,1.08477 -1.20672,2.02448 -2.27582,2.39059c-2.41843,0.82817 -6.25532,-2.19069 -4.04516,-4.91132c0.26263,-0.32328 0.58491,-0.57622 0.9431,-0.76316c0.59494,-2.31873 5.0711,-2.2353 6.28432,-0.4493c0.44948,0.6617 0.03397,1.59948 0.05095,2.39923l-0.72175,1.15364c0,0 -0.08776,0.08776 -0.23564,0.18033z" fill="#00ff2b" stroke="none" stroke-width="0.5"/><path d="M315.58769,221.15344c-0.86942,-0.63645 -1.19021,-2.33591 -1.02613,-4.08909c-0.08642,-0.58573 -0.09583,-1.38741 -0.00341,-2.46107c0.37469,-4.35281 6.78895,-3.53929 8.02078,-0.1363c1.57577,0.8976 2.62318,2.50816 1.91145,4.27863c-0.14661,0.3647 -0.30378,0.66958 -0.46938,0.92107c0.00901,0.50505 -0.07802,0.97814 -0.42915,1.27989c-1.86653,1.60405 -3.32991,0.68206 -4.19127,-0.74068c-1.07253,1.23235 -2.42324,1.96483 -3.81289,0.94755zM316.95759,219.06218c0.0936,0.22153 0.23268,0.15434 0.38812,-0.05046c-0.15637,-0.08449 -0.30201,-0.18179 -0.4341,-0.29146c0.00324,0.15732 0.01815,0.27604 0.04598,0.34192z" fill="#00ff2b" stroke="none" stroke-width="0.5"/><path d="M351.69587,182.70017c-0.09738,-0.70849 0.12711,-1.49599 0.4759,-2.11913c0.40261,-1.61556 1.6728,-3.02963 2.53413,-4.26904c0.7062,0.25959 1.59589,0.27788 2.29129,0.55168c0.58614,-0.22791 1.19403,-0.4036 1.78372,-0.27447c0.85507,0.18724 1.82509,0.75594 2.08965,1.59033c0.34699,1.09433 -0.15002,2.31511 -0.50519,3.40682c-0.2355,0.72388 -0.87466,1.42061 -1.60344,1.9841c-0.20961,2.66147 -2.54515,5.47019 -5.38252,3.87335c-1.99448,-1.12247 -2.23771,-2.98195 -1.68353,-4.74363zM355.64595,185.04635c-0.31975,0.07838 -0.64392,0.06011 -0.95988,-0.02894c-0.16466,-0.00803 -0.32874,-0.02442 -0.49061,-0.05007c0.10292,0.09251 0.22493,0.18409 0.36789,0.27459c0.49753,0.31495 0.84274,0.18424 1.08259,-0.19558z" fill="#00ff2b" stroke="none" stroke-width="0.5"/><path d="M391.43667,184.22862c-0.17975,0.13481 -0.35142,0.21307 -0.5121,0.25077c-0.12242,0.5619 -0.62275,0.98267 -1.22135,0.98267c-0.0932,0 -0.18402,-0.0102 -0.2714,-0.02954c-0.01714,0.14034 -0.03315,0.27416 -0.0467,0.39987l-0.32728,0.2185l0.1305,0.10874l-0.81343,0.97613c-0.22925,0.27909 -0.57704,0.4571 -0.9664,0.4571c-0.69035,0 -1.25,-0.55965 -1.25,-1.25c0,-0.06306 0.00467,-0.12504 0.01369,-0.1856l0.11463,-0.85972c-0.20181,-0.1359 -0.37697,-0.29418 -0.51143,-0.47027c-0.16875,-0.22098 -0.30527,-0.47537 -0.40908,-0.74985c-1.04739,-1.28333 -1.63101,-3.54955 0.77156,-4.03226c0.17017,-0.03419 0.38645,0.00781 0.62864,0.11021c0.68178,-0.0949 1.47144,0.08826 1.93714,0.47655c0.23851,0.19886 0.4188,0.44461 0.55313,0.72259c0.33893,0.01642 0.66686,0.02154 0.93816,-0.03154l1.49173,1.15564c0,0 0.75,1 -0.25,1.75z" fill="#00ff2b" stroke="none" stroke-width="0.5"/><path d="M234.40522,179.25698c-2.30849,-0.8738 -4.85153,-3.63701 -1.41536,-5.2231c0.53453,-0.24673 1.10231,-0.28775 1.66092,-0.17875c0.2986,-0.19581 0.62763,-0.30644 0.95806,-0.27523c1.06304,0.10039 1.83408,0.48262 2.34062,1.00885c1.2711,0.33206 1.96175,1.37202 0.72098,3.73071c-0.23807,0.45256 -0.53501,0.78408 -0.86604,1.01006c-0.40825,0.37247 -1.0583,0.62474 -2.00711,0.68205c-0.54158,0.03271 -0.97174,-0.34287 -1.39206,-0.75459z" fill="#00ff2b" stroke="none" stroke-width="0.5"/><path d="M281.8491,179.86193c0.07463,-0.01337 0.14892,-0.02821 0.22281,-0.04462c-0.04781,-0.01964 -0.09859,-0.02382 -0.15337,-0.00705c-0.03555,0.01088 -0.05782,0.02854 -0.06944,0.05167zM279.05474,182.32874c-0.33395,-0.06825 -0.65986,-0.16598 -0.96876,-0.30321c-1.38391,-0.61481 -2.69154,-2.59395 -2.68787,-4.06566c0.0054,-2.16022 1.70029,-4.03416 3.58519,-4.78899c0.93309,-0.37367 1.99425,-0.36507 2.99836,-0.3199c0.00018,0.00001 0.00036,0.00002 0.00053,0.00003c0.24381,-0.03902 0.5,-0.06579 0.77249,-0.07823c1.01078,-0.04617 2.12154,-0.04227 3.00063,0.45874c2.5875,1.47465 2.63675,3.3704 1.31883,5.80277c-0.17263,0.31861 -0.40256,0.59645 -0.66253,0.85111c-0.18736,0.47358 -0.47728,0.91817 -0.85719,1.24464c-0.78566,0.67515 -1.71967,1.19849 -2.69502,1.54747c-0.61025,0.21835 -1.30156,0.21588 -1.94121,0.11139c-0.68745,-0.1123 -1.30982,-0.24874 -1.86345,-0.46014z" fill="#00ff2b" stroke="none" stroke-width="0.5"/><path d="M317.65183,177.37595c-0.09191,0.0821 -0.18144,0.16588 -0.26481,0.25355c0.10255,0.1714 0.16523,0.3694 0.17519,0.5812zM317.05237,179.98397c0.01252,-0.0101 0.02522,-0.02021 0.03809,-0.03031c0.10249,-0.39656 0.2867,-0.83449 0.38876,-1.23083c-0.11092,0.28557 -0.32374,0.52026 -0.59383,0.65944c0.03383,0.20352 0.09144,0.40511 0.16697,0.6017zM320.58229,174.43687c0.16098,-0.03403 0.32426,-0.04987 0.4909,-0.03897c3.05962,0.20012 2.65027,1.84694 2.55057,4.34698c-0.07481,1.87583 -0.42113,2.95301 -1.9565,4.12067c-0.5744,0.43684 -1.24811,0.93861 -1.96668,0.9167c-0.72942,0.39256 -1.61461,0.51122 -2.31746,0.25993c-1.30201,-0.4655 -2.60871,-2.34216 -2.79117,-3.74575c-0.12685,-0.97579 -0.2953,-2.03289 0.05759,-2.95143c0.31677,-0.82453 2.66638,-3.59658 4.09945,-3.43862c0.61867,0.0682 1.25497,0.24707 1.8333,0.53049zM320.16922,177.34234l-0.09651,0.84392l0.23245,0.26566c-0.03443,-0.37429 -0.02239,-0.76749 -0.13594,-1.10958z" fill="#00ff2b" stroke="none" stroke-width="0.5"/><path d="M318.55283,143.43615c-0.0129,-0.01422 -0.02555,-0.02857 -0.03796,-0.04307c-0.28332,-0.02996 -0.57621,-0.093 -0.87661,-0.19138c-1.55713,-0.50993 -2.23032,-3.37238 -1.65996,-4.58354c0.49602,-1.05331 1.58388,-1.78129 2.62301,-2.30639c1.13061,-0.57133 3.03833,0.0772 3.89734,0.8214c1.69932,1.4722 2.73519,3.13488 2.52677,5.496c-0.07112,0.80576 -0.4014,1.69684 -1.04099,2.19205c-1.26792,0.98171 -3.73663,0.78342 -4.8071,-0.43816c-0.24745,-0.28238 -0.45544,-0.60337 -0.6245,-0.94691zM322.49935,141.89235c-0.00405,0.3593 -0.04748,0.70745 -0.14364,1.02262c0.14652,-0.07711 0.21516,-0.24437 0.18505,-0.56231c-0.01439,-0.15199 -0.02674,-0.3061 -0.04141,-0.46031z" fill="#00ff2b" stroke="none" stroke-width="0.5"/><path d="M321.43354,97.38165c0.3463,-0.02562 0.71967,0.05335 1.10994,0.26459c0.87322,0.34597 1.58142,1.01227 1.90214,2.05323c0.64602,1.15804 0.54188,2.26925 0.00104,3.18588c-0.04521,0.22289 -0.13544,0.42233 -0.28235,0.58646c-0.49361,1.1395 -1.42473,1.9814 -3.00021,1.61565c-1.88358,0.39586 -3.9357,-0.22718 -4.73225,-2.54028c-1.13893,-3.30732 2.24071,-5.44745 5.00169,-5.16553z" fill="#00ff2b" stroke="none" stroke-width="0.5"/><path d="M132.5,352.54601v-345.09202h375v345.09202z" fill="none" stroke="#000000" stroke-width="0"/></g></g></svg>