<svg version="1.1" xmlns="http://www.w3.org/2000/svg" xmlns:xlink="http://www.w3.org/1999/xlink" width="375" height="345.09202" viewBox="0,0,375,345.09202"><g transform="translate(-132.5,-7.45399)"><g stroke-miterlimit="10"><path d="M315.94517,177.54776c0.0246,-0.18262 0.09978,-0.38189 0.25045,-0.59393c0.13941,-0.19621 0.28976,-0.3278 0.44167,-0.41237c0.00641,-0.23276 0.04408,-0.43823 0.11937,-0.6042c0.3768,-0.83061 1.27378,-1.80838 2.17397,-1.66158c1.33053,0.21699 2.17733,1.03172 2.67328,2.05544c1.23233,0.41614 2.16366,1.94632 2.46599,3.58057c0.79976,0.63731 1.29609,1.41383 0.00883,2.11679c-0.24034,1.1893 -0.94579,2.17561 -2.26963,2.48687c-2.5367,0.59643 -7.88511,-3.25722 -6.41111,-6.35668c0.12284,-0.25829 0.31313,-0.45655 0.54719,-0.61092z" fill="#00ff2b" stroke="none" stroke-width="0.5"/><path d="M314.24635,134.30516c-0.67109,-1.05457 0.38348,-1.72567 0.38348,-1.72567c0.05112,-0.0262 0.10181,-0.05505 0.15216,-0.08595c0.03098,-0.25507 0.21022,-0.43452 0.63441,-0.46043c0.38778,-0.29352 0.781,-0.55367 1.22766,-0.48596c1.52423,0.23105 2.44316,1.19822 2.47327,2.34255c0.93529,1.54787 1.09717,3.88311 -1.32707,4.4439c-2.03387,0.47048 -2.57818,-0.49408 -2.62316,-1.63988c-0.07242,-0.08922 -0.13279,-0.18863 -0.17863,-0.29572l-0.0456,-0.10031l-0.09906,0.03602l-0.46852,-1.28841c-0.05498,-0.14084 -0.08516,-0.29409 -0.08516,-0.4544c0,-0.06743 0.00534,-0.13362 0.01562,-0.19816c-0.0201,-0.02777 -0.03991,-0.05695 -0.0594,-0.08757z" fill="#00ff2b" stroke="none" stroke-width="0.5"/><path d="M339.83886,143.77771c-2.81324,2.63699 -4.01139,0.96256 -4.02929,-1.02729c-2.56724,-2.01907 0.98402,-6.94099 3.73915,-6.01707c3.5518,1.19109 5.0658,9.23828 0.29014,7.04435zM340.5557,141.57686c0.08635,0.23859 0.08146,0.198 0,0z" fill="#00ff2b" stroke="none" stroke-width="0.5"/><path d="M352.17952,159.56244c-0.61702,-0.29664 -0.99499,-0.96953 -1.12252,-1.72589c-1.53668,-1.48767 -2.11055,-3.65541 1.36601,-3.80213c0.04625,-0.00195 0.09218,-0.00262 0.13778,-0.00204c0.1621,-0.07682 0.34336,-0.11979 0.53466,-0.11979c0.42534,0 0.80106,0.21245 1.02685,0.53701l0.22428,0.31399c0.77798,0.14607 0.93553,1.01262 0.93553,1.01262l0.05819,0.32004c0.07383,0.14772 0.14028,0.29887 0.19892,0.45182c0.03505,0.02842 0.07039,0.05578 0.10606,0.08193l-0.01446,0.17798c0.02755,0.08557 0.05262,0.17142 0.07516,0.25727l0.06705,-0.00745l0.2372,2.1348c0.00637,0.05113 0.00965,0.10323 0.00965,0.15609c0,0.69036 -0.55965,1.25 -1.25,1.25c-0.32852,0 -0.62743,-0.12673 -0.85053,-0.33397l-0.211,-0.19476c-0.43501,-0.06391 -0.94271,-0.22573 -1.52885,-0.50752z" fill="#00ff2b" stroke="none" stroke-width="0.5"/><path d="M356.88627,173.95042c0.69428,-0.23143 1.11757,0.07912 1.3492,0.37635c0.78239,-0.16177 1.57784,-0.49905 2.33227,-0.2853c2.0268,0.57425 3.01787,2.7982 2.24509,4.48953c0.48094,0.49757 0.63136,1.29025 0.01481,2.30167c-1.60686,2.63601 -3.69289,1.11964 -4.53547,-0.9236c-0.08247,-0.10187 -0.1627,-0.20566 -0.2408,-0.31043c-1.38071,-0.69808 -2.39407,-1.92976 -1.65849,-3.18863l-0.2972,-0.87844c0,0 -0.39528,-1.18585 0.79057,-1.58114z" fill="#00ff2b" stroke="none" stroke-width="0.5"/><path d="M292.60189,139.25766c0.08049,-0.08826 0.16447,-0.1693 0.25104,-0.24155c0.00328,-0.20719 0.06933,-0.43995 0.23822,-0.69329c0.69338,-1.04006 1.73343,-0.34669 1.73343,-0.34669c0.33374,0.27283 0.79403,0.4681 1.18239,0.70745c2.41638,0.81853 4.41875,3.49483 1.39163,5.17858c-0.28131,0.15647 -0.55507,0.26428 -0.81988,0.32955c-0.50534,1.17954 -1.55095,1.88683 -3.15338,1.12702c-2.18203,-1.03464 -2.71013,-4.51421 -0.82345,-6.06108z" fill="#00ff2b" stroke="none" stroke-width="0.5"/><path d="M279.40152,161.42039c-0.60595,0.20242 -1.26596,0.21643 -1.92712,-0.04715c-1.40553,-0.56033 -3.25191,-2.90954 -1.27709,-4.38197c0.47634,-2.35147 2.03101,-2.32618 3.44779,-1.60414c1.62682,0.20942 2.34398,1.07167 2.44702,2.08882c0.17766,0.33024 0.31354,0.8678 -0.20241,1.40931c-0.02528,0.06919 -0.05264,0.13809 -0.08198,0.20657c0.08668,0.13361 0.14733,0.28457 0.17536,0.45731c0.16975,1.0464 -1.49841,1.71015 -2.58156,1.87124z" fill="#00ff2b" stroke="none" stroke-width="0.5"/><path d="M272.05356,182.55844c-0.25433,-0.1422 -0.48525,-0.40363 -0.56426,-0.87771c-0.2055,-1.23299 1.02749,-1.43849 1.02749,-1.43849c0.46215,-0.04117 0.94998,-0.20754 1.42652,-0.31887c3.36669,-1.60999 5.68854,3.80313 3.69411,5.93054c-1.89375,2.02002 -7.05147,1.00074 -6.14506,-2.44885c0.0891,-0.3391 0.29867,-0.60824 0.56121,-0.84661z" fill="#00ff2b" stroke="none" stroke-width="0.5"/><path d="M281.96085,202.77823c0.78095,-0.85822 1.85878,-1.81832 3.08049,-1.07883c1.37537,0.83249 2.05278,2.45021 1.79342,3.89914c0.11894,1.35955 -0.47551,2.61094 -2.16092,2.57217c-0.11802,-0.00272 -0.23011,-0.02226 -0.33733,-0.05558c-0.32326,0.02673 -0.64344,-0.0163 -0.9477,-0.11571c-0.61568,0.03722 -1.23317,-0.04562 -1.72394,-0.23573c-0.79836,-0.30926 -0.88641,-1.46506 -1.32961,-2.19758l0.47841,-2.07486c0,0 0.38239,-0.76478 1.14717,-0.71303z" fill="#00ff2b" stroke="none" stroke-width="0.5"/><path d="M299.08712,216.87267c0.70069,-0.72751 1.38972,-1.15254 2.92824,-0.58564c2.21096,0.81466 2.38423,4.62626 0.52819,5.86061c-1.49305,0.99294 -3.76439,1.16773 -4.9537,-0.44085c-0.89072,-1.20472 -1.78229,-4.52949 1.11558,-4.89522c0.08096,-0.01022 0.2131,0.0115 0.3817,0.0611z" fill="#00ff2b" stroke="none" stroke-width="0.5"/><path d="M326.35106,225.86467c-0.88389,0.88389 -1.76776,0 -1.76776,0l-0.60215,-0.69981c-0.34268,0.17937 -0.76445,0.26856 -1.2717,0.22869c-1.10881,-0.08716 -1.69801,-1.43698 -2.54701,-2.15548l0.46094,-0.4908c-0.38023,-0.04429 -0.92341,-0.24784 -1.05368,-1.02945c-0.20551,-1.23299 1.02748,-1.4385 1.02748,-1.4385c1.41842,-0.19718 2.89231,-0.73131 4.04956,0.80782c0.36451,0.48479 0.5513,1.20399 0.52067,1.9169l1.18366,1.09287c0,0 0.88389,0.88388 0,1.76776z" fill="#00ff2b" stroke="none" stroke-width="0.5"/><path d="M341.01226,211.67304c0.62985,-1.07972 1.70956,-0.44988 1.70956,-0.44988c0.64566,0.46197 1.61592,0.65981 1.93698,1.3859c0.19515,0.44136 0.18281,1.06982 0.02436,1.71343c0.86068,1.73636 -0.56828,7.30377 -3.745,5.55859c-0.96534,-0.53033 -1.46538,-1.70451 -1.85413,-2.73505c-0.22952,-0.60845 0.05813,-1.29929 0.08718,-1.94894l0.35374,-0.2874l-0.09734,-0.58404c-0.01371,-0.07416 -0.02088,-0.1506 -0.02088,-0.22872c0,-0.69036 0.55965,-1.25 1.25,-1.25c0.1091,0 0.21494,0.01398 0.31581,0.04023c-0.17306,-0.29053 -0.25924,-0.70165 0.0397,-1.21412z" fill="#00ff2b" stroke="none" stroke-width="0.5"/><path d="M356.36164,197.95236c0.46622,0.13036 0.87659,0.35593 1.12177,0.73856c1.16773,1.82241 -0.94258,4.58864 -3.00685,3.94319c-0.94442,-0.2953 -1.62603,-0.9457 -1.99184,-1.72449c-0.1426,-0.1073 -0.27626,-0.26355 -0.3877,-0.48644c-0.29607,-0.59213 -0.12172,-1.02746 0.1078,-1.30599c0.12658,-0.93099 0.6814,-1.82032 1.73499,-2.36618c0.80501,-0.41707 1.65352,0.74418 2.48028,1.11627z" fill="#00ff2b" stroke="none" stroke-width="0.5"/><path d="M360.80004,101.84589l-0.02014,0.30486l0.11597,-0.02485l0.35323,1.64844c0.02179,0.09243 0.03332,0.18882 0.03332,0.2879c0,0.69036 -0.55965,1.25 -1.25,1.25c-0.38936,0 -0.73713,-0.17802 -0.96638,-0.4571l-1.11418,-1.33701c-0.91741,-0.21926 -1.80728,-0.85392 -2.24081,-1.66046c-0.10974,-0.20417 -0.10218,-0.41831 -0.03357,-0.63764c-0.07194,-0.27839 -0.04334,-0.62087 0.23434,-1.00268c0.39345,-0.541 0.86586,-0.58191 1.22004,-0.50306l1.44109,-0.16059c0,0 0.02339,0.01559 0.06081,0.04561c0.06596,-0.01075 0.13364,-0.01634 0.20263,-0.01634c0.67225,0 1.22055,0.53067 1.24885,1.19595c0.23351,0.36444 0.44504,0.76951 0.7148,1.06697z" fill="#00ff2b" stroke="none" stroke-width="0.5"/><path d="M389.74061,136.16249c-0.16833,0.16834 -0.33667,0.27255 -0.4989,0.33096c0.00899,0.03602 0.01664,0.07261 0.02289,0.10977c0.17485,1.03863 -1.09794,2.26273 -2.14985,2.31562c-0.30529,0.01535 -0.56976,-0.0351 -0.79755,-0.13721c-0.74099,-0.07405 -1.52276,-0.63522 -2.27303,-0.8201l0.10584,-0.76926h-0.37059v-1.43525c0,-0.61448 0.44339,-1.1254 1.02768,-1.23029c-0.2032,-0.27942 -0.33291,-0.69354 -0.05849,-1.24237c0.55902,-1.11803 1.67705,-0.55902 1.67705,-0.55902c0.31249,0.26945 0.72846,0.47434 1.09341,0.71107c0.25571,0.01583 0.50734,0.02377 0.73963,-0.00581l1.4819,0.96413c0,0 0.88388,0.88389 0,1.76777z" fill="#00ff2b" stroke="none" stroke-width="0.5"/><path d="M392.53548,178.60348c-0.0785,-0.31189 -0.08883,-0.64129 -0.01314,-0.9742c-0.1651,-0.1071 -0.32101,-0.27457 -0.44805,-0.52865c-0.55902,-1.11804 0.55902,-1.67705 0.55902,-1.67705c0.87502,-0.42847 2.4008,-1.36172 3.44339,-0.91232c2.10073,0.90549 2.94339,3.18899 1.45466,5.18538c-0.95226,1.27697 -4.73377,2.19234 -4.97987,-0.83564c-0.00717,-0.08821 -0.01249,-0.17404 -0.01601,-0.25752z" fill="#00ff2b" stroke="none" stroke-width="0.5"/><path d="M384.88142,220.56977c-1.93614,-0.68406 -3.24072,-3.48651 -1.8322,-5.35191c3.46597,-4.59024 8.67316,0.849 6.58488,4.72353c-1.10412,2.04856 -3.6007,2.02736 -4.75267,0.62838z" fill="#00ff2b" stroke="none" stroke-width="0.5"/><path d="M358.9033,249.2992c-0.37316,-0.0448 -0.85253,-0.2465 -1.01579,-0.95397c-0.28107,-1.21799 0.93691,-1.49906 0.93691,-1.49906c1.12812,-0.25965 3.54324,-0.87304 4.47112,-0.72575c2.13994,0.33967 4.61848,4.70516 1.16129,5.6616c-0.62055,0.17168 -1.19953,-0.23617 -1.77893,-0.63803c-0.31197,0.50081 -0.77957,0.90785 -1.26265,1.00968c-1.04634,0.22055 -2.44029,-0.8318 -2.59187,-1.89033c-0.04895,-0.34187 -0.01531,-0.66279 0.07992,-0.96413z" fill="#00ff2b" stroke="none" stroke-width="0.5"/><path d="M326.3293,265.57767c1.55912,0.29075 2.94357,1.15801 2.1643,3.27999c-0.45805,1.24727 -1.99217,2.09862 -3.31603,2.21206c-2.22554,0.1907 -3.88258,-2.21695 -4.14504,-4.03661c-0.21494,-1.49018 0.42723,-4.22681 2.9853,-3.43427c0.7271,0.22527 1.15099,0.91435 1.57271,1.60675c0.0934,0.01258 0.17156,0.02688 0.23073,0.04197c0.20305,0.05181 0.36498,0.17466 0.50804,0.3301z" fill="#00ff2b" stroke="none" stroke-width="0.5"/><path d="M278.52942,265.17024c-0.73089,-0.70391 -0.29925,-2.0073 -0.44888,-3.01094l0.63952,-0.0032c-0.00119,-0.23104 0.04497,-0.45385 0.16297,-0.66416c0.1848,-0.32938 0.39419,-0.60753 0.62199,-0.83869c-0.01272,-0.03155 -0.02567,-0.06363 -0.03885,-0.09625c0,0 -0.41294,-1.17982 0.76688,-1.59276c1.12887,-0.39511 1.55567,0.66794 1.59043,0.7605c2.62637,0.06998 5.28242,3.12366 3.01705,5.75846c-0.61925,0.72024 -1.73138,0.78178 -2.59707,1.17267l-0.40548,-0.21254l-0.05008,0.14309l-2.31703,-0.81096c-0.0106,-0.00349 -0.0212,-0.0071 -0.03183,-0.01083c-0.02409,-0.00818 -0.04786,-0.01708 -0.07127,-0.02666c-0.27122,-0.1078 -0.55163,-0.29158 -0.83835,-0.56771z" fill="#00ff2b" stroke="none" stroke-width="0.5"/><path d="M241.50399,237.22738l-0.31521,0.22065c-0.20527,0.14773 -0.45716,0.23474 -0.72937,0.23474c-0.69036,0 -1.25,-0.55964 -1.25,-1.25c0,-0.11522 0.01558,-0.2268 0.04477,-0.33275c-0.04527,-0.11169 -0.07503,-0.23298 -0.08686,-0.36445c-0.08579,-0.10381 -0.16319,-0.23311 -0.22731,-0.3934c-0.46424,-1.1606 0.69635,-1.62484 0.69635,-1.62484c0.12842,-0.0224 0.26039,-0.05817 0.39456,-0.10223c0.56522,-1.95667 2.42754,-1.6615 3.5786,-0.56223c0.9163,-0.03722 1.73224,0.15435 2.00414,0.73076c0.75998,1.61113 0.04178,2.51948 -1.11047,2.84347c-0.2221,0.34713 -0.61102,0.57725 -1.0537,0.57725c-0.15599,0 -0.30531,-0.02857 -0.44301,-0.08077c-0.40256,0.09641 -0.94851,0.14191 -1.50248,0.10379z" fill="#00ff2b" stroke="none" stroke-width="0.5"/><path d="M219.1768,188.52523c-0.05637,-0.10219 -0.1085,-0.20891 -0.15599,-0.3201c-0.38166,-0.89355 -0.33861,-1.65225 -0.03598,-2.27244c0.01227,-0.36297 0.08868,-0.71632 0.22496,-1.03641c-0.19371,-0.31007 -0.3164,-0.77631 0.07531,-1.33124c0.72085,-1.02121 1.74206,-0.30036 1.74206,-0.30036c0.08956,0.06331 0.19835,0.13843 0.32222,0.22359c0.15785,0.00126 0.32283,0.01612 0.49469,0.04593c0.25894,0.04491 0.50554,0.14217 0.7369,0.27656c0.22719,-0.01443 0.46432,0.01406 0.71072,0.09328c0.02389,0.0021 0.04759,0.00444 0.07108,0.007c0.63293,0.06899 1.13359,0.5924 1.52552,1.15334c0.03913,0.0439 0.07842,0.08909 0.11786,0.1356c0.31446,0.37076 0.50948,0.77303 0.60528,1.18804c0.17122,0.47073 0.245,0.97046 0.0964,1.41917c-0.13514,0.40805 -0.32832,0.7797 -0.56684,1.10143c-1.24559,2.1744 -4.30926,3.56177 -5.68225,0.89859c-0.19524,-0.37872 -0.28321,-0.81818 -0.28194,-1.28196z" fill="#00ff2b" stroke="none" stroke-width="0.5"/><path d="M229.43296,136.28245c-0.64283,0.24136 -1.35428,0.32843 -1.97411,0.12641c-0.86086,-0.28059 -1.75961,-1.30817 -2.11982,-2.43424c-0.15123,-0.11057 -0.60257,-0.49069 -0.56762,-1.06749c-0.231,-0.01377 -0.48668,-0.10752 -0.75065,-0.34216c-0.93426,-0.83046 -0.10381,-1.76472 -0.10381,-1.76472c0.37308,-0.40974 0.66261,-0.91528 1.11925,-1.22921c1.3999,-0.96241 2.82292,-1.83456 4.48217,-1.17896c1.57933,-0.255 3.21198,0.18907 4.05075,1.74424c1.92481,3.5688 -0.15331,6.83358 -4.13617,6.14613zM231.53455,133.85146c0.24295,-0.18559 0.40827,-0.52286 0.44994,-1.07103c0.02616,-0.34416 -0.02568,-0.64518 -0.13542,-0.90154c-0.01024,0.59885 -0.12132,1.23286 -0.29087,1.8845c-0.00762,0.02929 -0.0155,0.05865 -0.02366,0.08808z" fill="#00ff2b" stroke="none" stroke-width="0.5"/><path d="M266.19796,91.49885c0.08954,0.01715 0.23552,0.0538 0.39049,0.12849c3.76982,-0.04624 3.27679,3.70501 1.13671,4.731c-0.25479,0.38845 -0.54275,0.61805 -0.84783,0.72633c-1.83713,1.1634 -4.83843,1.04636 -4.75538,-1.93609c0.03449,-1.23847 0.23564,-2.84959 1.30125,-3.48164c0.93606,-0.55522 1.93084,-0.53904 2.77476,-0.16808z" fill="#00ff2b" stroke="none" stroke-width="0.5"/><path d="M322.61704,80.99656c-0.39438,1.08477 -1.20672,2.02448 -2.27582,2.39059c-2.41843,0.82817 -6.25532,-2.19069 -4.04516,-4.91132c0.26263,-0.32328 0.58491,-0.57622 0.9431,-0.76316c0.59494,-2.31873 5.0711,-2.2353 6.28432,-0.4493c0.44948,0.6617 0.03397,1.59948 0.05095,2.39923l-0.72175,1.15364c0,0 -0.08776,0.08776 -0.23564,0.18033z" fill="#00ff2b" stroke="none" stroke-width="0.5"/><path d="M132.5,352.54601v-345.09202h375v345.09202z" fill="none" stroke="#000000" stroke-width="0"/></g></g></svg>