<svg version="1.1" xmlns="http://www.w3.org/2000/svg" xmlns:xlink="http://www.w3.org/1999/xlink" width="375" height="345.09202" viewBox="0,0,375,345.09202"><g transform="translate(-132.5,-7.45399)"><g stroke-miterlimit="10"><path d="M304.50896,174.86806c-0.24943,0.12829 -0.58048,0.17553 -1.00445,0.00594c-1.1606,-0.46424 -0.69635,-1.62483 -0.69635,-1.62483l0.59864,-0.32201c-0.95939,-0.57229 -1.37544,-1.54472 -0.19704,-2.63862c-0.20688,-0.27949 -0.34229,-0.69655 -0.06497,-1.25119c0.55901,-1.11804 1.67705,-0.55901 1.67705,-0.55901c0.9615,0.63757 2.55058,0.80841 2.8845,1.9127c0.24683,0.81624 0.21453,1.44768 -0.00027,1.91992c0.27781,1.24917 -0.27869,2.51 -2.45467,2.79883c-0.27418,0.03639 -0.51529,-0.07207 -0.74244,-0.24172z" fill="#00ff2b" stroke="none" stroke-width="0.5"/><path d="M306.26308,183.38874c-0.22479,0.44957 -0.53997,0.62798 -0.8365,0.6806c-0.15073,1.04406 -0.72805,1.80777 -2.14504,1.62687c-3.99109,-0.50952 -2.17438,-3.3728 -0.63987,-4.37811c-0.05901,-0.12504 -0.12841,-0.25481 -0.2114,-0.38945c0,0 -0.59857,-1.09736 0.49881,-1.69593c1.09737,-0.59857 1.69594,0.4988 1.69594,0.4988c0.14938,0.29681 0.40104,0.9774 0.59081,1.77773l0.48825,0.20244c0,0 1.11804,0.55903 0.55901,1.67705z" fill="#00ff2b" stroke="none" stroke-width="0.5"/><path d="M319.05615,181.93701c-0.89565,-0.86453 -1.03867,-2.35294 -0.3557,-3.26384c-0.0633,-0.14899 -0.10168,-0.32963 -0.10168,-0.54865c0,-1.25 1.25,-1.25 1.25,-1.25c1.46945,0.03051 3.37848,-0.2002 4.23526,1.63644c0.57951,1.24226 -0.23722,2.58479 -1.2994,3.38312c-0.25594,1.38149 -1.1071,2.48182 -2.48786,2.00516c-0.75417,-0.26035 -1.00353,-1.1042 -1.24062,-1.96222z" fill="#00ff2b" stroke="none" stroke-width="0.5"/><path d="M337.66938,181.00699c-1.11802,-0.55905 -0.55897,-1.67707 -0.55897,-1.67707l0.01506,0.26497c0.00642,-0.21058 0.01806,-0.43781 0.04201,-0.66812c-0.15265,-0.07549 -0.30571,-0.18805 -0.42276,-0.35592l-0.09742,0.02436c-0.10523,0.02877 -0.21601,0.04412 -0.33037,0.04412c-0.66987,0 -1.21667,-0.52692 -1.24854,-1.1889c-0.12526,-0.20718 -0.19317,-0.48469 -0.13148,-0.85476c0.1738,-1.04277 1.08251,-1.05666 1.35876,-1.03612c0.15439,-0.51517 0.63213,-0.8906 1.19756,-0.8906c0.41415,0 0.78127,0.20142 1.00873,0.51164l0.87351,1.16467l-0.04387,0.0329c0.08587,0.09879 0.16311,0.20547 0.22973,0.32181c0.15188,0.26524 0.21186,0.55602 0.22359,0.86022l0.28548,0.57096c0.09145,0.1737 0.14321,0.37157 0.14321,0.58151c0,0.47704 -0.26722,0.89165 -0.66014,1.10234l-0.20703,0.63299c0,0 -0.55905,1.11802 -1.67707,0.55898z" fill="#00ff2b" stroke="none" stroke-width="0.5"/><path d="M336.53731,189.8875c0,-0.39988 0.12793,-0.67184 0.30192,-0.8568l-0.10031,-0.47974c-0.09028,-0.03152 -0.18551,-0.07448 -0.27738,-0.13303l-0.3012,0.1004l-0.43188,-1.29566c-0.04749,-0.1321 -0.07336,-0.2745 -0.07336,-0.42296c0,-0.69036 0.55964,-1.25 1.25,-1.25c0.27621,0 0.5315,0.08958 0.73838,0.24129l0.48561,0.34686h0.21778c0.46285,-0.27435 0.93436,-0.805 1.1887,-0.44961c2.01592,2.81671 0.71219,3.50565 -0.71735,5.08313l-1.03092,0.36611c0,0 -1.25,0 -1.25,-1.25z" fill="#00ff2b" stroke="none" stroke-width="0.5"/><path d="M325.72863,161.06652c0.66219,-0.66216 1.32435,-0.33216 1.61488,-0.12495c0.35271,-0.13034 0.71758,-0.17656 1.08305,-0.07854c2.03057,0.54465 3.68535,3.09614 2.87444,5.22999c-0.21228,0.55861 -0.79745,0.80989 -1.40259,1.04471c-0.21672,0.37133 -0.6194,0.62085 -1.08036,0.62085c-0.27221,0 -0.5241,-0.08701 -0.72937,-0.23474l-1.45783,-1.02047l-0.69529,-1.05316c0,0 -0.17892,-0.35784 -0.13187,-0.76986c-0.236,-0.03915 -0.48813,-0.16571 -0.72843,-0.44606c-0.81349,-0.94907 0.13558,-1.76256 0.13558,-1.76256c0.06202,-0.05187 0.12685,-0.10781 0.19427,-0.16669c-0.1182,-0.33387 -0.12882,-0.7862 0.32352,-1.23852z" fill="#00ff2b" stroke="none" stroke-width="0.5"/><path d="M319.11358,164.52376c-0.78382,0 -1.07614,-0.49149 -1.18516,-0.85809c-0.08601,-0.00446 -0.17317,-0.01442 -0.26133,-0.03021c-1.71828,-0.30779 -4.40563,-3.39963 -1.49385,-5.14083c0.85204,-0.5095 1.53825,-0.45173 2.09433,-0.10649c0.41659,-0.16601 0.82561,-0.26328 1.20382,-0.08086c1.37493,0.66315 1.48044,2.33761 0.86852,3.64031l0.02366,1.32617c0,0 0,1.25 -1.25,1.25z" fill="#00ff2b" stroke="none" stroke-width="0.5"/><path d="M327.90651,195.42592c0.01276,0.01721 0.02509,0.03501 0.03699,0.0534c1.92728,2.97922 -1.19588,4.7412 -3.23726,4.92151c-1.27332,0.11247 -2.20522,-0.5331 -2.73919,-1.48729c-0.1943,-0.12061 -0.37293,-0.32165 -0.49499,-0.64714c-0.14896,-0.39721 -0.11255,-0.71017 0.00055,-0.95031c-0.21815,-2.02101 0.87959,-4.30482 3.60012,-4.4121c1.62306,-0.06401 2.52477,1.11392 2.83377,2.52193z" fill="#00ff2b" stroke="none" stroke-width="0.5"/><path d="M311.54098,194.59269c0,-0.69036 0.55964,-1.25 1.25,-1.25c0.69036,0 1.25,0.55964 1.25,1.25c0,0.69036 -0.55964,1.25 -1.25,1.25c-0.69036,0 -1.25,-0.55964 -1.25,-1.25z" fill="#00ff2b" stroke="none" stroke-width="0.5"/><path d="M316.25651,196.69875c0.19126,0.15495 0.35107,0.39787 0.41413,0.77624c0.20549,1.233 -1.0275,1.43848 -1.0275,1.43848l-0.70492,-0.47602c-0.19507,0.12588 -0.42744,0.19895 -0.67687,0.19895c-0.20995,0 -0.4078,-0.05176 -0.58151,-0.14321l-1.12959,-0.56479c-0.4228,-0.20043 -0.7152,-0.63114 -0.7152,-1.13015c0,-0.14126 0.02343,-0.27704 0.06662,-0.40368c-0.30163,0.06409 -1.15035,0.14905 -1.47285,-0.81845c-0.39528,-1.18586 0.79058,-1.58113 0.79058,-1.58113c0.32736,-0.10912 1.70745,-0.57344 2.60856,-0.86004c0.20492,-0.14689 0.4561,-0.23336 0.72746,-0.23336c0.04095,0 0.08145,0.00197 0.1214,0.00582c3.53315,0.24089 3.01109,2.21505 1.57968,3.79136z" fill="#00ff2b" stroke="none" stroke-width="0.5"/><path d="M288.21413,168.31018c-1.2861,2.30358 -2.94101,-0.48023 -3.57508,-1.85299c-0.41692,-0.20263 -0.7043,-0.6302 -0.7043,-1.12491c0,-0.47721 0.26742,-0.89196 0.66057,-1.10258c0.19397,-0.52465 0.50247,-0.9534 0.88283,-1.27853c-0.09531,-0.29316 -0.26882,-1.12849 0.65972,-1.55055c1.13796,-0.51725 1.65522,0.6207 1.65522,0.6207c0.0258,0.07139 0.05512,0.14246 0.087,0.21329c0.93056,0.10607 1.85388,0.6155 2.49681,1.57776c0.42123,0.63045 0.191,1.50435 0.2865,2.25653l-1.05673,1.7212c0,0 -0.54462,0.81694 -1.39254,0.52008z" fill="#00ff2b" stroke="none" stroke-width="0.5"/><path d="M286.80382,183.71028c0.64893,0.94054 3.07161,3.26804 0.08847,3.79337c-0.20479,0.41087 -0.62914,0.69311 -1.1194,0.69311c-0.42534,0 -0.80106,-0.21244 -1.02684,-0.537l-0.7255,-1.01569l-0.15664,-0.68664c-0.03378,-0.03233 -0.06802,-0.06334 -0.10281,-0.09278l0.0336,-0.2106l-0.00698,-0.03061c0,0 0,-0.07382 0.01794,-0.18556l-0.15877,0.01588l-0.14537,-1.45364c-0.0052,-0.04632 -0.00788,-0.09341 -0.00788,-0.14112c0,-0.69036 0.55964,-1.25 1.25,-1.25c0.39373,0 0.74495,0.18204 0.97407,0.46654l0.19825,0.24231c0.50934,0.01392 0.88786,0.39245 0.88786,0.39245z" fill="#00ff2b" stroke="none" stroke-width="0.5"/><path d="M260.76644,180.92882c1.16571,-0.45124 1.61695,0.71447 1.61695,0.71447l0.77882,2.01197c0.17046,0.0269 0.28415,0.07238 0.28415,0.07238c0.5762,0.24289 1.1524,0.48578 1.72859,0.72867l0.04221,0.09641l0.29845,-0.02713l0.0072,0.07914c0.23924,-0.02535 0.47749,-0.00735 0.71428,0.07373c2.36797,0.81083 1.7328,2.30293 0.86185,3.46377c-0.02312,0.56709 -0.2061,1.10719 -0.55954,1.41161c-2.92735,2.5213 -5.17,-3.61982 -5.62549,-4.78133l-0.86196,-2.22674c0,0 -0.45124,-1.16571 0.71447,-1.61695z" fill="#00ff2b" stroke="none" stroke-width="0.5"/><path d="M269.23616,152.06507c0,0 -0.11316,-1.24486 1.1317,-1.35803c1.24487,-0.11317 1.35803,1.13169 1.35803,1.13169c0.1225,1.77672 0.423,2.44096 -0.61634,3.91187c0.11516,0.58523 -0.11369,1.19931 -0.89006,1.74591c-0.32903,0.23166 -0.70246,0.20444 -1.09498,0.06599c-1.07488,0.5503 -2.31244,0.54794 -2.91515,-1.38647c-0.35279,-1.13228 -0.26554,-1.87462 0.07393,-2.31592c0.15046,-0.32328 0.46255,-0.65858 1.10995,-0.65858c0.29244,0 0.51647,0.06842 0.68808,0.17324c0.18616,-0.11007 0.40333,-0.17324 0.63527,-0.17324c0.17278,0 0.33738,0.03506 0.48706,0.09845c0.06792,-0.4113 0.08279,-0.82922 0.03251,-1.23491z" fill="#00ff2b" stroke="none" stroke-width="0.5"/><path d="M244.02136,144.90545c-0.16596,-0.00915 -0.40818,0.01612 -0.74222,0.06237c0,0 -1.25,0 -1.25,-1.25c0,-1.25 1.25,-1.25 1.25,-1.25c1.17703,0.07146 2.18714,0.33059 2.78547,0.90667c0.50172,0.14855 1.23353,0.54352 2.28159,1.29683c1.18608,0.85252 1.49436,4.80155 -1.04183,4.85344c-0.57801,0.01182 -0.97515,-0.45507 -1.3526,-0.97408c-0.04706,-0.01685 -0.09447,-0.03503 -0.1422,-0.05433c-0.01023,0.00025 -0.0205,0.00037 -0.03079,0.00037c-0.4084,0 -0.77106,-0.19585 -0.99917,-0.49877c-0.32326,-0.16171 -0.64226,-0.3079 -0.94056,-0.37884l0.12176,-2.50748c0,0 0.01545,-0.08496 0.06056,-0.20617z" fill="#00ff2b" stroke="none" stroke-width="0.5"/><path d="M240.49096,191.70235c-0.30975,-0.07094 -0.58866,-0.20337 -0.79969,-0.40413c-0.3842,-0.36549 -0.52675,-0.85831 -0.48854,-1.39765c-0.31947,-0.19247 -0.66245,-0.56644 -0.53528,-1.26592c0.2236,-1.22984 1.45344,-1.00624 1.45344,-1.00624c0.02799,0.0072 0.05633,0.01384 0.08498,0.01998c1.13383,-1.40538 2.99327,-2.34317 4.35316,-1.18732c2.43761,2.07186 -0.49738,5.12933 -2.13897,5.91037l-0.75832,0.0894c0,0 -0.89591,0 -1.17078,-0.75849z" fill="#00ff2b" stroke="none" stroke-width="0.5"/><path d="M316.24636,145.2619v-0.06148c-0.17137,0.01322 -0.34346,-0.00056 -0.51653,-0.05024c-3.17622,-0.91171 -1.70063,-3.94243 0.36705,-4.29081c0.91653,-0.15443 1.72521,0.69218 2.58782,1.03827l-0.02449,0.46613l0.15021,0.12593l0.13616,-0.02476l0.02979,0.16388l0.36736,0.30795c0,0 -0.06885,0.20655 -0.23527,0.41851l0.12778,0.70281c0.01612,0.08012 0.02458,0.163 0.02458,0.24787c0,0.69036 -0.55964,1.25 -1.25,1.25c-0.30687,0 -0.58792,-0.11058 -0.80545,-0.29407z" fill="#00ff2b" stroke="none" stroke-width="0.5"/><path d="M313.35155,122.33731c0.00952,-0.23612 0.10181,-0.49885 0.34314,-0.77034c0.83045,-0.93427 1.76472,-0.10381 1.76472,-0.10381c0.56369,0.5848 1.57218,0.95089 1.69107,1.75438c0.18678,1.26232 -1.38063,5.90152 -4.04257,2.5115c-0.41305,-0.52602 -0.371,-1.21601 -0.26644,-1.92852c-0.01899,-0.07247 -0.03357,-0.1509 -0.043,-0.23578c-0.04384,-0.39459 0.05156,-0.67778 0.20218,-0.88052c0.01349,-0.15046 0.02034,-0.29852 0.01659,-0.44276z" fill="#00ff2b" stroke="none" stroke-width="0.5"/><path d="M311.92273,102.12797c-0.05708,-0.56727 -0.16886,-1.13335 -0.28395,-1.68802c0,0 -0.24515,-1.22573 0.98058,-1.47088c1.22573,-0.24515 1.47087,0.98058 1.47087,0.98058c0.09242,0.47713 0.17627,0.96012 0.23869,1.44551c0.11253,0.02831 0.22971,0.06093 0.35171,0.09804c2.8221,0.85829 2.31797,3.95615 0.01648,4.89723c-0.35616,0.14563 -0.72664,0.09285 -1.10252,-0.03458c-0.2054,0.14804 -0.45756,0.23525 -0.73009,0.23525c-0.64907,0 -1.1826,-0.49471 -1.24409,-1.12764l-0.79223,-0.56589c-0.32457,-0.22579 -0.53701,-0.60151 -0.53701,-1.02685c0,-0.69036 0.55964,-1.25 1.25,-1.25c0.10066,0 0.19855,0.0119 0.29233,0.03437c0.0103,-0.18864 0.03856,-0.36604 0.08922,-0.52714z" fill="#00ff2b" stroke="none" stroke-width="0.5"/><path d="M332.73485,146.91496c-0.14403,-0.01604 -0.29029,-0.02948 -0.43878,-0.04186c0,0 -1.2438,-0.12438 -1.11942,-1.36818c0.12438,-1.2438 1.36818,-1.11942 1.36818,-1.11942c2.00552,0.22512 7.45062,2.20708 4.29775,5.35305c-2.39162,2.38638 -4.62979,-0.70445 -4.10773,-2.82359z" fill="#00ff2b" stroke="none" stroke-width="0.5"/><path d="M343.66898,127.83781c0,0.3631 -0.10548,0.62073 -0.25515,0.80352c-0.02177,0.11936 -0.04539,0.23841 -0.0706,0.35718c1.05136,-0.09162 1.81009,0.4785 0.97499,2.97072c-0.34117,1.01817 -1.90789,1.22221 -2.9817,1.21947c-1.99401,-0.00509 -4.17596,-3.69262 -3.34121,-5.443c1.56403,-3.27964 2.54604,-2.14993 3.73541,-0.60706l0.68826,-0.55083c0,0 1.25,0 1.25,1.25z" fill="#00ff2b" stroke="none" stroke-width="0.5"/><path d="M350.21195,116.29556c-0.42577,0 -0.70652,-0.14503 -0.89164,-0.33629c-0.3588,-0.06228 -0.72589,-0.11508 -0.88518,-0.40556c-0.04095,-0.07468 -0.05439,-0.15183 -0.04867,-0.23071l-0.1008,0.13441l-0.15472,-0.11604l-0.05581,0.06511l-1.02309,-0.87694c-0.27078,-0.22929 -0.44268,-0.57175 -0.44268,-0.95436c0,-0.69036 0.55964,-1.25 1.25,-1.25c0.28596,0 0.54948,0.09602 0.7601,0.25758l0.1708,0.12811c-0.13049,-0.18603 -0.32747,-0.36954 -0.45146,-0.5299c0,0 -0.51725,-1.13796 0.62071,-1.65521c1.13795,-0.51726 1.65521,0.62071 1.65521,0.62071c0.27337,0.7979 1.11693,1.60424 0.82009,2.39371c-0.10212,0.2716 -0.26607,0.49986 -0.46764,0.70173l0.49478,0.80365c0,0 0,1.25 -1.25,1.25z" fill="#00ff2b" stroke="none" stroke-width="0.5"/><path d="M355.50849,93.39488c0.29994,-0.08746 0.75374,-0.06247 1.41568,0.13332c0.08573,0.02535 0.17178,0.07233 0.25668,0.1364c0.03342,-0.02747 0.06913,-0.05457 0.10724,-0.08125c1.02404,-0.71683 1.74086,0.30721 1.74086,0.30721c0.5822,0.91908 2.99501,3.57606 0.17719,4.67041c-0.93955,0.36489 -2.01723,-0.5602 -2.75439,-1.24759c-0.21951,-0.20469 0.04122,-0.66884 0.10549,-0.99725c-0.13659,0.01829 -0.26635,0.00761 -0.38512,-0.01962c-0.47026,1.21309 -0.95778,5.18934 -3.06242,0.12966c-1.54828,-3.72215 0.75748,-3.46874 2.39879,-3.03128z" fill="#00ff2b" stroke="none" stroke-width="0.5"/><path d="M355.41647,175.10821l0.09334,0.07556h0.36325v1.61741c0,0.69036 -0.55964,1.25 -1.25,1.25c-0.12793,0 -0.25137,-0.01922 -0.36759,-0.05493c-0.11622,0.03571 -0.23967,0.05493 -0.36759,0.05493c-0.26266,0 -0.5064,-0.08102 -0.70759,-0.21942l-1.30912,-0.87274c0,0 -1.04006,-0.69338 -0.34668,-1.73344c0.1035,-0.15526 0.21473,-0.27188 0.32907,-0.35796c-1.19298,-1.13277 -2.2857,-2.79497 1.9773,-2.54802c1.08054,0.06259 1.33563,1.70354 2.00345,2.55531z" fill="#00ff2b" stroke="none" stroke-width="0.5"/><path d="M368.0992,171.53521c0.09417,-0.04036 0.18392,-0.06969 0.26936,-0.08953c0.00043,-0.3691 0.14425,-0.84091 0.78805,-1.09843c1.1606,-0.46424 1.62484,0.69635 1.62484,0.69635c0.15616,0.43777 0.2556,0.82064 0.29949,1.16128c0.06554,0.03238 0.12773,0.07426 0.18603,0.12725c0.78379,0.7124 1.51701,2.33462 0.76784,3.08335c-2.2185,2.21718 -2.93857,0.74527 -3.23541,-0.91733l-1.35673,-1.32161c0,0 -0.4924,-1.14893 0.65653,-1.64133z" fill="#00ff2b" stroke="none" stroke-width="0.5"/><path d="M382.65728,171.46924c-0.14675,-0.60546 0.13389,-0.98561 0.40788,-1.20247c0.03679,-0.25959 0.1756,-0.53781 0.50942,-0.78818c1,-0.75 1.75,0.25 1.75,0.25c0.37203,0.57536 1.12861,1.04103 1.11608,1.72607c-0.03473,1.89955 -2.03203,4.98049 -4.04543,1.30485c-0.22264,-0.40645 -0.01231,-0.84592 0.26205,-1.29027z" fill="#00ff2b" stroke="none" stroke-width="0.5"/><path d="M400.39035,171.27761c-0.16919,0.19059 -0.36168,0.33352 -0.60923,0.36377c-2.91183,0.35575 -4.59069,-1.55212 -1.23352,-3.54372c0.37725,-0.22381 0.81805,-0.04752 1.26275,0.15336c0.31916,-0.12525 0.7475,-0.14524 1.20774,0.24923c0.57909,0.49635 0.50198,1.04319 0.35386,1.39411l0.08266,0.14312c0,0 0,1.12288 -1.06426,1.24013z" fill="#00ff2b" stroke="none" stroke-width="0.5"/><path d="M353.4265,192.87981c0.08373,0.0479 0.169,0.10855 0.25526,0.18402c0.94072,0.82313 0.11759,1.76385 0.11759,1.76385c-1.17609,1.28305 -4.71508,3.97805 -5.68065,0.22172c-0.69797,-2.71531 4.69473,-6.2687 5.30781,-2.16959zM350.90534,194.31288l-0.14557,-0.17881c-0.07375,0.09343 -0.14938,0.19239 -0.21901,0.296c-0.08488,0.1263 0.15544,0.0152 0.36458,-0.11719z" fill="#00ff2b" stroke="none" stroke-width="0.5"/><path d="M365.50216,202.82843c-0.6178,-0.6178 -0.37196,-1.23561 -0.16796,-1.55158l-0.00008,0.00001c0,0 -1.2438,0.12437 -1.36817,-1.11943c-0.04832,-0.48318 0.10985,-0.79743 0.32135,-1.00108c0.10204,-0.43181 0.42802,-0.77707 0.84859,-0.90641l1.29599,-0.43199l0.07061,0.21181c0.32776,-0.13052 0.66097,-0.1783 1.00414,-0.07516c1.69677,0.50997 0.47688,3.39802 0.21231,4.2382l-0.44901,0.63563c0,0 -0.88388,0.88389 -1.76776,0z" fill="#00ff2b" stroke="none" stroke-width="0.5"/><path d="M381.08976,203.19418c0.1572,0 0.30761,0.02902 0.44619,0.08199c0.30579,-0.10741 1.10795,-0.28325 1.55407,0.60899c0.37563,0.75126 -0.00595,1.25011 -0.29673,1.49656c-0.1951,0.2387 -0.47672,0.40394 -0.797,0.44785c-0.31189,0.15594 -0.62377,0.31189 -0.93566,0.46783l-0.55439,-0.13945c-0.06799,0.03195 -0.13694,0.05595 -0.2047,0.07377c-0.29112,0.54446 -0.96821,0.6291 -0.96821,0.6291l-0.3401,-0.32385c-0.0575,0.06173 -0.11674,0.12166 -0.17775,0.17962l0.0286,-0.32165l-0.43804,-0.4171c-0.02903,-0.00645 -0.05805,-0.0129 -0.08708,-0.01935l-0.81655,-0.13428c0,0 -1.23299,-0.20551 -1.02749,-1.43849c0.20058,-1.20351 1.38011,-1.0365 1.4364,-1.02782c0.01319,-0.11569 0.02006,-0.23022 0.02128,-0.34086c0,0 0.0218,-0.2616 0.1653,-0.53505c-0.19696,-0.22093 -0.31666,-0.51224 -0.31666,-0.83151c0,-0.69036 0.55964,-1.25 1.25,-1.25c0.69036,0 1.25,0.55964 1.25,1.25c0,0.2215 -0.05761,0.42955 -0.15867,0.60998c0.34836,0.4006 0.30139,0.9642 0.30139,0.9642c-0.0074,0.05897 -0.01557,0.11807 -0.02453,0.17727c0.19781,-0.13128 0.43514,-0.20774 0.69033,-0.20774z" fill="#00ff2b" stroke="none" stroke-width="0.5"/><path d="M393.2583,209.1982c0.27838,-0.01796 0.59891,0.07009 0.91944,0.39063c0.67583,0.67583 0.31816,1.35165 0.11234,1.63237c0.56934,0.26644 1.08038,0.54413 1.34774,0.73397c0,0 1.01718,0.72654 0.29064,1.74371c-0.72654,1.01718 -1.74371,0.29064 -1.74371,0.29064c-1.04485,-0.75149 -5.92973,-2.14505 -5.19103,-3.96827c1.1126,-2.74611 2.96463,-1.68185 4.26459,-0.82304z" fill="#00ff2b" stroke="none" stroke-width="0.5"/><path d="M407.79229,215.94221c0.55901,1.11804 -0.55901,1.67705 -0.55901,1.67705l-0.1711,-0.04309l-1.16908,1.46136c-0.22886,0.29115 -0.58424,0.47815 -0.9833,0.47815c-0.69036,0 -1.25,-0.55964 -1.25,-1.25c0,-0.27621 0.08958,-0.53149 0.24129,-0.73838l0.72673,-1.01743c0,0 0.12871,-0.1802 0.35364,-0.33474l0.12856,-0.16069l1.00523,-0.63125c0,0 1.11804,-0.55902 1.67705,0.55901z" fill="#00ff2b" stroke="none" stroke-width="0.5"/><path d="M305.59157,211.74886c0.24659,-0.45208 0.57783,-0.61633 0.88213,-0.65318c0.19527,-0.16398 0.44142,-0.26935 0.71136,-0.28899l1.75266,-0.14606l0.00097,0.0116c0.24491,-0.00721 0.4842,0.03345 0.71525,0.14437c4.0686,1.95333 0.79345,3.77137 -0.36013,4.77644l-1.82787,-0.29407c0,0 -0.81425,-0.54283 -0.52154,-1.38835l-0.85402,-0.46583c0,0 -1.09737,-0.59857 -0.4988,-1.69593z" fill="#00ff2b" stroke="none" stroke-width="0.5"/><path d="M298.88291,231.38893c-0.1917,0 -0.38339,0 -0.57509,0c0,0 -1.25,0 -1.25,-1.25c0,-0.36097 0.10424,-0.6177 0.25252,-0.8003c-0.51885,-0.89691 -0.8394,-1.74926 -0.76286,-2.101c0.21523,-0.98905 1.61583,-1.75975 2.60739,-1.55641c0.8158,0.16729 1.85681,1.80566 2.61269,3.14059l0.13776,0.12054c0.44278,0.13403 0.78171,0.50709 0.86666,0.96906l0.56584,0.88835c0,0 0.60862,0.97379 -0.27419,1.63801c-0.11205,0.57537 -0.61877,1.00967 -1.22692,1.00967c-0.46911,0 -0.87786,-0.25841 -1.09167,-0.64064l-0.39134,-0.67087c-0.46213,0.01533 -0.97492,-0.28533 -1.47078,-0.747z" fill="#00ff2b" stroke="none" stroke-width="0.5"/><path d="M292.99966,252.60635c-0.8551,-0.64134 -0.43059,-1.46546 -0.28962,-1.69082c-2.02332,0.09345 -1.15734,-2.95797 -0.60852,-4.08871c0,0 0.6625,-1.06 1.7225,-0.39749c1.06,0.6625 0.39749,1.7225 0.39749,1.7225c-1.04836,0.86234 0.652,1.28467 1.61022,1.92769l-1.08208,2.27685c0,0 -0.75001,0.99999 -1.75,0.24999z" fill="#00ff2b" stroke="none" stroke-width="0.5"/><path d="M332.06812,247.66551c0.24494,0.48988 0.1679,0.87244 0.00402,1.14767c0.04891,0.52958 -0.32003,0.96001 -0.32003,0.96001l-0.87693,1.02308c-0.22929,0.27078 -0.57175,0.44268 -0.95436,0.44268c-0.69036,0 -1.25,-0.55964 -1.25,-1.25c0,-0.05286 0.00328,-0.10495 0.00965,-0.15608l0.14502,-1.30529l1.56557,-1.42111c0,0 1.11804,-0.55901 1.67705,0.55903z" fill="#00ff2b" stroke="none" stroke-width="0.5"/><path d="M328.72847,230.58688c0.95928,-0.13748 2.20566,0.50529 2.72297,1.2919c0.57912,0.88059 0.23372,2.51871 -0.64903,3.09452c-2.08659,1.36104 -8.03628,-2.04608 -5.49239,-4.63487c1.3121,-1.33526 2.49745,-0.59564 3.41845,0.24846z" fill="#00ff2b" stroke="none" stroke-width="0.5"/><path d="M326.18375,217.02287c0.02932,-0.20521 0.0878,-0.37153 0.16498,-0.50621c-1.12427,-0.10988 -2.524,-1.08525 -2.52723,-2.19588c-0.00239,-0.82075 0.90144,-1.38511 1.79955,-1.69069c0.0789,-0.3714 0.32679,-0.85384 1.07394,-0.93686c1.15489,-0.12833 1.35549,0.93622 1.37801,1.08675c1.37091,0.99457 1.79778,3.59483 1.59769,4.83788l-2.42629,0.81924c0,0 -1.23744,-0.17679 -1.06065,-1.41422zM327.25655,216.99583l-0.02633,0.07972c0.00968,-0.02659 0.01845,-0.05316 0.02633,-0.07972z" fill="#00ff2b" stroke="none" stroke-width="0.5"/><path d="M132.5,352.54601v-345.09202h375v345.09202z" fill="none" stroke="#000000" stroke-width="0"/></g></g></svg>