<svg version="1.1" xmlns="http://www.w3.org/2000/svg" xmlns:xlink="http://www.w3.org/1999/xlink" width="375" height="345.09202" viewBox="0,0,375,345.09202"><g transform="translate(-132.5,-7.45399)"><g stroke-miterlimit="10"><path d="M306.19555,183.40552c-1.16901,2.6542 -8.33631,2.41735 -8.0756,-1.1791c0.1861,-2.56736 3.91294,-4.76357 6.16123,-3.48487c0.16843,0.0958 0.32217,0.21031 0.46577,0.33771c1.13869,-0.03163 2.16388,0.31804 2.63906,1.25347c0.41736,0.82163 -0.30391,1.81789 -0.45587,2.72683z" fill="#00ff2b" stroke="none" stroke-width="0.5"/><path d="M316.27914,183.48971c-1.25,0 -1.25,-1.25 -1.25,-1.25c0,-0.3798 -0.04729,-0.99451 -0.0592,-1.67395c-0.10712,-0.21846 -0.21983,-0.44178 -0.34398,-0.66714l0.06395,-0.30559h-0.10187v-2.35259c0,-0.69036 0.55964,-1.25 1.25,-1.25c0.4033,0 0.76199,0.191 0.99056,0.48748l0.42126,0.53615c0.85627,0.25535 1.84186,0.96946 2.56311,1.83576c0.57009,0.0163 1.07401,0.22193 1.40287,0.68591c0.93195,1.31486 0.53853,2.36947 -0.27968,3.05771c0.15961,0.33707 0.3321,0.99583 -0.37811,1.52849c-0.5936,0.4452 -1.09911,0.27377 -1.41195,0.0609c-0.14681,0.09172 -0.31403,0.1538 -0.4933,0.1779c-0.18024,0.10079 -0.38801,0.15823 -0.60919,0.15823c-0.38261,0 -0.72507,-0.1719 -0.95436,-0.44268l-0.52373,-0.61102c-0.0873,0.01582 -0.18252,0.02445 -0.28636,0.02445z" fill="#00ff2b" stroke="none" stroke-width="0.5"/><path d="M334.45437,182.74409c-1.17557,0.51585 -3.78508,0.30938 -4.47763,-0.12455c-0.78899,-0.49436 -1.87435,-1.2896 -1.71269,-2.20654c0.03106,-0.17615 0.07501,-0.34274 0.1305,-0.49995c-0.0812,-0.16068 -0.13205,-0.36195 -0.13205,-0.61408c0,-1.25 1.25,-1.25 1.25,-1.25c0.30775,0.00011 0.61568,-0.00803 0.92343,-0.00759c0.90233,-0.28211 1.92579,-0.2416 2.75886,0.08994c0.12582,0.02051 0.25076,0.04642 0.37458,0.07908c0.38874,0.10255 0.74977,0.21868 1.06992,0.3535c1.02859,-0.05644 1.95722,0.14947 2.4235,0.69497c0.6401,0.74887 -0.38222,2.02522 -1.02451,2.7722c-0.3799,0.44181 -0.95146,0.66212 -1.58389,0.71303z" fill="#00ff2b" stroke="none" stroke-width="0.5"/><path d="M332.81163,167.57455c-0.02979,0.14842 -0.08011,0.27565 -0.12289,0.36563c0.14042,1.58794 -0.39071,3.47366 -1.90626,3.48896c-0.51845,0.00524 -0.935,-0.04804 -1.26414,-0.14869l-0.31066,0.21507c-0.20436,0.14558 -0.4544,0.23121 -0.72443,0.23121c-0.69036,0 -1.25,-0.55964 -1.25,-1.25c0,-0.08738 0.00897,-0.17266 0.02603,-0.25498l0.4365,-2.32798l0.11975,0.02245c0.22538,-1.5531 0.95836,-2.86677 3.07334,-2.34617c0.11388,-0.12077 0.2135,-0.21954 0.29283,-0.29167l2.09552,0.66931c0,0 0.52695,1.05388 -0.46557,1.62685z" fill="#00ff2b" stroke="none" stroke-width="0.5"/><path d="M319.1521,166.26689c0.39426,0.72994 0.54728,1.47675 0.11426,2.70488c-0.32033,0.9085 -0.78632,2.48115 -1.73459,2.31151c-3.24373,-0.58027 -3.78326,-8.18489 -0.48796,-7.07559c0.71227,-0.09165 1.15763,0.57641 1.15763,0.57641c0.03035,0.04834 0.06062,0.09588 0.09078,0.14268c0.14478,0.11298 0.29435,0.23862 0.44874,0.37757c0.26969,0.2427 0.36744,0.58669 0.41114,0.96254z" fill="#00ff2b" stroke="none" stroke-width="0.5"/><path d="M305.69572,165.74905c0.2375,0.08457 0.40757,0.24338 0.5263,0.40406c1.29266,0.74914 2.17923,1.81127 3.23298,3.31916l0.01343,0.18694l0.05658,-0.01886l0.43187,1.29566c0.04749,0.1321 0.07337,0.27451 0.07337,0.42296c0,0.69036 -0.55964,1.25 -1.25,1.25c-0.15779,0 -0.30875,-0.02924 -0.44777,-0.08259l-2.03118,-0.72542l0.07933,-0.22213c-0.45902,-0.01698 -0.8548,-0.28145 -1.05781,-0.6639l-0.00601,-0.01082c-0.91577,-0.63934 -1.64709,-1.59733 -2.68553,-3.17158l0.00731,-0.23675l-0.07784,0.0173l-0.28823,-1.29702c-0.02328,-0.09534 -0.03561,-0.19497 -0.03561,-0.29748c0,-0.69036 0.55964,-1.25 1.25,-1.25c0.20995,0 0.4078,0.05176 0.5815,0.14321l1.15381,0.57691l-0.01152,0.02304c0.11357,0.05532 0.22222,0.12097 0.32469,0.19956c0.05647,0.0433 0.10979,0.08932 0.16033,0.13776z" fill="#00ff2b" stroke="none" stroke-width="0.5"/><path d="M305.49414,198.97458c-0.58685,-0.25151 -0.74549,-0.67431 -0.76024,-1.02779c-0.97341,0.32044 -1.92607,0.2163 -2.48418,-0.6241c-1.31662,-1.98255 0.78203,-6.35215 3.6448,-5.64298c0.56779,0.14065 0.96896,0.43005 1.24996,0.80939c0.5577,0.12554 0.9743,0.62388 0.9743,1.2195c0,0.15321 -0.02756,0.29998 -0.078,0.43563c0.02031,0.38799 -0.08452,0.79775 -0.28036,1.20086c-0.01471,0.57342 -0.06582,1.11272 -0.08536,1.53189l-0.53957,1.44106c0,0 -0.4924,1.14893 -1.64133,0.65653z" fill="#00ff2b" stroke="none" stroke-width="0.5"/><path d="M317.21839,192.91613c0.3478,-1.78842 1.50568,-3.09427 3.58342,-0.84798c0.19349,0.20918 0.42076,0.75023 0.6441,1.39803c0.20449,0.22255 0.32932,0.51945 0.32932,0.8455c0,0.05202 -0.00318,0.1033 -0.00935,0.15364c0.25271,0.83844 0.47319,1.67229 0.59616,2.11205l-0.02779,0.12649l0.04345,-0.00334l0.14598,1.89783c0.00313,0.03609 0.00474,0.07263 0.00474,0.10953c0,0.69036 -0.55964,1.25 -1.25,1.25c-0.48503,0 -0.90553,-0.27624 -1.11276,-0.67998l-0.05023,-0.09328c-0.09834,0.02486 -0.20131,0.03807 -0.30738,0.03807c-0.49901,0 -0.92971,-0.29239 -1.13014,-0.7152l-1.10592,-2.21185l0.0257,-0.01284c-0.03692,-0.06356 -0.07257,-0.12797 -0.10683,-0.19331c-0.02229,-0.04251 -0.04363,-0.08687 -0.06402,-0.13292c-0.41134,-0.32544 -0.76139,-0.65195 -0.97138,-0.90981l-0.25,-0.89705c0,0 0,-1.08649 1.01295,-1.23359z" fill="#00ff2b" stroke="none" stroke-width="0.5"/><path d="M333.61282,191.80573c0.87577,0.48645 1.59376,1.23578 2.06079,2.55581c0.34474,0.9744 0.77259,2.33001 0.0827,3.09966c-2.39049,2.66684 -5.6395,-1.45326 -5.91969,-4.30763c-0.27686,-0.03566 -0.54946,-0.0803 -0.80819,-0.15274c0,0 -1.20371,-0.33704 -0.86667,-1.54075c0.33704,-1.20371 1.54074,-0.86667 1.54074,-0.86667c0.33013,0.09244 0.65687,0.17386 0.97788,0.25202c0.0123,-0.00651 0.02482,-0.01295 0.03755,-0.01932c0.47239,-0.2362 0.84498,-0.173 1.11777,-0.02125c0.20125,0.00854 0.4194,0.03504 0.65525,0.08117c0.48982,0.0958 0.82061,0.48088 1.12187,0.91969z" fill="#00ff2b" stroke="none" stroke-width="0.5"/><path d="M284.34825,181.51175c0.06079,-0.54051 0.19799,-1.06801 0.32379,-1.47539c0,0 0.4389,-1.17041 1.60931,-0.73151c1.17041,0.4389 0.73151,1.60931 0.73151,1.60931c-0.87144,1.61188 4.13342,3.82594 0.06129,5.31941c-2.42439,0.88915 -3.2969,-3.82145 -2.76976,-4.65933c0.01386,-0.02204 0.02849,-0.04284 0.04386,-0.06249z" fill="#00ff2b" stroke="none" stroke-width="0.5"/><path d="M266.91296,184.33255c-0.47759,-0.54321 0.08088,-1.89571 -0.61782,-2.10494c0,0 -1.01717,-0.72654 -0.29062,-1.74371c0.72655,-1.01716 1.74371,-0.29062 1.74371,-0.29062c0.43835,0.38675 1.09222,0.62703 1.38128,1.11525c0.17915,-0.03093 1.21749,-0.15978 1.46501,0.95409c0.02033,0.09148 0.03228,0.17764 0.03699,0.25874c0.30136,0.2473 0.51734,0.54688 0.55032,0.91383c0.28407,3.1606 -2.74679,3.71466 -4.06543,1.48967c-0.10981,-0.1853 -0.17222,-0.3843 -0.20343,-0.59232z" fill="#00ff2b" stroke="none" stroke-width="0.5"/><path d="M236.89115,183.86576c0.30648,-0.42907 0.66467,-0.54787 0.97641,-0.54181c0.4103,-0.7265 1.31516,-0.54553 1.31516,-0.54553c0.77926,0.31664 2.06192,0.15531 2.33776,0.94993c0.10402,0.29964 0.09022,0.60125 0.01118,0.90395c0.08088,0.1655 0.12629,0.35153 0.12629,0.54815c0,0.58146 -0.39701,1.07019 -0.93475,1.20991c-0.05827,0.13102 -0.10979,0.26193 -0.15035,0.39265l-0.42162,0.08956l0.08055,0.1611l-1.15381,0.57691c-0.1737,0.09145 -0.37156,0.14321 -0.58151,0.14321c-0.69035,0 -1.25,-0.55964 -1.25,-1.25c0,-0.19045 0.04259,-0.37095 0.11877,-0.53249l0.08405,-0.18911l-0.2675,-0.17271c0,0 -1.01717,-0.72654 -0.29063,-1.74371z" fill="#00ff2b" stroke="none" stroke-width="0.5"/><path d="M296.43194,203.27925c1.71388,0.81572 3.28909,2.30077 1.13002,4.14841c-2.1763,1.86239 -4.29257,-0.54911 -4.18819,-2.63181c-0.24419,-0.19818 -0.44338,-0.52337 -0.39507,-1.05483c0.11316,-1.24487 1.35803,-1.13171 1.35803,-1.13171c0.13665,0.01746 0.29707,0.04769 0.47413,0.09008c0.04864,-0.02121 0.09864,-0.04144 0.15002,-0.06064c0.52308,-0.19549 0.9982,0.20846 1.47106,0.64049z" fill="#00ff2b" stroke="none" stroke-width="0.5"/><path d="M288.93332,216.72729c-0.4613,1.05079 -1.30889,1.78732 -2.70625,1.26599c-2.72059,-1.015 -3.60809,-6.22337 0.5033,-5.82231c0.40431,0.03944 0.87673,0.20127 1.32774,0.45591c0.53816,0.11712 1.04761,0.26024 1.20455,0.72271c0.03875,0.11417 0.06956,0.25698 0.09121,0.42119c0.53427,0.76855 0.67245,1.73499 -0.12018,2.72249c-0.08585,0.10696 -0.18713,0.1826 -0.30036,0.23403z" fill="#00ff2b" stroke="none" stroke-width="0.5"/><path d="M271.44115,233.61383c-1.76461,-0.2431 -3.75205,-1.63601 -2.5496,-3.4966c1.5522,-2.40177 4.65408,-0.37851 5.4579,1.04228c0.34144,0.6035 -0.03695,1.38629 -0.05543,2.07944l-1.68492,1.12563c0,0 -0.88981,0 -1.16795,-0.75075z" fill="#00ff2b" stroke="none" stroke-width="0.5"/><path d="M321.11085,233.74709c0.99379,-0.65172 2.11595,-0.76184 2.58449,1.71439c0.24675,1.30405 -0.48815,1.92086 -1.463,2.15501c-0.09438,0.07002 -0.2075,0.13352 -0.34266,0.18758c-0.49837,0.19934 -0.86833,0.09909 -1.12828,-0.08022c-0.87222,-0.05094 -1.66493,-0.27078 -1.935,-0.47756c-2.85184,-2.18342 -0.81186,-4.05576 1.86887,-3.68196c0.15909,0.02218 0.29501,0.08801 0.41557,0.18277z" fill="#00ff2b" stroke="none" stroke-width="0.5"/><path d="M320.05952,229.49364c-0.03403,-0.05672 -0.06327,-0.11225 -0.08811,-0.16654c-0.41984,0.06491 -0.85402,-0.01637 -1.28394,-0.30962c-1.10631,-0.75461 -1.10012,-4.58817 0.9439,-4.75619c0.13127,-0.01079 0.26319,-0.01065 0.39504,-0.00066c-0.00744,-0.37324 0.12612,-0.86422 0.78777,-1.12887c1.1606,-0.46424 1.62483,0.69635 1.62483,0.69635c0.22361,0.68802 0.82018,1.3562 0.67084,2.06407c-0.0515,0.24411 -0.19359,0.59669 -0.40551,0.98436c-0.07726,0.30428 -0.1121,0.57999 0.1113,0.71936l-1.04112,2.32648c0,0 -1.07185,0.64312 -1.71499,-0.42874z" fill="#00ff2b" stroke="none" stroke-width="0.5"/><path d="M316.48168,210.50554c1.06086,-2.40531 2.64801,-1.95791 3.88092,-0.86821c0.27792,-0.01742 0.5977,0.07098 0.91747,0.39075c0.40091,0.40091 0.43813,0.80183 0.3591,1.12025c0.19582,0.30674 0.34822,0.59749 0.44405,0.83918l-0.14531,0.32088l0.1251,0.02502l-0.28954,1.44767c-0.10494,0.58423 -0.61583,1.02756 -1.23027,1.02756c-0.27358,0 -0.52663,-0.08788 -0.73246,-0.23697c-1.9908,0.43003 -4.46491,-1.49082 -3.32908,-4.06612z" fill="#00ff2b" stroke="none" stroke-width="0.5"/><path d="M345.06441,200.53888c-0.16626,0.37408 -0.40057,0.5712 -0.64054,0.66716c0.01771,0.15441 0.00796,0.26168 0.00796,0.26168c-0.29029,0.88016 -0.02293,2.2664 -0.87088,2.64048c-0.48251,0.21286 -0.93351,0.18754 -1.33915,0.00746c-0.15448,0.06835 -0.32542,0.1063 -0.50521,0.1063c-0.69036,0 -1.25,-0.55964 -1.25,-1.25c0,-0.23503 0.06486,-0.4549 0.17766,-0.6427c-0.39252,-0.83702 -0.56241,-1.72862 -0.42807,-2.18445c0.27593,-0.93626 1.46363,-1.29176 2.19545,-1.93764l2.01818,0.68178c0,0 1.14227,0.50767 0.6346,1.64994z" fill="#00ff2b" stroke="none" stroke-width="0.5"/><path d="M347.77425,208.02948c0.74114,-0.37056 1.23663,-0.00419 1.48647,0.28494l0.39246,-0.08722c0.09535,-0.02328 0.19497,-0.03561 0.29749,-0.03561c0.69036,0 1.25,0.55964 1.25,1.25c0,0.03503 -0.00144,0.06972 -0.00427,0.10402c0.47506,0.9652 0.53933,2.42001 -0.25829,2.99456c-0.95036,0.68458 -2.25745,-0.62546 -3.38618,-0.93819l-0.00726,-0.55637l-0.26167,0.0785l-0.43277,-1.44254c-0.03964,-0.12186 -0.06106,-0.25193 -0.06106,-0.38701c0,-0.54332 0.34663,-1.00567 0.83082,-1.17798c0.04747,-0.03027 0.0988,-0.05937 0.15425,-0.0871z" fill="#00ff2b" stroke="none" stroke-width="0.5"/><path d="M361.11648,220.25629c0.12908,0.01434 0.24326,0.04061 0.34424,0.07616c1.13088,-0.42818 2.86049,-1.04795 3.7888,-0.78219c2.36973,0.67842 3.70787,5.71796 0.56816,6.40118c-0.70457,0.15332 -1.31711,-0.43478 -1.94554,-0.89493c-0.02258,0.02236 -0.04549,0.04402 -0.06871,0.06491c-0.19045,1.30856 -0.77746,2.77343 -2.88136,-0.15057c-0.0285,-0.03962 -0.05626,-0.0808 -0.08322,-0.12341c-0.51962,-0.57524 -0.92016,-1.29679 -1.21705,-1.7104l0.11431,-1.77642c0,0 0.13802,-1.24236 1.38038,-1.10433z" fill="#00ff2b" stroke="none" stroke-width="0.5"/><path d="M347.79094,184.30779c-1.18586,-0.39528 -0.79057,-1.58114 -0.79057,-1.58114l0.08374,0.00043c-0.00246,-0.06644 -0.00081,-0.22261 0.00369,-0.43502l-0.72203,-0.45126c-0.19336,-0.11649 -0.35261,-0.28384 -0.45924,-0.48354l-0.23476,-0.17607l0.11493,-0.15324c-0.01755,-0.08344 -0.02678,-0.16995 -0.02678,-0.25861c0,-0.00594 0.00005,-0.01186 0.00012,-0.01777c-1.83958,-0.14549 -4.29702,-0.80216 0.16738,-3.84884c1.18498,-0.80867 1.98391,-0.72402 2.523,-0.17693c0.90124,-0.17741 1.31486,0.73258 1.31486,0.73258c0.27797,0.77221 0.99932,1.51277 0.83391,2.31664c-0.1201,0.5837 -0.57446,1.00801 -1.03809,1.42789c0.01979,0.64799 0.01185,1.17656 0.0213,1.43165l-0.21032,0.88266c0,0 -0.39529,1.18586 -1.58114,0.79057z" fill="#00ff2b" stroke="none" stroke-width="0.5"/><path d="M364.0576,177.1055c0.49426,0.44669 1.38602,0.68093 1.48277,1.34006c0.16298,1.11046 -0.14952,2.35898 -0.80629,3.26911c-1.86261,2.58112 -7.42282,0.04653 -5.42206,-2.75391c0.29527,-0.41328 0.77132,-0.57724 1.29867,-0.67046v-0.60875c0,-0.69036 0.55964,-1.25 1.25,-1.25c0.40992,0 0.77375,0.19731 1.0017,0.50215c0.60329,-0.25101 1.19522,0.17179 1.19522,0.17179z" fill="#00ff2b" stroke="none" stroke-width="0.5"/><path d="M337.96695,154.89079c0,-0.69036 0.55964,-1.25 1.25,-1.25c0.50563,0 0.94114,0.30021 1.13801,0.73211c0.57484,0.11922 0.86225,0.69406 0.86225,0.69406c0.61077,1.3521 2.01427,3.28672 -0.12131,4.68062c-0.23338,0.15233 -0.4924,0.20174 -0.76591,0.193c-0.30999,0.52867 -0.83768,0.96093 -1.3724,1.00843c-1.10854,0.09848 -2.81516,-0.55275 -2.8952,-1.66277c-0.11712,-1.62408 0.58005,-2.26255 1.49311,-2.46178c0.10152,-0.45765 0.4539,-0.82092 0.90546,-0.9381c-0.3002,-0.22832 -0.494,-0.58931 -0.494,-0.99556z" fill="#00ff2b" stroke="none" stroke-width="0.5"/><path d="M314.01394,156.60867c0.08344,-0.62029 0.46615,-0.87756 0.80128,-0.98293c0.17837,-0.47256 0.63486,-0.80865 1.16985,-0.80865c0.51968,0 0.96528,0.31713 1.15385,0.76841l0.05788,0.13022c0.85083,0.12552 1.69856,0.3741 1.98791,0.91689c0.77449,1.45287 0.6351,5.7004 -2.97503,4.10435c-0.6786,-0.30001 -0.9283,-1.05212 -1.15101,-1.83268l-0.83972,-0.77701c0,0 -0.72513,-0.72512 -0.20502,-1.5186z" fill="#00ff2b" stroke="none" stroke-width="0.5"/><path d="M295.43176,158.04152c0.40261,0.25969 0.76452,0.5421 0.84855,0.97959c0.60228,3.13577 -1.31715,4.72404 -4.34266,3.97303c-4.23212,-1.05052 -2.24152,-7.69727 1.4797,-6.83365c1.32139,0.30667 1.91819,1.04346 2.01442,1.88104z" fill="#00ff2b" stroke="none" stroke-width="0.5"/><path d="M286.58845,148.61001c0.69337,1.04006 -0.34669,1.73344 -0.34669,1.73344c-0.02611,0.01554 -0.05221,0.03108 -0.07831,0.04662c0.12507,1.82665 -0.91463,4.01876 -2.91429,3.83573c-2.52688,-0.23128 -2.51181,-1.93909 -1.88487,-3.58625c-0.09797,-0.17833 -0.15369,-0.38315 -0.15369,-0.60098c0,-0.60397 0.42835,-1.1079 0.99783,-1.22456l0.10269,-0.06419c0.21743,-0.36201 0.42175,-0.67351 0.57479,-0.90412l0.22194,-0.07701l-0.05046,-0.07064l1.01744,-0.72673c0.20689,-0.1517 0.46217,-0.24129 0.73838,-0.24129c0.69035,0 1.25,0.55964 1.25,1.25c0,0.05068 -0.00302,0.10064 -0.00888,0.14973c0.18521,0.08397 0.36944,0.23321 0.53413,0.48023z" fill="#00ff2b" stroke="none" stroke-width="0.5"/><path d="M263.34864,134.05179c-0.56798,0.13035 -1.17155,0.21544 -1.684,0.41636c0,0 -1.22859,0.23036 -1.45895,-0.99823c-0.23036,-1.22859 0.99823,-1.45895 0.99823,-1.45895c0.2514,0.07567 0.5255,0.27832 0.78532,0.40108c0.00162,-0.06972 0.00554,-0.14193 0.01184,-0.21669c-0.30107,-0.05066 -0.59771,-0.1303 -0.61497,-0.32187c-0.15458,-1.71618 1.75106,-4.5602 4.01295,-3.62844c4.69351,1.93344 0.3573,5.88997 -2.05041,5.80674z" fill="#00ff2b" stroke="none" stroke-width="0.5"/><path d="M318.41079,131.11106c0,0 0.80516,-0.95614 1.7613,-0.15097c0.95614,0.80517 0.15097,1.76131 0.15097,1.76131c-0.20161,0.23941 -0.40322,0.47883 -0.60483,0.71823c0.24031,0.98111 -0.75276,1.39489 -0.75276,1.39489c-0.20344,0.0774 -0.42259,0.17351 -0.65268,0.27407l-0.34233,0.40651c0,0 -0.11491,0.13646 -0.30946,0.26286c-0.55017,0.69018 -1.3898,1.04908 -2.48154,0.71581c-1.05193,-0.32112 -1.52374,-1.74431 -1.47761,-3.11935c-0.48436,-1.73557 -0.3586,-4.05287 2.60684,-3.25372c0.5413,0.14587 0.97319,0.44022 1.30152,0.82651c0.21992,0.01706 0.45631,0.10139 0.67462,0.31341c0.04541,-0.05393 0.08758,-0.10399 0.12595,-0.14956z" fill="#00ff2b" stroke="none" stroke-width="0.5"/><path d="M346.03213,151.20333c-0.19568,-0.26026 -0.36383,-0.61268 -0.49425,-1.07738c-0.31595,-1.12574 0.88351,-2.82327 2.05256,-2.84448c0.34946,-0.00634 0.884,0.34979 1.4033,0.89065c0.01785,-0.01604 0.03217,-0.02922 0.04245,-0.03923c0,0 0.98669,-0.76743 1.75412,0.21927c0.76743,0.98669 -0.21926,1.75412 -0.21926,1.75412c-0.06438,0.04447 -0.14057,0.10098 -0.22689,0.16624c0.31607,0.86356 0.31999,1.72541 -0.31603,2.29468c-2.58961,2.31781 -3.7509,0.6515 -3.996,-1.36386z" fill="#00ff2b" stroke="none" stroke-width="0.5"/><path d="M356.19838,127.73038c0.80399,-0.95713 1.76112,-0.15314 1.76112,-0.15314l1.76167,1.4798c0.54449,0.47104 1.02943,0.83657 1.42462,1.18417c0.48444,0.04497 0.8779,0.40137 1.24899,0.83436c0.77099,-0.21841 1.70702,-1.07225 2.28387,-0.54313c3.05669,2.80376 -1.60426,7.1106 -4.35253,4.84439c-0.55101,-0.45436 -1.20084,-2.08416 -1.05881,-3.39055c-0.32324,-0.311 -0.6948,-0.64363 -1.15412,-1.01499l-1.76167,-1.4798c0,0 -0.95713,-0.80399 -0.15314,-1.76112z" fill="#00ff2b" stroke="none" stroke-width="0.5"/><path d="M383.815,180.6686c-0.19866,-0.06623 -0.35295,-0.15464 -0.47215,-0.25595c-0.23601,0.4943 -0.49498,0.93391 -0.95842,0.88644c-2.66581,-0.27308 -4.14952,-3.197 -1.93832,-5.00221c0.05157,-1.27258 0.64502,-2.59914 2.00573,-2.47521c3.43464,0.31282 1.96373,2.10168 2.1223,3.38779l0.15539,0.46617c0.09443,0.15512 0.23583,0.29584 0.44135,0.41697l0.22529,1.78551c0,0 -0.39534,1.18583 -1.58118,0.7905z" fill="#00ff2b" stroke="none" stroke-width="0.5"/><path d="M132.5,352.54601v-345.09202h375v345.09202z" fill="none" stroke="#000000" stroke-width="0"/></g></g></svg>