<svg version="1.1" xmlns="http://www.w3.org/2000/svg" xmlns:xlink="http://www.w3.org/1999/xlink" width="375" height="345.09202" viewBox="0,0,375,345.09202"><g transform="translate(-132.5,-7.45399)"><g stroke-miterlimit="10"><path d="M312.55545,110.98162c0.61687,0 0.92931,0.30442 1.08757,0.6128c0.89616,0.17061 0.9458,1.16347 0.9458,1.16347c0.0775,1.54996 0.16982,3.10047 0.25816,4.65115c0.1005,0.44872 0.19622,0.84615 0.27687,1.12705c0.1289,0.44892 0.34792,0.86704 0.50943,1.30528c0.29564,0.80218 0.60371,1.60061 0.86186,2.41562c0.71823,2.26754 1.27191,4.65149 1.79367,6.97092c0.15569,0.69212 0.25977,1.39506 0.41042,2.08829c0.10402,0.47867 0.27731,0.94745 0.40488,1.42203c0.3542,-0.32975 0.78411,-0.56439 1.20168,-0.98234c0.29602,-0.29629 0.48855,-0.68522 0.78493,-0.98116c0.31264,-0.31217 0.70578,-0.53385 1.03139,-0.83246c0.48203,-0.44205 0.88774,-0.96556 1.38828,-1.38653c0.60241,-0.50666 1.15652,-1.16187 1.91051,-1.38793c0.85284,-0.2557 1.95935,-0.52074 2.67098,0.01431c0.62815,0.47228 0.35049,1.53618 0.43099,2.31794c0.13361,1.29742 -0.0334,2.08049 -0.19628,3.32499c0.06438,0.432 0.16641,0.86003 0.19314,1.29597c0.08986,1.46582 0.00314,2.93715 0.00314,4.40572c0,1.58687 0.00098,3.17374 0,4.7606c-0.00054,0.86287 0.04022,1.72683 -0.00314,2.58862c-0.02324,0.46194 -0.17071,0.9118 -0.19623,1.37362c-0.039,0.70591 0.00266,1.41398 0.00315,2.12097c0.00109,1.59938 -0.07118,3.20029 -0.00129,4.79814c0.03157,0.72179 0.16503,1.43675 0.19623,2.15856c0.06208,1.4363 -0.06801,2.87689 -0.00019,4.31293c0.02951,0.62484 0.18084,1.24246 0.1795,1.868c-0.00193,0.89469 -0.07789,1.78965 -0.18929,2.67737c-0.08404,0.66977 -0.29105,1.31916 -0.39589,1.986c-0.19405,1.23422 -0.2724,3.08485 -0.38407,4.2515c-0.05154,0.53846 0.00086,1.10843 -0.20099,1.61029c-0.0014,0.00349 -0.00281,0.00698 -0.00422,0.01047l0.00272,0.00039l-0.19364,1.35544c-0.07793,0.61548 -0.6034,1.09141 -1.24003,1.09141c-0.63663,0 -1.16211,-0.47593 -1.24004,-1.09141l-0.19363,-1.35543c-0.06591,-0.4615 -0.13182,-0.92298 -0.19773,-1.38448c-0.14556,-1.1694 -0.37717,-2.32655 -0.58181,-3.48706c-0.07775,-0.44092 -0.08934,-0.89321 -0.18795,-1.32995c-0.35737,-1.58282 -0.9734,-3.09798 -1.36533,-4.67259c-0.1577,-0.63355 -0.22171,-1.28683 -0.33877,-1.92913c-0.2719,-1.49191 -0.65531,-2.96476 -0.86087,-4.46725c-0.10726,-0.784 -0.09789,-1.58068 -0.19772,-2.36566c-0.08446,-0.6641 -0.27298,-1.31234 -0.35451,-1.9768c-0.04628,-0.37715 0.12971,-0.79384 -0.0279,-1.13958c-0.08466,-0.18573 -0.06225,0.45504 -0.23352,0.56609c-0.44168,0.28638 -1.01729,0.2984 -1.48176,0.5461c-0.46715,0.24912 -0.84199,0.64396 -1.28715,0.93053c-0.37701,0.24271 -2.96947,1.67596 -3.20688,1.80621c-0.65995,0.36206 -1.24898,0.91902 -1.98503,1.07668c-0.908,0.19449 -2.0447,0.50536 -2.78524,-0.05489c-0.64015,-0.4843 -0.39198,-1.5688 -0.42129,-2.37097c-0.03177,-0.86921 0.47469,-4.14501 0.5972,-5.00299c0.06648,-0.59653 0.11036,-1.19602 0.19944,-1.7896c0.21497,-1.43249 0.59872,-2.83789 0.77951,-4.27509c0.05901,-0.4691 0.01198,-0.94672 0.05912,-1.41716c0.13835,-1.38057 0.43764,-2.74213 0.5688,-4.1234c0.07873,-0.82907 0.08026,-1.66416 0.15579,-2.49353c0.04077,-0.44769 0.16039,-0.88639 0.19285,-1.33476c0.03093,-0.42722 -0.0027,-0.85668 -0.00315,-1.28502c-0.00177,-1.71768 0,-3.43538 0,-5.15306c0,-3.58059 0,-7.16117 0,-10.74176c0,0 0,-0.16262 0.05866,-0.37054c-0.00955,-0.04765 -0.01889,-0.09407 -0.02798,-0.13915c-0.1286,-0.51397 -0.25722,-1.02796 -0.38582,-1.54193l-0.03732,-0.89186c0,0 0,-1.25 1.25,-1.25zM314.19791,131.06993c-0.00047,0.48741 0.03115,0.97603 -0.00314,1.46223c-0.03345,0.47433 -0.15651,0.93894 -0.1996,1.41249c-0.07556,0.83044 -0.07683,1.66664 -0.15612,2.49673c-0.13069,1.36816 -0.42859,2.71666 -0.56505,4.08425c-0.0489,0.49004 -0.00327,0.98741 -0.065,1.476c-0.04152,0.32859 -0.73168,3.96784 -0.79035,4.35912c-0.08665,0.57796 -0.12868,1.16173 -0.19302,1.74259c-0.11749,0.82201 -0.25299,1.64166 -0.35246,2.46605c-0.08859,0.7342 -0.05066,1.48768 -0.19859,2.21086c0.56624,-0.34242 3.06186,-1.71886 3.21072,-1.80248c0.43924,-0.24674 0.88908,-0.47633 1.31303,-0.74849c0.50151,-0.32196 0.93426,-0.75132 1.4601,-1.03178c0.52178,-0.2783 1.09618,-0.44657 1.65796,-0.63128c0.69905,-0.22985 1.48843,-0.98684 2.12126,-0.61131c0.91257,0.54152 1.16085,1.79472 1.54196,2.78507c0.48987,1.27296 0.44615,3.36698 0.62517,4.68425c0.19988,1.47073 0.5806,2.91132 0.84549,4.37175c0.10811,0.59605 0.1629,1.20302 0.30968,1.79074c0.32747,1.31123 0.80284,2.58326 1.16374,3.88509c0.04397,-0.20584 0.08313,-0.41247 0.11044,-0.6211c0.10018,-0.76546 0.16881,-1.53794 0.16697,-2.30992c-0.00143,-0.59589 -0.14885,-1.18367 -0.17676,-1.77891c-0.06745,-1.43886 0.06276,-2.88226 -0.00019,-4.32132c-0.03157,-0.72179 -0.16504,-1.43674 -0.19624,-2.15855c-0.07069,-1.63562 -0.00235,-3.27428 -0.00128,-4.91143c0.0005,-0.76606 -0.0384,-1.53325 0.00314,-2.29819c0.02508,-0.46184 0.17267,-0.9117 0.19624,-1.37362c0.04095,-0.80275 -0.00263,-1.60759 -0.00315,-2.41139c-0.00102,-1.58686 0,-3.17373 0,-4.7606c0,-1.4095 0.08995,-2.82167 0.00315,-4.2285c-0.03007,-0.48737 -0.13288,-0.96752 -0.19933,-1.45128c0.0662,-0.55283 0.16602,-1.10267 0.1986,-1.65849c0.02662,-0.45412 -0.0643,-0.91679 -0.0412,-1.3688c-0.27769,0.2086 -0.57771,0.39269 -0.8357,0.6247c-0.47664,0.42865 -0.88633,0.92766 -1.35897,1.36072c-0.29188,0.26743 -0.65123,0.45726 -0.93093,0.7374c-0.29593,0.29639 -0.48863,0.68515 -0.78493,0.98116c-0.28364,0.28337 -0.67551,0.44773 -0.94367,0.74578c-0.71673,0.79662 -1.37387,3.02188 -3.02113,2.51847c-0.95416,-0.2916 -1.70106,-4.24444 -1.85327,-4.94437c-0.3574,-1.64347 -0.69843,-3.30151 -1.08826,-4.9464c-0.03981,0.29646 -0.21323,0.9569 -0.96882,1.0842c0.00032,1.02953 0.00052,2.05906 -0.00048,3.08858z" fill="#00ff2b" stroke="none" stroke-width="0.5"/><path d="M372.5425,141.25454c-0.17677,-1.23744 1.06067,-1.41421 1.06067,-1.41421l1.29707,-0.18285c0.9109,-0.19092 1.85376,-0.87878 2.73271,-0.57277c3.91742,1.36389 0.83431,3.69501 -0.29986,5.29121c-0.4692,0.60321 -0.92575,1.21648 -1.4076,1.80963c-0.37066,0.45628 -0.79656,0.8674 -1.14917,1.33776c-0.41845,0.55819 -0.75131,1.17659 -1.15972,1.74217c-0.43918,0.60817 -0.93538,1.17348 -1.38135,1.77669c-0.92188,1.24691 -1.78445,2.55247 -2.8624,3.66723c-0.48427,0.5008 -1.07964,0.88426 -1.57266,1.37646c-0.40717,0.4065 -0.7441,0.87776 -1.12087,1.31259c-0.43889,0.50653 -0.902,0.99238 -1.32602,1.51141c-0.12672,0.15511 -0.22685,0.3316 -0.33554,0.50076c0.60483,-0.14609 1.37751,0.02133 1.76694,0.04231c0.61732,0.03327 1.2309,0.11983 1.84351,0.20293c1.50325,0.20391 3.94562,0.21139 3.82816,2.85138c-0.03715,0.83489 -1.33673,1.00511 -2.03376,1.46616c-0.585,0.38694 -1.17535,0.77384 -1.80862,1.07538c-0.76621,0.36485 -1.5975,0.57693 -2.37512,0.91679c-0.69336,0.30303 -1.32794,0.73536 -2.0331,1.00983c-0.49197,0.19149 -1.025,0.25332 -1.5375,0.37998c-0.43784,0.25297 -0.85134,0.55376 -1.31352,0.75893c-0.73893,0.32803 -1.52427,0.54039 -2.27713,0.83505c-0.75392,0.29508 -1.50243,0.60475 -2.24216,0.93378c-0.42305,0.18817 -0.81227,0.4509 -1.24444,0.61705c-0.47203,0.18147 -0.97479,0.2704 -1.45735,0.42165c-0.58952,0.18478 -1.1691,0.40024 -1.75824,0.58625c-0.93841,0.29629 -2.44997,0.67622 -3.38944,1.12239c-1.27028,0.60328 -2.41673,1.4397 -3.64837,2.1184c-0.49207,0.27116 -1.03124,0.4504 -1.52274,0.72258c-0.72523,0.4016 -1.39741,0.8944 -2.12261,1.29605c-0.72545,0.40179 -1.50054,0.70932 -2.22545,1.11209c-0.52218,0.29013 -0.99362,0.66496 -1.51084,0.96385c-0.75082,0.43389 -1.51424,0.84701 -2.29076,1.23304c-0.43534,0.21641 -0.91318,0.34238 -1.3414,0.57257c-0.64457,0.3465 -1.23302,0.78966 -1.86833,1.15286c-0.72933,0.41694 -1.4855,0.78515 -2.22357,1.18642c-0.5198,0.2826 -0.96432,0.78024 -1.54986,0.86512c-0.06984,0.01013 -0.13975,0.01882 -0.20974,0.02621l0.00531,0.02921l-2.1343,0.38805c-0.08011,0.01612 -0.163,0.02458 -0.24787,0.02458c-0.69035,0 -1.25,-0.55964 -1.25,-1.25c0,-0.27621 0.08959,-0.5315 0.24129,-0.73838l0.97271,-1.36179l0.00788,0.00563l0.01229,-0.03307c0.30399,-0.37492 0.60798,-0.74984 0.91196,-1.12476c1.17589,-0.89051 2.47502,-1.77763 3.5685,-2.78108c1.05655,-0.96956 2.06619,-1.99115 3.04196,-3.04197c0.30063,-0.32376 0.5194,-0.71965 0.83247,-1.03139c0.59357,-0.59106 1.37191,-0.97563 1.96231,-1.56986c0.29228,-0.29417 0.48226,-0.67969 0.77612,-0.97228c0.39465,-0.39294 0.84912,-0.72092 1.27949,-1.07439c0.71865,-0.59025 1.48126,-1.12693 2.25576,-1.64169c0.55506,-0.3689 1.14329,-0.69178 1.66698,-1.10399c0.35819,-0.28194 0.611,-0.68193 0.96568,-0.96826c0.21091,-0.17027 0.44813,-0.3038 0.68277,-0.44116c-2.58263,-0.97418 -5.66882,-2.60582 -5.19387,-4.84822c0.16203,-0.76501 1.1291,-1.09476 1.78019,-1.52785c2.31411,-1.53932 5.20371,-2.29191 7.55507,-3.86562c0.42513,-0.28133 0.82695,-0.60153 1.2754,-0.84397c0.4281,-0.23144 0.92588,-0.32166 1.34335,-0.57174c0.52851,-0.3166 0.97277,-0.7568 1.47354,-1.11567c0.39279,-0.28149 0.80315,-0.53763 1.20599,-0.80456c0.43465,-0.28801 0.8354,-0.63669 1.30646,-0.86024c0.68565,-0.3254 1.46149,-0.43693 2.14064,-0.77569c0.4826,-0.24072 0.84865,-0.67081 1.31213,-0.94654c0.55772,-0.3318 1.15025,-0.60282 1.74158,-0.87017c1.39305,-0.62983 2.86111,-1.08657 4.2456,-1.735c0.5264,-0.24654 1.85541,-1.07671 2.34667,-1.4458c0.42908,-0.32238 0.79226,-0.73142 1.24108,-1.0257c0.44412,-0.2912 0.94676,-0.48149 1.42129,-0.71996c1.11352,-0.5596 2.27711,-1.02752 3.34507,-1.66984c0.01501,-0.00903 0.02999,-0.01811 0.04493,-0.02724c-0.02876,-0.08542 -0.05131,-0.18 -0.06627,-0.28471zM342.87251,161.38698c0.88388,-0.88388 1.76777,0 1.76777,0c0.23222,0.23267 1.42401,1.42632 2.0631,2.06829c0.17443,0.05812 0.35275,0.11313 0.53613,0.16471l0.34425,2.28202c0,0 -0.44439,0.44439 -1.01808,0.38787c-0.00725,0.01258 -0.01452,0.0251 -0.02182,0.03757c-0.33656,0.57482 -1.08069,0.78153 -1.58704,1.21433c-0.35667,0.30487 -0.62746,0.70448 -0.99665,0.99407c-1.26354,0.99111 -2.6786,1.73231 -3.92655,2.74879c-0.36041,0.29357 -0.74739,0.55845 -1.0753,0.88793c-0.29837,0.2998 -0.49377,0.69181 -0.79371,0.99004c-0.59402,0.59062 -1.37149,0.97607 -1.96233,1.56986c-0.27922,0.28062 -0.46805,0.64084 -0.73742,0.93093c-1.03847,1.11836 -2.11194,2.20677 -3.23746,3.23748c-0.13427,0.12296 -0.27134,0.24404 -0.41069,0.36347c0.44795,-0.28573 0.88877,-0.58355 1.35653,-0.83478c0.44943,-0.24138 0.94872,-0.37839 1.40586,-0.60482c0.71642,-0.35486 1.42003,-0.73632 2.11159,-1.13746c0.52764,-0.30606 1.01049,-0.68642 1.54364,-0.98276c0.73193,-0.40682 1.51414,-0.71827 2.24668,-1.12398c0.73279,-0.40584 1.41262,-0.90274 2.14543,-1.30854c0.48762,-0.27002 1.02279,-0.44729 1.51102,-0.71621c1.28398,-0.7072 2.48316,-1.57236 3.80847,-2.19869c1.12594,-0.53211 2.50279,-0.8622 3.67492,-1.23242c0.59434,-0.18772 1.17886,-0.40578 1.77394,-0.59115c0.42648,-0.13286 0.87301,-0.20285 1.28991,-0.36327c0.38692,-0.14889 0.73156,-0.39185 1.11034,-0.56035c0.78307,-0.34834 1.57506,-0.67705 2.37321,-0.9893c0.70473,-0.2757 1.44261,-0.46683 2.13418,-0.77405c0.50177,-0.2229 0.95583,-0.54062 1.43374,-0.81093c0.53408,-0.13499 1.08874,-0.20544 1.60222,-0.40494c0.65802,-0.25566 1.24482,-0.66948 1.89155,-0.95249c0.74941,-0.32795 1.55305,-0.5264 2.29161,-0.87811c0.35194,-0.1676 0.66283,-0.42 0.98598,-0.64379c-0.0575,-0.00627 -0.11498,-0.0123 -0.17242,-0.01767c-0.56396,-0.05277 -1.12318,-0.15703 -1.68867,-0.18952c-0.64791,-0.03722 -3.92746,0.09224 -4.15071,-0.16798c-0.6275,-0.73139 -0.27925,-1.94441 -0.09143,-2.88962c0.11591,-0.58334 0.60346,-1.02838 0.96396,-1.5014c0.43669,-0.573 0.94934,-1.08392 1.42123,-1.6283c0.41317,-0.47662 0.78826,-0.98829 1.23392,-1.43467c0.49034,-0.49113 1.08285,-0.87362 1.56706,-1.37079c1.47824,-1.51782 1.44815,-1.79555 2.6321,-3.39714c0.44074,-0.59621 0.93177,-1.15446 1.3659,-1.75549c0.42008,-0.58157 0.76449,-1.21615 1.19506,-1.79c0.37106,-0.49453 0.8157,-0.92971 1.20562,-1.40951c0.45874,-0.56449 0.8931,-1.14836 1.33965,-1.72255c0.0843,-0.11746 0.16982,-0.22736 0.25521,-0.32986c-0.60928,0.35913 -1.15855,0.81371 -1.76538,1.17697c-1.11371,0.6667 -2.31961,1.16569 -3.48185,1.74363c-0.3895,0.19369 -0.80824,0.33599 -1.17094,0.57615c-0.40444,0.2678 -0.72542,0.6459 -1.11371,0.93662c-0.62694,0.46939 -2.07892,1.37424 -2.75538,1.69392c-1.39846,0.6609 -2.88267,1.12592 -4.29443,1.75794c-0.50663,0.22681 -1.01623,0.45356 -1.49234,0.73894c-0.50269,0.30131 -0.91116,0.7532 -1.43512,1.01578c-0.69043,0.34601 -1.47655,0.46778 -2.17647,0.79417c-0.38243,0.17834 -0.69797,0.47443 -1.04833,0.70962c-0.38203,0.25645 -0.774,0.4984 -1.14881,0.76529c-0.56381,0.40147 -1.07289,0.88264 -1.66617,1.23914c-0.43685,0.2625 -0.95474,0.3648 -1.4039,0.60564c-0.38212,0.20489 -0.7196,0.48392 -1.07939,0.72589c-2.5965,1.72493 -5.75483,2.52216 -8.32565,4.02571c-0.39528,0.23118 0.86844,0.29352 1.29008,0.47217c0.05773,0.02446 0.11501,0.04991 0.17193,0.07614c0.05038,-0.07251 0.11133,-0.14552 0.18434,-0.21853z" fill="#00ff2b" stroke="none" stroke-width="0.5"/><path d="M315.98769,179.11838c-1.14893,-0.4924 -0.65653,-1.64133 -0.65653,-1.64133c0.516,-0.94633 0.98656,-2.48921 2.12843,-2.5824c0.08474,-0.03953 0.18005,-0.07341 0.28719,-0.10019c1.05262,-0.26315 1.41998,0.6158 1.49861,0.8524c0.02676,0.02119 0.05373,0.04289 0.08091,0.06509c0.09495,0.07754 0.16766,0.16763 0.22292,0.26758c1.08377,-0.47352 2.21464,-0.51418 2.94573,0.35102c1.38355,1.63736 -0.47633,9.34463 -3.74019,5.87043l-0.11286,0.30094c-0.17016,0.48815 -0.6345,0.83842 -1.18066,0.83842c-0.69036,0 -1.25,-0.55964 -1.25,-1.25c0,-0.03992 0.00187,-0.07941 0.00553,-0.11838l0.19503,-2.34023l0.07815,0.00651c-0.00239,-0.12145 -0.00054,-0.24314 0.00621,-0.36512c0.0006,-0.01085 0.00135,-0.02173 0.00223,-0.03268c-0.15323,-0.00507 -0.32324,-0.04171 -0.51072,-0.12206z" fill="#00ff2b" stroke="none" stroke-width="0.5"/><path d="M310.15273,165.11024c-0.12941,-0.06374 -0.25938,-0.12588 -0.39046,-0.18491c-1.27639,-0.5748 -2.45246,-1.08875 -3.67989,-1.74662c-1.49541,-0.80151 -3.0025,-1.58761 -4.44,-2.48889c-0.72253,-0.45301 -1.39558,-0.98056 -2.09627,-1.46668c-1.08229,-0.75087 -2.21586,-1.43131 -3.255,-2.24083c-0.48071,-0.37448 -0.90895,-0.81314 -1.38855,-1.18904c-0.64222,-0.50337 -1.3148,-0.96677 -1.97456,-1.4469c-1.49063,-1.08478 -2.00816,-1.53409 -3.53936,-2.36045c-0.74059,-0.39968 -1.52222,-0.72094 -2.25763,-1.13011c-1.1826,-0.65798 -2.24963,-1.50792 -3.41667,-2.19311c-1.18791,-0.69744 -2.42016,-1.31726 -3.61018,-2.01107c-0.13086,-0.20051 -0.23376,-0.42236 -0.39257,-0.60154c-0.04896,-0.05524 0.04136,0.14236 0.05051,0.2156c0.03917,0.31354 0.1032,0.62738 0.09423,0.94323c-0.02366,0.83342 -0.15689,1.66088 -0.19178,2.4939c-0.03026,0.72236 0.01,1.44611 -0.00352,2.16897c-0.02912,1.5567 0.22288,2.44321 -1.41495,3.43893c-0.56965,0.34632 -1.30104,0.33532 -1.96722,0.36054c-0.71587,0.02711 -1.42763,-0.12338 -2.13933,-0.20506c-1.51555,-0.17395 -2.28136,-0.37419 -3.91961,-0.70169c-1.85381,-0.3706 -3.7131,-0.74127 -5.51978,-1.30664c-0.78929,-0.24699 -1.56145,-0.54746 -2.35359,-0.78515c-0.52267,-0.15684 -1.07043,-0.22484 -1.58805,-0.39759c-0.64815,-0.21632 -1.24581,-0.57309 -1.90105,-0.76686c-0.10917,-0.03229 -0.22053,-0.05397 -0.3331,-0.06993c1.51747,1.14498 3.02671,2.28404 4.60304,3.35877c0.69833,0.47611 1.41003,0.93319 2.09467,1.42879c0.66108,0.47854 1.27463,1.02108 1.94086,1.49242c1.93408,1.36832 3.99649,2.53195 5.90726,3.93932c0.59474,0.43804 1.14605,0.93393 1.74871,1.36101c0.05363,0.038 3.72142,2.41313 3.8988,2.53312c0.64191,0.43423 1.23624,0.9406 1.90284,1.33588c0.70801,0.41983 1.49223,0.69891 2.20953,1.10267c0.73708,0.4149 1.42546,0.91123 2.14837,1.35037c0.51693,0.31401 1.06638,0.57457 1.57053,0.90871c0.20037,0.1328 0.5443,0.37912 0.94969,0.67543c-0.12845,-0.38473 -0.248,-0.77308 -0.31013,-1.17262c-0.1318,-0.84751 -0.11211,-1.7122 -0.20255,-2.56512c-0.04568,-0.43088 -0.18093,-0.85093 -0.20552,-1.28352c-0.11366,-1.99946 -0.03915,-2.10113 0.20476,-3.80949c0.13193,-0.92404 0.32295,-3.10265 1.14601,-3.61927c0.6852,-0.43009 1.63568,-0.11885 2.42646,0.0519c0.62516,0.13499 1.14266,0.57543 1.72307,0.84409c0.44097,0.20411 0.89351,0.38224 1.34011,0.57374c1.76977,0.75887 3.58706,1.32081 5.41429,1.93104c0.55839,0.18649 1.10429,0.41525 1.67472,0.5608c1.28551,0.328 2.61851,0.44753 3.90303,0.77938c1.91904,0.49578 2.67973,0.79809 4.47769,1.42492c0.35382,0.15703 0.70784,0.31361 1.06214,0.46956zM308.17101,166.96541c-1.64102,-0.57084 -2.40647,-0.87037 -4.15653,-1.32234c-1.29893,-0.33545 -2.64659,-0.4579 -3.94627,-0.79045c-1.42782,-0.36533 -2.79725,-0.92951 -4.19532,-1.3959c-1.58377,-0.52835 -3.1315,-1.10591 -4.644,-1.81797c-0.48003,-0.226 -0.96443,-0.44822 -1.41663,-0.72575c-0.13293,-0.08158 -0.23158,-0.46851 -0.32082,-0.3406c-0.11527,0.16524 0.15331,0.38408 0.14994,0.58553c-0.00338,0.20222 -0.35643,2.3724 -0.36812,2.57519c-0.0378,0.65537 -0.04138,1.31418 -0.0009,1.96939c0.02475,0.40061 0.15427,0.78886 0.19596,1.18805c0.08403,0.80459 0.06396,1.61968 0.1809,2.42015c0.1644,1.12535 0.65837,1.63916 0.95227,2.77206l1.08272,2.16545c0.09145,0.1737 0.14321,0.37156 0.14321,0.5815c0,0.69036 -0.55964,1.25 -1.25,1.25c-0.29902,0 -0.57353,-0.105 -0.78865,-0.28013l-0.96152,-0.76921c-0.65159,-0.48748 -3.05899,-2.29945 -3.64052,-2.6847c-0.48091,-0.3186 -1.00639,-0.56464 -1.4994,-0.86417c-0.70151,-0.42619 -1.36818,-0.90999 -2.08351,-1.31257c-0.73512,-0.41372 -1.53735,-0.70264 -2.26261,-1.13341c-0.70664,-0.41972 -1.34068,-0.95139 -2.02181,-1.41136c-0.4139,-0.2795 -3.70211,-2.39304 -3.95049,-2.56894c-0.61446,-0.43516 -1.17739,-0.93945 -1.78347,-1.38622c-1.89649,-1.39799 -3.94571,-2.55195 -5.86668,-3.90998c-0.6739,-0.47641 -1.29483,-1.02443 -1.96326,-1.50847c-1.94288,-1.40691 -2.17488,-1.39646 -4.13403,-2.81878c-1.25707,-0.91262 -2.46186,-1.89529 -3.70458,-2.82734c-0.66279,-0.4971 -1.32091,-1.00047 -1.98832,-1.49134c-0.44939,-0.33051 -0.99703,-0.55064 -1.36185,-0.97265l-1.36007,-0.97147c-0.32457,-0.22579 -0.53701,-0.60151 -0.53701,-1.02685c0,-0.69036 0.55964,-1.25 1.25,-1.25c0.18469,0 0.36003,0.04005 0.51781,0.11195l1.34823,0.57782c0.42676,0.18435 0.83923,0.40613 1.28028,0.55303c0.48017,0.15994 0.98288,0.242 1.47397,0.36438c0.50255,0.12524 0.99914,0.27669 1.50698,0.37845c0.48109,0.09641 0.98523,0.07752 1.45614,0.21532c0.69649,0.20382 1.33506,0.57376 2.0236,0.803c0.49455,0.16465 1.01856,0.2263 1.51783,0.37606c0.80424,0.24122 1.58869,0.54463 2.38982,0.79599c1.72602,0.54153 3.50463,0.89055 5.2759,1.24496c1.769,0.35396 2.18595,0.48452 3.73055,0.67136c0.59404,0.07185 1.18804,0.1512 1.78532,0.1874c0.25975,0.01575 0.53362,0.05176 0.78003,-0.03192c0.4459,-0.15142 0.15567,-1.23373 0.15492,-1.27065c-0.01521,-0.75482 -0.0258,-1.51058 0.00546,-2.2649c0.03449,-0.8322 0.13636,-1.6603 0.19168,-2.49137c0.10384,-1.56 -0.30637,-3.07812 2.10707,-3.55073c0.71578,-0.14017 1.30815,0.64554 1.96222,0.96831c1.17114,0.68199 2.38452,1.2899 3.553,1.97644c1.15925,0.68112 2.21808,1.52768 3.39385,2.17987c0.72154,0.40023 1.48915,0.7127 2.21452,1.10595c2.07191,1.12327 4.01623,2.59194 5.86755,4.04194c0.46981,0.36797 0.88847,0.79835 1.35873,1.16574c1.00603,0.78596 2.10809,1.44063 3.15663,2.16892c0.66844,0.46428 1.30921,0.96993 1.99872,1.4023c0.68859,0.43179 1.42088,0.78962 2.13005,1.1867c1.74417,0.97661 2.0396,1.1973 3.67606,1.97291c0.15231,0.07219 0.30522,0.14312 0.45848,0.21328c0.17169,-0.08874 0.36657,-0.13886 0.57316,-0.13886c0.58758,0 1.08047,0.40541 1.2142,0.95177c0.61093,0.30378 1.19735,0.67315 1.85275,0.8559c0.62886,0.17535 1.30135,0.10652 1.95202,0.15979c0,0 1.24487,0.11317 1.1317,1.35804c-0.11317,1.24486 -1.35804,1.1317 -1.35804,1.1317c-0.29811,-0.02933 -0.59978,-0.03957 -0.90096,-0.05237l0.40832,1.08888c0.05786,0.14398 0.0897,0.30121 0.0897,0.46588c0,0.69036 -0.55964,1.25 -1.25,1.25c-0.20995,0 -0.40781,-0.05176 -0.58151,-0.14321l-1.1302,-0.56511c-1.02527,-0.43903 -2.04626,-0.88809 -3.06519,-1.34164z" fill="#00ff2b" stroke="none" stroke-width="0.5"/><path d="M303.40639,177.03616c-0.46999,0.30564 -0.94966,0.59562 -1.44637,0.85799c-0.72613,0.38357 -1.48631,0.7017 -2.20424,1.10041c-0.44286,0.24595 -0.83663,0.57274 -1.27271,0.83052c-1.15756,0.68426 -2.37737,1.26055 -3.52649,1.95888c-0.41081,0.24966 -0.78082,0.56477 -1.20072,0.79881c-1.85368,1.03321 -3.89432,1.78701 -5.69159,2.92599c-0.67243,0.42614 -1.28851,0.93563 -1.91969,1.42079c-0.95324,0.73271 -2.9377,2.35906 -3.86885,3.11247c-0.47281,0.38256 -0.9097,0.81518 -1.42113,1.14432c-0.51887,0.33393 -1.10175,0.55593 -1.65263,0.83389c-0.02677,0.01563 -2.76168,1.60268 -3.26333,1.91982c-1.11914,0.70752 -2.19461,1.48496 -3.33565,2.15658c-0.39634,0.23329 -0.83205,0.39423 -1.23122,0.62264c-0.2657,0.15204 -0.7944,0.68406 -1.34882,0.91664c0.28589,0.12124 0.56534,0.26198 0.85021,0.38437c1.09949,0.47242 2.25375,0.89986 3.17362,1.7031c0.53836,0.4701 1.3787,0.85107 1.47122,1.55977c0.14078,1.0784 -2.04208,3.83353 -2.58249,4.4427c-0.71731,0.80859 -2.86363,2.59079 -3.65152,3.27064c-1.27988,1.10438 -2.57316,2.19559 -3.91534,3.22336c-1.06209,0.81329 -2.20722,1.52307 -3.21049,2.4079c-0.47183,0.41612 -0.88843,0.89095 -1.33265,1.33642c-0.5025,0.45202 -1.00203,0.89003 -1.50667,1.31498c0.84406,-0.30466 1.67746,-0.64 2.49453,-1.00975c0.53119,-0.24038 1.03073,-0.54759 1.56437,-0.78247c0.77857,-0.34268 1.57927,-0.63271 2.36902,-0.94878c1.95211,-0.78125 3.94364,-1.58846 5.81235,-2.55433c0.53947,-0.27883 2.99814,-1.76481 3.70794,-2.14777c2.18048,-1.17643 4.49252,-2.17156 6.59696,-3.48838c0.46914,-0.29356 0.88685,-0.66352 1.35026,-0.96603c0.729,-0.47589 1.46249,-0.94756 2.22493,-1.36781c0.58175,-0.32066 1.21695,-0.53645 1.80168,-0.85165c0.66739,-0.35976 1.30005,-0.78051 1.95009,-1.17076c0.37392,-0.18542 0.77308,-0.32684 1.12174,-0.55625c1.34448,-0.88464 2.5528,-1.96155 3.85985,-2.9006c0.37779,-0.27143 0.73564,-0.58648 1.16156,-0.77353c0.14761,-0.06482 0.5634,0.19075 0.48084,0.05227c-0.12752,-0.21389 -0.45623,-0.2072 -0.65921,-0.35144c-0.37313,-0.26514 -0.70892,-0.57927 -1.06145,-0.87124c-0.76023,-0.62965 -1.4918,-1.29539 -2.19198,-1.9912c-0.44279,-0.44002 -1.19128,-0.70835 -1.33186,-1.31657c-0.19116,-0.82706 0.12745,-1.72089 0.44815,-2.50684c0.27647,-0.67755 0.86802,-1.17838 1.2974,-1.77096c0.46978,-0.64833 1.75825,-2.49695 2.22289,-3.02417c0.94754,-1.07515 1.98561,-2.06941 3.03849,-3.04163c1.43536,-1.32541 1.68551,-1.30511 3.18583,-2.80492c0.37646,-0.37633 0.68676,-0.81352 1.0349,-1.21621c0.53965,-0.62422 1.07638,-1.25107 1.60826,-1.88197zM310.07642,172.91856l-0.16927,0.44029c-1.19752,1.19752 -2.19239,2.28104 -3.22474,3.64556c-0.97985,1.19762 -1.97958,2.37909 -2.99288,3.54854c-0.38106,0.4398 -0.72419,0.91439 -1.1356,1.32593c-1.03058,1.03091 -2.20659,1.90616 -3.2779,2.89469c-0.98631,0.9101 -1.9599,1.83959 -2.84848,2.84534c-0.41033,0.46443 -0.74716,0.989 -1.11306,1.48918c-0.67249,0.9193 -1.38753,1.80774 -2.03852,2.74238c-0.13658,0.1961 -0.41197,0.40603 -0.3368,0.63287c0.07124,0.21499 0.45074,0.11548 0.63047,0.25329c0.37035,0.28397 0.64524,0.67549 0.99043,0.98955c0.36392,0.33109 0.75762,0.62788 1.13469,0.94391c0.43228,0.3623 0.9565,0.63869 1.29336,1.09108c0.54295,0.72915 1.34343,1.48763 1.30311,2.39584c-0.03247,0.73156 -0.93832,1.13099 -1.48148,1.6221c-0.3547,0.32071 -0.80487,0.51736 -1.19326,0.79633c-0.31475,0.22608 -3.77346,2.84451 -3.98944,2.98637c-0.38467,0.25265 -0.82203,0.41409 -1.23305,0.62114c-0.65819,0.39468 -1.29901,0.81986 -1.97456,1.18403c-0.58061,0.313 -1.21105,0.52767 -1.78931,0.84499c-1.19867,0.65776 -2.27055,1.52488 -3.43036,2.24896c-2.15586,1.34592 -4.51425,2.37198 -6.74684,3.57599c-1.17349,0.63284 -2.60782,1.57966 -3.74888,2.16934c-2.68346,1.38675 -5.54624,2.34717 -8.30215,3.56129c-0.53723,0.23667 -1.04023,0.54596 -1.57535,0.78737c-1.19304,0.53821 -2.41819,1.00833 -3.6599,1.42208c-0.49347,0.16443 -1.02427,0.2013 -1.51504,0.37361c-0.48266,0.16947 -0.88232,0.69498 -1.3916,0.64693c-0.11805,-0.01114 -0.23488,-0.02797 -0.3507,-0.04958l-0.00682,0.06135l-1.7511,-0.19455c-0.63261,-0.0618 -1.12696,-0.59519 -1.12696,-1.24403c0,-0.39905 0.187,-0.75443 0.47814,-0.98329l0.97214,-0.77773l0.01132,0.01414l0.03174,-0.04708c1.6542,-1.10377 3.10694,-2.29337 4.58706,-3.62621c0.47154,-0.47027 0.91441,-0.97114 1.4146,-1.4108c1.04317,-0.91696 2.22661,-1.66093 3.32958,-2.50501c1.95923,-1.49936 3.83993,-3.10274 5.68282,-4.743c0.52479,-0.46708 1.07572,-0.9111 1.54307,-1.43566c0.5128,-0.57556 0.88222,-1.26774 1.38564,-1.85151c0.16397,-0.19013 0.54339,-0.20884 0.60172,-0.45304c0.03804,-0.15925 -0.34249,0.05862 -0.49111,-0.01009c-0.37968,-0.17554 -0.6726,-0.50311 -1.04228,-0.69884c-0.43094,-0.22816 -3.5378,-1.49854 -3.73523,-1.70934c-0.62746,-0.6699 -1.36849,-1.59147 -1.17737,-2.48922c0.02191,-0.10294 3.17942,-2.10296 3.52783,-2.30258c0.3961,-0.22695 0.82883,-0.38627 1.22238,-0.61762c1.10852,-0.65164 2.15032,-1.4109 3.23744,-2.09767c0.57979,-0.36627 3.25855,-1.91736 3.40857,-2.00483c0.4957,-0.24532 1.02126,-0.43778 1.48709,-0.73594c0.43577,-0.27893 0.79922,-0.6573 1.20028,-0.98417c1.95164,-1.5906 3.89514,-3.35321 6.026,-4.70403c1.83162,-1.16113 3.88683,-1.92377 5.77516,-2.9767c0.40407,-0.22531 0.75858,-0.53097 1.15404,-0.77105c1.15324,-0.70009 2.37662,-1.27906 3.53788,-1.96577c0.4516,-0.26706 0.86093,-0.60318 1.31952,-0.85805c0.73899,-0.4107 1.51967,-0.74203 2.26789,-1.13567c2.30766,-1.21406 4.24707,-3.03071 6.55519,-4.24774c0.26853,-0.14159 0.54198,-0.27323 0.81775,-0.40017c0.18434,-0.32227 0.56929,-0.73273 1.29945,-0.58074c0.07484,-0.03386 0.14954,-0.06798 0.22407,-0.10246c0,0 1.13495,-0.52382 1.65877,0.61113c0.52382,1.13495 -0.61113,1.65877 -0.61113,1.65877c-0.21489,0.09891 -0.43138,0.19455 -0.64806,0.28981z" fill="#00ff2b" stroke="none" stroke-width="0.5"/><path d="M307.91716,191.42754c0.00085,0.09274 0.00132,0.18546 0.00132,0.27817c0,2.33778 0,4.67556 0,7.01334c0,3.28755 0,6.57509 0,9.86264c0,1.28233 -0.08744,2.56747 -0.00241,3.84697c0.03496,0.5262 0.1701,1.04315 0.19624,1.56986c0.09456,1.90506 0.00241,3.85884 0.00241,5.76842c0,0.83333 0,1.66667 0,2.5c0,0.47488 0,0.94977 0,1.42464c0,0.35568 0.05987,0.71889 0.05752,1.07428c0.33237,-0.20241 0.69463,-0.36774 0.98745,-0.62203c0.29285,-0.25432 0.44548,-0.63974 0.71836,-0.91536c0.61295,-0.6191 1.2808,-1.18146 1.93134,-1.76094c0.55412,-0.49359 1.12766,-0.96506 1.68233,-1.45803c0.62948,-0.55948 1.18045,-1.21541 1.86989,-1.69909c0.66942,-0.46963 1.41867,-1.45214 2.17347,-1.13758c2.18888,0.91222 1.91025,3.46768 2.14592,5.17282c0.29616,2.14283 0.46115,2.23871 1.01217,4.44536c0.1195,0.47854 0.16837,0.97528 0.31944,1.44482c0.50982,1.58456 1.26339,3.08488 1.754,4.6755c0.23807,0.77184 0.3451,1.58045 0.58855,2.35061c0.08354,0.26429 0.20778,0.51337 0.3286,0.76379c-0.00692,-0.71004 -0.01657,-1.42013 -0.01568,-2.13007c0.00068,-0.55128 0.06062,-1.10536 0.00505,-1.65383c-0.0714,-0.7047 -0.27899,-1.38945 -0.38434,-2.08988c-0.08982,-0.59716 -0.13047,-1.2007 -0.20079,-1.80047c-0.06409,-0.54665 -0.17157,-1.08921 -0.20244,-1.63874c-0.03724,-0.66296 0.02694,-1.32862 -0.00149,-1.99202c-0.06733,-1.57105 -0.32322,-3.13016 -0.39211,-4.70113c-0.03521,-0.80296 -0.00106,-1.60746 -0.00127,-2.41119c-0.00036,-1.39438 -0.07399,-2.79082 0.00155,-4.18316c0.03562,-0.65641 0.16474,-1.30571 0.19623,-1.96233c0.06482,-1.35131 -0.00155,-2.70574 -0.00155,-4.05861c0,-1.55575 0,-3.11151 0,-4.66726c-0.38855,0.54252 -0.80548,1.08871 -1.0605,1.45744c-0.42089,0.60857 -0.77323,1.26654 -1.23618,1.84376c-0.37295,0.46501 -0.83943,0.84654 -1.26018,1.26878c-0.39177,0.39315 -0.73839,0.83778 -1.17739,1.17739c-0.64781,0.50115 -1.27365,1.54125 -2.06527,1.33114c-0.94151,-0.2499 -1.28546,-1.4849 -1.74667,-2.34292c-0.09795,-0.18223 -0.86909,-2.93054 -1.01977,-3.44869c-0.23716,-0.81556 -0.51216,-1.62075 -0.7179,-2.4448c-0.38473,-1.54091 -0.51671,-3.13607 -0.86894,-4.68473c-0.14997,-0.65936 -0.42066,-1.28655 -0.58399,-1.94273c-0.16953,-0.68108 -0.30312,-1.37146 -0.41346,-2.06459c-0.13123,-0.82437 -0.18692,-1.65937 -0.31077,-2.48487c-0.07349,-0.48985 -0.21262,-0.96861 -0.28094,-1.45921c-0.08911,-0.63989 -0.08511,-1.29142 -0.19086,-1.92877c-0.1101,-0.66354 -0.27917,-1.31509 -0.44886,-1.96664c-0.24088,1.42673 -0.60385,2.95433 -0.60425,3.79229l-0.20347,1.64723c0,0 -0.07953,0.63626 -0.58037,0.94041zM306.83728,183.63115c0.23525,-0.69239 0.55138,-1.3534 0.9721,-2.01021l-0.26388,-0.15079l0.77289,-1.35256c0.2122,-0.38786 0.62406,-0.6509 1.09734,-0.6509c0.58089,0 1.06923,0.39623 1.2095,0.93316l0.38488,1.34705v0.00001v0c0.13405,0.46987 0.2681,0.93974 0.40215,1.40961c0.25497,1.14605 0.611,2.27107 0.8048,3.42903c0.11038,0.65951 0.10919,1.33362 0.20161,1.99588c0.06704,0.4804 0.20434,0.94901 0.27628,1.4287c0.1234,0.82272 0.18039,1.65465 0.30943,2.47651c0.09807,0.6246 0.21744,1.24683 0.37144,1.86005c0.16798,0.66885 0.4407,1.30942 0.59343,1.98192c0.34888,1.53624 0.47735,3.11899 0.85992,4.64718c0.31385,1.2537 0.72172,2.48198 1.08446,3.72242c0.16487,0.56378 0.41219,1.10922 0.52288,1.68458c0.27834,-0.30474 0.63206,-0.55092 0.92579,-0.84353c0.36413,-0.36275 0.77408,-0.68421 1.0946,-1.086c0.42102,-0.52776 0.736,-1.1322 1.11864,-1.68842c0.24766,-0.36 0.52098,-0.70178 0.77179,-1.05959c0.53482,-0.76295 0.8254,-1.76276 1.58494,-2.30241c0.74893,-0.53211 1.89141,-1.21544 2.66181,-0.71492c0.80805,0.52498 0.39522,1.88627 0.59284,2.82941c0,1.96233 0,3.92464 0,5.88697c0,0.19984 0.00046,4.14065 -0.00155,4.18314c-0.03104,0.65663 -0.15994,1.30596 -0.19624,1.96233c-0.07469,1.35081 0.00192,2.70575 0.00156,4.05863c-0.00021,0.76612 -0.03492,1.53298 -0.00128,2.29836c0.0693,1.57659 0.32468,3.14137 0.39282,4.71802c0.02782,0.6436 -0.03681,1.28939 -0.00149,1.93263c0.02765,0.50356 0.13089,1.00014 0.19003,1.50098c0.0681,0.57675 0.10577,1.15734 0.1917,1.73171c0.11161,0.74602 0.3264,1.47656 0.40057,2.22724c0.06156,0.62309 0.00431,1.25223 0.00505,1.87834c0.00095,0.80194 0.00017,1.60388 0,2.40581c-0.00006,0.28449 0.06975,3.82759 -0.1591,4.41859c-0.01349,0.03483 -0.02724,0.06955 -0.04123,0.10415l0.01736,0.00463l-0.63723,2.38959c-0.13297,0.54744 -0.62638,0.95392 -1.21472,0.95392c-0.60555,0 -1.11053,-0.43059 -1.22546,-1.00229l-0.41288,-1.85359c-0.18607,-0.80637 -0.37214,-1.61273 -0.55821,-2.41911c-0.12055,-0.48764 -0.20209,-0.98662 -0.36167,-1.46293c-0.15817,-0.4721 -0.43833,-0.89815 -0.58844,-1.37287c-0.25035,-0.79171 -0.36528,-1.6217 -0.60943,-2.41534c-0.49065,-1.59489 -1.24784,-3.09839 -1.75759,-4.68728c-0.16422,-0.51189 -0.22404,-1.05181 -0.35456,-1.57331c-0.55997,-2.23739 -0.76102,-2.4711 -1.06109,-4.70289c-0.12019,-0.89391 -0.08832,-1.80309 -0.16883,-2.70108c-0.00205,0.09761 -0.01624,0.187 -0.05384,0.2332c-0.52042,0.63948 -1.21362,1.11647 -1.82981,1.66427c-0.84152,0.74812 -2.67809,2.27918 -3.45067,3.06046c-1.19565,1.20912 -0.81756,1.70069 -2.93768,2.43754c-0.83857,0.29145 -1.91418,0.75102 -2.65103,0.25584c-0.67039,-0.45052 -0.39616,-1.5702 -0.49725,-2.37156c-0.0655,-0.51917 0,-1.04658 0,-1.56986c0,-1.30822 0,-2.61643 0,-3.92464c0,-1.85708 0.09577,-3.76026 0.00242,-5.61307c-0.02654,-0.52669 -0.16222,-1.0436 -0.19625,-1.56986c-0.03231,-0.49973 -0.00212,-1.00155 -0.00241,-1.50232c0,0 0,-4.14242 0,-4.46233c0,-3.46677 0,-6.93354 0,-10.40031c0,-1.50445 0,-3.00889 0,-4.51334c0,-1.27234 -0.08362,-2.54765 0.00315,-3.81703c0.07597,-1.11149 0.37638,-2.24452 0.61531,-3.32225c0,0 0.16222,-0.73 0.80034,-0.93527z" fill="#00ff2b" stroke="none" stroke-width="0.5"/><path d="M323.33208,191.17094c0.13954,0.13457 0.27565,0.27407 0.41093,0.41768c0.52799,0.29325 1.01959,0.67935 1.55025,1.09289c0.67855,0.5288 1.32547,1.09742 1.9706,1.66652c0.46965,0.41429 0.88003,0.89619 1.37275,1.28278c0.53688,0.42124 1.14641,0.74114 1.7055,1.13241c0.7129,0.49891 1.42982,0.9943 2.10959,1.53749c0.33501,0.2677 0.59896,0.61609 0.92867,0.89029c0.46361,0.38554 0.9456,0.75061 1.44706,1.08544c1.64807,1.10041 3.62457,1.48958 5.29503,2.54891c0.42152,0.26731 0.72226,0.70062 1.14738,0.96218c0.41836,0.25741 0.93908,0.31745 1.35559,0.57783c0.65036,0.40657 1.18257,0.98133 1.82026,1.40749c0.85536,0.57162 2.7733,1.45002 3.62895,1.90301c0.46607,0.24674 0.91575,0.52328 1.37362,0.78492c1.67184,0.83576 3.32043,1.62895 5.0801,2.26341c0.34011,0.12263 0.66743,0.38134 1.0274,0.34767c0.55547,-0.05196 1.902,-1.8444 1.91753,-1.86579c0.70131,-0.96587 1.67341,-2.67212 2.25019,-3.75947c0.47625,-0.89782 1.27125,-2.669 1.83319,-3.44825c0.38406,-0.5326 0.72041,-1.23582 1.34461,-1.43961c1.59683,-0.52133 2.71024,0.18927 3.98085,0.82175c0.4683,0.23311 0.89579,0.56576 1.3974,0.71424c0.71957,0.21301 1.48668,0.21132 2.22277,0.35738c0.55219,0.10957 1.09496,0.26281 1.63865,0.40882c0.50385,0.1353 1.0186,0.24237 1.50345,0.43496c0.53225,0.21142 0.99493,0.58118 1.53493,0.77194c0.54812,0.19363 1.14699,0.20508 1.70377,0.37216c0.60887,0.18271 1.21365,0.39337 1.78383,0.67442c0.42711,0.21053 0.79297,0.52746 1.18945,0.79119c0.06268,0.02516 0.12536,0.05032 0.18805,0.07548c-0.26209,-0.43996 -0.44923,-0.93479 -0.76977,-1.33414c-0.83813,-1.04422 -1.89979,-1.88741 -2.84643,-2.83437c-1.44037,-1.44086 -2.82238,-2.82887 -4.52055,-3.9657c-0.46758,-0.31302 -0.92456,-0.64906 -1.42846,-0.89945c-0.48283,-0.23992 -1.02036,-0.35161 -1.51604,-0.56369c-0.40341,-0.1726 -0.7741,-0.41581 -1.17739,-0.5887c-1.30877,-0.56106 -2.69299,-0.95527 -3.95466,-1.61548c-1.19543,-0.62554 -2.23611,-1.51724 -3.41773,-2.16849c-1.28095,-0.706 -2.64841,-1.24782 -3.92465,-1.96232c-0.5302,-0.29683 -1.00799,-0.68311 -1.54494,-0.96756c-0.55182,-0.29232 -1.14862,-0.49115 -1.71304,-0.75833c-1.42276,-0.67349 -2.816,-1.40764 -4.22392,-2.11161c-1.44643,-0.72321 -2.92885,-1.36251 -4.23222,-2.33436c-0.40955,-0.30538 -0.78279,-0.6567 -1.1774,-0.98117c-0.23322,-0.19177 -0.43353,-0.43742 -0.70603,-0.56749c-0.12721,-0.06072 -0.33384,-0.08096 -0.42187,0.02913c-0.40404,0.50534 -0.63772,1.12595 -0.95328,1.69079c-0.31274,0.5598 -0.67242,1.09654 -0.93161,1.68306c-0.23868,0.5401 -0.35374,1.12717 -0.55551,1.68212c-0.15839,0.43564 -0.44767,0.83082 -0.52436,1.28797c-0.05043,0.30061 0.06263,0.61105 0.15714,0.90085c0.21927,0.67241 1.32625,2.66715 1.21858,3.19904c-0.17787,0.87871 -0.70228,1.87238 -1.53278,2.21009c-0.96816,0.39369 -2.08934,-0.14053 -3.11924,-0.31842c-0.75566,-0.13052 -1.48,-0.40226 -2.2199,-0.60377c-1.2093,-0.32936 -2.44169,-0.58783 -3.62204,-1.00934c-0.44251,-0.15803 -0.84061,-0.43365 -1.29237,-0.56289c-0.41706,-0.11931 -0.86598,-0.08175 -1.28947,-0.17574c-0.74904,-0.16623 -1.48086,-0.40226 -2.22128,-0.60339c-0.75144,-0.18782 -1.50218,-0.37393 -2.25112,-0.56677zM321.64659,188.12841c1.51567,0.43005 3.04032,0.80837 4.56871,1.19052c0.69861,0.19135 1.38878,0.4167 2.09583,0.57403c0.47955,0.1067 0.9854,0.08189 1.45781,0.21671c0.50622,0.14447 0.9591,0.43742 1.45486,0.6145c1.12123,0.40049 2.2938,0.6393 3.44235,0.95298c0.69913,0.19094 1.39966,0.37687 2.09719,0.57362c0.5317,0.14997 1.04838,0.35934 1.59033,0.46651c0.04885,0.00966 0.05934,-0.10015 0.03708,-0.14469c-0.1359,-0.2718 -0.35806,-0.4946 -0.49286,-0.76695c-0.49533,-1.00072 -1.00973,-2.2144 -0.87865,-3.37493c0.07346,-0.65037 0.43988,-1.23291 0.65301,-1.85174c0.21185,-0.61513 0.35732,-1.25567 0.62188,-1.85004c0.303,-0.68072 0.67648,-1.33024 1.07417,-1.96035c0.54517,-0.86378 0.91616,-1.92586 1.75051,-2.51509c0.64084,-0.45257 1.5508,-0.48791 2.32539,-0.36337c0.79368,0.12761 2.18057,1.49622 2.82615,1.98353c1.16796,0.88162 2.55471,1.45158 3.85452,2.10148c1.39099,0.69551 2.76754,1.4207 4.17285,2.0868c0.59999,0.28439 1.23225,0.50099 1.81914,0.81151c0.5538,0.29301 1.04826,0.68839 1.59477,0.99476c1.27583,0.71523 2.64413,1.25555 3.92465,1.96233c1.16473,0.64287 2.18983,1.5235 3.36802,2.14135c1.71828,0.90107 2.1509,0.83319 3.78077,1.53151c0.40333,0.1728 0.77419,0.41561 1.1774,0.5887c0.53168,0.22823 1.10673,0.35382 1.62368,0.6137c3.05651,1.53661 5.41152,4.1312 7.78557,6.51468c1.39806,1.40361 2.35492,2.09139 3.14649,3.94469c0.00506,0.01186 0.0101,0.02372 0.01512,0.0356l0.00353,-0.00189l1.1653,2.18495c0.10078,0.18023 0.15823,0.38799 0.15823,0.60916c0,0.69036 -0.55965,1.25 -1.25,1.25c-0.0674,0 -0.13355,-0.00533 -0.19805,-0.0156l-1.35234,-0.19318l0.00662,-0.04633l-0.15265,0.0165c-0.74049,-0.29542 -1.48098,-0.59085 -2.22146,-0.88627c-0.38845,-0.25955 -0.74887,-0.56696 -1.16534,-0.77866c-0.42972,-0.21844 -0.89261,-0.36974 -1.35589,-0.50297c-0.60047,-0.17269 -1.23916,-0.20497 -1.8284,-0.41276c-0.5634,-0.19868 -1.05068,-0.57463 -1.60479,-0.79792c-0.39949,-0.16098 -0.82743,-0.23983 -1.24381,-0.34997c-0.49867,-0.13191 -0.99541,-0.27421 -1.50106,-0.37612c-0.82452,-0.16616 -1.68194,-0.18334 -2.48681,-0.42755c-0.96902,-0.29401 -1.77209,-0.99356 -2.71473,-1.36352c-0.29916,-0.11741 -0.62149,-0.31632 -0.93372,-0.24021c-0.18433,0.04493 -0.13725,0.35462 -0.22524,0.52272c-0.29194,0.55772 -0.62006,1.09596 -0.91357,1.65286c-0.60588,1.14959 -1.1599,2.32881 -1.82957,3.44244c-0.72074,1.19856 -1.85281,3.09587 -2.99802,4.00633c-0.58873,0.46805 -1.25045,0.94362 -1.99419,1.05561c-0.71101,0.10706 -1.42006,-0.24287 -2.11232,-0.43726c-1.91854,-0.53874 -3.7474,-1.56149 -5.51645,-2.44617c-1.70228,-0.97272 -3.56869,-1.72057 -5.2015,-2.80656c-0.60336,-0.4013 -1.09741,-0.9558 -1.71192,-1.33979c-0.42836,-0.26767 -0.96151,-0.33478 -1.39167,-0.59954c-0.44507,-0.27393 -0.76811,-0.71705 -1.2074,-1.00015c-1.65812,-1.06856 -3.64504,-1.45027 -5.30151,-2.55316c-0.58703,-0.39085 -1.14832,-0.82094 -1.69266,-1.26934c-0.32627,-0.26876 -0.58469,-0.61417 -0.91461,-0.87843c-1.1933,-0.95582 -2.55805,-1.68182 -3.76078,-2.62574c-0.53006,-0.416 -0.97702,-0.92861 -1.48221,-1.37448c-0.00331,-0.00292 -0.00662,-0.00584 -0.00993,-0.00876c-0.8309,0.39512 -1.45616,-0.38646 -1.45616,-0.38646l-0.74025,-0.92838c-0.4439,-0.44362 -0.83866,-0.86472 -1.19867,-1.27892c-0.17043,-0.06227 -0.33437,-0.09409 -0.48077,-0.0783c-0.29367,0.03166 -0.50319,0.30947 -0.75479,0.4642c0,0 -1.11804,0.55901 -1.67705,-0.55902c-0.55901,-1.11804 0.55902,-1.67705 0.55902,-1.67705c0.16772,-0.07475 0.33052,-0.16982 0.49304,-0.26603l-1.28152,-1.5378c-0.18403,-0.21769 -0.29498,-0.49915 -0.29498,-0.80653c0,-0.69036 0.55964,-1.25 1.25,-1.25c0.0674,0 0.13354,0.00533 0.19805,0.0156l1.35234,0.19318l-0.00405,0.02839z" fill="#00ff2b" stroke="none" stroke-width="0.5"/><path d="M132.5,352.54601v-345.09202h375v345.09202z" fill="none" stroke="#000000" stroke-width="0"/></g></g></svg>