<svg version="1.1" xmlns="http://www.w3.org/2000/svg" xmlns:xlink="http://www.w3.org/1999/xlink" width="375" height="345.09202" viewBox="0,0,375,345.09202"><g transform="translate(-132.5,-7.45399)"><g stroke-miterlimit="10"><path d="M317.51507,177.73029c0.14829,-1.01084 1.23328,-1.01084 1.23328,-1.01084c1.06466,0.01072 2.20777,-0.75308 3.17851,-0.31571c1.13965,0.51346 2.32214,3.05036 1.6728,4.27346c-0.90484,1.70435 -5.2329,2.32666 -6.43793,0.59602c-0.64066,-0.9201 -0.43126,-2.55258 0.35334,-3.54292z" fill="#00ff2b" stroke="none" stroke-width="0.5"/><path d="M337.29327,169.43263c0.88376,0.88401 -0.00025,1.76777 -0.00025,1.76777l-0.98876,0.98848c-0.42096,0.42074 -1.98291,2.01365 -3.00841,2.95438c0.18748,0.00366 0.37497,0.00576 0.5624,0.00635c0.40258,0.00127 0.81093,0.07922 1.20769,0.01106c0.71244,-0.12239 1.38147,-0.43581 2.0903,-0.57764c0.55268,-0.11058 1.13417,-0.04294 1.68161,-0.17706c0.42454,-0.10402 0.79876,-0.3553 1.19989,-0.52893c0.4278,-0.18518 0.87566,-0.32791 1.28687,-0.54749c1.04913,-0.56021 2.03411,-1.23442 3.02402,-1.89366c0.79651,-0.53045 1.52963,-1.15041 2.29565,-1.72402c0.43198,-0.32348 0.90976,-0.58689 1.31965,-0.93794c0.1714,-0.14679 2.01467,-2.04675 2.31983,-2.32404c0.36108,-0.32811 0.79485,-0.57636 1.12764,-0.93314c0.54608,-0.58544 0.98356,-1.26386 1.49567,-1.87923c0.436,-0.52391 0.9326,-0.9972 1.34787,-1.53768c0.39874,-0.51896 0.72592,-1.08918 1.08887,-1.63376c0.41875,-0.84068 0.91496,-1.64118 1.33582,-2.48081c0.23769,-0.47419 0.36751,-1.0011 0.63539,-1.45891c0.23071,-0.39429 0.57999,-0.70667 0.84816,-1.0765c0.53475,-0.73749 1.03835,-1.49818 1.51557,-2.27414c0.27626,-0.44921 0.50842,-0.92457 0.78493,-1.37363c0.01392,-0.02261 1.56313,-2.34607 1.59311,-2.391c0.49047,-0.73505 1.09373,-1.71676 1.72604,-2.34906c1.10901,-1.10901 2.69571,-2.04549 4.13394,-2.62575c0.76729,-0.30957 1.58654,-0.47773 2.35479,-0.78492c0.53609,-0.21436 1.01932,-0.54515 1.54856,-0.77588c2.49043,-1.08575 5.3688,-1.93532 8.08718,-1.23808c0.51344,0.13169 0.97696,0.4116 1.46543,0.6174c0.46935,0.13509 0.95509,0.22259 1.40804,0.40528c1.72818,0.69703 3.32722,1.79468 4.80733,2.91008c0.64141,0.48336 1.30643,0.94127 1.89676,1.48585c0.32682,0.30149 0.54102,0.70698 0.83853,1.03743c0.61417,0.68216 1.90664,1.78754 2.4016,2.41025c0.77206,0.97133 1.81144,3.02633 2.17375,4.12288c0.54977,1.66391 0.45016,2.29763 0.45284,3.91591c0.00233,1.40268 0.02905,2.64774 -0.2096,4.07665c-0.19448,1.16446 -1.08162,3.8722 -1.5399,4.90308c-0.20244,0.45537 -0.52625,0.8465 -0.78106,1.27477c-0.29419,0.49447 -0.5161,1.03636 -0.8658,1.49326c-0.346,0.45206 -0.83979,0.77369 -1.2041,1.21113c-0.30883,0.37081 -0.47751,0.84911 -0.80609,1.20253c-0.60774,0.65368 -1.32258,1.1989 -1.98387,1.79835c-0.07221,0.06058 -2.39248,2.01009 -2.51955,2.10547c-0.63855,0.47934 -1.32345,0.89473 -1.96232,1.37363c-0.73882,0.55382 -1.41749,1.18407 -2.14359,1.75447c-1.23642,0.97128 -2.50058,1.90898 -3.79743,2.79796c-0.4221,0.28935 -0.82855,0.60665 -1.27985,0.84793c-0.09949,0.05319 -3.00794,1.35134 -3.34335,1.4631c-1.96384,0.65432 -4.04096,0.85961 -6.06395,1.22292c-1.22531,0.22006 -2.44188,0.5425 -3.68514,0.60667c-1.54875,0.07993 -3.10339,-0.07462 -4.65242,-0.00035c-0.54361,0.02606 -1.07734,0.16856 -1.62088,0.19623c-2.27559,0.11586 -4.56827,-0.13126 -6.84261,-0.19762c-6.45846,-0.80581 -12.07453,-2.60542 -17.77351,-5.84079c-1.48795,-0.84473 -5.07828,-3.22756 -3.86278,-5.56093c0.47986,-0.92118 1.85698,-0.94725 2.70429,-1.548c0.5449,-0.38634 3.00696,-2.89036 3.41867,-3.30205l0.98876,-0.98848c0,0 0.88401,-0.88376 1.76777,0.00025zM332.34716,177.61602c1.16046,0.73137 2.51593,1.51913 2.65955,1.59057c5.25719,2.6151 9.41384,4.24442 15.23428,4.97334c2.15946,0.06017 4.34111,0.30931 6.50119,0.19485c0.54348,-0.0288 1.07725,-0.17052 1.62088,-0.19623c1.55316,-0.07347 3.1116,0.07451 4.66469,-0.00035c1.14104,-0.055 2.25487,-0.36873 3.37923,-0.57072c1.90125,-0.34156 3.86417,-0.51628 5.70999,-1.13187c0.43836,-0.1462 0.84926,-0.36456 1.27264,-0.54973c0.55532,-0.24288 1.1283,-0.4498 1.66344,-0.7344c0.38108,-0.20267 0.71963,-0.47689 1.07494,-0.72195c1.24731,-0.86027 2.46806,-1.7603 3.6594,-2.69655c0.73592,-0.57834 1.42488,-1.21594 2.17352,-1.77771c0.63863,-0.47923 1.32336,-0.89484 1.96232,-1.37363c0.83412,-0.62502 1.59954,-1.33681 2.3982,-2.00653c0.57753,-0.51549 1.20693,-0.97819 1.7326,-1.54647c0.31291,-0.33827 0.46866,-0.79835 0.76376,-1.15226c0.34633,-0.41533 0.8198,-0.7159 1.15069,-1.14364c0.29331,-0.37917 0.46001,-0.84141 0.70406,-1.25401c0.21643,-0.36591 0.50435,-0.69237 0.67697,-1.08086c0.35302,-0.79451 1.17686,-3.32956 1.32817,-4.23952c0.21465,-1.2909 0.17158,-2.39089 0.17393,-3.65588c0.00242,-1.29913 0.1074,-1.8443 -0.33213,-3.14846c-0.26182,-0.77687 -1.16563,-2.60807 -1.7509,-3.33395c-0.00036,-0.00045 -2.16855,-2.14435 -2.30797,-2.29933c-0.26287,-0.29219 -0.44262,-0.6582 -0.73133,-0.9249c-0.50571,-0.46715 -1.08359,-0.84976 -1.63542,-1.26141c-1.30026,-0.96994 -2.69972,-1.98233 -4.21936,-2.58442c-0.43137,-0.17091 -0.89281,-0.25311 -1.33921,-0.37966c-0.42727,-0.18666 -0.83282,-0.43425 -1.28182,-0.55998c-2.10039,-0.58816 -4.52715,0.27937 -6.43402,1.1167c-0.54273,0.23832 -1.04082,0.57378 -1.59115,0.79399c-0.76817,0.30737 -1.58559,0.48012 -2.35479,0.78492c-1.13363,0.44922 -2.4471,1.20804 -3.32288,2.08382c-0.44446,0.44446 -1.09817,1.49435 -1.41368,1.96805c-0.515,0.77321 -1.05993,1.52723 -1.54661,2.31858c-0.27626,0.44921 -0.50842,0.92457 -0.78493,1.37363c-0.01911,0.03103 -1.60691,2.41181 -1.62415,2.43544c-0.22447,0.30768 -0.53031,0.55654 -0.7217,0.88582c-0.23413,0.40281 -0.33408,0.87141 -0.54201,1.28835c-0.44287,0.88806 -0.96637,1.73427 -1.41143,2.62123c-0.42197,0.63281 -0.80506,1.29335 -1.26591,1.89843c-0.43486,0.57096 -0.95581,1.07126 -1.41562,1.62233c-0.55487,0.66499 -1.03639,1.3924 -1.62781,2.02511c-0.36456,0.39001 -0.8322,0.66998 -1.22715,1.02919c-0.89939,0.818 -1.42899,1.56144 -2.38974,2.38553c-0.44456,0.38133 -0.9593,0.67262 -1.4276,1.02438c-1.32134,0.99251 -2.60978,1.93287 -4.01614,2.81027c-0.55069,0.34357 -1.08035,0.72371 -1.6532,1.0289c-0.46789,0.24927 -0.97248,0.42251 -1.46039,0.62988c-0.51469,0.21875 -1.00535,0.51067 -1.54736,0.64846c-0.60188,0.15302 -1.2416,0.09365 -1.85057,0.2154c-0.75381,0.15071 -1.46801,0.47671 -2.22682,0.59978c-0.50657,0.08216 -1.02634,0.00967 -1.53953,0.01106c-0.50366,0.00137 -1.00761,-0.01019 -1.5111,-0.03359z" fill="#00ff2b" stroke="none" stroke-width="0.5"/><path d="M321.76555,167.08236c1.91765,-2.05703 3.05374,-4.01487 4.04299,-6.78922c0.18565,-0.55294 0.40959,-1.09447 0.55695,-1.65882c0.82516,-3.16012 0.17712,-6.63867 -0.36872,-9.77869c-0.29706,-1.70892 -0.47462,-3.00317 -0.98482,-4.65819c-0.19984,-0.64824 -0.48698,-1.26635 -0.71893,-1.90381c-0.45688,-1.25564 -0.77413,-2.39623 -1.36262,-3.56998c-0.3653,-0.72859 -0.77259,-1.43535 -1.16015,-2.15234c-0.36987,-0.68426 -0.69028,-1.39793 -1.11216,-2.05141c-0.25731,-0.39856 -0.61471,-0.72281 -0.91564,-1.08955c-0.70747,-0.86221 -1.48157,-1.6693 -2.27044,-2.45772c-0.46795,-0.46768 -0.95117,-0.92063 -1.40295,-1.40396c-0.43596,-0.46641 -0.80726,-0.99218 -1.25873,-1.44359c-1.06111,-1.06098 -2.13929,-1.78275 -3.09895,-2.9191c-0.39881,-0.47224 -0.71998,-1.00492 -1.07997,-1.50737c-0.49079,-0.85739 -0.96532,-1.72437 -1.4199,-2.6015c-0.42835,-0.82653 -1.0296,-1.58311 -1.29062,-2.47671c-0.19365,-0.66297 -0.03485,-1.38101 -0.03793,-2.07168c-0.00324,-0.72642 -0.11738,-1.46568 0.01896,-2.1792c0.16031,-0.83896 0.53981,-1.62188 0.85874,-2.41424c0.29949,-0.74404 0.66757,-1.45862 0.99488,-2.19084c0.22432,-0.50183 0.38282,-1.03653 0.65996,-1.51125c0.23371,-0.40032 0.5826,-0.72144 0.8602,-1.09268c0.35075,-0.46906 0.64308,-0.98302 1.02438,-1.42759c0.44342,-0.517 0.95935,-0.96712 1.44183,-1.44787c0.63239,-0.63012 1.18775,-1.35022 1.90278,-1.88473c0.60767,-0.45426 3.40082,-1.87061 4.2948,-2.15273c2.93702,-0.92684 6.20322,-0.7551 9.15287,-0.0127c0.51034,0.12845 0.98011,0.38384 1.47409,0.56531c1.50606,0.55327 3.00859,1.1196 4.48395,1.75019c1.16189,0.71287 2.34081,1.39874 3.48496,2.13975c0.96034,0.62197 2.31182,1.46288 3.22089,2.29295c0.49461,0.45163 0.94843,0.94601 1.42218,1.41948c1.1888,1.18808 2.38882,2.3203 3.43454,3.6428c0.50596,0.63988 0.92729,1.3425 1.40499,2.00375c0.3912,0.54152 0.82535,1.05196 1.20136,1.60413c0.31838,0.46753 0.58505,0.96826 0.87932,1.45133c0.45697,0.75016 0.98368,1.46165 1.37438,2.24837c0.26515,0.5339 0.38425,1.12862 0.582,1.69098c0.34086,0.96929 1.26838,3.40532 1.47631,4.49034c0.14348,0.74875 0.1406,1.51825 0.21332,2.27715c0.06558,0.68434 0.19152,1.36515 0.20156,2.05255c0.01822,1.24744 -0.24375,3.86294 -0.40244,5.09451c-0.32615,2.53123 -0.80047,4.99881 -1.41985,7.47208c-0.47883,1.28138 -0.89639,2.58647 -1.41882,3.8507c-0.33956,0.82171 -1.25232,2.35839 -1.61596,3.03924c-0.38268,0.71648 -0.69092,1.47434 -1.11849,2.16497c-0.45348,0.73248 -1.01706,1.39083 -1.51719,2.09229c-0.58577,0.82158 -1.92164,2.8057 -2.62422,3.62513c-0.38329,0.44703 -0.827,0.83856 -1.24697,1.25133c-0.93551,0.91949 -2.08581,2.01172 -3.13876,2.70729c-0.63473,0.41929 -1.37037,0.66234 -2.03821,1.02658c-1.95617,1.06692 -3.74349,2.43311 -5.68106,3.5268c-1.43376,0.8093 -3.01425,1.32593 -4.53361,1.96009c-0.75487,0.31507 -1.48515,0.68608 -2.22772,1.02912c0,0 -0.6773,0.3126 -1.22694,-0.06839c-0.22619,0.24498 -0.46194,0.49001 -0.70804,0.73606l-0.74526,0.93156c-0.22886,0.29115 -0.58424,0.47814 -0.98329,0.47814c-0.69036,0 -1.25,-0.55964 -1.25,-1.25c0,-0.20994 0.05176,-0.4078 0.14321,-0.5815l0.57745,-1.15491c0,0 0.33184,-0.66368 0.99552,-0.71269zM326.1985,165.38009c0.00961,-0.00403 0.01922,-0.00806 0.02884,-0.01208c1.42918,-0.59702 2.92343,-1.06694 4.27039,-1.83158c1.94145,-1.10212 3.73626,-2.46903 5.70044,-3.53759c0.61658,-0.33543 1.29925,-0.55113 1.88642,-0.93574c0.87545,-0.57345 1.95359,-1.61621 2.74821,-2.39474c0.3723,-0.36476 0.76869,-0.70768 1.10782,-1.10347c0.58967,-0.68819 2.03784,-2.82366 2.47782,-3.43923c0.46819,-0.65506 0.9999,-1.26676 1.42368,-1.95139c0.40086,-0.6476 0.6846,-1.3609 1.04269,-2.0331c0.22514,-0.42264 1.25112,-2.18301 1.52375,-2.84773c0.48611,-1.1852 0.87714,-2.40725 1.32843,-3.60615c0.58166,-2.33106 1.01919,-4.6641 1.3274,-7.04911c0.13487,-1.04362 0.39913,-3.63027 0.38249,-4.7171c-0.0096,-0.62719 -0.13183,-1.24762 -0.1909,-1.8721c-0.06428,-0.67957 -0.05227,-1.36925 -0.17914,-2.03996c-0.16277,-0.86051 -1.15718,-3.49518 -1.38277,-4.14301c-0.16751,-0.48105 -0.25578,-0.994 -0.48357,-1.44961c-0.35252,-0.70507 -0.834,-1.33794 -1.24611,-2.00992c-0.27571,-0.44958 -0.5202,-0.91899 -0.8173,-1.35473c-0.36064,-0.52893 -0.77867,-1.01657 -1.15342,-1.5356c-0.45727,-0.63331 -0.85874,-1.3074 -1.34227,-1.92089c-0.94452,-1.1984 -2.16934,-2.35287 -3.24071,-3.42492c-0.44088,-0.44116 -0.86285,-0.902 -1.32172,-1.32442c-0.7653,-0.70451 -2.17652,-1.58162 -2.90169,-2.0504c-1.08017,-0.69826 -2.19054,-1.34868 -3.28498,-2.02436c-1.38462,-0.58739 -2.79741,-1.10675 -4.20823,-1.62811c-0.42795,-0.15815 -0.83169,-0.38849 -1.27403,-0.50026c-2.46841,-0.62372 -5.2615,-0.79071 -7.72311,-0.0127c-0.62914,0.19884 -3.17628,1.48707 -3.55449,1.77192c-0.61823,0.46561 -1.08661,1.10241 -1.63275,1.6508c-0.43213,0.4339 -0.90373,0.83091 -1.30205,1.29604c-0.35103,0.40991 -0.61343,0.88845 -0.93795,1.31965c-0.22499,0.29895 -0.52129,0.54638 -0.70968,0.86965c-0.22489,0.3859 -0.337,0.82743 -0.51744,1.236c-0.31457,0.71231 -0.66799,1.40749 -0.96745,2.12628c-0.2604,0.62506 -0.5849,1.23759 -0.71111,1.90285c-0.10845,0.57165 0.0224,1.16361 0.01896,1.74544c-0.00288,0.48699 -0.18116,0.99505 -0.03793,1.46051c0.21644,0.70338 0.72887,1.27883 1.07989,1.92564c0.43699,0.80522 0.85778,1.61946 1.31164,2.41529c0.29412,0.41329 0.55425,0.85302 0.88236,1.23988c0.7049,0.83113 2.33415,2.14227 2.97231,2.78051c0.46689,0.46694 0.8534,1.00856 1.30424,1.49102c0.43251,0.46285 0.8965,0.89524 1.3443,1.3433c0.84769,0.84817 1.68094,1.71527 2.43913,2.64431c0.34608,0.42406 0.74891,0.80596 1.04668,1.26523c0.4686,0.72275 0.83147,1.50881 1.24262,2.26571c0.40651,0.74835 0.83026,1.4879 1.21035,2.25002c0.65716,1.31768 0.93863,2.36366 1.46316,3.80698c0.24511,0.67446 0.54627,1.3294 0.75669,2.01547c0.56062,1.82788 0.73472,3.09716 1.0615,4.9753c0.61001,3.50598 1.23315,7.28547 0.33222,10.80761c-0.16301,0.63729 -0.41361,1.24892 -0.62042,1.87337c-0.5723,1.6 -1.19925,2.98561 -1.97321,4.27121z" fill="#00ff2b" stroke="none" stroke-width="0.5"/><path d="M314.82371,165.92667c0,0 1.25,0 1.25,1.25c0,1.25 -1.25,1.25 -1.25,1.25c-1.00256,-0.0019 -2.00418,-0.08578 -3.0012,-0.20513c-0.04271,0.04292 -0.09011,0.08547 -0.14258,0.12744c-0.97609,0.78087 -1.75695,-0.19522 -1.75695,-0.19522l-0.80584,-1.00804c-0.04616,-0.06472 -0.09258,-0.12919 -0.13922,-0.19343c-0.36538,-0.22598 -0.73076,-0.45197 -1.09614,-0.67795c0,0 -0.86854,-0.54283 -0.54185,-1.43196c-0.61375,-0.76064 -1.23215,-1.51809 -1.82129,-2.30682c-0.68049,-1.35435 -1.28425,-2.42093 -2.47643,-3.41891c-0.33907,-0.28384 -0.7469,-0.47437 -1.10687,-0.73118c-0.32824,-0.23418 -2.01924,-1.61547 -2.64091,-1.8052c-0.68632,-0.20947 -1.41721,-0.22628 -2.12655,-0.33471c-1.57961,-0.24147 -3.22601,-0.26853 -4.82228,-0.18468c-0.89982,0.04727 -1.85895,0.32793 -2.71605,0.55123c-0.66658,0.17366 -1.35448,0.28393 -1.99625,0.53416c-0.46454,0.18113 -0.84904,0.52558 -1.29478,0.74902c-0.44758,0.22437 -0.93251,0.36827 -1.38039,0.59203c-1.11731,0.55822 -2.19659,1.19016 -3.27813,1.81485c-0.75177,0.43422 -1.45701,0.9525 -2.23659,1.33457c-0.83142,0.40747 -3.65692,1.17589 -4.30552,1.28254c-0.91551,0.15053 -1.85048,0.1379 -2.77572,0.20684c-0.75511,-0.14961 -1.52988,-0.22149 -2.26533,-0.44883c-0.67093,-0.2074 -1.28316,-0.57122 -1.92874,-0.84762c-0.79708,-0.34126 -1.62545,-0.61375 -2.39906,-1.00531c-0.51273,-0.25951 -0.95447,-0.64092 -1.44498,-0.94031c-0.71277,-0.43505 -1.45191,-0.82595 -2.16383,-1.26239c-1.23704,-0.75837 -2.42428,-1.61349 -3.5826,-2.48502c-0.70054,-0.52709 -1.45193,-0.99302 -2.09998,-1.58346c-0.54721,-0.49856 -0.98329,-1.10691 -1.4675,-1.66686c-0.50936,-0.58903 -1.11737,-1.10926 -1.51309,-1.77994c-0.49009,-0.83063 -0.8797,-1.7349 -1.1129,-2.67072c-0.47641,-1.91187 -0.1272,-3.34319 -0.03403,-5.24731c0.05532,-1.13072 -0.11289,-3.11495 0.01014,-4.04259c0.25053,-1.88895 0.81046,-2.87476 1.75666,-4.4541c0.45844,-0.76521 0.90232,-1.54544 1.45252,-2.24759c0.05199,-0.06634 2.46289,-2.4722 2.67029,-2.67942c0.5568,-0.48608 1.0817,-1.01133 1.67041,-1.45824c0.55231,-0.41928 1.17089,-0.74366 1.74414,-1.13384c0.7375,-0.50197 1.39092,-1.14029 2.18742,-1.54212c0.69135,-0.34879 1.46841,-0.49851 2.22076,-0.68179c2.31877,-0.56488 4.64482,-0.62441 7.01477,-0.62325c0.86425,0.00042 1.72995,-0.04657 2.59276,0.00345c1.8987,0.11006 3.75261,0.71513 5.55067,1.28276c1.38527,0.43732 2.74942,0.78554 4.07915,1.36902c1.34134,0.58858 2.59293,1.36807 3.9306,1.96494c0.6479,0.28909 1.32877,0.49834 1.98544,0.76693c1.2506,0.51151 2.49895,1.03055 3.72562,1.59706c1.5863,0.73261 3.1265,1.62191 4.66595,2.44006c0.73569,0.4685 1.48891,0.91055 2.20706,1.40551c2.33564,1.60977 4.33385,3.86045 5.83558,6.25445c1.00929,1.60897 1.61192,3.50554 2.41712,5.21789c0.2575,0.54761 0.58458,1.06315 0.80934,1.62499c0.31828,0.79562 0.54566,1.62466 0.81593,2.43785c0.27552,0.82898 0.62672,1.63705 0.82144,2.48863c0.14608,0.63888 0.06961,1.31314 0.19494,1.95641c0.08283,0.42515 0.33728,0.80374 0.42546,1.22782c0.18281,0.87914 0.29432,1.77287 0.38427,2.6663c0.04933,0.49004 0.00837,0.98527 0.03288,1.47717c0.0404,0.81078 0.09059,1.62133 0.16179,2.42998c0.08794,0.99871 0.31247,1.98341 0.55707,2.95569c0,0 0.0023,0.00921 0.0057,0.02622c0.18252,0.00567 0.3651,0.0085 0.54771,0.00812zM309.32922,159.84347c1.25,0 1.25,1.25 1.25,1.25l-0.03732,0.678c0.28666,1.17174 0.51198,1.95275 0.69447,2.74175l0.1622,-0.05406c-0.07486,-0.42592 -0.13512,-0.85397 -0.17395,-1.28423c-0.18766,-2.07938 -0.08266,-4.17287 -0.52063,-6.22558c-0.09404,-0.44073 -0.35084,-0.83699 -0.4373,-1.27927c-0.12649,-0.64713 -0.05227,-1.32506 -0.1975,-1.96824c-0.17207,-0.76203 -0.50068,-1.48005 -0.74844,-2.22094c-0.25303,-0.75666 -0.45763,-1.53092 -0.75393,-2.27172c-0.20981,-0.52458 -0.5198,-1.0036 -0.76052,-1.51474c-0.27851,-0.59138 -0.53127,-1.19456 -0.79675,-1.7919c-0.24081,-0.54183 -1.13179,-2.61544 -1.49571,-3.19429c-0.43266,-0.6882 -1.91148,-2.63908 -2.57393,-3.30867c-1.41597,-1.43124 -2.90259,-2.41625 -4.59075,-3.48968c-1.47127,-0.78046 -2.94356,-1.63318 -4.45955,-2.33239c-1.19121,-0.54941 -2.40325,-1.05315 -3.61736,-1.54993c-0.67928,-0.27794 -1.38286,-0.49643 -2.05303,-0.79565c-1.33358,-0.59541 -2.58233,-1.37056 -3.91869,-1.95971c-1.17039,-0.51598 -2.66495,-0.90779 -3.83948,-1.27882c-1.60987,-0.50854 -3.27473,-1.08045 -4.97656,-1.17145c-0.80127,-0.04285 -1.60483,0.00303 -2.40724,0.00345c-2.18302,0.00113 -4.29144,0.05896 -6.43107,0.55416c-0.57627,0.13337 -1.17882,0.22324 -1.70389,0.4956c-0.68758,0.35666 -1.24317,0.92494 -1.88125,1.36407c-0.53743,0.36986 -1.12339,0.66886 -1.64402,1.06201c-0.51994,0.39263 -0.97954,0.85934 -1.46931,1.28901c-0.3825,0.38282 -0.76411,0.76653 -1.14749,1.14847c-0.42721,0.4256 -0.91209,0.79967 -1.28426,1.27415c-0.47809,0.60951 -0.85221,1.29436 -1.25127,1.95831c-0.73729,1.22667 -1.25323,2.04656 -1.42653,3.50641c-0.03529,0.29731 0.04226,3.15077 0.01014,3.8067c-0.07525,1.53684 -0.39926,3.0286 -0.03403,4.5643c0.16248,0.68317 0.44315,1.34599 0.81018,1.94467c0.33673,0.54925 0.8499,0.96847 1.27341,1.45397c0.42755,0.49012 0.7984,1.03547 1.27975,1.47287c0.58466,0.53127 1.26725,0.94361 1.90003,1.41654c1.10463,0.82558 2.229,1.64322 3.40641,2.36428c0.70919,0.43432 1.44571,0.8229 2.15507,1.25695c0.4429,0.27101 0.83695,0.62348 1.30048,0.85746c0.71382,0.36033 1.48149,0.6025 2.21633,0.91777c0.56995,0.24453 1.10815,0.56873 1.69764,0.76146c0.5364,0.17538 1.10621,0.22407 1.65932,0.33611c0.73652,-0.05888 1.48156,-0.05035 2.20955,-0.17663c0.76799,-0.13321 1.51289,-0.37789 2.26041,-0.5987c0.47344,-0.13984 0.95835,-0.26231 1.40015,-0.48256c0.71462,-0.35627 1.36026,-0.83709 2.05088,-1.2379c1.12767,-0.65446 2.25738,-1.30868 3.42338,-1.89212c0.44326,-0.22179 0.92334,-0.36414 1.36689,-0.58536c0.49765,-0.24821 0.934,-0.61967 1.45245,-0.82084c0.74842,-0.29039 1.54495,-0.43725 2.32086,-0.64323c1.04703,-0.27796 2.08239,-0.56282 3.17092,-0.62617c0.74779,-0.04352 1.49811,-0.00314 2.24717,-0.00314c1.04724,0 2.10089,0.04336 3.13464,0.21093c0.86273,0.13985 1.75156,0.18091 2.58303,0.45022c1.05376,0.34131 2.38729,1.50536 3.24606,2.11944c0.40768,0.29152 0.86672,0.51328 1.24791,0.83868c1.39471,1.19055 2.2199,2.43334 3.01808,4.03793c0.14992,0.19893 0.30173,0.39581 0.45484,0.59123l-0.02089,-0.719c0,0 0,-1.25 1.25,-1.25z" fill="#00ff2b" stroke="none" stroke-width="0.5"/><path d="M302.52495,178.2553c-0.1937,-0.11956 -0.38916,-0.23569 -0.59511,-0.33176c-0.50276,-0.2345 -1.05734,-0.34589 -1.55864,-0.58349c-0.76034,-0.36037 -1.47266,-0.81465 -2.21742,-1.20621c-0.52149,-0.27418 -1.06095,-0.51342 -1.58079,-0.79071c-0.45696,-0.24375 -0.88537,-0.53991 -1.34845,-0.77181c-0.55022,-0.27553 -1.12102,-0.50818 -1.68749,-0.74851c-0.59232,-0.2513 -1.16845,-0.55424 -1.78848,-0.72618c-0.46805,-0.12979 -0.96737,-0.09481 -1.44706,-0.17105c-0.67412,-0.10714 -1.33086,-0.34097 -2.01239,-0.37878c-0.67541,-0.03747 -2.90297,0.45211 -3.42701,0.56249c-1.3208,0.2782 -2.27255,0.47687 -3.56009,0.93311c-0.47866,0.16961 -0.91882,0.43916 -1.40106,0.5983c-1.41173,0.4659 -2.87974,0.60463 -4.34346,0.79347c-0.38494,0.1938 -0.74109,0.4607 -1.15481,0.58141c-1.49165,0.43522 -3.08758,0.41526 -4.59096,0.80803c-0.71534,0.18689 -1.38152,0.52856 -2.08289,0.76248c-0.62517,0.2085 -1.283,0.31933 -1.89486,0.56415c-0.65708,0.26292 -1.25687,0.65175 -1.89719,0.95317c-0.42732,0.20116 -0.89226,0.32277 -1.30418,0.55383c-2.43435,1.36548 -4.65412,3.3803 -6.22867,5.67965c-0.28592,0.41753 -0.49051,0.8855 -0.75068,1.31954c-0.31953,0.53309 -0.66391,1.05093 -0.98805,1.58123c-0.25354,0.41481 -1.82128,2.99678 -2.08035,3.57891c-0.23295,0.52344 -0.36888,1.08502 -0.53872,1.63221c-0.19284,0.62128 -0.6726,2.32421 -0.73655,2.90667c-0.05929,0.54 0.00725,1.08647 0.00746,1.62971c0.00024,0.61305 -0.06382,1.22882 -0.00608,1.83915c0.0549,0.58026 0.2282,1.14315 0.34229,1.71473c0.12011,0.27647 1.22312,2.81998 1.25784,2.87763c0.92483,1.53538 1.17608,1.6362 2.30579,2.6441c0.55616,0.49619 1.06199,1.05497 1.66711,1.49011c0.65874,0.47369 1.42394,0.78127 2.10496,1.22233c0.72285,0.46815 1.4099,0.98971 2.10197,1.50226c0.41576,0.30792 0.77966,0.68815 1.22073,0.95857c0.63211,0.38756 2.8657,1.41189 3.60339,1.62206c0.65208,0.18578 1.33189,0.25681 2.00229,0.35815c1.78809,0.27031 2.17096,0.40532 3.76529,0.19291c0.55468,-0.0739 1.13488,-0.09021 1.65016,-0.30842c0.55663,-0.23572 1.01232,-0.66235 1.49658,-1.02414c0.81482,-0.60876 1.50141,-1.37259 2.24513,-2.06643c0.5658,-0.52785 1.18911,-0.99368 1.73629,-1.54082c0.48304,-0.48301 0.88262,-1.04349 1.34815,-1.5434c0.35001,-0.37587 0.78357,-0.67515 1.09682,-1.08217c0.29666,-0.38547 0.47667,-0.84803 0.715,-1.27205c0.36872,-0.54453 0.80759,-1.04765 1.10615,-1.63359c0.13366,-0.26233 0.67086,-2.70434 0.67695,-2.75145c0.08794,-0.67955 -0.07538,-1.97504 -0.18534,-2.59375c-0.58989,-3.31891 -2.46648,-6.36229 -1.96452,-9.83272c0.22297,-1.54156 1.13032,-2.97048 1.96263,-4.22566c0.37925,-0.57194 0.80926,-1.10894 1.23426,-1.64775c0.72382,-0.91768 1.28296,-1.65299 2.30031,-2.25921c0.47371,-0.28227 1.01121,-0.44021 1.51604,-0.66207c2.02724,-0.89088 2.01952,-1.02349 4.40658,-1.45949c1.14364,-0.20889 2.32089,-0.14029 3.48118,-0.21283c0.59116,-0.03696 1.17739,-0.13081 1.76608,-0.19622c1.45354,0.00038 2.87295,0.28242 4.25388,0.1603zM305.61633,179.6157l-0.30806,0.48384c-2.37667,0.9777 -4.40791,0.49086 -6.89895,0.49163c-0.58869,0.06541 -1.17492,0.15929 -1.76608,0.19622c-0.45927,0.02869 -0.92106,-0.0255 -1.38049,0.00036c-1.4652,0.08249 -2.55006,0.2408 -3.97243,0.7184c-0.57917,0.19447 -1.1128,0.50483 -1.67299,0.74864c-0.40793,0.17754 -0.84402,0.29617 -1.23119,0.51533c-0.65672,0.37174 -1.18452,1.10317 -1.62434,1.66544c-0.78818,1.00763 -1.6385,2.124 -2.19962,3.27914c-0.22211,0.45725 -0.4198,0.94058 -0.49047,1.44399c-0.09276,0.6608 -0.06376,1.33829 0.00678,2.00184c0.04994,0.46985 0.21636,0.92048 0.35197,1.3731c0.37745,1.25975 0.8531,2.49047 1.1868,3.76252c0.42494,1.6198 0.82705,3.47169 0.62167,5.16136c-0.07975,0.65612 -0.26123,1.29637 -0.42339,1.93711c-0.13566,0.536 -0.22527,1.09484 -0.46951,1.59087c-0.3346,0.67955 -0.83243,1.26573 -1.24864,1.89859c-0.28495,0.49173 -0.50843,1.02466 -0.85486,1.4752c-0.36358,0.47286 -0.85266,0.83502 -1.25797,1.27265c-0.48078,0.51911 -0.89881,1.09596 -1.39911,1.59629c-0.56673,0.56677 -1.21004,1.0519 -1.79587,1.5989c-1.36531,1.27482 -2.72881,2.83866 -4.50007,3.58133c-0.71437,0.29953 -1.50799,0.36459 -2.27449,0.47653c-1.7888,0.26124 -2.57635,0.0886 -4.47647,-0.19958c-0.77574,-0.11765 -1.56053,-0.21074 -2.31482,-0.42678c-0.98415,-0.28187 -3.3899,-1.38816 -4.2459,-1.91012c-0.49757,-0.3034 -0.91424,-0.72329 -1.38273,-1.0699c-0.64751,-0.47907 -1.28845,-0.96917 -1.96469,-1.40673c-0.71808,-0.46463 -1.52062,-0.79618 -2.21393,-1.29703c-0.67279,-0.48602 -1.24575,-1.09707 -1.86507,-1.64961c-0.38245,-0.34121 -0.8055,-0.64342 -1.1402,-1.03158c-0.60137,-0.69742 -1.17628,-1.42525 -1.65604,-2.21129c-0.19791,-0.32426 -1.27002,-2.88402 -1.48941,-3.40178c-0.14754,-0.73664 -0.36458,-1.46271 -0.44263,-2.20992c-0.07223,-0.69141 -0.00632,-1.39033 -0.00608,-2.0855c0.00022,-0.63417 -0.06325,-1.27228 0.00746,-1.9025c0.08483,-0.756 0.57686,-2.55697 0.8333,-3.37274c0.20037,-0.6374 0.36757,-1.28931 0.63867,-1.9c0.84786,-1.90988 2.13859,-3.65071 3.21104,-5.43641c0.28249,-0.47037 0.5076,-0.97609 0.81918,-1.42771c1.82022,-2.63833 4.31912,-4.91013 7.11513,-6.48675c0.45645,-0.25738 0.96891,-0.4005 1.44307,-0.62357c0.68309,-0.32136 1.32651,-0.72887 2.02745,-1.00915c0.65627,-0.26243 1.35922,-0.38981 2.02978,-0.61322c0.75128,-0.2503 1.46792,-0.60777 2.23422,-0.8074c1.45178,-0.3782 2.99749,-0.33509 4.43575,-0.76182c0.42816,-0.12703 0.79997,-0.39732 1.19996,-0.59598c1.41649,-0.21707 2.92393,-0.31561 4.29076,-0.77637c0.4629,-0.15604 0.88538,-0.41708 1.34622,-0.57912c1.88786,-0.66379 3.94764,-1.13203 5.92543,-1.43382c0.66303,-0.10117 1.33109,-0.24077 2.0011,-0.21029c0.77927,0.03545 1.53408,0.28516 2.30472,0.40615c0.56214,0.08825 1.14445,0.06892 1.69266,0.22142c1.89612,0.52746 3.65924,1.54568 5.37966,2.46308c0.51261,0.27334 1.04497,0.50835 1.55892,0.77915c0.70579,0.37188 1.37864,0.80723 2.09969,1.14857c0.50885,0.24089 1.07097,0.35573 1.5811,0.5939c0.48904,0.22833 0.92434,0.55972 1.40701,0.80122c0.18011,0.09012 0.36281,0.17475 0.54684,0.25657c0.20319,-0.03919 0.4442,-0.02237 0.72638,0.0905c0.34009,0.13604 0.54066,0.33187 0.65428,0.54077c0.30359,0.21601 0.77735,0.70744 0.41621,1.51999c-0.28146,0.63326 -0.75795,0.75941 -1.12672,0.74609z" fill="#00ff2b" stroke="none" stroke-width="0.5"/><path d="M309.58479,192.06849c-0.02455,-0.04911 -0.04587,-0.09713 -0.06419,-0.14408c-0.04794,0.00841 -0.09661,0.01726 -0.14606,0.02657c-0.49897,0.09398 -2.64673,0.81649 -2.93707,0.92313c-0.39489,0.14504 -0.80807,0.26291 -1.16468,0.48607c-0.41303,0.25847 -0.71707,0.66467 -1.11759,0.94213c-0.44786,0.31026 -0.95973,0.51837 -1.41739,0.81398c-1.3298,0.85892 -2.53879,1.89333 -3.76756,2.89145c-2.0906,1.69819 -4.38256,3.02294 -5.85808,5.36302c-1.46226,2.31905 -2.14116,4.93978 -2.88624,7.54819c-0.16776,0.65892 -0.7029,2.62784 -0.859,3.57159c-0.13519,0.81735 -0.22135,1.64221 -0.35107,2.46044c-0.06195,0.39075 -0.19322,0.77116 -0.22382,1.1656c-0.04255,0.54847 0.00572,1.10024 0.00537,1.65036c-0.00035,0.54324 -0.06675,1.08971 -0.00746,1.62971c0.082,0.74681 0.88976,3.49192 1.0266,3.92321c0.31205,0.98352 0.78218,2.31634 1.35001,3.21691c1.1643,1.84658 2.80354,3.25936 4.06506,5.01806c0.36992,0.51571 0.65912,1.08523 1.01124,1.61326c0.43585,0.65361 0.89893,1.28865 1.35188,1.93053c0.07757,0.10992 1.46159,2.10204 1.73516,2.30683c1.2538,0.93856 2.32528,1.16683 3.81084,1.51543c1.42027,0.33328 2.86097,0.57251 4.29117,0.8602c1.94532,0.12622 3.88992,0.2552 5.8398,0.28387c2.65618,0.03906 5.23,-0.03352 7.71371,-1.06864c0.6955,-0.28986 1.85299,-1.08735 2.32192,-1.65019c0.49697,-0.59651 0.85214,-1.29811 1.28223,-1.9445c0.29585,-0.44464 0.64982,-0.85439 0.89557,-1.32857c0.22752,-0.43901 0.3647,-0.9201 0.51412,-1.39145c0.58749,-1.85329 0.59521,-2.02121 0.94804,-3.60809c0.12742,-0.57308 0.26866,-1.14324 0.38296,-1.71908c0.0724,-0.36476 0.20223,-0.73051 0.17689,-1.10152c-0.00402,-0.0589 -0.56196,-2.43107 -0.6704,-2.66302c-0.17863,-0.3821 -0.49197,-0.68608 -0.71369,-1.04489c-0.26086,-0.42214 -0.43075,-0.90214 -0.73277,-1.29589c-0.48791,-0.63608 -1.08184,-1.18332 -1.62276,-1.77497c-0.91441,-1.1492 -1.73837,-2.39654 -2.98427,-3.23107c-0.66724,-0.44693 -1.43283,-0.72814 -2.12456,-1.13614c-0.71262,-0.42033 -1.37342,-0.92449 -2.0849,-1.34673c-0.38524,-0.22863 -0.81403,-0.37746 -1.2009,-0.60332c-0.41488,-0.24222 -0.7881,-0.55095 -1.19991,-0.79834c-0.55509,-0.33345 -1.12633,-0.63961 -1.69852,-0.94279c-1.28019,-0.67833 -1.5976,-0.83159 -2.94801,-1.29213c-1.65777,-0.56536 -1.87203,-0.25416 -2.9984,-1.85996c-0.34647,-0.49394 -0.52624,-1.08828 -0.73139,-1.65567c-0.19053,-0.52696 -0.37644,-1.06383 -0.45261,-1.61898c-0.31822,-2.31943 0.68168,-4.60413 1.68937,-6.61863c0.39163,-0.7829 0.78775,-1.56728 1.26206,-2.30304c0.27903,-0.43284 0.69388,-0.76498 0.98817,-1.18759c0.44997,-0.64619 1.41865,-2.66946 1.67479,-3.18202c0.18036,-0.36072 0.64954,-1.04192 1.00718,-1.48147l-0.70376,0.41127c0,0 -1.11804,0.55901 -1.67705,-0.55902zM313.79173,189.93171c0.41688,0.13143 0.7828,0.32107 0.99877,0.682c0.36175,0.60455 -1.37401,3.75803 -1.59601,4.20204c-0.41877,0.83708 -1.27435,2.64322 -1.85737,3.48988c-0.28741,0.41738 -0.69806,0.74224 -0.97416,1.1672c-0.41614,0.6405 -0.7513,1.33085 -1.09276,2.0141c-0.75428,1.5093 -1.71766,3.39069 -1.45034,5.15531c0.05872,0.38764 0.2026,0.75828 0.33232,1.12825c0.13005,0.37092 0.24257,0.75526 0.446,1.09158c0.51553,0.85229 0.77318,0.58255 1.71117,0.88729c1.38468,0.44988 2.04033,0.77214 3.33142,1.45512c0.61818,0.32702 1.2338,0.66003 1.83366,1.01954c0.3971,0.23799 0.75504,0.53815 1.15487,0.77152c0.38158,0.22271 0.80491,0.36859 1.18485,0.59407c0.72179,0.42834 1.39361,0.93748 2.116,1.36481c0.74327,0.43969 1.56572,0.74577 2.2778,1.23436c1.455,0.99834 2.39368,2.31796 3.46399,3.66579c0.5802,0.64158 1.21565,1.23721 1.74059,1.92474c0.33891,0.44389 0.54513,0.97525 0.83709,1.45134c0.27269,0.44468 0.63937,0.83546 0.85619,1.3099c0.24878,0.54436 0.87412,3.18284 0.89944,3.61641c0.04268,0.73098 -0.47474,2.8159 -0.61754,3.45886c-0.35436,1.59549 -0.42773,2.04112 -1.01428,3.84872c-0.19238,0.59285 -0.37896,1.1936 -0.66328,1.74826c-0.2871,0.56008 -0.69099,1.05215 -1.04052,1.57556c-0.49441,0.74038 -0.91114,1.54043 -1.49126,2.21576c-0.7132,0.83025 -2.14306,1.83745 -3.17259,2.27445c-2.82454,1.19893 -5.74277,1.3292 -8.76979,1.28612c-2.04812,-0.02914 -4.09053,-0.16546 -6.13331,-0.30538c-3.15963,-0.62854 -6.69374,-0.91987 -9.35974,-2.92209c-0.48332,-0.36298 -0.80439,-0.9035 -1.17712,-1.37935c-0.28159,-0.35949 -2.36141,-3.34044 -2.40776,-3.40998c-0.33249,-0.49885 -0.60277,-1.03851 -0.95109,-1.52643c-0.77552,-1.08634 -1.78286,-1.9889 -2.61446,-3.03294c-0.55246,-0.69359 -1.09188,-1.40142 -1.56224,-2.1531c-0.68415,-1.09333 -1.2072,-2.53854 -1.59348,-3.74942c-0.24149,-0.75699 -1.02381,-3.45281 -1.13196,-4.41656c-0.07072,-0.63022 -0.00711,-1.26833 -0.00746,-1.9025c-0.00035,-0.62728 -0.0435,-1.25645 0.00537,-1.88182c0.03542,-0.45326 0.17585,-0.89235 0.24649,-1.34148c0.13023,-0.82803 0.21809,-1.66252 0.35601,-2.48931c0.17555,-1.05238 0.6952,-2.95451 0.90712,-3.78721c0.8188,-2.86505 1.58707,-5.70302 3.19694,-8.24844c1.00416,-1.58771 2.34087,-2.90118 3.81969,-4.04177c0.84649,-0.65288 1.74259,-1.24126 2.57218,-1.91548c1.30187,-1.05805 2.59045,-2.14424 3.99819,-3.0567c0.42788,-0.27734 0.91057,-0.46578 1.32989,-0.7559c0.43956,-0.30413 0.78024,-0.74285 1.23717,-1.02019c0.4921,-0.2987 1.04471,-0.48617 1.58257,-0.69133c0.45866,-0.17494 2.72646,-0.92413 3.34237,-1.03919c1.5264,-0.28515 2.24793,-0.21821 3.77376,-0.2198c0,0 0.81112,0 1.12658,0.65339z" fill="#00ff2b" stroke="none" stroke-width="0.5"/><path d="M323.22751,187.95659c-0.15641,-0.18809 -0.26899,-0.44732 -0.24197,-0.79895c-0.00635,-0.23997 0.05056,-0.51728 0.26524,-0.76106c0.1914,-0.26246 0.44977,-0.37817 0.68539,-0.42403c0.33876,-0.10307 0.61712,-0.04856 0.83506,0.06425c1.28876,0.31694 2.82855,0.56195 3.52657,1.95723c0.36975,0.73911 0.24831,1.99959 0.05503,3.15356c1.26514,1.43446 2.68797,2.69021 4.2557,4.0445c1.09109,0.59632 2.09406,1.34293 3.17022,1.96579c1.99712,1.15589 4.41821,2.1129 6.72647,2.35188c0.7933,0.08213 1.59009,0.129 2.38659,0.16969c0.38474,0.01966 0.7744,0.06643 1.15568,0.01129c0.40516,-0.05859 0.78732,-0.22508 1.17758,-0.34872c1.57974,-0.50049 3.16931,-1.1084 4.49705,-2.13885c0.36837,-0.28588 0.61338,-0.7134 0.99009,-0.9882c0.67032,-0.48898 1.40559,-0.88347 2.13007,-1.28788c1.59067,-0.88791 2.10103,-1.009 3.91295,-1.65252c0.45697,-0.1623 0.90289,-0.36829 1.37744,-0.46812c2.16284,-0.45498 2.42874,-0.38905 4.33781,-0.38841c0.55766,0.00019 1.11831,-0.05352 1.67296,0.00426c0.87969,0.09164 1.74412,0.29503 2.61617,0.44254c0.80045,0.36142 1.63005,0.66423 2.40135,1.08427c0.65675,0.35766 1.2534,0.81639 1.86885,1.2412c0.51239,0.35367 1.05543,0.6727 1.51401,1.0938c0.3296,0.30267 2.60264,3.18893 2.63199,3.22218c1.0071,1.14068 1.48503,1.3011 2.30424,2.4865c0.49341,0.71396 0.91682,1.47388 1.36734,2.21564c1.08898,1.79295 2.01532,3.59493 2.49942,5.65128c0.18673,0.79319 0.3883,1.59318 0.42626,2.40717c0.05937,1.27301 -0.31696,2.5079 -0.67876,3.7031c-0.26179,0.86481 -0.44547,1.76177 -0.8226,2.58287c-0.26617,0.57949 -0.73419,1.04306 -1.08686,1.57436c-0.94379,1.42186 -1.47527,2.5418 -2.71722,3.69632c-0.49024,0.45573 -1.07238,0.80142 -1.61469,1.19376c-0.70719,0.51162 -1.39207,1.05766 -2.13365,1.51801c-0.42492,0.26378 -0.90253,0.43126 -1.3538,0.64689c-0.76389,0.32743 -3.49178,1.52 -4.37695,1.8155c-0.72501,0.24203 -1.47682,0.39508 -2.21171,0.60522c-0.66591,0.19042 -1.32116,0.41792 -1.99038,0.59637c-1.29472,0.34523 -2.61021,0.61118 -3.89999,0.97445c-1.34412,0.37857 -2.68681,0.78805 -4.06509,1.01234c-0.59012,0.09603 -1.18317,0.21405 -1.78105,0.21232c-0.54372,-0.00157 -1.0848,-0.10601 -1.61599,-0.22212c-0.794,-0.17355 -1.58487,-0.37481 -2.35136,-0.64507c-0.45399,-0.16008 -0.86441,-0.42398 -1.29439,-0.64042c-1.35455,-0.68182 -2.67456,-1.43146 -3.98653,-2.192c-0.43016,-0.24936 -0.84503,-0.52824 -1.29369,-0.74256c-0.57398,-0.27418 -1.21768,-0.39963 -1.7674,-0.71969c-1.50544,-0.87648 -2.73113,-2.0519 -4.01558,-3.20212c-0.38497,-0.34474 -0.80876,-0.65206 -1.14792,-1.04195c-0.56916,-0.65427 -1.03412,-1.39252 -1.56579,-2.0776c-0.50694,-0.65322 -1.03314,-1.29127 -1.54971,-1.9369c-0.77199,-0.96596 -1.47059,-1.98843 -2.19462,-2.99084c-1.18596,-1.64195 -2.45978,-3.23619 -3.51864,-4.96729c-0.43406,-0.70963 -0.80461,-1.45679 -1.23799,-2.16683c-0.71328,-1.16863 -1.54415,-2.28369 -2.06877,-3.54831c-0.33606,-0.81009 -0.62509,-2.62762 -0.67062,-3.51345c-0.07676,-1.49343 -0.0076,-3.14721 0.18517,-4.63672c0.10686,-0.82569 0.30272,-1.63819 0.41071,-2.46374c0.08074,-0.61724 0.07068,-1.24429 0.15498,-1.86106c0.04561,-0.33366 0.10567,-0.66502 0.16912,-0.99586c-0.69933,-0.8782 -1.35039,-1.82326 -1.9519,-2.87427zM327.90119,194.2857c-0.01463,0.23882 -0.03214,0.47733 -0.06315,0.71439c-0.10818,0.82704 -0.30253,1.64127 -0.41127,2.46824c-0.24127,1.83484 -0.32794,3.75652 0.00716,5.58558c0.08336,0.45498 0.14924,0.92196 0.32937,1.348c0.47163,1.1155 1.22494,2.08979 1.85588,3.12357c0.43491,0.71258 0.80769,1.46187 1.2427,2.17438c1.02641,1.68116 2.26883,3.22641 3.41982,4.82023c0.70072,0.97031 1.37432,1.96192 2.12249,2.89613c0.52459,0.65582 1.05994,1.30317 1.57376,1.96745c0.48915,0.63238 0.91257,1.3166 1.43475,1.92199c0.28304,0.32814 0.64628,0.57746 0.96982,0.86573c1.04556,0.93159 2.33199,2.1719 3.56028,2.87846c0.51197,0.2945 1.11303,0.40152 1.64575,0.65657c0.50284,0.24075 0.97084,0.54841 1.45357,0.8273c1.27248,0.73517 2.55252,1.45957 3.86276,2.12511c0.35325,0.17943 0.68683,0.405 1.0604,0.537c0.64006,0.22617 1.30373,0.3821 1.96575,0.5323c0.37189,0.08437 0.74993,0.17184 1.13127,0.17034c0.45685,-0.0018 0.90838,-0.10297 1.35867,-0.18014c1.28185,-0.21967 2.53234,-0.5975 3.7842,-0.94998c1.3062,-0.36778 2.63813,-0.63821 3.94931,-0.98788c0.65048,-0.17347 1.28691,-0.3962 1.93427,-0.581c0.69932,-0.19964 1.41536,-0.34255 2.10541,-0.5722c0.75647,-0.25176 3.55046,-1.46987 4.14342,-1.72396c0.37161,-0.1744 0.767,-0.30522 1.11484,-0.52321c0.67264,-0.42155 1.29106,-0.92399 1.93501,-1.38818c0.46139,-0.33258 0.96178,-0.61775 1.38101,-1.00212c0.97705,-0.89579 1.62695,-2.19037 2.34135,-3.25681c0.29294,-0.4373 0.70013,-0.80541 0.91894,-1.28413c0.31724,-0.69406 0.45162,-1.45795 0.66877,-2.18953c0.25985,-0.87544 0.62807,-1.96957 0.57712,-2.90598c-0.03519,-0.64682 -0.20668,-1.28025 -0.35866,-1.90994c-0.43553,-1.8044 -1.2553,-3.36825 -2.21015,-4.94524c-0.41373,-0.68331 -0.80242,-1.38315 -1.25313,-2.04265c-0.5907,-0.86433 -1.45681,-1.50801 -2.13964,-2.28192c-0.56385,-0.63905 -1.06303,-1.3324 -1.59862,-1.99532c-0.28777,-0.35618 -0.53397,-0.75242 -0.87142,-1.06194c-0.37053,-0.33986 -0.8183,-0.58458 -1.23324,-0.86852c-0.55064,-0.3768 -1.08029,-0.78913 -1.66333,-1.11357c-0.61383,-0.34157 -1.27717,-0.58537 -1.91576,-0.87805c-0.6978,-0.11414 -1.3895,-0.27556 -2.0934,-0.34241c-0.48673,-0.04623 -0.97783,0.00407 -1.46675,0.00426c-1.68799,0.00064 -1.85564,-0.08082 -3.75166,0.31872c-0.39029,0.08224 -0.75411,0.2602 -1.12964,0.39461c-1.76983,0.63348 -2.0305,0.65113 -3.54388,1.48722c-0.60914,0.33653 -1.23454,0.65376 -1.79457,1.06688c-0.36918,0.27234 -0.60754,0.6958 -0.97224,0.97413c-1.58828,1.21213 -3.42402,1.98664 -5.31457,2.57073c-0.51886,0.1603 -1.03198,0.36011 -1.56968,0.43623c-0.5253,0.07436 -1.0615,0.03345 -1.59157,0.01129c-0.86837,-0.03631 -1.73649,-0.09427 -2.60071,-0.18656c-2.65067,-0.28308 -5.374,-1.34724 -7.67203,-2.66767c-0.72994,-0.41942 -1.3946,-0.94416 -2.10984,-1.38818c-0.401,-0.24894 -0.82452,-0.4596 -1.23679,-0.6894c-1.16944,-0.99557 -2.2644,-1.95486 -3.28214,-2.96034z" fill="#00ff2b" stroke="none" stroke-width="0.5"/><path d="M132.5,352.54601v-345.09202h375v345.09202z" fill="none" stroke="#000000" stroke-width="0"/></g></g></svg>