<svg version="1.1" xmlns="http://www.w3.org/2000/svg" xmlns:xlink="http://www.w3.org/1999/xlink" width="375" height="345.09202" viewBox="0,0,375,345.09202"><g transform="translate(-132.5,-7.45399)"><g stroke-miterlimit="10"><path d="M258.96552,114.79173c2.1126,-2.1126 4.22522,0 4.22522,0l1.73682,1.74351c15.99409,17.91966 32.20451,35.62416 47.62124,54.11652c0,0 1.91266,2.29518 -0.38252,4.20787c-2.29518,1.91266 -4.20787,-0.38252 -4.20787,-0.38252c-15.36615,-18.447 -31.52607,-36.10362 -47.48736,-53.96135l-1.50553,-1.49881c0,0 -2.1126,-2.1126 0,-4.22522z" fill="#00ff2b" stroke="none" stroke-width="0.5"/><path d="M319.79628,135.35125c2.89845,-0.72467 3.62312,2.17381 3.62312,2.17381l0.61137,2.5563c0.93237,8.53768 -0.74094,16.38818 -1.3403,24.86027c0,0 -0.21284,2.98008 -3.19292,2.76726c-2.98008,-0.21284 -2.76726,-3.19292 -2.76726,-3.19292c0.58255,-8.0847 2.28239,-15.64092 1.36166,-23.77477l-0.46947,-1.76682c0,0 -0.72467,-2.89845 2.17381,-3.62312z" fill="#00ff2b" stroke="none" stroke-width="0.5"/><path d="M375.68499,120.20676c2.64185,1.39532 1.24653,4.03714 1.24653,4.03714l-2.8158,5.32779c-11.14009,18.05062 -26.99383,30.60584 -41.75516,45.37553c0,0 -2.1126,2.1126 -4.22522,0c-2.1126,-2.1126 0,-4.22522 0,-4.22522c14.36652,-14.35875 29.96347,-26.55622 40.79294,-44.116l2.71958,-5.15272c0,0 1.39532,-2.64185 4.03714,-1.24653z" fill="#00ff2b" stroke="none" stroke-width="0.5"/><path d="M358.36373,180.94046c0,2.98768 -2.98768,2.98768 -2.98768,2.98768l-0.29224,-0.01033c-0.88208,0.0735 -1.76414,0.14702 -2.64622,0.22051c-0.24535,0.04049 -0.46452,0.0516 -0.62985,0.05175c-0.11944,0.00595 -0.54232,0.01539 -1.04368,-0.10858l-1.22782,-0.15796c-5.03161,-0.28553 -10.06941,-0.26954 -15.05127,0.51025c0,0 -2.95292,0.45429 -3.40724,-2.49863c-0.45429,-2.95292 2.49863,-3.40724 2.49863,-3.40724c5.40963,-0.81951 10.82949,-0.86793 16.2913,-0.57053l1.94352,0.23708c0.92546,-0.07713 1.8509,-0.15424 2.77637,-0.23137l0.78846,-0.01033c0,0 2.98768,0 2.98768,2.98768z" fill="#00ff2b" stroke="none" stroke-width="0.5"/><path d="M378.02344,240.60457c-2.11262,2.1126 -4.22522,-0.00002 -4.22522,-0.00002l-3.61041,-3.61045c-6.82871,-6.83062 -14.05628,-13.24743 -20.33067,-20.61471c-7.16323,-8.41093 -13.88907,-18.04368 -23.55576,-23.67713c0,0 -2.57519,-1.51482 -1.06036,-4.08999c1.51482,-2.57519 4.08999,-1.06036 4.08999,-1.06036c10.29083,6.10311 17.41756,15.95138 25.07928,24.95791c6.16272,7.24442 13.28862,13.54689 20.00272,20.25906l3.61043,3.61048c0,0 2.1126,2.11262 -0.00002,4.22522z" fill="#00ff2b" stroke="none" stroke-width="0.5"/><path d="M252.53066,244.6648c-2.39014,-1.79261 -0.59754,-4.18275 -0.59754,-4.18275l2.05459,-2.62669c14.37049,-12.44533 28.17851,-25.21358 41.75633,-38.52426c3.70895,-3.63596 7.39505,-6.46505 10.47908,-10.70062c0,0 1.76679,-2.40929 4.17608,-0.64247c2.40929,1.76679 0.64247,4.17608 0.64247,4.17608c-14.06938,19.06528 -35.26098,34.7003 -53.1405,50.20677l-1.18776,1.6964c0,0 -1.79261,2.39014 -4.18275,0.59754z" fill="#00ff2b" stroke="none" stroke-width="0.5"/><path d="M276.46368,184.45301c0,-2.98768 2.98768,-2.98768 2.98768,-2.98768l2.30706,0.02622c3.70723,-0.48099 7.26469,-0.03779 10.89109,-0.77962c1.71457,-0.35075 3.36052,-1.37698 5.04874,-1.7569c-0.14401,-0.27707 -0.28799,-0.55411 -0.43199,-0.83117c0,0 -1.2363,-2.71989 1.48356,-3.95619c2.71989,-1.2363 3.95619,1.48356 3.95619,1.48356c0.18923,0.57786 0.37843,1.15573 0.56766,1.73357l1.99113,0.72405c1.18142,0.39853 2.03212,1.51573 2.03212,2.8316c0,1.4686 -1.0596,2.6897 -2.45601,2.94052l-3.99864,0.79974l-0.11066,-0.55332c-5.83701,2.03714 -11.13111,2.31731 -18.18344,3.28709l-3.09681,0.02622c0,0 -2.98768,0 -2.98768,-2.98768z" fill="#00ff2b" stroke="none" stroke-width="0.5"/><path d="M317.81901,219.86404c-2.98768,0 -2.98768,-2.98768 -2.98768,-2.98768v-0.27021c0.00344,-6.93184 0.27021,-13.8629 0.27021,-20.80499c0,0 0,-2.98768 2.98768,-2.98768c2.98768,0 2.98768,2.98768 2.98768,2.98768c0,6.94114 -0.27384,13.87446 -0.27021,20.80499v0.27021c0,0 0,2.98768 -2.98768,2.98768z" fill="#00ff2b" stroke="none" stroke-width="0.5"/><path d="M316.57592,180.80914c0.00251,-0.0044 0.00504,-0.0088 0.00755,-0.01317c-0.54596,-0.68069 -1.09191,-1.36135 -1.63787,-2.04204c0,0 -1.86639,-2.33299 0.4666,-4.19936c2.33299,-1.86639 4.19936,0.4666 4.19936,0.4666c0.67643,0.84795 1.35284,1.69588 2.02928,2.54383l0.46672,0.46672c0.72068,-0.25204 1.65011,-0.25008 2.67935,0.55043c2.35835,1.83424 0.52411,4.19257 0.52411,4.19257c-0.63045,0.81059 -1.2609,1.62116 -1.89132,2.43175l-5.73201,-0.32097c0,0 -2.59404,-1.48229 -1.11175,-4.07632z" fill="#00ff2b" stroke="none" stroke-width="0.5"/><path d="M132.5,352.54601v-345.09202h375v345.09202z" fill="none" stroke="#000000" stroke-width="0"/></g></g></svg>