<svg version="1.1" xmlns="http://www.w3.org/2000/svg" xmlns:xlink="http://www.w3.org/1999/xlink" width="375" height="345.09202" viewBox="0,0,375,345.09202"><g transform="translate(-132.5,-7.45399)"><g stroke-miterlimit="10"><path d="M363.06923,112.64268c2.81097,2.34247 0.46851,5.15344 0.46851,5.15344l-1.51485,1.80684c-11.35616,15.46943 -19.848,33.28944 -30.56069,49.30948c-1.37821,2.76481 -3.02115,5.40864 -4.53717,8.11297c1.22865,0.1372 2.42584,0.53653 3.6597,0.63305c1.43927,0.11258 2.88729,-0.01188 4.33095,-0.01247c1.2372,-0.0005 2.47812,0.10556 3.71157,0.00919c1.51953,-0.1187 3.0085,-0.50682 4.52567,-0.6526c3.03813,-0.29196 10.90747,-0.62672 13.52723,-0.30209c1.57863,0.1956 3.03066,0.96775 4.54191,1.46418c2.27093,0.74595 4.56287,1.52445 6.93365,1.82929c2.6296,0.33813 5.33979,0.40247 7.9835,0.30203c1.48774,-0.05653 2.96512,-0.33312 4.45395,-0.33362c1.32437,-0.00041 2.63493,0.32718 3.95927,0.33092c1.76115,0.00498 7.08999,-0.77291 8.43409,-0.95835c2.92517,-0.40361 5.85777,-0.76811 8.80035,-1.01449c0,0 3.64641,-0.30388 3.95029,3.34253c0.30388,3.64641 -3.34253,3.95029 -3.34253,3.95029c-5.92764,0.49157 -11.88947,1.98297 -17.8422,1.99814c-1.3321,0.0034 -2.65047,-0.33052 -3.9826,-0.33095c-1.38757,-0.00047 -2.76308,0.27818 -4.14978,0.32826c-3.04255,0.10989 -6.19747,0.03952 -9.22392,-0.35982c-3.97127,-0.52404 -4.43033,-0.83538 -8.28829,-2.14166c-1.13659,-0.38484 -2.20823,-1.04274 -3.39996,-1.18313c-1.80292,-0.2124 -9.53989,0.15681 -11.62204,0.35979c-1.58818,0.15479 -3.14872,0.55035 -4.73985,0.67098c-1.40607,0.10661 -2.82019,0.00972 -4.23031,0.00919c-1.64485,-0.00059 -3.29438,0.1117 -4.93454,-0.01247c-1.33807,-0.10131 -2.63294,-0.55984 -3.97095,-0.66179c-0.02064,-0.00158 -0.04127,-0.0031 -0.06191,-0.0046c2.88372,4.79925 5.27972,9.96601 7.93298,14.8966c9.66052,20.51942 21.51618,40.26298 32.37418,60.12076l1.54518,2.46014c0,0 1.9393,3.10288 -1.16358,5.04218c-3.10288,1.9393 -5.04218,-1.16358 -5.04218,-1.16358l-1.76396,-2.83445c-10.86119,-19.95698 -22.79451,-39.73046 -32.48451,-60.33106c-2.22359,-4.1268 -4.2508,-8.4307 -6.56499,-12.52322c-0.0339,0.06826 -0.06736,0.13673 -0.10035,0.20546c-1.39703,2.91103 -2.53063,5.95161 -4.06708,8.79151c-0.04669,0.08632 -4.08029,6.80649 -4.12709,6.8768c-0.81869,1.22903 -1.82315,2.33026 -2.60882,3.58063c-0.91866,1.46198 -1.53297,3.10551 -2.49387,4.5401c-2.73293,4.08008 -6.03042,7.75816 -8.8336,11.7903c-1.0551,1.51769 -1.93602,3.15217 -2.99984,4.66377c-1.02732,1.45973 -2.27655,2.75784 -3.26798,4.24219c-1.99146,2.98152 -4.41715,7.76191 -6.08638,10.91599c0,0 -1.71203,3.23381 -4.94584,1.52182c-3.23381,-1.71203 -1.52182,-4.94584 -1.52182,-4.94584c1.92018,-3.62577 4.21986,-8.17731 6.48827,-11.586c1.01564,-1.52618 2.29531,-2.86223 3.35026,-4.36154c1.04918,-1.49108 1.91535,-3.10507 2.9566,-4.60172c1.42112,-2.04263 2.93342,-4.02048 4.42687,-6.01086c1.41529,-1.88626 2.98793,-3.65838 4.29898,-5.61852c0.94448,-1.41204 1.54462,-3.03131 2.44861,-4.46961c0.81091,-1.29015 1.84001,-2.43181 2.68578,-3.69939c1.37203,-2.0563 2.63622,-4.18669 3.81478,-6.35967c1.4724,-2.71476 2.53815,-5.63178 3.87479,-8.41594c0.38821,-0.80862 0.8482,-1.58098 1.29498,-2.35983c-24.45894,1.52006 -47.74077,4.05192 -72.34095,0.26925l-3.80416,-1.10451c0,0 -3.50473,-1.05141 -2.45332,-4.55617c1.05141,-3.50473 4.55617,-2.45332 4.55617,-2.45332l2.81408,0.88095c23.35303,3.59463 45.49274,1.31354 68.64417,-0.19882c-1.55803,-2.4756 -3.11406,-4.95337 -4.73458,-7.38468c-0.84975,-1.2749 -1.87944,-2.42601 -2.6995,-3.72023c-0.80382,-1.26858 -1.4895,-2.60993 -2.16236,-3.95257c-1.35628,-2.70641 -2.64968,-5.60725 -3.53901,-8.51518c-0.3799,-1.24221 -0.48867,-2.56269 -0.9301,-3.78437c-0.40475,-1.12023 -1.06607,-2.13039 -1.59298,-3.19863c-1.07907,-2.18773 -2.14994,-4.37948 -3.22489,-6.56923c-4.29986,-8.75896 -8.59972,-17.51795 -12.8996,-26.2769c0,0 -1.61244,-3.2846 1.67216,-4.89707c3.2846,-1.61244 4.89707,1.67216 4.89707,1.67216c4.29986,8.75896 8.59972,17.51795 12.8996,26.2769c1.07497,2.18975 2.15378,4.37761 3.22489,6.56923c0.636,1.30134 1.39878,2.54937 1.89653,3.90963c0.49131,1.34273 0.64095,2.78908 1.05533,4.15751c0.7497,2.47578 1.9376,5.07932 3.07923,7.36861c1.21607,2.43851 2.89191,4.62016 4.40366,6.88728c1.68647,2.52914 3.3214,5.09229 4.98194,7.63853c0.24188,0.37088 0.47664,0.7463 0.70787,1.12394c1.73586,-3.20375 3.68268,-6.30441 5.31286,-9.55534c10.81107,-16.26037 19.49509,-34.27498 30.98886,-49.96399l1.79425,-2.16411c0,0 2.34247,-2.81097 5.15344,-0.46851z" fill="#00ff2b" stroke="none" stroke-width="0.5"/><path d="M132.5,352.54601v-345.09202h375v345.09202z" fill="none" stroke="#000000" stroke-width="0"/></g></g></svg>