<svg version="1.1" xmlns="http://www.w3.org/2000/svg" xmlns:xlink="http://www.w3.org/1999/xlink" width="375" height="345.09202" viewBox="0,0,375,345.09202"><g transform="translate(-132.5,-7.45399)"><g stroke-miterlimit="10"><path d="M277.4113,195.34742c-0.36094,-0.49656 -0.77285,-1.10715 -1.33916,-1.83481c0,0 -1.54485,-1.98625 0.4414,-3.53112c1.39271,-1.08322 2.5684,-0.43037 3.14671,0.05653c0.4572,-0.63115 1.20026,-1.04171 2.03919,-1.04171c1.38973,0 2.51631,1.12658 2.51631,2.51631c0,1.04022 -0.63119,1.93301 -1.53144,2.31627c1.63971,2.37719 3.01943,5.24896 1.09719,6.66662c-1.73492,1.27953 -4.28438,-0.48241 -6.42659,-0.72363l0.04829,-4.38564c0,0 0.0025,-0.01369 0.00811,-0.03883z" fill="#00ff2b" stroke="none" stroke-width="0.5"/><path d="M289.85581,173.03082c0.60228,-0.44434 1.55439,-0.78815 2.75232,-0.02583c2.12292,1.35093 0.77198,3.47385 0.77198,3.47385c-1.72437,2.14852 -3.90044,7.0116 -7.92347,2.32076c-1.33109,-1.55204 -2.69205,-4.78759 -1.07509,-6.039c1.4013,-1.08451 3.74551,-0.73567 5.47428,0.27021z" fill="#00ff2b" stroke="none" stroke-width="0.5"/><path d="M300.97177,158.63356c2.1577,1.29463 0.86307,3.45235 0.86307,3.45235c-0.34864,0.53952 -0.6973,1.07903 -1.04594,1.61855l-0.19335,2.70696c-0.08181,1.31585 -1.17493,2.35776 -2.51139,2.35776c-0.63502,0 -1.21511,-0.23522 -1.65786,-0.62332l-3.40362,-2.94982l2.57229,-4.43021c-1.17938,-0.20855 -2.07519,-1.23855 -2.07519,-2.47778c0,-1.38973 1.12658,-2.51631 2.51631,-2.51631c1.38973,0 2.51631,1.12658 2.51631,2.51631c0,0.07676 -0.00344,0.15271 -0.01017,0.22774c0.58827,-0.33588 1.41316,-0.49207 2.42956,0.11776z" fill="#00ff2b" stroke="none" stroke-width="0.5"/><path d="M298.07107,148.27516c0,-0.43528 0.07531,-0.79527 0.19986,-1.093c-0.69776,-0.28187 -1.84302,-1.01961 -1.52466,-2.77061c0.45012,-2.47572 2.92584,-2.02559 2.92584,-2.02559c1.40108,0.54123 3.49453,0.29944 4.20326,1.6237c0.79403,1.48361 -0.43691,3.33701 -0.65537,5.0055l-2.63262,1.77631c0,0 -2.51631,0 -2.51631,-2.51631zM298.68658,147.31831c-0.00272,-0.00066 -0.00548,-0.00137 -0.00829,-0.00207l-0.26836,0.21892c0.09852,-0.07704 0.19072,-0.14935 0.27665,-0.21685z" fill="#00ff2b" stroke="none" stroke-width="0.5"/><path d="M319.0445,140.55094c-0.00493,0.07209 -0.01129,0.14454 -0.01906,0.21723c0.03219,0.25624 0.02732,0.54374 -0.02641,0.86613c-0.1082,0.64917 -0.35788,1.10025 -0.66765,1.41247c-0.52989,1.00403 -1.3247,1.8025 -2.29986,2.01943c-1.58221,0.35196 -3.34574,-1.19096 -4.11825,-2.8483c-2.83678,-1.33839 -5.16288,-3.48859 0.34147,-6.07571c0.50135,-1.12938 1.23973,-2.11358 2.20684,-2.7464c1.68669,-1.10363 3.81528,1.30204 5.72293,1.95304l1.35196,2.68585c0,0 0,2.50006 -2.49199,2.51623z" fill="#00ff2b" stroke="none" stroke-width="0.5"/><path d="M330.34834,146.15363c0.14281,-0.18586 0.32468,-0.36958 0.55337,-0.54743c1.98625,-1.54487 3.53112,0.44138 3.53112,0.44138c4.16495,6.1566 -1.71626,14.65199 -8.34361,8.07588c-2.40531,-2.38671 -3.51975,-7.60331 0.97653,-9.42939c1.12668,-0.45759 2.20006,0.63425 3.28261,1.45954z" fill="#00ff2b" stroke="none" stroke-width="0.5"/><path d="M344.27821,154.1712c-3.07382,-4.51341 2.47494,-8.90523 6.24364,-7.29139c6.46081,2.76665 1.58151,14.90847 -5.82968,8.02919c-0.22498,-0.20883 -0.35267,-0.45914 -0.41396,-0.73778z" fill="#00ff2b" stroke="none" stroke-width="0.5"/><path d="M349.15191,168.72409c2.30763,1.00332 1.30431,3.31096 1.30431,3.31096c-0.2163,0.40984 -0.39452,0.85548 -0.55886,1.31418c1.91121,1.39403 0.57249,3.40209 0.57249,3.40209l-4.59166,1.92175c-0.02381,-0.0214 -0.04803,-0.04252 -0.07263,-0.06341c-2.0343,0.72359 -3.19128,-0.08843 -3.90559,-1.41622c-0.22158,-0.04145 -0.45793,-0.11559 -0.70934,-0.22987c-2.29077,-1.04125 -1.2495,-3.33201 -1.2495,-3.33201l0.62241,-1.36933c-0.03326,-0.1515 -0.06711,-0.29348 -0.10242,-0.42395l0.47774,-0.40176l0.14009,-0.30818c0,0 0.02436,-0.05359 0.07382,-0.14063l-0.2031,-0.16247l1.806,-2.25751c0.46071,-0.5861 1.1761,-0.96254 1.97943,-0.96254c0.91048,0 1.70803,0.48357 2.14981,1.20789c0.53322,-0.3419 1.28106,-0.51761 2.26699,-0.08896z" fill="#00ff2b" stroke="none" stroke-width="0.5"/><path d="M318.45054,176.38178c0.0643,0.02144 0.12628,0.04401 0.18603,0.06768c1.10065,-1.01196 2.63014,-1.68015 3.89112,-1.54159c2.26808,0.24924 4.50244,3.38278 3.94366,5.59504c-0.08644,0.34224 -0.24338,0.62799 -0.45451,0.8703c0.01616,3.54787 -6.05091,4.5237 -7.84208,4.08948c-1.38272,-0.33519 -2.04866,-1.9749 -3.07297,-2.96236l0.16587,-4.52714c0,0 0.79574,-2.38717 3.18291,-1.59145z" fill="#00ff2b" stroke="none" stroke-width="0.5"/><path d="M299.94622,183.40721c0.23615,-0.4223 0.65025,-0.81502 1.35059,-1.07764c2.35609,-0.88353 3.23963,1.47256 3.23963,1.47256c0.47091,1.75658 1.87751,3.51154 1.41274,5.26977c-1.7874,6.76182 -18.63802,4.49394 -10.31631,-5.01007c0.81587,-0.93178 2.39611,-0.62775 3.59415,-0.94162zM299.49816,188.53741c-0.2618,-0.12668 -0.42055,-0.24575 -0.42055,-0.24575l1.04964,-0.22001c-0.64226,-0.01427 -2.51609,-0.05457 -1.91869,0.18174c0.53919,0.2133 0.96284,0.29713 1.2896,0.28402z" fill="#00ff2b" stroke="none" stroke-width="0.5"/><path d="M301.24532,208.58944c-1.04403,1.99936 -2.59562,3.47007 -4.67286,1.22635c-0.73319,-0.22876 -1.68729,-0.82412 -1.68729,-2.37356c0,-0.0368 0.00054,-0.07305 0.00159,-0.10878c-0.07007,-0.12958 -0.14063,-0.26319 -0.21165,-0.40094c-1.02607,-1.98994 0.83568,-5.04759 2.81194,-6.09977c1.75485,-0.93429 4.78322,-0.19545 5.76353,1.53412c1.02088,1.80111 -0.98283,4.02231 -1.47425,6.03346z" fill="#00ff2b" stroke="none" stroke-width="0.5"/><path d="M318.35059,208.12491c-0.30133,1.55423 0.43423,3.81677 -0.904,4.6627c-5.8213,3.67971 -6.47983,-2.44217 -7.52056,-5.21888l0.83717,-0.83169l-0.40384,-0.28269l2.86583,-4.09403c0.45281,-0.66525 1.2162,-1.10214 2.08163,-1.10214c1.38973,0 2.51631,1.12658 2.51631,2.51631c0,0.05949 -0.00207,0.11849 -0.00612,0.17693l-0.14595,2.37865c0.67954,0.74354 0.67954,1.79485 0.67954,1.79485z" fill="#00ff2b" stroke="none" stroke-width="0.5"/><path d="M326.53056,216.91825c-0.23311,-0.01631 -0.46252,-0.04376 -0.685,-0.08133c0,0 -2.11261,-1.36698 -0.74563,-3.47961c1.36698,-2.11261 3.47961,-0.74563 3.47961,-0.74563c1.67234,1.51576 5.23013,2.30033 5.01699,4.54729c-0.22792,2.40279 -3.43917,4.24887 -5.85271,4.26311c-1.59681,0.00942 -1.51749,-2.81011 -2.27623,-4.21518z" fill="#00ff2b" stroke="none" stroke-width="0.5"/><path d="M344.3104,207.39665c1.90176,1.26786 0.92445,3.1115 0.72929,3.43887c0.05165,0.61978 0.10329,1.23955 0.15494,1.85933c0,0 0.20897,2.50761 -2.29866,2.71658c-2.50761,0.20897 -2.71658,-2.29866 -2.71658,-2.29866c-0.07585,-0.91026 -0.1517,-1.82054 -0.22757,-2.7308l0.86907,-2.28746c0,0 1.39583,-2.09369 3.48949,-0.69786z" fill="#00ff2b" stroke="none" stroke-width="0.5"/><path d="M349.78107,190.8817c2.22389,1.17735 1.04654,3.40122 1.04654,3.40122l-0.07845,0.14818c0.51073,0.57183 0.66851,1.13862 0.65092,1.64116c0.05351,0.05894 0.10703,0.11786 0.16054,0.17681l-0.26689,0.43272c-0.2163,0.69458 -0.68317,1.16145 -0.68317,1.16145l-0.06226,0.04715l-1.83205,2.97039c0,0 -1.6109,1.93309 -3.54399,0.32219c-0.70654,-0.58878 -0.93965,-1.22061 -0.951,-1.78535c-0.2808,-0.2504 -0.53082,-0.60687 -0.71318,-1.10834c-0.58771,-1.61619 0.33082,-2.52949 0.97125,-2.94575c-0.1141,-0.55713 -0.02466,-1.22967 0.54513,-1.96226c0.33145,-0.42614 0.68319,-0.68973 1.03128,-0.84093l0.32404,-0.61207c0,0 1.17735,-2.22389 3.40122,-1.04654z" fill="#00ff2b" stroke="none" stroke-width="0.5"/><path d="M359.738,179.21844c0.36895,0.00324 0.62672,0.06768 0.62672,0.06768c1.40827,0.58139 3.58835,0.35991 4.22482,1.74416c1.10524,2.40374 -0.7246,11.15867 -4.95954,11.17599c-7.8021,0.03189 -5.92908,-14.00415 -0.55455,-13.2122c0.24513,0.03611 0.46441,0.11341 0.66253,0.22435z" fill="#00ff2b" stroke="none" stroke-width="0.5"/><path d="M372.82285,167.39019c-2.04761,1.46258 -3.51017,-0.58503 -3.51017,-0.58503l-0.00034,-0.00048l-0.34459,0.07952c0,0 -2.12525,0.49044 -2.87507,-1.42053c-2.54723,-1.11889 -3.60238,-8.11173 3.59731,-7.04685c1.21014,0.17898 1.65029,1.56544 2.14792,2.86177c1.16131,0.22315 2.03869,1.24463 2.03869,2.47103c0,0.28156 -0.04624,0.55232 -0.13155,0.8051c0.26115,0.72528 0.38743,1.90003 -0.92218,2.83548z" fill="#00ff2b" stroke="none" stroke-width="0.5"/><path d="M394.95015,157.02093c-0.49098,-0.18973 -0.97228,-0.5871 -1.31222,-1.35196c-1.02196,-2.29942 1.27746,-3.3214 1.27746,-3.3214c1.87876,-0.66116 3.69088,-2.41056 5.63625,-1.98349c10.88178,2.38894 -0.49316,20.64062 -5.4745,7.5738c-0.11323,-0.29704 -0.14454,-0.60403 -0.12698,-0.91694z" fill="#00ff2b" stroke="none" stroke-width="0.5"/><path d="M372.71803,118.17391c-0.0127,-0.46678 0.07827,-0.9755 0.25026,-1.48363c-0.02975,-0.20217 -0.03887,-0.42459 -0.02257,-0.66926c0.12326,-1.8489 1.51727,-2.24549 2.24364,-2.32611c0.58326,-0.3789 1.2198,-0.57148 1.85124,-0.46842c0.39671,0.06476 0.73255,0.22029 1.02245,0.44432c0.7683,0.00298 1.49493,0.10389 2.0674,0.56732c0.34773,0.2815 0.73031,0.69502 1.10331,1.19291c0.3333,0.2375 0.63944,0.60347 0.86921,1.15492c0.07843,0.18822 0.13524,0.36756 0.17344,0.53819c1.49773,2.99253 1.73522,6.84852 -4.31305,6.18226c-0.39403,0.256 -0.8642,0.4047 -1.36909,0.4047c-1.35669,0 -2.46262,-1.07368 -2.51441,-2.41769c-0.79656,-0.91273 -1.33229,-2.034 -1.36185,-3.11956z" fill="#00ff2b" stroke="none" stroke-width="0.5"/><path d="M335.7377,110.74585c0,0 -2.29467,-1.03261 -1.26208,-3.32728c1.03261,-2.29467 3.32728,-1.26208 3.32728,-1.26208c4.99418,2.34383 12.75278,9.19489 5.17477,15.11235c-8.48813,6.62815 -9.93963,-4.23565 -6.67415,-9.26279c0.01089,-0.32368 0.08292,-0.63183 0.20487,-0.91334c-0.28615,-0.13596 -0.54819,-0.25227 -0.77071,-0.34689zM339.27406,117.80103l-0.28112,-0.08107c-0.11424,0.23245 -0.13077,0.35182 0.06683,0.22415c0.07386,-0.04773 0.14526,-0.09542 0.21427,-0.14307z" fill="#00ff2b" stroke="none" stroke-width="0.5"/><path d="M308.75104,85.54413c1.97101,1.56426 0.40676,3.53527 0.40676,3.53527l-0.17163,0.16805c2.20827,2.74849 4.03207,7.58234 0.3491,9.21961c-0.70972,0.3155 -1.33662,0.45595 -1.89059,0.45491c-0.66885,0.28774 -1.45318,0.44863 -2.35087,0.43927c-6.67743,-0.06965 -7.92864,-10.72084 -0.88113,-11.98748l1.00312,-1.42286c0,0 1.56426,-1.97101 3.53527,-0.40676z" fill="#00ff2b" stroke="none" stroke-width="0.5"/><path d="M282.08292,104.05066c9.28048,3.73901 1.00153,16.69835 -4.75691,11.15879c-3.76599,-0.73885 -4.93403,-3.65327 -4.35045,-6.39621c-0.28837,-0.2596 -0.54195,-0.63171 -0.71781,-1.15927c-0.79574,-2.38717 1.59145,-3.18291 1.59145,-3.18291c2.15197,-0.51983 4.36197,-2.27822 6.45592,-1.55951c0.72937,0.25034 1.31736,0.64379 1.7778,1.13912z" fill="#00ff2b" stroke="none" stroke-width="0.5"/><path d="M270.71897,156.5969c-1.84393,-0.56736 -1.83914,-2.11346 -1.73653,-2.80401c-0.94955,0.23941 -1.78394,0.10492 -2.27985,-0.5933c-0.53748,-0.75678 -0.94885,-1.47741 -1.24956,-2.15931c-0.89246,-0.38669 -1.51681,-1.27543 -1.51681,-2.30999c0,-0.86972 0.44122,-1.63636 1.11205,-2.08833c1.53114,-4.45135 9.51047,-4.81204 10.70052,1.14905c0.40647,2.03605 -1.02951,4.02283 -1.54429,6.03422l-0.34051,1.10663c0,0 -0.74002,2.40503 -3.14504,1.66503z" fill="#00ff2b" stroke="none" stroke-width="0.5"/><path d="M247.14567,172.35671c-0.0002,-0.63141 0.15569,-1.20537 0.42866,-1.7153c0.11436,-0.53287 0.44704,-1.08876 1.19887,-1.53986c0.25596,-0.15358 0.49978,-0.25858 0.73074,-0.32436c3.6548,-2.02653 9.94877,-0.65265 6.74376,6.16843c-0.56234,1.19682 -2.1818,1.43683 -3.39484,2.04471c-0.37541,0.91763 -1.27716,1.5641 -2.3299,1.5641c-1.16936,0 -2.15243,-0.79765 -2.43478,-1.87851l-0.89496,-3.13244l0.12702,-0.0363c-0.11086,-0.37038 -0.17445,-0.75254 -0.17457,-1.1505z" fill="#00ff2b" stroke="none" stroke-width="0.5"/><path d="M260.6621,204.58569c-0.59651,-0.29825 -0.95585,-0.67554 -1.16187,-1.06905c-1.2466,0.05198 -2.47403,0.03839 -3.53956,-0.52889c-1.31559,-0.7004 -1.4314,-2.61466 -2.14709,-3.922c0,0 -1.05447,-2.28471 1.23023,-3.33918c2.28471,-1.05447 3.33918,1.23023 3.33918,1.23023c0.12006,0.41032 0.222,0.83062 0.34568,1.24189l0.12704,-0.6352c0.21123,-1.1761 1.23969,-2.06852 2.47659,-2.06852c1.092,0 2.02152,0.69559 2.36968,1.66783l1.11674,2.90354l-0.78064,3.39401c0,0 -1.12533,2.25065 -3.37598,1.12531z" fill="#00ff2b" stroke="none" stroke-width="0.5"/><path d="M280.15943,229.51597c-0.03849,0.08706 -0.07897,0.17361 -0.12129,0.25966l0.91191,0.37996l-1.11541,2.67697c-0.36577,0.93784 -1.27788,1.60232 -2.34518,1.60232c-1.38973,0 -2.51631,-1.12658 -2.51631,-2.51631v-0.46932c-2.15301,0.86032 -4.0363,0.18182 -2.0372,-5.83389c1.27561,-3.83856 7.58383,-3.33274 9.45564,-0.88508c0.90257,1.18023 -0.28428,2.95793 -0.42642,4.43689z" fill="#00ff2b" stroke="none" stroke-width="0.5"/><path d="M251.39181,246.31725c1.49461,-0.37366 2.30292,0.39653 2.70505,1.04998c0.33173,-0.69221 1.05633,-1.54578 2.58485,-1.32742c2.49102,0.35585 2.13518,2.84687 2.13518,2.84687c-0.73118,3.78022 -5.57298,11.84836 -9.83502,4.21669c-0.7126,-1.27599 0.58865,-2.86307 0.883,-4.29461l-0.30393,0.55997c0,0 -0.61029,-2.44118 1.83086,-3.05147z" fill="#00ff2b" stroke="none" stroke-width="0.5"/><path d="M305.33337,232.35406c-0.22292,-0.73796 -0.28879,-1.92041 1.07136,-2.78595c2.1229,-1.35095 3.47385,0.77194 3.47385,0.77194c0.65267,1.15917 1.89552,2.1487 1.95803,3.47754c0.34427,7.31732 -8.2272,7.46848 -10.38061,1.4812c-0.45241,-1.25789 0.26608,-2.66026 0.39915,-3.9904z" fill="#00ff2b" stroke="none" stroke-width="0.5"/><path d="M335.74835,249.96467c1.27353,4.3791 -2.87922,8.87207 -7.46737,5.55601c-0.11664,-0.08431 -0.22148,-0.17687 -0.31583,-0.27675c-0.47351,-0.17914 -0.94114,-0.55323 -1.29652,-1.26399c-0.6265,-1.253 -0.20662,-2.15722 0.28871,-2.71264c-0.04596,-0.41904 -0.10846,-0.8265 -0.21471,-1.2034l1.19716,-0.61533l-0.46467,-0.52277l2.04004,-1.81337c0.44545,-0.39965 1.03424,-0.64275 1.67981,-0.64275c1.15955,0 2.1359,0.7843 2.42751,1.85136c0.9535,0.36346 1.86786,0.75638 2.1259,1.64363z" fill="#00ff2b" stroke="none" stroke-width="0.5"/><path d="M363.87523,242.83981c1.45785,-0.38101 2.50922,0.93321 2.50922,0.93321c0.78986,1.24616 2.48704,2.26778 2.36956,3.73849c-0.44533,5.57461 -9.91228,8.64935 -12.11195,2.68609c-1.71441,-4.6477 3.83431,-9.11678 7.23317,-7.35776z" fill="#00ff2b" stroke="none" stroke-width="0.5"/><path d="M370.92821,215.23677c-0.05773,-0.01866 -0.11537,-0.03619 -0.1729,-0.05252l-0.10063,-1.1393l-0.46228,0.13208l-0.8943,-3.13004c-0.07329,-0.23605 -0.11279,-0.487 -0.11279,-0.74716c0,-1.38973 1.12658,-2.51631 2.51631,-2.51631c0.47021,0 0.9103,0.12898 1.2868,0.35347l1.65972,0.94841c0.41831,-0.64349 1.24662,-1.3955 2.73339,-0.98251c2.42451,0.67346 1.75103,3.09798 1.75103,3.09798c-0.33447,0.78018 -0.49058,1.7319 -0.68919,2.64277c1.3154,4.90261 -5.99539,3.1111 -7.40386,2.98003z" fill="#00ff2b" stroke="none" stroke-width="0.5"/><path d="M405.89948,235.24691c0.47341,0.2934 0.89277,0.80717 1.0496,1.69595c0.43729,2.47802 -2.04072,2.91531 -2.04072,2.91531c-1.91958,0.0864 -4.16678,1.33529 -5.75872,0.2592c-2.4105,-1.6294 -1.90722,-7.5646 0.5402,-9.00695c1.64275,-0.96813 3.78531,-0.46375 5.67796,-0.69561z" fill="#00ff2b" stroke="none" stroke-width="0.5"/><path d="M403.57079,188.94636c1.08183,0.81955 0.89395,2.32251 0.89395,2.32251c-0.40519,1.71668 0.15931,4.04511 -1.21558,5.15003c-3.68059,2.95791 -9.02933,0.27218 -8.56972,-4.5092c0.05415,-0.56331 6.66171,-10.7306 8.89132,-2.96334z" fill="#00ff2b" stroke="none" stroke-width="0.5"/><path d="M132.5,352.54601v-345.09202h375v345.09202z" fill="none" stroke="#000000" stroke-width="0"/></g></g></svg>