<svg version="1.1" xmlns="http://www.w3.org/2000/svg" xmlns:xlink="http://www.w3.org/1999/xlink" width="375" height="345.09202" viewBox="0,0,375,345.09202"><g transform="translate(-132.5,-7.45399)"><g stroke-miterlimit="10"><path d="M292.90978,162.40204c-0.91983,0.52166 -2.60959,0.64866 -2.67587,1.70404c-0.04159,0.66223 2.4674,4.53805 2.86981,5.34312c1.59123,3.18355 2.40073,5.32933 2.31859,8.92305c-1.39461,2.01736 -2.81822,4.00557 -4.21477,6.02027c-0.34422,0.49658 -0.81054,0.9181 -1.06764,1.4649c-0.26832,0.57065 -0.88341,1.34365 -0.4814,1.82947c0.47403,0.57286 1.49669,0.07266 2.21486,0.26532c0.99057,0.26572 2.00439,0.55526 2.87356,1.09969c1.54073,0.96511 2.69437,2.90409 3.6945,4.32845c0.36861,0.52497 0.73547,1.05335 1.10235,1.58269c0.15391,-0.1142 0.30839,-0.22756 0.46373,-0.33967c0.62082,-0.44806 1.31533,-0.79254 1.91367,-1.27021c2.24367,-1.79117 4.47456,-4.10391 6.18823,-6.39638c0.56368,-0.75406 0.97398,-1.61315 1.51418,-2.38421c0.4995,-0.71296 1.06762,-1.3753 1.60145,-2.06295c0,0 1.33599,-1.71765 3.05365,-0.38168c1.71765,1.33597 0.3817,3.05363 0.3817,3.05363c-0.49309,0.63267 -1.01959,1.2407 -1.47932,1.89802c-0.55669,0.79595 -0.98267,1.68077 -1.56657,2.45696c-1.9694,2.61795 -4.45264,5.19321 -7.01497,7.24694c-0.64079,0.5136 -1.38171,0.88945 -2.0473,1.37046c-0.17034,0.12309 -0.3398,0.24748 -0.50874,0.37264c0.18328,0.25408 0.36747,0.50704 0.55284,0.75862c0.42969,0.5832 2.9516,3.57162 3.27898,4.28933c0.45695,1.0018 0.76771,2.08979 0.87305,3.18585c0.09232,0.96063 -0.01694,1.94245 -0.22016,2.88858c1.29508,-1.08367 2.56701,-2.19837 3.80665,-3.38672c1.11139,-1.06541 4.60305,-4.85218 5.92818,-5.18698c0.27991,-0.07071 0.96845,0.09408 1.78931,0.35174c0.11813,-4.61395 0.19618,-9.22746 0.19618,-13.8405v-1.10026c0,0 0,-2.17605 2.17605,-2.17605c2.17605,0 2.17605,2.17605 2.17605,2.17605v1.10026c0,5.12158 -0.09738,10.24388 -0.23926,15.36677c3.86787,1.22877 6.84271,2.13431 9.27154,4.31384c0.6301,-3.34895 1.55903,-6.67206 3.59091,-8.98901c-0.58327,-0.76214 -1.14206,-1.54355 -1.75115,-2.28512c-0.92898,-1.13103 -1.96536,-2.17221 -2.87464,-3.31913c-0.76797,-0.96869 -1.40143,-2.03804 -2.15146,-3.02066c-0.42588,-0.55796 -0.75069,-1.27179 -1.3729,-1.59667c-0.40711,-0.21256 -0.91187,0.11042 -1.3678,0.16564c0,0 -2.17605,0 -2.17605,-2.17605c0,-2.17605 2.17605,-2.17605 2.17605,-2.17605c1.01108,0.0552 2.12397,-0.27991 3.03328,0.16564c2.29746,1.12573 3.79549,4.07634 5.2778,5.94522c0.89345,1.12646 1.91338,2.14759 2.82601,3.25854c0.6805,0.82836 1.30105,1.70427 1.95838,2.55119c3.36956,-1.39085 8.06193,-1.8533 11.41462,-2.90092c-1.14013,-3.22265 -2.57852,-6.49855 -3.41875,-9.81814c-5.6928,0.5272 -11.39435,0.64827 -16.84793,-0.8746c0,0 -2.09234,-0.59781 -1.49451,-2.69014c0.59782,-2.09234 2.69014,-1.4945 2.69014,-1.4945c4.76368,1.39851 9.86903,1.32755 14.97621,0.84762c-0.04968,-0.9344 -0.02371,-1.87186 0.0973,-2.81219c0.46735,-3.63169 2.45544,-7.05755 3.85933,-10.55865c-0.49174,-0.02702 -0.98182,-0.11782 -1.473,-0.16235c-0.84217,-0.07632 -1.69133,-0.09799 -2.52614,-0.23273c-2.6658,-0.43028 -4.16786,-0.57465 -6.15363,-2.11544c-3.43491,3.58629 -6.73643,7.29401 -9.54779,11.51148c0,0 -1.20705,1.8106 -3.01763,0.60353c-1.81058,-1.20707 -0.60355,-3.01763 -0.60355,-3.01763c3.0671,-4.60025 6.69448,-8.60445 10.44671,-12.49958c-0.48824,-0.74188 -0.95544,-1.498 -1.35309,-2.29057c-0.41279,-0.82276 -0.62505,-1.73177 -0.95398,-2.59151c-0.28881,-0.75486 -0.63374,-1.48844 -0.89908,-2.25188c-0.31765,-0.91396 -0.50194,-1.87259 -0.84833,-2.77603c-0.24885,-0.64906 -0.74169,-1.19709 -0.93139,-1.86584c-0.07082,-0.24967 0.37198,-0.93838 0.18775,-0.7556c-0.31306,0.31064 -0.29288,0.86737 -0.60964,1.17422c-0.63459,0.61469 -1.44767,1.01314 -2.17149,1.5197c-1.55879,1.16906 -3.15079,2.28754 -4.72083,3.43938c1.43346,3.59357 -0.32409,9.56751 -1.00043,12.91639l-0.20968,2.09681c-0.05142,0.58635 -0.33539,1.10599 -0.75913,1.46616l0.48427,-0.06918c0,0 2.15419,-0.30775 2.46193,1.84642c0.30775,2.15417 -1.84642,2.46192 -1.84642,2.46192l-1.08907,0.1556c-0.38102,0.3281 -0.87695,0.52645 -1.41922,0.52645c-0.35005,0 -0.68079,-0.08266 -0.97378,-0.2295c-0.63859,-0.02815 -1.83701,-0.29361 -2.0606,-1.85884c-0.30775,-2.15417 1.84642,-2.46193 1.84642,-2.46193l0.29932,-0.04277c-0.75882,-0.33988 -1.28742,-1.10167 -1.28742,-1.98695v-1.07655c-0.77638,-0.3324 -1.32032,-1.10335 -1.32032,-2.00134c0,-0.96961 0.63417,-1.79114 1.51039,-2.07235c0.01548,-0.14144 0.02663,-0.28266 0.03121,-0.42349c0.03725,-1.14887 -0.00115,-2.29896 -0.0012,-3.44843c-0.00009,-1.74711 -0.09719,-3.49253 -0.17065,-5.23844c-1.94936,-0.91816 -5.10824,-1.68942 -6.30053,-2.2639c-2.03696,-0.98145 -3.90415,-2.2891 -5.92917,-3.29493c-0.93205,-0.46294 -2.31602,-2.22565 -2.82918,-1.32027c-0.92313,1.6287 -1.3306,6.26085 -2.11037,8.44836c0,0 -0.06864,0.19221 -0.22276,0.43787c0.10798,0.11345 0.21828,0.22464 0.33177,0.33273c0.74242,0.70713 1.62542,1.254 2.3826,1.9453c0.92817,0.84739 1.75587,1.79949 2.66713,2.66502c0.56536,0.53698 1.19042,1.00831 1.76043,1.54037c0.53865,0.50281 1.0306,1.05382 1.56368,1.56251c1.05103,1.0029 2.34559,1.78814 3.18804,2.97167c1.04968,1.4747 2.77046,3.10225 2.39597,4.87321c-0.29029,1.37279 -2.53768,1.19817 -3.80651,1.79726c0,0 -2.1338,0.42677 -2.56055,-1.70704c-0.21351,-1.06757 0.21391,-1.70784 0.69439,-2.08116c-1.08851,-0.76813 -1.96517,-1.80193 -2.93125,-2.72012c-1.08315,-1.02946 -2.19421,-2.02928 -3.27748,-3.05861c-0.89371,-0.8492 -1.70375,-1.78497 -2.61414,-2.61626c-0.78256,-0.71458 -1.69111,-1.28486 -2.45854,-2.01567c-0.02604,-0.02481 -0.05193,-0.04975 -0.07766,-0.07484c-2.17952,0.95546 -4.28115,2.06657 -6.35421,3.24223zM301.10619,211.9245c0.16129,-1.07163 0.84948,-2.00112 1.13513,-3.04649c0.15326,-0.56092 0.21877,-1.15641 0.17166,-1.73599c-0.1749,-2.1521 -2.144,-3.67882 -3.32976,-5.28793c-0.19161,-0.26003 -0.3822,-0.52156 -0.57188,-0.78421c-0.00959,0.00609 -0.01918,0.01219 -0.02879,0.01826c-2.00662,1.26949 -2.35364,1.27727 -4.22234,2.73457c-0.31837,0.24826 -0.63182,0.50258 -0.94223,0.76064c0.64096,0.69937 1.21133,1.48163 1.69414,2.3625c1.91138,3.4872 2.15931,7.72636 3.29078,11.48302c0,0 0.62528,2.08428 -1.459,2.70957c-2.08428,0.62528 -2.70957,-1.45898 -2.70957,-1.45898c-1.01195,-3.38547 -1.21709,-7.37203 -2.8707,-10.52231c-0.34216,-0.65184 -0.76204,-1.23645 -1.24467,-1.76346c-0.81478,0.66532 -1.66783,1.28826 -2.42592,2.01718c-1.01251,0.97355 -1.85294,2.11641 -2.86783,3.08749c-0.78669,0.75271 -1.6858,1.37838 -2.52481,2.0723c-0.6474,0.53543 -1.29634,1.06155 -1.94788,1.58103c1.02739,1.70517 2.07352,3.57759 3.60034,5.52749c0,0 1.33597,1.71767 -0.38171,3.05363c-1.71767,1.33597 -3.05365,-0.38171 -3.05365,-0.38171c-1.50038,-1.94033 -2.43737,-3.89921 -3.43856,-5.65194c-0.6228,0.47462 -1.24942,0.94751 -1.8807,1.42093c-3.05633,2.40059 -5.69405,4.76594 -8.28974,7.65154l-1.39906,1.40331c0,0 -1.5387,1.53871 -3.07739,0c-1.5387,-1.53871 0,-3.07739 0,-3.07739l1.24159,-1.23732c2.77184,-3.0783 5.61467,-5.63023 8.87441,-8.19228c0.64585,-0.48444 1.28636,-0.96817 1.92274,-1.45373c-1.05742,-0.96524 -2.39946,-1.73066 -4.27144,-2.20836l-2.23275,-0.66955c0,0 -2.08429,-0.62528 -1.459,-2.70957c0.62528,-2.08429 2.70957,-1.459 2.70957,-1.459l2.16831,0.65076c3.07372,0.84863 4.98525,2.15199 6.45097,3.77093c0.56565,-0.45239 1.12965,-0.90999 1.6929,-1.37471c0.76846,-0.63401 1.59764,-1.19878 2.31637,-1.88867c1.00863,-0.96819 1.84425,-2.10656 2.85357,-3.07401c0.2264,-0.21701 0.92735,-0.80213 1.74796,-1.47684c-3.52599,-1.71537 -7.91202,-2.4166 -11.06166,-3.46144l-1.83925,-1.13402c0,0 -1.81058,-1.20705 -0.60353,-3.01763c1.20707,-1.81058 3.01763,-0.60353 3.01763,-0.60353l0.8014,0.62642c4.13605,1.38599 9.21433,2.33121 13.22972,4.68503c0.56429,-0.48756 1.09476,-1.0155 1.68388,-1.47261c2.13579,-1.65723 2.32013,-1.57179 4.43078,-2.89319c-0.37694,-0.54427 -0.75321,-1.0878 -1.13017,-1.62809c-0.24394,-0.34963 -1.74699,-2.73129 -2.46698,-3.15334c-1.8035,-1.05718 -5.21354,-0.64112 -6.35439,-2.59598c-0.9497,-1.62732 -0.38937,-3.80062 -0.04129,-5.65236c0.18169,-0.96652 1.03892,-1.67025 1.57301,-2.49602c1.13611,-1.75656 2.33336,-3.40721 3.70716,-4.98241c-0.28015,-4.16004 -6.10071,-9.45168 -5.37417,-13.46056c0.62693,-3.45914 6.18424,-6.11292 10.09071,-7.75434c-1.188,-1.02833 -2.75058,-2.28177 -3.42074,-2.86492c-1.52548,-1.32741 -2.88184,-2.84041 -4.39806,-4.17841c-0.88249,-0.77877 -1.85527,-1.45279 -2.76439,-2.19962c-0.24951,0.09378 -0.49826,0.17299 -0.74539,0.23635c-3.44384,0.88292 -7.37934,0.41991 -10.92165,1.13285l-1.52348,0.73491c0,0 -1.98851,0.88377 -2.87227,-1.10474c-0.88377,-1.98851 1.10472,-2.87227 1.10472,-2.87227l2.43749,-1.02551c2.84024,-0.5648 5.77155,-0.47882 8.62487,-0.77654c-2.03506,-1.97499 -4.06488,-3.9545 -6.17496,-5.85357c-0.16007,-0.16005 -0.32052,-0.31965 -0.48127,-0.47885c-2.22904,0.71256 -4.66737,1.12768 -6.50111,1.49244l-2.30604,0.2332c0,0 -2.16526,0.21653 -2.38177,-1.94873c-0.21651,-2.16524 1.94873,-2.38179 1.94873,-2.38179l2.09503,-0.20688c1.11168,-0.22366 2.44991,-0.30529 3.76361,-0.47093c-2.33706,-2.24917 -4.66483,-4.50161 -6.82842,-6.93395l-1.01256,-1.00725c0,0 -1.5387,-1.53871 0,-3.07741c1.5387,-1.5387 3.07741,0 3.07741,0l1.18797,1.19328c2.53298,2.85167 5.30403,5.44576 8.04154,8.08682c0.52425,-0.8344 0.59791,-2.04509 1.04656,-2.75387l1.30008,-3.68357c0.28451,-0.87058 1.10322,-1.49954 2.06885,-1.49954c1.20181,0 2.17605,0.97425 2.17605,2.17605c0,0.08306 -0.00467,0.16501 -0.01372,0.24565l-0.21714,2.17141c0,0 -0.12252,1.22519 -1.10486,1.74018l-0.10866,0.3079l-0.37898,-0.13375c-0.0126,0.00268 -0.02529,0.00526 -0.03809,0.00775c0.3423,1.89907 -0.37684,3.30805 -1.66252,4.37717c2.33705,2.13662 4.58839,4.35949 6.86501,6.55821c1.35391,-1.34034 2.63137,-3.14849 3.26617,-3.80926c0.56485,-0.58797 1.18252,-1.11632 1.8346,-1.60433l-0.09479,-0.10071l3.16569,-2.97947c0.38984,-0.36868 0.91596,-0.59476 1.4949,-0.59476c1.20181,0 2.17605,0.97425 2.17605,2.17605c0,0.14775 -0.01473,0.29203 -0.04277,0.4315l-0.43243,2.37836c0,0 -0.38927,2.14096 -2.53021,1.75171c-0.24302,-0.04418 -0.45344,-0.11093 -0.63551,-0.19456l-0.21294,0.20041l-0.25817,-0.2743c-0.98154,1.96618 -2.55268,4.03646 -4.33759,5.6475c0.59586,0.45453 1.19671,0.90357 1.75789,1.39868c1.51835,1.33958 2.8757,2.85552 4.40407,4.18363c0.82655,0.71824 2.03492,1.68035 3.12413,2.60834c0.6853,-2.95872 1.40998,-7.64094 3.17037,-8.87438c3.15568,-2.21108 7.96523,1.2978 10.49665,2.70374c1.73762,0.96507 4.59783,1.80611 7.16788,2.86423c0.00933,-0.63685 0.00129,-1.27297 -0.0517,-1.90742c-0.20648,-2.472 -0.52819,-2.99649 -0.86447,-5.35245c-0.13969,-0.97863 -0.26447,-1.96277 -0.37766,-2.94932c-3.84244,-0.8656 -7.53964,-4.31396 -10.55746,-6.32586l-1.50633,-1.23918c0,0 -1.67168,-1.39307 -0.27859,-3.06477c1.39307,-1.67168 3.06477,-0.2786 3.06477,-0.2786l1.13428,0.96136c1.96586,1.31058 4.94316,4.2167 7.68718,5.34071c-0.02037,-0.23599 -0.04035,-0.47186 -0.06001,-0.70755c-0.26539,-3.1812 -0.55886,-6.3813 -0.66657,-9.57181c-0.02587,-0.76653 -0.0438,-1.5338 -0.05562,-2.3016c-1.54723,-0.33135 -3.15077,-1.17883 -5.04693,-2.6519c0,0 -1.71767,-1.33596 -0.38171,-3.05365c1.33597,-1.71767 3.05363,-0.38171 3.05363,-0.38171c0.93356,0.72699 1.68834,1.23696 2.36239,1.55635c0.01823,-2.69923 0.06774,-5.39966 0.06974,-8.09189c0.14705,-1.47954 0.2941,-2.9591 0.44116,-4.43864l-0.00371,-1.18539c0,0 0.01104,-2.17604 2.18707,-2.16498c2.17604,0.01104 2.16498,2.18706 2.16498,2.18706l-0.01783,1.59639c-0.14165,1.40747 -0.28332,2.81492 -0.42496,4.22238c0.00197,2.4893 -0.04086,4.98549 -0.06083,7.48106c0.59236,-0.29314 1.25999,-0.65905 2.04311,-1.08688l1.89907,-1.26862c0,0 1.81058,-1.20705 3.01765,0.60353c1.20707,1.8106 -0.60353,3.01765 -0.60353,3.01765l-2.06191,1.37205c-1.60617,0.87491 -2.99796,1.54745 -4.28951,1.96473c0.01121,0.82709 0.02952,1.65361 0.05743,2.47926c0.07353,2.17635 0.28214,4.34605 0.43573,6.5182c0.09643,1.36339 0.20121,2.73018 0.32185,4.09631c2.99171,-0.57136 6.298,-1.88084 9.19355,-2.14665c0,0 2.16712,-0.19701 2.36413,1.97009c0.06573,0.72306 -0.13171,1.22681 -0.42403,1.5771c-0.35074,0.73121 -1.09798,1.23609 -1.96313,1.23609c-0.36413,0 -0.70737,-0.08944 -1.00896,-0.24755c-2.47953,0.4595 -5.20548,1.44789 -7.71677,1.93919c0.09702,0.81231 0.20249,1.62285 0.31802,2.43077c0.26992,1.88773 0.73789,3.74984 0.89594,5.65022c0.05301,0.63739 0.06328,1.27639 0.05628,1.91613c1.1097,-0.80124 2.22184,-1.59874 3.31789,-2.42076c1.13863,-0.79722 4.92683,-3.60955 6.02098,-3.46762c1.69647,0.22008 3.53379,3.88406 4.09753,5.3005c0.38006,0.95494 0.57423,1.97471 0.91213,2.94535c0.25375,0.72889 0.58773,1.42753 0.86133,2.14919c0.28242,0.74487 0.45137,1.53657 0.80646,2.24967c0.16759,0.33657 0.35498,0.66234 0.55268,0.98232c1.91963,-1.96217 3.84056,-3.93079 5.70613,-5.96918c-0.1859,-0.86821 -0.02025,-1.92826 -0.04524,-2.81425c-0.06392,-2.26553 0.50833,-4.52006 0.43565,-6.78535c-0.00595,-0.18545 -0.02072,-0.37043 -0.04253,-0.55505c-2.15988,-0.01074 -2.15988,-2.176 -2.15988,-2.176c0,-1.32032 0,-2.64065 0,-3.96097v-2.64063c0,-1.20181 0.97425,-2.17605 2.17605,-2.17605c0.89805,0 1.66905,0.54403 2.00141,1.3205l1.07986,2.37569l-0.46393,0.21087c1.21244,2.03034 1.64929,4.08558 1.75736,7.42079c0.04702,1.45099 0.08408,2.90615 0.00042,4.35545c2.36203,-2.79715 4.68066,-5.6381 7.06013,-8.42411c-1.07065,-0.95285 -1.91724,-2.09571 -2.31316,-3.635c-0.40858,-1.5885 -0.05028,-3.28001 -0.07541,-4.92002v-1.58934c0,0 0,-2.17605 2.17605,-2.17605c2.17605,0 2.17605,2.17605 2.17605,2.17605v1.58934c-0.04354,2.18472 0.45857,3.67788 1.29174,4.8401c1.23361,-1.36498 2.49442,-2.70487 3.79565,-4.00718l1.46595,-1.23325c0,0 1.6717,-1.39307 3.06477,0.2786c1.39307,1.67168 -0.2786,3.06477 -0.2786,3.06477l-1.1747,0.96728c-1.23156,1.23046 -2.42548,2.49599 -3.59367,3.78531c1.75045,1.17688 3.7182,2.40952 5.3552,4.61882c0,0 1.27992,1.75985 -0.47993,3.03975c-1.75985,1.2799 -3.03975,-0.47993 -3.03975,-0.47993c-1.1887,-1.67391 -2.97468,-2.77668 -4.76021,-3.85294c-2.52924,2.94986 -4.9806,5.97057 -7.48651,8.93674c3.32966,-0.02848 6.55196,0.73563 9.84581,2.21787l0.44787,0.13669c0,0 2.06438,0.68816 1.37622,2.75253c-0.68816,2.06438 -2.75253,1.37622 -2.75253,1.37622l-0.87248,-0.30345c-3.70951,-1.70608 -6.99878,-1.66209 -10.98242,-2.00549c-0.21438,-0.01849 -0.4361,-0.02409 -0.66185,-0.02322c-0.13643,0.15225 -0.27321,0.30419 -0.4103,0.45579c-2.25745,2.49602 -4.61043,4.87735 -6.95066,7.26184c1.73334,1.078 4.08967,0.97365 6.02908,1.16654c0.18207,0.0181 0.36634,0.0273 0.55138,0.03362c0.78705,-0.95123 2.13446,-0.65179 2.13446,-0.65179l1.93181,1.6503c0.64201,0.29002 1.20386,0.67042 1.52453,1.26434c0.01208,0.02239 0.02355,0.04488 0.03445,0.06748l0.12874,0.10997c-0.01121,0.0446 -0.02261,0.08918 -0.03422,0.13377c0.32138,1.07218 -0.45542,2.3516 -0.60407,3.51044c-0.27061,2.10962 -0.44207,4.21874 -1.18229,6.23772c-0.44186,1.20515 -1.0796,2.32914 -1.6194,3.4937c0,0 -0.47025,1.00767 -1.45876,1.24618c-0.00111,0.09696 -0.00115,0.19405 -0.00007,0.29128c3.16635,-0.39018 6.29628,-0.8233 9.30757,-1.0428c0.67625,-0.04928 1.3554,-0.09094 2.0371,-0.12576c0.15191,-2.17229 0.55301,-4.40064 1.23831,-6.7443l0.88186,-1.60584c0,0 1.11959,-1.86594 2.98553,-0.74635c1.86594,1.11959 0.74635,2.98551 0.74635,2.98551l-0.43848,0.59471c-0.55416,1.87228 -0.89509,3.65039 -1.04912,5.37884c2.6677,-0.03729 5.36052,0.00091 8.05557,0.06674c-0.1088,-0.93243 -0.19285,-1.87447 -0.26194,-2.82382l0.54624,-2.16348c0,0 0.68812,-2.06438 2.75252,-1.37626c2.0644,0.68814 1.37626,2.75252 1.37626,2.75252l-0.33398,0.47715c0.0762,1.08918 0.1686,2.17873 0.30247,3.25773c3.61357,0.10976 7.20879,0.2226 10.73021,0.2226h0.66016c0,0 2.17605,0 2.17605,2.17605c0,2.17605 -2.17605,2.17605 -2.17605,2.17605h-0.66016c-3.24333,0 -6.54924,-0.09839 -9.87399,-0.20152c0.52192,1.81319 1.28069,3.54644 2.41444,5.13961c0,0 1.24789,1.78269 -0.5348,3.03058c-1.78267,1.24789 -3.03058,-0.53479 -3.03058,-0.53479c-1.67316,-2.42242 -2.69472,-5.03386 -3.34174,-7.76889c-2.94497,-0.07816 -5.88927,-0.12713 -8.80274,-0.08229c0.28496,3.27076 1.19601,6.49712 2.53738,10.00964c0,0 0.77467,2.0335 -1.25884,2.80817c-2.0335,0.77466 -2.80815,-1.25882 -2.80815,-1.25882c-1.50969,-3.97213 -2.51021,-7.66819 -2.80937,-11.41354c-0.59445,0.03198 -1.18692,0.06934 -1.77717,0.11267c-2.94336,0.21607 -5.94627,0.59178 -8.96981,0.93971c1.13111,4.37726 3.50017,8.82297 4.49775,12.79961c0,0 0.52777,2.11108 -1.58331,2.63886c-1.38566,0.34641 -2.0892,-0.44407 -2.40908,-1.02823c-2.91288,0.90653 -6.59565,1.35474 -9.66925,2.31677c0.76588,0.70946 1.57665,1.37311 2.31476,2.11155c0.74405,0.74438 1.35411,1.61775 2.11819,2.34161c0.49381,0.46782 1.10449,0.79504 1.63806,1.21695c0.86736,0.68586 1.76116,1.3445 2.5648,2.10396c0.38448,-0.2876 0.79832,-0.54821 1.24469,-0.77821c2.3825,-1.22764 5.25651,-1.44894 7.84492,-1.96672c0,0 2.13379,-0.42677 2.56055,1.70704c0.42677,2.13379 -1.70704,2.56055 -1.70704,2.56055c-2.14669,0.42926 -4.59048,0.58661 -6.60296,1.51864c0.2919,0.16293 0.58078,0.33041 0.84997,0.52587c2.19252,1.59202 4.19775,3.47154 6.3906,5.0678c0.44734,0.32564 0.92289,0.61225 1.39334,0.90548c1.60058,-0.99268 3.5447,-1.83285 5.93923,-2.55354c0,0 2.08428,-0.62528 2.70957,1.45902c0.62528,2.08428 -1.45902,2.70955 -1.45902,2.70955c-1.44997,0.43343 -2.68065,0.90158 -3.73334,1.42034c0.06594,0.06519 0.13251,0.12973 0.19985,0.19341c0.64178,0.60686 1.32031,1.17362 1.98047,1.76043c1.36905,1.36888 2.70247,2.77442 3.99603,4.21482l1.66546,1.45214c0,0 1.63765,1.43294 0.20471,3.0706c-1.43294,1.63766 -3.07059,0.20471 -3.07059,0.20471l-1.85541,-1.62859c-1.27487,-1.4136 -2.57996,-2.80109 -3.9259,-4.14721c-0.66014,-0.58682 -1.33987,-1.15233 -1.98047,-1.76043c-0.2624,-0.24908 -0.51017,-0.51386 -0.75643,-0.78014c-2.1952,2.43116 -2.93682,5.75716 -3.98501,10.65554l-0.54743,1.45245c0,0 -0.80815,2.02042 -2.82857,1.21227c-2.02042,-0.80813 -1.21227,-2.82857 -1.21227,-2.82857l0.33276,-0.74807c1.16165,-5.41291 2.327,-9.40786 4.86687,-12.40947c-0.17059,-0.10964 -0.33884,-0.22258 -0.50269,-0.34164c-2.18864,-1.59022 -4.18819,-3.4636 -6.37249,-5.05466c-0.39505,-0.28776 -0.82401,-0.5281 -1.24886,-0.77354c-1.4638,3.10436 -1.89076,7.43425 -2.65325,9.97823l-0.76562,1.13345c0,0 -1.5387,1.53871 -3.07741,0c-1.18254,-1.18254 -0.54744,-2.36509 -0.19008,-2.84917c0.99301,-3.51119 1.60756,-7.88576 3.47801,-11.24946c-0.05578,-0.05741 -0.11256,-0.11383 -0.17055,-0.16904c-1.27369,-1.21255 -2.86322,-2.0601 -4.1434,-3.26579c-0.82143,-0.77363 -1.48483,-1.70181 -2.28289,-2.49954c-1.00189,-1.00145 -2.13255,-1.87066 -3.11256,-2.89354c-1.73315,2.35935 -2.41199,6.75978 -2.94798,10.41476c0.13441,0.45036 0.2573,1.26444 -0.29067,1.94779c-0.15006,0.95689 -0.3024,1.80618 -0.47967,2.47866l-1.5443,2.13088c0,0 -1.30563,1.74084 -3.04647,0.43523c-1.74084,-1.30561 -0.43523,-3.04647 -0.43523,-3.04647l1.09633,-1.39003c0.11935,-0.51848 0.22777,-1.06177 0.33036,-1.62374c-2.03012,-3.66634 -4.70127,-4.37996 -8.44669,-5.51022c-0.12901,4.04398 -0.27606,8.08832 -0.41514,12.13292c3.21138,1.15884 6.31423,2.74837 9.0489,4.11239c0,0 1.94631,0.97315 0.97315,2.91948c-0.97317,1.94633 -2.91948,0.97317 -2.91948,0.97317c-0.70499,-0.35341 -1.48508,-0.7585 -2.3199,-1.18447c0.05465,0.52894 -0.09576,1.15204 -0.76259,1.74478c-1.6264,1.4457 -3.0721,-0.18072 -3.0721,-0.18072c-0.37822,-0.42555 -0.76634,-0.95106 -1.17202,-1.50858c-0.05847,1.94342 -0.11171,3.88692 -0.1568,5.83045c2.59967,0.99616 5.2701,2.4667 8.04443,3.39078c0,0 2.06438,0.68814 1.37626,2.75252c-0.68814,2.0644 -2.75252,1.37626 -2.75252,1.37626c-2.00322,-0.66822 -4.40236,-2.10123 -6.75513,-3.12027c-0.04096,2.55242 -0.06415,5.10493 -0.06304,7.6575c0,0 0,2.17605 -2.17605,2.17605c-2.17605,0 -2.17605,-2.17605 -2.17605,-2.17605c0.00124,-2.93226 0.03375,-5.86439 0.08784,-8.79636c-1.19692,-0.00719 -2.28858,0.35912 -3.19474,1.31287l-1.27959,1.04073c0,0 -1.69922,1.35935 -3.05859,-0.33985c-1.35937,-1.6992 0.33985,-3.05857 0.33985,-3.05857l0.92094,-0.71972c2.09782,-2.02589 4.21305,-2.66452 6.36603,-2.54461c0.07137,-2.87023 0.15883,-5.74034 0.25329,-8.61028c-0.44853,-0.10757 -0.89453,-0.19823 -1.33601,-0.26901c-2.8942,0.36056 -6.33165,3.7417 -8.21813,5.06294l-0.71484,0.38368c0,0 -1.94633,0.97317 -2.91948,-0.97317c-0.97315,-1.94633 0.97317,-2.91948 0.97317,-2.91948l0.16538,-0.05644c0.37526,-0.26254 0.75908,-0.53858 1.15056,-0.82178c-1.09264,-1.70317 0.59295,-2.90715 0.59295,-2.90715l1.99701,-1.34995c2.28258,-0.85629 4.69808,-0.97968 7.13683,-0.64731c0.44071,-0.03285 0.88243,-0.0281 1.32433,0.01992c0.14794,-4.27737 0.30085,-8.5544 0.42853,-12.83104c-0.27418,-0.07538 -0.55277,-0.0842 -0.83924,0.00961c-1.75057,0.57329 -2.424,2.78093 -3.75414,4.05526c-2.64812,2.53702 -5.43827,4.75979 -8.28697,7.03723c-0.10257,0.10664 -0.22281,0.20525 -0.36371,0.29086c-0.02655,0.02124 -0.05311,0.04248 -0.07966,0.06373l-0.48086,0.49966c0,0 -1.53871,1.5387 -3.07739,-0.00002c-1.53868,-1.53871 0.00002,-3.07741 0.00002,-3.07741l0.14129,-0.13812c-0.09839,-0.72012 -0.20368,-1.44051 -0.0966,-2.15201z" fill="#00ff2b" stroke="none" stroke-width="0.5"/><path d="M309.03554,180.99234c-1.38775,-0.13942 -2.95344,-0.70043 -3.9799,-1.00391c0,0 -0.89204,-0.26764 -1.33389,-1.03629c-0.90541,-0.08716 -1.80785,-0.3219 -2.71281,-0.42924c-1.28728,-0.15267 -2.58433,-0.23844 -3.86178,-0.45875c-0.85246,-0.14701 -1.65666,-0.53129 -2.51472,-0.64089c-1.66136,-0.21223 -3.36117,0.19959 -5.02459,0.0042c-1.0729,-0.12604 -2.10273,-0.50765 -3.17049,-0.67156c-0.89274,-0.13706 -1.81001,-0.075 -2.69987,-0.22967c-0.82986,-0.14423 -1.61099,-0.50504 -2.43828,-0.66337c-0.68363,-0.13084 -1.38823,-0.111 -2.07843,-0.20103c-0.89693,-0.117 -1.78019,-0.34006 -2.68065,-0.42282c-1.10845,3.19532 -3.14817,6.83091 -4.09582,8.86665c0,0 -0.92021,1.9719 -2.89213,1.0517c-1.9719,-0.92021 -1.05168,-2.89213 -1.05168,-2.89213c0.68253,-1.45869 2.45469,-4.55002 3.54286,-7.18989c-1.06635,-0.10671 -2.13166,-0.22998 -3.20176,-0.27829c-0.73874,-0.03334 -1.47993,0.03611 -2.21849,-0.00082c-0.73625,-0.0368 -1.46421,-0.18496 -2.20053,-0.22004c-1.64445,-0.07834 -3.29293,-0.08403 -4.93525,-0.19572c0.06222,2.11377 -0.48717,4.41958 -0.48216,6.38438c0,0 0,2.17605 -2.17605,2.17605c-2.17605,0 -2.17605,-2.17605 -2.17605,-2.17605c0.00649,-2.85402 0.01711,-4.72923 -0.30536,-6.36774c-3.35311,0.03247 -6.71161,0.03221 -10.03857,-0.26727l0.39517,-4.11532l-0.00117,-0.21891c0.00733,0.00068 0.01468,0.00134 0.022,0.002l0.00104,-0.01095c0,0 0.16921,0 0.41328,0.04718c2.42705,0.20272 4.87345,0.24179 7.32111,0.23256c-0.52297,-0.7987 -1.16997,-1.6803 -1.97023,-2.70919l-0.45838,-1.99612c0,0 0,-2.17605 2.17605,-2.17605c1.88485,0 2.13709,1.6326 2.17085,2.06957c1.22646,1.51083 2.64716,3.06188 3.68992,4.75757c0.42189,-0.0027 0.8434,-0.00418 1.26444,-0.00388c1.76504,0.13577 3.53791,0.13699 5.30618,0.22114c0.73634,0.03506 1.46429,0.18322 2.20053,0.22006c0.72661,0.03633 1.4558,-0.03409 2.18258,-0.00084c1.22733,0.05618 2.44839,0.21007 3.67198,0.32435c-0.9708,-1.96485 -4.57798,-4.18533 -5.94825,-5.21147l-1.66687,-1.86505c0,0 -1.41616,-1.65218 0.23602,-3.06834c1.65218,-1.41616 3.06834,0.23602 3.06834,0.23602l0.97378,1.2157c2.77013,2.08052 7.28196,5.12076 7.88012,8.85915c0.84704,0.10497 1.68392,0.29483 2.53082,0.40529c0.77177,0.10067 1.55797,0.09409 2.32265,0.23909c0.81583,0.15469 1.58483,0.51459 2.40288,0.65696c0.85054,0.14802 1.72817,0.07888 2.58141,0.21045c1.00826,0.15547 1.97845,0.52436 2.99103,0.64878c1.6866,0.20721 3.4112,-0.20265 5.09785,0.0042c0.94254,0.11557 1.83079,0.51811 2.76658,0.67942c1.19716,0.20636 2.41573,0.26182 3.62001,0.42148c0.94416,0.12518 1.87417,0.49875 2.82433,0.4329c0.76287,-0.05287 1.43872,-0.51884 2.15807,-0.77828c0,0 2.0644,-0.68814 2.75252,1.37626c0.20887,0.62656 0.16414,1.12636 0.00056,1.51862c0.02148,-0.0047 0.04288,-0.01104 0.0642,-0.01918c0.38069,-0.14562 0.52744,-0.62783 0.7267,-0.98338c0.81029,-1.44587 1.70122,-3.96839 2.89307,-5.13294c1.3619,-1.3307 4.05202,-2.0476 5.76997,-2.51256c1.05835,-0.28644 2.10853,-0.74562 3.20493,-0.73993c1.70249,0.00886 5.02181,1.13278 6.48748,2.1122c0.95893,0.64079 1.90225,1.37788 2.56579,2.3212c0.70297,0.99938 1.11503,2.19325 1.43844,3.37152c1.4246,5.19024 -2.26541,10.4269 -6.4113,13.13048c-0.8023,0.52318 -1.68688,0.90776 -2.53031,1.36163c-5.09156,0.55456 -12.02146,-0.83202 -14.14628,-6.41763c-0.2778,-0.73028 -0.36223,-1.48828 -0.3134,-2.25322zM316.44696,173.42332c-0.00792,0.54158 -0.19546,0.96356 -0.19546,0.96356l-0.92239,2.06986c-0.55059,1.09468 -2.48934,3.97948 -1.87341,5.34825c1.36855,3.04136 5.85459,3.94243 8.73931,3.70484c2.41265,-1.41475 4.58413,-3.06021 5.6647,-5.75632c0.49329,-1.23076 0.6994,-2.24814 0.35731,-3.51735c-0.17837,-0.66178 -0.37139,-1.34661 -0.76209,-1.90974c-0.34963,-0.50394 -0.87387,-0.87648 -1.39515,-1.19967c-0.59967,-0.37179 -1.26571,-0.63301 -1.93258,-0.86351c-0.69649,-0.24076 -1.40564,-0.55131 -2.14254,-0.54514c-0.71862,0.00601 -1.38665,0.37855 -2.07636,0.58041c-0.86642,0.25359 -1.74514,0.47248 -2.59175,0.7859c-0.28682,0.10617 -0.59533,0.19879 -0.86959,0.33891z" fill="#00ff2b" stroke="none" stroke-width="0.5"/><path d="M318.0284,179.22448c0,-1.20179 0.97425,-2.17605 2.17605,-2.17605c1.20181,0 2.17605,0.97426 2.17605,2.17605c0,1.20179 -0.97425,2.17605 -2.17605,2.17605c-1.20181,0 -2.17605,-0.97426 -2.17605,-2.17605z" fill="#00ff2b" stroke="none" stroke-width="0.5"/><path d="M132.5,352.54601v-345.09202h375v345.09202z" fill="none" stroke="#000000" stroke-width="0"/></g></g></svg>