<svg version="1.1" xmlns="http://www.w3.org/2000/svg" xmlns:xlink="http://www.w3.org/1999/xlink" width="375" height="345.09202" viewBox="0,0,375,345.09202"><g transform="translate(-132.5,-7.45399)"><g stroke-miterlimit="10"><path d="M304.17694,110.03853c1.12421,0.54648 0.57774,1.67069 0.57774,1.67069l-0.3708,0.73841c-4.0084,12.02335 -3.63937,25.63818 -1.16103,38.00037c0.36579,1.64926 0.73806,3.32778 1.36919,4.90196c0.49057,1.22357 1.07306,2.40824 1.60751,3.61329c0.25945,0.585 0.47753,1.19003 0.77691,1.75564c0.2862,0.54069 0.6508,1.03609 0.9753,1.5547c0.92665,1.4809 1.0364,1.76496 2.15321,3.13667c0.45601,0.56009 0.97144,1.07005 1.42682,1.63065c0.42093,0.51818 0.77326,1.09013 1.20022,1.60335c0.26504,0.31859 0.60172,0.57209 0.8714,0.88676c0.54097,0.63123 1.0096,1.32263 1.55772,1.94767c0.37763,0.43061 0.83105,0.7899 1.21537,1.21455c0.94613,1.04541 1.75216,2.21176 2.68148,3.27171c0.01608,-0.15319 0.02954,-0.30662 0.03861,-0.46042c0.0898,-1.5229 -0.00344,-3.09334 -0.00191,-4.61901c0.0005,-0.50514 -0.03231,-1.01154 0.00314,-1.51544c0.03371,-0.47925 0.17187,-0.94744 0.20383,-1.42681c0.03591,-0.53871 -0.0344,-1.08087 -0.00073,-1.61973c0.03416,-0.54672 0.17316,-1.08373 0.20383,-1.63066c0.03659,-0.65252 -0.00225,-1.3071 -0.00241,-1.96065c-0.00013,-0.5228 0.03066,-1.0464 0.00155,-1.56839c-0.10528,-1.88837 -0.54079,-3.75349 -0.40607,-5.65434c0.05769,-0.81404 0.44338,-2.90976 0.67287,-3.56905c0.28665,-0.82346 0.71764,-1.58935 1.07646,-2.38403c6.15185,-12.30223 16.81097,-22.22749 28.39067,-29.46592l0.72782,-0.55149c0,0 1,-0.75 1.75,0.25c0.75,1 -0.25,1.75 -0.25,1.75l-0.90283,0.67149c-11.17372,6.98247 -21.52076,16.54392 -27.45928,28.42238c-0.32061,0.7001 -0.70603,1.374 -0.96185,2.10028c-0.18843,0.53496 -0.25957,1.10468 -0.36343,1.66227c-0.18586,0.99786 -0.24762,1.555 -0.18513,2.56724c0.07371,1.19386 0.34211,2.89271 0.40767,4.07664c0.07019,1.2677 0.06892,2.5412 -0.00086,3.80892c-0.03011,0.54695 -0.16966,1.08394 -0.20383,1.63065c-0.03414,0.54613 0.03567,1.09562 -0.00073,1.64161c-0.03196,0.47937 -0.16905,0.94764 -0.20383,1.42681c-0.11541,1.59008 0.0251,3.19922 0.03237,4.79869c0.54113,-0.87649 1.07877,-1.7261 1.29671,-2.02779c0.21629,-0.29941 2.28352,-2.70809 2.59412,-3.06632c0.86991,-1.00332 1.77115,-1.98094 2.71084,-2.91922c1.61902,-1.61659 1.85856,-2.02411 3.8777,-3.27957c1.67188,-1.03955 3.48266,-1.64193 5.24503,-2.47399c1.49809,-0.70728 2.92588,-1.55551 4.40788,-2.29589c0.54749,-0.27352 2.51754,-1.1095 3.16744,-1.38805c8.72294,-3.73473 17.83375,-3.12367 27.15,-1.92535c3.98527,0.51261 8.81762,-0.02051 12.18555,2.26094l0.52346,1.42484c0,0 0,1.25 -1.25,1.25c-0.86807,0 -1.13331,-0.60284 -1.21435,-0.97122c-2.73835,-1.62958 -7.47713,-1.08906 -10.56354,-1.48497c-8.85559,-1.13596 -17.56031,-1.81085 -25.84633,1.74363c-0.56439,0.24186 -2.5662,1.09199 -3.04734,1.33277c-1.49901,0.75016 -2.94518,1.60548 -4.46091,2.32125c-1.66746,0.78742 -3.3975,1.35308 -4.97953,2.33078c-1.77463,1.09674 -1.98386,1.47682 -3.4273,2.92259c-0.89604,0.89748 -1.7584,1.82955 -2.5888,2.7881c-0.207,0.23895 -2.30576,2.68351 -2.46711,2.90697c-0.29764,0.41222 -1.43802,2.26015 -2.08213,3.33567c0.70489,-0.30653 1.38847,-0.67341 2.12897,-0.8743c0.76222,-0.20679 1.56673,-0.20103 2.35097,-0.29428c1.4495,-0.17235 2.90789,-0.25919 4.36213,-0.38542c0.74752,-0.06489 1.48967,-0.19277 2.23895,-0.23266c2.31234,-0.12311 4.62471,0.17514 6.91878,0.41246c0.71523,0.07399 1.441,0.07786 2.14594,0.21961c1.35359,0.27218 2.77242,0.78889 4.07666,1.28023c1.04477,0.3936 3.73653,1.42307 4.73872,1.89174c1.51103,0.70662 2.30702,1.26066 3.69879,2.13182c4.45936,3.56655 8.79578,7.6594 11.77385,12.62403c3.50317,5.84001 3.9868,13.80266 5.43771,20.33001l0.02976,1.49416c0,0 0,1.25 -1.25,1.25c-1.25,0 -1.25,-1.25 -1.25,-1.25l0.02976,-0.95183c-1.38781,-6.24684 -1.80657,-14.03094 -5.16156,-19.62104c-2.78998,-4.64869 -6.88177,-8.49602 -11.05534,-11.83581c-1.2192,-0.76072 -1.99545,-1.29295 -3.31966,-1.91032c-0.93687,-0.43678 -3.59544,-1.45178 -4.5494,-1.81177c-1.13683,-0.42899 -2.50828,-0.93378 -3.66896,-1.16573c-0.63408,-0.12671 -1.28739,-0.12293 -1.93071,-0.18808c-2.1647,-0.2192 -4.35201,-0.52353 -6.53413,-0.40287c-0.71954,0.03978 -1.43211,0.16388 -2.15004,0.22643c-1.43151,0.12471 -2.86626,0.21746 -4.29414,0.3785c-0.66751,0.07529 -1.35443,0.05086 -2.00223,0.2286c-0.51502,0.14131 -0.99617,0.37921 -1.48057,0.60892c-0.0675,0.06784 -0.14092,0.12407 -0.21485,0.17059c0.18135,0.07936 0.36029,0.16388 0.53534,0.25667c0.77105,0.40871 1.46547,0.94799 2.19464,1.42743c0.41231,0.2711 0.86654,0.49007 1.22974,0.82411c0.64695,0.595 1.18144,1.30179 1.78081,1.9447c0.8718,0.93514 1.49041,1.46191 2.28607,2.54494c0.39799,0.54173 0.7151,1.13846 1.0718,1.70824c0.99736,1.59314 1.38229,2.145 2.27645,3.93314c0.61235,1.2246 1.19201,2.74433 1.69696,4.01075c0.28514,0.71513 0.63239,1.40875 0.85291,2.14637c0.34275,1.14646 0.35992,2.36837 0.62988,3.53413c0.09695,0.41863 0.32181,0.80193 0.40766,1.22299c0.17826,0.87426 0.2546,1.76624 0.3819,2.64936c0.13163,3.31499 1.02559,6.6106 0.87345,9.91971c-0.24129,5.2482 -1.51463,9.93352 -2.89727,14.95524c-0.94085,3.41718 -1.73331,7.12351 -3.8763,10.00151l-0.08378,0.214c0,0 -0.55901,1.11803 -1.67705,0.55902c-1.11804,-0.55901 -0.55902,-1.67705 -0.55902,-1.67705l0.32389,-0.60133c1.95889,-2.5565 2.61829,-6.09691 3.46166,-9.15868c1.3354,-4.84811 2.55967,-9.33178 2.81003,-14.39659c0.15764,-3.18897 -0.74496,-6.39042 -0.86543,-9.59039c-0.1084,-0.7668 -0.1675,-1.5422 -0.3252,-2.30039c-0.08751,-0.42071 -0.31134,-0.80421 -0.40767,-1.22299c-0.25759,-1.11994 -0.26172,-2.29578 -0.59312,-3.39614c-0.20004,-0.66422 -0.51936,-1.28649 -0.77774,-1.93026c-0.48395,-1.20578 -1.03071,-2.65888 -1.61606,-3.8297c-0.86025,-1.72066 -1.19604,-2.17876 -2.15615,-3.71767c-0.32275,-0.51733 -0.60642,-1.06102 -0.96653,-1.55308c-0.68498,-0.93598 -1.32947,-1.48704 -2.09618,-2.3163c-0.53476,-0.57839 -1.00672,-1.21749 -1.58256,-1.755c-0.28346,-0.26459 -0.65135,-0.42095 -0.97588,-0.63317c-0.66453,-0.43456 -1.28922,-0.93631 -1.99128,-1.30719c-0.46622,-0.24629 -0.96395,-0.42478 -1.45819,-0.61144c-0.23913,0.05235 -0.46276,0.01163 -0.64547,-0.05647c0,0.59666 0,1.19333 0,1.78999c0.12887,0.1966 0.20382,0.43174 0.20382,0.68437c0,0.25263 -0.07495,0.48777 -0.20382,0.68437c0,0.41938 0,0.83877 0,1.25815c0,0.10658 0.00015,2.7625 -0.00048,2.78031c-0.02938,0.83587 -0.10959,1.66946 -0.13898,2.50533c-0.05257,1.49526 0.0605,2.9974 -0.06822,4.48804c-0.01432,0.1658 -0.54489,3.80172 -0.61872,4.34862c-0.07659,0.56734 -0.09866,1.14348 -0.21584,1.70385c-0.1759,0.84117 -0.44496,1.66015 -0.66151,2.49178c-0.41051,1.57655 -0.85772,3.14366 -1.3258,4.70409c-0.31651,1.05512 -0.53056,2.14323 -0.91549,3.17535c-0.56833,1.52387 -1.25736,3.00035 -1.84636,4.51634c-4.30228,11.14925 -13.89707,18.57984 -22.78719,25.98853l-0.71837,0.48744c0,0 -1.04007,0.69337 -1.73343,-0.34671c-0.69336,-1.04008 0.34671,-1.73344 0.34671,-1.73344l0.50463,-0.32785c8.52537,-7.10424 17.94889,-14.25389 22.05586,-24.96948c0.58099,-1.49469 1.25979,-2.95067 1.82261,-4.45229c0.37152,-0.99124 0.57121,-2.03876 0.87541,-3.05268c0.45979,-1.53249 0.89768,-3.07193 1.30228,-4.61991c0.20415,-0.78107 0.46085,-1.54933 0.62682,-2.33939c0.10753,-0.51189 0.12246,-1.03899 0.1918,-1.55744c0.04721,-0.35297 0.60279,-4.19536 0.60426,-4.21234c0.12647,-1.45474 0.01092,-2.9209 0.0621,-4.38022c0.0291,-0.82977 0.1089,-1.65723 0.1384,-2.48698c0.03211,-0.90308 -0.00048,-1.80729 -0.00048,-2.71094c0,-0.12225 0,-0.2445 0,-0.36675c-0.22849,0.29766 -0.58792,0.48956 -0.99216,0.48956c-0.33865,0 -0.64584,-0.13467 -0.87095,-0.35337c-0.1451,0.27393 -0.28704,0.54953 -0.42563,0.82682c-0.24759,0.49536 -0.39854,1.03677 -0.66273,1.52349c-0.26022,0.47938 -0.58493,0.92162 -0.90445,1.3637c-0.23972,0.33167 -0.55737,0.60627 -0.77145,0.95504c-0.32007,0.52145 -0.48987,1.12735 -0.82211,1.64114c-0.31424,0.48595 -0.73452,0.89447 -1.10501,1.33903c-0.37068,0.4448 -0.69374,0.9355 -1.11849,1.32901c-0.52605,0.48736 -1.15275,0.85368 -1.71625,1.29721c-0.4373,0.34421 -0.82784,0.74865 -1.2854,1.06544c-0.47226,0.32697 -1.00376,0.55942 -1.49396,0.85884c-0.14135,0.08634 -3.7339,2.39249 -4.00284,2.51436c-0.67989,0.30807 -1.42799,0.43532 -2.14198,0.65299c-0.7821,0.31232 -1.54729,0.67086 -2.3463,0.93694c-0.65556,0.21831 -1.34361,0.32461 -2.00832,0.51321c-1.31128,0.37205 -2.5742,0.91243 -3.89968,1.23021c-0.85966,0.2061 -1.73079,0.36853 -2.60649,0.48954c-0.67233,0.0929 -1.3575,0.06353 -2.03052,0.15122c-1.9155,0.24957 -2.3584,0.51513 -4.2471,0.81061c-2.4891,0.38942 -5.07396,0.21862 -7.58373,0.21862c-0.2052,0 -4.8556,0.0053 -5.03819,-0.01614c-0.48044,-0.05642 -0.91658,-0.31088 -1.38162,-0.44414c-0.79692,-0.22838 -1.60603,-0.41269 -2.40312,-0.64048c-3.42942,-0.98003 -6.77413,-2.23583 -10.20026,-3.22259c-1.02958,-0.25739 -2.05577,-0.52911 -3.07624,-0.82054l-0.97846,-1.05058c0,0 -0.55899,-1.11805 0.55906,-1.67704c0.92101,-0.46047 1.46264,0.21707 1.62495,0.47019c0.83679,0.23311 1.6773,0.45307 2.51998,0.66376c3.44064,0.99127 6.79975,2.25092 10.24374,3.23471c0.80545,0.23008 1.62392,0.41318 2.42805,0.64781c0.3607,0.10525 0.69091,0.32978 1.06437,0.37119c0.70826,0.07853 1.42514,-0.01366 2.13774,-0.01614c0.83333,-0.0029 1.66667,0 2.5,0c2.37052,0 4.84864,0.18598 7.20018,-0.18902c1.44545,-0.2305 2.86262,-0.62952 4.31388,-0.82006c0.67067,-0.08806 1.3533,-0.06022 2.0237,-0.15034c0.77567,-0.10426 1.54715,-0.24799 2.30788,-0.4319c0.48303,-0.11678 0.94156,-0.31846 1.4154,-0.46825c0.80821,-0.25549 1.61507,-0.51626 2.43054,-0.74752c0.63191,-0.1792 1.28717,-0.27558 1.91023,-0.48347c0.78213,-0.26096 1.53073,-0.61334 2.29609,-0.92c0.64488,-0.19001 1.32133,-0.29469 1.93466,-0.57002c0.58054,-0.26061 1.07517,-0.68103 1.61231,-1.02225c0.71045,-0.45131 1.41176,-0.9173 2.13047,-1.35534c0.44502,-0.27123 0.93119,-0.4752 1.35969,-0.77184c0.41505,-0.28733 0.76334,-0.66138 1.16057,-0.97288c0.50502,-0.39601 1.07259,-0.71443 1.54507,-1.14875c0.3551,-0.32641 0.61106,-0.74645 0.91983,-1.117c0.30896,-0.37078 0.67352,-0.7002 0.93331,-1.10695c0.32489,-0.50867 0.49165,-1.10647 0.80854,-1.62016c0.46972,-0.7614 1.16418,-1.37633 1.58541,-2.16559c0.2434,-0.45606 0.38073,-0.96265 0.61198,-1.42499c0.24336,-0.48654 0.4961,-0.96814 0.75754,-1.44484c-0.79677,0.21018 -1.60202,0.4075 -1.74929,0.42711c-0.52192,0.0695 -1.05303,0.00831 -1.57955,0.00937c-1.31309,0.00264 -1.82787,0.06137 -3.14082,-0.23727c-0.45551,-0.10361 -0.88769,-0.29137 -1.3311,-0.43836c-1.11367,-0.36917 -2.19751,-0.82291 -3.29597,-1.23513c-0.22859,-0.08578 -2.32771,-0.76293 -2.49439,-0.83419c-0.54414,-0.23264 -1.03189,-0.59001 -1.58599,-0.79784c-0.51121,-0.19175 -1.0744,-0.21389 -1.59003,-0.39343c-0.07637,-0.02659 -4.54614,-1.89057 -4.68529,-1.94856c-0.65723,-0.25152 -1.33428,-0.45638 -1.97169,-0.75456c-1.49152,-0.69773 -2.65941,-1.56691 -4.06426,-2.42573c-1.61507,-0.98732 -1.8468,-0.91986 -3.36144,-2.24754c-0.64887,-0.56878 -1.22251,-1.21806 -1.83265,-1.8282c-0.45079,-0.45079 -0.93737,-0.86875 -1.35014,-1.35459c-0.54579,-0.64239 -0.98719,-1.36776 -1.51867,-2.02204c-0.37221,-0.4582 -0.84485,-0.83276 -1.18959,-1.31198c-0.48107,-0.66873 -0.83522,-1.42055 -1.2765,-2.11618c-1.15963,-1.82806 -2.51548,-3.51845 -3.64417,-5.36621c-0.64357,-1.05358 -1.45829,-2.84755 -2.00144,-3.87402c-0.47883,-0.90491 -1.05631,-1.75531 -1.53433,-2.66064c-0.70937,-1.3435 -1.32614,-2.73463 -2.03833,-4.07664c-0.26798,-0.50498 -0.61476,-0.96885 -0.84735,-1.49107c-0.32825,-0.737 -0.55299,-1.51588 -0.82948,-2.27382c-0.65693,-1.31644 -1.1139,-2.67262 -1.68595,-4.02922l-0.2377,-1.58755c0,0 -0.17678,-1.23744 1.06066,-1.41421c1.23744,-0.17677 1.41422,1.06066 1.41422,1.06066l0.16997,1.2661c0.5451,1.24859 0.96504,2.49819 1.57536,3.71639c0.26707,0.73683 0.48349,1.49403 0.8012,2.21049c0.21238,0.47892 0.53733,0.90003 0.78328,1.3626c0.71324,1.34144 1.32934,2.73293 2.03832,4.07663c0.47609,0.9023 1.05172,1.74961 1.52923,2.65115c0.41284,0.77944 1.39625,2.8776 1.94543,3.77581c1.1188,1.82989 2.46635,3.50418 3.61363,5.31667c0.40698,0.64295 0.72537,1.3426 1.16951,1.96046c0.31957,0.44456 0.76472,0.78576 1.11003,1.21064c0.5195,0.63924 0.94919,1.3492 1.48133,1.97796c0.37369,0.44153 0.82026,0.81581 1.22928,1.22483c0.56837,0.56837 1.10065,1.17498 1.70289,1.70734c1.28314,1.13424 1.59886,1.1305 3.01952,1.99837c1.16913,0.71421 2.55232,1.70573 3.82302,2.29697c0.59565,0.27715 1.22854,0.46595 1.84281,0.69893c1.51563,0.6314 2.99437,1.35918 4.54548,1.89758c0.5428,0.18841 1.13327,0.22019 1.67126,0.4219c0.58395,0.21894 1.10233,0.58668 1.67532,0.83285c0.77375,0.33242 1.60899,0.50092 2.39758,0.79643c1.07574,0.40312 2.13748,0.84558 3.22665,1.21088c0.37194,0.12475 0.733,0.28722 1.11491,0.37694c1.03053,0.2421 1.50456,0.16787 2.56645,0.1704c0.42471,0.00101 0.85312,0.06558 1.27409,0.00937c0.49802,-0.06651 0.97427,-0.2462 1.46006,-0.37449c0.40942,-0.10813 0.84805,-0.14276 1.22549,-0.33477c0.40562,-0.20634 0.76326,-0.49302 1.13048,-0.7645c0.09391,-0.55957 0.48004,-0.80016 0.7947,-0.90359c-0.00047,-0.01676 -0.0007,-0.03375 -0.0007,-0.05098c0,-0.45442 0.16521,-0.74365 0.37549,-0.92773c-0.17811,-0.17632 -0.33352,-0.33608 -0.45459,-0.46977c-1.00517,-1.10998 -1.85037,-2.35816 -2.856,-3.46772c-0.38971,-0.42998 -0.84796,-0.79516 -1.23062,-1.23143c-0.55083,-0.628 -1.02207,-1.32248 -1.56575,-1.95668c-0.27818,-0.3245 -0.62362,-0.58769 -0.89707,-0.91618c-0.44227,-0.53129 -0.80982,-1.1215 -1.24579,-1.65797c-0.45551,-0.5605 -0.97192,-1.06967 -1.42683,-1.63066c-1.20477,-1.48571 -1.34202,-1.80166 -2.3311,-3.38592c-0.35493,-0.56851 -0.74939,-1.11434 -1.06301,-1.70664c-0.32681,-0.61721 -0.56963,-1.27536 -0.85375,-1.91334c-0.03511,-0.07884 -1.63595,-3.67991 -1.6538,-3.72463c-0.67913,-1.70146 -1.08783,-3.50809 -1.48446,-5.28964c-2.55532,-12.8061 -2.91511,-26.85377 1.23543,-39.30728l0.49407,-1.0408c0,0 0.54648,-1.12422 1.6707,-0.57774zM318.68702,183.78184c0,-0.50653 0,-1.01304 0,-1.51956c-0.22773,0.35429 -0.45085,0.71169 -0.66895,1.0722c0.26979,0.07201 0.50364,0.232 0.66895,0.44737z" fill="#00ff2b" stroke="none" stroke-width="0.5"/><path d="M276.01378,96.34428c1.21268,-0.30317 1.51585,0.90951 1.51585,0.90951l0.17701,0.72321c3.1076,9.36006 2.55629,19.49492 5.70731,28.94416c0.3628,1.09 0.81449,2.14841 1.21086,3.22666c0.52434,1.42636 0.97334,2.87938 1.44217,4.32494c0.73246,2.2584 1.30592,4.56365 2.02446,6.8239c0.34658,1.09021 1.11722,3.16795 1.59574,4.26027c0.18554,0.42353 0.44337,0.81361 0.61948,1.24115c0.30289,0.73533 0.50756,1.50886 0.81533,2.24215c0.25823,0.61526 1.42983,2.78971 1.73604,3.28058c0.67496,1.08201 1.58375,2.0057 2.26043,3.08664c0.0527,0.08418 1.28885,2.63848 1.53012,2.91543c0.45332,0.52035 1.07843,0.86582 1.56622,1.354c0.60398,0.60447 0.96539,1.42991 1.59747,2.00493c0.47168,0.42909 1.02405,0.76008 1.53607,1.14012c0.77915,0.64901 1.63197,1.21567 2.35065,1.93106c0.31127,0.30985 0.51358,0.71748 0.82414,1.02804c0.37522,0.37524 0.84776,0.64391 1.22298,1.01916c0.30966,0.30968 0.51228,0.71516 0.82139,1.02538c1.05199,1.05575 1.35195,1.05022 2.38089,1.97569c0.35237,0.31694 0.64309,0.69966 1.00451,1.00625c0.48679,0.41295 1.01365,0.77661 1.53363,1.14689c1.20959,0.86133 2.58871,1.56198 3.73949,2.49975c0.36261,0.29549 0.6339,0.6919 0.99002,0.99475c-0.01591,-0.27663 0.07342,-0.59429 0.39108,-0.91196c0.66371,-0.66372 1.32742,-0.33066 1.6169,-0.12356c0.06216,-0.09485 0.12406,-0.18995 0.18561,-0.28534c-0.95048,-4.58594 -1.7187,-9.23514 -2.95298,-13.76909c-0.43995,-2.41576 -0.77248,-4.83224 -1.04248,-7.27259c-0.0702,-0.63443 -0.1716,-1.26623 -0.20956,-1.90341c-0.03263,-0.54762 -0.00166,-1.09718 -0.00191,-1.64577c-0.00065,-1.39937 -0.08087,-2.80119 0.00182,-4.19812c0.04041,-0.68257 0.15765,-1.35856 0.21943,-2.03952c0.09012,-0.99331 0.21698,-3.34172 0.40995,-4.43291c0.34179,-1.93273 1.08399,-3.78683 1.66679,-5.6518c0.21079,-0.67454 0.56821,-2.13551 0.86836,-2.7906c0.41306,-0.90154 1.03382,-1.7017 1.41312,-2.61796c0.16436,-0.39704 0.23839,-0.82801 0.40765,-1.22298c0.24241,-0.56566 0.57739,-1.08829 0.82438,-1.65196c0.24334,-0.55536 0.42984,-1.13393 0.64476,-1.70089c0.27625,-0.41616 0.59142,-0.80898 0.82876,-1.24849c0.22992,-0.42577 0.37078,-0.89403 0.56708,-1.3363c0.34271,-0.77212 0.6723,-1.55091 1.04985,-2.30661c0.24053,-0.48145 0.57332,-0.91406 0.8025,-1.40102c0.30342,-0.6447 0.51087,-1.33071 0.7914,-1.98569c0.12131,-0.28324 1.60921,-3.5137 1.81866,-4.03777c0.16297,-0.4078 0.24526,-0.84568 0.41823,-1.24934c0.24616,-0.57449 0.57206,-1.11179 0.83621,-1.67824c0.54295,-1.16431 1.02402,-2.3712 1.73361,-3.44213c0.28814,-0.43486 0.7138,-0.76697 1.00405,-1.20043c0.23331,-0.34841 0.35726,-0.75915 0.55553,-1.12863c0.26449,-0.49286 0.55376,-0.97202 0.83212,-1.45718c0.25218,-0.43952 0.54791,-0.85642 0.7595,-1.31686c0.18284,-0.39789 0.22059,-0.85451 0.41795,-1.2454c0.32199,-0.63772 0.72653,-1.23155 1.13025,-1.82094c0.16726,-0.24419 0.37396,-0.45925 0.56393,-0.68658c0.01519,-0.44836 0.29507,-0.79821 0.29507,-0.79821c0.12394,-0.15463 0.24788,-0.30926 0.37182,-0.46388c0.08323,-0.16427 0.18563,-0.31054 0.33322,-0.41572c0.02299,-0.02868 0.04597,-0.05735 0.06896,-0.08603l0.78193,-1.17289c0.22257,-0.34462 0.61005,-0.57275 1.05082,-0.57275c0.69036,0 1.25,0.55964 1.25,1.25c0,0.26266 -0.08101,0.5064 -0.21942,0.7076l-0.7824,1.1736c0.10279,0.55574 -0.53138,1.00074 -0.84501,1.47127c-0.55979,0.83983 -1.29022,1.575 -1.73746,2.47979c-0.1868,0.3779 -0.22013,0.81811 -0.39738,1.20058c-0.24759,0.53426 -0.57986,1.02504 -0.87116,1.53679c-0.26527,0.46601 -0.54368,0.92469 -0.79854,1.39647c-0.23396,0.43311 -0.39516,0.90726 -0.66746,1.31736c-0.29852,0.44958 -0.73354,0.79745 -1.03427,1.24556c-0.92303,1.37536 -0.87607,1.6852 -1.52771,3.0805c-0.24983,0.53495 -0.56184,1.04042 -0.79445,1.58308c-0.16558,0.38628 -0.2409,0.80648 -0.3971,1.19664c-0.33255,0.83066 -1.54042,3.39286 -1.85032,4.11551c-0.296,0.69024 -0.51949,1.41139 -0.83926,2.09095c-0.23731,0.50433 -0.57873,0.95419 -0.82816,1.45264c-0.60329,1.20561 -1.0066,2.5073 -1.64438,3.69503c-0.22727,0.42324 -0.53459,0.79833 -0.80189,1.19749c-0.19274,0.52014 -0.3562,1.05209 -0.57823,1.56042c-0.24017,0.54985 -0.56991,1.05787 -0.80627,1.60936c-0.16928,0.39497 -0.24155,0.82668 -0.40765,1.22299c-0.39224,0.93582 -1.01232,1.76176 -1.44055,2.68167c-0.18381,0.39486 -0.67363,2.22531 -0.7623,2.50904c-0.55155,1.76494 -1.27245,3.52556 -1.59453,5.35513c-0.16079,0.9134 -0.31662,3.51249 -0.38119,4.22134c-0.05913,0.64911 -0.17335,1.29319 -0.21241,1.94382c-0.08118,1.35196 0.00247,2.7088 0.00182,4.06319c-0.00024,0.50251 -0.03198,1.00591 -0.00191,1.50752c0.03543,0.59116 0.13241,1.17701 0.1981,1.76557c0.26186,2.34626 0.5742,4.67253 0.99584,6.99565c1.01333,3.70855 1.69814,7.50447 2.43514,11.27586c4.02789,-6.18727 9.15087,-12.45906 15.1131,-16.62501c0.61749,-0.55594 1.20973,-1.14127 1.85248,-1.66781c0.45827,-0.37541 0.97598,-0.67267 1.44552,-1.03388c0.42592,-0.32766 0.80572,-0.71354 1.23904,-1.03135c0.59029,-0.43294 1.24118,-0.77956 1.82755,-1.21779c0.46884,-0.35039 0.90078,-0.74835 1.33232,-1.14377c0.32544,-0.2982 0.64232,-0.60708 0.93706,-0.93566c0.30116,-0.33572 0.52886,-0.73562 0.84801,-1.05429c2.10198,-2.09888 4.6452,-3.67037 7.21539,-5.1122c0.51137,-0.28687 0.99246,-0.63381 1.53024,-0.86745c0.65594,-0.28498 1.34142,-0.50479 2.03448,-0.68126c0.73773,-0.18784 1.50841,-0.22405 2.2469,-0.40887c0.68846,-0.1723 1.34796,-0.44464 2.02417,-0.66006c0.7808,-0.24874 1.57396,-0.45982 2.34676,-0.7324c0.70662,-0.24924 1.37378,-0.60619 2.08827,-0.83191c0.6036,-0.19069 1.24707,-0.23182 1.85348,-0.41337c0.30223,-0.09048 3.36657,-1.23842 3.86682,-1.42506c1.4324,-0.31942 2.82051,-0.66534 4.19215,-1.19313c0.29375,-0.11303 2.67038,-1.16289 2.89881,-1.23919c0.55641,-0.18584 1.13957,-0.27941 1.70639,-0.43053c0.50494,-0.13463 0.99477,-0.33132 1.50858,-0.42663c1.95256,-0.3622 3.97662,-0.2274 5.94886,-0.2274c2.10627,0 4.21255,-0.00136 6.31882,0c0.63738,0.00041 1.27601,-0.0375 1.91214,0.00242c0.61352,0.0385 1.22789,0.10601 1.82949,0.23239c0.39541,0.08307 0.74766,0.3295 1.14671,0.39283c0.40385,0.0641 0.81775,-0.01076 1.22662,-0.01614c0,0 1.25,0 1.25,1.25c0,1.25 -1.25,1.25 -1.25,1.25c-0.54236,-0.00538 -1.09068,0.06426 -1.62707,-0.01614c-0.45038,-0.06751 -0.85439,-0.32511 -1.29928,-0.42248c-0.46972,-0.10281 -0.95169,-0.14926 -1.43182,-0.17529c-1.19535,-0.06481 -2.3942,0.00242 -3.5913,0.00242c-1.49477,0 -2.98954,0 -4.4843,0c-1.78933,0 -3.69214,-0.15642 -5.46573,0.18027c-0.45851,0.08704 -0.89413,0.26841 -1.34506,0.38868c-0.51591,0.1376 -1.04827,0.21629 -1.55492,0.38479c-0.96686,0.32156 -1.85742,0.84117 -2.80848,1.20681c-1.42902,0.5494 -2.87681,0.92248 -4.36879,1.25285c-0.78087,0.29446 -3.33333,1.26462 -3.8788,1.42859c-0.59358,0.17843 -1.22442,0.21539 -1.81549,0.40197c-0.68114,0.215 -1.31482,0.56104 -1.98837,0.79873c-0.79891,0.28194 -1.61823,0.50238 -2.42564,0.75898c-0.72517,0.23047 -1.4341,0.51667 -2.17204,0.70221c-1.28866,0.32401 -2.65619,0.41185 -3.8719,0.94819c-0.46591,0.20555 -0.87989,0.513 -1.32341,0.76322c-1.88212,1.06181 -3.65622,2.13854 -5.31021,3.53465c-0.44668,0.37704 -0.92199,0.72341 -1.33497,1.13708c-0.29611,0.2966 -0.5018,0.67295 -0.78265,0.98403c-0.34811,0.38558 -0.71839,0.75158 -1.10126,1.10266c-0.49198,0.45114 -0.98795,0.90086 -1.52133,1.30222c-0.58955,0.44363 -1.24642,0.79194 -1.84143,1.22822c-0.42253,0.30982 -0.79163,0.68753 -1.20694,1.00697c-0.45701,0.35151 -0.96218,0.639 -1.40813,1.00444c-0.64645,0.52975 -1.24267,1.118 -1.86401,1.67701c-6.45727,4.48409 -11.88234,11.57565 -15.94579,18.20613c0.37781,1.75269 0.79322,3.4923 1.28526,5.20739c0.07519,-0.03574 0.15036,-0.07154 0.22552,-0.10737c0.01007,-0.06713 0.02528,-0.13734 0.04626,-0.21075c0.3434,-1.2019 1.54531,-0.8585 1.54531,-0.8585c0.14097,0.04369 0.28518,0.07995 0.43025,0.11426c0.88459,-0.40581 1.77489,-0.78796 2.68093,-1.10948c4.99465,-1.77239 10.66124,-2.11036 15.90946,-2.11036c2.58187,0 5.16375,0 7.74562,0c0.11201,0 2.8842,-0.00099 2.94226,0.00314c0.50504,0.03594 1.0022,0.14521 1.50413,0.21175c0.45757,0.06066 2.66178,0.3188 3.15225,0.42409c1.03286,0.22172 2.39091,0.74064 3.37005,1.04751c0.50016,0.15675 1.02118,0.2491 1.51055,0.43686c0.43396,0.1665 0.81935,0.44235 1.24819,0.62162c0.53933,0.22545 2.04739,0.61494 2.51682,0.8473c0.45453,0.22498 0.82256,0.5988 1.26918,0.83911c0.45567,0.24518 0.97128,0.36608 1.42683,0.6115c0.44209,0.23816 0.81915,0.58394 1.25502,0.83329c1.27466,0.72922 2.61301,1.32199 3.99842,1.79274c0.94954,0.62403 1.88046,1.27612 2.81068,1.92862c0.34303,0.24062 0.65626,0.53598 1.03764,0.70952c0.41825,0.19032 0.8985,0.20584 1.32872,0.36728c0.66264,0.24866 1.30003,0.56052 1.94138,0.85983c0.44506,0.2077 0.89229,0.41402 1.31692,0.6608c0.42361,0.24619 0.79605,0.57496 1.22299,0.81533c1.1915,0.6708 2.48165,1.15633 3.66898,1.8345c0.43932,0.25093 0.8351,0.57189 1.26402,0.84019c0.69059,0.43198 1.42298,0.79797 2.09372,1.26017c1.47041,1.01325 2.69163,2.35856 3.9919,3.5612c0.41473,0.3836 0.91621,0.67383 1.29625,1.09183c1.37777,1.51538 2.19378,3.42013 2.90406,5.30341c0,0 0.43892,1.17041 -0.73149,1.60933c-1.17041,0.43892 -1.60933,-0.73149 -1.60933,-0.73149c-0.58266,-1.5636 -1.23782,-3.23005 -2.39562,-4.48053c-0.33725,-0.36425 -0.78462,-0.61018 -1.14973,-0.94649c-1.22464,-1.12804 -2.36819,-2.41888 -3.75372,-3.36906c-0.63515,-0.43557 -1.32967,-0.77793 -1.98292,-1.18584c-0.40203,-0.25104 -0.77049,-0.5552 -1.18196,-0.79044c-1.18705,-0.67864 -2.47699,-1.16457 -3.66898,-1.8345c-0.42712,-0.24005 -0.80021,-0.56772 -1.22299,-0.81533c-0.36279,-0.21247 -0.74807,-0.38441 -1.12906,-0.56219c-0.57143,-0.26665 -1.13711,-0.54952 -1.72759,-0.7708c-0.49609,-0.18591 -1.04482,-0.22399 -1.52488,-0.44808c-0.50831,-0.23727 -0.94547,-0.60433 -1.4084,-0.92113c-0.83544,-0.57174 -1.65142,-1.17166 -2.48896,-1.74033c-1.44183,-0.47018 -2.83503,-1.12291 -4.15486,-1.87626c-0.41491,-0.23683 -0.77027,-0.57095 -1.19096,-0.79736c-0.45565,-0.24522 -0.9713,-0.36603 -1.42682,-0.61149c-0.41617,-0.22426 -0.75497,-0.57811 -1.17681,-0.79152c-0.74389,-0.37635 -1.60526,-0.46359 -2.37515,-0.78338c-0.41258,-0.17138 -0.78095,-0.44063 -1.19779,-0.60138c-0.43398,-0.16736 -0.89902,-0.24012 -1.3431,-0.37847c-0.70697,-0.22025 -2.32244,-0.81329 -3.15257,-0.99081c-0.34851,-0.07453 -2.75138,-0.36289 -2.96271,-0.39124c-0.45052,-0.06043 -0.89613,-0.1634 -1.34951,-0.19592c-0.91932,-0.06594 -1.84336,0.00314 -2.76504,0.00314c-2.58187,0 -5.16375,0 -7.74562,0c-4.97358,0 -10.33566,0.30462 -15.07301,1.96628c-0.32718,0.11476 -0.65251,0.23776 -0.9764,0.3672c0.33198,0.28631 0.71585,0.51317 1.02552,0.82349c0.26752,0.26808 1.78054,2.16186 2.08635,2.49573c0.40736,0.44475 0.90787,0.80527 1.27502,1.28376c0.5467,0.71248 0.99425,1.49679 1.45159,2.26966c0.24375,0.41191 0.37723,0.88693 0.64933,1.28068c0.34271,0.49593 0.8144,0.89099 1.18171,1.36898c0.73055,0.95069 1.17274,1.89368 1.85787,2.88555c0.77613,1.12362 1.7529,2.13672 2.60614,3.20335c1.38121,1.72664 2.68067,3.50226 3.90575,5.34269c0.28145,0.35352 0.59978,0.6806 0.84434,1.06057c0.38835,0.60339 0.67409,1.26794 1.04838,1.88015c0.38806,0.63474 0.85969,1.21657 1.23688,1.85783c0.31121,0.52908 0.52348,1.11162 0.82443,1.6466c0.31427,0.55866 0.71022,1.06904 1.01916,1.63066c0.42725,0.77667 0.84216,1.56308 1.18695,2.37971c0.23214,0.54981 0.34685,1.14234 0.53872,1.70747c0.26357,0.77632 0.54384,1.54692 0.82736,2.31618c0.5676,1.54002 1.17397,3.07348 1.63075,4.65234c0.23081,0.79779 0.40305,1.61199 0.6417,2.40747c0.16942,0.56473 0.41772,1.10406 0.58167,1.6704c0.6068,2.09612 0.86875,4.25608 1.43751,6.35678c0.62325,2.30193 0.81717,2.41934 1.51035,4.72668c0.4967,1.65335 0.91695,3.35196 1.33501,5.0274c2.60037,7.78829 4.94157,19.63217 1.14088,27.40667l-0.48564,0.74585c0,0 -0.69338,1.04006 -1.73344,0.34669c-1.04006,-0.69338 -0.34669,-1.73344 -0.34669,-1.73344l0.32969,-0.47714c1.31565,-2.55571 1.2956,-5.98954 1.29486,-8.81726c-0.00153,-5.81373 -0.75774,-11.23692 -2.59997,-16.77241c-0.41844,-1.67063 -0.83571,-3.36557 -1.33126,-5.01464c-0.48323,-1.60807 -1.09238,-3.17824 -1.53068,-4.79913c-0.56121,-2.07544 -0.81486,-4.2117 -1.41614,-6.28083c-0.16271,-0.55993 -0.40846,-1.09321 -0.57601,-1.65171c-0.24027,-0.80089 -0.41459,-1.62038 -0.64662,-2.4237c-0.44116,-1.52739 -1.0309,-3.00981 -1.57953,-4.49951c-0.29266,-0.79465 -0.58265,-1.59046 -0.85433,-2.39253c-0.17537,-0.51773 -0.27497,-1.06201 -0.48654,-1.56603c-0.54947,-1.30902 -1.3723,-2.48572 -2.06827,-3.72308c-0.29492,-0.52434 -0.50119,-1.09616 -0.80622,-1.61468c-0.36806,-0.62566 -0.83071,-1.1917 -1.20911,-1.81116c-0.35525,-0.58157 -0.62175,-1.21536 -0.98994,-1.78883c-0.22596,-0.35194 -0.52421,-0.65183 -0.78632,-0.97775c-1.20769,-1.8089 -2.48087,-3.55794 -3.83987,-5.25658c-0.88412,-1.10507 -1.88685,-2.15655 -2.69349,-3.31928c-0.35766,-0.51555 -1.33588,-2.2046 -1.81111,-2.82175c-0.39658,-0.51501 -0.89572,-0.94924 -1.26428,-1.48466c-0.30479,-0.44278 -0.47166,-0.96723 -0.74293,-1.43131c-0.38788,-0.66357 -0.76283,-1.34044 -1.23278,-1.94865c-0.33625,-0.43517 -0.7992,-0.75698 -1.17097,-1.16223c-0.3715,-0.40495 -0.70528,-0.84295 -1.05641,-1.26568c-0.31231,-0.37601 -0.58785,-0.78532 -0.93389,-1.13054c-0.29467,-0.29397 -0.67119,-0.49513 -0.97781,-0.7766c-0.25344,-0.23265 -0.42346,-0.56202 -0.68558,-0.77864c-0.71484,0.33648 -1.42778,0.68297 -2.14358,1.01935c-0.136,0.18235 -0.35005,0.34262 -0.68191,0.43744c-0.14762,0.04218 -0.28228,0.06104 -0.40495,0.06169c-0.22572,0.10067 -0.45197,0.19934 -0.67887,0.29541c0.22949,0.59116 0.45958,0.99148 0.8393,1.75479c0.22325,0.44879 0.49598,0.87672 0.66582,1.34832c0.19568,0.54337 0.24199,1.13187 0.42467,1.67975c0.2332,0.69939 0.60014,1.35039 0.82028,2.054c0.20297,0.64872 0.32564,1.32088 0.445,1.99006c0.13002,0.72894 0.42509,3.63525 0.42559,4.11817c0.00052,0.49924 -0.17351,0.98527 -0.20655,1.48341c-0.03597,0.54236 0.03654,1.08834 0,1.63067c-0.03385,0.50233 -0.14847,0.99603 -0.21065,1.49564c-0.14292,1.14821 -0.27704,2.29752 -0.40554,3.44743c-0.07296,0.65287 -0.15931,1.30505 -0.19755,1.96087c-0.02782,0.47708 0.02964,0.95673 -0.00036,1.43368c-0.00347,0.05511 -0.40036,3.62006 -0.41208,3.72547c-0.0729,0.78194 -0.07141,1.57444 -0.21871,2.34583c-0.16042,0.84007 -0.49355,1.63845 -0.7006,2.46826c-0.1407,0.56391 -0.18049,1.1514 -0.34188,1.70974c-0.05517,0.19086 -0.11289,0.3809 -0.17267,0.57029c0.00319,0.40499 0.03664,0.81097 0.01095,1.21505c-0.04693,0.73823 -0.52699,3.87258 -0.6056,4.26791c-0.2855,1.43572 -0.76025,2.82931 -1.0485,4.26448c-0.49978,2.48839 -0.82439,5.04391 -1.61715,7.4688c-0.16914,0.51737 -0.49233,0.97371 -0.67978,1.48473c-0.2488,0.67826 -0.34319,1.41018 -0.626,2.07498c-0.4761,1.11917 -1.4733,2.6693 -2.10237,3.80109c-0.41165,0.74062 -0.7762,1.50748 -1.20639,2.23748c-0.55436,0.94071 -1.29921,1.75858 -1.87101,2.68879c-0.23518,0.38259 -0.40084,0.80377 -0.60125,1.20566c-0.31451,0.47329 -0.62466,0.94948 -0.93148,1.42782c-0.1895,0.43854 -0.38465,0.87488 -0.5587,1.31961c-0.58205,1.48721 -1.11877,2.99205 -1.71185,4.4749c-1.84864,3.70126 -3.54581,7.48761 -5.55118,11.10218l-0.1785,0.35963c0,0 -0.55903,1.11803 -1.67706,0.559c-1.11803,-0.55903 -0.559,-1.67706 -0.559,-1.67706l0.22916,-0.45567c1.97484,-3.54969 3.63585,-7.27594 5.45575,-10.9117c0.20327,-0.50951 0.39955,-1.02175 0.59335,-1.53496c-0.18421,-0.21774 -0.29527,-0.49934 -0.29527,-0.80688c0,-0.14845 0.02588,-0.29086 0.07337,-0.42297l0.60227,-1.80681l0.3593,0.11977c0.67365,-3.36742 2.31169,-6.39277 3.87604,-9.62957c0.24344,-0.74632 0.42323,-1.51224 0.64222,-2.2662c0.45726,-1.57434 0.95033,-3.13806 1.43188,-4.70513c0.21593,-0.70269 0.37499,-1.42447 0.63643,-2.11152c0.29856,-0.78462 0.70803,-1.52267 1.03987,-2.2938c1.13622,-2.64038 2.10338,-5.34176 3.02287,-8.06265c0.43036,-1.2735 0.93768,-2.52202 1.356,-3.79898c0.00174,-0.05665 0.00437,-0.11327 0.00815,-0.16985c0.03196,-0.47938 0.17839,-0.94707 0.20383,-1.42684c0.04161,-0.78469 -0.0021,-1.57158 -0.00314,-2.35737c0,0 0,-1.15024 1.10338,-1.24395c0.07133,-0.57433 0.07494,-1.15814 0.12594,-1.73532c0.13377,-1.20423 0.32819,-2.40317 0.40325,-3.61248c0.02932,-0.47241 -0.02839,-0.94748 -0.00036,-1.41997c0.04197,-0.70748 0.13227,-1.41134 0.21011,-2.11578c0.12839,-1.16189 0.26416,-2.323 0.40978,-3.48285c0.05698,-0.45385 0.16695,-0.90159 0.19704,-1.35801c0.03576,-0.54237 -0.03634,-1.08831 0,-1.63065c0.03086,-0.4606 0.20054,-0.9086 0.20109,-1.37024c0.00038,-0.32091 -0.29622,-3.09091 -0.38973,-3.62744c-0.09841,-0.56458 -0.19617,-1.13294 -0.37033,-1.67893c-0.22072,-0.69196 -0.58076,-1.33358 -0.81037,-2.02264c-0.17167,-0.51518 -0.20954,-1.06962 -0.39065,-1.58156c-0.29624,-0.83737 -0.84882,-1.56357 -1.19676,-2.38081c-0.11219,-0.2635 -0.20809,-0.49719 -0.29167,-0.71054c-0.01246,-0.00523 -0.02492,-0.01043 -0.03739,-0.01559c-0.02099,0.01174 -0.04176,0.02397 -0.06229,0.03672c-0.33526,0.20833 -0.49499,0.61567 -0.72224,0.93841c-0.39218,0.55698 -0.80536,1.10329 -1.13507,1.69937c-0.39507,0.71424 -0.6679,1.4901 -1.03295,2.22015c-0.2285,0.45697 -0.53656,0.87287 -0.74654,1.33864c-0.1836,0.40727 -0.22972,0.86993 -0.42929,1.26962c-0.21888,0.43835 -0.59622,0.78477 -0.81533,1.223c-0.19515,0.3903 -0.20777,0.8579 -0.41667,1.24102c-0.58961,1.08135 -1.61371,2.16202 -2.40133,3.09331c-0.05619,0.06644 -2.03861,2.4481 -2.06999,2.48203c-0.48522,0.52452 -0.99013,1.03179 -1.51621,1.51531c-0.30857,0.28361 -0.68777,0.4862 -0.98403,0.78265c-0.94154,0.94215 -1.70701,2.06392 -2.7261,2.9216c-0.94347,0.79404 -1.86817,1.16782 -2.96196,1.7101c-0.42235,0.3489 -0.78977,0.77778 -1.26704,1.04669c-0.65094,0.36676 -1.41818,0.48929 -2.07875,0.83842c-0.49131,0.25967 -0.88478,0.6746 -1.35231,0.97499c-0.48829,0.31373 -1.00046,0.58918 -1.51121,0.86484c-1.8716,1.01011 -3.84293,1.77401 -5.76364,2.67818c-1.5377,0.72387 -2.28234,1.2309 -3.96707,1.87433c-0.66689,0.2547 -1.37783,0.37877 -2.05106,0.6162c-1.04681,0.36918 -2.03591,0.8949 -3.0925,1.23512c-0.77188,0.24855 -1.57921,0.38431 -2.34037,0.66397c-0.48995,0.18002 -0.92178,0.49138 -1.39626,0.70893c-1.21187,0.55562 -2.44565,0.99602 -3.62645,1.60985c-0.6317,0.32838 -1.22457,0.73082 -1.86795,1.03568c-0.66129,0.31336 -1.37695,0.50214 -2.03832,0.81533c-0.62246,0.29477 -1.19019,0.69519 -1.80538,1.00485c-0.7304,0.36766 -1.48564,0.68375 -2.22846,1.02562c-2.52868,1.65972 -5.91019,3.00908 -8.8373,3.76061l-0.51941,0.17701c0,0 -1.18586,0.39526 -1.58112,-0.7906c-0.39526,-1.18586 0.7906,-1.58112 0.7906,-1.58112l0.70358,-0.23063c2.71699,-0.65689 5.89134,-1.97671 8.2291,-3.5204c0.77045,-0.35656 1.55316,-0.68773 2.31134,-1.06967c0.63438,-0.31957 1.22169,-0.72932 1.8636,-1.03347c0.6613,-0.31334 1.37694,-0.50216 2.03832,-0.81533c0.621,-0.29405 1.19117,-0.68613 1.80103,-1.00264c1.32442,-0.68735 2.28602,-0.99953 3.71153,-1.65144c0.52255,-0.23897 1.00271,-0.57204 1.54172,-0.77114c0.80275,-0.29651 1.65258,-0.44765 2.46725,-0.70964c1.03321,-0.33228 1.9991,-0.8494 3.02246,-1.21087c0.6646,-0.23475 1.3667,-0.35646 2.02558,-0.60679c1.41456,-0.53744 2.43694,-1.16348 3.77855,-1.79462c1.8831,-0.88588 3.81462,-1.63515 5.65095,-2.62148c0.45385,-0.24377 0.90915,-0.48713 1.34243,-0.76582c0.51578,-0.33175 0.95957,-0.77603 1.50136,-1.06333c0.63293,-0.33563 1.37323,-0.44147 1.99789,-0.79223c0.44774,-0.25142 0.78594,-0.66109 1.17892,-0.99163c0.78255,-0.39434 2.02377,-0.93654 2.74536,-1.5512c0.96236,-0.81975 1.67934,-1.89207 2.57351,-2.78571c0.319,-0.31881 0.72141,-0.54372 1.05429,-0.84801c0.46551,-0.42553 0.91022,-0.8744 1.33746,-1.33834c0.70811,-0.76895 1.33123,-1.61211 2.00665,-2.40993c0.46113,-0.5447 1.70977,-1.91047 2.08295,-2.614c0.19824,-0.37374 0.20946,-0.82655 0.39866,-1.20495c0.21912,-0.43823 0.59597,-0.78489 0.81533,-1.223c0.18477,-0.36902 0.21622,-0.80023 0.38604,-1.17637c0.22989,-0.50918 0.55817,-0.96869 0.80801,-1.46839c0.38032,-0.76066 0.66656,-1.56841 1.08148,-2.31076c0.12913,-0.23103 0.4724,-0.77151 0.88057,-1.36274c-0.24818,0.05429 -0.51915,0.1081 -0.82907,0.15424c-1.61002,0.23971 -3.17403,0.29413 -4.8036,0.21501c-0.5293,-0.0257 -1.04768,-0.17187 -1.57664,-0.20383c-1.35553,-0.0819 -2.71786,0.07097 -4.07402,0.00017c-0.54704,-0.02856 -1.08382,-0.17163 -1.63066,-0.20384c-0.60055,-0.03537 -1.20378,0.02835 -1.80477,0.00149c-1.97545,-0.08827 -2.56279,-0.20378 -4.37648,-0.41506c-0.63692,-0.0742 -1.28164,-0.09559 -1.91162,-0.21522c-1.8877,-0.35847 -3.7483,-0.96074 -5.6057,-1.44965c-1.28552,-0.33838 -2.57837,-0.65003 -3.85661,-1.01494c-0.61566,-0.13697 -1.23816,-0.24619 -1.84698,-0.4109c-0.80436,-0.21761 -1.58654,-0.51163 -2.38927,-0.73516c-0.56852,-0.15831 -3.27183,-0.67171 -3.40407,-0.71775c-0.74704,-0.26012 -1.39927,-0.74215 -2.12657,-1.05322c-0.73119,-0.31274 -1.51204,-0.50009 -2.24215,-0.81533c-0.77266,-0.33362 -1.4926,-0.77986 -2.25879,-1.12808c-0.7372,-0.33504 -1.51105,-0.5852 -2.24824,-0.92028c-0.75989,-0.34541 -1.48457,-0.76434 -2.23983,-1.11975c-0.40165,-0.18901 -0.82647,-0.32567 -1.22908,-0.51263c-0.55554,-0.25797 -1.08954,-0.56057 -1.64374,-0.82141c-1.9673,-0.92593 -4.01307,-1.6902 -5.97686,-2.62023c-0.52856,-0.25032 -1.00704,-0.60118 -1.54315,-0.83489c-0.72308,-0.31522 -1.49947,-0.49648 -2.22435,-0.80751c-0.72007,-0.30896 -1.40244,-0.69929 -2.10342,-1.04941c-2.63556,-1.31638 -5.25314,-2.65809 -7.93969,-3.86798c-2.65543,-1.40496 -5.46474,-2.72573 -7.78312,-4.63894l-1.00944,-0.80747c0,0 -0.97609,-0.78087 -0.19522,-1.75695c0.78087,-0.97609 1.75695,-0.19522 1.75695,-0.19522l1.02888,0.82318c2.1392,1.80329 4.82961,3.02076 7.30045,4.32967c1.935,0.87064 3.82567,1.81087 5.72314,2.7596c1.4034,0.7017 2.76683,1.48949 4.20928,2.10695c0.73704,0.3155 1.52516,0.50244 2.25995,0.82315c0.5574,0.24328 1.05712,0.6041 1.60674,0.8645c1.95681,0.9271 3.99616,1.68814 5.95682,2.61067c0.54553,0.25668 1.07075,0.55532 1.61758,0.80925c0.40261,0.18696 0.82743,0.32361 1.22907,0.51263c0.75276,0.35425 1.47492,0.77205 2.23231,1.11631c0.73719,0.33508 1.51107,0.58516 2.24824,0.92028c0.75109,0.34145 1.45584,0.781 2.21334,1.10799c0.73014,0.31518 1.51143,0.50151 2.24215,0.81533c0.66916,0.28738 1.26314,0.74328 1.95008,0.9851c1.03742,0.36519 2.17178,0.37176 3.23165,0.66546c0.80313,0.22256 1.58517,0.51757 2.38963,0.73526c0.60051,0.1625 1.21465,0.26962 1.82197,0.40443c1.28916,0.36733 2.59269,0.68216 3.889,1.02338c1.78934,0.47101 3.58299,1.05762 5.40125,1.40399c0.57887,0.11027 1.17193,0.12498 1.75733,0.19244c1.74462,0.20104 2.29892,0.31744 4.1845,0.40027c0.62079,0.02727 1.24386,-0.03495 1.86418,0.00149c0.54684,0.03213 1.08364,0.17481 1.63066,0.20384c1.35784,0.07207 2.72188,-0.08008 4.07926,0.00017c0.529,0.03127 1.04742,0.17655 1.57664,0.20383c1.39691,0.07201 2.88397,0.01731 4.27304,-0.19264c0.10192,-0.0154 0.19916,-0.03099 0.29222,-0.04666c0.27856,-1.3181 0.80868,-2.50921 1.45484,-3.64946c-0.39183,-0.23715 -0.77654,-0.48809 -1.13156,-0.77645c-0.37292,-0.30291 -0.64798,-0.71413 -1.01917,-1.01917c-0.34682,-0.28501 -0.74984,-0.49376 -1.12388,-0.74196c-1.42017,-0.94236 -2.89727,-1.84777 -4.20226,-2.94939c-0.37208,-0.3141 -0.67198,-0.70622 -1.03381,-1.03207c-0.81096,-0.73033 -1.73808,-1.33052 -2.51105,-2.10095c-0.3061,-0.30509 -0.50368,-0.70736 -0.80929,-1.01294c-0.37525,-0.37522 -0.84774,-0.64394 -1.22298,-1.01916c-0.30471,-0.30469 -0.50262,-0.7048 -0.80655,-1.01028c-0.27734,-0.27875 -0.62099,-0.48265 -0.92587,-0.73099c-0.40639,-0.33102 -0.80517,-0.67129 -1.20776,-1.00693c-0.57509,-0.43529 -1.19515,-0.81681 -1.72527,-1.30587c-0.79386,-0.73238 -0.92752,-1.33601 -1.66384,-2.07172c-0.53367,-0.53323 -1.20798,-0.92355 -1.69509,-1.49962c-0.78342,-0.92651 -1.09923,-2.18932 -1.73119,-3.19953c-0.6642,-1.06175 -1.56077,-1.96588 -2.22387,-3.02832c-0.39005,-0.62494 -1.61346,-2.89327 -1.93293,-3.64973c-0.3094,-0.73261 -0.51262,-1.50675 -0.81533,-2.24215c-0.17097,-0.41537 -0.42367,-0.79323 -0.60351,-1.20483c-0.52674,-1.20552 -1.31161,-3.31478 -1.69902,-4.53132c-0.71775,-2.25392 -1.28808,-4.55368 -2.01874,-6.80604c-0.45925,-1.41569 -0.89757,-2.8392 -1.41148,-4.23598c-0.40512,-1.10111 -0.86364,-2.18308 -1.2351,-3.29599c-1.62868,-4.88769 -2.74541,-10.18418 -3.51412,-15.28464c-0.70105,-4.6515 -0.6725,-9.11727 -2.19318,-13.6595l-0.23066,-0.90745c0,0 -0.30317,-1.21268 0.90951,-1.51585zM317.50134,180.56498c0,0 -0.03246,-0.12983 -0.03365,-0.31516c-0.17315,0.36979 -0.32538,0.74659 -0.45007,1.1321c0.2046,-0.00223 0.43044,0.00613 0.69043,0.0276c-0.05985,-0.24974 -0.1272,-0.52753 -0.20671,-0.84454z" fill="#00ff2b" stroke="none" stroke-width="0.5"/><path d="M132.5,352.54601v-345.09202h375v345.09202z" fill="none" stroke="#000000" stroke-width="0"/></g></g></svg>