<svg version="1.1" xmlns="http://www.w3.org/2000/svg" xmlns:xlink="http://www.w3.org/1999/xlink" width="375" height="345.09202" viewBox="0,0,375,345.09202"><g transform="translate(-132.5,-7.45399)"><g stroke-miterlimit="10"><path d="M322.00748,173.62717c0.84735,0.22039 1.62966,0.59524 2.32902,1.0868c5.41026,1.85448 6.04581,8.54508 2.69588,12.05536c-0.28953,1.10542 -1.29528,1.92099 -2.49148,1.92099c-0.10355,0 -0.20568,-0.00612 -0.30603,-0.01799c-0.2864,0.17463 -0.5921,0.31145 -0.91919,0.39998c-3.17679,0.85978 -4.7057,-0.19358 -5.39425,-1.90178c-1.70597,-0.25214 -3.16181,-0.75975 -3.82963,-1.71042c-1.80487,-2.56933 -0.41372,-7.51147 1.64326,-9.51211c1.22883,-1.19515 2.75486,-2.53355 4.46902,-2.54436c0.21598,-0.00136 0.42907,0.00705 0.63908,0.02474c0.0479,-0.00377 0.09642,-0.00579 0.14556,-0.00597c0.36465,-0.00136 0.70206,0.073 1.01877,0.20479z" fill="#00ff2b" stroke="none" stroke-width="0.5"/><path d="M310.54542,158.51959c0.23689,-0.94909 0.47341,-1.82261 0.60154,-2.39868c1.1738,-5.27749 1.83157,-10.53224 2.16816,-15.92016c0.09319,-1.49152 0.09308,-2.99006 0.24901,-4.47631c0.05919,-0.56421 0.61353,-1.13237 0.39426,-1.65558c-0.26668,-0.63626 -1.11655,-0.81538 -1.62523,-1.28139c-1.90698,-1.74695 -3.7077,-3.60852 -5.48558,-5.48671c-3.30504,-3.49156 -6.35834,-7.11201 -10.00435,-10.27277c-2.696,-2.33718 -5.6701,-4.29583 -8.58,-6.34589c-0.18304,-0.62824 -0.02571,-2.27741 -0.54909,-1.88468c-1.44119,1.08144 -1.10283,3.4376 -1.47156,5.2013c-1.40581,6.72447 -1.59214,13.58164 -2.16566,20.39309c-0.19529,2.31959 -2.29006,4.70661 -1.37448,6.84679c0.90168,2.10771 8.41307,3.41735 10.44641,4.54115c6.46489,3.573 11.94365,7.9868 17.39658,12.73985zM310.95031,165.66958l-0.23823,-0.13433c-6.41631,-5.70387 -12.53322,-11.04471 -20.06711,-15.25438c-4.07474,-2.2768 -10.5158,-2.46671 -12.80007,-7.32939c-1.28228,-2.72969 0.85085,-5.97494 1.09854,-8.9806c0.56353,-6.83824 -0.48792,-18.59166 3.36637,-24.51629c1.37347,-2.11123 2.45021,-5.0706 4.86696,-5.77977c1.71366,-0.50285 2.93131,2.04093 4.39697,3.06139c2.94853,2.04858 5.9134,4.03459 8.63507,6.39276c3.77711,3.27265 6.94891,7.00557 10.37065,10.62178c1.74805,1.84737 3.65473,3.54063 5.39575,5.39462c0.96909,1.03197 2.30966,1.85201 2.82621,3.17005c0.46056,1.1751 -0.04722,2.52407 -0.10036,3.78509c-0.24608,5.84104 -0.70534,11.59612 -1.76809,17.34909c-0.41733,2.25918 -0.9619,4.49343 -1.49395,6.7284c-0.14832,0.62307 -0.50087,1.24554 -0.48571,1.87463c0.48478,0.36558 1.22991,1.13035 1.06024,2.29435c0.0821,0.13501 0.16056,0.27122 0.2316,0.40993c0,0 1.07922,2.33832 -1.2591,3.41755c-2.33832,1.07924 -3.41753,-1.2591 -3.41753,-1.2591c-0.18147,-0.42228 -0.39916,-0.83421 -0.61825,-1.24577z" fill="#00ff2b" stroke="none" stroke-width="0.5"/><path d="M331.90765,169.35203c-0.32332,0.37697 -0.80769,0.68679 -1.53324,0.7691c-0.47823,0.09776 -1.0649,0.093 -1.63234,-0.23782c-0.59002,-0.28862 -0.91944,-0.77411 -1.10336,-1.22626c-0.31982,-0.62181 -0.34337,-1.17531 -0.22686,-1.64099c0.01908,-1.08255 0.07569,-2.16639 -0.00066,-3.24562c-0.18604,-2.62931 -0.77403,-5.21869 -0.98413,-7.84619c-0.21705,-2.7145 -0.24196,-5.44308 -0.49401,-8.15455c-0.14408,-1.54972 -0.45409,-3.08624 -0.50487,-4.64181c-0.03554,-1.08873 0.24666,-2.16925 0.2469,-3.25856c0.00089,-3.739 -1.26122,-7.93058 1.17279,-11.31821c1.09457,-1.52339 2.8729,-2.42227 4.18047,-3.76726c3.83907,-3.94892 6.50641,-8.84827 10.59001,-12.553c1.07814,-0.97814 5.9368,-5.04287 7.44009,-3.9064c2.01079,1.52016 1.58963,4.7843 2.38445,7.17647c0.21375,4.84716 0.25587,9.99735 1.10899,14.78581c0.66786,3.7486 2.99829,7.55482 2.75361,11.44385c-0.26959,4.28514 -3.08667,5.98202 -5.64958,8.81392c-5.67539,6.27106 -11.13427,12.36578 -17.11141,18.34919zM332.37947,161.70705c4.62929,-4.80911 9.00761,-9.697 13.53938,-14.70713c1.4909,-1.64829 4.22514,-2.9264 4.24253,-5.52963c0.02301,-3.44203 -2.08568,-6.95761 -2.6871,-10.31883c-0.87568,-4.89403 -0.94911,-10.16273 -1.15427,-15.11603c0.0726,-0.31366 0.11814,-0.63784 0.16223,-0.96258c-0.47263,0.33236 -1.00369,0.61258 -1.42876,0.99592c-0.86144,0.77689 -1.71251,1.57375 -2.46494,2.45664c-0.62558,0.73404 -1.06465,1.61044 -1.65274,2.37482c-0.59182,0.76921 -5.9047,7.16013 -6.22685,7.48681c-1.09428,1.10961 -2.57137,1.82162 -3.57214,3.01625c-0.43701,0.52168 -0.518,1.2775 -0.59157,1.95405c-0.27398,2.51987 0.27993,3.99076 0.28055,6.51197c0.00025,1.06032 -0.28141,2.11152 -0.24765,3.17129c0.04549,1.42878 0.34975,2.83795 0.48431,4.26111c0.25675,2.71537 0.27937,5.44852 0.49519,8.16743c0.16591,2.09024 0.56571,4.15703 0.82185,6.23791z" fill="#00ff2b" stroke="none" stroke-width="0.5"/><path d="M367.65043,180.58935c-0.75206,0.92917 -2.05725,0.92917 -2.05725,0.92917l-1.02027,-0.16837c-2.58695,0.19808 -5.09388,-0.51777 -7.56008,-1.55932c-6.45296,-0.3903 -13.54793,0.65119 -18.72676,-2.24229c-0.68372,0.37007 -1.74446,0.60945 -2.86511,-0.40932c-0.52793,-0.47994 -0.77664,-0.97315 -0.86031,-1.43548l-0.24025,-0.12013c-0.87109,-0.41294 -1.47351,-1.30033 -1.47351,-2.32841c0,-1.20726 0.83071,-2.22053 1.9517,-2.49933l2.63088,-0.71751c0.40697,-0.12308 0.80864,-0.22593 1.20543,-0.30999c2.95317,-3.33461 5.84432,-6.72816 8.62642,-10.20125c1.39135,-1.73692 2.80095,-3.45913 4.20081,-5.18919c0.68377,-0.84504 1.20471,-1.84714 2.03636,-2.54715c3.16243,-2.66186 4.40717,-2.17413 8.63797,-2.61489c1.03208,-0.10753 2.06553,-0.21522 3.10237,-0.25646c3.4622,-0.13771 4.75099,0.1511 8.5287,0.24353c0.1059,0.0026 6.78702,0.00113 7.90033,0.00157c1.8298,0.0007 3.98436,-0.07361 5.79501,0.24952c1.60084,0.2857 3.16391,0.75287 4.74588,1.1293c-0.48878,2.19035 -0.5188,4.5367 -1.46638,6.57108c-0.07178,0.15411 -5.50087,5.58841 -5.81347,5.8868c-4.76807,4.55161 -9.20657,9.45195 -13.74553,14.23916c-1.37136,1.44636 -2.06496,2.61491 -3.53295,3.34899zM345.26428,169.91471c3.6235,0.90578 6.9715,2.89265 10.4646,4.39054c3.16375,0.26402 6.27765,0.6835 9.34327,1.77161c2.18987,-0.68624 5.60848,-5.79499 6.81817,-7.07189c4.36759,-4.61019 8.85807,-10.69446 14.21373,-14.41471c-0.60492,-0.0778 -1.21748,-0.25069 -1.8229,-0.27729c-1.85872,-0.08161 -3.72103,0.00295 -5.58153,0.00223c-5.37191,-0.00204 -10.72238,-0.48209 -16.07965,-0.01137c-1.37495,0.12081 -2.78033,0.05707 -4.1239,0.3731c-1.52549,0.3588 -2.15046,1.78771 -3.00758,2.87316c-0.72971,0.9241 -1.49591,1.81888 -2.23676,2.73407c-2.62618,3.24412 -5.27906,6.46067 -7.98748,9.63053z" fill="#00ff2b" stroke="none" stroke-width="0.5"/><path d="M335.5796,188.00346c0.3254,-0.3254 0.65078,-0.53448 0.96578,-0.65847c0.73259,-0.38997 1.52119,-0.33741 1.52119,-0.33741c4.51484,0.30276 9.00262,0.07701 13.51606,0.24301c3.24537,0.11937 6.46044,0.37365 9.71459,0.24752c2.30885,-0.0895 4.43597,-0.47409 6.75296,-0.23854c1.17277,0.11923 2.40367,0.1776 3.47071,0.67864c4.29084,2.01475 4.30067,3.10161 7.39989,5.89092c0.67989,0.6119 1.46585,1.09599 2.16828,1.68187c0.72858,0.6077 1.35181,1.34297 2.12221,1.89671c1.23829,0.89006 2.62717,1.55407 3.88274,2.41957c1.11317,0.76733 2.10227,1.70494 3.21494,2.47304c1.23248,0.85079 4.75741,2.94707 6.33773,3.8957l0.04015,0.05023l0.01123,-0.01685l2.19249,1.46167c0.71003,0.45856 1.18005,1.25689 1.18005,2.16498c0,1.29798 -0.96026,2.37169 -2.20909,2.54949l-5.04538,0.80726l-0.09568,-0.59793c-8.09602,1.81467 -15.82188,1.53662 -24.65425,1.54764c-2.95525,0.00369 -6.96983,1.09648 -9.79643,-0.15998c-9.26387,-4.11786 -14.88981,-15.38995 -22.33282,-22.0059l-0.35738,-0.35107c0,0 -1.82106,-1.82106 0,-3.6421zM343.36757,192.31828c5.18552,6.05801 9.99467,13.66759 16.68926,16.85351c2.03875,0.97021 5.85822,-0.16235 8.0094,-0.15996c4.3003,0.00474 8.46827,1.08356 12.79111,0.51404c3.32037,-0.43744 6.29269,-1.27577 9.31333,-1.2181c-1.10872,-0.67742 -2.14976,-1.32907 -2.80029,-1.7773c-1.11333,-0.7671 -2.10212,-1.70519 -3.21494,-2.47302c-1.30521,-0.90057 -2.74475,-1.59894 -4.03094,-2.52648c-0.84074,-0.60628 -1.53268,-1.39691 -2.32925,-2.06016c-0.74166,-0.61753 -1.56583,-1.13472 -2.28316,-1.78033c-2.47015,-2.22315 -2.8526,-3.44003 -5.95448,-4.99045c-0.59462,-0.29722 -1.30661,-0.2672 -1.96994,-0.31059c-2.34141,-0.15314 -3.68178,0.1635 -6.1068,0.25607c-3.37272,0.12875 -6.70607,-0.12162 -10.06962,-0.24709c-2.68626,-0.10019 -5.36396,-0.06482 -8.04367,-0.08014z" fill="#00ff2b" stroke="none" stroke-width="0.5"/><path d="M326.98941,203.16638c-0.67789,-0.54779 -1.27871,-1.19494 -1.93374,-1.77219c0,0 -1.92484,-1.71096 -0.21388,-3.6358c1.3028,-1.46564 2.72958,-0.82331 3.33621,-0.4334c0.33156,-0.71438 1.07157,-1.62161 2.66242,-1.39434c2.54947,0.36424 2.18524,2.91371 2.18524,2.91371l-0.27344,1.82541c1.60074,0.88757 3.5414,1.93427 4.51857,2.54412c2.46871,1.5407 4.92232,3.34081 7.19225,5.13614c0.68731,0.54361 1.29421,1.18365 1.97841,1.73113c0.98836,0.79086 4.11834,3.01757 5.21084,3.97115c0.90457,0.78956 2.078,1.40993 2.6031,2.4897c0.66735,1.37227 0.6691,2.98708 0.79962,4.50742c0.12846,1.49613 -0.06951,6.07832 0.00459,7.99743c0.09916,2.568 0.4258,5.1248 0.4955,7.69375c0.04314,1.58949 0.00101,3.18015 0.00099,4.77023c-0.00004,1.73399 0.06204,6.29696 -0.26561,7.72562c-0.37419,1.63168 -1.21703,3.11904 -1.82555,4.67855c-10.63445,-2.9809 -15.50116,-9.88582 -23.26438,-17.20071c-2.30416,-2.17108 -7.83904,-6.80618 -7.96888,-10.2255c-0.0145,-0.38189 2.14788,-7.79864 2.53167,-9.34595c1.14857,-4.63044 1.42689,-9.31527 2.22607,-13.97647zM331.79421,206.03075c-0.29617,2.33687 -0.48658,4.67092 -0.84319,7.08885c-0.60288,4.0876 -3.27414,8.75003 -3.60627,12.7477c-0.13169,1.58491 5.2259,6.00578 6.37467,7.08572c5.54817,5.21568 10.81794,10.57962 16.45861,15.68191c-0.0006,-0.00383 -0.00113,-0.00764 -0.00163,-0.01152c-0.16847,-1.31592 0.1874,-2.64732 0.23007,-3.97327c0.03369,-1.04588 -0.00109,-2.09285 -0.00111,-3.13929c-0.00002,-1.54243 0.04248,-3.08544 0.00099,-4.62731c-0.09881,-3.67187 -0.49776,-7.27782 -0.4956,-10.95278c0.00089,-1.50541 0.04623,-3.01133 0.00649,-4.5162c-0.02134,-0.80788 0.14529,-1.68156 -0.18959,-2.41706c-0.23024,-0.50568 -0.91019,-0.6379 -1.35373,-0.97253c-1.73132,-1.30624 -3.4822,-2.58786 -5.17588,-3.94255c-0.68432,-0.54733 -1.29161,-1.18689 -1.97841,-1.73111c-2.02756,-1.60675 -4.4254,-3.3658 -6.65675,-4.75597c-0.96823,-0.60323 -1.87251,-1.09022 -2.76869,-1.56456zM350.99996,249.37409c0.00426,0.00381 0.00849,0.0076 0.01275,0.01139c-0.0042,-0.00383 -0.00845,-0.00762 -0.01275,-0.01139z" fill="#00ff2b" stroke="none" stroke-width="0.5"/><path d="M312.79137,200.47306c-0.66574,0.59466 -1.36112,1.15825 -1.99231,1.78917c-0.60533,0.60506 -1.10005,1.31291 -1.68873,1.93417c-0.86905,0.91713 -1.832,1.74366 -2.68199,2.67845c-2.20582,2.42586 -3.37709,5.37898 -5.99548,7.46312c-0.96124,0.76511 -2.02962,1.3916 -3.10462,1.9864c-0.86357,0.47782 -1.82889,0.75252 -2.69629,1.22333c-0.67355,0.3656 -1.26944,0.8591 -1.91138,1.2777c-0.39489,0.25749 -1.00531,0.32052 -1.19879,0.75042c-0.19723,0.43822 0.13777,0.95136 0.21975,1.42487c0.27888,1.61075 0.74831,3.18297 1.16095,4.76475c1.16915,4.48173 1.9106,8.99992 2.7635,13.54661c0.22655,1.25533 0.78746,3.95706 0.8231,5.62811c0.65995,-0.63174 1.467,-1.11368 2.17127,-1.7014c2.12079,-1.76978 4.30141,-3.47341 6.32743,-5.35096c0.85625,-0.7935 1.61429,-1.68931 2.47654,-2.47629c1.01827,-0.92937 2.16163,-1.71759 3.16004,-2.66829c0.70938,-0.6755 1.25737,-1.50586 1.95049,-2.19803c0.82279,-0.82166 1.68446,-1.60745 2.59029,-2.33654c0.40075,-0.32254 1.21441,-0.30261 1.31543,-0.80703c0.23337,-1.16523 -0.32804,-2.35463 -0.44535,-3.53719c-0.24208,-2.44024 -0.49504,-4.87938 -0.73383,-7.31995c-0.15504,-1.58448 -0.37689,-5.95188 -0.72093,-8.00256c-0.34209,-2.03906 -0.99718,-4.01339 -1.45398,-6.02986c-0.15207,-0.67128 -0.20632,-1.36341 -0.33508,-2.039zM310.13833,195.87381c-0.58112,-0.53339 -1.2456,-1.53235 -0.5133,-2.99693c1.15176,-2.30346 3.45519,-1.1517 3.45519,-1.1517l1.45264,1.07388c0.62894,0.90838 1.25784,1.81676 1.88678,2.72513c0.39955,0.9952 0.89447,1.95727 1.19865,2.98564c0.27529,0.93069 0.31551,1.91653 0.53126,2.86282c0.4826,2.1169 1.15419,4.19405 1.51363,6.3353c0.40192,2.39429 0.54812,6.1246 0.76286,8.31939c0.24526,2.50654 0.66871,5.00102 0.74998,7.51821c0.06304,1.95251 0.61813,3.99148 0.04926,5.86034c-0.18205,0.59804 -4.42033,4.19249 -4.99713,4.77011c-0.71067,0.71166 -1.27816,1.55976 -2.0064,2.25341c-1.03469,0.98558 -2.21474,1.80866 -3.26985,2.77235c-0.85961,0.78513 -1.61501,1.67907 -2.46949,2.46978c-2.09401,1.93771 -4.33732,3.70787 -6.53231,5.53039c-1.90811,1.58429 -6.36248,5.67881 -9.03985,4.49463c-1.76138,-0.77903 -1.21324,-3.66491 -1.6037,-5.55087c-0.22513,-1.0874 -0.10165,-2.22057 -0.23357,-3.32317c-0.10367,-0.86655 -0.31473,-1.71683 -0.47207,-2.57525c-0.82799,-4.4179 -1.54132,-8.80793 -2.67717,-13.1621c-0.5474,-2.0984 -1.20576,-3.37118 -1.31207,-5.62197c-0.06325,-1.3391 -0.32287,-2.78993 0.21973,-4.01582c0.52185,-1.17898 1.76638,-1.88788 2.75806,-2.71178c2.33034,-1.93607 5.24836,-2.56429 7.62048,-4.41549c1.94056,-1.51439 1.68922,-2.04417 3.22609,-4.18777c0.66978,-0.93419 1.38513,-1.83855 2.15439,-2.69268c0.87086,-0.96691 1.86379,-1.81746 2.75863,-2.76222c0.61662,-0.65101 1.13958,-1.38848 1.77351,-2.02266c0.86635,-0.86672 1.85302,-1.60729 2.72033,-2.47304c0.10075,-0.10056 0.199,-0.20343 0.29542,-0.30801z" fill="#00ff2b" stroke="none" stroke-width="0.5"/><path d="M294.55766,189.75688c-0.86311,0.05882 -1.72561,0.14103 -2.59,0.16898c-0.039,0.00126 -5.52285,0.00097 -5.75871,0.00097c-0.4415,0 -6.46359,0.00072 -6.54654,-0.00266c-1.85545,-0.07553 -4.94884,-0.52552 -6.6655,-0.76348c-1.09844,-0.15228 -2.19016,-0.35602 -3.29249,-0.47687c-0.61378,-0.06729 -1.25663,-0.25663 -1.85032,-0.08696c-0.63298,0.18091 -1.13567,0.67478 -1.64895,1.08702c-1.21771,0.97799 -2.35515,2.05196 -3.53441,3.07602c-0.94089,0.81709 -5.11947,4.38543 -6.30516,5.57242c-1.10726,1.10847 -2.09261,2.33422 -3.1976,3.44493c-1.23763,1.24406 -2.53827,2.424 -3.8265,3.61557c-0.96905,0.89633 -1.81962,1.95791 -2.92488,2.67412c2.22236,0.1899 5.19288,1.32103 7.05246,1.44393c6.56537,0.43392 13.16723,0.64728 19.73125,0.98865c2.45623,0.12774 4.85971,1.29581 7.30553,1.0363c1.88479,-0.19999 5.83507,-6.16712 6.57411,-6.93431c4.51607,-4.68813 9.68128,-8.45735 13.73045,-13.56919c-0.5845,0.02023 -1.17166,-0.04067 -1.66767,-0.15083l-2.76092,-0.22164c0,0 -1.12592,-0.09383 -1.82413,-0.90296zM305.42132,193.47029c-4.31167,5.60831 -9.76709,9.65081 -14.6427,14.7158c-2.55316,2.65234 -5.21183,7.60171 -9.25326,8.39847c-0.06253,0.01234 -8.55853,-0.93963 -8.60721,-0.9421c-7.8322,-0.39576 -23.49008,1.48064 -30.13568,-3.3679c-1.52308,-1.11121 -2.10085,-3.13124 -3.15128,-4.69686c1.14226,-1.14867 2.25831,-2.32398 3.42676,-3.446c2.11537,-2.03131 4.3851,-3.90106 6.45255,-5.98112c1.11597,-1.12281 2.11228,-2.36073 3.23227,-3.47955c1.3138,-1.3124 5.38945,-4.79561 6.5546,-5.80348c1.65041,-1.42763 4.75945,-4.54249 7.18181,-5.23451c1.1511,-0.32884 2.39528,-0.15736 3.59035,-0.08696c3.28965,0.19375 6.52009,1.10299 9.82624,1.23269c2.10276,0.08249 4.20878,-0.00264 6.31317,-0.00264c1.8724,0 3.7458,0.06168 5.61721,0.00097c1.43824,-0.04667 2.87162,-0.23506 4.3106,-0.23481c1.75997,0.00031 3.51638,0.15765 5.27459,0.2365c0,0 1.49822,0.06809 2.15604,1.24367l1.05975,-0.35324c0.27216,-0.09784 0.56557,-0.15118 0.87142,-0.15118c1.42234,0 2.57535,1.15304 2.57535,2.57535c0,0.47533 -0.12877,0.92057 -0.35334,1.30278l-2.2031,3.91668l-0.04277,-0.02406z" fill="#00ff2b" stroke="none" stroke-width="0.5"/><path d="M310.79426,175.97556c0,1.73849 -1.17356,2.30341 -1.93627,2.48699c-0.13029,0.16532 -0.29054,0.32946 -0.48575,0.4902c-1.66147,1.36827 -3.07789,0.20442 -3.49836,-0.2148c-8.14093,0.56705 -16.296,0.66081 -24.42302,1.29066c-1.49914,0.09144 -2.99971,0.16194 -4.49743,0.27431c-2.68588,0.2015 -6.61381,1.12953 -9.31541,-0.3561c-2.13188,-1.17234 -2.73688,-3.37517 -4.02595,-5.17512c-0.44906,-0.62703 -0.99724,-1.17805 -1.53025,-1.73548c-1.89278,-1.97944 -3.79976,-3.94946 -5.8096,-5.80991c-2.0212,-1.87098 -4.20981,-3.55778 -6.20233,-5.45923c-1.5586,-1.48738 -5.1478,-5.22061 -6.34785,-6.60233c-1.6597,-1.91097 -6.17345,-6.68075 -5.10663,-9.92382c0.49509,-1.50501 2.73832,-1.62569 4.21962,-2.18781c1.20763,-0.45831 4.52444,-0.69075 5.81844,-0.80337c2.12911,-0.1853 4.24605,-0.42856 6.39008,-0.24662c2.05212,0.17413 4.06001,0.69576 6.09559,1.00875c1.08317,0.16674 2.16871,0.3187 3.24952,0.50017c0.84441,0.14179 1.67163,0.40522 2.52543,0.4695c1.19956,0.0903 2.40688,0.04069 3.60887,-0.00777c0.90978,-0.03665 1.81043,-0.21382 2.72033,-0.2473c1.35692,-0.04992 2.71572,-0.00925 4.07355,-0.00264c2.85491,0.01389 4.70986,-0.32313 7.27868,1.53922c0.90908,0.65904 1.29342,1.83635 1.97198,2.73094c0.87683,1.15604 2.47361,3.10641 3.51132,4.21214c0.81828,0.87189 3.53118,3.46024 4.22518,4.22693c0.84725,0.93599 1.5516,1.99728 2.4212,2.91252c0.68638,0.7224 1.55098,1.26095 2.23378,1.98677c0.88718,0.94305 1.70583,1.95346 2.46185,3.00459c0.7179,0.9981 1.23427,2.1312 1.95071,3.13035c0.78643,1.09677 3.08661,3.90452 4.76632,5.9409l1.08107,-0.00799c0,0 2.57535,0 2.57535,2.57535zM300.82512,173.83033c-1.10246,-1.35892 -2.12384,-2.64441 -2.66619,-3.3993c-1.31819,-1.83472 -2.3556,-3.89791 -3.91577,-5.53181c-0.68286,-0.71512 -1.5367,-1.25317 -2.21767,-1.97008c-0.90415,-0.95187 -1.64431,-2.04901 -2.52487,-3.02274c-1.32237,-1.46228 -2.83538,-2.74242 -4.18309,-4.18138c-0.98599,-1.05274 -3.14077,-3.61274 -3.90775,-4.69079c-0.38412,-0.53992 -0.49202,-1.28994 -0.99569,-1.72048c-0.41739,-0.35682 -1.03045,-0.41974 -1.57644,-0.47827c-0.83557,-0.08958 -1.68043,0.03426 -2.52079,0.03906c-1.28003,0.00731 -2.56097,-0.05035 -3.84014,-0.00266c-2.34145,0.08731 -4.68831,0.41026 -7.02517,0.23955c-2.05402,-0.15007 -4.06001,-0.69574 -6.09559,-1.00875c-1.92923,-0.29695 -3.83078,-0.79568 -5.77495,-0.96967c-1.64804,-0.1475 -3.86163,0.10734 -5.48047,0.248c-0.86577,0.07522 -1.73529,0.11775 -2.59657,0.23349c-0.66316,0.08913 -1.31182,0.36516 -1.97165,0.43713c0.03426,0.03313 0.06772,0.06661 0.1004,0.10025c1.08808,1.12075 1.93821,2.452 2.96938,3.62533c1.17236,1.33401 4.51319,4.82221 6.0173,6.2574c1.97958,1.88887 4.15536,3.56286 6.16281,5.42208c0.0436,0.04038 6.0174,6.01456 6.06093,6.06062c0.67384,0.71341 1.35463,1.42788 1.93201,2.22139c0.56561,0.77734 0.96283,1.6651 1.48383,2.47304c0.28108,0.43587 0.46952,0.99784 0.92008,1.25473c0.45549,0.25972 1.04089,0.18654 1.56466,0.16196c3.12386,-0.14655 6.23132,-0.54771 9.35279,-0.73836c6.89967,-0.5269 13.81649,-0.67713 20.72865,-1.05979z" fill="#00ff2b" stroke="none" stroke-width="0.5"/><path d="M132.5,352.54601v-345.09202h375v345.09202z" fill="none" stroke="#000000" stroke-width="0"/></g></g></svg>