<svg version="1.1" xmlns="http://www.w3.org/2000/svg" xmlns:xlink="http://www.w3.org/1999/xlink" width="375" height="345.09202" viewBox="0,0,375,345.09202"><g transform="translate(-132.5,-7.45399)"><g stroke-miterlimit="10"><path d="M319.19181,175.82031c4.49505,0.96672 9.65092,3.58746 1.83256,8.80148c-4.20873,2.80678 -15.49027,-7.57316 -3.81175,-10.00695c0.83783,-0.1746 1.4282,0.42026 1.97919,1.20547z" fill="#00ff2b" stroke="none" stroke-width="0.5"/><path d="M318.31139,102.15657c1.76374,1.76374 0,3.5275 0,3.5275l-0.55863,0.52319c-11.73625,8.79363 -24.05912,31.27475 -13.3644,44.86409c-0.29768,-3.24023 -0.33971,-6.32604 0.07156,-9.61355c0.11903,-0.95151 0.40817,-1.87395 0.61703,-2.80985c0.65149,-2.91939 1.58535,-5.89163 3.27172,-8.41703c1.81199,-2.71353 4.55963,-4.9214 6.85619,-7.20859c4.50747,-3.39468 9.10506,-6.86607 14.43174,-8.89403c1.23431,-0.46991 2.48555,-0.90256 3.75947,-1.25113c1.98691,-0.54366 4.09149,-0.58385 6.07148,-1.15221c1.04119,-0.29888 1.96632,-0.95289 3.02233,-1.19428c1.23359,-0.28198 2.51369,-0.35365 3.77907,-0.36036c4.27436,-0.02263 8.50072,1.34074 12.5906,2.41284c1.22922,0.32223 2.50032,0.50423 3.69582,0.93509c1.39412,0.50245 2.70386,1.21445 4.04097,1.85334c2.00744,0.95917 3.89157,1.79425 5.54931,3.3144c0.83206,0.763 1.49745,1.68989 2.24279,2.5378c1.36375,1.55142 2.66718,3.15782 3.90753,4.80956c2.03271,2.71046 4.01391,5.45219 6.09443,8.1266l2.0267,2.60574c0.33751,0.42547 0.53907,0.96364 0.53907,1.54891c0,1.37758 -1.11673,2.49431 -2.49431,2.49431h-2.91478v-0.06176c-0.1327,0.01319 -0.26585,0.02317 -0.39955,0.02955c-1.04119,0.04975 -1.98194,-0.64677 -2.97659,-0.95855c-0.8843,-0.27719 -1.75324,-0.61729 -2.66006,-0.80836c-1.71882,-0.36213 -3.4905,-0.40579 -5.24185,-0.54089c-2.9374,-0.22658 -5.88774,-0.27918 -8.83386,-0.28327c-1.18115,-0.00166 -2.36627,-0.10909 -3.54342,-0.01213c-2.64234,0.2176 -5.03365,1.41122 -7.42088,2.43216c-1.10773,0.47374 -2.26198,0.84356 -3.33949,1.38257c-0.79421,0.39729 -1.48234,0.98108 -2.25622,1.41667c-2.24676,1.2647 -4.65092,2.34783 -6.72854,3.90773c-0.77611,0.58271 -1.45137,1.28896 -2.18592,1.92328c-0.60526,0.52267 -1.2904,0.96031 -1.83332,1.54745c-1.04424,1.12929 -1.77374,2.51335 -2.66876,3.76422c-1.72758,2.87588 -3.14956,5.836 -4.45155,8.92951c-0.40593,0.96448 -0.75209,1.95363 -1.1659,2.91476c-0.31646,0.73496 -0.84703,1.39085 -1.02397,2.17123c-0.15523,0.68468 0.04627,1.40346 0.05434,2.10548c0.01004,0.87437 0.07539,1.75213 0,2.6233c-0.04027,0.46538 -0.53728,0.93285 -0.34453,1.35836c0.15698,0.34659 0.71964,0.28122 1.09919,0.30776c0.77669,0.05432 1.56196,0.02688 2.3348,-0.06761c0.99569,-0.12174 4.35258,-0.95885 5.32339,-1.13517c1.22762,-0.22297 2.48112,-0.29936 3.70033,-0.56457c0.99555,-0.21657 1.92984,-0.67249 2.92787,-0.87734c3.67696,-0.75474 3.99827,-0.6394 7.24022,-0.64128c2.85803,-0.00166 4.26592,-0.10241 7.08822,0.32125c3.13174,0.47011 6.07551,1.60672 8.99496,2.77192c3.66303,1.47043 7.13184,3.13206 10.24475,5.61013c1.02576,0.81658 1.9124,1.79676 2.92409,2.63072c0.68626,0.56569 1.51233,0.95584 2.16275,1.5624c1.69707,1.58265 3.55595,4.51634 4.75121,6.26771c0.6307,0.92417 2.74113,4.07375 3.3186,5.13677c0.7001,1.28874 1.51413,2.54466 1.94539,3.94646c0.48104,1.56366 1.27934,7.52459 1.28814,9.52748c0.01784,4.06388 -1.60207,8.10127 -3.1485,11.76518c-0.4053,0.96025 -1.01778,1.82801 -1.38448,2.80365c-0.39089,1.03995 -0.49212,2.17339 -0.87782,3.21527c-0.3236,0.87411 -0.84412,1.66241 -1.24025,2.50613c-0.86136,1.83458 -1.45399,3.7908 -2.36319,5.60215c-0.44985,0.8962 -1.05749,1.70408 -1.58622,2.55613c-1.47815,2.21419 -2.50994,3.93417 -4.38281,5.91871c-1.64064,1.73848 -2.8583,2.34841 -4.84356,3.58782c-0.84022,0.52458 -1.58908,1.24265 -2.52516,1.56657c-1.69148,0.58533 -3.73235,2.0721 -5.25065,1.12422c-1.65964,-1.03612 -1.68023,-3.61787 -1.86375,-5.56575c-0.10867,-1.15361 0.6296,-2.23251 1.02654,-3.32111c0.67897,-1.86218 1.62795,-3.66894 1.91174,-5.63062c0.14722,-1.0177 0.17225,-2.04945 0.27433,-3.07266c0.25873,-2.59347 0.40156,-4.94024 0.01485,-7.54159c-0.65355,-4.39614 -2.75416,-8.44118 -4.71924,-12.3701c-1.29766,-2.59451 -2.56402,-5.00132 -4.24961,-7.3612c-2.33709,-4.20885 -5.25159,-8.07675 -8.66146,-11.49037c-0.93553,-0.93655 -3.57058,-2.9206 -4.46087,-3.61318c-0.89588,-0.69693 -1.81574,-1.36417 -2.68703,-2.09161c-0.8491,-0.7089 -1.57643,-1.56439 -2.47111,-2.21483c-0.72082,-0.52403 -1.55593,-0.86976 -2.34406,-1.28575c-0.68933,-0.36385 -1.36058,-0.77254 -2.08764,-1.05348c-0.89125,-0.34439 -1.83805,-0.52397 -2.7481,-0.8151c-0.7631,-0.24414 -1.54438,-0.45055 -2.26999,-0.79032c-0.25009,-0.11709 -0.53793,-0.82506 -0.61149,-0.55889c-0.15295,0.55344 0.2289,1.12663 0.297,1.69675c0.12252,1.02564 0.14102,2.06234 0.27437,3.08662c0.15114,1.16077 0.41288,2.30493 0.57846,3.46372c0.12256,0.8577 0.15044,1.72768 0.28563,2.58349c0.15531,0.9832 0.43774,1.94387 0.58503,2.92832c0.47929,3.20382 0.71477,6.46255 1.1735,9.67373c0.08539,0.76785 0.60259,5.29707 0.60281,5.8522c0.00042,1.05543 -0.20419,2.10097 -0.30277,3.15178c-0.20805,2.21794 -0.50493,4.42992 -0.90338,6.62169c-0.41266,2.26997 -0.75626,4.68472 -1.58142,6.85653c-0.42132,1.10893 -1.03011,2.13775 -1.58122,3.18823c-1.2,2.28749 -2.39205,4.3786 -4.14238,6.33552c-0.91473,1.02269 -2.05288,1.82167 -3.05105,2.7631c-0.68314,0.64431 -3.8965,3.94812 -4.41522,4.41206c-2.1679,1.93896 -3.50808,2.84186 -5.69773,4.50499c-0.96895,0.73596 -1.84298,1.61256 -2.89628,2.22174c-1.00136,0.57914 -2.14284,0.87221 -3.21294,1.31151c-1.24546,0.51127 -2.44367,1.15519 -3.73377,1.54021c-4.09832,1.22313 -8.52024,0.68757 -12.72813,0.65874c-1.13453,-0.33256 -2.29411,-0.58922 -3.40358,-0.99767c-2.73963,-1.0086 -4.25081,-1.81329 -6.67696,-3.02844c-0.8232,-0.4123 -1.67839,-0.76653 -2.46829,-1.23951c-2.47671,-1.48304 -4.809,-3.19999 -7.29457,-4.66812c-5.24951,-3.10065 -10.6882,-6.11247 -14.21967,-11.25642c-0.69711,-1.01543 -2.45656,-4.41101 -2.84998,-5.66634c-0.49878,-1.59155 -1.91456,-3.3795 -1.16051,-4.86721c0.85126,-1.67949 3.15056,-2.21908 4.97935,-2.66724c1.14204,-0.27986 2.3095,0.45486 3.47693,0.59498c1.23518,0.14826 2.47839,0.27312 3.72243,0.26911c1.08489,-0.00349 2.15672,-0.29207 3.24161,-0.29158c1.01403,0.00048 2.01479,0.24881 3.02778,0.29455c1.16927,0.0528 2.3423,-0.05561 3.51142,0.00072c0.91641,0.04416 1.824,0.2002 2.73602,0.3003c1.22946,0.11274 3.91689,0.44772 5.30672,0.29373c1.35651,-0.1503 4.42296,-1.16482 5.43864,-1.57387c0.8356,-0.33651 1.57084,-0.9029 2.42094,-1.20086c1.17187,-0.41072 2.42828,-0.5368 3.61155,-0.91344c1.82364,-0.5805 5.07848,-1.94373 6.74281,-2.95923c2.95253,-1.80153 5.55582,-4.19751 7.9848,-6.62781c0.86778,-0.86826 3.49423,-3.34799 4.41723,-4.66814c0.88736,-1.26919 1.69743,-2.59327 2.46051,-3.94084c1.57212,-2.77627 2.42074,-6.12342 2.5972,-9.29415c0.04348,-0.78126 0.0458,-1.56629 0,-2.34743c-0.02985,-0.50914 -0.18955,-1.02147 -0.27996,-1.52917c-0.44686,0.2634 -0.91011,0.50946 -1.32749,0.80453c-1.93569,1.36842 -2.79595,2.12464 -5.06863,3.14757c-3.11554,1.4023 -6.18783,1.95167 -9.55175,2.25486c-1.24394,0.11212 -2.48581,0.30183 -3.73479,0.30185c-1.14533,0.00002 -2.28194,-0.19951 -3.4227,-0.30169c-3.61223,-0.32356 -3.74796,-0.30325 -7.72248,-0.89179c-1.14407,-0.16941 -2.2731,-0.44034 -3.42204,-0.57277c-3.24991,-0.37457 -4.42132,-0.02528 -7.45692,-0.97428c-1.00641,-0.31462 -1.93619,-0.83605 -2.89678,-1.2709c-1.32045,-0.59772 -2.66289,-1.15251 -3.94601,-1.82664c-4.61702,-2.42563 -8.57902,-6.10401 -12.23685,-9.75782c-2.65768,-2.65922 -5.59692,-5.35771 -7.41127,-8.71222c-2.00631,-3.70944 -2.64234,-7.26398 -3.20563,-11.3617c-0.22199,-1.61488 -0.4728,-3.22808 -0.60203,-4.85302c-0.05266,-0.66229 0.03616,-4.52008 -0.00225,-5.28854c-0.09708,-1.94215 -0.48685,-3.86238 -0.58167,-5.80465c-0.09015,-1.84659 -0.00164,-5.50509 0.3244,-7.26849c0.71447,-3.86429 1.68586,-5.84486 3.12599,-9.50078c1.64816,-4.18404 1.43708,-4.29926 4.43501,-8.31299c0.73091,-0.97857 4.19496,-4.6222 5.23485,-5.52363c0.10289,-0.0892 4.133,-2.96125 4.30638,-3.08499c1.62785,-1.01367 5.45371,-3.7532 7.38273,-2.81654c1.56154,0.75823 1.7107,3.04252 2.27743,4.6833c0.31325,0.90687 0.22626,1.90556 0.32793,2.8596c0.10835,1.01666 0.25739,2.03091 0.30215,3.05234c0.13783,3.14507 -0.20356,6.24542 0.26711,9.37385c0.34593,2.29938 1.1504,4.50605 1.70312,6.76464c0.63661,2.60141 1.05911,5.25374 1.74211,7.84334c0.43168,1.63663 0.96119,3.24748 1.35603,4.89337c0.19805,0.82554 0.24193,1.68197 0.42048,2.51195c0.16437,0.76402 1.80491,7.12857 1.93086,7.49432c0.14746,0.42818 2.176,4.19075 2.32534,4.39582c0.6742,0.92581 1.60079,1.64703 2.2879,2.5633c0.74542,0.99403 1.23888,2.16273 1.99533,3.1484c0.50235,0.65459 1.17213,1.16167 1.75819,1.74253c8.10694,6.47292 18.62059,12.20246 29.23304,12.18925l0.80281,-0.83727c0,0 0.14361,-0.08205 0.378,-0.16694c-0.43503,-0.33729 -0.67269,-0.71756 -0.67269,-0.71756c-0.53293,-0.86365 -1.16544,-1.67329 -1.59876,-2.59097c-0.06763,-0.14323 -0.12919,-0.2889 -0.18628,-0.43635c-0.24061,0.07726 -0.49715,0.11899 -0.76342,0.11899c-1.37758,0 -2.49431,-1.11673 -2.49431,-2.49431c0,-1.05567 0.65583,-1.95818 1.58229,-2.32231c-0.26376,-0.65309 -0.53247,-1.30419 -0.80305,-1.95442c-1.14078,-2.74143 -2.86275,-5.19324 -3.84082,-8.00266c-0.56284,-1.61665 -0.8052,-2.49874 -0.94205,-3.35032c-0.01319,0.01163 -0.02656,0.02327 -0.04011,0.03488c-1.89382,1.62328 -3.5171,-0.27054 -3.5171,-0.27054c-13.52571,-16.04271 -0.999,-41.9838 13.5137,-52.87834l0.02432,-0.05976c0,0 1.76374,-1.76374 3.5275,0z" fill="#00ff2b" stroke="none" stroke-width="0.5"/><path d="M286.66411,106.01313c2.27934,1.01303 1.26629,3.29238 1.26629,3.29238l-1.1472,2.58014c-0.37756,0.94397 -0.7551,1.88792 -1.13266,2.83188c-0.36487,1.00148 -0.83617,1.97035 -1.0946,3.00443c-0.96267,3.8522 -1.06769,7.6257 -1.07417,11.55686c-0.0013,0.79251 -0.09516,1.58936 -0.01213,2.37752c0.09431,0.89512 0.35355,1.76512 0.54131,2.64539c0.43335,2.03189 0.9634,4.04197 1.44443,6.0631c0.42757,1.79654 0.84515,3.59938 1.40779,5.35831c0.44712,1.39781 1.49316,4.89512 2.41086,6.51056c0.39035,0.68713 0.96422,1.25514 1.38618,1.92332c0.70419,1.11516 1.22644,2.34422 1.98845,3.42068c0.84497,1.19368 1.89528,2.22822 2.81514,3.36521c0.65307,0.80724 1.19619,1.70547 1.90274,2.46632c1.38011,1.48617 3.12422,2.58738 4.70807,3.85421c0,0 1.94774,1.55819 0.38955,3.50591c-1.55819,1.94774 -3.50591,0.38955 -3.50591,0.38955c-0.63793,-0.51044 -4.43096,-3.4844 -5.2021,-4.3071c-0.8051,-0.85892 -1.43698,-1.86547 -2.17798,-2.78028c-0.98998,-1.22223 -2.10488,-2.34701 -3.01441,-3.63026c-0.79838,-1.12643 -1.35489,-2.40747 -2.09223,-3.57477c-0.47069,-0.74512 -1.09919,-1.3877 -1.5286,-2.15736c-2.24143,-4.01758 -3.28571,-8.76049 -4.3427,-13.19815c-0.72525,-3.04482 -1.76601,-6.23636 -2.0949,-9.36308c-0.10005,-0.95111 -0.01074,-1.9127 -0.01213,-2.86906c-0.00645,-4.36605 0.17362,-8.56781 1.24265,-12.84243c0.30008,-1.19988 0.83478,-2.32855 1.25219,-3.49282c0.39971,-0.99922 0.79944,-1.99844 1.19915,-2.99765l1.1846,-2.66646c0,0 1.01303,-2.27934 3.29238,-1.26629z" fill="#00ff2b" stroke="none" stroke-width="0.5"/><path d="M396.84328,165.00634c-1.91619,1.59682 -3.51301,-0.31937 -3.51301,-0.31937l-0.52375,-1.05304c-9.78346,-4.20164 -20.73236,-5.75762 -31.18382,-7.40825c-5.59423,-0.88353 -12.43007,-1.9813 -17.70829,1.15052c-3.52337,2.09057 -6.63043,5.1599 -9.6784,7.86972c0,0 -1.86427,1.65712 -3.52141,-0.20715c-1.65712,-1.86427 0.20715,-3.52141 0.20715,-3.52141c4.24271,-3.7706 8.51537,-8.19879 14.08328,-9.85986c10.01114,-2.98665 20.34862,-0.18079 30.19798,2.09361c6.77799,1.56515 13.12626,2.54207 19.56861,5.29756l2.39103,2.44469c0,0 1.59682,1.91619 -0.31937,3.51301z" fill="#00ff2b" stroke="none" stroke-width="0.5"/><path d="M342.90954,166.00492c0,-2.49431 2.49431,-2.49431 2.49431,-2.49431l0.91629,0.0594c16.3441,-3.62741 30.49844,4.38079 41.94574,15.82798c0,0 1.76376,1.76374 0.00002,3.5275c-1.76374,1.76376 -3.5275,0.00002 -3.5275,0.00002c-10.21613,-10.21605 -22.72787,-17.73587 -37.33607,-14.48566l-1.99848,0.0594c0,0 -2.49431,0 -2.49431,-2.49431z" fill="#00ff2b" stroke="none" stroke-width="0.5"/><path d="M340.99666,252.49984c-1.38363,-2.07537 0.69174,-3.459 0.69174,-3.459l0.49431,-0.27134c12.47265,-12.35845 6.74065,-26.61343 0.6383,-40.38925c-1.86936,-4.22002 -3.47715,-8.06579 -6.58128,-11.58511c0,0 -1.64252,-1.87716 0.23465,-3.51968c1.87716,-1.64252 3.51968,0.23465 3.51968,0.23465c3.42669,3.94317 5.32478,8.1927 7.40963,12.899c7.0172,15.84045 12.24636,31.83954 -1.6935,45.8879l-1.25456,0.8946c0,0 -2.07537,1.38363 -3.459,-0.69174z" fill="#00ff2b" stroke="none" stroke-width="0.5"/><path d="M331.21147,201.06852c-0.40164,-0.52606 -1.2041,-1.91677 0.18663,-3.3075c1.76374,-1.76374 3.5275,0 3.5275,0l0.93415,1.39893c1.63064,5.99509 3.86856,12.84063 3.87686,19.05367c0.01421,10.63931 -6.92649,22.48385 -13.74627,30.18757c0,0 -1.65712,1.86427 -3.52141,0.20715c-1.47352,-1.30977 -0.74714,-2.74897 -0.37788,-3.29477c-0.10839,-0.27956 -0.16784,-0.58351 -0.16784,-0.90135c0,-1.37758 1.11673,-2.49431 2.49431,-2.49431c0.1502,0 0.29728,0.01327 0.44018,0.03871c0.50649,-0.65622 1.00864,-1.335 1.50244,-2.03321c-0.26126,-0.95363 0.19857,-1.87329 0.19857,-1.87329c3.54442,-7.08882 6.38383,-13.7223 8.14414,-21.40507c-0.0163,-0.26901 -0.0368,-0.53935 -0.0612,-0.81083l-0.4019,-0.83921c0,0 -0.20014,-0.8006 0.09029,-1.5959c-0.67588,-4.1587 -2.04089,-8.46207 -3.11855,-12.33063z" fill="#00ff2b" stroke="none" stroke-width="0.5"/><path d="M242.09247,206.69307c0.41009,-2.46037 2.87046,-2.05029 2.87046,-2.05029l2.12751,0.38554c17.37575,5.82927 38.10608,2.46484 53.98041,-6.23595c0,0 2.18975,-1.19442 3.38415,0.99533c1.19442,2.18975 -0.99533,3.38415 -0.99533,3.38415c-17.18231,9.33119 -39.17704,12.8094 -57.94673,6.58908l-1.37018,-0.19745c0,0 -2.46037,-0.41009 -2.05029,-2.87046z" fill="#00ff2b" stroke="none" stroke-width="0.5"/><path d="M238.40981,169.41461c2.41984,-0.60496 3.0248,1.81488 3.0248,1.81488l0.10263,0.65539c4.47055,8.94118 10.16082,16.57793 19.68533,20.6618c6.84154,2.93349 15.85735,1.99409 23.12672,2.4483c0,0 2.48947,0.15559 2.33388,2.64503c-0.15559,2.48947 -2.64503,2.33388 -2.64503,2.33388c-7.92537,-0.49541 -17.20624,0.32789 -24.67551,-2.79828c-10.66345,-4.46305 -17.29777,-13.08052 -22.28736,-23.05976l-0.48033,-1.67644c0,0 -0.60496,-2.41984 1.81488,-3.0248z" fill="#00ff2b" stroke="none" stroke-width="0.5"/><path d="M132.5,352.54601v-345.09202h375v345.09202z" fill="none" stroke="#000000" stroke-width="0"/></g></g></svg>