<svg version="1.1" xmlns="http://www.w3.org/2000/svg" xmlns:xlink="http://www.w3.org/1999/xlink" width="375" height="345.09202" viewBox="0,0,375,345.09202"><g transform="translate(-132.5,-7.45399)"><g stroke-miterlimit="10"><path d="M244.92702,153.90362c-1.07335,-1.07337 0.00004,-2.14673 0.00004,-2.14673l1.58457,-0.9558c11.79946,0 23.29103,1.97401 34.47528,5.70118c1.27802,0.42601 2.55662,0.85029 3.83405,1.27802c0.55231,0.18494 1.12589,0.31633 1.65587,0.55791c0.83984,0.38282 1.61439,0.89636 2.43995,1.30906c0.92637,0.46308 1.90942,0.81284 2.81394,1.31727c0.82033,0.45748 1.54414,1.07181 2.34628,1.56049c1.07103,0.65251 4.10837,2.21744 5.10735,2.80876c0.57123,0.33813 1.1248,0.70791 1.65659,1.1052c0.52715,0.39383 0.98018,0.88238 1.51566,1.26481c0.64999,0.46421 1.37574,0.81456 2.03247,1.26918c0.44856,0.3105 0.82953,0.71179 1.27802,1.0224c0.65962,0.45682 2.97418,1.78423 3.66295,2.36491c0.62102,0.52356 1.05967,1.25099 1.71441,1.73171c0.58558,0.42994 1.33932,0.57746 1.9553,0.96257c0.70619,0.44153 1.33591,0.9944 2.00195,1.49498c-0.74972,-4.62211 -2.45049,-8.97352 -3.2716,-13.61002c-1.32308,-7.47086 -3.25115,-14.78059 -5.09423,-22.15238c-0.49948,-2.1819 -1.03075,-4.37985 -1.78413,-6.49109c-0.67605,-1.89455 -1.54001,-3.71745 -2.25089,-5.59922c-0.26845,-0.71059 -0.38844,-1.47707 -0.70885,-2.1658c-0.23947,-0.51474 -0.66225,-0.92381 -0.95485,-1.4103c-0.4449,-0.7397 -0.78677,-1.54001 -1.25559,-2.26477c-0.45165,-0.69823 -1.01999,-1.31439 -1.49918,-1.99401c-0.51043,-0.72392 -0.916,-1.52234 -1.46836,-2.2148c-0.41974,-0.5262 -0.9562,-0.9476 -1.43306,-1.42263c-1.38899,-1.38364 -2.73456,-2.73212 -4.24011,-3.99391c-0.47108,-0.3948 -1.01556,-0.71063 -1.4287,-1.16569c-0.40775,-0.44911 -0.58289,-1.08185 -1.00625,-1.51627c-1.15263,-1.18275 -1.90262,-1.34724 -3.32927,-1.94838c0,0 -1.39524,-0.59796 -0.79727,-1.99319c0.59797,-1.39523 1.9932,-0.79727 1.9932,-0.79727c2.00443,0.87111 2.59752,0.94717 4.33882,2.65249c0.44453,0.43534 0.6246,1.08649 1.03858,1.55097c0.31707,0.35575 0.76033,0.57515 1.12733,0.87913c0.62651,0.51893 1.25266,1.03931 1.85242,1.58895c0.0229,0.02098 2.54981,2.54807 2.59802,2.59645c0.54548,0.54744 1.15061,1.04177 1.63414,1.64461c0.59905,0.74684 1.04638,1.60417 1.59889,2.38607c0.50349,0.71252 1.094,1.36324 1.56807,2.09567c0.48427,0.74817 0.84268,1.57142 1.30045,2.33609c0.33957,0.56723 0.80978,1.05816 1.08997,1.65695c0.36322,0.7762 0.52012,1.63407 0.82479,2.43507c0.72385,1.90299 1.59231,3.75036 2.27577,5.66822c0.78614,2.20597 1.3456,4.50009 1.86848,6.7794c1.85675,7.42738 3.80613,14.79282 5.12991,22.32264c0.92221,5.24562 2.89811,10.10943 3.51119,15.41115c0.03697,-0.01013 0.07387,-0.02018 0.11068,-0.03013c0.34582,-0.35513 0.81817,-0.59966 1.12257,-0.99411c0.57881,-0.75006 0.99585,-1.61206 1.49585,-2.41678c0.8456,-1.36092 1.77307,-2.66971 2.62286,-4.02802c1.32125,-2.1119 2.46328,-4.39528 3.63623,-6.59225c0.339,-0.63496 1.60291,-3.2723 1.83159,-3.65356c0.35864,-0.59798 0.92423,-1.06636 1.22578,-1.69507c0.40981,-0.85444 0.56624,-1.8092 0.88332,-2.70221c0.52624,-1.48208 1.1289,-2.93978 1.56908,-4.44965c0.45192,-1.55018 0.76803,-3.14181 1.29901,-4.66672c0.52683,-1.51297 1.32601,-2.93111 1.75204,-4.4755c0.16088,-0.58319 0.10142,-1.21208 0.25747,-1.79659c0.19447,-0.72844 0.52542,-1.4134 0.78813,-2.12009c1.25418,-5.03189 2.30345,-10.34036 2.74778,-15.51655c0.69586,-8.10613 1.46996,-15.18992 8.42539,-20.28862l1.68476,2.548c0,0 0.48003,1.44006 -0.96005,1.92009c-0.51027,0.17009 -0.89998,0.0991 -1.19053,-0.06346c-1.41654,2.57304 -2.92682,3.49676 -3.68738,6.88011c-1.88762,8.39701 -2.0152,17.02196 -4.12131,25.42303c-0.2485,0.65653 -0.5648,1.29124 -0.74548,1.96957c-0.15442,0.57974 -0.09222,1.20406 -0.25374,1.78186c-0.45471,1.62659 -1.26914,3.13185 -1.82643,4.72623c-0.18075,0.51713 -0.26929,1.06208 -0.41561,1.58998c-0.27271,0.98387 -0.5551,1.96506 -0.84141,2.94506c-0.45728,1.56527 -1.07108,3.08056 -1.6229,4.61504c-0.36424,1.01285 -0.57178,2.08734 -1.03677,3.05806c-0.33203,0.69318 -0.93469,1.22439 -1.33026,1.88338c-0.01875,0.03122 -1.61394,3.25428 -1.74686,3.50337c-0.44342,0.8309 -0.91688,1.64543 -1.37074,2.47069c-0.78628,1.42974 -1.49612,2.90437 -2.36032,4.2884c-0.85409,1.36783 -1.78117,2.68907 -2.63918,4.05445c-0.14647,0.23306 -0.28577,0.46435 -0.4217,0.6928c0.65222,-0.21228 1.29827,-0.44763 1.9575,-0.63588c1.35116,-0.38587 2.73847,-0.63668 4.08967,-1.02242c0.54318,-0.15506 1.0589,-0.40385 1.60926,-0.53112c0.60585,-0.14009 1.23644,-0.14582 1.84617,-0.26791c1.22367,-0.24501 2.42459,-0.61564 3.6616,-0.78071c0.73314,-0.09783 1.48215,-0.08718 2.20594,-0.23941c1.42849,-0.30046 2.80391,-0.81373 4.19977,-1.2408c0.55839,-0.17084 1.09105,-0.43654 1.66476,-0.54545c0.86025,-0.16332 1.74938,-0.12378 2.61324,-0.2667c1.32141,-0.2186 2.55843,-0.83701 3.88378,-1.03021c0.59017,-0.08603 1.19861,0.08287 1.78923,0c0.55972,-0.07853 1.0784,-0.34109 1.62645,-0.47926c1.29983,-0.32771 2.41667,-0.43007 3.62647,-0.95349c0.70947,-0.30696 1.38363,-0.6898 2.07544,-1.03471c0.59641,-0.1704 1.2082,-0.29402 1.78922,-0.5112c0.9178,-0.34306 1.67398,-1.02295 2.46595,-1.59985c1.58074,-1.15143 3.28692,-2.15972 4.74008,-3.48418c0.53058,-0.48359 0.99316,-1.03832 1.52235,-1.52345c0.49052,-0.44967 1.04103,-0.83062 1.53363,-1.27802c0.98488,-0.89452 1.83881,-1.92642 2.82289,-2.82183c0.40352,-0.36715 0.87425,-0.65552 1.27802,-1.0224c0.54523,-0.49544 1.00232,-1.08503 1.56482,-1.56078c1.05259,-0.89027 2.26155,-1.58999 3.2804,-2.51869c0.97293,-0.88686 1.87325,-1.86243 2.92709,-2.65145c1.55816,-1.16661 2.00092,-1.27998 3.80777,-2.1862c0,0 1.35772,-0.67886 2.03656,0.67886c0.67885,1.3577 -0.67886,2.03656 -0.67886,2.03656c-1.58749,0.79109 -2.01749,0.90267 -3.34912,1.90342c-0.97268,0.73099 -1.79487,1.64328 -2.69621,2.46062c-0.52388,0.47507 -1.06938,0.92694 -1.62955,1.35863c-0.56241,0.43341 -1.1938,0.77598 -1.73574,1.23474c-0.54129,0.45822 -0.97778,1.02928 -1.50243,1.50647c-0.40358,0.36708 -0.87418,0.65562 -1.27802,1.0224c-1.27162,1.15497 -1.55918,1.67209 -2.80038,2.80146c-0.49219,0.44785 -1.04307,0.82837 -1.53362,1.27802c-0.53667,0.49193 -1.00561,1.05476 -1.54489,1.54382c-1.53147,1.3889 -3.3085,2.46408 -4.97286,3.67269c-0.46683,0.33899 -0.86703,0.76935 -1.35588,1.07572c-1.48898,0.9331 -1.95623,0.9471 -3.59066,1.41409c-0.67141,0.33671 -1.32291,0.71646 -2.01423,1.01013c-1.51919,0.64537 -2.37641,0.67824 -4.04164,1.09134c-0.65552,0.16262 -1.28363,0.44612 -1.95201,0.54315c-0.59022,0.08569 -1.19854,-0.08247 -1.78922,0c-0.55318,0.07723 -1.06764,0.32958 -1.60712,0.47422c-0.72224,0.19364 -1.43975,0.41659 -2.17719,0.54037c-0.82537,0.13854 -1.67586,0.09232 -2.49883,0.24451c-0.48557,0.0898 -0.93078,0.33098 -1.40249,0.47699c-1.49005,0.46124 -2.96447,0.99366 -4.49074,1.31525c-0.78616,0.16564 -1.59853,0.16565 -2.39491,0.27175c-1.18139,0.15738 -2.32657,0.51944 -3.4953,0.75291c-0.5718,0.11424 -1.16406,0.11248 -1.73228,0.24332c-0.49976,0.11507 -0.9649,0.35026 -1.45798,0.49126c-1.35103,0.38632 -2.7386,0.6362 -4.08965,1.02242c-1.14419,0.32708 -2.25418,0.77702 -3.41343,1.04582c-0.51307,0.11896 -1.0389,0.17396 -1.55834,0.26094c-0.35519,0.08881 -0.70476,0.22904 -1.0575,0.34032c0.27302,0.14695 0.53874,0.30864 0.80036,0.47376c0.59543,0.37581 1.10348,0.88414 1.7149,1.23335c0.54996,0.31411 1.19015,0.44481 1.7481,0.74448c0.65525,0.35194 1.1958,0.90935 1.87893,1.20356c0.44076,0.18983 0.96478,0.07601 1.42304,0.21854c0.59435,0.18485 3.08921,1.31266 3.69407,1.6991c0.74445,0.47562 1.40429,1.07274 2.12352,1.58569c1.6967,1.21007 3.40821,2.37581 5.11206,3.57846c1.73782,1.22663 2.47995,2.02535 4.40755,3.04463c0.52548,0.27786 1.12023,0.39892 1.67196,0.62016c0.61802,0.24782 1.22762,0.5163 1.83616,0.78657c2.50172,1.1111 5.02991,2.13127 7.47829,3.35379c9.05448,4.53399 19.4862,5.58472 29.40966,6.75211c4.87671,0.57369 9.72245,1.77982 14.64214,1.77818h1.27802c0,0 1.51797,0 1.51797,1.51797c0,1.51797 -1.51797,1.51797 -1.51797,1.51797h-1.27802c-5.04909,-0.0016 -10.00447,-1.21162 -15.00793,-1.80031c-10.28662,-1.21028 -21.01455,-2.36346 -30.40157,-7.0505c-2.40294,-1.20321 -4.89018,-2.19988 -7.34672,-3.2919c-0.57741,-0.25668 -1.1563,-0.51057 -1.7423,-0.74701c-0.62702,-0.25298 -1.29854,-0.40429 -1.89596,-0.7209c-2.35121,-1.24608 -2.76544,-1.84285 -4.80471,-3.28241c-1.7038,-1.20275 -3.4174,-2.36602 -5.11207,-3.57846c-0.66739,-0.47748 -1.27729,-1.03557 -1.96614,-1.48152c-0.35421,-0.22931 -2.62629,-1.26921 -2.95162,-1.36816c-0.5326,-0.16199 -1.1322,-0.07416 -1.64421,-0.29268c-0.79455,-0.33908 -1.44742,-0.94795 -2.21073,-1.35247c-0.58706,-0.31111 -1.25356,-0.45936 -1.83035,-0.78911c-0.19033,-0.10882 -0.37263,-0.23008 -0.55095,-0.35752c-0.00727,0.54508 -0.03183,1.09053 -0.00061,1.63451c0.08779,1.52978 0.31758,2.79941 0.71406,4.27962c0.49446,1.84598 1.26069,3.69121 1.98436,5.44758c0.08493,0.20614 1.54636,3.59249 1.58086,3.70909c0.25793,0.87191 0.34492,1.78575 0.54253,2.67326c0.14586,0.65509 0.30335,1.30812 0.48766,1.95346c0.15729,0.55073 0.42332,1.07089 0.53641,1.63237c0.1551,0.77006 0.10997,1.57145 0.26407,2.34171c0.189,0.94484 0.55305,1.84779 0.76219,2.78837c0.12773,0.57443 0.11482,1.17457 0.24649,1.7481c0.11286,0.49163 0.33602,0.95155 0.484,1.43376c0.19532,0.63645 0.36377,1.28084 0.54564,1.92127c0.07754,0.56533 0.07919,1.14636 0.23261,1.69596c0.31166,1.11646 1.51228,2.96345 1.9461,3.83105c0.28758,0.57515 0.466,1.20112 0.75901,1.77353c0.34665,0.67723 0.74845,1.32557 1.15614,1.96791c0.5606,0.88327 1.25148,1.68588 1.74748,2.60698c0.49199,0.91366 0.76514,1.93045 1.20259,2.87144c0.45403,0.97665 2.11115,3.80435 2.5069,4.50599c0.9148,1.62192 1.85501,3.22945 2.79904,4.83454c0.65322,1.11064 1.3509,2.19455 2.0262,3.29192c0.661,1.07412 1.23817,2.20411 1.9789,3.22489c0.71529,0.98572 1.6326,1.80784 2.46359,2.69821c0.70043,0.75048 1.36432,1.53424 2.0465,2.30136c0,0 1.00848,1.13454 -0.12606,2.14303c-1.13454,1.00848 -2.14302,-0.12606 -2.14302,-0.12606c-0.66248,-0.7456 -1.30688,-1.50767 -1.98743,-2.2368c-0.91656,-0.98199 -1.91316,-1.90212 -2.70423,-2.98776c-0.78905,-1.08287 -1.40854,-2.27968 -2.11075,-3.42078c-0.68792,-1.11787 -1.39788,-2.2225 -2.06345,-3.35381c-0.95277,-1.6195 -1.90114,-3.24179 -2.82424,-4.87839c-0.50786,-0.90042 -2.09176,-3.59253 -2.60517,-4.6957c-0.41613,-0.89417 -0.66557,-1.86475 -1.13274,-2.73335c-0.46316,-0.86115 -1.12106,-1.60321 -1.64402,-2.42941c-0.45768,-0.72309 -0.9045,-1.45515 -1.29634,-2.21593c-0.29979,-0.58204 -0.48183,-1.21934 -0.77462,-1.80492c-0.80179,-1.6036 -1.6429,-2.62841 -2.14355,-4.34825c-0.1773,-0.60904 -0.18573,-1.25499 -0.2786,-1.8825c-0.31738,-1.10315 -0.75591,-2.17243 -1.01519,-3.29067c-0.13924,-0.60053 -0.13104,-1.22856 -0.26471,-1.83035c-0.21233,-0.95603 -0.57941,-1.87457 -0.77143,-2.83488c-0.14854,-0.74286 -0.09966,-1.51612 -0.24714,-2.25918c-0.0983,-0.49531 -0.34723,-0.94932 -0.48602,-1.43484c-0.20174,-0.70578 -0.37582,-1.41959 -0.53476,-2.13623c-0.17939,-0.80887 -0.2475,-1.64354 -0.47988,-2.43881c-0.35101,-1.20128 -1.01011,-2.29045 -1.48639,-3.4478c-1.42209,-3.45578 -2.6984,-6.95334 -2.92486,-10.7211c-0.04258,-0.70831 -0.0059,-1.41918 -0.00232,-2.12875c0.00039,-0.07623 -0.00174,-0.1839 -0.00353,-0.31071c-0.20757,-0.00237 -0.4196,-0.01111 -0.62475,-0.01002c-0.00608,0.00798 -0.0122,0.01594 -0.01835,0.02389c-0.345,0.44512 -0.80321,0.78962 -1.20482,1.18443c-1.05446,2.15785 -2.3339,4.14231 -3.45563,6.26222c-0.29704,0.56134 -0.47327,1.18208 -0.77898,1.73874c-0.84766,1.54342 -1.94126,2.93908 -2.86502,4.43819c-1.2268,1.99085 -2.04829,4.20377 -3.33684,6.15654c-0.55432,0.84007 -1.2299,1.59635 -1.77674,2.44133c-0.38628,0.59688 -0.63832,1.27309 -1.01666,1.87504c-0.55594,0.88451 -1.17922,1.72497 -1.78224,2.57808c-0.41198,0.58285 -0.9099,1.10887 -1.26255,1.72942c-0.39423,0.69377 -0.62335,1.46965 -0.96506,2.19073c-0.44487,0.93876 -0.90768,1.86938 -1.39403,2.78735c-0.27706,0.52295 -0.6643,0.98833 -0.89505,1.53329c-1.07327,2.53458 -0.81588,2.92427 -1.5333,5.62389c-0.18684,0.70307 -0.5024,1.36791 -0.68567,2.0719c-0.40435,1.55321 -0.65912,3.14156 -0.99087,4.71187c-0.98405,7.8511 -4.29793,15.67508 -4.56351,23.63924c0.27351,0.2215 0.49469,0.57975 0.49469,1.15919c0,1.51797 -1.51797,1.51797 -1.51797,1.51797l-2.02917,-1.51797c0.03762,-8.5724 3.57058,-16.86848 4.62173,-25.29987c0.14166,-0.67505 1.02532,-4.89095 1.05392,-5.00105c0.18404,-0.70863 0.50131,-1.37788 0.68936,-2.08545c0.26008,-0.97859 0.38123,-1.99129 0.65334,-2.9666c0.29286,-1.04962 0.61674,-2.09507 1.03919,-3.09958c0.25719,-0.61156 0.68015,-1.13997 0.99038,-1.7264c0.46067,-0.87078 0.89864,-1.7537 1.32141,-2.64348c0.37779,-0.79512 0.64388,-1.64529 1.07976,-2.41013c0.88505,-1.55302 2.13986,-2.86871 3.08972,-4.38299c0.38403,-0.61224 0.64276,-1.29818 1.03533,-1.90499c0.55269,-0.8543 1.23209,-1.62133 1.79455,-2.46922c1.28076,-1.93067 2.09511,-4.13761 3.30885,-6.11242c0.88467,-1.43938 1.94736,-2.77014 2.75825,-4.25234c0.2991,-0.54671 0.47075,-1.1563 0.76246,-1.70699c1.03033,-1.94522 2.17711,-3.80445 3.21669,-5.74044c-1.95009,0.00056 -3.90913,-0.15518 -5.85227,-0.04211c-1.16122,0.06757 -2.3043,0.32032 -3.45395,0.49716c-1.65877,0.25518 -3.30257,0.5184 -4.91979,0.97976c-1.10233,0.31447 -2.13784,0.8281 -3.2078,1.23946c-0.48912,0.18805 -1.01046,0.28849 -1.49218,0.49474c-1.53591,0.65761 -2.99773,1.47681 -4.48152,2.24483c-0.86403,0.44722 -1.66454,1.03005 -2.57352,1.37688c-0.99351,0.37908 -2.0667,0.50315 -3.09211,0.78484c-0.85256,0.2342 -1.6903,0.51979 -2.54049,0.76244c-0.91229,0.26039 -1.84655,0.44628 -2.74647,0.74657c-2.23834,0.74691 -3.06302,1.36448 -5.30087,2.27624c-0.5144,0.20959 -1.05644,0.34361 -1.58467,0.5154c-2.00562,0.92739 -3.2977,1.58306 -5.3754,2.31769c-0.56502,0.19978 -1.17057,0.27447 -1.72995,0.48954c-0.51453,0.19783 -0.97048,0.52639 -1.47716,0.74355c-0.65622,0.28124 -1.35915,0.44825 -2.00646,0.74943c-0.58606,0.27268 -1.12003,0.64558 -1.68123,0.96632c-0.56224,0.32134 -1.15046,0.60034 -1.68907,0.95989c-0.43929,0.29326 -0.80753,0.68253 -1.23532,0.99231c-0.54085,0.39166 -1.09162,0.77226 -1.6677,1.10998c-0.49306,0.28906 -1.03956,0.47945 -1.53362,0.7668c-0.81381,0.47333 -2.53217,1.76335 -3.22248,2.23681c-0.72562,0.49767 -1.51259,0.90941 -2.20032,1.45825c-0.52611,0.41987 -0.94697,0.95683 -1.42265,1.43307c-1.35798,1.35961 -2.77715,2.93995 -3.46867,4.77829c-0.17979,0.47795 -0.12776,1.01328 -0.19164,1.51992c0,0 -0.21468,1.50271 -1.71739,1.28804c-1.50271,-0.21468 -1.28804,-1.71739 -1.28804,-1.71739c0.10652,-0.68617 0.07624,-1.40816 0.31956,-2.05853c0.85844,-2.29445 2.49781,-4.2572 4.19945,-5.95706c0.54676,-0.54619 1.04166,-1.15075 1.64462,-1.63417c0.75156,-0.60256 1.60731,-1.06242 2.40052,-1.60899c0.95802,-0.66013 2.39539,-1.76284 3.42322,-2.36406c0.49334,-0.28858 1.03925,-0.48 1.53363,-0.7668c0.48526,-0.28153 0.94654,-0.60388 1.39954,-0.93482c0.45456,-0.33208 0.85215,-0.74054 1.32073,-1.05255c0.07125,-0.04743 3.71106,-2.1281 3.78661,-2.16345c0.67202,-0.31447 1.40122,-0.49189 2.0832,-0.78417c0.544,-0.23314 1.03771,-0.57758 1.59009,-0.79011c0.59849,-0.23026 1.24368,-0.31977 1.84849,-0.53284c1.88409,-0.66373 3.42559,-1.43124 5.2497,-2.27161c0.53095,-0.17287 1.07573,-0.30794 1.59284,-0.5186c2.6534,-1.08097 2.72593,-1.41704 5.43447,-2.3246c0.94266,-0.31587 1.92096,-0.5137 2.8768,-0.78708c0.86042,-0.24608 1.70799,-0.53655 2.57158,-0.77118c0.92699,-0.25185 1.90063,-0.34636 2.79847,-0.6878c0.80626,-0.3066 1.50645,-0.84122 2.27125,-1.24015c1.55916,-0.81325 3.10411,-1.66282 4.7202,-2.35604c0.50886,-0.21827 1.05829,-0.32882 1.57505,-0.52764c1.14527,-0.44067 2.25811,-0.97903 3.4379,-1.31656c1.74485,-0.4992 3.51464,-0.78977 5.30435,-1.06511c0.10299,-0.01585 3.65502,-0.5224 3.70297,-0.52524c2.46686,-0.14654 4.95952,0.14571 7.42578,-0.00089c0.39598,-0.02353 0.78924,-0.07672 1.18213,-0.13387c0.0683,-0.09448 0.13618,-0.18842 0.20422,-0.28093l-0.00183,-0.30442c-0.07385,-0.06402 -0.14904,-0.12639 -0.22654,-0.18596c-0.55273,-0.42473 -1.1426,-0.79902 -1.70463,-1.21137c-0.65506,-0.48061 -1.25724,-1.03676 -1.94629,-1.46725c-0.6765,-0.42266 -1.49086,-0.61084 -2.13436,-1.08222c-0.70559,-0.51687 -1.1974,-1.28054 -1.86403,-1.84678c-0.42461,-0.36066 -0.92536,-0.62076 -1.3946,-0.92105c-0.6955,-0.44508 -1.42037,-0.84502 -2.09935,-1.31491c-0.4486,-0.31045 -0.82949,-0.71184 -1.27802,-1.0224c-0.66499,-0.46043 -1.39901,-0.81668 -2.05716,-1.28686c-1.00582,-0.71854 -1.8964,-1.60485 -2.96227,-2.23088c-1.59004,-0.9339 -3.5377,-1.8529 -5.11681,-2.8145c-0.77203,-0.47013 -1.46518,-1.06645 -2.25458,-1.50679c-0.86309,-0.48145 -1.80438,-0.80836 -2.68828,-1.25043c-0.7736,-0.3869 -1.49623,-0.87368 -2.28196,-1.23531c-0.44992,-0.20706 -0.94127,-0.30857 -1.41137,-0.46452c-0.01483,-0.00492 -3.39817,-1.13272 -3.83405,-1.27802c-10.87739,-3.62664 -22.03878,-5.54537 -33.51523,-5.54537l0.56213,0.06662c0,0 -1.07338,1.07335 -2.14673,-0.00002z" fill="#00ff2b" stroke="none" stroke-width="0.5"/><path d="M132.5,352.54601v-345.09202h375v345.09202z" fill="none" stroke="#000000" stroke-width="0"/></g></g></svg>