<svg version="1.1" xmlns="http://www.w3.org/2000/svg" xmlns:xlink="http://www.w3.org/1999/xlink" width="375" height="345.09202" viewBox="0,0,375,345.09202"><g transform="translate(-132.5,-7.45399)"><g stroke-miterlimit="10"><path d="M314.24848,183.20821l-0.22287,0.38998l-1.92843,0.48211h-1.26697l-0.03604,0.02404l-0.10815,-0.02404h-0.10741l-0.85977,-0.21494l-0.86511,-0.19226l-0.09608,-0.04804l-0.10747,-0.02687l-0.00525,-0.00916l-1.53269,-0.38316l-0.00003,-0.00003h-0.00006l-0.92333,-0.23086l-3.70639,-0.74129l-1.26545,-0.25307l-0.144,-0.06822l-0.15924,-0.00531l-1.70986,-0.48856l-0.95002,-0.23752l-0.13345,-0.07115l-0.15079,-0.0116l-2.27787,-0.75928l-0.23419,-0.14903l-0.271,-0.06023l-0.69177,-0.34588l-1.42698,-0.40769l-0.51741,-0.29849l-0.56252,-0.2009l-0.3295,-0.21969l-0.78982,-0.26329l-0.04181,0.01139l-0.095,-0.05699l-0.10194,-0.03397l-0.74765,-0.47578l-0.75993,-0.45594l-0.06362,-0.06362l-0.35122,-0.1756l-1.66749,-0.71463l-0.09232,-0.07016l-0.11321,-0.02515l-1.01241,-0.50621l-0.23228,-0.19911l-0.28464,-0.11213l-1.77166,-1.26548l-0.20901,-0.24536l-0.2764,-0.16585l-0.06365,-0.06365l-0.45264,-0.22632l-0.34042,-0.2918l-0.4038,-0.19494l-1.51859,-1.26548l-0.3283,-0.44925l-0.41173,-0.3743l-0.1959,-0.29383l-1.08887,-0.90738l-0.10522,-0.144l-0.15292,-0.09176l-0.48921,-0.48921l-0.44147,-0.29433l-0.25844,-0.28427l-0.32944,-0.19766l-1.26548,-1.26548l-0.00003,-0.00003l-0.00003,-0.00003l-0.50621,-0.50621l-0.16585,-0.2764l-0.24536,-0.20901l-1.26548,-1.77166l-0.02339,-0.0594l-0.04724,-0.04295l-0.29433,-0.4415l-0.48924,-0.48921l-0.31901,-0.53166l-0.40349,-0.47075l-0.47939,-0.95879l-0.06362,-0.06362l-0.31898,-0.53163l-0.40349,-0.47072l-0.50621,-1.01238l-0.06023,-0.27097l-0.14903,-0.23419l-0.23052,-0.69155l-0.73422,-1.95793l-0.02536,-0.22182l-0.10506,-0.19698l-0.21716,-0.86866l-0.20627,-0.61873l-0.0066,-0.08568l-0.04295,-0.07442l-0.48316,-1.6911l-0.2266,-0.67977v-0.00003v-0.00003l-0.2531,-0.75931l-0.02947,-0.383l-0.13866,-0.35823l-0.22422,-1.79366l-0.19661,-0.78643v-0.4748l-0.11515,-0.46063v-4.80884l0.11515,-0.46063v-0.4748l0.2531,-1.01238l0.03104,-0.05822l0.00219,-0.06594l0.50621,-1.77166l0.04292,-0.07439l0.0066,-0.08565l0.2266,-0.6798l0.48316,-1.6911l0.04295,-0.07442l0.0066,-0.08565l0.2531,-0.75928l0.2531,-0.75928l0.14903,-0.23419l0.06023,-0.271l1.01238,-2.02476l0.15863,-0.18504l0.08198,-0.22953l0.50621,-0.75928l1.01238,-1.51856l0.50614,-0.75925l0.50621,-0.75931l0.41173,-0.3743l0.3283,-0.44925l1.38415,-1.15345l0.48452,-0.48452l0.87896,-1.09868l0.47264,-0.36011l0.39969,-0.43965l0.4415,-0.29433l0.48921,-0.48921l0.18624,-0.11176l0.13163,-0.17279l1.09865,-0.87893l0.60824,-0.60824l0.62636,-0.37581l0.58155,-0.442l1.4462,-0.61978l0.1469,-0.09793l0.99544,-0.99544l0.53166,-0.31901l0.47075,-0.40349l0.79757,-0.39877l0.42021,-0.28013l0.96801,-0.77443l0.35517,-0.35517l0.40713,-0.24425l0.3357,-0.3357l0.85153,-0.51093l0.00781,-0.03909l0.09346,-0.05949l0.07593,-0.07593l0.75993,-0.45597l0.74768,-0.47578l0.10185,-0.03394l0.095,-0.05699l0.04181,0.01139l0.26057,-0.08686l1.27338,-0.63669l0.271,-0.06023l0.23422,-0.14903l0.75928,-0.2531l0.15079,-0.0116l0.13345,-0.07115l1.01238,-0.2531h0.4748l0.46063,-0.11515h0.17001l0.4614,-0.20062l1.51859,-0.2531l0.32135,0.0257l0.31275,-0.07819h0.18698l0.90522,-0.15088l0.47223,-0.15739l0.61815,-0.04755l0.60146,-0.15036h0.63959l0.16551,-0.05517l0.61818,-0.04755l0.60149,-0.15039h0.44008l0.90522,-0.15085l0.4722,-0.15739l0.30503,-0.02345l0.28056,-0.12197l1.51856,-0.2531l0.32132,0.0257l0.31275,-0.07819h0.38649l0.16551,-0.05517l0.08568,-0.0066l0.07445,-0.04295l1.77169,-0.50618l0.53765,-0.01793l0.52188,-0.13049h0.38649l0.92482,-0.30827l0.61818,-0.04755l0.60149,-0.15036h0.234l0.17177,-0.03817l0.85971,-0.21494h0.10753l0.10815,-0.02404l0.01675,0.01117l0.06652,-0.04233l0.75928,-0.2531l0.61815,-0.04755l0.60146,-0.15036h0.234l0.17171,-0.03817l0.85977,-0.21494h0.03141l0.0597,-0.01493l0.00525,-0.00916l0.10747,-0.02687l0.09608,-0.04804l0.86511,-0.19226l0.85977,-0.21494h0.10741l0.10815,-0.02404l0.03604,0.02404h4.05252l0.03604,-0.02404l0.10815,0.02404h0.10741l0.85977,0.21494l0.86511,0.19226l0.09608,0.04804l0.10747,0.02687l0.00525,0.00916l0.0597,0.01493h0.03138l0.60149,0.15036l0.61818,0.04755l2.27787,0.75928l0.75928,0.2531l0.64203,0.40858l0.29448,0.01638l0.32247,0.37621l0.41805,0.26603l0.05785,0.2892l0.49525,0.57782l0.25307,0.50621l0.43117,1.94047l-0.46162,0.69239l0.05724,0.83018l-1.33713,1.47082l-0.75928,0.50618l-0.37992,0.1357l-0.32706,0.23619l-1.26548,0.50621l-0.11487,0.01567l-0.09781,0.06223l-0.75928,0.2531l-0.15082,0.0116l-0.13348,0.07118l-0.60164,0.15039l-1.64608,0.82302l-0.5029,0.11176l-0.46557,0.22052l-0.91824,0.18365l-0.93669,0.37467l-0.17356,0.02367l-0.15057,0.08954l-2.53097,0.75928l-0.09176,0.00426l-0.08106,0.04323l-0.75845,0.1896l-2.13896,0.85558l-0.86888,0.43444l-0.08769,0.01947l-0.07078,0.05529l-2.19783,0.97681l-0.93401,0.46702l-0.41463,0.09213l-0.37476,0.19988l-0.49624,0.12407l-1.30973,0.74842l-0.36977,0.10401l-0.32407,0.20623l-0.75928,0.2531h-0.00003h-0.00003l-1.51856,0.50618l-0.92482,0.30827l-0.51167,0.38374l-0.5714,0.24061l-0.52305,0.33286l-1.02858,0.34286l-0.01176,0.00784l-0.23613,0.23613l-0.32941,0.19763l-0.25841,0.28424l-0.44153,0.29436l-0.23616,0.23616l-0.23802,0.1428l-0.17504,0.21543l-0.34107,0.25582l-0.00444,0.08025l-0.58047,0.49757l-0.34085,0.39766l-0.271,0.45165l-0.06736,0.06736l-0.0058,0.10435l-0.68992,0.59134l-0.64252,0.64252l-0.10451,-0.00222l-0.07232,0.06199l-0.19513,0.09756l-0.1399,0.10491l-0.07603,0.18053l-0.69507,0.92673l-0.95302,1.42951l-0.12629,0.11481l-0.07112,0.15514l-0.75715,0.94641l-0.32345,0.64694l-0.15859,0.18504l-0.08198,0.22953l-0.25989,0.38985l-0.6034,1.60902l-0.11694,0.16955l-0.04468,0.20105l-0.41565,0.83132l-0.61108,1.62954l-0.19979,0.79924l-0.03107,0.05822l-0.00219,0.06597l-0.35779,1.25228v1.87107l0.05517,0.16554l0.04755,0.61818l0.15036,0.60149v0.94626l0.20062,1.20368v0.00003l0.00003,0.00003l0.16816,1.00908l0.1178,0.53012l0.23391,0.57415l0.16458,1.15206l0.22626,0.45249l0.07834,0.35255l0.18047,0.31284l0.40772,1.42701l0.09278,0.18556l0.25307,0.50614l0.09213,0.41463l0.19988,0.37476l0.09108,0.36434l0.13564,0.20346l0.08195,0.2295l0.15859,0.18504l0.50618,1.01235l0.2531,0.50618v0.00006l0.00003,0.00003l0.25307,0.50614l0.47939,0.95879l0.06365,0.06365l0.01126,0.01876l0.06776,0.01907l0.45082,0.84527l0.49285,0.82145l-0.01851,0.06791l0.01031,0.01928l0.07837,0.31346l0.17263,0.17263l0.19763,0.32941l0.28424,0.25841l0.80056,1.20084l0.40907,0.40907l2.02405,1.79915l6.61826,4.62028l0.03953,-0.19756v-0.12428l0.09318,-0.37267l-0.01827,-0.38371l0.2531,-1.26548l0.10435,-0.22027l0.0187,-0.24304l0.20623,-0.6187l0.21716,-0.86863l0.19988,-0.3748l0.09213,-0.41466l0.18137,-0.3627l0.40454,-1.01133l0.21725,-0.65175l0.45934,-1.37801l0.21719,-0.86869l0.19988,-0.3748l0.07547,-0.33956l0.16819,-1.00911l0.12197,-0.2805l0.02345,-0.30497l0.25307,-0.75928l0.00003,-0.00003v-0.00003l0.45934,-1.37804l0.10201,-0.40806v-0.28448l0.17717,-0.70865l0.0987,-0.72376l0.46409,-1.16024l0.21725,-0.65178l0.14903,-0.23422l0.06023,-0.271l0.50621,-1.01238l0.00003,-0.00003v-0.00006l0.2531,-0.50621l0.11265,-0.13141l0.05227,-0.16501l2.02476,-3.29025l0.32422,-0.31703l0.23329,-0.38883l1.77169,-1.77166l0.32938,-0.19763l0.25838,-0.28424l0.6702,-0.44681l0.39824,-0.29868l0.13974,-0.2096l0.48322,-0.43928l0.41182,-0.50682l0.7931,-0.59479l0.31238,-0.31238l0.23805,-0.14283l0.17507,-0.21546l1.01238,-0.75928l0.10096,-0.04252l0.07368,-0.08106l0.75928,-0.50621l0.00006,-0.00003l0.00003,-0.00003l0.44147,-0.29429l0.23607,-0.2361l0.23808,-0.14286l0.1751,-0.21549l1.01238,-0.75928l0.5714,-0.24061l0.52308,-0.33286l0.4992,-0.1664l0.67147,-0.33573l1.56342,-0.89337l0.64873,-0.43249l0.31197,-0.11142l0.26103,-0.20395l2.1978,-0.97681l0.93401,-0.46702h0.00003l0.00003,-0.00003l1.01238,-0.50618l2.02473,-1.01238l0.41466,-0.09216l0.3748,-0.19988l0.60164,-0.15042l1.64608,-0.82306l0.271,-0.06023l0.23422,-0.14903l0.75928,-0.2531l0.08565,-0.0066l0.07442,-0.04292l1.77169,-0.50621l0.06594,-0.00219l0.05819,-0.03104l1.01238,-0.2531l0.79927,-0.19982l1.81908,-0.68214l0.07279,-0.00833l0.0618,-0.03934l1.51859,-0.50621l0.08565,-0.0066l0.07442,-0.04295l1.77166,-0.50621l0.06594,-0.00219l0.05819,-0.03104l0.95005,-0.23752l1.62933,-0.46551l0.67977,-0.2266l0.61815,-0.04755l0.60149,-0.15036h0.77227l1.6467,-0.20583l1.12732,-0.22546l0.65227,0.03107l0.64956,-0.0672l1.50032,0.21432h0.48519l0.66906,0.16726l0.6852,0.07831l2.02476,0.75928l0.36622,0.25258l0.41895,0.14962l0.20343,0.13561l0.3643,0.09108l0.50324,0.26841l0.54564,0.16606l0.90245,0.54147l0.35764,0.11922l0.43459,0.27658l0.48513,0.17325l1.51859,1.01238l0.75928,0.50618l0.75928,0.50618l0.14098,0.15508l0.18874,0.09111l1.51859,1.26548l0.10522,0.14397l0.15292,0.09173l1.75472,1.75472l0.44153,0.29436l0.43925,0.48319l0.50682,0.41179l0.59482,0.7931l1.07165,1.07165l0.75928,0.75925l0.09176,0.15292l0.144,0.10522l1.26548,1.51859l0.19494,0.4038l0.29183,0.34045l0.37088,0.74172l1.08958,1.52544l0.02339,0.05936l0.04724,0.04292l0.50621,0.75928l0.17328,0.48516l0.27658,0.43462l0.13234,0.39698l0.8229,1.44009l0.02968,0.10549l0.07131,0.08322l0.50621,1.01238l0.06023,0.271l0.14903,0.23419l0.4195,1.25854l0.38362,0.76721l0.06023,0.271l0.14903,0.23422l0.2531,0.75931l0.0116,0.15076l0.07115,0.13342l0.47026,1.88107l0.20627,0.61877l0.0116,0.15079l0.07115,0.13345l0.47026,1.88107l0.20627,0.61877l0.04755,0.61818l0.15036,0.60149v0.77227l0.19442,1.5554l0.19661,0.78643v0.4748l0.11515,0.46063v3.79645l-0.05912,0.23644l0.02931,0.24193l-0.2531,2.02476l-0.05196,0.13422l0.00685,0.14378l-0.22546,1.12729l-0.20583,1.64667v1.02537l-0.11515,0.46063v0.4748l-0.19661,0.78643l-0.19442,1.5554v0.51917l-0.05267,0.21071l0.0291,0.21521l-0.2531,2.27787l-0.03746,0.10086l0.00858,0.10728l-0.2531,1.51859l-0.02546,0.05856l0.00302,0.06378l-0.50621,2.53097l-0.15276,0.32247l-0.0482,0.35354l-0.46409,1.16024l-0.47035,1.41106l-0.71244,2.13732l-0.21716,0.86869l-0.12484,0.2341l-0.03585,0.26288l-0.43293,1.08233l-0.45199,1.58199l-0.18047,0.31281l-0.07834,0.35252l-0.13049,0.26097l-0.1664,0.49923l-0.21833,0.34308l0.00901,0.16224l-0.19494,0.12996l-0.66295,1.04176l-1.28548,0.25711l-1.09078,0.72716l-1.20541,-0.26791l-0.22975,0.04594l-0.10833,-0.12107l-0.39695,-0.08821l-0.50621,-0.2531l-0.69507,-0.59581l-0.29513,-0.07248l-0.20602,-0.35708l-0.31299,-0.26828l-0.01685,-0.30343l-0.45749,-0.79297l-0.48316,-1.6911l-0.71022,-2.13063l-0.71951,-1.91865l-1.50301,-3.75752l-0.00849,-0.06227l-0.03514,-0.05208l-1.01238,-2.78407l-0.01172,-0.11253l-0.05782,-0.09725l-0.70991,-2.36636l-1.45475,-3.6369l-0.03585,-0.26288l-0.12484,-0.2341l-0.21719,-0.86869l-0.67662,-2.02985l-0.46409,-1.16024l-0.01567,-0.1149l-0.06227,-0.09784l-0.67261,-2.01782l-0.38362,-0.76721l-0.09213,-0.41463l-0.19988,-0.3748l-0.17816,-0.71256l-0.59291,-1.38341l-0.20241,-0.40479l-0.06023,-0.27103l-0.14906,-0.23422l-0.16643,-0.49926l-0.35681,-0.71358l-0.06362,-0.06362l-0.31898,-0.53166l-0.40349,-0.47075l-0.65187,-1.30374l-0.37297,-0.55943l-0.00003,-0.00006l-0.00006,-0.00003l-0.39189,-0.58785l-1.02158,-1.2259l-4.74438,-4.74438l-0.60102,-0.45076l-1.56317,-0.89325l-0.098,-0.09392l-0.12783,-0.04567l-0.55949,-0.37301l-0.41895,-0.20947l-1.61405,-0.40352l-0.37473,-0.19988l-0.4146,-0.09213l-0.70423,-0.35212h-0.10191l-0.60152,-0.15039l-0.61818,-0.04755l-0.16551,-0.05517h-1.14574l-0.46063,-0.11515h-0.4748l-0.55178,-0.13795h-0.0104l-1.45592,0.20799l-1.47431,0.24573l-0.32135,-0.0257l-0.31275,0.07819h-0.13345l-0.16557,0.05517l-0.08562,0.00657l-0.07439,0.04292l-1.6911,0.48316l-0.6798,0.2266l-0.61818,0.04755l-0.43228,0.10805l-1.89678,0.86218l-3.08466,1.89826l-0.35798,0.11336l-0.30914,0.21318l-1.60909,0.60343l-0.38985,0.25989l-0.75928,0.50618l-0.37995,0.1357l-0.32706,0.23623l-0.53043,0.21219l-0.45258,0.45261l-0.23808,0.14283l-0.17507,0.21546l-1.80548,1.3541l-0.56548,0.56548l-0.18624,0.11173l-0.13163,0.17276l-1.09865,0.87893l-0.35514,0.35514l-0.18627,0.11176l-0.13166,0.17279l-0.79788,0.6383l-0.12311,0.18467l-0.71207,1.18677l-0.06649,0.06649l-0.03163,0.08855l-0.50621,0.75931l-0.28427,0.25844l-0.19769,0.32944l-0.06359,0.06359l-0.22626,0.45252l-0.40352,0.47078l-0.31901,0.53166l-0.45079,0.45079l-0.24261,0.28303l-0.22253,0.37088l-0.08815,0.22037l0.00204,0.00747l-0.01506,0.02509l-0.15387,0.38473l-0.45443,0.62919l-0.39929,0.66554l-0.13987,0.1399l-0.03946,0.12971l-0.54144,0.90238l-0.03968,0.11904l0.01142,0.04181l-0.05702,0.095l-0.03391,0.10173l-0.47581,0.74774l-0.24952,0.41586l-0.02101,0.06307l1.16715,-0.2918l1.48764,-0.63756l0.56082,-0.09044l0.25789,-0.09577l1.10544,-1.54765l1.51319,-1.28903l3.86705,0.39229l0.63623,1.38215l0.36637,0.12212l0.00003,0.00003h0.00006l2.27784,0.75928l0.00003,0.00003h0.00003l0.75928,0.2531l0.23416,0.14903l0.27097,0.0602l0.18272,0.09136l0.30309,0.06736l1.62507,0.23215l0.32466,0.13228l0.34956,0.02687l3.03714,1.01238l0.30463,0.19386l0.34875,0.09358l2.27787,1.26548l2.27787,1.26548l0.0482,0.04508l0.06313,0.01922l1.26548,0.75931l0.06649,0.06649l0.08855,0.03163l2.27784,1.51856l0.25841,0.28427l0.32941,0.19766l0.84259,0.84259l1.90449,1.48125l1.06579,0.6395l0.2565,0.2565l0.32148,0.16804l2.20304,1.95824l1.1873,0.94984l0.13163,0.17276l0.18624,0.11176l2.02476,2.02476l1.01238,1.01235l1.77169,1.77166l0.11176,0.18624l0.17276,0.13163l1.01235,1.26545l1.01238,1.26545l0.12666,0.27634l0.21034,0.21947l0.75613,1.32321l0.39405,0.39405l0.22651,0.37751l0.31691,0.30559l1.26548,2.02476l0.05761,0.1776l0.12151,0.14175l0.39877,0.7976l0.37297,0.55946l0.11999,0.33604l0.21589,0.28408l0.61978,1.4462l0.30978,0.46464l0.2009,0.56249l0.29846,0.51734l0.50621,1.77166l0.00219,0.06594l0.03104,0.05819l0.2531,1.01238v0.20247l0.0764,0.18751l0.2531,1.77166l-0.02857,0.27612l0.06733,0.2693v1.01238l-0.04749,0.19l0.02836,0.19377l-0.23394,2.33955v0.82003l-0.12493,0.49976l-0.01095,0.51503l-0.75928,2.78404l-0.10966,0.1955l-0.0303,0.22209l-0.46409,1.16024l-0.72346,2.17034l-0.22805,0.35835l-0.12367,0.40636l-1.51859,2.53097l-0.14317,0.14317l-0.07856,0.18658l-0.69507,0.92676l-1.40831,2.11245l-0.71207,1.18677l-0.14317,0.14317l-0.07859,0.18661l-0.75928,1.01238l-0.027,0.02194l-0.01407,0.03181l-1.77166,2.27787l-0.03851,0.03018l-0.02086,0.04425l-2.22628,2.72104l-0.71044,0.94722l-0.21546,0.17504l-0.14283,0.23805l-4.04953,4.04953l-0.18624,0.11173l-0.13163,0.17276l-1.26548,1.01238l-0.02471,0.01132l-0.01675,0.02138l-2.27787,1.77169l-0.07381,0.03261l-0.05233,0.06143l-1.63291,1.16635l-1.64216,1.40757l-0.1149,0.05745l-0.08103,0.09969l-1.01241,0.75928l-0.0598,0.02518l-0.04255,0.049l-2.53097,1.77166l-0.08124,0.0311l-0.05986,0.0631l-2.78404,1.77166l-0.04946,0.01648l-0.03687,0.03687l-1.26548,0.75928l-0.21358,0.06501l-0.17476,0.13891l-2.78407,1.26548l-0.20256,0.03721l-0.17374,0.11058l-2.27784,0.75928l-0.08568,0.0066l-0.07442,0.04295l-3.54335,1.01238l-0.22188,0.00741l-0.20361,0.08852l-6.01295,1.00217l-1.20448,0.24088l-0.38371,-0.01827l-0.37267,0.09318h-4.04953l-0.21071,-0.05267l-0.21521,0.0291l-4.34342,-0.4826h-0.79877l-0.41207,-0.10302l-0.42459,0.01117l-2.27784,-0.50621l-0.18109,-0.09053l-0.20185,-0.01552l-0.49929,-0.16643l-2.5144,-0.45715l-0.117,-0.05295h-0.12842l-0.78649,-0.19661l-1.79372,-0.22422l-0.46255,-0.17905l-0.49146,-0.06702l-1.16024,-0.46409l-0.00614,-0.00204l-0.07782,-0.01728h-0.10747l-0.85974,-0.21494l-0.86511,-0.19226l-0.09611,-0.04807l-0.10747,-0.02687l-0.02151,-0.03761l-1.2935,-0.64675l-0.00003,-0.00003h-0.00003l-0.50618,-0.2531l-0.18498,-0.15856l-0.22947,-0.08195l-0.55962,-0.37304l-0.29152,-0.14576l-1.50918,-1.29369l-0.00842,-0.15199l-0.13215,-0.07553l-0.48211,-1.92843v-0.50621l0.39207,-1.56826l-0.01172,-0.17001l0.07479,-0.08229l0.02697,-0.10787l0.14798,-0.08454l1.08739,-1.19612l0.75928,-0.50618l0.33601,-0.11999l0.28408,-0.21589l1.66752,-0.71466l1.92337,-0.96169l0.271,-0.06023l0.23422,-0.14906l2.27787,-0.75928l0.08562,-0.00657l0.07439,-0.04292l1.77166,-0.50621h0.00003l1.64096,-0.46884l2.6563,-0.96591l0.05326,-0.00555l0.04517,-0.02876l1.41103,-0.47032l1.11658,-0.44666l1.6243,-0.69612l1.82763,-0.91383l1.64315,-0.93892l1.23031,-0.73817l0.25381,-0.07726l0.21123,-0.16054l1.66749,-0.71463l2.11853,-1.05928l2.75893,-2.06919l0.154,-0.06486l0.11598,-0.12027l2.02476,-1.26548l1.88585,-1.17863l0.88128,-0.66097l1.80548,-1.35413l0.81858,-0.81858l0.11256,-0.06754l0.07488,-0.10784l2.02476,-1.77166l0.30948,-0.15872l0.24594,-0.24594l0.96968,-0.5818l1.55679,-1.36218l1.33836,-1.56141l1.51856,-1.77166l0.12336,-0.08754l0.07782,-0.12971l0.65453,-0.65453l1.23352,-1.43914l1.01476,-1.62359l0.42426,-0.84851l0.0984,-0.11481l0.04403,-0.14465l0.60028,-1.0005l0.39146,-0.97856l0.0958,-0.13265l0.03548,-0.15971l0.22629,-0.45261l0.16458,-1.15209l0.13228,-0.32469l0.02691,-0.34956l0.42342,-1.27027v-0.47023l0.25307,-1.01238l0.07118,-0.13348l0.0116,-0.15082l0.2531,-0.75928l0.05517,-0.0867v-0.21222l0.11515,-0.46063v-0.4748l0.13792,-0.55175v-1.39878l-0.09898,-0.19797l-0.11176,-0.5029l-0.22055,-0.46557l-0.20602,-1.03006l-0.17717,-0.53154l-0.02345,-0.30497l-0.12197,-0.2805l-0.2278,-1.36666l-0.17982,-0.71926l-0.11956,-0.35872l-0.63672,-1.27341l-0.02515,-0.11321l-0.07016,-0.09235l-0.61978,-1.4462l-0.30978,-0.46464l-0.17325,-0.48513l-0.27658,-0.43462l-0.47035,-1.41106l-0.40451,-1.01127l-0.32706,-0.65409l-0.37301,-0.55949v-0.00003l-0.00003,-0.00003l-0.50621,-0.75931l-0.08195,-0.22947l-0.15859,-0.18501l-0.09759,-0.19516l-0.55064,-0.73422l-0.07856,-0.18655l-0.14314,-0.14314l-0.45304,-0.75508l-0.75502,-0.45301l-0.21321,-0.21321l-0.27155,-0.13107l-1.36033,-1.13358l-0.58788,-0.39192l-1.47138,-0.98091l-1.82131,-1.1383l-1.33497,-0.66749l-0.6789,-0.15088l-0.67597,-0.0676l-0.16979,1.52828v1.81115l-0.04749,0.19l0.02836,0.19377l-0.2531,2.53097l-0.01654,0.04604l0.00589,0.04857l-0.2531,2.02476l-0.01256,0.03243l0.00358,0.03459l-0.25307,1.77166l-0.27328,0.67082l-0.19611,0.69732l-0.95928,1.67873l-1.47067,2.94137l-0.12148,0.14172l-0.05758,0.17757l-1.26548,2.02479l-0.19186,0.18501l-0.11586,0.23999l-1.26548,1.51856l-0.14397,0.10522l-0.09173,0.15289l-2.27787,2.27787l-2.02476,2.02476l-2.78404,2.78404l-0.2008,0.12049l-0.14354,0.18501l-3.36205,2.64162l-2.87411,2.87411l-0.23805,0.14283l-0.17504,0.21546l-1.9085,1.43136l-1.91535,1.67598l-0.0776,0.0398l-0.05285,0.06936l-2.53097,2.02476l-1.26548,1.01238l-0.2071,0.09491l-0.15813,0.16399l-2.02479,1.26548l-0.26125,0.08473l-0.21645,0.16909l-2.27787,1.01238l-0.38248,0.06692l-0.34727,0.17365l-2.27787,0.50621l-0.04215,-0.00111l-0.03811,0.01805l-2.53097,0.50621h-0.00003h-0.00003l-2.53097,0.50618l-0.19183,-0.00913l-0.18075,0.06489l-2.34328,0.23434l-1.08054,0.21611l-0.38371,-0.01827l-0.37267,0.09318h-5.06191l-0.46063,-0.11515h-0.4748l-2.94813,-0.73703l-2.44097,-0.48819l-0.05264,-0.02493l-0.05822,0.00105l-3.29025,-0.75928l-0.30926,-0.15779l-0.34277,-0.05529l-3.52546,-1.51091l-3.01919,-1.25799l-0.16473,-0.12259l-0.19874,-0.05168l-2.78404,-1.51859l-0.05974,-0.05505l-0.07772,-0.02367l-1.13845,-0.68307l-2.39848,-1.19924l-0.56573,-0.48492l-0.61201,-0.425l-1.77166,-2.02476l-0.08081,-0.15758l-0.13579,-0.11367l-1.92257,-2.64356l-1.65725,-1.894l-0.00926,-0.01802l-0.01651,-0.01172l-1.51859,-1.77166l-0.17532,-0.35067l-0.26782,-0.2863l-1.26548,-2.27787l-0.09358,-0.34875l-0.19386,-0.30463l-0.75928,-2.27787l-0.0046,-0.05983l-0.03067,-0.05156l-0.75928,-2.53097l-0.0012,-0.02607l-0.01305,-0.02262l-0.50621,-1.77166l-0.00741,-0.22188l-0.08852,-0.20361l-0.2531,-1.51859l0.00645,-0.08044l-0.02913,-0.07526l-0.24891,-1.99119l-0.24832,-1.73818l0.02857,-0.27612l-0.06733,-0.2693v-1.30495l-0.2295,-2.06558l0.0291,-0.21521l-0.05267,-0.21071v-4.30263l0.05267,-0.21071l-0.0291,-0.21521l0.2531,-2.27784l0.03746,-0.10086l-0.00858,-0.10725l0.2531,-1.51859l0.12197,-0.28056l0.02345,-0.30503l0.75928,-2.27784l0.75928,-2.27787l0.75928,-2.27787l0.07288,-0.11453l0.01969,-0.13431l1.73673,-4.21775l1.2346,-3.45693l0.15937,-0.23906l0.09806,-0.39217l0.26396,-0.15085l0.58125,-0.87187l1.37175,-0.24412l1.1578,-0.66159l0.6079,0.34736l0.6893,-0.12268l0.86783,1.01247l1.20973,0.69127l0.25415,1.01658l0.19784,0.23083l-0.03956,0.40229l0.06967,0.27874v0.29257l0.45397,4.0856l0.37979,1.51914l0.91516,2.28793l0.02367,0.17356l0.08954,0.15057l0.70991,2.36636l0.94857,2.37142l0.01567,0.1149l0.06227,0.09784l0.4195,1.25854l1.1429,2.2858l0.03551,0.15977l0.09584,0.13268l0.9528,2.382l0.94064,1.88126l0.01947,0.08766l0.05529,0.07078l0.90226,2.0301l1.12176,1.79486l0.09266,0.28569l0.18174,0.23913l0.68159,1.59036l1.09387,1.96898l0.81152,1.21726l1.13358,1.3603l0.01725,0.0357l0.03153,0.02404l0.74468,0.93083l2.19632,1.75707l0.13163,0.17276l0.18624,0.11173l0.36656,0.36656l2.09502,1.14274l2.21267,0.88507l2.17034,0.72346l0.23419,0.14903l0.271,0.06023l1.40952,0.70476l1.3819,0.15353h4.5952l0.173,0.04326l0.17618,-0.0274l2.60983,0.23724h1.9741l2.02621,-0.40525l2.65587,-0.72435l0.09402,-0.00201l0.08411,-0.04206l2.22834,-0.49519l1.97552,-0.4939l1.5463,-0.38658l2.35109,-1.28242l0.06837,-0.01777l0.05366,-0.04597l1.3861,-0.69306l0.79828,-0.47896l2.85871,-2.63881l3.91293,-4.40201l1.59539,-1.82331l1.37844,-2.06765l1.38536,-2.07808l1.61359,-3.22718l0.05832,-0.1361l-0.23971,0.15983l-0.12786,0.04567l-0.09803,0.09392l-1.77169,1.01241l-0.92494,0.26014l-0.22644,0.20259l-0.38778,-0.02984l-0.37439,0.10531l-0.26177,-0.15424l-0.04397,-0.00339z" fill="#00ff2b" stroke="none" stroke-width="0.5"/><path d="M132.5,352.54601v-345.09202h375v345.09202z" fill="none" stroke="#000000" stroke-width="0"/></g></g></svg>