<svg version="1.1" xmlns="http://www.w3.org/2000/svg" xmlns:xlink="http://www.w3.org/1999/xlink" width="375" height="345.09202" viewBox="0,0,375,345.09202"><g transform="translate(-132.5,-7.45399)"><g stroke-miterlimit="10"><path d="M308.48557,143.89144c0,0.98826 -0.37371,1.60281 -0.8385,1.98494c0.27749,0.6737 0.34013,1.59163 -0.51104,2.57581c-0.99014,1.14485 -2.06991,1.05313 -2.80332,0.77321c-3.74086,4.16796 -7.6188,8.18361 -11.10273,12.6954c-2.87465,3.72273 -3.74389,6.88387 -9.4556,6.30015c-3.55715,-0.36353 -7.84633,-4.9662 -10.2691,-7.38084c-1.21554,-1.21595 -2.40201,-2.46168 -3.64663,-3.64786c-2.15678,-2.05557 -5.85084,-4.56477 -6.47878,-7.86512c-0.72492,-3.8102 1.46936,-4.94538 3.49648,-7.19795c2.41178,-2.68001 4.12907,-5.82097 6.25102,-8.7114c0.0369,-0.05028 3.67621,-4.42041 3.72831,-4.47558c2.02573,-2.14549 4.28807,-4.87743 7.83932,-4.35363c1.00315,0.14796 6.66733,6.18761 6.8119,6.33517c1.1943,1.2188 2.33839,2.48882 3.58205,3.65719c2.77898,2.61079 5.73822,5.0701 8.66913,7.5381l2.11411,-0.84091c0,0 2.61334,0 2.61334,2.61334zM300.22734,145.9768c-2.94787,-2.48346 -5.92151,-4.96018 -8.71711,-7.58658c-1.29588,-1.21746 -2.49072,-2.53816 -3.73569,-3.80761c-1.2193,-1.24328 -2.52154,-2.41044 -3.65713,-3.73061c-0.27894,-0.32428 -0.14118,-1.03193 -0.54941,-1.15969c-0.35886,-0.11231 -0.60333,0.45242 -0.8729,0.71459c-0.68273,0.664 -1.34415,1.35078 -1.97991,2.05987c-1.18144,1.31773 -2.35399,2.65036 -3.39978,4.07812c-1.622,2.2144 -3.00141,4.60156 -4.65116,6.79539c-0.60339,0.80236 -1.24238,1.58048 -1.92837,2.31345c-0.55731,0.59546 -1.28723,1.02476 -1.79402,1.66376c-0.24674,0.31107 -0.54924,0.74507 -0.41197,1.11763c0.51052,1.38553 4.5254,4.58524 4.92618,4.96545c1.28058,1.21483 2.4967,2.49584 3.74504,3.74374c1.78353,1.79028 4.75387,5.29943 7.28755,5.89901c2.39313,0.5663 3.88423,-3.32515 4.56705,-4.26794c3.37373,-4.65803 7.37503,-8.62972 11.17162,-12.7986z" fill="#00ff2b" stroke="none" stroke-width="0.5"/><path d="M315.84795,153.4429c1.49711,-2.14202 3.63912,-0.64493 3.63912,-0.64493l1.65598,1.16072c5.85229,4.52538 11.48892,10.19749 16.66341,15.50614c2.45777,2.52149 5.86172,5.84543 5.17106,9.99317c-0.2356,1.41494 -1.84738,2.19491 -2.77108,3.29237c-0.50289,0.56603 -4.69932,5.26974 -5.28707,6.00484c-1.0924,1.36632 -2.04091,2.84461 -3.14945,4.19784c-1.02698,1.25367 -2.15968,2.41694 -3.25082,3.61521c-2.45371,2.69464 -3.33778,4.75905 -8.13505,3.26736c-1.80368,-0.56084 -2.8431,-2.49312 -4.35359,-3.62727c-1.33393,-1.00158 -2.79809,-1.81788 -4.16735,-2.77062c-1.37091,-0.95391 -2.66236,-2.02057 -4.0513,-2.94799c-2.15134,-1.4365 -7.84781,-3.95252 -8.11694,-7.38751c-0.09084,-1.15951 5.92991,-7.23874 6.382,-7.72001c1.19283,-1.26985 2.3852,-2.5401 3.57856,-3.80945c1.72959,-1.83975 4.01774,-3.99941 5.3987,-6.24531c0.57705,-0.93846 0.97714,-1.97483 1.46859,-2.96081c0.64434,-1.29266 1.29132,-2.58398 1.93765,-3.87564c-0.16761,-0.13083 -0.33566,-0.26064 -0.50408,-0.38947l-1.46343,-1.01949c0,0 -2.14202,-1.49709 -0.64493,-3.63912zM322.57723,161.94617c-0.45936,0.91956 -0.91885,1.83904 -1.37963,2.75789c-0.56398,1.12465 -1.03329,2.30262 -1.69741,3.37121c-1.71631,2.76167 -3.79919,4.69389 -6.0353,7.07608c-0.01733,0.01846 -7.17913,7.6424 -7.18097,7.64393c-0.35721,0.29708 -1.44597,-0.16259 -1.36241,0.29445c0.09377,0.51272 1.03706,0.20478 1.49813,0.4478c1.48109,0.78066 2.90045,1.6776 4.29419,2.60525c1.41892,0.94442 2.73796,2.03171 4.13647,3.00607c1.44298,1.00534 3.01226,1.83423 4.38637,2.93181c0.84766,0.67708 2.36622,3.90909 4.30001,2.60663c0.51265,-0.3453 0.63676,-1.06532 1.0316,-1.54089c1.00674,-1.21253 2.16598,-2.29353 3.16446,-3.51287c1.09932,-1.34248 2.03824,-2.81026 3.12254,-4.16487c0.71179,-0.88922 4.89267,-5.56666 5.54835,-6.30396c2.88437,-1.88576 -0.22922,-3.96623 -2.30781,-6.01887c-3.73573,-3.68909 -7.52838,-7.63621 -11.51861,-11.19966z" fill="#00ff2b" stroke="none" stroke-width="0.5"/><path d="M312.70977,205.83998c1.84792,1.8479 0,3.6958 0,3.6958l-1.10354,1.08786c0.13368,0.08848 0.26646,0.17806 0.39788,0.26938c0,0 2.14095,1.49865 0.64227,3.63958c-1.49865,2.14093 -3.63958,0.64227 -3.63958,0.64227c-0.27908,-0.19663 -0.56339,-0.38663 -0.84948,-0.57441c-4.44777,4.97375 -9.52712,9.43452 -15.30053,12.7719c-4.18684,2.42026 -8.56514,6.03846 -13.84155,4.02349c-2.30871,-0.88166 -5.86406,-6.6855 -7.1166,-8.84128c-0.48788,-0.81034 -0.92926,-1.65058 -1.46364,-2.43105c-1.00373,-1.46594 -2.28368,-2.74894 -3.1465,-4.30199c-0.91484,-1.64667 -2.21166,-3.34463 -2.14754,-5.22728c0.05632,-1.65345 4.33998,-5.40758 5.30098,-6.45237c1.99941,-2.17379 3.73145,-4.58227 5.70757,-6.77724c0.02858,-0.03174 4.2721,-4.27632 4.35206,-4.35524c1.20099,-1.18524 2.16234,-2.6863 3.61692,-3.54147c1.66085,-0.97643 3.57496,-2.03495 5.48859,-1.81167c1.74675,0.2038 6.44309,6.06031 7.18329,6.90575c2.7929,3.18999 2.86593,3.21541 5.7787,6.86287c1.6652,2.08526 3.06597,4.12686 4.88406,5.99374l1.56083,-1.57869c0,0 1.8479,-1.8479 3.6958,0zM304.03374,211.39363c-2.17191,-2.15096 -3.52228,-4.16978 -5.55052,-6.70929c-1.81685,-2.27488 -3.70983,-4.4889 -5.62631,-6.68051c-1.11893,-1.27959 -2.28577,-2.5189 -3.35567,-3.83977c-0.34044,-0.42029 -0.32982,-1.30104 -0.866,-1.37223c-0.64148,-0.08517 -1.15415,0.61158 -1.6395,1.03956c-1.00285,0.88435 -1.86011,1.92126 -2.79836,2.87386c-1.38935,1.4106 -2.87768,2.7263 -4.20164,4.19844c-1.97161,2.1923 -3.70281,4.59473 -5.69737,6.76614c-0.90873,0.98928 -1.84594,1.9568 -2.84969,2.84954c-0.32514,0.28918 -1.16626,0.24524 -1.11587,0.67746c0.09153,0.78486 0.94709,1.26517 1.41651,1.90084c1.63359,2.2122 3.23408,4.45666 4.65638,6.81027c0.96804,1.7299 3.41772,6.06691 5.00118,6.84053c2.01173,0.98287 7.9855,-3.41339 8.83969,-3.90431c5.17639,-2.97502 9.77643,-6.98907 13.78715,-11.45052z" fill="#00ff2b" stroke="none" stroke-width="0.5"/><path d="M355.76889,187.61072c1.70643,0 2.29863,1.11426 2.50412,1.88762c4.97391,5.87225 10.35615,10.86709 14.33089,17.58347c0.84298,1.96883 2.3131,3.77569 2.52892,5.90648c0.28145,2.77871 -2.41673,5.01083 -4.08847,6.60608c-1.2604,1.20272 -2.58635,2.33532 -3.85277,3.53171c-3.79149,3.58186 -7.59417,8.50614 -13.54361,8.18098c-1.55583,-0.08503 -2.79824,-1.39544 -4.07957,-2.28203c-3.7996,-2.62908 -6.40715,-6.75922 -9.88968,-9.76983c-1.38678,-1.19885 -3.15996,-1.97041 -4.3497,-3.365c-1.2571,-1.47353 -2.82115,-3.1304 -2.84394,-5.06716c-0.02043,-1.73722 1.69453,-3.04508 2.73217,-4.43853c2.27584,-3.05629 5.30014,-5.70397 8.13726,-8.22599c0.08758,-0.07786 4.2136,-3.82028 6.31543,-5.50921c0.30674,-0.83761 1.01594,-1.3442 1.01594,-1.3442l2.47006,-1.76434c0.03914,-0.0287 0.07909,-0.05632 0.11984,-0.08285c0.2153,-0.77114 0.81616,-1.84723 2.49312,-1.84723zM354.30413,195.73537c-0.88103,1.27159 -2.44128,1.90209 -3.622,2.9016c-2.83453,2.3995 -5.79222,4.92171 -8.34282,7.64196c-1.05098,1.12087 -2.00537,2.33172 -3.08489,3.42512c-0.46743,0.47345 -1.51624,0.59929 -1.54469,1.264c-0.02804,0.6552 0.92192,0.93706 1.43292,1.34808c1.28677,1.03503 2.70368,1.90611 3.954,2.98487c3.60877,3.11359 4.05134,4.2017 7.36524,7.53697c0.70637,0.71095 1.47752,1.35517 2.24093,2.00451c0.52513,0.44667 0.93388,1.2599 1.62295,1.28202c1.08362,0.03479 2.1311,-0.55537 3.0492,-1.13201c1.90287,-1.19517 4.53569,-4.06725 6.21705,-5.65604c1.26634,-1.19662 2.57491,-2.34778 3.85296,-3.53189c0.62218,-0.57646 1.27899,-1.12026 1.84761,-1.74962c0.25759,-0.2851 0.72099,-0.60619 0.61436,-0.97532c-0.3736,-1.29333 -1.28139,-2.36793 -1.9221,-3.5519c-3.40453,-5.75942 -8.00825,-10.18957 -12.35935,-15.1081l-1.21637,1.21639l-0.02241,-0.02243c-0.02712,0.04083 -0.05463,0.08141 -0.0826,0.12178z" fill="#00ff2b" stroke="none" stroke-width="0.5"/><path d="M369.15524,144.33017c-0.40923,-0.53055 -0.81333,-1.06495 -1.21167,-1.60359c-0.97699,-1.32116 -1.85277,-2.71607 -2.84856,-4.02312c-2.46243,-3.23213 -3.91137,-4.62603 -6.56506,-7.74888c-0.87262,-1.02692 -1.65566,-2.12989 -2.55977,-3.12919c-0.89527,-0.98951 -1.99138,-1.79313 -2.83158,-2.82976c-0.40839,-0.50387 -0.3385,-1.37039 -0.87183,-1.73948c-0.26087,-0.18055 -0.47893,0.42031 -0.68124,0.66467c-1.50591,1.81884 -3.00356,3.64596 -4.43561,5.52351c-2.2989,3.0141 -4.54677,6.0366 -6.69409,9.15994c-0.59266,0.86205 -1.18048,1.72917 -1.82403,2.55392c-0.54107,0.69341 -1.40194,1.17807 -1.72604,1.99571c-0.48884,1.23322 1.69934,3.64659 1.99469,4.07041c3.66649,3.64251 7.51968,7.00004 11.43745,10.36163c1.1012,0.94486 1.75411,2.82606 3.19969,2.95136c1.99759,0.17315 3.21739,-2.41811 4.6254,-3.84564c3.82082,-3.87374 7.4187,-8.24886 10.99226,-12.36148zM372.49818,148.46635c-4.21423,5.01376 -9.23976,12.18296 -14.59413,15.43767c-1.48847,0.90478 -3.15428,1.92904 -4.89353,1.83329c-1.31037,-0.07215 -4.86281,-3.14581 -6.06679,-4.17674c-4.15832,-3.56066 -8.22018,-7.13575 -12.08531,-11.02264c-1.91633,-2.95688 -3.98804,-4.79623 -2.99493,-8.76016c0.08302,-0.33131 3.69691,-5.27869 4.29079,-6.14251c0.74146,-1.07847 1.40345,-2.21195 2.17967,-3.26567c0.91067,-1.23621 1.9438,-2.3781 2.87641,-3.59785c1.17289,-1.53403 2.2735,-3.12595 3.51611,-4.60405c1.26621,-1.50616 2.19033,-3.39824 3.82082,-4.49977c1.44541,-0.97649 3.3144,-1.8336 5.02122,-1.47376c0.19886,0.04192 5.907,5.71489 6.27592,6.1229c0.94268,1.04255 1.76394,2.18922 2.67441,3.26004c2.82717,3.32517 4.08617,4.48817 6.73382,7.95897c1.01247,1.32722 1.90376,2.74325 2.89566,4.08592c0.41172,0.55729 0.83,1.10975 1.25407,1.65784c0.34866,0.08457 0.72028,0.26198 1.10649,0.57094c0.85634,0.68507 1.06587,1.44202 1.02058,2.0899c0.60119,0.72987 1.21054,1.45297 1.82591,2.17049c0,0 1.70074,1.98417 -0.28343,3.68493c-1.98419,1.70076 -3.68493,-0.28343 -3.68493,-0.28343c-0.29767,-0.34747 -0.59402,-0.69621 -0.88879,-1.0463z" fill="#00ff2b" stroke="none" stroke-width="0.5"/><path d="M132.5,352.54601v-345.09202h375v345.09202z" fill="none" stroke="#000000" stroke-width="0"/></g></g></svg>