<svg version="1.1" xmlns="http://www.w3.org/2000/svg" xmlns:xlink="http://www.w3.org/1999/xlink" width="375" height="345.09202" viewBox="0,0,375,345.09202"><g transform="translate(-132.5,-7.45399)"><g stroke-miterlimit="10"><path d="M315.65055,179.56919c0.04541,-0.23063 0.1008,-0.47807 0.16691,-0.74333c0.7116,-2.85516 3.81443,-3.97816 5.65187,-2.36122c4.14818,-0.04202 3.21887,5.36177 1.63315,7.47601c-3.33992,4.4531 -8.98092,-0.87504 -7.45193,-4.37146z" fill="#00ff2b" stroke="none" stroke-width="0.5"/><path d="M318.17097,163.96308c0,-1.08698 0.88116,-1.96814 1.96814,-1.96814c1.08698,0 1.96814,0.88116 1.96814,1.96814c0,1.08698 -0.88116,1.96814 -1.96814,1.96814c-1.08698,0 -1.96814,-0.88116 -1.96814,-1.96814z" fill="#00ff2b" stroke="none" stroke-width="0.5"/><path d="M325.89231,165.24998c0,-1.08698 0.88116,-1.96814 1.96814,-1.96814c1.08698,0 1.96814,0.88116 1.96814,1.96814c0,1.08698 -0.88116,1.96814 -1.96814,1.96814c-1.08698,0 -1.96814,-0.88116 -1.96814,-1.96814z" fill="#00ff2b" stroke="none" stroke-width="0.5"/><path d="M337.68883,176.61752c0,-1.08698 0.88116,-1.96814 1.96814,-1.96814c1.08698,0 1.96814,0.88116 1.96814,1.96814c0,1.08698 -0.88116,1.96814 -1.96814,1.96814c-1.08698,0 -1.96814,-0.88116 -1.96814,-1.96814z" fill="#00ff2b" stroke="none" stroke-width="0.5"/><path d="M338.54676,181.97957c0,-1.08698 0.88116,-1.96814 1.96814,-1.96814c1.08698,0 1.96814,0.88116 1.96814,1.96814c0,1.08698 -0.88116,1.96814 -1.96814,1.96814c-1.08698,0 -1.96814,-0.88116 -1.96814,-1.96814z" fill="#00ff2b" stroke="none" stroke-width="0.5"/><path d="M337.47435,190.55885c0,-1.08698 0.88116,-1.96814 1.96814,-1.96814c1.08698,0 1.96814,0.88116 1.96814,1.96814c0,1.08698 -0.88116,1.96814 -1.96814,1.96814c-1.08698,0 -1.96814,-0.88116 -1.96814,-1.96814z" fill="#00ff2b" stroke="none" stroke-width="0.5"/><path d="M332.75574,197.63677c0,-1.08698 0.88116,-1.96814 1.96814,-1.96814c1.08698,0 1.96814,0.88116 1.96814,1.96814c0,1.08698 -0.88116,1.96814 -1.96814,1.96814c-1.08698,0 -1.96814,-0.88116 -1.96814,-1.96814z" fill="#00ff2b" stroke="none" stroke-width="0.5"/><path d="M324.39094,202.14088c0,-1.08698 0.88116,-1.96814 1.96814,-1.96814c1.08698,0 1.96814,0.88116 1.96814,1.96814c0,1.08698 -0.88116,1.96814 -1.96814,1.96814c-1.08698,0 -1.96814,-0.88116 -1.96814,-1.96814z" fill="#00ff2b" stroke="none" stroke-width="0.5"/><path d="M314.52477,203.64226c0,-1.08698 0.88116,-1.96814 1.96814,-1.96814c1.08698,0 1.96814,0.88116 1.96814,1.96814c0,1.08698 -0.88116,1.96814 -1.96814,1.96814c-1.08698,0 -1.96814,-0.88116 -1.96814,-1.96814z" fill="#00ff2b" stroke="none" stroke-width="0.5"/><path d="M304.44412,203.42778c0,-1.08698 0.88116,-1.96814 1.96814,-1.96814c1.08698,0 1.96814,0.88116 1.96814,1.96814c0,1.08698 -0.88116,1.96814 -1.96814,1.96814c-1.08698,0 -1.96814,-0.88116 -1.96814,-1.96814z" fill="#00ff2b" stroke="none" stroke-width="0.5"/><path d="M295.65035,199.56709c0,-1.08698 0.88116,-1.96814 1.96814,-1.96814c1.08698,0 1.96814,0.88116 1.96814,1.96814c0,1.08698 -0.88116,1.96814 -1.96814,1.96814c-1.08698,0 -1.96814,-0.88116 -1.96814,-1.96814z" fill="#00ff2b" stroke="none" stroke-width="0.5"/><path d="M291.14624,193.77608c0,-1.08698 0.88116,-1.96814 1.96814,-1.96814c1.08698,0 1.96814,0.88116 1.96814,1.96814c0,1.08698 -0.88116,1.96814 -1.96814,1.96814c-1.08698,0 -1.96814,-0.88116 -1.96814,-1.96814z" fill="#00ff2b" stroke="none" stroke-width="0.5"/><path d="M287.50003,186.26922c0,-1.08698 0.88116,-1.96814 1.96814,-1.96814c1.08698,0 1.96814,0.88116 1.96814,1.96814c0,1.08698 -0.88116,1.96814 -1.96814,1.96814c-1.08698,0 -1.96814,-0.88116 -1.96814,-1.96814z" fill="#00ff2b" stroke="none" stroke-width="0.5"/><path d="M285.56971,180.04923c0,-1.08698 0.88116,-1.96814 1.96814,-1.96814c1.08698,0 1.96814,0.88116 1.96814,1.96814c0,1.08698 -0.88116,1.96814 -1.96814,1.96814c-1.08698,0 -1.96814,-0.88116 -1.96814,-1.96814z" fill="#00ff2b" stroke="none" stroke-width="0.5"/><path d="M286.64213,170.82652c0,-1.08698 0.88116,-1.96814 1.96814,-1.96814c1.08698,0 1.96814,0.88116 1.96814,1.96814c0,1.08698 -0.88116,1.96814 -1.96814,1.96814c-1.08698,0 -1.96814,-0.88116 -1.96814,-1.96814z" fill="#00ff2b" stroke="none" stroke-width="0.5"/><path d="M287.71453,165.46448c0,-1.08698 0.88116,-1.96814 1.96814,-1.96814c1.08698,0 1.96814,0.88116 1.96814,1.96814c0,1.08698 -0.88116,1.96814 -1.96814,1.96814c-1.08698,0 -1.96814,-0.88116 -1.96814,-1.96814z" fill="#00ff2b" stroke="none" stroke-width="0.5"/><path d="M294.57794,153.66795c0,-1.08698 0.88116,-1.96814 1.96814,-1.96814c1.08698,0 1.96814,0.88116 1.96814,1.96814c0,1.08698 -0.88116,1.96814 -1.96814,1.96814c-1.08698,0 -1.96814,-0.88116 -1.96814,-1.96814z" fill="#00ff2b" stroke="none" stroke-width="0.5"/><path d="M300.79792,150.02175c0,-1.08698 0.88116,-1.96814 1.96814,-1.96814c1.08698,0 1.96814,0.88116 1.96814,1.96814c0,1.08698 -0.88116,1.96814 -1.96814,1.96814c-1.08698,0 -1.96814,-0.88116 -1.96814,-1.96814z" fill="#00ff2b" stroke="none" stroke-width="0.5"/><path d="M320.74474,141.22799c0,-1.08698 0.88116,-1.96814 1.96814,-1.96814c1.08698,0 1.96814,0.88116 1.96814,1.96814c0,1.08698 -0.88116,1.96814 -1.96814,1.96814c-1.08698,0 -1.96814,-0.88116 -1.96814,-1.96814z" fill="#00ff2b" stroke="none" stroke-width="0.5"/><path d="M331.68334,138.65421c0,-1.08698 0.88116,-1.96814 1.96814,-1.96814c1.08698,0 1.96814,0.88116 1.96814,1.96814c0,1.08698 -0.88116,1.96814 -1.96814,1.96814c-1.08698,0 -1.96814,-0.88116 -1.96814,-1.96814z" fill="#00ff2b" stroke="none" stroke-width="0.5"/><path d="M342.6219,143.58729c0,-1.08698 0.88118,-1.96814 1.96814,-1.96814c1.08696,0 1.96814,0.88116 1.96814,1.96814c0,1.08698 -0.88118,1.96814 -1.96814,1.96814c-1.08696,0 -1.96814,-0.88116 -1.96814,-1.96814z" fill="#00ff2b" stroke="none" stroke-width="0.5"/><path d="M350.34326,152.16657c0,-1.08698 0.88118,-1.96814 1.96814,-1.96814c1.08696,0 1.96814,0.88116 1.96814,1.96814c0,1.08698 -0.88118,1.96814 -1.96814,1.96814c-1.08696,0 -1.96814,-0.88116 -1.96814,-1.96814z" fill="#00ff2b" stroke="none" stroke-width="0.5"/><path d="M325.24887,189.05749c0,-1.08698 0.88116,-1.96814 1.96814,-1.96814c1.08698,0 1.96814,0.88116 1.96814,1.96814c0,1.08698 -0.88116,1.96814 -1.96814,1.96814c-1.08698,0 -1.96814,-0.88116 -1.96814,-1.96814z" fill="#00ff2b" stroke="none" stroke-width="0.5"/><path d="M319.45786,194.8485c0,-1.08698 0.88116,-1.96814 1.96814,-1.96814c1.08698,0 1.96814,0.88116 1.96814,1.96814c0,1.08698 -0.88116,1.96814 -1.96814,1.96814c-1.08698,0 -1.96814,-0.88116 -1.96814,-1.96814z" fill="#00ff2b" stroke="none" stroke-width="0.5"/><path d="M313.88133,194.8485c0,-1.08698 0.88116,-1.96814 1.96814,-1.96814c1.08698,0 1.96814,0.88116 1.96814,1.96814c0,1.08698 -0.88116,1.96814 -1.96814,1.96814c-1.08698,0 -1.96814,-0.88116 -1.96814,-1.96814z" fill="#00ff2b" stroke="none" stroke-width="0.5"/><path d="M305.30205,191.20231c0,-1.08698 0.88116,-1.96814 1.96814,-1.96814c1.08698,0 1.96814,0.88116 1.96814,1.96814c0,1.08698 -0.88116,1.96814 -1.96814,1.96814c-1.08698,0 -1.96814,-0.88116 -1.96814,-1.96814z" fill="#00ff2b" stroke="none" stroke-width="0.5"/><path d="M299.72551,184.98232c0,-1.08698 0.88116,-1.96814 1.96814,-1.96814c1.08698,0 1.96814,0.88116 1.96814,1.96814c0,1.08698 -0.88116,1.96814 -1.96814,1.96814c-1.08698,0 -1.96814,-0.88116 -1.96814,-1.96814z" fill="#00ff2b" stroke="none" stroke-width="0.5"/><path d="M299.29655,170.82652c0,-1.08698 0.88116,-1.96814 1.96814,-1.96814c1.08698,0 1.96814,0.88116 1.96814,1.96814c0,1.08698 -0.88116,1.96814 -1.96814,1.96814c-1.08698,0 -1.96814,-0.88116 -1.96814,-1.96814z" fill="#00ff2b" stroke="none" stroke-width="0.5"/><path d="M303.58619,161.81827c0,-1.08698 0.88116,-1.96814 1.96814,-1.96814c1.08698,0 1.96814,0.88116 1.96814,1.96814c0,1.08698 -0.88116,1.96814 -1.96814,1.96814c-1.08698,0 -1.96814,-0.88116 -1.96814,-1.96814z" fill="#00ff2b" stroke="none" stroke-width="0.5"/><path d="M310.44962,156.6707c0,-1.08698 0.88116,-1.96814 1.96814,-1.96814c1.08698,0 1.96814,0.88116 1.96814,1.96814c0,1.08698 -0.88116,1.96814 -1.96814,1.96814c-1.08698,0 -1.96814,-0.88116 -1.96814,-1.96814z" fill="#00ff2b" stroke="none" stroke-width="0.5"/><path d="M322.4606,154.3114c0,-1.08698 0.88116,-1.96814 1.96814,-1.96814c1.08698,0 1.96814,0.88116 1.96814,1.96814c0,1.08698 -0.88116,1.96814 -1.96814,1.96814c-1.08698,0 -1.96814,-0.88116 -1.96814,-1.96814z" fill="#00ff2b" stroke="none" stroke-width="0.5"/><path d="M340.69158,161.17483c0,-1.08698 0.88118,-1.96814 1.96814,-1.96814c1.08696,0 1.96814,0.88116 1.96814,1.96814c0,1.08698 -0.88118,1.96814 -1.96814,1.96814c-1.08698,0 -1.96814,-0.88116 -1.96814,-1.96814z" fill="#00ff2b" stroke="none" stroke-width="0.5"/><path d="M346.91155,167.18032c0,-1.08698 0.88118,-1.96814 1.96814,-1.96814c1.08696,0 1.96814,0.88116 1.96814,1.96814c0,1.08698 -0.88118,1.96814 -1.96814,1.96814c-1.08696,0 -1.96814,-0.88116 -1.96814,-1.96814z" fill="#00ff2b" stroke="none" stroke-width="0.5"/><path d="M348.84188,172.54237c0,-1.08698 0.88118,-1.96814 1.96814,-1.96814c1.08696,0 1.96814,0.88116 1.96814,1.96814c0,1.08698 -0.88118,1.96814 -1.96814,1.96814c-1.08696,0 -1.96814,-0.88116 -1.96814,-1.96814z" fill="#00ff2b" stroke="none" stroke-width="0.5"/><path d="M350.55774,177.04648c0,-1.08698 0.88118,-1.96814 1.96814,-1.96814c1.08696,0 1.96814,0.88116 1.96814,1.96814c0,1.08698 -0.88118,1.96814 -1.96814,1.96814c-1.08696,0 -1.96814,-0.88116 -1.96814,-1.96814z" fill="#00ff2b" stroke="none" stroke-width="0.5"/><path d="M353.83142,189.72896c-1.95836,-0.19584 -1.76254,-2.1542 -1.76254,-2.1542l0.21448,-2.14483c0,0 0.12423,-1.24224 1.16418,-1.64903c-0.6914,-0.30528 -1.17394,-0.99695 -1.17394,-1.80132c0,-1.08698 0.88118,-1.96814 1.96814,-1.96814c1.08696,0 1.96814,0.88116 1.96814,1.96814c0,0.81407 -0.49426,1.51271 -1.19905,1.8122c1.34426,0.48018 1.18929,2.02983 1.18929,2.02983l-0.2145,2.14483c0,0 -0.19584,1.95836 -2.1542,1.76252z" fill="#00ff2b" stroke="none" stroke-width="0.5"/><path d="M348.19844,197.42227c0,-1.08698 0.88118,-1.96814 1.96814,-1.96814c1.08696,0 1.96814,0.88116 1.96814,1.96814c0,1.08698 -0.88118,1.96814 -1.96814,1.96814c-1.08696,0 -1.96814,-0.88116 -1.96814,-1.96814z" fill="#00ff2b" stroke="none" stroke-width="0.5"/><path d="M346.48259,201.06847c0,-1.08698 0.88118,-1.96814 1.96814,-1.96814c1.08696,0 1.96814,0.88116 1.96814,1.96814c0,1.08698 -0.88118,1.96814 -1.96814,1.96814c-1.08696,0 -1.96814,-0.88116 -1.96814,-1.96814z" fill="#00ff2b" stroke="none" stroke-width="0.5"/><path d="M335.97297,212.22154c0,-1.08698 0.88116,-1.96814 1.96814,-1.96814c1.08698,0 1.96814,0.88116 1.96814,1.96814c0,1.08698 -0.88116,1.96814 -1.96814,1.96814c-1.08698,0 -1.96814,-0.88116 -1.96814,-1.96814z" fill="#00ff2b" stroke="none" stroke-width="0.5"/><path d="M318.59993,220.15738c0,-1.08698 0.88116,-1.96814 1.96814,-1.96814c1.08698,0 1.96814,0.88116 1.96814,1.96814c0,1.08698 -0.88116,1.96814 -1.96814,1.96814c-1.08698,0 -1.96814,-0.88116 -1.96814,-1.96814z" fill="#00ff2b" stroke="none" stroke-width="0.5"/><path d="M312.37996,219.94289c0,-1.08698 0.88116,-1.96814 1.96814,-1.96814c1.08698,0 1.96814,0.88116 1.96814,1.96814c0,1.08698 -0.88116,1.96814 -1.96814,1.96814c-1.08698,0 -1.96814,-0.88116 -1.96814,-1.96814z" fill="#00ff2b" stroke="none" stroke-width="0.5"/><path d="M305.94551,222.0877c0,-1.08698 0.88116,-1.96814 1.96814,-1.96814c1.08698,0 1.96814,0.88116 1.96814,1.96814c0,1.08698 -0.88116,1.96814 -1.96814,1.96814c-1.08698,0 -1.96814,-0.88116 -1.96814,-1.96814z" fill="#00ff2b" stroke="none" stroke-width="0.5"/><path d="M298.65311,217.58359c0,-1.08698 0.88116,-1.96814 1.96814,-1.96814c1.08698,0 1.96814,0.88116 1.96814,1.96814c0,1.08698 -0.88116,1.96814 -1.96814,1.96814c-1.08698,0 -1.96814,-0.88116 -1.96814,-1.96814z" fill="#00ff2b" stroke="none" stroke-width="0.5"/><path d="M290.07382,211.5781c0,-1.08698 0.88116,-1.96814 1.96814,-1.96814c1.08698,0 1.96814,0.88116 1.96814,1.96814c0,1.08698 -0.88116,1.96814 -1.96814,1.96814c-1.08698,0 -1.96814,-0.88116 -1.96814,-1.96814z" fill="#00ff2b" stroke="none" stroke-width="0.5"/><path d="M282.13798,201.92642c0,-1.08698 0.88116,-1.96814 1.96814,-1.96814c1.08698,0 1.96814,0.88116 1.96814,1.96814c0,1.08698 -0.88116,1.96814 -1.96814,1.96814c-1.08698,0 -1.96814,-0.88116 -1.96814,-1.96814z" fill="#00ff2b" stroke="none" stroke-width="0.5"/><path d="M274.63112,192.91816c0,-1.08698 0.88116,-1.96814 1.96814,-1.96814c1.08698,0 1.96814,0.88116 1.96814,1.96814c0,1.08698 -0.88116,1.96814 -1.96814,1.96814c-1.08698,0 -1.96814,-0.88116 -1.96814,-1.96814z" fill="#00ff2b" stroke="none" stroke-width="0.5"/><path d="M273.55872,183.26646c0,-1.08698 0.88116,-1.96814 1.96814,-1.96814c1.08698,0 1.96814,0.88116 1.96814,1.96814c0,1.08698 -0.88116,1.96814 -1.96814,1.96814c-1.08698,0 -1.96814,-0.88116 -1.96814,-1.96814z" fill="#00ff2b" stroke="none" stroke-width="0.5"/><path d="M272.27182,172.75685c0,-1.08698 0.88116,-1.96814 1.96814,-1.96814c1.08698,0 1.96814,0.88116 1.96814,1.96814c0,1.08698 -0.88116,1.96814 -1.96814,1.96814c-1.08698,0 -1.96814,-0.88116 -1.96814,-1.96814z" fill="#00ff2b" stroke="none" stroke-width="0.5"/><path d="M271.41388,159.88793c0,-1.08698 0.88116,-1.96814 1.96814,-1.96814c1.08698,0 1.96814,0.88116 1.96814,1.96814c0,1.08698 -0.88116,1.96814 -1.96814,1.96814c-1.08698,0 -1.96814,-0.88116 -1.96814,-1.96814z" fill="#00ff2b" stroke="none" stroke-width="0.5"/><path d="M273.55872,150.87967c0,-1.08698 0.88116,-1.96814 1.96814,-1.96814c1.08698,0 1.96814,0.88116 1.96814,1.96814c0,1.08698 -0.88116,1.96814 -1.96814,1.96814c-1.08698,0 -1.96814,-0.88116 -1.96814,-1.96814z" fill="#00ff2b" stroke="none" stroke-width="0.5"/><path d="M279.49927,138.90661c1.89242,0.54069 1.35172,2.43311 1.35172,2.43311l-0.85794,3.00275c0,0 -0.54069,1.89242 -2.43311,1.35172c-1.89242,-0.54069 -1.35172,-2.43311 -1.35172,-2.43311l0.85794,-3.00275c0,0 0.5407,-1.89241 2.43311,-1.35172z" fill="#00ff2b" stroke="none" stroke-width="0.5"/><path d="M332.97022,171.46995c0,-1.08698 0.88116,-1.96814 1.96814,-1.96814c1.08698,0 1.96814,0.88116 1.96814,1.96814c0,1.08698 -0.88116,1.96814 -1.96814,1.96814c-1.08698,0 -1.96814,-0.88116 -1.96814,-1.96814z" fill="#00ff2b" stroke="none" stroke-width="0.5"/><path d="M298.22415,178.54785c0,-1.08698 0.88116,-1.96814 1.96814,-1.96814c1.08698,0 1.96814,0.88116 1.96814,1.96814c0,1.08698 -0.88116,1.96814 -1.96814,1.96814c-1.08698,0 -1.96814,-0.88116 -1.96814,-1.96814z" fill="#00ff2b" stroke="none" stroke-width="0.5"/><path d="M332.15459,96.38556c1.89242,0.54069 1.35172,2.43309 1.35172,2.43309l-0.39692,1.37307c-2.38735,11.12371 -4.82975,22.03376 -6.40979,33.31969c0,0 -0.27288,1.94914 -2.222,1.67626c-1.94914,-0.27288 -1.67626,-2.22201 -1.67626,-2.22201c1.5932,-11.38006 4.05931,-22.38133 6.45914,-33.59871l0.46102,-1.62968c0,0 0.54069,-1.89241 2.43309,-1.35172z" fill="#00ff2b" stroke="none" stroke-width="0.5"/><path d="M352.20416,100.59948c1.96814,0 1.96814,1.96814 1.96814,1.96814l-0.09546,1.03452c-2.94108,9.07909 -7.11602,18.98265 -12.72093,26.71886c0,0 -1.1576,1.59171 -2.7493,0.43409c-1.59171,-1.15761 -0.43411,-2.74932 -0.43411,-2.74932c5.37727,-7.36258 9.36183,-16.94843 12.159,-25.61475l-0.09548,0.1766c0,0 0,-1.96814 1.96814,-1.96814z" fill="#00ff2b" stroke="none" stroke-width="0.5"/><path d="M316.79354,261.91818c-1.86715,0.62234 -2.48949,-1.24481 -2.48949,-1.24481l-0.2904,-0.95267c-1.46168,-9.08161 -2.38444,-18.96722 0.73303,-27.78531c0,0 0.66196,-1.85348 2.51544,-1.19153c1.85347,0.66196 1.19153,2.51544 1.19153,2.51544c-2.93125,8.11382 -1.90209,17.47896 -0.55385,25.83518l0.13856,0.33422c0,0 0.62234,1.86715 -1.24481,2.48949z" fill="#00ff2b" stroke="none" stroke-width="0.5"/><path d="M289.31316,262.32275c-1.84276,-0.69123 -1.15155,-2.53397 -1.15155,-2.53397l1.30919,-3.48803c4.04242,-9.18224 7.91648,-17.90874 10.42439,-27.62691c0,0 0.4918,-1.90571 2.39749,-1.41391c1.90571,0.4918 1.41391,2.39749 1.41391,2.39749c-2.55227,9.89003 -6.47432,18.78878 -10.59045,28.12849l-1.26899,3.38531c0,0 -0.69123,1.84276 -2.53399,1.15154z" fill="#00ff2b" stroke="none" stroke-width="0.5"/><path d="M132.5,352.54601v-345.09202h375v345.09202z" fill="none" stroke="#000000" stroke-width="0"/></g></g></svg>