<svg version="1.1" xmlns="http://www.w3.org/2000/svg" xmlns:xlink="http://www.w3.org/1999/xlink" width="375" height="345.09202" viewBox="0,0,375,345.09202"><g transform="translate(-132.5,-7.45399)"><g stroke-miterlimit="10"><path d="M319.93579,134.07844c-0.87659,1.75321 -2.62979,0.87664 -2.62979,0.87664l-0.81523,-0.5762c-0.12267,1.63934 -0.19358,3.28077 -0.19305,4.94238c0.0011,3.44864 0.09515,6.82775 0.21281,10.27246c0.02551,0.74697 -0.03707,1.49654 0.01455,2.24217c0.18008,2.60191 0.53242,5.19284 0.62634,7.79928c0.02556,0.70932 -0.02573,1.42 -0.0002,2.12932c0.08176,2.27215 0.32091,4.53636 0.42615,6.80754c0.05725,1.23556 0.09291,2.47194 0.12296,3.70852c16.17788,-7.56045 25.82287,-25.94114 33.44219,-40.99488c0.58462,-1.10447 1.24957,-2.17002 1.75387,-3.31339c0.2875,-0.65179 0.38836,-1.37124 0.61086,-2.04799c0.37831,-1.15065 0.98812,-2.23886 1.19117,-3.43296c0.19289,-1.13437 0.05532,-2.30373 -0.02042,-3.45189c-0.17572,-2.66391 -1.28521,-5.3497 -2.66907,-7.60963c-0.4482,-0.73193 -1.85992,-1.96806 -2.42874,-2.51692c-0.84098,-0.81145 -1.53313,-1.80681 -2.51103,-2.44666c-0.72169,-0.47221 -1.63629,-0.54597 -2.45888,-0.80516c-2.2241,-0.70082 -4.30486,-1.52783 -6.6838,-1.4747c-0.77672,0.01736 -1.53109,0.28312 -2.27455,0.5087c-1.11673,0.33882 -2.25949,0.64454 -3.2957,1.18137c-0.82141,0.42555 -1.483,1.10648 -2.21424,1.67313c-0.51266,0.39727 -4.17349,3.20212 -4.92287,4.07813c-0.60451,0.70664 -1.04236,1.5408 -1.53521,2.32938c-0.98953,1.58328 -2.41268,4.04692 -3.38711,5.71737c-0.40366,0.66853 -0.85934,1.30832 -1.21099,2.00563c-1.1783,2.33655 -1.70746,4.90967 -2.05205,7.47805c0.81689,0.83328 1.58205,1.71873 2.28971,2.65403l-0.26429,-0.36352c0,0 1.75321,0.87658 0.87662,2.62979zM313.56003,126.15003c0.41869,-2.13858 1.0292,-4.23439 2.01041,-6.2052c0.39211,-0.78757 0.90156,-1.51105 1.35232,-2.26657c0.88591,-1.51869 2.58086,-4.44885 3.44842,-5.81757c0.6017,-0.94929 1.15046,-1.94451 1.88257,-2.79726c1.00027,-1.16512 4.47955,-3.84291 5.50326,-4.62523c0.90038,-0.68806 1.73228,-1.49378 2.73957,-2.01292c1.28581,-0.66268 2.68629,-1.08578 4.07281,-1.49808c1.03546,-0.30791 2.09365,-0.62867 3.17355,-0.65684c2.94385,-0.07671 5.33801,0.76118 8.07981,1.66262c1.10547,0.36346 2.30429,0.55635 3.28411,1.18416c1.2167,0.77962 2.11924,1.9651 3.17337,2.95353c0.9043,0.84794 2.33984,2.14182 2.99456,3.19064c2.50468,4.01225 4.05674,9.10595 3.29161,13.86786c-0.22247,1.38458 -0.89558,2.65792 -1.32625,3.99248c-0.25035,0.77578 -0.38936,1.59159 -0.71671,2.33815c-0.54768,1.2491 -1.26523,2.41657 -1.89784,3.62487c-1.94252,3.82834 -4.00952,7.83702 -6.26726,11.8274c0.43438,-0.42123 0.8661,-0.84499 1.2772,-1.28869c1.35701,-1.46466 2.45714,-3.16668 3.90194,-4.54481c1.75774,-1.67663 3.67011,-3.18387 5.46853,-4.81679c0.92177,-0.70877 1.88134,-1.37092 2.7653,-2.1263c0.40744,-0.34818 3.70735,-3.59962 4.67566,-4.20108c2.0481,-1.27216 4.34124,-2.21283 6.71972,-2.6439c2.86516,-0.51928 5.71993,-0.249 8.55464,0.20843c2.45038,0.39542 3.60213,0.42808 5.85239,1.76665c0.75981,0.45198 1.36429,1.12634 2.01212,1.72794c2.03278,1.88773 2.34803,2.3901 3.81787,5.22683c1.82685,3.52571 1.74655,3.61684 2.33211,7.21461c0.31267,1.92106 0.63603,3.65145 0.4461,5.59126c-0.13301,1.35842 -0.40658,2.69951 -0.63281,4.04554c-0.15631,0.92997 -0.21723,1.88696 -0.51469,2.78183c-1.03171,3.10395 -2.19138,4.72287 -3.83923,7.49992c-0.8749,1.10011 -1.68439,2.25554 -2.62469,3.30028c-1.08634,1.20701 -4.05578,3.39183 -5.07041,4.12654c-1.804,1.30629 -4.33522,3.0343 -6.36996,3.99888c-0.48133,0.22818 -0.97461,0.42868 -1.47244,0.61865c1.32055,0.20508 2.6392,0.43636 3.95889,0.68752c0.74532,0.11866 1.50246,0.17831 2.23596,0.35595c0.98655,0.23892 1.94206,0.59149 2.91199,0.89078c0.98801,0.30486 2.00811,0.52231 2.96185,0.92167c1.53391,0.64231 4.88489,2.82039 6.0155,3.62005c2.28113,1.61345 3.49153,2.61944 5.09318,4.98149c1.27844,1.88537 3.0587,5.51885 3.63194,7.72267c0.2809,1.07998 0.27963,2.21612 0.34053,3.33036c0.29459,5.38995 -1.3832,10.62757 -5.00123,14.66598c-0.62472,0.69731 -1.37912,1.26722 -2.09291,1.87303c-0.84223,0.71479 -1.63018,1.51329 -2.57381,2.08763c-4.55226,2.77081 -9.57055,3.17947 -14.72689,3.66524c-1.22227,-0.05264 -2.44381,-0.12622 -3.6668,-0.15794c-0.89669,-0.02327 -1.79888,0.08658 -2.69098,-0.00699c-2.50746,-0.26299 -5.40784,-0.97624 -7.77555,-1.82455c-0.29929,-0.10723 -0.59728,-0.22377 -0.89378,-0.34853c0.33104,0.37409 0.70055,0.79806 1.16202,1.31662c0.54887,0.71029 1.18438,1.3614 1.64661,2.13088c1.06959,1.78055 2.71895,5.53616 3.45076,7.49105c0.6166,1.64713 1.23624,3.56169 1.12225,5.36677c-0.29332,4.64464 -1.91084,9.13769 -4.14451,13.16928c-0.44508,0.80333 -1.00687,1.53658 -1.48594,2.32013c-1.09721,1.79453 -2.35515,4.3228 -3.89334,5.89062c-2.13088,2.17193 -2.97488,2.22873 -5.76144,3.42739c-2.21024,0.95076 -3.15302,1.56134 -5.40656,1.84749c-1.17292,0.14894 -2.35767,0.27103 -3.5394,0.23268c-3.84498,-0.12482 -7.25555,-1.39338 -10.61495,-3.18462c-1.05142,-0.56062 -2.03328,-1.24295 -3.04992,-1.86444c-1.03855,-0.81476 -2.09189,-1.61102 -3.11564,-2.44428c-0.5811,-0.47297 -1.21181,-0.90286 -1.69758,-1.47332c-1.52148,-1.7868 -2.74599,-3.8017 -3.75994,-5.91807c-0.15601,0.67043 -0.37608,1.33664 -0.71424,2.01927c-2.09296,4.22492 -5.96661,7.25216 -10.03022,9.43021c-1.17527,0.62991 -2.41246,1.13679 -3.61422,1.71454c-2.40654,1.15695 -3.4914,1.9184 -6.43013,2.34237c-0.9473,0.13666 -6.77558,0.01966 -7.94058,-0.23453c-1.38601,-0.30243 -2.68927,-0.90759 -4.0105,-1.42413c-2.09959,-0.82084 -4.92267,-2.05269 -6.77138,-3.38679c-1.10593,-0.79808 -2.04438,-1.80578 -3.07454,-2.69954c-0.65414,-0.56752 -1.45309,-0.99552 -1.97819,-1.68417c-2.11341,-2.77159 -2.8064,-4.43015 -3.02812,-7.81643c-0.16098,-2.45858 0.4148,-2.80661 1.17623,-4.99293c0.23492,-0.67457 0.40926,-1.36873 0.61388,-2.0531c0.22924,-0.7579 0.38941,-1.54026 0.68776,-2.27372c0.3326,-0.81769 0.60764,-1.45723 0.85548,-1.99422c-0.21905,0.24889 -0.44505,0.49101 -0.68652,0.71816c-0.88139,0.82911 -3.68118,2.629 -4.51386,3.18063c-2.2098,1.46394 -2.32459,1.77222 -5.11609,2.41129c-1.3567,0.3106 -2.74439,0.47773 -4.1284,0.62474c-2.24135,0.23809 -5.46133,0.40396 -7.74372,0.04585c-0.85939,-0.13484 -6.65369,-1.82524 -7.26963,-2.025c-2.37517,-0.77035 -4.85041,-1.71541 -6.86002,-3.24316c-1.16904,-0.88873 -2.16652,-1.99555 -3.10664,-3.12365c-0.66348,-0.79616 -1.16505,-1.71691 -1.67782,-2.61753c-0.88271,-1.55035 -1.80311,-3.35216 -1.74983,-5.21616c0.16028,-5.60671 3.71241,-10.08925 6.80294,-14.44583c0.82194,-1.02774 1.65751,-2.04476 2.46581,-3.08326c0.71567,-0.91945 1.34342,-1.90882 2.10566,-2.79003c1.76337,-2.03861 2.66846,-2.56553 4.69937,-4.26938c0.63527,-0.53297 1.18132,-1.18361 1.88249,-1.62637c2.33318,-1.4733 2.91188,-1.5837 4.61903,-2.03855c-1.14381,-0.27668 -2.23099,-0.76185 -3.37086,-1.05681c-2.00573,-0.51901 -4.10653,-0.58785 -6.12571,-1.05175c-1.3458,-0.30918 -2.68858,-0.66671 -3.97228,-1.17547c-2.30591,-0.91388 -2.80023,-1.65994 -4.3812,-3.54508c-0.58335,-0.69558 -1.20077,-1.37545 -1.66273,-2.15692c-0.91857,-1.55389 -1.85915,-4.05567 -2.34856,-5.82842c-0.28485,-1.03176 -0.63131,-2.06469 -0.70623,-3.13242c-0.17618,-2.5105 0.35141,-5.45187 0.6977,-7.93774c1.21254,-3.05086 2.29264,-6.01738 4.868,-8.23052c2.43802,-2.09511 3.14838,-2.18697 5.88597,-3.33255c0.88068,-0.36852 1.74528,-0.77909 2.64448,-1.09978c0.91363,-0.32584 4.58529,-1.50318 6.03796,-1.78622c2.39448,-0.46656 4.83634,-0.6526 7.26455,-0.88724c1.25739,-0.12151 2.50188,-0.40037 3.76463,-0.43542c0.77513,-0.0215 1.55339,-0.00198 2.33037,0.05532c-0.11697,-0.16738 -0.22818,-0.3386 -0.33189,-0.51472c-2.24071,-3.80492 -2.50674,-8.59817 -2.83554,-12.88592c-0.0013,-2.57501 -0.29341,-5.22327 0.51726,-7.71621c0.05429,-0.16694 2.24449,-5.41015 2.30883,-5.51764c0.64434,-1.07648 1.51651,-1.99903 2.28157,-2.99334c1.01347,-1.31717 2.223,-3.00772 3.5803,-4.00154c3.42609,-2.50859 7.87729,-2.79234 11.96953,-2.52345c0.5319,0.03495 6.42492,0.75157 7.13327,0.89495c3.5209,0.71271 6.76365,2.59758 9.90089,4.2411c0.85584,0.44835 1.74456,0.83323 2.59208,1.29714c2.13753,1.17003 2.19252,1.3028 4.01025,2.66498c0.59689,0.3753 1.17908,0.77104 1.74534,1.18672zM275.33475,156.87243c-2.2138,-0.67772 -4.56333,-1.06752 -6.86979,-0.99097c-1.17372,0.03895 -2.32934,0.30457 -3.49812,0.41903c-1.04369,0.10221 -2.09641,0.1056 -3.13761,0.23078c-3.20398,0.38522 -6.15513,1.13776 -9.19311,2.22241c-0.8444,0.30147 -1.65394,0.6929 -2.48217,1.03633c-2.28897,0.94918 -2.80789,0.95155 -4.79454,2.64856c-1.93924,1.65651 -2.75754,4.0162 -3.67643,6.29499c-0.2453,1.86599 -0.70396,4.74309 -0.58395,6.58772c0.05385,0.82787 0.34817,1.62355 0.57543,2.42143c0.40721,1.42971 1.17384,3.58256 1.92364,4.85209c0.36407,0.61643 0.87176,1.13621 1.3278,1.68806c0.46275,0.55997 0.87302,1.1775 1.42778,1.64649c1.05874,0.89506 3.82339,1.54638 4.74425,1.75019c2.06889,0.4579 4.21162,0.55619 6.2637,1.08437c1.12685,0.29004 2.19675,0.7828 3.32978,1.04772c0.66268,0.15495 1.3522,0.16075 2.03126,0.20578c2.38134,0.15796 3.76628,0.22968 5.98676,0.15447c1.35614,-0.04593 2.71045,-0.2325 4.06654,-0.18516c0.0154,0.00053 0.0308,0.00113 0.0462,0.00179c0.42226,-0.1297 0.84647,-0.2525 1.27395,-0.36368c1.79011,-0.46557 5.18788,-1.16263 7.15784,-1.34016c3.59187,-0.32369 7.2666,-0.22386 10.86815,-0.22261c1.34165,0.00047 2.68519,-0.06839 4.02495,0.00279c1.26026,0.06694 2.50633,0.30597 3.76418,0.40771c1.89456,-0.71787 3.10803,-0.81981 4.88248,-1.84542c1.11706,-0.64565 2.48265,-2.10806 3.41563,-2.84235c0.85668,-0.67423 3.88306,-2.74178 4.87073,-3.09956c0.63295,-0.22929 1.39459,0.09889 2.01263,-0.16802c0.38009,-0.16417 0.82897,-0.58748 1.29959,-1.06721l-0.17627,-0.15016c-0.8106,-0.6163 -1.61886,-1.20582 -2.4275,-1.77085c-0.22633,0.09126 -0.4736,0.14149 -0.73261,0.14149c-0.17933,0 -0.35304,-0.02407 -0.51806,-0.06919l-3.37511,-0.84379l0.00654,-0.02616c-0.1085,-0.02489 -0.21654,-0.05244 -0.32411,-0.08287c-1.37036,-0.38775 -2.38905,-1.55113 -3.57075,-2.34602c-0.89632,-0.60291 -1.747,-1.27411 -2.66277,-1.84705c-1.6269,-1.01786 -3.88561,-2.199 -5.64143,-3.13108c-0.95006,-0.50435 -1.91283,-0.98548 -2.85828,-1.49822c-0.36277,-0.14387 -0.71854,-0.3016 -1.05324,-0.50081c-0.6131,-0.36492 -1.18988,-0.78508 -1.75989,-1.21573c-0.23478,-0.14254 -0.47279,-0.27936 -0.7166,-0.40598c-1.54006,-0.79991 -3.178,-1.39556 -4.77614,-2.07199c-0.76245,-0.32272 -1.58047,-0.52701 -2.30166,-0.93364c-1.0396,-0.58616 -1.96282,-1.35827 -2.95077,-2.02785c-1.79456,-1.21629 -3.56843,-2.42836 -5.21888,-3.79761zM313.66113,168.75029c-0.10613,-2.28982 -0.3453,-4.57271 -0.42828,-6.86349c-0.02586,-0.71384 0.02506,-1.42904 -0.0002,-2.14287c-0.09092,-2.56949 -0.44536,-5.12317 -0.62168,-7.68821c-0.05371,-0.78144 0.00773,-1.56692 -0.0191,-2.34974c-0.11938,-3.48085 -0.21549,-6.89982 -0.21441,-10.38472c0.00091,-2.92392 0.19995,-5.79372 0.52695,-8.68884c-1.0331,-0.90043 -2.14372,-1.71377 -3.30665,-2.43586c-1.67123,-1.25444 -1.78795,-1.43368 -3.67977,-2.46167c-0.82981,-0.45091 -1.69794,-0.82801 -2.53456,-1.26619c-2.80835,-1.47084 -5.73594,-3.2528 -8.89683,-3.87608c-0.52262,-0.10306 -6.25931,-0.79506 -6.53778,-0.81391c-0.86369,-0.05849 -1.73184,-0.02736 -2.597,0.00227c-2.43705,0.0835 -4.76074,0.23432 -6.79449,1.74649c-0.98129,0.72963 -2.11553,2.34361 -2.82801,3.26119c-0.66305,0.8539 -1.43327,1.63421 -1.99064,2.56054c-0.43341,0.72033 -0.63264,1.55778 -0.9546,2.33436c-0.3325,0.802 -0.72657,1.58022 -1.00877,2.40127c-0.51189,1.48936 -0.33923,2.02835 -0.33573,3.68036c0.00191,0.90057 -0.00096,1.80115 -0.00144,2.7017c0.23371,3.02793 0.51387,5.93711 1.4007,8.86815c0.22645,0.74844 0.49124,1.49789 0.89039,2.17028c0.59339,0.99961 2.23031,2.62265 3.07601,3.4178c0.17031,0.16014 0.3415,0.31652 0.51359,0.46963c0.16901,0.05744 0.33725,0.11639 0.50473,0.17679c1.21591,0.43859 2.46924,0.79668 3.6277,1.37004c1.23359,0.61053 2.34991,1.43396 3.51579,2.16552c2.37031,1.48731 4.72323,2.99459 7.00514,4.61538c0.50929,0.36173 0.99973,0.75135 1.4967,1.13103c0.64106,0.40238 1.26741,0.83093 1.92572,1.20387c0.05764,0.03266 0.252,0.13649 0.53724,0.2877c0.31779,0.11711 0.64095,0.2236 0.95274,0.35256c5.45214,1.90999 10.30078,4.09908 14.9881,6.92174c0.03812,-0.00221 0.07652,-0.00332 0.11518,-0.00332c0.27306,0 0.53306,0.05582 0.76924,0.15669l1.01957,0.40782c-0.02841,-1.14314 -0.06261,-2.28607 -0.11555,-3.42829zM273.24946,193.95995c-1.52353,0.48775 -3.03019,1.0351 -4.58041,1.42727c-1.26333,0.3196 -2.56175,0.48753 -3.82563,0.80493c-0.9207,0.23122 -1.80981,0.5744 -2.7214,0.83921c-2.26694,0.65854 -2.61892,0.48336 -4.79386,1.881c-0.57594,0.37011 -1.01253,0.92213 -1.53528,1.36418c-1.80187,1.5237 -2.74194,2.06458 -4.27228,3.8478c-0.71175,0.82939 -1.29733,1.7595 -1.96801,2.62247c-0.79623,1.0245 -1.62143,2.02613 -2.43214,3.03921c-2.55253,3.59965 -5.7822,7.41965 -6.01367,12.04184c-0.05444,1.08725 0.75707,2.48773 1.24071,3.32826c1.06073,1.84347 1.96392,3.20709 3.7416,4.54938c1.62068,1.22374 3.79058,2.02567 5.71075,2.64139c0.23457,0.07522 6.02405,1.77609 6.66564,1.87924c0.98989,0.15915 2.00121,0.16708 3.00377,0.15623c2.09384,-0.02267 5.28415,-0.32402 7.33957,-0.76728c2.15609,-0.46496 2.12103,-0.69638 3.85554,-1.86093c0.3077,-0.20658 3.40912,-2.20903 4.03054,-2.80046c0.61829,-0.58845 1.1143,-1.29357 1.6892,-1.92447c0.8936,-0.98065 1.81056,-1.93977 2.71585,-2.90966c1.26686,-1.26647 2.60976,-2.45458 3.90557,-3.69142c0.87981,-0.83977 1.69765,-1.74308 2.58063,-2.57955c0.46531,-0.44078 1.00836,-0.79623 1.46145,-1.24957c0.7439,-0.7443 1.3789,-1.59237 2.12282,-2.33668c0.25726,-0.25741 0.53581,-0.49247 0.81642,-0.72527c0.39319,-0.48842 0.78545,-0.97756 1.17714,-1.46717c0.40092,-0.50115 0.86436,-0.95098 1.25426,-1.46074c2.52683,-3.30381 4.62611,-6.87823 6.99949,-10.28252c1.34699,-1.93207 3.06034,-3.64572 4.61427,-5.40624c0.68845,-0.77998 1.38271,-1.54625 2.09307,-2.29282c-1.0128,0.00939 -2.02569,0.02427 -3.03792,-0.00547c-1.07144,-0.03149 -2.13768,-0.16799 -3.20863,-0.21378c-0.41152,-0.01759 -0.82411,-0.00005 -1.23624,0.00583c-0.77071,0.36684 -1.485,0.86074 -2.28621,1.15532c-3.05301,1.12252 -6.12263,0.98399 -9.29433,0.76132c-1.25771,-0.00009 -2.51608,-0.0417 -3.7731,-0.00028c-0.90286,0.02975 -1.79881,0.18272 -2.70164,0.21361c-1.18473,0.04055 -2.37141,0.0376 -3.55624,0.00056c-1.18723,-0.0371 -2.37453,-0.10503 -3.5565,-0.22288c-0.74677,-0.07445 -1.48151,-0.26401 -2.22476,-0.36187zM308.5689,188.7055c0.14402,-0.00082 0.28805,-0.00132 0.43205,-0.0013c0.84416,-0.05383 1.70587,0.018 2.53247,-0.16152c0.06418,-0.01394 0.12777,-0.02899 0.19079,-0.04513c0.61467,-0.95391 1.22429,-1.91133 1.88388,-2.83422c0.33095,-0.46306 0.70134,-0.89627 1.06288,-1.33628c-0.12184,0.01557 -0.24146,0.04043 -0.35756,0.07939c-0.4052,0.13603 -3.5291,2.33981 -3.67368,2.45433c-0.86257,0.68329 -1.43346,1.27881 -2.07085,1.84473zM294.84927,216.23357c-0.75638,0.93905 -1.51641,1.87517 -2.28339,2.80556c-1.60964,1.95258 -1.89056,2.56498 -3.57174,4.83705c-0.45943,0.62091 -1.00652,1.17772 -1.42736,1.82539c-0.46422,0.71446 -0.79405,1.5082 -1.21869,2.24689c-1.77517,3.08799 -2.16627,3.27308 -3.50316,6.5647c-0.2615,0.64387 -0.39593,1.33232 -0.59391,1.99848c-0.22259,0.73971 -0.41139,1.49043 -0.66775,2.21912c-0.55188,1.56868 -1.07402,1.92386 -0.95987,3.55148c0.16509,2.35405 0.57611,3.49851 2.0985,5.4274c0.40926,0.51856 1.04041,0.81507 1.5415,1.24554c0.94796,0.81432 1.79527,1.7511 2.80462,2.48795c0.84407,0.61621 1.78859,1.08656 2.72562,1.54933c0.99708,0.49243 5.50883,2.37696 6.57188,2.61136c0.75053,0.16548 6.09833,0.25982 6.58495,0.19271c2.30486,-0.31795 3.34356,-1.05644 5.28175,-1.99114c1.153,-0.55605 2.34105,-1.04143 3.47157,-1.64191c3.3268,-1.76706 6.59555,-4.21438 8.34028,-7.65862c0.65262,-1.28833 0.70885,-3.09928 0.88209,-4.41403c-0.00411,-2.4798 -0.18098,-4.95063 -0.40136,-7.41899c-0.07444,-0.66886 -0.13257,-1.34041 -0.22501,-2.00667c-0.32668,-2.35482 -0.71697,-4.12556 -0.86985,-6.56421c-0.0692,-1.10412 -0.00287,-2.21258 -0.00336,-3.31886c-0.00155,-3.55993 0.18165,-7.05848 0.4322,-10.60679c0.17702,-2.50707 0.38797,-5.01164 0.56741,-7.51854c0.21642,-3.02338 0.16067,-6.06181 0.28383,-9.08689c0.06977,-1.7136 0.21355,-3.42556 0.21425,-5.14057c0.10186,-1.02992 0.19547,-2.04407 0.3182,-3.05297c-0.31282,0.34856 -0.64286,0.68376 -0.953,1.03389c-1.15829,1.30763 -3.05531,3.51155 -4.52619,4.51911c-0.0164,0.02039 -0.0328,0.04077 -0.04922,0.06116c-0.64597,0.50639 -1.32137,0.97739 -1.94073,1.51579c-0.13119,0.19142 -0.26401,0.38173 -0.39894,0.57054c-0.61699,0.86329 -1.30461,1.67517 -1.91056,2.54624c-0.53015,0.7621 -0.96486,1.58778 -1.49526,2.34971c-1.50337,2.15962 -2.76621,3.5448 -4.35391,5.69255c-0.44834,0.6065 -0.79726,1.28455 -1.26683,1.87477c-0.61531,0.77342 -1.33735,1.45609 -1.98029,2.2067c-1.28601,1.50141 -2.55722,3.01565 -3.85971,4.50279c-0.88471,1.01012 -1.69784,2.08432 -2.62488,3.05577c-0.31982,0.33512 -0.6768,0.63156 -1.0337,0.92826zM324.43867,232.45797c0.03958,0.31753 0.08648,0.63388 0.14729,0.9481c0.13741,0.70999 0.41119,1.38682 0.63344,2.07502c0.39164,1.21273 0.77139,2.43006 1.20804,3.62733c1.07776,2.95514 2.47433,5.91828 4.52238,8.33316c0.3646,0.42991 0.85376,0.73667 1.29299,1.09c0.94708,0.76185 1.91029,1.50343 2.86543,2.25515c3.60431,2.20191 7.20852,4.2111 11.54114,4.34979c0.95801,0.03067 1.91752,-0.07803 2.86893,-0.19451c1.79224,-0.21944 2.61215,-0.79902 4.41949,-1.57031c2.13596,-0.91153 2.94755,-0.93858 4.49186,-2.5537c1.217,-1.27279 2.5742,-3.91599 3.3694,-5.21713c1.09721,-1.7953 2.21488,-3.59255 3.07242,-5.51391c1.07888,-2.41731 1.76301,-5.43806 1.97764,-8.04768c0.09906,-1.20431 -0.48947,-2.85201 -0.88399,-3.88685c-0.64642,-1.69557 -2.14585,-5.17167 -3.08741,-6.75247c-0.37153,-0.62376 -0.89596,-1.14272 -1.34392,-1.71407c-1.59403,-1.79555 -1.98324,-2.35747 -3.99218,-3.99706c-0.64475,-0.5262 -1.37025,-0.94501 -2.0477,-1.42835c-1.83549,-1.30955 -3.72151,-2.54713 -5.56145,-3.85041c-0.65715,-0.46546 -1.24685,-1.02192 -1.90648,-1.48387c-0.76734,-0.53738 -1.59954,-0.97761 -2.36976,-1.51083c-1.0798,-0.74754 -2.10587,-1.57029 -3.1775,-2.32948c-0.65307,-0.46267 -1.36465,-0.8428 -1.99552,-1.33533c-1.77634,-1.38687 -3.37169,-2.99248 -5.10854,-4.42851c-2.53495,-2.09591 -5.15972,-4.11198 -7.48473,-6.45241c-0.91642,-0.92249 -1.77214,-1.90154 -2.60735,-2.89936c-0.00223,0.05887 -0.00434,0.11773 -0.00638,0.1766c-0.11598,3.35247 0.09986,6.71515 -0.00833,10.06763c-0.02968,0.92006 -0.15802,1.83443 -0.21632,2.75309c-0.08378,1.32052 -0.09348,2.64591 -0.20991,3.96395c-0.28704,3.24963 -0.82848,6.46528 -1.07289,9.72334c-0.071,0.94661 -0.20894,1.89092 -0.20826,2.8402c0.00064,0.90511 0.17972,1.80251 0.21218,2.70705c0.03814,1.06284 -0.04082,2.1278 -0.00056,3.19056c0.01631,0.4304 0.37459,3.90771 0.42036,4.38838c0.08501,0.89266 0.16871,1.78478 0.24624,2.67691zM366.50178,172.47663c0.9202,-0.23227 1.84203,-0.45965 2.74241,-0.75787c0.91049,-0.30158 1.76888,-0.74241 2.65949,-1.09842c1.17439,-0.46945 2.39087,-0.83927 3.53523,-1.37782c1.77346,-0.8346 4.2159,-2.51776 5.76391,-3.63879c0.62136,-0.44999 3.62444,-2.64639 4.51193,-3.63561c0.80665,-0.89912 1.50153,-1.89257 2.25231,-2.83886c1.33942,-2.25978 2.48271,-3.90702 3.318,-6.42042c0.24437,-0.73532 0.2724,-1.52565 0.3986,-2.29017c0.20335,-1.23194 0.45811,-2.45747 0.59003,-3.69908c0.16434,-1.54663 -0.16947,-3.16033 -0.40835,-4.66203c-0.14754,-0.92754 -0.19493,-1.88191 -0.48262,-2.77595c-0.36399,-1.13116 -0.91128,-2.19798 -1.45747,-3.25329c-0.51749,-0.99984 -1.06843,-1.98961 -1.72825,-2.90182c-0.35359,-0.48884 -0.84978,-0.85701 -1.28941,-1.27019c-0.45896,-0.43133 -0.86737,-0.9356 -1.40564,-1.2626c-1.54992,-0.94159 -2.65085,-0.94664 -4.40089,-1.22387c-2.42095,-0.3835 -4.8005,-0.64852 -7.25252,-0.21878c-1.77667,0.31138 -3.72179,1.10704 -5.24245,2.05553c-0.52259,0.32595 -0.94595,0.78959 -1.40112,1.20451c-0.97711,0.8907 -1.88978,1.85255 -2.89485,2.71158c-0.8916,0.76202 -1.85903,1.43061 -2.78854,2.1459c-1.71122,1.55656 -3.53337,2.99044 -5.212,4.58207c-0.44618,0.42306 -0.79619,0.93715 -1.19603,1.40425c-0.8661,1.01178 -1.69695,2.05503 -2.60175,3.03232c-0.88774,0.95887 -1.87175,1.8248 -2.77195,2.77197c-2.14071,2.25239 -4.14473,4.73887 -6.10001,7.15257c-1.15074,1.42054 -1.57313,2.21209 -2.71135,3.73007c-0.78708,1.04969 -1.62457,2.06088 -2.4153,3.10781c-0.80054,1.05993 -1.53288,2.17137 -2.35808,3.21223c-0.35824,0.45187 -3.02288,3.36274 -3.432,3.86239c-0.76414,0.93318 -1.39681,1.97461 -2.21207,2.86347c-0.87121,0.94984 -1.99955,1.90747 -3.19793,2.60517c0.2882,0.03241 0.58161,0.06172 0.88183,0.08865c1.74126,0.17423 3.47657,0.41378 5.21291,0.62525c1.39416,-0.04304 2.75947,-0.10986 3.55312,-0.16718c1.73154,-0.12506 3.4373,-0.4983 5.16475,-0.67085c1.03963,-0.10384 2.09263,-0.06249 3.12774,-0.20445c0.96083,-0.1318 1.89637,-0.40752 2.84384,-0.61461c2.37113,-0.51826 4.77211,-1.11935 7.16377,-1.51674c0.74181,-0.12325 1.49623,-0.15223 2.24442,-0.2275c2.92622,-0.29437 5.85991,-0.54001 8.80467,-0.43587c0.06392,0.00226 0.1278,0.00463 0.19167,0.00706zM333.32575,180.23164c-0.0233,0.00053 -0.04662,0.00107 -0.06994,0.0016c-1.36782,0.03075 -2.73896,0.08043 -4.10447,-0.00441c-1.06273,-0.06603 -2.11193,-0.27608 -3.16288,-0.44715c-0.09647,-0.01571 -0.19393,-0.02896 -0.29208,-0.04044c0.00013,0.0092 0.0002,0.01843 0.0002,0.02766v1.63223c0.49054,0.46576 0.98394,0.92947 1.48093,1.39098c1.69569,1.45326 3.52601,2.76665 5.15351,4.29661c1.96135,1.8438 3.70951,3.96061 5.79088,5.67685c0.99379,0.81945 2.06103,1.54599 3.07073,2.34577c2.53837,2.01065 5.08141,3.99276 7.65717,5.9555c0.71468,0.54459 1.37483,1.16003 2.10408,1.68495c1.04179,0.74992 2.16273,1.38569 3.20416,2.1361c1.47959,1.06614 2.79237,2.35195 4.2722,3.41778c2.1632,1.55801 4.66256,3.32224 7.21679,4.23107c1.98258,0.70543 4.64362,1.37876 6.74993,1.59322c0.80772,0.08223 1.62403,-0.02774 2.43566,-0.00699c1.16105,0.02968 2.32046,0.10549 3.48069,0.15822c4.39214,-0.4233 8.85416,-0.67924 12.73051,-3.05923c0.78344,-0.48102 1.4257,-1.16128 2.12562,-1.75732c1.7606,-1.49924 2.13335,-1.73355 3.4496,-3.81136c1.80598,-2.85091 2.43608,-6.22348 2.27287,-9.55508c-0.04262,-0.86988 -0.01483,-1.75972 -0.2361,-2.60206c-0.29802,-1.13461 -0.80209,-2.20859 -1.30577,-3.26804c-0.97105,-2.04255 -2.00132,-3.84031 -3.63079,-5.41918c-0.6807,-0.65956 -1.4723,-1.19667 -2.24892,-1.74003c-0.73788,-0.51624 -4.03899,-2.69417 -5.26662,-3.20267c-0.83424,-0.34555 -1.72873,-0.52242 -2.59201,-0.78721c-0.88136,-0.27033 -1.74595,-0.6009 -2.64188,-0.81812c-0.66352,-0.16086 -1.34942,-0.20873 -2.02412,-0.31309c-3.99536,-0.76168 -7.97373,-1.33642 -12.03804,-1.52968c-0.10371,0.02711 -0.20735,0.05446 -0.31088,0.08214c-0.40015,0.10698 -5.00107,1.29534 -5.37201,1.35745c-1.83113,0.30661 -3.70649,0.30605 -5.53332,0.63731c-2.31013,0.41891 -4.56147,1.14094 -6.88121,1.50279c-0.95614,0.14913 -1.93068,0.13754 -2.89414,0.22786c-1.324,0.12413 -2.64066,0.33042 -3.96775,0.41544c-2.90063,0.18585 -5.76231,-0.0726 -8.62257,-0.40948z" fill="#00ff2b" stroke="none" stroke-width="0.5"/><path d="M281.76019,168.22295c1.93348,-0.32223 2.25571,1.61124 2.25571,1.61124l0.23351,1.44114c0.48447,6.18506 -2.5551,10.67521 -4.28626,16.32885c6.71882,4.81128 14.52861,9.301 21.9267,12.58898c0,0 1.79121,0.79608 0.99511,2.58728c-0.79608,1.79121 -2.58728,0.99512 -2.58728,0.99512c-6.32044,-2.80909 -12.92276,-6.47355 -18.94759,-10.46562c-0.04576,0.10213 -0.10163,0.20698 -0.16879,0.31442c-1.03887,1.6622 -2.70107,0.62332 -2.70107,0.62332l-1.8903,-1.19628c-6.19053,-6.12632 -14.96693,-15.64244 -12.2,-25.3538c1.4514,-5.09411 6.47063,-8.51159 10.19556,-11.82282c0,0 1.46503,-1.30226 2.76728,0.16277c1.30224,1.46503 -0.16279,2.76728 -0.16279,2.76728c-3.04623,2.70763 -7.81861,5.74513 -9.02937,9.96544c-1.75939,6.13264 2.74459,12.47169 7.1478,17.32926c0.44625,-0.31118 0.96329,-0.37229 1.14911,-0.38428c1.627,-4.76101 4.35184,-8.89056 3.88513,-14.11438l-0.19371,-1.12222c0,0 -0.32225,-1.93348 1.61122,-2.25571z" fill="#00ff2b" stroke="none" stroke-width="0.5"/><path d="M318.75058,130.9577c1.1761,-1.5681 2.7442,-0.392 2.7442,-0.392l0.34818,0.3668c0.14199,0.05164 0.28463,0.1042 0.42784,0.15772c1.09305,-0.88048 2.24892,-1.67986 3.49736,-2.37494c2.08159,-1.15896 2.15849,-1.02749 4.18084,-1.98551c0.92207,-0.4368 1.78919,-0.99671 2.74406,-1.35618c0.70098,-0.26388 1.45471,-0.36057 2.19032,-0.5014c0.94433,-0.18079 1.88769,-0.52712 2.84702,-0.46294c2.97101,0.19874 5.00513,2.2005 6.75366,4.35415c1.94644,2.39743 3.05588,4.95695 3.41486,8.05709c0.12877,1.11211 0.22672,2.25211 0.05357,3.35818c-0.20197,1.29012 -0.56954,2.52323 -1.03605,3.71864c1.3548,-0.17401 2.71959,-0.2631 4.08744,-0.26125c2.91437,0.41342 5.68769,0.96809 8.51779,1.77967c1.58925,0.45574 3.06652,0.84349 4.51143,1.68933c0.69623,0.40757 1.31215,0.94018 1.94302,1.44302c1.01527,0.80922 2.66709,2.2125 3.27057,3.36611c0.45129,0.86268 0.71086,1.82919 0.86005,2.79127c0.14442,0.93138 0.10343,1.88953 0.01124,2.82751c-0.24869,2.53046 -0.63203,3.0343 -2.03287,5.17278c-0.43314,0.66124 -3.0179,3.97303 -3.3381,4.23656c-1.83406,1.5094 -3.45148,2.05943 -5.38805,2.7083c1.6376,1.54382 3.15486,3.18181 4.54122,4.79808c0.8809,1.03055 1.81468,2.01811 2.64269,3.09161c0.89525,1.16065 1.56589,2.47911 2.39139,3.69035c1.07866,1.5827 2.15209,3.17499 3.08267,4.84906c1.71845,3.09135 3.34435,5.98713 3.45001,9.65354c0.10012,3.47395 -1.1087,7.15897 -3.51286,9.72029c-1.31811,1.40429 -3.47713,2.77741 -5.13386,3.76902c-1.79256,1.07289 -3.36064,1.88495 -5.46862,2.36026c-1.72997,0.39008 -3.29809,0.48989 -4.86731,0.38839c-0.10646,3.09149 -0.26881,6.16748 -0.92845,9.23374c-0.3017,1.40235 -1.11454,4.23245 -1.98446,5.56617c-0.45362,0.69547 -1.10712,1.23787 -1.6678,1.85033c-2.55303,2.78881 -2.92423,3.49917 -6.181,5.5629c-1.16544,0.7385 -2.35303,1.49645 -3.66487,1.9239c-1.18781,0.38704 -2.46754,0.48108 -3.71682,0.48136c-2.35785,0.00055 -5.3477,-0.13643 -7.19209,-1.99287c-0.97491,-0.98128 -1.52251,-2.30988 -2.27136,-3.47288c-0.69928,-1.08603 -1.36175,-2.19572 -2.07292,-3.27398c-0.96941,-1.46982 -1.56535,-2.13083 -2.33484,-3.43465c-0.65025,0.798 -1.31519,1.58486 -1.91594,2.42029c-0.67296,0.93583 -1.24529,1.94007 -1.86792,2.9101c0,0 -1.05997,1.64884 -2.70879,0.58887c-0.11645,-0.07486 -0.21938,-0.15266 -0.31014,-0.23261c-0.70803,0.67391 -1.41321,1.35126 -2.10903,2.04024c-2.41173,1.52631 -4.68977,3.13185 -7.38492,4.15279c-0.76097,0.28827 -1.58972,0.36628 -2.35505,0.64274c-0.87239,0.31514 -1.63739,0.93205 -2.54423,1.12707c-1.27875,0.275 -2.61331,0.13621 -3.91522,0.26209c-3.19939,0.30937 -6.84001,1.36614 -9.71034,-0.8226c-2.39899,-1.82933 -2.55494,-4.9441 -2.68829,-7.66167c-0.15615,-3.18247 -0.07235,-6.4544 1.23197,-9.42251c0.01868,-0.04251 0.34651,-0.63716 0.74482,-1.35642c-0.59019,-0.11079 -1.43983,-0.49043 -1.5448,-1.75011c-0.01681,-0.20182 -0.01106,-0.38452 0.01281,-0.54991c-2.41737,0.2387 -4.9041,0.54552 -7.09336,0.19164c-11.36103,-1.83637 -18.50709,-10.29761 -22.47786,-20.22395l-0.25322,-0.74898c0,0 -0.61984,-1.85956 1.23972,-2.47939c1.85956,-0.61984 2.47941,1.2397 2.47941,1.2397l0.174,0.53272c3.46438,8.66152 9.35315,16.16409 19.38975,17.79865c3.00479,0.48936 6.82832,-0.44674 9.9774,-0.44674c0,0 1.96014,0 1.96014,1.96014c0,0.07036 -0.00252,0.1382 -0.0074,0.2036c10.65045,-1.52549 19.54599,-5.76852 28.53752,-12.06271l0.27662,-0.86194c0,0 0.97248,-1.70189 2.67437,-0.72939c1.70189,0.97248 0.72939,2.67437 0.72939,2.67437l-1.43225,2.12859c-9.40553,6.58374 -18.8037,11.02211 -29.91546,12.68138c-0.641,1.11918 -1.35342,2.2022 -1.88316,3.37729c-1.07325,2.38069 -1.02137,5.11674 -0.90414,7.66632c0.03315,0.72125 0.10572,1.44077 0.19534,2.15719c0.11163,0.89259 0.12303,1.96721 0.96136,2.57053c0.37911,0.27284 0.85067,0.43007 1.31444,0.48547c1.96812,0.23506 3.68205,-0.27674 5.63682,-0.45362c1.11265,-0.10069 2.25492,0.06801 3.34753,-0.16512c0.77578,-0.16555 1.41035,-0.73624 2.1552,-1.00905c0.76055,-0.27854 1.58495,-0.35729 2.34439,-0.63888c2.29079,-0.84934 4.22594,-2.26951 6.28613,-3.53722c1.96668,-1.98906 4.04783,-3.85202 6.02896,-5.83314l0.93665,-0.5808c0,0 0.4126,-0.2063 0.93756,-0.21858c0.28141,-0.34414 0.56295,-0.68817 0.83932,-1.0361c0.25915,-0.32625 0.51263,-0.65727 0.76574,-0.98865c-0.04635,-0.57636 0.11841,-1.33009 1.08877,-1.81528c0.17986,-0.08993 0.3505,-0.15219 0.51191,-0.1915c0.06243,-0.07152 0.12542,-0.14256 0.189,-0.21311c0.46454,-0.5153 1.07867,-0.87665 1.56935,-1.36713c0.49032,-0.4901 0.9269,-1.03176 1.36669,-1.56766c1.11162,-1.35455 2.09188,-2.81186 3.15244,-4.20676c0.75342,-0.99092 1.57707,-1.92818 2.30919,-2.93496c0.4052,-0.55721 0.68382,-1.20061 1.09838,-1.75088c0.41817,-0.55506 1.0412,-0.95253 1.39081,-1.55314c0.86096,-1.47908 0.86643,-2.62003 1.27676,-4.18115c0.21085,-0.80217 0.92161,-2.82492 1.01633,-3.77793c0.07044,-0.70854 -0.07453,-1.42796 0,-2.13608c0.06873,-0.65287 0.35668,-1.26984 0.42722,-1.92251c0.153,-1.41574 -0.01171,-2.84794 -0.01171,-4.27192c0.01538,-2.23237 -0.19844,-4.88596 -1.17687,-7.02565c-0.04773,0.0239 -0.09751,0.04701 -0.14944,0.06926c-1.80165,0.77214 -2.57379,-1.02951 -2.57379,-1.02951c-0.37371,-0.88934 -0.81145,-1.73207 -1.29884,-2.53957c-0.19937,-0.1803 -0.37098,-0.42267 -0.47203,-0.74857c-1.40508,-2.13732 -3.14375,-4.04101 -4.92833,-5.93978c-0.21754,-0.02015 -0.43371,-0.03972 -0.64823,-0.05902l0.15643,0.12107c0,0 -1.85956,0.61981 -2.47937,-1.23975c-0.21541,-0.64627 -0.13136,-1.14279 0.07003,-1.51561c-0.22625,-0.28537 -0.38422,-0.68385 -0.38422,-1.2403c0,-1.96014 1.96014,-1.96014 1.96014,-1.96014l0.33868,0.06908c4.38219,-1.19484 8.75076,-3.25545 13.26134,-3.89328c6.055,-0.85622 11.52402,1.53898 16.21799,5.11076c0.08143,-0.03022 0.166,-0.06145 0.25392,-0.09382c1.95729,-0.72041 4.35057,-1.2398 6.03077,-2.64039c0.10196,-0.08498 2.46203,-3.18794 2.64299,-3.45341c0.38598,-0.56621 0.81965,-1.11532 1.08002,-1.7492c0.20908,-0.50901 0.2553,-1.07438 0.30489,-1.62242c0.09398,-1.03891 0.11657,-2.37916 -0.41038,-3.35286c-0.3256,-0.60167 -1.84813,-1.83799 -2.2833,-2.18775c-0.48118,-0.38676 -0.94353,-0.80577 -1.47475,-1.12029c-1.71928,-1.01792 -3.98688,-1.44776 -5.89427,-1.9256c-0.88209,-0.22098 -1.76399,-0.44785 -2.65789,-0.61479c-0.91706,-0.17127 -1.8468,-0.26595 -2.77018,-0.39893c-1.96784,0.00321 -3.93195,0.22595 -5.86465,0.64307c-0.20113,0.37371 -0.40407,0.74589 -0.6064,1.11726c0,0 -0.93863,1.72078 -2.65943,0.78216c-0.38728,-0.21124 -0.63985,-0.46211 -0.79873,-0.72404c-9.94525,3.61303 -18.45112,12.19724 -21.37757,21.99559l-0.14293,1.5757c0,0 -0.21646,1.94815 -2.16461,1.73168c-1.94815,-0.21646 -1.7317,-2.16462 -1.7317,-2.16462l0.2843,-2.26928c2.31464,-7.68397 7.57018,-14.59306 14.28934,-19.44267c-5.03021,-1.63697 -9.47512,-3.65707 -14.12114,-6.47254c-1.59226,2.39106 -3.01995,4.90198 -4.31822,7.48804c0.06131,0.21562 0.12415,0.43054 0.19708,0.64095c0,0 0.61986,1.85955 -1.2397,2.47941c-0.17771,0.05924 -0.34409,0.09583 -0.49971,0.11356c-2.14162,4.72195 -3.91572,9.6252 -5.52335,14.45391l-0.46681,1.17615c0,0 -0.72795,1.81995 -2.5479,1.09199c-1.81995,-0.72795 -1.092,-2.54792 -1.092,-2.54792l0.38761,-0.95995c1.85887,-5.56928 3.93509,-11.20793 6.50176,-16.58226c-0.29186,-0.41006 -0.64846,-0.77778 -0.98503,-1.1528c-0.88092,-0.98153 -1.80209,-1.77863 -2.82035,-2.46932c-0.2715,0.11543 -0.60824,0.17296 -1.02564,0.13257c-1.35113,-0.13076 -1.67601,-1.10666 -1.74807,-1.69442c-0.38938,-0.20014 -0.78435,-0.39142 -1.21072,-0.46792c-0.70413,-0.12636 -1.43727,-0.07877 -2.14609,0.01802c-0.52573,0.07179 -1.29528,0.30163 -2.05798,0.58329c0.16859,0.4837 0.43669,1.73446 -0.95699,2.43127c-1.19007,0.59504 -1.97623,-0.02166 -2.35849,-0.47922c-0.2068,0.20848 -0.41208,0.41897 -0.62911,0.61425c-0.66769,0.60079 -1.38587,1.14903 -2.008,1.79688c-1.76996,1.84313 -2.71578,4.64925 -2.90041,7.17142c-0.07369,1.00668 0.00884,2.01874 0.00792,3.02812c-0.00064,0.70932 -0.10066,1.42408 -0.01259,2.12791c0.10715,0.85649 0.39612,1.68026 0.59417,2.5204c2.47494,9.08627 5.0558,15.35992 11.87454,22.16222l0.67214,0.93955c0,0 1.08731,1.63092 -0.54362,2.71823c-1.63092,1.08731 -2.71825,-0.5436 -2.71825,-0.5436l-0.18234,-0.34212c-7.28683,-7.30287 -10.24287,-14.23152 -12.90424,-23.97759c-0.22916,-1.01117 -0.55902,-2.00466 -0.68752,-3.03347c-0.10624,-0.85058 -0.01192,-1.71434 -0.01259,-2.57152c-0.00088,-1.12672 -0.08201,-2.25705 0.00792,-3.38018c0.27445,-3.42724 1.58019,-6.96325 3.93512,-9.49019c0.69384,-0.74451 1.50418,-1.37127 2.2642,-2.04808c0.46974,-0.41831 0.90551,-0.88311 1.3789,-1.29749c-1.41353,-2.81359 -3.37227,-6.78328 -1.9464,-9.42677c0.87264,-1.61781 5.49735,-3.43412 8.77831,-4.7122l-0.82741,-0.41197c0,0 -1.70187,-0.97251 -0.72938,-2.67439c0.97251,-1.70187 2.67439,-0.72938 2.67439,-0.72938l1.90879,1.17028c0.49314,0.4937 0.94084,0.98479 1.34677,1.47501c0.35695,0.15135 0.70436,0.44999 0.96251,0.99727c0.09257,0.19623 0.15316,0.381 0.18773,0.55442c2.5973,3.95731 2.72798,7.98091 2.32526,13.00312c0.26244,0.15775 0.5206,0.32115 0.77438,0.49033c0.777,0.05766 1.42792,0.56828 1.68963,1.26874c0.68958,0.58215 1.33945,1.2182 1.94767,1.9123c1.07155,-1.99033 2.22357,-3.93087 3.4711,-5.80323c-0.29829,-0.46251 -0.4728,-1.13867 0.03528,-1.98547c0.60187,-1.00311 1.4432,-1.04836 2.02379,-0.92178c1.41873,-1.88291 2.95128,-3.68011 4.61503,-5.37036l-0.15302,-0.10288c0,0 -1.5681,-1.17612 -0.392,-2.74421zM335.6836,142.36306c0.52425,1.64603 0.01463,3.41002 -0.34964,5.15189c2.20312,-1.11248 4.50356,-2.01159 6.86181,-2.66303c0.8396,-1.65289 1.56493,-3.36791 1.87241,-5.20297c0.13091,-0.7813 0.03437,-1.5896 -0.06329,-2.37574c-0.29579,-2.38096 -1.07232,-4.20433 -2.56623,-6.0412c-0.92138,-1.1329 -2.24482,-2.88655 -3.92687,-2.90858c-0.63104,-0.00826 -1.23503,0.26043 -1.85238,0.39148c-0.55168,0.11711 -1.12862,0.14974 -1.65469,0.35303c-0.83046,0.32093 -1.57959,0.82262 -2.38259,1.20715c-1.30881,0.62676 -2.66705,1.15609 -3.93632,1.85947c-0.43205,0.23942 -0.851,0.4937 -1.25852,0.76151c4.0609,2.06276 7.84834,5.04633 9.25632,9.467zM331.86863,143.26557c-1.36929,-3.77214 -5.1844,-6.09047 -8.82474,-7.65134c-0.23548,0.22347 -0.4681,0.45113 -0.69836,0.68254c-1.51817,1.51815 -2.92163,3.1326 -4.22492,4.8249c4.39213,2.63954 8.57695,4.51664 13.35841,6.04578c0.3599,-1.32827 0.83888,-2.66421 0.38961,-3.90187zM294.19788,136.61072c-0.86866,0.3546 -2.17391,0.07635 -2.67758,0.86793c-0.45568,0.71617 0.95562,3.6959 1.94306,5.62655c1.16997,-0.46325 2.41445,-0.84673 3.31159,-0.95202c1.12821,-0.1324 2.28799,-0.17279 3.40779,0.01802c0.26655,0.04541 0.52682,0.11631 0.78265,0.2037c0.20654,-3.1082 0.05573,-5.70901 -1.38466,-8.2828c-1.77873,0.87491 -3.54866,1.76988 -5.38285,2.51862zM353.45041,172.12326c0,0 -1.7532,0.87661 -2.6298,-0.87661c-0.87661,-1.75321 0.87659,-2.6298 0.87659,-2.6298c0.04598,-0.02296 0.09101,-0.04546 0.13511,-0.06754c-3.46801,-2.28181 -7.36489,-3.6848 -11.57688,-3.07545c-2.88246,0.41701 -5.71837,1.44638 -8.53522,2.42832c2.64255,0.43488 5.25098,1.1441 7.53408,2.48637c12.15598,7.1468 16.33894,23.60161 17.41556,36.69535c-0.01913,0.35058 -0.036,0.70092 -0.05128,1.05104c0.20765,0.01126 0.41706,0.01413 0.62872,0.00663c2.83146,-0.10033 5.16707,-0.84314 7.56774,-2.28769c1.29857,-0.78138 3.20413,-1.96077 4.26498,-3.06652c1.71395,-1.7865 2.54146,-4.51795 2.46824,-6.9413c-0.09001,-2.97887 -1.56473,-5.35247 -2.95829,-7.8625c-0.87286,-1.57214 -1.88514,-3.0643 -2.89841,-4.5498c-0.79889,-1.17119 -1.44047,-2.45113 -2.30804,-3.5724c-0.76971,-0.9948 -1.63992,-1.90758 -2.45988,-2.86138c-1.64384,-1.91923 -3.526,-3.95591 -5.6135,-5.78135c-0.6253,0.29046 -1.24389,0.59612 -1.85975,0.90461zM352.57581,211.37418c0,0 -1.91346,-0.42523 -1.48823,-2.33868c0.25568,-1.15056 1.04946,-1.45554 1.64177,-1.51585c0.00657,-0.12714 0.01344,-0.25435 0.02064,-0.38155c-0.98674,-11.65861 -4.59223,-26.9595 -15.48041,-33.3688c-1.17231,-0.69008 -2.46504,-1.17332 -3.80863,-1.52454c0.67112,0.82251 1.31035,1.66465 1.90596,2.54005l0.42921,0.06647c4.88641,2.86444 6.10411,8.2918 6.13487,13.67567c0,0.15212 0.0039,4.54778 -0.0117,4.69967c-0.06708,0.65304 -0.35849,1.26964 -0.42722,1.92251c-0.07453,0.70813 0.07812,1.42838 0,2.13613c-0.17335,1.57059 -0.72147,2.82754 -1.11976,4.33925c-0.58858,2.23398 -0.38715,2.8625 -1.71382,5.21769c-0.40192,0.71352 -1.10971,1.20848 -1.59974,1.86463c-0.39164,0.52439 -0.65274,1.13759 -1.03771,1.66689c-0.75917,1.04377 -1.60948,2.01841 -2.39023,3.04614c-1.09362,1.43957 -2.10444,2.94385 -3.25586,4.33765c-0.52259,0.63262 -1.04576,1.26779 -1.62389,1.85009c-0.46662,0.47001 -1.05943,0.80772 -1.50308,1.29948c-0.04491,0.04979 -0.08946,0.09987 -0.13367,0.15024c0.15054,0.30352 0.30492,0.60503 0.46786,0.90206c0.76471,1.39397 1.59259,2.36371 2.48502,3.7171c0.72767,1.10353 1.42438,2.22722 2.12219,3.34985c0.55986,0.90071 0.96782,1.90846 1.65072,2.71988c0.84767,1.0072 3.94874,0.92324 4.45454,0.92341c2.49871,0.00082 3.16122,-0.38928 5.32326,-1.79265c3.061,-1.98689 2.91026,-2.22112 5.40122,-4.91037c0.42027,-0.45373 0.93027,-0.8343 1.27547,-1.34746c0.55536,-0.82558 1.31334,-3.69363 1.4333,-4.2599c0.6317,-2.98189 0.7605,-5.9749 0.85773,-8.98284c-0.00326,-0.00072 -0.00654,-0.00144 -0.00982,-0.00216z" fill="#00ff2b" stroke="none" stroke-width="0.5"/><path d="M267.29899,160.94906c0.87659,-1.75321 2.6298,-0.87662 2.6298,-0.87662l1.58619,0.79828c3.08123,1.28416 6.51142,2.5742 9.06877,4.80918c6.7649,5.91218 1.42143,16.09441 0.00301,23.23144c0,0 -0.38441,1.92208 -2.30649,1.53768c-1.92208,-0.38441 -1.53768,-2.30649 -1.53768,-2.30649c0.99881,-4.96577 6.23852,-15.36487 1.28465,-19.49062c-2.30557,-1.92015 -5.29124,-3.02577 -8.02005,-4.16248l-1.83157,-0.91059c0,0 -1.75321,-0.87659 -0.87662,-2.6298z" fill="#00ff2b" stroke="none" stroke-width="0.5"/><path d="M288.6315,223.66702c-1.17608,-1.56811 0.39203,-2.7442 0.39203,-2.7442l1.0786,-0.78619c10.91052,-6.0614 22.07304,-3.427 32.15826,3.28669c0,0 1.63093,1.08728 0.54365,2.71823c-1.08728,1.63093 -2.71823,0.54365 -2.71823,0.54365c-8.85673,-5.91367 -18.49719,-8.44531 -28.07984,-3.12163l-0.63029,0.49548c0,0 -1.56811,1.17608 -2.7442,-0.39203z" fill="#00ff2b" stroke="none" stroke-width="0.5"/><path d="M132.5,352.54601v-345.09202h375v345.09202z" fill="none" stroke="#000000" stroke-width="0"/></g></g></svg>