<svg version="1.1" xmlns="http://www.w3.org/2000/svg" xmlns:xlink="http://www.w3.org/1999/xlink" width="375" height="345.09202" viewBox="0,0,375,345.09202"><g transform="translate(-132.5,-7.45399)"><g stroke-miterlimit="10"><path d="M320.09607,182.62774c-1.95456,0.93998 -3.25061,-0.2139 -3.92157,-2.36362c-0.58406,-1.8713 0.80971,-3.7923 2.48889,-4.01975c1.92359,-1.27603 4.18448,0.25271 4.60053,2.32962c0.15359,0.76673 -0.26597,1.61057 -0.81289,2.22223c0.14051,1.04425 -0.10141,1.95787 -1.24108,2.16663c-0.41321,0.07569 -0.77542,-0.07659 -1.11388,-0.3351z" fill="#00ff2b" stroke="none" stroke-width="0.5"/><path d="M307.96083,171.04674c-1.25,0 -1.25,-1.25 -1.25,-1.25c0,-0.44903 0,-1.79614 0,-2.24518c0,0 0,-1.25 1.25,-1.25c1.25,0 1.25,1.25 1.25,1.25c0,0.44903 0,0.89808 0,1.34711v0.89807c0,0 0,1.25 -1.25,1.25z" fill="#00ff2b" stroke="none" stroke-width="0.5"/><path d="M310.00374,163.95928c0,-0.69035 0.55964,-1.25 1.25,-1.25c0.69036,0 1.25,0.55965 1.25,1.25c0,0.69035 -0.55964,1.25 -1.25,1.25c-0.69036,0 -1.25,-0.55965 -1.25,-1.25z" fill="#00ff2b" stroke="none" stroke-width="0.5"/><path d="M314.94313,161.86379c0,-0.69035 0.55964,-1.25 1.25,-1.25c0.69036,0 1.25,0.55965 1.25,1.25c0,0.69035 -0.55964,1.25 -1.25,1.25c-0.69036,0 -1.25,-0.55965 -1.25,-1.25z" fill="#00ff2b" stroke="none" stroke-width="0.5"/><path d="M319.73283,159.16958c0,-0.69035 0.55964,-1.25 1.25,-1.25c0.69036,0 1.25,0.55965 1.25,1.25c0,0.69035 -0.55964,1.25 -1.25,1.25c-0.69036,0 -1.25,-0.55965 -1.25,-1.25z" fill="#00ff2b" stroke="none" stroke-width="0.5"/><path d="M324.52252,161.86379c0,-0.69035 0.55964,-1.25 1.25,-1.25c0.69036,0 1.25,0.55965 1.25,1.25c0,0.69035 -0.55964,1.25 -1.25,1.25c-0.69036,0 -1.25,-0.55965 -1.25,-1.25z" fill="#00ff2b" stroke="none" stroke-width="0.5"/><path d="M330.21029,161.41475c0,-0.69035 0.55964,-1.25 1.25,-1.25c0.69036,0 1.25,0.55965 1.25,1.25c0,0.69035 -0.55964,1.25 -1.25,1.25c-0.69036,0 -1.25,-0.55965 -1.25,-1.25z" fill="#00ff2b" stroke="none" stroke-width="0.5"/><path d="M335.14968,165.1567c0,-0.69035 0.55964,-1.25 1.25,-1.25c0.69036,0 1.25,0.55965 1.25,1.25c0,0.69035 -0.55964,1.25 -1.25,1.25c-0.69036,0 -1.25,-0.55965 -1.25,-1.25z" fill="#00ff2b" stroke="none" stroke-width="0.5"/><path d="M339.04132,170.39545c0,-0.69035 0.55964,-1.25 1.25,-1.25c0.69036,0 1.25,0.55965 1.25,1.25c0,0.69035 -0.55964,1.25 -1.25,1.25c-0.69036,0 -1.25,-0.55965 -1.25,-1.25z" fill="#00ff2b" stroke="none" stroke-width="0.5"/><path d="M341.43617,175.63419c0,-0.69035 0.55964,-1.25 1.25,-1.25c0.69036,0 1.25,0.55965 1.25,1.25c0,0.69035 -0.55964,1.25 -1.25,1.25c-0.69036,0 -1.25,-0.55965 -1.25,-1.25z" fill="#00ff2b" stroke="none" stroke-width="0.5"/><path d="M342.48391,182.07034c0,-0.69035 0.55964,-1.25 1.25,-1.25c0.69036,0 1.25,0.55965 1.25,1.25c0,0.69035 -0.55964,1.25 -1.25,1.25c-0.69036,0 -1.25,-0.55965 -1.25,-1.25z" fill="#00ff2b" stroke="none" stroke-width="0.5"/><path d="M341.13681,187.30908c0,-0.69035 0.55964,-1.25 1.25,-1.25c0.69036,0 1.25,0.55965 1.25,1.25c0,0.69035 -0.55964,1.25 -1.25,1.25c-0.69036,0 -1.25,-0.55965 -1.25,-1.25z" fill="#00ff2b" stroke="none" stroke-width="0.5"/><path d="M339.64003,195.84075c0,-0.69035 0.55964,-1.25 1.25,-1.25c0.69036,0 1.25,0.55965 1.25,1.25c0,0.69035 -0.55964,1.25 -1.25,1.25c-0.69036,0 -1.25,-0.55965 -1.25,-1.25z" fill="#00ff2b" stroke="none" stroke-width="0.5"/><path d="M334.40128,201.22915c0,-0.69035 0.55964,-1.25 1.25,-1.25c0.69036,0 1.25,0.55965 1.25,1.25c0,0.69035 -0.55964,1.25 -1.25,1.25c-0.69036,0 -1.25,-0.55965 -1.25,-1.25z" fill="#00ff2b" stroke="none" stroke-width="0.5"/><path d="M328.26448,207.06661c0,-0.69035 0.55964,-1.25 1.25,-1.25c0.69036,0 1.25,0.55965 1.25,1.25c0,0.69035 -0.55964,1.25 -1.25,1.25c-0.69036,0 -1.25,-0.55965 -1.25,-1.25z" fill="#00ff2b" stroke="none" stroke-width="0.5"/><path d="M320.48122,210.5092c0,-0.69035 0.55964,-1.25 1.25,-1.25c0.69036,0 1.25,0.55965 1.25,1.25c0,0.69035 -0.55964,1.25 -1.25,1.25c-0.69036,0 -1.25,-0.55965 -1.25,-1.25z" fill="#00ff2b" stroke="none" stroke-width="0.5"/><path d="M310.90182,213.50277c0,-0.69035 0.55964,-1.25 1.25,-1.25c0.69036,0 1.25,0.55965 1.25,1.25c0,0.69035 -0.55964,1.25 -1.25,1.25c-0.69036,0 -1.25,-0.55965 -1.25,-1.25z" fill="#00ff2b" stroke="none" stroke-width="0.5"/><path d="M303.26822,211.70663c0,-0.69035 0.55964,-1.25 1.25,-1.25c0.69036,0 1.25,0.55965 1.25,1.25c0,0.69035 -0.55964,1.25 -1.25,1.25c-0.69036,0 -1.25,-0.55965 -1.25,-1.25z" fill="#00ff2b" stroke="none" stroke-width="0.5"/><path d="M292.64108,206.91692c0,-0.69035 0.55964,-1.25 1.25,-1.25c0.69036,0 1.25,0.55965 1.25,1.25c0,0.69035 -0.55964,1.25 -1.25,1.25c-0.69036,0 -1.25,-0.55965 -1.25,-1.25z" fill="#00ff2b" stroke="none" stroke-width="0.5"/><path d="M277.82293,190.60201c0,-0.69035 0.55964,-1.25 1.25,-1.25c0.69036,0 1.25,0.55965 1.25,1.25c0,0.69035 -0.55964,1.25 -1.25,1.25c-0.69036,0 -1.25,-0.55965 -1.25,-1.25z" fill="#00ff2b" stroke="none" stroke-width="0.5"/><path d="M284.40878,200.9298c0,-0.69035 0.55964,-1.25 1.25,-1.25c0.69036,0 1.25,0.55965 1.25,1.25c0,0.69035 -0.55964,1.25 -1.25,1.25c-0.69036,0 -1.25,-0.55965 -1.25,-1.25z" fill="#00ff2b" stroke="none" stroke-width="0.5"/><path d="M273.03323,177.87936c0,-0.69035 0.55964,-1.25 1.25,-1.25c0.69036,0 1.25,0.55965 1.25,1.25c0,0.69035 -0.55964,1.25 -1.25,1.25c-0.69036,0 -1.25,-0.55965 -1.25,-1.25z" fill="#00ff2b" stroke="none" stroke-width="0.5"/><path d="M270.93773,163.65992c0,-0.69035 0.55964,-1.25 1.25,-1.25c0.69036,0 1.25,0.55965 1.25,1.25c0,0.69035 -0.55964,1.25 -1.25,1.25c-0.69036,0 -1.25,-0.55965 -1.25,-1.25z" fill="#00ff2b" stroke="none" stroke-width="0.5"/><path d="M275.42807,149.88953c0,-0.69035 0.55964,-1.25 1.25,-1.25c0.69036,0 1.25,0.55965 1.25,1.25c0,0.69035 -0.55964,1.25 -1.25,1.25c-0.69036,0 -1.25,-0.55965 -1.25,-1.25z" fill="#00ff2b" stroke="none" stroke-width="0.5"/><path d="M282.61264,136.56818c0,-0.69035 0.55964,-1.25 1.25,-1.25c0.69036,0 1.25,0.55965 1.25,1.25c0,0.69035 -0.55964,1.25 -1.25,1.25c-0.69036,0 -1.25,-0.55965 -1.25,-1.25z" fill="#00ff2b" stroke="none" stroke-width="0.5"/><path d="M296.3385,123.47134c0,1.25 -1.25,1.25 -1.25,1.25h-1.3471c0,0 -1.25,0 -1.25,-1.25c0,-1.25 1.25,-1.25 1.25,-1.25h1.3471c0,0 1.25,0 1.25,1.25z" fill="#00ff2b" stroke="none" stroke-width="0.5"/><path d="M312.88602,115.22485c-0.49238,0.49238 -0.98476,0.43618 -1.32434,0.2898c-0.37736,0.06861 -0.75471,0.13723 -1.13207,0.20584c0,0 -1.22983,0.22361 -1.45344,-1.00623c-0.22361,-1.22984 1.00622,-1.45345 1.00622,-1.45345c0.54882,-0.09979 1.09764,-0.19957 1.64646,-0.29936l1.25718,0.49563c0,0 0.88389,0.88388 0,1.76777z" fill="#00ff2b" stroke="none" stroke-width="0.5"/><path d="M329.67479,109.21348l1.85485,0.31849c-0.09125,-0.04845 -0.15103,-0.25184 -0.08098,-0.32499c0,0 1.24235,0.13803 1.10431,1.38039c-0.13804,1.24235 -1.38039,1.10431 -1.38039,1.10431c-0.75809,-0.24598 -1.84587,-0.06588 -2.27427,-0.73794c-0.07985,-0.12526 -0.12049,-0.25886 -0.13323,-0.39838c-0.54122,-0.71825 0.07267,-1.48561 0.07267,-1.48561l0.28901,0.04963c0.05071,-0.15462 0.09307,-0.30747 0.11538,-0.45605z" fill="#00ff2b" stroke="none" stroke-width="0.5"/><path d="M347.27362,109.85062c0,-0.69036 0.55964,-1.25 1.25,-1.25c0.49732,0 0.9268,0.29043 1.12811,0.71092c0.15792,-0.07206 0.33345,-0.11221 0.51836,-0.11221c0.69036,0 1.25,0.55964 1.25,1.25c0,0.31132 -0.11381,0.59605 -0.30208,0.81487c0.0018,0.0275 0.00272,0.05524 0.00272,0.0832c0,0.69036 -0.55964,1.25 -1.25,1.25c-0.69036,0 -1.25,-0.55964 -1.25,-1.25c0,-0.08658 0.0088,-0.1711 0.02556,-0.25272c-0.04035,0.00393 -0.08128,0.00594 -0.12267,0.00594c-0.69036,0 -1.25,-0.55964 -1.25,-1.25z" fill="#00ff2b" stroke="none" stroke-width="0.5"/><path d="M369.72535,116.43646c0,-0.69036 0.55964,-1.25 1.25,-1.25c0.69036,0 1.25,0.55964 1.25,1.25c0,0.69036 -0.55964,1.25 -1.25,1.25c-0.69036,0 -1.25,-0.55964 -1.25,-1.25z" fill="#00ff2b" stroke="none" stroke-width="0.5"/><path d="M389.63254,129.30878c0,-0.69035 0.55964,-1.25 1.25,-1.25c0.69036,0 1.25,0.55965 1.25,1.25c0,0.04268 -0.00213,0.08487 -0.00631,0.12645c0.06012,0.03628 0.11694,0.07748 0.16989,0.12305c0.0275,-0.0018 0.05525,-0.00272 0.08321,-0.00272c0.69036,0 1.25,0.55965 1.25,1.25c0,0.69035 -0.55964,1.25 -1.25,1.25c-0.31131,0 -0.59605,-0.11381 -0.81486,-0.30208c-0.0275,0.0018 -0.05525,0.00273 -0.08321,0.00273c-0.69036,0 -1.25,-0.55965 -1.25,-1.25c0,-0.04268 0.00213,-0.08487 0.00631,-0.12645c-0.36259,-0.21883 -0.60503,-0.61659 -0.60503,-1.07097z" fill="#00ff2b" stroke="none" stroke-width="0.5"/><path d="M331.22063,190.04211c0,-0.69035 0.55964,-1.25 1.25,-1.25c0.69036,0 1.25,0.55965 1.25,1.25c0,0.69035 -0.55964,1.25 -1.25,1.25c-0.69036,0 -1.25,-0.55965 -1.25,-1.25z" fill="#00ff2b" stroke="none" stroke-width="0.5"/><path d="M328.07739,193.63439c0,-0.69035 0.55964,-1.25 1.25,-1.25c0.69036,0 1.25,0.55965 1.25,1.25c0,0.69035 -0.55964,1.25 -1.25,1.25c-0.69036,0 -1.25,-0.55965 -1.25,-1.25z" fill="#00ff2b" stroke="none" stroke-width="0.5"/><path d="M323.28769,196.17892c0,-0.69035 0.55964,-1.25 1.25,-1.25c0.69036,0 1.25,0.55965 1.25,1.25c0,0.69035 -0.55964,1.25 -1.25,1.25c-0.69036,0 -1.25,-0.55965 -1.25,-1.25z" fill="#00ff2b" stroke="none" stroke-width="0.5"/><path d="M318.04895,197.52602c0,-0.69035 0.55964,-1.25 1.25,-1.25c0.69036,0 1.25,0.55965 1.25,1.25c0,0.69035 -0.55964,1.25 -1.25,1.25c-0.69036,0 -1.25,-0.55965 -1.25,-1.25z" fill="#00ff2b" stroke="none" stroke-width="0.5"/><path d="M312.66053,197.97505c0,-0.69035 0.55964,-1.25 1.25,-1.25c0.69036,0 1.25,0.55965 1.25,1.25c0,0.69035 -0.55964,1.25 -1.25,1.25c-0.69036,0 -1.25,-0.55965 -1.25,-1.25z" fill="#00ff2b" stroke="none" stroke-width="0.5"/><path d="M306.82309,196.32859c0,-0.69035 0.55964,-1.25 1.25,-1.25c0.69036,0 1.25,0.55965 1.25,1.25c0,0.69035 -0.55964,1.25 -1.25,1.25c-0.69036,0 -1.25,-0.55965 -1.25,-1.25z" fill="#00ff2b" stroke="none" stroke-width="0.5"/><path d="M302.6321,193.18536c0,-0.0017 0,-0.0034 0.00001,-0.00509c-0.09548,-0.1766 -0.14968,-0.37879 -0.14968,-0.59363c0,-0.69035 0.55964,-1.25 1.25,-1.25c0.69036,0 1.25,0.55965 1.25,1.25c0,0.0017 -0.00001,0.0034 -0.00001,0.0051c0.09548,0.1766 0.14968,0.37878 0.14968,0.59363c0,0.69035 -0.55964,1.25 -1.25,1.25c-0.69036,0 -1.25,-0.55965 -1.25,-1.25z" fill="#00ff2b" stroke="none" stroke-width="0.5"/><path d="M298.14175,188.84469c0,-0.69035 0.55964,-1.25 1.25,-1.25c0.69036,0 1.25,0.55965 1.25,1.25c0,0.69035 -0.55964,1.25 -1.25,1.25c-0.69036,0 -1.25,-0.55965 -1.25,-1.25z" fill="#00ff2b" stroke="none" stroke-width="0.5"/><path d="M295.14819,182.5582c0,-0.69035 0.55964,-1.25 1.25,-1.25c0.69036,0 1.25,0.55965 1.25,1.25c0,0.69035 -0.55964,1.25 -1.25,1.25c-0.69036,0 -1.25,-0.55965 -1.25,-1.25z" fill="#00ff2b" stroke="none" stroke-width="0.5"/><path d="M294.3998,176.87043c0,-0.69035 0.55964,-1.25 1.25,-1.25c0.69036,0 1.25,0.55965 1.25,1.25c0,0.69035 -0.55964,1.25 -1.25,1.25c-0.69036,0 -1.25,-0.55965 -1.25,-1.25z" fill="#00ff2b" stroke="none" stroke-width="0.5"/><path d="M294.84882,169.23684c0,-0.69035 0.55964,-1.25 1.25,-1.25c0.69036,0 1.25,0.55965 1.25,1.25c0,0.69035 -0.55964,1.25 -1.25,1.25c-0.69036,0 -1.25,-0.55965 -1.25,-1.25z" fill="#00ff2b" stroke="none" stroke-width="0.5"/><path d="M297.24369,161.75293c0,-0.69035 0.55964,-1.25 1.25,-1.25c0.69036,0 1.25,0.55965 1.25,1.25c0,0.69035 -0.55964,1.25 -1.25,1.25c-0.69036,0 -1.25,-0.55965 -1.25,-1.25z" fill="#00ff2b" stroke="none" stroke-width="0.5"/><path d="M302.78177,156.21484c0,-0.69035 0.55964,-1.25 1.25,-1.25c0.69036,0 1.25,0.55965 1.25,1.25c0,0.69035 -0.55964,1.25 -1.25,1.25c-0.69036,0 -1.25,-0.55965 -1.25,-1.25z" fill="#00ff2b" stroke="none" stroke-width="0.5"/><path d="M309.36761,150.37739c0,-0.69035 0.55964,-1.25 1.25,-1.25c0.69036,0 1.25,0.55965 1.25,1.25c0,0.69035 -0.55964,1.25 -1.25,1.25c-0.69036,0 -1.25,-0.55965 -1.25,-1.25z" fill="#00ff2b" stroke="none" stroke-width="0.5"/><path d="M320.54895,147.87028c0,0.69035 -0.55964,1.25 -1.25,1.25c-0.6017,0 -1.1041,-0.42514 -1.22322,-0.99141c-0.45488,-0.18693 -0.77517,-0.63439 -0.77517,-1.15666c0,-0.23378 0.06418,-0.45258 0.17588,-0.63972c-0.45457,-0.18708 -0.77458,-0.63438 -0.77458,-1.15642c0,-0.69035 0.55964,-1.25 1.25,-1.25c0.69036,0 1.25,0.55965 1.25,1.25c0,0.23378 -0.06418,0.45258 -0.17588,0.63972c0.37737,0.15531 0.662,0.48996 0.7478,0.89783c0.45488,0.18693 0.77517,0.63439 0.77517,1.15666z" fill="#00ff2b" stroke="none" stroke-width="0.5"/><path d="M327.77803,145.62511c0,-0.69035 0.55964,-1.25 1.25,-1.25c0.69036,0 1.25,0.55965 1.25,1.25c0,0.376 -0.166,0.71322 -0.42872,0.94237c0.08281,0.16707 0.12937,0.35531 0.12937,0.55441c0,0.69035 -0.55964,1.25 -1.25,1.25c-0.69036,0 -1.25,-0.55965 -1.25,-1.25c0,-0.376 0.16601,-0.71322 0.42873,-0.94237c-0.08281,-0.16707 -0.12937,-0.35531 -0.12937,-0.55441z" fill="#00ff2b" stroke="none" stroke-width="0.5"/><path d="M336.97516,145.48961c0.88389,-0.88388 1.76776,0 1.76776,0c0.56163,0.83187 1.76164,1.49484 1.68489,2.49562c-0.06115,0.79743 -1.32013,0.90321 -1.98019,1.35482l-1.59663,-0.35174c0,0 -0.64795,-0.32398 -0.71067,-0.97194c-0.50889,-0.15823 -0.87838,-0.63288 -0.87838,-1.19383c0,-0.69035 0.55964,-1.25 1.25,-1.25c0.11957,0 0.23521,0.01679 0.34471,0.04813c0.03539,-0.04362 0.07479,-0.08734 0.11851,-0.13106z" fill="#00ff2b" stroke="none" stroke-width="0.5"/><path d="M345.71397,153.29117l0.06565,-0.1339l-0.51873,-0.4611l0.06997,-0.07872c-0.14018,-0.15771 -0.76458,-0.94857 0.02628,-1.73943c0.88389,-0.88388 1.76776,0 1.76776,0l1.19743,1.19742c0.2262,0.2262 0.36611,0.53871 0.36611,0.88389c0,0.69035 -0.55964,1.25 -1.25,1.25c-0.32069,0 -0.61318,-0.12077 -0.83445,-0.3193l-0.14388,-0.12789c-0.45238,-0.10378 -0.74614,-0.47098 -0.74614,-0.47098z" fill="#00ff2b" stroke="none" stroke-width="0.5"/><path d="M355.83548,159.35131l0.18884,1.71895c-0.74839,-0.14968 -1.49678,-0.29935 -2.24517,-0.44903c0,0 -1.22573,-0.24515 -0.98059,-1.47088c0.24514,-1.22572 1.47088,-0.98058 1.47088,-0.98058c0.12981,0.02596 0.25962,0.05193 0.38943,0.07789c0.50288,-0.23782 1.05524,-0.0011 1.05524,-0.0011l0.02383,0.21691c0.25889,0.05178 0.51777,0.10355 0.77666,0.15533z" fill="#00ff2b" stroke="none" stroke-width="0.5"/><path d="M359.06077,167.92717c0,-0.69035 0.55964,-1.25 1.25,-1.25c0.69036,0 1.25,0.55965 1.25,1.25c0,0.35077 -0.14448,0.6678 -0.37718,0.89481l1.24324,-0.27783c0.14968,0.64861 0.29935,1.29721 0.44903,1.94582c0,0 0.28107,1.21799 -0.93691,1.49906c-1.21799,0.28108 -1.49907,-0.93691 -1.49907,-0.93691c-0.04702,-0.20374 -0.09404,-0.40749 -0.14105,-0.61124c-0.66974,-0.45052 -0.45234,-1.32009 -0.45234,-1.32009l0.05478,-0.01224c-0.48923,-0.16957 -0.84049,-0.63445 -0.84049,-1.18138z" fill="#00ff2b" stroke="none" stroke-width="0.5"/><path d="M362.56752,180.29671c-0.39529,-1.18585 0.79056,-1.58114 0.79056,-1.58114l1.0788,-0.35961c0.22928,-0.27669 0.57553,-0.45293 0.96294,-0.45293c0.40815,0 0.77061,0.19562 0.99875,0.49821c0.11057,-0.03202 0.22746,-0.04918 0.34836,-0.04918c0.69036,0 1.25,0.55965 1.25,1.25c0,0.69035 -0.55964,1.25 -1.25,1.25c-0.20044,0 -0.38986,-0.04717 -0.55775,-0.13103c-0.09931,0.08097 -0.21131,0.14699 -0.33255,0.19461c0.02921,0.10599 0.04481,0.21761 0.04481,0.33288c0,0.69035 -0.55964,1.25 -1.25,1.25c-0.69036,0 -1.25,-0.55965 -1.25,-1.25c0,-0.04383 0.00225,-0.08714 0.00665,-0.12981c-0.31992,-0.0719 -0.66143,-0.28458 -0.84058,-0.822z" fill="#00ff2b" stroke="none" stroke-width="0.5"/><path d="M366.35048,194.4202c0,0.69035 -0.55964,1.25 -1.25,1.25c-0.65695,0 -1.19554,-0.5068 -1.24612,-1.15076c-0.44269,-0.19237 -0.75227,-0.63352 -0.75227,-1.14698c0,-0.69035 0.55964,-1.25 1.25,-1.25c0.23405,0 0.45307,0.06433 0.64036,0.17627c0.08316,-0.01743 0.16936,-0.0266 0.2577,-0.0266c0.69036,0 1.25,0.55965 1.25,1.25c0,0.23405 -0.06432,0.45309 -0.17627,0.64038c0.01743,0.08316 0.02659,0.16936 0.02659,0.25769z" fill="#00ff2b" stroke="none" stroke-width="0.5"/><path d="M363.36812,204.43639c1.06,0.6625 0.3975,1.7225 0.3975,1.7225c-0.24053,0.38485 -0.48107,0.7697 -0.72159,1.15455c-0.04097,0.38036 -0.23968,0.91867 -1.01287,1.05925c-1.22983,0.22361 -1.45344,-1.00623 -1.45344,-1.00623c-0.01791,-0.09849 -0.03582,-0.19699 -0.05372,-0.29548c-0.07452,-0.1601 -0.11611,-0.33861 -0.11611,-0.52683c0,-0.0313 0.00115,-0.06233 0.00341,-0.09305c-0.04431,-0.2437 -0.08862,-0.48739 -0.13293,-0.73109l-0.02017,-0.37328c0,0 0,-1.25 1.25,-1.25c0.32793,0 0.56983,0.08604 0.74827,0.21296c0.28607,-0.12556 0.6633,-0.1535 1.11165,0.12672z" fill="#00ff2b" stroke="none" stroke-width="0.5"/><path d="M356.78421,218.50162c-0.24516,1.22573 -1.47088,0.98057 -1.47088,0.98057l-1.38711,-0.49153c-0.29935,-0.29935 -0.59871,-0.59871 -0.89807,-0.89807c0,0 -0.88389,-0.88388 0,-1.76777c0.88389,-0.88388 1.76777,0 1.76777,0c0.29935,0.29935 0.59871,0.59871 0.89806,0.89807l0.10967,-0.19215c0,0 1.22572,0.24515 0.98056,1.47088z" fill="#00ff2b" stroke="none" stroke-width="0.5"/><path d="M343.00722,229.78713c0.23993,-0.3411 0.37554,-0.77623 0.38097,-1.17758c0,0 0.12438,-1.2438 1.36818,-1.11942c1.24379,0.12438 1.11942,1.36818 1.11942,1.36818c-0.17401,1.18989 -0.7538,2.3935 -1.62774,3.21954l-2.06348,-1.09875c0,0 0,-0.94576 0.82266,-1.19197z" fill="#00ff2b" stroke="none" stroke-width="0.5"/><path d="M327.36643,238.76236c0,-0.69036 0.55964,-1.25 1.25,-1.25c0.69036,0 1.25,0.55964 1.25,1.25c0,0.69036 -0.55964,1.25 -1.25,1.25c-0.69036,0 -1.25,-0.55964 -1.25,-1.25z" fill="#00ff2b" stroke="none" stroke-width="0.5"/><path d="M330.06062,238.61268c0,-0.69036 0.55964,-1.25 1.25,-1.25c0.69036,0 1.25,0.55964 1.25,1.25c0,0.69036 -0.55964,1.25 -1.25,1.25c-0.69036,0 -1.25,-0.55964 -1.25,-1.25z" fill="#00ff2b" stroke="none" stroke-width="0.5"/><path d="M310.6513,242.76892c0.09509,-0.37028 0.37532,-0.91589 1.20116,-0.91589c0.88366,0 1.14264,0.62468 1.21854,0.99084l0.57964,0.92744c0.12667,0.19547 0.20022,0.42857 0.20022,0.67884c0,0.69036 -0.55964,1.25 -1.25,1.25c-0.27621,0 -0.5315,-0.08959 -0.73838,-0.24129l-0.60571,-0.43264c-0.15407,0.09832 -0.30813,0.19666 -0.46219,0.29498c0,0 -1.17041,0.43889 -1.60931,-0.73152c-0.4389,-1.17041 0.73152,-1.60931 0.73152,-1.60931c0.24484,-0.07048 0.48967,-0.14096 0.73451,-0.21144z" fill="#00ff2b" stroke="none" stroke-width="0.5"/><path d="M292.69365,242.90077c0.69036,0 1.25,0.55964 1.25,1.25c0,0.45401 -0.24205,0.85149 -0.60414,1.07043l-0.55118,1.76577c0,0 -1.04005,0.69339 -1.73344,-0.34667c-0.2556,-0.38339 -0.27565,-0.71968 -0.19908,-0.99149c-0.24451,-0.26897 -0.48903,-0.53793 -0.73354,-0.80689c0,0 -0.84085,-0.92492 0.08408,-1.76576c0.84744,-0.7704 1.6243,-0.05849 1.74851,0.06619c0.20696,-0.15188 0.46241,-0.24159 0.7388,-0.24159z" fill="#00ff2b" stroke="none" stroke-width="0.5"/><path d="M268.99192,239.66043c0,-0.17981 0.02587,-0.33377 0.07016,-0.46557c-0.2694,-0.26415 -0.63932,-0.80835 -0.17952,-1.54404c0.6625,-1.06 1.7225,-0.3975 1.7225,-0.3975c0.29621,0.19666 0.59242,0.39334 0.88863,0.59l1.11646,0.12406c0.63259,0.06181 1.12694,0.59518 1.12694,1.24402c0,0.58597 -0.40321,1.07778 -0.94731,1.2131l-1.62026,0.44188l-0.92761,0.04405c0,0 -1.25,0 -1.25,-1.25z" fill="#00ff2b" stroke="none" stroke-width="0.5"/><path d="M246.98923,227.98554c0,-1.25 1.25,-1.25 1.25,-1.25h1.3471c0.69036,0 1.25,0.55964 1.25,1.25c0,0.47891 -0.26932,0.89492 -0.66477,1.10482l-1.32528,0.73626l-0.37286,-0.59108h-0.23419c0,0 -1.25,0 -1.25,-1.25z" fill="#00ff2b" stroke="none" stroke-width="0.5"/><path d="M227.793,209.12608c0,-0.69035 0.55964,-1.25 1.25,-1.25c0.69036,0 1.25,0.55965 1.25,1.25c0,0.21474 -0.05414,0.41683 -0.14952,0.59336c-0.00552,0.16129 -0.03598,0.29632 -0.05761,0.37376c0.07151,0.26323 0.05313,0.4838 0.05313,0.4838c-0.04989,0.59871 -0.09978,1.19743 -0.14968,1.79615l-1.52985,1.35614c0,0 -1.1606,0.46423 -1.62483,-0.69637c-0.25436,-0.63591 -0.02092,-1.06277 0.24214,-1.31875c-0.08573,-0.38508 0.03197,-0.73819 0.03197,-0.73819l0.16512,-0.49265c0.14968,-0.39914 0.29935,-0.79828 0.44903,-1.19742c0,0 0.02227,-0.05939 0.07016,-0.1464c-0.00005,-0.00446 -0.00007,-0.00894 -0.00007,-0.01341z" fill="#00ff2b" stroke="none" stroke-width="0.5"/><path d="M354.57043,211.0719c0,-0.69035 0.55964,-1.25 1.25,-1.25c0.69036,0 1.25,0.55965 1.25,1.25c0,0.69035 -0.55964,1.25 -1.25,1.25c-0.69036,0 -1.25,-0.55965 -1.25,-1.25z" fill="#00ff2b" stroke="none" stroke-width="0.5"/><path d="M344.99102,221.99841c0,-0.69036 0.55964,-1.25 1.25,-1.25c0.69036,0 1.25,0.55964 1.25,1.25c0,0.69036 -0.55964,1.25 -1.25,1.25c-0.69036,0 -1.25,-0.55964 -1.25,-1.25z" fill="#00ff2b" stroke="none" stroke-width="0.5"/><path d="M331.66967,229.33263c0,-0.69036 0.55964,-1.25 1.25,-1.25c0.69036,0 1.25,0.55964 1.25,1.25c0,0.69036 -0.55964,1.25 -1.25,1.25c-0.69036,0 -1.25,-0.55964 -1.25,-1.25z" fill="#00ff2b" stroke="none" stroke-width="0.5"/><path d="M317.74959,234.87073c0,-0.69036 0.55964,-1.25 1.25,-1.25c0.69036,0 1.25,0.55964 1.25,1.25c0,0.69036 -0.55964,1.25 -1.25,1.25c-0.69036,0 -1.25,-0.55964 -1.25,-1.25z" fill="#00ff2b" stroke="none" stroke-width="0.5"/><path d="M304.53337,235.02041c0,0.69036 -0.55964,1.25 -1.25,1.25c-0.02513,0 -0.05008,-0.00074 -0.07484,-0.00221c-0.02476,0.00146 -0.04971,0.00221 -0.07484,0.00221c-0.69036,0 -1.25,-0.55964 -1.25,-1.25c0,-0.30598 0.10994,-0.5863 0.29248,-0.80357c-0.43694,-0.1948 -0.74151,-0.63296 -0.74151,-1.14225c0,-0.69036 0.55964,-1.25 1.25,-1.25c0.69036,0 1.25,0.55964 1.25,1.25c0,0.28558 -0.09578,0.5488 -0.25696,0.75929c0.49712,0.16513 0.85566,0.63397 0.85566,1.18653z" fill="#00ff2b" stroke="none" stroke-width="0.5"/><path d="M287.76943,231.57781c0,0.69036 -0.55964,1.25 -1.25,1.25c-0.4216,0 -0.79445,-0.20872 -1.02086,-0.52847c-0.31977,-0.2264 -0.5285,-0.59927 -0.5285,-1.02088c0,-0.13036 0.01995,-0.25605 0.05697,-0.3742c-0.03702,-0.11814 -0.05697,-0.24384 -0.05697,-0.37419c0,-0.69036 0.55964,-1.25 1.25,-1.25c0.69036,0 1.25,0.55964 1.25,1.25c0,0.07331 -0.00631,0.14514 -0.01842,0.21498c0.19763,0.22108 0.31778,0.51289 0.31778,0.83276z" fill="#00ff2b" stroke="none" stroke-width="0.5"/><path d="M270.95288,221.19744c0.69036,0 1.25,0.55964 1.25,1.25c0,0.02796 -0.00092,0.05571 -0.00272,0.08321c0.18827,0.21882 0.30208,0.50355 0.30208,0.81486c0,0.69036 -0.55964,1.25 -1.25,1.25c-0.57119,0 -1.05289,-0.38311 -1.20218,-0.90638c-0.04755,0.00549 -0.09591,0.00831 -0.14493,0.00831c-0.69036,0 -1.25,-0.55964 -1.25,-1.25c0,-0.69036 0.55964,-1.25 1.25,-1.25c0.18707,0 0.36454,0.0411 0.52388,0.11474c0.15934,-0.07365 0.3368,-0.11474 0.52387,-0.11474z" fill="#00ff2b" stroke="none" stroke-width="0.5"/><path d="M257.93089,206.97801c0.69036,0 1.25,0.55965 1.25,1.25c0,0.23405 -0.06433,0.45308 -0.17627,0.64037c0.01743,0.08316 0.02659,0.16935 0.02659,0.25769c0,0.69035 -0.55964,1.25 -1.25,1.25c-0.39525,0 -0.74765,-0.18344 -0.97671,-0.46983c-0.58132,-0.10729 -1.02168,-0.61683 -1.02168,-1.2292c0,-0.66925 0.52595,-1.21566 1.18707,-1.24844c0.22929,-0.27534 0.57468,-0.45059 0.96101,-0.45059z" fill="#00ff2b" stroke="none" stroke-width="0.5"/><path d="M247.75277,190.96244c0.52227,0 0.96972,0.3203 1.15666,0.77517c0.56628,0.11911 0.99141,0.62152 0.99141,1.22322c0,0.69035 -0.55964,1.25 -1.25,1.25c-0.52227,0 -0.96972,-0.3203 -1.15666,-0.77517c-0.11876,-0.02498 -0.23131,-0.06682 -0.33504,-0.1229c-0.00169,0.00001 -0.00339,0.00001 -0.00508,0.00001c-0.69036,0 -1.25,-0.55965 -1.25,-1.25c0,-0.69035 0.55964,-1.25 1.25,-1.25c0.21485,0 0.41703,0.05421 0.59363,0.14968c0.00169,-0.00001 0.00339,-0.00001 0.00508,-0.00001z" fill="#00ff2b" stroke="none" stroke-width="0.5"/><path d="M240.66532,170.20975c0,-0.69035 0.55964,-1.25 1.25,-1.25c0.22064,0 0.42792,0.05717 0.60785,0.15749c0.04613,-0.00516 0.09303,-0.00782 0.14054,-0.00782c0.69036,0 1.25,0.55965 1.25,1.25c0,0.22271 -0.05824,0.43181 -0.16033,0.61291c-0.08026,0.61292 -0.60454,1.08613 -1.23935,1.08613c-0.4999,0 -0.93126,-0.29345 -1.13122,-0.71749c-0.42404,-0.19996 -0.7175,-0.63132 -0.7175,-1.13123z" fill="#00ff2b" stroke="none" stroke-width="0.5"/><path d="M244.01082,147.10673c0.69036,0 1.25,0.55965 1.25,1.25c0,0.56992 -0.38141,1.05075 -0.90289,1.20117c-0.12689,0.23023 -0.32424,0.41618 -0.56299,0.52876c-0.1132,0.24005 -0.30054,0.43824 -0.53251,0.56504c-0.1778,0.09719 -0.3818,0.15244 -0.59871,0.15244c-0.69036,0 -1.25,-0.55965 -1.25,-1.25c0,-0.4999 0.29345,-0.93127 0.71749,-1.13123c0.15179,-0.32187 0.4369,-0.56851 0.78412,-0.66867c0.21274,-0.38602 0.62358,-0.64753 1.0955,-0.64753z" fill="#00ff2b" stroke="none" stroke-width="0.5"/><path d="M249.34667,126.35403c0,-0.02513 0.00074,-0.05007 0.00221,-0.07484c-0.00146,-0.02476 -0.00221,-0.0497 -0.00221,-0.07483c0,-0.69035 0.55964,-1.25 1.25,-1.25c0.69036,0 1.25,0.55965 1.25,1.25c0,0.02513 -0.00074,0.05007 -0.0022,0.07483c0.00146,0.02476 0.0022,0.04971 0.0022,0.07484c0,0.69035 -0.55964,1.25 -1.25,1.25c-0.69036,0 -1.25,-0.55965 -1.25,-1.25z" fill="#00ff2b" stroke="none" stroke-width="0.5"/><path d="M268.31127,105.69845c0,0.69036 -0.55964,1.25 -1.25,1.25c-0.49989,0 -0.93125,-0.29345 -1.13121,-0.71748c-0.42404,-0.19995 -0.71751,-0.63133 -0.71751,-1.13123c0,-0.69036 0.55964,-1.25 1.25,-1.25c0.49989,0 0.93125,0.29345 1.13122,0.71748c0.42404,0.19995 0.7175,0.63133 0.7175,1.13123z" fill="#00ff2b" stroke="none" stroke-width="0.5"/><path d="M280.06811,143.82897c0,-0.69035 0.55964,-1.25 1.25,-1.25c0.69036,0 1.25,0.55965 1.25,1.25c0,0.69035 -0.55964,1.25 -1.25,1.25c-0.69036,0 -1.25,-0.55965 -1.25,-1.25z" fill="#00ff2b" stroke="none" stroke-width="0.5"/><path d="M291.74301,132.75278c0,-0.69035 0.55964,-1.25 1.25,-1.25c0.69036,0 1.25,0.55965 1.25,1.25c0,0.69035 -0.55964,1.25 -1.25,1.25c-0.69036,0 -1.25,-0.55965 -1.25,-1.25z" fill="#00ff2b" stroke="none" stroke-width="0.5"/><path d="M304.61533,124.37081c0,-0.69035 0.55964,-1.25 1.25,-1.25c0.69036,0 1.25,0.55965 1.25,1.25c0,0.69035 -0.55964,1.25 -1.25,1.25c-0.69036,0 -1.25,-0.55965 -1.25,-1.25z" fill="#00ff2b" stroke="none" stroke-width="0.5"/><path d="M320.78058,121.22756c0,-0.69035 0.55964,-1.25 1.25,-1.25c0.69036,0 1.25,0.55965 1.25,1.25c0,0.69035 -0.55964,1.25 -1.25,1.25c-0.69036,0 -1.25,-0.55965 -1.25,-1.25z" fill="#00ff2b" stroke="none" stroke-width="0.5"/><path d="M337.24518,121.82627c0,-0.69035 0.55964,-1.25 1.25,-1.25c0.69036,0 1.25,0.55965 1.25,1.25c0,0.69035 -0.55964,1.25 -1.25,1.25c-0.69036,0 -1.25,-0.55965 -1.25,-1.25z" fill="#00ff2b" stroke="none" stroke-width="0.5"/><path d="M355.20656,127.21468c0,-0.69035 0.55964,-1.25 1.25,-1.25c0.69036,0 1.25,0.55965 1.25,1.25c0,0.69035 -0.55964,1.25 -1.25,1.25c-0.69036,0 -1.25,-0.55965 -1.25,-1.25z" fill="#00ff2b" stroke="none" stroke-width="0.5"/><path d="M369.27632,135.89602c0,-0.69035 0.55964,-1.25 1.25,-1.25c0.69036,0 1.25,0.55965 1.25,1.25c0,0.69035 -0.55964,1.25 -1.25,1.25c-0.69036,0 -1.25,-0.55965 -1.25,-1.25z" fill="#00ff2b" stroke="none" stroke-width="0.5"/><path d="M380.50218,151.61223c0,-0.69035 0.55964,-1.25 1.25,-1.25c0.69036,0 1.25,0.55965 1.25,1.25c0,0.69035 -0.55964,1.25 -1.25,1.25c-0.69036,0 -1.25,-0.55965 -1.25,-1.25z" fill="#00ff2b" stroke="none" stroke-width="0.5"/><path d="M392.17707,186.1879c0,-0.69035 0.55964,-1.25 1.25,-1.25c0.69036,0 1.25,0.55965 1.25,1.25c0,0.69035 -0.55964,1.25 -1.25,1.25c-0.69036,0 -1.25,-0.55965 -1.25,-1.25z" fill="#00ff2b" stroke="none" stroke-width="0.5"/><path d="M390.41616,165.2397c0.20256,-0.07738 0.45558,-0.10051 0.76956,-0.02201c1.21268,0.30317 0.9095,1.51585 0.9095,1.51585l-0.34519,1.02208l-0.73871,1.03419c-0.22579,0.32457 -0.60151,0.53701 -1.02685,0.53701c-0.69036,0 -1.25,-0.55964 -1.25,-1.25v-1.64645c0,0 0,-1.25 1.25,-1.25c0.16462,0 0.30757,0.02168 0.43168,0.05933z" fill="#00ff2b" stroke="none" stroke-width="0.5"/><path d="M389.22093,207.03058c0,-0.69036 0.55964,-1.25 1.25,-1.25c0.69036,0 1.25,0.55964 1.25,1.25c0,0.69036 -0.55964,1.25 -1.25,1.25c-0.69036,0 -1.25,-0.55964 -1.25,-1.25z" fill="#00ff2b" stroke="none" stroke-width="0.5"/><path d="M381.28798,226.7881c0,-0.69036 0.55964,-1.25 1.25,-1.25c0.69036,0 1.25,0.55964 1.25,1.25c0,0.69036 -0.55964,1.25 -1.25,1.25c-0.69036,0 -1.25,-0.55964 -1.25,-1.25z" fill="#00ff2b" stroke="none" stroke-width="0.5"/><path d="M367.81695,244.74949c0,-0.69036 0.55964,-1.25 1.25,-1.25c0.69036,0 1.25,0.55964 1.25,1.25c0,0.69036 -0.55964,1.25 -1.25,1.25c-0.69036,0 -1.25,-0.55964 -1.25,-1.25z" fill="#00ff2b" stroke="none" stroke-width="0.5"/><path d="M349.25686,260.91474c0,-0.69036 0.55964,-1.25 1.25,-1.25c0.69036,0 1.25,0.55964 1.25,1.25c0,0.69036 -0.55964,1.25 -1.25,1.25c-0.69036,0 -1.25,-0.55964 -1.25,-1.25z" fill="#00ff2b" stroke="none" stroke-width="0.5"/><path d="M132.5,352.54601v-345.09202h375v345.09202z" fill="none" stroke="#000000" stroke-width="0"/></g></g></svg>