<svg version="1.1" xmlns="http://www.w3.org/2000/svg" xmlns:xlink="http://www.w3.org/1999/xlink" width="375" height="345.09202" viewBox="0,0,375,345.09202"><g transform="translate(-132.5,-7.45399)"><g stroke-miterlimit="10"><path d="M242.42146,181.17909c-0.33187,-0.77438 0.08186,-1.25051 0.38689,-1.47865c-0.03313,-0.05469 -0.63246,-1.0756 0.3989,-1.72021c0.5516,-0.34475 0.99556,-0.22305 1.29453,-0.02702c0.21346,0.03132 0.40938,0.11658 0.57347,0.24151c0.24339,0.09127 0.48679,0.18255 0.73018,0.27382l0.81109,1.46977c0,0 0,1.25 -1.25,1.25c-0.30407,0 -0.53418,-0.07397 -0.7083,-0.18592l-0.59544,0.83324c0,0 -1.14893,0.4924 -1.64133,-0.65653z" fill="#00ff2b" stroke="none" stroke-width="0.5"/><path d="M270.91746,178.28737c1.20191,-0.3434 1.54531,0.8585 1.54531,0.8585l-0.23133,0.2946l0.36235,0.36234c0,0 0.88389,0.88388 0.00001,1.76777c-0.88388,0.88389 -1.76777,0 -1.76777,0l-0.14968,-0.14968h-0.00001l-0.89807,-0.89807c-0.2262,-0.2262 -0.36612,-0.5387 -0.36612,-0.88388c0,-0.68628 0.55305,-1.24338 1.23777,-1.24994c0.07933,-0.03897 0.16815,-0.07324 0.26754,-0.10164z" fill="#00ff2b" stroke="none" stroke-width="0.5"/><path d="M289.18856,179.3571c-0.05412,0.32085 -0.05508,0.66658 -0.05671,1.01199l0.37819,0.67073c0,0 0.39526,1.18586 -0.7906,1.58112c-0.24597,0.08198 -0.45791,0.09595 -0.63938,0.06658l-0.87318,0.54574c-0.19548,0.12667 -0.42857,0.20021 -0.67884,0.20021c-0.69036,0 -1.25,-0.55964 -1.25,-1.25c0,-0.05286 0.00328,-0.10496 0.00965,-0.1561l0.07871,-0.70836c-0.35593,-0.4643 -0.20072,-1.08517 -0.20072,-1.08517l0.08741,-0.34965c-0.01807,-0.20607 0.02404,-0.43959 0.17318,-0.69274l0.1821,-0.72838c0.12633,-0.55665 0.62414,-0.97219 1.21902,-0.97219c0.69036,0 1.25,0.55964 1.25,1.25c0,0.03431 -0.00138,0.06831 -0.0041,0.10192l-0.0209,0.29262z" fill="#00ff2b" stroke="none" stroke-width="0.5"/><path d="M296.04235,177.34277c0.94907,-0.81349 1.76256,0.13559 1.76256,0.13559c0.34558,0.41512 0.69116,0.83024 1.03674,1.24537l0.01881,0.24701l0.07928,-0.02643l0.43981,1.31941c0.04749,0.1321 0.07337,0.27451 0.07337,0.42297c0,0.69036 -0.55964,1.25 -1.25,1.25c-0.17413,0 -0.33993,-0.0356 -0.49055,-0.09993l-0.49473,-0.19789c-0.78673,0.06716 -1.1113,-0.49975 -1.2308,-0.81923c-0.11765,-0.02972 -0.23531,-0.05944 -0.35296,-0.08917l0.20884,-0.57388l-0.03053,-0.16792l-0.34842,-0.03871l0.14802,-1.33212c0.00252,-0.02582 0.00582,-0.0514 0.0099,-0.07673c-0.08854,-0.34051 -0.05952,-0.78677 0.42064,-1.19833z" fill="#00ff2b" stroke="none" stroke-width="0.5"/><path d="M322.05377,178.58382c0.26674,-0.19828 0.65759,-0.32146 1.18878,-0.09381c1.14893,0.4924 0.65653,1.64133 0.65653,1.64133l-1.74137,0.85359l-0.45224,0.67836c-0.22257,0.34463 -0.61006,0.57276 -1.05082,0.57276c-0.59488,0 -1.09269,-0.41555 -1.21902,-0.97219l-0.44269,-1.77078c0,0 -0.30318,-1.21267 0.9095,-1.51585c0.75228,-0.18807 1.15455,0.2072 1.35157,0.53444c0.06779,-0.08492 0.15664,-0.1328 0.27855,-0.12257c0.19442,0.01632 0.36525,0.08804 0.5212,0.19471z" fill="#00ff2b" stroke="none" stroke-width="0.5"/><path d="M347.34996,178.59121c0,0.69036 -0.55964,1.25 -1.25,1.25c-0.00862,0 -0.01721,-0.00008 -0.02578,-0.00026c-0.08063,0.25287 -0.16127,0.50574 -0.24189,0.75861c0.1991,0.22141 0.32025,0.51432 0.32025,0.83552c0,0.59801 -0.41994,1.09794 -0.981,1.22098c-0.22454,0.23599 -0.57948,0.41786 -1.12824,0.30092c-1.22255,-0.26052 -0.96203,-1.48307 -0.96203,-1.48307l0.30398,-1.41927c0.25839,-0.81372 0.51677,-1.62744 0.77516,-2.44117c0,0 0.379,-1.19116 1.57016,-0.81216c0.41068,0.13067 0.63472,0.35787 0.75199,0.59952c0.50321,0.16161 0.8674,0.63346 0.8674,1.19036z" fill="#00ff2b" stroke="none" stroke-width="0.5"/><path d="M355.49226,177.71541c1.25,0 1.25,1.25 1.25,1.25l-0.00682,0.07608c0.29417,0.25044 0.56995,0.49702 0.80516,0.69614l0.43651,1.54778c0,0 0,1.25 -1.25,1.25c-0.71761,0 -1.02325,-0.41197 -1.15343,-0.7629c-0.24257,0.12023 -0.56156,0.16268 -0.96936,0.00975c-0.19723,-0.07396 -0.34877,-0.1687 -0.4644,-0.27511c-0.16748,0.08333 -0.35629,0.13018 -0.55605,0.13018c-0.58598,0 -1.07777,-0.4032 -1.2131,-0.9473l-0.44189,-1.62027c0,0 -0.3289,-1.20596 0.87705,-1.53485c0.66442,-0.1812 1.06261,0.10349 1.28625,0.39571c0.21456,-0.18498 0.4965,-0.19556 0.81297,-0.09634c0.15607,-0.07349 0.34889,-0.11889 0.58711,-0.11889zM355.91362,181.63576c-0.02079,-0.0181 -0.04116,-0.0378 -0.06115,-0.05893c-0.00189,0.00176 -0.00378,0.00353 -0.00567,0.00529z" fill="#00ff2b" stroke="none" stroke-width="0.5"/><path d="M369.44975,178.38895c0.69036,0 1.25,0.55964 1.25,1.25c0,0.69036 -0.55964,1.25 -1.25,1.25c-0.26986,0 -0.51974,-0.08551 -0.72403,-0.23092c-0.18061,0.1367 -0.42957,0.23092 -0.77275,0.23092c-0.67987,0 -0.98996,-0.36978 -1.13139,-0.7071c-0.8887,-0.35983 -0.69524,-1.3755 -0.69524,-1.3755l0.46357,-2.43378c0.10062,-0.58947 0.61397,-1.03818 1.23212,-1.03818c0.65575,0 1.19356,0.50494 1.24583,1.14721l0.12973,1.39516l-0.02419,0.00225c0.00941,0.01852 0.01881,0.03704 0.02821,0.05556l0.00038,0.47893c0.08008,-0.0161 0.16293,-0.02455 0.24775,-0.02455z" fill="#00ff2b" stroke="none" stroke-width="0.5"/><path d="M393.22508,177.71522l0.28683,0.46298l0.17152,-0.17151l0.89807,0.89806l-0.38249,0.38249l0.63425,1.02371c-0.39747,0.07184 -0.79494,0.14369 -1.1924,0.21553l-0.03911,0.50847l-0.81011,-0.06232c-0.0487,0.04503 -0.10307,0.08929 -0.16361,0.13254c-0.57328,0.40949 -1.05424,0.26508 -1.36485,0.06106l-1.81015,0.55696c-0.12428,0.04141 -0.25724,0.06383 -0.39543,0.06383c-0.69036,0 -1.25,-0.55964 -1.25,-1.25c0,-0.34519 0.13992,-0.65769 0.36613,-0.88389l1.19744,-1.19741l0.0593,0.0593c0.1049,-0.1193 0.21947,-0.23013 0.34623,-0.33026c0.07886,-0.06229 0.16383,-0.1082 0.2536,-0.14121c0.15496,-0.34807 0.50178,-0.77902 1.26083,-0.69469c0.46242,0.05138 0.73361,0.25574 0.89184,0.4921c0.36197,-0.01986 0.72037,-0.04512 1.04212,-0.12574z" fill="#00ff2b" stroke="none" stroke-width="0.5"/><path d="M340.76412,163.92274c0,1.25 -1.25,1.25 -1.25,1.25l-0.28771,-0.00764c-0.03143,-0.00349 -0.06287,-0.00698 -0.0943,-0.01048c-0.02559,0.004 -0.05179,0.00749 -0.07865,0.01048c-0.29233,0.03248 -0.52352,-0.01147 -0.70615,-0.09768c-0.15599,-0.01734 -0.312,-0.03466 -0.468,-0.052c0,0 -0.22234,-0.0247 -0.46845,-0.14727c-0.20526,0.04516 -0.45066,0.03333 -0.74031,-0.07808c-1.16669,-0.44872 -0.71796,-1.6154 -0.71796,-1.6154c0.55186,-0.90662 0.63607,-2.42473 1.65559,-2.71988c0.7049,-0.20406 1.24919,0.57715 1.82387,1.17199c0.65892,0.03511 1.1824,0.58053 1.1824,1.24821c0,0.11359 -0.01515,0.22364 -0.04354,0.32824c0.11603,0.17543 0.19322,0.40887 0.19322,0.7195z" fill="#00ff2b" stroke="none" stroke-width="0.5"/><path d="M322.93714,155.42818c0.05456,-0.01302 0.10909,-0.02619 0.16358,-0.0395l0.35032,0.67417l0.29911,-0.22433l0.8905,1.18732c0.16155,0.21062 0.25758,0.47414 0.25758,0.7601c0,0.69036 -0.55964,1.25 -1.25,1.25c-0.10251,0 -0.20214,-0.01233 -0.29748,-0.03561l-1.32079,-0.29351l0.0183,-0.08237c-0.01451,-0.00195 -0.029,-0.00401 -0.04347,-0.00617c-0.11347,0.17496 -0.2179,0.35127 -0.30135,0.53071l-0.70583,-0.75725l-0.42502,0.47814l-1.34243,-1.19327c-0.26011,-0.22906 -0.42422,-0.56458 -0.42422,-0.93842c0,-0.38664 0.17554,-0.73229 0.45128,-0.96158c0.02793,-0.12323 0.07769,-0.2546 0.15506,-0.39387c0.60705,-1.0927 1.69975,-0.48564 1.69975,-0.48564c0.13562,0.09992 0.29514,0.1856 0.46331,0.26613l0.03113,-0.05994c0,0 0.82777,-0.27593 1.33066,0.32488z" fill="#00ff2b" stroke="none" stroke-width="0.5"/><path d="M303.12868,166.14731c-3.49052,0.24847 -3.54762,-7.19622 0.96184,-6.26861c0.69868,0.14372 1.18564,0.84057 1.59956,1.42149c0.35478,0.49793 0.42563,1.14632 0.63845,1.71948l-0.10236,0.28112l0.10432,0.01159l-0.14801,1.33212c-0.06181,0.6326 -0.59519,1.12695 -1.24402,1.12695c-0.33034,0 -0.63075,-0.12814 -0.85424,-0.33743c-0.22146,0.39814 -0.51224,0.68173 -0.95553,0.71328z" fill="#00ff2b" stroke="none" stroke-width="0.5"/><path d="M302.82402,194.8111c0.06839,-0.20425 0.20976,-0.41316 0.46636,-0.60562c1,-0.75 1.75,0.25 1.75,0.25c0.38269,0.64914 1.24406,1.20002 1.14807,1.94743c-0.01946,0.15153 -0.3771,0.81624 -0.90224,1.49059c-0.00075,0.35766 -0.11856,1.08556 -1.04034,1.23918c-0.09124,0.0152 -0.17686,0.02254 -0.25718,0.02307c-0.90247,0.58547 -1.88937,0.55748 -2.55522,-1.28021c-0.37758,-1.04208 0.40579,-2.48453 1.39055,-3.06444z" fill="#00ff2b" stroke="none" stroke-width="0.5"/><path d="M321.98759,205.66878c-1.87303,1.10639 -5.50634,0.07725 -3.74586,-3.18344c0.10097,-0.18701 0.24369,-0.32513 0.41502,-0.42976c0.01322,-0.4796 0.2966,-0.89171 0.7034,-1.08961c0.1278,-0.32457 0.41087,-0.66244 1.03166,-0.71888c0.78034,-0.07094 1.11599,0.39173 1.25784,0.74692l0.01625,0.00148l-0.00299,0.03289c0.03711,0.0996 0.05897,0.18865 0.07149,0.25206c0.31057,0.03791 0.60597,0.12608 0.87694,0.29521c0.00816,0.00509 -0.02369,0.27347 -0.07689,0.67059l0.32825,0.87535c0.05786,0.14398 0.08971,0.30121 0.08971,0.46588c0,0.52653 -0.32555,0.97702 -0.78634,1.16118c-0.0848,0.52473 -0.15464,0.90606 -0.17848,0.92014z" fill="#00ff2b" stroke="none" stroke-width="0.5"/><path d="M339.40884,197.77413c-0.37447,0.20466 -0.83407,0.39315 -1.31921,0.53616c-0.15181,0.34118 -0.48146,0.72944 -1.19346,0.68757c-0.46376,-0.02728 -0.74502,-0.21677 -0.91539,-0.44414c-1.20788,-0.14861 -1.93387,-0.98812 -0.87763,-3.15885c0.37029,-0.76101 1.23958,-1.15258 1.85936,-1.72886l0.58517,0.62809l0.09544,-0.13635l0.03514,-0.07029l0.01041,0.0052l0.1474,-0.21056l1.48245,1.03771c0.33048,0.22494 0.5475,0.60416 0.5475,1.03407c0,0.04751 -0.00265,0.09442 -0.00781,0.14056c0.59898,1.05068 -0.44939,1.67971 -0.44939,1.67971z" fill="#00ff2b" stroke="none" stroke-width="0.5"/><path d="M323.03235,213.95605c0.1384,0.20119 0.21941,0.44493 0.21941,0.70759c0,0.69036 -0.55964,1.25 -1.25,1.25c-0.1382,0 -0.27116,-0.02243 -0.39544,-0.06384l-1.91798,-0.59015l0.07747,-0.25177c-0.35325,-0.11835 -0.6659,-0.30209 -0.91055,-0.5953c-0.23448,-0.28102 -0.13639,-0.59308 0.09337,-0.91741c0.08058,-0.56765 0.76396,-1.2163 0.98821,-1.80325l0.46962,0.2302l-0.01148,-0.02296l1.17493,-0.58748c0.17371,-0.09145 0.37157,-0.14321 0.58152,-0.14321c0.69036,0 1.25,0.55964 1.25,1.25c0,0.20995 -0.05176,0.4078 -0.14321,0.58151l-0.36997,0.73994z" fill="#00ff2b" stroke="none" stroke-width="0.5"/><path d="M318.88637,148.13863c-0.21322,0.16914 -0.48293,0.27015 -0.77623,0.27015c-0.69036,0 -1.25,-0.55964 -1.25,-1.25c0,-0.39906 0.187,-0.75444 0.47815,-0.9833l1.48777,-1.19021l0.02834,0.03543c0.17371,-0.09422 0.46702,-0.21285 0.79227,-0.17264c0.00215,-0.07692 0.00857,-0.15454 0.01961,-0.23289c0.11919,-0.84578 1.58503,-0.68773 2.52075,-0.48464c0.06215,0.00996 0.13605,0.02547 0.21554,0.04963c0.00503,0.00123 0.01004,0.00244 0.01502,0.00367c1.54368,0.37905 3.613,3.08133 1.12826,4.57122c-0.34581,0.20735 -0.71428,0.08165 -1.08996,-0.14977c-0.20951,0.15851 -0.47052,0.25253 -0.75348,0.25253c-0.52229,0 -0.96977,-0.32032 -1.15669,-0.77524l-0.403,-0.92113z" fill="#00ff2b" stroke="none" stroke-width="0.5"/><path d="M320.06365,133.74499c-0.2879,-0.43185 -0.27695,-0.80393 -0.16569,-1.09142l-0.25856,-0.36937c-0.14773,-0.20527 -0.23474,-0.45716 -0.23474,-0.72937c0,-0.2813 0.09292,-0.5409 0.24974,-0.74978c-0.67566,-0.61518 -1.25343,-1.21597 -1.36401,-1.36757c0,0 -0.72654,-1.01717 0.29063,-1.74371c1.01717,-0.72654 1.74371,0.29063 1.74371,0.29063c0.72289,1.0413 5.14863,3.49561 4.2017,5.03757c-0.51219,0.83405 -1.71153,0.83152 -2.72465,1.0557l-0.00469,0.014c0,0 -1.04006,0.69338 -1.73344,-0.34668z" fill="#00ff2b" stroke="none" stroke-width="0.5"/><path d="M323.5944,106.02366c-0.00203,0.13356 -0.03895,0.26117 -0.12488,0.38043c-0.28983,0.40223 -0.72639,0.6183 -1.21412,0.76946c-0.22329,0.20825 -0.52295,0.33567 -0.85236,0.33567c-0.11462,0 -0.22565,-0.01543 -0.33111,-0.04432c-0.26854,0.06504 -0.53069,0.13819 -0.77246,0.23719l-0.1745,-0.88876l-0.49106,0.18414l-0.43891,-1.17045c-0.03431,-0.08537 -0.05947,-0.17541 -0.07427,-0.2689c-0.02998,-0.03611 -0.03739,-0.08438 -0.01452,-0.14896c-0.0006,-0.01593 -0.0009,-0.03194 -0.0009,-0.04801c0,-0.44905 0.23679,-0.8428 0.59232,-1.0632c0.38204,-0.51459 0.88534,-0.93283 1.46712,-1.08173c0.4112,-0.10524 0.77746,0.13109 1.13552,0.42969c0.14072,0.08551 0.25288,0.19342 0.33649,0.29147c0.18537,0.16125 0.37167,0.31559 0.56403,0.42376l0.5,1.14968c0,0 0,0.24188 -0.1064,0.51283z" fill="#00ff2b" stroke="none" stroke-width="0.5"/><path d="M322.15529,224.04071c1.21267,0.30318 0.90948,1.51586 0.90948,1.51586l-0.08256,0.14527c0.34248,0.22296 0.56891,0.6092 0.56891,1.04832c0,0.65308 -0.50083,1.18918 -1.13937,1.24517l-1.48303,0.1483c-0.49893,0.04989 -0.99785,0.09979 -1.49677,0.14968c0,0 -1.2438,0.12439 -1.36819,-1.11941c-0.12438,-1.24379 1.11941,-1.36818 1.11941,-1.36818c0.08917,-0.00892 0.17835,-0.01784 0.26752,-0.02676c0.12612,-0.19751 0.30622,-0.35721 0.5195,-0.45832l1.1732,-0.5866l-0.50397,0.21614c0,0 0.30319,-1.21267 1.51587,-0.90949z" fill="#00ff2b" stroke="none" stroke-width="0.5"/><path d="M323.12207,248.60576c0.86211,1.64092 0.93361,4.14566 -2.13184,3.61427c-2.56422,-0.4445 -2.25779,-4.77099 -0.62843,-5.68396c0.81845,-0.4586 1.68847,0.81839 2.5327,1.22759z" fill="#00ff2b" stroke="none" stroke-width="0.5"/><path d="M287.43147,249.99321c-1.24034,0.15504 -1.39539,-1.08531 -1.39539,-1.08531l-0.15933,-1.35248c0,-0.44903 0,-0.89807 0,-1.3471c0,0 0,-1.25 1.25,-1.25c1.25,0 1.25,1.25 1.25,1.25c0,0.44903 0,0.89807 0,1.3471l0.14003,1.04239c0,0 0.15504,1.24035 -1.08531,1.39539z" fill="#00ff2b" stroke="none" stroke-width="0.5"/><path d="M268.81343,232.28826c0,-0.69036 0.55964,-1.25 1.25,-1.25c0.69036,0 1.25,0.55964 1.25,1.25c0,0.69036 -0.55964,1.25 -1.25,1.25c-0.69036,0 -1.25,-0.55964 -1.25,-1.25z" fill="#00ff2b" stroke="none" stroke-width="0.5"/><path d="M251.93819,217.00689c-0.88388,0.88389 -1.76776,0 -1.76776,0l0.17518,0.08447c-0.39914,-0.19957 -0.79828,-0.39914 -1.19742,-0.59871c0,0 -1.11803,-0.55901 -0.55902,-1.67705c0.55901,-1.11804 1.67705,-0.55902 1.67705,-0.55902c0.39914,0.19957 0.79829,0.39915 1.19743,0.59872l0.47454,0.38383c0,0 0.88388,0.88388 0,1.76776z" fill="#00ff2b" stroke="none" stroke-width="0.5"/><path d="M282.34862,212.92601c-0.39527,-1.18586 0.79057,-1.58114 0.79057,-1.58114c0.72841,-0.23476 3.60227,-1.42965 4.07475,-0.03243c0.05704,0.16869 0.08499,0.33799 0.08978,0.50778c0.04727,0.19181 0.05172,0.36109 0.02703,0.50982l0.08024,0.61798l0.28746,-0.1078l0.43892,1.17046c0.05786,0.14398 0.08971,0.30121 0.08971,0.46588c0,0.69036 -0.55964,1.25 -1.25,1.25c-0.27621,0 -0.5315,-0.08958 -0.73839,-0.24129l-1.0359,-0.73994l0.04939,-0.06914c-0.05649,-0.03292 -0.11167,-0.06798 -0.1654,-0.10547l-0.191,0.191l-0.89807,-0.89807c-0.04165,-0.04165 -0.08037,-0.08622 -0.11584,-0.13339c-0.22555,0.05846 -1.18543,0.23918 -1.53324,-0.80426z" fill="#00ff2b" stroke="none" stroke-width="0.5"/><path d="M352.29645,244.41219c0,-0.69036 0.55964,-1.25 1.25,-1.25c0.69036,0 1.25,0.55964 1.25,1.25c0,0.69036 -0.55964,1.25 -1.25,1.25c-0.69036,0 -1.25,-0.55964 -1.25,-1.25z" fill="#00ff2b" stroke="none" stroke-width="0.5"/><path d="" fill="#00ff2b" stroke="none" stroke-width="0.5"/><path d="M369.35976,227.34887c0,-0.69036 0.55964,-1.25 1.25,-1.25c0.69036,0 1.25,0.55964 1.25,1.25c0,0.69036 -0.55964,1.25 -1.25,1.25c-0.69036,0 -1.25,-0.55964 -1.25,-1.25z" fill="#00ff2b" stroke="none" stroke-width="0.5"/><path d="M388.16704,211.92038c-0.13804,1.24235 -1.3804,1.10431 -1.3804,1.10431c-0.57861,-0.16498 -1.15722,-0.32996 -1.73583,-0.49494c-0.03352,0.00753 -0.0669,0.01546 -0.10014,0.02379c0,0 -1.22024,0.27116 -1.4914,-0.94907c-0.25155,-1.132 0.78039,-1.44721 0.93095,-1.48688c-0.1982,-0.1982 -0.39641,-0.3964 -0.59461,-0.5946c0,0 -0.88388,-0.88388 0,-1.76777c0.88388,-0.88389 1.76777,0 1.76777,0c0.18511,0.18511 0.37021,0.37021 0.55532,0.55532c0.49464,0.09694 0.88476,0.48562 0.9838,0.9795l0.00262,0.01182c0.09526,0.11222 0.31148,0.40409 0.3438,0.77396c0.06554,0.0116 0.13086,0.02402 0.19594,0.03726l-0.2445,0.51656c0.3569,0.13815 0.85692,0.47833 0.76666,1.29075z" fill="#00ff2b" stroke="none" stroke-width="0.5"/><path d="M350.79966,211.33331c0,-0.69036 0.55964,-1.25 1.25,-1.25c0.44434,0 0.83454,0.23185 1.05621,0.58117c0.32651,-0.23466 0.66152,-0.45319 0.94463,-0.67059l2.08049,1.91105c0,0 0.06919,0.48439 -0.18206,0.89034c0.00534,0.02055 0.01041,0.04155 0.01518,0.06301c0.27116,1.22024 -0.94907,1.49139 -0.94907,1.49139c-0.80014,0.01806 -1.86354,0.64773 -2.40042,0.05418c-0.67006,-0.74079 -0.9153,-1.34913 -0.89628,-1.86494c-0.52955,-0.1452 -0.91867,-0.62997 -0.91867,-1.20561z" fill="#00ff2b" stroke="none" stroke-width="0.5"/><path d="M357.2884,149.08233c-0.73831,0 -1.04054,-0.43608 -1.16426,-0.7931c-0.10588,0.02914 -0.21739,0.04471 -0.33253,0.04471c-0.66847,0 -1.21439,-0.52473 -1.24833,-1.18475c-0.18765,-0.21866 -0.30103,-0.5029 -0.30103,-0.81364c0,-0.69036 0.55964,-1.25 1.25,-1.25h1.14058c0.27432,-0.22896 0.90857,-0.60713 1.61873,0.00159c0.63217,0.54187 0.48232,1.14388 0.31177,1.4855c-0.02291,0.38164 -0.07767,0.78868 -0.02494,1.11002v0.14968c0,0 0,1.25 -1.25,1.25z" fill="#00ff2b" stroke="none" stroke-width="0.5"/><path d="M355.02041,112.83583c0.19274,-0.86731 0.86494,-0.98117 1.23766,-0.97448c-0.09767,-0.14374 -0.21301,-0.36211 -0.24036,-0.61989l-0.56984,-0.70312c0.49892,-0.29935 0.99786,-0.59871 1.49678,-0.89807c0,0 1.07187,-0.64312 1.71499,0.42875c0.19613,0.32688 0.23276,0.61389 0.18893,0.85494c0.3848,0.33408 0.7406,0.67781 0.72957,1.14352c-0.02299,0.97046 -1.00488,1.66118 -1.50732,2.49176l-2.10132,-0.23202c0,0 -1.22024,-0.27116 -0.94908,-1.49139z" fill="#00ff2b" stroke="none" stroke-width="0.5"/><path d="M374.04079,128.27826c0.09006,0.27017 0.09804,0.49931 0.05668,0.69209c0.03318,0.05707 0.04941,0.09358 0.04941,0.09358l0.58768,1.32229c0.07617,0.16154 0.11876,0.34204 0.11876,0.53249c0,0.69036 -0.55964,1.25 -1.25,1.25c-0.20995,0 -0.40781,-0.05176 -0.58151,-0.14321l-1.17493,-0.58747l0.05504,-0.11007c-0.20322,-0.08624 -0.39188,-0.19911 -0.55933,-0.3508c-0.53412,-0.48382 -0.12446,-1.43596 -0.18669,-2.15394l1.30376,-1.33553c0,0 1.18586,-0.39527 1.58113,0.79058z" fill="#00ff2b" stroke="none" stroke-width="0.5"/><path d="M391.74269,147.47877c-0.24514,1.22573 -1.47087,0.98058 -1.47087,0.98058l-0.32647,-0.13797l-0.0977,0.01396c-0.00522,0.25654 -0.10593,0.54323 -0.39263,0.82993c-0.88389,0.88388 -1.76776,-0.00001 -1.76776,-0.00001l-0.89807,-0.89808v0c-0.2262,-0.2262 -0.36611,-0.5387 -0.36611,-0.88388c0,-0.63664 0.47594,-1.16211 1.09142,-1.24003l0.56108,-0.08016c0.00005,-0.00054 0.00011,-0.00107 0.00016,-0.00161c0,0 0.12438,-1.2438 1.36817,-1.11942c0.82576,0.08257 1.04848,0.65857 1.10491,1.03641l0.2133,0.02942c0,0 1.22572,0.24514 0.98058,1.47087z" fill="#00ff2b" stroke="none" stroke-width="0.5"/><path d="M283.47653,144.83928c-0.22561,-0.29697 -0.40588,-0.7712 -0.02914,-1.37398c0.6625,-1.06 1.7225,-0.3975 1.7225,-0.3975c0.91357,0.60062 3.32275,1.79206 2.47748,3.52493c-0.47402,0.97177 -2.00136,1.86497 -2.9506,1.3473c-2.37461,-1.29498 -2.11089,-2.3425 -1.22022,-3.10076z" fill="#00ff2b" stroke="none" stroke-width="0.5"/><path d="M282.93216,105.14523c-0.01145,-0.21255 0.04159,-0.45588 0.204,-0.72656c0.64312,-1.07187 1.71499,-0.42875 1.71499,-0.42875c0.76269,0.53195 4.65408,2.38741 1.51083,4.38036c-0.88063,0.55836 -2.00821,-0.56223 -3.01232,-0.84334l-0.69099,-1.56707c0,0 0,-0.45387 0.27349,-0.81463z" fill="#00ff2b" stroke="none" stroke-width="0.5"/><path d="M268.80342,124.45617c0.31146,0.65332 1.01201,1.24037 0.93438,1.95996c-0.08399,0.77857 -0.90201,1.28035 -1.35301,1.92053l-2.14814,-0.9539c-0.09287,0.02202 -0.18977,0.03366 -0.28937,0.03366c-0.69036,0 -1.25,-0.55964 -1.25,-1.25c0,-0.22912 0.06164,-0.44383 0.16925,-0.62847c-0.20716,-0.20386 -0.36038,-0.5161 -0.31272,-0.99269c0.12438,-1.2438 1.36818,-1.11942 1.36818,-1.11942l1.49678,0.14968c0,0 0.46574,0.04657 0.79873,0.36772c0.37472,0.175 0.58593,0.51293 0.58593,0.51293z" fill="#00ff2b" stroke="none" stroke-width="0.5"/><path d="M245.15619,142.64521c0.29143,-0.29143 0.58285,-0.39068 0.8426,-0.3928c0.71914,-0.86578 1.66591,-0.18952 1.66591,-0.18952l1.03419,0.73871c0.32457,0.22579 0.53701,0.60151 0.53701,1.02685c0,0.60575 -0.43088,1.11087 -1.00287,1.22558l-1.32306,0.29402l-1.75377,-0.93506c0,0 -0.88389,-0.88388 -0.00001,-1.76777z" fill="#00ff2b" stroke="none" stroke-width="0.5"/><path d="M132.5,352.54601v-345.09202h375v345.09202z" fill="none" stroke="#000000" stroke-width="0"/></g></g></svg>