<svg version="1.1" xmlns="http://www.w3.org/2000/svg" xmlns:xlink="http://www.w3.org/1999/xlink" width="375" height="345.09202" viewBox="0,0,375,345.09202"><g transform="translate(-132.5,-7.45399)"><g stroke-miterlimit="10"><path d="" fill="#00ff2b" stroke="none" stroke-width="0.5"/><path d="M316.63897,183.51084c-0.156,-0.468 -0.06574,-0.81285 0.1007,-1.05889c-0.4884,-1.36799 -0.10652,-2.99967 1.24392,-3.70249l0.094,-0.84601c0.06181,-0.6326 0.59519,-1.12695 1.24402,-1.12695c0.54615,0 1.0105,0.35026 1.18066,0.83842l0.19315,0.51507c0.07741,0.03642 0.15267,0.07794 0.22582,0.12396c0.11381,-0.16347 0.24525,-0.3462 0.39641,-0.54725c0,0 0.9185,-0.84785 1.76635,0.07065c0.84785,0.9185 -0.07065,1.76636 -0.07065,1.76636c-0.10489,0.08028 -0.20657,0.16916 -0.3062,0.26356c0.59113,0.37816 0.86932,1.04273 0.43811,2.15022c0.06523,0.21179 0.10521,0.4145 0.11593,0.60156c0.05293,0.92337 -0.25958,2.14911 -1.0929,2.55033c-0.99819,0.48061 -2.2308,0.14748 -3.16021,-0.55472c-0.23978,-0.06815 -0.47476,-0.16446 -0.69668,-0.28368l-0.09129,0.03043c0,0 -1.18586,0.39529 -1.58114,-0.79057z" fill="#00ff2b" stroke="none" stroke-width="0.5"/><path d="M330.68296,110.38614c0.88389,0.88388 0,1.76777 0,1.76777l-0.44893,0.44893c-2.59172,2.59232 -5.16502,5.19269 -7.63434,7.90282c-0.49899,1.01638 -1.05036,2.0062 -1.56874,3.01282c-0.96563,1.87517 -0.9961,2.10944 -1.91891,4.1356c-0.92421,2.02924 -1.94122,4.0511 -2.64895,6.17267c-0.41904,1.25619 -0.65951,2.56553 -1.0304,3.83677c-0.17316,0.59349 -0.43273,1.16057 -0.58848,1.75886c-0.14535,0.5583 -0.19179,1.13815 -0.31257,1.70228c-0.27596,1.28899 -0.65904,2.55448 -0.90789,3.84898c-0.51818,2.6955 -0.8137,5.42943 -1.30462,8.13054c0,0 -0.22361,1.22984 -1.45344,1.00623c-1.22983,-0.22361 -1.00624,-1.45344 -1.00624,-1.45344c0.49413,-2.71664 0.79196,-5.46582 1.31351,-8.17698c0.25034,-1.30129 0.6342,-2.57372 0.9121,-3.8694c0.12889,-0.60097 0.18381,-1.21772 0.33837,-1.81261c0.16194,-0.62327 0.42869,-1.2152 0.60895,-1.83342c0.38141,-1.3081 0.6345,-2.65376 1.06511,-3.94649c0.7328,-2.19994 1.78109,-4.29619 2.73944,-6.40029c0.96262,-2.11345 0.95674,-2.27118 1.97272,-4.24639c0.56412,-1.09674 1.1659,-2.17393 1.72418,-3.27366c2.54314,-2.85488 5.22979,-5.55938 7.9322,-8.26242l0.44914,-0.44914c0,0 0.88388,-0.88388 1.76776,0z" fill="#00ff2b" stroke="none" stroke-width="0.5"/><path d="M339.96301,115.4752c0.88389,0.88388 0.00001,1.76776 0.00001,1.76776l-0.23418,0.22897c-2.05574,2.3977 -3.93318,4.92581 -6.06074,7.26329c-0.91681,0.80369 -1.78738,1.65876 -2.66936,2.50053c-0.59532,0.56817 -1.2294,1.09578 -1.80971,1.67927c-0.5673,0.57041 -1.07707,1.19551 -1.6303,1.77958c-0.68968,0.72812 -1.39497,1.44258 -2.05347,2.19902c-0.27312,0.31373 -0.58191,0.6001 -0.81689,0.94332c-0.27407,0.40032 -0.44916,0.86089 -0.70184,1.27504c-0.41244,0.67602 -0.92403,1.29242 -1.29231,1.99348c-0.19959,0.37995 -0.25631,0.81938 -0.39813,1.22445c-0.3305,0.94405 -1.07231,2.77188 -1.36818,3.49795c-0.6667,1.6361 -1.27607,3.22786 -1.74496,4.93618c-0.16344,0.59548 -0.4105,1.76519 -0.40777,2.40212c0.00305,0.71317 0.09814,1.42299 0.1472,2.13448c0,0 0.08315,1.24723 -1.16408,1.33037c-1.24723,0.08315 -1.33037,-1.16408 -1.33037,-1.16408c-0.05071,-0.78529 -0.155,-1.56895 -0.15214,-2.35587c0.00311,-0.85256 0.26782,-2.16589 0.49028,-2.98629c0.49128,-1.81177 1.14122,-3.50837 1.84733,-5.24193c0.34585,-0.84909 0.97101,-2.38895 1.32601,-3.38725c0.17338,-0.48757 0.2617,-1.01037 0.49993,-1.46975c0.40001,-0.77132 0.95083,-1.45491 1.4019,-2.19751c0.28149,-0.46342 0.48701,-0.97287 0.79494,-1.41916c0.28625,-0.41486 0.64988,-0.77065 0.97925,-1.15218c0.68255,-0.79066 1.4191,-1.53312 2.13753,-2.29133c0.56394,-0.59517 1.0844,-1.2314 1.66261,-1.8127c0.59501,-0.5982 1.24398,-1.14037 1.85426,-1.72299c0.87447,-0.83484 1.73675,-1.68393 2.64736,-2.47919c2.07518,-2.28577 3.90574,-4.76281 5.91351,-7.10581l0.36454,-0.36975c0,0 0.88388,-0.88388 1.76776,0z" fill="#00ff2b" stroke="none" stroke-width="0.5"/><path d="M350.13347,117.58709c1.01717,0.72655 0.29063,1.74371 0.29063,1.74371l-0.81179,1.12918c-1.37689,1.37853 -2.80192,2.4399 -4.36259,3.60968c-2.67303,2.29308 -5.55757,4.48745 -7.85799,7.17467c-0.53739,0.62775 -1.01799,1.30235 -1.54809,1.93627c-0.38808,0.46408 -0.81114,0.89789 -1.20553,1.35661c-0.53528,0.62257 -1.003,1.306 -1.58321,1.88692c-0.35725,0.35768 -0.84226,0.56692 -1.21198,0.91169c-0.40132,0.37425 -0.73746,0.81321 -1.08929,1.23433c-1.03677,1.24092 -1.97496,2.56099 -2.9567,3.84589c-0.37826,0.49506 -0.8041,0.95341 -1.16906,1.45835c-0.26515,0.36684 -0.47107,0.7732 -0.71801,1.15254c-0.37664,0.57857 -0.80677,1.12325 -1.15246,1.72082c-0.53834,0.93059 -0.65342,1.67111 -0.9369,2.71977c0,0 -0.32889,1.20595 -1.53485,0.87705c-1.20596,-0.3289 -0.87706,-1.53485 -0.87706,-1.53485c0.37089,-1.34927 0.47001,-2.0496 1.15859,-3.26736c0.93075,-1.64605 2.10492,-3.15321 3.24695,-4.64898c1.38405,-1.81277 2.66424,-3.8223 4.33601,-5.39726c0.35834,-0.33759 0.8345,-0.53655 1.18285,-0.88445c0.52195,-0.52126 0.93119,-1.1445 1.41035,-1.70536c0.38754,-0.45362 0.80655,-0.87993 1.18932,-1.33758c0.53911,-0.64459 1.02814,-1.33039 1.57539,-1.96808c2.40211,-2.79908 5.38758,-5.09177 8.17736,-7.48109c1.42129,-1.06661 2.76637,-2.02437 4.01936,-3.27551l0.685,-0.96633c0,0 0.72654,-1.01717 1.74371,-0.29062z" fill="#00ff2b" stroke="none" stroke-width="0.5"/><path d="M326.31208,155.14985c-1.07187,-0.64312 -0.42875,-1.71498 -0.42875,-1.71498l0.53422,-0.8727c2.25915,-2.90139 4.96886,-5.28125 7.55779,-7.86982c0.68448,-0.78296 1.38409,-1.55293 2.05409,-2.34832c1.12613,-1.33687 2.23665,-2.73832 3.5778,-3.87882c1.66215,-1.41347 1.90072,-1.30894 3.5372,-2.60274c0.62716,-0.49583 1.23075,-1.02173 1.8209,-1.56108c0.42019,-0.38402 0.78378,-0.8275 1.20799,-1.20709c0.52844,-0.47286 1.11476,-0.87793 1.64646,-1.34711c1.09162,-0.96325 1.01725,-1.29226 2.49411,-2.12109c0.46087,-0.25865 1.00512,-0.32844 1.49861,-0.51757c0.62979,-0.24137 1.22699,-0.56897 1.86973,-0.77336c0.50339,-0.16008 1.04087,-0.18587 1.55305,-0.31509c1.71549,-0.43281 1.70524,-0.75836 3.89003,-1.07608c0.69477,-0.10104 1.40413,-0.00689 2.1062,-0.01033c0,0 1.25,0 1.25,1.25c0,1.25 -1.25,1.25 -1.25,1.25c-0.59515,-0.00344 -1.19655,-0.09646 -1.78544,-0.01033c-1.46132,0.21373 -2.25528,0.68253 -3.59388,1.01942c-0.47459,0.11944 -0.97418,0.13516 -1.44051,0.28362c-0.59341,0.18893 -1.14008,0.50307 -1.72255,0.72341c-0.39117,0.14798 -0.82883,0.17951 -1.1956,0.3805c-0.86438,0.47366 -1.28233,1.14065 -1.99624,1.77054c-0.53173,0.46914 -1.11798,0.87429 -1.64646,1.3471c-0.41713,0.37319 -0.7731,0.81084 -1.18687,1.18776c-0.64107,0.58398 -1.2958,1.1542 -1.97538,1.69288c-1.23471,0.97872 -2.23946,1.50247 -3.44335,2.52527c-1.24153,1.05479 -2.26654,2.36871 -3.30738,3.60509c-0.03769,0.04476 -2.1071,2.40734 -2.13691,2.44138c-2.53337,2.53372 -5.2028,4.85554 -7.41003,7.69671l-0.36386,0.62408c0,0 -0.64312,1.07187 -1.71499,0.42875z" fill="#00ff2b" stroke="none" stroke-width="0.5"/><path d="M330.58718,157.59088c-1.11804,-0.559 -0.55904,-1.67704 -0.55904,-1.67704l0.38384,-0.62425c1.87408,-1.87176 3.57566,-3.88779 5.49232,-5.7258c0.83801,-0.73293 2.20942,-2.01962 3.24719,-2.67404c1.394,-0.87906 2.86124,-1.33091 4.33355,-2.02484c1.31753,-0.62098 2.62166,-1.33233 3.99081,-1.83783c0.86606,-0.31976 1.78364,-0.50037 2.62886,-0.87174c0.42136,-0.18514 0.80736,-0.44797 1.23627,-0.61488c0.49703,-0.19342 1.03239,-0.27506 1.53178,-0.46231c0.71643,-0.26864 1.39984,-0.61907 2.11022,-0.90333c0.77542,-0.31029 1.56835,-0.57528 2.34602,-0.87988c0.6414,-0.25123 1.24953,-0.5939 1.91064,-0.7874c0.6017,-0.17612 1.24471,-0.1683 1.85435,-0.31459c1.19895,-0.2877 2.36106,-0.71261 3.55057,-1.03714c0,0 1.20596,-0.32889 1.53485,0.87707c0.32889,1.20596 -0.87707,1.53484 -0.87707,1.53484c-1.21723,0.33184 -2.40717,0.76387 -3.63397,1.05835c-0.57079,0.13701 -1.17424,0.12036 -1.73793,0.28413c-0.58422,0.16974 -1.11572,0.48608 -1.68164,0.70938c-0.77344,0.30518 -1.56357,0.56705 -2.33561,0.87574c-0.73648,0.29447 -1.44618,0.6548 -2.18884,0.93332c-0.47607,0.17854 -0.98786,0.25158 -1.46178,0.43576c-0.40291,0.15657 -0.76231,0.40988 -1.15859,0.58255c-0.88934,0.3875 -1.84903,0.58971 -2.75955,0.9244c-1.30171,0.47848 -2.53994,1.16591 -3.79245,1.75445c-1.3632,0.64055 -2.76597,1.0553 -4.04843,1.86679c-0.87577,0.55416 -2.27206,1.85571 -2.91055,2.41464c-1.89038,1.81251 -3.5668,3.80152 -5.41326,5.65013l0.08448,-0.02551c0,0 -0.55901,1.11804 -1.67705,0.55904z" fill="#00ff2b" stroke="none" stroke-width="0.5"/><path d="M336.61402,158.52869c-0.55906,-1.11801 0.55895,-1.67708 0.55895,-1.67708l0.13186,-0.04884c1.23951,-0.88261 2.55499,-1.60308 3.8219,-2.44745c1.03332,-0.56448 2.03263,-1.19488 3.09539,-1.70174c0.58543,-0.27921 1.2105,-0.46962 1.79614,-0.74839c0.47751,-0.2273 0.90516,-0.55299 1.38854,-0.76753c0.45397,-0.20148 0.94804,-0.29851 1.41212,-0.47548c1.78867,-0.68206 2.11084,-1.03602 4.1092,-1.40683c1.1708,-0.21726 2.92084,-0.17165 4.11239,-0.16932c0.45346,0.00088 0.90951,0.05587 1.36038,0.00746c0.44021,-0.04727 0.85727,-0.23018 1.29558,-0.29262c1.14318,-0.16286 2.30782,-0.13853 3.4511,-0.30062c1.59601,-0.22628 3.05606,-0.89958 4.68984,-0.9078c1.29143,-0.0065 2.58011,0.147 3.87155,0.14647c0,0 1.25,0 1.25,1.25c0,1.25 -1.25,1.25 -1.25,1.25c-1.27229,-0.0005 -2.54176,-0.13979 -3.81403,-0.14713c-1.50038,-0.00865 -2.91415,0.67054 -4.38854,0.88258c-1.1373,0.16356 -2.2967,0.13515 -3.43409,0.29809c-0.47242,0.06768 -0.92391,0.25701 -1.39862,0.30611c-1.75763,0.18178 -3.54825,-0.18688 -5.30406,0.13749c-1.65281,0.30534 -2.13223,0.70062 -3.67407,1.28738c-0.42055,0.16004 -0.87099,0.2396 -1.28209,0.42259c-0.45542,0.20271 -0.85562,0.51486 -1.30566,0.72925c-0.58555,0.27895 -1.21036,0.4699 -1.79614,0.74839c-0.99362,0.47239 -1.92552,1.06499 -2.89173,1.59118c-1.21321,0.80903 -2.4781,1.49366 -3.66201,2.34225l-0.46684,0.25053c0,0 -1.11801,0.55906 -1.67707,-0.55895z" fill="#00ff2b" stroke="none" stroke-width="0.5"/><path d="M342.05744,161.11667c-0.30317,-1.21268 0.90951,-1.51584 0.90951,-1.51584l0.65674,-0.16273c0.92644,-0.18001 1.83562,-0.47537 2.69768,-0.85949c1.60838,-0.36365 3.1791,-0.94864 4.80185,-1.23902c1.05924,-0.18954 3.36252,-0.41866 4.52222,-0.46936c0.0274,-0.0012 2.9835,-0.00094 3.04154,-0.00092c2.5704,0.00087 5.21483,0.12175 7.74693,0.62671c0.52406,0.10451 1.01792,0.32827 1.53626,0.45819c0.46803,0.11731 0.94485,0.19674 1.41963,0.2827c1.79566,0.32509 3.65018,0.66531 5.45827,0.88608c0.65854,0.08041 1.32702,0.06437 1.98426,0.15479c0.48496,0.06672 0.95619,0.21034 1.43429,0.31551c0,0 1.22024,0.27116 0.94907,1.4914c-0.27116,1.22024 -1.49139,0.94907 -1.49139,0.94907c-0.41998,-0.0944 -0.83334,-0.22559 -1.25992,-0.2832c-0.63187,-0.08534 -1.27447,-0.06715 -1.90737,-0.14457c-1.85949,-0.22745 -3.77117,-0.57292 -5.61792,-0.91004c-0.52641,-0.0961 -1.05472,-0.18657 -1.57393,-0.31604c-0.49234,-0.12278 -0.9598,-0.34004 -1.4573,-0.43985c-2.3547,-0.47241 -4.83116,-0.57157 -7.22089,-0.57073c-0.98187,0.00034 -1.96465,-0.04332 -2.9456,-0.00092c-1.02568,0.04433 -3.23155,0.26345 -4.15911,0.4287c-1.51565,0.27003 -2.97316,0.82793 -4.47818,1.15583c-0.95484,0.4233 -1.96688,0.72712 -2.99011,0.93664l-0.54069,0.13663c0,0 -1.21268,0.30317 -1.51585,-0.90951z" fill="#00ff2b" stroke="none" stroke-width="0.5"/><path d="M382.85545,175.29259c-0.55901,1.11804 -1.67705,0.55902 -1.67705,0.55902l-0.38346,-0.19584c-1.01364,-0.60839 -2.04115,-1.19407 -3.07901,-1.76013c-0.76672,-0.38334 -2.82121,-1.43238 -3.60735,-1.73564c-0.55797,-0.21524 -1.15655,-0.31156 -1.71737,-0.51928c-0.78015,-0.28896 -1.52191,-0.67473 -2.30017,-0.96874c-0.39001,-0.14733 -0.80424,-0.2216 -1.19976,-0.35343c-1.79255,-0.59749 -3.57616,-1.26282 -5.41774,-1.70636c-1.14001,-0.27457 -2.31108,-0.39978 -3.47056,-0.5747c-1.93315,-0.29165 -3.8182,-0.71413 -5.76926,-0.89001c-1.11034,-0.10009 -3.06502,-0.29296 -4.07611,-0.29428c-0.32849,-0.00043 -2.57797,0.06288 -3.27058,0.35582c-0.36863,0.15591 -0.67238,0.4344 -1.00857,0.6516c0,0 -1.06,0.6625 -1.7225,-0.39749c-0.6625,-1.06 0.39749,-1.72249 0.39749,-1.72249c0.46209,-0.28172 0.8845,-0.64238 1.38626,-0.84518c0.52198,-0.21098 1.08726,-0.30838 1.64566,-0.38025c2.30774,-0.297 4.57414,-0.06618 6.87354,0.14243c0.56644,0.05139 1.13608,0.07563 1.69921,0.15558c1.41015,0.20022 2.79801,0.5385 4.20642,0.75055c1.24129,0.18689 2.49316,0.33069 3.71399,0.62273c1.89772,0.45395 3.73734,1.13841 5.58369,1.7539c0.41891,0.13965 0.85666,0.22153 1.26984,0.3773c0.78105,0.29446 1.52524,0.68165 2.308,0.97156c0.57404,0.2126 1.18635,0.31264 1.75708,0.53399c0.95002,0.36845 2.93481,1.38574 3.87656,1.85664c1.08092,0.58965 2.15155,1.19881 3.20747,1.83214l0.21526,0.10352c0,0 1.11803,0.55901 0.55901,1.67705z" fill="#00ff2b" stroke="none" stroke-width="0.5"/><path d="M381.99709,188.57425c-1.11802,0.55903 -1.67706,-0.55899 -1.67706,-0.55899l-0.04882,-0.13184c-1.96694,-2.76096 -4.46579,-4.88966 -7.05423,-7.05129c-0.50838,-0.32317 -1.00147,-0.67177 -1.52516,-0.96949c-0.48878,-0.27787 -1.02188,-0.47306 -1.50832,-0.75501c-0.44809,-0.25971 -0.83207,-0.6239 -1.28957,-0.86666c-0.35375,-0.18771 -0.76116,-0.25328 -1.1272,-0.41576c-0.52386,-0.23253 -1.02151,-0.52038 -1.53862,-0.76757c-1.05287,-0.50329 -2.11723,-0.98301 -3.16077,-1.50538c-1.2849,-0.64318 -2.45737,-1.45291 -3.74086,-2.09495c-1.24579,-0.62319 -2.61538,-1.14678 -3.99154,-1.38293c-0.96494,-0.16558 -1.94988,-0.18036 -2.92282,-0.28944c-0.47677,-0.05345 -0.96866,-0.03063 -1.43015,-0.16174c-0.37991,-0.10793 -0.65883,-0.57245 -1.05272,-0.54368c-0.20639,0.01507 -0.00201,0.41387 -0.00301,0.6208c0,0 -0.55902,1.11804 -1.67705,0.55902c-1.11803,-0.55902 -0.55901,-1.67705 -0.55901,-1.67705c0.39814,-0.59135 0.52808,-1.52069 1.19443,-1.77403c0.79893,-0.30375 1.6919,0.24473 2.53957,0.35437c0.86426,0.11179 1.73165,0.19848 2.59871,0.28598c0.57611,0.05814 1.15935,0.06058 1.72963,0.1609c1.62387,0.28567 3.21762,0.87486 4.6898,1.61063c0.89827,0.44894 1.72305,1.0324 2.59807,1.52513c1.37165,0.77239 2.85441,1.38141 4.2707,2.05912c0.48935,0.23416 0.95931,0.50867 1.45494,0.72922c0.41305,0.1838 0.86791,0.2711 1.26766,0.48229c0.49642,0.26225 0.91861,0.6484 1.40463,0.92947c0.47906,0.27704 1.00534,0.46623 1.48525,0.74178c0.60587,0.34788 1.1785,0.75067 1.76776,1.126c2.8025,2.33088 5.48132,4.63819 7.61423,7.61719l0.25054,0.46686c0,0 0.55903,1.11802 -0.55899,1.67705z" fill="#00ff2b" stroke="none" stroke-width="0.5"/><path d="M348.3066,175.93101c0,-1.25 1.25,-1.25 1.25,-1.25l0.39483,0.02427c2.27479,0.45732 4.43774,0.98649 6.34629,2.32422c0.47839,0.38456 0.92445,0.81323 1.43517,1.15369c0.91223,0.60814 1.93366,1.04068 2.84636,1.64811c0.95602,0.63626 1.87568,1.33562 2.88605,1.88147c0.52083,0.28137 1.08808,0.46835 1.6174,0.73341c0.68034,0.34068 2.3404,1.25446 3.02569,1.7575c1.16996,0.85881 2.09802,1.94673 3.04552,3.02925c0.13846,0.15819 2.1456,2.40244 2.304,2.61725c0.83897,1.1377 1.36755,2.49077 2.25238,3.59318c0.51213,0.63806 1.20302,1.11407 1.73872,1.73248c0.59774,0.69003 1.6338,2.28534 2.18524,3.11222c0,0 0.69338,1.04006 -0.34668,1.73344c-1.04006,0.69338 -1.73343,-0.34668 -1.73343,-0.34668c-0.45017,-0.67548 -1.51679,-2.31341 -2.00575,-2.87491c-0.55721,-0.63989 -1.26775,-1.1397 -1.79682,-1.80306c-0.24707,-0.30978 -1.90681,-3.12122 -2.29471,-3.64812c-0.65215,-0.88583 -1.46212,-1.64386 -2.18634,-2.47181c-0.82362,-0.94158 -1.62341,-1.91226 -2.64225,-2.65852c-0.56125,-0.4111 -2.16074,-1.28514 -2.66209,-1.53543c-0.54911,-0.27413 -1.13615,-0.47051 -1.67551,-0.76337c-1.08258,-0.58782 -2.07668,-1.326 -3.10109,-2.01016c-0.91008,-0.6078 -1.93084,-1.03775 -2.84141,-1.64481c-0.55255,-0.36837 -1.03893,-0.82743 -1.55839,-1.24115c-1.53876,-1.12861 -3.47296,-1.49774 -5.32859,-1.86675l0.09545,0.02427c0,0 -1.25,0 -1.25,-1.25z" fill="#00ff2b" stroke="none" stroke-width="0.5"/><path d="M375.7361,214.08475c-0.88389,0.88389 -1.76777,0 -1.76777,0l-0.30586,-0.34018c-0.97665,-1.46566 -1.85762,-2.94707 -2.6975,-4.49529c-0.87014,-1.09951 -1.66841,-2.25405 -2.50172,-3.38173c-0.31333,-0.42403 -0.67305,-0.81264 -0.98314,-1.23903c-0.48832,-0.67145 -0.91454,-1.38705 -1.41078,-2.05267c-0.42345,-0.56798 -0.91635,-1.08155 -1.34593,-1.6449c-0.8197,-1.07494 -1.56288,-2.20692 -2.385,-3.28001c-2.0272,-2.64606 -4.264,-5.10152 -6.51772,-7.55285c-1.19169,-1.29618 -1.44959,-1.65837 -2.63821,-2.78671c-0.58905,-0.55918 -1.20699,-1.0874 -1.79614,-1.64648c-0.33506,-0.31795 -0.61843,-0.69124 -0.97575,-0.98394c-0.78789,-0.6454 -1.42085,-0.90245 -2.31107,-1.34543c0,0 -1.11803,-0.55901 -0.55902,-1.67705c0.55901,-1.11804 1.67705,-0.55902 1.67705,-0.55902c1.13964,0.57225 1.73214,0.80407 2.77801,1.64813c0.40927,0.3303 0.73765,0.75016 1.11973,1.11156c0.59006,0.55812 1.20749,1.08685 1.79613,1.64646c1.25972,1.1976 1.49735,1.53824 2.7502,2.90104c2.30131,2.50329 4.58431,5.0119 6.65397,7.71434c0.82851,1.08182 1.57819,2.22245 2.4047,3.30581c0.4305,0.56429 0.92404,1.07901 1.34828,1.64803c0.49994,0.67056 0.9299,1.3911 1.42186,2.06754c0.30707,0.42222 0.66364,0.80673 0.97391,1.22661c0.86277,1.16757 1.6915,2.36105 2.58734,3.50345c0.84532,1.54199 1.71545,3.02289 2.69093,4.48539l-0.0065,-0.04083c0,0 0.88389,0.88388 0,1.76776z" fill="#00ff2b" stroke="none" stroke-width="0.5"/><path d="M363.12957,204.81728l0.54566,0.7488c0.61734,1.13038 1.16142,2.23769 1.61758,3.34214c0.03827,0.03885 0.07677,0.07747 0.11549,0.11585c0,0 0.51218,0.51217 0.36689,1.14665c0.6406,1.82931 1.02505,3.67187 1.08688,5.61926l0.39948,-0.04994l0.29691,2.37529c0.00797,0.05706 0.01209,0.11535 0.01209,0.17461c0,0.69036 -0.55964,1.25 -1.25,1.25c-0.5623,0 -1.03788,-0.37128 -1.19497,-0.88206l-0.43992,-1.31976c-0.67376,-2.02192 -1.18457,-4.01659 -1.58429,-6.08379c-0.16068,-0.53467 -0.3183,-1.06884 -0.48055,-1.58771c-2.09807,-2.522 -3.58241,-5.61144 -5.29557,-8.37998c-2.61994,-4.23395 -5.8974,-8.09962 -9.40093,-11.59942l-0.81442,-0.672c0,0 -0.96028,-0.80024 -0.16005,-1.76051c0.80023,-0.96027 1.76051,-0.16004 1.76051,-0.16004l0.98172,0.82478c3.63322,3.63728 7.03624,7.65503 9.75788,12.04976c0.8569,1.38366 1.65058,2.87905 2.50389,4.33461c0.69948,-0.1215 1.17571,0.51347 1.17571,0.51347z" fill="#00ff2b" stroke="none" stroke-width="0.5"/><path d="M356.29212,213.74701c0.02207,0 0.04376,0.00039 0.06506,0.00115c-0.53306,-1.86527 -1.12695,-3.72128 -1.95114,-5.56756c-2.35001,-5.26429 -5.66044,-9.79917 -9.26359,-14.2501c0,0 -0.25703,-0.31751 -0.29571,-0.73645c-0.0264,0.00167 -0.05302,0.00251 -0.07984,0.00251c-0.69036,0 -1.25,-0.55965 -1.25,-1.25c0,-0.69035 0.55964,-1.25 1.25,-1.25c0.66442,0 1.20776,0.51838 1.24766,1.17276c0.62976,-0.0569 1.071,0.48817 1.071,0.48817c3.73583,4.61483 7.15938,9.33029 9.59587,14.78746c1.82367,4.08458 2.53753,8.23654 3.93979,12.39614l0.38121,0.73435c0,0 0.55901,1.11804 -0.55902,1.67705c-0.23932,0.11966 -0.45303,0.16248 -0.64112,0.15587c0.17843,1.47028 0.30356,2.94601 0.42861,4.44687l0.14723,1.47234c0.0052,0.04632 0.00788,0.0934 0.00788,0.14111c0,0.69036 -0.55964,1.25 -1.25,1.25c-0.63387,0 -1.15756,-0.47181 -1.239,-1.08342l-0.36803,-2.4535l0.1351,-0.02026c-0.01272,-0.1499 -0.02552,-0.29958 -0.03849,-0.44906c-1.10341,-3.11871 -1.94271,-6.52876 -2.55919,-9.57158l-0.02427,-0.84387c0,0 0,-1.25 1.25,-1.25z" fill="#00ff2b" stroke="none" stroke-width="0.5"/><path d="M350.60435,247.67943c-1.25,0 -1.25,-1.25 -1.25,-1.25l0.00318,-0.80901c-0.15379,-2.1809 -0.648,-4.29717 -0.75084,-6.48256c-0.15217,-3.2337 0.59888,-6.52115 0.59799,-9.77175c0.00203,-0.40797 0.05703,-0.81914 0.00608,-1.22393c-0.18795,-1.4933 -0.75465,-2.9163 -1.03461,-4.39511c-0.11259,-0.59476 -0.13583,-1.20374 -0.16762,-1.80823c-0.06016,-1.14407 0.0483,-2.29233 0.00027,-3.43698c-0.02102,-0.50098 -0.12964,-0.99576 -0.14968,-1.49678c-0.02999,-0.74966 0.028,-1.50106 -0.00027,-2.2508c-0.02483,-0.65843 -0.35329,-3.47312 -0.4234,-3.83994c-0.09008,-0.47128 -0.27114,-0.92062 -0.41765,-1.37752c-0.22992,-0.71707 -0.43177,-1.44497 -0.71154,-2.14409c-0.19869,-0.49651 -0.48924,-0.95129 -0.72017,-1.43365c-0.31256,-0.65286 -0.61052,-1.31262 -0.91008,-1.97154c-0.82906,-1.82362 -1.52306,-3.69791 -2.49859,-5.4468c0,0 -0.60706,-1.09269 0.48564,-1.69975c1.09269,-0.60706 1.69975,0.48565 1.69975,0.48565c0.26153,0.47248 0.5532,0.92949 0.7846,1.41743c0.23818,0.50225 0.40557,1.03524 0.62144,1.54746c0.37748,0.89567 0.78229,1.77962 1.18442,2.66449c0.29164,0.64173 0.58219,1.28406 0.88607,1.92009c0.25041,0.5241 0.56097,1.02058 0.77661,1.55992c0.30619,0.76578 0.5343,1.56063 0.78524,2.34625c0.171,0.53533 0.37372,1.06428 0.4804,1.61604c0.09804,0.50706 0.44312,3.43766 0.47467,4.24269c0.02924,0.74594 -0.0301,1.49362 -0.00027,2.23954c0.02004,0.50101 0.12894,0.9958 0.14968,1.49679c0.04753,1.14843 -0.0537,2.30008 0.00027,3.44822c0.09848,2.095 0.93445,3.99268 1.19263,6.07028c0.06044,0.48636 0.00405,0.98019 0.00608,1.47028c-0.00085,3.21579 -0.75356,6.49022 -0.59945,9.68642c0.10364,2.14952 0.5907,4.24182 0.74594,6.38978l0.00317,0.98711c0,0 0,1.25 -1.25,1.25z" fill="#00ff2b" stroke="none" stroke-width="0.5"/><path d="M338.4766,247.04339c-1.21268,-0.30317 -0.90951,-1.51585 -0.90951,-1.51585l0.34163,-1.33316c0.7699,-2.03528 1.07758,-4.21153 1.4342,-6.35243c0.30244,-1.81386 0.57117,-3.6088 0.73629,-5.44323c0.11291,-1.25445 0.12761,-2.51603 0.22075,-3.77211c0.0609,-0.82129 0.18178,-1.63796 0.22466,-2.46039c0.05692,-1.09171 -0.01103,-2.6002 -0.14183,-3.68415c-0.21384,-1.772 -0.59702,-3.66441 -1.02019,-5.38829c-0.18196,-0.74128 -0.98431,-3.24195 -1.07576,-4.04523c-0.08728,-0.76659 0.09164,-4.13298 0.14589,-4.74784c0.06822,-0.77329 0.26025,-1.53462 0.29474,-2.31015c0.06716,-1.51002 -0.32846,-2.12305 -0.8342,-3.62027c0,0 -0.39529,-1.18585 0.79057,-1.58114c1.18586,-0.39529 1.58114,0.79057 1.58114,0.79057c0.63898,1.93976 1.01842,2.47016 0.96196,4.46235c-0.02359,0.83236 -0.23107,1.65004 -0.30399,2.47953c-0.02275,0.25881 -0.21653,3.67689 -0.15347,4.23286c0.04747,0.4185 0.98672,3.60328 1.01973,3.73803c0.44596,1.82054 0.85194,3.8169 1.07531,5.68792c0.14828,1.24202 0.22002,2.84874 0.15753,4.0991c-0.04208,0.84207 -0.1658,1.67825 -0.22801,2.51907c-0.09416,1.27252 -0.11023,2.55054 -0.22464,3.82139c-0.17085,1.8978 -0.44786,3.75634 -0.7605,5.63298c-0.38468,2.3068 -0.74158,4.62191 -1.55936,6.81924l-0.25709,1.06169c0,0 -0.30317,1.21268 -1.51585,0.90951z" fill="#00ff2b" stroke="none" stroke-width="0.5"/><path d="M336.87688,206.90902l0.15419,1.46564c-0.10442,1.07505 -0.30177,2.15538 -0.67316,3.16962c0,0 -0.02573,0.06863 -0.08136,0.16642c0.00373,0.08458 0.0073,0.16915 0.01066,0.25373c0.04015,1.01006 0.00086,2.02171 0.00061,3.03257c-0.00034,1.32593 0.04998,2.76769 -0.16446,4.08329c-0.26674,1.63648 -0.77995,3.2286 -1.00948,4.87071c-0.09313,0.66628 -0.08235,1.34503 -0.18719,2.00957c-0.13265,0.84079 -0.3565,1.66469 -0.52418,2.49921c-0.09411,0.46839 -0.11723,0.9537 -0.26114,1.40926c-0.20668,0.65427 -0.53478,1.26397 -0.78512,1.90281c-0.54678,1.39533 -1.09789,2.78895 -1.64394,4.18456c-0.21808,0.55739 -0.3732,1.13949 -0.61527,1.68688c-0.96289,2.17746 -2.12864,4.26769 -3.37296,6.29203c-1.38952,2.29747 -2.42332,4.44889 -4.14803,6.58783l-1.5519,0.8906c0,0 -1.0927,0.60705 -1.69975,-0.48565c-0.60705,-1.0927 0.48565,-1.69975 0.48565,-1.69975l1.14233,-0.60618c1.47647,-1.96947 2.39301,-3.90035 3.63522,-5.98512c1.18485,-1.92309 2.29764,-3.91157 3.21287,-5.9816c0.23026,-0.5208 0.37487,-1.07567 0.58216,-1.60603c0.54721,-1.40009 1.09747,-2.79899 1.64898,-4.1974c0.2242,-0.56847 0.52571,-1.10738 0.71166,-1.68949c0.12169,-0.38092 0.12755,-0.78972 0.20559,-1.18191c0.15915,-0.79979 0.37899,-1.588 0.50588,-2.39354c0.10271,-0.65205 0.08969,-1.31827 0.1818,-1.9719c0.12032,-0.85378 0.28044,-1.70195 0.45493,-2.54633c0.16443,-0.79566 0.42757,-1.5705 0.56144,-2.37187c0.18424,-1.10294 0.13519,-2.59642 0.1349,-3.69998c-0.00025,-0.98485 0.04023,-1.9705 0.00061,-2.95455c-0.05274,-1.3101 -0.14977,-2.61946 -0.15029,-3.93063c0,0 0,-0.89599 0.75858,-1.17082c0.01982,-0.21865 0.09163,-0.5252 0.31898,-0.76433c-0.53425,-0.14208 -0.92789,-0.62913 -0.92789,-1.20811c0,-0.69035 0.55964,-1.25 1.25,-1.25c0.69036,0 1.25,0.55965 1.25,1.25c0,0.33553 -0.1322,0.64018 -0.34735,0.86471c0.82167,0.15786 0.93641,1.07574 0.93641,1.07574z" fill="#00ff2b" stroke="none" stroke-width="0.5"/><path d="M309.67842,247.48943c-1.06,-0.6625 -0.3975,-1.7225 -0.3975,-1.7225l0.75825,-1.21294c1.73891,-2.58936 3.99399,-4.86769 6.09445,-7.17759c1.69205,-2.03067 3.28343,-4.12527 4.88883,-6.2245c1.08664,-1.42092 2.29217,-2.83453 2.98176,-4.50931c0.61926,-1.50394 0.80594,-3.17421 1.31917,-4.71569c0.31503,-0.94619 0.81798,-1.8251 1.10562,-2.77997c0.23409,-0.77711 0.38684,-1.57653 0.59472,-2.36106c0.21328,-0.80497 0.45453,-1.60237 0.66867,-2.40712c0.41496,-1.55947 0.55806,-2.60624 1.28317,-4.12193c0.30081,-0.62878 0.74404,-1.17891 1.11606,-1.76837c0,0 0.67109,-1.05458 1.72567,-0.38348c1.05457,0.67109 0.38349,1.72567 0.38349,1.72567c-0.32648,0.50818 -0.71722,0.98042 -0.97943,1.52455c-0.58481,1.2136 -0.77131,2.38044 -1.11168,3.66134c-0.21416,0.80594 -0.45542,1.60453 -0.66955,2.41048c-0.21956,0.82639 -0.38326,1.668 -0.63146,2.48626c-0.13916,0.45881 -0.97578,2.39117 -1.11968,2.82232c-0.53498,1.6029 -0.7304,3.29815 -1.37505,4.8637c-0.77576,1.88397 -2.08113,3.46995 -3.3047,5.07009c-1.63785,2.14192 -3.26335,4.27675 -4.98996,6.34847c-2.01234,2.21415 -4.23183,4.39852 -5.8798,6.89216l-0.73854,1.18192c0,0 -0.66249,1.06 -1.72249,0.3975z" fill="#00ff2b" stroke="none" stroke-width="0.5"/><path d="M293.74085,250.90563c-0.88391,-0.88386 -0.00005,-1.76777 -0.00005,-1.76777l0.30705,-0.283c2.74921,-1.96365 5.38581,-4.0813 7.99792,-6.22373c1.54735,-1.54912 3.08554,-3.08385 4.48206,-4.77437c0.35312,-0.42745 0.64401,-0.90454 1.00485,-1.32549c0.53728,-0.62678 1.1598,-1.178 1.68624,-1.81391c0.50079,-0.60493 1.43271,-2.14102 1.90213,-2.78651c0.96053,-1.3208 2.04755,-2.54764 2.98753,-3.88314c0.46585,-0.66187 0.87822,-1.35981 1.31212,-2.04305c0.23352,-0.3677 0.48904,-0.72326 0.69009,-1.10967c0.38007,-0.73044 0.68106,-1.49984 1.05059,-2.23567c0.87288,-1.73817 1.8509,-3.4205 2.67007,-5.18896c0.28272,-0.61034 0.46128,-1.26879 0.78035,-1.86095c0.36624,-0.67971 0.79003,-1.33192 1.26716,-1.93896c0.53632,-0.68237 1.17525,-1.27743 1.76288,-1.91615c0,0 0.84785,-0.9185 1.76635,-0.07066c0.9185,0.84785 0.07066,1.76636 0.07066,1.76636c-0.54284,0.58596 -1.1302,1.13361 -1.62851,1.75787c-0.39066,0.48939 -0.73662,1.01793 -1.02922,1.57156c-0.29185,0.55219 -0.45423,1.16446 -0.71643,1.73132c-0.83373,1.80248 -1.82856,3.51757 -2.71832,5.28851c-0.37858,0.7535 -0.68757,1.5412 -1.07842,2.28842c-1.38991,2.6572 -3.40399,4.89213 -5.15489,7.2995c-0.68788,0.94579 -1.2437,1.99603 -1.9895,2.90127c-0.53483,0.64918 -1.16864,1.21141 -1.71602,1.85005c-0.3528,0.41163 -0.63574,0.87929 -0.98131,1.29702c-1.47917,1.78806 -3.10181,3.41001 -4.74125,5.04767c-2.68428,2.20717 -5.39602,4.3859 -8.22406,6.40597l0.00769,0.01638c0,0 -0.88386,0.88391 -1.76777,0.00006z" fill="#00ff2b" stroke="none" stroke-width="0.5"/><path d="M279.97043,246.11588c-0.88389,-0.88388 0,-1.76776 0,-1.76776l0.37106,-0.32579c4.44734,-2.77725 9.19018,-4.83005 13.56125,-7.74368c0.39369,-0.29543 0.78357,-0.59602 1.18107,-0.8863c0.3148,-0.22988 0.6724,-0.4062 0.95563,-0.67403c0.51398,-0.48603 0.93834,-1.0591 1.42255,-1.57479c0.27636,-0.29432 0.59562,-0.54798 0.85841,-0.85447c0.86667,-1.01078 1.53876,-2.18019 2.42353,-3.17518c0.35111,-0.39486 0.80607,-0.68518 1.17964,-1.05886c0.58085,-0.58103 1.11046,-1.21134 1.6809,-1.80259c0.83095,-0.86127 1.71872,-1.66705 2.53886,-2.53861c0.37015,-0.39336 2.40818,-2.65735 2.81684,-3.11397c1.25373,-1.40085 2.35568,-2.88598 3.57299,-4.31858c0.47843,-0.56305 1.0127,-1.077 1.49125,-1.63994c0.37486,-0.44096 0.68399,-0.93587 1.06717,-1.36962c0.39086,-0.44244 0.83375,-0.83604 1.25062,-1.25406c0,0 0.88387,-0.88389 1.76776,-0.00001c0.88389,0.88388 0.00002,1.76777 0.00002,1.76777c-0.3814,0.38027 -0.78812,0.73673 -1.14421,1.14081c-0.36955,0.41937 -0.66635,0.89865 -1.02834,1.32457c-0.48219,0.56733 -1.02006,1.08571 -1.50232,1.65299c-1.22972,1.44655 -2.34526,2.94709 -3.61156,4.36274c-0.44257,0.49477 -2.47721,2.75429 -2.87091,3.17253c-0.82405,0.87539 -1.71535,1.68535 -2.55021,2.55043c-0.58686,0.6081 -1.13302,1.25521 -1.73069,1.85269c-0.34569,0.34558 -0.7716,0.60847 -1.09655,0.97362c-0.86617,0.97335 -1.51837,2.12191 -2.36617,3.1113c-0.28824,0.33638 -0.63378,0.61943 -0.93773,0.94168c-0.53247,0.56454 -1.00481,1.18743 -1.57101,1.71813c-0.34188,0.32045 -0.76248,0.54496 -1.13984,0.82276c-0.40722,0.29977 -0.80919,0.60657 -1.2138,0.90985c-4.41396,2.94298 -9.1948,5.01698 -13.68018,7.82283l0.07171,-0.02644c0,0 -0.88388,0.88388 -1.76777,0z" fill="#00ff2b" stroke="none" stroke-width="0.5"/><path d="M282.97165,232.24058l0.10337,0.14471c0.05376,-0.02513 0.10752,-0.05026 0.16127,-0.07541c3.05184,-3.55248 7.62619,-6.32597 10.9336,-9.52928l1.08091,-1.04689c0.22508,-0.21856 0.53217,-0.35312 0.87069,-0.35312c0.69036,0 1.25,0.55964 1.25,1.25c0,0.31473 -0.11632,0.60229 -0.30831,0.82205l-1.62971,1.88703l-0.16803,-0.14512c-0.23291,0.22175 -0.46631,0.44189 -0.70025,0.66052c-0.14531,0.19173 -0.2936,0.3807 -0.44473,0.56706c0.27416,-0.21043 0.54886,-0.42013 0.83004,-0.62097c0.43626,-0.31161 0.90217,-0.58029 1.33844,-0.89189c0.53314,-0.38079 2.78571,-2.22048 2.88702,-2.30886c0.31849,-0.27784 0.57957,-0.61701 0.89648,-0.89664c0.534,-0.47119 1.12132,-0.87975 1.6533,-1.35323c0.50025,-0.44524 0.9562,-0.93793 1.44056,-1.40041c0.44062,-0.42072 2.53176,-2.3456 3.08707,-2.976c0.32064,-0.36399 0.56385,-0.79037 0.87134,-1.16554c0.29888,-0.36467 0.69362,-0.65336 0.94589,-1.05169c0.18913,-0.29864 0.22949,-0.66879 0.35339,-0.99986c0.24692,-0.65985 0.49312,-1.32018 0.75894,-1.97264c0.45483,-1.11639 0.93896,-2.22331 1.31926,-3.36724c0,0 0.39528,-1.18585 1.58114,-0.79057c1.18586,0.39529 0.79057,1.58114 0.79057,1.58114c-0.39902,1.19414 -0.89991,2.35197 -1.37494,3.51796c-0.25857,0.63466 -0.4905,1.27987 -0.73785,1.91899c-0.18016,0.46554 -0.28202,0.97049 -0.54468,1.39499c-0.31009,0.50114 -0.77967,0.88443 -1.14961,1.34318c-0.32188,0.39916 -0.58526,0.84506 -0.9248,1.2293c-0.68885,0.77951 -2.58155,2.50895 -3.24813,3.14504c-0.5054,0.48228 -0.98261,0.99461 -1.50427,1.45924c-0.52724,0.46961 -1.11021,0.87384 -1.63964,1.34097c-0.31799,0.28056 -0.57993,0.62092 -0.89965,0.8995c-0.6479,0.56453 -1.32887,1.08998 -1.99982,1.6269c-0.78611,0.62908 -1.63675,1.173 -2.45605,1.75821c-0.60899,0.43499 -1.18675,0.91267 -1.79614,1.34709c-0.88306,0.62953 -1.81825,1.16269 -2.75356,1.69925c-0.07193,0.74601 -0.86604,1.01071 -0.86604,1.01071c-2.28924,0.76245 -4.36985,1.60314 -6.52661,2.67823c-0.70789,0.49039 -1.41802,0.98091 -2.12401,1.47789l-0.45486,0.32019c0,0 -0.79531,0.55985 -1.4767,-0.00966c-1.27977,0.5708 -2.56706,1.12368 -3.86765,1.6449l-0.21989,0.17882c0,0 -1.04007,0.69338 -1.73344,-0.34669c-0.69338,-1.04006 0.34669,-1.73344 0.34669,-1.73344l0.67817,-0.41989c2.22901,-0.88981 4.41567,-1.88052 6.59317,-2.89306z" fill="#00ff2b" stroke="none" stroke-width="0.5"/><path d="M288.3745,223.40795c-4.08958,2.27239 -8.48819,3.29479 -13.15417,3.6366c-0.34309,0.02514 -3.72455,0.3124 -4.41517,-0.06239c-0.0586,-0.0318 -0.11604,-0.06524 -0.17244,-0.10016l-0.01516,0.0341l-1.32103,-0.58712c-0.45128,-0.18857 -0.7684,-0.63417 -0.7684,-1.15385c0,-0.65308 0.50083,-1.18918 1.13937,-1.24518l1.4457,-0.14457c1.60462,-0.29042 3.20851,-0.41108 4.81651,-0.51179c0.18527,-0.27128 0.47461,-0.46583 0.81054,-0.52616l1.42614,-0.28523c2.96141,-0.92299 5.46168,-1.52804 8.2014,-1.5661l-0.02974,-0.34197l1.86903,-0.16252c0.57572,-0.259 1.16992,-0.53893 1.59923,-0.78796c0.44826,-0.26003 0.85787,-0.5817 1.29224,-0.86431c1.04963,-0.6829 2.08979,-1.38037 3.12572,-2.08387c1.03282,-0.70137 2.08132,-1.38632 3.04915,-2.17494c1.09782,-0.89454 2.08485,-1.91745 3.15057,-2.85c1.96755,-1.7217 3.95885,-3.42916 5.98213,-5.08486c0,0 0.96744,-0.79155 1.75899,0.17589c0.79155,0.96744 -0.17589,1.75899 -0.17589,1.75899c-2.00168,1.63748 -3.97107,3.32707 -5.91742,5.03005c-0.17284,0.15123 -2.95589,2.69373 -3.2106,2.90097c-1.02912,0.83731 -2.13984,1.57 -3.23736,2.3154c-1.0475,0.71142 -2.0988,1.41747 -3.16076,2.10712c-0.4706,0.30561 -0.91613,0.65105 -1.40197,0.93183c-0.34413,0.19887 -0.73577,0.39675 -1.1409,0.58882c-0.09373,0.11923 -0.20866,0.22099 -0.33913,0.29959l-1.17908,0.73692l-0.00636,-0.01018z" fill="#00ff2b" stroke="none" stroke-width="0.5"/><path d="M259.24808,211.25505c0,-1.25 1.25,-1.25 1.25,-1.25l1.3218,0.0062c3.42028,0.34574 6.83574,0.90811 10.25536,1.1923c1.00454,-0.00084 2.01159,0.07225 3.01362,0.00134c1.47498,-0.10438 2.91585,-0.4937 4.37457,-0.73575c1.62891,-0.27029 3.28236,-0.31044 4.91516,-0.59467c2.45571,-0.42747 4.93054,-1.02765 7.27163,-1.88865c1.09652,-0.40327 2.13458,-0.95113 3.18938,-1.45349c0.98381,-0.46855 1.96753,-0.93973 2.92424,-1.46138c0.39885,-0.21747 0.83038,-0.38325 1.19717,-0.65129c0.29517,-0.2157 0.51128,-0.52268 0.76693,-0.78402c0,0 0.88388,-0.88389 1.76777,0c0.88389,0.88389 0,1.76777 0,1.76777c-0.34307,0.33737 -0.64156,0.72708 -1.02921,1.01212c-0.46171,0.33951 -0.99576,0.56771 -1.49704,0.84549c-0.99851,0.55333 -2.03218,1.04143 -3.06289,1.53218c-1.12237,0.5344 -2.23022,1.10972 -3.39645,1.54007c-2.47688,0.91399 -5.09683,1.55133 -7.69619,2.003c-1.80533,0.3137 -1.86874,0.29606 -3.53589,0.46192c-0.47586,0.04735 -0.95606,0.06184 -1.42771,0.14082c-0.69948,0.11712 -1.38054,0.33094 -2.08027,0.44656c-0.83711,0.13831 -1.6796,0.25352 -2.52585,0.31448c-0.06625,0.00477 -2.94698,0.00158 -3.27286,0.00133c-3.47201,-0.29003 -6.92761,-0.85876 -10.40023,-1.20255l-1.07304,0.0062c0,0 -1.25,0 -1.25,-1.25z" fill="#00ff2b" stroke="none" stroke-width="0.5"/><path d="M249.17028,197.1837c0.75,-1.00001 1.75,-0.25001 1.75,-0.25001l0.28763,0.27863c4.83637,1.83271 10.02037,2.98998 14.91444,4.77106c1.61557,0.46098 3.23074,1.03712 4.8953,1.30096c1.13905,0.18055 2.30473,0.09188 3.45715,0.13616c0.55068,0.02116 1.09591,0.12555 1.64646,0.14968c1.04861,0.04596 2.10066,-0.05429 3.14887,0.00026c0.50074,0.02606 0.99595,0.12561 1.49678,0.14969c0.52745,0.02536 1.05612,-0.00218 1.58419,-0.00156c0.75723,0.00089 1.51803,0.07966 2.27168,0.00608c0.73672,-0.07192 1.44646,-0.31839 2.17657,-0.44032c0.42016,-0.07017 0.85498,-0.04257 1.27072,-0.13538c0.45752,-0.10214 0.8748,-0.35049 1.33375,-0.44602c0.76169,-0.15855 1.54631,-0.18056 2.31296,-0.31306c0.69723,-0.1205 1.38062,-0.31173 2.07545,-0.44539c1.09176,-0.21 2.19139,-0.37834 3.28155,-0.59649c0,0 1.22573,-0.24515 1.47087,0.98058c0.24514,1.22572 -0.98058,1.47087 -0.98058,1.47087c-1.09778,0.21944 -2.20495,0.38957 -3.30431,0.60094c-0.70817,0.13616 -1.40483,0.33044 -2.11554,0.45268c-0.72143,0.12408 -1.46079,0.13623 -2.17739,0.28565c-0.4678,0.09754 -0.89388,0.3488 -1.36045,0.45204c-0.46635,0.10319 -0.95233,0.0856 -1.42348,0.16398c-0.77555,0.12902 -1.53117,0.38262 -2.31378,0.45775c-0.83551,0.08021 -1.67868,0.00518 -2.51803,0.00608c-0.56957,0.00061 -1.13979,0.02529 -1.70873,-0.00155c-0.50086,-0.02363 -0.99608,-0.12302 -1.49678,-0.14968c-1.04439,-0.05562 -2.09271,0.04534 -3.13761,0.00026c-0.55057,-0.02375 -1.09578,-0.12848 -1.64646,-0.14968c-1.24274,-0.04784 -2.49887,0.03015 -3.72741,-0.16319c-1.7994,-0.28317 -3.53675,-0.89373 -5.28281,-1.39325c-4.93949,-1.79476 -10.12587,-2.98904 -15.02119,-4.80835l-0.90981,-0.61944c0,0 -1.00001,-0.74999 -0.25001,-1.75z" fill="#00ff2b" stroke="none" stroke-width="0.5"/><path d="M247.04122,182.83038c0.88388,-0.88388 1.76777,0 1.76777,0l-0.03956,0.14706c1.74207,0.59224 2.96878,1.62626 4.55583,2.4899c3.54532,1.92928 7.26689,3.41127 10.87508,5.21151c1.32501,0.66278 2.62197,1.25688 4.02726,1.72832c0.55456,0.18604 1.09181,0.43304 1.6623,0.56221c0.46386,0.10503 0.94993,0.0656 1.42032,0.13579c0.51001,0.07611 1.00793,0.22097 1.51708,0.30256c0.75965,0.12174 1.5321,0.16131 2.28749,0.30715c1.34522,0.25971 2.64688,0.70876 3.96952,1.0661c1.3261,0.35828 1.47128,0.49848 2.7372,0.5575c0.57063,0.0266 1.14531,-0.05125 1.71373,0.00555c0.43724,0.04369 0.84627,0.27026 1.28504,0.2941c0.0245,0.00133 0.04899,0.00215 0.07345,0.00249c-0.30345,-0.22806 -0.49972,-0.59105 -0.49972,-0.99988c0,-0.69036 0.55964,-1.25 1.25,-1.25h1.3471v0.06753l0.1364,-0.06007c0.16742,0.03665 0.33449,0.07475 0.50123,0.11414l0.48809,0.03051l-0.00084,0.01338c0.01021,-0.00386 0.02051,-0.00757 0.0309,-0.01114c0.6554,-0.22497 2.32531,0.36052 3.16662,0.98533c1.00057,0.29575 2.00229,0.59018 3.01564,0.84346c0,0 1.21268,0.30317 0.90951,1.51585c-0.30317,1.21268 -1.51585,0.90951 -1.51585,0.90951c-1.00796,-0.25205 -2.00462,-0.5494 -3.00015,-0.84807c-0.2598,0.21532 -0.53126,0.41471 -0.77199,0.60089c-0.7769,0.60084 -2.81037,0.39571 -3.64569,0.43264c-0.54619,0.02415 -1.08737,0.17694 -1.63338,0.14901c-0.47994,-0.02454 -0.93098,-0.25675 -1.40917,-0.30461c-0.52378,-0.05242 -1.05353,0.0335 -1.57919,0.00555c-0.50651,-0.02693 -1.01449,-0.0719 -1.51215,-0.1699c-1.87502,-0.36919 -3.67541,-1.14014 -5.55152,-1.49942c-0.72747,-0.13931 -1.47144,-0.17473 -2.20285,-0.29156c-0.49568,-0.07918 -0.98013,-0.22133 -1.47648,-0.29615c-0.52135,-0.07859 -1.05919,-0.04635 -1.57324,-0.16356c-0.66033,-0.15056 -1.2871,-0.42213 -1.92998,-0.63521c-1.51898,-0.50346 -2.92469,-1.14923 -4.35472,-1.86396c-3.63873,-1.82349 -7.40135,-3.31081 -10.97794,-5.26597c-1.45265,-0.7941 -2.52849,-1.78055 -4.12551,-2.2998l-0.93763,-0.75101c0,0 -0.88388,-0.88388 0,-1.76777z" fill="#00ff2b" stroke="none" stroke-width="0.5"/><path d="M253.46481,174.63164c3.62536,2.7209 7.05066,5.88497 10.71221,8.48631l1.45452,0.87155c0,0 0.46343,0.27806 0.59801,0.77324c0.74153,0.32769 1.55863,0.68346 2.19075,0.92414c0.45573,0.17352 0.93619,0.27921 1.38713,0.46482c0.41978,0.17278 0.80351,0.42426 1.21872,0.60776c0.74447,0.32903 1.55542,0.48313 2.345,0.68075c0.53005,0.13266 1.04479,0.32718 1.58053,0.4346c0.41981,0.08418 0.85275,0.08071 1.27701,0.13837c0.64327,0.08742 1.27991,0.22226 1.9248,0.29675c0.65987,0.07622 1.32867,0.06456 1.98673,0.15508c1.46841,0.20199 2.88041,0.714 4.30951,1.07129c0.48852,0.12214 0.99184,0.17801 1.48147,0.29564c0.51331,0.12331 1.0025,0.35258 1.52519,0.42666c0.46809,0.06634 0.9462,0.0161 1.41827,-0.00951c1.03396,-0.0561 2.06111,-0.20202 3.09234,-0.29578c0,0 1.24487,-0.11317 1.35804,1.1317c0.11317,1.24487 -1.1317,1.35804 -1.1317,1.35804c-1.63309,0.14845 -3.42906,0.50994 -5.06879,0.29343c-0.60459,-0.07983 -1.17422,-0.33127 -1.76773,-0.47142c-0.5003,-0.11814 -1.01338,-0.1784 -1.51209,-0.30307c-1.34783,-0.33694 -2.6867,-0.83703 -4.07247,-1.02421c-0.63106,-0.08524 -1.27231,-0.07137 -1.90491,-0.14428c-0.65893,-0.07594 -1.30966,-0.21205 -1.96684,-0.30195c-0.47105,-0.06444 -0.95094,-0.06797 -1.41718,-0.161c-0.57991,-0.11571 -1.13868,-0.32019 -1.7124,-0.46347c-0.92584,-0.23121 -1.8685,-0.43651 -2.74406,-0.81603c-0.40238,-0.17442 -0.77063,-0.42262 -1.17613,-0.58966c-0.4244,-0.17483 -0.87816,-0.26977 -1.30706,-0.43325c-1.08696,-0.41431 -2.22402,-0.93704 -3.29146,-1.41388c-3.7827,-2.3535 -7.90559,-4.55686 -11.29762,-7.48431c-1.54074,-1.32972 -2.67093,-3.11503 -4.11723,-4.56024l-0.53351,-0.92358c0,0 -0.55902,-1.11803 0.55902,-1.67705c1.11803,-0.55902 1.67705,0.55902 1.67705,0.55902l0.0652,0.27384c0.53101,0.53139 1.01906,1.11884 1.50245,1.71231c0.66468,-0.40202 1.35723,0.1174 1.35723,0.1174z" fill="#00ff2b" stroke="none" stroke-width="0.5"/><path d="M248.52544,154.09756l0.73543,0.568c1.52297,1.53315 2.99807,3.11182 4.49424,4.66803c1.56094,1.30725 3.12003,2.62494 4.73475,3.84928c0.67933,-0.22729 1.24565,0.33903 1.24565,0.33903l0.21487,0.22008c3.25746,3.80569 7.50455,7.00011 10.76117,10.8153c2.737,1.78717 5.53945,3.48152 8.3135,5.19891c2.28057,1.11467 4.59224,2.1737 6.86765,3.28366c0,0 0.51345,0.25046 0.6768,0.75985l0.14997,0.08998c0.22648,-0.31911 0.59895,-0.52733 1.02005,-0.52733c0.69036,0 1.25,0.55964 1.25,1.25c0,0.69036 -0.55964,1.25 -1.25,1.25c-0.16552,0 -0.32353,-0.03217 -0.46811,-0.0906c-0.22558,0.32605 -0.60218,0.53964 -1.02867,0.53964c-0.17413,0 -0.33994,-0.03561 -0.49056,-0.09993l-2.21885,-0.88754l0.02763,-0.06907c-3.38107,-0.53295 -6.59083,-2.58207 -9.13966,-5.01569l-0.17476,0.24835l-2.02833,-1.42734c-0.10879,-0.03711 -0.21082,-0.08881 -0.30378,-0.15275l-1.32465,-0.8831c-2.17841,-1.3877 -3.81283,-2.57395 -5.26832,-4.11686c-0.15611,-0.11294 -0.31181,-0.22623 -0.46709,-0.33988l-0.12839,0.14979l-1.89197,-1.62169c-0.27078,-0.22929 -0.44268,-0.57175 -0.44268,-0.95436c0,-0.27519 0.08893,-0.52962 0.23962,-0.7361c-1.19416,-1.22248 -2.35058,-2.48619 -3.47439,-3.76442c-0.11439,-0.03248 -0.21196,-0.07481 -0.28397,-0.11105c-0.72442,0.45895 -1.43833,-0.15976 -1.43833,-0.15976c-1.09773,-0.95168 -2.1513,-1.94713 -3.18091,-2.96675c-0.8878,-0.62028 -1.76164,-1.25754 -2.60404,-1.92956c-2.15551,-1.71954 -3.82567,-3.85161 -6.18283,-5.31611l-0.52074,-0.47547c0,0 -0.88388,-0.88388 0,-1.76777c0.88388,-0.88388 1.76777,0 1.76777,0l0.07797,0.12324c0.05529,0.03473 0.11048,0.06964 0.16559,0.10471c0.71999,-0.68101 1.56838,-0.04471 1.56838,-0.04471z" fill="#00ff2b" stroke="none" stroke-width="0.5"/><path d="M259.34036,143.35237c1.11804,-0.559 1.67704,0.55904 1.67704,0.55904l0.09163,0.19587c1.9473,3.11636 3.92925,6.26344 5.71405,9.47374c0.33808,0.58024 0.65371,1.17416 1.01425,1.74072c0.77863,1.22354 1.69925,2.3611 2.5205,3.55612c1.81084,2.63502 3.88781,5.17074 6.15481,7.43418c1.66891,1.66629 1.87517,1.70221 3.6668,3.2606c0.5094,0.44309 1.0023,0.9048 1.50556,1.35484c0.42097,0.37645 0.79643,0.81258 1.26714,1.12464c0.67156,0.44521 1.43996,0.72564 2.13602,1.13147c0.44658,0.26038 0.83019,0.62348 1.28746,0.86458c0.44567,0.23498 0.94269,0.35682 1.40572,0.55541c1.04383,0.44767 2.05128,0.98616 3.01551,1.58637c0,0 1.06,0.6625 0.3975,1.7225c-0.6625,1.06 -1.7225,0.3975 -1.7225,0.3975c-0.8526,-0.5353 -1.74685,-1.01087 -2.67226,-1.4072c-0.52481,-0.22476 -1.08246,-0.37645 -1.58784,-0.64202c-0.49786,-0.26161 -0.92123,-0.64769 -1.40674,-0.93156c-0.74323,-0.43454 -1.5605,-0.74225 -2.27574,-1.22147c-0.28333,-0.18983 -2.74047,-2.43127 -2.99365,-2.65149c-1.88287,-1.63776 -2.01598,-1.60563 -3.80038,-3.38609c-2.37115,-2.36593 -4.54039,-5.0176 -6.4349,-7.77215c-0.83829,-1.21885 -1.77418,-2.38007 -2.56856,-3.62841c-0.38371,-0.60298 -0.72082,-1.23438 -1.08123,-1.85158c-1.76605,-3.1813 -3.73181,-6.29893 -5.6615,-9.38569l-0.20772,-0.40286c0,0 -0.559,-1.11804 0.55904,-1.67704z" fill="#00ff2b" stroke="none" stroke-width="0.5"/><path d="M266.68862,130.71159c1.18585,-0.3953 1.58115,0.79055 1.58115,0.79055l0.20952,0.74053c0.1529,1.85366 0.47937,3.50237 0.9258,5.31107c0.27532,1.23873 0.46719,2.4988 0.82292,3.71688c0.46016,1.5757 1.32304,2.96461 2.13033,4.37247c0.7608,1.32679 1.50755,2.66196 2.29449,3.97341c0.77388,1.28968 1.5842,2.55772 2.33586,3.86049c1.1073,1.91915 1.19673,2.38328 2.47343,4.16702c0.26414,0.36904 0.61463,0.66989 0.8869,1.03298c0.43049,0.57408 0.79954,1.19207 1.21847,1.77464c0.4684,0.65137 0.93157,1.3082 1.44295,1.92641c0.41889,0.50639 0.92548,0.93581 1.34388,1.4426c0.84935,1.02879 1.54414,2.17961 2.4016,3.20166c0.39387,0.46947 0.8098,0.92098 1.2416,1.35581c0.23633,0.23799 0.50766,0.44568 0.772,0.6587c0.76581,-0.35108 1.39172,0.33743 1.39172,0.33743l1.49386,1.64324c0.2037,0.22239 0.328,0.51871 0.328,0.84406c0,0.69036 -0.55964,1.25 -1.25,1.25c-0.20994,0 -0.4078,-0.05176 -0.5815,-0.14321l-1.77365,-0.88681l0.01095,-0.0219c-0.0555,-0.02187 -0.11059,-0.04504 -0.16524,-0.06964c-0.82926,-0.37322 -1.35756,-1.21165 -2.00252,-1.85274c-1.46118,-1.45244 -2.47874,-3.13302 -3.78416,-4.71228c-0.41871,-0.50654 -0.92565,-0.93567 -1.34388,-1.4426c-0.98924,-1.19904 -1.79424,-2.53938 -2.727,-3.78286c-0.27972,-0.3729 -0.63863,-0.68296 -0.90924,-1.06252c-1.37573,-1.92965 -2.43401,-4.06218 -3.65877,-6.08594c-1.23373,-2.03859 -2.42257,-4.09439 -3.60656,-6.16099c-0.29665,-0.51778 -0.6441,-1.00663 -0.91967,-1.53593c-0.34736,-0.66718 -0.65102,-1.35674 -0.94651,-2.04846c-0.70255,-1.64458 -0.96887,-3.44685 -1.35428,-5.18145c-0.47337,-1.92189 -0.81732,-3.703 -0.98311,-5.6739l-0.08985,-0.15753c0,0 -0.3953,-1.18585 0.79055,-1.58115z" fill="#00ff2b" stroke="none" stroke-width="0.5"/><path d="M280.19118,137.65448c-0.1423,0.1694 -0.35761,0.31438 -0.68016,0.39502c-1.21268,0.30317 -1.51585,-0.90951 -1.51585,-0.90951l-0.17935,-0.76384c-0.36566,-3.38353 -1.78908,-7.0432 -0.27682,-10.43951c0.01338,-0.03005 0.02704,-0.05995 0.04096,-0.0897l-0.01587,-0.00488l0.59039,-1.91878c0.14828,-0.52484 0.63075,-0.90943 1.20304,-0.90943c0.65941,0 1.19956,0.51059 1.24666,1.15798l0.14641,1.75688c0.42809,2.99049 1.23851,5.91598 1.48918,8.92406c0.09955,0.44749 0.2309,0.88907 0.29864,1.34246c0.15816,1.05859 0.18789,2.13261 0.30647,3.19636c0.14344,1.28669 0.34912,2.51934 0.46308,3.82077c0.07159,0.81757 0.04915,1.64218 0.13479,2.4584c0.05551,0.52902 0.19297,1.04621 0.28784,1.56961c0.09343,0.51546 0.13605,1.04245 0.27704,1.54698c0.6537,2.33914 1.92278,4.38746 3.05846,6.50751c0.70875,1.32306 1.35778,2.67766 2.0722,3.99767c1.32525,2.44862 2.93822,4.76357 4.44237,7.10334c0,0 0.67595,1.05147 -0.37552,1.72742c-1.05147,0.67595 -1.72742,-0.37552 -1.72742,-0.37552c-1.5387,-2.39354 -3.18101,-4.76195 -4.53832,-7.26576c-0.71688,-1.32242 -1.36652,-2.68043 -2.07688,-4.00637c-1.23221,-2.30001 -2.55838,-4.50515 -3.26993,-7.04211c-0.01229,-0.04382 -0.6261,-3.40871 -0.63254,-3.46925c-0.0896,-0.84121 -0.06881,-1.69115 -0.14256,-2.5339c-0.0984,-1.12452 -0.32524,-2.57736 -0.457,-3.75988c-0.07465,-0.66996 -0.11066,-1.34438 -0.16932,-2.01601z" fill="#00ff2b" stroke="none" stroke-width="0.5"/><path d="M290.13436,119.42158c1.25,0 1.25,1.25 1.25,1.25l-0.02976,1.3189c-0.67498,2.95368 -0.37711,6.11011 -0.27028,9.11698c0.04163,1.17176 0.05243,2.32969 0.06564,3.48077c0.15115,0.14523 0.26586,0.3281 0.32905,0.53355l0.43992,1.31976l-0.02528,0.00843l0.04271,0.0483c1.86367,8.051 1.49328,17.02126 4.59734,24.7209c0,0 0.46424,1.1606 -0.69636,1.62483c-1.1606,0.46424 -1.62483,-0.69636 -1.62483,-0.69636c-1.26792,-3.19189 -1.968,-6.57058 -2.47945,-10.00657c-0.4864,-0.07718 -0.87937,-0.43493 -1.0079,-0.90221l-0.44096,-1.46988l0.31147,-0.09344l-0.02314,-0.34708c-0.64641,-1.72738 -0.77322,-3.45296 -1.21519,-5.66239c-0.83823,-4.19043 -0.61976,-8.24613 -0.77163,-12.47541c-0.11642,-3.24225 -0.36384,-6.55319 0.32842,-9.74249l-0.02976,-0.77659c0,0 0,-1.25 1.25,-1.25z" fill="#00ff2b" stroke="none" stroke-width="0.5"/><path d="M301.21436,120.65632c1.21268,0.30317 0.90951,1.51585 0.90951,1.51585l-0.11667,0.39935c-0.15064,1.7751 -0.46691,3.28685 -0.93437,5.00195c-0.51535,2.06123 -1.06314,4.15645 -1.31562,6.27094c-0.07612,0.6375 -0.08073,1.28186 -0.14686,1.92048c-0.0816,0.78801 -0.22834,1.56883 -0.29619,2.35814c-0.03849,0.44785 -0.00518,0.89915 -0.0224,1.34832c-0.07793,2.0336 -0.23785,4.09043 -0.12605,6.12736c0.05738,1.04546 0.32579,2.20432 0.44273,3.21898c0.07291,0.6326 0.05883,1.27388 0.14428,1.90491c0.05836,0.43096 0.1961,0.84744 0.28603,1.27293c0.37847,1.79076 0.6743,3.63631 1.2972,5.36474c0.19393,0.53811 0.47546,1.04048 0.71319,1.56072c0,0 0.51725,1.13796 -0.6207,1.65521c-1.13796,0.51725 -1.65521,-0.6207 -1.65521,-0.6207c-0.2612,-0.5774 -0.56912,-1.13587 -0.78359,-1.7322c-0.6632,-1.84402 -0.99616,-3.80047 -1.39699,-5.71143c-0.09958,-0.47477 -0.24674,-0.94071 -0.3127,-1.4213c-0.09033,-0.65809 -0.07886,-1.32686 -0.15508,-1.98673c-0.16482,-1.42689 -0.37894,-2.00643 -0.45534,-3.36686c-0.11854,-2.11098 0.04229,-4.24263 0.12366,-6.35031c0.01853,-0.48012 -0.01349,-0.96243 0.02727,-1.44117c0.0693,-0.81383 0.21854,-1.61913 0.30251,-2.43157c0.06775,-0.65553 0.07361,-1.31689 0.1525,-1.97117c0.26852,-2.22704 0.83575,-4.42984 1.37859,-6.60138c0.43322,-1.58738 0.72771,-2.9356 0.86177,-4.57745l0.18268,-0.79808c0,0 0.30317,-1.21268 1.51585,-0.90951z" fill="#00ff2b" stroke="none" stroke-width="0.5"/><path d="M320.77869,110.26439c-0.85863,0.42932 -1.38756,-0.13049 -1.58677,-0.41337c-3.2072,5.36792 -7.4727,10.73268 -9.29697,16.70695c-0.18263,0.66933 -0.59693,2.09077 -0.71469,2.84338c-0.26909,1.71984 -0.36809,3.4744 -0.59312,5.20006c-0.07829,0.60032 -0.22359,1.19076 -0.29876,1.79148c-0.07597,0.60719 -0.06764,1.22352 -0.15427,1.82928c-0.06268,0.43828 -0.24339,0.85558 -0.29261,1.29557c-0.0468,0.41828 0.02624,0.84223 0.00638,1.26265c-0.07637,1.6167 -0.23155,3.30787 -0.46014,4.9119c-0.14404,1.01075 -0.39117,2.01149 -0.4384,3.03136c-0.10693,2.30917 0.00155,4.66195 0.00155,6.97261c0,0 0,1.25 -1.25,1.25c-1.25,0 -1.25,-1.25 -1.25,-1.25c0,-2.35103 -0.11308,-4.74789 0.00155,-7.09714c0.0534,-1.0945 0.30431,-2.17037 0.45967,-3.2551c0.21833,-1.52439 0.36417,-3.1308 0.43793,-4.66752c0.02288,-0.47664 -0.04598,-0.95725 0.00638,-1.43155c0.05237,-0.47436 0.23867,-0.92616 0.3061,-1.39862c0.08331,-0.58374 0.07203,-1.1779 0.1451,-1.76301c0.07541,-0.60384 0.22122,-1.19738 0.29994,-1.8008c0.22844,-1.75105 0.3266,-3.53284 0.6043,-5.27741c0.14661,-0.92107 0.54485,-2.27347 0.7821,-3.14375c1.973,-6.36913 6.46398,-12.00002 9.81137,-17.72475l0.71692,-1.57723c0.19092,-0.44603 0.6338,-0.75854 1.14968,-0.75854c0.499,0 0.92971,0.2924 1.13014,0.7152l1.03564,2.07127c0,0 0.55902,1.11803 -0.55902,1.67705z" fill="#00ff2b" stroke="none" stroke-width="0.5"/><path d="M132.5,352.54601v-345.09202h375v345.09202z" fill="none" stroke="#000000" stroke-width="0"/></g></g></svg>