<svg version="1.1" xmlns="http://www.w3.org/2000/svg" xmlns:xlink="http://www.w3.org/1999/xlink" width="375" height="345.09202" viewBox="0,0,375,345.09202"><g transform="translate(-132.5,-7.45399)"><g stroke-miterlimit="10"><path d="M310.6928,174.63843c-1.04281,-0.43183 -0.67415,-1.5378 -0.67415,-1.5378c0.17993,-0.51391 0.2598,-1.07474 0.5398,-1.54172c0.5686,-0.94833 1.55239,-1.8134 2.5108,-2.36413c0.44432,-0.25532 0.93911,-0.41085 1.40238,-0.62991c0.52844,-0.24989 1.01858,-0.58925 1.57225,-0.7767c1.84494,-0.6246 2.76246,-0.63139 4.70992,-0.35097c1.18326,0.17038 2.50172,0.6615 3.6139,1.09029c0.77524,0.29888 1.56319,0.57122 2.31251,0.93017c0.44457,0.21297 0.83581,0.52293 1.25665,0.77962c1.5379,0.93806 2.95853,1.76014 4.02403,3.27041c0.78546,1.11333 1.23832,2.35822 1.51848,3.68781c0.12345,0.5859 0.21674,1.19158 0.16834,1.78839c-0.06038,0.74459 -0.32716,1.45781 -0.49073,2.18671c-0.27201,0.70302 -0.47941,1.4346 -0.81603,2.10907c-0.35241,0.7061 -1.36552,1.98322 -1.85561,2.64878c-0.27251,0.37008 -0.49213,0.78321 -0.80733,1.11768c-1.18315,1.2555 -2.84199,2.55724 -4.55892,3.00675c-1.69218,0.44303 -3.37536,-0.01286 -5.06688,-0.10641c-1.51017,-0.08352 -1.83762,0.20184 -3.52589,-0.34932c-0.77739,-0.25378 -1.4651,-0.72698 -2.20085,-1.08393c-0.52202,-0.25325 -1.12057,-0.3826 -1.57237,-0.74664c-0.43021,-0.34665 -0.6966,-0.86036 -0.99726,-1.32388c-0.62768,-0.96767 -1.21067,-2.19531 -1.47769,-3.31349c-0.23725,-0.99351 -0.17739,-2.50026 -0.17747,-3.49383c-0.00009,-1.13302 0.05622,-2.26699 0.15912,-3.39532c0.11543,-0.56598 0.25955,-1.09787 0.433,-1.60162zM317.61738,169.91432c-0.15655,0.30567 -0.40049,0.48862 -0.40049,0.48862l-1.13727,0.85213c-1.75713,1.49851 -2.89853,3.04821 -3.34571,5.34381c-0.09139,1.00901 -0.13315,2.02335 -0.13324,3.03648c-0.00005,0.63623 -0.05541,2.21984 0.11489,2.93797c0.11205,0.47251 0.30206,0.92519 0.50328,1.36715c0.18446,0.40514 0.424,0.78309 0.65023,1.16647c0.14552,0.24661 0.23565,0.55052 0.46451,0.7226c0.30376,0.22839 0.71481,0.26128 1.05883,0.42278c0.64056,0.30071 1.22255,0.73362 1.89213,0.96256c1.11261,0.38043 1.80518,0.17397 2.9059,0.23539c1.3931,0.07773 2.89997,0.55418 4.28848,0.18594c1.22604,-0.32515 2.50463,-1.36446 3.33467,-2.25563c0.25813,-0.27715 0.43113,-0.62291 0.65444,-0.9288c0.33151,-0.45413 1.39374,-1.8046 1.65265,-2.32124c0.2704,-0.53958 0.4305,-1.12771 0.64574,-1.69156c0.12878,-0.53797 0.33379,-1.06324 0.38633,-1.61391c0.03616,-0.37892 -0.03983,-0.76395 -0.12401,-1.13516c-0.22888,-1.00921 -0.51696,-1.90065 -1.11272,-2.744c-0.85384,-1.20869 -2.05461,-1.82331 -3.28484,-2.57669c-0.36365,-0.22269 -0.69738,-0.49845 -1.0822,-0.68215c-0.671,-0.32031 -1.37861,-0.55767 -2.07281,-0.82396c-0.97049,-0.37226 -2.07431,-0.79727 -3.11024,-0.9562c-1.13322,-0.17385 -1.83315,-0.22485 -2.74856,0.0074z" fill="#00ff2b" stroke="none" stroke-width="0.5"/><path d="M317.40993,179.66625c-0.03088,-1.24962 1.21874,-1.2805 1.21874,-1.2805l0.23459,0.02074c0.81118,-0.19087 1.62236,-0.38173 2.43354,-0.5726c0,0 1.21677,-0.28629 1.50307,0.93048c0.28629,1.21677 -0.93048,1.50307 -0.93048,1.50307c-0.81118,0.19087 -1.62237,0.38173 -2.43354,0.57259l-0.74542,0.04496c0,0 -1.24962,0.03088 -1.2805,-1.21874z" fill="#00ff2b" stroke="none" stroke-width="0.5"/><path d="M306.31042,160.9732c-0.20648,-1.03029 0.84435,-1.38057 0.84435,-1.38057c0.99522,-0.33174 2.0183,-0.58876 2.98667,-0.99225c0.63058,-0.26274 1.19001,-0.68943 1.8372,-0.90807c0.6074,-0.2052 1.25187,-0.30085 1.89099,-0.35144c0.86804,-0.06871 1.74151,-0.00433 2.61226,-0.00505c1.30221,-0.00107 1.96381,-0.05047 3.24818,0.16123c0.62763,0.10344 4.03898,0.89016 4.53518,0.98938c1.7195,0.34386 2.16746,0.27714 3.83396,0.80779c0.6619,0.21076 1.29221,0.51086 1.94577,0.74622c0.59877,0.21563 1.2254,0.35577 1.81037,0.60643c2.30773,0.98886 4.70338,2.34907 6.33441,4.30792c1.04375,1.25354 1.55491,2.688 2.21723,4.15505c0.25113,0.52626 0.54145,1.03554 0.75337,1.57877c0.31475,0.80683 0.56327,1.63815 0.82376,2.4641c0.8605,2.72844 1.56435,5.60656 0.99765,8.4797c-0.02357,0.11948 -0.93533,3.13848 -0.97215,3.21277c-0.33309,0.67193 -0.84514,1.23984 -1.23719,1.87917c-0.41676,0.67962 -0.7588,1.40394 -1.18806,2.07574c-0.45168,0.70688 -1.29476,1.69631 -1.86171,2.33351c-0.81573,0.91681 -1.67696,1.79834 -2.60379,2.60267c-0.72202,0.62659 -2.41877,2.14246 -3.03913,2.57386c-0.53329,0.37086 -1.13898,0.62486 -1.70789,0.93836c-0.46346,0.25539 -0.90745,0.5494 -1.38923,0.7683c-2.1818,0.99134 -4.48823,1.58067 -6.80887,2.1273c-0.86588,0.1445 -1.72394,0.34829 -2.59765,0.4335c-2.16861,0.21152 -4.41093,-0.02356 -6.50804,-0.58705c-1.63115,-0.43829 -2.6345,-0.9505 -4.21965,-1.64888c-0.48314,-0.21286 -0.9802,-0.39768 -1.44623,-0.64578c-0.46103,-0.24544 -0.90904,-0.51965 -1.32821,-0.83122c-1.03171,-0.76686 -1.32364,-1.31328 -2.40627,-1.99256c-0.47296,-0.29676 -1.03825,-0.43375 -1.4961,-0.75331c-1.18532,-0.82731 -1.64072,-1.40865 -2.38477,-2.53289c-0.29829,-0.4507 -0.6586,-0.87636 -0.84563,-1.38344c-0.31328,-0.84941 -0.4356,-1.75759 -0.63829,-2.63996c-0.11536,-0.50217 -0.707,-3.20135 -0.76844,-3.86807c-0.05162,-0.56007 0.01366,-1.1252 -0.00462,-1.68735c-0.06329,-1.94687 -0.21569,-2.7308 -0.14526,-4.6221c0.01887,-0.50683 0.0998,-1.00945 0.1497,-1.51417c0.52697,-6.69052 3.66307,-11.492 8.77614,-14.8976zM312.46169,160.19278c-0.05316,0.86776 -0.98604,1.07506 -0.98604,1.07506l-1.16854,0.25007c-6.05478,3.07509 -9.75835,7.57592 -10.28256,14.57316c-0.04755,0.46979 -0.12474,0.93753 -0.14265,1.40938c-0.06369,1.67837 0.09254,2.70948 0.14707,4.44092c0.01603,0.50926 -0.05002,1.02105 -0.00462,1.52854c0.04521,0.50538 0.67016,3.32975 0.71756,3.54375c0.16463,0.74335 0.25356,1.50916 0.50692,2.22713c0.1261,0.35735 0.40448,0.64108 0.61614,0.9554c0.55302,0.82125 0.82269,1.2613 1.70819,1.85243c0.4418,0.29493 0.97912,0.42357 1.42746,0.70846c1.2841,0.81597 2.21915,2.02361 3.57439,2.73098c0.41408,0.21613 0.85422,0.37813 1.28186,0.56602c1.45646,0.63993 2.38464,1.12401 3.86939,1.52465c1.80518,0.48712 3.75295,0.6947 5.62059,0.50938c0.78496,-0.07789 1.55551,-0.2632 2.33326,-0.39481c2.12372,-0.49911 4.24752,-1.03348 6.24415,-1.94145c0.43162,-0.19627 0.8263,-0.46534 1.24196,-0.69347c0.50101,-0.27496 1.03893,-0.48932 1.50802,-0.81578c0.46494,-0.32356 2.24057,-1.90511 2.80797,-2.39617c0.84365,-0.73013 1.62543,-1.53308 2.36624,-2.36736c0.46974,-0.52901 1.26989,-1.45729 1.64655,-2.05182c0.4143,-0.65394 0.74394,-1.35863 1.15078,-2.01723c0.34451,-0.55771 0.80608,-1.04396 1.10165,-1.62909c0.20163,-0.39915 0.24507,-0.86014 0.37233,-1.28884c0.13341,-0.44944 0.3162,-0.88607 0.40965,-1.34549c0.4963,-2.44008 -0.20203,-4.93681 -0.92947,-7.24173c-0.24097,-0.7635 -0.4663,-1.53349 -0.75738,-2.27932c-0.19669,-0.50399 -0.46871,-0.97522 -0.70307,-1.46284c-0.50565,-1.12756 -1.05072,-2.62185 -1.88108,-3.62049c-0.87541,-1.05281 -2.10487,-1.86868 -3.26997,-2.53971c-0.67503,-0.38878 -1.37284,-0.74139 -2.08981,-1.04595c-0.54881,-0.23312 -1.13684,-0.36109 -1.69788,-0.56299c-1.1499,-0.41382 -2.29345,-0.8748 -3.4901,-1.12285c-0.63876,-0.13241 -1.28907,-0.20351 -1.92874,-0.33146c-0.11767,-0.02353 -4.04398,-0.90572 -4.43873,-0.97233c-1.10181,-0.18591 -1.72795,-0.1301 -2.86129,-0.13111c-0.79591,-0.00071 -1.59333,-0.05388 -2.38775,-0.00505c-0.44759,0.02751 -0.90303,0.08126 -1.32493,0.23325c-0.10477,0.03775 -0.20699,0.0813 -0.30751,0.12875z" fill="#00ff2b" stroke="none" stroke-width="0.5"/><path d="M299.31997,157.09195c-0.00435,-0.0048 -0.0087,-0.00964 -0.01304,-0.01453c-0.83045,-0.93426 0.10381,-1.76471 0.10381,-1.76471c0.48818,-0.42767 0.9202,-0.9296 1.46455,-1.28303c0.54984,-0.35699 1.18546,-0.56042 1.78459,-0.82652c1.65078,-0.73318 2.27121,-1.01817 3.94662,-1.51565c1.83076,-0.54362 2.80392,-0.71086 4.67727,-1.17827c0.53473,-0.13342 1.07217,-0.25958 1.59746,-0.42635c0.81743,-0.25952 1.5958,-0.64376 2.42787,-0.85162c0.78409,-0.19587 1.60291,-0.21223 2.39855,-0.35405c0.69599,-0.12405 1.37662,-0.3275 2.07405,-0.44316c0.27385,-0.04541 2.91931,-0.28231 3.15469,-0.3027c1.47537,-0.12776 2.6671,-0.26466 4.17845,-0.14482c0.52959,0.04199 1.04116,0.21233 1.56395,0.30675c1.66819,0.3013 2.07482,0.28276 3.76765,0.75713c0.62716,0.17575 1.23592,0.41157 1.85389,0.61735c0.63269,0.26514 1.29471,0.46899 1.89807,0.79541c0.49073,0.26548 2.76915,1.74039 3.45178,2.3537c0.64215,0.57694 1.22267,1.21898 1.83351,1.82896c1.06631,1.06481 1.45783,1.42909 2.5354,2.68658c0.54434,0.63523 1.04248,1.30894 1.58275,1.94764c0.54343,0.64243 1.1418,1.23815 1.66771,1.89499c0.03722,0.04649 2.11464,3.01776 2.13797,3.05674c0.98874,1.65241 1.67387,3.53017 2.29905,5.34436c0.72558,2.10555 1.57613,4.31392 1.81473,6.54676c0.14089,1.31843 0.19992,3.8745 0.15265,5.20202c-0.07546,2.1193 -0.70355,4.14747 -1.23868,6.1832c-0.24986,0.55244 -0.52731,1.09322 -0.74957,1.65733c-0.90078,2.28609 -0.70697,2.57298 -1.99995,4.72721c-0.45038,0.75037 -1.92717,2.38225 -2.49183,2.97492c-1.66226,1.74469 -3.45873,3.20759 -5.45094,4.56358c-0.53351,0.36313 -1.10138,0.67353 -1.63981,1.02933c-0.70514,0.46596 -1.37065,0.99192 -2.09013,1.43544c-1.73327,1.06848 -3.67339,1.99967 -5.50747,2.88451c-3.44489,1.66197 -7.0235,2.91961 -10.76319,3.72132c-1.05183,0.22549 -2.85582,0.56188 -3.87127,0.6392c-0.62842,0.04785 -1.26047,0.00149 -1.89071,0.00222c-1.49541,-0.11452 -2.98737,-0.27349 -4.47727,-0.44546c-0.95875,-0.11066 -2.41536,-0.2369 -3.28927,-0.48347c-0.47253,-0.13332 -0.88191,-0.43893 -1.3475,-0.59477c-0.95022,-0.31806 -1.96577,-0.41201 -2.91649,-0.72858c-0.81887,-0.27267 -1.62507,-0.58343 -2.42467,-0.90829c-1.37121,-0.5571 -2.70405,-1.22122 -3.97154,-1.98544c-0.54694,-0.32977 -1.15795,-0.57484 -1.63384,-1.00078c-0.61685,-0.55211 -1.06831,-1.26493 -1.60335,-1.89664c-0.31556,-0.37257 -0.67262,-0.71336 -0.94846,-1.11623c-0.71112,-1.0386 -0.9001,-1.70586 -1.41994,-2.8116c-0.19396,-0.41258 -0.43529,-0.8031 -0.60912,-1.22455c-0.17624,-0.42733 -0.26307,-0.88793 -0.43852,-1.3156c-0.56557,-1.37855 -1.43405,-2.61334 -1.93097,-4.02879c-0.15811,-0.45037 -0.21093,-0.93104 -0.3164,-1.39657c-1.11282,-3.70931 -1.50178,-7.55966 -1.50222,-11.42486c-0.00032,-2.8956 0.00002,-5.87892 0.89507,-8.67143c0.26292,-0.82032 0.6901,-1.5788 1.01508,-2.37658c0.2043,-0.50153 0.30484,-1.04961 0.57238,-1.52044c0.44407,-0.7815 1.01435,-1.48463 1.54675,-2.20884c1.12748,-1.53368 2.43218,-2.97031 3.82645,-4.26587c0.94963,-0.8824 1.97468,-1.67997 2.9624,-2.51952c0.44928,-0.38188 0.89835,-0.75776 1.35102,-1.12692zM308.17097,153.84134c-0.14538,0.21286 -0.30944,0.33591 -0.30944,0.33591l-0.67221,0.49853c-1.218,0.76108 -2.40895,1.56027 -3.62704,2.32121c-1.39157,0.97355 -2.67927,2.026 -3.9724,3.12519c-0.96132,0.81713 -1.95983,1.59236 -2.8847,2.45052c-1.28607,1.1933 -2.47593,2.52086 -3.52256,3.9282c-0.45821,0.61612 -0.9566,1.20883 -1.33666,1.876c-0.22509,0.39512 -0.29202,0.86188 -0.46303,1.28324c-0.30282,0.74613 -0.70887,1.45194 -0.95783,2.21773c-0.82175,2.52763 -0.77396,5.28417 -0.77427,7.90369c-0.00043,3.65564 0.36908,7.28666 1.42133,10.7941c0.08943,0.41155 0.1296,0.83697 0.26828,1.23464c0.47145,1.35183 1.32507,2.54668 1.86966,3.86478c0.17651,0.42723 0.26278,0.88806 0.43853,1.3156c0.15806,0.38452 0.38313,0.73819 0.5603,1.11428c0.39294,0.83413 0.68208,1.68496 1.21125,2.45078c0.2332,0.33749 0.5425,0.61558 0.80567,0.93026c0.44552,0.5327 0.8056,1.14532 1.3202,1.61163c0.36894,0.33431 0.86106,0.50011 1.28972,0.75335c0.48135,0.28437 0.94025,0.60939 1.44027,0.85946c0.71221,0.35617 1.45148,0.65648 2.18941,0.95574c0.74338,0.30146 1.49209,0.59189 2.25302,0.84582c0.9552,0.31876 1.97493,0.41589 2.93061,0.73319c0.44493,0.14772 0.8334,0.44416 1.28369,0.57467c0.57398,0.16636 2.19986,0.31856 2.85446,0.39407c1.42744,0.16466 2.85646,0.32039 4.28909,0.43111c0.53918,0.00074 1.07999,0.04406 1.61755,0.00222c0.89488,-0.06964 2.61012,-0.39409 3.53197,-0.59154c1.85435,-0.39718 2.27491,-0.46815 3.89244,-1.00809c0.91744,-0.30624 3.17951,-1.09871 4.16179,-1.51982c1.23061,-0.52756 2.96193,-1.4052 4.16361,-2.01135c0.94053,-0.47442 2.49505,-1.27778 3.25657,-1.7481c0.69892,-0.43166 1.34484,-0.94414 2.03008,-1.3972c0.53028,-0.35061 1.08982,-0.65604 1.61567,-1.01326c1.84211,-1.25141 3.49921,-2.59846 5.03427,-4.21097c0.38659,-0.40609 1.83317,-1.99039 2.18584,-2.57983c1.09334,-1.82735 1.00404,-2.31526 1.80066,-4.33579c0.2095,-0.53139 0.4748,-1.03904 0.7122,-1.55856c0.46281,-1.79573 1.03739,-3.59126 1.09742,-5.45879c0.03913,-1.21734 -0.01083,-3.57407 -0.13696,-4.79027c-0.21245,-2.04841 -1.02926,-4.09552 -1.69353,-6.0245c-0.56985,-1.65479 -1.18039,-3.38293 -2.08628,-4.88806c-0.29093,-0.48337 -0.64963,-0.92255 -0.97334,-1.3846c-0.32794,-0.46807 -0.62398,-0.95999 -0.98165,-1.40576c-0.50794,-0.63305 -1.08677,-1.20615 -1.61113,-1.82567c-0.53631,-0.63362 -1.03054,-1.30218 -1.57022,-1.93294c-1.04557,-1.22201 -1.37653,-1.51614 -2.40736,-2.54853c-0.56767,-0.56853 -1.10667,-1.16709 -1.70202,-1.70658c-0.54138,-0.49059 -2.7018,-1.8804 -2.98003,-2.03163c-0.51036,-0.27739 -1.07346,-0.44424 -1.61019,-0.66636c-0.55145,-0.18402 -1.09452,-0.39544 -1.65437,-0.55206c-1.5873,-0.44405 -1.94619,-0.41257 -3.54123,-0.70464c-0.45501,-0.08332 -0.89853,-0.2407 -1.3596,-0.27796c-1.24848,-0.1009 -2.47623,0.03935 -3.71513,0.14755c-0.07004,0.00612 -2.79477,0.25018 -2.98477,0.28202c-0.67888,0.11375 -1.34113,0.31386 -2.01892,0.43389c-0.74332,0.13164 -1.50952,0.13745 -2.24183,0.32068c-0.78484,0.19638 -1.51603,0.56751 -2.28708,0.81249c-0.56716,0.18019 -1.1472,0.31745 -1.72447,0.46204c-1.54983,0.38819 -2.43385,0.55609 -3.72532,0.9083z" fill="#00ff2b" stroke="none" stroke-width="0.5"/><path d="M260.25416,147.50963l0.23284,-1.16508c0.23048,-0.32152 0.46095,-0.64305 0.69143,-0.96457c0.38466,-0.69414 0.77865,-1.39279 1.1875,-2.08537c-1.45875,-0.60169 -2.90871,-1.51449 -2.69403,-2.47428c0.2767,-1.23706 1.87195,-1.90383 3.1058,-2.19452c0.10321,-0.02432 0.20583,-0.04183 0.30782,-0.05289c0.22759,-0.23806 0.54831,-0.38634 0.90367,-0.38634c0.19407,0 0.3778,0.04423 0.54168,0.12315l0.95633,0.43469c0.48638,-0.58876 0.98868,-1.16491 1.44664,-1.77582c0.25864,-0.34501 0.48319,-0.71546 0.75289,-1.05188c1.00059,-1.24811 2.19579,-2.2876 3.28922,-3.44664c0.4734,-0.5018 0.88644,-1.06173 1.38964,-1.53364c0.31369,-0.29419 0.72297,-0.47088 1.04804,-0.75245c0.40119,-0.34751 0.736,-0.76564 1.12341,-1.12846c0.22051,-0.20651 0.44898,-0.40389 0.68198,-0.59611c-1.06826,-0.86196 -2.00651,-2.19507 -1.11545,-3.30062c0.0053,-0.0783 0.01406,-0.15622 0.02639,-0.23369c-0.1551,-0.40057 -0.23313,-0.79489 -0.06862,-1.1696c1.27866,-2.91244 4.49699,-2.00725 6.72655,-0.01732c0.60968,-0.43796 1.79778,-1.16477 2.36552,-1.51872c0.13365,-0.10417 2.55413,-1.99207 2.6312,-2.04649c0.38795,-0.2739 0.80842,-0.49867 1.20732,-0.75634c0.46724,-0.30183 0.90465,-0.65188 1.3909,-0.92202c0.44212,-0.24562 0.9272,-0.40468 1.38481,-0.62005c0.41819,-0.19681 0.81136,-0.44864 1.2421,-0.61623c0.5016,-0.19516 1.03222,-0.30566 1.5453,-0.46827c0.99957,-0.31679 1.99374,-0.65838 3.01363,-0.90193c1.05449,-0.25182 2.1259,-0.43429 3.17183,-0.71964c0.9401,-0.25647 1.84555,-0.63143 2.7878,-0.87988c0.48658,-0.1283 0.99186,-0.1753 1.48011,-0.29708c0.51511,-0.12848 1.00531,-0.35405 1.5269,-0.45294c0.97301,-0.18447 1.97921,-0.13506 2.95602,-0.29819c0.0635,-0.01061 0.12689,-0.02176 0.19018,-0.03341c-0.03472,-0.6236 -0.00965,-1.2217 0.09859,-1.68728c0.17503,-0.75289 0.19006,-1.73292 0.82314,-2.17116c0.12705,-0.28363 0.31279,-0.51282 0.59658,-0.64215c0.25722,-0.11722 0.53745,-0.1413 0.823,-0.09945c1.43176,-0.46728 1.98121,0.47023 2.44748,1.71746c0.35033,0.53475 0.57237,1.16027 0.70784,1.83468c0.42003,-0.09341 0.83768,-0.20296 1.26526,-0.24512c0.52577,-0.05184 1.05662,-0.00508 1.58495,-0.00608c1.12069,-0.00213 2.24138,0 3.36208,0c0.99756,0 1.99661,-0.05272 2.99267,0.00191c0.44057,0.02416 0.87505,0.12171 1.3156,0.14618c0.43786,0.02433 0.87775,-0.02433 1.31561,0c0.44055,0.02447 0.87494,0.12352 1.31559,0.14617c0.00713,0.00036 0.01425,0.00071 0.02139,0.00104c0.21175,-0.78438 0.60186,-1.49427 1.19767,-1.90279c1.47677,-1.01254 2.5738,-0.90199 3.62104,-0.08247c0.22174,0.06577 0.45607,0.16345 0.70328,0.2963c0.78182,0.42012 0.7889,1.59017 1.18335,2.38525l-0.07213,0.57794c0.20812,0.05218 0.34029,0.08547 0.34992,0.08828c0.58646,0.17091 1.15102,0.41215 1.73831,0.58022c2.01745,0.57735 4.11891,0.89435 6.13945,1.46177c0.49414,0.13877 0.98507,0.29442 1.46028,0.48833c0.40352,0.16465 0.76662,0.41831 1.16942,0.58471c0.39994,0.16521 0.82169,0.27168 1.23253,0.40753c1.40087,0.46852 2.71736,1.04772 4.06397,1.65368c0.99957,0.44981 2.02923,0.83834 2.99761,1.35187c0.90405,0.47941 1.67863,1.1126 2.54924,1.64455c1.95583,1.19503 4.03872,2.14546 5.82978,3.59842c0.45566,0.36964 0.8604,0.79921 1.3156,1.16942c0.34411,0.27987 0.75522,0.47549 1.07927,0.77835c0.42226,0.39463 1.79852,2.05586 2.26984,2.56067c1.72927,1.85217 3.52009,3.61156 5.04539,5.6432c0.02319,0.02898 0.05239,0.06541 0.08677,0.10826c0.03154,-0.25697 0.16262,-0.53433 0.48303,-0.79065c0.97609,-0.78087 1.75696,0.19522 1.75696,0.19522c0.60836,0.85695 1.63916,1.53649 1.82509,2.57085c0.15109,0.84054 -0.40838,1.68656 -0.883,2.40658c0.21513,0.34627 0.39063,0.62777 0.43651,0.69662c0.24336,0.36527 0.53673,0.69706 0.76269,1.07333c0.23097,0.38462 0.38492,0.81127 0.60409,1.20273c0.24456,0.43681 0.59258,0.81804 0.78584,1.27984c0.40033,0.95661 0.53152,2.10498 0.79525,3.1092c0.03917,0.14914 0.10597,0.37844 0.18738,0.64729c1.50394,-0.42684 2.64758,-0.06575 3.4337,0.71104c0.12741,0.01138 0.25349,0.03346 0.37779,0.06998c0.21384,0.06283 0.42063,0.14391 0.61969,0.24126c0.01256,0.00141 0.02522,0.00296 0.038,0.00466c0.56529,0.07537 0.83828,0.37427 0.96803,0.67703c2.31507,2.06097 2.94308,6.51944 0.14545,8.32258c-0.08046,0.05186 -0.16105,0.10122 -0.24173,0.14814c0.21654,0.47329 0.39717,0.96288 0.5753,1.45198c0.22244,0.61079 0.43642,1.22556 0.61562,1.85041c0.12384,0.43183 0.17326,0.88244 0.29235,1.3156c0.13455,0.48939 0.38599,0.94811 0.46775,1.44903c0.20869,1.27869 -0.12719,1.50075 0.00868,2.69503c0.04865,0.42766 0.22093,0.8338 0.2849,1.25944c0.07916,0.52681 0.05258,1.06681 0.14354,1.59172c0.14585,0.84167 0.647,2.25806 0.74099,3.14212c0.00892,0.08386 0.01051,3.09117 0.00138,3.18312c-0.05252,0.52864 -0.2122,1.04118 -0.30675,1.56395c-0.10229,0.56553 -0.18915,1.13375 -0.28372,1.70063c-0.05334,0.48152 -0.09781,0.96771 -0.1434,1.45466c0.20934,0.18757 0.39057,0.38748 0.54521,0.59665c0.21883,0.15411 0.42762,0.31755 0.62158,0.48981c0.70798,0.24273 1.36946,0.62707 1.79605,1.20207c1.79715,2.42235 0.09723,3.63331 -1.905,3.87368c-0.59742,0.50073 -1.41342,0.6726 -2.25745,0.60686c-0.12165,0.86455 -0.13554,1.74317 -0.26686,2.60657c-0.08168,0.53697 -0.18353,1.07201 -0.32047,1.59761c-0.11563,0.44379 -0.32451,0.86008 -0.43577,1.30499c-0.12935,0.5173 -0.16563,1.05436 -0.28422,1.57424c-0.28319,1.24151 -0.52132,1.87489 -0.91024,3.04233c-0.01911,0.05737 -0.06581,0.19751 -0.12943,0.38838c0.01011,0.02015 0.01979,0.0406 0.02898,0.06137c0.10233,0.23107 0.18256,0.4496 0.24251,0.65592c0.32473,0.42155 0.56931,0.84689 0.704,1.23983c0.28454,0.83015 0.76742,1.97235 0.18229,2.62637c-0.82265,0.91952 -2.10136,1.11648 -3.3343,0.84369c-0.82572,1.74498 -1.72242,3.43788 -2.58573,5.1653c-0.26187,0.51998 -0.48271,1.06273 -0.7856,1.55992c-0.24403,0.40059 -0.60994,0.71949 -0.84924,1.12239c0.46236,0.73192 0.8356,1.45549 1.0954,2.0113l0.84754,1.82545c0,0 0.52639,1.13376 -0.60737,1.66015c-0.5184,0.24069 -0.90983,0.13429 -1.18201,-0.05212c-0.12095,0.37394 -0.31681,0.69914 -0.62752,0.93142c-1.39783,1.04502 -2.58865,0.74737 -3.56338,-0.09408c-0.01553,0.01845 -0.03114,0.03684 -0.04683,0.05517c-0.95216,1.11176 -2.10675,2.04202 -3.1742,3.03272c-0.36349,0.33735 -0.67861,0.72583 -1.05355,1.0504c-0.38797,0.33586 -0.82223,0.61421 -1.22968,0.92614c-0.28521,0.21836 -0.56443,0.4443 -0.84161,0.67282c0.12778,0.22161 0.23454,0.42167 0.31274,0.58643c0.37208,0.78395 1.13356,1.65586 0.82811,2.46809c-0.02938,0.07814 -0.05969,0.15326 -0.09089,0.22546c0.28253,1.29567 -0.1766,2.33848 -2.57505,2.44326c-1.03645,0.04528 -1.99997,-0.67402 -2.82864,-1.29818c-0.2803,-0.21112 -0.51886,-0.46589 -0.73873,-0.74024c-0.61214,0.42853 -1.21385,0.87237 -1.80131,1.33397c-0.36331,0.28547 -0.68129,0.62719 -1.05394,0.90036c-0.38557,0.28263 -0.80977,0.5084 -1.21465,0.7626c-1.1796,0.84332 -2.31128,1.76792 -3.5565,2.5157c-1.38524,0.83187 -2.89526,1.60534 -4.37368,2.26319c-0.47947,0.21335 -0.9818,0.3725 -1.46177,0.5847c-0.79733,0.35252 -1.49736,0.89658 -2.27735,1.28596c-0.59991,0.29947 -1.23481,0.52309 -1.85517,0.7775c-1.66987,0.68482 -3.40188,1.24633 -5.1587,1.66804c-0.54611,0.13109 -1.10575,0.19758 -1.65741,0.30283c-0.34561,0.06594 -0.69054,0.13386 -1.03538,0.2007c-0.05175,0.90186 -0.0122,1.83812 -0.31251,2.68906c-0.34001,0.96344 -0.58071,2.40173 -1.57697,2.62824c-0.36707,0.08345 -0.71682,0.01144 -1.05748,-0.14225c-0.24469,0.17496 -0.51286,0.25773 -0.80371,0.20101c-1.02384,-0.19967 -1.58933,-1.34731 -2.14998,-2.27356c-0.51864,-0.63614 -0.69858,-1.59853 -0.79545,-2.50156c-1.14805,0.09059 -2.28267,0.26892 -3.40751,0.51923c-0.88801,0.09984 -1.77966,0.17085 -2.66426,0.29739c-1.43965,0.20595 -2.88533,0.4993 -4.34201,0.58662c-0.02382,0.21494 -0.04714,0.43407 -0.06738,0.65903c-0.62376,0.65652 -0.96663,1.92825 -1.87129,1.96956c-0.25873,0.01182 -0.50705,-0.0345 -0.74622,-0.122c-0.23034,0.67503 -0.5195,1.30813 -1.09567,1.65641c-0.87747,0.5304 -2.21976,0.37956 -3.06985,-0.19368c-0.72907,-0.49164 -0.74144,-1.61545 -0.89658,-2.48101c-0.05853,-0.32656 0.0555,-1.10246 0.21431,-1.90548c-0.05534,-0.00821 -0.1107,-0.01611 -0.16611,-0.02366c-0.58136,-0.07926 -1.17279,-0.06674 -1.75413,-0.14619c-0.50666,-0.06924 -1.00085,-0.21165 -1.50468,-0.29917c-0.82921,-0.14405 -2.63891,-0.36101 -3.50061,-0.61744c-0.52173,-0.15526 -1.00385,-0.42318 -1.51771,-0.60278c-0.48303,-0.16882 -0.9894,-0.26641 -1.47019,-0.44151c-0.57684,-0.21007 -1.11332,-0.52629 -1.69832,-0.71242c-0.46441,-0.14777 -0.96584,-0.14944 -1.43417,-0.28428c-1.53959,-0.44327 -2.97676,-1.17064 -4.4006,-1.88692c-0.74579,-0.5311 -1.53985,-0.99185 -2.32907,-1.45596c-0.38844,-0.22843 -0.75107,-0.5001 -1.14588,-0.71734c-0.58553,-0.32218 -1.22143,-0.55123 -1.79201,-0.89919c-1.19419,-0.72826 -2.04012,-1.59675 -3.21589,-2.33883c-0.35622,-0.22483 -0.76454,-0.35586 -1.13155,-0.56259c-0.42307,-0.23831 -0.82889,-0.50628 -1.23598,-0.77098c-0.61534,-0.4001 -1.23982,-0.7881 -1.83093,-1.22319c-0.34697,-0.25539 -0.6197,-0.60586 -0.97833,-0.84459c-0.50822,-0.33831 -1.10089,-0.53702 -1.60796,-0.87706c-0.40925,-0.27444 -0.75194,-0.63704 -1.12682,-0.95683c-0.67473,-0.57556 -2.01643,-1.71801 -2.55541,-2.25785c-0.08103,-0.08115 -0.1609,-0.16338 -0.23977,-0.24657c-0.2588,0.28769 -0.53275,0.53426 -0.8139,0.72706c-0.69763,0.47841 -1.69022,1.48437 -2.35079,0.95596c-0.15641,-0.12511 -0.29742,-0.25545 -0.42395,-0.39041c-0.31378,-0.05247 -0.59242,-0.1799 -0.79392,-0.40925c-0.25378,-0.28885 -0.43626,-0.59255 -0.55922,-0.90449c-0.06284,-0.02203 -0.12767,-0.04945 -0.1945,-0.08286c-0.70644,-0.35322 -0.74333,-0.92963 -0.67474,-1.30615c-0.10046,-0.21973 -0.15916,-0.45087 -0.16242,-0.68894c-0.01128,-0.82541 0.66888,-1.46423 1.3774,-2.0291c0.1127,-0.34251 0.24504,-0.6814 0.38962,-1.00381c-0.23626,-0.34831 -0.42191,-0.73083 -0.66464,-1.07505c-0.33153,-0.47015 -0.74364,-0.88197 -1.05606,-1.36503c-0.24491,-0.37869 -0.40556,-0.80564 -0.60834,-1.20847c-0.27489,-0.41098 -0.54455,-0.82552 -0.82467,-1.23296c-0.25581,-0.37207 -0.56468,-0.71009 -0.78296,-1.10534c-0.33641,-0.60916 -0.52435,-1.29426 -0.87437,-1.8957c-0.3156,-0.54229 -0.69571,-1.04306 -1.07517,-1.54439c-0.02279,0.00709 -0.04563,0.014 -0.06851,0.02074c-1.07398,0.92243 -2.71469,1.31732 -4.06067,0.62036l-0.09935,0.08065c0,0 -0.97608,0.78087 -1.75696,-0.19521c-0.65828,-0.82284 -0.06797,-1.50696 0.1336,-1.70148c-0.07948,-0.21774 -0.12178,-0.44303 -0.11507,-0.67109c0.02233,-0.75825 0.49016,-1.40799 1.02314,-2.01027v-0.05247c0,-0.67724 0.53859,-1.22869 1.2108,-1.24939c0.15697,-0.14908 0.3263,-0.29572 0.5058,-0.43669c-0.24428,-0.52555 -0.46581,-1.06265 -0.63769,-1.60269c-0.14141,-0.44432 -0.18376,-0.91502 -0.30647,-1.36486c-0.02818,-0.10331 -0.97246,-3.12423 -1.03411,-3.40643c-0.14,-0.64092 -0.18409,-1.29942 -0.30156,-1.94486c-0.16503,-0.90671 -0.34599,-1.81141 -0.56904,-2.70561c-0.11782,-0.47232 -0.65766,-2.15995 -0.83795,-2.64992c-0.19016,-0.51678 -0.45127,-1.00801 -0.60916,-1.53554c-0.15213,-0.5083 -0.2074,-1.0407 -0.31723,-1.55979c-0.1972,-0.93206 -0.35842,-1.87337 -0.46357,-2.82024c-0.00239,-1.72863 -0.0709,-3.47516 -0.02309,-5.20594c-1.80937,0.01965 -3.7681,-0.36055 -4.61795,-1.62835c-0.916,-0.54308 -1.65651,-1.38085 -1.49338,-2.57246c0.12484,-0.91196 0.93462,-1.60881 1.58137,-2.26378c0.19516,-0.19764 0.38569,-0.36082 0.57434,-0.4955c-0.2874,-0.16704 -0.55471,-0.47777 -0.55471,-1.05582c0,-1.25 1.25,-1.25 1.25,-1.25c0.53996,0.00334 1.08662,-0.07479 1.61989,0.01004c0.60098,0.09561 1.18808,0.26014 1.77384,0.42926c0.00356,-0.43416 0.01419,-0.86798 0.03548,-1.3013c0.09789,-1.99215 0.65648,-3.9363 1.04597,-5.88379c0.19119,-0.95602 0.3649,-1.91821 0.55032,-2.8781c-1.5775,-1.25401 -2.90568,-2.98004 -2.40797,-4.49349c0.03604,-0.10958 0.09097,-0.20081 0.16137,-0.27634c-0.33441,-0.12788 -0.97183,-0.49634 -0.78873,-1.41183c0.24514,-1.22572 1.47087,-0.98059 1.47087,-0.98059c0.82642,0.16528 2.05583,0.49032 3.33656,0.9686c0.27422,-0.63339 0.56369,-1.26029 0.8426,-1.88756c0.55058,-1.09786 1.11422,-2.19618 1.69624,-3.28804c-0.06167,-0.21294 -0.06167,-0.38108 -0.06167,-0.38108zM381.1088,162.49846c-0.5369,-1.18147 -0.99143,-2.4326 -1.53059,-3.62799c-2.46864,-0.1583 -4.534,-2.30803 -4.84853,-5.04329c-0.11543,-1.00386 -0.20101,-2.49584 0.20444,-3.73423c-0.31563,-0.21666 -0.70221,-0.65091 -0.45119,-1.40396c0.0313,-0.09391 0.06757,-0.1779 0.1078,-0.25296c-0.05419,-0.18385 -0.09945,-0.34325 -0.13151,-0.46484c-0.13966,-0.52972 -0.46013,-2.25142 -0.66652,-2.7379c-0.16355,-0.38552 -0.4698,-0.69447 -0.67594,-1.059c-0.20821,-0.36821 -0.34787,-0.7733 -0.56536,-1.13611c-0.20333,-0.33919 -0.47207,-0.635 -0.69251,-0.96333c-0.53092,0.43263 -1.24774,0.6123 -1.85756,0.93757c-0.55543,-0.16122 -1.25004,-0.11883 -1.79834,-0.29049c-0.52488,0.10703 -1.03803,0.09949 -1.42264,-0.20495c-0.80671,-0.63855 -0.97825,-1.97118 -0.79241,-2.98311c0.05207,-0.2835 0.1774,-0.53836 0.34607,-0.77325c-0.06512,-0.1514 -0.10119,-0.31823 -0.10119,-0.49349c0,-0.69035 0.55964,-1.25 1.25,-1.25c0.16895,0 0.33007,0.03352 0.47708,0.09427c0.05466,-0.08288 0.11314,-0.16376 0.17532,-0.2423c-1.45148,-1.90672 -3.1485,-3.56612 -4.78111,-5.31591c-0.06874,-0.07368 -2.05266,-2.35082 -2.11549,-2.40937c-0.28881,-0.26913 -0.66071,-0.43464 -0.96722,-0.68342c-0.45556,-0.36976 -0.86052,-0.79907 -1.3156,-1.16943c-1.70206,-1.38519 -3.70983,-2.27988 -5.57206,-3.4181c-0.47327,-0.28927 -1.85233,-1.27098 -2.4208,-1.57136c-0.92055,-0.48642 -1.90002,-0.85207 -2.84948,-1.27932c-1.27004,-0.57152 -2.50771,-1.12319 -3.82961,-1.56222c-0.46622,-0.15651 -0.94371,-0.28277 -1.39866,-0.46954c-0.40317,-0.1655 -0.76702,-0.41733 -1.16942,-0.5847c-0.37971,-0.15794 -0.77431,-0.27997 -1.17091,-0.38874c-2.0242,-0.55513 -4.12113,-0.88601 -6.13945,-1.46177c-0.43968,-0.12542 -0.86698,-0.29075 -1.29968,-0.43876c-0.07331,0.79439 -0.29153,1.57403 -0.42198,2.3626c-1.12041,0.03631 -2.43111,0.73463 -3.36125,0.10894c-0.29293,-0.19704 -0.5414,-0.53097 -0.7412,-0.95547c-0.97419,-0.36803 -1.76522,-1.31739 -2.18216,-2.40989c-0.06032,-0.15804 -0.10989,-0.33361 -0.14814,-0.52198c-0.01979,-0.00059 -0.03957,-0.00136 -0.05934,-0.00231c-0.44071,-0.02136 -0.87504,-0.1217 -1.31558,-0.14617c-0.43786,-0.02433 -0.87775,0.02433 -1.31561,0c-0.44055,-0.02447 -0.87506,-0.12138 -1.31559,-0.14618c-0.94997,-0.05349 -1.90295,0.00192 -2.85442,0.00192c-1.1207,0 -2.24139,0.00231 -3.36208,0c-0.44621,-0.00092 -0.89469,-0.05119 -1.33861,-0.00608c-0.29872,0.03035 -0.59173,0.09814 -0.88446,0.1678c0.01364,0.49076 -0.04078,0.98762 -0.0371,1.47926c0.27188,2.5424 -0.00408,4.23383 -1.81354,3.55158l-0.31162,0.25255c0,0 -1.08046,0 -1.23234,-1.00453c-0.17854,-0.07585 -0.34696,-0.1575 -0.49746,-0.23756c-0.62241,-0.33107 -1.0607,-1.00266 -1.30564,-1.77193c-0.10913,-0.22853 -0.21029,-0.45805 -0.30964,-0.67536c-0.06534,-0.1429 -0.12804,-0.30913 -0.18687,-0.49295c-0.06988,0.01226 -0.13985,0.02424 -0.20994,0.0359c-0.95529,0.15893 -1.93994,0.10441 -2.89108,0.28652c-0.47786,0.09149 -0.9247,0.30585 -1.39665,0.42413c-0.47589,0.11926 -0.96893,0.16302 -1.44344,0.28763c-0.93554,0.24569 -1.83375,0.61981 -2.76694,0.87425c-1.07522,0.29315 -2.17564,0.48478 -3.25998,0.74214c-0.95963,0.22777 -1.89263,0.55626 -2.83346,0.85221c-0.45711,0.1438 -0.9316,0.23519 -1.37825,0.40879c-0.38164,0.14833 -0.72626,0.37885 -1.09674,0.55318c-0.41082,0.19331 -0.84949,0.32888 -1.24638,0.54938c-0.4352,0.24177 -0.82252,0.56129 -1.24027,0.8321c-0.37297,0.24177 -0.7684,0.44915 -1.13154,0.70543c-0.90781,0.64068 -1.75348,1.36515 -2.63119,2.04648c-0.37451,0.23462 -1.5879,0.98407 -2.18682,1.39353c0.26666,0.4494 0.46843,0.90932 0.58579,1.36158c0.47694,0.41792 0.85435,0.81578 0.95943,1.06705c0.40687,0.97297 0.84507,2.36844 0.14859,3.16036c-0.72926,0.82918 -2.18584,0.48494 -3.28744,0.40859c-0.57131,-0.03959 -1.06284,-0.44062 -1.5487,-0.74376c-0.0124,-0.00773 -0.02477,-0.0155 -0.03713,-0.02328c-0.73996,0.01684 -1.58934,-0.28771 -2.16342,-0.70859c-0.27807,0.22321 -0.55055,0.45283 -0.81052,0.6968c-0.41692,0.39128 -0.78344,0.8358 -1.21543,1.21039c-0.30844,0.26746 -0.70057,0.43016 -0.99845,0.70932c-0.45328,0.4248 -0.81633,0.93701 -1.24154,1.38991c-1.03818,1.10579 -2.19292,2.08768 -3.14258,3.27751c-0.25397,0.3182 -0.46454,0.66896 -0.70889,0.99461c-0.33853,0.45116 -0.6997,0.88456 -1.06154,1.31749c0.04204,0.20713 0.01494,0.40053 -0.03996,0.56643l0.98325,0.98324v0c0.09828,0.09828 0.18026,0.21285 0.24156,0.3393c0.17172,0.21406 0.27445,0.48584 0.27445,0.78161c0,0.52457 -0.32313,0.97368 -0.7812,1.15912c0.43492,0.81775 0.78091,1.55826 1.02022,2.05577l-0.03368,0.21907l0.07565,-0.0084l0.14418,1.29754c0.00637,0.05114 0.00965,0.10323 0.00965,0.15609c0,0.69035 -0.55964,1.25 -1.25,1.25c-0.27621,0 -0.5315,-0.08958 -0.73838,-0.24128l-1.01141,-0.72244c0,0 -0.66004,-0.47146 -0.53695,-1.18651c-0.77278,0.04957 -1.42297,-0.16571 -1.95445,-0.5454c-1.21585,2.0861 -2.33585,4.22757 -3.39902,6.3612c-0.27168,0.61156 -0.55744,1.22304 -0.8256,1.84184c2.73962,1.48489 4.67249,3.72739 1.78003,6.65294c-0.63524,0.64251 -1.82038,0.42204 -2.70146,0.22195c-0.24975,-0.05672 -0.53897,-0.15752 -0.85188,-0.29556c-0.12321,0.65488 -0.24515,1.30962 -0.37552,1.96145c-0.36399,1.81987 -0.91506,3.65623 -1.00052,5.51804c-0.02812,0.61255 -0.03584,1.22604 -0.03305,1.84001c0.07003,0.03695 0.13765,0.0787 0.20231,0.12629c0.6645,0.489 1.23102,1.18111 1.51876,1.95434c0.00257,0.00689 0.0051,0.01379 0.00761,0.02068c0.9074,0.80582 1.38225,1.79525 0.7036,3.47522c-0.40274,0.99695 -1.54408,1.49675 -2.31611,2.24512c-0.07614,0.02001 -0.15572,0.03956 -0.23845,0.05853c-0.06804,1.77686 0.01153,3.57344 0.0088,5.35088c0.09124,0.82058 0.24431,1.63404 0.4135,2.44216c0.09492,0.45342 0.13404,0.92015 0.26748,1.36376c0.14373,0.47779 0.38759,0.91991 0.56027,1.38801c0.21351,0.57879 0.77703,2.34934 0.91618,2.90481c0.23586,0.94147 0.42694,1.89419 0.60038,2.84913c0.11182,0.61567 0.15088,1.24415 0.28314,1.85576c0.24439,1.13013 0.70821,2.20221 1.01238,3.31773c0.11369,0.41696 0.14917,0.85388 0.27824,1.26633c0.07265,0.23214 0.16492,0.47794 0.26879,0.72783c0.0036,-0.00169 0.00718,-0.00337 0.01078,-0.00504c0.81158,-0.37709 1.78848,-0.06916 2.68271,-0.10375c0.1635,0.35667 0.36514,0.70249 0.56695,1.04827c0.71762,0.40198 1.34355,0.97534 1.47937,1.71465c0.12149,0.66129 -0.21459,1.33568 -0.69667,1.89933c-0.15603,0.49411 -0.42215,0.94272 -0.76453,1.33041c0.38474,0.53605 0.82736,1.03351 1.16026,1.60293c0.353,0.6038 0.54381,1.29147 0.87976,1.90493c0.18579,0.33926 0.45969,0.62239 0.67882,0.94114c0.31705,0.46119 0.61963,0.93216 0.92945,1.39825c0.18703,0.37678 0.33247,0.77724 0.56108,1.13035c0.2912,0.4498 0.6812,0.82855 0.99043,1.26617c0.05613,0.07944 0.10894,0.16111 0.15991,0.24401c0.54755,-0.54567 1.20812,-1.09797 1.88397,-0.91584c0.31812,0.08572 0.6035,0.19656 0.85826,0.32912l0.16613,-0.04521c0,0 1.25,0 1.25,1.25c0,0.05459 -0.00238,0.1068 -0.00694,0.15672c0.32009,0.11671 0.64005,0.23546 0.96248,0.31343c-0.20871,1.22469 -0.15448,2.52474 -0.62613,3.67409c-0.08436,0.20556 -0.18528,0.40636 -0.30055,0.60008c0.156,0.17479 0.31622,0.34566 0.48209,0.51125c0.53854,0.53758 1.76972,1.57174 2.41463,2.12748c0.30734,0.26485 0.58143,0.57322 0.91966,0.79728c0.509,0.33716 1.10019,0.53807 1.60796,0.87707c0.38892,0.25966 0.6918,0.63193 1.06813,0.90953c0.54038,0.39861 1.11426,0.74979 1.67733,1.11565c0.36374,0.23634 0.72466,0.47835 1.10286,0.69079c0.3927,0.22058 0.82656,0.36622 1.20731,0.60684c1.12048,0.70811 2.08305,1.65067 3.21589,2.33883c0.54624,0.33183 1.15617,0.54703 1.71625,0.85494c0.41075,0.22581 0.78898,0.50672 1.19296,0.74443c0.79564,0.46815 1.59821,0.92991 2.34861,1.46759c1.22204,0.60649 2.46634,1.24758 3.78534,1.62133c0.48728,0.13807 1.00676,0.14687 1.48938,0.30043c0.62224,0.19798 1.19617,0.5265 1.80993,0.74936c0.47537,0.17261 0.97609,0.26827 1.45335,0.43556c0.47681,0.16713 0.92228,0.42023 1.40584,0.56664c0.59442,0.17997 2.81482,0.48083 3.22355,0.55199c0.47529,0.08275 0.94085,0.22049 1.41888,0.28553c0.58138,0.0791 1.17277,0.0669 1.75412,0.14619c0.14081,0.0192 0.28132,0.04118 0.42163,0.06483c0.14137,-0.33284 0.27183,-0.71925 0.4323,-1.07648c0.02939,-0.10566 0.06152,-0.20833 0.09613,-0.3074c0.05956,-0.17047 0.1212,-0.34963 0.18681,-0.53217c-0.01254,-0.2968 0.00375,-0.59053 0.08038,-0.87565c0.28195,-1.04915 0.4183,-2.54858 1.43736,-2.92505c1.68396,-0.6221 2.45184,0.66442 2.80444,1.97255c0.40326,0.26963 0.78228,0.58125 1.11893,0.87219c0.58542,0.50592 0.57888,1.44115 0.75899,2.19363c0.08343,0.34856 0.13153,0.6844 0.15458,1.01405c1.29241,-0.10243 2.57836,-0.36481 3.85606,-0.54709c0.09701,-0.01384 2.4433,-0.27034 2.59813,-0.28732c1.23215,-0.27343 2.47915,-0.46087 3.73829,-0.55411l0.04417,-0.50258c0.00761,-0.09895 0.02673,-0.19467 0.05604,-0.28582c-0.01856,-0.13436 -0.03738,-0.26955 -0.05662,-0.40565l0.02516,-0.08847h-0.0283v-1.75413c0,-0.65282 0.50043,-1.18875 1.1386,-1.2451c0.11248,-0.25002 0.25308,-0.48278 0.43668,-0.68705c0.65312,-0.72664 1.69592,-1.65956 2.61415,-1.32572c1.14065,0.4147 1.54877,1.90652 2.03818,3.01716c0.28301,0.64222 0.43186,1.63568 0.49795,2.63281c0.19179,-0.03771 0.38365,-0.07516 0.57567,-0.11167c0.51864,-0.09861 1.04514,-0.15868 1.55849,-0.28187c1.62944,-0.391 3.23195,-0.91574 4.78136,-1.54785c0.55219,-0.22528 1.11987,-0.4172 1.65309,-0.68428c0.39821,-0.19946 0.74302,-0.49275 1.13153,-0.71049c0.41253,-0.2312 0.83699,-0.44193 1.2688,-0.63477c0.47918,-0.214 0.98212,-0.37179 1.46178,-0.58471c1.38761,-0.61596 2.80406,-1.34255 4.10461,-2.12213c1.21096,-0.72588 2.31245,-1.6353 3.46001,-2.45432c0.37473,-0.23306 0.76839,-0.43814 1.12419,-0.69918c0.35187,-0.25815 0.64938,-0.58417 0.99255,-0.85378c0.52342,-0.41123 1.05756,-0.80908 1.59987,-1.19531c-0.27736,-0.28483 -0.58021,-0.69781 -0.86217,-1.1611c-0.19319,-0.04291 -0.38765,-0.07636 -0.58224,-0.09975c0,0 -1.23744,-0.17678 -1.06066,-1.41422c0.07387,-0.51711 0.33298,-0.78725 0.60959,-0.92654c-0.02943,-0.16394 -0.04247,-0.31426 -0.03606,-0.44586c0.04273,-0.87698 0.04252,-2.04375 0.78345,-2.51486c0.90796,-0.5773 2.19527,-0.33857 3.22767,-0.03552c0.95382,0.27999 1.68734,1.06296 2.44892,1.70183c0.27477,0.23049 0.5855,0.57338 0.8969,0.96434c0.24189,-0.198 0.48576,-0.39348 0.73417,-0.58322c0.36665,-0.28006 0.76068,-0.52562 1.10915,-0.82801c0.35409,-0.30726 0.64947,-0.67698 0.99293,-0.99608c0.99222,-0.92183 2.07881,-1.78117 2.96529,-2.81437c0.13085,-0.1525 0.25524,-0.31025 0.3749,-0.47179c-0.40846,-0.7062 -0.74131,-1.42663 -0.99673,-2.00226c-0.32142,-0.4899 -0.53209,-1.0928 -0.551,-1.79626c-0.00194,-0.07215 -0.00233,-0.1451 -0.00108,-0.21857c-0.24144,-0.75164 -0.17466,-1.51736 0.59392,-2.05579c0.05041,-0.0698 0.10446,-0.1367 0.16231,-0.20026c0.45232,-0.49694 0.90103,-0.82593 1.34143,-1.01765c0.03316,-0.04726 0.07055,-0.09493 0.11252,-0.1429c0.82312,-0.94073 1.76385,-0.11761 1.76385,-0.11761c0.16516,0.14569 0.33714,0.29325 0.51153,0.44391c0.38317,0.21426 0.74989,0.50405 1.0958,0.84069c0.11017,-0.13455 0.21627,-0.27186 0.30685,-0.41957c0.2652,-0.43252 0.45078,-0.90909 0.67617,-1.36363c0.85965,-1.71855 1.75157,-3.40206 2.57244,-5.13859c-0.77728,-0.64202 -1.3012,-1.48575 -1.2976,-2.39307c-0.14718,-0.19313 -0.26758,-0.40145 -0.35487,-0.62378c-0.3438,-0.87569 -0.87842,-2.26581 -0.11809,-2.81981c0.61822,-0.45045 1.33518,-0.58903 2.07333,-0.51006c0.37898,-0.06701 0.71648,0.05571 0.71648,0.05571c0.42049,0.15632 0.86485,0.26236 1.28221,0.42526c0.28948,-0.85753 0.50458,-1.47581 0.72602,-2.45383c0.12285,-0.54258 0.1656,-1.10196 0.3005,-1.64167c0.11298,-0.45199 0.32153,-0.87597 0.4413,-1.32621c0.11586,-0.43552 0.19843,-0.88009 0.26424,-1.32593c0.11878,-0.80464 0.14282,-1.62144 0.2434,-2.42826c-0.24493,-0.07716 -0.49466,-0.17877 -0.74818,-0.30692c-0.55602,-0.28106 -0.71541,-1.02019 -1.07311,-1.53029l0.02991,0.07517c0,0 -0.88385,-0.88392 0.00006,-1.76777c0.09028,-0.09027 0.18054,-0.1621 0.26987,-0.21831c-0.37544,-0.96669 0.0537,-1.90084 0.81851,-2.57226c0.00527,-0.08182 0.01796,-0.16873 0.03926,-0.26103c0.28107,-1.21799 1.49906,-0.93692 1.49906,-0.93692c0.1371,0.03323 0.28064,0.07207 0.4291,0.11634c0.03057,-0.326 0.06222,-0.65102 0.0982,-0.97373c0.10032,-0.60255 0.19112,-1.20676 0.30095,-1.80764c0.08317,-0.45503 0.23158,-0.89935 0.27795,-1.3596c0.04474,-0.44396 -0.00631,-0.8924 -0.00608,-1.33861c0.00023,-0.4418 0.05315,-0.88595 0.00746,-1.32538c-0.10627,-1.02209 -0.54414,-1.98504 -0.72079,-2.99733c-0.09346,-0.53557 -0.0683,-1.08651 -0.14882,-1.62418c-0.06932,-0.46288 -0.24918,-0.90647 -0.29981,-1.37177c-0.09258,-0.85077 0.15303,-1.72383 0.00868,-2.56736c-0.07034,-0.41103 -0.29654,-0.78069 -0.40932,-1.18216c-0.05556,-0.19776 -0.09572,-0.39939 -0.13471,-0.60131c-0.16006,-0.17844 -0.23712,-0.34797 -0.23712,-0.34797zM330.76535,234.02594c0.0143,-0.00466 0.02859,-0.00924 0.04284,-0.01372c-0.01013,-0.03555 -0.02071,-0.07098 -0.0318,-0.10627c-0.02201,-0.07004 -0.01669,0.00838 -0.01105,0.11999zM372.26061,215.57007c0.14802,0.16027 0.28403,0.26538 0.39759,0.28758l-0.36929,-0.33236c-0.00944,0.01493 -0.01887,0.02985 -0.0283,0.04479zM381.94234,153.345c0.0082,0.06835 0.01444,0.13712 0.01877,0.20616l0.26945,0.87973c-0.00085,-0.35724 -0.10715,-0.72901 -0.28822,-1.0859z" fill="#00ff2b" stroke="none" stroke-width="0.5"/><path d="M132.5,352.54601v-345.09202h375v345.09202z" fill="none" stroke="#000000" stroke-width="0"/></g></g></svg>