<svg version="1.1" xmlns="http://www.w3.org/2000/svg" xmlns:xlink="http://www.w3.org/1999/xlink" width="375" height="345.09202" viewBox="0,0,375,345.09202"><g transform="translate(-132.5,-7.45399)"><g stroke-miterlimit="10"><path d="M321.68827,177.26635c0.01239,0.00986 0.0246,0.01989 0.03664,0.0301c1.28895,0.61342 2.2603,2.21054 1.87509,3.55546c-0.28938,1.01033 -0.96213,2.1839 -1.94085,2.5435c-0.48792,0.55978 -1.24139,1.05509 -1.96185,1.1203c-0.38292,0.35179 -0.97127,0.49157 -1.8641,0.24832c-0.99889,-0.27213 -1.38866,-1.67458 -1.53635,-2.69927c-0.10252,-0.71128 0.50707,-1.76594 1.27868,-2.54439c0.1444,-0.76236 0.36072,-1.5057 0.51317,-2.12299l2.22643,-1.08089c0,0 1.14787,-0.14348 1.37314,0.94986z" fill="#00ff2b" stroke="none" stroke-width="0.5"/><path d="M295.8858,116.44509c-0.65801,0.27069 -1.31615,0.54804 -1.96577,0.3662c-0.49767,-0.13931 0.28749,-1.22284 -0.11576,-1.54606c-0.40897,-0.32782 -1.32966,0.67468 -1.5592,0.20348c-0.46538,-0.95533 0.07079,-2.12413 0.10619,-3.1862c0,0 0.26191,-1.22225 1.48417,-0.96034c0.66315,0.1421 0.8894,0.56691 0.95763,0.92582l1.3319,-0.074c0.02638,-0.00166 0.05297,-0.0025 0.07976,-0.0025c0.56486,0 1.04222,0.37468 1.1971,0.88906c0.60807,0.08462 1.07614,0.60665 1.07614,1.23801c0,0.41416 -0.20141,0.78127 -0.51164,1.00873l-1.15778,0.86834l-0.03681,-0.04907c-0.04987,0.01298 -0.09976,0.0272 -0.14968,0.04247c-0.15944,0.12252 -0.33987,0.21205 -0.54899,0.25651c-0.0642,0.01365 -0.12656,0.01994 -0.18726,0.01958z" fill="#00ff2b" stroke="none" stroke-width="0.5"/><path d="M318.99761,107.53111c0.95658,-0.23913 1.34723,0.46494 1.46956,0.77298c0.03492,0.00629 0.06993,0.01249 0.10498,0.01867c0.20803,-0.08037 1.15314,-0.37837 1.61767,0.6281c0.01318,0.02856 0.02532,0.05674 0.03644,0.08453c0.47301,0.17815 0.80949,0.63487 0.80949,1.17018c0,0.34518 -0.13991,0.65768 -0.36611,0.88388v0l-1.02323,1.02324l-0.24167,-0.24166c0.04285,0.06523 0.0857,0.13045 0.12855,0.19568l-0.05732,0.01477l0.01309,0.01833l-1.01141,0.72243c-0.20689,0.1517 -0.46218,0.24129 -0.73838,0.24129c-0.68084,0 -1.23454,-0.54432 -1.24968,-1.22152c-0.1135,0.0339 -0.23375,0.0521 -0.35827,0.0521c-0.2207,0 -0.42804,-0.0572 -0.60801,-0.15758c-0.6102,-0.08271 -1.08053,-0.60573 -1.08053,-1.2386c0,-0.26266 0.08101,-0.50641 0.21942,-0.70761l0.85684,-1.28524c0.17339,-0.26847 0.44687,-0.46625 0.76765,-0.54054c0.14141,-0.18576 0.36421,-0.34676 0.7109,-0.43343z" fill="#00ff2b" stroke="none" stroke-width="0.5"/><path d="M344.44256,115.29582l1.33542,1.02596c-0.96701,0.7129 -2.52734,2.11416 -3.89783,1.65562c-1.74973,-0.58543 -2.18212,-1.10876 -2.03887,-1.55374c-0.65757,-0.03655 -1.17951,-0.58135 -1.17951,-1.24805c0,-0.32069 0.12076,-0.61317 0.31929,-0.83445l1.16586,-1.3116c0,0 0.2848,-0.3204 0.70847,-0.41915l0.6575,-0.65751l0.38187,0.38186l1.143,-0.57113c0.01171,0.42532 0.02342,0.85065 0.03512,1.27597l0.52118,0.15635l-0.14065,0.46885c0.03074,0.10852 0.04719,0.22303 0.04719,0.34139c0,0.18033 -0.03819,0.35173 -0.10691,0.50657l-0.17028,0.40868c0.18238,-0.1861 0.36848,-0.27915 0.36848,-0.27915l0.1144,0.08789c0.1932,-0.13317 0.3864,-0.26634 0.57169,-0.4084z" fill="#00ff2b" stroke="none" stroke-width="0.5"/><path d="M362.14872,129.4786c-0.06096,0.01227 -0.12192,0.02453 -0.18288,0.0368l0.03257,0.05973l-1.5876,0.86596c-0.18248,0.10419 -0.39374,0.16373 -0.61891,0.16373c-0.69036,0 -1.25,-0.55964 -1.25,-1.25c0,-0.30822 0.11156,-0.59039 0.2965,-0.80833l0.85289,-1.01925l0.00227,0.00189l0.00251,-0.00756c0.0034,-0.00034 0.0068,-0.00068 0.0102,-0.00102l-0.0054,-0.00462l0.02298,-0.0268c0.09946,-0.372 0.35359,-0.62614 0.35359,-0.62614l1.3156,-1.3156l0.50854,0.50854l1.22465,-0.54181c-0.11307,0.26909 -0.22614,0.53818 -0.33921,0.80728l0.50041,-0.2707c0.04928,0.41047 0.09855,0.82095 0.14783,1.23143l0.51319,0.08553l-0.29235,1.75413l-0.97071,-0.16179l-0.40164,0.40164l-0.13611,-0.13612z" fill="#00ff2b" stroke="none" stroke-width="0.5"/><path d="M376.02442,144.40428c0.41041,0.4104 0.43969,0.82082 0.3533,1.14274c0.00573,0.03982 0.00959,0.08024 0.01148,0.12118c1.94889,-0.27717 3.74515,0.64634 1.61134,3.78298c-1.7923,2.63462 -2.83077,1.47719 -3.43719,-0.23498c-0.14119,0.04496 -0.29057,0.08597 -0.44822,0.12349l0.07131,0.16046l-1.29077,0.57368c-0.16154,0.07618 -0.34205,0.11877 -0.53249,0.11877c-0.69036,0 -1.25,-0.55964 -1.25,-1.25c0,-0.31369 0.11556,-0.60041 0.30642,-0.81988l1.13558,-1.32148l0.00066,0.00056l0.00106,-0.00256c0.00113,-0.00018 0.00227,-0.00036 0.0034,-0.00054l-0.00168,-0.00145l0.15156,-0.17488c-0.13633,-0.76555 0.59846,-1.22479 0.59846,-1.22479l0.75458,-0.47161l0.19346,-0.5217c0,0 0.88388,-0.88388 1.76776,0z" fill="#00ff2b" stroke="none" stroke-width="0.5"/><path d="M385.99443,168.30641c0.6625,1.06 -0.3975,1.7225 -0.3975,1.7225l-1.35826,0.82767c-0.76605,0.05464 -1.82333,0.73531 -2.36244,0.30211c-0.13964,0.05391 -0.2914,0.08348 -0.45006,0.08348c-0.69036,0 -1.25,-0.55964 -1.25,-1.25c0,-0.12857 0.01941,-0.25261 0.05546,-0.36934c-0.20734,-0.05539 -0.42388,-0.18281 -0.6316,-0.42514c-0.81349,-0.94907 0.13558,-1.76256 0.13558,-1.76256c0.72346,-0.37754 1.41778,-1.44808 2.1704,-1.13263c0.39944,0.16742 0.62182,0.52686 0.7846,0.95097c0.16256,0.07684 0.30589,0.18771 0.4208,0.32341l0.59697,0.69646l0.56355,-0.36442c0,0 1.05999,-0.6625 1.72249,0.3975z" fill="#00ff2b" stroke="none" stroke-width="0.5"/><path d="M381.39271,189.85799c0.08859,-0.36685 0.3468,-0.82743 1.07851,-0.9006c0.42336,-0.04233 0.71702,0.07384 0.92024,0.24552c0.30059,0.13244 0.53913,0.37983 0.65994,0.68649c0.23371,0.22713 0.37891,0.54485 0.37891,0.89649c0,0.10251 -0.01234,0.20214 -0.03562,0.29748l-0.28116,1.26525c-0.11471,0.57199 -0.61982,1.00288 -1.22557,1.00288c-0.36377,0 -0.69126,-0.15539 -0.91969,-0.40342c-0.79361,-0.17467 -1.58385,-0.58568 -1.9893,-1.2453c-0.3887,-0.63237 0.27168,-1.45949 0.40753,-2.18923z" fill="#00ff2b" stroke="none" stroke-width="0.5"/><path d="M377.05728,211.35366c-0.02341,0.07022 -0.04958,0.13489 -0.07812,0.19443c0.09087,0.17327 0.14227,0.37048 0.14227,0.5797c0,0.44076 -0.22813,0.82825 -0.57276,1.05082l-0.62762,0.41841l0.00772,0.04375c0.01525,0.07803 0.02324,0.15865 0.02324,0.24115c0,0.69036 -0.55964,1.25 -1.25,1.25c-0.62153,0 -1.13711,-0.45361 -1.23374,-1.04784l-0.09837,-0.54103c-0.07612,-0.03855 -0.15142,-0.08641 -0.22495,-0.14256c-0.11442,0.04116 -0.22883,0.08231 -0.34325,0.12347c0,0 -1.25,0 -1.25,-1.25c0,-0.63612 0.32371,-0.94852 0.64168,-1.10194c0.03003,-0.57304 0.2512,-1.16257 0.75834,-1.669c0.51469,-0.51397 1.45378,-0.05291 2.18068,-0.07936l1.13431,0.34886c0,0 1.18586,0.39528 0.79057,1.58113z" fill="#00ff2b" stroke="none" stroke-width="0.5"/><path d="M359.47856,227.2358c0.30363,-0.70702 0.51654,-1.54339 1.20058,-1.70799c2.6289,-0.63259 6.04597,6.84974 1.47881,6.69479c-0.27137,-0.00921 -0.51106,-0.09686 -0.72987,-0.23623l-0.05056,0.09101l-1.29377,-0.71876c-0.38494,-0.20433 -0.65037,-0.60395 -0.6642,-1.06678c-0.26366,-0.35521 -0.52731,-0.71042 -0.79098,-1.06563c0,0 -0.72654,-1.01717 0.29062,-1.74372c0.19862,-0.14188 0.38616,-0.21726 0.55938,-0.24671z" fill="#00ff2b" stroke="none" stroke-width="0.5"/><path d="M345.19327,241.09418c1,0.75 0.25,1.75 0.25,1.75l-0.05921,0.04045c-0.05442,0.32865 -0.23705,0.61401 -0.49478,0.80299l-0.71861,0.53896l-0.09018,0.90178c-0.05599,0.63854 -0.5921,1.13937 -1.24517,1.13937c-0.55469,0 -1.02498,-0.36129 -1.18841,-0.86138l-0.58862,-1.66774c-0.3703,-0.09038 -0.93474,-0.36591 -0.93474,-1.20589c0,-0.69171 0.38278,-1.00065 0.72469,-1.13863l0.00911,-0.11688c0.04423,-0.6502 0.58566,-1.16392 1.24708,-1.16392c0.49901,0 0.92972,0.29239 1.13015,0.71521l0.2392,0.47842c0.14999,-0.17439 0.8375,-0.87423 1.71949,-0.21274z" fill="#00ff2b" stroke="none" stroke-width="0.5"/><path d="M321.08486,246.44024c0.27622,-0.12301 0.56322,-0.17913 0.84756,-0.17884c0.06216,-0.00608 0.42375,-0.03247 0.76411,0.13463c1.20568,0.42615 2.10872,1.79815 1.48746,3.16297c-0.15932,1.43326 -1.47446,1.90353 -2.67867,1.65964c-1.18289,0.09257 -2.55096,-0.12951 -2.96678,-0.85213c-0.08522,-0.1481 -0.15494,-0.28997 -0.21055,-0.42606c-0.17289,-0.14665 -0.31911,-0.36937 -0.39364,-0.70476c-0.21458,-0.96564 0.5048,-1.33692 0.81434,-1.44982c0.42038,-0.44358 0.98555,-0.80013 1.43347,-1.1541z" fill="#00ff2b" stroke="none" stroke-width="0.5"/><path d="M298.93202,249.46503c-0.64556,0.98772 -1.74975,1.50128 -3.11834,0.77435c-0.80962,-0.43003 -1.19232,-1.07926 -1.27233,-1.78223c-0.02998,0.00215 -0.06024,0.00324 -0.09076,0.00324c-0.69036,0 -1.25,-0.55964 -1.25,-1.25c0,-0.69036 0.55964,-1.25 1.25,-1.25c0.19257,0 0.37496,0.04354 0.53788,0.12132c-0.02172,-0.09978 -0.03376,-0.21041 -0.03376,-0.33309c0,-1.25 1.25,-1.25 1.25,-1.25c0.76711,0.06998 1.72078,-0.29635 2.30132,0.20993c0.37291,0.32521 0.63968,0.73463 0.81121,1.18532c0.08468,0.12912 0.16652,0.27046 0.24503,0.42465c0.51341,1.00828 0.14021,2.28909 -0.63026,3.1465z" fill="#00ff2b" stroke="none" stroke-width="0.5"/><path d="M274.85748,239.45164c-0.31633,-0.8699 0.24575,-1.32987 0.55876,-1.51002l-0.00549,-0.00879l0.07975,-0.04985c-0.1176,-0.16123 -0.20185,-0.3313 -0.2369,-0.51442c-0.12769,-0.00867 -0.25542,-0.01629 -0.38266,-0.0253c0,0 -1.24236,-0.13804 -1.10432,-1.38039c0.13804,-1.24235 1.38039,-1.10432 1.38039,-1.10432c0.59155,0.08051 1.16696,0.27687 1.71221,0.5458c0.49795,-0.17755 1.01259,-0.19607 1.38691,0.04178c1.05057,0.66757 0.27858,2.47382 0.41787,3.71073l-2.2046,1.04233c0,0 -1.17474,0.42718 -1.60192,-0.74756z" fill="#00ff2b" stroke="none" stroke-width="0.5"/><path d="M257.63955,219.97c0,0 -1.11803,-0.55902 -0.55901,-1.67705c0.55902,-1.11803 1.67705,-0.55901 1.67705,-0.55901c0.15105,0.10546 0.3021,0.21091 0.45315,0.31636c0.0515,-0.00646 0.10399,-0.0098 0.15725,-0.0098c0.31318,0 0.59945,0.11517 0.81878,0.30547l1.01795,0.87252l-0.12005,0.14006c0.12855,0.08974 0.2571,0.1795 0.38565,0.26924l-0.10492,0.10107c0.1185,0.1451 0.21278,0.30775 0.27461,0.49392c0.21089,0.63506 -0.73785,1.02337 -1.32285,1.48908c-0.22925,0.26727 -0.56943,0.4366 -0.94917,0.4366c-0.69036,0 -1.25,-0.55964 -1.25,-1.25v-0.87554c-0.15948,-0.01764 -0.31896,-0.03528 -0.47844,-0.05292z" fill="#00ff2b" stroke="none" stroke-width="0.5"/><path d="M250.67513,193.96504c0.34124,0.21327 0.50396,0.46774 0.56775,0.71477c0.11109,-0.19076 0.29798,-0.37004 0.60092,-0.50468c1.14227,-0.50768 1.64993,0.63459 1.64993,0.63459c0.89211,2.63202 0.26858,3.46494 -1.7083,3.71793c-0.10032,0.11045 -0.21238,0.22261 -0.33696,0.33639c-1.94896,1.78012 -2.74426,1.14322 -3.07881,-0.01226c-0.7857,-0.53858 -1.59507,-1.51589 -1.32431,-2.37393c0.16356,-0.51831 0.65595,-0.76246 1.22125,-0.94582l0.68602,-1.16949c0,0 0.66249,-1.06 1.72249,-0.3975z" fill="#00ff2b" stroke="none" stroke-width="0.5"/><path d="M247.95138,169.85284c0.0949,-0.27314 0.30996,-0.54397 0.75701,-0.70653c1.10385,-0.4014 1.54764,0.6116 1.59718,0.73533c0.36014,0.1198 0.81088,0.41968 0.81088,1.1703c0,0.26788 -0.05741,0.47835 -0.14762,0.64372c0.05708,0.28618 0.03823,0.55623 -0.13144,0.79419c-1.38631,1.94443 -5.55695,1.44075 -4.21173,-2.11905c0.17927,-0.4744 0.73138,-0.52043 1.3257,-0.51795z" fill="#00ff2b" stroke="none" stroke-width="0.5"/><path d="M261.45581,147.66087c-0.19763,0.32116 -0.43253,0.4858 -0.66422,0.55915c-0.02792,0.65118 -0.34101,1.2372 -1.07013,1.6101c-1.92774,0.98593 -2.86795,0.07149 -3.41546,-1.17203l-0.00261,0.00058c-0.09534,0.02328 -0.19496,0.03561 -0.29747,0.03561c-0.38065,0 -0.72156,-0.17015 -0.95083,-0.43853h-0.07241c-0.69036,0 -1.25,-0.55964 -1.25,-1.25c0,-0.32069 0.12077,-0.61317 0.3193,-0.83446l1.16586,-1.31159l0.02126,0.01889c0.12769,-0.1332 0.27153,-0.24972 0.43676,-0.34417c0.08633,-0.04935 0.17511,-0.08883 0.26597,-0.11985l0.03854,-0.11561c0.15708,-0.51078 0.63267,-0.88206 1.19497,-0.88206c0.66861,0 1.21462,0.52495 1.24835,1.18517c0.15025,0.02196 0.29897,0.03766 0.44504,0.04271l2.17764,1.29639c0,0 1.06457,0.65512 0.40945,1.7197z" fill="#00ff2b" stroke="none" stroke-width="0.5"/><path d="M273.44426,128.69077c-0.07087,-0.02026 -0.13796,-0.04645 -0.20174,-0.07782c-0.22454,0.21517 -0.52919,0.34737 -0.86473,0.34737c-0.69036,0 -1.25,-0.55964 -1.25,-1.25c0,-0.20995 0.05175,-0.4078 0.14321,-0.58151l0.34253,-0.68505l-0.56808,-1.84626c-0.04142,-0.12428 -0.06384,-0.25724 -0.06384,-0.39544c0,-0.69036 0.55964,-1.25 1.25,-1.25c0.19045,0 0.37095,0.04259 0.5325,0.11876l1.29077,0.57368l-0.19021,0.42798c0.61144,0.32103 1.14793,0.74167 1.51728,1.29718l0.2021,0.45226l0.80021,0.91452c0.19494,0.22046 0.31327,0.51026 0.31327,0.82769c0,0.69036 -0.55964,1.25 -1.25,1.25h-1.46177v-0.05267c-0.18158,0.00148 -0.36219,-0.01944 -0.54148,-0.0707z" fill="#00ff2b" stroke="none" stroke-width="0.5"/><path d="M132.5,352.54601v-345.09202h375v345.09202z" fill="none" stroke="#000000" stroke-width="0"/></g></g></svg>