<svg version="1.1" xmlns="http://www.w3.org/2000/svg" xmlns:xlink="http://www.w3.org/1999/xlink" width="375" height="345.09202" viewBox="0,0,375,345.09202"><g transform="translate(-132.5,-7.45399)"><g stroke-miterlimit="10"><path d="M314.83654,169.20664c0.17992,-0.08789 0.35965,-0.1761 0.53005,-0.27688c0.46616,-0.27571 0.88171,-0.65883 1.3939,-0.83484c0.52666,-0.18099 1.1011,-0.17992 1.65698,-0.2136c1.27938,-0.0775 2.28683,-0.03324 3.51758,0.3492c0.50023,0.15544 2.16812,0.97713 2.68946,1.25504c1.28815,0.68665 1.78843,0.91099 2.81838,2.00978c0.93642,0.99901 1.09517,1.55248 1.76813,2.7c0.25202,0.42974 0.57507,0.82001 0.78503,1.27179c0.22647,0.48732 0.34386,1.01826 0.5158,1.52738c0.26191,1.32445 0.48519,1.88716 0.32677,3.2346c-0.18387,1.56398 -0.38669,1.7644 -1.22671,3.04347c-0.45202,0.68828 -1.40724,1.97404 -1.99158,2.45692c-0.5002,0.41336 -1.09513,0.69775 -1.6619,1.01372c-1.27778,0.71236 -1.41034,0.74091 -2.85578,1.00982c-0.62417,0.11611 -2.85514,0.46165 -3.59969,0.45999c-2.26848,-0.00504 -4.44235,-0.92363 -6.3448,-2.08303c-1.27166,-0.77497 -2.89484,-1.71514 -3.64448,-3.06794c-0.34762,-0.6273 -0.59822,-1.31785 -0.73643,-2.02158c-0.04206,-0.21413 -0.0082,-3.16022 -0.00571,-3.46812c0.86172,-2.93977 2.07887,-4.83044 4.10825,-7.0865l0.69973,-0.84109c0,0 0.53598,-0.64317 1.25702,-0.43813zM311.24513,178.14143c-0.01089,1.2476 -0.20928,2.51893 0.42722,3.65961c0.34481,0.61795 0.97422,0.97631 1.53102,1.3559c0.416,0.28361 0.82704,0.57542 1.25629,0.83855c0.87621,0.53713 1.82096,1.01035 2.79641,1.33738c1.17709,0.39463 2.34597,0.40576 3.55826,0.24394c0.25597,-0.03417 2.44227,-0.34211 2.95497,-0.5226c0.34701,-0.12216 2.08696,-1.1111 2.24779,-1.24293c0.33474,-0.27437 0.57717,-0.64589 0.84473,-0.98609c0.68579,-0.87195 1.3771,-1.73248 1.49174,-2.86888c0.09949,-0.98622 -0.05526,-1.32148 -0.25795,-2.32013c-0.12041,-0.36794 -0.19425,-0.75455 -0.36124,-1.10382c-0.18169,-0.37998 -0.46265,-0.70434 -0.67674,-1.06705c-0.55374,-0.93815 -0.7146,-1.47981 -1.4478,-2.27003c-0.76514,-0.82464 -1.16173,-0.97859 -2.15165,-1.49848c-0.35063,-0.18415 -1.90805,-0.96364 -2.28055,-1.0838c-0.94941,-0.30627 -1.62472,-0.27011 -2.62189,-0.23551c-0.3256,0.0113 -0.66842,-0.03368 -0.9742,0.07876c-0.35478,0.13045 -0.61849,0.43639 -0.94497,0.62692c-0.3528,0.20589 -0.78641,0.28696 -1.08975,0.56054c-0.1632,0.14718 -1.11129,2.08673 -1.11311,2.08965c-0.25312,0.4053 -0.61897,0.73392 -0.86241,1.1451c-0.46513,0.78559 -0.73432,1.67174 -1.1051,2.50602c0,0 -0.37965,0.85424 -1.22105,0.75695z" fill="#00ff2b" stroke="none" stroke-width="0.5"/><path d="M320.3869,176.65005c0.69036,0 1.25,0.55964 1.25,1.25c0,0.45931 -0.24773,0.86076 -0.61686,1.07802c0.00836,0.08361 0.01672,0.16722 0.02508,0.25083l0.1436,1.29243c0.00637,0.05113 0.00966,0.10323 0.00966,0.15609c0,0.69036 -0.55964,1.25 -1.25,1.25c-0.31317,0 -0.59945,-0.11516 -0.81878,-0.30546l-1.01795,-0.87252l-0.25302,-1.83696c0,0 0.13052,-0.52209 0.56285,-0.7955c-0.00308,-0.03085 -0.00617,-0.06171 -0.00926,-0.09256c0,0 -0.12437,-1.2438 1.11942,-1.36818c0.20393,-0.0204 0.37777,-0.00401 0.52589,0.03764c0.10494,-0.02859 0.21537,-0.04385 0.32937,-0.04385z" fill="#00ff2b" stroke="none" stroke-width="0.5"/><path d="M312.49332,125.04941c1.25,0 1.25,1.25 1.25,1.25v1.16942c-0.00127,1.77722 -0.14722,3.52777 -0.14698,5.30727c-0.27745,3.85586 -0.22055,7.81359 0.30992,11.65074c0.11322,0.81895 0.2833,1.62914 0.40825,2.44638c0.18396,1.20314 0.34603,2.89703 0.4472,4.02005c0.18155,2.01515 0.33062,4.01397 0.44149,6.03469c0.00136,0.02476 0.24651,4.03215 0.28181,4.27812c0.09695,0.67534 0.31016,1.32943 0.43118,2.00088c0.18917,1.04953 0.36415,2.10199 0.51376,3.15766c0.29551,0.57029 0.60506,1.13302 0.93584,1.68313c0,0 0.64312,1.07187 -0.42875,1.71499c-0.04269,0.02561 -0.08469,0.0485 -0.126,0.06885c-0.00124,0.26035 -0.08093,1.19262 -1.15214,1.27502c-1.24632,0.09587 -1.34219,-1.15045 -1.34219,-1.15045c-0.07009,-0.92052 -0.17105,-1.83855 -0.29371,-2.75407c-0.57935,-1.22924 -1.82382,-3.8762 -1.8619,-3.9559c-0.58085,-1.21575 -1.16379,-2.43195 -1.67883,-3.677c-0.31649,-0.76509 -0.58301,-1.55028 -0.90164,-2.31449c-0.17423,-0.41788 -0.40173,-0.81217 -0.57619,-1.22995c-0.26243,-0.62849 -0.47184,-1.27823 -0.7337,-1.90696c-0.23185,-0.55669 -0.53496,-1.0832 -0.7468,-1.64781c-0.2301,-0.6133 -0.34311,-1.26661 -0.5763,-1.87875c-0.15703,-0.41221 -0.44427,-0.7681 -0.59054,-1.18424c-0.11924,-0.33925 -0.82354,-2.95047 -1.05763,-3.75638c-0.14629,-0.50364 -0.32953,-0.99716 -0.45083,-1.5074c-0.1947,-0.81897 -0.31077,-1.65503 -0.49618,-2.47615c-0.15987,-0.70802 -0.39826,-1.39769 -0.53933,-2.10969c-0.23904,-1.20648 -0.44597,-3.06107 -0.60203,-4.35c-0.25294,-2.53411 -0.29989,-5.04865 -0.29991,-7.59236v-1.31559c0,0 0,-1.25 1.25,-1.25c1.25,0 1.25,1.25 1.25,1.25v1.31559c-0.00002,2.45182 0.04005,4.8752 0.28479,7.31776c0.14169,1.17089 0.35252,3.0483 0.56739,4.12828c0.1377,0.69208 0.37115,1.36209 0.52658,2.05041c0.18169,0.80462 0.2942,1.6241 0.4844,2.42675c0.11367,0.47968 0.28843,0.94284 0.42623,1.41615c0.16482,0.56614 0.96768,3.49238 0.98886,3.55249c0.14309,0.40605 0.42562,0.75227 0.57888,1.15459c0.23868,0.62651 0.35781,1.29408 0.59312,1.92186c0.20162,0.53792 0.49394,1.03785 0.71498,1.56809c0.2602,0.6242 0.46752,1.26961 0.72808,1.89366c0.17372,0.41607 0.40046,0.80866 0.57398,1.22481c0.32277,0.7741 0.59385,1.56902 0.91413,2.34416c0.00468,0.01132 0.00937,0.02265 0.01405,0.03397c-0.07595,-1.35018 -0.12039,-2.70231 -0.2167,-4.05119c-0.08303,-1.16298 -0.21412,-2.32202 -0.31854,-3.48328c-0.09452,-1.05116 -0.25444,-2.72848 -0.42988,-3.87354c-0.12721,-0.83024 -0.29923,-1.6535 -0.41375,-2.48559c-0.54703,-3.97476 -0.61729,-8.07349 -0.32986,-12.06807c0.00023,-1.74959 0.14672,-3.4707 0.14538,-5.2175v-1.16942c0,0 0,-1.25 1.25,-1.25z" fill="#00ff2b" stroke="none" stroke-width="0.5"/><path d="M326.96489,171.0372c-1.25,0 -1.25,-1.25 -1.25,-1.25l0.00788,-0.0844c-0.00987,-0.08891 -0.01016,-0.17421 -0.00516,-0.25186c-0.51757,0.69137 -1.03433,1.38337 -1.53616,2.08605c0,0 -0.72655,1.01717 -1.74372,0.29062c-0.32466,-0.2319 -0.47168,-0.4934 -0.52137,-0.74199c-0.16952,0.1952 -0.4328,0.35179 -0.84094,0.3858c-1.24568,0.1038 -1.34948,-1.14188 -1.34948,-1.14188c-0.29167,-3.50052 -0.91065,-6.99419 -0.43928,-10.51337c0.04437,-0.33127 0.67006,-3.30995 0.94518,-4.04069c0.29748,-0.79013 0.7129,-1.53161 1.02673,-2.31539c0.17106,-0.4272 0.28195,-0.87613 0.42618,-1.31312c1.34308,-4.06922 2.50544,-8.26016 4.43402,-12.10732c0.38088,-0.75978 0.84807,-1.47323 1.26013,-2.21657c0.34544,-0.62314 0.63432,-1.27857 1.01221,-1.88257c0.33925,-0.54225 0.75603,-1.03195 1.13404,-1.54792c0.17953,-0.45648 0.35906,-0.91297 0.53859,-1.36946l0.75315,-1.50872c0,0 0.55901,-1.11803 1.67705,-0.55902c1.11804,0.55901 0.55902,1.67705 0.55902,1.67705l-0.70862,1.41483c-0.21028,0.51802 -0.42056,1.03606 -0.63083,1.55408c-0.4016,0.55599 -0.84102,1.08653 -1.20479,1.66798c-0.35334,0.56476 -0.61885,1.18006 -0.94164,1.76282c-0.39574,0.71448 -0.84726,1.39862 -1.21375,2.12854c-1.87514,3.73472 -2.9873,7.8188 -4.29423,11.76888c-0.15717,0.47503 -0.28102,0.96205 -0.46668,1.42669c-0.30516,0.76368 -0.71027,1.4855 -1.00396,2.25367c-0.21985,0.57505 -0.81275,3.45463 -0.82396,3.53826c-0.09135,0.68146 -0.18577,3.47591 -0.13002,4.29895c0.05183,0.76506 0.20266,1.52029 0.28755,2.28239c0.06356,0.57056 0.22622,2.55842 0.28514,3.27044c1.37329,-1.91532 2.85841,-3.75309 4.1521,-5.72382c0.46209,-0.70391 0.86608,-1.44536 1.33958,-2.14164c0.36401,-0.53527 0.79765,-1.02038 1.17054,-1.5495c0.48608,-0.68974 0.9089,-1.42318 1.40529,-2.10554c0.29456,-0.40492 0.65627,-0.75704 0.9643,-1.15181c0.72157,-0.92477 1.33558,-1.92875 2.01681,-2.88362c0.48278,-0.67672 0.99114,-1.33494 1.47485,-2.01099c0.26538,-0.37091 0.47528,-0.78329 0.77215,-1.1295c0.74383,-0.86743 1.90426,-1.86481 2.76803,-2.62632c0.40663,-0.3585 0.79728,-0.73664 1.2251,-1.06956c0.23163,-0.18024 2.67508,-1.86066 2.94982,-2.06652c0.67339,-0.50455 1.30259,-1.06724 1.98547,-1.55886c0.54951,-0.3956 1.13846,-0.7333 1.7077,-1.09995c2.67874,-1.94921 5.36664,-3.89416 7.96918,-5.94123l1.45759,-1.16609c0,0 0.97609,-0.78087 1.75696,0.19521c0.78087,0.97609 -0.19521,1.75696 -0.19521,1.75696l-1.46596,1.17275c-2.64995,2.08175 -5.38317,4.06296 -8.11034,6.04532c-0.55653,0.35778 -1.13269,0.68673 -1.6696,1.07334c-0.66967,0.48222 -1.28563,1.03551 -1.94611,1.53025c-0.94326,0.70656 -1.96681,1.30312 -2.89728,2.02644c-0.38988,0.30308 -0.74358,0.65004 -1.11372,0.97692c-0.68344,0.60358 -1.89714,1.64585 -2.49438,2.34372c-0.25526,0.29827 -0.42843,0.65827 -0.65635,0.97792c-0.48498,0.68018 -0.9968,1.34097 -1.48197,2.02103c-0.07383,0.1035 -1.71313,2.49733 -2.07615,2.96348c-0.29942,0.38447 -0.65331,0.72561 -0.93988,1.11974c-0.4839,0.66554 -0.89434,1.38201 -1.36821,2.05472c-0.36573,0.51919 -0.79239,0.99422 -1.14948,1.51938c-0.35575,0.52321 -0.67041,1.0731 -1.00215,1.61199c0.62001,-0.52839 1.14159,-0.96467 1.20464,-1.01826c1.56074,-1.32667 3.14035,-2.62867 4.72573,-3.92579c1.37878,-1.12809 2.83914,-2.18816 4.17665,-3.36342c1.2554,-1.1031 2.40934,-2.3197 3.68325,-3.40137c0.54765,-0.465 3.37661,-2.66237 3.95277,-3.12254c1.95531,-1.56169 3.87313,-3.17544 5.89551,-4.65182c1.06912,-0.78048 2.93922,-2.00949 4.0233,-2.73224c1.30228,-0.86802 2.32838,-1.58824 3.43028,-2.69622l0.71861,-0.55465c0,0 1,-0.74999 1.75,0.25002c0.74999,1 -0.25002,1.75 -0.25002,1.75l-0.45081,0.3224c-1.21762,1.21174 -2.38412,2.05693 -3.8113,3.00858c-1.02763,0.68505 -2.91489,1.92579 -3.93785,2.67266c-1.99235,1.45463 -3.88102,3.04603 -5.80739,4.58458c-0.46967,0.37511 -3.42014,2.67186 -3.89509,3.07504c-1.26705,1.07557 -2.41339,2.28691 -3.66235,3.38343c-1.35637,1.19081 -2.83477,2.26688 -4.23246,3.41045c-1.57328,1.28723 -3.14083,2.57925 -4.68971,3.89574c-0.63144,0.53671 -1.26206,1.07439 -1.89435,1.6101c-0.36572,0.30987 -0.82902,0.53106 -1.10016,0.92621c-0.14479,0.43435 -0.28958,0.86871 -0.43436,1.30306l0.06414,-0.10294c0,0 0,1.25 -1.25,1.25z" fill="#00ff2b" stroke="none" stroke-width="0.5"/><path d="M370.46017,164.08629c0,1.25 -1.25,1.25 -1.25,1.25l0.00595,-0.03611c-3.48117,0.84805 -7.22017,0.88059 -10.79186,1.05895c-0.97269,0.00025 -1.94604,-0.03635 -2.91805,-0.00014c-0.8292,0.03089 -1.65585,0.11438 -2.48501,0.14617c-0.42287,0.01621 -0.84783,-0.03746 -1.26954,-0.00221c-0.71184,0.05951 -1.41505,0.19696 -2.12382,0.28588c-1.81194,0.22733 -3.56432,0.5321 -5.30916,1.11385c-1.8217,0.60739 -2.50673,1.09152 -4.28592,1.86221c-0.73466,0.31824 -1.48559,0.59753 -2.2299,0.89248c-2.65466,1.05196 -5.21994,2.33418 -7.83527,3.48349c-0.38336,0.16847 -0.757,0.35854 -1.14065,0.52634c-0.17435,0.07625 -0.32888,0.14522 -0.46463,0.20651c0.32352,0.19885 0.78878,0.63986 0.51933,1.44822c-0.39529,1.18586 -1.58114,0.79057 -1.58114,0.79057c-0.71058,-0.43876 -2.14008,-0.48119 -2.13174,-1.31627c0.01272,-1.27409 1.29512,-2.22212 2.17627,-3.14247c0.40853,-0.42671 1.04979,-0.54314 1.58721,-0.78843c1.40371,-0.64067 2.82815,-1.23597 4.22412,-1.89335c0.76684,-0.36111 1.52524,-0.7408 2.30111,-1.08207c1.17563,-0.51711 2.40371,-0.90843 3.58209,-1.41926c1.94678,-0.84393 2.45479,-1.26191 4.48472,-1.9384c0.82677,-0.27553 1.67481,-0.48459 2.52193,-0.68914c1.07637,-0.25991 2.17959,-0.39895 3.2784,-0.53582c0.75455,-0.09399 1.50373,-0.23588 2.2615,-0.29885c0.45234,-0.03758 0.90812,0.01529 1.36167,-0.00221c0.82915,-0.03199 1.6558,-0.11564 2.48501,-0.14618c0.03368,-0.00124 2.85263,-0.00017 2.92905,-0.00015c3.38266,-0.16935 6.96411,-0.17017 10.25769,-0.9875l0.59066,-0.03611c0,0 1.25,0 1.25,1.25z" fill="#00ff2b" stroke="none" stroke-width="0.5"/><path d="M362.10379,185.27135c-0.24514,1.22573 -1.47088,0.98058 -1.47088,0.98058l-0.84492,-0.17462c-7.25658,-2.17712 -14.49022,-5.10795 -21.97467,-6.42219c0.39776,0.18959 0.78976,0.39311 1.19378,0.56849c1.57154,0.68216 3.15828,1.28145 4.76426,1.87646c0.65109,0.24123 1.30143,0.4851 1.94405,0.74805c0.42703,0.17474 0.82801,0.41309 1.26382,0.56459c1.69209,0.58824 3.41733,0.88646 5.05554,1.64262c0.80723,0.37261 1.62077,0.74021 2.38376,1.19662c0.52742,0.31551 0.96694,0.76011 1.47218,1.11003c0.52143,0.36114 1.0857,0.65792 1.60544,1.0215c0.6745,0.47184 1.29522,1.0182 1.97465,1.48292c0.35862,0.24529 0.75582,0.42876 1.13373,0.64315c2.12006,1.13088 4.18412,2.34681 6.28679,3.50889l1.01007,0.94101c0,0 0.88389,0.88388 0,1.76776c-0.88389,0.88389 -1.76777,0 -1.76777,0l-0.4517,-0.52076c-2.10179,-1.16188 -4.16506,-2.37743 -6.28447,-3.50763c-0.4327,-0.24739 -0.88588,-0.46196 -1.29808,-0.74217c-0.69759,-0.47422 -1.33405,-1.03375 -2.02535,-1.51708c-0.5215,-0.36462 -1.08765,-0.66222 -1.61045,-1.02497c-0.46974,-0.32593 -0.87472,-0.74436 -1.36455,-1.03924c-0.66618,-0.40105 -1.38174,-0.71494 -2.08839,-1.03943c-1.57774,-0.7245 -3.25358,-1.00574 -4.88455,-1.5733c-0.4707,-0.1638 -0.90607,-0.41614 -1.36737,-0.60481c-0.61367,-0.25098 -1.2348,-0.48352 -1.85656,-0.71373c-1.64576,-0.60933 -3.27394,-1.2232 -4.88344,-1.92417c-0.61783,-0.26908 -1.20293,-0.61421 -1.83395,-0.85072c-0.51012,-0.19119 -1.06063,-0.25521 -1.57733,-0.42783c-0.35613,-0.11897 -3.24823,-1.312 -3.4085,-1.39871c-0.65343,-0.35352 -1.23846,-0.82097 -1.85769,-1.23145c0,0 -1.04006,-0.69337 -0.34669,-1.73343c0.55647,-0.83471 1.33624,-0.55292 1.62247,-0.40911c10.37152,0.08646 20.07603,4.27026 29.88934,7.21407l0.61685,0.11773c0,0 1.22573,0.24514 0.98059,1.47087z" fill="#00ff2b" stroke="none" stroke-width="0.5"/><path d="M360.56246,214.86552c-0.75,1 -1.75,0.25 -1.75,0.25l-0.58471,-0.43853c-4.67242,-3.51099 -7.26774,-8.61746 -11.05095,-12.94633c-0.34107,-0.48726 -0.65816,-0.99222 -1.02323,-1.46177c-0.32689,-0.42044 -0.7378,-0.77282 -1.04975,-1.20447c-0.33407,-0.46227 -0.55255,-1.00052 -0.88081,-1.46694c-0.24115,-0.34265 -0.55285,-0.62987 -0.82133,-0.95156c-0.45243,-0.5421 -0.90382,-1.08527 -1.34122,-1.63957c-0.28899,-0.36623 -0.53173,-0.76898 -0.83744,-1.12137c-0.31183,-0.35946 -0.69582,-0.65148 -1.01033,-1.00859c-0.39537,-0.44891 -0.69332,-0.98204 -1.11582,-1.40551c-0.3664,-0.36723 -0.83247,-0.61987 -1.2334,-0.94906c-0.72827,-0.59796 -1.36091,-1.31517 -2.13362,-1.85447c-0.58431,-0.4078 -1.21631,-0.74264 -1.82255,-1.11707c-1.6467,-1.01707 -3.27795,-2.07434 -4.9462,-3.05531c-0.83767,-0.49257 -1.68835,-0.9637 -2.51254,-1.47848c0,0 -1.06,-0.6625 -0.3975,-1.7225c0.6625,-1.06 1.7225,-0.3975 1.7225,-0.3975c0.8057,0.5039 1.63849,0.96312 2.45751,1.44507c1.68374,0.99079 3.33364,2.05417 4.99385,3.08414c0.65855,0.40855 1.34372,0.77657 1.97807,1.22179c0.2559,0.1796 2.03788,1.76952 2.2517,1.94612c0.45675,0.37722 0.97849,0.67899 1.39779,1.09744c0.45995,0.45901 0.79268,1.03116 1.22302,1.51803c0.32376,0.36628 0.71615,0.66832 1.03615,1.03789c0.77681,0.89715 1.44761,1.88159 2.20667,2.7938c0.30668,0.36856 0.65578,0.70358 0.93279,1.09492c0.32708,0.46207 0.542,0.99757 0.87332,1.45661c0.29459,0.40815 0.68765,0.7371 0.99676,1.13437c0.36524,0.46942 0.68216,0.97451 1.02323,1.46177c3.63317,4.14706 6.10379,9.13583 10.58332,12.48854l0.58471,0.43853c0,0 1,0.75 0.25,1.75z" fill="#00ff2b" stroke="none" stroke-width="0.5"/><path d="M327.69578,230.4218c-1.25,0 -1.25,-1.25 -1.25,-1.25l0.00592,-0.4139c0.21616,-2.20873 0.31602,-4.41945 0.43305,-6.63548c-0.00016,-0.56095 -0.00141,-4.048 0.00026,-4.1017c0.04222,-1.36017 0.13801,-2.71828 0.18369,-4.07834c0.02861,-0.85176 0.05501,-1.70392 0.11167,-2.55427c0.0738,-1.10758 0.21767,-2.21927 0.14537,-3.32695c-0.04002,-0.61308 -0.17166,-1.21673 -0.25323,-1.82568c-0.16889,-1.26094 -0.26235,-2.53409 -0.50315,-3.78329c-0.25349,-1.31506 -0.65812,-2.60107 -0.85492,-3.92579c-0.21895,-1.47383 -0.2842,-2.96697 -0.47517,-4.44469c-0.19725,-1.52638 -0.46059,-3.04438 -0.64114,-4.57265c-0.3981,-0.44699 -0.76083,-0.86838 -0.79032,-0.98561c-0.02344,-0.09319 -0.04335,-0.18687 -0.0602,-0.28099l-0.0419,0.01048l-0.43172,-1.72692c-0.02877,-0.10523 -0.04412,-0.21601 -0.04412,-0.33036c0,-0.57855 0.39304,-1.06528 0.92667,-1.20778c-0.01394,-0.13853 -0.02816,-0.27704 -0.04274,-0.41551c0,0 -0.13086,-1.24313 1.11227,-1.37398c1.24313,-0.13085 1.37399,1.11227 1.37399,1.11227c0.06675,0.63421 0.1262,1.26917 0.18474,1.90421c0.12721,0.22515 0.19455,0.51912 0.08133,0.88189c0.04165,0.44791 0.08432,0.89571 0.13025,1.34319c0.24672,0.27098 0.49472,0.54134 0.70225,0.84242c0.30323,0.43992 0.51182,0.93831 0.7837,1.39826c0.39186,0.66294 0.85085,1.2871 1.20718,1.96981c0.2471,0.47344 0.3683,1.00416 0.59695,1.48679c0.21812,0.4604 0.53799,0.86948 0.74075,1.33684c0.96365,2.22129 1.69249,4.7278 1.86222,7.15102c0.05313,0.75856 0.0027,1.52085 0.00315,2.28127c0.00038,0.6473 0.02229,1.29501 -0.00069,1.94191c-0.04406,1.24018 -0.19271,2.47992 -0.1461,3.72001c0.02163,0.57542 0.17878,3.03004 0.28276,3.82635c0.24951,1.91075 0.4141,1.95442 0.72921,4.08045c0.07952,0.53654 0.09856,1.08031 0.14784,1.62047c0.48624,2.91332 0.81919,5.78459 0.59105,8.73615l0.00388,0.92482c0,0 0,1.25 -1.25,1.25c-1.25,0 -1.25,-1.25 -1.25,-1.25l0.00388,-1.12167c0.22441,-2.77573 -0.12246,-5.48103 -0.57839,-8.22043c-0.04816,-0.53181 -0.06628,-1.06721 -0.1445,-1.59544c-0.20362,-1.37511 -0.55295,-2.72703 -0.73256,-4.10548c-0.11409,-0.8756 -0.27726,-3.39062 -0.30197,-4.06724c-0.04725,-1.29379 0.0998,-2.58739 0.14626,-3.88121c0.08502,-2.36775 0.10194,-4.77842 -0.54003,-7.07978c-0.12498,-0.44802 -1.06817,-3.0991 -1.10355,-3.18029c-0.19732,-0.45274 -0.50964,-0.848 -0.72103,-1.29434c-0.07572,-0.15987 -0.13881,-0.32538 -0.19865,-0.49229c0.12194,1.20114 0.09539,1.66869 0.35279,3.41136c0.1934,1.30935 0.59758,2.57945 0.84699,3.8793c0.24684,1.28641 0.3483,2.59651 0.52067,3.895c0.08796,0.66258 0.22787,1.31988 0.2695,1.98697c0.12727,2.03929 -0.18516,4.09436 -0.2525,6.13058c-0.04503,1.36142 -0.14126,2.72085 -0.18381,4.08234c-0.04253,1.36075 0.00062,2.72283 0.00026,4.08424c-0.11937,2.27535 -0.22282,4.54496 -0.44404,6.81284l0.00592,0.17081c0,0 0,1.25 -1.25,1.25z" fill="#00ff2b" stroke="none" stroke-width="0.5"/><path d="M310.47253,219.32652c-1.11804,-0.55901 -0.55902,-1.67705 -0.55902,-1.67705l0.07836,-0.12862c0.97251,-2.90778 2.53974,-5.56261 3.50871,-8.47965c2.40871,-7.25123 4.29847,-14.91495 6.26324,-22.29059c0,0 0.20182,-0.75682 0.88504,-0.91252c0.1816,-0.10285 0.3915,-0.16157 0.61511,-0.16157c0.69036,0 1.25,0.55964 1.25,1.25c0,0.39537 -0.18356,0.74787 -0.4701,0.97692c-1.9332,7.26777 -3.79906,14.79906 -6.17248,21.93104c-0.97035,2.91582 -2.54248,5.57033 -3.50781,8.47694l-0.214,0.45608c0,0 -0.55901,1.11804 -1.67705,0.55902z" fill="#00ff2b" stroke="none" stroke-width="0.5"/><path d="M281.31619,216.37859c-0.65512,-1.06457 0.40945,-1.7197 0.40945,-1.7197l1.87079,-1.15068c2.0906,-1.45318 3.98593,-3.05021 5.65499,-4.97419c0.59053,-0.63477 1.14284,-1.30735 1.77158,-1.90429c0.51711,-0.49096 3.3848,-2.78808 3.93499,-3.18024c1.51142,-1.07731 3.16503,-1.91871 4.70775,-2.9443c0.74226,-0.49345 1.40054,-1.10318 2.08533,-1.6737c0.46877,-0.39054 0.97507,-0.73596 1.43032,-1.14218c0.76826,-0.68552 1.40853,-1.50224 2.10917,-2.25675c0.32626,-0.35134 0.69734,-0.65981 1.01736,-1.01686c0.76477,-0.85327 1.41869,-1.79973 2.12754,-2.69999c0.38747,-0.49212 0.83224,-0.93817 1.20805,-1.43925c0.49537,-0.66051 0.91855,-1.37265 1.40251,-2.04158c0.82996,-1.14718 1.20119,-1.52549 2.11455,-2.57003c0,0 0.43422,-0.49626 1.03234,-0.45252c0.26431,-0.01866 0.56872,0.06022 0.88503,0.34139c0.93426,0.83046 0.1038,1.76472 0.1038,1.76472c-1.24273,1.39628 -2.35889,2.85491 -3.40801,4.40267c-0.37426,0.55215 -0.78769,1.08069 -1.11313,1.66296c-0.33137,0.59289 -0.54735,1.24386 -0.85109,1.85136c-0.88167,1.76341 -1.92045,3.435 -2.99019,5.08653c-0.26198,0.40447 -0.47958,0.83883 -0.76855,1.22448c-0.47226,0.63028 -1.00912,1.20948 -1.51038,1.81696c-1.10971,1.34485 -2.20263,2.79487 -3.43863,4.03132c-0.43326,0.43341 -0.91472,0.8158 -1.37247,1.22325c-0.5014,0.4463 -2.97612,2.64773 -3.22991,2.85733c-0.19614,0.16199 -3.12415,2.35003 -3.22975,2.42908c-6.75693,6.31516 -12.69164,13.4368 -19.58538,19.60197l-0.11791,0.10545c0,0 -0.93175,0.83327 -1.76503,-0.09847c-0.83328,-0.93174 0.09848,-1.76502 0.09848,-1.76502l0.11791,-0.10545c6.91296,-6.18236 12.86164,-13.33045 19.64672,-19.65505c1.08522,-0.81527 2.20713,-1.58413 3.25349,-2.44873c0.22701,-0.18759 2.69618,-2.38639 3.15047,-2.78963c0.41929,-0.37218 0.86221,-0.71922 1.25872,-1.11558c1.18256,-1.1821 2.22316,-2.57773 3.28554,-3.86226c0.37314,-0.45117 0.76892,-0.88425 1.13752,-1.3389c-0.13311,0.10348 -0.26524,0.20816 -0.39469,0.31606c-0.75331,0.6279 -1.48467,1.28965 -2.30002,1.83458c-1.51948,1.01553 -3.15717,1.84023 -4.6476,2.90279c-0.44367,0.3163 -3.22879,2.54386 -3.66623,2.9592c-0.57993,0.55062 -1.08711,1.17312 -1.63067,1.75968c-1.81676,2.0848 -3.87658,3.81686 -6.14522,5.39487l-1.92982,1.18816c0,0 -1.06457,0.65512 -1.7197,-0.40945z" fill="#00ff2b" stroke="none" stroke-width="0.5"/><path d="M267.53626,192.48125c0,-1.25 1.25,-1.25 1.25,-1.25l0.59285,0.00765c2.93057,-0.32155 5.54982,-0.34587 8.43361,-1.13301c1.12867,-0.30746 2.23237,-0.70109 3.35731,-1.02194c1.09363,-0.31191 2.23455,-0.44283 3.32364,-0.77024c1.53971,-0.46287 2.5489,-1.02662 4.09868,-1.30205c1.16168,-0.20646 3.21103,-0.18357 4.30172,-0.30192c0.47613,-0.05167 0.93598,-0.20553 1.40837,-0.28438c0.67532,-0.11271 1.35872,-0.17348 2.03338,-0.29005c1.47942,-0.25563 1.60057,-0.45626 3.30238,-0.86467c0.53331,-0.12799 1.0842,-0.17201 1.61873,-0.29481c0.64619,-0.14844 1.60567,-0.39468 2.45705,-0.67339c0.05573,-0.03544 0.11297,-0.06836 0.17234,-0.09777c0.33319,-0.16505 0.69219,-0.26843 1.05,-0.37442c0.37927,-0.18605 0.73291,-0.42282 1.10282,-0.62762c0.39784,-0.22026 0.83067,-0.38533 1.1964,-0.65557c0.48949,-0.36169 0.90121,-0.81823 1.35182,-1.22734c0,0 0.92912,-0.83621 1.76533,0.09292c0.48312,0.5368 0.37698,1.04258 0.20121,1.37401c0.22368,-0.05179 0.44645,-0.10962 0.67101,-0.15557c0,0 1.22573,-0.24514 1.47087,0.98058c0.24514,1.22573 -0.98058,1.47087 -0.98058,1.47087c-0.52792,0.10352 -1.04855,0.25597 -1.58374,0.31055c-0.48474,0.04943 -0.97666,-0.04566 -1.46178,0c-0.95479,0.08986 -1.6044,0.37711 -2.50526,0.67282c-0.09556,0.03137 -0.19275,0.05871 -0.29037,0.08494c-0.01281,0.00679 -0.02119,0.01108 -0.02471,0.01266c-0.32405,0.14534 -0.68635,0.28474 -1.06653,0.41629c-0.24752,0.17881 -0.46577,0.4053 -0.73224,0.55492c-0.8012,0.44985 -1.69335,0.72332 -2.49385,1.17441c-0.41553,0.23415 -0.78833,0.5427 -1.21525,0.75536c-0.50883,0.25345 -1.05057,0.435 -1.58162,0.63781c-1.01477,0.38755 -2.05693,0.72048 -3.12188,0.93452c-0.88387,0.17764 -1.80907,0.2382 -2.63836,0.63647c-0.38783,0.18626 -0.71462,0.48114 -1.09059,0.69029c-1.55604,0.86557 -3.20155,1.60245 -4.79522,2.39688c-4.52319,1.64865 -9.08292,2.81564 -13.73406,3.82408c-0.70435,0.24842 -1.40813,0.45156 -2.12363,0.57876c-0.24167,0.16827 -0.71546,0.40242 -1.23311,0.13765c-0.03026,0.00128 -0.06056,0.00241 -0.09089,0.00337c-0.36611,0.07401 -0.73287,0.14755 -1.10028,0.22075l-0.05936,-0.26516c-0.00831,-0.00091 -0.01663,-0.00183 -0.02494,-0.00277l0.03056,0.27508l-0.13803,0.01534v0.13848h-1.3156c-0.69036,0 -1.25,-0.55964 -1.25,-1.25c0,-0.64884 0.49435,-1.18221 1.12696,-1.24402l1.26004,-0.14c0.67163,-0.13489 1.34105,-0.27062 2.00841,-0.40823c0.01259,-0.00301 0.02522,-0.00599 0.03788,-0.00896c3.62102,-2.18053 9.52105,-3.97555 14.22348,-4.33727l0.16692,-0.07704l-0.06895,-0.25281l1.58033,-0.431c0.11298,-0.03356 0.23265,-0.05158 0.35652,-0.05158c0.29879,0 0.5731,0.10483 0.78814,0.27972c1.05444,-0.50895 2.11283,-1.0163 3.13192,-1.58174c0.26495,-0.147 0.5103,-0.32907 0.76418,-0.49518c-0.98101,0.05495 -2.07073,0.1238 -2.41753,0.18469c-1.16703,0.20488 -2.81405,0.93429 -3.83218,1.23912c-1.1026,0.33012 -2.25673,0.46483 -3.36325,0.78157c-1.12781,0.32283 -2.23518,0.71557 -3.36685,1.02456c-3.0024,0.81815 -5.77092,0.86284 -8.81532,1.20581l-0.86893,0.00764c0,0 -1.25,0 -1.25,-1.25z" fill="#00ff2b" stroke="none" stroke-width="0.5"/><path d="M256.50055,162.36187c0.88389,-0.88387 1.76777,0.00002 1.76777,0.00002l-0.17871,-0.08799c5.48098,2.74161 11.40341,4.69452 17.40823,5.89303c0.7794,0.20263 1.55041,0.44079 2.33819,0.60788c0.82013,0.17395 1.66212,0.23349 2.48079,0.41424c0.70365,0.15535 1.38176,0.41058 2.07902,0.5925c0.86936,0.22683 1.76182,0.35794 2.63119,0.58472c0.70193,0.1831 1.39414,0.40092 2.0875,0.61476c-0.65321,-0.3279 -1.33204,-0.60526 -1.97902,-0.94563c-0.60818,-0.31995 -1.19063,-0.68666 -1.78258,-1.03573c-2.18891,-1.2908 -4.2884,-2.69743 -6.52107,-3.91515c-3.37025,-1.68478 -6.52688,-3.49085 -9.63272,-5.63388l-0.46617,-0.43721c0,0 -0.88389,-0.88388 0,-1.76776c0.88389,-0.88388 1.76776,0 1.76776,0l0.11854,0.1475c3.0226,2.08702 6.09046,3.83534 9.37035,5.47561c2.27117,1.23893 4.40899,2.66433 6.63491,3.97846c0.5592,0.33014 1.10867,0.67828 1.68358,0.98023c0.73868,0.38797 1.51857,0.69439 2.25426,1.08799c1.36678,0.73123 2.61813,1.6609 3.94736,2.45836c0.37475,0.22483 0.7965,0.36388 1.17255,0.58654c0.45362,0.2686 0.85593,0.61853 1.31128,0.88416c0.71349,0.4162 1.47062,0.75355 2.19052,1.15857c0.07745,0.04357 0.1533,0.08991 0.22823,0.13778c0.70704,0.23316 1.41198,0.47366 2.13382,0.65389c1.29305,0.32285 2.60888,0.54681 3.9098,0.83637c0.79557,0.17708 1.57917,0.40859 2.37963,0.56207c0.42926,0.08231 0.87268,0.0691 1.30327,0.1441c0.7079,0.12331 1.40544,0.3001 2.10816,0.45014c0,0 0.81599,0.17485 0.97165,0.90555c0.361,0.10487 0.95265,0.41047 0.89033,1.28283c-0.08907,1.24683 -1.33588,1.15776 -1.33588,1.15776c-0.66733,-0.04793 -1.33336,-0.12014 -2.00199,-0.1438c-0.83099,-0.02941 -1.67464,0.12336 -2.4945,-0.01535c-0.89227,-0.15096 -1.72396,-0.55138 -2.58055,-0.84325c-2.00198,-0.68214 -2.16119,-0.78868 -4.24684,-1.66007c-0.43149,-0.18027 -0.87812,-0.32835 -1.29335,-0.54344c-0.28375,-0.14698 -0.54622,-0.33105 -0.81349,-0.507c-0.14934,-0.04817 -0.29888,-0.09562 -0.44878,-0.1418c-0.80279,-0.24732 -1.6175,-0.45547 -2.41752,-0.71158c-1.14661,-0.36707 -2.25805,-0.84157 -3.41241,-1.18348c-0.79533,-0.23557 -1.60783,-0.40933 -2.4066,-0.63299c-1.0863,-0.30417 -2.15331,-0.67656 -3.24486,-0.96132c-0.86936,-0.2268 -1.76182,-0.35796 -2.63119,-0.58472c-0.67572,-0.17624 -1.33202,-0.42654 -2.01396,-0.57692c-0.80885,-0.17837 -1.64092,-0.23587 -2.45117,-0.40776c-0.80091,-0.1699 -1.58504,-0.41105 -2.37756,-0.61658c-6.19804,-1.24214 -12.30799,-3.26533 -17.96672,-6.09354l-0.47106,-0.38034c0,0 -0.88387,-0.88389 0.00002,-1.76776z" fill="#00ff2b" stroke="none" stroke-width="0.5"/><path d="M295.3123,178.85999c-0.39992,-0.4479 -0.2704,-1.09545 -0.2704,-1.09545c0.21335,-1.06612 0.37967,-2.14118 0.58338,-3.20918c0.12574,-0.65925 0.83515,-3.62411 0.87355,-3.78975c0.11313,-0.48798 0.17238,-0.99074 0.33136,-1.46576c0.22346,-0.66767 0.49943,-1.319 0.81181,-1.94997c0.21031,-0.42479 0.52005,-0.79355 0.75129,-1.20731c0.28868,-0.51657 0.45957,-1.10225 0.80708,-1.58122c0.00781,-0.01076 0.11243,-0.11871 0.27377,-0.28333c-0.32849,-0.32686 -0.63555,-0.67602 -0.97971,-0.9863c-1.70069,-1.53329 -3.67173,-2.71918 -5.3929,-4.22508c-0.3442,-0.30115 -0.60188,-0.69736 -0.96525,-0.97508c-0.87766,-0.67079 -1.95927,-1.07986 -2.74581,-1.8555c-0.35919,-0.35421 -0.56797,-0.83894 -0.91304,-1.20692c-0.39301,-0.4191 -0.86022,-0.76184 -1.29033,-1.14276c-4.77091,-5.62474 -9.5306,-11.19801 -13.46581,-17.4567l-0.20596,-0.39863c0,0 -0.55901,-1.11804 0.55903,-1.67704c1.11804,-0.55901 1.67705,0.55904 1.67705,0.55904l0.08639,0.18607c3.84064,6.11028 8.49504,11.53939 13.13849,17.04118c0.44695,0.39869 0.93128,0.75908 1.34086,1.19608c0.32146,0.34297 0.51155,0.79671 0.84109,1.13193c0.64068,0.65172 1.84496,1.13891 2.51658,1.65275c0.40298,0.3083 0.6994,0.73727 1.08123,1.0714c1.73181,1.51546 3.70897,2.71201 5.42424,4.25322c0.36988,0.33235 0.69745,0.7091 1.05268,1.05706c0.16564,-0.16538 0.28519,-0.28355 0.32481,-0.32029c1.14076,-1.05806 2.37945,-1.95162 3.69507,-2.77403c0.79967,-0.49989 1.6634,-1.09092 2.55521,-1.42328c0.55414,-0.20651 1.14144,-0.30994 1.71002,-0.47257c0.52022,-0.14879 1.02685,-0.34964 1.55621,-0.46164c0.42006,-0.08887 0.85373,-0.09235 1.2806,-0.13853c1.31128,-0.48458 1.68339,-0.65769 3.03898,-1.01564c0.43293,-0.11432 0.8793,-0.17357 1.31133,-0.29123c0.61874,-0.16852 1.22673,-0.3743 1.83848,-0.56664c0.50005,-0.15722 0.97944,-0.39803 1.49684,-0.48203c0.50197,-0.08149 1.01985,0.04451 1.52561,-0.00867c0.42392,-0.04458 0.82664,-0.21283 1.2471,-0.28292c0.08619,-0.01437 2.77195,-0.30944 2.82359,-0.3092c0.62182,0.00285 1.2464,0.05563 1.85782,0.16887c0.26271,0.04865 2.64688,0.80617 2.98868,0.89147c0.98861,0.24672 2.01161,0.39957 2.95323,0.78888c1.54946,0.64063 3.01943,1.70597 4.19814,2.89424c0.47156,0.47538 0.94103,0.96061 1.32862,1.50662c0.27959,0.39388 0.4316,0.86437 0.65751,1.29132c0.54329,1.02679 1.07765,2.06028 1.54514,3.12372c0.10307,0.50655 0.17742,1.01981 0.30923,1.51966c0.11674,0.44269 0.31359,0.86134 0.43505,1.30276c0.24753,0.89963 0.31358,1.83959 0.46698,2.75996c0.07385,0.44312 0.21855,0.87248 0.29235,1.3156c0.07382,0.4432 0.08327,0.89523 0.14993,1.33957c0.3159,2.10583 0.71482,4.24604 0.59596,6.3895c-0.08853,1.59644 -0.51248,3.0964 -0.91576,4.63225c-0.16349,0.62264 -0.26283,1.26419 -0.47557,1.87177c-0.15334,0.4379 -0.42845,0.82376 -0.61676,1.2478c-0.221,0.49766 -0.36622,1.02855 -0.6103,1.51531c-0.22096,0.44065 -0.52255,0.83605 -0.77963,1.25666c-0.31372,0.51329 -0.57962,1.05795 -0.93273,1.54499c-0.88156,1.21592 -2.07552,2.24356 -3.13572,3.29885c-0.30993,0.40884 -0.56678,0.86398 -0.92978,1.22652c-0.42256,0.42203 -0.94951,0.72524 -1.40783,1.10813c-0.46663,0.38984 -0.88159,0.84139 -1.36585,1.20909c-0.83771,0.63608 -1.84265,1.01522 -2.7529,1.54226c-0.45612,0.26409 -0.86026,0.61163 -1.3156,0.87705c-1.07063,0.6241 -1.5559,0.76261 -2.73515,1.13381c-0.52931,0.16662 -1.0518,0.36518 -1.59615,0.473c-1.50667,0.29843 -3.10346,0.17001 -4.62822,0.17001c-0.17245,0 -2.8011,0.00055 -2.84649,-0.00191c-1.08724,-0.05894 -1.89912,-0.2341 -2.96643,-0.46357c-0.50209,-0.10795 -1.02202,-0.16194 -1.50115,-0.34681c-0.51547,-0.19889 -0.9661,-0.53659 -1.45505,-0.79386c-0.40652,-0.21389 -0.83693,-0.38339 -1.231,-0.61945c-0.35958,-0.2154 -0.66065,-0.52062 -1.02325,-0.73089c-0.53733,-0.31158 -1.11226,-0.55328 -1.66839,-0.82992c-0.53139,-0.26919 -1.09443,-0.48341 -1.59419,-0.80757c-0.41961,-0.27217 -0.76448,-0.64511 -1.14529,-0.96935c-0.08051,-0.06855 -2.07608,-1.77863 -2.11235,-1.81482c-0.36671,-0.36581 -0.65699,-0.80317 -1.02325,-1.16942c-0.31916,-0.31915 -0.70903,-0.56199 -1.02776,-0.88156c-0.33981,-0.3407 -0.62908,-0.72832 -0.94225,-1.09364c-0.97162,-1.13343 -1.85498,-2.3066 -2.40555,-3.71475c-0.20182,-0.51617 -0.33552,-1.05677 -0.48188,-1.59132c-0.5286,-1.93059 -0.95946,-3.98251 -0.77053,-5.99828c0.07124,-0.76015 0.16884,-1.22436 0.28963,-1.66863zM301.79521,167.70024c-0.41244,0.92759 -0.80444,1.86439 -1.18277,2.80641c-0.36518,0.65861 -1.01011,1.73351 -1.25735,2.48584c-0.134,0.40774 -0.1602,0.84431 -0.27486,1.2579c-0.12232,0.44119 -0.32405,0.85861 -0.43505,1.30277c-0.17792,0.71192 -0.26521,1.44397 -0.4301,2.15902c-0.29046,1.25966 -0.57927,1.77245 -0.7025,3.04096c-0.16658,1.71474 0.24602,3.47126 0.69125,5.11123c0.12136,0.44702 0.22827,0.90015 0.39518,1.33223c0.44403,1.14944 1.19025,2.08815 1.97978,3.00939c0.27154,0.31684 0.5164,0.65821 0.81187,0.95285c0.3166,0.3157 0.70256,0.55641 1.01871,0.87256c0.36626,0.36626 0.65748,0.80268 1.02326,1.16942c0.6134,0.61501 1.32318,1.12572 1.9806,1.69344c0.30148,0.26034 0.56646,0.56885 0.90119,0.78478c0.41501,0.26773 0.88624,0.43613 1.32936,0.6542c0.61329,0.30807 1.24568,0.58073 1.83986,0.92422c0.36289,0.20977 0.66399,0.51496 1.02326,0.73089c0.35336,0.21238 0.74404,0.35598 1.10783,0.54996c0.39783,0.21213 0.75649,0.5031 1.17614,0.66792c0.35829,0.14073 0.75296,0.16054 1.13005,0.2379c0.95839,0.19662 1.62334,0.36446 2.58834,0.4135c0.90159,0.04581 1.80549,-0.00191 2.70824,-0.00191c1.34855,0 2.80966,0.1474 4.14242,-0.12235c0.45332,-0.09175 0.8865,-0.26431 1.3274,-0.40407c0.96821,-0.3069 1.37517,-0.40182 2.23489,-0.91268c0.4531,-0.26923 0.85947,-0.613 1.31561,-0.87705c1.00119,-0.57959 1.62629,-0.70036 2.50946,-1.3813c0.44779,-0.34525 0.83047,-0.76837 1.26535,-1.12976c0.39526,-0.32846 0.86023,-0.57467 1.22337,-0.93834c0.3261,-0.32657 0.54957,-0.74156 0.82435,-1.11234c0.99585,-0.99993 2.1757,-1.98127 3.00373,-3.13295c0.31225,-0.4343 0.54251,-0.92211 0.8214,-1.37856c0.22233,-0.36387 0.49193,-0.70056 0.68215,-1.0822c0.2253,-0.45202 0.35385,-0.94678 0.55912,-1.40824c0.1657,-0.37248 0.41804,-0.70623 0.55266,-1.09103c0.18547,-0.53017 0.26068,-1.09276 0.40151,-1.6365c0.35593,-1.37423 0.75887,-2.71058 0.83836,-4.1384c0.10982,-1.97264 -0.28294,-3.95241 -0.57346,-5.88939c-0.06425,-0.42836 -0.07118,-0.86439 -0.14243,-1.29164c-0.07389,-0.44311 -0.2185,-0.87248 -0.29236,-1.31559c-0.07254,-0.43523 -0.07482,-0.88017 -0.14618,-1.3156c-0.14083,-0.85935 -0.48475,-1.67299 -0.70592,-2.51525c-0.12113,-0.46125 -0.18365,-0.93594 -0.27548,-1.40391c-0.41811,-0.92757 -0.90672,-1.82187 -1.3784,-2.72338c-0.18017,-0.34435 -0.28889,-0.72925 -0.51192,-1.04752c-0.28918,-0.41266 -0.65208,-0.77011 -1.01022,-1.12457c-0.9659,-0.95596 -2.1403,-1.85096 -3.40308,-2.36816c-0.82889,-0.33948 -1.73264,-0.4553 -2.60152,-0.67289c-1.42843,-0.35771 -2.71412,-0.99506 -4.2165,-0.98615c-0.39936,0.00236 -0.79322,0.09377 -1.19006,0.1386c-0.41609,0.04701 -0.83568,0.06808 -1.24873,0.13691c-0.46579,0.07762 -0.9145,0.25232 -1.38411,0.3018c-0.46342,0.04882 -0.93728,-0.07896 -1.39794,-0.00868c-0.39581,0.06039 -0.75326,0.27223 -1.13435,0.39504c-0.65123,0.20986 -1.3021,0.42254 -1.96214,0.60279c-0.43478,0.11873 -0.88389,0.17915 -1.31984,0.29347c-1.18933,0.31187 -1.91076,0.60438 -3.10049,1.03085c-0.4502,0.05128 -0.9071,0.06095 -1.35058,0.15383c-0.46623,0.09765 -0.90928,0.28471 -1.36734,0.41542c-0.4998,0.14263 -1.01738,0.22704 -1.5059,0.40449c-0.6464,0.23481 -1.56655,0.86054 -2.12246,1.20792c-1.18232,0.73881 -2.29711,1.53597 -3.32145,2.48834c-0.06199,0.05764 -0.12312,0.11615 -0.18365,0.17529c0.23329,0.22141 0.46202,0.44739 0.68261,0.68151c0.94475,1.00268 1.82764,2.06932 2.84745,2.99556c0.45286,0.41131 0.96606,0.75133 1.43406,1.14533c1.21776,1.02523 1.83595,1.72669 3.1616,2.73409c0.54057,0.41079 1.13059,0.75209 1.69588,1.12813c0,0 1.04006,0.69338 0.34668,1.73344c-0.69338,1.04007 -1.73343,0.34668 -1.73343,0.34668c-0.60413,-0.40357 -1.23397,-0.77107 -1.81239,-1.2107c-1.56444,-1.18909 -1.8992,-1.66584 -3.27021,-2.82065c-0.4866,-0.40987 -1.01908,-0.76514 -1.48949,-1.1935c-1.0082,-0.91809 -1.89767,-1.95827 -2.82586,-2.9578z" fill="#00ff2b" stroke="none" stroke-width="0.5"/><path d="M393.77232,197.8775c-1.01092,0.73521 -1.74613,-0.27571 -1.74613,-0.27571l-0.91537,-1.34835c-3.40091,-1.18074 -6.80058,-2.3885 -10.17918,-3.61502c-1.71819,-0.57265 -3.44369,-1.09601 -5.18727,-1.58439c-1.29621,-0.36307 -2.58336,-0.75994 -3.85974,-1.18753c-0.47487,-0.15909 -0.96568,-0.27748 -1.42364,-0.4802c-0.47706,-0.21118 -0.90359,-0.52308 -1.37018,-0.75648c-1.45123,-0.72593 -3.01144,-1.2089 -4.48566,-1.8786c-0.15706,-0.07135 -2.45481,-1.25984 -2.93637,-1.41082c-0.43457,-0.13625 -0.89555,-0.16678 -1.34123,-0.26056c-0.39945,-0.08405 -0.78802,-0.22873 -1.19383,-0.27287c-0.43158,-0.04694 -0.87065,0.04694 -1.30237,0.00138c-0.51134,-0.05397 -1.0042,-0.22692 -1.51337,-0.29854c-0.51754,-0.07279 -1.03954,-0.13491 -1.56217,-0.13403c-0.40092,0.00068 -0.79649,0.09244 -1.19475,0.13866c0,0 -1.24235,0.13805 -1.3804,-1.1043c-0.13805,-1.24235 1.10431,-1.38041 1.10431,-1.38041c0.47881,-0.05124 0.95489,-0.15437 1.43644,-0.15371c0.65084,0.00089 1.30088,0.0729 1.94609,0.15834c0.47549,0.06297 0.93316,0.23608 1.41018,0.28616c0.44052,0.04624 0.88869,-0.04845 1.32882,0.00138c0.48715,0.05516 0.95763,0.2108 1.43737,0.31184c0.52684,0.11096 1.0692,0.16116 1.58233,0.32416c0.84745,0.26919 2.45688,1.17332 3.20308,1.51272c1.50498,0.68451 3.09493,1.18115 4.57734,1.92202c0.43081,0.21531 0.82124,0.50894 1.26101,0.70529c0.38689,0.17273 0.80538,0.26354 1.20756,0.39687c1.23859,0.41061 2.4849,0.79962 3.74148,1.15133c1.79426,0.5022 3.56957,1.04209 5.33751,1.63149c3.6307,1.32261 7.26787,2.55872 10.87037,3.98621l1.42347,1.86755c0,0 0.73521,1.01092 -0.27571,1.74613z" fill="#00ff2b" stroke="none" stroke-width="0.5"/><path d="M132.5,352.54601v-345.09202h375v345.09202z" fill="none" stroke="#000000" stroke-width="0"/></g></g></svg>