<svg version="1.1" xmlns="http://www.w3.org/2000/svg" xmlns:xlink="http://www.w3.org/1999/xlink" width="375" height="345.09202" viewBox="0,0,375,345.09202"><g transform="translate(-132.5,-7.45399)"><g stroke-miterlimit="10"><path d="M297.0465,241.21256c-0.10559,-0.02901 -0.21694,-0.07398 -0.33392,-0.13832c-1.09527,-0.6024 -0.49287,-1.69767 -0.49287,-1.69767c0.33852,-0.61217 0.67704,-1.22434 1.01556,-1.83651c0.00065,-0.18133 0.03906,-0.36123 0.12636,-0.53928c0.03297,-0.06724 0.07181,-0.12489 0.1159,-0.17395c0.2043,-0.7458 0.54808,-1.40559 0.9797,-1.81516c0.69223,-0.65688 1.80592,-1.49171 2.65834,-1.0627c0.32198,0.16205 0.6057,0.42117 0.84874,0.75022c0.19765,0.09226 0.39116,0.25934 0.55301,0.54256c0.20887,0.36551 0.22429,0.67827 0.15288,0.93234c0.00073,0.0024 0.00146,0.0048 0.00218,0.00719c1.41875,1.11639 1.13293,2.66918 0.169,3.81135c-0.22114,1.02882 -0.68211,1.89772 -1.40823,2.31978c-0.98117,0.57031 -2.46812,0.94646 -3.39243,0.28799c-0.56093,-0.39961 -0.86802,-0.87423 -0.99424,-1.38784z" fill="#00ff2b" stroke="none" stroke-width="0.5"/><path d="M360.67791,227.07634c-0.13,-0.05269 -0.259,-0.12103 -0.38579,-0.20262c-2.47271,-0.04925 -4.99334,-3.15095 -1.87617,-5.30998c0.75822,-0.52516 1.88641,-0.32798 2.96043,0.25224c0.19207,0.04191 0.35364,0.1343 0.48143,0.23485c0.21651,-0.07618 1.16208,-0.34024 1.59655,0.6735c0.15503,0.36175 0.14737,0.65842 0.06407,0.89512c0.81387,1.03785 1.19664,2.22561 0.61816,3.13915c-1.23555,1.9512 -2.55318,1.36431 -3.45868,0.31774z" fill="#00ff2b" stroke="none" stroke-width="0.5"/><path d="M377.12559,247.11876c-0.89412,-1.00552 -0.25094,-2.30378 0.82613,-3.00904c0.1261,-0.25603 0.27322,-0.45054 0.43424,-0.55544c0.36341,-0.23676 0.80806,-0.17052 1.24282,0.04546c0.04692,0.00151 0.09373,0.00445 0.14037,0.00888c2.09334,0.19883 2.96161,4.47563 1.0844,5.53976c-0.14663,0.59462 -0.30257,1.04907 -0.41894,1.18843c-0.64743,0.77535 -1.94977,1.79649 -2.77598,1.21536c-2.33102,-1.63958 -1.54362,-3.17237 -0.53303,-4.43341z" fill="#00ff2b" stroke="none" stroke-width="0.5"/><path d="M285.46081,266.05105c-0.61615,-0.60113 -0.81414,-1.55465 -0.16797,-2.90873c0.96641,-2.02513 2.92481,-1.71256 4.23467,-0.55509c0.41591,-0.0233 0.79085,0.02925 1.03027,0.33275c0.98777,1.25217 0.84866,2.2507 0.1774,2.9283c-0.71693,2.55925 -2.7877,3.57677 -4.8336,1.52819c-0.33601,-0.33646 -0.40331,-0.82262 -0.44077,-1.32542z" fill="#00ff2b" stroke="none" stroke-width="0.5"/><path d="M379.94299,171.83813c-0.86541,0.59013 -2.43276,0.31904 -3.2345,-0.35628c-3.02544,-2.54838 -0.71281,-5.55871 2.20846,-5.8666c2.57315,-0.2712 5.10605,5.67149 2.11473,6.34624c-0.37314,0.08417 -0.73402,0.01837 -1.08869,-0.12335z" fill="#00ff2b" stroke="none" stroke-width="0.5"/><path d="M400.35114,165.50463c0,-0.14607 0.02506,-0.28628 0.0711,-0.41659c-0.15692,-0.12039 -0.31385,-0.24077 -0.47077,-0.36116c0,0 -0.98669,-0.76743 -0.21927,-1.75412c0.46022,-0.59171 0.99928,-0.55259 1.35712,-0.42645c0.45755,-0.92602 1.49523,-0.58013 1.49523,-0.58013c0.28871,0.11123 0.64166,0.32185 1.00423,0.59801c1.7214,0.26116 3.40551,1.97495 2.56482,3.81988c-1.11762,2.45266 -2.73962,2.14214 -3.6328,0.93385c-0.43617,-0.08558 -0.79869,-0.29179 -1.08029,-0.57352c-0.61449,-0.07882 -1.08937,-0.60384 -1.08937,-1.23977z" fill="#00ff2b" stroke="none" stroke-width="0.5"/><path d="M349.61836,176.13534c-0.12843,-0.04124 -0.25727,-0.0883 -0.38393,-0.14129c-0.68958,-0.05395 -1.31043,-0.18547 -1.63321,-0.36529c-0.83992,-0.46792 -2.13481,-1.18803 -1.94445,-2.13047c0.12503,-0.61898 0.76704,-1.19414 1.58514,-1.62915c-0.2416,-0.27681 -0.4403,-0.72218 -0.13334,-1.33611c0.55901,-1.11804 1.67705,-0.55902 1.67705,-0.55902c0.34602,0.17516 0.67598,0.38833 1.02705,0.5515c0.87696,-0.42117 1.92299,-0.51514 2.93002,-0.13495c1.04381,0.39408 2.12789,1.58006 2.02675,2.68891c0.28787,1.6256 -0.56917,2.56851 -1.73906,3.0055c-0.46073,0.41742 -1.28641,0.63206 -2.58817,0.48846c-0.32871,-0.03626 -0.59288,-0.20349 -0.82386,-0.43809z" fill="#00ff2b" stroke="none" stroke-width="0.5"/><path d="M332.05173,195.20362c0.88475,-0.88302 1.76776,0.00172 1.76776,0.00172l0.01407,0.0141c0.93262,0.93444 1.94941,1.92044 2.96463,2.94287c1.09013,-0.57969 2.15187,-0.46516 3.12883,0.01779c0.15485,-0.06873 0.32627,-0.10692 0.50661,-0.10692c0.38261,0 0.72507,0.1719 0.95436,0.44269l0.14648,0.17089c0.09338,-0.14913 0.23484,-0.29396 0.44222,-0.42357c1.06,-0.6625 1.72249,0.3975 1.72249,0.3975c0.7394,1.19505 1.34301,2.49342 1.73121,3.84404c0.23364,0.81288 0.53692,1.63895 0.51544,2.48447c-0.0819,3.22338 -0.99648,3.32842 -4.33532,2.24556c-1.50959,-0.48959 -3.23903,-2.23924 -4.27961,-4.01423c-1.78955,-2.01343 -3.34814,-4.31259 -5.26684,-6.23504l-0.01407,-0.0141c0,0 -0.88302,-0.88475 0.00172,-1.76777zM339.68338,201.18039c-0.03961,-0.0251 -0.07924,-0.05018 -0.11885,-0.07528c0.04714,0.05415 0.09407,0.10834 0.14078,0.1626c-0.00788,-0.01999 -0.01567,-0.04001 -0.02337,-0.06007z" fill="#00ff2b" stroke="none" stroke-width="0.5"/><path d="M310.19627,213.36157c-0.51794,0.43786 -1.13646,0.62883 -1.84124,0.35501c-0.10387,-0.04036 -0.19966,-0.08896 -0.28769,-0.14505c-0.48183,0.02843 -0.96918,-0.09906 -1.43644,-0.43384c-1.91713,-1.37355 -0.32908,-5.68142 1.77049,-6.28352c-0.1036,-0.2722 -0.3358,-1.12562 0.59541,-1.59123c1.11804,-0.55902 1.67705,0.55902 1.67705,0.55902c0.22501,0.47615 0.51758,0.93011 0.76716,1.3982c0.20724,0.08239 0.41566,0.20166 0.6236,0.36216c0.80825,0.62385 0.69192,1.94159 0.79906,2.95696c0.05549,0.52592 -0.21544,1.0355 -0.32317,1.55325l-1.90608,1.22481c0,0 -0.18882,0.05394 -0.43815,0.04424z" fill="#00ff2b" stroke="none" stroke-width="0.5"/><path d="M288.26963,182.20113c0.06993,-0.00795 0.11284,-0.00796 0.11284,-0.00796c0.44111,0 0.88223,0 1.32334,0h2.35259c0.69036,0 1.25,0.55965 1.25,1.25c0,0.34518 -0.13991,0.65768 -0.36612,0.88389l-1.76777,1.76776l-0.01767,-0.01767c-0.06437,0.06186 -0.13096,0.12165 -0.20002,0.17912c-0.09514,0.21976 -0.21827,0.45118 -0.37209,0.69468c-1.45913,2.30995 -11.41954,3.39351 -9.88846,-1.58941c0.4683,-1.52408 3.57604,-3.74304 5.22095,-3.67708c0.72402,0.02903 1.69161,0.14462 2.35241,0.51667z" fill="#00ff2b" stroke="none" stroke-width="0.5"/><path d="M321.53485,183.80161c-2.64704,0.61086 -5.15921,-1.76582 -6.21437,-3.8548c-0.33574,-0.66469 -0.74442,-1.46033 -0.5241,-2.17167c0.33828,-1.09221 1.13788,-2.06004 2.04879,-2.75113c0.59864,-0.45418 1.46911,-0.31674 2.20367,-0.47512c0.15081,0.01426 0.30378,0.02005 0.4577,0.02211c0.51412,-0.29444 1.0791,-0.40154 1.66454,-0.09064c0.24043,0.12768 0.45335,0.2832 0.63994,0.46091c2.73041,1.47396 6.23003,6.85218 1.58924,8.6333c-0.58472,0.22441 -1.2228,0.29051 -1.86543,0.22704z" fill="#00ff2b" stroke="none" stroke-width="0.5"/><path d="M295.93743,155.58876c-1.3354,-0.06661 -3.77668,-1.2124 -3.5084,-2.81884c0.05315,-0.31827 0.12694,-0.59674 0.2187,-0.83902c-0.05277,-0.06489 -0.09662,-0.11995 -0.13016,-0.16329c-0.55122,-0.7124 -3.09936,-3.76254 -0.19874,-4.62267c0.70614,-0.20939 1.38332,0.18706 2.04589,0.65195c0.1685,-0.31524 0.49981,-0.63461 1.14895,-0.59642c1.24784,0.07341 1.17444,1.32125 1.17444,1.32125l-0.00024,0.00395c-0.00736,0.11393 -0.01398,0.22634 -0.01977,0.33732c0.83874,0.21004 1.46261,0.99348 2.0641,1.70027c0.13751,0.01337 0.28757,0.05222 0.45054,0.12465c0.77344,0.34375 0.79042,0.97845 0.72075,1.35249c0.64098,0.98402 1.25187,2.26091 1.31941,3.21446c0.05991,0.84582 0.47311,2.12219 -0.27067,2.52936c-1.03215,0.56503 -2.33281,-0.3104 -3.49921,-0.4656c-0.59805,-0.58395 -1.09929,-1.15511 -1.51559,-1.72986z" fill="#00ff2b" stroke="none" stroke-width="0.5"/><path d="M329.43613,144.72849c0.11678,-0.20645 0.23709,-0.41105 0.36203,-0.61523l-0.23522,-0.1107l1.05259,-2.23676c0.19446,-0.43776 0.63304,-0.74304 1.14292,-0.74304c0.69036,0 1.25,0.55965 1.25,1.25v1.32334h-0.04615l0.0411,0.11226c-0.06191,0.34511 -0.13653,0.8401 -0.22889,1.41205c0.46769,0.60585 0.66587,1.83938 0.74908,3.38337c0.13628,2.52872 -1.5696,3.34875 -3.68228,3.94092c-0.90632,0.25404 -2.04375,0.71289 -2.81812,0.17783c-2.56282,-1.77078 -1.72561,-11.21139 2.41294,-7.89403z" fill="#00ff2b" stroke="none" stroke-width="0.5"/><path d="M246.28082,191.92677c0.48567,-1.15179 1.63746,-0.66613 1.63746,-0.66613l0.12938,0.06433c0.12774,-0.25987 0.30476,-0.42213 0.30476,-0.42213c0.15131,-0.13527 0.31204,-0.28834 0.48162,-0.45097c0.00819,-0.03102 0.01785,-0.06189 0.02904,-0.09255c0.17683,-0.48455 1.18231,-1.209 2.30666,-1.74784c0.0385,-0.0189 0.07718,-0.03716 0.11604,-0.05475c1.02927,-0.47806 2.13673,-0.79052 2.78839,-0.61724c0.9567,0.25439 2.30802,0.63893 2.49485,1.61108c0.4808,2.50173 -2.39218,4.29371 -4.29084,4.54507c-0.18114,0.02398 -0.36913,0.03827 -0.55917,0.04056c-1.23392,0.1266 -2.50081,0.02769 -3.72304,-0.16659l-1.049,-0.40539c0,0 -1.15179,-0.48566 -0.66613,-1.63746z" fill="#00ff2b" stroke="none" stroke-width="0.5"/><path d="M221.73656,194.19834c3.84422,-0.43769 3.31134,6.64977 -0.35502,6.37459c-3.48351,-0.26146 -4.66542,-5.59452 -1.06664,-6.8931c0.4862,-0.17544 0.95358,0.18167 1.42166,0.51851z" fill="#00ff2b" stroke="none" stroke-width="0.5"/><path d="M276.09686,129.91217c-0.23633,-0.02954 -0.422,-0.09848 -0.56773,-0.19073c-0.48156,0.19704 -1.02489,0.26492 -1.47981,0.16602c-0.28564,-0.0621 -0.93263,-0.64146 -1.61762,-1.44447l-0.03663,0.00333l-0.00473,-0.05203c-0.00542,-0.00641 -0.01084,-0.01283 -0.01626,-0.01927c-0.1705,0.02078 -0.34288,0.02318 -0.51772,0.00177c-1.46293,-0.17916 -2.64061,-2.95908 -1.68013,-4.20323c-0.00986,-0.40035 0.10054,-0.74039 0.37363,-0.98156c0.24019,-0.97328 1.9355,-1.37542 3.38669,-1.11541c1.6669,0.29866 2.94085,3.55261 3.58614,4.87149l-0.03044,1.87878c0,0 -0.15504,1.24035 -1.39539,1.08531z" fill="#00ff2b" stroke="none" stroke-width="0.5"/><path d="M249.36638,100.50223c-1.09082,0.61042 -1.70124,-0.48039 -1.70124,-0.48039l-0.10411,-0.18712c-0.5351,0.0716 -1.10117,0.01753 -1.58321,-0.13018c-0.94333,-0.28905 -1.62694,-1.20182 -2.14059,-2.0442c-0.01036,-0.01699 -0.01588,-0.03589 -0.01727,-0.05628c-0.16631,0.31017 -0.31799,0.56432 -0.49748,0.37725c-0.80151,-0.83536 -1.85411,-2.33831 -1.16799,-3.27077c0.46644,-0.63391 0.95912,-0.99549 1.4595,-1.15314c0.09121,-0.63739 0.49553,-1.14107 1.34845,-1.24914c0.08878,-0.01125 0.18286,-0.01001 0.28132,0.00277c0.1202,-0.14782 0.29581,-0.28181 0.54834,-0.38281c1.1606,-0.46424 1.62483,0.69636 1.62483,0.69636c0.18318,0.63758 0.72532,1.29019 0.70389,1.91919c0.85829,1.14066 1.47771,2.50937 1.34814,3.58537l0.37784,0.67185c0,0 0.61043,1.09082 -0.48039,1.70124zM244.03869,97.21476c0.18048,-0.20153 0.38637,-0.36371 0.25073,-0.27913c-0.09114,0.05683 -0.17371,0.15901 -0.25073,0.27913z" fill="#00ff2b" stroke="none" stroke-width="0.5"/><path d="M339.11475,115.12164c0.61336,0.038 1.15902,0.26459 1.64358,0.60375c0.19824,-0.0785 0.4463,-0.10542 0.75517,-0.03678c1.22024,0.27116 0.94908,1.49139 0.94908,1.49139c-0.02263,0.10173 -0.04788,0.20967 -0.07578,0.3227c0.119,0.17997 0.23134,0.36137 0.33733,0.54073c0.42316,0.71615 1.0391,1.58864 0.76697,2.37469c-0.80467,2.32433 -2.65946,2.55857 -4.36003,1.75616c-0.69738,-0.01666 -1.50396,-0.50562 -2.42359,-1.72979c-0.23555,-0.31354 -0.4103,-0.70687 -0.51755,-1.13671c-0.48678,-0.95437 -0.67214,-1.99764 -0.35724,-2.9559c1.13618,-3.45753 2.35225,-2.68218 3.28207,-1.23024z" fill="#00ff2b" stroke="none" stroke-width="0.5"/><path d="M351.23188,86.25904c0.70557,0.18525 1.76742,-0.08468 2.11671,0.55574c1.31943,2.41913 0.79774,3.39214 -0.33012,4.30685c-0.16078,0.49653 -0.62383,0.85702 -1.17215,0.86446c-0.18092,0.13199 -0.36573,0.27027 -0.55167,0.41791l-0.13317,-0.61078c-0.1492,-0.09443 -0.27704,-0.21957 -0.37461,-0.36655l-0.43777,0.14592l-0.23679,-0.71039l-0.24045,-0.03214c0,0 -0.57252,-0.45802 -0.48984,-1.11097c-0.50016,-0.16339 -0.86152,-0.63372 -0.86152,-1.18845c0,-0.69035 0.55964,-1.25 1.25,-1.25c0.0308,0 0.06134,0.00111 0.09158,0.00331c0.18109,-1.15699 1.3698,-1.02492 1.3698,-1.02492z" fill="#00ff2b" stroke="none" stroke-width="0.5"/><path d="M132.5,352.54601v-345.09202h375v345.09202z" fill="none" stroke="#000000" stroke-width="0"/></g></g></svg>