<svg version="1.1" xmlns="http://www.w3.org/2000/svg" xmlns:xlink="http://www.w3.org/1999/xlink" width="2878.25006" height="1619.57958" viewBox="0,0,2878.25006,1619.57958"><g transform="translate(1117.37278,629.80931)"><g data-paper-data="{&quot;isPaintingLayer&quot;:true}" fill-rule="nonzero" stroke-linejoin="miter" stroke-miterlimit="10" stroke-dasharray="" stroke-dashoffset="0" style="mix-blend-mode: normal"><path d="M-1117.37278,989.77027v-1619.57958h2878.25006v1619.57958z" fill="none" stroke="#000000" stroke-width="0" stroke-linecap="butt"/><path d="M343.28805,309.75145l-12.08534,-40.49642l57.40539,0.35837l20.5451,40.13805z" fill="#cedce9" stroke="#000000" stroke-width="1.5" stroke-linecap="round"/><path d="M414.61353,307.647c-1.55364,0.4439 -3.08109,0.6979 -4.59318,0.88103c0.01024,0.0682 0.01554,0.13932 0.01554,0.21353c0,1.80741 -3.16307,1.80741 -3.16307,1.80741c-13.97028,0 -27.94052,0 -41.91074,0c-3.59492,0 -12.54013,-0.81999 -15.19156,0.26106c-1.52728,0.62269 -2.62064,0.56105 -4.57767,0.64264c-0.22089,0.00921 -0.62266,0.02891 -0.97764,0.04104c1.89236,0.77195 0.97764,7.90586 0.97764,9.89988c0,8.43476 0,16.86947 0,25.30419c0,1.50619 0,3.01243 0,4.5186c0,0.60245 -0.55631,2.31921 0,1.80741c2.11659,-1.94713 6.24717,-0.90023 11.07076,-0.90373c9.5083,-0.00689 19.68796,-0.5879 29.02658,0.38955c17.05298,1.94886 35.38765,-1.16483 52.30454,1.0065c14.24789,2.03536 31.30331,2.21879 45.98262,2.21879c3.6903,0 7.38052,0 11.07079,0c0.55521,0 1.427,-0.04273 2.32962,-0.08957c-0.90797,-0.9272 0.04268,-3.16941 0.04268,-4.42905c0,-4.70575 2.76051,-12.82312 -0.62842,-17.05098c-2.99482,-5.13389 -4.88925,-10.07674 -9.77442,-15.19673c-3.60441,-3.77774 -9.21547,-7.12637 -12.19775,-10.87893c-1.44581,-2.23651 -2.74014,-0.63808 -7.44858,-1.15569c-10.41851,-1.14532 -20.86777,-0.90372 -31.63076,-0.90372c-3.92322,0 -8.8504,0.45516 -12.65234,0c-0.80256,-0.09609 -2.31082,-0.45322 -3.44138,-0.74575c2.06782,0.9129 -2.65062,1.79594 -4.63328,2.36241zM364.96189,306.93411c10.55828,0 21.11657,0 31.67482,0c0.3046,-0.08702 0.60912,-0.17404 0.91367,-0.26106c4.01179,-1.14621 7.63378,-0.84246 11.07079,-1.35558c4.68394,-0.69928 7.48563,-3.0543 12.31839,-3.61487c2.77619,-0.32203 10.46542,0.71291 14.40078,0.71291c10.6709,0 21.33013,-0.34865 31.63076,0.90373c5.7865,0.70354 10.67673,-0.66802 13.3828,3.51797c0.39895,1.59011 3.5918,2.58397 5.26177,3.8072c2.5521,1.86938 4.6852,4.63792 6.66007,6.70768c4.89565,5.13096 7.04824,10.4084 10.11771,15.67022c2.74309,5.54643 0.95312,12.42416 0.95312,18.1941c0,3.18998 0.87983,5.43827 -3.16307,8.1335c-1.40979,0.93987 -14.43432,0 -16.60615,0c-15.14102,0 -32.83222,-0.22899 -47.51695,-2.32677c-16.13248,-2.69453 -35.33582,0.93689 -52.01087,-0.96877c-13.43743,-1.72952 -34.17857,2.87774 -45.18281,-3.03054c-1.08947,-0.58496 0,-5.36287 0,-6.32605c0,-8.43476 0,-16.86946 0,-25.30419c0,-2.82004 -2.17549,-9.55303 1.12475,-11.653c5.75914,-3.66465 16.53739,-2.80656 24.97057,-2.80656z" data-paper-data="{&quot;index&quot;:null}" fill="#000000" stroke="none" stroke-width="1.5" stroke-linecap="butt"/><path d="M409.97628,308.44124c1.51209,-0.18312 3.05792,-0.4395 4.61163,-0.88341c1.98268,-0.56647 6.71986,-1.45062 4.652,-2.36348c1.13053,0.29252 2.65139,0.64964 3.45386,0.74573c3.80195,0.45516 8.7733,0.00453 12.69637,0.00453c10.76294,0 21.28005,-0.21628 31.69852,0.92905c4.70842,0.51759 6.01256,-1.07397 7.45839,1.16254c2.9823,3.75253 8.61704,7.12811 12.22153,10.90583c4.88517,5.11995 6.78614,10.09715 9.78092,15.23101c3.38897,4.22787 0.61359,12.37653 0.61359,17.08229c0,1.25964 -0.95657,3.50824 -0.0486,4.43544c-0.90256,0.04683 -1.77555,0.09072 -2.33081,0.09072c-3.69027,0 -7.38697,0.00568 -11.07723,0.00568c-14.67939,0 -31.80408,-0.15197 -46.05194,-2.18735c-16.91691,-2.17133 -35.41916,0.92484 -52.47215,-1.02403c-9.33861,-0.97745 -19.54706,-0.41705 -29.05537,-0.41017c-4.82355,0.00348 -8.95792,-1.04726 -11.0745,0.89985c-0.55631,0.51178 -0.00238,-1.20767 -0.00238,-1.81014c0,-1.50619 -0.00543,-3.01974 -0.00543,-4.52591c0,-8.43476 -0.00658,-16.91964 -0.00658,-25.35437c0,-1.99403 0.92433,-9.14523 -0.96806,-9.91719c0.35504,-0.01214 0.7571,-0.03233 0.978,-0.04154c1.95694,-0.08159 3.05283,-0.02298 4.58006,-0.64567c2.65143,-1.08103 11.60476,-0.26944 15.19969,-0.26944c13.9703,0 28.01499,-0.03596 41.98523,-0.03596c0,0 3.17859,-0.0031 3.17859,-1.81053c0,-0.07418 -0.00492,-0.14534 -0.01519,-0.21357z" data-paper-data="{&quot;noHover&quot;:false,&quot;origItem&quot;:[&quot;Path&quot;,{&quot;applyMatrix&quot;:true,&quot;segments&quot;:[[[579.60736,595.76373],[0.95609,-0.20262],[0.00646,0.07548]],[[579.61718,596],[0,-0.08208],[0,2]],[[577.61718,598],[0,0],[-8.83333,0]],[[551.11718,598],[8.83333,0],[-2.27308,0]],[[541.51161,598.28885],[1.67648,-1.19621],[-0.96568,0.68904]],[[538.61718,599],[1.23739,-0.09027],[-0.13966,0.01019]],[[537.99901,599.04541],[0.22447,-0.0134],[1.19653,0.85421]],[[538.61718,610],[0,-2.20646],[0,9.33333]],[[538.61718,638],[0,-9.33333],[0,1.66667]],[[538.61718,643],[0,-1.66667],[0,0.66667]],[[538.61718,645],[-0.35177,0.56631],[1.33831,-2.15456]],[[545.61718,644],[-3.04994,0.00386],[6.01206,-0.00761]],[[563.97058,644.43107],[-5.90478,-1.08158],[10.78253,2.15651]],[[597.04254,645.54479],[-10.6965,-2.40266],[9.00888,2.25222]],[[626.11718,648],[-9.28168,0],[2.33333,0]],[[633.11718,648],[-2.33333,0],[0.35109,0]],[[634.59021,647.90091],[-0.5707,0.05184],[-0.57412,-1.02596]],[[634.61718,643],[0,1.39387],[0,-5.20707]],[[634.21982,624.13246],[2.14282,4.67827],[-1.8936,-5.6808]],[[628.03948,607.31672],[3.08887,5.66543],[-2.2791,-4.1802]],[[620.32688,595.27881],[1.8857,4.15235],[-0.91417,-2.47477]],[[615.61718,594],[2.9771,0.57275],[-6.58756,-1.26734]],[[595.61718,593],[6.8054,0],[-2.48058,0]],[[587.61718,593],[2.40395,0.50364],[-0.50743,-0.10631]],[[585.44122,592.1748],[0.71481,0.32365],[1.30749,1.01011]],[[582.51161,594.78885],[1.25365,-0.62682],[-0.98239,0.4912]]],&quot;closed&quot;:true}],&quot;index&quot;:null}" fill="#484848" stroke="none" stroke-width="1.5" stroke-linecap="butt"/><path d="M454.31894,315.06743c0,-0.20958 -0.04378,-0.56057 -0.08567,-0.90538c-0.16292,0.13993 -0.40593,0.25919 -0.71847,0.36066c-0.93719,0.54467 -2.35896,0.54469 -2.35896,0.54469c-12.04819,0 -19.00706,4.79819 -23.26623,9.84554c-0.50107,0.57265 -0.45679,1.26261 -0.45679,1.90284c0,0.18216 -0.03052,0.47165 -0.06383,0.77111c0.03184,-0.09637 0.11139,-0.17559 0.27332,-0.22647c0.7154,-0.2247 6.93497,1.15033 7.69818,0.35912c0.22937,-0.23776 -1.12498,-0.28258 -1.05029,-0.55073c0.91867,-3.29654 10.66169,-8.28284 15.4511,-9.65124c1.24223,-0.35491 2.64054,-0.53347 4.03068,-0.61525c-0.54352,-0.48367 0.54694,-1.22401 0.54694,-1.83483zM427.35231,327.73652c-0.07173,0.64257 -0.13542,1.25681 0.08047,0.88675c0.14756,-0.25288 -0.06545,-0.60788 -0.08047,-0.88675zM422.23139,323.29633c4.5207,-4.86983 10.53312,-9.31012 19.90269,-11.0578c0.88016,-0.78595 2.69565,-0.78595 2.69565,-0.78595h1.58153c3.58106,0 5.47569,-0.71288 9.32226,-0.71288c5.34198,0 6.58027,6.06978 3.78682,7.84727c-1.76275,1.12167 -4.59024,1.4897 -6.94994,2.1639c-6.98472,1.99561 -9.57642,7.73022 -17.22993,10.58357c-8.11179,3.0242 -17.04221,-3.54318 -13.10912,-8.03806z" data-paper-data="{&quot;index&quot;:null}" fill="#000000" stroke="none" stroke-width="1.5" stroke-linecap="butt"/><path d="M454.35082,314.10158c0.04198,0.3448 0.0931,0.70079 0.0931,0.91038c0,0.61083 -1.07747,1.36228 -0.53397,1.84601c-1.39016,0.08176 -2.79652,0.25296 -4.03876,0.60791c-4.78949,1.36841 -14.57953,6.32942 -15.49815,9.62595c-0.07478,0.26815 1.12936,0.47167 0.89998,0.70947c-0.76319,0.79118 -7.03661,-0.6076 -7.75206,-0.38292c-0.16197,0.05089 -0.24072,0.13056 -0.27253,0.22699c0.03331,-0.29948 0.05795,-0.59311 0.05795,-0.77526c0,-0.64021 -0.05808,-1.34275 0.443,-1.91541c4.25915,-5.04737 11.4692,-9.95167 23.51735,-9.95167c0,0 1.42822,0.00387 2.36539,-0.54082c0.31254,-0.10149 0.55571,-0.22076 0.71854,-0.36066z" data-paper-data="{&quot;noHover&quot;:false,&quot;origItem&quot;:[&quot;Path&quot;,{&quot;applyMatrix&quot;:true,&quot;segments&quot;:[[[607.563,601.99816],[0.02649,0.38155],[-0.10299,0.15484]],[[607.10872,602.39727],[0.1976,-0.11227],[-0.59254,0.60273]],[[605.61718,603],[0,0],[-7.618,0]],[[590.90604,613.89443],[2.69308,-5.58508],[-0.31682,0.63364]],[[590.61718,616],[0,-0.70843],[0,0.20156]],[[590.57685,616.85325],[0.02106,-0.33136],[0.02013,-0.10671]],[[590.74964,616.60263],[-0.10238,0.05628],[0.45234,-0.24865]],[[595.61718,617],[-0.48256,0.87548],[0.14503,-0.26312]],[[594.95308,616.3906],[-0.04725,0.29671],[0.58086,-3.64773]],[[604.72276,605.71115],[-3.02833,1.51416],[0.78545,-0.39273]],[[607.27135,605.03032],[-0.87898,0.0905],[-0.34365,-0.53523]],[[607.61718,603],[0,0.6759],[0,-0.23192]]],&quot;closed&quot;:true}],&quot;index&quot;:null}" fill="#ffffff" stroke="none" stroke-width="1.5" stroke-linecap="butt"/><path d="M211.50664,309.75145l20.5451,-40.13805l57.40539,-0.35837l-12.08534,40.49642z" data-paper-data="{&quot;index&quot;:null}" fill="#cedce9" stroke="#000000" stroke-width="1.5" stroke-linecap="round"/><path d="M206.04631,307.64687c-1.98267,-0.56646 -6.7011,-1.44951 -4.63328,-2.36241c-1.13056,0.29253 -2.63883,0.64966 -3.44138,0.74575c-3.80194,0.45516 -8.72912,0 -12.65234,0c-10.76298,0 -21.21224,-0.2416 -31.63075,0.90372c-4.70843,0.51761 -6.00276,-1.08082 -7.44858,1.15568c-2.98229,3.75256 -8.59334,7.1012 -12.19775,10.87893c-4.88517,5.12 -6.7796,10.06284 -9.77442,15.19673c-3.38892,4.22786 -0.62842,12.34523 -0.62842,17.05098c0,1.25964 0.95065,3.50185 0.04268,4.42905c0.90262,0.04683 1.77442,0.08957 2.32962,0.08957c3.69027,0 7.38049,0 11.07079,0c14.67932,0 31.73473,-0.18342 45.98262,-2.21879c16.9169,-2.17133 35.25156,0.94236 52.30454,-1.00651c9.33862,-0.97745 19.51828,-0.39643 29.02658,-0.38954c4.82359,0.0035 8.95418,-1.04341 11.07076,0.90373c0.55631,0.5118 0,-1.20496 0,-1.80741c0,-1.50617 0,-3.01241 0,-4.5186c0,-8.43473 0,-16.86945 0,-25.3042c0,-1.99403 -0.91471,-9.12792 0.97765,-9.89988c-0.35499,-0.01213 -0.75675,-0.03183 -0.97765,-0.04104c-1.95703,-0.08159 -3.05039,-0.01996 -4.57767,-0.64264c-2.65143,-1.08105 -11.59665,-0.26105 -15.19157,-0.26105c-13.97022,0 -27.94046,0 -41.91074,0c0,0 -3.16307,0 -3.16307,-1.80741c0,-0.07421 0.0053,-0.14533 0.01553,-0.21352c-1.51209,-0.18312 -3.03954,-0.43712 -4.59318,-0.88103zM255.69779,306.93404c8.43319,0 19.21144,-0.85808 24.97057,2.80657c3.30025,2.09997 1.12475,8.83295 1.12475,11.65299c0,8.43473 0,16.86945 0,25.3042c0,0.96318 1.08947,5.74109 0,6.32605c-11.00424,5.90828 -31.74539,1.30101 -45.18282,3.03054c-16.67505,1.90566 -35.87839,-1.72577 -52.01087,0.96877c-14.68473,2.09778 -32.37593,2.32677 -47.51695,2.32677c-2.17183,0 -15.19636,0.93987 -16.60615,0c-4.04289,-2.69522 -3.16307,-4.94352 -3.16307,-8.1335c0,-5.76994 -1.78997,-12.64768 0.95312,-18.1941c3.06948,-5.26182 5.22206,-10.53926 10.11771,-15.67022c1.97488,-2.06975 4.10797,-4.83831 6.66007,-6.70768c1.66997,-1.22322 4.86282,-2.21708 5.26178,-3.80719c2.70607,-4.18599 7.5963,-2.81442 13.3828,-3.51797c10.30063,-1.25238 20.95986,-0.90373 31.63076,-0.90373c3.93536,0 11.62458,-1.03493 14.40078,-0.71291c4.83275,0.56056 7.63445,2.91559 12.31839,3.61487c3.43701,0.51312 7.05899,0.20936 11.07079,1.35558c0.30455,0.08702 0.60908,0.17404 0.91368,0.26106c10.55826,0 21.11653,0 31.67482,0z" data-paper-data="{&quot;index&quot;:null}" fill="#000000" stroke="none" stroke-width="1.5" stroke-linecap="butt"/><path d="M210.6834,308.44115c-0.01027,0.06823 -0.01518,0.13938 -0.01518,0.21357c0,1.80743 3.17859,1.81053 3.17859,1.81053c13.97024,0 28.01493,0.03596 41.98523,0.03596c3.59493,0 12.54826,-0.8116 15.19969,0.26944c1.52723,0.62269 2.62312,0.56407 4.58006,0.64567c0.2209,0.00921 0.62296,0.0294 0.978,0.04154c-1.89239,0.77196 -0.96805,7.92317 -0.96805,9.9172c0,8.43473 -0.00658,16.91961 -0.00658,25.35437c0,1.50616 -0.00544,3.01971 -0.00544,4.52591c0,0.60248 0.55394,2.32192 -0.00238,1.81014c-2.11658,-1.94711 -6.25095,-0.89636 -11.07449,-0.89984c-9.50831,-0.00688 -19.71676,-0.56727 -29.05538,0.41017c-17.05299,1.94888 -35.55523,-1.14729 -52.47215,1.02403c-14.24786,2.03538 -31.37255,2.18735 -46.05194,2.18735c-3.69026,0 -7.38697,-0.00568 -11.07724,-0.00568c-0.55526,0 -1.42824,-0.04388 -2.33081,-0.09071c0.90797,-0.9272 -0.0486,-3.1758 -0.0486,-4.43544c0,-4.70575 -2.77539,-12.85441 0.61358,-17.08229c2.99479,-5.13386 4.89575,-10.11105 9.78092,-15.23101c3.60448,-3.77772 9.23923,-7.15331 12.22153,-10.90583c1.44583,-2.23651 2.74998,-0.64495 7.45839,-1.16254c10.41848,-1.14533 20.93558,-0.92905 31.69852,-0.92905c3.92308,0 8.89442,0.45064 12.69637,-0.00453c0.80247,-0.0961 2.32334,-0.45322 3.45386,-0.74573c-2.06786,0.91286 2.66933,1.79701 4.652,2.36348c1.55371,0.44391 3.09953,0.70029 4.61163,0.88341z" data-paper-data="{&quot;noHover&quot;:false,&quot;origItem&quot;:[&quot;Path&quot;,{&quot;applyMatrix&quot;:true,&quot;segments&quot;:[[[579.60736,595.76373],[0.95609,-0.20262],[0.00646,0.07548]],[[579.61718,596],[0,-0.08208],[0,2]],[[577.61718,598],[0,0],[-8.83333,0]],[[551.11718,598],[8.83333,0],[-2.27308,0]],[[541.51161,598.28885],[1.67648,-1.19621],[-0.96568,0.68904]],[[538.61718,599],[1.23739,-0.09027],[-0.13966,0.01019]],[[537.99901,599.04541],[0.22447,-0.0134],[1.19653,0.85421]],[[538.61718,610],[0,-2.20646],[0,9.33333]],[[538.61718,638],[0,-9.33333],[0,1.66667]],[[538.61718,643],[0,-1.66667],[0,0.66667]],[[538.61718,645],[-0.35177,0.56631],[1.33831,-2.15456]],[[545.61718,644],[-3.04994,0.00386],[6.01206,-0.00761]],[[563.97058,644.43107],[-5.90478,-1.08158],[10.78253,2.15651]],[[597.04254,645.54479],[-10.6965,-2.40266],[9.00888,2.25222]],[[626.11718,648],[-9.28168,0],[2.33333,0]],[[633.11718,648],[-2.33333,0],[0.35109,0]],[[634.59021,647.90091],[-0.5707,0.05184],[-0.57412,-1.02596]],[[634.61718,643],[0,1.39387],[0,-5.20707]],[[634.21982,624.13246],[2.14282,4.67827],[-1.8936,-5.6808]],[[628.03948,607.31672],[3.08887,5.66543],[-2.2791,-4.1802]],[[620.32688,595.27881],[1.8857,4.15235],[-0.91417,-2.47477]],[[615.61718,594],[2.9771,0.57275],[-6.58756,-1.26734]],[[595.61718,593],[6.8054,0],[-2.48058,0]],[[587.61718,593],[2.40395,0.50364],[-0.50743,-0.10631]],[[585.44122,592.1748],[0.71481,0.32365],[1.30749,1.01011]],[[582.51161,594.78885],[1.25365,-0.62682],[-0.98239,0.4912]]],&quot;closed&quot;:true}],&quot;index&quot;:null}" fill="#484848" stroke="none" stroke-width="1.5" stroke-linecap="butt"/><path d="M166.34093,315.06748c0,0.61083 1.09045,1.35117 0.54694,1.83483c1.39014,0.08178 2.78846,0.26034 4.03069,0.61525c4.78941,1.3684 14.53243,6.3547 15.4511,9.65124c0.07469,0.26814 -1.27966,0.31297 -1.05029,0.55073c0.7632,0.79121 6.98276,-0.58382 7.69817,-0.35912c0.16193,0.05088 0.24148,0.1301 0.27332,0.22647c-0.03331,-0.29945 -0.06383,-0.58895 -0.06383,-0.77111c0,-0.64022 0.04427,-1.33018 -0.4568,-1.90284c-4.25916,-5.04736 -11.21804,-9.84554 -23.26623,-9.84554c0,0 -1.42176,-0.00001 -2.35895,-0.54468c-0.31255,-0.10147 -0.55555,-0.22073 -0.71848,-0.36066c-0.04188,0.34481 -0.08567,0.6958 -0.08567,0.90538zM193.22706,328.62327c0.21589,0.37006 0.1522,-0.24418 0.08047,-0.88675c-0.01502,0.27887 -0.22803,0.63387 -0.08047,0.88675zM198.4285,323.29638c3.93308,4.49487 -4.99734,11.06226 -13.10912,8.03806c-7.65352,-2.85335 -10.24522,-8.58797 -17.22994,-10.58358c-2.35969,-0.67419 -5.18718,-1.04222 -6.94993,-2.16389c-2.79345,-1.7775 -1.55517,-7.84727 3.78682,-7.84727c3.84657,0 5.7412,0.71288 9.32226,0.71288h1.58153c0,0 1.81549,-0.00001 2.69565,0.78595c9.36958,1.74768 15.382,6.18797 19.90269,11.0578z" data-paper-data="{&quot;index&quot;:null}" fill="#000000" stroke="none" stroke-width="1.5" stroke-linecap="butt"/><path d="M166.30918,314.10155c0.16284,0.1399 0.40599,0.25918 0.71854,0.36066c0.93717,0.54468 2.36539,0.54081 2.36539,0.54081c12.04815,0 19.25821,4.90431 23.51736,9.95167c0.50108,0.57266 0.443,1.2752 0.443,1.91541c0,0.18215 0.02463,0.47578 0.05794,0.77526c-0.0318,-0.09643 -0.11055,-0.17611 -0.27253,-0.227c-0.71545,-0.22469 -6.98885,1.1741 -7.75205,0.38293c-0.22938,-0.23781 0.97476,-0.44132 0.89998,-0.70947c-0.91863,-3.29653 -10.70867,-8.25754 -15.49816,-9.62595c-1.24224,-0.35495 -2.64859,-0.52615 -4.03876,-0.60791c0.54349,-0.48372 -0.53397,-1.23517 -0.53397,-1.84601c0,-0.20958 0.05111,-0.56558 0.0931,-0.91038z" data-paper-data="{&quot;noHover&quot;:false,&quot;origItem&quot;:[&quot;Path&quot;,{&quot;applyMatrix&quot;:true,&quot;segments&quot;:[[[607.563,601.99816],[0.02649,0.38155],[-0.10299,0.15484]],[[607.10872,602.39727],[0.1976,-0.11227],[-0.59254,0.60273]],[[605.61718,603],[0,0],[-7.618,0]],[[590.90604,613.89443],[2.69308,-5.58508],[-0.31682,0.63364]],[[590.61718,616],[0,-0.70843],[0,0.20156]],[[590.57685,616.85325],[0.02106,-0.33136],[0.02013,-0.10671]],[[590.74964,616.60263],[-0.10238,0.05628],[0.45234,-0.24865]],[[595.61718,617],[-0.48256,0.87548],[0.14503,-0.26312]],[[594.95308,616.3906],[-0.04725,0.29671],[0.58086,-3.64773]],[[604.72276,605.71115],[-3.02833,1.51416],[0.78545,-0.39273]],[[607.27135,605.03032],[-0.87898,0.0905],[-0.34365,-0.53523]],[[607.61718,603],[0,0.6759],[0,-0.23192]]],&quot;closed&quot;:true}],&quot;index&quot;:null}" fill="#ffffff" stroke="none" stroke-width="1.5" stroke-linecap="butt"/><g><g stroke="#000000" stroke-width="1" stroke-linecap="round"><path d="M243.84377,-47.13298l4.55694,1.84206l353.16288,135.07516l-96.14395,282.10897l-366.93108,-122.28081l4.18592,-10.32937l95.29011,-268.45129z" fill="#747474"/><path d="M221.54762,-55.40051l0.9007,-8.88767l406.28653,153.59558l-7.25241,7.9799l-398.35518,-152.11836z" fill="#c8dce3"/><path d="M271.94031,-1.76767l86.86909,32.46565l-19.29977,55.45658l-84.70051,-31.45363z" fill="#212121"/><path d="M562.89662,97.52972l-18.54136,55.26936l-83.64112,-29.92018l20.13166,-55.84763z" fill="#212121"/><path d="M517.64535,232.64576l-27.05829,74.42402l-83.73118,-29.03142l26.52029,-74.84825z" fill="#212121"/><path d="M351.0309,310.71315l-41.27901,-13.26788l35.88103,-103.37172l40.43052,14.34386z" fill="#483526"/><path d="M285.13176,235.88722l-90.31992,-28.64279l24.9904,-72.52089l91.88412,31.97035z" fill="#212121"/><path d="M175.19419,87.72452l401.76222,140.90986l-3.60019,9.98735l-403.09496,-138.62656z" fill="#c8dce3"/></g><path d="M381.1958,37.0576c5.16621,0.15704 14.64522,-0.1043 18.24104,4.42933c2.21768,2.79607 3.5791,6.40337 4.46701,9.80993c1.61998,6.14218 3.00964,13.97209 2.26403,20.33323c-0.2408,2.05433 -2.0032,3.25409 -3.34007,4.53236c-6.00849,5.74508 -14.21669,6.56528 -21.72556,3.85852c-1.71292,-0.61747 -3.54154,-1.00838 -5.16387,-1.83512c-4.84184,-2.46747 -6.6119,-8.49092 -9.11576,-12.77108c-0.71245,-1.21786 -1.67376,-2.41768 -1.86143,-3.81606c-0.63431,-4.72659 1.83015,-12.6191 4.27719,-16.79255c1.65202,-1.31887 6.64852,-5.16786 5.61128,-7.74594c-0.06423,-0.15965 -0.13419,-0.30637 -0.20945,-0.44085c2.39266,-0.07853 5.24332,0.39837 6.55562,0.43824z" data-paper-data="{&quot;noHover&quot;:false,&quot;origItem&quot;:[&quot;Path&quot;,{&quot;applyMatrix&quot;:true,&quot;segments&quot;:[[[194.05733,121.9196],[1.55176,-0.61762],[0.08119,0.07045]],[[194.29913,122.15934],[-0.07992,-0.08958],[1.29071,1.44664]],[[192.45851,128.55393],[0.77222,-1.25644],[-0.61865,3.31804]],[[193.62163,140.54897],[-1.53455,-2.95207],[0.45401,0.87339]],[[195.7412,142.60513],[-0.75571,-0.63074],[2.65595,2.21676]],[[204.71489,148.81137],[-3.76156,-0.47393],[1.26035,0.15879]],[[208.52578,148.79333],[-1.27031,0],[5.56857,0]],[[221.83063,141.14757],[-2.58427,5.19213],[0.57499,-1.15524]],[[222.94615,137.39414],[0.32798,1.40525],[-1.01559,-4.35132]],[[216.66277,124.6318],[2.51637,3.64795],[-1.3887,-2.02571]],[[211.43267,119.26329],[2.11701,1.31044],[-3.4326,-2.12479]],[[198.45454,120.66442],[3.42782,-1.11919],[-0.87071,0.28429]]],&quot;closed&quot;:true}]}" fill="#ffffff" stroke="#000000" stroke-width="2.5" stroke-linecap="butt"/><path d="M445.08328,51.45768c1.50962,2.26957 2.33699,5.16509 3.75071,7.52824c1.35648,7.28251 0.80498,21.2034 -7.11605,25.02329c-3.46142,1.66924 -7.36463,0.54708 -10.93187,-0.09437c-3.47338,-1.23668 -8.8104,-1.28952 -11.85809,-3.59255c-2.17956,-1.64702 -2.49868,-3.85286 -3.30887,-6.29739c-2.00675,-6.05483 -3.40143,-12.09265 -1.14709,-18.32422c1.35854,-3.76875 2.24002,-8.96247 5.05942,-12.06762c8.44206,1.11413 20.48869,0.2126 25.55183,7.8246z" data-paper-data="{&quot;noHover&quot;:false,&quot;origItem&quot;:[&quot;Path&quot;,{&quot;applyMatrix&quot;:true,&quot;segments&quot;:[[[225.17986,115.90187],[5.80425,-1.26606],[-1.11578,2.70499]],[[224.72578,124.99333],[0,-2.7949],[-0.00526,4.62323]],[[229.79614,136.70314],[-2.74954,-3.49913],[1.11007,1.41271]],[[233.44201,140.04465],[-1.82014,-0.56532],[2.54512,0.79049]],[[242.0433,139.59674],[-2.57223,0.01011],[2.493,-0.42297]],[[249.21868,137.08622],[-1.87686,1.91447],[4.29499,-4.38105]],[[247.96628,119.04383],[2.61322,4.45871],[-1.48694,-1.21651]],[[243.74107,115.00457],[1.52773,1.1324],[-5.12392,-3.79802]]],&quot;closed&quot;:true}]}" fill="#ffffff" stroke="#000000" stroke-width="2.5" stroke-linecap="butt"/><path d="M397.01528,61.29967c0.60402,-1.67562 2.45204,-2.54433 4.12765,-1.94031c1.67561,0.60402 2.54431,2.45203 1.94029,4.12765c-0.60402,1.67562 -2.45203,2.54433 -4.12764,1.94031c-1.67561,-0.60402 -2.54433,-2.45204 -1.94031,-4.12765z" fill="#000000" stroke="none" stroke-width="0.5" stroke-linecap="butt"/><path d="M440.57647,68.58757c0.60402,-1.67562 2.45204,-2.54433 4.12765,-1.94031c1.67561,0.60402 2.54433,2.45204 1.94031,4.12765c-0.60402,1.67562 -2.45204,2.54433 -4.12765,1.94031c-1.67561,-0.60402 -2.54433,-2.45204 -1.94031,-4.12765z" fill="#000000" stroke="none" stroke-width="0.5" stroke-linecap="butt"/><path d="M405.33734,28.47904l-42.90517,-58.28286" fill="none" stroke="#000000" stroke-width="3" stroke-linecap="round"/><path d="M494.61815,18.54245l-69.73856,12.71338" fill="none" stroke="#000000" stroke-width="3" stroke-linecap="round"/><path d="M345.78491,141.93905c-0.94074,-0.33912 -0.60163,-1.27986 -0.60163,-1.27986l0.25355,-0.70337c3.73706,-10.36698 7.0016,-20.86853 11.20754,-31.06663c3.65452,-5.85802 8.06785,-9.05879 13.46135,-13.19008c5.18189,-3.9692 10.82303,-8.02962 17.2319,-9.60374c6.41761,-0.79956 13.6416,-1.0696 20.00726,0.25442c1.93095,0.40162 3.80607,1.23397 5.75284,1.55401c4.98134,0.81891 9.36444,1.92117 13.92417,4.2113c1.98037,1.55365 4.34618,3.06227 6.08443,4.89261c8.35476,8.79735 7.45838,19.95224 6.01781,31.02048c-1.07208,8.21369 -3.16445,16.52806 -5.26547,24.53152c-0.78753,2.99996 -1.13533,6.79709 -4.61359,7.43075c0,0 -0.99309,0.1174 -1.11049,-0.87569c-0.1174,-0.99309 0.87569,-1.11048 0.87569,-1.11048c2.04539,0.02066 2.50081,-4.37868 2.91394,-5.9524c2.07954,-7.92163 4.16162,-16.15168 5.21665,-24.28182c1.3582,-10.43542 2.42486,-21.06601 -5.48439,-29.3847c-1.63015,-1.71454 -3.85605,-3.11436 -5.70598,-4.58145c-4.32573,-2.14424 -8.47154,-3.14225 -13.17946,-3.92698c-1.97691,-0.32952 -3.87326,-1.16109 -5.83354,-1.56908c-6.11118,-1.27191 -13.07565,-1.00631 -19.23705,-0.24567c-6.07971,1.50091 -11.46257,5.46169 -16.3788,9.22486c-5.15305,3.94444 -9.38506,6.94432 -12.89844,12.51634c-4.13623,10.13366 -7.39671,20.54368 -11.10487,30.83066l-0.25355,0.70337c0,0 -0.33911,0.94075 -1.27986,0.60163z" fill="#000000" stroke="none" stroke-width="0.5" stroke-linecap="butt"/></g><g fill="#bfbfbf" stroke="#000000" stroke-width="2.5"><path d="M60.02139,145.57186c4.86715,-14.75478 20.77388,-22.77028 35.52865,-17.90313c14.75478,4.86715 22.77028,20.77388 17.90313,35.52865c-4.86715,14.75478 -20.77388,22.77028 -35.52865,17.90313c-14.75478,-4.86715 -22.77028,-20.77388 -17.90313,-35.52865z" stroke-linecap="butt"/><path d="M68.9929,132.46132l-73.68896,-158.51488l8.75517,-26.54128l13.77406,-20.62618l14.624,-9.1162l61.58922,134.93595l-6.00852,12.34541l-4.38121,12.10776l-0.86717,20.23704l1.92665,21.15864l4.20887,7.1968l-10.6927,1.89399z" stroke-linecap="round"/><path d="M105.04936,174.97824l73.68896,158.51488l-8.75517,26.54128l-13.77406,20.62618l-14.624,9.1162l-61.58922,-134.93595l6.00852,-12.34541l4.38121,-12.10775l0.86716,-20.23704l-1.92665,-21.15864l-4.20887,-7.1968l10.69271,-1.894z" data-paper-data="{&quot;index&quot;:null}" stroke-linecap="round"/></g></g></g></svg>