<svg version="1.1" xmlns="http://www.w3.org/2000/svg" xmlns:xlink="http://www.w3.org/1999/xlink" width="2878.25006" height="1619.57958" viewBox="0,0,2878.25006,1619.57958"><g transform="translate(1117.37278,629.80931)"><g data-paper-data="{&quot;isPaintingLayer&quot;:true}" fill-rule="nonzero" stroke-linejoin="miter" stroke-miterlimit="10" stroke-dasharray="" stroke-dashoffset="0" style="mix-blend-mode: normal"><path d="M-1117.37278,989.77027v-1619.57958h2878.25006v1619.57958z" fill="none" stroke="#000000" stroke-width="0" stroke-linecap="butt"/><path d="M343.28805,309.75145l-12.08534,-40.49642l57.40539,0.35837l20.5451,40.13805z" fill="#cedce9" stroke="#000000" stroke-width="1.5" stroke-linecap="round"/><path d="M414.61353,307.647c-1.55364,0.4439 -3.08109,0.6979 -4.59318,0.88103c0.01024,0.0682 0.01554,0.13932 0.01554,0.21353c0,1.80741 -3.16307,1.80741 -3.16307,1.80741c-13.97028,0 -27.94052,0 -41.91074,0c-3.59492,0 -12.54013,-0.81999 -15.19156,0.26106c-1.52728,0.62269 -2.62064,0.56105 -4.57767,0.64264c-0.22089,0.00921 -0.62266,0.02891 -0.97764,0.04104c1.89236,0.77195 0.97764,7.90586 0.97764,9.89988c0,8.43476 0,16.86947 0,25.30419c0,1.50619 0,3.01243 0,4.5186c0,0.60245 -0.55631,2.31921 0,1.80741c2.11659,-1.94713 6.24717,-0.90023 11.07076,-0.90373c9.5083,-0.00689 19.68796,-0.5879 29.02658,0.38955c17.05298,1.94886 35.38765,-1.16483 52.30454,1.0065c14.24789,2.03536 31.30331,2.21879 45.98262,2.21879c3.6903,0 7.38052,0 11.07079,0c0.55521,0 1.427,-0.04273 2.32962,-0.08957c-0.90797,-0.9272 0.04268,-3.16941 0.04268,-4.42905c0,-4.70575 2.76051,-12.82312 -0.62842,-17.05098c-2.99482,-5.13389 -4.88925,-10.07674 -9.77442,-15.19673c-3.60441,-3.77774 -9.21547,-7.12637 -12.19775,-10.87893c-1.44581,-2.23651 -2.74014,-0.63808 -7.44858,-1.15569c-10.41851,-1.14532 -20.86777,-0.90372 -31.63076,-0.90372c-3.92322,0 -8.8504,0.45516 -12.65234,0c-0.80256,-0.09609 -2.31082,-0.45322 -3.44138,-0.74575c2.06782,0.9129 -2.65062,1.79594 -4.63328,2.36241zM364.96189,306.93411c10.55828,0 21.11657,0 31.67482,0c0.3046,-0.08702 0.60912,-0.17404 0.91367,-0.26106c4.01179,-1.14621 7.63378,-0.84246 11.07079,-1.35558c4.68394,-0.69928 7.48563,-3.0543 12.31839,-3.61487c2.77619,-0.32203 10.46542,0.71291 14.40078,0.71291c10.6709,0 21.33013,-0.34865 31.63076,0.90373c5.7865,0.70354 10.67673,-0.66802 13.3828,3.51797c0.39895,1.59011 3.5918,2.58397 5.26177,3.8072c2.5521,1.86938 4.6852,4.63792 6.66007,6.70768c4.89565,5.13096 7.04824,10.4084 10.11771,15.67022c2.74309,5.54643 0.95312,12.42416 0.95312,18.1941c0,3.18998 0.87983,5.43827 -3.16307,8.1335c-1.40979,0.93987 -14.43432,0 -16.60615,0c-15.14102,0 -32.83222,-0.22899 -47.51695,-2.32677c-16.13248,-2.69453 -35.33582,0.93689 -52.01087,-0.96877c-13.43743,-1.72952 -34.17857,2.87774 -45.18281,-3.03054c-1.08947,-0.58496 0,-5.36287 0,-6.32605c0,-8.43476 0,-16.86946 0,-25.30419c0,-2.82004 -2.17549,-9.55303 1.12475,-11.653c5.75914,-3.66465 16.53739,-2.80656 24.97057,-2.80656z" data-paper-data="{&quot;index&quot;:null}" fill="#000000" stroke="none" stroke-width="1.5" stroke-linecap="butt"/><path d="M409.97628,308.44124c1.51209,-0.18312 3.05792,-0.4395 4.61163,-0.88341c1.98268,-0.56647 6.71986,-1.45062 4.652,-2.36348c1.13053,0.29252 2.65139,0.64964 3.45386,0.74573c3.80195,0.45516 8.7733,0.00453 12.69637,0.00453c10.76294,0 21.28005,-0.21628 31.69852,0.92905c4.70842,0.51759 6.01256,-1.07397 7.45839,1.16254c2.9823,3.75253 8.61704,7.12811 12.22153,10.90583c4.88517,5.11995 6.78614,10.09715 9.78092,15.23101c3.38897,4.22787 0.61359,12.37653 0.61359,17.08229c0,1.25964 -0.95657,3.50824 -0.0486,4.43544c-0.90256,0.04683 -1.77555,0.09072 -2.33081,0.09072c-3.69027,0 -7.38697,0.00568 -11.07723,0.00568c-14.67939,0 -31.80408,-0.15197 -46.05194,-2.18735c-16.91691,-2.17133 -35.41916,0.92484 -52.47215,-1.02403c-9.33861,-0.97745 -19.54706,-0.41705 -29.05537,-0.41017c-4.82355,0.00348 -8.95792,-1.04726 -11.0745,0.89985c-0.55631,0.51178 -0.00238,-1.20767 -0.00238,-1.81014c0,-1.50619 -0.00543,-3.01974 -0.00543,-4.52591c0,-8.43476 -0.00658,-16.91964 -0.00658,-25.35437c0,-1.99403 0.92433,-9.14523 -0.96806,-9.91719c0.35504,-0.01214 0.7571,-0.03233 0.978,-0.04154c1.95694,-0.08159 3.05283,-0.02298 4.58006,-0.64567c2.65143,-1.08103 11.60476,-0.26944 15.19969,-0.26944c13.9703,0 28.01499,-0.03596 41.98523,-0.03596c0,0 3.17859,-0.0031 3.17859,-1.81053c0,-0.07418 -0.00492,-0.14534 -0.01519,-0.21357z" data-paper-data="{&quot;noHover&quot;:false,&quot;origItem&quot;:[&quot;Path&quot;,{&quot;applyMatrix&quot;:true,&quot;segments&quot;:[[[579.60736,595.76373],[0.95609,-0.20262],[0.00646,0.07548]],[[579.61718,596],[0,-0.08208],[0,2]],[[577.61718,598],[0,0],[-8.83333,0]],[[551.11718,598],[8.83333,0],[-2.27308,0]],[[541.51161,598.28885],[1.67648,-1.19621],[-0.96568,0.68904]],[[538.61718,599],[1.23739,-0.09027],[-0.13966,0.01019]],[[537.99901,599.04541],[0.22447,-0.0134],[1.19653,0.85421]],[[538.61718,610],[0,-2.20646],[0,9.33333]],[[538.61718,638],[0,-9.33333],[0,1.66667]],[[538.61718,643],[0,-1.66667],[0,0.66667]],[[538.61718,645],[-0.35177,0.56631],[1.33831,-2.15456]],[[545.61718,644],[-3.04994,0.00386],[6.01206,-0.00761]],[[563.97058,644.43107],[-5.90478,-1.08158],[10.78253,2.15651]],[[597.04254,645.54479],[-10.6965,-2.40266],[9.00888,2.25222]],[[626.11718,648],[-9.28168,0],[2.33333,0]],[[633.11718,648],[-2.33333,0],[0.35109,0]],[[634.59021,647.90091],[-0.5707,0.05184],[-0.57412,-1.02596]],[[634.61718,643],[0,1.39387],[0,-5.20707]],[[634.21982,624.13246],[2.14282,4.67827],[-1.8936,-5.6808]],[[628.03948,607.31672],[3.08887,5.66543],[-2.2791,-4.1802]],[[620.32688,595.27881],[1.8857,4.15235],[-0.91417,-2.47477]],[[615.61718,594],[2.9771,0.57275],[-6.58756,-1.26734]],[[595.61718,593],[6.8054,0],[-2.48058,0]],[[587.61718,593],[2.40395,0.50364],[-0.50743,-0.10631]],[[585.44122,592.1748],[0.71481,0.32365],[1.30749,1.01011]],[[582.51161,594.78885],[1.25365,-0.62682],[-0.98239,0.4912]]],&quot;closed&quot;:true}],&quot;index&quot;:null}" fill="#484848" stroke="none" stroke-width="1.5" stroke-linecap="butt"/><path d="M454.31894,315.06743c0,-0.20958 -0.04378,-0.56057 -0.08567,-0.90538c-0.16292,0.13993 -0.40593,0.25919 -0.71847,0.36066c-0.93719,0.54467 -2.35896,0.54469 -2.35896,0.54469c-12.04819,0 -19.00706,4.79819 -23.26623,9.84554c-0.50107,0.57265 -0.45679,1.26261 -0.45679,1.90284c0,0.18216 -0.03052,0.47165 -0.06383,0.77111c0.03184,-0.09637 0.11139,-0.17559 0.27332,-0.22647c0.7154,-0.2247 6.93497,1.15033 7.69818,0.35912c0.22937,-0.23776 -1.12498,-0.28258 -1.05029,-0.55073c0.91867,-3.29654 10.66169,-8.28284 15.4511,-9.65124c1.24223,-0.35491 2.64054,-0.53347 4.03068,-0.61525c-0.54352,-0.48367 0.54694,-1.22401 0.54694,-1.83483zM427.35231,327.73652c-0.07173,0.64257 -0.13542,1.25681 0.08047,0.88675c0.14756,-0.25288 -0.06545,-0.60788 -0.08047,-0.88675zM422.23139,323.29633c4.5207,-4.86983 10.53312,-9.31012 19.90269,-11.0578c0.88016,-0.78595 2.69565,-0.78595 2.69565,-0.78595h1.58153c3.58106,0 5.47569,-0.71288 9.32226,-0.71288c5.34198,0 6.58027,6.06978 3.78682,7.84727c-1.76275,1.12167 -4.59024,1.4897 -6.94994,2.1639c-6.98472,1.99561 -9.57642,7.73022 -17.22993,10.58357c-8.11179,3.0242 -17.04221,-3.54318 -13.10912,-8.03806z" data-paper-data="{&quot;index&quot;:null}" fill="#000000" stroke="none" stroke-width="1.5" stroke-linecap="butt"/><path d="M454.35082,314.10158c0.04198,0.3448 0.0931,0.70079 0.0931,0.91038c0,0.61083 -1.07747,1.36228 -0.53397,1.84601c-1.39016,0.08176 -2.79652,0.25296 -4.03876,0.60791c-4.78949,1.36841 -14.57953,6.32942 -15.49815,9.62595c-0.07478,0.26815 1.12936,0.47167 0.89998,0.70947c-0.76319,0.79118 -7.03661,-0.6076 -7.75206,-0.38292c-0.16197,0.05089 -0.24072,0.13056 -0.27253,0.22699c0.03331,-0.29948 0.05795,-0.59311 0.05795,-0.77526c0,-0.64021 -0.05808,-1.34275 0.443,-1.91541c4.25915,-5.04737 11.4692,-9.95167 23.51735,-9.95167c0,0 1.42822,0.00387 2.36539,-0.54082c0.31254,-0.10149 0.55571,-0.22076 0.71854,-0.36066z" data-paper-data="{&quot;noHover&quot;:false,&quot;origItem&quot;:[&quot;Path&quot;,{&quot;applyMatrix&quot;:true,&quot;segments&quot;:[[[607.563,601.99816],[0.02649,0.38155],[-0.10299,0.15484]],[[607.10872,602.39727],[0.1976,-0.11227],[-0.59254,0.60273]],[[605.61718,603],[0,0],[-7.618,0]],[[590.90604,613.89443],[2.69308,-5.58508],[-0.31682,0.63364]],[[590.61718,616],[0,-0.70843],[0,0.20156]],[[590.57685,616.85325],[0.02106,-0.33136],[0.02013,-0.10671]],[[590.74964,616.60263],[-0.10238,0.05628],[0.45234,-0.24865]],[[595.61718,617],[-0.48256,0.87548],[0.14503,-0.26312]],[[594.95308,616.3906],[-0.04725,0.29671],[0.58086,-3.64773]],[[604.72276,605.71115],[-3.02833,1.51416],[0.78545,-0.39273]],[[607.27135,605.03032],[-0.87898,0.0905],[-0.34365,-0.53523]],[[607.61718,603],[0,0.6759],[0,-0.23192]]],&quot;closed&quot;:true}],&quot;index&quot;:null}" fill="#ffffff" stroke="none" stroke-width="1.5" stroke-linecap="butt"/><path d="M211.50664,309.75145l20.5451,-40.13805l57.40539,-0.35837l-12.08534,40.49642z" data-paper-data="{&quot;index&quot;:null}" fill="#cedce9" stroke="#000000" stroke-width="1.5" stroke-linecap="round"/><path d="M206.04631,307.64687c-1.98267,-0.56646 -6.7011,-1.44951 -4.63328,-2.36241c-1.13056,0.29253 -2.63883,0.64966 -3.44138,0.74575c-3.80194,0.45516 -8.72912,0 -12.65234,0c-10.76298,0 -21.21224,-0.2416 -31.63075,0.90372c-4.70843,0.51761 -6.00276,-1.08082 -7.44858,1.15568c-2.98229,3.75256 -8.59334,7.1012 -12.19775,10.87893c-4.88517,5.12 -6.7796,10.06284 -9.77442,15.19673c-3.38892,4.22786 -0.62842,12.34523 -0.62842,17.05098c0,1.25964 0.95065,3.50185 0.04268,4.42905c0.90262,0.04683 1.77442,0.08957 2.32962,0.08957c3.69027,0 7.38049,0 11.07079,0c14.67932,0 31.73473,-0.18342 45.98262,-2.21879c16.9169,-2.17133 35.25156,0.94236 52.30454,-1.00651c9.33862,-0.97745 19.51828,-0.39643 29.02658,-0.38954c4.82359,0.0035 8.95418,-1.04341 11.07076,0.90373c0.55631,0.5118 0,-1.20496 0,-1.80741c0,-1.50617 0,-3.01241 0,-4.5186c0,-8.43473 0,-16.86945 0,-25.3042c0,-1.99403 -0.91471,-9.12792 0.97765,-9.89988c-0.35499,-0.01213 -0.75675,-0.03183 -0.97765,-0.04104c-1.95703,-0.08159 -3.05039,-0.01996 -4.57767,-0.64264c-2.65143,-1.08105 -11.59665,-0.26105 -15.19157,-0.26105c-13.97022,0 -27.94046,0 -41.91074,0c0,0 -3.16307,0 -3.16307,-1.80741c0,-0.07421 0.0053,-0.14533 0.01553,-0.21352c-1.51209,-0.18312 -3.03954,-0.43712 -4.59318,-0.88103zM255.69779,306.93404c8.43319,0 19.21144,-0.85808 24.97057,2.80657c3.30025,2.09997 1.12475,8.83295 1.12475,11.65299c0,8.43473 0,16.86945 0,25.3042c0,0.96318 1.08947,5.74109 0,6.32605c-11.00424,5.90828 -31.74539,1.30101 -45.18282,3.03054c-16.67505,1.90566 -35.87839,-1.72577 -52.01087,0.96877c-14.68473,2.09778 -32.37593,2.32677 -47.51695,2.32677c-2.17183,0 -15.19636,0.93987 -16.60615,0c-4.04289,-2.69522 -3.16307,-4.94352 -3.16307,-8.1335c0,-5.76994 -1.78997,-12.64768 0.95312,-18.1941c3.06948,-5.26182 5.22206,-10.53926 10.11771,-15.67022c1.97488,-2.06975 4.10797,-4.83831 6.66007,-6.70768c1.66997,-1.22322 4.86282,-2.21708 5.26178,-3.80719c2.70607,-4.18599 7.5963,-2.81442 13.3828,-3.51797c10.30063,-1.25238 20.95986,-0.90373 31.63076,-0.90373c3.93536,0 11.62458,-1.03493 14.40078,-0.71291c4.83275,0.56056 7.63445,2.91559 12.31839,3.61487c3.43701,0.51312 7.05899,0.20936 11.07079,1.35558c0.30455,0.08702 0.60908,0.17404 0.91368,0.26106c10.55826,0 21.11653,0 31.67482,0z" data-paper-data="{&quot;index&quot;:null}" fill="#000000" stroke="none" stroke-width="1.5" stroke-linecap="butt"/><path d="M210.6834,308.44115c-0.01027,0.06823 -0.01518,0.13938 -0.01518,0.21357c0,1.80743 3.17859,1.81053 3.17859,1.81053c13.97024,0 28.01493,0.03596 41.98523,0.03596c3.59493,0 12.54826,-0.8116 15.19969,0.26944c1.52723,0.62269 2.62312,0.56407 4.58006,0.64567c0.2209,0.00921 0.62296,0.0294 0.978,0.04154c-1.89239,0.77196 -0.96805,7.92317 -0.96805,9.9172c0,8.43473 -0.00658,16.91961 -0.00658,25.35437c0,1.50616 -0.00544,3.01971 -0.00544,4.52591c0,0.60248 0.55394,2.32192 -0.00238,1.81014c-2.11658,-1.94711 -6.25095,-0.89636 -11.07449,-0.89984c-9.50831,-0.00688 -19.71676,-0.56727 -29.05538,0.41017c-17.05299,1.94888 -35.55523,-1.14729 -52.47215,1.02403c-14.24786,2.03538 -31.37255,2.18735 -46.05194,2.18735c-3.69026,0 -7.38697,-0.00568 -11.07724,-0.00568c-0.55526,0 -1.42824,-0.04388 -2.33081,-0.09071c0.90797,-0.9272 -0.0486,-3.1758 -0.0486,-4.43544c0,-4.70575 -2.77539,-12.85441 0.61358,-17.08229c2.99479,-5.13386 4.89575,-10.11105 9.78092,-15.23101c3.60448,-3.77772 9.23923,-7.15331 12.22153,-10.90583c1.44583,-2.23651 2.74998,-0.64495 7.45839,-1.16254c10.41848,-1.14533 20.93558,-0.92905 31.69852,-0.92905c3.92308,0 8.89442,0.45064 12.69637,-0.00453c0.80247,-0.0961 2.32334,-0.45322 3.45386,-0.74573c-2.06786,0.91286 2.66933,1.79701 4.652,2.36348c1.55371,0.44391 3.09953,0.70029 4.61163,0.88341z" data-paper-data="{&quot;noHover&quot;:false,&quot;origItem&quot;:[&quot;Path&quot;,{&quot;applyMatrix&quot;:true,&quot;segments&quot;:[[[579.60736,595.76373],[0.95609,-0.20262],[0.00646,0.07548]],[[579.61718,596],[0,-0.08208],[0,2]],[[577.61718,598],[0,0],[-8.83333,0]],[[551.11718,598],[8.83333,0],[-2.27308,0]],[[541.51161,598.28885],[1.67648,-1.19621],[-0.96568,0.68904]],[[538.61718,599],[1.23739,-0.09027],[-0.13966,0.01019]],[[537.99901,599.04541],[0.22447,-0.0134],[1.19653,0.85421]],[[538.61718,610],[0,-2.20646],[0,9.33333]],[[538.61718,638],[0,-9.33333],[0,1.66667]],[[538.61718,643],[0,-1.66667],[0,0.66667]],[[538.61718,645],[-0.35177,0.56631],[1.33831,-2.15456]],[[545.61718,644],[-3.04994,0.00386],[6.01206,-0.00761]],[[563.97058,644.43107],[-5.90478,-1.08158],[10.78253,2.15651]],[[597.04254,645.54479],[-10.6965,-2.40266],[9.00888,2.25222]],[[626.11718,648],[-9.28168,0],[2.33333,0]],[[633.11718,648],[-2.33333,0],[0.35109,0]],[[634.59021,647.90091],[-0.5707,0.05184],[-0.57412,-1.02596]],[[634.61718,643],[0,1.39387],[0,-5.20707]],[[634.21982,624.13246],[2.14282,4.67827],[-1.8936,-5.6808]],[[628.03948,607.31672],[3.08887,5.66543],[-2.2791,-4.1802]],[[620.32688,595.27881],[1.8857,4.15235],[-0.91417,-2.47477]],[[615.61718,594],[2.9771,0.57275],[-6.58756,-1.26734]],[[595.61718,593],[6.8054,0],[-2.48058,0]],[[587.61718,593],[2.40395,0.50364],[-0.50743,-0.10631]],[[585.44122,592.1748],[0.71481,0.32365],[1.30749,1.01011]],[[582.51161,594.78885],[1.25365,-0.62682],[-0.98239,0.4912]]],&quot;closed&quot;:true}],&quot;index&quot;:null}" fill="#484848" stroke="none" stroke-width="1.5" stroke-linecap="butt"/><path d="M166.34093,315.06748c0,0.61083 1.09045,1.35117 0.54694,1.83483c1.39014,0.08178 2.78846,0.26034 4.03069,0.61525c4.78941,1.3684 14.53243,6.3547 15.4511,9.65124c0.07469,0.26814 -1.27966,0.31297 -1.05029,0.55073c0.7632,0.79121 6.98276,-0.58382 7.69817,-0.35912c0.16193,0.05088 0.24148,0.1301 0.27332,0.22647c-0.03331,-0.29945 -0.06383,-0.58895 -0.06383,-0.77111c0,-0.64022 0.04427,-1.33018 -0.4568,-1.90284c-4.25916,-5.04736 -11.21804,-9.84554 -23.26623,-9.84554c0,0 -1.42176,-0.00001 -2.35895,-0.54468c-0.31255,-0.10147 -0.55555,-0.22073 -0.71848,-0.36066c-0.04188,0.34481 -0.08567,0.6958 -0.08567,0.90538zM193.22706,328.62327c0.21589,0.37006 0.1522,-0.24418 0.08047,-0.88675c-0.01502,0.27887 -0.22803,0.63387 -0.08047,0.88675zM198.4285,323.29638c3.93308,4.49487 -4.99734,11.06226 -13.10912,8.03806c-7.65352,-2.85335 -10.24522,-8.58797 -17.22994,-10.58358c-2.35969,-0.67419 -5.18718,-1.04222 -6.94993,-2.16389c-2.79345,-1.7775 -1.55517,-7.84727 3.78682,-7.84727c3.84657,0 5.7412,0.71288 9.32226,0.71288h1.58153c0,0 1.81549,-0.00001 2.69565,0.78595c9.36958,1.74768 15.382,6.18797 19.90269,11.0578z" data-paper-data="{&quot;index&quot;:null}" fill="#000000" stroke="none" stroke-width="1.5" stroke-linecap="butt"/><path d="M166.30918,314.10155c0.16284,0.1399 0.40599,0.25918 0.71854,0.36066c0.93717,0.54468 2.36539,0.54081 2.36539,0.54081c12.04815,0 19.25821,4.90431 23.51736,9.95167c0.50108,0.57266 0.443,1.2752 0.443,1.91541c0,0.18215 0.02463,0.47578 0.05794,0.77526c-0.0318,-0.09643 -0.11055,-0.17611 -0.27253,-0.227c-0.71545,-0.22469 -6.98885,1.1741 -7.75205,0.38293c-0.22938,-0.23781 0.97476,-0.44132 0.89998,-0.70947c-0.91863,-3.29653 -10.70867,-8.25754 -15.49816,-9.62595c-1.24224,-0.35495 -2.64859,-0.52615 -4.03876,-0.60791c0.54349,-0.48372 -0.53397,-1.23517 -0.53397,-1.84601c0,-0.20958 0.05111,-0.56558 0.0931,-0.91038z" data-paper-data="{&quot;noHover&quot;:false,&quot;origItem&quot;:[&quot;Path&quot;,{&quot;applyMatrix&quot;:true,&quot;segments&quot;:[[[607.563,601.99816],[0.02649,0.38155],[-0.10299,0.15484]],[[607.10872,602.39727],[0.1976,-0.11227],[-0.59254,0.60273]],[[605.61718,603],[0,0],[-7.618,0]],[[590.90604,613.89443],[2.69308,-5.58508],[-0.31682,0.63364]],[[590.61718,616],[0,-0.70843],[0,0.20156]],[[590.57685,616.85325],[0.02106,-0.33136],[0.02013,-0.10671]],[[590.74964,616.60263],[-0.10238,0.05628],[0.45234,-0.24865]],[[595.61718,617],[-0.48256,0.87548],[0.14503,-0.26312]],[[594.95308,616.3906],[-0.04725,0.29671],[0.58086,-3.64773]],[[604.72276,605.71115],[-3.02833,1.51416],[0.78545,-0.39273]],[[607.27135,605.03032],[-0.87898,0.0905],[-0.34365,-0.53523]],[[607.61718,603],[0,0.6759],[0,-0.23192]]],&quot;closed&quot;:true}],&quot;index&quot;:null}" fill="#ffffff" stroke="none" stroke-width="1.5" stroke-linecap="butt"/><g><g stroke="#000000" stroke-width="1" stroke-linecap="round"><path d="M-40.8727,96.87175l4.74628,-1.2774l363.20395,-105.12949l93.35706,283.04344l-366.47612,123.63764l-2.88717,-10.76485l-85.80491,-271.63177z" fill="#747474"/><path d="M-63.64595,103.71642l-4.63921,-7.63411l416.75414,-122.37783l-0.97582,10.7389l-409.53549,118.77511z" fill="#c8dce3"/><path d="M8.89249,116.12928l88.88114,-26.46508l18.03291,55.88137l-86.54082,25.96523z" fill="#212121"/><path d="M300.89591,19.95469l18.52515,55.27479l-84.77115,26.55007l-17.60492,-56.69487z" fill="#212121"/><path d="M346.24504,155.03792l23.27702,75.69192l-84.30723,27.31347l-23.96201,-75.70606z" fill="#212121"/><path d="M260.37189,317.76682l-40.93336,14.29871l-33.68853,-104.10689l40.90503,-12.92873z" fill="#483526"/><path d="M162.68539,297.79272l-89.32985,31.5955l-23.77963,-72.92687l92.58385,-29.88353z" fill="#212121"/><path d="M-14.34805,245.85414l405.4969,-129.77185l3.14832,10.13887l-405.18378,132.39704z" fill="#c8dce3"/></g><path d="M119.46872,81.24287c4.21659,-2.9891 11.62199,-8.91195 17.22401,-7.46244c3.45499,0.89397 6.71584,2.95138 9.47788,5.13408c4.99527,3.92402 10.82422,9.33347 14.06407,14.85826c1.04631,1.78424 0.36342,3.80392 0.06737,5.62973c-1.33058,8.20594 -7.38514,13.80858 -15.00792,16.17561c-1.73891,0.53996 -3.43355,1.33044 -5.22634,1.64882c-5.35061,0.95016 -10.39405,-2.78866 -14.97204,-4.69421c-1.30261,-0.54219 -2.7929,-0.91996 -3.78564,-1.92254c-3.35547,-3.38878 -6.1471,-11.17159 -6.71062,-15.9766c0.52302,-2.04818 2.18921,-8.13123 -0.19254,-9.5629c-0.14749,-0.08866 -0.29176,-0.16355 -0.43287,-0.22547c1.86167,-1.50505 4.4236,-2.84304 5.49467,-3.60234z" data-paper-data="{&quot;noHover&quot;:false,&quot;origItem&quot;:[&quot;Path&quot;,{&quot;applyMatrix&quot;:true,&quot;segments&quot;:[[[194.05733,121.9196],[1.55176,-0.61762],[0.08119,0.07045]],[[194.29913,122.15934],[-0.07992,-0.08958],[1.29071,1.44664]],[[192.45851,128.55393],[0.77222,-1.25644],[-0.61865,3.31804]],[[193.62163,140.54897],[-1.53455,-2.95207],[0.45401,0.87339]],[[195.7412,142.60513],[-0.75571,-0.63074],[2.65595,2.21676]],[[204.71489,148.81137],[-3.76156,-0.47393],[1.26035,0.15879]],[[208.52578,148.79333],[-1.27031,0],[5.56857,0]],[[221.83063,141.14757],[-2.58427,5.19213],[0.57499,-1.15524]],[[222.94615,137.39414],[0.32798,1.40525],[-1.01559,-4.35132]],[[216.66277,124.6318],[2.51637,3.64795],[-1.3887,-2.02571]],[[211.43267,119.26329],[2.11701,1.31044],[-3.4326,-2.12479]],[[198.45454,120.66442],[3.42782,-1.11919],[-0.87071,0.28429]]],&quot;closed&quot;:true}]}" fill="#ffffff" stroke="#000000" stroke-width="2.5" stroke-linecap="butt"/><path d="M179.12306,54.2182c2.57266,0.90074 4.97832,2.7122 7.53087,3.74542c5.47247,4.9927 13.42453,16.43211 9.40742,24.25497c-1.75545,3.41851 -5.54616,4.87619 -8.77901,6.51488c-3.5168,1.10719 -7.80686,4.28241 -11.62685,4.28218c-2.73188,-0.00017 -4.31626,-1.56775 -6.43634,-3.02973c-5.2512,-3.62117 -10.00381,-7.59775 -11.9618,-13.92868c-1.18803,-3.82592 -3.61571,-8.50119 -3.23813,-12.67832c7.40724,-4.20029 16.47531,-12.18178 25.10382,-9.16072z" data-paper-data="{&quot;noHover&quot;:false,&quot;origItem&quot;:[&quot;Path&quot;,{&quot;applyMatrix&quot;:true,&quot;segments&quot;:[[[225.17986,115.90187],[5.80425,-1.26606],[-1.11578,2.70499]],[[224.72578,124.99333],[0,-2.7949],[-0.00526,4.62323]],[[229.79614,136.70314],[-2.74954,-3.49913],[1.11007,1.41271]],[[233.44201,140.04465],[-1.82014,-0.56532],[2.54512,0.79049]],[[242.0433,139.59674],[-2.57223,0.01011],[2.493,-0.42297]],[[249.21868,137.08622],[-1.87686,1.91447],[4.29499,-4.38105]],[[247.96628,119.04383],[2.61322,4.45871],[-1.48694,-1.21651]],[[243.74107,115.00457],[1.52773,1.1324],[-5.12392,-3.79802]]],&quot;closed&quot;:true}]}" fill="#ffffff" stroke="#000000" stroke-width="2.5" stroke-linecap="butt"/><path d="M146.70458,91.04807c-0.52821,-1.70104 0.42256,-3.50821 2.1236,-4.03641c1.70103,-0.5282 3.50819,0.42257 4.0364,2.12361c0.52821,1.70104 -0.42256,3.50821 -2.12359,4.03641c-1.70103,0.5282 -3.50821,-0.42256 -4.03641,-2.1236z" fill="#000000" stroke="none" stroke-width="0.5" stroke-linecap="butt"/><path d="M185.85383,70.60237c-0.52821,-1.70104 0.42256,-3.50821 2.1236,-4.03641c1.70103,-0.5282 3.50821,0.42256 4.03641,2.1236c0.52821,1.70104 -0.42256,3.50821 -2.1236,4.03641c-1.70103,0.5282 -3.50821,-0.42256 -4.03641,-2.1236z" fill="#000000" stroke="none" stroke-width="0.5" stroke-linecap="butt"/><path d="M133.55883,59.84487l-69.36766,-20.63671" fill="none" stroke="#000000" stroke-width="3" stroke-linecap="round"/><path d="M150.82481,50.27951l47.9776,-52.18474" fill="none" stroke="#000000" stroke-width="3" stroke-linecap="round"/><path d="M154.44249,186.27089c-0.95502,0.29655 -1.25157,-0.65846 -1.25157,-0.65846l-0.22172,-0.71404c-3.26798,-10.52427 -6.99408,-20.87105 -9.78615,-31.54324c-0.61565,-6.87698 0.97603,-12.09129 2.78879,-18.63891c1.74164,-6.29073 3.7947,-12.93109 7.95915,-18.05054c4.63836,-4.50673 10.23931,-9.0771 16.1164,-11.85819c1.78274,-0.84362 3.78061,-1.30991 5.52679,-2.22816c4.46809,-2.34958 8.62969,-4.11243 13.64831,-5.03401c2.51666,0.04575 5.31371,-0.17678 7.804,0.23569c11.96934,1.98248 17.97877,11.42292 23.50178,21.12228c4.09617,7.19968 7.43899,15.09477 10.58747,22.747c1.18016,2.86831 3.19172,6.10756 0.79855,8.70997c0,0 -0.72158,0.69234 -1.41392,-0.02923c-0.69234,-0.72158 0.02924,-1.41391 0.02924,-1.41391c1.64439,-1.21656 -0.64434,-5.00117 -1.26342,-6.50583c-3.11629,-7.574 -6.41649,-15.3956 -10.47589,-22.51835c-5.20724,-9.1448 -10.76474,-18.26957 -22.09007,-20.13872c-2.33423,-0.38525 -4.95406,-0.16025 -7.31447,-0.21557c-4.74397,0.89692 -8.65339,2.5999 -12.88273,4.81192c-1.77595,0.92885 -3.79028,1.40857 -5.60026,2.26478c-5.64264,2.66926 -11.03921,7.07963 -15.49661,11.40086c-3.94596,4.86261 -5.85302,11.26777 -7.5069,17.23396c-1.73355,6.25358 -3.30167,11.1983 -2.74582,17.76201c2.80884,10.57875 6.48301,20.85005 9.72581,31.29307l0.22172,0.71404c0,0 0.29656,0.95502 -0.65846,1.25157z" fill="#000000" stroke="none" stroke-width="0.5" stroke-linecap="butt"/></g></g></g></svg>