<svg version="1.1" xmlns="http://www.w3.org/2000/svg" xmlns:xlink="http://www.w3.org/1999/xlink" width="2878.25007" height="1619.57958" viewBox="0,0,2878.25007,1619.57958"><g transform="translate(1117.37278,629.80931)"><g data-paper-data="{&quot;isPaintingLayer&quot;:true}" stroke-linejoin="miter" stroke-miterlimit="10" stroke-dasharray="" stroke-dashoffset="0" style="mix-blend-mode: normal"><path d="M583.95344,-155.27162c1.7251,0 3.44795,0 5.17305,0c0,0.22491 0,0.44982 0,0.67474c-1.70485,-0.35941 -3.42996,-0.58432 -5.17305,-0.67474z" fill="#958c8c" fill-rule="evenodd" stroke="none" stroke-width="1" stroke-linecap="butt"/><path d="M-1117.37278,989.77027v-1619.57958h2878.25007v1619.57958z" fill="none" fill-rule="nonzero" stroke="#000000" stroke-width="0" stroke-linecap="butt"/><path d="M330.0947,194.28763c-8.8994,0 -17.80132,0 -26.70072,0c0.23426,-0.12845 0.48615,-0.26165 0.75568,-0.39645c8.3956,-0.10626 16.79374,-0.10626 25.18935,0c0.26952,0.13479 0.52143,0.26799 0.75569,0.39645z" fill="#4a1205" fill-rule="evenodd" stroke="none" stroke-width="1" stroke-linecap="butt"/><path d="M303.14209,194.28763c0.08312,0 0.16877,0 0.25189,0c8.8994,0 17.80132,0 26.70072,0c0.30479,0.06819 0.55668,0.17444 0.75568,0.31716c-9.32006,0 -18.64013,0 -27.96017,0c0,-0.05233 0,-0.10626 0,-0.15858c0.16877,0 0.25189,-0.05232 0.25189,-0.15858z" fill="#922713" fill-rule="evenodd" stroke="none" stroke-width="1" stroke-linecap="butt"/><path d="M328.01703,171.66121c1.54273,0.16315 3.06716,0.35509 4.57329,0.57582c0,0.06334 0,0.1286 0,0.19194c-1.7287,0.12668 -3.25314,-0.13052 -4.57329,-0.76776z" fill="#786159" fill-rule="evenodd" stroke="none" stroke-width="1" stroke-linecap="butt"/><g fill-rule="nonzero" stroke-width="1.5"><path d="M385.83222,359.0849l-18.77706,-33.99865l89.19115,0.30087l31.92107,33.69777z" fill="#cedce9" stroke="#000000" stroke-linecap="round"/><path d="M496.65111,357.31811c-2.4139,0.37268 -4.78708,0.58593 -7.13644,0.73967c0.0159,0.05725 0.02413,0.11696 0.02413,0.17926c0,1.51741 -4.91448,1.51741 -4.91448,1.51741c-21.70572,0 -43.41136,0 -65.11703,0c-5.58546,0 -19.48369,-0.68842 -23.60325,0.21917c-2.37294,0.52278 -4.07173,0.47103 -7.11235,0.53953c-0.34319,0.00774 -0.96743,0.02428 -1.51898,0.03446c2.94016,0.64809 1.51898,6.63733 1.51898,8.31141c0,7.08137 0,14.16271 0,21.24406c0,1.26452 0,2.52908 0,3.79358c0,0.50578 -0.86435,1.94709 0,1.51741c3.28855,-1.6347 9.70628,-0.75579 17.20072,-0.75873c14.77312,-0.00579 30.58933,-0.49357 45.0988,0.32705c26.49534,1.63617 54.98202,-0.97793 81.26592,0.84501c22.13705,1.70878 48.63617,1.86277 71.44352,1.86277c5.73365,0 11.46717,0 17.20076,0c0.86265,0 2.21717,-0.03587 3.61956,-0.07519c-1.41071,-0.77843 0.06632,-2.66086 0.06632,-3.71838c0,-3.95069 4.28904,-10.76562 -0.97637,-14.3151c-4.65306,-4.31013 -7.59645,-8.4599 -15.18659,-12.75837c-5.6002,-3.17158 -14.31813,-5.98292 -18.95174,-9.13337c-2.24637,-1.87765 -4.25738,-0.5357 -11.57289,-0.97026c-16.18731,-0.96154 -32.42239,-0.75872 -49.14493,-0.75872c-6.09552,0 -13.75093,0.38213 -19.65803,0c-1.24693,-0.08066 -3.59035,-0.3805 -5.34689,-0.6261c3.21278,0.76642 -4.11829,1.50778 -7.19878,1.98336zM419.507,356.71961c16.40449,0 32.80894,0 49.21341,0c0.47327,-0.07307 0.94638,-0.14611 1.41959,-0.21917c6.23316,-0.9623 11.86066,-0.70729 17.20076,-1.13807c7.27745,-0.58707 11.63051,-2.56423 19.13917,-3.03486c4.31338,-0.27037 16.2602,0.59853 22.3746,0.59853c16.57946,0 33.14079,-0.29271 49.14494,0.75872c8.99053,0.59065 16.58853,-0.56084 20.79294,2.9535c0.61986,1.33497 5.58061,2.16936 8.17525,3.19632c3.9652,1.56943 7.27943,3.89376 10.34779,5.63142c7.6064,4.30768 10.9509,8.73833 15.71997,13.15588c4.26196,4.65648 1.48087,10.43067 1.48087,15.27481c0,2.67813 1.367,4.56568 -4.91448,6.82845c-2.19039,0.78907 -22.42671,0 -25.80107,0c-23.5247,0 -51.01166,-0.19225 -73.82742,-1.95343c-25.06514,-2.26218 -54.90152,0.78657 -80.80965,-0.81333c-20.87784,-1.45202 -53.10351,2.41601 -70.20086,-2.54428c-1.69272,-0.4911 0,-4.50239 0,-5.31102c0,-7.08137 0,-14.1627 0,-21.24406c0,-2.36756 -3.38009,-8.02022 1.74752,-9.78324c8.94799,-3.07665 25.69427,-2.35624 38.79696,-2.35624z" data-paper-data="{&quot;index&quot;:null}" fill="#000000" stroke="none" stroke-linecap="butt"/><path d="M489.44615,357.98491c2.34934,-0.15374 4.75112,-0.36899 7.16513,-0.74167c3.08049,-0.47558 10.44068,-1.21787 7.22783,-1.98424c1.7565,0.24558 4.11948,0.5454 5.36629,0.62608c5.90713,0.38213 13.63114,0.0038 19.72646,0.0038c16.72246,0 33.06296,-0.18158 49.2502,0.77998c7.3155,0.43455 9.34177,-0.90165 11.58816,0.97601c4.63364,3.15043 13.38836,5.98438 18.98866,9.15596c7.59012,4.29844 10.54366,8.47704 15.19668,12.78714c5.26547,3.5495 0.95334,10.39067 0.95334,14.34138c0,1.05752 -1.48622,2.94533 -0.07548,3.72376c-1.40232,0.03932 -2.75868,0.07616 -3.62141,0.07616c-5.73359,0 -11.47718,0.00477 -17.21078,0.00477c-22.80749,0 -49.41422,-0.12758 -71.55124,-1.83638c-26.28392,-1.82294 -55.03099,0.77644 -81.52635,-0.85972c-14.50948,-0.82062 -30.37042,-0.35014 -45.14355,-0.34437c-7.49439,0.00293 -13.91797,-0.87923 -17.20651,0.75546c-0.86435,0.42967 -0.00371,-1.01389 -0.00371,-1.51969c0,-1.26452 -0.00843,-2.53523 -0.00843,-3.79972c0,-7.08137 -0.01023,-14.20482 -0.01023,-21.28618c0,-1.67408 1.43614,-7.67786 -1.50407,-8.32595c0.55162,-0.01019 1.17629,-0.02713 1.51954,-0.03487c3.0405,-0.0685 4.74321,-0.0193 7.11606,-0.54207c4.11955,-0.90758 18.03039,-0.22622 23.61586,-0.22622c21.70576,0 43.5271,-0.03017 65.23276,-0.03017c0,0 4.93861,-0.00261 4.93861,-1.52002c0,-0.06228 -0.00765,-0.12203 -0.02359,-0.1793z" data-paper-data="{&quot;noHover&quot;:false,&quot;origItem&quot;:[&quot;Path&quot;,{&quot;applyMatrix&quot;:true,&quot;segments&quot;:[[[579.60736,595.76373],[0.95609,-0.20262],[0.00646,0.07548]],[[579.61718,596],[0,-0.08208],[0,2]],[[577.61718,598],[0,0],[-8.83333,0]],[[551.11718,598],[8.83333,0],[-2.27308,0]],[[541.51161,598.28885],[1.67648,-1.19621],[-0.96568,0.68904]],[[538.61718,599],[1.23739,-0.09027],[-0.13966,0.01019]],[[537.99901,599.04541],[0.22447,-0.0134],[1.19653,0.85421]],[[538.61718,610],[0,-2.20646],[0,9.33333]],[[538.61718,638],[0,-9.33333],[0,1.66667]],[[538.61718,643],[0,-1.66667],[0,0.66667]],[[538.61718,645],[-0.35177,0.56631],[1.33831,-2.15456]],[[545.61718,644],[-3.04994,0.00386],[6.01206,-0.00761]],[[563.97058,644.43107],[-5.90478,-1.08158],[10.78253,2.15651]],[[597.04254,645.54479],[-10.6965,-2.40266],[9.00888,2.25222]],[[626.11718,648],[-9.28168,0],[2.33333,0]],[[633.11718,648],[-2.33333,0],[0.35109,0]],[[634.59021,647.90091],[-0.5707,0.05184],[-0.57412,-1.02596]],[[634.61718,643],[0,1.39387],[0,-5.20707]],[[634.21982,624.13246],[2.14282,4.67827],[-1.8936,-5.6808]],[[628.03948,607.31672],[3.08887,5.66543],[-2.2791,-4.1802]],[[620.32688,595.27881],[1.8857,4.15235],[-0.91417,-2.47477]],[[615.61718,594],[2.9771,0.57275],[-6.58756,-1.26734]],[[595.61718,593],[6.8054,0],[-2.48058,0]],[[587.61718,593],[2.40395,0.50364],[-0.50743,-0.10631]],[[585.44122,592.1748],[0.71481,0.32365],[1.30749,1.01011]],[[582.51161,594.78885],[1.25365,-0.62682],[-0.98239,0.4912]]],&quot;closed&quot;:true}],&quot;index&quot;:null}" fill="#484848" stroke="none" stroke-linecap="butt"/><path d="M558.34163,363.54791c0,-0.17596 -0.06803,-0.47063 -0.1331,-0.76011c-0.25314,0.11749 -0.63069,0.21761 -1.1163,0.3028c-1.45611,0.45727 -3.66512,0.45729 -3.66512,0.45729c-18.71937,0 -29.5314,4.02831 -36.14891,8.26579c-0.7785,0.48077 -0.70971,1.06003 -0.70971,1.59753c0,0.15293 -0.04742,0.39598 -0.09916,0.64738c0.04949,-0.0809 0.17307,-0.14742 0.42463,-0.19013c1.11152,-0.18864 10.77492,0.96576 11.96069,0.3015c0.35637,-0.19962 -1.74787,-0.23724 -1.63183,-0.46235c1.42734,-2.7676 16.56513,-6.95383 24.00649,-8.10266c1.93004,-0.29797 4.10263,-0.44787 6.26251,-0.51653c-0.84446,-0.40607 0.84978,-1.02762 0.84978,-1.54043zM516.44344,374.18421c-0.11147,0.53947 -0.21041,1.05515 0.12501,0.74448c0.22927,-0.2123 -0.10168,-0.51035 -0.12501,-0.74448zM508.487,370.45646c7.02384,-4.08845 16.36535,-7.81628 30.92295,-9.28354c1.36753,-0.65985 4.18825,-0.65984 4.18825,-0.65984h2.45724c5.56394,0 8.50762,-0.59849 14.48406,-0.59849c8.29986,0 10.22379,5.09585 5.88362,6.58816c-2.73879,0.94169 -7.13188,1.25067 -10.79815,1.81669c-10.85221,1.6754 -14.87894,6.48988 -26.77026,8.88541c-12.60333,2.53896 -26.4786,-2.97468 -20.36774,-6.74834z" data-paper-data="{&quot;index&quot;:null}" fill="#000000" stroke="none" stroke-linecap="butt"/><path d="M558.39116,362.73702c0.06521,0.28947 0.14463,0.58835 0.14463,0.76431c0,0.51281 -1.67406,1.1437 -0.82963,1.5498c-2.1599,0.06863 -4.34498,0.21237 -6.27505,0.51036c-7.44146,1.14885 -22.6523,5.31385 -24.0796,8.08144c-0.11619,0.22513 1.7547,0.39599 1.3983,0.59563c-1.18577,0.66423 -10.93282,-0.51011 -12.04442,-0.32147c-0.25166,0.04272 -0.37403,0.10961 -0.42345,0.19057c0.05176,-0.25142 0.09003,-0.49794 0.09003,-0.65087c0,-0.53749 -0.09025,-1.1273 0.6883,-1.60807c6.61746,-4.23751 17.81977,-8.35489 36.53909,-8.35489c0,0 2.21904,0.00324 3.67513,-0.45404c0.48559,-0.0852 0.86342,-0.18534 1.11641,-0.3028z" data-paper-data="{&quot;noHover&quot;:false,&quot;origItem&quot;:[&quot;Path&quot;,{&quot;applyMatrix&quot;:true,&quot;segments&quot;:[[[607.563,601.99816],[0.02649,0.38155],[-0.10299,0.15484]],[[607.10872,602.39727],[0.1976,-0.11227],[-0.59254,0.60273]],[[605.61718,603],[0,0],[-7.618,0]],[[590.90604,613.89443],[2.69308,-5.58508],[-0.31682,0.63364]],[[590.61718,616],[0,-0.70843],[0,0.20156]],[[590.57685,616.85325],[0.02106,-0.33136],[0.02013,-0.10671]],[[590.74964,616.60263],[-0.10238,0.05628],[0.45234,-0.24865]],[[595.61718,617],[-0.48256,0.87548],[0.14503,-0.26312]],[[594.95308,616.3906],[-0.04725,0.29671],[0.58086,-3.64773]],[[604.72276,605.71115],[-3.02833,1.51416],[0.78545,-0.39273]],[[607.27135,605.03032],[-0.87898,0.0905],[-0.34365,-0.53523]],[[607.61718,603],[0,0.6759],[0,-0.23192]]],&quot;closed&quot;:true}],&quot;index&quot;:null}" fill="#ffffff" stroke="none" stroke-linecap="butt"/><path d="M158.29554,357.8258l31.92107,-33.69777l89.19115,-0.30087l-18.77706,33.99865z" data-paper-data="{&quot;index&quot;:null}" fill="#cedce9" stroke="#000000" stroke-linecap="round"/><path d="M149.81184,356.05893c-3.08049,-0.47558 -10.41156,-1.21694 -7.19878,-1.98336c-1.75654,0.24559 -4.09996,0.54543 -5.34689,0.6261c-5.9071,0.38213 -13.56251,0 -19.65803,0c-16.72254,0 -32.95762,-0.20283 -49.14493,0.75872c-7.31551,0.43455 -9.32652,-0.90739 -11.57289,0.97026c-4.63361,3.15045 -13.35154,5.96179 -18.95174,9.13337c-7.59014,4.29847 -10.53353,8.44824 -15.18659,12.75837c-5.26541,3.54948 -0.97637,10.36441 -0.97637,14.3151c0,1.05753 1.47703,2.93996 0.06632,3.71838c1.40239,0.03932 2.75691,0.07519 3.61956,0.07519c5.73359,0 11.46711,0 17.20076,0c22.80735,0 49.30647,-0.15399 71.44352,-1.86277c26.2839,-1.82293 54.77058,0.79116 81.26592,-0.84501c14.50947,-0.82061 30.32568,-0.33283 45.0988,-0.32705c7.49444,0.00293 13.91217,-0.87597 17.20072,0.75873c0.86435,0.42968 0,-1.01163 0,-1.51741c0,-1.2645 0,-2.52906 0,-3.79358c0,-7.08135 0,-14.16269 0,-21.24406c0,-1.67408 -1.42118,-7.66333 1.51898,-8.31141c-0.55155,-0.01018 -1.17579,-0.02672 -1.51898,-0.03446c-3.04062,-0.0685 -4.73941,-0.01676 -7.11235,-0.53953c-4.11956,-0.90759 -18.01779,-0.21917 -23.60325,-0.21917c-21.70567,0 -43.41131,0 -65.11703,0c0,0 -4.91448,0 -4.91448,-1.51741c0,-0.06229 0.00823,-0.12201 0.02413,-0.17926c-2.34936,-0.15374 -4.72254,-0.367 -7.13644,-0.73967zM226.95565,355.46044c13.10269,0 29.84897,-0.72041 38.79696,2.35624c5.12761,1.76303 1.74752,7.41569 1.74752,9.78324c0,7.08136 0,14.16269 0,21.24406c0,0.80863 1.69272,4.81992 0,5.31102c-17.09735,4.96029 -49.32302,1.09226 -70.20086,2.54428c-25.90813,1.5999 -55.74451,-1.44885 -80.80965,0.81333c-22.81576,1.76118 -50.30272,1.95343 -73.82742,1.95343c-3.37436,0 -23.61068,0.78907 -25.80107,0c-6.28148,-2.26277 -4.91448,-4.15032 -4.91448,-6.82845c0,-4.84413 -2.78109,-10.61832 1.48087,-15.27481c4.76907,-4.41754 8.11357,-8.8482 15.71997,-13.15588c3.06836,-1.73765 6.38259,-4.06199 10.34779,-5.63142c2.59464,-1.02695 7.55539,-1.86134 8.17525,-3.19632c4.20441,-3.51433 11.80241,-2.36285 20.79294,-2.9535c16.00415,-1.05143 32.56548,-0.75872 49.14494,-0.75872c6.1144,0 18.06122,-0.86889 22.3746,-0.59853c7.50866,0.47063 11.86172,2.44778 19.13917,3.03486c5.3401,0.43078 10.9676,0.17577 17.20076,1.13807c0.47321,0.07307 0.94632,0.14611 1.41959,0.21917c16.40447,0 32.80892,0 49.21341,0z" data-paper-data="{&quot;index&quot;:null}" fill="#000000" stroke="none" stroke-linecap="butt"/><path d="M157.01653,356.72574c-0.01594,0.05727 -0.02359,0.11701 -0.02359,0.1793c0,1.51741 4.93861,1.52002 4.93861,1.52002c21.70566,0 43.527,0.03017 65.23276,0.03017c5.58547,0 19.49631,-0.68136 23.61586,0.22622c2.37285,0.52278 4.07556,0.47357 7.11606,0.54207c0.34325,0.00774 0.96792,0.02468 1.51954,0.03487c-2.94021,0.6481 -1.50407,6.65188 -1.50407,8.32595c0,7.08136 -0.01023,14.20482 -0.01023,21.28618c0,1.26449 -0.00843,2.53519 -0.00843,3.79972c0,0.5058 0.86064,1.94936 -0.00371,1.51969c-3.28854,-1.63469 -9.71212,-0.75253 -17.20651,-0.75546c-14.77313,-0.00577 -30.63407,-0.47625 -45.14355,0.34437c-26.49536,1.63617 -55.24243,-0.96322 -81.52635,0.85972c-22.13702,1.7088 -48.74375,1.83638 -71.55124,1.83638c-5.7336,0 -11.47719,-0.00477 -17.21078,-0.00477c-0.86273,0 -2.21909,-0.03684 -3.62141,-0.07616c1.41074,-0.77843 -0.07548,-2.66624 -0.07548,-3.72376c0,-3.95071 -4.31213,-10.79188 0.95334,-14.34138c4.65302,-4.31011 7.60656,-8.4887 15.19668,-12.78714c5.6003,-3.17158 14.35502,-6.00554 18.98866,-9.15596c2.24639,-1.87765 4.27266,-0.54146 11.58816,-0.97601c16.18724,-0.96156 32.52774,-0.77998 49.2502,-0.77998c6.09532,0 13.81933,0.37833 19.72646,-0.0038c1.24681,-0.08068 3.60979,-0.3805 5.36629,-0.62608c-3.21285,0.76638 4.14734,1.50867 7.22783,1.98424c2.41401,0.37268 4.81579,0.58792 7.16513,0.74167z" data-paper-data="{&quot;noHover&quot;:false,&quot;origItem&quot;:[&quot;Path&quot;,{&quot;applyMatrix&quot;:true,&quot;segments&quot;:[[[579.60736,595.76373],[0.95609,-0.20262],[0.00646,0.07548]],[[579.61718,596],[0,-0.08208],[0,2]],[[577.61718,598],[0,0],[-8.83333,0]],[[551.11718,598],[8.83333,0],[-2.27308,0]],[[541.51161,598.28885],[1.67648,-1.19621],[-0.96568,0.68904]],[[538.61718,599],[1.23739,-0.09027],[-0.13966,0.01019]],[[537.99901,599.04541],[0.22447,-0.0134],[1.19653,0.85421]],[[538.61718,610],[0,-2.20646],[0,9.33333]],[[538.61718,638],[0,-9.33333],[0,1.66667]],[[538.61718,643],[0,-1.66667],[0,0.66667]],[[538.61718,645],[-0.35177,0.56631],[1.33831,-2.15456]],[[545.61718,644],[-3.04994,0.00386],[6.01206,-0.00761]],[[563.97058,644.43107],[-5.90478,-1.08158],[10.78253,2.15651]],[[597.04254,645.54479],[-10.6965,-2.40266],[9.00888,2.25222]],[[626.11718,648],[-9.28168,0],[2.33333,0]],[[633.11718,648],[-2.33333,0],[0.35109,0]],[[634.59021,647.90091],[-0.5707,0.05184],[-0.57412,-1.02596]],[[634.61718,643],[0,1.39387],[0,-5.20707]],[[634.21982,624.13246],[2.14282,4.67827],[-1.8936,-5.6808]],[[628.03948,607.31672],[3.08887,5.66543],[-2.2791,-4.1802]],[[620.32688,595.27881],[1.8857,4.15235],[-0.91417,-2.47477]],[[615.61718,594],[2.9771,0.57275],[-6.58756,-1.26734]],[[595.61718,593],[6.8054,0],[-2.48058,0]],[[587.61718,593],[2.40395,0.50364],[-0.50743,-0.10631]],[[585.44122,592.1748],[0.71481,0.32365],[1.30749,1.01011]],[[582.51161,594.78885],[1.25365,-0.62682],[-0.98239,0.4912]]],&quot;closed&quot;:true}],&quot;index&quot;:null}" fill="#484848" stroke="none" stroke-linecap="butt"/><path d="M88.12131,362.28888c0,0.51281 1.69424,1.13437 0.84978,1.54043c2.15988,0.06866 4.33247,0.21856 6.26251,0.51653c7.44136,1.14883 22.57915,5.33506 24.00649,8.10266c0.11604,0.22511 -1.9882,0.26274 -1.63183,0.46235c1.18577,0.66426 10.84917,-0.49015 11.96069,-0.3015c0.25156,0.04271 0.37514,0.10923 0.42463,0.19013c-0.05174,-0.2514 -0.09916,-0.49445 -0.09916,-0.64738c0,-0.5375 0.06879,-1.11675 -0.70971,-1.59753c-6.61751,-4.23749 -17.42954,-8.26579 -36.14891,-8.26579c0,0 -2.20901,-0.00003 -3.66512,-0.45729c-0.48561,-0.08518 -0.86316,-0.18531 -1.1163,-0.3028c-0.06507,0.28948 -0.1331,0.58415 -0.1331,0.76011zM129.89449,373.66958c0.33542,0.31068 0.23648,-0.205 0.12501,-0.74448c-0.02333,0.23412 -0.35428,0.53217 -0.12501,0.74448zM137.97597,369.19739c6.11086,3.77366 -7.76441,9.2873 -20.36774,6.74834c-11.89132,-2.39553 -15.91805,-7.21001 -26.77026,-8.88541c-3.66627,-0.56602 -8.05936,-0.87499 -10.79815,-1.81669c-4.34017,-1.49231 -2.41624,-6.58815 5.88362,-6.58815c5.97644,0 8.92012,0.59849 14.48406,0.59849h2.45724c0,0 2.82072,0 4.18825,0.65984c14.5576,1.46726 23.89911,5.19509 30.92295,9.28354z" data-paper-data="{&quot;index&quot;:null}" fill="#000000" stroke="none" stroke-linecap="butt"/><path d="M88.07201,361.47789c0.25299,0.11746 0.63082,0.2176 1.11641,0.3028c1.45609,0.45729 3.67513,0.45404 3.67513,0.45404c18.71932,0 29.92163,4.11739 36.53909,8.35489c0.77855,0.48077 0.6883,1.07058 0.6883,1.60807c0,0.15292 0.03827,0.39944 0.09003,0.65087c-0.04942,-0.08096 -0.17179,-0.14785 -0.42345,-0.19057c-1.1116,-0.18864 -10.85865,0.98571 -12.04442,0.32147c-0.3564,-0.19964 1.51449,-0.3705 1.3983,-0.59563c-1.4273,-2.76759 -16.63814,-6.93258 -24.0796,-8.08144c-1.93007,-0.29799 -4.11515,-0.44173 -6.27505,-0.51036c0.84443,-0.4061 -0.82963,-1.03699 -0.82963,-1.5498c0,-0.17596 0.07942,-0.47484 0.14463,-0.76431z" data-paper-data="{&quot;noHover&quot;:false,&quot;origItem&quot;:[&quot;Path&quot;,{&quot;applyMatrix&quot;:true,&quot;segments&quot;:[[[607.563,601.99816],[0.02649,0.38155],[-0.10299,0.15484]],[[607.10872,602.39727],[0.1976,-0.11227],[-0.59254,0.60273]],[[605.61718,603],[0,0],[-7.618,0]],[[590.90604,613.89443],[2.69308,-5.58508],[-0.31682,0.63364]],[[590.61718,616],[0,-0.70843],[0,0.20156]],[[590.57685,616.85325],[0.02106,-0.33136],[0.02013,-0.10671]],[[590.74964,616.60263],[-0.10238,0.05628],[0.45234,-0.24865]],[[595.61718,617],[-0.48256,0.87548],[0.14503,-0.26312]],[[594.95308,616.3906],[-0.04725,0.29671],[0.58086,-3.64773]],[[604.72276,605.71115],[-3.02833,1.51416],[0.78545,-0.39273]],[[607.27135,605.03032],[-0.87898,0.0905],[-0.34365,-0.53523]],[[607.61718,603],[0,0.6759],[0,-0.23192]]],&quot;closed&quot;:true}],&quot;index&quot;:null}" fill="#ffffff" stroke="none" stroke-linecap="butt"/></g><g fill-rule="nonzero" stroke="#000000" stroke-width="1" stroke-linecap="round"><path d="M-2.28364,358.66985l31.24583,-199.54743l563.32625,-3.02628l29.44318,195.57348z" fill="#c4c3ba"/><path d="M623.55217,351.70893l-625.55564,7.55432l5.684,-41.5488l237.228,2.78317l0.31577,-91.04952l189.2298,-1.98798l5.684,90.75132l180.38801,0.3976z" fill="#8b8b8b"/><path d="M275.3283,356.28128l5.36822,-119.87524l15.47311,-4.96995l20.20978,-3.57836l29.99888,-0.3976l19.26244,0.99398l25.578,5.76515l8.84178,120.37222z" fill="#cdd3cc"/><path d="M290.16986,355.58548l2.52623,-112.27121h87.47042l6.94711,110.23353z" fill="#756d5d"/><path d="M306.59027,352.35502l0.31578,-87.02385l59.05043,0.39759l2.84201,87.57055l-60.31354,-0.79519z" fill="#656258"/><path d="M315.11629,347.93176l0.63155,-77.82944l41.99844,1.19278l3.15778,76.73606z" fill="#ff0000"/><path d="M227.40903,257.32954l-203.67661,1.19279l-0.94733,-9.54231l207.15019,0.3976z" fill="#2f2e33"/><path d="M44.42078,168.0501l186.34832,-1.37658l-2.67253,46.65096l-188.29197,-1.37658z" fill="#64696a"/><path d="M207.93111,167.43828l-2.67253,45.42734l-143.83078,-0.61182l7.77463,-45.12142z" fill="#ff0000"/><path d="M451.25294,227.09034l-226.61852,2.90613l-3.88732,-7.49474l232.26728,-0.91771z" fill="#5c5852"/><path d="M441.83834,172.63872l136.54205,-0.30591l5.34506,44.35666l-141.15825,0.15295z" fill="#64696a"/><path d="M466.86295,217.45424l-1.94366,-45.12143h90.38014l5.34506,44.5096z" fill="#ff0000"/><path d="M446.69748,271.29404l146.26035,-1.07068l5.34507,48.02756h-148.44696z" fill="#64696a"/><path d="M569.148,270.68223l3.64436,48.94528l-96.21113,-0.15295l-6.07393,-48.94527z" fill="#ff0000"/><path d="M1.39571,158.14633l-9.96125,-6.57702l643.91944,-3.82385l-5.58801,8.10657l-624.03606,2.44726z" fill="#5c5852"/><path d="M29.33746,358.33789l15.47312,-101.28762l162.70446,-0.1988l-3.78933,100.3244z" fill="#bdbab2"/><path d="M55.15229,267.31914l136.41598,0.5964l-3.47357,51.2899l-140.52107,-0.5964z" fill="#ff0000"/></g><path d="M343.77233,252.04294c1.54273,0.16315 3.06716,0.35509 4.57329,0.57582c0,0.06334 0,0.1286 0,0.19194c-1.7287,0.12668 -3.25314,-0.13052 -4.57329,-0.76776z" fill="#786159" fill-rule="evenodd" stroke="none" stroke-width="1" stroke-linecap="butt"/><path d="M279.00355,226.03982c0.0736,-0.39383 0.10007,-0.79163 0.10027,-1.18804c0.45369,-7.94664 -1.61113,-15.63296 3.55352,-23.26435c1.11817,-1.64339 2.06829,-3.46641 4.65846,-4.46134c4.2875,-1.64689 9.86984,-1.96614 14.68319,-2.57561c1.89049,-0.23937 3.65678,-0.69752 5.5735,-0.85703c3.10051,-0.25803 6.82645,-0.35494 9.70367,-1.03419c12.30922,-0.06447 24.62238,-0.0101 36.9321,-0.0101c7.87162,0 14.20956,1.0748 21.25803,3.13954c2.46393,0.72177 4.85636,1.35465 6.45653,2.83727c1.33633,1.23816 1.47488,3.3038 1.49403,4.75638c0.04274,4.94641 0.26204,9.77781 -0.08324,14.72435c-0.17874,2.56061 0.13839,5.32801 -1.67826,7.65829c0,0 -0.44721,0.56309 -1.34164,0.28154c-0.89443,-0.28154 -0.44721,-0.84463 -0.44721,-0.84463c1.7114,-2.10799 1.30589,-4.81608 1.46905,-7.15051c0.34431,-4.92628 0.12466,-9.73562 0.08134,-14.66213c-0.00423,-1.20299 -0.08817,-3.10668 -1.2178,-4.12477c-1.37042,-1.2351 -3.50872,-1.72838 -5.57659,-2.33424c-6.78906,-1.9891 -12.82482,-3.02199 -20.41422,-3.02199c-12.19019,0 -24.38581,0.06823 -36.57525,-0.0101c-2.8892,0.68209 -6.68765,0.79178 -9.79828,1.04353c-1.8654,0.15097 -3.59876,0.60879 -5.44048,0.84307c-4.62509,0.58834 -9.897,0.88684 -14.04983,2.42115c-2.16841,0.80115 -2.93364,2.5325 -3.84864,3.87729c-5.08053,7.42228 -3.02203,15.04566 -3.39226,22.79066c-0.00322,0.51733 -0.04827,1.03632 -0.16273,1.54861l-1.93266,-0.17819l-0.04723,0.00013c0.00034,-0.00146 0.00068,-0.00293 0.00101,-0.00439l-0.01106,-0.00102c0,0 0,-0.08851 0.05272,-0.19916z" fill="#000000" fill-rule="nonzero" stroke="none" stroke-width="0.5" stroke-linecap="butt"/><path d="M260.69106,179.95496c0,-0.62955 1,-0.62955 1,-0.62955l0.65446,0.03231c4.16721,-0.8611 9.95838,-0.55104 14.29619,-0.27975c4.86622,0.30635 9.73328,0.58956 14.53456,1.19503c3.0379,0.38309 6.05108,1.07638 9.14798,1.18349c2.1501,0.07437 5.53379,0.14874 8.19564,0.6967c-4.4862,-2.63276 -9.20904,-4.98831 -13.97815,-7.48579c-8.18901,-4.2884 -19.6707,-6.67145 -30.3269,-6.67145c0,0 -1,0 -1,-0.62955c0,-0.62955 1,-0.62955 1,-0.62955c11.11488,0 23.06579,2.4903 31.6059,6.96257c5.80031,3.03749 11.51678,5.87924 16.85892,9.23253l0.77655,0.48888c0.18096,0.11393 0.29289,0.27131 0.29289,0.44516c0,0.34769 -0.44772,0.62955 -1,0.62955c-0.11876,0 -0.23269,-0.01303 -0.33837,-0.03695l-1.87522,-0.39352l0.07229,-0.13653c-2.81287,-0.36088 -5.53132,-0.94935 -8.45794,-1.14831c-8.60377,-0.58492 -17.03185,-1.90325 -25.70716,-2.4494c-4.00584,-0.25394 -9.62116,-0.60004 -13.46473,0.22139l-1.28691,0.03231c0,0 -1,0 -1,-0.62955z" fill="#000000" fill-rule="nonzero" stroke="none" stroke-width="0.5" stroke-linecap="butt"/><path d="M396.98834,180.14284c-0.29844,0.60086 -1.25287,0.41297 -1.25287,0.41297l-1.09421,-0.22296c-5.4783,0.02137 -10.95731,0.0078 -16.43571,0.00689c-11.85545,0.48496 -23.67401,3.4025 -35.55087,3.69359l0.02116,0.06218l-1.93481,0.26101c-0.07394,0.01097 -0.15106,0.01678 -0.23032,0.01678c-0.55228,0 -1,-0.28186 -1,-0.62955c0,-0.1715 0.10893,-0.32699 0.28561,-0.44053l0.78119,-0.50291c3.39602,-3.00355 7.97816,-4.60326 12.81641,-6.59782c3.76783,-1.55243 7.58296,-3.0537 11.35924,-4.59108c3.68289,-1.49937 7.67965,-3.43643 12.07407,-4.01213c2.43339,-0.31879 5.27461,-0.12914 7.75259,-0.12914c0,0 1,0 1,0.62955c0,0.62955 -1,0.62955 -1,0.62955c-2.3384,0 -5.05,-0.19795 -7.34512,0.10273c-4.13633,0.54189 -7.9296,2.42796 -11.39611,3.83697c-3.77573,1.5347 -7.58456,3.03485 -11.34918,4.58696c-4.17119,1.71881 -8.09818,3.10832 -11.23399,5.43011c2.63521,-0.67428 6.49988,-0.64894 8.92611,-0.87006c8.71675,-0.79443 17.15422,-2.37858 25.95951,-2.73468c5.60059,-0.0009 11.20159,-0.0119 16.80211,0.00689l1.38919,0.26591c0,0 0.95443,0.18789 0.65598,0.78875z" fill="#000000" fill-rule="nonzero" stroke="none" stroke-width="0.5" stroke-linecap="butt"/></g></g></svg>