<svg version="1.1" xmlns="http://www.w3.org/2000/svg" xmlns:xlink="http://www.w3.org/1999/xlink" width="2878.25007" height="1619.57958" viewBox="0,0,2878.25007,1619.57958"><g transform="translate(1117.37278,629.80931)"><g data-paper-data="{&quot;isPaintingLayer&quot;:true}" stroke-linejoin="miter" stroke-miterlimit="10" stroke-dasharray="" stroke-dashoffset="0" style="mix-blend-mode: normal"><path d="M583.95344,-155.27162c1.7251,0 3.44795,0 5.17305,0c0,0.22491 0,0.44982 0,0.67474c-1.70485,-0.35941 -3.42996,-0.58432 -5.17305,-0.67474z" fill="#958c8c" fill-rule="evenodd" stroke="none" stroke-width="1" stroke-linecap="butt"/><path d="M-1117.37278,989.77027v-1619.57958h2878.25007v1619.57958z" fill="none" fill-rule="nonzero" stroke="#000000" stroke-width="0" stroke-linecap="butt"/><path d="M330.0947,246.67819c-8.8994,0 -17.80132,0 -26.70072,0c0.23426,-0.09591 0.48615,-0.19536 0.75568,-0.29601c8.3956,-0.07934 16.79374,-0.07934 25.18935,0c0.26952,0.10064 0.52143,0.20009 0.75569,0.29601z" fill="#4a1205" fill-rule="evenodd" stroke="none" stroke-width="1" stroke-linecap="butt"/><path d="M303.14209,246.67819c0.08312,0 0.16877,0 0.25189,0c8.8994,0 17.80132,0 26.70072,0c0.30479,0.05092 0.55668,0.13024 0.75568,0.23681c-9.32006,0 -18.64013,0 -27.96017,0c0,-0.03908 0,-0.07934 0,-0.1184c0.16877,0 0.25189,-0.03907 0.25189,-0.1184z" fill="#922713" fill-rule="evenodd" stroke="none" stroke-width="1" stroke-linecap="butt"/><path d="M328.01703,229.78426c1.54273,0.12182 3.06716,0.26512 4.57329,0.42993c0,0.04729 0,0.09602 0,0.14331c-1.7287,0.09458 -3.25314,-0.09745 -4.57329,-0.57324z" fill="#786159" fill-rule="evenodd" stroke="none" stroke-width="1" stroke-linecap="butt"/><g fill-rule="nonzero" stroke-width="1.5"><path d="M385.83222,369.72346l-18.77706,-25.38497l89.19115,0.22464l31.92107,25.16032z" fill="#cedce9" stroke="#000000" stroke-linecap="round"/><path d="M496.65111,368.40429c-2.4139,0.27826 -4.78708,0.43748 -7.13644,0.55227c0.0159,0.04274 0.02413,0.08733 0.02413,0.13384c0,1.13297 -4.91448,1.13297 -4.91448,1.13297c-21.70572,0 -43.41136,0 -65.11703,0c-5.58546,0 -19.48369,-0.51401 -23.60325,0.16364c-2.37294,0.39033 -4.07173,0.35169 -7.11235,0.40284c-0.34319,0.00578 -0.96743,0.01813 -1.51898,0.02573c2.94016,0.4839 1.51898,4.95573 1.51898,6.20568c0,5.28728 0,10.57454 0,15.8618c0,0.94415 0,1.88833 0,2.83246c0,0.37764 -0.86435,1.45378 0,1.13297c3.28855,-1.22054 9.70628,-0.56431 17.20072,-0.5665c14.77312,-0.00432 30.58933,-0.36852 45.0988,0.24419c26.49534,1.22164 54.98202,-0.73016 81.26592,0.63092c22.13705,1.27586 48.63617,1.39083 71.44352,1.39083c5.73365,0 11.46717,0 17.20076,0c0.86265,0 2.21717,-0.02678 3.61956,-0.05614c-1.41071,-0.58121 0.06632,-1.98672 0.06632,-2.77632c0,-2.94976 4.28904,-8.03811 -0.97637,-10.68831c-4.65306,-3.21814 -7.59645,-6.31656 -15.18659,-9.52599c-5.6002,-2.36804 -14.31813,-4.46713 -18.95174,-6.8194c-2.24637,-1.40194 -4.25738,-0.39998 -11.57289,-0.72444c-16.18731,-0.71793 -32.42239,-0.5665 -49.14493,-0.5665c-6.09552,0 -13.75093,0.28532 -19.65803,0c-1.24693,-0.06022 -3.59035,-0.2841 -5.34689,-0.46747c3.21278,0.57224 -4.11829,1.12577 -7.19878,1.48087zM419.507,367.95743c16.40449,0 32.80894,0 49.21341,0c0.47327,-0.05456 0.94638,-0.10909 1.41959,-0.16364c6.23316,-0.7185 11.86066,-0.52809 17.20076,-0.84974c7.27745,-0.43834 11.63051,-1.91457 19.13917,-2.26597c4.31338,-0.20187 16.2602,0.44689 22.3746,0.44689c16.57946,0 33.14079,-0.21855 49.14494,0.5665c8.99053,0.441 16.58853,-0.41875 20.79294,2.20522c0.61986,0.99675 5.58061,1.61974 8.17525,2.38652c3.9652,1.17181 7.27943,2.90726 10.34779,4.20468c7.6064,3.21632 10.9509,6.52444 15.71997,9.82279c4.26196,3.47674 1.48087,7.78802 1.48087,11.40488c0,1.99962 1.367,3.40895 -4.91448,5.09844c-2.19039,0.58916 -22.42671,0 -25.80107,0c-23.5247,0 -51.01166,-0.14354 -73.82742,-1.45853c-25.06514,-1.68905 -54.90152,0.58729 -80.80965,-0.60727c-20.87784,-1.08415 -53.10351,1.80391 -70.20086,-1.89968c-1.69272,-0.36668 0,-3.36169 0,-3.96546c0,-5.28728 0,-10.57453 0,-15.8618c0,-1.76773 -3.38009,-5.98827 1.74752,-7.30462c8.94799,-2.29717 25.69427,-1.75928 38.79696,-1.75928z" data-paper-data="{&quot;index&quot;:null}" fill="#000000" stroke="none" stroke-linecap="butt"/><path d="M489.44615,368.90215c2.34934,-0.11479 4.75112,-0.27551 7.16513,-0.55376c3.08049,-0.35509 10.44068,-0.90932 7.22783,-1.48153c1.7565,0.18336 4.11948,0.40722 5.36629,0.46746c5.90713,0.28532 13.63114,0.00284 19.72646,0.00284c16.72246,0 33.06296,-0.13558 49.2502,0.58237c7.3155,0.32446 9.34177,-0.67321 11.58816,0.72874c4.63364,2.35226 13.38836,4.46821 18.98866,6.83626c7.59012,3.20942 10.54366,6.32935 15.19668,9.54747c5.26547,2.65022 0.95334,7.75815 0.95334,10.70793c0,0.78959 -1.48622,2.19912 -0.07548,2.78033c-1.40232,0.02936 -2.75868,0.05687 -3.62141,0.05687c-5.73359,0 -11.47718,0.00356 -17.21078,0.00356c-22.80749,0 -49.41422,-0.09525 -71.55124,-1.37113c-26.28392,-1.36109 -55.03099,0.57972 -81.52635,-0.64191c-14.50948,-0.61271 -30.37042,-0.26143 -45.14355,-0.25713c-7.49439,0.00219 -13.91797,-0.65647 -17.20651,0.56406c-0.86435,0.32081 -0.00371,-0.75702 -0.00371,-1.13467c0,-0.94415 -0.00843,-1.89292 -0.00843,-2.83705c0,-5.28728 -0.01023,-10.60597 -0.01023,-15.89324c0,-1.24995 1.43614,-5.73265 -1.50407,-6.21654c0.55162,-0.00761 1.17629,-0.02026 1.51954,-0.02603c3.0405,-0.05114 4.74321,-0.01441 7.11606,-0.40473c4.11955,-0.67765 18.03039,-0.16891 23.61586,-0.16891c21.70576,0 43.5271,-0.02253 65.23276,-0.02253c0,0 4.93861,-0.00195 4.93861,-1.13491c0,-0.0465 -0.00765,-0.09112 -0.02359,-0.13388z" data-paper-data="{&quot;noHover&quot;:false,&quot;origItem&quot;:[&quot;Path&quot;,{&quot;applyMatrix&quot;:true,&quot;segments&quot;:[[[579.60736,595.76373],[0.95609,-0.20262],[0.00646,0.07548]],[[579.61718,596],[0,-0.08208],[0,2]],[[577.61718,598],[0,0],[-8.83333,0]],[[551.11718,598],[8.83333,0],[-2.27308,0]],[[541.51161,598.28885],[1.67648,-1.19621],[-0.96568,0.68904]],[[538.61718,599],[1.23739,-0.09027],[-0.13966,0.01019]],[[537.99901,599.04541],[0.22447,-0.0134],[1.19653,0.85421]],[[538.61718,610],[0,-2.20646],[0,9.33333]],[[538.61718,638],[0,-9.33333],[0,1.66667]],[[538.61718,643],[0,-1.66667],[0,0.66667]],[[538.61718,645],[-0.35177,0.56631],[1.33831,-2.15456]],[[545.61718,644],[-3.04994,0.00386],[6.01206,-0.00761]],[[563.97058,644.43107],[-5.90478,-1.08158],[10.78253,2.15651]],[[597.04254,645.54479],[-10.6965,-2.40266],[9.00888,2.25222]],[[626.11718,648],[-9.28168,0],[2.33333,0]],[[633.11718,648],[-2.33333,0],[0.35109,0]],[[634.59021,647.90091],[-0.5707,0.05184],[-0.57412,-1.02596]],[[634.61718,643],[0,1.39387],[0,-5.20707]],[[634.21982,624.13246],[2.14282,4.67827],[-1.8936,-5.6808]],[[628.03948,607.31672],[3.08887,5.66543],[-2.2791,-4.1802]],[[620.32688,595.27881],[1.8857,4.15235],[-0.91417,-2.47477]],[[615.61718,594],[2.9771,0.57275],[-6.58756,-1.26734]],[[595.61718,593],[6.8054,0],[-2.48058,0]],[[587.61718,593],[2.40395,0.50364],[-0.50743,-0.10631]],[[585.44122,592.1748],[0.71481,0.32365],[1.30749,1.01011]],[[582.51161,594.78885],[1.25365,-0.62682],[-0.98239,0.4912]]],&quot;closed&quot;:true}],&quot;index&quot;:null}" fill="#484848" stroke="none" stroke-linecap="butt"/><path d="M558.34163,373.05575c0,-0.13138 -0.06803,-0.35139 -0.1331,-0.56754c-0.25314,0.08773 -0.63069,0.16248 -1.1163,0.22608c-1.45611,0.34142 -3.66512,0.34144 -3.66512,0.34144c-18.71937,0 -29.5314,3.00772 -36.14891,6.17162c-0.7785,0.35897 -0.70971,0.79147 -0.70971,1.19279c0,0.11419 -0.04742,0.29566 -0.09916,0.48336c0.04949,-0.0604 0.17307,-0.11007 0.42463,-0.14196c1.11152,-0.14085 10.77492,0.72108 11.96069,0.22512c0.35637,-0.14905 -1.74787,-0.17713 -1.63183,-0.34521c1.42734,-2.06642 16.56513,-5.19205 24.00649,-6.04982c1.93004,-0.22247 4.10263,-0.3344 6.26251,-0.38566c-0.84446,-0.30319 0.84978,-0.76727 0.84978,-1.15015zM516.44344,380.9973c-0.11147,0.40279 -0.21041,0.78782 0.12501,0.55586c0.22927,-0.15852 -0.10168,-0.38105 -0.12501,-0.55586zM508.487,378.21399c7.02384,-3.05263 16.36535,-5.836 30.92295,-6.93152c1.36753,-0.49268 4.18825,-0.49267 4.18825,-0.49267h2.45724c5.56394,0 8.50762,-0.44686 14.48406,-0.44686c8.29986,0 10.22379,3.8048 5.88362,4.91903c-2.73879,0.70311 -7.13188,0.93381 -10.79815,1.35642c-10.85221,1.25093 -14.87894,4.84564 -26.77026,6.63426c-12.60333,1.8957 -26.4786,-2.22103 -20.36774,-5.03863z" data-paper-data="{&quot;index&quot;:null}" fill="#000000" stroke="none" stroke-linecap="butt"/><path d="M558.39116,372.45031c0.06521,0.21613 0.14463,0.43929 0.14463,0.57067c0,0.38289 -1.67406,0.85394 -0.82963,1.15715c-2.1599,0.05124 -4.34498,0.15857 -6.27505,0.38106c-7.44146,0.85779 -22.6523,3.96757 -24.0796,6.03397c-0.11619,0.16809 1.7547,0.29566 1.3983,0.44472c-1.18577,0.49594 -10.93282,-0.38087 -12.04442,-0.24002c-0.25166,0.0319 -0.37403,0.08184 -0.42345,0.14228c0.05176,-0.18772 0.09003,-0.37178 0.09003,-0.48597c0,-0.40132 -0.09025,-0.84169 0.6883,-1.20066c6.61746,-3.16392 17.81977,-6.23815 36.53909,-6.23815c0,0 2.21904,0.00242 3.67513,-0.33901c0.48559,-0.06361 0.86342,-0.13838 1.11641,-0.22608z" data-paper-data="{&quot;noHover&quot;:false,&quot;origItem&quot;:[&quot;Path&quot;,{&quot;applyMatrix&quot;:true,&quot;segments&quot;:[[[607.563,601.99816],[0.02649,0.38155],[-0.10299,0.15484]],[[607.10872,602.39727],[0.1976,-0.11227],[-0.59254,0.60273]],[[605.61718,603],[0,0],[-7.618,0]],[[590.90604,613.89443],[2.69308,-5.58508],[-0.31682,0.63364]],[[590.61718,616],[0,-0.70843],[0,0.20156]],[[590.57685,616.85325],[0.02106,-0.33136],[0.02013,-0.10671]],[[590.74964,616.60263],[-0.10238,0.05628],[0.45234,-0.24865]],[[595.61718,617],[-0.48256,0.87548],[0.14503,-0.26312]],[[594.95308,616.3906],[-0.04725,0.29671],[0.58086,-3.64773]],[[604.72276,605.71115],[-3.02833,1.51416],[0.78545,-0.39273]],[[607.27135,605.03032],[-0.87898,0.0905],[-0.34365,-0.53523]],[[607.61718,603],[0,0.6759],[0,-0.23192]]],&quot;closed&quot;:true}],&quot;index&quot;:null}" fill="#ffffff" stroke="none" stroke-linecap="butt"/><path d="M158.29554,368.78336l31.92107,-25.16032l89.19115,-0.22464l-18.77706,25.38497z" data-paper-data="{&quot;index&quot;:null}" fill="#cedce9" stroke="#000000" stroke-linecap="round"/><path d="M149.81184,367.46413c-3.08049,-0.35509 -10.41156,-0.90862 -7.19878,-1.48087c-1.75654,0.18337 -4.09996,0.40724 -5.34689,0.46747c-5.9071,0.28532 -13.56251,0 -19.65803,0c-16.72254,0 -32.95762,-0.15144 -49.14493,0.5665c-7.31551,0.32446 -9.32652,-0.6775 -11.57289,0.72444c-4.63361,2.35227 -13.35154,4.45135 -18.95174,6.8194c-7.59014,3.20943 -10.53353,6.30784 -15.18659,9.52599c-5.26541,2.65021 -0.97637,7.73855 -0.97637,10.68831c0,0.7896 1.47703,2.19511 0.06632,2.77632c1.40239,0.02936 2.75691,0.05614 3.61956,0.05614c5.73359,0 11.46711,0 17.20076,0c22.80735,0 49.30647,-0.11498 71.44352,-1.39083c26.2839,-1.36108 54.77058,0.59072 81.26592,-0.63092c14.50947,-0.6127 30.32568,-0.24851 45.0988,-0.24419c7.49444,0.00219 13.91217,-0.65404 17.20072,0.5665c0.86435,0.32082 0,-0.75533 0,-1.13297c0,-0.94414 0,-1.88832 0,-2.83246c0,-5.28726 0,-10.57452 0,-15.8618c0,-1.24995 -1.42118,-5.72179 1.51898,-6.20568c-0.55155,-0.0076 -1.17579,-0.01995 -1.51898,-0.02573c-3.04062,-0.05114 -4.73941,-0.01251 -7.11235,-0.40284c-4.11956,-0.67765 -18.01779,-0.16364 -23.60325,-0.16364c-21.70567,0 -43.41131,0 -65.11703,0c0,0 -4.91448,0 -4.91448,-1.13297c0,-0.04651 0.00823,-0.0911 0.02413,-0.13384c-2.34936,-0.11479 -4.72254,-0.27402 -7.13644,-0.55227zM226.95565,367.01727c13.10269,0 29.84897,-0.53789 38.79696,1.75928c5.12761,1.31636 1.74752,5.5369 1.74752,7.30462c0,5.28727 0,10.57452 0,15.8618c0,0.60376 1.69272,3.59877 0,3.96546c-17.09735,3.70358 -49.32302,0.81553 -70.20086,1.89968c-25.90813,1.19456 -55.74451,-1.08178 -80.80965,0.60727c-22.81576,1.31498 -50.30272,1.45853 -73.82742,1.45853c-3.37436,0 -23.61068,0.58916 -25.80107,0c-6.28148,-1.68949 -4.91448,-3.09882 -4.91448,-5.09844c0,-3.61685 -2.78109,-7.92813 1.48087,-11.40488c4.76907,-3.29834 8.11357,-6.60648 15.71997,-9.82279c3.06836,-1.29741 6.38259,-3.03287 10.34779,-4.20468c2.59464,-0.76677 7.55539,-1.38977 8.17525,-2.38652c4.20441,-2.62396 11.80241,-1.76421 20.79294,-2.20522c16.00415,-0.78504 32.56548,-0.5665 49.14494,-0.5665c6.1144,0 18.06122,-0.64875 22.3746,-0.44689c7.50866,0.35139 11.86172,1.82762 19.13917,2.26597c5.3401,0.32164 10.9676,0.13124 17.20076,0.84974c0.47321,0.05456 0.94632,0.10909 1.41959,0.16364c16.40447,0 32.80892,0 49.21341,0z" data-paper-data="{&quot;index&quot;:null}" fill="#000000" stroke="none" stroke-linecap="butt"/><path d="M157.01653,367.962c-0.01594,0.04276 -0.02359,0.08736 -0.02359,0.13388c0,1.13297 4.93861,1.13491 4.93861,1.13491c21.70566,0 43.527,0.02253 65.23276,0.02253c5.58547,0 19.49631,-0.50873 23.61586,0.16891c2.37285,0.39033 4.07556,0.35359 7.11606,0.40473c0.34325,0.00578 0.96792,0.01843 1.51954,0.02603c-2.94021,0.4839 -1.50407,4.9666 -1.50407,6.21654c0,5.28727 -0.01023,10.60597 -0.01023,15.89324c0,0.94413 -0.00843,1.89289 -0.00843,2.83705c0,0.37765 0.86064,1.45548 -0.00371,1.13467c-3.28854,-1.22053 -9.71212,-0.56187 -17.20651,-0.56406c-14.77313,-0.00431 -30.63407,-0.35559 -45.14355,0.25713c-26.49536,1.22164 -55.24243,-0.71919 -81.52635,0.64191c-22.13702,1.27587 -48.74375,1.37113 -71.55124,1.37113c-5.7336,0 -11.47719,-0.00356 -17.21078,-0.00356c-0.86273,0 -2.21909,-0.02751 -3.62141,-0.05687c1.41074,-0.58121 -0.07548,-1.99074 -0.07548,-2.78033c0,-2.94978 -4.31213,-8.05772 0.95334,-10.70793c4.65302,-3.21813 7.60656,-6.33806 15.19668,-9.54747c5.6003,-2.36804 14.35502,-4.48401 18.98866,-6.83626c2.24639,-1.40194 4.27266,-0.40428 11.58816,-0.72874c16.18724,-0.71795 32.52774,-0.58237 49.2502,-0.58237c6.09532,0 13.81933,0.28248 19.72646,-0.00284c1.24681,-0.06024 3.60979,-0.2841 5.36629,-0.46746c-3.21285,0.57221 4.14734,1.12645 7.22783,1.48153c2.41401,0.27826 4.81579,0.43896 7.16513,0.55376z" data-paper-data="{&quot;noHover&quot;:false,&quot;origItem&quot;:[&quot;Path&quot;,{&quot;applyMatrix&quot;:true,&quot;segments&quot;:[[[579.60736,595.76373],[0.95609,-0.20262],[0.00646,0.07548]],[[579.61718,596],[0,-0.08208],[0,2]],[[577.61718,598],[0,0],[-8.83333,0]],[[551.11718,598],[8.83333,0],[-2.27308,0]],[[541.51161,598.28885],[1.67648,-1.19621],[-0.96568,0.68904]],[[538.61718,599],[1.23739,-0.09027],[-0.13966,0.01019]],[[537.99901,599.04541],[0.22447,-0.0134],[1.19653,0.85421]],[[538.61718,610],[0,-2.20646],[0,9.33333]],[[538.61718,638],[0,-9.33333],[0,1.66667]],[[538.61718,643],[0,-1.66667],[0,0.66667]],[[538.61718,645],[-0.35177,0.56631],[1.33831,-2.15456]],[[545.61718,644],[-3.04994,0.00386],[6.01206,-0.00761]],[[563.97058,644.43107],[-5.90478,-1.08158],[10.78253,2.15651]],[[597.04254,645.54479],[-10.6965,-2.40266],[9.00888,2.25222]],[[626.11718,648],[-9.28168,0],[2.33333,0]],[[633.11718,648],[-2.33333,0],[0.35109,0]],[[634.59021,647.90091],[-0.5707,0.05184],[-0.57412,-1.02596]],[[634.61718,643],[0,1.39387],[0,-5.20707]],[[634.21982,624.13246],[2.14282,4.67827],[-1.8936,-5.6808]],[[628.03948,607.31672],[3.08887,5.66543],[-2.2791,-4.1802]],[[620.32688,595.27881],[1.8857,4.15235],[-0.91417,-2.47477]],[[615.61718,594],[2.9771,0.57275],[-6.58756,-1.26734]],[[595.61718,593],[6.8054,0],[-2.48058,0]],[[587.61718,593],[2.40395,0.50364],[-0.50743,-0.10631]],[[585.44122,592.1748],[0.71481,0.32365],[1.30749,1.01011]],[[582.51161,594.78885],[1.25365,-0.62682],[-0.98239,0.4912]]],&quot;closed&quot;:true}],&quot;index&quot;:null}" fill="#484848" stroke="none" stroke-linecap="butt"/><path d="M88.12131,372.1157c0,0.38289 1.69424,0.84697 0.84978,1.15015c2.15988,0.05126 4.33247,0.16319 6.26251,0.38566c7.44136,0.85777 22.57915,3.98341 24.00649,6.04982c0.11604,0.16807 -1.9882,0.19617 -1.63183,0.34521c1.18577,0.49597 10.84917,-0.36597 11.96069,-0.22512c0.25156,0.03189 0.37514,0.08156 0.42463,0.14196c-0.05174,-0.1877 -0.09916,-0.36918 -0.09916,-0.48336c0,-0.40133 0.06879,-0.83382 -0.70971,-1.19279c-6.61751,-3.1639 -17.42954,-6.17162 -36.14891,-6.17162c0,0 -2.20901,-0.00003 -3.66512,-0.34144c-0.48561,-0.0636 -0.86316,-0.13836 -1.1163,-0.22608c-0.06507,0.21614 -0.1331,0.43615 -0.1331,0.56754zM129.89449,380.61306c0.33542,0.23197 0.23648,-0.15306 0.12501,-0.55586c-0.02333,0.17481 -0.35428,0.39734 -0.12501,0.55586zM137.97597,377.27392c6.11086,2.81759 -7.76441,6.93433 -20.36774,5.03863c-11.89132,-1.78862 -15.91805,-5.38333 -26.77026,-6.63426c-3.66627,-0.42262 -8.05936,-0.65331 -10.79815,-1.35642c-4.34017,-1.11423 -2.41624,-4.91902 5.88362,-4.91902c5.97644,0 8.92012,0.44686 14.48406,0.44686h2.45724c0,0 2.82072,0 4.18825,0.49267c14.5576,1.09553 23.89911,3.8789 30.92295,6.93152z" data-paper-data="{&quot;index&quot;:null}" fill="#000000" stroke="none" stroke-linecap="butt"/><path d="M88.07201,371.51018c0.25299,0.0877 0.63082,0.16247 1.11641,0.22608c1.45609,0.34144 3.67513,0.33901 3.67513,0.33901c18.71932,0 29.92163,3.07423 36.53909,6.23815c0.77855,0.35897 0.6883,0.79934 0.6883,1.20066c0,0.11418 0.03827,0.29824 0.09003,0.48597c-0.04942,-0.06045 -0.17179,-0.11039 -0.42345,-0.14228c-1.1116,-0.14085 -10.85865,0.73598 -12.04442,0.24002c-0.3564,-0.14906 1.51449,-0.27663 1.3983,-0.44472c-1.4273,-2.06641 -16.63814,-5.17619 -24.0796,-6.03397c-1.93007,-0.22249 -4.11515,-0.32981 -6.27505,-0.38106c0.84443,-0.30321 -0.82963,-0.77427 -0.82963,-1.15715c0,-0.13138 0.07942,-0.35454 0.14463,-0.57067z" data-paper-data="{&quot;noHover&quot;:false,&quot;origItem&quot;:[&quot;Path&quot;,{&quot;applyMatrix&quot;:true,&quot;segments&quot;:[[[607.563,601.99816],[0.02649,0.38155],[-0.10299,0.15484]],[[607.10872,602.39727],[0.1976,-0.11227],[-0.59254,0.60273]],[[605.61718,603],[0,0],[-7.618,0]],[[590.90604,613.89443],[2.69308,-5.58508],[-0.31682,0.63364]],[[590.61718,616],[0,-0.70843],[0,0.20156]],[[590.57685,616.85325],[0.02106,-0.33136],[0.02013,-0.10671]],[[590.74964,616.60263],[-0.10238,0.05628],[0.45234,-0.24865]],[[595.61718,617],[-0.48256,0.87548],[0.14503,-0.26312]],[[594.95308,616.3906],[-0.04725,0.29671],[0.58086,-3.64773]],[[604.72276,605.71115],[-3.02833,1.51416],[0.78545,-0.39273]],[[607.27135,605.03032],[-0.87898,0.0905],[-0.34365,-0.53523]],[[607.61718,603],[0,0.6759],[0,-0.23192]]],&quot;closed&quot;:true}],&quot;index&quot;:null}" fill="#ffffff" stroke="none" stroke-linecap="butt"/></g><g fill-rule="nonzero" stroke="#000000" stroke-width="1" stroke-linecap="round"><path d="M-2.28364,369.41356l31.24583,-148.99135l563.32625,-2.25956l29.44318,146.02421z" fill="#c4c3ba"/><path d="M623.55217,364.21622l-625.55564,5.6404l5.684,-31.02226l237.228,2.07804l0.31577,-67.98178l189.2298,-1.48432l5.684,67.75913l180.38801,0.29686z" fill="#8b8b8b"/><path d="M275.3283,367.63015l5.36822,-89.5044l15.47311,-3.7108l20.20978,-2.67177l29.99888,-0.29686l19.26244,0.74215l25.578,4.30453l8.84178,89.87547z" fill="#cdd3cc"/><path d="M290.16986,367.11063l2.52623,-83.82688h87.47042l6.94711,82.30545z" fill="#756d5d"/><path d="M306.59027,364.69862l0.31578,-64.97603l59.05043,0.29686l2.84201,65.38422l-60.31354,-0.59373z" fill="#656258"/><path d="M315.11629,361.39601l0.63155,-58.11106l41.99844,0.89059l3.15778,57.2947z" fill="#ff0000"/><path d="M227.40903,293.7482l-203.67661,0.89059l-0.94733,-7.12473l207.15019,0.29686z" fill="#2f2e33"/><path d="M44.42078,227.08804l186.34832,-1.02782l-2.67253,34.83176l-188.29197,-1.02782z" fill="#64696a"/><path d="M207.93111,226.63122l-2.67253,33.91816l-143.83078,-0.45682l7.77463,-33.68974z" fill="#ff0000"/><path d="M451.25294,271.17021l-226.61852,2.16985l-3.88732,-5.59592l232.26728,-0.68521z" fill="#5c5852"/><path d="M441.83834,230.51411l136.54205,-0.22841l5.34506,33.11873l-141.15825,0.1142z" fill="#64696a"/><path d="M466.86295,263.97546l-1.94366,-33.68975h90.38014l5.34506,33.23293z" fill="#ff0000"/><path d="M446.69748,304.17475l146.26035,-0.79942l5.34507,35.8596h-148.44696z" fill="#64696a"/><path d="M569.148,303.71794l3.64436,36.54481l-96.21113,-0.1142l-6.07393,-36.54481z" fill="#ff0000"/><path d="M1.39571,219.69343l-9.96125,-4.91071l643.91944,-2.85506l-5.58801,6.05274l-624.03606,1.82724z" fill="#5c5852"/><path d="M29.33746,369.16571l15.47312,-75.62603l162.70446,-0.14844l-3.78933,74.90684z" fill="#bdbab2"/><path d="M55.15229,301.2069l136.41598,0.4453l-3.47357,38.29541l-140.52107,-0.4453z" fill="#ff0000"/></g><path d="M343.77233,289.80098c1.54273,0.12182 3.06716,0.26512 4.57329,0.42993c0,0.04729 0,0.09602 0,0.14331c-1.7287,0.09458 -3.25314,-0.09745 -4.57329,-0.57324z" fill="#786159" fill-rule="evenodd" stroke="none" stroke-width="1" stroke-linecap="butt"/><path d="M279.00355,270.38585c0.0736,-0.29405 0.10007,-0.59107 0.10027,-0.88704c0.45369,-5.93333 -1.61113,-11.67229 3.55352,-17.37024c1.11817,-1.22703 2.06829,-2.58819 4.65846,-3.33104c4.2875,-1.22965 9.86984,-1.46801 14.68319,-1.92307c1.89049,-0.17872 3.65678,-0.5208 5.5735,-0.6399c3.10051,-0.19266 6.82645,-0.26502 9.70367,-0.77218c12.30922,-0.04814 24.62238,-0.00754 36.9321,-0.00754c7.87162,0 14.20956,0.8025 21.25803,2.34413c2.46393,0.53891 4.85636,1.01144 6.45653,2.11844c1.33633,0.92447 1.47488,2.46677 1.49403,3.55133c0.04274,3.69322 0.26204,7.30057 -0.08324,10.99388c-0.17874,1.91187 0.13839,3.97814 -1.67826,5.71803c0,0 -0.44721,0.42043 -1.34164,0.21021c-0.89443,-0.21021 -0.44721,-0.63064 -0.44721,-0.63064c1.7114,-1.57392 1.30589,-3.5959 1.46905,-5.3389c0.34431,-3.67819 0.12466,-7.26906 0.08134,-10.94743c-0.00423,-0.89821 -0.08817,-2.31959 -1.2178,-3.07975c-1.37042,-0.92218 -3.50872,-1.29049 -5.57659,-1.74285c-6.78906,-1.48515 -12.82482,-2.25636 -20.41422,-2.25636c-12.19019,0 -24.38581,0.05094 -36.57525,-0.00754c-2.8892,0.50928 -6.68765,0.59118 -9.79828,0.77915c-1.8654,0.11272 -3.59876,0.45455 -5.44048,0.62947c-4.62509,0.43928 -9.897,0.66215 -14.04983,1.80774c-2.16841,0.59818 -2.93364,1.89089 -3.84864,2.89496c-5.08053,5.54182 -3.02203,11.23379 -3.39226,17.01656c-0.00322,0.38626 -0.04827,0.77376 -0.16273,1.15626l-1.93266,-0.13304l-0.04723,0.0001c0.00034,-0.00109 0.00068,-0.00219 0.00101,-0.00328l-0.01106,-0.00076c0,0 0,-0.06608 0.05272,-0.14871z" fill="#000000" fill-rule="nonzero" stroke="none" stroke-width="0.5" stroke-linecap="butt"/><path d="M260.69106,235.97676c0,-0.47005 1,-0.47005 1,-0.47005l0.65446,0.02413c4.16721,-0.64293 9.95838,-0.41143 14.29619,-0.20887c4.86622,0.22874 9.73328,0.44019 14.53456,0.89226c3.0379,0.28603 6.05108,0.80367 9.14798,0.88365c2.1501,0.05552 5.53379,0.11106 8.19564,0.52019c-4.4862,-1.96574 -9.20904,-3.7245 -13.97815,-5.58924c-8.18901,-3.20191 -19.6707,-4.98121 -30.3269,-4.98121c0,0 -1,0 -1,-0.47005c0,-0.47005 1,-0.47005 1,-0.47005c11.11488,0 23.06579,1.85937 31.6059,5.19858c5.80031,2.26793 11.51678,4.38971 16.85892,6.89343l0.77655,0.36502c0.18096,0.08507 0.29289,0.20258 0.29289,0.33237c0,0.2596 -0.44772,0.47005 -1,0.47005c-0.11876,0 -0.23269,-0.00973 -0.33837,-0.02759l-1.87522,-0.29382l0.07229,-0.10194c-2.81287,-0.26945 -5.53132,-0.70883 -8.45794,-0.85739c-8.60377,-0.43672 -17.03185,-1.42105 -25.70716,-1.82883c-4.00584,-0.1896 -9.62116,-0.44802 -13.46473,0.1653l-1.28691,0.02413c0,0 -1,0 -1,-0.47005z" fill="#000000" fill-rule="nonzero" stroke="none" stroke-width="0.5" stroke-linecap="butt"/><path d="M396.98834,236.11704c-0.29844,0.44863 -1.25287,0.30835 -1.25287,0.30835l-1.09421,-0.16647c-5.4783,0.01595 -10.95731,0.00582 -16.43571,0.00514c-11.85545,0.36209 -23.67401,2.54047 -35.55087,2.7578l0.02116,0.04643l-1.93481,0.19488c-0.07394,0.00819 -0.15106,0.01253 -0.23032,0.01253c-0.55228,0 -1,-0.21045 -1,-0.47005c0,-0.12805 0.10893,-0.24414 0.28561,-0.32892l0.78119,-0.37549c3.39602,-2.24259 7.97816,-3.43701 12.81641,-4.92624c3.76783,-1.15912 7.58296,-2.28003 11.35924,-3.42791c3.68289,-1.1195 7.67965,-2.56579 12.07407,-2.99565c2.43339,-0.23803 5.27461,-0.09642 7.75259,-0.09642c0,0 1,0 1,0.47005c0,0.47005 -1,0.47005 -1,0.47005c-2.3384,0 -5.05,-0.1478 -7.34512,0.07671c-4.13633,0.4046 -7.9296,1.81283 -11.39611,2.86486c-3.77573,1.14587 -7.58456,2.26596 -11.34918,3.42483c-4.17119,1.28334 -8.09818,2.32081 -11.23399,4.05437c2.63521,-0.50345 6.49988,-0.48453 8.92611,-0.64963c8.71675,-0.59316 17.15422,-1.77596 25.95951,-2.04184c5.60059,-0.00067 11.20159,-0.00889 16.80211,0.00514l1.38919,0.19854c0,0 0.95443,0.14029 0.65598,0.58892z" fill="#000000" fill-rule="nonzero" stroke="none" stroke-width="0.5" stroke-linecap="butt"/></g></g></svg>