<svg version="1.1" xmlns="http://www.w3.org/2000/svg" xmlns:xlink="http://www.w3.org/1999/xlink" width="2878.25007" height="1619.57958" viewBox="0,0,2878.25007,1619.57958"><g transform="translate(1117.37278,629.80931)"><g data-paper-data="{&quot;isPaintingLayer&quot;:true}" stroke-linejoin="miter" stroke-miterlimit="10" stroke-dasharray="" stroke-dashoffset="0" style="mix-blend-mode: normal"><path d="M583.95344,-155.27162c1.7251,0 3.44795,0 5.17305,0c0,0.22491 0,0.44982 0,0.67474c-1.70485,-0.35941 -3.42996,-0.58432 -5.17305,-0.67474z" fill="#958c8c" fill-rule="evenodd" stroke="none" stroke-width="1" stroke-linecap="butt"/><path d="M-1117.37278,989.77027v-1619.57958h2878.25007v1619.57958z" fill="none" fill-rule="nonzero" stroke="#000000" stroke-width="0" stroke-linecap="butt"/><path d="M330.0947,301.60378c-8.8994,0 -17.80132,0 -26.70072,0c0.23426,-0.06179 0.48615,-0.12586 0.75568,-0.19071c8.3956,-0.05111 16.79374,-0.05111 25.18935,0c0.26952,0.06484 0.52143,0.12891 0.75569,0.19071z" fill="#4a1205" fill-rule="evenodd" stroke="none" stroke-width="1" stroke-linecap="butt"/><path d="M303.14209,301.60378c0.08312,0 0.16877,0 0.25189,0c8.8994,0 17.80132,0 26.70072,0c0.30479,0.03281 0.55668,0.08391 0.75568,0.15257c-9.32006,0 -18.64013,0 -27.96017,0c0,-0.02518 0,-0.05111 0,-0.07628c0.16877,0 0.25189,-0.02517 0.25189,-0.07628z" fill="#922713" fill-rule="evenodd" stroke="none" stroke-width="1" stroke-linecap="butt"/><path d="M328.01703,290.71972c1.54273,0.07849 3.06716,0.17081 4.57329,0.27699c0,0.03047 0,0.06186 0,0.09233c-1.7287,0.06093 -3.25314,-0.06278 -4.57329,-0.36931z" fill="#786159" fill-rule="evenodd" stroke="none" stroke-width="1" stroke-linecap="butt"/><g fill-rule="nonzero" stroke-width="1.5"><path d="M385.83222,380.87679l-18.77706,-16.35449l89.19115,0.14472l31.92107,16.20976z" fill="#cedce9" stroke="#000000" stroke-linecap="round"/><path d="M496.65111,380.02691c-2.4139,0.17927 -4.78708,0.28185 -7.13644,0.3558c0.0159,0.02754 0.02413,0.05627 0.02413,0.08623c0,0.72992 -4.91448,0.72992 -4.91448,0.72992c-21.70572,0 -43.41136,0 -65.11703,0c-5.58546,0 -19.48369,-0.33116 -23.60325,0.10543c-2.37294,0.25148 -4.07173,0.22658 -7.11235,0.25953c-0.34319,0.00372 -0.96743,0.01168 -1.51898,0.01658c2.94016,0.31176 1.51898,3.19277 1.51898,3.99806c0,3.40638 0,6.81274 0,10.2191c0,0.60828 0,1.21657 0,1.82484c0,0.2433 -0.86435,0.93661 0,0.72992c3.28855,-0.78634 9.70628,-0.36356 17.20072,-0.36497c14.77312,-0.00279 30.58933,-0.23742 45.0988,0.15732c26.49534,0.78705 54.98202,-0.47041 81.26592,0.40647c22.13705,0.82199 48.63617,0.89606 71.44352,0.89606c5.73365,0 11.46717,0 17.20076,0c0.86265,0 2.21717,-0.01725 3.61956,-0.03617c-1.41071,-0.37445 0.06632,-1.27996 0.06632,-1.78867c0,-1.90041 4.28904,-5.17862 -0.97637,-6.88604c-4.65306,-2.07332 -7.59645,-4.0695 -15.18659,-6.1372c-5.6002,-1.52563 -14.31813,-2.87799 -18.95174,-4.39346c-2.24637,-0.90321 -4.25738,-0.25769 -11.57289,-0.46673c-16.18731,-0.46253 -32.42239,-0.36497 -49.14493,-0.36497c-6.09552,0 -13.75093,0.18382 -19.65803,0c-1.24693,-0.0388 -3.59035,-0.18304 -5.34689,-0.30117c3.21278,0.36867 -4.11829,0.72529 -7.19878,0.95406zM419.507,379.73901c16.40449,0 32.80894,0 49.21341,0c0.47327,-0.03515 0.94638,-0.07028 1.41959,-0.10543c6.23316,-0.4629 11.86066,-0.34023 17.20076,-0.54745c7.27745,-0.2824 11.63051,-1.23348 19.13917,-1.45987c4.31338,-0.13006 16.2602,0.28792 22.3746,0.28792c16.57946,0 33.14079,-0.1408 49.14494,0.36497c8.99053,0.28412 16.58853,-0.26978 20.79294,1.42073c0.61986,0.64216 5.58061,1.04353 8.17525,1.53754c3.9652,0.75495 7.27943,1.87303 10.34779,2.7089c7.6064,2.07214 10.9509,4.20343 15.71997,6.32842c4.26196,2.23992 1.48087,5.0175 1.48087,7.34769c0,1.28827 1.367,2.19625 -4.91448,3.28471c-2.19039,0.37957 -22.42671,0 -25.80107,0c-23.5247,0 -51.01166,-0.09248 -73.82742,-0.93967c-25.06514,-1.08819 -54.90152,0.37836 -80.80965,-0.39124c-20.87784,-0.69847 -53.10351,1.16219 -70.20086,-1.22388c-1.69272,-0.23623 0,-2.1658 0,-2.55478c0,-3.40638 0,-6.81273 0,-10.2191c0,-1.13887 -3.38009,-3.858 1.74752,-4.70606c8.94799,-1.47997 25.69427,-1.13343 38.79696,-1.13343z" data-paper-data="{&quot;index&quot;:null}" fill="#000000" stroke="none" stroke-linecap="butt"/><path d="M489.44615,380.34766c2.34934,-0.07395 4.75112,-0.1775 7.16513,-0.35676c3.08049,-0.22877 10.44068,-0.58584 7.22783,-0.95449c1.7565,0.11813 4.11948,0.26236 5.36629,0.30117c5.90713,0.18382 13.63114,0.00183 19.72646,0.00183c16.72246,0 33.06296,-0.08735 49.2502,0.3752c7.3155,0.20904 9.34177,-0.43372 11.58816,0.4695c4.63364,1.51546 13.38836,2.87868 18.98866,4.40432c7.59012,2.0677 10.54366,4.07774 15.19668,6.15104c5.26547,1.70743 0.95334,4.99826 0.95334,6.89868c0,0.5087 -1.48622,1.4168 -0.07548,1.79125c-1.40232,0.01891 -2.75868,0.03664 -3.62141,0.03664c-5.73359,0 -11.47718,0.00229 -17.21078,0.00229c-22.80749,0 -49.41422,-0.06137 -71.55124,-0.88337c-26.28392,-0.87689 -55.03099,0.37349 -81.52635,-0.41356c-14.50948,-0.39474 -30.37042,-0.16843 -45.14355,-0.16566c-7.49439,0.00141 -13.91797,-0.42294 -17.20651,0.3634c-0.86435,0.20669 -0.00371,-0.48772 -0.00371,-0.73102c0,-0.60828 -0.00843,-1.21953 -0.00843,-1.8278c0,-3.40638 -0.01023,-6.83299 -0.01023,-10.23936c0,-0.80529 1.43614,-3.69331 -1.50407,-4.00506c0.55162,-0.0049 1.17629,-0.01305 1.51954,-0.01677c3.0405,-0.03295 4.74321,-0.00929 7.11606,-0.26075c4.11955,-0.43658 18.03039,-0.10882 23.61586,-0.10882c21.70576,0 43.5271,-0.01451 65.23276,-0.01451c0,0 4.93861,-0.00125 4.93861,-0.73118c0,-0.02996 -0.00765,-0.0587 -0.02359,-0.08626z" data-paper-data="{&quot;noHover&quot;:false,&quot;origItem&quot;:[&quot;Path&quot;,{&quot;applyMatrix&quot;:true,&quot;segments&quot;:[[[579.60736,595.76373],[0.95609,-0.20262],[0.00646,0.07548]],[[579.61718,596],[0,-0.08208],[0,2]],[[577.61718,598],[0,0],[-8.83333,0]],[[551.11718,598],[8.83333,0],[-2.27308,0]],[[541.51161,598.28885],[1.67648,-1.19621],[-0.96568,0.68904]],[[538.61718,599],[1.23739,-0.09027],[-0.13966,0.01019]],[[537.99901,599.04541],[0.22447,-0.0134],[1.19653,0.85421]],[[538.61718,610],[0,-2.20646],[0,9.33333]],[[538.61718,638],[0,-9.33333],[0,1.66667]],[[538.61718,643],[0,-1.66667],[0,0.66667]],[[538.61718,645],[-0.35177,0.56631],[1.33831,-2.15456]],[[545.61718,644],[-3.04994,0.00386],[6.01206,-0.00761]],[[563.97058,644.43107],[-5.90478,-1.08158],[10.78253,2.15651]],[[597.04254,645.54479],[-10.6965,-2.40266],[9.00888,2.25222]],[[626.11718,648],[-9.28168,0],[2.33333,0]],[[633.11718,648],[-2.33333,0],[0.35109,0]],[[634.59021,647.90091],[-0.5707,0.05184],[-0.57412,-1.02596]],[[634.61718,643],[0,1.39387],[0,-5.20707]],[[634.21982,624.13246],[2.14282,4.67827],[-1.8936,-5.6808]],[[628.03948,607.31672],[3.08887,5.66543],[-2.2791,-4.1802]],[[620.32688,595.27881],[1.8857,4.15235],[-0.91417,-2.47477]],[[615.61718,594],[2.9771,0.57275],[-6.58756,-1.26734]],[[595.61718,593],[6.8054,0],[-2.48058,0]],[[587.61718,593],[2.40395,0.50364],[-0.50743,-0.10631]],[[585.44122,592.1748],[0.71481,0.32365],[1.30749,1.01011]],[[582.51161,594.78885],[1.25365,-0.62682],[-0.98239,0.4912]]],&quot;closed&quot;:true}],&quot;index&quot;:null}" fill="#484848" stroke="none" stroke-linecap="butt"/><path d="M558.34163,383.02365c0,-0.08464 -0.06803,-0.22639 -0.1331,-0.36564c-0.25314,0.05652 -0.63069,0.10468 -1.1163,0.14565c-1.45611,0.21996 -3.66512,0.21998 -3.66512,0.21998c-18.71937,0 -29.5314,1.93775 -36.14891,3.97612c-0.7785,0.23127 -0.70971,0.50991 -0.70971,0.76846c0,0.07357 -0.04742,0.19048 -0.09916,0.31141c0.04949,-0.03892 0.17307,-0.07091 0.42463,-0.09146c1.11152,-0.09074 10.77492,0.46456 11.96069,0.14503c0.35637,-0.09603 -1.74787,-0.11412 -1.63183,-0.22241c1.42734,-1.33131 16.56513,-3.34503 24.00649,-3.89765c1.93004,-0.14333 4.10263,-0.21544 6.26251,-0.24846c-0.84446,-0.19534 0.84978,-0.49432 0.84978,-0.74099zM516.44344,388.14006c-0.11147,0.2595 -0.21041,0.50756 0.12501,0.35812c0.22927,-0.10213 -0.10168,-0.24549 -0.12501,-0.35812zM508.487,386.34689c7.02384,-1.96668 16.36535,-3.7599 30.92295,-4.4657c1.36753,-0.31741 4.18825,-0.3174 4.18825,-0.3174h2.45724c5.56394,0 8.50762,-0.28789 14.48406,-0.28789c8.29986,0 10.22379,2.45128 5.88362,3.16913c-2.73879,0.45298 -7.13188,0.60161 -10.79815,0.87389c-10.85221,0.80593 -14.87894,3.12184 -26.77026,4.27418c-12.60333,1.22132 -26.4786,-1.43092 -20.36774,-3.24618z" data-paper-data="{&quot;index&quot;:null}" fill="#000000" stroke="none" stroke-linecap="butt"/><path d="M558.39116,382.63359c0.06521,0.13924 0.14463,0.28301 0.14463,0.36766c0,0.24668 -1.67406,0.55016 -0.82963,0.7455c-2.1599,0.03301 -4.34498,0.10216 -6.27505,0.2455c-7.44146,0.55264 -22.6523,2.55614 -24.0796,3.88744c-0.11619,0.10829 1.7547,0.19048 1.3983,0.28652c-1.18577,0.31951 -10.93282,-0.24538 -12.04442,-0.15464c-0.25166,0.02055 -0.37403,0.05273 -0.42345,0.09167c0.05176,-0.12094 0.09003,-0.23952 0.09003,-0.31309c0,-0.25855 -0.09025,-0.54227 0.6883,-0.77353c6.61746,-2.03838 17.81977,-4.01899 36.53909,-4.01899c0,0 2.21904,0.00156 3.67513,-0.21841c0.48559,-0.04098 0.86342,-0.08915 1.11641,-0.14565z" data-paper-data="{&quot;noHover&quot;:false,&quot;origItem&quot;:[&quot;Path&quot;,{&quot;applyMatrix&quot;:true,&quot;segments&quot;:[[[607.563,601.99816],[0.02649,0.38155],[-0.10299,0.15484]],[[607.10872,602.39727],[0.1976,-0.11227],[-0.59254,0.60273]],[[605.61718,603],[0,0],[-7.618,0]],[[590.90604,613.89443],[2.69308,-5.58508],[-0.31682,0.63364]],[[590.61718,616],[0,-0.70843],[0,0.20156]],[[590.57685,616.85325],[0.02106,-0.33136],[0.02013,-0.10671]],[[590.74964,616.60263],[-0.10238,0.05628],[0.45234,-0.24865]],[[595.61718,617],[-0.48256,0.87548],[0.14503,-0.26312]],[[594.95308,616.3906],[-0.04725,0.29671],[0.58086,-3.64773]],[[604.72276,605.71115],[-3.02833,1.51416],[0.78545,-0.39273]],[[607.27135,605.03032],[-0.87898,0.0905],[-0.34365,-0.53523]],[[607.61718,603],[0,0.6759],[0,-0.23192]]],&quot;closed&quot;:true}],&quot;index&quot;:null}" fill="#ffffff" stroke="none" stroke-linecap="butt"/><path d="M158.29554,380.27112l31.92107,-16.20976l89.19115,-0.14472l-18.77706,16.35449z" data-paper-data="{&quot;index&quot;:null}" fill="#cedce9" stroke="#000000" stroke-linecap="round"/><path d="M149.81184,379.4212c-3.08049,-0.22877 -10.41156,-0.58539 -7.19878,-0.95406c-1.75654,0.11814 -4.09996,0.26237 -5.34689,0.30117c-5.9071,0.18382 -13.56251,0 -19.65803,0c-16.72254,0 -32.95762,-0.09757 -49.14493,0.36497c-7.31551,0.20904 -9.32652,-0.43649 -11.57289,0.46673c-4.63361,1.51547 -13.35154,2.86782 -18.95174,4.39346c-7.59014,2.0677 -10.53353,4.06388 -15.18659,6.1372c-5.26541,1.70742 -0.97637,4.98563 -0.97637,6.88604c0,0.50871 1.47703,1.41422 0.06632,1.78867c1.40239,0.01891 2.75691,0.03617 3.61956,0.03617c5.73359,0 11.46711,0 17.20076,0c22.80735,0 49.30647,-0.07408 71.44352,-0.89606c26.2839,-0.87689 54.77058,0.38058 81.26592,-0.40647c14.50947,-0.39473 30.32568,-0.16011 45.0988,-0.15732c7.49444,0.00141 13.91217,-0.42137 17.20072,0.36497c0.86435,0.20669 0,-0.48663 0,-0.72992c0,-0.60827 0,-1.21656 0,-1.82484c0,-3.40636 0,-6.81273 0,-10.2191c0,-0.80529 -1.42118,-3.68631 1.51898,-3.99806c-0.55155,-0.00489 -1.17579,-0.01285 -1.51898,-0.01658c-3.04062,-0.03295 -4.73941,-0.00806 -7.11235,-0.25953c-4.11956,-0.43658 -18.01779,-0.10543 -23.60325,-0.10543c-21.70567,0 -43.41131,0 -65.11703,0c0,0 -4.91448,0 -4.91448,-0.72992c0,-0.02997 0.00823,-0.05869 0.02413,-0.08623c-2.34936,-0.07395 -4.72254,-0.17654 -7.13644,-0.3558zM226.95565,379.1333c13.10269,0 29.84897,-0.34654 38.79696,1.13343c5.12761,0.84808 1.74752,3.5672 1.74752,4.70606c0,3.40637 0,6.81273 0,10.2191c0,0.38898 1.69272,2.31854 0,2.55478c-17.09735,2.38606 -49.32302,0.52541 -70.20086,1.22388c-25.90813,0.7696 -55.74451,-0.69695 -80.80965,0.39124c-22.81576,0.84718 -50.30272,0.93967 -73.82742,0.93967c-3.37436,0 -23.61068,0.37957 -25.80107,0c-6.28148,-1.08847 -4.91448,-1.99644 -4.91448,-3.28471c0,-2.33019 -2.78109,-5.10777 1.48087,-7.34769c4.76907,-2.12498 8.11357,-4.25628 15.71997,-6.32842c3.06836,-0.83587 6.38259,-1.95395 10.34779,-2.7089c2.59464,-0.494 7.55539,-0.89537 8.17525,-1.53754c4.20441,-1.69051 11.80241,-1.13661 20.79294,-1.42073c16.00415,-0.50577 32.56548,-0.36497 49.14494,-0.36497c6.1144,0 18.06122,-0.41797 22.3746,-0.28792c7.50866,0.22639 11.86172,1.17746 19.13917,1.45987c5.3401,0.20722 10.9676,0.08455 17.20076,0.54745c0.47321,0.03515 0.94632,0.07028 1.41959,0.10543c16.40447,0 32.80892,0 49.21341,0z" data-paper-data="{&quot;index&quot;:null}" fill="#000000" stroke="none" stroke-linecap="butt"/><path d="M157.01653,379.74195c-0.01594,0.02755 -0.02359,0.05628 -0.02359,0.08626c0,0.72992 4.93861,0.73118 4.93861,0.73118c21.70566,0 43.527,0.01451 65.23276,0.01451c5.58547,0 19.49631,-0.32775 23.61586,0.10882c2.37285,0.25148 4.07556,0.2278 7.11606,0.26075c0.34325,0.00372 0.96792,0.01187 1.51954,0.01677c-2.94021,0.31176 -1.50407,3.19978 -1.50407,4.00506c0,3.40637 -0.01023,6.83299 -0.01023,10.23936c0,0.60827 -0.00843,1.21951 -0.00843,1.8278c0,0.2433 0.86064,0.93771 -0.00371,0.73102c-3.28854,-0.78634 -9.71212,-0.36199 -17.20651,-0.3634c-14.77313,-0.00278 -30.63407,-0.22909 -45.14355,0.16566c-26.49536,0.78705 -55.24243,-0.46334 -81.52635,0.41356c-22.13702,0.82199 -48.74375,0.88337 -71.55124,0.88337c-5.7336,0 -11.47719,-0.00229 -17.21078,-0.00229c-0.86273,0 -2.21909,-0.01773 -3.62141,-0.03664c1.41074,-0.37445 -0.07548,-1.28255 -0.07548,-1.79125c0,-1.90042 -4.31213,-5.19126 0.95334,-6.89868c4.65302,-2.07331 7.60656,-4.08335 15.19668,-6.15104c5.6003,-1.52563 14.35502,-2.88886 18.98866,-4.40432c2.24639,-0.90321 4.27266,-0.26046 11.58816,-0.4695c16.18724,-0.46255 32.52774,-0.3752 49.2502,-0.3752c6.09532,0 13.81933,0.18199 19.72646,-0.00183c1.24681,-0.03881 3.60979,-0.18304 5.36629,-0.30117c-3.21285,0.36865 4.14734,0.72573 7.22783,0.95449c2.41401,0.17927 4.81579,0.2828 7.16513,0.35676z" data-paper-data="{&quot;noHover&quot;:false,&quot;origItem&quot;:[&quot;Path&quot;,{&quot;applyMatrix&quot;:true,&quot;segments&quot;:[[[579.60736,595.76373],[0.95609,-0.20262],[0.00646,0.07548]],[[579.61718,596],[0,-0.08208],[0,2]],[[577.61718,598],[0,0],[-8.83333,0]],[[551.11718,598],[8.83333,0],[-2.27308,0]],[[541.51161,598.28885],[1.67648,-1.19621],[-0.96568,0.68904]],[[538.61718,599],[1.23739,-0.09027],[-0.13966,0.01019]],[[537.99901,599.04541],[0.22447,-0.0134],[1.19653,0.85421]],[[538.61718,610],[0,-2.20646],[0,9.33333]],[[538.61718,638],[0,-9.33333],[0,1.66667]],[[538.61718,643],[0,-1.66667],[0,0.66667]],[[538.61718,645],[-0.35177,0.56631],[1.33831,-2.15456]],[[545.61718,644],[-3.04994,0.00386],[6.01206,-0.00761]],[[563.97058,644.43107],[-5.90478,-1.08158],[10.78253,2.15651]],[[597.04254,645.54479],[-10.6965,-2.40266],[9.00888,2.25222]],[[626.11718,648],[-9.28168,0],[2.33333,0]],[[633.11718,648],[-2.33333,0],[0.35109,0]],[[634.59021,647.90091],[-0.5707,0.05184],[-0.57412,-1.02596]],[[634.61718,643],[0,1.39387],[0,-5.20707]],[[634.21982,624.13246],[2.14282,4.67827],[-1.8936,-5.6808]],[[628.03948,607.31672],[3.08887,5.66543],[-2.2791,-4.1802]],[[620.32688,595.27881],[1.8857,4.15235],[-0.91417,-2.47477]],[[615.61718,594],[2.9771,0.57275],[-6.58756,-1.26734]],[[595.61718,593],[6.8054,0],[-2.48058,0]],[[587.61718,593],[2.40395,0.50364],[-0.50743,-0.10631]],[[585.44122,592.1748],[0.71481,0.32365],[1.30749,1.01011]],[[582.51161,594.78885],[1.25365,-0.62682],[-0.98239,0.4912]]],&quot;closed&quot;:true}],&quot;index&quot;:null}" fill="#484848" stroke="none" stroke-linecap="butt"/><path d="M88.12131,382.41801c0,0.24668 1.69424,0.54567 0.84978,0.74099c2.15988,0.03303 4.33247,0.10514 6.26251,0.24846c7.44136,0.55263 22.57915,2.56635 24.00649,3.89765c0.11604,0.10828 -1.9882,0.12639 -1.63183,0.22241c1.18577,0.31953 10.84917,-0.23578 11.96069,-0.14503c0.25156,0.02055 0.37514,0.05254 0.42463,0.09146c-0.05174,-0.12093 -0.09916,-0.23785 -0.09916,-0.31141c0,-0.25856 0.06879,-0.5372 -0.70971,-0.76846c-6.61751,-2.03837 -17.42954,-3.97612 -36.14891,-3.97612c0,0 -2.20901,-0.00002 -3.66512,-0.21998c-0.48561,-0.04097 -0.86316,-0.08914 -1.1163,-0.14565c-0.06507,0.13925 -0.1331,0.28099 -0.1331,0.36564zM129.89449,387.89251c0.33542,0.14945 0.23648,-0.09861 0.12501,-0.35812c-0.02333,0.11263 -0.35428,0.25599 -0.12501,0.35812zM137.97597,385.74124c6.11086,1.81526 -7.76441,4.4675 -20.36774,3.24618c-11.89132,-1.15233 -15.91805,-3.46826 -26.77026,-4.27418c-3.66627,-0.27228 -8.05936,-0.4209 -10.79815,-0.87389c-4.34017,-0.71785 -2.41624,-3.16913 5.88362,-3.16913c5.97644,0 8.92012,0.28789 14.48406,0.28789h2.45724c0,0 2.82072,0 4.18825,0.3174c14.5576,0.70581 23.89911,2.49901 30.92295,4.4657z" data-paper-data="{&quot;index&quot;:null}" fill="#000000" stroke="none" stroke-linecap="butt"/><path d="M88.07201,382.0279c0.25299,0.0565 0.63082,0.10467 1.11641,0.14565c1.45609,0.21998 3.67513,0.21841 3.67513,0.21841c18.71932,0 29.92163,1.9806 36.53909,4.01899c0.77855,0.23127 0.6883,0.51498 0.6883,0.77353c0,0.07356 0.03827,0.19215 0.09003,0.31309c-0.04942,-0.03894 -0.17179,-0.07112 -0.42345,-0.09167c-1.1116,-0.09074 -10.85865,0.47416 -12.04442,0.15464c-0.3564,-0.09604 1.51449,-0.17822 1.3983,-0.28652c-1.4273,-1.33131 -16.63814,-3.3348 -24.0796,-3.88744c-1.93007,-0.14334 -4.11515,-0.21248 -6.27505,-0.2455c0.84443,-0.19534 -0.82963,-0.49883 -0.82963,-0.7455c0,-0.08464 0.07942,-0.22841 0.14463,-0.36766z" data-paper-data="{&quot;noHover&quot;:false,&quot;origItem&quot;:[&quot;Path&quot;,{&quot;applyMatrix&quot;:true,&quot;segments&quot;:[[[607.563,601.99816],[0.02649,0.38155],[-0.10299,0.15484]],[[607.10872,602.39727],[0.1976,-0.11227],[-0.59254,0.60273]],[[605.61718,603],[0,0],[-7.618,0]],[[590.90604,613.89443],[2.69308,-5.58508],[-0.31682,0.63364]],[[590.61718,616],[0,-0.70843],[0,0.20156]],[[590.57685,616.85325],[0.02106,-0.33136],[0.02013,-0.10671]],[[590.74964,616.60263],[-0.10238,0.05628],[0.45234,-0.24865]],[[595.61718,617],[-0.48256,0.87548],[0.14503,-0.26312]],[[594.95308,616.3906],[-0.04725,0.29671],[0.58086,-3.64773]],[[604.72276,605.71115],[-3.02833,1.51416],[0.78545,-0.39273]],[[607.27135,605.03032],[-0.87898,0.0905],[-0.34365,-0.53523]],[[607.61718,603],[0,0.6759],[0,-0.23192]]],&quot;closed&quot;:true}],&quot;index&quot;:null}" fill="#ffffff" stroke="none" stroke-linecap="butt"/></g><g fill-rule="nonzero" stroke="#000000" stroke-width="1" stroke-linecap="round"><path d="M-2.28364,380.67713l31.24583,-95.989l563.32625,-1.45574l29.44318,94.07739z" fill="#c4c3ba"/><path d="M623.55217,377.3287l-625.55564,3.63388l5.684,-19.98637l237.228,1.33879l0.31577,-43.79787l189.2298,-0.95629l5.684,43.65442l180.38801,0.19125z" fill="#8b8b8b"/><path d="M275.3283,379.52815l5.36822,-57.664l15.47311,-2.39071l20.20978,-1.72131l29.99888,-0.19125l19.26244,0.47814l25.578,2.77323l8.84178,57.90307z" fill="#cdd3cc"/><path d="M290.16986,379.19345l2.52623,-54.00621h87.47042l6.94711,53.02602z" fill="#756d5d"/><path d="M306.59027,377.63949l0.31578,-41.86138l59.05043,0.19125l2.84201,42.12436l-60.31354,-0.38251z" fill="#656258"/><path d="M315.11629,375.51176l0.63155,-37.43857l41.99844,0.57377l3.15778,36.91262z" fill="#ff0000"/><path d="M227.40903,331.92906l-203.67661,0.57377l-0.94733,-4.59017l207.15019,0.19125z" fill="#2f2e33"/><path d="M44.42078,288.98265l186.34832,-0.66218l-2.67253,22.44067l-188.29197,-0.66218z" fill="#64696a"/><path d="M207.93111,288.68834l-2.67253,21.85207l-143.83078,-0.29431l7.77463,-21.70492z" fill="#ff0000"/><path d="M451.25294,317.38298l-226.61852,1.39794l-3.88732,-3.60522l232.26728,-0.44145z" fill="#5c5852"/><path d="M441.83834,291.18993l136.54205,-0.14716l5.34506,21.33703l-141.15825,0.07357z" fill="#64696a"/><path d="M466.86295,312.7477l-1.94366,-21.70492h90.38014l5.34506,21.41061z" fill="#ff0000"/><path d="M446.69748,338.64645l146.26035,-0.51503l5.34507,23.10287h-148.44696z" fill="#64696a"/><path d="M569.148,338.35215l3.64436,23.54432l-96.21113,-0.07357l-6.07393,-23.54432z" fill="#ff0000"/><path d="M1.39571,284.21861l-9.96125,-3.16377l643.91944,-1.8394l-5.58801,3.89953l-624.03606,1.17721z" fill="#5c5852"/><path d="M29.33746,380.51745l15.47312,-48.72274l162.70446,-0.09563l-3.78933,48.2594z" fill="#bdbab2"/><path d="M55.15229,336.73439l136.41598,0.28689l-3.47357,24.67215l-140.52107,-0.28689z" fill="#ff0000"/></g><path d="M343.77233,329.38603c1.54273,0.07849 3.06716,0.17081 4.57329,0.27699c0,0.03047 0,0.06186 0,0.09233c-1.7287,0.06093 -3.25314,-0.06278 -4.57329,-0.36931z" fill="#786159" fill-rule="evenodd" stroke="none" stroke-width="1" stroke-linecap="butt"/><path d="M279.00355,316.87766c0.0736,-0.18945 0.10007,-0.3808 0.10027,-0.57148c0.45369,-3.8226 -1.61113,-7.51998 3.55352,-11.19093c1.11817,-0.79052 2.06829,-1.66746 4.65846,-2.14605c4.2875,-0.79221 9.86984,-0.94578 14.68319,-1.23896c1.89049,-0.11514 3.65678,-0.33553 5.5735,-0.41226c3.10051,-0.12412 6.82645,-0.17074 9.70367,-0.49748c12.30922,-0.03101 24.62238,-0.00486 36.9321,-0.00486c7.87162,0 14.20956,0.51702 21.25803,1.51023c2.46393,0.3472 4.85636,0.65163 6.45653,1.36483c1.33633,0.5956 1.47488,1.58924 1.49403,2.28798c0.04274,2.37939 0.26204,4.70346 -0.08324,7.08291c-0.17874,1.23174 0.13839,2.56295 -1.67826,3.68389c0,0 -0.44721,0.27087 -1.34164,0.13543c-0.89443,-0.13543 -0.44721,-0.4063 -0.44721,-0.4063c1.7114,-1.01401 1.30589,-2.31669 1.46905,-3.43963c0.34431,-2.36971 0.12466,-4.68316 0.08134,-7.05298c-0.00423,-0.57868 -0.08817,-1.49442 -1.2178,-1.98416c-1.37042,-0.59412 -3.50872,-0.83141 -5.57659,-1.12284c-6.78906,-0.95682 -12.82482,-1.45368 -20.41422,-1.45368c-12.19019,0 -24.38581,0.03282 -36.57525,-0.00486c-2.8892,0.32811 -6.68765,0.38087 -9.79828,0.50197c-1.8654,0.07262 -3.59876,0.29285 -5.44048,0.40554c-4.62509,0.28301 -9.897,0.4266 -14.04983,1.16466c-2.16841,0.38538 -2.93364,1.21822 -3.84864,1.8651c-5.08053,3.57037 -3.02203,7.23747 -3.39226,10.96307c-0.00322,0.24885 -0.04827,0.4985 -0.16273,0.74493l-1.93266,-0.08571l-0.04723,0.00007c0.00034,-0.0007 0.00068,-0.00141 0.00101,-0.00212l-0.01106,-0.00049c0,0 0,-0.04257 0.05272,-0.09581z" fill="#000000" fill-rule="nonzero" stroke="none" stroke-width="0.5" stroke-linecap="butt"/><path d="M260.69106,294.70929c0,-0.30283 1,-0.30283 1,-0.30283l0.65446,0.01554c4.16721,-0.41421 9.95838,-0.26507 14.29619,-0.13457c4.86622,0.14737 9.73328,0.2836 14.53456,0.57484c3.0379,0.18428 6.05108,0.51777 9.14798,0.5693c2.1501,0.03577 5.53379,0.07155 8.19564,0.33514c-4.4862,-1.26645 -9.20904,-2.39954 -13.97815,-3.60092c-8.18901,-2.06286 -19.6707,-3.20919 -30.3269,-3.20919c0,0 -1,0 -1,-0.30283c0,-0.30283 1,-0.30283 1,-0.30283c11.11488,0 23.06579,1.19792 31.6059,3.34923c5.80031,1.46114 11.51678,2.82811 16.85892,4.44115l0.77655,0.23517c0.18096,0.05481 0.29289,0.13051 0.29289,0.21413c0,0.16725 -0.44772,0.30283 -1,0.30283c-0.11876,0 -0.23269,-0.00627 -0.33837,-0.01778l-1.87522,-0.18929l0.07229,-0.06568c-2.81287,-0.17359 -5.53132,-0.45667 -8.45794,-0.55238c-8.60377,-0.28136 -17.03185,-0.91552 -25.70716,-1.17824c-4.00584,-0.12215 -9.62116,-0.28864 -13.46473,0.10649l-1.28691,0.01554c0,0 -1,0 -1,-0.30283z" fill="#000000" fill-rule="nonzero" stroke="none" stroke-width="0.5" stroke-linecap="butt"/><path d="M396.98834,294.79967c-0.29844,0.28904 -1.25287,0.19866 -1.25287,0.19866l-1.09421,-0.10725c-5.4783,0.01027 -10.95731,0.00375 -16.43571,0.00331c-11.85545,0.23328 -23.67401,1.63672 -35.55087,1.77673l0.02116,0.02992l-1.93481,0.12555c-0.07394,0.00528 -0.15106,0.00807 -0.23032,0.00807c-0.55228,0 -1,-0.13558 -1,-0.30283c0,-0.0825 0.10893,-0.15729 0.28561,-0.21191l0.78119,-0.24191c3.39602,-1.44481 7.97816,-2.21433 12.81641,-3.17378c3.76783,-0.74677 7.58296,-1.46893 11.35924,-2.20846c3.68289,-0.72125 7.67965,-1.65303 12.07407,-1.92997c2.43339,-0.15335 5.27461,-0.06212 7.75259,-0.06212c0,0 1,0 1,0.30283c0,0.30283 -1,0.30283 -1,0.30283c-2.3384,0 -5.05,-0.09522 -7.34512,0.04942c-4.13633,0.26067 -7.9296,1.16794 -11.39611,1.84571c-3.77573,0.73824 -7.58456,1.45987 -11.34918,2.20648c-4.17119,0.82681 -8.09818,1.4952 -11.23399,2.61207c2.63521,-0.32435 6.49988,-0.31216 8.92611,-0.41853c8.71675,-0.38215 17.15422,-1.14418 25.95951,-1.31547c5.60059,-0.00043 11.20159,-0.00573 16.80211,0.00331l1.38919,0.12791c0,0 0.95443,0.09038 0.65598,0.37942z" fill="#000000" fill-rule="nonzero" stroke="none" stroke-width="0.5" stroke-linecap="butt"/></g></g></svg>