<svg version="1.1" xmlns="http://www.w3.org/2000/svg" xmlns:xlink="http://www.w3.org/1999/xlink" width="2878.25006" height="1619.57958" viewBox="0,0,2878.25006,1619.57958"><g transform="translate(1117.37278,629.80931)"><g data-paper-data="{&quot;isPaintingLayer&quot;:true}" fill-rule="nonzero" stroke-linejoin="miter" stroke-miterlimit="10" stroke-dasharray="" stroke-dashoffset="0" style="mix-blend-mode: normal"><path d="M-1117.37278,989.77027v-1619.57958h2878.25006v1619.57958z" fill="none" stroke="#000000" stroke-width="0" stroke-linecap="butt"/><path d="M235.08273,314.80298l18.08966,-29.94109l50.54469,-0.26732l-10.64098,30.20841z" data-paper-data="{&quot;index&quot;:null}" fill="#cedce9" stroke="#000000" stroke-width="1.5" stroke-linecap="round"/><path d="M230.27494,313.23305c-1.74572,-0.42258 -5.90025,-1.0813 -4.07955,-1.76224c-0.99542,0.21822 -2.32344,0.48463 -3.03008,0.55629c-3.34756,0.33953 -7.6859,0 -11.14022,0c-9.47669,0 -18.6771,-0.18023 -27.85045,0.67413c-4.14567,0.38611 -5.28534,-0.80624 -6.55834,0.86209c-2.62587,2.79926 -7.56631,5.29715 -10.73996,8.11517c-4.30134,3.81927 -5.96938,7.50644 -8.60625,11.33605c-2.98389,3.15376 -0.55333,9.20894 -0.55333,12.71922c0,0.93963 0.83705,2.61221 0.0376,3.30386c0.79474,0.03495 1.56233,0.06681 2.0512,0.06681c3.24923,0 6.49844,0 9.74768,0c12.92492,0 27.94201,-0.13683 40.48708,-1.65511c14.8951,-1.61971 31.03852,0.70297 46.05343,-0.75079c8.22254,-0.72912 17.18559,-0.2957 25.55753,-0.29058c4.24708,0.00261 7.88404,-0.77832 9.74765,0.67413c0.48983,0.38178 0,-0.89883 0,-1.34825c0,-1.12353 0,-2.24714 0,-3.37066c0,-6.29192 0,-12.58381 0,-18.87571c0,-1.48745 -0.8054,-6.809 0.8608,-7.38485c-0.31254,-0.00904 -0.66629,-0.02374 -0.8608,-0.03061c-1.72312,-0.06086 -2.68582,-0.01489 -4.03058,-0.47938c-2.33455,-0.80642 -10.21066,-0.19474 -13.37596,-0.19474c-12.30063,0 -24.60122,0 -36.90186,0c0,0 -2.78504,0 -2.78504,-1.34824c0,-0.05534 0.00467,-0.10841 0.01368,-0.15927c-1.3314,-0.13661 -2.67627,-0.32607 -4.04424,-0.65721zM273.99247,312.70131c7.42529,0 16.91542,-0.64008 21.98625,2.09356c2.90579,1.56648 0.99032,6.58897 0.99032,8.69258c0,6.29192 0,12.58379 0,18.8757c0,0.71848 0.95927,4.28257 0,4.71894c-9.68908,4.40731 -27.9514,0.97051 -39.78286,2.26063c-14.68215,1.42155 -31.59044,-1.28734 -45.79488,0.72264c-12.92972,1.56486 -28.50658,1.73565 -41.83803,1.73565c-1.91225,0 -13.38012,0.7011 -14.62147,0c-3.55971,-2.01051 -2.78504,-3.68764 -2.78504,-6.0672c0,-4.30411 -1.57605,-9.43461 0.83917,-13.57196c2.70264,-3.92509 4.59796,-7.86178 8.90851,-11.68925c1.73883,-1.54392 3.61699,-3.60914 5.8641,-5.0036c1.47039,-0.91245 4.28167,-1.65383 4.63293,-2.83998c2.38266,-3.12255 6.68847,-2.09943 11.78338,-2.62424c9.06955,-0.93423 18.45485,-0.67414 27.85044,-0.67414c3.46504,0 10.23528,-0.772 12.6797,-0.53179c4.25517,0.41818 6.72202,2.17491 10.84617,2.69652c3.02623,0.38276 6.21533,0.15618 9.74768,1.0112c0.26815,0.06493 0.53628,0.12982 0.80445,0.19474c9.29639,0 18.59285,0 27.88927,0z" data-paper-data="{&quot;index&quot;:null}" fill="#000000" stroke="none" stroke-width="1.5" stroke-linecap="butt"/><path d="M234.35793,313.82557c-0.00903,0.05088 -0.01337,0.10396 -0.01337,0.15931c0,1.34826 2.79871,1.35057 2.79871,1.35057c12.3006,0 24.66677,0.0268 36.96744,0.0268c3.16529,0 11.04856,-0.60539 13.38312,0.20101c1.34472,0.46452 2.30962,0.4208 4.03268,0.48164c0.1945,0.00687 0.54854,0.02191 0.86112,0.03096c-1.66622,0.57586 -0.85234,5.91031 -0.85234,7.39776c0,6.29193 -0.00581,12.62125 -0.00581,18.91315c0,1.12355 -0.00476,2.25258 -0.00476,3.3761c0,0.44941 0.48772,1.73205 -0.00209,1.35029c-1.86362,-1.45245 -5.5039,-0.66864 -9.75094,-0.67124c-8.37194,-0.00512 -17.36037,-0.42317 -25.58287,0.30598c-15.01494,1.45378 -31.30592,-0.85583 -46.20102,0.76387c-12.54505,1.5183 -27.6231,1.63164 -40.54812,1.63164c-3.24923,0 -6.50413,-0.00424 -9.75336,-0.00424c-0.48891,0 -1.25756,-0.03274 -2.05226,-0.06767c0.79947,-0.69166 -0.04279,-2.36899 -0.04279,-3.30863c0,-3.51027 -2.44369,-9.58878 0.54029,-12.74256c2.6369,-3.82963 4.31064,-7.54238 8.61197,-11.36164c3.1737,-2.81801 8.13497,-5.33601 10.76088,-8.13523c1.27301,-1.66833 2.42131,-0.4811 6.56698,-0.86721c9.17332,-0.85434 18.43348,-0.69303 27.91012,-0.69303c3.45427,0 7.83143,0.33615 11.17899,-0.00337c0.70657,-0.07168 2.04566,-0.33808 3.04108,-0.55629c-1.82073,0.68094 2.35028,1.34047 4.09603,1.76303c1.36803,0.33113 2.72911,0.52239 4.06048,0.65898z" data-paper-data="{&quot;noHover&quot;:false,&quot;origItem&quot;:[&quot;Path&quot;,{&quot;applyMatrix&quot;:true,&quot;segments&quot;:[[[579.60736,595.76373],[0.95609,-0.20262],[0.00646,0.07548]],[[579.61718,596],[0,-0.08208],[0,2]],[[577.61718,598],[0,0],[-8.83333,0]],[[551.11718,598],[8.83333,0],[-2.27308,0]],[[541.51161,598.28885],[1.67648,-1.19621],[-0.96568,0.68904]],[[538.61718,599],[1.23739,-0.09027],[-0.13966,0.01019]],[[537.99901,599.04541],[0.22447,-0.0134],[1.19653,0.85421]],[[538.61718,610],[0,-2.20646],[0,9.33333]],[[538.61718,638],[0,-9.33333],[0,1.66667]],[[538.61718,643],[0,-1.66667],[0,0.66667]],[[538.61718,645],[-0.35177,0.56631],[1.33831,-2.15456]],[[545.61718,644],[-3.04994,0.00386],[6.01206,-0.00761]],[[563.97058,644.43107],[-5.90478,-1.08158],[10.78253,2.15651]],[[597.04254,645.54479],[-10.6965,-2.40266],[9.00888,2.25222]],[[626.11718,648],[-9.28168,0],[2.33333,0]],[[633.11718,648],[-2.33333,0],[0.35109,0]],[[634.59021,647.90091],[-0.5707,0.05184],[-0.57412,-1.02596]],[[634.61718,643],[0,1.39387],[0,-5.20707]],[[634.21982,624.13246],[2.14282,4.67827],[-1.8936,-5.6808]],[[628.03948,607.31672],[3.08887,5.66543],[-2.2791,-4.1802]],[[620.32688,595.27881],[1.8857,4.15235],[-0.91417,-2.47477]],[[615.61718,594],[2.9771,0.57275],[-6.58756,-1.26734]],[[595.61718,593],[6.8054,0],[-2.48058,0]],[[587.61718,593],[2.40395,0.50364],[-0.50743,-0.10631]],[[585.44122,592.1748],[0.71481,0.32365],[1.30749,1.01011]],[[582.51161,594.78885],[1.25365,-0.62682],[-0.98239,0.4912]]],&quot;closed&quot;:true}],&quot;index&quot;:null}" fill="#484848" stroke="none" stroke-width="1.5" stroke-linecap="butt"/><path d="M195.31492,318.76856c0,0.45565 0.96012,1.00791 0.48157,1.3687c1.22399,0.06098 2.45523,0.19418 3.54895,0.45895c4.21704,1.02077 12.79562,4.74033 13.60452,7.19938c0.06577,0.20001 -1.12671,0.23342 -0.92477,0.41081c0.67199,0.5902 6.1482,-0.43549 6.77813,-0.26788c0.14255,0.03791 0.21256,0.09701 0.24061,0.16894c-0.02933,-0.22338 -0.05616,-0.43933 -0.05616,-0.57521c0,-0.47758 0.03898,-0.99225 -0.4022,-1.41943c-3.75018,-3.7651 -9.87731,-7.34431 -20.48558,-7.34431c0,0 -1.25187,-0.00001 -2.07703,-0.40632c-0.27517,-0.07568 -0.48916,-0.16469 -0.6326,-0.26905c-0.03688,0.25722 -0.07545,0.51904 -0.07545,0.67538zM218.98781,328.88048c0.19005,0.27604 0.134,-0.18215 0.07085,-0.66147c-0.01322,0.20802 -0.20078,0.47284 -0.07085,0.66147zM223.56752,324.90689c3.46305,3.35295 -4.40007,8.25191 -11.54237,5.99601c-6.73881,-2.12848 -9.02073,-6.40624 -15.17072,-7.89486c-2.07766,-0.50292 -4.56725,-0.77746 -6.11933,-1.61416c-2.45957,-1.32596 -1.36926,-5.85369 3.33425,-5.85369c3.38687,0 5.05503,0.53178 8.20813,0.53178h1.39252c0,0 1.59855,0.00001 2.37348,0.58629c8.24979,1.30368 13.54364,4.61593 17.52405,8.24859z" data-paper-data="{&quot;index&quot;:null}" fill="#000000" stroke="none" stroke-width="1.5" stroke-linecap="butt"/><path d="M195.28703,318.04798c0.14339,0.10438 0.35749,0.19333 0.63267,0.26903c0.82516,0.40632 2.08269,0.40342 2.08269,0.40342c10.60824,0 16.95658,3.65838 20.70671,7.42348c0.44118,0.42716 0.39006,0.95121 0.39006,1.42877c0,0.13588 0.0217,0.35494 0.05102,0.57832c-0.02799,-0.07195 -0.09735,-0.13138 -0.23996,-0.16934c-0.62993,-0.16759 -6.15361,0.87584 -6.82558,0.28564c-0.20197,-0.17738 0.85825,-0.32921 0.79243,-0.52925c-0.80888,-2.45905 -9.42885,-6.15972 -13.64591,-7.18048c-1.09376,-0.26475 -2.33205,-0.39248 -3.55607,-0.45349c0.47853,-0.36082 -0.47016,-0.92138 -0.47016,-1.37702c0,-0.15634 0.045,-0.42191 0.08196,-0.67912z" data-paper-data="{&quot;noHover&quot;:false,&quot;origItem&quot;:[&quot;Path&quot;,{&quot;applyMatrix&quot;:true,&quot;segments&quot;:[[[607.563,601.99816],[0.02649,0.38155],[-0.10299,0.15484]],[[607.10872,602.39727],[0.1976,-0.11227],[-0.59254,0.60273]],[[605.61718,603],[0,0],[-7.618,0]],[[590.90604,613.89443],[2.69308,-5.58508],[-0.31682,0.63364]],[[590.61718,616],[0,-0.70843],[0,0.20156]],[[590.57685,616.85325],[0.02106,-0.33136],[0.02013,-0.10671]],[[590.74964,616.60263],[-0.10238,0.05628],[0.45234,-0.24865]],[[595.61718,617],[-0.48256,0.87548],[0.14503,-0.26312]],[[594.95308,616.3906],[-0.04725,0.29671],[0.58086,-3.64773]],[[604.72276,605.71115],[-3.02833,1.51416],[0.78545,-0.39273]],[[607.27135,605.03032],[-0.87898,0.0905],[-0.34365,-0.53523]],[[607.61718,603],[0,0.6759],[0,-0.23192]]],&quot;closed&quot;:true}],&quot;index&quot;:null}" fill="#ffffff" stroke="none" stroke-width="1.5" stroke-linecap="butt"/><path d="M344.83181,319.34763l-11.21381,-105.435l53.26561,0.93305l19.06349,104.50195z" fill="#cedce9" stroke="#000000" stroke-width="1.5" stroke-linecap="round"/><path d="M411.01368,317.77781c-1.4416,0.33113 -2.8589,0.5206 -4.26194,0.6572c0.0095,0.05087 0.01441,0.10393 0.01441,0.15928c0,1.34824 -2.93496,1.34824 -2.93496,1.34824c-12.96282,0 -25.92559,0 -38.88836,0c-3.33567,0 -11.6358,-0.61167 -14.09602,0.19474c-1.41714,0.4645 -2.43166,0.41852 -4.24756,0.47938c-0.20497,0.00687 -0.57776,0.02157 -0.90714,0.03061c1.75589,0.57584 0.90714,5.89739 0.90714,7.38484c0,6.29193 0,12.58383 0,18.87573c0,1.12354 0,2.24713 0,3.37066c0,0.4494 -0.5162,1.73002 0,1.34825c1.96395,-1.45246 5.79666,-0.67153 10.27239,-0.67414c8.82261,-0.00514 18.26817,-0.43854 26.93333,0.29059c15.82321,1.45376 32.83567,-0.8689 48.53259,0.7508c13.2204,1.51828 29.04587,1.6551 42.66658,1.6551c3.42418,0 6.84827,0 10.27242,0c0.51518,0 1.3241,-0.03188 2.16163,-0.06681c-0.84249,-0.69165 0.0396,-2.36423 0.0396,-3.30386c0,-3.51027 2.56144,-9.56544 -0.5831,-12.71922c-2.77885,-3.82963 -4.53666,-7.51678 -9.06954,-11.33604c-3.34448,-2.81801 -8.55089,-5.31593 -11.31811,-8.11516c-1.34155,-1.66833 -2.54254,-0.47598 -6.91142,-0.86209c-9.66718,-0.85435 -19.36289,-0.67413 -29.34971,-0.67413c-3.6403,0 -8.21214,0.33953 -11.73992,0c-0.74468,-0.07168 -2.14418,-0.33808 -3.1932,-0.55629c1.9187,0.68098 -2.45947,1.33969 -4.29915,1.76224zM364.94265,317.24602c9.79688,0 19.59375,0 29.3906,0c0.28263,-0.06491 0.56519,-0.12982 0.84779,-0.19474c3.72248,-0.85502 7.08327,-0.62843 10.27242,-1.0112c4.34616,-0.52163 6.94582,-2.27837 11.43005,-2.69652c2.576,-0.24022 9.7107,0.53179 13.36227,0.53179c9.90136,0 19.79191,-0.26007 29.34972,0.67414c5.36921,0.52481 9.90679,-0.49831 12.41771,2.62424c0.37018,1.18615 3.33278,1.92752 4.88232,2.83999c2.36805,1.39446 4.34732,3.45967 6.17978,5.00361c4.54259,3.82745 6.53995,7.76417 9.38808,11.68924c2.54528,4.13737 0.88439,9.26783 0.88439,13.57194c0,2.37957 0.81638,4.05669 -2.93496,6.0672c-1.30812,0.7011 -13.3934,0 -15.4086,0c-14.04912,0 -30.46453,-0.17082 -44.09027,-1.73565c-14.96908,-2.00999 -32.78759,0.69888 -48.26011,-0.72266c-12.46839,-1.29014 -31.71379,2.14666 -41.92447,-2.26063c-1.01091,-0.43635 0,-4.00045 0,-4.71893c0,-6.29193 0,-12.58381 0,-18.87573c0,-2.10361 -2.01861,-7.12611 1.04363,-8.69258c5.34381,-2.73365 15.3448,-2.09356 23.16982,-2.09356z" data-paper-data="{&quot;index&quot;:null}" fill="#000000" stroke="none" stroke-width="1.5" stroke-linecap="butt"/><path d="M406.71083,318.37028c1.40304,-0.1366 2.83741,-0.32785 4.27907,-0.65898c1.8397,-0.42256 6.23525,-1.0821 4.31651,-1.76304c1.04899,0.2182 2.46019,0.4846 3.20479,0.55628c3.52777,0.33953 8.14061,0.00337 11.78078,0.00337c9.98677,0 19.74543,-0.16134 29.41259,0.69303c4.36887,0.3861 5.57897,-0.80113 6.92053,0.8672c2.76724,2.79921 7.99563,5.31724 11.34018,8.13523c4.53287,3.81924 6.29675,7.532 9.07557,11.36161c3.14458,3.15379 0.56934,9.2323 0.56934,12.74257c0,0.93963 -0.88758,2.61698 -0.04509,3.30863c-0.83748,0.03493 -1.64751,0.06767 -2.16273,0.06767c-3.42415,0 -6.85426,0.00424 -10.2784,0.00424c-13.62079,0 -29.51053,-0.11336 -42.73092,-1.63165c-15.69695,-1.61971 -32.8649,0.68988 -48.68813,-0.76388c-8.66517,-0.72913 -18.13743,-0.3111 -26.96005,-0.30598c-4.4757,0.0026 -8.31191,-0.78121 -10.27586,0.67125c-0.5162,0.38177 -0.0022,-0.90086 -0.0022,-1.35027c0,-1.12354 -0.00504,-2.25258 -0.00504,-3.37611c0,-6.29193 -0.00611,-12.62124 -0.00611,-18.91315c0,-1.48745 0.85768,-6.82191 -0.89824,-7.39776c0.32943,-0.00905 0.7025,-0.02411 0.90747,-0.03099c1.81581,-0.06086 2.83268,-0.01714 4.24977,-0.48164c2.46023,-0.8064 10.76788,-0.20099 14.10356,-0.20099c12.96284,0 25.9947,-0.02681 38.95748,-0.02681c0,0 2.94937,-0.00231 2.94937,-1.35057c0,-0.05534 -0.00457,-0.10842 -0.01409,-0.15931z" data-paper-data="{&quot;noHover&quot;:false,&quot;origItem&quot;:[&quot;Path&quot;,{&quot;applyMatrix&quot;:true,&quot;segments&quot;:[[[579.60736,595.76373],[0.95609,-0.20262],[0.00646,0.07548]],[[579.61718,596],[0,-0.08208],[0,2]],[[577.61718,598],[0,0],[-8.83333,0]],[[551.11718,598],[8.83333,0],[-2.27308,0]],[[541.51161,598.28885],[1.67648,-1.19621],[-0.96568,0.68904]],[[538.61718,599],[1.23739,-0.09027],[-0.13966,0.01019]],[[537.99901,599.04541],[0.22447,-0.0134],[1.19653,0.85421]],[[538.61718,610],[0,-2.20646],[0,9.33333]],[[538.61718,638],[0,-9.33333],[0,1.66667]],[[538.61718,643],[0,-1.66667],[0,0.66667]],[[538.61718,645],[-0.35177,0.56631],[1.33831,-2.15456]],[[545.61718,644],[-3.04994,0.00386],[6.01206,-0.00761]],[[563.97058,644.43107],[-5.90478,-1.08158],[10.78253,2.15651]],[[597.04254,645.54479],[-10.6965,-2.40266],[9.00888,2.25222]],[[626.11718,648],[-9.28168,0],[2.33333,0]],[[633.11718,648],[-2.33333,0],[0.35109,0]],[[634.59021,647.90091],[-0.5707,0.05184],[-0.57412,-1.02596]],[[634.61718,643],[0,1.39387],[0,-5.20707]],[[634.21982,624.13246],[2.14282,4.67827],[-1.8936,-5.6808]],[[628.03948,607.31672],[3.08887,5.66543],[-2.2791,-4.1802]],[[620.32688,595.27881],[1.8857,4.15235],[-0.91417,-2.47477]],[[615.61718,594],[2.9771,0.57275],[-6.58756,-1.26734]],[[595.61718,593],[6.8054,0],[-2.48058,0]],[[587.61718,593],[2.40395,0.50364],[-0.50743,-0.10631]],[[585.44122,592.1748],[0.71481,0.32365],[1.30749,1.01011]],[[582.51161,594.78885],[1.25365,-0.62682],[-0.98239,0.4912]]],&quot;closed&quot;:true}],&quot;index&quot;:null}" fill="#484848" stroke="none" stroke-width="1.5" stroke-linecap="butt"/><path d="M447.85573,323.31311c0,-0.15634 -0.04063,-0.41816 -0.07949,-0.67538c-0.15118,0.10438 -0.37665,0.19335 -0.66666,0.26904c-0.8696,0.40629 -2.18884,0.40631 -2.18884,0.40631c-11.17934,0 -17.63637,3.57922 -21.58839,7.34431c-0.46493,0.42718 -0.42385,0.94185 -0.42385,1.41943c0,0.13588 -0.02832,0.35184 -0.05922,0.57522c0.02955,-0.07188 0.10335,-0.13099 0.2536,-0.16894c0.66381,-0.16762 6.43485,0.85809 7.14301,0.26789c0.21283,-0.17736 -1.04384,-0.21079 -0.97455,-0.41081c0.85242,-2.45906 9.89281,-6.1786 14.33685,-7.19936c1.15264,-0.26475 2.45013,-0.39794 3.74001,-0.45895c-0.50431,-0.36079 0.50749,-0.91306 0.50749,-1.3687zM422.83379,332.76363c-0.06656,0.47933 -0.12566,0.93752 0.07466,0.66148c0.13691,-0.18864 -0.06073,-0.45346 -0.07466,-0.66148zM418.08217,329.45147c4.19469,-3.63266 9.77352,-6.94491 18.46742,-8.24859c0.81669,-0.58629 2.50125,-0.58629 2.50125,-0.58629h1.46748c3.32282,0 5.08082,-0.53177 8.64999,-0.53177c4.95675,0 6.10573,4.52776 3.51373,5.85369c-1.63563,0.83671 -4.25922,1.11124 -6.44875,1.61416c-6.48102,1.48863 -8.88581,5.76637 -15.98739,7.89485c-7.5268,2.25591 -15.81321,-2.64304 -12.16376,-5.99601z" data-paper-data="{&quot;index&quot;:null}" fill="#000000" stroke="none" stroke-width="1.5" stroke-linecap="butt"/><path d="M447.88531,322.59261c0.03895,0.2572 0.08637,0.52276 0.08637,0.6791c0,0.45565 -0.99977,1.0162 -0.49546,1.37703c-1.28991,0.06098 -2.59485,0.1887 -3.7475,0.45347c-4.44409,1.02077 -13.52813,4.72144 -14.38051,7.1805c-0.06938,0.20003 1.04792,0.35184 0.83508,0.52924c-0.70815,0.59018 -6.52916,-0.45325 -7.19302,-0.28564c-0.1503,0.03796 -0.22336,0.09739 -0.25288,0.16933c0.03091,-0.2234 0.05376,-0.44243 0.05376,-0.57831c0,-0.47757 -0.0539,-1.00163 0.41105,-1.4288c3.952,-3.7651 10.6421,-7.42348 21.82141,-7.42348c0,0 1.32522,0.00289 2.19481,-0.40342c0.29,-0.0757 0.51563,-0.16468 0.66672,-0.26904z" data-paper-data="{&quot;noHover&quot;:false,&quot;origItem&quot;:[&quot;Path&quot;,{&quot;applyMatrix&quot;:true,&quot;segments&quot;:[[[607.563,601.99816],[0.02649,0.38155],[-0.10299,0.15484]],[[607.10872,602.39727],[0.1976,-0.11227],[-0.59254,0.60273]],[[605.61718,603],[0,0],[-7.618,0]],[[590.90604,613.89443],[2.69308,-5.58508],[-0.31682,0.63364]],[[590.61718,616],[0,-0.70843],[0,0.20156]],[[590.57685,616.85325],[0.02106,-0.33136],[0.02013,-0.10671]],[[590.74964,616.60263],[-0.10238,0.05628],[0.45234,-0.24865]],[[595.61718,617],[-0.48256,0.87548],[0.14503,-0.26312]],[[594.95308,616.3906],[-0.04725,0.29671],[0.58086,-3.64773]],[[604.72276,605.71115],[-3.02833,1.51416],[0.78545,-0.39273]],[[607.27135,605.03032],[-0.87898,0.0905],[-0.34365,-0.53523]],[[607.61718,603],[0,0.6759],[0,-0.23192]]],&quot;closed&quot;:true}],&quot;index&quot;:null}" fill="#ffffff" stroke="none" stroke-width="1.5" stroke-linecap="butt"/><g><g stroke="#000000" stroke-width="1" stroke-linecap="round"><path d="M251.02524,-1.77728l206.9481,44.3605l-6.4489,31.81909l120.86714,17.66991l-42.51807,252.48339l-327.72407,-39.01228l48.35155,-302.87095z" fill="#333c43"/><path d="M226.7169,-18.79698l254.95888,56.26163l-3.66333,10.02282l-248.37846,-54.40185z" fill="#766d66"/><path d="M453.20951,65.67317l150.5228,21.567l-8.52058,8.70196l-144.67659,-21.77074z" fill="#766d66"/><path d="M457.59691,81.31988l81.4525,12.09197l-9.00839,48.08528l-82.15797,-12.21347l10.07837,-50.08017z" fill="#5c5c5c"/><path d="M462.65003,89.93841l69.86463,7.67481l-6.89443,34.40579l-68.72935,-7.23714z" fill="#85877c"/><path d="M388.12534,189.45137l20.18283,3.71834l101.49944,-31.54971l63.37644,46.75105l-7.16586,12.08298l-58.95686,-44.29493l-103.01418,28.74645l-14.80691,-4.00306z" fill="#766d66"/><path d="M377.49789,194.21901l-16.36163,102.02465l-104.07575,-14.29358l15.81815,-103.08677z" fill="#5c5c5c"/><path d="M282.18029,185.308l87.94799,15.14777l-16.46984,85.78322l-88.07735,-12.99087z" fill="#85877c"/><path d="M454.36516,335.90874l18.05484,-110.44974l35.54892,5.88065l-11.77093,109.11074z" fill="#5c5c5c"/><path d="M471.21278,231.06223l29.74319,5.84923l-10.13515,96.80167l-35.24061,-4.85904z" fill="#3d1d1e"/><path d="M471.56159,231.84869l30.6433,6.2464l-1.85524,9.36569l-30.95947,-5.81658z" fill="#85877c"/><path d="M420.30387,258.1293l5.57779,-52.06599l42.48205,7.80117l-8.86995,51.49897z" fill="#5c5c5c"/><path d="M432.62135,214.73019l26.22371,3.79025l-7.5098,39.38454l-21.03912,-3.42803l-2.79144,-0.30304z" fill="#85877c"/><path d="M458.14634,41.95829l-26.8487,144.53295l-204.3871,-36.62451l23.85069,-151.89178z" fill="#898b80"/></g><path d="M386.09957,34.66985c5.62301,-1.24669 10.46666,-1.87484 15.99896,0.73304c5.50219,2.59367 9.19154,8.9155 11.91232,14.0086c5.35016,11.29529 5.29294,24.18784 0.22413,35.58713c-2.43075,5.46652 -4.97817,10.0276 -10.46161,12.97457c-3.52473,1.89428 -7.5409,2.58679 -11.44826,3.08931c-2.76308,0.35534 -5.10189,0.58673 -7.86606,0.09457c-6.68925,-1.14448 -12.13327,-4.09924 -18.20783,-6.86983c-2.98068,-1.35949 -4.55037,-1.61505 -6.69767,-4.23729c-1.29148,-1.57711 -4.41655,-4.58168 -4.761,-6.90703c-1.19354,-8.05747 -1.41888,-17.91472 -0.03042,-25.9119c1.03961,-6.03598 3.9648,-9.02033 7.25539,-14.07179l0.97442,-1.32257c7.34594,-3.53846 15.16246,-5.40521 23.10764,-7.16675z" data-paper-data="{&quot;noHover&quot;:false,&quot;origItem&quot;:[&quot;Path&quot;,{&quot;applyMatrix&quot;:true,&quot;segments&quot;:[[[425.73027,311.24179],[8.69787,-6.20231],[0,0]],[[424.76909,313.16224],[0,0],[-3.12532,7.25404]],[[418.54756,332.9],[0,-8.02461],[-0.01429,10.63441]],[[424.32916,366.2763],[-3.3329,-10.13805],[0.96187,2.92582]],[[431.99573,374.11864],[-2.01822,-1.7491],[3.35565,2.90819]],[[441.56668,378.08816],[-4.15087,-1.09246],[8.45937,2.22642]],[[466.54756,382.9],[-8.8914,0.00988],[3.67844,0.02077]],[[476.66092,381.03401],[-3.48853,1.07326],[4.93328,-1.51774]],[[490.72658,374.51588],[-4.12973,3.22967],[6.42465,-5.02442]],[[501.32044,355.47504],[-1.92282,7.59873],[4.00963,-15.84553]],[[493.13392,309.68167],[9.4198,13.39422],[-4.64557,-5.97094]],[[474.68288,294.27269],[7.68099,2.12526],[-7.72304,-2.13689]],[[453.90931,296.88741],[6.98296,-2.86013],[-9.86677,4.0413]]],&quot;closed&quot;:true}]}" fill="#ffffff" stroke="none" stroke-width="0.5" stroke-linecap="butt"/><path d="M314.17967,25.77683c2.56024,0.43918 6.13134,0.76258 8.47129,1.78805c4.504,1.97385 7.98637,6.93081 10.99436,10.53284c4.93317,9.72145 5.53883,18.25299 3.70576,28.93179c-0.75194,4.38042 -1.62554,9.60906 -4.93332,12.9679c-6.08962,6.18362 -15.04532,10.06736 -23.55136,10.95211c-10.02702,1.66969 -23.40135,-5.19769 -29.8319,-12.46761c-5.67976,-6.4211 -6.15306,-18.01207 -4.80857,-25.81821c1.68174,-9.90005 5.22698,-17.98819 12.27553,-24.71094c8.08364,-5.32921 18.68572,-3.71851 27.67822,-2.17589z" data-paper-data="{&quot;noHover&quot;:false,&quot;origItem&quot;:[&quot;Path&quot;,{&quot;applyMatrix&quot;:true,&quot;segments&quot;:[[[323.87003,310.33813],[9.25214,-8.67854],[-7.60578,10.24762]],[[313.54756,344.9],[-0.03021,-13.15654],[0,10.37798]],[[325.46604,377.09362],[-8.76141,-7.02761],[9.91958,7.95659]],[[366.66296,386.53338],[-12.57517,4.38567],[10.7859,-3.03395]],[[394.57462,367.20159],[-6.48754,9.33825],[3.52392,-5.07237]],[[398.04756,349.4],[0.00327,5.82304],[-0.00798,-14.19568]],[[386.8583,312.95113],[8.53141,11.45487],[-4.68483,-3.98189]],[[370.3583,301.81975],[6.25434,1.54691],[-3.24931,-0.80367]],[[359.04756,301.4],[3.40335,-0.00229],[-11.9538,0.00803]]],&quot;closed&quot;:true}]}" fill="#ffffff" stroke="none" stroke-width="0.5" stroke-linecap="butt"/><path d="M328.76703,63.56247c0.50085,-2.90794 3.26421,-4.85927 6.17215,-4.35842c2.90794,0.50085 4.85928,3.26421 4.35842,6.17216c-0.50085,2.90794 -3.26422,4.85926 -6.17216,4.35841c-2.90794,-0.50085 -4.85927,-3.26421 -4.35842,-6.17215z" fill="#000000" stroke="none" stroke-width="0.5" stroke-linecap="butt"/><path d="M409.1089,73.96786c0.50085,-2.90794 3.26421,-4.85927 6.17215,-4.35842c2.90794,0.50085 4.85926,3.26422 4.35841,6.17216c-0.50085,2.90794 -3.26421,4.85927 -6.17215,4.35842c-2.90794,-0.50085 -4.85927,-3.26421 -4.35842,-6.17215z" fill="#000000" stroke="none" stroke-width="0.5" stroke-linecap="butt"/><path d="M229.09754,-59.89899c1.66486,-1.57206 3.23692,0.09281 3.23692,0.09281l1.4489,1.54886c1.23952,1.65245 3.2258,2.58756 4.93107,3.75337c4.93948,3.37694 9.63816,6.96598 14.63919,10.2873c10.16881,6.75337 20.09541,14.12352 29.86717,21.43758c20.98812,15.71044 41.66719,31.54502 61.99225,48.08058c0,0 1.77621,1.44506 0.33117,3.22125c-1.44505,1.77623 -3.22125,0.33116 -3.22125,0.33116c-20.27732,-16.49671 -40.90742,-32.29308 -61.84645,-47.96678c-9.70247,-7.26317 -19.5593,-14.58313 -29.65642,-21.28889c-6.68237,-4.43794 -15.62188,-8.7957 -20.64412,-15.03445l-1.17117,-1.2259c0,0 -1.57206,-1.66486 0.09282,-3.2369z" fill="#000000" stroke="none" stroke-width="0.5" stroke-linecap="butt"/><path d="M473.21158,-10.91565c0.66152,2.19214 -1.53059,2.85366 -1.53059,2.85366l-3.70389,1.11775c-10.97245,3.31122 -21.8604,6.75017 -32.72144,10.40965c-15.60397,5.25754 -31.19053,10.48617 -46.92952,15.32561c-9.56834,2.9421 -19.16276,6.60774 -29.07973,8.12264c0,0 -2.26365,0.34487 -2.60853,-1.91878c-0.34486,-2.26365 1.91878,-2.60853 1.91878,-2.60853c9.68716,-1.47168 19.07807,-5.09906 28.42352,-7.97263c15.70005,-4.82749 31.24781,-10.04362 46.8132,-15.28814c10.90708,-3.675 21.84167,-7.12884 32.86062,-10.4541l3.70389,-1.11775c0,0 2.19214,-0.66152 2.85366,1.53059z" fill="#000000" stroke="none" stroke-width="0.5" stroke-linecap="butt"/><path d="M407.68899,64.61266c-2.60679,-0.05476 -5.169,0.0669 -7.76736,0.13665c-8.76375,0.91033 -17.78363,0.74443 -26.67914,0.17502c-6.48795,-0.41671 -12.87799,1.04253 -19.31181,1.51794c-0.19885,5.64953 0.1662,11.51329 0.9293,16.66496c0.34445,2.32537 3.4592,5.31499 4.75066,6.8921c2.14731,2.62221 3.70416,2.86627 6.68485,4.22576c6.07455,2.77062 11.47759,5.71125 18.16683,6.85571c2.76418,0.49219 5.08579,0.26199 7.84885,-0.09334c3.90737,-0.5025 7.89967,-1.18629 11.42441,-3.0806c5.48343,-2.94696 8.00458,-7.48323 10.43533,-12.94975c2.86951,-6.45325 4.13258,-13.35894 3.71776,-20.18594c-3.37381,0.33322 -6.82065,-0.08751 -10.1997,-0.15849zM349.5156,65.91457c0.00084,-0.15194 0.03598,-0.26919 0.08984,-0.35965c0.00954,-3.02771 0.19921,-6.05288 0.7166,-9.07918c1.03479,-6.00796 3.66875,-9.43204 6.78417,-14.05466l0.00002,-0.00002c-1.07549,-1.98887 0.91251,-3.08573 0.91251,-3.08573c0.67947,-0.37414 1.36265,-0.73298 2.04934,-1.07757c0.2801,-0.28108 0.82837,-0.71917 1.54763,-0.75032c7.49996,-3.51167 15.4015,-5.45179 23.49579,-7.23306c6.65234,-1.46397 12.52087,-1.96823 18.99713,1.09876c6.42476,3.04261 10.73648,10.04125 13.92982,16.02341c7.89436,16.84655 6.06959,44.66222 -12.18117,54.56869c-3.98099,2.16088 -8.53154,2.99424 -12.95485,3.56342c-3.21524,0.4137 -6.00172,0.6036 -9.21741,0.06522c-11.54026,-1.99977 -26.05558,-7.64253 -31.93868,-18.35611c-1.26155,-2.29738 -1.27779,-5.11321 -1.44628,-7.72876c-0.28484,-4.42205 -0.66676,-8.82675 -0.69352,-13.2254c-0.05572,-0.09217 -0.09178,-0.21236 -0.09095,-0.36905z" fill="#000000" stroke="none" stroke-width="0.5" stroke-linecap="butt"/><path d="M335.42182,55.63214c-2.81365,-1.44841 -6.19352,-2.82747 -8.75595,-4.6603c-0.92217,-0.65961 -2.4727,-1.65676 -3.22716,-2.49259c-0.52037,-0.5765 -0.818,-1.45932 -1.53822,-1.74993c-1.05773,-0.4268 -2.37813,-0.80994 -3.50956,-1.01526c-8.84003,-1.52246 -17.32498,-4.09769 -26.17416,-5.62184c-3.84191,-0.6623 -7.49355,-2.30199 -11.30746,-2.15132c-0.96704,0.03821 -1.23496,-0.26374 -1.79496,-0.17734c-2.36993,4.45542 -3.8758,9.39462 -4.81317,14.91266c-1.3445,7.80615 -0.88562,19.33848 4.79411,25.7596c6.43054,7.26992 19.7377,14.1073 29.76472,12.43761c8.50603,-0.88475 17.40956,-4.74143 23.49919,-10.92505c3.30777,-3.35881 4.16659,-8.55973 4.91854,-12.94016c0.58912,-3.43197 0.92753,-6.63536 0.95179,-9.72532c-0.92448,-0.45456 -1.72108,-1.0914 -2.80773,-1.65077zM289.26469,21.62571c8.09611,-2.88856 17.24983,-1.7444 25.67374,-0.28794c2.8527,0.49322 6.85649,0.92161 9.46948,2.08039c5.38719,2.38904 9.41368,7.84209 13.00042,12.20586c5.55075,10.77414 6.4352,20.28219 4.38252,32.16159c-0.93066,5.3859 -2.16355,11.23851 -6.15149,15.35862c-6.72758,6.95056 -16.74274,11.23913 -26.19132,12.27089c-11.55993,1.63573 -26.42042,-5.33805 -33.83642,-14.00671c-6.50513,-7.60394 -7.40974,-20.29984 -5.82351,-29.50946c1.82089,-10.44513 5.5572,-19.14316 12.77764,-26.39491c0.30132,-0.50957 0.71996,-0.80518 0.71996,-0.80518c0.12304,-0.08598 0.2465,-0.17059 0.37036,-0.25385c0.55866,-0.52496 1.13674,-1.0421 1.73483,-1.55157l1.48653,-1.0612c0,0 1.2215,-0.86254 2.38729,-0.20647z" fill="#000000" stroke="none" stroke-width="0.5" stroke-linecap="butt"/><path d="M298.85167,151.28897c-0.99998,-0.00541 -0.99458,-1.00539 -0.99458,-1.00539l0.00811,-1.14103c-1.29583,-10.73077 -0.69391,-20.66073 1.93841,-31.15494c1.68806,-4.13356 3.39367,-8.83969 6.26276,-12.32765c1.52695,-1.85633 3.59153,-2.45415 5.41131,-3.86167c4.77697,-3.69469 8.76479,-6.17874 14.88901,-7.03772c5.48131,-1.34042 10.37516,-0.03557 15.74757,1.37841c8.26626,2.17563 16.71552,5.08076 23.46759,10.53863c6.7834,5.6598 15.21296,10.8422 19.86201,18.52461c1.87551,3.09923 2.99768,6.93606 4.30898,10.30266c3.05483,7.84289 5.18483,16.23553 6.45602,24.56991c0.47187,3.09377 1.79972,6.40635 0.28959,9.19429c0,0 -0.50496,0.86315 -1.3681,0.35819c-0.86315,-0.50496 -0.35819,-1.3681 -0.35819,-1.3681c1.25107,-1.90905 -0.19594,-5.61902 -0.54049,-7.88316c-1.24631,-8.18983 -3.34074,-16.43873 -6.34246,-24.14526c-1.2691,-3.25827 -2.34706,-7.01148 -4.16552,-10.00826c-4.52417,-7.45571 -12.8221,-12.50137 -19.41149,-17.99959c-6.52124,-5.28043 -14.72317,-8.04783 -22.70706,-10.14983c-5.08977,-1.34003 -9.68168,-2.61015 -14.86134,-1.34839c-5.86718,0.83032 -9.43167,3.13936 -14.03962,6.65337c-1.6944,1.29215 -3.71576,1.86131 -5.10043,3.56112c-2.69623,3.30988 -4.2914,7.76887 -5.89971,11.67159c-2.54908,10.27643 -3.08659,19.91758 -1.84207,30.4182l-0.00491,1.26541c0,0 -0.00541,0.99998 -1.00539,0.99458z" fill="#000000" stroke="none" stroke-width="0.5" stroke-linecap="butt"/></g><path d="M787.442,71.04339l33.74522,-30.85277l22.65751,37.11974l1.44622,67.97252l339.86258,-77.13193l85.3272,101.23566l-69.09736,89.66587l-358.18141,-48.52884l1.44622,75.20363l-24.5858,27.47825l-31.81692,-36.63767l-2.41037,-57.84895l-79.5423,42.42256l-71.34704,-72.31119l73.75741,-62.18762l79.06023,35.67352z" fill="#83c1de" stroke="#000000" stroke-width="1.5" stroke-linecap="round"/></g></g></svg>