<svg version="1.1" xmlns="http://www.w3.org/2000/svg" xmlns:xlink="http://www.w3.org/1999/xlink" width="2878.25006" height="1619.57958" viewBox="0,0,2878.25006,1619.57958"><g transform="translate(1117.37278,629.80931)"><g data-paper-data="{&quot;isPaintingLayer&quot;:true}" fill-rule="nonzero" stroke-linejoin="miter" stroke-miterlimit="10" stroke-dasharray="" stroke-dashoffset="0" style="mix-blend-mode: normal"><path d="M-1117.37278,989.77027v-1619.57958h2878.25006v1619.57958z" fill="none" stroke="#000000" stroke-width="0" stroke-linecap="butt"/><path d="M235.08273,314.80298l18.08966,-29.94109l50.54469,-0.26732l-10.64098,30.20841z" data-paper-data="{&quot;index&quot;:null}" fill="#cedce9" stroke="#000000" stroke-width="1.5" stroke-linecap="round"/><path d="M230.27494,313.23305c-1.74572,-0.42258 -5.90025,-1.0813 -4.07955,-1.76224c-0.99542,0.21822 -2.32344,0.48463 -3.03008,0.55629c-3.34756,0.33953 -7.6859,0 -11.14022,0c-9.47669,0 -18.6771,-0.18023 -27.85045,0.67413c-4.14567,0.38611 -5.28534,-0.80624 -6.55834,0.86209c-2.62587,2.79926 -7.56631,5.29715 -10.73996,8.11517c-4.30134,3.81927 -5.96938,7.50644 -8.60625,11.33605c-2.98389,3.15376 -0.55333,9.20894 -0.55333,12.71922c0,0.93963 0.83705,2.61221 0.0376,3.30386c0.79474,0.03495 1.56233,0.06681 2.0512,0.06681c3.24923,0 6.49844,0 9.74768,0c12.92492,0 27.94201,-0.13683 40.48708,-1.65511c14.8951,-1.61971 31.03852,0.70297 46.05343,-0.75079c8.22254,-0.72912 17.18559,-0.2957 25.55753,-0.29058c4.24708,0.00261 7.88404,-0.77832 9.74765,0.67413c0.48983,0.38178 0,-0.89883 0,-1.34825c0,-1.12353 0,-2.24714 0,-3.37066c0,-6.29192 0,-12.58381 0,-18.87571c0,-1.48745 -0.8054,-6.809 0.8608,-7.38485c-0.31254,-0.00904 -0.66629,-0.02374 -0.8608,-0.03061c-1.72312,-0.06086 -2.68582,-0.01489 -4.03058,-0.47938c-2.33455,-0.80642 -10.21066,-0.19474 -13.37596,-0.19474c-12.30063,0 -24.60122,0 -36.90186,0c0,0 -2.78504,0 -2.78504,-1.34824c0,-0.05534 0.00467,-0.10841 0.01368,-0.15927c-1.3314,-0.13661 -2.67627,-0.32607 -4.04424,-0.65721zM273.99247,312.70131c7.42529,0 16.91542,-0.64008 21.98625,2.09356c2.90579,1.56648 0.99032,6.58897 0.99032,8.69258c0,6.29192 0,12.58379 0,18.8757c0,0.71848 0.95927,4.28257 0,4.71894c-9.68908,4.40731 -27.9514,0.97051 -39.78286,2.26063c-14.68215,1.42155 -31.59044,-1.28734 -45.79488,0.72264c-12.92972,1.56486 -28.50658,1.73565 -41.83803,1.73565c-1.91225,0 -13.38012,0.7011 -14.62147,0c-3.55971,-2.01051 -2.78504,-3.68764 -2.78504,-6.0672c0,-4.30411 -1.57605,-9.43461 0.83917,-13.57196c2.70264,-3.92509 4.59796,-7.86178 8.90851,-11.68925c1.73883,-1.54392 3.61699,-3.60914 5.8641,-5.0036c1.47039,-0.91245 4.28167,-1.65383 4.63293,-2.83998c2.38266,-3.12255 6.68847,-2.09943 11.78338,-2.62424c9.06955,-0.93423 18.45485,-0.67414 27.85044,-0.67414c3.46504,0 10.23528,-0.772 12.6797,-0.53179c4.25517,0.41818 6.72202,2.17491 10.84617,2.69652c3.02623,0.38276 6.21533,0.15618 9.74768,1.0112c0.26815,0.06493 0.53628,0.12982 0.80445,0.19474c9.29639,0 18.59285,0 27.88927,0z" data-paper-data="{&quot;index&quot;:null}" fill="#000000" stroke="none" stroke-width="1.5" stroke-linecap="butt"/><path d="M234.35793,313.82557c-0.00903,0.05088 -0.01337,0.10396 -0.01337,0.15931c0,1.34826 2.79871,1.35057 2.79871,1.35057c12.3006,0 24.66677,0.0268 36.96744,0.0268c3.16529,0 11.04856,-0.60539 13.38312,0.20101c1.34472,0.46452 2.30962,0.4208 4.03268,0.48164c0.1945,0.00687 0.54854,0.02191 0.86112,0.03096c-1.66622,0.57586 -0.85234,5.91031 -0.85234,7.39776c0,6.29193 -0.00581,12.62125 -0.00581,18.91315c0,1.12355 -0.00476,2.25258 -0.00476,3.3761c0,0.44941 0.48772,1.73205 -0.00209,1.35029c-1.86362,-1.45245 -5.5039,-0.66864 -9.75094,-0.67124c-8.37194,-0.00512 -17.36037,-0.42317 -25.58287,0.30598c-15.01494,1.45378 -31.30592,-0.85583 -46.20102,0.76387c-12.54505,1.5183 -27.6231,1.63164 -40.54812,1.63164c-3.24923,0 -6.50413,-0.00424 -9.75336,-0.00424c-0.48891,0 -1.25756,-0.03274 -2.05226,-0.06767c0.79947,-0.69166 -0.04279,-2.36899 -0.04279,-3.30863c0,-3.51027 -2.44369,-9.58878 0.54029,-12.74256c2.6369,-3.82963 4.31064,-7.54238 8.61197,-11.36164c3.1737,-2.81801 8.13497,-5.33601 10.76088,-8.13523c1.27301,-1.66833 2.42131,-0.4811 6.56698,-0.86721c9.17332,-0.85434 18.43348,-0.69303 27.91012,-0.69303c3.45427,0 7.83143,0.33615 11.17899,-0.00337c0.70657,-0.07168 2.04566,-0.33808 3.04108,-0.55629c-1.82073,0.68094 2.35028,1.34047 4.09603,1.76303c1.36803,0.33113 2.72911,0.52239 4.06048,0.65898z" data-paper-data="{&quot;noHover&quot;:false,&quot;origItem&quot;:[&quot;Path&quot;,{&quot;applyMatrix&quot;:true,&quot;segments&quot;:[[[579.60736,595.76373],[0.95609,-0.20262],[0.00646,0.07548]],[[579.61718,596],[0,-0.08208],[0,2]],[[577.61718,598],[0,0],[-8.83333,0]],[[551.11718,598],[8.83333,0],[-2.27308,0]],[[541.51161,598.28885],[1.67648,-1.19621],[-0.96568,0.68904]],[[538.61718,599],[1.23739,-0.09027],[-0.13966,0.01019]],[[537.99901,599.04541],[0.22447,-0.0134],[1.19653,0.85421]],[[538.61718,610],[0,-2.20646],[0,9.33333]],[[538.61718,638],[0,-9.33333],[0,1.66667]],[[538.61718,643],[0,-1.66667],[0,0.66667]],[[538.61718,645],[-0.35177,0.56631],[1.33831,-2.15456]],[[545.61718,644],[-3.04994,0.00386],[6.01206,-0.00761]],[[563.97058,644.43107],[-5.90478,-1.08158],[10.78253,2.15651]],[[597.04254,645.54479],[-10.6965,-2.40266],[9.00888,2.25222]],[[626.11718,648],[-9.28168,0],[2.33333,0]],[[633.11718,648],[-2.33333,0],[0.35109,0]],[[634.59021,647.90091],[-0.5707,0.05184],[-0.57412,-1.02596]],[[634.61718,643],[0,1.39387],[0,-5.20707]],[[634.21982,624.13246],[2.14282,4.67827],[-1.8936,-5.6808]],[[628.03948,607.31672],[3.08887,5.66543],[-2.2791,-4.1802]],[[620.32688,595.27881],[1.8857,4.15235],[-0.91417,-2.47477]],[[615.61718,594],[2.9771,0.57275],[-6.58756,-1.26734]],[[595.61718,593],[6.8054,0],[-2.48058,0]],[[587.61718,593],[2.40395,0.50364],[-0.50743,-0.10631]],[[585.44122,592.1748],[0.71481,0.32365],[1.30749,1.01011]],[[582.51161,594.78885],[1.25365,-0.62682],[-0.98239,0.4912]]],&quot;closed&quot;:true}],&quot;index&quot;:null}" fill="#484848" stroke="none" stroke-width="1.5" stroke-linecap="butt"/><path d="M195.31492,318.76856c0,0.45565 0.96012,1.00791 0.48157,1.3687c1.22399,0.06098 2.45523,0.19418 3.54895,0.45895c4.21704,1.02077 12.79562,4.74033 13.60452,7.19938c0.06577,0.20001 -1.12671,0.23342 -0.92477,0.41081c0.67199,0.5902 6.1482,-0.43549 6.77813,-0.26788c0.14255,0.03791 0.21256,0.09701 0.24061,0.16894c-0.02933,-0.22338 -0.05616,-0.43933 -0.05616,-0.57521c0,-0.47758 0.03898,-0.99225 -0.4022,-1.41943c-3.75018,-3.7651 -9.87731,-7.34431 -20.48558,-7.34431c0,0 -1.25187,-0.00001 -2.07703,-0.40632c-0.27517,-0.07568 -0.48916,-0.16469 -0.6326,-0.26905c-0.03688,0.25722 -0.07545,0.51904 -0.07545,0.67538zM218.98781,328.88048c0.19005,0.27604 0.134,-0.18215 0.07085,-0.66147c-0.01322,0.20802 -0.20078,0.47284 -0.07085,0.66147zM223.56752,324.90689c3.46305,3.35295 -4.40007,8.25191 -11.54237,5.99601c-6.73881,-2.12848 -9.02073,-6.40624 -15.17072,-7.89486c-2.07766,-0.50292 -4.56725,-0.77746 -6.11933,-1.61416c-2.45957,-1.32596 -1.36926,-5.85369 3.33425,-5.85369c3.38687,0 5.05503,0.53178 8.20813,0.53178h1.39252c0,0 1.59855,0.00001 2.37348,0.58629c8.24979,1.30368 13.54364,4.61593 17.52405,8.24859z" data-paper-data="{&quot;index&quot;:null}" fill="#000000" stroke="none" stroke-width="1.5" stroke-linecap="butt"/><path d="M195.28703,318.04798c0.14339,0.10438 0.35749,0.19333 0.63267,0.26903c0.82516,0.40632 2.08269,0.40342 2.08269,0.40342c10.60824,0 16.95658,3.65838 20.70671,7.42348c0.44118,0.42716 0.39006,0.95121 0.39006,1.42877c0,0.13588 0.0217,0.35494 0.05102,0.57832c-0.02799,-0.07195 -0.09735,-0.13138 -0.23996,-0.16934c-0.62993,-0.16759 -6.15361,0.87584 -6.82558,0.28564c-0.20197,-0.17738 0.85825,-0.32921 0.79243,-0.52925c-0.80888,-2.45905 -9.42885,-6.15972 -13.64591,-7.18048c-1.09376,-0.26475 -2.33205,-0.39248 -3.55607,-0.45349c0.47853,-0.36082 -0.47016,-0.92138 -0.47016,-1.37702c0,-0.15634 0.045,-0.42191 0.08196,-0.67912z" data-paper-data="{&quot;noHover&quot;:false,&quot;origItem&quot;:[&quot;Path&quot;,{&quot;applyMatrix&quot;:true,&quot;segments&quot;:[[[607.563,601.99816],[0.02649,0.38155],[-0.10299,0.15484]],[[607.10872,602.39727],[0.1976,-0.11227],[-0.59254,0.60273]],[[605.61718,603],[0,0],[-7.618,0]],[[590.90604,613.89443],[2.69308,-5.58508],[-0.31682,0.63364]],[[590.61718,616],[0,-0.70843],[0,0.20156]],[[590.57685,616.85325],[0.02106,-0.33136],[0.02013,-0.10671]],[[590.74964,616.60263],[-0.10238,0.05628],[0.45234,-0.24865]],[[595.61718,617],[-0.48256,0.87548],[0.14503,-0.26312]],[[594.95308,616.3906],[-0.04725,0.29671],[0.58086,-3.64773]],[[604.72276,605.71115],[-3.02833,1.51416],[0.78545,-0.39273]],[[607.27135,605.03032],[-0.87898,0.0905],[-0.34365,-0.53523]],[[607.61718,603],[0,0.6759],[0,-0.23192]]],&quot;closed&quot;:true}],&quot;index&quot;:null}" fill="#ffffff" stroke="none" stroke-width="1.5" stroke-linecap="butt"/><path d="M344.83181,319.34763l-11.21381,-105.435l53.26561,0.93305l19.06349,104.50195z" fill="#cedce9" stroke="#000000" stroke-width="1.5" stroke-linecap="round"/><path d="M411.01368,317.77781c-1.4416,0.33113 -2.8589,0.5206 -4.26194,0.6572c0.0095,0.05087 0.01441,0.10393 0.01441,0.15928c0,1.34824 -2.93496,1.34824 -2.93496,1.34824c-12.96282,0 -25.92559,0 -38.88836,0c-3.33567,0 -11.6358,-0.61167 -14.09602,0.19474c-1.41714,0.4645 -2.43166,0.41852 -4.24756,0.47938c-0.20497,0.00687 -0.57776,0.02157 -0.90714,0.03061c1.75589,0.57584 0.90714,5.89739 0.90714,7.38484c0,6.29193 0,12.58383 0,18.87573c0,1.12354 0,2.24713 0,3.37066c0,0.4494 -0.5162,1.73002 0,1.34825c1.96395,-1.45246 5.79666,-0.67153 10.27239,-0.67414c8.82261,-0.00514 18.26817,-0.43854 26.93333,0.29059c15.82321,1.45376 32.83567,-0.8689 48.53259,0.7508c13.2204,1.51828 29.04587,1.6551 42.66658,1.6551c3.42418,0 6.84827,0 10.27242,0c0.51518,0 1.3241,-0.03188 2.16163,-0.06681c-0.84249,-0.69165 0.0396,-2.36423 0.0396,-3.30386c0,-3.51027 2.56144,-9.56544 -0.5831,-12.71922c-2.77885,-3.82963 -4.53666,-7.51678 -9.06954,-11.33604c-3.34448,-2.81801 -8.55089,-5.31593 -11.31811,-8.11516c-1.34155,-1.66833 -2.54254,-0.47598 -6.91142,-0.86209c-9.66718,-0.85435 -19.36289,-0.67413 -29.34971,-0.67413c-3.6403,0 -8.21214,0.33953 -11.73992,0c-0.74468,-0.07168 -2.14418,-0.33808 -3.1932,-0.55629c1.9187,0.68098 -2.45947,1.33969 -4.29915,1.76224zM364.94265,317.24602c9.79688,0 19.59375,0 29.3906,0c0.28263,-0.06491 0.56519,-0.12982 0.84779,-0.19474c3.72248,-0.85502 7.08327,-0.62843 10.27242,-1.0112c4.34616,-0.52163 6.94582,-2.27837 11.43005,-2.69652c2.576,-0.24022 9.7107,0.53179 13.36227,0.53179c9.90136,0 19.79191,-0.26007 29.34972,0.67414c5.36921,0.52481 9.90679,-0.49831 12.41771,2.62424c0.37018,1.18615 3.33278,1.92752 4.88232,2.83999c2.36805,1.39446 4.34732,3.45967 6.17978,5.00361c4.54259,3.82745 6.53995,7.76417 9.38808,11.68924c2.54528,4.13737 0.88439,9.26783 0.88439,13.57194c0,2.37957 0.81638,4.05669 -2.93496,6.0672c-1.30812,0.7011 -13.3934,0 -15.4086,0c-14.04912,0 -30.46453,-0.17082 -44.09027,-1.73565c-14.96908,-2.00999 -32.78759,0.69888 -48.26011,-0.72266c-12.46839,-1.29014 -31.71379,2.14666 -41.92447,-2.26063c-1.01091,-0.43635 0,-4.00045 0,-4.71893c0,-6.29193 0,-12.58381 0,-18.87573c0,-2.10361 -2.01861,-7.12611 1.04363,-8.69258c5.34381,-2.73365 15.3448,-2.09356 23.16982,-2.09356z" data-paper-data="{&quot;index&quot;:null}" fill="#000000" stroke="none" stroke-width="1.5" stroke-linecap="butt"/><path d="M406.71083,318.37028c1.40304,-0.1366 2.83741,-0.32785 4.27907,-0.65898c1.8397,-0.42256 6.23525,-1.0821 4.31651,-1.76304c1.04899,0.2182 2.46019,0.4846 3.20479,0.55628c3.52777,0.33953 8.14061,0.00337 11.78078,0.00337c9.98677,0 19.74543,-0.16134 29.41259,0.69303c4.36887,0.3861 5.57897,-0.80113 6.92053,0.8672c2.76724,2.79921 7.99563,5.31724 11.34018,8.13523c4.53287,3.81924 6.29675,7.532 9.07557,11.36161c3.14458,3.15379 0.56934,9.2323 0.56934,12.74257c0,0.93963 -0.88758,2.61698 -0.04509,3.30863c-0.83748,0.03493 -1.64751,0.06767 -2.16273,0.06767c-3.42415,0 -6.85426,0.00424 -10.2784,0.00424c-13.62079,0 -29.51053,-0.11336 -42.73092,-1.63165c-15.69695,-1.61971 -32.8649,0.68988 -48.68813,-0.76388c-8.66517,-0.72913 -18.13743,-0.3111 -26.96005,-0.30598c-4.4757,0.0026 -8.31191,-0.78121 -10.27586,0.67125c-0.5162,0.38177 -0.0022,-0.90086 -0.0022,-1.35027c0,-1.12354 -0.00504,-2.25258 -0.00504,-3.37611c0,-6.29193 -0.00611,-12.62124 -0.00611,-18.91315c0,-1.48745 0.85768,-6.82191 -0.89824,-7.39776c0.32943,-0.00905 0.7025,-0.02411 0.90747,-0.03099c1.81581,-0.06086 2.83268,-0.01714 4.24977,-0.48164c2.46023,-0.8064 10.76788,-0.20099 14.10356,-0.20099c12.96284,0 25.9947,-0.02681 38.95748,-0.02681c0,0 2.94937,-0.00231 2.94937,-1.35057c0,-0.05534 -0.00457,-0.10842 -0.01409,-0.15931z" data-paper-data="{&quot;noHover&quot;:false,&quot;origItem&quot;:[&quot;Path&quot;,{&quot;applyMatrix&quot;:true,&quot;segments&quot;:[[[579.60736,595.76373],[0.95609,-0.20262],[0.00646,0.07548]],[[579.61718,596],[0,-0.08208],[0,2]],[[577.61718,598],[0,0],[-8.83333,0]],[[551.11718,598],[8.83333,0],[-2.27308,0]],[[541.51161,598.28885],[1.67648,-1.19621],[-0.96568,0.68904]],[[538.61718,599],[1.23739,-0.09027],[-0.13966,0.01019]],[[537.99901,599.04541],[0.22447,-0.0134],[1.19653,0.85421]],[[538.61718,610],[0,-2.20646],[0,9.33333]],[[538.61718,638],[0,-9.33333],[0,1.66667]],[[538.61718,643],[0,-1.66667],[0,0.66667]],[[538.61718,645],[-0.35177,0.56631],[1.33831,-2.15456]],[[545.61718,644],[-3.04994,0.00386],[6.01206,-0.00761]],[[563.97058,644.43107],[-5.90478,-1.08158],[10.78253,2.15651]],[[597.04254,645.54479],[-10.6965,-2.40266],[9.00888,2.25222]],[[626.11718,648],[-9.28168,0],[2.33333,0]],[[633.11718,648],[-2.33333,0],[0.35109,0]],[[634.59021,647.90091],[-0.5707,0.05184],[-0.57412,-1.02596]],[[634.61718,643],[0,1.39387],[0,-5.20707]],[[634.21982,624.13246],[2.14282,4.67827],[-1.8936,-5.6808]],[[628.03948,607.31672],[3.08887,5.66543],[-2.2791,-4.1802]],[[620.32688,595.27881],[1.8857,4.15235],[-0.91417,-2.47477]],[[615.61718,594],[2.9771,0.57275],[-6.58756,-1.26734]],[[595.61718,593],[6.8054,0],[-2.48058,0]],[[587.61718,593],[2.40395,0.50364],[-0.50743,-0.10631]],[[585.44122,592.1748],[0.71481,0.32365],[1.30749,1.01011]],[[582.51161,594.78885],[1.25365,-0.62682],[-0.98239,0.4912]]],&quot;closed&quot;:true}],&quot;index&quot;:null}" fill="#484848" stroke="none" stroke-width="1.5" stroke-linecap="butt"/><path d="M447.85573,323.31311c0,-0.15634 -0.04063,-0.41816 -0.07949,-0.67538c-0.15118,0.10438 -0.37665,0.19335 -0.66666,0.26904c-0.8696,0.40629 -2.18884,0.40631 -2.18884,0.40631c-11.17934,0 -17.63637,3.57922 -21.58839,7.34431c-0.46493,0.42718 -0.42385,0.94185 -0.42385,1.41943c0,0.13588 -0.02832,0.35184 -0.05922,0.57522c0.02955,-0.07188 0.10335,-0.13099 0.2536,-0.16894c0.66381,-0.16762 6.43485,0.85809 7.14301,0.26789c0.21283,-0.17736 -1.04384,-0.21079 -0.97455,-0.41081c0.85242,-2.45906 9.89281,-6.1786 14.33685,-7.19936c1.15264,-0.26475 2.45013,-0.39794 3.74001,-0.45895c-0.50431,-0.36079 0.50749,-0.91306 0.50749,-1.3687zM422.83379,332.76363c-0.06656,0.47933 -0.12566,0.93752 0.07466,0.66148c0.13691,-0.18864 -0.06073,-0.45346 -0.07466,-0.66148zM418.08217,329.45147c4.19469,-3.63266 9.77352,-6.94491 18.46742,-8.24859c0.81669,-0.58629 2.50125,-0.58629 2.50125,-0.58629h1.46748c3.32282,0 5.08082,-0.53177 8.64999,-0.53177c4.95675,0 6.10573,4.52776 3.51373,5.85369c-1.63563,0.83671 -4.25922,1.11124 -6.44875,1.61416c-6.48102,1.48863 -8.88581,5.76637 -15.98739,7.89485c-7.5268,2.25591 -15.81321,-2.64304 -12.16376,-5.99601z" data-paper-data="{&quot;index&quot;:null}" fill="#000000" stroke="none" stroke-width="1.5" stroke-linecap="butt"/><path d="M447.88531,322.59261c0.03895,0.2572 0.08637,0.52276 0.08637,0.6791c0,0.45565 -0.99977,1.0162 -0.49546,1.37703c-1.28991,0.06098 -2.59485,0.1887 -3.7475,0.45347c-4.44409,1.02077 -13.52813,4.72144 -14.38051,7.1805c-0.06938,0.20003 1.04792,0.35184 0.83508,0.52924c-0.70815,0.59018 -6.52916,-0.45325 -7.19302,-0.28564c-0.1503,0.03796 -0.22336,0.09739 -0.25288,0.16933c0.03091,-0.2234 0.05376,-0.44243 0.05376,-0.57831c0,-0.47757 -0.0539,-1.00163 0.41105,-1.4288c3.952,-3.7651 10.6421,-7.42348 21.82141,-7.42348c0,0 1.32522,0.00289 2.19481,-0.40342c0.29,-0.0757 0.51563,-0.16468 0.66672,-0.26904z" data-paper-data="{&quot;noHover&quot;:false,&quot;origItem&quot;:[&quot;Path&quot;,{&quot;applyMatrix&quot;:true,&quot;segments&quot;:[[[607.563,601.99816],[0.02649,0.38155],[-0.10299,0.15484]],[[607.10872,602.39727],[0.1976,-0.11227],[-0.59254,0.60273]],[[605.61718,603],[0,0],[-7.618,0]],[[590.90604,613.89443],[2.69308,-5.58508],[-0.31682,0.63364]],[[590.61718,616],[0,-0.70843],[0,0.20156]],[[590.57685,616.85325],[0.02106,-0.33136],[0.02013,-0.10671]],[[590.74964,616.60263],[-0.10238,0.05628],[0.45234,-0.24865]],[[595.61718,617],[-0.48256,0.87548],[0.14503,-0.26312]],[[594.95308,616.3906],[-0.04725,0.29671],[0.58086,-3.64773]],[[604.72276,605.71115],[-3.02833,1.51416],[0.78545,-0.39273]],[[607.27135,605.03032],[-0.87898,0.0905],[-0.34365,-0.53523]],[[607.61718,603],[0,0.6759],[0,-0.23192]]],&quot;closed&quot;:true}],&quot;index&quot;:null}" fill="#ffffff" stroke="none" stroke-width="1.5" stroke-linecap="butt"/><g><g stroke="#000000" stroke-width="1" stroke-linecap="round"><path d="M73.013,40.43658l209.50758,-30.03241l4.96632,32.08393l119.50961,-25.26942l47.52608,251.58879l-320.96234,76.86481l-59.49851,-300.87973z" fill="#333c43"/><path d="M44.3155,32.88549l258.66946,-35.48957l0.03332,10.67126l-251.85213,34.95606z" fill="#766d66"/><path d="M286.04556,33.71542l148.68043,-31.8807l-4.98083,11.11376l-143.26632,29.66549z" fill="#766d66"/><path d="M295.5788,46.87543l80.60144,-16.85628l8.19679,48.23026l-81.30534,16.98654l-7.88365,-50.47222z" fill="#5c5c5c"/><path d="M303.3033,53.21145l68.20093,-16.98832l5.4439,34.6649l-66.98433,17.00586z" fill="#85877c"/><path d="M267.84097,172.37177l20.22196,-3.49931l84.29896,-64.73952l75.64295,21.91754l-2.53932,13.81665l-70.64634,-21.14346l-86.69057,62.63406l-15.27709,1.37095z" fill="#766d66"/><path d="M259.52144,180.52398l19.97316,101.37951l-102.58776,22.62343l-20.85075,-102.18778z" fill="#5c5c5c"/><path d="M167.01372,205.16485l87.75318,-16.23834l14.24855,86.18002l-87.12778,18.30663z" fill="#85877c"/><path d="M380.69044,286.83781l-21.30159,-109.86976l35.38634,-6.79076l26.73328,106.43796z" fill="#5c5c5c"/><path d="M360.19624,182.6427l29.9288,-4.81018l24.00626,94.32383l-34.7434,7.64245z" fill="#3d1d1e"/><path d="M360.79576,183.25976l30.91075,-4.74921l1.50208,9.42878l-31.05855,5.26191z" fill="#85877c"/><path d="M321.80699,225.66141l-12.79342,-50.77704l42.55561,-7.3894l9.50855,51.38489z" fill="#5c5c5c"/><path d="M318.33708,180.68182l25.91413,-5.52331l6.59033,39.54879l-20.92478,4.06813l-2.72372,0.68215z" fill="#85877c"/><path d="M282.46652,9.75799l24.85186,144.88965l-204.42662,36.40329l-30.21222,-150.7554z" fill="#898b80"/></g><path d="M212.35218,27.86428c4.84362,-3.11638 9.17023,-5.38265 15.26328,-4.85144c6.05988,0.5283 11.70979,5.18182 16.02563,9.01795c8.92992,8.74439 13.33988,20.8594 12.53121,33.3086c-0.3878,5.97001 -1.19854,11.13097 -5.32255,15.79415c-2.6509,2.99745 -6.17893,5.03761 -9.67065,6.86185c-2.46917,1.28999 -4.58322,2.31681 -7.34683,2.8121c-6.67178,1.24225 -12.80211,0.35505 -19.46021,-0.14106c-3.26702,-0.24344 -4.82811,0.06026 -7.75047,-1.65637c-1.75763,-1.03244 -5.72967,-2.76922 -6.8579,-4.83151c-3.90937,-7.14592 -7.53355,-16.31552 -8.99973,-24.29881c-1.11446,-6.02261 0.59658,-9.83514 1.93475,-15.71346l0.45626,-1.57814c5.66654,-5.86292 12.35333,-10.32045 19.19725,-14.72382z" data-paper-data="{&quot;noHover&quot;:false,&quot;origItem&quot;:[&quot;Path&quot;,{&quot;applyMatrix&quot;:true,&quot;segments&quot;:[[[425.73027,311.24179],[8.69787,-6.20231],[0,0]],[[424.76909,313.16224],[0,0],[-3.12532,7.25404]],[[418.54756,332.9],[0,-8.02461],[-0.01429,10.63441]],[[424.32916,366.2763],[-3.3329,-10.13805],[0.96187,2.92582]],[[431.99573,374.11864],[-2.01822,-1.7491],[3.35565,2.90819]],[[441.56668,378.08816],[-4.15087,-1.09246],[8.45937,2.22642]],[[466.54756,382.9],[-8.8914,0.00988],[3.67844,0.02077]],[[476.66092,381.03401],[-3.48853,1.07326],[4.93328,-1.51774]],[[490.72658,374.51588],[-4.12973,3.22967],[6.42465,-5.02442]],[[501.32044,355.47504],[-1.92282,7.59873],[4.00963,-15.84553]],[[493.13392,309.68167],[9.4198,13.39422],[-4.64557,-5.97094]],[[474.68288,294.27269],[7.68099,2.12526],[-7.72304,-2.13689]],[[453.90931,296.88741],[6.98296,-2.86013],[-9.86677,4.0413]]],&quot;closed&quot;:true}]}" fill="#ffffff" stroke="none" stroke-width="0.5" stroke-linecap="butt"/><path d="M141.80133,44.4213c2.55395,-0.47439 6.01616,-1.40737 8.56643,-1.25546c4.90883,0.2924 9.89202,3.73713 13.96107,6.07497c7.99382,7.41226 11.51581,15.20646 13.49331,25.85946c0.81115,4.36984 1.80183,9.57757 -0.13848,13.87389c-3.57211,7.90953 -10.62931,14.65371 -18.30297,18.42869c-8.82881,5.03797 -23.7536,3.22576 -32.30343,-1.36816c-7.5516,-4.05754 -12.00864,-14.76778 -13.44993,-22.55663c-1.84986,-9.87002 -1.32414,-18.68537 2.96094,-27.43268c5.73862,-7.79833 16.24266,-9.95789 25.21309,-11.62405z" data-paper-data="{&quot;noHover&quot;:false,&quot;origItem&quot;:[&quot;Path&quot;,{&quot;applyMatrix&quot;:true,&quot;segments&quot;:[[[323.87003,310.33813],[9.25214,-8.67854],[-7.60578,10.24762]],[[313.54756,344.9],[-0.03021,-13.15654],[0,10.37798]],[[325.46604,377.09362],[-8.76141,-7.02761],[9.91958,7.95659]],[[366.66296,386.53338],[-12.57517,4.38567],[10.7859,-3.03395]],[[394.57462,367.20159],[-6.48754,9.33825],[3.52392,-5.07237]],[[398.04756,349.4],[0.00327,5.82304],[-0.00798,-14.19568]],[[386.8583,312.95113],[8.53141,11.45487],[-4.68483,-3.98189]],[[370.3583,301.81975],[6.25434,1.54691],[-3.24931,-0.80367]],[[359.04756,301.4],[3.40335,-0.00229],[-11.9538,0.00803]]],&quot;closed&quot;:true}]}" fill="#ffffff" stroke="none" stroke-width="0.5" stroke-linecap="butt"/><path d="M168.56862,74.81962c-0.53691,-2.9015 1.37996,-5.68887 4.28146,-6.22578c2.9015,-0.53691 5.68888,1.37996 6.22579,4.28147c0.53691,2.9015 -1.37997,5.68887 -4.28147,6.22578c-2.9015,0.53691 -5.68887,-1.37996 -6.22578,-4.28146z" fill="#000000" stroke="none" stroke-width="0.5" stroke-linecap="butt"/><path d="M247.54418,56.76558c-0.53691,-2.9015 1.37996,-5.68887 4.28146,-6.22578c2.9015,-0.53691 5.68887,1.37997 6.22578,4.28147c0.53691,2.9015 -1.37996,5.68887 -4.28146,6.22578c-2.9015,0.53691 -5.68887,-1.37996 -6.22578,-4.28146z" fill="#000000" stroke="none" stroke-width="0.5" stroke-linecap="butt"/><path d="M32.31861,-6.49873c1.01762,-2.05124 3.06886,-1.03361 3.06886,-1.03361l1.89553,0.95143c1.73497,1.12111 3.92216,1.31069 5.92559,1.81401c5.80315,1.45795 11.45383,3.19825 17.29547,4.5827c11.87805,2.81506 23.74242,6.29262 35.44209,9.77116c25.12934,7.47232 50.01172,15.1681 74.80467,23.64407c0,0 2.16666,0.74073 1.42595,2.90737c-0.74071,2.16668 -2.90737,1.42594 -2.90737,1.42594c-24.73472,-8.45605 -49.55793,-16.13294 -74.62849,-23.58779c-11.61706,-3.45479 -23.39859,-6.90941 -35.1929,-9.70463c-7.80559,-1.84991 -17.70096,-2.84313 -24.57257,-6.95724l-1.52317,-0.7446c0,0 -2.05124,-1.01762 -1.0336,-3.06884z" fill="#000000" stroke="none" stroke-width="0.5" stroke-linecap="butt"/><path d="M278.29406,-45.06176c1.37957,1.82753 -0.44794,3.20709 -0.44794,3.20709l-3.08783,2.33098c-9.14744,6.90531 -18.17138,13.90119 -27.09372,21.09464c-12.81866,10.33477 -25.631,20.6364 -38.72108,30.62567c-7.95796,6.07288 -15.68989,12.83359 -24.46904,17.68824c0,0 -2.00425,1.10726 -3.11152,-0.89699c-1.10725,-2.00426 0.89699,-3.11152 0.89699,-3.11152c8.57852,-4.73454 16.13277,-11.38889 23.90535,-17.32032c13.05769,-9.96458 25.83795,-20.24105 38.62493,-30.55025c8.96016,-7.22395 18.0227,-14.24995 27.2089,-21.18453l3.08783,-2.33098c0,0 1.82753,-1.37957 3.20709,0.44794z" fill="#000000" stroke="none" stroke-width="0.5" stroke-linecap="butt"/><path d="M242.97314,48.48057c-2.46453,0.85115 -4.82615,1.85237 -7.23967,2.81741c-7.90657,3.88821 -16.42604,6.85542 -24.96854,9.40102c-6.23097,1.85531 -11.72059,5.43666 -17.59191,8.11018c1.76942,5.36897 4.14204,10.74369 6.64155,15.31255c1.12823,2.0623 5.08541,3.78864 6.84303,4.82108c2.92237,1.7166 4.46743,1.40655 7.73446,1.64999c6.6581,0.49614 12.74509,1.38427 19.41686,0.14201c2.76363,-0.49526 4.86196,-1.51501 7.33111,-2.80499c3.49174,-1.82423 7.00039,-3.84794 9.65129,-6.84542c4.12401,-4.66317 4.91869,-9.79176 5.30649,-15.76177c0.4578,-7.04762 -0.74813,-13.96352 -3.50093,-20.22467c-3.04978,1.48069 -6.42912,2.27934 -9.62376,3.38264zM188.84831,69.8427c-0.05182,-0.14283 -0.05944,-0.265 -0.04023,-0.36851c-1.0393,-2.84376 -1.90873,-5.7475 -2.47111,-8.76577c-1.10928,-5.99465 0.1763,-10.11889 1.4986,-15.53424l0.00001,-0.00002c-1.69756,-1.49351 -0.21227,-3.21082 -0.21227,-3.21082c0.50791,-0.58625 1.0246,-1.15942 1.54952,-1.72045c0.16546,-0.36067 0.52815,-0.96149 1.19214,-1.23973c5.82031,-5.89112 12.56146,-10.44691 19.53844,-14.92041c5.73406,-3.67659 11.06506,-6.18147 18.20264,-5.54636c7.08082,0.63006 13.54894,5.70306 18.61592,10.20965c13.23872,13.07148 21.15712,39.79862 7.46491,55.41117c-2.98664,3.40553 -6.96723,5.76284 -10.91992,7.82825c-2.87316,1.50129 -5.42156,2.64418 -8.62477,3.25243c-11.5189,2.11937 -27.09013,1.85107 -36.31862,-6.16307c-1.97892,-1.71852 -2.96905,-4.35458 -4.03268,-6.75003c-1.79822,-4.04995 -3.68151,-8.05 -5.22952,-12.16735c-0.08419,-0.06718 -0.15963,-0.16745 -0.2131,-0.31474z" fill="#000000" stroke="none" stroke-width="0.5" stroke-linecap="butt"/><path d="M172.0662,65.07573c-3.1411,-0.38469 -6.7894,-0.50829 -9.82791,-1.3406c-1.09351,-0.29954 -2.89338,-0.6982 -3.89055,-1.22113c-0.68778,-0.36068 -1.27265,-1.08586 -2.04894,-1.10914c-1.14008,-0.0342 -2.51147,0.06351 -3.64401,0.26261c-8.82041,1.63229 -17.67219,2.15397 -26.50177,3.78784c-3.8336,0.7088 -7.82709,0.43479 -11.35296,1.89659c-0.894,0.37065 -1.24989,0.18014 -1.74535,0.45508c-0.68081,5.00039 -0.3835,10.15547 0.64755,15.65678c1.44129,7.78886 5.8645,18.44909 13.41608,22.50665c8.54982,4.59393 23.40121,6.40125 32.23002,1.36328c7.67365,-3.77498 14.69127,-10.47571 18.26339,-18.38524c1.94031,-4.29629 0.94536,-9.4729 0.13422,-13.84275c-0.63553,-3.42368 -1.42712,-6.54612 -2.47417,-9.45337c-1.02468,-0.10638 -1.9925,-0.42803 -3.20561,-0.57659zM116.99005,49.15295c6.59532,-5.51294 15.57905,-7.60874 23.98622,-9.15887c2.84703,-0.52494 6.75152,-1.50924 9.6041,-1.32679c5.88114,0.37614 11.54656,4.09789 16.42229,6.94998c8.93767,8.18602 13.05929,16.79982 15.24643,28.6552c0.9916,5.37501 1.86124,11.29251 -0.4536,16.53851c-3.90509,8.84991 -11.81606,16.34069 -20.32307,20.57992c-10.27867,5.53683 -26.63455,4.13934 -36.59315,-1.42563c-8.73544,-4.88146 -13.97967,-16.47898 -15.68009,-25.6682c-1.90803,-10.42956 -1.41422,-19.88324 2.84897,-29.18635c0.10626,-0.58238 0.39666,-1.00465 0.39666,-1.00465c0.08566,-0.12326 0.17219,-0.24538 0.25957,-0.36638c0.34236,-0.68591 0.70564,-1.37121 1.09035,-2.05624l1.02719,-1.51023c0,0 0.84733,-1.2321 2.16816,-1.02023z" fill="#000000" stroke="none" stroke-width="0.5" stroke-linecap="butt"/><path d="M170.876,167.47782c-0.94001,0.34114 -1.28115,-0.59887 -1.28115,-0.59887l-0.38744,-1.07327c-4.93088,-9.61847 -7.80413,-19.1427 -8.96791,-29.89924c0.15254,-4.46235 0.12331,-9.46794 1.60736,-13.73352c0.78982,-2.27018 2.51973,-3.54583 3.73966,-5.49634c3.20236,-5.12006 6.08352,-8.83114 11.53159,-11.75732c4.67823,-3.15525 9.72118,-3.62545 15.25087,-4.15895c8.50827,-0.82086 17.44078,-1.0207 25.66488,1.76193c8.3234,2.96122 18.02587,4.90463 25.04719,10.50232c2.83253,2.25822 5.21368,5.46924 7.60946,8.17363c5.58126,6.3002 10.48522,13.43633 14.56331,20.81516c1.51381,2.73906 3.90641,5.38704 3.45492,8.5254c0,0 -0.17489,0.98459 -1.15948,0.8097c-0.98459,-0.17489 -0.8097,-1.15948 -0.8097,-1.15948c0.51275,-2.22413 -2.12923,-5.20367 -3.23636,-7.20849c-4.0047,-7.25182 -8.82553,-14.26543 -14.30975,-20.45608c-2.31869,-2.61737 -4.62941,-5.76525 -7.37295,-7.9471c-6.82568,-5.42825 -16.35731,-7.28895 -24.44276,-10.16576c-7.94611,-2.69608 -16.59891,-2.45266 -24.81678,-1.66048c-5.23893,0.50502 -9.98659,0.90326 -14.40906,3.88028c-5.21684,2.8103 -7.76145,6.21063 -10.8678,11.10267c-1.14224,1.79887 -2.84153,3.03266 -3.55206,5.10674c-1.38354,4.03866 -1.33626,8.77416 -1.49391,12.99234c1.16647,10.52341 4.00015,19.75439 8.80322,29.17471l0.4335,1.18885c0,0 0.34114,0.94001 -0.59887,1.28115z" fill="#000000" stroke="none" stroke-width="0.5" stroke-linecap="butt"/></g><path d="M-179.62748,60.16726l33.74522,-30.85277l22.65751,37.11974l1.44622,67.97252l339.86258,-77.13193l85.3272,101.23566l-69.09736,89.66587l-358.18141,-48.52884l1.44622,75.20363l-24.5858,27.47825l-31.81692,-36.63767l-2.41037,-57.84895l-79.5423,42.42256l-71.34704,-72.31119l73.75741,-62.18762l79.06023,35.67352z" fill="#83c1de" stroke="#000000" stroke-width="1.5" stroke-linecap="round"/></g></g></svg>