<svg version="1.1" xmlns="http://www.w3.org/2000/svg" xmlns:xlink="http://www.w3.org/1999/xlink" width="2878.25006" height="1619.57958" viewBox="0,0,2878.25006,1619.57958"><g transform="translate(1117.37278,629.80931)"><g data-paper-data="{&quot;isPaintingLayer&quot;:true}" fill-rule="nonzero" stroke-linejoin="miter" stroke-miterlimit="10" stroke-dasharray="" stroke-dashoffset="0" style="mix-blend-mode: normal"><path d="M-1117.37278,989.77027v-1619.57958h2878.25006v1619.57958z" fill="none" stroke="#000000" stroke-width="0" stroke-linecap="butt"/><path d="M235.08273,314.80298l18.08966,-29.94109l50.54469,-0.26732l-10.64098,30.20841z" data-paper-data="{&quot;index&quot;:null}" fill="#cedce9" stroke="#000000" stroke-width="1.5" stroke-linecap="round"/><path d="M230.27494,313.23305c-1.74572,-0.42258 -5.90025,-1.0813 -4.07955,-1.76224c-0.99542,0.21822 -2.32344,0.48463 -3.03008,0.55629c-3.34756,0.33953 -7.6859,0 -11.14022,0c-9.47669,0 -18.6771,-0.18023 -27.85045,0.67413c-4.14567,0.38611 -5.28534,-0.80624 -6.55834,0.86209c-2.62587,2.79926 -7.56631,5.29715 -10.73996,8.11517c-4.30134,3.81927 -5.96938,7.50644 -8.60625,11.33605c-2.98389,3.15376 -0.55333,9.20894 -0.55333,12.71922c0,0.93963 0.83705,2.61221 0.0376,3.30386c0.79474,0.03495 1.56233,0.06681 2.0512,0.06681c3.24923,0 6.49844,0 9.74768,0c12.92492,0 27.94201,-0.13683 40.48708,-1.65511c14.8951,-1.61971 31.03852,0.70297 46.05343,-0.75079c8.22254,-0.72912 17.18559,-0.2957 25.55753,-0.29058c4.24708,0.00261 7.88404,-0.77832 9.74765,0.67413c0.48983,0.38178 0,-0.89883 0,-1.34825c0,-1.12353 0,-2.24714 0,-3.37066c0,-6.29192 0,-12.58381 0,-18.87571c0,-1.48745 -0.8054,-6.809 0.8608,-7.38485c-0.31254,-0.00904 -0.66629,-0.02374 -0.8608,-0.03061c-1.72312,-0.06086 -2.68582,-0.01489 -4.03058,-0.47938c-2.33455,-0.80642 -10.21066,-0.19474 -13.37596,-0.19474c-12.30063,0 -24.60122,0 -36.90186,0c0,0 -2.78504,0 -2.78504,-1.34824c0,-0.05534 0.00467,-0.10841 0.01368,-0.15927c-1.3314,-0.13661 -2.67627,-0.32607 -4.04424,-0.65721zM273.99247,312.70131c7.42529,0 16.91542,-0.64008 21.98625,2.09356c2.90579,1.56648 0.99032,6.58897 0.99032,8.69258c0,6.29192 0,12.58379 0,18.8757c0,0.71848 0.95927,4.28257 0,4.71894c-9.68908,4.40731 -27.9514,0.97051 -39.78286,2.26063c-14.68215,1.42155 -31.59044,-1.28734 -45.79488,0.72264c-12.92972,1.56486 -28.50658,1.73565 -41.83803,1.73565c-1.91225,0 -13.38012,0.7011 -14.62147,0c-3.55971,-2.01051 -2.78504,-3.68764 -2.78504,-6.0672c0,-4.30411 -1.57605,-9.43461 0.83917,-13.57196c2.70264,-3.92509 4.59796,-7.86178 8.90851,-11.68925c1.73883,-1.54392 3.61699,-3.60914 5.8641,-5.0036c1.47039,-0.91245 4.28167,-1.65383 4.63293,-2.83998c2.38266,-3.12255 6.68847,-2.09943 11.78338,-2.62424c9.06955,-0.93423 18.45485,-0.67414 27.85044,-0.67414c3.46504,0 10.23528,-0.772 12.6797,-0.53179c4.25517,0.41818 6.72202,2.17491 10.84617,2.69652c3.02623,0.38276 6.21533,0.15618 9.74768,1.0112c0.26815,0.06493 0.53628,0.12982 0.80445,0.19474c9.29639,0 18.59285,0 27.88927,0z" data-paper-data="{&quot;index&quot;:null}" fill="#000000" stroke="none" stroke-width="1.5" stroke-linecap="butt"/><path d="M234.35793,313.82557c-0.00903,0.05088 -0.01337,0.10396 -0.01337,0.15931c0,1.34826 2.79871,1.35057 2.79871,1.35057c12.3006,0 24.66677,0.0268 36.96744,0.0268c3.16529,0 11.04856,-0.60539 13.38312,0.20101c1.34472,0.46452 2.30962,0.4208 4.03268,0.48164c0.1945,0.00687 0.54854,0.02191 0.86112,0.03096c-1.66622,0.57586 -0.85234,5.91031 -0.85234,7.39776c0,6.29193 -0.00581,12.62125 -0.00581,18.91315c0,1.12355 -0.00476,2.25258 -0.00476,3.3761c0,0.44941 0.48772,1.73205 -0.00209,1.35029c-1.86362,-1.45245 -5.5039,-0.66864 -9.75094,-0.67124c-8.37194,-0.00512 -17.36037,-0.42317 -25.58287,0.30598c-15.01494,1.45378 -31.30592,-0.85583 -46.20102,0.76387c-12.54505,1.5183 -27.6231,1.63164 -40.54812,1.63164c-3.24923,0 -6.50413,-0.00424 -9.75336,-0.00424c-0.48891,0 -1.25756,-0.03274 -2.05226,-0.06767c0.79947,-0.69166 -0.04279,-2.36899 -0.04279,-3.30863c0,-3.51027 -2.44369,-9.58878 0.54029,-12.74256c2.6369,-3.82963 4.31064,-7.54238 8.61197,-11.36164c3.1737,-2.81801 8.13497,-5.33601 10.76088,-8.13523c1.27301,-1.66833 2.42131,-0.4811 6.56698,-0.86721c9.17332,-0.85434 18.43348,-0.69303 27.91012,-0.69303c3.45427,0 7.83143,0.33615 11.17899,-0.00337c0.70657,-0.07168 2.04566,-0.33808 3.04108,-0.55629c-1.82073,0.68094 2.35028,1.34047 4.09603,1.76303c1.36803,0.33113 2.72911,0.52239 4.06048,0.65898z" data-paper-data="{&quot;noHover&quot;:false,&quot;origItem&quot;:[&quot;Path&quot;,{&quot;applyMatrix&quot;:true,&quot;segments&quot;:[[[579.60736,595.76373],[0.95609,-0.20262],[0.00646,0.07548]],[[579.61718,596],[0,-0.08208],[0,2]],[[577.61718,598],[0,0],[-8.83333,0]],[[551.11718,598],[8.83333,0],[-2.27308,0]],[[541.51161,598.28885],[1.67648,-1.19621],[-0.96568,0.68904]],[[538.61718,599],[1.23739,-0.09027],[-0.13966,0.01019]],[[537.99901,599.04541],[0.22447,-0.0134],[1.19653,0.85421]],[[538.61718,610],[0,-2.20646],[0,9.33333]],[[538.61718,638],[0,-9.33333],[0,1.66667]],[[538.61718,643],[0,-1.66667],[0,0.66667]],[[538.61718,645],[-0.35177,0.56631],[1.33831,-2.15456]],[[545.61718,644],[-3.04994,0.00386],[6.01206,-0.00761]],[[563.97058,644.43107],[-5.90478,-1.08158],[10.78253,2.15651]],[[597.04254,645.54479],[-10.6965,-2.40266],[9.00888,2.25222]],[[626.11718,648],[-9.28168,0],[2.33333,0]],[[633.11718,648],[-2.33333,0],[0.35109,0]],[[634.59021,647.90091],[-0.5707,0.05184],[-0.57412,-1.02596]],[[634.61718,643],[0,1.39387],[0,-5.20707]],[[634.21982,624.13246],[2.14282,4.67827],[-1.8936,-5.6808]],[[628.03948,607.31672],[3.08887,5.66543],[-2.2791,-4.1802]],[[620.32688,595.27881],[1.8857,4.15235],[-0.91417,-2.47477]],[[615.61718,594],[2.9771,0.57275],[-6.58756,-1.26734]],[[595.61718,593],[6.8054,0],[-2.48058,0]],[[587.61718,593],[2.40395,0.50364],[-0.50743,-0.10631]],[[585.44122,592.1748],[0.71481,0.32365],[1.30749,1.01011]],[[582.51161,594.78885],[1.25365,-0.62682],[-0.98239,0.4912]]],&quot;closed&quot;:true}],&quot;index&quot;:null}" fill="#484848" stroke="none" stroke-width="1.5" stroke-linecap="butt"/><path d="M195.31492,318.76856c0,0.45565 0.96012,1.00791 0.48157,1.3687c1.22399,0.06098 2.45523,0.19418 3.54895,0.45895c4.21704,1.02077 12.79562,4.74033 13.60452,7.19938c0.06577,0.20001 -1.12671,0.23342 -0.92477,0.41081c0.67199,0.5902 6.1482,-0.43549 6.77813,-0.26788c0.14255,0.03791 0.21256,0.09701 0.24061,0.16894c-0.02933,-0.22338 -0.05616,-0.43933 -0.05616,-0.57521c0,-0.47758 0.03898,-0.99225 -0.4022,-1.41943c-3.75018,-3.7651 -9.87731,-7.34431 -20.48558,-7.34431c0,0 -1.25187,-0.00001 -2.07703,-0.40632c-0.27517,-0.07568 -0.48916,-0.16469 -0.6326,-0.26905c-0.03688,0.25722 -0.07545,0.51904 -0.07545,0.67538zM218.98781,328.88048c0.19005,0.27604 0.134,-0.18215 0.07085,-0.66147c-0.01322,0.20802 -0.20078,0.47284 -0.07085,0.66147zM223.56752,324.90689c3.46305,3.35295 -4.40007,8.25191 -11.54237,5.99601c-6.73881,-2.12848 -9.02073,-6.40624 -15.17072,-7.89486c-2.07766,-0.50292 -4.56725,-0.77746 -6.11933,-1.61416c-2.45957,-1.32596 -1.36926,-5.85369 3.33425,-5.85369c3.38687,0 5.05503,0.53178 8.20813,0.53178h1.39252c0,0 1.59855,0.00001 2.37348,0.58629c8.24979,1.30368 13.54364,4.61593 17.52405,8.24859z" data-paper-data="{&quot;index&quot;:null}" fill="#000000" stroke="none" stroke-width="1.5" stroke-linecap="butt"/><path d="M195.28703,318.04798c0.14339,0.10438 0.35749,0.19333 0.63267,0.26903c0.82516,0.40632 2.08269,0.40342 2.08269,0.40342c10.60824,0 16.95658,3.65838 20.70671,7.42348c0.44118,0.42716 0.39006,0.95121 0.39006,1.42877c0,0.13588 0.0217,0.35494 0.05102,0.57832c-0.02799,-0.07195 -0.09735,-0.13138 -0.23996,-0.16934c-0.62993,-0.16759 -6.15361,0.87584 -6.82558,0.28564c-0.20197,-0.17738 0.85825,-0.32921 0.79243,-0.52925c-0.80888,-2.45905 -9.42885,-6.15972 -13.64591,-7.18048c-1.09376,-0.26475 -2.33205,-0.39248 -3.55607,-0.45349c0.47853,-0.36082 -0.47016,-0.92138 -0.47016,-1.37702c0,-0.15634 0.045,-0.42191 0.08196,-0.67912z" data-paper-data="{&quot;noHover&quot;:false,&quot;origItem&quot;:[&quot;Path&quot;,{&quot;applyMatrix&quot;:true,&quot;segments&quot;:[[[607.563,601.99816],[0.02649,0.38155],[-0.10299,0.15484]],[[607.10872,602.39727],[0.1976,-0.11227],[-0.59254,0.60273]],[[605.61718,603],[0,0],[-7.618,0]],[[590.90604,613.89443],[2.69308,-5.58508],[-0.31682,0.63364]],[[590.61718,616],[0,-0.70843],[0,0.20156]],[[590.57685,616.85325],[0.02106,-0.33136],[0.02013,-0.10671]],[[590.74964,616.60263],[-0.10238,0.05628],[0.45234,-0.24865]],[[595.61718,617],[-0.48256,0.87548],[0.14503,-0.26312]],[[594.95308,616.3906],[-0.04725,0.29671],[0.58086,-3.64773]],[[604.72276,605.71115],[-3.02833,1.51416],[0.78545,-0.39273]],[[607.27135,605.03032],[-0.87898,0.0905],[-0.34365,-0.53523]],[[607.61718,603],[0,0.6759],[0,-0.23192]]],&quot;closed&quot;:true}],&quot;index&quot;:null}" fill="#ffffff" stroke="none" stroke-width="1.5" stroke-linecap="butt"/><path d="M344.83181,319.34763l-11.21381,-30.20841l53.26561,0.26733l19.06349,29.94108z" fill="#cedce9" stroke="#000000" stroke-width="1.5" stroke-linecap="round"/><path d="M411.01368,317.77781c-1.4416,0.33113 -2.8589,0.5206 -4.26194,0.6572c0.0095,0.05087 0.01441,0.10393 0.01441,0.15928c0,1.34824 -2.93496,1.34824 -2.93496,1.34824c-12.96282,0 -25.92559,0 -38.88836,0c-3.33567,0 -11.6358,-0.61167 -14.09602,0.19474c-1.41714,0.4645 -2.43166,0.41852 -4.24756,0.47938c-0.20497,0.00687 -0.57776,0.02157 -0.90714,0.03061c1.75589,0.57584 0.90714,5.89739 0.90714,7.38484c0,6.29193 0,12.58383 0,18.87573c0,1.12354 0,2.24713 0,3.37066c0,0.4494 -0.5162,1.73002 0,1.34825c1.96395,-1.45246 5.79666,-0.67153 10.27239,-0.67414c8.82261,-0.00514 18.26817,-0.43854 26.93333,0.29059c15.82321,1.45376 32.83567,-0.8689 48.53259,0.7508c13.2204,1.51828 29.04587,1.6551 42.66658,1.6551c3.42418,0 6.84827,0 10.27242,0c0.51518,0 1.3241,-0.03188 2.16163,-0.06681c-0.84249,-0.69165 0.0396,-2.36423 0.0396,-3.30386c0,-3.51027 2.56144,-9.56544 -0.5831,-12.71922c-2.77885,-3.82963 -4.53666,-7.51678 -9.06954,-11.33604c-3.34448,-2.81801 -8.55089,-5.31593 -11.31811,-8.11516c-1.34155,-1.66833 -2.54254,-0.47598 -6.91142,-0.86209c-9.66718,-0.85435 -19.36289,-0.67413 -29.34971,-0.67413c-3.6403,0 -8.21214,0.33953 -11.73992,0c-0.74468,-0.07168 -2.14418,-0.33808 -3.1932,-0.55629c1.9187,0.68098 -2.45947,1.33969 -4.29915,1.76224zM364.94265,317.24602c9.79688,0 19.59375,0 29.3906,0c0.28263,-0.06491 0.56519,-0.12982 0.84779,-0.19474c3.72248,-0.85502 7.08327,-0.62843 10.27242,-1.0112c4.34616,-0.52163 6.94582,-2.27837 11.43005,-2.69652c2.576,-0.24022 9.7107,0.53179 13.36227,0.53179c9.90136,0 19.79191,-0.26007 29.34972,0.67414c5.36921,0.52481 9.90679,-0.49831 12.41771,2.62424c0.37018,1.18615 3.33278,1.92752 4.88232,2.83999c2.36805,1.39446 4.34732,3.45967 6.17978,5.00361c4.54259,3.82745 6.53995,7.76417 9.38808,11.68924c2.54528,4.13737 0.88439,9.26783 0.88439,13.57194c0,2.37957 0.81638,4.05669 -2.93496,6.0672c-1.30812,0.7011 -13.3934,0 -15.4086,0c-14.04912,0 -30.46453,-0.17082 -44.09027,-1.73565c-14.96908,-2.00999 -32.78759,0.69888 -48.26011,-0.72266c-12.46839,-1.29014 -31.71379,2.14666 -41.92447,-2.26063c-1.01091,-0.43635 0,-4.00045 0,-4.71893c0,-6.29193 0,-12.58381 0,-18.87573c0,-2.10361 -2.01861,-7.12611 1.04363,-8.69258c5.34381,-2.73365 15.3448,-2.09356 23.16982,-2.09356z" data-paper-data="{&quot;index&quot;:null}" fill="#000000" stroke="none" stroke-width="1.5" stroke-linecap="butt"/><path d="M406.71083,318.37028c1.40304,-0.1366 2.83741,-0.32785 4.27907,-0.65898c1.8397,-0.42256 6.23525,-1.0821 4.31651,-1.76304c1.04899,0.2182 2.46019,0.4846 3.20479,0.55628c3.52777,0.33953 8.14061,0.00337 11.78078,0.00337c9.98677,0 19.74543,-0.16134 29.41259,0.69303c4.36887,0.3861 5.57897,-0.80113 6.92053,0.8672c2.76724,2.79921 7.99563,5.31724 11.34018,8.13523c4.53287,3.81924 6.29675,7.532 9.07557,11.36161c3.14458,3.15379 0.56934,9.2323 0.56934,12.74257c0,0.93963 -0.88758,2.61698 -0.04509,3.30863c-0.83748,0.03493 -1.64751,0.06767 -2.16273,0.06767c-3.42415,0 -6.85426,0.00424 -10.2784,0.00424c-13.62079,0 -29.51053,-0.11336 -42.73092,-1.63165c-15.69695,-1.61971 -32.8649,0.68988 -48.68813,-0.76388c-8.66517,-0.72913 -18.13743,-0.3111 -26.96005,-0.30598c-4.4757,0.0026 -8.31191,-0.78121 -10.27586,0.67125c-0.5162,0.38177 -0.0022,-0.90086 -0.0022,-1.35027c0,-1.12354 -0.00504,-2.25258 -0.00504,-3.37611c0,-6.29193 -0.00611,-12.62124 -0.00611,-18.91315c0,-1.48745 0.85768,-6.82191 -0.89824,-7.39776c0.32943,-0.00905 0.7025,-0.02411 0.90747,-0.03099c1.81581,-0.06086 2.83268,-0.01714 4.24977,-0.48164c2.46023,-0.8064 10.76788,-0.20099 14.10356,-0.20099c12.96284,0 25.9947,-0.02681 38.95748,-0.02681c0,0 2.94937,-0.00231 2.94937,-1.35057c0,-0.05534 -0.00457,-0.10842 -0.01409,-0.15931z" data-paper-data="{&quot;noHover&quot;:false,&quot;origItem&quot;:[&quot;Path&quot;,{&quot;applyMatrix&quot;:true,&quot;segments&quot;:[[[579.60736,595.76373],[0.95609,-0.20262],[0.00646,0.07548]],[[579.61718,596],[0,-0.08208],[0,2]],[[577.61718,598],[0,0],[-8.83333,0]],[[551.11718,598],[8.83333,0],[-2.27308,0]],[[541.51161,598.28885],[1.67648,-1.19621],[-0.96568,0.68904]],[[538.61718,599],[1.23739,-0.09027],[-0.13966,0.01019]],[[537.99901,599.04541],[0.22447,-0.0134],[1.19653,0.85421]],[[538.61718,610],[0,-2.20646],[0,9.33333]],[[538.61718,638],[0,-9.33333],[0,1.66667]],[[538.61718,643],[0,-1.66667],[0,0.66667]],[[538.61718,645],[-0.35177,0.56631],[1.33831,-2.15456]],[[545.61718,644],[-3.04994,0.00386],[6.01206,-0.00761]],[[563.97058,644.43107],[-5.90478,-1.08158],[10.78253,2.15651]],[[597.04254,645.54479],[-10.6965,-2.40266],[9.00888,2.25222]],[[626.11718,648],[-9.28168,0],[2.33333,0]],[[633.11718,648],[-2.33333,0],[0.35109,0]],[[634.59021,647.90091],[-0.5707,0.05184],[-0.57412,-1.02596]],[[634.61718,643],[0,1.39387],[0,-5.20707]],[[634.21982,624.13246],[2.14282,4.67827],[-1.8936,-5.6808]],[[628.03948,607.31672],[3.08887,5.66543],[-2.2791,-4.1802]],[[620.32688,595.27881],[1.8857,4.15235],[-0.91417,-2.47477]],[[615.61718,594],[2.9771,0.57275],[-6.58756,-1.26734]],[[595.61718,593],[6.8054,0],[-2.48058,0]],[[587.61718,593],[2.40395,0.50364],[-0.50743,-0.10631]],[[585.44122,592.1748],[0.71481,0.32365],[1.30749,1.01011]],[[582.51161,594.78885],[1.25365,-0.62682],[-0.98239,0.4912]]],&quot;closed&quot;:true}],&quot;index&quot;:null}" fill="#484848" stroke="none" stroke-width="1.5" stroke-linecap="butt"/><path d="M447.85573,323.31311c0,-0.15634 -0.04063,-0.41816 -0.07949,-0.67538c-0.15118,0.10438 -0.37665,0.19335 -0.66666,0.26904c-0.8696,0.40629 -2.18884,0.40631 -2.18884,0.40631c-11.17934,0 -17.63637,3.57922 -21.58839,7.34431c-0.46493,0.42718 -0.42385,0.94185 -0.42385,1.41943c0,0.13588 -0.02832,0.35184 -0.05922,0.57522c0.02955,-0.07188 0.10335,-0.13099 0.2536,-0.16894c0.66381,-0.16762 6.43485,0.85809 7.14301,0.26789c0.21283,-0.17736 -1.04384,-0.21079 -0.97455,-0.41081c0.85242,-2.45906 9.89281,-6.1786 14.33685,-7.19936c1.15264,-0.26475 2.45013,-0.39794 3.74001,-0.45895c-0.50431,-0.36079 0.50749,-0.91306 0.50749,-1.3687zM422.83379,332.76363c-0.06656,0.47933 -0.12566,0.93752 0.07466,0.66148c0.13691,-0.18864 -0.06073,-0.45346 -0.07466,-0.66148zM418.08217,329.45147c4.19469,-3.63266 9.77352,-6.94491 18.46742,-8.24859c0.81669,-0.58629 2.50125,-0.58629 2.50125,-0.58629h1.46748c3.32282,0 5.08082,-0.53177 8.64999,-0.53177c4.95675,0 6.10573,4.52776 3.51373,5.85369c-1.63563,0.83671 -4.25922,1.11124 -6.44875,1.61416c-6.48102,1.48863 -8.88581,5.76637 -15.98739,7.89485c-7.5268,2.25591 -15.81321,-2.64304 -12.16376,-5.99601z" data-paper-data="{&quot;index&quot;:null}" fill="#000000" stroke="none" stroke-width="1.5" stroke-linecap="butt"/><path d="M447.88531,322.59261c0.03895,0.2572 0.08637,0.52276 0.08637,0.6791c0,0.45565 -0.99977,1.0162 -0.49546,1.37703c-1.28991,0.06098 -2.59485,0.1887 -3.7475,0.45347c-4.44409,1.02077 -13.52813,4.72144 -14.38051,7.1805c-0.06938,0.20003 1.04792,0.35184 0.83508,0.52924c-0.70815,0.59018 -6.52916,-0.45325 -7.19302,-0.28564c-0.1503,0.03796 -0.22336,0.09739 -0.25288,0.16933c0.03091,-0.2234 0.05376,-0.44243 0.05376,-0.57831c0,-0.47757 -0.0539,-1.00163 0.41105,-1.4288c3.952,-3.7651 10.6421,-7.42348 21.82141,-7.42348c0,0 1.32522,0.00289 2.19481,-0.40342c0.29,-0.0757 0.51563,-0.16468 0.66672,-0.26904z" data-paper-data="{&quot;noHover&quot;:false,&quot;origItem&quot;:[&quot;Path&quot;,{&quot;applyMatrix&quot;:true,&quot;segments&quot;:[[[607.563,601.99816],[0.02649,0.38155],[-0.10299,0.15484]],[[607.10872,602.39727],[0.1976,-0.11227],[-0.59254,0.60273]],[[605.61718,603],[0,0],[-7.618,0]],[[590.90604,613.89443],[2.69308,-5.58508],[-0.31682,0.63364]],[[590.61718,616],[0,-0.70843],[0,0.20156]],[[590.57685,616.85325],[0.02106,-0.33136],[0.02013,-0.10671]],[[590.74964,616.60263],[-0.10238,0.05628],[0.45234,-0.24865]],[[595.61718,617],[-0.48256,0.87548],[0.14503,-0.26312]],[[594.95308,616.3906],[-0.04725,0.29671],[0.58086,-3.64773]],[[604.72276,605.71115],[-3.02833,1.51416],[0.78545,-0.39273]],[[607.27135,605.03032],[-0.87898,0.0905],[-0.34365,-0.53523]],[[607.61718,603],[0,0.6759],[0,-0.23192]]],&quot;closed&quot;:true}],&quot;index&quot;:null}" fill="#ffffff" stroke="none" stroke-width="1.5" stroke-linecap="butt"/><g><g stroke="#000000" stroke-width="1" stroke-linecap="round"><path d="M156.13981,14.55113l211.47477,8.59022l-0.95447,32.45199l122.11252,-3.10203l0.95447,256.03659l-329.59043,17.18046l-3.75823,-306.68316z" fill="#333c43"/><path d="M129.29535,1.90439l260.80894,12.16949l-1.90894,10.49918l-254.00834,-11.45363z" fill="#766d66"/><path d="M366.83909,46.70484l151.99935,-4.29512l-6.91991,10.02194l-146.27254,3.10202z" fill="#766d66"/><path d="M373.81864,61.37981l82.32304,-1.90893l-0.71586,48.91659l-83.03889,1.90893l1.43171,-51.06415z" fill="#5c5c5c"/><path d="M380.26131,69.01558l70.15356,-4.29512l-0.95448,35.07678l-68.96046,4.53373z" fill="#85877c"/><path d="M323.70896,179.7341l20.52111,0.23862l94.6715,-48.32004l70.39217,35.31539l-5.01096,13.12396l-65.61982,-33.64507l-96.64009,45.81456l-15.27152,-1.4317z" fill="#766d66"/><path d="M314.04496,186.23643l1.19307,103.32139l-104.9917,3.57925l-1.90894,-104.27585z" fill="#5c5c5c"/><path d="M218.59795,193.63357h89.24295l-1.67033,87.334l-89.00433,2.14756z" fill="#85877c"/><path d="M413.84673,312.82301l-0.95447,-111.91162l36.03124,-0.23862l6.91992,109.52544z" fill="#5c5c5c"/><path d="M412.65364,206.63822l30.30443,0.71586l6.44267,97.11734l-35.55401,1.19308z" fill="#3d1d1e"/><path d="M413.13087,207.35407l31.25889,0.95448l-0.23862,9.5447l-31.49751,-0.47724z" fill="#85877c"/><path d="M367.0777,241.95362l-3.34064,-52.25724l43.18976,0.47723v52.25724z" fill="#5c5c5c"/><path d="M371.85005,197.09353l26.48654,-0.71586l-0.71585,40.08774l-21.3157,0.19282l-2.80237,0.17516z" fill="#85877c"/><path d="M367.67901,22.49612l-1.92663,146.9929l-207.63786,-1.40118l-2.27693,-153.73609z" fill="#898b80"/></g><path d="M295.44056,27.54238c5.32981,-2.18303 9.99656,-3.62421 15.89124,-1.9932c5.86259,1.62212 10.57145,7.22599 14.11723,11.78338c7.18975,10.22327 9.32169,22.93846 6.2613,35.0327c-1.46761,5.79979 -3.20389,10.72707 -8.10755,14.56202c-3.15205,2.46506 -6.99241,3.82922 -10.75777,4.98766c-2.66267,0.81917 -4.92827,1.44419 -7.73587,1.42835c-6.78644,0.00754 -12.653,-1.9803 -19.10969,-3.67962c-3.16819,-0.83383 -4.75848,-0.81925 -7.3197,-3.03897c-1.54043,-1.33502 -5.13014,-3.76554 -5.86429,-5.9987c-2.54386,-7.73797 -4.43907,-17.41394 -4.42816,-25.53074c0,-6.12485 2.37619,-9.56241 4.76162,-15.09911l0.7358,-1.46878c6.63874,-4.73398 14.02498,-7.9004 21.55588,-10.98496z" data-paper-data="{&quot;noHover&quot;:false,&quot;origItem&quot;:[&quot;Path&quot;,{&quot;applyMatrix&quot;:true,&quot;segments&quot;:[[[425.73027,311.24179],[8.69787,-6.20231],[0,0]],[[424.76909,313.16224],[0,0],[-3.12532,7.25404]],[[418.54756,332.9],[0,-8.02461],[-0.01429,10.63441]],[[424.32916,366.2763],[-3.3329,-10.13805],[0.96187,2.92582]],[[431.99573,374.11864],[-2.01822,-1.7491],[3.35565,2.90819]],[[441.56668,378.08816],[-4.15087,-1.09246],[8.45937,2.22642]],[[466.54756,382.9],[-8.8914,0.00988],[3.67844,0.02077]],[[476.66092,381.03401],[-3.48853,1.07326],[4.93328,-1.51774]],[[490.72658,374.51588],[-4.12973,3.22967],[6.42465,-5.02442]],[[501.32044,355.47504],[-1.92282,7.59873],[4.00963,-15.84553]],[[493.13392,309.68167],[9.4198,13.39422],[-4.64557,-5.97094]],[[474.68288,294.27269],[7.68099,2.12526],[-7.72304,-2.13689]],[[453.90931,296.88741],[6.98296,-2.86013],[-9.86677,4.0413]]],&quot;closed&quot;:true}]}" fill="#ffffff" stroke="none" stroke-width="0.5" stroke-linecap="butt"/><path d="M223.05479,30.98582c2.59763,-0.00176 6.17181,-0.2892 8.65187,0.32422c4.77368,1.18071 9.04689,5.47466 12.62263,8.51387c6.51167,8.74305 8.55666,17.04799 8.56276,27.88297c0.00249,4.44449 0.02905,9.74554 -2.66061,13.61709c-4.95167,7.12752 -13.11821,12.47502 -21.35065,14.79071c-9.59812,3.34741 -23.94402,-1.15021 -31.51523,-7.22314c-6.68724,-5.36387 -9.12108,-16.70631 -9.12108,-24.62739c-0.02306,-10.04185 2.09789,-18.61438 7.90307,-26.43597c7.06178,-6.62397 17.78342,-6.8362 26.90727,-6.84232z" data-paper-data="{&quot;noHover&quot;:false,&quot;origItem&quot;:[&quot;Path&quot;,{&quot;applyMatrix&quot;:true,&quot;segments&quot;:[[[323.87003,310.33813],[9.25214,-8.67854],[-7.60578,10.24762]],[[313.54756,344.9],[-0.03021,-13.15654],[0,10.37798]],[[325.46604,377.09362],[-8.76141,-7.02761],[9.91958,7.95659]],[[366.66296,386.53338],[-12.57517,4.38567],[10.7859,-3.03395]],[[394.57462,367.20159],[-6.48754,9.33825],[3.52392,-5.07237]],[[398.04756,349.4],[0.00327,5.82304],[-0.00798,-14.19568]],[[386.8583,312.95113],[8.53141,11.45487],[-4.68483,-3.98189]],[[370.3583,301.81975],[6.25434,1.54691],[-3.24931,-0.80367]],[[359.04756,301.4],[3.40335,-0.00229],[-11.9538,0.00803]]],&quot;closed&quot;:true}]}" fill="#ffffff" stroke="none" stroke-width="0.5" stroke-linecap="butt"/><path d="M243.84406,65.74717c0,-2.95076 2.39205,-5.34281 5.34281,-5.34281c2.95076,0 5.34282,2.39205 5.34282,5.34282c0,2.95076 -2.39206,5.34281 -5.34282,5.34281c-2.95076,0 -5.34281,-2.39205 -5.34281,-5.34281z" fill="#000000" stroke="none" stroke-width="0.5" stroke-linecap="butt"/><path d="M324.7863,62.36464c0,-2.95076 2.39205,-5.34281 5.34281,-5.34281c2.95076,0 5.34281,2.39206 5.34281,5.34282c0,2.95076 -2.39205,5.34281 -5.34281,5.34281c-2.95076,0 -5.34281,-2.39205 -5.34281,-5.34281z" fill="#000000" stroke="none" stroke-width="0.5" stroke-linecap="butt"/><path d="M124.66494,-39.00528c1.37387,-1.83183 3.2057,-0.45796 3.2057,-0.45796l1.69077,1.28045c1.50201,1.41808 3.6182,2.00247 5.4966,2.86193c5.44099,2.48953 10.68068,5.22896 16.1729,7.65322c11.16755,4.92936 22.20109,10.50766 33.07251,16.05697c23.35021,11.92003 46.41692,24.01485 69.25373,36.86057c0,0 1.99571,1.1226 0.87313,3.1183c-1.12259,1.99573 -3.1183,0.87312 -3.1183,0.87312c-22.78318,-12.81554 -45.79514,-24.88102 -69.09073,-36.77317c-10.79451,-5.51092 -21.75077,-11.0516 -32.83959,-15.94621c-7.33868,-3.23931 -16.88814,-6.01647 -22.89645,-11.31224l-1.36226,-1.00932c0,0 -1.83183,-1.37387 -0.45795,-3.20568z" fill="#000000" stroke="none" stroke-width="0.5" stroke-linecap="butt"/><path d="M373.55102,-32.16771c1.02401,2.04804 -1.02401,3.07205 -1.02401,3.07205l-3.46042,1.73022c-10.2512,5.1256 -20.39745,10.36273 -30.47974,15.81262c-14.48515,7.82981 -28.95806,15.62818 -43.64724,23.06887c-8.93012,4.5235 -17.76313,9.76447 -27.27906,12.94066c0,0 -2.17227,0.72409 -2.89636,-1.44818c-0.72408,-2.17227 1.44818,-2.89636 1.44818,-2.89636c9.2968,-3.09459 17.93574,-8.26331 26.65783,-12.68145c14.65283,-7.4223 29.08962,-15.20177 43.53897,-23.0122c10.12503,-5.473 20.31471,-10.73272 30.60935,-15.88005l3.46042,-1.73022c0,0 2.04804,-1.02401 3.07205,1.02401z" fill="#000000" stroke="none" stroke-width="0.5" stroke-linecap="butt"/><path d="M321.79908,53.3862c-2.57826,0.3885 -5.08264,0.9433 -7.63146,1.45307c-8.48207,2.38465 -17.39922,3.75215 -26.26231,4.70089c-6.46454,0.69057 -12.51417,3.21326 -18.77394,4.77383c0.76296,5.6013 2.11801,11.31801 3.74446,16.2654c0.73415,2.23316 4.31115,4.65072 5.85157,5.98573c2.56124,2.21969 4.13692,2.19595 7.30512,3.02978c6.45668,1.69934 12.28045,3.68021 19.06689,3.67267c2.80761,0.01587 5.05646,-0.60505 7.71911,-1.42422c3.76538,-1.15843 7.58369,-2.50994 10.73575,-4.97503c4.90366,-3.83493 6.61825,-8.73331 8.08586,-14.5331c1.73252,-6.84667 1.80511,-13.86655 0.23753,-20.52407c-3.26829,0.90104 -6.73654,1.07147 -10.0786,1.57507zM264.6908,64.54336c-0.02497,-0.14988 -0.01023,-0.27139 0.02749,-0.36968c-0.50451,-2.9854 -0.83107,-5.99886 -0.83487,-9.06907c0,-6.09642 2.01456,-9.91789 4.30014,-15.00224l0.00001,-0.00002c-1.39747,-1.77746 0.3755,-3.19584 0.3755,-3.19584c0.6061,-0.48405 1.21846,-0.95363 1.8367,-1.40978c0.22832,-0.32454 0.69428,-0.84934 1.39782,-1.00212c6.79508,-4.73373 14.25265,-7.98687 21.92714,-11.11619c6.30732,-2.57186 12.00511,-4.06492 18.90797,-2.14168c6.84797,1.90794 12.28505,8.07317 16.44744,13.4265c10.63928,15.26214 13.56231,42.98392 -2.74213,55.84446c-3.55644,2.80524 -7.89951,4.39891 -12.16203,5.71062c-3.09837,0.95344 -5.81218,1.61355 -9.07259,1.6288c-11.71224,-0.01195 -26.97472,-3.10906 -34.59093,-12.6686c-1.63319,-2.04991 -2.12714,-4.82212 -2.73715,-7.37112c-1.03129,-4.30954 -2.1553,-8.58549 -2.92829,-12.91578c-0.07056,-0.08138 -0.1265,-0.1937 -0.15227,-0.34826z" fill="#000000" stroke="none" stroke-width="0.5" stroke-linecap="butt"/><path d="M249.05622,56.80235c-3.01867,-0.94981 -6.58358,-1.73518 -9.41992,-3.10647c-1.02075,-0.49351 -2.71804,-1.21301 -3.60341,-1.90866c-0.61067,-0.47981 -1.05383,-1.2993 -1.81292,-1.46344c-1.11483,-0.24107 -2.4811,-0.39453 -3.63096,-0.40483c-8.97017,0.00011 -17.76911,-1.09756 -26.74859,-1.09756c-3.89858,-0.00058 -7.77554,-0.99666 -11.50854,-0.20082c-0.94652,0.20179 -1.2618,-0.05029 -1.79902,0.12991c-1.5793,4.79304 -2.22495,9.91616 -2.21211,15.51324c0,7.92109 2.40967,19.2082 9.09689,24.57208c7.5712,6.07294 21.84581,10.55239 31.44393,7.20499c8.23243,-2.31569 16.35215,-7.62766 21.30383,-14.75518c2.68966,-3.87152 2.65324,-9.14275 2.65076,-13.58724c-0.00196,-3.48217 -0.21219,-6.69652 -0.71277,-9.74575c-0.98822,-0.29105 -1.88136,-0.78343 -3.04718,-1.15025zM197.79674,31.12391c7.48834,-4.22085 16.70344,-4.64701 25.25233,-4.64153c2.89502,0.00186 6.91343,-0.25556 9.68519,0.44289c5.71452,1.43997 10.60817,6.13045 14.88355,9.8221c7.29897,9.67564 9.78445,18.8956 9.77791,30.95103c-0.00297,5.46571 -0.22458,11.44266 -3.45532,16.17989c-5.4502,7.99162 -14.59211,13.9179 -23.72846,16.53845c-11.11455,3.57413 -26.94311,-0.77609 -35.72288,-8.0602c-7.7014,-6.38944 -10.74784,-18.74758 -10.74784,-28.09281c0.02155,-10.60263 2.22728,-19.80865 8.11206,-28.18074c0.21045,-0.55332 0.57284,-0.9157 0.57284,-0.9157c0.10666,-0.10562 0.21396,-0.20995 0.3219,-0.31303c0.46145,-0.61217 0.94336,-1.21992 1.4463,-1.82352l1.28484,-1.29811c0,0 1.05737,-1.05736 2.3176,-0.60869z" fill="#000000" stroke="none" stroke-width="0.5" stroke-linecap="butt"/><path d="M229.25315,157.27843c-0.98639,0.1644 -1.15079,-0.82199 -1.15079,-0.82199l-0.18568,-1.12585c-3.09842,-10.35511 -4.19071,-20.24316 -3.37784,-31.03189c0.96195,-4.3601 1.84401,-9.28745 4.07943,-13.21179c1.18971,-2.08857 3.12285,-3.02816 4.67733,-4.72413c4.08053,-4.4519 7.58885,-7.57678 13.47841,-9.4628c5.17425,-2.25134 10.21858,-1.7961 15.75303,-1.31453c8.5156,0.74098 17.33536,2.1698 24.91585,6.40241c7.64564,4.42628 16.83253,8.10268 22.7181,14.8845c2.37435,2.73592 4.13148,6.3266 5.99519,9.42178c4.34173,7.21058 7.86536,15.11989 10.53274,23.11757c0.99015,2.96878 2.86099,6.00791 1.84599,9.01173c0,0 -0.35112,0.93633 -1.28745,0.58521c-0.93633,-0.35112 -0.58521,-1.28745 -0.58521,-1.28745c0.90888,-2.0937 -1.14684,-5.50423 -1.8707,-7.67703c-2.61833,-7.85944 -6.08251,-15.63315 -10.34875,-22.71835c-1.80374,-2.99558 -3.5031,-6.51136 -5.80384,-9.15599c-5.72403,-6.57961 -14.75798,-10.14359 -22.185,-14.44358c-7.32289,-4.09692 -15.87554,-5.432 -24.10037,-6.14834c-5.24337,-0.45667 -9.98423,-0.92894 -14.87457,1.19368c-5.64111,1.81415 -8.76195,4.69471 -12.70658,8.93986c-1.45049,1.561 -3.34591,2.465 -4.42197,4.37517c-2.09531,3.7195 -2.91047,8.38455 -3.83301,12.50363c-0.76781,10.55998 0.33893,20.15247 3.34773,30.28949l0.20994,1.24788c0,0 0.1644,0.98639 -0.82199,1.15079z" fill="#000000" stroke="none" stroke-width="0.5" stroke-linecap="butt"/></g><path d="M340.9356,233.91739l-79.06023,-35.67352l-73.75741,62.18762l71.34704,72.31119l79.5423,-42.42256l2.41037,57.84895l31.81692,36.63767l24.5858,-27.47825l-1.44622,-75.20363l358.18141,48.52884l69.09736,-89.66587l-85.3272,-101.23566l-339.86258,77.13193l-1.44622,-67.97252l-22.65751,-37.11974l-33.74522,30.85277z" fill="#83c1de" stroke="#000000" stroke-width="1.5" stroke-linecap="round"/></g></g></svg>