<svg version="1.1" xmlns="http://www.w3.org/2000/svg" xmlns:xlink="http://www.w3.org/1999/xlink" width="2878.25006" height="1619.57958" viewBox="0,0,2878.25006,1619.57958"><g transform="translate(1119.12503,629.78979)"><g data-paper-data="{&quot;isPaintingLayer&quot;:true}" stroke-linejoin="miter" stroke-miterlimit="10" stroke-dasharray="" stroke-dashoffset="0" style="mix-blend-mode: normal"><path d="M-1119.12503,989.78979v-1619.57958h2878.25006v1619.57958z" fill="none" fill-rule="nonzero" stroke="#000000" stroke-width="0" stroke-linecap="butt"/><path d="M397.23809,391.78127l-17.64854,-33.85832l83.83064,0.29963l30.00253,33.55868z" data-paper-data="{&quot;index&quot;:null}" fill="#00dfff" fill-rule="nonzero" stroke="#000000" stroke-width="1" stroke-linecap="round"/><path d="M501.3966,390.02174c-2.26884,0.37113 -4.49932,0.5835 -6.70754,0.7366c0.01492,0.057 0.02267,0.11649 0.02267,0.17852c0,1.51116 -4.61912,1.51116 -4.61912,1.51116c-20.40114,0 -40.80225,0 -61.20337,0c-5.2498,0 -18.31268,-0.68559 -22.18464,0.21826c-2.23032,0.52062 -3.82704,0.4691 -6.68491,0.53732c-0.32259,0.0077 -0.90929,0.02419 -1.42768,0.03432c2.76347,0.64542 1.42768,6.60995 1.42768,8.27711c0,7.05212 0,14.10424 0,21.15636c0,1.25928 0,2.51864 0,3.77792c0,0.50372 -0.81239,1.93906 0,1.51115c3.09089,-1.62794 9.12293,-0.75265 16.16693,-0.75558c13.88522,-0.00574 28.75088,-0.49152 42.38833,0.3257c24.90291,1.62942 51.6775,-0.97389 76.38169,0.84152c20.80656,1.70174 45.71308,1.85509 67.14963,1.85509c5.38903,0 10.77796,0 16.16697,0c0.81083,0 2.08391,-0.03571 3.40203,-0.07488c-1.32592,-0.77522 0.06233,-2.64987 0.06233,-3.70304c0,-3.93439 4.03123,-10.72119 -0.91769,-14.25601c-4.3734,-4.29232 -7.13991,-8.42498 -14.27383,-12.7057c-5.26365,-3.1585 -13.45759,-5.95822 -17.81269,-9.09567c-2.11139,-1.8699 -4.00153,-0.5335 -10.87732,-0.96625c-15.21441,-0.95758 -30.47372,-0.75558 -46.19122,-0.75558c-5.72915,0 -12.92447,0.38054 -18.47654,0c-1.17198,-0.08033 -3.37459,-0.37894 -5.02554,-0.6235c3.01968,0.76324 -3.87076,1.50154 -6.76613,1.97515zM428.88905,389.42567c15.41854,0 30.83711,0 46.25562,0c0.44479,-0.07274 0.88948,-0.1455 1.33423,-0.21827c5.85855,-0.95833 11.14783,-0.70436 16.16697,-1.13338c6.84008,-0.58465 10.93148,-2.55365 17.98886,-3.02233c4.05417,-0.26923 15.28294,0.59606 21.02986,0.59606c15.58303,0 31.14893,-0.29152 46.19122,0.75559c8.45015,0.58822 15.59153,-0.55852 19.54325,2.94131c0.58257,1.32947 5.2452,2.16042 7.68391,3.18313c3.72691,1.56295 6.84196,3.87768 9.72589,5.60816c7.14923,4.2899 10.29273,8.70227 14.77516,13.10159c4.00576,4.63724 1.3918,10.38763 1.3918,15.21177c0,2.66707 1.28484,4.54684 -4.61911,6.80027c-2.05882,0.7858 -21.07881,0 -24.2504,0c-22.11081,0 -47.94575,-0.19143 -69.39026,-1.94534c-23.55872,-2.25283 -51.60188,0.78333 -75.95288,-0.80996c-19.62302,-1.44601 -49.91187,2.40604 -65.98167,-2.53377c-1.59098,-0.48908 0,-4.48381 0,-5.28909c0,-7.05212 0,-14.10423 0,-21.15635c0,-2.35778 -3.17691,-7.98712 1.64249,-9.74286c8.41022,-3.06394 24.15002,-2.34651 36.46519,-2.34651z" data-paper-data="{&quot;index&quot;:null}" fill="#000000" fill-rule="nonzero" stroke="none" stroke-width="1" stroke-linecap="butt"/><path d="M494.62466,390.68573c2.20812,-0.1531 4.46556,-0.36747 6.73449,-0.73861c2.89538,-0.47361 9.81319,-1.21283 6.79343,-1.97606c1.65095,0.24455 3.87189,0.54314 5.04378,0.62349c5.55207,0.38054 12.81182,0.00377 18.54084,0.00377c15.71741,0 31.0758,-0.18083 46.29019,0.77676c6.87581,0.43276 8.78028,-0.8979 10.89163,0.97198c4.35518,3.13745 12.58367,5.95968 17.8474,9.11818c7.13394,4.28074 9.90992,8.44206 14.28332,12.73439c4.94903,3.53483 0.89607,10.34778 0.89607,14.28217c0,1.05317 -1.39689,2.93318 -0.07093,3.7084c-1.31805,0.03917 -2.59288,0.07586 -3.40377,0.07586c-5.389,0 -10.78739,0.00473 -16.17638,0.00473c-21.43672,0 -46.44433,-0.12705 -67.25088,-1.82878c-24.70418,-1.8154 -51.72354,0.77326 -76.62647,-0.85616c-13.6374,-0.81724 -28.5451,-0.3487 -42.43032,-0.34295c-7.04393,0.00293 -13.0815,-0.87561 -16.17239,0.75234c-0.81239,0.42789 -0.00349,-1.00972 -0.00349,-1.51344c0,-1.25928 -0.00791,-2.52474 -0.00791,-3.78403c0,-7.05212 -0.00962,-14.14619 -0.00962,-21.19832c0,-1.66716 1.34982,-7.64615 -1.41367,-8.29157c0.51846,-0.01013 1.10565,-0.02699 1.42821,-0.03469c2.85776,-0.0682 4.45811,-0.0192 6.68837,-0.53983c3.87196,-0.90382 16.94673,-0.22528 22.1965,-0.22528c20.40124,0 40.91108,-0.03005 61.31218,-0.03005c0,0 4.64179,-0.00259 4.64179,-1.51374c0,-0.06203 -0.0072,-0.12153 -0.02216,-0.17856z" data-paper-data="{&quot;noHover&quot;:false,&quot;origItem&quot;:[&quot;Path&quot;,{&quot;applyMatrix&quot;:true,&quot;segments&quot;:[[[579.60736,595.76373],[0.95609,-0.20262],[0.00646,0.07548]],[[579.61718,596],[0,-0.08208],[0,2]],[[577.61718,598],[0,0],[-8.83333,0]],[[551.11718,598],[8.83333,0],[-2.27308,0]],[[541.51161,598.28885],[1.67648,-1.19621],[-0.96568,0.68904]],[[538.61718,599],[1.23739,-0.09027],[-0.13966,0.01019]],[[537.99901,599.04541],[0.22447,-0.0134],[1.19653,0.85421]],[[538.61718,610],[0,-2.20646],[0,9.33333]],[[538.61718,638],[0,-9.33333],[0,1.66667]],[[538.61718,643],[0,-1.66667],[0,0.66667]],[[538.61718,645],[-0.35177,0.56631],[1.33831,-2.15456]],[[545.61718,644],[-3.04994,0.00386],[6.01206,-0.00761]],[[563.97058,644.43107],[-5.90478,-1.08158],[10.78253,2.15651]],[[597.04254,645.54479],[-10.6965,-2.40266],[9.00888,2.25222]],[[626.11718,648],[-9.28168,0],[2.33333,0]],[[633.11718,648],[-2.33333,0],[0.35109,0]],[[634.59021,647.90091],[-0.5707,0.05184],[-0.57412,-1.02596]],[[634.61718,643],[0,1.39387],[0,-5.20707]],[[634.21982,624.13246],[2.14282,4.67827],[-1.8936,-5.6808]],[[628.03948,607.31672],[3.08887,5.66543],[-2.2791,-4.1802]],[[620.32688,595.27881],[1.8857,4.15235],[-0.91417,-2.47477]],[[615.61718,594],[2.9771,0.57275],[-6.58756,-1.26734]],[[595.61718,593],[6.8054,0],[-2.48058,0]],[[587.61718,593],[2.40395,0.50364],[-0.50743,-0.10631]],[[585.44122,592.1748],[0.71481,0.32365],[1.30749,1.01011]],[[582.51161,594.78885],[1.25365,-0.62682],[-0.98239,0.4912]]],&quot;closed&quot;:true}],&quot;index&quot;:null}" fill="#ac5dc2" fill-rule="nonzero" stroke="none" stroke-width="1" stroke-linecap="butt"/><path d="M559.37943,396.2259c0,-0.17525 -0.06398,-0.46869 -0.12512,-0.75696c-0.23791,0.11698 -0.59283,0.21673 -1.04921,0.30156c-1.36857,0.4554 -3.44483,0.4554 -3.44483,0.4554c-17.59429,0 -27.75643,4.01166 -33.97624,8.23167c-0.73172,0.47877 -0.66709,1.05564 -0.66709,1.59092c0,0.15229 -0.04452,0.39433 -0.09315,0.6447c0.04651,-0.0806 0.16265,-0.14684 0.39908,-0.18935c1.04476,-0.18786 10.12734,0.96177 11.24184,0.30026c0.33494,-0.1988 -1.64284,-0.23626 -1.53378,-0.46044c1.34158,-2.75616 15.56957,-6.92512 22.5637,-8.06922c1.81398,-0.29675 3.85604,-0.44606 5.88609,-0.51443c-0.79369,-0.4044 0.79872,-1.02335 0.79872,-1.53407zM519.99935,406.81827c-0.10474,0.53724 -0.19773,1.05079 0.11751,0.74139c0.2155,-0.21141 -0.0956,-0.50823 -0.11751,-0.74139zM512.52116,403.10595c6.60168,-4.07159 15.38177,-7.78403 29.06441,-9.24523c1.28529,-0.65711 3.93653,-0.65711 3.93653,-0.65711h2.30953c5.22957,0 7.99631,-0.59604 13.61357,-0.59604c7.80102,0 9.60933,5.0748 5.53002,6.56095c-2.5742,0.93779 -6.70324,1.24552 -10.14919,1.80919c-10.20002,1.6685 -13.98469,6.46311 -25.16133,8.84876c-11.84583,2.52844 -24.88714,-2.96242 -19.14355,-6.72049z" data-paper-data="{&quot;index&quot;:null}" fill="#000000" fill-rule="nonzero" stroke="none" stroke-width="1" stroke-linecap="butt"/><path d="M559.42587,395.4183c0.06132,0.28828 0.13595,0.58593 0.13595,0.76115c0,0.51069 -1.57346,1.13899 -0.77977,1.54341c-2.03008,0.06838 -4.08385,0.21153 -5.89791,0.50828c-6.99419,1.14407 -21.2908,5.29188 -22.63236,8.04805c-0.1092,0.2242 1.64924,0.39437 1.31427,0.59319c-1.11451,0.66151 -10.27579,-0.50799 -11.32056,-0.32014c-0.23654,0.04255 -0.35154,0.10917 -0.39798,0.1898c0.04865,-0.25038 0.08461,-0.49591 0.08461,-0.64819c0,-0.53526 -0.08478,-1.12264 0.64693,-1.60142c6.21978,-4.22002 16.74878,-8.32042 34.34303,-8.32042c0,0 2.08568,0.00325 3.45424,-0.45216c0.45643,-0.08483 0.81151,-0.18455 1.04932,-0.30153z" data-paper-data="{&quot;noHover&quot;:false,&quot;origItem&quot;:[&quot;Path&quot;,{&quot;applyMatrix&quot;:true,&quot;segments&quot;:[[[607.563,601.99816],[0.02649,0.38155],[-0.10299,0.15484]],[[607.10872,602.39727],[0.1976,-0.11227],[-0.59254,0.60273]],[[605.61718,603],[0,0],[-7.618,0]],[[590.90604,613.89443],[2.69308,-5.58508],[-0.31682,0.63364]],[[590.61718,616],[0,-0.70843],[0,0.20156]],[[590.57685,616.85325],[0.02106,-0.33136],[0.02013,-0.10671]],[[590.74964,616.60263],[-0.10238,0.05628],[0.45234,-0.24865]],[[595.61718,617],[-0.48256,0.87548],[0.14503,-0.26312]],[[594.95308,616.3906],[-0.04725,0.29671],[0.58086,-3.64773]],[[604.72276,605.71115],[-3.02833,1.51416],[0.78545,-0.39273]],[[607.27135,605.03032],[-0.87898,0.0905],[-0.34365,-0.53523]],[[607.61718,603],[0,0.6759],[0,-0.23192]]],&quot;closed&quot;:true}],&quot;index&quot;:null}" fill="#ffffff" fill-rule="nonzero" stroke="none" stroke-width="1" stroke-linecap="butt"/><path d="M137.98952,387.88664l29.20947,-32.67163l81.61475,-0.29171l-17.18204,32.96334z" data-paper-data="{&quot;index&quot;:null}" fill="#00dfff" fill-rule="nonzero" stroke="#000000" stroke-width="1" stroke-linecap="round"/><path d="M130.22638,386.17358c-2.81884,-0.4611 -9.52714,-1.17989 -6.58728,-1.92295c-1.60731,0.23809 -3.7517,0.52883 -4.8927,0.60703c-5.40531,0.37049 -12.41044,0 -17.98815,0c-15.30204,0 -30.15799,-0.19666 -44.97024,0.73561c-6.69405,0.42131 -8.53423,-0.87977 -10.5898,0.94071c-4.23998,3.05451 -12.21733,5.78023 -17.34185,8.85524c-6.94535,4.16757 -9.63874,8.19098 -13.89653,12.36984c-4.81811,3.44139 -0.89344,10.04879 -0.89344,13.87919c0,1.02533 1.35156,2.85043 0.06069,3.60516c1.28327,0.03814 2.52271,0.07291 3.3121,0.07291c5.24656,0 10.49304,0 15.73962,0c20.86992,0 45.11808,-0.1493 65.37466,-1.80605c24.05118,-1.76743 50.11804,0.76707 74.3627,-0.81927c13.27697,-0.79562 27.74969,-0.32268 41.26788,-0.31709c6.85781,0.00285 12.7304,-0.84929 15.73959,0.73561c0.79092,0.4166 0,-0.98081 0,-1.47121c0,-1.226 0,-2.45206 0,-3.67806c0,-6.86571 0,-13.73142 0,-20.59713c0,-1.62309 -1.30048,-7.42995 1.38994,-8.05831c-0.50469,-0.00986 -1.07588,-0.02592 -1.38994,-0.03341c-2.78233,-0.06641 -4.33684,-0.01626 -6.50821,-0.52312c-3.76961,-0.87997 -16.48721,-0.21249 -21.59824,-0.21249c-19.86185,0 -39.7237,0 -59.58558,0c0,0 -4.49702,0 -4.49702,-1.47122c0,-0.06039 0.00755,-0.1183 0.02208,-0.1738c-2.14985,-0.14906 -4.32138,-0.35582 -6.53024,-0.71714zM200.81726,385.59332c11.98964,0 27.31339,-0.69847 35.50131,2.28449c4.69201,1.70934 1.59907,7.18987 1.59907,9.48532c0,6.86571 0,13.73142 0,20.59713c0,0.78398 1.54892,4.67313 0,5.14928c-15.64503,4.80923 -45.13325,1.05901 -64.23757,2.4668c-23.70732,1.55117 -51.00923,-1.40474 -73.94522,0.78854c-20.87767,1.70756 -46.0297,1.89393 -67.55606,1.89393c-3.08775,0 -21.60498,0.76504 -23.60939,0c-5.74789,-2.19387 -4.49701,-4.02395 -4.49701,-6.62052c0,-4.69661 -2.54486,-10.29501 1.35502,-14.80968c4.36395,-4.28303 7.42435,-8.57876 14.3846,-12.75527c2.80769,-1.68474 5.8404,-3.93829 9.4688,-5.45992c2.37425,-0.99568 6.91363,-1.80465 7.4808,-3.09898c3.84726,-3.40732 10.79988,-2.29089 19.02666,-2.86356c14.64468,-1.01943 29.79912,-0.73561 44.97025,-0.73561c5.59501,0 16.52696,-0.84242 20.47398,-0.58031c6.87083,0.4563 10.85408,2.37325 17.51336,2.94245c4.88647,0.41768 10.03594,0.17041 15.73963,1.10341c0.433,0.07084 0.86593,0.14167 1.29897,0.21249c15.01095,0 30.02196,0 45.03294,0z" data-paper-data="{&quot;index&quot;:null}" fill="#000000" fill-rule="nonzero" stroke="none" stroke-width="1" stroke-linecap="butt"/><path d="M136.81914,386.82006c-0.01456,0.05553 -0.02158,0.11344 -0.02158,0.17384c0,1.4712 4.51909,1.47373 4.51909,1.47373c19.86184,0 39.82954,0.02925 59.69152,0.02925c5.111,0 17.84017,-0.66062 21.60978,0.21932c2.1713,0.50687 3.72934,0.45916 6.51157,0.52556c0.31403,0.0075 0.88571,0.02391 1.39046,0.03378c-2.69044,0.62836 -1.3763,6.4493 -1.3763,8.0724c0,6.86572 -0.00937,13.77227 -0.00937,20.63798c0,1.226 -0.00771,2.45801 -0.00771,3.68401c0,0.49041 0.78753,1.89002 -0.00339,1.47344c-3.0092,-1.5849 -8.88717,-0.7296 -15.74491,-0.73245c-13.51819,-0.0056 -28.03184,-0.46175 -41.30876,0.33388c-24.24467,1.58634 -50.54983,-0.93388 -74.601,0.83353c-20.25657,1.65675 -44.60315,1.78046 -65.47323,1.78046c-5.24654,0 -10.50225,-0.00462 -15.74879,-0.00462c-0.78946,0 -2.03059,-0.03572 -3.31379,-0.07385c1.29091,-0.75473 -0.06906,-2.58505 -0.06906,-3.61038c0,-3.8304 -3.94583,-10.46326 0.87238,-13.90465c4.25779,-4.17887 6.96041,-8.2302 13.90577,-12.39778c5.12459,-3.075 13.13558,-5.82265 17.37564,-8.87716c2.05553,-1.82046 3.90968,-0.52497 10.60374,-0.94629c14.81223,-0.93228 29.76464,-0.75623 45.0666,-0.75623c5.5776,0 12.64544,0.36682 18.05075,-0.00367c1.14092,-0.07822 3.30315,-0.36892 4.91046,-0.607c-2.93994,0.74306 3.79502,1.46273 6.61387,1.92382c2.20896,0.36133 4.40671,0.57002 6.55647,0.71908z" data-paper-data="{&quot;noHover&quot;:false,&quot;origItem&quot;:[&quot;Path&quot;,{&quot;applyMatrix&quot;:true,&quot;segments&quot;:[[[579.60736,595.76373],[0.95609,-0.20262],[0.00646,0.07548]],[[579.61718,596],[0,-0.08208],[0,2]],[[577.61718,598],[0,0],[-8.83333,0]],[[551.11718,598],[8.83333,0],[-2.27308,0]],[[541.51161,598.28885],[1.67648,-1.19621],[-0.96568,0.68904]],[[538.61718,599],[1.23739,-0.09027],[-0.13966,0.01019]],[[537.99901,599.04541],[0.22447,-0.0134],[1.19653,0.85421]],[[538.61718,610],[0,-2.20646],[0,9.33333]],[[538.61718,638],[0,-9.33333],[0,1.66667]],[[538.61718,643],[0,-1.66667],[0,0.66667]],[[538.61718,645],[-0.35177,0.56631],[1.33831,-2.15456]],[[545.61718,644],[-3.04994,0.00386],[6.01206,-0.00761]],[[563.97058,644.43107],[-5.90478,-1.08158],[10.78253,2.15651]],[[597.04254,645.54479],[-10.6965,-2.40266],[9.00888,2.25222]],[[626.11718,648],[-9.28168,0],[2.33333,0]],[[633.11718,648],[-2.33333,0],[0.35109,0]],[[634.59021,647.90091],[-0.5707,0.05184],[-0.57412,-1.02596]],[[634.61718,643],[0,1.39387],[0,-5.20707]],[[634.21982,624.13246],[2.14282,4.67827],[-1.8936,-5.6808]],[[628.03948,607.31672],[3.08887,5.66543],[-2.2791,-4.1802]],[[620.32688,595.27881],[1.8857,4.15235],[-0.91417,-2.47477]],[[615.61718,594],[2.9771,0.57275],[-6.58756,-1.26734]],[[595.61718,593],[6.8054,0],[-2.48058,0]],[[587.61718,593],[2.40395,0.50364],[-0.50743,-0.10631]],[[585.44122,592.1748],[0.71481,0.32365],[1.30749,1.01011]],[[582.51161,594.78885],[1.25365,-0.62682],[-0.98239,0.4912]]],&quot;closed&quot;:true}],&quot;index&quot;:null}" fill="#ac5dc2" fill-rule="nonzero" stroke="none" stroke-width="1" stroke-linecap="butt"/><path d="M73.77625,392.21382c0,0.49723 1.55033,1.09982 0.77761,1.49353c1.97639,0.06657 3.96448,0.21192 5.73051,0.50083c6.80925,1.11386 20.66116,5.17262 21.96728,7.85593c0.10617,0.21826 -1.81933,0.25473 -1.49325,0.44828c1.08504,0.64402 9.92754,-0.47522 10.94468,-0.29233c0.23018,0.04139 0.34324,0.10588 0.38853,0.18435c-0.04735,-0.24376 -0.09069,-0.47938 -0.09069,-0.62765c0,-0.52114 0.06293,-1.08276 -0.64945,-1.54888c-6.0554,-4.10845 -15.94893,-8.01408 -33.07815,-8.01408c0,0 -2.02137,-0.00001 -3.35377,-0.44337c-0.44432,-0.08258 -0.78986,-0.1797 -1.02148,-0.29359c-0.05953,0.28066 -0.12181,0.56635 -0.12181,0.73696zM112.00099,403.24795c0.30691,0.30122 0.21637,-0.19876 0.11441,-0.72179c-0.02134,0.22699 -0.32422,0.51596 -0.11441,0.72179zM119.39593,398.91199c5.59177,3.65873 -7.10482,9.00446 -18.63753,6.54285c-10.88121,-2.32259 -14.56584,-6.99045 -24.49624,-8.61485c-3.35486,-0.54877 -7.37476,-0.84836 -9.88092,-1.76137c-3.97149,-1.44687 -2.21097,-6.38752 5.38384,-6.38752c5.46877,0 8.16238,0.58029 13.25372,0.58029h2.24848c0,0 2.58116,0 3.83248,0.63975c13.32097,1.42258 21.86897,5.03688 28.29615,9.00085z" data-paper-data="{&quot;index&quot;:null}" fill="#000000" fill-rule="nonzero" stroke="none" stroke-width="1" stroke-linecap="butt"/><path d="M73.73123,391.42754c0.23152,0.11388 0.57722,0.21097 1.02158,0.29356c1.33239,0.44338 3.36294,0.44021 3.36294,0.44021c17.12919,0 27.37989,3.99201 33.43525,8.10048c0.71237,0.46612 0.62982,1.03797 0.62982,1.55909c0,0.14825 0.03502,0.3873 0.08238,0.63106c-0.04521,-0.0785 -0.15717,-0.14335 -0.38746,-0.18478c-1.01715,-0.18288 -9.93627,0.9557 -11.02132,0.31168c-0.32611,-0.19356 1.38585,-0.35923 1.27953,-0.57751c-1.30611,-2.68333 -15.22481,-6.72148 -22.03413,-7.83531c-1.76611,-0.2889 -3.7656,-0.42827 -5.74201,-0.49484c0.77271,-0.39373 -0.75916,-1.00543 -0.75916,-1.50262c0,-0.17059 0.07267,-0.46037 0.13236,-0.74104z" data-paper-data="{&quot;noHover&quot;:false,&quot;origItem&quot;:[&quot;Path&quot;,{&quot;applyMatrix&quot;:true,&quot;segments&quot;:[[[607.563,601.99816],[0.02649,0.38155],[-0.10299,0.15484]],[[607.10872,602.39727],[0.1976,-0.11227],[-0.59254,0.60273]],[[605.61718,603],[0,0],[-7.618,0]],[[590.90604,613.89443],[2.69308,-5.58508],[-0.31682,0.63364]],[[590.61718,616],[0,-0.70843],[0,0.20156]],[[590.57685,616.85325],[0.02106,-0.33136],[0.02013,-0.10671]],[[590.74964,616.60263],[-0.10238,0.05628],[0.45234,-0.24865]],[[595.61718,617],[-0.48256,0.87548],[0.14503,-0.26312]],[[594.95308,616.3906],[-0.04725,0.29671],[0.58086,-3.64773]],[[604.72276,605.71115],[-3.02833,1.51416],[0.78545,-0.39273]],[[607.27135,605.03032],[-0.87898,0.0905],[-0.34365,-0.53523]],[[607.61718,603],[0,0.6759],[0,-0.23192]]],&quot;closed&quot;:true}],&quot;index&quot;:null}" fill="#ffffff" fill-rule="nonzero" stroke="none" stroke-width="1" stroke-linecap="butt"/><path d="M384.66503,299.19008l-6.05156,-0.64961z" data-paper-data="{&quot;index&quot;:null}" fill="#9c8128" fill-rule="evenodd" stroke="none" stroke-width="1" stroke-linecap="butt"/><path d="M277.97788,258.29407l15.76093,0.25029l-0.04074,1.35036l0.03395,-1.1253z" data-paper-data="{&quot;index&quot;:null}" fill="#e7883d" fill-rule="evenodd" stroke="none" stroke-width="1" stroke-linecap="butt"/><path d="M604.45497,255.93563l-3.75457,124.43436l-570.71598,2.79631l3.35986,-164.00287l-4.34009,-14.11078l9.18758,-157.07541l60.92008,13.2762l0.44058,-14.60197l-2.29867,2.47242l-9.48473,-1.55708l0.59518,-9.19602l116.6248,-95.44072l96.47949,140.48542l0.43373,6.68527l-10.45619,-0.95093l-0.60476,9.51346l59.01274,10.67686l0.41322,-3.16476l58.69804,13.20916l-0.38446,2.21245l45.7407,10.91185l2.85554,-10.3987l5.07349,-4.93051l71.44611,-77.59288l50.80179,95.89678l-1.29574,21.88382l9.783,2.20154l-1.60843,95.42742z" fill="#d1c9b3" fill-rule="nonzero" stroke="#000000" stroke-width="0" stroke-linecap="round"/><path d="M577.17069,244.08272l46.50963,6.48692l-4.32778,6.5416l-44.37378,-3.56297z" fill="#5d5b3e" fill-rule="nonzero" stroke="#000000" stroke-width="0" stroke-linecap="round"/><path d="M481.2633,250.48231l-140.25956,-16.30555l-29.60627,12.45108l-4.56996,-6.49237l19.99703,-9.88151l-13.13112,-7.06839l-0.28047,-11.76425l24.34326,14.55549l148.24333,14.95784z" fill="#5d5b3e" fill-rule="nonzero" stroke="#000000" stroke-width="0" stroke-linecap="round"/><path d="M601.16305,380.83267l-570.55009,2.56302l2.13443,-165.50993l274.20536,23.36549l5.87801,5.26095l27.71124,-12.82598l113.34468,13.26941l-4.37437,92.32558l125.79303,3.47783l2.07571,-89.85316l28.82908,2.77621z" fill="#805648" fill-rule="nonzero" stroke="#000000" stroke-width="0" stroke-linecap="round"/><path d="M575.26819,343.9897l-125.7041,-3.79288l2.26177,-64.42965l125.14723,11.71917z" fill="#38ff00" fill-rule="nonzero" stroke="#000000" stroke-width="0" stroke-linecap="round"/><path d="M584.57601,135.54454l-50.21035,-97.07036l-76.90442,82.11461l-3.24003,12.61117l-46.0198,-12.19116l0.05747,-1.90461l-58.0823,-12.55512l-0.39407,2.52989l-58.53658,-10.66249l-0.97283,-9.87879l10.09086,2.52854l1.16302,-6.95482l-97.13114,-139.94906l-116.13525,95.01087l-0.24903,8.2533l10.14832,0.62394l0.84831,14.00543l-83.31427,-18.71775l-1.88682,-11.17727l50.20393,10.41107l142.03156,-116.13171l107.21497,153.24086l-4.51934,12.89031l131.11555,27.15l15.87037,-10.00603l0.37491,-1.89503l78.47207,-84.05307l65.45508,120.96249l-7.42552,3.90635l25.61643,3.95016l-6.33775,9.97592l-29.09864,-4.37296z" fill="#5d5b3e" fill-rule="nonzero" stroke="#000000" stroke-width="0" stroke-linecap="round"/><path d="M497.00609,215.7487l2.32058,-55.84933l53.73402,9.24668l-3.84073,53.57941z" fill="#ffb800" fill-rule="nonzero" stroke="#000000" stroke-width="0" stroke-linecap="round"/><path d="M123.62567,164.92609l2.81865,-72.35594l138.68333,26.42516l-4.45267,63.33095z" fill="#ff0000" fill-rule="nonzero" stroke="#000000" stroke-width="0" stroke-linecap="round"/><path d="M72.25141,382.84356l2.95823,-108.57221l214.34635,14.41058l-3.74907,92.66218z" fill="#d1c9b3" fill-rule="nonzero" stroke="#000000" stroke-width="0" stroke-linecap="round"/><path d="M288.27667,288.96104l-213.38447,-14.69929l-2.94865,108.25479l-7.31058,0.09715l1.61051,-116.55597l231.72864,17.47685l-6.4897,99.25168l-5.73299,0.46246z" fill="#9c9163" fill-rule="nonzero" stroke="#000000" stroke-width="0" stroke-linecap="round"/><path d="M284.42642,306.00193l-205.50608,-12.55523l1.03713,-13.3131l203.26488,13.12305z" fill="#000bff" fill-rule="nonzero" stroke="#000000" stroke-width="0" stroke-linecap="round"/><path d="M337.16021,353.66299l2.7311,-79.98394l31.70515,2.22755l-4.03914,81.21538z" fill="#443424" fill-rule="nonzero" stroke="#000000" stroke-width="0" stroke-linecap="round"/><path d="M375.06631,329.38887l1.63783,-54.28131l11.72593,0.98925l-0.743,56.21465z" fill="#f800ff" fill-rule="nonzero" stroke="#000000" stroke-width="0" stroke-linecap="round"/><path d="M322.70873,327.17363l3.29206,-56.45548l11.70678,1.62414l-2.63803,55.83976z" fill="#f800ff" fill-rule="nonzero" stroke="#2e5677" stroke-width="0" stroke-linecap="round"/><path d="M391.15265,132.00073c12.38128,-3.71612 27.64598,3.83235 32.12901,16.16284c1.45872,5.98308 1.93481,13.77369 -2.47546,18.80791c-4.30127,4.9098 -13.55406,7.77499 -19.73521,8.94557c-2.33414,0.61215 -4.62063,0.6593 -6.75517,0.26199c-2.02663,-1.01959 -4.14928,-1.90484 -6.30236,-2.63565c-6.35807,-4.27671 -10.52743,-12.68796 -10.17329,-20.19315c-0.57215,-8.21846 4.42215,-17.84885 11.9396,-21.67194c0.53073,0.57581 1.37291,0.32238 1.37291,0.32238z" data-paper-data="{&quot;noHover&quot;:false,&quot;origItem&quot;:[&quot;Path&quot;,{&quot;applyMatrix&quot;:true,&quot;segments&quot;:[[[253.54843,150.98004],[0.30355,0.31003],[-4.09948,2.24296]],[[247.32407,163.1378],[-0.45421,-4.54206],[-0.07072,4.1625]],[[253.27212,174.10929],[-3.59275,-2.26232],[1.20465,0.36876]],[[256.79325,175.45788],[-1.13944,-0.53081],[1.18881,0.18436]],[[260.51555,175.1982],[-1.28248,0.37803],[3.40374,-0.7516]],[[271.25506,169.93765],[-2.30012,2.79106],[2.35841,-2.8618]],[[272.30615,159.52018],[0.90786,3.28922],[-2.68888,-6.75407]],[[254.31217,151.13668],[6.79501,-2.265],[0,0]]],&quot;closed&quot;:true}]}" fill="#ffffff" fill-rule="nonzero" stroke="#000000" stroke-width="2" stroke-linecap="butt"/><path d="M365.8279,137.23955c4.41321,7.32575 3.58801,16.46663 1.58498,24.4108c-1.07335,4.25693 -2.20621,8.15653 -5.7155,10.05158c-1.15115,0.32363 -2.33753,0.69269 -3.52482,1.09276c-0.03055,0.00415 -0.06147,0.00834 -0.09225,0.01233c-11.005,3.77143 -32.57629,2.48416 -34.16939,-12.60937c-0.97228,-7.15913 -1.26099,-17.39059 4.19219,-22.98488c2.97123,-3.04813 6.52803,-5.48737 9.56992,-8.36792c0.39466,-0.17624 0.79402,-0.3542 1.18868,-0.53043l0.79393,-0.08606c0,0 0.86564,-0.1466 1.0879,-0.89522c9.34692,-2.61406 19.24007,0.9602 25.08438,9.90644z" data-paper-data="{&quot;noHover&quot;:false,&quot;origItem&quot;:[&quot;Path&quot;,{&quot;applyMatrix&quot;:true,&quot;segments&quot;:[[[226.30704,149.3974],[5.13291,-1.60394],[-0.11059,0.41833]],[225.72209,149.9106],[[225.28541,149.97098],[0,0],[-0.21563,0.1042]],[[224.63853,150.28359],[0.21563,-0.1042],[-1.63654,1.64616]],[[219.49971,155.06038],[1.59462,-1.73779],[-2.92665,3.18941]],[[217.56618,167.81047],[-0.65811,-3.94868],[1.13454,8.33261]],[[236.63077,174.20075],[-6.03186,2.27263],[0.01698,-0.00271]],[[236.68151,174.19247],[-0.01685,0.00281],[0.65088,-0.24141]],[[238.60965,173.53224],[-0.63213,0.19847],[1.91188,-1.10819]],[[241.59286,167.88747],[-0.52331,2.37555],[0.97659,-4.43318]],[[240.3116,154.4457],[2.56658,3.98346],[-3.38625,-4.85703]]],&quot;closed&quot;:true}]}" fill="#ffffff" fill-rule="nonzero" stroke="#000000" stroke-width="2" stroke-linecap="butt"/><path d="M359.4521,151.33682c0.06764,-2.24168 1.93971,-4.0041 4.1814,-3.93646c2.24168,0.06764 4.0041,1.93971 3.93646,4.1814c-0.06764,2.24168 -1.93971,4.0041 -4.18141,3.93646c-2.24168,-0.06764 -4.0041,-1.93971 -3.93646,-4.1814z" fill="#000000" fill-rule="nonzero" stroke="none" stroke-width="0.5" stroke-linecap="butt"/><path d="M416.07347,153.95279c0.06764,-2.24168 1.93971,-4.0041 4.18141,-3.93646c2.24168,0.06764 4.0041,1.93971 3.93646,4.1814c-0.06764,2.24168 -1.93971,4.0041 -4.1814,3.93646c-2.24168,-0.06764 -4.0041,-1.93971 -3.93646,-4.1814z" fill="#000000" fill-rule="nonzero" stroke="none" stroke-width="0.5" stroke-linecap="butt"/><path d="M322.45899,54.46854c1.18039,0.03561 1.29989,1.06997 1.31117,1.33328c4.81104,12.0364 15.46711,23.19738 23.72229,33.06173c10.33429,12.37544 16.61506,27.31625 25.0573,40.84672c0,0 0.71654,1.1484 -0.43186,1.86491c-1.1484,0.71654 -1.86491,-0.43186 -1.86491,-0.43186c-8.3715,-13.4171 -14.57108,-28.28613 -24.83723,-40.54307c-8.51315,-10.18656 -19.36682,-21.63222 -24.26405,-34.05781l-0.08651,-0.76177c0,0 0.04082,-1.35298 1.3938,-1.31215z" fill="#000000" fill-rule="nonzero" stroke="none" stroke-width="0.5" stroke-linecap="butt"/><path d="M466.46458,63.4986c0.92783,0.98556 -0.05773,1.9134 -0.05773,1.9134l-1.21783,1.08236c-0.45211,0.2416 -0.90423,0.48318 -1.35632,0.72478c-5.92704,3.96317 -12.67158,6.77353 -18.49762,10.95483c-9.50101,6.8188 -17.24011,15.87216 -26.17067,23.3584c-8.76761,7.3467 -17.52273,14.00774 -27.17103,20.16524c-3.69671,2.35922 -7.14419,5.41602 -11.19023,7.09051c0,0 -1.25294,0.51218 -1.76514,-0.74074c-0.51218,-1.25294 0.74074,-1.76514 0.74074,-1.76514c3.87678,-1.562 7.22565,-4.61185 10.75811,-6.86662c9.55122,-6.0966 18.20888,-12.68508 26.8888,-19.95826c8.98757,-7.52789 16.77125,-16.62186 26.33092,-23.48274c5.88651,-4.2247 12.69982,-7.0648 18.6821,-11.07615c0.49064,-0.26346 0.98127,-0.52694 1.47192,-0.7904l0.64057,-0.66719c0,0 0.98557,-0.92783 1.9134,0.05774z" fill="#000000" fill-rule="nonzero" stroke="none" stroke-width="0.5" stroke-linecap="butt"/><path d="M319.34263,164.15506c0.68701,0.30086 0.38614,0.98787 0.38614,0.98787l-0.47313,1.08012c-1.14772,2.85854 -2.87293,5.9285 -4.79202,8.33674c-2.32513,2.90642 -5.33048,6.02326 -6.55947,9.61512c-1.9683,5.75254 -2.26155,12.5473 -3.01614,18.54995c1.07255,8.80764 5.83102,19.21514 13.43161,24.3652c8.15408,5.53566 19.53153,6.13884 29.08355,6.13884c10.02778,0 20.51621,0.62159 30.41751,-1.08748c9.93142,-1.71231 19.12588,-5.3645 26.17245,-12.80429c2.35068,-2.47439 4.61988,-5.11522 7.1159,-7.44299c4.75549,-4.43494 10.76711,-9.10467 12.40952,-15.76426c1.38417,-5.53565 1.6853,-10.90582 0.15788,-16.40491c-0.61678,-2.22054 -0.7422,-4.35461 -2.49475,-6.0727c0,0 -0.53033,-0.53033 0,-1.06066c0.53033,-0.53033 1.06066,0 1.06066,0c1.94405,1.97451 2.18062,4.23639 2.88716,6.76108c1.60401,5.73162 1.28585,11.37358 -0.15574,17.14099c-1.76709,6.98365 -7.83209,11.82553 -12.84168,16.49745c-2.4737,2.30695 -4.72175,4.92681 -7.05145,7.37913c-7.29611,7.65892 -16.74024,11.47955 -27.00509,13.24935c-9.98881,1.72029 -20.55642,1.10929 -30.67237,1.10929c-9.86192,0 -21.51221,-0.68578 -29.92607,-6.39781c-7.97305,-5.42252 -13.06547,-16.31604 -14.08909,-25.61109c0.73058,-6.15931 1.07871,-13.13231 3.0969,-19.0307c1.29007,-3.77034 4.36544,-7.01412 6.80739,-10.06656c1.83817,-2.28773 3.49307,-5.25153 4.57977,-7.97917l0.48266,-1.10236c0,0 0.30086,-0.687 0.98787,-0.38614z" fill="#000000" fill-rule="nonzero" stroke="none" stroke-width="0.5" stroke-linecap="butt"/><path d="M647.4845,83.79071l1.08038,15.12533l6.05013,305.38749l-38.31749,3.45722l-61.0775,-16.13368l-25.64103,-22.18381l-40.83838,-78.93979l3.74532,-36.87698l6.62633,-65.25497l21.3195,-40.3342l46.67243,-49.84155l37.45318,-12.38836z" fill="none" fill-rule="nonzero" stroke="#803d00" stroke-width="22.5" stroke-linecap="round"/><g fill-rule="nonzero" stroke="#000000" stroke-width="1" stroke-linecap="round"><path d="M387.61403,206.38304l65.68712,36.58888l-83.83751,47.82483l-50.12965,-1.15241l74.33016,-47.82483l-59.34889,-33.13166z" fill="#00ff2b"/><path d="M452.58634,243.26003l-17.86229,-10.37165h278.37799l-0.5762,-23.91242l63.38231,27.08153l-64.24661,40.9104l2.59291,-26.21723l-277.37508,0.8643z" fill="#ffa000"/></g></g></g></svg>