<svg version="1.1" xmlns="http://www.w3.org/2000/svg" xmlns:xlink="http://www.w3.org/1999/xlink" width="312.10191" height="268.70394" viewBox="0,0,312.10191,268.70394"><g transform="translate(-162.93711,-46.80021)"><g data-paper-data="{&quot;isPaintingLayer&quot;:true}" fill-rule="nonzero" stroke-linecap="butt" stroke-linejoin="miter" stroke-miterlimit="10" stroke-dasharray="" stroke-dashoffset="0" style="mix-blend-mode: normal"><path d="M185.27588,165.36624c1.34164,0.67082 0.67082,2.01246 0.67082,2.01246l-0.33772,0.67545c-1.53742,3.04349 -2.67956,6.29952 -4.06014,9.44532c-0.00328,0.11656 -0.00434,0.23429 -0.00305,0.35329c0,0 0,0.96731 -0.77679,1.34835c-0.78605,1.63488 -1.67075,3.22265 -2.74749,4.71573c-3.50196,4.85606 -8.1964,7.63158 -5.87731,14.30077c1.19,2.47278 2.80313,2.80903 4.75557,4.60955c3.33998,3.08009 5.87939,7.87312 8.01943,11.81421c2.33979,4.30896 2.7996,8.8307 4.16328,13.44287c0.91475,3.09383 2.48189,6.13522 3.3849,9.14523c0.7439,2.47964 0.70846,5.05658 1.82375,7.5461c1.18758,3.921 3.08969,7.15551 4.84792,10.80232c0.9449,1.95985 1.40987,4.33938 2.58112,6.20259c1.04237,1.65819 3.40529,3.36006 4.69315,4.77769c4.76198,5.2418 9.53805,10.95095 12.54688,17.41508c2.36047,1.72105 5.68178,4.0407 7.52681,6.10235c0.66018,0.73769 0.79377,1.84632 1.4362,2.59952c1.85594,2.17596 6.05349,3.3228 8.46673,4.80678c1.27437,0.78366 2.28745,2.04581 3.69876,2.54213c3.90021,1.37158 8.17141,1.32402 12.30805,2.52733c2.50719,0.73851 4.80591,1.74089 7.28293,2.53944c6.2892,2.02753 13.085,2.47567 19.45461,4.23502c3.43836,0.94971 6.75957,2.75479 10.3321,3.13896c1.72522,0.18552 3.46466,-0.20292 5.19423,-0.34213c4.91234,-0.39538 9.61809,-0.1113 14.49615,-1.13956c10.3393,-2.72266 20.86022,-3.47187 31.31453,-5.53914c6.23465,-1.23286 12.21978,-3.62735 18.55335,-4.45983c2.76644,-0.36362 5.71201,-0.23354 8.49955,-0.3436c7.39376,-0.97083 14.51279,-2.72073 21.83627,-4.03829c0.98033,-0.17637 3.86544,-0.31068 4.5332,-0.47406c2.77843,-0.67978 5.5335,-2.26051 8.22579,-3.23551c7.01337,-2.53986 13.58211,-4.62105 20.25238,-7.98519c3.24666,-1.63208 7.39249,-2.75278 10.0258,-5.39579c1.06334,-1.06726 2.00972,-3.88355 2.60201,-5.26741c3.25952,-7.61568 3.22833,-15.09974 4.54875,-23.12482c0.83642,-5.08349 3.72095,-9.11131 6.2226,-13.49041c3.61837,-4.51295 3.92341,-9.65288 5.5562,-14.97261c1.21616,-3.96233 3.82349,-8.93364 6.32153,-12.2848c0.91732,-1.2306 2.15367,-2.22805 2.93013,-3.55205c0.17931,-0.30575 0.34428,-0.61277 0.49774,-0.92042c-0.4102,-0.16566 -0.86923,-0.53641 -0.86923,-1.3662c0,-1.27783 1.08857,-1.46709 1.41103,-1.49513c0.45608,-0.63854 0.88576,-1.28429 1.3233,-1.92543c0.82107,-2.21551 1.82064,-4.27943 4.17019,-5.92497c0.37434,-2.03543 0.0605,-2.67761 0.1914,-4.94434c0.36448,-6.3117 0.66789,-12.53663 0.75979,-18.89441c1.56234,-18.56941 -7.56325,-37.69754 -22.95866,-48.16671c-3.86252,-5.84407 -7.18037,-11.97679 -8.60081,-18.86412c-0.77543,-3.75983 -0.63928,-7.51761 -2.4612,-10.86367c-0.24995,-0.45904 -1.0503,-2.51536 -1.78397,-2.93827c-6.3552,-3.66331 -15.31625,-4.05263 -22.35749,-5.74253c-10.0672,-2.42729 -19.34202,-7.47318 -29.04612,-10.86737c-8.77795,-3.07025 -19.67149,-1.92221 -28.84772,-2.03202c-4.4175,-0.69169 -9.54736,-1.67668 -14.02902,-1.19162c-6.2129,0.67242 -12.51052,3.83167 -18.65966,5.16327c-8.06836,1.7472 -16.2773,3.46492 -23.94733,6.6066c-3.4803,1.41884 -7.95927,1.49577 -11.15614,3.44105c-2.13561,1.29951 -4.27125,2.99248 -6.75568,3.88151c-2.0773,0.74334 -4.19009,0.92672 -6.25134,1.95832c-9.17111,4.58984 -18.06937,9.99764 -27.02178,15.03426c-3.42571,1.91865 -7.14909,2.59563 -10.63372,4.29271c-6.63518,3.23145 -13.02056,7.13945 -19.8259,10.08592c-6.64636,2.87764 -12.37563,4.93001 -17.90921,9.79023c-3.38458,2.95387 -6.59389,7.15039 -7.91486,11.53801c-1.80127,5.9829 -1.42108,12.98009 -2.68326,19.14438c-0.24049,1.17454 -0.45601,2.36673 -0.67758,3.55984c0.21709,-0.00165 0.46183,0.05159 0.73423,0.18779zM216.66099,286.17752c-0.05071,-0.11898 -0.1021,-0.2377 -0.15417,-0.35615l-0.54095,-0.52496c0,0 -0.66938,-0.66938 -0.41284,-1.47638c-2.87956,-5.61045 -7.1654,-10.62532 -11.36042,-15.24481c-1.42578,-1.57005 -3.79823,-3.30991 -4.95665,-5.11285c-1.28483,-1.9997 -1.80307,-4.5199 -2.82246,-6.63091c-1.78935,-3.70549 -3.72673,-7.0273 -4.93544,-11.01342c-1.11634,-2.5653 -1.14151,-5.25331 -1.90184,-7.78777c-0.889,-2.96334 -2.46495,-6.02951 -3.36958,-9.09185c-1.3051,-4.41799 -1.70035,-8.7803 -3.94209,-12.89959c-1.96153,-3.60439 -4.28571,-8.1727 -7.36793,-10.97841c-2.30172,-2.09523 -4.02985,-2.7828 -5.52407,-5.69476c-0.35181,-1.09029 -0.90436,-2.13523 -1.05542,-3.27086c-0.83842,-6.30273 4.10555,-9.52705 7.26967,-13.93072c1.20392,-1.67556 2.16222,-3.47486 3.01112,-5.32688c0.23641,-2.51513 1.2189,-4.56419 1.89638,-7.09129c0.76283,-2.84546 1.1941,-5.84308 1.78598,-8.7295c1.28306,-6.25714 0.91927,-13.29833 2.7423,-19.38254c1.48368,-4.95165 5.01533,-9.59527 8.81501,-12.95167c5.78424,-5.08038 11.7831,-7.29257 18.72127,-10.29963c6.75647,-2.92832 13.08634,-6.83082 19.68389,-10.02152c3.44061,-1.66394 7.11257,-2.30947 10.47263,-4.20842c9.00666,-5.06537 17.95841,-10.51021 27.18814,-15.1211c2.15331,-1.07573 4.4186,-1.32333 6.58216,-2.09437c2.25708,-0.80436 4.133,-2.4098 6.07782,-3.54841c3.51298,-2.0567 7.92476,-2.17054 11.67049,-3.71267c7.83229,-3.20815 16.21051,-4.97834 24.44952,-6.7625c6.26667,-1.35705 12.62965,-4.52449 18.97106,-5.21373c4.6742,-0.50803 10.00097,0.45144 14.60319,1.18461c9.44917,0.0879 20.50532,-0.968 29.54567,2.17545c9.62448,3.34656 18.81439,8.41212 28.79766,10.79629c4.75919,1.14221 9.54211,2.09325 14.31133,3.19427c2.8424,0.65619 6.57197,1.40452 9.06353,3.0057c4.80837,3.09006 4.4704,10.82908 5.46584,15.65569c1.30544,6.32969 4.3608,11.91596 7.79797,17.36287c2.77205,1.8065 6.16325,4.3495 8.44858,6.76006c2.30109,2.42719 3.58914,5.62123 5.54846,8.27794c1.07214,1.45375 2.58114,2.59363 3.45588,4.17404c5.06137,9.14457 7.23254,20.88222 6.36682,31.20875c-0.08831,6.37694 -0.41299,12.62703 -0.76362,18.95848c-0.14585,2.63364 0.28933,3.23437 -0.3863,5.99355c-0.57528,2.3494 -3.02464,5.03373 -4.95349,7.29692c-0.49565,1.56383 -0.96078,3.16623 -1.78247,4.58087c-0.83634,1.43984 -2.14962,2.54594 -3.1489,3.87787c-2.29657,3.06111 -4.74278,7.73744 -5.83652,11.35586c-1.7006,5.62607 -2.16593,10.94081 -5.93087,15.74871c-1.77963,3.13084 -4.02604,6.16488 -5.21682,9.59864c-0.97012,2.79747 -0.59934,5.74805 -0.94136,8.60681c-0.74201,6.20201 -1.85851,12.12509 -4.34204,17.91276c-0.72463,1.68869 -1.86521,4.79541 -3.13984,6.10391c-2.90329,2.98041 -7.29704,4.23848 -10.89532,6.05658c-6.77983,3.41374 -13.45904,5.54655 -20.58074,8.1268c-2.7987,1.01399 -5.64586,2.62215 -8.53454,3.3289c-2.24775,0.54994 -2.84383,0.17334 -4.76041,0.52042c-7.40011,1.34011 -14.59261,3.09809 -22.06781,4.06708c-2.74573,0.11118 -5.66127,-0.0285 -8.38663,0.33184c-6.25705,0.82729 -12.1762,3.20496 -18.33809,4.42531c-10.41763,2.06318 -20.90408,2.80625 -31.20709,5.51583c-5.03416,1.05085 -9.87815,0.79511 -14.94319,1.2101c-1.92043,0.15735 -3.85475,0.53548 -5.77098,0.33332c-3.75476,-0.39612 -7.18957,-2.23222 -10.79688,-3.22859c-6.39789,-1.76716 -13.20971,-2.22843 -19.53123,-4.25728c-2.47301,-0.7937 -4.75439,-1.79673 -7.25408,-2.5308c-2.73497,-0.81429 -5.63924,-0.3763 -8.27359,-1.18186c-0.85346,-0.26098 -1.47233,-1.05598 -2.31902,-1.33818c-0.54972,-0.18322 -1.19539,0.18841 -1.73829,-0.01411c-0.46689,-0.17417 -3.80959,-2.49377 -4.40661,-2.86145c-2.77438,-1.70863 -6.88937,-2.86679 -9.09491,-5.32493c-0.67454,-0.75179 -0.81313,-1.88477 -1.47766,-2.64542c-1.43799,-1.646 -3.98082,-3.48015 -6.06279,-4.96606c-1.05607,0.15418 -1.51639,-0.91991 -1.51639,-0.91991z" fill="#000000" stroke="none" stroke-width="0.5"/><path d="M185.22678,165.35672c-0.2724,-0.1362 -0.51714,-0.18946 -0.73423,-0.18781c0.22157,-1.19311 0.43736,-2.38659 0.67785,-3.56113c1.26218,-6.16429 0.88393,-13.16806 2.6852,-19.15096c1.32097,-4.38762 4.53222,-8.58866 7.9168,-11.54253c5.53358,-4.86022 11.26611,-6.91828 17.91247,-9.79592c6.80534,-2.94647 13.19582,-6.86093 19.831,-10.09238c3.48463,-1.69708 7.21128,-2.37726 10.63699,-4.29591c8.95241,-5.03662 17.86206,-10.45207 27.03317,-15.04191c2.06125,-1.0316 4.17672,-1.21619 6.25402,-1.95953c2.48443,-0.88903 4.62332,-2.58322 6.75893,-3.88273c3.19687,-1.94528 7.68087,-2.02362 11.16117,-3.44246c7.67003,-3.14168 15.88969,-4.86062 23.95805,-6.60782c6.14914,-1.3316 12.45441,-4.4903 18.66731,-5.16272c4.48166,-0.48506 9.61708,0.50109 14.03458,1.19278c9.17623,0.10981 20.07982,-1.03433 28.85777,2.03592c9.7041,3.39419 18.98814,8.44625 29.05534,10.87354c7.04124,1.6899 16.00724,2.08402 22.36244,5.74733c0.73367,0.42291 1.53476,2.48007 1.78471,2.93911c1.82192,3.34606 1.68789,7.10648 2.46332,10.86631c1.42044,6.88733 4.74214,13.02604 8.60466,18.87011c15.39541,10.46917 24.52665,29.61451 22.96431,48.18392c-0.0919,6.35778 -0.39485,12.58902 -0.75933,18.90072c-0.1309,2.26673 0.18293,2.91059 -0.19141,4.94602c-2.34955,1.64554 -3.34922,3.71156 -4.17029,5.92707c-0.43754,0.64114 -0.86727,1.28759 -1.32335,1.92613c-0.32246,0.02804 -1.41108,0.21787 -1.41108,1.4957c0,0.82979 0.45899,1.20099 0.86919,1.36665c-0.15346,0.30765 -0.31847,0.61501 -0.49778,0.92076c-0.77646,1.324 -2.01298,2.32282 -2.9303,3.55342c-2.49804,3.35116 -5.10625,8.32722 -6.32241,12.28955c-1.63279,5.31973 -1.93953,10.46533 -5.5579,14.97828c-2.50165,4.3791 -5.38837,8.41201 -6.22479,13.4955c-1.32042,8.02508 -1.29338,15.51603 -4.5529,23.13171c-0.59229,1.38386 -1.53989,4.20177 -2.60323,5.26903c-2.63331,2.64301 -6.78157,3.76658 -10.02823,5.39866c-6.67027,3.36414 -13.24447,5.45048 -20.25784,7.99034c-2.69229,0.975 -5.44998,2.55772 -8.22841,3.2375c-0.66776,0.16338 -3.55417,0.29858 -4.5345,0.47495c-7.32348,1.31756 -14.45008,3.07158 -21.84384,4.04241c-2.78754,0.11006 -5.73628,-0.01876 -8.50272,0.34486c-6.33357,0.83248 -12.32664,3.22909 -18.56129,4.46195c-10.45431,2.06727 -20.98859,2.81708 -31.32789,5.53974c-4.87806,1.02826 -9.58957,0.74332 -14.50191,1.1387c-1.72957,0.13921 -3.47097,0.5272 -5.19619,0.34168c-3.57253,-0.38417 -6.89789,-2.19049 -10.33625,-3.1402c-6.36961,-1.75935 -13.17248,-2.21057 -19.46168,-4.2381c-2.47702,-0.79855 -4.77829,-1.80238 -7.28548,-2.54089c-4.13664,-1.20331 -8.41149,-1.1582 -12.3117,-2.52978c-1.41131,-0.49632 -2.42571,-1.75948 -3.70008,-2.54314c-2.41324,-1.48398 -6.61348,-2.6331 -8.46942,-4.80906c-0.64243,-0.7532 -0.77678,-1.86253 -1.43696,-2.60022c-1.84503,-2.06165 -5.16882,-4.38382 -7.52929,-6.10487c-3.00883,-6.46413 -7.78974,-12.17948 -12.55172,-17.42128c-1.28786,-1.41763 -3.65205,-3.12153 -4.69442,-4.77972c-1.17125,-1.86321 -1.63741,-4.24486 -2.58231,-6.20471c-1.75823,-3.64681 -3.6622,-6.88523 -4.84978,-10.80623c-1.11529,-2.48952 -1.08088,-5.0691 -1.82478,-7.54874c-0.90301,-3.01001 -2.47124,-6.05482 -3.38599,-9.14865c-1.36368,-4.61217 -1.82462,-9.13893 -4.16441,-13.44789c-2.14004,-3.94109 -4.68001,-8.73862 -8.01999,-11.81871c-1.95244,-1.80052 -3.56567,-2.13845 -4.75567,-4.61123c-2.31909,-6.66919 2.37537,-9.44965 5.87733,-14.30571c1.07674,-1.49308 1.96156,-3.08258 2.74761,-4.71746c0.77679,-0.38104 0.77684,-1.34886 0.77684,-1.34886c-0.00129,-0.119 -0.00022,-0.23686 0.00306,-0.35342c1.38058,-3.1458 2.52321,-6.4054 4.06063,-9.44889l0.33777,-0.67571c0,0 0.67095,-1.34231 -0.67069,-2.01313z" data-paper-data="{&quot;noHover&quot;:false,&quot;origItem&quot;:[&quot;Path&quot;,{&quot;applyMatrix&quot;:true,&quot;segments&quot;:[[[185.27588,165.36624],[0,0],[1.34164,0.67082]],[185.9467,167.3787],[[185.60898,168.05415],[0,0],[-1.53742,3.04349]],[[181.54884,177.49947],[1.38058,-3.1458],[-0.00328,0.11656]],[[181.54579,177.85276],[-0.00129,-0.119],[0,0]],[[180.769,179.20111],[0.77679,-0.38104],[-0.78605,1.63488]],[[178.02151,183.91684],[1.07674,-1.49308],[-3.50196,4.85606]],[[172.1442,198.21761],[-2.31909,-6.66919],[1.19,2.47278]],[[176.89977,202.82716],[-1.95244,-1.80052],[3.33998,3.08009]],[[184.9192,214.64137],[-2.14004,-3.94109],[2.33979,4.30896]],[[189.08248,228.08424],[-1.36368,-4.61217],[0.91475,3.09383]],[[192.46738,237.22947],[-0.90301,-3.01001],[0.7439,2.47964]],[[194.29113,244.77557],[-1.11529,-2.48952],[1.18758,3.921]],[[199.13905,255.57789],[-1.75823,-3.64681],[0.9449,1.95985]],[[201.72017,261.78048],[-1.17125,-1.86321],[1.04237,1.65819]],[[206.41332,266.55817],[-1.28786,-1.41763],[4.76198,5.2418]],[[218.9602,283.97325],[-3.00883,-6.46413],[2.36047,1.72105]],[[226.48701,290.0756],[-1.84503,-2.06165],[0.66018,0.73769]],[[227.92321,292.67512],[-0.64243,-0.7532],[1.85594,2.17596]],[[236.38994,297.4819],[-2.41324,-1.48398],[1.27437,0.78366]],[[240.0887,300.02403],[-1.41131,-0.49632],[3.90021,1.37158]],[[252.39675,302.55136],[-4.13664,-1.20331],[2.50719,0.73851]],[[259.67968,305.0908],[-2.47702,-0.79855],[6.2892,2.02753]],[[279.13429,309.32582],[-6.36961,-1.75935],[3.43836,0.94971]],[[289.46639,312.46478],[-3.57253,-0.38417],[1.72522,0.18552]],[[294.66062,312.12265],[-1.72957,0.13921],[4.91234,-0.39538]],[[309.15677,310.98309],[-4.87806,1.02826],[10.3393,-2.72266]],[[340.4713,305.44395],[-10.45431,2.06727],[6.23465,-1.23286]],[[359.02465,300.98412],[-6.33357,0.83248],[2.76644,-0.36362]],[[367.5242,300.64052],[-2.78754,0.11006],[7.39376,-0.97083]],[[389.36047,296.60223],[-7.32348,1.31756],[0.98033,-0.17637]],[[393.89367,296.12817],[-0.66776,0.16338],[2.77843,-0.67978]],[[402.11946,292.89266],[-2.69229,0.975],[7.01337,-2.53986]],[[422.37184,284.90747],[-6.67027,3.36414],[3.24666,-1.63208]],[[432.39764,279.51168],[-2.63331,2.64301],[1.06334,-1.06726]],[[434.99965,274.24427],[-0.59229,1.38386],[3.25952,-7.61568]],[[439.5484,251.11945],[-1.32042,8.02508],[0.83642,-5.08349]],[[445.771,237.62904],[-2.50165,4.3791],[3.61837,-4.51295]],[[451.3272,222.65643],[-1.63279,5.31973],[1.21616,-3.96233]],[[457.64873,210.37163],[-2.49804,3.35116],[0.91732,-1.2306]],[[460.57886,206.81958],[-0.77646,1.324],[0.17931,-0.30575]],[[461.0766,205.89916],[-0.15346,0.30765],[-0.4102,-0.16566]],[[460.20737,204.53296],[0,0.82979],[0,-1.27783]],[[461.6184,203.03783],[-0.32246,0.02804],[0.45608,-0.63854]],[[462.9417,201.1124],[-0.43754,0.64114],[0.82107,-2.21551]],[[467.11189,195.18743],[-2.34955,1.64554],[0.37434,-2.03543]],[[467.30329,190.24309],[-0.1309,2.26673],[0.36448,-6.3117]],[[468.06308,171.34868],[-0.0919,6.35778],[1.56234,-18.56941]],[[445.10442,123.18197],[15.39541,10.46917],[-3.86252,-5.84407]],[[436.50361,104.31785],[1.42044,6.88733],[-0.77543,-3.75983]],[[434.04241,93.45418],[1.82192,3.34606],[-0.24995,-0.45904]],[[432.25844,90.51591],[0.73367,0.42291],[-6.3552,-3.66331]],[[409.90095,84.77338],[7.04124,1.6899],[-10.0672,-2.42729]],[[380.85483,73.90601],[9.7041,3.39419],[-8.77795,-3.07025]],[[352.00711,71.87399],[9.17623,0.10981],[-4.4175,-0.69169]],[[337.97809,70.68237],[4.48166,-0.48506],[-6.2129,0.67242]],[[319.31843,75.84564],[6.14914,-1.3316],[-8.06836,1.7472]],[[295.3711,82.45224],[7.67003,-3.14168],[-3.4803,1.41884]],[[284.21496,85.89329],[3.19687,-1.94528],[-2.13561,1.29951]],[[277.45928,89.7748],[2.48443,-0.88903],[-2.0773,0.74334]],[[271.20794,91.73312],[2.06125,-1.0316],[-9.17111,4.58984]],[[244.18616,106.76738],[8.95241,-5.03662],[-3.42571,1.91865]],[[233.55244,111.06009],[3.48463,-1.69708],[-6.63518,3.23145]],[[213.72654,121.14601],[6.80534,-2.94647],[-6.64636,2.87764]],[[195.81733,130.93624],[5.53358,-4.86022],[-3.38458,2.95387]],[[187.90247,142.47425],[1.32097,-4.38762],[-1.80127,5.9829]],[[185.21921,161.61863],[1.26218,-6.16429],[-0.24049,1.17454]],[[184.54163,165.17847],[0.22157,-1.19311],[0.21709,-0.00165]],[[185.27586,165.36626],[-0.2724,-0.1362],[0,0]]],&quot;closed&quot;:true,&quot;fillColor&quot;:[0,0,0,1],&quot;strokeWidth&quot;:0.5}]}" fill="#fb9b9c" stroke="none" stroke-width="0.25"/><path d="M235.63359,165.96031c1.42302,-0.47434 1.89737,0.94868 1.89737,0.94868l0.08162,0.29278c0.87773,-0.3151 1.69573,-0.71617 2.37763,-1.22747c2.12722,-1.59504 3.73388,-5.43857 4.91389,-7.71694c1.92812,-3.72283 4.46851,-7.12967 6.43296,-10.83796c2.02165,-3.81627 4.51986,-8.28328 8.54764,-10.29717c1.56667,-1.54767 1.8573,-3.31106 3.66891,-4.69358c0.38537,-0.29409 3.97698,-2.29628 4.58073,-2.90791c0.61875,-0.62682 0.82314,-1.61752 1.51093,-2.1677c0.59309,-0.47443 1.51822,-0.3352 2.14824,-0.75936c3.41653,-2.30021 6.60952,-5.48506 10.07937,-7.73377c2.65206,-1.71872 4.82699,-1.10675 7.64948,-1.58173c5.05408,-0.85051 8.92425,-0.98013 13.54018,1.87706c3.4886,3.31823 8.21882,5.81523 8.83977,11.29555c0.30108,2.65723 -1.90835,5.99165 -3.05171,8.24151c-0.33924,0.66754 -0.806,1.75968 -1.34343,2.44715c0.51613,-0.05111 1.03762,-0.07249 1.544,-0.18047c1.32631,-0.28283 2.66225,-0.55853 3.94107,-1.00988c4.41979,-1.55992 8.88734,-3.10383 13.21263,-4.93495c1.06117,-0.80052 2.9572,-1.33294 3.84234,-2.2171c1.93419,-1.93206 3.09915,-6.32033 6.53875,-6.41844c1.97453,-0.05632 4.36797,1.22664 6.15748,1.86879c2.66452,0.95615 5.22287,1.68742 7.82533,2.82771c7.92809,3.47375 16.07839,6.53539 23.94892,10.28781c2.56811,1.11221 4.01493,2.54419 6.07002,4.25612c0.45599,0.37985 1.23466,0.37134 1.55167,0.87306c3.14207,4.97279 3.63436,12.7166 4.06198,18.35854c0.20835,2.74889 0.96563,5.3819 1.34144,8.06594c0.33122,2.36557 -0.32323,4.64286 -0.32323,6.96253c0,4.0848 0.1966,8.46532 0.65143,12.54658c0.66121,3.32427 1.8277,6.54976 2.36102,9.79725c0.45013,2.74092 0.27071,5.49489 0.84707,8.2751c0.94164,4.5422 2.20304,9.26246 1.17562,13.92488c-1.58976,7.21435 -6.7197,12.79957 -11.44856,18.12154c-5.5385,6.52381 -8.78799,14.44992 -11.78298,22.45829c-0.69374,1.85501 -1.19054,5.55729 -2.28568,7.17933c-0.95537,1.41502 -2.49477,1.9029 -3.80226,2.81577c-5.10904,3.56706 -10.96122,3.33038 -16.96218,4.36278c-13.96797,2.3957 -28.06008,3.63556 -42.1347,5.01708c-5.35801,0.52593 -11.09198,1.59761 -15.76844,-1.44537c-1.955,-2.89075 -4.60691,-5.04717 -6.58884,-7.97371c-3.12155,-4.60933 -5.84526,-8.96292 -10.19878,-12.54253c-1.48383,-1.22005 -3.38025,-1.82854 -5.03042,-2.812c-3.11043,-1.85374 -5.70681,-4.812 -8.91673,-6.47659c-2.72156,-1.41134 -5.85664,-2.168 -8.16129,-4.36644c-0.88081,-0.84021 -1.26212,-2.09048 -2.02554,-3.03862c-4.6493,-4.69024 -6.99316,-12.86743 -7.35231,-19.36738c-0.23254,-4.20863 0.16214,-10.31308 -2.56411,-13.88607c-2.25036,-2.94929 -6.60535,-4.13376 -9.03045,-6.97542c-1.85204,-2.17017 -3.08495,-5.90356 -3.99298,-8.61328c-2.22392,-7.4973 -2.57652,-15.22648 3.05892,-21.42669c1.85262,-2.03829 5.2896,-2.50412 6.86153,-4.40099c-0.54963,0.07763 -1.08648,0.13919 -1.60013,0.18861c0,0 -1.49384,0.1358 -1.62964,-1.35804c-0.1358,-1.49384 1.35804,-1.62964 1.35804,-1.62964c0.76222,-0.06459 1.60585,-0.16227 2.46782,-0.31307l-0.04008,-0.08282c0,0 -0.47434,-1.42302 0.94868,-1.89737zM237.98535,170.21757c-0.01443,0.23059 -0.0486,0.45791 -0.11667,0.67961c-1.28277,4.17821 -5.96544,3.85027 -8.45548,6.65294c-4.78871,5.38996 -4.30024,11.98871 -2.34466,18.42471c0.77893,2.35083 1.83322,5.74742 3.43694,7.59746c2.52021,2.90729 6.85682,4.09004 9.20663,7.20898c3.07628,4.0832 2.82803,10.60772 3.07953,15.41248c0.30382,5.80412 2.39225,13.36854 6.59203,17.52793c0.75853,0.95307 1.14368,2.20183 2.02714,3.04041c1.98394,1.88315 5.04196,2.5123 7.374,3.73893c3.24428,1.70647 5.84932,4.65484 9.00046,6.52458c1.77884,1.05548 3.78832,1.76339 5.39442,3.06675c4.59697,3.73046 7.49599,8.3253 10.76684,13.15708c1.8804,2.77777 4.42759,4.79287 6.24466,7.56158c3.43055,2.39077 9.44318,0.96291 13.35483,0.58097c14.00477,-1.36747 28.02212,-2.60016 41.9194,-4.9881c5.48105,-0.93898 11.11298,-0.60929 15.75711,-3.86912c0.13591,-0.0954 2.72573,-1.56484 2.95221,-1.91236c1.49102,-2.28785 2.10126,-6.82823 3.16487,-9.4876c2.97401,-7.43601 6.00479,-14.43708 11.20177,-20.55784c4.37386,-4.91881 9.28686,-10.08263 10.77471,-16.75805c0.94223,-4.22744 -0.32605,-8.59973 -1.17488,-12.71326c-0.57357,-2.77959 -0.39346,-5.58988 -0.85511,-8.31539c-0.55639,-3.28481 -1.71251,-6.53761 -2.37997,-9.90645c-0.46899,-4.23233 -0.68661,-8.76315 -0.68661,-13.0047c0,-2.16272 0.67322,-4.34839 0.35222,-6.54642c-0.40045,-2.74205 -1.14786,-5.44454 -1.36182,-8.2548c-0.30434,-3.99737 -0.68887,-7.565 -1.8966,-11.43644c-0.53817,-1.72512 -0.52768,-3.67622 -1.46987,-5.21828c-0.21645,-0.35425 -0.8277,-0.21632 -1.15012,-0.47783c-1.91607,-1.55412 -3.00441,-2.82934 -5.41259,-3.84925c-7.86045,-3.7507 -15.99134,-6.81124 -23.91449,-10.27249c-2.5426,-1.11074 -5.03091,-1.81782 -7.63604,-2.75244c-0.63077,-0.2263 -3.83421,-1.6574 -4.81696,-1.71045c-1.2246,-0.0661 -2.46339,2.46098 -2.86718,3.03524c-1.98454,2.82244 -3.7743,3.30196 -6.33971,5.2154c-5.58104,2.41753 -12.06273,5.28363 -18.07838,6.29166c-1.94015,0.32511 -5.66502,1.12923 -6.45952,-2.09752c-0.21993,-0.8932 1.22974,-1.37608 1.74345,-2.13916c1.25493,-1.86408 4.30359,-6.66905 4.00006,-8.97422c-0.58655,-4.4545 -4.8511,-6.47766 -7.68656,-9.16512c-3.76307,-2.38188 -7.05649,-1.97677 -11.13578,-1.30293c-1.51847,0.25083 -3.12269,-0.09851 -4.60679,0.30908c-1.38563,0.38054 -2.39686,1.58845 -3.5472,2.44956c-1.96609,1.47177 -4.36077,2.36279 -6.28451,3.9283c-0.82548,0.67176 -1.39848,1.63901 -2.28048,2.23464c-0.55088,0.37202 -1.3854,0.17625 -1.90445,0.59153c-0.58033,0.46431 -0.66439,1.36039 -1.19086,1.88499c-1.3125,1.30783 -3.39017,2.12257 -4.87554,3.17112c-1.53129,1.08097 -2.37961,3.37062 -3.76101,4.76269c-3.65418,1.82709 -5.82868,5.82321 -7.6631,9.29081c-1.95142,3.68878 -4.48359,7.0749 -6.40055,10.77635c-1.38615,2.67652 -3.25623,6.82167 -5.73739,8.71474c-1.09426,0.83489 -2.43674,1.43948 -3.85245,1.87971z" fill="#000000" stroke="none" stroke-width="0.5"/><path d="M237.93955,170.19741c1.41571,-0.44023 2.75913,-1.04684 3.85339,-1.88173c2.48116,-1.89307 4.35485,-6.04436 5.741,-8.72088c1.91696,-3.70145 4.45445,-7.09406 6.40587,-10.78284c1.83442,-3.4676 4.01481,-7.46891 7.66899,-9.296c1.3814,-1.39207 2.23279,-3.68385 3.76408,-4.76482c1.48537,-1.04855 3.56623,-1.86516 4.87873,-3.17299c0.52647,-0.5246 0.61161,-1.42124 1.19194,-1.88555c0.51905,-0.41528 1.35468,-0.22006 1.90556,-0.59208c0.882,-0.59563 1.45671,-1.56366 2.28219,-2.23542c1.92374,-1.56551 4.3226,-2.45812 6.28869,-3.92989c1.15034,-0.86111 2.16394,-2.06974 3.54957,-2.45028c1.4841,-0.40759 3.09098,-0.05891 4.60945,-0.30974c4.07929,-0.67384 7.37931,-1.07993 11.14238,1.30195c2.83546,2.68746 7.10494,4.71046 7.69149,9.16496c0.30353,2.30517 -2.74379,7.21008 -3.99872,9.07416c-0.51371,0.76308 -1.9694,1.14615 -1.74947,2.03935c0.7945,3.22675 4.52488,2.42252 6.46503,2.09741c6.01565,-1.00803 12.51071,-3.87183 18.09175,-6.28936c2.56541,-1.91344 4.35804,-2.39195 6.34258,-5.21439c0.40379,-0.57426 1.64353,-3.10096 2.86813,-3.03486c0.98275,0.05305 4.18919,1.48549 4.81996,1.71179c2.60513,0.93462 5.09792,1.64417 7.64052,2.75491c7.92315,3.46125 16.06544,6.53152 23.92589,10.28222c2.40818,1.01991 3.4988,2.29797 5.41487,3.85209c0.32242,0.26151 0.93403,0.12406 1.15048,0.47831c0.94219,1.54206 0.93334,3.49556 1.47151,5.22068c1.20773,3.87144 1.59536,7.44465 1.8997,11.44202c0.21396,2.81026 0.96326,5.5173 1.36371,8.25935c0.321,2.19803 -0.35107,4.38733 -0.35107,6.55005c0,4.24155 0.21914,8.78045 0.68813,13.01278c0.66746,3.36884 1.82384,6.62799 2.38023,9.9128c0.46165,2.72551 0.28116,5.5409 0.85473,8.32049c0.84883,4.11353 2.11565,8.49304 1.17342,12.72048c-1.48785,6.67542 -6.40536,11.85015 -10.77922,16.76896c-5.19698,6.12076 -8.2362,13.13293 -11.21021,20.56894c-1.06361,2.65937 -1.67756,7.20308 -3.16858,9.49093c-0.22648,0.34752 -2.81784,1.81816 -2.95375,1.91356c-4.64413,3.25983 -10.28362,2.93481 -15.76467,3.87379c-13.89728,2.38794 -27.93958,3.62586 -41.94435,4.99333c-3.91165,0.38194 -9.93241,1.80871 -13.36296,-0.58206c-1.81707,-2.76871 -4.36916,-4.78514 -6.24956,-7.56291c-3.27085,-4.83178 -6.17947,-9.43093 -10.77644,-13.16139c-1.6061,-1.30336 -3.61937,-2.01372 -5.39821,-3.0692c-3.15114,-1.86974 -5.76232,-4.82326 -9.0066,-6.52973c-2.33204,-1.22663 -5.39372,-1.8598 -7.37766,-3.74295c-0.88346,-0.83858 -1.27015,-2.08933 -2.02868,-3.0424c-4.19978,-4.15939 -6.2945,-11.73526 -6.59832,-17.53938c-0.2515,-4.80476 -0.00614,-11.34025 -3.08242,-15.42345c-2.34981,-3.11894 -6.68691,-4.30715 -9.20712,-7.21444c-1.60372,-1.85004 -2.65794,-5.25141 -3.43687,-7.60224c-1.95558,-6.436 -2.44205,-13.046 2.34666,-18.43596c2.49004,-2.80267 7.17469,-2.48018 8.45746,-6.65839c0.06807,-0.2217 0.10242,-0.44942 0.11685,-0.68001z" data-paper-data="{&quot;noHover&quot;:false,&quot;origItem&quot;:[&quot;Path&quot;,{&quot;applyMatrix&quot;:true,&quot;segments&quot;:[[[237.98535,170.21757],[0,0],[-0.01443,0.23059]],[[237.86868,170.89718],[0.06807,-0.2217],[-1.28277,4.17821]],[[229.4132,177.55012],[2.49004,-2.80267],[-4.78871,5.38996]],[[227.06854,195.97483],[-1.95558,-6.436],[0.77893,2.35083]],[[230.50548,203.57229],[-1.60372,-1.85004],[2.52021,2.90729]],[[239.71211,210.78127],[-2.34981,-3.11894],[3.07628,4.0832]],[[242.79164,226.19375],[-0.2515,-4.80476],[0.30382,5.80412]],[[249.38367,243.72168],[-4.19978,-4.15939],[0.75853,0.95307]],[[251.41081,246.76209],[-0.88346,-0.83858],[1.98394,1.88315]],[[258.78481,250.50102],[-2.33204,-1.22663],[3.24428,1.70647]],[[267.78527,257.0256],[-3.15114,-1.86974],[1.77884,1.05548]],[[273.17969,260.09235],[-1.6061,-1.30336],[4.59697,3.73046]],[[283.94653,273.24943],[-3.27085,-4.83178],[1.8804,2.77777]],[[290.19119,280.81101],[-1.81707,-2.76871],[3.43055,2.39077]],[[303.54602,281.39198],[-3.91165,0.38194],[14.00477,-1.36747]],[[345.46542,276.40388],[-13.89728,2.38794],[5.48105,-0.93898]],[[361.22253,272.53476],[-4.64413,3.25983],[0.13591,-0.0954]],[[364.17474,270.6224],[-0.22648,0.34752],[1.49102,-2.28785]],[[367.33961,261.1348],[-1.06361,2.65937],[2.97401,-7.43601]],[[378.54138,240.57696],[-5.19698,6.12076],[4.37386,-4.91881]],[[389.31609,223.81891],[-1.48785,6.67542],[0.94223,-4.22744]],[[388.14121,211.10565],[0.84883,4.11353],[-0.57357,-2.77959]],[[387.2861,202.79026],[0.46165,2.72551],[-0.55639,-3.28481]],[[384.90613,192.88381],[0.66746,3.36884],[-0.46899,-4.23233]],[[384.21952,179.87911],[0,4.24155],[0,-2.16272]],[[384.57174,173.33269],[0.321,2.19803],[-0.40045,-2.74205]],[[383.20992,165.07789],[0.21396,2.81026],[-0.30434,-3.99737]],[[381.31332,153.64145],[1.20773,3.87144],[-0.53817,-1.72512]],[[379.84345,148.42317],[0.94219,1.54206],[-0.21645,-0.35425]],[[378.69333,147.94534],[0.32242,0.26151],[-1.91607,-1.55412]],[[373.28074,144.09609],[2.40818,1.01991],[-7.86045,-3.7507]],[[349.36625,133.8236],[7.92315,3.46125],[-2.5426,-1.11074]],[[341.73021,131.07116],[2.60513,0.93462],[-0.63077,-0.2263]],[[336.91325,129.36071],[0.98275,0.05305],[-1.2246,-0.0661]],[[334.04607,132.39595],[0.40379,-0.57426],[-1.98454,2.82244]],[[327.70636,137.61135],[2.56541,-1.91344],[-5.58104,2.41753]],[[309.62798,143.90301],[6.01565,-1.00803],[-1.94015,0.32511]],[[303.16846,141.80549],[0.7945,3.22675],[-0.21993,-0.8932]],[[304.91191,139.66633],[-0.51371,0.76308],[1.25493,-1.86408]],[[308.91197,130.69211],[0.30353,2.30517],[-0.58655,-4.4545]],[[301.22541,121.52699],[2.83546,2.68746],[-3.76307,-2.38188]],[[290.08963,120.22406],[4.07929,-0.67384],[-1.51847,0.25083]],[[285.48284,120.53314],[1.4841,-0.40759],[-1.38563,0.38054]],[[281.93564,122.9827],[1.15034,-0.86111],[-1.96609,1.47177]],[[275.65113,126.911],[1.92374,-1.56551],[-0.82548,0.67176]],[[273.37065,129.14564],[0.882,-0.59563],[-0.55088,0.37202]],[[271.4662,129.73717],[0.51905,-0.41528],[-0.58033,0.46431]],[[270.27534,131.62216],[0.52647,-0.5246],[-1.3125,1.30783]],[[265.3998,134.79328],[1.48537,-1.04855],[-1.53129,1.08097]],[[261.63879,139.55597],[1.3814,-1.39207],[-3.65418,1.82709]],[[253.97569,148.84678],[1.83442,-3.4676],[-1.95142,3.68878]],[[247.57514,159.62313],[1.91696,-3.70145],[-1.38615,2.67652]],[[241.83775,168.33787],[2.48116,-1.89307],[-1.09426,0.83489]],[[237.9853,170.21758],[1.41571,-0.44023],[0,0]]],&quot;closed&quot;:true,&quot;fillColor&quot;:[0,0,0,1],&quot;strokeWidth&quot;:0.5}]}" fill="#fdfdfd" stroke="none" stroke-width="0.25"/><path d="M162.93711,312.47428v-265.67406h312.10191v265.67406z" fill="none" stroke="#000000" stroke-width="0"/></g></g></svg>