<svg version="1.1" xmlns="http://www.w3.org/2000/svg" xmlns:xlink="http://www.w3.org/1999/xlink" width="312.10191" height="265.67406" viewBox="0,0,312.10191,265.67406"><g transform="translate(-162.93711,-46.80021)"><g data-paper-data="{&quot;isPaintingLayer&quot;:true}" fill-rule="nonzero" stroke-linecap="butt" stroke-linejoin="miter" stroke-miterlimit="10" stroke-dasharray="" stroke-dashoffset="0" style="mix-blend-mode: normal"><path d="M333.17838,174.04035c0.35396,-0.0765 1.37045,-0.1854 1.7656,0.95717c3.43667,0.3498 6.83913,1.45937 10.3841,2.73445c1.69373,0.60921 5.39001,1.13085 6.6864,2.3266c3.94667,3.64031 -2.37227,10.71762 -5.56227,12.80007c-1.47275,0.3521 -2.92495,0.5474 -4.36479,0.62808c0.36848,2.35827 -0.17255,4.14497 -1.01457,6.68146c3.24682,-0.13547 6.46716,-0.45069 9.72636,-0.45593c1.49285,-0.0024 3.66495,-0.21823 5.17079,0.4478c2.87461,1.27142 2.61466,1.71417 3.65563,4.80617c2.29747,6.82419 -5.42659,12.79427 -10.93822,15.50025c-2.19567,2.53615 -4.27604,3.48757 -7.0731,5.12362c-1.94791,1.13936 -2.76034,3.12793 -5.34825,0.62841c-1.71659,-1.65797 -1.10707,-7.05761 -0.93181,-9.14176c0.07178,-0.85361 0.29993,-1.71449 0.6562,-2.51746c-1.17146,0.79741 -2.42743,1.5155 -3.70336,2.21222c-4.35629,2.37872 -8.32067,5.16164 -12.99886,6.61384c3.73563,5.61172 -1.49004,13.08421 -5.71177,16.43829c-6.38565,3.20725 -14.85272,11.23777 -22.2327,5.30386c-3.86177,-3.10508 -2.87824,-6.88025 -2.84646,-11.17393c0.00334,-0.45063 0.00439,-6.12832 0.05986,-6.36487c0.78843,-3.36228 3.86776,-3.08439 6.18043,-4.52335c0.36072,-0.22444 0.59385,-0.6598 0.8614,-1.01846c0.29303,-0.52201 0.8851,-0.71937 0.8851,-0.71937c1.40686,-0.46666 2.99934,-1.52811 4.6522,-2.54262c-0.61095,-0.65405 -1.15662,-1.37814 -1.65949,-2.10656c-1.03845,-1.50422 -2.96249,-2.15163 -4.09871,-3.55762c-1.16579,-1.44258 -1.69157,-3.21387 -2.37471,-4.90312c-0.42828,0.27588 -0.84327,0.60204 -1.23863,1.00014c-1.63204,1.64333 -2.73252,3.93407 -3.97736,5.84477c-2.17008,3.33086 -4.74791,6.05553 -7.53609,8.86299c-1.27205,0.45149 -2.46688,1.39202 -3.81616,1.35448c-1.67968,-0.04673 -2.96419,-2.42342 -3.57373,-3.58903c-1.53546,-2.93621 -3.58983,-7.5366 -2.50091,-10.92713c0.57906,-1.80298 1.69434,-1.65107 2.77841,-2.79875c1.74585,-1.8483 3.071,-4.22361 4.83473,-6.04999c1.2494,-1.29378 2.96824,-2.04454 4.55141,-2.89803c0.12608,-0.06797 0.25205,-0.13631 0.37793,-0.205c-0.02961,-0.04179 -0.05862,-0.08621 -0.08694,-0.13341c-0.77174,-1.28624 0.5145,-2.05798 0.5145,-2.05798l0.86866,-0.5212c0.60262,-0.36072 1.20525,-0.72145 1.80787,-1.08217c0.01858,-0.00859 1.32865,-0.61716 2.53827,-1.1734c-0.15722,-0.40328 -0.11387,-0.7934 -0.11387,-0.7934c0.509,-4.55018 -0.64747,-10.08882 0.57658,-14.47398c0.56051,-2.00803 1.53215,-1.83336 2.87288,-2.98756c0.59523,-0.51242 1.16915,-1.05461 1.74272,-1.5993c-2.02229,0.15272 -4.02188,0.25359 -6.11836,0.28126c-3.47411,-0.46896 -10.16667,-0.08453 -12.56473,-3.22252c-1.53425,-2.00765 -1.55701,-5.99461 0.57377,-7.66391c2.19671,-1.72094 4.78854,-0.98748 7.16687,-0.47412c5.59882,1.20851 10.86955,1.92794 15.58035,4.98813c0.08291,-0.06118 0.17731,-0.1191 0.28457,-0.17273c1.34164,-0.67082 2.01246,0.67082 2.01246,0.67082l0.23893,0.87602c3.35179,-0.88903 7.54651,-0.66281 10.84125,-0.66281c2.50257,0 5.33325,-0.50513 7.93819,-0.49415c-0.11651,-0.16358 -0.22858,-0.32751 -0.3362,-0.49028c-2.37485,-3.5918 -3.42499,-6.81694 -1.50393,-10.80224c0.33706,-0.69925 0.52709,-1.59745 1.18959,-2.00198c0.89856,-0.54868 2.06523,-0.41067 3.09785,-0.61601l0.79977,-0.00961c0.59021,-0.12103 1.26801,-0.07044 2.23479,0.2199c5.99261,1.79972 7.65123,12.56829 2.32472,16.04079c1.98513,1.12789 3.89222,2.47601 5.79482,3.58412zM321.28123,171.23959c-2.87838,-0.52989 -6.63144,0.37021 -9.64246,0.37021c-4.00572,0 -8.20279,0.01154 -11.79974,1.47424c-0.21401,0.22609 -0.4803,0.43501 -0.81378,0.62283c-0.24671,0.13894 -0.51961,0.17316 -0.80457,0.16268c-1.15088,0.65956 -2.21867,1.51161 -3.17249,2.61234c-0.6655,0.768 -3.01942,2.08297 -3.19685,3.0516c-0.79276,4.3278 0.01893,9.10089 -0.4046,13.5221c0.26233,0.07988 0.52335,0.18423 0.78688,0.27006c0.10531,-0.06224 0.21062,-0.12434 0.31593,-0.18631c0,0 1.26666,-0.74509 2.02999,0.49344c3.80071,0.30058 8.55193,0.63813 8.21894,5.76286c-0.07833,1.20541 -0.65314,2.34705 -1.22799,3.40944c-1.50793,2.78682 -3.68008,3.40867 -5.84255,4.17127c0.55191,1.43004 0.98499,3.03978 1.94219,4.20872c1.1993,1.46458 3.10539,2.13849 4.24041,3.73911c0.5814,0.8199 1.16361,1.71266 1.92368,2.36525c1.49359,-0.69161 2.98172,-1.07411 4.37667,-0.69784c2.17728,0.58728 5.30489,2.82729 7.34311,3.96425c0.29842,0.16647 0.60943,0.32081 0.91985,0.47737c5.37418,-1.03024 9.66846,-4.30814 14.37188,-6.89279c2.91521,-1.60198 6.05377,-3.30628 7.58969,-6.27788c-0.46263,-0.44486 -0.91484,-0.89903 -1.20107,-1.4496c-0.83505,-1.60623 -0.67364,-2.34116 -0.68835,-3.98903l0.40518,-1.6282c0,0 0.26484,-0.92695 1.11301,-1.08229c0.86786,-2.58034 1.49277,-3.90215 0.98174,-6.21267c-4.39859,-0.18636 -8.73472,-1.17877 -13.24847,-1.7406c-1.81083,-0.2254 -3.52113,1.63745 -5.38943,0.56683c-1.10353,-0.63237 -1.89134,-1.72898 -2.63027,-2.76419c-5.27883,-7.39551 1.05355,-12.46454 7.26246,-15.58267l1.53948,-0.15836c0,0 1.5,0 1.5,1.5c0,0.04779 -0.00152,0.09406 -0.00447,0.13885c0.42997,-0.10939 0.85775,-0.20198 1.28365,-0.27882c-2.56398,-1.66268 -5.20844,-3.41399 -8.07765,-3.94219zM321.75742,165.99243c0.57022,0.89715 1.75531,2.90295 3.2147,2.3219c3.74045,-1.48926 3.19103,-7.94976 0.60207,-10.46879c-0.23462,-0.22829 -0.46501,-0.37676 -0.69292,-0.47907c-0.40275,1.34239 -1.79254,0.99495 -1.79254,0.99495l-2.50728,-0.62682c-2.15737,1.5806 -0.21406,6.07087 1.17596,8.25784zM294.09187,204.57228c0.12724,0 0.24369,0.01079 0.35026,0.03055c1.75001,-0.62176 3.41404,-1.33161 4.50608,-3.25502c2.84111,-5.00405 -2.86602,-4.50267 -6.18314,-4.86483c-5.89556,3.38319 -11.41291,6.10605 -15.84763,11.41592c-0.236,0.28257 -3.60506,3.36516 -3.74327,3.90576c-0.67293,2.63221 1.24777,6.26293 2.36358,8.53083c0.34663,0.70452 0.51327,2.07996 1.29076,1.97039c0.64702,-0.09119 1.1698,-0.58257 1.7547,-0.87386c2.4394,-2.56691 4.75665,-5.035 6.69847,-8.01916c1.35759,-2.08633 2.5709,-4.53484 4.36177,-6.31645c0.96142,-0.95645 2.08211,-1.49693 3.22764,-1.93274c0.2098,-0.31529 0.57724,-0.59139 1.22079,-0.59139zM315.27906,224.24135l-1.79385,-0.396c0,0 -1.16276,-0.33222 -1.10194,-1.4441c-0.22362,-0.10285 -0.39991,-0.18668 -0.50477,-0.24359c-0.3755,-0.2038 -3.86797,-2.48657 -4.2823,-2.62972c-0.48191,-0.16651 -2.55525,0.68654 -2.69588,0.75466c-1.25704,0.60885 -2.38575,1.31771 -3.53399,1.99406l0.73945,-0.2735c0,0 1.44229,-0.41208 1.85437,1.0302c0.41208,1.44229 -1.0302,1.85437 -1.0302,1.85437l-1.64848,0.40504c-0.61416,-0.01294 -1.22833,-0.02588 -1.84249,-0.03882c-0.74515,-0.29645 -1.43761,-0.97045 -2.23546,-0.88935c-0.47853,0.04864 -0.40095,0.93569 -0.80393,1.19829c-1.23415,0.80421 -4.69774,0.78231 -4.9384,2.77863c-0.22482,1.8649 0.05103,3.75676 0.03605,5.6351c-0.02545,3.18968 -1.1927,6.4639 1.69439,8.78749c5.83306,4.69458 13.82755,-3.00889 18.768,-5.46751c2.94615,-2.37623 8.13012,-8.86846 4.32199,-12.90071c-0.0674,-0.07137 -0.17638,-0.15431 -0.31676,-0.24549c-0.22662,0.03383 -0.45518,0.06419 -0.68578,0.09094zM340.90927,205.33047c1.43674,0.43102 1.00572,1.86776 1.00572,1.86776c-0.00862,0.02781 -0.01733,0.05554 -0.02613,0.08319c0.57516,0.82326 1.05024,1.72133 1.12746,2.90046c0.13479,2.05847 -3.7603,3.70549 -4.47914,5.38384c-0.32767,0.76505 -0.20687,4.18093 -0.2073,4.53227c-0.00165,1.35015 -0.35964,2.78182 0.10622,4.04905c0.22399,0.60931 1.05365,-0.75987 1.60102,-1.10891c2.73694,-1.74526 4.56027,-2.45924 6.82544,-4.95282c4.23681,-2.15384 11.5237,-6.81917 9.89904,-12.22619c-0.60436,-2.01137 -0.19993,-2.29433 -1.89324,-2.90867c-1.22658,-0.44501 -2.90588,-0.24257 -4.06122,-0.23822c-3.70862,0.01396 -7.36909,0.41479 -11.07512,0.50065c-0.03575,0.03466 -0.07404,0.06863 -0.11494,0.10117c0.12995,0.7354 0.42569,1.35856 0.79148,1.93578c0.15142,0.00118 0.31793,0.02578 0.50072,0.08062zM339.65644,190.40325c0.63408,-0.21136 1.0798,-0.04601 1.37912,0.20231c1.40449,-0.02838 2.8163,-0.17873 4.24009,-0.50658c1.81724,-1.16009 4.68335,-5.00423 5.34282,-7.10803c0.23355,-0.74505 -1.35527,-0.80518 -2.10172,-1.03421c-1.41144,-0.43307 -2.81277,-0.90055 -4.20176,-1.40099c-6.15913,-2.21912 -11.78917,-4.09671 -18.16848,-1.25729c0,0 -1.37072,0.60921 -1.97993,-0.76151c-0.10185,-0.22917 -0.14836,-0.43705 -0.15519,-0.62436c-3.90564,2.23078 -6.8038,5.07626 -3.74937,9.96842c0.38649,0.61902 0.78862,1.26683 1.3705,1.70726c0.42691,0.32313 3.69436,-0.88301 4.33955,-0.82302c4.47755,0.4163 8.86023,1.61178 13.2968,1.81564c0.11017,-0.0678 0.23844,-0.12792 0.38755,-0.17762zM283.97313,166.19322c-1.80552,-0.37608 -4.80439,-1.65807 -6.57128,-0.47693c-1.61222,1.07775 -0.14513,3.58464 1.07289,4.07314c2.82197,1.13177 6.20085,1.07189 9.21192,1.48697c2.85019,-0.04561 6.3636,0.25009 9.19142,-0.12072c0.13966,-0.10083 0.28111,-0.19943 0.42456,-0.29551c-3.97195,-2.90612 -8.47553,-3.65591 -13.3295,-4.66695z" fill="#000000" stroke="none" stroke-width="0.5"/><path d="M321.29287,171.19098c2.86921,0.5282 5.52991,2.28663 8.09389,3.94931c-0.4259,0.07684 -0.90786,0.25346 -1.33783,0.36285c0.00295,-0.04479 0.00459,-0.09099 0.00459,-0.13878c0,-1.5 -1.49638,-1.49798 -1.49638,-1.49798l-1.53704,0.15951c-6.20891,3.11813 -12.50358,8.09458 -7.22475,15.49009c0.73893,1.03521 1.54944,2.14901 2.65297,2.78138c1.8683,1.07062 3.58457,-0.7816 5.3954,-0.5562c4.51375,0.56183 8.85334,1.56787 13.25193,1.75423c0.51103,2.31052 -0.11423,3.64563 -0.98209,6.22597c-0.84817,0.15534 -1.11354,1.08506 -1.11354,1.08506l-0.40613,1.63187c0.01471,1.64787 -0.14939,2.3898 0.68566,3.99603c0.28623,0.55057 0.73776,1.00612 1.20039,1.45098c-1.53592,2.9716 -4.68645,4.6911 -7.60166,6.29308c-4.70342,2.58465 -9.02797,5.87454 -14.40215,6.90478c-0.31042,-0.15656 -0.62326,-0.31085 -0.92168,-0.47732c-2.03822,-1.13696 -5.18266,-3.37973 -7.35994,-3.96701c-1.39495,-0.37627 -2.8905,0.00296 -4.38409,0.69457c-0.76007,-0.65259 -1.34745,-1.54857 -1.92885,-2.36847c-1.13502,-1.60062 -3.0501,-2.28274 -4.2494,-3.74732c-0.9572,-1.16894 -1.39598,-2.78687 -1.94789,-4.21691c2.16247,-0.7626 4.33341,-1.38676 5.84134,-4.17358c0.57485,-1.06239 1.14624,-2.21317 1.22457,-3.41858c0.33299,-5.12473 -4.41958,-5.48095 -8.22029,-5.78153c-0.76333,-1.23853 -1.93073,-0.48131 -1.93073,-0.48131c-0.10531,0.06197 -0.21056,0.12359 -0.31587,0.18583c-0.26353,-0.08583 -0.62382,-0.20227 -0.88615,-0.28215c0.42353,-4.42121 -0.37945,-9.21684 0.41331,-13.54464c0.17743,-0.96863 2.53626,-2.28955 3.20176,-3.05755c0.95382,-1.10073 2.02705,-1.95765 3.17793,-2.61721c0.28496,0.01048 0.55892,-0.02454 0.80563,-0.16348c0.33348,-0.18782 0.60128,-0.3978 0.81529,-0.62389c3.59695,-1.4627 7.81451,-1.48223 11.82023,-1.48223c3.01102,0 6.78321,-0.89929 9.66159,-0.3694z" data-paper-data="{&quot;noHover&quot;:false,&quot;origItem&quot;:[&quot;Path&quot;,{&quot;applyMatrix&quot;:true,&quot;segments&quot;:[[[321.28123,171.23959],[0,0],[-2.87838,-0.52989]],[[311.63877,171.6098],[3.01102,0],[-4.00572,0]],[[299.83903,173.08404],[3.59695,-1.4627],[-0.21401,0.22609]],[[299.02525,173.70687],[0.33348,-0.18782],[-0.24671,0.13894]],[[298.22068,173.86955],[0.28496,0.01048],[-1.15088,0.65956]],[[295.04819,176.48189],[0.95382,-1.10073],[-0.6655,0.768]],[[291.85134,179.53349],[0.17743,-0.96863],[-0.79276,4.3278]],[[291.44674,193.05559],[0.42353,-4.42121],[0.26233,0.07988]],[[292.23362,193.32565],[-0.26353,-0.08583],[0.10531,-0.06224]],[[292.54955,193.13934],[-0.10531,0.06197],[0,0]],[[294.57954,193.63278],[-0.76333,-1.23853],[3.80071,0.30058]],[[302.79848,199.39564],[0.33299,-5.12473],[-0.07833,1.20541]],[[301.57049,202.80508],[0.57485,-1.06239],[-1.50793,2.78682]],[[295.72794,206.97635],[2.16247,-0.7626],[0.55191,1.43004]],[[297.67013,211.18507],[-0.9572,-1.16894],[1.1993,1.46458]],[[301.91054,214.92418],[-1.13502,-1.60062],[0.5814,0.8199]],[[303.83422,217.28943],[-0.76007,-0.65259],[1.49359,-0.69161]],[[308.21089,216.59159],[-1.39495,-0.37627],[2.17728,0.58728]],[[315.554,220.55584],[-2.03822,-1.13696],[0.29842,0.16647]],[[316.47385,221.03321],[-0.31042,-0.15656],[5.37418,-1.03024]],[[330.84573,214.14042],[-4.70342,2.58465],[2.91521,-1.60198]],[[338.43542,207.86254],[-1.53592,2.9716],[-0.46263,-0.44486]],[[337.23435,206.41294],[0.28623,0.55057],[-0.83505,-1.60623]],[[336.546,202.42391],[0.01471,1.64787],[0,0]],[336.95118,200.79571],[[338.06419,199.71342],[-0.84817,0.15534],[0.86786,-2.58034]],[[339.04593,193.50075],[0.51103,2.31052],[-4.39859,-0.18636]],[[325.79746,191.76015],[4.51375,0.56183],[-1.81083,-0.2254]],[[320.40803,192.32698],[1.8683,1.07062],[-1.10353,-0.63237]],[[317.77776,189.56279],[0.73893,1.03521],[-5.27883,-7.39551]],[[325.04022,173.98012],[-6.20891,3.11813],[0,0]],[326.5797,173.82176],[[328.0797,175.32176],[0,-1.5],[0,0.04779]],[[328.07523,175.46061],[0.00295,-0.04479],[0.42997,-0.10939]],[[329.35888,175.18179],[-0.4259,0.07684],[-2.56398,-1.66268]],[[321.28123,171.2396],[2.86921,0.5282],[0,0]]],&quot;closed&quot;:true,&quot;fillColor&quot;:[0,0,0,1]}]}" fill="#fdaa9c" stroke="none" stroke-width="0.5"/><path d="M283.93203,166.16476c4.85397,1.01104 9.44717,1.8014 13.41912,4.70752c-0.14345,0.09608 -0.28539,0.19651 -0.42505,0.29734c-2.82782,0.37081 -6.37801,0.10989 -9.2282,0.1555c-3.01107,-0.41508 -6.45043,-0.39523 -9.2724,-1.527c-1.21802,-0.4885 -2.68417,-3.01701 -1.07195,-4.09476c1.76689,-1.18114 4.77295,0.08533 6.57847,0.46141z" data-paper-data="{&quot;noHover&quot;:false,&quot;origItem&quot;:[&quot;Path&quot;,{&quot;applyMatrix&quot;:true,&quot;segments&quot;:[[[283.97313,166.19321],[0,0],[-1.80552,-0.37608]],[[277.40185,165.71628],[1.76689,-1.18114],[-1.61222,1.07775]],[[278.47474,169.78942],[-1.21802,-0.4885],[2.82197,1.13177]],[[287.68666,171.27639],[-3.01107,-0.41508],[2.85019,-0.04561]],[[296.87808,171.15567],[-2.82782,0.37081],[0.13966,-0.10083]],[[297.30264,170.86016],[-0.14345,0.09608],[-3.97195,-2.90612]],[[283.97314,166.19321],[4.85397,1.01104],[0,0]]],&quot;closed&quot;:true,&quot;fillColor&quot;:[0,0,0,1],&quot;strokeWidth&quot;:0.5}]}" fill="#f2fff3" stroke="none" stroke-width="0.25"/><path d="M321.73154,166.03523c-1.39002,-2.18697 -3.33291,-6.76306 -1.17554,-8.34366l2.52678,0.62021c0,0 1.40677,0.34831 1.80952,-0.99408c0.22791,0.10231 0.46523,0.25289 0.69985,0.48118c2.58896,2.51903 3.13242,9.07473 -0.60803,10.56399c-1.45939,0.58105 -2.68235,-1.4305 -3.25257,-2.32765z" data-paper-data="{&quot;noHover&quot;:false,&quot;origItem&quot;:[&quot;Path&quot;,{&quot;applyMatrix&quot;:true,&quot;segments&quot;:[[[321.75742,165.99242],[0,0],[0.57022,0.89715]],[[324.97212,168.31432],[-1.45939,0.58105],[3.74045,-1.48926]],[[325.57419,157.84553],[2.58896,2.51903],[-0.23462,-0.22829]],[[324.88127,157.36646],[0.22791,0.10231],[-0.40275,1.34239]],[323.08873,158.36141],[[320.58145,157.73459],[0,0],[-2.15737,1.5806]],[[321.75741,165.99243],[-1.39002,-2.18697],[0,0]]],&quot;closed&quot;:true,&quot;fillColor&quot;:[0,0,0,1],&quot;strokeWidth&quot;:0.5}]}" fill="#f2fff3" stroke="none" stroke-width="0.25"/><path d="M339.68729,190.4426c-0.14911,0.0497 -0.27953,0.11141 -0.3897,0.17921c-4.43657,-0.20386 -8.89247,-1.41746 -13.37002,-1.83376c-0.64519,-0.05999 -3.91447,1.14216 -4.34138,0.81903c-0.58188,-0.44043 -0.98619,-1.0949 -1.37268,-1.71392c-3.05443,-4.89216 -0.15093,-7.77505 3.75471,-10.00583c0.00683,0.18731 0.14058,0.44403 0.24243,0.6732c0.60921,1.37072 1.89239,0.71318 1.89239,0.71318c6.37931,-2.83942 12.09943,-0.95514 18.25856,1.26398c1.38899,0.50044 2.79302,0.97777 4.20446,1.41084c0.74645,0.22903 2.33579,0.29344 2.10224,1.03849c-0.65947,2.1038 -3.53181,5.97631 -5.34905,7.1364c-1.42379,0.32785 -2.84428,0.48952 -4.24877,0.5179c-0.29932,-0.24832 -0.7491,-0.41011 -1.38318,-0.19875z" data-paper-data="{&quot;noHover&quot;:false,&quot;origItem&quot;:[&quot;Path&quot;,{&quot;applyMatrix&quot;:true,&quot;segments&quot;:[[[339.65644,190.40324],[0,0],[0.63408,-0.21136]],[[341.03556,190.60555],[-0.29932,-0.24832],[1.40449,-0.02838]],[[345.27565,190.09897],[-1.42379,0.32785],[1.81724,-1.16009]],[[350.61847,182.99094],[-0.65947,2.1038],[0.23355,-0.74505]],[[348.51675,181.95673],[0.74645,0.22903],[-1.41144,-0.43307]],[[344.31499,180.55574],[1.38899,0.50044],[-6.15913,-2.21912]],[[326.14651,179.29845],[6.37931,-2.83942],[0,0]],[[324.16658,178.53694],[0.60921,1.37072],[-0.10185,-0.22917]],[[324.01139,177.91258],[0.00683,0.18731],[-3.90564,2.23078]],[[320.26202,187.881],[-3.05443,-4.89216],[0.38649,0.61902]],[[321.63252,189.58826],[-0.58188,-0.44043],[0.42691,0.32313]],[[325.97207,188.76524],[-0.64519,-0.05999],[4.47755,0.4163]],[[339.26887,190.58088],[-4.43657,-0.20386],[0.11017,-0.0678]],[[339.65642,190.40326],[-0.14911,0.0497],[0,0]]],&quot;closed&quot;:true,&quot;fillColor&quot;:[0,0,0,1],&quot;strokeWidth&quot;:0.5}]}" fill="#f2fff3" stroke="none" stroke-width="0.25"/><path d="M340.94099,205.36911c-0.18279,-0.05484 -0.41389,-0.15576 -0.56531,-0.15694c-0.36579,-0.57722 -0.65951,-1.20205 -0.78946,-1.93745c0.0409,-0.03254 0.07966,-0.06687 0.11541,-0.10153c3.70603,-0.08586 7.41119,-0.49491 11.11981,-0.50887c1.15534,-0.00435 2.84876,-0.20002 4.07534,0.24499c1.69331,0.61434 1.29891,0.90647 1.90327,2.91784c1.62466,5.40702 -5.70853,10.1537 -9.94534,12.30754c-2.26517,2.49358 -4.11166,3.1974 -6.8486,4.94266c-0.54737,0.34904 -1.37859,1.71694 -1.60258,1.10763c-0.46586,-1.26723 -0.11599,-2.70778 -0.11434,-4.05793c0.00043,-0.35134 -0.12841,-3.78507 0.19926,-4.55012c0.71884,-1.67835 4.62209,-3.36581 4.4873,-5.42428c-0.07722,-1.17913 -0.5456,-2.08476 -1.12076,-2.90802c0.0088,-0.02765 0.01784,-0.05568 0.02646,-0.08349c0,0 0.49626,-1.36099 -0.94048,-1.79201z" data-paper-data="{&quot;noHover&quot;:false,&quot;origItem&quot;:[&quot;Path&quot;,{&quot;applyMatrix&quot;:true,&quot;segments&quot;:[[[340.90927,205.33046],[0,0],[1.43674,0.43102]],[[341.91499,207.19822],[0,0],[-0.00862,0.02781]],[[341.88886,207.28141],[0.0088,-0.02765],[0.57516,0.82326]],[[343.01632,210.18187],[-0.07722,-1.17913],[0.13479,2.05847]],[[338.53718,215.56571],[0.71884,-1.67835],[-0.32767,0.76505]],[[338.32988,220.09798],[0.00043,-0.35134],[-0.00165,1.35015]],[[338.4361,224.14703],[-0.46586,-1.26723],[0.22399,0.60931]],[[340.03712,223.03812],[-0.54737,0.34904],[2.73694,-1.74526]],[[346.86256,218.0853],[-2.26517,2.49358],[4.23681,-2.15384]],[[356.7616,205.85911],[1.62466,5.40702],[-0.60436,-2.01137]],[[354.86836,202.95044],[1.69331,0.61434],[-1.22658,-0.44501]],[[350.80714,202.71222],[1.15534,-0.00435],[-3.70862,0.01396]],[[339.73202,203.21287],[3.70603,-0.08586],[-0.03575,0.03466]],[[339.61708,203.31404],[0.0409,-0.03254],[0.12995,0.7354]],[[340.40856,205.24982],[-0.36579,-0.57722],[0.15142,0.00118]],[[340.90928,205.33044],[-0.18279,-0.05484],[0,0]]],&quot;closed&quot;:true,&quot;fillColor&quot;:[0,0,0,1],&quot;strokeWidth&quot;:0.5}]}" fill="#f2fff3" stroke="none" stroke-width="0.25"/><path d="M315.31996,224.21255c0.2306,-0.02675 0.45981,-0.05616 0.68643,-0.08999c0.14038,0.09118 0.2501,0.17526 0.3175,0.24663c3.80813,4.03225 -1.37754,10.5804 -4.32369,12.95663c-4.94045,2.45862 -13.01144,10.16765 -18.8445,5.47307c-2.88709,-2.32359 -1.73327,-5.62459 -1.70782,-8.81427c0.01498,-1.87834 -0.25975,-3.79136 -0.03493,-5.65626c0.24066,-1.99632 3.71318,-1.99217 4.94733,-2.79638c0.40298,-0.2626 0.33004,-1.15478 0.80857,-1.20342c0.79785,-0.0811 1.49488,0.58901 2.24003,0.88546c0.61416,0.01294 1.23684,0.0207 1.851,0.03364l1.65955,-0.40882c0,0 1.45548,-0.31327 1.0434,-1.75556c-0.41208,-1.44228 -1.84557,-1.03146 -1.84557,-1.03146l-0.76615,0.17721c1.14824,-0.67635 2.29418,-1.38754 3.55122,-1.99639c0.14063,-0.06812 2.22436,-0.91965 2.70627,-0.75314c0.41433,0.14315 3.9248,2.43466 4.3003,2.63846c0.10486,0.05691 0.28288,0.14213 0.5065,0.24498c-0.06082,1.11188 1.1072,1.44922 1.1072,1.44922l1.79734,0.4004z" data-paper-data="{&quot;noHover&quot;:false,&quot;origItem&quot;:[&quot;Path&quot;,{&quot;applyMatrix&quot;:true,&quot;segments&quot;:[[315.27906,224.24134],[313.48521,223.84534],[[312.38327,222.40124],[-0.06082,1.11188],[-0.22362,-0.10285]],[[311.8785,222.15765],[0.10486,0.05691],[-0.3755,-0.2038]],[[307.5962,219.52793],[0.41433,0.14315],[-0.48191,-0.16651]],[[304.90032,220.28259],[0.14063,-0.06812],[-1.25704,0.60885]],[[301.36633,222.27665],[1.14824,-0.67635],[0,0]],[302.10578,222.00315],[[303.96015,223.03335],[-0.41208,-1.44228],[0.41208,1.44229]],[302.92995,224.88772],[[301.28147,225.29276],[0,0],[-0.61416,-0.01294]],[[299.43898,225.25394],[0.61416,0.01294],[-0.74515,-0.29645]],[[297.20352,224.36459],[0.79785,-0.0811],[-0.47853,0.04864]],[[296.39959,225.56288],[0.40298,-0.2626],[-1.23415,0.80421]],[[291.46119,228.34151],[0.24066,-1.99632],[-0.22482,1.8649]],[[291.49724,233.97661],[0.01498,-1.87834],[-0.02545,3.18968]],[[293.19163,242.7641],[-2.88709,-2.32359],[5.83306,4.69458]],[[311.95963,237.29659],[-4.94045,2.45862],[2.94615,-2.37623]],[[316.28162,224.39588],[3.80813,4.03225],[-0.0674,-0.07137]],[[315.96486,224.15039],[0.14038,0.09118],[-0.22662,0.03383]],[[315.27908,224.24133],[0.2306,-0.02675],[0,0]]],&quot;closed&quot;:true,&quot;fillColor&quot;:[0,0,0,1],&quot;strokeWidth&quot;:0.5}]}" fill="#f2fff3" stroke="none" stroke-width="0.25"/><path d="M294.04949,204.59879c-0.64355,0 -1.01048,0.27689 -1.22028,0.59218c-1.14553,0.43581 -2.18345,0.9202 -3.14487,1.87665c-1.79087,1.78161 -3.05821,4.30715 -4.4158,6.39348c-1.94182,2.98416 -4.2731,5.44598 -6.7125,8.01289c-0.5849,0.29129 -1.11024,0.7809 -1.75726,0.87209c-0.77749,0.10957 -0.94959,-1.27055 -1.29622,-1.97507c-1.11581,-2.2679 -3.05051,-5.92517 -2.37758,-8.55738c0.13821,-0.5406 3.50708,-3.63998 3.74308,-3.92255c4.43472,-5.30987 10.02363,-8.06972 15.91919,-11.45291c3.31712,0.36216 9.04419,-0.12137 6.20308,4.88268c-1.09204,1.92341 -2.84116,2.68577 -4.59117,3.30753c-0.10657,-0.01976 -0.22243,-0.02959 -0.34967,-0.02959z" data-paper-data="{&quot;noHover&quot;:false,&quot;origItem&quot;:[&quot;Path&quot;,{&quot;applyMatrix&quot;:true,&quot;segments&quot;:[[[294.09187,204.57227],[0,0],[0.12724,0]],[[294.44213,204.60282],[-0.10657,-0.01976],[1.75001,-0.62176]],[[298.94821,201.3478],[-1.09204,1.92341],[2.84111,-5.00405]],[[292.76507,196.48297],[3.31712,0.36216],[-5.89556,3.38319]],[[276.91744,207.89889],[4.43472,-5.30987],[-0.236,0.28257]],[[273.17417,211.80465],[0.13821,-0.5406],[-0.67293,2.63221]],[[275.53775,220.33548],[-1.11581,-2.2679],[0.34663,0.70452]],[[276.82851,222.30587],[-0.77749,0.10957],[0.64702,-0.09119]],[[278.58321,221.43201],[-0.5849,0.29129],[2.4394,-2.56691]],[[285.28168,213.41285],[-1.94182,2.98416],[1.35759,-2.08633]],[[289.64345,207.0964],[-1.79087,1.78161],[0.96142,-0.95645]],[[292.87109,205.16366],[-1.14553,0.43581],[0.2098,-0.31529]],[[294.09188,204.57227],[-0.64355,0],[0,0]]],&quot;closed&quot;:true,&quot;fillColor&quot;:[0,0,0,1],&quot;strokeWidth&quot;:0.5}]}" fill="#f2fff3" stroke="none" stroke-width="0.25"/><path d="M162.93711,312.47427v-265.67406h312.10191v265.67406z" fill="none" stroke="#000000" stroke-width="0"/></g></g></svg>