<svg version="1.1" xmlns="http://www.w3.org/2000/svg" xmlns:xlink="http://www.w3.org/1999/xlink" width="312.10191" height="265.67406" viewBox="0,0,312.10191,265.67406"><g transform="translate(-162.93711,-46.80021)"><g data-paper-data="{&quot;isPaintingLayer&quot;:true}" fill-rule="nonzero" stroke-linecap="butt" stroke-linejoin="miter" stroke-miterlimit="10" stroke-dasharray="" stroke-dashoffset="0" style="mix-blend-mode: normal"><path d="M265.51885,182.57923c-0.05101,-0.06228 -0.10067,-0.13145 -0.14859,-0.20813c-0.795,-1.272 0.477,-2.067 0.477,-2.067c2.22416,-1.30403 9.57019,-2.32222 8.88461,2.67899c-0.50427,3.67862 -8.83073,6.45369 -9.58137,1.18234c-0.07745,-0.54388 0.13352,-1.06594 0.36835,-1.5862zM269.53873,182.09806c-0.17345,0.29769 -0.39585,0.47561 -0.39585,0.47561l-0.39601,0.03624c-1.53011,3.09921 2.30744,1.01611 3.00938,-0.00856c0.19532,-0.28512 -0.5991,-0.38779 -0.9416,-0.43404c-0.46582,-0.0629 -0.88367,-0.0908 -1.27592,-0.06926z" fill="#000000" stroke="none" stroke-width="0.5"/><path d="M269.51586,182.05359c0.39225,-0.02154 0.86238,0.01039 1.3282,0.07329c0.3425,0.04625 1.15487,0.17332 0.95955,0.45844c-0.70194,1.02467 -4.63303,3.10465 -3.10292,0.00544l0.39983,-0.04364c0,0 0.24189,-0.19583 0.41534,-0.49352z" data-paper-data="{&quot;noHover&quot;:false,&quot;origItem&quot;:[&quot;Path&quot;,{&quot;applyMatrix&quot;:true,&quot;segments&quot;:[[[269.53873,182.09805],[0,0],[-0.17345,0.29769]],[269.14288,182.57366],[[268.74687,182.6099],[0,0],[-1.53011,3.09921]],[[271.75625,182.60134],[-0.70194,1.02467],[0.19532,-0.28512]],[[270.81465,182.1673],[0.3425,0.04625],[-0.46582,-0.0629]],[[269.53873,182.09804],[0.39225,-0.02154],[0,0]]],&quot;closed&quot;:true,&quot;fillColor&quot;:[0,0,0,1],&quot;strokeWidth&quot;:0.5}]}" fill="#fffcff" stroke="none" stroke-width="0.25"/><path d="M303.84496,207.42348c0.52082,-0.26041 0.94055,-0.21755 1.25919,-0.06763c3.71381,-1.12355 7.68456,-2.6626 8.51046,-6.0882c-0.05088,-0.38764 0.00915,-0.807 -0.15264,-1.16291c-0.24404,-0.53687 -0.99443,0.64002 -1.52659,0.89416c-0.65822,0.31433 -1.32588,0.63664 -2.03675,0.80011c-1.85841,0.42735 -6.5475,0.855 -8.3019,0.13267c-2.31564,-0.95341 -3.25566,-3.29798 -4.80784,-5.14664c-0.15012,-0.07428 -0.30345,-0.18328 -0.45677,-0.3366c-0.17795,-0.17795 -0.29619,-0.3559 -0.36974,-0.52884c-0.42641,-0.38533 -0.9051,-0.72578 -1.46214,-0.99658c-1.97559,-0.96043 -3.96521,-0.73856 -5.91334,-0.11603c-0.05494,0.70964 0.008,1.46729 -0.38291,2.04003c-1.45457,2.13114 -5.73659,1.06536 -6.92832,3.42444c-0.14595,0.28891 0.34162,0.5663 0.40062,0.88456c0.38485,2.07596 0.01535,4.14932 0.018,6.23508c0.00664,1.94367 0.09527,3.88825 0.03331,5.83094c-0.01877,0.58848 -0.40885,1.22014 -0.16972,1.75817c0.14007,0.31515 0.29878,-0.64824 0.5663,-0.86589c0.46413,-0.3776 1.03402,-0.60399 1.56922,-0.87148c2.54529,-1.27216 5.05421,-3.37579 7.92214,-3.79017c2.29334,-0.33135 4.85186,0.69284 7.04305,0.36142c0.63455,-0.09598 1.06652,-0.73367 1.66337,-0.96956c0.83081,-0.32835 1.84154,-0.62917 2.93187,-0.94585c0.12895,-0.17485 0.31848,-0.33888 0.59114,-0.4752zM319.86797,217.71609c3.51218,-0.70668 6.95093,-2.08775 10.50504,-2.75882c1.97145,-0.66019 4.04956,-1.50448 5.67082,-2.88223c0.96489,-3.17495 1.21889,-5.1741 3.01057,-7.17407c1.05871,-4.40268 0.66677,-8.62157 -0.70716,-13.24957c-0.77038,-2.59496 -1.26164,-5.08668 -3.22893,-6.74093c-3.01616,0.68494 -6.18001,1.04195 -8.33501,-0.31007c-1.35402,-0.8495 -2.38871,-2.49858 -3.318,-4.2332c-0.11361,0.01606 -0.18648,0.01606 -0.18648,0.01606l-0.64807,-0.07698c-0.98971,-0.32999 -1.87116,-1.11873 -2.91418,-1.14162c-0.91112,-0.02 -3.2105,1.60625 -4.0484,2.07222c-3.16653,1.76096 -6.55506,2.8924 -9.83279,4.39581c-1.50607,0.6908 -3.65129,1.26748 -4.52679,2.84191c-1.25171,2.25098 -0.8883,4.44821 -1.86993,6.5091c0.98972,1.44976 1.84078,3.67257 3.13171,4.11035c1.88859,0.64046 6.281,0.03942 8.07691,-0.80454c1.39873,-0.65731 3.01332,-2.12142 4.72775,-0.4957c0.86471,0.81997 0.82481,2.23608 1.23722,3.35411c-1.07794,5.01677 -5.28728,7.05574 -9.70257,8.60256c2.89245,4.13913 7.68935,9.02578 12.95832,7.96561zM341.21941,190.78502c0.48014,1.61855 0.85338,3.2064 1.10093,4.77698c0.12083,-0.01967 0.24162,-0.0387 0.36236,-0.05712c-0.03581,-0.13617 -0.05608,-0.29024 -0.05608,-0.46458c0,-1.5 1.5,-1.5 1.5,-1.5l0.70301,0.00917c1.55139,-0.00034 2.82111,0.48937 3.57167,1.43331c2.68923,-0.12885 5.38184,-0.16216 8.11028,-0.39499c2.0678,-0.17645 3.04259,-0.97041 5.123,0.419c2.30691,1.54067 1.8722,3.62321 1.33511,5.99079c-0.77448,3.41406 -2.93419,6.84224 -4.39216,10.01286c-1.30953,2.84782 -0.9608,4.39873 -3.04615,7.05491c-4.07828,2.48496 -9.27054,4.99811 -12.12372,8.98336c-0.65621,0.91658 -2.19723,5.14042 -2.87214,5.65535c-0.87527,0.6678 -2.26299,1.01664 -3.25759,0.54459c-0.99251,-0.47105 -3.26142,-4.8902 -3.73507,-6.00499c-0.85384,-2.00959 -1.97673,-5.30065 -1.28573,-7.5864c0.28741,-0.95071 0.75899,-1.82961 1.27942,-2.69496c-0.79592,0.33644 -1.60638,0.63193 -2.41101,0.89906c-3.60616,0.67127 -7.11373,2.14821 -10.69024,2.8006c-6.99833,1.27656 -12.85136,-4.60587 -16.46887,-9.92548c-0.87708,0.29171 -1.7362,0.58586 -2.55357,0.90265c-0.75519,0.2927 -1.35805,0.99316 -2.15873,1.11522c-2.76615,0.42171 -5.86578,-1.18233 -8.57496,0.0856c-2.44959,1.14644 -4.64794,3.03056 -7.20473,3.95329c-1.05675,0.38138 -2.32797,1.50492 -3.2558,0.87142c-0.31573,-0.21557 -0.5742,-0.51404 -0.78507,-0.87509c0.22277,1.29365 -0.17488,2.57696 -1.76997,3.59914c-0.753,0.48254 -1.77199,0.2715 -2.63453,0.5079c-2.13323,0.58465 -5.20993,1.81569 -7.02293,-0.60607c-0.52193,-0.69718 -0.33228,-1.73469 -0.24495,-2.60121c0.12533,-1.24356 0.43425,-2.5445 0.85826,-3.82804c-0.20377,-0.82316 0.50969,-1.44744 0.50969,-1.44744c0.00929,-0.00797 0.01853,-0.01601 0.02773,-0.02411c0.56197,-1.40798 1.23486,-2.75821 1.92287,-3.94612l0.68823,-1.20452c0,0 0.74421,-1.30236 2.04657,-0.55816v0.00001c1.30236,0.74421 0.55816,2.04657 0.55816,2.04657l-0.46318,0.81048c1.28583,0.4879 2.04563,1.9027 3.04435,2.98906c0.6682,0.72684 1.37713,1.6205 1.87516,2.57162c-0.53434,-2.54106 -0.12909,-6.05204 -0.13473,-7.70162c0.00015,-1.95522 0.2304,-3.83857 0.01609,-5.79006c-0.0823,-0.74944 -0.61025,-1.55806 -0.29431,-2.24261c0.55222,-1.19649 1.98778,-2.31757 3.33451,-2.99933c-0.06438,-0.09888 -0.12314,-0.21281 -0.17441,-0.34384c-0.5466,-1.39686 0.85027,-1.94346 0.85027,-1.94346c1.55793,-0.60962 3.0387,-1.21096 4.47692,-1.68262c0.20529,-0.15799 0.64018,-0.42598 1.15349,-0.35051c3.09048,-0.85665 6.02308,-0.94183 9.15624,1.00171c0.69852,-1.7692 0.4884,-4.36845 1.47584,-6.03379c2.59215,-4.37173 9.76996,-5.43719 14.01766,-7.56055c1.84438,-0.92198 4.72716,-3.25936 6.83773,-3.2824c0.10035,-0.0011 1.05356,0.30344 2.01933,0.62058c-0.19791,-0.33322 -0.39816,-0.64542 -0.60311,-0.92869c-2.65036,-2.24372 -4.15778,-4.79712 -5.91503,-7.71252c-1.2828,-2.12826 -3.35143,-3.78197 -4.54541,-5.95673c-2.46429,-4.48857 -2.3243,-9.61389 -1.9007,-14.54568c0.23653,-2.75383 0.60628,-5.95214 1.81111,-8.4955v-0.00002l-0.02103,-0.04894c0.74956,-2.06423 1.91763,-2.41775 2.9403,-4.15786c1.20212,-2.04546 1.1141,-4.07674 4.25626,-4.67979c1.65004,-0.31668 3.96848,2.59487 4.86199,3.32149c3.20776,2.60861 6.24114,5.21035 7.32887,9.46797c0.7289,2.85306 -0.28674,6.31302 -0.48499,9.15326c-0.25891,3.7093 0.60582,7.59121 1.63038,11.12577c2.51991,4.76202 7.88993,5.77358 11.59954,9.56446c0.96924,0.99047 4.2224,4.07187 4.31485,5.46025c0.08954,1.34468 -0.81855,2.64654 -1.6944,3.67078c-0.71395,0.8349 -3.17261,1.20494 -4.22248,1.41856c-0.75155,0.15292 -1.61449,0.38104 -2.54392,0.6307c1.42539,1.86615 2.07166,4.10538 2.84352,6.70732zM341.39564,207.62637c-0.38889,1.15722 -0.22101,2.50087 -0.80517,3.57286c-0.52529,0.96396 -1.18061,1.80016 -1.92903,2.53139c-0.88448,2.4403 -2.71643,4.37437 -3.51316,6.72747c-0.96057,2.83697 1.90509,7.77278 3.31833,10.03613c0.45105,0.72237 0.70285,-1.55146 1.05705,-2.32593c0.45762,-1.0006 0.85921,-2.04585 1.4998,-2.94042c2.99811,-4.18683 8.21352,-6.8801 12.54619,-9.43221c1.4351,-1.62367 0.93374,-2.35873 1.65343,-4.40897c1.02409,-2.91743 2.57463,-5.69896 3.77503,-8.55791c0.25103,-0.59786 2.49979,-4.61631 0.97703,-5.32272c-1.46539,-0.6798 -3.68577,0.07272 -5.24868,0.07664c-1.87165,0.00469 -3.74123,0.05383 -5.60356,0.17696h0.00001c-0.03464,0.4129 -0.11611,0.85476 -0.24859,1.32495c-0.73287,2.60099 -3.98164,4.71963 -5.89244,6.35441c-0.46838,0.32147 -0.8642,0.63168 -1.20173,0.93762c-0.11608,0.41551 -0.24414,0.832 -0.38452,1.24973zM345.98071,198.29272c0.02863,-0.08861 0.05393,-0.17457 0.07601,-0.25778c-1.14475,0.13188 -2.28564,0.29821 -3.42146,0.50595c0.05846,1.13484 0.04352,2.26501 -0.05216,3.39574c1.36419,-1.05413 2.98991,-2.382 3.3976,-3.64391zM316.55715,134.94607c0.32091,0.16141 0.61998,0.47257 0.727,1.06115c0.26833,1.4758 -1.20748,1.74413 -1.20748,1.74413c-1.06128,0.10809 -1.85925,0.70317 -2.46384,1.57172c0.24088,0.38652 0.50589,1.11088 -0.21847,1.83523c-0.28517,0.28517 -0.57033,0.41699 -0.83489,0.45732c-0.66455,2.15544 -0.83727,4.71164 -0.97096,6.28624c-0.36558,4.30568 -0.62999,8.9088 1.53461,12.83444c1.17397,2.12907 3.22077,3.77042 4.49042,5.8618c1.67622,2.76109 3.06413,5.07364 5.55127,7.22841c1.59423,2.18328 3.08365,6.75192 5.29609,8.28681c0.67998,0.47174 2.66107,0.20095 3.30371,0.1045c0.82864,-0.12437 1.6552,-0.27194 2.48026,-0.4327c0.3686,-0.27295 0.76717,-0.28145 1.08058,-0.21741c1.67012,-0.34536 3.33513,-0.72691 4.99982,-1.06121c0.60946,-0.12239 3.91614,-0.35179 3.52351,-1.87942c-0.41724,-1.6234 -2.3064,-2.43292 -3.47457,-3.63496c-2.60358,-2.67905 -5.94327,-3.78296 -8.93322,-5.87679c-1.86991,-1.30948 -2.21426,-2.6326 -3.29699,-4.65049c-1.17525,-4.00857 -2.11339,-8.2901 -1.84218,-12.50138c0.26657,-4.13917 1.26928,-7.55882 -0.8614,-11.3143c-1.28968,-2.27315 -2.91698,-3.13495 -4.88524,-4.73574c-0.7593,-0.61754 -1.4197,-1.34775 -2.11711,-2.03442c-0.20364,-0.2005 -0.31382,-0.71557 -0.58534,-0.62643c-0.49477,0.16245 -0.94224,0.93084 -1.29559,1.69349zM271.97198,213.71598c-0.17444,0.5276 -0.33563,1.07624 -0.4954,1.66317c-0.29564,1.08607 -1.74228,2.39565 -0.98624,3.22953c0.47545,0.5244 1.43207,0.21851 2.1226,0.06294c0.61555,-0.13868 3.77881,-0.7618 3.8748,-1.35423c0.18497,-1.14156 -1.15675,-2.09109 -1.74153,-2.75898c-0.62946,-0.71892 -1.24134,-3.01969 -1.79116,-2.23817c-0.32581,0.46311 -0.63781,0.94468 -0.98308,1.39573z" fill="#000000" stroke="none" stroke-width="0.5"/><path d="M319.86883,217.76609c-5.26897,1.06017 -10.10407,-3.84325 -12.99652,-7.98238c4.41529,-1.54682 8.62478,-3.58562 9.70272,-8.60239c-0.41241,-1.11803 -0.38456,-2.57603 -1.24927,-3.396c-1.71443,-1.62572 -3.22976,-0.15185 -4.62849,0.50546c-1.79591,0.84396 -6.28827,1.44545 -8.17686,0.80499c-1.29093,-0.43778 -2.14127,-2.67094 -3.13099,-4.1207c0.98163,-2.06089 0.62366,-4.27358 1.87537,-6.52456c0.8755,-1.57443 3.02808,-2.16123 4.53415,-2.85203c3.27773,-1.50341 6.69175,-2.6494 9.85828,-4.41036c0.8379,-0.46597 3.14867,-2.09343 4.05979,-2.07343c1.04302,0.02289 1.93238,0.81233 2.92209,1.14232l0.6498,0.0773c0,0 0.07334,0.0001 0.18695,-0.01596c0.92929,1.73462 1.9765,3.38821 3.33052,4.23771c2.155,1.35202 5.33344,1.00647 8.3496,0.32153c1.96729,1.65425 2.46787,4.16172 3.23825,6.75668c1.37393,4.628 1.76642,8.8796 0.70771,13.28228c-1.79168,1.99997 -2.05457,4.01531 -3.01946,7.19026c-1.62126,1.37775 -3.7105,2.23205 -5.68195,2.89224c-3.55411,0.67107 -7.01952,2.06037 -10.5317,2.76705z" data-paper-data="{&quot;noHover&quot;:false,&quot;origItem&quot;:[&quot;Path&quot;,{&quot;applyMatrix&quot;:true,&quot;segments&quot;:[[[319.86797,217.71609],[0,0],[3.51218,-0.70668]],[[330.37301,214.95727],[-3.55411,0.67107],[1.97145,-0.66019]],[[336.04383,212.07504],[-1.62126,1.37775],[0.96489,-3.17495]],[[339.0544,204.90097],[-1.79168,1.99997],[1.05871,-4.40268]],[[338.34724,191.6514],[1.37393,4.628],[-0.77038,-2.59496]],[[335.11831,184.91047],[1.96729,1.65425],[-3.01616,0.68494]],[[326.7833,184.6004],[2.155,1.35202],[-1.35402,-0.8495]],[[323.4653,180.3672],[0.92929,1.73462],[-0.11361,0.01606]],[323.27882,180.38326],[[322.63075,180.30628],[0,0],[-0.98971,-0.32999]],[[319.71657,179.16466],[1.04302,0.02289],[-0.91112,-0.02]],[[315.66817,181.23688],[0.8379,-0.46597],[-3.16653,1.76096]],[[305.83538,185.63269],[3.27773,-1.50341],[-1.50607,0.6908]],[[301.30859,188.4746],[0.8755,-1.57443],[-1.25171,2.25098]],[[299.43866,194.9837],[0.98163,-2.06089],[0.98972,1.44976]],[[302.57037,199.09405],[-1.29093,-0.43778],[1.88859,0.64046]],[[310.64728,198.28951],[-1.79591,0.84396],[1.39873,-0.65731]],[[315.37503,197.79381],[-1.71443,-1.62572],[0.86471,0.81997]],[[316.61225,201.14792],[-0.41241,-1.11803],[-1.07794,5.01677]],[[306.90968,209.75048],[4.41529,-1.54682],[2.89245,4.13913]],[[319.868,217.71609],[-5.26897,1.06017],[0,0]]],&quot;closed&quot;:true,&quot;fillColor&quot;:[0,0,0,1]}]}" fill="#fdaa9c" stroke="none" stroke-width="0.5"/><path d="M271.9412,213.67656c0.34527,-0.45105 0.68134,-0.94276 1.00715,-1.40587c0.54982,-0.78152 1.20903,1.53965 1.83849,2.25857c0.58478,0.66789 1.92919,1.67153 1.74422,2.81309c-0.09599,0.59243 -3.31457,1.23912 -3.93012,1.3778c-0.69053,0.15557 -1.66943,0.44931 -2.14488,-0.07509c-0.75604,-0.83388 0.67505,-2.18382 0.97069,-3.26989c0.15977,-0.58693 0.34003,-1.17101 0.51447,-1.69861z" data-paper-data="{&quot;noHover&quot;:false,&quot;origItem&quot;:[&quot;Path&quot;,{&quot;applyMatrix&quot;:true,&quot;segments&quot;:[[[271.97198,213.71597],[0,0],[-0.17444,0.5276]],[[271.47658,215.37914],[0.15977,-0.58693],[-0.29564,1.08607]],[[270.49034,218.60867],[-0.75604,-0.83388],[0.47545,0.5244]],[[272.61294,218.67161],[-0.69053,0.15557],[0.61555,-0.13868]],[[276.48774,217.31738],[-0.09599,0.59243],[0.18497,-1.14156]],[[274.74621,214.5584],[0.58478,0.66789],[-0.62946,-0.71892]],[[272.95505,212.32023],[0.54982,-0.78152],[-0.32581,0.46311]],[[271.97197,213.71596],[0.34527,-0.45105],[0,0]]],&quot;closed&quot;:true,&quot;fillColor&quot;:[0,0,0,1],&quot;strokeWidth&quot;:0.5}]}" fill="#fffcff" stroke="none" stroke-width="0.25"/><path d="M316.53538,134.90104c0.35335,-0.76265 0.80412,-1.53249 1.29889,-1.69494c0.27152,-0.08914 0.38227,0.42571 0.58591,0.62621c0.69741,0.68667 1.36037,1.41598 2.11967,2.03352c1.96826,1.60079 3.60462,2.46058 4.8943,4.73373c2.13068,3.75548 1.14517,7.27353 0.8786,11.4127c-0.27121,4.21128 0.65202,8.39418 1.82727,12.40275c1.08273,2.01789 1.41503,3.34349 3.28494,4.65297c2.98995,2.09383 6.31587,3.20496 8.91945,5.88401c1.16817,1.20204 3.1179,2.09112 3.53514,3.71452c0.39263,1.52763 -2.92037,1.76123 -3.52983,1.88362c-1.66469,0.3343 -3.3387,0.71978 -5.00882,1.06514c-0.31341,-0.06404 -0.71409,-0.05491 -1.08269,0.21804c-0.82506,0.16076 -1.65657,0.30943 -2.48521,0.4338c-0.64264,0.09645 -2.63037,0.36792 -3.31035,-0.10382c-2.21244,-1.53489 -3.71698,-6.10532 -5.31121,-8.2886c-2.48714,-2.15477 -3.89923,-4.48249 -5.57545,-7.24358c-1.26965,-2.09138 -3.3279,-3.75584 -4.50187,-5.88491c-2.1646,-3.92564 -1.8937,-8.56495 -1.52812,-12.87063c0.13369,-1.5746 0.3149,-4.14112 0.97945,-6.29656c0.26456,-0.04033 0.55129,-0.17355 0.83646,-0.45872c0.72436,-0.72435 0.46163,-1.45055 0.22075,-1.83707c0.60459,-0.86855 1.40782,-1.46711 2.4691,-1.5752c0,0 1.47933,-0.27017 1.211,-1.74597c-0.10702,-0.58858 -0.36293,-0.80954 -0.68384,-0.97095z" data-paper-data="{&quot;noHover&quot;:false,&quot;origItem&quot;:[&quot;Path&quot;,{&quot;applyMatrix&quot;:true,&quot;segments&quot;:[[[316.55715,134.94606],[0,0],[0.32091,0.16141]],[[317.28415,136.00721],[-0.10702,-0.58858],[0.26833,1.4758]],[[316.07667,137.75134],[0,0],[-1.06128,0.10809]],[[313.61283,139.32306],[0.60459,-0.86855],[0.24088,0.38652]],[[313.39436,141.15829],[0.72436,-0.72435],[-0.28517,0.28517]],[[312.55947,141.61561],[0.26456,-0.04033],[-0.66455,2.15544]],[[311.58851,147.90185],[0.13369,-1.5746],[-0.36558,4.30568]],[[313.12312,160.73629],[-2.1646,-3.92564],[1.17397,2.12907]],[[317.61354,166.59809],[-1.26965,-2.09138],[1.67622,2.76109]],[[323.16481,173.8265],[-2.48714,-2.15477],[1.59423,2.18328]],[[328.4609,182.11331],[-2.21244,-1.53489],[0.67998,0.47174]],[[331.76461,182.21781],[-0.64264,0.09645],[0.82864,-0.12437]],[[334.24487,181.78511],[-0.82506,0.16076],[0.3686,-0.27295]],[[335.32545,181.5677],[-0.31341,-0.06404],[1.67012,-0.34536]],[[340.32527,180.50649],[-1.66469,0.3343],[0.60946,-0.12239]],[[343.84878,178.62707],[0.39263,1.52763],[-0.41724,-1.6234]],[[340.37421,174.99211],[1.16817,1.20204],[-2.60358,-2.67905]],[[331.44099,169.11532],[2.98995,2.09383],[-1.86991,-1.30948]],[[328.144,164.46483],[1.08273,2.01789],[-1.17525,-4.00857]],[[326.30182,151.96345],[-0.27121,4.21128],[0.26657,-4.13917]],[[325.44042,140.64915],[2.13068,3.75548],[-1.28968,-2.27315]],[[320.55518,135.91341],[1.96826,1.60079],[-0.7593,-0.61754]],[[318.43807,133.87899],[0.69741,0.68667],[-0.20364,-0.2005]],[[317.85273,133.25256],[0.27152,-0.08914],[-0.49477,0.16245]],[[316.55714,134.94605],[0.35335,-0.76265],[0,0]]],&quot;closed&quot;:true,&quot;fillColor&quot;:[0,0,0,1],&quot;strokeWidth&quot;:0.5}]}" fill="#fffcff" stroke="none" stroke-width="0.25"/><path d="M341.36019,207.5911c0.14038,-0.41773 0.27294,-0.83823 0.38902,-1.25374c0.33753,-0.30594 0.73989,-0.62051 1.20827,-0.94198c1.9108,-1.63478 5.18782,-3.75963 5.92069,-6.36062c0.13248,-0.47019 0.2144,-0.91201 0.24904,-1.32491h-0.00001c1.86233,-0.12313 3.74729,-0.16842 5.61894,-0.17311c1.56291,-0.00392 3.7935,-0.75056 5.25889,-0.07076c1.52276,0.70641 -0.72027,4.72986 -0.9713,5.32772c-1.2004,2.85895 -2.73921,5.65951 -3.7633,8.57694c-0.71969,2.05024 -0.21806,2.81658 -1.65316,4.44025c-4.33267,2.55211 -9.62122,5.27315 -12.61933,9.45998c-0.64059,0.89457 -0.99171,1.85349 -1.44933,2.85409c-0.3542,0.77447 -0.65536,3.13527 -1.10641,2.4129c-1.41324,-2.26335 -4.29888,-7.21977 -3.33831,-10.05674c0.79673,-2.3531 2.62307,-4.31129 3.50755,-6.75159c0.74842,-0.73123 1.40702,-1.5842 1.93231,-2.54816c0.58416,-1.07199 0.42754,-2.43305 0.81643,-3.59027z" data-paper-data="{&quot;noHover&quot;:false,&quot;origItem&quot;:[&quot;Path&quot;,{&quot;applyMatrix&quot;:true,&quot;segments&quot;:[[[341.39564,207.62636],[0,0],[-0.38889,1.15722]],[[340.59047,211.19922],[0.58416,-1.07199],[-0.52529,0.96396]],[[338.66144,213.73061],[0.74842,-0.73123],[-0.88448,2.4403]],[[335.14828,220.45808],[0.79673,-2.3531],[-0.96057,2.83697]],[[338.46661,230.49421],[-1.41324,-2.26335],[0.45105,0.72237]],[[339.52366,228.16828],[-0.3542,0.77447],[0.45762,-1.0006]],[[341.02346,225.22786],[-0.64059,0.89457],[2.99811,-4.18683]],[[353.56965,215.79565],[-4.33267,2.55211],[1.4351,-1.62367]],[[355.22308,211.38668],[-0.71969,2.05024],[1.02409,-2.91743]],[[358.99811,202.82877],[-1.2004,2.85895],[0.25103,-0.59786]],[[359.97514,197.50605],[1.52276,0.70641],[-1.46539,-0.6798]],[[354.72646,197.58269],[1.56291,-0.00392],[-1.87165,0.00469]],[[349.1229,197.75965],[1.86233,-0.12313],[0,0]],[[349.12291,197.75965],[0,0],[-0.03464,0.4129]],[[348.87432,199.0846],[0.13248,-0.47019],[-0.73287,2.60099]],[[342.98188,205.43901],[1.9108,-1.63478],[-0.46838,0.32147]],[[341.78015,206.37663],[0.33753,-0.30594],[-0.11608,0.41551]],[[341.39563,207.62636],[0.14038,-0.41773],[0,0]]],&quot;closed&quot;:true,&quot;fillColor&quot;:[0,0,0,1],&quot;strokeWidth&quot;:0.5}]}" fill="#fffcff" stroke="none" stroke-width="0.25"/><path d="M303.89088,207.44328c-0.27266,0.13632 -0.46442,0.30487 -0.59337,0.47972c-1.09033,0.31668 -2.11634,0.63433 -2.94715,0.96268c-0.59685,0.23589 -1.04565,0.88107 -1.6802,0.97705c-2.19119,0.33142 -4.79986,-0.7096 -7.0932,-0.37825c-2.86793,0.41438 -5.38067,2.5127 -7.92596,3.78486c-0.5352,0.26749 -1.02015,0.4411 -1.48428,0.8187c-0.26752,0.21765 -0.51068,1.23458 -0.65075,0.91943c-0.23913,-0.53803 0.14897,-1.17301 0.16774,-1.76149c0.06196,-1.94269 -0.03204,-3.90265 -0.03868,-5.84632c-0.00265,-2.08576 0.3673,-4.17852 -0.01755,-6.25448c-0.059,-0.31826 -0.54601,-0.5979 -0.40006,-0.88681c1.19173,-2.35908 5.48384,-1.3125 6.93841,-3.44364c0.39091,-0.57274 0.33273,-1.33529 0.38767,-2.04493c1.94813,-0.62253 3.95674,-0.85507 5.93233,0.10536c0.55704,0.2708 1.04186,0.60982 1.46827,0.99515c0.07355,0.17294 0.19344,0.35064 0.37139,0.52859c0.15332,0.15332 0.30922,0.26204 0.45934,0.33632c1.55218,1.84866 2.53811,4.21569 4.85375,5.1691c1.7544,0.72233 6.45039,0.31088 8.3088,-0.11647c0.71087,-0.16347 1.28131,-0.46238 1.93953,-0.77671c0.53216,-0.25414 1.37913,-1.45692 1.62317,-0.92005c0.16179,0.35591 0.1026,0.77868 0.15348,1.16632c-0.8259,3.4256 -4.79842,4.99149 -8.51223,6.11504c-0.31864,-0.14992 -0.73963,-0.18957 -1.26045,0.07084z" data-paper-data="{&quot;noHover&quot;:false,&quot;origItem&quot;:[&quot;Path&quot;,{&quot;applyMatrix&quot;:true,&quot;segments&quot;:[[[303.84496,207.42347],[0,0],[0.52082,-0.26041]],[[305.10415,207.35584],[-0.31864,-0.14992],[3.71381,-1.12355]],[[313.61461,201.26764],[-0.8259,3.4256],[-0.05088,-0.38764]],[[313.46197,200.10473],[0.16179,0.35591],[-0.24404,-0.53687]],[[311.93538,200.99889],[0.53216,-0.25414],[-0.65822,0.31433]],[[309.89863,201.799],[0.71087,-0.16347],[-1.85841,0.42735]],[[301.59673,201.93167],[1.7544,0.72233],[-2.31564,-0.95341]],[[296.78889,196.78503],[1.55218,1.84866],[-0.15012,-0.07428]],[[296.33212,196.44843],[0.15332,0.15332],[-0.17795,-0.17795]],[[295.96238,195.91959],[0.07355,0.17294],[-0.42641,-0.38533]],[[294.50024,194.92301],[0.55704,0.2708],[-1.97559,-0.96043]],[[288.5869,194.80698],[1.94813,-0.62253],[-0.05494,0.70964]],[[288.20399,196.84701],[0.39091,-0.57274],[-1.45457,2.13114]],[[281.27567,200.27145],[1.19173,-2.35908],[-0.14595,0.28891]],[[281.67629,201.15601],[-0.059,-0.31826],[0.38485,2.07596]],[[281.69429,207.39109],[-0.00265,-2.08576],[0.00664,1.94367]],[[281.7276,213.22203],[0.06196,-1.94269],[-0.01877,0.58848]],[[281.55788,214.9802],[-0.23913,-0.53803],[0.14007,0.31515]],[[282.12418,214.11431],[-0.26752,0.21765],[0.46413,-0.3776]],[[283.6934,213.24283],[-0.5352,0.26749],[2.54529,-1.27216]],[[291.61554,209.45266],[-2.86793,0.41438],[2.29334,-0.33135]],[[298.65859,209.81408],[-2.19119,0.33142],[0.63455,-0.09598]],[[300.32196,208.84452],[-0.59685,0.23589],[0.83081,-0.32835]],[[303.25383,207.89867],[-1.09033,0.31668],[0.12895,-0.17485]],[[303.84497,207.42347],[-0.27266,0.13632],[0,0]]],&quot;closed&quot;:true,&quot;fillColor&quot;:[0,0,0,1],&quot;strokeWidth&quot;:0.5}]}" fill="#fffcff" stroke="none" stroke-width="0.25"/><path d="M324.70061,225.23303c-0.83205,1.24808 -2.08013,0.41603 -2.08013,0.41603l0.17505,-0.1017c-0.60834,-0.0553 -1.2047,-0.12184 -1.79775,-0.17525c1.9266,1.08412 1.736,2.62313 2.23579,4.99253c0.77392,3.66894 1.47908,7.30286 -0.17216,10.85503c-2.07103,4.45523 -7.67258,6.13001 -11.71556,7.84648c-4.70732,1.99852 -8.73927,3.99064 -13.80142,5.11739c-1.10824,0.24038 -5.21321,1.08042 -6.02983,-0.01117c-0.80685,-1.07853 -0.89456,-5.92587 -0.65305,-7.34741c0.66127,-3.89236 3.379,-6.54038 5.42772,-9.65946c1.44383,-2.19817 1.721,-5.3283 3.11935,-7.45762c2.36237,-3.59728 6.08625,-3.24557 9.74107,-4.31914c2.74109,-0.80517 5.3657,-2.02017 8.05874,-2.97056c2.0231,-0.22749 3.83646,-0.04235 5.85872,0.14149l1.21744,0.59323c0,0 1.24808,0.83205 0.41603,2.08013zM316.38786,225.89794c-2.78477,1.05931 -5.51685,2.18677 -8.45065,2.8158c-2.00416,0.4297 -4.77204,0.49633 -5.95847,2.54157c-1.30055,2.24196 -1.68642,5.23375 -3.135,7.48331c-2.56599,3.98486 -6.42581,7.89765 -5.30178,13.22246c0.04659,0.2207 0.32863,-0.35061 0.54991,-0.39435c0.92185,-0.18221 1.88575,-0.10219 2.80178,-0.31174c4.89363,-1.08579 8.74663,-3.0204 13.30073,-4.95905c3.27673,-1.39488 6.52562,-2.41677 9.22048,-5.03712c2.80412,-2.7266 1.42743,-7.04147 0.8727,-10.32763c-0.34129,-2.02179 -0.04917,-3.53836 -2.27399,-2.80081c0,0 -1.47087,0.29417 -1.76505,-1.1767c-0.09129,-0.45643 -0.01261,-0.79955 0.13934,-1.05573z" fill="#000000" stroke="none" stroke-width="0.5"/><path d="M316.41657,225.85702c-0.15195,0.25618 -0.2293,0.60026 -0.13801,1.05669c0.29418,1.47087 1.7703,1.18125 1.7703,1.18125c2.22482,-0.73755 1.94001,0.78827 2.2813,2.81006c0.55473,3.28616 1.93795,7.6365 -0.86617,10.3631c-2.69486,2.62035 -5.97416,3.67931 -9.25089,5.07419c-4.5541,1.93865 -8.45799,3.86518 -13.35162,4.95097c-0.91603,0.20955 -1.88383,0.12588 -2.80568,0.30809c-0.22128,0.04374 -0.5035,0.61487 -0.55009,0.39417c-1.12403,-5.32481 2.72205,-9.27333 5.28804,-13.25819c1.44858,-2.24956 1.85626,-5.28137 3.15681,-7.52333c1.18643,-2.04524 3.98593,-2.12044 5.99009,-2.55014c2.9338,-0.62903 5.69115,-1.74754 8.47592,-2.80685z" data-paper-data="{&quot;noHover&quot;:false,&quot;origItem&quot;:[&quot;Path&quot;,{&quot;applyMatrix&quot;:true,&quot;segments&quot;:[[[316.38786,225.89793],[0,0],[-2.78477,1.05931]],[[307.93721,228.71373],[2.9338,-0.62903],[-2.00416,0.4297]],[[301.97874,231.2553],[1.18643,-2.04524],[-1.30055,2.24196]],[[298.84374,238.73861],[1.44858,-2.24956],[-2.56599,3.98486]],[[293.54196,251.96107],[-1.12403,-5.32481],[0.04659,0.2207]],[[294.09187,251.56672],[-0.22128,0.04374],[0.92185,-0.18221]],[[296.89365,251.25498],[-0.91603,0.20955],[4.89363,-1.08579]],[[310.19438,246.29593],[-4.5541,1.93865],[3.27673,-1.39488]],[[319.41486,241.25881],[-2.69486,2.62035],[2.80412,-2.7266]],[[320.28756,230.93118],[0.55473,3.28616],[-0.34129,-2.02179]],[[318.01357,228.13037],[2.22482,-0.73755],[0,0]],[[316.24852,226.95367],[0.29418,1.47087],[-0.09129,-0.45643]],[[316.38786,225.89794],[-0.15195,0.25618],[0,0]]],&quot;closed&quot;:true,&quot;fillColor&quot;:[0,0,0,1],&quot;strokeWidth&quot;:0.5}]}" fill="#fffcff" stroke="none" stroke-width="0.25"/><path d="M286.59862,162.32261c2.38012,-0.05725 4.27345,0.19991 4.62047,3.62876c0.09399,0.92874 0.1282,1.99311 -0.38309,2.77411c-1.75478,2.6805 -8.23635,3.57104 -11.16823,3.16494c-3.77911,-0.52346 -13.36846,-6.68821 -6.62001,-10.28881c0.88995,-0.47483 1.99442,-0.30364 2.99163,-0.45546c3.28209,-0.27186 6.38702,0.3114 9.64065,0.30293zM282.98911,164.3349c-2.20393,-0.15565 -4.37896,-0.39447 -6.63903,-0.20488c-6.05825,0.50845 1.56608,4.53568 3.83547,4.80542c2.2692,0.26971 4.80818,-0.52424 6.89759,-1.28859c0.80993,-0.29629 2.02317,-1.38113 1.18219,-2.48339c-0.13634,-0.1787 -0.41496,0.19368 -0.63855,0.21675c-0.09407,0.00971 -0.18823,0.0177 -0.28247,0.02421c-0.02933,0.0205 -0.05991,0.04072 -0.09178,0.06064c-0.74261,0.46413 -1.32263,0.22375 -1.67681,-0.05672c-0.38009,-0.01261 -0.76023,-0.02627 -1.13965,-0.02627c0,0 -1.18043,0 -1.44696,-1.04716z" fill="#000000" stroke="none" stroke-width="0.5"/><path d="M283.01959,164.29528c0.26653,1.04716 1.46345,1.06965 1.46345,1.06965c0.37942,0 0.76096,0.01816 1.14105,0.03077c0.35418,0.28047 0.8366,0.54226 1.57921,0.07813c0.03187,-0.01992 0.06251,-0.03979 0.09184,-0.06029c0.09424,-0.00651 0.18836,-0.01471 0.28243,-0.02442c0.22359,-0.02307 0.60048,-0.41395 0.73682,-0.23525c0.84098,1.10226 -0.37225,2.20623 -1.18218,2.50252c-2.08941,0.76435 -4.69853,1.59412 -6.96773,1.32441c-2.26939,-0.26974 -9.91768,-4.36408 -3.85943,-4.87253c2.26007,-0.18959 4.5106,0.03135 6.71453,0.187z" data-paper-data="{&quot;noHover&quot;:false,&quot;origItem&quot;:[&quot;Path&quot;,{&quot;applyMatrix&quot;:true,&quot;segments&quot;:[[[282.98911,164.33489],[0,0],[-2.20393,-0.15565]],[[276.35008,164.13001],[2.26007,-0.18959],[-6.05825,0.50845]],[[280.18555,168.93543],[-2.26939,-0.26974],[2.2692,0.26971]],[[287.08314,167.64684],[-2.08941,0.76435],[0.80993,-0.29629]],[[288.26533,165.16345],[0.84098,1.10226],[-0.13634,-0.1787]],[[287.62678,165.3802],[0.22359,-0.02307],[-0.09407,0.00971]],[[287.34431,165.40441],[0.09424,-0.00651],[-0.02933,0.0205]],[[287.25253,165.46505],[0.03187,-0.01992],[-0.74261,0.46413]],[[285.57572,165.40833],[0.35418,0.28047],[-0.38009,-0.01261]],[[284.43607,165.38206],[0.37942,0],[0,0]],[[282.98911,164.3349],[0.26653,1.04716],[0,0]]],&quot;closed&quot;:true,&quot;fillColor&quot;:[0,0,0,1],&quot;strokeWidth&quot;:0.5}]}" fill="#fffcff" stroke="none" stroke-width="0.25"/><path d="M162.93711,312.47427v-265.67406h312.10191v265.67406z" fill="none" stroke="#000000" stroke-width="0"/></g></g></svg>