<svg version="1.1" xmlns="http://www.w3.org/2000/svg" xmlns:xlink="http://www.w3.org/1999/xlink" width="312.10191" height="265.67406" viewBox="0,0,312.10191,265.67406"><g transform="translate(-162.93711,-46.80021)"><g data-paper-data="{&quot;isPaintingLayer&quot;:true}" fill-rule="nonzero" stroke-linecap="butt" stroke-linejoin="miter" stroke-miterlimit="10" stroke-dasharray="" stroke-dashoffset="0" style="mix-blend-mode: normal"><path d="M317.17268,196.55611c1.15998,-0.07221 2.29965,0.04839 3.36744,0.63872c4.28824,2.37073 8.5571,11.01199 5.38029,15.75767c-3.0035,4.48679 -9.98011,4.60923 -14.35844,2.87837c-2.24832,-1.35057 -5.61742,-3.42301 -6.88648,-5.81516c-0.06818,-0.12853 -0.13854,-0.27438 -0.21027,-0.43535c-0.22848,0.80743 -0.2224,1.69395 -0.59722,2.44424c-4.17323,8.35396 -13.28384,3.9378 -18.71547,0.22749c-1.38409,-0.94546 -2.9701,-1.74079 -3.97045,-3.08574c-2.74002,-3.68392 0.19838,-7.71461 1.64199,-11.60454c-0.51963,-0.02072 -1.13356,0.1465 -1.87309,0.55748l0.21611,-0.10725c0,0 -1.06066,1.06066 -2.12132,0l0.00002,-0.00002c-1.06066,-1.06066 0,-2.12132 0,-2.12132l0.56357,-0.45471c0.58636,-0.27422 1.11423,-0.76622 1.75907,-0.82265c0.85314,-0.07466 1.58306,-0.05948 2.21627,0.03872c0.16459,-0.42732 0.57764,-1.05075 1.57229,-0.92642c1.48841,0.18605 1.30236,1.67446 1.30236,1.67446c-0.03179,0.2405 -0.05418,0.48305 -0.0739,0.72618c0.80906,0.89936 1.38675,2.1574 2.04269,3.69438c0.51434,1.20519 0.21911,3.28005 1.47834,3.64248c0.44222,0.12728 0.53774,-0.75518 0.87669,-1.06643c0.74875,-0.68757 1.52911,-1.34852 2.37199,-1.91678c2.80727,-1.89263 7.08838,-3.2923 9.89616,-1.12375c2.0298,-4.72693 9.38961,-4.42762 13.467,-3.11487zM311.24627,198.6426c-0.66113,-0.01201 -3.12661,-0.08672 -3.7472,0.20166c-3.10542,1.44304 -1.35491,7.45288 -0.20452,9.70841c0.93278,1.82888 3.89704,3.57012 5.60051,4.59067c3.28509,1.33587 8.20089,1.10091 10.61555,-1.97768c0.75841,-0.96694 0.25356,-1.7944 0.07066,-2.85813c-0.61256,-3.56253 -0.97215,-6.43283 -4.40248,-8.43935c-0.57672,-0.33734 -1.3046,-0.41792 -2.08286,-0.3732c-0.10999,0.02127 -0.21809,0.02787 -0.32045,0.02491c-1.35967,0.1315 -2.82786,0.5811 -3.89087,0.67888c0,0 -1.49384,0.1358 -1.62964,-1.35804c-0.00626,-0.0689 -0.00906,-0.1349 -0.0087,-0.19814zM285.30717,200.04061c-1.28256,2.32781 -3.39948,5.49119 -1.75933,7.28092c0.93356,1.01869 2.1858,1.69359 3.32629,2.47368c3.85417,2.63623 7.35517,5.44388 11.9417,3.05193c0.86843,-0.4529 1.93042,-1.1891 2.35187,-2.12952c0.28247,-0.63031 0.23499,-1.36456 0.43183,-2.02663c0.43685,-1.46934 0.69191,-3.05629 0.47641,-4.57397c-0.73944,-6.06412 -6.94302,-0.94527 -9.51572,0.69675c-0.99221,0.63327 -1.99736,1.87812 -3.1433,1.60916c-2.42706,-0.56966 -3.08678,-3.96418 -4.10975,-6.38231z" fill="#000000" stroke="none" stroke-width="0.5"/><path d="M311.26755,198.68782c-0.00036,0.06324 -0.04054,0.03895 -0.03428,0.10785c0.1358,1.49384 1.63606,1.35548 1.63606,1.35548c1.06301,-0.09778 2.5603,-0.54782 3.91997,-0.67932c0.10236,0.00296 0.21247,-0.00301 0.32246,-0.02428c0.77826,-0.04472 1.51838,0.04191 2.0951,0.37925c3.43033,2.00652 3.81054,4.92953 4.4231,8.49206c0.1829,1.06373 0.6826,1.90442 -0.07581,2.87136c-2.41466,3.07859 -7.38758,3.33711 -10.67267,2.00124c-1.70347,-1.02055 -4.70201,-2.79543 -5.63479,-4.62431c-1.15039,-2.25553 -2.88818,-8.31543 0.21724,-9.75847c0.62059,-0.28838 3.09993,-0.22334 3.76106,-0.21133z" data-paper-data="{&quot;noHover&quot;:false,&quot;origItem&quot;:[&quot;Path&quot;,{&quot;applyMatrix&quot;:true,&quot;segments&quot;:[[[311.24627,198.64259],[0,0],[-0.66113,-0.01201]],[[307.49907,198.84425],[0.62059,-0.28838],[-3.10542,1.44304]],[[307.29455,208.55266],[-1.15039,-2.25553],[0.93278,1.82888]],[[312.89506,213.14333],[-1.70347,-1.02055],[3.28509,1.33587]],[[323.51061,211.16565],[-2.41466,3.07859],[0.75841,-0.96694]],[[323.58127,208.30752],[0.1829,1.06373],[-0.61256,-3.56253]],[[319.17879,199.86817],[3.43033,2.00652],[-0.57672,-0.33734]],[[317.09593,199.49497],[0.77826,-0.04472],[-0.10999,0.02127]],[[316.77548,199.51988],[0.10236,0.00296],[-1.35967,0.1315]],[[312.88461,200.19876],[1.06301,-0.09778],[0,0]],[[311.25497,198.84072],[0.1358,1.49384],[-0.00626,-0.0689]],[[311.24627,198.64258],[-0.00036,0.06324],[0,0]]],&quot;closed&quot;:true,&quot;fillColor&quot;:[0,0,0,1]}]}" fill="#fdaa9c" stroke="none" stroke-width="0.5"/><path d="M285.34349,200.075c1.02297,2.41813 1.69582,5.78575 4.12288,6.35541c1.14594,0.26896 2.10185,-1.03337 3.09406,-1.66664c2.5727,-1.64202 8.82407,-6.72488 9.56351,-0.66076c0.2155,1.51768 -0.03851,3.12837 -0.47536,4.5977c-0.19684,0.66207 -0.15269,1.40686 -0.43516,2.03717c-0.42145,0.94042 -1.4929,1.69079 -2.36133,2.14369c-4.58653,2.39195 -8.16832,-0.4274 -12.02249,-3.06363c-1.14049,-0.78009 -2.39814,-1.47537 -3.3317,-2.49406c-1.64015,-1.78973 0.4904,-4.98983 1.77296,-7.31764z" data-paper-data="{&quot;noHover&quot;:false,&quot;origItem&quot;:[&quot;Path&quot;,{&quot;applyMatrix&quot;:true,&quot;segments&quot;:[[[570.61434,400.08118],[0,0],[-2.56512,4.65562]],[[567.09568,414.64302],[-3.2803,-3.57946],[1.86712,2.03738]],[[573.74826,419.59038],[-2.28098,-1.56018],[7.70834,5.27246]],[[597.63166,425.69424],[-9.17306,4.7839],[1.73686,-0.9058]],[[602.3354,421.4352],[-0.8429,1.88084],[0.56494,-1.26062]],[[603.19906,417.38194],[-0.39368,1.32414],[0.8737,-2.93868]],[[604.15188,408.234],[0.431,3.03536],[-1.47888,-12.12824]],[[585.12044,409.6275],[5.1454,-3.28404],[-1.98442,1.26654]],[[578.83384,412.84582],[2.29188,0.53792],[-4.85412,-1.13932]],[[570.61434,400.0812],[2.04594,4.83626],[0,0]]],&quot;closed&quot;:true,&quot;fillColor&quot;:[0,0,0,1],&quot;strokeWidth&quot;:0.5}]}" fill="#fffcff" stroke="none" stroke-width="0.25"/><path d="M299.15079,225.21333c4.66458,-1.22717 9.49844,-2.05026 13.94305,-1.06039c1.33724,0.29782 3.74196,0.67588 4.74713,1.81008c2.26772,2.55881 1.95589,8.22177 1.81275,11.46402c-0.04287,0.97108 0.27287,2.08169 -0.24226,2.90601c-1.34325,2.14953 -6.38888,1.92912 -8.48889,2.1829c-4.21781,1.05805 -10.83642,3.07993 -15.22056,1.74964c-3.02663,-0.91838 -3.1684,-1.61799 -5.55116,-3.41015c-0.80849,-0.6081 -1.8172,-0.98193 -2.48593,-1.74103c-2.65027,-3.00841 -0.656,-4.9891 1.18705,-7.46921c0.527,-0.70916 1.0242,-1.41859 1.53154,-2.08788c-0.02943,-0.07008 -0.05602,-0.14568 -0.0793,-0.2272c-0.41208,-1.44228 1.0302,-1.85437 1.0302,-1.85437c0.45165,-0.12903 0.90879,-0.26263 1.37074,-0.39915c1.03957,-0.80283 2.26893,-1.32856 3.88047,-1.38261l1.71547,-0.48162c0,0 0.40794,-0.11125 0.8497,0.00096zM294.02885,229.7985c-1.06367,0.98236 -1.84958,2.43227 -2.77981,3.65057c-0.743,0.97308 -2.89482,2.25468 -1.32784,3.68814c1.67589,1.53308 4.35654,3.56838 6.55638,4.23033c3.93566,1.18428 10.14048,-0.85834 13.89756,-1.80125c0.32498,-0.03986 6.39423,-0.52158 6.52085,-0.86802c0.45274,-1.23871 -0.52552,-5.17912 -0.58736,-6.34861c-0.07292,-1.37907 0.46116,-3.08783 -0.62185,-4.29874c-0.86653,-0.96887 -4.36293,-1.32892 -5.50901,-1.46336c-4.90379,-0.57524 -11.1258,1.64853 -16.14892,3.21093z" fill="#000000" stroke="none" stroke-width="0.5"/><path d="M293.98361,229.77719c5.02312,-1.5624 11.3244,-3.80151 16.22819,-3.22627c1.14608,0.13444 4.65344,0.50931 5.51997,1.47818c1.08301,1.21091 0.5535,2.93483 0.62642,4.3139c0.06184,1.16949 1.03796,5.13242 0.58522,6.37113c-0.12662,0.34644 -6.20346,0.84252 -6.52844,0.88238c-3.75708,0.94291 -10.03567,2.992 -13.97133,1.80772c-2.19984,-0.66195 -4.89529,-2.72284 -6.57118,-4.25592c-1.56698,-1.43346 0.58366,-2.72895 1.32666,-3.70203c0.93023,-1.2183 1.72083,-2.68674 2.7845,-3.6691z" data-paper-data="{&quot;noHover&quot;:false,&quot;origItem&quot;:[&quot;Path&quot;,{&quot;applyMatrix&quot;:true,&quot;segments&quot;:[[[294.02885,229.79848],[0,0],[-1.06367,0.98236]],[[291.24904,233.44905],[0.93023,-1.2183],[-0.743,0.97308]],[[289.9212,237.13719],[-1.56698,-1.43346],[1.67589,1.53308]],[[296.47758,241.36752],[-2.19984,-0.66195],[3.93566,1.18428]],[[310.37514,239.56627],[-3.75708,0.94291],[0.32498,-0.03986]],[[316.89599,238.69825],[-0.12662,0.34644],[0.45274,-1.23871]],[[316.30863,232.34964],[0.06184,1.16949],[-0.07292,-1.37907]],[[315.68678,228.0509],[1.08301,1.21091],[-0.86653,-0.96887]],[[310.17777,226.58754],[1.14608,0.13444],[-4.90379,-0.57524]],[[294.02885,229.79847],[5.02312,-1.5624],[0,0]]],&quot;closed&quot;:true,&quot;fillColor&quot;:[0,0,0,1],&quot;strokeWidth&quot;:0.5}]}" fill="#fffcff" stroke="none" stroke-width="0.25"/><path d="M335.71264,221.9672c-0.14648,-0.15065 -0.27453,-0.35558 -0.36674,-0.63219c-0.47434,-1.42302 0.94869,-1.89737 0.94869,-1.89737c0.19608,-0.0617 0.39035,-0.12946 0.58283,-0.20292c0.09389,-0.41588 0.3735,-0.8849 1.12699,-1.05235c0.36771,-0.08171 0.66359,-0.05057 0.90054,0.0419c3.0063,-1.84918 5.50074,-4.94346 7.45855,-7.63262c0.65927,-0.90553 1.61236,-1.65168 1.99391,-2.70479c0.45346,-1.25161 -0.0543,-2.81543 0.66001,-3.93877c1.95222,-3.07009 4.6369,-3.70942 7.71291,-4.7918c1.70907,-0.60138 4.87552,-2.65019 6.71813,-2.13404c0.97706,0.27369 1.57493,1.27974 2.36239,1.91961c0.42687,1.8208 1.37402,4.28055 0.35672,6.18616c-1.0648,1.99458 -4.97443,3.09181 -6.681,4.29739c-1.40066,0.98947 -2.58231,2.26131 -3.79249,3.47637c-0.88132,0.88486 -2.44979,1.50137 -2.54852,2.74635c-0.27805,3.50618 3.00095,6.94458 -1.21651,9.6243c-3.92611,2.4946 -11.76732,1.21016 -16.1486,0.89877l-0.01402,-0.00611l-0.00044,0.00486l-1.89251,-0.17204c-0.77205,-0.06141 -1.37943,-0.70739 -1.37943,-1.49523c0,-0.6236 0.38055,-1.15833 0.92209,-1.38462l1.52958,-0.67981l0.04713,0.10604c0.23735,-0.19375 0.47659,-0.3852 0.7198,-0.57711zM340.02757,220.98919l0.08927,0.63774c-0.413,0.46366 -0.89417,1.15968 -1.4205,1.78509c3.87673,0.35199 8.53346,0.7106 11.70193,-0.71962c2.09992,-0.94789 -0.38488,-6.43991 -0.17593,-7.71874c0.12705,-0.77752 2.87165,-3.71116 3.34811,-4.19087c1.32912,-1.33819 2.64697,-2.71648 4.18531,-3.80772c1.05982,-0.7518 5.05451,-2.05267 5.80599,-3.33355c0.25358,-0.43223 -0.29709,-2.95623 -0.337,-3.17908c-0.28902,-0.35622 -0.94714,-0.18685 -1.37597,-0.02396c-1.99019,0.75597 -5.6275,1.22326 -7.36186,2.31289c-3.01763,1.89586 -2.29096,3.42188 -3.2919,6.10911c-0.48976,1.31486 -1.55927,2.33409 -2.38551,3.46814c-2.35575,3.23336 -5.24029,6.58678 -8.78194,8.66056z" fill="#000000" stroke="none" stroke-width="0.5"/><path d="M339.98868,221.02061c3.54165,-2.07378 6.41559,-5.4515 8.77134,-8.68486c0.82624,-1.13405 1.94576,-2.2104 2.43552,-3.52526c1.00094,-2.68723 0.29068,-4.2103 3.30831,-6.10616c1.73436,-1.08963 5.38869,-1.54658 7.37888,-2.30255c0.42883,-0.16289 1.08914,-0.3301 1.37816,0.02612c0.03991,0.22285 0.59591,2.75347 0.34233,3.1857c-0.75148,1.28088 -4.82744,2.63994 -5.88726,3.39174c-1.53834,1.09124 -2.77169,2.41686 -4.10081,3.75505c-0.47646,0.47971 -3.25074,3.38807 -3.37779,4.16559c-0.20895,1.27883 2.25727,6.86841 0.15735,7.8163c-3.16847,1.43022 -7.8585,1.05552 -11.73523,0.70353c0.52633,-0.62541 1.00669,-1.32234 1.41969,-1.786l-0.09048,-0.63918z" data-paper-data="{&quot;noHover&quot;:false,&quot;origItem&quot;:[&quot;Path&quot;,{&quot;applyMatrix&quot;:true,&quot;segments&quot;:[[340.02757,220.98916],[[340.11684,221.6269],[0,0],[-0.413,0.46366]],[[338.69634,223.41199],[0.52633,-0.62541],[3.87673,0.35199]],[[350.39827,222.69237],[-3.16847,1.43022],[2.09992,-0.94789]],[[350.22234,214.97363],[-0.20895,1.27883],[0.12705,-0.77752]],[[353.57045,210.78276],[-0.47646,0.47971],[1.32912,-1.33819]],[[357.75576,206.97504],[-1.53834,1.09124],[1.05982,-0.7518]],[[363.56175,203.64149],[-0.75148,1.28088],[0.25358,-0.43223]],[[363.22475,200.46241],[0.03991,0.22285],[-0.28902,-0.35622]],[[361.84878,200.43845],[0.42883,-0.16289],[-1.99019,0.75597]],[[354.48692,202.75134],[1.73436,-1.08963],[-3.01763,1.89586]],[[351.19502,208.86045],[1.00094,-2.68723],[-0.48976,1.31486]],[[348.80951,212.32859],[0.82624,-1.13405],[-2.35575,3.23336]],[[340.02757,220.98915],[3.54165,-2.07378],[0,0]]],&quot;closed&quot;:true,&quot;fillColor&quot;:[0,0,0,1],&quot;strokeWidth&quot;:0.5}]}" fill="#fffcff" stroke="none" stroke-width="0.25"/><path d="M331.41265,163.16654c5.03012,-0.28437 9.46823,4.14162 11.39313,8.40186c0.58916,1.30396 0.46829,2.83819 0.9449,4.18735c0.79961,2.26347 2.25493,3.13035 4.18317,4.35527l1.50405,0.83558c0.47454,0.25189 0.79773,0.7511 0.79773,1.32579c0,0.82843 -0.67158,1.5 -1.5,1.5c-0.06344,0 -0.12595,-0.00394 -0.18731,-0.01158l-2.95999,-0.32889l0.03911,-0.35197c-4.3097,0.06283 -8.61309,-0.45083 -12.88288,0.13947c-4.16337,0.57558 -3.61784,7.23303 -7.67401,7.31376c-2.34083,0.04658 -4.42387,-1.93489 -5.9666,-3.34149c-1.62268,-1.4795 -4.20718,-3.4135 -5.0475,-5.54671c-0.97931,-2.48602 -1.25864,-4.43284 -2.53588,-6.81728c1.05935,-4.03793 3.17057,-8.12488 3.6365,-12.28765c0.26731,-2.38823 -1.14843,-6.79464 -1.85589,-9.16464c-0.55945,-1.87418 -1.68991,-2.82965 -1.43395,-4.93314c1.13781,-9.35074 12.30694,-12.14557 20.00283,-12.21037c0.90616,0.44413 1.99381,0.63012 2.7185,1.33241c0.33109,0.32085 1.23017,3.36186 1.37726,3.92033c1.09098,4.1424 0.39227,7.42489 0.08182,11.62502c-0.11133,1.50617 0.16519,3.49224 -0.49433,4.93621c-0.96146,2.10502 -2.70914,3.44665 -4.14064,5.12067zM327.28179,164.49345c-0.00014,-0.41951 0.16771,-0.75521 0.16771,-0.75521l0.423,-0.82822c1.40376,-2.18062 3.81476,-3.6767 4.90916,-6.0122c0.3502,-0.74735 0.23263,-3.4552 0.27296,-3.99283c0.29222,-3.89576 1.01342,-6.84046 0.00825,-10.66343c-0.43204,-1.64318 -0.24368,-2.50141 -1.80088,-3.07192c-6.21251,0.20235 -15.21075,2.20605 -16.41757,9.64186c-0.21209,1.30677 0.96724,2.46836 1.34094,3.73839c0.82635,2.8084 2.22105,7.40638 1.95958,10.25957c-0.36378,3.96963 -2.31275,7.93756 -3.64758,11.64576c1.39682,1.96555 1.53585,3.77945 2.32018,6.01657c0.37523,1.07027 1.45768,1.68792 2.21245,2.4059c1.61856,1.53967 3.47913,4.17173 5.8508,4.6615c0.66485,0.1373 0.70533,-1.16219 1.0057,-1.77101c0.93412,-1.89331 2.3747,-3.55778 4.2264,-4.61591c3.36856,-1.92492 8.87086,-0.95755 12.68698,-0.84774c0.08664,0.0025 0.17365,0.00324 0.26092,0.00272c-0.24804,-0.276 -0.49724,-0.5994 -0.76064,-0.99548c-1.61209,-2.42419 -1.06991,-4.02565 -2.20282,-6.45332c-1.43322,-3.07119 -5.07264,-7.50637 -9.05383,-6.64266c-1.51283,0.3282 -3.28964,1.40717 -4.5688,2.23364c0,0 -1.26549,0.80532 -2.07081,-0.46017c-0.80532,-1.26549 0.46017,-2.07081 0.46017,-2.07081c0.69608,-0.43736 1.53692,-0.95796 2.41772,-1.42501z" fill="#000000" stroke="none" stroke-width="0.5"/><path d="M327.24192,164.52363c-0.8808,0.46705 -1.63993,0.93011 -2.336,1.36747c0,0 -1.27301,0.79633 -0.46769,2.06182c0.80532,1.26549 2.05709,0.45096 2.05709,0.45096c1.27916,-0.82647 3.00429,-1.89907 4.51712,-2.22727c3.98119,-0.86371 7.68997,3.6428 9.12319,6.71399c1.13291,2.42767 0.58476,4.03512 2.19685,6.45931c0.2634,0.39608 0.51249,0.71957 0.76053,0.99558c-0.08727,0.00052 -0.17462,0.00007 -0.26126,-0.00243c-3.81612,-0.10981 -9.34656,-1.06584 -12.71512,0.85908c-1.8517,1.05813 -3.30242,2.72233 -4.23654,4.61564c-0.30037,0.60882 -0.34241,1.90809 -1.00726,1.77079c-2.37167,-0.48977 -4.24662,-3.12646 -5.86518,-4.66613c-0.75477,-0.71798 -1.84352,-1.33938 -2.21875,-2.40965c-0.78433,-2.23712 -0.9342,-4.06133 -2.33102,-6.02688c1.33483,-3.7082 3.27335,-7.70939 3.63713,-11.67902c0.26147,-2.85319 -1.12124,-7.48115 -1.94759,-10.28955c-0.3737,-1.27003 -1.54967,-2.43516 -1.33758,-3.74193c1.20682,-7.43581 10.24475,-9.45314 16.45726,-9.65549c1.5572,0.57051 1.37368,1.42948 1.80572,3.07266c1.00517,3.82297 0.29296,6.77039 0.00074,10.66615c-0.04033,0.53763 0.08464,3.24926 -0.26556,3.99661c-1.0944,2.3355 -3.48694,3.89629 -4.89069,6.07691l-0.41971,0.79231c0,0 -0.17608,0.31921 -0.17594,0.73872z" data-paper-data="{&quot;noHover&quot;:false,&quot;origItem&quot;:[&quot;Path&quot;,{&quot;applyMatrix&quot;:true,&quot;segments&quot;:[[[654.56358,328.98686],[0,0],[-0.00028,-0.83902]],[654.899,327.47644],[[655.745,325.82],[0,0],[2.80752,-4.36124]],[[665.56332,313.7956],[-2.1888,4.671],[0.7004,-1.4947]],[[666.10924,305.80994],[-0.08066,1.07526],[0.58444,-7.79152]],[[666.12574,284.48308],[2.01034,7.64594],[-0.86408,-3.28636]],[[662.52398,278.33924],[3.1144,1.14102],[-12.42502,0.4047]],[[629.68884,297.62296],[2.41364,-14.87162],[-0.42418,2.61354]],[[632.37072,305.09974],[-0.7474,-2.54006],[1.6527,5.6168]],[[636.28988,325.61888],[0.52294,-5.70638],[-0.72756,7.93926]],[[628.99472,348.9104],[2.66966,-7.4164],[2.79364,3.9311]],[[633.63508,360.94354],[-1.56866,-4.47424],[0.75046,2.14054]],[[638.05998,365.75534],[-1.50954,-1.43596],[3.23712,3.07934]],[[649.76158,375.07834],[-4.74334,-0.97954],[1.3297,0.2746]],[[651.77298,371.53632],[-0.60074,1.21764],[1.86824,-3.78662]],[[660.22578,362.3045],[-3.7034,2.11626],[6.73712,-3.84984]],[[685.59974,360.60902],[-7.63224,-0.21962],[0.17328,0.005]],[[686.12158,360.61446],[-0.17454,0.00104],[-0.49608,-0.552]],[[684.6003,358.6235],[0.5268,0.79216],[-3.22418,-4.84838]],[[680.19466,345.71686],[2.26582,4.85534],[-2.86644,-6.14238]],[[662.087,332.43154],[7.96238,-1.72742],[-3.02566,0.6564]],[[652.9494,336.89882],[2.55832,-1.65294],[0,0]],[[648.80778,335.97848],[1.61064,2.53098],[-1.61064,-2.53098]],[[649.72812,331.83686],[0,0],[1.39216,-0.87472]],[[654.56356,328.98684],[-1.7616,0.9341],[0,0]]],&quot;closed&quot;:true,&quot;fillColor&quot;:[0,0,0,1],&quot;strokeWidth&quot;:0.5}]}" fill="#fffcff" stroke="none" stroke-width="0.25"/><path d="M264.71062,183.06147c-0.37038,-0.06602 -0.76694,-0.29093 -1.0259,-0.87358c-0.60921,-1.37072 0.76151,-1.97993 0.76151,-1.97993c3.45369,-1.53092 7.69107,-3.08627 11.15103,-0.57263c1.51551,1.10101 2.90136,2.35843 1.68959,4.59013c-0.85592,1.57635 -3.55857,1.93812 -4.98241,2.41461c-1.03327,0.34578 -3.06888,1.46523 -4.19978,1.06141c-2.28833,-0.81711 -3.33578,-2.67863 -3.39405,-4.64001zM268.53709,181.75373c-0.2116,0.27124 -0.45531,0.41746 -0.45531,0.41746l-0.26682,-0.15594c-0.00089,0.00035 -0.00177,0.00069 -0.00266,0.00104c-0.64871,0.91974 -0.01654,2.24603 1.13112,2.80483c0.46111,0.22452 5.15616,-1.71736 5.73283,-2.07376c0.37368,-0.23095 -3.08362,-1.40065 -3.17827,-1.41029c-0.9938,-0.10124 -1.99062,0.09543 -2.9609,0.41666z" fill="#000000" stroke="none" stroke-width="0.5"/><path d="M268.49253,181.73103c0.97028,-0.32123 2.02206,-0.54409 3.01586,-0.44286c0.09465,0.00964 3.59133,1.22365 3.21765,1.4546c-0.57667,0.3564 -5.36057,2.33409 -5.82168,2.10957c-1.14766,-0.5588 -1.7884,-1.93151 -1.13969,-2.85125c0.00089,-0.00035 0.09702,0.02974 0.09792,0.02939l0.17126,0.12649c0,0 0.2471,-0.15471 0.4587,-0.42595z" data-paper-data="{&quot;noHover&quot;:false,&quot;origItem&quot;:[&quot;Path&quot;,{&quot;applyMatrix&quot;:true,&quot;segments&quot;:[[[537.07418,363.50742],[0,0],[-0.4232,0.54248]],[536.16356,364.34234],[[535.62992,364.03046],[0,0],[-0.00178,0.0007]],[[535.6246,364.03254],[0.00178,-0.0007],[-1.29742,1.83948]],[[537.88684,369.6422],[-2.29532,-1.1176],[0.92222,0.44904]],[[549.3525,365.49468],[-1.15334,0.7128],[0.74736,-0.4619]],[[542.99596,362.6741],[0.1893,0.01928],[-1.9876,-0.20248]],[[537.07416,363.50742],[1.94056,-0.64246],[0,0]]],&quot;closed&quot;:true,&quot;fillColor&quot;:[0,0,0,1],&quot;strokeWidth&quot;:0.5}]}" fill="#fffcff" stroke="none" stroke-width="0.25"/><path d="M270.3347,213.3879c0.01309,0.00655 0.026,0.01316 0.03871,0.01983c3.24038,-1.31053 8.00739,-1.98535 7.14674,3.11538c-0.5557,3.29339 -4.36039,3.66747 -6.99226,4.3177c-0.70203,0.17344 -1.40211,0.66847 -2.10812,0.51203c-2.41491,-0.53512 -4.0507,-2.11956 -3.04777,-4.81449c0.46513,-1.24984 2.1395,-1.60879 3.07573,-2.55848l-0.12548,0.07885c0,0 0.67082,-1.34164 2.01246,-0.67082zM269.62838,217.09531c-0.13861,0.13376 -0.28379,0.25969 -0.44085,0.3715c-0.33798,0.24059 -1.41015,0.40205 -1.06876,0.63778c0.85911,0.59321 5.20663,-0.80656 6.09844,-1.31774c0.16017,-0.09181 0.53853,-1.04686 0.31106,-1.31281c-0.97752,-1.14286 -3.88372,1.04242 -4.52555,1.45397c0,0 -0.14771,0.094 -0.37432,0.1673z" fill="#000000" stroke="none" stroke-width="0.5"/><path d="M269.57972,217.1067c0.22661,-0.0733 0.37374,-0.17013 0.37374,-0.17013c0.64183,-0.41155 3.644,-2.62325 4.62152,-1.48039c0.22747,0.26595 -0.14762,1.24039 -0.30779,1.3322c-0.89181,0.51118 -5.33509,1.9295 -6.1942,1.33629c-0.34139,-0.23573 0.72952,-0.40035 1.0675,-0.64094c0.15706,-0.11181 0.30061,-0.24326 0.43922,-0.37702z" data-paper-data="{&quot;noHover&quot;:false,&quot;origItem&quot;:[&quot;Path&quot;,{&quot;applyMatrix&quot;:true,&quot;segments&quot;:[[[269.62838,217.09528],[0,0],[-0.13861,0.13376]],[[269.18753,217.46678],[0.15706,-0.11181],[-0.33798,0.24059]],[[268.11877,218.10456],[-0.34139,-0.23573],[0.85911,0.59321]],[[274.21721,216.78682],[-0.89181,0.51118],[0.16017,-0.09181]],[[274.52827,215.47401],[0.22747,0.26595],[-0.97752,-1.14286]],[[270.00272,216.92798],[0.64183,-0.41155],[0,0]],[[269.6284,217.09528],[0.22661,-0.0733],[0,0]]],&quot;closed&quot;:true,&quot;fillColor&quot;:[0,0,0,1],&quot;strokeWidth&quot;:0.5}]}" fill="#fffcff" stroke="none" stroke-width="0.25"/><path d="M275.37867,160.74776c1.37072,-0.12619 2.39426,-0.16803 3.67448,1.23581c2.23852,2.45469 0.86606,9.86573 -2.57922,10.79799c-3.74733,1.01399 -4.64478,-3.29533 -5.54526,-5.66502c-0.25252,-0.66453 -0.94203,-1.22498 -0.89778,-1.93448c0.13781,-2.20954 1.30383,-3.04011 2.61525,-4.3821l1.68265,-0.43934c0,0 0.60806,0 1.04989,0.38714zM273.99803,163.74965c-1.16924,1.46208 -0.56349,2.23834 0.43469,4.60568c0.25216,0.59804 0.64857,1.93889 1.17185,1.55495c1.26335,-0.92694 2.10262,-4.68976 1.1527,-5.99566c-0.39284,-0.54005 -1.93778,-0.11833 -2.14842,-0.09269c0,0 -0.28176,0.02348 -0.61082,-0.07228z" fill="#000000" stroke="none" stroke-width="0.5"/><path d="M274.59817,163.77309c0.21064,-0.02564 1.78921,-0.44294 2.18205,0.09711c0.94992,1.3059 0.09319,5.16285 -1.17016,6.08979c-0.52328,0.38394 -0.94881,-0.96255 -1.20097,-1.56059c-0.99818,-2.36734 -1.59938,-3.23388 -0.43014,-4.69595c0.32906,0.09576 0.61923,0.06965 0.61923,0.06965z" data-paper-data="{&quot;noHover&quot;:false,&quot;origItem&quot;:[&quot;Path&quot;,{&quot;applyMatrix&quot;:true,&quot;segments&quot;:[[[547.99606,327.49926],[0.65812,0.19152],[-2.33848,2.92416]],[[548.86544,336.71062],[-1.99636,-4.73468],[0.50432,1.19608]],[[551.20914,339.82052],[-1.04656,0.76788],[2.5267,-1.85388]],[[553.51454,327.8292],[1.89984,2.6118],[-0.78568,-1.0801]],[[549.2177,327.64382],[0.42128,-0.05128],[0,0]]],&quot;closed&quot;:true,&quot;fillColor&quot;:[0,0,0,1],&quot;strokeWidth&quot;:0.5}]}" fill="#fffcff" stroke="none" stroke-width="0.25"/><path d="M162.93711,312.47427v-265.67406h312.10191v265.67406z" fill="none" stroke="#000000" stroke-width="0"/></g></g></svg>