<svg version="1.1" xmlns="http://www.w3.org/2000/svg" xmlns:xlink="http://www.w3.org/1999/xlink" width="312.10191" height="265.67406" viewBox="0,0,312.10191,265.67406"><g transform="translate(-162.93711,-46.80021)"><g data-paper-data="{&quot;isPaintingLayer&quot;:true}" fill-rule="nonzero" stroke-linecap="butt" stroke-linejoin="miter" stroke-miterlimit="10" stroke-dasharray="" stroke-dashoffset="0" style="mix-blend-mode: normal"><path d="M288.02035,193.36402c0.93966,0.31322 1.05201,1.0401 1.01992,1.49776c0.04698,0.01064 0.09363,0.0213 0.1399,0.03187c2.10591,0.48117 2.87119,1.41592 3.76919,3.30446c0.29444,0.61922 0.38278,2.73048 1.48735,3.17763c2.29761,0.93013 5.66629,-1.50874 7.44781,-0.53932c2.21492,1.20526 3.59564,3.68525 1.77204,5.91333c-1.63963,2.0033 -5.34227,2.28604 -7.67687,2.86913c-1.97118,0.49232 -4.03499,0.68118 -6.0513,0.81754c-0.66038,-0.01571 -1.34514,0.13133 -1.98115,-0.04713c-6.20561,-1.74119 -4.63098,-8.02927 -3.00272,-12.72221c0.00118,-0.44847 0.20179,-0.80956 0.20179,-0.80956c0.0754,-0.10823 0.14378,-0.22465 0.20857,-0.34527c0.16536,-0.4577 0.32415,-0.89228 0.46754,-1.29673l0.30058,-0.90282c0,0 0.47434,-1.42302 1.89737,-0.94868zM288.09331,197.68321c-1.35393,3.54634 -3.58273,9.9769 1.73524,9.75488c3.18575,-0.20891 6.69384,-0.76661 9.71713,-1.64529c0.75488,-0.2194 2.17292,-0.60978 1.92881,-1.35703c-0.49542,-1.51657 -2.5559,0.13159 -3.50448,0.23942c-0.68245,0.07757 -4.45761,-0.40049 -4.87494,-0.61616c-2.81767,-1.45615 -1.64071,-4.03614 -3.57843,-5.80723c-0.63601,-0.58132 -1.11687,-0.7838 -1.42332,-0.56859z" fill="#000000" stroke="none" stroke-width="0.5"/><path d="M288.0547,197.65146c0.30645,-0.21521 0.86206,0.05359 1.49807,0.63491c1.93772,1.77109 0.74955,4.27317 3.56722,5.72932c0.41733,0.21567 4.12357,0.71333 4.80602,0.63576c0.94858,-0.10783 3.10151,-1.71987 3.59693,-0.2033c0.24411,0.74725 -1.17927,1.15059 -1.93415,1.36999c-3.02329,0.87868 -6.60674,1.44925 -9.79249,1.65816c-5.31797,0.22202 -3.09554,-6.2785 -1.74161,-9.82484z" data-paper-data="{&quot;noHover&quot;:false,&quot;origItem&quot;:[&quot;Path&quot;,{&quot;applyMatrix&quot;:true,&quot;segments&quot;:[[[288.09331,197.68321],[0,0],[-1.35393,3.54634]],[[289.82855,207.43809],[-5.31797,0.22202],[3.18575,-0.20891]],[[299.54568,205.7928],[-3.02329,0.87868],[0.75488,-0.2194]],[[301.47449,204.43577],[0.24411,0.74725],[-0.49542,-1.51657]],[[297.97001,204.67519],[0.94858,-0.10783],[-0.68245,0.07757]],[[293.09507,204.05903],[0.41733,0.21567],[-2.81767,-1.45615]],[[289.51664,198.2518],[1.93772,1.77109],[-0.63601,-0.58132]],[[288.09332,197.68321],[0.30645,-0.21521],[0,0]]],&quot;closed&quot;:true,&quot;fillColor&quot;:[0,0,0,1],&quot;strokeWidth&quot;:0.5}]}" fill="#fffcff" stroke="none" stroke-width="0.25"/><path d="M301.29018,225.84655c0.58024,-0.23423 1.1393,-0.4367 1.65192,-0.6089c2.22623,-0.74784 3.5864,0.03941 5.63934,0.43519c1.82879,0.35256 4.77594,-0.16331 6.45635,0.93388c2.2155,1.44656 2.0453,2.70024 2.44613,5.11235c0.6683,4.02165 0.76624,6.90335 -0.09015,10.89826c-2.94118,4.5306 -10.05128,6.77945 -14.76024,9.42874c-1.66191,0.935 -4.79779,2.73628 -6.86103,1.7884c-0.82302,-0.3781 -1.20727,-1.35733 -1.71631,-2.10646c-2.56918,-3.7809 -3.7301,-8.78145 -5.30563,-13.03071c-0.88285,-2.38109 -1.68852,-3.40394 -0.02978,-5.52338c1.6932,-2.16348 5.39167,-3.5103 8.18093,-4.92631c0.85933,-0.65893 1.8319,-1.22339 2.80788,-1.69978c0.02421,-0.01596 0.04843,-0.03192 0.07264,-0.04788l1.32311,-0.5928c0,0 0.06985,-0.02994 0.18484,-0.06061zM294.01542,233.33522c-0.60075,0.32366 -1.2025,0.65051 -1.8042,0.98663c-0.56297,0.31449 -1.58352,0.6413 -1.45629,1.27348c0.14105,0.70081 1.92648,4.5104 2.02401,4.77602c0.87922,2.39471 1.3293,4.99266 2.40106,7.32585c0.54222,1.1804 0.71331,2.82248 1.86616,3.42105c0.6813,0.35374 1.5087,-0.33615 2.20951,-0.64946c2.48935,-1.11293 4.71376,-2.81168 7.11675,-4.08737c2.61296,-1.38717 6.6526,-2.29103 8.23767,-4.8826c0.63648,-3.53021 0.4203,-5.74038 -0.09015,-9.31632c-0.10237,-0.71718 0.0272,-2.45569 -0.9748,-2.97348c-1.43513,-0.74162 -4.22849,-0.34404 -5.6724,-0.62109c-2.6414,-0.50682 -3.17601,-0.95339 -5.82875,0.35655c-0.32693,0.16144 -1.0554,0.47548 -1.85268,0.87888c-0.03381,0.02228 -0.06761,0.04456 -0.10142,0.06685c-0.66125,0.42392 -1.32843,0.82507 -2,1.21243c-0.88383,0.70308 -1.32815,1.46546 -0.48055,2.1251c0,0 0.9,1.2 -0.3,2.1c-1.2,0.9 -2.1,-0.3 -2.1,-0.3c-0.35448,-0.57561 -1.03878,-1.06447 -1.19391,-1.69251z" fill="#000000" stroke="none" stroke-width="0.5"/><path d="M294.05614,233.36426c0.15513,0.62804 0.84153,1.1137 1.19601,1.68931c0,0 0.8177,1.1435 2.0177,0.2435c1.2,-0.9 0.30779,-2.108 0.30779,-2.108c-0.8476,-0.65964 -0.396,-1.42698 0.48783,-2.13006c0.67157,-0.38736 1.34945,-0.79296 2.0107,-1.21688c0.03381,-0.02229 0.06816,-0.04472 0.10197,-0.067c0.79728,-0.4034 1.53505,-0.71905 1.86198,-0.88049c2.65274,-1.30994 3.2118,-0.85908 5.8532,-0.35226c1.44391,0.27705 4.25242,-0.10993 5.68755,0.63169c1.002,0.51779 0.87878,2.26428 0.98115,2.98146c0.51045,3.57594 0.73393,5.82088 0.09745,9.35109c-1.58507,2.59157 -5.65104,3.53202 -8.264,4.91919c-2.40299,1.27569 -4.66632,2.9775 -7.15567,4.09043c-0.70081,0.31331 -1.535,1.00036 -2.2163,0.64662c-1.15285,-0.59857 -1.33584,-2.24909 -1.87806,-3.42949c-1.07176,-2.33319 -1.53716,-4.96372 -2.41638,-7.35843c-0.09753,-0.26562 -1.8805,-4.09464 -2.02155,-4.79545c-0.12723,-0.63218 0.89601,-0.96548 1.45898,-1.27997c0.6017,-0.33612 1.20746,-0.66964 1.80821,-0.9933z" data-paper-data="{&quot;noHover&quot;:false,&quot;origItem&quot;:[&quot;Path&quot;,{&quot;applyMatrix&quot;:true,&quot;segments&quot;:[[[294.01542,233.33522],[0,0],[-0.60075,0.32366]],[[292.21122,234.32185],[0.6017,-0.33612],[-0.56297,0.31449]],[[290.75493,235.59533],[-0.12723,-0.63218],[0.14105,0.70081]],[[292.77894,240.37135],[-0.09753,-0.26562],[0.87922,2.39471]],[[295.18,247.6972],[-1.07176,-2.33319],[0.54222,1.1804]],[[297.04616,251.11825],[-1.15285,-0.59857],[0.6813,0.35374]],[[299.25567,250.46879],[-0.70081,0.31331],[2.48935,-1.11293]],[[306.37242,246.38142],[-2.40299,1.27569],[2.61296,-1.38717]],[[314.61009,241.49882],[-1.58507,2.59157],[0.63648,-3.53021]],[[314.51994,232.1825],[0.51045,3.57594],[-0.10237,-0.71718]],[[313.54514,229.20902],[1.002,0.51779],[-1.43513,-0.74162]],[[307.87274,228.58793],[1.44391,0.27705],[-2.6414,-0.50682]],[[302.04399,228.94448],[2.65274,-1.30994],[-0.32693,0.16144]],[[300.19131,229.82336],[0.79728,-0.4034],[-0.03381,0.02228]],[[300.08989,229.89021],[0.03381,-0.02229],[-0.66125,0.42392]],[[298.08989,231.10264],[0.67157,-0.38736],[-0.88383,0.70308]],[[297.60934,233.22774],[-0.8476,-0.65964],[0,0]],[[297.30934,235.32774],[1.2,-0.9],[-1.2,0.9]],[[295.20934,235.02774],[0,0],[-0.35448,-0.57561]],[[294.01543,233.33523],[0.15513,0.62804],[0,0]]],&quot;closed&quot;:true,&quot;fillColor&quot;:[0,0,0,1],&quot;strokeWidth&quot;:0.5}]}" fill="#fffcff" stroke="none" stroke-width="0.25"/><path d="M348.03746,205.71799c0.6942,-0.19277 1.5006,-0.10946 2.22026,-0.23982c2.27941,-0.41288 4.58801,-0.69217 6.85453,-1.09069c1.46987,-0.25845 2.81864,-1.48528 4.29475,-1.26527c1.11945,0.16686 2.53399,0.46775 3.06105,1.46935c0.81427,1.54742 -1.71675,5.01485 -2.40229,5.93727c-2.55466,3.43734 -5.6253,8.01719 -9.35214,10.29499c-4.3488,2.65794 -7.43994,0.3277 -7.57881,-4.22836c0.00552,-2.38793 0.3398,-4.62785 0.77138,-6.91965c-0.70345,-0.12398 -1.23787,-0.73817 -1.23787,-1.47717c0,-0.45317 0.20096,-0.85941 0.51863,-1.13445l1.23759,-1.08289c0,0 0.78147,-0.68379 1.61293,-0.26331zM349.18339,208.54657c-0.54217,2.71014 -1.05573,5.27226 -1.04859,8.0489c-0.17848,3.71542 2.55979,2.21267 4.49085,0.44279c3.49312,-3.20157 6.26092,-7.44462 9.14123,-11.14142c0.36827,-0.47266 -1.05009,0.59436 -1.62036,0.77828c-1.48268,0.47819 -3.05399,0.632 -4.59892,0.8325c-2.17109,0.28176 -4.25104,0.70754 -6.36421,1.03896z" fill="#000000" stroke="none" stroke-width="0.5"/><path d="M349.14154,208.51922c2.11317,-0.33142 4.24084,-0.77949 6.41193,-1.06125c1.54493,-0.2005 3.14409,-0.34157 4.62677,-0.81976c0.57027,-0.18392 1.99119,-1.24842 1.62292,-0.77576c-2.88031,3.6968 -5.70675,8.01898 -9.19987,11.22055c-1.93106,1.76988 -4.68942,3.25434 -4.51094,-0.46108c-0.00714,-2.77664 0.50702,-5.39255 1.04919,-8.10269z" data-paper-data="{&quot;noHover&quot;:false,&quot;origItem&quot;:[&quot;Path&quot;,{&quot;applyMatrix&quot;:true,&quot;segments&quot;:[[[349.18339,208.54657],[0,0],[-0.54217,2.71014]],[[348.1348,216.59547],[-0.00714,-2.77664],[-0.17848,3.71542]],[[352.62565,217.03826],[-1.93106,1.76988],[3.49312,-3.20157]],[[361.76688,205.89684],[-2.88031,3.6968],[0.36827,-0.47266]],[[360.14652,206.67512],[0.57027,-0.18392],[-1.48268,0.47819]],[[355.5476,207.50762],[1.54493,-0.2005],[-2.17109,0.28176]],[[349.18339,208.54658],[2.11317,-0.33142],[0,0]]],&quot;closed&quot;:true,&quot;fillColor&quot;:[0,0,0,1],&quot;strokeWidth&quot;:0.5}]}" fill="#fffcff" stroke="none" stroke-width="0.25"/><path d="M309.49694,195.24337c0.27186,-0.50383 0.8165,-0.72169 0.8165,-0.72169c0.56624,-0.2127 1.09909,-0.58058 1.688,-0.68788c0.34854,-0.20591 0.93481,-0.40495 1.54905,0.0322c5.49374,0.94485 2.14737,10.7028 -3.65073,8.74798c-0.73708,-0.2485 -1.27152,-0.93245 -1.74421,-1.55019c-1.99306,-2.60464 -0.68923,-4.47038 1.34139,-5.82042zM312.40128,196.99465c-0.97339,0.41555 -2.32706,1.06237 -2.51927,1.76031c-0.10578,0.38409 1.25866,1.02112 1.66008,0.84994c1.91279,-0.8157 2.59873,-2.89908 0.85919,-2.61025z" fill="#000000" stroke="none" stroke-width="0.5"/><path d="M269.45889,177.78007c0.2081,0.02754 0.38433,0.06957 0.51382,0.13022c2.38665,1.11785 4.15369,6.68866 1.32061,8.35391c-0.98145,0.57688 -2.26955,0.20818 -3.39198,0.39841c-1.15642,0.19599 -2.1802,1.27688 -3.34053,1.10559c-4.42198,-0.65278 -3.91258,-5.04308 -2.67884,-7.92464c0.31172,-0.72807 0.23965,-1.78372 0.91881,-2.19115c1.09841,-0.65894 2.52673,-0.42248 3.79009,-0.63372l1.50438,-0.01986c0,0 0.98122,-0.00895 1.36366,0.78125zM264.59615,180.16714c0.00393,0.20742 0.15471,0.51422 0.09891,0.71873c-0.15338,0.56215 -1.9968,3.93258 0.1201,3.89312c0.92745,-0.01729 1.64648,-0.96825 2.56835,-1.07136c0.73132,-0.0818 1.48113,0.2148 2.2059,0.08741c0.4479,-0.07872 -0.29605,-2.9416 -0.85635,-3.15286c-0.83599,-0.31521 -1.77561,0.20167 -2.6653,0.28339c0,0 -1.05365,0.09579 -1.4716,-0.75843z" fill="#000000" stroke="none" stroke-width="0.5"/><path d="M264.5619,180.13072c0.41795,0.85422 1.4853,0.74927 1.4853,0.74927c0.88969,-0.08172 1.88647,-0.58709 2.72246,-0.27188c0.5603,0.21126 1.31293,3.12941 0.86503,3.20813c-0.72477,0.12739 -1.49749,-0.14569 -2.22881,-0.06389c-0.92187,0.10311 -1.69557,1.04753 -2.62302,1.06482c-2.1169,0.03946 -0.28087,-3.39956 -0.12749,-3.96171c0.0558,-0.20451 -0.08956,-0.51731 -0.09349,-0.72473z" data-paper-data="{&quot;noHover&quot;:false,&quot;origItem&quot;:[&quot;Path&quot;,{&quot;applyMatrix&quot;:true,&quot;segments&quot;:[[[264.59615,180.16714],[0,0],[0.00393,0.20742]],[[264.69506,180.88587],[0.0558,-0.20451],[-0.15338,0.56215]],[[264.81516,184.77899],[-2.1169,0.03946],[0.92745,-0.01729]],[[267.38351,183.70763],[-0.92187,0.10311],[0.73132,-0.0818]],[[269.58941,183.79504],[-0.72477,0.12739],[0.4479,-0.07872]],[[268.73306,180.64218],[0.5603,0.21126],[-0.83599,-0.31521]],[[266.06776,180.92557],[0.88969,-0.08172],[0,0]],[[264.59616,180.16714],[0.41795,0.85422],[0,0]]],&quot;closed&quot;:true,&quot;fillColor&quot;:[0,0,0,1],&quot;strokeWidth&quot;:0.5}]}" fill="#fffcff" stroke="none" stroke-width="0.25"/><path d="M272.33088,213.01119c0.00329,0.00986 0.00648,0.01968 0.00959,0.02945c0.13071,0.0082 0.26687,0.02113 0.40938,0.03915c5.32901,0.67357 3.34982,4.4339 2.04717,7.62746c-1.11386,2.73072 -3.50422,4.6841 -6.84399,3.73091c-5.87163,-1.67579 -2.5994,-10.61818 1.59083,-12.07837l0.88966,-0.29728c0,0 1.42302,-0.47434 1.89737,0.94868zM268.49213,216.87003c-0.68721,1.37117 -0.78241,3.28396 -0.41944,4.58925c0.10104,0.36334 3.43083,-0.09489 3.67623,-0.50248c0.23089,-0.3835 0.08964,-0.90069 0.24568,-1.32026c0.57372,-1.5427 3.04593,-4.58683 -0.70308,-3.45693c-0.51965,0.15662 -0.98228,0.46195 -1.47341,0.69293c0,0 -0.70038,0.31836 -1.32597,-0.00252z" fill="#000000" stroke="none" stroke-width="0.5"/><path d="M268.45498,216.83657c0.62559,0.32088 1.34413,-0.01028 1.34413,-0.01028c0.49113,-0.23098 0.98579,-0.53834 1.50544,-0.69496c3.74901,-1.1299 1.30619,1.98899 0.73247,3.53169c-0.15604,0.41957 -0.03393,0.95453 -0.26482,1.33803c-0.2454,0.40759 -3.63262,0.85808 -3.73366,0.49474c-0.36297,-1.30529 -0.27078,-3.28805 0.41643,-4.65922z" data-paper-data="{&quot;noHover&quot;:false,&quot;origItem&quot;:[&quot;Path&quot;,{&quot;applyMatrix&quot;:true,&quot;segments&quot;:[[[268.49213,216.87003],[0,0],[-0.68721,1.37117]],[[268.07269,221.45928],[-0.36297,-1.30529],[0.10104,0.36334]],[[271.74892,220.9568],[-0.2454,0.40759],[0.23089,-0.3835]],[[271.9946,219.63654],[-0.15604,0.41957],[0.57372,-1.5427]],[[271.29152,216.17961],[3.74901,-1.1299],[-0.51965,0.15662]],[[269.81811,216.87254],[0.49113,-0.23098],[0,0]],[[268.49214,216.87002],[0.62559,0.32088],[0,0]]],&quot;closed&quot;:true,&quot;fillColor&quot;:[0,0,0,1],&quot;strokeWidth&quot;:0.5}]}" fill="#fffcff" stroke="none" stroke-width="0.25"/><path d="M314.82912,173.34056c5.30177,0.98017 11.27864,1.90002 16.37845,0.08964c1.56509,-0.55559 2.81707,-1.41013 4.2857,-2.0767c0.25631,-0.11633 0.72127,0.16959 0.84007,-0.08558c0.62309,-1.33836 -3.3246,-4.30789 -3.80419,-4.8327c-2.87991,-3.15144 -2.98258,-4.17124 -1.97796,-8.23755c1.15067,-4.5089 3.32799,-12.29697 0.90474,-16.79712c-0.38456,-0.71416 -4.75814,0.86255 -5.3897,1.37515c-2.84007,2.30511 -4.47498,5.89986 -7.20226,8.31091c-2.07286,1.83251 -3.8588,1.74694 -4.79298,4.4938c0.22547,2.02093 0.03631,4.04112 0.44422,6.04847c0.72051,3.54564 1.65589,8.15234 0.31391,11.71168zM312.79678,176.01271c-0.34785,0.10545 -0.78493,0.08564 -1.27128,-0.27913c-1.2,-0.9 -0.3,-2.1 -0.3,-2.1l0.41841,-0.55404c1.01345,-1.36242 0.68081,-2.31517 0.68106,-3.98835c0.0007,-4.65737 -0.88293,-9.19788 -1.23397,-13.85665c1.27968,-3.88221 3.06207,-3.95531 5.7808,-6.39098c3.46294,-3.1024 5.23639,-7.95032 9.86131,-9.63453c2.473,-0.90056 4.96014,-1.97987 7.09112,0.34998c0.57881,0.63282 1.14314,4.16029 1.23363,4.75064c0.73827,4.81639 -0.46248,10.00696 -1.60087,14.63394c-0.2804,0.98696 -1.17162,2.43487 -0.4253,3.53482c2.16476,3.19049 7.70584,5.55285 5.86693,10.34495c-0.34075,0.88798 -4.17801,2.42937 -5.07946,2.79195c-6.73014,2.70696 -14.0733,1.69938 -21.02238,0.39741z" fill="#000000" stroke="none" stroke-width="0.5"/><path d="M314.46807,161.64554c-0.40791,-2.00735 -0.22061,-4.05412 -0.44608,-6.07505c0.93418,-2.74686 2.73482,-2.68774 4.80768,-4.52025c2.72728,-2.41105 4.39925,-6.01935 7.23932,-8.32446c0.63156,-0.5126 5.02008,-2.08615 5.40464,-1.37199c2.42325,4.50015 0.27812,12.33833 -0.87255,16.84723c-1.00462,4.06631 -0.91948,5.12089 1.96043,8.27233c0.47959,0.52481 4.42678,3.49476 3.80369,4.83312c-0.1188,0.25517 -0.58538,-0.02946 -0.84169,0.08687c-1.46863,0.66657 -2.73296,1.52798 -4.29805,2.08357c-5.09981,1.81038 -11.12244,0.88535 -16.42421,-0.09482c1.34198,-3.55934 0.38733,-8.19089 -0.33318,-11.73653z" data-paper-data="{&quot;noHover&quot;:false,&quot;origItem&quot;:[&quot;Path&quot;,{&quot;applyMatrix&quot;:true,&quot;segments&quot;:[[[314.82912,173.34056],[1.34198,-3.55934],[5.30177,0.98017]],[[331.20757,173.4302],[-5.09981,1.81038],[1.56509,-0.55559]],[[335.49327,171.3535],[-1.46863,0.66657],[0.25631,-0.11633]],[[336.33334,171.26792],[-0.1188,0.25517],[0.62309,-1.33836]],[[332.52915,166.43522],[0.47959,0.52481],[-2.87991,-3.15144]],[[330.55119,158.19767],[-1.00462,4.06631],[1.15067,-4.5089]],[[331.45593,141.40055],[2.42325,4.50015],[-0.38456,-0.71416]],[[326.06623,142.7757],[0.63156,-0.5126],[-2.84007,2.30511]],[[318.86397,151.08661],[2.72728,-2.41105],[-2.07286,1.83251]],[[314.07099,155.58041],[0.93418,-2.74686],[0.22547,2.02093]],[[314.51521,161.62888],[-0.40791,-2.00735],[0.72051,3.54564]]],&quot;closed&quot;:true,&quot;fillColor&quot;:[0,0,0,1],&quot;strokeWidth&quot;:0.5}]}" fill="#fffcff" stroke="none" stroke-width="0.25"/><path d="M270.04114,164.52036c-0.07002,-0.09689 -0.13497,-0.2095 -0.19301,-0.34009c-0.54252,-1.22066 0.48512,-1.83741 0.71662,-1.95782c0.15981,-0.1311 0.36738,-0.23404 0.63695,-0.28028c0.54014,-0.27277 1.07768,-0.58819 1.64122,-0.47618c2.11812,0.421 4.77779,4.66263 3.41549,6.72738c-1.87369,2.83986 -4.42381,1.44639 -5.74441,-0.65721c-0.50914,-0.81101 -0.31401,-1.88925 -0.47101,-2.83387zM273.13123,165.5735c0.0698,0.43385 0.19751,0.84489 0.46583,1.17603c0.15397,0.19001 -0.1132,-0.48173 -0.22948,-0.69688c-0.08887,-0.16444 -0.16583,-0.32657 -0.23636,-0.47915z" fill="#000000" stroke="none" stroke-width="0.5"/><path d="M162.93711,312.47427v-265.67406h312.10191v265.67406z" fill="none" stroke="#000000" stroke-width="0"/></g></g></svg>