<svg version="1.1" xmlns="http://www.w3.org/2000/svg" xmlns:xlink="http://www.w3.org/1999/xlink" width="312.10191" height="265.67406" viewBox="0,0,312.10191,265.67406"><g transform="translate(-162.93711,-46.80021)"><g data-paper-data="{&quot;isPaintingLayer&quot;:true}" fill-rule="nonzero" stroke-linecap="butt" stroke-linejoin="miter" stroke-miterlimit="10" stroke-dasharray="" stroke-dashoffset="0" style="mix-blend-mode: normal"><path d="M296.11312,236.4524c0.02179,-0.01369 0.03423,-0.0206 0.03423,-0.0206c0.04188,-0.02104 0.08377,-0.04151 0.12566,-0.06143c-0.04254,-0.115 -0.09104,-0.23181 -0.14593,-0.35058zM296.27506,239.15528c-0.25483,-0.10772 -0.50568,-0.31514 -0.71048,-0.68377c-0.40711,-0.73279 -0.17717,-1.28357 0.10492,-1.62691c-0.4433,-0.12095 -1.07117,-0.46354 -1.07117,-1.434c0,-1.5 1.5,-1.5 1.5,-1.5l2.77019,0.89079c0.15275,0.35386 0.28287,0.68323 0.39087,0.99591c4.57486,0.26612 9.2287,5.10288 13.87287,5.59651l0.06967,0.03423l0.00435,-0.0203l2.14865,0.46043c0.69164,0.13352 1.21401,0.74214 1.21401,1.47277c0,0.53674 -0.28191,1.00764 -0.70574,1.2727l-2.49809,1.61641l-0.19906,-0.30763c-2.51893,1.70506 -4.96085,2.31609 -8.79615,2.7944c-0.65522,0.08171 -3.8693,0.71611 -4.27302,0.59083c-1.61262,-0.50041 -2.5405,-2.2535 -3.57788,-3.58571c-0.43583,-0.5597 -1.39661,-0.77282 -1.54146,-1.46725c-0.42012,-2.01413 0.76089,-3.47067 1.2975,-5.09939zM299.61796,238.67439c-0.07931,0.65709 -0.26467,1.36358 -0.55027,2.21162c-0.29379,0.87236 -1.46423,1.58485 -1.22658,2.47415c0.08839,0.33074 0.71874,0.14312 0.94649,0.39871c0.62334,0.69953 0.83147,2.33568 2.02001,2.63416c1.05297,0.26443 2.11359,-0.51818 3.19083,-0.65314c2.27506,-0.28503 4.52274,-1.15589 6.73309,-1.69276c-2.64258,-0.55213 -4.88306,-1.59072 -7.24514,-3.20447c-1.13385,-0.77464 -2.49833,-1.90007 -3.86842,-2.16827z" fill="#000000" stroke="none" stroke-width="0.5"/><path d="M299.5796,238.64234c1.37009,0.2682 2.75218,1.3802 3.88603,2.15484c2.36208,1.61375 4.67205,2.70904 7.31463,3.26117c-2.21035,0.53687 -4.51102,1.44634 -6.78608,1.73137c-1.07724,0.13496 -2.16712,0.90485 -3.22009,0.64042c-1.18854,-0.29848 -1.41199,-1.96105 -2.03533,-2.66058c-0.22775,-0.25559 -0.85887,-0.07247 -0.94726,-0.40321c-0.23765,-0.8893 0.93481,-1.62328 1.2286,-2.49564c0.2856,-0.84804 0.48018,-1.57126 0.55949,-2.22835z" data-paper-data="{&quot;noHover&quot;:false,&quot;origItem&quot;:[&quot;Path&quot;,{&quot;applyMatrix&quot;:true,&quot;segments&quot;:[[[299.61796,238.67439],[0,0],[-0.07931,0.65709]],[[299.06769,240.88601],[0.2856,-0.84804],[-0.29379,0.87236]],[[297.84111,243.36016],[-0.23765,-0.8893],[0.08839,0.33074]],[[298.7876,243.75887],[-0.22775,-0.25559],[0.62334,0.69953]],[[300.80761,246.39303],[-1.18854,-0.29848],[1.05297,0.26443]],[[303.99844,245.73989],[-1.07724,0.13496],[2.27506,-0.28503]],[[310.73153,244.04713],[-2.21035,0.53687],[-2.64258,-0.55213]],[[303.48639,240.84266],[2.36208,1.61375],[-1.13385,-0.77464]],[[299.61797,238.67439],[1.37009,0.2682],[0,0]]],&quot;closed&quot;:true,&quot;fillColor&quot;:[0,0,0,1],&quot;strokeWidth&quot;:0.5}]}" fill="#fffcff" stroke="none" stroke-width="0.25"/><path d="M348.76638,209.75504c1.01336,-0.05688 2.10737,-0.08478 2.48621,0.03561c0.76148,0.24198 1.36687,0.82786 2.05331,1.23676c0.68169,0.40606 1.51481,0.62326 2.05103,1.2081c3.86169,4.21184 -2.1125,8.78449 -4.93414,11.16332c-1.31793,1.1111 -4.20961,4.35234 -6.24337,4.10385c-3.69475,-0.45144 -3.52248,-2.12606 -3.55341,-5.11983c-0.02139,-2.07058 0.57931,-3.80049 1.09838,-5.77118c0.44714,-3.9374 1.63535,-6.93605 5.99886,-7.03633zM346.41097,212.79266c-1.39893,0.62534 -1.55613,2.48853 -1.73565,4.35954c-0.50058,1.90392 -1.63835,5.0314 -1.14217,7.09211c0.19443,0.8075 2.61255,-1.06541 2.63175,-1.07695c2.51398,-1.51229 6.14857,-4.51638 7.26019,-7.34073c1.21169,-3.0786 -5.02023,-3.03474 -6.37952,-2.94362c0,0 -0.29664,0.01978 -0.63461,-0.09035z" fill="#000000" stroke="none" stroke-width="0.5"/><path d="M346.39412,212.74558c0.33797,0.11013 0.6392,0.08895 0.6392,0.08895c1.35929,-0.09112 7.64697,-0.11115 6.43528,2.96745c-1.11162,2.82435 -4.81252,5.89758 -7.3265,7.40987c-0.0192,0.01154 -2.4476,1.87745 -2.64203,1.06995c-0.49618,-2.06071 0.62799,-5.24361 1.12857,-7.14753c0.17952,-1.87101 0.36655,-3.76335 1.76548,-4.38869z" data-paper-data="{&quot;noHover&quot;:false,&quot;origItem&quot;:[&quot;Path&quot;,{&quot;applyMatrix&quot;:true,&quot;segments&quot;:[[[346.41097,212.79266],[0,0],[-1.39893,0.62534]],[[344.67532,217.1522],[0.17952,-1.87101],[-0.50058,1.90392]],[[343.53315,224.24431],[-0.49618,-2.06071],[0.19443,0.8075]],[[346.1649,223.16736],[-0.0192,0.01154],[2.51398,-1.51229]],[[353.42509,215.82663],[-1.11162,2.82435],[1.21169,-3.0786]],[[347.04557,212.88301],[1.35929,-0.09112],[0,0]],[[346.41096,212.79266],[0.33797,0.11013],[0,0]]],&quot;closed&quot;:true,&quot;fillColor&quot;:[0,0,0,1],&quot;strokeWidth&quot;:0.5}]}" fill="#fffcff" stroke="none" stroke-width="0.25"/><path d="M292.96058,195.39797c1.06066,1.06066 0,2.12132 0,2.12132l-0.13292,0.08897c0.53676,0.7663 0.89083,1.76465 1.29397,2.4367c1.8756,3.12673 3.97024,7.58348 0.08353,10.51556c-3.8682,2.91811 -9.59028,-0.23178 -11.26511,-3.78804c-0.35012,-0.74342 -0.93363,-1.54399 -0.75625,-2.34635c0.35682,-1.61405 2.08416,-2.5675 3.07374,-3.8916c0.28788,-0.38259 0.55039,-0.75188 0.8,-1.10571c-0.50742,0.04806 -0.96293,0.08478 -1.31046,0.08478c0,0 -1.5,0 -1.5,-1.5c0,-1.5 1.5,-1.5 1.5,-1.5c0.96177,0 2.57674,-0.17522 4.082,-0.20261c0.65191,-0.44083 1.43801,-0.78439 2.46568,-1.01223l-0.45549,0.09922c0,0 1.06066,-1.06066 2.12132,0zM289.85642,199.24033c-0.83125,0.80289 -1.34625,1.95395 -2.19889,3.0942c-0.73191,0.97273 -1.98082,1.54992 -2.52415,2.63927c-0.09899,0.19847 0.37047,0.26433 0.48772,0.45259c0.40938,0.65733 0.5436,1.49677 1.07635,2.05878c0.82309,0.8683 4.71999,1.4563 5.69617,0.68405c2.423,-1.91682 0.21296,-4.81883 -0.84945,-6.58909c-0.42516,-0.70844 -0.30503,-1.975 -1.09256,-2.22488c-0.17066,-0.05415 -0.37167,-0.09127 -0.59519,-0.11491z" fill="#000000" stroke="none" stroke-width="0.5"/><path d="M289.86234,199.19069c0.22352,0.02364 0.4309,0.06194 0.60156,0.11609c0.78753,0.24988 0.68997,1.52906 1.11513,2.2375c1.06241,1.77026 3.26684,4.74867 0.84384,6.66549c-0.97618,0.77225 -4.93164,0.1842 -5.75473,-0.6841c-0.53275,-0.56201 -0.68378,-1.42264 -1.09316,-2.07997c-0.11725,-0.18826 -0.58897,-0.2608 -0.48998,-0.45927c0.54333,-1.08935 1.80422,-1.71346 2.53613,-2.68619c0.85264,-1.14025 1.40995,-2.30668 2.2412,-3.10957z" data-paper-data="{&quot;noHover&quot;:false,&quot;origItem&quot;:[&quot;Path&quot;,{&quot;applyMatrix&quot;:true,&quot;segments&quot;:[[[289.85642,199.24033],[0,0],[-0.83125,0.80289]],[[287.65753,202.33453],[0.85264,-1.14025],[-0.73191,0.97273]],[[285.13338,204.9738],[0.54333,-1.08935],[-0.09899,0.19847]],[[285.6211,205.42639],[-0.11725,-0.18826],[0.40938,0.65733]],[[286.69745,207.48517],[-0.53275,-0.56201],[0.82309,0.8683]],[[292.39362,208.16922],[-0.97618,0.77225],[2.423,-1.91682]],[[291.54417,201.58013],[1.06241,1.77026],[-0.42516,-0.70844]],[[290.45161,199.35525],[0.78753,0.24988],[-0.17066,-0.05415]],[[289.85642,199.24034],[0.22352,0.02364],[0,0]]],&quot;closed&quot;:true,&quot;fillColor&quot;:[0,0,0,1],&quot;strokeWidth&quot;:0.5}]}" fill="#fffcff" stroke="none" stroke-width="0.25"/><path d="M314.01345,145.38303c1.2,-0.9 2.1,0.3 2.1,0.3l0.65553,0.88574c4.36741,-2.05552 9.04545,-3.72702 13.92513,-3.97155c0.71899,-0.03603 4.54195,0.44954 4.70753,0.7622c1.49445,2.82202 -1.29079,4.20871 -2.59554,5.64397c-3.07472,3.38226 -5.80285,5.50497 -3.09327,9.93542l1.10969,0.97098c0.31766,0.27505 0.51863,0.68128 0.51863,1.13445c0,0.74178 -0.53845,1.35781 -1.24581,1.47855l-2.92054,0.5563l-0.06743,-0.35402c-1.29969,0.31312 -2.5875,0.58592 -4.01407,1.00743c-2.17791,0.64351 -4.36493,2.32337 -6.58725,0.09258c-3.43763,-3.45072 -0.46421,-9.23953 -1.23235,-13.59413c-0.33188,-0.08006 -0.67463,-0.30061 -0.9244,-0.80014c-0.25078,-0.50156 -0.22031,-0.90937 -0.08382,-1.22342l-0.55202,-0.72435c0,0 -0.9,-1.2 0.3,-2.1zM318.13826,149.24536c0.41283,1.39933 0.62434,2.76592 0.4438,4.33756c-0.2489,2.16677 -1.58742,6.09538 0.02569,8.10141c0.79368,0.98701 3.29152,-0.72972 3.67554,-0.84041c1.41602,-0.40814 2.91661,-0.61572 4.37036,-0.50086l-0.04019,-0.21099l0.32655,-0.0622c-1.5315,-2.63824 -2.32505,-4.94627 -0.70729,-8.05556c0.55708,-1.07071 1.69849,-1.71934 2.47095,-2.64674c0.65461,-0.78591 1.21024,-1.65479 1.90445,-2.40596c0.37005,-0.40042 0.78032,-0.76292 1.20564,-1.1061c-1.50036,0.22045 -3.32002,0.2056 -4.79724,0.48967c-3.29017,0.6327 -5.98353,1.56334 -8.87826,2.90018z" fill="#000000" stroke="none" stroke-width="0.5"/><path d="M327.03045,146.29716c1.47722,-0.28407 3.31571,-0.25898 4.81607,-0.47943c-0.42532,0.34318 -0.90032,0.7819 -1.27037,1.18232c-0.69421,0.75117 -1.25031,1.61965 -1.90492,2.40556c-0.77246,0.9274 -1.85166,1.49781 -2.40874,2.56852c-1.61776,3.10929 -0.83767,5.50476 0.69383,8.143l-0.32898,0.06297l0.04005,0.21103c-1.45375,-0.11486 -2.98528,0.09159 -4.4013,0.49973c-0.38402,0.11069 -2.8959,1.81951 -3.68958,0.8325c-1.61311,-2.00603 -0.29328,-5.9764 -0.04438,-8.14317c0.18054,-1.57164 -0.022,-2.96419 -0.43483,-4.36352c2.89473,-1.33684 5.64298,-2.28683 8.93315,-2.91953z" data-paper-data="{&quot;noHover&quot;:false,&quot;origItem&quot;:[&quot;Path&quot;,{&quot;applyMatrix&quot;:true,&quot;segments&quot;:[[[318.13826,149.24536],[2.89473,-1.33684],[0.41283,1.39933]],[[318.58206,153.58292],[0.18054,-1.57164],[-0.2489,2.16677]],[[318.60775,161.68433],[-1.61311,-2.00603],[0.79368,0.98701]],[[322.28329,160.84392],[-0.38402,0.11069],[1.41602,-0.40814]],[[326.65365,160.34306],[-1.45375,-0.11486],[0,0]],[326.61346,160.13207],[[326.94001,160.06987],[0,0],[-1.5315,-2.63824]],[[326.23272,152.01431],[-1.61776,3.10929],[0.55708,-1.07071]],[[328.70367,149.36757],[-0.77246,0.9274],[0.65461,-0.78591]],[[330.60812,146.96161],[-0.69421,0.75117],[0.37005,-0.40042]],[[331.81376,145.85551],[-0.42532,0.34318],[-1.50036,0.22045]],[[327.01652,146.34518],[1.47722,-0.28407],[-3.29017,0.6327]]],&quot;closed&quot;:true,&quot;fillColor&quot;:[0,0,0,1],&quot;strokeWidth&quot;:0.5}]}" fill="#fffcff" stroke="none" stroke-width="0.25"/><path d="M270.10255,215.96243c0.09386,0.09386 0.17111,0.18772 0.23395,0.28084c0.45054,-0.04987 0.89477,-0.08006 1.25444,0.15314c5.11811,3.31836 -0.76426,6.13383 -3.3349,3.67132c-0.58006,-0.55566 -0.62322,-1.48069 -0.93483,-2.22104l0.66002,-1.88427c0,0 1.06066,-1.06066 2.12132,0z" fill="#000000" stroke="none" stroke-width="0.5"/><path d="M263.53156,181.84867c-0.27296,-0.8153 0.40675,-1.49501 0.40675,-1.49501c1.4061,-1.29088 1.81065,-2.2274 4.16109,-1.61201c3.04872,0.79822 5.63002,4.68268 4.01335,7.45351c-1.94727,3.33744 -8.98884,3.92914 -9.686,-0.82867c-0.18169,-1.23999 0.33779,-2.47065 1.1048,-3.51782zM267.68405,181.9972l-0.29806,0.1987c-0.35557,0.21 -0.80521,0.31041 -1.06672,0.63002c-0.25497,0.31162 -0.22311,0.7763 -0.38541,1.14478c-1.02618,2.32969 1.38407,1.98294 2.89303,1.01925c0.45491,-0.29053 1.52756,-0.56876 1.24872,-1.03092c-0.51263,-0.84965 -1.46562,-1.71938 -2.39157,-1.96183z" fill="#000000" stroke="none" stroke-width="0.5"/><path d="M267.67818,181.94754c0.92595,0.24245 1.93475,1.16405 2.44738,2.0137c0.27884,0.46216 -0.81209,0.77687 -1.267,1.0674c-1.50896,0.96369 -4.00081,1.27448 -2.97463,-1.05521c0.1623,-0.36848 0.13852,-0.86327 0.39349,-1.17489c0.26151,-0.31961 0.73815,-0.44039 1.09372,-0.65039z" data-paper-data="{&quot;noHover&quot;:false,&quot;origItem&quot;:[&quot;Path&quot;,{&quot;applyMatrix&quot;:true,&quot;segments&quot;:[[267.68405,181.9972],[[267.38599,182.1959],[0,0],[-0.35557,0.21]],[[266.31927,182.82592],[0.26151,-0.31961],[-0.25497,0.31162]],[[265.93386,183.9707],[0.1623,-0.36848],[-1.02618,2.32969]],[[268.82689,184.98995],[-1.50896,0.96369],[0.45491,-0.29053]],[[270.07561,183.95903],[0.27884,0.46216],[-0.51263,-0.84965]],[[267.68404,181.9972],[0.92595,0.24245],[0,0]]],&quot;closed&quot;:true,&quot;fillColor&quot;:[0,0,0,1],&quot;strokeWidth&quot;:0.5}]}" fill="#fffcff" stroke="none" stroke-width="0.25"/><path d="M162.93711,312.47427v-265.67406h312.10191v265.67406z" fill="none" stroke="#000000" stroke-width="0"/></g></g></svg>