<svg version="1.1" xmlns="http://www.w3.org/2000/svg" xmlns:xlink="http://www.w3.org/1999/xlink" width="312.10191" height="265.67406" viewBox="0,0,312.10191,265.67406"><g transform="translate(-162.93711,-46.80021)"><g data-paper-data="{&quot;isPaintingLayer&quot;:true}" fill-rule="nonzero" stroke-linecap="butt" stroke-linejoin="miter" stroke-miterlimit="10" stroke-dasharray="" stroke-dashoffset="0" style="mix-blend-mode: normal"><path d="M305.95711,239.3708c2.57528,0.62349 4.74721,2.33179 1.97847,5.21246c-0.5706,0.59367 -1.51336,0.70831 -2.3285,0.82488c-0.8077,0.1155 -1.76719,0.31381 -2.44361,-0.14246c-1.32912,-0.89654 -1.64805,-2.27285 -1.31763,-3.49301c-0.19193,-0.18363 -0.34891,-0.45289 -0.42034,-0.84573c-0.26833,-1.4758 1.20748,-1.74413 1.20748,-1.74413c0.60668,-0.10277 1.36359,-0.11039 2.14612,-0.02047c0.21593,-0.01996 0.43873,-0.01711 0.66679,0.01136c0.19028,0.02375 0.35827,0.09456 0.51121,0.19712zM304.93419,242.19558l0.02432,0.45348c0.00711,-0.00061 0.01424,-0.00122 0.0214,-0.00183c0.0144,-0.16786 0.0291,-0.3357 0.04172,-0.5037c0.00742,-0.09877 -0.0273,-0.05175 -0.08745,0.05205z" fill="#000000" stroke="none" stroke-width="0.5"/><path d="M353.84186,210.18747c0.00188,0.01875 0.00349,0.03729 0.00485,0.05562c0.12568,0.06128 0.24733,0.1302 0.36417,0.20769c3.68173,2.4417 2.51038,7.57998 -1.08379,9.33661c-1.45727,0.71223 -3.23334,0.58454 -4.77881,0.74412c-0.6846,0.07069 -1.38904,0.50862 -2.04346,0.29552c-3.86727,-1.25928 -2.6958,-5.69604 -0.92677,-8.25603c1.09486,-1.58439 3.33426,-2.63358 4.96815,-3.51026l1.85384,-0.21656c0,0 1.49256,-0.14926 1.64181,1.3433zM349.89029,212.76683c-1.74126,1.17457 -3.52975,2.82778 -3.33771,5.0147c0.04137,0.47109 0.9327,-0.15754 1.40091,-0.22394c1.4471,-0.20521 3.98203,0.17525 5.05139,-1.265c1.24578,-1.67785 0.25578,-3.37474 -1.61634,-3.53413c-0.49765,-0.04237 -0.99849,-0.00334 -1.49826,0.00836z" fill="#000000" stroke="none" stroke-width="0.5"/><path d="M349.88721,212.71691c0.49977,-0.0117 1.02666,-0.04523 1.52431,-0.00286c1.87212,0.15939 2.88676,1.91592 1.64098,3.59377c-1.06936,1.44025 -3.68631,1.08085 -5.13341,1.28606c-0.46821,0.0664 -1.36617,0.68731 -1.40754,0.21622c-0.19204,-2.18692 1.63442,-3.91861 3.37568,-5.09318z" data-paper-data="{&quot;noHover&quot;:false,&quot;origItem&quot;:[&quot;Path&quot;,{&quot;applyMatrix&quot;:true,&quot;segments&quot;:[[[349.89029,212.76683],[0,0],[-1.74126,1.17457]],[[346.55258,217.78153],[-0.19204,-2.18692],[0.04137,0.47109]],[[347.95349,217.55759],[-0.46821,0.0664],[1.4471,-0.20521]],[[353.00488,216.29259],[-1.06936,1.44025],[1.24578,-1.67785]],[[351.38854,212.75846],[1.87212,0.15939],[-0.49765,-0.04237]],[[349.89028,212.76682],[0.49977,-0.0117],[0,0]]],&quot;closed&quot;:true,&quot;fillColor&quot;:[0,0,0,1],&quot;strokeWidth&quot;:0.5}]}" fill="#fffcff" stroke="none" stroke-width="0.25"/><path d="M322.96638,145.90904c-0.34031,-0.44954 -0.53807,-0.90923 -0.33954,-1.39714c0.91302,-2.24386 6.8826,-1.48921 8.73039,-1.48921c0.95491,0 4.7093,-0.14001 5.01816,0.72826c1.16036,3.26201 -2.11539,4.46731 -3.80527,5.70224c-3.7945,2.77294 -9.07599,3.38643 -10.30311,-2.14837zM325.91044,148.20089c1.14673,1.02173 3.32024,-0.03489 4.85589,-1.14484c0.36735,-0.26551 0.74174,-0.65242 1.12612,-1.00252c-0.17931,-0.01647 -0.35831,-0.03083 -0.53522,-0.03083c-0.21648,0 -3.46761,0.00137 -4.42114,-0.00348c0.21604,0.40423 0.4146,1.11959 -0.32323,1.79035c-0.24208,0.22008 -0.47937,0.33935 -0.70243,0.39132z" fill="#000000" stroke="none" stroke-width="0.5"/><path d="M325.86248,148.21506c0.22306,-0.05197 0.45942,-0.17489 0.7015,-0.39497c0.73783,-0.67076 0.54643,-1.42419 0.33039,-1.82842c0.95353,0.00485 4.29062,0.00772 4.5071,0.00772c0.17691,0 0.35774,0.01822 0.53705,0.03469c-0.38438,0.3501 -0.75531,0.74954 -1.12266,1.01505c-1.53565,1.10995 -3.80663,2.18767 -4.95336,1.16594z" data-paper-data="{&quot;noHover&quot;:false,&quot;origItem&quot;:[&quot;Path&quot;,{&quot;applyMatrix&quot;:true,&quot;segments&quot;:[[[325.91044,148.20089],[0,0],[1.14673,1.02173]],[[330.76633,147.05605],[-1.53565,1.10995],[0.36735,-0.26551]],[[331.89245,146.05353],[-0.38438,0.3501],[-0.17931,-0.01647]],[[331.35723,146.0227],[0.17691,0],[-0.21648,0]],[[326.93609,146.01922],[0.95353,0.00485],[0.21604,0.40423]],[[326.61286,147.80957],[0.73783,-0.67076],[-0.24208,0.22008]],[[325.91043,148.20089],[0.22306,-0.05197],[0,0]]],&quot;closed&quot;:true,&quot;fillColor&quot;:[0,0,0,1],&quot;strokeWidth&quot;:0.5}]}" fill="#fffcff" stroke="none" stroke-width="0.25"/><path d="M269.39413,182.56719c0.14421,0.86526 -0.30191,1.30885 -0.69724,1.52805c0.06701,1.77456 -1.07017,3.35493 -3.59518,2.82639c-3.15207,-0.6598 -2.51716,-3.08821 -1.18654,-4.53757c0.0181,-0.13582 0.05608,-0.28181 0.1187,-0.43835c0.55709,-1.39272 1.9498,-0.83563 1.9498,-0.83563c0.29308,0.14894 0.64137,0.24154 0.97869,0.34533l0.70557,-0.12121c0,0 1.47959,-0.2466 1.72619,1.23299z" fill="#000000" stroke="none" stroke-width="0.5"/><path d="M280.12147,200.77594c0.19343,-0.90478 1.20846,-1.08933 1.20846,-1.08933c2.77601,-0.50463 7.05897,-1.68627 9.55858,0.2709c3.83798,3.0051 -0.89313,7.60958 -3.80886,9.08228c-3.54171,1.78887 -8.1729,0.04613 -10.10891,-3.0988c-0.46505,-0.75545 -1.4297,-1.51269 -1.20764,-2.37156c0.47689,-1.84454 2.77551,-2.37776 4.35838,-2.79348zM287.85481,201.9975c-0.04986,0.01337 -0.07934,0.01873 -0.07934,0.01873l-1.53689,0.26862c-1.63468,0.72847 -3.16947,0.98218 -4.93244,1.27382c-2.12723,0.58607 -2.42933,0.12168 -1.92223,0.60001c1.5895,1.4993 3.69371,3.67829 6.37376,2.18809c0.4918,-0.27346 0.80251,-0.78928 1.21596,-1.17099c0.15745,-0.14536 2.64146,-1.85614 2.4916,-2.43758c-0.11948,-0.46356 -1.30755,-0.70328 -1.44086,-0.72052c-0.05651,-0.00731 -0.11303,-0.01403 -0.16956,-0.02017z" fill="#000000" stroke="none" stroke-width="0.5"/><path d="M287.89604,201.96923c0.05653,0.00614 0.11376,0.01392 0.17027,0.02123c0.13331,0.01724 1.32696,0.26863 1.44644,0.73219c0.14986,0.58144 -2.33358,2.32144 -2.49103,2.4668c-0.41345,0.38171 -0.74235,0.92393 -1.23415,1.19739c-2.68005,1.4902 -4.8641,-0.73152 -6.4536,-2.23082c-0.5071,-0.47833 -0.20314,-0.02504 1.92409,-0.61111c1.76297,-0.29164 3.37922,-0.5688 5.0139,-1.29727l1.54453,-0.25998c0,0 0.02968,-0.00507 0.07954,-0.01844z" data-paper-data="{&quot;noHover&quot;:false,&quot;origItem&quot;:[&quot;Path&quot;,{&quot;applyMatrix&quot;:true,&quot;segments&quot;:[[[287.85481,201.9975],[0,0],[-0.04986,0.01337]],[287.77547,202.01623],[[286.23858,202.28485],[0,0],[-1.63468,0.72847]],[[281.30614,203.55867],[1.76297,-0.29164],[-2.12723,0.58607]],[[279.38391,204.15868],[-0.5071,-0.47833],[1.5895,1.4993]],[[285.75767,206.34677],[-2.68005,1.4902],[0.4918,-0.27346]],[[286.97363,205.17578],[-0.41345,0.38171],[0.15745,-0.14536]],[[289.46523,202.7382],[0.14986,0.58144],[-0.11948,-0.46356]],[[288.02437,202.01768],[0.13331,0.01724],[-0.05651,-0.00731]],[[287.85481,201.99751],[0.05653,0.00614],[0,0]]],&quot;closed&quot;:true,&quot;fillColor&quot;:[0,0,0,1],&quot;strokeWidth&quot;:0.5}]}" fill="#fffcff" stroke="none" stroke-width="0.25"/><path d="M162.93711,312.47427v-265.67406h312.10191v265.67406z" fill="none" stroke="#000000" stroke-width="0"/></g></g></svg>