<svg version="1.1" xmlns="http://www.w3.org/2000/svg" xmlns:xlink="http://www.w3.org/1999/xlink" width="312.10191" height="265.67406" viewBox="0,0,312.10191,265.67406"><g transform="translate(-162.93711,-46.80021)"><g data-paper-data="{&quot;isPaintingLayer&quot;:true}" fill-rule="nonzero" stroke-linecap="butt" stroke-linejoin="miter" stroke-miterlimit="10" stroke-dasharray="" stroke-dashoffset="0" style="mix-blend-mode: normal"><path d="M278.37933,203.47914c-0.16019,-1.08786 0.95138,-1.53249 0.95138,-1.53249c0.62995,-0.23757 1.21922,-0.65324 1.88985,-0.71272c0.92319,-0.08188 1.97907,-0.19254 2.76422,0.29994c4.82614,3.02713 -1.42351,7.09629 -4.30411,5.74896c-1.04335,-0.488 -1.69085,-1.56458 -2.53627,-2.34687z" fill="#000000" stroke="none" stroke-width="0.5"/><path d="M353.81735,214.51031c0.14261,0.32154 0.23845,0.64725 0.18719,0.9861c-0.43072,2.84729 -2.48194,4.1829 -5.16999,1.82781c-0.66507,-0.58269 -0.34473,-1.74977 -0.31769,-2.63358c0.0291,-0.95144 -0.23248,-2.18798 0.48434,-2.81429c0.75692,-0.66134 2.00413,-0.157 3.00619,-0.2355l1.55808,1.05615c0,0 0.86468,0.86468 0.25189,1.81331z" fill="#000000" stroke="none" stroke-width="0.5"/><path d="M265.582,179.49697c0.08367,0.0194 0.16685,0.04232 0.24946,0.06918c3.76521,1.22408 5.4734,7.1316 2.0047,9.55164c-3.82689,2.66995 -7.96538,-0.59318 -8.58187,-4.5523c-0.11619,-0.74617 -0.51977,-1.5455 -0.25167,-2.25147c0.49224,-1.29618 1.10162,-1.89318 1.87519,-2.31603c0.18848,-0.14759 0.40004,-0.2313 0.5794,-0.27877c0.39024,-0.16893 0.81709,-0.32753 1.28502,-0.52587l1.14415,-0.33504c0,0 1.15856,-0.33102 1.69561,0.63867zM262.27483,182.65051c-0.18468,0.13685 -0.32728,0.29808 -0.3882,0.48963c-0.73813,2.32123 3.19019,5.5891 4.93701,2.88735c0.51148,-0.79109 -0.39984,-1.28037 -0.73286,-1.9285c-1.05848,-2.05999 -1.63359,-1.51674 -3.81595,-1.44848z" fill="#000000" stroke="none" stroke-width="0.5"/><path d="M266.13711,184.08019c0.33302,0.64813 1.2426,1.17883 0.73112,1.96992c-1.74682,2.70175 -5.76145,-0.6163 -5.02332,-2.93753c0.06092,-0.19155 0.21013,-0.36082 0.39481,-0.49767c2.18236,-0.06826 2.83891,-0.59471 3.89739,1.46528z" data-paper-data="{&quot;noHover&quot;:false,&quot;origItem&quot;:[&quot;Path&quot;,{&quot;applyMatrix&quot;:true,&quot;segments&quot;:[[[262.27483,182.65051],[2.18236,-0.06826],[-0.18468,0.13685]],[[261.88663,183.14014],[0.06092,-0.19155],[-0.73813,2.32123]],[[266.82364,186.02749],[-1.74682,2.70175],[0.51148,-0.79109]],[[266.09078,184.09899],[0.33302,0.64813],[-1.05848,-2.05999]]],&quot;closed&quot;:true,&quot;fillColor&quot;:[0,0,0,1],&quot;strokeWidth&quot;:0.5}]}" fill="#fffcff" stroke="none" stroke-width="0.25"/><path d="M265.35908,219.91032c-0.19553,-0.15574 -0.36899,-0.39064 -0.48535,-0.73973c-0.47434,-1.42302 0.94868,-1.89737 0.94868,-1.89737c0.75526,-0.21528 1.49169,-0.7783 2.26578,-0.64585c4.57981,0.78358 3.50597,6.23809 -0.85146,5.81251c-0.80081,-0.07821 -1.23861,-1.02739 -1.85791,-1.54109z" fill="#000000" stroke="none" stroke-width="0.5"/><path d="M162.93711,312.47427v-265.67406h312.10191v265.67406z" fill="none" stroke="#000000" stroke-width="0"/></g></g></svg>