<svg version="1.1" xmlns="http://www.w3.org/2000/svg" xmlns:xlink="http://www.w3.org/1999/xlink" width="312.10191" height="265.67406" viewBox="0,0,312.10191,265.67406"><g transform="translate(-162.93711,-46.80021)"><g data-paper-data="{&quot;isPaintingLayer&quot;:true}" fill-rule="nonzero" stroke-linecap="butt" stroke-linejoin="miter" stroke-miterlimit="10" stroke-dasharray="" stroke-dashoffset="0" style="mix-blend-mode: normal"><path d="M282.70255,196.8143c0.15188,-0.03038 0.29122,-0.04193 0.41898,-0.03823c1.375,-1.19747 2.97489,-0.90263 4.54531,0.95715c0.5814,0.68852 0.3941,1.76018 0.52959,2.65109c0.45008,2.95958 0.96551,5.73482 0.27798,8.70058c-0.21222,0.91542 -0.00812,2.13763 -0.74691,2.71833c-1.82665,1.43581 -4.54313,0.46022 -5.57996,-1.31297c-0.79221,-1.35484 -0.93599,-3.33778 -0.87373,-5.3888c-0.33374,-0.55131 -0.15243,-1.2161 -0.15243,-1.2161c0.31672,-1.14092 0.26143,-3.02077 0.51231,-4.46511c0.00375,-0.14425 0.00577,-0.28485 0.00577,-0.42141l-0.11361,-0.4195c0,0 -0.29417,-1.47087 1.1767,-1.76505zM284.54031,201.93291c-0.09284,1.67934 -0.21369,3.36406 -0.18761,4.99675c0.01075,0.67275 0.11107,1.35887 0.34963,1.988c0.1419,0.37421 0.88084,1.07151 0.98584,0.68532c0.73646,-2.70882 -0.24564,-6.10332 -0.46893,-8.84943c-0.04667,-0.57396 0.21472,-1.70163 -0.36101,-1.68943c-0.09542,0.00202 -0.16674,0.0311 -0.2191,0.08131c-0.00209,0.45822 -0.01378,0.9193 -0.03136,1.38202c0.02107,0.17758 0.03424,0.34492 0.02349,0.48366c-0.02382,0.30755 -0.05404,0.615 -0.09095,0.92181z" fill="#000000" stroke="none" stroke-width="0.5"/><path d="M284.52821,201.88441c0.03691,-0.30681 0.0716,-0.61516 0.09542,-0.92271c0.01075,-0.13874 -0.00178,-0.30617 -0.02285,-0.48375c0.01758,-0.46272 0.03138,-0.92405 0.03347,-1.38227c0.05236,-0.05021 0.12579,-0.07945 0.22121,-0.08147c0.57573,-0.0122 0.31801,1.1154 0.36468,1.68936c0.22329,2.74611 1.20959,6.24034 0.47313,8.94916c-0.105,0.38619 -0.854,-0.3111 -0.9959,-0.68531c-0.23856,-0.62913 -0.34896,-1.31732 -0.35971,-1.99007c-0.02608,-1.63269 0.0977,-3.41361 0.19054,-5.09295z" data-paper-data="{&quot;noHover&quot;:false,&quot;origItem&quot;:[&quot;Path&quot;,{&quot;applyMatrix&quot;:true,&quot;segments&quot;:[[[284.54031,201.93291],[0,0],[-0.09284,1.67934]],[[284.3527,206.92966],[-0.02608,-1.63269],[0.01075,0.67275]],[[284.70233,208.91766],[-0.23856,-0.62913],[0.1419,0.37421]],[[285.68817,209.60298],[-0.105,0.38619],[0.73646,-2.70882]],[[285.21924,200.75355],[0.22329,2.74611],[-0.04667,-0.57396]],[[284.85823,199.06412],[0.57573,-0.0122],[-0.09542,0.00202]],[[284.63913,199.14543],[0.05236,-0.05021],[-0.00209,0.45822]],[[284.60777,200.52745],[0.01758,-0.46272],[0.02107,0.17758]],[[284.63126,201.01111],[0.01075,-0.13874],[-0.02382,0.30755]],[[284.54031,201.93292],[0.03691,-0.30681],[0,0]]],&quot;closed&quot;:true,&quot;fillColor&quot;:[0,0,0,1],&quot;strokeWidth&quot;:0.5}]}" fill="#fffcff" stroke="none" stroke-width="0.25"/><path d="M267.21217,217.18122c0.07531,0.00429 0.15053,0.01137 0.22563,0.02175c0.82484,0.11405 1.77693,0.18642 2.37917,0.76146c3.14894,3.00676 -1.8379,8.43535 -5.06647,6.91675c-0.82419,-0.38767 -0.83538,-1.62183 -1.17399,-2.46736c-0.26477,-0.66116 -0.64487,-1.32908 -0.63153,-2.04116c0.01767,-0.94332 0.48069,-1.82472 0.72104,-2.73708l2.36241,-0.70061c0,0 0.66531,-0.12097 1.18374,0.24625zM266.03079,220.28449c0.21079,0.41543 0.43923,0.85164 0.41897,1.26443c0.67006,-0.57106 1.12442,-0.35919 1.63501,-1.12085c0.17834,-0.26604 -0.61055,-0.24536 -0.93077,-0.23856c-0.37573,0.00798 -0.74942,0.05245 -1.12321,0.09497z" fill="#000000" stroke="none" stroke-width="0.5"/><path d="M265.98718,220.26003c0.37379,-0.04252 0.79719,-0.11217 1.17292,-0.12015c0.32022,-0.0068 1.14889,0.00226 0.97055,0.2683c-0.51059,0.76166 -1.04451,0.60663 -1.71457,1.17769c0.02026,-0.41279 -0.21811,-0.91041 -0.4289,-1.32584z" data-paper-data="{&quot;noHover&quot;:false,&quot;origItem&quot;:[&quot;Path&quot;,{&quot;applyMatrix&quot;:true,&quot;segments&quot;:[[[266.03079,220.28449],[0,0],[0.21079,0.41543]],[[266.44976,221.54892],[0.02026,-0.41279],[0.67006,-0.57106]],[[268.08477,220.42807],[-0.51059,0.76166],[0.17834,-0.26604]],[[267.154,220.18951],[0.32022,-0.0068],[-0.37573,0.00798]],[[266.03079,220.28448],[0.37379,-0.04252],[0,0]]],&quot;closed&quot;:true,&quot;fillColor&quot;:[0,0,0,1],&quot;strokeWidth&quot;:0.5}]}" fill="#fffcff" stroke="none" stroke-width="0.25"/><path d="M263.78905,179.38266c0.14555,0.14555 0.25116,0.29111 0.32504,0.43392c0.35557,0.06653 0.75142,0.19282 1.22415,0.39895c3.19402,1.39272 5.53813,5.78034 1.74457,7.86316c-3.80395,2.08853 -9.25045,-0.89216 -7.92522,-5.66249c0.14335,-0.516 0.50852,-0.9227 0.88873,-1.32199c0.13202,-0.28371 0.35395,-0.47831 0.55552,-0.60585c0.03755,-0.0456 0.07404,-0.09173 0.1092,-0.13851l0.95668,-0.96721c0,0 1.06066,-1.06066 2.12132,0zM262.50921,183.09121c-0.5367,1.35902 -0.09476,3.15011 1.85169,2.72006c0.65849,-0.14549 1.78012,0.16386 1.96413,-0.48492c0.47808,-1.6856 -2.32113,-2.27353 -3.81582,-2.23514z" fill="#000000" stroke="none" stroke-width="0.5"/><path d="M266.37105,185.34589c-0.18401,0.64878 -1.35083,0.36988 -2.00932,0.51537c-1.94645,0.43005 -2.42902,-1.4413 -1.89232,-2.80032c1.49469,-0.03839 4.37972,0.59935 3.90164,2.28495z" data-paper-data="{&quot;noHover&quot;:false,&quot;origItem&quot;:[&quot;Path&quot;,{&quot;applyMatrix&quot;:true,&quot;segments&quot;:[[[262.50921,183.09121],[1.49469,-0.03839],[-0.5367,1.35902]],[[264.3609,185.81127],[-1.94645,0.43005],[0.65849,-0.14549]],[[266.32503,185.32635],[-0.18401,0.64878],[0.47808,-1.6856]]],&quot;closed&quot;:true,&quot;fillColor&quot;:[0,0,0,1],&quot;strokeWidth&quot;:0.5}]}" fill="#fffcff" stroke="none" stroke-width="0.25"/><path d="M351.30819,222.12154c-0.49923,-1.41449 0.91526,-1.91372 0.91526,-1.91372l2.16864,-0.73685c1.23484,-1.12784 1.97222,-1.83937 2.47423,-3.46146c0,0 0.47434,-1.42302 1.89737,-0.94868c1.42302,0.47434 0.94868,1.89737 0.94868,1.89737c-0.81887,2.3369 -1.93832,3.51065 -3.80611,5.10262l-2.68435,0.97597c0,0 -1.41449,0.49923 -1.91372,-0.91526z" fill="#000000" stroke="none" stroke-width="0.5"/><path d="M162.93711,312.47427v-265.67406h312.10191v265.67406z" fill="none" stroke="#000000" stroke-width="0"/></g></g></svg>