<svg version="1.1" xmlns="http://www.w3.org/2000/svg" xmlns:xlink="http://www.w3.org/1999/xlink" width="312.10191" height="265.67406" viewBox="0,0,312.10191,265.67406"><g transform="translate(-162.93711,-46.80021)"><g data-paper-data="{&quot;isPaintingLayer&quot;:true}" fill-rule="nonzero" stroke-linecap="butt" stroke-linejoin="miter" stroke-miterlimit="10" stroke-dasharray="" stroke-dashoffset="0" style="mix-blend-mode: normal"><path d="M162.93711,312.47427v-265.67406h312.10191v265.67406z" fill="none" stroke="#000000" stroke-width="0"/><path d="M267.42065,215.60439c0.08721,0.02212 0.17692,0.04691 0.26936,0.07448c2.89074,0.86212 8.54342,3.58458 6.4062,7.43904c-0.36121,0.65143 -1.23085,0.83927 -1.84453,1.26144c-3.23683,2.22673 -8.39044,4.16299 -10.81908,-0.35998c-0.42619,-0.79372 -0.97366,-1.64369 -0.91604,-2.54275c0.07826,-1.22115 0.9775,-2.50752 1.97029,-3.65141c0.06853,-0.75619 0.80787,-1.15947 0.80787,-1.15947c0.18678,-0.09672 0.36156,-0.19208 0.52767,-0.28424c0.23609,-0.24725 0.45699,-0.47923 0.65078,-0.69254l1.01003,-0.6181c0,0 1.24672,-0.62336 1.93745,0.53354zM265.41436,218.99685c-1.32902,1.34758 -2.55961,2.9153 -0.75748,4.3741c1.2994,1.05185 3.40586,0.11281 4.63762,-0.5703c0.47304,-0.26234 0.85941,-0.66131 1.32424,-0.93795c0.37304,-0.22202 1.41416,-0.36808 1.11128,-0.67906c-1.51173,-1.55212 -4.24189,-2.83928 -6.31565,-2.18679z" fill="#000000" stroke="none" stroke-width="0.5"/><path d="M265.37888,218.96163c2.07376,-0.65249 4.88938,0.668 6.40111,2.22012c0.30288,0.31098 -0.73905,0.46806 -1.11209,0.69008c-0.46483,0.27664 -0.86432,0.70114 -1.33736,0.96348c-1.23176,0.68311 -3.41608,1.61488 -4.71548,0.56303c-1.80213,-1.4588 -0.5652,-3.08913 0.76382,-4.43671z" data-paper-data="{&quot;noHover&quot;:false,&quot;origItem&quot;:[&quot;Path&quot;,{&quot;applyMatrix&quot;:true,&quot;segments&quot;:[[[265.41436,218.99685],[0,0],[-1.32902,1.34758]],[[264.65688,223.37095],[-1.80213,-1.4588],[1.2994,1.05185]],[[269.2945,222.80065],[-1.23176,0.68311],[0.47304,-0.26234]],[[270.61874,221.8627],[-0.46483,0.27664],[0.37304,-0.22202]],[[271.73002,221.18364],[0.30288,0.31098],[-1.51173,-1.55212]],[[265.41437,218.99685],[2.07376,-0.65249],[0,0]]],&quot;closed&quot;:true,&quot;fillColor&quot;:[0,0,0,1],&quot;strokeWidth&quot;:0.5}]}" fill="#fffcff" stroke="none" stroke-width="0.25"/><path d="M276.64247,199.5458c0.14367,-0.79296 0.98866,-1.10024 0.98866,-1.10024c2.13138,-0.75726 6.58288,-1.9618 8.73623,-0.99793c3.85087,1.7237 7.74617,8.92288 5.6923,13.04192c-0.40982,0.8219 -0.955,1.70051 -1.78081,2.10239c-2.0941,1.01909 -8.92193,0.99325 -11.07064,-0.25074c-2.60857,-1.51021 -2.64362,-2.23389 -3.90749,-4.5679c-0.4865,-2.78818 0.1292,-5.55718 1.16484,-8.18967z" fill="#fffcff" stroke="none" stroke-width="0.5"/><path d="M307.66369,198.99521c-0.13535,-0.20929 -0.22491,-0.48625 -0.22491,-0.85277c0,-1.5 1.5,-1.5 1.5,-1.5c3.20639,0.12656 7.69852,3.39253 3.35782,6.48708c-2.80025,1.99634 -7.09949,0.48619 -5.14563,-3.58039c0.11213,-0.23338 0.29659,-0.40678 0.51271,-0.55392zM311.11622,200.22576l-0.39446,0.36972c0.2562,-0.02913 0.43835,-0.08576 0.42954,-0.23432c-0.00286,-0.04814 -0.01495,-0.09321 -0.03507,-0.1354z" fill="#000000" stroke="none" stroke-width="0.5"/><path d="M311.15107,200.18989c0.02012,0.04219 0.0461,0.1119 0.04896,0.16004c0.00881,0.14856 -0.25997,0.24902 -0.51617,0.27815l0.4672,-0.43819z" data-paper-data="{&quot;noHover&quot;:false,&quot;origItem&quot;:[&quot;Path&quot;,{&quot;applyMatrix&quot;:true,&quot;segments&quot;:[[311.11622,200.22576],[[310.72176,200.59548],[0,0],[0.2562,-0.02913]],[[311.1513,200.36116],[0.00881,0.14856],[-0.00286,-0.04814]],[[311.11623,200.22576],[0.02012,0.04219],[0,0]]],&quot;closed&quot;:true,&quot;fillColor&quot;:[0,0,0,1],&quot;strokeWidth&quot;:0.5}]}" fill="#fffcff" stroke="none" stroke-width="0.25"/><path d="M354.07737,229.90093c0,-1.5 1.5,-1.5 1.5,-1.5l-0.12559,0.0242c5.38447,-0.87035 8.50333,-6.81228 11.51495,-10.59455c0,0 0.93704,-1.1713 2.10835,-0.23426c1.1713,0.93704 0.23426,2.10835 0.23426,2.10835c-3.68547,4.58291 -6.95309,10.4233 -13.3209,11.67208l-0.41106,0.0242c0,0 -1.5,0 -1.5,-1.5z" fill="#000000" stroke="none" stroke-width="0.5"/></g></g></svg>