<svg version="1.1" xmlns="http://www.w3.org/2000/svg" xmlns:xlink="http://www.w3.org/1999/xlink" width="312.10191" height="265.67406" viewBox="0,0,312.10191,265.67406"><g transform="translate(-162.93711,-46.80021)"><g data-paper-data="{&quot;isPaintingLayer&quot;:true}" fill-rule="nonzero" stroke-linecap="butt" stroke-linejoin="miter" stroke-miterlimit="10" stroke-dasharray="" stroke-dashoffset="0" style="mix-blend-mode: normal"><path d="M277.19309,204.81546c-0.45706,0.01964 -1.10829,-0.12221 -1.4225,-0.98627c-0.51261,-1.40969 0.89708,-1.9223 0.89708,-1.9223c0.91199,-0.33107 1.80081,-0.61772 2.69413,-0.86388c0.23446,-0.16933 0.54733,-0.2951 0.93863,-0.24323c1.03661,-0.25156 2.09202,-0.45123 3.20852,-0.60503c1.46007,-0.20113 3.3108,-0.4122 4.7729,-0.03765c1.4374,0.36822 3.01746,0.59806 4.18711,1.5111c2.07886,1.62278 1.83306,5.11753 0.04548,6.84835c-1.1416,1.10535 -3.27357,1.48555 -4.71261,1.82656c-3.48981,0.827 -10.57758,2.02882 -10.97523,-3.62846c-0.04531,-0.64468 0.176,-1.27086 0.3665,-1.89918zM281.17946,203.65605l-0.16445,0.3231c-0.29372,0.44814 -0.58744,0.89628 -0.88116,1.34442c-1.33954,4.91874 10.89046,3.15122 10.84539,-0.72805c-0.01068,-0.919 -1.55866,-0.61562 -1.87753,-0.71991c-2.75766,-0.90197 -5.28796,-0.83648 -7.92225,-0.21955z" fill="#000000" stroke="none" stroke-width="0.5"/><path d="M281.13449,203.6342c2.63429,-0.61693 5.25385,-0.68376 8.01151,0.21821c0.31887,0.10429 1.87146,-0.18629 1.88214,0.73271c0.04507,3.87927 -12.28367,5.65315 -10.94413,0.73441c0.29372,-0.44814 0.5908,-0.91066 0.88452,-1.3588l0.16596,-0.32654z" data-paper-data="{&quot;noHover&quot;:false,&quot;origItem&quot;:[&quot;Path&quot;,{&quot;applyMatrix&quot;:true,&quot;segments&quot;:[[281.17946,203.65605],[[281.01501,203.97915],[0,0],[-0.29372,0.44814]],[[280.13385,205.32357],[0.29372,-0.44814],[-1.33954,4.91874]],[[290.97924,204.59552],[0.04507,3.87927],[-0.01068,-0.919]],[[289.10171,203.87561],[0.31887,0.10429],[-2.75766,-0.90197]],[[281.17946,203.65606],[2.63429,-0.61693],[0,0]]],&quot;closed&quot;:true,&quot;fillColor&quot;:[0,0,0,1],&quot;strokeWidth&quot;:0.5}]}" fill="#fffcff" stroke="none" stroke-width="0.25"/><path d="M263.92293,216.85584c0.3081,-0.82187 1.2858,-0.90334 1.2858,-0.90334c2.21063,-0.18412 5.10756,-0.88337 7.10162,0.53718c2.51005,1.78814 2.56199,5.0197 0.53161,7.13122c-2.83245,2.94563 -10.93027,1.58075 -12.77275,-1.80309c-0.45297,-0.83192 -1.36058,-1.76152 -1.02907,-2.64885c0.6161,-1.64908 2.77748,-2.11124 4.8828,-2.31312zM268.95424,218.66359l-0.92612,0.83047c-1.74582,0.31553 -3.62542,0.62813 -5.40031,0.67351c-0.24164,0.00618 -0.59708,-0.37497 -0.70731,-0.15985c-0.10855,0.21183 0.52078,0.03236 0.68374,0.20584c0.32679,0.34788 0.30093,0.97719 0.68882,1.25531c1.05632,0.75741 5.57261,0.69856 6.74402,0.53766c2.28613,-0.31401 1.12682,-3.25209 -0.8556,-3.35205c-0.02897,-0.00146 -0.10912,0.00197 -0.22724,0.0091z" fill="#000000" stroke="none" stroke-width="0.5"/><path d="M268.99463,218.6341c0.11812,-0.00713 0.19944,-0.00889 0.22841,-0.00743c1.98242,0.09996 3.14537,3.08723 0.85924,3.40124c-1.17141,0.1609 -5.78039,0.21398 -6.83671,-0.54343c-0.38789,-0.27812 -0.36449,-0.92514 -0.69128,-1.27302c-0.16296,-0.17348 -0.79218,0.00411 -0.68363,-0.20772c0.11023,-0.21512 0.46558,0.16732 0.70722,0.16114c1.77489,-0.04538 3.74688,-0.3817 5.4927,-0.69723l0.84327,-0.7746z" data-paper-data="{&quot;noHover&quot;:false,&quot;origItem&quot;:[&quot;Path&quot;,{&quot;applyMatrix&quot;:true,&quot;segments&quot;:[[268.95424,218.66359],[[268.02812,219.49406],[0,0],[-1.74582,0.31553]],[[262.62781,220.16757],[1.77489,-0.04538],[-0.24164,0.00618]],[[261.9205,220.00772],[0.11023,-0.21512],[-0.10855,0.21183]],[[262.60424,220.21356],[-0.16296,-0.17348],[0.32679,0.34788]],[[263.29306,221.46887],[-0.38789,-0.27812],[1.05632,0.75741]],[[270.03708,222.00653],[-1.17141,0.1609],[2.28613,-0.31401]],[[269.18148,218.65448],[1.98242,0.09996],[-0.02897,-0.00146]],[[268.95424,218.66358],[0.11812,-0.00713],[0,0]]],&quot;closed&quot;:true,&quot;fillColor&quot;:[0,0,0,1],&quot;strokeWidth&quot;:0.5}]}" fill="#fffcff" stroke="none" stroke-width="0.25"/><path d="M162.93711,312.47427v-265.67406h312.10191v265.67406z" fill="none" stroke="#000000" stroke-width="0"/></g></g></svg>