<svg version="1.1" xmlns="http://www.w3.org/2000/svg" xmlns:xlink="http://www.w3.org/1999/xlink" width="312.10191" height="265.67406" viewBox="0,0,312.10191,265.67406"><g transform="translate(-162.93711,-46.80021)"><g data-paper-data="{&quot;isPaintingLayer&quot;:true}" fill-rule="nonzero" stroke-linecap="butt" stroke-linejoin="miter" stroke-miterlimit="10" stroke-dasharray="" stroke-dashoffset="0" style="mix-blend-mode: normal"><path d="M227.28459,116.86579c2.26148,-0.81624 3.49937,-2.79332 5.82202,-4.41258c2.2143,-1.54372 4.93184,-2.35536 7.20228,-3.81412c2.18994,-1.40703 2.60754,-2.10787 4.8436,-3.52349c7.74117,-4.90084 17.08979,-5.90212 25.19071,-9.89478c3.33586,-1.61345 6.88499,-1.47849 10.26886,-2.86341c5.43941,-2.2262 10.12259,-5.99471 15.87148,-7.59907c4.63118,-1.29243 9.71252,-1.50541 14.44466,-2.34046c5.0284,-0.88734 9.90471,-2.0905 15.02877,-2.22795c12.72687,-0.32752 25.91152,-3.64006 38.74832,-1.98386c6.50254,0.83895 13.1382,2.62926 19.50945,4.22258c3.96177,1.13815 8.20357,1.07031 12.12683,2.33564c4.64782,1.49902 8.55429,4.08143 12.76247,6.44062c0.93525,0.52432 2.04334,0.75261 2.89231,1.4075c6.60366,5.09401 7.40983,14.04726 11.68188,20.52505c1.12317,1.70308 2.55858,3.21811 3.46073,5.0479c0.05451,0.11205 2.63992,5.4243 2.66403,5.48319c0.54426,1.32911 0.54087,2.90488 1.34933,4.09194c1.84949,2.71559 4.3685,5.95149 6.4477,8.42794c3.52959,4.20396 9.42502,5.50858 13.3032,9.39002c4.54342,4.54723 6.22055,12.04252 7.57872,18.1569c0.81461,7.43279 4.06036,14.03575 5.38586,21.20681c0.27666,1.49674 -0.42998,3.02298 -0.43983,4.54504c-0.00623,0.96288 0.40497,1.89447 0.42584,2.85715c0.20563,9.4839 -3.62156,19.64278 -5.10817,29.00239c-1.30975,4.59976 -1.92002,11.26039 -4.50459,15.37453c-0.81768,1.30158 -2.33837,2.04924 -3.19362,3.32644c-0.91696,1.36935 -1.25128,3.15236 -2.42667,4.30752c-0.70423,0.69211 -1.81794,0.89365 -2.47006,1.63506c-0.6157,0.7 -0.68123,1.75031 -1.19299,2.52953c-1.60539,2.44439 -4.16445,5.63259 -6.04785,7.86336c-1.21794,1.44257 -2.97098,2.3602 -4.22752,3.76927c-1.89038,2.11986 -3.43398,4.73639 -5.14713,7.00898c-6.37994,5.13735 -11.23465,11.9874 -18.68458,15.89675c-10.53203,5.52668 -22.5569,8.37849 -34.37731,10.06546c-3.08927,0.67196 -6.08732,1.31202 -9.0993,1.89684c-4.34141,0.84295 -8.11949,4.11629 -12.25753,5.4765c-3.05364,1.00376 -5.89473,0.15381 -8.95006,0.57989c-1.68298,0.2347 -3.21541,1.19844 -4.9033,1.3947c-6.05662,0.70424 -12.89261,0.47557 -19.01378,0.47928c-15.23795,0 -30.73155,0.04255 -45.75833,-2.3218c-2.84232,-0.44722 -4.81708,-2.22859 -7.44756,-2.85149c-1.95647,-0.4633 -3.98082,-0.67455 -5.88662,-1.31516c-5.75909,-1.95365 -12.0094,-2.32079 -17.59952,-4.82168c-1.80117,-0.8058 -3.80995,-2.46524 -5.4746,-3.46432c-9.38558,-5.63298 -17.41593,-12.92968 -21.9744,-23.15129c-0.51535,-1.21287 -1.60663,-2.08941 -2.39755,-3.1435c-3.74978,-4.99745 -8.00225,-9.07754 -12.9837,-12.97253c-2.65641,-2.07704 -5.25157,-2.76473 -7.4247,-5.56355c-3.06829,-3.9517 -2.23724,-7.36871 -2.64933,-11.96618c-0.41611,-4.64231 -1.27358,-9.65474 -2.54376,-14.12537c-1.02047,-3.6086 -1.56689,-6.85834 -1.64554,-10.6124c-0.04526,-2.16047 0.41383,-4.65037 0.01906,-6.76358c-0.17998,-0.96343 -0.75872,-1.82435 -0.9298,-2.7894c-1.2931,-7.29425 1.96276,-14.7744 4.40739,-21.38926c1.80738,-4.89056 3.21463,-9.41611 5.69935,-14.03736c3.15476,-5.85042 4.26813,-12.33811 8.29607,-17.77043c1.41329,-1.90605 3.10651,-4.27945 4.90694,-5.85083c1.47779,-1.28979 2.79586,-2.03331 3.85911,-3.81268c1.52789,-2.55696 3.14582,-4.81507 4.62761,-7.40269c0.49886,-0.87114 1.4567,-1.50283 1.72133,-2.47119c0.18766,-0.68672 -0.2101,-1.49842 0.11313,-2.13271c0.30315,-0.59489 1.0618,-0.80981 1.59269,-1.21472c0.23164,-0.49567 0.4805,-0.9841 0.74587,-1.46342c-0.11652,-0.2022 -0.19156,-0.46267 -0.19156,-0.79817c0,-1.5 1.5,-1.5 1.5,-1.5c0.26109,0.00395 0.51026,-0.0037 0.74878,-0.02203l0.44,-0.28451c0,0 0.6455,-0.32275 1.26488,-0.07277zM226.685,120.07403c-0.59968,0.94439 -1.13921,1.92772 -1.65936,2.91808c-1.73816,0.93666 -1.02784,2.19872 -2.20094,4.02345c-1.89592,2.94903 -3.75101,5.82388 -5.5509,8.78965c-2.27983,3.75658 -6.27615,6.34713 -8.90016,9.86228c-3.93966,5.27763 -5.00208,11.69076 -8.07163,17.41516c-2.41984,4.50059 -3.76588,8.88949 -5.52765,13.65663c-2.2401,6.06143 -5.51295,13.16219 -4.26011,19.86876c0.17998,0.96343 0.75872,1.82435 0.9298,2.7894c0.40226,2.26911 -0.02939,4.87313 0.01906,7.18342c0.07345,3.5021 0.58037,6.49012 1.53288,9.85654c1.31112,4.65433 2.21433,9.85298 2.64602,14.68509c0.23867,2.67157 -0.53776,5.65416 0.55786,8.22014c1.67054,3.91249 5.31734,4.8307 8.37047,7.1995c5.91814,4.59164 13.08399,10.33516 16.278,17.26138c4.30317,9.6555 11.92118,16.48786 20.77785,21.80037c1.5722,0.94306 3.5292,2.58348 5.24916,3.34185c5.47232,2.41289 11.60895,2.76366 17.24521,4.67564c1.85986,0.63734 3.8522,0.7946 5.75865,1.27492c2.52536,0.63625 4.36123,2.36725 7.06505,2.76716c14.92502,2.20751 30.18229,2.28736 45.30507,2.28736c5.99481,0.00382 12.6647,0.21504 18.59942,-0.45052c1.68868,-0.18938 3.22032,-1.16 4.9033,-1.3947c2.81436,-0.39248 5.64526,0.48433 8.41978,-0.45603c4.27512,-1.44896 8.13287,-4.65123 12.63484,-5.57498c3.00079,-0.61572 6.04107,-1.23258 9.13581,-1.90363c11.53212,-1.64906 23.2406,-4.39451 33.51569,-9.77007c7.16521,-3.74859 11.76077,-10.4318 17.92093,-15.32546c1.67527,-2.26531 3.20733,-4.84108 5.08067,-6.93803c1.22862,-1.37526 2.95442,-2.25716 4.14068,-3.66913c1.8496,-2.20152 4.26317,-5.17316 5.84865,-7.59378c0.58514,-0.89336 0.74254,-2.05467 1.44401,-2.85992c0.66513,-0.76354 1.78164,-1.00257 2.52224,-1.69314c1.12853,-1.05228 1.35389,-2.78527 2.22233,-4.06069c0.82398,-1.21012 2.28061,-1.90864 3.06784,-3.14298c2.40564,-3.77195 2.898,-10.18892 4.11075,-14.41825c0.73294,-4.67148 1.49669,-9.27843 2.5528,-13.88755c1.04789,-4.57324 2.60695,-9.66126 2.48556,-14.39677c-0.02658,-1.03679 -0.43326,-2.04547 -0.42269,-3.08255c0.0131,-1.28474 0.76429,-2.56798 0.48997,-3.82316c-1.56062,-7.14092 -4.59443,-13.83113 -5.39996,-21.28568c-1.21762,-5.47668 -2.66265,-12.45047 -6.74007,-16.52403c-3.94905,-3.94532 -9.81404,-5.26656 -13.47357,-9.57533c-0.68089,-0.80169 -0.99207,-1.85954 -1.58316,-2.72956c-1.49939,-2.20695 -3.71948,-3.91991 -5.17378,-6.13936c-0.85939,-1.31154 -0.93045,-2.99906 -1.52465,-4.45013c-0.74576,-1.82119 -1.72459,-3.53799 -2.58549,-5.30766c-0.8269,-1.72666 -2.23237,-3.11252 -3.27407,-4.71875c-3.96267,-6.11021 -4.79816,-15.06316 -10.99677,-19.78625c-4.00697,-3.05315 -9.85273,-5.77957 -14.68368,-7.35281c-3.88101,-1.26389 -8.11534,-1.19556 -12.04798,-2.31336c-6.24834,-1.56158 -12.74863,-3.30683 -19.12095,-4.14562c-12.65416,-1.66566 -25.73138,1.68497 -38.28365,2.008c-4.96822,0.12206 -9.70893,1.32291 -14.5846,2.1833c-4.63526,0.81796 -9.61276,1.02364 -14.1522,2.27362c-5.63089,1.55052 -10.21672,5.31584 -15.55138,7.48901c-3.33166,1.35722 -6.85512,1.17136 -10.08189,2.77952c-8.00516,3.90734 -17.28817,4.91265 -24.90686,9.73595c-1.69275,1.07166 -3.17449,2.45347 -4.86123,3.53457c-2.22718,1.42748 -4.90711,2.21884 -7.07367,3.72928c-3.12894,2.18137 -4.65657,4.51721 -8.13729,5.15984z" fill="#000000" stroke="none" stroke-width="0.5"/><path d="M226.64425,120.04506c3.48072,-0.64263 5.01065,-2.98147 8.13959,-5.16284c2.16656,-1.51044 4.84862,-2.3042 7.0758,-3.73168c1.68674,-1.0811 3.1703,-2.46474 4.86305,-3.5364c7.61869,-4.8233 16.911,-5.83561 24.91616,-9.74295c3.22677,-1.60816 6.75451,-1.42453 10.08617,-2.78175c5.33466,-2.17317 9.92812,-5.94128 15.55901,-7.4918c4.53944,-1.24998 9.52354,-1.45701 14.1588,-2.27497c4.87567,-0.86039 9.62326,-2.06169 14.59148,-2.18375c12.55227,-0.32303 25.646,-3.67079 38.30016,-2.00513c6.37232,0.83879 12.88002,2.58737 19.12836,4.14895c3.93264,1.1178 8.17098,1.05193 12.05199,2.31582c4.83095,1.57324 10.68176,4.30359 14.68873,7.35674c6.19861,4.72309 7.04014,13.68243 11.00281,19.79264c1.0417,1.60623 2.44859,2.99397 3.27549,4.72063c0.8609,1.76967 1.84109,3.48846 2.58685,5.30965c0.5942,1.45107 0.66626,3.14021 1.52565,4.45175c1.4543,2.21945 3.67596,3.93527 5.17535,6.14222c0.59109,0.87002 0.90284,1.92903 1.58373,2.73072c3.65953,4.30877 9.52662,5.63514 13.47567,9.58046c4.07742,4.07356 5.52422,11.05385 6.74184,16.53053c0.80553,7.45455 3.84029,14.15283 5.40091,21.29375c0.27432,1.25518 -0.47684,2.53983 -0.48994,3.82457c-0.01057,1.03708 0.39611,2.0469 0.42269,3.08369c0.12139,4.73551 -1.43804,9.82892 -2.48593,14.40216c-1.05611,4.60912 -1.82079,9.22127 -2.55373,13.89275c-1.21275,4.22933 -1.70669,10.65168 -4.11233,14.42363c-0.78723,1.23434 -2.24439,1.93428 -3.06837,3.1444c-0.86844,1.27542 -1.09446,3.01003 -2.22299,4.06231c-0.7406,0.69057 -1.85751,0.9305 -2.52264,1.69404c-0.70147,0.80525 -0.85939,1.96768 -1.44453,2.86104c-1.58548,2.42062 -4.00076,5.3955 -5.85036,7.59702c-1.18626,1.41197 -2.91313,2.29564 -4.14175,3.6709c-1.87334,2.09695 -3.40732,4.67553 -5.08259,6.94084c-6.16016,4.89366 -10.76195,11.58387 -17.92716,15.33246c-10.27509,5.37556 -21.99513,8.12906 -33.52725,9.77812c-3.09474,0.67105 -6.13876,1.28961 -9.13955,1.90533c-4.50197,0.92375 -8.36563,4.12799 -12.64075,5.57695c-2.77452,0.94036 -5.60909,0.06438 -8.42345,0.45686c-1.68298,0.2347 -3.21689,1.20569 -4.90557,1.39507c-5.93472,0.66556 -12.61306,0.4548 -18.60787,0.45098c-15.12278,0 -30.39917,-0.08429 -45.32419,-2.2918c-2.70382,-0.39991 -4.54256,-2.13232 -7.06792,-2.76857c-1.90645,-0.48032 -3.90085,-0.63874 -5.76071,-1.27608c-5.63626,-1.91198 -11.77851,-2.26664 -17.25083,-4.67953c-1.71996,-0.75837 -3.67883,-2.40036 -5.25103,-3.34342c-8.85667,-5.31251 -16.48255,-12.15367 -20.78572,-21.80917c-3.19401,-6.92622 -10.36427,-12.67739 -16.28241,-17.26903c-3.05313,-2.3688 -6.70134,-3.29036 -8.37188,-7.20285c-1.09562,-2.56598 -0.32014,-5.55131 -0.55881,-8.22288c-0.43169,-4.83211 -1.33625,-10.03608 -2.64737,-14.69041c-0.95251,-3.36642 -1.46001,-6.35809 -1.53346,-9.86019c-0.04845,-2.31029 0.38295,-4.91695 -0.01931,-7.18606c-0.17108,-0.96505 -0.74988,-1.82702 -0.92986,-2.79045c-1.25284,-6.70657 2.02022,-13.81482 4.26032,-19.87625c1.76177,-4.76714 3.10869,-9.1615 5.52853,-13.66209c3.06955,-5.7244 4.13411,-12.14471 8.07377,-17.42234c2.62401,-3.51515 6.62239,-6.11038 8.90222,-9.86696c1.79989,-2.96577 3.65707,-5.84436 5.55299,-8.79339c1.1731,-1.82473 0.4638,-3.08838 2.20196,-4.02504c0.52015,-0.99036 1.06046,-1.97483 1.66014,-2.91922z" data-paper-data="{&quot;noHover&quot;:false,&quot;origItem&quot;:[&quot;Path&quot;,{&quot;applyMatrix&quot;:true,&quot;segments&quot;:[[[226.685,120.07403],[0,0],[-0.59968,0.94439]],[[225.02564,122.99211],[0.52015,-0.99036],[-1.73816,0.93666]],[[222.8247,127.01556],[1.1731,-1.82473],[-1.89592,2.94903]],[[217.2738,135.80521],[1.79989,-2.96577],[-2.27983,3.75658]],[[208.37364,145.66749],[2.62401,-3.51515],[-3.93966,5.27763]],[[200.30201,163.08265],[3.06955,-5.7244],[-2.41984,4.50059]],[[194.77436,176.73928],[1.76177,-4.76714],[-2.2401,6.06143]],[[190.51425,196.60804],[-1.25284,-6.70657],[0.17998,0.96343]],[[191.44405,199.39744],[-0.17108,-0.96505],[0.40226,2.26911]],[[191.46311,206.58086],[-0.04845,-2.31029],[0.07345,3.5021]],[[192.99599,216.4374],[-0.95251,-3.36642],[1.31112,4.65433]],[[195.64201,231.12249],[-0.43169,-4.83211],[0.23867,2.67157]],[[196.19987,239.34263],[-1.09562,-2.56598],[1.67054,3.91249]],[[204.57034,246.54213],[-3.05313,-2.3688],[5.91814,4.59164]],[[220.84834,263.80351],[-3.19401,-6.92622],[4.30317,9.6555]],[[241.62619,285.60388],[-8.85667,-5.31251],[1.5722,0.94306]],[[246.87535,288.94573],[-1.71996,-0.75837],[5.47232,2.41289]],[[264.12056,293.62137],[-5.63626,-1.91198],[1.85986,0.63734]],[[269.87921,294.89629],[-1.90645,-0.48032],[2.52536,0.63625]],[[276.94426,297.66345],[-2.70382,-0.39991],[14.92502,2.20751]],[[322.24933,299.95081],[-15.12278,0],[5.99481,0.00382]],[[340.84875,299.50029],[-5.93472,0.66556],[1.68868,-0.18938]],[[345.75205,298.10559],[-1.68298,0.2347],[2.81436,-0.39248]],[[354.17183,297.64956],[-2.77452,0.94036],[4.27512,-1.44896]],[[366.80667,292.07458],[-4.50197,0.92375],[3.00079,-0.61572]],[[375.94248,290.17095],[-3.09474,0.67105],[11.53212,-1.64906]],[[409.45817,280.40088],[-10.27509,5.37556],[7.16521,-3.74859]],[[427.3791,265.07542],[-6.16016,4.89366],[1.67527,-2.26531]],[[432.45977,258.13739],[-1.87334,2.09695],[1.22862,-1.37526]],[[436.60045,254.46826],[-1.18626,1.41197],[1.8496,-2.20152]],[[442.4491,246.87448],[-1.58548,2.42062],[0.58514,-0.89336]],[[443.89311,244.01456],[-0.70147,0.80525],[0.66513,-0.76354]],[[446.41535,242.32142],[-0.7406,0.69057],[1.12853,-1.05228]],[[448.63768,238.26073],[-0.86844,1.27542],[0.82398,-1.21012]],[[451.70552,235.11775],[-0.78723,1.23434],[2.40564,-3.77195]],[[455.81627,220.6995],[-1.21275,4.22933],[0.73294,-4.67148]],[[458.36907,206.81195],[-1.05611,4.60912],[1.04789,-4.57324]],[[460.85463,192.41518],[0.12139,4.73551],[-0.02658,-1.03679]],[[460.43194,189.33263],[-0.01057,1.03708],[0.0131,-1.28474]],[[460.92191,185.50947],[0.27432,1.25518],[-1.56062,-7.14092]],[[455.52195,164.22379],[0.80553,7.45455],[-1.21762,-5.47668]],[[448.78188,147.69976],[4.07742,4.07356],[-3.94905,-3.94532]],[[435.30831,138.12443],[3.65953,4.30877],[-0.68089,-0.80169]],[[433.72515,135.39487],[0.59109,0.87002],[-1.49939,-2.20695]],[[428.55137,129.25551],[1.4543,2.21945],[-0.85939,-1.31154]],[[427.02672,124.80538],[0.5942,1.45107],[-0.74576,-1.82119]],[[424.44123,119.49772],[0.8609,1.76967],[-0.8269,-1.72666]],[[421.16716,114.77897],[1.0417,1.60623],[-3.96267,-6.11021]],[[410.17039,94.99272],[6.19861,4.72309],[-4.00697,-3.05315]],[[395.48671,87.63991],[4.83095,1.57324],[-3.88101,-1.26389]],[[383.43873,85.32655],[3.93264,1.1178],[-6.24834,-1.56158]],[[364.31778,81.18093],[6.37232,0.83879],[-12.65416,-1.66566]],[[326.03413,83.18893],[12.55227,-0.32303],[-4.96822,0.12206]],[[311.44953,85.37223],[4.87567,-0.86039],[-4.63526,0.81796]],[[297.29733,87.64585],[4.53944,-1.24998],[-5.63089,1.55052]],[[281.74595,95.13486],[5.33466,-2.17317],[-3.33166,1.35722]],[[271.66406,97.91438],[3.22677,-1.60816],[-8.00516,3.90734]],[[246.7572,107.65033],[7.61869,-4.8233],[-1.69275,1.07166]],[[241.89597,111.1849],[1.68674,-1.0811],[-2.22718,1.42748]],[[234.8223,114.91418],[2.16656,-1.51044],[-3.12894,2.18137]],[[226.68501,120.07402],[3.48072,-0.64263],[0,0]]],&quot;closed&quot;:true,&quot;fillColor&quot;:[0,0,0,1],&quot;strokeWidth&quot;:0.5}]}" fill="#ffadaa" stroke="none" stroke-width="0.25"/><path d="M266.90657,160.79882c0,1.5 -1.5,1.5 -1.5,1.5l-0.29023,-0.43934c-1.21439,1.15851 -2.90346,1.71432 -4.46869,2.32009c-1.00973,0.39078 -1.29913,1.84965 -2.27526,2.3181c-1.55603,0.74675 -3.51201,0.60741 -4.92477,1.59885c-10.02107,7.03245 -9.90075,19.50235 -10.23996,30.73406c-0.09543,2.83954 0.05195,5.88783 0.38148,8.70379c0.55716,4.76113 4.26532,9.46868 5.87747,13.93955c1.33782,3.71011 1.31909,8.98883 3.43932,12.25481c0.79518,1.22488 3.01459,2.44284 4.15186,3.1214c2.88227,1.71973 5.72217,3.59699 8.39628,5.63035c1.13179,1.71896 4.47123,3.0207 6.3588,4.20489c2.50127,1.5692 6.14105,4.32038 9.21852,4.47699c1.10976,0.05647 3.85731,-0.59736 4.50391,-0.67206c9.14875,-1.05697 17.81076,-5.29358 26.99115,-6.07637c3.6163,-0.48299 6.82737,-1.68406 10.36114,-2.34833c0.42089,-0.07912 5.35836,-0.28909 5.80666,-0.34819c6.99097,-0.92158 13.97146,-3.06966 20.4752,-5.63858c4.07624,-1.61008 9.02034,-3.43037 11.45229,-7.43723c1.00659,-1.65845 1.40497,-3.61675 2.09866,-5.4285c3.40003,-6.32108 6.16474,-12.16132 8.35871,-18.96343c0.57929,-1.796 1.39146,-3.55838 1.58183,-5.43586c0.24,-2.36704 -0.00961,-4.93934 -0.0073,-7.32163c0.00366,-3.78155 -0.05738,-7.99511 -1.57096,-11.53618c-1.29572,-3.03139 -3.91467,-4.56736 -5.36288,-7.34146c-1.18432,-2.41715 -2.95331,-3.71484 -4.58801,-5.85188c-1.99283,-2.60522 -3.36247,-5.94071 -5.45861,-8.42908c-0.64913,-0.77059 -1.63666,-1.21153 -2.27235,-1.99325c-0.3306,-0.40655 -2.58783,-4.68086 -2.93311,-5.19411c-1.81305,-2.69505 -4.33947,-4.92137 -6.37764,-7.44126c-0.02191,-0.02709 -3.32285,-4.14297 -3.54597,-4.29792c-2.53121,-1.75789 -6.83835,-1.73682 -9.75366,-1.18751c-5.83593,3.57653 -11.17177,6.24871 -18.09562,7.49071c-3.57473,0.64124 -8.66218,2.21777 -12.43098,0.88685c-3.29492,-1.16357 -5.35525,-4.00845 -8.87638,-4.94364c-2.14465,-0.56961 -4.47052,0.37069 -6.73062,0.38196c-2.28129,-0.02474 -3.9398,0.77477 -6.16072,1.32997c-1.36081,0.34018 -2.97489,0.18807 -4.07174,1.0624c-0.87609,0.69835 -1.52767,1.67504 -2.47318,2.27608c-3.40189,2.16253 -8.05421,4.4669 -10.8662,7.36621c-1.16782,1.20409 -1.70175,2.89154 -2.58855,4.31534c-1.04984,1.68558 -2.96845,3.72753 -3.90872,5.66097c0.05419,-0.02002 0.10864,-0.03939 0.16336,-0.05808c0.68043,-0.23239 1.49293,0.17443 2.15437,-0.10749c1.05446,-0.44943 1.40446,-1.94667 2.45288,-2.41003c1.22817,-0.5428 2.72202,-0.74953 3.63668,-1.7326l2.41156,-0.43934c0,0 1.5,0 1.5,1.5zM251.1511,166.03769c-0.11792,-0.39558 -0.05763,-0.75734 -0.05763,-0.75734c0.66399,-3.17248 3.07661,-5.62312 4.85649,-8.48097c0.00922,-0.01481 2.81638,-4.64725 2.97102,-4.80709c0.28848,-0.29817 3.75983,-2.50644 4.23725,-2.86483c6.51982,-4.89432 12.95882,-10.0191 21.49859,-10.09207c2.68648,0.01562 4.79495,-0.92833 7.45378,-0.29349c3.65309,0.87223 5.76032,3.79892 9.04511,4.99083c3.23498,1.17383 7.7705,-0.37572 10.84983,-0.94225c0.81983,-0.15083 1.67483,0.08801 2.50064,-0.02563c5.54852,-0.76352 10.63585,-4.65408 15.20245,-7.3435c3.90595,-0.80933 9.08755,-0.84339 12.53611,1.51428c0.66217,0.45271 3.59731,4.16474 4.17797,4.88285c2.09637,2.59259 4.66255,4.88036 6.53278,7.65116c1.06324,1.57522 1.56421,3.51566 2.77498,4.98052c0.63227,0.76496 1.60831,1.19491 2.24311,1.95778c2.12396,2.55241 3.53526,5.90152 5.56122,8.55876c1.73401,2.27432 3.55602,3.7246 4.86825,6.30617c1.28781,2.75517 4.13295,4.46551 5.44428,7.51838c1.68415,3.92083 1.80241,8.50869 1.80628,12.7009c0.00229,2.47289 0.25459,5.16323 -0.0073,7.61724c-0.9626,9.01997 -5.97105,17.53336 -10.19852,25.35316c-0.24256,0.63747 -1.99305,5.30208 -2.26906,5.74799c-2.84377,4.59443 -8.1622,6.78873 -12.90835,8.65894c-6.72991,2.65192 -13.93711,4.86347 -21.16736,5.81991c-1.87876,0.24853 -3.81368,-0.02412 -5.67595,0.32726c-3.59228,0.6778 -6.89392,1.88943 -10.57773,2.37981c-9.18065,0.74605 -17.88328,5.021 -27.04465,6.08168c-1.66098,0.1923 -3.25527,0.78389 -4.95236,0.67883c-3.68926,-0.22838 -7.60963,-3.03363 -10.63363,-4.93024c-2.31328,-1.45087 -5.23889,-2.60922 -6.88598,-4.62496c-3.99636,-2.93929 -10.2876,-5.29298 -13.05109,-9.41939c-2.28412,-3.41063 -2.24033,-8.81704 -3.63718,-12.69086c-1.71447,-4.75464 -5.35022,-9.47742 -6.02634,-14.54108c-0.39395,-2.95045 -0.49502,-6.23337 -0.40902,-9.21321c0.37764,-11.8129 0.48037,-25.23908 10.942,-32.69957z" fill="#000000" stroke="none" stroke-width="0.5"/><path d="M266.86795,160.7671c0,-1.5 -1.42284,-1.43639 -1.42284,-1.43639l-2.41053,0.43805c-0.91466,0.98307 -2.40671,1.18732 -3.63488,1.73012c-1.04842,0.46336 -1.39689,1.95821 -2.45135,2.40764c-0.66144,0.28192 -1.47344,-0.12574 -2.15387,0.10665c-0.05472,0.01869 -0.19596,-0.01162 -0.25015,0.0084c0.94027,-1.93344 2.86193,-3.98009 3.91177,-5.66567c0.8868,-1.4238 1.42325,-3.11442 2.59107,-4.31851c2.81199,-2.89931 7.47208,-5.21095 10.87397,-7.37348c0.94551,-0.60104 1.59935,-1.57934 2.47544,-2.27769c1.09685,-0.87433 2.71379,-0.724 4.0746,-1.06418c2.22092,-0.5552 3.88409,-1.35708 6.16538,-1.33234c2.2601,-0.01127 4.5913,-0.95358 6.73595,-0.38397c3.52113,0.93519 5.58849,3.77841 8.88341,4.94198c3.7688,1.33092 8.869,-0.24601 12.44373,-0.88725c6.92385,-1.242 12.27365,-3.91075 18.10958,-7.48728c2.91531,-0.54931 7.22911,-0.56709 9.76032,1.1908c0.22312,0.15495 3.52759,4.27312 3.5495,4.30021c2.03817,2.51989 4.57061,4.75125 6.38366,7.4463c0.34528,0.51325 2.6058,4.79111 2.9364,5.19766c0.63569,0.78172 1.62478,1.22461 2.27391,1.9952c2.09614,2.48837 3.47027,5.83094 5.4631,8.43616c1.6347,2.13704 3.40612,3.44014 4.59044,5.85729c1.44821,2.7741 4.06913,4.31656 5.36485,7.34795c1.51358,3.54107 1.57585,7.76353 1.57219,11.54508c-0.00231,2.38229 0.24725,4.96024 0.00725,7.32728c-0.19037,1.87748 -1.00301,3.64417 -1.5823,5.44017c-2.19397,6.80211 -4.96381,12.65794 -8.36384,18.97902c-0.69369,1.81175 -1.0944,3.77403 -2.10099,5.43248c-2.43195,4.00686 -7.38281,5.83547 -11.45905,7.44555c-6.50374,2.56892 -13.49933,4.72727 -20.4903,5.64885c-0.4483,0.0591 -5.3909,0.271 -5.81179,0.35012c-3.53377,0.66427 -6.75526,1.86743 -10.37156,2.35042c-9.18039,0.78279 -17.86555,5.01602 -27.0143,6.07299c-0.6466,0.0747 -3.39702,0.72727 -4.50678,0.6708c-3.07747,-0.15661 -6.72426,-2.91185 -9.22553,-4.48105c-1.88757,-1.18419 -5.23169,-2.48961 -6.36348,-4.20857c-2.67411,-2.03336 -5.51929,-3.91607 -8.40156,-5.6358c-1.13727,-0.67856 -3.35896,-1.89948 -4.15414,-3.12436c-2.12023,-3.26598 -2.10618,-8.55278 -3.444,-12.26289c-1.61215,-4.47087 -5.32391,-9.18944 -5.88107,-13.95057c-0.32953,-2.81596 -0.47779,-5.87084 -0.38236,-8.71038c0.33921,-11.23171 0.22379,-23.72673 10.24486,-30.75918c1.41276,-0.99144 3.3702,-0.85489 4.92623,-1.60164c0.97613,-0.46845 1.26697,-1.92971 2.2767,-2.32049c1.56523,-0.60577 3.25662,-1.1649 4.47101,-2.32341l0.29013,0.43947c0,0 1.50122,-0.00155 1.50122,-1.50155z" data-paper-data="{&quot;noHover&quot;:false,&quot;origItem&quot;:[&quot;Path&quot;,{&quot;applyMatrix&quot;:true,&quot;segments&quot;:[[[266.90657,160.79882],[0,0],[0,1.5]],[265.40657,162.29882],[[265.11634,161.85948],[0,0],[-1.21439,1.15851]],[[260.64765,164.17957],[1.56523,-0.60577],[-1.00973,0.39078]],[[258.37239,166.49767],[0.97613,-0.46845],[-1.55603,0.74675]],[[253.44762,168.09652],[1.41276,-0.99144],[-10.02107,7.03245]],[[243.20766,198.83058],[0.33921,-11.23171],[-0.09543,2.83954]],[[243.58914,207.53437],[-0.32953,-2.81596],[0.55716,4.76113]],[[249.46661,221.47392],[-1.61215,-4.47087],[1.33782,3.71011]],[[252.90593,233.72873],[-2.12023,-3.26598],[0.79518,1.22488]],[[257.05779,236.85013],[-1.13727,-0.67856],[2.88227,1.71973]],[[265.45407,242.48048],[-2.67411,-2.03336],[1.13179,1.71896]],[[271.81287,246.68537],[-1.88757,-1.18419],[2.50127,1.5692]],[[281.03139,251.16236],[-3.07747,-0.15661],[1.10976,0.05647]],[[285.5353,250.4903],[-0.6466,0.0747],[9.14875,-1.05697]],[[312.52645,244.41393],[-9.18039,0.78279],[3.6163,-0.48299]],[[322.88759,242.0656],[-3.53377,0.66427],[0.42089,-0.07912]],[[328.69425,241.71741],[-0.4483,0.0591],[6.99097,-0.92158]],[[349.16945,236.07883],[-6.50374,2.56892],[4.07624,-1.61008]],[[360.62174,228.6416],[-2.43195,4.00686],[1.00659,-1.65845]],[[362.7204,223.2131],[-0.69369,1.81175],[3.40003,-6.32108]],[[371.07911,204.24967],[-2.19397,6.80211],[0.57929,-1.796]],[[372.66094,198.81381],[-0.19037,1.87748],[0.24,-2.36704]],[[372.65364,191.49218],[-0.00231,2.38229],[0.00366,-3.78155]],[[371.08268,179.956],[1.51358,3.54107],[-1.29572,-3.03139]],[[365.7198,172.61454],[1.44821,2.7741],[-1.18432,-2.41715]],[[361.13179,166.76266],[1.6347,2.13704],[-1.99283,-2.60522]],[[355.67318,158.33358],[2.09614,2.48837],[-0.64913,-0.77059]],[[353.40083,156.34033],[0.63569,0.78172],[-0.3306,-0.40655]],[[350.46772,151.14622],[0.34528,0.51325],[-1.81305,-2.69505]],[[344.09008,143.70496],[2.03817,2.51989],[-0.02191,-0.02709]],[[340.54411,139.40704],[0.22312,0.15495],[-2.53121,-1.75789]],[[330.79045,138.21953],[2.91531,-0.54931],[-5.83593,3.57653]],[[312.69483,145.71024],[6.92385,-1.242],[-3.57473,0.64124]],[[300.26385,146.59709],[3.7688,1.33092],[-3.29492,-1.16357]],[[291.38747,141.65345],[3.52113,0.93519],[-2.14465,-0.56961]],[[284.65685,142.03541],[2.2601,-0.01127],[-2.28129,-0.02474]],[[278.49613,143.36538],[2.22092,-0.5552],[-1.36081,0.34018]],[[274.42439,144.42778],[1.09685,-0.87433],[-0.87609,0.69835]],[[271.95121,146.70386],[0.94551,-0.60104],[-3.40189,2.16253]],[[261.08501,154.07007],[2.81199,-2.89931],[-1.16782,1.20409]],[[258.49646,158.38541],[0.8868,-1.4238],[-1.04984,1.68558]],[[254.58774,164.04638],[0.94027,-1.93344],[0.05419,-0.02002]],[[254.7511,163.9883],[-0.05472,0.01869],[0.68043,-0.23239]],[[256.90547,163.88081],[-0.66144,0.28192],[1.05446,-0.44943]],[[259.35835,161.47078],[-1.04842,0.46336],[1.22817,-0.5428]],[[262.99503,159.73818],[-0.91466,0.98307],[0,0]],[265.40659,159.29884],[[266.90659,160.79884],[0,-1.5],[0,0]]],&quot;closed&quot;:true,&quot;fillColor&quot;:[0,0,0,1],&quot;strokeWidth&quot;:0.5}]}" fill="#fdfdfd" stroke="none" stroke-width="0.25"/><path d="M162.93711,312.47427v-265.67406h312.10191v265.67406z" fill="none" stroke="#000000" stroke-width="0"/></g></g></svg>