<svg version="1.1" xmlns="http://www.w3.org/2000/svg" xmlns:xlink="http://www.w3.org/1999/xlink" width="312.10191" height="265.67406" viewBox="0,0,312.10191,265.67406"><g transform="translate(-162.93711,-46.80021)"><g data-paper-data="{&quot;isPaintingLayer&quot;:true}" fill-rule="nonzero" stroke-linecap="butt" stroke-linejoin="miter" stroke-miterlimit="10" stroke-dasharray="" stroke-dashoffset="0" style="mix-blend-mode: normal"><path d="M262.25808,219.73132c0.13233,-0.60235 0.67308,-0.96285 0.67308,-0.96285c1.02135,-0.67176 2.79149,-2.06419 4.12517,-1.61377c3.13013,1.05712 3.31604,5.36442 1.4633,7.36327c-2.67569,2.88668 -9.40917,0.81885 -7.27572,-3.66797c0.21975,-0.46216 0.59421,-0.80759 1.01417,-1.11868zM266.62332,220.41629c-0.22917,0.2473 -0.47647,0.37095 -0.47647,0.37095l-0.6005,0.26604c-0.51587,0.32817 -1.11679,0.55067 -1.5476,0.9845c-0.26963,0.27152 0.14242,0.91743 0.50837,1.02927c0.58927,0.18009 2.45049,-0.67307 2.46826,-1.41376c0.01745,-0.72727 -0.12216,-1.0949 -0.35207,-1.23702z" fill="#000000" stroke="none" stroke-width="0.5"/><path d="M266.65637,220.37876c0.22991,0.14212 0.38635,0.54398 0.3689,1.27125c-0.01777,0.74069 -1.95793,1.63782 -2.5472,1.45773c-0.36595,-0.11184 -0.79802,-0.78881 -0.52839,-1.06033c0.43081,-0.43383 1.08799,-0.71545 1.60386,-1.04362l0.62269,-0.25701c0,0 0.25097,-0.12071 0.48014,-0.36801z" data-paper-data="{&quot;noHover&quot;:false,&quot;origItem&quot;:[&quot;Path&quot;,{&quot;applyMatrix&quot;:true,&quot;segments&quot;:[[[266.62332,220.41629],[0,0],[-0.22917,0.2473]],[266.14685,220.78724],[[265.54635,221.05328],[0,0],[-0.51587,0.32817]],[[263.99875,222.03778],[0.43081,-0.43383],[-0.26963,0.27152]],[[264.50712,223.06705],[-0.36595,-0.11184],[0.58927,0.18009]],[[266.97538,221.65329],[-0.01777,0.74069],[0.01745,-0.72727]],[[266.62331,220.41627],[0.22991,0.14212],[0,0]]],&quot;closed&quot;:true,&quot;fillColor&quot;:[0,0,0,1],&quot;strokeWidth&quot;:0.5}]}" fill="#fffcff" stroke="none" stroke-width="0.25"/><path d="M286.41519,201.08984c-0.05607,0.02804 -0.11097,0.05256 -0.1647,0.07381c0.26519,0.58119 0.48876,1.22927 0.66444,1.93513c0.73538,2.95458 -0.66743,5.43975 -1.94322,7.96901c-0.33548,0.66509 -0.38178,1.59577 -1.01242,1.99223c-3.6354,2.28546 -8.34184,-1.69477 -9.98896,-4.67401c-1.73646,-3.14083 -0.03978,-6.26016 1.75724,-8.80123c1.11995,-0.09109 2.23672,-0.2153 3.34881,-0.37175c1.73884,-1.43183 3.40456,-1.61898 4.78072,-0.87607c0.4615,-0.10434 0.92178,-0.21417 1.38075,-0.32944l1.84818,1.06986c0,0 0.67082,1.34164 -0.67082,2.01246zM283.19416,201.62553c-0.96179,0.23301 -1.95417,0.44356 -2.92844,0.56632c-0.30645,0.2454 -0.98987,0.64274 -1.75225,0.11179c-0.44878,-0.0042 -0.88651,-0.03787 -1.30781,-0.10826c-0.87505,2.74173 -1.39887,4.2377 0.88917,6.48023c0.46034,0.45119 2.98588,2.8657 4.01071,2.02569c1.06905,-0.87626 2.32421,-5.34893 1.89734,-6.88147c-0.24217,-0.86943 -0.49549,-1.64909 -0.80871,-2.1943z" fill="#000000" stroke="none" stroke-width="0.5"/><path d="M283.22086,201.58325c0.31322,0.54521 0.58173,1.33984 0.8239,2.20927c0.42687,1.53254 -0.85114,6.07876 -1.92019,6.95502c-1.02483,0.84001 -3.60283,-1.58355 -4.06317,-2.03474c-2.28804,-2.24253 -1.76096,-3.81556 -0.88591,-6.55729c0.4213,0.07039 0.86883,0.09827 1.31761,0.10247c0.76238,0.53095 1.46606,0.12927 1.77251,-0.11613c0.97427,-0.12276 1.99344,-0.32559 2.95523,-0.5586z" data-paper-data="{&quot;noHover&quot;:false,&quot;origItem&quot;:[&quot;Path&quot;,{&quot;applyMatrix&quot;:true,&quot;segments&quot;:[[[283.19416,201.62553],[0,0],[-0.96179,0.23301]],[[280.26572,202.19185],[0.97427,-0.12276],[-0.30645,0.2454]],[[278.51347,202.30364],[0.76238,0.53095],[-0.44878,-0.0042]],[[277.20566,202.19538],[0.4213,0.07039],[-0.87505,2.74173]],[[278.09483,208.67561],[-2.28804,-2.24253],[0.46034,0.45119]],[[282.10554,210.7013],[-1.02483,0.84001],[1.06905,-0.87626]],[[284.00288,203.81983],[0.42687,1.53254],[-0.24217,-0.86943]],[[283.19417,201.62553],[0.31322,0.54521],[0,0]]],&quot;closed&quot;:true,&quot;fillColor&quot;:[0,0,0,1],&quot;strokeWidth&quot;:0.5}]}" fill="#fffcff" stroke="none" stroke-width="0.25"/><path d="M308.32013,196.63698c0.33849,-0.4524 0.89715,-0.59207 0.89715,-0.59207c1.55725,-0.37337 2.86197,-0.91182 4.51326,-0.21313c3.01164,1.27429 3.26003,5.01807 0.61249,6.81222c-2.79193,1.89201 -6.96458,1.1921 -7.52237,-2.30632c-0.13474,-0.8451 -0.55574,-1.82654 -0.12227,-2.56441c0.35446,-0.60336 0.95119,-0.93967 1.62173,-1.13629zM312.81418,198.6931c-0.32817,0.30495 -0.72827,0.40498 -0.72827,0.40498l-0.81017,0.18234c-0.39042,0.02819 -1.01104,-0.23275 -1.44753,-0.30382c-0.08858,0.01259 -0.2211,0.02465 -0.37466,0.01654c-0.07933,0.03796 -0.12678,0.11055 -0.12993,0.23214c-0.04113,1.58656 0.79127,1.34164 2.09561,1.0878c0.6369,-0.12395 1.73332,0.02411 1.84693,-0.61471c0.09828,-0.55262 -0.10395,-0.85592 -0.45196,-1.00526z" fill="#000000" stroke="none" stroke-width="0.5"/><path d="M312.8571,198.66742c0.34801,0.14934 0.55728,0.48094 0.459,1.03356c-0.11361,0.63882 -1.2522,0.53755 -1.8891,0.6615c-1.30434,0.25384 -2.19365,0.44018 -2.15252,-1.14638c0.00315,-0.12159 0.0522,-0.20046 0.13153,-0.23842c0.15356,0.00811 0.28751,-0.0078 0.37609,-0.02039c0.43649,0.07107 1.09836,0.30157 1.48878,0.27338l0.85717,-0.1595c0,0 0.31507,-0.04742 0.64324,-0.35237z" data-paper-data="{&quot;noHover&quot;:false,&quot;origItem&quot;:[&quot;Path&quot;,{&quot;applyMatrix&quot;:true,&quot;segments&quot;:[[[312.81418,198.6931],[0,0],[-0.32817,0.30495]],[312.08591,199.09808],[[311.27574,199.28042],[0,0],[-0.39042,0.02819]],[[309.82821,198.9766],[0.43649,0.07107],[-0.08858,0.01259]],[[309.45355,198.99314],[0.15356,0.00811],[-0.07933,0.03796]],[[309.32362,199.22528],[0.00315,-0.12159],[-0.04113,1.58656]],[[311.41923,200.31308],[-1.30434,0.25384],[0.6369,-0.12395]],[[313.26616,199.69837],[-0.11361,0.63882],[0.09828,-0.55262]],[[312.8142,198.69311],[0.34801,0.14934],[0,0]]],&quot;closed&quot;:true,&quot;fillColor&quot;:[0,0,0,1],&quot;strokeWidth&quot;:0.5}]}" fill="#fffcff" stroke="none" stroke-width="0.25"/><path d="M162.93711,312.47427v-265.67406h312.10191v265.67406z" fill="none" stroke="#000000" stroke-width="0"/></g></g></svg>