<svg version="1.1" xmlns="http://www.w3.org/2000/svg" xmlns:xlink="http://www.w3.org/1999/xlink" width="312.10191" height="265.67406" viewBox="0,0,312.10191,265.67406"><g transform="translate(-162.93711,-46.80021)"><g data-paper-data="{&quot;isPaintingLayer&quot;:true}" fill-rule="nonzero" stroke-linecap="butt" stroke-linejoin="miter" stroke-miterlimit="10" stroke-dasharray="" stroke-dashoffset="0" style="mix-blend-mode: normal"><path d="M332.72631,216.52457c1.14123,0.06825 2.1508,0.39579 3.14655,1.59041c3.08105,3.69643 1.76258,12.17759 -4.10504,11.99921c-3.82559,-0.1163 -5.6915,-5.34058 -6.3119,-8.34369c-0.18345,-0.88801 -0.60109,-1.83401 -0.33206,-2.69994c0.68169,-2.19419 2.55577,-2.53331 4.31122,-3.26573l1.5163,-0.35703c0,0 1.42245,-0.31609 1.77493,1.07679zM328.95439,219.03415c-0.47807,0.16583 -0.86426,0.40653 -0.94519,0.85789c-0.27249,1.5196 1.9647,7.12837 3.91841,7.22642c3.25799,0.1635 2.7824,-5.35232 1.60436,-7.12725c-0.61475,-0.92623 -2.47356,-0.43726 -3.39707,-0.43726c0,0 -0.74003,0 -1.18051,-0.5198z" fill="#000000" stroke="none" stroke-width="0.5"/><path d="M330.12039,219.5061c0.92351,0 2.82694,-0.48104 3.44169,0.44519c1.17804,1.77493 1.63234,7.37989 -1.62565,7.21639c-1.95371,-0.09805 -4.23512,-5.79134 -3.96263,-7.31094c0.08093,-0.45136 0.47822,-0.70045 0.95629,-0.86628c0.44048,0.5198 1.1903,0.51565 1.1903,0.51565z" data-paper-data="{&quot;noHover&quot;:false,&quot;origItem&quot;:[&quot;Path&quot;,{&quot;applyMatrix&quot;:true,&quot;segments&quot;:[[[328.95439,219.03415],[0.44048,0.5198],[-0.47807,0.16583]],[[328.0092,219.89204],[0.08093,-0.45136],[-0.27249,1.5196]],[[331.92761,227.11846],[-1.95371,-0.09805],[3.25799,0.1635]],[[333.53197,219.99121],[1.17804,1.77493],[-0.61475,-0.92623]],[[330.1349,219.55395],[0.92351,0],[0,0]]],&quot;closed&quot;:true,&quot;fillColor&quot;:[0,0,0,1],&quot;strokeWidth&quot;:0.5}]}" fill="#fffcff" stroke="none" stroke-width="0.25"/><path d="M311.01889,194.96977c0.73652,0.88383 0.23025,1.65468 -0.04567,1.96592c2.68123,0.59546 5.24322,1.65571 5.89637,4.84246c0.19906,0.97123 0.4779,2.20171 -0.148,2.97057c-0.60738,0.74611 -1.86867,0.45992 -2.80925,0.66215c-1.60921,0.34599 -7.15373,1.11175 -8.39271,-0.28766c-1.74499,-1.97094 -0.1492,-5.60676 1.33216,-7.98138c0.03242,-0.06063 0.06772,-0.1162 0.10537,-0.16712c0.30889,-0.48472 0.60914,-0.911 0.86897,-1.25191l1.08016,-0.94509c0,0 1.15233,-0.96028 2.11261,0.19206zM309.02944,199.55883c-0.06388,0.15062 -0.12409,0.30252 -0.18078,0.45517c-0.29862,0.80425 -0.6027,1.60662 -0.92203,2.40288c-0.08117,0.2024 -0.45944,0.46937 -0.27895,0.59177c0.21279,0.1443 0.45585,-0.26811 0.71112,-0.29869c1.49012,-0.1785 4.10636,-0.48465 5.66115,-0.04351c-0.00916,-0.00786 -0.01696,-0.01582 -0.02312,-0.02384c-0.69881,-0.90984 -0.61125,-1.68071 -1.63598,-2.29642c-0.87471,-0.52557 -2.17655,-0.65724 -3.33141,-0.78736z" fill="#000000" stroke="none" stroke-width="0.5"/><path d="M312.40345,200.32002c1.02473,0.61571 0.94064,1.43217 1.63945,2.34201c0.00616,0.00802 0.01389,0.01615 0.02305,0.02401c-1.55479,-0.44114 -4.26036,-0.12964 -5.75048,0.04886c-0.25527,0.03058 -0.49898,0.44182 -0.71177,0.29752c-0.18049,-0.1224 0.19514,-0.39507 0.27631,-0.59747c0.31933,-0.79626 0.62821,-1.64411 0.92683,-2.44836c0.05669,-0.15265 0.12297,-0.3121 0.18685,-0.46272c1.15486,0.13012 2.53506,0.27057 3.40977,0.79614z" data-paper-data="{&quot;noHover&quot;:false,&quot;origItem&quot;:[&quot;Path&quot;,{&quot;applyMatrix&quot;:true,&quot;segments&quot;:[[[309.02944,199.55883],[1.15486,0.13012],[-0.06388,0.15062]],[[308.84866,200.014],[0.05669,-0.15265],[-0.29862,0.80425]],[[307.92663,202.41688],[0.31933,-0.79626],[-0.08117,0.2024]],[[307.64768,203.00865],[-0.18049,-0.1224],[0.21279,0.1443]],[[308.3588,202.70996],[-0.25527,0.03058],[1.49012,-0.1785]],[[314.01995,202.66645],[-1.55479,-0.44114],[-0.00916,-0.00786]],[[313.99683,202.64261],[0.00616,0.00802],[-0.69881,-0.90984]],[[312.36085,200.34619],[1.02473,0.61571],[-0.87471,-0.52557]]],&quot;closed&quot;:true,&quot;fillColor&quot;:[0,0,0,1],&quot;strokeWidth&quot;:0.5}]}" fill="#fffcff" stroke="none" stroke-width="0.25"/><path d="M278.237,193.28748c-0.03439,0.24075 -0.10224,0.4369 -0.1918,0.59657c3.91419,1.55914 4.09143,5.51767 6.25472,8.95155c1.1393,1.80845 2.95204,3.89362 2.15414,6.27116c-0.92855,2.76684 -7.2078,3.81513 -9.18725,1.73451c-1.50394,-1.58081 -1.7369,-5.47629 -2.39367,-7.44579c-0.76237,-2.28617 -0.905,-4.15121 -0.90568,-6.60903c0.00246,-1.35436 0.12159,-2.70935 0.29863,-4.05209l2.69812,-1.14394c0,0 1.48492,0.21213 1.27279,1.69706zM276.96769,196.64455c-0.00024,0.0473 -0.00032,0.0946 -0.00022,0.1419c-0.00062,2.1505 0.06375,3.60042 0.71995,5.56985c0.41686,1.25108 0.8333,3.28455 1.21051,4.68929c0.14968,0.55742 0.1715,1.1757 0.47958,1.66377c0.38563,0.61092 1.44611,-0.04636 2.1632,-0.13422c0.69741,-0.08544 1.99918,0.28436 2.06662,-0.41503c0.13209,-1.36989 -1.18288,-2.65725 -1.84244,-3.72028c-1.49012,-2.40165 -1.93862,-6.83216 -4.79721,-7.7953z" fill="#000000" stroke="none" stroke-width="0.5"/><path d="M276.94394,196.60053c2.85859,0.96314 3.36431,5.47479 4.85443,7.87644c0.65956,1.06303 1.96738,2.35576 1.83529,3.72565c-0.06744,0.69939 -1.38495,0.33595 -2.08236,0.42139c-0.71709,0.08786 -1.7958,0.74568 -2.18143,0.13476c-0.30808,-0.48807 -0.33786,-1.10826 -0.48754,-1.66568c-0.37721,-1.40474 -0.82731,-3.49421 -1.24417,-4.74529c-0.6562,-1.96943 -0.69547,-3.45462 -0.69485,-5.60512c-0.0001,-0.0473 0.00041,-0.09484 0.00065,-0.14214z" data-paper-data="{&quot;noHover&quot;:false,&quot;origItem&quot;:[&quot;Path&quot;,{&quot;applyMatrix&quot;:true,&quot;segments&quot;:[[[276.96769,196.64455],[0,0],[-0.00024,0.0473]],[[276.96747,196.78645],[-0.0001,-0.0473],[-0.00062,2.1505]],[[277.68742,202.3563],[-0.6562,-1.96943],[0.41686,1.25108]],[[278.89793,207.04559],[-0.37721,-1.40474],[0.14968,0.55742]],[[279.37751,208.70936],[-0.30808,-0.48807],[0.38563,0.61092]],[[281.54071,208.57514],[-0.71709,0.08786],[0.69741,-0.08544]],[[283.60733,208.16011],[-0.06744,0.69939],[0.13209,-1.36989]],[[281.76489,204.43983],[0.65956,1.06303],[-1.49012,-2.40165]],[[276.96768,196.64453],[2.85859,0.96314],[0,0]]],&quot;closed&quot;:true,&quot;fillColor&quot;:[0,0,0,1],&quot;strokeWidth&quot;:0.5}]}" fill="#fffcff" stroke="none" stroke-width="0.25"/><path d="M162.93711,312.47427v-265.67406h312.10191v265.67406z" fill="none" stroke="#000000" stroke-width="0"/></g></g></svg>