<svg version="1.1" xmlns="http://www.w3.org/2000/svg" xmlns:xlink="http://www.w3.org/1999/xlink" width="312.10191" height="266.16534" viewBox="0,0,312.10191,266.16534"><g transform="translate(-162.93711,-46.80021)"><g data-paper-data="{&quot;isPaintingLayer&quot;:true}" fill-rule="nonzero" stroke-linecap="butt" stroke-linejoin="miter" stroke-miterlimit="10" stroke-dasharray="" stroke-dashoffset="0" style="mix-blend-mode: normal"><path d="M226.76328,137.49526c0.31075,1.46746 -1.15671,1.77821 -1.15671,1.77821l-2.64335,0.55883c-1.53243,0.43833 -3.06405,0.87978 -4.59071,1.33781c-4.98516,1.46874 -10.43832,1.49621 -15.03107,4.39677c-3.75579,2.37198 -6.01528,6.80369 -8.32139,10.58448c-0.5621,0.92154 -0.24981,3.85135 -0.34248,4.31449c-0.14016,0.70051 -0.77092,1.23043 -0.94623,1.92298c-1.0604,4.18904 -1.71783,9.19677 -1.91003,13.52478c-0.3714,7.57499 -2.2447,14.76728 -2.68395,22.39739c-0.21826,3.79128 0.70844,7.7124 1.14982,11.46406c0.87687,7.4533 1.49245,14.91273 2.77862,22.30816c0.6392,3.67832 2.31129,6.95119 3.01954,10.50655c0.30275,1.5198 -0.29549,3.12777 0,4.649c0.41168,2.11939 2.1117,4.10794 3.11612,5.98062c1.36202,2.53942 2.23692,5.64237 3.76913,8.04748c0.53914,0.84629 1.44658,1.41891 1.97467,2.27214c1.5538,2.51051 2.36063,5.76896 3.58222,8.46123c0.38868,0.8566 2.2254,4.31786 2.3882,4.81192c0.27039,0.82053 0.04745,1.7641 0.37123,2.56506c0.54878,1.35756 2.12698,2.01352 3.16522,3.04609c1.45533,1.4145 3.10784,2.62132 4.52101,4.07795c0.3264,0.33644 0.32396,0.96181 0.72456,1.20521c0.83761,0.50892 1.95828,0.41035 2.7894,0.9298c0.47381,0.29613 0.45703,1.09691 0.9298,1.3947c2.44427,1.53961 5.91693,2.29259 8.51013,3.81306c0.86112,0.5049 3.10808,2.20749 4.26861,2.66061c2.79764,1.09232 5.92141,1.14375 8.72889,2.16312c5.68162,2.06294 11.55992,3.11731 17.44613,4.57824c4.49142,1.0181 8.6807,1.50024 13.19701,2.11138c3.69502,0.50001 7.20296,1.86802 10.8461,2.51239c1.57407,0.27841 3.20259,-0.04405 4.79442,0.10192c3.95982,0.3631 7.85476,1.48157 11.83306,1.74533c5.90619,0.39157 11.9796,-0.00329 17.90077,-0.00329c12.9491,0 26.22853,0.84814 39.11847,-0.53758c6.80142,-0.73118 13.50791,-2.26128 20.28966,-3.16506c5.49983,-0.91564 11.62008,-1.1449 16.9597,-2.73243c1.65725,-0.49272 3.00978,-1.74102 4.63853,-2.32105c5.03468,-1.79296 10.89241,-1.59586 15.90929,-3.59548c2.82349,-1.12538 6.573,-3.45451 8.97955,-5.22278c2.1302,-1.56522 3.73754,-4.2212 5.60602,-6.0894c2.78174,-3.63327 5.68378,-7.59724 7.13472,-12.01153c0.57803,-1.75858 0.12858,-3.71293 0.45825,-5.53447c0.533,-2.94509 1.64876,-5.90785 2.4317,-8.79819c1.66583,-6.14965 4.17366,-12.50467 4.95212,-18.83973c0.39971,-3.25283 -0.27493,-6.5005 0.36328,-9.75693c0.90403,-4.46073 0.65356,-9.07451 1.22129,-13.61635c0.82498,-6.59983 1.19753,-13.10512 1.19753,-19.75832c0,-1.91992 0.32078,-3.86361 0.01937,-5.75973c-0.28248,-1.77706 -1.49684,-3.30652 -1.8519,-5.07051c-0.1403,-0.69701 0.30091,-1.46698 0.05039,-2.13237c-0.30828,-0.81883 -1.20719,-1.2918 -1.62831,-2.05873c-1.47961,-2.6946 -1.86387,-4.64615 -3.77135,-7.14645c-3.23983,-5.1121 -6.81229,-10.14911 -9.32284,-15.68155c-2.15997,-4.75988 -3.93662,-10.52892 -7.32232,-14.60996c-0.57326,-0.691 -1.46297,-1.05587 -2.09243,-1.69611c-5.25864,-5.34866 -9.76492,-11.47425 -15.01076,-16.87682c-2.22994,-2.69307 -4.54396,-5.26249 -7.2978,-7.23216c-1.01848,-0.72846 -2.16478,-2.45321 -3.12303,-3.05279c-1.31476,-0.82264 -2.91763,-1.13102 -4.19796,-2.00628c-5.71298,-3.90548 -11.77847,-7.43424 -17.58937,-11.0859c-1.28636,-0.80837 -2.92363,-0.8288 -4.37479,-1.27857c-3.67557,-1.1392 -7.30379,-2.28844 -11.03988,-3.22291c-5.59999,-1.10443 -11.35576,-1.67922 -16.85183,-3.28498c-1.57429,-0.45995 -2.98782,-1.38567 -4.56481,-1.83626c-2.42966,-0.69422 -5.21816,-0.16995 -7.67685,-0.54437c-0.98227,-0.14959 -1.88253,-0.67575 -2.86541,-0.82135c-1.64101,-0.24309 -3.31934,0.08408 -4.97672,0.01282c-3.49984,-0.15047 -6.95963,-0.74291 -10.48269,-0.46969c-2.77469,0.21518 -5.24799,0.93042 -8.08614,0.93627c-1.9274,0 -3.86593,-0.22294 -5.78218,-0.0159c-1.60189,0.17307 -3.04022,1.12357 -4.62897,1.39162c-6.56026,1.10683 -13.69651,-0.49235 -20.05361,1.94486c-3.88787,1.49054 -6.28163,3.45831 -9.577,5.72968c-1.39666,0.96266 -3.25417,1.04886 -4.71951,1.90335c-3.10452,1.81033 -6.09127,4.57551 -8.98895,6.72169c-2.49979,1.55326 -3.70441,3.05317 -5.93596,4.94032c-3.58085,3.02821 -7.52288,5.54574 -10.99253,8.74498c-2.2152,2.04256 -4.14271,4.42369 -6.41177,6.4062c-2.79416,2.4413 -5.9677,4.80442 -9.20059,7.02355c0.79485,-0.23057 1.59049,-0.45844 2.38632,-0.68557l2.74511,-0.58224c0,0 1.46746,-0.31075 1.77821,1.15671zM210.98549,139.81073c0.02113,-0.01485 0.03324,-0.02242 0.03324,-0.02242c5.37906,-3.35766 11.32547,-7.31216 16.09749,-11.4955c2.23279,-1.95735 4.13257,-4.30832 6.31615,-6.32172c3.50081,-3.22798 7.47655,-5.77524 11.08899,-8.83016c2.24917,-1.90205 3.64942,-3.5361 6.18359,-5.12861c2.94956,-2.18809 6.00222,-4.99555 9.16806,-6.83472c1.41964,-0.82473 3.2414,-0.86309 4.57849,-1.81585c3.40781,-2.42829 6.10656,-4.5095 10.16573,-6.03061c6.63956,-2.48807 13.8281,-0.94361 20.64066,-2.10145c1.60162,-0.27221 3.05498,-1.21304 4.66903,-1.39778c0.18208,-0.02084 5.90769,-0.0159 6.21782,-0.0159c2.74805,0.00621 5.11662,-0.71003 7.80786,-0.92333c3.6665,-0.29061 7.26097,0.30463 10.90271,0.46011c0.78073,0.03333 4.79045,-0.05286 5.25108,0.01282c10.81165,1.54167 21.3688,4.3904 32.19732,6.53024c3.81554,0.95344 7.52187,2.12238 11.27532,3.28569c1.63966,0.50818 3.45166,0.62692 4.92321,1.51083c0.90252,0.54212 1.54928,1.43625 2.41414,2.03664c3.23543,2.24605 7.07831,3.69763 10.43034,5.77271c2.06372,1.27754 3.9973,3.22528 6.19038,4.26415c0.94099,0.44575 2.0399,0.55567 2.91759,1.11586c1.30266,0.83143 2.09106,2.30736 3.34639,3.20867c2.93985,2.11077 5.32291,4.76816 7.7009,7.60497c5.21342,5.36638 9.68725,11.4621 14.91294,16.77319c0.68892,0.70017 1.64234,1.12551 2.26458,1.88556c3.55187,4.33853 5.47264,10.25638 7.75065,15.29291c2.42755,5.36717 5.91564,10.25029 9.05427,15.20834c1.91135,2.52862 2.47435,4.71507 3.93693,7.41376c0.49993,0.92245 1.47641,1.56829 1.84375,2.55109c0.29376,0.78594 -0.11312,1.69367 0.05039,2.51663c0.3563,1.79325 1.57496,3.3525 1.8673,5.15729c0.02535,0.15648 0.01937,5.94105 0.01937,6.24027c0,6.77764 -0.38027,13.40702 -1.22069,20.13042c-0.57793,4.62341 -0.35684,9.27998 -1.25639,13.8326c-0.64319,3.14105 0.05935,6.31005 -0.31962,9.46419c-0.78158,6.50506 -3.33227,13.01722 -5.04188,19.3285c-0.76035,2.80694 -1.85763,5.68769 -2.3753,8.54807c-0.106,0.58572 -0.3915,5.4103 -0.54735,5.89665c-1.53981,4.80517 -4.71867,9.16023 -7.74208,13.09307c-2.0409,2.04121 -3.75811,4.79098 -6.07503,6.52144c-2.54035,1.89735 -6.66582,4.40362 -9.65347,5.59881c-5.072,2.02902 -10.99891,1.82746 -16.07325,3.65549c-0.01175,0.00423 -4.42697,2.25779 -4.65948,2.32795c-5.49055,1.65668 -11.78361,1.90501 -17.4429,2.84637c-6.82308,0.91019 -13.57028,2.44532 -20.41353,3.18099c-12.99834,1.39737 -26.38115,0.55477 -39.43914,0.55477c-5.98789,0 -12.12616,0.39272 -18.09923,-0.00329c-4.00493,-0.26552 -7.92368,-1.38589 -11.90854,-1.75129c-1.64446,-0.15079 -3.32527,0.16 -4.95259,-0.12067c-3.63683,-0.62726 -7.13536,-2.00657 -10.81763,-2.50839c-4.60204,-0.62717 -8.91291,-1.12816 -13.48887,-2.16584c-6.03302,-1.51998 -12.05713,-2.57472 -17.88627,-4.71976c-2.80091,-1.03069 -5.93305,-1.05789 -8.73771,-2.16674c-1.66562,-0.65852 -3.12874,-1.95725 -4.64249,-2.84633c-2.72668,-1.60148 -6.20105,-2.39466 -8.81277,-4.01634c-0.47468,-0.29474 -0.45599,-1.09857 -0.9298,-1.3947c-0.83112,-0.51945 -1.96412,-0.40113 -2.7894,-0.9298c-0.547,-0.35041 -0.68015,-1.12042 -1.13504,-1.58419c-1.37781,-1.40471 -2.98046,-2.57307 -4.3924,-3.94346c-1.25975,-1.25282 -2.9882,-2.19399 -3.72798,-3.80931c-0.42542,-0.92891 -0.23781,-2.04371 -0.55857,-3.01374c-0.52571,-1.58986 -1.5686,-2.96132 -2.2608,-4.48608c-1.16145,-2.55844 -1.91122,-5.75215 -3.4028,-8.12821c-0.52985,-0.84404 -1.43302,-1.41088 -1.96357,-2.25448c-1.56453,-2.48764 -2.47527,-5.62067 -3.87763,-8.23337c-1.17329,-2.18592 -2.9122,-4.35377 -3.41846,-6.83167c-0.31021,-1.5183 0.30539,-3.12972 0,-4.649c-0.31825,-1.58325 -1.35487,-2.94344 -1.81985,-4.48997c-0.47971,-1.59549 -0.92233,-4.42025 -1.20945,-6.06987c-1.2957,-7.45023 -1.91913,-14.96342 -2.80244,-22.47166c-0.46143,-3.92223 -1.3838,-7.98668 -1.16729,-11.95053c0.41686,-7.63155 2.34506,-14.83861 2.68418,-22.40237c0.22567,-4.57161 0.906,-9.7677 2.01984,-14.19987c0.16371,-0.65145 0.78169,-1.13755 0.91337,-1.79622c0.3279,-1.64021 -0.21407,-3.51532 0.58732,-4.98351c0.50854,-0.93167 1.42146,-1.58564 2.01522,-2.46545c2.48481,-3.68196 3.33237,-6.78832 7.3296,-9.26527c2.94334,-1.82389 6.10327,-2.58971 9.2955,-3.25162z" fill="#000000" stroke="none" stroke-width="0.5"/><path d="M226.72196,137.46711c-0.31075,-1.46746 -1.69558,-1.10039 -1.69558,-1.10039l-2.74463,0.58152c-0.79583,0.22713 -1.67551,0.40081 -2.47036,0.63138c3.23289,-2.21913 6.40915,-4.58613 9.20331,-7.02743c2.26906,-1.98251 4.19911,-4.36666 6.41431,-6.40922c3.46965,-3.19924 7.41611,-5.72107 10.99696,-8.74928c2.23155,-1.88715 3.43885,-3.3892 5.93864,-4.94246c2.89768,-2.14618 5.88855,-4.91412 8.99307,-6.72445c1.46534,-0.85449 3.32479,-0.9418 4.72145,-1.90446c3.29537,-2.27137 5.69356,-4.24126 9.58143,-5.7318c6.3571,-2.43721 13.50176,-0.84072 20.06202,-1.94755c1.58875,-0.26805 3.02923,-1.21898 4.63112,-1.39205c1.91625,-0.20704 3.85736,0.01551 5.78476,0.01551c2.83815,-0.00585 5.31517,-0.72142 8.08986,-0.9366c3.52306,-0.27322 6.98766,0.31921 10.4875,0.46968c1.65738,0.07126 3.33799,-0.25575 4.979,-0.01266c0.98288,0.1456 1.88448,0.6719 2.86675,0.82149c2.45869,0.37442 5.25067,-0.14931 7.68033,0.54491c1.57699,0.45059 2.9927,1.37678 4.56699,1.83673c5.49607,1.60576 11.25926,2.18294 16.85925,3.28737c3.73609,0.93447 7.36893,2.08589 11.0445,3.22509c1.45116,0.44977 3.09015,0.47116 4.37651,1.27953c5.8109,3.65166 11.8838,7.18574 17.59678,11.09122c1.28033,0.87526 2.88464,1.18494 4.1994,2.00758c0.95825,0.59958 2.1059,2.32565 3.12438,3.05411c2.75384,1.96967 5.07083,4.54237 7.30077,7.23544c5.24584,5.40257 9.75746,11.53603 15.0161,16.88469c0.62946,0.64024 1.51966,1.00602 2.09292,1.69702c3.3857,4.08104 5.16506,9.85627 7.32503,14.61615c2.51055,5.53244 6.08494,10.57632 9.32477,15.68842c1.90748,2.5003 2.29226,4.45483 3.77187,7.14943c0.42112,0.76693 1.32015,1.24077 1.62843,2.0596c0.25052,0.66539 -0.1906,1.43617 -0.0503,2.13318c0.35506,1.76399 1.5696,3.29545 1.85208,5.07251c0.30141,1.89612 -0.01927,3.84201 -0.01927,5.76193c0,6.6532 -0.37294,13.16607 -1.19792,19.7659c-0.56773,4.54184 -0.31819,9.16073 -1.22222,13.62146c-0.63821,3.25643 0.03548,6.50755 -0.36423,9.76038c-0.77846,6.33506 -3.28892,12.69675 -4.95475,18.8464c-0.78294,2.89034 -1.9002,5.85599 -2.4332,8.80108c-0.32967,1.82154 0.11887,3.77744 -0.45916,5.53602c-1.45094,4.41429 -4.35577,8.38235 -7.13751,12.01562c-1.86848,1.8682 -3.47765,4.52646 -5.60785,6.09168c-2.40655,1.76827 -6.15847,4.10003 -8.98196,5.22541c-5.01688,1.99962 -10.87852,1.8061 -15.9132,3.59906c-1.62875,0.58003 -2.98283,1.82955 -4.64008,2.32227c-5.33962,1.58753 -11.46509,1.82025 -16.96492,2.73589c-6.78175,0.90378 -13.49577,2.43742 -20.29719,3.1686c-12.88994,1.38572 -26.18626,0.54072 -39.13536,0.54072c-5.92117,0 -12.00272,0.39429 -17.90891,0.00272c-3.9783,-0.26376 -7.87853,-1.38334 -11.83835,-1.74644c-1.59183,-0.14597 -3.22235,0.17591 -4.79642,-0.1025c-3.64314,-0.64437 -7.15568,-2.01406 -10.8507,-2.51407c-4.51631,-0.61114 -8.71056,-1.09572 -13.20198,-2.11382c-5.88621,-1.46093 -11.77045,-2.51921 -17.45207,-4.58215c-2.80748,-1.01937 -5.93377,-1.07286 -8.73141,-2.16518c-1.16053,-0.45312 -3.40893,-2.15702 -4.27005,-2.66192c-2.5932,-1.52047 -6.06822,-2.27584 -8.51249,-3.81545c-0.47277,-0.29779 -0.45642,-1.09904 -0.93023,-1.39517c-0.83112,-0.51945 -1.95243,-0.4216 -2.79004,-0.93052c-0.4006,-0.2434 -0.3985,-0.86917 -0.7249,-1.20561c-1.41317,-1.45663 -3.06711,-2.66521 -4.52244,-4.07971c-1.03824,-1.03257 -2.61741,-1.68983 -3.16619,-3.04739c-0.32378,-0.80096 -0.10134,-1.74524 -0.37173,-2.56577c-0.1628,-0.49406 -2.00064,-3.95699 -2.38932,-4.81359c-1.22159,-2.69227 -2.03018,-5.9537 -3.58398,-8.46421c-0.52809,-0.85323 -1.43605,-1.42684 -1.97519,-2.27313c-1.53221,-2.40511 -2.40856,-5.51111 -3.77058,-8.05053c-1.00442,-1.87268 -2.70539,-3.86359 -3.11707,-5.98298c-0.29549,-1.52123 0.30219,-3.13077 -0.00056,-4.65057c-0.70825,-3.55536 -2.38151,-6.83225 -3.02071,-10.51057c-1.28617,-7.39543 -1.90308,-14.86339 -2.77995,-22.31669c-0.44138,-3.75166 -1.36819,-7.67719 -1.14993,-11.46847c0.43925,-7.63011 2.31347,-14.831 2.68487,-22.40599c0.1922,-4.32801 0.85089,-9.34077 1.91129,-13.52981c0.17531,-0.69255 0.80631,-1.22324 0.94647,-1.92375c0.09267,-0.46314 -0.21911,-3.39445 0.34299,-4.31599c2.30611,-3.78079 4.56751,-8.21708 8.3233,-10.58906c4.59275,-2.90056 10.04799,-2.93195 15.03315,-4.40069c1.52666,-0.45803 3.05907,-0.90078 4.5915,-1.33911l2.6438,-0.55953c0,0 1.46798,-0.31153 1.15723,-1.77899z" data-paper-data="{&quot;noHover&quot;:false,&quot;origItem&quot;:[&quot;Path&quot;,{&quot;applyMatrix&quot;:true,&quot;segments&quot;:[[[226.76328,137.49526],[0,0],[0.31075,1.46746]],[225.60657,139.27347],[[222.96322,139.8323],[0,0],[-1.53243,0.43833]],[[218.37251,141.17011],[1.52666,-0.45803],[-4.98516,1.46874]],[[203.34144,145.56688],[4.59275,-2.90056],[-3.75579,2.37198]],[[195.02005,156.15136],[2.30611,-3.78079],[-0.5621,0.92154]],[[194.67757,160.46585],[0.09267,-0.46314],[-0.14016,0.70051]],[[193.73134,162.38883],[0.17531,-0.69255],[-1.0604,4.18904]],[[191.82131,175.91361],[0.1922,-4.32801],[-0.3714,7.57499]],[[189.13736,198.311],[0.43925,-7.63011],[-0.21826,3.79128]],[[190.28718,209.77506],[-0.44138,-3.75166],[0.87687,7.4533]],[[193.0658,232.08322],[-1.28617,-7.39543],[0.6392,3.67832]],[[196.08534,242.58977],[-0.70825,-3.55536],[0.30275,1.5198]],[[196.08534,247.23877],[-0.29549,-1.52123],[0.41168,2.11939]],[[199.20146,253.21939],[-1.00442,-1.87268],[1.36202,2.53942]],[[202.97059,261.26687],[-1.53221,-2.40511],[0.53914,0.84629]],[[204.94526,263.53901],[-0.52809,-0.85323],[1.5538,2.51051]],[[208.52748,272.00024],[-1.22159,-2.69227],[0.38868,0.8566]],[[210.91568,276.81216],[-0.1628,-0.49406],[0.27039,0.82053]],[[211.28691,279.37722],[-0.32378,-0.80096],[0.54878,1.35756]],[[214.45213,282.42331],[-1.03824,-1.03257],[1.45533,1.4145]],[[218.97314,286.50126],[-1.41317,-1.45663],[0.3264,0.33644]],[[219.6977,287.70647],[-0.4006,-0.2434],[0.83761,0.50892]],[[222.4871,288.63627],[-0.83112,-0.51945],[0.47381,0.29613]],[[223.4169,290.03097],[-0.47277,-0.29779],[2.44427,1.53961]],[[231.92703,293.84403],[-2.5932,-1.52047],[0.86112,0.5049]],[[236.19564,296.50464],[-1.16053,-0.45312],[2.79764,1.09232]],[[244.92453,298.66776],[-2.80748,-1.01937],[5.68162,2.06294]],[[262.37066,303.246],[-5.88621,-1.46093],[4.49142,1.0181]],[[275.56767,305.35738],[-4.51631,-0.61114],[3.69502,0.50001]],[[286.41377,307.86977],[-3.64314,-0.64437],[1.57407,0.27841]],[[291.20819,307.97169],[-1.59183,-0.14597],[3.95982,0.3631]],[[303.04125,309.71702],[-3.9783,-0.26376],[5.90619,0.39157]],[[320.94202,309.71373],[-5.92117,0],[12.9491,0]],[[360.06049,309.17615],[-12.88994,1.38572],[6.80142,-0.73118]],[[380.35015,306.01109],[-6.78175,0.90378],[5.49983,-0.91564]],[[397.30985,303.27866],[-5.33962,1.58753],[1.65725,-0.49272]],[[401.94838,300.95761],[-1.62875,0.58003],[5.03468,-1.79296]],[[417.85767,297.36213],[-5.01688,1.99962],[2.82349,-1.12538]],[[426.83722,292.13935],[-2.40655,1.76827],[2.1302,-1.56522]],[[432.44324,286.04995],[-1.86848,1.8682],[2.78174,-3.63327]],[[439.57796,274.03842],[-1.45094,4.41429],[0.57803,-1.75858]],[[440.03621,268.50395],[-0.32967,1.82154],[0.533,-2.94509]],[[442.46791,259.70576],[-0.78294,2.89034],[1.66583,-6.14965]],[[447.42003,240.86603],[-0.77846,6.33506],[0.39971,-3.25283]],[[447.78331,231.1091],[-0.63821,3.25643],[0.90403,-4.46073]],[[449.0046,217.49275],[-0.56773,4.54184],[0.82498,-6.59983]],[[450.20213,197.73443],[0,6.6532],[0,-1.91992]],[[450.2215,191.9747],[0.30141,1.89612],[-0.28248,-1.77706]],[[448.3696,186.90419],[0.35506,1.76399],[-0.1403,-0.69701]],[[448.41999,184.77182],[0.25052,0.66539],[-0.30828,-0.81883]],[[446.79168,182.71309],[0.42112,0.76693],[-1.47961,-2.6946]],[[443.02033,175.56664],[1.90748,2.5003],[-3.23983,-5.1121]],[[433.69749,159.88509],[2.51055,5.53244],[-2.15997,-4.75988]],[[426.37517,145.27513],[3.3857,4.08104],[-0.57326,-0.691]],[[424.28274,143.57902],[0.62946,0.64024],[-5.25864,-5.34866]],[[409.27198,126.7022],[5.24584,5.40257],[-2.22994,-2.69307]],[[401.97418,119.47004],[2.75384,1.96967],[-1.01848,-0.72846]],[[398.85115,116.41725],[0.95825,0.59958],[-1.31476,-0.82264]],[[394.65319,114.41097],[1.28033,0.87526],[-5.71298,-3.90548]],[[377.06382,103.32507],[5.8109,3.65166],[-1.28636,-0.80837]],[[372.68903,102.0465],[1.45116,0.44977],[-3.67557,-1.1392]],[[361.64915,98.82359],[3.73609,0.93447],[-5.59999,-1.10443]],[[344.79732,95.53861],[5.49607,1.60576],[-1.57429,-0.45995]],[[340.23251,93.70235],[1.57699,0.45059],[-2.42966,-0.69422]],[[332.55566,93.15798],[2.45869,0.37442],[-0.98227,-0.14959]],[[329.69025,92.33663],[0.98288,0.1456],[-1.64101,-0.24309]],[[324.71353,92.34945],[1.65738,0.07126],[-3.49984,-0.15047]],[[314.23084,91.87976],[3.52306,-0.27322],[-2.77469,0.21518]],[[306.1447,92.81603],[2.83815,-0.00585],[-1.9274,0]],[[300.36252,92.80013],[1.91625,-0.20704],[-1.60189,0.17307]],[[295.73355,94.19175],[1.58875,-0.26805],[-6.56026,1.10683]],[[275.67994,96.13661],[6.3571,-2.43721],[-3.88787,1.49054]],[[266.10294,101.86629],[3.29537,-2.27137],[-1.39666,0.96266]],[[261.38343,103.76964],[1.46534,-0.85449],[-3.10452,1.81033]],[[252.39448,110.49133],[2.89768,-2.14618],[-2.49979,1.55326]],[[246.45852,115.43165],[2.23155,-1.88715],[-3.58085,3.02821]],[[235.46599,124.17663],[3.46965,-3.19924],[-2.2152,2.04256]],[[229.05422,130.58283],[2.26906,-1.98251],[-2.79416,2.4413]],[[219.85363,137.60638],[3.23289,-2.21913],[0.79485,-0.23057]],[[222.23995,136.92081],[-0.79583,0.22713],[0,0]],[224.98506,136.33857],[[226.76327,137.49528],[-0.31075,-1.46746],[0,0]]],&quot;closed&quot;:true,&quot;fillColor&quot;:[0,0,0,1],&quot;strokeWidth&quot;:0.5}]}" fill="#fdaa9c" stroke="none" stroke-width="0.25"/><path d="M275.05621,178.2873c-0.23833,0.12382 -0.48469,0.2488 -0.73995,0.37685c0,0 -1.34164,0.67082 -2.01246,-0.67082c-0.67082,-1.34164 0.67082,-2.01246 0.67082,-2.01246c2.00713,-0.99991 3.32007,-1.61589 4.58201,-3.63081c1.15966,-1.8516 0.99581,-2.91343 2.46185,-4.4517c0.82951,-0.87038 1.96161,-1.49018 2.57878,-2.52205c0.56752,-0.94886 0.81338,-2.10428 1.53974,-2.93784c0.49602,-0.56923 1.39875,-0.61847 1.97956,-1.10088c0.86574,-0.71906 1.01898,-2.07858 1.87787,-2.8058c2.84953,-2.41268 6.84792,-3.32828 10.1719,-4.66564c2.66271,-1.07131 4.02926,-1.76005 7.06208,-1.68918c4.35768,2.72733 9.57182,3.79538 13.87316,6.69198c3.40843,2.2953 5.60598,6.74817 9.21131,8.78006c3.81275,2.14879 8.48384,2.23014 12.5165,4.01254c3.60369,1.5928 6.80912,3.77946 10.79898,3.73618c2.01708,0.96714 5.13449,1.87845 6.15509,4.14015c1.11875,2.47919 0.11418,7.88432 0.11418,10.54753c0,9.17067 -2.20021,20.13316 -7.19752,28.0071c-1.38226,2.17793 -3.38964,3.43687 -5.1951,5.24762c-3.9319,3.05222 -7.97832,5.95395 -12.93508,7.04558c-1.03932,0.22889 -2.13403,-0.0778 -3.1925,0.03272c-4.37442,0.45675 -8.6202,1.8819 -13.04807,2.19518c-1.57202,0.11122 -3.19216,-0.25218 -4.72665,0.10693c-2.39681,0.5609 -4.56891,2.09299 -7.09061,2.34365c-3.94494,0.39212 -8.17592,0.04347 -12.15041,-0.02889c-1.49109,-0.71818 -4.55425,-1.96401 -5.76197,-3.12476c-4.64734,-4.46654 -7.04311,-10.5692 -9.02587,-16.46315c-0.66458,-1.97553 -1.64989,-3.87802 -1.95274,-5.94022c-0.48315,-3.28986 0.0012,-6.68199 -0.21814,-9.98133c-0.22617,-3.40227 -1.2184,-6.56001 -1.38674,-9.93283c-0.49334,-2.48324 -1.18737,-6.5059 -0.41176,-8.98598c0.2686,-0.85886 0.80048,-1.61107 1.45171,-2.31974zM285.05764,167.09872c0.84886,1.01385 -0.12374,1.98645 -0.12374,1.98645l-1.29535,1.28502c-1.10264,1.48057 -0.66155,2.80218 -1.77154,4.53007c-0.8726,1.35836 -1.81926,3.23888 -2.9478,4.38287c-0.11346,0.11502 -2.25764,1.39799 -2.44344,2.19325c-0.52112,2.23049 0.07332,5.54194 0.51804,7.75042c0.15283,3.41743 1.17657,6.64821 1.40266,10.10157c0.21071,3.21842 -0.25984,6.54142 0.19388,9.75027c0.2666,1.88545 1.22039,3.60759 1.82705,5.41258c1.82784,5.43835 3.9401,10.99972 8.16773,15.17027c0.9152,0.90285 3.28442,1.82946 4.46583,2.45404c3.66611,-0.0971 7.45271,0.30336 11.0946,-0.02889c2.4163,-0.22044 4.54453,-1.78439 6.8564,-2.30536c1.66464,-0.37512 3.41444,-0.04098 5.11665,-0.16028c4.39377,-0.30795 8.60587,-1.74001 12.94963,-2.18661c0.93099,-0.09572 1.89308,0.23204 2.8075,0.03272c4.48408,-0.9774 8.08534,-3.62591 11.64608,-6.37799c1.50067,-1.49644 3.51197,-2.75446 4.62634,-4.57382c4.6287,-7.55702 6.74948,-17.69151 6.74948,-26.42991c0,-2.3629 0.94524,-7.20551 0.11418,-9.39948c-0.41208,-1.08789 -3.14488,-1.87739 -4.07271,-2.36845c-4.17756,-0.04193 -7.55567,-2.23552 -11.32588,-3.91349c-4.11671,-1.83218 -8.86222,-1.88314 -12.77844,-4.14438c-3.6932,-2.13247 -5.89133,-6.58472 -9.38469,-8.88614c-1.80692,-1.19039 -4.58716,-2.86865 -6.61954,-3.68837c-2.28632,-0.92214 -4.42779,-1.15213 -6.4715,-2.63685c-2.19525,0.09808 -3.05496,0.78861 -5.00511,1.57282c-3.05947,1.2303 -6.71819,1.99849 -9.37411,4.15976c-0.86061,0.70033 -1.00708,2.04147 -1.84133,2.773c-0.5227,0.45834 -1.38671,0.44889 -1.84576,0.97096c-0.59088,0.67199 -0.67952,1.66361 -1.14354,2.42872c-0.02973,0.04902 -0.06027,0.09741 -0.09157,0.14521z" fill="#000000" stroke="none" stroke-width="0.5"/><path d="M285.01978,167.06604c0.0313,-0.0478 0.06198,-0.09635 0.09171,-0.14537c0.46402,-0.76511 0.55478,-1.75902 1.14566,-2.43101c0.45905,-0.52207 1.32481,-0.51431 1.84751,-0.97265c0.83425,-0.73153 0.98367,-2.07518 1.84428,-2.77551c2.65592,-2.16127 6.32523,-2.93584 9.3847,-4.16614c1.95015,-0.78421 2.81595,-1.47699 5.0112,-1.57507c2.04371,1.48472 4.19254,1.71312 6.47886,2.63526c2.03238,0.81972 4.82202,2.49757 6.62894,3.68796c3.49336,2.30142 5.71028,6.75838 9.40348,8.89085c3.91622,2.26124 8.6793,2.326 12.79601,4.15818c3.77021,1.67797 7.15526,3.883 11.33282,3.92493c0.92783,0.49106 3.66227,1.28486 4.07435,2.37275c0.83106,2.19397 -0.11186,7.04774 -0.11186,9.41064c0,8.7384 -2.12976,18.90629 -6.75846,26.46331c-1.11437,1.81936 -3.13097,3.08369 -4.63164,4.58013c-3.56074,2.75208 -7.17607,5.41057 -11.66015,6.38797c-0.91442,0.19932 -1.8797,-0.12706 -2.81069,-0.03134c-4.34376,0.4466 -8.57369,1.88211 -12.96746,2.19006c-1.70221,0.1193 -3.45903,-0.21528 -5.12367,0.15984c-2.31187,0.52097 -4.44802,2.0832 -6.86432,2.30364c-3.64189,0.33225 -7.43943,-0.07302 -11.10554,0.02408c-1.18141,-0.62458 -3.55532,-1.55434 -4.47052,-2.45719c-4.22763,-4.17055 -6.35282,-9.74643 -8.18066,-15.18478c-0.60666,-1.80499 -1.56355,-3.53335 -1.83015,-5.4188c-0.45372,-3.20885 0.01358,-6.54349 -0.19713,-9.76191c-0.22609,-3.45336 -1.25008,-6.6973 -1.40291,-10.11473c-0.44472,-2.20848 -1.03725,-5.52905 -0.51613,-7.75954c0.1858,-0.79526 2.33115,-2.08159 2.44461,-2.19661c1.12854,-1.14399 2.07802,-3.03054 2.95062,-4.3889c1.10999,-1.72789 0.67216,-3.05464 1.7748,-4.53521l1.29673,-1.28684c0,0 0.97388,-0.97415 0.12502,-1.988z" data-paper-data="{&quot;noHover&quot;:false,&quot;origItem&quot;:[&quot;Path&quot;,{&quot;applyMatrix&quot;:true,&quot;segments&quot;:[[[285.05764,167.09872],[0,0],[0.84886,1.01385]],[284.9339,169.08517],[[283.63855,170.37019],[0,0],[-1.10264,1.48057]],[[281.86701,174.90026],[1.10999,-1.72789],[-0.8726,1.35836]],[[278.91921,179.28313],[1.12854,-1.14399],[-0.11346,0.11502]],[[276.47577,181.47638],[0.1858,-0.79526],[-0.52112,2.23049]],[[276.99381,189.2268],[-0.44472,-2.20848],[0.15283,3.41743]],[[278.39647,199.32837],[-0.22609,-3.45336],[0.21071,3.21842]],[[278.59035,209.07864],[-0.45372,-3.20885],[0.2666,1.88545]],[[280.4174,214.49122],[-0.60666,-1.80499],[1.82784,5.43835]],[[288.58513,229.66149],[-4.22763,-4.17055],[0.9152,0.90285]],[[293.05096,232.11553],[-1.18141,-0.62458],[3.66611,-0.0971]],[[304.14556,232.08664],[-3.64189,0.33225],[2.4163,-0.22044]],[[311.00196,229.78128],[-2.31187,0.52097],[1.66464,-0.37512]],[[316.11861,229.621],[-1.70221,0.1193],[4.39377,-0.30795]],[[329.06824,227.43439],[-4.34376,0.4466],[0.93099,-0.09572]],[[331.87574,227.46711],[-0.91442,0.19932],[4.48408,-0.9774]],[[343.52182,221.08912],[-3.56074,2.75208],[1.50067,-1.49644]],[[348.14816,216.5153],[-1.11437,1.81936],[4.6287,-7.55702]],[[354.89764,190.08539],[0,8.7384],[0,-2.3629]],[[355.01182,180.68591],[0.83106,2.19397],[-0.41208,-1.08789]],[[350.93911,178.31746],[0.92783,0.49106],[-4.17756,-0.04193]],[[339.61323,174.40397],[3.77021,1.67797],[-4.11671,-1.83218]],[[326.83479,170.25959],[3.91622,2.26124],[-3.6932,-2.13247]],[[317.4501,161.37345],[3.49336,2.30142],[-1.80692,-1.19039]],[[310.83056,157.68508],[2.03238,0.81972],[-2.28632,-0.92214]],[[304.35906,155.04823],[2.04371,1.48472],[-2.19525,0.09808]],[[299.35395,156.62105],[1.95015,-0.78421],[-3.05947,1.2303]],[[289.97984,160.78081],[2.65592,-2.16127],[-0.86061,0.70033]],[[288.13851,163.55381],[0.83425,-0.73153],[-0.5227,0.45834]],[[286.29275,164.52477],[0.45905,-0.52207],[-0.59088,0.67199]],[[285.14921,166.95349],[0.46402,-0.76511],[-0.02973,0.04902]],[[285.05764,167.0987],[0.0313,-0.0478],[0,0]]],&quot;closed&quot;:true,&quot;fillColor&quot;:[0,0,0,1],&quot;strokeWidth&quot;:0.5}]}" fill="#fdfdfd" stroke="none" stroke-width="0.25"/><path d="M162.93711,312.47427v-265.67406h312.10191v265.67406z" fill="none" stroke="#000000" stroke-width="0"/></g></g></svg>