<svg version="1.1" xmlns="http://www.w3.org/2000/svg" xmlns:xlink="http://www.w3.org/1999/xlink" width="312.10191" height="265.67406" viewBox="0,0,312.10191,265.67406"><g transform="translate(-162.93711,-46.80021)"><g data-paper-data="{&quot;isPaintingLayer&quot;:true}" fill-rule="nonzero" stroke-linecap="butt" stroke-linejoin="miter" stroke-miterlimit="10" stroke-dasharray="" stroke-dashoffset="0" style="mix-blend-mode: normal"><path d="M204.90901,147.89199c1.24808,0.83205 0.41603,2.08013 0.41603,2.08013l-0.89293,1.22337c-0.08953,2.53065 -1.41486,2.59933 -1.56082,5.3246c-0.00501,0.09346 -0.0098,0.18695 -0.0144,0.28048c0.42387,-0.12665 0.8536,-0.24432 1.16739,-0.53958c0.77399,-0.72829 0.33299,-2.17333 0.9377,-3.04729c0.97012,-1.40206 2.50946,-2.46411 3.11252,-4.05886c0.78681,-2.08067 -0.00711,-4.16612 1.17505,-6.14723c2.74828,-4.60567 6.50585,-8.6923 9.24669,-13.33442c1.95811,-3.31641 3.55878,-6.90056 5.29047,-10.33943c4.04824,-9.44942 9.48735,-17.39007 18.39955,-22.79328c1.3789,-0.83599 3.11996,-0.81676 4.67591,-1.24016c2.01801,-0.54914 3.88045,-2.71862 6.03278,-3.26573c2.04843,-0.52069 4.61532,0.1013 6.62881,-0.92592c1.10809,-0.56532 1.99084,-1.51624 3.10347,-2.07256c1.12383,-1.09561 2.73813,-1.54602 4.17618,-2.17479c2.75747,-1.20567 4.63692,-3.66256 7.70147,-4.5512c0.44606,-0.12935 0.99083,0.30919 1.39135,0.07405c0.78794,-0.46258 1.11245,-1.49917 1.88013,-1.99464c0.7067,-0.45611 6.51634,-3.14268 7.32926,-3.38474c1.89261,-0.56356 3.97207,-0.10299 5.90071,-0.52718c3.94467,-0.86761 7.8097,-2.2451 11.85971,-2.66746c1.69482,-0.17675 3.46372,0.3011 5.11016,-0.1381c1.81754,-0.48485 3.64875,-1.10395 5.52971,-1.12652c8.87898,0 17.52096,0.24326 26.32123,1.0878c4.32842,0.41539 9.58956,-1.09586 13.79308,0.05706c0.67243,0.18443 1.1071,0.88585 1.76009,1.13032c1.70651,0.63888 3.64384,0.78691 5.16528,1.7897c0.33344,0.21977 0.40433,0.7692 0.77746,0.91154c1.15404,0.44025 2.45367,0.5611 3.49952,1.21824c2.45287,1.64578 5.96898,3.62112 8.73567,4.62323c0.98416,0.35647 2.15164,0.07262 3.09624,0.52361c3.76723,1.79865 6.67806,6.19756 10.60051,7.68138c1.3257,0.5015 2.9124,-0.03839 4.2223,0.50304c0.91788,0.37939 1.55776,1.24589 2.42154,1.73612c1.17114,0.66468 2.63864,0.5524 3.93173,0.92827c0.24592,0.07148 4.74041,2.30205 4.93848,2.46924c0.66196,0.55876 0.82899,1.5962 1.53669,2.09576c1.58042,1.11559 3.64689,1.31247 5.38976,2.15192c1.38885,1.37377 2.39192,3.12562 3.87686,4.39491c1.24279,1.0623 2.91421,1.63368 3.96681,2.88469c1.98253,2.35623 3.35468,5.26721 5.40249,7.56348c1.2124,1.3595 2.81593,2.37743 3.85407,3.87424c0.80569,1.16165 1.94657,4.19039 2.73594,5.44468c2.44264,3.88131 5.41223,7.43153 7.82931,11.34246c0.68756,1.1125 2.11679,1.73795 2.56968,2.96485c0.24945,0.67576 -0.31715,1.51424 0,2.16099c0.39078,0.79689 1.29947,1.20928 1.94921,1.81391c0.78485,1.57534 2.45084,2.55574 3.4091,4.03202c0.33743,0.51984 -0.09915,1.268 0.094,1.85689c0.43734,1.33344 1.55759,2.35286 2.11118,3.64239c0.98667,2.29835 1.8432,4.9937 2.60575,7.36145c1.40893,4.3748 0.74992,9.49096 0.74992,14.04077c0,7.15044 0.04037,14.30216 -0.0249,21.45229c3.28277,8.58743 -0.04565,18.9781 -2.85401,27.24907c-1.78439,5.25527 -3.50703,10.58286 -5.16094,15.88056c-0.87266,2.79527 -1.82856,5.97772 -3.58839,8.38952c-1.18637,1.62589 -2.71278,2.99344 -3.83246,4.66595c-4.05532,4.39458 -8.45991,8.26326 -13.20911,11.84692c-3.08222,2.32579 -6.94727,4.08407 -9.80605,6.69811c-3.91809,3.58266 -8.25373,8.71747 -13.01891,11.22376c-0.87131,0.45827 -1.98287,0.38205 -2.80556,0.92275c-1.69991,1.11726 -2.83637,2.9326 -4.42816,4.19916c-4.5896,1.55777 -7.64335,4.82872 -11.84069,6.98444c-3.35934,1.72534 -7.43243,2.02344 -10.98065,3.17641c-3.53141,1.14751 -6.82657,2.61611 -10.42827,3.28264c-3.79337,0.702 -7.91317,-0.4978 -11.73142,0.01418c-4.1073,0.55073 -7.87086,1.07474 -12.08212,1.08897c-15.21015,0.01316 -30.02606,-0.01225 -44.98208,-2.35349c-4.03302,-0.63133 -7.99965,-0.14562 -12.01475,-1.03129c-3.28533,-0.75152 -6.70547,-0.57439 -9.84048,-2.17932c-5.37578,-2.75206 -8.86216,-6.46133 -12.15658,-11.27133c-3.03812,-4.43579 -7.70787,-7.70115 -11.01449,-11.81016c-0.45247,-0.56227 -0.40035,-1.44681 -0.89672,-1.97073c-0.29856,-0.31513 -0.8746,-0.12027 -1.26473,-0.31066c-2.33506,-1.13956 -3.17289,-1.96818 -5.16438,-3.54226c-3.96563,-2.48982 -8.1436,-5.16293 -11.8539,-7.96376c-1.18522,-0.89469 -1.85146,-2.41676 -3.13272,-3.16748c-4.31421,-2.52782 -8.41547,-4.74256 -11.29235,-9.13136c-2.31506,-3.53173 -2.59273,-8.33582 -3.93345,-12.21393c-1.00597,-2.90984 -1.92612,-5.65438 -2.69495,-8.65827c-0.81994,-3.20466 -2.14652,-6.68859 -2.75278,-9.88665c-0.68769,-3.62755 -0.3528,-7.7249 -1.0805,-11.34522c-0.1911,-0.95076 -0.87644,-1.75318 -1.0805,-2.70124c-0.74583,-3.46524 -0.02707,-7.89857 -0.02707,-11.44466c0,-6.90456 0,-13.80911 0,-20.71367c0,-4.55517 -0.42955,-9.38188 0.00444,-13.92027c0.29448,-3.07946 1.78587,-3.55772 1.68067,-5.96335l1.26806,-2.01812c0,0 0.83205,-1.24808 2.08013,-0.41603zM202.77068,159.82702c-0.03681,3.45885 0.10504,6.94583 0.10504,10.38274c0,6.90456 0,13.80911 0,20.71367c0,3.30732 -0.76591,7.66605 -0.02707,10.87733c0.21744,0.94508 0.89119,1.75012 1.0805,2.70124c0.7221,3.62792 0.39412,7.72237 1.0805,11.34522c0.5948,3.13945 1.90601,6.55734 2.71323,9.71011c0.75545,2.9516 1.66677,5.61994 2.644,8.48187c1.2341,3.6142 1.42298,8.31762 3.63003,11.557c2.73161,4.0093 6.39766,5.72236 10.31759,8.1566c1.33474,0.82886 2.09228,2.37422 3.35026,3.3155c3.70664,2.77348 7.84228,5.43257 11.79052,7.91771c1.86782,1.4782 2.57942,2.20195 4.6866,3.26671c0.63113,0.31891 1.46741,0.27934 1.97676,0.76984c0.64098,0.61726 0.70254,1.6611 1.26427,2.35126c3.37662,4.14856 8.05365,7.50164 11.15366,11.99669c0.56146,0.81412 0.79378,1.82002 1.32234,2.65587c1.98612,3.1408 6.5779,5.99904 9.7338,7.64682c2.84318,1.4845 6.10641,1.25885 9.12285,1.91948c3.93111,0.8911 7.85316,0.38299 11.82092,0.99463c14.81117,2.28316 29.45156,2.33097 44.51533,2.31795c4.09435,-0.01355 7.70599,-0.5446 11.696,-1.0632c3.74028,-0.48615 7.86914,0.73118 11.55653,0.01418c3.51857,-0.68417 6.64602,-2.08144 10.10117,-3.20034c3.37751,-1.09376 7.31628,-1.33845 10.50277,-2.98058c4.15731,-2.14242 7.1944,-5.43439 11.77367,-6.94889c1.51187,-1.23321 2.58741,-2.98259 4.20929,-4.06707c0.84421,-0.56448 1.98071,-0.51548 2.88654,-0.97461c1.214,-0.61533 2.0407,-1.80579 3.12836,-2.62397c3.40092,-2.55828 6.34897,-5.46133 9.44919,-8.26717c2.93901,-2.65994 6.82858,-4.46647 9.97837,-6.8434c4.5575,-3.43924 8.79745,-7.13735 12.70157,-11.34234c1.09778,-1.63382 2.58097,-2.97776 3.75227,-4.5597c1.57426,-2.12618 2.38957,-5.05746 3.15822,-7.52832c1.65562,-5.32204 3.39226,-10.67454 5.18436,-15.95251c2.67232,-7.87033 5.86028,-17.57971 2.74452,-25.74016c-0.08079,-10.61666 1.11022,-21.91969 -0.03419,-32.47574c-0.54546,-5.0313 -3.78268,-9.1275 -5.32883,-13.69618c-0.14829,-0.43818 0.357,-1.00404 0.094,-1.3846c-0.44968,-0.65067 -1.44727,-0.73056 -1.96752,-1.32631c-0.56434,-0.64623 -0.79047,-1.52299 -1.18571,-2.28449c-0.76448,-0.80958 -1.79572,-1.43268 -2.29344,-2.42873c-0.32198,-0.64436 0.19833,-1.4685 0,-2.16099c-0.31065,-1.08467 -1.70826,-1.51948 -2.31052,-2.47356c-2.45341,-3.8866 -5.41116,-7.49931 -7.85586,-11.3839c-1.04869,-1.66634 -1.51443,-3.66656 -2.63063,-5.28845c-0.98865,-1.43656 -2.55208,-2.38474 -3.70941,-3.68924c-2.04324,-2.30308 -3.46034,-5.17387 -5.40249,-7.56348c-0.92301,-1.13567 -2.4882,-1.56229 -3.59667,-2.5178c-1.42031,-1.2243 -2.36992,-2.91396 -3.68662,-4.24906c-1.76345,-0.81961 -3.81319,-1.06777 -5.41521,-2.17007c-2.07363,-1.4268 -2.65845,-3.3095 -5.4103,-4.07898c-1.56363,-0.43723 -3.2863,-0.45634 -4.71225,-1.23272c-0.70976,-0.38644 -1.16332,-1.1741 -1.90045,-1.50537c-1.35579,-0.6093 -3.02881,-0.05846 -4.42167,-0.57745c-2.03999,-0.76012 -3.64468,-2.65873 -5.23919,-4.00755c-0.99009,-0.83752 -2.36696,-1.08994 -3.43756,-1.82173c-0.77532,-0.52996 -1.21795,-1.51224 -2.06612,-1.91546c-0.86105,-0.40933 -1.93457,-0.08577 -2.83033,-0.41225c-2.99001,-1.08978 -6.72224,-3.18801 -9.37525,-4.94672c-0.84243,-0.61488 -2.01959,-0.54438 -2.98347,-0.94275c-0.57429,-0.23736 -0.8684,-0.90192 -1.38354,-1.24945c-1.32217,-0.89199 -3.06614,-0.89094 -4.5592,-1.45179c-0.56314,-0.21154 -0.90541,-0.85716 -1.4814,-1.03068c-1.29966,-0.39152 -2.71419,0.06436 -4.07154,0.06436c-2.99257,0 -6.16998,0.27146 -9.14781,-0.0073c-8.70366,-0.81478 -17.24283,-1.0732 -26.02561,-1.0732c-1.63403,-0.02469 -3.20696,0.6377 -4.79228,1.03447c-0.27773,0.06951 -5.40394,0.20026 -5.53756,0.21409c-3.93771,0.40746 -7.69386,1.78648 -11.53127,2.6148c-1.86336,0.40221 -3.87449,-0.07645 -5.699,0.47586c-0.878,0.26578 -1.52423,1.02806 -2.33731,1.45282c-0.64626,0.33762 -3.9068,1.3787 -4.20171,1.57025c-0.91163,0.59211 -1.41051,1.72325 -2.36251,2.248c-0.54053,0.29795 -1.25598,-0.09304 -1.85014,0.07405c-2.80743,0.78953 -4.56871,3.19794 -7.13587,4.3564c-1.25521,0.56643 -2.71746,0.89573 -3.67691,1.88357c-1.21036,0.60518 -2.16565,1.65128 -3.37951,2.24943c-2.36465,1.16523 -5.04148,0.65373 -7.41765,1.23507c-2.10258,0.51441 -3.83998,2.62017 -5.85269,3.21726c-0.7194,0.21342 -1.52007,-0.14539 -2.25104,0.02424c-1.92254,0.44615 -3.84498,2.42106 -5.421,3.54638c-6.53019,4.66268 -10.41818,11.54574 -13.55287,18.85732c-4.28268,8.51556 -9.38411,16.00923 -14.63626,23.86802c-0.98639,1.47593 -0.32786,4.01782 -0.98595,5.73824c-0.6777,1.77168 -2.24675,3.05691 -3.37046,4.58511c-0.72016,0.97939 -0.37789,2.56212 -1.22329,3.4357c-0.69363,0.71675 -1.7489,0.95956 -2.62335,1.43934c0,0 -0.41376,0.20688 -0.89661,0.16109z" fill="#000000" stroke="none" stroke-width="0.5"/><path d="M202.7218,159.81618c0.48285,0.04579 0.89664,-0.16123 0.89664,-0.16123c0.87445,-0.47978 1.9299,-0.72337 2.62353,-1.44012c0.8454,-0.87358 0.5035,-2.45774 1.22366,-3.43713c1.12371,-1.5282 2.69339,-2.81554 3.37109,-4.58722c0.65809,-1.72042 0.00034,-4.26455 0.98673,-5.74048c5.25215,-7.85879 10.35887,-15.36275 14.64155,-23.87831c3.13469,-7.31158 7.02879,-14.20208 13.55898,-18.86476c1.57602,-1.12532 3.50037,-3.10205 5.42291,-3.5482c0.73097,-0.16963 1.53217,0.18871 2.25157,-0.02471c2.01271,-0.59709 3.75225,-2.70463 5.85483,-3.21904c2.37617,-0.58134 5.05534,-0.07156 7.41999,-1.23679c1.21386,-0.59815 2.17063,-1.64524 3.38099,-2.25042c0.95945,-0.98784 2.42324,-1.31809 3.67845,-1.88452c2.56716,-1.15846 4.33167,-3.56862 7.1391,-4.35815c0.59416,-0.16709 1.31028,0.22357 1.85081,-0.07438c0.952,-0.52475 1.45211,-1.65646 2.36374,-2.24857c0.29491,-0.19155 3.55726,-1.23339 4.20352,-1.57101c0.81308,-0.42476 1.46041,-1.18747 2.33841,-1.45325c1.82451,-0.55231 3.83794,-0.07444 5.7013,-0.47665c3.83741,-0.82832 7.59862,-2.20866 11.53633,-2.61612c0.13362,-0.01383 5.26223,-0.14501 5.53996,-0.21452c1.58532,-0.39677 3.16041,-1.05945 4.79444,-1.03476c8.78278,0 17.33358,0.2585 26.03724,1.07328c2.97783,0.27876 6.15921,0.00795 9.15178,0.00795c1.35735,0 2.77358,-0.4555 4.07324,-0.06398c0.57599,0.17352 0.91898,0.81932 1.48212,1.03086c1.49306,0.56085 3.23906,0.56037 4.56123,1.45236c0.51514,0.34753 0.80997,1.01231 1.38426,1.24967c0.96388,0.39837 2.14236,0.32831 2.98479,0.94319c2.65301,1.75871 6.38961,3.85871 9.37962,4.94849c0.89576,0.32648 1.97038,0.00345 2.83143,0.41278c0.84817,0.40322 1.29188,1.38605 2.0672,1.91601c1.0706,0.73179 2.449,0.98505 3.43909,1.82257c1.59451,1.34882 3.20172,3.24896 5.24171,4.00908c1.39286,0.51899 3.06736,-0.03085 4.42315,0.57845c0.73713,0.33127 1.19156,1.11956 1.90132,1.506c1.42595,0.77638 3.15019,0.79669 4.71382,1.23392c2.75185,0.76948 3.33892,2.65408 5.41255,4.08088c1.60202,1.1023 3.65347,1.35206 5.41692,2.17167c1.3167,1.3351 2.26798,3.02649 3.68829,4.25079c1.10847,0.95551 2.67487,1.38349 3.59788,2.51916c1.94215,2.38961 3.3617,5.2635 5.40494,7.56658c1.15733,1.3045 2.72201,2.25448 3.71066,3.69104c1.1162,1.62189 1.58326,3.62422 2.63195,5.29056c2.4447,3.88459 5.40511,7.50244 7.85852,11.38904c0.60226,0.95408 2.00039,1.39011 2.31104,2.47478c0.19833,0.69249 -0.32167,1.5174 0.00031,2.16176c0.49772,0.99605 1.52942,1.62035 2.2939,2.42993c0.39524,0.7615 0.62172,1.63925 1.18606,2.28548c0.52025,0.59575 1.51808,0.67637 1.96776,1.32704c0.263,0.38056 -0.24213,0.94692 -0.09384,1.3851c1.54615,4.56868 4.7848,8.67062 5.33026,13.70192c1.14441,10.55605 -0.0459,21.87222 0.03489,32.48888c3.11576,8.16045 -0.07411,17.88011 -2.74643,25.75044c-1.7921,5.27797 -3.53108,10.63677 -5.1867,15.95881c-0.76865,2.47086 -1.58539,5.40506 -3.15965,7.53124c-1.1713,1.58194 -2.65563,2.92791 -3.75341,4.56173c-3.90412,4.20499 -8.14789,7.90867 -12.70539,11.34791c-3.14979,2.37693 -7.0426,4.18717 -9.98161,6.84711c-3.10022,2.80584 -6.05219,5.71254 -9.45311,8.27082c-1.08766,0.81818 -1.91572,2.00973 -3.12972,2.62506c-0.90583,0.45913 -2.04332,0.41088 -2.88753,0.97536c-1.62188,1.08448 -2.69945,2.83528 -4.21132,4.06849c-4.57927,1.5145 -7.6214,4.80941 -11.77871,6.95183c-3.18649,1.64213 -7.12949,1.88873 -10.507,2.98249c-3.45515,1.1189 -6.58694,2.51766 -10.10551,3.20183c-3.68739,0.717 -7.82104,-0.49918 -11.56132,-0.01303c-3.99001,0.5186 -7.60683,1.05035 -11.70118,1.0639c-15.06377,0.01302 -29.72363,-0.03704 -44.5348,-2.3202c-3.96776,-0.61164 -7.89439,-0.10526 -11.8255,-0.99636c-3.01644,-0.66063 -6.28309,-0.43662 -9.12627,-1.92112c-3.1559,-1.64778 -7.75209,-4.50865 -9.73821,-7.64945c-0.52856,-0.83585 -0.76179,-1.84237 -1.32325,-2.65649c-3.10001,-4.49505 -7.78246,-7.85252 -11.15908,-12.00108c-0.56173,-0.69016 -0.62409,-1.73476 -1.26507,-2.35202c-0.50935,-0.4905 -1.34623,-0.45153 -1.97736,-0.77044c-2.10718,-1.06476 -2.82044,-1.79027 -4.68826,-3.26847c-3.94824,-2.48514 -8.08746,-5.1487 -11.7941,-7.92218c-1.25798,-0.94128 -2.0166,-2.48822 -3.35134,-3.31708c-3.91993,-2.43424 -7.58849,-4.15157 -10.3201,-8.16087c-2.20705,-3.23938 -2.39794,-7.94715 -3.63204,-11.56135c-0.97723,-2.86193 -1.88977,-5.53362 -2.64522,-8.48522c-0.80722,-3.15277 -2.11953,-6.57457 -2.71433,-9.71402c-0.68638,-3.62285 -0.35925,-7.72181 -1.08135,-11.34973c-0.18931,-0.95112 -0.86321,-1.75729 -1.08065,-2.70237c-0.73884,-3.21128 0.02675,-7.57439 0.02675,-10.88171c0,-6.90456 0.00045,-13.81747 0.00045,-20.72203c0,-3.43691 -0.14113,-6.9279 -0.10432,-10.38675z" data-paper-data="{&quot;noHover&quot;:false,&quot;origItem&quot;:[&quot;Path&quot;,{&quot;applyMatrix&quot;:true,&quot;segments&quot;:[[[202.77068,159.82702],[0,0],[-0.03681,3.45885]],[[202.87572,170.20976],[0,-3.43691],[0,6.90456]],[[202.87572,190.92343],[0,-6.90456],[0,3.30732]],[[202.84865,201.80076],[-0.73884,-3.21128],[0.21744,0.94508]],[[203.92915,204.502],[-0.18931,-0.95112],[0.7221,3.62792]],[[205.00965,215.84722],[-0.68638,-3.62285],[0.5948,3.13945]],[[207.72288,225.55733],[-0.80722,-3.15277],[0.75545,2.9516]],[[210.36688,234.0392],[-0.97723,-2.86193],[1.2341,3.6142]],[[213.99691,245.5962],[-2.20705,-3.23938],[2.73161,4.0093]],[[224.3145,253.7528],[-3.91993,-2.43424],[1.33474,0.82886]],[[227.66476,257.0683],[-1.25798,-0.94128],[3.70664,2.77348]],[[239.45528,264.98601],[-3.94824,-2.48514],[1.86782,1.4782]],[[244.14188,268.25272],[-2.10718,-1.06476],[0.63113,0.31891]],[[246.11864,269.02256],[-0.50935,-0.4905],[0.64098,0.61726]],[[247.38291,271.37382],[-0.56173,-0.69016],[3.37662,4.14856]],[[258.53657,283.37051],[-3.10001,-4.49505],[0.56146,0.81412]],[[259.85891,286.02638],[-0.52856,-0.83585],[1.98612,3.1408]],[[269.59271,293.6732],[-3.1559,-1.64778],[2.84318,1.4845]],[[278.71556,295.59268],[-3.01644,-0.66063],[3.93111,0.8911]],[[290.53648,296.58731],[-3.96776,-0.61164],[14.81117,2.28316]],[[335.05181,298.90526],[-15.06377,0.01302],[4.09435,-0.01355]],[[346.74781,297.84206],[-3.99001,0.5186],[3.74028,-0.48615]],[[358.30434,297.85624],[-3.68739,0.717],[3.51857,-0.68417]],[[368.40551,294.6559],[-3.45515,1.1189],[3.37751,-1.09376]],[[378.90828,291.67532],[-3.18649,1.64213],[4.15731,-2.14242]],[[390.68195,284.72643],[-4.57927,1.5145],[1.51187,-1.23321]],[[394.89124,280.65936],[-1.62188,1.08448],[0.84421,-0.56448]],[[397.77778,279.68475],[-0.90583,0.45913],[1.214,-0.61533]],[[400.90614,277.06078],[-1.08766,0.81818],[3.40092,-2.55828]],[[410.35533,268.79361],[-3.10022,2.80584],[2.93901,-2.65994]],[[420.3337,261.95021],[-3.14979,2.37693],[4.5575,-3.43924]],[[433.03527,250.60787],[-3.90412,4.20499],[1.09778,-1.63382]],[[436.78754,246.04817],[-1.1713,1.58194],[1.57426,-2.12618]],[[439.94576,238.51985],[-0.76865,2.47086],[1.65562,-5.32204]],[[445.13012,222.56734],[-1.7921,5.27797],[2.67232,-7.87033]],[[447.87464,196.82718],[3.11576,8.16045],[-0.08079,-10.61666]],[[447.84045,164.35144],[1.14441,10.55605],[-0.54546,-5.0313]],[[442.51162,150.65526],[1.54615,4.56868],[-0.14829,-0.43818]],[[442.60562,149.27066],[0.263,0.38056],[-0.44968,-0.65067]],[[440.6381,147.94435],[0.52025,0.59575],[-0.56434,-0.64623]],[[439.45239,145.65986],[0.39524,0.7615],[-0.76448,-0.80958]],[[437.15895,143.23113],[0.49772,0.99605],[-0.32198,-0.64436]],[[437.15895,141.07014],[0.19833,0.69249],[-0.31065,-1.08467]],[[434.84843,138.59658],[0.60226,0.95408],[-2.45341,-3.8866]],[[426.99257,127.21268],[2.4447,3.88459],[-1.04869,-1.66634]],[[424.36194,121.92423],[1.1162,1.62189],[-0.98865,-1.43656]],[[420.65253,118.23499],[1.15733,1.3045],[-2.04324,-2.30308]],[[415.25004,110.67151],[1.94215,2.38961],[-0.92301,-1.13567]],[[411.65337,108.15371],[1.10847,0.95551],[-1.42031,-1.2243]],[[407.96675,103.90465],[1.3167,1.3351],[-1.76345,-0.81961]],[[402.55154,101.73458],[1.60202,1.1023],[-2.07363,-1.4268]],[[397.14124,97.6556],[2.75185,0.76948],[-1.56363,-0.43723]],[[392.42899,96.42288],[1.42595,0.77638],[-0.70976,-0.38644]],[[390.52854,94.91751],[0.73713,0.33127],[-1.35579,-0.6093]],[[386.10687,94.34006],[1.39286,0.51899],[-2.03999,-0.76012]],[[380.86768,90.33251],[1.59451,1.34882],[-0.99009,-0.83752]],[[377.43012,88.51078],[1.0706,0.73179],[-0.77532,-0.52996]],[[375.364,86.59532],[0.84817,0.40322],[-0.86105,-0.40933]],[[372.53367,86.18307],[0.89576,0.32648],[-2.99001,-1.08978]],[[363.15842,81.23635],[2.65301,1.75871],[-0.84243,-0.61488]],[[360.17495,80.2936],[0.96388,0.39837],[-0.57429,-0.23736]],[[358.79141,79.04415],[0.51514,0.34753],[-1.32217,-0.89199]],[[354.23221,77.59236],[1.49306,0.56085],[-0.56314,-0.21154]],[[352.75081,76.56168],[0.57599,0.17352],[-1.29966,-0.39152]],[[348.67927,76.62604],[1.35735,0],[-2.99257,0]],[[339.53146,76.61874],[2.97783,0.27876],[-8.70366,-0.81478]],[[313.50585,75.54554],[8.78278,0],[-1.63403,-0.02469]],[[308.71357,76.58001],[1.58532,-0.39677],[-0.27773,0.06951]],[[303.17601,76.7941],[0.13362,-0.01383],[-3.93771,0.40746]],[[291.64474,79.4089],[3.83741,-0.82832],[-1.86336,0.40221]],[[285.94574,79.88476],[1.82451,-0.55231],[-0.878,0.26578]],[[283.60843,81.33758],[0.81308,-0.42476],[-0.64626,0.33762]],[[279.40672,82.90783],[0.29491,-0.19155],[-0.91163,0.59211]],[[277.04421,85.15583],[0.952,-0.52475],[-0.54053,0.29795]],[[275.19407,85.22988],[0.59416,-0.16709],[-2.80743,0.78953]],[[268.0582,89.58628],[2.56716,-1.15846],[-1.25521,0.56643]],[[264.38129,91.46985],[0.95945,-0.98784],[-1.21036,0.60518]],[[261.00178,93.71928],[1.21386,-0.59815],[-2.36465,1.16523]],[[253.58413,94.95435],[2.37617,-0.58134],[-2.10258,0.51441]],[[247.73144,98.17161],[2.01271,-0.59709],[-0.7194,0.21342]],[[245.4804,98.19585],[0.73097,-0.16963],[-1.92254,0.44615]],[[240.0594,101.74223],[1.57602,-1.12532],[-6.53019,4.66268]],[[226.50653,120.59955],[3.13469,-7.31158],[-4.28268,8.51556]],[[211.87027,144.46757],[5.25215,-7.85879],[-0.98639,1.47593]],[[210.88432,150.20581],[0.65809,-1.72042],[-0.6777,1.77168]],[[207.51386,154.79092],[1.12371,-1.5282],[-0.72016,0.97939]],[[206.29057,158.22662],[0.8454,-0.87358],[-0.69363,0.71675]],[[203.66722,159.66596],[0.87445,-0.47978],[0,0]],[[202.77061,159.82705],[0.48285,0.04579],[0,0]]],&quot;closed&quot;:true,&quot;fillColor&quot;:[0,0,0,1]}]}" fill="#fdaa9c" stroke="none" stroke-width="0.5"/><path d="M293.31705,158.7892c4.08281,-3.1538 11.48985,-4.61338 15.87707,-2.67512c2.37655,1.04996 3.54382,3.29307 6.32966,3.05327c2.537,-0.21838 5.36408,-1.92394 7.66019,-3.04133c0.91048,-0.44308 1.79791,-1.30238 2.80215,-1.17282c1.0922,0.1409 1.80908,1.25627 2.71362,1.8844c3.53361,5.3298 4.47621,12.08057 6.63196,18.07861c1.03557,2.88133 2.97708,5.6098 1.73881,8.78534c-1.32879,3.40767 -4.67161,6.03719 -6.88863,8.8044c-1.5108,1.88574 -2.00934,3.64025 -4.29216,4.9407c-2.41851,1.37776 -4.76999,2.46237 -7.12808,4.03315c-6.48658,7.69047 -16.16534,2.28565 -23.39782,-1.468c-2.58132,-1.3397 -6.35616,-2.74483 -8.27483,-5.00826c-2.57241,-3.03463 -2.00476,-7.48481 -1.77134,-11.05815c0.07266,-1.11236 -0.21665,-2.26955 0.08332,-3.34316c0.40204,-1.43892 1.58513,-2.55193 2.13392,-3.94152c0.29812,-0.82312 0.41438,-1.73722 0.89436,-2.46935c0.62858,-0.9588 2.02425,-1.49967 2.21659,-2.6299c0.61694,-3.62534 -0.80421,-7.04136 0.64671,-10.27413c0.05014,-0.468 0.3159,-0.82235 0.3159,-0.82235c0.12913,-0.16735 0.26737,-0.33176 0.41411,-0.49304l0.14699,-0.3319c0,0 0.3825,-0.76501 1.14752,-0.85084zM294.48043,161.68559l-0.12063,0.22801c-2.11813,2.49722 -0.08437,7.26509 -0.79424,10.33711c-0.64793,2.80396 -2.48072,2.93635 -3.21373,5.44187c-0.53995,1.33611 -1.69437,2.4008 -2.08253,3.78863c-0.23708,0.84763 0.08833,1.76113 0.04317,2.64013c-0.13813,2.6889 -0.96186,6.62437 1.07977,8.95997c1.66514,1.9049 5.13583,3.11714 7.35336,4.26767c6.07729,3.1531 14.54212,8.54554 20.00419,1.90541c2.53539,-1.73239 4.9664,-2.96951 7.62948,-4.39974c1.83555,-0.9858 2.22577,-2.6776 3.43799,-4.19492c2.08077,-2.60446 5.03612,-4.95618 6.46345,-8.06138c0.92062,-2.00285 -1.11397,-4.83114 -1.7749,-6.67495c-1.97295,-5.50396 -2.75466,-12.20462 -6.01737,-17.05842c-1.44727,-1.67605 -2.71382,0.6832 -4.72428,1.45649c-2.39897,0.92273 -5.41868,2.37115 -8.15718,1.81373c-2.37818,-0.48408 -3.49086,-2.27008 -5.56092,-3.24945c-0.78048,-0.36926 -2.60819,-0.2365 -3.29105,-0.23719c-3.40801,-0.00346 -7.84503,0.38837 -10.27459,3.03706z" fill="#000000" stroke="none" stroke-width="0.5"/><path d="M294.44697,161.64845c2.42956,-2.64869 6.88564,-3.05124 10.29365,-3.04778c0.68286,0.00069 2.51752,-0.13363 3.298,0.23563c2.07006,0.97937 3.19653,2.76522 5.57471,3.2493c2.7385,0.55742 5.77506,-0.8857 8.17403,-1.80843c2.01046,-0.77329 3.28271,-3.12905 4.72998,-1.453c3.26271,4.8538 4.06447,11.58507 6.03742,17.08903c0.66093,1.84381 2.69633,4.68717 1.77571,6.69002c-1.42733,3.1052 -4.39001,5.4785 -6.47078,8.08296c-1.21222,1.51732 -1.61135,3.21977 -3.4469,4.20557c-2.66308,1.43023 -5.1137,2.67827 -7.64909,4.41066c-5.46207,6.64013 -13.97329,1.23768 -20.05058,-1.91542c-2.21753,-1.15053 -5.69895,-2.37563 -7.36409,-4.28053c-2.04163,-2.3356 -1.22402,-6.28811 -1.08589,-8.97701c0.04516,-0.879 -0.28085,-1.79815 -0.04377,-2.64578c0.38816,-1.38783 1.54292,-2.46128 2.08287,-3.79739c0.73301,-2.50552 2.56993,-2.65241 3.21786,-5.45637c0.70987,-3.07202 -1.31222,-7.85594 0.80591,-10.35316l0.12099,-0.22834z" data-paper-data="{&quot;noHover&quot;:false,&quot;origItem&quot;:[&quot;Path&quot;,{&quot;applyMatrix&quot;:true,&quot;segments&quot;:[[294.48043,161.68559],[[294.3598,161.9136],[0,0],[-2.11813,2.49722]],[[293.56556,172.25071],[0.70987,-3.07202],[-0.64793,2.80396]],[[290.35183,177.69258],[0.73301,-2.50552],[-0.53995,1.33611]],[[288.2693,181.48121],[0.38816,-1.38783],[-0.23708,0.84763]],[[288.31247,184.12134],[0.04516,-0.879],[-0.13813,2.6889]],[[289.39224,193.08131],[-2.04163,-2.3356],[1.66514,1.9049]],[[296.7456,197.34898],[-2.21753,-1.15053],[6.07729,3.1531]],[[316.74979,199.25439],[-5.46207,6.64013],[2.53539,-1.73239]],[[324.37927,194.85465],[-2.66308,1.43023],[1.83555,-0.9858]],[[327.81726,190.65973],[-1.21222,1.51732],[2.08077,-2.60446]],[[334.28071,182.59835],[-1.42733,3.1052],[0.92062,-2.00285]],[[332.50581,175.9234],[0.66093,1.84381],[-1.97295,-5.50396]],[[326.48844,158.86498],[3.26271,4.8538],[-1.44727,-1.67605]],[[321.76416,160.32147],[2.01046,-0.77329],[-2.39897,0.92273]],[[313.60698,162.1352],[2.7385,0.55742],[-2.37818,-0.48408]],[[308.04606,158.88575],[2.07006,0.97937],[-0.78048,-0.36926]],[[304.75501,158.64856],[0.68286,0.00069],[-3.40801,-0.00346]],[[294.48042,161.68562],[2.42956,-2.64869],[0,0]]],&quot;closed&quot;:true,&quot;fillColor&quot;:[0,0,0,1],&quot;strokeWidth&quot;:0.5}]}" fill="#fdfdfd" stroke="none" stroke-width="0.25"/><path d="M331.70691,193.39799c-0.03955,-0.42256 0.08076,-0.95059 0.73736,-1.34455c1.28624,-0.77175 2.05798,0.51449 2.05798,0.51449c0.69056,1.15357 1.77819,2.09994 2.21278,3.37223c0.33913,0.99284 0.25308,2.08416 0.43856,3.1168c0.70956,3.95047 2.91003,8.77682 0.51315,12.61937c-1.6745,2.68447 -4.51286,4.10689 -6.88261,6.07845c-0.95866,0.79758 -1.45216,2.30585 -2.65469,2.63613c-5.8469,1.60589 -5.0714,-6.33756 -4.47037,-9.40178c0.2274,-1.34389 -0.02642,-2.77567 0.40377,-4.069c0.70322,-2.11417 2.22098,-3.91161 2.77411,-6.19495c0.21434,-0.88477 -0.25669,-1.99415 0.29986,-2.71457c0.69437,-0.89884 2.54226,-0.20624 3.21852,-1.11879c0.60112,-0.81115 0.71222,-1.89279 1.15832,-2.79863l-0.14902,0.30059c0,0 0,-0.56011 0.34227,-0.9958zM333.52004,197.17738c-0.23537,0.63797 -0.50494,1.25222 -0.95705,1.74578c-0.519,0.56659 -1.29038,0.87267 -2.0225,1.10589c-0.34616,0.11026 -0.90476,-0.43266 -1.08364,-0.11646c-0.25137,0.44432 0.3727,0.99658 0.29986,1.50186c-0.34348,2.38285 -2.14344,4.34812 -2.84781,6.45438c-0.38834,1.16124 -0.10028,2.45294 -0.29897,3.66116c-0.11136,0.54475 -0.2882,1.08012 -0.33409,1.63423c-0.0636,0.76797 0.02224,1.54133 0.0073,2.31178c-0.08486,4.37735 3.27919,-0.75412 4.94415,-1.99694c1.67772,-1.25234 3.95959,-2.25629 4.38087,-4.61138c0.65246,-3.6474 -0.46871,-8.06189 -2.08812,-11.6903z" fill="#000000" stroke="none" stroke-width="0.5"/><path d="M335.65513,208.88482c-0.42128,2.35509 -2.74851,3.39187 -4.42623,4.64421c-1.66496,1.24282 -5.05547,6.36771 -4.97061,1.99036c0.01494,-0.77045 -0.07718,-1.54807 -0.01358,-2.31604c0.04589,-0.55411 0.21818,-1.09358 0.32954,-1.63833c0.19869,-1.20822 -0.10304,-2.52687 0.2853,-3.68811c0.70437,-2.10626 2.54296,-4.12845 2.88644,-6.5113c0.07284,-0.50528 -0.55104,-1.05758 -0.29967,-1.5019c0.17888,-0.3162 0.74463,0.22571 1.09079,0.11545c0.73212,-0.23322 1.51601,-0.53857 2.03501,-1.10516c0.45211,-0.49356 0.72462,-1.10717 0.95999,-1.74514c1.61941,3.62841 2.77546,8.10856 2.123,11.75596z" data-paper-data="{&quot;noHover&quot;:false,&quot;origItem&quot;:[&quot;Path&quot;,{&quot;applyMatrix&quot;:true,&quot;segments&quot;:[[[333.52004,197.17738],[1.61941,3.62841],[-0.23537,0.63797]],[[332.56299,198.92316],[0.45211,-0.49356],[-0.519,0.56659]],[[330.54049,200.02905],[0.73212,-0.23322],[-0.34616,0.11026]],[[329.45685,199.91259],[0.17888,-0.3162],[-0.25137,0.44432]],[[329.75671,201.41445],[0.07284,-0.50528],[-0.34348,2.38285]],[[326.9089,207.86883],[0.70437,-2.10626],[-0.38834,1.16124]],[[326.60993,211.52999],[0.19869,-1.20822],[-0.11136,0.54475]],[[326.27584,213.16422],[0.04589,-0.55411],[-0.0636,0.76797]],[[326.28314,215.476],[0.01494,-0.77045],[-0.08486,4.37735]],[[331.22729,213.47906],[-1.66496,1.24282],[1.67772,-1.25234]],[[335.60816,208.86768],[-0.42128,2.35509],[0.65246,-3.6474]]],&quot;closed&quot;:true,&quot;fillColor&quot;:[0,0,0,1],&quot;strokeWidth&quot;:0.5}]}" fill="#fdfdfd" stroke="none" stroke-width="0.25"/><path d="M304.86979,208.7235c1.50164,-0.54008 3.0864,-0.7332 4.57601,-0.29244c4.33006,1.28122 9.2423,9.68677 7.19196,14.04044c-0.62686,1.33106 -3.59431,2.44911 -4.70423,2.85074c-3.86145,1.39726 -7.79433,3.01454 -11.84222,2.47803c-0.93138,-0.50102 -2.08561,-0.71792 -2.79415,-1.50307c-1.9105,-2.11711 -1.49966,-6.81128 -1.42093,-9.41569c0.02803,-0.92742 -0.2048,-1.92522 0.15836,-2.77904c0.2722,-0.63998 1.1678,-0.796 1.59549,-1.34441c0.53664,-0.68811 0.56239,-1.76127 1.24779,-2.30137c1.16436,-0.91752 2.82929,-0.92395 4.15221,-1.59286zM300.13021,214.32436c-0.05121,0.12826 -0.11396,0.24893 -0.19686,0.35591c-0.29311,0.37824 -1.00831,0.33246 -1.21546,0.76381c-0.20868,0.43453 0.13878,0.95576 0.15835,1.4374c0.11269,2.77325 -0.86167,6.79105 2.10958,8.05523c2.27627,0.36469 3.20144,-0.31133 5.40308,-1.04537c1.3213,-0.44053 7.04203,-1.36746 7.56559,-2.7615c1.06496,-2.83558 -2.77745,-9.02598 -5.45737,-9.85274c-0.76687,-0.23658 -1.63967,-0.13103 -2.50683,0.16521c-0.20177,0.12829 -0.4169,0.19403 -0.5844,0.22772c-1.3902,0.6062 -2.69968,1.62255 -3.45529,2.40704c0,0 -0.86899,0.86898 -1.8204,0.24729z" fill="#000000" stroke="none" stroke-width="0.5"/><path d="M300.08736,214.29858c0.95141,0.62169 1.82615,-0.25504 1.82615,-0.25504c0.75561,-0.78449 2.09458,-1.81673 3.48478,-2.42293c0.1675,-0.03369 0.3872,-0.09992 0.58897,-0.22821c0.86716,-0.29624 1.75773,-0.39966 2.5246,-0.16308c2.67992,0.82676 6.55398,7.08357 5.48902,9.91915c-0.52356,1.39404 -6.29073,2.35233 -7.61203,2.79286c-2.20164,0.73404 -3.15777,1.39929 -5.43404,1.0346c-2.97125,-1.26418 -2.01525,-5.32916 -2.12794,-8.10241c-0.01957,-0.48164 -0.36493,-1.01123 -0.15625,-1.44576c0.20715,-0.43135 0.9254,-0.39261 1.21851,-0.77085c0.0829,-0.10698 0.14702,-0.23007 0.19823,-0.35833z" data-paper-data="{&quot;noHover&quot;:false,&quot;origItem&quot;:[&quot;Path&quot;,{&quot;applyMatrix&quot;:true,&quot;segments&quot;:[[[300.13021,214.32436],[0,0],[-0.05121,0.12826]],[[299.93335,214.68027],[0.0829,-0.10698],[-0.29311,0.37824]],[[298.71789,215.44408],[0.20715,-0.43135],[-0.20868,0.43453]],[[298.87624,216.88148],[-0.01957,-0.48164],[0.11269,2.77325]],[[300.98582,224.93671],[-2.97125,-1.26418],[2.27627,0.36469]],[[306.3889,223.89134],[-2.20164,0.73404],[1.3213,-0.44053]],[[313.95449,221.12984],[-0.52356,1.39404],[1.06496,-2.83558]],[[308.49712,211.2771],[2.67992,0.82676],[-0.76687,-0.23658]],[[305.99029,211.44231],[0.86716,-0.29624],[-0.20177,0.12829]],[[305.40589,211.67003],[0.1675,-0.03369],[-1.3902,0.6062]],[[301.9506,214.07707],[0.75561,-0.78449],[0,0]],[[300.1302,214.32436],[0.95141,0.62169],[0,0]]],&quot;closed&quot;:true,&quot;fillColor&quot;:[0,0,0,1],&quot;strokeWidth&quot;:0.5}]}" fill="#fdfdfd" stroke="none" stroke-width="0.25"/><path d="M274.32689,206.33969c-0.10964,-0.05069 -0.2226,-0.11798 -0.33835,-0.20479c-1.2,-0.9 -0.3,-2.1 -0.3,-2.1c3.31878,-4.25338 9.07652,-2.32154 13.36925,-0.48582c0.84296,0.36048 1.9019,0.36227 2.56324,0.99721c1.21832,1.16968 1.30209,3.18096 1.17079,4.69826c-0.46019,5.31814 -5.30215,9.42792 -10.87301,8.41484c-2.37762,-0.43238 -2.89029,-1.08545 -4.88165,-2.41876c-0.47527,-2.841 -1.29651,-6.07582 -0.71028,-8.90094zM278.08914,204.4668l-0.24375,1.01672c-1.56888,1.84966 -0.42195,5.72812 -0.29451,8.11964c1.42946,0.64709 2.65065,1.21721 4.25874,1.07936c0.93476,-0.08013 2.26912,-0.0986 3.09434,-0.77475c0.96576,-0.79131 2.22185,-1.44782 2.69193,-2.60449c1.93735,-4.76702 -2.52028,-5.98627 -6.15503,-6.27897c-1.49151,-0.12011 -2.47845,-0.59005 -3.35172,-0.5575z" fill="#000000" stroke="none" stroke-width="0.5"/><path d="M278.0563,204.42911c0.87327,-0.03255 1.88127,0.4265 3.37278,0.54661c3.63475,0.2927 8.15149,1.57666 6.21414,6.34368c-0.47008,1.15667 -1.74956,1.84096 -2.71532,2.63227c-0.82522,0.67615 -2.19067,0.70021 -3.12543,0.78034c-1.60809,0.13785 -2.86109,-0.45041 -4.29055,-1.0975c-0.12744,-2.39152 -1.27309,-6.33419 0.29579,-8.18385l0.24859,-1.02156z" data-paper-data="{&quot;noHover&quot;:false,&quot;origItem&quot;:[&quot;Path&quot;,{&quot;applyMatrix&quot;:true,&quot;segments&quot;:[[278.08914,204.4668],[[277.84539,205.48352],[0,0],[-1.56888,1.84966]],[[277.55088,213.60316],[-0.12744,-2.39152],[1.42946,0.64709]],[[281.80962,214.68252],[-1.60809,0.13785],[0.93476,-0.08013]],[[284.90396,213.90777],[-0.82522,0.67615],[0.96576,-0.79131]],[[287.59589,211.30328],[-0.47008,1.15667],[1.93735,-4.76702]],[[281.44086,205.02431],[3.63475,0.2927],[-1.49151,-0.12011]],[[278.08914,204.46681],[0.87327,-0.03255],[0,0]]],&quot;closed&quot;:true,&quot;fillColor&quot;:[0,0,0,1],&quot;strokeWidth&quot;:0.5}]}" fill="#fdfdfd" stroke="none" stroke-width="0.25"/><path d="M162.93711,312.47427v-265.67406h312.10191v265.67406z" fill="none" stroke="#000000" stroke-width="0"/></g></g></svg>