<svg version="1.1" xmlns="http://www.w3.org/2000/svg" xmlns:xlink="http://www.w3.org/1999/xlink" width="312.10191" height="265.67406" viewBox="0,0,312.10191,265.67406"><g transform="translate(-162.93711,-46.80021)"><g data-paper-data="{&quot;isPaintingLayer&quot;:true}" fill-rule="nonzero" stroke-linecap="butt" stroke-linejoin="miter" stroke-miterlimit="10" stroke-dasharray="" stroke-dashoffset="0" style="mix-blend-mode: normal"><path d="M210.27044,234.28209c-0.11352,-0.41051 -0.25892,-0.80741 -0.46945,-1.17669c-0.77228,-1.35458 -2.25464,-2.2898 -2.79102,-3.7539c-0.88744,-2.42234 -0.8291,-5.20359 -1.45634,-7.58155c-0.50864,-1.92833 -2.17886,-3.41894 -2.67914,-5.34946c-0.4047,-1.56167 -0.27019,-3.29335 -0.9889,-4.73766c-0.05822,-4.49122 -0.02902,-8.85386 0.42349,-13.3065c0.20114,-1.97921 -0.39482,-4.17358 0.02195,-6.12051c0.17228,-0.80481 0.77047,-1.48264 0.91701,-2.29253c0.25035,-1.38358 -0.25404,-4.30254 -0.33929,-5.60119c-0.29717,-4.5269 -1.08461,-8.74447 -1.51668,-13.24865c-0.43704,-4.55595 1.9765,-8.26214 3.26612,-12.47063c1.08056,-3.69942 3.08193,-6.74427 4.11928,-10.52025c1.18768,-4.32317 2.4672,-8.07793 4.20035,-12.12757c0.26691,-0.62366 0.1515,-1.39993 0.52498,-1.96624c0.88072,-1.33543 3.50779,-3.40499 4.74945,-4.45951c5.27788,-4.48237 10.92223,-8.93795 16.94594,-12.35564c4.09132,-1.01526 7.68058,-2.30682 11.50475,-3.96751c2.09605,-0.91023 3.48123,-3.09588 5.25034,-4.42944c1.54821,-1.16705 3.52245,-1.6398 5.17969,-2.64604c1.51018,-0.91695 2.58963,-2.43551 4.08286,-3.3798c3.87011,-2.44738 7.98625,-4.50214 12.08555,-6.51192c3.62323,-1.77637 6.76976,-4.26134 10.45053,-5.95492c3.46895,-1.51277 6.77363,-3.58856 10.40867,-4.67854c1.49295,-0.44766 3.09155,-0.47121 4.58505,-0.91701c1.4694,-0.43861 2.71988,-1.49136 4.20934,-1.85608c1.2214,-0.29908 2.54092,0.23367 3.7724,-0.02076c1.8315,-0.37839 3.68369,-0.65196 5.53428,-0.92188c7.47891,-1.09085 15.03598,-2.18198 22.6625,-2.30697c4.76586,-0.00008 9.69099,-0.11928 14.40925,0.46969c5.25281,0.6557 10.15565,3.18182 15.25362,4.1469c1.95674,0.37042 4.00681,-0.0038 5.96305,0.36923c5.93476,1.13166 11.76818,4.05329 17.28052,6.41629c1.0024,0.47738 4.04882,1.90897 4.42068,2.23059c1.49055,1.28917 2.19761,3.34118 3.7138,4.6001c2.08795,1.73366 3.93632,3.11949 5.69765,5.24144c0.98093,1.18177 1.5083,2.65846 2.53091,3.81353c2.69222,3.04097 6.7544,4.29145 9.97296,6.43081c4.54795,3.023 9.28545,6.46549 13.19472,10.41626c4.83092,7.98113 7.93161,19.07162 9.37714,28.33653c0.42676,2.73528 0.0031,5.80663 0.53963,8.51234c1.2118,6.11108 3.5782,11.2491 3.67452,17.74974c1.89196,8.39525 1.56668,19.04183 -0.00401,27.30509c-0.84174,4.42831 -4.62611,8.05558 -7.1268,11.58795c-3.24006,4.57676 -6.18166,9.57611 -9.81822,13.83305c-4.37257,5.40111 -9.2872,10.51597 -13.54111,15.95635c-0.60632,0.77542 -0.86165,1.8163 -1.56687,2.503c-2.18854,2.13108 -5.18439,1.9551 -7.63765,3.44103c-2.38302,1.44339 -4.44557,3.5732 -6.84838,5.0261c-3.03657,1.83611 -6.20832,2.43848 -9.40156,3.78385c-2.55063,1.07463 -4.28878,2.88183 -7.05631,3.26775c-2.88375,1.16902 -6.13485,2.44508 -9.15698,3.20609c-1.98834,0.50069 -4.10215,0.19972 -6.13138,0.49367c-3.09088,0.44774 -5.7297,1.61488 -8.92802,1.78761c-5.65573,0.30545 -12.08824,-1.05198 -17.59818,0.03506c-4.38436,0.86498 -8.67913,2.41448 -13.20919,3.12505c-7.63065,1.4897 -15.08681,3.33217 -22.73707,4.58533c-3.23597,0.53007 -6.91554,0.11127 -10.18793,0.11127c-3.17826,0 -6.63788,0.38233 -9.79229,-0.00896c-3.76387,-0.46689 -6.94138,-1.83704 -10.76666,-1.83122c-1.93634,-0.36091 -3.76196,-1.17945 -5.59624,-1.89714c-3.32682,-1.30168 -7.35536,-1.92819 -10.43396,-3.8465c-3.40971,-2.12463 -5.43911,-5.25667 -9.50313,-6.6103c-2.9441,-0.98062 -6.18758,-1.0834 -9.27459,-1.89595c-1.65009,-0.43433 -3.16343,-1.2808 -4.75924,-1.8848c-3.23101,-1.22291 -7.05119,-1.58712 -10.42352,-2.31397c-2.30697,-0.51167 -4.17196,-2.1737 -6.36539,-2.67654c-0.864,-0.19807 -1.89356,0.31529 -2.65568,-0.13736c-0.85067,-0.50524 -1.46626,-1.47761 -1.68722,-2.44202c-0.54672,-2.38632 0.96201,-2.40915 1.39363,-4.26868c0.20042,-0.86346 -0.20828,-1.83944 0.13736,-2.65568c0.21488,-0.50743 1.1284,-0.42447 1.37552,-0.91701c1.30343,-2.59797 -2.77832,-6.63774 -2.00767,-9.02806c0.16738,-0.51916 0.36222,-1.14586 0.62655,-1.70817zM214.04817,240.88285c0.23964,1.10322 0.40511,2.06719 0.42213,2.44439c0.04676,1.03611 0.19896,2.13875 -0.17371,3.10665c-0.198,0.51425 -1.15571,0.41169 -1.37552,0.91701c-0.25718,0.59124 0.27071,1.29856 0.13736,1.92937c-0.34678,1.64049 -1.11115,1.66832 -1.3574,3.0674c-0.12037,0.68391 1.39857,0.01978 2.07617,0.17165c2.2336,0.5006 4.00087,2.1841 6.30822,2.66363c3.52646,0.76007 7.44475,1.17309 10.83227,2.43297c1.50849,0.56103 2.92422,1.3904 4.48142,1.79711c3.07822,0.80397 6.33869,0.90255 9.26606,1.89372c4.4432,1.50441 6.70319,4.68995 10.40011,7.00935c2.86465,1.79725 6.77154,2.3423 9.87577,3.55733c1.57347,0.61588 3.11121,1.40522 4.77445,1.70315c3.85288,0.0057 7.04757,1.3637 10.82252,1.83682c3.04285,0.38137 6.39763,-0.00896 9.46494,-0.00896c3.09844,0 6.65662,0.44555 9.71922,-0.07443c7.63257,-1.29588 15.06701,-3.09078 22.68721,-4.57702c4.50889,-0.69927 8.7902,-2.30363 13.16043,-3.11608c5.71235,-1.06196 12.18509,0.21277 18.01772,-0.08555c3.10639,-0.15888 5.62553,-1.31558 8.6427,-1.75982c1.91443,-0.28188 3.91623,0.06082 5.78976,-0.42334c3.04327,-0.78645 6.26075,-2.05815 9.18323,-3.21298c2.56218,-0.27309 4.30755,-2.1403 6.69884,-3.15133c3.0279,-1.28018 6.05958,-1.80947 8.93865,-3.55224c2.41783,-1.46357 4.49481,-3.62553 6.90678,-5.06102c2.09377,-1.24611 5.28364,-1.16269 7.03452,-2.97804c0.5941,-0.61597 0.78118,-1.53468 1.3075,-2.20948c4.26944,-5.47389 9.21423,-10.61346 13.60916,-16.0411c3.59733,-4.18179 6.48233,-9.13711 9.6757,-13.64775c2.16153,-3.05316 5.96379,-6.56576 6.62836,-10.42031c1.39264,-8.07739 1.82891,-18.18644 -0.0286,-26.3791c-0.05627,-2.84809 0.08782,-5.85105 -0.82903,-8.59878c-0.99643,-2.98624 -2.21179,-5.84645 -2.80795,-8.91731c-0.53681,-2.76513 -0.13143,-5.85676 -0.56307,-8.64378c-0.6776,-4.37515 -2.17414,-9.00063 -3.52305,-13.2079c-1.57491,-4.91216 -2.6004,-9.27453 -5.25433,-13.74328c-3.72611,-3.67888 -8.20963,-6.90082 -12.48158,-9.75797c-3.42818,-2.29283 -7.65472,-3.68089 -10.54111,-6.9171c-1.04933,-1.1765 -1.61943,-2.72094 -2.63131,-3.9298c-1.65701,-1.97958 -3.36669,-3.20545 -5.30648,-4.84568c-1.51934,-1.28471 -2.26636,-3.32075 -3.75779,-4.63776c-0.00399,-0.00352 -3.14641,-1.50095 -3.68411,-1.75722c-5.29224,-2.26755 -10.90982,-5.11661 -16.60618,-6.20281c-1.97296,-0.37621 -4.04116,-0.00028 -6.01358,-0.37931c-5.02598,-0.96582 -9.83304,-3.45828 -15.00772,-4.1062c-4.58516,-0.5741 -9.38389,-0.44724 -14.01807,-0.44732c-7.497,0.12333 -14.91908,1.20013 -22.27102,2.27808c-1.8289,0.26815 -3.65523,0.56001 -5.46984,0.91214c-1.16616,0.2263 -2.41321,-0.31666 -3.56369,-0.02076c-1.4305,0.36792 -2.62951,1.38584 -4.04376,1.81196c-1.49235,0.44966 -3.09224,0.46892 -4.58505,0.91701c-3.49678,1.04962 -6.69733,3.08453 -10.03829,4.54131c-3.65408,1.67193 -6.77244,4.14652 -10.36798,5.91648c-3.99014,1.9642 -7.98235,3.94887 -11.75672,6.32623c-1.51958,0.95714 -2.62583,2.489 -4.15742,3.42679c-1.56488,0.95816 -3.46297,1.35348 -4.92023,2.46851c-1.9473,1.48998 -3.45028,3.69599 -5.75379,4.74066c-3.83059,1.73723 -7.58174,3.07775 -11.71312,4.05978c-5.71336,3.29373 -11.08796,7.59013 -16.11408,11.85542c-0.43823,0.37189 -3.66177,2.99941 -4.08041,3.65061c-0.3148,0.48967 -0.16246,1.16686 -0.39203,1.7018c-1.68244,3.92031 -2.89785,7.52113 -4.05275,11.71471c-1.04105,3.7802 -3.1073,6.883 -4.13382,10.57099c-0.76334,2.49175 -2.04653,4.76257 -2.8503,7.15155c-1.27166,3.77966 0.46186,8.23964 1.06063,11.91099c0.43729,2.68126 0.34915,5.89105 0.47376,8.61107c0.08746,1.90902 -0.51085,3.79341 -0.942,5.65516c-0.41439,1.78938 0.20326,3.95917 0.02195,5.80063c-0.40725,4.13629 -0.42398,8.1995 -0.49352,12.3698c0.719,1.43106 0.59772,3.14836 0.98062,4.70345c0.47953,1.94755 2.15623,3.44957 2.68743,5.38367c0.60965,2.21973 0.5399,4.80795 1.29469,7.09062c0.47013,1.42176 1.98261,2.27382 2.71104,3.58218c0.1891,0.33965 0.32302,0.70216 0.4283,1.07663c2.16663,0.48395 2.00423,3.3151 2.02001,4.84519c0.7939,0.75777 1.72641,1.41977 2.31661,2.33405c2.00599,3.10747 2.01027,8.98114 6.73417,8.80179c0,0 1.5,0 1.5,1.5c0,1.5 -1.5,1.5 -1.5,1.5c-6.67488,-0.16259 -6.36434,-5.69742 -9.25462,-10.17474c-0.05243,-0.08122 -0.31511,-0.3685 -0.67541,-0.75356z" fill="#000000" stroke="none" stroke-width="0.5"/><path d="M214.09151,240.85794c0.3603,0.38506 0.62278,0.67199 0.67521,0.75321c2.89028,4.47732 2.57669,10.00754 9.25157,10.17013c0,0 1.41969,0.05959 1.41969,-1.44041c0,-1.5 -1.50051,-1.50071 -1.50051,-1.50071c-4.7239,0.17935 -4.73067,-5.69817 -6.73666,-8.80564c-0.5902,-0.91428 -1.52335,-1.57742 -2.31725,-2.33519c-0.01578,-1.53009 0.14563,-4.36315 -2.021,-4.8471c-0.10528,-0.37447 -0.23941,-0.73741 -0.42851,-1.07706c-0.72843,-1.30836 -2.24166,-2.16206 -2.71179,-3.58382c-0.75479,-2.28267 -0.68613,-4.87358 -1.29578,-7.09331c-0.5312,-1.9341 -2.2087,-3.43845 -2.68823,-5.386c-0.3829,-1.55509 -0.26218,-3.27428 -0.98118,-4.70534c0.06954,-4.1703 0.0852,-8.2384 0.49245,-12.37469c0.18131,-1.84146 -0.43668,-4.01367 -0.02229,-5.80305c0.43115,-1.86175 1.02924,-3.74851 0.94178,-5.65753c-0.12461,-2.72002 -0.03659,-5.93353 -0.47388,-8.61479c-0.59877,-3.67135 -2.33201,-8.13639 -1.06035,-11.91605c0.80377,-2.38898 2.0874,-4.66297 2.85074,-7.15472c1.02652,-3.68799 3.09383,-6.79555 4.13488,-10.57575c1.1549,-4.19358 2.37203,-7.79956 4.05447,-11.71987c0.22957,-0.53494 0.07751,-1.21283 0.39231,-1.7025c0.41864,-0.6512 3.64306,-3.28074 4.08129,-3.65263c5.02612,-4.26529 10.40494,-8.56905 16.1183,-11.86278c4.13138,-0.98203 7.88568,-2.32664 11.71627,-4.06387c2.30351,-1.04467 3.80909,-3.25349 5.75639,-4.74347c1.45726,-1.11503 3.35736,-1.51225 4.92224,-2.47041c1.53159,-0.93779 2.64002,-2.47149 4.1596,-3.42863c3.77437,-2.37736 7.77242,-4.36604 11.76256,-6.33024c3.59554,-1.76996 6.71961,-4.24743 10.37369,-5.91936c3.34096,-1.45678 6.54701,-3.49367 10.04379,-4.54329c1.49281,-0.44809 3.09509,-0.46799 4.58744,-0.91765c1.41425,-0.42612 2.6155,-1.44453 4.046,-1.81245c1.15048,-0.2959 2.39935,0.24674 3.56551,0.02044c1.81461,-0.35213 3.64385,-0.64436 5.47275,-0.91251c7.35194,-1.07795 14.78559,-2.15452 22.28259,-2.27785c4.63418,0.00008 9.43977,-0.12534 14.02493,0.44876c5.17468,0.64792 9.98898,3.14305 15.01496,4.10887c1.97242,0.37903 4.04306,0.0043 6.01602,0.38051c5.69636,1.0862 11.32088,3.93968 16.61312,6.20723c0.5377,0.25627 3.68157,1.75485 3.68556,1.75837c1.49143,1.31701 2.24051,3.35484 3.75985,4.63955c1.93979,1.64023 3.65186,2.86844 5.30887,4.84802c1.01188,1.20886 1.58345,2.75491 2.63278,3.93141c2.88639,3.23621 7.11631,4.6286 10.54449,6.92143c4.27195,2.85715 8.75884,6.08467 12.48495,9.76355c2.65393,4.46875 3.68197,8.83692 5.25688,13.74908c1.34891,4.20727 2.84715,8.83842 3.52475,13.21357c0.43164,2.78702 0.02699,5.88233 0.5638,8.64746c0.59616,3.07086 1.81199,5.93504 2.80842,8.92128c0.91685,2.74773 0.77291,5.7544 0.82918,8.60249c1.85751,8.19266 1.42004,18.31278 0.0274,26.39017c-0.66457,3.85455 -4.46817,7.372 -6.6297,10.42516c-3.19337,4.51064 -6.08111,9.47259 -9.67844,13.65438c-4.39493,5.42764 -9.34472,10.57521 -13.61416,16.0491c-0.52632,0.6748 -0.71412,1.59443 -1.30822,2.2104c-1.75088,1.81535 -4.94282,1.73435 -7.03659,2.98046c-2.41197,1.43549 -4.49178,3.60031 -6.90961,5.06388c-2.87907,1.74277 -5.91412,2.27493 -8.94202,3.55511c-2.39129,1.01103 -4.13959,2.88036 -6.70177,3.15345c-2.92248,1.15483 -6.14409,2.42901 -9.18736,3.21546c-1.87353,0.48416 -3.87781,0.1427 -5.79224,0.42458c-3.01717,0.44424 -5.54053,1.60268 -8.64692,1.76156c-5.83263,0.29832 -12.31459,-0.97405 -18.02694,0.08791c-4.37023,0.81245 -8.65889,2.41741 -13.16778,3.11668c-7.6202,1.48624 -15.06616,3.27988 -22.69873,4.57576c-3.0626,0.51998 -6.62528,0.07318 -9.72372,0.07318c-3.06731,0 -6.42611,0.38881 -9.46896,0.00744c-3.77495,-0.47312 -6.97409,-1.83329 -10.82697,-1.83899c-1.66324,-0.29793 -3.20297,-1.08843 -4.77644,-1.70431c-3.10423,-1.21503 -7.01495,-1.76267 -9.8796,-3.55992c-3.69692,-2.3194 -5.96118,-5.50852 -10.40438,-7.01293c-2.92737,-0.99117 -6.19025,-1.09217 -9.26847,-1.89614c-1.5572,-0.40671 -2.97415,-1.23743 -4.48264,-1.79846c-3.38752,-1.25988 -7.30802,-1.67564 -10.83448,-2.43571c-2.30735,-0.47953 -4.07594,-2.16487 -6.30954,-2.66547c-0.6776,-0.15187 -2.19682,0.51185 -2.07645,-0.17206c0.24625,-1.39908 1.01024,-1.42749 1.35702,-3.06798c0.13335,-0.63081 -0.39489,-1.33869 -0.13771,-1.92993c0.21981,-0.50532 1.17751,-0.40278 1.37551,-0.91703c0.37267,-0.9679 0.21994,-2.07141 0.17318,-3.10752c-0.01702,-0.3772 -0.18296,-1.34197 -0.4226,-2.44519z" data-paper-data="{&quot;noHover&quot;:false,&quot;origItem&quot;:[&quot;Path&quot;,{&quot;applyMatrix&quot;:true,&quot;segments&quot;:[[[214.04817,240.88285],[0,0],[0.23964,1.10322]],[[214.4703,243.32724],[-0.01702,-0.3772],[0.04676,1.03611]],[[214.29659,246.43389],[0.37267,-0.9679],[-0.198,0.51425]],[[212.92107,247.3509],[0.21981,-0.50532],[-0.25718,0.59124]],[[213.05843,249.28027],[0.13335,-0.63081],[-0.34678,1.64049]],[[211.70103,252.34767],[0.24625,-1.39908],[-0.12037,0.68391]],[[213.7772,252.51932],[-0.6776,-0.15187],[2.2336,0.5006]],[[220.08542,255.18295],[-2.30735,-0.47953],[3.52646,0.76007]],[[230.91769,257.61592],[-3.38752,-1.25988],[1.50849,0.56103]],[[235.39911,259.41303],[-1.5572,-0.40671],[3.07822,0.80397]],[[244.66517,261.30675],[-2.92737,-0.99117],[4.4432,1.50441]],[[255.06528,268.3161],[-3.69692,-2.3194],[2.86465,1.79725]],[[264.94105,271.87343],[-3.10423,-1.21503],[1.57347,0.61588]],[[269.7155,273.57658],[-1.66324,-0.29793],[3.85288,0.0057]],[[280.53802,275.4134],[-3.77495,-0.47312],[3.04285,0.38137]],[[290.00296,275.40444],[-3.06731,0],[3.09844,0]],[[299.72218,275.33001],[-3.0626,0.51998],[7.63257,-1.29588]],[[322.40939,270.75299],[-7.6202,1.48624],[4.50889,-0.69927]],[[335.56982,267.63691],[-4.37023,0.81245],[5.71235,-1.06196]],[[353.58754,267.55136],[-5.83263,0.29832],[3.10639,-0.15888]],[[362.23024,265.79154],[-3.01717,0.44424],[1.91443,-0.28188]],[[368.02,265.3682],[-1.87353,0.48416],[3.04327,-0.78645]],[[377.20323,262.15522],[-2.92248,1.15483],[2.56218,-0.27309]],[[383.90207,259.00389],[-2.39129,1.01103],[3.0279,-1.28018]],[[392.84072,255.45165],[-2.87907,1.74277],[2.41783,-1.46357]],[[399.7475,250.39063],[-2.41197,1.43549],[2.09377,-1.24611]],[[406.78202,247.41259],[-1.75088,1.81535],[0.5941,-0.61597]],[[408.08952,245.20311],[-0.52632,0.6748],[4.26944,-5.47389]],[[421.69868,229.16201],[-4.39493,5.42764],[3.59733,-4.18179]],[[431.37438,215.51426],[-3.19337,4.51064],[2.16153,-3.05316]],[[438.00274,205.09395],[-0.66457,3.85455],[1.39264,-8.07739]],[[437.97414,178.71485],[1.85751,8.19266],[-0.05627,-2.84809]],[[437.14511,170.11607],[0.91685,2.74773],[-0.99643,-2.98624]],[[434.33716,161.19876],[0.59616,3.07086],[-0.53681,-2.76513]],[[433.77409,152.55498],[0.43164,2.78702],[-0.6776,-4.37515]],[[430.25104,139.34708],[1.34891,4.20727],[-1.57491,-4.91216]],[[424.99671,125.6038],[2.65393,4.46875],[-3.72611,-3.67888]],[[412.51513,115.84583],[4.27195,2.85715],[-3.42818,-2.29283]],[[401.97402,108.92873],[2.88639,3.23621],[-1.04933,-1.1765]],[[399.34271,104.99893],[1.01188,1.20886],[-1.65701,-1.97958]],[[394.03623,100.15325],[1.93979,1.64023],[-1.51934,-1.28471]],[[390.27844,95.51549],[1.49143,1.31701],[-0.00399,-0.00352]],[[386.59433,93.75827],[0.5377,0.25627],[-5.29224,-2.26755]],[[369.98815,87.55546],[5.69636,1.0862],[-1.97296,-0.37621]],[[363.97457,87.17615],[1.97242,0.37903],[-5.02598,-0.96582]],[[348.96685,83.06995],[5.17468,0.64792],[-4.58516,-0.5741]],[[334.94878,82.62263],[4.63418,0.00008],[-7.497,0.12333]],[[312.67776,84.90071],[7.35194,-1.07795],[-1.8289,0.26815]],[[307.20792,85.81285],[1.81461,-0.35213],[-1.16616,0.2263]],[[303.64423,85.79209],[1.15048,-0.2959],[-1.4305,0.36792]],[[299.60047,87.60405],[1.41425,-0.42612],[-1.49235,0.44966]],[[295.01542,88.52106],[1.49281,-0.44809],[-3.49678,1.04962]],[[284.97713,93.06237],[3.34096,-1.45678],[-3.65408,1.67193]],[[274.60915,98.97885],[3.59554,-1.76996],[-3.99014,1.9642]],[[262.85243,105.30508],[3.77437,-2.37736],[-1.51958,0.95714]],[[258.69501,108.73187],[1.53159,-0.93779],[-1.56488,0.95816]],[[253.77478,111.20038],[1.45726,-1.11503],[-1.9473,1.48998]],[[248.02099,115.94104],[2.30351,-1.04467],[-3.83059,1.73723]],[[236.30787,120.00082],[4.13138,-0.98203],[-5.71336,3.29373]],[[220.19379,131.85624],[5.02612,-4.26529],[-0.43823,0.37189]],[[216.11338,135.50685],[0.41864,-0.6512],[-0.3148,0.48967]],[[215.72135,137.20865],[0.22957,-0.53494],[-1.68244,3.92031]],[[211.6686,148.92336],[1.1549,-4.19358],[-1.04105,3.7802]],[[207.53478,159.49435],[1.02652,-3.68799],[-0.76334,2.49175]],[[204.68448,166.6459],[0.80377,-2.38898],[-1.27166,3.77966]],[[205.74511,178.55689],[-0.59877,-3.67135],[0.43729,2.68126]],[[206.21887,187.16796],[-0.12461,-2.72002],[0.08746,1.90902]],[[205.27687,192.82312],[0.43115,-1.86175],[-0.41439,1.78938]],[[205.29882,198.62375],[0.18131,-1.84146],[-0.40725,4.13629]],[[204.8053,210.99355],[0.06954,-4.1703],[0.719,1.43106]],[[205.78592,215.697],[-0.3829,-1.55509],[0.47953,1.94755]],[[208.47335,221.08067],[-0.5312,-1.9341],[0.60965,2.21973]],[[209.76804,228.17129],[-0.75479,-2.28267],[0.47013,1.42176]],[[212.47908,231.75347],[-0.72843,-1.30836],[0.1891,0.33965]],[[212.90738,232.8301],[-0.10528,-0.37447],[2.16663,0.48395]],[[214.92739,237.67529],[-0.01578,-1.53009],[0.7939,0.75777]],[[217.244,240.00934],[-0.5902,-0.91428],[2.00599,3.10747]],[[223.97817,248.81113],[-4.7239,0.17935],[0,0]],[[225.47817,250.31113],[0,-1.5],[0,1.5]],[[223.97817,251.81113],[0,0],[-6.67488,-0.16259]],[[214.72355,241.63639],[2.89028,4.47732],[-0.05243,-0.08122]],[[214.04814,240.88283],[0.3603,0.38506],[0,0]]],&quot;closed&quot;:true,&quot;fillColor&quot;:[0,0,0,1]}]}" fill="#fdaa9c" stroke="none" stroke-width="0.5"/><path d="M284.06452,157.66409c5.14218,-2.35573 10.98298,-4.36812 15.68358,-7.6782c0.83472,-0.58779 1.4507,-1.46027 2.31113,-2.00975c1.4054,-0.8975 3.17838,-1.12067 4.56395,-2.0485c0.5576,-0.37339 0.85156,-1.10729 1.46372,-1.38225c2.73091,-1.22664 6.60069,-0.78709 9.47308,-0.78709c4.35865,0 8.97383,1.07735 13.07526,2.60093c0.76511,0.28422 1.66476,0.33336 2.29609,0.85067c2.61001,2.13869 3.02004,6.41794 1.71664,9.34842c-1.30721,2.93906 -3.84917,4.61357 -5.88374,6.9597c-0.6585,0.75933 -2.26771,1.72468 -1.65434,2.52091c1.43656,1.86483 5.48559,2.91962 7.41983,4.45486c1.67557,1.3665 4.6284,4.08187 4.33406,6.57787c-0.41724,3.53819 -5.04429,4.70016 -7.37116,6.98808c-5.903,5.80417 -11.13218,11.36425 -18.14601,15.89919c-1.56148,1.00961 -3.6151,3.04343 -5.37202,3.62275c-1.98496,0.65451 -5.19011,0.02773 -7.208,-0.13022c-2.62354,-4.15914 -5.98061,-8.14005 -7.87332,-12.70963c-0.73395,-1.772 -1.11194,-3.85934 -1.86843,-5.61368c-0.77079,-1.78748 -1.43628,-1.53152 -2.82906,-2.98206c-1.99968,-2.08261 -3.87525,-3.97812 -5.94475,-5.94493c-3.08463,-2.93158 -3.11553,-9.86488 -2.89496,-13.80708c-0.33665,-0.63528 -1.27327,-1.23683 -1.00995,-1.90583c0.48982,-1.24443 1.91029,-1.87214 2.86543,-2.80821l2.39684,-0.0896c0,0 0.20115,0 0.45613,0.07366zM282.22157,162.01928c0.11592,3.68035 0.10537,7.7858 1.49872,11.23412c0.39312,0.97292 2.08369,1.70511 2.61054,2.17373c2.00836,1.78638 4.17139,4.22848 5.93809,6.23821c1.95189,2.2204 2.35187,5.39241 3.43152,8.01826c1.66116,4.04015 4.81931,7.21696 6.58754,11.18223c1.48989,-0.27427 3.41167,0.32085 4.73793,-0.13021c1.46342,-0.49772 3.35503,-2.43157 4.68771,-3.29332c5.83972,-3.77611 10.89307,-8.14916 15.64549,-13.24103c1.59841,-1.71257 3.44334,-4.08148 5.48368,-5.3316c0.29256,-0.17925 3.01355,-0.61744 3.02357,-1.9227c0.0118,-1.53763 -2.10656,-3.24895 -3.21073,-4.11059c-1.84191,-1.48718 -3.95608,-2.2969 -5.86798,-3.69563c-0.83149,-0.60831 -2.02511,-0.96212 -2.43053,-1.90925c-0.40292,-0.94128 -0.05433,-2.09771 0.30493,-3.05651c0.37036,-0.98842 1.13897,-1.78392 1.81312,-2.59611c0.98769,-1.18992 2.47412,-1.90629 3.43607,-3.11712c2.19761,-2.76619 4.12867,-7.78107 -0.2772,-9.27454c-1.52817,-0.518 -3.07783,-1.00509 -4.66673,-1.28621c-2.73696,-0.48425 -4.68018,-1.14272 -7.40733,-1.14272c-2.33569,0 -5.91767,-0.55303 -8.13144,0.47037c-0.46756,0.21615 -0.62205,0.84781 -1.05122,1.13269c-2.3916,1.5875 -4.61127,2.46283 -6.95704,4.11528c-2.25356,1.5875 -4.92437,2.66271 -7.39633,3.86898c-3.97732,1.94085 -7.68376,4.3193 -11.80237,5.67366z" fill="#000000" stroke="none" stroke-width="0.5"/><path d="M282.17578,161.99922c4.11861,-1.35436 7.8382,-3.75062 11.81552,-5.69147c2.47196,-1.20627 5.15857,-2.29069 7.41213,-3.87819c2.34577,-1.65245 4.58099,-2.53069 6.97259,-4.11819c0.42917,-0.28488 0.5857,-0.91655 1.05326,-1.1327c2.21377,-1.0234 5.81006,-0.46806 8.14575,-0.46806c2.72715,0 4.68155,0.66358 7.41851,1.14783c1.5889,0.28112 3.14446,0.77246 4.67263,1.29046c4.40587,1.49347 2.48302,6.51711 0.28541,9.2833c-0.96195,1.21083 -2.44772,1.92812 -3.43541,3.11804c-0.67415,0.81219 -1.44113,1.61018 -1.81149,2.5986c-0.35926,0.9588 -0.70447,2.12177 -0.30155,3.06305c0.40542,0.94713 1.60143,1.30795 2.43292,1.91626c1.9119,1.39873 4.02764,2.21909 5.86955,3.70627c1.10417,0.86164 3.22222,2.58081 3.21042,4.11844c-0.01002,1.30526 -2.73177,1.74805 -3.02433,1.9273c-2.04034,1.25012 -3.89072,3.6333 -5.48913,5.34587c-4.75242,5.09187 -9.84361,9.48984 -15.68333,13.26595c-1.33268,0.86175 -3.23362,2.79578 -4.69704,3.2935c-1.32626,0.45106 -3.2564,-0.1454 -4.74629,0.12887c-1.76823,-3.96527 -4.9464,-7.15227 -6.60756,-11.19242c-1.07965,-2.62585 -1.49275,-5.81487 -3.44464,-8.03527c-1.7667,-2.00973 -3.93437,-4.46948 -5.94273,-6.25586c-0.52685,-0.46862 -2.21754,-1.20547 -2.61066,-2.17839c-1.39335,-3.44832 -1.37861,-7.57282 -1.49453,-11.25317z" data-paper-data="{&quot;noHover&quot;:false,&quot;origItem&quot;:[&quot;Path&quot;,{&quot;applyMatrix&quot;:true,&quot;segments&quot;:[[[282.22157,162.01928],[0,0],[0.11592,3.68035]],[[283.72029,173.2534],[-1.39335,-3.44832],[0.39312,0.97292]],[[286.33083,175.42713],[-0.52685,-0.46862],[2.00836,1.78638]],[[292.26892,181.66534],[-1.7667,-2.00973],[1.95189,2.2204]],[[295.70044,189.6836],[-1.07965,-2.62585],[1.66116,4.04015]],[[302.28798,200.86583],[-1.76823,-3.96527],[1.48989,-0.27427]],[[307.02591,200.73562],[-1.32626,0.45106],[1.46342,-0.49772]],[[311.71362,197.4423],[-1.33268,0.86175],[5.83972,-3.77611]],[[327.35911,184.20127],[-4.75242,5.09187],[1.59841,-1.71257]],[[332.84279,178.86967],[-2.04034,1.25012],[0.29256,-0.17925]],[[335.86636,176.94697],[-0.01002,1.30526],[0.0118,-1.53763]],[[332.65563,172.83638],[1.10417,0.86164],[-1.84191,-1.48718]],[[326.78765,169.14075],[1.9119,1.39873],[-0.83149,-0.60831]],[[324.35712,167.2315],[0.40542,0.94713],[-0.40292,-0.94128]],[[324.66205,164.17499],[-0.35926,0.9588],[0.37036,-0.98842]],[[326.47517,161.57888],[-0.67415,0.81219],[0.98769,-1.18992]],[[329.91124,158.46176],[-0.96195,1.21083],[2.19761,-2.76619]],[[329.63404,149.18722],[4.40587,1.49347],[-1.52817,-0.518]],[[324.96731,147.90101],[1.5889,0.28112],[-2.73696,-0.48425]],[[317.55998,146.75829],[2.72715,0],[-2.33569,0]],[[309.42854,147.22866],[2.21377,-1.0234],[-0.46756,0.21615]],[[308.37732,148.36135],[0.42917,-0.28488],[-2.3916,1.5875]],[[301.42028,152.47663],[2.34577,-1.65245],[-2.25356,1.5875]],[[294.02395,156.34561],[2.47196,-1.20627],[-3.97732,1.94085]],[[282.22158,162.01927],[4.11861,-1.35436],[0,0]]],&quot;closed&quot;:true,&quot;fillColor&quot;:[0,0,0,1],&quot;strokeWidth&quot;:0.5}]}" fill="#fdfdfd" stroke="none" stroke-width="0.25"/><path d="M308.11564,210.98976c0.08645,0.08645 0.15881,0.17291 0.2188,0.25879c2.06086,0.01433 4.09826,0.18184 6.04066,0.59401c1.07856,0.22887 1.69911,1.48071 2.73342,1.86265c0.75059,0.27717 1.91227,-0.38342 2.38613,0.2613c1.95013,2.6533 0.68526,4.5473 -0.10683,6.96634c-0.78297,2.39119 -0.99332,5.67699 -2.86582,7.5601c-1.7797,1.78978 -4.70073,2.10502 -7.00884,2.73173c-4.66483,0.72122 -7.75075,1.01394 -12.38367,-0.39276c-1.85037,-0.56184 -4.49931,-1.72388 -5.36218,-3.61325c-0.49253,-1.07844 -0.47907,-2.32489 -0.62444,-3.50153c-0.29168,-2.36094 -0.52972,-5.30085 1.49583,-7.05958c2.72784,-2.3685 5.85456,-0.76758 8.83567,-1.98275c-0.88064,0.08472 -1.76067,0.18411 -2.6397,0.29492c0,0 -1.48842,0.18605 -1.67447,-1.30236c-0.18605,-1.48842 1.30237,-1.67447 1.30237,-1.67447c2.31516,-0.2871 4.76022,-0.56668 7.21542,-0.68558l0.31634,-0.31754c0,0 1.06066,-1.06066 2.12132,0zM306.85512,214.36736l-0.06245,0.06224c-2.03226,1.56636 -3.37075,2.92677 -5.90764,3.38913c-1.82209,0.33208 -4.68532,-0.15883 -6.24259,1.07155c-1.12781,0.89105 -0.61188,3.39081 -0.5131,4.542c0.57754,6.73108 9.99526,5.58725 14.76008,4.85796c1.68256,-0.46111 4.20851,-0.62888 5.51128,-1.91861c1.33324,-1.31989 1.59037,-4.76657 2.14224,-6.39089c0.41683,-1.22687 1.91426,-2.88182 0.96632,-3.7652c-0.38302,-0.35693 -1.05238,0.42775 -1.54877,0.2613c-1.10986,-0.37216 -1.11262,-1.55497 -2.27463,-1.71453c-2.27118,-0.31185 -4.55033,-0.4247 -6.83073,-0.39496z" fill="#000000" stroke="none" stroke-width="0.5"/><path d="M306.86186,214.3178c2.2804,-0.02974 4.59043,0.09971 6.86161,0.41156c1.16201,0.15956 1.17173,1.35265 2.28159,1.72481c0.49639,0.16645 1.16655,-0.61658 1.54957,-0.25965c0.94794,0.88338 -0.54543,2.55181 -0.96226,3.77868c-0.55187,1.62432 -0.81478,5.10292 -2.14802,6.42281c-1.30277,1.28973 -3.8518,1.47869 -5.53436,1.9398c-4.76482,0.72929 -14.25252,1.83523 -14.83006,-4.89585c-0.09878,-1.15119 -0.6139,-3.67039 0.51391,-4.56144c1.55727,-1.23038 4.42929,-0.75796 6.25138,-1.09004c2.53689,-0.46236 3.92155,-1.84211 5.95381,-3.40847l0.06282,-0.06219z" data-paper-data="{&quot;noHover&quot;:false,&quot;origItem&quot;:[&quot;Path&quot;,{&quot;applyMatrix&quot;:true,&quot;segments&quot;:[[306.85512,214.36736],[[306.79267,214.4296],[0,0],[-2.03226,1.56636]],[[300.88503,217.81873],[2.53689,-0.46236],[-1.82209,0.33208]],[[294.64244,218.89028],[1.55727,-1.23038],[-1.12781,0.89105]],[[294.12934,223.43228],[-0.09878,-1.15119],[0.57754,6.73108]],[[308.88942,228.29024],[-4.76482,0.72929],[1.68256,-0.46111]],[[314.4007,226.37163],[-1.30277,1.28973],[1.33324,-1.31989]],[[316.54294,219.98074],[-0.55187,1.62432],[0.41683,-1.22687]],[[317.50926,216.21554],[0.94794,0.88338],[-0.38302,-0.35693]],[[315.96049,216.47684],[0.49639,0.16645],[-1.10986,-0.37216]],[[313.68586,214.76231],[1.16201,0.15956],[-2.27118,-0.31185]],[[306.85513,214.36735],[2.2804,-0.02974],[0,0]]],&quot;closed&quot;:true,&quot;fillColor&quot;:[0,0,0,1],&quot;strokeWidth&quot;:0.5}]}" fill="#fdfdfd" stroke="none" stroke-width="0.25"/><path d="M332.85078,199.25401c0.17633,-0.35727 0.34067,-0.66622 0.4725,-0.87002c2.07247,-3.20384 6.0204,-5.88584 9.14949,-1.82044c1.09866,1.42741 1.1883,5.38615 1.13761,6.95512c-0.20459,6.33204 -3.56791,16.97488 -11.45622,15.42508c-0.98544,-0.80431 -2.28824,-1.30361 -3.00095,-2.3572c-3.70605,-5.47861 0.54907,-10.50244 2.04186,-15.69868l0.54638,-0.93761c0,0 0.4194,-0.6291 1.10933,-0.69625zM333.12363,204.09581c-1.27499,2.74115 -2.98439,5.70266 -2.58725,8.61566c0.25851,1.89614 1.72008,2.42048 2.93079,3.53488c2.15549,0.45041 3.09391,-1.3385 4.15717,-3.0306c2.17379,-3.4594 3.53012,-8.05035 3.00635,-12.19316c-0.48031,-3.79903 -2.61642,-4.49461 -4.75547,-1.0614c-0.39018,0.62625 -1.20709,2.52572 -1.51499,3.21893c0,0 -0.38655,0.86972 -1.2366,0.91569z" fill="#000000" stroke="none" stroke-width="0.5"/><path d="M334.34478,203.13257c0.3079,-0.69321 1.14213,-2.59509 1.53231,-3.22134c2.13905,-3.43321 4.30536,-2.72603 4.78567,1.073c0.52377,4.14281 -0.84915,8.81967 -3.02294,12.27907c-1.06326,1.6921 -2.02848,3.48217 -4.18397,3.03176c-1.21071,-1.1144 -2.69426,-1.65014 -2.95277,-3.54628c-0.39714,-2.913 1.31322,-5.94994 2.58821,-8.69109c0.85005,-0.04597 1.25349,-0.92511 1.25349,-0.92511z" data-paper-data="{&quot;noHover&quot;:false,&quot;origItem&quot;:[&quot;Path&quot;,{&quot;applyMatrix&quot;:true,&quot;segments&quot;:[[[333.12363,204.09581],[0.85005,-0.04597],[-1.27499,2.74115]],[[330.53638,212.71147],[-0.39714,-2.913],[0.25851,1.89614]],[[333.46717,216.24635],[-1.21071,-1.1144],[2.15549,0.45041]],[[337.62434,213.21575],[-1.06326,1.6921],[2.17379,-3.4594]],[[340.63069,201.02259],[0.52377,4.14281],[-0.48031,-3.79903]],[[335.87522,199.96119],[2.13905,-3.43321],[-0.39018,0.62625]],[[334.36023,203.18012],[0.3079,-0.69321],[0,0]]],&quot;closed&quot;:true,&quot;fillColor&quot;:[0,0,0,1],&quot;strokeWidth&quot;:0.5}]}" fill="#fdfdfd" stroke="none" stroke-width="0.25"/><path d="M162.93711,312.47427v-265.67406h312.10191v265.67406z" fill="none" stroke="#000000" stroke-width="0"/></g></g></svg>