<svg version="1.1" xmlns="http://www.w3.org/2000/svg" xmlns:xlink="http://www.w3.org/1999/xlink" width="312.10191" height="265.67406" viewBox="0,0,312.10191,265.67406"><g transform="translate(-162.93711,-46.80021)"><g data-paper-data="{&quot;isPaintingLayer&quot;:true}" fill-rule="nonzero" stroke-linecap="butt" stroke-linejoin="miter" stroke-miterlimit="10" stroke-dasharray="" stroke-dashoffset="0" style="mix-blend-mode: normal"><path d="M223.57978,149.16859c1.16097,-5.09031 2.58811,-10.14709 4.81526,-14.61435c1.41051,-2.82922 4.02299,-5.03485 6.2984,-7.12929c2.58279,-2.37535 4.77858,-5.25707 7.36635,-7.5504c1.90231,-1.68586 4.18895,-2.93783 6.11035,-4.62018c8.07275,-7.06841 16.25821,-13.94739 25.18526,-19.90543c2.50158,-1.66959 5.54416,-2.44648 8.1683,-3.92738c19.02469,-5.91183 38.51654,-8.80115 58.26827,-5.78475c5.09873,0.79905 10.37315,0.86298 15.50314,1.60198c2.8122,0.40511 5.6088,1.43301 8.43649,1.69147c2.0581,0.18812 4.17199,0.02676 6.17779,0.52468c3.11653,0.77364 5.72184,2.10077 8.57395,3.43323c5.66334,2.64583 12.31315,4.64132 18.28232,6.50231c4.69905,1.47057 11.22156,3.43325 15.19815,6.43479c4.62052,3.48758 7.80248,8.9754 11.56728,13.2927c3.09678,3.55124 7.28098,8.06169 8.99916,12.51086c1.37835,3.56919 0.92959,7.96345 1.74703,11.72062c0.03708,3.43517 -0.23931,7.02413 0.04918,10.44308c0.39222,4.64825 1.19032,9.32073 0.67369,14.02238c-1.26146,11.47996 -4.58396,22.581 -6.64737,33.98106c-3.43599,9.17144 -8.46633,17.13149 -13.2835,25.55144c-2.90763,5.08225 -6.06727,10.73763 -11.38251,13.83161c-3.82909,2.2289 -8.92237,3.02527 -13.11985,4.42366c-14.30599,5.50445 -29.98381,8.16311 -44.98976,10.83702c-3.96826,0.70711 -7.94144,0.61684 -11.89507,1.27051c-4.61664,0.22806 -8.97413,1.26866 -13.4866,1.98903c-6.4892,1.03593 -13.81562,0.28931 -20.32849,-0.07407c-7.82278,-0.43647 -15.92406,-0.90281 -23.52532,-2.77287c-9.88522,-2.20253 -19.72607,-4.37156 -29.19254,-8.06116c-3.50735,-1.36701 -8.3966,-2.1777 -11.42936,-4.42794c-4.92759,-3.65616 -7.23887,-9.20725 -9.43211,-14.70327c-3.66721,-13.56193 -7.22329,-27.04792 -9.47111,-40.92979c-0.50211,-3.10087 -1.98382,-5.74763 -2.3877,-8.94037c0.07075,-4.03807 -1.54552,-9.09395 0.0892,-13.17012c1.01202,-2.52347 1.64216,-4.42491 2.33285,-6.99046c0.55293,-2.05386 2.2791,-3.70464 3.13119,-5.651c0.43884,-1.00242 0.56684,-2.16914 1.21828,-3.04837c0.50702,-0.6843 1.54331,-0.8056 2.10898,-1.44227c0.08982,-0.10109 0.18,-0.20759 0.27043,-0.31893zM222.03626,156.44412c-0.84438,1.29871 -1.96991,2.5949 -2.28305,3.94438c-0.62544,2.69531 -1.30517,4.69859 -2.41936,7.26616c-1.51175,3.48372 0.03946,8.43793 0.0892,11.94868c0.38321,3.11027 1.84353,5.65876 2.3645,8.71068c2.3402,13.7092 5.74017,26.97023 9.34603,40.39684c2.00381,4.99719 3.998,9.88499 8.41062,13.27085c2.68571,2.06077 7.54077,2.78509 10.69436,4.01422c9.33649,3.63894 19.03857,5.77504 28.79236,7.9366c7.39663,1.88232 15.37852,2.2722 23.00312,2.69728c6.28244,0.35025 13.42604,1.13124 19.68306,0.1078c4.5622,-0.74622 8.97884,-1.77934 13.64695,-2.01051c3.88875,-0.63613 7.78772,-0.54611 11.6868,-1.24089c14.84568,-2.64536 30.34864,-5.26542 44.50297,-10.70732c4.01308,-1.33841 8.958,-2.08562 12.63005,-4.1963c4.8581,-2.79242 7.64491,-8.1166 10.28142,-12.72495c4.68868,-8.19536 9.61454,-15.94901 12.99516,-24.85828c1.98854,-11.25668 5.31311,-22.18632 6.55762,-33.51213c0.49702,-4.52315 -0.31167,-9.01165 -0.68409,-13.48203c-0.28189,-3.38372 -0.01958,-6.92065 -0.03786,-10.31984c-0.76964,-3.47037 -0.26845,-7.69207 -1.56036,-10.96521c-1.62869,-4.1264 -5.58404,-8.33185 -8.46487,-11.62947c-3.60253,-4.12372 -6.64324,-9.43428 -11.023,-12.80458c-1.21312,-0.93351 -2.78757,-1.26566 -4.17919,-1.9032c-3.36106,-1.53981 -6.66445,-3.02645 -10.19788,-4.12898c-6.09676,-1.90948 -12.86301,-3.95424 -18.65466,-6.64651c-2.69601,-1.25325 -5.09702,-2.49481 -8.03749,-3.24282c-1.86081,-0.47336 -3.83111,-0.26862 -5.74269,-0.44893c-2.86728,-0.27044 -5.6855,-1.2898 -8.53567,-1.70296c-5.15337,-0.74704 -10.43536,-0.83511 -15.56432,-1.61074c-19.20615,-2.97526 -38.10474,-0.06101 -56.62489,5.57461c-2.45418,1.39551 -5.35649,2.08841 -7.68284,3.66266c-10.75857,7.28037 -21.16817,15.65133 -30.92522,24.23194c-2.58948,2.27726 -4.7983,5.18847 -7.37877,7.56189c-0.77886,0.71572 -1.636,1.45726 -2.46204,2.24497c0.13589,0.33335 0.13589,0.63591 0.13589,0.63591l-0.15836,1.34971c-0.65169,1.26002 -0.58463,2.78629 -1.07219,4.11845c-0.71175,1.9447 -1.7787,3.74289 -2.77422,5.55876c-1.0476,1.91086 -2.55491,4.81355 -4.00867,6.86037c-0.85041,3.7692 -1.56179,7.55296 -2.36217,11.13421c-0.97565,4.36551 -2.1838,7.49384 -2.1838,12.05115c0,0 0,1.5 -1.5,1.5c-1.5,0 -1.5,-1.5 -1.5,-1.5c0,-4.7637 1.24415,-8.16502 2.25584,-12.70463c0.32269,-1.44798 0.63172,-2.93232 0.94171,-4.43781z" fill="#000000" stroke="none" stroke-width="0.5"/><path d="M222.08567,156.45182c-0.30999,1.50549 -0.61873,2.98767 -0.94142,4.43565c-1.01169,4.53961 -2.25554,7.93483 -2.25554,12.69853c0,0 -0.00001,1.49927 1.49999,1.49927c1.5,0 1.40002,-1.49807 1.40002,-1.49807c0,-4.55731 1.20843,-7.6916 2.18408,-12.05711c0.80038,-3.58125 1.51268,-7.37058 2.36309,-11.13978c1.45376,-2.04682 2.96205,-4.95323 4.00965,-6.86409c0.99552,-1.81587 2.06348,-3.61704 2.77523,-5.56174c0.48756,-1.33216 0.4213,-2.86043 1.07299,-4.12045l0.15862,-1.35032c0,0 0.00011,-0.3028 -0.13578,-0.63615c0.82604,-0.78771 1.68384,-1.53067 2.4627,-2.24639c2.58047,-2.37342 4.79186,-5.28927 7.38134,-7.56653c9.75705,-8.58061 20.1814,-16.96672 30.93997,-24.24709c2.32635,-1.57425 5.23275,-2.26959 7.68693,-3.6651c18.52015,-5.63562 37.45105,-8.55498 56.6572,-5.57972c5.12896,0.77563 10.41958,0.86605 15.57295,1.61309c2.85017,0.41316 5.67282,1.43441 8.5401,1.70485c1.91158,0.18031 3.88448,-0.02308 5.74529,0.45028c2.94047,0.74801 5.3454,1.99201 8.04141,3.24526c5.79165,2.69227 12.56525,4.74321 18.66201,6.65269c3.53343,1.10253 6.84002,2.59276 10.20108,4.13257c1.39162,0.63754 2.96725,0.9712 4.18037,1.90471c4.37976,3.3703 7.42459,8.68738 11.02712,12.8111c2.88083,3.29762 6.83878,7.50885 8.46747,11.63525c1.29191,3.27314 0.79222,7.4995 1.56186,10.96987c0.01828,3.39919 -0.24304,6.94062 0.03885,10.32434c0.37242,4.47038 1.18178,8.96508 0.68476,13.48823c-1.24451,11.32581 -4.57093,22.27135 -6.55947,33.52803c-3.38062,8.90927 -8.31186,16.67525 -13.00054,24.87061c-2.63651,4.60835 -5.42798,9.93898 -10.28608,12.7314c-3.67205,2.11068 -8.62109,2.86218 -12.63417,4.20059c-14.15433,5.4419 -29.67892,8.07371 -44.5246,10.71907c-3.89908,0.69478 -7.80497,0.60601 -11.69372,1.24214c-4.66811,0.23117 -9.09293,1.2645 -13.65513,2.01072c-6.25702,1.02344 -13.41173,0.24056 -19.69417,-0.10969c-7.6246,-0.42508 -15.6177,-0.81975 -23.01433,-2.70207c-9.75379,-2.16156 -19.4667,-4.30614 -28.80319,-7.94508c-3.15359,-1.22913 -8.01172,-1.95693 -10.69743,-4.0177c-4.41262,-3.38586 -6.41083,-8.27947 -8.41464,-13.27666c-3.60586,-13.42661 -7.01222,-26.70555 -9.35242,-40.41475c-0.52097,-3.05192 -1.98175,-5.60457 -2.36496,-8.71484c-0.04974,-3.51075 -1.60102,-8.47053 -0.08927,-11.95425c1.11419,-2.56757 1.79419,-4.57434 2.41963,-7.26965c0.31314,-1.34948 1.43894,-2.64767 2.28332,-3.94638z" data-paper-data="{&quot;noHover&quot;:false,&quot;origItem&quot;:[&quot;Path&quot;,{&quot;applyMatrix&quot;:true,&quot;segments&quot;:[[[222.03626,156.44412],[0,0],[-0.84438,1.29871]],[[219.75321,160.3885],[0.31314,-1.34948],[-0.62544,2.69531]],[[217.33385,167.65466],[1.11419,-2.56757],[-1.51175,3.48372]],[[217.42305,179.60334],[-0.04974,-3.51075],[0.38321,3.11027]],[[219.78755,188.31402],[-0.52097,-3.05192],[2.3402,13.7092]],[[229.13358,228.71086],[-3.60586,-13.42661],[2.00381,4.99719]],[[237.5442,241.98171],[-4.41262,-3.38586],[2.68571,2.06077]],[[248.23856,245.99593],[-3.15359,-1.22913],[9.33649,3.63894]],[[277.03092,253.93253],[-9.75379,-2.16156],[7.39663,1.88232]],[[300.03404,256.62981],[-7.6246,-0.42508],[6.28244,0.35025]],[[319.7171,256.73761],[-6.25702,1.02344],[4.5622,-0.74622]],[[333.36405,254.7271],[-4.66811,0.23117],[3.88875,-0.63613]],[[345.05085,253.48621],[-3.89908,0.69478],[14.84568,-2.64536]],[[389.55382,242.77889],[-14.15433,5.4419],[4.01308,-1.33841]],[[402.18387,238.58259],[-3.67205,2.11068],[4.8581,-2.79242]],[[412.46529,225.85764],[-2.63651,4.60835],[4.68868,-8.19536]],[[425.46045,200.99936],[-3.38062,8.90927],[1.98854,-11.25668]],[[432.01807,167.48723],[-1.24451,11.32581],[0.49702,-4.52315]],[[431.33398,154.0052],[0.37242,4.47038],[-0.28189,-3.38372]],[[431.29612,143.68536],[0.01828,3.39919],[-0.76964,-3.47037]],[[429.73576,132.72015],[1.29191,3.27314],[-1.62869,-4.1264]],[[421.27089,121.09068],[2.88083,3.29762],[-3.60253,-4.12372]],[[410.24789,108.2861],[4.37976,3.3703],[-1.21312,-0.93351]],[[406.0687,106.3829],[1.39162,0.63754],[-3.36106,-1.53981]],[[395.87082,102.25392],[3.53343,1.10253],[-6.09676,-1.90948]],[[377.21616,95.60741],[5.79165,2.69227],[-2.69601,-1.25325]],[[369.17867,92.36459],[2.94047,0.74801],[-1.86081,-0.47336]],[[363.43598,91.91566],[1.91158,0.18031],[-2.86728,-0.27044]],[[354.90031,90.2127],[2.85017,0.41316],[-5.15337,-0.74704]],[[339.33599,88.60196],[5.12896,0.77563],[-19.20615,-2.97526]],[[282.7111,94.17657],[18.52015,-5.63562],[-2.45418,1.39551]],[[275.02826,97.83923],[2.32635,-1.57425],[-10.75857,7.28037]],[[244.10304,122.07117],[9.75705,-8.58061],[-2.58948,2.27726]],[[236.72427,129.63306],[2.58047,-2.37342],[-0.77886,0.71572]],[[234.26223,131.87803],[0.82604,-0.78771],[0.13589,0.33335]],[234.39812,132.51394],[[234.23976,133.86365],[0,0],[-0.65169,1.26002]],[[233.16757,137.9821],[0.48756,-1.33216],[-0.71175,1.9447]],[[230.39335,143.54086],[0.99552,-1.81587],[-1.0476,1.91086]],[[226.38468,150.40123],[1.45376,-2.04682],[-0.85041,3.7692]],[[224.02251,161.53544],[0.80038,-3.58125],[-0.97565,4.36551]],[[221.83871,173.58659],[0,-4.55731],[0,0]],[[220.33871,175.08659],[1.5,0],[-1.5,0]],[[218.83871,173.58659],[0,0],[0,-4.7637]],[[221.09455,160.88196],[-1.01169,4.53961],[0.32269,-1.44798]],[[222.03626,156.44415],[-0.30999,1.50549],[0,0]]],&quot;closed&quot;:true,&quot;fillColor&quot;:[0,0,0,1]}]}" fill="#fdaa9c" stroke="none" stroke-width="0.5"/><path d="M338.90164,188.49673c0.29417,1.47087 -1.1767,1.76505 -1.1767,1.76505l-0.49077,-0.34989c-0.14358,0.21524 -0.30653,0.43501 -0.48221,0.65857c8.2929,0.94881 12.61914,8.34095 14.83204,16.00377c1.55217,5.37487 1.15616,10.39668 -3.72265,13.63757c-2.99531,0.76234 -3.48485,1.12509 -6.58246,0.98642c-3.91452,-0.17523 -9.89698,-2.12395 -11.82735,-6.00583c-0.96975,-1.95013 -0.45518,-5.40188 -0.45518,-7.44251c0,-4.7379 0.24648,-9.34827 1.81461,-13.86888c0.69503,-2.00364 2.74909,-3.86518 3.92706,-5.63321l2.39857,-0.92775c0,0 1.47087,-0.29417 1.76505,1.1767zM334.49264,193.33703c-0.39914,0.55696 -0.72721,1.11825 -0.9029,1.67464c-1.33456,4.22643 -1.59338,8.33599 -1.59338,12.7382c0,1.17736 -0.52225,4.794 0.12269,6.06977c1.45695,2.88205 6.42595,4.2488 9.29608,4.38167c2.47052,0.11437 2.89007,-0.16128 5.23257,-0.73306c3.41442,-2.28943 3.13871,-6.39336 2.05603,-10.055c-1.9609,-6.63178 -5.61863,-14.06806 -13.58442,-13.94407c0,0 -0.29698,0 -0.62666,-0.13215z" fill="#000000" stroke="none" stroke-width="0.5"/><path d="M334.47058,193.29216c0.32968,0.13215 0.62835,0.13136 0.62835,0.13136c7.96579,-0.12399 11.69291,7.36783 13.65381,13.99961c1.08268,3.66164 1.33231,7.80011 -2.08211,10.08954c-2.3425,0.57178 -2.78177,0.8529 -5.25229,0.73853c-2.87013,-0.13287 -7.87867,-1.51515 -9.33562,-4.3972c-0.64494,-1.27577 -0.13512,-4.91564 -0.13512,-6.093c0,-4.40221 0.28025,-8.56478 1.61481,-12.79121c0.17569,-0.55639 0.50901,-1.12067 0.90815,-1.67763z" data-paper-data="{&quot;noHover&quot;:false,&quot;origItem&quot;:[&quot;Path&quot;,{&quot;applyMatrix&quot;:true,&quot;segments&quot;:[[[334.49264,193.33703],[0,0],[-0.39914,0.55696]],[[333.58974,195.01167],[0.17569,-0.55639],[-1.33456,4.22643]],[[331.99636,207.74987],[0,-4.40221],[0,1.17736]],[[332.11905,213.81964],[-0.64494,-1.27577],[1.45695,2.88205]],[[341.41513,218.20131],[-2.87013,-0.13287],[2.47052,0.11437]],[[346.6477,217.46825],[-2.3425,0.57178],[3.41442,-2.28943]],[[348.70373,207.41325],[1.08268,3.66164],[-1.9609,-6.63178]],[[335.11931,193.46918],[7.96579,-0.12399],[0,0]],[[334.49265,193.33703],[0.32968,0.13215],[0,0]]],&quot;closed&quot;:true,&quot;fillColor&quot;:[0,0,0,1],&quot;strokeWidth&quot;:0.5}]}" fill="#fdfdfd" stroke="none" stroke-width="0.25"/><path d="M296.76134,211.31217c0.88254,0.70603 0.56814,1.54505 0.35949,1.91583c2.4237,0.06081 4.85289,0.00306 7.26895,0.3675c2.89513,0.43671 6.36582,2.12772 9.05564,3.28083c1.16518,0.4995 2.71767,-0.03603 3.73412,0.72159c1.27316,0.94896 1.55779,3.76243 1.18667,5.09431c-1.00415,3.60371 -4.8489,4.51884 -6.4567,7.61007c-3.95188,2.07976 -7.91338,2.18545 -12.32908,2.17294c-1.87857,-0.00532 -3.35459,0.21097 -5.0947,-0.78506c-3.87134,-2.21594 -2.03411,-7.14794 -2.46395,-10.66395c-0.18507,-1.51377 -1.44283,-2.93226 -1.14849,-4.42863c0.03231,-0.16428 0.24587,-0.50981 0.54051,-0.92756c-0.29075,-0.08187 -1.36027,-0.47306 -1.10546,-1.74713c0.29417,-1.47087 1.76505,-1.1767 1.76505,-1.1767c0.47639,0.09657 0.9535,0.17375 1.43119,0.23574l1.14841,-1.43551c0,0 0.93704,-1.1713 2.10835,-0.23426zM294.448,216.08406c-0.29239,0.27088 -0.52708,0.57092 -0.60711,0.9533c-0.26236,1.25343 1.00131,2.39117 1.16298,3.66152c0.30289,2.37998 -0.83158,5.58989 0.3628,7.75416c0.77075,1.39663 2.99427,1.02596 4.21377,1.0222c3.43501,-0.01059 7.01402,0.12387 10.20776,-1.29426c1.27198,-2.66229 4.8301,-3.42154 5.67852,-6.25875c0.17575,-0.58774 0.62884,-1.70282 0.03094,-1.8401c-2.03038,-0.46618 -4.33803,-0.92468 -6.49765,-1.53118c-1.85967,-0.52227 -3.01196,-1.72147 -4.98302,-1.97868c-3.20186,-0.41783 -6.38517,-0.23262 -9.56898,-0.48819z" fill="#000000" stroke="none" stroke-width="0.5"/><path d="M294.40607,216.05686c3.18381,0.25557 6.40282,0.04797 9.60468,0.4658c1.97106,0.25721 3.16472,1.47044 5.02439,1.99271c2.15962,0.6065 4.4806,1.08825 6.51098,1.55443c0.5979,0.13728 0.14618,1.26057 -0.02957,1.84831c-0.84842,2.83721 -4.42237,3.63724 -5.69435,6.29953c-3.19374,1.41813 -6.83756,1.28639 -10.27257,1.29698c-1.2195,0.00376 -3.4551,0.36074 -4.22585,-1.03589c-1.19438,-2.16427 -0.0659,-5.41037 -0.36879,-7.79035c-0.16167,-1.27035 -1.42071,-2.42087 -1.15835,-3.6743c0.08003,-0.38238 0.31703,-0.68636 0.60942,-0.95724z" data-paper-data="{&quot;noHover&quot;:false,&quot;origItem&quot;:[&quot;Path&quot;,{&quot;applyMatrix&quot;:true,&quot;segments&quot;:[[[294.448,216.08406],[0,0],[-0.29239,0.27088]],[[293.84089,217.03736],[0.08003,-0.38238],[-0.26236,1.25343]],[[295.00387,220.69888],[-0.16167,-1.27035],[0.30289,2.37998]],[[295.36667,228.45304],[-1.19438,-2.16427],[0.77075,1.39663]],[[299.58044,229.47524],[-1.2195,0.00376],[3.43501,-0.01059]],[[309.7882,228.18098],[-3.19374,1.41813],[1.27198,-2.66229]],[[315.46672,221.92223],[-0.84842,2.83721],[0.17575,-0.58774]],[[315.49766,220.08213],[0.5979,0.13728],[-2.03038,-0.46618]],[[309.00001,218.55095],[2.15962,0.6065],[-1.85967,-0.52227]],[[304.01699,216.57227],[1.97106,0.25721],[-3.20186,-0.41783]],[[294.44801,216.08408],[3.18381,0.25557],[0,0]]],&quot;closed&quot;:true,&quot;fillColor&quot;:[0,0,0,1],&quot;strokeWidth&quot;:0.5}]}" fill="#fdfdfd" stroke="none" stroke-width="0.25"/><path d="M280.13908,178.65952c-1.58485,-2.14321 -1.06422,-5.94617 -1.76656,-8.37182c-0.96061,-3.31766 -2.78103,-6.64133 -4.38504,-9.68239c-0.52735,-0.9998 -2.41839,-4.14825 -1.79349,-5.62402c0.66673,-1.57454 3.0651,-1.82431 4.36438,-2.2818c5.38412,-1.8958 10.9558,-3.06419 16.63499,-3.79824c3.38905,-0.43374 7.06646,-0.64121 10.45694,-0.00537c1.68277,0.31558 4.93813,1.21203 6.40187,1.84761c0.45811,0.19892 0.58383,1.00645 1.08238,1.03601c0.78649,0.04662 1.45332,-0.61791 2.20899,-0.84089c2.54214,-0.75012 4.81128,-1.708 7.33719,-2.53805c4.32825,-1.42232 11.75156,-1.02643 15.1688,2.59516c2.14139,2.26944 2.12735,4.94471 3.30617,7.60155c0.10475,0.83514 0.53047,1.69199 0.31426,2.50543c-0.25567,0.96188 -1.12192,1.64518 -1.64291,2.49322c-2.09486,3.40991 -3.90364,6.84362 -6.09444,10.15312c-0.84363,1.27442 -2.15112,3.32714 -1.78287,4.95047c0.57824,2.54904 2.00778,2.87872 0.63297,6.02046c-0.27262,0.62299 -1.27792,0.52097 -1.80514,0.95048c-1.01809,0.82941 -1.49334,2.19072 -2.46836,3.07036c-3.85143,3.47466 -8.66367,5.33252 -13.42771,7.16464c-2.25564,0.71386 -4.38135,2.38668 -6.70426,2.74516c-0.84065,0.12973 -1.70117,0.02704 -2.55174,0.01937c-0.62529,-0.00564 -1.73778,-0.50468 -1.87297,0.10585c-0.12852,0.58041 0.31164,1.22072 0.11014,1.78c-0.73005,2.0263 -3.37043,4.3078 -5.46579,4.73256c-2.44187,0.495 -5.21256,-0.22523 -7.54362,-0.87549c-0.82324,-0.22965 -1.88036,-0.07261 -2.46872,-0.69252c-0.92543,-0.97507 -0.76061,-4.3358 -0.72763,-5.43873c0.13428,-4.4906 1.03022,-8.49061 2.44739,-12.73815c0.22813,-1.00755 0.27374,-2.07472 0.6844,-3.02264c0.10975,-0.25333 1.03452,-0.26595 0.76383,-0.32026c-0.51204,-0.10272 -1.05873,0.3126 -1.55843,0.16085c-2.12164,-0.6443 -3.28388,-1.91273 -5.75379,-1.89431l-1.24461,-0.44729c0,0 -0.90689,-0.45345 -0.85664,-1.36034zM284.19987,177.64719c1.77897,0.32311 3.22745,1.05261 5.00791,1.97073c0.98814,0.50955 2.47923,0.37132 3.06451,1.31658c0.4668,0.75391 -0.44882,1.7159 -0.65252,2.57892c-0.22213,0.9411 -0.41655,1.88852 -0.62483,2.83278c-0.78295,2.35102 -1.63707,4.84283 -2.06699,7.29457c-0.40857,2.32996 -0.16773,4.81006 -0.27678,7.16163c-0.0125,0.26965 -0.35614,0.62812 -0.1453,0.79666c0.26169,0.20918 0.66747,-0.16625 0.99849,-0.11465c1.88205,0.29336 5.42532,1.91486 7.2278,0.50092c0.87603,-0.68719 1.97776,-1.35666 2.29963,-2.42252c0.21853,-0.72364 -0.29771,-1.62862 0.11014,-2.26507c0.50855,-0.7936 1.46359,-1.25167 2.34957,-1.57333c0.44236,-0.1606 3.73356,0.02486 4.2052,-0.03506c1.94305,-0.24684 4.30818,-2.00216 6.18743,-2.61325c4.8459,-1.86402 10.00206,-3.74144 13.40527,-7.83431c0.56261,-0.67662 1.03256,-1.45532 1.72491,-1.99845c0.2894,-0.22703 0.91942,0.12359 1.0842,-0.20525c0.59124,-1.17994 -0.89455,-2.4997 -1.10063,-3.80329c-0.42549,-2.69148 0.81698,-4.99592 2.26221,-7.18475c2.15512,-3.26398 3.87565,-6.77752 6.04078,-10.07225c0.49407,-0.75184 1.22063,-1.64598 0.98282,-2.51363c-0.91818,-2.0292 -0.84876,-4.58868 -2.4725,-6.26727c-5.42772,-5.61108 -13.89012,-0.74577 -19.71007,0.64449c-1.18225,0.28242 -2.32572,0.97216 -3.53797,0.8832c-0.73528,-0.05396 -1.12801,-0.98811 -1.80696,-1.27546c-1.43156,-0.60589 -4.14156,-1.3212 -5.73335,-1.61959c-3.04754,-0.57128 -6.40455,-0.34993 -9.44503,0.04699c-4.45291,0.57522 -9.02093,1.34718 -13.33984,2.57133c-0.93655,0.26546 -1.79086,0.76736 -2.70916,1.09035c-0.83042,0.29208 -2.25655,-0.21504 -2.57003,0.60754c-0.41235,1.08202 1.12815,2.02264 1.67372,3.044c1.28666,2.40873 2.34093,4.80902 3.3991,7.33379c0.81282,1.93938 1.40617,3.98581 1.75452,6.05958c0.37016,2.20355 -0.08505,3.94931 1.9959,4.75348c0,0 0.20707,0.10354 0.41784,0.31061z" fill="#000000" stroke="none" stroke-width="0.5"/><path d="M284.14992,177.64975c-0.21077,-0.20707 -0.41787,-0.31137 -0.41787,-0.31137c-2.08095,-0.80417 -1.62509,-2.55994 -1.99525,-4.76349c-0.34835,-2.07377 -0.93893,-4.13023 -1.75175,-6.06961c-1.05817,-2.52477 -2.10878,-4.93251 -3.39544,-7.34124c-0.54557,-1.02136 -2.0848,-1.96399 -1.67245,-3.04601c0.31348,-0.82258 1.7412,-0.31771 2.57162,-0.60979c0.9183,-0.32299 1.77494,-0.82778 2.71149,-1.09324c4.31891,-1.22415 8.90272,-2.00821 13.35563,-2.58343c3.04048,-0.39692 6.4142,-0.62306 9.46174,-0.05178c1.59179,0.29839 4.31374,1.01389 5.7453,1.61978c0.67895,0.28735 1.076,1.22228 1.81128,1.27624c1.21225,0.08896 2.36216,-0.59885 3.54441,-0.88127c5.81995,-1.39026 14.30335,-6.24063 19.73107,-0.62955c1.62374,1.67859 1.55949,4.24563 2.47767,6.27483c0.23781,0.86765 -0.48755,1.76409 -0.98162,2.51593c-2.16513,3.29473 -3.88143,6.82095 -6.03655,10.08493c-1.44523,2.18883 -2.6872,4.50884 -2.26171,7.20032c0.20608,1.30359 1.6903,2.63098 1.09906,3.81092c-0.16478,0.32884 -0.79512,-0.02072 -1.08452,0.20631c-0.69235,0.54313 -1.16428,1.32711 -1.72689,2.00373c-3.40321,4.09287 -8.58736,5.99684 -13.43326,7.86086c-1.87925,0.61109 -4.26191,2.36967 -6.20496,2.61651c-0.47164,0.05992 -3.77357,-0.12666 -4.21593,0.03394c-0.88598,0.32166 -1.8454,0.77858 -2.35395,1.57218c-0.40785,0.63645 0.10953,1.54177 -0.109,2.26541c-0.32187,1.06586 -1.42634,1.73446 -2.30237,2.42165c-1.80248,1.41394 -5.3564,-0.21277 -7.23845,-0.50613c-0.33102,-0.0516 -0.73787,0.32312 -0.99956,0.11394c-0.21084,-0.16854 0.13234,-0.52733 0.14484,-0.79698c0.10905,-2.35157 -0.13806,-4.83687 0.27051,-7.16683c0.42992,-2.45174 1.27743,-4.9515 2.06038,-7.30252c0.20828,-0.94426 0.39947,-1.89724 0.6216,-2.83834c0.2037,-0.86302 1.11658,-1.83168 0.64978,-2.58559c-0.58528,-0.94526 -2.07801,-0.81345 -3.06615,-1.323c-1.78046,-0.91812 -3.22972,-1.65425 -5.00869,-1.97736z" data-paper-data="{&quot;noHover&quot;:false,&quot;origItem&quot;:[&quot;Path&quot;,{&quot;applyMatrix&quot;:true,&quot;segments&quot;:[[[284.19987,177.64719],[0,0],[1.77897,0.32311]],[[289.20778,179.61792],[-1.78046,-0.91812],[0.98814,0.50955]],[[292.27229,180.9345],[-0.58528,-0.94526],[0.4668,0.75391]],[[291.61977,183.51342],[0.2037,-0.86302],[-0.22213,0.9411]],[[290.99494,186.3462],[0.20828,-0.94426],[-0.78295,2.35102]],[[288.92795,193.64077],[0.42992,-2.45174],[-0.40857,2.32996]],[[288.65117,200.8024],[0.10905,-2.35157],[-0.0125,0.26965]],[[288.50587,201.59906],[-0.21084,-0.16854],[0.26169,0.20918]],[[289.50436,201.48441],[-0.33102,-0.0516],[1.88205,0.29336]],[[296.73216,201.98533],[-1.80248,1.41394],[0.87603,-0.68719]],[[299.03179,199.56281],[-0.32187,1.06586],[0.21853,-0.72364]],[[299.14193,197.29774],[-0.40785,0.63645],[0.50855,-0.7936]],[[301.4915,195.72441],[-0.88598,0.32166],[0.44236,-0.1606]],[[305.6967,195.68935],[-0.47164,0.05992],[1.94305,-0.24684]],[[311.88413,193.0761],[-1.87925,0.61109],[4.8459,-1.86402]],[[325.2894,185.24179],[-3.40321,4.09287],[0.56261,-0.67662]],[[327.01431,183.24334],[-0.69235,0.54313],[0.2894,-0.22703]],[[328.09851,183.03809],[-0.16478,0.32884],[0.59124,-1.17994]],[[326.99788,179.2348],[0.20608,1.30359],[-0.42549,-2.69148]],[[329.26009,172.05005],[-1.44523,2.18883],[2.15512,-3.26398]],[[335.30087,161.9778],[-2.16513,3.29473],[0.49407,-0.75184]],[[336.28369,159.46417],[0.23781,0.86765],[-0.91818,-2.0292]],[[333.81119,153.1969],[1.62374,1.67859],[-5.42772,-5.61108]],[[314.10112,153.84139],[5.81995,-1.39026],[-1.18225,0.28242]],[[310.56315,154.72459],[1.21225,0.08896],[-0.73528,-0.05396]],[[308.75619,153.44913],[0.67895,0.28735],[-1.43156,-0.60589]],[[303.02284,151.82954],[1.59179,0.29839],[-3.04754,-0.57128]],[[293.57781,151.87653],[3.04048,-0.39692],[-4.45291,0.57522]],[[280.23797,154.44786],[4.31891,-1.22415],[-0.93655,0.26546]],[[277.52881,155.53821],[0.9183,-0.32299],[-0.83042,0.29208]],[[274.95878,156.14575],[0.31348,-0.82258],[-0.41235,1.08202]],[[276.6325,159.18975],[-0.54557,-1.02136],[1.28666,2.40873]],[[280.0316,166.52354],[-1.05817,-2.52477],[0.81282,1.93938]],[[281.78612,172.58312],[-0.34835,-2.07377],[0.37016,2.20355]],[[283.78202,177.3366],[-2.08095,-0.80417],[0,0]],[[284.19986,177.64721],[-0.21077,-0.20707],[0,0]]],&quot;closed&quot;:true,&quot;fillColor&quot;:[0,0,0,1],&quot;strokeWidth&quot;:0.5}]}" fill="#fdfdfd" stroke="none" stroke-width="0.25"/><path d="M162.93711,312.47427v-265.67406h312.10191v265.67406z" fill="none" stroke="#000000" stroke-width="0"/></g></g></svg>