<svg version="1.1" xmlns="http://www.w3.org/2000/svg" xmlns:xlink="http://www.w3.org/1999/xlink" width="312.10191" height="265.67406" viewBox="0,0,312.10191,265.67406"><g transform="translate(-162.93711,-46.80023)"><g data-paper-data="{&quot;isPaintingLayer&quot;:true}" fill-rule="nonzero" stroke-linecap="butt" stroke-linejoin="miter" stroke-miterlimit="10" stroke-dasharray="" stroke-dashoffset="0" style="mix-blend-mode: normal"><path d="M162.93711,312.47429v-265.67406h312.10191v265.67406z" fill="none" stroke="#000000" stroke-width="0"/><path d="M308.68286,111.96482c0.17274,1.49002 -1.31728,1.66276 -1.31728,1.66276l-1.79923,0.2051c-4.60109,1.18805 -9.66943,1.56203 -14.5651,2.37012c-0.37965,0.43351 -0.7296,0.90607 -1.04527,1.42215c0,0 -0.795,1.272 -2.067,0.477c-0.54373,-0.33983 -0.70977,-0.76683 -0.72167,-1.14437c-1.87655,0.44345 -3.69996,1.00565 -5.43104,1.7631c-1.3112,0.57373 -2.91699,1.91043 -4.06881,2.55644c-3.49383,1.95957 -7.14252,3.49124 -10.55934,5.66169c-2.55032,1.62003 -4.46517,3.53395 -7.19162,4.86762c-3.51117,4.58506 -8.84363,7.24079 -12.20051,12.16145c-4.53526,6.64798 -7.63482,14.53452 -10.00707,22.08434c-0.83455,2.656 -2.19814,4.87199 -2.89178,7.6273c-1.54161,2.84358 -1.83546,6.16288 -2.83892,9.26548c-1.20063,3.71224 -3.18477,7.3787 -4.14042,11.13915c-0.59586,2.34468 -0.11573,5.11873 -0.32178,7.49749c-0.70421,8.12991 2.5311,15.42541 6.16274,22.68668c3.64183,7.32773 10.2819,13.05105 15.72449,19.04707c3.34004,3.67968 6.07999,7.97095 10.16064,10.97103c4.38979,3.22736 10.09972,4.86702 14.99091,7.10424c3.39041,0.71429 6.747,2.68825 10.14144,3.06417c7.89002,0.87379 15.86784,0.77174 23.8324,0.77055c7.30311,-0.0011 14.67905,0.06134 21.6734,-2.27596c9.22972,-2.7691 18.16024,-6.38125 26.77422,-10.68148c9.40586,-4.69554 17.76344,-11.33149 27.05751,-16.25664c2.77412,-2.13912 5.76394,-4.55415 7.94961,-7.31479c3.7349,-4.71741 5.25108,-11.78007 7.51414,-17.30504c1.53884,-3.75686 3.12885,-7.33433 4.85912,-10.95564c2.09827,-4.39153 1.96394,-10.68193 1.96185,-15.43384c0.00083,-6.01958 0.00531,-13.39284 -2.09704,-19.11176c-1.57333,-4.27987 -3.42965,-8.55306 -5.26613,-12.74108c-1.56674,-3.57288 -2.34736,-7.27225 -5.02697,-10.29133c-2.55202,-2.87534 -6.5666,-5.13256 -9.83204,-7.05125c-3.06279,-1.80166 -6.23296,-3.52599 -9.19339,-5.48899c-3.08428,-2.04512 -4.89096,-5.00028 -7.61021,-7.33544c-1.13373,-0.97359 -2.7545,-1.17476 -4.05839,-1.90489c-1.74607,-0.97773 -3.17268,-2.45942 -4.90374,-3.46348c-6.95274,-4.03276 -15.53499,-4.6781 -23.26323,-5.89474c-3.9212,-0.61823 -7.84856,-1.5633 -11.77496,-2.07775c-7.0903,-0.929 -14.27148,0.35362 -21.22163,1.6106c-1.43758,0.26 -2.89611,0.56453 -4.30161,0.98554c2.47427,-0.35533 4.91486,-0.75724 7.24992,-1.35441l2.00103,-0.23548c0,0 1.49002,-0.17274 1.66276,1.31728zM289.52937,113.44733c3.17403,-3.04232 7.51779,-4.3271 12.00473,-5.14704c7.25818,-1.32635 14.74379,-2.59394 22.14602,-1.63383c3.95251,0.51266 7.90805,1.46703 11.85444,2.0892c8.11249,1.28096 16.96707,2.04515 24.27444,6.24772c1.72985,0.99486 3.14606,2.48317 4.88889,3.45512c1.42181,0.79292 3.14674,1.08295 4.39716,2.12541c2.73043,2.27635 4.46191,5.24873 7.50971,7.2631c2.9042,1.91946 6.01096,3.60811 9.01262,5.37377c3.52881,2.07798 7.78359,4.53092 10.5438,7.63343c2.92129,3.28355 3.83314,7.20438 5.54102,11.08885c1.86329,4.23793 3.78541,8.58569 5.34241,12.93237c2.18362,6.09603 2.27303,13.72835 2.27389,20.12657c-0.00219,5.21667 0.03741,11.79277 -2.20917,16.62663c-1.68009,3.61498 -3.30577,7.16432 -4.83562,10.89989c-2.38621,5.82661 -4.016,13.02731 -7.93347,18.02414c-2.3743,3.02848 -5.64819,5.65208 -8.6815,7.98045c-9.36993,5.00711 -17.84152,11.67411 -27.3423,16.41885c-8.75186,4.37072 -17.83072,8.04428 -27.20892,10.85755c-7.88877,2.62328 -16.2102,2.41568 -24.43594,2.41615c-7.45228,0.00043 -14.96716,0.11829 -22.34189,-0.7933c-3.62228,-0.44775 -7.11139,-2.41697 -10.71362,-3.19235c-5.16835,-2.33536 -11.13474,-4.09948 -15.7703,-7.4943c-4.29421,-3.14484 -7.17773,-7.58867 -10.69442,-11.44815c-5.65135,-6.20222 -12.34892,-12.11515 -16.15587,-19.68759c-3.88261,-7.76733 -7.23303,-15.57855 -6.46812,-24.28896c0.22775,-2.59344 -0.23939,-5.38393 0.39382,-7.93925c0.95087,-3.8372 2.98001,-7.57977 4.20261,-11.35994c1.02599,-3.17226 1.33593,-6.49513 2.89521,-9.42416c0.6691,-2.69581 2.04119,-4.89729 2.84336,-7.49261c2.40807,-7.79097 5.67896,-15.89798 10.32661,-22.75403c3.53152,-5.20957 9.04857,-8.07756 12.82555,-12.86462c2.81866,-1.43741 4.82441,-3.38237 7.48242,-5.07823c3.46934,-2.21351 7.19644,-3.76841 10.74159,-5.76889c1.91339,-1.0797 2.31775,-1.80191 4.27321,-2.65732c2.83328,-1.23941 5.8884,-1.98239 9.01761,-2.53465z" fill="#000000" stroke="none" stroke-width="0.5"/><path d="M308.68826,112.01451c-0.17274,-1.49002 -1.66179,-1.3174 -1.66179,-1.3174l-1.99974,0.2353c-2.33506,0.59717 -4.77098,0.99813 -7.24525,1.35346c1.4055,-0.42101 2.84214,-0.82307 4.27972,-1.08307c6.95015,-1.25698 14.14501,-2.54035 21.23531,-1.61135c3.9264,0.51445 7.86135,1.46074 11.78255,2.07897c7.72824,1.21664 16.32435,1.86762 23.27709,5.90038c1.73106,1.00406 3.16078,2.48776 4.90685,3.46549c1.30389,0.73013 2.92683,0.93291 4.06056,1.9065c2.71925,2.33516 4.53076,5.29464 7.61504,7.33976c2.96043,1.963 6.13462,3.69196 9.19741,5.49362c3.26544,1.91869 7.28364,4.18134 9.83566,7.05668c2.67961,3.01908 3.46308,6.72423 5.02982,10.29711c1.83648,4.18802 3.6952,8.46851 5.26853,12.74838c2.10235,5.71892 2.09929,13.1028 2.09846,19.12238c0.00209,4.75191 0.13588,11.05102 -1.96239,15.44255c-1.73027,3.62131 -3.32173,7.20535 -4.86057,10.96221c-2.26306,5.52497 -3.78345,12.59777 -7.51835,17.31518c-2.18567,2.76064 -5.17881,5.18089 -7.95293,7.32001c-9.29407,4.92515 -17.66586,11.57429 -27.07172,16.26983c-8.61398,4.30023 -17.56208,7.91907 -26.7918,10.68817c-6.99435,2.3373 -14.38429,2.27533 -21.6874,2.27643c-7.96456,0.00119 -15.9563,0.09967 -23.84632,-0.77412c-3.39444,-0.37592 -6.75658,-2.35261 -10.14699,-3.0669c-4.89119,-2.23722 -10.60883,-3.8823 -14.99862,-7.10966c-4.08065,-3.00008 -6.82657,-7.2974 -10.16661,-10.97708c-5.44259,-5.99602 -12.08988,-11.73097 -15.73171,-19.0587c-3.63164,-7.26127 -6.87063,-14.56918 -6.16642,-22.69909c0.20605,-2.37876 -0.27456,-5.1569 0.3213,-7.50158c0.95565,-3.76045 2.93971,-7.43327 4.14034,-11.14551c1.00346,-3.1026 1.29792,-6.42753 2.83953,-9.27111c0.69364,-2.75531 2.05826,-4.97607 2.89281,-7.63207c2.37225,-7.54982 5.47773,-15.44995 10.01299,-22.09793c3.35688,-4.92066 8.6959,-7.58474 12.20707,-12.1698c2.72645,-1.33367 4.64531,-3.25128 7.19563,-4.87131c3.41682,-2.17045 7.07179,-3.70653 10.56562,-5.6661c1.15182,-0.64601 2.76034,-1.98422 4.07154,-2.55795c1.73108,-0.75745 3.55784,-1.32121 5.43439,-1.76466c0.0119,0.37754 0.17807,0.80448 0.7218,1.14431c1.272,0.795 2.0683,-0.47752 2.0683,-0.47752c0.31567,-0.51608 0.66654,-0.98899 1.04619,-1.4225c4.89567,-0.80809 9.97351,-1.1845 14.5746,-2.37255l1.80044,-0.20527c0,0 1.49102,-0.17286 1.31828,-1.66288z" data-paper-data="{&quot;noHover&quot;:false,&quot;origItem&quot;:[&quot;Path&quot;,{&quot;applyMatrix&quot;:true,&quot;segments&quot;:[[[308.68286,111.96482],[0,0],[0.17274,1.49002]],[307.36558,113.62758],[[305.56635,113.83268],[0,0],[-4.60109,1.18805]],[[291.00125,116.2028],[4.89567,-0.80809],[-0.37965,0.43351]],[[289.95598,117.62495],[0.31567,-0.51608],[0,0]],[[287.88898,118.10195],[1.272,0.795],[-0.54373,-0.33983]],[[287.16731,116.95758],[0.0119,0.37754],[-1.87655,0.44345]],[[281.73627,118.72068],[1.73108,-0.75745],[-1.3112,0.57373]],[[277.66746,121.27712],[1.15182,-0.64601],[-3.49383,1.95957]],[[267.10812,126.93881],[3.41682,-2.17045],[-2.55032,1.62003]],[[259.9165,131.80643],[2.72645,-1.33367],[-3.51117,4.58506]],[[247.71599,143.96788],[3.35688,-4.92066],[-4.53526,6.64798]],[[237.70892,166.05222],[2.37225,-7.54982],[-0.83455,2.656]],[[234.81714,173.67952],[0.69364,-2.75531],[-1.54161,2.84358]],[[231.97822,182.945],[1.00346,-3.1026],[-1.20063,3.71224]],[[227.8378,194.08415],[0.95565,-3.76045],[-0.59586,2.34468]],[[227.51602,201.58164],[0.20605,-2.37876],[-0.70421,8.12991]],[[233.67876,224.26832],[-3.63164,-7.26127],[3.64183,7.32773]],[[249.40325,243.31539],[-5.44259,-5.99602],[3.34004,3.67968]],[[259.56389,254.28642],[-4.08065,-3.00008],[4.38979,3.22736]],[[274.5548,261.39066],[-4.89119,-2.23722],[3.39041,0.71429]],[[284.69624,264.45483],[-3.39444,-0.37592],[7.89002,0.87379]],[[308.52864,265.22538],[-7.96456,0.00119],[7.30311,-0.0011]],[[330.20204,262.94942],[-6.99435,2.3373],[9.22972,-2.7691]],[[356.97626,252.26794],[-8.61398,4.30023],[9.40586,-4.69554]],[[384.03377,236.0113],[-9.29407,4.92515],[2.77412,-2.13912]],[[391.98338,228.69651],[-2.18567,2.76064],[3.7349,-4.71741]],[[399.49752,211.39147],[-2.26306,5.52497],[1.53884,-3.75686]],[[404.35664,200.43583],[-1.73027,3.62131],[2.09827,-4.39153]],[[406.31849,185.00199],[0.00209,4.75191],[0.00083,-6.01958]],[[404.22145,165.89023],[2.10235,5.71892],[-1.57333,-4.27987]],[[398.95532,153.14915],[1.83648,4.18802],[-1.56674,-3.57288]],[[393.92835,142.85782],[2.67961,3.01908],[-2.55202,-2.87534]],[[384.09631,135.80657],[3.26544,1.91869],[-3.06279,-1.80166]],[[374.90292,130.31758],[2.96043,1.963],[-3.08428,-2.04512]],[[367.29271,122.98214],[2.71925,2.33516],[-1.13373,-0.97359]],[[363.23432,121.07725],[1.30389,0.73013],[-1.74607,-0.97773]],[[358.33058,117.61377],[1.73106,1.00406],[-6.95274,-4.03276]],[[335.06735,111.71903],[7.72824,1.21664],[-3.9212,-0.61823]],[[323.29239,109.64128],[3.9264,0.51445],[-7.0903,-0.929]],[[302.07076,111.25188],[6.95015,-1.25698],[-1.43758,0.26]],[[297.76915,112.23742],[1.4055,-0.42101],[2.47427,-0.35533]],[[305.01907,110.88301],[-2.33506,0.59717],[0,0]],[307.0201,110.64753],[[308.68286,111.96481],[-0.17274,-1.49002],[0,0]]],&quot;closed&quot;:true,&quot;fillColor&quot;:[0,0,0,1]}]}" fill="#fdaa9c" stroke="none" stroke-width="0.5"/><path d="M339.25749,197.514c-0.91085,0 -1.2686,-0.5531 -1.40912,-0.98758c-0.78901,-0.37974 -1.54475,-0.84219 -2.36483,-1.14818c-0.14342,-0.05351 -0.31992,-0.0639 -0.51426,-0.04477c0.88039,0.60507 0.48706,1.70641 0.48706,1.70641c-1.5691,4.39331 -2.80838,10.00193 -0.85293,14.61742c0.29116,0.68724 0.99279,1.11771 1.43359,1.72001c1.0164,1.38881 3.94108,5.99716 6.42088,4.25589c3.75459,-2.6364 3.45309,-9.58182 2.88755,-13.51021c-0.27489,-1.09783 -0.20921,-2.29714 -0.67971,-3.32642c-0.81946,-1.79271 -2.45764,-2.81873 -2.95209,-4.93608c-0.82464,-3.53125 -0.42895,-7.1896 -1.30577,-10.69754c-0.78131,-3.12586 -2.25907,-5.7702 -3.34005,-8.70368c-0.74866,-2.03165 -1.47155,-5.3478 -2.85068,-7.09182c-1.10671,-1.39951 -4.3018,-2.79071 -5.83058,-3.82747c-2.60777,-1.04445 -5.36955,-1.98838 -8.23037,-1.20257c-1.12247,0.30832 -1.91995,1.35713 -3.00453,1.77982c-2.107,0.82114 -4.55664,1.68487 -6.7784,2.1667c-4.89191,1.06092 -10.01883,1.12538 -14.87046,2.08786c-3.15685,0.62626 -7.01913,2.1541 -10.00925,3.30448c-4.38713,2.59663 -6.17304,3.80792 -5.99984,9.35706c0.05149,1.64955 0.22914,3.3554 2.3102,3.40773c4.70281,0.11825 9.16971,-2.38374 13.65797,-2.35459c1.57356,0.01022 5.22827,-0.59173 5.8603,2.08548c0.30828,1.30583 -0.53889,2.63905 -1.00057,3.89885c-0.31438,0.85787 -0.78095,1.66284 -1.31047,2.4074c-0.11506,0.16179 -2.75026,2.76036 -2.89677,2.9055c-1.50619,2.33523 -3.10517,3.16413 -4.60275,5.34906c-0.18779,0.27397 -0.80263,0.24997 -0.80878,0.58207c-0.02263,1.22093 2.06718,1.31738 3.18275,1.81404c2.84307,1.26574 5.44882,2.07263 8.38103,0.45253c1.79164,-0.98992 3.63162,-2.6654 4.68228,-4.42803c0.70634,-1.18499 0.24564,-3.01398 1.2688,-3.93933c1.44796,-1.30954 4.46834,-0.43504 5.97368,-0.32378c2.93754,0.2171 5.94421,0.14166 8.88804,0.14388c3.89416,0.02788 7.23642,-1.91575 10.95736,-2.58156c2.30383,-0.41224 3.65322,0.94744 5.69505,1.61703l1.02566,1.9444c0,0 0,1.5 -1.5,1.5zM332.58205,196.169c-3.01163,0.95345 -6.35524,1.85133 -9.50501,1.86513c-3.01657,-0.00249 -6.09864,0.0736 -9.10842,-0.15216c-0.95596,-0.07171 -1.90434,-0.22526 -2.85231,-0.36802c-0.26289,-0.03959 -0.63078,-0.40042 -0.77731,-0.17859c-0.6353,0.9617 -0.24261,2.3605 -0.81671,3.35994c-3.61276,6.28948 -10.56109,8.06964 -16.87542,5.1659c-2.43268,-1.1187 -4.58838,-1.30684 -4.939,-4.72049c-0.08152,-0.79373 0.87845,-1.33341 1.27672,-2.02481c1.47782,-2.56555 3.2866,-3.11508 4.78202,-5.59985c1.80623,-1.82091 4.08884,-3.77917 4.69834,-6.42955c0.24067,-1.04656 -5.53078,0.69148 -5.845,0.77831c-3.1313,0.86531 -7.94265,1.8599 -11.13308,1.55946c-6.73392,-0.63413 -5.92648,-10.2516 -3.16759,-14.32644c1.43721,-2.12274 3.7241,-2.86298 5.86954,-4.12299c3.20005,-1.23049 7.31345,-2.85796 10.71074,-3.54178c4.84532,-0.97529 9.96202,-1.05039 14.84799,-2.08315c2.06462,-0.43641 4.29307,-1.26128 6.25601,-2.00431c1.16943,-0.44266 2.04791,-1.53257 3.25198,-1.86981c3.70714,-1.03831 7.1385,0.0435 10.53656,1.41386c1.83957,1.2327 5.28191,2.76261 6.68508,4.505c0.81981,1.018 1.19875,3.0703 1.77904,4.23258c2.03339,4.07272 3.95338,8.27474 5.06464,12.81864c0.86176,3.52368 0.56229,7.13682 1.30111,10.67889c0.3853,1.8472 2.05445,2.83976 2.78305,4.4487c0.55966,1.23589 0.55586,2.65654 0.88442,3.97285c0.6295,4.43458 0.72777,10.07613 -1.86342,13.97189c-1.88684,2.83679 -4.78696,4.23954 -8.15281,2.75033c-0.61436,-0.27182 -0.82929,-1.06708 -1.33288,-1.51175c-1.7757,-1.56791 -4.11541,-3.58332 -5.07682,-5.87751c-2.22088,-5.29963 -1.08501,-11.60518 0.7185,-16.71026z" fill="#000000" stroke="none" stroke-width="0.5"/><path d="M339.20889,197.50221c1.5,0 1.49935,-1.4969 1.49935,-1.4969l-1.02611,-1.94125c-2.04183,-0.66959 -3.29164,-2.02041 -5.59547,-1.60817c-3.72094,0.66581 -7.06637,2.62395 -10.96053,2.59607c-2.94383,-0.00222 -5.97797,0.10156 -8.91551,-0.11554c-1.50534,-0.11126 -4.58108,-0.99732 -6.02904,0.31222c-1.02316,0.92535 -0.49785,2.67868 -1.20419,3.86367c-1.05066,1.76263 -2.9509,3.51781 -4.74254,4.50773c-2.93221,1.6201 -5.54819,0.80175 -8.39126,-0.46399c-1.11557,-0.49666 -3.20865,-0.599 -3.18602,-1.81993c0.00615,-0.3321 0.62082,-0.30846 0.80861,-0.58243c1.49758,-2.18493 3.09364,-3.02197 4.59983,-5.3572c0.14651,-0.14514 2.78033,-2.75119 2.89539,-2.91298c0.52952,-0.74456 0.99596,-1.55874 1.31034,-2.41661c0.46168,-1.2598 1.31279,-2.60892 1.00451,-3.91475c-0.63203,-2.67721 -4.1945,-2.03664 -5.76806,-2.04686c-4.48826,-0.02915 -8.95204,2.46142 -13.65485,2.34317c-2.08106,-0.05233 -2.35676,-1.77731 -2.40825,-3.42686c-0.1732,-5.54914 1.61921,-6.77565 6.00634,-9.37228c2.99012,-1.15038 6.86264,-2.68978 10.01949,-3.31604c4.85163,-0.96248 10.00557,-1.03817 14.89748,-2.09909c2.22176,-0.48183 4.68525,-1.34497 6.79225,-2.16611c1.08458,-0.42269 1.88669,-1.47042 3.00916,-1.77874c2.86082,-0.78581 5.6353,0.16373 8.24307,1.20818c1.52878,1.03676 4.73286,2.43508 5.83957,3.83459c1.37913,1.74402 2.10966,5.06998 2.85832,7.10163c1.08098,2.93348 2.5647,5.59307 3.34601,8.71893c0.87682,3.50794 0.48153,7.18479 1.30617,10.71604c0.49445,2.11735 2.13114,3.14975 2.9506,4.94246c0.4705,1.02928 0.40342,2.23258 0.67831,3.33041c0.56554,3.92839 0.85795,10.88851 -2.89664,13.52491c-2.4798,1.74127 -5.47803,-2.93482 -6.49443,-4.32363c-0.4408,-0.6023 -1.14272,-1.03246 -1.43388,-1.7197c-1.95545,-4.61549 -0.72804,-10.20263 0.84106,-14.59594c0,0 0.39259,-1.09807 -0.4878,-1.70314c0.19434,-0.01913 0.46907,0.01001 0.61249,0.06352c0.82008,0.30599 1.57555,0.76974 2.36456,1.14948c0.14052,0.43448 0.498,0.98876 1.40885,0.98876z" data-paper-data="{&quot;noHover&quot;:false,&quot;origItem&quot;:[&quot;Path&quot;,{&quot;applyMatrix&quot;:true,&quot;segments&quot;:[[[339.25749,197.51398],[0,0],[-0.91085,0]],[[337.84837,196.5264],[0.14052,0.43448],[-0.78901,-0.37974]],[[335.48354,195.37822],[0.82008,0.30599],[-0.14342,-0.05351]],[[334.96928,195.33345],[0.19434,-0.01913],[0.88039,0.60507]],[[335.45634,197.03986],[0,0],[-1.5691,4.39331]],[[334.60341,211.65728],[-1.95545,-4.61549],[0.29116,0.68724]],[[336.037,213.37729],[-0.4408,-0.6023],[1.0164,1.38881]],[[342.45788,217.63318],[-2.4798,1.74127],[3.75459,-2.6364]],[[345.34543,204.12297],[0.56554,3.92839],[-0.27489,-1.09783]],[[344.66572,200.79655],[0.4705,1.02928],[-0.81946,-1.79271]],[[341.71363,195.86047],[0.49445,2.11735],[-0.82464,-3.53125]],[[340.40786,185.16293],[0.87682,3.50794],[-0.78131,-3.12586]],[[337.06781,176.45925],[1.08098,2.93348],[-0.74866,-2.03165]],[[334.21713,169.36743],[1.37913,1.74402],[-1.10671,-1.39951]],[[328.38655,165.53996],[1.52878,1.03676],[-2.60777,-1.04445]],[[320.15618,164.33739],[2.86082,-0.78581],[-1.12247,0.30832]],[[317.15165,166.11721],[1.08458,-0.42269],[-2.107,0.82114]],[[310.37325,168.28391],[2.22176,-0.48183],[-4.89191,1.06092]],[[295.50279,170.37177],[4.85163,-0.96248],[-3.15685,0.62626]],[[285.49354,173.67625],[2.99012,-1.15038],[-4.38713,2.59663]],[[279.4937,183.03331],[-0.1732,-5.54914],[0.05149,1.64955]],[[281.8039,186.44104],[-2.08106,-0.05233],[4.70281,0.11825]],[[295.46187,184.08645],[-4.48826,-0.02915],[1.57356,0.01022]],[[301.32217,186.17193],[-0.63203,-2.67721],[0.30828,1.30583]],[[300.3216,190.07078],[0.46168,-1.2598],[-0.31438,0.85787]],[[299.01113,192.47818],[0.52952,-0.74456],[-0.11506,0.16179]],[[296.11436,195.38368],[0.14651,-0.14514],[-1.50619,2.33523]],[[291.51161,200.73274],[1.49758,-2.18493],[-0.18779,0.27397]],[[290.70283,201.31481],[0.00615,-0.3321],[-0.02263,1.22093]],[[293.88558,203.12885],[-1.11557,-0.49666],[2.84307,1.26574]],[[302.26661,203.58138],[-2.93221,1.6201],[1.79164,-0.98992]],[[306.94889,199.15335],[-1.05066,1.76263],[0.70634,-1.18499]],[[308.21769,195.21402],[-1.02316,0.92535],[1.44796,-1.30954]],[[314.19137,194.89024],[-1.50534,-0.11126],[2.93754,0.2171]],[[323.07941,195.03412],[-2.94383,-0.00222],[3.89416,0.02788]],[[334.03677,192.45256],[-3.72094,0.66581],[2.30383,-0.41224]],[[339.73182,194.06959],[-2.04183,-0.66959],[0,0]],[340.75748,196.01399],[[339.25748,197.51399],[1.5,0],[0,0]]],&quot;closed&quot;:true,&quot;fillColor&quot;:[0,0,0,1],&quot;strokeWidth&quot;:0.5}]}" fill="#fff4f8" stroke="none" stroke-width="0.25"/><path d="M290.94854,216.02646c0.15566,-0.42168 0.52216,-0.91808 1.38507,-0.91808c1.21775,0 1.44689,0.98862 1.49001,1.36066c4.90991,-0.09369 8.39985,3.2206 13.32635,4.12969c1.8874,0.34828 3.38782,-0.30046 5.13938,-0.92003c0.85863,-0.30372 1.75607,-1.23562 2.59013,-0.8698c1.22359,0.53667 1.71865,2.04771 2.52481,3.11322c4.83572,6.39149 -0.57605,13.54137 -4.95323,18.49464c-3.34773,-0.21405 -6.51324,-1.12706 -9.82462,-1.45938c-4.02726,-0.40417 -8.63654,0.43882 -12.44568,-1.41774c-0.88758,-0.4326 -1.89766,-0.92977 -2.34476,-1.81013c-0.69866,-1.37573 0.49487,-4.60877 0.66592,-6.03407c0.31114,-2.59264 -0.01782,-5.51631 -0.0145,-8.13397c0.00127,-1.00441 -0.10411,-3.07392 0.47895,-3.90745c0.4907,-0.7015 1.26741,-1.13556 1.98217,-1.62754zM291.77973,219.64716c-0.79122,1.58528 -0.29231,3.5365 -0.29231,5.82461c0,0.643 0.00313,4.48709 -0.0145,4.63975c-0.10271,0.88931 -1.15297,3.5045 -0.89821,4.39346c0.14489,0.50559 4.89948,1.17582 5.24579,1.22554c5.19203,0.74528 10.42379,0.16363 15.4989,1.90786c1.51134,-2.71934 4.06749,-5.58971 5.13105,-8.44655c0.70175,-1.88498 -0.73543,-4.07875 -1.54231,-5.60562c-0.31828,-0.60228 -0.27135,-1.45367 -0.80339,-1.87908c-0.25168,-0.20124 -0.34509,0.58766 -0.63451,0.72937c-1.00108,0.4902 -2.06338,0.87325 -3.14957,1.12358c-0.11074,0.02552 -3.47008,0.0327 -3.60633,0.00685c-4.96402,-0.94183 -9.10453,-5.17302 -14.31601,-3.93014c0,0 -0.27797,0.06177 -0.61859,0.01038z" fill="#000000" stroke="none" stroke-width="0.5"/><path d="M291.73978,219.61712c0.34062,0.05139 0.6194,-0.01143 0.6194,-0.01143c5.21148,-1.24288 9.41782,2.97712 14.38184,3.91895c0.13625,0.02585 3.50916,0.03129 3.6199,0.00577c1.08619,-0.25033 2.15082,-0.62993 3.1519,-1.12013c0.28942,-0.14171 0.38222,-0.93158 0.6339,-0.73034c0.53204,0.42541 0.48898,1.284 0.80726,1.88628c0.80688,1.52687 2.24816,3.74322 1.54641,5.6282c-1.06356,2.85684 -3.63729,5.76274 -5.14863,8.48208c-5.07511,-1.74423 -10.37587,-1.1667 -15.5679,-1.91198c-0.34631,-0.04972 -5.10968,-0.73308 -5.25457,-1.23867c-0.25476,-0.88896 0.79135,-3.51854 0.89406,-4.40785c0.01763,-0.15266 0.0156,-4.01548 0.0156,-4.65848c0,-2.28811 -0.49039,-4.25715 0.30083,-5.84243z" data-paper-data="{&quot;noHover&quot;:false,&quot;origItem&quot;:[&quot;Path&quot;,{&quot;applyMatrix&quot;:true,&quot;segments&quot;:[[[291.77973,219.64714],[0,0],[-0.79122,1.58528]],[[291.48742,225.47175],[0,-2.28811],[0,0.643]],[[291.47292,230.1115],[0.01763,-0.15266],[-0.10271,0.88931]],[[290.57471,234.50496],[-0.25476,-0.88896],[0.14489,0.50559]],[[295.8205,235.7305],[-0.34631,-0.04972],[5.19203,0.74528]],[[311.3194,237.63836],[-5.07511,-1.74423],[1.51134,-2.71934]],[[316.45045,229.19181],[-1.06356,2.85684],[0.70175,-1.88498]],[[314.90814,223.58619],[0.80688,1.52687],[-0.31828,-0.60228]],[[314.10475,221.70711],[0.53204,0.42541],[-0.25168,-0.20124]],[[313.47024,222.43648],[0.28942,-0.14171],[-1.00108,0.4902]],[[310.32067,223.56006],[1.08619,-0.25033],[-0.11074,0.02552]],[[306.71434,223.56691],[0.13625,0.02585],[-4.96402,-0.94183]],[[292.39833,219.63677],[5.21148,-1.24288],[0,0]],[[291.77974,219.64715],[0.34062,0.05139],[0,0]]],&quot;closed&quot;:true,&quot;fillColor&quot;:[0,0,0,1],&quot;strokeWidth&quot;:0.5}]}" fill="#fff4f8" stroke="none" stroke-width="0.25"/><path d="M305.95353,156.97594c0,-1.5 1.5,-1.5 1.5,-1.5l0.56841,0.07698c0.25703,-0.08276 0.51762,-0.15094 0.78117,-0.20698c0.25061,-1.27291 0.59003,-2.53243 0.75793,-3.8186c0.756,-5.7912 -0.76652,-14.20238 4.50943,-18.39776c1.61495,-1.2842 3.05225,-1.14847 5.00306,-1.72801c2.66302,-0.79111 5.73146,-1.804 8.23815,-3.00011c2.27337,-1.08478 5.16876,-3.50615 7.97148,-2.8917c1.04902,0.22998 1.92027,0.96225 2.8804,1.44338c0.25271,4.09162 -0.06519,7.42489 -1.99787,11.14549c-0.80145,1.54288 -2.10386,2.79973 -2.84035,4.37465c-2.81766,6.02526 -7.31095,11.6058 -13.52471,14.56685c-2.72466,1.29839 -5.72502,0.64574 -8.56876,0.89907c-0.23668,0.32312 -0.64345,0.60464 -1.3371,0.52757c-0.24109,-0.02679 -0.43886,-0.08823 -0.60102,-0.17242c-0.10811,0.03239 -0.21583,0.06721 -0.32312,0.10462l-1.51709,0.07698c0,0 -1.5,0 -1.5,-1.5zM311.76707,155.09801c2.34097,-0.00157 4.73247,0.22737 6.8013,-0.79313c5.56738,-2.74624 9.45331,-7.65828 12.02274,-13.0661c0.76407,-1.60812 2.07019,-2.91081 2.89479,-4.48875c1.30894,-2.50476 1.84554,-5.37265 2.17314,-8.14543c-2.703,-0.42431 -4.77992,1.42492 -7.05852,2.50589c-2.64082,1.25281 -5.86932,2.33363 -8.67247,3.1668c-0.6431,0.19115 -3.08234,0.46627 -3.97155,1.18528c-1.7381,1.40542 -2.19564,3.90218 -2.54406,5.92632c-0.77968,4.52948 -1.17819,9.14705 -1.64538,13.70912z" fill="#000000" stroke="none" stroke-width="0.5"/><path d="M311.7336,155.13517c0.46719,-4.56207 0.8492,-9.21894 1.62888,-13.74842c0.34842,-2.02414 0.81727,-4.55048 2.55537,-5.9559c0.88921,-0.71901 3.34469,-1.0071 3.98779,-1.19825c2.80315,-0.83317 6.07479,-1.91478 8.71561,-3.16759c2.2786,-1.08097 4.36829,-2.92181 7.07129,-2.4975c-0.3276,2.77278 -0.85335,5.65471 -2.16229,8.15947c-0.8246,1.57794 -2.12527,2.89941 -2.88934,4.50753c-2.56943,5.40782 -6.52424,10.37037 -12.09162,13.11661c-2.06883,1.0205 -4.47472,0.78249 -6.81569,0.78406z" data-paper-data="{&quot;noHover&quot;:false,&quot;origItem&quot;:[&quot;Path&quot;,{&quot;applyMatrix&quot;:true,&quot;segments&quot;:[[[311.76707,155.09799],[0,0],[2.34097,-0.00157]],[[318.56837,154.30486],[-2.06883,1.0205],[5.56738,-2.74624]],[[330.59111,141.23876],[-2.56943,5.40782],[0.76407,-1.60812]],[[333.4859,136.75001],[-0.8246,1.57794],[1.30894,-2.50476]],[[335.65904,128.60458],[-0.3276,2.77278],[-2.703,-0.42431]],[[328.60052,131.11047],[2.2786,-1.08097],[-2.64082,1.25281]],[[319.92805,134.27727],[2.80315,-0.83317],[-0.6431,0.19115]],[[315.9565,135.46255],[0.88921,-0.71901],[-1.7381,1.40542]],[[313.41244,141.38887],[0.34842,-2.02414],[-0.77968,4.52948]],[[311.76706,155.09799],[0.46719,-4.56207],[0,0]]],&quot;closed&quot;:true,&quot;fillColor&quot;:[0,0,0,1],&quot;strokeWidth&quot;:0.5}]}" fill="#fff4f8" stroke="none" stroke-width="0.25"/><path d="M283.36677,145.64841c0.37743,0.50324 0.38554,0.95372 0.2677,1.30719c3.56852,0.80829 7.01814,2.40395 9.32383,4.11712c0.8972,0.66664 2.00086,1.10518 2.72044,1.9605c0.35627,0.42348 0.00898,1.16322 0.30234,1.63248c1.09602,1.75323 3.83096,1.5186 1.17705,4.8069c-1.92443,2.38445 -7.90903,2.68981 -10.61926,3.42149c-2.39899,0.01604 -4.87923,-0.15599 -7.26818,0.00994c-3.42181,0.23767 -8.73427,2.29853 -11.64681,-0.62763c-2.32878,-2.33967 -1.88252,-2.98795 0.07115,-5.99606c0.06814,-0.10492 4.02463,-4.01442 4.28944,-4.27784c0.47219,-0.46972 0.93133,-0.93236 1.38711,-1.38109c-0.27281,-0.08206 -0.55165,-0.26915 -0.79493,-0.63406c-0.83205,-1.24808 0.41603,-2.08013 0.41603,-2.08013c1.72494,-1.08194 3.86892,-1.52101 6.14633,-1.50386c0.52253,-0.21383 1.07334,-0.39456 1.65959,-0.53717l0.46815,-0.51778c0,0 1.2,-0.9 2.1,0.3zM279.73029,149.3545c-2.97918,1.36613 -5.33513,4.4989 -7.63355,6.75986c-0.69185,0.68057 -2.71546,2.36431 -3.03686,3.57113c-0.27243,1.02294 4.31994,1.01438 4.40024,1.00783c4.28434,-0.34974 8.35503,-0.80817 12.67656,-0.77213c2.87262,-0.81009 5.91788,-1.09237 8.67167,-2.31365c0.62043,-0.27515 -1.05995,-0.88055 -1.42983,-1.44962c-0.27462,-0.42251 0.10108,-1.10661 -0.21904,-1.49578c-0.80106,-0.97384 -2.02088,-1.5261 -3.13389,-2.11879c-2.31399,-1.23222 -6.58405,-2.91691 -10.29531,-3.18885z" fill="#000000" stroke="none" stroke-width="0.5"/><path d="M279.71172,149.30807c3.71126,0.27194 8.04765,1.9883 10.36164,3.22052c1.11301,0.59269 2.33503,1.15809 3.13609,2.13193c0.32012,0.38917 -0.0558,1.07985 0.21882,1.50236c0.36988,0.56907 2.04952,1.1794 1.42909,1.45455c-2.75379,1.22128 -5.81578,1.53186 -8.6884,2.34195c-4.32153,-0.03604 -8.46616,0.41187 -12.7505,0.76161c-0.0803,0.00655 -4.67806,0.0044 -4.40563,-1.01854c0.3214,-1.20682 2.34235,-2.90204 3.0342,-3.58261c2.29842,-2.26096 4.68551,-5.44563 7.66469,-6.81176z" data-paper-data="{&quot;noHover&quot;:false,&quot;origItem&quot;:[&quot;Path&quot;,{&quot;applyMatrix&quot;:true,&quot;segments&quot;:[[[279.73029,149.35448],[0,0],[-2.97918,1.36613]],[[272.09674,156.11434],[2.29842,-2.26096],[-0.69185,0.68057]],[[269.05988,159.68547],[0.3214,-1.20682],[-0.27243,1.02294]],[[273.46012,160.6933],[-0.0803,0.00655],[4.28434,-0.34974]],[[286.13668,159.92117],[-4.32153,-0.03604],[2.87262,-0.81009]],[[294.80835,157.60752],[-2.75379,1.22128],[0.62043,-0.27515]],[[293.37852,156.1579],[0.36988,0.56907],[-0.27462,-0.42251]],[[293.15948,154.66212],[0.32012,0.38917],[-0.80106,-0.97384]],[[290.02559,152.54333],[1.11301,0.59269],[-2.31399,-1.23222]],[[279.73028,149.35448],[3.71126,0.27194],[0,0]]],&quot;closed&quot;:true,&quot;fillColor&quot;:[0,0,0,1],&quot;strokeWidth&quot;:0.5}]}" fill="#fff4f8" stroke="none" stroke-width="0.25"/></g></g></svg>