<svg version="1.1" xmlns="http://www.w3.org/2000/svg" xmlns:xlink="http://www.w3.org/1999/xlink" width="312.10191" height="265.67407" viewBox="0,0,312.10191,265.67407"><g transform="translate(-162.93711,-46.80021)"><g data-paper-data="{&quot;isPaintingLayer&quot;:true}" fill-rule="nonzero" stroke-linecap="butt" stroke-linejoin="miter" stroke-miterlimit="10" stroke-dasharray="" stroke-dashoffset="0" style="mix-blend-mode: normal"><path d="M162.93711,312.47429v-265.67406h312.10191v265.67406z" fill="none" stroke="#000000" stroke-width="0"/><path d="M266.53017,122.61268c3.1945,-2.78304 6.32341,-5.69475 9.88497,-7.89973c6.95857,-4.30808 16.55961,-7.77089 24.78187,-7.79019c3.30437,0 6.54117,-0.03679 9.76978,0.83232c6.34805,1.70883 11.93827,5.35431 17.78835,8.18653c4.11529,1.99235 8.6198,3.18232 12.70882,5.20281c4.3177,2.13349 8.35211,4.85352 12.54505,7.21433c5.99431,3.38564 12.27378,6.75048 18.10966,10.33624c1.96244,1.20579 5.58791,2.71986 6.73612,4.91439c0.5156,0.98545 0.46097,2.18163 0.82045,3.23412c2.70247,7.91224 5.64087,16.04495 6.59736,24.45017c0.11509,6.66144 -0.8362,13.03603 -1.46614,19.65483c-1.28884,13.5417 -2.72614,28.06894 -13.20128,37.87204c-10.52884,9.83159 -23.03618,13.98457 -37.18386,15.71336c-5.8145,0.71051 -11.9677,0.1653 -17.81593,0.16439c-1.01529,0.03769 -2.03063,0.07036 -3.04604,0.09864c-2.34662,0.84197 -4.79728,0.8504 -7.65327,1.43988c-4.84566,1.00014 -10.31524,2.10205 -13.96715,-1.27237c-1.51945,-0.00276 -3.03891,-0.0052 -4.55838,-0.0052c-9.88573,0 -19.98719,0.07326 -28.40666,-5.95008c-5.5503,-2.77515 -9.69163,-8.26962 -13.17199,-13.32141c-0.87619,-1.27181 -1.36567,-2.80506 -2.35862,-3.98796c-2.77147,-3.30164 -5.48925,-5.80559 -6.77,-10.13642c-2.19929,-7.43681 -1.40913,-15.83219 -2.39973,-23.48607c-0.01517,-7.94523 1.70923,-14.93793 3.41585,-22.63057c1.14895,-5.17889 0.81061,-10.87138 2.66388,-15.8343c2.10026,-5.62431 5.20315,-9.05393 9.39054,-13.22775c3.96838,-5.47261 9.35675,-10.75347 15.2554,-14.1444zM256.79909,132.60826c-1.74719,1.83252 -3.35127,3.7738 -4.77453,5.72533c-1.76102,1.7663 -3.84539,3.49319 -5.43252,5.42313c-5.06694,6.16136 -4.35222,15.03217 -5.975,22.34486c-1.64445,7.41036 -3.36007,14.12358 -3.34998,21.77888c0.9751,7.41459 0.14622,15.62469 2.2806,22.82398c1.18158,3.98549 3.73718,6.10204 6.26441,9.15451c4.82424,5.82688 7.56826,13.00962 14.70922,16.5801c7.99039,5.69867 17.48972,5.5202 26.85924,5.5202c0.80114,0 1.60227,0.00067 2.40341,0.0017c-0.91488,-1.99117 -1.02572,-4.63418 -1.03583,-6.71546c-0.02517,-5.17688 0.26073,-10.33111 0.26069,-15.50886c0.06268,-0.76376 -0.26623,-1.67411 0.18804,-2.29128c2.28115,-3.09916 5.11461,-2.29451 7.79131,-0.8359l1.09852,1.02377c0,0 0.31831,0.31831 0.4318,0.78056c5.08333,-0.43316 10.5072,0.30629 15.11352,1.71468c1.95069,0.59642 5.33234,0.83268 6.68569,2.5357c2.89874,3.64767 0.89881,9.07721 0.07922,12.99834c-0.17566,0.84039 -0.61559,3.72369 -1.22147,4.64446c-0.33599,0.51062 -0.74874,0.9622 -1.17624,1.40244c5.30388,0.07387 10.8292,0.49153 16.05665,-0.15313c13.51828,-1.6671 25.43962,-5.52213 35.50126,-14.92784c9.88855,-9.22238 11.0511,-23.2412 12.26404,-35.97646c0.61445,-6.45136 1.56237,-12.67365 1.45776,-19.16388c-0.34172,-3.02121 -1.11587,-5.52999 -1.93109,-8.4383c-1.66858,-5.95272 -2.47758,-12.23803 -5.04529,-17.8637c-0.74905,-1.64112 -4.37037,-3.08443 -5.77691,-3.949c-5.78623,-3.5567 -12.03448,-6.92257 -17.9886,-10.26428c-4.13122,-2.32658 -8.10664,-5.00939 -12.35773,-7.11736c-4.09141,-2.0288 -8.60962,-3.21814 -12.73141,-5.21363c-8.87505,-4.2967 -16.11602,-8.71904 -26.25087,-8.71904c-10.8822,-0.0288 -21.53758,5.84973 -29.86901,12.33204c-4.63764,3.60834 -8.40895,7.79845 -13.83878,10.21855c0,0 -0.30444,0.13531 -0.69013,0.13491zM294.97208,218.92709c-1.24128,-0.61194 -3.44063,-1.31518 -2.96329,0.80954c0,0.0231 -0.00002,0.04622 -0.00006,0.06935c0.20246,-0.13246 0.37191,-0.18894 0.37191,-0.18894c0.8386,-0.2751 1.70476,-0.50406 2.59143,-0.68996zM291.94797,222.27779c-0.24925,5.77467 -1.10467,12.07653 0.52169,17.37076c0.231,0.75196 0.58606,1.56901 1.06547,2.31867c6.544,0.01136 13.08735,0.01426 19.62855,-0.16092c0.55279,-0.2793 1.10052,-0.64017 1.65565,-1.11488c2.14475,-2.30632 2.00258,-2.57658 2.64054,-5.64034c0.57365,-2.75487 2.59814,-7.75833 0.59145,-10.42132c-0.81073,-1.07589 -4.04426,-1.2445 -5.30596,-1.63531c-5.87732,-1.82052 -13.55504,-2.52085 -19.41602,-0.53135c0,0 -0.78334,0.26111 -1.38136,-0.18531z" fill="#000000" stroke="none" stroke-width="0.5"/><path d="M256.76023,132.5768c0.38569,0.0004 0.69038,-0.13522 0.69038,-0.13522c5.42983,-2.4201 9.21038,-6.6189 13.84802,-10.22724c8.33143,-6.48231 19.00936,-12.3699 29.89156,-12.3411c10.13485,0 17.39699,4.42398 26.27204,8.72068c4.12179,1.99549 8.65054,3.18936 12.74195,5.21816c4.25109,2.10797 8.23586,4.79771 12.36708,7.12429c5.95412,3.34171 12.21146,6.71906 17.99769,10.27576c1.40654,0.86457 5.02986,2.31172 5.77891,3.95284c2.56771,5.62567 3.38058,11.92317 5.04916,17.87589c0.81522,2.90831 1.59008,5.42297 1.9318,8.44418c0.10461,6.49023 -0.84424,12.72563 -1.45869,19.17699c-1.21294,12.73526 -2.38646,26.7765 -12.27501,35.99888c-10.06164,9.40571 -22.00395,13.27525 -35.52223,14.94235c-5.22745,0.64466 -10.76398,0.22965 -16.06786,0.15578c0.4275,-0.44024 0.82757,-0.99101 1.16356,-1.50163c0.60588,-0.92077 1.0443,-3.80384 1.21996,-4.64423c0.81959,-3.92113 2.83838,-9.25249 -0.06036,-12.90016c-1.35335,-1.70302 -4.74172,-1.93831 -6.69241,-2.53473c-4.60632,-1.40839 -10.04732,-2.14951 -15.13065,-1.71635c-0.11349,-0.46225 -0.43249,-0.78076 -0.43249,-0.78076l-1.10002,-1.02423c-2.6767,-1.45861 -5.51727,-2.26621 -7.79842,0.83295c-0.45427,0.61717 -0.08088,1.43796 -0.14356,2.20172c0.00004,5.17775 -0.29064,10.32996 -0.26547,15.50684c0.01011,2.08128 0.11871,4.72354 1.03359,6.71471c-0.80114,-0.00103 -1.63348,0.09329 -2.43462,0.09329c-9.36952,0 -18.88423,0.16985 -26.87462,-5.52882c-7.14096,-3.57048 -9.89454,-10.76369 -14.71878,-16.59057c-2.52723,-3.05247 -5.08638,-5.17512 -6.26796,-9.16061c-2.13438,-7.19929 -1.30997,-15.42338 -2.28507,-22.83797c-0.01009,-7.6553 1.70537,-14.38358 3.34982,-21.79394c1.62278,-7.31269 0.91294,-16.19906 5.97988,-22.36042c1.58713,-1.92994 3.67412,-3.6614 5.43514,-5.4277c1.42326,-1.95153 3.0305,-3.89717 4.77769,-5.72969z" data-paper-data="{&quot;noHover&quot;:false,&quot;origItem&quot;:[&quot;Path&quot;,{&quot;applyMatrix&quot;:true,&quot;segments&quot;:[[[256.79909,132.60826],[0,0],[-1.74719,1.83252]],[[252.02456,138.33359],[1.42326,-1.95153],[-1.76102,1.7663]],[[246.59204,143.75671],[1.58713,-1.92994],[-5.06694,6.16136]],[[240.61704,166.10158],[1.62278,-7.31269],[-1.64445,7.41036]],[[237.26706,187.88046],[-0.01009,-7.6553],[0.9751,7.41459]],[[239.54766,210.70444],[-2.13438,-7.19929],[1.18158,3.98549]],[[245.81207,219.85895],[-2.52723,-3.05247],[4.82424,5.82688]],[[260.52129,236.43905],[-7.14096,-3.57048],[7.99039,5.69867]],[[287.38053,241.95925],[-9.36952,0],[0.80114,0]],[[289.78394,241.96094],[-0.80114,-0.00103],[-0.91488,-1.99117]],[[288.74811,235.24548],[0.01011,2.08128],[-0.02517,-5.17688]],[[289.0088,219.73662],[0.00004,5.17775],[0.06268,-0.76376]],[[289.19684,217.44534],[-0.45427,0.61717],[2.28115,-3.09916]],[[296.98815,216.60944],[-2.6767,-1.45861],[0,0]],[298.08667,217.63321],[[298.51847,218.41378],[-0.11349,-0.46225],[5.08333,-0.43316]],[[313.63199,220.12845],[-4.60632,-1.40839],[1.95069,0.59642]],[[320.31768,222.66415],[-1.35335,-1.70302],[2.89874,3.64767]],[[320.3969,235.66249],[0.81959,-3.92113],[-0.17566,0.84039]],[[319.17543,240.30696],[0.60588,-0.92077],[-0.33599,0.51062]],[[317.99919,241.7094],[0.4275,-0.44024],[5.30388,0.07387]],[[334.05584,241.55627],[-5.22745,0.64466],[13.51828,-1.6671]],[[369.5571,226.62843],[-10.06164,9.40571],[9.88855,-9.22238]],[[381.82114,190.65197],[-1.21294,12.73526],[0.61445,-6.45136]],[[383.2789,171.48809],[0.10461,6.49023],[-0.34172,-3.02121]],[[381.34781,163.04978],[0.81522,2.90831],[-1.66858,-5.95272]],[[376.30252,145.18609],[2.56771,5.62567],[-0.74905,-1.64112]],[[370.52561,141.23708],[1.40654,0.86457],[-5.78623,-3.5567]],[[352.53701,130.9728],[5.95412,3.34171],[-4.13122,-2.32658]],[[340.17928,123.85544],[4.25109,2.10797],[-4.09141,-2.0288]],[[327.44787,118.64181],[4.12179,1.99549],[-8.87505,-4.2967]],[[301.197,109.92277],[10.13485,0],[-10.8822,-0.0288]],[[271.32799,122.25481],[8.33143,-6.48231],[-4.63764,3.60834]],[[257.48921,132.47336],[5.42983,-2.4201],[0,0]],[[256.79908,132.60827],[0.38569,0.0004],[0,0]]],&quot;closed&quot;:true,&quot;fillColor&quot;:[0,0,0,1]}]}" fill="#fdaa9c" stroke="none" stroke-width="0.5"/><path d="M291.9071,222.249c0.59802,0.44642 1.38263,0.18358 1.38263,0.18358c5.86098,-1.9895 13.61121,-1.2963 19.48853,0.52422c1.2617,0.39081 4.50625,0.57317 5.31698,1.64906c2.00669,2.66299 -0.01357,7.70384 -0.58722,10.45871c-0.63796,3.06376 -0.50758,3.35485 -2.65233,5.66117c-0.55513,0.47471 -1.10845,0.84067 -1.66124,1.11997c-6.5412,0.17518 -13.15273,0.16604 -19.69673,0.15468c-0.47941,-0.74966 -0.83935,-1.57322 -1.07035,-2.32518c-1.62636,-5.29423 -0.76952,-11.65154 -0.52027,-17.42621z" data-paper-data="{&quot;noHover&quot;:false,&quot;origItem&quot;:[&quot;Path&quot;,{&quot;applyMatrix&quot;:true,&quot;segments&quot;:[[[291.94797,222.27777],[0,0],[-0.24925,5.77467]],[[292.46966,239.64853],[-1.62636,-5.29423],[0.231,0.75196]],[[293.53513,241.9672],[-0.47941,-0.74966],[6.544,0.01136]],[[313.16368,241.80628],[-6.5412,0.17518],[0.55279,-0.2793]],[[314.81933,240.6914],[-0.55513,0.47471],[2.14475,-2.30632]],[[317.45987,235.05106],[-0.63796,3.06376],[0.57365,-2.75487]],[[318.05132,224.62974],[2.00669,2.66299],[-0.81073,-1.07589]],[[312.74536,222.99443],[1.2617,0.39081],[-5.87732,-1.82052]],[[293.32934,222.46308],[5.86098,-1.9895],[0,0]],[[291.94798,222.27777],[0.59802,0.44642],[0,0]]],&quot;closed&quot;:true,&quot;fillColor&quot;:[0,0,0,1],&quot;strokeWidth&quot;:0.5}]}" fill="#fff4f8" stroke="none" stroke-width="0.25"/><path d="M278.81603,142.03244c0.16643,0.33287 0.20899,0.62444 0.17889,0.87472c3.62711,0.49162 7.17102,1.45668 10.27143,2.84546c0.71679,0.32108 1.69068,0.19711 2.22637,0.7715c1.55297,1.66515 2.41744,6.16106 0.29594,7.96794c-0.74771,0.63682 -1.85142,0.67041 -2.80842,0.89125c-3.68878,0.85123 -7.70003,0.68407 -11.47109,1.04292c-3.67377,1.14099 -6.96698,2.73841 -10.65186,3.64186c-0.84116,0.20623 -4.44961,1.81994 -5.52982,1.13009c-0.83727,-0.53471 -0.87039,-1.79056 -1.20402,-2.72631c-0.95604,-2.68147 -1.74517,-8.0302 0.97231,-10.11051c1.40475,-1.07537 3.41817,-0.98669 5.00114,-1.77659c0.31788,-0.15862 0.63251,-0.38118 0.94406,-0.63846c-0.39563,-0.12237 -0.81704,-0.42675 -0.94853,-1.14991c-0.26833,-1.4758 1.20748,-1.74413 1.20748,-1.74413c2.39814,-0.42572 4.95216,-0.58583 7.5334,-0.49809c0.26733,-0.20139 0.527,-0.41772 0.80333,-0.60155l1.16693,-0.59102c0,0 1.34164,-0.67082 2.01246,0.67082zM275.33727,145.71697c-0.18623,0.09791 -0.37787,0.18416 -0.57762,0.25299c-0.99397,0.34248 -2.21177,-0.55891 -3.15269,-0.08992c-1.26103,0.62855 -2.65256,2.63406 -4.13153,3.36925c-0.56156,0.27915 -3.91672,1.05293 -4.38364,1.35167c-1.94476,1.24431 -0.24394,5.6038 -0.07045,7.09491c0.03611,0.31034 -0.32624,0.65799 -0.16127,0.92333c0.11612,0.18677 0.21683,-0.42148 0.41791,-0.51055c0.93612,-0.41471 1.92128,-0.72233 2.91568,-0.96624c3.6834,-0.90348 7.02404,-2.52835 10.72457,-3.65741c0.48824,-0.0494 5.42745,-0.55206 5.7162,-0.56844c1.69807,-0.09631 5.60007,0.38225 7.11587,-0.62566c0.61128,-0.40646 0.23932,-3.10205 -0.22543,-3.50235c-0.65688,-0.56578 -3.47829,-1.58951 -4.47012,-1.73709c-3.16518,-0.47094 -6.44171,-1.08302 -9.71749,-1.3345z" fill="#000000" stroke="none" stroke-width="0.5"/><path d="M275.33126,145.66732c3.27578,0.25148 6.60166,0.88829 9.76684,1.35923c0.99183,0.14758 3.81835,1.18394 4.47523,1.74972c0.46475,0.4003 0.83824,3.10856 0.22696,3.51502c-1.5158,1.00791 -5.41811,0.53454 -7.11618,0.63085c-0.28875,0.01638 -5.25145,0.55605 -5.73969,0.60545c-3.70053,1.12906 -7.1121,2.73369 -10.7955,3.63717c-0.9944,0.24391 -1.88942,0.50825 -2.82554,0.92296c-0.20108,0.08907 -0.39218,0.74009 -0.5083,0.55332c-0.16497,-0.26534 0.19628,-0.61543 0.16017,-0.92577c-0.17349,-1.49111 -1.87786,-5.87603 0.0669,-7.12034c0.46692,-0.29874 3.82437,-1.08257 4.38593,-1.36172c1.47897,-0.73519 2.88875,-2.76528 4.14978,-3.39383c0.94092,-0.46899 2.17713,0.42422 3.1711,0.08174c0.19975,-0.06883 0.39607,-0.15587 0.5823,-0.25378z" data-paper-data="{&quot;noHover&quot;:false,&quot;origItem&quot;:[&quot;Path&quot;,{&quot;applyMatrix&quot;:true,&quot;segments&quot;:[[[275.33727,145.71695],[0,0],[-0.18623,0.09791]],[[274.75965,145.96994],[0.19975,-0.06883],[-0.99397,0.34248]],[[271.60696,145.88002],[0.94092,-0.46899],[-1.26103,0.62855]],[[267.47543,149.24927],[1.47897,-0.73519],[-0.56156,0.27915]],[[263.09179,150.60094],[0.46692,-0.29874],[-1.94476,1.24431]],[[263.02134,157.69585],[-0.17349,-1.49111],[0.03611,0.31034]],[[262.86007,158.61918],[-0.16497,-0.26534],[0.11612,0.18677]],[[263.27798,158.10863],[-0.20108,0.08907],[0.93612,-0.41471]],[[266.19366,157.14239],[-0.9944,0.24391],[3.6834,-0.90348]],[[276.91823,153.48498],[-3.70053,1.12906],[0.48824,-0.0494]],[[282.63443,152.91654],[-0.28875,0.01638],[1.69807,-0.09631]],[[289.7503,152.29088],[-1.5158,1.00791],[0.61128,-0.40646]],[[289.52487,148.78853],[0.46475,0.4003],[-0.65688,-0.56578]],[[285.05475,147.05144],[0.99183,0.14758],[-3.16518,-0.47094]],[[275.33726,145.71694],[3.27578,0.25148],[0,0]]],&quot;closed&quot;:true,&quot;fillColor&quot;:[0,0,0,1],&quot;strokeWidth&quot;:0.5}]}" fill="#fff4f8" stroke="none" stroke-width="0.25"/><path d="M304.12871,142.70326c0,-0.73398 0.35915,-1.10881 0.72597,-1.30022c0.17431,-0.34719 0.34211,-0.66638 0.47514,-0.93473l2.12371,-0.82918c0,0 0.35344,0 0.71719,0.17156c0.94418,-0.49165 1.89307,-0.95231 2.89138,-1.32046c1.72609,-1.54762 3.39583,-3.89173 4.72453,-5.19856c4.19906,-4.12994 8.63397,-7.46573 14.64593,-8.42286c3.79148,-0.60362 8.42434,-0.25774 10.98539,2.7569c0.54588,0.64256 1.46685,1.10194 1.63779,1.92756c0.47375,2.28816 -1.6215,4.13053 -2.78327,5.60076c-6.80533,5.55091 -14.36006,12.19377 -23.50089,13.20765c-1.07849,0.11962 -2.16627,-0.13395 -3.25056,-0.17584c-2.80266,-0.10829 -8.98675,0.47866 -9.64012,-3.46173c-0.08245,-0.49725 0.04811,-1.10612 0.26885,-1.72733c-0.01368,-0.09083 -0.02103,-0.18849 -0.02103,-0.29351zM315.18964,139.06772c0.2466,1.47959 -1.23299,1.72619 -1.23299,1.72619c-0.71957,0.11427 -1.40321,0.30862 -2.06443,0.55525c-0.73749,0.65101 -1.54683,1.19704 -2.46248,1.49295c0,0 -0.31994,0.09141 -0.70149,0.03744c-0.55981,0.30826 -1.11956,0.62154 -1.68901,0.91975c-0.08766,0.21063 -0.1544,0.39663 -0.18407,0.53275c-0.08195,0.37595 0.73832,0.22786 1.11915,0.28288c2.63838,0.38116 5.72576,1.07243 8.40936,0.77194c8.45988,-0.94728 15.43217,-7.24576 21.76033,-12.34697c0.71351,-0.87712 2.42186,-1.68201 2.00766,-2.73409c-1.53412,-3.89669 -9.15119,-2.56821 -11.94766,-1.71523c-0.88096,0.26871 -1.78626,0.48177 -2.62532,0.86162c-4.01383,1.8171 -7.72278,5.42258 -10.77257,8.78835c0.17795,0.18548 0.32073,0.45034 0.38354,0.82717z" fill="#000000" stroke="none" stroke-width="0.5"/><path d="M315.14177,139.0821c-0.06281,-0.37683 -0.2068,-0.64663 -0.38475,-0.83211c3.04979,-3.36577 6.82167,-7.02874 10.8355,-8.84584c0.83906,-0.37985 1.75581,-0.588 2.63677,-0.85671c2.79647,-0.85298 10.43505,-2.15594 11.96917,1.74075c0.4142,1.05208 -1.29234,1.86287 -2.00585,2.73999c-6.32816,5.10121 -13.38053,11.45026 -21.84041,12.39754c-2.6836,0.30049 -5.78391,-0.40665 -8.42229,-0.78781c-0.38083,-0.05502 -1.20202,0.0912 -1.12007,-0.28475c0.02967,-0.13612 0.09595,-0.32314 0.18361,-0.53377c0.56945,-0.29821 1.22097,-0.6512 1.78078,-0.95946c0.38155,0.05397 0.70118,-0.03816 0.70118,-0.03816c0.91565,-0.29591 1.63307,-0.80258 2.37056,-1.45359c0.66122,-0.24663 1.43684,-0.48021 2.15641,-0.59448c0,0 1.38597,-0.21201 1.13937,-1.6916z" data-paper-data="{&quot;noHover&quot;:false,&quot;origItem&quot;:[&quot;Path&quot;,{&quot;applyMatrix&quot;:true,&quot;segments&quot;:[[[315.18964,139.0677],[0,0],[0.2466,1.47959]],[[313.95665,140.79389],[0,0],[-0.71957,0.11427]],[[311.89222,141.34914],[0.66122,-0.24663],[-0.73749,0.65101]],[[309.42974,142.84209],[0.91565,-0.29591],[0,0]],[[308.72825,142.87953],[0.38155,0.05397],[-0.55981,0.30826]],[[307.03924,143.79928],[0.56945,-0.29821],[-0.08766,0.21063]],[[306.85517,144.33203],[0.02967,-0.13612],[-0.08195,0.37595]],[[307.97432,144.61491],[-0.38083,-0.05502],[2.63838,0.38116]],[[316.38368,145.38685],[-2.6836,0.30049],[8.45988,-0.94728]],[[338.14401,133.03988],[-6.32816,5.10121],[0.71351,-0.87712]],[[340.15167,130.30579],[0.4142,1.05208],[-1.53412,-3.89669]],[[328.20401,128.59056],[2.79647,-0.85298],[-0.88096,0.26871]],[[325.57869,129.45218],[0.83906,-0.37985],[-4.01383,1.8171]],[[314.80612,138.24053],[3.04979,-3.36577],[0.17795,0.18548]],[[315.18966,139.0677],[-0.06281,-0.37683],[0,0]]],&quot;closed&quot;:true,&quot;fillColor&quot;:[0,0,0,1],&quot;strokeWidth&quot;:0.5}]}" fill="#fff4f8" stroke="none" stroke-width="0.25"/><path d="M299.91077,165.76385c-0.77174,-1.28624 0.5145,-2.05798 0.5145,-2.05798l0.7428,-0.44562c-0.31504,-0.1096 -0.68077,-0.33512 -0.85193,-0.79923c-1.30581,0.09012 -2.61495,-0.07003 -4.16315,0.11113c-4.496,0.5261 -9.72585,1.34861 -13.605,3.78363c-3.4031,2.1362 -4.31498,9.05893 -0.653,11.1661c2.86754,1.65003 6.5787,1.07179 9.7405,1.13027c0.61104,0.2947 4.0364,1.74807 4.40613,2.65582c1.1249,2.76185 -1.6891,4.51103 -3.12996,6.081c-3.00068,3.26956 -5.74617,6.62455 -8.53563,10.08943c-0.62577,0.77729 -2.06642,0.90272 -2.34494,1.86094c-0.167,0.57455 0.52155,1.30365 0.16892,1.78703c-0.62281,0.85374 -1.79428,1.11696 -2.69299,1.67292c-2.33491,1.44443 -4.65824,2.92703 -6.85838,4.57445c-0.45844,0.34327 -1.42172,1.14425 -1.98088,1.5251c5.66053,-0.1199 11.32286,-0.26666 16.93299,-0.79504c4.7003,-0.44269 9.30201,0.09765 13.90454,-1.52134c1.81839,-0.63964 7.20588,-2.7095 7.93037,-4.83235c0.64133,-1.8792 -1.3471,-2.59479 0.10153,-4.65033c1.54887,-2.19778 3.36421,-2.21161 5.52938,-2.58483c7.53461,1.82506 18.93039,-0.90947 24.122,6.38214c0.98772,1.38725 3.35531,2.34793 3.13203,4.03618c-0.35286,2.66806 -6.34908,4.03791 -8.26814,4.88749c-0.81989,0.36297 -1.59486,0.8529 -2.46021,1.0877c-0.32801,0.089 -1.28587,-0.34356 -1.00904,-0.14639c1.104,0.78631 2.27088,1.48586 3.34091,2.31781c1.75803,1.36688 2.05053,1.29468 3.90047,1.81991c5.58875,1.57246 10.13253,-8.41867 9.75725,-12.99033c-0.3277,-3.99204 -2.05656,-9.89461 -4.74194,-12.96789c-1.71505,-1.96278 -4.61937,-2.37634 -6.98539,-2.86196c-3.36035,-0.6897 -5.96255,-1.55429 -9.47383,-1.60356c-1.01676,-0.23459 -2.35092,0.07065 -3.05028,-0.70377c-0.78402,-0.86817 -0.67187,-2.27081 -0.69223,-3.44043c-0.1007,-5.78486 5.18607,-8.88935 7.18655,-13.72211c0.38699,-0.9349 0.91187,-3.81809 -0.0098,-4.76947c-1.18622,-1.22446 -3.61262,0.36045 -4.01516,-2.52695c-0.13259,-0.95105 3.54745,-4.94831 4.34946,-5.81823c2.58634,-2.80535 5.67221,-6.91939 9.15658,-9.37928c-2.4521,0.70793 -4.57379,1.96185 -6.95588,2.95687c-6.1822,2.58236 -13.22254,3.93916 -18.83942,7.68974c-1.83264,1.22372 -2.98591,2.01344 -4.4749,3.46971c-0.29629,0.28978 -0.89539,0.19933 -1.11448,0.55112c-0.56468,0.90672 -0.7952,4.44448 -0.97103,5.4447c-1.2828,0.22284 -2.58066,0.59744 -3.69159,1.27647l-1.28972,0.77393c0,0 -1.28624,0.77174 -2.05798,-0.5145zM304.94376,159.46551c0.90851,-3.81215 3.66516,-5.04415 6.88036,-7.18427c6.65727,-4.43124 14.91343,-5.67047 22.06466,-9.10247c2.37961,-1.14202 4.24016,-1.90718 6.78145,-2.56952c0.78726,-0.20518 1.58982,-0.79503 2.37249,-0.57295c1.08687,0.30839 1.81506,1.34577 2.72258,2.01866c-4.30227,4.66299 -9.10036,8.79853 -13.41045,13.47359c-0.67167,0.72855 -1.22709,1.57178 -1.97481,2.22204c-0.47581,0.41379 -1.59804,0.30006 -1.64809,0.92864c-0.0416,0.52238 1.07598,-0.14068 1.57185,0.02883c0.64086,0.21908 1.27174,0.57941 1.71226,1.09385c1.74616,2.03921 1.51127,5.56187 0.60457,7.89536c-1.50399,3.87069 -5.31146,6.2813 -6.57031,10.20092c-0.50644,1.5769 -1.42342,3.90392 0.53659,3.58494c5.27323,0.06568 14.68772,1.24891 18.473,5.44063c3.14423,3.48184 5.14938,10.13857 5.51229,14.7456c0.54661,6.93904 -5.66609,17.92806 -13.5314,16.12621c-2.80666,-0.83528 -4.9103,-2.06209 -6.88941,-4.26286c-0.88995,-0.98962 -2.57518,-1.73896 -2.55326,-3.0697c0.03093,-1.87751 6.71121,-4.08351 8.02234,-4.61738c0.87928,-0.35803 1.75603,-0.73554 2.67105,-0.98865c0.33147,-0.09169 1.18695,0.27116 1.03115,-0.03545c-0.17917,-0.3526 -0.86367,0.02951 -1.16459,-0.22716c-0.98239,-0.83793 -1.15187,-2.40713 -2.15727,-3.21732c-0.86111,-0.69391 -2.11765,-0.66315 -3.11645,-1.13794c-5.8029,-2.75852 -11.87894,-1.16298 -17.92394,-2.72607c-0.85791,0.1576 -2.28051,0.32388 -2.81265,1.0648c-0.81947,1.14098 0.61669,2.90618 0.10153,4.21307c-1.25667,3.18798 -6.85793,5.60369 -9.79643,6.63793c-4.82409,1.69788 -9.66187,1.18871 -14.58795,1.66328c-6.06313,0.58411 -12.23548,0.80013 -18.3509,0.70529c-0.79169,-0.64643 -2.29381,-0.92045 -2.37506,-1.93929c-0.25757,-3.22953 6.13572,-6.66133 8.26209,-8.05224c0.86705,-0.56716 1.71893,-1.16888 2.64758,-1.62827c0.45848,-0.2268 1.20175,0.0179 1.47802,-0.41259c0.24967,-0.38903 -0.53048,-0.91463 -0.35246,-1.34123c0.51745,-1.23996 2.03364,-1.77896 2.86883,-2.83144c1.32484,-1.66953 2.21188,-3.60255 3.69407,-5.26622c2.03622,-2.28554 4.41659,-4.07705 6.52355,-6.26362c0.42387,-0.43989 1.43025,-1.01296 1.05736,-1.49682c-0.52325,-0.67896 -1.61298,-0.59504 -2.37177,-0.99381c-3.56406,0.09662 -7.38118,0.41393 -10.59318,-1.47661c-5.027,-2.95883 -4.51675,-9.92035 -1.48373,-14.16221c3.1502,-4.40573 9.11422,-4.6802 13.89274,-5.64681c2.45743,-0.49709 6.79012,-1.604 9.27766,-0.76111c0.07367,0.02496 0.14664,0.05143 0.21896,0.07929l0.00908,-0.03066l2.46802,0.73083c0.06502,-0.28734 0.14421,-0.57151 0.20799,-0.8391z" fill="#000000" stroke="none" stroke-width="0.5"/><path d="M299.88305,165.72226c0.77174,1.28624 2.06203,0.51207 2.06203,0.51207l1.29417,-0.77605c1.11093,-0.67903 2.421,-1.05699 3.7038,-1.27983c0.17583,-1.00022 0.41048,-4.53839 0.97516,-5.44511c0.21909,-0.35179 0.82087,-0.26142 1.11716,-0.5512c1.48899,-1.45627 2.65117,-2.24523 4.48381,-3.46895c5.61688,-3.75058 12.67759,-5.09883 18.85979,-7.68119c2.38209,-0.99502 4.50712,-2.24633 6.95922,-2.95426c-3.48437,2.45989 -6.63399,6.65096 -9.22033,9.45631c-0.80201,0.86992 -4.41895,4.78961 -4.28636,5.74066c0.40254,2.8874 2.83513,1.30855 4.02135,2.53301c0.92167,0.95138 0.4012,3.84056 0.01421,4.77546c-2.00048,4.83276 -7.27968,7.96656 -7.17898,13.75142c0.02036,1.16962 -0.09375,2.58365 0.69027,3.45182c0.69936,0.77442 1.93745,0.44142 2.95421,0.67601c3.51128,0.04927 6.113,0.91569 9.47335,1.60539c2.36602,0.48562 5.36711,0.92435 7.08216,2.88713c2.68538,3.07328 4.4093,8.98759 4.737,12.97963c0.37528,4.57166 -4.18021,14.57649 -9.76896,13.00403c-1.84994,-0.52523 -2.14422,-0.45165 -3.90225,-1.81853c-1.07003,-0.83195 -2.23832,-1.5305 -3.34232,-2.31681c-0.27683,-0.19717 0.62355,0.15357 0.95156,0.06457c0.86535,-0.2348 1.63765,-0.72268 2.45754,-1.08565c1.91906,-0.84958 7.90734,-2.21119 8.2602,-4.87925c0.22328,-1.68825 -2.06378,-2.58967 -3.0515,-3.97692c-5.19161,-7.29161 -16.60971,-4.53953 -24.14432,-6.36459c-2.16517,0.37322 -3.99783,0.39057 -5.5467,2.58835c-1.44863,2.05554 0.53933,2.77114 -0.102,4.65034c-0.72449,2.12285 -6.12626,4.19083 -7.94465,4.83047c-4.60253,1.61899 -9.22077,1.07043 -13.92107,1.51312c-5.61013,0.52838 -11.2821,0.66554 -16.94263,0.78544c0.55916,-0.38085 1.60199,-1.24242 2.06043,-1.58569c2.20014,-1.64742 4.52305,-3.13056 6.85796,-4.57499c0.89871,-0.55596 1.99177,-0.75712 2.61458,-1.61086c0.35263,-0.48338 -0.33728,-1.21426 -0.17028,-1.78881c0.27852,-0.95822 1.71905,-1.08381 2.34482,-1.8611c2.78946,-3.46488 5.53041,-6.82749 8.53109,-10.09705c1.44086,-1.56997 4.25035,-3.33431 3.12545,-6.09616c-0.36973,-0.90775 -3.79544,-2.3703 -4.40648,-2.665c-3.1618,-0.05848 -6.87289,0.51865 -9.74043,-1.13138c-3.66198,-2.10717 -2.745,-9.04839 0.6581,-11.18459c3.87915,-2.43502 9.12344,-3.275 13.61944,-3.8011c1.5482,-0.18116 2.86478,-0.02571 4.17059,-0.11583c0.17116,0.46411 0.5817,0.77902 0.89674,0.88862l-0.74068,0.44452c0,0 -1.28253,0.76949 -0.51079,2.05573z" data-paper-data="{&quot;noHover&quot;:false,&quot;origItem&quot;:[&quot;Path&quot;,{&quot;applyMatrix&quot;:true,&quot;segments&quot;:[[[299.91077,165.76383],[0,0],[-0.77174,-1.28624]],[300.42527,163.70585],[[301.16807,163.26023],[0,0],[-0.31504,-0.1096]],[[300.31614,162.461],[0.17116,0.46411],[-1.30581,0.09012]],[[296.15299,162.57213],[1.5482,-0.18116],[-4.496,0.5261]],[[282.54799,166.35576],[3.87915,-2.43502],[-3.4031,2.1362]],[[281.89499,177.52186],[-3.66198,-2.10717],[2.86754,1.65003]],[[291.63549,178.65213],[-3.1618,-0.05848],[0.61104,0.2947]],[[296.04162,181.30795],[-0.36973,-0.90775],[1.1249,2.76185]],[[292.91166,187.38895],[1.44086,-1.56997],[-3.00068,3.26956]],[[284.37603,197.47838],[2.78946,-3.46488],[-0.62577,0.77729]],[[282.03109,199.33932],[0.27852,-0.95822],[-0.167,0.57455]],[[282.20001,201.12635],[0.35263,-0.48338],[-0.62281,0.85374]],[[279.50702,202.79927],[0.89871,-0.55596],[-2.33491,1.44443]],[[272.64864,207.37372],[2.20014,-1.64742],[-0.45844,0.34327]],[[270.66776,208.89882],[0.55916,-0.38085],[5.66053,-0.1199]],[[287.60075,208.10378],[-5.61013,0.52838],[4.7003,-0.44269]],[[301.50529,206.58244],[-4.60253,1.61899],[1.81839,-0.63964]],[[309.43566,201.75009],[-0.72449,2.12285],[0.64133,-1.8792]],[[309.53719,197.09976],[-1.44863,2.05554],[1.54887,-2.19778]],[[315.06657,194.51493],[-2.16517,0.37322],[7.53461,1.82506]],[[339.18857,200.89707],[-5.19161,-7.29161],[0.98772,1.38725]],[[342.3206,204.93325],[0.22328,-1.68825],[-0.35286,2.66806]],[[334.05246,209.82074],[1.91906,-0.84958],[-0.81989,0.36297]],[[331.59225,210.90844],[0.86535,-0.2348],[-0.32801,0.089]],[[330.58321,210.76205],[-0.27683,-0.19717],[1.104,0.78631]],[[333.92412,213.07986],[-1.07003,-0.83195],[1.75803,1.36688]],[[337.82459,214.89977],[-1.84994,-0.52523],[5.58875,1.57246]],[[347.58184,201.90944],[0.37528,4.57166],[-0.3277,-3.99204]],[[342.8399,188.94155],[2.68538,3.07328],[-1.71505,-1.96278]],[[335.85451,186.07959],[2.36602,0.48562],[-3.36035,-0.6897]],[[326.38068,184.47603],[3.51128,0.04927],[-1.01676,-0.23459]],[[323.3304,183.77226],[0.69936,0.77442],[-0.78402,-0.86817]],[[322.63817,180.33183],[0.02036,1.16962],[-0.1007,-5.78486]],[[329.82472,166.60972],[-2.00048,4.83276],[0.38699,-0.9349]],[[329.81492,161.84025],[0.92167,0.95138],[-1.18622,-1.22446]],[[325.79976,159.3133],[0.40254,2.8874],[-0.13259,-0.95105]],[[330.14922,153.49507],[-0.80201,0.86992],[2.58634,-2.80535]],[[339.3058,144.11579],[-3.48437,2.45989],[-2.4521,0.70793]],[[332.34992,147.07266],[2.38209,-0.99502],[-6.1822,2.58236]],[[313.5105,154.7624],[5.61688,-3.75058],[-1.83264,1.22372]],[[309.0356,158.23211],[1.48899,-1.45627],[-0.29629,0.28978]],[[307.92112,158.78323],[0.21909,-0.35179],[-0.56468,0.90672]],[[306.95009,164.22793],[0.17583,-1.00022],[-1.2828,0.22284]],[[303.2585,165.5044],[1.11093,-0.67903],[0,0]],[301.96878,166.27833],[[299.9108,165.76383],[0.77174,1.28624],[0,0]]],&quot;closed&quot;:true,&quot;fillColor&quot;:[0,0,0,1],&quot;strokeWidth&quot;:0.5}]}" fill="#f2fff3" stroke="none" stroke-width="0.25"/><path d="M162.93711,312.47427v-265.67406h312.10191v265.67406z" fill="none" stroke="#000000" stroke-width="0"/></g></g></svg>