<svg version="1.1" xmlns="http://www.w3.org/2000/svg" xmlns:xlink="http://www.w3.org/1999/xlink" width="312.10191" height="265.67406" viewBox="0,0,312.10191,265.67406"><g transform="translate(-162.93711,-46.80021)"><g data-paper-data="{&quot;isPaintingLayer&quot;:true}" fill-rule="nonzero" stroke-linecap="butt" stroke-linejoin="miter" stroke-miterlimit="10" stroke-dasharray="" stroke-dashoffset="0" style="mix-blend-mode: normal"><path d="M268.808,128.94697c1.5,0 1.5,1.5 1.5,1.5v0.45914c0,0.29209 0.00843,0.58312 0.02415,0.87323c4.75859,1.20381 9.60441,1.00197 14.58719,1.16734c2.18181,0.07241 4.86721,0.40232 6.99738,-0.12263c3.35129,-0.82588 5.40402,-2.43751 8.3115,-3.98029c3.74593,-1.98769 8.54498,-3.20147 12.59479,-4.45404c6.65531,-1.67927 11.98938,-3.17193 18.81713,-2.2137c3.81336,0.53518 8.02405,0.71562 10.98766,3.69552c3.1685,3.18591 3.73714,8.61967 5.58424,12.58943c0.85688,1.8416 2.48016,3.02665 3.43622,4.80602c0.58885,1.09595 0.82783,2.35378 1.38776,3.46479c2.68047,5.89643 4.46368,12.35819 7.33509,18.11314c2.68627,5.3839 6.19889,10.5863 7.02134,16.73855c0.60159,4.50009 0.26695,8.76067 0.23805,13.29332c-0.12281,0.42982 -0.19875,0.83868 -0.24616,1.23637c0.03109,0.16417 0.03109,0.27734 0.03109,0.27734c0,6.03758 -0.02956,12.40466 -1.03303,18.35042c-0.46702,2.76719 -0.77979,6.25339 -2.1382,8.77495c-3.22511,5.98661 -8.6015,9.39782 -13.71527,13.59327c-4.95322,3.90122 -10.12082,9.08175 -15.91356,11.61594c-7.40503,3.23954 -16.39101,4.17367 -24.46354,3.32907c-2.8011,-0.29307 -5.09985,-1.50534 -7.76701,-2.18981c-2.86881,-2.00847 -6.05275,-2.88523 -9.18083,-4.36092c-0.57667,-0.27205 -1.14813,-0.55002 -1.7162,-0.83177c-2.02582,-0.06021 -4.00753,-0.2919 -5.96264,-1.52297c-0.67775,-0.42675 -1.53633,-0.84623 -1.78607,-1.60721c-0.08953,-0.27282 -0.13489,-0.55235 -0.15164,-0.83622c-0.43788,-0.20567 -0.87873,-0.40779 -1.32336,-0.6054c-0.89952,0.95763 -1.98031,0.11702 -1.98031,0.11702c-2.68613,-2.10198 -6.51822,-2.89598 -8.72936,-5.50853c-2.73687,-3.23372 -3.28149,-9.40025 -3.77617,-13.39958c-0.48624,-3.93105 -2.16759,-7.57211 -2.52741,-11.49699c-0.25975,-2.83326 -0.372,-5.80219 -0.45018,-8.65615c-1.16645,-4.11062 -0.70422,-8.85069 -0.70662,-13.08696c-0.00199,-3.51402 -0.31033,-7.17997 0.00437,-10.67452c0.81914,-9.09629 3.04808,-18.04939 4.24207,-27.10347c0.09677,-2.2736 0.80115,-4.49324 0.80425,-6.73485c0.00437,-3.1552 -1.03353,-6.27203 -1.55084,-9.45575c-0.22536,-0.07482 -0.45066,-0.15299 -0.67592,-0.23467c0,0 -1.40969,-0.51261 -0.89708,-1.9223c0.2843,-0.78183 0.84453,-0.97237 1.28718,-0.98701c-0.00005,-0.01665 -0.00008,-0.03331 -0.00008,-0.04996v-0.45914c0,0 0,-1.5 1.5,-1.5zM272.14437,143.50894c0.00242,2.36718 -0.72335,4.65016 -0.8149,7.03852c-1.18092,8.98078 -3.37769,17.86035 -4.22144,26.87701c1.0082,-1.38721 2.33894,-2.79127 3.30917,-3.92601c0.38038,-0.45648 0.76076,-0.91295 1.14115,-1.36943l1.00899,-0.74694c0,0 1.24808,-0.83205 2.08013,0.41603c0.83205,1.24808 -0.41603,2.08013 -0.41603,2.08013l-0.36842,0.17134c-0.38485,0.4618 -0.76969,0.92359 -1.15454,1.38539c-0.35363,0.41147 -0.68612,0.83987 -1.00928,1.27577c0.3177,-0.1961 0.65145,-0.35732 1.01285,-0.45851c2.8657,-0.80237 4.89387,1.45023 5.57175,3.99591c0.96899,3.63888 -1.89824,9.24984 -6.40064,8.56797c-1.79441,-0.27176 -3.65456,-1.9443 -4.85047,-3.94928c0.0323,1.0756 0.06194,2.14609 0.06136,3.20182c-0.00223,4.09038 -0.4692,8.66256 0.67079,12.6247c0.07901,2.28756 0.16379,4.63577 0.32235,6.93909c0.10987,-0.08576 0.23219,-0.15558 0.36301,-0.21451c0.03259,-0.16254 0.09711,-0.33698 0.20328,-0.52278c0.74421,-1.30236 2.04657,-0.55816 2.04657,-0.55816c0.27455,0.15925 0.53143,0.34488 0.77965,0.54345c0.35066,0.08514 0.8479,0.30865 1.04195,0.89542c0.36581,0.31466 0.74131,0.61479 1.15763,0.85388c1.56919,0.9012 2.30999,-0.45218 3.66697,1.54265c1.22979,1.80786 1.89579,6.61422 -0.00504,8.26352c-1.35384,1.17469 -5.04155,1.4928 -6.87859,0.7577c0.11913,0.57868 0.2198,1.16164 0.2934,1.75064c0.41838,3.3481 0.80482,9.12659 3.11088,11.85294c1.59323,1.88361 4.53678,2.82633 6.87432,4.14849c0.12031,-0.12575 0.27763,-0.24308 0.48136,-0.34494c1.22263,-0.61132 1.88817,0.44864 1.99663,0.64149c0.19456,0.08556 0.38839,0.17201 0.58155,0.25929c0.11532,-6.83423 1.29116,-13.53984 2.81974,-20.15051c-0.13332,-0.58572 0.04799,-0.99091 0.29619,-1.26203c0.20786,-0.8733 0.42112,-1.74497 0.63812,-2.61509l2.60306,-1.1362c0,0 1.5,0 1.5,1.5c0,0.48426 -0.15634,0.81219 -0.36808,1.03424c2.99675,-0.38499 5.97327,-0.24532 9.11481,0.01649c8.57835,0.71492 18.29338,1.40078 24.38006,8.27072c2.03112,2.2925 1.86471,5.94437 1.97794,8.75599c0.04217,5.88935 -4.19207,11.38005 -10.32703,12.53952c-1.62801,0.30769 -3.32592,0.00631 -4.96394,0.25526c-2.9173,0.44338 -6.02002,1.52764 -8.96224,1.67695c0.38421,0.23292 0.76235,0.4828 1.13318,0.75385c2.39813,0.58239 4.41663,1.67653 6.92537,1.94242c7.50333,0.79526 15.94954,-0.09423 22.82755,-3.09885c1.85261,-0.8093 3.4389,-2.34344 5.00559,-3.51423c3.40833,-2.54704 6.87485,-5.04198 10.24978,-7.70034c4.84852,-3.9568 9.86284,-7.1096 12.96704,-12.70386c1.20466,-2.17098 1.40129,-5.43756 1.80657,-7.82552c0.16336,-0.96255 0.29979,-1.93664 0.41374,-2.91886c-0.38276,-0.04034 -0.80649,-0.24149 -1.10095,-0.83042c-0.43316,-0.86631 -0.02723,-1.45293 0.31477,-1.75986c0.09667,-3.07272 0.67509,-5.90927 1.14509,-8.96568c0.28322,-1.84178 -0.06628,-3.45447 0.4624,-5.30485c-0.03353,-4.29664 0.32503,-8.25126 -0.24746,-12.53496c-0.77096,-5.76879 -4.19931,-10.69845 -6.72639,-15.74354c-2.88912,-5.76788 -4.66998,-12.24598 -7.35728,-18.15867c-1.81298,-3.65199 -4.28819,-6.83275 -5.78407,-10.6641c-1.11053,-2.84437 -1.77963,-7.12564 -4.00973,-9.33884c-2.48677,-2.46794 -6.16187,-2.43063 -9.31184,-2.87374c-6.39689,-0.89986 -11.34107,0.55446 -17.5913,2.13191c-3.82429,1.1699 -8.43626,2.3132 -11.96449,4.19752c-3.11572,1.66402 -5.53624,3.43258 -9.1357,4.28417c-2.37682,0.56233 -5.28542,0.26405 -7.71074,0.18461c-4.8199,-0.15787 -9.47369,-0.04171 -14.07687,-1.00186c0.54213,2.86756 1.39779,5.68354 1.40074,8.56575zM289.49028,218.23816c-1.49547,6.47651 -2.63366,13.04882 -2.69678,19.74896c-0.03914,0.28626 -0.10623,0.57239 -0.1703,0.85854c2.08417,1.03474 4.12655,2.12169 6.21581,3.15217c1.86073,-0.03455 3.79476,-0.16544 5.49628,0.23063c1.36354,0.3174 2.64041,1.27052 4.03615,1.16158c2.88417,-0.22509 5.8471,-1.22832 8.71325,-1.65508c1.24853,-0.1859 3.55264,-0.01284 4.67793,-0.20387c4.76625,-0.80913 8.05045,-5.07502 8.00084,-9.54394c-0.06798,-1.80308 0.25552,-5.33291 -1.19841,-6.80977c-5.34208,-5.42629 -12.58513,-6.4318 -19.91449,-7.09084c-4.46929,-0.40187 -8.81069,-0.86208 -13.16027,0.15161zM268.75124,180.22863c-0.24272,0.27099 -0.38969,0.56008 -0.29772,0.89378c0.33085,1.20048 1.43803,2.03601 2.08115,3.10232c0.38668,0.64113 0.69581,1.52292 1.62612,1.60424c3.0773,0.26902 4.79025,-5.24494 2.04198,-6.76249c-0.64243,-0.35474 -2.73289,1.62669 -3.18529,1.92837c0,0 -1.24808,0.83205 -2.08013,-0.41603c-0.0805,-0.12075 -0.14153,-0.23761 -0.18611,-0.3502zM270.55696,209.95486c-0.5342,0.55027 -0.51729,2.18609 -0.48928,3.24432c0.08196,3.09748 2.94559,4.06236 5.35864,2.92736c0.74508,-0.35046 -0.1416,-1.6428 -0.28385,-2.45381c-0.09727,-0.55454 0.06058,-1.1705 -0.18033,-1.67937c-0.40817,-0.8622 -1.9319,-0.28116 -2.76095,-0.75303c-0.60419,-0.34389 -1.11915,-0.82241 -1.64423,-1.28547z" fill="#000000" stroke="none" stroke-width="0.5"/><path d="M272.10898,143.47361c-0.00295,-2.88221 -0.85592,-5.7007 -1.39805,-8.56826c4.60318,0.96015 9.26374,0.83906 14.08364,0.99693c2.42532,0.07944 5.33917,0.37495 7.71599,-0.18738c3.59946,-0.85159 6.0283,-2.62308 9.14402,-4.2871c3.52823,-1.88432 8.1507,-3.02914 11.97499,-4.19904c6.25023,-1.57745 11.2083,-3.03034 17.60519,-2.13048c3.14997,0.44311 6.8323,0.40819 9.31907,2.87613c2.2301,2.2132 2.90491,6.49729 4.01544,9.34166c1.49588,3.83135 3.97919,7.01792 5.79217,10.66991c2.6873,5.91269 4.47981,12.40592 7.36893,18.1738c2.52708,5.04509 5.96044,9.99182 6.7314,15.76061c0.57249,4.2837 0.21366,8.25108 0.24719,12.54772c-0.52868,1.85038 -0.18025,3.46829 -0.46347,5.31007c-0.47,3.05641 -1.05133,5.90112 -1.148,8.97384c-0.342,0.30693 -0.74864,0.89504 -0.31548,1.76135c0.29446,0.58893 0.71808,0.79029 1.10084,0.83063c-0.11395,0.98222 -0.25159,1.95856 -0.41495,2.92111c-0.40528,2.38796 -0.60561,5.66012 -1.81027,7.8311c-3.1042,5.59426 -8.12991,8.7579 -12.97843,12.7147c-3.37493,2.65836 -6.85094,5.15842 -10.25927,7.70546c-1.56669,1.17079 -3.15756,2.70654 -5.01017,3.51584c-6.87801,3.00462 -15.34275,3.89601 -22.84608,3.10075c-2.50874,-0.26589 -4.53296,-1.36085 -6.93109,-1.94324c-0.37083,-0.27105 -0.728,-0.6187 -1.11221,-0.85162c2.94222,-0.14931 6.03775,-1.23465 8.95505,-1.67803c1.63802,-0.24895 3.33163,0.05229 4.95964,-0.2554c6.13496,-1.15947 10.35788,-6.64876 10.31571,-12.53811c-0.11323,-2.81162 0.077,-6.36637 -1.95412,-8.65887c-6.08668,-6.86994 -15.83804,-7.56065 -24.41639,-8.27557c-3.14154,-0.26181 -6.12688,-0.40773 -9.12363,-0.02274c0.21174,-0.22205 0.36766,-0.55036 0.36766,-1.03462c0,-1.5 -1.50212,-1.50204 -1.50212,-1.50204l-2.53077,1.06712c-0.217,0.87012 -0.43151,1.74049 -0.63937,2.61379c-0.2482,0.27112 -0.43009,0.67574 -0.29677,1.26146c-1.52858,6.61067 -2.71234,13.31004 -2.82766,20.14427c-0.19316,-0.08728 -0.44112,-0.08965 -0.63568,-0.17521c-0.10846,-0.19285 -0.77539,-1.25375 -1.99802,-0.64243c-0.20373,0.10186 -0.36118,0.2191 -0.48149,0.34485c-2.33754,-1.32216 -5.28612,-2.26894 -6.87935,-4.15255c-2.30606,-2.72635 -2.69866,-8.51165 -3.11704,-11.85975c-0.0736,-0.589 -0.09343,-1.23081 -0.21256,-1.80949c1.83704,0.7351 5.44512,0.47738 6.79896,-0.69731c1.90083,-1.6493 1.23072,-6.46152 0.00093,-8.26938c-1.35698,-1.99483 -2.09942,-0.64441 -3.66861,-1.54561c-0.41632,-0.23909 -0.79241,-0.54042 -1.15822,-0.85508c-0.19405,-0.58677 -0.69183,-0.81145 -1.04249,-0.89659c-0.24822,-0.19857 -0.50543,-0.38496 -0.77998,-0.54421c0,0 -1.21024,-0.7831 -1.95445,0.51926c-0.10617,0.1858 -0.17084,0.35988 -0.20343,0.52242c-0.13082,0.05893 -0.34505,0.16816 -0.45492,0.25392c-0.15856,-2.30332 -0.24552,-4.65768 -0.32453,-6.94524c-1.13999,-3.96214 -0.67489,-8.54693 -0.67266,-12.63731c0.00058,-1.05573 0.07088,-2.1249 0.03858,-3.2005c1.19591,2.00498 2.95615,3.67715 4.75056,3.94891c4.5024,0.68187 7.37041,-4.94001 6.40142,-8.57889c-0.67788,-2.54568 -2.60838,-4.77709 -5.47408,-3.97472c-0.3614,0.10119 -0.79231,0.23874 -1.11001,0.43484c0.32316,-0.4359 0.65605,-0.8659 1.00968,-1.27737c0.38485,-0.4618 0.77021,-0.92538 1.15506,-1.38718l0.36851,-0.17164c0,0 1.24886,-0.83432 0.41681,-2.0824c-0.83205,-1.24808 -1.98627,-0.38154 -1.98627,-0.38154l-1.00862,0.74588c-0.38039,0.45648 -0.76024,0.91128 -1.14062,1.36776c-0.97023,1.13474 -2.39791,2.5147 -3.40611,3.90191c0.84375,-9.01666 3.05092,-17.91821 4.23184,-26.89899c0.09155,-2.38836 0.82056,-4.67492 0.81814,-7.0421z" data-paper-data="{&quot;noHover&quot;:false,&quot;origItem&quot;:[&quot;Path&quot;,{&quot;applyMatrix&quot;:true,&quot;segments&quot;:[[[272.14437,143.50894],[0,0],[0.00242,2.36718]],[[271.32947,150.54746],[0.09155,-2.38836],[-1.18092,8.98078]],[[267.10803,177.42447],[0.84375,-9.01666],[1.0082,-1.38721]],[[270.4172,173.49846],[-0.97023,1.13474],[0.38038,-0.45648]],[[271.55834,172.12903],[-0.38039,0.45648],[0,0]],[272.56734,171.38209],[[274.64747,171.79812],[-0.83205,-1.24808],[0.83205,1.24808]],[274.23143,173.87825],[[273.86302,174.04959],[0,0],[-0.38485,0.4618]],[[272.70848,175.43498],[0.38485,-0.4618],[-0.35363,0.41147]],[[271.69919,176.71075],[0.32316,-0.4359],[0.3177,-0.1961]],[[272.71205,176.25224],[-0.3614,0.10119],[2.8657,-0.80237]],[[278.2838,180.24815],[-0.67788,-2.54568],[0.96899,3.63888]],[[271.88316,188.81612],[4.5024,0.68187],[-1.79441,-0.27176]],[[267.03269,184.86684],[1.19591,2.00498],[0.0323,1.0756]],[[267.09405,188.06866],[0.00058,-1.05573],[-0.00223,4.09038]],[[267.76484,200.69336],[-1.13999,-3.96214],[0.07901,2.28756]],[[268.08718,207.63245],[-0.15856,-2.30332],[0.10987,-0.08576]],[[268.4502,207.41794],[-0.13082,0.05893],[0.03259,-0.16254]],[[268.65348,206.89516],[-0.10617,0.1858],[0.74421,-1.30236]],[[270.70005,206.337],[0,0],[0.27455,0.15925]],[[271.4797,206.88045],[-0.24822,-0.19857],[0.35066,0.08514]],[[272.52164,207.77587],[-0.19405,-0.58677],[0.36581,0.31466]],[[273.67928,208.62975],[-0.41632,-0.23909],[1.56919,0.9012]],[[277.34625,210.1724],[-1.35698,-1.99483],[1.22979,1.80786]],[[277.34121,218.43592],[1.90083,-1.6493],[-1.35384,1.17469]],[[270.46262,219.19362],[1.83704,0.7351],[0.11913,0.57868]],[[270.75602,220.94426],[-0.0736,-0.589],[0.41838,3.3481]],[[273.8669,232.7972],[-2.30606,-2.72635],[1.59323,1.88361]],[[280.74122,236.94569],[-2.33754,-1.32216],[0.12031,-0.12575]],[[281.22258,236.60075],[-0.20373,0.10186],[1.22263,-0.61132]],[[283.21921,237.24224],[-0.10846,-0.19285],[0.19456,0.08556]],[[283.80075,237.50153],[-0.19316,-0.08728],[0.11532,-6.83423]],[[286.6205,217.35102],[-1.52858,6.61067],[-0.13332,-0.58572]],[[286.91668,216.08899],[-0.2482,0.27112],[0.20786,-0.8733]],[[287.55481,213.4739],[-0.217,0.87012],[0,0]],[290.15787,212.3377],[[291.65787,213.8377],[0,-1.5],[0,0.48426]],[[291.28979,214.87194],[0.21174,-0.22205],[2.99675,-0.38499]],[[300.40459,214.88843],[-3.14154,-0.26181],[8.57835,0.71492]],[[324.78466,223.15915],[-6.08668,-6.86994],[2.03112,2.2925]],[[326.76259,231.91514],[-0.11323,-2.81162],[0.04217,5.88935]],[[316.43557,244.45466],[6.13496,-1.15947],[-1.62801,0.30769]],[[311.47163,244.70992],[1.63802,-0.24895],[-2.9173,0.44338]],[[302.50939,246.38687],[2.94222,-0.14931],[0.38421,0.23292]],[[303.64257,247.14072],[-0.37083,-0.27105],[2.39813,0.58239]],[[310.56793,249.08314],[-2.50874,-0.26589],[7.50333,0.79526]],[[333.39549,245.98429],[-6.87801,3.00462],[1.85261,-0.8093]],[[338.40108,242.47006],[-1.56669,1.17079],[3.40833,-2.54704]],[[348.65086,234.76972],[-3.37493,2.65836],[4.84852,-3.9568]],[[361.6179,222.06586],[-3.1042,5.59426],[1.20466,-2.17098]],[[363.42447,214.24034],[-0.40528,2.38796],[0.16336,-0.96255]],[[363.83821,211.32148],[-0.11395,0.98222],[-0.38276,-0.04034]],[[362.73726,210.49106],[0.29446,0.58893],[-0.43316,-0.86631]],[[363.05203,208.7312],[-0.342,0.30693],[0.09667,-3.07272]],[[364.19712,199.76552],[-0.47,3.05641],[0.28322,-1.84178]],[[364.65952,194.46067],[-0.52868,1.85038],[-0.03353,-4.29664]],[[364.41206,181.92571],[0.57249,4.2837],[-0.77096,-5.76879]],[[357.68567,166.18217],[2.52708,5.04509],[-2.88912,-5.76788]],[[350.32839,148.0235],[2.6873,5.91269],[-1.81298,-3.65199]],[[344.54432,137.3594],[1.49588,3.83135],[-1.11053,-2.84437]],[[340.53459,128.02056],[2.2301,2.2132],[-2.48677,-2.46794]],[[331.22274,125.14682],[3.14997,0.44311],[-6.39689,-0.89986]],[[313.63145,127.27873],[6.25023,-1.57745],[-3.82429,1.1699]],[[301.66695,131.47625],[3.52823,-1.88432],[-3.11572,1.66402]],[[292.53126,135.76042],[3.59946,-0.85159],[-2.37682,0.56233]],[[284.82052,135.94502],[2.42532,0.07944],[-4.8199,-0.15787]],[[270.74365,134.94317],[4.60318,0.96015],[0.54213,2.86756]],[[272.14439,143.50892],[-0.00295,-2.88221],[0,0]]],&quot;closed&quot;:true,&quot;fillColor&quot;:[0,0,0,1]}]}" fill="#fdaa9c" stroke="none" stroke-width="0.5"/><path d="M280.82086,193.65685c0.52575,-0.20458 1.04682,-0.40839 1.56449,-0.60965c-0.03277,-0.22585 -0.08939,-0.44562 -0.18445,-0.65589c-0.26645,-0.58935 -1.16673,0.10296 -1.88168,0.35782l1.00808,-0.26129c0,0 0,0.72729 -0.50643,1.16902zM282.63167,196.14639c-0.61507,0.25463 -1.21808,0.49936 -1.80679,0.72585c0,0 -1.40002,0.53847 -1.93849,-0.86155c-0.53847,-1.40002 0.86155,-1.93849 0.86155,-1.93849c0.07792,-0.02996 0.15572,-0.05993 0.23341,-0.0899c-0.04951,0.00364 -0.10085,0.00553 -0.15407,0.00553c-1.5,0 -1.5,-1.5 -1.5,-1.5l1.31395,-2.63626c1.29054,-0.15284 3.59279,-0.67252 4.6995,0.4371c0.44947,0.45065 0.47985,1.13731 0.53078,1.81122c4.51396,-1.66699 8.92357,-2.90807 14.11628,-2.4857c3.06692,0.24946 5.9935,2.04052 8.98644,2.79719c4.24042,1.07205 7.37369,0.86885 10.81213,3.93689c0.12092,0.91576 0.5821,1.84999 0.36276,2.74728c-0.27444,1.12269 -2.14849,2.58105 -3.02758,3.28423c-4.18561,3.34807 -9.11765,5.28701 -14.42629,5.91802c-1.019,0.12112 -2.03922,0.35758 -3.06381,0.3006c-0.46482,-0.02585 -0.84595,-0.6918 -1.28692,-0.54255c-0.33587,0.11367 0.60384,0.40955 0.79212,0.71002c0.5033,0.80322 1.64338,1.68942 1.25248,2.55294c-0.76383,1.68733 -3.43471,1.50351 -4.86947,1.49364c-3.00959,-0.0207 -4.10107,-0.91364 -6.52781,-2.51971c-0.54755,-0.36238 -1.33971,-0.43203 -1.71333,-0.97198c-1.02168,-1.47653 -1.60321,-4.65971 -2.00573,-6.41117c-0.51796,-2.26226 -1.10366,-4.50637 -1.64112,-6.7632zM285.46344,194.96587c0.58093,2.42393 1.17715,4.84399 1.73367,7.27409c0.88426,3.87656 1.01876,4.79221 4.20849,6.87824c0.89007,0.58209 2.05061,0.70402 3.11407,0.69425c0.20076,-0.00184 0.49741,0.00862 0.80546,0.03485c-0.59221,-0.98391 -0.91494,-2.76628 -0.41637,-3.54271c0.31862,-0.49621 5.71697,-0.90175 6.43435,-0.98604c4.74751,-0.55783 9.15431,-2.28086 12.897,-5.27545c0.62608,-0.50093 2.12096,-1.29155 1.92655,-2.23296c-2.75364,-1.93755 -5.7545,-1.689 -8.93075,-2.49102c-2.51786,-0.63577 -4.76619,-1.76546 -7.1947,-2.54734c-4.74227,-1.52682 -9.88878,0.26638 -14.57776,2.19411z" fill="#000000" stroke="none" stroke-width="0.5"/><path d="M285.41694,194.94755c4.68898,-1.92773 9.87728,-3.75236 14.61955,-2.22555c2.42851,0.78188 4.71892,1.92811 7.23678,2.56388c3.17625,0.80202 6.18869,0.57646 8.94233,2.514c0.19441,0.94141 -1.29955,1.73864 -1.92563,2.23957c-3.74269,2.99459 -8.19335,4.7709 -12.94086,5.32873c-0.71738,0.08429 -6.15902,0.4735 -6.47764,0.96971c-0.49857,0.77643 -0.11211,2.48306 0.4801,3.46697c-0.30805,-0.02623 -0.66028,0.04638 -0.86104,0.04821c-1.06346,0.00977 -2.23278,-0.12019 -3.12284,-0.70228c-3.18973,-2.08603 -3.33612,-3.02982 -4.22038,-6.90638c-0.55652,-2.4301 -1.14945,-4.87295 -1.73038,-7.29688z" data-paper-data="{&quot;noHover&quot;:false,&quot;origItem&quot;:[&quot;Path&quot;,{&quot;applyMatrix&quot;:true,&quot;segments&quot;:[[[570.92686,389.9317],[0,0],[1.16186,4.84786]],[[574.3942,404.47988],[-1.11304,-4.8602],[1.76852,7.75312]],[[582.81118,418.23636],[-6.37946,-4.17206],[1.78014,1.16418]],[[589.03932,419.62486],[-2.12692,0.01954],[0.40152,-0.00368]],[[590.65024,419.69456],[-0.6161,-0.05246],[-1.18442,-1.96782]],[[589.8175,412.60914],[-0.99714,1.55286],[0.63724,-0.99242]],[[602.6862,410.63706],[-1.43476,0.16858],[9.49502,-1.11566]],[[628.4802,400.08616],[-7.48538,5.98918],[1.25216,-1.00186]],[[632.3333,395.62024],[0.38882,1.88282],[-5.50728,-3.8751]],[[614.4718,390.6382],[6.3525,1.60404],[-5.03572,-1.27154]],[[600.0824,385.54352],[4.85702,1.56376],[-9.48454,-3.05364]],[[570.92688,389.93174],[9.37796,-3.85546],[0,0]]],&quot;closed&quot;:true,&quot;fillColor&quot;:[0,0,0,1],&quot;strokeWidth&quot;:0.5}]}" fill="#f2fff3" stroke="none" stroke-width="0.25"/><path d="M336.54461,195.00674c-0.11278,0.02704 -0.22572,0.05508 -0.33883,0.08415c0,0 -1.45521,0.3638 -1.81902,-1.09141c-0.3638,-1.45521 1.09141,-1.81902 1.09141,-1.81902c0.25035,-0.06115 0.49982,-0.11803 0.7485,-0.17085c0.07114,-0.18966 0.1948,-0.38605 0.39119,-0.58244c1.06066,-1.06066 2.12132,0 2.12132,0l0.09764,0.16516c4.41961,-0.48489 8.66923,0.11664 13.21748,0.55013c0.42455,0.04046 5.10268,0.41396 5.27993,0.66212c0.9291,1.30075 0.29123,5.60605 0.13233,7.19543c-0.26456,2.64615 -0.28699,5.11633 -1.15483,7.67634c-1.01263,2.98713 -3.10032,5.2161 -4.68083,7.87356c-2.01302,1.38808 -3.25299,3.60147 -5.35753,4.84325c-4.63859,2.737 -14.26873,2.9926 -14.91437,-3.96519c-0.1827,-1.96886 0.69986,-4.30115 1.19517,-6.1835c1.24048,-4.7143 3.50256,-10.22867 3.99044,-15.23774zM339.5668,194.50021c-0.43394,5.45764 -2.73306,11.27056 -4.1101,16.50279c-0.37374,1.42008 -1.98009,5.34803 -0.94791,6.74514c0.26552,0.35939 0.84268,0.29803 1.25897,0.4604c3.18999,1.24427 5.81134,1.44365 8.92657,-0.36618c1.8735,-1.08843 2.89545,-3.15749 4.74348,-4.33949c1.27991,-2.36188 3.15588,-4.22273 4.04277,-6.81881c0.78786,-2.30622 0.76037,-4.59468 1.00096,-6.98357c0.16134,-1.60199 1.17249,-3.2261 0.73136,-4.77459c-0.08682,-0.30476 -0.52752,0.41915 -0.84386,0.4378c-0.86862,0.0512 -1.73359,-0.15238 -2.59981,-0.23481c-4.18373,-0.39816 -8.12995,-1.03587 -12.20244,-0.62868z" fill="#000000" stroke="none" stroke-width="0.5"/><path d="M339.54735,194.45414c4.07249,-0.40719 8.06398,0.23377 12.24771,0.63193c0.86622,0.08243 1.7376,0.29061 2.60622,0.23941c0.31634,-0.01865 0.75791,-0.74181 0.84473,-0.43705c0.44113,1.54849 -0.56267,3.18069 -0.72401,4.78268c-0.24059,2.38889 -0.20356,4.70623 -0.99142,7.01245c-0.88689,2.59608 -2.78427,4.49845 -4.06418,6.86033c-1.84803,1.182 -2.8988,3.26004 -4.7723,4.34847c-3.11523,1.80983 -5.76722,1.59978 -8.95721,0.35551c-0.41629,-0.16237 -0.99668,-0.10377 -1.2622,-0.46316c-1.03218,-1.39711 0.56277,-5.3409 0.93651,-6.76098c1.37704,-5.23223 3.70222,-11.11195 4.13616,-16.56959z" data-paper-data="{&quot;noHover&quot;:false,&quot;origItem&quot;:[&quot;Path&quot;,{&quot;applyMatrix&quot;:true,&quot;segments&quot;:[[[339.56679,194.50019],[0,0],[-0.43394,5.45764]],[[335.45669,211.00298],[1.37704,-5.23223],[-0.37374,1.42008]],[[334.50878,217.74812],[-1.03218,-1.39711],[0.26552,0.35939]],[[335.76775,218.20852],[-0.41629,-0.16237],[3.18999,1.24427]],[[344.69432,217.84234],[-3.11523,1.80983],[1.8735,-1.08843]],[[349.4378,213.50285],[-1.84803,1.182],[1.27991,-2.36188]],[[353.48057,206.68404],[-0.88689,2.59608],[0.78786,-2.30622]],[[354.48153,199.70047],[-0.24059,2.38889],[0.16134,-1.60199]],[[355.21289,194.92588],[0.44113,1.54849],[-0.08682,-0.30476]],[[354.36903,195.36368],[0.31634,-0.01865],[-0.86862,0.0512]],[[351.76922,195.12887],[0.86622,0.08243],[-4.18373,-0.39816]],[[339.56678,194.50019],[4.07249,-0.40719],[0,0]]],&quot;closed&quot;:true,&quot;fillColor&quot;:[0,0,0,1],&quot;strokeWidth&quot;:0.5}]}" fill="#f2fff3" stroke="none" stroke-width="0.25"/><path d="M282.43217,165.15672c0.04693,-0.80959 0.85653,-1.21439 0.85653,-1.21439c4.9656,-2.35204 7.08162,1.23791 10.53448,4.28181c0.6674,0.58835 1.97041,0.74883 2.11631,1.6265c0.31419,1.88995 -2.10157,6.19008 -3.71066,7.40535c-1.32952,1.00412 -5.32465,1.92687 -6.96136,1.13974c-2.59824,-1.24955 -3.28837,-4.89578 -4.01589,-7.26241c-0.37497,-1.21979 -1.95149,-2.12822 -1.77491,-3.39207c0.14513,-1.03871 1.33101,-1.62122 1.99652,-2.43183c0.32324,-0.04669 0.64248,-0.09846 0.95898,-0.1527zM288.57864,167.1479l-0.94603,0.32478c-1.6797,-0.01326 -3.17942,0.43556 -4.85986,0.54066c-0.02354,-0.01071 0.93977,0.9803 1.32811,2.18106c0.22632,0.6998 1.01238,4.89309 2.22381,5.39379c0.34011,0.14057 0.68705,-0.3163 1.05495,-0.32561c1.00829,-0.02552 2.23187,0.27895 3.00297,-0.3712c0.53602,-0.45194 2.71912,-3.46353 2.71725,-4.07307c-0.00114,-0.37252 -0.7956,0.00799 -1.09764,-0.21005c-1.27032,-0.917 -2.27351,-2.45105 -3.42356,-3.46037z" fill="#000000" stroke="none" stroke-width="0.5"/><path d="M288.58614,167.09846c1.15005,1.00932 2.19486,2.58346 3.46518,3.50046c0.30204,0.21804 1.09709,-0.15855 1.09823,0.21397c0.00187,0.60954 -2.20234,3.66757 -2.73836,4.11951c-0.7711,0.65015 -2.03037,0.35416 -3.03866,0.37968c-0.3679,0.00931 -0.72563,0.46338 -1.06574,0.32281c-1.21143,-0.5007 -2.02737,-4.75547 -2.25369,-5.45527c-0.38834,-1.20076 -1.34576,-2.2043 -1.32222,-2.19359c1.68044,-0.1051 3.21817,-0.57645 4.89787,-0.56319l0.9574,-0.32436z" data-paper-data="{&quot;noHover&quot;:false,&quot;origItem&quot;:[&quot;Path&quot;,{&quot;applyMatrix&quot;:true,&quot;segments&quot;:[[288.57863,167.14788],[[287.6326,167.47266],[0,0],[-1.6797,-0.01326]],[[282.77274,168.01332],[1.68044,-0.1051],[-0.02354,-0.01071]],[[284.10085,170.19438],[-0.38834,-1.20076],[0.22632,0.6998]],[[286.32466,175.58817],[-1.21143,-0.5007],[0.34011,0.14057]],[[287.37961,175.26256],[-0.3679,0.00931],[1.00829,-0.02552]],[[290.38258,174.89136],[-0.7711,0.65015],[0.53602,-0.45194]],[[293.09983,170.81829],[0.00187,0.60954],[-0.00114,-0.37252]],[[292.00219,170.60824],[0.30204,0.21804],[-1.27032,-0.917]],[[288.57863,167.14787],[1.15005,1.00932],[0,0]]],&quot;closed&quot;:true,&quot;fillColor&quot;:[0,0,0,1],&quot;strokeWidth&quot;:0.5}]}" fill="#f2fff3" stroke="none" stroke-width="0.25"/><path d="M314.07183,173.98852c-0.40522,-0.16941 -0.85014,-0.54142 -0.85014,-1.35836c0,-1.5 1.5,-1.5 1.5,-1.5c0.68921,0.00035 1.37428,0.01637 2.05599,0.04537c0.21782,-0.27744 0.57436,-0.50451 1.15797,-0.50451c0.68898,0 1.0615,0.31647 1.26291,0.65868c4.55728,0.3788 9.00327,1.2035 13.57727,1.64431c4.21941,0.40663 8.46337,-0.05465 12.66173,0.46308c0.7669,0.09457 1.5893,-0.2053 2.31752,0.05312c2.60552,0.92461 4.10758,5.38502 2.77048,7.78877c-0.91913,1.65235 -3.51336,3.00387 -5.10095,3.96157c-2.37306,0.79552 -4.86587,1.62912 -7.15735,2.54335c-1.2876,0.51372 -2.42233,1.49385 -3.79199,1.70797c-5.01376,0.78384 -11.1381,-1.63729 -15.61596,-3.51517c-2.62548,-1.10105 -7.55598,-3.45286 -7.23659,-6.84394c0.04047,-0.42963 1.35047,-4.18487 2.0383,-4.80844c0.12956,-0.11746 0.26761,-0.22857 0.4108,-0.3358zM318.74538,174.26522c-0.17176,0.38261 -0.3698,0.74531 -0.66735,1.03258c-0.26451,0.25537 -5.37425,2.95137 -3.51689,4.71976c2.15382,2.05064 5.61728,2.99053 8.33562,4.09336c3.24053,1.31468 7.44179,2.93568 11.09797,2.41969c1.13608,-0.16033 2.03014,-1.07901 3.09507,-1.50598c2.26256,-0.90715 4.73353,-1.73097 7.07589,-2.50715c2.81496,-1.71164 4.28791,-2.31622 3.26311,-5.8736c-0.21859,-0.75878 -1.57299,-0.142 -2.35779,-0.22927c-2.29608,-0.25532 -4.0374,-0.4479 -6.44299,-0.4479c-6.69668,0 -13.2229,-1.27734 -19.88264,-1.70149z" fill="#000000" stroke="none" stroke-width="0.5"/><path d="M338.6712,175.9415c2.40559,0 4.15181,0.20406 6.44789,0.45938c0.7848,0.08727 2.13984,-0.52702 2.35843,0.23176c1.0248,3.55738 -0.44747,4.18095 -3.26243,5.89259c-2.34236,0.77618 -4.82265,1.62216 -7.08521,2.52931c-1.06493,0.42697 -1.97672,1.36048 -3.1128,1.52081c-3.65618,0.51599 -7.9253,-1.12904 -11.16583,-2.44372c-2.71834,-1.10283 -6.18627,-2.06472 -8.34009,-4.11536c-1.85736,-1.76839 3.25594,-4.48165 3.52045,-4.73702c0.29755,-0.28727 0.49741,-0.65399 0.66917,-1.0366c6.65974,0.42415 13.27375,1.69886 19.97043,1.69886z" data-paper-data="{&quot;noHover&quot;:false,&quot;origItem&quot;:[&quot;Path&quot;,{&quot;applyMatrix&quot;:true,&quot;segments&quot;:[[[318.74537,174.2652],[6.65974,0.42415],[-0.17176,0.38261]],[[318.07802,175.29778],[0.29755,-0.28727],[-0.26451,0.25537]],[[314.56113,180.01754],[-1.85736,-1.76839],[2.15382,2.05064]],[[322.89675,184.1109],[-2.71834,-1.10283],[3.24053,1.31468]],[[333.99472,186.53059],[-3.65618,0.51599],[1.13608,-0.16033]],[[337.08979,185.02461],[-1.06493,0.42697],[2.26256,-0.90715]],[[344.16568,182.51746],[-2.34236,0.77618],[2.81496,-1.71164]],[[347.42879,176.64386],[1.0248,3.55738],[-0.21859,-0.75878]],[[345.071,176.41459],[0.7848,0.08727],[-2.29608,-0.25532]],[[338.62801,175.96669],[2.40559,0],[-6.69668,0]]],&quot;closed&quot;:true,&quot;fillColor&quot;:[0,0,0,1],&quot;strokeWidth&quot;:0.5}]}" fill="#f2fff3" stroke="none" stroke-width="0.25"/><path d="M299.67715,156.78994c0,-1.5 1.5,-1.5 1.5,-1.5h1.14784c0.08916,0 0.31266,-0.00051 0.61839,-0.00091c3.02184,-3.19322 3.53195,-8.78346 7.2774,-11.22841c1.98944,-1.29866 5.85757,-1.60108 8.1343,-2.38897c1.83481,-0.63496 4.02808,-2.20183 5.89342,-2.64094c3.35979,-0.79092 11.94181,0.49757 9.46486,5.85478c-0.34392,0.74384 -1.20707,1.10873 -1.8106,1.66309c-1.86098,2.66382 -4.00429,4.027 -6.31583,6.1958c-3.84965,3.61193 -6.56659,6.5436 -12.10726,7.08471c-0.44484,0.04344 -3.49084,0.12851 -3.92356,0.02771c-1.11349,-0.25938 -1.91101,-1.35886 -3.02476,-1.6171c-0.74135,-0.1719 -1.50397,-0.14241 -2.27056,-0.07949c-0.10067,0.08652 -0.20397,0.17323 -0.31006,0.26018c0,0 -1.09917,0.87934 -2.01977,-0.13044h-0.75382c0,0 -1.5,0 -1.5,-1.5zM306.80239,155.31211c0.26724,0.0071 0.44929,0.01627 0.49897,0.02808c1.08615,0.25814 1.85536,1.34953 2.94402,1.59685c5.76448,1.3096 9.61369,-2.93855 13.28987,-6.38141c2.31345,-2.16662 4.28588,-3.37141 6.14493,-6.02204c0.55237,-0.42972 2.07318,-0.92487 1.56202,-1.40287c-1.42421,-1.33183 -4.53127,-1.5972 -6.30445,-1.18027c-1.74097,0.40936 -3.90549,1.96635 -5.59407,2.55363c-2.03697,0.70844 -5.70347,0.95427 -7.46728,2.05833c-1.00524,0.62923 -2.03384,3.11771 -2.57609,4.16419c-0.92538,1.78585 -1.59665,3.24333 -2.49792,4.58551z" fill="#000000" stroke="none" stroke-width="0.5"/><path d="M309.25072,150.73295c0.54225,-1.04648 1.57409,-3.56007 2.57933,-4.1893c1.76381,-1.10406 5.47937,-1.38106 7.51634,-2.0895c1.68858,-0.58728 3.88113,-2.13378 5.6221,-2.54314c1.77318,-0.41693 4.89384,-0.13524 6.31805,1.19659c0.51116,0.478 -1.00866,0.97515 -1.56103,1.40487c-1.85905,2.65063 -3.82821,3.88831 -6.14166,6.05493c-3.67618,3.44286 -7.61217,7.71151 -13.37665,6.40191c-1.08866,-0.24732 -1.86444,-1.34869 -2.95059,-1.60683c-0.04968,-0.01181 -0.23213,-0.0218 -0.49937,-0.0289c0.90127,-1.34218 1.5681,-2.81479 2.49348,-4.60064z" data-paper-data="{&quot;noHover&quot;:false,&quot;origItem&quot;:[&quot;Path&quot;,{&quot;applyMatrix&quot;:true,&quot;segments&quot;:[[[306.80238,155.31209],[0.90127,-1.34218],[0.26724,0.0071]],[[307.30135,155.34017],[-0.04968,-0.01181],[1.08615,0.25814]],[[310.24537,156.93702],[-1.08866,-0.24732],[5.76448,1.3096]],[[323.53524,150.55561],[-3.67618,3.44286],[2.31345,-2.16662]],[[329.68017,144.53357],[-1.85905,2.65063],[0.55237,-0.42972]],[[331.24219,143.1307],[0.51116,0.478],[-1.42421,-1.33183]],[[324.93774,141.95043],[1.77318,-0.41693],[-1.74097,0.40936]],[[319.34367,144.50406],[1.68858,-0.58728],[-2.03697,0.70844]],[[311.87639,146.56239],[1.76381,-1.10406],[-1.00524,0.62923]],[[309.3003,150.72658],[0.54225,-1.04648],[-0.92538,1.78585]]],&quot;closed&quot;:true,&quot;fillColor&quot;:[0,0,0,1],&quot;strokeWidth&quot;:0.5}]}" fill="#f2fff3" stroke="none" stroke-width="0.25"/><path d="M268.79264,180.25666c0.04458,0.11259 0.02142,0.17556 0.10192,0.29631c0.83205,1.24808 2.09463,0.40067 2.09463,0.40067c0.4524,-0.30168 2.59852,-2.28374 3.24095,-1.929c2.74827,1.51755 1.01027,7.12331 -2.06703,6.85429c-0.93031,-0.08132 -1.27344,-0.97438 -1.66012,-1.61551c-0.64312,-1.06631 -1.76553,-1.95781 -2.09638,-3.15829c-0.09197,-0.3337 0.06052,-0.63353 0.30324,-0.90452z" data-paper-data="{&quot;noHover&quot;:false,&quot;origItem&quot;:[&quot;Path&quot;,{&quot;applyMatrix&quot;:true,&quot;segments&quot;:[[[537.50246,360.45722],[0,0],[-0.48544,0.54198]],[[536.90702,362.24478],[-0.18394,-0.6674],[0.6617,2.40096]],[[541.06932,368.44942],[-1.28624,-2.13262],[0.77336,1.28226]],[[544.32156,371.6579],[-1.86062,-0.16264],[6.1546,0.53804]],[[548.40552,358.13292],[5.49654,3.0351],[-1.28486,-0.70948]],[[542.03494,361.98966],[0.9048,-0.60336],[0,0]],[[537.87468,361.1576],[1.6641,2.49616],[-0.161,-0.2415]],[[537.50246,360.4572],[0.08916,0.22518],[0,0]]],&quot;closed&quot;:true,&quot;fillColor&quot;:[0,0,0,1],&quot;strokeWidth&quot;:0.5}]}" fill="#f2fff3" stroke="none" stroke-width="0.25"/><path d="M272.18514,211.19297c0.82905,0.47187 2.41139,-0.08803 2.81956,0.77417c0.24091,0.50887 0.08971,1.15984 0.18698,1.71438c0.14225,0.81101 1.01292,2.13195 0.26784,2.48241c-2.41305,1.135 -5.35988,0.13148 -5.44184,-2.966c-0.02801,-1.05823 -0.02369,-2.73369 0.51051,-3.28396c0.52508,0.46306 1.05276,0.93512 1.65695,1.27901z" data-paper-data="{&quot;noHover&quot;:false,&quot;origItem&quot;:[&quot;Path&quot;,{&quot;applyMatrix&quot;:true,&quot;segments&quot;:[[[541.1139,419.90968],[1.05016,0.92612],[-1.0684,1.10054]],[[540.13534,426.39832],[-0.05602,-2.11646],[0.16392,6.19496]],[[550.85262,432.25304],[-4.8261,2.27],[1.49016,-0.70092]],[[550.28492,427.34542],[0.2845,1.62202],[-0.19454,-1.10908]],[[549.92426,423.98668],[0.48182,1.01774],[-0.81634,-1.7244]],[[544.40236,422.48062],[1.6581,0.94374],[-1.20838,-0.68778]]],&quot;closed&quot;:true,&quot;fillColor&quot;:[0,0,0,1],&quot;strokeWidth&quot;:0.5}]}" fill="#f2fff3" stroke="none" stroke-width="0.25"/><path d="M289.4509,218.20736c4.34958,-1.01369 8.72035,-0.57167 13.18964,-0.1698c7.32936,0.65904 14.63023,1.69886 19.97231,7.12515c1.45393,1.47686 1.13248,5.02533 1.20046,6.82841c0.04961,4.46892 -3.24982,8.76693 -8.01608,9.57607c-1.12529,0.19103 -3.44077,0.02615 -4.6893,0.21205c-2.86615,0.42676 -5.86303,1.43456 -8.7472,1.65965c-1.39574,0.10894 -2.68716,-0.84987 -4.0507,-1.16727c-1.70152,-0.39607 -3.64691,-0.27428 -5.50764,-0.23973c-2.08926,-1.03048 -4.14064,-2.13101 -6.22481,-3.16575c0.06407,-0.28615 0.13045,-0.57393 0.16959,-0.86019c0.06312,-6.70014 1.20824,-13.32206 2.70371,-19.79857z" data-paper-data="{&quot;noHover&quot;:false,&quot;origItem&quot;:[&quot;Path&quot;,{&quot;applyMatrix&quot;:true,&quot;segments&quot;:[[[578.98056,436.47628],[0,0],[-2.99094,12.95302]],[[573.587,475.9742],[0.12624,-13.40028],[-0.07828,0.57252]],[[573.2464,477.69128],[0.12814,-0.5723],[4.16834,2.06948]],[[585.67802,483.99562],[-4.17852,-2.06096],[3.72146,-0.0691]],[[596.67058,484.45688],[-3.40304,-0.79214],[2.72708,0.6348]],[[604.74288,486.78004],[-2.79148,0.21788],[5.76834,-0.45018]],[[622.16938,483.46988],[-5.7323,0.85352],[2.49706,-0.3718]],[[631.52524,483.06214],[-2.25058,0.38206],[9.5325,-1.61826]],[[647.52692,463.97426],[0.09922,8.93784],[-0.13596,-3.60616]],[[645.1301,450.35472],[2.90786,2.95372],[-10.68416,-10.85258]],[[605.30112,436.17304],[14.65872,1.31808],[-8.93858,-0.80374]],[[578.98058,436.47626],[8.69916,-2.02738],[0,0]]],&quot;closed&quot;:true,&quot;fillColor&quot;:[0,0,0,1],&quot;strokeWidth&quot;:0.5}]}" fill="#f2fff3" stroke="none" stroke-width="0.25"/><path d="M162.93711,312.47427v-265.67406h312.10191v265.67406z" fill="none" stroke="#000000" stroke-width="0"/></g></g></svg>