<svg version="1.1" xmlns="http://www.w3.org/2000/svg" xmlns:xlink="http://www.w3.org/1999/xlink" width="357.64661" height="322.51704" viewBox="0,0,357.64661,322.51704"><g transform="translate(-113.32468,-18.56187)"><g data-paper-data="{&quot;isPaintingLayer&quot;:true}" fill="#76ff00" fill-rule="nonzero" stroke="none" stroke-width="0.5" stroke-linecap="butt" stroke-linejoin="miter" stroke-miterlimit="10" stroke-dasharray="" stroke-dashoffset="0" style="mix-blend-mode: normal"><path d="M133.57386,41.61489c-3.00001,2.24999 -5.25,-0.75002 -5.25,-0.75002l-1.85998,-2.49572c-4.42058,-4.39723 -8.57695,-8.71886 -12.32921,-13.72052c0,0 -2.24999,-3.00001 0.75002,-5.25c3.00001,-2.24999 5.25,0.75002 5.25,0.75002c3.64528,4.86181 7.71875,9.01033 11.99512,13.30651l2.19407,2.90973c0,0 2.24999,3.00001 -0.75002,5.25z"/><path d="M448.2158,312.56761c2.73654,0 3.47611,1.99698 3.67598,3.07636c5.11436,6.76671 10.96308,13.40846 17.5855,18.69128c0,0 2.92826,2.34261 0.58565,5.27086c-2.34261,2.92826 -5.27086,0.58565 -5.27086,0.58565c-7.41903,-5.95064 -13.86314,-13.37171 -19.57631,-20.94858l-0.74996,-2.92558c0,0 0,-3.75 3.75,-3.75z"/></g></g></svg>