<svg version="1.1" xmlns="http://www.w3.org/2000/svg" xmlns:xlink="http://www.w3.org/1999/xlink" width="239.36828" height="253.05933" viewBox="0,0,239.36828,253.05933"><g transform="translate(-172.82513,-42.29875)"><g data-paper-data="{&quot;isPaintingLayer&quot;:true}" fill="#76ff00" fill-rule="nonzero" stroke="none" stroke-width="0.5" stroke-linecap="butt" stroke-linejoin="miter" stroke-miterlimit="10" stroke-dasharray="" stroke-dashoffset="0" style="mix-blend-mode: normal"><path d="M197.21436,235.26081c0.05896,-0.02948 0.1174,-0.05741 0.17533,-0.08382c-2.44095,-4.08244 -4.89401,-8.16192 -7.19453,-12.33173c-4.20324,-7.61857 -6.9782,-15.65956 -10.00339,-23.7576c-1.69439,-4.53567 -3.82595,-8.08521 -5.19497,-12.88867c-1.24534,-4.3695 -1.05091,-8.93298 -2.12456,-13.34215c-0.07162,-9.77912 -0.2689,-19.72613 1.3595,-29.35665c0.795,-4.7017 2.89205,-9.36265 4.14543,-13.96338c1.67082,-6.13302 3.19809,-13.44237 6.38463,-19.0191c2.62607,-4.59587 6.57364,-9.35721 9.91696,-13.51591c2.91332,-3.62383 6.38157,-6.18312 8.86037,-10.22275c2.76739,-2.14463 5.16086,-4.73266 7.76017,-7.07819c1.91391,-1.72705 4.31919,-2.81827 6.41842,-4.31458c3.27567,-2.33487 6.11102,-5.27239 9.49088,-7.45373c16.72812,-10.79623 36.61328,-17.85959 56.09565,-21.49052c6.6362,-1.23679 13.75456,-1.16739 20.49244,-2.08419c5.30196,-0.70693 9.83616,-0.97163 15.05573,-1.37208c1.41359,-0.10845 2.78004,-0.67394 4.19775,-0.68479c22.73934,-0.17413 43.01076,9.95406 58.95387,25.56027c7.10148,6.95141 11.51706,15.63952 17.37466,23.51189c1.6943,3.37229 3.84869,6.55453 5.05689,10.1299c3.06495,9.06997 5.12055,19.1236 6.28587,28.54556c0.72226,5.83964 1.8424,11.15524 1.35136,17.13256c-0.58229,7.08802 -2.09407,14.12871 -3.41173,21.16387c-1.13124,6.03987 -1.51028,12.14729 -2.68255,18.12211c-0.68903,6.58763 -2.3939,11.26374 -3.90005,17.69628c-3.43123,14.65422 -10.08296,27.24996 -19.88969,38.69415c-0.18939,0.22101 -9.68016,10.57736 -10.09377,10.91374c-1.19272,0.97002 -2.85825,1.19516 -4.11902,2.07492c-3.16309,2.20719 -5.8218,5.11063 -9.08731,7.16324c-8.68502,5.45918 -17.92261,10.01498 -26.95649,14.87985c-10.08825,5.6599 -19.83267,10.85719 -30.73446,14.7526c-1.50898,0.53919 -6.30615,2.2792 -7.11103,2.37725c-7.59422,0.92514 -14.82867,-0.17503 -22.18285,-1.71596c-7.93151,-1.6619 -15.9253,-2.3949 -23.60801,-5.21443c-5.27693,-1.93662 -10.11701,-4.55069 -15.19408,-6.89339c-6.27409,-2.89504 -11.59635,-5.24379 -16.59171,-10.19911c-1.06599,-1.06746 -2.10001,-2.15758 -3.1037,-3.26918c-0.96855,-0.45952 -1.48347,-1.31889 -1.75032,-1.99569c-5.88057,-6.90195 -10.67925,-14.56966 -14.76736,-22.73676l-1.35135,-2.70265c0,0 -1.67707,-3.35409 1.67702,-5.03116zM218.59137,262.28389c1.03761,1.16264 2.11084,2.29959 3.22197,3.40904c4.94537,4.99504 11.03506,7.06751 17.24314,10.09577c5.52369,2.69442 11.04344,5.27378 17.01135,6.84191c5.77209,1.51667 11.54132,2.0981 17.35746,3.3285c6.47366,1.3695 12.76368,2.39979 19.46006,1.65687c0.15694,-0.01741 5.09158,-1.7879 5.78987,-2.03716c10.52513,-3.75708 19.90285,-8.79703 29.64416,-14.26201c8.94207,-4.81454 18.04019,-9.35448 26.66467,-14.71078c3.11375,-1.93382 5.60679,-4.7379 8.60661,-6.84413c1.21482,-0.85295 2.83138,-1.05015 3.98909,-1.97913c3.44527,-2.76458 6.03957,-6.45172 8.91422,-9.8057c9.03132,-10.53721 15.08867,-22.01325 18.2751,-35.49373c1.50255,-6.35667 3.18179,-10.69724 3.79204,-17.12613c1.23125,-6.02884 1.57613,-12.25467 2.72285,-18.36429c1.29547,-6.90213 2.7563,-13.7729 3.34503,-20.72811c0.44985,-5.3144 -0.69695,-10.11553 -1.35134,-15.29979c-1.12066,-8.87823 -3.04618,-18.2852 -5.87621,-26.85989c-1.02697,-3.11161 -2.94347,-5.85519 -4.40265,-8.78906c-5.58615,-7.38112 -9.62944,-15.60846 -16.32041,-22.17399c-14.35036,-14.08133 -32.75308,-23.55179 -53.29693,-23.34845c-6.04599,0.05984 -12.57918,1.19648 -18.58445,1.99718c-6.7144,0.91042 -13.83682,0.83052 -20.44152,2.07716c-18.36214,3.46587 -37.18715,10.11715 -52.97039,20.29407c-3.35957,2.16622 -6.17411,5.08926 -9.42804,7.41114c-2.75042,1.96259 -3.4395,1.6817 -5.74374,3.79356c-2.35562,2.15895 -4.50933,4.57143 -7.1047,6.43532c-2.33724,3.99781 -5.88189,6.49721 -8.7072,10.04752c-2.97344,3.73646 -6.63684,8.02108 -9.00196,12.15973c-2.91294,5.09727 -4.24556,11.85615 -5.77754,17.46747c-1.16311,4.26024 -3.24914,8.70519 -3.96268,13.06365c-0.55071,3.36386 -0.86527,6.7532 -1.04777,10.15592c1.42263,0.5326 2.43536,1.90458 2.43536,3.5131c0,1.69171 -1.12021,3.12179 -2.65932,3.58892c-0.04877,3.37975 -0.03898,6.76435 -0.07148,10.14208c1.04646,4.06468 0.77441,8.30271 1.9295,12.33352c1.2833,4.47823 3.32003,7.80182 4.9265,12.07035c2.93561,7.8002 5.54409,15.55996 9.60487,22.905c7.49374,13.55451 19.11649,27.50458 21.81447,43.03455z"/><path d="M221.72218,151.74871c2.1778,-7.2667 5.07104,-14.36287 9.15531,-20.57539c7.00914,-10.66146 16.24024,-19.55137 25.78773,-27.90401c5.72781,-4.29422 11.76628,-6.87343 17.91338,-10.39045c4.57354,-2.61672 9.22274,-5.10286 14.34319,-6.47021c7.79873,-2.08255 14.5911,-2.321 22.50132,-1.52554c3.98926,0.40117 8.50768,-0.21492 12.39337,0.70587c7.15799,1.69623 15.54643,4.86797 21.32844,9.55067c3.89927,3.15791 5.79279,5.77451 8.73393,9.41659c4.91311,6.55423 7.5992,13.55135 10.63801,21.13403c4.96978,12.401 7.39961,25.09622 8.38759,38.36729c0.19784,2.65744 1.06716,5.23113 1.33054,7.88287c0.78837,7.93757 0.28207,16.83092 -0.69604,24.70756c-1.53465,7.68479 -2.71484,15.11259 -6.48531,22.13139c-4.23505,7.8836 -10.57816,16.70523 -17.88139,22.11557c-1.93994,1.43714 -4.30001,2.24298 -6.23155,3.6914c-0.80216,0.60152 -1.00664,1.83099 -1.85191,2.37024c-4.30637,2.74729 -9.09348,4.68177 -13.81343,6.63484c-1.94247,0.80378 -4.1735,0.52528 -6.24216,0.89934c-4.10085,0.74154 -8.04553,2.68548 -12.16218,3.37838c-3.60308,0.60646 -7.75931,0.88047 -11.40594,1.33922c-9.24798,1.80833 -18.53216,-0.69055 -27.52461,-2.68043c-7.86839,-1.74114 -17.33973,-3.65932 -24.35986,-7.95894c-15.87844,-9.72509 -25.36636,-27.93887 -32.01404,-44.61119c-4.15353,-16.41643 -0.72188,-32.56358 3.30844,-48.68489l3.31233,-3.12027c0,0 0.657,-0.3285 1.53483,-0.40395zM219.19381,191.01342c0.16243,3.54128 0.6345,7.08779 1.50897,10.63687c6.03139,15.02644 14.51747,31.68526 28.79677,40.52403c6.23312,3.85825 15.0032,5.45584 21.9795,7.01313c8.01918,1.79009 16.53404,4.30989 24.78468,2.61776c3.74997,-0.46571 7.87578,-0.75527 11.56704,-1.36357c4.08935,-0.6739 8.07958,-2.63252 12.16214,-3.37838c1.53871,-0.28111 3.23796,0.13822 4.66576,-0.50056c3.94891,-1.76668 8.10631,-3.17052 11.76514,-5.47877c0.72203,-0.45551 0.8191,-1.56216 1.50203,-2.07443c2.06853,-1.55162 4.54689,-2.49521 6.63081,-4.0261c6.49486,-4.77126 12.14248,-12.8126 15.90239,-19.77632c3.36731,-6.2366 4.30783,-12.92634 5.67677,-19.7605c0.90277,-7.16725 1.38289,-15.37584 0.65539,-22.58974c-0.28247,-2.80096 -1.14991,-5.52689 -1.37225,-8.33326c-0.98609,-12.44639 -3.16262,-24.31158 -7.82863,-35.95704c-2.78339,-6.9468 -5.15399,-13.43891 -9.63226,-19.40659c-6.8087,-8.46871 -14.79527,-13.56055 -25.34295,-16.16783c-3.69546,-0.91348 -8.10174,-0.26464 -11.93104,-0.64552c-6.83232,-0.67958 -12.61405,-0.63355 -19.39058,1.17716c-4.61379,1.23282 -8.67022,3.39438 -12.78095,5.74054c-5.89273,3.36323 -11.65798,5.72923 -17.12457,9.83127c-8.95068,7.83308 -17.61924,16.17155 -24.21235,26.15001c-6.30335,9.53991 -9.44328,21.51551 -11.64552,32.53823c-1.32503,6.6321 -2.65683,12.71651 -2.61842,19.47969c0,0 0,3.72856 -3.71789,3.74991z"/><path d="M242.83449,194.66518c-0.72098,-0.80871 -0.95941,-1.76238 -0.95941,-1.76238c-1.79218,-7.66962 0.52121,-18.54416 4.37406,-25.62998c1.86541,-3.43069 4.87552,-6.14171 6.80017,-9.53952c0.64273,-1.13469 0.70252,-2.57976 1.49526,-3.61522c2.33655,-3.05195 5.13129,-5.76697 8.10606,-8.20103c3.0315,-2.48047 6.60452,-4.2142 9.86392,-6.38653c7.86918,-5.24468 15.33712,-12.01128 25.53863,-12.09455c2.16211,-0.01765 4.30069,0.45191 6.45103,0.67787c6.40337,0.03945 12.9907,2.26505 17.39265,7.25993c4.17035,4.73208 6.4569,10.22762 9.36551,15.68076c4.04817,7.58963 9.75826,16.3139 9.88892,25.23252c0.09203,6.28145 -0.90609,14.90609 -2.88344,20.9217c-0.80589,2.45171 -2.24196,4.65241 -3.22569,7.03833c-1.65222,4.00728 -3.50761,8.10169 -6.43096,11.30202c-3.17261,3.4732 -7.80404,5.48824 -11.92575,7.54876c-13.64524,5.81796 -28.59497,6.96613 -42.97763,3.62668c-6.01627,-1.39689 -7.63104,-1.22825 -13.25166,-4.50044c-2.97924,-1.73444 -4.80591,-4.95115 -7.03231,-7.58312c-1.46758,-1.73491 -3.41915,-3.03388 -4.80986,-4.83098c-2.11425,-2.73206 -4.69339,-8.45379 -5.4394,-11.74225c-0.25408,-1.12001 -0.34489,-2.25671 -0.3401,-3.40257zM257.52756,164.24732c0.0322,0.03065 0.0644,0.06207 0.0966,0.09428c2.65165,2.65165 0,5.3033 0,5.3033l-0.7874,0.62906c-1.13046,1.881 -2.22249,3.78869 -3.20265,5.75221c-2.45763,5.32826 -2.2343,5.54468 -2.55917,10.74264c-0.20739,3.31831 -1.28617,6.72528 -0.52071,9.96075c1.42042,6.00383 4.8761,8.67462 8.66966,13.1565c1.68865,1.99505 2.84587,4.65964 5.12993,5.93039c4.84693,2.69662 5.71583,2.38314 11.07258,3.60767c12.71373,2.9063 26.0265,2.07719 38.10345,-3.13008c3.30154,-1.65097 7.14291,-3.19335 9.69587,-5.96475c2.28169,-2.47692 3.57013,-5.74768 4.85076,-8.86236c0.91997,-2.23751 2.29343,-4.28653 3.06016,-6.58107c1.74766,-5.23008 2.52873,-12.80211 2.52196,-18.26749c-0.00945,-7.63429 -5.58307,-15.60119 -9.03,-22.06477c-4.80337,-9.00714 -8.82373,-19.03496 -20.53914,-18.9512c-1.90371,-0.22448 -3.79433,-0.65397 -5.71113,-0.67344c-8.65529,-0.08791 -15.18664,6.49589 -21.75867,10.87838c-5.67665,3.78542 -11.50024,6.82025 -15.8138,12.43947c-0.68312,0.8899 -0.65114,2.16732 -1.20744,3.14153c-0.58369,1.02218 -1.34593,1.92815 -2.07086,2.859z"/></g></g></svg>