<svg version="1.1" xmlns="http://www.w3.org/2000/svg" xmlns:xlink="http://www.w3.org/1999/xlink" width="358.99977" height="358.17995" viewBox="0,0,358.99977,358.17995"><g transform="translate(-104.5943,3.90205)"><g data-paper-data="{&quot;isPaintingLayer&quot;:true}" fill="#76ff00" fill-rule="nonzero" stroke="none" stroke-width="0.5" stroke-linecap="butt" stroke-linejoin="miter" stroke-miterlimit="10" stroke-dasharray="" stroke-dashoffset="0" style="mix-blend-mode: normal"><path d="M222.87535,3.93252c0.62871,-0.21698 1.25536,-0.42997 1.879,-0.63915c4.42275,-1.48344 8.60094,-3.74028 13.14043,-4.81468c6.39406,-1.51334 13.80977,-1.49417 20.32706,-1.82152c19.28212,-0.96041 38.81587,-0.71082 58.03619,0.9591c14.26754,1.23961 28.56663,3.29009 42.03492,8.42464c14.81574,5.64824 27.94136,13.96092 40.36958,23.67559c4.13339,4.12145 8.74072,8.04683 12.50628,12.50521c4.80249,5.68609 9.1325,11.85721 13.66382,17.75006c3.30206,4.29425 6.51433,8.49302 9.09264,13.3066c10.63082,19.84723 17.15936,42.05334 22.02034,63.91854c2.70337,14.87428 6.7958,29.25535 7.50148,44.46464c0.62826,13.54084 -0.84643,27.24193 -2.73449,40.58652c-2.17645,15.38289 -5.01398,30.63214 -14.17508,43.54644c-3.2087,4.49202 -6.03073,9.56485 -9.63189,13.73667c-9.69449,11.23072 -21.19946,20.94196 -33.09653,29.67725c-5.46042,4.00925 -10.72562,8.39459 -16.31053,12.22895c-12.49551,8.57888 -26.79149,15.31292 -40.9345,20.61946c-28.04385,10.51156 -60.12113,16.20197 -89.71839,8.99891c-12.39063,-3.01549 -23.78052,-9.22542 -35.64357,-13.66742c-8.56801,-3.33191 -17.80762,-6.15909 -26.01772,-10.2857c-8.70353,-4.37462 -16.48794,-10.53908 -24.10178,-16.52408c-3.1463,-2.47321 -6.76082,-4.33718 -9.7792,-6.96499c-5.65762,-4.92555 -10.22343,-11.88329 -14.93932,-17.6807c-4.74462,-5.83273 -10.03591,-11.79303 -14.05631,-18.15835c-3.1903,-5.05107 -3.68963,-7.84174 -5.43044,-13.6301c-2.1835,-7.26032 -4.2454,-14.5607 -6.36143,-21.84095c-2.05811,-12.25542 -6.25565,-24.02265 -8.41599,-36.22817c-2.10671,-11.90252 -3.07941,-24.12147 -4.46395,-36.12087c-1.19234,-10.33358 -2.87427,-21.01443 -3.03462,-31.41488c-0.11998,-7.78238 1.30658,-15.07752 2.82785,-22.64394c3.15211,-9.49487 7.24122,-18.3247 12.37041,-26.95309c1.6786,-2.82377 3.91693,-5.27806 5.74267,-8.009c2.12864,-3.18403 3.71563,-6.86649 6.31426,-9.76089c3.8956,-4.33898 8.26195,-7.92565 12.50692,-11.83845c4.72338,-4.35377 8.71162,-10.04611 13.52745,-14.20164c4.53441,-3.91269 10.33377,-6.70217 15.38038,-9.84272c2.98336,-1.85657 5.61309,-4.22878 8.42419,-6.33711c7.53866,-5.63061 16.78422,-11.1495 25.94625,-13.7499c0.94724,-0.26885 1.97667,0.08279 2.95369,-0.03957c2.79334,-0.34984 5.53981,-1.02321 8.33326,-1.3722l2.93573,-0.00725c0,0 0.43614,0 1.01094,0.14874zM169.10743,36.39019c-2.21042,1.31757 -4.35271,2.72221 -6.24251,4.35566c-2.9941,2.58795 -5.24655,5.93307 -8.04555,8.73088c-5.65268,5.65025 -11.88048,10.65328 -17.27143,16.58038c-1.93185,2.12398 -4.83516,7.64469 -5.8479,9.15802c-6.9975,10.45632 -13.01599,20.64446 -17.02206,32.60548c-1.37007,6.88946 -2.68649,13.51423 -2.57755,20.5993c0.1561,10.15287 1.82205,20.58628 2.98614,30.67483c1.3635,11.81685 2.31714,23.84989 4.38016,35.57321c2.13228,12.11687 6.32945,23.79493 8.36051,35.96371c2.08235,7.11826 4.11378,14.25336 6.2346,21.36021c1.44405,4.839 1.93922,7.65394 4.60663,11.80873c5.26409,8.19938 12.10848,15.67082 18.24661,23.21725c1.44864,1.78101 7.41713,9.30057 9.29411,10.92264c2.93926,2.54009 6.45194,4.34124 9.50711,6.74066c7.21688,5.66789 14.57966,11.56919 22.82813,15.71622c7.98408,4.0141 17.0006,6.74385 25.33364,9.98457c11.51602,4.32468 22.59945,10.43199 34.6267,13.3596c28.17258,6.85763 58.74547,1.30301 85.42588,-8.70717c13.57425,-5.08757 27.34584,-11.53372 39.32664,-19.78257c5.51708,-3.79854 10.72309,-8.13108 16.1219,-12.09529c11.42191,-8.38681 22.42882,-17.67878 31.76833,-28.43094c3.47912,-4.00535 6.19392,-8.95985 9.28703,-13.29036c8.48807,-11.78997 10.85943,-26.15425 12.85195,-40.23727c1.82076,-12.86903 3.28391,-26.08261 2.67092,-39.14329c-0.69637,-14.83706 -4.72361,-28.86003 -7.36339,-43.37315c-4.68731,-21.10242 -10.96787,-42.59712 -21.22291,-61.75718c-2.40266,-4.48903 -5.39683,-8.369 -8.47492,-12.36903c-4.43888,-5.76839 -8.67031,-11.80955 -13.36321,-17.38511c-3.5558,-4.22459 -7.93423,-7.92306 -11.83842,-11.83503c-11.69885,-9.12256 -24.06272,-16.9276 -37.98833,-22.25444c-12.83899,-4.91118 -26.49413,-6.81321 -40.09669,-7.99253c-18.88067,-1.63693 -38.072,-1.89117 -57.01316,-0.94037c-6.05184,0.30117 -13.03301,0.2225 -18.97846,1.63025c-4.33617,1.0267 -8.30998,3.22952 -12.53533,4.64478c-5.88873,1.9724 -12.06525,4.30199 -17.62122,7.165c-4.8925,2.52112 -9.50663,6.50658 -14.13478,9.42964c-9.00163,5.68528 -18.53959,10.87657 -25.26364,19.34539c0,0 -2.34261,2.92826 -5.27086,0.58565c-2.92826,-2.34261 -0.58565,-5.27086 -0.58565,-5.27086c1.53094,-1.90134 3.1727,-3.6518 4.90101,-5.28748z"/><path d="M225.33649,39.81103c1.78489,-1.21495 3.60649,-2.36636 5.53032,-3.34141c0.29192,-0.14795 13.88786,-5.12444 14.4569,-5.33776c25.12598,-9.419 55.08151,-11.72096 79.12312,1.71144c8.73415,4.93494 18.38039,7.68549 27.18677,12.43598c2.20623,1.19012 4.10345,2.89821 6.29814,4.10949c2.03002,1.12039 4.33326,1.70102 6.33866,2.86492c0.2194,0.12734 12.14486,8.60756 12.53428,8.88426c6.27077,4.45554 12.68286,8.51515 18.05488,14.08977c3.43725,3.56689 5.11497,6.56583 7.93394,10.79064c10.40234,15.5901 15.53114,32.89192 18.59748,51.26989c1.91338,11.51741 1.74509,22.73589 2.19433,34.30993c0.33845,8.71962 0.5514,17.3074 -0.00517,26.03348c-1.2346,19.3564 -8.53734,39.85709 -20.10762,55.31428c-4.17279,5.52619 -9.63121,9.18559 -15.28875,13.07948c-4.91692,3.38415 -9.82764,6.70916 -15.24656,9.26868c-4.43654,2.09551 -9.34532,2.99542 -14.04492,4.40532c-2.10973,0.63293 -4.06922,1.70515 -6.17301,2.35753c-10.66977,3.30864 -21.9359,4.93444 -32.90673,6.87262c-6.9551,1.22873 -14.28288,3.69576 -21.33094,4.10157c-0.19191,0.01105 -9.74733,0.00944 -11.75233,0.00944c-6.56912,-0.00283 -13.3078,-0.07107 -19.7672,-1.4486c-3.79366,-0.80903 -7.49148,-2.03932 -11.29557,-2.79784c-13.55365,-2.70255 -26.07851,-6.74277 -37.43615,-15.03797c-1.58673,-1.15889 -2.8746,-2.67952 -4.31921,-4.01139c-7.3221,-6.75068 -14.93478,-13.79861 -20.21434,-22.36592c-3.50717,-5.6912 -6.67114,-11.82023 -10.04564,-17.61737c-3.33075,-7.84776 -7.40516,-15.66099 -9.96179,-23.81546c-5.24975,-16.74425 -8.14037,-34.15741 -8.95097,-51.65692c-0.7746,-16.72224 -0.7981,-32.52051 3.27995,-48.85983c1.84875,-7.39314 3.61452,-16.545 8.16504,-22.95869c2.72916,-3.84659 6.07987,-6.50695 9.14576,-9.91718c4.20436,-4.67656 8.57635,-9.27484 13.13111,-13.69078c0.38766,-0.55586 0.79126,-0.87874 0.79126,-0.87874c0.23503,-0.1878 0.47043,-0.37447 0.70618,-0.56006c6.22469,-5.92676 12.78783,-11.49803 19.72705,-16.45507l3.02082,-1.18174c0,0 1.32746,-0.44249 2.63091,0.024zM204.92579,63.057c-4.90412,4.68467 -9.59238,9.59605 -14.09371,14.59229c-2.78207,3.08796 -5.95086,5.57101 -8.4218,9.00174c-4.06245,5.64042 -5.49199,14.10027 -7.11585,20.59728c-3.91902,15.64904 -3.80267,30.7596 -3.06079,46.77347c0.78043,16.8459 3.59532,33.56932 8.61659,49.69443c2.41946,7.76974 6.35058,15.20782 9.50717,22.68724c3.26844,5.59018 6.3143,11.45614 9.67459,16.96102c4.90212,8.03073 12.1556,14.5538 18.97485,20.87724c1.25642,1.16507 2.35443,2.51837 3.73979,3.52671c10.45966,7.61313 21.94155,11.1745 34.39074,13.67138c3.87866,0.77792 7.65524,2.00808 11.52125,2.8466c5.88121,1.27562 12.08845,1.25689 18.07064,1.25419c3.74021,0 7.48559,0.20603 11.22064,0.00944c6.73823,-0.35467 13.91631,-2.83281 20.56096,-4.00662c10.642,-1.87996 21.60943,-3.42241 31.95813,-6.6409c2.12491,-0.66086 4.10669,-1.73826 6.23814,-2.37769c2.3824,-0.71471 4.89443,-0.94263 7.27142,-1.67512c8.56166,-2.63834 16.04522,-8.22376 23.25184,-13.35947c4.1071,-2.92688 7.28855,-5.07335 10.2421,-9.04427c10.70001,-14.23708 17.53033,-33.41312 18.62211,-51.28031c0.51933,-8.49896 0.32266,-16.82584 -0.00517,-25.31787c-0.43422,-11.2479 -0.2247,-22.1344 -2.09644,-33.32652c-2.88549,-17.3323 -7.64464,-33.63657 -17.4399,-48.34264c-2.46876,-3.70646 -4.12663,-6.67067 -7.14332,-9.79822c-5.01484,-5.19912 -11.09593,-8.96972 -16.94916,-13.12859c-7.92865,-5.63351 -15.86481,-10.75521 -24.39329,-15.37466c-8.82993,-4.78273 -18.51565,-7.56149 -27.30226,-12.49972c-21.8985,-12.45731 -49.92785,-9.84048 -72.80342,-1.22479c-4.55099,1.71405 -9.36623,2.8066 -13.70334,5.00635c-4.34,2.20122 -8.10714,5.38527 -12.18726,8.03737c-5.89742,3.83336 -11.62705,7.53764 -17.14528,11.86063z"/><path d="M289.11977,58.90534c4.88993,-0.10575 9.73496,-0.05278 14.75635,0.29253c3.78549,0.26032 12.29035,0.96952 15.82258,2.22883c2.54772,0.90831 4.7443,2.59913 7.11058,3.90934c5.34741,2.96088 12.15163,5.60805 16.91069,9.47627c5.46739,4.44396 9.79182,10.54326 14.1052,16.03178c2.86971,3.66407 6.63769,6.62973 9.08051,10.59992c4.63632,7.53519 9.89368,16.00559 13.153,24.24934c4.19405,10.60792 6.6384,21.53275 7.76988,32.84899c0.90809,9.08205 1.34629,19.23455 -0.82154,28.20361c-2.70312,11.18375 -9.26411,21.46318 -14.62668,31.4959c-7.07589,10.58956 -16.08945,19.11072 -25.80118,27.29384c-3.69403,3.11259 -7.14537,6.59474 -11.26729,9.11345c-2.02175,1.23539 -4.32999,1.9254 -6.4821,2.9164c-8.11394,3.7363 -15.89171,7.12129 -24.38111,9.95159c-1.20072,0.40031 -11.35125,3.79663 -11.71332,3.85337c-2.46405,0.38616 -4.98925,0.12214 -7.48222,0.04634c-11.21542,-0.34097 -22.58054,-3.10669 -30.78235,-11.11397c-10.80141,-9.03256 -17.58314,-20.41417 -23.7983,-32.84878c-7.91283,-15.83112 -14.62421,-32.90466 -17.90352,-50.33353c-1.77553,-9.43658 -2.38098,-19.29542 -3.43259,-28.83886c-0.01604,-21.5394 0.04481,-45.11233 9.84962,-64.72226c2.29019,-4.58045 4.27292,-8.35673 6.97684,-12.54435c1.09876,-1.70168 1.71315,-3.74861 3.09537,-5.22931c2.74984,-2.94574 7.84412,-4.63681 11.27607,-6.23791c5.0967,-2.37776 10.10909,-3.86634 15.63553,-4.99546c4.39601,-1.083 5.21765,-1.44326 11.16492,-1.43896c2.55438,0.00185 4.996,1.1484 7.5417,1.35879c3.72476,0.30784 6.84343,0.01063 10.56129,0.73575l2.59183,1.70114c0,0 0.81643,0.8164 1.09024,1.99622zM255.87891,62.28473c-4.23023,0.95584 -8.14736,2.18018 -12.14374,4.04578c-0.79535,0.37129 -7.63363,3.01795 -8.99428,4.5729c-1.05798,1.20906 -1.45812,2.86802 -2.31004,4.23015c-2.51279,4.01771 -4.3197,7.34611 -6.53667,11.77998c-9.19352,18.38678 -9.05341,40.75998 -9.0693,60.95341c1.03535,9.23648 1.60136,18.78511 3.32417,27.9179c3.15487,16.72431 9.63419,33.12586 17.23162,48.31512c5.80855,11.61282 12.01917,22.25532 22.14764,30.66473c6.74993,6.95628 16.62041,8.77976 25.9744,9.1563c2.00886,0.08087 4.04585,0.36268 6.03129,0.04634c3.66361,-0.58372 7.02343,-2.39235 10.54293,-3.56533c8.2466,-2.74843 15.73875,-6.05817 23.63291,-9.65674c1.88097,-0.85744 3.91499,-1.41314 5.68015,-2.48901c3.80472,-2.31899 6.94681,-5.58305 10.35425,-8.45412c9.03903,-7.61619 17.63209,-15.53289 24.19882,-25.40886c4.95533,-9.32712 11.23768,-18.92793 13.7517,-29.31491c1.98074,-8.18369 1.49978,-17.50333 0.67102,-25.78975c-1.05993,-10.59788 -3.33651,-20.78024 -7.23619,-30.72513c-3.08062,-7.85614 -8.17185,-15.83197 -12.52259,-23.04804c-2.25212,-3.73532 -5.96893,-6.59819 -8.67923,-10.03771c-3.88569,-4.94662 -7.81167,-10.65096 -12.72974,-14.68194c-4.44707,-3.64494 -11.03751,-6.09425 -16.04304,-8.91024c-2.00048,-1.12542 -3.82971,-2.61929 -5.98845,-3.39925c-2.59116,-0.93619 -11.25209,-1.63314 -13.80033,-1.8058c-7.45102,-0.50485 -14.45138,-0.34905 -21.87242,0.00483c-7.52735,0.35894 -14.26772,0.48905 -21.58176,2.60069c-3.2597,0.94111 -6.75126,1.83697 -9.35367,4.01385c0,0 -2.92826,2.34261 -5.27086,-0.58565c-2.34261,-2.92826 0.58565,-5.27086 0.58565,-5.27086c3.058,-2.37048 6.43908,-4.00914 10.00576,-5.15863z"/></g></g></svg>