<svg version="1.1" xmlns="http://www.w3.org/2000/svg" xmlns:xlink="http://www.w3.org/1999/xlink" width="312.29115" height="324.3639" viewBox="0,0,312.29115,324.3639"><g transform="translate(-137.98297,3.95318)"><g data-paper-data="{&quot;isPaintingLayer&quot;:true}" fill="#76ff00" fill-rule="nonzero" stroke="none" stroke-width="0.5" stroke-linecap="butt" stroke-linejoin="miter" stroke-miterlimit="10" stroke-dasharray="" stroke-dashoffset="0" style="mix-blend-mode: normal"><path d="M211.37005,15.76938c2.14727,-1.46161 4.33869,-2.84679 6.65311,-4.0198c0.35119,-0.17799 16.70743,-6.16482 17.392,-6.42145c30.22716,-11.33128 66.26438,-14.1006 95.18702,2.0589c10.50739,5.93685 22.11205,9.24583 32.70634,14.96078c2.65415,1.43174 4.93655,3.48662 7.57681,4.94382c2.44216,1.34786 5.21302,2.04637 7.62556,3.44657c0.26394,0.15319 14.61056,10.3551 15.07904,10.68798c7.54389,5.36012 15.25779,10.24393 21.72046,16.95033c4.13509,4.29105 6.15343,7.89885 9.54472,12.9814c12.51427,18.75527 18.68434,39.56977 22.37322,61.67891c2.30184,13.85572 2.09939,27.35182 2.63983,41.27567c0.40716,10.48991 0.66335,20.82122 -0.00622,31.3189c-1.48525,23.28622 -10.27063,47.94904 -24.18995,66.54441c-5.01997,6.64814 -11.58658,11.05049 -18.39273,15.73493c-5.91517,4.07121 -11.82289,8.07128 -18.34198,11.15045c-5.33726,2.52095 -11.24264,3.60356 -16.89638,5.29971c-2.53806,0.76143 -4.89537,2.05134 -7.42628,2.83617c-12.83599,3.98037 -26.38942,5.93625 -39.58759,8.26793c-8.36715,1.47819 -17.18265,4.44609 -25.66163,4.93429c-0.23087,0.01329 -11.72627,0.01136 -14.13834,0.01136c-7.90281,-0.0034 -16.0096,-0.0855 -23.78042,-1.7427c-4.56386,-0.97328 -9.01243,-2.45335 -13.58884,-3.36587c-16.30537,-3.25123 -31.37308,-8.11171 -45.03659,-18.09104c-1.90887,-1.39417 -3.45821,-3.22353 -5.19611,-4.8258c-8.80866,-8.12123 -17.9669,-16.60006 -24.31834,-26.90674c-4.21921,-6.84665 -8.02554,-14.22002 -12.08515,-21.19412c-4.00697,-9.44104 -8.90859,-18.84055 -11.98427,-28.65057c-6.31558,-20.14374 -9.79306,-41.09219 -10.76823,-62.14452c-0.93186,-20.11726 -0.96013,-39.12296 3.94586,-58.77955c2.22409,-8.89413 4.34835,-19.90403 9.82274,-27.61986c3.28325,-4.62754 7.31423,-7.82802 11.00257,-11.93061c5.05795,-5.62601 10.31756,-11.15786 15.79704,-16.47034c0.46636,-0.66871 0.9519,-1.05715 0.9519,-1.05715c0.28275,-0.22593 0.56594,-0.4505 0.84955,-0.67377c7.48845,-7.13003 15.38407,-13.83241 23.73212,-19.79585l3.63412,-1.42166c0,0 1.59697,-0.53233 3.16505,0.02887zM186.81549,43.73484c-5.89977,5.63577 -11.53986,11.54428 -16.95507,17.55488c-3.3469,3.71489 -7.15903,6.70206 -10.13163,10.82931c-4.88723,6.78556 -6.607,16.96296 -8.56054,24.77902c-4.71468,18.82617 -4.5747,37.00454 -3.6822,56.26961c0.93888,20.26602 4.32526,40.3847 10.36597,59.7836c2.91067,9.34718 7.6399,18.29537 11.43735,27.2933c3.93201,6.72512 7.59625,13.78201 11.63876,20.40452c5.89737,9.66116 14.62348,17.50857 22.8272,25.11582c1.5115,1.40161 2.83244,3.02966 4.49906,4.24272c12.58322,9.15878 26.39621,13.44319 41.37289,16.447c4.66612,0.93586 9.20944,2.41577 13.86034,3.42453c7.07524,1.5346 14.5427,1.51207 21.73941,1.50882c4.49956,0 9.00534,0.24786 13.4987,0.01136c8.10625,-0.42668 16.74166,-3.40794 24.73533,-4.82006c12.80258,-2.26164 25.99666,-4.11724 38.4464,-7.98916c2.55632,-0.79503 4.94045,-2.09117 7.50463,-2.86042c2.86608,-0.85981 5.88812,-1.13401 8.74769,-2.01521c10.29988,-3.17399 19.30279,-9.89338 27.97252,-16.07176c4.94094,-3.52111 8.7683,-6.10336 12.32149,-10.88047c12.87237,-17.12755 21.08941,-40.19679 22.40285,-61.69145c0.62477,-10.22445 0.38817,-20.24189 -0.00622,-30.45801c-0.52238,-13.53149 -0.27032,-26.62822 -2.52207,-40.09261c-3.47131,-20.85117 -9.19669,-40.4656 -20.98062,-58.15736c-2.96998,-4.45896 -4.96444,-8.02498 -8.59359,-11.78749c-6.03297,-6.25467 -13.34867,-10.79079 -20.39025,-15.79401c-9.53836,-6.77725 -19.08575,-12.93878 -29.34572,-18.49609c-10.62262,-5.75374 -22.27477,-9.09665 -32.84528,-15.03746c-26.34442,-14.98644 -60.06441,-11.83833 -87.58427,-1.47345c-5.47495,2.06204 -11.2678,3.37641 -16.48545,6.02276c-5.22112,2.64812 -9.75308,6.47861 -14.66157,9.66915c-7.09474,4.61162 -13.98762,9.06796 -20.62618,14.26862z"/><path d="M288.10287,38.7403c5.8827,-0.12722 11.71139,-0.0635 17.75224,0.35192c4.55404,0.31317 14.78559,1.16636 19.03494,2.68134c3.06497,1.09272 5.70751,3.12682 8.5542,4.70303c6.43306,3.56201 14.6187,6.74662 20.34397,11.40018c6.5774,5.34619 11.7798,12.6838 16.9689,19.28662c3.45233,4.40796 7.9853,7.97572 10.92407,12.75196c5.5776,9.06501 11.90234,19.25511 15.82338,29.17254c5.04554,12.76158 7.98615,25.90442 9.34735,39.51813c1.09245,10.92592 1.61962,23.13963 -0.98833,33.92962c-3.25192,13.45432 -11.14495,25.82072 -17.59625,37.89033c-8.51247,12.7395 -19.356,22.99066 -31.03944,32.83515c-4.44401,3.74452 -8.59605,7.93363 -13.55482,10.9637c-2.43221,1.4862 -5.20908,2.3163 -7.79812,3.5085c-9.76127,4.49486 -19.11811,8.56708 -29.33106,11.972c-1.4445,0.48158 -13.65583,4.56744 -14.09141,4.6357c-2.96431,0.46456 -6.00219,0.14694 -9.00129,0.05575c-13.49242,-0.4102 -27.16493,-3.73742 -37.03191,-13.37037c-12.99436,-10.86639 -21.15294,-24.55874 -28.62993,-39.51787c-9.51932,-19.04522 -17.59328,-39.5851 -21.53837,-60.55245c-2.13601,-11.35243 -2.86438,-23.21285 -4.12949,-34.69384c-0.0193,-25.91242 0.05391,-54.27122 11.84933,-77.86244c2.75515,-5.51039 5.14043,-10.05335 8.39331,-15.09115c1.32183,-2.04716 2.06096,-4.50967 3.7238,-6.29099c3.30812,-3.5438 9.43667,-5.57819 13.56538,-7.50436c6.13145,-2.8605 12.16148,-4.6513 18.80992,-6.00966c5.28851,-1.30288 6.27696,-1.73628 13.43167,-1.7311c3.07298,0.00223 6.01031,1.38155 9.07285,1.63466c4.48098,0.37034 8.23281,0.01279 12.70549,0.88512l3.11803,2.04651c0,0 0.98218,0.98215 1.31158,2.4015zM248.11332,42.80578c-5.08907,1.1499 -9.80147,2.62281 -14.60921,4.86717c-0.95683,0.44667 -9.18344,3.63067 -10.82034,5.50131c-1.27278,1.45453 -1.75415,3.4503 -2.77903,5.08897c-3.02295,4.8334 -5.1967,8.83755 -7.86377,14.1716c-11.06003,22.11974 -10.89147,49.03524 -10.91059,73.32842c1.24555,11.11171 1.92647,22.59894 3.99906,33.58591c3.79538,20.11975 11.59016,39.85121 20.73005,58.12425c6.98783,13.9705 14.45935,26.77369 26.64414,36.89041c8.12033,8.36857 19.99475,10.56226 31.24783,11.01525c2.41671,0.09729 4.86725,0.43631 7.25579,0.05575c4.40741,-0.70223 8.44936,-2.87805 12.6834,-4.28918c9.92086,-3.30643 18.9341,-7.28812 28.43096,-11.61729c2.26285,-1.03152 4.70983,-1.70004 6.83336,-2.99434c4.57717,-2.7898 8.35718,-6.71654 12.45641,-10.17051c10.87417,-9.16246 21.21183,-18.68644 29.11176,-30.56747c5.96138,-11.22075 13.5192,-22.77076 16.54363,-35.26654c2.38288,-9.84518 1.80427,-21.05693 0.80725,-31.02569c-1.27512,-12.7495 -4.0139,-24.99913 -8.70531,-36.96307c-3.70606,-9.45113 -9.83093,-19.04624 -15.06498,-27.72735c-2.70935,-4.49368 -7.18077,-7.93778 -10.44132,-12.07561c-4.67458,-5.9509 -9.39763,-12.81336 -15.31418,-17.66273c-5.34993,-4.38495 -13.27839,-7.33153 -19.30016,-10.71923c-2.40663,-1.35391 -4.60723,-3.15107 -7.20425,-4.08938c-3.11723,-1.12626 -13.53654,-1.96471 -16.60213,-2.17242c-8.96376,-0.60735 -17.38536,-0.41992 -26.31305,0.00581c-9.05558,0.43181 -17.16441,0.58834 -25.96338,3.12869c-3.9215,1.13218 -8.12193,2.20992 -11.25269,4.82876c0,0 -3.52277,2.81822 -6.34097,-0.70455c-2.81822,-3.52277 0.70455,-6.34097 0.70455,-6.34097c3.67885,-2.85174 7.74637,-4.82309 12.03717,-6.20596z"/></g></g></svg>