<svg version="1.1" xmlns="http://www.w3.org/2000/svg" xmlns:xlink="http://www.w3.org/1999/xlink" width="154.98087" height="188.89398" viewBox="0,0,154.98087,188.89398"><g transform="translate(-223.97799,-70.03999)"><g data-paper-data="{&quot;isPaintingLayer&quot;:true}" fill="#76ff00" fill-rule="nonzero" stroke="none" stroke-width="0.5" stroke-linecap="butt" stroke-linejoin="miter" stroke-miterlimit="10" stroke-dasharray="" stroke-dashoffset="0" style="mix-blend-mode: normal"><path d="M292.96385,75.04799c4.22809,-0.09144 8.41737,-0.04564 12.75912,0.25294c3.27314,0.22508 10.6269,0.8383 13.68105,1.92717c2.2029,0.78537 4.10218,2.24735 6.14819,3.38022c4.62365,2.56014 10.50694,4.84902 14.62189,8.19369c4.7274,3.84248 8.46654,9.11627 12.19611,13.86194c2.48131,3.16815 5.7393,5.73241 7.85149,9.16526c4.0088,6.51532 8.55461,13.83929 11.37279,20.96728c3.6264,9.17217 5.73991,18.61837 6.71825,28.403c0.78518,7.85282 1.16408,16.63122 -0.71035,24.38635c-2.33726,9.67007 -8.01025,18.55821 -12.64701,27.23304c-6.11819,9.1563 -13.9118,16.52415 -22.30908,23.59972c-3.19406,2.69131 -6.17827,5.70216 -9.7423,7.87998c-1.74811,1.06818 -3.74394,1.6648 -5.60477,2.52167c-7.01575,3.2306 -13.74082,6.15745 -21.08121,8.60467c-1.03821,0.34613 -9.8149,3.28277 -10.12797,3.33183c-2.13055,0.3339 -4.31397,0.10561 -6.46953,0.04007c-9.69745,-0.29483 -19.52434,-2.68621 -26.61607,-9.60973c-9.33948,-7.81003 -15.20332,-17.65119 -20.57728,-28.40281c-6.84185,-13.68843 -12.64488,-28.45113 -15.48034,-43.52107c-1.53522,-8.15937 -2.05872,-16.68385 -2.968,-24.93562c-0.01387,-18.62412 0.03875,-39.00653 8.51651,-55.96233c1.98022,-3.9605 3.6946,-7.22568 6.03255,-10.84651c0.95004,-1.47136 1.48128,-3.24125 2.67642,-4.52154c2.37766,-2.54705 6.78245,-4.00923 9.74989,-5.39363c4.40688,-2.05594 8.74086,-3.34305 13.51932,-4.31934c3.80103,-0.93642 4.51146,-1.24792 9.65379,-1.2442c2.20865,0.0016 4.31981,0.99296 6.52096,1.17489c3.22063,0.26618 5.91719,0.00919 9.13186,0.63617l2.24103,1.4709c0,0 0.70593,0.7059 0.94267,1.72604zM264.22203,77.96998c-3.65768,0.82647 -7.04464,1.8851 -10.50013,3.4982c-0.68771,0.32103 -6.60044,2.60948 -7.77694,3.95398c-0.91479,1.04542 -1.26077,2.47984 -1.99738,3.65761c-2.1727,3.47393 -3.73504,6.35184 -5.65195,10.1856c-7.94921,15.89819 -7.82806,35.24326 -7.8418,52.70358c0.89522,7.98636 1.38462,16.24261 2.87426,24.13931c2.72787,14.46073 8.33023,28.64239 14.89938,41.77584c5.02239,10.04107 10.39242,19.24314 19.15003,26.51437c5.83635,6.01477 14.37089,7.59145 22.45886,7.91703c1.73697,0.06993 3.49825,0.31359 5.21498,0.04007c3.16775,-0.50472 6.07283,-2.06855 9.11598,-3.08278c7.13045,-2.37644 13.60857,-5.23821 20.43428,-8.34973c1.62638,-0.74139 3.38511,-1.22187 4.91137,-2.15213c3.28976,-2.00512 6.00658,-4.8274 8.95284,-7.30988c7.81563,-6.58536 15.24565,-13.43057 20.92359,-21.96986c4.28464,-8.06473 9.7167,-16.3661 11.89046,-25.34724c1.71266,-7.07606 1.29679,-15.13432 0.5802,-22.2992c-0.91647,-9.16349 -2.88492,-17.96771 -6.2568,-26.56659c-2.66367,-6.79284 -7.06581,-13.68917 -10.82771,-19.92857c-1.9473,-3.22976 -5.16106,-5.70515 -7.50452,-8.67914c-3.35977,-4.27711 -6.75439,-9.20939 -11.00681,-12.69479c-3.84517,-3.15161 -9.54362,-5.26941 -13.87167,-7.70427c-1.72972,-0.9731 -3.31137,-2.26478 -5.17794,-2.93917c-2.24045,-0.80948 -9.72916,-1.41211 -11.9325,-1.56139c-6.44256,-0.43652 -12.49544,-0.30181 -18.91207,0.00417c-6.50855,0.31036 -12.33663,0.42286 -18.66075,2.24869c-2.81851,0.81374 -5.8375,1.58834 -8.08768,3.47059c0,0 -2.53193,2.02555 -4.55746,-0.50638c-2.02555,-2.53193 0.50638,-4.55746 0.50638,-4.55746c2.64411,-2.04964 5.56757,-3.46651 8.65151,-4.46043z"/></g></g></svg>