<svg version="1.1" xmlns="http://www.w3.org/2000/svg" xmlns:xlink="http://www.w3.org/1999/xlink" width="359.59392" height="326.56633" viewBox="0,0,359.59392,326.56633"><g transform="translate(-113.32468,-18.56186)"><g data-paper-data="{&quot;isPaintingLayer&quot;:true}" fill="#76ff00" fill-rule="nonzero" stroke="none" stroke-width="0.5" stroke-linecap="butt" stroke-linejoin="miter" stroke-miterlimit="10" stroke-dasharray="" stroke-dashoffset="0" style="mix-blend-mode: normal"><path d="M172.59318,76.87019c-3.12019,2.08013 -5.20031,-1.04006 -5.20031,-1.04006l-1.8692,-3.19764c-0.24514,-1.43761 -1.33995,-2.65333 -2.392,-3.66328c-4.39677,-4.22078 -8.74599,-6.94763 -13.67637,-10.3822c-4.5207,-3.14919 -4.9262,-4.54612 -9.10195,-8.35542c-1.62405,-1.48153 -4.02222,-2.64821 -5.55831,-4.19426c-1.08644,-1.09349 -1.97464,-2.35036 -2.79747,-3.661c-2.1782,0.48256 -3.67371,-1.51147 -3.67371,-1.51147l-1.85998,-2.49572c-4.42058,-4.39723 -8.57695,-8.71886 -12.32921,-13.72052c0,0 -2.24999,-3.00001 0.75002,-5.25c3.00001,-2.24999 5.25,0.75002 5.25,0.75002c0.37669,0.5024 0.75795,0.99718 1.14353,1.4853c0.74138,0.34632 1.21083,0.81577 1.21083,0.81577c3.79528,3.8117 9.35499,6.15546 12.49065,10.51057c2.71255,3.76746 2.09841,4.78099 5.03516,7.69156c1.55083,1.537 3.63453,2.44769 5.2525,3.91385c3.1847,2.88589 4.99989,5.47812 8.46562,7.86084c7.136,4.90607 16.50797,9.5184 19.06676,18.38692l0.83351,0.85642c0,0 2.08013,3.12019 -1.04006,5.20031z"/><path d="M416.72125,288.47034c2.84722,-2.44046 5.28768,0.40677 5.28768,0.40677l3.81317,4.47403c2.21009,1.7734 3.90246,4.11781 6.00893,6.01312c1.15637,1.04045 2.69467,1.5802 3.89732,2.56679c1.97005,1.61613 3.38815,3.84861 5.40542,5.40541c1.28576,0.99227 2.79255,1.67979 4.05404,2.70273c0.93143,0.7553 1.7463,1.6276 2.50797,2.55406c0.16479,-0.01681 0.33798,-0.02565 0.52002,-0.02565v0.00001c2.73654,0 3.47611,1.99698 3.67598,3.07636c3.46622,4.58608 7.26975,9.11477 11.42285,13.20191c2.84767,2.12259 5.80311,4.18192 7.62638,7.02897c0.78976,1.23322 1.13499,2.7 1.70248,4.05c0,0 1.39272,3.48179 -2.08907,4.8745c-3.48179,1.39272 -4.8745,-2.08907 -4.8745,-2.08907c-0.46331,-1.25378 -1.13115,-2.36141 -1.93472,-3.37317c-1.94176,-1.61305 -3.81587,-3.32499 -5.62686,-5.11136c-1.86358,-1.44246 -3.73916,-2.8863 -5.26437,-4.59641c-1.87505,-2.10237 -4.07565,-3.89589 -5.97959,-5.97213c-2.47277,-2.69655 -3.63825,-5.61035 -6.44147,-7.81794c-1.27597,-1.00485 -2.77549,-1.70123 -4.05407,-2.70275c-2.00598,-1.57131 -3.43109,-3.79447 -5.4054,-5.4054c-1.31155,-1.07015 -2.95272,-1.70607 -4.21079,-2.83861c-2.15505,-1.94004 -3.88622,-4.34102 -6.15323,-6.14896l-4.29494,-4.98551c0,0 -2.44046,-2.84722 0.40677,-5.28768z"/></g></g></svg>