<svg version="1.1" xmlns="http://www.w3.org/2000/svg" xmlns:xlink="http://www.w3.org/1999/xlink" width="359.59392" height="326.56634" viewBox="0,0,359.59392,326.56634"><g transform="translate(-113.32467,-18.56185)"><g data-paper-data="{&quot;isPaintingLayer&quot;:true}" fill="#76ff00" fill-rule="nonzero" stroke="none" stroke-width="0.5" stroke-linecap="butt" stroke-linejoin="miter" stroke-miterlimit="10" stroke-dasharray="" stroke-dashoffset="0" style="mix-blend-mode: normal"><path d="M210.10412,117.20671c-3.59185,1.07755 -4.6694,-2.51429 -4.6694,-2.51429l-1.75603,-6.09234c-0.67783,-0.8229 -1.35567,-1.6458 -2.0335,-2.4687c-4.67956,-3.69909 -9.57111,-6.48123 -14.72323,-9.51605c-1.04807,-0.61736 -2.30547,-0.9106 -3.2259,-1.70584c-2.1514,-1.85877 -3.68787,-4.33648 -5.69951,-6.34566c-3.95334,-3.94848 -8.58727,-7.94935 -11.81499,-12.53761c-1.98087,-2.81585 -3.55378,-5.94705 -5.85139,-8.51099c-2.02723,-2.26222 -4.56898,-4.00813 -6.76984,-6.10167c-1.33057,-0.91862 -2.694,-1.8436 -4.10503,-2.82654c-4.5207,-3.14919 -4.9262,-4.54612 -9.10195,-8.35542c-1.62405,-1.48153 -4.02222,-2.64821 -5.55831,-4.19426c-1.08644,-1.09349 -1.97464,-2.35036 -2.79747,-3.661c-2.1782,0.48256 -3.67371,-1.51147 -3.67371,-1.51147l-1.85998,-2.49572c-4.42058,-4.39723 -8.57695,-8.71886 -12.32921,-13.72052c0,0 -2.24999,-3.00001 0.75002,-5.25c3.00001,-2.24999 5.25,0.75002 5.25,0.75002c0.37669,0.5024 0.75795,0.99718 1.14353,1.4853c0.74138,0.34632 1.21083,0.81577 1.21083,0.81577c3.79528,3.8117 9.35499,6.15546 12.49065,10.51057c2.71255,3.76746 2.09841,4.78099 5.03516,7.69156c1.55083,1.537 3.63453,2.44769 5.2525,3.91385c0.09712,0.08801 0.19297,0.17575 0.28763,0.26321c0.34405,-0.6137 0.94225,-1.18713 1.94373,-1.58772c3.48179,-1.39272 4.8745,2.08907 4.8745,2.08907c0.73591,1.84475 1.95684,5.1512 3.03498,6.77259c0.77721,1.16882 1.68179,2.20493 2.65335,3.17197c6.17965,4.00237 12.67458,8.38638 14.73818,15.53863l0.83351,0.85642c0,0 0.7837,1.17555 0.66747,2.56458c2.75958,3.20056 6.11126,6.13482 8.99913,9.02608c1.82401,1.82615 3.184,4.09968 5.1113,5.81646c0.59654,0.53138 1.48749,0.59769 2.1795,0.99687c3.19176,1.84112 6.44259,3.58116 9.59661,5.4862c1.34979,0.81528 5.81545,4.5041 6.76124,5.26802c1.12397,1.42935 2.24793,2.85871 3.3719,4.28806l2.29803,7.42117c0,0 1.07755,3.59185 -2.51429,4.6694z"/><path d="M378.78394,259.65848c1.92936,-3.2156 5.14496,-1.28624 5.14496,-1.28624l3.75682,2.28686c1.63116,1.62898 3.76042,2.67693 5.52019,4.16606c3.94202,3.33577 8.02419,7.3209 11.71555,11.00291c4.09349,4.09342 8.18112,8.19736 12.31298,12.25472c2.62113,-1.71797 4.7745,0.79432 4.7745,0.79432l3.81317,4.47403c2.21009,1.7734 3.90246,4.11781 6.00893,6.01312c1.15637,1.04045 2.69467,1.5802 3.89732,2.56679c1.97005,1.61613 3.38815,3.84861 5.40542,5.40541c1.28576,0.99227 2.79255,1.67979 4.05404,2.70273c0.93143,0.7553 1.7463,1.6276 2.50797,2.55406c0.16479,-0.01681 0.33798,-0.02565 0.52002,-0.02565v0.00001c2.73654,0 3.47611,1.99698 3.67598,3.07636c1.53012,2.02447 3.12598,4.03776 4.78861,6.00682c5.08049,3.62951 10.13055,7.33949 14.45729,11.60968c0,0 2.11062,2.11055 0.68288,4.44876c0.27884,0.73616 0.51901,1.49264 0.82293,2.21562c0,0 1.39272,3.48179 -2.08907,4.8745c-3.48179,1.39272 -4.8745,-2.08907 -4.8745,-2.08907c-0.46331,-1.25378 -1.13115,-2.36141 -1.93472,-3.37317c-1.94176,-1.61305 -3.81587,-3.32499 -5.62686,-5.11136c-1.86358,-1.44246 -3.73916,-2.8863 -5.26437,-4.59641c-1.43013,-1.60351 -3.04963,-3.02734 -4.58245,-4.53399c-1.90842,-1.49484 -3.81462,-2.98761 -5.72585,-4.45821c-15.46323,-11.89826 -29.17162,-25.75013 -42.92749,-39.50575c-3.46834,-3.47827 -7.339,-7.27199 -11.05317,-10.41454c-1.75168,-1.48209 -3.87348,-2.52262 -5.49488,-4.14621l-2.99994,-1.7672c0,0 -3.2156,-1.92936 -1.28624,-5.14496z"/><path d="M403.04316,53.99263c-3.2156,-1.92936 -1.28624,-5.14496 -1.28624,-5.14496l2.18531,-3.62051c5.64441,-6.79086 11.72794,-13.15383 17.97329,-19.39908c0,0 2.65167,-2.65163 5.3033,0.00004c2.65163,2.65167 -0.00004,5.3033 -0.00004,5.3033c-5.94495,5.94486 -11.77107,11.98959 -17.16193,18.43871l-1.86874,3.13625c0,0 -1.92936,3.2156 -5.14496,1.28624z"/><path d="M177.99654,334.50976c-2.65165,-2.65165 0,-5.3033 0,-5.3033l1.15579,-1.14017c3.33761,-3.89047 4.66325,-5.68511 8.42655,-9.1124c1.66908,-1.52006 3.64223,-2.93555 4.58007,-4.98905c0,0 1.67705,-3.3541 5.03115,-1.67705c3.3541,1.67705 1.67705,5.03115 1.67705,5.03115c-3.16334,6.00844 -9.54366,10.40061 -14.0204,15.62828l-1.54691,1.56253c0,0 -2.65165,2.65165 -5.3033,0z"/></g></g></svg>