<svg version="1.1" xmlns="http://www.w3.org/2000/svg" xmlns:xlink="http://www.w3.org/1999/xlink" width="359.59393" height="326.56633" viewBox="0,0,359.59393,326.56633"><g transform="translate(-113.32468,-18.56187)"><g data-paper-data="{&quot;isPaintingLayer&quot;:true}" fill="#76ff00" fill-rule="nonzero" stroke="none" stroke-width="0.5" stroke-linecap="butt" stroke-linejoin="miter" stroke-miterlimit="10" stroke-dasharray="" stroke-dashoffset="0" style="mix-blend-mode: normal"><path d="M254.6225,162.23926c-3.35412,1.67701 -5.03113,-1.67711 -5.03113,-1.67711l-0.32151,-0.77831c-7.9622,-10.68352 -20.6968,-16.71013 -29.52399,-26.77606c-4.82043,-5.4969 -9.54681,-11.22419 -14.05494,-16.96067c-4.62563,-5.886 -8.16877,-11.74986 -13.69355,-16.43284c-1.66396,-1.0005 -3.35516,-1.98563 -5.07541,-2.99893c-1.04807,-0.61736 -2.30547,-0.9106 -3.2259,-1.70584c-2.1514,-1.85877 -3.68787,-4.33648 -5.69951,-6.34566c-3.95334,-3.94848 -8.58727,-7.94935 -11.81499,-12.53761c-1.98087,-2.81585 -3.55378,-5.94705 -5.85139,-8.51099c-2.02723,-2.26222 -4.56898,-4.00813 -6.76984,-6.10167c-1.33057,-0.91862 -2.694,-1.8436 -4.10503,-2.82654c-4.5207,-3.14919 -4.9262,-4.54612 -9.10195,-8.35542c-1.62405,-1.48153 -4.02222,-2.64821 -5.55831,-4.19426c-1.08644,-1.09349 -1.97464,-2.35036 -2.79747,-3.661c-2.1782,0.48256 -3.67371,-1.51147 -3.67371,-1.51147l-1.85998,-2.49572c-4.42058,-4.39723 -8.57695,-8.71886 -12.32921,-13.72052c0,0 -2.24999,-3.00001 0.75002,-5.25c3.00001,-2.24999 5.25,0.75002 5.25,0.75002c0.37669,0.5024 0.75795,0.99718 1.14353,1.4853c0.74138,0.34632 1.21083,0.81577 1.21083,0.81577c3.79528,3.8117 9.35499,6.15546 12.49065,10.51057c2.71255,3.76746 2.09841,4.78099 5.03516,7.69156c1.55083,1.537 3.63453,2.44769 5.2525,3.91385c0.09712,0.08801 0.19297,0.17575 0.28763,0.26321c0.34405,-0.6137 0.94225,-1.18713 1.94373,-1.58772c3.48179,-1.39272 4.8745,2.08907 4.8745,2.08907c0.73591,1.84475 1.95684,5.1512 3.03498,6.77259c0.77721,1.16882 1.68179,2.20493 2.65335,3.17197c6.17965,4.00237 12.67458,8.38638 14.73818,15.53863l0.83351,0.85642c0,0 0.7837,1.17555 0.66747,2.56458c2.75958,3.20056 6.11126,6.13482 8.99913,9.02608c1.82401,1.82615 3.184,4.09968 5.1113,5.81646c0.59654,0.53138 1.48749,0.59769 2.1795,0.99687c0.09149,0.05278 0.18304,0.10547 0.27463,0.15809c1.12781,0.08788 1.99818,0.66813 1.99818,0.66813c0.95735,0.64306 1.86335,1.3098 2.72645,1.99803c1.54328,0.8689 3.08149,1.74637 4.59735,2.66195c1.34979,0.81528 5.81545,4.5041 6.76124,5.26802c1.12397,1.42935 2.24793,2.85871 3.3719,4.28806l2.29803,7.42117c0,0 0.02865,0.09551 0.06104,0.26005c4.08157,5.147 8.33718,10.2625 12.65484,15.20846c8.98472,10.29217 21.71133,16.37135 29.93555,27.27799l1.02976,1.92431c0,0 1.67701,3.35412 -1.67711,5.03113z"/><path d="M342.75725,213.87305c3.12019,-2.08013 5.20031,1.04006 5.20031,1.04006l1.23118,1.85717c1.4448,1.93864 3.32268,3.52735 4.77186,5.46271c2.19538,2.9319 3.60069,6.5246 6.03434,9.3686c3.87597,4.52953 5.46021,5.0873 9.6877,8.99154c5.26191,4.85956 10.33599,9.98748 15.56519,14.88793c6.55393,6.1419 11.15072,13.53222 19.3747,17.61753c0,0 2.91995,1.45998 1.94878,4.37993c3.54289,3.54497 7.08644,7.09207 10.66312,10.60426c2.62113,-1.71797 4.7745,0.79432 4.7745,0.79432l3.81317,4.47403c2.21009,1.7734 3.90246,4.11781 6.00893,6.01312c1.15637,1.04045 2.69467,1.5802 3.89732,2.56679c1.97005,1.61613 3.38815,3.84861 5.40542,5.40541c1.28576,0.99227 2.79255,1.67979 4.05404,2.70273c0.93143,0.7553 1.7463,1.6276 2.50797,2.55406c0.16479,-0.01681 0.33798,-0.02565 0.52002,-0.02565v0.00001c2.73654,0 3.47611,1.99698 3.67598,3.07636c1.53012,2.02447 3.12598,4.03776 4.78861,6.00682c5.08049,3.62951 10.13055,7.33949 14.45729,11.60968c0,0 2.11062,2.11055 0.68288,4.44876c0.27884,0.73616 0.51901,1.49264 0.82293,2.21562c0,0 1.39272,3.48179 -2.08907,4.8745c-3.48179,1.39272 -4.8745,-2.08907 -4.8745,-2.08907c-0.46331,-1.25378 -1.13115,-2.36141 -1.93472,-3.37317c-1.94176,-1.61305 -3.81587,-3.32499 -5.62686,-5.11136c-1.86358,-1.44246 -3.73916,-2.8863 -5.26437,-4.59641c-1.43013,-1.60351 -3.04963,-3.02734 -4.58245,-4.53399c-1.90842,-1.49484 -3.81462,-2.98761 -5.72585,-4.45821c-15.46323,-11.89826 -29.17162,-25.75013 -42.92749,-39.50575c-3.46834,-3.47827 -7.339,-7.27199 -11.05317,-10.41454c-1.75168,-1.48209 -3.87348,-2.52262 -5.49488,-4.14621l-2.99994,-1.7672c0,0 -3.19868,-1.91921 -1.30138,-5.11957c-4.75227,-4.49625 -9.38044,-9.15782 -14.18204,-13.58782c-4.89371,-4.51497 -5.65556,-4.22126 -10.37844,-9.72317c-2.5353,-2.95348 -4.04896,-6.71634 -6.33203,-9.75453c-1.4241,-1.89512 -3.26037,-3.45534 -4.6876,-5.3481l-1.47152,-2.19688c0,0 -2.08013,-3.12019 1.04006,-5.20031z"/><path d="M389.1064,75.07712c-3.35414,-1.67697 -1.67717,-5.03111 -1.67717,-5.03111l1.02978,-1.92438c4.03342,-5.36041 7.23931,-11.29318 10.52353,-17.12209c2.23431,-3.96549 5.33935,-6.14737 6.406,-10.59147c0,0 0.90951,-3.63803 4.54754,-2.72853c0.16427,0.04107 0.31928,0.0877 0.46551,0.13931c3.72819,-4.09473 7.58911,-8.06599 11.51394,-11.99076c0,0 2.65167,-2.65163 5.3033,0.00004c2.65163,2.65167 -0.00004,5.3033 -0.00004,5.3033c-5.94495,5.94486 -11.77107,11.98959 -17.16193,18.43871l-1.86874,3.13625c0,0 -0.94302,1.57169 -2.60929,1.85819c-0.47329,0.9571 -0.91736,1.92739 -1.37305,2.74673c-2.921,5.25206 -6.14839,10.49851 -9.74678,15.31032l-0.32149,0.77832c0,0 -1.67697,3.35414 -5.03111,1.67717z"/><path d="M200.46241,306.86405c0.59218,-0.89815 0.80767,-2.02491 1.46795,-2.87425c3.91935,-5.04156 8.66845,-9.03896 11.98872,-14.60159c0,0 1.92936,-3.2156 5.14496,-1.28624c3.2156,1.92936 1.28624,5.14496 1.28624,5.14496c-3.46031,5.74091 -8.28686,9.92571 -12.33561,15.12822c-0.57653,0.74083 -0.71046,1.7524 -1.23475,2.53107c-2.9891,4.43943 -7.06712,8.08872 -10.29389,12.39108l-1.02403,1.07733c0,0 -1.41311,1.41311 -3.20774,1.14457c-2.52231,2.46908 -5.19698,4.8467 -7.40751,7.42803l-1.54691,1.56253c0,0 -2.65165,2.65165 -5.3033,0v0.00001c-2.65165,-2.65165 0,-5.3033 0,-5.3033l1.15579,-1.14017c3.33761,-3.89047 4.66325,-5.68511 8.42655,-9.1124c1.66908,-1.52006 3.64223,-2.93555 4.58007,-4.98905c0,0 1.41402,-2.82805 4.24207,-1.99209c1.46502,-1.63848 2.87409,-3.30793 4.06138,-5.10871z"/></g></g></svg>