<svg version="1.1" xmlns="http://www.w3.org/2000/svg" xmlns:xlink="http://www.w3.org/1999/xlink" width="359.59392" height="326.5663" viewBox="0,0,359.59392,326.5663"><g transform="translate(-113.32469,-18.56189)"><g data-paper-data="{&quot;isPaintingLayer&quot;:true}" fill="#76ff00" fill-rule="nonzero" stroke="none" stroke-width="0.5" stroke-linecap="butt" stroke-linejoin="miter" stroke-miterlimit="10" stroke-dasharray="" stroke-dashoffset="0" style="mix-blend-mode: normal"><path d="M258.73647,248.17457c-3.22045,4.63396 -7.28486,8.61583 -10.74527,13.01651c-4.18734,5.32513 -7.19076,11.06617 -11.98865,15.88624c0,0 -0.0568,0.0568 -0.16209,0.14547c-2.44357,2.70027 -3.38272,5.95941 -5.52848,8.855c-0.78685,1.06181 -1.97683,1.77533 -2.78909,2.81783c-2.29091,2.94029 -3.78717,6.51599 -6.41621,9.15829c-1.47738,1.48483 -3.33474,2.54164 -5.08841,3.68707c-0.25965,0.16959 -0.51542,0.35618 -0.76932,0.55211c-0.24203,0.66828 -0.4772,1.31122 -0.71356,1.90371c0,0 -1.38122,3.45304 -4.8314,2.10611c-0.57389,0.67624 -1.13879,1.36482 -1.68931,2.07223c-0.57653,0.74083 -0.71046,1.7524 -1.23475,2.53107c-2.9891,4.43943 -7.06712,8.08872 -10.29389,12.39108l-1.02403,1.07733c0,0 -1.41311,1.41311 -3.20774,1.14457c-2.52231,2.46908 -5.19698,4.8467 -7.40751,7.42803l-1.54691,1.56253c0,0 -2.65165,2.65165 -5.3033,0v0.00001c-2.65165,-2.65165 0,-5.3033 0,-5.3033l1.15579,-1.14017c3.33761,-3.89047 4.66325,-5.68511 8.42655,-9.1124c1.66908,-1.52006 3.64223,-2.93555 4.58007,-4.98905c0,0 1.41402,-2.82805 4.24207,-1.99209c1.46502,-1.63848 2.87409,-3.30793 4.06138,-5.10871h0.00001c0.59218,-0.89815 0.80767,-2.02491 1.46795,-2.87425c0.91195,-1.17306 1.86881,-2.28959 2.84215,-3.38246c-0.39364,-1.01145 -0.48417,-2.42234 0.9267,-3.83324c1.25229,-1.25232 2.50459,-1.32177 3.47758,-1.04632c0.43912,-0.50209 0.87273,-1.00958 1.29808,-1.52564c0.65641,-1.37321 1.39629,-2.66032 2.26629,-3.72585c5.36926,-6.57596 11.799,-12.41891 17.05502,-19.12915c2.20497,-2.81504 4.55647,-5.52777 6.54272,-8.50117c1.79517,-2.68736 2.91712,-5.77423 4.57938,-8.54576c2.92627,-4.87904 6.25427,-10.34692 9.5266,-14.93228c1.75649,-2.46129 3.84031,-4.7096 5.32581,-7.34332l0.5774,-1.16779c0,0 1.67697,-3.35414 5.03111,-1.67717h0.00001c0.29967,0.14982 0.55917,0.31304 0.7833,0.48605c6.90936,-10.49141 13.68523,-21.07479 21.02979,-31.31254c0.78185,-0.77546 1.51234,-1.60037 2.20467,-2.46176c-0.67413,-0.63014 -1.34011,-1.26967 -1.99499,-1.92211c-3.8969,-3.91151 -7.26413,-8.15651 -10.92829,-12.28509c-4.61405,-5.19886 -9.92197,-9.6426 -14.34528,-15.04713c-1.17797,-1.43928 -2.31949,-2.92491 -3.45561,-4.42325c-0.01664,0.00853 -0.03341,0.01702 -0.0503,0.02547h-0.00001c-3.35412,1.67701 -5.03113,-1.67711 -5.03113,-1.67711l-0.32151,-0.77831c-7.9622,-10.68352 -20.6968,-16.71013 -29.52399,-26.77606c-4.82043,-5.4969 -9.54681,-11.22419 -14.05494,-16.96067c-4.62563,-5.886 -8.16877,-11.74986 -13.69355,-16.43284c-1.66396,-1.0005 -3.35516,-1.98563 -5.07541,-2.99893c-1.04807,-0.61736 -2.30547,-0.9106 -3.2259,-1.70584c-2.1514,-1.85877 -3.68787,-4.33648 -5.69951,-6.34566c-3.95334,-3.94848 -8.58727,-7.94935 -11.81499,-12.53761c-1.98087,-2.81585 -3.55378,-5.94705 -5.85139,-8.51099c-2.02723,-2.26222 -4.56898,-4.00813 -6.76984,-6.10167c-1.33057,-0.91862 -2.694,-1.8436 -4.10503,-2.82654c-4.5207,-3.14919 -4.9262,-4.54612 -9.10195,-8.35542c-1.62405,-1.48153 -4.02222,-2.64821 -5.55831,-4.19426c-1.08644,-1.09349 -1.97464,-2.35036 -2.79747,-3.661c-2.1782,0.48256 -3.67371,-1.51147 -3.67371,-1.51147l-1.85998,-2.49572c-4.42058,-4.39723 -8.57695,-8.71886 -12.32921,-13.72052c0,0 -2.24999,-3.00001 0.75002,-5.25c3.00001,-2.24999 5.25,0.75002 5.25,0.75002c0.37669,0.5024 0.75795,0.99718 1.14353,1.4853c0.74138,0.34632 1.21083,0.81577 1.21083,0.81577c3.79528,3.8117 9.35499,6.15546 12.49065,10.51057c2.71255,3.76746 2.09841,4.78099 5.03516,7.69156c1.55083,1.537 3.63453,2.44769 5.2525,3.91385c0.09712,0.08801 0.19297,0.17575 0.28763,0.26321c0.34405,-0.6137 0.94225,-1.18713 1.94373,-1.58772c3.48179,-1.39272 4.8745,2.08907 4.8745,2.08907c0.73591,1.84475 1.95684,5.1512 3.03498,6.77259c0.77721,1.16882 1.68179,2.20493 2.65335,3.17197c6.17965,4.00237 12.67458,8.38638 14.73818,15.53863l0.83351,0.85642c0,0 0.7837,1.17555 0.66747,2.56458c2.75958,3.20056 6.11126,6.13482 8.99913,9.02608c1.82401,1.82615 3.184,4.09968 5.1113,5.81646c0.59654,0.53138 1.48749,0.59769 2.1795,0.99687c0.09149,0.05278 0.18304,0.10547 0.27463,0.15809c1.12781,0.08788 1.99818,0.66813 1.99818,0.66813c0.95735,0.64306 1.86335,1.3098 2.72645,1.99803c1.54328,0.8689 3.08149,1.74637 4.59735,2.66195c1.34979,0.81528 5.81545,4.5041 6.76124,5.26802c1.12397,1.42935 2.24793,2.85871 3.3719,4.28806l2.29803,7.42117c0,0 0.02865,0.09551 0.06104,0.26005c4.08157,5.147 8.33718,10.2625 12.65484,15.20846c1.71462,1.96413 3.56552,3.77483 5.49539,5.49493c1.17669,-0.08855 2.17117,0.40868 2.17117,0.40868c4.82223,2.41104 9.32252,4.52279 13.58473,7.92519c6.9786,5.57081 11.82555,13.30217 17.39316,20.10951c4.31576,5.27673 9.5192,9.61192 14.0331,14.68251c3.58983,4.03255 6.86927,8.23114 10.69342,12.03932c0.31946,0.32084 0.64159,0.63869 0.96606,0.95391c1.7991,-2.94335 3.52068,-5.95419 5.54441,-8.6604l3.6757,-1.50003c0,0 0.55165,0 1.23179,0.21158c3.41466,-4.51253 6.47334,-9.2418 10.03659,-13.67827c2.06631,-2.5727 4.7534,-4.58398 6.98485,-7.01483c5.73687,-6.24949 10.87033,-13.6913 15.85162,-20.50749c0.65555,-0.89702 1.34953,-1.73438 2.06692,-2.5377c0.16354,-0.75101 0.4775,-1.27427 0.4775,-1.27427l2.28686,-3.75682c2.75998,-2.79984 5.42235,-5.64652 8.0018,-8.5465c0.00867,-0.20642 0.00495,-0.41704 -0.01225,-0.63218c0,0 0,-3.75 3.75,-3.75c0.0213,0 0.04248,0.00012 0.06354,0.00036c5.62473,-6.64692 10.86705,-13.57984 15.89452,-20.87214c0.01142,-0.01657 0.81696,-1.29468 1.90644,-3.02302c-0.24245,-1.49462 0.63695,-2.81371 0.63695,-2.81371l1.8199,-2.59857c0.17181,-0.17107 0.34114,-0.34379 0.50825,-0.51799c-0.93028,-1.90995 0.49475,-3.81004 0.49475,-3.81004c0.87473,-1.1106 1.74947,-2.2212 2.6242,-3.3318l0.89823,-0.13014l-0.17245,-0.34491l2.63523,-1.31759c0.43972,-0.2315 0.93103,-0.37822 1.45218,-0.4184c2.66198,-2.71902 5.75424,-5.00677 8.45147,-7.69667c0.12809,-0.12774 0.26643,-0.26728 0.41389,-0.41674c0.11255,-0.39064 0.23504,-0.63562 0.23504,-0.63562l1.02978,-1.92438c1.66165,-2.20834 3.18286,-4.51381 4.62695,-6.86915c-1.3855,-1.02103 -2.64577,-2.16327 -3.6029,-3.09401c0,0 -2.65169,-2.65161 -0.00008,-5.3033c2.65161,-2.65169 5.3033,-0.00008 5.3033,-0.00008c0.63769,0.66551 1.34713,1.29399 2.11223,1.85422c0.6969,-1.23697 1.38871,-2.4757 2.08403,-3.70977c2.23431,-3.96549 5.33935,-6.14737 6.406,-10.59147c0,0 0.90951,-3.63803 4.54754,-2.72853c0.16427,0.04107 0.31928,0.0877 0.46551,0.13931c3.72819,-4.09473 7.58911,-8.06599 11.51394,-11.99076c0,0 2.65167,-2.65163 5.3033,0.00004c2.65163,2.65167 -0.00004,5.3033 -0.00004,5.3033c-5.94495,5.94486 -11.77107,11.98959 -17.16193,18.43871l-1.86874,3.13625c0,0 -0.94302,1.57169 -2.60929,1.85819c-0.4272,0.8639 -0.8306,1.73854 -1.24022,2.50323c0.33302,0.14035 0.60048,0.36109 0.76415,0.71168c1.2234,2.62049 0.6648,5.87784 -0.06692,8.67574c-0.46576,1.78096 -2.23346,2.92689 -3.35018,4.39033l-0.21228,0.08099l0.0697,0.0697l-2.7027,2.7027c-0.67862,0.67862 -1.61612,1.09835 -2.65165,1.09835c-0.73817,0 -1.42652,-0.21328 -2.00679,-0.58158c-0.71241,0.71461 -1.38577,1.47133 -2.0983,2.18591c-2.98899,2.99762 -6.5381,5.44278 -9.31688,8.63311c-1.04238,1.19676 -2.02273,2.42633 -3.00425,3.65102c-0.91487,2.2881 -2.68325,4.15676 -4.00273,6.24574c-2.17882,3.44946 -4.57589,6.75709 -6.94437,10.07917c-5.28184,7.40842 -10.54127,14.4855 -16.3707,21.21152c-2.39706,6.60874 -9.12781,10.77659 -13.33382,16.59124c-5.15385,7.12502 -10.61291,14.86539 -16.58073,21.38432c-2.07338,2.26486 -4.61447,4.09777 -6.52866,6.49869c-3.98881,5.00307 -7.35615,10.37417 -11.3481,15.35742c-2.27576,3.64498 -4.71662,7.15339 -6.96675,10.78668c0.44475,0.38971 0.88895,0.78027 1.33189,1.17256c1.52203,-0.87231 3.14745,-1.61959 4.79241,-2.53219c1.91071,-1.06004 3.61015,-2.48826 5.56557,-3.46336c2.29352,-1.14371 5.34306,-2.98654 8.08352,-2.28685c0.57619,0.14711 1.066,0.46586 1.51821,0.85933c2.04362,-0.14539 4.08362,-0.06512 6.04704,0.38408c9.06926,-0.00002 14.61753,6.09026 19.49494,13.04243c4.55259,6.48917 8.85134,13.1335 12.79703,20.03375c2.47601,4.33007 4.9592,8.41719 7.57829,12.4407c1.35114,1.13557 2.76747,2.23699 4.78706,4.10215c5.26191,4.85956 10.33599,9.98748 15.56519,14.88793c6.55393,6.1419 11.15072,13.53222 19.3747,17.61753c0,0 2.91995,1.45998 1.94878,4.37993c3.54289,3.54497 7.08644,7.09207 10.66312,10.60426c2.62113,-1.71797 4.7745,0.79432 4.7745,0.79432l3.81317,4.47403c2.21009,1.7734 3.90246,4.11781 6.00893,6.01312c1.15637,1.04045 2.69467,1.5802 3.89732,2.56679c1.97005,1.61613 3.38815,3.84861 5.40542,5.40541c1.28576,0.99227 2.79255,1.67979 4.05404,2.70273c0.93143,0.7553 1.7463,1.6276 2.50797,2.55406c0.16479,-0.01681 0.33798,-0.02565 0.52002,-0.02565v0.00001c2.73654,0 3.47611,1.99698 3.67598,3.07636c1.53012,2.02447 3.12598,4.03776 4.78861,6.00682c5.08049,3.62951 10.13055,7.33949 14.45729,11.60968c0,0 2.11062,2.11055 0.68288,4.44876c0.27884,0.73616 0.51901,1.49264 0.82293,2.21562c0,0 1.39272,3.48179 -2.08907,4.8745c-3.48179,1.39272 -4.8745,-2.08907 -4.8745,-2.08907c-0.46331,-1.25378 -1.13115,-2.36141 -1.93472,-3.37317c-1.94176,-1.61305 -3.81587,-3.32499 -5.62686,-5.11136c-1.86358,-1.44246 -3.73916,-2.8863 -5.26437,-4.59641c-1.43013,-1.60351 -3.04963,-3.02734 -4.58245,-4.53399c-1.90842,-1.49484 -3.81462,-2.98761 -5.72585,-4.45821c-15.46323,-11.89826 -29.17162,-25.75013 -42.92749,-39.50575c-3.46834,-3.47827 -7.339,-7.27199 -11.05317,-10.41454c-1.75168,-1.48209 -3.87348,-2.52262 -5.49488,-4.14621l-2.99994,-1.7672c0,0 -3.19868,-1.91921 -1.30138,-5.11957c-1.68248,-1.59184 -3.3494,-3.2044 -5.01398,-4.82007c-2.62287,2.51123 -5.21778,-0.08374 -5.21778,-0.08374c-1.4903,-1.53254 -2.52891,-3.44739 -3.76885,-5.18872c-2.05914,-2.89179 -4.19326,-5.7335 -6.21766,-8.66726c-1.15511,-1.03388 -2.4209,-2.31297 -4.34222,-4.5512c-2.5353,-2.95348 -4.04896,-6.71634 -6.33203,-9.75453c-1.4241,-1.89512 -3.26037,-3.45534 -4.6876,-5.3481l-1.47152,-2.19688c0,0 -1.98551,-2.97826 0.83286,-5.05513c-0.66993,-0.98002 -1.35689,-1.94248 -2.06398,-2.8831c-4.53213,-6.02904 -8.0497,-12.71721 -16.37717,-12.71724c-0.93842,-0.26085 -1.93229,-0.38822 -2.94957,-0.41635c-0.00718,0.00726 -0.0144,0.01452 -0.02166,0.02178c-1.92342,1.92338 -3.84681,1.05645 -4.75822,0.43518c-0.81928,0.15956 -1.62137,0.34932 -2.38931,0.55118l-2.08608,0.1033c-0.5401,0.24368 -1.08102,0.48561 -1.58166,0.79995c-0.99746,0.62629 -1.80773,1.53364 -2.83698,2.1062c-0.91843,0.51092 -1.90172,0.92949 -2.84929,1.36893l2.76911,4.07509c0,0 2.09769,3.1084 -1.01071,5.2061l0.00001,-0.00002c-3.1084,2.09769 -5.2061,-1.01071 -5.2061,-1.01071l-1.3422,-2.00486c-0.22532,1.0972 -0.99924,2.98148 -3.65744,2.98149h-0.00001c-3.74999,0 -3.74999,-3.75 -3.74999,-3.75l0.11196,-2.26082c0.29037,-1.00643 0.36268,-2.10989 0.75943,-3.06898l-3.20251,1.64741c0,0 -1.14078,0 -2.16394,-0.6292c-10.09327,14.32745 -19.22687,29.24012 -29.20724,43.60102z"/><path d="M243.37581,181.22589c-0.46245,-1.02041 -0.67608,-2.53344 0.83695,-4.04646c2.65165,-2.65165 5.3033,0 5.3033,0l1.58159,4.51317c-3.35512,10.05839 -6.60881,23.6897 1.79679,31.97332c0,0 2.65165,2.65165 0,5.3033c-2.65165,2.65165 -5.3033,0 -5.3033,0c-2.52731,-2.55598 -3.61839,-3.36311 -5.44672,-7.08516c-2.1143,-4.30423 -1.71462,-5.27762 -1.73271,-9.75568c-0.02972,-7.35667 0.86476,-13.99046 2.96411,-20.90249z"/><path d="M328.11092,164.78705c3.55754,-1.18592 4.74346,2.37162 4.74346,2.37162l0.1182,0.96298c3.7986,5.10817 5.19718,10.128 6.71905,16.20533c0,0 0.90951,3.63803 -2.72853,4.54754c-3.63803,0.90951 -4.54754,-2.72853 -4.54754,-2.72853c-1.27018,-5.08872 -2.22141,-9.2731 -5.44303,-13.5244l-1.23324,-3.09108c0,0 -1.18592,-3.55754 2.37162,-4.74346z"/><path d="M223.57029,140.4146c3.60571,1.03021 2.57551,4.63592 2.57551,4.63592l-0.64229,2.24799c-1.00914,3.53105 -2.02162,7.06261 -2.91179,10.62551c-3.99563,15.95502 -6.07499,32.48895 0.04907,48.21033c1.37831,3.53833 2.84441,7.05158 4.55691,10.44081c1.20493,2.3847 3.2656,4.24777 4.6134,6.55474c2.17555,3.72382 3.33033,7.15305 5.89114,10.53225c0,0 2.25,3 -0.75,5.25c-3,2.25 -5.25,-0.75 -5.25,-0.75c-2.67101,-3.59177 -4.01432,-7.21395 -6.27103,-11.08928c-1.42242,-2.44266 -3.55724,-4.44306 -4.84606,-6.95877c-1.85551,-3.62186 -3.43242,-7.38622 -4.90255,-11.18089c-6.69343,-17.27701 -4.7525,-35.25682 -0.36696,-52.82821c0.9114,-3.64346 1.9449,-7.25563 2.97643,-10.86691l0.64229,-2.24799c0,0 1.03021,-3.60571 4.63592,-2.57551z"/><path d="M354.24371,147.6569c3.12017,-2.08016 5.20032,1.04001 5.20032,1.04001l1.44678,2.17778c8.69523,14.79529 9.70221,35.37823 5.11984,51.60827c0,0 -1.03022,3.60571 -4.63593,2.57548c-3.60571,-1.03022 -2.57548,-4.63593 -2.57548,-4.63593c1.87224,-6.46424 2.57064,-12.9191 1.90402,-19.51677c-0.91658,-9.07169 -1.35487,-18.24261 -6.24364,-26.17234l-1.25592,-1.87619c0,0 -2.08016,-3.12017 1.04001,-5.20032z"/><path d="M187.40495,128.78378c3.75,0 3.75,3.75 3.75,3.75l-0.03769,1.206c-1.40717,9.78027 -3.34971,19.15341 -3.34069,29.13183c-0.00037,6.43734 -0.0169,12.80565 0.6495,19.21984c2.13691,20.56804 11.3859,41.02421 23.0037,57.76101c3.58633,5.16653 5.8593,11.24669 10.38359,15.70533c0,0 2.65165,2.65165 0,5.3033c-2.65165,2.65165 -5.3033,0 -5.3033,0c-4.82733,-4.88209 -7.35596,-11.15502 -11.23803,-16.72702c-12.34397,-17.71751 -21.99055,-39.39323 -24.2936,-61.15799c-0.70986,-6.70851 -0.70147,-13.37154 -0.70185,-20.10449c0.00872,-10.35142 1.97778,-20.04573 3.41607,-30.19249l-0.03769,-0.14535c0,0 0,-3.75 3.75,-3.75z"/><path d="M385.05223,103.504c3.35411,-1.67704 5.03115,1.67707 5.03115,1.67707l1.47518,2.97745c3.77505,11.95684 9.24486,23.62564 11.70077,35.88164c1.63598,10.54855 1.85771,21.15582 -0.00134,31.7245c-1.62672,9.24789 -5.10726,18.28712 -8.30408,27.04755c-3.37641,9.25258 -10.4008,17.69525 -12.69471,27.2527c0,0 -0.90951,3.63803 -4.54754,2.72853c-3.63803,-0.90951 -2.72853,-4.54754 -2.72853,-4.54754c1.77465,-6.89292 6.09432,-12.62821 9.06244,-19.0001c9.34081,-20.05264 15.29271,-41.65493 11.82933,-63.89406c-2.34507,-11.75071 -7.72388,-22.89548 -11.27221,-34.38859l-1.22753,-2.428c0,0 -1.67704,-3.35411 1.67707,-5.03115z"/></g></g></svg>