<svg version="1.1" xmlns="http://www.w3.org/2000/svg" xmlns:xlink="http://www.w3.org/1999/xlink" width="155.69972" height="424.00371" viewBox="0,0,155.69972,424.00371"><g transform="translate(-221.71453,61.01022)"><g data-paper-data="{&quot;isPaintingLayer&quot;:true}" fill-rule="nonzero" stroke-linecap="butt" stroke-linejoin="miter" stroke-miterlimit="10" stroke-dasharray="" stroke-dashoffset="0" style="mix-blend-mode: normal"><path d="M319.34099,194.27127c0,-1.51878 1.23122,-2.75 2.75,-2.75c1.51878,0 2.75,1.23122 2.75,2.75c0,0.73073 -0.28501,1.39489 -0.74992,1.88738c1.1793,0.30991 2.04913,1.38332 2.04913,2.65988c0,1.51878 -1.23122,2.75 -2.75,2.75c-1.51878,0 -2.75,-1.23122 -2.75,-2.75c0,-0.73073 0.28501,-1.39489 0.74992,-1.88738c-1.1793,-0.30991 -2.04913,-1.38332 -2.04913,-2.65988z" fill="#000000" stroke="none" stroke-width="0.5"/><path d="M351.47515,212.46042c0,1.51878 -1.23122,2.75 -2.75,2.75c-0.99877,0 -1.87318,-0.53245 -2.35487,-1.32897c-1.32626,-0.19627 -2.34398,-1.3394 -2.34398,-2.72024c0,-1.51878 1.23122,-2.75 2.75,-2.75c0.99877,0 1.87318,0.53245 2.35487,1.32897c1.32626,0.19627 2.34398,1.3394 2.34398,2.72024z" fill="#000000" stroke="none" stroke-width="0.5"/><path d="M305.85067,198.01739c1.51878,0 2.75,1.23122 2.75,2.75c0,0.70521 -0.26545,1.34842 -0.70188,1.83516c-0.24934,1.26222 -1.36242,2.21404 -2.6978,2.21404c-1.51878,0 -2.75,-1.23122 -2.75,-2.75c0,-0.70521 0.26545,-1.34842 0.70188,-1.83516c0.24934,-1.26222 1.36242,-2.21404 2.6978,-2.21404z" fill="#000000" stroke="none" stroke-width="0.5"/><path d="M322.5891,213.11002c0,-1.51878 1.23122,-2.75 2.75,-2.75c1.51878,0 2.75,1.23122 2.75,2.75c0,1.51878 -1.23122,2.75 -2.75,2.75c-1.51878,0 -2.75,-1.23122 -2.75,-2.75z" fill="#000000" stroke="none" stroke-width="0.5"/><path d="M337.53018,188.42468c0,-1.51878 1.23122,-2.75 2.75,-2.75c1.51878,0 2.75,1.23122 2.75,2.75c0,1.51878 -1.23122,2.75 -2.75,2.75c-1.51878,0 -2.75,-1.23122 -2.75,-2.75z" fill="#000000" stroke="none" stroke-width="0.5"/><path d="M308.94714,181.92856c0,-1.51878 1.23122,-2.75 2.75,-2.75c1.51878,0 2.75,1.23122 2.75,2.75c0,1.51878 -1.23122,2.75 -2.75,2.75c-1.51878,0 -2.75,-1.23122 -2.75,-2.75z" fill="#000000" stroke="none" stroke-width="0.5"/><path d="M313.49445,219.60618c0,-1.51878 1.23122,-2.75 2.75,-2.75c1.51878,0 2.75,1.23122 2.75,2.75c0,1.51878 -1.23122,2.75 -2.75,2.75c-1.51878,0 -2.75,-1.23122 -2.75,-2.75z" fill="#000000" stroke="none" stroke-width="0.5"/><path d="M329.73481,216.35812c0,-1.51878 1.23122,-2.75 2.75,-2.75c1.51878,0 2.75,1.23122 2.75,2.75c0,1.51878 -1.23122,2.75 -2.75,2.75c-1.51878,0 -2.75,-1.23122 -2.75,-2.75z" fill="#000000" stroke="none" stroke-width="0.5"/><path d="M295.95487,197.51933c0,-1.51878 1.23122,-2.75 2.75,-2.75c1.51878,0 2.75,1.23122 2.75,2.75c0,1.51878 -1.23122,2.75 -2.75,2.75c-1.51878,0 -2.75,-1.23122 -2.75,-2.75z" fill="#000000" stroke="none" stroke-width="0.5"/><path d="M279.7145,203.36581c0,-1.51878 1.23122,-2.75 2.75,-2.75c1.51878,0 2.75,1.23122 2.75,2.75c0,1.51878 -1.23122,2.75 -2.75,2.75c-1.51878,0 -2.75,-1.23122 -2.75,-2.75z" fill="#000000" stroke="none" stroke-width="0.5"/><path d="M260.63946,362.99349v-424.00371h116.77479v424.00371z" fill="none" stroke="#000000" stroke-width="0"/><path d="M221.71454,362.99349v-424.00371h155.69972v424.00371z" fill="none" stroke="#000000" stroke-width="0"/></g></g></svg>