<svg version="1.1" xmlns="http://www.w3.org/2000/svg" xmlns:xlink="http://www.w3.org/1999/xlink" width="155.69972" height="424.00371" viewBox="0,0,155.69972,424.00371"><g transform="translate(-221.71453,61.01022)"><g data-paper-data="{&quot;isPaintingLayer&quot;:true}" fill-rule="nonzero" stroke-linecap="butt" stroke-linejoin="miter" stroke-miterlimit="10" stroke-dasharray="" stroke-dashoffset="0" style="mix-blend-mode: normal"><path d="M258.27721,171.53475c0,-1.51878 1.23122,-2.75 2.75,-2.75c1.51878,0 2.75,1.23122 2.75,2.75c0,1.51878 -1.23122,2.75 -2.75,2.75c-1.51878,0 -2.75,-1.23122 -2.75,-2.75z" fill="#000000" stroke="none" stroke-width="0.5"/><path d="M259.57646,182.57817c0,-1.51878 1.23122,-2.75 2.75,-2.75c1.51878,0 2.75,1.23122 2.75,2.75c0,1.51878 -1.23122,2.75 -2.75,2.75c-1.51878,0 -2.75,-1.23122 -2.75,-2.75z" fill="#000000" stroke="none" stroke-width="0.5"/><path d="M275.81679,194.27127c0,-1.51878 1.23122,-2.75 2.75,-2.75c1.51878,0 2.75,1.23122 2.75,2.75c0,1.51878 -1.23122,2.75 -2.75,2.75c-1.51878,0 -2.75,-1.23122 -2.75,-2.75z" fill="#000000" stroke="none" stroke-width="0.5"/><path d="M281.0137,176.08201c0,-1.51878 1.23122,-2.75 2.75,-2.75c1.50774,0 2.73208,1.21338 2.74981,2.71692c1.1281,0.34292 1.94905,1.39135 1.94905,2.63153c0,1.51878 -1.23122,2.75 -2.75,2.75c-1.50774,0 -2.73208,-1.21338 -2.74981,-2.71692c-1.1281,-0.34292 -1.94905,-1.39135 -1.94905,-2.63153z" fill="#000000" stroke="none" stroke-width="0.5"/><path d="M299.35451,166.18625c1.51878,0 2.75,1.23122 2.75,2.75c0,1.09502 -0.64001,2.04056 -1.56637,2.48295c-0.44241,0.92632 -1.38792,1.5663 -2.48291,1.5663c-1.51878,0 -2.75,-1.23122 -2.75,-2.75c0,-1.09502 0.64001,-2.04056 1.56637,-2.48295c0.44241,-0.92632 1.38792,-1.5663 2.48291,-1.5663z" fill="#000000" stroke="none" stroke-width="0.5"/><path d="M289.45871,164.38895c0,-1.51878 1.23122,-2.75 2.75,-2.75c1.51878,0 2.75,1.23122 2.75,2.75c0,1.51878 -1.23122,2.75 -2.75,2.75c-1.51878,0 -2.75,-1.23122 -2.75,-2.75z" fill="#000000" stroke="none" stroke-width="0.5"/><path d="M277.76564,161.79053c0,-1.51878 1.23122,-2.75 2.75,-2.75c1.51878,0 2.75,1.23122 2.75,2.75c0,1.51878 -1.23122,2.75 -2.75,2.75c-1.51878,0 -2.75,-1.23122 -2.75,-2.75z" fill="#000000" stroke="none" stroke-width="0.5"/><path d="M297.90368,192.97199c0,-1.51878 1.23122,-2.75 2.75,-2.75c1.51878,0 2.75,1.23122 2.75,2.75c0,1.51878 -1.23122,2.75 -2.75,2.75c-1.51878,0 -2.75,-1.23122 -2.75,-2.75z" fill="#000000" stroke="none" stroke-width="0.5"/><path d="M314.79365,180.62932c0,-1.51878 1.23122,-2.75 2.75,-2.75c1.51878,0 2.75,1.23122 2.75,2.75c0,1.51878 -1.23122,2.75 -2.75,2.75c-1.51878,0 -2.75,-1.23122 -2.75,-2.75z" fill="#000000" stroke="none" stroke-width="0.5"/><path d="M316.09293,159.19204c0,-1.51878 1.23122,-2.75 2.75,-2.75c1.51878,0 2.75,1.23122 2.75,2.75c0,1.51878 -1.23122,2.75 -2.75,2.75c-1.51878,0 -2.75,-1.23122 -2.75,-2.75z" fill="#000000" stroke="none" stroke-width="0.5"/><path d="M295.95486,198.1689c0,-1.51878 1.23122,-2.75 2.75,-2.75c1.51878,0 2.75,1.23122 2.75,2.75c0,1.51878 -1.23122,2.75 -2.75,2.75c-1.51878,0 -2.75,-1.23122 -2.75,-2.75z" fill="#000000" stroke="none" stroke-width="0.5"/><path d="M221.71454,362.99349v-424.00371h155.69972v424.00371z" fill="none" stroke="#000000" stroke-width="0"/></g></g></svg>