<svg version="1.1" xmlns="http://www.w3.org/2000/svg" xmlns:xlink="http://www.w3.org/1999/xlink" width="155.69972" height="424.00371" viewBox="0,0,155.69972,424.00371"><g transform="translate(-221.71453,61.01022)"><g data-paper-data="{&quot;isPaintingLayer&quot;:true}" fill-rule="nonzero" stroke-linecap="butt" stroke-linejoin="miter" stroke-miterlimit="10" stroke-dasharray="" stroke-dashoffset="0" style="mix-blend-mode: normal"><path d="M284.2618,161.79053c0,-1.51878 1.23122,-2.75 2.75,-2.75c1.51878,0 2.75,1.23122 2.75,2.75c0,1.51878 -1.23122,2.75 -2.75,2.75c-1.51878,0 -2.75,-1.23122 -2.75,-2.75z" fill="#000000" stroke="none" stroke-width="0.5"/><path d="M297.25407,169.5859c0,-1.51878 1.23122,-2.75 2.75,-2.75c1.51878,0 2.75,1.23122 2.75,2.75c0,1.51878 -1.23122,2.75 -2.75,2.75c-1.51878,0 -2.75,-1.23122 -2.75,-2.75z" fill="#000000" stroke="none" stroke-width="0.5"/><path d="M303.75023,178.0309c0,-1.51878 1.23122,-2.75 2.75,-2.75c1.51878,0 2.75,1.23122 2.75,2.75c0,1.51878 -1.23122,2.75 -2.75,2.75c-1.51878,0 -2.75,-1.23122 -2.75,-2.75z" fill="#000000" stroke="none" stroke-width="0.5"/><path d="M310.24638,184.52706c0,-1.51878 1.23122,-2.75 2.75,-2.75c1.51878,0 2.75,1.23122 2.75,2.75c0,1.51878 -1.23122,2.75 -2.75,2.75c-1.51878,0 -2.75,-1.23122 -2.75,-2.75z" fill="#000000" stroke="none" stroke-width="0.5"/><path d="M324.53787,184.52706c0,-1.51878 1.23122,-2.75 2.75,-2.75c1.51878,0 2.75,1.23122 2.75,2.75c0,1.51878 -1.23122,2.75 -2.75,2.75c-1.51878,0 -2.75,-1.23122 -2.75,-2.75z" fill="#000000" stroke="none" stroke-width="0.5"/><path d="M329.08521,159.19204c0,-1.51878 1.23122,-2.75 2.75,-2.75c1.51878,0 2.75,1.23122 2.75,2.75c0,1.51878 -1.23122,2.75 -2.75,2.75c-1.51878,0 -2.75,-1.23122 -2.75,-2.75z" fill="#000000" stroke="none" stroke-width="0.5"/><path d="M323.23866,140.35325c0,-1.51878 1.23122,-2.75 2.75,-2.75c1.51878,0 2.75,1.23122 2.75,2.75c0,1.51878 -1.23122,2.75 -2.75,2.75c-1.51878,0 -2.75,-1.23122 -2.75,-2.75z" fill="#000000" stroke="none" stroke-width="0.5"/><path d="M299.85256,126.71134c0,-1.51878 1.23122,-2.75 2.75,-2.75c1.51878,0 2.75,1.23122 2.75,2.75c0,1.51878 -1.23122,2.75 -2.75,2.75c-1.51878,0 -2.75,-1.23122 -2.75,-2.75z" fill="#000000" stroke="none" stroke-width="0.5"/><path d="M286.86029,138.4044c0,-1.51878 1.23122,-2.75 2.75,-2.75c1.51878,0 2.75,1.23122 2.75,2.75c0,1.51878 -1.23122,2.75 -2.75,2.75c-1.51878,0 -2.75,-1.23122 -2.75,-2.75z" fill="#000000" stroke="none" stroke-width="0.5"/><path d="M306.99829,172.18435c0,-1.51878 1.23122,-2.75 2.75,-2.75c1.51878,0 2.75,1.23122 2.75,2.75c0,1.51878 -1.23122,2.75 -2.75,2.75c-1.51878,0 -2.75,-1.23122 -2.75,-2.75z" fill="#000000" stroke="none" stroke-width="0.5"/><path d="M305.69908,164.38895c0,-1.51878 1.23122,-2.75 2.75,-2.75c1.51878,0 2.75,1.23122 2.75,2.75c0,1.51878 -1.23122,2.75 -2.75,2.75c-1.51878,0 -2.75,-1.23122 -2.75,-2.75z" fill="#000000" stroke="none" stroke-width="0.5"/><path d="M306.99829,144.25092c0,-1.51878 1.23122,-2.75 2.75,-2.75c1.51878,0 2.75,1.23122 2.75,2.75c0,1.20262 -0.77197,2.22494 -1.84742,2.59845c1.07544,0.37351 1.84742,1.39583 1.84742,2.59845c0,1.46925 -1.15222,2.66938 -2.60235,2.7461c-0.0767,1.45015 -1.27684,2.60239 -2.74611,2.60239c-1.51878,0 -2.75,-1.23122 -2.75,-2.75c0,-1.46925 1.15222,-2.66938 2.60235,-2.7461c0.0602,-1.1381 0.81236,-2.09271 1.84352,-2.45084c-1.07544,-0.37351 -1.84742,-1.39583 -1.84742,-2.59845z" fill="#000000" stroke="none" stroke-width="0.5"/><path d="M312.84487,163.73934c0,-1.51878 1.23122,-2.75 2.75,-2.75c1.51878,0 2.75,1.23122 2.75,2.75c0,1.51878 -1.23122,2.75 -2.75,2.75c-1.51878,0 -2.75,-1.23122 -2.75,-2.75z" fill="#000000" stroke="none" stroke-width="0.5"/><path d="M318.04175,166.3378c0,-1.51878 1.23122,-2.75 2.75,-2.75c1.51878,0 2.75,1.23122 2.75,2.75c0,1.51878 -1.23122,2.75 -2.75,2.75c-1.51878,0 -2.75,-1.23122 -2.75,-2.75z" fill="#000000" stroke="none" stroke-width="0.5"/><path d="M320.6402,158.54247c0,-1.51878 1.23122,-2.75 2.75,-2.75c1.51878,0 2.75,1.23122 2.75,2.75c0,1.51878 -1.23122,2.75 -2.75,2.75c-1.51878,0 -2.75,-1.23122 -2.75,-2.75z" fill="#000000" stroke="none" stroke-width="0.5"/><path d="M221.71454,362.99349v-424.00371h155.69972v424.00371z" fill="none" stroke="#000000" stroke-width="0"/></g></g></svg>