<svg version="1.1" xmlns="http://www.w3.org/2000/svg" xmlns:xlink="http://www.w3.org/1999/xlink" width="155.69972" height="424.00371" viewBox="0,0,155.69972,424.00371"><g transform="translate(-221.71454,61.01022)"><g data-paper-data="{&quot;isPaintingLayer&quot;:true}" fill-rule="nonzero" stroke-linecap="butt" stroke-linejoin="miter" stroke-miterlimit="10" stroke-dasharray="" stroke-dashoffset="0" style="mix-blend-mode: normal"><path d="M292.05717,0.68615c0,-1.51878 1.23122,-2.75 2.75,-2.75c1.51878,0 2.75,1.23122 2.75,2.75c0,1.51878 -1.23122,2.75 -2.75,2.75c-1.51878,0 -2.75,-1.23122 -2.75,-2.75z" fill="#000000" stroke="none" stroke-width="0.5"/><path d="M297.25408,8.48154c0,-1.51878 1.23122,-2.75 2.75,-2.75c1.51878,0 2.75,1.23122 2.75,2.75c0,1.51878 -1.23122,2.75 -2.75,2.75c-1.51878,0 -2.75,-1.23122 -2.75,-2.75z" fill="#000000" stroke="none" stroke-width="0.5"/><path d="M308.94714,7.18229c0,-1.51878 1.23122,-2.75 2.75,-2.75c1.51878,0 2.75,1.23122 2.75,2.75c0,1.51878 -1.23122,2.75 -2.75,2.75c-1.51878,0 -2.75,-1.23122 -2.75,-2.75z" fill="#000000" stroke="none" stroke-width="0.5"/><path d="M323.88827,11.07999c0,-1.51878 1.23122,-2.75 2.75,-2.75c1.51878,0 2.75,1.23122 2.75,2.75c0,1.51878 -1.23122,2.75 -2.75,2.75c-1.51878,0 -2.75,-1.23122 -2.75,-2.75z" fill="#000000" stroke="none" stroke-width="0.5"/><path d="M335.58137,7.18229c0,-1.51878 1.23122,-2.75 2.75,-2.75c1.51878,0 2.75,1.23122 2.75,2.75c0,1.51878 -1.23122,2.75 -2.75,2.75c-1.51878,0 -2.75,-1.23122 -2.75,-2.75z" fill="#000000" stroke="none" stroke-width="0.5"/><path d="M341.48125,-15.66451c-0.53931,-2.6966 2.15729,-3.23591 2.15729,-3.23591l3.51643,-0.68962c2.89513,0.05291 5.178,-0.43969 7.46852,2.17701c1.40014,1.59953 1.93975,3.78344 2.87998,5.68998c1.62176,3.28852 3.16401,6.61565 4.74601,9.92348c0,0 1.1865,2.48087 -1.29437,3.66737c-2.48087,1.1865 -3.66737,-1.29437 -3.66737,-1.29437c-1.582,-3.30783 -3.21093,-6.59361 -4.74601,-9.92348c-1.76864,-3.8365 -1.13636,-4.90885 -4.84481,-4.76676l-2.97976,0.60959c0,0 -2.6966,0.53931 -3.23591,-2.15729z" fill="#000000" stroke="none" stroke-width="0.5"/><path d="M308.94714,-19.4519c0,-1.51878 1.23122,-2.75 2.75,-2.75c1.51878,0 2.75,1.23122 2.75,2.75c0,1.51878 -1.23122,2.75 -2.75,2.75c-1.51878,0 -2.75,-1.23122 -2.75,-2.75z" fill="#000000" stroke="none" stroke-width="0.5"/><path d="M316.74251,-16.20382c0,-1.51878 1.23122,-2.75 2.75,-2.75c1.51878,0 2.75,1.23122 2.75,2.75c0,1.51878 -1.23122,2.75 -2.75,2.75c-1.51878,0 -2.75,-1.23122 -2.75,-2.75z" fill="#000000" stroke="none" stroke-width="0.5"/><path d="M328.43557,-8.40846c0,-1.51878 1.23122,-2.75 2.75,-2.75c1.51878,0 2.75,1.23122 2.75,2.75c0,1.51878 -1.23122,2.75 -2.75,2.75c-1.51878,0 -2.75,-1.23122 -2.75,-2.75z" fill="#000000" stroke="none" stroke-width="0.5"/><path d="M323.88827,-2.56192c0,-1.51878 1.23122,-2.75 2.75,-2.75c1.51878,0 2.75,1.23122 2.75,2.75c0,1.51878 -1.23122,2.75 -2.75,2.75c-1.51878,0 -2.75,-1.23122 -2.75,-2.75z" fill="#000000" stroke="none" stroke-width="0.5"/><path d="M303.10067,-15.5542c0,-1.51878 1.23122,-2.75 2.75,-2.75c1.51878,0 2.75,1.23122 2.75,2.75c0,1.51878 -1.23122,2.75 -2.75,2.75c-1.51878,0 -2.75,-1.23122 -2.75,-2.75z" fill="#000000" stroke="none" stroke-width="0.5"/><path d="M298.55332,-20.1015c0,-1.51878 1.23122,-2.75 2.75,-2.75c1.51878,0 2.75,1.23122 2.75,2.75c0,1.51878 -1.23122,2.75 -2.75,2.75c-1.51878,0 -2.75,-1.23122 -2.75,-2.75z" fill="#000000" stroke="none" stroke-width="0.5"/><path d="M312.19521,-32.44418c0,-1.51878 1.23122,-2.75 2.75,-2.75c1.51878,0 2.75,1.23122 2.75,2.75c0,1.51878 -1.23122,2.75 -2.75,2.75c-1.51878,0 -2.75,-1.23122 -2.75,-2.75z" fill="#000000" stroke="none" stroke-width="0.5"/><path d="M329.08522,-34.39302c0,-1.51878 1.23122,-2.75 2.75,-2.75c1.51878,0 2.75,1.23122 2.75,2.75c0,1.51878 -1.23122,2.75 -2.75,2.75c-1.51878,0 -2.75,-1.23122 -2.75,-2.75z" fill="#000000" stroke="none" stroke-width="0.5"/><path d="M348.57365,-36.99146c0,-1.51878 1.23122,-2.75 2.75,-2.75c1.51878,0 2.75,1.23122 2.75,2.75c0,1.51878 -1.23122,2.75 -2.75,2.75c-1.51878,0 -2.75,-1.23122 -2.75,-2.75z" fill="#000000" stroke="none" stroke-width="0.5"/><path d="M286.8603,-40.10179c0,-1.51878 1.23122,-2.75 2.75,-2.75c1.51878,0 2.75,1.23122 2.75,2.75c0,1.51878 -1.23122,2.75 -2.75,2.75c-1.51878,0 -2.75,-1.23122 -2.75,-2.75z" fill="#000000" stroke="none" stroke-width="0.5"/><path d="M300.50214,-38.15296c0,-1.51878 1.23122,-2.75 2.75,-2.75c1.51878,0 2.75,1.23122 2.75,2.75c0,1.51878 -1.23122,2.75 -2.75,2.75c-1.51878,0 -2.75,-1.23122 -2.75,-2.75z" fill="#000000" stroke="none" stroke-width="0.5"/><path d="M281.66335,-25.81027c0,-1.51878 1.23122,-2.75 2.75,-2.75c1.51878,0 2.75,1.23122 2.75,2.75c0,1.51878 -1.23122,2.75 -2.75,2.75c-1.51878,0 -2.75,-1.23122 -2.75,-2.75z" fill="#000000" stroke="none" stroke-width="0.5"/><path d="M291.40756,-25.16067c0,-1.51878 1.23122,-2.75 2.75,-2.75c1.51878,0 2.75,1.23122 2.75,2.75c0,1.51878 -1.23122,2.75 -2.75,2.75c-1.51878,0 -2.75,-1.23122 -2.75,-2.75z" fill="#000000" stroke="none" stroke-width="0.5"/><path d="M310.896,-44.64909c0,-1.51878 1.23122,-2.75 2.75,-2.75c1.51878,0 2.75,1.23122 2.75,2.75c0,1.51878 -1.23122,2.75 -2.75,2.75c-1.51878,0 -2.75,-1.23122 -2.75,-2.75z" fill="#000000" stroke="none" stroke-width="0.5"/><path d="M332.98287,-45.2987c0,-1.51878 1.23122,-2.75 2.75,-2.75c1.51878,0 2.75,1.23122 2.75,2.75c0,1.51878 -1.23122,2.75 -2.75,2.75c-1.51878,0 -2.75,-1.23122 -2.75,-2.75z" fill="#000000" stroke="none" stroke-width="0.5"/><path d="M345.32559,-45.2987c0,-1.51878 1.23122,-2.75 2.75,-2.75c1.51878,0 2.75,1.23122 2.75,2.75c0,1.51878 -1.23122,2.75 -2.75,2.75c-1.51878,0 -2.75,-1.23122 -2.75,-2.75z" fill="#000000" stroke="none" stroke-width="0.5"/><path d="M292.05717,-46.59794c0,-1.51878 1.23122,-2.75 2.75,-2.75c1.51878,0 2.75,1.23122 2.75,2.75c0,1.51878 -1.23122,2.75 -2.75,2.75c-1.51878,0 -2.75,-1.23122 -2.75,-2.75z" fill="#000000" stroke="none" stroke-width="0.5"/><path d="M305.69909,28.10771c0,-1.51878 1.23122,-2.75 2.75,-2.75c1.51878,0 2.75,1.23122 2.75,2.75c0,1.51878 -1.23122,2.75 -2.75,2.75c-1.51878,0 -2.75,-1.23122 -2.75,-2.75z" fill="#000000" stroke="none" stroke-width="0.5"/><path d="M260.63946,362.99349v-424.00371h116.77479v424.00371z" fill="none" stroke="#000000" stroke-width="0"/><path d="M221.71455,362.99349v-424.00371h155.69972v424.00371z" fill="none" stroke="#000000" stroke-width="0"/></g></g></svg>