<svg version="1.1" xmlns="http://www.w3.org/2000/svg" xmlns:xlink="http://www.w3.org/1999/xlink" width="2878.25006" height="1619.57958" viewBox="0,0,2878.25006,1619.57958"><g transform="translate(1117.37278,629.80931)"><g data-paper-data="{&quot;isPaintingLayer&quot;:true}" fill-rule="nonzero" stroke-linejoin="miter" stroke-miterlimit="10" stroke-dasharray="" stroke-dashoffset="0" style="mix-blend-mode: normal"><path d="M377.82912,23.12393l78.1084,-176.56266l60.57386,168.43784z" fill="#87ffeb" stroke="#000000" stroke-width="2.5" stroke-linecap="round"/><path d="M58.48799,89.01128l78.1084,-176.56266l60.57386,168.43783z" fill="#87ffeb" stroke="#000000" stroke-width="2.5" stroke-linecap="round"/><path d="M-1117.37278,989.77027v-1619.57958h2878.25006v1619.57958z" fill="none" stroke="#000000" stroke-width="0" stroke-linecap="butt"/><path d="M155.92054,312.29157l33.38547,-48.7229l93.63051,-1.25645l-19.58601,49.03385z" data-paper-data="{&quot;index&quot;:null}" fill="#cedce9" stroke="#000000" stroke-width="0" stroke-linecap="round"/><path d="M147.0078,310.96011c-3.23561,-0.35441 -10.93443,-0.8942 -7.56454,-1.50617c-1.84308,0.19974 -4.30205,0.4446 -5.61076,0.51355c-6.19979,0.32666 -14.23776,0.0678 -20.63672,0.09827c-17.55512,0.08359 -34.59919,0.00703 -51.58881,0.83561c-7.67807,0.37446 -9.79417,-0.65892 -12.14543,0.81227c-4.85265,2.47282 -13.99414,4.70234 -19.86143,7.1964c-7.95209,3.38023 -11.02671,6.62161 -15.89541,9.99619c-5.51436,2.78621 -0.98662,8.06371 -0.97199,11.13558c0.00392,0.82228 1.56147,2.27859 0.08341,2.89091c1.47236,0.02357 2.89443,0.0447 3.80005,0.04039c6.01905,-0.02866 12.03804,-0.05732 18.05712,-0.08598c23.94279,-0.11401 51.76066,-0.36621 74.99347,-1.80553c27.5857,-1.5488 57.50034,0.34138 85.30868,-1.06325c15.22882,-0.7106 31.83427,-0.41036 47.3429,-0.47971c7.86752,-0.03518 14.60157,-0.75065 18.05989,0.50396c0.90897,0.32977 -0.00375,-0.78658 -0.00562,-1.17987c-0.00468,-0.98321 -0.00937,-1.9665 -0.01405,-2.94971c-0.02622,-5.50611 -0.05244,-11.0122 -0.07866,-16.51831c-0.00619,-1.30168 -1.52035,-5.95151 1.56381,-6.47014c-0.579,-0.00516 -1.23434,-0.01488 -1.59471,-0.0192c-3.19225,-0.03807 -4.97544,0.01067 -7.46844,-0.38396c-4.328,-0.6851 -18.91555,-0.08036 -24.77914,-0.05243c-22.78632,0.10851 -45.57259,0.21701 -68.35892,0.32551c0,0 -5.15915,0.02457 -5.16477,-1.1553c-0.00023,-0.04844 0.00819,-0.0949 0.02468,-0.13951c-2.46692,-0.10782 -4.959,-0.26175 -7.4945,-0.53945zM227.99022,310.10916c13.75499,-0.0655 31.33235,-0.70936 40.73721,1.63817c5.38936,1.34521 1.86197,5.75733 1.87074,7.59822c0.02622,5.50611 0.05244,11.01219 0.07866,16.51831c0.003,0.62875 1.79484,3.73926 0.01966,4.12958c-17.93019,3.94234 -51.77459,1.09585 -73.68641,2.32922c-27.19206,1.37352 -58.52512,-0.84791 -84.82982,1.03634c-23.94518,1.48347 -52.79985,1.77034 -77.49572,1.88793c-3.54235,0.01686 -24.78312,0.73155 -27.08557,0.12897c-6.60258,-1.72801 -5.17452,-3.20252 -5.18443,-5.2849c-0.01794,-3.76656 -2.95888,-8.24243 1.49798,-11.88435c4.99014,-3.45872 8.48473,-6.92047 16.45387,-10.30794c3.21466,-1.36644 6.68525,-3.19031 10.84211,-4.43043c2.72002,-0.81146 7.9247,-1.48503 8.57043,-2.52614c4.40073,-2.75358 12.38134,-1.89622 21.81721,-2.40043c16.79703,-0.89756 34.18393,-0.75274 51.58882,-0.83562c6.41881,-0.03057 18.95714,-0.76586 23.48632,-0.57722c7.88423,0.32841 12.46128,1.84399 20.10325,2.26409c5.60755,0.30826 11.51425,0.08185 18.06133,0.79893c0.49703,0.05447 0.99395,0.10888 1.49103,0.16333c17.22114,-0.082 34.44237,-0.164 51.66355,-0.24601z" data-paper-data="{&quot;index&quot;:null}" fill="#000000" stroke="none" stroke-width="0" stroke-linecap="butt"/><path d="M154.57378,311.4426c-0.0165,0.0446 -0.02432,0.0911 -0.02409,0.13954c0.00563,1.17987 5.19011,1.1572 5.19011,1.1572c22.78628,-0.1085 45.69411,-0.19412 68.48052,-0.30262c5.86356,-0.02792 20.46442,-0.62723 24.79241,0.05785c2.49296,0.39464 4.28023,0.34787 7.47235,0.38591c0.36032,0.0043 1.01621,0.01433 1.59531,0.0195c-3.08418,0.51863 -1.5543,5.17968 -1.54811,6.48136c0.02622,5.50611 0.04184,11.04503 0.06805,16.55113c0.00468,0.98323 0.00058,1.97131 0.00527,2.95452c0.00187,0.39329 0.91072,1.51143 0.00173,1.18168c-3.4583,-1.2546 -10.19848,-0.53659 -18.06594,-0.50139c-15.50865,0.06935 -32.161,-0.21719 -47.38976,0.49342c-27.80837,1.40465 -57.99626,-0.47279 -85.58198,1.076c-23.2328,1.43933 -51.1637,1.67152 -75.10666,1.78553c-6.01907,0.02867 -12.04861,0.05367 -18.06766,0.08233c-0.9057,0.00432 -2.32971,-0.01754 -3.80199,-0.04111c1.47808,-0.61233 -0.08911,-2.07274 -0.09303,-2.89503c-0.01463,-3.07187 -4.56675,-8.36968 0.94774,-11.15591c4.86876,-3.3746 7.95383,-6.63842 15.90592,-10.01864c5.86739,-2.49407 15.04742,-4.74134 19.90011,-7.21414c2.35124,-1.47119 4.48334,-0.44238 12.16139,-0.81682c16.98958,-0.82856 34.14427,-0.76906 51.69926,-0.85265c6.39885,-0.03047 14.50875,0.22508 20.70853,-0.10155c1.30859,-0.06896 3.7881,-0.3139 5.63116,-0.51364c-3.36999,0.61195 4.35937,1.15234 7.59504,1.50671c2.53559,0.2777 5.05772,0.43307 7.52458,0.54088z" data-paper-data="{&quot;index&quot;:null}" fill="#484848" stroke="none" stroke-width="0" stroke-linecap="butt"/><path d="M82.26912,316.11265c0.0019,0.39875 1.78276,0.87357 0.89778,1.19352c2.26766,0.04257 4.54903,0.14828 6.57619,0.37032c7.8161,0.8561 23.72301,4.03543 25.23171,6.18023c0.12267,0.17445 -2.0862,0.21421 -1.71138,0.36766c1.24728,0.51058 11.38744,-0.43532 12.55506,-0.29421c0.2642,0.03192 0.39415,0.08301 0.44641,0.14572c-0.05526,-0.19523 -0.10586,-0.38396 -0.10643,-0.50287c-0.00199,-0.41795 0.06808,-0.86867 -0.75098,-1.23861c-6.9627,-3.26179 -18.32786,-6.33995 -37.97916,-6.24638c0,0 -2.31902,0.01103 -3.8493,-0.33724c-0.51004,-0.06379 -0.90682,-0.13981 -1.173,-0.22987c-0.06723,0.22541 -0.13762,0.45487 -0.13696,0.5917zM126.16413,324.75288c0.35325,0.23989 0.2475,-0.16059 0.1285,-0.57948c-0.02363,0.18215 -0.36997,0.41555 -0.1285,0.57948zM134.63126,321.23515c6.42909,2.90364 -8.11654,7.26012 -21.35672,5.34898c-12.49219,-1.80321 -16.73715,-5.52658 -28.13591,-6.77504c-3.85086,-0.42179 -8.46384,-0.64009 -11.34248,-1.3586c-4.56174,-1.13867 -2.5609,-5.11052 6.15214,-5.15203c6.27401,-0.02988 9.36641,0.42078 15.20739,0.39297l2.57958,-0.01228c0,0 2.96124,-0.01407 4.39921,0.49213c15.28776,1.0681 25.10817,3.91998 32.49683,7.06383z" data-paper-data="{&quot;index&quot;:null}" fill="#000000" stroke="none" stroke-width="0" stroke-linecap="butt"/><path d="M82.21444,315.48231c0.26605,0.09008 0.66299,0.16603 1.1731,0.22984c1.53024,0.34829 3.85977,0.33466 3.85977,0.33466c19.65127,-0.09357 31.4265,3.0519 38.38915,6.3137c0.81903,0.36992 0.72651,0.82898 0.72851,1.2469c0.00057,0.11891 0.04168,0.31041 0.09693,0.50564c-0.05216,-0.06273 -0.18089,-0.11411 -0.44523,-0.14607c-1.1676,-0.1411 -11.39561,0.82074 -12.64289,0.31017c-0.37488,-0.15345 1.5885,-0.29565 1.46572,-0.47014c-1.50864,-2.14481 -17.49214,-5.30726 -25.30834,-6.16334c-2.02724,-0.22204 -4.32165,-0.32289 -6.58934,-0.36546c0.88498,-0.31998 -0.87476,-0.80215 -0.87666,-1.20089c-0.00066,-0.13682 0.08162,-0.36961 0.149,-0.59502z" data-paper-data="{&quot;index&quot;:null}" fill="#ffffff" stroke="none" stroke-width="0" stroke-linecap="butt"/><path d="M368.71981,319.97485l-19.71212,-26.43595l93.63269,0.23395l33.51062,26.20201z" data-paper-data="{&quot;index&quot;:null}" fill="#cedce9" stroke="#000000" stroke-width="0" stroke-linecap="round"/><path d="M485.05719,318.60106c-2.53414,0.28977 -5.02545,0.45557 -7.49184,0.57513c0.0167,0.04453 0.02534,0.09095 0.02534,0.13939c0,1.17988 -5.15921,1.17988 -5.15921,1.17988c-22.78659,0 -45.57312,0 -68.3597,0c-5.86365,0 -20.45392,-0.53529 -24.77861,0.17042c-2.4911,0.4065 -4.2745,0.36626 -7.46653,0.41952c-0.36034,0.00603 -1.01563,0.01889 -1.5946,0.0268c3.08659,0.50394 1.5946,5.16092 1.5946,6.46262c0,5.50617 0,11.01233 0,16.5185c0,0.98322 0,1.96652 0,2.94974c0,0.39329 -0.90739,1.51397 0,1.17988c3.45231,-1.27107 10.18968,-0.58767 18.05729,-0.58995c15.50879,-0.0045 32.11262,-0.38379 47.34465,0.25428c27.81471,1.27221 57.72001,-0.7604 85.31277,0.65703c23.23939,1.32868 51.05815,1.44842 75.00121,1.44842c6.01915,0 12.0382,0 18.05732,0c0.90563,0 2.32758,-0.0279 3.79981,-0.05848c-1.48096,-0.60527 0.06965,-2.06898 0.06965,-2.89127c0,-3.07191 4.50257,-8.37091 -1.025,-11.13083c-4.88472,-3.35136 -7.97473,-6.57807 -15.94283,-9.92039c-5.8791,-2.46609 -15.03111,-4.65205 -19.89547,-7.10174c-2.35823,-1.45998 -4.46939,-0.41654 -12.14916,-0.75443c-16.99338,-0.74768 -34.03689,-0.58996 -51.59221,-0.58996c-6.39903,0 -14.43568,0.29713 -20.63695,0c-1.30903,-0.06272 -3.76915,-0.29587 -5.61315,-0.48683c3.37278,0.59592 -4.32338,1.17237 -7.55727,1.54218zM404.07155,318.13566c17.22137,0 34.4428,0 51.66413,0c0.49682,-0.05681 0.99348,-0.11359 1.49024,-0.17042c6.54359,-0.74825 12.4513,-0.54996 18.05732,-0.88492c7.63988,-0.45648 12.20966,-1.99384 20.09224,-2.35979c4.52823,-0.2102 17.06992,0.46538 23.48881,0.46538c17.40509,0 34.7911,-0.22761 51.59221,0.58996c9.43817,0.45927 17.4146,-0.43608 21.82839,2.29652c0.65068,1.03802 5.8585,1.68681 8.58236,2.48531c4.16271,1.22032 7.64196,3.02764 10.86308,4.37875c7.98518,3.34949 11.49622,6.79456 16.50277,10.22948c4.47415,3.62066 1.55455,8.11047 1.55455,11.87708c0,2.08241 1.43507,3.5501 -5.15921,5.30953c-2.29955,0.61354 -23.54349,0 -27.08588,0c-24.69616,0 -53.55186,-0.14946 -77.50383,-1.5189c-26.31337,-1.75897 -57.6355,0.61162 -84.83379,-0.6324c-21.91744,-1.12901 -55.74791,1.8786 -73.69667,-1.97832c-1.77701,-0.38187 0,-3.50087 0,-4.12963c0,-5.50617 0,-11.01232 0,-16.51849c0,-1.84091 -3.54837,-6.23619 1.83453,-7.60704c9.39358,-2.39227 26.9738,-1.83212 40.72895,-1.83212z" data-paper-data="{&quot;index&quot;:null}" fill="#000000" stroke="none" stroke-width="0" stroke-linecap="butt"/><path d="M477.49344,319.11952c2.46632,-0.11956 4.98769,-0.28693 7.52193,-0.5767c3.23395,-0.36978 10.96065,-0.94696 7.58778,-1.54286c1.84399,0.19096 4.32464,0.42409 5.63354,0.48682c6.20127,0.29712 14.30985,0.00295 20.70878,0.00295c17.55519,0 34.7094,-0.14118 51.70273,0.60647c7.67974,0.33789 9.80692,-0.70107 12.16514,0.75891c4.86441,2.44966 14.05504,4.65319 19.93423,7.1193c7.9681,3.34231 11.06867,6.59142 15.95345,9.94279c5.52769,2.75994 1.00085,8.07936 1.00085,11.15126c0,0.8223 -1.56022,2.29016 -0.07924,2.89544c-1.47215,0.03058 -2.89604,0.05922 -3.80175,0.05922c-6.01912,0 -12.04871,0.00371 -18.06785,0.00371c-23.94324,0 -51.87493,-0.09919 -75.11432,-1.42788c-27.59278,-1.41742 -57.77138,0.60374 -85.58613,-0.66848c-15.23198,-0.6381 -31.88278,-0.27226 -47.39158,-0.26777c-7.86754,0.00227 -14.61106,-0.68365 -18.06335,0.58741c-0.9074,0.33408 -0.0039,-0.78838 -0.0039,-1.18167c0,-0.98322 -0.0088,-1.97125 -0.0088,-2.9545c0,-5.50617 -0.01076,-11.0451 -0.01076,-16.55127c0,-1.3017 1.50766,-5.96998 -1.57896,-6.47392c0.57907,-0.00792 1.2349,-0.02107 1.5952,-0.02709c3.19191,-0.05324 4.97938,-0.01498 7.47043,-0.42149c4.32469,-0.70568 18.92824,-0.1759 24.79186,-0.1759c22.78666,0 45.69464,-0.02346 68.48118,-0.02346c0,0 5.18455,-0.00201 5.18455,-1.1819c0,-0.04844 -0.00804,-0.0949 -0.02475,-0.13942z" data-paper-data="{&quot;index&quot;:null}" fill="#484848" stroke="none" stroke-width="0" stroke-linecap="butt"/><path d="M549.81981,323.44516c0,-0.13683 -0.07148,-0.36595 -0.13978,-0.59104c-0.26574,0.09133 -0.66216,0.16923 -1.17189,0.23545c-1.5286,0.35556 -3.84764,0.35557 -3.84764,0.35557c-19.65153,0 -31.0019,3.13224 -37.94899,6.42715c-0.81728,0.37383 -0.74507,0.82422 -0.74507,1.24217c0,0.11891 -0.04972,0.30788 -0.10404,0.50337c0.05197,-0.06295 0.18167,-0.11466 0.44572,-0.14784c1.16694,-0.14667 11.31149,0.75094 12.55632,0.23443c0.37409,-0.15523 -1.83495,-0.18448 -1.71311,-0.35951c1.49846,-2.15196 17.39005,-5.40701 25.20199,-6.30031c2.02608,-0.23169 4.30691,-0.34826 6.57435,-0.40163c-0.88648,-0.31574 0.8921,-0.79903 0.8921,-1.19778zM505.83515,331.71546c-0.117,0.41947 -0.22084,0.82044 0.13126,0.57887c0.24069,-0.16508 -0.10677,-0.39683 -0.13126,-0.57887zM497.48257,328.81694c7.37361,-3.17899 17.18033,-6.07761 32.46283,-7.21849c1.43555,-0.51305 4.39682,-0.51307 4.39682,-0.51307h2.5796c5.84105,0 8.93128,-0.46538 15.20535,-0.46538c8.71314,0 10.73288,3.96229 6.17661,5.12267c-2.87519,0.73221 -7.48706,0.97247 -11.33588,1.41259c-11.39269,1.30272 -15.61987,5.04627 -28.10334,6.90894c-13.23092,1.97417 -27.79713,-2.31301 -21.38194,-5.24723z" data-paper-data="{&quot;index&quot;:null}" fill="#000000" stroke="none" stroke-width="0" stroke-linecap="butt"/><path d="M549.87173,322.81459c0.06847,0.22508 0.15184,0.45747 0.15184,0.5943c0,0.39875 -1.75744,0.8893 -0.87094,1.20506c-2.26746,0.05338 -4.56136,0.16515 -6.58752,0.39684c-7.81204,0.89328 -23.7803,4.1318 -25.27871,6.28377c-0.12196,0.17507 1.84208,0.30793 1.46794,0.46316c-1.24483,0.5165 -11.4773,-0.39663 -12.64422,-0.24997c-0.26418,0.03322 -0.39267,0.08521 -0.44453,0.14819c0.05432,-0.19549 0.09452,-0.38719 0.09452,-0.5061c0,-0.41792 -0.0947,-0.87654 0.72256,-1.25035c6.94703,-3.29492 18.70715,-6.49643 38.35865,-6.49643c0,0 2.32956,0.00254 3.85813,-0.35303c0.50979,-0.06624 0.90637,-0.14408 1.17199,-0.23543z" data-paper-data="{&quot;index&quot;:null}" fill="#ffffff" stroke="none" stroke-width="0" stroke-linecap="butt"/><path d="M18.54076,259.42251l6.82266,-166.65293l257.22887,-25.72831l-1.45522,-33.063l332.23908,-47.61749l-13.45785,331.8453l-7.89203,-0.57844l-305.85664,-22.99073l0.15655,-3.82378l-86.66295,-5.33534l0.13123,-9.44242l-179.4223,-17.68693z" data-paper-data="{&quot;index&quot;:null}" fill="#5f677b" stroke="#000000" stroke-width="1" stroke-linecap="round"/><path d="M20.65426,175.13414l586.72813,-21.49161l-6.75916,165.10181l-314.85386,-23.61236l0.01205,-4.86909l-85.70658,-4.07064l-1.26945,-10.16571l-176.88878,-17.35546l-4.55638,1.4991z" data-paper-data="{&quot;index&quot;:null}" fill="#918d84" stroke="#000000" stroke-width="1" stroke-linecap="round"/><path d="M37.16911,181.44967l76.50111,-1.14013l-2.59404,56.16663l-74.7776,-4.97639z" data-paper-data="{&quot;index&quot;:null}" fill="#0b1403" stroke="#000000" stroke-width="1" stroke-linecap="round"/><path d="M99.68704,180.03171l-1.69961,55.90862l-46.71837,-3.09112l2.86666,-52.03074z" data-paper-data="{&quot;index&quot;:null}" fill="#43472c" stroke="#000000" stroke-width="1" stroke-linecap="round"/><path d="M199.89011,285.41029l4.86253,-100.78266l87.54493,1.66899l-4.31084,105.29822z" data-paper-data="{&quot;index&quot;:null}" fill="#dfdfdf" stroke="#000000" stroke-width="1" stroke-linecap="round"/><path d="M211.00918,286.38109l2.7466,-88.67929l78.07668,-0.04444l-3.69867,93.94352z" data-paper-data="{&quot;index&quot;:null}" fill="#5e616a" stroke="#000000" stroke-width="1" stroke-linecap="round"/><path d="M217.87617,201.40596l73.6226,0.80438l-0.32601,15.1597l-73.12119,-2.25698z" data-paper-data="{&quot;index&quot;:null}" fill="#0b1403" stroke="#000000" stroke-width="1" stroke-linecap="round"/><path d="M307.06102,297.05288l5.78281,-116.06533l254.24028,-3.14419l-6.69345,138.30884z" data-paper-data="{&quot;index&quot;:null}" fill="#dfdfdf" stroke="#000000" stroke-width="1" stroke-linecap="round"/><path d="M320.08677,297.32835l4.60452,-101.67708l227.13417,-0.42382l-5.17393,119.18379z" data-paper-data="{&quot;index&quot;:null}" fill="#5e616a" stroke="#000000" stroke-width="1" stroke-linecap="round"/><path d="M328.765,200.49516l217.58702,-1.10928l1.10506,19.78492l-220.46937,-2.24955z" data-paper-data="{&quot;index&quot;:null}" fill="#0b1403" stroke="#000000" stroke-width="1" stroke-linecap="round"/><path d="M164.93172,170.14619l-69.75208,-84.07921l9.8708,-1.62438l78.50499,84.98693z" data-paper-data="{&quot;index&quot;:null}" fill="#eff6ff" stroke="#000000" stroke-width="1" stroke-linecap="round"/><path d="M283.33485,67.14615l-272.35609,27.64455l-5.10314,-7.47762l276.48497,-30.43372z" data-paper-data="{&quot;index&quot;:null}" fill="#eff6ff" stroke="#000000" stroke-width="1" stroke-linecap="round"/><path d="M259.11319,30.14907l390.20732,-67.61536l-6.72863,19.84028l-378.22652,54.70943z" data-paper-data="{&quot;index&quot;:null}" fill="#eff6ff" stroke="#000000" stroke-width="1" stroke-linecap="round"/><path d="M338.50478,48.19071l204.8976,-20.96747l-2.63982,88.12074l-204.50276,10.3381z" data-paper-data="{&quot;index&quot;:null}" fill="#181e2b" stroke="#000000" stroke-width="1" stroke-linecap="round"/><path d="M510.81133,30.40527l-1.79185,87.10704l-146.91479,7.252l1.63974,-79.45172z" data-paper-data="{&quot;index&quot;:null}" fill="#41628a" stroke="#000000" stroke-width="1" stroke-linecap="round"/><path d="M187.9676,274.37885l-45.01252,-3.10177l2.76231,-80.34399l45.32294,-0.19035z" data-paper-data="{&quot;index&quot;:null}" fill="#a09f89" stroke="#000000" stroke-width="1" stroke-linecap="round"/><path d="M184.28604,274.34922l-37.74742,-2.72384l2.6369,-75.20482l38.02093,-0.3585z" data-paper-data="{&quot;index&quot;:null}" fill="#323730" stroke="#000000" stroke-width="1" stroke-linecap="round"/><path d="M149.00286,197.03957l11.95437,-0.54177l-3.09616,75.62795l-11.60606,-0.76975z" data-paper-data="{&quot;index&quot;:null}" fill="#0e1101" stroke="#000000" stroke-width="1" stroke-linecap="round"/><path d="M219.66787,73.87393l68.40393,-8.6168l-1.72616,73.08376l-71.33736,2.65966z" data-paper-data="{&quot;index&quot;:null}" fill="#eff6ff" stroke="#000000" stroke-width="1" stroke-linecap="round"/><path d="M197.27918,120.80438l-22.10713,0.77987l1.88884,-46.13766l22.46129,-1.00606z" data-paper-data="{&quot;index&quot;:null}" fill="#eff6ff" stroke="#000000" stroke-width="1" stroke-linecap="round"/><path d="M225.40253,80.53745l61.86129,-6.01612l-0.85807,56.4184l-64.57519,1.38874z" data-paper-data="{&quot;index&quot;:null}" fill="#41628a" stroke="#000000" stroke-width="1" stroke-linecap="round"/><path d="M191.80636,113.19546l-10.35181,0.70528l1.26572,-30.91698l10.51943,-0.8597z" data-paper-data="{&quot;index&quot;:null}" fill="#41628a" stroke="#000000" stroke-width="1" stroke-linecap="round"/><path d="M22.22646,176.17898l1.87341,-82.92184l71.16688,-8.28535l69.86137,84.5063z" data-paper-data="{&quot;index&quot;:null}" fill="#576264" stroke="#000000" stroke-width="1" stroke-linecap="round"/><path d="M287.13493,61.37256c0.76573,-0.76547 1.55818,-1.52652 2.70945,-1.8858c1.13714,-0.35487 2.93556,0.36749 4.03629,0.57627c2.82507,0.53582 6.25651,0.62138 8.90875,1.81854c1.45564,0.65705 2.639,1.92556 3.95891,2.8556c4.43537,7.07914 2.04442,15.78891 1.27262,23.50043c-1.54882,4.19638 -4.05202,5.40268 -8.27561,6.13062c-3.79143,0.65345 -7.07029,2.35152 -11.08885,1.52658c-1.21798,-0.25003 -2.05855,-1.17236 -3.12567,-1.76071c-4.04606,-2.12421 -7.33616,-5.00422 -9.30007,-9.46112c-0.77097,-1.74963 -0.59282,-4.21437 -0.9856,-6.1087c-0.41834,-2.0176 -1.20253,-3.67997 -0.99901,-5.73542c0.18729,-1.56283 0.94084,-2.23389 1.84747,-3.44601c2.61328,-3.49385 6.6338,-6.71957 11.04131,-8.01027zM285.11539,63.73835c-3.12757,1.49956 -5.90765,3.97659 -7.82122,6.54374c-0.73028,0.97971 -1.46166,1.43342 -1.55565,2.69791c-0.19112,1.84068 0.59204,3.43175 0.97523,5.27888c0.36307,1.75021 0.15888,4.23978 0.8957,5.82314c1.93314,4.15412 4.81949,6.75001 8.63214,8.73115c0.86806,0.4828 1.73883,1.43873 2.7124,1.61143c3.87613,0.68753 6.88243,-0.88318 10.54099,-1.53533c3.52706,-0.6287 5.79894,-1.34597 7.06327,-4.98402c0.74268,-7.24815 2.96,-15.39433 -0.90228,-22.1401c-1.2107,-0.81241 -2.22496,-1.93088 -3.52836,-2.53747c-2.48153,-1.15488 -5.86267,-1.18747 -8.52596,-1.69083c-0.70302,-0.13287 -2.38339,-0.78922 -3.22444,-0.64021c0.20378,0.05381 0.62015,0.23375 0.56277,0.80032c-0.07558,0.74618 -0.82176,0.67061 -0.82176,0.67061l-0.15804,-0.03064c-0.73446,0.06856 -1.46457,0.20547 -2.18483,0.40135c-0.4728,0.4824 -0.94396,0.97198 -1.52314,1.38037c0,0 -0.62162,0.41964 -1.04125,-0.20198c-0.0415,-0.06147 -0.07282,-0.12097 -0.09556,-0.17829z" fill="#000000" stroke="none" stroke-width="0.5" stroke-linecap="butt"/><path d="M285.19031,63.87109c0.41964,0.62162 1.04397,0.20084 1.04397,0.20084c0.57918,-0.4084 1.05623,-0.89981 1.52903,-1.38222c0.72026,-0.19587 1.45741,-0.334 2.19186,-0.40257l0.15853,0.0306c0,0 0.7489,0.07541 0.82448,-0.67077c0.05739,-0.56657 -0.36056,-0.74643 -0.56433,-0.80024c0.84105,-0.14901 2.53111,0.50763 3.23414,0.6405c2.66329,0.50336 6.06749,0.5451 8.54901,1.69998c1.3034,0.60659 2.32631,1.73305 3.53701,2.54546c3.86228,6.74577 1.64847,14.95223 0.9058,22.20038c-1.26433,3.63806 -3.55434,4.37167 -7.08141,5.00038c-3.65857,0.65215 -6.69591,2.2281 -10.57204,1.54057c-0.97356,-0.17268 -1.85332,-1.13088 -2.72137,-1.61367c-3.81264,-1.98114 -6.72799,-4.6037 -8.66114,-8.75781c-0.73683,-1.58336 -0.537,-4.09198 -0.90008,-5.84219c-0.38319,-1.84714 -1.16415,-3.45434 -0.97304,-5.29502c0.09399,-1.26449 0.829,-1.72695 1.55928,-2.70665c1.91358,-2.56715 4.71714,-5.06627 7.84471,-6.56583c0.02274,0.05731 0.0541,0.1168 0.09559,0.17827z" data-paper-data="{&quot;noHover&quot;:false,&quot;origItem&quot;:[&quot;Path&quot;,{&quot;applyMatrix&quot;:true,&quot;segments&quot;:[[[275.33114,87.02867],[0.0284,0.05473],[-2.96054,1.80709]],[[268.20914,94.32724],[1.64515,-2.74691],[-0.62784,1.04831]],[[266.93327,97.16818],[-0.03391,-1.26752],[-0.00466,1.85057]],[[268.43548,102.32192],[-0.56737,-1.79912],[0.53759,1.70471]],[[269.91341,108.02515],[-0.89263,-1.50105],[2.34191,3.93817]],[[279.38144,115.84201],[-3.99287,-1.58686],[0.91229,0.39287]],[[282.24242,117.17191],[-0.98601,-0.0737],[3.92568,0.29344]],[[292.57504,114.58218],[-3.57423,1.0175],[3.44575,-0.98092]],[[299.10013,108.91177],[-0.89129,3.74695],[0.00851,-7.28609]],[[295.9714,86.97529],[4.52239,6.32223],[-1.2864,-0.68627]],[[292.20529,84.80629],[1.35789,0.47216],[-2.58527,-0.89894]],[[283.55234,83.98321],[2.70046,0.23242],[-0.71283,-0.06135]],[[280.27981,83.67118],[0.82175,-0.233],[0.20816,0.033]],[[280.92036,84.41072],[0,-0.56947],[0,0.75]],[280.17036,85.16072],[[280.01004,85.14616],[0,0],[-0.72381,0.14222]],[[277.87677,85.76563],[0.69686,-0.26745],[-0.42178,0.52759]],[[276.50048,87.29245],[0.53508,-0.46468],[0,0]],[[275.44418,87.19643],[0.48014,0.57617],[-0.04748,-0.05698]]],&quot;closed&quot;:true}]}" fill="#ffffff" stroke="none" stroke-width="0.5" stroke-linecap="butt"/><path d="M320.93563,49.82614c-0.10567,-0.42614 0.27454,-0.7364 0.27454,-0.7364c1.83039,-1.44397 4.48028,-1.25725 6.71109,-1.07711c5.44733,0.43984 11.86974,0.77621 15.26616,5.68588c4.99076,8.28118 6.44303,18.01147 6.07349,27.6231c-0.17971,4.64648 -3.45367,8.34105 -7.29997,10.4127c-0.75695,0.4077 -1.18521,1.25257 -1.85264,1.79455c-2.5306,2.05495 -6.04438,3.26093 -9.25923,2.93532c-5.09338,-0.52003 -11.38784,-3.37437 -14.37531,-7.65981c-1.79898,-2.5806 -1.68369,-6.20651 -3.96679,-8.4538c-2.49788,-3.06593 -2.26419,-5.98217 -1.88284,-9.75915c0.22316,-2.21024 0.28722,-4.941 0.87741,-7.07093c0.71139,-2.56735 4.04135,-6.35662 5.88793,-8.20489c0.84951,-1.34983 2.11301,-4.05337 3.54617,-5.48945zM328.74653,49.58175c-0.17171,0.35759 -0.61172,0.40015 -0.61172,0.40015l-0.69028,0.06125c-1.43709,0.50692 -3.53184,-0.22255 -4.79869,0.35305c-1.4934,0.67854 -3.21856,4.4965 -4.0845,5.85572c-1.68163,1.69162 -4.97106,5.25327 -5.60283,7.62524c-0.55394,2.07979 -0.62493,4.70895 -0.84195,6.86471c-0.33377,3.31544 -0.68358,5.92761 1.50838,8.60862c2.30539,2.42222 2.23998,5.94393 4.08629,8.60613c2.7206,3.92286 8.64848,6.54924 13.28899,7.01518c4.74837,0.48094 6.5522,-2.47147 10.21999,-4.54185c3.36892,-1.90169 6.38165,-4.97477 6.54181,-9.16597c0.35792,-9.30942 -0.9994,-18.73504 -5.83892,-26.75833c-2.7483,-4.20783 -8.50744,-4.57048 -13.17656,-4.9239z" fill="#000000" stroke="none" stroke-width="0.5" stroke-linecap="butt"/><path d="M341.95045,54.46379c4.83952,8.02328 6.21397,17.51359 5.85604,26.82302c-0.16016,4.1912 -3.19157,7.28429 -6.56049,9.18596c-3.66778,2.07039 -5.49587,5.02994 -10.24423,4.549c-4.64051,-0.46594 -10.60125,-3.10333 -13.32186,-7.02619c-1.84631,-2.6622 -1.79562,-6.2034 -4.10102,-8.62562c-2.19196,-2.68101 -1.84593,-5.31691 -1.51215,-8.63236c0.21703,-2.15575 0.29284,-4.8025 0.84679,-6.88229c0.63177,-2.37198 3.93665,-5.95213 5.61828,-7.64377c0.86595,-1.35922 2.60414,-5.18403 4.09752,-5.86257c1.26685,-0.5756 3.37175,0.15148 4.80883,-0.35544l0.69181,-0.06142c0,0 0.44143,-0.04268 0.61314,-0.40027c4.66912,0.35341 10.45902,0.72409 13.20732,4.93194z" data-paper-data="{&quot;noHover&quot;:false,&quot;origItem&quot;:[&quot;Path&quot;,{&quot;applyMatrix&quot;:true,&quot;segments&quot;:[[[317.31364,68.54745],[4.68097,-0.11889],[-0.1348,0.37307]],[316.74536,69.00721],[[316.06477,69.13771],[0,0],[-1.37869,0.64915]],[[311.32607,69.97252],[1.2024,-0.70033],[-1.41742,0.82557]],[[307.85244,76.21002],[0.72457,-1.43956],[-1.50261,1.85247]],[[303.04652,84.36105],[0.38953,-2.42357],[-0.34154,2.12502]],[[302.90061,91.27565],[-0.00131,-2.16665],[0.00202,3.3322]],[[305.2688,99.68845],[-2.45097,-2.44648],[2.53774,2.17758]],[[310.20152,107.839],[-2.10518,-2.4626],[3.10206,3.62874]],[[324.12978,113.47935],[-4.66384,0.00405],[4.77266,0]],[[333.84007,107.93076],[-3.44048,2.42945],[3.16014,-2.23149]],[[339.42492,98.15223],[0.263,4.18601],[-0.582,-9.2981]],[[330.91931,72.11849],[5.62339,7.49477],[-3.15833,-3.90947]]],&quot;closed&quot;:true}]}" fill="#ffffff" stroke="none" stroke-width="0.5" stroke-linecap="butt"/><path d="M303.05997,76.88567c0.12522,-1.23631 1.22896,-2.13704 2.46528,-2.01182c1.23631,0.12522 2.13704,1.22896 2.01182,2.46528c-0.12522,1.23631 -1.22896,2.13704 -2.46528,2.01182c-1.23631,-0.12522 -2.13704,-1.22896 -2.01182,-2.46528z" fill="#000000" stroke="none" stroke-width="0.5" stroke-linecap="butt"/><path d="M340.80079,73.03372c0.12522,-1.23631 1.22896,-2.13704 2.46528,-2.01182c1.23631,0.12522 2.13704,1.22896 2.01182,2.46528c-0.12522,1.23631 -1.22896,2.13704 -2.46528,2.01182c-1.23631,-0.12522 -2.13704,-1.22896 -2.01182,-2.46528z" fill="#000000" stroke="none" stroke-width="0.5" stroke-linecap="butt"/><path d="M240.28292,26.00489c0.26296,-0.9648 1.22776,-0.70184 1.22776,-0.70184l1.14252,0.34662c9.86951,5.75051 20.19581,11.0804 30.27345,16.49704c9.85244,5.30801 21.93892,6.07811 31.1274,12.62889c0,0 0.81382,0.58111 0.23272,1.39493c-0.58111,0.81382 -1.39493,0.23272 -1.39493,0.23272c-9.06837,-6.48595 -21.15159,-7.25805 -30.91223,-12.49497c-10.09734,-5.4296 -20.44323,-10.76806 -30.33328,-16.53054l-0.66157,-0.14508c0,0 -0.9648,-0.26296 -0.70184,-1.22776z" fill="#000000" stroke="none" stroke-width="0.5" stroke-linecap="butt"/><path d="M352.00044,8.90464c-0.05908,0.58329 -0.42548,0.78998 -0.71856,0.86116c-5.27037,5.10875 -11.12651,9.83439 -16.58043,14.77686c-8.4106,7.6219 -18.61395,14.55938 -23.33423,25.05761c0,0 -0.41022,0.91198 -1.3222,0.50178c-0.91198,-0.41022 -0.50178,-1.3222 -0.50178,-1.3222c4.85485,-10.78911 15.17482,-17.88904 23.81519,-25.71917c5.52217,-5.00433 11.50374,-9.77746 16.79431,-14.98656l0.95355,-0.26514c0,0 0.99491,0.10077 0.89414,1.09568z" fill="#000000" stroke="none" stroke-width="0.5" stroke-linecap="butt"/><path d="M284.19161,133.17466c-0.75,0 -0.75,-0.75 -0.75,-0.75l0.00579,-0.02741c-0.78922,-6.38469 -1.85742,-12.57163 -2.93744,-18.91352c-0.51756,-4.05104 0.9403,-5.25461 3.64526,-8.03275c4.6234,-4.74848 9.22582,-6.19598 15.6316,-6.53175c8.50931,-0.94784 17.62326,-2.15972 26.02636,-0.21826c7.81153,2.34702 21.24341,-0.3165 24.84555,9.03519c1.55734,5.29162 0.78711,10.94308 0.64152,16.39812c-0.07754,2.90525 0.23743,6.16519 -1.17803,8.77505c0,0 -0.36423,0.65562 -1.01985,0.29139c-0.65562,-0.36423 -0.29139,-1.01985 -0.29139,-1.01985c1.31447,-2.2962 0.92084,-5.50192 0.98977,-8.08565c0.14032,-5.25949 0.93196,-10.77736 -0.56282,-15.87807c-1.62723,-4.23774 -4.43539,-4.57544 -8.49369,-5.53205c-2.20599,-0.51999 -4.48196,-1.17009 -6.708,-1.55805c-2.9922,-0.52149 -5.62048,-0.07683 -8.60792,-0.97627c-8.23185,-1.89733 -17.1843,-0.66038 -25.5192,0.26348c-6.05282,0.31983 -10.30356,1.58756 -14.67909,6.08306c-2.40595,2.47192 -3.69318,3.24231 -3.2365,6.76508c1.07571,6.35034 2.13391,12.55985 2.94228,18.94882l0.00579,0.21346c0,0 0,0.75 -0.75,0.75z" fill="#000000" stroke="none" stroke-width="0.5" stroke-linecap="butt"/><g stroke="none" stroke-width="0.5" stroke-linecap="butt"><path d="M388.93773,157.86699c-1.49647,0.68975 -3.18893,0.57977 -4.75869,0.77064c-9.25588,1.12539 -17.34203,1.96717 -23.31553,-7.00072c-4.01218,-9.97939 -4.71593,-19.54826 -2.74212,-29.91104c0.63803,-3.34974 0.37156,-6.69238 1.35436,-9.971c1.49065,-4.93689 3.70632,-8.70816 6.97398,-12.37362c1.88769,-2.11751 3.30332,-5.37137 5.97984,-6.90986c3.97084,-2.2825 9.83633,-2.07721 14.19938,-3.50265c3.53853,-0.01271 9.82943,2.03522 12.90759,3.86537c1.72456,1.02536 2.35149,3.29025 3.06537,5.01457c1.13511,2.74176 2.29828,6.55013 2.72977,10.23109c0.52332,-2.05743 1.07212,-4.19019 1.96883,-5.98881c1.11899,-2.2445 2.69643,-2.24087 3.48572,-4.42709c1.775,-2.92854 1.40855,-6.17051 2.64046,-9.19289c0.03141,-0.07709 1.87144,-2.42293 1.99943,-3.06106c0.64466,-3.21388 -0.76038,-6.7034 0.36665,-9.88434c1.12377,-3.17172 4.62136,-5.52023 5.38687,-8.73707c0.40065,-1.68362 0.28948,-3.87921 0.28859,-5.58932c0,-3.11681 -0.13647,-6.96635 -1.77021,-9.76656c-0.57166,-0.97978 -2.16334,-1.33385 -3.00682,-1.741c-2.84552,-1.37355 -6.46557,-2.70608 -8.95129,-4.6395c-5.33992,-4.15352 -8.85794,-7.4205 -15.36639,-9.56619c-3.7267,-1.229 -7.32675,-3.71281 -10.97084,-4.77738c-3.53439,-1.03255 -7.61848,-1.00363 -11.23612,-1.98242c-4.88365,-1.32134 -9.85879,-3.65341 -15.00592,-2.09033c-4.20605,2.02313 -10.02237,0.10381 -14.5853,0.07835c-9.70182,-0.05419 -19.41742,0.16724 -28.82904,2.51896c-8.16462,2.45988 -17.00321,4.31786 -24.65844,8.16308c-5.28482,2.65455 -10.10327,6.17455 -15.24658,9.09205c-1.67586,1.55579 -5.47997,3.7626 -6.11952,6.0982c-1.78865,6.53215 -2.59096,13.47146 -4.19624,20.14925c1.03928,-0.19375 2.08635,-0.31143 3.14241,-0.31348c0,0 1.1011,0 1.1011,1.1011c0,1.1011 -1.1011,1.1011 -1.1011,1.1011c-1.27018,-0.00278 -2.47393,0.19997 -3.65273,0.50119c-0.04978,0.18723 -0.32703,1.01897 -1.28674,0.82702c-0.26052,-0.05209 -0.44562,-0.15449 -0.57649,-0.2799c-1.22758,0.39605 -2.45196,0.83837 -3.7217,1.20129c-0.32449,0.09275 -3.7318,0.70021 -4.03973,1.34189c-2.4082,5.01815 -2.45039,11.37301 -2.52077,16.81636c-1.30959,2.67104 -1.40246,5.72484 -3.43296,8.07351c-2.00472,2.31891 -4.98869,3.77338 -6.06185,6.92387c-0.86479,2.53879 0.80128,4.45818 1.07595,6.84671c0.70595,6.1383 0.55212,11.8224 -2.53656,17.31906c-1.67433,2.08374 -3.24135,3.35344 -4.28182,5.87896c-1.17771,2.85859 -0.53672,6.31242 -0.26204,9.22684c0.75017,7.95952 0.46664,15.9804 -0.67466,23.84508c-1.92639,5.04735 0.11604,9.33853 0.0082,14.43527c-0.06187,2.9252 -1.74832,6.89354 -0.7146,9.80965c1.43904,4.05944 2.37726,8.43148 3.10252,12.81299c2.31908,14.83689 14.51142,18.96035 26.85707,23.62805c4.81307,0.74173 5.23932,3.32271 9.34731,5.22289c7.87029,3.64046 17.54894,5.57287 25.90452,3.18538c3.63254,-0.90975 8.88854,-0.93852 12.57798,-0.12719c4.75502,1.04567 9.92561,3.57281 14.9641,2.42814c1.42395,-0.32349 2.01793,-3.15929 2.68781,-4.05313c1.91899,-2.56035 4.39588,-3.0801 7.29916,-3.90959c5.17839,-1.47664 11.01906,-3.34402 15.80126,-5.84066c7.42305,-3.87539 12.58398,-9.94153 20.11864,-13.37119c4.92752,-5.00625 7.23425,-12.60605 9.26549,-19.23736c1.9813,-6.46819 4.26331,-12.76679 6.06965,-19.39112c1.99782,-7.31811 3.60824,-14.82324 4.54483,-22.35075c-0.35869,0.56902 -0.78167,1.10592 -1.59212,1.4795zM259.13607,73.30105l0.07143,-0.35684c1.72901,-6.90938 2.43217,-14.24736 4.40658,-20.99607c0.86419,-2.95388 4.78142,-5.27101 6.92623,-7.23686c5.23173,-3.00966 10.17422,-6.58166 15.56918,-9.28814c7.78757,-3.9068 16.74731,-5.81372 25.05213,-8.3133c9.6112,-2.40398 19.52079,-2.65335 29.42721,-2.59801c4.06627,0.02273 10.08596,2.00113 13.75597,0.07835c5.71482,-1.7421 10.95366,0.53159 16.39799,2.01033c3.64756,0.99068 7.77715,0.94504 11.34336,2.01444c3.67959,1.10338 7.2237,3.54164 10.97714,4.77948c3.19195,1.05302 6.73297,2.22745 9.50663,4.04745c3.54156,2.32389 5.82213,5.69953 9.68312,7.56861c2.69028,1.30236 7.64438,2.64107 9.29699,5.23043c1.93331,3.02914 2.1205,7.5273 2.1205,10.95819c-0.00182,3.61267 -0.17061,6.51847 -2.23387,9.59623c-1.31402,1.96014 -3.61563,3.86086 -3.85035,6.3993c-0.25911,2.80177 0.59753,5.98759 -0.01991,8.73442c-0.29068,1.29311 -1.59778,2.14949 -2.10123,3.37548c-1.25023,3.04466 -0.92484,6.34124 -2.70596,9.33785c-0.93518,2.17533 -2.53103,2.35792 -3.47478,4.40477c-1.1786,2.55621 -1.73855,5.58824 -2.53992,8.27441c-1.12001,3.75428 -3.57775,6.99842 -5.08826,10.53259c-0.81914,1.91658 -0.85527,4.14394 -1.69484,6.09161c-1.35312,3.13902 -3.10644,5.96886 -4.31145,9.19893c0.02952,4.51763 -1.9979,9.14516 -2.34831,13.70827c-0.7343,9.56261 -2.6591,19.16828 -5.19187,28.46472c-1.70822,6.26258 -2.97811,12.22602 -5.69165,18.12866c-3.45926,7.52481 -4.35096,15.65401 -10.49771,21.71921c-2.13823,1.04942 -5.2606,1.54035 -6.97644,3.28617c-3.89989,3.96809 -8.3918,7.62712 -13.39347,10.23835c-4.91192,2.56441 -10.8973,4.4837 -16.21545,6.00597c-2.40828,0.68811 -4.55134,0.96608 -6.13862,3.10837c-1.22378,1.65168 -1.50455,4.1196 -3.81566,4.8447c-5.14971,1.61572 -11.18392,-1.28924 -16.07883,-2.38603c-3.31197,-0.74209 -8.27162,-0.74807 -11.52592,0.10305c-8.84105,2.52581 -19.07602,0.53975 -27.40413,-3.31245c-4.25967,-1.97031 -4.35501,-4.35417 -8.98298,-5.09182c-13.32621,-4.9601 -25.78527,-9.64169 -28.47006,-25.40147c-0.70285,-4.33159 -1.7785,-8.55146 -3.05161,-12.58148c-1.03671,-3.28161 0.56325,-7.18631 0.63502,-10.43412c0.1167,-5.28172 -1.87995,-9.68435 0.06013,-14.94423c1.06542,-7.58502 1.36595,-15.3534 0.62297,-23.02695c-0.32337,-3.33991 -0.88803,-7.074 0.41276,-10.34212c1.06288,-2.67041 2.77185,-4.10733 4.49044,-6.2673c2.8147,-5.01537 2.75446,-10.16894 2.18703,-15.74575c-0.29788,-2.92744 -1.9825,-4.84991 -0.9484,-7.99874c1.10959,-3.37865 4.28765,-5.10277 6.4493,-7.56061c1.77302,-2.01599 1.7729,-4.82762 2.95009,-7.13288c-0.08884,-5.34298 -0.02731,-12.92516 2.87753,-17.59807c0.56499,-0.90883 2.19834,-1.29271 3.08822,-1.56216c2.12384,-0.643 4.26824,-1.45621 6.44382,-2.06492z" fill="#000000"/><path d="M390.59964,156.4103c-0.9366,7.52751 -2.55743,15.05303 -4.55525,22.37114c-1.80637,6.62434 -4.10014,12.93558 -6.08143,19.40378c-2.03124,6.63129 -4.35076,14.23988 -9.27828,19.24609c-7.5347,3.42965 -12.71248,9.50236 -20.13553,13.37773c-4.78222,2.49667 -10.63491,4.366 -15.8133,5.84268c-2.90329,0.82951 -5.38549,1.34945 -7.30449,3.90983c-0.66994,0.89384 -1.26572,3.72962 -2.68967,4.05313c-5.0385,1.14464 -10.21926,-1.38333 -14.97427,-2.42899c-3.68944,-0.81134 -8.95355,-0.78432 -12.58602,0.12546c-8.35557,2.38748 -18.04931,0.44903 -25.91961,-3.19139c-4.10802,-1.90018 -4.54,-4.48458 -9.35306,-5.22628c-12.34563,-4.66771 -24.55455,-8.80609 -26.87361,-23.64298c-0.72522,-4.38157 -1.66808,-8.75984 -3.10709,-12.81924c-1.03372,-2.91612 0.64995,-6.88903 0.71184,-9.81424c0.10783,-5.09674 -1.93858,-9.39626 -0.01215,-14.44356c1.14132,-7.86467 1.42032,-15.9021 0.67022,-23.86167c-0.27467,-2.91438 -0.91636,-6.37537 0.26137,-9.23396c1.04049,-2.52553 2.60746,-3.79989 4.28174,-5.88362c3.08862,-5.49666 3.24412,-11.19518 2.53819,-17.33348c-0.27471,-2.38853 -1.93946,-4.31299 -1.07467,-6.8518c1.07313,-3.15049 4.0594,-4.61163 6.06415,-6.93049c2.03048,-2.34867 2.12641,-5.40913 3.43601,-8.08018c0.07039,-5.44333 0.11929,-11.80879 2.52749,-16.82695c0.30793,-0.64164 3.71695,-1.25131 4.04147,-1.34407c1.26974,-0.36292 2.49584,-0.80724 3.72344,-1.20335c0.13088,0.12538 0.31605,0.22765 0.57661,0.27978c0.95971,0.19193 1.2378,-0.64069 1.28755,-0.82791c1.1788,-0.30119 2.38418,-0.5057 3.65437,-0.50292c0,0 1.10203,-0.00092 1.10203,-1.10203c0,-1.1011 -0.99825,-0.99631 -0.99825,-0.99631c-1.05604,0.00206 -2.20742,0.01636 -3.24665,0.21012c1.60529,-6.67784 2.417,-13.62535 4.20565,-20.15746c0.63956,-2.3356 4.44866,-4.54575 6.12451,-6.10154c5.14331,-2.91751 9.97282,-6.44307 15.25764,-9.09762c7.65519,-3.84522 16.5111,-5.70777 24.67569,-8.16769c9.41162,-2.35177 19.14674,-2.57327 28.84855,-2.51908c4.56293,0.02547 10.38855,1.94658 14.5946,-0.07654c5.14713,-1.56308 10.13138,0.77205 15.01502,2.09339c3.61765,0.97879 7.70805,0.95279 11.2424,1.98531c3.64408,1.0646 7.25046,3.5521 10.97714,4.78114c6.50845,2.14568 10.03516,5.41934 15.37507,9.57286c2.48572,1.93343 6.1099,3.26998 8.95543,4.64353c0.84348,0.40715 2.43647,0.76264 3.00814,1.74246c1.63379,2.80028 1.77355,6.6537 1.77355,9.77051c0.00088,1.71012 0.11363,3.90785 -0.28698,5.59146c-0.76548,3.21688 -4.26151,5.56757 -5.38533,8.73929c-1.12703,3.18089 0.281,6.67537 -0.36365,9.88924c-0.12803,0.63815 -1.96741,2.98509 -1.99882,3.06218c-1.23194,3.02237 -0.86307,6.26923 -2.63807,9.19776c-0.78929,2.18622 -2.36584,2.18461 -3.48484,4.42911c-0.8967,1.79861 -1.58267,3.98353 -2.10602,6.04097c-0.43149,-3.68096 -1.59111,-7.48088 -2.72623,-10.22264c-0.71387,-1.72432 -1.33839,-3.9847 -3.06295,-5.01006c-3.07813,-1.83014 -9.36372,-3.87021 -12.90226,-3.85745c-4.36306,1.42543 -10.22405,1.22545 -14.19486,3.50792c-2.67652,1.5385 -3.98418,4.69287 -5.87187,6.8104c-3.26764,3.66546 -5.47825,7.44307 -6.96883,12.37999c-0.9828,3.27862 -0.70862,6.63487 -1.34666,9.98461c-1.97376,10.36273 -1.27094,19.99226 2.74124,29.97165c5.97355,8.96789 13.92516,8.06747 23.18104,6.94204c1.56975,-0.19084 3.26124,-0.0783 4.75771,-0.76806c0.81046,-0.37358 1.3723,-0.86287 1.73099,-1.43187z" data-paper-data="{&quot;noHover&quot;:false,&quot;origItem&quot;:[&quot;Path&quot;,{&quot;applyMatrix&quot;:true,&quot;segments&quot;:[[[317.41596,224.93512],[0.2015,-0.09288],[-0.37206,0.17149]],[[316.23283,225.12672],[0.39028,-0.04745],[-2.30125,0.2798]],[[310.43598,223.38616],[1.48518,2.22965],[-0.99753,-2.48113]],[[309.75422,215.94952],[-0.49073,2.57644],[0.15863,-0.83283]],[[310.09095,213.47046],[-0.24435,0.81515],[0.37061,-1.22744]],[[311.82486,210.39406],[-0.81242,0.91133],[0.46933,-0.52647]],[[313.3116,208.67609],[-0.66545,0.38251],[0.98725,-0.56749]],[[316.84193,207.80524],[-1.08477,0.3544],[0.87977,-0.00316]],[[320.05109,208.76627],[-0.7653,-0.45502],[0.42877,0.25493]],[[320.81322,210.01301],[-0.17749,-0.42871],[0.28222,0.68167]],[[321.49191,212.55672],[-0.10728,-0.91518],[0.13011,-0.51153]],[[321.98141,211.06775],[-0.22294,0.44718],[0.27821,-0.55804]],[[322.84805,209.96706],[-0.19624,0.54355],[0.44131,-0.72811]],[[323.50454,207.68147],[-0.30629,0.75144],[0.00781,-0.01917]],[[324.00165,206.92041],[-0.03183,0.15866],[0.16028,-0.79905]],[[324.09281,204.46292],[-0.28021,0.79085],[0.2794,-0.78857]],[[325.43212,202.29065],[-0.19032,0.7998],[0.09961,-0.41859]],[[325.50387,200.901],[0.00022,0.42518],[0,-0.77492]],[[325.06375,198.47278],[0.4062,0.69622],[-0.14213,-0.2436]],[[324.31618,198.03992],[0.20971,0.10123],[-0.70747,-0.3415]],[[322.09066,196.88641],[0.61801,0.4807],[-1.32764,-1.03267]],[[318.27018,194.50801],[1.61817,0.53347],[-0.92655,-0.30556]],[[315.54255,193.32023],[0.90601,0.26469],[-0.87874,-0.25672]],[[312.74896,192.82735],[0.89944,0.24335],[-1.2142,-0.32852]],[[309.0181,192.30764],[1.27971,-0.38862],[-1.04573,0.503]],[[305.39182,192.32712],[1.13446,0.00633],[-2.41212,-0.01347]],[[298.22418,192.9534],[2.33997,-0.58471],[-2.02993,0.61159]],[[292.09346,194.98295],[1.90328,-0.95602],[-1.31394,0.65999]],[[288.30277,197.24347],[1.27876,-0.72537],[-0.41666,0.38681]],[[286.7813,198.75964],[0.15901,-0.58069],[-0.4447,1.62406]],[[285.73801,203.76926],[0.39912,-1.66028],[0.25839,-0.04817]],[[286.51929,203.69132],[-0.26256,0.00051],[0,0]],[[286.79305,203.96508],[0,-0.27376],[0,0.27376]],[[286.51929,204.23884],[0,0],[-0.3158,-0.00069]],[[285.61112,204.36345],[0.29308,-0.07488],[-0.01238,0.04655]],[[285.2912,204.56907],[0.23861,0.04772],[-0.06477,-0.01295]],[[285.14787,204.49948],[0.03254,0.03117],[-0.30521,0.09847]],[[284.22256,204.79815],[0.31569,-0.09023],[-0.08068,0.02306]],[[283.21819,205.13178],[0.07656,-0.15953],[-0.59874,1.24764]],[[282.59146,209.31276],[0.0175,-1.35335],[-0.3256,0.66409]],[[281.73794,211.32003],[0.50483,-0.58394],[-0.49843,0.57654]],[[280.23081,213.04149],[0.26681,-0.78329],[-0.21501,0.63121]],[[280.49832,214.74375],[-0.0683,-0.59385],[0.17552,1.52614]],[[279.86767,219.04972],[0.76791,-1.36661],[-0.41628,0.51807]],[[278.8031,220.51137],[0.25869,-0.62791],[-0.29281,0.71072]],[[278.73795,222.8054],[-0.06829,-0.72459],[0.18651,1.97894]],[[278.5702,228.7339],[0.28376,-1.95536],[-0.47895,1.2549]],[[278.57224,232.32288],[0.02681,-1.26718],[-0.01538,0.72728]],[[278.39458,234.76181],[-0.25701,-0.72502],[0.35778,1.00928]],[[279.16594,237.94746],[-0.18031,-1.08937],[0.57658,3.68883]],[[285.8433,243.822],[-3.06944,-1.16051],[1.19665,0.18441]],[[288.16728,245.12054],[-1.02136,-0.47243],[1.95676,0.90511]],[[294.60781,245.91251],[-2.07741,0.59359],[0.90314,-0.22619]],[[297.73503,245.88088],[-0.91729,-0.20172],[1.18222,0.25998]],[[301.45549,246.48458],[-1.2527,0.28459],[0.35403,-0.08043]],[[302.12375,245.47687],[-0.16656,0.22223],[0.47711,-0.63657]],[[303.93851,244.50485],[-0.72183,0.20624],[1.28748,-0.36713]],[[307.86712,243.0527],[-1.18898,0.62074],[1.84556,-0.96352]],[[312.86913,239.72828],[-1.87332,0.8527],[1.22511,-1.24468]],[[315.17277,234.94538],[-0.50502,1.64871],[0.4926,-1.60816]],[[316.68185,230.12425],[-0.44911,1.64698],[0.49671,-1.81947]],[[317.8118,224.56728],[-0.23286,1.87153],[-0.08918,0.14147]]],&quot;closed&quot;:true}]}" fill="#ffdf4d"/></g></g></g></svg>