<svg version="1.1" xmlns="http://www.w3.org/2000/svg" xmlns:xlink="http://www.w3.org/1999/xlink" width="2878.25006" height="1619.57958" viewBox="0,0,2878.25006,1619.57958"><g transform="translate(1117.37278,629.80931)"><g data-paper-data="{&quot;isPaintingLayer&quot;:true}" fill-rule="nonzero" stroke-linejoin="miter" stroke-miterlimit="10" stroke-dasharray="" stroke-dashoffset="0" style="mix-blend-mode: normal"><path d="M-1117.37278,989.77027v-1619.57958h2878.25006v1619.57958z" fill="none" stroke="#000000" stroke-width="0" stroke-linecap="butt"/><path d="M155.92054,312.29157l33.38547,-48.7229l93.63051,-1.25645l-19.58601,49.03385z" data-paper-data="{&quot;index&quot;:null}" fill="#cedce9" stroke="#000000" stroke-width="0" stroke-linecap="round"/><path d="M147.0078,310.96011c-3.23561,-0.35441 -10.93443,-0.8942 -7.56454,-1.50617c-1.84308,0.19974 -4.30205,0.4446 -5.61076,0.51355c-6.19979,0.32666 -14.23776,0.0678 -20.63672,0.09827c-17.55512,0.08359 -34.59919,0.00703 -51.58881,0.83561c-7.67807,0.37446 -9.79417,-0.65892 -12.14543,0.81227c-4.85265,2.47282 -13.99414,4.70234 -19.86143,7.1964c-7.95209,3.38023 -11.02671,6.62161 -15.89541,9.99619c-5.51436,2.78621 -0.98662,8.06371 -0.97199,11.13558c0.00392,0.82228 1.56147,2.27859 0.08341,2.89091c1.47236,0.02357 2.89443,0.0447 3.80005,0.04039c6.01905,-0.02866 12.03804,-0.05732 18.05712,-0.08598c23.94279,-0.11401 51.76066,-0.36621 74.99347,-1.80553c27.5857,-1.5488 57.50034,0.34138 85.30868,-1.06325c15.22882,-0.7106 31.83427,-0.41036 47.3429,-0.47971c7.86752,-0.03518 14.60157,-0.75065 18.05989,0.50396c0.90897,0.32977 -0.00375,-0.78658 -0.00562,-1.17987c-0.00468,-0.98321 -0.00937,-1.9665 -0.01405,-2.94971c-0.02622,-5.50611 -0.05244,-11.0122 -0.07866,-16.51831c-0.00619,-1.30168 -1.52035,-5.95151 1.56381,-6.47014c-0.579,-0.00516 -1.23434,-0.01488 -1.59471,-0.0192c-3.19225,-0.03807 -4.97544,0.01067 -7.46844,-0.38396c-4.328,-0.6851 -18.91555,-0.08036 -24.77914,-0.05243c-22.78632,0.10851 -45.57259,0.21701 -68.35892,0.32551c0,0 -5.15915,0.02457 -5.16477,-1.1553c-0.00023,-0.04844 0.00819,-0.0949 0.02468,-0.13951c-2.46692,-0.10782 -4.959,-0.26175 -7.4945,-0.53945zM227.99022,310.10916c13.75499,-0.0655 31.33235,-0.70936 40.73721,1.63817c5.38936,1.34521 1.86197,5.75733 1.87074,7.59822c0.02622,5.50611 0.05244,11.01219 0.07866,16.51831c0.003,0.62875 1.79484,3.73926 0.01966,4.12958c-17.93019,3.94234 -51.77459,1.09585 -73.68641,2.32922c-27.19206,1.37352 -58.52512,-0.84791 -84.82982,1.03634c-23.94518,1.48347 -52.79985,1.77034 -77.49572,1.88793c-3.54235,0.01686 -24.78312,0.73155 -27.08557,0.12897c-6.60258,-1.72801 -5.17452,-3.20252 -5.18443,-5.2849c-0.01794,-3.76656 -2.95888,-8.24243 1.49798,-11.88435c4.99014,-3.45872 8.48473,-6.92047 16.45387,-10.30794c3.21466,-1.36644 6.68525,-3.19031 10.84211,-4.43043c2.72002,-0.81146 7.9247,-1.48503 8.57043,-2.52614c4.40073,-2.75358 12.38134,-1.89622 21.81721,-2.40043c16.79703,-0.89756 34.18393,-0.75274 51.58882,-0.83562c6.41881,-0.03057 18.95714,-0.76586 23.48632,-0.57722c7.88423,0.32841 12.46128,1.84399 20.10325,2.26409c5.60755,0.30826 11.51425,0.08185 18.06133,0.79893c0.49703,0.05447 0.99395,0.10888 1.49103,0.16333c17.22114,-0.082 34.44237,-0.164 51.66355,-0.24601z" data-paper-data="{&quot;index&quot;:null}" fill="#000000" stroke="none" stroke-width="0" stroke-linecap="butt"/><path d="M154.57378,311.4426c-0.0165,0.0446 -0.02432,0.0911 -0.02409,0.13954c0.00563,1.17987 5.19011,1.1572 5.19011,1.1572c22.78628,-0.1085 45.69411,-0.19412 68.48052,-0.30262c5.86356,-0.02792 20.46442,-0.62723 24.79241,0.05785c2.49296,0.39464 4.28023,0.34787 7.47235,0.38591c0.36032,0.0043 1.01621,0.01433 1.59531,0.0195c-3.08418,0.51863 -1.5543,5.17968 -1.54811,6.48136c0.02622,5.50611 0.04184,11.04503 0.06805,16.55113c0.00468,0.98323 0.00058,1.97131 0.00527,2.95452c0.00187,0.39329 0.91072,1.51143 0.00173,1.18168c-3.4583,-1.2546 -10.19848,-0.53659 -18.06594,-0.50139c-15.50865,0.06935 -32.161,-0.21719 -47.38976,0.49342c-27.80837,1.40465 -57.99626,-0.47279 -85.58198,1.076c-23.2328,1.43933 -51.1637,1.67152 -75.10666,1.78553c-6.01907,0.02867 -12.04861,0.05367 -18.06766,0.08233c-0.9057,0.00432 -2.32971,-0.01754 -3.80199,-0.04111c1.47808,-0.61233 -0.08911,-2.07274 -0.09303,-2.89503c-0.01463,-3.07187 -4.56675,-8.36968 0.94774,-11.15591c4.86876,-3.3746 7.95383,-6.63842 15.90592,-10.01864c5.86739,-2.49407 15.04742,-4.74134 19.90011,-7.21414c2.35124,-1.47119 4.48334,-0.44238 12.16139,-0.81682c16.98958,-0.82856 34.14427,-0.76906 51.69926,-0.85265c6.39885,-0.03047 14.50875,0.22508 20.70853,-0.10155c1.30859,-0.06896 3.7881,-0.3139 5.63116,-0.51364c-3.36999,0.61195 4.35937,1.15234 7.59504,1.50671c2.53559,0.2777 5.05772,0.43307 7.52458,0.54088z" data-paper-data="{&quot;index&quot;:null}" fill="#484848" stroke="none" stroke-width="0" stroke-linecap="butt"/><path d="M82.26912,316.11265c0.0019,0.39875 1.78276,0.87357 0.89778,1.19352c2.26766,0.04257 4.54903,0.14828 6.57619,0.37032c7.8161,0.8561 23.72301,4.03543 25.23171,6.18023c0.12267,0.17445 -2.0862,0.21421 -1.71138,0.36766c1.24728,0.51058 11.38744,-0.43532 12.55506,-0.29421c0.2642,0.03192 0.39415,0.08301 0.44641,0.14572c-0.05526,-0.19523 -0.10586,-0.38396 -0.10643,-0.50287c-0.00199,-0.41795 0.06808,-0.86867 -0.75098,-1.23861c-6.9627,-3.26179 -18.32786,-6.33995 -37.97916,-6.24638c0,0 -2.31902,0.01103 -3.8493,-0.33724c-0.51004,-0.06379 -0.90682,-0.13981 -1.173,-0.22987c-0.06723,0.22541 -0.13762,0.45487 -0.13696,0.5917zM126.16413,324.75288c0.35325,0.23989 0.2475,-0.16059 0.1285,-0.57948c-0.02363,0.18215 -0.36997,0.41555 -0.1285,0.57948zM134.63126,321.23515c6.42909,2.90364 -8.11654,7.26012 -21.35672,5.34898c-12.49219,-1.80321 -16.73715,-5.52658 -28.13591,-6.77504c-3.85086,-0.42179 -8.46384,-0.64009 -11.34248,-1.3586c-4.56174,-1.13867 -2.5609,-5.11052 6.15214,-5.15203c6.27401,-0.02988 9.36641,0.42078 15.20739,0.39297l2.57958,-0.01228c0,0 2.96124,-0.01407 4.39921,0.49213c15.28776,1.0681 25.10817,3.91998 32.49683,7.06383z" data-paper-data="{&quot;index&quot;:null}" fill="#000000" stroke="none" stroke-width="0" stroke-linecap="butt"/><path d="M82.21444,315.48231c0.26605,0.09008 0.66299,0.16603 1.1731,0.22984c1.53024,0.34829 3.85977,0.33466 3.85977,0.33466c19.65127,-0.09357 31.4265,3.0519 38.38915,6.3137c0.81903,0.36992 0.72651,0.82898 0.72851,1.2469c0.00057,0.11891 0.04168,0.31041 0.09693,0.50564c-0.05216,-0.06273 -0.18089,-0.11411 -0.44523,-0.14607c-1.1676,-0.1411 -11.39561,0.82074 -12.64289,0.31017c-0.37488,-0.15345 1.5885,-0.29565 1.46572,-0.47014c-1.50864,-2.14481 -17.49214,-5.30726 -25.30834,-6.16334c-2.02724,-0.22204 -4.32165,-0.32289 -6.58934,-0.36546c0.88498,-0.31998 -0.87476,-0.80215 -0.87666,-1.20089c-0.00066,-0.13682 0.08162,-0.36961 0.149,-0.59502z" data-paper-data="{&quot;index&quot;:null}" fill="#ffffff" stroke="none" stroke-width="0" stroke-linecap="butt"/><path d="M368.71981,319.97485l-19.71212,-26.43595l93.63269,0.23395l33.51062,26.20201z" data-paper-data="{&quot;index&quot;:null}" fill="#cedce9" stroke="#000000" stroke-width="0" stroke-linecap="round"/><path d="M485.05719,318.60106c-2.53414,0.28977 -5.02545,0.45557 -7.49184,0.57513c0.0167,0.04453 0.02534,0.09095 0.02534,0.13939c0,1.17988 -5.15921,1.17988 -5.15921,1.17988c-22.78659,0 -45.57312,0 -68.3597,0c-5.86365,0 -20.45392,-0.53529 -24.77861,0.17042c-2.4911,0.4065 -4.2745,0.36626 -7.46653,0.41952c-0.36034,0.00603 -1.01563,0.01889 -1.5946,0.0268c3.08659,0.50394 1.5946,5.16092 1.5946,6.46262c0,5.50617 0,11.01233 0,16.5185c0,0.98322 0,1.96652 0,2.94974c0,0.39329 -0.90739,1.51397 0,1.17988c3.45231,-1.27107 10.18968,-0.58767 18.05729,-0.58995c15.50879,-0.0045 32.11262,-0.38379 47.34465,0.25428c27.81471,1.27221 57.72001,-0.7604 85.31277,0.65703c23.23939,1.32868 51.05815,1.44842 75.00121,1.44842c6.01915,0 12.0382,0 18.05732,0c0.90563,0 2.32758,-0.0279 3.79981,-0.05848c-1.48096,-0.60527 0.06965,-2.06898 0.06965,-2.89127c0,-3.07191 4.50257,-8.37091 -1.025,-11.13083c-4.88472,-3.35136 -7.97473,-6.57807 -15.94283,-9.92039c-5.8791,-2.46609 -15.03111,-4.65205 -19.89547,-7.10174c-2.35823,-1.45998 -4.46939,-0.41654 -12.14916,-0.75443c-16.99338,-0.74768 -34.03689,-0.58996 -51.59221,-0.58996c-6.39903,0 -14.43568,0.29713 -20.63695,0c-1.30903,-0.06272 -3.76915,-0.29587 -5.61315,-0.48683c3.37278,0.59592 -4.32338,1.17237 -7.55727,1.54218zM404.07155,318.13566c17.22137,0 34.4428,0 51.66413,0c0.49682,-0.05681 0.99348,-0.11359 1.49024,-0.17042c6.54359,-0.74825 12.4513,-0.54996 18.05732,-0.88492c7.63988,-0.45648 12.20966,-1.99384 20.09224,-2.35979c4.52823,-0.2102 17.06992,0.46538 23.48881,0.46538c17.40509,0 34.7911,-0.22761 51.59221,0.58996c9.43817,0.45927 17.4146,-0.43608 21.82839,2.29652c0.65068,1.03802 5.8585,1.68681 8.58236,2.48531c4.16271,1.22032 7.64196,3.02764 10.86308,4.37875c7.98518,3.34949 11.49622,6.79456 16.50277,10.22948c4.47415,3.62066 1.55455,8.11047 1.55455,11.87708c0,2.08241 1.43507,3.5501 -5.15921,5.30953c-2.29955,0.61354 -23.54349,0 -27.08588,0c-24.69616,0 -53.55186,-0.14946 -77.50383,-1.5189c-26.31337,-1.75897 -57.6355,0.61162 -84.83379,-0.6324c-21.91744,-1.12901 -55.74791,1.8786 -73.69667,-1.97832c-1.77701,-0.38187 0,-3.50087 0,-4.12963c0,-5.50617 0,-11.01232 0,-16.51849c0,-1.84091 -3.54837,-6.23619 1.83453,-7.60704c9.39358,-2.39227 26.9738,-1.83212 40.72895,-1.83212z" data-paper-data="{&quot;index&quot;:null}" fill="#000000" stroke="none" stroke-width="0" stroke-linecap="butt"/><path d="M477.49344,319.11952c2.46632,-0.11956 4.98769,-0.28693 7.52193,-0.5767c3.23395,-0.36978 10.96065,-0.94696 7.58778,-1.54286c1.84399,0.19096 4.32464,0.42409 5.63354,0.48682c6.20127,0.29712 14.30985,0.00295 20.70878,0.00295c17.55519,0 34.7094,-0.14118 51.70273,0.60647c7.67974,0.33789 9.80692,-0.70107 12.16514,0.75891c4.86441,2.44966 14.05504,4.65319 19.93423,7.1193c7.9681,3.34231 11.06867,6.59142 15.95345,9.94279c5.52769,2.75994 1.00085,8.07936 1.00085,11.15126c0,0.8223 -1.56022,2.29016 -0.07924,2.89544c-1.47215,0.03058 -2.89604,0.05922 -3.80175,0.05922c-6.01912,0 -12.04871,0.00371 -18.06785,0.00371c-23.94324,0 -51.87493,-0.09919 -75.11432,-1.42788c-27.59278,-1.41742 -57.77138,0.60374 -85.58613,-0.66848c-15.23198,-0.6381 -31.88278,-0.27226 -47.39158,-0.26777c-7.86754,0.00227 -14.61106,-0.68365 -18.06335,0.58741c-0.9074,0.33408 -0.0039,-0.78838 -0.0039,-1.18167c0,-0.98322 -0.0088,-1.97125 -0.0088,-2.9545c0,-5.50617 -0.01076,-11.0451 -0.01076,-16.55127c0,-1.3017 1.50766,-5.96998 -1.57896,-6.47392c0.57907,-0.00792 1.2349,-0.02107 1.5952,-0.02709c3.19191,-0.05324 4.97938,-0.01498 7.47043,-0.42149c4.32469,-0.70568 18.92824,-0.1759 24.79186,-0.1759c22.78666,0 45.69464,-0.02346 68.48118,-0.02346c0,0 5.18455,-0.00201 5.18455,-1.1819c0,-0.04844 -0.00804,-0.0949 -0.02475,-0.13942z" data-paper-data="{&quot;index&quot;:null}" fill="#484848" stroke="none" stroke-width="0" stroke-linecap="butt"/><path d="M549.81981,323.44516c0,-0.13683 -0.07148,-0.36595 -0.13978,-0.59104c-0.26574,0.09133 -0.66216,0.16923 -1.17189,0.23545c-1.5286,0.35556 -3.84764,0.35557 -3.84764,0.35557c-19.65153,0 -31.0019,3.13224 -37.94899,6.42715c-0.81728,0.37383 -0.74507,0.82422 -0.74507,1.24217c0,0.11891 -0.04972,0.30788 -0.10404,0.50337c0.05197,-0.06295 0.18167,-0.11466 0.44572,-0.14784c1.16694,-0.14667 11.31149,0.75094 12.55632,0.23443c0.37409,-0.15523 -1.83495,-0.18448 -1.71311,-0.35951c1.49846,-2.15196 17.39005,-5.40701 25.20199,-6.30031c2.02608,-0.23169 4.30691,-0.34826 6.57435,-0.40163c-0.88648,-0.31574 0.8921,-0.79903 0.8921,-1.19778zM505.83515,331.71546c-0.117,0.41947 -0.22084,0.82044 0.13126,0.57887c0.24069,-0.16508 -0.10677,-0.39683 -0.13126,-0.57887zM497.48257,328.81694c7.37361,-3.17899 17.18033,-6.07761 32.46283,-7.21849c1.43555,-0.51305 4.39682,-0.51307 4.39682,-0.51307h2.5796c5.84105,0 8.93128,-0.46538 15.20535,-0.46538c8.71314,0 10.73288,3.96229 6.17661,5.12267c-2.87519,0.73221 -7.48706,0.97247 -11.33588,1.41259c-11.39269,1.30272 -15.61987,5.04627 -28.10334,6.90894c-13.23092,1.97417 -27.79713,-2.31301 -21.38194,-5.24723z" data-paper-data="{&quot;index&quot;:null}" fill="#000000" stroke="none" stroke-width="0" stroke-linecap="butt"/><path d="M549.87173,322.81459c0.06847,0.22508 0.15184,0.45747 0.15184,0.5943c0,0.39875 -1.75744,0.8893 -0.87094,1.20506c-2.26746,0.05338 -4.56136,0.16515 -6.58752,0.39684c-7.81204,0.89328 -23.7803,4.1318 -25.27871,6.28377c-0.12196,0.17507 1.84208,0.30793 1.46794,0.46316c-1.24483,0.5165 -11.4773,-0.39663 -12.64422,-0.24997c-0.26418,0.03322 -0.39267,0.08521 -0.44453,0.14819c0.05432,-0.19549 0.09452,-0.38719 0.09452,-0.5061c0,-0.41792 -0.0947,-0.87654 0.72256,-1.25035c6.94703,-3.29492 18.70715,-6.49643 38.35865,-6.49643c0,0 2.32956,0.00254 3.85813,-0.35303c0.50979,-0.06624 0.90637,-0.14408 1.17199,-0.23543z" data-paper-data="{&quot;index&quot;:null}" fill="#ffffff" stroke="none" stroke-width="0" stroke-linecap="butt"/><g><path d="M377.82912,30.57097l78.1084,-173.92227l60.57386,165.91896z" fill="#87ffeb" stroke="#000000" stroke-width="2.5" stroke-linecap="round"/><path d="M58.48799,95.47302l78.1084,-173.92227l60.57386,165.91896z" fill="#87ffeb" stroke="#000000" stroke-width="2.5" stroke-linecap="round"/><path d="M18.54076,263.33586l6.82266,-164.16075l257.22887,-25.34356l-1.45522,-32.56857l332.23908,-46.9054l-13.45785,326.88277l-7.89203,-0.5698l-305.85664,-22.64692l0.15655,-3.7666l-86.66295,-5.25556l0.13123,-9.30121l-179.4223,-17.42243z" data-paper-data="{&quot;index&quot;:null}" fill="#5f677b" stroke="#000000" stroke-width="1" stroke-linecap="round"/><path d="M20.65426,180.30796l586.72813,-21.17022l-6.75916,162.63282l-314.85386,-23.25925l0.01205,-4.79628l-85.70658,-4.00977l-1.26945,-10.01369l-176.88878,-17.09591l-4.55638,1.47668z" data-paper-data="{&quot;index&quot;:null}" fill="#918d84" stroke="#000000" stroke-width="1" stroke-linecap="round"/><path d="M37.16911,186.52905l76.50111,-1.12309l-2.59404,55.32669l-74.7776,-4.90196z" data-paper-data="{&quot;index&quot;:null}" fill="#0b1403" stroke="#000000" stroke-width="1" stroke-linecap="round"/><path d="M99.68704,185.13229l-1.69961,55.07255l-46.71837,-3.0449l2.86666,-51.25266z" data-paper-data="{&quot;index&quot;:null}" fill="#43472c" stroke="#000000" stroke-width="1" stroke-linecap="round"/><path d="M199.89011,288.935l4.86253,-99.27552l87.54493,1.64403l-4.31084,103.72356z" data-paper-data="{&quot;index&quot;:null}" fill="#dfdfdf" stroke="#000000" stroke-width="1" stroke-linecap="round"/><path d="M211.00918,289.89129l2.7466,-87.35314l78.07668,-0.04378l-3.69867,92.53866z" data-paper-data="{&quot;index&quot;:null}" fill="#5e616a" stroke="#000000" stroke-width="1" stroke-linecap="round"/><path d="M217.87617,206.18692l73.6226,0.79236l-0.32601,14.93299l-73.12119,-2.22322z" data-paper-data="{&quot;index&quot;:null}" fill="#0b1403" stroke="#000000" stroke-width="1" stroke-linecap="round"/><path d="M307.06102,300.40349l5.78281,-114.32964l254.24028,-3.09717l-6.69345,136.24052z" data-paper-data="{&quot;index&quot;:null}" fill="#dfdfdf" stroke="#000000" stroke-width="1" stroke-linecap="round"/><path d="M320.08677,300.67484l4.60452,-100.15656l227.13417,-0.41747l-5.17393,117.40147z" data-paper-data="{&quot;index&quot;:null}" fill="#5e616a" stroke="#000000" stroke-width="1" stroke-linecap="round"/><path d="M328.765,205.28974l217.58702,-1.09269l1.10506,19.48905l-220.46937,-2.2159z" data-paper-data="{&quot;index&quot;:null}" fill="#0b1403" stroke="#000000" stroke-width="1" stroke-linecap="round"/><path d="M164.93172,175.39461l-69.75208,-82.82185l9.8708,-1.60008l78.50499,83.71601z" data-paper-data="{&quot;index&quot;:null}" fill="#eff6ff" stroke="#000000" stroke-width="1" stroke-linecap="round"/><path d="M283.33485,73.93487l-272.35609,27.23115l-5.10314,-7.36579l276.48497,-29.9786z" data-paper-data="{&quot;index&quot;:null}" fill="#eff6ff" stroke="#000000" stroke-width="1" stroke-linecap="round"/><path d="M259.11319,37.49105l390.20732,-66.60421l-6.72863,19.54358l-378.22652,53.89129z" data-paper-data="{&quot;index&quot;:null}" fill="#eff6ff" stroke="#000000" stroke-width="1" stroke-linecap="round"/><path d="M338.50478,55.2629l204.8976,-20.65391l-2.63982,86.80296l-204.50276,10.1835z" data-paper-data="{&quot;index&quot;:null}" fill="#181e2b" stroke="#000000" stroke-width="1" stroke-linecap="round"/><path d="M510.81133,37.74342l-1.79185,85.80441l-146.91479,7.14355l1.63974,-78.26358z" data-paper-data="{&quot;index&quot;:null}" fill="#41628a" stroke="#000000" stroke-width="1" stroke-linecap="round"/><path d="M187.9676,278.06854l-45.01252,-3.05538l2.76231,-79.1425l45.32294,-0.1875z" data-paper-data="{&quot;index&quot;:null}" fill="#a09f89" stroke="#000000" stroke-width="1" stroke-linecap="round"/><path d="M184.28604,278.03935l-37.74742,-2.6831l2.6369,-74.08019l38.02093,-0.35314z" data-paper-data="{&quot;index&quot;:null}" fill="#323730" stroke="#000000" stroke-width="1" stroke-linecap="round"/><path d="M149.00286,201.88582l11.95437,-0.53366l-3.09616,74.49697l-11.60606,-0.75823z" data-paper-data="{&quot;index&quot;:null}" fill="#0e1101" stroke="#000000" stroke-width="1" stroke-linecap="round"/><path d="M219.66787,80.56204l68.40393,-8.48794l-1.72616,71.99083l-71.33736,2.61989z" data-paper-data="{&quot;index&quot;:null}" fill="#eff6ff" stroke="#000000" stroke-width="1" stroke-linecap="round"/><path d="M197.27918,126.79067l-22.10713,0.76821l1.88884,-45.44769l22.46129,-0.99101z" data-paper-data="{&quot;index&quot;:null}" fill="#eff6ff" stroke="#000000" stroke-width="1" stroke-linecap="round"/><path d="M225.40253,87.12591l61.86129,-5.92616l-0.85807,55.5747l-64.57519,1.36798z" data-paper-data="{&quot;index&quot;:null}" fill="#41628a" stroke="#000000" stroke-width="1" stroke-linecap="round"/><path d="M191.80636,119.29553l-10.35181,0.69473l1.26572,-30.45464l10.51943,-0.84684z" data-paper-data="{&quot;index&quot;:null}" fill="#41628a" stroke="#000000" stroke-width="1" stroke-linecap="round"/><path d="M22.22646,181.33719l1.87341,-81.68179l71.16688,-8.16146l69.86137,83.24256z" data-paper-data="{&quot;index&quot;:null}" fill="#576264" stroke="#000000" stroke-width="1" stroke-linecap="round"/><path d="M287.13493,68.24762c0.76573,-0.75402 1.55818,-1.50369 2.70945,-1.85761c1.13714,-0.34956 2.93556,0.362 4.03629,0.56764c2.82507,0.52781 6.25651,0.61209 8.90875,1.79134c1.45564,0.64723 2.639,1.89676 3.95891,2.8129c4.43537,6.97328 2.04442,15.5528 1.27262,23.149c-1.54882,4.13363 -4.05202,5.3219 -8.27561,6.03893c-3.79143,0.64367 -7.07029,2.31635 -11.08885,1.50376c-1.21798,-0.2463 -2.05855,-1.15483 -3.12567,-1.73439c-4.04606,-2.09244 -7.33616,-4.92938 -9.30007,-9.31963c-0.77097,-1.72347 -0.59282,-4.15134 -0.9856,-6.01735c-0.41834,-1.98743 -1.20253,-3.62494 -0.99901,-5.64966c0.18729,-1.53946 0.94084,-2.20048 1.84747,-3.39448c2.61328,-3.4416 6.6338,-6.61909 11.04131,-7.89049zM285.11539,70.57803c-3.12757,1.47713 -5.90765,3.91712 -7.82122,6.44589c-0.73028,0.96505 -1.46166,1.41199 -1.55565,2.65756c-0.19112,1.81316 0.59204,3.38044 0.97523,5.19994c0.36307,1.72403 0.15888,4.17638 0.8957,5.73606c1.93314,4.092 4.81949,6.64907 8.63214,8.60058c0.86806,0.47559 1.73883,1.41721 2.7124,1.58734c3.87613,0.67725 6.88243,-0.86998 10.54099,-1.51236c3.52706,-0.6193 5.79894,-1.32584 7.06327,-4.90948c0.74268,-7.13975 2.96,-15.16413 -0.90228,-21.80901c-1.2107,-0.80026 -2.22496,-1.902 -3.52836,-2.49952c-2.48153,-1.1376 -5.86267,-1.16971 -8.52596,-1.66554c-0.70302,-0.13089 -2.38339,-0.77741 -3.22444,-0.63064c0.20378,0.053 0.62015,0.23025 0.56277,0.78835c-0.07558,0.73502 -0.82176,0.66059 -0.82176,0.66059l-0.15804,-0.03019c-0.73446,0.06753 -1.46457,0.20239 -2.18483,0.39535c-0.4728,0.47519 -0.94396,0.95744 -1.52314,1.35973c0,0 -0.62162,0.41337 -1.04125,-0.19896c-0.0415,-0.06055 -0.07282,-0.11915 -0.09556,-0.17562z" fill="#000000" stroke="none" stroke-width="0.5" stroke-linecap="butt"/><path d="M285.19031,70.70879c0.41964,0.61233 1.04397,0.19784 1.04397,0.19784c0.57918,-0.40229 1.05623,-0.88635 1.52903,-1.36154c0.72026,-0.19294 1.45741,-0.32901 2.19186,-0.39654l0.15853,0.03015c0,0 0.7489,0.07429 0.82448,-0.66073c0.05739,-0.5581 -0.36056,-0.73526 -0.56433,-0.78827c0.84105,-0.14677 2.53111,0.50004 3.23414,0.63093c2.66329,0.49583 6.06749,0.53695 8.54901,1.67456c1.3034,0.59752 2.32631,1.70713 3.53701,2.50739c3.86228,6.6449 1.64847,14.72863 0.9058,21.86839c-1.26433,3.58366 -3.55434,4.3063 -7.08141,4.92561c-3.65857,0.64241 -6.69591,2.19479 -10.57204,1.51753c-0.97356,-0.17009 -1.85332,-1.11396 -2.72137,-1.58955c-3.81264,-1.95151 -6.72799,-4.53485 -8.66114,-8.62685c-0.73683,-1.55969 -0.537,-4.03079 -0.90008,-5.75482c-0.38319,-1.81952 -1.16415,-3.40269 -0.97304,-5.21583c0.09399,-1.24559 0.829,-1.70113 1.55928,-2.66618c1.91358,-2.52875 4.71714,-4.9905 7.84471,-6.46765c0.02274,0.05645 0.0541,0.11505 0.09559,0.1756z" data-paper-data="{&quot;noHover&quot;:false,&quot;origItem&quot;:[&quot;Path&quot;,{&quot;applyMatrix&quot;:true,&quot;segments&quot;:[[[275.33114,87.02867],[0.0284,0.05473],[-2.96054,1.80709]],[[268.20914,94.32724],[1.64515,-2.74691],[-0.62784,1.04831]],[[266.93327,97.16818],[-0.03391,-1.26752],[-0.00466,1.85057]],[[268.43548,102.32192],[-0.56737,-1.79912],[0.53759,1.70471]],[[269.91341,108.02515],[-0.89263,-1.50105],[2.34191,3.93817]],[[279.38144,115.84201],[-3.99287,-1.58686],[0.91229,0.39287]],[[282.24242,117.17191],[-0.98601,-0.0737],[3.92568,0.29344]],[[292.57504,114.58218],[-3.57423,1.0175],[3.44575,-0.98092]],[[299.10013,108.91177],[-0.89129,3.74695],[0.00851,-7.28609]],[[295.9714,86.97529],[4.52239,6.32223],[-1.2864,-0.68627]],[[292.20529,84.80629],[1.35789,0.47216],[-2.58527,-0.89894]],[[283.55234,83.98321],[2.70046,0.23242],[-0.71283,-0.06135]],[[280.27981,83.67118],[0.82175,-0.233],[0.20816,0.033]],[[280.92036,84.41072],[0,-0.56947],[0,0.75]],[280.17036,85.16072],[[280.01004,85.14616],[0,0],[-0.72381,0.14222]],[[277.87677,85.76563],[0.69686,-0.26745],[-0.42178,0.52759]],[[276.50048,87.29245],[0.53508,-0.46468],[0,0]],[[275.44418,87.19643],[0.48014,0.57617],[-0.04748,-0.05698]]],&quot;closed&quot;:true}]}" fill="#ffffff" stroke="none" stroke-width="0.5" stroke-linecap="butt"/><path d="M320.93563,56.87386c-0.10567,-0.41977 0.27454,-0.72539 0.27454,-0.72539c1.83039,-1.42238 4.48028,-1.23845 6.71109,-1.061c5.44733,0.43327 11.86974,0.7646 15.26616,5.60086c4.99076,8.15734 6.44303,17.74212 6.07349,27.21002c-0.17971,4.577 -3.45367,8.21632 -7.29997,10.25699c-0.75695,0.4016 -1.18521,1.23384 -1.85264,1.76772c-2.5306,2.02423 -6.04438,3.21217 -9.25923,2.89142c-5.09338,-0.51226 -11.38784,-3.32391 -14.37531,-7.54526c-1.79898,-2.542 -1.68369,-6.1137 -3.96679,-8.32737c-2.49788,-3.02008 -2.26419,-5.8927 -1.88284,-9.61321c0.22316,-2.17718 0.28722,-4.86711 0.87741,-6.96518c0.71139,-2.52895 4.04135,-6.26155 5.88793,-8.0822c0.84951,-1.32964 2.11301,-3.99275 3.54617,-5.40736zM328.74653,56.63313c-0.17171,0.35224 -0.61172,0.39417 -0.61172,0.39417l-0.69028,0.06034c-1.43709,0.49934 -3.53184,-0.21922 -4.79869,0.34777c-1.4934,0.6684 -3.21856,4.42925 -4.0845,5.76814c-1.68163,1.66633 -4.97106,5.17471 -5.60283,7.51121c-0.55394,2.04868 -0.62493,4.63853 -0.84195,6.76205c-0.33377,3.26586 -0.68358,5.83896 1.50838,8.47988c2.30539,2.38599 2.23998,5.85503 4.08629,8.47744c2.7206,3.86419 8.64848,6.45129 13.28899,6.91027c4.74837,0.47374 6.5522,-2.43451 10.21999,-4.47393c3.36892,-1.87326 6.38165,-4.90037 6.54181,-9.0289c0.35792,-9.1702 -0.9994,-18.45487 -5.83892,-26.35817c-2.7483,-4.14491 -8.50744,-4.50213 -13.17656,-4.85027z" fill="#000000" stroke="none" stroke-width="0.5" stroke-linecap="butt"/><path d="M341.95045,61.44217c4.83952,7.9033 6.21397,17.25169 5.85604,26.42191c-0.16016,4.12853 -3.19157,7.17536 -6.56049,9.04859c-3.66778,2.03943 -5.49587,4.95473 -10.24423,4.48097c-4.64051,-0.45897 -10.60125,-3.05692 -13.32186,-6.92111c-1.84631,-2.62238 -1.79562,-6.11064 -4.10102,-8.49663c-2.19196,-2.64091 -1.84593,-5.23739 -1.51215,-8.50327c0.21703,-2.12352 0.29284,-4.73068 0.84679,-6.77936c0.63177,-2.3365 3.93665,-5.86311 5.61828,-7.52946c0.86595,-1.33889 2.60414,-5.10651 4.09752,-5.7749c1.26685,-0.56699 3.37175,0.14921 4.80883,-0.35012l0.69181,-0.0605c0,0 0.44143,-0.04204 0.61314,-0.39428c4.66912,0.34812 10.45902,0.71326 13.20732,4.85819z" data-paper-data="{&quot;noHover&quot;:false,&quot;origItem&quot;:[&quot;Path&quot;,{&quot;applyMatrix&quot;:true,&quot;segments&quot;:[[[317.31364,68.54745],[4.68097,-0.11889],[-0.1348,0.37307]],[316.74536,69.00721],[[316.06477,69.13771],[0,0],[-1.37869,0.64915]],[[311.32607,69.97252],[1.2024,-0.70033],[-1.41742,0.82557]],[[307.85244,76.21002],[0.72457,-1.43956],[-1.50261,1.85247]],[[303.04652,84.36105],[0.38953,-2.42357],[-0.34154,2.12502]],[[302.90061,91.27565],[-0.00131,-2.16665],[0.00202,3.3322]],[[305.2688,99.68845],[-2.45097,-2.44648],[2.53774,2.17758]],[[310.20152,107.839],[-2.10518,-2.4626],[3.10206,3.62874]],[[324.12978,113.47935],[-4.66384,0.00405],[4.77266,0]],[[333.84007,107.93076],[-3.44048,2.42945],[3.16014,-2.23149]],[[339.42492,98.15223],[0.263,4.18601],[-0.582,-9.2981]],[[330.91931,72.11849],[5.62339,7.49477],[-3.15833,-3.90947]]],&quot;closed&quot;:true}]}" fill="#ffffff" stroke="none" stroke-width="0.5" stroke-linecap="butt"/><path d="M296.76941,72.75864c0.12522,-1.21782 1.22896,-2.10508 2.46528,-1.98173c1.23631,0.12335 2.13704,1.21057 2.01182,2.42841c-0.12522,1.21782 -1.22896,2.10508 -2.46528,1.98173c-1.23631,-0.12335 -2.13704,-1.21057 -2.01182,-2.42841z" fill="#000000" stroke="none" stroke-width="0.5" stroke-linecap="butt"/><path d="M320.88067,62.7678c0.12522,-1.21782 1.22896,-2.10508 2.46528,-1.98173c1.23631,0.12335 2.13704,1.21057 2.01182,2.42841c-0.12522,1.21782 -1.22896,2.10508 -2.46528,1.98173c-1.23631,-0.12335 -2.13704,-1.21057 -2.01182,-2.42841z" fill="#000000" stroke="none" stroke-width="0.5" stroke-linecap="butt"/><path d="M240.28292,33.40885c0.26296,-0.95038 1.22776,-0.69134 1.22776,-0.69134l1.14252,0.34143c9.86951,5.66452 20.19581,10.91471 30.27345,16.25034c9.85244,5.22863 21.93892,5.98722 31.1274,12.44003c0,0 0.81382,0.57242 0.23272,1.37407c-0.58111,0.80165 -1.39493,0.22923 -1.39493,0.22923c-9.06837,-6.38895 -21.15159,-7.14951 -30.91223,-12.30812c-10.09734,-5.34841 -20.44323,-10.60703 -30.33328,-16.28333l-0.66157,-0.14291c0,0 -0.9648,-0.25902 -0.70184,-1.2094z" fill="#000000" stroke="none" stroke-width="0.5" stroke-linecap="butt"/><path d="M352.00044,16.56433c-0.05908,0.57457 -0.42548,0.77817 -0.71856,0.84829c-5.27037,5.03234 -11.12651,9.68732 -16.58043,14.55588c-8.4106,7.50792 -18.61395,14.34165 -23.33423,24.68289c0,0 -0.41022,0.89834 -1.3222,0.49428c-0.91198,-0.40408 -0.50178,-1.30243 -0.50178,-1.30243c4.85485,-10.62776 15.17482,-17.62152 23.81519,-25.33455c5.52217,-4.92949 11.50374,-9.63125 16.79431,-14.76245l0.95355,-0.26117c0,0 0.99491,0.09927 0.89414,1.07929z" fill="#000000" stroke="none" stroke-width="0.5" stroke-linecap="butt"/><path d="M284.19161,138.97596c-0.75,0 -0.75,-0.73878 -0.75,-0.73878l0.00579,-0.027c-0.78922,-6.28921 -1.85742,-12.38364 -2.93744,-18.63067c-0.51756,-3.99047 0.9403,-5.17603 3.64526,-7.91263c4.6234,-4.67747 9.22582,-6.10332 15.6316,-6.43407c8.50931,-0.93366 17.62326,-2.12742 26.02636,-0.21499c7.81153,2.31192 21.24341,-0.31177 24.84555,8.90008c1.55734,5.21248 0.78711,10.77943 0.64152,16.15289c-0.07754,2.86181 0.23743,6.07299 -1.17803,8.64382c0,0 -0.36423,0.64582 -1.01985,0.28704c-0.65562,-0.35878 -0.29139,-1.0046 -0.29139,-1.0046c1.31447,-2.26187 0.92084,-5.41965 0.98977,-7.96474c0.14032,-5.18083 0.93196,-10.61619 -0.56282,-15.64062c-1.62723,-4.17437 -4.43539,-4.50701 -8.49369,-5.44933c-2.20599,-0.51221 -4.48196,-1.15259 -6.708,-1.53476c-2.9922,-0.51369 -5.62048,-0.07568 -8.60792,-0.96167c-8.23185,-1.86896 -17.1843,-0.6505 -25.5192,0.25955c-6.05282,0.31504 -10.30356,1.56382 -14.67909,5.99208c-2.40595,2.43496 -3.69318,3.19382 -3.2365,6.66391c1.07571,6.25537 2.13391,12.37203 2.94228,18.66545l0.00579,0.21027c0,0 0,0.73878 -0.75,0.73878z" fill="#000000" stroke="none" stroke-width="0.5" stroke-linecap="butt"/></g><g stroke="none" stroke-width="0.5" stroke-linecap="butt"><path d="M285.14134,-323.75049c2.21962,2.54447 2.97983,5.93571 4.26081,8.9121c7.55303,17.54997 13.8735,32.96359 -0.31306,49.883c-17.30701,13.64656 -35.71568,20.5511 -57.23017,22.649c-6.9545,0.67814 -13.37319,3.13064 -20.38678,3.08982c-10.56715,-0.08262 -19.26071,-2.26329 -28.35318,-6.57348c-5.25264,-2.48995 -12.46727,-3.39608 -17.03655,-7.77111c-6.77893,-6.49072 -9.75942,-18.14212 -15.07945,-25.89851c-2.06657,-6.95026 -1.66942,-20.50124 0.15313,-27.60956c1.0211,-3.98248 5.11271,-6.52191 8.09125,-8.92043c4.73604,-3.81376 11.55312,-8.2981 18.54182,-11.27026c-4.34734,0.15806 -8.85748,0.30951 -12.91136,-0.41591c-5.05884,-0.90522 -5.96181,-4.00894 -10.71582,-4.29952c-6.78231,-1.80044 -12.94537,0.79055 -19.59885,0.1121c-0.16969,-0.01728 -5.84381,-2.28177 -7.17235,-2.16525c-6.69119,0.58672 -12.74179,5.36266 -19.64651,4.98191c-6.88473,-0.37967 -13.52041,-5.90178 -20.28714,-5.55096c-3.54156,0.1836 -7.79447,1.66895 -11.15645,2.65736c-6.12841,1.79826 -13.61877,4.28759 -18.18207,9.11554c-1.59666,1.6893 -1.37451,5.02321 -1.68841,6.91661c-1.05898,6.38743 -1.59046,14.27413 -3.95788,20.27716c-5.08592,12.89595 -9.47983,21.69812 -9.94371,35.73327c-0.26636,8.03665 -3.07306,16.54825 -3.06378,24.32764c0.00894,7.5452 2.42215,15.5588 2.58483,23.23665c0.21958,10.36479 -1.4954,21.49258 4.54767,30.71124c6.40466,7.10284 5.98658,19.64648 8.56912,28.63297c5.49096,19.10736 11.53183,38.0828 21.58595,55.23145c9.54733,14.63436 18.30003,30.94117 30.27738,43.77465c8.2686,8.85966 17.96978,16.30301 26.67373,24.73271c4.02596,2.39752 10.55987,8.60407 15.5212,8.51404c13.87574,-0.25184 27.98298,-2.67798 42.03928,-3.37439c-0.98058,-1.9317 -1.81608,-3.9226 -2.4294,-5.99788c0,0 -0.63528,-2.16502 1.52974,-2.8003c2.16502,-0.63528 2.8003,1.52974 2.8003,1.52974c0.72738,2.49908 1.82055,4.74897 3.09292,6.89297c0.39686,-0.01014 2.19224,0.05511 2.36852,2.05287c0.04788,0.54229 -0.04667,0.96533 -0.21774,1.29501c1.48699,2.18519 3.06311,4.33744 4.50929,6.62466c0.36958,0.5845 3.52985,6.93363 4.96921,7.16888c11.25631,1.83985 23.77582,-1.74367 34.51935,-4.74586c6.00748,1.0339 12.06556,-0.54541 17.85511,2.09196c5.71617,2.60384 10.29761,7.63188 17.11139,7.92428c5.49082,0.23562 8.30354,-4.14768 12.8415,-6.06583c11.66206,-4.92961 22.92713,-7.9066 35.51689,-5.00484c5.06315,2.08991 8.46379,4.43848 14.02987,5.02718c6.30016,0.66638 12.72138,-2.58668 18.29336,-4.80824c15.2175,-6.0673 31.15205,-10.13751 47.27438,-12.43101c11.03575,0.87565 18.29482,-5.61609 28.37846,-8.34463c5.78734,-1.56607 14.56305,-0.53964 19.70041,-4.25465c7.15157,-5.17162 15.20673,-9.53884 23.40338,-13.49282c27.83486,-13.12009 28.90813,-39.47219 30.96306,-66.43975c-1.31852,-9.89159 3.51038,-12.21881 4.87647,-21.39241c2.61721,-17.57525 0.83265,-37.7207 -8.68254,-52.77228c-3.88459,-6.61755 -6.97365,-16.93551 -7.50702,-24.65792c-0.68739,-9.95282 1.29835,-21.57747 -3.85933,-30.82392c-1.45761,-2.61319 -7.37617,-2.14496 -9.52015,-2.9464c-6.14143,-2.29598 -8.59243,-6.86627 -11.89848,-12.09623c-5.89113,-9.32999 -12.93267,-19.73676 -20.60076,-27.69926c-11.90272,-12.35956 -26.80783,-19.00729 -37.89852,-31.84347c-12.68644,-6.8003 -28.96035,-6.95114 -43.17103,-7.11906c-13.86112,-0.16385 -27.56231,-1.01682 -41.62949,-0.74658c-15.5418,0.29403 -31.22783,1.45768 -46.56908,3.95916c1.32577,0.37697 2.6255,0.89888 3.82763,2.27689zM193.75426,-19.73865l-0.74284,0.06543c-14.58306,0.58677 -29.41697,3.43787 -43.82568,3.44942c-6.30662,0.00504 -13.12273,-6.36028 -18.22551,-9.44328c-8.9362,-8.55039 -18.81118,-16.20762 -27.24542,-25.25389c-12.17478,-13.05816 -21.0936,-29.57495 -30.7999,-44.46206c-10.27204,-17.51093 -16.47975,-36.85167 -22.08651,-56.36199c-2.30136,-8.00837 -1.88445,-20.98596 -7.78252,-27.09273c-6.72257,-10.23159 -5.27455,-21.84421 -5.50812,-33.40223c-0.15656,-7.74356 -2.6289,-15.83698 -2.58374,-23.466c0.04654,-7.87156 2.79596,-16.24689 3.06428,-24.34121c0.22887,-6.88368 0.49509,-14.52376 2.47336,-21.0275c2.52601,-8.30434 7.84753,-14.73607 9.29497,-23.40609c1.00858,-6.04114 0.78252,-16.55446 4.92033,-21.29784c4.84058,-5.54903 13.57704,-8.51232 20.32297,-10.4918c7.10443,-2.08077 12.9153,-3.4254 20.15733,-1.14427c4.61223,1.45277 9.67743,4.88164 14.80402,3.8786c5.65845,-1.10703 11.42828,-4.62945 17.18544,-5.00021c2.71026,-0.17452 5.14825,1.90146 7.84932,2.18402c6.70785,0.70162 13.00198,-1.84017 19.92167,-0.06696c4.81677,0.58373 6.09653,3.61619 10.66562,4.29088c5.70613,0.84259 11.99087,0.19425 17.73489,0.22013c8.02801,0.03616 15.82477,2.99694 23.64529,3.92791c4.24106,0.50485 8.64143,-0.7092 12.95541,-0.18212c6.95275,0.84948 13.52848,2.66422 20.5748,3.16995c8.8657,-2.66452 19.13427,-1.348 28.3086,-3.29171c19.22603,-4.0734 39.22361,-5.83082 58.96391,-6.21442c13.2993,-0.25446 25.75751,-1.19819 38.92911,0.73172c16.79141,2.46025 33.28983,-0.47664 48.76187,8.10999c3.29708,3.59879 6.06381,9.45488 10.4865,11.82137c10.05229,5.3787 19.83844,12.09978 27.85849,20.42769c7.87621,8.17846 15.10329,18.83981 21.16476,28.41826c2.74247,4.33825 4.52547,8.39164 9.6535,10.2766c3.95366,1.45329 8.96817,0.58148 11.72731,4.70731c6.14804,9.19336 3.91768,22.7341 4.58527,32.99145c0.45172,6.94027 3.30148,16.69558 6.85258,22.60325c10.06723,15.92635 12.06728,37.19659 9.29791,55.79419c-1.41645,9.51232 -6.04871,11.07515 -4.82894,20.60043c-2.06411,29.06426 -4.0809,56.26282 -33.5194,70.63446c-8.11143,3.8811 -15.78811,8.43077 -22.97756,13.25915c-5.8543,3.93176 -14.45498,3.03869 -20.88235,4.77143c-10.45245,2.81785 -17.95711,9.28387 -29.41862,8.50392c-15.52866,2.28135 -30.97654,6.17244 -45.63591,12.06062c-6.38049,2.56281 -13.39682,5.82748 -20.57321,5.15535c-5.86389,-0.54916 -9.67523,-3.08038 -14.91379,-5.21333c-11.48537,-2.64075 -21.58377,0.45109 -32.22173,4.78437c-5.58418,2.27471 -8.39228,6.69626 -15.18025,6.47969c-7.28342,-0.23238 -12.50704,-5.48646 -18.58693,-8.31873c-4.98687,-2.32306 -10.51515,-0.70062 -15.72701,-1.68523c-10.45431,3.25734 -25.39819,7.51093 -36.2622,4.4954c-2.11295,-0.58656 -3.81012,-3.57662 -4.85335,-5.17088c-2.48964,-3.805 -5.32583,-7.55222 -7.77792,-11.47872z" fill="#000000"/><path d="M281.31828,-326.17776c15.34125,-2.50145 31.07337,-3.65642 46.61517,-3.95045c14.06722,-0.2702 27.80005,0.5986 41.66118,0.76243c14.21063,0.16796 30.5092,0.33886 43.19557,7.13918c11.09069,12.83626 26.01844,19.51333 37.92111,31.8729c7.66818,7.96252 14.72047,18.39178 20.61168,27.72176c3.30608,5.22997 5.76052,9.8106 11.90202,12.10658c2.14402,0.80156 8.06359,0.33687 9.52124,2.95007c5.15762,9.24648 3.1761,20.89164 3.86351,30.84441c0.53336,7.72243 3.62365,18.05734 7.50826,24.67473c9.51515,15.05159 11.29654,35.23018 8.67942,52.80544c-1.36605,9.17366 -6.19839,11.51412 -4.87983,21.40569c-2.05496,26.96753 -3.148,53.36083 -30.98288,66.48089c-8.1968,3.95393 -16.26153,8.33387 -23.41303,13.50542c-5.13737,3.715 -13.92046,2.6967 -19.70785,4.26274c-10.08362,2.72856 -17.35681,9.23294 -28.39247,8.35718c-16.12231,2.29346 -32.08679,6.38211 -47.30442,12.44931c-5.5719,2.22153 -12.00679,5.48009 -18.30696,4.81366c-5.56611,-0.58874 -8.97586,-2.93453 -14.03898,-5.02435c-12.58975,-2.90163 -23.88413,0.08041 -35.5462,5.00996c-4.53794,1.91822 -7.3614,6.30184 -12.85225,6.06624c-6.81377,-0.29235 -11.40967,-5.32104 -17.12573,-7.92497c-5.78955,-2.63734 -11.86249,-1.0602 -17.86999,-2.09412c-10.74349,3.00216 -23.28774,6.57858 -34.54407,4.73875c-1.43927,-0.23528 -4.60487,-6.58646 -4.97451,-7.17103c-1.44616,-2.28723 -3.02723,-4.44167 -4.51434,-6.6269c0.17101,-0.32966 0.26528,-0.75277 0.21743,-1.29518c-0.17635,-1.99774 -1.9739,-2.06416 -2.37073,-2.05398c-1.27232,-2.14404 -2.36989,-4.3961 -3.09727,-6.89519c0,0 -0.63764,-2.16632 -2.80267,-1.53103c-2.16502,0.63528 -1.38304,2.53762 -1.38304,2.53762c0.61333,2.07525 1.30574,4.33086 2.28633,6.26246c-14.05642,0.69643 -28.18518,3.10883 -42.06085,3.36065c-4.96135,0.09 -11.5047,-6.12443 -15.53066,-8.52194c-8.70398,-8.42971 -18.42249,-15.89158 -26.69106,-24.75125c-11.97732,-12.83341 -20.749,-29.17164 -30.29639,-43.80592c-10.05422,-17.14863 -16.10648,-36.1624 -21.59744,-55.26973c-2.58254,-8.98651 -2.16629,-21.54947 -8.57092,-28.6523c-6.04305,-9.21867 -4.32732,-20.36616 -4.54688,-30.73091c-0.16269,-7.67788 -2.57379,-15.70558 -2.58277,-23.25069c-0.00921,-7.77935 2.80107,-16.30554 3.06755,-24.34218c0.46382,-14.03513 4.86588,-22.85823 9.9518,-35.75417c2.36743,-6.00301 2.90441,-13.90016 3.9634,-20.28763c0.31391,-1.89339 0.0938,-5.23069 1.69053,-6.92004c4.56339,-4.82808 12.0595,-7.32612 18.18791,-9.12437c3.362,-0.98838 7.61821,-2.47807 11.15971,-2.66175c6.76679,-0.35089 13.40588,5.16691 20.29064,5.54665c6.90465,0.38078 12.96325,-4.40391 19.65441,-4.99063c1.32861,-0.11644 7.00449,2.14614 7.1742,2.16343c6.65348,0.6785 12.82475,-1.92007 19.60705,-0.11962c4.75401,0.29058 5.66044,3.3914 10.71929,4.29663c4.05384,0.72542 8.74569,0.81359 13.09307,0.65556c-6.9887,2.97216 -13.7912,7.44462 -18.52723,11.25842c-2.97856,2.39849 -7.06268,4.93059 -8.08379,8.91307c-1.82255,7.10825 -2.2073,20.64424 -0.14064,27.5945c5.32002,7.7564 8.30836,19.3959 15.08721,25.88656c4.56929,4.37503 11.52601,5.12627 16.77868,7.6162c9.09245,4.31016 17.79556,6.47722 28.36271,6.55969c7.01358,0.0408 13.45458,-2.43471 20.40909,-3.11281c21.51437,-2.09796 40.04283,-9.03567 57.34986,-22.68224c14.18655,-16.9195 7.82836,-32.03476 0.27527,-49.58471c-1.28091,-2.97639 -2.03554,-6.3672 -4.25519,-8.91165c-1.20216,-1.37803 -2.48836,-2.20043 -3.8141,-2.5774z" data-paper-data="{&quot;noHover&quot;:false,&quot;origItem&quot;:[&quot;Path&quot;,{&quot;applyMatrix&quot;:true,&quot;segments&quot;:[[[317.41596,224.93512],[0.2015,-0.09288],[-0.37206,0.17149]],[[316.23283,225.12672],[0.39028,-0.04745],[-2.30125,0.2798]],[[310.43598,223.38616],[1.48518,2.22965],[-0.99753,-2.48113]],[[309.75422,215.94952],[-0.49073,2.57644],[0.15863,-0.83283]],[[310.09095,213.47046],[-0.24435,0.81515],[0.37061,-1.22744]],[[311.82486,210.39406],[-0.81242,0.91133],[0.46933,-0.52647]],[[313.3116,208.67609],[-0.66545,0.38251],[0.98725,-0.56749]],[[316.84193,207.80524],[-1.08477,0.3544],[0.87977,-0.00316]],[[320.05109,208.76627],[-0.7653,-0.45502],[0.42877,0.25493]],[[320.81322,210.01301],[-0.17749,-0.42871],[0.28222,0.68167]],[[321.49191,212.55672],[-0.10728,-0.91518],[0.13011,-0.51153]],[[321.98141,211.06775],[-0.22294,0.44718],[0.27821,-0.55804]],[[322.84805,209.96706],[-0.19624,0.54355],[0.44131,-0.72811]],[[323.50454,207.68147],[-0.30629,0.75144],[0.00781,-0.01917]],[[324.00165,206.92041],[-0.03183,0.15866],[0.16028,-0.79905]],[[324.09281,204.46292],[-0.28021,0.79085],[0.2794,-0.78857]],[[325.43212,202.29065],[-0.19032,0.7998],[0.09961,-0.41859]],[[325.50387,200.901],[0.00022,0.42518],[0,-0.77492]],[[325.06375,198.47278],[0.4062,0.69622],[-0.14213,-0.2436]],[[324.31618,198.03992],[0.20971,0.10123],[-0.70747,-0.3415]],[[322.09066,196.88641],[0.61801,0.4807],[-1.32764,-1.03267]],[[318.27018,194.50801],[1.61817,0.53347],[-0.92655,-0.30556]],[[315.54255,193.32023],[0.90601,0.26469],[-0.87874,-0.25672]],[[312.74896,192.82735],[0.89944,0.24335],[-1.2142,-0.32852]],[[309.0181,192.30764],[1.27971,-0.38862],[-1.04573,0.503]],[[305.39182,192.32712],[1.13446,0.00633],[-2.41212,-0.01347]],[[298.22418,192.9534],[2.33997,-0.58471],[-2.02993,0.61159]],[[292.09346,194.98295],[1.90328,-0.95602],[-1.31394,0.65999]],[[288.30277,197.24347],[1.27876,-0.72537],[-0.41666,0.38681]],[[286.7813,198.75964],[0.15901,-0.58069],[-0.4447,1.62406]],[[285.73801,203.76926],[0.39912,-1.66028],[0.25839,-0.04817]],[[286.51929,203.69132],[-0.26256,0.00051],[0,0]],[[286.79305,203.96508],[0,-0.27376],[0,0.27376]],[[286.51929,204.23884],[0,0],[-0.3158,-0.00069]],[[285.61112,204.36345],[0.29308,-0.07488],[-0.01238,0.04655]],[[285.2912,204.56907],[0.23861,0.04772],[-0.06477,-0.01295]],[[285.14787,204.49948],[0.03254,0.03117],[-0.30521,0.09847]],[[284.22256,204.79815],[0.31569,-0.09023],[-0.08068,0.02306]],[[283.21819,205.13178],[0.07656,-0.15953],[-0.59874,1.24764]],[[282.59146,209.31276],[0.0175,-1.35335],[-0.3256,0.66409]],[[281.73794,211.32003],[0.50483,-0.58394],[-0.49843,0.57654]],[[280.23081,213.04149],[0.26681,-0.78329],[-0.21501,0.63121]],[[280.49832,214.74375],[-0.0683,-0.59385],[0.17552,1.52614]],[[279.86767,219.04972],[0.76791,-1.36661],[-0.41628,0.51807]],[[278.8031,220.51137],[0.25869,-0.62791],[-0.29281,0.71072]],[[278.73795,222.8054],[-0.06829,-0.72459],[0.18651,1.97894]],[[278.5702,228.7339],[0.28376,-1.95536],[-0.47895,1.2549]],[[278.57224,232.32288],[0.02681,-1.26718],[-0.01538,0.72728]],[[278.39458,234.76181],[-0.25701,-0.72502],[0.35778,1.00928]],[[279.16594,237.94746],[-0.18031,-1.08937],[0.57658,3.68883]],[[285.8433,243.822],[-3.06944,-1.16051],[1.19665,0.18441]],[[288.16728,245.12054],[-1.02136,-0.47243],[1.95676,0.90511]],[[294.60781,245.91251],[-2.07741,0.59359],[0.90314,-0.22619]],[[297.73503,245.88088],[-0.91729,-0.20172],[1.18222,0.25998]],[[301.45549,246.48458],[-1.2527,0.28459],[0.35403,-0.08043]],[[302.12375,245.47687],[-0.16656,0.22223],[0.47711,-0.63657]],[[303.93851,244.50485],[-0.72183,0.20624],[1.28748,-0.36713]],[[307.86712,243.0527],[-1.18898,0.62074],[1.84556,-0.96352]],[[312.86913,239.72828],[-1.87332,0.8527],[1.22511,-1.24468]],[[315.17277,234.94538],[-0.50502,1.64871],[0.4926,-1.60816]],[[316.68185,230.12425],[-0.44911,1.64698],[0.49671,-1.81947]],[[317.8118,224.56728],[-0.23286,1.87153],[-0.08918,0.14147]]],&quot;closed&quot;:true}]}" fill="#ffdf4d"/></g></g></g></svg>