<svg version="1.1" xmlns="http://www.w3.org/2000/svg" xmlns:xlink="http://www.w3.org/1999/xlink" width="2878.25006" height="1619.57958" viewBox="0,0,2878.25006,1619.57958"><g transform="translate(1117.37278,629.80931)"><g data-paper-data="{&quot;isPaintingLayer&quot;:true}" fill-rule="nonzero" stroke-linejoin="miter" stroke-miterlimit="10" stroke-dasharray="" stroke-dashoffset="0" style="mix-blend-mode: normal"><path d="M377.82912,23.12393l78.1084,-176.56266l60.57386,168.43784z" fill="#87ffeb" stroke="#000000" stroke-width="2.5" stroke-linecap="round"/><path d="M58.48799,89.01128l78.1084,-176.56266l60.57386,168.43783z" fill="#87ffeb" stroke="#000000" stroke-width="2.5" stroke-linecap="round"/><path d="M-1117.37278,989.77027v-1619.57958h2878.25006v1619.57958z" fill="none" stroke="#000000" stroke-width="0" stroke-linecap="butt"/><path d="M155.92054,312.29157l33.38547,-48.7229l93.63051,-1.25645l-19.58601,49.03385z" data-paper-data="{&quot;index&quot;:null}" fill="#cedce9" stroke="#000000" stroke-width="0" stroke-linecap="round"/><path d="M147.0078,310.96011c-3.23561,-0.35441 -10.93443,-0.8942 -7.56454,-1.50617c-1.84308,0.19974 -4.30205,0.4446 -5.61076,0.51355c-6.19979,0.32666 -14.23776,0.0678 -20.63672,0.09827c-17.55512,0.08359 -34.59919,0.00703 -51.58881,0.83561c-7.67807,0.37446 -9.79417,-0.65892 -12.14543,0.81227c-4.85265,2.47282 -13.99414,4.70234 -19.86143,7.1964c-7.95209,3.38023 -11.02671,6.62161 -15.89541,9.99619c-5.51436,2.78621 -0.98662,8.06371 -0.97199,11.13558c0.00392,0.82228 1.56147,2.27859 0.08341,2.89091c1.47236,0.02357 2.89443,0.0447 3.80005,0.04039c6.01905,-0.02866 12.03804,-0.05732 18.05712,-0.08598c23.94279,-0.11401 51.76066,-0.36621 74.99347,-1.80553c27.5857,-1.5488 57.50034,0.34138 85.30868,-1.06325c15.22882,-0.7106 31.83427,-0.41036 47.3429,-0.47971c7.86752,-0.03518 14.60157,-0.75065 18.05989,0.50396c0.90897,0.32977 -0.00375,-0.78658 -0.00562,-1.17987c-0.00468,-0.98321 -0.00937,-1.9665 -0.01405,-2.94971c-0.02622,-5.50611 -0.05244,-11.0122 -0.07866,-16.51831c-0.00619,-1.30168 -1.52035,-5.95151 1.56381,-6.47014c-0.579,-0.00516 -1.23434,-0.01488 -1.59471,-0.0192c-3.19225,-0.03807 -4.97544,0.01067 -7.46844,-0.38396c-4.328,-0.6851 -18.91555,-0.08036 -24.77914,-0.05243c-22.78632,0.10851 -45.57259,0.21701 -68.35892,0.32551c0,0 -5.15915,0.02457 -5.16477,-1.1553c-0.00023,-0.04844 0.00819,-0.0949 0.02468,-0.13951c-2.46692,-0.10782 -4.959,-0.26175 -7.4945,-0.53945zM227.99022,310.10916c13.75499,-0.0655 31.33235,-0.70936 40.73721,1.63817c5.38936,1.34521 1.86197,5.75733 1.87074,7.59822c0.02622,5.50611 0.05244,11.01219 0.07866,16.51831c0.003,0.62875 1.79484,3.73926 0.01966,4.12958c-17.93019,3.94234 -51.77459,1.09585 -73.68641,2.32922c-27.19206,1.37352 -58.52512,-0.84791 -84.82982,1.03634c-23.94518,1.48347 -52.79985,1.77034 -77.49572,1.88793c-3.54235,0.01686 -24.78312,0.73155 -27.08557,0.12897c-6.60258,-1.72801 -5.17452,-3.20252 -5.18443,-5.2849c-0.01794,-3.76656 -2.95888,-8.24243 1.49798,-11.88435c4.99014,-3.45872 8.48473,-6.92047 16.45387,-10.30794c3.21466,-1.36644 6.68525,-3.19031 10.84211,-4.43043c2.72002,-0.81146 7.9247,-1.48503 8.57043,-2.52614c4.40073,-2.75358 12.38134,-1.89622 21.81721,-2.40043c16.79703,-0.89756 34.18393,-0.75274 51.58882,-0.83562c6.41881,-0.03057 18.95714,-0.76586 23.48632,-0.57722c7.88423,0.32841 12.46128,1.84399 20.10325,2.26409c5.60755,0.30826 11.51425,0.08185 18.06133,0.79893c0.49703,0.05447 0.99395,0.10888 1.49103,0.16333c17.22114,-0.082 34.44237,-0.164 51.66355,-0.24601z" data-paper-data="{&quot;index&quot;:null}" fill="#000000" stroke="none" stroke-width="0" stroke-linecap="butt"/><path d="M154.57378,311.4426c-0.0165,0.0446 -0.02432,0.0911 -0.02409,0.13954c0.00563,1.17987 5.19011,1.1572 5.19011,1.1572c22.78628,-0.1085 45.69411,-0.19412 68.48052,-0.30262c5.86356,-0.02792 20.46442,-0.62723 24.79241,0.05785c2.49296,0.39464 4.28023,0.34787 7.47235,0.38591c0.36032,0.0043 1.01621,0.01433 1.59531,0.0195c-3.08418,0.51863 -1.5543,5.17968 -1.54811,6.48136c0.02622,5.50611 0.04184,11.04503 0.06805,16.55113c0.00468,0.98323 0.00058,1.97131 0.00527,2.95452c0.00187,0.39329 0.91072,1.51143 0.00173,1.18168c-3.4583,-1.2546 -10.19848,-0.53659 -18.06594,-0.50139c-15.50865,0.06935 -32.161,-0.21719 -47.38976,0.49342c-27.80837,1.40465 -57.99626,-0.47279 -85.58198,1.076c-23.2328,1.43933 -51.1637,1.67152 -75.10666,1.78553c-6.01907,0.02867 -12.04861,0.05367 -18.06766,0.08233c-0.9057,0.00432 -2.32971,-0.01754 -3.80199,-0.04111c1.47808,-0.61233 -0.08911,-2.07274 -0.09303,-2.89503c-0.01463,-3.07187 -4.56675,-8.36968 0.94774,-11.15591c4.86876,-3.3746 7.95383,-6.63842 15.90592,-10.01864c5.86739,-2.49407 15.04742,-4.74134 19.90011,-7.21414c2.35124,-1.47119 4.48334,-0.44238 12.16139,-0.81682c16.98958,-0.82856 34.14427,-0.76906 51.69926,-0.85265c6.39885,-0.03047 14.50875,0.22508 20.70853,-0.10155c1.30859,-0.06896 3.7881,-0.3139 5.63116,-0.51364c-3.36999,0.61195 4.35937,1.15234 7.59504,1.50671c2.53559,0.2777 5.05772,0.43307 7.52458,0.54088z" data-paper-data="{&quot;index&quot;:null}" fill="#484848" stroke="none" stroke-width="0" stroke-linecap="butt"/><path d="M82.26912,316.11265c0.0019,0.39875 1.78276,0.87357 0.89778,1.19352c2.26766,0.04257 4.54903,0.14828 6.57619,0.37032c7.8161,0.8561 23.72301,4.03543 25.23171,6.18023c0.12267,0.17445 -2.0862,0.21421 -1.71138,0.36766c1.24728,0.51058 11.38744,-0.43532 12.55506,-0.29421c0.2642,0.03192 0.39415,0.08301 0.44641,0.14572c-0.05526,-0.19523 -0.10586,-0.38396 -0.10643,-0.50287c-0.00199,-0.41795 0.06808,-0.86867 -0.75098,-1.23861c-6.9627,-3.26179 -18.32786,-6.33995 -37.97916,-6.24638c0,0 -2.31902,0.01103 -3.8493,-0.33724c-0.51004,-0.06379 -0.90682,-0.13981 -1.173,-0.22987c-0.06723,0.22541 -0.13762,0.45487 -0.13696,0.5917zM126.16413,324.75288c0.35325,0.23989 0.2475,-0.16059 0.1285,-0.57948c-0.02363,0.18215 -0.36997,0.41555 -0.1285,0.57948zM134.63126,321.23515c6.42909,2.90364 -8.11654,7.26012 -21.35672,5.34898c-12.49219,-1.80321 -16.73715,-5.52658 -28.13591,-6.77504c-3.85086,-0.42179 -8.46384,-0.64009 -11.34248,-1.3586c-4.56174,-1.13867 -2.5609,-5.11052 6.15214,-5.15203c6.27401,-0.02988 9.36641,0.42078 15.20739,0.39297l2.57958,-0.01228c0,0 2.96124,-0.01407 4.39921,0.49213c15.28776,1.0681 25.10817,3.91998 32.49683,7.06383z" data-paper-data="{&quot;index&quot;:null}" fill="#000000" stroke="none" stroke-width="0" stroke-linecap="butt"/><path d="M82.21444,315.48231c0.26605,0.09008 0.66299,0.16603 1.1731,0.22984c1.53024,0.34829 3.85977,0.33466 3.85977,0.33466c19.65127,-0.09357 31.4265,3.0519 38.38915,6.3137c0.81903,0.36992 0.72651,0.82898 0.72851,1.2469c0.00057,0.11891 0.04168,0.31041 0.09693,0.50564c-0.05216,-0.06273 -0.18089,-0.11411 -0.44523,-0.14607c-1.1676,-0.1411 -11.39561,0.82074 -12.64289,0.31017c-0.37488,-0.15345 1.5885,-0.29565 1.46572,-0.47014c-1.50864,-2.14481 -17.49214,-5.30726 -25.30834,-6.16334c-2.02724,-0.22204 -4.32165,-0.32289 -6.58934,-0.36546c0.88498,-0.31998 -0.87476,-0.80215 -0.87666,-1.20089c-0.00066,-0.13682 0.08162,-0.36961 0.149,-0.59502z" data-paper-data="{&quot;index&quot;:null}" fill="#ffffff" stroke="none" stroke-width="0" stroke-linecap="butt"/><path d="M368.71981,319.97485l-19.71212,-26.43595l93.63269,0.23395l33.51062,26.20201z" data-paper-data="{&quot;index&quot;:null}" fill="#cedce9" stroke="#000000" stroke-width="0" stroke-linecap="round"/><path d="M485.05719,318.60106c-2.53414,0.28977 -5.02545,0.45557 -7.49184,0.57513c0.0167,0.04453 0.02534,0.09095 0.02534,0.13939c0,1.17988 -5.15921,1.17988 -5.15921,1.17988c-22.78659,0 -45.57312,0 -68.3597,0c-5.86365,0 -20.45392,-0.53529 -24.77861,0.17042c-2.4911,0.4065 -4.2745,0.36626 -7.46653,0.41952c-0.36034,0.00603 -1.01563,0.01889 -1.5946,0.0268c3.08659,0.50394 1.5946,5.16092 1.5946,6.46262c0,5.50617 0,11.01233 0,16.5185c0,0.98322 0,1.96652 0,2.94974c0,0.39329 -0.90739,1.51397 0,1.17988c3.45231,-1.27107 10.18968,-0.58767 18.05729,-0.58995c15.50879,-0.0045 32.11262,-0.38379 47.34465,0.25428c27.81471,1.27221 57.72001,-0.7604 85.31277,0.65703c23.23939,1.32868 51.05815,1.44842 75.00121,1.44842c6.01915,0 12.0382,0 18.05732,0c0.90563,0 2.32758,-0.0279 3.79981,-0.05848c-1.48096,-0.60527 0.06965,-2.06898 0.06965,-2.89127c0,-3.07191 4.50257,-8.37091 -1.025,-11.13083c-4.88472,-3.35136 -7.97473,-6.57807 -15.94283,-9.92039c-5.8791,-2.46609 -15.03111,-4.65205 -19.89547,-7.10174c-2.35823,-1.45998 -4.46939,-0.41654 -12.14916,-0.75443c-16.99338,-0.74768 -34.03689,-0.58996 -51.59221,-0.58996c-6.39903,0 -14.43568,0.29713 -20.63695,0c-1.30903,-0.06272 -3.76915,-0.29587 -5.61315,-0.48683c3.37278,0.59592 -4.32338,1.17237 -7.55727,1.54218zM404.07155,318.13566c17.22137,0 34.4428,0 51.66413,0c0.49682,-0.05681 0.99348,-0.11359 1.49024,-0.17042c6.54359,-0.74825 12.4513,-0.54996 18.05732,-0.88492c7.63988,-0.45648 12.20966,-1.99384 20.09224,-2.35979c4.52823,-0.2102 17.06992,0.46538 23.48881,0.46538c17.40509,0 34.7911,-0.22761 51.59221,0.58996c9.43817,0.45927 17.4146,-0.43608 21.82839,2.29652c0.65068,1.03802 5.8585,1.68681 8.58236,2.48531c4.16271,1.22032 7.64196,3.02764 10.86308,4.37875c7.98518,3.34949 11.49622,6.79456 16.50277,10.22948c4.47415,3.62066 1.55455,8.11047 1.55455,11.87708c0,2.08241 1.43507,3.5501 -5.15921,5.30953c-2.29955,0.61354 -23.54349,0 -27.08588,0c-24.69616,0 -53.55186,-0.14946 -77.50383,-1.5189c-26.31337,-1.75897 -57.6355,0.61162 -84.83379,-0.6324c-21.91744,-1.12901 -55.74791,1.8786 -73.69667,-1.97832c-1.77701,-0.38187 0,-3.50087 0,-4.12963c0,-5.50617 0,-11.01232 0,-16.51849c0,-1.84091 -3.54837,-6.23619 1.83453,-7.60704c9.39358,-2.39227 26.9738,-1.83212 40.72895,-1.83212z" data-paper-data="{&quot;index&quot;:null}" fill="#000000" stroke="none" stroke-width="0" stroke-linecap="butt"/><path d="M477.49344,319.11952c2.46632,-0.11956 4.98769,-0.28693 7.52193,-0.5767c3.23395,-0.36978 10.96065,-0.94696 7.58778,-1.54286c1.84399,0.19096 4.32464,0.42409 5.63354,0.48682c6.20127,0.29712 14.30985,0.00295 20.70878,0.00295c17.55519,0 34.7094,-0.14118 51.70273,0.60647c7.67974,0.33789 9.80692,-0.70107 12.16514,0.75891c4.86441,2.44966 14.05504,4.65319 19.93423,7.1193c7.9681,3.34231 11.06867,6.59142 15.95345,9.94279c5.52769,2.75994 1.00085,8.07936 1.00085,11.15126c0,0.8223 -1.56022,2.29016 -0.07924,2.89544c-1.47215,0.03058 -2.89604,0.05922 -3.80175,0.05922c-6.01912,0 -12.04871,0.00371 -18.06785,0.00371c-23.94324,0 -51.87493,-0.09919 -75.11432,-1.42788c-27.59278,-1.41742 -57.77138,0.60374 -85.58613,-0.66848c-15.23198,-0.6381 -31.88278,-0.27226 -47.39158,-0.26777c-7.86754,0.00227 -14.61106,-0.68365 -18.06335,0.58741c-0.9074,0.33408 -0.0039,-0.78838 -0.0039,-1.18167c0,-0.98322 -0.0088,-1.97125 -0.0088,-2.9545c0,-5.50617 -0.01076,-11.0451 -0.01076,-16.55127c0,-1.3017 1.50766,-5.96998 -1.57896,-6.47392c0.57907,-0.00792 1.2349,-0.02107 1.5952,-0.02709c3.19191,-0.05324 4.97938,-0.01498 7.47043,-0.42149c4.32469,-0.70568 18.92824,-0.1759 24.79186,-0.1759c22.78666,0 45.69464,-0.02346 68.48118,-0.02346c0,0 5.18455,-0.00201 5.18455,-1.1819c0,-0.04844 -0.00804,-0.0949 -0.02475,-0.13942z" data-paper-data="{&quot;index&quot;:null}" fill="#484848" stroke="none" stroke-width="0" stroke-linecap="butt"/><path d="M549.81981,323.44516c0,-0.13683 -0.07148,-0.36595 -0.13978,-0.59104c-0.26574,0.09133 -0.66216,0.16923 -1.17189,0.23545c-1.5286,0.35556 -3.84764,0.35557 -3.84764,0.35557c-19.65153,0 -31.0019,3.13224 -37.94899,6.42715c-0.81728,0.37383 -0.74507,0.82422 -0.74507,1.24217c0,0.11891 -0.04972,0.30788 -0.10404,0.50337c0.05197,-0.06295 0.18167,-0.11466 0.44572,-0.14784c1.16694,-0.14667 11.31149,0.75094 12.55632,0.23443c0.37409,-0.15523 -1.83495,-0.18448 -1.71311,-0.35951c1.49846,-2.15196 17.39005,-5.40701 25.20199,-6.30031c2.02608,-0.23169 4.30691,-0.34826 6.57435,-0.40163c-0.88648,-0.31574 0.8921,-0.79903 0.8921,-1.19778zM505.83515,331.71546c-0.117,0.41947 -0.22084,0.82044 0.13126,0.57887c0.24069,-0.16508 -0.10677,-0.39683 -0.13126,-0.57887zM497.48257,328.81694c7.37361,-3.17899 17.18033,-6.07761 32.46283,-7.21849c1.43555,-0.51305 4.39682,-0.51307 4.39682,-0.51307h2.5796c5.84105,0 8.93128,-0.46538 15.20535,-0.46538c8.71314,0 10.73288,3.96229 6.17661,5.12267c-2.87519,0.73221 -7.48706,0.97247 -11.33588,1.41259c-11.39269,1.30272 -15.61987,5.04627 -28.10334,6.90894c-13.23092,1.97417 -27.79713,-2.31301 -21.38194,-5.24723z" data-paper-data="{&quot;index&quot;:null}" fill="#000000" stroke="none" stroke-width="0" stroke-linecap="butt"/><path d="M549.87173,322.81459c0.06847,0.22508 0.15184,0.45747 0.15184,0.5943c0,0.39875 -1.75744,0.8893 -0.87094,1.20506c-2.26746,0.05338 -4.56136,0.16515 -6.58752,0.39684c-7.81204,0.89328 -23.7803,4.1318 -25.27871,6.28377c-0.12196,0.17507 1.84208,0.30793 1.46794,0.46316c-1.24483,0.5165 -11.4773,-0.39663 -12.64422,-0.24997c-0.26418,0.03322 -0.39267,0.08521 -0.44453,0.14819c0.05432,-0.19549 0.09452,-0.38719 0.09452,-0.5061c0,-0.41792 -0.0947,-0.87654 0.72256,-1.25035c6.94703,-3.29492 18.70715,-6.49643 38.35865,-6.49643c0,0 2.32956,0.00254 3.85813,-0.35303c0.50979,-0.06624 0.90637,-0.14408 1.17199,-0.23543z" data-paper-data="{&quot;index&quot;:null}" fill="#ffffff" stroke="none" stroke-width="0" stroke-linecap="butt"/><path d="M18.54076,259.42251l6.82266,-166.65293l257.22887,-25.72831l-1.45522,-33.063l332.23908,-47.61749l-13.45785,331.8453l-7.89203,-0.57844l-305.85664,-22.99073l0.15655,-3.82378l-86.66295,-5.33534l0.13123,-9.44242l-179.4223,-17.68693z" data-paper-data="{&quot;index&quot;:null}" fill="#5f677b" stroke="#000000" stroke-width="1" stroke-linecap="round"/><path d="M20.65426,175.13414l586.72813,-21.49161l-6.75916,165.10181l-314.85386,-23.61236l0.01205,-4.86909l-85.70658,-4.07064l-1.26945,-10.16571l-176.88878,-17.35546l-4.55638,1.4991z" data-paper-data="{&quot;index&quot;:null}" fill="#918d84" stroke="#000000" stroke-width="1" stroke-linecap="round"/><path d="M37.16911,181.44967l76.50111,-1.14013l-2.59404,56.16663l-74.7776,-4.97639z" data-paper-data="{&quot;index&quot;:null}" fill="#0b1403" stroke="#000000" stroke-width="1" stroke-linecap="round"/><path d="M99.68704,180.03171l-1.69961,55.90862l-46.71837,-3.09112l2.86666,-52.03074z" data-paper-data="{&quot;index&quot;:null}" fill="#43472c" stroke="#000000" stroke-width="1" stroke-linecap="round"/><path d="M199.89011,285.41029l4.86253,-100.78266l87.54493,1.66899l-4.31084,105.29822z" data-paper-data="{&quot;index&quot;:null}" fill="#dfdfdf" stroke="#000000" stroke-width="1" stroke-linecap="round"/><path d="M211.00918,286.38109l2.7466,-88.67929l78.07668,-0.04444l-3.69867,93.94352z" data-paper-data="{&quot;index&quot;:null}" fill="#5e616a" stroke="#000000" stroke-width="1" stroke-linecap="round"/><path d="M217.87617,201.40596l73.6226,0.80438l-0.32601,15.1597l-73.12119,-2.25698z" data-paper-data="{&quot;index&quot;:null}" fill="#0b1403" stroke="#000000" stroke-width="1" stroke-linecap="round"/><path d="M307.06102,297.05288l5.78281,-116.06533l254.24028,-3.14419l-6.69345,138.30884z" data-paper-data="{&quot;index&quot;:null}" fill="#dfdfdf" stroke="#000000" stroke-width="1" stroke-linecap="round"/><path d="M320.08677,297.32835l4.60452,-101.67708l227.13417,-0.42382l-5.17393,119.18379z" data-paper-data="{&quot;index&quot;:null}" fill="#5e616a" stroke="#000000" stroke-width="1" stroke-linecap="round"/><path d="M328.765,200.49516l217.58702,-1.10928l1.10506,19.78492l-220.46937,-2.24955z" data-paper-data="{&quot;index&quot;:null}" fill="#0b1403" stroke="#000000" stroke-width="1" stroke-linecap="round"/><path d="M164.93172,170.14619l-69.75208,-84.07921l9.8708,-1.62438l78.50499,84.98693z" data-paper-data="{&quot;index&quot;:null}" fill="#eff6ff" stroke="#000000" stroke-width="1" stroke-linecap="round"/><path d="M283.33485,67.14615l-272.35609,27.64455l-5.10314,-7.47762l276.48497,-30.43372z" data-paper-data="{&quot;index&quot;:null}" fill="#eff6ff" stroke="#000000" stroke-width="1" stroke-linecap="round"/><path d="M259.11319,30.14907l390.20732,-67.61536l-6.72863,19.84028l-378.22652,54.70943z" data-paper-data="{&quot;index&quot;:null}" fill="#eff6ff" stroke="#000000" stroke-width="1" stroke-linecap="round"/><path d="M338.50478,48.19071l204.8976,-20.96747l-2.63982,88.12074l-204.50276,10.3381z" data-paper-data="{&quot;index&quot;:null}" fill="#181e2b" stroke="#000000" stroke-width="1" stroke-linecap="round"/><path d="M510.81133,30.40527l-1.79185,87.10704l-146.91479,7.252l1.63974,-79.45172z" data-paper-data="{&quot;index&quot;:null}" fill="#41628a" stroke="#000000" stroke-width="1" stroke-linecap="round"/><path d="M187.9676,274.37885l-45.01252,-3.10177l2.76231,-80.34399l45.32294,-0.19035z" data-paper-data="{&quot;index&quot;:null}" fill="#a09f89" stroke="#000000" stroke-width="1" stroke-linecap="round"/><path d="M184.28604,274.34922l-37.74742,-2.72384l2.6369,-75.20482l38.02093,-0.3585z" data-paper-data="{&quot;index&quot;:null}" fill="#323730" stroke="#000000" stroke-width="1" stroke-linecap="round"/><path d="M149.00286,197.03957l11.95437,-0.54177l-3.09616,75.62795l-11.60606,-0.76975z" data-paper-data="{&quot;index&quot;:null}" fill="#0e1101" stroke="#000000" stroke-width="1" stroke-linecap="round"/><path d="M219.66787,73.87393l68.40393,-8.6168l-1.72616,73.08376l-71.33736,2.65966z" data-paper-data="{&quot;index&quot;:null}" fill="#eff6ff" stroke="#000000" stroke-width="1" stroke-linecap="round"/><path d="M197.27918,120.80438l-22.10713,0.77987l1.88884,-46.13766l22.46129,-1.00606z" data-paper-data="{&quot;index&quot;:null}" fill="#eff6ff" stroke="#000000" stroke-width="1" stroke-linecap="round"/><path d="M225.40253,80.53745l61.86129,-6.01612l-0.85807,56.4184l-64.57519,1.38874z" data-paper-data="{&quot;index&quot;:null}" fill="#41628a" stroke="#000000" stroke-width="1" stroke-linecap="round"/><path d="M191.80636,113.19546l-10.35181,0.70528l1.26572,-30.91698l10.51943,-0.8597z" data-paper-data="{&quot;index&quot;:null}" fill="#41628a" stroke="#000000" stroke-width="1" stroke-linecap="round"/><path d="M22.22646,176.17898l1.87341,-82.92184l71.16688,-8.28535l69.86137,84.5063z" data-paper-data="{&quot;index&quot;:null}" fill="#576264" stroke="#000000" stroke-width="1" stroke-linecap="round"/><path d="M287.13493,61.37256c0.76573,-0.76547 1.55818,-1.52652 2.70945,-1.8858c1.13714,-0.35487 2.93556,0.36749 4.03629,0.57627c2.82507,0.53582 6.25651,0.62138 8.90875,1.81854c1.45564,0.65705 2.639,1.92556 3.95891,2.8556c4.43537,7.07914 2.04442,15.78891 1.27262,23.50043c-1.54882,4.19638 -4.05202,5.40268 -8.27561,6.13062c-3.79143,0.65345 -7.07029,2.35152 -11.08885,1.52658c-1.21798,-0.25003 -2.05855,-1.17236 -3.12567,-1.76071c-4.04606,-2.12421 -7.33616,-5.00422 -9.30007,-9.46112c-0.77097,-1.74963 -0.59282,-4.21437 -0.9856,-6.1087c-0.41834,-2.0176 -1.20253,-3.67997 -0.99901,-5.73542c0.18729,-1.56283 0.94084,-2.23389 1.84747,-3.44601c2.61328,-3.49385 6.6338,-6.71957 11.04131,-8.01027zM285.11539,63.73835c-3.12757,1.49956 -5.90765,3.97659 -7.82122,6.54374c-0.73028,0.97971 -1.46166,1.43342 -1.55565,2.69791c-0.19112,1.84068 0.59204,3.43175 0.97523,5.27888c0.36307,1.75021 0.15888,4.23978 0.8957,5.82314c1.93314,4.15412 4.81949,6.75001 8.63214,8.73115c0.86806,0.4828 1.73883,1.43873 2.7124,1.61143c3.87613,0.68753 6.88243,-0.88318 10.54099,-1.53533c3.52706,-0.6287 5.79894,-1.34597 7.06327,-4.98402c0.74268,-7.24815 2.96,-15.39433 -0.90228,-22.1401c-1.2107,-0.81241 -2.22496,-1.93088 -3.52836,-2.53747c-2.48153,-1.15488 -5.86267,-1.18747 -8.52596,-1.69083c-0.70302,-0.13287 -2.38339,-0.78922 -3.22444,-0.64021c0.20378,0.05381 0.62015,0.23375 0.56277,0.80032c-0.07558,0.74618 -0.82176,0.67061 -0.82176,0.67061l-0.15804,-0.03064c-0.73446,0.06856 -1.46457,0.20547 -2.18483,0.40135c-0.4728,0.4824 -0.94396,0.97198 -1.52314,1.38037c0,0 -0.62162,0.41964 -1.04125,-0.20198c-0.0415,-0.06147 -0.07282,-0.12097 -0.09556,-0.17829z" fill="#000000" stroke="none" stroke-width="0.5" stroke-linecap="butt"/><path d="M285.19031,63.87109c0.41964,0.62162 1.04397,0.20084 1.04397,0.20084c0.57918,-0.4084 1.05623,-0.89981 1.52903,-1.38222c0.72026,-0.19587 1.45741,-0.334 2.19186,-0.40257l0.15853,0.0306c0,0 0.7489,0.07541 0.82448,-0.67077c0.05739,-0.56657 -0.36056,-0.74643 -0.56433,-0.80024c0.84105,-0.14901 2.53111,0.50763 3.23414,0.6405c2.66329,0.50336 6.06749,0.5451 8.54901,1.69998c1.3034,0.60659 2.32631,1.73305 3.53701,2.54546c3.86228,6.74577 1.64847,14.95223 0.9058,22.20038c-1.26433,3.63806 -3.55434,4.37167 -7.08141,5.00038c-3.65857,0.65215 -6.69591,2.2281 -10.57204,1.54057c-0.97356,-0.17268 -1.85332,-1.13088 -2.72137,-1.61367c-3.81264,-1.98114 -6.72799,-4.6037 -8.66114,-8.75781c-0.73683,-1.58336 -0.537,-4.09198 -0.90008,-5.84219c-0.38319,-1.84714 -1.16415,-3.45434 -0.97304,-5.29502c0.09399,-1.26449 0.829,-1.72695 1.55928,-2.70665c1.91358,-2.56715 4.71714,-5.06627 7.84471,-6.56583c0.02274,0.05731 0.0541,0.1168 0.09559,0.17827z" data-paper-data="{&quot;noHover&quot;:false,&quot;origItem&quot;:[&quot;Path&quot;,{&quot;applyMatrix&quot;:true,&quot;segments&quot;:[[[275.33114,87.02867],[0.0284,0.05473],[-2.96054,1.80709]],[[268.20914,94.32724],[1.64515,-2.74691],[-0.62784,1.04831]],[[266.93327,97.16818],[-0.03391,-1.26752],[-0.00466,1.85057]],[[268.43548,102.32192],[-0.56737,-1.79912],[0.53759,1.70471]],[[269.91341,108.02515],[-0.89263,-1.50105],[2.34191,3.93817]],[[279.38144,115.84201],[-3.99287,-1.58686],[0.91229,0.39287]],[[282.24242,117.17191],[-0.98601,-0.0737],[3.92568,0.29344]],[[292.57504,114.58218],[-3.57423,1.0175],[3.44575,-0.98092]],[[299.10013,108.91177],[-0.89129,3.74695],[0.00851,-7.28609]],[[295.9714,86.97529],[4.52239,6.32223],[-1.2864,-0.68627]],[[292.20529,84.80629],[1.35789,0.47216],[-2.58527,-0.89894]],[[283.55234,83.98321],[2.70046,0.23242],[-0.71283,-0.06135]],[[280.27981,83.67118],[0.82175,-0.233],[0.20816,0.033]],[[280.92036,84.41072],[0,-0.56947],[0,0.75]],[280.17036,85.16072],[[280.01004,85.14616],[0,0],[-0.72381,0.14222]],[[277.87677,85.76563],[0.69686,-0.26745],[-0.42178,0.52759]],[[276.50048,87.29245],[0.53508,-0.46468],[0,0]],[[275.44418,87.19643],[0.48014,0.57617],[-0.04748,-0.05698]]],&quot;closed&quot;:true}]}" fill="#ffffff" stroke="none" stroke-width="0.5" stroke-linecap="butt"/><path d="M320.93563,49.82614c-0.10567,-0.42614 0.27454,-0.7364 0.27454,-0.7364c1.83039,-1.44397 4.48028,-1.25725 6.71109,-1.07711c5.44733,0.43984 11.86974,0.77621 15.26616,5.68588c4.99076,8.28118 6.44303,18.01147 6.07349,27.6231c-0.17971,4.64648 -3.45367,8.34105 -7.29997,10.4127c-0.75695,0.4077 -1.18521,1.25257 -1.85264,1.79455c-2.5306,2.05495 -6.04438,3.26093 -9.25923,2.93532c-5.09338,-0.52003 -11.38784,-3.37437 -14.37531,-7.65981c-1.79898,-2.5806 -1.68369,-6.20651 -3.96679,-8.4538c-2.49788,-3.06593 -2.26419,-5.98217 -1.88284,-9.75915c0.22316,-2.21024 0.28722,-4.941 0.87741,-7.07093c0.71139,-2.56735 4.04135,-6.35662 5.88793,-8.20489c0.84951,-1.34983 2.11301,-4.05337 3.54617,-5.48945zM328.74653,49.58175c-0.17171,0.35759 -0.61172,0.40015 -0.61172,0.40015l-0.69028,0.06125c-1.43709,0.50692 -3.53184,-0.22255 -4.79869,0.35305c-1.4934,0.67854 -3.21856,4.4965 -4.0845,5.85572c-1.68163,1.69162 -4.97106,5.25327 -5.60283,7.62524c-0.55394,2.07979 -0.62493,4.70895 -0.84195,6.86471c-0.33377,3.31544 -0.68358,5.92761 1.50838,8.60862c2.30539,2.42222 2.23998,5.94393 4.08629,8.60613c2.7206,3.92286 8.64848,6.54924 13.28899,7.01518c4.74837,0.48094 6.5522,-2.47147 10.21999,-4.54185c3.36892,-1.90169 6.38165,-4.97477 6.54181,-9.16597c0.35792,-9.30942 -0.9994,-18.73504 -5.83892,-26.75833c-2.7483,-4.20783 -8.50744,-4.57048 -13.17656,-4.9239z" fill="#000000" stroke="none" stroke-width="0.5" stroke-linecap="butt"/><path d="M341.95045,54.46379c4.83952,8.02328 6.21397,17.51359 5.85604,26.82302c-0.16016,4.1912 -3.19157,7.28429 -6.56049,9.18596c-3.66778,2.07039 -5.49587,5.02994 -10.24423,4.549c-4.64051,-0.46594 -10.60125,-3.10333 -13.32186,-7.02619c-1.84631,-2.6622 -1.79562,-6.2034 -4.10102,-8.62562c-2.19196,-2.68101 -1.84593,-5.31691 -1.51215,-8.63236c0.21703,-2.15575 0.29284,-4.8025 0.84679,-6.88229c0.63177,-2.37198 3.93665,-5.95213 5.61828,-7.64377c0.86595,-1.35922 2.60414,-5.18403 4.09752,-5.86257c1.26685,-0.5756 3.37175,0.15148 4.80883,-0.35544l0.69181,-0.06142c0,0 0.44143,-0.04268 0.61314,-0.40027c4.66912,0.35341 10.45902,0.72409 13.20732,4.93194z" data-paper-data="{&quot;noHover&quot;:false,&quot;origItem&quot;:[&quot;Path&quot;,{&quot;applyMatrix&quot;:true,&quot;segments&quot;:[[[317.31364,68.54745],[4.68097,-0.11889],[-0.1348,0.37307]],[316.74536,69.00721],[[316.06477,69.13771],[0,0],[-1.37869,0.64915]],[[311.32607,69.97252],[1.2024,-0.70033],[-1.41742,0.82557]],[[307.85244,76.21002],[0.72457,-1.43956],[-1.50261,1.85247]],[[303.04652,84.36105],[0.38953,-2.42357],[-0.34154,2.12502]],[[302.90061,91.27565],[-0.00131,-2.16665],[0.00202,3.3322]],[[305.2688,99.68845],[-2.45097,-2.44648],[2.53774,2.17758]],[[310.20152,107.839],[-2.10518,-2.4626],[3.10206,3.62874]],[[324.12978,113.47935],[-4.66384,0.00405],[4.77266,0]],[[333.84007,107.93076],[-3.44048,2.42945],[3.16014,-2.23149]],[[339.42492,98.15223],[0.263,4.18601],[-0.582,-9.2981]],[[330.91931,72.11849],[5.62339,7.49477],[-3.15833,-3.90947]]],&quot;closed&quot;:true}]}" fill="#ffffff" stroke="none" stroke-width="0.5" stroke-linecap="butt"/><path d="M303.05997,76.88567c0.12522,-1.23631 1.22896,-2.13704 2.46528,-2.01182c1.23631,0.12522 2.13704,1.22896 2.01182,2.46528c-0.12522,1.23631 -1.22896,2.13704 -2.46528,2.01182c-1.23631,-0.12522 -2.13704,-1.22896 -2.01182,-2.46528z" fill="#000000" stroke="none" stroke-width="0.5" stroke-linecap="butt"/><path d="M340.80079,73.03372c0.12522,-1.23631 1.22896,-2.13704 2.46528,-2.01182c1.23631,0.12522 2.13704,1.22896 2.01182,2.46528c-0.12522,1.23631 -1.22896,2.13704 -2.46528,2.01182c-1.23631,-0.12522 -2.13704,-1.22896 -2.01182,-2.46528z" fill="#000000" stroke="none" stroke-width="0.5" stroke-linecap="butt"/><path d="M240.28292,26.00489c0.26296,-0.9648 1.22776,-0.70184 1.22776,-0.70184l1.14252,0.34662c9.86951,5.75051 20.19581,11.0804 30.27345,16.49704c9.85244,5.30801 21.93892,6.07811 31.1274,12.62889c0,0 0.81382,0.58111 0.23272,1.39493c-0.58111,0.81382 -1.39493,0.23272 -1.39493,0.23272c-9.06837,-6.48595 -21.15159,-7.25805 -30.91223,-12.49497c-10.09734,-5.4296 -20.44323,-10.76806 -30.33328,-16.53054l-0.66157,-0.14508c0,0 -0.9648,-0.26296 -0.70184,-1.22776z" fill="#000000" stroke="none" stroke-width="0.5" stroke-linecap="butt"/><path d="M352.00044,8.90464c-0.05908,0.58329 -0.42548,0.78998 -0.71856,0.86116c-5.27037,5.10875 -11.12651,9.83439 -16.58043,14.77686c-8.4106,7.6219 -18.61395,14.55938 -23.33423,25.05761c0,0 -0.41022,0.91198 -1.3222,0.50178c-0.91198,-0.41022 -0.50178,-1.3222 -0.50178,-1.3222c4.85485,-10.78911 15.17482,-17.88904 23.81519,-25.71917c5.52217,-5.00433 11.50374,-9.77746 16.79431,-14.98656l0.95355,-0.26514c0,0 0.99491,0.10077 0.89414,1.09568z" fill="#000000" stroke="none" stroke-width="0.5" stroke-linecap="butt"/><path d="M284.19161,133.17466c-0.75,0 -0.75,-0.75 -0.75,-0.75l0.00579,-0.02741c-0.78922,-6.38469 -1.85742,-12.57163 -2.93744,-18.91352c-0.51756,-4.05104 0.9403,-5.25461 3.64526,-8.03275c4.6234,-4.74848 9.22582,-6.19598 15.6316,-6.53175c8.50931,-0.94784 17.62326,-2.15972 26.02636,-0.21826c7.81153,2.34702 21.24341,-0.3165 24.84555,9.03519c1.55734,5.29162 0.78711,10.94308 0.64152,16.39812c-0.07754,2.90525 0.23743,6.16519 -1.17803,8.77505c0,0 -0.36423,0.65562 -1.01985,0.29139c-0.65562,-0.36423 -0.29139,-1.01985 -0.29139,-1.01985c1.31447,-2.2962 0.92084,-5.50192 0.98977,-8.08565c0.14032,-5.25949 0.93196,-10.77736 -0.56282,-15.87807c-1.62723,-4.23774 -4.43539,-4.57544 -8.49369,-5.53205c-2.20599,-0.51999 -4.48196,-1.17009 -6.708,-1.55805c-2.9922,-0.52149 -5.62048,-0.07683 -8.60792,-0.97627c-8.23185,-1.89733 -17.1843,-0.66038 -25.5192,0.26348c-6.05282,0.31983 -10.30356,1.58756 -14.67909,6.08306c-2.40595,2.47192 -3.69318,3.24231 -3.2365,6.76508c1.07571,6.35034 2.13391,12.55985 2.94228,18.94882l0.00579,0.21346c0,0 0,0.75 -0.75,0.75z" fill="#000000" stroke="none" stroke-width="0.5" stroke-linecap="butt"/><g stroke="none" stroke-width="0.5" stroke-linecap="butt"><path d="M333.90508,-151.71005c1.24671,2.10579 1.34177,4.62281 1.86263,6.91278c3.07108,13.50253 5.54516,25.32015 -6.79414,35.50956c-14.13207,7.44585 -28.16115,9.94165 -43.77053,8.60271c-5.04569,-0.43281 -9.94325,0.46952 -14.93634,-0.48346c-7.52015,-1.45088 -13.42865,-4.1502 -19.34093,-8.41974c-3.41547,-2.46647 -8.43786,-4.06263 -11.11799,-7.78255c-3.97622,-5.51881 -4.56554,-14.21519 -7.3353,-20.44384c-0.55726,-5.22556 1.51084,-14.83081 3.74611,-19.65671c1.25233,-2.70374 4.50287,-3.97457 6.94158,-5.29159c3.87768,-2.09413 9.32682,-4.39204 14.69907,-5.58964c-3.1191,-0.46002 -6.35335,-0.9462 -9.14693,-1.99721c-3.48611,-1.31153 -3.72079,-3.64245 -7.07062,-4.47578c-4.59647,-2.17657 -9.33009,-1.14187 -13.98255,-2.50184c-0.11866,-0.03467 -3.86421,-2.39598 -4.82639,-2.48794c-4.84599,-0.46328 -9.78728,2.14342 -14.65801,0.96251c-4.85662,-1.1775 -8.85834,-5.98713 -13.72709,-6.62848c-2.5482,-0.33568 -5.77484,0.16268 -8.30107,0.42423c-4.6045,0.4743 -10.27067,1.26171 -14.15884,4.10139c-1.36044,0.99361 -1.64129,3.3989 -2.11442,4.70694c-1.59613,4.41272 -3.01381,9.96343 -5.4918,13.92983c-5.32342,8.52077 -9.61439,14.21513 -11.79382,24.15664c-1.24849,5.6925 -4.37,11.38886 -5.38816,16.93432c-0.98755,5.37852 -0.32332,11.40757 -1.21877,16.90088c-1.20885,7.41574 -3.89694,15.12042 -0.80451,22.48646c3.62885,5.90576 1.67853,14.79033 2.33528,21.53505c1.39633,14.34082 3.20194,28.66006 8.10838,42.20604c4.87646,11.68733 8.96629,24.46191 15.81181,35.18588c4.72582,7.40335 10.65919,13.98603 15.75192,21.1403c2.55341,2.23901 6.39244,7.52302 9.94016,8.11241c9.92219,1.64835 20.29578,1.77761 30.40521,3.13291c-0.44438,-1.50586 -0.77757,-3.0348 -0.9413,-4.59461c0,0 -0.16756,-1.62666 1.4591,-1.79422c1.62666,-0.16756 1.79422,1.4591 1.79422,1.4591c0.18919,1.87687 0.6719,3.62433 1.29627,5.31993c0.28417,0.04505 1.55511,0.32806 1.41758,1.77505c-0.03731,0.39279 -0.16042,0.68183 -0.32577,0.89425c0.7719,1.75323 1.61166,3.49472 2.34104,5.31529c0.1864,0.46525 1.60231,5.40647 2.59713,5.76373c7.77983,2.79401 17.17433,1.88928 25.22654,1.1649c4.14524,1.5282 8.67077,1.20068 12.44947,3.84294c3.73082,2.6087 6.3336,6.79561 11.15115,7.90157c3.88218,0.89122 6.46417,-1.86217 9.95097,-2.63142c8.96073,-1.97702 17.38132,-2.61474 25.97159,1.11173c3.33312,2.15641 5.44733,4.27816 9.33663,5.43093c4.40224,1.30483 9.40706,-0.16771 13.67076,-1.01699c11.6445,-2.31948 23.53696,-3.12121 35.3292,-2.63198c7.74965,2.07779 13.77822,-1.59254 21.32409,-2.20882c4.33084,-0.35375 10.44993,1.53378 14.60062,-0.43711c5.77806,-2.74366 12.09413,-4.79501 18.4566,-6.53321c21.56574,-5.68382 25.80198,-24.32315 30.8189,-43.27179c0.36332,-7.22326 4.11136,-8.24573 6.29338,-14.60365c4.18041,-12.18083 5.56232,-26.77324 0.76373,-38.75368c-1.89676,-5.22793 -2.73911,-12.98829 -2.10197,-18.56219c0.82118,-7.18376 3.76769,-15.20688 1.30992,-22.47609c-0.69458,-2.05439 -4.97432,-2.50033 -6.39673,-3.35393c-4.07445,-2.44531 -5.2192,-6.02535 -6.88643,-10.18816c-2.96948,-7.42536 -6.617,-15.76967 -11.03303,-22.45452c-6.85476,-10.37639 -16.60169,-17.07755 -22.81495,-27.68665c-8.14562,-6.51763 -19.7239,-8.76888 -29.8295,-10.76051c-9.85701,-1.94268 -19.50926,-4.35542 -29.57031,-6.01588c-11.11512,-1.83775 -22.44758,-3.07474 -33.71056,-3.31286c0.8952,0.4433 1.75274,0.98647 2.42796,2.12691zM228.72788,52.9159l-0.53803,-0.05122c-10.4704,-1.50283 -21.41786,-1.42495 -31.68823,-3.31476c-4.49529,-0.82717 -8.51452,-6.26151 -11.74507,-9.1309c-5.24235,-7.27088 -11.27141,-14.02888 -16.0907,-21.58704c-6.95663,-10.91011 -11.13719,-23.85622 -16.09365,-35.74462c-5.01402,-13.83288 -6.89042,-28.43444 -8.31619,-43.0777c-0.58521,-6.01059 1.42144,-15.20459 -1.97758,-20.33373c-3.44327,-8.17744 -0.88157,-16.26282 0.47449,-24.5308c0.90847,-5.53933 0.21261,-11.63306 1.24976,-17.06419c1.07008,-5.6038 4.13282,-11.21058 5.3903,-16.94393c1.06989,-4.87574 2.26604,-10.28563 4.53265,-14.66014c2.89417,-5.58562 7.53397,-9.46841 9.70763,-15.45672c1.51459,-4.17256 2.73839,-11.69501 6.31218,-14.53047c4.18077,-3.31706 10.79745,-4.2781 15.86592,-4.80021c5.33731,-0.54707 9.65575,-0.73991 14.51653,1.8398c3.09569,1.64293 6.25389,4.75386 10.03966,4.71433c4.17851,-0.04358 8.75458,-1.7939 12.90645,-1.29975c1.95455,0.23264 3.4186,2.03331 5.30638,2.5905c4.68815,1.38365 9.5087,0.40128 14.20667,2.57654c3.35594,1.05052 3.86854,3.38029 7.03598,4.46301c3.95567,1.35216 8.52011,1.71798 12.61037,2.49308c5.71667,1.08329 10.88327,4.22045 16.33419,5.91412c2.95603,0.91847 6.25203,0.63289 9.2571,1.57681c4.84321,1.52129 9.29057,3.68084 14.24575,4.96947c6.66943,-0.73109 13.81425,1.55984 20.60869,1.38311c14.23866,-0.37042 28.72211,1.01135 42.84123,3.33833c9.51171,1.57055 18.51479,2.53908 27.64775,5.64957c11.64288,3.96529 23.7879,4.04554 33.68347,12.2032c1.87571,2.99912 3.0761,7.53712 5.91634,9.80627c6.45557,5.15749 12.54464,11.23661 17.16337,18.22825c4.53591,6.86618 8.28212,15.41636 11.34027,23.04124c1.38304,3.45306 2.11981,6.57672 5.52617,8.59561c2.62627,1.55655 6.31487,1.59578 7.73777,4.89965c3.17058,7.36183 -0.20267,16.71829 -1.07808,24.11648c-0.5923,5.00572 0.15362,12.33357 1.90622,17.01165c5.07679,12.67659 3.70029,28.09901 -0.72324,40.98841c-2.26253,6.59269 -5.76973,7.09629 -6.15518,14.04548c-5.29966,20.44172 -10.31983,39.56002 -33.19332,45.92455c-6.29214,1.69749 -12.3625,3.92872 -18.12234,6.42277c-4.69019,2.03092 -10.70211,0.26149 -15.51104,0.64971c-7.82048,0.63135 -14.02069,4.25099 -22.08638,2.18532c-11.36754,-0.41969 -22.88956,0.31849 -34.1127,2.58384c-4.88487,0.98598 -10.31534,2.3884 -15.3413,0.96405c-4.10676,-1.16382 -6.4896,-3.46984 -9.94207,-5.68003c-7.83757,-3.39497 -15.44182,-2.52172 -23.59414,-0.83479c-4.2794,0.88555 -6.86313,3.66681 -11.67228,2.61829c-5.16016,-1.12505 -8.19084,-5.55765 -12.15078,-8.37706c-3.24805,-2.31252 -7.40168,-1.88447 -10.98639,-3.27274c-7.8797,0.94432 -19.09028,2.00724 -26.43565,-1.57298c-1.4286,-0.69637 -2.24427,-3.0509 -2.77775,-4.32453c-1.2731,-3.03972 -2.80079,-6.08391 -4.03112,-9.20527z" fill="#000000"/><path d="M331.50019,-153.94353c11.26297,0.23814 22.62714,1.48739 33.74226,3.32514c10.06107,1.66049 19.73379,4.08868 29.59081,6.03135c10.10556,1.99165 21.69877,4.26044 29.84434,10.77808c6.21325,10.60916 15.97245,17.33421 22.82717,27.7106c4.41609,6.68488 8.06831,15.04663 11.03785,22.472c1.66725,4.16282 2.81309,7.75068 6.88759,10.196c1.42242,0.85369 5.70241,1.30229 6.39702,3.35669c2.45772,7.26922 -0.48848,15.30751 -1.30964,22.49124c-0.63715,5.57391 0.20384,13.34651 2.10064,18.57433c4.79856,11.98044 3.41003,26.59605 -0.77032,38.7769c-2.182,6.35797 -5.93423,7.38942 -6.29752,14.61267c-5.01694,18.94862 -9.27269,37.61471 -30.83844,43.2985c-6.36257,1.73815 -12.68714,3.7973 -18.46514,6.54092c-4.15069,1.97088 -10.27612,0.08817 -14.60699,0.44189c-7.54586,0.6163 -13.58616,4.29377 -21.33573,2.21592c-11.79222,-0.48926 -23.70844,0.32167 -35.35302,2.64106c-4.26364,0.84927 -9.27893,2.32393 -13.68117,1.01906c-3.88932,-1.1528 -6.01039,-3.27377 -9.3435,-5.43011c-8.59028,-3.72638 -17.03242,-3.08892 -25.99315,-1.11194c-3.4868,0.76931 -6.07648,3.52151 -9.95869,2.6303c-4.81755,-1.10592 -7.43055,-5.2952 -11.16128,-7.90395c-3.7787,-2.64224 -8.31454,-2.31822 -12.45979,-3.84644c-8.05218,0.72436 -17.46338,1.62078 -25.24322,-1.17322c-0.99475,-0.35727 -2.41419,-5.30066 -2.60062,-5.76596c-0.72936,-1.82057 -1.57236,-3.56428 -2.34434,-5.31755c0.1653,-0.21242 0.28822,-0.50154 0.32557,-0.89441c0.13748,-1.44699 -1.13486,-1.73111 -1.41901,-1.77613c-0.62433,-1.69562 -1.10989,-3.44521 -1.29908,-5.32209c0,0 -0.16907,-1.6279 -1.79574,-1.46033c-1.62666,0.16756 -1.31995,1.62633 -1.31995,1.62633c0.16374,1.55979 0.36008,3.25854 0.80448,4.76433c-10.10952,-1.3553 -20.49664,-1.49719 -30.41877,-3.14555c-3.54773,-0.58941 -7.39245,-5.88028 -9.94586,-8.11928c-5.09275,-7.15428 -11.03603,-13.75244 -15.76183,-21.15579c-6.84551,-10.72392 -10.94473,-23.52339 -15.82124,-35.21067c-4.90651,-13.54598 -6.71519,-27.89404 -8.11152,-42.23484c-0.65675,-6.74473 1.29481,-15.64332 -2.33402,-21.54906c-3.09242,-7.36604 -0.4012,-15.08466 0.80766,-22.50037c0.89545,-5.49333 0.23458,-11.53215 1.22209,-16.91061c1.0182,-5.54543 4.14419,-11.25171 5.39276,-16.94419c2.17939,-9.94151 6.47892,-15.64971 11.80234,-24.17047c2.478,-3.96639 3.90098,-9.52382 5.49712,-13.93657c0.47313,-1.30804 0.75588,-3.71547 2.11638,-4.70911c3.88825,-2.83976 9.55967,-3.63262 14.16417,-4.10692c2.52624,-0.26153 5.75581,-0.76254 8.30397,-0.42693c4.8688,0.64131 8.87352,5.44831 13.73015,6.62587c4.87067,1.18092 9.81882,-1.43096 14.66479,-0.96769c0.96222,0.09203 4.70928,2.45221 4.82795,2.48689c4.65245,1.36001 9.39292,0.32099 13.98938,2.49756c3.34983,0.83333 3.58736,3.16264 7.07347,4.47418c2.79355,1.051 6.12574,1.73189 9.24486,2.19194c-5.37225,1.1976 -10.80943,3.48896 -14.68711,5.58312c-2.43872,1.317 -5.68296,2.58359 -6.93529,5.28733c-2.23526,4.82585 -4.29255,14.42205 -3.73522,19.64762c2.76975,6.22866 3.36623,14.91759 7.3424,20.43635c2.68014,3.71992 7.53912,5.17172 10.95462,7.63818c5.91227,4.26952 11.82937,6.9604 19.34954,8.41117c4.99309,0.95297 9.90958,0.03718 14.95527,0.47002c15.6093,1.33888 29.72813,-1.16478 43.86021,-8.61063c12.33931,-10.18947 9.79905,-21.79943 6.72792,-35.30195c-0.52081,-2.28996 -0.61195,-4.80594 -1.85868,-6.91172c-0.67523,-1.14046 -1.48355,-1.896 -2.37873,-2.3393z" data-paper-data="{&quot;noHover&quot;:false,&quot;origItem&quot;:[&quot;Path&quot;,{&quot;applyMatrix&quot;:true,&quot;segments&quot;:[[[317.41596,224.93512],[0.2015,-0.09288],[-0.37206,0.17149]],[[316.23283,225.12672],[0.39028,-0.04745],[-2.30125,0.2798]],[[310.43598,223.38616],[1.48518,2.22965],[-0.99753,-2.48113]],[[309.75422,215.94952],[-0.49073,2.57644],[0.15863,-0.83283]],[[310.09095,213.47046],[-0.24435,0.81515],[0.37061,-1.22744]],[[311.82486,210.39406],[-0.81242,0.91133],[0.46933,-0.52647]],[[313.3116,208.67609],[-0.66545,0.38251],[0.98725,-0.56749]],[[316.84193,207.80524],[-1.08477,0.3544],[0.87977,-0.00316]],[[320.05109,208.76627],[-0.7653,-0.45502],[0.42877,0.25493]],[[320.81322,210.01301],[-0.17749,-0.42871],[0.28222,0.68167]],[[321.49191,212.55672],[-0.10728,-0.91518],[0.13011,-0.51153]],[[321.98141,211.06775],[-0.22294,0.44718],[0.27821,-0.55804]],[[322.84805,209.96706],[-0.19624,0.54355],[0.44131,-0.72811]],[[323.50454,207.68147],[-0.30629,0.75144],[0.00781,-0.01917]],[[324.00165,206.92041],[-0.03183,0.15866],[0.16028,-0.79905]],[[324.09281,204.46292],[-0.28021,0.79085],[0.2794,-0.78857]],[[325.43212,202.29065],[-0.19032,0.7998],[0.09961,-0.41859]],[[325.50387,200.901],[0.00022,0.42518],[0,-0.77492]],[[325.06375,198.47278],[0.4062,0.69622],[-0.14213,-0.2436]],[[324.31618,198.03992],[0.20971,0.10123],[-0.70747,-0.3415]],[[322.09066,196.88641],[0.61801,0.4807],[-1.32764,-1.03267]],[[318.27018,194.50801],[1.61817,0.53347],[-0.92655,-0.30556]],[[315.54255,193.32023],[0.90601,0.26469],[-0.87874,-0.25672]],[[312.74896,192.82735],[0.89944,0.24335],[-1.2142,-0.32852]],[[309.0181,192.30764],[1.27971,-0.38862],[-1.04573,0.503]],[[305.39182,192.32712],[1.13446,0.00633],[-2.41212,-0.01347]],[[298.22418,192.9534],[2.33997,-0.58471],[-2.02993,0.61159]],[[292.09346,194.98295],[1.90328,-0.95602],[-1.31394,0.65999]],[[288.30277,197.24347],[1.27876,-0.72537],[-0.41666,0.38681]],[[286.7813,198.75964],[0.15901,-0.58069],[-0.4447,1.62406]],[[285.73801,203.76926],[0.39912,-1.66028],[0.25839,-0.04817]],[[286.51929,203.69132],[-0.26256,0.00051],[0,0]],[[286.79305,203.96508],[0,-0.27376],[0,0.27376]],[[286.51929,204.23884],[0,0],[-0.3158,-0.00069]],[[285.61112,204.36345],[0.29308,-0.07488],[-0.01238,0.04655]],[[285.2912,204.56907],[0.23861,0.04772],[-0.06477,-0.01295]],[[285.14787,204.49948],[0.03254,0.03117],[-0.30521,0.09847]],[[284.22256,204.79815],[0.31569,-0.09023],[-0.08068,0.02306]],[[283.21819,205.13178],[0.07656,-0.15953],[-0.59874,1.24764]],[[282.59146,209.31276],[0.0175,-1.35335],[-0.3256,0.66409]],[[281.73794,211.32003],[0.50483,-0.58394],[-0.49843,0.57654]],[[280.23081,213.04149],[0.26681,-0.78329],[-0.21501,0.63121]],[[280.49832,214.74375],[-0.0683,-0.59385],[0.17552,1.52614]],[[279.86767,219.04972],[0.76791,-1.36661],[-0.41628,0.51807]],[[278.8031,220.51137],[0.25869,-0.62791],[-0.29281,0.71072]],[[278.73795,222.8054],[-0.06829,-0.72459],[0.18651,1.97894]],[[278.5702,228.7339],[0.28376,-1.95536],[-0.47895,1.2549]],[[278.57224,232.32288],[0.02681,-1.26718],[-0.01538,0.72728]],[[278.39458,234.76181],[-0.25701,-0.72502],[0.35778,1.00928]],[[279.16594,237.94746],[-0.18031,-1.08937],[0.57658,3.68883]],[[285.8433,243.822],[-3.06944,-1.16051],[1.19665,0.18441]],[[288.16728,245.12054],[-1.02136,-0.47243],[1.95676,0.90511]],[[294.60781,245.91251],[-2.07741,0.59359],[0.90314,-0.22619]],[[297.73503,245.88088],[-0.91729,-0.20172],[1.18222,0.25998]],[[301.45549,246.48458],[-1.2527,0.28459],[0.35403,-0.08043]],[[302.12375,245.47687],[-0.16656,0.22223],[0.47711,-0.63657]],[[303.93851,244.50485],[-0.72183,0.20624],[1.28748,-0.36713]],[[307.86712,243.0527],[-1.18898,0.62074],[1.84556,-0.96352]],[[312.86913,239.72828],[-1.87332,0.8527],[1.22511,-1.24468]],[[315.17277,234.94538],[-0.50502,1.64871],[0.4926,-1.60816]],[[316.68185,230.12425],[-0.44911,1.64698],[0.49671,-1.81947]],[[317.8118,224.56728],[-0.23286,1.87153],[-0.08918,0.14147]]],&quot;closed&quot;:true}]}" fill="#ffdf4d"/></g></g></g></svg>