<svg version="1.1" xmlns="http://www.w3.org/2000/svg" xmlns:xlink="http://www.w3.org/1999/xlink" width="2878.25006" height="1619.57958" viewBox="0,0,2878.25006,1619.57958"><g transform="translate(1117.37278,629.80931)"><g data-paper-data="{&quot;isPaintingLayer&quot;:true}" fill-rule="nonzero" stroke-linejoin="miter" stroke-miterlimit="10" stroke-dasharray="" stroke-dashoffset="0" style="mix-blend-mode: normal"><path d="M377.82912,23.12393l78.1084,-176.56266l60.57386,168.43784z" fill="#87ffeb" stroke="#000000" stroke-width="2.5" stroke-linecap="round"/><path d="M58.48799,89.01128l78.1084,-176.56266l60.57386,168.43783z" fill="#87ffeb" stroke="#000000" stroke-width="2.5" stroke-linecap="round"/><path d="M-1117.37278,989.77027v-1619.57958h2878.25006v1619.57958z" fill="none" stroke="#000000" stroke-width="0" stroke-linecap="butt"/><path d="M155.92054,312.29157l33.38547,-48.7229l93.63051,-1.25645l-19.58601,49.03385z" data-paper-data="{&quot;index&quot;:null}" fill="#cedce9" stroke="#000000" stroke-width="0" stroke-linecap="round"/><path d="M147.0078,310.96011c-3.23561,-0.35441 -10.93443,-0.8942 -7.56454,-1.50617c-1.84308,0.19974 -4.30205,0.4446 -5.61076,0.51355c-6.19979,0.32666 -14.23776,0.0678 -20.63672,0.09827c-17.55512,0.08359 -34.59919,0.00703 -51.58881,0.83561c-7.67807,0.37446 -9.79417,-0.65892 -12.14543,0.81227c-4.85265,2.47282 -13.99414,4.70234 -19.86143,7.1964c-7.95209,3.38023 -11.02671,6.62161 -15.89541,9.99619c-5.51436,2.78621 -0.98662,8.06371 -0.97199,11.13558c0.00392,0.82228 1.56147,2.27859 0.08341,2.89091c1.47236,0.02357 2.89443,0.0447 3.80005,0.04039c6.01905,-0.02866 12.03804,-0.05732 18.05712,-0.08598c23.94279,-0.11401 51.76066,-0.36621 74.99347,-1.80553c27.5857,-1.5488 57.50034,0.34138 85.30868,-1.06325c15.22882,-0.7106 31.83427,-0.41036 47.3429,-0.47971c7.86752,-0.03518 14.60157,-0.75065 18.05989,0.50396c0.90897,0.32977 -0.00375,-0.78658 -0.00562,-1.17987c-0.00468,-0.98321 -0.00937,-1.9665 -0.01405,-2.94971c-0.02622,-5.50611 -0.05244,-11.0122 -0.07866,-16.51831c-0.00619,-1.30168 -1.52035,-5.95151 1.56381,-6.47014c-0.579,-0.00516 -1.23434,-0.01488 -1.59471,-0.0192c-3.19225,-0.03807 -4.97544,0.01067 -7.46844,-0.38396c-4.328,-0.6851 -18.91555,-0.08036 -24.77914,-0.05243c-22.78632,0.10851 -45.57259,0.21701 -68.35892,0.32551c0,0 -5.15915,0.02457 -5.16477,-1.1553c-0.00023,-0.04844 0.00819,-0.0949 0.02468,-0.13951c-2.46692,-0.10782 -4.959,-0.26175 -7.4945,-0.53945zM227.99022,310.10916c13.75499,-0.0655 31.33235,-0.70936 40.73721,1.63817c5.38936,1.34521 1.86197,5.75733 1.87074,7.59822c0.02622,5.50611 0.05244,11.01219 0.07866,16.51831c0.003,0.62875 1.79484,3.73926 0.01966,4.12958c-17.93019,3.94234 -51.77459,1.09585 -73.68641,2.32922c-27.19206,1.37352 -58.52512,-0.84791 -84.82982,1.03634c-23.94518,1.48347 -52.79985,1.77034 -77.49572,1.88793c-3.54235,0.01686 -24.78312,0.73155 -27.08557,0.12897c-6.60258,-1.72801 -5.17452,-3.20252 -5.18443,-5.2849c-0.01794,-3.76656 -2.95888,-8.24243 1.49798,-11.88435c4.99014,-3.45872 8.48473,-6.92047 16.45387,-10.30794c3.21466,-1.36644 6.68525,-3.19031 10.84211,-4.43043c2.72002,-0.81146 7.9247,-1.48503 8.57043,-2.52614c4.40073,-2.75358 12.38134,-1.89622 21.81721,-2.40043c16.79703,-0.89756 34.18393,-0.75274 51.58882,-0.83562c6.41881,-0.03057 18.95714,-0.76586 23.48632,-0.57722c7.88423,0.32841 12.46128,1.84399 20.10325,2.26409c5.60755,0.30826 11.51425,0.08185 18.06133,0.79893c0.49703,0.05447 0.99395,0.10888 1.49103,0.16333c17.22114,-0.082 34.44237,-0.164 51.66355,-0.24601z" data-paper-data="{&quot;index&quot;:null}" fill="#000000" stroke="none" stroke-width="0" stroke-linecap="butt"/><path d="M154.57378,311.4426c-0.0165,0.0446 -0.02432,0.0911 -0.02409,0.13954c0.00563,1.17987 5.19011,1.1572 5.19011,1.1572c22.78628,-0.1085 45.69411,-0.19412 68.48052,-0.30262c5.86356,-0.02792 20.46442,-0.62723 24.79241,0.05785c2.49296,0.39464 4.28023,0.34787 7.47235,0.38591c0.36032,0.0043 1.01621,0.01433 1.59531,0.0195c-3.08418,0.51863 -1.5543,5.17968 -1.54811,6.48136c0.02622,5.50611 0.04184,11.04503 0.06805,16.55113c0.00468,0.98323 0.00058,1.97131 0.00527,2.95452c0.00187,0.39329 0.91072,1.51143 0.00173,1.18168c-3.4583,-1.2546 -10.19848,-0.53659 -18.06594,-0.50139c-15.50865,0.06935 -32.161,-0.21719 -47.38976,0.49342c-27.80837,1.40465 -57.99626,-0.47279 -85.58198,1.076c-23.2328,1.43933 -51.1637,1.67152 -75.10666,1.78553c-6.01907,0.02867 -12.04861,0.05367 -18.06766,0.08233c-0.9057,0.00432 -2.32971,-0.01754 -3.80199,-0.04111c1.47808,-0.61233 -0.08911,-2.07274 -0.09303,-2.89503c-0.01463,-3.07187 -4.56675,-8.36968 0.94774,-11.15591c4.86876,-3.3746 7.95383,-6.63842 15.90592,-10.01864c5.86739,-2.49407 15.04742,-4.74134 19.90011,-7.21414c2.35124,-1.47119 4.48334,-0.44238 12.16139,-0.81682c16.98958,-0.82856 34.14427,-0.76906 51.69926,-0.85265c6.39885,-0.03047 14.50875,0.22508 20.70853,-0.10155c1.30859,-0.06896 3.7881,-0.3139 5.63116,-0.51364c-3.36999,0.61195 4.35937,1.15234 7.59504,1.50671c2.53559,0.2777 5.05772,0.43307 7.52458,0.54088z" data-paper-data="{&quot;index&quot;:null}" fill="#484848" stroke="none" stroke-width="0" stroke-linecap="butt"/><path d="M82.26912,316.11265c0.0019,0.39875 1.78276,0.87357 0.89778,1.19352c2.26766,0.04257 4.54903,0.14828 6.57619,0.37032c7.8161,0.8561 23.72301,4.03543 25.23171,6.18023c0.12267,0.17445 -2.0862,0.21421 -1.71138,0.36766c1.24728,0.51058 11.38744,-0.43532 12.55506,-0.29421c0.2642,0.03192 0.39415,0.08301 0.44641,0.14572c-0.05526,-0.19523 -0.10586,-0.38396 -0.10643,-0.50287c-0.00199,-0.41795 0.06808,-0.86867 -0.75098,-1.23861c-6.9627,-3.26179 -18.32786,-6.33995 -37.97916,-6.24638c0,0 -2.31902,0.01103 -3.8493,-0.33724c-0.51004,-0.06379 -0.90682,-0.13981 -1.173,-0.22987c-0.06723,0.22541 -0.13762,0.45487 -0.13696,0.5917zM126.16413,324.75288c0.35325,0.23989 0.2475,-0.16059 0.1285,-0.57948c-0.02363,0.18215 -0.36997,0.41555 -0.1285,0.57948zM134.63126,321.23515c6.42909,2.90364 -8.11654,7.26012 -21.35672,5.34898c-12.49219,-1.80321 -16.73715,-5.52658 -28.13591,-6.77504c-3.85086,-0.42179 -8.46384,-0.64009 -11.34248,-1.3586c-4.56174,-1.13867 -2.5609,-5.11052 6.15214,-5.15203c6.27401,-0.02988 9.36641,0.42078 15.20739,0.39297l2.57958,-0.01228c0,0 2.96124,-0.01407 4.39921,0.49213c15.28776,1.0681 25.10817,3.91998 32.49683,7.06383z" data-paper-data="{&quot;index&quot;:null}" fill="#000000" stroke="none" stroke-width="0" stroke-linecap="butt"/><path d="M82.21444,315.48231c0.26605,0.09008 0.66299,0.16603 1.1731,0.22984c1.53024,0.34829 3.85977,0.33466 3.85977,0.33466c19.65127,-0.09357 31.4265,3.0519 38.38915,6.3137c0.81903,0.36992 0.72651,0.82898 0.72851,1.2469c0.00057,0.11891 0.04168,0.31041 0.09693,0.50564c-0.05216,-0.06273 -0.18089,-0.11411 -0.44523,-0.14607c-1.1676,-0.1411 -11.39561,0.82074 -12.64289,0.31017c-0.37488,-0.15345 1.5885,-0.29565 1.46572,-0.47014c-1.50864,-2.14481 -17.49214,-5.30726 -25.30834,-6.16334c-2.02724,-0.22204 -4.32165,-0.32289 -6.58934,-0.36546c0.88498,-0.31998 -0.87476,-0.80215 -0.87666,-1.20089c-0.00066,-0.13682 0.08162,-0.36961 0.149,-0.59502z" data-paper-data="{&quot;index&quot;:null}" fill="#ffffff" stroke="none" stroke-width="0" stroke-linecap="butt"/><path d="M368.71981,319.97485l-19.71212,-26.43595l93.63269,0.23395l33.51062,26.20201z" data-paper-data="{&quot;index&quot;:null}" fill="#cedce9" stroke="#000000" stroke-width="0" stroke-linecap="round"/><path d="M485.05719,318.60106c-2.53414,0.28977 -5.02545,0.45557 -7.49184,0.57513c0.0167,0.04453 0.02534,0.09095 0.02534,0.13939c0,1.17988 -5.15921,1.17988 -5.15921,1.17988c-22.78659,0 -45.57312,0 -68.3597,0c-5.86365,0 -20.45392,-0.53529 -24.77861,0.17042c-2.4911,0.4065 -4.2745,0.36626 -7.46653,0.41952c-0.36034,0.00603 -1.01563,0.01889 -1.5946,0.0268c3.08659,0.50394 1.5946,5.16092 1.5946,6.46262c0,5.50617 0,11.01233 0,16.5185c0,0.98322 0,1.96652 0,2.94974c0,0.39329 -0.90739,1.51397 0,1.17988c3.45231,-1.27107 10.18968,-0.58767 18.05729,-0.58995c15.50879,-0.0045 32.11262,-0.38379 47.34465,0.25428c27.81471,1.27221 57.72001,-0.7604 85.31277,0.65703c23.23939,1.32868 51.05815,1.44842 75.00121,1.44842c6.01915,0 12.0382,0 18.05732,0c0.90563,0 2.32758,-0.0279 3.79981,-0.05848c-1.48096,-0.60527 0.06965,-2.06898 0.06965,-2.89127c0,-3.07191 4.50257,-8.37091 -1.025,-11.13083c-4.88472,-3.35136 -7.97473,-6.57807 -15.94283,-9.92039c-5.8791,-2.46609 -15.03111,-4.65205 -19.89547,-7.10174c-2.35823,-1.45998 -4.46939,-0.41654 -12.14916,-0.75443c-16.99338,-0.74768 -34.03689,-0.58996 -51.59221,-0.58996c-6.39903,0 -14.43568,0.29713 -20.63695,0c-1.30903,-0.06272 -3.76915,-0.29587 -5.61315,-0.48683c3.37278,0.59592 -4.32338,1.17237 -7.55727,1.54218zM404.07155,318.13566c17.22137,0 34.4428,0 51.66413,0c0.49682,-0.05681 0.99348,-0.11359 1.49024,-0.17042c6.54359,-0.74825 12.4513,-0.54996 18.05732,-0.88492c7.63988,-0.45648 12.20966,-1.99384 20.09224,-2.35979c4.52823,-0.2102 17.06992,0.46538 23.48881,0.46538c17.40509,0 34.7911,-0.22761 51.59221,0.58996c9.43817,0.45927 17.4146,-0.43608 21.82839,2.29652c0.65068,1.03802 5.8585,1.68681 8.58236,2.48531c4.16271,1.22032 7.64196,3.02764 10.86308,4.37875c7.98518,3.34949 11.49622,6.79456 16.50277,10.22948c4.47415,3.62066 1.55455,8.11047 1.55455,11.87708c0,2.08241 1.43507,3.5501 -5.15921,5.30953c-2.29955,0.61354 -23.54349,0 -27.08588,0c-24.69616,0 -53.55186,-0.14946 -77.50383,-1.5189c-26.31337,-1.75897 -57.6355,0.61162 -84.83379,-0.6324c-21.91744,-1.12901 -55.74791,1.8786 -73.69667,-1.97832c-1.77701,-0.38187 0,-3.50087 0,-4.12963c0,-5.50617 0,-11.01232 0,-16.51849c0,-1.84091 -3.54837,-6.23619 1.83453,-7.60704c9.39358,-2.39227 26.9738,-1.83212 40.72895,-1.83212z" data-paper-data="{&quot;index&quot;:null}" fill="#000000" stroke="none" stroke-width="0" stroke-linecap="butt"/><path d="M477.49344,319.11952c2.46632,-0.11956 4.98769,-0.28693 7.52193,-0.5767c3.23395,-0.36978 10.96065,-0.94696 7.58778,-1.54286c1.84399,0.19096 4.32464,0.42409 5.63354,0.48682c6.20127,0.29712 14.30985,0.00295 20.70878,0.00295c17.55519,0 34.7094,-0.14118 51.70273,0.60647c7.67974,0.33789 9.80692,-0.70107 12.16514,0.75891c4.86441,2.44966 14.05504,4.65319 19.93423,7.1193c7.9681,3.34231 11.06867,6.59142 15.95345,9.94279c5.52769,2.75994 1.00085,8.07936 1.00085,11.15126c0,0.8223 -1.56022,2.29016 -0.07924,2.89544c-1.47215,0.03058 -2.89604,0.05922 -3.80175,0.05922c-6.01912,0 -12.04871,0.00371 -18.06785,0.00371c-23.94324,0 -51.87493,-0.09919 -75.11432,-1.42788c-27.59278,-1.41742 -57.77138,0.60374 -85.58613,-0.66848c-15.23198,-0.6381 -31.88278,-0.27226 -47.39158,-0.26777c-7.86754,0.00227 -14.61106,-0.68365 -18.06335,0.58741c-0.9074,0.33408 -0.0039,-0.78838 -0.0039,-1.18167c0,-0.98322 -0.0088,-1.97125 -0.0088,-2.9545c0,-5.50617 -0.01076,-11.0451 -0.01076,-16.55127c0,-1.3017 1.50766,-5.96998 -1.57896,-6.47392c0.57907,-0.00792 1.2349,-0.02107 1.5952,-0.02709c3.19191,-0.05324 4.97938,-0.01498 7.47043,-0.42149c4.32469,-0.70568 18.92824,-0.1759 24.79186,-0.1759c22.78666,0 45.69464,-0.02346 68.48118,-0.02346c0,0 5.18455,-0.00201 5.18455,-1.1819c0,-0.04844 -0.00804,-0.0949 -0.02475,-0.13942z" data-paper-data="{&quot;index&quot;:null}" fill="#484848" stroke="none" stroke-width="0" stroke-linecap="butt"/><path d="M549.81981,323.44516c0,-0.13683 -0.07148,-0.36595 -0.13978,-0.59104c-0.26574,0.09133 -0.66216,0.16923 -1.17189,0.23545c-1.5286,0.35556 -3.84764,0.35557 -3.84764,0.35557c-19.65153,0 -31.0019,3.13224 -37.94899,6.42715c-0.81728,0.37383 -0.74507,0.82422 -0.74507,1.24217c0,0.11891 -0.04972,0.30788 -0.10404,0.50337c0.05197,-0.06295 0.18167,-0.11466 0.44572,-0.14784c1.16694,-0.14667 11.31149,0.75094 12.55632,0.23443c0.37409,-0.15523 -1.83495,-0.18448 -1.71311,-0.35951c1.49846,-2.15196 17.39005,-5.40701 25.20199,-6.30031c2.02608,-0.23169 4.30691,-0.34826 6.57435,-0.40163c-0.88648,-0.31574 0.8921,-0.79903 0.8921,-1.19778zM505.83515,331.71546c-0.117,0.41947 -0.22084,0.82044 0.13126,0.57887c0.24069,-0.16508 -0.10677,-0.39683 -0.13126,-0.57887zM497.48257,328.81694c7.37361,-3.17899 17.18033,-6.07761 32.46283,-7.21849c1.43555,-0.51305 4.39682,-0.51307 4.39682,-0.51307h2.5796c5.84105,0 8.93128,-0.46538 15.20535,-0.46538c8.71314,0 10.73288,3.96229 6.17661,5.12267c-2.87519,0.73221 -7.48706,0.97247 -11.33588,1.41259c-11.39269,1.30272 -15.61987,5.04627 -28.10334,6.90894c-13.23092,1.97417 -27.79713,-2.31301 -21.38194,-5.24723z" data-paper-data="{&quot;index&quot;:null}" fill="#000000" stroke="none" stroke-width="0" stroke-linecap="butt"/><path d="M549.87173,322.81459c0.06847,0.22508 0.15184,0.45747 0.15184,0.5943c0,0.39875 -1.75744,0.8893 -0.87094,1.20506c-2.26746,0.05338 -4.56136,0.16515 -6.58752,0.39684c-7.81204,0.89328 -23.7803,4.1318 -25.27871,6.28377c-0.12196,0.17507 1.84208,0.30793 1.46794,0.46316c-1.24483,0.5165 -11.4773,-0.39663 -12.64422,-0.24997c-0.26418,0.03322 -0.39267,0.08521 -0.44453,0.14819c0.05432,-0.19549 0.09452,-0.38719 0.09452,-0.5061c0,-0.41792 -0.0947,-0.87654 0.72256,-1.25035c6.94703,-3.29492 18.70715,-6.49643 38.35865,-6.49643c0,0 2.32956,0.00254 3.85813,-0.35303c0.50979,-0.06624 0.90637,-0.14408 1.17199,-0.23543z" data-paper-data="{&quot;index&quot;:null}" fill="#ffffff" stroke="none" stroke-width="0" stroke-linecap="butt"/><path d="M18.54076,259.42251l6.82266,-166.65293l257.22887,-25.72831l-1.45522,-33.063l332.23908,-47.61749l-13.45785,331.8453l-7.89203,-0.57844l-305.85664,-22.99073l0.15655,-3.82378l-86.66295,-5.33534l0.13123,-9.44242l-179.4223,-17.68693z" data-paper-data="{&quot;index&quot;:null}" fill="#5f677b" stroke="#000000" stroke-width="1" stroke-linecap="round"/><path d="M20.65426,175.13414l586.72813,-21.49161l-6.75916,165.10181l-314.85386,-23.61236l0.01205,-4.86909l-85.70658,-4.07064l-1.26945,-10.16571l-176.88878,-17.35546l-4.55638,1.4991z" data-paper-data="{&quot;index&quot;:null}" fill="#918d84" stroke="#000000" stroke-width="1" stroke-linecap="round"/><path d="M37.16911,181.44967l76.50111,-1.14013l-2.59404,56.16663l-74.7776,-4.97639z" data-paper-data="{&quot;index&quot;:null}" fill="#0b1403" stroke="#000000" stroke-width="1" stroke-linecap="round"/><path d="M99.68704,180.03171l-1.69961,55.90862l-46.71837,-3.09112l2.86666,-52.03074z" data-paper-data="{&quot;index&quot;:null}" fill="#43472c" stroke="#000000" stroke-width="1" stroke-linecap="round"/><path d="M199.89011,285.41029l4.86253,-100.78266l87.54493,1.66899l-4.31084,105.29822z" data-paper-data="{&quot;index&quot;:null}" fill="#dfdfdf" stroke="#000000" stroke-width="1" stroke-linecap="round"/><path d="M211.00918,286.38109l2.7466,-88.67929l78.07668,-0.04444l-3.69867,93.94352z" data-paper-data="{&quot;index&quot;:null}" fill="#5e616a" stroke="#000000" stroke-width="1" stroke-linecap="round"/><path d="M217.87617,201.40596l73.6226,0.80438l-0.32601,15.1597l-73.12119,-2.25698z" data-paper-data="{&quot;index&quot;:null}" fill="#0b1403" stroke="#000000" stroke-width="1" stroke-linecap="round"/><path d="M307.06102,297.05288l5.78281,-116.06533l254.24028,-3.14419l-6.69345,138.30884z" data-paper-data="{&quot;index&quot;:null}" fill="#dfdfdf" stroke="#000000" stroke-width="1" stroke-linecap="round"/><path d="M320.08677,297.32835l4.60452,-101.67708l227.13417,-0.42382l-5.17393,119.18379z" data-paper-data="{&quot;index&quot;:null}" fill="#5e616a" stroke="#000000" stroke-width="1" stroke-linecap="round"/><path d="M328.765,200.49516l217.58702,-1.10928l1.10506,19.78492l-220.46937,-2.24955z" data-paper-data="{&quot;index&quot;:null}" fill="#0b1403" stroke="#000000" stroke-width="1" stroke-linecap="round"/><path d="M164.93172,170.14619l-69.75208,-84.07921l9.8708,-1.62438l78.50499,84.98693z" data-paper-data="{&quot;index&quot;:null}" fill="#eff6ff" stroke="#000000" stroke-width="1" stroke-linecap="round"/><path d="M283.33485,67.14615l-272.35609,27.64455l-5.10314,-7.47762l276.48497,-30.43372z" data-paper-data="{&quot;index&quot;:null}" fill="#eff6ff" stroke="#000000" stroke-width="1" stroke-linecap="round"/><path d="M259.11319,30.14907l390.20732,-67.61536l-6.72863,19.84028l-378.22652,54.70943z" data-paper-data="{&quot;index&quot;:null}" fill="#eff6ff" stroke="#000000" stroke-width="1" stroke-linecap="round"/><path d="M338.50478,48.19071l204.8976,-20.96747l-2.63982,88.12074l-204.50276,10.3381z" data-paper-data="{&quot;index&quot;:null}" fill="#181e2b" stroke="#000000" stroke-width="1" stroke-linecap="round"/><path d="M510.81133,30.40527l-1.79185,87.10704l-146.91479,7.252l1.63974,-79.45172z" data-paper-data="{&quot;index&quot;:null}" fill="#41628a" stroke="#000000" stroke-width="1" stroke-linecap="round"/><path d="M187.9676,274.37885l-45.01252,-3.10177l2.76231,-80.34399l45.32294,-0.19035z" data-paper-data="{&quot;index&quot;:null}" fill="#a09f89" stroke="#000000" stroke-width="1" stroke-linecap="round"/><path d="M184.28604,274.34922l-37.74742,-2.72384l2.6369,-75.20482l38.02093,-0.3585z" data-paper-data="{&quot;index&quot;:null}" fill="#323730" stroke="#000000" stroke-width="1" stroke-linecap="round"/><path d="M149.00286,197.03957l11.95437,-0.54177l-3.09616,75.62795l-11.60606,-0.76975z" data-paper-data="{&quot;index&quot;:null}" fill="#0e1101" stroke="#000000" stroke-width="1" stroke-linecap="round"/><path d="M219.66787,73.87393l68.40393,-8.6168l-1.72616,73.08376l-71.33736,2.65966z" data-paper-data="{&quot;index&quot;:null}" fill="#eff6ff" stroke="#000000" stroke-width="1" stroke-linecap="round"/><path d="M197.27918,120.80438l-22.10713,0.77987l1.88884,-46.13766l22.46129,-1.00606z" data-paper-data="{&quot;index&quot;:null}" fill="#eff6ff" stroke="#000000" stroke-width="1" stroke-linecap="round"/><path d="M225.40253,80.53745l61.86129,-6.01612l-0.85807,56.4184l-64.57519,1.38874z" data-paper-data="{&quot;index&quot;:null}" fill="#41628a" stroke="#000000" stroke-width="1" stroke-linecap="round"/><path d="M191.80636,113.19546l-10.35181,0.70528l1.26572,-30.91698l10.51943,-0.8597z" data-paper-data="{&quot;index&quot;:null}" fill="#41628a" stroke="#000000" stroke-width="1" stroke-linecap="round"/><path d="M22.22646,176.17898l1.87341,-82.92184l71.16688,-8.28535l69.86137,84.5063z" data-paper-data="{&quot;index&quot;:null}" fill="#576264" stroke="#000000" stroke-width="1" stroke-linecap="round"/><path d="M287.13493,61.37256c0.76573,-0.76547 1.55818,-1.52652 2.70945,-1.8858c1.13714,-0.35487 2.93556,0.36749 4.03629,0.57627c2.82507,0.53582 6.25651,0.62138 8.90875,1.81854c1.45564,0.65705 2.639,1.92556 3.95891,2.8556c4.43537,7.07914 2.04442,15.78891 1.27262,23.50043c-1.54882,4.19638 -4.05202,5.40268 -8.27561,6.13062c-3.79143,0.65345 -7.07029,2.35152 -11.08885,1.52658c-1.21798,-0.25003 -2.05855,-1.17236 -3.12567,-1.76071c-4.04606,-2.12421 -7.33616,-5.00422 -9.30007,-9.46112c-0.77097,-1.74963 -0.59282,-4.21437 -0.9856,-6.1087c-0.41834,-2.0176 -1.20253,-3.67997 -0.99901,-5.73542c0.18729,-1.56283 0.94084,-2.23389 1.84747,-3.44601c2.61328,-3.49385 6.6338,-6.71957 11.04131,-8.01027zM285.11539,63.73835c-3.12757,1.49956 -5.90765,3.97659 -7.82122,6.54374c-0.73028,0.97971 -1.46166,1.43342 -1.55565,2.69791c-0.19112,1.84068 0.59204,3.43175 0.97523,5.27888c0.36307,1.75021 0.15888,4.23978 0.8957,5.82314c1.93314,4.15412 4.81949,6.75001 8.63214,8.73115c0.86806,0.4828 1.73883,1.43873 2.7124,1.61143c3.87613,0.68753 6.88243,-0.88318 10.54099,-1.53533c3.52706,-0.6287 5.79894,-1.34597 7.06327,-4.98402c0.74268,-7.24815 2.96,-15.39433 -0.90228,-22.1401c-1.2107,-0.81241 -2.22496,-1.93088 -3.52836,-2.53747c-2.48153,-1.15488 -5.86267,-1.18747 -8.52596,-1.69083c-0.70302,-0.13287 -2.38339,-0.78922 -3.22444,-0.64021c0.20378,0.05381 0.62015,0.23375 0.56277,0.80032c-0.07558,0.74618 -0.82176,0.67061 -0.82176,0.67061l-0.15804,-0.03064c-0.73446,0.06856 -1.46457,0.20547 -2.18483,0.40135c-0.4728,0.4824 -0.94396,0.97198 -1.52314,1.38037c0,0 -0.62162,0.41964 -1.04125,-0.20198c-0.0415,-0.06147 -0.07282,-0.12097 -0.09556,-0.17829z" fill="#000000" stroke="none" stroke-width="0.5" stroke-linecap="butt"/><path d="M285.19031,63.87109c0.41964,0.62162 1.04397,0.20084 1.04397,0.20084c0.57918,-0.4084 1.05623,-0.89981 1.52903,-1.38222c0.72026,-0.19587 1.45741,-0.334 2.19186,-0.40257l0.15853,0.0306c0,0 0.7489,0.07541 0.82448,-0.67077c0.05739,-0.56657 -0.36056,-0.74643 -0.56433,-0.80024c0.84105,-0.14901 2.53111,0.50763 3.23414,0.6405c2.66329,0.50336 6.06749,0.5451 8.54901,1.69998c1.3034,0.60659 2.32631,1.73305 3.53701,2.54546c3.86228,6.74577 1.64847,14.95223 0.9058,22.20038c-1.26433,3.63806 -3.55434,4.37167 -7.08141,5.00038c-3.65857,0.65215 -6.69591,2.2281 -10.57204,1.54057c-0.97356,-0.17268 -1.85332,-1.13088 -2.72137,-1.61367c-3.81264,-1.98114 -6.72799,-4.6037 -8.66114,-8.75781c-0.73683,-1.58336 -0.537,-4.09198 -0.90008,-5.84219c-0.38319,-1.84714 -1.16415,-3.45434 -0.97304,-5.29502c0.09399,-1.26449 0.829,-1.72695 1.55928,-2.70665c1.91358,-2.56715 4.71714,-5.06627 7.84471,-6.56583c0.02274,0.05731 0.0541,0.1168 0.09559,0.17827z" data-paper-data="{&quot;noHover&quot;:false,&quot;origItem&quot;:[&quot;Path&quot;,{&quot;applyMatrix&quot;:true,&quot;segments&quot;:[[[275.33114,87.02867],[0.0284,0.05473],[-2.96054,1.80709]],[[268.20914,94.32724],[1.64515,-2.74691],[-0.62784,1.04831]],[[266.93327,97.16818],[-0.03391,-1.26752],[-0.00466,1.85057]],[[268.43548,102.32192],[-0.56737,-1.79912],[0.53759,1.70471]],[[269.91341,108.02515],[-0.89263,-1.50105],[2.34191,3.93817]],[[279.38144,115.84201],[-3.99287,-1.58686],[0.91229,0.39287]],[[282.24242,117.17191],[-0.98601,-0.0737],[3.92568,0.29344]],[[292.57504,114.58218],[-3.57423,1.0175],[3.44575,-0.98092]],[[299.10013,108.91177],[-0.89129,3.74695],[0.00851,-7.28609]],[[295.9714,86.97529],[4.52239,6.32223],[-1.2864,-0.68627]],[[292.20529,84.80629],[1.35789,0.47216],[-2.58527,-0.89894]],[[283.55234,83.98321],[2.70046,0.23242],[-0.71283,-0.06135]],[[280.27981,83.67118],[0.82175,-0.233],[0.20816,0.033]],[[280.92036,84.41072],[0,-0.56947],[0,0.75]],[280.17036,85.16072],[[280.01004,85.14616],[0,0],[-0.72381,0.14222]],[[277.87677,85.76563],[0.69686,-0.26745],[-0.42178,0.52759]],[[276.50048,87.29245],[0.53508,-0.46468],[0,0]],[[275.44418,87.19643],[0.48014,0.57617],[-0.04748,-0.05698]]],&quot;closed&quot;:true}]}" fill="#ffffff" stroke="none" stroke-width="0.5" stroke-linecap="butt"/><path d="M320.93563,49.82614c-0.10567,-0.42614 0.27454,-0.7364 0.27454,-0.7364c1.83039,-1.44397 4.48028,-1.25725 6.71109,-1.07711c5.44733,0.43984 11.86974,0.77621 15.26616,5.68588c4.99076,8.28118 6.44303,18.01147 6.07349,27.6231c-0.17971,4.64648 -3.45367,8.34105 -7.29997,10.4127c-0.75695,0.4077 -1.18521,1.25257 -1.85264,1.79455c-2.5306,2.05495 -6.04438,3.26093 -9.25923,2.93532c-5.09338,-0.52003 -11.38784,-3.37437 -14.37531,-7.65981c-1.79898,-2.5806 -1.68369,-6.20651 -3.96679,-8.4538c-2.49788,-3.06593 -2.26419,-5.98217 -1.88284,-9.75915c0.22316,-2.21024 0.28722,-4.941 0.87741,-7.07093c0.71139,-2.56735 4.04135,-6.35662 5.88793,-8.20489c0.84951,-1.34983 2.11301,-4.05337 3.54617,-5.48945zM328.74653,49.58175c-0.17171,0.35759 -0.61172,0.40015 -0.61172,0.40015l-0.69028,0.06125c-1.43709,0.50692 -3.53184,-0.22255 -4.79869,0.35305c-1.4934,0.67854 -3.21856,4.4965 -4.0845,5.85572c-1.68163,1.69162 -4.97106,5.25327 -5.60283,7.62524c-0.55394,2.07979 -0.62493,4.70895 -0.84195,6.86471c-0.33377,3.31544 -0.68358,5.92761 1.50838,8.60862c2.30539,2.42222 2.23998,5.94393 4.08629,8.60613c2.7206,3.92286 8.64848,6.54924 13.28899,7.01518c4.74837,0.48094 6.5522,-2.47147 10.21999,-4.54185c3.36892,-1.90169 6.38165,-4.97477 6.54181,-9.16597c0.35792,-9.30942 -0.9994,-18.73504 -5.83892,-26.75833c-2.7483,-4.20783 -8.50744,-4.57048 -13.17656,-4.9239z" fill="#000000" stroke="none" stroke-width="0.5" stroke-linecap="butt"/><path d="M341.95045,54.46379c4.83952,8.02328 6.21397,17.51359 5.85604,26.82302c-0.16016,4.1912 -3.19157,7.28429 -6.56049,9.18596c-3.66778,2.07039 -5.49587,5.02994 -10.24423,4.549c-4.64051,-0.46594 -10.60125,-3.10333 -13.32186,-7.02619c-1.84631,-2.6622 -1.79562,-6.2034 -4.10102,-8.62562c-2.19196,-2.68101 -1.84593,-5.31691 -1.51215,-8.63236c0.21703,-2.15575 0.29284,-4.8025 0.84679,-6.88229c0.63177,-2.37198 3.93665,-5.95213 5.61828,-7.64377c0.86595,-1.35922 2.60414,-5.18403 4.09752,-5.86257c1.26685,-0.5756 3.37175,0.15148 4.80883,-0.35544l0.69181,-0.06142c0,0 0.44143,-0.04268 0.61314,-0.40027c4.66912,0.35341 10.45902,0.72409 13.20732,4.93194z" data-paper-data="{&quot;noHover&quot;:false,&quot;origItem&quot;:[&quot;Path&quot;,{&quot;applyMatrix&quot;:true,&quot;segments&quot;:[[[317.31364,68.54745],[4.68097,-0.11889],[-0.1348,0.37307]],[316.74536,69.00721],[[316.06477,69.13771],[0,0],[-1.37869,0.64915]],[[311.32607,69.97252],[1.2024,-0.70033],[-1.41742,0.82557]],[[307.85244,76.21002],[0.72457,-1.43956],[-1.50261,1.85247]],[[303.04652,84.36105],[0.38953,-2.42357],[-0.34154,2.12502]],[[302.90061,91.27565],[-0.00131,-2.16665],[0.00202,3.3322]],[[305.2688,99.68845],[-2.45097,-2.44648],[2.53774,2.17758]],[[310.20152,107.839],[-2.10518,-2.4626],[3.10206,3.62874]],[[324.12978,113.47935],[-4.66384,0.00405],[4.77266,0]],[[333.84007,107.93076],[-3.44048,2.42945],[3.16014,-2.23149]],[[339.42492,98.15223],[0.263,4.18601],[-0.582,-9.2981]],[[330.91931,72.11849],[5.62339,7.49477],[-3.15833,-3.90947]]],&quot;closed&quot;:true}]}" fill="#ffffff" stroke="none" stroke-width="0.5" stroke-linecap="butt"/><path d="M303.05997,76.88567c0.12522,-1.23631 1.22896,-2.13704 2.46528,-2.01182c1.23631,0.12522 2.13704,1.22896 2.01182,2.46528c-0.12522,1.23631 -1.22896,2.13704 -2.46528,2.01182c-1.23631,-0.12522 -2.13704,-1.22896 -2.01182,-2.46528z" fill="#000000" stroke="none" stroke-width="0.5" stroke-linecap="butt"/><path d="M340.80079,73.03372c0.12522,-1.23631 1.22896,-2.13704 2.46528,-2.01182c1.23631,0.12522 2.13704,1.22896 2.01182,2.46528c-0.12522,1.23631 -1.22896,2.13704 -2.46528,2.01182c-1.23631,-0.12522 -2.13704,-1.22896 -2.01182,-2.46528z" fill="#000000" stroke="none" stroke-width="0.5" stroke-linecap="butt"/><path d="M240.28292,26.00489c0.26296,-0.9648 1.22776,-0.70184 1.22776,-0.70184l1.14252,0.34662c9.86951,5.75051 20.19581,11.0804 30.27345,16.49704c9.85244,5.30801 21.93892,6.07811 31.1274,12.62889c0,0 0.81382,0.58111 0.23272,1.39493c-0.58111,0.81382 -1.39493,0.23272 -1.39493,0.23272c-9.06837,-6.48595 -21.15159,-7.25805 -30.91223,-12.49497c-10.09734,-5.4296 -20.44323,-10.76806 -30.33328,-16.53054l-0.66157,-0.14508c0,0 -0.9648,-0.26296 -0.70184,-1.22776z" fill="#000000" stroke="none" stroke-width="0.5" stroke-linecap="butt"/><path d="M352.00044,8.90464c-0.05908,0.58329 -0.42548,0.78998 -0.71856,0.86116c-5.27037,5.10875 -11.12651,9.83439 -16.58043,14.77686c-8.4106,7.6219 -18.61395,14.55938 -23.33423,25.05761c0,0 -0.41022,0.91198 -1.3222,0.50178c-0.91198,-0.41022 -0.50178,-1.3222 -0.50178,-1.3222c4.85485,-10.78911 15.17482,-17.88904 23.81519,-25.71917c5.52217,-5.00433 11.50374,-9.77746 16.79431,-14.98656l0.95355,-0.26514c0,0 0.99491,0.10077 0.89414,1.09568z" fill="#000000" stroke="none" stroke-width="0.5" stroke-linecap="butt"/><path d="M284.19161,133.17466c-0.75,0 -0.75,-0.75 -0.75,-0.75l0.00579,-0.02741c-0.78922,-6.38469 -1.85742,-12.57163 -2.93744,-18.91352c-0.51756,-4.05104 0.9403,-5.25461 3.64526,-8.03275c4.6234,-4.74848 9.22582,-6.19598 15.6316,-6.53175c8.50931,-0.94784 17.62326,-2.15972 26.02636,-0.21826c7.81153,2.34702 21.24341,-0.3165 24.84555,9.03519c1.55734,5.29162 0.78711,10.94308 0.64152,16.39812c-0.07754,2.90525 0.23743,6.16519 -1.17803,8.77505c0,0 -0.36423,0.65562 -1.01985,0.29139c-0.65562,-0.36423 -0.29139,-1.01985 -0.29139,-1.01985c1.31447,-2.2962 0.92084,-5.50192 0.98977,-8.08565c0.14032,-5.25949 0.93196,-10.77736 -0.56282,-15.87807c-1.62723,-4.23774 -4.43539,-4.57544 -8.49369,-5.53205c-2.20599,-0.51999 -4.48196,-1.17009 -6.708,-1.55805c-2.9922,-0.52149 -5.62048,-0.07683 -8.60792,-0.97627c-8.23185,-1.89733 -17.1843,-0.66038 -25.5192,0.26348c-6.05282,0.31983 -10.30356,1.58756 -14.67909,6.08306c-2.40595,2.47192 -3.69318,3.24231 -3.2365,6.76508c1.07571,6.35034 2.13391,12.55985 2.94228,18.94882l0.00579,0.21346c0,0 0,0.75 -0.75,0.75z" fill="#000000" stroke="none" stroke-width="0.5" stroke-linecap="butt"/><g stroke="none" stroke-width="0.5" stroke-linecap="butt"><path d="M378.91143,132.10019c-1.92846,0.88886 -4.10948,0.74713 -6.13238,0.9931c-11.92777,1.45026 -22.34814,2.53503 -30.04601,-9.02161c-5.17037,-12.86013 -6.07727,-25.19124 -3.53369,-38.54544c0.82221,-4.31671 0.47882,-8.62427 1.74532,-12.84932c1.92096,-6.36202 4.77622,-11.22194 8.98715,-15.94551c2.43261,-2.72877 4.25689,-6.92192 7.70604,-8.90453c5.1171,-2.94139 12.67578,-2.67684 18.29831,-4.51376c4.56,-0.01638 12.66689,2.62273 16.63362,4.98118c2.22239,1.32135 3.03029,4.24004 3.95025,6.46212c1.46278,3.53322 2.96172,8.44095 3.51777,13.18449c0.67439,-2.65135 1.38161,-5.39977 2.53717,-7.7176c1.44201,-2.89242 3.47481,-2.88774 4.49194,-5.70506c2.28739,-3.77392 1.81516,-7.95175 3.40268,-11.8466c0.04048,-0.09934 2.41167,-3.12236 2.5766,-3.94469c0.83075,-4.14163 -0.97988,-8.63847 0.47249,-12.73765c1.44817,-4.0873 5.95541,-7.11375 6.94189,-11.25919c0.51631,-2.16963 0.37304,-4.99902 0.3719,-7.20279c0,-4.01654 -0.17586,-8.97732 -2.28122,-12.58587c-0.73668,-1.26261 -2.78783,-1.71889 -3.8748,-2.24357c-3.66693,-1.77005 -8.33198,-3.48724 -11.53525,-5.97878c-6.88139,-5.35251 -11.41496,-9.56257 -19.8022,-12.32766c-4.80248,-1.58377 -9.44176,-4.78458 -14.13779,-6.15646c-4.55466,-1.33062 -9.8177,-1.29335 -14.47964,-2.55468c-6.29341,-1.70277 -12.70472,-4.70804 -19.33767,-2.69374c-5.42021,2.60715 -12.91552,0.13378 -18.79563,0.10097c-12.50244,-0.06983 -25.02264,0.21552 -37.1511,3.24611c-10.5215,3.16997 -21.91152,5.56429 -31.77658,10.51951c-6.81039,3.42084 -13.01978,7.95695 -19.6478,11.71665c-2.15963,2.0049 -7.06187,4.84875 -7.88604,7.85856c-2.30498,8.41778 -3.33889,17.36026 -5.40757,25.96572c1.33929,-0.24968 2.68862,-0.40133 4.04953,-0.40397c0,0 1.41895,0 1.41895,1.41895c0,1.41895 -1.41895,1.41895 -1.41895,1.41895c-1.63684,-0.00358 -3.18808,0.2577 -4.70716,0.64587c-0.06415,0.24128 -0.42143,1.31312 -1.65818,1.06576c-0.33572,-0.06713 -0.57426,-0.19909 -0.74291,-0.3607c-1.58194,0.51038 -3.15977,1.08038 -4.79604,1.54807c-0.41816,0.11952 -4.80906,0.90234 -5.20588,1.72925c-3.10337,6.46674 -3.15774,14.65605 -3.24844,21.67073c-1.68763,3.44209 -1.80731,7.37743 -4.42395,10.40409c-2.58342,2.98831 -6.42877,4.86264 -7.81172,8.92258c-1.11443,3.27166 1.03259,5.74512 1.38654,8.82315c0.90974,7.91024 0.7115,15.23517 -3.26879,22.31854c-2.15766,2.68525 -4.17703,4.32148 -5.51785,7.57604c-1.51768,3.68378 -0.69165,8.13462 -0.33768,11.89035c0.96672,10.25719 0.60134,20.59345 -0.86941,30.72843c-2.48248,6.50437 0.14954,12.03428 0.01057,18.60229c-0.07973,3.76962 -2.25301,8.88349 -0.92088,12.6414c1.85445,5.23128 3.0635,10.86539 3.99812,16.51171c2.98853,19.11985 18.70042,24.43362 34.60988,30.44875c6.20246,0.95584 6.75175,4.28187 12.04559,6.73058c10.1422,4.69135 22.61478,7.18159 33.38236,4.1049c4.68114,-1.17237 11.45439,-1.20944 16.20886,-0.16391c6.12765,1.34752 12.79083,4.60417 19.28378,3.12907c1.835,-0.41687 2.60044,-4.07128 3.4637,-5.22314c2.47294,-3.29944 5.66484,-3.96923 9.4062,-5.03817c6.67323,-1.9029 14.19993,-4.30934 20.3626,-7.52668c9.56586,-4.9941 16.21659,-12.81135 25.92628,-17.23104c6.34994,-6.4514 9.32256,-16.24503 11.94015,-24.7906c2.55324,-8.33536 5.494,-16.45217 7.82177,-24.98874c2.57453,-9.43062 4.64983,-19.10226 5.85678,-28.80273c-0.46223,0.73328 -1.00731,1.42517 -2.05172,1.90659zM211.64,23.12265l0.09205,-0.45985c2.22812,-8.90391 3.13426,-18.36014 5.67862,-27.05699c1.11366,-3.80657 6.16167,-6.79259 8.92562,-9.32592c6.74197,-3.87846 13.11121,-8.48158 20.06353,-11.96934c10.0356,-5.03457 21.58175,-7.49196 32.28391,-10.7131c12.38566,-3.09794 25.15585,-3.41929 37.92195,-3.34798c5.24008,0.02929 12.99747,2.5788 17.7269,0.10097c7.36451,-2.24499 14.11565,0.68504 21.13159,2.59065c4.7005,1.27666 10.02218,1.21784 14.61784,2.59595c4.74178,1.42189 9.30896,4.564 14.1459,6.15917c4.11337,1.35699 8.67657,2.87045 12.2509,5.21583c4.5639,2.99473 7.5028,7.34481 12.47834,9.75344c3.46688,1.67831 9.85108,3.40347 11.98075,6.7403c2.4914,3.90356 2.73262,9.7002 2.73262,14.12148c-0.00235,4.65554 -0.21986,8.40015 -2.87872,12.36637c-1.69334,2.52597 -4.65935,4.97537 -4.96183,8.24658c-0.33391,3.61056 0.77002,7.71602 -0.02566,11.25578c-0.37459,1.66639 -2.05901,2.76998 -2.70779,4.34988c-1.61113,3.92356 -1.19181,8.17176 -3.48709,12.0334c-1.20514,2.80328 -3.26166,3.03858 -4.47784,5.67629c-1.51883,3.29411 -2.24042,7.20139 -3.27312,10.66298c-1.44332,4.83803 -4.61054,9.01865 -6.55709,13.57303c-1.0556,2.46984 -1.10216,5.34017 -2.18409,7.85007c-1.74372,4.04516 -4.00317,7.69189 -5.55603,11.85438c0.03804,5.82173 -2.57463,11.78509 -3.0262,17.66543c-0.94627,12.32304 -3.4267,24.70158 -6.6906,36.68161c-2.20133,8.0704 -3.8378,15.7553 -7.33466,23.36185c-4.45784,9.69699 -5.60695,20.17284 -13.52808,27.98888c-2.75547,1.35236 -6.77917,1.985 -8.99032,4.23479c-5.02567,5.11356 -10.81426,9.82884 -17.25976,13.19385c-6.32984,3.30468 -14.04302,5.77801 -20.89635,7.73971c-3.10348,0.88675 -5.86517,1.24496 -7.91065,4.00566c-1.57705,2.12847 -1.93887,5.3088 -4.91712,6.24322c-6.63627,2.08213 -14.41238,-1.6614 -20.7203,-3.0748c-4.26803,-0.95631 -10.65938,-0.96401 -14.8531,0.1328c-11.39319,3.25493 -24.58268,0.69556 -35.31486,-4.26865c-5.48931,-2.53908 -5.61217,-5.61109 -11.57609,-6.56167c-17.17308,-6.39193 -33.22869,-12.42495 -36.6885,-32.7341c-0.90574,-5.58199 -2.2919,-11.02001 -3.93252,-16.21337c-1.33598,-4.22891 0.72584,-9.26078 0.81833,-13.44613c0.15039,-6.80639 -2.42263,-12.47993 0.07749,-19.25817c1.37297,-9.77458 1.76026,-19.78546 0.8028,-29.67413c-0.41672,-4.30404 -1.14438,-9.11605 0.53191,-13.32757c1.3697,-3.44128 3.572,-5.29299 5.78669,-8.07648c3.62722,-6.46315 3.54959,-13.1044 2.81836,-20.29107c-0.38387,-3.7725 -2.55479,-6.24993 -1.22217,-10.30773c1.42989,-4.35396 5.52536,-6.57578 8.31102,-9.74313c2.28484,-2.59794 2.28468,-6.22121 3.80169,-9.19192c-0.11449,-6.88533 -0.03519,-16.65626 3.70818,-22.67809c0.72809,-1.17118 2.83293,-1.66588 3.97969,-2.01311c2.73693,-0.82861 5.50035,-1.87657 8.30395,-2.661z" fill="#000000"/><path d="M381.05309,130.223c-1.20697,9.70047 -3.29568,19.39838 -5.87021,28.829c-2.32781,8.53658 -5.28373,16.66969 -7.83695,25.00506c-2.6176,8.54554 -5.60669,18.3505 -11.95664,24.80185c-9.70974,4.41969 -16.38218,12.2454 -25.94804,17.23947c-6.1627,3.21738 -13.70488,5.62633 -20.37812,7.52928c-3.74138,1.06896 -6.94012,1.73899 -9.41307,5.03848c-0.86333,1.15186 -1.63109,4.80625 -3.4661,5.22314c-6.49296,1.47506 -13.16925,-1.78266 -19.29688,-3.13017c-4.75447,-1.04555 -11.53817,-1.01073 -16.21922,0.16168c-10.76757,3.07667 -23.25959,0.57865 -33.40181,-4.11265c-5.29388,-2.4487 -5.85056,-5.77914 -12.053,-6.73495c-15.90944,-6.01514 -31.6427,-11.34814 -34.6312,-30.46799c-0.93457,-5.6464 -2.1496,-11.28854 -4.00401,-16.51976c-1.33212,-3.75791 0.83757,-8.87768 0.91733,-12.64731c0.13896,-6.56801 -2.49819,-12.10867 -0.01566,-18.61297c1.47078,-10.13496 1.83032,-20.49255 0.86369,-30.7498c-0.35396,-3.75567 -1.18089,-8.21574 0.33682,-11.89952c1.34085,-3.25457 3.36015,-4.8968 5.51775,-7.58204c3.98021,-7.08338 4.1806,-14.42689 3.27089,-22.33713c-0.35401,-3.07803 -2.49932,-5.55802 -1.38489,-8.82971c1.38291,-4.05994 5.23122,-5.94287 7.81468,-8.93111c2.61662,-3.02666 2.74024,-6.97058 4.42788,-10.41268c0.09071,-7.01465 0.15373,-15.21763 3.2571,-21.68438c0.39682,-0.82686 4.78992,-1.61252 5.20812,-1.73206c1.63628,-0.46768 3.21631,-1.04027 4.79828,-1.55072c0.16866,0.16157 0.40728,0.29337 0.74306,0.36054c1.23675,0.24733 1.59512,-0.82564 1.65923,-1.0669c1.51908,-0.38813 3.07242,-0.65168 4.70927,-0.6481c0,0 1.42015,-0.00119 1.42015,-1.42015c0,-1.41895 -1.28641,-1.28391 -1.28641,-1.28391c-1.36089,0.00265 -2.84463,0.02108 -4.18386,0.27078c2.06869,-8.60553 3.11471,-17.55857 5.41969,-25.9763c0.82418,-3.00982 5.73285,-5.85797 7.89247,-7.86287c6.62803,-3.75971 12.85167,-8.30299 19.66205,-11.72382c9.86501,-4.95522 21.27735,-7.35543 31.79881,-10.52545c12.12847,-3.03065 24.67382,-3.31609 37.17624,-3.24626c5.88011,0.03282 13.38741,2.5085 18.80761,-0.09863c6.63295,-2.01429 13.056,0.99492 19.3494,2.69769c4.66195,1.26134 9.93313,1.22783 14.48774,2.55841c4.69601,1.37192 9.34345,4.57748 14.1459,6.16131c8.38724,2.76507 12.932,6.98374 19.81338,12.33625c3.20327,2.49155 7.87364,4.21392 11.54059,5.98398c1.08697,0.52468 3.1398,0.98279 3.8765,2.24545c2.10542,3.60864 2.28552,8.57442 2.28552,12.59096c0.00113,2.20378 0.14643,5.03593 -0.36982,7.20554c-0.98645,4.14549 -5.49168,7.17476 -6.93991,11.26206c-1.45237,4.09912 0.36212,8.60235 -0.46862,12.74396c-0.16499,0.82236 -2.53534,3.84679 -2.57582,3.94614c-1.58756,3.89484 -1.11221,8.07897 -3.3996,11.85287c-1.01713,2.81731 -3.04879,2.81524 -4.49081,5.70766c-1.15555,2.31781 -2.03954,5.13345 -2.71396,7.78481c-0.55605,-4.74354 -2.05041,-9.64038 -3.51321,-13.1736c-0.91994,-2.22208 -1.72474,-5.13496 -3.94713,-6.45631c-3.96669,-2.35845 -12.06674,-4.98742 -16.62675,-4.97098c-5.62254,1.83691 -13.17542,1.5792 -18.29248,4.52055c-3.44915,1.98262 -5.13429,6.04756 -7.5669,8.77635c-4.21091,4.72357 -7.05965,9.59166 -8.98052,15.95371c-1.2665,4.22506 -0.91318,8.55015 -1.7354,12.86686c-2.54352,13.35413 -1.63782,25.76341 3.53255,38.62355c7.69793,11.55665 17.94493,10.3963 29.8727,8.94599c2.02289,-0.24593 4.20266,-0.1009 6.13112,-0.98978c1.04442,-0.48142 1.76844,-1.11195 2.23067,-1.84521z" data-paper-data="{&quot;noHover&quot;:false,&quot;origItem&quot;:[&quot;Path&quot;,{&quot;applyMatrix&quot;:true,&quot;segments&quot;:[[[317.41596,224.93512],[0.2015,-0.09288],[-0.37206,0.17149]],[[316.23283,225.12672],[0.39028,-0.04745],[-2.30125,0.2798]],[[310.43598,223.38616],[1.48518,2.22965],[-0.99753,-2.48113]],[[309.75422,215.94952],[-0.49073,2.57644],[0.15863,-0.83283]],[[310.09095,213.47046],[-0.24435,0.81515],[0.37061,-1.22744]],[[311.82486,210.39406],[-0.81242,0.91133],[0.46933,-0.52647]],[[313.3116,208.67609],[-0.66545,0.38251],[0.98725,-0.56749]],[[316.84193,207.80524],[-1.08477,0.3544],[0.87977,-0.00316]],[[320.05109,208.76627],[-0.7653,-0.45502],[0.42877,0.25493]],[[320.81322,210.01301],[-0.17749,-0.42871],[0.28222,0.68167]],[[321.49191,212.55672],[-0.10728,-0.91518],[0.13011,-0.51153]],[[321.98141,211.06775],[-0.22294,0.44718],[0.27821,-0.55804]],[[322.84805,209.96706],[-0.19624,0.54355],[0.44131,-0.72811]],[[323.50454,207.68147],[-0.30629,0.75144],[0.00781,-0.01917]],[[324.00165,206.92041],[-0.03183,0.15866],[0.16028,-0.79905]],[[324.09281,204.46292],[-0.28021,0.79085],[0.2794,-0.78857]],[[325.43212,202.29065],[-0.19032,0.7998],[0.09961,-0.41859]],[[325.50387,200.901],[0.00022,0.42518],[0,-0.77492]],[[325.06375,198.47278],[0.4062,0.69622],[-0.14213,-0.2436]],[[324.31618,198.03992],[0.20971,0.10123],[-0.70747,-0.3415]],[[322.09066,196.88641],[0.61801,0.4807],[-1.32764,-1.03267]],[[318.27018,194.50801],[1.61817,0.53347],[-0.92655,-0.30556]],[[315.54255,193.32023],[0.90601,0.26469],[-0.87874,-0.25672]],[[312.74896,192.82735],[0.89944,0.24335],[-1.2142,-0.32852]],[[309.0181,192.30764],[1.27971,-0.38862],[-1.04573,0.503]],[[305.39182,192.32712],[1.13446,0.00633],[-2.41212,-0.01347]],[[298.22418,192.9534],[2.33997,-0.58471],[-2.02993,0.61159]],[[292.09346,194.98295],[1.90328,-0.95602],[-1.31394,0.65999]],[[288.30277,197.24347],[1.27876,-0.72537],[-0.41666,0.38681]],[[286.7813,198.75964],[0.15901,-0.58069],[-0.4447,1.62406]],[[285.73801,203.76926],[0.39912,-1.66028],[0.25839,-0.04817]],[[286.51929,203.69132],[-0.26256,0.00051],[0,0]],[[286.79305,203.96508],[0,-0.27376],[0,0.27376]],[[286.51929,204.23884],[0,0],[-0.3158,-0.00069]],[[285.61112,204.36345],[0.29308,-0.07488],[-0.01238,0.04655]],[[285.2912,204.56907],[0.23861,0.04772],[-0.06477,-0.01295]],[[285.14787,204.49948],[0.03254,0.03117],[-0.30521,0.09847]],[[284.22256,204.79815],[0.31569,-0.09023],[-0.08068,0.02306]],[[283.21819,205.13178],[0.07656,-0.15953],[-0.59874,1.24764]],[[282.59146,209.31276],[0.0175,-1.35335],[-0.3256,0.66409]],[[281.73794,211.32003],[0.50483,-0.58394],[-0.49843,0.57654]],[[280.23081,213.04149],[0.26681,-0.78329],[-0.21501,0.63121]],[[280.49832,214.74375],[-0.0683,-0.59385],[0.17552,1.52614]],[[279.86767,219.04972],[0.76791,-1.36661],[-0.41628,0.51807]],[[278.8031,220.51137],[0.25869,-0.62791],[-0.29281,0.71072]],[[278.73795,222.8054],[-0.06829,-0.72459],[0.18651,1.97894]],[[278.5702,228.7339],[0.28376,-1.95536],[-0.47895,1.2549]],[[278.57224,232.32288],[0.02681,-1.26718],[-0.01538,0.72728]],[[278.39458,234.76181],[-0.25701,-0.72502],[0.35778,1.00928]],[[279.16594,237.94746],[-0.18031,-1.08937],[0.57658,3.68883]],[[285.8433,243.822],[-3.06944,-1.16051],[1.19665,0.18441]],[[288.16728,245.12054],[-1.02136,-0.47243],[1.95676,0.90511]],[[294.60781,245.91251],[-2.07741,0.59359],[0.90314,-0.22619]],[[297.73503,245.88088],[-0.91729,-0.20172],[1.18222,0.25998]],[[301.45549,246.48458],[-1.2527,0.28459],[0.35403,-0.08043]],[[302.12375,245.47687],[-0.16656,0.22223],[0.47711,-0.63657]],[[303.93851,244.50485],[-0.72183,0.20624],[1.28748,-0.36713]],[[307.86712,243.0527],[-1.18898,0.62074],[1.84556,-0.96352]],[[312.86913,239.72828],[-1.87332,0.8527],[1.22511,-1.24468]],[[315.17277,234.94538],[-0.50502,1.64871],[0.4926,-1.60816]],[[316.68185,230.12425],[-0.44911,1.64698],[0.49671,-1.81947]],[[317.8118,224.56728],[-0.23286,1.87153],[-0.08918,0.14147]]],&quot;closed&quot;:true}]}" fill="#ffdf4d"/></g></g></g></svg>