<svg version="1.1" xmlns="http://www.w3.org/2000/svg" xmlns:xlink="http://www.w3.org/1999/xlink" width="232.15941" height="421.22336" viewBox="0,0,232.15941,421.22336"><g transform="translate(-184.17978,55.44952)"><g data-paper-data="{&quot;isPaintingLayer&quot;:true}" fill-rule="nonzero" stroke-linecap="butt" stroke-linejoin="miter" stroke-miterlimit="10" stroke-dasharray="" stroke-dashoffset="0" style="mix-blend-mode: normal"><path d="M378.45588,189.21207c0,-1.51878 1.23122,-2.75 2.75,-2.75c1.51878,0 2.75,1.23122 2.75,2.75c0,1.51878 -1.23122,2.75 -2.75,2.75c-1.51878,0 -2.75,-1.23122 -2.75,-2.75z" fill="#000000" stroke="none" stroke-width="0.5"/><path d="M384.952,197.65704c0,-1.51878 1.23122,-2.75 2.75,-2.75c1.51878,0 2.75,1.23122 2.75,2.75c0,1.51878 -1.23122,2.75 -2.75,2.75c-1.51878,0 -2.75,-1.23122 -2.75,-2.75z" fill="#000000" stroke="none" stroke-width="0.5"/><path d="M399.24352,200.90513c0,-1.51878 1.23122,-2.75 2.75,-2.75c1.51878,0 2.75,1.23122 2.75,2.75c0,1.51878 -1.23122,2.75 -2.75,2.75c-1.51878,0 -2.75,-1.23122 -2.75,-2.75z" fill="#000000" stroke="none" stroke-width="0.5"/><path d="M407.68853,215.19665c0,-1.51878 1.23122,-2.75 2.75,-2.75c1.51878,0 2.75,1.23122 2.75,2.75c0,1.51878 -1.23122,2.75 -2.75,2.75c-1.51878,0 -2.75,-1.23122 -2.75,-2.75z" fill="#000000" stroke="none" stroke-width="0.5"/><path d="M397.94431,230.13778c0,-1.51878 1.23122,-2.75 2.75,-2.75c1.51878,0 2.75,1.23122 2.75,2.75c0,1.51878 -1.23122,2.75 -2.75,2.75c-1.51878,0 -2.75,-1.23122 -2.75,-2.75z" fill="#000000" stroke="none" stroke-width="0.5"/><path d="M386.90085,241.1812c0,-1.51878 1.23122,-2.75 2.75,-2.75c1.51878,0 2.75,1.23122 2.75,2.75c0,0.76158 -0.30958,1.45086 -0.80977,1.94885c0.50019,0.49799 0.80977,1.18727 0.80977,1.94885c0,1.51878 -1.23122,2.75 -2.75,2.75c-1.51878,0 -2.75,-1.23122 -2.75,-2.75c0,-0.76158 0.30958,-1.45086 0.80977,-1.94885c-0.50019,-0.49799 -0.80977,-1.18727 -0.80977,-1.94885z" fill="#000000" stroke="none" stroke-width="0.5"/><path d="M373.90858,247.02775c0,-1.51878 1.23122,-2.75 2.75,-2.75c1.51878,0 2.75,1.23122 2.75,2.75c0,1.51878 -1.23122,2.75 -2.75,2.75c-1.51878,0 -2.75,-1.23122 -2.75,-2.75z" fill="#000000" stroke="none" stroke-width="0.5"/><path d="M357.66821,266.51618c0,-1.51878 1.23122,-2.75 2.75,-2.75c1.51878,0 2.75,1.23122 2.75,2.75c0,1.51878 -1.23122,2.75 -2.75,2.75c-1.51878,0 -2.75,-1.23122 -2.75,-2.75z" fill="#000000" stroke="none" stroke-width="0.5"/><path d="M370.66048,283.40615c0,-1.51878 1.23122,-2.75 2.75,-2.75c1.51878,0 2.75,1.23122 2.75,2.75c0,1.51878 -1.23122,2.75 -2.75,2.75c-1.51878,0 -2.75,-1.23122 -2.75,-2.75z" fill="#000000" stroke="none" stroke-width="0.5"/><path d="M378.45588,268.46507c0,-1.51878 1.23122,-2.75 2.75,-2.75c1.51878,0 2.75,1.23122 2.75,2.75c0,1.51878 -1.23122,2.75 -2.75,2.75c-1.51878,0 -2.75,-1.23122 -2.75,-2.75z" fill="#000000" stroke="none" stroke-width="0.5"/><path d="M377.80628,256.77197c0,-1.51878 1.23122,-2.75 2.75,-2.75c1.51878,0 2.75,1.23122 2.75,2.75c0,1.51878 -1.23122,2.75 -2.75,2.75c-1.51878,0 -2.75,-1.23122 -2.75,-2.75z" fill="#000000" stroke="none" stroke-width="0.5"/><path d="M373.90858,227.53932c0,-1.51878 1.23122,-2.75 2.75,-2.75c1.51878,0 2.75,1.23122 2.75,2.75c0,1.51878 -1.23122,2.75 -2.75,2.75c-1.51878,0 -2.75,-1.23122 -2.75,-2.75z" fill="#000000" stroke="none" stroke-width="0.5"/><path d="M355.71936,251.57506c0,-1.51878 1.23122,-2.75 2.75,-2.75c1.51878,0 2.75,1.23122 2.75,2.75c0,1.51878 -1.23122,2.75 -2.75,2.75c-1.51878,0 -2.75,-1.23122 -2.75,-2.75z" fill="#000000" stroke="none" stroke-width="0.5"/><path d="M345.32558,271.71313c0,-1.51878 1.23122,-2.75 2.75,-2.75c1.51878,0 2.75,1.23122 2.75,2.75c0,1.51878 -1.23122,2.75 -2.75,2.75c-1.51878,0 -2.75,-1.23122 -2.75,-2.75z" fill="#000000" stroke="none" stroke-width="0.5"/><path d="M366.76282,252.87426c0,-1.51878 1.23122,-2.75 2.75,-2.75c1.51878,0 2.75,1.23122 2.75,2.75c0,1.51878 -1.23122,2.75 -2.75,2.75c-1.51878,0 -2.75,-1.23122 -2.75,-2.75z" fill="#000000" stroke="none" stroke-width="0.5"/><path d="M384.30243,219.09432c0,-1.51878 1.23122,-2.75 2.75,-2.75c1.51878,0 2.75,1.23122 2.75,2.75c0,1.51878 -1.23122,2.75 -2.75,2.75c-1.51878,0 -2.75,-1.23122 -2.75,-2.75z" fill="#000000" stroke="none" stroke-width="0.5"/><path d="M381.05438,207.40125c0,-1.51878 1.23122,-2.75 2.75,-2.75c1.51878,0 2.75,1.23122 2.75,2.75c0,1.51878 -1.23122,2.75 -2.75,2.75c-1.51878,0 -2.75,-1.23122 -2.75,-2.75z" fill="#000000" stroke="none" stroke-width="0.5"/><path d="M355.71936,226.24011c0,-1.51878 1.23122,-2.75 2.75,-2.75c1.51878,0 2.75,1.23122 2.75,2.75c0,1.51878 -1.23122,2.75 -2.75,2.75c-1.51878,0 -2.75,-1.23122 -2.75,-2.75z" fill="#000000" stroke="none" stroke-width="0.5"/><path d="M353.1209,244.4293c0,-1.51878 1.23122,-2.75 2.75,-2.75c1.51878,0 2.75,1.23122 2.75,2.75c0,1.51878 -1.23122,2.75 -2.75,2.75c-1.51878,0 -2.75,-1.23122 -2.75,-2.75z" fill="#000000" stroke="none" stroke-width="0.5"/><path d="M336.88053,263.26808c0,-1.51878 1.23122,-2.75 2.75,-2.75c1.51878,0 2.75,1.23122 2.75,2.75c0,1.51878 -1.23122,2.75 -2.75,2.75c-1.51878,0 -2.75,-1.23122 -2.75,-2.75z" fill="#000000" stroke="none" stroke-width="0.5"/><path d="M331.68362,258.72085c0,-1.51878 1.23122,-2.75 2.75,-2.75c1.51878,0 2.75,1.23122 2.75,2.75c0,1.51878 -1.23122,2.75 -2.75,2.75c-1.51878,0 -2.75,-1.23122 -2.75,-2.75z" fill="#000000" stroke="none" stroke-width="0.5"/><path d="M345.97514,240.5316c0,-1.51878 1.23122,-2.75 2.75,-2.75c1.51878,0 2.75,1.23122 2.75,2.75c0,1.51878 -1.23122,2.75 -2.75,2.75c-1.51878,0 -2.75,-1.23122 -2.75,-2.75z" fill="#000000" stroke="none" stroke-width="0.5"/><path d="M347.27439,231.43699c0,-1.51878 1.23122,-2.75 2.75,-2.75c1.51878,0 2.75,1.23122 2.75,2.75c0,1.51878 -1.23122,2.75 -2.75,2.75c-1.51878,0 -2.75,-1.23122 -2.75,-2.75z" fill="#000000" stroke="none" stroke-width="0.5"/><path d="M368.21357,209.8482c1.51878,0 2.75,1.23122 2.75,2.75c0,1.51878 -1.23122,2.75 -2.75,2.75c-0.29141,0 -0.57223,-0.04533 -0.83579,-0.12931c-0.4674,0.8514 -1.37244,1.42852 -2.41226,1.42852c-1.51878,0 -2.75,-1.23122 -2.75,-2.75c0,-1.51878 1.23122,-2.75 2.75,-2.75c0.29141,0 0.57223,0.04533 0.83579,0.12931c0.4674,-0.8514 1.37244,-1.42852 2.41226,-1.42852z" fill="#000000" stroke="none" stroke-width="0.5"/><path d="M375.20779,212.5982c0,-1.51878 1.23122,-2.75 2.75,-2.75c1.51878,0 2.75,1.23122 2.75,2.75c0,1.51878 -1.23122,2.75 -2.75,2.75c-1.51878,0 -2.75,-1.23122 -2.75,-2.75z" fill="#000000" stroke="none" stroke-width="0.5"/><path d="M372.60933,218.44471c0,-1.51878 1.23122,-2.75 2.75,-2.75c1.51878,0 2.75,1.23122 2.75,2.75c0,1.51878 -1.23122,2.75 -2.75,2.75c-1.51878,0 -2.75,-1.23122 -2.75,-2.75z" fill="#000000" stroke="none" stroke-width="0.5"/><path d="M336.88053,234.03544c0,-1.51878 1.23122,-2.75 2.75,-2.75c1.51878,0 2.75,1.23122 2.75,2.75c0,1.51878 -1.23122,2.75 -2.75,2.75c-1.51878,0 -2.75,-1.23122 -2.75,-2.75z" fill="#000000" stroke="none" stroke-width="0.5"/><path d="M327.78596,241.83084c0,-1.51878 1.23122,-2.75 2.75,-2.75c1.51878,0 2.75,1.23122 2.75,2.75c0,0.01455 -0.00011,0.02906 -0.00034,0.04356c0.4562,-0.88735 1.38084,-1.49435 2.44725,-1.49435c1.51878,0 2.75,1.23122 2.75,2.75c0,1.51878 -1.23122,2.75 -2.75,2.75c-1.51878,0 -2.75,-1.23122 -2.75,-2.75c0,-0.01455 0.00011,-0.02906 0.00034,-0.04356c-0.4562,0.88735 -1.38084,1.49435 -2.44725,1.49435c-1.51878,0 -2.75,-1.23122 -2.75,-2.75z" fill="#000000" stroke="none" stroke-width="0.5"/><path d="M325.83715,251.57506c0,-1.51878 1.23122,-2.75 2.75,-2.75c1.51878,0 2.75,1.23122 2.75,2.75c0,0.9385 -0.47012,1.76719 -1.18771,2.26343c0.33813,0.45689 0.53807,1.02223 0.53807,1.63427c0,1.51878 -1.23122,2.75 -2.75,2.75c-1.51878,0 -2.75,-1.23122 -2.75,-2.75c0,-0.9385 0.47012,-1.76719 1.18771,-2.26343c-0.33813,-0.45689 -0.53807,-1.02223 -0.53807,-1.63427z" fill="#000000" stroke="none" stroke-width="0.5"/><path d="M348.57364,223.64162c0,-1.51878 1.23122,-2.75 2.75,-2.75c1.51878,0 2.75,1.23122 2.75,2.75c0,1.51878 -1.23122,2.75 -2.75,2.75c-1.51878,0 -2.75,-1.23122 -2.75,-2.75z" fill="#000000" stroke="none" stroke-width="0.5"/><path d="M359.61706,219.09432c0,-1.51878 1.23122,-2.75 2.75,-2.75c1.51878,0 2.75,1.23122 2.75,2.75c0,1.51878 -1.23122,2.75 -2.75,2.75c-1.51878,0 -2.75,-1.23122 -2.75,-2.75z" fill="#000000" stroke="none" stroke-width="0.5"/><path d="M332.3333,226.24011c0,-1.51878 1.23122,-2.75 2.75,-2.75c1.51878,0 2.75,1.23122 2.75,2.75c0,1.51878 -1.23122,2.75 -2.75,2.75c-1.51878,0 -2.75,-1.23122 -2.75,-2.75z" fill="#000000" stroke="none" stroke-width="0.5"/><path d="M362.21551,226.88968c0,-1.51878 1.23122,-2.75 2.75,-2.75c1.51878,0 2.75,1.23122 2.75,2.75c0,1.51878 -1.23122,2.75 -2.75,2.75c-1.51878,0 -2.75,-1.23122 -2.75,-2.75z" fill="#000000" stroke="none" stroke-width="0.5"/><path d="M184.17978,365.77384v-421.22335h232.15941v421.22335z" fill="none" stroke="#000000" stroke-width="0"/><path d="M184.17978,365.77384v-421.22335h232.15941v421.22336z" fill="none" stroke="#000000" stroke-width="0"/></g></g></svg>