<svg version="1.1" xmlns="http://www.w3.org/2000/svg" xmlns:xlink="http://www.w3.org/1999/xlink" width="232.15941" height="421.22336" viewBox="0,0,232.15941,421.22336"><g transform="translate(-184.17978,55.44952)"><g data-paper-data="{&quot;isPaintingLayer&quot;:true}" fill-rule="nonzero" stroke-linecap="butt" stroke-linejoin="miter" stroke-miterlimit="10" stroke-dasharray="" stroke-dashoffset="0" style="mix-blend-mode: normal"><path d="M256.32836,197.65704c0,-1.51878 1.23122,-2.75 2.75,-2.75c1.51878,0 2.75,1.23122 2.75,2.75c0,1.51878 -1.23122,2.75 -2.75,2.75c-1.51878,0 -2.75,-1.23122 -2.75,-2.75z" fill="#000000" stroke="none" stroke-width="0.5"/><path d="M256.32836,219.09432c0,-1.51878 1.23122,-2.75 2.75,-2.75c1.51878,0 2.75,1.23122 2.75,2.75c0,1.51878 -1.23122,2.75 -2.75,2.75c-1.51878,0 -2.75,-1.23122 -2.75,-2.75z" fill="#000000" stroke="none" stroke-width="0.5"/><path d="M267.37186,235.33469c0,-1.51878 1.23122,-2.75 2.75,-2.75c1.51878,0 2.75,1.23122 2.75,2.75c0,1.51878 -1.23122,2.75 -2.75,2.75c-1.51878,0 -2.75,-1.23122 -2.75,-2.75z" fill="#000000" stroke="none" stroke-width="0.5"/><path d="M270.61992,252.87426c0,-1.51878 1.23122,-2.75 2.75,-2.75c1.51878,0 2.75,1.23122 2.75,2.75c0,1.51878 -1.23122,2.75 -2.75,2.75c-1.51878,0 -2.75,-1.23122 -2.75,-2.75z" fill="#000000" stroke="none" stroke-width="0.5"/><path d="M287.6614,220.24205c1.51878,0 2.75,1.23122 2.75,2.75c0,1.51878 -1.23122,2.75 -2.75,2.75c-1.27659,0 -2.35002,-0.86985 -2.6599,-2.04919c-0.4925,0.4649 -1.15665,0.7499 -1.88737,0.7499c-1.51878,0 -2.75,-1.23122 -2.75,-2.75c0,-1.51878 1.23122,-2.75 2.75,-2.75c1.27659,0 2.35002,0.86985 2.6599,2.04919c0.4925,-0.4649 1.15665,-0.7499 1.88737,-0.7499z" fill="#000000" stroke="none" stroke-width="0.5"/><path d="M279.71449,209.99978c0,-1.51878 1.23122,-2.75 2.75,-2.75c1.51878,0 2.75,1.23122 2.75,2.75c0,1.51878 -1.23122,2.75 -2.75,2.75c-1.51878,0 -2.75,-1.23122 -2.75,-2.75z" fill="#000000" stroke="none" stroke-width="0.5"/><path d="M288.15946,206.10204c0,-1.51878 1.23122,-2.75 2.75,-2.75c1.51878,0 2.75,1.23122 2.75,2.75c0,1.51878 -1.23122,2.75 -2.75,2.75c-1.51878,0 -2.75,-1.23122 -2.75,-2.75z" fill="#000000" stroke="none" stroke-width="0.5"/><path d="M298.55332,232.73627c0,-1.51878 1.23122,-2.75 2.75,-2.75c1.51878,0 2.75,1.23122 2.75,2.75c0,1.51878 -1.23122,2.75 -2.75,2.75c-1.51878,0 -2.75,-1.23122 -2.75,-2.75z" fill="#000000" stroke="none" stroke-width="0.5"/><path d="M298.55332,246.37811c0,-1.51878 1.23122,-2.75 2.75,-2.75c0.19525,0 0.38575,0.02035 0.56949,0.05904c-0.4478,-0.48919 -0.72103,-1.14084 -0.72103,-1.85631c0,-1.51878 1.23122,-2.75 2.75,-2.75c1.51878,0 2.75,1.23122 2.75,2.75c0,1.51878 -1.23122,2.75 -2.75,2.75c-0.19525,0 -0.38575,-0.02035 -0.56949,-0.05904c0.4478,0.48919 0.72103,1.14084 0.72103,1.85631c0,1.51878 -1.23122,2.75 -2.75,2.75c-1.51878,0 -2.75,-1.23122 -2.75,-2.75z" fill="#000000" stroke="none" stroke-width="0.5"/><path d="M321.93941,216.4959c0,-1.51878 1.23122,-2.75 2.75,-2.75c1.51878,0 2.75,1.23122 2.75,2.75c0,1.51878 -1.23122,2.75 -2.75,2.75c-1.51878,0 -2.75,-1.23122 -2.75,-2.75z" fill="#000000" stroke="none" stroke-width="0.5"/><path d="M311.54559,197.00747c0,-1.51878 1.23122,-2.75 2.75,-2.75c0.4295,0 0.836,0.09846 1.19816,0.27404c0.24587,-1.26664 1.36103,-2.22293 2.69954,-2.22293c1.51878,0 2.75,1.23122 2.75,2.75c0,0.76158 -0.30958,1.45086 -0.80977,1.94885c0.50019,0.49799 0.80977,1.18727 0.80977,1.94885c0,1.51878 -1.23122,2.75 -2.75,2.75c-1.33849,0 -2.45364,-0.95626 -2.69953,-2.22286c-0.36217,0.17558 -0.76867,0.27405 -1.19817,0.27405c-1.51878,0 -2.75,-1.23122 -2.75,-2.75z" fill="#000000" stroke="none" stroke-width="0.5"/><path d="M328.58715,196.20628c1.51878,0 2.75,1.23122 2.75,2.75c0,1.51878 -1.23122,2.75 -2.75,2.75c-0.20525,0 -0.40525,-0.02249 -0.59766,-0.06513c-0.32182,1.1614 -1.38654,2.01398 -2.6504,2.01398c-1.51878,0 -2.75,-1.23122 -2.75,-2.75c0,-1.51878 1.23122,-2.75 2.75,-2.75c0.20525,0 0.40525,0.02249 0.59766,0.06513c0.32182,-1.1614 1.38654,-2.01398 2.6504,-2.01398z" fill="#000000" stroke="none" stroke-width="0.5"/><path d="M339.47903,226.24011c0,-1.51878 1.23122,-2.75 2.75,-2.75c1.51878,0 2.75,1.23122 2.75,2.75c0,1.51878 -1.23122,2.75 -2.75,2.75c-1.51878,0 -2.75,-1.23122 -2.75,-2.75z" fill="#000000" stroke="none" stroke-width="0.5"/><path d="M337.53018,237.93314c0,-1.51878 1.23122,-2.75 2.75,-2.75c1.51878,0 2.75,1.23122 2.75,2.75c0,1.51878 -1.23122,2.75 -2.75,2.75c-1.51878,0 -2.75,-1.23122 -2.75,-2.75z" fill="#000000" stroke="none" stroke-width="0.5"/><path d="M345.32558,219.09432c0,-1.51878 1.23122,-2.75 2.75,-2.75c1.51878,0 2.75,1.23122 2.75,2.75c0,1.51878 -1.23122,2.75 -2.75,2.75c-1.51878,0 -2.75,-1.23122 -2.75,-2.75z" fill="#000000" stroke="none" stroke-width="0.5"/><path d="M345.32558,191.81052c0,-1.51878 1.23122,-2.75 2.75,-2.75c1.51878,0 2.75,1.23122 2.75,2.75c0,1.51878 -1.23122,2.75 -2.75,2.75c-1.51878,0 -2.75,-1.23122 -2.75,-2.75z" fill="#000000" stroke="none" stroke-width="0.5"/><path d="M340.77823,204.8028c0,-1.51878 1.23122,-2.75 2.75,-2.75c1.51878,0 2.75,1.23122 2.75,2.75c0,1.51878 -1.23122,2.75 -2.75,2.75c-1.51878,0 -2.75,-1.23122 -2.75,-2.75z" fill="#000000" stroke="none" stroke-width="0.5"/><path d="M331.03402,216.4959c0,-1.51878 1.23122,-2.75 2.75,-2.75c1.51878,0 2.75,1.23122 2.75,2.75c0,1.51878 -1.23122,2.75 -2.75,2.75c-1.51878,0 -2.75,-1.23122 -2.75,-2.75z" fill="#000000" stroke="none" stroke-width="0.5"/><path d="M318.04175,227.53932c0,-1.51878 1.23122,-2.75 2.75,-2.75c1.51878,0 2.75,1.23122 2.75,2.75c0,1.51878 -1.23122,2.75 -2.75,2.75c-1.51878,0 -2.75,-1.23122 -2.75,-2.75z" fill="#000000" stroke="none" stroke-width="0.5"/><path d="M305.69908,215.19665c0,-1.51878 1.23122,-2.75 2.75,-2.75c1.51878,0 2.75,1.23122 2.75,2.75c0,1.51878 -1.23122,2.75 -2.75,2.75c-1.51878,0 -2.75,-1.23122 -2.75,-2.75z" fill="#000000" stroke="none" stroke-width="0.5"/><path d="M301.80138,198.95628c0,-1.51878 1.23122,-2.75 2.75,-2.75c1.51878,0 2.75,1.23122 2.75,2.75c0,0.93848 -0.4701,1.76716 -1.18767,2.2634c0.33812,0.45689 0.53806,1.02222 0.53806,1.63426c0,1.51878 -1.23122,2.75 -2.75,2.75c-0.4295,0 -0.836,-0.09846 -1.19816,-0.27404c-0.24588,1.26662 -1.36103,2.22289 -2.69954,2.22289c-1.51878,0 -2.75,-1.23122 -2.75,-2.75c0,-1.51878 1.23122,-2.75 2.75,-2.75c0.4295,0 0.836,0.09846 1.19816,0.27404c0.13928,-0.71748 0.55748,-1.33538 1.1372,-1.7363c-0.33812,-0.45689 -0.53806,-1.02222 -0.53806,-1.63426z" fill="#000000" stroke="none" stroke-width="0.5"/><path d="M280.36414,243.77965c0,-1.51878 1.23122,-2.75 2.75,-2.75c1.51878,0 2.75,1.23122 2.75,2.75c0,1.51878 -1.23122,2.75 -2.75,2.75c-1.51878,0 -2.75,-1.23122 -2.75,-2.75z" fill="#000000" stroke="none" stroke-width="0.5"/><path d="M280.36414,228.18893c0,-1.51878 1.23122,-2.75 2.75,-2.75c1.51878,0 2.75,1.23122 2.75,2.75c0,1.51878 -1.23122,2.75 -2.75,2.75c-1.51878,0 -2.75,-1.23122 -2.75,-2.75z" fill="#000000" stroke="none" stroke-width="0.5"/><path d="M283.61223,186.61361c0,-0.67937 0.24635,-1.30121 0.6546,-1.78104c-0.00334,-0.05551 -0.00504,-0.11146 -0.00504,-0.16781c0,-1.51878 1.23122,-2.75 2.75,-2.75c1.51878,0 2.75,1.23122 2.75,2.75c0,0.67937 -0.24635,1.30121 -0.6546,1.78104c0.00334,0.05551 0.00504,0.11146 0.00504,0.16781c0,1.51878 -1.23122,2.75 -2.75,2.75c-1.51878,0 -2.75,-1.23122 -2.75,-2.75z" fill="#000000" stroke="none" stroke-width="0.5"/><path d="M319.34099,234.68508c0,-1.51878 1.23122,-2.75 2.75,-2.75c1.51878,0 2.75,1.23122 2.75,2.75c0,1.51878 -1.23122,2.75 -2.75,2.75c-1.51878,0 -2.75,-1.23122 -2.75,-2.75z" fill="#000000" stroke="none" stroke-width="0.5"/><path d="M316.7425,245.72854c0,-1.51878 1.23122,-2.75 2.75,-2.75c1.51878,0 2.75,1.23122 2.75,2.75c0,1.51878 -1.23122,2.75 -2.75,2.75c-1.51878,0 -2.75,-1.23122 -2.75,-2.75z" fill="#000000" stroke="none" stroke-width="0.5"/><path d="M331.68362,188.56246c0,-1.51878 1.23122,-2.75 2.75,-2.75c1.51878,0 2.75,1.23122 2.75,2.75c0,1.51878 -1.23122,2.75 -2.75,2.75c-1.51878,0 -2.75,-1.23122 -2.75,-2.75z" fill="#000000" stroke="none" stroke-width="0.5"/><path d="M344.02629,213.24784c0,-1.51878 1.23122,-2.75 2.75,-2.75c1.51878,0 2.75,1.23122 2.75,2.75c0,1.51878 -1.23122,2.75 -2.75,2.75c-1.51878,0 -2.75,-1.23122 -2.75,-2.75z" fill="#000000" stroke="none" stroke-width="0.5"/><path d="M184.17978,365.77384v-421.22335h232.15941v421.22336z" fill="none" stroke="#000000" stroke-width="0"/></g></g></svg>