<svg version="1.1" xmlns="http://www.w3.org/2000/svg" xmlns:xlink="http://www.w3.org/1999/xlink" width="239.22548" height="215.49032" viewBox="0,0,239.22548,215.49032"><g transform="translate(-200.73321,-71.83011)"><g data-paper-data="{&quot;isPaintingLayer&quot;:true}" fill-rule="nonzero" stroke-linecap="butt" stroke-linejoin="miter" stroke-miterlimit="10" stroke-dasharray="" stroke-dashoffset="0" style="mix-blend-mode: normal"><path d="M230.54061,156.27025c0.11381,0.05691 0.21314,0.11864 0.29963,0.18397c2.86123,-2.62736 6.37761,-4.8666 9.55677,-6.14697c1.43797,-0.57913 3.05686,-0.59556 4.50963,-1.1365c6.01579,-2.23999 12.27983,-5.40046 18.67332,-6.33466c6.22293,-1.56484 11.84323,-4.06496 17.38533,-7.0884c2.58738,-1.41152 4.75177,-3.67004 7.38771,-4.98911c7.03258,-3.51922 16.57422,-4.18755 24.35188,-4.20975c19.66271,-0.00365 37.48906,8.61573 56.78345,11.12058c4.5118,1.61277 9.11971,3.23806 13.75893,4.44963c3.69688,0.96547 8.09471,0.78372 11.48997,2.76024c0.57002,0.33183 0.78898,1.12217 1.37696,1.42103c1.54866,0.78717 3.45898,0.64536 5.01528,1.41731c4.47254,2.21847 7.89911,5.93227 10.83641,9.85029c0.96455,1.2866 2.32808,2.34291 2.92522,3.83593c0.12125,0.30315 0.97264,4.06918 1.18465,4.99826c2.57365,6.42101 3.32252,16.14637 8.49846,21.19125c2.68532,2.61732 5.91902,4.51223 7.70837,8.22875c2.73772,5.68632 1.34719,11.87179 2.55469,17.81498c0.12344,3.59722 0.444,7.36286 0.15123,10.95607c-0.79912,9.80802 -5.02535,20.65944 -9.75163,29.16213c-2.57993,4.64136 -3.99321,9.0711 -8.76204,11.97121c-1.70048,0.85042 -3.2321,2.07184 -5.03082,2.68786c-1.46936,0.50322 -3.23444,-0.0587 -4.6129,0.65692c-0.55433,0.28778 -0.78389,0.99189 -1.2875,1.36131c-1.64798,1.20886 -3.41085,0.77973 -5.04764,1.62096c-5.13799,2.64069 -10.42325,6.01702 -16.18061,7.4831c-5.33949,1.35967 -11.29154,1.87229 -16.74549,2.69127c-4.69988,0.70497 -9.37281,1.9831 -14.08862,2.51958c-3.95289,0.44969 -7.94363,0.03122 -11.88169,0.37534c-8.36622,0.73108 -17.65436,1.66991 -25.99107,-0.02103c-2.75331,-0.55846 -5.82526,-2.10867 -8.53592,-2.98509c-7.62769,-1.79137 -15.45259,-3.70294 -23.11933,-5.13804c-1.99248,-0.37296 -4.55023,0.13314 -6.53926,0.01701c-3.06847,-0.17915 -8.11627,-1.01928 -10.9061,-2.38119c-0.63312,-0.30907 -0.8859,-1.14342 -1.49961,-1.48944c-0.47897,-0.27005 -1.1056,-0.09797 -1.62676,-0.27325c-2.30506,-0.77527 -4.45707,-2.6227 -6.55355,-3.81993c-6.21236,-3.73472 -12.68497,-8.41736 -16.74748,-14.5011c-2.0947,-3.13688 -4.16055,-7.81021 -5.34716,-11.43581c-0.44283,-1.35303 -0.10049,-2.86293 -0.42011,-4.25025c-1.084,-4.70521 -3.47729,-10.18346 -5.6485,-14.50918c-4.12738,-8.25576 -6.5928,-16.09895 -8.38399,-24.98584c-0.34052,-1.68947 -0.71647,-3.47076 -0.36302,-5.15756c0.65839,-3.14203 2.39221,-4.96907 3.82042,-7.71467c1.9232,-3.69717 2.80411,-8.41257 3.90509,-12.42927c-0.0021,-3.63112 0.95231,-7.0929 1.00776,-10.61927c-0.34702,0.18155 -0.82173,0.25112 -1.40067,-0.09624c-1.28624,-0.77174 -0.5145,-2.05798 -0.5145,-2.05798c0.42068,-0.68327 0.91018,-1.36323 1.45533,-2.03229c-0.04063,-0.15732 -0.08435,-0.31493 -0.1313,-0.47286l0.46832,-1.82852c0,0 0.67082,-1.34164 2.01246,-0.67082zM231.39658,160.06358c0.71283,4.87655 -0.77555,9.39976 -0.7784,14.3714c-1.12103,4.36269 -2.15476,9.43103 -4.22499,13.43917c-1.51135,2.92611 -4.28657,5.71992 -3.91411,9.3958c0.05239,0.51706 0.61785,0.87347 0.71963,1.38311c1.73274,8.67643 4.12187,16.28703 8.14928,24.34087c2.27106,4.55841 4.75738,10.28622 5.90396,15.24763c0.29218,1.26432 -0.10053,2.65188 0.31899,3.87983c1.15657,3.38538 3.0119,7.78648 5.00022,10.73714c3.83602,5.69266 9.93565,10.08968 15.77284,13.58463c1.87154,1.07011 3.94701,2.88938 6.01112,3.57106c0.67119,0.22166 1.44892,0.12605 2.06873,0.46585c0.60428,0.33129 0.844,1.15167 1.45678,1.46696c0.55611,0.28613 1.25012,0.10506 1.86079,0.24002c2.72233,0.60164 5.01382,1.66185 7.84065,1.81338c2.14842,0.11516 4.71465,-0.36206 6.85172,0.01701c2.21892,0.39359 4.53856,1.34427 6.7431,1.86546c5.51209,1.30315 11.17209,2.04066 16.70076,3.34388c2.64353,0.85225 5.64083,2.39246 8.32602,2.93468c8.06248,1.62806 17.05183,0.66598 25.14404,-0.02801c3.90326,-0.33474 7.8541,0.07919 11.76945,-0.36376c4.68693,-0.53024 9.33618,-1.8071 14.00746,-2.50853c5.362,-0.80427 11.20137,-1.30437 16.45271,-2.6323c5.60437,-1.4172 10.6124,-4.83078 15.6515,-7.29455c1.43929,-0.70371 3.22175,-0.30661 4.56064,-1.33543c0.61018,-0.46887 0.97693,-1.2584 1.66889,-1.59508c1.98042,-0.9636 3.02844,-0.14533 4.99538,-0.82127c1.64204,-0.56429 3.0244,-1.70947 4.57746,-2.48583c4.18395,-2.46679 5.34486,-6.76719 7.58319,-10.79832c3.5481,-6.38996 5.80954,-12.98028 7.58551,-20.07776c0.66174,-2.64458 1.58438,-5.0827 1.79435,-7.81318c0.26324,-3.42329 -0.03092,-6.99426 -0.13677,-10.42258c-1.13929,-5.6508 0.23807,-11.59236 -2.331,-16.97784c-2.07306,-4.34571 -6.61521,-6.53638 -9.1171,-10.48997c-3.72301,-5.88325 -4.65818,-12.85964 -7.19639,-19.21789c-0.35742,-1.53366 -0.47884,-3.13586 -1.03264,-4.61002c-0.49572,-1.31955 -1.7712,-2.19415 -2.61568,-3.32279c-2.66709,-3.56457 -5.73503,-6.92543 -9.78595,-8.96998c-1.5581,-0.7864 -3.47208,-0.65637 -5.03729,-1.42853c-0.65847,-0.32484 -0.95174,-1.15444 -1.57943,-1.53536c-2.983,-1.81026 -7.38896,-1.55816 -10.68298,-2.41345c-4.61556,-1.19842 -9.21504,-2.8026 -13.69264,-4.43287c-19.07686,-2.35924 -36.65567,-11.04089 -56.077,-11.0373c-4.64465,0.01295 -8.94047,0.54763 -13.43395,1.44702c-0.95629,0.19141 -4.58899,0.47345 -5.64531,0.83009c-4.25164,1.43544 -7.29359,4.40916 -11.1892,6.53374c-5.8067,3.16685 -11.75407,5.79654 -18.28427,7.42046c-6.25641,0.87175 -12.39407,4.05717 -18.2816,6.23001c-1.40457,0.51837 -2.96923,0.52533 -4.35955,1.0808c-3.29204,1.31524 -7.36279,4.00148 -10.11894,6.97263z" fill="#000000" stroke="none" stroke-width="0.5"/><path d="M231.35152,160.04189c2.75615,-2.97115 6.82945,-5.66203 10.12149,-6.97727c1.39032,-0.55547 2.95587,-0.56381 4.36044,-1.08218c5.88753,-2.17284 12.0307,-5.36512 18.28711,-6.23687c6.5302,-1.62392 12.48612,-4.26074 18.29282,-7.42759c3.89561,-2.12458 6.94451,-5.10213 11.19615,-6.53757c1.05632,-0.35664 4.69218,-0.63998 5.64847,-0.83139c4.49348,-0.89939 8.7974,-1.43633 13.44205,-1.44928c19.42133,-0.00359 37.03616,8.68491 56.11302,11.04415c4.4776,1.63027 9.08384,3.23957 13.6994,4.43799c3.29402,0.85529 7.7038,0.60703 10.6868,2.41729c0.62769,0.38092 0.92178,1.21146 1.58025,1.5363c1.56521,0.77216 3.48069,0.64398 5.03879,1.43038c4.05092,2.04455 7.1227,5.41117 9.78979,8.97574c0.84448,1.12864 2.121,2.00517 2.61672,3.32472c0.5538,1.47416 0.67627,3.07854 1.03369,4.6122c2.53821,6.35825 3.47676,13.34491 7.19977,19.22816c2.50189,3.95359 7.04493,6.15012 9.11799,10.49583c2.56907,5.38548 1.19178,11.33523 2.33107,16.98603c0.10585,3.42832 0.39941,7.00415 0.13617,10.42744c-0.20997,2.73048 -1.13339,5.17229 -1.79513,7.81687c-1.77597,7.09748 -4.04086,13.69732 -7.58896,20.08728c-2.23833,4.03113 -3.4023,8.33697 -7.58625,10.80376c-1.55306,0.77636 -2.93668,1.92339 -4.57872,2.48768c-1.96694,0.67594 -3.01604,-0.14088 -4.99646,0.82272c-0.69196,0.33668 -1.05943,1.12712 -1.66961,1.59599c-1.33889,1.02882 -3.12266,0.63328 -4.56195,1.33699c-5.0391,2.46377 -10.05349,5.88344 -15.65786,7.30064c-5.25134,1.32793 -11.09799,1.83288 -16.45999,2.63715c-4.67128,0.70143 -9.3283,1.98171 -14.01523,2.51195c-3.91535,0.44295 -7.87326,0.03088 -11.77652,0.36562c-8.09221,0.69399 -17.0979,1.65639 -25.16038,0.02833c-2.68519,-0.54222 -5.68812,-2.08359 -8.33165,-2.93584c-5.52867,-1.30322 -11.19884,-2.04467 -16.71093,-3.34782c-2.20454,-0.52119 -4.52789,-1.474 -6.74681,-1.86759c-2.13707,-0.37907 -4.70615,0.0962 -6.85457,-0.01896c-2.82683,-0.15153 -5.12162,-1.21439 -7.84395,-1.81603c-0.61067,-0.13496 -1.30534,0.04552 -1.86145,-0.24061c-0.61278,-0.31529 -0.85336,-1.13646 -1.45764,-1.46775c-0.61981,-0.3398 -1.39827,-0.2449 -2.06946,-0.46656c-2.06411,-0.68168 -4.14212,-2.50365 -6.01366,-3.57376c-5.83719,-3.49495 -11.94296,-7.90076 -15.77898,-13.59342c-1.98832,-2.95066 -3.84627,-7.3573 -5.00284,-10.74268c-0.41952,-1.22795 -0.0275,-2.61733 -0.31968,-3.88165c-1.14658,-4.96141 -3.63504,-10.69737 -5.9061,-15.25578c-4.02741,-8.05384 -6.41715,-15.67668 -8.14989,-24.35311c-0.10178,-0.50964 -0.66719,-0.86668 -0.71958,-1.38374c-0.37246,-3.67588 2.40339,-6.47438 3.91474,-9.40049c2.07023,-4.00814 3.10566,-9.08315 4.22669,-13.44584c0.00285,-4.97164 1.49368,-9.50091 0.78085,-14.37746z" data-paper-data="{&quot;noHover&quot;:false,&quot;origItem&quot;:[&quot;Path&quot;,{&quot;applyMatrix&quot;:true,&quot;segments&quot;:[[[231.39658,160.06358],[0,0],[0.71283,4.87655]],[[230.61818,174.43498],[0.00285,-4.97164],[-1.12103,4.36269]],[[226.39319,187.87415],[2.07023,-4.00814],[-1.51135,2.92611]],[[222.47908,197.26995],[-0.37246,-3.67588],[0.05239,0.51706]],[[223.19871,198.65306],[-0.10178,-0.50964],[1.73274,8.67643]],[[231.34799,222.99393],[-4.02741,-8.05384],[2.27106,4.55841]],[[237.25195,238.24156],[-1.14658,-4.96141],[0.29218,1.26432]],[[237.57094,242.12139],[-0.41952,-1.22795],[1.15657,3.38538]],[[242.57116,252.85853],[-1.98832,-2.95066],[3.83602,5.69266]],[[258.344,266.44316],[-5.83719,-3.49495],[1.87154,1.07011]],[[264.35512,270.01422],[-2.06411,-0.68168],[0.67119,0.22166]],[[266.42385,270.48007],[-0.61981,-0.3398],[0.60428,0.33129]],[[267.88063,271.94703],[-0.61278,-0.31529],[0.55611,0.28613]],[[269.74142,272.18705],[-0.61067,-0.13496],[2.72233,0.60164]],[[277.58207,274.00043],[-2.82683,-0.15153],[2.14842,0.11516]],[[284.43379,274.01744],[-2.13707,-0.37907],[2.21892,0.39359]],[[291.17689,275.8829],[-2.20454,-0.52119],[5.51209,1.30315]],[[307.87765,279.22678],[-5.52867,-1.30322],[2.64353,0.85225]],[[316.20367,282.16146],[-2.68519,-0.54222],[8.06248,1.62806]],[[341.34771,282.13345],[-8.09221,0.69399],[3.90326,-0.33474]],[[353.11716,281.76969],[-3.91535,0.44295],[4.68693,-0.53024]],[[367.12462,279.26116],[-4.67128,0.70143],[5.362,-0.80427]],[[383.57733,276.62886],[-5.25134,1.32793],[5.60437,-1.4172]],[[399.22883,269.33431],[-5.0391,2.46377],[1.43929,-0.70371]],[[403.78947,267.99888],[-1.33889,1.02882],[0.61018,-0.46887]],[[405.45836,266.4038],[-0.69196,0.33668],[1.98042,-0.9636]],[[410.45374,265.58253],[-1.96694,0.67594],[1.64204,-0.56429]],[[415.0312,263.0967],[-1.55306,0.77636],[4.18395,-2.46679]],[[422.61439,252.29838],[-2.23833,4.03113],[3.5481,-6.38996]],[[430.1999,232.22062],[-1.77597,7.09748],[0.66174,-2.64458]],[[431.99425,224.40744],[-0.20997,2.73048],[0.26324,-3.42329]],[[431.85748,213.98486],[0.10585,3.42832],[-1.13929,-5.6508]],[[429.52648,197.00702],[2.56907,5.38548],[-2.07306,-4.34571]],[[420.40938,186.51705],[2.50189,3.95359],[-3.72301,-5.88325]],[[413.21299,167.29916],[2.53821,6.35825],[-0.35742,-1.53366]],[[412.18035,162.68914],[0.5538,1.47416],[-0.49572,-1.31955]],[[409.56467,159.36635],[0.84448,1.12864],[-2.66709,-3.56457]],[[399.77872,150.39637],[4.05092,2.04455],[-1.5581,-0.7864]],[[394.74143,148.96784],[1.56521,0.77216],[-0.65847,-0.32484]],[[393.162,147.43248],[0.62769,0.38092],[-2.983,-1.81026]],[[382.47902,145.01903],[3.29402,0.85529],[-4.61556,-1.19842]],[[368.78638,140.58616],[4.4776,1.63027],[-19.07686,-2.35924]],[[312.70938,129.54886],[19.42133,-0.00359],[-4.64465,0.01295]],[[299.27543,130.99588],[4.49348,-0.89939],[-0.95629,0.19141]],[[293.63012,131.82597],[1.05632,-0.35664],[-4.25164,1.43544]],[[282.44092,138.35971],[3.89561,-2.12458],[-5.8067,3.16685]],[[264.15665,145.78017],[6.5302,-1.62392],[-6.25641,0.87175]],[[245.87505,152.01018],[5.88753,-2.17284],[-1.40457,0.51837]],[[241.5155,153.09098],[1.39032,-0.55547],[-3.29204,1.31524]],[[231.39656,160.06361],[2.75615,-2.97115],[0,0]]],&quot;closed&quot;:true,&quot;fillColor&quot;:[0,0,0,1],&quot;strokeWidth&quot;:0.5}]}" fill="#fdfff4" stroke="none" stroke-width="0.25"/><path d="M251.07436,183.80602c-0.61248,-1.05584 0.40089,-1.86654 0.40089,-1.86654c3.68855,-2.95084 7.71649,-4.85275 11.64469,-7.44749c5.9228,-3.91224 11.49263,-7.71884 17.84267,-10.8438c2.52234,-1.24128 2.45113,-1.69033 5.09365,-2.3201c2.54719,-0.60705 5.1566,-0.41205 7.74554,-0.41205c4.38373,0.0162 7.4494,-2.33782 11.5853,-2.93702c0.12079,-0.0175 6.06707,-0.02729 6.2989,-0.01822c12.33206,0.48234 24.37145,3.91797 36.60098,5.55081c2.98225,0.24889 5.98914,0.08568 8.96006,0.34968c3.12063,0.27731 6.10254,1.57011 9.16967,1.87014c5.25889,0.51442 12.52259,1.91367 16.11987,6.44043c0.54602,0.6871 0.7038,1.62008 1.2024,2.34233c2.72458,3.94676 6.42797,7.73945 6.49683,12.68658c1.84559,3.50369 1.07607,7.14899 1.51102,10.91375c0.3418,2.95852 0.92009,5.70041 0.74435,8.72585c-0.7606,13.09405 -7.88567,25.67143 -18.69126,32.88375c-1.53042,1.54497 -2.71859,2.87462 -4.52576,4.13788c-4.94654,3.45777 -12.33562,2.10163 -17.9387,1.75992c-2.99744,-0.1828 -6.06234,0.23565 -9.04932,-0.042c-2.98055,-0.27705 -5.94796,-1.00597 -8.91227,-1.35909c-5.60462,-0.66763 -11.27488,-0.57391 -16.91,-1.19994c-7.52475,-1.44588 -14.98672,-3.29394 -22.50057,-4.47041c-5.17479,-0.81024 -10.64515,-0.36501 -15.77537,-1.82713c-3.54206,-1.00949 -7.1323,-2.70133 -10.75985,-3.65229c-2.03875,-0.53446 -4.1433,-1.0029 -5.9952,-2.0092c-11.16979,-7.35019 -18.01781,-20.21606 -19.01471,-33.41019c-0.12359,-1.63571 -2.03829,-4.80792 -1.84031,-6.23792c0.42577,-3.07532 5.37457,-5.12673 7.8817,-5.97023c0.87588,-0.5309 1.74657,-1.07912 2.61479,-1.63749zM273.51008,171.28595c0.21268,0.06518 0.43515,0.19433 0.65762,0.4168c1.06066,1.06066 0,2.12132 0,2.12132l-1.38071,1.32396c-8.44614,2.93526 -15.43227,8.47612 -23.07386,13.02101c-1.13197,0.37365 -6.12274,2.22186 -6.16117,3.63805c-0.02745,1.01166 1.15792,1.70529 1.42292,2.68201c0.76906,2.83455 0.27371,5.66559 1.11006,8.50419c3.03964,10.31655 7.66097,19.42637 16.89952,25.50094c1.58617,0.89718 3.44127,1.21299 5.20411,1.6748c3.66235,0.95942 7.30686,2.66291 10.87662,3.68543c4.95966,1.42064 10.29075,0.96398 15.3142,1.72499c7.52987,1.14071 15.00259,3.02387 22.53391,4.47527c11.52928,1.28123 23.02419,1.87499 34.60366,2.57266c4.82395,0.29065 11.85428,1.771 16.11034,-1.27298c1.5674,-1.12102 2.9151,-2.59353 4.2653,-3.94595c10.11172,-6.78768 16.91488,-18.38345 17.60267,-30.72495c0.16053,-2.88048 -0.41633,-5.45456 -0.73385,-8.27341c-0.41713,-3.70318 0.21806,-7.04689 -1.44537,-10.5201c0.07008,-4.54332 -3.56725,-8.06926 -6.06784,-11.70367c-0.43937,-0.63859 -0.54716,-1.47415 -1.0149,-2.09226c-2.98737,-3.94771 -9.79136,-4.92162 -14.18316,-5.38515c-3.04805,-0.3217 -5.97366,-1.58441 -9.06866,-1.85944c-2.98845,-0.26556 -6.01641,-0.1056 -9.01743,-0.35533c-12.15872,-1.61901 -24.13878,-5.05628 -36.39532,-5.53567c-1.89893,-0.07427 -3.8185,-0.27754 -5.7011,-0.01822c-4.25322,0.58585 -7.50749,2.96092 -12.06585,2.97576c-2.33743,0 -4.73684,-0.21396 -7.03643,0.32704c-2.1471,0.50513 -2.3625,1.05904 -4.51463,2.11449c-3.05519,1.49832 -5.92451,3.16564 -8.74066,4.92839z" fill="#000000" stroke="none" stroke-width="0.5"/><path d="M273.46939,171.25686c2.81615,-1.76275 5.6915,-3.43705 8.74669,-4.93537c2.15213,-1.05545 2.37123,-1.61259 4.51833,-2.11772c2.29959,-0.541 4.70433,-0.33071 7.04176,-0.33071c4.55836,-0.01484 7.82568,-2.39537 12.0789,-2.98122c1.8826,-0.25932 3.80873,-0.05729 5.70766,0.01698c12.25654,0.47939 24.27573,3.92884 36.43445,5.54785c3.00102,0.24973 6.03358,0.09441 9.02203,0.35997c3.095,0.27503 6.02437,1.54264 9.07242,1.86434c4.3918,0.46353 11.2001,1.44527 14.18747,5.39298c0.46774,0.61811 0.57617,1.45521 1.01554,2.0938c2.50059,3.63441 6.14052,7.1691 6.07044,11.71242c1.66343,3.47321 1.02915,6.82421 1.44628,10.52739c0.31752,2.81885 0.89434,5.39862 0.73381,8.2791c-0.68779,12.3415 -7.49872,23.96101 -17.61044,30.74869c-1.3502,1.35242 -2.70041,2.8285 -4.26781,3.94952c-4.25606,3.04398 -11.29337,1.57101 -16.11732,1.28036c-11.57947,-0.69767 -23.10652,-1.27931 -34.6358,-2.56054c-7.53132,-1.4514 -15.03209,-3.34283 -22.56196,-4.48354c-5.02345,-0.76101 -10.3651,-0.3137 -15.32476,-1.73434c-3.56976,-1.02252 -7.21937,-2.73323 -10.88172,-3.69265c-1.76284,-0.46181 -3.61955,-0.78062 -5.20572,-1.6778c-9.23855,-6.07457 -13.86505,-15.20586 -16.90469,-25.52241c-0.83635,-2.8386 -0.34073,-5.67556 -1.10979,-8.51011c-0.265,-0.97672 -1.45016,-1.67205 -1.42271,-2.68371c0.03843,-1.41619 5.02976,-3.26762 6.16173,-3.64127c7.64159,-4.54489 14.63408,-10.10177 23.08022,-13.03703l1.38169,-1.32549c0,0 1.06162,-1.06205 0.00096,-2.12271c-0.22247,-0.22247 -0.3636,-0.29345 -0.57628,-0.35863z" data-paper-data="{&quot;noHover&quot;:false,&quot;origItem&quot;:[&quot;Path&quot;,{&quot;applyMatrix&quot;:true,&quot;segments&quot;:[[[273.51008,171.28595],[0,0],[0.21268,0.06518]],[[274.1677,171.70275],[-0.22247,-0.22247],[1.06066,1.06066]],[274.1677,173.82407],[[272.78699,175.14803],[0,0],[-8.44614,2.93526]],[[249.71313,188.16904],[7.64159,-4.54489],[-1.13197,0.37365]],[[243.55196,191.80709],[0.03843,-1.41619],[-0.02745,1.01166]],[[244.97488,194.4891],[-0.265,-0.97672],[0.76906,2.83455]],[[246.08494,202.99329],[-0.83635,-2.8386],[3.03964,10.31655]],[[262.98446,228.49423],[-9.23855,-6.07457],[1.58617,0.89718]],[[268.18857,230.16903],[-1.76284,-0.46181],[3.66235,0.95942]],[[279.06519,233.85446],[-3.56976,-1.02252],[4.95966,1.42064]],[[294.37939,235.57945],[-5.02345,-0.76101],[7.52987,1.14071]],[[316.9133,240.05472],[-7.53132,-1.4514],[11.52928,1.28123]],[[351.51696,242.62738],[-11.57947,-0.69767],[4.82395,0.29065]],[[367.6273,241.3544],[-4.25606,3.04398],[1.5674,-1.12102]],[[371.8926,237.40845],[-1.3502,1.35242],[10.11172,-6.78768]],[[389.49527,206.6835],[-0.68779,12.3415],[0.16053,-2.88048]],[[388.76142,198.41009],[0.31752,2.81885],[-0.41713,-3.70318]],[[387.31605,187.88999],[1.66343,3.47321],[0.07008,-4.54332]],[[381.24821,176.18632],[2.50059,3.63441],[-0.43937,-0.63859]],[[380.23331,174.09406],[0.46774,0.61811],[-2.98737,-3.94771]],[[366.05015,168.70891],[4.3918,0.46353],[-3.04805,-0.3217]],[[356.98149,166.84947],[3.095,0.27503],[-2.98845,-0.26556]],[[347.96406,166.49414],[3.00102,0.24973],[-12.15872,-1.61901]],[[311.56874,160.95847],[12.25654,0.47939],[-1.89893,-0.07427]],[[305.86764,160.94025],[1.8826,-0.25932],[-4.25322,0.58585]],[[293.80179,163.91601],[4.55836,-0.01484],[-2.33743,0]],[[286.76536,164.24305],[2.29959,-0.541],[-2.1471,0.50513]],[[282.25073,166.35754],[2.15213,-1.05545],[-3.05519,1.49832]],[[273.51007,171.28593],[2.81615,-1.76275],[0,0]]],&quot;closed&quot;:true,&quot;fillColor&quot;:[0,0,0,1],&quot;strokeWidth&quot;:0.5}]}" fill="#fbcba5" stroke="none" stroke-width="0.25"/><path d="M200.73321,287.32042v-215.49032h239.22548v215.49032z" fill="none" stroke="#000000" stroke-width="0"/></g></g></svg>