<svg version="1.1" xmlns="http://www.w3.org/2000/svg" xmlns:xlink="http://www.w3.org/1999/xlink" width="252.16154" height="231.91962" viewBox="0,0,252.16154,231.91962"><g transform="translate(-194.65307,-71.8301)"><g data-paper-data="{&quot;isPaintingLayer&quot;:true}" fill-rule="nonzero" stroke-linecap="butt" stroke-linejoin="miter" stroke-miterlimit="10" stroke-dasharray="" stroke-dashoffset="0" style="mix-blend-mode: normal"><path d="M236.61683,111.33276l-1.5791,0.59864c-2.47376,2.51103 -5.8219,4.45261 -8.69009,6.74889c-0.49199,1.11391 -1.0069,2.22738 -1.80544,3.29937c-1.62986,2.18798 -3.23551,3.68619 -3.63258,6.40728c0,0 -0.2466,1.47959 -1.72619,1.23299c-1.47959,-0.2466 -1.23299,-1.72619 -1.23299,-1.72619c0.13273,-0.72898 0.33378,-1.38979 0.58548,-2.00289c-0.42993,0.28702 -0.84787,0.57012 -1.24125,0.85224c-1.93187,5.33394 -5.64026,9.74504 -8.38256,14.60442c-2.06988,3.66784 -1.67695,7.31405 -2.03497,11.26383c-0.14663,1.61765 -0.92247,3.13055 -1.11656,4.7432c-0.3951,3.28295 0.16536,6.86181 -0.37248,10.11495c-0.26823,1.62242 -0.73071,3.23636 -0.71823,4.88076c0,9.01579 0.65536,18.29143 -0.62968,27.22405c-0.49445,3.43699 -1.6556,5.49763 -2.91391,8.58831c-0.74351,1.82622 -0.57456,3.73895 -0.94465,5.63189c-0.51959,2.65761 -1.77061,5.33716 -2.18301,7.98966c-0.33366,2.14608 0.0163,4.30728 -0.35549,6.49416c0.00413,2.61119 -0.02593,5.07615 0.68223,7.62012c0.61332,2.20327 1.80363,4.12588 2.29681,6.40064c0.77707,3.58424 1.70406,7.11523 2.52939,10.68141c0.4171,1.80226 0.53904,4.30316 1.37795,5.9934c0.66372,1.33727 1.97366,2.24865 2.82831,3.47274c0.83381,1.19423 1.07669,2.77393 2.04641,3.8607c0.37983,0.42569 1.14999,0.351 1.52136,0.78409c0.46462,0.54184 0.40225,1.40588 0.83996,1.96969c0.76949,0.99117 1.93845,1.63587 2.66414,2.65954c3.72654,1.43347 6.92219,4.38683 10.44736,6.11765c1.54334,0.75776 3.42744,0.4838 5.04871,1.05615c0.57312,0.20232 4.33302,2.40009 4.83103,2.59703c3.26761,1.2922 7.21662,1.19921 10.41484,2.61506c1.45882,0.64582 2.56605,1.95179 4.03515,2.57387c3.7694,1.59612 7.69437,2.90466 11.39408,4.77965c8.59013,2.11313 17.35924,5.77533 26.24553,6.5671c9.47738,0.84444 19.01906,1.23165 28.42348,2.5822c8.73728,-0.0113 17.70401,0.56001 26.27288,-0.72834c2.41022,-0.36238 4.99076,0.37852 7.39098,0c7.89005,-1.24429 15.74042,-2.83456 23.49539,-4.77385c1.20929,-0.29388 2.49084,-0.14837 3.71467,-0.37421c2.34386,-0.43252 4.94914,-2.51913 7.03945,-3.56429c1.90478,-0.95239 4.11281,-1.34463 5.92257,-2.22238c1.14373,-0.55472 1.77953,-1.85012 2.85417,-2.52907c2.78258,-1.75801 5.04223,-3.84497 7.63864,-5.82887c4.331,-3.30928 8.52719,-6.3371 12.44887,-10.2274c3.39493,-3.29223 6.48063,-5.76405 9.00151,-9.71418c0.71199,-1.11566 1.99916,-1.8712 2.4713,-3.10761c3.96504,-10.38337 7.76876,-21.11458 11.39114,-31.96695c1.61952,-7.04713 2.89118,-14.19732 4.11903,-21.30994c0.43116,-2.49761 1.46459,-5.04644 1.7471,-7.5636c0.44351,-3.95171 0.37046,-7.97147 0.74092,-11.92342c0.01191,-0.12703 0.03364,-0.25174 0.06306,-0.37465c-0.0743,-0.25602 -0.0743,-0.45833 -0.0743,-0.45833v-1.10865c0.01074,-5.5616 0.91415,-11.26619 0.3766,-16.85402c-0.37329,-3.88031 -0.91963,-7.73868 -1.39646,-11.61327c-0.42182,-1.10617 -0.8165,-2.22299 -1.13971,-3.36379c-1.08648,-3.8348 -1.4914,-7.77202 -2.58633,-11.64493c-0.69979,-2.47525 -1.81039,-4.06684 -2.25512,-6.62846c0,0 -0.11394,-0.68365 0.27779,-1.19899c-0.33536,-0.70403 -0.65822,-1.40507 -0.93526,-2.10693c-1.53397,-3.88628 -2.66645,-9.28852 -5.61711,-12.46067c-1.1879,-1.27707 -3.00032,-1.77968 -4.48525,-2.69455c-3.67681,-2.26529 -7.79985,-3.5352 -11.7316,-5.27023c-8.54299,-2.14187 -15.55402,-7.75357 -23.77977,-10.46818c-8.23337,-2.71712 -16.78057,-3.06844 -25.25955,-4.09573c-1.65641,-0.20068 -3.29601,-0.64707 -4.96451,-0.63979c-4.20414,0 -8.56235,0.33068 -12.74795,-0.01124c-2.81781,-0.23018 -5.91007,-0.83183 -8.77179,-0.38538c-3.38037,0.52736 -6.93705,1.53962 -10.44761,1.86828c-7.58412,0.71004 -15.26056,-0.74652 -22.79721,0.79767c-3.93938,0.80222 -7.88658,1.12554 -11.7792,1.75557c-1.63866,0.26522 -3.4477,1.35603 -5.06844,1.81882c-3.56401,1.01767 -7.69668,1.04287 -11.34606,1.53513c-8.65611,1.1676 -16.70589,0.79995 -24.98877,4.04021c-4.06542,0.23982 -7.15134,3.42229 -10.81334,5.08365c-0.66164,0.30017 -1.42958,0.54156 -2.2154,0.78059c-0.2182,0.1753 -0.41836,0.25536 -0.41836,0.25536zM446.29065,161.6118c0.81791,3.33277 0.43391,7.01578 0.43391,10.4125c-0.01186,3.2425 -0.55785,7.14377 -1.14877,10.32246c-0.18255,0.98196 -1.01052,1.79866 -1.07976,2.79504c-0.95985,13.81301 -3.54293,27.62904 -6.69671,41.24295c-3.63658,10.92355 -7.23666,21.99021 -11.5209,32.3346c-0.35498,0.85711 -2.22083,2.78525 -2.70239,3.54428c-2.64237,4.16484 -5.87867,6.7951 -9.42887,10.24008c-4.01017,3.96104 -8.30623,7.08648 -12.72755,10.46875c-2.66922,2.04193 -4.99325,4.21337 -7.88243,5.9967c-1.14691,0.70793 -1.85897,2.03027 -3.05862,2.64462c-1.77088,0.90689 -4.02789,1.27466 -5.903,2.21221c-2.3431,1.17155 -5.1041,3.26772 -7.74251,3.8267c-1.20472,0.25523 -2.48417,0.05621 -3.67632,0.36489c-7.84681,1.96114 -15.81363,3.63271 -23.8069,4.83443c-2.41024,0.36236 -4.99073,-0.37841 -7.39098,0c-8.75451,1.3802 -17.97288,0.76062 -26.90081,0.74985c-9.45505,-1.33371 -19.0107,-1.67632 -28.52847,-2.59149c-9.13814,-0.87867 -18.14321,-4.49745 -26.96955,-6.73667c-3.75881,-1.85743 -7.72338,-3.18461 -11.51797,-4.82863c-1.48358,-0.64277 -2.61873,-1.94028 -4.09493,-2.59982c-3.11835,-1.39322 -7.06856,-1.29086 -10.27991,-2.55863c-1.68288,-0.66437 -3.06982,-1.97819 -4.77724,-2.57666c-0.4827,-0.16919 -4.76128,-0.90929 -5.29866,-1.16115c-3.78485,-1.77388 -7.062,-4.82243 -10.98649,-6.44702c-0.94529,-1.20624 -2.30672,-2.04438 -3.24864,-3.25325c-0.37698,-0.48382 -0.23918,-1.26003 -0.63824,-1.72581c-0.34572,-0.40352 -1.08837,-0.2914 -1.43503,-0.6941c-1.06384,-1.23582 -1.45125,-2.93477 -2.38818,-4.26938c-0.42063,-0.59917 -2.8352,-3.42246 -3.08447,-3.91825c-0.94034,-1.87027 -1.1187,-4.57321 -1.57844,-6.57127c-0.82429,-3.58245 -1.77323,-7.12355 -2.54018,-10.72885c-0.46633,-2.19211 -1.65352,-4.05673 -2.2419,-6.18762c-0.8101,-2.9339 -0.8002,-5.71729 -0.79597,-8.72726c0.38687,-2.27556 0.04048,-4.47195 0.3836,-6.7224c0.41013,-2.68994 1.6754,-5.39344 2.19985,-8.08393c0.5291,-2.71435 0.03886,-3.47269 1.10408,-6.17235c1.16764,-2.95923 2.26331,-4.61258 2.72737,-7.88533c1.24762,-8.79877 0.60122,-17.93211 0.60122,-26.81176c0.01163,-1.8109 0.44734,-3.59565 0.75996,-5.37941c0.55739,-3.18031 -0.04218,-6.75603 0.35264,-9.97811c0.19693,-1.60708 0.97484,-3.11462 1.11471,-4.72767c0.32918,-3.7963 0.29346,-6.58995 1.54882,-10.2899c2.08141,-6.13458 6.89522,-11.03724 9.46751,-17.05693c1.85374,-1.43841 4.79919,-3.02471 6.31408,-4.84413c0.89066,-1.0697 1.96019,-2.27322 3.11747,-3.4663c0.61895,-1.67076 1.03006,-3.28626 2.70753,-4.46628c1.01989,-0.71744 2.49148,-0.3972 3.62898,-0.90805c0.56636,-0.25435 0.73125,-1.04893 1.26363,-1.36835c1.74406,-1.04643 4.23984,-1.47135 6.09739,-2.31434c3.88873,-1.76478 6.99295,-4.96031 11.35961,-5.26372c8.3103,-3.42376 16.56515,-2.89213 25.26991,-4.08987c3.4552,-0.47542 7.46214,-0.43559 10.82689,-1.42126c1.6874,-0.49431 3.55893,-1.58806 5.27893,-1.87667c3.92737,-0.65901 7.89918,-0.96686 11.86981,-1.77549c7.66499,-1.55213 15.41351,-0.12385 23.11623,-0.84495c3.42092,-0.32025 6.86922,-1.33588 10.15992,-1.82721c3.18612,-0.47572 6.5697,0.0921 9.70566,0.35372c4.0571,0.33847 8.30415,-0.01124 12.3814,-0.01124c1.78937,0.00673 3.55108,0.44433 5.3272,0.66179c8.64841,1.0589 17.40088,1.41335 25.79389,4.21097c8.24849,2.74945 15.29526,8.34427 23.85504,10.49286c5.38167,2.35896 13.24726,4.33361 17.44914,8.7682c3.25423,3.43445 4.53662,9.17444 6.20846,13.40777c1.09151,2.76384 2.73411,5.46163 3.40282,8.4003c0.69727,3.06415 1.38231,6.13834 2.57297,9.17232c0.22747,2.76371 0.54526,5.51148 0.88454,8.25311c1.02547,2.47625 2.1635,4.91541 2.78563,7.45041z" fill="#000000" stroke="none" stroke-width="0.5"/><path d="M236.58199,111.29688c0,0 0.2003,-0.0802 0.4185,-0.2555c0.78582,-0.23903 1.55442,-0.48104 2.21606,-0.78121c3.662,-1.66136 6.7517,-4.84701 10.81712,-5.08683c8.28288,-3.24026 16.34175,-2.8781 24.99786,-4.0457c3.64938,-0.49226 7.78698,-0.51945 11.35099,-1.53712c1.62074,-0.46279 3.43227,-1.55438 5.07093,-1.8196c3.89262,-0.63003 7.84546,-0.95462 11.78484,-1.75684c7.53665,-1.54419 15.22425,-0.0882 22.80837,-0.79824c3.51056,-0.32866 7.07213,-1.34038 10.4525,-1.86774c2.86172,-0.44645 5.958,0.15602 8.77581,0.3862c4.1856,0.34192 8.5492,0.01289 12.75334,0.01289c1.6685,-0.00728 3.31014,0.43992 4.96655,0.6406c8.47898,1.02729 17.03532,1.38363 25.26869,4.10075c8.22575,2.71461 15.24442,8.33285 23.78741,10.47472c3.93175,1.73503 8.05774,3.00832 11.73455,5.27361c1.48493,0.91487 3.29846,1.41892 4.48636,2.69599c2.95066,3.17215 4.08593,8.5786 5.6199,12.46488c0.27704,0.70186 0.60033,1.40365 0.93569,2.10768c-0.39173,0.51534 -0.27762,1.19929 -0.27762,1.19929c0.44473,2.56162 1.55656,4.15555 2.25635,6.6308c1.09493,3.87291 1.50167,7.81428 2.58815,11.64908c0.32321,1.1408 0.71837,2.25892 1.14019,3.36509c0.47683,3.87459 1.02449,7.7373 1.39778,11.61761c0.53755,5.58783 -0.36466,11.29896 -0.3754,16.86056l0.00005,1.1091c0,0 0.00002,0.2025 0.07432,0.45852c-0.02942,0.12291 -0.05113,0.24777 -0.06304,0.3748c-0.37046,3.95195 -0.29716,7.97658 -0.74067,11.92829c-0.28251,2.51716 -1.31603,5.06916 -1.74719,7.56677c-1.22785,7.11262 -2.50089,14.27182 -4.12041,21.31895c-3.62238,10.85237 -7.43145,21.59674 -11.39649,31.98011c-0.47214,1.23641 -1.76016,1.99336 -2.47215,3.10902c-2.52088,3.95013 -5.60978,6.42646 -9.00471,9.71869c-3.92168,3.8903 -8.12248,6.92316 -12.45348,10.23244c-2.59641,1.9839 -4.85919,4.0736 -7.64177,5.83161c-1.07464,0.67895 -1.71175,1.97537 -2.85548,2.53009c-1.80976,0.87775 -4.01997,1.27154 -5.92475,2.22393c-2.09031,1.04516 -4.69854,3.13361 -7.0424,3.56613c-1.22383,0.22584 -2.50672,0.08107 -3.71601,0.37495c-7.75497,1.93929 -15.61536,3.5336 -23.50541,4.77789c-2.40022,0.37852 -4.98405,-0.36157 -7.39427,0.00081c-8.56887,1.28835 -17.54812,0.71807 -26.2854,0.72937c-9.40442,-1.35055 -18.95942,-1.74018 -28.4368,-2.58462c-8.88629,-0.79177 -17.66644,-4.45914 -26.25657,-6.57227c-3.69971,-1.87499 -7.62905,-3.18661 -11.39845,-4.78273c-1.4691,-0.62208 -2.57793,-1.92937 -4.03675,-2.57519c-3.19822,-1.41585 -7.15017,-1.32559 -10.41778,-2.61779c-0.49801,-0.19694 -4.2594,-2.39627 -4.83252,-2.59859c-1.62127,-0.57235 -3.50648,-0.29965 -5.04982,-1.05741c-3.52517,-1.73082 -6.72354,-4.68767 -10.45008,-6.12114c-0.72569,-1.02367 -1.89546,-1.66955 -2.66495,-2.66072c-0.43771,-0.56381 -0.37579,-1.42853 -0.84041,-1.97037c-0.37137,-0.43309 -1.14183,-0.35888 -1.52166,-0.78457c-0.96972,-1.08677 -1.21347,-2.6679 -2.04728,-3.86213c-0.85465,-1.22409 -2.16542,-2.13694 -2.82914,-3.47421c-0.83891,-1.69024 -0.96189,-4.19318 -1.37899,-5.99544c-0.82533,-3.56618 -1.75398,-7.10104 -2.53105,-10.68528c-0.49318,-2.27476 -1.68437,-4.19989 -2.29769,-6.40316c-0.70816,-2.54397 -0.67892,-5.01177 -0.68305,-7.62296c0.37179,-2.18688 0.02127,-4.35051 0.35493,-6.49659c0.4124,-2.6525 1.6629,-5.33507 2.18249,-7.99268c0.37009,-1.89294 0.20087,-3.80794 0.94438,-5.63416c1.25831,-3.09068 2.41925,-5.15489 2.9137,-8.59188c1.28504,-8.93262 0.63077,-18.21984 0.63077,-27.23563c-0.01248,-1.6444 0.45048,-3.26037 0.71871,-4.88279c0.53784,-3.25314 -0.02144,-6.83592 0.37366,-10.11887c0.19409,-1.61265 0.97062,-3.12742 1.11725,-4.74507c0.35802,-3.94978 -0.03307,-7.60013 2.03681,-11.26797c2.7423,-4.85938 6.45413,-9.27632 8.386,-14.61026c0.39338,-0.28212 0.8935,-0.50825 1.32343,-0.79527c-0.2517,0.6131 -0.45229,1.27325 -0.58502,2.00223c0,0 -0.32954,1.42372 1.15005,1.67032c1.47959,0.2466 1.72665,-1.23367 1.72665,-1.23367c0.39707,-2.72109 2.00452,-4.22173 3.63438,-6.40971c0.79854,-1.07199 1.31441,-2.18664 1.8064,-3.30055c2.86819,-2.29628 6.21936,-4.24116 8.69312,-6.75219l1.57956,-0.59909z" data-paper-data="{&quot;noHover&quot;:false,&quot;origItem&quot;:[&quot;Path&quot;,{&quot;applyMatrix&quot;:true,&quot;segments&quot;:[[236.61683,111.33276],[[235.03773,111.9314],[0,0],[-2.47376,2.51103]],[[226.34764,118.68029],[2.86819,-2.29628],[-0.49199,1.11391]],[[224.5422,121.97966],[0.79854,-1.07199],[-1.62986,2.18798]],[[220.90962,128.38694],[0.39707,-2.72109],[0,0]],[[219.18343,129.61993],[1.47959,0.2466],[-1.47959,-0.2466]],[[217.95044,127.89374],[0,0],[0.13273,-0.72898]],[[218.53592,125.89085],[-0.2517,0.6131],[-0.42993,0.28702]],[[217.29467,126.74309],[0.39338,-0.28212],[-1.93187,5.33394]],[[208.91211,141.34751],[2.7423,-4.85938],[-2.06988,3.66784]],[[206.87714,152.61134],[0.35802,-3.94978],[-0.14663,1.61765]],[[205.76058,157.35454],[0.19409,-1.61265],[-0.3951,3.28295]],[[205.3881,167.46949],[0.53784,-3.25314],[-0.26823,1.62242]],[[204.66987,172.35025],[-0.01248,-1.6444],[0,9.01579]],[[204.04019,199.5743],[1.28504,-8.93262],[-0.49445,3.43699]],[[201.12628,208.16261],[1.25831,-3.09068],[-0.74351,1.82622]],[[200.18163,213.7945],[0.37009,-1.89294],[-0.51959,2.65761]],[[197.99862,221.78416],[0.4124,-2.6525],[-0.33366,2.14608]],[[197.64313,228.27832],[0.37179,-2.18688],[0.00413,2.61119]],[[198.32536,235.89844],[-0.70816,-2.54397],[0.61332,2.20327]],[[200.62217,242.29908],[-0.49318,-2.27476],[0.77707,3.58424]],[[203.15156,252.98049],[-0.82533,-3.56618],[0.4171,1.80226]],[[204.52951,258.97389],[-0.83891,-1.69024],[0.66372,1.33727]],[[207.35782,262.44663],[-0.85465,-1.22409],[0.83381,1.19423]],[[209.40423,266.30733],[-0.96972,-1.08677],[0.37983,0.42569]],[[210.92559,267.09142],[-0.37137,-0.43309],[0.46462,0.54184]],[[211.76555,269.06111],[-0.43771,-0.56381],[0.76949,0.99117]],[[214.42969,271.72065],[-0.72569,-1.02367],[3.72654,1.43347]],[[224.87705,277.8383],[-3.52517,-1.73082],[1.54334,0.75776]],[[229.92576,278.89445],[-1.62127,-0.57235],[0.57312,0.20232]],[[234.75679,281.49148],[-0.49801,-0.19694],[3.26761,1.2922]],[[245.17163,284.10654],[-3.19822,-1.41585],[1.45882,0.64582]],[[249.20678,286.68041],[-1.4691,-0.62208],[3.7694,1.59612]],[[260.60086,291.46006],[-3.69971,-1.87499],[8.59013,2.11313]],[[286.84639,298.02716],[-8.88629,-0.79177],[9.47738,0.84444]],[[315.26987,300.60936],[-9.40442,-1.35055],[8.73728,-0.0113]],[[341.54275,299.88102],[-8.56887,1.28835],[2.41022,-0.36238]],[[348.93373,299.88102],[-2.40022,0.37852],[7.89005,-1.24429]],[[372.42912,295.10717],[-7.75497,1.93929],[1.20929,-0.29388]],[[376.14379,294.73296],[-1.22383,0.22584],[2.34386,-0.43252]],[[383.18324,291.16867],[-2.09031,1.04516],[1.90478,-0.95239]],[[389.10581,288.94629],[-1.80976,0.87775],[1.14373,-0.55472]],[[391.95998,286.41722],[-1.07464,0.67895],[2.78258,-1.75801]],[[399.59862,280.58835],[-2.59641,1.9839],[4.331,-3.30928]],[[412.04749,270.36095],[-3.92168,3.8903],[3.39493,-3.29223]],[[421.049,260.64677],[-2.52088,3.95013],[0.71199,-1.11566]],[[423.5203,257.53916],[-0.47214,1.23641],[3.96504,-10.38337]],[[434.91144,225.57221],[-3.62238,10.85237],[1.61952,-7.04713]],[[439.03047,204.26227],[-1.22785,7.11262],[0.43116,-2.49761]],[[440.77757,196.69867],[-0.28251,2.51716],[0.44351,-3.95171]],[[441.51849,184.77525],[-0.37046,3.95195],[0.01191,-0.12703]],[[441.58155,184.4006],[-0.02942,0.12291],[-0.0743,-0.25602]],[441.50725,183.94227],[[441.50725,182.83362],[0,0],[0.01074,-5.5616]],[[441.88385,165.9796],[0.53755,5.58783],[-0.37329,-3.88031]],[[440.48739,154.36633],[0.47683,3.87459],[-0.42182,-1.10617]],[[439.34768,151.00254],[0.32321,1.1408],[-1.08648,-3.8348]],[[436.76135,139.35761],[1.09493,3.87291],[-0.69979,-2.47525]],[[434.50623,132.72915],[0.44473,2.56162],[0,0]],[[434.78402,131.53016],[-0.39173,0.51534],[-0.33536,-0.70403]],[[433.84876,129.42323],[0.27704,0.70186],[-1.53397,-3.88628]],[[428.23165,116.96256],[2.95066,3.17215],[-1.1879,-1.27707]],[[423.7464,114.26801],[1.48493,0.91487],[-3.67681,-2.26529]],[[412.0148,108.99778],[3.93175,1.73503],[-8.54299,-2.14187]],[[388.23503,98.5296],[8.22575,2.71461],[-8.23337,-2.71712]],[[362.97548,94.43387],[8.47898,1.02729],[-1.65641,-0.20068]],[[358.01097,93.79408],[1.6685,-0.00728],[-4.20414,0]],[[345.26302,93.78284],[4.1856,0.34192],[-2.81781,-0.23018]],[[336.49123,93.39746],[2.86172,-0.44645],[-3.38037,0.52736]],[[326.04362,95.26574],[3.51056,-0.32866],[-7.58412,0.71004]],[[303.24641,96.06341],[7.53665,-1.54419],[-3.93938,0.80222]],[[291.4672,97.81898],[3.89262,-0.63003],[-1.63866,0.26522]],[[286.39877,99.6378],[1.62074,-0.46279],[-3.56401,1.01767]],[[275.05271,101.17293],[3.64938,-0.49226],[-8.65611,1.1676]],[[250.06394,105.21314],[8.28288,-3.24026],[-4.06542,0.23982]],[[239.2506,110.29679],[3.662,-1.66136],[-0.66164,0.30017]],[[237.0352,111.07738],[0.78582,-0.23903],[-0.2182,0.1753]],[236.61684,111.33274]],&quot;closed&quot;:true,&quot;fillColor&quot;:[0,0,0,1],&quot;strokeWidth&quot;:0.5}]}" fill="#ffbb92" stroke="none" stroke-width="0.25"/><path d="M248.39765,225.62993c0.26867,-0.29223 0.69915,-0.52335 1.37254,-0.37905c1.4667,0.31429 1.15241,1.781 1.15241,1.781c-0.32121,1.49899 -1.08392,2.96165 -1.08751,4.48191c0.19431,0.00714 0.38845,0.01009 0.58166,-0.00657c0.74086,-0.06391 1.92628,0.05824 2.1321,-0.65632c0.15317,-0.53172 -0.1826,-1.10018 -0.15458,-1.65281c0.10796,-2.12928 0.86619,-4.79209 0.4059,-6.94002c-0.29208,-1.363 -1.23854,-2.50094 -1.75624,-3.79519c-1.76122,-3.51826 -4.96494,-7.82384 -5.63475,-11.72588c-1.19098,-6.93819 0.06647,-15.71231 2.27034,-22.2989c0.76209,-2.27763 2.36674,-4.04352 3.39988,-6.0804c1.4372,-2.8335 0.77432,-4.83274 3.12928,-7.28438c0.84895,-1.25936 2.01252,-2.27526 3.02672,-3.40579c2.67942,-2.98673 4.95046,-8.3967 6.01229,-12.22861c1.03047,-3.71875 2.24981,-7.44428 3.24811,-11.1948c0.83062,-3.12056 1.82068,-7.13847 4.59018,-9.25666c3.26276,-2.49544 7.38019,-4.11045 11.32972,-5.14244c0.43018,-0.23138 5.12463,-2.76728 5.37061,-2.85123c0.7992,-0.27276 4.84886,-0.64364 5.69871,-0.87619c2.28106,-0.62418 4.55878,-1.96234 6.63045,-3.08764c6.32848,-3.43756 10.26342,-10.50971 17.80896,-11.97899c3.29769,-0.64213 5.86981,1.57482 8.91204,2.29964c1.97023,0.46941 4.00446,0.68403 5.93883,1.28433c5.21157,1.62983 10.48432,2.21578 15.74118,3.46523c9.29847,2.21007 17.736,10.37035 24.9077,16.14511c2.79257,2.24863 6.14069,2.86489 8.40134,5.84401c0.56243,0.17713 1.29662,0.08972 1.68727,0.5314c0.56851,0.64277 0.37371,1.73909 0.91199,2.40738c0.5448,0.67639 1.62912,0.75671 2.17843,1.42945c0.62369,0.76384 0.6516,1.88394 1.19756,2.70514c0.99619,1.4984 2.91938,3.64321 4.23302,4.93422c4.36527,4.29008 10.12449,7.31324 13.35725,12.78518c3.19059,5.40056 2.8576,12.31375 5.53955,17.88408c-0.01596,3.43193 2.26673,5.60169 3.50594,8.74102c1.05891,2.68257 1.20139,5.33149 1.33722,8.17576c0.29917,6.26415 -0.48029,13.08104 -2.27463,18.94964c-0.29066,0.95063 -0.07481,2.04785 -0.5204,2.93647c-0.30412,0.60648 -1.19811,0.71712 -1.58954,1.27128c-2.39078,3.38473 -3.77847,8.24351 -5.10581,12.12025c-3.04489,6.10353 -6.44692,11.15088 -9.9277,16.90015c-0.7122,1.17636 -0.78977,2.67958 -1.5587,3.81967c-1.23773,1.83516 -4.93298,4.95891 -6.78237,5.9838c-0.63864,0.35392 -1.49774,0.23133 -2.08852,0.6604c-0.70909,0.51499 -1.03869,1.41808 -1.64483,2.05102c-3.12035,3.2583 -6.87871,6.14773 -10.11586,9.35813c-2.66814,1.53863 -5.03542,2.40297 -7.77549,3.53864c-1.40148,0.58087 -3.91283,2.57684 -5.2802,2.99179c-0.92624,0.28108 -1.96467,-0.10122 -2.90008,0.14764c-1.63475,0.43492 -3.07801,1.59836 -4.76257,1.75265c-4.39828,0.40283 -8.70623,-1.30839 -13.00407,-0.91697c-5.40129,0.49192 -11.12346,2.53078 -16.38983,3.84737c-5.98464,1.48538 -13.12889,1.86488 -19.16676,0.35612c-6.48548,-1.62061 -11.84609,-5.91555 -17.73685,-8.78465c-4.01146,-1.95379 -9.53451,-2.37676 -13.11451,-5.17316c-1.5725,-1.22831 -2.79171,-2.8835 -4.41958,-4.03742c-5.88568,-4.70634 -11.01132,-10.25109 -15.49398,-16.24863c-0.27263,-0.36477 -3.7157,-4.81105 -3.82083,-5.04653c-0.13938,-0.31216 -1.07354,-5.62462 -1.19593,-6.16415c-0.40556,-1.78788 -1.23725,-3.6614 -1.77395,-5.51944c-0.53722,-0.19395 -0.98078,-0.49531 -1.27443,-0.92351c-0.39208,-0.57174 -0.31769,-4.40923 -0.31769,-5.35771l0.99102,-1.9407c0,0 0.65226,-0.97839 1.66803,-0.62515zM250.47249,234.65186c0.51668,1.57034 1.21018,3.152 1.55193,4.65532c0.42275,1.85961 0.23803,3.88895 1.01553,5.63031c0.77061,1.72594 2.35287,2.95958 3.48446,4.47359c4.31513,5.7734 9.23527,11.11742 14.90057,15.65187c1.60385,1.15359 2.84128,2.75265 4.37173,4.00197c3.27862,2.67638 8.90087,3.0823 12.66276,4.90252c5.70556,2.76069 10.89671,7.01452 17.1698,8.57698c5.54575,1.3813 12.20356,1.02394 17.69623,-0.36c5.40981,-1.35245 11.30107,-3.44951 16.85397,-3.92535c4.31138,-0.36945 8.59108,1.23998 12.97193,0.91998c1.53335,-0.112 2.81417,-1.27275 4.29947,-1.66973c0.90897,-0.24294 1.91582,0.13529 2.81984,-0.12547c1.87323,-0.54033 3.2688,-2.16814 5.06718,-2.921c2.45272,-1.02677 4.59845,-1.752 7.00648,-3.11325c3.14063,-3.17054 6.76167,-5.95713 9.83979,-9.11933c0.73107,-0.75104 1.20337,-1.76663 2.05066,-2.38356c0.66951,-0.48748 1.61615,-0.42654 2.34607,-0.8178c1.54002,-0.82551 4.80744,-3.61601 5.7823,-5.10267c0.70099,-1.06903 0.74389,-2.47279 1.39769,-3.57131c3.37411,-5.66919 6.75565,-10.56862 9.75484,-16.55215c1.41643,-4.16783 2.97281,-9.15406 5.51468,-12.81622c0.31594,-0.4552 1.1198,-0.45004 1.36685,-0.94601c0.33407,-0.6707 0.01067,-1.51739 0.2187,-2.23723c1.62705,-5.63007 2.44976,-11.99491 2.15996,-18.00527c-0.11863,-2.46027 -0.19262,-4.86693 -1.12596,-7.17948c-1.31196,-3.25064 -3.62295,-5.55104 -3.63916,-9.16316c-2.72244,-5.21069 -2.16177,-11.92706 -5.2011,-17.04467c-3.08053,-5.18696 -8.70804,-8.07147 -12.85702,-12.15304c-1.39916,-1.37642 -3.5802,-3.83349 -4.63615,-5.41315c-0.49477,-0.74015 -0.45526,-1.78008 -1.01974,-2.46855c-0.57576,-0.70224 -1.69143,-0.8158 -2.25616,-1.52695c-0.43631,-0.54943 -0.12095,-1.485 -0.56621,-2.0272c-0.27205,-0.33128 -0.84608,-0.13846 -1.26912,-0.2077c-2.4545,-2.93726 -5.69126,-3.67638 -8.59792,-5.98156c-6.87692,-5.45387 -14.96552,-13.57013 -23.87279,-15.63611c-5.30298,-1.22999 -10.60401,-1.85864 -15.85413,-3.49811c-1.86773,-0.5881 -3.84069,-0.77076 -5.74406,-1.23059c-2.18491,-0.52784 -5.3048,-2.81224 -7.67672,-2.26496c-6.98223,1.61102 -10.92963,8.38755 -16.92866,11.67216c-2.26101,1.23795 -4.76121,2.64691 -7.25009,3.3351c-1.803,0.49855 -3.78074,0.22391 -5.55011,0.83113c-1.86631,0.6405 -3.47369,1.87277 -5.21762,2.79584c-3.77047,1.01215 -7.43816,2.4245 -10.60237,4.73156c-2.19213,1.59831 -2.88705,5.29295 -3.51691,7.65067c-1.00422,3.75897 -2.20803,7.50708 -3.25707,11.2276c-1.22891,4.35845 -3.71571,10.07268 -6.72208,13.4823c-0.95755,1.08599 -2.08965,2.03697 -2.88606,3.24611c-2.15077,2.04323 -1.46879,4.09672 -2.78351,6.75849c-0.96379,1.95126 -2.52756,3.57458 -3.25201,5.74517c-2.02747,6.0747 -3.18973,14.16431 -2.16425,20.5688c0.58148,3.63156 3.81661,7.91221 5.45173,11.18616c0.5879,1.46974 1.60759,2.78707 1.93926,4.3349c0.51965,2.42513 -0.09649,5.41734 -0.33319,7.84195c-0.09024,0.9243 0.27045,1.95606 -0.15458,2.78178c-0.59164,1.14938 -2.68287,2.14365 -4.75965,2.45932z" fill="#000000" stroke="none" stroke-width="0.5"/><path d="M250.51809,234.63133c2.07678,-0.31567 4.07675,-1.26904 4.66839,-2.41842c0.42503,-0.82572 0.06374,-1.85889 0.15398,-2.78319c0.2367,-2.42461 0.8513,-5.42112 0.33165,-7.84625c-0.33167,-1.54783 -1.35215,-2.86804 -1.94005,-4.33778c-1.63512,-3.27395 -4.87146,-7.5619 -5.45294,-11.19346c-1.02548,-6.40449 0.13725,-14.50672 2.16472,-20.58142c0.72445,-2.17059 2.28901,-3.79776 3.2528,-5.74902c1.31472,-2.66177 0.63406,-4.7197 2.78483,-6.76293c0.79641,-1.20914 1.92944,-2.16257 2.88699,-3.24856c3.00637,-3.40962 5.49774,-9.13252 6.72665,-13.49097c1.04904,-3.72052 2.25703,-7.4741 3.26125,-11.23307c0.62986,-2.35772 1.32812,-6.05581 3.52025,-7.65412c3.16421,-2.30706 6.83716,-3.72371 10.60763,-4.73586c1.74393,-0.92307 3.35436,-2.15734 5.22067,-2.79784c1.76937,-0.60722 3.74999,-0.3342 5.55299,-0.83275c2.48888,-0.68819 4.99371,-2.09926 7.25472,-3.33721c5.99903,-3.28461 9.95784,-10.06415 16.94007,-11.67517c2.37192,-0.54728 5.49621,1.7367 7.68112,2.26454c1.90337,0.45983 3.87983,0.64243 5.74756,1.23053c5.25012,1.63947 10.56113,2.26931 15.86411,3.4993c8.90727,2.06598 17.01264,10.18939 23.88956,15.64326c2.90666,2.30518 6.14896,3.04857 8.60346,5.98583c0.42304,0.06924 0.9976,-0.1231 1.26965,0.20818c0.44526,0.5422 0.13077,1.47859 0.56708,2.02802c0.56473,0.71115 1.68167,0.82597 2.25743,1.52821c0.56448,0.68847 0.52612,1.72962 1.02089,2.46977c1.05595,1.57966 3.24004,4.04044 4.6392,5.41686c4.14898,4.08157 9.78208,6.97562 12.86261,12.16258c3.03933,5.11761 2.48205,11.84471 5.20449,17.0554c0.01621,3.61212 2.328,5.91842 3.63996,9.16906c0.93334,2.31255 1.00746,4.72361 1.12609,7.18388c0.2898,6.01036 -0.53427,12.38611 -2.16132,18.01618c-0.20803,0.71984 0.11504,1.56783 -0.21903,2.23853c-0.24705,0.49597 -1.05112,0.49156 -1.36706,0.94676c-2.54187,3.66216 -4.10128,8.65639 -5.51771,12.82422c-2.99919,5.98353 -6.38705,10.89291 -9.76116,16.5621c-0.6538,1.09852 -0.69813,2.50395 -1.39912,3.57298c-0.97486,1.48666 -4.24553,4.28048 -5.78555,5.10599c-0.72992,0.39126 -1.67759,0.33126 -2.3471,0.81874c-0.84729,0.61693 -1.32104,1.63375 -2.05211,2.38479c-3.07812,3.1622 -6.70575,5.95333 -9.84638,9.12387c-2.40803,1.36125 -4.55782,2.08858 -7.01054,3.11535c-1.79838,0.75286 -3.19714,2.38201 -5.07037,2.92234c-0.90402,0.26076 -1.91238,-0.11692 -2.82135,0.12602c-1.4853,0.39698 -2.76875,1.55855 -4.3021,1.67055c-4.38085,0.32 -8.66805,-1.28792 -12.97943,-0.91847c-5.5529,0.47584 -11.45448,2.5731 -16.86429,3.92555c-5.49267,1.38394 -12.16042,1.73943 -17.70617,0.35813c-6.27309,-1.56246 -11.47441,-5.82056 -17.17997,-8.58125c-3.76189,-1.82022 -9.39046,-2.23031 -12.66908,-4.90669c-1.53045,-1.24932 -2.77044,-2.85051 -4.37429,-4.0041c-5.6653,-4.53445 -10.59345,-9.88754 -14.90858,-15.66094c-1.13159,-1.51401 -2.71555,-2.75029 -3.48616,-4.47623c-0.7775,-1.74136 -0.59426,-3.77335 -1.01701,-5.63296c-0.34175,-1.50332 -1.03646,-3.08747 -1.55314,-4.65781z" data-paper-data="{&quot;noHover&quot;:false,&quot;origItem&quot;:[&quot;Path&quot;,{&quot;applyMatrix&quot;:true,&quot;segments&quot;:[[[250.47249,234.65186],[0,0],[0.51668,1.57034]],[[252.02442,239.30718],[-0.34175,-1.50332],[0.42275,1.85961]],[[253.03995,244.93749],[-0.7775,-1.74136],[0.77061,1.72594]],[[256.52441,249.41108],[-1.13159,-1.51401],[4.31513,5.7734]],[[271.42498,265.06295],[-5.6653,-4.53445],[1.60385,1.15359]],[[275.7967,269.06492],[-1.53045,-1.24932],[3.27862,2.67638]],[[288.45947,273.96744],[-3.76189,-1.82022],[5.70556,2.76069]],[[305.62926,282.54442],[-6.27309,-1.56246],[5.54575,1.3813]],[[323.3255,282.18442],[-5.49267,1.38394],[5.40981,-1.35245]],[[340.17947,278.25907],[-5.5529,0.47584],[4.31138,-0.36945]],[[353.1514,279.17905],[-4.38085,0.32],[1.53335,-0.112]],[[357.45087,277.50932],[-1.4853,0.39698],[0.90897,-0.24294]],[[360.27071,277.38385],[-0.90402,0.26076],[1.87323,-0.54033]],[[365.33789,274.46285],[-1.79838,0.75286],[2.45272,-1.02677]],[[372.34437,271.3496],[-2.40803,1.36125],[3.14063,-3.17054]],[[382.18416,262.23027],[-3.07812,3.1622],[0.73107,-0.75104]],[[384.23482,259.84671],[-0.84729,0.61693],[0.66951,-0.48748]],[[386.58089,259.02891],[-0.72992,0.39126],[1.54002,-0.82551]],[[392.36319,253.92624],[-0.97486,1.48666],[0.70099,-1.06903]],[[393.76088,250.35493],[-0.6538,1.09852],[3.37411,-5.66919]],[[403.51572,233.80278],[-2.99919,5.98353],[1.41643,-4.16783]],[[409.0304,220.98656],[-2.54187,3.66216],[0.31594,-0.4552]],[[410.39725,220.04055],[-0.24705,0.49597],[0.33407,-0.6707]],[[410.61595,217.80332],[-0.20803,0.71984],[1.62705,-5.63007]],[[412.77591,199.79805],[0.2898,6.01036],[-0.11863,-2.46027]],[[411.64995,192.61857],[0.93334,2.31255],[-1.31196,-3.25064]],[[408.01079,183.45541],[0.01621,3.61212],[-2.72244,-5.21069]],[[402.80969,166.41074],[3.03933,5.11761],[-3.08053,-5.18696]],[[389.95267,154.2577],[4.14898,4.08157],[-1.39916,-1.37642]],[[385.31652,148.84455],[1.05595,1.57966],[-0.49477,-0.74015]],[[384.29678,146.376],[0.56448,0.68847],[-0.57576,-0.70224]],[[382.04062,144.84905],[0.56473,0.71115],[-0.43631,-0.54943]],[[381.47441,142.82185],[0.44526,0.5422],[-0.27205,-0.33128]],[[380.20529,142.61415],[0.42304,0.06924],[-2.4545,-2.93726]],[[371.60737,136.63259],[2.90666,2.30518],[-6.87692,-5.45387]],[[347.73458,120.99648],[8.90727,2.06598],[-5.30298,-1.22999]],[[331.88045,117.49837],[5.25012,1.63947],[-1.86773,-0.5881]],[[326.13639,116.26778],[1.90337,0.45983],[-2.18491,-0.52784]],[[318.45966,114.00282],[2.37192,-0.54728],[-6.98223,1.61102]],[[301.53101,125.67498],[5.99903,-3.28461],[-2.26101,1.23795]],[[294.28092,129.01008],[2.48888,-0.68819],[-1.803,0.49855]],[[288.7308,129.84121],[1.76937,-0.60722],[-1.86631,0.6405]],[[283.51319,132.63705],[1.74393,-0.92307],[-3.77047,1.01215]],[[272.91082,137.36861],[3.16421,-2.30706],[-2.19213,1.59831]],[[269.39391,145.01928],[0.62986,-2.35772],[-1.00422,3.75897]],[[266.13684,156.24688],[1.04904,-3.72052],[-1.22891,4.35845]],[[259.41476,169.72918],[3.00637,-3.40962],[-0.95755,1.08599]],[[256.5287,172.97529],[0.79641,-1.20914],[-2.15077,2.04323]],[[253.74519,179.73378],[1.31472,-2.66177],[-0.96379,1.95126]],[[250.49318,185.47895],[0.72445,-2.17059],[-2.02747,6.0747]],[[248.32893,206.04775],[-1.02548,-6.40449],[0.58148,3.63156]],[[253.78066,217.23391],[-1.63512,-3.27395],[0.5879,1.46974]],[[255.71992,221.56881],[-0.33167,-1.54783],[0.51965,2.42513]],[[255.38673,229.41076],[0.2367,-2.42461],[-0.09024,0.9243]],[[255.23215,232.19254],[0.42503,-0.82572],[-0.59164,1.14938]],[[250.4725,234.65186],[2.07678,-0.31567],[0,0]]],&quot;closed&quot;:true,&quot;fillColor&quot;:[0,0,0,1],&quot;strokeWidth&quot;:0.5}]}" fill="#fdf98e" stroke="none" stroke-width="0.25"/><path d="M285.99328,177.61553c0.02031,0.02032 0.03986,0.04064 0.05864,0.06095c2.05537,-1.38607 4.31664,-2.64744 6.3148,-3.65499c10.23505,-5.16092 23.29519,-5.0755 34.40265,-3.42895c6.88351,3.38069 13.57711,6.35276 19.08348,11.8198c3.2316,3.20851 5.01747,7.56709 8.23866,10.78132c3.51957,3.51196 9.33923,5.92376 11.54546,10.56261c1.09756,2.30775 0.92322,3.58789 0.98771,5.94466c-0.01311,16.05584 -6.94677,32.41682 -22.13521,39.69694c-4.25829,2.04108 -9.93199,2.21618 -14.51571,3.17877c-6.04185,1.26811 -11.83283,3.68267 -17.7804,4.80828c-5.21389,0.98675 -10.3463,-1.59284 -15.13503,-2.995c-2.50342,-0.73301 -5.36702,-0.88403 -7.80954,-1.78525c-5.30207,-1.95631 -8.35739,-6.21986 -11.46958,-10.61089c-2.56143,-3.61581 -5.99255,-7.94423 -6.88419,-12.40569c-0.82362,-4.12112 -0.33657,-8.89934 -0.75869,-13.11197c-0.37199,-3.71234 -1.30471,-7.23954 0.07372,-10.94009c1.5004,-4.02799 4.43298,-7.96114 5.51979,-12.12052c0.49889,-1.90932 0.47649,-3.91801 0.72889,-5.87522c1.70348,-4.31176 3.03403,-7.61775 7.43352,-9.83618l-0.02029,-0.08857c0,0 1.06066,-1.06066 2.12132,0zM280.44091,185.68135c-0.36273,0.81068 -0.7012,1.6806 -1.07726,2.6082c-0.06444,0.53485 -0.67315,5.6632 -0.74931,5.95035c-1.11953,4.2209 -4.00505,8.20042 -5.56668,12.26973c-1.24867,3.25381 -0.25206,6.41469 0.07372,9.66744c0.41235,4.11721 -0.08369,8.83169 0.71951,12.84369c0.79975,3.99475 4.09488,8.00757 6.3859,11.23825c2.73365,3.85693 5.35931,7.82484 10.05361,9.52859c2.39071,0.86768 5.21252,1.01567 7.65586,1.73363c4.19443,1.2325 9.10983,3.89318 13.6898,2.9178c5.91604,-1.25992 11.69192,-3.53079 17.73148,-4.79843c4.28976,-0.89989 9.85548,-1.0045 13.82615,-2.94366c14.09109,-6.88165 20.45443,-21.97447 20.44121,-36.96122c-0.1393,-7.60175 -6.87845,-9.63528 -11.64782,-14.41391c-3.21573,-3.22198 -4.99875,-7.58802 -8.23075,-10.77348c-5.20519,-5.13024 -11.43729,-7.80529 -17.87144,-11.09225c-10.31295,-1.40094 -22.6325,-1.61377 -32.1162,3.22294c-2.92057,1.4895 -6.49232,3.51415 -8.93213,5.69975c-1.30442,1.16851 -2.52791,2.55152 -4.14098,3.23338c0,0 -0.09473,0.03789 -0.24466,0.06921z" fill="#000000" stroke="none" stroke-width="0.5"/><path d="M280.40078,185.65154c0.14993,-0.03132 0.24479,-0.06938 0.24479,-0.06938c1.61307,-0.68186 2.84015,-2.06913 4.14457,-3.23764c2.43981,-2.1856 6.02052,-4.21778 8.94109,-5.70728c9.4837,-4.83671 21.84029,-4.63117 32.15324,-3.23023c6.43415,3.28696 12.68979,5.97363 17.89498,11.10387c3.232,3.18546 5.02591,7.56523 8.24164,10.78721c4.76937,4.77863 11.51433,6.83164 11.65363,14.43339c0.01322,14.98675 -6.36968,30.12361 -20.46077,37.00526c-3.97067,1.93916 -9.55166,2.05167 -13.84142,2.95156c-6.03956,1.26764 -11.83819,3.54021 -17.75423,4.80013c-4.57997,0.97538 -9.51104,-1.69052 -13.70547,-2.92302c-2.44334,-0.71796 -5.27217,-0.87046 -7.66288,-1.73814c-4.6943,-1.70375 -7.3304,-5.68253 -10.06405,-9.53946c-2.29102,-3.23068 -5.59249,-7.25585 -6.39224,-11.2506c-0.8032,-4.012 -0.30987,-8.74009 -0.72222,-12.8573c-0.32578,-3.25275 -1.32186,-6.42428 -0.07319,-9.67809c1.56163,-4.06931 4.45167,-8.06309 5.5712,-12.28399c0.07616,-0.28715 0.68792,-5.42084 0.75236,-5.95569c0.37606,-0.9276 0.71622,-1.79995 1.07895,-2.61063z" data-paper-data="{&quot;noHover&quot;:false,&quot;origItem&quot;:[&quot;Path&quot;,{&quot;applyMatrix&quot;:true,&quot;segments&quot;:[[[280.44091,185.68135],[0,0],[-0.36273,0.81068]],[[279.36365,188.28955],[0.37606,-0.9276],[-0.06444,0.53485]],[[278.61434,194.2399],[0.07616,-0.28715],[-1.11953,4.2209]],[[273.04766,206.50963],[1.56163,-4.06931],[-1.24867,3.25381]],[[273.12138,216.17707],[-0.32578,-3.25275],[0.41235,4.11721]],[[273.84089,229.02076],[-0.8032,-4.012],[0.79975,3.99475]],[[280.22679,240.25901],[-2.29102,-3.23068],[2.73365,3.85693]],[[290.2804,249.7876],[-4.6943,-1.70375],[2.39071,0.86768]],[[297.93626,251.52123],[-2.44334,-0.71796],[4.19443,1.2325]],[[311.62606,254.43903],[-4.57997,0.97538],[5.91604,-1.25992]],[[329.35754,249.6406],[-6.03956,1.26764],[4.28976,-0.89989]],[[343.18369,246.69694],[-3.97067,1.93916],[14.09109,-6.88165]],[[363.6249,209.73572],[0.01322,14.98675],[-0.1393,-7.60175]],[[351.97708,195.32181],[4.76937,4.77863],[-3.21573,-3.22198]],[[343.74633,184.54833],[3.232,3.18546],[-5.20519,-5.13024]],[[325.87489,173.45608],[6.43415,3.28696],[-10.31295,-1.40094]],[[293.75869,176.67902],[9.4837,-4.83671],[-2.92057,1.4895]],[[284.82656,182.37877],[2.43981,-2.1856],[-1.30442,1.16851]],[[280.68557,185.61215],[1.61307,-0.68186],[0,0]],[[280.44092,185.68136],[0.14993,-0.03132],[0,0]]],&quot;closed&quot;:true,&quot;fillColor&quot;:[0,0,0,1],&quot;strokeWidth&quot;:0.5}]}" fill="#fffbd6" stroke="none" stroke-width="0.25"/><path d="M200.73321,287.32043v-215.49032h239.22549v215.49032z" fill="none" stroke="#000000" stroke-width="0"/></g></g></svg>