<svg version="1.1" xmlns="http://www.w3.org/2000/svg" xmlns:xlink="http://www.w3.org/1999/xlink" width="239.22549" height="215.49032" viewBox="0,0,239.22549,215.49032"><g transform="translate(-200.7332,-71.8301)"><g data-paper-data="{&quot;isPaintingLayer&quot;:true}" fill-rule="nonzero" stroke-linecap="butt" stroke-linejoin="miter" stroke-miterlimit="10" stroke-dasharray="" stroke-dashoffset="0" style="mix-blend-mode: normal"><path d="M251.40708,201.11051c0.20491,1.48594 -1.28103,1.69085 -1.28103,1.69085l-0.78901,0.02875c-0.57117,0.2578 -1.20857,0.40899 -1.7609,0.69711c2.10854,-0.05299 4.17833,0.10621 6.36615,0.2287c2.72728,0.15269 5.41999,-0.25323 8.12526,0.3378c0.98864,0.21599 3.72071,1.16729 4.24041,2.13334c1.81978,3.38278 0.07607,3.69438 -2.32118,5.1804c-4.11211,2.54904 -10.17472,3.51387 -14.92477,2.89809c-1.51794,-0.31097 -4.3784,-0.17787 -6.62951,-0.72893c-0.07298,0.10537 -0.16463,0.2138 -0.27788,0.30969c0.41934,0.46587 0.80105,0.89962 1.07017,1.28862c0.79532,1.14958 1.86347,3.71993 2.363,5.08609c0.97168,2.65744 1.30058,5.21229 1.90225,7.92968c0.35457,1.6014 1.06428,1.90412 1.75732,3.44175c1.14311,2.5362 1.86268,5.20766 3.0806,7.7358c2.19598,3.34293 4.37782,3.90331 7.50016,6.07345c7.67098,5.3316 17.39534,6.58385 26.21135,9.41214c2.62202,0.84118 4.50889,2.66099 6.88366,3.79229c0.43488,0.20717 4.9807,1.52332 5.26291,1.60638c9.63109,2.09762 19.21081,1.92 29.02153,1.92c4.39669,0 9.31229,0.63029 13.66305,0.00022c5.41533,-0.78424 10.15069,-3.41766 15.26762,-5.12079c8.92329,-2.96377 19.08979,-4.713 27.30852,-9.42886c3.72133,-2.13528 6.00563,-5.42647 8.54686,-8.59441c3.33634,-4.15914 6.69458,-8.26745 9.41028,-13.01885c2.96556,-5.93106 6.9334,-10.36679 11.95807,-14.58656c2.42924,-2.0401 5.92932,-2.66022 6.74208,-6.07155c1.38705,-5.82173 -2.8886,-11.87805 -5.78495,-16.39369c-1.74253,-2.71674 -2.81035,-4.59836 -5.31743,-6.69238c-3.11386,-4.67931 -8.53909,-6.62531 -11.12161,-11.8304c-1.94488,-3.91991 -2.47873,-7.55677 -3.61983,-11.68087c-2.26072,-8.1706 -5.49896,-16.2897 -10.02667,-23.43081c-2.57727,-2.11931 -5.12114,-4.44757 -8.02632,-6.11146c-5.73463,-3.28442 -11.86493,-5.44004 -16.37694,-10.53318c-5.67873,-6.41013 -8.18688,-17.58286 -16.24554,-21.48434c-10.1222,-6.83557 -24.6274,-4.97105 -36.20202,-4.97105c-6.48847,0 -12.27261,-0.17951 -18.17619,2.79803c-6.95958,3.46492 -12.44067,9.36201 -19.1366,13.26072c-2.30081,1.33965 -5.06879,2.1484 -7.45067,3.35867c-2.38563,1.21217 -4.53484,2.83335 -6.84707,4.15749c-3.2278,1.84846 -6.98813,3.05379 -9.81246,5.57871c-0.90833,0.81204 -1.61174,1.85106 -2.58452,2.58465c-1.94096,2.34689 -3.47261,4.75387 -5.42475,6.89507c-0.788,0.86431 -1.65007,4.3052 -1.97156,5.12744c-2.09302,5.35318 -3.68778,10.81841 -4.34014,16.61051c-0.31589,2.80461 0.08414,5.69109 -0.20202,8.50032c-0.40529,3.97885 -1.39698,7.59419 -0.59107,11.61044c0.93228,2.31076 1.50826,4.58624 3.33477,6.40489c2.44373,2.43322 6.23488,4.14949 8.30984,6.87712c1.44404,1.89826 0.35542,5.5147 0.24094,7.55188c-0.21128,3.7597 0.38352,7.48761 0.6034,11.18732c0.10652,-0.32637 0.32168,-0.54464 0.54235,-0.68918c0.40738,-0.94395 0.88239,-2.11549 1.00214,-2.22312c0.8762,-0.78758 2.07752,-1.11174 3.11628,-1.66762l1.72083,-0.31735c0,0 1.48594,-0.20491 1.69085,1.28103zM245.91146,206.62479c-0.07881,0.17855 -0.17315,0.34681 -0.29159,0.49876c-0.06043,0.07753 -1.27988,1.11511 -2.2718,1.95783c-0.03379,0.4816 -0.08198,0.96274 -0.14721,1.44343c2.06716,0.51834 4.25989,0.41116 6.36765,0.8238c4.37233,0.70571 10.72032,-0.61174 14.44745,-3.10305c0.36193,-0.24192 -0.68104,-0.56943 -1.08937,-0.72036c-2.12607,-0.78584 -4.09158,-0.77183 -6.3408,-0.77158c-3.59859,0.0004 -7.10242,-0.49032 -10.67433,-0.12883zM237.51535,213.13002l0.05638,-0.33994c-0.57865,-0.89582 -1.02223,-1.84772 -1.15097,-2.87265c-0.1912,-1.52215 0.40011,-4.21201 0.77061,-5.73659l-0.04479,-0.37529c0,0 0,-1.5 1.5,-1.5c1.5,0 1.5,1.5 1.5,1.5l-0.04479,1.1029c-0.07505,0.28986 -0.15895,0.62474 -0.24228,0.98382c0.17909,-0.03601 0.3858,-0.03951 0.62404,0.00386c-0.11344,-4.14272 -0.97712,-8.37832 -0.74793,-12.51922c0.03169,-0.57255 1.00731,-4.93915 0.24094,-5.75189c-2.28008,-2.41805 -5.5807,-4.04839 -7.95032,-6.42665c-2.17942,-2.18736 -2.95351,-4.85945 -4.05621,-7.63798c-0.88883,-4.45501 0.02907,-8.34998 0.48224,-12.77023c0.28827,-2.81177 -0.11179,-5.69864 0.20287,-8.50851c0.67734,-6.04864 2.33869,-11.79305 4.52903,-17.38801c0.62376,-1.59332 1.33628,-4.5798 2.46303,-5.95903c1.85567,-2.27149 3.65468,-4.75529 5.66172,-7.14779c2.6282,-1.95995 4.62577,-4.24559 7.58765,-5.94312c4.03269,-2.31124 8.195,-4.75657 12.34051,-6.86538c2.33427,-1.18743 5.0775,-1.97614 7.33129,-3.29322c6.74827,-3.94356 12.28102,-9.82533 19.29651,-13.34682c7.24326,-3.59354 14.61381,-3.11475 22.51783,-3.11475c11.42422,0 24.70519,-1.21479 34.70781,5.37632c8.56502,4.39941 10.91996,15.27345 17.01388,22.12245c4.26942,4.79843 10.18367,6.76998 15.59716,9.88846c3.18569,1.83514 5.97976,4.3664 8.78007,6.72632c4.86276,7.47551 8.28281,15.99646 10.66808,24.61058c1.09171,3.94257 1.53745,7.36716 3.39541,11.11013c2.42087,4.87699 7.71205,6.74682 10.68799,11.20269c2.5738,2.13984 3.82675,4.29579 5.61118,7.07785c3.83916,5.98553 9.19679,14.58306 4.86257,21.74275c-1.34933,2.22896 -4.48135,3.00633 -6.41269,4.63706c-4.7448,4.0063 -8.43755,8.09175 -11.24526,13.70724c-2.83384,4.9603 -6.3334,9.2349 -9.80627,13.58869c-2.68772,3.36948 -5.28046,6.86397 -9.1915,9.14395c-8.40229,4.89819 -18.8135,6.70067 -27.9673,9.74099c-5.31024,1.75977 -10.21225,4.45618 -15.83913,5.2503c-4.49001,0.63368 -9.50467,0.0232 -14.03716,0.0232c-10.06908,0 -19.8805,0.14541 -29.76478,-2.01353c-0.91249,-0.26803 -5.04847,-1.44439 -5.90348,-1.85108c-2.22942,-1.06043 -3.96121,-2.81936 -6.42011,-3.5987c-9.09833,-2.88367 -19.11985,-4.24343 -27.00373,-9.80441c-3.50803,-2.47443 -5.84403,-3.26985 -8.39271,-7.04894c-1.25972,-2.60573 -2.01757,-5.35697 -3.19948,-7.96665c-0.60497,-1.33579 -1.59743,-2.52297 -1.93817,-3.94923c-0.62008,-2.59549 -0.87118,-5.03994 -1.79325,-7.59139c-0.45035,-1.24617 -1.32705,-3.47267 -2.07159,-4.52219c-0.49911,-0.70355 -1.13651,-1.43144 -1.7681,-2.19728c-1.43681,-0.04152 -1.43681,-1.4991 -1.43681,-1.4991z" fill="#000000" stroke="none" stroke-width="0.5"/><path d="M251.3595,201.1259c-0.20491,-1.48594 -1.69118,-1.28208 -1.69118,-1.28208l-1.62497,0.28886c-1.03876,0.55588 -2.2402,0.87963 -3.1164,1.66721c-0.11975,0.10763 -0.59508,1.27815 -1.00246,2.2221c-0.22067,0.14454 -0.53074,0.3943 -0.63726,0.72067c-0.21988,-3.69971 -0.81632,-7.43382 -0.60504,-11.19352c0.11448,-2.03718 1.20243,-5.65804 -0.24161,-7.5563c-2.07496,-2.72763 -5.86638,-4.44812 -8.31011,-6.88134c-1.82651,-1.81865 -2.40244,-4.09755 -3.33472,-6.40831c-0.80591,-4.01625 0.18644,-7.63766 0.59173,-11.61651c0.28616,-2.80923 -0.11295,-5.69995 0.20294,-8.50456c0.65236,-5.7921 2.25007,-11.26556 4.34309,-16.61874c0.32149,-0.82224 1.18479,-4.26561 1.97279,-5.12992c1.95214,-2.1412 3.48603,-4.55199 5.42699,-6.89888c0.97278,-0.73359 1.67722,-1.77414 2.58555,-2.58618c2.82433,-2.52492 6.58807,-3.73457 9.81587,-5.58303c2.31223,-1.32414 4.46436,-2.94836 6.84999,-4.16053c2.38188,-1.21027 5.15314,-2.0219 7.45395,-3.36155c6.69593,-3.89871 12.18816,-9.80257 19.14774,-13.26749c5.90358,-2.97754 11.6975,-2.80119 18.18597,-2.80119c11.57462,0 26.10127,-1.86438 36.22347,4.97119c8.05866,3.90148 10.58108,15.07986 16.25981,21.48999c4.51201,5.09314 10.65332,7.25752 16.38795,10.54194c2.90518,1.66389 5.45344,3.99749 8.03071,6.1168c4.52771,7.14111 7.77353,15.27627 10.03425,23.44687c1.1411,4.1241 1.67644,7.76926 3.62132,11.68917c2.58252,5.20509 8.00788,7.15877 11.12174,11.83808c2.50708,2.09402 3.57456,3.97917 5.31709,6.69591c2.89635,4.51564 7.17036,10.57966 5.78331,16.40139c-0.81276,3.41133 -4.31417,4.03534 -6.74341,6.07544c-5.02467,4.21977 -8.99704,8.66439 -11.9626,14.59545c-2.7157,4.7514 -6.07937,8.86672 -9.41571,13.02586c-2.54123,3.16794 -4.83037,6.46369 -8.5517,8.59897c-8.21873,4.71586 -18.39908,6.47317 -27.32237,9.43694c-5.11693,1.70313 -9.8613,4.33908 -15.27663,5.12332c-4.35076,0.63007 -9.27426,0.00057 -13.67095,0.00057c-9.81072,0 -19.40707,0.17513 -29.03816,-1.92249c-0.28221,-0.08306 -4.83098,-1.40028 -5.26586,-1.60745c-2.37477,-1.1313 -4.26572,-2.95296 -6.88774,-3.79414c-8.81601,-2.82829 -18.5524,-4.08909 -26.22338,-9.42069c-3.12234,-2.17014 -5.30762,-2.73417 -7.5036,-6.0771c-1.21792,-2.52814 -1.94008,-5.20293 -3.08319,-7.73913c-0.69304,-1.53763 -1.40391,-1.84204 -1.75848,-3.44344c-0.60167,-2.71739 -0.93274,-5.27588 -1.90442,-7.93332c-0.49953,-1.36616 -1.56906,-3.93928 -2.36438,-5.08886c-0.26912,-0.389 -0.6512,-0.82356 -1.07054,-1.28943c0.11325,-0.09589 0.29646,-0.24452 0.36944,-0.34989c2.25111,0.55106 5.11075,0.41618 6.62869,0.72715c4.75005,0.61578 10.81138,-0.35152 14.92349,-2.90056c2.39725,-1.48602 4.05237,-1.7513 2.23259,-5.13408c-0.5197,-0.96605 -3.25291,-1.91985 -4.24155,-2.13584c-2.70527,-0.59103 -5.39882,-0.18723 -8.1261,-0.33992c-2.18782,-0.12249 -4.2581,-0.28308 -6.36664,-0.23009c0.55233,-0.28812 1.28449,-0.47125 1.85566,-0.72905l0.69427,0.00327c0,0 1.4857,-0.20564 1.28079,-1.69158z" data-paper-data="{&quot;noHover&quot;:false,&quot;origItem&quot;:[&quot;Path&quot;,{&quot;applyMatrix&quot;:true,&quot;segments&quot;:[[[251.40708,201.11051],[0,0],[0.20491,1.48594]],[250.12605,202.80136],[[249.33704,202.83011],[0,0],[-0.57117,0.2578]],[[247.57614,203.52722],[0.55233,-0.28812],[2.10854,-0.05299]],[[253.94229,203.75592],[-2.18782,-0.12249],[2.72728,0.15269]],[[262.06755,204.09372],[-2.70527,-0.59103],[0.98864,0.21599]],[[266.30796,206.22706],[-0.5197,-0.96605],[1.81978,3.38278]],[[263.98678,211.40746],[2.39725,-1.48602],[-4.11211,2.54904]],[[249.06201,214.30555],[4.75005,0.61578],[-1.51794,-0.31097]],[[242.4325,213.57662],[2.25111,0.55106],[-0.07298,0.10537]],[[242.15462,213.88631],[0.11325,-0.09589],[0.41934,0.46587]],[[243.22479,215.17493],[-0.26912,-0.389],[0.79532,1.14958]],[[245.58779,220.26102],[-0.49953,-1.36616],[0.97168,2.65744]],[[247.49004,228.1907],[-0.60167,-2.71739],[0.35457,1.6014]],[[249.24736,231.63245],[-0.69304,-1.53763],[1.14311,2.5362]],[[252.32796,239.36825],[-1.21792,-2.52814],[2.19598,3.34293]],[[259.82812,245.4417],[-3.12234,-2.17014],[7.67098,5.3316]],[[286.03947,254.85384],[-8.81601,-2.82829],[2.62202,0.84118]],[[292.92313,258.64613],[-2.37477,-1.1313],[0.43488,0.20717]],[[298.18604,260.25251],[-0.28221,-0.08306],[9.63109,2.09762]],[[327.20757,262.17251],[-9.81072,0],[4.39669,0]],[[340.87062,262.17273],[-4.35076,0.63007],[5.41533,-0.78424]],[[356.13824,257.05194],[-5.11693,1.70313],[8.92329,-2.96377]],[[383.44676,247.62308],[-8.21873,4.71586],[3.72133,-2.13528]],[[391.99362,239.02867],[-2.54123,3.16794],[3.33634,-4.15914]],[[401.4039,226.00982],[-2.7157,4.7514],[2.96556,-5.93106]],[[413.36197,211.42326],[-5.02467,4.21977],[2.42924,-2.0401]],[[420.10405,205.35171],[-0.81276,3.41133],[1.38705,-5.82173]],[[414.3191,188.95802],[2.89635,4.51564],[-1.74253,-2.71674]],[[409.00167,182.26564],[2.50708,2.09402],[-3.11386,-4.67931]],[[397.88006,170.43524],[2.58252,5.20509],[-1.94488,-3.91991]],[[394.26023,158.75437],[1.1411,4.1241],[-2.26072,-8.1706]],[[384.23356,135.32356],[4.52771,7.14111],[-2.57727,-2.11931]],[[376.20724,129.2121],[2.90518,1.66389],[-5.73463,-3.28442]],[[359.8303,118.67892],[4.51201,5.09314],[-5.67873,-6.41013]],[[343.58476,97.19458],[8.05866,3.90148],[-10.1222,-6.83557]],[[307.38274,92.22353],[11.57462,0],[-6.48847,0]],[[289.20655,95.02156],[5.90358,-2.97754],[-6.95958,3.46492]],[[270.06995,108.28228],[6.69593,-3.89871],[-2.30081,1.33965]],[[262.61928,111.64095],[2.38188,-1.21027],[-2.38563,1.21217]],[[255.77221,115.79844],[2.31223,-1.32414],[-3.2278,1.84846]],[[245.95975,121.37715],[2.82433,-2.52492],[-0.90833,0.81204]],[[243.37523,123.9618],[0.97278,-0.73359],[-1.94096,2.34689]],[[237.95048,130.85687],[1.95214,-2.1412],[-0.788,0.86431]],[[235.97892,135.98431],[0.32149,-0.82224],[-2.09302,5.35318]],[[231.63878,152.59482],[0.65236,-5.7921],[-0.31589,2.80461]],[[231.43676,161.09514],[0.28616,-2.80923],[-0.40529,3.97885]],[[230.84569,172.70558],[-0.80591,-4.01625],[0.93228,2.31076]],[[234.18046,179.11047],[-1.82651,-1.81865],[2.44373,2.43322]],[[242.4903,185.98759],[-2.07496,-2.72763],[1.44404,1.89826]],[[242.73124,193.53947],[0.11448,-2.03718],[-0.21128,3.7597]],[[243.33464,204.72679],[-0.21988,-3.69971],[0.10652,-0.32637]],[[243.87699,204.03761],[-0.22067,0.14454],[0.40738,-0.94395]],[[244.87913,201.81449],[-0.11975,0.10763],[0.8762,-0.78758]],[[247.99541,200.14687],[-1.03876,0.55588],[0,0]],[249.71624,199.82952],[[251.40709,201.11055],[-0.20491,-1.48594],[0,0]]],&quot;closed&quot;:true,&quot;fillColor&quot;:[0,0,0,1],&quot;strokeWidth&quot;:0.5}]}" fill="#ff7e6a" stroke="none" stroke-width="0.25"/><path d="M256.62542,206.72314c2.24922,-0.00025 4.22447,0.0083 6.35054,0.79414c0.40833,0.15093 1.45179,0.48267 1.08986,0.72459c-3.72713,2.49131 -10.16838,3.8373 -14.54071,3.13159c-2.10776,-0.41264 -4.30658,-0.32314 -6.37374,-0.84148c0.06523,-0.48069 0.11291,-0.96866 0.1467,-1.45026c0.99192,-0.84272 2.2127,-1.89209 2.27313,-1.96962c0.11844,-0.15195 0.21368,-0.3235 0.29249,-0.50205c3.57191,-0.36149 7.16314,0.11351 10.76173,0.11311z" data-paper-data="{&quot;noHover&quot;:false,&quot;origItem&quot;:[&quot;Path&quot;,{&quot;applyMatrix&quot;:true,&quot;segments&quot;:[[[245.91146,206.62479],[3.57191,-0.36149],[-0.07881,0.17855]],[[245.61987,207.12355],[0.11844,-0.15195],[-0.06043,0.07753]],[[243.34807,209.08138],[0.99192,-0.84272],[-0.03379,0.4816]],[[243.20086,210.52481],[0.06523,-0.48069],[2.06716,0.51834]],[[249.56851,211.34861],[-2.10776,-0.41264],[4.37233,0.70571]],[[264.01596,208.24556],[-3.72713,2.49131],[0.36193,-0.24192]],[[262.92659,207.5252],[0.40833,0.15093],[-2.12607,-0.78584]],[[256.58579,206.75362],[2.24922,-0.00025],[-3.59859,0.0004]]],&quot;closed&quot;:true,&quot;fillColor&quot;:[0,0,0,1],&quot;strokeWidth&quot;:0.5}]}" fill="#f4eca3" stroke="none" stroke-width="0.25"/><path d="M296.82304,134.14179c0.1414,-0.5849 0.28399,-1.1697 0.39056,-1.75796c0.27374,-1.511 -0.01937,-3.07115 -0.01937,-4.60674c0,-4.22731 0.28245,-8.2938 -1.30983,-12.22531c-1.22147,-3.01595 -2.38826,-5.53754 -4.77794,-7.79807c-0.502,-0.47487 -1.11952,-1.18291 -1.87238,-0.21059c-0.59065,0.76282 -0.70846,1.85203 -1.38141,2.54332c-0.84645,2.67784 -0.98494,5.77594 -0.98773,8.6025c-0.00045,0.45578 -0.04166,2.95886 0.12773,3.2347c1.13379,1.84623 3.64521,2.7882 4.83262,4.82055c0.66527,1.13867 0.6756,2.49362 1.23002,3.66907c0.7452,1.5799 2.62137,2.46933 3.76772,3.72853zM299.34224,136.57012c0.23245,0.17877 0.43052,0.46276 0.51993,0.90977c0.09915,0.49573 -0.0022,0.8578 -0.18015,1.11999c0.34624,-0.42355 0.80662,-0.84625 1.40537,-1.27538c0.4273,-0.30625 1.06803,0.10455 1.5769,-0.02744c0.76659,-0.19883 0.4568,-1.51809 0.62884,-2.29113c0.16172,-0.72669 1.25124,-3.86135 1.83068,-4.2298c3.15412,-2.00557 7.51295,0.94847 9.09692,3.50334c1.16154,1.87351 0.7184,2.46316 0.84681,4.67056c0.15453,2.65653 0.61908,4.96265 0.00259,7.19701c0.87534,0.0941 1.72651,0.22492 2.53068,0.37594c0.86012,0.16153 1.86582,0.11254 2.53763,0.6734c0.74766,0.62418 0.90938,1.72262 1.36406,2.58393c1.40886,4.26995 0.76901,8.97876 2.75605,13.07774c1.42039,2.93004 4.41616,1.87582 7.05041,3.00771c1.12499,0.48339 1.82586,1.63899 2.81925,2.35484c1.66338,1.19865 3.67448,1.64957 5.27943,3.04008c1.36816,1.18536 2.64513,2.91014 4.53551,3.3688c3.07625,0.74639 6.93978,-0.40052 10.05393,-0.4088c3.5611,0.24514 5.92926,0.45797 8.9298,2.48112c3.18248,2.14582 6.59858,4.40267 8.2814,8.01945c1.40259,3.0145 -1.55293,6.70104 -3.04884,9.15051c-2.51534,4.11875 -4.69415,9.11301 -8.48629,12.22473c-1.39171,1.142 -2.94812,1.95815 -4.54753,2.69915l-0.0966,0.38736c-1.343,1.53943 -0.59965,3.01135 0.46441,4.52917c0.23982,1.00752 0.8301,1.99281 0.71947,3.02255c-0.35423,3.29719 -7.05972,6.17556 -9.71836,7.18508c-1.00859,0.38297 -4.3474,0.55165 -5.28702,1.13558c-4.20222,2.61146 -10.57921,6.60757 -15.98645,4.96014c-1.28676,-0.39204 -2.14754,-1.70063 -3.41591,-2.14859c-1.27014,-0.44859 -2.60165,-0.87082 -3.67038,-1.69077c-5.58402,-3.42142 -12.10925,-4.47815 -18.31818,-6.14547c-2.41561,-0.64868 -4.65897,-2.08833 -6.89911,-3.1144c-4.52784,-2.07393 -7.80268,-4.82232 -7.8408,-10.14799c0,0 0,-0.49428 0.28373,-0.91536c-0.32462,-0.44345 -0.53019,-1.01131 -0.53823,-1.7842c-0.02426,-2.33336 4.31825,-3.11449 4.95872,-4.62953c0.52556,-1.24321 -0.15836,-2.69637 -0.15836,-4.0461c0,-1.62749 0.01081,-3.83105 -0.36907,-5.88071c-0.88856,0.48128 -1.96791,0.79661 -2.73712,1.42156l-1.30659,0.3287c0,0 -1.5,0 -1.5,-1.5c0,-1.16176 0.8998,-1.42373 1.30559,-1.4828c0.53118,-0.4626 1.03785,-0.96274 1.65648,-1.2914c0.38082,-0.20232 0.98265,0.15086 1.28405,-0.15755c0.1913,-0.19575 -0.34996,-0.42596 -0.4768,-0.6685c-0.2464,-0.47115 -0.47501,-0.95156 -0.69352,-1.43654c-0.60727,-0.45373 -1.34451,-0.76503 -2.23952,-0.88332c0,0 -1.47087,-0.29417 -1.1767,-1.76505c0.29417,-1.47087 1.76505,-1.1767 1.76505,-1.1767c0.02734,0.00655 0.05457,0.01319 0.08171,0.01992c-0.92596,-2.52875 -1.50489,-5.0631 -1.08131,-7.82241c0.46395,-1.1712 1.47756,-3.96564 2.2766,-4.76468c1.69069,-1.69069 4.41838,-1.9026 6.16482,-3.94402c3.08585,-3.60706 5.17863,-7.96708 8.21905,-11.58403c0.56416,-0.67113 1.035,-1.38157 1.50831,-2.0746c-0.06932,-0.09924 -0.10398,-0.16856 -0.10398,-0.16856l-0.60588,-1.21175c-0.71402,-1.43154 -1.32729,-2.91386 -1.88999,-4.41136c-0.82291,-2.4919 -1.52487,-4.35993 -0.13405,-6.19675c-0.35994,0.39752 -0.88422,0.50237 -0.88422,0.50237l-2.66093,0.06657c-1.15341,-3.4777 -4.04936,-4.46783 -5.62656,-7.50592c-1.06916,-2.05948 -0.86557,-3.35299 -2.50047,-5.13217c-0.68749,-0.74815 -3.51133,-3.2661 -3.55442,-3.34277c-0.5514,-0.98111 -0.47696,-3.36227 -0.47814,-4.6417c-0.00319,-3.44164 0.32387,-6.93401 1.43578,-10.17969c0.79983,-0.7763 0.76351,-2.23126 1.64797,-2.90957c4.92632,-3.77806 8.71457,1.97646 10.57001,5.96774c2.83655,6.10181 3.8169,14.55631 2.65617,21.29696c-0.21408,1.24321 -0.67199,2.46064 -0.83262,3.70574zM311.69236,148.94234c-0.01639,-0.01311 -0.03237,-0.02627 -0.04794,-0.03947c-1.89342,0.18908 -3.67651,0.63805 -4.64152,1.15088c-1.78978,0.95115 -2.68783,3.22674 -3.91114,4.68217c-3.04367,3.62121 -5.14631,8.00487 -8.24917,11.61931c-0.80773,0.94091 -2.33785,2.24036 -3.28114,2.86754c-0.93987,0.62491 -2.32063,0.52043 -3.11871,1.31852c-0.12429,0.12429 -1.33272,3.15255 -1.41889,3.3654c-0.54559,2.90337 1.00616,6.12414 2.156,8.80944c0.08212,0.19178 0.18873,0.41473 0.30806,0.66053c2.7415,2.97619 3.13466,7.81217 3.13466,12.01645c0,0.63651 0.04562,4.93925 -0.15836,5.38775c-0.35349,0.77723 -4.60936,3.23926 -4.64955,3.50055c-0.10031,0.65218 1.23322,0.47996 1.81243,0.79605c0.6305,0.34408 1.21744,0.76421 1.84775,1.10865c3.37743,1.84562 5.86138,3.21156 9.66706,4.22457c3.62428,2.14875 7.20113,1.75764 11.14562,3.06143c3.1579,1.0438 6.73361,2.98468 10.05571,3.25649c1.94248,0.15893 4.37322,-0.55103 6.32555,-0.74246c2.70493,-0.26523 5.64676,0.46222 8.31341,-0.21078c4.15817,-1.04943 6.73061,-4.62262 10.40279,-6.48354c3.36151,-2.17465 7.32989,-3.0522 10.44197,-5.55996c3.47549,-2.8006 5.48442,-7.68539 7.77387,-11.42641c0.88897,-1.4526 2.7584,-3.92889 3.11423,-5.66286c0.22226,-1.08311 -0.98282,-2.00561 -1.69544,-2.851c-1.60864,-1.90834 -3.77227,-3.20952 -5.7945,-4.6192c-2.47115,-1.72263 -4.35206,-1.7514 -7.33036,-1.95347c-3.34706,-0.01066 -7.32403,1.17656 -10.64082,0.3303c-3.13862,-0.8008 -4.51649,-3.45663 -7.09585,-4.98804c-1.2145,-0.72106 -2.63193,-1.08969 -3.78396,-1.90686c-0.6526,-0.46291 -1.53534,-1.74949 -2.35444,-2.07975c-3.70614,-1.4943 -6.07504,-0.18906 -8.40917,-4.30667c-2.31837,-4.08982 -1.44247,-9.07092 -2.89829,-13.38572c-0.48324,-1.48319 -2.62772,-2.04236 -5.00464,-2.07323c-0.26438,0.26257 -1.06226,0.89574 -2.0152,0.13338zM312.07156,139.10501c-0.07297,-1.38429 0.31212,-2.17354 -0.4276,-3.28926c-0.75863,-1.14423 -3.24489,-3.47762 -4.83825,-2.55543c-0.4512,0.26114 -0.86437,4.60902 -1.01399,4.88161c-0.44304,0.80717 -1.17375,1.48089 -1.97937,1.92675c-0.88241,0.48836 -1.87432,-0.8061 -2.16035,0.84118c-0.06782,0.39056 0.82095,2.85372 0.87976,3.02823c0.5174,1.38279 1.0836,2.75107 1.74527,4.07092l0.10981,0.21962c0.34462,-0.29484 0.72586,-0.5634 1.15843,-0.79698c1.89456,-1.02301 4.17988,-1.41142 6.47706,-1.43895c0.95437,-1.97187 0.16423,-4.70619 0.04924,-6.8877zM294.17107,214.19075c2.09248,0.94326 4.17663,2.34823 6.43018,2.94437c6.58916,1.74306 13.28802,3.0548 19.24619,6.57795c0.8349,0.70585 1.9699,0.95657 2.99427,1.33862c1.2069,0.45013 2.01917,1.70861 3.24873,2.09255c4.70207,1.46827 10.01946,-2.83163 13.70152,-4.73389c1.602,-0.82764 3.88328,-0.61001 5.61876,-1.28793c2.33488,-0.91206 8.5107,-3.30212 7.35979,-6.15105c-1.00472,-1.57245 -1.51324,-3.01064 -1.38014,-4.47367c-0.86004,0.41833 -1.70516,0.87132 -2.51621,1.39842c-3.98503,1.96276 -6.59638,5.63555 -11.15745,6.78794c-2.87134,0.72546 -5.86146,-0.00769 -8.75234,0.28749c-2.16728,0.2213 -4.81634,0.91851 -6.97822,0.73574c-3.57016,-0.30183 -7.35776,-2.28334 -10.73097,-3.41838c-3.96751,-1.33501 -7.54899,-0.94008 -11.26425,-3.10779c-4.5437,-1.16593 -7.78854,-3.2069 -11.80748,-5.47384c-0.02226,-0.01255 -0.0446,-0.02502 -0.06703,-0.03741c0.34706,3.44378 2.90549,5.10128 6.05464,6.52088z" fill="#000000" stroke="none" stroke-width="0.5"/><path d="M296.83951,134.189c-1.14635,-1.2592 -3.03413,-2.14607 -3.77933,-3.72597c-0.55442,-1.17545 -0.57181,-2.53021 -1.23708,-3.66888c-1.18741,-2.03235 -3.74503,-3.01171 -4.87882,-4.85794c-0.16939,-0.27584 -0.12675,-2.80863 -0.1263,-3.26441c0.00279,-2.82656 0.16953,-5.95387 1.01598,-8.63171c0.67295,-0.69129 0.79877,-1.78297 1.38942,-2.54579c0.75286,-0.97232 1.37725,-0.26529 1.87925,0.20958c2.38968,2.26053 3.59032,4.79199 4.81179,7.80794c1.59228,3.93151 1.30877,8.07875 1.30877,12.30606c0,1.53559 0.28407,3.10084 0.01033,4.61184c-0.10657,0.58826 -0.2526,1.1744 -0.394,1.7593z" data-paper-data="{&quot;noHover&quot;:false,&quot;origItem&quot;:[&quot;Path&quot;,{&quot;applyMatrix&quot;:true,&quot;segments&quot;:[[[296.82304,134.14179],[0,0],[0.1414,-0.5849]],[[297.2136,132.38383],[-0.10657,0.58826],[0.27374,-1.511]],[[297.19423,127.77709],[0,1.53559],[0,-4.22731]],[[295.8844,115.55178],[1.59228,3.93151],[-1.22147,-3.01595]],[[291.10646,107.75371],[2.38968,2.26053],[-0.502,-0.47487]],[[289.23408,107.54312],[0.75286,-0.97232],[-0.59065,0.76282]],[[287.85267,110.08644],[0.67295,-0.69129],[-0.84645,2.67784]],[[286.86494,118.68894],[0.00279,-2.82656],[-0.00045,0.45578]],[[286.99267,121.92364],[-0.16939,-0.27584],[1.13379,1.84623]],[[291.82529,126.74419],[-1.18741,-2.03235],[0.66527,1.13867]],[[293.05531,130.41326],[-0.55442,-1.17545],[0.7452,1.5799]],[[296.82303,134.14179],[-1.14635,-1.2592],[0,0]]],&quot;closed&quot;:true,&quot;fillColor&quot;:[0,0,0,1],&quot;strokeWidth&quot;:0.5}]}" fill="#f4eca3" stroke="none" stroke-width="0.25"/><path d="M312.11937,139.09034c0.11499,2.18151 0.89129,4.96718 -0.06308,6.93905c-2.29718,0.02753 -4.6274,0.42803 -6.52196,1.45104c-0.43257,0.23358 -0.81953,0.5005 -1.16415,0.79534l-0.11086,-0.22001c-0.66167,-1.31985 -1.2506,-2.70548 -1.768,-4.08827c-0.05881,-0.17451 -0.95708,-2.66458 -0.88926,-3.05514c0.28603,-1.64728 1.27863,-0.36395 2.16104,-0.85231c0.80562,-0.44586 1.56282,-1.15547 2.00586,-1.96264c0.14962,-0.27259 0.58377,-4.62592 1.03497,-4.88706c1.59336,-0.92219 4.11581,1.4249 4.87444,2.56913c0.73972,1.11572 0.36802,1.92659 0.44099,3.31088z" data-paper-data="{&quot;noHover&quot;:false,&quot;origItem&quot;:[&quot;Path&quot;,{&quot;applyMatrix&quot;:true,&quot;segments&quot;:[[[312.07156,139.10501],[0,0],[-0.07297,-1.38429]],[[311.64396,135.81575],[0.73972,1.11572],[-0.75863,-1.14423]],[[306.80571,133.26032],[1.59336,-0.92219],[-0.4512,0.26114]],[[305.79172,138.14193],[0.14962,-0.27259],[-0.44304,0.80717]],[[303.81235,140.06868],[0.80562,-0.44586],[-0.88241,0.48836]],[[301.652,140.90986],[0.28603,-1.64728],[-0.06782,0.39056]],[[302.53176,143.93809],[-0.05881,-0.17451],[0.5174,1.38279]],[[304.27703,148.00901],[-0.66167,-1.31985],[0,0]],[[304.38684,148.22863],[0,0],[0.34462,-0.29484]],[[305.54527,147.43165],[-0.43257,0.23358],[1.89456,-1.02301]],[[312.02233,145.9927],[-2.29718,0.02753],[0.95437,-1.97187]],[[312.07157,139.105],[0.11499,2.18151],[0,0]]],&quot;closed&quot;:true,&quot;fillColor&quot;:[0,0,0,1],&quot;strokeWidth&quot;:0.5}]}" fill="#f4eca3" stroke="none" stroke-width="0.25"/><path d="M294.12147,214.18441c-3.14915,-1.4196 -5.70581,-3.08536 -6.05287,-6.52914c0.02243,0.01239 0.14042,0.05402 0.16269,0.06658c4.01894,2.26694 7.26485,4.30376 11.80855,5.4697c3.71526,2.16771 7.29738,1.76914 11.26489,3.10415c3.37321,1.13504 7.08303,3.06851 10.65319,3.37034c2.16188,0.18277 4.78987,-0.48144 6.95715,-0.70274c2.89088,-0.29518 5.88042,0.44296 8.75176,-0.2825c4.56107,-1.15239 7.17328,-4.81213 11.15831,-6.77489c0.81105,-0.5271 1.75394,-1.00102 2.61399,-1.41935c-0.1331,1.46303 0.37652,2.90837 1.38124,4.48082c1.15091,2.84893 -5.02526,5.25008 -7.36014,6.16214c-1.73548,0.67792 -4.01777,0.4654 -5.61977,1.29304c-3.68206,1.90226 -9.02279,6.23317 -13.72486,4.7649c-1.22956,-0.38394 -2.05214,-1.63789 -3.25904,-2.08802c-1.02437,-0.38205 -2.17958,-0.63081 -3.01448,-1.33666c-5.95817,-3.52315 -12.70164,-4.88566 -19.2908,-6.62872c-2.25355,-0.59614 -4.33731,-2.00639 -6.42979,-2.94965z" data-paper-data="{&quot;noHover&quot;:false,&quot;origItem&quot;:[&quot;Path&quot;,{&quot;applyMatrix&quot;:true,&quot;segments&quot;:[[[588.34214,428.3815],[0,0],[4.18496,1.88652]],[[601.2025,434.27024],[-4.5071,-1.19228],[13.17832,3.48612]],[[639.69488,447.42614],[-11.91634,-7.0463],[1.6698,1.4117]],[[645.68342,450.10338],[-2.04874,-0.7641],[2.4138,0.90026]],[[652.18088,454.28848],[-2.45912,-0.76788],[9.40414,2.93654]],[[679.58392,444.8207],[-7.36412,3.80452],[3.204,-1.65528]],[[690.82144,442.24484],[-3.47096,1.35584],[4.66976,-1.82412]],[[705.54102,429.94274],[2.30182,5.69786],[-2.00944,-3.1449]],[[702.78074,420.9954],[-0.2662,2.92606],[-1.72008,0.83666]],[[697.74832,423.79224],[1.6221,-1.0542],[-7.97006,3.92552]],[[675.43342,437.36812],[9.12214,-2.30478],[-5.74268,1.45092]],[[657.92874,437.9431],[5.78176,-0.59036],[-4.33456,0.4426]],[[643.9723,439.41458],[4.32376,0.36554],[-7.14032,-0.60366]],[[622.51036,432.57782],[6.74642,2.27008],[-7.93502,-2.67002]],[[599.98186,426.36224],[7.43052,4.33542],[-9.0874,-2.33186]],[[576.3669,415.41456],[8.03788,4.53388],[-0.04452,-0.0251]],[[576.23284,415.33974],[0.04486,0.02478],[0.69412,6.88756]],[[588.34212,428.3815],[-6.2983,-2.8392],[0,0]]],&quot;closed&quot;:true,&quot;fillColor&quot;:[0,0,0,1],&quot;strokeWidth&quot;:0.5}]}" fill="#f8f778" stroke="none" stroke-width="0.25"/><path d="M311.67086,148.8972c0.95294,0.76236 1.75315,0.12815 2.01753,-0.13442c2.37692,0.03087 4.52685,0.58813 5.01009,2.07133c1.45582,4.3148 0.57774,9.29657 2.89611,13.38639c2.33413,4.11761 4.72657,2.81036 8.43271,4.30466c0.8191,0.33026 1.71177,1.61944 2.36437,2.08235c1.15203,0.81717 2.5835,1.19386 3.798,1.91492c2.57936,1.53141 3.97298,4.20994 7.1116,5.01074c3.31679,0.84626 7.29531,-0.33533 10.64237,-0.32467c2.9783,0.20207 4.86002,0.2359 7.33117,1.95853c2.02223,1.40968 4.18614,2.71752 5.79478,4.62586c0.71262,0.84539 1.9175,1.7713 1.69524,2.85441c-0.35583,1.73397 -2.22656,4.21779 -3.11553,5.67039c-2.28945,3.74102 -4.30586,8.64221 -7.78135,11.44281c-3.11208,2.50776 -7.09177,3.39691 -10.45328,5.57156c-3.67218,1.86092 -6.26094,5.44206 -10.41911,6.49149c-2.66665,0.673 -5.62058,-0.05265 -8.32551,0.21258c-1.95233,0.19143 -4.39231,0.90077 -6.33479,0.74184c-3.3221,-0.27181 -6.91242,-2.21744 -10.07032,-3.26124c-3.94449,-1.30379 -7.53349,-0.92132 -11.15777,-3.07008c-3.80568,-1.01301 -6.29694,-2.38784 -9.67437,-4.23346c-0.63031,-0.34444 -1.21839,-0.76644 -1.84889,-1.11051c-0.57921,-0.31609 -1.9136,-0.14541 -1.81329,-0.79758c0.04019,-0.26129 4.29554,-2.72431 4.64903,-3.50154c0.20398,-0.4485 0.15585,-4.75706 0.15585,-5.39356c0,-4.20428 -0.39609,-9.05634 -3.13759,-12.03253c-0.11933,-0.2458 -0.22595,-0.46962 -0.30806,-0.66139c-1.14984,-2.6853 -2.70045,-5.91661 -2.15486,-8.81998c0.08617,-0.21285 1.29571,-3.24532 1.42,-3.36961c0.79808,-0.79809 2.17976,-0.69628 3.11962,-1.32119c0.94329,-0.62718 2.47548,-1.93141 3.28321,-2.87232c3.10286,-3.61444 5.21719,-8.01331 8.26086,-11.63452c1.22331,-1.45543 2.12759,-3.7357 3.91737,-4.68686c0.96501,-0.51283 2.75339,-0.96473 4.64681,-1.15381c0.01557,0.0132 0.03158,0.02634 0.04797,0.03946z" data-paper-data="{&quot;noHover&quot;:false,&quot;origItem&quot;:[&quot;Path&quot;,{&quot;applyMatrix&quot;:true,&quot;segments&quot;:[[[623.38472,297.88468],[0,0],[-0.03278,-0.02622]],[[623.28884,297.80574],[0.03114,0.0264],[-3.78684,0.37816]],[[614.0058,300.1075],[1.93002,-1.02566],[-3.57956,1.9023]],[[606.18352,309.47184],[2.44662,-2.91086],[-6.08734,7.24242]],[[589.68518,332.71046],[6.20572,-7.22888],[-1.61546,1.88182]],[[583.1229,338.44554],[1.88658,-1.25436],[-1.87974,1.24982]],[[576.88548,341.08258],[1.59616,-1.59618],[-0.24858,0.24858]],[[574.0477,347.81338],[0.17234,-0.4257],[-1.09118,5.80674]],[[578.3597,365.43226],[-2.29968,-5.3706],[0.16424,0.38356]],[[578.97582,366.75332],[-0.23866,-0.4916],[5.483,5.95238]],[[585.24514,390.78622],[0,-8.40856],[0,1.27302]],[[584.92842,401.56172],[0.40796,-0.897],[-0.70698,1.55446]],[[575.62932,408.56282],[0.08038,-0.52258],[-0.20062,1.30436]],[[579.25418,410.15492],[-1.15842,-0.63218],[1.261,0.68816]],[[582.94968,412.37222],[-1.26062,-0.68888],[6.75486,3.69124]],[[602.2838,420.82136],[-7.61136,-2.02602],[7.24856,4.2975]],[[624.57504,426.94422],[-7.88898,-2.60758],[6.3158,2.0876]],[[644.68646,433.4572],[-6.6442,-0.54362],[3.88496,0.31786]],[[657.33756,431.97228],[-3.90466,0.38286],[5.40986,-0.53046]],[[673.96438,431.55072],[-5.3333,1.346],[8.31634,-2.09886]],[[694.76996,418.58364],[-7.34436,3.72184],[6.72302,-4.3493]],[[715.6539,407.46372],[-6.22416,5.01552],[6.95098,-5.6012]],[[731.20164,384.6109],[-4.5789,7.48204],[1.77794,-2.9052]],[[737.4301,373.28518],[-0.71166,3.46794],[0.44452,-2.16622]],[[734.03922,367.58318],[1.42524,1.69078],[-3.21728,-3.81668]],[[722.45022,358.34478],[4.04446,2.81936],[-4.9423,-3.44526]],[[707.7895,354.43784],[5.9566,0.40414],[-6.69412,-0.02132]],[[686.50786,355.09844],[6.63358,1.69252],[-6.27724,-1.6016]],[[672.31616,345.12236],[5.15872,3.06282],[-2.429,-1.44212]],[[664.74824,341.30864],[2.30406,1.63434],[-1.3052,-0.92582]],[[660.03936,337.14914],[1.6382,0.66052],[-7.41228,-2.9886]],[[643.22102,328.5358],[4.66826,8.23522],[-4.63674,-8.17964]],[[637.42444,301.76436],[2.91164,8.6296],[-0.96648,-2.96638]],[[627.41516,297.6179],[4.75384,0.06174],[-0.52876,0.52514]],[[623.38476,297.88466],[1.90588,1.52472],[0,0]]],&quot;closed&quot;:true,&quot;fillColor&quot;:[0,0,0,1],&quot;strokeWidth&quot;:0.5}]}" fill="#fffec6" stroke="none" stroke-width="0.25"/><path d="M200.73321,287.32043v-215.49032h239.22549v215.49032z" fill="none" stroke="#000000" stroke-width="0"/></g></g></svg>