<svg version="1.1" xmlns="http://www.w3.org/2000/svg" xmlns:xlink="http://www.w3.org/1999/xlink" width="239.22549" height="217.99019" viewBox="0,0,239.22549,217.99019"><g transform="translate(-200.7332,-71.8301)"><g data-paper-data="{&quot;isPaintingLayer&quot;:true}" fill-rule="nonzero" stroke-linecap="butt" stroke-linejoin="miter" stroke-miterlimit="10" stroke-dasharray="" stroke-dashoffset="0" style="mix-blend-mode: normal"><path d="M218.53713,191.53041c2.44542,-4.49648 6.34732,-6.7823 9.8922,-10.39515c3.44298,-3.50899 5.9768,-8.05377 9.42734,-11.50937c2.46549,-2.46911 4.25679,-3.70853 6.12689,-6.82303c1.82169,-3.52382 0.62899,-7.46 -0.20194,-11.10878c-0.85947,-3.77414 -1.55309,-8.35223 -1.43896,-12.24735c0.16919,-5.77408 2.68376,-12.65876 6.23877,-17.16404c1.98118,-2.51075 5.68591,-4.22821 7.99636,-6.5092c4.40728,-2.59391 9.40195,-5.38354 13.22504,-8.8041c1.92729,-1.72436 3.50235,-3.71427 5.64304,-5.25472c2.99264,-2.15353 6.49732,-2.7732 9.55262,-4.78184c2.45393,-1.61328 4.01862,-4.06381 6.64,-5.49994c4.10654,-2.24978 10.05201,-2.73221 14.62571,-2.90808c11.38416,-0.13828 22.51497,0.33368 33.82536,1.03872c8.49898,0.52978 16.74064,0.40781 25.21724,1.68024c6.37416,1.23069 12.86004,1.55404 17.91024,6.07687c9.55906,8.56085 11.71881,22.15837 22.35988,29.71088c3.10584,1.57857 6.1634,3.29187 9.27415,4.84738c2.31938,1.1598 3.142,0.98976 5.13808,2.81385c4.3405,3.9665 5.95622,10.85997 7.11875,16.33552c1.73051,8.15074 4.78564,15.94049 6.5826,24.10842c0.18172,5.73812 0.30499,11.41727 0.83242,17.11659c0.37493,4.05145 2.33703,7.56884 2.83412,11.54787c0.59671,4.77647 0.53028,10.48399 0.1237,15.2796c-0.5148,6.07195 -3.68042,11.56815 -4.92383,17.46458c-1.52284,7.11668 -4.33851,11.747 -9.12165,17.02983c-1.29083,1.42569 -2.64293,3.47175 -4.24024,4.58431c-1.88151,1.3105 -4.47379,2.00129 -6.50805,3.13243c-1.4103,0.78419 -3.50895,1.39493 -4.7869,2.20769c-0.60414,0.38422 -0.88905,1.18935 -1.53087,1.50665c-0.75212,0.37183 -1.67423,0.21357 -2.47232,0.47244c-3.7413,1.21354 -7.38574,2.6659 -11.01039,4.25137c-0.04921,0.01982 -5.17182,2.0736 -5.34928,2.1817c-1.34962,0.82211 -2.24504,2.29641 -3.64218,3.03488c-4.02795,2.12902 -8.59988,3.32402 -12.60747,5.56723c-0.12143,0.06797 -4.72945,2.92869 -4.90227,3.00477c-8.75273,3.85355 -18.05226,3.82102 -27.22035,5.94117c-2.9983,0.67744 -5.2904,0.25106 -8.28649,-0.07276c-6.03062,-0.65179 -11.93921,-0.65703 -17.93592,-1.88716c-3.61696,-0.74196 -7.23292,-2.20891 -10.89134,-2.66452c-3.89475,-0.48505 -7.75888,-0.21424 -11.58736,-1.21356c-3.08713,-0.80581 -5.16409,-2.18801 -8.39457,-2.51145c-9.96276,-1.04873 -20.55337,-1.47903 -29.87115,-5.5565c-2.62747,-1.14978 -2.71964,-1.75556 -5.26888,-2.90278c-3.38606,-1.5238 -7.61972,-3.2523 -10.16247,-6.15685c-2.26256,-2.58449 -3.74292,-6.15179 -5.65055,-9.01112c-2.30645,-3.46255 -5.258,-6.7504 -7.1118,-10.50226c-2.94018,-5.95056 -3.51582,-13.86057 -4.62433,-20.31439c-0.33138,-1.92928 0.05638,-3.93958 -0.296,-5.86513c-1.04869,-5.7305 -4.42711,-11.40614 -4.47995,-17.36535c0.0173,-3.69548 0.04738,-7.40258 0.76823,-11.0111l2.20997,-1.20583c0,0 0.52585,0 0.95485,0.31135zM217.60331,203.28823c0.00024,0.04926 0.0005,0.09851 0.00077,0.14775c-0.06441,5.62762 3.37322,11.20747 4.38923,16.63317c1.53359,8.18973 0.83268,17.85373 4.68794,25.55736c1.81914,3.63502 4.6872,6.82939 6.93106,10.1925c1.84685,2.77224 3.28067,6.19715 5.43592,8.72724c2.17943,2.55847 6.18185,4.04817 9.11297,5.36949c1.81857,0.81979 3.41326,2.08933 5.24029,2.89008c9.01366,3.95046 19.34544,4.3067 28.98178,5.32103c3.3157,0.3639 5.53158,1.73373 8.65894,2.55125c3.78745,0.99008 7.52816,0.69725 11.38035,1.18035c3.74386,0.46952 7.42286,1.94366 11.12277,2.70264c4.79675,0.98398 9.656,1.56306 14.54635,1.73285c3.56116,0.12364 6.87845,1.07536 10.39864,0.24269c8.97537,-2.06707 18.10129,-2.01665 26.66739,-5.75536c1.69004,-0.73763 3.09594,-2.00912 4.70601,-2.90802c3.98603,-2.22537 8.49471,-3.45281 12.52187,-5.51925c1.3888,-0.71263 2.25813,-2.19355 3.5917,-3.00483c0.44774,-0.27238 5.15775,-2.14757 5.74741,-2.38505c3.71232,-1.6243 7.46637,-3.1453 11.30944,-4.35873c0.62947,-0.19875 1.37343,0.03167 1.96227,-0.26666c0.60457,-0.3063 0.84827,-1.09463 1.42552,-1.44974c1.32187,-0.8132 3.39954,-1.43767 4.82137,-2.2269c1.95026,-1.08255 4.43848,-1.72842 6.24857,-2.97231c1.053,-0.72362 2.92054,-3.24577 3.71815,-4.12669c4.43475,-4.89797 7.01689,-9.00733 8.41223,-15.64061c1.22595,-5.74168 4.38911,-11.1847 4.86868,-17.08916c0.37539,-4.62183 0.44159,-10.0609 -0.1116,-14.66687c-0.47843,-3.98348 -2.45751,-7.55609 -2.84338,-11.63353c-0.53615,-5.66538 -0.66678,-11.31927 -0.8224,-17.02481c-1.81511,-8.08014 -4.8196,-15.80312 -6.54455,-23.87731c-1.02403,-4.79329 -2.3445,-11.23932 -6.18502,-14.7066c-1.57076,-1.41811 -2.56652,-1.40809 -4.4702,-2.35984c-3.18481,-1.59226 -6.32011,-3.34447 -9.49459,-4.96896c-3.15062,-2.26216 -6.29669,-5.3737 -8.77266,-8.4047c-3.25998,-3.99077 -4.66754,-9.54016 -7.44318,-13.85076c-2.19203,-3.40424 -5.42393,-7.211 -8.8127,-9.45007c-4.00635,-2.64713 -9.57826,-2.79763 -14.19101,-3.68929c-8.36944,-1.25446 -16.50294,-1.12601 -24.89559,-1.6428c-11.22651,-0.69129 -22.26605,-1.17045 -33.56629,-1.03388c-4.09005,0.14439 -9.60081,0.53925 -13.28158,2.55287c-2.49134,1.36293 -4.03236,3.80048 -6.39227,5.35131c-3.01485,1.98124 -6.51633,2.57349 -9.4286,4.69445c-2.0649,1.50384 -3.56843,3.4268 -5.44344,5.09265c-3.88724,3.45362 -8.8936,6.34224 -13.3825,8.93426c-2.105,2.13691 -5.74829,3.72631 -7.52471,6.05547c-3.09314,4.0556 -5.41143,10.16159 -5.54321,15.3262c-0.20372,7.98397 4.9663,17.15029 1.2719,24.71535c-1.98185,3.30535 -4.0338,4.90334 -6.64585,7.51113c-3.43929,3.43368 -5.96564,7.98176 -9.39683,11.47872c-3.54381,3.61175 -7.46549,5.75291 -9.7779,10.47905c-1.29979,2.65653 -0.32786,5.7737 -1.0162,8.6062c0,0 -0.3638,1.45521 -1.81902,1.09141c-0.13265,-0.03316 -0.25019,-0.0754 -0.35427,-0.12477z" fill="#000000" stroke="none" stroke-width="0.5"/><path d="M217.65286,203.28176c0.10408,0.04937 0.12246,0.10456 0.25511,0.13772c1.45522,0.3638 1.81897,-1.0918 1.81897,-1.0918c0.68834,-2.8325 -0.28392,-5.95365 1.01587,-8.61018c2.31241,-4.72614 6.23414,-6.87255 9.77795,-10.4843c3.43119,-3.49696 5.95843,-8.05184 9.39772,-11.48552c2.61205,-2.60779 4.6653,-4.21083 6.64715,-7.51618c3.6944,-7.56506 -1.47051,-16.74259 -1.26679,-24.72656c0.13178,-5.16461 2.45482,-11.2771 5.54796,-15.3327c1.77642,-2.32916 5.42305,-3.92207 7.52805,-6.05898c4.4889,-2.59202 9.50165,-5.48581 13.38889,-8.93943c1.87501,-1.66585 3.38172,-3.5908 5.44662,-5.09464c2.91227,-2.12096 6.41854,-2.71563 9.43339,-4.69687c2.35991,-1.55083 3.90463,-3.98984 6.39597,-5.35277c3.68077,-2.01362 9.19802,-2.41026 13.28807,-2.55465c11.30024,-0.13657 22.35677,0.34208 33.58328,1.03337c8.39265,0.51679 16.53795,0.39152 24.90739,1.64598c4.61275,0.89166 10.19086,1.0452 14.19721,3.69233c3.38877,2.23907 6.62571,6.04917 8.81774,9.45341c2.77564,4.3106 4.18876,9.86486 7.44874,13.85563c2.47597,3.031 5.62611,6.14722 8.77673,8.40938c3.17448,1.62449 6.31247,3.38058 9.49728,4.97284c1.90368,0.95175 2.9005,0.94351 4.47126,2.36162c3.84052,3.46728 5.16423,9.92015 6.18826,14.71344c1.72495,8.07419 4.73233,15.80858 6.54744,23.88872c0.15562,5.70554 0.28665,11.36751 0.8228,17.03289c0.38587,4.07744 2.3645,7.65532 2.84293,11.6388c0.55319,4.60597 0.48569,10.05138 0.1103,14.67321c-0.47957,5.90446 -3.64539,11.35487 -4.87134,17.09655c-1.39534,6.63328 -3.98125,10.74949 -8.416,15.64746c-0.79761,0.88092 -2.66653,3.40507 -3.71953,4.12869c-1.81009,1.24389 -4.3,1.89195 -6.25026,2.9745c-1.42183,0.78923 -3.50094,1.41539 -4.82281,2.22859c-0.57725,0.35511 -0.82159,1.14414 -1.42616,1.45044c-0.58884,0.29833 -1.33329,0.06843 -1.96276,0.26718c-3.84307,1.21343 -7.60105,2.73813 -11.31337,4.36243c-0.58966,0.23748 -5.30199,2.11451 -5.74973,2.38689c-1.33357,0.81128 -2.2048,2.29355 -3.5936,3.00618c-4.02716,2.06644 -8.54174,3.29731 -12.52777,5.52268c-1.61007,0.8989 -3.01849,2.17154 -4.70853,2.90917c-8.5661,3.73871 -17.70533,3.69189 -26.6807,5.75896c-3.52019,0.83267 -6.84277,-0.11867 -10.40393,-0.24231c-4.89035,-0.16979 -9.75715,-0.74929 -14.5539,-1.73327c-3.69991,-0.75898 -7.38476,-2.23425 -11.12862,-2.70377c-3.85219,-0.4831 -7.59841,-0.19203 -11.38586,-1.18211c-3.12736,-0.81752 -5.3474,-2.18917 -8.6631,-2.55307c-9.63634,-1.01433 -19.97886,-1.37771 -28.99252,-5.32817c-1.82703,-0.80075 -3.42364,-2.07205 -5.24221,-2.89184c-2.93112,-1.32132 -6.93661,-2.81427 -9.11604,-5.37274c-2.15525,-2.53009 -3.59183,-5.9585 -5.43868,-8.73074c-2.24386,-3.36311 -5.11483,-6.56202 -6.93397,-10.19704c-3.85526,-7.70363 -3.1588,-17.37809 -4.69239,-25.56782c-1.01601,-5.4257 -4.45528,-11.01325 -4.39087,-16.64087c-0.00027,-0.04924 -0.00054,-0.09856 -0.00078,-0.14782z" data-paper-data="{&quot;noHover&quot;:false,&quot;origItem&quot;:[&quot;Path&quot;,{&quot;applyMatrix&quot;:true,&quot;segments&quot;:[[[217.60331,203.28823],[0,0],[0.00024,0.04926]],[[217.60408,203.43598],[-0.00027,-0.04924],[-0.06441,5.62762]],[[221.99331,220.06915],[-1.01601,-5.4257],[1.53359,8.18973]],[[226.68125,245.62651],[-3.85526,-7.70363],[1.81914,3.63502]],[[233.61231,255.81901],[-2.24386,-3.36311],[1.84685,2.77224]],[[239.04823,264.54625],[-2.15525,-2.53009],[2.17943,2.55847]],[[248.1612,269.91574],[-2.93112,-1.32132],[1.81857,0.81979]],[[253.40149,272.80582],[-1.82703,-0.80075],[9.01366,3.95046]],[[282.38327,278.12685],[-9.63634,-1.01433],[3.3157,0.3639]],[[291.04221,280.6781],[-3.12736,-0.81752],[3.78745,0.99008]],[[302.42256,281.85845],[-3.85219,-0.4831],[3.74386,0.46952]],[[313.54533,284.56109],[-3.69991,-0.75898],[4.79675,0.98398]],[[328.09168,286.29394],[-4.89035,-0.16979],[3.56116,0.12364]],[[338.49032,286.53663],[-3.52019,0.83267],[8.97537,-2.06707]],[[365.15771,280.78127],[-8.5661,3.73871],[1.69004,-0.73763]],[[369.86372,277.87325],[-1.61007,0.8989],[3.98603,-2.22537]],[[382.38559,272.354],[-4.02716,2.06644],[1.3888,-0.71263]],[[385.97729,269.34917],[-1.33357,0.81128],[0.44774,-0.27238]],[[391.7247,266.96412],[-0.58966,0.23748],[3.71232,-1.6243]],[[403.03414,262.60539],[-3.84307,1.21343],[0.62947,-0.19875]],[[404.99641,262.33873],[-0.58884,0.29833],[0.60457,-0.3063]],[[406.42193,260.88899],[-0.57725,0.35511],[1.32187,-0.8132]],[[411.2433,258.66209],[-1.42183,0.78923],[1.95026,-1.08255]],[[417.49187,255.68978],[-1.81009,1.24389],[1.053,-0.72362]],[[421.21002,251.56309],[-0.79761,0.88092],[4.43475,-4.89797]],[[429.62225,235.92248],[-1.39534,6.63328],[1.22595,-5.74168]],[[434.49093,218.83332],[-0.47957,5.90446],[0.37539,-4.62183]],[[434.37933,204.16645],[0.55319,4.60597],[-0.47843,-3.98348]],[[431.53595,192.53292],[0.38587,4.07744],[-0.53615,-5.66538]],[[430.71355,175.50811],[0.15562,5.70554],[-1.81511,-8.08014]],[[424.169,151.6308],[1.72495,8.07419],[-1.02403,-4.79329]],[[417.98398,136.9242],[3.84052,3.46728],[-1.57076,-1.41811]],[[413.51378,134.56436],[1.90368,0.95175],[-3.18481,-1.59226]],[[404.01919,129.5954],[3.17448,1.62449],[-3.15062,-2.26216]],[[395.24653,121.1907],[2.47597,3.031],[-3.25998,-3.99077]],[[387.80335,107.33994],[2.77564,4.3106],[-2.19203,-3.40424]],[[378.99065,97.88987],[3.38877,2.23907],[-4.00635,-2.64713]],[[364.79964,94.20058],[4.61275,0.89166],[-8.36944,-1.25446]],[[339.90405,92.55778],[8.39265,0.51679],[-11.22651,-0.69129]],[[306.33776,91.5239],[11.30024,-0.13657],[-4.09005,0.14439]],[[293.05618,94.07677],[3.68077,-2.01362],[-2.49134,1.36293]],[[286.66391,99.42808],[2.35991,-1.55083],[-3.01485,1.98124]],[[277.23531,104.12253],[2.91227,-2.12096],[-2.0649,1.50384]],[[271.79187,109.21518],[1.87501,-1.66585],[-3.88724,3.45362]],[[258.40937,118.14944],[4.4889,-2.59202],[-2.105,2.13691]],[[250.88466,124.20491],[1.77642,-2.32916],[-3.09314,4.0556]],[[245.34145,139.53111],[0.13178,-5.16461],[-0.20372,7.98397]],[[246.61335,164.24646],[3.6944,-7.56506],[-1.98185,3.30535]],[[239.9675,171.75759],[2.61205,-2.60779],[-3.43929,3.43368]],[[230.57067,183.23631],[3.43119,-3.49696],[-3.54381,3.61175]],[[220.79277,193.71536],[2.31241,-4.72614],[-1.29979,2.65653]],[[219.77657,202.32156],[0.68834,-2.8325],[0,0]],[[217.95755,203.41297],[1.45522,0.3638],[-0.13265,-0.03316]],[[217.60328,203.2882],[0.10408,0.04937],[0,0]]],&quot;closed&quot;:true,&quot;fillColor&quot;:[0,0,0,1],&quot;strokeWidth&quot;:0.5}]}" fill="#ff956d" stroke="none" stroke-width="0.25"/><path d="M294.86672,171.8002c3.1828,-1.10128 6.28713,-2.46554 9.46529,-3.41967c5.82387,-1.7484 12.31608,-0.64698 18.25979,-0.44197c5.65853,0.19517 10.44171,0.22821 15.60147,2.86888c5.47177,5.42317 14.07017,5.99453 19.40015,11.24268c1.23416,1.21521 3.94149,3.05652 4.44995,4.7253c0.51544,1.6917 -0.92921,5.1524 -1.04636,6.74108c-0.20609,2.79466 0.83468,5.94477 1.01445,8.74209c0.19852,3.08909 0.0728,6.16622 -0.24788,9.23635c-0.38651,3.65383 -0.80596,8.38978 -2.85083,11.58409c-3.62979,5.67015 -10.61714,7.79504 -16.83616,9.16779c-6.8196,1.50532 -14.95817,4.53358 -22.02729,2.96813c-1.97373,-0.43708 -3.83659,-1.29507 -5.80499,-1.75558c-3.35124,-0.80622 -7.48047,0.5748 -10.66188,-0.51462c-2.16478,-0.7413 -2.88562,-2.63594 -4.06846,-4.24145c-1.09962,-1.49255 -1.91323,-1.35593 -3.23853,-2.84637c-1.92934,-2.16975 -5.09334,-5.84044 -6.17414,-8.55532c-0.7452,-1.87188 -0.99924,-3.9086 -1.6612,-5.81151c-0.36679,-1.05441 -2.4647,-5.23771 -2.11716,-6.48616c0.5628,-2.02177 2.21308,-3.58221 3.05918,-5.50272c0.85142,-1.91382 2.46527,-4.58565 2.84055,-6.61169c0.33698,-1.81929 -3.16098,-3.64544 -3.84878,-4.5467c-2.60361,-3.41164 -1.78822,-8.94075 -1.70773,-12.99256c0.04223,-2.12565 -0.43837,-3.65938 2.03462,-4.71176c2.1044,-0.89553 4.10736,0.5968 6.16593,1.16172zM291.82926,173.65203c-0.7032,-0.22376 -1.37462,-0.352 -1.98042,-0.2419c-0.6391,0.11615 -0.19879,1.29076 -0.18267,1.94012c0.04855,1.95579 0.01932,3.91288 0,5.86918c-0.01709,1.73058 0.11248,4.10344 1.24867,5.5285c1.12324,1.40883 3.03475,2.22103 3.78465,3.85936c1.42668,3.1169 -1.33365,7.31456 -2.57559,10.11159c-0.76445,1.71121 -2.02084,3.16562 -2.8536,4.84465c-0.33108,0.66754 0.80804,1.26281 1.08408,1.95493c0.38565,0.9669 0.57589,2.00182 0.91875,2.98471c0.6476,1.85651 0.91163,3.83664 1.60979,5.67474c1.1982,3.15461 4.93797,6.8675 7.37011,9.05243c1.29277,1.16137 2.48935,4.30204 4.2781,4.86836c3.03788,0.96178 7.14259,-0.31018 10.39967,0.44027c1.91755,0.45275 3.73648,1.27034 5.65379,1.72412c6.54768,1.54967 14.52096,-1.54984 20.84041,-2.94465c5.42771,-1.19799 11.73317,-2.91692 14.94506,-7.83147c1.7977,-2.75068 2.07909,-7.14774 2.41002,-10.30616c0.30795,-2.9003 0.42514,-5.811 0.23756,-8.72982c-0.19039,-2.96256 -1.20938,-6.17857 -1.01336,-9.1431c0.06789,-1.02679 1.41841,-4.56379 1.14795,-5.73166c-0.34983,-1.51059 -5.12897,-4.67141 -6.55989,-5.31438c-5.55545,-2.49627 -11.81829,-4.64406 -16.15319,-9.02068c-4.62513,-2.23508 -8.94693,-2.13073 -13.96247,-2.30481c-5.55595,-0.19284 -11.77234,-1.33483 -17.21693,0.29713c-2.25805,0.67683 -4.4854,1.56229 -6.72933,2.4147c-0.09384,1.35431 -1.49507,1.35431 -1.49507,1.35431h-0.7391c-0.35389,-0.00449 -0.71783,-0.06149 -1.08724,-0.15172c-0.47748,0.16012 -0.95671,0.31354 -1.43814,0.45801c0,0 -1.43674,0.43102 -1.86776,-1.00572c-0.07362,-0.2454 -0.09275,-0.46146 -0.07386,-0.65105z" fill="#000000" stroke="none" stroke-width="0.5"/><path d="M291.86714,173.68465c-0.01889,0.18959 0.00058,0.40525 0.0742,0.65065c0.43102,1.43674 1.79165,0.94086 1.79165,0.94086c0.48143,-0.14447 0.96175,-0.29911 1.43923,-0.45923c0.36941,0.09023 0.7339,0.14664 1.08779,0.15113l0.73957,-0.00048c0,0 1.40314,-0.00185 1.49698,-1.35616c2.24393,-0.85241 4.47864,-1.74348 6.73669,-2.42031c5.44459,-1.63196 11.68467,-0.49749 17.24062,-0.30465c5.01554,0.17408 9.36001,0.07376 13.98514,2.30884c4.3349,4.37662 10.61926,6.54222 16.17471,9.03849c1.43092,0.64297 6.21512,3.81333 6.56495,5.32392c0.27046,1.16787 -1.07791,4.71159 -1.1458,5.73838c-0.19602,2.96453 0.82437,6.19368 1.01476,9.15624c0.18758,2.91882 0.06857,5.84164 -0.23938,8.74194c-0.33093,3.15842 -0.61799,7.5684 -2.41569,10.31908c-3.21189,4.91455 -9.5335,6.64962 -14.96121,7.84761c-6.31945,1.39481 -14.32491,4.50148 -20.87259,2.95181c-1.91731,-0.45378 -3.74562,-1.2734 -5.66317,-1.72615c-3.25708,-0.75045 -7.37493,0.51507 -10.41281,-0.44671c-1.78875,-0.56632 -2.99251,-3.713 -4.28528,-4.87437c-2.43214,-2.18493 -6.18166,-5.91181 -7.37986,-9.06642c-0.69816,-1.8381 -0.96514,-3.82627 -1.61274,-5.68278c-0.34286,-0.98289 -0.53409,-2.02225 -0.91974,-2.98915c-0.27604,-0.69212 -1.41559,-1.29037 -1.08451,-1.95791c0.83276,-1.67903 2.08884,-3.14044 2.85329,-4.85165c1.24194,-2.79703 4.00536,-7.01079 2.57868,-10.12769c-0.7499,-1.63833 -2.66022,-2.45346 -3.78346,-3.86229c-1.13619,-1.42506 -1.26316,-3.80297 -1.24607,-5.53355c0.01932,-1.9563 0.0518,-3.91825 0.00325,-5.87404c-0.01612,-0.64936 -0.45528,-1.82544 0.18382,-1.94159c0.6058,-0.1101 1.27802,0.01718 1.98122,0.24094z" data-paper-data="{&quot;noHover&quot;:false,&quot;origItem&quot;:[&quot;Path&quot;,{&quot;applyMatrix&quot;:true,&quot;segments&quot;:[[[291.82926,173.65203],[0,0],[-0.7032,-0.22376]],[[289.84884,173.41013],[0.6058,-0.1101],[-0.6391,0.11615]],[[289.66617,175.35025],[-0.01612,-0.64936],[0.04855,1.95579]],[[289.66617,181.21943],[0.01932,-1.9563],[-0.01709,1.73058]],[[290.91484,186.74793],[-1.13619,-1.42506],[1.12324,1.40883]],[[294.69949,190.60729],[-0.7499,-1.63833],[1.42668,3.1169]],[[292.1239,200.71888],[1.24194,-2.79703],[-0.76445,1.71121]],[[289.2703,205.56353],[0.83276,-1.67903],[-0.33108,0.66754]],[[290.35438,207.51846],[-0.27604,-0.69212],[0.38565,0.9669]],[[291.27313,210.50317],[-0.34286,-0.98289],[0.6476,1.85651]],[[292.88292,216.17791],[-0.69816,-1.8381],[1.1982,3.15461]],[[300.25303,225.23034],[-2.43214,-2.18493],[1.29277,1.16137]],[[304.53113,230.0987],[-1.78875,-0.56632],[3.03788,0.96178]],[[314.9308,230.53897],[-3.25708,-0.75045],[1.91755,0.45275]],[[320.58459,232.26309],[-1.91731,-0.45378],[6.54768,1.54967]],[[341.425,229.31844],[-6.31945,1.39481],[5.42771,-1.19799]],[[356.37006,221.48697],[-3.21189,4.91455],[1.7977,-2.75068]],[[358.78008,211.18081],[-0.33093,3.15842],[0.30795,-2.9003]],[[359.01764,202.45099],[0.18758,2.91882],[-0.19039,-2.96256]],[[358.00428,193.30789],[-0.19602,2.96453],[0.06789,-1.02679]],[[359.15223,187.57623],[0.27046,1.16787],[-0.34983,-1.51059]],[[352.59234,182.26185],[1.43092,0.64297],[-5.55545,-2.49627]],[[336.43915,173.24117],[4.3349,4.37662],[-4.62513,-2.23508]],[[322.47668,170.93636],[5.01554,0.17408],[-5.55595,-0.19284]],[[305.25975,171.23349],[5.44459,-1.63196],[-2.25805,0.67683]],[[298.53042,173.64819],[2.24393,-0.85241],[-0.09384,1.35431]],[297.03535,175.0025],[[296.29625,175.0025],[0,0],[-0.35389,-0.00449]],[[295.20901,174.85078],[0.36941,0.09023],[-0.47748,0.16012]],[[293.77087,175.30879],[0.48143,-0.14447],[0,0]],[[291.90311,174.30307],[0.43102,1.43674],[-0.07362,-0.2454]],[[291.82925,173.65202],[-0.01889,0.18959],[0,0]]],&quot;closed&quot;:true,&quot;fillColor&quot;:[0,0,0,1],&quot;strokeWidth&quot;:0.5}]}" fill="#fff4fa" stroke="none" stroke-width="0.25"/><path d="M200.73321,287.32043v-215.49032h239.22549v215.49032z" fill="none" stroke="#000000" stroke-width="0"/></g></g></svg>