<svg version="1.1" xmlns="http://www.w3.org/2000/svg" xmlns:xlink="http://www.w3.org/1999/xlink" width="239.22549" height="215.49032" viewBox="0,0,239.22549,215.49032"><g transform="translate(-200.7332,-71.8301)"><g data-paper-data="{&quot;isPaintingLayer&quot;:true}" fill-rule="nonzero" stroke-linecap="butt" stroke-linejoin="miter" stroke-miterlimit="10" stroke-dasharray="" stroke-dashoffset="0" style="mix-blend-mode: normal"><path d="M280.47608,135.07759c-0.95238,1.43327 -2.5454,2.33816 -3.98167,3.286c-1.62877,1.07487 -2.64511,2.89449 -4.18249,4.09644c-3.84737,3.00794 -9.45896,4.37075 -12.37402,8.59083c-5.17338,7.48942 -2.76093,16.08586 -2.76093,24.59051c0,0.91492 0.03439,5.19241 -0.16625,5.53339c-2.18668,3.71616 -4.16996,1.71109 -7.08958,1.72244c-4.81131,0.0187 -10.06939,-1.00746 -13.83031,2.33209c-2.21846,1.96991 -2.56497,4.86272 -3.00968,7.62283c-0.63215,3.92344 -1.0347,7.8687 -1.71556,11.79139c-0.04752,1.17087 -0.9502,5.8199 -0.1985,6.80922c1.06494,1.40157 3.54856,2.26829 5.00565,3.206c3.79173,2.44015 7.22259,6.91968 11.91148,7.67692c2.79187,0.45088 5.63122,-1.14343 8.31828,-1.53052c3.6572,-0.52685 7.5052,-0.31504 11.20639,-0.30958c7.9692,1.24555 16.45569,1.46294 24.20329,3.46797c10.48891,2.71446 21.04045,7.46388 31.53252,2.20919c3.04247,-2.35876 6.30956,-5.19535 10.00359,-6.50937c4.05541,-1.44258 8.51641,0.14941 12.56651,0.53496c3.77032,0.35892 8.01181,0.39213 11.80069,0.29356c1.63654,-0.04258 3.20376,-0.68959 4.77462,-1.15056c4.02075,-1.1799 8.08344,-1.68558 12.08373,-3.01891c4.14054,-1.29406 8.38232,-1.93655 12.22084,-3.8575c0.24024,-0.12023 2.41337,-0.83909 2.86458,-1.45933c3.36776,-4.62935 6.53224,-11.42143 7.51795,-17.08404c0.2048,-1.17649 -0.31621,-3.00489 -0.31621,-4.04204c0,-3.17792 0.50063,-5.78947 -1.03427,-8.68331c-3.61885,-6.35077 -7.4344,-12.92936 -9.28966,-20.05738c-0.36412,-1.39897 0.15589,-3.00729 -0.46768,-4.31146c-1.24629,-2.60658 -3.16797,-7.00752 -6.28511,-7.91367c-3.1394,-0.91262 -6.51332,0.83996 -9.83684,-0.26788c-6.88479,-0.09386 -8.34579,-8.48021 -11.58048,-13.32843c-2.18942,-3.28154 -5.33764,-4.88618 -8.22794,-7.2995c-2.56415,-2.14099 -4.79156,-5.18666 -7.44687,-7.17533c-0.49629,-0.37169 -1.24912,-0.23695 -1.76916,-0.57462c-2.20392,-1.43105 -4.18314,-4.12233 -6.03873,-5.97165c-2.41809,-2.34386 -5.29999,-5.34507 -8.30354,-6.95153c-2.5966,-1.3888 -7.21732,0.65004 -9.63385,1.28381c-5.81306,1.52456 -11.77888,3.3363 -17.72116,4.43011c3.70177,6.96443 -0.06023,18.03664 -1.96023,24.47305c-0.5932,2.0095 -1.40603,3.96556 -2.40435,5.80766c0,0 -0.04185,0.07673 -0.12387,0.18303l0.00409,0.61338c0,0 0,1.5 -1.5,1.5c-1.5,0 -1.5,-1.5 -1.5,-1.5l0.00917,-1.04611c-0.49339,-4.85582 -2.9502,-8.97781 -4.32249,-13.61756c-0.06401,-0.2164 -0.12009,-0.43497 -0.17031,-0.65514c-2.06293,2.26614 -4.56809,4.0583 -6.78164,6.26062zM316.18835,105.72601c3.27863,-0.86055 8.1499,-2.82424 11.57184,-1.1397c3.34017,1.64428 6.58202,5.01393 9.22618,7.56958c1.6573,1.65161 3.52806,4.31992 5.51364,5.55995c0.5575,0.34817 1.34051,0.24245 1.8661,0.63713c2.7515,2.06619 5.05391,5.16531 7.70005,7.36572c3.0766,2.55836 6.40871,4.35842 8.73661,7.84743c2.60796,3.90875 4.21318,12.20299 9.62521,12.1184c4.00932,1.33644 8.54972,-1.13985 12.14846,1.47552c6.33288,4.60241 6.59115,11.99064 8.69688,18.78159c1.50592,4.85656 4.69397,9.46907 7.19843,13.83897c1.67615,3.49399 1.38924,6.30245 1.38924,10.09888c0,1.48323 0.52726,2.97617 0.28967,4.44024c-0.78691,4.84897 -3.06624,8.97682 -5.31179,13.22763c-0.62163,1.17674 -2.10576,4.41148 -2.92307,5.43507c-0.99558,1.24686 -2.45698,1.50804 -3.80006,2.17594c-4.0022,1.99022 -8.32644,2.67728 -12.62012,4.0189c-4.02037,1.34022 -8.11563,1.85015 -12.15135,3.03986c-1.81288,0.53443 -3.63647,1.20587 -5.52529,1.27295c-3.8882,0.13808 -8.31674,0.06331 -12.1885,-0.30527c-3.50487,-0.33365 -7.80302,-1.99791 -11.30859,-0.68384c-3.46741,1.29977 -6.49128,4.00354 -9.38447,6.21404c-5.48185,2.73724 -11.56734,3.60218 -17.66304,2.63828c-6.40838,-1.01335 -12.50885,-4.35675 -18.94082,-5.11981c-6.97396,-0.82736 -13.96818,-1.63108 -20.95933,-2.7471c-3.5053,0.00559 -7.14297,-0.19365 -10.60518,0.2963c-3.105,0.4394 -6.01381,2.04944 -9.25215,1.49887c-5.1808,-0.88083 -8.74815,-5.39082 -12.92947,-8.07588c-1.67645,-1.07654 -4.78014,-2.27745 -5.90013,-4.06453c-1.3833,-2.20724 -0.40729,-6.41439 -0.30481,-8.81564c1.11243,-6.48945 0.4373,-16.5373 5.68098,-21.30748c3.93795,-3.58236 8.40711,-3.1208 13.43416,-3.1208c1.38209,0 2.7874,-0.23787 4.14625,0.0145c0.57914,0.10756 1.06875,0.63717 1.6573,0.61325c0.4224,-0.01716 0.9143,-0.31994 1.04203,-0.72294c0.41938,-1.32311 -0.16625,-2.77266 -0.16625,-4.16064c0,-9.13668 -2.37822,-18.27688 3.29784,-26.30316c3.20665,-4.5344 8.84554,-5.9846 12.98649,-9.23937c1.59674,-1.25503 2.68533,-3.11505 4.37798,-4.23736c1.17714,-0.7805 2.56783,-1.45185 3.29699,-2.66147c1.3537,-1.36018 2.4284,-3.00999 3.92353,-4.21297c1.43847,-1.1574 2.71026,-1.69597 3.92277,-3.3217l0.04772,-0.67556c0,0 0.09381,-0.37523 0.37669,-0.69698c-0.05754,-0.19137 -0.12142,-0.38092 -0.19305,-0.56825c-0.38056,-0.99515 -1.14919,-1.83788 -1.40005,-2.87336c-0.52057,-2.1487 0.07594,-4.94382 0.26659,-7.11561c0.07551,-0.86023 -0.21071,-1.78665 0.11041,-2.58826c0.55492,-1.38525 2.90801,-2.60162 3.98053,-3.28512c1.54963,-0.03271 3.19095,-0.27572 4.68219,0.36922c1.32536,0.5732 2.42217,1.29581 3.32179,2.13844c6.37025,-1.02402 12.77068,-3.00541 19.01296,-4.64385zM293.79983,138.45922c0.21692,-0.58441 0.41288,-1.17618 0.58723,-1.77295c0.5652,-1.93454 1.1632,-3.85981 1.79452,-5.7738c1.51892,-4.60493 2.74872,-13.20681 -0.62058,-17.54314c-0.27329,-0.12596 -0.53837,-0.35334 -0.6844,-0.75887c-1.15887,-1.1043 -2.73479,-1.79903 -4.83584,-1.87697c-0.70347,0.50605 -1.83496,0.73017 -2.07824,1.5619c-0.96912,3.3132 -0.08166,7.37549 1.05434,10.35977c0.72427,1.90267 0.71729,4.01609 1.28913,5.96999c0.99935,3.41468 2.4902,6.52369 3.49384,9.83408z" fill="#000000" stroke="none" stroke-width="0.5"/><path d="M280.44022,135.04272c2.21355,-2.20232 4.7262,-4.00081 6.78913,-6.26695c0.05022,0.22017 0.16323,0.52095 0.22724,0.73735c1.37229,4.63975 3.8341,8.75776 4.32749,13.61358l-0.00837,1.04537c0,0 -0.06867,1.4273 1.43133,1.4273c1.5,0 1.50262,-1.5023 1.50262,-1.5023l-0.00361,-0.61377c0.08202,-0.1063 0.12414,-0.18324 0.12414,-0.18324c0.99832,-1.8421 1.81778,-3.80257 2.41098,-5.81207c1.9,-6.43641 5.67321,-17.51318 1.97144,-24.47761c5.94228,-1.09381 11.92364,-2.90723 17.7367,-4.43179c2.41653,-0.63377 7.04496,-2.67163 9.64156,-1.28283c3.00355,1.60646 5.89346,4.61005 8.31155,6.95391c1.85559,1.84932 3.84128,4.54368 6.0452,5.97473c0.52004,0.33767 1.2743,0.20377 1.77059,0.57546c2.65531,1.98867 4.89028,5.04001 7.45443,7.181c2.8903,2.41332 6.04525,4.02545 8.23467,7.30699c3.23469,4.84822 4.70265,13.24794 11.58744,13.3418c3.32352,1.10784 6.69819,-0.64235 9.83759,0.27027c3.11714,0.90615 5.04018,5.31337 6.28647,7.91995c0.62357,1.30417 0.10392,2.91545 0.46804,4.31442c1.85526,7.12802 5.67035,13.71926 9.2892,20.07003c1.5349,2.89384 1.03324,5.51018 1.03324,8.6881c0,1.03715 0.5204,2.86766 0.3156,4.04415c-0.98571,5.66261 -4.15449,12.4645 -7.52225,17.09385c-0.45121,0.62024 -2.62514,1.34045 -2.86538,1.46068c-3.83852,1.92095 -8.0839,2.56855 -12.22444,3.86261c-4.00029,1.33333 -8.06775,1.84416 -12.0885,3.02406c-1.57086,0.46097 -3.14042,1.11004 -4.77696,1.15262c-3.78888,0.09857 -8.03629,0.06957 -11.80661,-0.28935c-4.0501,-0.38555 -8.51964,-1.97341 -12.57505,-0.53083c-3.69403,1.31402 -6.97068,4.15312 -10.01315,6.51188c-10.49207,5.25469 -21.06984,0.50239 -31.55875,-2.21207c-7.7476,-2.00503 -16.24874,-2.23138 -24.21794,-3.47693c-3.70119,-0.00546 -7.55294,-0.22094 -11.21014,0.30591c-2.68706,0.38709 -5.52814,1.97942 -8.32001,1.52854c-4.68889,-0.75724 -8.12406,-5.24285 -11.91579,-7.683c-1.45709,-0.93771 -3.94211,-1.80691 -5.00705,-3.20848c-0.7517,-0.98932 0.14955,-5.6413 0.19707,-6.81217c0.68086,-3.92269 1.08131,-7.87351 1.71346,-11.79695c0.44471,-2.76011 0.79019,-5.65678 3.00865,-7.62669c3.76092,-3.33955 9.11644,-2.33588 13.92775,-2.35458c2.91962,-0.01135 4.80559,2.01674 6.99227,-1.69942c0.20064,-0.34098 0.16539,-4.62305 0.16539,-5.53797c0,-8.50465 -2.41072,-17.12271 2.76266,-24.61213c2.91506,-4.22008 8.53166,-5.59406 12.37903,-8.602c1.53738,-1.20195 2.5571,-3.02648 4.18587,-4.10135c1.43627,-0.94784 3.03283,-1.85679 3.98521,-3.29006z" data-paper-data="{&quot;noHover&quot;:false,&quot;origItem&quot;:[&quot;Path&quot;,{&quot;applyMatrix&quot;:true,&quot;segments&quot;:[[[280.47608,135.07759],[0,0],[-0.95238,1.43327]],[[276.49441,138.36359],[1.43627,-0.94784],[-1.62877,1.07487]],[[272.31192,142.46003],[1.53738,-1.20195],[-3.84737,3.00794]],[[259.9379,151.05086],[2.91506,-4.22008],[-5.17338,7.48942]],[[257.17697,175.64137],[0,-8.50465],[0,0.91492]],[[257.01072,181.17476],[0.20064,-0.34098],[-2.18668,3.71616]],[[249.92114,182.8972],[2.91962,-0.01135],[-4.81131,0.0187]],[[236.09083,185.22929],[3.76092,-3.33955],[-2.21846,1.96991]],[[233.08115,192.85212],[0.44471,-2.76011],[-0.63215,3.92344]],[[231.36559,204.64351],[0.68086,-3.92269],[-0.04752,1.17087]],[[231.16709,211.45273],[-0.7517,-0.98932],[1.06494,1.40157]],[[236.17274,214.65873],[-1.45709,-0.93771],[3.79173,2.44015]],[[248.08422,222.33565],[-4.68889,-0.75724],[2.79187,0.45088]],[[256.4025,220.80513],[-2.68706,0.38709],[3.6572,-0.52685]],[[267.60889,220.49555],[-3.70119,-0.00546],[7.9692,1.24555]],[[291.81218,223.96352],[-7.7476,-2.00503],[10.48891,2.71446]],[[323.3447,226.17271],[-10.49207,5.25469],[3.04247,-2.35876]],[[333.34829,219.66334],[-3.69403,1.31402],[4.05541,-1.44258]],[[345.9148,220.1983],[-4.0501,-0.38555],[3.77032,0.35892]],[[357.71549,220.49186],[-3.78888,0.09857],[1.63654,-0.04258]],[[362.49011,219.3413],[-1.57086,0.46097],[4.02075,-1.1799]],[[374.57384,216.32239],[-4.00029,1.33333],[4.14054,-1.29406]],[[386.79468,212.46489],[-3.83852,1.92095],[0.24024,-0.12023]],[[389.65926,211.00556],[-0.45121,0.62024],[3.36776,-4.62935]],[[397.17721,193.92152],[-0.98571,5.66261],[0.2048,-1.17649]],[[396.861,189.87948],[0,1.03715],[0,-3.17792]],[[395.82673,181.19617],[1.5349,2.89384],[-3.61885,-6.35077]],[[386.53707,161.13879],[1.85526,7.12802],[-0.36412,-1.39897]],[[386.06939,156.82733],[0.62357,1.30417],[-1.24629,-2.60658]],[[379.78428,148.91366],[3.11714,0.90615],[-3.1394,-0.91262]],[[369.94744,148.64578],[3.32352,1.10784],[-6.88479,-0.09386]],[[358.36696,135.31735],[3.23469,4.84822],[-2.18942,-3.28154]],[[350.13902,128.01785],[2.8903,2.41332],[-2.56415,-2.14099]],[[342.69215,120.84252],[2.65531,1.98867],[-0.49629,-0.37169]],[[340.92299,120.2679],[0.52004,0.33767],[-2.20392,-1.43105]],[[334.88426,114.29625],[1.85559,1.84932],[-2.41809,-2.34386]],[[326.58072,107.34472],[3.00355,1.60646],[-2.5966,-1.3888]],[[316.94687,108.62853],[2.41653,-0.63377],[-5.81306,1.52456]],[[299.22571,113.05864],[5.94228,-1.09381],[3.70177,6.96443]],[[297.26548,137.53169],[1.9,-6.43641],[-0.5932,2.0095]],[[294.86113,143.33935],[0.99832,-1.8421],[0,0]],[[294.73726,143.52238],[0.08202,-0.1063],[0,0]],[294.74135,144.13576],[[293.24135,145.63576],[1.5,0],[-1.5,0]],[291.74135,144.13576],[[291.75052,143.08965],[0,0],[-0.49339,-4.85582]],[[287.42803,129.47209],[1.37229,4.63975],[-0.06401,-0.2164]],[[287.25772,128.81695],[0.05022,0.22017],[-2.06293,2.26614]],[[280.47608,135.07757],[2.21355,-2.20232],[0,0]]],&quot;closed&quot;:true,&quot;fillColor&quot;:[0,0,0,1],&quot;strokeWidth&quot;:0.5}]}" fill="#ff7e6a" stroke="none" stroke-width="0.25"/><path d="M293.80404,138.50905c-1.00364,-3.31039 -2.52368,-6.42591 -3.52303,-9.84059c-0.57184,-1.9539 -0.58392,-4.1343 -1.30819,-6.03697c-1.136,-2.98428 -1.99715,-7.06965 -1.02803,-10.38285c0.24328,-0.83173 1.38333,-1.05825 2.0868,-1.5643c2.10105,0.07794 3.69536,0.77268 4.85423,1.87698c0.14603,0.40553 0.41453,0.63368 0.68782,0.75964c3.3693,4.33633 2.15138,13.03017 0.63246,17.6351c-0.63132,1.91399 -1.24664,3.84516 -1.81184,5.7797c-0.17435,0.59677 -0.3733,1.18888 -0.59022,1.77329z" data-paper-data="{&quot;noHover&quot;:false,&quot;origItem&quot;:[&quot;Path&quot;,{&quot;applyMatrix&quot;:true,&quot;segments&quot;:[[[293.79983,138.45922],[0,0],[0.21692,-0.58441]],[[294.38706,136.68627],[-0.17435,0.59677],[0.5652,-1.93454]],[[296.18158,130.91247],[-0.63132,1.91399],[1.51892,-4.60493]],[[295.561,113.36933],[3.3693,4.33633],[-0.27329,-0.12596]],[[294.8766,112.61046],[0.14603,0.40553],[-1.15887,-1.1043]],[[290.04076,110.73349],[2.10105,0.07794],[-0.70347,0.50605]],[[287.96252,112.29539],[0.24328,-0.83173],[-0.96912,3.3132]],[[289.01686,122.65516],[-1.136,-2.98428],[0.72427,1.90267]],[[290.30599,128.62515],[-0.57184,-1.9539],[0.99935,3.41468]],[[293.79983,138.45923],[-1.00364,-3.31039],[0,0]]],&quot;closed&quot;:true,&quot;fillColor&quot;:[0,0,0,1],&quot;strokeWidth&quot;:0.5}]}" fill="#ffdb76" stroke="none" stroke-width="0.25"/><path d="M286.5767,169.5973c0.78888,0 1.16287,0.41489 1.34017,0.80827c0.43669,-1.97456 0.64495,-3.98061 1.5382,-5.99382c4.86078,-10.95534 18.3806,-12.38101 28.93017,-12.38488c1.0593,0 5.63749,-0.49056 6.39148,0.32994c0.84492,0.91944 0.804,2.36614 1.13157,3.57111c1.01566,3.73619 0.44651,7.17556 -0.28923,10.88131c-0.19776,0.99606 0.05366,2.17054 -0.53285,2.99955c-1.47672,2.08726 -3.81333,1.81123 -5.89074,2.35355c-3.38588,0.8839 -6.37279,3.32459 -9.91766,4.04317c-0.98603,0.19988 -3.945,1.14929 -5.44088,1.0392c0.05676,0.021 0.10752,0.03888 0.14777,0.05125c4.9014,3.03669 11.57072,4.62537 14.49644,10.03103c1.7203,3.17848 1.35665,8.00536 0.81673,11.45739c-0.13353,0.85374 -0.81004,4.37281 -1.70121,5.21284c-0.57568,0.54264 -1.50428,0.50917 -2.20753,0.87153c-4.87249,2.51064 -9.25155,4.06534 -14.84787,4.08118c-9.45035,-0.07658 -10.41683,-8.21968 -11.62461,-15.84145c-0.03456,-0.21811 -1.08362,-5.60205 -1.1068,-5.8138c-0.16794,-1.53429 0.09067,-3.25423 -0.51166,-4.75069c-0.4577,-1.13713 -1.51694,-1.99428 -1.86412,-3.16988c-0.59293,-2.00769 0.07048,-4.51158 -0.35007,-6.6143l-0.0073,-1.6625c0,0 0,-1.5 1.5,-1.5zM288.10852,177.11996c0.01887,0.51451 0.07881,1.0055 0.21669,1.45334c0.33235,1.07953 1.35329,1.83949 1.77114,2.88889c0.7153,1.79645 0.50133,3.69955 0.70009,5.54922c0.31062,2.89054 1.10239,5.75442 1.46456,8.65153c0.6661,5.32819 2.18526,10.3488 8.28025,10.28699c5.23051,0.01652 9.00409,-1.59629 13.56958,-3.79522c0.44077,-0.21229 1.03476,-0.0488 1.42773,-0.34022c0.92353,-0.68488 1.00414,-5.34186 1.04142,-6.30923c0.07675,-1.99162 0.33447,-4.89152 -0.71414,-6.70851c-2.80856,-4.86655 -9.50104,-6.44596 -13.97978,-9.35704c-0.52708,-1.12544 -1.86247,-2.1658 -1.58125,-3.37632c0.09597,-0.41311 3.44063,-1.89535 4.28963,-2.15219c2.59298,-0.78444 4.97517,-0.95796 7.5652,-1.81493c2.17468,-0.71954 3.986,-2.21261 6.17679,-2.80831c1.41675,-0.38524 3.50953,0.1224 4.25362,-1.14327c0.31235,-0.53129 -0.01741,-1.23783 0.07302,-1.84747c0.529,-3.56615 1.71273,-8.10955 0.23646,-11.60028c-0.0862,-0.20382 -0.35688,0.29972 -0.5761,0.32994c-1.30044,0.17924 -2.62547,0 -3.9382,0c-9.4573,-0.00363 -21.65176,0.94743 -26.20463,10.63845c-1.72979,3.68194 -1.2137,7.5095 -3.77743,11.15086c0,0 -0.10557,0.14779 -0.29466,0.30379z" fill="#000000" stroke="none" stroke-width="0.5"/><path d="M288.05929,177.11117c0.18909,-0.156 0.29484,-0.30476 0.29484,-0.30476c2.56373,-3.64136 2.06253,-7.49566 3.79232,-11.1776c4.55287,-9.69102 16.80368,-10.65036 26.26098,-10.64673c1.31273,0 2.64285,0.18215 3.94329,0.00291c0.21922,-0.03022 0.49031,-0.53349 0.57651,-0.32967c1.47627,3.49073 0.30325,8.04374 -0.22575,11.60989c-0.09043,0.60964 0.24137,1.3188 -0.07098,1.85009c-0.74409,1.26567 -2.91481,0.82051 -4.33156,1.20575c-2.19079,0.5957 -3.99507,2.09534 -6.16975,2.81488c-2.59003,0.85697 -4.93204,1.03988 -7.52502,1.82432c-0.849,0.25684 -4.16362,1.72035 -4.25959,2.13346c-0.28122,1.21052 1.06328,2.23114 1.59036,3.35658c4.47874,2.91108 11.16046,4.51229 13.96902,9.37884c1.04861,1.81699 0.78159,4.72539 0.70484,6.71701c-0.03728,0.96737 -0.12619,5.62908 -1.04972,6.31396c-0.39297,0.29142 -0.98981,0.12911 -1.43058,0.3414c-4.56549,2.19893 -8.36688,3.81392 -13.59739,3.7974c-6.09499,0.06181 -7.63714,-4.97032 -8.30324,-10.29851c-0.36217,-2.89711 -1.16647,-5.77808 -1.47709,-8.66862c-0.19876,-1.84967 0.01102,-3.76944 -0.70428,-5.56589c-0.41785,-1.0494 -1.43868,-1.81794 -1.77103,-2.89747c-0.13788,-0.44784 -0.19728,-0.94275 -0.21615,-1.45726z" data-paper-data="{&quot;noHover&quot;:false,&quot;origItem&quot;:[&quot;Path&quot;,{&quot;applyMatrix&quot;:true,&quot;segments&quot;:[[[288.10852,177.11996],[0,0],[0.01887,0.51451]],[[288.32521,178.5733],[-0.13788,-0.44784],[0.33235,1.07953]],[[290.09635,181.46219],[-0.41785,-1.0494],[0.7153,1.79645]],[[290.79644,187.01141],[-0.19876,-1.84967],[0.31062,2.89054]],[[292.261,195.66294],[-0.36217,-2.89711],[0.6661,5.32819]],[[300.54125,205.94993],[-6.09499,0.06181],[5.23051,0.01652]],[[314.11083,202.15471],[-4.56549,2.19893],[0.44077,-0.21229]],[[315.53856,201.81449],[-0.39297,0.29142],[0.92353,-0.68488]],[[316.57998,195.50526],[-0.03728,0.96737],[0.07675,-1.99162]],[[315.86584,188.79675],[1.04861,1.81699],[-2.80856,-4.86655]],[[301.88606,179.43971],[4.47874,2.91108],[-0.52708,-1.12544]],[[300.30481,176.06339],[-0.28122,1.21052],[0.09597,-0.41311]],[[304.59444,173.9112],[-0.849,0.25684],[2.59298,-0.78444]],[[312.15964,172.09627],[-2.59003,0.85697],[2.17468,-0.71954]],[[318.33643,169.28796],[-2.19079,0.5957],[1.41675,-0.38524]],[[322.59005,168.14469],[-0.74409,1.26567],[0.31235,-0.53129]],[[322.66307,166.29722],[-0.09043,0.60964],[0.529,-3.56615]],[[322.89953,154.69694],[1.47627,3.49073],[-0.0862,-0.20382]],[[322.32343,155.02688],[0.21922,-0.03022],[-1.30044,0.17924]],[[318.38523,155.02688],[1.31273,0],[-9.4573,-0.00363]],[[292.1806,165.66533],[4.55287,-9.69102],[-1.72979,3.68194]],[[288.40317,176.81619],[2.56373,-3.64136],[0,0]],[[288.10851,177.11998],[0.18909,-0.156],[0,0]]],&quot;closed&quot;:true,&quot;fillColor&quot;:[0,0,0,1],&quot;strokeWidth&quot;:0.5}]}" fill="#ffdb76" stroke="none" stroke-width="0.25"/><path d="M200.73321,287.32043v-215.49032h239.22549v215.49032z" fill="none" stroke="#000000" stroke-width="0"/></g></g></svg>