<svg version="1.1" xmlns="http://www.w3.org/2000/svg" xmlns:xlink="http://www.w3.org/1999/xlink" width="239.22549" height="215.49032" viewBox="0,0,239.22549,215.49032"><g transform="translate(-200.7332,-71.8301)"><g data-paper-data="{&quot;isPaintingLayer&quot;:true}" fill-rule="nonzero" stroke-linecap="butt" stroke-linejoin="miter" stroke-miterlimit="10" stroke-dasharray="" stroke-dashoffset="0" style="mix-blend-mode: normal"><path d="M253.25346,140.36373c0.73656,0 1.11144,0.36168 1.30224,0.72984c2.04625,-3.0112 3.86948,-6.37319 6.532,-8.56919c2.72086,-2.24412 5.70982,-3.68226 8.80868,-5.22755c2.58421,-1.28866 5.90708,-3.03092 8.02553,-4.9582c0.46063,-0.41907 0.66694,-1.10502 1.19378,-1.43704c0.90027,-0.56736 2.06426,-0.61266 2.96943,-1.17216c1.78029,-1.42423 4.24397,-3.3639 6.22872,-4.34334c3.4891,-1.72181 7.67261,-1.53658 11.36373,-1.18075c4.96444,0.47859 10.13663,0.38556 14.94132,2.00044c6.75454,2.27023 13.66848,6.50451 18.93227,11.23916c2.06953,0.87675 3.69898,2.24514 5.89898,2.88026c3.49525,1.00904 7.3251,2.54357 10.22627,4.96521c3.3623,2.80655 5.57433,7.8668 7.59213,11.6147c0.10674,0.19826 1.12333,2.87147 1.61261,3.34511c2.36543,2.28982 5.35573,5.51286 8.12907,7.28526c0.63503,0.40584 1.56338,0.18831 2.16962,0.63602c0.95708,0.70682 1.56039,1.79655 2.34059,2.69482c2.02091,7.6246 2.11282,15.27649 1.73408,23.13787c-0.16008,3.32275 -0.08772,7.37273 -1.75913,10.39691c-1.21229,2.19347 -3.10367,2.93115 -4.93192,4.47746c-3.49923,2.95961 -7.01212,5.95188 -10.30528,9.30598c-1.81093,1.00849 -3.19162,2.68254 -4.99647,3.70185c-0.72456,0.40921 -1.65848,0.22362 -2.44932,0.48248c-5.79019,1.89522 -11.68169,2.06351 -17.58628,3.5075c-4.53557,1.10919 -8.79964,4.03189 -13.61041,3.51596c-3.7732,-0.40466 -7.32678,-2.04945 -11.02658,-2.74471c-2.74588,-0.516 -5.60916,-0.63194 -8.3742,-1.09226c-4.57744,-0.76396 -9.17835,-0.58654 -13.67366,-1.31992c-4.19305,-0.68408 -8.81815,-2.32712 -12.56685,-4.07882c-1.25474,-0.58632 -2.56642,-0.49445 -3.88684,-0.78528c-2.26978,-0.49993 -5.44552,-1.77235 -7.47832,-2.80792c-1.55209,-0.79068 -2.67343,-2.26448 -4.1867,-3.12712c-1.72421,-0.98288 -3.5734,-1.73343 -5.30512,-2.703c-1.32562,-0.74386 -3.41849,-1.85716 -4.42677,-2.80064c-4.5585,-4.26554 -2.56588,-11.58533 -2.81209,-17.10846c-0.20162,-4.52285 -1.57241,-9.9166 -0.58041,-14.40261c0.21815,-0.9865 0.88283,-1.83431 1.12044,-2.8163c0.83197,-3.43834 -0.08496,-7.35969 0.6943,-10.80046c0.31907,-1.40882 1.77348,-4.45049 2.32835,-5.68345c1.48319,-1.74752 2.7695,-3.61512 4.33014,-5.27619l-0.01792,0.01855c0,0 0,-1.5 1.5,-1.5zM249.57175,149.70009c-1.24289,3.161 -1.64276,5.9305 -2.10818,9.36848c-0.30241,2.23383 0.40592,2.90784 -0.11144,5.16467c-0.22114,0.96465 -0.87915,1.79169 -1.1079,2.75456c-0.98883,4.16223 0.44337,9.48604 0.63135,13.70281c0.19468,4.36711 -1.78941,11.73968 1.88964,15.075c0.75441,0.68393 2.80498,1.78332 3.81876,2.3506c1.75503,0.98439 3.63252,1.74121 5.37682,2.74449c1.44947,0.83369 2.50637,2.2765 4.00151,3.02519c3.62679,1.81612 7.71744,1.97212 11.34635,3.58378c3.53902,1.57173 7.73167,3.15884 11.66823,3.79758c4.51283,0.73224 9.13453,0.56385 13.73121,1.32894c2.79043,0.46561 5.67852,0.5839 8.44995,1.10589c4.08696,0.76976 8.85829,3.46061 13.10749,2.71859c3.49106,-0.60963 6.80052,-2.61638 10.24834,-3.45851c5.84669,-1.42806 11.69341,-1.63371 17.42605,-3.46361c0.62692,-0.20012 1.38442,0.04749 1.95397,-0.28218c1.63697,-0.94752 2.88106,-2.49304 4.5354,-3.40988c3.16516,-3.37088 6.71868,-6.27333 10.14925,-9.17739c1.52357,-1.28974 3.28924,-1.89002 4.30152,-3.69776c1.4292,-2.55227 1.24491,-6.2773 1.37786,-9.07065c0.34926,-7.33815 0.24543,-14.45996 -1.40291,-21.61754c-0.85151,-1.01701 -2.25222,-1.40203 -3.36619,-2.12205c-2.9577,-1.91172 -6.38918,-5.34267 -8.83548,-7.86166c-1.0823,-1.11446 -1.31697,-2.61505 -2.02266,-3.92541c-1.83834,-3.41355 -3.87637,-8.24763 -6.94892,-10.80275c-2.57235,-2.13916 -5.98214,-3.4021 -9.04383,-4.31811c-2.50985,-0.75091 -4.35612,-2.20671 -6.69908,-3.2383c-5.16357,-4.54106 -11.69791,-8.71259 -18.26955,-10.92333c-4.58033,-1.54085 -9.55011,-1.39907 -14.28118,-1.86019c-3.10958,-0.30307 -6.76727,-0.63217 -9.70156,0.86224c-1.86761,0.95116 -4.17242,2.76581 -5.88882,4.13894c-0.95769,0.56325 -2.14507,0.66586 -3.08934,1.25134c-1.27838,0.79264 -2.06884,2.23021 -3.3401,3.03422c-1.76335,1.11524 -4.22881,2.5487 -6.10482,3.48912c-2.92638,1.46696 -5.68639,2.77069 -8.27385,4.87719c-5.17581,4.21373 -6.98534,11.60036 -13.00358,14.72268c0,0 -0.16778,0.08389 -0.41433,0.133z" fill="#000000" stroke="none" stroke-width="0.5"/><path d="M249.52372,149.68612c0.24655,-0.04911 0.41439,-0.13319 0.41439,-0.13319c6.01824,-3.12232 7.83488,-10.52363 13.01069,-14.73736c2.58746,-2.1065 5.3529,-3.41669 8.27928,-4.88365c1.87601,-0.94042 4.34651,-2.3783 6.10986,-3.49354c1.27126,-0.80401 2.06532,-2.24409 3.3437,-3.03673c0.94427,-0.58548 2.13443,-0.68973 3.09212,-1.25298c1.7164,-1.37313 4.02746,-3.19066 5.89507,-4.14182c2.93429,-1.49441 6.601,-1.1678 9.71058,-0.86473c4.73107,0.46112 9.7153,0.3189 14.29563,1.85975c6.57164,2.21074 13.1274,6.38996 18.29097,10.93102c2.34296,1.03159 4.19571,2.49238 6.70556,3.24329c3.06169,0.91601 6.47806,2.18623 9.05041,4.32539c3.07255,2.55512 5.11686,7.40051 6.9552,10.81406c0.70569,1.31036 0.94178,2.81506 2.02408,3.92952c2.4463,2.51899 5.87954,5.95851 8.83724,7.87023c1.11397,0.72002 2.51487,1.10708 3.36638,2.12409c1.64834,7.15758 1.75051,14.29637 1.40125,21.63452c-0.13295,2.79335 0.04905,6.52489 -1.38015,9.07716c-1.01228,1.80774 -2.77968,2.41162 -4.30325,3.70136c-3.43057,2.90406 -6.99007,5.81536 -10.15523,9.18624c-1.65434,0.91684 -2.90159,2.46577 -4.53856,3.41329c-0.56955,0.32967 -1.32803,0.083 -1.95495,0.28312c-5.73264,1.8299 -11.59165,2.04396 -17.43834,3.47202c-3.44782,0.84213 -6.76721,2.85245 -10.25827,3.46208c-4.2492,0.74202 -9.03343,-1.94742 -13.12039,-2.71718c-2.77143,-0.52199 -5.66855,-0.6413 -8.45898,-1.10691c-4.59668,-0.76509 -9.23138,-0.60132 -13.74421,-1.33356c-3.93656,-0.63874 -8.13863,-2.23221 -11.67765,-3.80394c-3.62891,-1.61166 -7.72602,-1.77432 -11.35281,-3.59044c-1.49514,-0.74869 -2.55443,-2.19472 -4.0039,-3.02841c-1.7443,-1.00328 -3.62398,-1.76363 -5.37901,-2.74802c-1.01378,-0.56728 -3.06573,-1.6693 -3.82014,-2.35323c-3.67905,-3.33532 -1.69879,-10.71875 -1.89347,-15.08586c-0.18798,-4.21677 -1.62143,-9.55148 -0.6326,-13.71371c0.22875,-0.96287 0.8868,-1.79217 1.10794,-2.75682c0.51736,-2.25683 -0.19062,-2.93505 0.11179,-5.16888c0.46542,-3.43798 0.86688,-6.21517 2.10977,-9.37617z" data-paper-data="{&quot;noHover&quot;:false,&quot;origItem&quot;:[&quot;Path&quot;,{&quot;applyMatrix&quot;:true,&quot;segments&quot;:[[[249.57175,149.70009],[0,0],[-1.24289,3.161]],[[247.46357,159.06857],[0.46542,-3.43798],[-0.30241,2.23383]],[[247.35213,164.23324],[0.51736,-2.25683],[-0.22114,0.96465]],[[246.24423,166.9878],[0.22875,-0.96287],[-0.98883,4.16223]],[[246.87558,180.69061],[-0.18798,-4.21677],[0.19468,4.36711]],[[248.76522,195.76561],[-3.67905,-3.33532],[0.75441,0.68393]],[[252.58398,198.11621],[-1.01378,-0.56728],[1.75503,0.98439]],[[257.9608,200.8607],[-1.7443,-1.00328],[1.44947,0.83369]],[[261.96231,203.88589],[-1.49514,-0.74869],[3.62679,1.81612]],[[273.30866,207.46967],[-3.62891,-1.61166],[3.53902,1.57173]],[[284.97689,211.26725],[-3.93656,-0.63874],[4.51283,0.73224]],[[298.7081,212.59619],[-4.59668,-0.76509],[2.79043,0.46561]],[[307.15805,213.70208],[-2.77143,-0.52199],[4.08696,0.76976]],[[320.26554,216.42067],[-4.2492,0.74202],[3.49106,-0.60963]],[[330.51388,212.96216],[-3.44782,0.84213],[5.84669,-1.42806]],[[347.93993,209.49855],[-5.73264,1.8299],[0.62692,-0.20012]],[[349.8939,209.21637],[-0.56955,0.32967],[1.63697,-0.94752]],[[354.4293,205.80649],[-1.65434,0.91684],[3.16516,-3.37088]],[[364.57855,196.6291],[-3.43057,2.90406],[1.52357,-1.28974]],[[368.88007,192.93134],[-1.01228,1.80774],[1.4292,-2.55227]],[[370.25793,183.86069],[-0.13295,2.79335],[0.34926,-7.33815]],[[368.85502,162.24315],[1.64834,7.15758],[-0.85151,-1.01701]],[[365.48883,160.1211],[1.11397,0.72002],[-2.9577,-1.91172]],[[356.65335,152.25944],[2.4463,2.51899],[-1.0823,-1.11446]],[[354.63069,148.33403],[0.70569,1.31036],[-1.83834,-3.41355]],[[347.68177,137.53128],[3.07255,2.55512],[-2.57235,-2.13916]],[[338.63794,133.21317],[3.06169,0.91601],[-2.50985,-0.75091]],[[331.93886,129.97487],[2.34296,1.03159],[-5.16357,-4.54106]],[[313.66931,119.05154],[6.57164,2.21074],[-4.58033,-1.54085]],[[299.38813,117.19135],[4.73107,0.46112],[-3.10958,-0.30307]],[[289.68657,118.05359],[2.93429,-1.49441],[-1.86761,0.95116]],[[283.79775,122.19253],[1.7164,-1.37313],[-0.95769,0.56325]],[[280.70841,123.44387],[0.94427,-0.58548],[-1.27838,0.79264]],[[277.36831,126.47809],[1.27126,-0.80401],[-1.76335,1.11524]],[[271.26349,129.96721],[1.87601,-0.94042],[-2.92638,1.46696]],[[262.98964,134.8444],[2.58746,-2.1065],[-5.17581,4.21373]],[[249.98606,149.56708],[6.01824,-3.12232],[0,0]],[[249.57173,149.70008],[0.24655,-0.04911],[0,0]]],&quot;closed&quot;:true,&quot;fillColor&quot;:[0,0,0,1],&quot;strokeWidth&quot;:0.5}]}" fill="#fe806a" stroke="none" stroke-width="0.25"/><path d="M295.91534,202.19102c2.80563,-1.09119 5.55756,-1.58937 8.17864,-2.90469c0.23382,-0.11734 2.43225,-0.58126 2.70321,-1.23873c1.34395,-3.26092 2.30545,-8.86435 0.32207,-12.0639c-0.89135,-1.4379 -3.23346,-2.14138 -4.05501,-3.86099c-0.6294,-1.31742 -0.11144,-4.75738 -0.10688,-6.17472c0.90365,-3.62172 4.22443,-4.47274 6.49217,-7.27648c0.97914,-1.21057 1.05261,-3.16773 1.44374,-4.53006c0.71217,-2.48053 3.34235,-5.62477 3.27447,-8.17885c-0.03216,-1.20999 -1.51577,-1.35739 -2.21894,-1.39198c-3.04428,-0.14975 -5.39419,-0.32208 -7.72769,1.75561c-1.63045,1.45171 -3.04146,3.0391 -4.61368,4.59161c-0.08553,0.17414 -2.24011,4.58616 -2.40012,4.81397c-1.78073,2.53531 -4.31854,4.17332 -5.63259,7.05257c-0.83841,1.83706 -0.9262,3.97629 -1.83293,5.78807c-0.29085,0.58116 -0.93493,0.9714 -1.12359,1.59328c-0.16251,0.53571 0.34613,4.43575 0.35901,4.55782c0.71945,6.81712 3.02081,12.05853 6.93812,17.46747zM298.03389,204.61242c-0.00163,0.00679 -0.0033,0.01361 -0.00501,0.02045c-0.3638,1.45521 -1.81902,1.09141 -1.81902,1.09141l-2.04795,-0.85815c-4.60651,-6.16514 -7.35609,-12.10006 -8.16811,-19.82767c-0.14188,-1.35024 -0.61536,-4.39385 -0.24686,-5.74208c0.21273,-0.77833 0.93934,-1.32015 1.29992,-2.04198c1.45024,-2.90315 1.4972,-6.21454 3.62407,-8.87076c2.62072,-3.27297 4.58042,-5.43144 6.50274,-9.21986c1.92072,-1.94244 4.04631,-5.13455 6.51572,-6.4753c2.62297,-1.42413 5.58426,-1.33727 8.40887,-1.11415c2.25381,0.17804 4.72716,1.30743 5.05158,4.06091c0.35969,3.05278 -2.5783,6.53563 -3.39018,9.39158c-0.63201,2.22323 -0.42406,3.51091 -1.9172,5.45408c-1.2062,1.56976 -5.76972,3.86076 -5.89969,5.7627c0.0031,0.83677 -0.49802,4.01498 -0.10688,4.73106c0.74993,1.37295 3.00321,2.1062 3.82139,3.40953c2.41819,3.85208 1.32075,7.80473 0.43236,11.79021c-0.42655,1.91357 -1.12472,4.15636 -2.80217,5.17117c-2.86094,1.73077 -6.11431,2.20486 -9.25357,3.26686z" fill="#000000" stroke="none" stroke-width="0.5"/><path d="M288.93276,184.74643c-0.01288,-0.12207 -0.52656,-4.03791 -0.36405,-4.57362c0.18866,-0.62188 0.83225,-1.0182 1.1231,-1.59936c0.90673,-1.81178 1.00101,-3.97666 1.83942,-5.81372c1.31405,-2.87925 3.87966,-4.54008 5.66039,-7.07539c0.16001,-0.22781 2.32524,-4.6421 2.41077,-4.81624c1.57222,-1.55251 2.99469,-3.13974 4.62514,-4.59145c2.3335,-2.07769 4.69732,-1.90146 7.7416,-1.75171c0.70317,0.03459 2.19127,0.18427 2.22343,1.39426c0.06788,2.55408 -2.55928,5.70019 -3.27145,8.18072c-0.39113,1.36233 -0.46039,3.32264 -1.43953,4.53321c-2.26774,2.80374 -5.59301,3.65142 -6.49666,7.27314c-0.00456,1.41734 -0.52971,4.94469 0.09969,6.26211c0.82155,1.71961 3.17333,2.4174 4.06468,3.8553c1.98338,3.19955 1.00511,8.81121 -0.33884,12.07213c-0.27096,0.65747 -2.47622,1.12276 -2.71004,1.2401c-2.62108,1.31532 -5.3906,1.81265 -8.19623,2.90384c-3.91731,-5.40894 -6.25196,-10.6762 -6.97141,-17.49332z" data-paper-data="{&quot;noHover&quot;:false,&quot;origItem&quot;:[&quot;Path&quot;,{&quot;applyMatrix&quot;:true,&quot;segments&quot;:[[[295.91534,202.19102],[-3.91731,-5.40894],[2.80563,-1.09119]],[[304.09398,199.28633],[-2.62108,1.31532],[0.23382,-0.11734]],[[306.79719,198.0476],[-0.27096,0.65747],[1.34395,-3.26092]],[[307.11926,185.9837],[1.98338,3.19955],[-0.89135,-1.4379]],[[303.06425,182.12271],[0.82155,1.71961],[-0.6294,-1.31742]],[[302.95737,175.94799],[-0.00456,1.41734],[0.90365,-3.62172]],[[309.44954,168.67151],[-2.26774,2.80374],[0.97914,-1.21057]],[[310.89328,164.14145],[-0.39113,1.36233],[0.71217,-2.48053]],[[314.16775,155.9626],[0.06788,2.55408],[-0.03216,-1.20999]],[[311.94881,154.57062],[0.70317,0.03459],[-3.04428,-0.14975]],[[304.22112,156.32623],[2.3335,-2.07769],[-1.63045,1.45171]],[[299.60744,160.91784],[1.57222,-1.55251],[-0.08553,0.17414]],[[297.20732,165.73181],[0.16001,-0.22781],[-1.78073,2.53531]],[[291.57473,172.78438],[1.31405,-2.87925],[-0.83841,1.83706]],[[289.7418,178.57245],[0.90673,-1.81178],[-0.29085,0.58116]],[[288.61821,180.16573],[0.18866,-0.62188],[-0.16251,0.53571]],[[288.97722,184.72355],[-0.01288,-0.12207],[0.71945,6.81712]]],&quot;closed&quot;:true,&quot;fillColor&quot;:[0,0,0,1],&quot;strokeWidth&quot;:0.5}]}" fill="#ffd161" stroke="none" stroke-width="0.25"/><path d="M321.98365,176.75184c1.22199,-0.57272 2.45646,-0.8185 3.91499,-1.20265c1.4234,-0.3749 5.79606,-2.62203 7.29363,-1.58282c1.23559,0.85742 0.93008,5.01008 0.93108,6.03823c0.00043,0.44553 0.06333,4.04457 -0.20263,4.41754c-0.52919,0.7421 -4.32105,2.57478 -5.10504,3.16729c-2.64569,1.99951 -6.8701,8.89425 -10.40886,4.86917c-0.65273,-0.74244 -0.6008,-1.88365 -0.9012,-2.82547c-0.02958,-3.51485 -1.90058,-7.51778 0.33387,-10.56027c0.56724,-0.77237 2.76,-1.89397 3.47767,-2.30208zM321.23179,180.34159c-2.59043,2.36195 -0.71253,5.03249 -0.75517,8.87543c0.129,0.58805 0.01384,2.16176 0.45179,1.74868c1.84708,-1.74216 3.9564,-4.16679 6.0788,-5.7699c1.29891,-0.98111 3.19136,-1.10528 4.31877,-2.27944c0.67385,-0.7018 -0.20362,-1.93882 -0.20263,-2.91176c0.00097,-0.95876 -0.08122,-1.92141 0.00511,-2.87628c0.02367,-0.26181 0.48944,-0.51969 0.32009,-0.72075c-0.15309,-0.18176 -0.29487,0.38496 -0.49505,0.51302c-0.39909,0.25529 -0.83189,0.46261 -1.27827,0.62135c-1.00053,0.35581 -2.02472,0.64375 -3.05059,0.91807c-0.73724,0.19714 -1.40779,0.31655 -2.04744,0.48644c-0.38337,0.7699 -1.34495,0.7699 -1.34495,0.7699l-0.45218,-0.02209c-0.15473,0.09755 -0.30969,0.20618 -0.46545,0.32796c0,0 -0.49235,0.36926 -1.08283,0.31936z" fill="#000000" stroke="none" stroke-width="0.5"/><path d="M321.19177,180.31161c0.59048,0.0499 1.0889,-0.32609 1.0889,-0.32609c0.15576,-0.12178 0.31511,-0.23403 0.46984,-0.33158l0.45528,0.01999c0,0 0.97637,-0.0062 1.35974,-0.7761c0.63965,-0.16989 1.33038,-0.28995 2.06762,-0.48709c1.02587,-0.27432 2.06857,-0.55506 3.0691,-0.91087c0.44638,-0.15874 0.88271,-0.36357 1.2818,-0.61886c0.20018,-0.12806 0.34229,-0.69452 0.49538,-0.51276c0.16935,0.20106 -0.29553,0.45965 -0.3192,0.72146c-0.08633,0.95487 0.00536,1.92789 0.00439,2.88665c-0.00099,0.97294 0.88473,2.23125 0.21088,2.93305c-1.12741,1.17416 -3.03672,1.34314 -4.33563,2.32425c-2.1224,1.60311 -4.29191,4.03161 -6.13899,5.77377c-0.43795,0.41308 -0.32971,-1.16613 -0.45871,-1.75418c0.04264,-3.84294 -1.84083,-6.57969 0.7496,-8.94164z" data-paper-data="{&quot;noHover&quot;:false,&quot;origItem&quot;:[&quot;Path&quot;,{&quot;applyMatrix&quot;:true,&quot;segments&quot;:[[[321.23179,180.34159],[0,0],[-2.59043,2.36195]],[[320.47662,189.21702],[0.04264,-3.84294],[0.129,0.58805]],[[320.92841,190.9657],[-0.43795,0.41308],[1.84708,-1.74216]],[[327.00721,185.1958],[-2.1224,1.60311],[1.29891,-0.98111]],[[331.32598,182.91636],[-1.12741,1.17416],[0.67385,-0.7018]],[[331.12335,180.0046],[-0.00099,0.97294],[0.00097,-0.95876]],[[331.12846,177.12832],[-0.08633,0.95487],[0.02367,-0.26181]],[[331.44855,176.40757],[0.16935,0.20106],[-0.15309,-0.18176]],[[330.9535,176.92059],[0.20018,-0.12806],[-0.39909,0.25529]],[[329.67523,177.54194],[0.44638,-0.15874],[-1.00053,0.35581]],[[326.62464,178.46001],[1.02587,-0.27432],[-0.73724,0.19714]],[[324.5772,178.94645],[0.63965,-0.16989],[-0.38337,0.7699]],[323.23225,179.71635],[[322.78007,179.69426],[0,0],[-0.15473,0.09755]],[[322.31462,180.02222],[0.15576,-0.12178],[0,0]],[[321.23179,180.34158],[0.59048,0.0499],[0,0]]],&quot;closed&quot;:true,&quot;fillColor&quot;:[0,0,0,1],&quot;strokeWidth&quot;:0.5}]}" fill="#ffd161" stroke="none" stroke-width="0.25"/><path d="M266.13224,163.90166c-0.37817,-0.04554 -1.35242,-0.28016 -1.35242,-1.48903c0,-1.5 1.5,-1.5 1.5,-1.5c1.14932,0.0037 2.25479,0.12599 3.34974,0.29378c0.10918,-0.07754 1.23584,-0.83453 2.0914,0.30622c0.01486,0.01981 0.02914,0.03954 0.04287,0.05918c0.88991,0.15929 1.78717,0.31722 2.70966,0.43458c1.69362,0.21547 3.78405,-0.24401 5.41929,0.14506c3.30959,0.78745 4.46386,3.99961 1.83858,6.6032c-0.50077,0.49663 -1.3651,0.3565 -2.04018,0.56063c-2.61412,0.79045 -8.70159,2.46415 -11.35573,1.10365c-1.66428,-0.8531 -1.68853,-2.30961 -2.01636,-3.79767c-0.06797,-0.89478 -0.58521,-1.87203 -0.2039,-2.68435c0.00556,-0.01185 0.01125,-0.02359 0.01705,-0.03524zM270.52063,164.28735l-0.34507,0.2586c-0.43587,0.19451 -1.06501,0.17249 -1.30761,0.58354c-0.17491,0.29636 0.26798,0.63394 0.40198,0.95092c0.09406,0.56035 -0.1455,1.52328 0.40715,1.65523c1.77916,0.42478 5.73059,-0.23957 7.42646,-0.71399c0.67571,-0.18903 2.99354,-0.39283 3.12744,-1.33904c0.13223,-0.93445 -2.38462,-0.5587 -2.4395,-0.55823c-2.47517,0.021 -4.86697,-0.47337 -7.27085,-0.83703z" fill="#000000" stroke="none" stroke-width="0.5"/><path d="M277.83946,165.11032c0.05488,-0.00047 2.57363,-0.36563 2.4414,0.56882c-0.1339,0.94621 -2.45466,1.17068 -3.13037,1.35971c-1.69587,0.47442 -5.74157,1.13771 -7.52073,0.71293c-0.55265,-0.13195 -0.31577,-1.11101 -0.40983,-1.67136c-0.134,-0.31698 -0.5762,-0.66284 -0.40129,-0.9592c0.2426,-0.41105 0.87389,-0.39736 1.30976,-0.59187l0.34658,-0.26239c2.40388,0.36366 4.88931,0.86437 7.36448,0.84337z" data-paper-data="{&quot;noHover&quot;:false,&quot;origItem&quot;:[&quot;Path&quot;,{&quot;applyMatrix&quot;:true,&quot;segments&quot;:[[[270.52063,164.28735],[2.40388,0.36366],[0,0]],[[270.17556,164.54595],[0,0],[-0.43587,0.19451]],[[268.86795,165.12949],[0.2426,-0.41105],[-0.17491,0.29636]],[[269.26993,166.08041],[-0.134,-0.31698],[0.09406,0.56035]],[[269.67708,167.73564],[-0.55265,-0.13195],[1.77916,0.42478]],[[277.10354,167.02165],[-1.69587,0.47442],[0.67571,-0.18903]],[[280.23098,165.68261],[-0.1339,0.94621],[0.13223,-0.93445]],[[277.79148,165.12438],[0.05488,-0.00047],[-2.47517,0.021]]],&quot;closed&quot;:true,&quot;fillColor&quot;:[0,0,0,1],&quot;strokeWidth&quot;:0.5}]}" fill="#ffd161" stroke="none" stroke-width="0.25"/><path d="M200.73321,287.32043v-215.49032h239.22549v215.49032z" fill="none" stroke="#000000" stroke-width="0"/></g></g></svg>