<svg version="1.1" xmlns="http://www.w3.org/2000/svg" xmlns:xlink="http://www.w3.org/1999/xlink" width="239.22549" height="215.49032" viewBox="0,0,239.22549,215.49032"><g transform="translate(-200.7332,-71.8301)"><g data-paper-data="{&quot;isPaintingLayer&quot;:true}" fill-rule="nonzero" stroke-linecap="butt" stroke-linejoin="miter" stroke-miterlimit="10" stroke-dasharray="" stroke-dashoffset="0" style="mix-blend-mode: normal"><path d="M279.45047,129.69573c3.04284,-0.44044 6.20606,-0.52215 9.32537,-0.85763c10.00902,-1.07647 20.85415,-3.44614 30.19177,1.87354c5.18279,1.60156 8.1995,7.33334 11.73932,11.15763c1.84047,1.98838 3.36445,4.19884 5.3501,6.05597c1.84566,1.72621 4.22569,3.2969 5.46576,5.58194c1.05408,1.94232 1.1013,4.21349 1.37683,6.29346c0.78136,5.8984 -0.23634,11.05766 -2.26728,16.66856c-2.51561,6.91763 -6.95632,10.76033 -11.75425,16.01863c-7.06676,7.74484 -14.83486,16.54697 -26.19614,16.83995c-2.93096,0.07558 -6.32837,-1.09838 -9.21325,-1.59853c-8.60048,-2.06507 -17.02811,-6.40117 -23.11184,-13.0905c-1.11447,-1.2254 -1.85936,-2.76662 -3.02983,-3.93865c-2.06263,-2.0654 -5.5548,-4.33331 -6.9062,-6.99064c-2.08718,-4.10415 -1.9923,-9.16856 -2.60502,-13.6446c0.01262,-3.46786 -1.34095,-7.15972 -0.89619,-10.62335c0.28402,-2.21186 1.82559,-4.28833 2.11332,-6.60844c0.21111,-1.70231 -0.32092,-3.58107 0.01811,-5.26994c0.88216,-4.39445 4.05324,-8.8433 6.30763,-12.62312c0.99375,-1.66616 2.92028,-4.83148 4.92687,-5.45785c1.44725,-0.45176 4.62805,-0.37611 6.22209,-0.385c0.68704,0.22166 1.37408,0.44332 2.06111,0.66498l0.73741,-0.07698c0,0 0.05515,0 0.14429,0.01057zM268.99116,134.73253c-0.4489,0.69045 -0.82513,1.35353 -1.04587,1.72716c-2.05065,3.4709 -5.14802,7.64681 -5.94837,11.67075c-0.31236,1.57045 0.21794,3.44188 0.01811,5.02997c-0.2918,2.31894 -1.8649,4.54076 -2.12782,6.72085c-0.38619,3.20224 0.91045,6.74529 0.92144,9.97646c0.57337,4.04946 0.42257,8.68584 2.242,12.40811c1.1393,2.33083 4.63666,4.53562 6.4231,6.33865c1.16553,1.17635 1.92898,2.69988 3.02894,3.93775c5.58505,6.28526 13.59982,10.33312 21.5726,12.24898c2.6415,0.45686 5.82359,1.6105 8.50764,1.5382c10.47283,-0.28212 17.58977,-8.77418 24.09165,-15.87741c4.51478,-4.93234 8.79196,-8.50114 11.13705,-15.00441c1.87742,-5.18041 2.83586,-9.88258 2.10589,-15.31961c-0.22957,-1.70988 -0.18769,-3.60539 -1.04667,-5.21821c-1.04037,-1.95338 -3.27278,-3.29763 -4.84011,-4.77226c-2.04654,-1.92549 -3.6311,-4.17646 -5.52729,-6.2324c-3.07245,-3.3313 -6.12085,-9.25267 -10.70057,-10.42882c-8.86783,-5.08296 -19.20219,-2.67757 -28.70624,-1.65541c-2.92212,0.31427 -6.09916,0.30555 -9.13404,0.71986c-0.34134,0.1444 -0.65642,0.1444 -0.65642,0.1444l-0.22736,-0.01038c-2.78927,0.46802 -5.42252,1.36367 -7.58167,3.28453c0,0 -1.13888,0.97619 -2.11507,-0.1627c-0.32871,-0.38349 -0.4176,-0.74854 -0.39091,-1.06407zM270.07636,133.25774c0.48953,-0.37333 0.9899,-0.70952 1.49996,-1.01277c-0.08463,0.01164 -0.15675,0.02406 -0.21409,0.03731c-0.40219,0.09292 -0.84815,0.47294 -1.28587,0.97546z" fill="#000000" stroke="none" stroke-width="0.5"/><path d="M269.02507,134.76927c-0.02669,0.31553 -0.00595,0.6074 0.32276,0.99089c0.97619,1.13889 2.1163,0.16158 2.1163,0.16158c2.15915,-1.92086 4.80014,-2.82211 7.58941,-3.29013l0.22756,0.01026c0,0 0.31576,-0.00039 0.6571,-0.14479c3.03488,-0.41431 6.22204,-0.40987 9.14416,-0.72414c9.50405,-1.02216 19.87545,-3.42416 28.74328,1.6588c4.57972,1.17615 7.64334,7.10951 10.71579,10.44081c1.89619,2.05594 3.48688,4.31587 5.53342,6.24136c1.56733,1.47463 3.80291,2.82613 4.84328,4.77951c0.85898,1.61282 0.81882,3.51458 1.04839,5.22446c0.72997,5.43703 -0.2283,10.15851 -2.10572,15.33892c-2.34509,6.50327 -6.63291,10.09474 -11.14769,15.02708c-6.50188,7.10323 -13.65392,15.61327 -24.12675,15.89539c-2.68405,0.0723 -5.87755,-1.08187 -8.51905,-1.53873c-7.97278,-1.91586 -16.01707,-5.98003 -21.60212,-12.26529c-1.09996,-1.23787 -1.86754,-2.76678 -3.03307,-3.94313c-1.78644,-1.80303 -5.28893,-4.01784 -6.42823,-6.34867c-1.81943,-3.72227 -1.67181,-8.37435 -2.24518,-12.42381c-0.01099,-3.23117 -1.30659,-6.78647 -0.9204,-9.98871c0.26292,-2.18009 1.83852,-4.41015 2.13032,-6.72909c0.19983,-1.58809 -0.32818,-3.46444 -0.01582,-5.03489c0.80035,-4.02394 3.90642,-8.21163 5.95707,-11.68253c0.22074,-0.37363 0.59852,-1.0382 1.04742,-1.72865z" data-paper-data="{&quot;noHover&quot;:false,&quot;origItem&quot;:[&quot;Path&quot;,{&quot;applyMatrix&quot;:true,&quot;segments&quot;:[[[268.99116,134.73253],[0,0],[-0.4489,0.69045]],[[267.94529,136.45969],[0.22074,-0.37363],[-2.05065,3.4709]],[[261.99692,148.13044],[0.80035,-4.02394],[-0.31236,1.57045]],[[262.01503,153.16041],[0.19983,-1.58809],[-0.2918,2.31894]],[[259.88721,159.88126],[0.26292,-2.18009],[-0.38619,3.20224]],[[260.80865,169.85772],[-0.01099,-3.23117],[0.57337,4.04946]],[[263.05065,182.26583],[-1.81943,-3.72227],[1.1393,2.33083]],[[269.47375,188.60448],[-1.78644,-1.80303],[1.16553,1.17635]],[[272.50269,192.54223],[-1.09996,-1.23787],[5.58505,6.28526]],[[294.07529,204.79121],[-7.97278,-1.91586],[2.6415,0.45686]],[[302.58293,206.32941],[-2.68405,0.0723],[10.47283,-0.28212]],[[326.67458,190.452],[-6.50188,7.10323],[4.51478,-4.93234]],[[337.81163,175.44759],[-2.34509,6.50327],[1.87742,-5.18041]],[[339.91752,160.12798],[0.72997,5.43703],[-0.22957,-1.70988]],[[338.87085,154.90977],[0.85898,1.61282],[-1.04037,-1.95338]],[[334.03074,150.13751],[1.56733,1.47463],[-2.04654,-1.92549]],[[328.50345,143.90511],[1.89619,2.05594],[-3.07245,-3.3313]],[[317.80288,133.47629],[4.57972,1.17615],[-8.86783,-5.08296]],[[289.09664,131.82088],[9.50405,-1.02216],[-2.92212,0.31427]],[[279.9626,132.54074],[3.03488,-0.41431],[-0.34134,0.1444]],[279.30618,132.68514],[[279.07882,132.67476],[0,0],[-2.78927,0.46802]],[[271.49715,135.95929],[2.15915,-1.92086],[0,0]],[[269.38208,135.79659],[0.97619,1.13889],[-0.32871,-0.38349]],[[268.99117,134.73252],[-0.02669,0.31553],[0,0]]],&quot;closed&quot;:true,&quot;fillColor&quot;:[0,0,0,1],&quot;strokeWidth&quot;:0.5}]}" fill="#fe806a" stroke="none" stroke-width="0.25"/><path d="M200.73321,287.32043v-215.49032h239.22549v215.49032z" fill="none" stroke="#000000" stroke-width="0"/></g></g></svg>