<svg version="1.1" xmlns="http://www.w3.org/2000/svg" xmlns:xlink="http://www.w3.org/1999/xlink" width="239.22549" height="215.49032" viewBox="0,0,239.22549,215.49032"><g transform="translate(-200.7332,-71.8301)"><g data-paper-data="{&quot;isPaintingLayer&quot;:true}" fill-rule="nonzero" stroke-linecap="butt" stroke-linejoin="miter" stroke-miterlimit="10" stroke-dasharray="" stroke-dashoffset="0" style="mix-blend-mode: normal"><path d="M303.3895,148.36607c1.81286,0.26003 3.65257,0.77052 5.01761,1.04501c7.76197,1.56083 13.0945,5.97046 19.68646,9.9768c1.81977,1.80763 5.29649,3.93613 6.24816,6.44163c1.19664,3.15048 -1.76457,8.09243 -2.87078,10.85338c-1.27076,3.17164 -2.72058,7.5489 -4.56811,10.36383c-0.31835,0.48504 -1.01485,0.58331 -1.43904,0.97914c-4.23436,3.95121 -10.37042,6.44036 -16.24403,6.21316c-8.57264,-0.16592 -16.73973,-3.24715 -23.35762,-8.07419c-2.05776,-1.50092 -4.82834,-3.10667 -6.06701,-5.51042c-1.7332,-3.36341 -1.55926,-7.12488 -1.04002,-10.73482c1.47801,-4.14471 5.78392,-6.72794 9.17462,-9.40257c1.25639,-0.99106 2.51408,-2.01815 3.74894,-3.08382c-0.60029,0.3373 -1.20699,0.64176 -1.81845,0.89444c0,0 -1.39272,0.55709 -1.9498,-0.83563c-0.55709,-1.39272 0.83563,-1.9498 0.83563,-1.9498c3.82849,-1.46286 6.56638,-5.62889 10.42232,-7.01051c0.39733,-0.14237 0.83018,-0.23252 1.2874,-0.28128c0.02266,-0.03061 0.04528,-0.06124 0.06784,-0.0919l1.50294,-0.6c0,0 0.99268,0 1.36294,0.80755zM301.96537,151.17925c-3.525,4.35705 -7.77732,8.22209 -12.17766,11.69317c-2.49093,1.9649 -7.19375,4.59268 -8.11285,7.73643c-1.00893,7.12373 1.96029,11.34017 7.98873,14.97166c0.4837,0.29138 1.17214,0.08009 1.65107,0.37926c0.46523,0.29061 0.59118,0.95 1.02149,1.29019c1.1476,0.90726 3.626,1.12194 5.0148,1.58518c4.24564,1.41615 7.52043,2.31921 11.97147,2.40564c5.08333,0.31432 10.44059,-2.06536 14.1018,-5.41495c0.3286,-0.30063 0.91154,-0.30057 1.15331,-0.67462c1.67537,-2.59198 2.95174,-6.68655 4.11838,-9.60812c0.64186,-1.60738 3.6712,-6.79547 2.81494,-8.72055c-0.83448,-1.87609 -3.87016,-3.66656 -5.26351,-5.07003c-6.2753,-3.70467 -11.14176,-7.95151 -18.48379,-9.41126c-1.44937,-0.28817 -3.8283,-1.06583 -5.79817,-1.16199z" fill="#000000" stroke="none" stroke-width="0.5"/><path d="M301.95418,151.13053c1.96987,0.09616 4.36315,0.87265 5.81252,1.16082c7.34203,1.45975 12.25039,5.7348 18.52569,9.43947c1.39335,1.40347 4.43322,3.20694 5.2677,5.08303c0.85626,1.92508 -2.17325,7.13144 -2.81511,8.73882c-1.16664,2.92157 -2.45253,7.03715 -4.1279,9.62913c-0.24177,0.37405 -0.82647,0.37614 -1.15507,0.67677c-3.66121,3.34959 -9.04945,5.74606 -14.13278,5.43174c-4.45104,-0.08643 -7.75583,-0.99473 -12.00147,-2.41088c-1.3888,-0.46324 -3.87721,-0.68483 -5.02481,-1.59209c-0.43031,-0.34019 -0.55902,-1.00223 -1.02425,-1.29284c-0.47893,-0.29917 -1.16952,-0.09025 -1.65322,-0.38163c-6.02844,-3.63149 -9.00953,-7.88153 -8.0006,-15.00526c0.9191,-3.14375 5.62714,-5.79257 8.11807,-7.75747c4.40034,-3.47108 8.68623,-7.36258 12.21123,-11.71963z" data-paper-data="{&quot;noHover&quot;:false,&quot;origItem&quot;:[&quot;Path&quot;,{&quot;applyMatrix&quot;:true,&quot;segments&quot;:[[[301.96537,151.17925],[0,0],[-3.525,4.35705]],[[289.78771,162.87242],[4.40034,-3.47108],[-2.49093,1.9649]],[[281.67486,170.60885],[0.9191,-3.14375],[-1.00893,7.12373]],[[289.66359,185.58051],[-6.02844,-3.63149],[0.4837,0.29138]],[[291.31466,185.95977],[-0.47893,-0.29917],[0.46523,0.29061]],[[292.33615,187.24996],[-0.43031,-0.34019],[1.1476,0.90726]],[[297.35095,188.83514],[-1.3888,-0.46324],[4.24564,1.41615]],[[309.32242,191.24078],[-4.45104,-0.08643],[5.08333,0.31432]],[[323.42422,185.82583],[-3.66121,3.34959],[0.3286,-0.30063]],[[324.57753,185.15121],[-0.24177,0.37405],[1.67537,-2.59198]],[[328.69591,175.54309],[-1.16664,2.92157],[0.64186,-1.60738]],[[331.51085,166.82254],[0.85626,1.92508],[-0.83448,-1.87609]],[[326.24734,161.75251],[1.39335,1.40347],[-6.2753,-3.70467]],[[307.76355,152.34125],[7.34203,1.45975],[-1.44937,-0.28817]],[[301.96538,151.17926],[1.96987,0.09616],[0,0]]],&quot;closed&quot;:true,&quot;fillColor&quot;:[0,0,0,1],&quot;strokeWidth&quot;:0.5}]}" fill="#fe806a" stroke="none" stroke-width="0.25"/><path d="M200.73321,287.32043v-215.49032h239.22549v215.49032z" fill="none" stroke="#000000" stroke-width="0"/></g></g></svg>