<svg version="1.1" xmlns="http://www.w3.org/2000/svg" xmlns:xlink="http://www.w3.org/1999/xlink" width="2878.25006" height="1619.57958" viewBox="0,0,2878.25006,1619.57958"><g transform="translate(1119.12503,629.78979)"><g data-paper-data="{&quot;isPaintingLayer&quot;:true}" fill-rule="nonzero" stroke-linejoin="miter" stroke-miterlimit="10" stroke-dasharray="" stroke-dashoffset="0" style="mix-blend-mode: normal"><path d="M-1119.12503,989.78979v-1619.57958h2878.25006v1619.57958z" fill="none" stroke="#000000" stroke-width="0" stroke-linecap="butt"/><path d="M173.78724,356.04218l35.79692,-62.1625l100.58216,-0.88066l-20.97223,62.66834z" data-paper-data="{&quot;index&quot;:null}" fill="#cedce9" stroke="#000000" stroke-width="1.5" stroke-linecap="round"/><path d="M164.20915,352.81994c-3.47684,-0.86441 -11.74877,-2.2026 -8.13018,-3.62546c-1.97943,0.45863 -4.62041,1.01929 -6.02612,1.17239c-6.65937,0.72524 -15.29494,0.04968 -22.16904,0.072c-18.85864,0.06125 -37.16867,-0.25278 -55.41787,1.57698c-8.24728,0.8269 -10.52324,-1.63658 -13.0453,1.82885c-5.20665,5.81773 -15.02131,11.02596 -21.3179,16.88611c-8.53395,7.9423 -11.82855,15.59385 -17.05016,23.54682c-5.91671,6.55469 -1.03913,19.08687 -1.01551,26.36106c0.00632,1.94716 1.6833,5.40776 0.09706,6.84619c1.58176,0.06727 3.10949,0.12836 4.08235,0.12521c6.46599,-0.021 12.93189,-0.042 19.39789,-0.063c25.72058,-0.08354 55.60368,-0.46413 80.55816,-3.6915c29.63036,-3.45272 61.77142,1.25612 91.64132,-1.8535c16.35796,-1.56407 34.19735,-0.72385 50.85756,-0.76734c8.45171,-0.02203 15.684,-1.66383 19.40239,1.33397c0.97732,0.78797 -0.00605,-1.86262 -0.00908,-2.7939c-0.00755,-2.32823 -0.01512,-4.65666 -0.02268,-6.98487c-0.04234,-13.03845 -0.0847,-26.07688 -0.12704,-39.11531c-0.01001,-3.08236 -1.64857,-14.10479 1.66327,-15.30885c-0.62201,-0.0167 -1.32607,-0.04488 -1.71318,-0.05789c-3.42942,-0.115 -5.34488,-0.0135 -8.02406,-0.96737c-4.65119,-1.656 -20.32053,-0.33755 -26.61947,-0.31709c-24.47827,0.0795 -48.95645,0.15901 -73.43473,0.23849c0,0 -5.54222,0.01799 -5.55129,-2.7759c-0.00036,-0.11467 0.00857,-0.22469 0.02615,-0.33015c-2.6504,-0.27449 -5.32796,-0.65841 -8.05246,-1.33576zM251.2035,351.43548c14.77632,-0.04799 33.65738,-1.43574 43.76674,4.19631c5.79308,3.22736 2.01509,13.64764 2.02925,18.00685c0.04234,13.03845 0.0847,26.07684 0.12704,39.11528c0.00483,1.48888 1.93778,8.86838 0.03176,9.77885c-19.25163,9.1957 -55.61677,2.19179 -79.1527,4.94172c-29.20791,3.0407 -62.87364,-2.46351 -91.127,1.79349c-25.71963,3.32635 -56.71643,3.78097 -83.24601,3.86715c-3.80537,0.01236 -26.62174,1.53934 -29.09675,0.0945c-7.09736,-4.14328 -5.56704,-7.62372 -5.58306,-12.5548c-0.02898,-8.91921 -3.19983,-19.54075 1.57861,-28.13001c5.35184,-8.15125 9.09702,-16.32134 17.64925,-24.28069c3.44986,-3.21065 7.17352,-7.50244 11.63589,-10.40666c2.91994,-1.90034 8.5094,-3.45483 9.20041,-5.91511c4.72047,-6.48613 13.29595,-4.39379 23.43127,-5.51425c18.04213,-1.99458 36.72062,-1.51626 55.41786,-1.57699c6.89545,-0.02239 20.36303,-1.66594 25.22904,-1.18397c8.4706,0.83906 13.39146,4.46352 21.60203,5.51779c6.02477,0.77363 12.36955,0.28349 19.40469,2.03247c0.53408,0.13282 1.06805,0.26557 1.60219,0.39835c18.49983,-0.06009 36.99977,-0.12018 55.49965,-0.18025z" data-paper-data="{&quot;index&quot;:null}" fill="#000000" stroke="none" stroke-width="1.5" stroke-linecap="butt"/><path d="M172.33828,354.0214c-0.01762,0.10548 -0.02589,0.21552 -0.02551,0.33023c0.00906,2.79395 5.57853,2.78064 5.57853,2.78064c24.4782,-0.07951 49.08706,-0.10388 73.56539,-0.18339c6.29892,-0.02046 21.98256,-1.32593 26.63378,0.33004c2.67911,0.95391 4.59899,0.85709 8.02827,0.97202c0.3871,0.01298 1.09174,0.04188 1.71385,0.0586c-3.31188,1.2041 -1.65638,12.25321 -1.64638,15.33557c0.04235,13.03848 0.07337,26.15451 0.11573,39.19294c0.00756,2.32831 0.00569,4.66797 0.01325,6.99619c0.00302,0.93129 0.98224,3.5861 0.00492,2.79815c-3.71836,-2.9978 -10.95726,-1.35001 -19.40889,-1.32796c-16.66021,0.04349 -34.55,-0.76471 -50.90787,0.79939c-29.86994,3.10966 -62.30457,-1.57115 -91.93492,1.88153c-24.95445,3.22737 -54.95903,3.55971 -80.67981,3.64324c-6.46599,0.021 -12.94325,0.03325 -19.40924,0.05426c-0.97297,0.00317 -2.50278,-0.05971 -4.08447,-0.12697c1.58629,-1.43845 -0.10108,-4.90888 -0.10741,-6.85605c-0.02362,-7.27416 -4.92748,-19.85461 0.98941,-26.40932c5.22164,-7.95303 8.5274,-15.6576 17.06136,-23.59988c6.29669,-5.86016 16.15268,-11.11013 21.35939,-16.92784c2.52207,-3.46543 4.81516,-1.01262 13.06245,-1.83953c18.24916,-1.8297 36.67797,-1.55526 55.53648,-1.61652c6.874,-0.02233 15.58681,0.64598 22.24617,-0.07925c1.4056,-0.15311 4.0686,-0.71382 6.04802,-1.17244c-3.61869,1.42285 4.68609,2.76261 8.16297,3.62698c2.7246,0.67734 5.43445,1.06488 8.08479,1.33934z" data-paper-data="{&quot;noHover&quot;:false,&quot;origItem&quot;:[&quot;Path&quot;,{&quot;applyMatrix&quot;:true,&quot;segments&quot;:[[[579.60736,595.76373],[0.95609,-0.20262],[0.00646,0.07548]],[[579.61718,596],[0,-0.08208],[0,2]],[[577.61718,598],[0,0],[-8.83333,0]],[[551.11718,598],[8.83333,0],[-2.27308,0]],[[541.51161,598.28885],[1.67648,-1.19621],[-0.96568,0.68904]],[[538.61718,599],[1.23739,-0.09027],[-0.13966,0.01019]],[[537.99901,599.04541],[0.22447,-0.0134],[1.19653,0.85421]],[[538.61718,610],[0,-2.20646],[0,9.33333]],[[538.61718,638],[0,-9.33333],[0,1.66667]],[[538.61718,643],[0,-1.66667],[0,0.66667]],[[538.61718,645],[-0.35177,0.56631],[1.33831,-2.15456]],[[545.61718,644],[-3.04994,0.00386],[6.01206,-0.00761]],[[563.97058,644.43107],[-5.90478,-1.08158],[10.78253,2.15651]],[[597.04254,645.54479],[-10.6965,-2.40266],[9.00888,2.25222]],[[626.11718,648],[-9.28168,0],[2.33333,0]],[[633.11718,648],[-2.33333,0],[0.35109,0]],[[634.59021,647.90091],[-0.5707,0.05184],[-0.57412,-1.02596]],[[634.61718,643],[0,1.39387],[0,-5.20707]],[[634.21982,624.13246],[2.14282,4.67827],[-1.8936,-5.6808]],[[628.03948,607.31672],[3.08887,5.66543],[-2.2791,-4.1802]],[[620.32688,595.27881],[1.8857,4.15235],[-0.91417,-2.47477]],[[615.61718,594],[2.9771,0.57275],[-6.58756,-1.26734]],[[595.61718,593],[6.8054,0],[-2.48058,0]],[[587.61718,593],[2.40395,0.50364],[-0.50743,-0.10631]],[[585.44122,592.1748],[0.71481,0.32365],[1.30749,1.01011]],[[582.51161,594.78885],[1.25365,-0.62682],[-0.98239,0.4912]]],&quot;closed&quot;:true}],&quot;index&quot;:null}" fill="#484848" stroke="none" stroke-width="1.5" stroke-linecap="butt"/><path d="M94.67595,364.5169c0.00307,0.94422 1.91741,2.08243 0.96753,2.83318c2.43618,0.11846 4.88723,0.38653 7.06551,0.92813c8.39876,2.08806 25.4952,9.74048 27.12145,14.83102c0.13223,0.41406 -2.24059,0.491 -1.83752,0.85726c1.34123,1.21871 12.23198,-0.94219 13.4867,-0.5989c0.28393,0.07765 0.42365,0.19967 0.47995,0.34853c-0.05986,-0.46269 -0.11473,-0.91004 -0.11564,-1.19162c-0.00322,-0.98968 0.0709,-2.05647 -0.80992,-2.93881c-7.4882,-7.778 -19.70529,-15.15544 -40.81574,-15.08687c0,0 -2.49121,0.00807 -4.13602,-0.82857c-0.54807,-0.15503 -0.97453,-0.33813 -1.26069,-0.55347c-0.07163,0.53324 -0.14666,1.07605 -0.14561,1.40005zM141.85304,385.31837c0.38006,0.5708 0.26545,-0.37829 0.13655,-1.37118c-0.0249,0.43116 -0.39639,0.98114 -0.13655,1.37118zM150.93993,377.05447c6.91404,6.92577 -8.70061,17.1285 -22.92898,12.49988c-13.42456,-4.36719 -17.99438,-13.21706 -30.24288,-16.26211c-4.13796,-1.02875 -9.09405,-1.58159 -12.18831,-3.3054c-4.90347,-2.73183 -2.76424,-12.12148 6.59578,-12.15188c6.73986,-0.02189 10.06309,1.06932 16.33777,1.04894l2.7711,-0.009c0,0 3.1811,-0.01032 4.72716,1.19959c16.42586,2.64824 26.9829,9.47786 34.92837,16.97994z" data-paper-data="{&quot;index&quot;:null}" fill="#000000" stroke="none" stroke-width="1.5" stroke-linecap="butt"/><path d="M94.61561,363.02383c0.28603,0.21539 0.71268,0.39832 1.26082,0.55339c1.64481,0.83665 4.14729,0.82252 4.14729,0.82252c21.11041,-0.06857 33.76823,7.47151 41.25634,15.24953c0.88082,0.88233 0.78261,1.96864 0.78583,2.95827c0.00091,0.28158 0.04556,0.73538 0.10542,1.1981c-0.0562,-0.14894 -0.19462,-0.27163 -0.47866,-0.34937c-1.25468,-0.34323 -12.23979,1.85475 -13.58098,0.63605c-0.4031,-0.36627 1.70571,-0.68776 1.57338,-1.10185c-1.6262,-5.09057 -18.80485,-12.70359 -27.20371,-14.7916c-2.17839,-0.54157 -4.64341,-0.79823 -7.07962,-0.91675c0.94986,-0.7508 -0.9418,-1.90629 -0.94488,-2.8505c-0.00105,-0.32399 0.0867,-0.87461 0.15854,-1.40784z" data-paper-data="{&quot;noHover&quot;:false,&quot;origItem&quot;:[&quot;Path&quot;,{&quot;applyMatrix&quot;:true,&quot;segments&quot;:[[[607.563,601.99816],[0.02649,0.38155],[-0.10299,0.15484]],[[607.10872,602.39727],[0.1976,-0.11227],[-0.59254,0.60273]],[[605.61718,603],[0,0],[-7.618,0]],[[590.90604,613.89443],[2.69308,-5.58508],[-0.31682,0.63364]],[[590.61718,616],[0,-0.70843],[0,0.20156]],[[590.57685,616.85325],[0.02106,-0.33136],[0.02013,-0.10671]],[[590.74964,616.60263],[-0.10238,0.05628],[0.45234,-0.24865]],[[595.61718,617],[-0.48256,0.87548],[0.14503,-0.26312]],[[594.95308,616.3906],[-0.04725,0.29671],[0.58086,-3.64773]],[[604.72276,605.71115],[-3.02833,1.51416],[0.78545,-0.39273]],[[607.27135,605.03032],[-0.87898,0.0905],[-0.34365,-0.53523]],[[607.61718,603],[0,0.6759],[0,-0.23192]]],&quot;closed&quot;:true}],&quot;index&quot;:null}" fill="#ffffff" stroke="none" stroke-width="1.5" stroke-linecap="butt"/><path d="M370.1463,364.8222l-20.06224,-62.53505l94.33186,0.24761l33.96177,61.93592z" fill="#cedce9" stroke="#000000" stroke-width="1.5" stroke-linecap="round"/><path d="M487.33967,361.18849c-2.55075,0.69447 -5.05941,1.09527 -7.54319,1.38641c0.01716,0.10535 0.02624,0.21528 0.02661,0.32997c0.00908,2.7939 -5.18857,2.81078 -5.18857,2.81078c-22.95635,0.07455 -45.91259,0.14912 -68.86885,0.22368c-5.90728,0.01919 -20.61039,-1.20061 -24.96186,0.48462c-2.50654,0.97071 -4.3035,0.88126 -7.51892,1.01786c-0.36292,0.01541 -1.02304,0.04802 -1.60629,0.06867c3.11345,1.1832 1.64619,12.21569 1.65619,15.29806c0.04235,13.03848 0.08469,26.07689 0.12703,39.11532c0.00757,2.32828 0.01512,4.65661 0.02268,6.98487c0.00303,0.93126 -0.90249,3.58801 0.00908,2.7939c3.46825,-3.02116 10.261,-1.42493 18.18724,-1.45606c15.62426,-0.0614 32.34884,-1.01383 47.6992,0.44724c28.0317,2.92156 58.14406,-1.98944 85.95325,1.27672c23.42274,3.07023 51.44957,3.26275 75.571,3.18439c6.06401,-0.01969 12.12786,-0.03939 18.19181,-0.05908c0.91235,-0.00297 2.34468,-0.07367 3.82767,-0.15087c-1.49666,-1.42843 0.05423,-4.89952 0.0479,-6.84665c-0.02362,-7.27416 4.47178,-19.83676 -1.11825,-26.35412c-4.94693,-7.92 -8.08473,-15.55057 -16.13788,-23.43901c-5.94183,-5.82038 -15.17888,-10.96678 -20.0983,-16.7516c-2.38704,-3.44949 -4.50589,-0.97174 -12.24547,-1.74671c-17.12572,-1.71483 -34.29501,-1.2856 -51.98104,-1.22816c-6.44673,0.02095 -14.5409,0.75082 -20.79066,0.06753c-1.31928,-0.14425 -3.79948,-0.68825 -5.65871,-1.13444c3.40247,1.40011 -4.34656,2.79031 -7.60169,3.67656zM405.74719,360.35147c17.34965,-0.05635 34.69928,-0.11269 52.04893,-0.16905c0.50008,-0.13613 1.00004,-0.27229 1.50007,-0.40843c6.58654,-1.79323 12.5398,-1.34302 18.18501,-2.15455c7.69325,-1.10595 12.28528,-4.76132 20.22375,-5.65362c4.56031,-0.51262 17.20062,1.04616 23.66733,1.02516c17.53471,-0.05694 35.04849,-0.65277 51.98104,1.22818c9.51207,1.05667 17.54095,-1.08961 22.00864,5.36667c0.66355,2.45588 5.91512,3.97515 8.66539,5.85709c4.20305,2.87607 7.72212,7.14433 10.97768,10.33322c8.07041,7.90533 11.63409,16.05173 16.70435,24.1691c4.53536,8.55906 1.62856,19.20022 1.65753,28.11944c0.01602,4.93109 1.47305,8.40181 -5.1568,12.58968c-2.31189,1.46038 -23.71887,0.07704 -27.28767,0.08863c-24.88013,0.0808 -53.95193,-0.17875 -78.09279,-3.34314c-26.52284,-4.07913 -58.06006,1.63685 -85.47049,-1.21995c-22.08943,-2.6018 -56.1487,4.63084 -74.26081,-4.44347c-1.79319,-0.89841 -0.02691,-8.28994 -0.03175,-9.77883c-0.04235,-13.03848 -0.0847,-26.07688 -0.12703,-39.11532c-0.01417,-4.35924 -3.6228,-14.75551 1.78969,-18.01926c9.44515,-5.69555 27.16059,-4.42666 41.01822,-4.47166z" data-paper-data="{&quot;index&quot;:null}" fill="#000000" stroke="none" stroke-width="1.5" stroke-linecap="butt"/><path d="M479.72358,362.44096c2.48378,-0.29116 5.02265,-0.69571 7.57353,-1.39018c3.25514,-0.88624 11.03497,-2.27825 7.63242,-3.6783c1.85918,0.44613 4.3601,0.99006 5.67922,1.13433c6.24975,0.68331 14.41654,-0.03982 20.86305,-0.06076c17.68594,-0.05744 34.96684,-0.4479 52.09251,1.26697c7.73959,0.77498 9.87465,-1.69225 12.26168,1.75725c4.91945,5.78476 14.19553,10.97267 20.13748,16.79306c8.05316,7.88838 11.20184,15.57201 16.14872,23.49195c5.59007,6.51739 1.0704,19.12841 1.09404,26.40262c0.00632,1.94716 -1.55425,5.42815 -0.05758,6.85658c-1.48288,0.07721 -2.91717,0.1497 -3.8296,0.15266c-6.06393,0.0197 -12.13845,0.04821 -18.20237,0.06791c-24.12159,0.07835 -52.26208,-0.06516 -75.68478,-3.13544c-27.80922,-3.26617 -58.19705,1.61864 -86.22878,-1.30291c-15.35038,-1.46112 -32.12234,-0.54037 -47.74663,-0.47899c-7.92618,0.03115 -14.72513,-1.57107 -18.19339,1.45007c-0.91157,0.79409 -0.00998,-1.8668 -0.01301,-2.79809c-0.00757,-2.32828 -0.02409,-4.66791 -0.03165,-6.99613c-0.04235,-13.03848 -0.09576,-26.1544 -0.1381,-39.19287c-0.01001,-3.08236 1.47298,-14.14167 -1.64052,-15.32488c0.58334,-0.02066 1.24392,-0.05399 1.60688,-0.06943c3.21527,-0.13658 5.01638,-0.05183 7.52284,-1.02253c4.35146,-1.68521 19.06791,-0.47844 24.97519,-0.49762c22.95638,-0.07456 46.03482,-0.20507 68.99109,-0.27964c0,0 5.22315,-0.02176 5.21406,-2.81569c-0.00036,-0.11467 -0.00881,-0.22467 -0.02602,-0.33005z" data-paper-data="{&quot;noHover&quot;:false,&quot;origItem&quot;:[&quot;Path&quot;,{&quot;applyMatrix&quot;:true,&quot;segments&quot;:[[[579.60736,595.76373],[0.95609,-0.20262],[0.00646,0.07548]],[[579.61718,596],[0,-0.08208],[0,2]],[[577.61718,598],[0,0],[-8.83333,0]],[[551.11718,598],[8.83333,0],[-2.27308,0]],[[541.51161,598.28885],[1.67648,-1.19621],[-0.96568,0.68904]],[[538.61718,599],[1.23739,-0.09027],[-0.13966,0.01019]],[[537.99901,599.04541],[0.22447,-0.0134],[1.19653,0.85421]],[[538.61718,610],[0,-2.20646],[0,9.33333]],[[538.61718,638],[0,-9.33333],[0,1.66667]],[[538.61718,643],[0,-1.66667],[0,0.66667]],[[538.61718,645],[-0.35177,0.56631],[1.33831,-2.15456]],[[545.61718,644],[-3.04994,0.00386],[6.01206,-0.00761]],[[563.97058,644.43107],[-5.90478,-1.08158],[10.78253,2.15651]],[[597.04254,645.54479],[-10.6965,-2.40266],[9.00888,2.25222]],[[626.11718,648],[-9.28168,0],[2.33333,0]],[[633.11718,648],[-2.33333,0],[0.35109,0]],[[634.59021,647.90091],[-0.5707,0.05184],[-0.57412,-1.02596]],[[634.61718,643],[0,1.39387],[0,-5.20707]],[[634.21982,624.13246],[2.14282,4.67827],[-1.8936,-5.6808]],[[628.03948,607.31672],[3.08887,5.66543],[-2.2791,-4.1802]],[[620.32688,595.27881],[1.8857,4.15235],[-0.91417,-2.47477]],[[615.61718,594],[2.9771,0.57275],[-6.58756,-1.26734]],[[595.61718,593],[6.8054,0],[-2.48058,0]],[[587.61718,593],[2.40395,0.50364],[-0.50743,-0.10631]],[[585.44122,592.1748],[0.71481,0.32365],[1.30749,1.01011]],[[582.51161,594.78885],[1.25365,-0.62682],[-0.98239,0.4912]]],&quot;closed&quot;:true}],&quot;index&quot;:null}" fill="#484848" stroke="none" stroke-width="1.5" stroke-linecap="butt"/><path d="M552.62192,372.4471c-0.00105,-0.32399 -0.07475,-0.86631 -0.14531,-1.39909c-0.26702,0.21719 -0.66573,0.40284 -1.1788,0.56138c-1.53726,0.84693 -3.87355,0.85455 -3.87355,0.85455c-19.79791,0.0643 -31.2088,7.51851 -38.18226,15.34344c-0.82048,0.8879 -0.74427,1.9542 -0.74106,2.94387c0.00091,0.28158 -0.04779,0.72925 -0.101,1.19233c0.05185,-0.14913 0.18215,-0.27202 0.44798,-0.35154c1.17443,-0.35117 11.4015,1.74119 12.65163,0.51405c0.37571,-0.36877 -1.84999,-0.43081 -1.72863,-0.8457c1.49303,-5.1007 17.47798,-12.86057 25.3412,-15.00139c2.03946,-0.55525 4.33634,-0.83873 6.62024,-0.97257c-0.89554,-0.74476 0.89259,-1.89501 0.88953,-2.83922zM508.37321,392.17496c-0.11465,0.9937 -0.21623,1.9435 0.13667,1.37031c0.2412,-0.39169 -0.11059,-0.93931 -0.13667,-1.37031zM499.93609,385.33862c7.4041,-7.55193 17.26154,-14.44785 32.64912,-17.1994c1.44238,-1.21962 4.42562,-1.22932 4.42562,-1.22932l2.59881,-0.00845c5.88451,-0.01912 8.99423,-1.13118 15.31502,-1.15171c8.77807,-0.02852 10.84333,9.34756 6.26201,12.11013c-2.89096,1.74328 -7.53533,2.32727 -11.40945,3.38206c-11.46745,3.12209 -15.6974,12.00052 -28.25954,16.45208c-13.31429,4.71812 -28.022,-5.38612 -21.58162,-12.35532z" data-paper-data="{&quot;index&quot;:null}" fill="#000000" stroke="none" stroke-width="1.5" stroke-linecap="butt"/><path d="M552.66946,370.95391c0.07071,0.53276 0.15648,1.08279 0.15754,1.40678c0.00307,0.94422 -1.76366,2.11158 -0.86816,2.85641c-2.28394,0.13379 -4.59406,0.40596 -6.63356,0.96125c-7.86334,2.14087 -23.92568,9.86184 -25.41866,14.96254c-0.12153,0.41492 1.85817,0.72308 1.48243,1.09192c-1.25012,1.22707 -11.5658,-0.9017 -12.7403,-0.55055c-0.26589,0.07953 -0.39493,0.20311 -0.44669,0.35234c0.05324,-0.46311 0.09224,-0.91712 0.09133,-1.1987c-0.00322,-0.98966 -0.10218,-2.07531 0.71833,-2.96322c6.97342,-7.82497 18.79654,-15.44454 38.5944,-15.50883c0,0 2.3469,-0.00164 3.88417,-0.84861c0.51307,-0.15855 0.91205,-0.34421 1.17891,-0.56136z" data-paper-data="{&quot;noHover&quot;:false,&quot;origItem&quot;:[&quot;Path&quot;,{&quot;applyMatrix&quot;:true,&quot;segments&quot;:[[[607.563,601.99816],[0.02649,0.38155],[-0.10299,0.15484]],[[607.10872,602.39727],[0.1976,-0.11227],[-0.59254,0.60273]],[[605.61718,603],[0,0],[-7.618,0]],[[590.90604,613.89443],[2.69308,-5.58508],[-0.31682,0.63364]],[[590.61718,616],[0,-0.70843],[0,0.20156]],[[590.57685,616.85325],[0.02106,-0.33136],[0.02013,-0.10671]],[[590.74964,616.60263],[-0.10238,0.05628],[0.45234,-0.24865]],[[595.61718,617],[-0.48256,0.87548],[0.14503,-0.26312]],[[594.95308,616.3906],[-0.04725,0.29671],[0.58086,-3.64773]],[[604.72276,605.71115],[-3.02833,1.51416],[0.78545,-0.39273]],[[607.27135,605.03032],[-0.87898,0.0905],[-0.34365,-0.53523]],[[607.61718,603],[0,0.6759],[0,-0.23192]]],&quot;closed&quot;:true}],&quot;index&quot;:null}" fill="#ffffff" stroke="none" stroke-width="1.5" stroke-linecap="butt"/><g><path d="M257.63631,5.75002l243.88199,118.33344l0.04505,8.84629l-145.93598,-1.02608l1.09027,214.08027l-368.01923,-0.7797l9.5298,-213.2497z" fill="#8a96a0" stroke="#000000" stroke-width="1.5" stroke-linecap="round"/><path d="M-9.55443,348.10194l-0.36133,-70.94933l368.00575,-1.87417l0.36133,70.94933z" fill="#818181" stroke="#000000" stroke-width="1.5" stroke-linecap="butt"/><path d="M577.14014,161.97921l-319.25941,-154.07285l-303.55556,150.16749l-7.18516,-21.19506l314.14408,-155.52933l322.81596,157.59336z" fill="#74737c" stroke="#000000" stroke-width="1.5" stroke-linecap="round"/><path d="M488.61337,91.99209l-154.30992,-74.70444l-0.806,-42.4592l77.65215,-38.73038l73.90834,36.779l2.39699,123.24929z" fill="#979ea9" stroke="#000000" stroke-width="1.5" stroke-linecap="round"/><path d="M485.65065,-26.53621l8.2926,7.03498l6.49521,117.33078l-13.0166,-8.19045z" fill="#979ea9" stroke="#000000" stroke-width="1.5" stroke-linecap="round"/><path d="M300.55087,-9.37491l-1.84435,-14.7348l114.12823,-56.31432l115.27512,53.08184l-11.12121,16.57014l-107.01558,-52.53412z" fill="#7f818b" stroke="#000000" stroke-width="1.5" stroke-linecap="round"/><path d="M299.93654,-9.3718l-8.22352,6.52933l-20.10865,-11.10318l27.71838,-0.14116z" fill="#5d5e62" stroke="#000000" stroke-width="1.5" stroke-linecap="round"/><path d="M299.34679,-9.3688l34.71133,-16.69029l0.81201,43.63871l-44.33657,-20.4161z" fill="#211e21" stroke="#000000" stroke-width="1.5" stroke-linecap="round"/><path d="M228.02581,-1.33858l-165.12777,1.43072l-5.30778,0.02703l-5.1696,27.15565l-43.24418,-37.52494l238.26014,-1.2134z" fill="#5d5e62" stroke="#000000" stroke-width="1.5" stroke-linecap="round"/><path d="M52.72098,86.2501l2.51023,-86.11893l172.79454,-1.46976z" fill="#85898c" stroke="#000000" stroke-width="1.5" stroke-linecap="round"/><path d="M70.95523,76.72096l4.40267,-61.94806l33.6099,-1.35071l-1.53499,46.00974z" fill="#000bff" stroke="#000000" stroke-width="1.5" stroke-linecap="round"/><path d="M449.19317,-10.13192l0.87207,55.43375l-56.0205,1.46481l-18.92011,-9.33994l-2.02153,-49.53021z" fill="#000bff" stroke="#000000" stroke-width="1.5" stroke-linecap="round"/><path d="M412.02974,-11.71195l0.87809,56.61327l-15.9083,3.02984l-21.87192,-9.91464l-2.6053,-48.34772z" fill="#000bff" stroke="#000000" stroke-width="1.5" stroke-linecap="round"/><path d="M522.14534,133.24267l20.56111,215.75041l-44.23146,0.22526l-7.99772,-7.03651l11.28554,-215.91258z" fill="#676a70" stroke="#000000" stroke-width="1.5" stroke-linecap="round"/><path d="M502.74207,144.84197l-15.87377,9.81202l4.49362,187.52338l-134.46364,0.68478l-1.95689,-210.53722l146.85296,0.13678z" fill="#83878a" stroke="#000000" stroke-width="1.5" stroke-linecap="round"/><path d="M384.1342,325.18767l-0.66077,-129.74563l57.7958,-0.29435l0.66077,129.74563z" fill="#ff9100" stroke="#000000" stroke-width="1.5" stroke-linecap="butt"/><path d="M450.69818,309.51469l-0.58267,-114.41203l15.92332,-0.08109l0.58267,114.41203z" fill="#000bff" stroke="#000000" stroke-width="1.5" stroke-linecap="butt"/><path d="M358.10101,308.80674l-0.59169,-116.18127l17.1028,-0.08711l0.59169,116.18127z" fill="#000bff" stroke="#000000" stroke-width="1.5" stroke-linecap="butt"/><path d="M357.4973,190.26643l-0.0991,-19.46184l107.92476,-0.54964l0.0991,19.46184z" fill="#000bff" stroke="#000000" stroke-width="1.5" stroke-linecap="butt"/><path d="M389.39064,237.8752l-0.1682,-33.02613l39.51342,-0.20123l0.1682,33.02613z" fill="#ff0000" stroke="#000000" stroke-width="1.5" stroke-linecap="butt"/><path d="M102.53576,296.92696l-0.81093,-159.23326l142.4253,-0.72535l0.81093,159.23326z" fill="#5a5c61" stroke="#000000" stroke-width="1.5" stroke-linecap="butt"/><path d="M110.42533,282.73234l-0.68028,-133.579l126.50198,-0.64426l0.68028,133.579z" fill="#000bff" stroke="#000000" stroke-width="1.5" stroke-linecap="butt"/><path d="M174.12315,283.29257l-0.68478,-134.46364l63.69329,-0.32437l0.68478,134.46364z" fill="#000bff" stroke="#000000" stroke-width="1.5" stroke-linecap="butt"/><path d="M55.19851,281.66242l-0.65948,-129.49318l47.08846,-0.23982l0.65948,129.49318z" fill="#5a5c61" stroke="#000000" stroke-width="1.5" stroke-linecap="butt"/><path d="M245.40787,280.07413l-0.65318,-128.25402l49.56677,-0.25244l0.65318,128.25402z" fill="#5a5c61" stroke="#000000" stroke-width="1.5" stroke-linecap="butt"/><path d="M313.02845,124.36274c0.75,-0.00138 0.75138,0.74861 0.75138,0.74861l-0.01941,0.91733c-0.10201,0.4211 -0.20401,0.84221 -0.30602,1.26331c-0.17531,2.13318 -1.04362,3.88396 -1.92696,5.61082c-0.12155,1.88262 -0.28555,3.74877 -0.44403,5.57216c-0.18344,2.11051 0.3161,5.41106 -1.73791,6.44924c0,0 -0.17985,0.07233 -0.39346,0.052c-0.00288,0.35445 -0.00093,0.69591 0.00589,1.01966c0.0275,1.30475 1.29592,3.50297 0.84855,4.77788c-0.61067,1.74026 -2.17807,1.46172 -3.62228,1.46366c-9.34515,-2.031 -18.43537,-5.25521 -27.79905,-7.20576c-10.18019,-2.13012 -20.2515,-4.9381 -30.46353,-7.05785c-5.13767,-0.36234 -10.3771,-0.9253 -15.5306,-0.51971c-4.97242,0.39134 -9.82333,1.76296 -14.78095,2.26054c-10.18858,1.02258 -18.38952,6.48105 -25.75665,13.35734c-0.86992,0.81102 -2.16749,2.82772 -3.47122,2.94207c-1.97377,0.17311 -4.16942,-3.39205 -4.75798,-4.84668c-1.44455,-3.57025 -2.11552,-7.40351 -2.95432,-11.14832c-0.51147,-2.28346 -1.38271,-4.42429 -1.39266,-6.7901c-0.00804,-4.57524 -0.60959,-9.3187 -0.16874,-13.88065c0.46191,-4.77989 2.06375,-10.15402 3.5668,-14.68923c0.87884,-2.30905 1.6044,-5.00418 3.24636,-6.92045c1.77946,-2.07676 4.98113,-3.71549 7.33816,-5.03228c4.14866,-2.31772 8.33499,-4.51078 12.51062,-6.78919c8.51308,-4.64303 19.98946,-7.00994 29.68521,-7.03421c7.59254,-0.01401 15.43905,-0.37983 22.93839,1.07815c2.43869,0.47412 4.80222,1.23407 7.25439,1.68897c-4.82484,-2.18156 -8.45591,-6.02669 -12.0114,-10.15888c-1.78837,-2.07844 -3.69637,-3.85403 -4.25066,-6.62956c-1.05884,-5.30188 1.1124,-10.14732 1.6507,-15.25473c1.76648,-6.7147 5.25343,-9.94028 9.45828,-15.19364c4.79154,-5.98634 8.07305,-11.4445 15.90435,-14.04994c3.97527,-0.04382 7.76095,0.63187 11.68236,0.79415c7.16204,0.29638 13.39158,0.1802 19.6572,4.45202c2.46656,1.68168 4.12863,4.08511 6.22689,6.14342c8.07028,7.95979 11.75479,21.02453 4.10694,30.67432c-2.12766,2.15237 -4.20771,4.72137 -6.56453,6.61531c-6.59847,5.30252 -20.62783,4.87516 -28.50906,3.16582c-7.59311,0.07033 -9.26517,-6.3221 -11.432,-12.15867c-0.56379,-1.51859 -1.80912,-2.75167 -1.65718,-4.48295c0.3907,-4.45166 2.55617,-10.82215 4.74519,-14.71737c2.88776,-6.69317 11.39548,-5.33668 17.27793,-5.74911c3.83898,-0.26916 8.01214,-1.53452 11.46064,0.80009c1.79743,1.21682 2.4641,4.07395 3.29522,6.0124c0.64772,3.72174 2.15195,7.24258 1.65493,11.12944c-1.23888,9.68853 -13.51661,18.35223 -22.12749,12.68287c-2.23959,-1.70316 -7.09629,-5.40104 -7.8796,-8.21334c-1.89629,-6.80811 4.90033,-10.16273 10.20767,-11.34908c1.08225,-0.24194 2.14683,-0.97304 3.23679,-0.76885c2.33912,0.4382 3.48146,2.39632 4.91169,4.02681c1.57343,5.20687 -1.45342,5.28313 -5.51757,5.82492c-0.84181,0.11223 -2.64605,0.8595 -3.48277,0.21018c-3.59229,-2.78775 2.08785,-4.86615 4.05638,-5.16905l0.50312,-0.01353c0,0 1.09113,-0.00555 1.09667,1.08557l-0.00003,0.00008c0.00555,1.09113 -1.08557,1.09667 -1.08557,1.09667l-0.19462,-0.00998c-7.85593,1.10676 3.96023,2.6295 2.71721,-1.96411c-0.72886,-0.78833 -1.92413,-2.69969 -3.14814,-2.90997c-4.81415,-0.82705 -12.35927,3.96237 -11.21776,9.29001c0.44989,2.09975 5.34853,5.78564 7.05791,7.08294c7.20217,4.75611 17.79286,-3.1306 18.70706,-11.21987c0.40277,-3.56403 -1.00716,-6.77016 -1.587,-10.18737c-0.53126,-1.20156 -1.23172,-4.16062 -2.34195,-4.77449c-3.25491,-1.79974 -6.59912,-0.73569 -10.17018,-0.48532c-4.85383,0.34032 -13.12219,-1.16545 -15.47242,4.53551c-2.22512,3.91001 -3.78951,9.55366 -4.52892,13.93893c-0.21891,1.29829 1.74722,4.24153 2.14091,5.51013c1.4435,4.65137 3.49751,8.78332 9.00089,8.77615c7.28456,1.5799 20.87011,2.2285 26.98821,-2.75281c2.23112,-1.81656 4.19698,-4.25953 6.22484,-6.30503c6.89538,-8.72122 3.25184,-20.56755 -4.00319,-27.67082c-1.98774,-1.95727 -3.5742,-4.28818 -5.90813,-5.88432c-5.93345,-4.05776 -11.7717,-3.78946 -18.53881,-4.08717c-3.76934,-0.16582 -7.41248,-0.81285 -11.22926,-0.82218c-7.28252,2.54796 -10.10236,7.69021 -14.56111,13.26129c-3.9711,4.96179 -7.33621,7.91447 -9.01627,14.22746c-0.53636,4.84539 -2.57549,9.42785 -1.65159,14.45503c0.42281,2.30063 2.2804,3.88657 3.76047,5.60897c3.95356,4.60095 7.96647,8.89568 13.87976,10.54768c3.42097,1.06547 6.53614,2.40391 9.83739,3.62962c8.8122,3.27185 21.42616,1.22213 30.04643,-1.26576c10.29707,-4.18402 17.08605,-9.72064 21.06358,-20.47075c1.16795,-3.15658 3.01035,-6.49487 2.43108,-9.86404c-0.75372,-4.80904 -0.9313,-10.23827 -2.31568,-14.89584c-0.87905,-2.95748 -3.58775,-5.51423 -5.66751,-7.6294c-4.78031,-4.86162 -8.57121,-7.68892 -14.78727,-10.47641c-11.0821,-5.18018 -22.50587,-3.28138 -34.22862,-0.96504c0,0 -1.07044,0.21152 -1.28197,-0.85892c-0.21152,-1.07044 0.85892,-1.28197 0.85892,-1.28197c12.18617,-2.40792 24.0322,-4.26748 35.5602,1.12177c7.96261,3.57041 18.81204,10.33124 21.60292,19.36022c1.47092,4.75874 1.6429,10.36148 2.41498,15.28766c0.56128,3.87946 -1.19567,7.3457 -2.54107,10.96119c-4.21694,11.3322 -11.50449,17.35692 -22.3949,21.77346c-9.11165,2.64304 -22.15849,4.66076 -31.47972,1.26439c-0.5591,-0.20372 -1.11207,-0.41194 -1.66156,-0.62241c5.76831,2.72567 10.79852,6.74085 16.34526,9.84845c9.51177,5.32976 15.7409,12.81606 17.98743,23.67491c0.6363,3.0947 0.8044,6.32925 0.74547,9.57155c0.12599,-0.558 0.21855,-1.13093 0.26641,-1.72359c0.10958,-0.459 0.21916,-0.91801 0.32874,-1.37701l-0.02215,-0.56394c0,0 -0.00138,-0.75 0.74861,-0.75138zM309.98853,133.49594c0.33349,-4.68141 0.43866,-9.49643 -0.49608,-13.98492c-2.15958,-10.43858 -8.11601,-17.55116 -17.25178,-22.67023c-5.62616,-3.15296 -10.71725,-7.25311 -16.59916,-9.96238c-3.27832,-1.51003 -6.90829,-2.48671 -10.28919,-3.76329c-2.45436,-0.43627 -4.80882,-1.20808 -7.24455,-1.68162c-7.4018,-1.43903 -15.15597,-1.06441 -22.64935,-1.05059c-9.43932,0.01087 -20.68266,2.32721 -28.9695,6.85095c-4.17186,2.27635 -8.35297,4.46582 -12.49744,6.78191c-2.19942,1.22913 -5.30433,2.77877 -6.95265,4.72378c-1.49515,1.76427 -2.14418,4.30594 -2.95034,6.42236c-1.46577,4.42631 -3.05073,9.69221 -3.48969,14.35657c-0.42401,4.50546 0.16969,9.18916 0.17841,13.7077c-0.00185,2.23809 0.87107,4.30147 1.35635,6.46477c0.82297,3.66869 1.48327,7.41365 2.88233,10.91676c0.34433,0.86218 2.18396,4.03277 3.32784,3.90683c0.49911,-0.05495 2.11247,-2.18993 2.48617,-2.53912c7.60907,-7.10211 16.10849,-12.69725 26.63035,-13.75329c4.96823,-0.49864 9.8292,-1.87223 14.81321,-2.26343c5.25917,-0.4128 10.61167,0.14265 15.85421,0.52933c10.24987,2.1045 20.34849,4.95121 30.56376,7.07523c9.31064,1.94482 18.37502,5.10685 27.65366,7.1828c3.44043,-0.0085 1.17741,-2.05858 1.11319,-4.71608c-0.04679,-1.9364 0.41854,-4.0907 0.55124,-6.03912c0.16123,-2.36726 1.06891,-4.42632 1.97896,-6.49492zM309.66897,137.42771c-0.00935,0.0424 -0.01844,0.08494 -0.02725,0.1276c-0.34418,1.6663 -0.56263,3.85039 -0.64892,5.85979c0.65691,-0.69573 0.51999,-4.19264 0.59625,-5.07002c0.02647,-0.30451 0.05318,-0.61034 0.07991,-0.91738z" fill="#000000" stroke="none" stroke-width="0.5" stroke-linecap="butt"/><path d="M308.05661,140.00783c-0.1327,1.94842 -0.59965,4.10668 -0.55286,6.04308c0.06422,2.6575 2.3257,4.71064 -1.11473,4.71914c-9.27865,-2.07595 -18.34757,-5.2311 -27.6582,-7.17592c-10.21528,-2.12402 -20.34596,-4.95213 -30.59583,-7.05664c-5.24255,-0.38667 -10.63102,-0.95066 -15.89019,-0.53787c-4.98403,0.3912 -9.85629,1.75382 -14.82452,2.25246c-10.52186,1.05603 -18.93905,6.59441 -26.54812,13.69652c-0.37371,0.34919 -2.07116,2.53828 -2.57027,2.59323c-1.14388,0.12594 -2.98541,-3.04782 -3.32975,-3.91c-1.39905,-3.5031 -2.0627,-7.25554 -2.88568,-10.92424c-0.48528,-2.1633 -1.35961,-4.23141 -1.35776,-6.4695c-0.00872,-4.51855 -0.60384,-9.21252 -0.17984,-13.71797c0.43896,-4.66435 2.02486,-9.94169 3.49062,-14.36801c0.80616,-2.1164 1.4566,-4.66353 2.95175,-6.4278c1.64831,-1.945 4.75533,-3.50013 6.95475,-4.72926c4.14447,-2.31609 8.33159,-4.51552 12.50345,-6.79186c8.28684,-4.52374 19.55681,-6.85775 28.99612,-6.86861c7.49338,-0.01383 15.2772,-0.38723 22.679,1.0518c2.43573,0.47354 4.79866,1.2493 7.25303,1.68558c3.3809,1.27658 7.02089,2.26097 10.29921,3.771c5.8819,2.70927 10.98355,6.82483 16.6097,9.97779c9.13576,5.11907 15.09636,12.25336 17.25594,22.69194c0.93475,4.48849 0.8281,9.31394 0.49462,13.99535c-0.91005,2.0686 -1.81922,4.13254 -1.98044,6.49979z" data-paper-data="{&quot;noHover&quot;:false,&quot;origItem&quot;:[&quot;Path&quot;,{&quot;applyMatrix&quot;:true,&quot;segments&quot;:[[[476.01359,76.92625],[-0.52441,2.19825],[-0.51128,-4.66534]],[[473.0181,63.2569],[1.72437,4.24816],[-3.99619,-9.88222]],[[451.98119,44.04723],[9.90555,3.3981],[-6.1003,-2.09311]],[[433.8648,37.22247],[6.27235,1.61076],[-3.49594,-0.89777]],[[423.0676,35.36498],[3.555,0.64971],[-2.49281,0.01086]],[[415.63894,35.00952],[2.48116,0.02915],[-7.53987,-0.08859]],[[393.16825,38.03692],[7.36947,-1.35714],[-9.28441,1.70313]],[[365.89655,49.97099],[7.34146,-5.93624],[-3.69611,2.98746]],[[354.81761,58.88375],[3.66204,-3.02165],[-1.9434,1.60356]],[[348.82459,64.77757],[1.27287,-2.20902],[-1.15459,2.00376]],[[347.07358,71.62483],[0.41363,-2.22665],[-0.64839,4.61739]],[[346.21453,86.37444],[-0.40446,-4.66747],[0.39068,4.50847]],[[348.8478,99.82802],[-0.81874,-4.44376],[0.39946,2.20215]],[[351.34128,105.94484],[-0.86529,-2.04123],[1.46742,3.46168]],[[356.13424,116.1679],[-2.00447,-3.19549],[0.49334,0.78647]],[[360.10863,119.41475],[-1.10276,0.32899],[0.48117,-0.14355]],[[362.09926,116.47101],[-0.30504,0.41054],[6.21238,-8.3513]],[[385.83215,98.16586],[-10.16201,2.92545],[4.79832,-1.38135]],[[399.9995,93.28316],[-4.83312,1.27848],[5.09993,-1.34906]],[[415.6917,90.96129],[-5.22692,0.55957],[10.4611,0.23263]],[[447.02874,92.44188],[-10.43057,-0.25803],[9.50846,0.24394]],[[475.52213,94.55008],[-9.5005,-0.37868],[3.38315,-0.62522]],[[475.77171,89.71083],[0.53966,2.60292],[-0.39322,-1.89663]],[[475.23122,83.67074],[0.2188,1.94064],[-0.26583,-2.35781]]],&quot;closed&quot;:true}]}" fill="#6d0000" stroke="none" stroke-width="0.5" stroke-linecap="butt"/><path d="M198.25927,48.00516c0.00555,1.09113 -1.08557,1.09667 -1.08557,1.09667l-0.19462,-0.00998c-7.85593,1.10676 3.96023,2.6295 2.71721,-1.96411c-0.72886,-0.78833 -1.92413,-2.69969 -3.14814,-2.90997c-4.81415,-0.82705 -12.35927,3.96237 -11.21776,9.29001c0.44989,2.09975 5.34853,5.78564 7.05791,7.08294c7.20217,4.75611 17.79286,-3.1306 18.70706,-11.21987c0.40277,-3.56403 -1.00716,-6.77016 -1.587,-10.18737c-0.53126,-1.20156 -1.23172,-4.16062 -2.34195,-4.77449c-3.25491,-1.79974 -6.59912,-0.73569 -10.17018,-0.48532c-4.85383,0.34032 -13.12219,-1.16545 -15.47242,4.53551c-2.22512,3.91001 -3.78951,9.55366 -4.52892,13.93893c-0.21891,1.29829 1.74722,4.24153 2.14091,5.51013c1.4435,4.65137 3.49751,8.78332 9.00089,8.77615c7.28456,1.5799 20.87011,2.2285 26.98821,-2.75281c2.23112,-1.81656 4.19698,-4.25953 6.22484,-6.30503c6.89538,-8.72122 3.25184,-20.56755 -4.00319,-27.67082c-1.98774,-1.95727 -3.5742,-4.28818 -5.90813,-5.88432c-5.93345,-4.05776 -11.7717,-3.78946 -18.53881,-4.08717c-3.76934,-0.16582 -7.41248,-0.81285 -11.22926,-0.82218c-7.28252,2.54796 -10.10236,7.69021 -14.56111,13.26129c-3.9711,4.96179 -7.33621,7.91447 -9.01627,14.22746c-0.53636,4.84539 -2.57549,9.42785 -1.65159,14.45503c0.42281,2.30063 2.2804,3.88657 3.76047,5.60897c3.95356,4.60095 7.96647,8.89568 13.87976,10.54768c3.42097,1.06547 6.53614,2.40391 9.83739,3.62962c8.8122,3.27185 21.42616,1.22213 30.04643,-1.26576c10.29707,-4.18402 17.08605,-9.72064 21.06358,-20.47075c1.16795,-3.15658 3.01035,-6.49487 2.43108,-9.86404c-0.75372,-4.80904 -0.9313,-10.23827 -2.31568,-14.89584c-0.87905,-2.95748 -3.58775,-5.51423 -5.66751,-7.6294c-4.78031,-4.86162 -8.57121,-7.68892 -14.78727,-10.47641c-11.0821,-5.18018 -22.50587,-3.28138 -34.22862,-0.96504c0,0 -1.07044,0.21152 -1.28197,-0.85892c-0.21152,-1.07044 0.85892,-1.28197 0.85892,-1.28197c12.18617,-2.40792 24.0322,-4.26748 35.5602,1.12177c7.96261,3.57041 18.81204,10.33124 21.60292,19.36022c1.47092,4.75874 1.6429,10.36148 2.41498,15.28766c0.56128,3.87946 -1.19567,7.3457 -2.54107,10.96119c-4.21694,11.3322 -11.50449,17.35692 -22.3949,21.77346c-9.11165,2.64304 -22.15849,4.66076 -31.47972,1.26439c-3.27837,-1.19455 -6.34587,-2.54357 -9.73733,-3.5974c-6.33884,-1.7813 -10.68095,-6.29584 -14.91584,-11.21764c-1.78837,-2.07844 -3.69637,-3.85403 -4.25066,-6.62956c-1.05884,-5.30188 1.1124,-10.14732 1.6507,-15.25473c1.76648,-6.7147 5.25343,-9.94028 9.45828,-15.19364c4.79154,-5.98634 8.07305,-11.4445 15.90435,-14.04994c3.97527,-0.04382 7.76095,0.63187 11.68236,0.79415c7.16204,0.29638 13.39158,0.1802 19.6572,4.45202c2.46656,1.68168 4.12863,4.08511 6.22689,6.14342c8.07028,7.95979 11.75479,21.02453 4.10694,30.67432c-2.12766,2.15237 -4.20771,4.72137 -6.56453,6.61531c-6.59847,5.30252 -20.62783,4.87516 -28.50906,3.16582c-7.59311,0.07033 -9.26517,-6.3221 -11.432,-12.15867c-0.56379,-1.51859 -1.80912,-2.75167 -1.65718,-4.48295c0.3907,-4.45166 2.55617,-10.82215 4.74519,-14.71737c2.88776,-6.69317 11.39548,-5.33668 17.27793,-5.74911c3.83898,-0.26916 8.01214,-1.53452 11.46064,0.80009c1.79743,1.21682 2.4641,4.07395 3.29522,6.0124c0.64772,3.72174 2.15195,7.24258 1.65493,11.12944c-1.23888,9.68853 -13.51661,18.35223 -22.12749,12.68287c-2.23959,-1.70316 -7.09629,-5.40104 -7.8796,-8.21334c-1.89629,-6.80811 4.90033,-10.16273 10.20767,-11.34908c1.08225,-0.24194 2.14683,-0.97304 3.23679,-0.76885c2.33912,0.4382 3.48146,2.39632 4.91169,4.02681c1.57343,5.20687 -1.45342,5.28313 -5.51757,5.82492c-0.84181,0.11223 -2.64605,0.8595 -3.48277,0.21018c-3.59229,-2.78775 2.08785,-4.86615 4.05638,-5.16905l0.50312,-0.01353c0,0 1.09113,-0.00555 1.09667,1.08557z" fill="#000000" stroke="none" stroke-width="0.5" stroke-linecap="butt"/></g></g></g></svg>