<svg version="1.1" xmlns="http://www.w3.org/2000/svg" xmlns:xlink="http://www.w3.org/1999/xlink" width="2878.25006" height="1619.57958" viewBox="0,0,2878.25006,1619.57958"><g transform="translate(1119.12503,629.78979)"><g data-paper-data="{&quot;isPaintingLayer&quot;:true}" fill-rule="nonzero" stroke-linejoin="miter" stroke-miterlimit="10" stroke-dasharray="" stroke-dashoffset="0" style="mix-blend-mode: normal"><path d="M-1119.12503,989.78979v-1619.57958h2878.25006v1619.57958z" fill="none" stroke="#000000" stroke-width="0" stroke-linecap="butt"/><path d="M173.78724,356.04218l35.79692,-62.1625l100.58216,-0.88066l-20.97223,62.66834z" data-paper-data="{&quot;index&quot;:null}" fill="#cedce9" stroke="#000000" stroke-width="1.5" stroke-linecap="round"/><path d="M164.20915,352.81994c-3.47684,-0.86441 -11.74877,-2.2026 -8.13018,-3.62546c-1.97943,0.45863 -4.62041,1.01929 -6.02612,1.17239c-6.65937,0.72524 -15.29494,0.04968 -22.16904,0.072c-18.85864,0.06125 -37.16867,-0.25278 -55.41787,1.57698c-8.24728,0.8269 -10.52324,-1.63658 -13.0453,1.82885c-5.20665,5.81773 -15.02131,11.02596 -21.3179,16.88611c-8.53395,7.9423 -11.82855,15.59385 -17.05016,23.54682c-5.91671,6.55469 -1.03913,19.08687 -1.01551,26.36106c0.00632,1.94716 1.6833,5.40776 0.09706,6.84619c1.58176,0.06727 3.10949,0.12836 4.08235,0.12521c6.46599,-0.021 12.93189,-0.042 19.39789,-0.063c25.72058,-0.08354 55.60368,-0.46413 80.55816,-3.6915c29.63036,-3.45272 61.77142,1.25612 91.64132,-1.8535c16.35796,-1.56407 34.19735,-0.72385 50.85756,-0.76734c8.45171,-0.02203 15.684,-1.66383 19.40239,1.33397c0.97732,0.78797 -0.00605,-1.86262 -0.00908,-2.7939c-0.00755,-2.32823 -0.01512,-4.65666 -0.02268,-6.98487c-0.04234,-13.03845 -0.0847,-26.07688 -0.12704,-39.11531c-0.01001,-3.08236 -1.64857,-14.10479 1.66327,-15.30885c-0.62201,-0.0167 -1.32607,-0.04488 -1.71318,-0.05789c-3.42942,-0.115 -5.34488,-0.0135 -8.02406,-0.96737c-4.65119,-1.656 -20.32053,-0.33755 -26.61947,-0.31709c-24.47827,0.0795 -48.95645,0.15901 -73.43473,0.23849c0,0 -5.54222,0.01799 -5.55129,-2.7759c-0.00036,-0.11467 0.00857,-0.22469 0.02615,-0.33015c-2.6504,-0.27449 -5.32796,-0.65841 -8.05246,-1.33576zM251.2035,351.43548c14.77632,-0.04799 33.65738,-1.43574 43.76674,4.19631c5.79308,3.22736 2.01509,13.64764 2.02925,18.00685c0.04234,13.03845 0.0847,26.07684 0.12704,39.11528c0.00483,1.48888 1.93778,8.86838 0.03176,9.77885c-19.25163,9.1957 -55.61677,2.19179 -79.1527,4.94172c-29.20791,3.0407 -62.87364,-2.46351 -91.127,1.79349c-25.71963,3.32635 -56.71643,3.78097 -83.24601,3.86715c-3.80537,0.01236 -26.62174,1.53934 -29.09675,0.0945c-7.09736,-4.14328 -5.56704,-7.62372 -5.58306,-12.5548c-0.02898,-8.91921 -3.19983,-19.54075 1.57861,-28.13001c5.35184,-8.15125 9.09702,-16.32134 17.64925,-24.28069c3.44986,-3.21065 7.17352,-7.50244 11.63589,-10.40666c2.91994,-1.90034 8.5094,-3.45483 9.20041,-5.91511c4.72047,-6.48613 13.29595,-4.39379 23.43127,-5.51425c18.04213,-1.99458 36.72062,-1.51626 55.41786,-1.57699c6.89545,-0.02239 20.36303,-1.66594 25.22904,-1.18397c8.4706,0.83906 13.39146,4.46352 21.60203,5.51779c6.02477,0.77363 12.36955,0.28349 19.40469,2.03247c0.53408,0.13282 1.06805,0.26557 1.60219,0.39835c18.49983,-0.06009 36.99977,-0.12018 55.49965,-0.18025z" data-paper-data="{&quot;index&quot;:null}" fill="#000000" stroke="none" stroke-width="1.5" stroke-linecap="butt"/><path d="M172.33828,354.0214c-0.01762,0.10548 -0.02589,0.21552 -0.02551,0.33023c0.00906,2.79395 5.57853,2.78064 5.57853,2.78064c24.4782,-0.07951 49.08706,-0.10388 73.56539,-0.18339c6.29892,-0.02046 21.98256,-1.32593 26.63378,0.33004c2.67911,0.95391 4.59899,0.85709 8.02827,0.97202c0.3871,0.01298 1.09174,0.04188 1.71385,0.0586c-3.31188,1.2041 -1.65638,12.25321 -1.64638,15.33557c0.04235,13.03848 0.07337,26.15451 0.11573,39.19294c0.00756,2.32831 0.00569,4.66797 0.01325,6.99619c0.00302,0.93129 0.98224,3.5861 0.00492,2.79815c-3.71836,-2.9978 -10.95726,-1.35001 -19.40889,-1.32796c-16.66021,0.04349 -34.55,-0.76471 -50.90787,0.79939c-29.86994,3.10966 -62.30457,-1.57115 -91.93492,1.88153c-24.95445,3.22737 -54.95903,3.55971 -80.67981,3.64324c-6.46599,0.021 -12.94325,0.03325 -19.40924,0.05426c-0.97297,0.00317 -2.50278,-0.05971 -4.08447,-0.12697c1.58629,-1.43845 -0.10108,-4.90888 -0.10741,-6.85605c-0.02362,-7.27416 -4.92748,-19.85461 0.98941,-26.40932c5.22164,-7.95303 8.5274,-15.6576 17.06136,-23.59988c6.29669,-5.86016 16.15268,-11.11013 21.35939,-16.92784c2.52207,-3.46543 4.81516,-1.01262 13.06245,-1.83953c18.24916,-1.8297 36.67797,-1.55526 55.53648,-1.61652c6.874,-0.02233 15.58681,0.64598 22.24617,-0.07925c1.4056,-0.15311 4.0686,-0.71382 6.04802,-1.17244c-3.61869,1.42285 4.68609,2.76261 8.16297,3.62698c2.7246,0.67734 5.43445,1.06488 8.08479,1.33934z" data-paper-data="{&quot;noHover&quot;:false,&quot;origItem&quot;:[&quot;Path&quot;,{&quot;applyMatrix&quot;:true,&quot;segments&quot;:[[[579.60736,595.76373],[0.95609,-0.20262],[0.00646,0.07548]],[[579.61718,596],[0,-0.08208],[0,2]],[[577.61718,598],[0,0],[-8.83333,0]],[[551.11718,598],[8.83333,0],[-2.27308,0]],[[541.51161,598.28885],[1.67648,-1.19621],[-0.96568,0.68904]],[[538.61718,599],[1.23739,-0.09027],[-0.13966,0.01019]],[[537.99901,599.04541],[0.22447,-0.0134],[1.19653,0.85421]],[[538.61718,610],[0,-2.20646],[0,9.33333]],[[538.61718,638],[0,-9.33333],[0,1.66667]],[[538.61718,643],[0,-1.66667],[0,0.66667]],[[538.61718,645],[-0.35177,0.56631],[1.33831,-2.15456]],[[545.61718,644],[-3.04994,0.00386],[6.01206,-0.00761]],[[563.97058,644.43107],[-5.90478,-1.08158],[10.78253,2.15651]],[[597.04254,645.54479],[-10.6965,-2.40266],[9.00888,2.25222]],[[626.11718,648],[-9.28168,0],[2.33333,0]],[[633.11718,648],[-2.33333,0],[0.35109,0]],[[634.59021,647.90091],[-0.5707,0.05184],[-0.57412,-1.02596]],[[634.61718,643],[0,1.39387],[0,-5.20707]],[[634.21982,624.13246],[2.14282,4.67827],[-1.8936,-5.6808]],[[628.03948,607.31672],[3.08887,5.66543],[-2.2791,-4.1802]],[[620.32688,595.27881],[1.8857,4.15235],[-0.91417,-2.47477]],[[615.61718,594],[2.9771,0.57275],[-6.58756,-1.26734]],[[595.61718,593],[6.8054,0],[-2.48058,0]],[[587.61718,593],[2.40395,0.50364],[-0.50743,-0.10631]],[[585.44122,592.1748],[0.71481,0.32365],[1.30749,1.01011]],[[582.51161,594.78885],[1.25365,-0.62682],[-0.98239,0.4912]]],&quot;closed&quot;:true}],&quot;index&quot;:null}" fill="#484848" stroke="none" stroke-width="1.5" stroke-linecap="butt"/><path d="M94.67595,364.5169c0.00307,0.94422 1.91741,2.08243 0.96753,2.83318c2.43618,0.11846 4.88723,0.38653 7.06551,0.92813c8.39876,2.08806 25.4952,9.74048 27.12145,14.83102c0.13223,0.41406 -2.24059,0.491 -1.83752,0.85726c1.34123,1.21871 12.23198,-0.94219 13.4867,-0.5989c0.28393,0.07765 0.42365,0.19967 0.47995,0.34853c-0.05986,-0.46269 -0.11473,-0.91004 -0.11564,-1.19162c-0.00322,-0.98968 0.0709,-2.05647 -0.80992,-2.93881c-7.4882,-7.778 -19.70529,-15.15544 -40.81574,-15.08687c0,0 -2.49121,0.00807 -4.13602,-0.82857c-0.54807,-0.15503 -0.97453,-0.33813 -1.26069,-0.55347c-0.07163,0.53324 -0.14666,1.07605 -0.14561,1.40005zM141.85304,385.31837c0.38006,0.5708 0.26545,-0.37829 0.13655,-1.37118c-0.0249,0.43116 -0.39639,0.98114 -0.13655,1.37118zM150.93993,377.05447c6.91404,6.92577 -8.70061,17.1285 -22.92898,12.49988c-13.42456,-4.36719 -17.99438,-13.21706 -30.24288,-16.26211c-4.13796,-1.02875 -9.09405,-1.58159 -12.18831,-3.3054c-4.90347,-2.73183 -2.76424,-12.12148 6.59578,-12.15188c6.73986,-0.02189 10.06309,1.06932 16.33777,1.04894l2.7711,-0.009c0,0 3.1811,-0.01032 4.72716,1.19959c16.42586,2.64824 26.9829,9.47786 34.92837,16.97994z" data-paper-data="{&quot;index&quot;:null}" fill="#000000" stroke="none" stroke-width="1.5" stroke-linecap="butt"/><path d="M94.61561,363.02383c0.28603,0.21539 0.71268,0.39832 1.26082,0.55339c1.64481,0.83665 4.14729,0.82252 4.14729,0.82252c21.11041,-0.06857 33.76823,7.47151 41.25634,15.24953c0.88082,0.88233 0.78261,1.96864 0.78583,2.95827c0.00091,0.28158 0.04556,0.73538 0.10542,1.1981c-0.0562,-0.14894 -0.19462,-0.27163 -0.47866,-0.34937c-1.25468,-0.34323 -12.23979,1.85475 -13.58098,0.63605c-0.4031,-0.36627 1.70571,-0.68776 1.57338,-1.10185c-1.6262,-5.09057 -18.80485,-12.70359 -27.20371,-14.7916c-2.17839,-0.54157 -4.64341,-0.79823 -7.07962,-0.91675c0.94986,-0.7508 -0.9418,-1.90629 -0.94488,-2.8505c-0.00105,-0.32399 0.0867,-0.87461 0.15854,-1.40784z" data-paper-data="{&quot;noHover&quot;:false,&quot;origItem&quot;:[&quot;Path&quot;,{&quot;applyMatrix&quot;:true,&quot;segments&quot;:[[[607.563,601.99816],[0.02649,0.38155],[-0.10299,0.15484]],[[607.10872,602.39727],[0.1976,-0.11227],[-0.59254,0.60273]],[[605.61718,603],[0,0],[-7.618,0]],[[590.90604,613.89443],[2.69308,-5.58508],[-0.31682,0.63364]],[[590.61718,616],[0,-0.70843],[0,0.20156]],[[590.57685,616.85325],[0.02106,-0.33136],[0.02013,-0.10671]],[[590.74964,616.60263],[-0.10238,0.05628],[0.45234,-0.24865]],[[595.61718,617],[-0.48256,0.87548],[0.14503,-0.26312]],[[594.95308,616.3906],[-0.04725,0.29671],[0.58086,-3.64773]],[[604.72276,605.71115],[-3.02833,1.51416],[0.78545,-0.39273]],[[607.27135,605.03032],[-0.87898,0.0905],[-0.34365,-0.53523]],[[607.61718,603],[0,0.6759],[0,-0.23192]]],&quot;closed&quot;:true}],&quot;index&quot;:null}" fill="#ffffff" stroke="none" stroke-width="1.5" stroke-linecap="butt"/><path d="M370.1463,364.8222l-20.06224,-62.53505l94.33186,0.24761l33.96177,61.93592z" fill="#cedce9" stroke="#000000" stroke-width="1.5" stroke-linecap="round"/><path d="M487.33967,361.18849c-2.55075,0.69447 -5.05941,1.09527 -7.54319,1.38641c0.01716,0.10535 0.02624,0.21528 0.02661,0.32997c0.00908,2.7939 -5.18857,2.81078 -5.18857,2.81078c-22.95635,0.07455 -45.91259,0.14912 -68.86885,0.22368c-5.90728,0.01919 -20.61039,-1.20061 -24.96186,0.48462c-2.50654,0.97071 -4.3035,0.88126 -7.51892,1.01786c-0.36292,0.01541 -1.02304,0.04802 -1.60629,0.06867c3.11345,1.1832 1.64619,12.21569 1.65619,15.29806c0.04235,13.03848 0.08469,26.07689 0.12703,39.11532c0.00757,2.32828 0.01512,4.65661 0.02268,6.98487c0.00303,0.93126 -0.90249,3.58801 0.00908,2.7939c3.46825,-3.02116 10.261,-1.42493 18.18724,-1.45606c15.62426,-0.0614 32.34884,-1.01383 47.6992,0.44724c28.0317,2.92156 58.14406,-1.98944 85.95325,1.27672c23.42274,3.07023 51.44957,3.26275 75.571,3.18439c6.06401,-0.01969 12.12786,-0.03939 18.19181,-0.05908c0.91235,-0.00297 2.34468,-0.07367 3.82767,-0.15087c-1.49666,-1.42843 0.05423,-4.89952 0.0479,-6.84665c-0.02362,-7.27416 4.47178,-19.83676 -1.11825,-26.35412c-4.94693,-7.92 -8.08473,-15.55057 -16.13788,-23.43901c-5.94183,-5.82038 -15.17888,-10.96678 -20.0983,-16.7516c-2.38704,-3.44949 -4.50589,-0.97174 -12.24547,-1.74671c-17.12572,-1.71483 -34.29501,-1.2856 -51.98104,-1.22816c-6.44673,0.02095 -14.5409,0.75082 -20.79066,0.06753c-1.31928,-0.14425 -3.79948,-0.68825 -5.65871,-1.13444c3.40247,1.40011 -4.34656,2.79031 -7.60169,3.67656zM405.74719,360.35147c17.34965,-0.05635 34.69928,-0.11269 52.04893,-0.16905c0.50008,-0.13613 1.00004,-0.27229 1.50007,-0.40843c6.58654,-1.79323 12.5398,-1.34302 18.18501,-2.15455c7.69325,-1.10595 12.28528,-4.76132 20.22375,-5.65362c4.56031,-0.51262 17.20062,1.04616 23.66733,1.02516c17.53471,-0.05694 35.04849,-0.65277 51.98104,1.22818c9.51207,1.05667 17.54095,-1.08961 22.00864,5.36667c0.66355,2.45588 5.91512,3.97515 8.66539,5.85709c4.20305,2.87607 7.72212,7.14433 10.97768,10.33322c8.07041,7.90533 11.63409,16.05173 16.70435,24.1691c4.53536,8.55906 1.62856,19.20022 1.65753,28.11944c0.01602,4.93109 1.47305,8.40181 -5.1568,12.58968c-2.31189,1.46038 -23.71887,0.07704 -27.28767,0.08863c-24.88013,0.0808 -53.95193,-0.17875 -78.09279,-3.34314c-26.52284,-4.07913 -58.06006,1.63685 -85.47049,-1.21995c-22.08943,-2.6018 -56.1487,4.63084 -74.26081,-4.44347c-1.79319,-0.89841 -0.02691,-8.28994 -0.03175,-9.77883c-0.04235,-13.03848 -0.0847,-26.07688 -0.12703,-39.11532c-0.01417,-4.35924 -3.6228,-14.75551 1.78969,-18.01926c9.44515,-5.69555 27.16059,-4.42666 41.01822,-4.47166z" data-paper-data="{&quot;index&quot;:null}" fill="#000000" stroke="none" stroke-width="1.5" stroke-linecap="butt"/><path d="M479.72358,362.44096c2.48378,-0.29116 5.02265,-0.69571 7.57353,-1.39018c3.25514,-0.88624 11.03497,-2.27825 7.63242,-3.6783c1.85918,0.44613 4.3601,0.99006 5.67922,1.13433c6.24975,0.68331 14.41654,-0.03982 20.86305,-0.06076c17.68594,-0.05744 34.96684,-0.4479 52.09251,1.26697c7.73959,0.77498 9.87465,-1.69225 12.26168,1.75725c4.91945,5.78476 14.19553,10.97267 20.13748,16.79306c8.05316,7.88838 11.20184,15.57201 16.14872,23.49195c5.59007,6.51739 1.0704,19.12841 1.09404,26.40262c0.00632,1.94716 -1.55425,5.42815 -0.05758,6.85658c-1.48288,0.07721 -2.91717,0.1497 -3.8296,0.15266c-6.06393,0.0197 -12.13845,0.04821 -18.20237,0.06791c-24.12159,0.07835 -52.26208,-0.06516 -75.68478,-3.13544c-27.80922,-3.26617 -58.19705,1.61864 -86.22878,-1.30291c-15.35038,-1.46112 -32.12234,-0.54037 -47.74663,-0.47899c-7.92618,0.03115 -14.72513,-1.57107 -18.19339,1.45007c-0.91157,0.79409 -0.00998,-1.8668 -0.01301,-2.79809c-0.00757,-2.32828 -0.02409,-4.66791 -0.03165,-6.99613c-0.04235,-13.03848 -0.09576,-26.1544 -0.1381,-39.19287c-0.01001,-3.08236 1.47298,-14.14167 -1.64052,-15.32488c0.58334,-0.02066 1.24392,-0.05399 1.60688,-0.06943c3.21527,-0.13658 5.01638,-0.05183 7.52284,-1.02253c4.35146,-1.68521 19.06791,-0.47844 24.97519,-0.49762c22.95638,-0.07456 46.03482,-0.20507 68.99109,-0.27964c0,0 5.22315,-0.02176 5.21406,-2.81569c-0.00036,-0.11467 -0.00881,-0.22467 -0.02602,-0.33005z" data-paper-data="{&quot;noHover&quot;:false,&quot;origItem&quot;:[&quot;Path&quot;,{&quot;applyMatrix&quot;:true,&quot;segments&quot;:[[[579.60736,595.76373],[0.95609,-0.20262],[0.00646,0.07548]],[[579.61718,596],[0,-0.08208],[0,2]],[[577.61718,598],[0,0],[-8.83333,0]],[[551.11718,598],[8.83333,0],[-2.27308,0]],[[541.51161,598.28885],[1.67648,-1.19621],[-0.96568,0.68904]],[[538.61718,599],[1.23739,-0.09027],[-0.13966,0.01019]],[[537.99901,599.04541],[0.22447,-0.0134],[1.19653,0.85421]],[[538.61718,610],[0,-2.20646],[0,9.33333]],[[538.61718,638],[0,-9.33333],[0,1.66667]],[[538.61718,643],[0,-1.66667],[0,0.66667]],[[538.61718,645],[-0.35177,0.56631],[1.33831,-2.15456]],[[545.61718,644],[-3.04994,0.00386],[6.01206,-0.00761]],[[563.97058,644.43107],[-5.90478,-1.08158],[10.78253,2.15651]],[[597.04254,645.54479],[-10.6965,-2.40266],[9.00888,2.25222]],[[626.11718,648],[-9.28168,0],[2.33333,0]],[[633.11718,648],[-2.33333,0],[0.35109,0]],[[634.59021,647.90091],[-0.5707,0.05184],[-0.57412,-1.02596]],[[634.61718,643],[0,1.39387],[0,-5.20707]],[[634.21982,624.13246],[2.14282,4.67827],[-1.8936,-5.6808]],[[628.03948,607.31672],[3.08887,5.66543],[-2.2791,-4.1802]],[[620.32688,595.27881],[1.8857,4.15235],[-0.91417,-2.47477]],[[615.61718,594],[2.9771,0.57275],[-6.58756,-1.26734]],[[595.61718,593],[6.8054,0],[-2.48058,0]],[[587.61718,593],[2.40395,0.50364],[-0.50743,-0.10631]],[[585.44122,592.1748],[0.71481,0.32365],[1.30749,1.01011]],[[582.51161,594.78885],[1.25365,-0.62682],[-0.98239,0.4912]]],&quot;closed&quot;:true}],&quot;index&quot;:null}" fill="#484848" stroke="none" stroke-width="1.5" stroke-linecap="butt"/><path d="M552.62192,372.4471c-0.00105,-0.32399 -0.07475,-0.86631 -0.14531,-1.39909c-0.26702,0.21719 -0.66573,0.40284 -1.1788,0.56138c-1.53726,0.84693 -3.87355,0.85455 -3.87355,0.85455c-19.79791,0.0643 -31.2088,7.51851 -38.18226,15.34344c-0.82048,0.8879 -0.74427,1.9542 -0.74106,2.94387c0.00091,0.28158 -0.04779,0.72925 -0.101,1.19233c0.05185,-0.14913 0.18215,-0.27202 0.44798,-0.35154c1.17443,-0.35117 11.4015,1.74119 12.65163,0.51405c0.37571,-0.36877 -1.84999,-0.43081 -1.72863,-0.8457c1.49303,-5.1007 17.47798,-12.86057 25.3412,-15.00139c2.03946,-0.55525 4.33634,-0.83873 6.62024,-0.97257c-0.89554,-0.74476 0.89259,-1.89501 0.88953,-2.83922zM508.37321,392.17496c-0.11465,0.9937 -0.21623,1.9435 0.13667,1.37031c0.2412,-0.39169 -0.11059,-0.93931 -0.13667,-1.37031zM499.93609,385.33862c7.4041,-7.55193 17.26154,-14.44785 32.64912,-17.1994c1.44238,-1.21962 4.42562,-1.22932 4.42562,-1.22932l2.59881,-0.00845c5.88451,-0.01912 8.99423,-1.13118 15.31502,-1.15171c8.77807,-0.02852 10.84333,9.34756 6.26201,12.11013c-2.89096,1.74328 -7.53533,2.32727 -11.40945,3.38206c-11.46745,3.12209 -15.6974,12.00052 -28.25954,16.45208c-13.31429,4.71812 -28.022,-5.38612 -21.58162,-12.35532z" data-paper-data="{&quot;index&quot;:null}" fill="#000000" stroke="none" stroke-width="1.5" stroke-linecap="butt"/><path d="M552.66946,370.95391c0.07071,0.53276 0.15648,1.08279 0.15754,1.40678c0.00307,0.94422 -1.76366,2.11158 -0.86816,2.85641c-2.28394,0.13379 -4.59406,0.40596 -6.63356,0.96125c-7.86334,2.14087 -23.92568,9.86184 -25.41866,14.96254c-0.12153,0.41492 1.85817,0.72308 1.48243,1.09192c-1.25012,1.22707 -11.5658,-0.9017 -12.7403,-0.55055c-0.26589,0.07953 -0.39493,0.20311 -0.44669,0.35234c0.05324,-0.46311 0.09224,-0.91712 0.09133,-1.1987c-0.00322,-0.98966 -0.10218,-2.07531 0.71833,-2.96322c6.97342,-7.82497 18.79654,-15.44454 38.5944,-15.50883c0,0 2.3469,-0.00164 3.88417,-0.84861c0.51307,-0.15855 0.91205,-0.34421 1.17891,-0.56136z" data-paper-data="{&quot;noHover&quot;:false,&quot;origItem&quot;:[&quot;Path&quot;,{&quot;applyMatrix&quot;:true,&quot;segments&quot;:[[[607.563,601.99816],[0.02649,0.38155],[-0.10299,0.15484]],[[607.10872,602.39727],[0.1976,-0.11227],[-0.59254,0.60273]],[[605.61718,603],[0,0],[-7.618,0]],[[590.90604,613.89443],[2.69308,-5.58508],[-0.31682,0.63364]],[[590.61718,616],[0,-0.70843],[0,0.20156]],[[590.57685,616.85325],[0.02106,-0.33136],[0.02013,-0.10671]],[[590.74964,616.60263],[-0.10238,0.05628],[0.45234,-0.24865]],[[595.61718,617],[-0.48256,0.87548],[0.14503,-0.26312]],[[594.95308,616.3906],[-0.04725,0.29671],[0.58086,-3.64773]],[[604.72276,605.71115],[-3.02833,1.51416],[0.78545,-0.39273]],[[607.27135,605.03032],[-0.87898,0.0905],[-0.34365,-0.53523]],[[607.61718,603],[0,0.6759],[0,-0.23192]]],&quot;closed&quot;:true}],&quot;index&quot;:null}" fill="#ffffff" stroke="none" stroke-width="1.5" stroke-linecap="butt"/><g><path d="M295.64504,-15.08041l261.14669,72.6886l1.63043,8.69486l-143.75506,25.1564l39.4565,210.41563l-362.19529,65.2176l-28.85961,-211.50266z" fill="#8a96a0" stroke="#000000" stroke-width="1.5" stroke-linecap="round"/><path d="M94.16671,369.63015l-13.07646,-69.73481l361.7062,-67.82604l13.07646,69.73481z" fill="#818181" stroke="#000000" stroke-width="1.5" stroke-linecap="butt"/><path d="M637.98271,81.33109l-341.71059,-94.33392l-271.71191,202.16056l-10.86893,-19.56332l281.16748,-209.334l345.84072,97.1597z" fill="#74737c" stroke="#000000" stroke-width="1.5" stroke-linecap="round"/><path d="M538.34205,28.35067l-165.2036,-45.82659l-8.40574,-41.62664l69.44957,-52.02554l79.30501,22.93147l24.45635,120.82227z" fill="#979ea9" stroke="#000000" stroke-width="1.5" stroke-linecap="round"/><path d="M514.1756,-87.72568l9.41957,5.43414l27.42699,114.26487l-14.27419,-5.72389z" fill="#979ea9" stroke="#000000" stroke-width="1.5" stroke-linecap="round"/><path d="M335.15232,-37.65468l-4.45637,-14.16534l102.18181,-75.86457l122.92449,31.55319l-7.97002,18.29562l-114.70059,-32.49526z" fill="#7f818b" stroke="#000000" stroke-width="1.5" stroke-linecap="round"/><path d="M334.54851,-37.54147l-6.91957,7.89797l-21.77355,-7.31784l27.24389,-5.10869z" fill="#5d5e62" stroke="#000000" stroke-width="1.5" stroke-linecap="round"/><path d="M333.96885,-37.43278l31.15632,-22.64345l8.62313,42.78596l-47.27864,-12.13585z" fill="#211e21" stroke="#000000" stroke-width="1.5" stroke-linecap="round"/><path d="M265.24342,-16.74507l-162.19536,31.01441l-5.21692,0.97826l-0.21691,27.64249l-49.27151,-29.16331l234.18158,-43.91301z" fill="#5d5e62" stroke="#000000" stroke-width="1.5" stroke-linecap="round"/><path d="M108.48376,100.85583l-12.97129,-85.17345l169.73089,-32.42745z" fill="#85898c" stroke="#000000" stroke-width="1.5" stroke-linecap="round"/><path d="M124.71398,88.21177l-6.77576,-61.73358l32.82307,-7.35497l6.73928,45.53937z" fill="#000bff" stroke="#000000" stroke-width="1.5" stroke-linecap="round"/><path d="M481.25015,-65.05051l10.79703,54.37909l-54.85005,11.48537l-20.28813,-5.79627l-10.86938,-48.36512z" fill="#000bff" stroke="#000000" stroke-width="1.5" stroke-linecap="round"/><path d="M444.40566,-59.94165l11.01444,55.53841l-15.10727,5.83305l-23.29515,-5.83241l-11.23167,-47.09713z" fill="#000bff" stroke="#000000" stroke-width="1.5" stroke-linecap="round"/><path d="M578.72673,62.92061l58.91127,208.56764l-43.4743,8.15217l-9.12974,-5.48852l-27.60977,-214.43718z" fill="#676a70" stroke="#000000" stroke-width="1.5" stroke-linecap="round"/><path d="M561.71761,77.81089l-13.85727,12.49913l38.04314,183.67888l-132.16188,24.78258l-39.67382,-206.77461l144.49774,-26.1957z" fill="#83878a" stroke="#000000" stroke-width="1.5" stroke-linecap="round"/><path d="M477.36718,276.5001l-23.91303,-127.52463l56.80644,-10.65218l23.91303,127.52463z" fill="#000bff" stroke="#000000" stroke-width="1.5" stroke-linecap="butt"/><path d="M540.04238,249.1464l-21.08694,-112.45352l15.65074,-2.93478l21.08694,112.45352z" fill="#ff00c8" stroke="#ff00c8" stroke-width="1.5" stroke-linecap="butt"/><path d="M448.81881,265.05229l-21.41303,-114.19247l16.81003,-3.15217l21.41303,114.19247z" fill="#ff00c8" stroke="#000000" stroke-width="1.5" stroke-linecap="butt"/><path d="M426.97099,148.54117l-3.58694,-19.12869l106.07729,-19.89129l3.58694,19.12869z" fill="#ff00c8" stroke="#000000" stroke-width="1.5" stroke-linecap="butt"/><path d="M466.88359,189.66007l-6.08695,-32.46079l38.83703,-7.2826l6.08695,32.46079z" fill="#ff0000" stroke="#000000" stroke-width="1.5" stroke-linecap="butt"/><path d="M195.26498,299.18705l-29.3478,-156.50749l139.98725,-26.24999l29.3478,156.50749z" fill="#5a5c61" stroke="#000000" stroke-width="1.5" stroke-linecap="butt"/><path d="M200.48165,283.80788l-24.61954,-131.29238l124.33651,-23.31522l24.61954,131.29238z" fill="#000bff" stroke="#000000" stroke-width="1.5" stroke-linecap="butt"/><path d="M263.24769,272.93822l-24.78258,-132.16188l62.60298,-11.73911l24.78258,132.16188z" fill="#000bff" stroke="#000000" stroke-width="1.5" stroke-linecap="butt"/><path d="M145.95794,292.65729l-23.8665,-127.27651l46.28239,-8.67874l23.8665,127.27651z" fill="#5a5c61" stroke="#000000" stroke-width="1.5" stroke-linecap="butt"/><path d="M332.80019,256.99081l-23.63813,-126.05855l48.71828,-9.13551l23.63813,126.05855z" fill="#5a5c61" stroke="#000000" stroke-width="1.5" stroke-linecap="butt"/><path d="M371.40643,91.67857c0.7376,-0.13583 0.87343,0.60176 0.87343,0.60176l0.14538,0.90594c-0.02485,0.43257 -0.0497,0.86514 -0.07455,1.29771c0.21,2.13004 -0.33033,4.00814 -0.88973,5.86539c0.21797,1.87391 0.39122,3.73922 0.56224,5.56148c0.19794,2.1092 1.28116,5.2667 -0.55342,6.65633c0,0 -0.16397,0.1034 -0.37776,0.1217c0.06072,0.34922 0.12386,0.6848 0.18862,1.00208c0.26099,1.27868 1.90299,3.21385 1.69146,4.54831c-0.28875,1.82155 -1.88069,1.82855 -3.30115,2.0894c-9.55786,-0.32253 -19.07887,-1.86465 -28.64054,-2.10471c-10.39714,-0.27033 -20.80871,-1.22705 -31.23532,-1.48146c-5.11938,0.5647 -10.37484,0.95027 -15.37211,2.2733c-4.82168,1.27654 -9.34805,3.49568 -14.13612,4.87408c-9.84013,2.83279 -16.92949,9.67321 -22.94434,17.75897c-0.71041,0.95385 -1.62537,3.17052 -2.88747,3.51677c-1.91075,0.5242 -4.71004,-2.58952 -5.54987,-3.91505c-2.06128,-3.25339 -3.40866,-6.90423 -4.9053,-10.43796c-0.9126,-2.15475 -2.15356,-4.10468 -2.58754,-6.43037c-0.82824,-4.49966 -2.27052,-9.05839 -2.65476,-13.62546c-0.40259,-4.78525 0.20972,-10.3595 0.87527,-15.09071c0.45059,-2.4292 0.68117,-5.21075 1.95294,-7.39037c1.37827,-2.36216 4.23424,-4.54838 6.31697,-6.26644c3.66587,-3.024 7.39115,-5.93212 11.09061,-8.92229c7.54265,-6.09416 18.40867,-10.48039 27.94295,-12.24268c7.46699,-1.3751 15.12076,-3.14185 22.75998,-3.0521c2.48418,0.02919 4.94567,0.35305 7.43966,0.36091c-5.1378,-1.28113 -9.39945,-4.41291 -13.63821,-7.84065c-2.13205,-1.72411 -4.32749,-3.12883 -5.37044,-5.76c-1.99229,-5.02612 -0.72501,-10.18233 -1.11117,-15.30349c0.53393,-6.92261 3.38604,-10.72112 6.58084,-16.64327c3.64056,-6.74844 5.89027,-12.70651 13.12751,-16.67386c3.90299,-0.75586 7.74848,-0.76988 11.63544,-1.31333c7.09912,-0.99255 13.20688,-2.22379 20.13689,0.8554c2.72811,1.21218 4.79417,3.27866 7.22748,4.9274c9.36667,6.38383 15.33393,18.57623 9.54019,29.44088c-1.70727,2.49897 -3.293,5.39929 -5.27205,7.68511c-5.54082,6.39968 -19.41946,8.49466 -27.47945,8.2261c-7.45745,1.43061 -10.24856,-4.55844 -13.42676,-9.91192c-0.82693,-1.3929 -2.27317,-2.38271 -2.4341,-4.11318c-0.4138,-4.44957 0.57437,-11.10509 2.02952,-15.32967c1.6409,-7.10247 10.25397,-7.29337 15.96715,-8.75382c3.72851,-0.95312 7.60717,-2.9462 11.41837,-1.26773c1.98647,0.87483 3.15462,3.56613 4.31983,5.32415c1.30452,3.5453 3.41565,6.73938 3.62358,10.65236c0.51832,9.75365 -10.00708,20.47832 -19.49492,16.44473c-2.50867,-1.27401 -7.94968,-4.04118 -9.22454,-6.66746c-3.08623,-6.35779 2.99878,-10.87666 8.0074,-12.99537c1.02133,-0.43206 1.93758,-1.34219 3.04649,-1.33674c2.37978,0.0117 3.8547,1.73327 5.55409,3.08091c2.48151,4.84038 -0.48262,5.45811 -4.38377,6.71981c-0.80805,0.26135 -2.44907,1.32 -3.38865,0.83122c-4.03391,-2.09849 1.18153,-5.16164 3.06385,-5.81258l0.49254,-0.10352c0,0 1.07245,-0.2011 1.27354,0.87135l-0.00002,0.00008c0.2011,1.07245 -0.87135,1.27354 -0.87135,1.27354l-0.19325,0.02508c-7.53019,2.49737 4.36751,1.87683 2.32102,-2.41947c-0.85839,-0.64487 -2.377,-2.31095 -3.61887,-2.29836c-4.88443,0.04951 -11.44855,6.11414 -9.37031,11.15077c0.81908,1.98506 6.2992,4.73291 8.21349,5.7027c7.93821,3.38771 16.94322,-6.27007 16.39223,-14.39217c-0.24278,-3.57849 -2.20471,-6.47987 -3.38785,-9.73774c-0.73809,-1.08684 -1.95775,-3.87235 -3.16005,-4.27722c-3.52485,-1.18698 -6.62409,0.45943 -10.09239,1.34603c-4.71416,1.20508 -13.11851,1.2062 -14.40849,7.23617c-1.48801,4.24561 -2.01516,10.07829 -1.95632,14.52507c0.01742,1.3165 2.4794,3.85953 3.09417,5.03698c2.25408,4.31718 5.01565,8.0139 10.42857,7.0201c7.44978,0.2482 20.93147,-1.54956 26.0573,-7.5471c1.86926,-2.18716 3.36525,-4.94301 4.9935,-7.31895c5.21995,-9.81621 -0.48855,-20.8173 -8.89961,-26.50466c-2.30646,-1.56916 -4.28514,-3.57785 -6.86743,-4.72966c-6.56484,-2.92816 -12.26038,-1.61742 -18.97121,-0.69699c-3.73799,0.5127 -7.4381,0.52936 -11.19471,1.20451c-6.70767,3.8124 -8.55982,9.37691 -11.94744,15.65715c-3.01712,5.59339 -5.79829,9.10158 -6.31922,15.61349c0.34109,4.86304 -0.84337,9.73685 0.96691,14.51691c0.82845,2.18754 2.9403,3.41472 4.7052,4.84384c4.71443,3.81753 9.43234,7.32316 15.546,7.88816c3.55657,0.43483 6.86124,1.19305 10.32875,1.80699c9.25603,1.63883 21.29807,-2.63932 29.33258,-6.63248c9.38002,-5.96245 15.06629,-12.62659 17.05191,-23.91565c0.58306,-3.31484 1.79706,-6.92937 0.62309,-10.14008c-1.60375,-4.59597 -2.7519,-9.90538 -4.94893,-14.23926c-1.39507,-2.75194 -4.51829,-4.7816 -6.9436,-6.4896c-5.57452,-3.92574 -9.81091,-6.02753 -16.42603,-7.65533c-11.8313,-3.10925 -22.7295,0.80702 -33.84697,5.18768c0,0 -1.01517,0.40002 -1.4152,-0.61515c-0.40002,-1.01517 0.61515,-1.4152 0.61515,-1.4152c11.55696,-4.55384 22.87761,-8.50722 35.18508,-5.27224c8.47374,2.08488 20.35955,6.79088 24.72407,15.17315c2.30031,4.41789 3.47406,9.89901 5.11687,14.60693c1.24776,3.71596 0.14077,7.44104 -0.53459,11.23917c-2.11678,11.90465 -8.20602,19.13837 -18.12808,25.43596c-8.49011,4.2339 -20.96375,8.55818 -30.74289,6.88811c-0.58657,-0.10017 -1.16791,-0.20587 -1.74623,-0.31441c6.16354,1.64726 11.83214,4.69548 17.84618,6.7582c10.31324,3.53796 17.7837,9.78608 21.94078,20.06617c1.18086,2.93046 1.92618,6.08246 2.44954,9.28278c0.0239,-0.57155 0.01224,-1.15179 -0.04694,-1.74343c0.02551,-0.47121 0.05101,-0.94243 0.07652,-1.41364l-0.1229,-0.55083c0,0 -0.13583,-0.7376 0.60176,-0.87343zM370.05333,101.20881c-0.51128,-4.66534 -1.27113,-9.42119 -2.99549,-13.66935c-3.99619,-9.88222 -11.13136,-15.81157 -21.03691,-19.20967c-6.1003,-2.09311 -11.84404,-5.214 -18.11639,-6.82476c-3.49594,-0.89777 -7.2422,-1.20778 -10.7972,-1.85749c-2.49281,0.01086 -4.9475,-0.3263 -7.42866,-0.35545c-7.53987,-0.08859 -15.10121,1.67025 -22.47069,3.02739c-9.28441,1.70313 -19.93024,5.99783 -27.2717,11.93407c-3.69611,2.98746 -7.4169,5.89111 -11.07894,8.91276c-1.9434,1.60356 -4.72015,3.68479 -5.99302,5.89382c-1.15459,2.00376 -1.33739,4.62061 -1.75102,6.84727c-0.64839,4.61739 -1.26351,10.08213 -0.85905,14.74961c0.39068,4.50847 1.81453,9.00982 2.63327,13.45358c0.39946,2.20215 1.62819,4.07559 2.49348,6.11682c1.46742,3.46168 2.78848,7.02757 4.79296,10.22306c0.49334,0.78647 2.87163,3.57584 3.97439,3.24685c0.48117,-0.14355 1.68559,-2.5332 1.99063,-2.94374c6.21238,-8.3513 13.57088,-15.37969 23.73289,-18.30515c4.79832,-1.38135 9.33423,-3.60423 14.16734,-4.88271c5.09993,-1.34906 10.46528,-1.7623 15.6922,-2.32186c10.4611,0.23263 20.90648,1.22256 31.33704,1.48059c9.50846,0.24394 18.99289,1.72951 28.49339,2.10819c3.38315,-0.62522 0.78923,-2.23633 0.24957,-4.83925c-0.39322,-1.89663 -0.32169,-4.09945 -0.54049,-6.04009c-0.26583,-2.35781 0.25796,-4.54624 0.78237,-6.74449zM370.4439,105.13416c-0.0016,0.04339 -0.00291,0.08687 -0.00393,0.13042c-0.03984,1.70101 0.13685,3.88887 0.41224,5.88118c0.52152,-0.80224 -0.24016,-4.21793 -0.32245,-5.09477c-0.02856,-0.30432 -0.05711,-0.60999 -0.08587,-0.91684z" fill="#000000" stroke="none" stroke-width="0.5" stroke-linecap="butt"/><path d="M369.32027,107.96156c0.2188,1.94064 0.14638,4.14765 0.5396,6.04428c0.53966,2.60292 3.13261,4.21731 -0.25054,4.84253c-9.5005,-0.37868 -18.98817,-1.85667 -28.49662,-2.10061c-10.43057,-0.25803 -20.90416,-1.22392 -31.36526,-1.45655c-5.22692,0.55957 -10.6292,0.97085 -15.72913,2.31991c-4.83312,1.27848 -9.38211,3.4926 -14.18043,4.87395c-10.16201,2.92545 -17.44979,9.88326 -23.66217,18.23456c-0.30504,0.41054 -1.58249,2.8685 -2.06366,3.01205c-1.10276,0.32899 -3.4835,-2.46316 -3.97684,-3.24963c-2.00447,-3.19549 -3.33017,-6.76813 -4.7976,-10.22982c-0.86529,-2.04123 -2.09626,-3.91907 -2.49572,-6.12122c-0.81874,-4.44376 -2.24583,-8.95496 -2.63651,-13.46343c-0.40446,-4.66747 0.20953,-10.14364 0.85792,-14.76103c0.41363,-2.22665 0.59684,-4.84912 1.75143,-6.85288c1.27287,-2.20902 4.05071,-4.29603 5.99411,-5.89959c3.66204,-3.02165 7.38696,-5.93617 11.08307,-8.92363c7.34146,-5.93624 18.01032,-10.25309 27.29472,-11.95622c7.36947,-1.35714 14.9602,-3.12011 22.50007,-3.03152c2.48116,0.02915 4.94489,0.36867 7.43771,0.35782c3.555,0.64971 7.3125,0.96551 10.80844,1.86328c6.27235,1.61076 12.02923,4.74492 18.12953,6.83803c9.90555,3.3981 17.04871,9.34807 21.0449,19.23028c1.72437,4.24816 2.48464,9.01453 2.99593,13.67987c-0.52441,2.19825 -1.04879,4.39175 -0.78296,6.74955z" data-paper-data="{&quot;noHover&quot;:false,&quot;origItem&quot;:[&quot;Path&quot;,{&quot;applyMatrix&quot;:true,&quot;segments&quot;:[[[476.01359,76.92625],[-0.52441,2.19825],[-0.51128,-4.66534]],[[473.0181,63.2569],[1.72437,4.24816],[-3.99619,-9.88222]],[[451.98119,44.04723],[9.90555,3.3981],[-6.1003,-2.09311]],[[433.8648,37.22247],[6.27235,1.61076],[-3.49594,-0.89777]],[[423.0676,35.36498],[3.555,0.64971],[-2.49281,0.01086]],[[415.63894,35.00952],[2.48116,0.02915],[-7.53987,-0.08859]],[[393.16825,38.03692],[7.36947,-1.35714],[-9.28441,1.70313]],[[365.89655,49.97099],[7.34146,-5.93624],[-3.69611,2.98746]],[[354.81761,58.88375],[3.66204,-3.02165],[-1.9434,1.60356]],[[348.82459,64.77757],[1.27287,-2.20902],[-1.15459,2.00376]],[[347.07358,71.62483],[0.41363,-2.22665],[-0.64839,4.61739]],[[346.21453,86.37444],[-0.40446,-4.66747],[0.39068,4.50847]],[[348.8478,99.82802],[-0.81874,-4.44376],[0.39946,2.20215]],[[351.34128,105.94484],[-0.86529,-2.04123],[1.46742,3.46168]],[[356.13424,116.1679],[-2.00447,-3.19549],[0.49334,0.78647]],[[360.10863,119.41475],[-1.10276,0.32899],[0.48117,-0.14355]],[[362.09926,116.47101],[-0.30504,0.41054],[6.21238,-8.3513]],[[385.83215,98.16586],[-10.16201,2.92545],[4.79832,-1.38135]],[[399.9995,93.28316],[-4.83312,1.27848],[5.09993,-1.34906]],[[415.6917,90.96129],[-5.22692,0.55957],[10.4611,0.23263]],[[447.02874,92.44188],[-10.43057,-0.25803],[9.50846,0.24394]],[[475.52213,94.55008],[-9.5005,-0.37868],[3.38315,-0.62522]],[[475.77171,89.71083],[0.53966,2.60292],[-0.39322,-1.89663]],[[475.23122,83.67074],[0.2188,1.94064],[-0.26583,-2.35781]]],&quot;closed&quot;:true}]}" fill="#6d0000" stroke="none" stroke-width="0.5" stroke-linecap="butt"/><path d="M244.80641,37.1361c0.2011,1.07245 -0.87135,1.27354 -0.87135,1.27354l-0.19325,0.02508c-7.53019,2.49737 4.36751,1.87683 2.32102,-2.41947c-0.85839,-0.64487 -2.377,-2.31095 -3.61887,-2.29836c-4.88443,0.04951 -11.44855,6.11414 -9.37031,11.15077c0.81908,1.98506 6.2992,4.73291 8.21349,5.7027c7.93821,3.38771 16.94322,-6.27007 16.39223,-14.39217c-0.24278,-3.57849 -2.20471,-6.47987 -3.38785,-9.73774c-0.73809,-1.08684 -1.95775,-3.87235 -3.16005,-4.27722c-3.52485,-1.18698 -6.62409,0.45943 -10.09239,1.34603c-4.71416,1.20508 -13.11851,1.2062 -14.40849,7.23617c-1.48801,4.24561 -2.01516,10.07829 -1.95632,14.52507c0.01742,1.3165 2.4794,3.85953 3.09417,5.03698c2.25408,4.31718 5.01565,8.0139 10.42857,7.0201c7.44978,0.2482 20.93147,-1.54956 26.0573,-7.5471c1.86926,-2.18716 3.36525,-4.94301 4.9935,-7.31895c5.21995,-9.81621 -0.48855,-20.8173 -8.89961,-26.50466c-2.30646,-1.56916 -4.28514,-3.57785 -6.86743,-4.72966c-6.56484,-2.92816 -12.26038,-1.61742 -18.97121,-0.69699c-3.73799,0.5127 -7.4381,0.52936 -11.19471,1.20451c-6.70767,3.8124 -8.55982,9.37691 -11.94744,15.65715c-3.01712,5.59339 -5.79829,9.10158 -6.31922,15.61349c0.34109,4.86304 -0.84337,9.73685 0.96691,14.51691c0.82845,2.18754 2.9403,3.41472 4.7052,4.84384c4.71443,3.81753 9.43234,7.32316 15.546,7.88816c3.55657,0.43483 6.86124,1.19305 10.32875,1.80699c9.25603,1.63883 21.29807,-2.63932 29.33258,-6.63248c9.38002,-5.96245 15.06629,-12.62659 17.05191,-23.91565c0.58306,-3.31484 1.79706,-6.92937 0.62309,-10.14008c-1.60375,-4.59597 -2.7519,-9.90538 -4.94893,-14.23926c-1.39507,-2.75194 -4.51829,-4.7816 -6.9436,-6.4896c-5.57452,-3.92574 -9.81091,-6.02753 -16.42603,-7.65533c-11.8313,-3.10925 -22.7295,0.80702 -33.84697,5.18768c0,0 -1.01517,0.40002 -1.4152,-0.61515c-0.40002,-1.01517 0.61515,-1.4152 0.61515,-1.4152c11.55696,-4.55384 22.87761,-8.50722 35.18508,-5.27224c8.47374,2.08488 20.35955,6.79088 24.72407,15.17315c2.30031,4.41789 3.47406,9.89901 5.11687,14.60693c1.24776,3.71596 0.14077,7.44104 -0.53459,11.23917c-2.11678,11.90465 -8.20602,19.13837 -18.12808,25.43596c-8.49011,4.2339 -20.96375,8.55818 -30.74289,6.88811c-3.43942,-0.58739 -6.69909,-1.36456 -10.22454,-1.79323c-6.5555,-0.6159 -11.63669,-4.27876 -16.68542,-8.3615c-2.13205,-1.72411 -4.32749,-3.12883 -5.37044,-5.76c-1.99229,-5.02612 -0.72501,-10.18233 -1.11117,-15.30349c0.53393,-6.92261 3.38604,-10.72112 6.58084,-16.64327c3.64056,-6.74844 5.89027,-12.70651 13.12751,-16.67386c3.90299,-0.75586 7.74848,-0.76988 11.63544,-1.31333c7.09912,-0.99255 13.20688,-2.22379 20.13689,0.8554c2.72811,1.21218 4.79417,3.27866 7.22748,4.9274c9.36667,6.38383 15.33393,18.57623 9.54019,29.44088c-1.70727,2.49897 -3.293,5.39929 -5.27205,7.68511c-5.54082,6.39968 -19.41946,8.49466 -27.47945,8.2261c-7.45745,1.43061 -10.24856,-4.55844 -13.42676,-9.91192c-0.82693,-1.3929 -2.27317,-2.38271 -2.4341,-4.11318c-0.4138,-4.44957 0.57437,-11.10509 2.02952,-15.32967c1.6409,-7.10247 10.25397,-7.29337 15.96715,-8.75382c3.72851,-0.95312 7.60717,-2.9462 11.41837,-1.26773c1.98647,0.87483 3.15462,3.56613 4.31983,5.32415c1.30452,3.5453 3.41565,6.73938 3.62358,10.65236c0.51832,9.75365 -10.00708,20.47832 -19.49492,16.44473c-2.50867,-1.27401 -7.94968,-4.04118 -9.22454,-6.66746c-3.08623,-6.35779 2.99878,-10.87666 8.0074,-12.99537c1.02133,-0.43206 1.93758,-1.34219 3.04649,-1.33674c2.37978,0.0117 3.8547,1.73327 5.55409,3.08091c2.48151,4.84038 -0.48262,5.45811 -4.38377,6.71981c-0.80805,0.26135 -2.44907,1.32 -3.38865,0.83122c-4.03391,-2.09849 1.18153,-5.16164 3.06385,-5.81258l0.49254,-0.10352c0,0 1.07245,-0.2011 1.27354,0.87135z" fill="#000000" stroke="none" stroke-width="0.5" stroke-linecap="butt"/></g></g></g></svg>