<svg version="1.1" xmlns="http://www.w3.org/2000/svg" xmlns:xlink="http://www.w3.org/1999/xlink" width="1733.09309" height="836.33634" viewBox="0,0,1733.09309,836.33634"><g transform="translate(546.54655,238.16817)"><g data-paper-data="{&quot;isPaintingLayer&quot;:true}" fill-rule="nonzero" stroke-linejoin="miter" stroke-miterlimit="10" stroke-dasharray="" stroke-dashoffset="0" style="mix-blend-mode: normal"><path d="M139.92165,278.58959c-1.02466,-0.29044 -2.01373,-0.62846 -2.6707,-1.41057c-1.13239,-1.34808 -1.06173,-3.37345 -1.31212,-5.11613c-0.68613,-4.77519 -0.01104,-10.19869 -0.01104,-15.02183c0,-9.01287 -0.4778,-18.45055 1.14439,-27.35198c1.61853,-8.88133 5.91188,-16.85216 6.51432,-25.88505c0.6128,-9.18797 0.50156,-19.33388 -1.22627,-28.37086c-1.01741,-5.32133 -2.75426,-10.32402 -4.14006,-15.46302l-0.31095,0.15547l-1.61026,-3.22052c-0.23701,-0.45019 -0.37115,-0.96298 -0.37115,-1.50709c0,-1.78917 1.45041,-3.23958 3.23958,-3.23958c0.38474,0 0.75382,0.06708 1.09618,0.19017l4.79682,1.59894c2.16934,0.62208 4.37001,1.15584 6.59659,1.52359c15.99893,2.0218 33.15366,0.45261 49.23369,-0.14713c3.83164,-0.14291 8.17553,-0.78437 12.04989,-0.43322c2.2968,0.20817 5.31277,-0.61438 6.82647,1.12554c1.88215,2.16342 -1.01516,11.25474 -1.48768,13.24124c-2.48314,10.43929 -2.64568,20.82662 -2.64568,31.4973c0,8.56001 0.63733,17.37841 -0.00815,25.91365c-0.77422,10.23753 -0.29476,19.93958 0.54518,30.12553c0.14358,1.7412 -0.28252,3.51327 -0.02491,5.24127c1.12938,7.5757 3.94778,15.05746 4.98901,22.74528c1.09066,8.05279 0.71542,15.81719 2.67161,23.77911c0.03276,4.95999 -0.57543,10.26727 0.72063,15.11449c1.8604,6.95782 3.80669,12.20481 3.67137,19.54744c-0.04794,2.60125 1.16574,5.64155 -0.2871,7.79983c-1.07587,1.59827 -3.76211,0.89091 -5.6808,1.06581c-3.33209,0.30374 -6.69912,0.21481 -10.03771,-0.00626c-10.10211,-0.66893 -19.91108,-2.683 -30.01582,-3.27657c-6.11093,-0.35897 -12.09618,0.53903 -18.17452,0.54128c-8.24343,1.26778 -16.63784,1.39908 -24.88453,2.70318c-7.25072,1.14661 -14.28345,2.31182 -21.60796,2.76443c-9.45121,0.58402 -19.15244,0.00626 -28.61763,0.00626c-7.08401,0 -14.04265,0.56133 -21.13873,0.52493c-5.11541,-1.19029 -10.56026,-0.83396 -15.40613,-2.87705c-1.71478,-0.72297 -4.05172,-0.86793 -5.01012,-2.46312c-0.98855,-1.64537 0.05714,-3.83862 0.07079,-5.75808c0.03184,-4.47658 -0.00815,-8.95524 -0.00815,-13.43205c0,-13.74997 0.2022,-27.39134 1.68102,-41.05905c0.45663,-4.2203 -0.30863,-8.57812 0.62302,-12.71955c0.0062,-0.02755 0.01246,-0.05509 0.01877,-0.0826l-0.01428,-0.00095l0.42931,-6.43973c0.09856,-1.70055 1.50881,-3.04917 3.23407,-3.04917c1.62605,0 2.97231,1.19801 3.20426,2.75953l0.46587,2.79523c2.4797,4.29235 4.52819,11.76454 9.55701,13.80402c6.39027,2.59163 14.98771,1.40702 21.74679,1.40702c12.91356,0 25.55232,0.47479 38.39956,1.64273c4.14751,-0.00326 8.8669,-0.51927 12.96843,-0.00333c0.46691,0.05874 0.76618,0.98268 1.18481,0.76772c0.36312,-0.18647 -0.53377,-0.66957 -0.58808,-1.07414c-0.14761,-1.09962 0.08207,-2.22221 -0.00289,-3.32843c-0.19583,-2.55016 -0.26403,-5.09679 -0.38603,-7.64391z" data-paper-data="{&quot;index&quot;:null}" fill="#834e4a" stroke="none" stroke-width="0.5" stroke-linecap="butt"/><path d="M525.69935,285.59641c-0.11378,2.54751 -0.17375,5.09434 -0.36135,7.64512c-0.08138,1.10648 0.15192,2.22833 0.00786,3.32842c-0.053,0.40474 -0.94834,0.89074 -0.58462,1.07603c0.41932,0.21362 0.71561,-0.71129 1.18234,-0.77154c4.09984,-0.52918 8.82087,-0.02842 12.96837,-0.03854c12.8434,-1.2094 25.48056,-1.72501 38.39406,-1.7667c6.75904,-0.02182 15.36026,1.13502 21.74213,-1.47722c5.02221,-2.0557 7.04656,-9.53448 9.5124,-13.8348l0.45684,-2.79672c0.22691,-1.56226 1.56929,-2.76461 3.19533,-2.76986c1.72525,-0.00557 3.13985,1.3385 3.24391,3.03871l0.4501,6.43831l-0.01428,0.001c0.0064,0.02749 0.01275,0.05501 0.01903,0.08254c0.94502,4.1384 0.19384,8.49867 0.66408,12.71747c1.52294,13.66286 1.76918,27.30351 1.81358,41.05341c0.01445,4.47679 -0.01108,8.95555 0.03522,13.43201c0.01985,1.9194 1.07261,4.10926 0.08938,5.75781c-0.95324,1.59827 -3.2897,1.75078 -5.00214,2.47928c-4.83925,2.05872 -10.28523,1.71998 -15.39677,2.92678c-7.09592,0.05931 -14.05633,-0.47955 -21.1403,-0.45668c-9.46514,0.03056 -19.16445,0.63964 -28.61751,0.08614c-7.32592,-0.42896 -14.36239,-1.57146 -21.61677,-2.69465c-8.25085,-1.27747 -16.64564,-1.38167 -24.89312,-2.62283c-6.07832,0.01737 -12.06644,-0.8613 -18.17618,-0.4826c-10.10277,0.62619 -19.90519,2.67191 -30.00508,3.37346c-3.33787,0.23185 -6.70459,0.33165 -10.03765,0.03867c-1.91924,-0.1687 -4.6032,0.54732 -5.68421,-1.04746c-1.4598,-2.15358 -0.25594,-5.19777 -0.31227,-7.79886c-0.15903,-7.34214 1.77031,-12.5954 3.60824,-19.55919c1.28039,-4.85138 0.65508,-10.15666 0.67183,-15.11673c1.93047,-7.96819 1.53016,-15.73134 2.59482,-23.78761c1.0164,-7.69114 3.81063,-15.18196 4.91555,-22.76127c0.25203,-1.72883 -0.17978,-3.49951 -0.04183,-5.24116c0.80706,-10.18861 1.25518,-19.89217 0.44791,-30.12713c-0.67303,-8.53311 -0.06418,-17.35351 -0.09182,-25.91349c-0.03445,-10.67062 -0.23053,-21.05739 -2.74736,-31.48859c-0.47892,-1.98496 -3.40558,-11.06688 -1.53042,-13.23637c1.50807,-1.7448 4.52669,-0.93199 6.82281,-1.14756c3.87321,-0.36365 8.21914,0.26378 12.05123,0.39431c16.08187,0.54782 33.24159,2.06162 49.2339,-0.01183c2.22538,-0.37493 4.42432,-0.9158 6.59165,-1.54488l4.79162,-1.61442c0.34196,-0.12419 0.71082,-0.19246 1.09556,-0.1937c1.78916,-0.00578 3.24425,1.43994 3.25002,3.2291c0.00176,0.54411 -0.13073,1.05732 -0.36628,1.50827l-1.59984,3.2257l-0.31145,-0.15447c-1.3692,5.14345 -3.08989,10.15173 -4.09011,15.47631c-1.69864,9.0425 -1.77713,19.18872 -1.13467,28.37467c0.63161,9.0309 4.95066,16.98782 6.59786,25.86388c1.65092,8.89615 1.20359,18.33532 1.23269,27.34814c0.01557,4.82311 0.70817,10.24442 0.03746,15.02179c-0.24476,1.74348 -0.16756,3.76861 -1.2956,5.12034c-0.65444,0.78423 -1.64242,1.12544 -2.66613,1.41919z" data-paper-data="{&quot;index&quot;:null}" fill="#834e4a" stroke="none" stroke-width="0.5" stroke-linecap="butt"/><g><path d="M543.03913,105.91556c0.87803,-3.48201 4.41254,-5.59297 7.89456,-4.71494c3.48201,0.87803 5.59297,4.41254 4.71494,7.89456c-0.87803,3.48201 -4.41254,5.59297 -7.89456,4.71494c-3.48201,-0.87803 -5.59297,-4.41254 -4.71494,-7.89456z" data-paper-data="{&quot;index&quot;:null}" fill="none" stroke="#000000" stroke-width="0" stroke-linecap="butt"/><path d="M481.90909,161.90285l-20.15007,-9.56635l-2.47022,4.40606l10.54008,4.01699l-2.3857,10l26.82317,68.26652l-222.2066,-24.46499l-56.56339,-49.90751l84.22999,-45.12228l4.28046,1.3512l5.60169,-3.88827l-73.90624,-13.47141l-22.98378,-15.03803l-9.7736,-3.68779l0.36109,-4.66605l-23.96966,-33.22776l-130.09824,72.32662l-34.47522,-54.22573l55.85541,-30.29257l5.90384,-11.01571l12.07802,2.2301l27.55309,-15.61453l43.64171,26.36346l24.70787,-7.56528l70.51449,15.19859l42.83335,-16.24672l66.76936,13.88042l33.51907,-10.0326l72.36361,17.56772l25.04475,31.12029l75.90017,23.21662z" data-paper-data="{&quot;index&quot;:null}" fill="#5f5d68" stroke="#000000" stroke-width="1" stroke-linecap="round"/><path d="M18.09355,75.64414l31.80584,48.92198l126.03635,-70.79313l26.80576,36.5764l9.49209,1.77236l21.51606,15.67511l66.53922,10.79967l-85.48143,45.84381l0.06607,3.43319l54.97233,50.51201l221.78415,24.55535l2.12791,-4.74352l-26.88742,-68.27759l1.62254,-7.66629l0.95476,-2.55459l12.62317,6.5996l3.79886,-0.28444l81.7745,-54.85399l10.14484,18.65544l-57.17546,38.89629l1.40019,3.07144l23.18486,10.46753l41.17885,-27.87713l14.95565,-57.15388l29.171,6.13254l-18.18202,64.01965l13.69732,23.29792l-39.08468,125.89216l-53.83708,-11.26501l-2.74349,13.03589l-49.30798,-10.36081l-7.66535,-6.92789l-215.09628,-15.74024l-21.13422,-20.75589l-1.5654,3.5129l-34.95904,-44.22188l-160.00949,-17.78585l-35.41402,-75.66563z" data-paper-data="{&quot;index&quot;:null}" fill="#834e4a" stroke="#000000" stroke-width="1" stroke-linecap="round"/><path d="M12.77183,70.58963l1.23006,-7.57306l35.27228,55.24222l129.73071,-72.35133l24.35249,33.59613l-0.48999,5.17722l9.51995,2.67239l24.06946,15.58363l72.88418,13.07778l-5.34608,3.95271l-70.71309,-11.85071l-21.57586,-15.77034l-8.91543,-1.2967l-26.77445,-37.19705l-126.56176,70.16024l-34.89551,-51.88522z" data-paper-data="{&quot;index&quot;:null}" fill="#cacaca" stroke="#000000" stroke-width="1" stroke-linecap="round"/><path d="M416.82441,153.71938l25.3517,-17.66473l12.66217,21.47384l-1.79682,3.35261l-5.39838,-1.76901l-8.80052,36.51741l-19.20432,-3.07565l-11.43057,-37.67728l1.47788,-3.70486z" data-paper-data="{&quot;index&quot;:null}" fill="#dfdde8" stroke="#000000" stroke-width="1" stroke-linecap="round"/><path d="M417.17666,153.40043l-15.58731,-5.56152l-1.36465,-4.8294l15.68067,6.80834l26.69269,-16.91882l14.62188,24.48248l-2.17468,0.53898l-12.99723,-21.7622z" data-paper-data="{&quot;index&quot;:null}" fill="#cacaca" stroke="#000000" stroke-width="1" stroke-linecap="round"/><path d="M417.10122,186.57933l7.21381,-26.45184l14.18711,2.49008l-7.18268,26.86744z" data-paper-data="{&quot;index&quot;:null}" fill="#ffa800" stroke="#000000" stroke-width="1" stroke-linecap="round"/><path d="M499.17333,176.96508l1.22121,-3.2259l0.67671,-2.68362l4.15599,-0.31121l3.96045,1.54233l1.848,2.91252l-0.96783,4.37715l9.13877,1.48894l-7.76492,30.25449l-29.68551,-4.63126l7.76824,-31.88465z" data-paper-data="{&quot;index&quot;:null}" fill="#ffa800" stroke="#000000" stroke-width="1" stroke-linecap="round"/><path d="M540.18389,224.00413l9.40946,-37.31527l2.78583,-2.42363l4.41489,-1.87692l2.71365,1.63569l2.23029,3.55257l0.9868,2.01577l-9.65842,33.99046z" data-paper-data="{&quot;index&quot;:null}" fill="#ffa800" stroke="#000000" stroke-width="1" stroke-linecap="round"/><path d="M605.49494,193.44552l2.46027,0.48448l1.82022,0.86675l0.69899,2.07912l0.60341,1.91909l-9.45845,29.96336l-5.87844,-1.48232z" data-paper-data="{&quot;index&quot;:null}" fill="#ffa800" stroke="#000000" stroke-width="1" stroke-linecap="round"/><path d="M576.12148,286.88961l8.60276,-33.57707l7.85976,1.71009l-9.65511,32.36028z" data-paper-data="{&quot;index&quot;:null}" fill="#ffa800" stroke="#000000" stroke-width="1" stroke-linecap="round"/><path d="M489.53822,310.35124l15.53215,-53.78048l5.27943,-2.61033l10.58555,-2.63151l6.90187,1.19672l6.41962,2.57021l4.69055,4.03704l-17.74513,57.43589z" data-paper-data="{&quot;index&quot;:null}" fill="#cac8d3" stroke="#000000" stroke-width="1" stroke-linecap="round"/><path d="M493.25281,310.9821l14.25986,-49.00437l8.16081,-4.87396l5.21167,-0.72461l5.6873,1.16229l4.08824,1.57456l-18.02155,55.83711z" data-paper-data="{&quot;index&quot;:null}" fill="#4a1f18" stroke="#000000" stroke-width="1" stroke-linecap="round"/><path d="M408.64288,295.3553l12.36083,-42.55144l9.75988,-5.28625l19.53322,-1.4626l15.87623,4.95479l7.43973,3.91478l-13.16642,45.74623z" data-paper-data="{&quot;index&quot;:null}" fill="#361617" stroke="#000000" stroke-width="1" stroke-linecap="round"/><path d="M340.99552,292.7725l11.46517,-42.2336l5.31134,-6.50994l12.05792,-3.61943l16.0495,-1.66148l19.7122,4.83473l4.91282,4.77267l-13.75232,46.99164z" data-paper-data="{&quot;index&quot;:null}" fill="#361617" stroke="#000000" stroke-width="1" stroke-linecap="round"/><path d="M266.52348,286.39603l11.7146,-46.9958l7.00849,-4.07719l12.26964,-1.62921l18.38198,-1.20924l15.01501,4.05805l9.03438,5.67606l2.7059,5.43944l-11.14736,43.12925z" data-paper-data="{&quot;index&quot;:null}" fill="#361617" stroke="#000000" stroke-width="1" stroke-linecap="round"/><path d="M242.81543,269.91814l12.03683,-48.27371l3.61152,0.23108l4.66054,3.07807l2.35476,5.21499l-12.52716,49.67915z" data-paper-data="{&quot;index&quot;:null}" fill="#361617" stroke="#000000" stroke-width="1" stroke-linecap="round"/><path d="M277.37521,239.31857l7.93524,-3.97942l11.00006,-2.11924l13.68258,-0.89915l-10.1462,38.0809l-29.04986,-2.83996z" data-paper-data="{&quot;index&quot;:null}" fill="#cac8d3" stroke="#000000" stroke-width="1" stroke-linecap="round"/><path d="M284.65733,257.87271l5.93037,-24.05711l11.06119,-0.74465l-6.67151,26.99635z" data-paper-data="{&quot;index&quot;:null}" fill="#ba00ff" stroke="#000000" stroke-width="1" stroke-linecap="round"/><path d="M276.95739,240.43647l3.26588,-2.71034l5.05495,-2.25919l-5.60922,23.32259l-6.5174,-1.64343z" data-paper-data="{&quot;index&quot;:null}" fill="#ba00ff" stroke="#000000" stroke-width="1" stroke-linecap="round"/><path d="M385.08798,238.92223l8.43539,1.58341l12.17244,2.9335l5.10396,5.09271l-8.0428,25.42729l-32.75803,-2.68768l8.59944,-31.9469z" data-paper-data="{&quot;index&quot;:null}" fill="#cac8d3" stroke="#000000" stroke-width="1" stroke-linecap="round"/><path d="M385.40803,238.73111l4.56939,0.74447l-7.02377,27.31527l-8.43759,-0.49663l7.44047,-27.88978z" data-paper-data="{&quot;index&quot;:null}" fill="#ba00ff" stroke="#000000" stroke-width="1" stroke-linecap="round"/><path d="M404.41792,243.11692l-4.68577,25.05055l-10.1311,-0.78774l6.57484,-26.61296z" data-paper-data="{&quot;index&quot;:null}" fill="#ba00ff" stroke="#000000" stroke-width="1" stroke-linecap="round"/><path d="M420.25198,253.09002l3.55369,-2.77369l9.46986,-4.13612l9.52438,0.49884l-8.34165,30.92456l-20.03554,-3.01341z" data-paper-data="{&quot;index&quot;:null}" fill="#cac8d3" stroke="#000000" stroke-width="1" stroke-linecap="round"/><path d="M432.76436,246.05133l2.68363,0.6767l-6.37597,23.12926l-8.69316,-0.56107l5.05919,-20.06334z" data-paper-data="{&quot;index&quot;:null}" fill="#ffa800" stroke="#000000" stroke-width="1" stroke-linecap="round"/><path d="M520.72714,169.01221l0.99398,-1.51627l21.71471,10.36866l44.58113,-30.85888l-1.77343,7.57195l-39.6612,28.19187l-25.48511,-11.04757z" data-paper-data="{&quot;index&quot;:null}" fill="#cacaca" stroke="#000000" stroke-width="1" stroke-linecap="round"/><path d="M614.82165,157.53652l19.19917,37.05378l-4.7027,1.94026l-17.55114,-30.11416z" data-paper-data="{&quot;index&quot;:null}" fill="#cacaca" stroke="#000000" stroke-width="1" stroke-linecap="round"/><path d="M577.28003,129.75506l-10.22466,-17.66513l-77.73918,51.99185l-6.81404,2.76704l-23.24711,-11.29873l1.47901,-4.24826l21.14018,9.95195l89.76375,-58.84772l12.35053,25.40483z" data-paper-data="{&quot;index&quot;:null}" fill="#cacaca" stroke="#000000" stroke-width="1" stroke-linecap="round"/><path d="M583.06837,127.54487l9.84113,2.75338l-5.35929,17.40524l-44.09078,30.26896l-22.62564,-10.3265l57.6331,-37.79548z" data-paper-data="{&quot;index&quot;:null}" fill="#5f5d68" stroke="#000000" stroke-width="1" stroke-linecap="round"/><path d="M491.67987,243.51008l-222.1655,-25.03228l-55.80221,-50.90484l1.73347,-3.64043l56.4756,49.85139l221.20761,24.51891z" data-paper-data="{&quot;index&quot;:null}" fill="#cacaca" stroke="#000000" stroke-width="1" stroke-linecap="round"/><path d="M253.01187,203.20522l-10.30181,36.00293l-7.11972,-4.10592l9.69396,-35.74844z" data-paper-data="{&quot;index&quot;:null}" fill="#ba00ff" stroke="#000000" stroke-width="1" stroke-linecap="round"/><path d="M226.89014,179.05096l-7.3116,27.37862l-4.01937,-4.00371l7.3738,-26.54741z" data-paper-data="{&quot;index&quot;:null}" fill="#ba00ff" stroke="#000000" stroke-width="1" stroke-linecap="round"/><path d="M209.48851,201.16692l-8.99995,-6.89064l6.29256,-29.26656l9.28664,7.37069z" data-paper-data="{&quot;index&quot;:null}" fill="#ba00ff" stroke="#000000" stroke-width="1" stroke-linecap="round"/><path d="M211.41003,148.26976l8.85911,-37.82783l10.24455,7.88407l-10.00229,38.04925z" data-paper-data="{&quot;index&quot;:null}" fill="#003cff" stroke="#000000" stroke-width="1" stroke-linecap="round"/><path d="M149.09562,112.81444l7.19041,-30.67119l28.1809,5.74697l-7.64629,30.86205z" data-paper-data="{&quot;index&quot;:null}" fill="#003cff" stroke="#000000" stroke-width="1" stroke-linecap="round"/><path d="M163.78473,182.84632l-31.05897,-5.11352l5.94252,-30.03444l32.21131,4.31675z" data-paper-data="{&quot;index&quot;:null}" fill="#003cff" stroke="#000000" stroke-width="1" stroke-linecap="round"/><path d="M113.93292,66.57041l-45.34461,25.12771l-10.20788,-10.18541l8.73054,-33.54485l7.12031,-15.83986l2.17947,28.54862z" data-paper-data="{&quot;index&quot;:null}" fill="#dfdde8" stroke="#000000" stroke-width="1" stroke-linecap="round"/><path d="M67.75641,56.7274l7.63641,1.51784l-7.21601,27.53863l-6.06073,-6.14949l5.70589,-23.70596z" data-paper-data="{&quot;index&quot;:null}" fill="#003cff" stroke="#000000" stroke-width="1" stroke-linecap="round"/><path d="M66.94178,48.63875l-3.67485,-0.5189l12.29409,-25.44264l3.03295,33.24913l44.15823,8.1448l-4.06707,3.73157l-43.20034,-7.63142l-1.22157,-28.03524z" data-paper-data="{&quot;index&quot;:null}" fill="#cacaca" stroke="#000000" stroke-width="1" stroke-linecap="round"/><path d="M6.66116,134.34592l9.65275,-35.58503l4.52614,6.30617l-8.68001,39.27358z" data-paper-data="{&quot;index&quot;:null}" fill="#003cff" stroke="#000000" stroke-width="1" stroke-linecap="round"/><path d="M12.95129,148.20992l10.27841,-40.22227l6.40082,11.80788l-10.18173,39.83889z" data-paper-data="{&quot;index&quot;:null}" fill="#003cff" stroke="#000000" stroke-width="1" stroke-linecap="round"/><path d="M20.46119,164.78272l10.05615,-40.9579l7.0409,11.42561l-10.47396,42.0758z" data-paper-data="{&quot;index&quot;:null}" fill="#003cff" stroke="#000000" stroke-width="1" stroke-linecap="round"/><path d="M28.22447,182.50678l10.764,-43.22592l7.29427,12.57683l-10.4817,45.87955z" data-paper-data="{&quot;index&quot;:null}" fill="#003cff" stroke="#000000" stroke-width="1" stroke-linecap="round"/><path d="M558.31983,118.33553c0.76787,-3.04515 3.85893,-4.89126 6.90409,-4.12339c3.04515,0.76787 4.89125,3.85893 4.12338,6.90409c-0.76787,3.04515 -3.85893,4.89126 -6.90408,4.12339c-3.04515,-0.76787 -4.89126,-3.85893 -4.12339,-6.90409z" data-paper-data="{&quot;index&quot;:null}" fill="#557067" stroke="#000000" stroke-width="1" stroke-linecap="butt"/><path d="M221.25997,110.60586l0.20502,-2.08263l2.36614,-3.45855l2.91321,-0.97285l2.85828,1.36105l1.14823,3.06416l-2.07554,8.6542z" data-paper-data="{&quot;index&quot;:null}" fill="#003cff" stroke="#000000" stroke-width="1" stroke-linecap="round"/><path d="M342.70817,158.50384c0.24933,1.13286 -0.88352,1.38219 -0.88352,1.38219l-0.46188,0.09815c-0.12852,0.03844 -0.25656,0.0784 -0.38412,0.11985c10.32475,-0.37043 21.12703,6.42542 22.62465,16.91475c-0.45121,16.12739 -23.52745,19.77591 -33.99545,10.79131c-8.98122,-11.05072 -1.0718,-26.33173 11.08397,-30.0467l0.63418,-0.14309c0,0 1.13286,-0.24933 1.38219,0.88352zM334.91526,163.46167c-6.62173,5.44112 -9.73426,15.16783 -3.64226,22.73306c8.85264,7.64873 29.61692,4.75734 30.0142,-9.04235c-1.61377,-11.01095 -15.4903,-17.38522 -25.66122,-13.72788c0,0 -0.34164,0.12123 -0.71071,0.03716z" fill="#000000" stroke="none" stroke-width="0.5" stroke-linecap="butt"/><path d="M335.58289,163.3603c10.17093,-3.65734 24.16786,2.78253 25.78164,13.79348c-0.39728,13.79968 -21.30227,16.73399 -30.15491,9.08525c-6.092,-7.56524 -2.96153,-17.39882 3.66021,-22.83994c0.36907,0.08407 0.71306,-0.0388 0.71306,-0.0388z" data-paper-data="{&quot;noHover&quot;:false,&quot;origItem&quot;:[&quot;Path&quot;,{&quot;applyMatrix&quot;:true,&quot;segments&quot;:[[[338.29931,155.61142],[0.37068,-0.07666],[-3.76687,7.6983]],[[344.41875,177.80626],[-8.68201,-4.35522],[11.2284,3.28563]],[[367.97464,157.12448],[5.36486,12.72035],[-6.03738,-9.34855]],[[338.93052,155.28269],[7.73626,-7.54812],[0,0]]],&quot;closed&quot;:true}]}" fill="#710000" stroke="none" stroke-width="0.5" stroke-linecap="butt"/><path d="M401.65219,154.13571c-0.28362,1.12475 -1.40838,0.84114 -1.40838,0.84114l-0.36501,-0.09204c-3.90709,-0.98522 -7.81262,-1.76989 -11.78235,-2.46273c-8.07177,-0.57893 -15.99745,-1.06394 -24.08261,-0.91189c-1.93595,0.03641 -8.09938,0.30927 -9.30674,-1.36152c-0.47265,-0.65408 0.53278,-1.53089 0.91694,-2.24056c1.62514,-3.00215 4.12137,-5.13142 6.74908,-7.23702c11.0312,-5.3785 24.50836,-7.58724 36.5638,-8.79252c0,0 1.15462,-0.11121 1.26583,1.04343c0.11121,1.15462 -1.04343,1.26583 -1.04343,1.26583c-11.69025,1.07662 -24.83915,3.30916 -35.54522,8.44339c-1.90395,1.54395 -3.54956,2.94519 -4.89476,4.95902c-0.46141,0.69075 -2.5812,2.08407 -1.88734,1.62736c1.59259,-1.04828 5.24958,0.01031 7.13722,-0.02689c8.19438,-0.16145 16.23051,0.33028 24.41014,0.92876c4.06604,0.70443 8.06569,1.50694 12.06669,2.51583l0.36501,0.09204c0,0 1.12475,0.28362 0.84114,1.40838z" fill="#000000" stroke="none" stroke-width="0.5" stroke-linecap="butt"/><path d="M283.96041,129.24635c0.28362,-1.12475 1.40838,-0.84114 1.40838,-0.84114l0.95077,0.24931c4.07892,0.4937 8.11438,1.13181 12.1013,2.13607c10.03253,2.53607 20.04597,6.30412 29.86696,9.62806c2.83539,0.95965 6.86347,1.61469 9.82352,3.08836c-1.24267,-1.38426 -2.55088,-2.59143 -4.04348,-3.84727c-3.9337,-4.057 -6.49965,-9.44813 -11.15781,-12.7697c-3.65247,-2.60445 -8.09569,-3.71526 -12.24932,-5.2535c-2.6582,-0.98443 -5.07264,-2.23901 -7.9433,-1.93295c0,0 -1.15462,0.11121 -1.26583,-1.04343c-0.11121,-1.15462 1.04343,-1.26583 1.04343,-1.26583c3.29216,-0.28968 5.92871,0.93981 8.97139,2.06666c5.86466,2.17197 11.86438,3.84691 16.3056,8.56346c2.91017,3.09057 4.9035,6.86461 7.87731,9.93792c2.1161,1.77571 3.89785,3.51102 5.61488,5.69405l0.00076,0.0019l0.00046,-0.00035l0.8729,1.11837c0.21766,0.27344 0.30975,0.64171 0.2177,1.00675c-0.14991,0.59447 -0.73383,0.96494 -1.32822,0.85841l-2.27715,-0.38428l0.05513,-0.32668c-4.60063,-0.60082 -8.99987,-2.59224 -13.44957,-4.05496c-9.08141,-2.98529 -18.25102,-6.50863 -27.5026,-8.83547c-3.89104,-0.98225 -7.83165,-1.6006 -11.81282,-2.08248l-1.23925,-0.30292c0,0 -1.12475,-0.28362 -0.84114,-1.40838z" fill="#000000" stroke="none" stroke-width="0.5" stroke-linecap="butt"/></g><path d="M-546.54655,598.16817v-836.33634h1733.09309v836.33634z" fill="none" stroke="#f00000" stroke-width="0" stroke-linecap="butt"/></g></g></svg>