<svg version="1.1" xmlns="http://www.w3.org/2000/svg" xmlns:xlink="http://www.w3.org/1999/xlink" width="1733.09309" height="836.33634" viewBox="0,0,1733.09309,836.33634"><g transform="translate(546.54655,238.16817)"><g data-paper-data="{&quot;isPaintingLayer&quot;:true}" fill-rule="nonzero" stroke-linejoin="miter" stroke-miterlimit="10" stroke-dasharray="" stroke-dashoffset="0" style="mix-blend-mode: normal"><path d="M139.92165,278.58959c-1.02466,-0.29044 -2.01373,-0.62846 -2.6707,-1.41057c-1.13239,-1.34808 -1.06173,-3.37345 -1.31212,-5.11613c-0.68613,-4.77519 -0.01104,-10.19869 -0.01104,-15.02183c0,-9.01287 -0.4778,-18.45055 1.14439,-27.35198c1.61853,-8.88133 5.91188,-16.85216 6.51432,-25.88505c0.6128,-9.18797 0.50156,-19.33388 -1.22627,-28.37086c-1.01741,-5.32133 -2.75426,-10.32402 -4.14006,-15.46302l-0.31095,0.15547l-1.61026,-3.22052c-0.23701,-0.45019 -0.37115,-0.96298 -0.37115,-1.50709c0,-1.78917 1.45041,-3.23958 3.23958,-3.23958c0.38474,0 0.75382,0.06708 1.09618,0.19017l4.79682,1.59894c2.16934,0.62208 4.37001,1.15584 6.59659,1.52359c15.99893,2.0218 33.15366,0.45261 49.23369,-0.14713c3.83164,-0.14291 8.17553,-0.78437 12.04989,-0.43322c2.2968,0.20817 5.31277,-0.61438 6.82647,1.12554c1.88215,2.16342 -1.01516,11.25474 -1.48768,13.24124c-2.48314,10.43929 -2.64568,20.82662 -2.64568,31.4973c0,8.56001 0.63733,17.37841 -0.00815,25.91365c-0.77422,10.23753 -0.29476,19.93958 0.54518,30.12553c0.14358,1.7412 -0.28252,3.51327 -0.02491,5.24127c1.12938,7.5757 3.94778,15.05746 4.98901,22.74528c1.09066,8.05279 0.71542,15.81719 2.67161,23.77911c0.03276,4.95999 -0.57543,10.26727 0.72063,15.11449c1.8604,6.95782 3.80669,12.20481 3.67137,19.54744c-0.04794,2.60125 1.16574,5.64155 -0.2871,7.79983c-1.07587,1.59827 -3.76211,0.89091 -5.6808,1.06581c-3.33209,0.30374 -6.69912,0.21481 -10.03771,-0.00626c-10.10211,-0.66893 -19.91108,-2.683 -30.01582,-3.27657c-6.11093,-0.35897 -12.09618,0.53903 -18.17452,0.54128c-8.24343,1.26778 -16.63784,1.39908 -24.88453,2.70318c-7.25072,1.14661 -14.28345,2.31182 -21.60796,2.76443c-9.45121,0.58402 -19.15244,0.00626 -28.61763,0.00626c-7.08401,0 -14.04265,0.56133 -21.13873,0.52493c-5.11541,-1.19029 -10.56026,-0.83396 -15.40613,-2.87705c-1.71478,-0.72297 -4.05172,-0.86793 -5.01012,-2.46312c-0.98855,-1.64537 0.05714,-3.83862 0.07079,-5.75808c0.03184,-4.47658 -0.00815,-8.95524 -0.00815,-13.43205c0,-13.74997 0.2022,-27.39134 1.68102,-41.05905c0.45663,-4.2203 -0.30863,-8.57812 0.62302,-12.71955c0.0062,-0.02755 0.01246,-0.05509 0.01877,-0.0826l-0.01428,-0.00095l0.42931,-6.43973c0.09856,-1.70055 1.50881,-3.04917 3.23407,-3.04917c1.62605,0 2.97231,1.19801 3.20426,2.75953l0.46587,2.79523c2.4797,4.29235 4.52819,11.76454 9.55701,13.80402c6.39027,2.59163 14.98771,1.40702 21.74679,1.40702c12.91356,0 25.55232,0.47479 38.39956,1.64273c4.14751,-0.00326 8.8669,-0.51927 12.96843,-0.00333c0.46691,0.05874 0.76618,0.98268 1.18481,0.76772c0.36312,-0.18647 -0.53377,-0.66957 -0.58808,-1.07414c-0.14761,-1.09962 0.08207,-2.22221 -0.00289,-3.32843c-0.19583,-2.55016 -0.26403,-5.09679 -0.38603,-7.64391z" data-paper-data="{&quot;index&quot;:null}" fill="#834e4a" stroke="none" stroke-width="0.5" stroke-linecap="butt"/><path d="M525.69935,285.59641c-0.11378,2.54751 -0.17375,5.09434 -0.36135,7.64512c-0.08138,1.10648 0.15192,2.22833 0.00786,3.32842c-0.053,0.40474 -0.94834,0.89074 -0.58462,1.07603c0.41932,0.21362 0.71561,-0.71129 1.18234,-0.77154c4.09984,-0.52918 8.82087,-0.02842 12.96837,-0.03854c12.8434,-1.2094 25.48056,-1.72501 38.39406,-1.7667c6.75904,-0.02182 15.36026,1.13502 21.74213,-1.47722c5.02221,-2.0557 7.04656,-9.53448 9.5124,-13.8348l0.45684,-2.79672c0.22691,-1.56226 1.56929,-2.76461 3.19533,-2.76986c1.72525,-0.00557 3.13985,1.3385 3.24391,3.03871l0.4501,6.43831l-0.01428,0.001c0.0064,0.02749 0.01275,0.05501 0.01903,0.08254c0.94502,4.1384 0.19384,8.49867 0.66408,12.71747c1.52294,13.66286 1.76918,27.30351 1.81358,41.05341c0.01445,4.47679 -0.01108,8.95555 0.03522,13.43201c0.01985,1.9194 1.07261,4.10926 0.08938,5.75781c-0.95324,1.59827 -3.2897,1.75078 -5.00214,2.47928c-4.83925,2.05872 -10.28523,1.71998 -15.39677,2.92678c-7.09592,0.05931 -14.05633,-0.47955 -21.1403,-0.45668c-9.46514,0.03056 -19.16445,0.63964 -28.61751,0.08614c-7.32592,-0.42896 -14.36239,-1.57146 -21.61677,-2.69465c-8.25085,-1.27747 -16.64564,-1.38167 -24.89312,-2.62283c-6.07832,0.01737 -12.06644,-0.8613 -18.17618,-0.4826c-10.10277,0.62619 -19.90519,2.67191 -30.00508,3.37346c-3.33787,0.23185 -6.70459,0.33165 -10.03765,0.03867c-1.91924,-0.1687 -4.6032,0.54732 -5.68421,-1.04746c-1.4598,-2.15358 -0.25594,-5.19777 -0.31227,-7.79886c-0.15903,-7.34214 1.77031,-12.5954 3.60824,-19.55919c1.28039,-4.85138 0.65508,-10.15666 0.67183,-15.11673c1.93047,-7.96819 1.53016,-15.73134 2.59482,-23.78761c1.0164,-7.69114 3.81063,-15.18196 4.91555,-22.76127c0.25203,-1.72883 -0.17978,-3.49951 -0.04183,-5.24116c0.80706,-10.18861 1.25518,-19.89217 0.44791,-30.12713c-0.67303,-8.53311 -0.06418,-17.35351 -0.09182,-25.91349c-0.03445,-10.67062 -0.23053,-21.05739 -2.74736,-31.48859c-0.47892,-1.98496 -3.40558,-11.06688 -1.53042,-13.23637c1.50807,-1.7448 4.52669,-0.93199 6.82281,-1.14756c3.87321,-0.36365 8.21914,0.26378 12.05123,0.39431c16.08187,0.54782 33.24159,2.06162 49.2339,-0.01183c2.22538,-0.37493 4.42432,-0.9158 6.59165,-1.54488l4.79162,-1.61442c0.34196,-0.12419 0.71082,-0.19246 1.09556,-0.1937c1.78916,-0.00578 3.24425,1.43994 3.25002,3.2291c0.00176,0.54411 -0.13073,1.05732 -0.36628,1.50827l-1.59984,3.2257l-0.31145,-0.15447c-1.3692,5.14345 -3.08989,10.15173 -4.09011,15.47631c-1.69864,9.0425 -1.77713,19.18872 -1.13467,28.37467c0.63161,9.0309 4.95066,16.98782 6.59786,25.86388c1.65092,8.89615 1.20359,18.33532 1.23269,27.34814c0.01557,4.82311 0.70817,10.24442 0.03746,15.02179c-0.24476,1.74348 -0.16756,3.76861 -1.2956,5.12034c-0.65444,0.78423 -1.64242,1.12544 -2.66613,1.41919z" data-paper-data="{&quot;index&quot;:null}" fill="#834e4a" stroke="none" stroke-width="0.5" stroke-linecap="butt"/><g><path d="M527.98515,61.1157c0.14917,-3.58791 3.17867,-6.37557 6.76658,-6.2264c3.58791,0.14917 6.37557,3.17867 6.2264,6.76658c-0.14917,3.58791 -3.17867,6.37557 -6.76658,6.2264c-3.58791,-0.14917 -6.37557,-3.17867 -6.2264,-6.76658z" data-paper-data="{&quot;index&quot;:null}" fill="none" stroke="#000000" stroke-width="0" stroke-linecap="butt"/><path d="M479.56327,128.39705l-21.67796,-5.25416l-1.51935,4.81736l11.13793,1.78213l-0.29534,10.2764l40.1866,61.35827l-222.52426,21.38374l-65.55573,-37.31786l73.25263,-61.35767l4.4661,0.44949l4.69059,-4.94933l-75.10019,1.89014l-25.56839,-10.03263l-10.32041,-1.61623l-0.59846,-4.64158l-30.24457,-27.63864l-112.60596,97.34777l-44.81314,-46.05164l48.50038,-41.05094l3.53226,-11.98851l12.27896,-0.28094l23.78792,-20.90744l48.10242,16.90526l22.64474,-12.44701l72.13215,0.49269l38.61782,-24.64378l68.19686,-0.03368l30.76724,-16.66008l74.42573,2.43474l30.86709,25.35616l79.04038,7.2433z" data-paper-data="{&quot;index&quot;:null}" fill="#5f5d68" stroke="#000000" stroke-width="1" stroke-linecap="round"/><path d="M7.90477,138.57935l41.11784,41.40404l108.94237,-95.01784l33.7042,30.33824l9.65404,-0.20148l24.26152,10.95575l67.34304,-3.00268l-74.33054,62.31934l0.76511,3.3475l64.12147,38.23425l222.12913,-21.20909l1.11539,-5.07788l-40.25176,-61.356l0.02435,-7.83607l0.4135,-2.69565l13.70411,3.88544l3.66093,-1.05349l68.86334,-70.38373l13.73751,16.19333l-48.03735,49.74302l1.99737,2.72117l24.83278,5.51724l34.6253,-35.69202l2.98067,-59.00299l29.8086,0.05214l-4.73844,66.38259l18.16242,20.0134l-12.57834,131.21827l-55.003,-0.04434l-0.02623,13.32143l-50.38468,-0.08317l-8.91754,-5.21831l-213.78348,28.47435l-24.92428,-16.00757l-0.81578,3.75838l-43.24581,-36.15949l-160.27267,15.23306l-50.10632,-66.84906z" data-paper-data="{&quot;index&quot;:null}" fill="#834e4a" stroke="#000000" stroke-width="1" stroke-linecap="round"/><path d="M1.66377,134.71688l-0.34085,-7.66473l45.80081,46.88414l112.24112,-97.29698l30.6945,27.92116l0.57656,5.1683l9.86493,0.67394l26.74255,10.34526l74.01932,-2.06697l-4.42721,4.96027l-71.64355,2.82529l-24.33949,-11.03678l-8.99246,0.54948l-33.80018,-30.95222l-109.58585,94.50545l-44.74708,-43.67461z" data-paper-data="{&quot;index&quot;:null}" fill="#cacaca" stroke="#000000" stroke-width="1" stroke-linecap="round"/><path d="M414.17793,133.66415l21.21456,-22.46539l16.7769,18.43887l-1.07503,3.64868l-5.64575,-0.63044l-1.16521,37.54481l-19.42789,0.90707l-18.877,-34.55278l0.69094,-3.92845z" data-paper-data="{&quot;index&quot;:null}" fill="#dfdde8" stroke="#000000" stroke-width="1" stroke-linecap="round"/><path d="M414.4577,133.28004l-16.39411,-2.26445l-2.32123,-4.44941l16.73988,3.466l22.67952,-22.00876l19.30921,20.98442l-2.01898,0.97132l-17.16374,-18.65281z" data-paper-data="{&quot;index&quot;:null}" fill="#cacaca" stroke="#000000" stroke-width="1" stroke-linecap="round"/><path d="M421.15294,165.77649l1.66543,-27.36723l14.39674,-0.45672l-1.55016,27.76774z" data-paper-data="{&quot;index&quot;:null}" fill="#ffa800" stroke="#000000" stroke-width="1" stroke-linecap="round"/><path d="M499.53736,139.62026l0.53738,-3.4072l0.11497,-2.76524l4.00509,-1.15256l4.19181,0.70189l2.40334,2.47424l-0.05446,4.48254l9.25033,-0.40685l-1.42914,31.20234l-30.006,1.52253l1.09981,-32.79889z" data-paper-data="{&quot;index&quot;:null}" fill="#ffa800" stroke="#000000" stroke-width="1" stroke-linecap="round"/><path d="M549.28216,177.30305l1.59856,-38.45012l2.23277,-2.94101l3.93911,-2.73816l2.99028,1.04765l2.90817,3.02283l1.3773,1.77205l-2.52061,35.24604z" data-paper-data="{&quot;index&quot;:null}" fill="#ffa800" stroke="#000000" stroke-width="1" stroke-linecap="round"/><path d="M606.98503,134.06254l2.50737,-0.02765l1.95877,0.47716l1.10847,1.89278l0.98225,1.75562l-3.14645,31.26284l-6.05722,-0.25183z" data-paper-data="{&quot;index&quot;:null}" fill="#ffa800" stroke="#000000" stroke-width="1" stroke-linecap="round"/><path d="M597.29366,231.53395l1.57149,-34.62597l8.04334,0.07059l-2.84995,33.64947z" data-paper-data="{&quot;index&quot;:null}" fill="#ffa800" stroke="#000000" stroke-width="1" stroke-linecap="round"/><path d="M517.31809,272.16666l4.23328,-55.81816l4.63583,-3.63253l9.82603,-4.73581l7.00086,-0.23656l6.80897,1.20643l5.41552,2.99517l-5.65394,59.84817z" data-paper-data="{&quot;index&quot;:null}" fill="#cac8d3" stroke="#000000" stroke-width="1" stroke-linecap="round"/><path d="M521.08325,272.02641l3.96216,-50.88294l6.99479,-6.4364l4.95422,-1.77264l5.80481,-0.02247l4.32349,0.70737l-6.25073,58.33942z" data-paper-data="{&quot;index&quot;:null}" fill="#4a1f18" stroke="#000000" stroke-width="1" stroke-linecap="round"/><path d="M435.06477,273.99024l3.41959,-44.17829l8.47611,-7.16626l18.82398,-5.41697l16.55317,1.61154l8.08194,2.3146l-3.55644,47.47024z" data-paper-data="{&quot;index&quot;:null}" fill="#361617" stroke="#000000" stroke-width="1" stroke-linecap="round"/><path d="M368.31329,285.26305l2.60761,-43.68441l3.87148,-7.45663l11.06588,-6.00334l15.37296,-4.90092l20.28397,0.7114l5.7832,3.66998l-3.87593,48.80899z" data-paper-data="{&quot;index&quot;:null}" fill="#361617" stroke="#000000" stroke-width="1" stroke-linecap="round"/><path d="M294.10669,294.21433l1.88022,-48.39733l6.02926,-5.42129l11.67919,-4.09817l17.74865,-4.93406l15.52712,0.90936l10.00238,3.7135l3.75873,4.77298l-2.11375,44.49638z" data-paper-data="{&quot;index&quot;:null}" fill="#361617" stroke="#000000" stroke-width="1" stroke-linecap="round"/><path d="M267.5355,282.91989l1.93495,-49.71411l3.5827,-0.51059l5.1905,2.06249l3.36918,4.62489l-2.12823,51.19002z" data-paper-data="{&quot;index&quot;:null}" fill="#361617" stroke="#000000" stroke-width="1" stroke-linecap="round"/><path d="M295.12553,245.9131l6.95647,-5.51465l10.33633,-4.31888l13.21135,-3.67173l-2.1636,39.34996l-29.01826,3.14647z" data-paper-data="{&quot;index&quot;:null}" fill="#cac8d3" stroke="#000000" stroke-width="1" stroke-linecap="round"/><path d="M306.03986,262.59131l0.89755,-24.76102l10.67662,-2.98567l-1.02345,27.78965z" data-paper-data="{&quot;index&quot;:null}" fill="#ba00ff" stroke="#000000" stroke-width="1" stroke-linecap="round"/><path d="M294.94457,247.09273l2.64423,-3.31963l4.48772,-3.24297l-0.73301,23.97643l-6.71561,-0.2792z" data-paper-data="{&quot;index&quot;:null}" fill="#ba00ff" stroke="#000000" stroke-width="1" stroke-linecap="round"/><path d="M400.49193,223.54975l8.58101,-0.17086l12.51491,0.3884l6.03561,3.9443l-2.68601,26.53336l-32.61737,4.05208l1.90082,-33.02941z" data-paper-data="{&quot;index&quot;:null}" fill="#cac8d3" stroke="#000000" stroke-width="1" stroke-linecap="round"/><path d="M400.76625,223.29735l4.62517,-0.20343l-1.30323,28.17373l-8.36144,1.23524l1.59396,-28.82117z" data-paper-data="{&quot;index&quot;:null}" fill="#ba00ff" stroke="#000000" stroke-width="1" stroke-linecap="round"/><path d="M420.2711,223.71255l0.52355,25.47965l-10.07873,1.29576l1.00703,-27.3946z" data-paper-data="{&quot;index&quot;:null}" fill="#ba00ff" stroke="#000000" stroke-width="1" stroke-linecap="round"/><path d="M437.80681,230.24546l2.91306,-3.44037l8.42684,-5.98115l9.42583,-1.4548l-1.85703,31.97597l-20.22893,1.13758z" data-paper-data="{&quot;index&quot;:null}" fill="#cac8d3" stroke="#000000" stroke-width="1" stroke-linecap="round"/><path d="M448.62,220.80206l2.76525,0.11496l-1.52308,23.9436l-8.62479,1.22429l0.8595,-20.67352z" data-paper-data="{&quot;index&quot;:null}" fill="#ffa800" stroke="#000000" stroke-width="1" stroke-linecap="round"/><path d="M519.0153,127.4373l0.66373,-1.68717l23.37338,5.72038l37.34769,-39.30518l-0.19132,7.7745l-33.07536,35.69051l-27.20299,-5.61578z" data-paper-data="{&quot;index&quot;:null}" fill="#cacaca" stroke="#000000" stroke-width="1" stroke-linecap="round"/><path d="M608.78948,97.006l26.355,32.35745l-4.20794,2.85889l-23.32582,-25.90002z" data-paper-data="{&quot;index&quot;:null}" fill="#cacaca" stroke="#000000" stroke-width="1" stroke-linecap="round"/><path d="M566.36955,77.46803l-13.61361,-15.20757l-65.49683,66.75851l-6.10619,4.09903l-25.0633,-6.31826l0.58118,-4.46065l22.72592,5.42965l75.86976,-75.92341l17.27381,22.35076z" data-paper-data="{&quot;index&quot;:null}" fill="#cacaca" stroke="#000000" stroke-width="1" stroke-linecap="round"/><path d="M571.58523,74.1234l10.19588,0.6877l-1.69559,18.13255l-36.98801,38.62763l-24.25655,-5.49326l48.70995,-48.75873z" data-paper-data="{&quot;index&quot;:null}" fill="#5f5d68" stroke="#000000" stroke-width="1" stroke-linecap="round"/><path d="M505.77789,206.29443l-222.59976,20.81999l-65.01404,-38.44951l0.9543,-3.91752l65.45834,37.28083l221.55728,-21.12714z" data-paper-data="{&quot;index&quot;:null}" fill="#cacaca" stroke="#000000" stroke-width="1" stroke-linecap="round"/><path d="M263.90684,215.52988l-2.73989,37.34744l-7.80765,-2.56701l2.19674,-36.97429z" data-paper-data="{&quot;index&quot;:null}" fill="#ba00ff" stroke="#000000" stroke-width="1" stroke-linecap="round"/><path d="M233.40662,197.21296l-1.57208,28.29447l-4.75166,-3.09948l1.80256,-27.49343z" data-paper-data="{&quot;index&quot;:null}" fill="#ba00ff" stroke="#000000" stroke-width="1" stroke-linecap="round"/><path d="M220.88305,222.414l-10.21647,-4.90956l0.1893,-29.9348l10.59507,5.32102z" data-paper-data="{&quot;index&quot;:null}" fill="#ba00ff" stroke="#000000" stroke-width="1" stroke-linecap="round"/><path d="M211.97218,170.2374l0.95522,-38.83962l11.63757,5.62817l-2.02918,39.28961z" data-paper-data="{&quot;index&quot;:null}" fill="#003cff" stroke="#000000" stroke-width="1" stroke-linecap="round"/><path d="M143.7349,148.24107l0.7817,-31.49306l28.76066,-0.12332l-1.18905,31.77291z" data-paper-data="{&quot;index&quot;:null}" fill="#003cff" stroke="#000000" stroke-width="1" stroke-linecap="round"/><path d="M172.40282,213.80313l-31.44896,1.33062l-0.31004,-30.61511l32.41451,-2.34573z" data-paper-data="{&quot;index&quot;:null}" fill="#003cff" stroke="#000000" stroke-width="1" stroke-linecap="round"/><path d="M99.87716,110.14351l-39.26438,33.85032l-12.07119,-7.88859l1.70316,-34.62049l3.73893,-16.95937l7.95806,27.50351z" data-paper-data="{&quot;index&quot;:null}" fill="#dfdde8" stroke="#000000" stroke-width="1" stroke-linecap="round"/><path d="M52.66372,109.92837l7.78546,-0.07205l-1.44586,28.43161l-7.18786,-4.78365l0.74943,-24.37146z" data-paper-data="{&quot;index&quot;:null}" fill="#003cff" stroke="#000000" stroke-width="1" stroke-linecap="round"/><path d="M50.21599,102.17604l-3.70342,0.24175l6.84475,-27.41572l9.75258,31.93103l44.89114,-1.03558l-3.22022,4.48284l-43.84866,1.34274l-6.91557,-27.19636z" data-paper-data="{&quot;index&quot;:null}" fill="#cacaca" stroke="#000000" stroke-width="1" stroke-linecap="round"/><path d="M8.68906,198.37888l2.18974,-36.80591l5.71751,5.25012l-0.48493,40.21842z" data-paper-data="{&quot;index&quot;:null}" fill="#003cff" stroke="#000000" stroke-width="1" stroke-linecap="round"/><path d="M17.67539,210.66798l1.85616,-41.47326l8.67521,10.25364l-1.83973,41.07822z" data-paper-data="{&quot;index&quot;:null}" fill="#003cff" stroke="#000000" stroke-width="1" stroke-linecap="round"/><path d="M28.40849,225.36005l1.48849,-42.14807l9.22384,9.74883l-1.66944,43.3277z" data-paper-data="{&quot;index&quot;:null}" fill="#003cff" stroke="#000000" stroke-width="1" stroke-linecap="round"/><path d="M39.62451,241.12747l1.71873,-44.5128l9.70675,10.82414l-0.90098,47.05303z" data-paper-data="{&quot;index&quot;:null}" fill="#003cff" stroke="#000000" stroke-width="1" stroke-linecap="round"/><path d="M545.47835,70.15691c0.13045,-3.13776 2.77986,-5.57567 5.91763,-5.44522c3.13776,0.13045 5.57566,2.77986 5.44521,5.91763c-0.13045,3.13776 -2.77986,5.57567 -5.91762,5.44522c-3.13776,-0.13045 -5.57567,-2.77986 -5.44522,-5.91763z" data-paper-data="{&quot;index&quot;:null}" fill="#557067" stroke="#000000" stroke-width="1" stroke-linecap="butt"/><path d="M213.93084,131.35611l-0.22419,-2.08065l1.61077,-3.86854l2.65346,-1.54674l3.07584,0.74928l1.74922,2.76545l-0.26627,8.89562z" data-paper-data="{&quot;index&quot;:null}" fill="#003cff" stroke="#000000" stroke-width="1" stroke-linecap="round"/><path d="M342.59668,153.46903c0.47521,1.05816 -0.58295,1.53337 -0.58295,1.53337l-0.43214,0.19032c-0.11797,0.06385 -0.23517,0.12909 -0.35159,0.1957c10.03202,-2.46908 21.99357,1.97998 25.5997,11.94315c2.84856,15.88024 -18.99796,24.15999 -31.07881,17.50002c-11.04687,-8.98596 -6.4214,-25.55923 4.72077,-31.67606l0.59165,-0.26946c0,0 1.05816,-0.47521 1.53337,0.58295zM335.97917,159.91248c-5.37237,6.67763 -6.43501,16.83477 1.0723,22.99801c10.22692,5.68176 29.96457,-1.38511 27.53811,-14.9756c-3.82626,-10.45012 -18.71139,-13.85926 -27.92223,-8.20379c0,0 -0.30972,0.18838 -0.68818,0.18138z" fill="#000000" stroke="none" stroke-width="0.5" stroke-linecap="butt"/><path d="M336.61207,159.67703c9.21084,-5.65547 24.22723,-2.20668 28.0535,8.24344c2.42646,13.59049 -17.44019,20.72807 -27.66711,15.04631c-7.50731,-6.16324 -6.44891,-16.42867 -1.07654,-23.1063c0.37846,0.007 0.69015,-0.18346 0.69015,-0.18346z" data-paper-data="{&quot;noHover&quot;:false,&quot;origItem&quot;:[&quot;Path&quot;,{&quot;applyMatrix&quot;:true,&quot;segments&quot;:[[[338.29931,155.61142],[0.37068,-0.07666],[-3.76687,7.6983]],[[344.41875,177.80626],[-8.68201,-4.35522],[11.2284,3.28563]],[[367.97464,157.12448],[5.36486,12.72035],[-6.03738,-9.34855]],[[338.93052,155.28269],[7.73626,-7.54812],[0,0]]],&quot;closed&quot;:true}]}" fill="#710000" stroke="none" stroke-width="0.5" stroke-linecap="butt"/><path d="M399.40976,137.16713c-0.04818,1.15896 -1.20715,1.11078 -1.20715,1.11078l-0.37611,-0.01564c-4.02592,-0.16738 -8.00939,-0.13875 -12.03697,-0.00712c-8.02011,1.08003 -15.87804,2.22221 -23.76212,4.02058c-1.8878,0.43061 -7.86593,1.95518 -9.38877,0.56586c-0.59615,-0.54389 0.20924,-1.60739 0.44054,-2.38051c0.97847,-3.27056 2.98778,-5.86432 5.13064,-8.46174c9.70187,-7.51594 22.44494,-12.42781 34.00093,-16.06726c0,0 1.10765,-0.34443 1.45208,0.76323c0.34443,1.10765 -0.76323,1.45208 -0.76323,1.45208c-11.22472,3.439 -23.64158,8.30719 -33.075,15.51767c-1.54891,1.89992 -2.87403,3.60742 -3.78008,5.85334c-0.31078,0.77036 -2.10172,2.56685 -1.51563,1.97818c1.34522,-1.35115 5.14127,-1.06092 6.98162,-1.48245c7.98909,-1.82986 15.95652,-2.98798 24.08621,-4.07088c4.12424,-0.13993 8.20349,-0.1703 12.32617,0.00109l0.37611,0.01564c0,0 1.15896,0.04818 1.11078,1.20715z" fill="#000000" stroke="none" stroke-width="0.5" stroke-linecap="butt"/><path d="M279.1155,136.81252c0.04818,-1.15896 1.20715,-1.11078 1.20715,-1.11078l0.98164,0.05009c4.09385,-0.34886 8.17462,-0.54747 12.28257,-0.37774c10.33892,0.43591 20.9105,2.08179 31.20307,3.33216c2.97154,0.36099 7.04854,0.18046 10.24698,1.01923c-1.49895,-1.10162 -3.02593,-2.0165 -4.74335,-2.94141c-4.67866,-3.16912 -8.29053,-7.92336 -13.52838,-10.22472c-4.107,-1.8045 -8.68339,-1.98545 -13.06349,-2.64392c-2.80313,-0.4214 -5.42275,-1.15701 -8.17059,-0.27172c0,0 -1.10765,0.34443 -1.45208,-0.76323c-0.34443,-1.10765 0.76323,-1.45208 0.76323,-1.45208c3.16382,-0.95525 5.99575,-0.28952 9.20433,0.19287c6.18443,0.92979 12.39968,1.34545 17.70975,5.05671c3.47949,2.43184 6.20087,5.71983 9.73914,8.12178c2.43387,1.30664 4.53218,2.64194 6.65847,4.42875l0.00113,0.00171l0.00038,-0.00044l1.08271,0.91676c0.26887,0.22328 0.43416,0.56502 0.41852,0.94116c-0.02547,0.61255 -0.52153,1.09436 -1.12515,1.11134l-2.30766,0.08838l-0.01268,-0.33106c-4.62644,0.35043 -9.33944,-0.70158 -13.99397,-1.22572c-9.49945,-1.06973 -19.19503,-2.6482 -28.72674,-3.03861c-4.0096,-0.16775 -7.99348,0.03086 -11.98923,0.37135l-1.27499,-0.04372c0,0 -1.15896,-0.04818 -1.11078,-1.20715z" fill="#000000" stroke="none" stroke-width="0.5" stroke-linecap="butt"/></g><path d="M-546.54655,598.16817v-836.33634h1733.09309v836.33634z" fill="none" stroke="#f00000" stroke-width="0" stroke-linecap="butt"/></g></g></svg>