<svg version="1.1" xmlns="http://www.w3.org/2000/svg" xmlns:xlink="http://www.w3.org/1999/xlink" width="1733.09309" height="836.33634" viewBox="0,0,1733.09309,836.33634"><g transform="translate(546.54655,238.16817)"><g data-paper-data="{&quot;isPaintingLayer&quot;:true}" fill-rule="nonzero" stroke-linejoin="miter" stroke-miterlimit="10" stroke-dasharray="" stroke-dashoffset="0" style="mix-blend-mode: normal"><path d="M139.92165,278.58959c-1.02466,-0.29044 -2.01373,-0.62846 -2.6707,-1.41057c-1.13239,-1.34808 -1.06173,-3.37345 -1.31212,-5.11613c-0.68613,-4.77519 -0.01104,-10.19869 -0.01104,-15.02183c0,-9.01287 -0.4778,-18.45055 1.14439,-27.35198c1.61853,-8.88133 5.91188,-16.85216 6.51432,-25.88505c0.6128,-9.18797 0.50156,-19.33388 -1.22627,-28.37086c-1.01741,-5.32133 -2.75426,-10.32402 -4.14006,-15.46302l-0.31095,0.15547l-1.61026,-3.22052c-0.23701,-0.45019 -0.37115,-0.96298 -0.37115,-1.50709c0,-1.78917 1.45041,-3.23958 3.23958,-3.23958c0.38474,0 0.75382,0.06708 1.09618,0.19017l4.79682,1.59894c2.16934,0.62208 4.37001,1.15584 6.59659,1.52359c15.99893,2.0218 33.15366,0.45261 49.23369,-0.14713c3.83164,-0.14291 8.17553,-0.78437 12.04989,-0.43322c2.2968,0.20817 5.31277,-0.61438 6.82647,1.12554c1.88215,2.16342 -1.01516,11.25474 -1.48768,13.24124c-2.48314,10.43929 -2.64568,20.82662 -2.64568,31.4973c0,8.56001 0.63733,17.37841 -0.00815,25.91365c-0.77422,10.23753 -0.29476,19.93958 0.54518,30.12553c0.14358,1.7412 -0.28252,3.51327 -0.02491,5.24127c1.12938,7.5757 3.94778,15.05746 4.98901,22.74528c1.09066,8.05279 0.71542,15.81719 2.67161,23.77911c0.03276,4.95999 -0.57543,10.26727 0.72063,15.11449c1.8604,6.95782 3.80669,12.20481 3.67137,19.54744c-0.04794,2.60125 1.16574,5.64155 -0.2871,7.79983c-1.07587,1.59827 -3.76211,0.89091 -5.6808,1.06581c-3.33209,0.30374 -6.69912,0.21481 -10.03771,-0.00626c-10.10211,-0.66893 -19.91108,-2.683 -30.01582,-3.27657c-6.11093,-0.35897 -12.09618,0.53903 -18.17452,0.54128c-8.24343,1.26778 -16.63784,1.39908 -24.88453,2.70318c-7.25072,1.14661 -14.28345,2.31182 -21.60796,2.76443c-9.45121,0.58402 -19.15244,0.00626 -28.61763,0.00626c-7.08401,0 -14.04265,0.56133 -21.13873,0.52493c-5.11541,-1.19029 -10.56026,-0.83396 -15.40613,-2.87705c-1.71478,-0.72297 -4.05172,-0.86793 -5.01012,-2.46312c-0.98855,-1.64537 0.05714,-3.83862 0.07079,-5.75808c0.03184,-4.47658 -0.00815,-8.95524 -0.00815,-13.43205c0,-13.74997 0.2022,-27.39134 1.68102,-41.05905c0.45663,-4.2203 -0.30863,-8.57812 0.62302,-12.71955c0.0062,-0.02755 0.01246,-0.05509 0.01877,-0.0826l-0.01428,-0.00095l0.42931,-6.43973c0.09856,-1.70055 1.50881,-3.04917 3.23407,-3.04917c1.62605,0 2.97231,1.19801 3.20426,2.75953l0.46587,2.79523c2.4797,4.29235 4.52819,11.76454 9.55701,13.80402c6.39027,2.59163 14.98771,1.40702 21.74679,1.40702c12.91356,0 25.55232,0.47479 38.39956,1.64273c4.14751,-0.00326 8.8669,-0.51927 12.96843,-0.00333c0.46691,0.05874 0.76618,0.98268 1.18481,0.76772c0.36312,-0.18647 -0.53377,-0.66957 -0.58808,-1.07414c-0.14761,-1.09962 0.08207,-2.22221 -0.00289,-3.32843c-0.19583,-2.55016 -0.26403,-5.09679 -0.38603,-7.64391z" data-paper-data="{&quot;index&quot;:null}" fill="#834e4a" stroke="none" stroke-width="0.5" stroke-linecap="butt"/><path d="M525.69935,285.59641c-0.11378,2.54751 -0.17375,5.09434 -0.36135,7.64512c-0.08138,1.10648 0.15192,2.22833 0.00786,3.32842c-0.053,0.40474 -0.94834,0.89074 -0.58462,1.07603c0.41932,0.21362 0.71561,-0.71129 1.18234,-0.77154c4.09984,-0.52918 8.82087,-0.02842 12.96837,-0.03854c12.8434,-1.2094 25.48056,-1.72501 38.39406,-1.7667c6.75904,-0.02182 15.36026,1.13502 21.74213,-1.47722c5.02221,-2.0557 7.04656,-9.53448 9.5124,-13.8348l0.45684,-2.79672c0.22691,-1.56226 1.56929,-2.76461 3.19533,-2.76986c1.72525,-0.00557 3.13985,1.3385 3.24391,3.03871l0.4501,6.43831l-0.01428,0.001c0.0064,0.02749 0.01275,0.05501 0.01903,0.08254c0.94502,4.1384 0.19384,8.49867 0.66408,12.71747c1.52294,13.66286 1.76918,27.30351 1.81358,41.05341c0.01445,4.47679 -0.01108,8.95555 0.03522,13.43201c0.01985,1.9194 1.07261,4.10926 0.08938,5.75781c-0.95324,1.59827 -3.2897,1.75078 -5.00214,2.47928c-4.83925,2.05872 -10.28523,1.71998 -15.39677,2.92678c-7.09592,0.05931 -14.05633,-0.47955 -21.1403,-0.45668c-9.46514,0.03056 -19.16445,0.63964 -28.61751,0.08614c-7.32592,-0.42896 -14.36239,-1.57146 -21.61677,-2.69465c-8.25085,-1.27747 -16.64564,-1.38167 -24.89312,-2.62283c-6.07832,0.01737 -12.06644,-0.8613 -18.17618,-0.4826c-10.10277,0.62619 -19.90519,2.67191 -30.00508,3.37346c-3.33787,0.23185 -6.70459,0.33165 -10.03765,0.03867c-1.91924,-0.1687 -4.6032,0.54732 -5.68421,-1.04746c-1.4598,-2.15358 -0.25594,-5.19777 -0.31227,-7.79886c-0.15903,-7.34214 1.77031,-12.5954 3.60824,-19.55919c1.28039,-4.85138 0.65508,-10.15666 0.67183,-15.11673c1.93047,-7.96819 1.53016,-15.73134 2.59482,-23.78761c1.0164,-7.69114 3.81063,-15.18196 4.91555,-22.76127c0.25203,-1.72883 -0.17978,-3.49951 -0.04183,-5.24116c0.80706,-10.18861 1.25518,-19.89217 0.44791,-30.12713c-0.67303,-8.53311 -0.06418,-17.35351 -0.09182,-25.91349c-0.03445,-10.67062 -0.23053,-21.05739 -2.74736,-31.48859c-0.47892,-1.98496 -3.40558,-11.06688 -1.53042,-13.23637c1.50807,-1.7448 4.52669,-0.93199 6.82281,-1.14756c3.87321,-0.36365 8.21914,0.26378 12.05123,0.39431c16.08187,0.54782 33.24159,2.06162 49.2339,-0.01183c2.22538,-0.37493 4.42432,-0.9158 6.59165,-1.54488l4.79162,-1.61442c0.34196,-0.12419 0.71082,-0.19246 1.09556,-0.1937c1.78916,-0.00578 3.24425,1.43994 3.25002,3.2291c0.00176,0.54411 -0.13073,1.05732 -0.36628,1.50827l-1.59984,3.2257l-0.31145,-0.15447c-1.3692,5.14345 -3.08989,10.15173 -4.09011,15.47631c-1.69864,9.0425 -1.77713,19.18872 -1.13467,28.37467c0.63161,9.0309 4.95066,16.98782 6.59786,25.86388c1.65092,8.89615 1.20359,18.33532 1.23269,27.34814c0.01557,4.82311 0.70817,10.24442 0.03746,15.02179c-0.24476,1.74348 -0.16756,3.76861 -1.2956,5.12034c-0.65444,0.78423 -1.64242,1.12544 -2.66613,1.41919z" data-paper-data="{&quot;index&quot;:null}" fill="#834e4a" stroke="none" stroke-width="0.5" stroke-linecap="butt"/><g><path d="M503.77931,16.89059c-0.64603,-3.53242 1.69385,-6.91973 5.22627,-7.56576c3.53242,-0.64603 6.91973,1.69385 7.56576,5.22627c0.64603,3.53242 -1.69385,6.91973 -5.22627,7.56576c-3.53242,0.64603 -6.91973,-1.69385 -7.56576,-5.22627z" data-paper-data="{&quot;index&quot;:null}" fill="none" stroke="#000000" stroke-width="0" stroke-linecap="butt"/><path d="M471.39327,93.19657l-22.30298,-0.34237l-0.41917,5.03385l11.25667,-0.7189l1.979,10.08837l52.73266,50.98104l-212.32436,69.94766l-72.17324,-21.93628l57.91183,-76.00612l4.45523,-0.54684l3.48316,-5.86217l-72.83292,18.41132l-27.15173,-4.14484l-10.42269,0.70036l-1.60769,-4.3952l-35.59674,-20.28548l-88.35587,119.7912l-53.86844,-35.03088l38.24926,-50.73914l0.80047,-12.47239l11.91446,-2.98286l18.58948,-25.64015l50.64674,5.87695l19.34091,-17.13597l70.46368,-15.43242l32.22974,-32.55604l66.50923,-15.07766l26.33385,-23.03713l73.12918,-14.0442l35.70039,17.9219l78.69095,-10.37214z" data-paper-data="{&quot;index&quot;:null}" fill="#5f5d68" stroke="#000000" stroke-width="1" stroke-linecap="round"/><path d="M13.6016,207.17992l49.23888,31.313l85.29654,-116.71045l39.56669,22.15534l9.37174,-2.32628l26.08071,5.33353l65.02145,-17.78515l-58.75103,77.1819l1.48475,3.09624l70.97648,23.1465l211.9775,-69.69014l-0.03231,-5.19884l-52.79571,-50.96445l-1.70495,-7.64838l-0.19137,-2.72046l14.22364,0.76647l3.33832,-1.83517l51.63946,-83.84149l16.97144,12.76375l-35.88009,59.11492l2.54847,2.21349l25.43811,-0.09702l25.89825,-42.45129l-10.10933,-58.20686l29.08569,-6.52518l10.02287,65.79243l22.13007,15.51353l16.67944,130.76026l-53.65764,12.09089l2.91324,12.99901l-49.16167,11.03417l-9.84904,-3.12246l-202.23469,74.93528l-27.84161,-10.11467l0.03345,3.84575l-50.15743,-25.72821l-152.9634,50.21528l-63.6193,-54.14818z" data-paper-data="{&quot;index&quot;:null}" fill="#834e4a" stroke="#000000" stroke-width="1" stroke-linecap="round"/><path d="M6.66226,204.78943l-2.02336,-7.40069l55.01543,35.62498l88.01122,-119.66117l36.09791,20.46178l1.70253,4.91377l9.77056,-1.51895l28.36593,4.19074l71.73967,-18.34534l-3.22386,5.81474l-69.25514,18.56086l-26.17463,-5.39536l-8.64969,2.51976l-39.79575,-22.73302l-86.03721,116.35264l-53.27961,-32.72698z" data-paper-data="{&quot;index&quot;:null}" fill="#cacaca" stroke="#000000" stroke-width="1" stroke-linecap="round"/><path d="M408.78083,112.75847l15.73583,-26.59201l20.43133,14.28345l-0.24361,3.79595l-5.64573,0.63059l7.14621,36.87685l-18.74913,5.17068l-26.03456,-29.53705l-0.19273,-3.98409z" data-paper-data="{&quot;index&quot;:null}" fill="#dfdde8" stroke="#000000" stroke-width="1" stroke-linecap="round"/><path d="M408.96897,112.32211l-16.48976,1.40802l-3.24562,-3.8277l17.09208,-0.31236l17.26543,-26.46981l23.46282,16.20764l-1.75496,1.39279l-20.85584,-14.40678z" data-paper-data="{&quot;index&quot;:null}" fill="#cacaca" stroke="#000000" stroke-width="1" stroke-linecap="round"/><path d="M422.66825,142.54089l-4.41305,-27.06038l13.94128,-3.62151l4.61383,27.42559z" data-paper-data="{&quot;index&quot;:null}" fill="#ffa800" stroke="#000000" stroke-width="1" stroke-linecap="round"/><path d="M493.35118,99.73681l-0.22752,-3.44181l-0.4979,-2.72247l3.65215,-2.00772l4.24338,-0.24015l2.88997,1.88308l0.93577,4.38411l8.93267,-2.43753l5.48957,30.74887l-28.93084,8.1046l-6.163,-32.23343z" data-paper-data="{&quot;index&quot;:null}" fill="#ffa800" stroke="#000000" stroke-width="1" stroke-linecap="round"/><path d="M550.18354,125.51706l-6.92325,-37.85546l1.52895,-3.36112l3.238,-3.5397l3.14773,0.36216l3.50338,2.30679l1.7343,1.42455l5.31707,34.93373z" data-paper-data="{&quot;index&quot;:null}" fill="#ffa800" stroke="#000000" stroke-width="1" stroke-linecap="round"/><path d="M596.92552,70.61214l2.43949,-0.58012l2.01578,0.03328l1.49872,1.60161l1.34535,1.49567l3.82792,31.18673l-5.96354,1.09065z" data-paper-data="{&quot;index&quot;:null}" fill="#ffa800" stroke="#000000" stroke-width="1" stroke-linecap="round"/><path d="M608.97595,167.82009l-6.10601,-34.11955l7.86074,-1.70558l4.64363,33.44915z" data-paper-data="{&quot;index&quot;:null}" fill="#ffa800" stroke="#000000" stroke-width="1" stroke-linecap="round"/><path d="M539.93471,225.09501l-8.18498,-55.37683l3.72025,-4.56574l8.53918,-6.78684l6.77619,-1.77518l6.90736,-0.32541l5.94286,1.72667l7.68838,59.62096z" data-paper-data="{&quot;index&quot;:null}" fill="#cac8d3" stroke="#000000" stroke-width="1" stroke-linecap="round"/><path d="M543.57617,224.12759l-7.36067,-50.50339l5.40253,-7.82093l4.4411,-2.82191l5.65684,-1.30251l4.37302,-0.26386l6.77345,58.28104z" data-paper-data="{&quot;index&quot;:null}" fill="#4a1f18" stroke="#000000" stroke-width="1" stroke-linecap="round"/><path d="M460.11021,245.01945l-6.41077,-43.84423l6.68634,-8.8596l17.16517,-9.43624l16.50086,-2.07994l8.39344,0.47463l7.00352,47.08527z" data-paper-data="{&quot;index&quot;:null}" fill="#361617" stroke="#000000" stroke-width="1" stroke-linecap="round"/><path d="M397.49021,270.74047l-7.09379,-43.18339l2.1311,-8.127l9.46886,-8.29666l13.91302,-8.17158l19.94116,-3.78094l6.45035,2.30374l6.98725,48.46152z" data-paper-data="{&quot;index&quot;:null}" fill="#361617" stroke="#000000" stroke-width="1" stroke-linecap="round"/><path d="M327.08661,295.84183l-8.84297,-47.61973l4.68473,-6.61783l10.48735,-6.57373l16.22287,-8.728l15.34518,-2.53846l10.57518,1.4154l4.71909,3.82618l7.75461,43.86641z" data-paper-data="{&quot;index&quot;:null}" fill="#361617" stroke="#000000" stroke-width="1" stroke-linecap="round"/><path d="M298.67842,290.68749l-9.08008,-48.91614l3.38179,-1.28838l5.51762,0.86661l4.30646,3.76767l9.21716,50.39833z" data-paper-data="{&quot;index&quot;:null}" fill="#361617" stroke="#000000" stroke-width="1" stroke-linecap="round"/><path d="M317.42468,248.50586l5.5685,-6.91344l9.12889,-6.49276l12.07584,-6.49581l6.57064,38.85778l-27.60918,9.47063z" data-paper-data="{&quot;index&quot;:null}" fill="#cac8d3" stroke="#000000" stroke-width="1" stroke-linecap="round"/><path d="M331.74946,262.36537l-4.58706,-24.34898l9.75491,-5.26746l5.1324,27.33076z" data-paper-data="{&quot;index&quot;:null}" fill="#ba00ff" stroke="#000000" stroke-width="1" stroke-linecap="round"/><path d="M317.50841,249.69635l1.84674,-3.82118l3.66173,-4.1531l4.57446,23.54742l-6.61175,1.2092z" data-paper-data="{&quot;index&quot;:null}" fill="#ba00ff" stroke="#000000" stroke-width="1" stroke-linecap="round"/><path d="M415.26156,203.44876l8.3319,-2.05969l12.29226,-2.38207l6.75705,2.51562l3.23365,26.4722l-30.91983,11.14792l-5.43258,-32.63498z" data-paper-data="{&quot;index&quot;:null}" fill="#cac8d3" stroke="#000000" stroke-width="1" stroke-linecap="round"/><path d="M415.47344,203.14206l4.46634,-1.21877l4.94425,27.7671l-7.88293,3.04941l-4.80351,-28.46273z" data-paper-data="{&quot;index&quot;:null}" fill="#ba00ff" stroke="#000000" stroke-width="1" stroke-linecap="round"/><path d="M434.58933,199.24409l6.13168,24.73639l-9.54456,3.48729l-5.06126,-26.94182z" data-paper-data="{&quot;index&quot;:null}" fill="#ba00ff" stroke="#000000" stroke-width="1" stroke-linecap="round"/><path d="M453.13422,201.74752l2.08232,-3.99825l6.89973,-7.69282l8.87266,-3.49838l5.2429,31.59784l-19.47958,5.57223z" data-paper-data="{&quot;index&quot;:null}" fill="#cac8d3" stroke="#000000" stroke-width="1" stroke-linecap="round"/><path d="M461.59771,190.1513l2.72248,-0.49791l3.79661,23.68969l-8.14221,3.09683l-3.72243,-20.35379z" data-paper-data="{&quot;index&quot;:null}" fill="#ffa800" stroke="#000000" stroke-width="1" stroke-linecap="round"/><path d="M509.66157,83.55701l0.27517,-1.79203l24.05948,0.42308l27.75647,-46.57602l1.52851,7.62516l-24.38683,42.10789l-27.77166,0.52379z" data-paper-data="{&quot;index&quot;:null}" fill="#cacaca" stroke="#000000" stroke-width="1" stroke-linecap="round"/><path d="M590.51052,34.07051l32.84401,25.7461l-3.47357,3.71676l-28.4649,-20.11603z" data-paper-data="{&quot;index&quot;:null}" fill="#cacaca" stroke="#000000" stroke-width="1" stroke-linecap="round"/><path d="M544.82547,24.37211l-16.63312,-11.82961l-49.15565,79.56291l-5.05147,5.34512l-25.83966,-0.63341l-0.4172,-4.47896l23.36384,0.28234l57.25116,-90.79036l21.77899,17.98934z" data-paper-data="{&quot;index&quot;:null}" fill="#cacaca" stroke="#000000" stroke-width="1" stroke-linecap="round"/><path d="M549.1748,19.95926l10.09639,-1.57854l2.34638,18.05987l-27.55513,45.83581l-24.87079,-0.00672l36.75326,-58.30327z" data-paper-data="{&quot;index&quot;:null}" fill="#5f5d68" stroke="#000000" stroke-width="1" stroke-linecap="round"/><path d="M514.14686,163.39158l-212.52237,69.41445l-71.89454,-23.15955l0.06655,-4.03153l72.07008,21.92165l211.43782,-69.48406z" data-paper-data="{&quot;index&quot;:null}" fill="#cacaca" stroke="#000000" stroke-width="1" stroke-linecap="round"/><path d="M280.27234,225.75832l5.56678,37.03173l-8.18159,-0.78133l-6.01423,-36.54795z" data-paper-data="{&quot;index&quot;:null}" fill="#ba00ff" stroke="#000000" stroke-width="1" stroke-linecap="round"/><path d="M246.4827,214.6213l4.70866,27.94418l-5.31836,-1.97486l-4.30714,-27.21372z" data-paper-data="{&quot;index&quot;:null}" fill="#ba00ff" stroke="#000000" stroke-width="1" stroke-linecap="round"/><path d="M239.82725,241.96425l-11.04785,-2.53476l-6.41924,-29.23904l11.5079,2.85256z" data-paper-data="{&quot;index&quot;:null}" fill="#ba00ff" stroke="#000000" stroke-width="1" stroke-linecap="round"/><path d="M219.62532,193.03897l-7.63667,-38.09344l12.59247,2.92216l6.68844,38.76926z" data-paper-data="{&quot;index&quot;:null}" fill="#003cff" stroke="#000000" stroke-width="1" stroke-linecap="round"/><path d="M148.21666,186.63831l-6.1852,-30.8896l28.02486,-6.46513l5.84962,31.25242z" data-paper-data="{&quot;index&quot;:null}" fill="#003cff" stroke="#000000" stroke-width="1" stroke-linecap="round"/><path d="M190.64182,244.26069l-30.38059,8.23575l-7.05636,-29.79243l31.09841,-9.43886z" data-paper-data="{&quot;index&quot;:null}" fill="#003cff" stroke="#000000" stroke-width="1" stroke-linecap="round"/><path d="M97.03482,159.15477l-30.82933,41.67839l-13.51408,-5.03123l-5.97638,-34.14326l-0.09457,-17.36637l13.8295,25.07027z" data-paper-data="{&quot;index&quot;:null}" fill="#dfdde8" stroke="#000000" stroke-width="1" stroke-linecap="round"/><path d="M50.93714,169.36062l7.57775,-1.78781l4.86202,28.05009l-8.06608,-3.08009l-4.64559,-23.93634z" data-paper-data="{&quot;index&quot;:null}" fill="#003cff" stroke="#000000" stroke-width="1" stroke-linecap="round"/><path d="M46.83949,162.33928l-3.55884,1.0528l0.62797,-28.25027l16.55656,28.99282l43.55667,-10.91344l-2.15193,5.0828l-42.47212,10.98305l-12.74494,-25.00067z" data-paper-data="{&quot;index&quot;:null}" fill="#cacaca" stroke="#000000" stroke-width="1" stroke-linecap="round"/><path d="M27.55885,265.33311l-5.98391,-36.38218l6.73487,3.85944l8.39955,39.33451z" data-paper-data="{&quot;index&quot;:null}" fill="#003cff" stroke="#000000" stroke-width="1" stroke-linecap="round"/><path d="M39.03486,275.33698l-7.33893,-40.86094l10.72352,8.08719l7.2678,40.47201z" data-paper-data="{&quot;index&quot;:null}" fill="#003cff" stroke="#000000" stroke-width="1" stroke-linecap="round"/><path d="M52.74472,287.29926l-7.84641,-41.43802l11.14726,7.47378l7.93015,42.6285z" data-paper-data="{&quot;index&quot;:null}" fill="#003cff" stroke="#000000" stroke-width="1" stroke-linecap="round"/><path d="M67.16283,300.20386l-8.14352,-43.79528l11.8555,8.41607l9.50152,46.09252z" data-paper-data="{&quot;index&quot;:null}" fill="#003cff" stroke="#000000" stroke-width="1" stroke-linecap="round"/><path d="M522.83609,21.8499c-0.56498,-3.08923 1.48133,-6.05156 4.57057,-6.61654c3.08923,-0.56498 6.05155,1.48133 6.61653,4.57057c0.56498,3.08923 -1.48133,6.05156 -4.57056,6.61654c-3.08923,0.56498 -6.05156,-1.48133 -6.61654,-4.57057z" data-paper-data="{&quot;index&quot;:null}" fill="#557067" stroke="#000000" stroke-width="1" stroke-linecap="butt"/><path d="M212.95817,154.68352l-0.67768,-1.97993l0.71765,-4.12858l2.24686,-2.09401l3.16536,0.05226l2.3162,2.31142l1.70274,8.73519z" data-paper-data="{&quot;index&quot;:null}" fill="#003cff" stroke="#000000" stroke-width="1" stroke-linecap="round"/><path d="M343.3323,147.86684c0.69694,0.92725 -0.23031,1.62419 -0.23031,1.62419l-0.37951,0.28097c-0.10098,0.0883 -0.2009,0.17779 -0.29976,0.26844c9.24015,-4.6214 21.8885,-2.92077 27.60375,6.00139c6.28169,14.86057 -13.2,27.75586 -26.45245,23.92511c-12.75708,-6.32753 -11.90178,-23.5129 -2.38355,-31.93708l0.51763,-0.39334c0,0 0.92725,-0.69694 1.62419,0.23031zM338.29931,155.61142c-3.76687,7.6983 -2.56257,17.83962 6.11944,22.19484c11.2284,3.28563 28.92075,-7.96143 23.55589,-20.68178c-6.03738,-9.34855 -21.30786,-9.38991 -29.04412,-1.84179c0,0 -0.26053,0.25207 -0.63121,0.32873z" fill="#000000" stroke="none" stroke-width="0.5" stroke-linecap="butt"/><path d="M338.86467,155.24215c7.73626,-7.54812 23.14352,-7.49705 29.1809,1.8515c5.36486,12.72035 -12.43771,24.06484 -23.66611,20.77921c-8.68201,-4.35522 -9.91433,-14.60122 -6.14746,-22.29952c0.37068,-0.07666 0.63267,-0.33119 0.63267,-0.33119z" data-paper-data="{&quot;noHover&quot;:false,&quot;origItem&quot;:[&quot;Path&quot;,{&quot;applyMatrix&quot;:true,&quot;segments&quot;:[[[338.29931,155.61142],[0.37068,-0.07666],[-3.76687,7.6983]],[[344.41875,177.80626],[-8.68201,-4.35522],[11.2284,3.28563]],[[367.97464,157.12448],[5.36486,12.72035],[-6.03738,-9.34855]],[[338.93052,155.28269],[7.73626,-7.54812],[0,0]]],&quot;closed&quot;:true}]}" fill="#710000" stroke="none" stroke-width="0.5" stroke-linecap="butt"/><path d="M395.1493,119.43313c0.20868,1.14104 -0.93236,1.34972 -0.93236,1.34972l-0.37029,0.06772c-3.96366,0.7249 -7.84267,1.63161 -11.74198,2.64851c-7.58425,2.82273 -14.99661,5.67029 -22.2897,9.16365c-1.74629,0.83647 -7.2408,3.6423 -9.03262,2.62316c-0.70145,-0.39897 -0.15052,-1.61395 -0.09548,-2.41905c0.23285,-3.40584 1.62045,-6.37897 3.1375,-9.38513c7.80476,-9.47108 19.15027,-17.07317 29.61865,-23.1723c0,0 1.00438,-0.5803 1.58468,0.42408c0.5803,1.00438 -0.42408,1.58468 -0.42408,1.58468c-10.1895,5.83054 -21.22647,13.31806 -28.83678,22.43198c-1.09161,2.19481 -2.00739,4.15258 -2.39565,6.54305c-0.13318,0.81994 -1.48367,2.96727 -1.04189,2.2638c1.014,-1.61463 4.78055,-2.16899 6.48257,-2.98613c7.38857,-3.54724 14.90422,-6.43451 22.59471,-9.28421c3.99176,-1.04633 7.96381,-1.97587 12.02272,-2.71819l0.37029,-0.06772c0,0 1.14104,-0.20868 1.34972,0.93236z" fill="#000000" stroke="none" stroke-width="0.5" stroke-linecap="butt"/><path d="M277.74057,145.62521c-0.20868,-1.14104 0.93236,-1.34972 0.93236,-1.34972l0.96851,-0.1677c3.91603,-1.2434 7.85244,-2.33737 11.89663,-3.07807c10.18036,-1.85568 20.85458,-2.58254 31.16941,-3.6336c2.97797,-0.30345 6.91469,-1.37895 10.21937,-1.26645c-1.70505,-0.7438 -3.39624,-1.29927 -5.27539,-1.82252c-5.26252,-2.05889 -9.83423,-5.89919 -15.45073,-6.98833c-4.4039,-0.854 -8.90746,-0.0209 -13.32491,0.30314c-2.82703,0.20738 -5.54439,0.0678 -8.02923,1.53748c0,0 -1.00438,0.5803 -1.58468,-0.42408c-0.5803,-1.00438 0.42408,-1.58468 0.42408,-1.58468c2.87514,-1.62968 5.78416,-1.6051 9.02011,-1.84244c6.23718,-0.45746 12.391,-1.42317 18.38898,1.0252c3.93025,1.60432 7.30994,4.21094 11.29093,5.77314c2.66216,0.73752 5.00335,1.57701 7.47144,2.85072l0.00148,0.00142l0.00027,-0.00051l1.25828,0.65532c0.3115,0.15846 0.54811,0.45532 0.61584,0.82564c0.11029,0.60308 -0.26726,1.18245 -0.85226,1.33218l-2.23131,0.59529l-0.0854,-0.32011c-4.43515,1.36243 -9.26411,1.37607 -13.9196,1.89167c-9.5014,1.05229 -19.30633,1.65163 -28.68933,3.37362c-3.94782,0.72093 -7.78973,1.79353 -11.61192,3.00713l-1.25322,0.23863c0,0 -1.14104,0.20868 -1.34972,-0.93236z" fill="#000000" stroke="none" stroke-width="0.5" stroke-linecap="butt"/></g><path d="M-546.54655,598.16817v-836.33634h1733.09309v836.33634z" fill="none" stroke="#f00000" stroke-width="0" stroke-linecap="butt"/></g></g></svg>