<svg version="1.1" xmlns="http://www.w3.org/2000/svg" xmlns:xlink="http://www.w3.org/1999/xlink" width="1733.09309" height="836.33634" viewBox="0,0,1733.09309,836.33634"><g transform="translate(546.54655,238.16817)"><g data-paper-data="{&quot;isPaintingLayer&quot;:true}" fill-rule="nonzero" stroke-linejoin="miter" stroke-miterlimit="10" stroke-dasharray="" stroke-dashoffset="0" style="mix-blend-mode: normal"><path d="M139.92165,278.58959c-1.02466,-0.29044 -2.01373,-0.62846 -2.6707,-1.41057c-1.13239,-1.34808 -1.06173,-3.37345 -1.31212,-5.11613c-0.68613,-4.77519 -0.01104,-10.19869 -0.01104,-15.02183c0,-9.01287 -0.4778,-18.45055 1.14439,-27.35198c1.61853,-8.88133 5.91188,-16.85216 6.51432,-25.88505c0.6128,-9.18797 0.50156,-19.33388 -1.22627,-28.37086c-1.01741,-5.32133 -2.75426,-10.32402 -4.14006,-15.46302l-0.31095,0.15547l-1.61026,-3.22052c-0.23701,-0.45019 -0.37115,-0.96298 -0.37115,-1.50709c0,-1.78917 1.45041,-3.23958 3.23958,-3.23958c0.38474,0 0.75382,0.06708 1.09618,0.19017l4.79682,1.59894c2.16934,0.62208 4.37001,1.15584 6.59659,1.52359c15.99893,2.0218 33.15366,0.45261 49.23369,-0.14713c3.83164,-0.14291 8.17553,-0.78437 12.04989,-0.43322c2.2968,0.20817 5.31277,-0.61438 6.82647,1.12554c1.88215,2.16342 -1.01516,11.25474 -1.48768,13.24124c-2.48314,10.43929 -2.64568,20.82662 -2.64568,31.4973c0,8.56001 0.63733,17.37841 -0.00815,25.91365c-0.77422,10.23753 -0.29476,19.93958 0.54518,30.12553c0.14358,1.7412 -0.28252,3.51327 -0.02491,5.24127c1.12938,7.5757 3.94778,15.05746 4.98901,22.74528c1.09066,8.05279 0.71542,15.81719 2.67161,23.77911c0.03276,4.95999 -0.57543,10.26727 0.72063,15.11449c1.8604,6.95782 3.80669,12.20481 3.67137,19.54744c-0.04794,2.60125 1.16574,5.64155 -0.2871,7.79983c-1.07587,1.59827 -3.76211,0.89091 -5.6808,1.06581c-3.33209,0.30374 -6.69912,0.21481 -10.03771,-0.00626c-10.10211,-0.66893 -19.91108,-2.683 -30.01582,-3.27657c-6.11093,-0.35897 -12.09618,0.53903 -18.17452,0.54128c-8.24343,1.26778 -16.63784,1.39908 -24.88453,2.70318c-7.25072,1.14661 -14.28345,2.31182 -21.60796,2.76443c-9.45121,0.58402 -19.15244,0.00626 -28.61763,0.00626c-7.08401,0 -14.04265,0.56133 -21.13873,0.52493c-5.11541,-1.19029 -10.56026,-0.83396 -15.40613,-2.87705c-1.71478,-0.72297 -4.05172,-0.86793 -5.01012,-2.46312c-0.98855,-1.64537 0.05714,-3.83862 0.07079,-5.75808c0.03184,-4.47658 -0.00815,-8.95524 -0.00815,-13.43205c0,-13.74997 0.2022,-27.39134 1.68102,-41.05905c0.45663,-4.2203 -0.30863,-8.57812 0.62302,-12.71955c0.0062,-0.02755 0.01246,-0.05509 0.01877,-0.0826l-0.01428,-0.00095l0.42931,-6.43973c0.09856,-1.70055 1.50881,-3.04917 3.23407,-3.04917c1.62605,0 2.97231,1.19801 3.20426,2.75953l0.46587,2.79523c2.4797,4.29235 4.52819,11.76454 9.55701,13.80402c6.39027,2.59163 14.98771,1.40702 21.74679,1.40702c12.91356,0 25.55232,0.47479 38.39956,1.64273c4.14751,-0.00326 8.8669,-0.51927 12.96843,-0.00333c0.46691,0.05874 0.76618,0.98268 1.18481,0.76772c0.36312,-0.18647 -0.53377,-0.66957 -0.58808,-1.07414c-0.14761,-1.09962 0.08207,-2.22221 -0.00289,-3.32843c-0.19583,-2.55016 -0.26403,-5.09679 -0.38603,-7.64391z" data-paper-data="{&quot;index&quot;:null}" fill="#834e4a" stroke="none" stroke-width="0.5" stroke-linecap="butt"/><path d="M525.69935,285.59641c-0.11378,2.54751 -0.17375,5.09434 -0.36135,7.64512c-0.08138,1.10648 0.15192,2.22833 0.00786,3.32842c-0.053,0.40474 -0.94834,0.89074 -0.58462,1.07603c0.41932,0.21362 0.71561,-0.71129 1.18234,-0.77154c4.09984,-0.52918 8.82087,-0.02842 12.96837,-0.03854c12.8434,-1.2094 25.48056,-1.72501 38.39406,-1.7667c6.75904,-0.02182 15.36026,1.13502 21.74213,-1.47722c5.02221,-2.0557 7.04656,-9.53448 9.5124,-13.8348l0.45684,-2.79672c0.22691,-1.56226 1.56929,-2.76461 3.19533,-2.76986c1.72525,-0.00557 3.13985,1.3385 3.24391,3.03871l0.4501,6.43831l-0.01428,0.001c0.0064,0.02749 0.01275,0.05501 0.01903,0.08254c0.94502,4.1384 0.19384,8.49867 0.66408,12.71747c1.52294,13.66286 1.76918,27.30351 1.81358,41.05341c0.01445,4.47679 -0.01108,8.95555 0.03522,13.43201c0.01985,1.9194 1.07261,4.10926 0.08938,5.75781c-0.95324,1.59827 -3.2897,1.75078 -5.00214,2.47928c-4.83925,2.05872 -10.28523,1.71998 -15.39677,2.92678c-7.09592,0.05931 -14.05633,-0.47955 -21.1403,-0.45668c-9.46514,0.03056 -19.16445,0.63964 -28.61751,0.08614c-7.32592,-0.42896 -14.36239,-1.57146 -21.61677,-2.69465c-8.25085,-1.27747 -16.64564,-1.38167 -24.89312,-2.62283c-6.07832,0.01737 -12.06644,-0.8613 -18.17618,-0.4826c-10.10277,0.62619 -19.90519,2.67191 -30.00508,3.37346c-3.33787,0.23185 -6.70459,0.33165 -10.03765,0.03867c-1.91924,-0.1687 -4.6032,0.54732 -5.68421,-1.04746c-1.4598,-2.15358 -0.25594,-5.19777 -0.31227,-7.79886c-0.15903,-7.34214 1.77031,-12.5954 3.60824,-19.55919c1.28039,-4.85138 0.65508,-10.15666 0.67183,-15.11673c1.93047,-7.96819 1.53016,-15.73134 2.59482,-23.78761c1.0164,-7.69114 3.81063,-15.18196 4.91555,-22.76127c0.25203,-1.72883 -0.17978,-3.49951 -0.04183,-5.24116c0.80706,-10.18861 1.25518,-19.89217 0.44791,-30.12713c-0.67303,-8.53311 -0.06418,-17.35351 -0.09182,-25.91349c-0.03445,-10.67062 -0.23053,-21.05739 -2.74736,-31.48859c-0.47892,-1.98496 -3.40558,-11.06688 -1.53042,-13.23637c1.50807,-1.7448 4.52669,-0.93199 6.82281,-1.14756c3.87321,-0.36365 8.21914,0.26378 12.05123,0.39431c16.08187,0.54782 33.24159,2.06162 49.2339,-0.01183c2.22538,-0.37493 4.42432,-0.9158 6.59165,-1.54488l4.79162,-1.61442c0.34196,-0.12419 0.71082,-0.19246 1.09556,-0.1937c1.78916,-0.00578 3.24425,1.43994 3.25002,3.2291c0.00176,0.54411 -0.13073,1.05732 -0.36628,1.50827l-1.59984,3.2257l-0.31145,-0.15447c-1.3692,5.14345 -3.08989,10.15173 -4.09011,15.47631c-1.69864,9.0425 -1.77713,19.18872 -1.13467,28.37467c0.63161,9.0309 4.95066,16.98782 6.59786,25.86388c1.65092,8.89615 1.20359,18.33532 1.23269,27.34814c0.01557,4.82311 0.70817,10.24442 0.03746,15.02179c-0.24476,1.74348 -0.16756,3.76861 -1.2956,5.12034c-0.65444,0.78423 -1.64242,1.12544 -2.66613,1.41919z" data-paper-data="{&quot;index&quot;:null}" fill="#834e4a" stroke="none" stroke-width="0.5" stroke-linecap="butt"/><g><path d="M523.29471,55.49028c0.04301,-3.59075 2.98875,-6.46678 6.57951,-6.42377c3.59075,0.04301 6.46678,2.98875 6.42377,6.57951c-0.04301,3.59075 -2.98875,6.46678 -6.57951,6.42377c-3.59075,-0.04301 -6.46678,-2.98875 -6.42377,-6.57951z" data-paper-data="{&quot;index&quot;:null}" fill="none" stroke="#000000" stroke-width="0" stroke-linecap="butt"/><path d="M476.88352,124.17404l-21.82385,-4.61085l-1.37623,4.86018l11.18576,1.45201l0.00866,10.28064l41.9834,60.14312l-221.79463,27.95444l-66.63056,-35.36305l71.40625,-63.49692l4.47744,0.31723l4.54219,-5.08587l-75.01146,4.11003l-25.85388,-9.27219l-10.36369,-1.31035l-0.73545,-4.62185l-31.04862,-26.73222l-109.67814,100.63497l-46.15529,-44.70638l47.26529,-42.46715l3.17622,-12.08771l12.26529,-0.64391l23.15929,-21.60171l48.58128,15.47548l22.26678,-13.11118l72.11518,-1.64048l37.87221,-25.77494l68.16605,-2.05025l30.26114,-17.56258l74.46518,0.2329l31.60337,24.43233l79.22,4.90291z" data-paper-data="{&quot;index&quot;:null}" fill="#5f5d68" stroke="#000000" stroke-width="1" stroke-linecap="round"/><path d="M5.73236,148.29885l42.32418,40.17008l106.08505,-98.19772l34.58657,29.32833l9.64386,-0.48686l24.57487,10.23355l67.2248,-4.9927l-72.45526,64.49004l0.86376,3.32341l65.22401,36.32146l221.40484,-27.76819l0.96475,-5.10864l-42.04846,-60.13892l-0.20737,-7.83337l0.3336,-2.7067l13.81301,3.47851l3.62818,-1.16129l66.75198,-72.38924l14.21034,15.78003l-46.54544,51.14173l2.07696,2.66092l24.98507,4.78052l33.55475,-36.70029l1.23464,-59.06533l29.79711,-0.82932l-2.77343,66.49368l18.74628,19.46758l-8.69271,131.53283l-54.98026,1.58212l0.3677,13.31638l-50.36511,1.40674l-9.06795,-4.95233l-212.84801,34.78348l-25.38673,-15.26356l-0.70429,3.78086l-44.29614,-34.8649l-159.75214,19.96567l-52.06114,-65.33819z" data-paper-data="{&quot;index&quot;:null}" fill="#834e4a" stroke="#000000" stroke-width="1" stroke-linecap="round"/><path d="M-0.62012,144.62262l-0.56735,-7.6513l47.16715,45.5093l109.31496,-100.57341l31.50671,27.00131l0.72914,5.14899l9.88055,0.38194l27.03677,9.54995l73.92583,-4.25482l-4.2786,5.08901l-71.52868,4.94256l-24.65521,-10.31223l-8.97228,0.81515l-34.70065,-29.93921l-106.7434,97.70459l-46.01897,-42.33234z" data-paper-data="{&quot;index&quot;:null}" fill="#cacaca" stroke="#000000" stroke-width="1" stroke-linecap="round"/><path d="M411.68252,131.37229l20.54098,-23.08289l17.3148,17.93472l-0.96667,3.67887l-5.66192,-0.46321l-0.0545,37.56285l-19.39257,1.48115l-19.89047,-33.97947l0.57447,-3.94716z" data-paper-data="{&quot;index&quot;:null}" fill="#dfdde8" stroke="#000000" stroke-width="1" stroke-linecap="round"/><path d="M411.95081,130.98007l-16.45391,-1.77869l-2.45179,-4.37883l16.83505,2.96949l22.0188,-22.66977l19.92127,20.40427l-1.98937,1.03059l-17.7078,-18.13712z" data-paper-data="{&quot;index&quot;:null}" fill="#cacaca" stroke="#000000" stroke-width="1" stroke-linecap="round"/><path d="M419.60405,163.26433l0.85545,-27.40451l14.37693,-0.88223l-0.72839,27.80143z" data-paper-data="{&quot;index&quot;:null}" fill="#ffa800" stroke="#000000" stroke-width="1" stroke-linecap="round"/><path d="M497.18075,134.80171l0.4364,-3.4216l0.03315,-2.76743l3.96925,-1.27049l4.21074,0.57763l2.47545,2.40209l0.07812,4.48219l9.23425,-0.68021l-0.50586,31.23095l-29.94786,2.40914l0.12946,-32.81706z" data-paper-data="{&quot;index&quot;:null}" fill="#ffa800" stroke="#000000" stroke-width="1" stroke-linecap="round"/><path d="M548.01808,170.99706l0.46089,-38.48058l2.14483,-3.00575l3.85642,-2.85344l3.01996,0.95877l2.99628,2.93551l1.4291,1.73055l-1.47728,35.30516z" data-paper-data="{&quot;index&quot;:null}" fill="#ffa800" stroke="#000000" stroke-width="1" stroke-linecap="round"/><path d="M604.41709,126.06919l2.50545,-0.10178l1.97202,0.41903l1.16395,1.85918l1.03373,1.72581l-2.22063,31.34221l-6.06202,-0.07261z" data-paper-data="{&quot;index&quot;:null}" fill="#ffa800" stroke="#000000" stroke-width="1" stroke-linecap="round"/><path d="M597.61219,223.78455l0.54691,-34.65729l8.04191,-0.16728l-1.85369,33.71903z" data-paper-data="{&quot;index&quot;:null}" fill="#ffa800" stroke="#000000" stroke-width="1" stroke-linecap="round"/><path d="M518.8731,266.76437l2.58088,-55.91893l4.52639,-3.76802l9.6817,-5.02429l6.9908,-0.44347l6.84166,1.00456l5.50172,2.83373l-3.88175,59.98919z" data-paper-data="{&quot;index&quot;:null}" fill="#cac8d3" stroke="#000000" stroke-width="1" stroke-linecap="round"/><path d="M522.63248,266.51285l2.45581,-50.97785l6.80141,-6.64042l4.89964,-1.91837l5.80161,-0.19411l4.34252,0.57921l-4.52289,58.49874z" data-paper-data="{&quot;index&quot;:null}" fill="#4a1f18" stroke="#000000" stroke-width="1" stroke-linecap="round"/><path d="M436.70967,271.01939l2.11173,-44.26009l8.2605,-7.41376l18.65557,-5.97122l16.59359,1.12136l8.14685,2.07461l-2.15118,47.55465z" data-paper-data="{&quot;index&quot;:null}" fill="#361617" stroke="#000000" stroke-width="1" stroke-linecap="round"/><path d="M370.32072,284.26111l1.31472,-43.74241l3.6493,-7.56785l10.88352,-6.32793l15.22132,-5.35336l20.29613,0.11129l5.88919,3.49737l-2.43095,48.90226z" data-paper-data="{&quot;index&quot;:null}" fill="#361617" stroke="#000000" stroke-width="1" stroke-linecap="round"/><path d="M296.41127,295.40277l0.44828,-48.43177l5.86632,-5.59721l11.5529,-4.44173l17.59499,-5.45673l15.54722,0.44983l10.10781,3.4161l3.89822,4.65975l-0.79707,44.53943z" data-paper-data="{&quot;index&quot;:null}" fill="#361617" stroke="#000000" stroke-width="1" stroke-linecap="round"/><path d="M269.51772,284.89898l0.46406,-49.74958l3.56604,-0.61631l5.24922,1.90811l3.50447,4.52324l-0.61361,51.23057z" data-paper-data="{&quot;index&quot;:null}" fill="#361617" stroke="#000000" stroke-width="1" stroke-linecap="round"/><path d="M296.00139,247.09253l6.79036,-5.71795l10.2041,-4.62263l13.097,-4.06079l-0.99908,39.39673l-28.91253,4.00316z" data-paper-data="{&quot;index&quot;:null}" fill="#cac8d3" stroke="#000000" stroke-width="1" stroke-linecap="round"/><path d="M307.40413,263.44071l0.16498,-24.77674l10.58366,-3.30007l-0.20126,27.80776z" data-paper-data="{&quot;index&quot;:null}" fill="#ba00ff" stroke="#000000" stroke-width="1" stroke-linecap="round"/><path d="M295.85539,248.277l2.54491,-3.39637l4.38986,-3.37426l-0.02371,23.98762l-6.72093,-0.08049z" data-paper-data="{&quot;index&quot;:null}" fill="#ba00ff" stroke="#000000" stroke-width="1" stroke-linecap="round"/><path d="M400.66043,221.62327l8.57221,-0.42453l12.52092,0.01817l6.14961,3.7641l-1.90024,26.60118l-32.48329,5.0148l0.92331,-33.07117z" data-paper-data="{&quot;index&quot;:null}" fill="#cac8d3" stroke="#000000" stroke-width="1" stroke-linecap="round"/><path d="M400.92717,221.36287l4.61713,-0.3401l-0.46956,28.19994l-8.32126,1.48194l0.74102,-28.8557z" data-paper-data="{&quot;index&quot;:null}" fill="#ba00ff" stroke="#000000" stroke-width="1" stroke-linecap="round"/><path d="M420.43576,221.20113l1.27676,25.45302l-10.036,1.59322l0.19653,-27.4124z" data-paper-data="{&quot;index&quot;:null}" fill="#ba00ff" stroke="#000000" stroke-width="1" stroke-linecap="round"/><path d="M438.15699,227.21265l2.81006,-3.525l8.24629,-6.22771l9.37869,-1.73288l-0.91069,32.0169l-20.18644,1.73526z" data-paper-data="{&quot;index&quot;:null}" fill="#cac8d3" stroke="#000000" stroke-width="1" stroke-linecap="round"/><path d="M448.68621,217.45363l2.76743,0.03314l-0.8144,23.97817l-8.58481,1.47879l0.2478,-20.68989z" data-paper-data="{&quot;index&quot;:null}" fill="#ffa800" stroke="#000000" stroke-width="1" stroke-linecap="round"/><path d="M516.28992,122.04811l0.61355,-1.70606l23.53231,5.02673l36.1691,-40.39237l0.03866,7.77676l-32.00553,36.65295l-27.35715,-4.80894z" data-paper-data="{&quot;index&quot;:null}" fill="#cacaca" stroke="#000000" stroke-width="1" stroke-linecap="round"/><path d="M605.12499,88.97549l27.30028,31.56399l-4.12156,2.98207l-24.08149,-25.19895z" data-paper-data="{&quot;index&quot;:null}" fill="#cacaca" stroke="#000000" stroke-width="1" stroke-linecap="round"/><path d="M562.14587,70.70042l-14.05735,-14.79836l-63.49413,68.66606l-5.98232,4.2778l-25.23917,-5.57437l0.44902,-4.47589l22.87654,4.75527l73.59153,-78.13368l17.92717,21.8302z" data-paper-data="{&quot;index&quot;:null}" fill="#cacaca" stroke="#000000" stroke-width="1" stroke-linecap="round"/><path d="M567.26037,67.20303l10.21176,0.38591l-1.15866,18.17476l-35.82961,39.70448l-24.40838,-4.7736l47.24685,-50.17776z" data-paper-data="{&quot;index&quot;:null}" fill="#5f5d68" stroke="#000000" stroke-width="1" stroke-linecap="round"/><path d="M505.39011,201.26219l-221.88677,27.39318l-66.12256,-36.51022l0.83804,-3.94403l66.53211,35.32892l220.83566,-27.66936z" data-paper-data="{&quot;index&quot;:null}" fill="#cacaca" stroke="#000000" stroke-width="1" stroke-linecap="round"/><path d="M263.89792,217.64574l-1.63432,37.41213l-7.88015,-2.33501l1.10245,-37.02308z" data-paper-data="{&quot;index&quot;:null}" fill="#ba00ff" stroke="#000000" stroke-width="1" stroke-linecap="round"/><path d="M232.86941,200.23872l-0.73473,28.32858l-4.84123,-2.95761l0.98879,-27.53471z" data-paper-data="{&quot;index&quot;:null}" fill="#ba00ff" stroke="#000000" stroke-width="1" stroke-linecap="round"/><path d="M221.09651,225.79906l-10.35718,-4.60531l-0.69595,-29.9273l10.74778,5.0054z" data-paper-data="{&quot;index&quot;:null}" fill="#ba00ff" stroke="#000000" stroke-width="1" stroke-linecap="round"/><path d="M210.64667,173.90877l-0.19369,-38.85088l11.79891,5.28159l-0.8665,39.33243z" data-paper-data="{&quot;index&quot;:null}" fill="#003cff" stroke="#000000" stroke-width="1" stroke-linecap="round"/><path d="M141.78879,153.93984l-0.14989,-31.5024l28.74444,-0.97372l-0.249,31.79418z" data-paper-data="{&quot;index&quot;:null}" fill="#003cff" stroke="#000000" stroke-width="1" stroke-linecap="round"/><path d="M172.38285,218.62552l-31.39586,2.25999l-1.21519,-30.59256l32.33097,-3.30321z" data-paper-data="{&quot;index&quot;:null}" fill="#003cff" stroke="#000000" stroke-width="1" stroke-linecap="round"/><path d="M96.82368,117.15582l-38.24625,34.99657l-12.29917,-7.52819l0.67868,-34.65572l3.23581,-17.06252l8.76786,27.25616z" data-paper-data="{&quot;index&quot;:null}" fill="#dfdde8" stroke="#000000" stroke-width="1" stroke-linecap="round"/><path d="M49.62453,118.33687l7.77993,-0.30224l-0.6045,28.46193l-7.32617,-4.56901l0.02844,-24.38296z" data-paper-data="{&quot;index&quot;:null}" fill="#003cff" stroke="#000000" stroke-width="1" stroke-linecap="round"/><path d="M46.94864,110.66032l-3.69465,0.35115l6.03107,-27.60614l10.69252,31.62868l44.84089,-2.36257l-3.08625,4.5761l-43.78978,2.63876l-7.71675,-26.97997z" data-paper-data="{&quot;index&quot;:null}" fill="#cacaca" stroke="#000000" stroke-width="1" stroke-linecap="round"/><path d="M8.28458,208.04904l1.10043,-36.85457l5.87026,5.07876l0.70455,40.21517z" data-paper-data="{&quot;index&quot;:null}" fill="#003cff" stroke="#000000" stroke-width="1" stroke-linecap="round"/><path d="M17.63038,220.06704l0.62898,-41.51001l8.97462,9.99263l-0.62424,41.11466z" data-paper-data="{&quot;index&quot;:null}" fill="#003cff" stroke="#000000" stroke-width="1" stroke-linecap="round"/><path d="M28.79323,234.43531l0.24152,-42.17366l9.50808,9.47181l-0.38751,43.35812z" data-paper-data="{&quot;index&quot;:null}" fill="#003cff" stroke="#000000" stroke-width="1" stroke-linecap="round"/><path d="M40.47059,249.86418l0.40174,-44.54416l10.02258,10.53238l0.49077,47.05909z" data-paper-data="{&quot;index&quot;:null}" fill="#003cff" stroke="#000000" stroke-width="1" stroke-linecap="round"/><path d="M541.04761,64.01025c0.03761,-3.14025 2.61377,-5.65544 5.75403,-5.61783c3.14025,0.03761 5.65543,2.61377 5.61782,5.75403c-0.03761,3.14025 -2.61377,5.65544 -5.75402,5.61782c-3.14025,-0.03761 -5.65544,-2.61377 -5.61783,-5.75403z" data-paper-data="{&quot;index&quot;:null}" fill="#557067" stroke="#000000" stroke-width="1" stroke-linecap="butt"/><path d="M211.45475,134.98657l-0.28561,-2.07312l1.49567,-3.91448l2.60656,-1.62452l3.09665,0.658l1.83023,2.71252l-0.00311,8.89961z" data-paper-data="{&quot;index&quot;:null}" fill="#003cff" stroke="#000000" stroke-width="1" stroke-linecap="round"/><path d="M340.71821,153.28517c0.50629,1.04365 -0.53735,1.54994 -0.53735,1.54994l-0.42632,0.20301c-0.11603,0.06731 -0.23125,0.13599 -0.34565,0.20601c9.95462,-2.76464 22.0425,1.32876 25.94167,11.18094c3.31689,15.78906 -18.27524,24.7112 -30.54774,18.41137c-11.30775,-8.65537 -7.17439,-25.35817 3.78205,-31.8018l0.58342,-0.28684c0,0 1.04365,-0.50629 1.54994,0.53735zM334.29412,159.92148c-5.17256,6.83357 -5.93439,17.01769 1.75189,22.95624c10.39046,5.37686 29.91051,-2.27056 27.08324,-15.78336c-4.1336,-10.33241 -19.11303,-13.2999 -28.1526,-7.37454c0,0 -0.30402,0.19746 -0.68252,0.20165z" fill="#000000" stroke="none" stroke-width="0.5" stroke-linecap="butt"/><path d="M334.91979,159.66742c9.03958,-5.92536 24.15138,-2.92211 28.28499,7.4103c2.82727,13.51279 -16.81963,21.23472 -27.21009,15.85785c-7.68628,-5.93856 -6.93189,-16.23079 -1.75932,-23.06436c0.3785,-0.00419 0.68442,-0.20379 0.68442,-0.20379z" data-paper-data="{&quot;noHover&quot;:false,&quot;origItem&quot;:[&quot;Path&quot;,{&quot;applyMatrix&quot;:true,&quot;segments&quot;:[[[338.29931,155.61142],[0.37068,-0.07666],[-3.76687,7.6983]],[[344.41875,177.80626],[-8.68201,-4.35522],[11.2284,3.28563]],[[367.97464,157.12448],[5.36486,12.72035],[-6.03738,-9.34855]],[[338.93052,155.28269],[7.73626,-7.54812],[0,0]]],&quot;closed&quot;:true}]}" fill="#710000" stroke="none" stroke-width="0.5" stroke-linecap="butt"/><path d="M397.0244,135.31043c-0.01389,1.15987 -1.17378,1.14599 -1.17378,1.14599l-0.37641,-0.00451c-4.0291,-0.04826 -8.00999,0.09815 -12.03192,0.34882c-7.98467,1.31672 -15.80539,2.69075 -23.63285,4.72147c-1.87424,0.48625 -7.80468,2.18693 -9.36793,0.84324c-0.61198,-0.52603 0.16162,-1.61287 0.36996,-2.39249c0.88133,-3.29807 2.81307,-5.95011 4.87819,-8.60975c9.47538,-7.79954 22.06764,-13.08607 33.51095,-17.06565c0,0 1.09698,-0.37704 1.47402,0.71996c0.37704,1.09698 -0.71996,1.47402 -0.71996,1.47402c-11.11812,3.76941 -23.3856,9.00264 -32.60168,16.48891c-1.49205,1.94489 -2.7661,3.69083 -3.60534,5.96255c-0.28786,0.77921 -2.0249,2.62787 -1.45648,2.02214c1.30468,-1.39034 5.10765,-1.21248 6.93473,-1.68824c7.93149,-2.06529 15.86119,-3.45851 23.9553,-4.78133c4.11829,-0.26182 8.19487,-0.4128 12.32081,-0.36339l0.37641,0.00451c0,0 1.15987,0.01389 1.14599,1.17378z" fill="#000000" stroke="none" stroke-width="0.5" stroke-linecap="butt"/><path d="M276.77225,138.51307c0.01389,-1.15987 1.17378,-1.14599 1.17378,-1.14599l0.98269,0.02104c4.08175,-0.46976 8.15486,-0.78896 12.26603,-0.74077c10.34729,0.13 20.96291,1.46255 31.28796,2.40802c2.98091,0.27297 7.05079,-0.02805 10.27264,0.71578c-1.53087,-1.05681 -3.08423,-1.92614 -4.82825,-2.79986c-4.77033,-3.02939 -8.5212,-7.67475 -13.82481,-9.82022c-4.15857,-1.68227 -8.73831,-1.72781 -13.13596,-2.25648c-2.81437,-0.33833 -5.45459,-0.99615 -8.17505,-0.02999c0,0 -1.09698,0.37704 -1.47402,-0.71996c-0.37704,-1.09698 0.71996,-1.47402 0.71996,-1.47402c3.13419,-1.04838 5.98457,-0.46669 9.20601,-0.07939c6.20922,0.74651 12.43404,0.9782 17.85153,4.53082c3.54988,2.32789 6.36729,5.53396 9.97505,7.83025c2.47144,1.2341 4.60832,2.50677 6.78652,4.22992l0.00118,0.00167l0.00037,-0.00045l1.10934,0.88434c0.27535,0.21523 0.45067,0.55193 0.44616,0.92837c-0.00735,0.61304 -0.48894,1.1093 -1.0918,1.14412l-2.30403,0.15658l-0.02246,-0.33054c-4.61406,0.48708 -9.3561,-0.42511 -14.0241,-0.81138c-9.52693,-0.78836 -19.26494,-2.07944 -28.80403,-2.18783c-4.0128,-0.04911 -7.98907,0.26722 -11.973,0.72571l-1.27572,-0.006c0,0 -1.15987,-0.01389 -1.14599,-1.17378z" fill="#000000" stroke="none" stroke-width="0.5" stroke-linecap="butt"/></g><path d="M-546.54655,598.16817v-836.33634h1733.09309v836.33634z" fill="none" stroke="#f00000" stroke-width="0" stroke-linecap="butt"/></g></g></svg>