<svg version="1.1" xmlns="http://www.w3.org/2000/svg" xmlns:xlink="http://www.w3.org/1999/xlink" width="1733.09309" height="836.33634" viewBox="0,0,1733.09309,836.33634"><g transform="translate(546.54655,238.16817)"><g data-paper-data="{&quot;isPaintingLayer&quot;:true}" fill-rule="nonzero" stroke-linejoin="miter" stroke-miterlimit="10" stroke-dasharray="" stroke-dashoffset="0" style="mix-blend-mode: normal"><path d="M139.92165,278.58959c-1.02466,-0.29044 -2.01373,-0.62846 -2.6707,-1.41057c-1.13239,-1.34808 -1.06173,-3.37345 -1.31212,-5.11613c-0.68613,-4.77519 -0.01104,-10.19869 -0.01104,-15.02183c0,-9.01287 -0.4778,-18.45055 1.14439,-27.35198c1.61853,-8.88133 5.91188,-16.85216 6.51432,-25.88505c0.6128,-9.18797 0.50156,-19.33388 -1.22627,-28.37086c-1.01741,-5.32133 -2.75426,-10.32402 -4.14006,-15.46302l-0.31095,0.15547l-1.61026,-3.22052c-0.23701,-0.45019 -0.37115,-0.96298 -0.37115,-1.50709c0,-1.78917 1.45041,-3.23958 3.23958,-3.23958c0.38474,0 0.75382,0.06708 1.09618,0.19017l4.79682,1.59894c2.16934,0.62208 4.37001,1.15584 6.59659,1.52359c15.99893,2.0218 33.15366,0.45261 49.23369,-0.14713c3.83164,-0.14291 8.17553,-0.78437 12.04989,-0.43322c2.2968,0.20817 5.31277,-0.61438 6.82647,1.12554c1.88215,2.16342 -1.01516,11.25474 -1.48768,13.24124c-2.48314,10.43929 -2.64568,20.82662 -2.64568,31.4973c0,8.56001 0.63733,17.37841 -0.00815,25.91365c-0.77422,10.23753 -0.29476,19.93958 0.54518,30.12553c0.14358,1.7412 -0.28252,3.51327 -0.02491,5.24127c1.12938,7.5757 3.94778,15.05746 4.98901,22.74528c1.09066,8.05279 0.71542,15.81719 2.67161,23.77911c0.03276,4.95999 -0.57543,10.26727 0.72063,15.11449c1.8604,6.95782 3.80669,12.20481 3.67137,19.54744c-0.04794,2.60125 1.16574,5.64155 -0.2871,7.79983c-1.07587,1.59827 -3.76211,0.89091 -5.6808,1.06581c-3.33209,0.30374 -6.69912,0.21481 -10.03771,-0.00626c-10.10211,-0.66893 -19.91108,-2.683 -30.01582,-3.27657c-6.11093,-0.35897 -12.09618,0.53903 -18.17452,0.54128c-8.24343,1.26778 -16.63784,1.39908 -24.88453,2.70318c-7.25072,1.14661 -14.28345,2.31182 -21.60796,2.76443c-9.45121,0.58402 -19.15244,0.00626 -28.61763,0.00626c-7.08401,0 -14.04265,0.56133 -21.13873,0.52493c-5.11541,-1.19029 -10.56026,-0.83396 -15.40613,-2.87705c-1.71478,-0.72297 -4.05172,-0.86793 -5.01012,-2.46312c-0.98855,-1.64537 0.05714,-3.83862 0.07079,-5.75808c0.03184,-4.47658 -0.00815,-8.95524 -0.00815,-13.43205c0,-13.74997 0.2022,-27.39134 1.68102,-41.05905c0.45663,-4.2203 -0.30863,-8.57812 0.62302,-12.71955c0.0062,-0.02755 0.01246,-0.05509 0.01877,-0.0826l-0.01428,-0.00095l0.42931,-6.43973c0.09856,-1.70055 1.50881,-3.04917 3.23407,-3.04917c1.62605,0 2.97231,1.19801 3.20426,2.75953l0.46587,2.79523c2.4797,4.29235 4.52819,11.76454 9.55701,13.80402c6.39027,2.59163 14.98771,1.40702 21.74679,1.40702c12.91356,0 25.55232,0.47479 38.39956,1.64273c4.14751,-0.00326 8.8669,-0.51927 12.96843,-0.00333c0.46691,0.05874 0.76618,0.98268 1.18481,0.76772c0.36312,-0.18647 -0.53377,-0.66957 -0.58808,-1.07414c-0.14761,-1.09962 0.08207,-2.22221 -0.00289,-3.32843c-0.19583,-2.55016 -0.26403,-5.09679 -0.38603,-7.64391z" data-paper-data="{&quot;index&quot;:null}" fill="#834e4a" stroke="none" stroke-width="0.5" stroke-linecap="butt"/><path d="M533.51401,272.50779c-0.09845,2.8097 -0.13757,5.61809 -0.31738,8.43219c-0.07799,1.2207 0.19109,2.45501 0.04392,3.66934c-0.05415,0.44676 -1.03606,0.99205 -0.63312,1.19246c0.46455,0.23106 0.78139,-0.79174 1.29529,-0.86311c4.51425,-0.62683 9.72426,-0.12478 14.29656,-0.17988c14.14639,-1.46937 28.07276,-2.17169 42.3088,-2.35445c7.45127,-0.09566 16.94594,1.08857 23.95396,-1.8589c5.51495,-2.31952 7.66747,-10.58594 10.34038,-15.35295l0.47401,-3.08809c0.23361,-1.72472 1.70077,-3.06447 3.49334,-3.08748c1.90194,-0.02442 3.4757,1.44236 3.60844,3.31566l0.56442,7.09315l-0.01574,0.00126c0.00734,0.03024 0.01464,0.06052 0.02185,0.0908c1.08568,4.55236 0.30374,9.3673 0.86686,14.01333c1.82371,15.04648 2.23969,30.082 2.43431,45.2401c0.06336,4.93529 0.08266,9.87316 0.18113,14.80774c0.04221,2.11583 1.22604,4.51889 0.15954,6.34675c-1.03398,1.77211 -3.60818,1.96499 -5.48835,2.78628c-5.31322,2.3209 -11.32073,2.00516 -16.94315,3.38975c-7.82227,0.14057 -15.50147,-0.37977 -23.31096,-0.27951c-10.43452,0.13397 -21.12106,0.90821 -31.54846,0.39816c-8.081,-0.3953 -15.85046,-1.58029 -23.85996,-2.7417c-9.10968,-1.32094 -18.36562,-1.34688 -27.47121,-2.62781c-6.70086,0.08355 -13.31177,-0.82171 -20.04343,-0.33948c-11.13117,0.79737 -21.91616,3.15653 -33.04336,4.03695c-3.67738,0.29097 -7.38796,0.43666 -11.06559,0.14897c-2.11765,-0.16564 -5.069,0.65215 -6.27765,-1.09455c-1.63217,-2.35875 -0.33724,-5.72757 -0.42689,-8.59454c-0.25311,-8.09266 1.81824,-13.90455 3.77068,-21.60125c1.36017,-5.36197 0.61459,-11.20414 0.58051,-16.67256c2.04383,-8.80498 1.52026,-17.35923 2.60864,-26.25214c1.03904,-8.48986 4.04019,-16.77771 5.178,-25.14524c0.25953,-1.90861 -0.23528,-3.85613 -0.10165,-5.77767c0.7818,-11.24098 1.17303,-21.94341 0.17463,-33.2184c-0.83238,-9.4002 -0.2546,-19.13069 -0.37576,-28.56735c-0.15102,-11.76346 -0.47723,-23.21227 -3.36242,-34.68548c-0.54901,-2.18325 -3.87173,-12.1646 -1.82743,-14.57622c1.64408,-1.93953 4.98058,-1.07543 7.50965,-1.33741c4.26618,-0.44194 9.06398,0.20373 13.29005,0.30703c17.73527,0.43357 36.66903,1.92066 54.27777,-0.53464c2.4494,-0.43692 4.86789,-1.0565 7.25059,-1.77299l5.26542,-1.83058c0.37567,-0.14053 0.7816,-0.21971 1.20574,-0.22515c1.97239,-0.02533 3.59188,1.55309 3.61719,3.52549c0.0077,0.59984 -0.13292,1.16702 -0.38783,1.66668l-1.72957,3.57312l-0.345,-0.167c-1.45499,5.68489 -3.29889,11.22452 -4.34518,17.10519c-1.77686,9.98689 -1.7559,21.17343 -0.9503,31.29367c0.792,9.94942 5.63783,18.67577 7.54782,28.44373c1.91431,9.79007 1.52115,20.20102 1.6487,30.1369c0.06826,5.31707 0.88925,11.28646 0.20044,16.56037c-0.25136,1.92468 -0.1448,4.15649 -1.37409,5.65865c-0.71318,0.87151 -1.79877,1.25814 -2.92424,1.59283z" data-paper-data="{&quot;index&quot;:null}" fill="#834e4a" stroke="none" stroke-width="0.5" stroke-linecap="butt"/><path d="M541.64007,63.65482c0.22113,-3.58419 3.30596,-6.31051 6.89016,-6.08937c3.58419,0.22113 6.31051,3.30596 6.08937,6.89016c-0.22113,3.58419 -3.30596,6.31051 -6.89016,6.08937c-3.58419,-0.22113 -6.31051,-3.30596 -6.08937,-6.89016z" data-paper-data="{&quot;index&quot;:null}" fill="none" stroke="#000000" stroke-width="0" stroke-linecap="butt"/><path d="M491.87788,129.95099l-21.56817,-5.68809l-1.6157,4.7859l11.09993,2.00527l-0.50149,10.26841l38.94731,62.15229l-222.90853,16.91431l-64.79372,-38.62578l74.46908,-59.87544l4.45619,0.53902l4.78896,-4.85421l-75.123,0.38282l-25.36194,-10.54366l-10.2859,-1.823l-0.50521,-4.65265l-29.68388,-28.23996l-114.53665,95.06865l-43.88005,-46.94158l49.31433,-40.06948l3.77211,-11.91521l12.28212,-0.0345l24.20266,-20.42591l47.75353,17.86707l22.88994,-11.99012l72.10774,1.93998l39.10454,-23.86393l68.18381,1.33475l31.09533,-16.03936l74.3619,3.92765l30.35207,25.97043l78.87913,8.82786z" data-paper-data="{&quot;index&quot;:null}" fill="#5f5d68" stroke="#000000" stroke-width="1" stroke-linecap="round"/><path d="M20.11002,130.66706l40.27876,42.22078l110.82705,-92.8127l33.08866,31.00842l9.65614,-0.00772l24.0368,11.44037l67.38973,-1.65079l-75.56607,60.81528l0.69779,3.36217l63.34135,39.51321l222.50998,-16.74763l1.21706,-5.05448l-39.0125,-62.15133l0.18159,-7.834l0.4675,-2.6868l13.62339,4.15965l3.68133,-0.97982l70.26179,-68.98776l13.40981,16.46573l-49.02581,48.76909l1.94236,2.7607l24.71707,6.01442l35.33452,-34.99006l4.164,-58.9313l29.80155,0.65026l-6.0695,66.27415l17.75719,20.37381l-15.2088,130.93945l-54.99104,-1.14802l-0.29352,13.31821l-50.37287,-1.09417l-8.81104,-5.39619l-214.3118,24.17889l-24.59806,-16.50447l-0.89103,3.74126l-42.51154,-37.01997l-160.54606,12.014l-48.75486,-67.84104z" data-paper-data="{&quot;index&quot;:null}" fill="#834e4a" stroke="#000000" stroke-width="1" stroke-linecap="round"/><path d="M13.94779,126.68013l-0.18698,-7.67002l44.85083,47.79372l114.17086,-95.02519l30.12807,28.53145l0.47274,5.17883l9.84943,0.87175l26.52958,10.87977l74.04589,-0.5813l-4.52585,4.87043l-71.68582,1.38714l-24.11313,-11.52295l-9.00168,0.36894l-33.17229,-31.62421l-111.46012,92.28751l-43.8617,-44.5637z" data-paper-data="{&quot;index&quot;:null}" fill="#cacaca" stroke="#000000" stroke-width="1" stroke-linecap="round"/><path d="M426.40002,133.90503l21.66107,-22.0352l16.40353,18.77181l-1.14803,3.62637l-5.63196,-0.74359l-1.91835,37.51387l-19.44218,0.51705l-18.17987,-34.92461l0.76962,-3.91379z" data-paper-data="{&quot;index&quot;:null}" fill="#dfdde8" stroke="#000000" stroke-width="1" stroke-linecap="round"/><path d="M426.68744,133.52662l-16.34537,-2.59296l-2.23149,-4.4951l16.66695,3.80121l23.11657,-21.54925l18.88425,21.36766l-2.03806,0.9306l-16.786,-18.99346z" data-paper-data="{&quot;index&quot;:null}" fill="#cacaca" stroke="#000000" stroke-width="1" stroke-linecap="round"/><path d="M432.72928,166.15086l2.21424,-27.3283l14.40299,-0.16775l-2.10704,27.73103z" data-paper-data="{&quot;index&quot;:null}" fill="#ffa800" stroke="#000000" stroke-width="1" stroke-linecap="round"/><path d="M511.62275,141.57275l0.60565,-3.39572l0.17043,-2.76238l4.02741,-1.07197l4.17688,0.78586l2.3532,2.52196l-0.14439,4.48054l9.25663,-0.22116l-2.05495,31.16738l-30.03052,0.92013l1.75772,-32.7702z" data-paper-data="{&quot;index&quot;:null}" fill="#ffa800" stroke="#000000" stroke-width="1" stroke-linecap="round"/><path d="M560.6014,180.24611l2.36976,-38.4103l2.29133,-2.89562l3.99326,-2.65856l2.96867,1.10744l2.84692,3.08057l1.34147,1.79934l-3.22734,35.18836z" data-paper-data="{&quot;index&quot;:null}" fill="#ffa800" stroke="#000000" stroke-width="1" stroke-linecap="round"/><path d="M619.1603,138.17216l2.50741,0.02266l1.9488,0.51637l1.07027,1.91464l0.94683,1.77498l-3.77313,31.19341l-6.05094,-0.37332z" data-paper-data="{&quot;index&quot;:null}" fill="#ffa800" stroke="#000000" stroke-width="1" stroke-linecap="round"/><path d="M607.51504,235.42948l2.26597,-34.58746l8.04031,0.23198l-3.52458,33.58551z" data-paper-data="{&quot;index&quot;:null}" fill="#ffa800" stroke="#000000" stroke-width="1" stroke-linecap="round"/><path d="M526.74025,274.44925l5.35245,-55.72198l4.70779,-3.53878l9.91908,-4.53769l7.0042,-0.09603l6.78338,1.34281l5.35432,3.10324l-6.8537,59.72267z" data-paper-data="{&quot;index&quot;:null}" fill="#cac8d3" stroke="#000000" stroke-width="1" stroke-linecap="round"/><path d="M530.50747,274.38457l4.98236,-50.79319l7.12254,-6.29474l4.98879,-1.67288l5.8041,0.09401l4.30844,0.79397l-7.42009,58.20224z" data-paper-data="{&quot;index&quot;:null}" fill="#4a1f18" stroke="#000000" stroke-width="1" stroke-linecap="round"/><path d="M444.46689,274.62197l4.30537,-44.10078l8.61821,-6.99473l18.92888,-5.03815l16.5175,1.94338l8.03387,2.47631l-4.50824,47.38933z" data-paper-data="{&quot;index&quot;:null}" fill="#361617" stroke="#000000" stroke-width="1" stroke-linecap="round"/><path d="M377.50266,284.5531l3.48365,-43.62329l4.02033,-7.37744l11.18412,-5.78008l15.4682,-4.59147l20.26561,1.11827l5.70839,3.78528l-4.85454,48.7214z" data-paper-data="{&quot;index&quot;:null}" fill="#361617" stroke="#000000" stroke-width="1" stroke-linecap="round"/><path d="M303.13139,292.01357l2.85096,-48.34986l6.13683,-5.29922l11.75907,-3.86299l17.84409,-4.57693l15.50574,1.22074l9.92585,3.91345l3.66219,4.84744l-3.00618,44.44501z" data-paper-data="{&quot;index&quot;:null}" fill="#361617" stroke="#000000" stroke-width="1" stroke-linecap="round"/><path d="M276.79219,280.18822l2.93212,-49.66527l3.59223,-0.43859l5.14807,2.16623l3.2757,4.69156l-3.15498,51.13701z" data-paper-data="{&quot;index&quot;:null}" fill="#361617" stroke="#000000" stroke-width="1" stroke-linecap="round"/><path d="M305.11923,243.7425l7.06572,-5.37396l10.42091,-4.11059l13.28236,-3.40591l-2.95276,39.29862l-29.07555,2.56355z" data-paper-data="{&quot;index&quot;:null}" fill="#cac8d3" stroke="#000000" stroke-width="1" stroke-linecap="round"/><path d="M315.6967,260.63635l1.39422,-24.73804l10.73437,-2.77083l-1.58087,27.76353z" data-paper-data="{&quot;index&quot;:null}" fill="#ba00ff" stroke="#000000" stroke-width="1" stroke-linecap="round"/><path d="M304.91464,244.91827l2.7103,-3.26591l4.55189,-3.15227l-1.21397,23.95689l-6.70866,-0.41389z" data-paper-data="{&quot;index&quot;:null}" fill="#ba00ff" stroke="#000000" stroke-width="1" stroke-linecap="round"/><path d="M410.91315,223.49791l8.58271,0.00136l12.5046,0.63944l5.95526,4.06462l-3.21787,26.47412l-32.69211,3.39677l2.5632,-32.98462z" data-paper-data="{&quot;index&quot;:null}" fill="#cac8d3" stroke="#000000" stroke-width="1" stroke-linecap="round"/><path d="M411.19248,223.25106l4.62832,-0.11057l-1.86829,28.14191l-8.38454,1.06721l2.17196,-28.78338z" data-paper-data="{&quot;index&quot;:null}" fill="#ba00ff" stroke="#000000" stroke-width="1" stroke-linecap="round"/><path d="M430.68506,224.05756l0.01217,25.48502l-10.1027,1.09326l1.55652,-27.36889z" data-paper-data="{&quot;index&quot;:null}" fill="#ba00ff" stroke="#000000" stroke-width="1" stroke-linecap="round"/><path d="M448.08616,230.94102l2.98151,-3.38121l8.54515,-5.81084l9.45312,-1.26536l-2.49829,31.93226l-20.24768,0.73145z" data-paper-data="{&quot;index&quot;:null}" fill="#cac8d3" stroke="#000000" stroke-width="1" stroke-linecap="round"/><path d="M459.08668,221.7165l2.76237,0.17042l-2.00322,23.90822l-8.64762,1.05097l1.27415,-20.65211z" data-paper-data="{&quot;index&quot;:null}" fill="#ffa800" stroke="#000000" stroke-width="1" stroke-linecap="round"/><path d="M531.34123,129.78307l0.69745,-1.67351l23.25389,6.18823l38.12887,-38.54786l-0.34728,7.7691l-33.78486,35.01964l-27.08483,-6.16051z" data-paper-data="{&quot;index&quot;:null}" fill="#cacaca" stroke="#000000" stroke-width="1" stroke-linecap="round"/><path d="M621.70797,101.15929l25.70041,32.87978l-4.26446,2.77387l-22.80143,-26.36285z" data-paper-data="{&quot;index&quot;:null}" fill="#cacaca" stroke="#000000" stroke-width="1" stroke-linecap="round"/><path d="M579.68861,80.77406l-13.30573,-15.47767l-66.82319,65.43083l-6.18722,3.97568l-24.93148,-6.81989l0.67056,-4.44809l22.6124,5.88458l77.37795,-74.38573l16.82185,22.69287z" data-paper-data="{&quot;index&quot;:null}" fill="#cacaca" stroke="#000000" stroke-width="1" stroke-linecap="round"/><path d="M584.97036,77.53476l10.18003,0.89215l-2.05909,18.09488l-37.75566,37.87767l-24.14144,-5.97889l49.67853,-47.77151z" data-paper-data="{&quot;index&quot;:null}" fill="#5f5d68" stroke="#000000" stroke-width="1" stroke-linecap="round"/><path d="M516.52416,208.3587l-222.97271,16.34917l-64.22943,-39.74632l1.03272,-3.89758l64.69709,38.5868l221.93661,-16.67717z" data-paper-data="{&quot;index&quot;:null}" fill="#cacaca" stroke="#000000" stroke-width="1" stroke-linecap="round"/><path d="M274.51649,212.73898l-3.48873,37.28494l-7.75458,-2.72315l2.93822,-36.92277z" data-paper-data="{&quot;index&quot;:null}" fill="#ba00ff" stroke="#000000" stroke-width="1" stroke-linecap="round"/><path d="M244.38996,193.81373l-2.13951,28.25722l-4.68852,-3.19419l2.35387,-27.45173z" data-paper-data="{&quot;index&quot;:null}" fill="#ba00ff" stroke="#000000" stroke-width="1" stroke-linecap="round"/><path d="M231.36323,218.7584l-10.1159,-5.11357l0.78993,-29.92497l10.48618,5.53255z" data-paper-data="{&quot;index&quot;:null}" fill="#ba00ff" stroke="#000000" stroke-width="1" stroke-linecap="round"/><path d="M223.50111,166.41349l1.73437,-38.81263l11.5223,5.86056l-2.81715,39.24099z" data-paper-data="{&quot;index&quot;:null}" fill="#003cff" stroke="#000000" stroke-width="1" stroke-linecap="round"/><path d="M155.71895,143.05236l1.41348,-31.47104l28.75734,0.45381l-1.82636,31.74266z" data-paper-data="{&quot;index&quot;:null}" fill="#003cff" stroke="#000000" stroke-width="1" stroke-linecap="round"/><path d="M183.06554,209.17647l-31.46933,0.6993l0.30434,-30.61518l32.45505,-1.69485z" data-paper-data="{&quot;index&quot;:null}" fill="#003cff" stroke="#000000" stroke-width="1" stroke-linecap="round"/><path d="M112.63448,104.08244l-39.93571,33.05564l-11.91046,-8.12922l2.39749,-34.57935l4.07848,-16.88093l7.40457,27.65765z" data-paper-data="{&quot;index&quot;:null}" fill="#dfdde8" stroke="#000000" stroke-width="1" stroke-linecap="round"/><path d="M65.43487,102.91996l7.78534,0.08418l-2.01606,28.39687l-7.09042,-4.92692l1.23831,-24.35151z" data-paper-data="{&quot;index&quot;:null}" fill="#003cff" stroke="#000000" stroke-width="1" stroke-linecap="round"/><path d="M63.1432,95.12009l-3.70752,0.16739l7.39349,-27.27287l9.1099,32.1203l44.90288,-0.1346l-3.30952,4.41732l-43.86677,0.46261l-6.36847,-27.32965z" data-paper-data="{&quot;index&quot;:null}" fill="#cacaca" stroke="#000000" stroke-width="1" stroke-linecap="round"/><path d="M19.69423,190.47029l2.92784,-36.75457l5.61101,5.36379l-1.29183,40.20059z" data-paper-data="{&quot;index&quot;:null}" fill="#003cff" stroke="#000000" stroke-width="1" stroke-linecap="round"/><path d="M28.43218,202.93723l2.68798,-41.42767l8.46772,10.42565l-2.66362,41.03304z" data-paper-data="{&quot;index&quot;:null}" fill="#003cff" stroke="#000000" stroke-width="1" stroke-linecap="round"/><path d="M38.8683,217.84171l2.33392,-42.10972l9.02636,9.93194l-2.53851,43.28548z" data-paper-data="{&quot;index&quot;:null}" fill="#003cff" stroke="#000000" stroke-width="1" stroke-linecap="round"/><path d="M49.76568,233.83102l2.61157,-44.46935l9.48761,11.01673l-1.84496,47.02548z" data-paper-data="{&quot;index&quot;:null}" fill="#003cff" stroke="#000000" stroke-width="1" stroke-linecap="round"/><path d="M558.94833,73.04521c0.19339,-3.13451 2.89118,-5.51878 6.02571,-5.32539c3.13451,0.19339 5.51877,2.89119 5.32538,6.02571c-0.19339,3.13451 -2.89118,5.51878 -6.0257,5.32538c-3.13451,-0.19339 -5.51878,-2.89118 -5.32539,-6.02571z" data-paper-data="{&quot;index&quot;:null}" fill="#557067" stroke="#000000" stroke-width="1" stroke-linecap="butt"/><path d="M226.23956,127.57934l-0.18239,-2.08473l1.68807,-3.83544l2.68396,-1.49318l3.06018,0.81085l1.69338,2.8l-0.44471,8.88849z" data-paper-data="{&quot;index&quot;:null}" fill="#003cff" stroke="#000000" stroke-width="1" stroke-linecap="round"/><path d="M411.56454,137.11097c-0.07142,1.15775 -1.2292,1.08633 -1.2292,1.08633l-0.37573,-0.02319c-4.02174,-0.24813 -8.00499,-0.29944 -12.03441,-0.24864c-8.04017,0.91889 -15.91944,1.90315 -23.83802,3.54297c-1.89606,0.39265 -7.90359,1.79696 -9.39823,0.37736c-0.58512,-0.55575 0.24145,-1.60287 0.48823,-2.37118c1.04389,-3.25027 3.10486,-5.8032 5.29941,-8.35708c9.85074,-7.31975 22.6898,-11.97494 34.31648,-15.38179c0,0 1.11434,-0.32214 1.43648,0.79222c0.32214,1.11434 -0.79222,1.43648 -0.79222,1.43648c-11.29147,3.21307 -23.80352,7.83113 -33.37971,14.85086c-1.58671,1.86846 -2.94584,3.54902 -3.89676,5.7763c-0.32617,0.76396 -2.15281,2.52416 -1.55503,1.94737c1.37207,-1.32388 5.16152,-0.95753 7.00996,-1.34205c8.0242,-1.66918 16.01327,-2.6672 24.16304,-3.58675c4.12621,-0.05714 8.20526,-0.00566 12.32367,0.24844l0.37573,0.02319c0,0 1.15775,0.07142 1.08633,1.2292z" fill="#000000" stroke="none" stroke-width="0.5" stroke-linecap="butt"/><path d="M291.30161,134.34262c0.07142,-1.15775 1.2292,-1.08633 1.2292,-1.08633l0.98044,0.06977c4.10003,-0.26663 8.18396,-0.38333 12.28767,-0.13121c10.3281,0.64328 20.86451,2.50094 31.12992,3.95759c2.96369,0.42055 7.0435,0.32185 10.22447,1.22464c-1.47655,-1.13147 -2.98485,-2.07681 -4.68337,-3.03599c-4.61413,-3.26238 -8.12987,-8.08813 -13.32049,-10.49413c-4.06998,-1.88655 -8.64181,-2.15928 -13.00781,-2.90552c-2.79412,-0.47757 -5.39843,-1.26559 -8.16349,-0.43561c0,0 -1.11434,0.32214 -1.43648,-0.79222c-0.32214,-1.11434 0.79222,-1.43648 0.79222,-1.43648c3.18235,-0.89157 6.00036,-0.16916 9.19861,0.37752c6.16453,1.0537 12.37019,1.59399 17.60471,5.41105c3.43,2.50117 6.08485,5.84309 9.57421,8.31558c2.40716,1.35521 4.47826,2.73235 6.56827,4.56146l0.00109,0.00173l0.00039,-0.00044l1.06409,0.9383c0.26432,0.22863 0.42272,0.57361 0.39955,0.94937c-0.03776,0.61192 -0.54338,1.08367 -1.14722,1.08853l-2.30896,0.04206l-0.00602,-0.33125c-4.63255,0.25752 -9.32348,-0.88885 -13.96656,-1.50627c-9.47607,-1.26012 -19.13802,-3.03283 -28.65999,-3.61442c-4.00542,-0.24816 -7.9925,-0.12954 -11.99426,0.1307l-1.27385,-0.06929c0,0 -1.15775,-0.07142 -1.08633,-1.2292z" fill="#000000" stroke="none" stroke-width="0.5" stroke-linecap="butt"/><path d="M402.62193,191.31183c-0.71151,0.23717 -0.94868,-0.47434 -0.94868,-0.47434l0.04857,-0.10467c-0.05896,-0.05896 -0.11819,-0.11761 -0.1777,-0.17595c-0.30244,2.18886 -0.82085,4.28045 -1.65661,6.18282c0,0 -0.3046,0.68536 -0.98996,0.38075c-0.68536,-0.3046 -0.38075,-0.98996 -0.38075,-0.98996c1.01502,-2.25367 1.04708,-4.73665 1.25101,-7.16419c-5.51073,-4.51874 -12.74816,-7.01067 -19.32201,-9.49483c-9.15701,-3.4603 -19.03802,-8.7612 -29.08036,-7.99506c-4.06973,0.30639 -9.44297,-0.84875 -13.28306,0.72492c-4.17457,1.71074 -8.12858,6.19625 -11.37133,9.20958c-4.47104,4.15473 -8.43193,7.92024 -11.62805,13.12534c-1.72,2.80115 -2.50477,6.58705 -4.46088,9.21296l0.21009,0.15006l-0.65723,0.92012c-0.13547,0.19474 -0.36091,0.32221 -0.61611,0.32221c-0.39789,0 -0.72341,-0.30984 -0.74845,-0.70141l-0.08422,-1.14704c-1.12818,-5.1255 -1.19794,-10.46805 -2.5555,-15.55892c-1.48593,-5.57666 -2.79672,-11.59953 -2.12938,-17.38775c0.47412,-4.11234 2.12274,-8.38991 3.28849,-12.35353c0.77493,-2.63475 1.81969,-5.94699 4.17748,-7.65098c2.24655,-1.62359 6.01865,-1.79748 8.67791,-2.09307c4.41445,-0.49069 8.77368,-1.39182 13.20668,-1.76065c9.82134,-0.12709 19.52101,-0.42191 29.23342,-2.15757c3.89914,-0.69632 7.76556,-0.47966 11.66296,-1.00794c6.12655,-0.83043 11.11917,-2.91436 16.81119,0.55768c9.32533,5.14024 9.59782,18.77365 10.13904,28.1668c0.28804,5.04062 0.9836,11.06564 0.51149,16.6458c0.35223,0.31704 0.69661,0.64323 1.03251,0.97913l0.31379,0.69098c0,0 0.23717,0.71151 -0.47434,0.94868zM399.90529,187.16543c0.322,-5.02895 0.12459,-9.97585 -0.16437,-15.03263c-0.49412,-8.72294 -0.60972,-22.2197 -9.39144,-26.95331c-5.33128,-3.25289 -10.07832,-1.15058 -15.86019,-0.37028c-3.87852,0.52343 -7.72306,0.3057 -11.60029,0.99811c-9.78212,1.74577 -19.5351,2.02559 -29.4241,2.17915c-4.40163,0.36742 -8.7305,1.26638 -13.11405,1.75325c-2.37522,0.26381 -5.95417,0.36717 -7.96649,1.81911c-2.06657,1.49108 -2.94034,4.56183 -3.6155,6.85737c-1.14189,3.88238 -2.78419,8.09671 -3.24023,12.125c-0.6331,5.59229 0.65394,11.42037 2.09143,16.80654c1.24887,4.68326 1.42743,9.57239 2.3062,14.31921c0.45917,-1.4448 1.40403,-3.08722 1.78796,-4.06327c2.81125,-7.14688 8.4914,-12.19524 13.97576,-17.2916c3.35574,-3.11833 7.48825,-7.78478 11.83658,-9.50398c4.0823,-1.61402 9.42423,-0.50051 13.72577,-0.82743c10.29726,-0.77243 20.33285,4.53895 29.72372,8.08763c6.41658,2.42473 13.40071,4.87577 18.92925,9.09713z" fill="#000000" stroke="none" stroke-width="0.5" stroke-linecap="butt"/><path d="M380.92697,178.0587c-9.39088,-3.54868 -19.35257,-8.80705 -29.64984,-8.03463c-4.30153,0.32692 -9.6186,-0.82433 -13.7009,0.7897c-4.34833,1.7192 -8.48246,6.36616 -11.8382,9.48449c-5.48436,5.09636 -11.16991,10.13246 -13.98115,17.27934c-0.38393,0.97605 -1.41278,2.67268 -1.87195,4.11748c-0.87877,-4.74682 -1.0635,-9.64849 -2.31237,-14.33175c-1.43748,-5.38616 -2.72697,-11.23196 -2.09388,-16.82425c0.45604,-4.02829 2.1007,-8.2558 3.24259,-12.13818c0.67516,-2.29553 1.55218,-5.37406 3.61875,-6.86514c2.01232,-1.45194 5.59475,-1.56102 7.96997,-1.82483c4.38355,-0.48687 8.72245,-1.39638 13.12408,-1.7638c9.88899,-0.15357 19.6906,-0.44077 29.47273,-2.18654c3.87723,-0.69241 7.73487,-0.46727 11.61339,-0.99071c5.78187,-0.7803 10.53847,-2.87268 15.86976,0.3802c8.78172,4.73362 8.90688,18.25935 9.401,26.98228c0.28896,5.05677 0.48413,10.01891 0.16213,15.04786c-5.52855,-4.22136 -12.6095,-6.6968 -19.02608,-9.12153z" data-paper-data="{&quot;noHover&quot;:false,&quot;origItem&quot;:[&quot;Path&quot;,{&quot;applyMatrix&quot;:true,&quot;segments&quot;:[[[399.90529,187.16543],[-5.52855,-4.22136],[0.322,-5.02895]],[[399.74092,172.1328],[0.28896,5.05677],[-0.49412,-8.72294]],[[390.34948,145.17949],[8.78172,4.73362],[-5.33128,-3.25289]],[[374.48929,144.80921],[5.78187,-0.7803],[-3.87852,0.52343]],[[362.889,145.80732],[3.87723,-0.69241],[-9.78212,1.74577]],[[333.4649,147.98648],[9.88899,-0.15357],[-4.40163,0.36742]],[[320.35085,149.73973],[4.38355,-0.48687],[-2.37522,0.26381]],[[312.38436,151.55883],[2.01232,-1.45194],[-2.06657,1.49108]],[[308.76886,158.4162],[0.67516,-2.29553],[-1.14189,3.88238]],[[305.52863,170.5412],[0.45604,-4.02829],[-0.6331,5.59229]],[[307.62005,187.34773],[-1.43748,-5.38616],[1.24887,4.68326]],[[309.92626,201.66695],[-0.87877,-4.74682],[0.45917,-1.4448]],[[311.71421,197.60367],[-0.38393,0.97605],[2.81125,-7.14688]],[[325.68997,180.31208],[-5.48436,5.09636],[3.35574,-3.11833]],[[337.52655,170.8081],[-4.34833,1.7192],[4.0823,-1.61402]],[[351.25231,169.98067],[-4.30153,0.32692],[10.29726,-0.77243]],[[380.97604,178.06829],[-9.39088,-3.54868],[6.41658,2.42473]]],&quot;closed&quot;:true}]}" fill="#760000" stroke="none" stroke-width="0.5" stroke-linecap="butt"/><path d="M-546.54655,598.16817v-836.33634h1733.09309v836.33634z" fill="none" stroke="#f00000" stroke-width="0" stroke-linecap="butt"/></g></g></svg>