<svg version="1.1" xmlns="http://www.w3.org/2000/svg" xmlns:xlink="http://www.w3.org/1999/xlink" width="1733.09309" height="836.33634" viewBox="0,0,1733.09309,836.33634"><g transform="translate(546.54655,238.16817)"><g data-paper-data="{&quot;isPaintingLayer&quot;:true}" fill-rule="nonzero" stroke-linejoin="miter" stroke-miterlimit="10" stroke-dasharray="" stroke-dashoffset="0" style="mix-blend-mode: normal"><path d="M139.92165,278.58959c-1.02466,-0.29044 -2.01373,-0.62846 -2.6707,-1.41057c-1.13239,-1.34808 -1.06173,-3.37345 -1.31212,-5.11613c-0.68613,-4.77519 -0.01104,-10.19869 -0.01104,-15.02183c0,-9.01287 -0.4778,-18.45055 1.14439,-27.35198c1.61853,-8.88133 5.91188,-16.85216 6.51432,-25.88505c0.6128,-9.18797 0.50156,-19.33388 -1.22627,-28.37086c-1.01741,-5.32133 -2.75426,-10.32402 -4.14006,-15.46302l-0.31095,0.15547l-1.61026,-3.22052c-0.23701,-0.45019 -0.37115,-0.96298 -0.37115,-1.50709c0,-1.78917 1.45041,-3.23958 3.23958,-3.23958c0.38474,0 0.75382,0.06708 1.09618,0.19017l4.79682,1.59894c2.16934,0.62208 4.37001,1.15584 6.59659,1.52359c15.99893,2.0218 33.15366,0.45261 49.23369,-0.14713c3.83164,-0.14291 8.17553,-0.78437 12.04989,-0.43322c2.2968,0.20817 5.31277,-0.61438 6.82647,1.12554c1.88215,2.16342 -1.01516,11.25474 -1.48768,13.24124c-2.48314,10.43929 -2.64568,20.82662 -2.64568,31.4973c0,8.56001 0.63733,17.37841 -0.00815,25.91365c-0.77422,10.23753 -0.29476,19.93958 0.54518,30.12553c0.14358,1.7412 -0.28252,3.51327 -0.02491,5.24127c1.12938,7.5757 3.94778,15.05746 4.98901,22.74528c1.09066,8.05279 0.71542,15.81719 2.67161,23.77911c0.03276,4.95999 -0.57543,10.26727 0.72063,15.11449c1.8604,6.95782 3.80669,12.20481 3.67137,19.54744c-0.04794,2.60125 1.16574,5.64155 -0.2871,7.79983c-1.07587,1.59827 -3.76211,0.89091 -5.6808,1.06581c-3.33209,0.30374 -6.69912,0.21481 -10.03771,-0.00626c-10.10211,-0.66893 -19.91108,-2.683 -30.01582,-3.27657c-6.11093,-0.35897 -12.09618,0.53903 -18.17452,0.54128c-8.24343,1.26778 -16.63784,1.39908 -24.88453,2.70318c-7.25072,1.14661 -14.28345,2.31182 -21.60796,2.76443c-9.45121,0.58402 -19.15244,0.00626 -28.61763,0.00626c-7.08401,0 -14.04265,0.56133 -21.13873,0.52493c-5.11541,-1.19029 -10.56026,-0.83396 -15.40613,-2.87705c-1.71478,-0.72297 -4.05172,-0.86793 -5.01012,-2.46312c-0.98855,-1.64537 0.05714,-3.83862 0.07079,-5.75808c0.03184,-4.47658 -0.00815,-8.95524 -0.00815,-13.43205c0,-13.74997 0.2022,-27.39134 1.68102,-41.05905c0.45663,-4.2203 -0.30863,-8.57812 0.62302,-12.71955c0.0062,-0.02755 0.01246,-0.05509 0.01877,-0.0826l-0.01428,-0.00095l0.42931,-6.43973c0.09856,-1.70055 1.50881,-3.04917 3.23407,-3.04917c1.62605,0 2.97231,1.19801 3.20426,2.75953l0.46587,2.79523c2.4797,4.29235 4.52819,11.76454 9.55701,13.80402c6.39027,2.59163 14.98771,1.40702 21.74679,1.40702c12.91356,0 25.55232,0.47479 38.39956,1.64273c4.14751,-0.00326 8.8669,-0.51927 12.96843,-0.00333c0.46691,0.05874 0.76618,0.98268 1.18481,0.76772c0.36312,-0.18647 -0.53377,-0.66957 -0.58808,-1.07414c-0.14761,-1.09962 0.08207,-2.22221 -0.00289,-3.32843c-0.19583,-2.55016 -0.26403,-5.09679 -0.38603,-7.64391z" data-paper-data="{&quot;index&quot;:null}" fill="#834e4a" stroke="none" stroke-width="0.5" stroke-linecap="butt"/><path d="M618.58134,237.96724c0.97234,2.63793 1.9991,5.25219 2.8978,7.92498c0.38984,1.1594 1.10609,2.20004 1.42949,3.37972c0.11898,0.43402 -0.58349,1.31039 -0.13467,1.34338c0.51744,0.03804 0.42359,-1.02859 0.87224,-1.28916c3.94115,-2.28883 8.95357,-3.79611 13.16485,-5.57771c12.53778,-6.71443 25.16223,-12.63559 38.26997,-18.19307c6.86071,-2.90883 16.09722,-5.40642 21.46825,-10.78712c4.22672,-4.23435 3.09027,-12.70049 3.76002,-18.12453l-0.73009,-3.03775c-0.43657,-1.68483 0.41434,-3.48022 2.06484,-4.18c1.7512,-0.74248 3.76305,0.01951 4.59495,1.7032l3.20717,6.3518l-0.01409,0.00712c0.01824,0.02521 0.03646,0.05047 0.05459,0.07577c2.72797,3.80275 3.82664,8.55543 6.10638,12.64267c7.38309,13.23679 13.45903,26.99625 19.37648,40.95296c1.92664,4.54413 3.81348,9.10733 5.77235,13.63752c0.83991,1.94244 2.84521,3.71864 2.5499,5.81418c-0.28631,2.03163 -2.59599,3.18449 -4.02543,4.65631c-4.03947,4.15927 -9.71955,6.14085 -14.39961,9.5505c-7.18711,3.09082 -14.49194,5.51576 -21.68247,8.56443c-9.60751,4.07344 -19.20595,8.83491 -29.05062,12.30955c-7.62941,2.69275 -15.26936,4.53664 -23.12256,6.49321c-8.93191,2.22533 -17.50905,5.70467 -26.42203,7.96548c-6.17071,2.61359 -12.63242,4.2779 -18.68074,7.27217c-10.00123,4.95117 -19.09091,11.21691 -29.05703,16.24344c-3.29366,1.6612 -6.67304,3.2005 -10.18595,4.32619c-2.0228,0.64821 -4.44504,2.52224 -6.22489,1.36296c-2.40352,-1.56549 -2.48002,-5.17381 -3.64814,-7.79355c-3.29733,-7.39478 -3.57987,-13.55828 -4.68587,-21.42136c-0.77052,-5.47787 -3.67188,-10.6032 -5.7732,-15.65188c-1.44089,-8.92349 -5.16327,-16.64316 -7.52181,-25.2864c-2.25165,-8.25151 -2.61072,-17.05869 -4.72464,-25.23435c-0.48218,-1.86485 -1.67731,-3.48019 -2.28092,-5.30935c-3.53105,-10.70059 -7.21977,-20.75486 -12.41145,-30.81312c-4.32841,-8.38579 -7.47658,-17.61104 -11.16048,-26.29978c-4.59223,-10.83112 -9.22752,-21.3047 -16.24064,-30.83229c-1.33452,-1.81302 -8.18795,-9.79414 -7.20854,-12.8001c0.78766,-2.41751 4.20299,-2.88056 6.44474,-4.08029c3.78151,-2.0238 8.46675,-3.24212 12.41751,-4.74607c16.57991,-6.31144 34.6679,-12.10137 50.03727,-21.03887c2.1018,-1.33151 4.10585,-2.82038 6.04009,-4.38541l4.18081,-3.68734c0.29453,-0.27227 0.64029,-0.4992 1.03082,-0.66477c1.81606,-0.76999 3.91249,0.07803 4.68247,1.8941c0.23417,0.5523 0.31868,1.13051 0.27186,1.68947l-0.24848,3.96193l-0.38254,-0.02399c0.80498,5.81266 1.19499,11.63806 2.45236,17.47724c2.13535,9.91643 6.38883,20.26278 10.96498,29.32518c4.49891,8.90944 12.28712,15.15243 17.75216,23.47075c5.47741,8.33715 9.05402,18.12236 12.93279,27.27075c2.07568,4.89566 5.09499,10.11019 6.45359,15.25245c0.49583,1.87663 1.43919,3.90206 0.86993,5.75775c-0.33026,1.07661 -1.18874,1.84537 -2.1038,2.58114z" data-paper-data="{&quot;index&quot;:null}" fill="#834e4a" stroke="none" stroke-width="0.5" stroke-linecap="butt"/><g><path d="M510.44444,52.86557c-0.11137,-3.58928 2.70803,-6.58927 6.29732,-6.70063c3.58928,-0.11137 6.58927,2.70803 6.70063,6.29732c0.11137,3.58928 -2.70803,6.58927 -6.29732,6.70063c-3.58928,0.11137 -6.58927,-2.70803 -6.70063,-6.29732z" data-paper-data="{&quot;index&quot;:null}" fill="none" stroke="#000000" stroke-width="0" stroke-linecap="butt"/><path d="M467.02831,123.48071l-22.00187,-3.66855l-1.16606,4.91484l11.23783,0.96988l0.45053,10.27077l44.52968,58.283l-220.38811,37.46182l-68.08896,-32.46645l68.61103,-66.50743l4.48694,0.12449l4.31939,-5.2764l-74.76548,7.33039l-26.22853,-8.15236l-10.41043,-0.86369l-0.93343,-4.58597l-32.16893,-25.37298l-105.25127,105.25617l-48.03421,-42.68121l45.39628,-44.45947l2.65373,-12.21306l12.22627,-1.1705l22.2094,-22.57718l49.20156,13.37305l21.68265,-14.05613l71.97802,-4.73863l36.72935,-27.37895l68.01493,-4.97828l29.47829,-18.84704l74.40638,-2.968l32.62431,23.05137l79.35753,1.49334z" data-paper-data="{&quot;index&quot;:null}" fill="#5f5d68" stroke="#000000" stroke-width="1" stroke-linecap="round"/><path d="M-2.6505,167.83434l44.01167,38.31378l101.76626,-102.66674l35.8152,27.81462l9.61402,-0.90092l24.99202,9.16781l66.94808,-7.87756l-69.61638,67.54472l1.00581,3.28321l66.72491,33.48443l220.00669,-37.25899l0.74428,-5.14539l-44.5945,-58.27601l-0.54387,-7.81721l0.21695,-2.71853l13.94976,2.88159l3.57491,-1.31616l63.57885,-75.19149l14.87547,15.15466l-44.30424,53.09509l2.18941,2.56919l25.16745,3.70219l31.94628,-38.10863l-1.30526,-59.06381l29.73392,-2.1093l0.08718,66.55144l19.56572,18.64383l-3.03111,131.7849l-54.86145,3.94382l0.93973,13.28826l-50.2581,3.57024l-9.27243,-4.55799l-211.15623,43.90001l-26.01933,-14.15827l-0.54113,3.80764l-45.75377,-32.92873l-158.74633,26.81371l-54.82141,-63.04011z" data-paper-data="{&quot;index&quot;:null}" fill="#834e4a" stroke="#000000" stroke-width="1" stroke-linecap="round"/><path d="M-9.15511,164.43454l-0.89569,-7.61984l49.07965,43.43989l104.89107,-105.17906l32.63817,25.62213l0.94978,5.11289l9.88784,-0.0431l27.42226,8.37902l73.67463,-7.42838l-4.05591,5.26821l-71.25013,8.01245l-25.07566,-9.24297l-8.92895,1.20005l-35.95544,-28.42003l-102.4452,102.20236l-47.79597,-40.31522z" data-paper-data="{&quot;index&quot;:null}" fill="#cacaca" stroke="#000000" stroke-width="1" stroke-linecap="round"/><path d="M402.19697,133.47479l19.52984,-23.94446l18.06967,17.17392l-0.80765,3.71702l-5.6766,-0.21942l1.56008,37.53048l-19.31099,2.31332l-21.3326,-33.09314l0.40428,-3.9682z" data-paper-data="{&quot;index&quot;:null}" fill="#dfdde8" stroke="#000000" stroke-width="1" stroke-linecap="round"/><path d="M402.44815,133.07141l-16.51515,-1.06982l-2.63774,-4.2694l16.94712,2.24314l21.02405,-23.59524l20.77988,19.52916l-1.94324,1.11514l-18.47101,-17.35924z" data-paper-data="{&quot;index&quot;:null}" fill="#cacaca" stroke="#000000" stroke-width="1" stroke-linecap="round"/><path d="M411.48197,164.99687l-0.32324,-27.41595l14.32572,-1.49937l0.46724,27.80704z" data-paper-data="{&quot;index&quot;:null}" fill="#ffa800" stroke="#000000" stroke-width="1" stroke-linecap="round"/><path d="M487.76358,133.22615l0.28893,-3.43719l-0.08583,-2.7663l3.91098,-1.43993l4.23167,0.39611l2.5764,2.29347l0.2707,4.47469l9.19648,-1.07649l0.83698,31.22383l-29.81664,3.69414l-1.28121,-32.79229z" data-paper-data="{&quot;index&quot;:null}" fill="#ffa800" stroke="#000000" stroke-width="1" stroke-linecap="round"/><path d="M540.10968,167.20294l-1.19352,-38.46482l2.01365,-3.09516l3.73021,-3.01656l3.05838,0.82808l3.11968,2.80401l1.50216,1.66753l0.04158,35.33603z" data-paper-data="{&quot;index&quot;:null}" fill="#ffa800" stroke="#000000" stroke-width="1" stroke-linecap="round"/><path d="M594.52547,119.89244l2.49876,-0.20938l1.98821,0.33388l1.24279,1.80743l1.10696,1.67978l-0.87142,31.40869l-6.05953,0.18802z" data-paper-data="{&quot;index&quot;:null}" fill="#ffa800" stroke="#000000" stroke-width="1" stroke-linecap="round"/><path d="M591.92688,217.80998l-0.94324,-34.64877l8.02729,-0.51278l-0.40266,33.76754z" data-paper-data="{&quot;index&quot;:null}" fill="#ffa800" stroke="#000000" stroke-width="1" stroke-linecap="round"/><path d="M515.10793,264.13447l0.17497,-55.97818l4.36025,-3.9591l9.45679,-5.43579l6.96528,-0.74354l6.87851,0.70956l5.61843,2.59464l-1.2997,60.10059z" data-paper-data="{&quot;index&quot;:null}" fill="#cac8d3" stroke="#000000" stroke-width="1" stroke-linecap="round"/><path d="M518.85302,263.72159l0.2624,-51.03629l6.50971,-6.92662l4.81265,-2.12719l5.78791,-0.4433l4.36341,0.39202l-2.00431,58.63908z" data-paper-data="{&quot;index&quot;:null}" fill="#4a1f18" stroke="#000000" stroke-width="1" stroke-linecap="round"/><path d="M433.20332,271.91711l0.20739,-44.30995l7.93421,-7.76196l18.38167,-6.76755l16.62645,0.4071l8.22849,1.72252l-0.10519,47.60317z" data-paper-data="{&quot;index&quot;:null}" fill="#361617" stroke="#000000" stroke-width="1" stroke-linecap="round"/><path d="M367.44488,288.00014l-0.56664,-43.7585l3.32065,-7.71771l10.60148,-6.78988l14.97715,-6.00266l20.28216,-0.76118l6.03407,3.241l-0.32678,48.96156z" data-paper-data="{&quot;index&quot;:null}" fill="#361617" stroke="#000000" stroke-width="1" stroke-linecap="round"/><path d="M294.08263,302.3083l-1.63384,-48.40628l5.62032,-5.84418l11.35131,-4.93419l17.34419,-6.20796l15.55218,-0.21884l10.2453,2.97849l4.0949,4.48789l1.11807,44.53253z" data-paper-data="{&quot;index&quot;:null}" fill="#361617" stroke="#000000" stroke-width="1" stroke-linecap="round"/><path d="M266.76246,292.97015l-1.67471,-49.72355l3.53626,-0.76901l5.32638,1.68072l3.69565,4.36843l1.58895,51.2096z" data-paper-data="{&quot;index&quot;:null}" fill="#361617" stroke="#000000" stroke-width="1" stroke-linecap="round"/><path d="M291.59665,254.06032l6.53831,-6.00453l9.99598,-5.05695l12.91035,-4.61998l0.6952,39.40326l-28.71374,5.24218z" data-paper-data="{&quot;index&quot;:null}" fill="#cac8d3" stroke="#000000" stroke-width="1" stroke-linecap="round"/><path d="M303.69153,269.90327l-0.90014,-24.76094l10.43203,-3.75193l0.99416,27.79072z" data-paper-data="{&quot;index&quot;:null}" fill="#ba00ff" stroke="#000000" stroke-width="1" stroke-linecap="round"/><path d="M291.5017,255.24997l2.39657,-3.50262l4.24077,-3.55982l1.00735,23.96647l-6.71818,0.20847z" data-paper-data="{&quot;index&quot;:null}" fill="#ba00ff" stroke="#000000" stroke-width="1" stroke-linecap="round"/><path d="M395.06424,224.11612l8.54604,-0.79259l12.51013,-0.52003l6.30572,3.4963l-0.7551,26.65827l-32.23772,6.40637l-0.49901,-33.0803z" data-paper-data="{&quot;index&quot;:null}" fill="#cac8d3" stroke="#000000" stroke-width="1" stroke-linecap="round"/><path d="M395.31954,223.84449l4.59825,-0.53824l0.74297,28.19407l-8.24987,1.83824l-0.49994,-28.86088z" data-paper-data="{&quot;index&quot;:null}" fill="#ba00ff" stroke="#000000" stroke-width="1" stroke-linecap="round"/><path d="M414.80315,222.84438l2.3696,25.37462l-9.95825,2.02312l-0.9819,-27.39552z" data-paper-data="{&quot;index&quot;:null}" fill="#ba00ff" stroke="#000000" stroke-width="1" stroke-linecap="round"/><path d="M432.76639,228.08865l2.65595,-3.64252l7.97098,-6.57639l9.29554,-2.13439l0.4663,32.02645l-20.0932,2.60131z" data-paper-data="{&quot;index&quot;:null}" fill="#cac8d3" stroke="#000000" stroke-width="1" stroke-linecap="round"/><path d="M442.86643,217.88608l2.76629,-0.08584l0.21699,23.99101l-8.51332,1.84641l-0.64173,-20.68142z" data-paper-data="{&quot;index&quot;:null}" fill="#ffa800" stroke="#000000" stroke-width="1" stroke-linecap="round"/><path d="M506.30692,119.66297l0.53965,-1.73085l23.72662,4.01061l34.39953,-41.90967l0.37289,7.76791l-30.40053,37.99474l-27.53857,-3.62863z" data-paper-data="{&quot;index&quot;:null}" fill="#cacaca" stroke="#000000" stroke-width="1" stroke-linecap="round"/><path d="M593.63836,82.8026l28.63174,30.3614l-3.98958,3.15646l-25.14234,-24.14058z" data-paper-data="{&quot;index&quot;:null}" fill="#cacaca" stroke="#000000" stroke-width="1" stroke-linecap="round"/><path d="M549.91345,66.39175l-14.68043,-14.18047l-60.48403,71.33172l-5.79292,4.53098l-25.45545,-4.48438l0.25622,-4.49105l23.05979,3.7676l70.16516,-81.22459l18.84891,21.03947z" data-paper-data="{&quot;index&quot;:null}" fill="#cacaca" stroke="#000000" stroke-width="1" stroke-linecap="round"/><path d="M554.8729,62.67776l10.21891,-0.05337l-0.3764,18.20777l-34.08992,41.20783l-24.591,-3.72006l45.04644,-52.16216z" data-paper-data="{&quot;index&quot;:null}" fill="#5f5d68" stroke="#000000" stroke-width="1" stroke-linecap="round"/><path d="M498.82198,199.27234l-220.50429,36.90504l-67.63074,-33.63439l0.66775,-3.9764l67.98914,32.43658l219.44229,-37.13579z" data-paper-data="{&quot;index&quot;:null}" fill="#cacaca" stroke="#000000" stroke-width="1" stroke-linecap="round"/><path d="M258.25716,226.02062l-0.02475,37.4478l-7.97323,-1.99414l-0.4899,-37.03625z" data-paper-data="{&quot;index&quot;:null}" fill="#ba00ff" stroke="#000000" stroke-width="1" stroke-linecap="round"/><path d="M226.50914,209.96336l0.48358,28.33398l-4.96389,-2.74679l-0.19563,-27.55177z" data-paper-data="{&quot;index&quot;:null}" fill="#ba00ff" stroke="#000000" stroke-width="1" stroke-linecap="round"/><path d="M215.84576,236.0061l-10.54555,-4.15588l-1.98165,-29.86973l10.953,4.53881z" data-paper-data="{&quot;index&quot;:null}" fill="#ba00ff" stroke="#000000" stroke-width="1" stroke-linecap="round"/><path d="M203.17521,184.61292l-1.86341,-38.80665l12.01502,4.76957l0.8249,39.33333z" data-paper-data="{&quot;index&quot;:null}" fill="#003cff" stroke="#000000" stroke-width="1" stroke-linecap="round"/><path d="M133.52267,167.6221l-1.50379,-31.46685l28.67602,-2.20832l1.11781,31.7755z" data-paper-data="{&quot;index&quot;:null}" fill="#003cff" stroke="#000000" stroke-width="1" stroke-linecap="round"/><path d="M166.86878,230.93301l-31.26971,3.60736l-2.52901,-30.51206l32.15911,-4.68982z" data-paper-data="{&quot;index&quot;:null}" fill="#003cff" stroke="#000000" stroke-width="1" stroke-linecap="round"/><path d="M87.01805,132.80478l-36.70668,36.60814l-12.61138,-6.99259l-0.81153,-34.65286l2.49943,-17.18583l9.93128,26.85411z" data-paper-data="{&quot;index&quot;:null}" fill="#dfdde8" stroke="#000000" stroke-width="1" stroke-linecap="round"/><path d="M39.91328,136.01346l7.75975,-0.63636l0.61942,28.46161l-7.51578,-4.2499l-1.01962,-24.36165z" data-paper-data="{&quot;index&quot;:null}" fill="#003cff" stroke="#000000" stroke-width="1" stroke-linecap="round"/><path d="M36.90991,128.45902l-3.67614,0.50963l4.83893,-27.83986l12.04211,31.13987l44.6979,-4.28774l-2.88671,4.70453l-43.63589,4.5185l-8.86928,-26.62336z" data-paper-data="{&quot;index&quot;:null}" fill="#cacaca" stroke="#000000" stroke-width="1" stroke-linecap="round"/><path d="M2.46756,227.41961l-0.48468,-36.86781l6.08313,4.82175l2.43244,40.14772z" data-paper-data="{&quot;index&quot;:null}" fill="#003cff" stroke="#000000" stroke-width="1" stroke-linecap="round"/><path d="M12.32129,239.0248l-1.15579,-41.49869l9.39583,9.59765l1.14354,41.1035z" data-paper-data="{&quot;index&quot;:null}" fill="#003cff" stroke="#000000" stroke-width="1" stroke-linecap="round"/><path d="M24.0914,252.89998l-1.57142,-42.14506l9.90641,9.05438l1.47647,43.33471z" data-paper-data="{&quot;index&quot;:null}" fill="#003cff" stroke="#000000" stroke-width="1" stroke-linecap="round"/><path d="M36.42113,267.81268l-1.51324,-44.52026l10.46603,10.09185l2.51302,46.99451z" data-paper-data="{&quot;index&quot;:null}" fill="#003cff" stroke="#000000" stroke-width="1" stroke-linecap="round"/><path d="M528.54714,60.61461c-0.0974,-3.13896 2.36827,-5.76256 5.50725,-5.85996c3.13896,-0.0974 5.76255,2.36828 5.85995,5.50725c0.0974,3.13896 -2.36827,5.76256 -5.50724,5.85995c-3.13896,0.0974 -5.76256,-2.36827 -5.85996,-5.50725z" data-paper-data="{&quot;index&quot;:null}" fill="#557067" stroke="#000000" stroke-width="1" stroke-linecap="butt"/><path d="M202.30959,145.69196l-0.37445,-2.05892l1.32604,-3.97515l2.53433,-1.73506l3.12207,0.52429l1.94513,2.63135l0.37942,8.89152z" data-paper-data="{&quot;index&quot;:null}" fill="#003cff" stroke="#000000" stroke-width="1" stroke-linecap="round"/><path d="M332.2401,158.41762c0.55068,1.02093 -0.47023,1.57161 -0.47023,1.57161l-0.4172,0.22114c-0.11303,0.07224 -0.22519,0.14581 -0.33647,0.22068c9.82659,-3.18995 22.07924,0.38009 26.39827,10.05558c3.99247,15.6319 -17.19621,25.47388 -29.72815,19.70737c-11.66932,-8.16133 -8.2577,-25.02636 2.41165,-31.93497l0.57055,-0.31165c0,0 1.02093,-0.55068 1.57161,0.47023zM326.10719,165.32392c-4.87405,7.04958 -5.19745,17.25703 2.73698,22.85972c10.61197,4.92528 29.78528,-3.55408 26.37981,-16.93287c-4.57389,-10.14519 -19.66702,-12.46609 -28.44355,-6.15766c0,0 -0.29525,0.21034 -0.67322,0.2308z" fill="#000000" stroke="none" stroke-width="0.5" stroke-linecap="butt"/><path d="M326.72136,165.0432c8.77654,-6.30843 24.00347,-3.95748 28.57736,6.1877c3.40546,13.37878 -15.89137,21.93804 -26.50334,17.01274c-7.93443,-5.6027 -7.62312,-15.91784 -2.74905,-22.96742c0.37797,-0.02046 0.67502,-0.23302 0.67502,-0.23302z" data-paper-data="{&quot;noHover&quot;:false,&quot;origItem&quot;:[&quot;Path&quot;,{&quot;applyMatrix&quot;:true,&quot;segments&quot;:[[[338.29931,155.61142],[0.37068,-0.07666],[-3.76687,7.6983]],[[344.41875,177.80626],[-8.68201,-4.35522],[11.2284,3.28563]],[[367.97464,157.12448],[5.36486,12.72035],[-6.03738,-9.34855]],[[338.93052,155.28269],[7.73626,-7.54812],[0,0]]],&quot;closed&quot;:true}]}" fill="#710000" stroke="none" stroke-width="0.5" stroke-linecap="butt"/><path d="M387.72166,138.03933c0.03598,1.15939 -1.12344,1.19538 -1.12344,1.19538l-0.37626,0.01167c-4.02745,0.12496 -7.99837,0.44234 -12.00581,0.86566c-7.92069,1.6587 -15.67513,3.36761 -23.40807,5.7329c-1.85161,0.56636 -7.70347,2.52037 -9.32303,1.24512c-0.63402,-0.49924 0.09214,-1.61833 0.26679,-2.40618c0.73875,-3.3329 2.55473,-6.06553 4.50362,-8.81147c9.13139,-8.1996 21.48478,-14.0225 32.74646,-18.49026c0,0 1.07976,-0.42384 1.5036,0.65594c0.42384,1.07976 -0.65594,1.5036 -0.65594,1.5036c-10.94583,4.2438 -22.97704,9.99948 -31.86282,17.87496c-1.40707,2.00723 -2.60491,3.80631 -3.34572,6.112c-0.2541,0.79086 -1.91008,2.71248 -1.36822,2.08287c1.24372,-1.44513 5.05081,-1.43089 6.85576,-1.98475c7.83539,-2.4043 15.69788,-4.13706 23.72765,-5.80656c4.10323,-0.43859 8.16955,-0.76466 12.29381,-0.89262l0.37626,-0.01167c0,0 1.15939,-0.03598 1.19538,1.12344z" fill="#000000" stroke="none" stroke-width="0.5" stroke-linecap="butt"/><path d="M267.7183,146.40771c-0.03598,-1.15939 1.12344,-1.19538 1.12344,-1.19538l0.98269,-0.02122c4.05779,-0.64476 8.11341,-1.13874 12.22285,-1.26731c10.34332,-0.31487 21.0064,0.56016 31.36254,1.06096c2.98989,0.14459 7.04307,-0.33108 10.29391,0.27358c-1.57488,-0.99003 -3.16417,-1.79179 -4.94413,-2.58974c-4.89613,-2.82156 -8.8432,-7.3014 -14.23413,-9.21693c-4.22704,-1.50197 -8.8045,-1.35062 -13.22081,-1.68978c-2.82632,-0.21705 -5.49236,-0.76078 -8.16878,0.32142c0,0 -1.07976,0.42384 -1.5036,-0.65594c-0.42384,-1.07976 0.65594,-1.5036 0.65594,-1.5036c3.08623,-1.18213 5.95898,-0.72349 9.19409,-0.47501c6.23557,0.47894 12.4646,0.44286 18.02977,3.75933c3.64666,2.17316 6.59927,5.25516 10.30239,7.39427c2.5222,1.12673 4.71181,2.30638 6.96206,3.93431l0.00125,0.00162l0.00035,-0.00047l1.14632,0.83584c0.28434,0.2032 0.47397,0.53205 0.48566,0.90834c0.01901,0.61279 -0.44081,1.12929 -1.04161,1.18999l-2.29517,0.25547l-0.03664,-0.32927c-4.58886,0.68495 -9.36573,-0.02257 -14.04601,-0.20784c-9.55201,-0.37814 -19.33651,-1.24947 -28.87145,-0.94775c-4.0112,0.12342 -7.97021,0.61036 -11.93074,1.23966l-1.2748,0.04884c0,0 -1.15939,0.03598 -1.19538,-1.12344z" fill="#000000" stroke="none" stroke-width="0.5" stroke-linecap="butt"/></g><path d="M-546.54655,598.16817v-836.33634h1733.09309v836.33634z" fill="none" stroke="#f00000" stroke-width="0" stroke-linecap="butt"/></g></g></svg>