<svg version="1.1" xmlns="http://www.w3.org/2000/svg" xmlns:xlink="http://www.w3.org/1999/xlink" width="1733.09309" height="836.33634" viewBox="0,0,1733.09309,836.33634"><g transform="translate(546.54655,238.16817)"><g data-paper-data="{&quot;isPaintingLayer&quot;:true}" fill-rule="nonzero" stroke-linejoin="miter" stroke-miterlimit="10" stroke-dasharray="" stroke-dashoffset="0" style="mix-blend-mode: normal"><path d="M139.92165,278.58959c-1.02466,-0.29044 -2.01373,-0.62846 -2.6707,-1.41057c-1.13239,-1.34808 -1.06173,-3.37345 -1.31212,-5.11613c-0.68613,-4.77519 -0.01104,-10.19869 -0.01104,-15.02183c0,-9.01287 -0.4778,-18.45055 1.14439,-27.35198c1.61853,-8.88133 5.91188,-16.85216 6.51432,-25.88505c0.6128,-9.18797 0.50156,-19.33388 -1.22627,-28.37086c-1.01741,-5.32133 -2.75426,-10.32402 -4.14006,-15.46302l-0.31095,0.15547l-1.61026,-3.22052c-0.23701,-0.45019 -0.37115,-0.96298 -0.37115,-1.50709c0,-1.78917 1.45041,-3.23958 3.23958,-3.23958c0.38474,0 0.75382,0.06708 1.09618,0.19017l4.79682,1.59894c2.16934,0.62208 4.37001,1.15584 6.59659,1.52359c15.99893,2.0218 33.15366,0.45261 49.23369,-0.14713c3.83164,-0.14291 8.17553,-0.78437 12.04989,-0.43322c2.2968,0.20817 5.31277,-0.61438 6.82647,1.12554c1.88215,2.16342 -1.01516,11.25474 -1.48768,13.24124c-2.48314,10.43929 -2.64568,20.82662 -2.64568,31.4973c0,8.56001 0.63733,17.37841 -0.00815,25.91365c-0.77422,10.23753 -0.29476,19.93958 0.54518,30.12553c0.14358,1.7412 -0.28252,3.51327 -0.02491,5.24127c1.12938,7.5757 3.94778,15.05746 4.98901,22.74528c1.09066,8.05279 0.71542,15.81719 2.67161,23.77911c0.03276,4.95999 -0.57543,10.26727 0.72063,15.11449c1.8604,6.95782 3.80669,12.20481 3.67137,19.54744c-0.04794,2.60125 1.16574,5.64155 -0.2871,7.79983c-1.07587,1.59827 -3.76211,0.89091 -5.6808,1.06581c-3.33209,0.30374 -6.69912,0.21481 -10.03771,-0.00626c-10.10211,-0.66893 -19.91108,-2.683 -30.01582,-3.27657c-6.11093,-0.35897 -12.09618,0.53903 -18.17452,0.54128c-8.24343,1.26778 -16.63784,1.39908 -24.88453,2.70318c-7.25072,1.14661 -14.28345,2.31182 -21.60796,2.76443c-9.45121,0.58402 -19.15244,0.00626 -28.61763,0.00626c-7.08401,0 -14.04265,0.56133 -21.13873,0.52493c-5.11541,-1.19029 -10.56026,-0.83396 -15.40613,-2.87705c-1.71478,-0.72297 -4.05172,-0.86793 -5.01012,-2.46312c-0.98855,-1.64537 0.05714,-3.83862 0.07079,-5.75808c0.03184,-4.47658 -0.00815,-8.95524 -0.00815,-13.43205c0,-13.74997 0.2022,-27.39134 1.68102,-41.05905c0.45663,-4.2203 -0.30863,-8.57812 0.62302,-12.71955c0.0062,-0.02755 0.01246,-0.05509 0.01877,-0.0826l-0.01428,-0.00095l0.42931,-6.43973c0.09856,-1.70055 1.50881,-3.04917 3.23407,-3.04917c1.62605,0 2.97231,1.19801 3.20426,2.75953l0.46587,2.79523c2.4797,4.29235 4.52819,11.76454 9.55701,13.80402c6.39027,2.59163 14.98771,1.40702 21.74679,1.40702c12.91356,0 25.55232,0.47479 38.39956,1.64273c4.14751,-0.00326 8.8669,-0.51927 12.96843,-0.00333c0.46691,0.05874 0.76618,0.98268 1.18481,0.76772c0.36312,-0.18647 -0.53377,-0.66957 -0.58808,-1.07414c-0.14761,-1.09962 0.08207,-2.22221 -0.00289,-3.32843c-0.19583,-2.55016 -0.26403,-5.09679 -0.38603,-7.64391z" data-paper-data="{&quot;index&quot;:null}" fill="#834e4a" stroke="none" stroke-width="0.5" stroke-linecap="butt"/><path d="M717.08546,172.65947c2.26628,1.66376 4.56489,3.27776 6.78898,5.01122c0.96477,0.75194 2.13626,1.22475 3.0568,2.03025c0.33868,0.29636 0.23625,1.41484 0.62879,1.19475c0.45256,-0.25373 -0.21416,-1.09159 0.01629,-1.55643c2.02444,-4.08327 5.37354,-8.10568 7.90311,-11.91491c6.75299,-12.51705 14.0159,-24.42029 21.88254,-36.28682c4.11747,-6.21104 10.44337,-13.38977 11.95468,-20.84067c1.18932,-5.86348 -4.42915,-12.29776 -6.86288,-17.1912l-2.2848,-2.13088c-1.29361,-1.16439 -1.57438,-3.13128 -0.58383,-4.62549c1.05099,-1.58537 3.14936,-2.05973 4.77206,-1.11438l6.17912,3.52842l-0.00782,0.01371c0.02912,0.01096 0.05825,0.02198 0.08733,0.03308c4.37318,1.66674 7.91149,5.02463 12.06777,7.17593c13.46038,6.96712 26.11888,15.0913 38.754,23.46744c4.11383,2.72717 8.20499,5.4922 12.33801,8.18996c1.77214,1.15674 4.42456,1.53191 5.33432,3.44262c0.88201,1.85244 -0.40838,4.0882 -0.78864,6.10437c-1.07456,5.69756 -4.71886,10.48389 -6.74126,15.90963c-4.28931,6.5429 -9.04415,12.59537 -13.35956,19.105c-5.76596,8.69775 -11.14479,17.96435 -17.43891,26.2935c-4.87782,6.4549 -10.23273,12.20761 -15.70333,18.17195c-6.22204,6.78361 -11.45637,14.41741 -17.64305,21.22016c-3.70485,5.58414 -8.17611,10.53706 -11.56887,16.37119c-5.61012,9.64703 -9.73474,19.8876 -15.274,29.57812c-1.83065,3.20258 -3.80004,6.35078 -6.10898,9.22767c-1.32953,1.65658 -2.31594,4.55593 -4.43999,4.57093c-2.86832,0.02027 -4.92276,-2.94707 -7.3423,-4.48765c-6.82971,-4.34859 -10.46565,-9.33342 -15.72601,-15.28151c-3.66469,-4.14377 -8.91213,-6.81796 -13.45,-9.86958c-6.1247,-6.64778 -13.48815,-11.03285 -20.22361,-16.94064c-6.4302,-5.64003 -11.58843,-12.78762 -17.8619,-18.44037c-1.43097,-1.28938 -3.31892,-1.97734 -4.83148,-3.16996c-8.84839,-6.97688 -17.47174,-13.32771 -27.35083,-18.85271c-8.23641,-4.60632 -15.95155,-10.56391 -23.81753,-15.77847c-9.80549,-6.50032 -19.44965,-12.67867 -30.55516,-16.75621c-2.11327,-0.77593 -12.23244,-3.65173 -13.07389,-6.69919c-0.67674,-2.45088 1.91638,-4.72125 3.12426,-6.95863c2.0375,-3.77414 5.27313,-7.37505 7.73859,-10.80898c10.34667,-14.4109 22.23888,-29.21881 30.12715,-45.15216c1.01845,-2.27007 1.86856,-4.61747 2.61843,-6.98988l1.4528,-5.38192c0.09545,-0.38958 0.25864,-0.7696 0.49302,-1.12314c1.08991,-1.6441 3.30628,-2.09336 4.95038,-1.00344c0.5,0.33146 0.88948,0.7671 1.15879,1.25913l1.97847,3.44155l-0.33229,0.19103c3.87813,4.40399 7.41717,9.04754 11.68725,13.22407c7.2517,7.09283 16.50721,13.3757 25.32352,18.40968c8.6675,4.94901 18.60744,5.85941 27.75464,9.7824c9.1679,3.93187 17.5493,10.12014 25.8314,15.61056c4.43207,2.93814 9.8271,5.62166 13.79713,9.16108c1.44885,1.29168 3.35305,2.46056 3.902,4.32236c0.31849,1.08015 0.02658,2.19494 -0.33072,3.31344z" data-paper-data="{&quot;index&quot;:null}" fill="#834e4a" stroke="none" stroke-width="0.5" stroke-linecap="butt"/><g><path d="M537.58584,5.85671c-0.47659,-3.55924 2.02238,-6.83095 5.58163,-7.30754c3.55924,-0.47659 6.83095,2.02238 7.30754,5.58163c0.47659,3.55924 -2.02238,6.83095 -5.58163,7.30754c-3.55924,0.47659 -6.83095,-2.02238 -7.30754,-5.58163z" data-paper-data="{&quot;index&quot;:null}" fill="none" stroke="#000000" stroke-width="0" stroke-linecap="butt"/><path d="M501.59258,80.52895l-22.26119,-1.40711l-0.65909,5.00809l11.27816,-0.18048l1.49494,10.17137l50.23778,53.44124l-215.4226,59.7278l-71.04327,-25.35805l61.47561,-73.15368l4.47626,-0.33345l3.75915,-5.68914l-73.62909,14.91201l-26.92281,-5.43681l-10.44425,0.2018l-1.39595,-4.46696l-34.58734,-21.96234l-93.97596,115.43488l-52.13399,-37.56352l40.62878,-48.85457l1.39521,-12.41992l12.04332,-2.41046l19.79278,-24.72311l50.30829,8.289l20.13721,-16.19275l71.12029,-12.04966l33.74775,-30.97969l67.15341,-11.88416l27.40399,-21.75321l73.71646,-10.53573l34.80374,19.60641l79.09651,-6.60223z" data-paper-data="{&quot;index&quot;:null}" fill="#5f5d68" stroke="#000000" stroke-width="1" stroke-linecap="round"/><path d="M38.87972,172.51934l47.68728,33.62879l90.773,-112.50375l38.46346,24.01965l9.47214,-1.87605l25.79623,6.57299l65.79663,-14.65961l-62.37001,74.28803l1.33518,3.16361l69.79007,26.50975l215.06384,-59.48715l0.21601,-5.19445l-50.30155,-53.42768l-1.33774,-7.72108l-0.06124,-2.72649l14.1708,1.44488l3.42216,-1.67365l55.58459,-81.27966l16.34251,13.5597l-38.66232,57.33393l2.43985,2.33268l25.41372,1.11795l27.89606,-41.16603l-7.318,-58.62324l29.36413,-5.12867l6.86937,66.19602l21.36394,16.5527l10.41564,131.40762l-54.17385,9.51454l2.28912,13.1233l-49.63254,8.67375l-9.68868,-3.58925l-205.58264,65.19159l-27.3268,-11.43277l-0.15025,3.84296l-48.87149,-28.09424l-155.187,42.85286l-60.96074,-57.12469z" data-paper-data="{&quot;index&quot;:null}" fill="#834e4a" stroke="#000000" stroke-width="1" stroke-linecap="round"/><path d="M32.06248,169.80017l-1.66761,-7.48888l53.25131,38.21171l93.62549,-115.32146l35.07952,22.16237l1.46592,4.98947l9.83196,-1.0506l28.13343,5.54063l72.53394,-14.89831l-3.49788,5.65414l-70.06254,15.23225l-25.8871,-6.63923l-8.76015,2.1038l-38.66467,-24.60762l-91.49573,112.11098l-51.65586,-35.23413z" data-paper-data="{&quot;index&quot;:null}" fill="#cacaca" stroke="#000000" stroke-width="1" stroke-linecap="round"/><path d="M438.11737,97.07833l16.98783,-25.81018l19.72588,15.24291l-0.42462,3.77998l-5.6694,0.36026l5.37691,37.17606l-18.97467,4.26937l-24.59424,-30.74669l-0.00225,-3.98874z" data-paper-data="{&quot;index&quot;:null}" fill="#dfdde8" stroke="#000000" stroke-width="1" stroke-linecap="round"/><path d="M438.32613,96.65145l-16.53819,0.61891l-3.05912,-3.97834l17.08749,0.50428l18.50985,-25.61506l22.66201,17.30967l-1.81947,1.30738l-20.14401,-15.38636z" data-paper-data="{&quot;index&quot;:null}" fill="#cacaca" stroke="#000000" stroke-width="1" stroke-linecap="round"/><path d="M450.56662,127.48999l-3.11568,-27.24025l14.09832,-2.95158l3.29879,27.61463z" data-paper-data="{&quot;index&quot;:null}" fill="#ffa800" stroke="#000000" stroke-width="1" stroke-linecap="round"/><path d="M523.2131,88.11039l-0.06288,-3.44874l-0.36731,-2.74315l3.74386,-1.83102l4.25001,-0.03723l2.79673,2.01895l0.72533,4.4238l9.03888,-2.00815l4.01483,30.97595l-29.28489,6.71369l-4.61659,-32.49097z" data-paper-data="{&quot;index&quot;:null}" fill="#ffa800" stroke="#000000" stroke-width="1" stroke-linecap="round"/><path d="M578.74941,116.57537l-5.10748,-38.1429l1.68772,-3.28427l3.40335,-3.38102l3.12685,0.51207l3.38921,2.47146l1.66429,1.50575l3.64266,35.1478z" data-paper-data="{&quot;index&quot;:null}" fill="#ffa800" stroke="#000000" stroke-width="1" stroke-linecap="round"/><path d="M628.06017,63.96538l2.46441,-0.46295l2.01188,0.12951l1.42052,1.67136l1.27239,1.55822l2.33416,31.33396l-6.00882,0.8046z" data-paper-data="{&quot;index&quot;:null}" fill="#ffa800" stroke="#000000" stroke-width="1" stroke-linecap="round"/><path d="M635.45446,161.63791l-4.46959,-34.37222l7.93323,-1.32822l3.04088,33.63275z" data-paper-data="{&quot;index&quot;:null}" fill="#ffa800" stroke="#000000" stroke-width="1" stroke-linecap="round"/><path d="M563.7567,215.55025l-5.531,-55.70454l3.93405,-4.38286l8.85356,-6.37128l6.85323,-1.44954l6.91501,0.00484l5.85361,2.00852l4.83227,59.92011z" data-paper-data="{&quot;index&quot;:null}" fill="#cac8d3" stroke="#000000" stroke-width="1" stroke-linecap="round"/><path d="M567.44021,214.75784l-4.94037,-50.79729l5.76988,-7.554l4.5708,-2.6066l5.71259,-1.03087l4.38064,-0.05472l3.98238,58.53802z" data-paper-data="{&quot;index&quot;:null}" fill="#4a1f18" stroke="#000000" stroke-width="1" stroke-linecap="round"/><path d="M483.07174,231.63975l-4.30958,-44.10037l7.10183,-8.53017l17.59624,-8.6057l16.58137,-1.28952l8.3612,0.87494l4.74687,47.36602z" data-paper-data="{&quot;index&quot;:null}" fill="#361617" stroke="#000000" stroke-width="1" stroke-linecap="round"/><path d="M419.29482,254.34086l-5.02337,-43.4729l2.5168,-8.01595l9.85428,-7.83498l14.2874,-7.49781l20.09897,-2.82429l6.33296,2.60916l4.66488,48.73992z" data-paper-data="{&quot;index&quot;:null}" fill="#361617" stroke="#000000" stroke-width="1" stroke-linecap="round"/><path d="M347.77279,276.05129l-6.5587,-47.98772l4.99544,-6.38655l10.78933,-6.06538l16.62119,-7.94328l15.4489,-1.80271l10.49551,1.91882l4.53097,4.04719l5.65082,44.1867z" data-paper-data="{&quot;index&quot;:null}" fill="#361617" stroke="#000000" stroke-width="1" stroke-linecap="round"/><path d="M319.64317,269.54613l-6.73361,-49.29396l3.43947,-1.12541l5.46994,1.12913l4.12162,3.96904l6.79975,50.78101z" data-paper-data="{&quot;index&quot;:null}" fill="#361617" stroke="#000000" stroke-width="1" stroke-linecap="round"/><path d="M340.38252,228.3079l5.89231,-6.63962l9.42855,-6.04937l12.37228,-5.91169l4.7074,39.12724l-28.02997,8.14127z" data-paper-data="{&quot;index&quot;:null}" fill="#cac8d3" stroke="#000000" stroke-width="1" stroke-linecap="round"/><path d="M354.02907,242.8357l-3.41898,-24.54027l9.99533,-4.79558l3.8213,27.54469z" data-paper-data="{&quot;index&quot;:null}" fill="#ba00ff" stroke="#000000" stroke-width="1" stroke-linecap="round"/><path d="M340.40931,229.50103l2.02712,-3.72863l3.85589,-3.97349l3.44467,23.73901l-6.66195,0.89207z" data-paper-data="{&quot;index&quot;:null}" fill="#ba00ff" stroke="#000000" stroke-width="1" stroke-linecap="round"/><path d="M440.25957,187.97463l8.42076,-1.65944l12.39199,-1.7923l6.62921,2.83544l1.96573,26.59642l-31.41695,9.65855l-3.86782,-32.85719z" data-paper-data="{&quot;index&quot;:null}" fill="#cac8d3" stroke="#000000" stroke-width="1" stroke-linecap="round"/><path d="M440.48586,187.6784l4.51945,-1.00407l3.61252,27.97154l-8.01957,2.66946l-3.43872,-28.65965z" data-paper-data="{&quot;index&quot;:null}" fill="#ba00ff" stroke="#000000" stroke-width="1" stroke-linecap="round"/><path d="M459.76609,184.69781l4.94334,25.00099l-9.70021,3.02749l-3.76882,-27.1528z" data-paper-data="{&quot;index&quot;:null}" fill="#ba00ff" stroke="#000000" stroke-width="1" stroke-linecap="round"/><path d="M478.17027,188.08403l2.27089,-3.89424l7.25924,-7.35452l9.02961,-3.07064l3.72788,31.81217l-19.72346,4.63558z" data-paper-data="{&quot;index&quot;:null}" fill="#cac8d3" stroke="#000000" stroke-width="1" stroke-linecap="round"/><path d="M487.17791,176.90523l2.74314,-0.36732l2.66092,23.84398l-8.28081,2.70444l-2.74615,-20.50833z" data-paper-data="{&quot;index&quot;:null}" fill="#ffa800" stroke="#000000" stroke-width="1" stroke-linecap="round"/><path d="M540.27758,72.72798l0.36044,-1.77684l24.01182,1.57161l29.94915,-45.1973l1.16262,7.68946l-26.36997,40.8952l-27.76499,-0.80312z" data-paper-data="{&quot;index&quot;:null}" fill="#cacaca" stroke="#000000" stroke-width="1" stroke-linecap="round"/><path d="M623.39763,27.15908l31.57696,27.28528l-3.64711,3.54663l-27.47173,-21.45248z" data-paper-data="{&quot;index&quot;:null}" fill="#cacaca" stroke="#000000" stroke-width="1" stroke-linecap="round"/><path d="M578.22787,15.28994l-16.0492,-12.61046l-52.89926,77.12458l-5.30098,5.09778l-25.77993,-1.86672l-0.20282,-4.49378l23.3237,1.39782l61.52174,-87.9526l20.89502,19.00892z" data-paper-data="{&quot;index&quot;:null}" fill="#cacaca" stroke="#000000" stroke-width="1" stroke-linecap="round"/><path d="M582.78298,11.08984l10.16026,-1.09456l1.48122,18.15132l-29.71268,44.46756l-24.84209,-1.19448l39.49573,-56.4815z" data-paper-data="{&quot;index&quot;:null}" fill="#5f5d68" stroke="#000000" stroke-width="1" stroke-linecap="round"/><path d="M540.94507,152.68566l-215.59492,59.18576l-70.70647,-26.56661l0.25901,-4.02375l70.94092,25.33851l214.51493,-59.30707z" data-paper-data="{&quot;index&quot;:null}" fill="#cacaca" stroke="#000000" stroke-width="1" stroke-linecap="round"/><path d="M304.35894,203.81202l3.7919,37.25533l-8.13495,-1.17116l-4.26193,-36.79347z" data-paper-data="{&quot;index&quot;:null}" fill="#ba00ff" stroke="#000000" stroke-width="1" stroke-linecap="round"/><path d="M271.13974,191.074l3.36874,28.13716l-5.21798,-2.22659l-3.00257,-27.38837z" data-paper-data="{&quot;index&quot;:null}" fill="#ba00ff" stroke="#000000" stroke-width="1" stroke-linecap="round"/><path d="M263.18605,218.0679l-10.91419,-3.05948l-5.01553,-29.51224l11.35854,3.39889z" data-paper-data="{&quot;index&quot;:null}" fill="#ba00ff" stroke="#000000" stroke-width="1" stroke-linecap="round"/><path d="M245.3437,168.23366l-5.80872,-38.41467l12.43855,3.52021l4.82929,39.04445z" data-paper-data="{&quot;index&quot;:null}" fill="#003cff" stroke="#000000" stroke-width="1" stroke-linecap="round"/><path d="M174.3222,158.43001l-4.70293,-31.14974l28.30164,-5.11936l4.35042,31.49612z" data-paper-data="{&quot;index&quot;:null}" fill="#003cff" stroke="#000000" stroke-width="1" stroke-linecap="round"/><path d="M213.94707,218.01276l-30.73924,6.77546l-5.6255,-30.09544l31.51369,-7.94292z" data-paper-data="{&quot;index&quot;:null}" fill="#003cff" stroke="#000000" stroke-width="1" stroke-linecap="round"/><path d="M124.5113,128.53354l-32.7846,40.15851l-13.25837,-5.67088l-4.33898,-34.38972l0.73491,-17.35108l12.61643,25.70213z" data-paper-data="{&quot;index&quot;:null}" fill="#dfdde8" stroke="#000000" stroke-width="1" stroke-linecap="round"/><path d="M77.97882,136.52623l7.65449,-1.42389l3.51688,28.25028l-7.90978,-3.46179l-3.49715,-24.13088z" data-paper-data="{&quot;index&quot;:null}" fill="#003cff" stroke="#000000" stroke-width="1" stroke-linecap="round"/><path d="M74.22117,129.31722l-3.60506,0.88163l1.97641,-28.18806l15.15305,29.75044l44.02817,-8.82084l-2.39221,4.97423l-42.94817,8.94216l-11.53644,-25.58081z" data-paper-data="{&quot;index&quot;:null}" fill="#cacaca" stroke="#000000" stroke-width="1" stroke-linecap="round"/><path d="M50.04381,231.27274l-4.23957,-36.62644l6.54287,4.17668l6.51146,39.69077z" data-paper-data="{&quot;index&quot;:null}" fill="#003cff" stroke="#000000" stroke-width="1" stroke-linecap="round"/><path d="M61.02898,241.81325l-5.37915,-41.16481l10.32506,8.59009l5.32668,40.77293z" data-paper-data="{&quot;index&quot;:null}" fill="#003cff" stroke="#000000" stroke-width="1" stroke-linecap="round"/><path d="M74.15191,254.41663l-5.85849,-41.76546l10.77761,7.99761l5.88528,42.95859z" data-paper-data="{&quot;index&quot;:null}" fill="#003cff" stroke="#000000" stroke-width="1" stroke-linecap="round"/><path d="M87.93728,267.99508l-6.04268,-44.13422l11.44005,8.97265l7.28942,46.49369z" data-paper-data="{&quot;index&quot;:null}" fill="#003cff" stroke="#000000" stroke-width="1" stroke-linecap="round"/><path d="M556.38403,11.72045c-0.4168,-3.11269 1.76864,-5.97392 4.88135,-6.39072c3.11269,-0.4168 5.97391,1.76865 6.39071,4.88135c0.4168,3.11269 -1.76864,5.97392 -4.88134,6.39071c-3.11269,0.4168 -5.97392,-1.76864 -6.39072,-4.88135z" data-paper-data="{&quot;index&quot;:null}" fill="#557067" stroke="#000000" stroke-width="1" stroke-linecap="butt"/><path d="M240.51592,129.60358l-0.58234,-2.01004l0.914,-4.0896l2.3443,-1.98431l3.15925,0.20337l2.20318,2.41941l1.28363,8.80655z" data-paper-data="{&quot;index&quot;:null}" fill="#003cff" stroke="#000000" stroke-width="1" stroke-linecap="round"/><path d="M371.06684,129.021c0.65186,0.95949 -0.30761,1.61135 -0.30761,1.61135l-0.39249,0.26251c-0.10508,0.08338 -0.20916,0.168 -0.31223,0.25382c9.45032,-4.17483 22.00301,-1.87211 27.28564,7.31282c5.56482,15.14361 -14.51048,27.0938 -27.56486,22.63452c-12.44033,-6.92955 -10.76529,-24.05446 -0.85559,-32.01447l0.53582,-0.36818c0,0 0.95949,-0.65186 1.61135,0.30761zM365.66972,136.51638c-4.13021,7.50962 -3.41162,17.69688 5.0525,22.46175c11.05868,3.81811 29.26797,-6.57117 24.51672,-19.53322c-5.58403,-9.62621 -20.83511,-10.3968 -28.92301,-3.22675c0,0 -0.27228,0.23934 -0.64619,0.29821z" fill="#000000" stroke="none" stroke-width="0.5" stroke-linecap="butt"/><path d="M366.25208,136.17453c8.08791,-7.17005 23.47515,-6.38321 29.05918,3.243c4.75124,12.96205 -13.57279,23.44339 -24.63147,19.62527c-8.46412,-4.76488 -9.20571,-15.05804 -5.07548,-22.56766c0.37392,-0.05887 0.64776,-0.3006 0.64776,-0.3006z" data-paper-data="{&quot;noHover&quot;:false,&quot;origItem&quot;:[&quot;Path&quot;,{&quot;applyMatrix&quot;:true,&quot;segments&quot;:[[[338.29931,155.61142],[0.37068,-0.07666],[-3.76687,7.6983]],[[344.41875,177.80626],[-8.68201,-4.35522],[11.2284,3.28563]],[[367.97464,157.12448],[5.36486,12.72035],[-6.03738,-9.34855]],[[338.93052,155.28269],[7.73626,-7.54812],[0,0]]],&quot;closed&quot;:true}]}" fill="#710000" stroke="none" stroke-width="0.5" stroke-linecap="butt"/><path d="M424.18263,103.09437c0.15395,1.14969 -0.99576,1.30365 -0.99576,1.30365l-0.37311,0.04996c-3.99374,0.53477 -7.91164,1.2552 -11.85507,2.08473c-7.7104,2.45731 -15.2503,4.94762 -22.70191,8.0887c-1.78425,0.75212 -7.40649,3.29235 -9.14759,2.1888c-0.6816,-0.43202 -0.07327,-1.61929 0.02017,-2.42084c0.39523,-3.39084 1.92325,-6.29431 3.58214,-9.22458c8.24817,-9.08754 19.94379,-16.13912 30.6915,-21.73136c0,0 1.03094,-0.53168 1.56262,0.49928c0.53168,1.03094 -0.49928,1.56262 -0.49928,1.56262c-10.45632,5.33726 -21.83829,12.28914 -29.87517,21.02921c-1.19518,2.14018 -2.20342,4.05197 -2.70539,6.42116c-0.17218,0.81264 -1.62369,2.89302 -1.14882,2.21147c1.08996,-1.56436 4.87868,-1.9382 6.61778,-2.67313c7.54956,-3.19033 15.19451,-5.71538 23.01232,-8.19455c4.03717,-0.85449 8.04908,-1.59328 12.13882,-2.14091l0.37311,-0.04996c0,0 1.14969,-0.15395 1.30365,0.99576z" fill="#000000" stroke="none" stroke-width="0.5" stroke-linecap="butt"/><path d="M305.657,123.64942c-0.15395,-1.14969 0.99576,-1.30365 0.99576,-1.30365l0.97541,-0.12126c3.97095,-1.05496 7.95511,-1.9597 12.03005,-2.50641c10.25737,-1.36738 20.95411,-1.58364 31.30737,-2.1409c2.98906,-0.16088 6.97265,-1.04716 10.26819,-0.77696c-1.66758,-0.82437 -3.33031,-1.45998 -5.18232,-2.07237c-5.1582,-2.30787 -9.54128,-6.36212 -15.09936,-7.71825c-4.3581,-1.06335 -8.8963,-0.44627 -13.32418,-0.33357c-2.83372,0.07213 -5.5413,-0.19706 -8.09349,1.15227c0,0 -1.03094,0.53168 -1.56262,-0.49928c-0.53168,-1.03094 0.49928,-1.56262 0.49928,-1.56262c2.94968,-1.49051 5.85422,-1.32704 9.09781,-1.40956c6.25191,-0.15906 12.44483,-0.82979 18.31903,1.90224c3.84915,1.79019 7.10049,4.55523 11.00234,6.30579c2.6239,0.86381 4.92233,1.81416 7.32678,3.20428l0.00141,0.00148l0.0003,-0.0005l1.22554,0.71466c0.30357,0.17316 0.52573,0.48097 0.5757,0.85411c0.08136,0.60766 -0.32342,1.16834 -0.91491,1.28995l-2.25718,0.48805l-0.07001,-0.32382c-4.49516,1.14906 -9.31926,0.93206 -13.99406,1.22475c-9.54081,0.59733 -19.36317,0.72773 -28.81771,1.99964c-3.97774,0.53158 -7.8665,1.41947 -11.74228,2.44914l-1.26318,0.17851c0,0 -1.14969,0.15395 -1.30365,-0.99576z" fill="#000000" stroke="none" stroke-width="0.5" stroke-linecap="butt"/></g><path d="M-546.54655,598.16817v-836.33634h1733.09309v836.33634z" fill="none" stroke="#f00000" stroke-width="0" stroke-linecap="butt"/></g></g></svg>